<svg width="112" height="112" viewBox="0 0 56 56" xmlns="http://www.w3.org/2000/svg"><path d="M29.42 33H17l3.48-7.04 2.02 3.36h4.13l2.8-5.32h-1.96l-2.06-4H36l-6.58 13Z" fill="#134B86"/><path d="m21.23 33-1.75-5.01 1-2.03L22.5 29h4.13l2.8-5h-1.96l-2.06-4H36l-6.58 13h-8.19Z" fill="url(#a)"/><path d="m35.22 21.54-4.82 9.53-2.05-3.91 6.87-5.62Z" fill="#5BB4F0"/><path d="M47 20h-9.43l-7.02 14H28l4.32 7 5.25-11h3.28l1.69-3h-3.35l1.66-4h4.53L47 20Z" fill="url(#b)"/><path d="m35.75 23.7 1.82-3.7H47l-1.62 3h-4.53l-1.53 3.45-3.57-2.74Z" fill="url(#c)"/><path d="m41.73 28.3.8-1.3h-2.87c.72.55 1.43.81 2.07 1.3Z" fill="url(#d)"/><path d="M44 23h1.38L47 20h-4.41l1.4 3Z" fill="#32DEF4"/><path d="M33.73 38.05 28.33 34H28l4.32 7 1.41-2.95Z" fill="#62B3E9"/><path d="M19.87 14 8 36h5.18l7-13.83 3.61 6.05L26 23.9 19.87 14Z" fill="url(#e)"/><path d="m24.8 21.95-3.65 1.86 2.64 4.41L26 23.9l-1.2-1.95Z" fill="url(#f)"/><path d="m25.8 24.3-8.37-5.77L19.87 14 26 23.9l-.2.4Z" fill="#FD7600"/><path d="m21.9 17.29-4.76 1.78L19.87 14l2.04 3.29Z" fill="#C74602"/><path d="m16.88 28.68-2.03-5.37L8 36h5.18l3.7-7.32Z" fill="url(#g)"/><defs><linearGradient id="a" x1="36" y1="26.5" x2="19.48" y2="26.5" gradientUnits="userSpaceOnUse"><stop offset=".32" stop-color="#44D8FC"/><stop offset=".68" stop-color="#2A78BF"/></linearGradient><linearGradient id="b" x1="38.29" y1="25.5" x2="30.82" y2="35.95" gradientUnits="userSpaceOnUse"><stop stop-color="#38D0F5"/><stop offset="1" stop-color="#3184CA"/></linearGradient><linearGradient id="c" x1="42.21" y1="20" x2="38.1" y2="25.34" gradientUnits="userSpaceOnUse"><stop stop-color="#20CBF6"/><stop offset="1" stop-color="#18B9E3"/></linearGradient><linearGradient id="d" x1="42.21" y1="20" x2="38.1" y2="25.34" gradientUnits="userSpaceOnUse"><stop stop-color="#20CBF6"/><stop offset="1" stop-color="#18B9E3"/></linearGradient><linearGradient id="e" x1="16.98" y1="18.39" x2="19.88" y2="25.62" gradientUnits="userSpaceOnUse"><stop stop-color="#F46C00"/><stop offset="1" stop-color="#CE1F04"/></linearGradient><linearGradient id="f" x1="22.92" y1="22.38" x2="23.55" y2="28.22" gradientUnits="userSpaceOnUse"><stop stop-color="#FB4303"/><stop offset="1" stop-color="#FB1206"/></linearGradient><linearGradient id="g" x1="16.07" y1="26.1" x2="8.51" y2="35.9" gradientUnits="userSpaceOnUse"><stop stop-color="#FF5C07"/><stop offset="1" stop-color="#F00006"/></linearGradient></defs></svg>