<svg width="112" height="112" viewBox="0 0 56 56" xmlns="http://www.w3.org/2000/svg"><path d="M24.8 13.67a1.27 1.27 0 0 0-1.28-.66l-5.93 1c-.5.08-.72.5-.51.95L30.2 42.33c.21.44.79.74 1.29.66l5.92-1c.5-.08.72-.5.51-.95L24.8 13.67ZM24 33.44c0-.43-.36-.73-.81-.66l-5.37.86a.98.98 0 0 0-.82.92v9.65c0 .43.37.73.82.66l5.37-.86a.98.98 0 0 0 .81-.92v-9.65Z" fill="#080515"/><path d="M39 11.8c0-.44-.36-.74-.81-.67l-5.38.86a.98.98 0 0 0-.81.92v9.65c0 .43.36.73.81.66l5.38-.86a.98.98 0 0 0 .81-.92v-9.65Z" fill="#E95B4D"/></svg>