<svg width="112" height="112" viewBox="0 0 56 56" xmlns="http://www.w3.org/2000/svg"><path d="M19.06 16.67 25.5 13l6.44 3.67-2.36 1.36-4.08-2.32-4.08 2.32-2.36-1.36Zm12.88 4.64-2.36-1.36-4.08 2.32-4.08-2.32-2.36 1.36v2.72l4.06 2.32v4.63l2.38 1.36 2.37-1.36v-4.63l4.07-2.32V21.3Zm0 7.36v-2.72l-2.36 1.36v2.71l2.36-1.35Zm1.7.96-4.08 2.31v2.72L36 30.98v-7.35L33.63 25v4.64Zm-2.38-10.64 2.36 1.36v2.72L36 21.7V19l-2.37-1.36L31.26 19Zm-8.14 13.94v2.71L25.5 37l2.37-1.36v-2.7l-2.37 1.35-2.37-1.36Zm-4.06-4.27 2.36 1.36v-2.71l-2.36-1.36v2.72-.01Zm4.06-9.67 2.38 1.36L27.87 19l-2.37-1.36L23.13 19Zm-5.75 1.36L19.74 19l-2.36-1.36L15 19v2.72l2.37 1.35v-2.71Zm0 4.64L15 23.63v7.35l6.44 3.68v-2.73l-4.06-2.31v-4.64h-.01Z" fill="#fff"/><path d="M29 35.5a7.5 7.5 0 1 1 15 0 7.5 7.5 0 0 1-15 0Z" fill="#F4D5B1"/><path d="m38.52 34.14.41-.64.1.04-.42.74L41 38h-2.2v-.16h.2c.3 0 .5-.3.34-.53l-3.28-5.11-3.29 5.1a.33.33 0 0 0 0 .36c.03.06.08.1.14.13.06.03.13.05.2.05h.15V38H32l4.5-7 2.02 3.14Zm-2.47 3.57 1.71-2.34.15.16L36.25 38h-.17l-1.83-2.67.1-.08 1.7 2.46Zm.11-3.65c.03.17.1.33.22.46s.28.23.46.29l.22.06-.22.07c-.18.06-.34.16-.46.3-.12.12-.2.28-.22.45l-.08.56-.09-.56a.86.86 0 0 0-.21-.46 1.03 1.03 0 0 0-.46-.29l-.23-.06.23-.07c.18-.06.34-.16.46-.3.12-.12.2-.28.21-.45l.09-.56.08.56Zm-2.2.35-.14.09-.7-1.21.1-.04.75 1.16Z"/></svg>