<svg width="112" height="112" viewBox="0 0 56 56" xmlns="http://www.w3.org/2000/svg"><path fill-rule="evenodd" d="M21 33a2.8 2.8 0 0 0 1.56-.6c.5-.36 1.03-.86 1.57-1.43.82-.86 1.7-1.94 2.62-3.06a231.73 231.73 0 0 1 2.37-2.81c1.37 1 2.9 1.9 4.88 1.9 1.8 0 3.37-.08 4.63-.14l.9-.05a17.6 17.6 0 0 1 1.61-.02 2.47 2.47 0 0 1 .52.08c.12.12.3.25.5.38a4.06 4.06 0 0 0 2.27 1.25l.07-.5.22-.45a27.3 27.3 0 0 1-1.92-1.07 7.35 7.35 0 0 1-.19-.2c-.49-.53-.94-1.17-1.43-1.86l-.46-.65C39.4 21.97 37.78 20 35 20c-1.44 0-2.87.85-4.2 2-.6.52-1.2 1.12-1.8 1.75l-.2-.15-.04-.03C27.16 22.34 25.42 21 23 21c-1.33 0-2.42.74-3.32 1.73a16.7 16.7 0 0 0-2.2 3.34 6.69 6.69 0 0 0-.4-.62c-.6-.82-1.43-1.45-2.58-1.45-.73 0-1.44.3-2.01.63a6.9 6.9 0 0 0-1.34 1.02l.7.7c.23-.22.64-.57 1.14-.86.5-.29 1.04-.49 1.51-.49.72 0 1.28.37 1.77 1.05.24.32.45.69.65 1.1l-.32.63c-.35.7-.68 1.35-1 1.9-.26.47-.5.82-.71 1.05-.23.24-.35.27-.39.27a2.6 2.6 0 0 1-1.66-.64 3.6 3.6 0 0 1-.9-1.08l-.89.44c.2.4.6.95 1.16 1.42a3.6 3.6 0 0 0 2.29.86c.46 0 .84-.28 1.12-.59.3-.31.58-.75.85-1.22.3-.53.63-1.17.96-1.84l.14.33.13.34c.34.87.69 1.78 1.12 2.49.49.8 1.16 1.49 2.18 1.49Zm-2.97-5.83.47 1.15.13.33c.34.9.66 1.71 1.04 2.34.43.7.85 1.01 1.33 1.01.23 0 .55-.12.98-.42.43-.3.9-.75 1.42-1.3.8-.83 1.65-1.87 2.56-2.98l.92-1.12 1.44-1.69-.08-.06-.04-.03C26.55 23.13 25.06 22 23 22c-.92 0-1.77.51-2.58 1.4a16.38 16.38 0 0 0-2.4 3.77Zm11.77-2.81C31.1 25.28 32.37 26 34 26c1.78 0 3.31-.08 4.56-.14l.92-.05c.55-.02 1.04-.04 1.45-.03l-.59-.82-.43-.6C38.59 22.54 37.22 21 35 21c-1.06 0-2.25.65-3.54 1.75-.55.48-1.1 1.02-1.66 1.6Z" fill="url(#apht54vl0)"/><path d="M14.37 27.24c.7-.11 1.44-.13 2.18.01 1.28.26 1.95.78 2.5 1.22l.04.02c.28.22.53.4.82.54.29.13.62.22 1.09.22.46 0 1.05-.14 1.79-.36l.73-.23c.55-.17 1.15-.36 1.8-.53 1.47-.39 3.19-.71 5.09-.59-.5-.25-1.05-.53-1.7-.81a18.72 18.72 0 0 0-5.73-1.48c-1.95-.2-4.28.33-6.4 1.09a28 28 0 0 0-2.21.9Zm17.47.98c-2.4-.45-4.57-.1-6.4.4-.63.16-1.22.35-1.76.51l-.75.23a7.3 7.3 0 0 1-1.93.39 3 3 0 0 1-1.3-.27 4.72 4.72 0 0 1-.95-.62c-.54-.42-1.13-.88-2.3-1.11a6.35 6.35 0 0 0-2.82.15c-.88.24-1.6.58-2 .81l-.27-.42a25.17 25.17 0 0 1 5.06-2.43c2.13-.76 4.55-1.31 6.6-1.1 2.54.24 4.44.88 5.9 1.51.68.3 1.27.6 1.77.85l.09.05c.53.27.95.47 1.3.6.2.06.47.17.78.3l.05.03 1.06.44c.85.33 1.88.69 3.01.9 2.27.43 4.94.3 7.36-1.64l.36.36a9.25 9.25 0 0 1-7.7 3.59 5.24 5.24 0 0 1-3.31-1.37 9 9 0 0 1-1.85-2.16Zm.8.31c.35.47.81 1 1.37 1.47.84.7 1.87 1.25 2.99 1.25 2.24 0 4.2-.57 5.85-1.93a9.63 9.63 0 0 1-5.96.61 17.2 17.2 0 0 1-3.1-.92l-1.07-.45-.06-.02-.01-.01Z" fill="url(#bpht54vl0)"/><path fill-rule="evenodd" d="M28 44a16 16 0 1 0 0-32 16 16 0 0 0 0 32Zm0 1a17 17 0 1 0 0-34 17 17 0 0 0 0 34Z" fill="url(#cpht54vl0)"/><defs><linearGradient id="apht54vl0" x1="12" y1="28" x2="45" y2="28.5" gradientUnits="userSpaceOnUse"><stop stop-color="#B89DDF"/><stop offset="1" stop-color="#40B6F3"/></linearGradient><linearGradient id="bpht54vl0" x1="11.5" y1="28.5" x2="45" y2="29" gradientUnits="userSpaceOnUse"><stop stop-color="#DBC5EB"/><stop offset="1" stop-color="#9AD6EC"/></linearGradient><linearGradient id="cpht54vl0" x1="11.5" y1="28" x2="44" y2="28.5" gradientUnits="userSpaceOnUse"><stop stop-color="#6C88D7"/><stop offset="1" stop-color="#6927C9"/></linearGradient></defs></svg>