<svg width="112" height="112" viewBox="0 0 56 56" xmlns="http://www.w3.org/2000/svg"><path d="M33.37 27.85c-.64 0-1.13-.57-1.3-.85-.02.21-.07.77-.07 1.31 0 .68.65 3.69 3.13 3.69s2.94-3.26 2.86-3.81c-.76-.68-3.81-.34-4.62-.34Z" fill="#CF905B"/><path d="M37.08 27.85a4.23 4.23 0 0 1-1.73 4.14c2.29-.18 2.72-3.27 2.64-3.8a1.87 1.87 0 0 0-.91-.34Z" fill="#FAB071"/><path d="M28.9 44c-3.2 0-6.49-1.22-7.6-1.74a7.22 7.22 0 0 0 .96-5.02l3.25-2.79c4.29.96 12.82 3.14 12.65 4.19a13.58 13.58 0 0 1-1.5 3.48A19.73 19.73 0 0 1 28.9 44Z" fill="#C2C2C2"/><path d="M18.31 40.47a18.97 18.97 0 0 1-4.78-5.45l.44-1.57 2.8-3.23 1.02-3.36c.39-1.3 1.31-4.52 1.84-6.93 0-2.92 6.63-5.36 9.66-5.36 3.03 0 5.49 1.57 6.36 1.96.88.4 2.5 2.27 2.99 3.05.32.8.42 1.5.44 1.75l-2.15-1.49c-1.76.22-5.3.67-5.4.7-.1.04-3.44 2.2-5.1 3.27l-4.25 9.64c-.31 3.05-1.51 8.73-3.87 7.02Z" fill="#32B2D3"/><path d="M32.4 18c4.29 0 6.27 2.1 6.72 3.24l.09.65c-.5-.46-1.93-.89-3.69-.89C32.2 21 31 23.29 31 26.47c0 3.18.92 6.53 4.08 6.53s4.02-3.08 4.42-4c0 3.8-.83 7.75-1.26 9.46-.48 1.3-2.64 3.54-7.42 3.54-4.77 0-7.55-2.94-8.34-4.58-.66-.72-1.8-2.4-1.1-3.4.88-1.27 1.5-4.98 2.07-8.77.57-3.8 3.6-7.25 8.95-7.25Z" fill="#E7E9E8"/><path d="M16.69 28.78c-.49 1.68-2.77 3.84-3.69 5.06l.53 1.18c-.02-.08.5-.83 2.67-3.27 2.73-3.06 1.72-3.97 2.86-8.55S23.84 15 29.2 15s7.9 2.75 9.75 5.37C36.62 14.6 30.87 14 28.76 14c-12.03 0-11.1 11.42-12.07 14.78Z" fill="#9FDBE6"/><path d="M20 35.76c0 2.34-1.3 4.11-1.69 4.7.95.74 2.07 1.36 2.5 1.58.24 0 .78-.1 1.06-.53.35-.51.13-3.26 0-4.97v-.04c-.1-1.36-1.62-3.66-2.37-4.5L18 31c.5.55 2 2.42 2 4.76Z" fill="#2A92BA"/><path d="M22.53 38.42c0-4.5-3.04-6.88-4.53-7.42a9.25 9.25 0 0 1 3.7 7.64c0 1.74-.6 3-.89 3.4l.7.35a7.12 7.12 0 0 0 1.02-3.97Z"/><path d="M32.89 23.4c-.07.55-.42.47-.7.59-.19.5-.19 1.01-.19 1.26.12 1.4.95 1.75 1.15 1.75h2.72c2.99 0 3.73.78 4.13 1 0-5.23-2.9-6-4.39-6-1.5 0-2.63.7-2.72 1.4Z" fill="#FAB071"/><path d="M40 28c-.69-1.24-1.98-2.03-2.67-2H33.3c-.93 0-1.22-.46-1.27-1-.03.2-.03.4 0 .56.1 1 .94 1.44 1.14 1.44h2.99c1.48 0 2.6.28 3.85 1Z" fill="#D38E55"/><path d="M24.94 19.54c-.23.07-.47.11-.67.11-.65 0-1.12-.37-1.27-.56v.48c.08.27.45.8 1.33.7a2.5 2.5 0 1 0 1.9-1.25V19l-.03.02c-.47.05-.9.24-1.26.52Z"/><circle cx="25.5" cy="20.5" r=".5" fill="#F0F3FA"/><path d="M28 21c-.1 1-.86 2.72-3 1.67.65.12 2.1.44 3-1.67Z" fill="#C6C7C9"/><path d="M35.5 23.04c-.77 0-1.78.43-2.13.6.22-.66 1.32-1.14 2.33-1.14 2.54 0 3.8 2.08 3.8 3a4.26 4.26 0 0 0-4-2.46Z" fill="#F9E0C1"/></svg>