<svg width="56" height="56" viewBox="0 0 56 56" xmlns="http://www.w3.org/2000/svg"><circle cx="28" cy="28" r="9" fill="#040C4A"/><path d="M16.56 21.82c-.7 1.3-1.2 2.74-1.42 4.26l1.42-4.26ZM15 28a13 13 0 0 0 13 13v-3a10 10 0 0 1-10-10h-3Zm13-10a10 10 0 0 1 10 10h3a13 13 0 0 0-13-13v3Z" fill="#040C4A"/><path d="M38 15.5V20h-.5v-5H42v.5h-4Z" fill="#040C4A"/><path d="M32 24c1.2 0 2 1.33 2 2h-1c0-.8-.83-1-1-1h-8c-.8 0-1 .67-1 1v5c0 .8.67 1 1 1h8c.4 0 1-.67 1-1h1c0 1.6-1.5 2-2 2h-8c-1.6 0-2-1.33-2-2v-5c0-1.2.99-1.83 1.66-2H32Z" fill="#fff"/><path d="M28 12a16 16 0 0 0-16 16h3a13 13 0 0 1 13-13v-3Zm13 16a13 13 0 0 1-13 13v3a16 16 0 0 0 16-16h-3Z" fill="#040C4A"/></svg>