<svg width="56" height="56" viewBox="0 0 56 56" xmlns="http://www.w3.org/2000/svg"><path fill-rule="evenodd" d="M42.5 25.55c-.34 0-.66.06-.95.18L30.3 14.48A2.5 2.5 0 0 0 28 11a2.5 2.5 0 0 0-2.3 3.48L14.46 25.69A2.5 2.5 0 0 0 11 28V28a2.5 2.5 0 0 0 3.48 2.3L25.7 41.53A2.5 2.5 0 0 0 28 45a2.5 2.5 0 0 0 2.3-3.48l11.2-11.2c.3.15.64.23 1 .23a2.5 2.5 0 0 0 2.5-2.54v-.04a2.5 2.5 0 0 0-2.5-2.42ZM28.29 40.02l4.42-9.2a2.03 2.03 0 0 1-.48-1.33v-.03l-2.95-1.43a2 2 0 0 1-2.52.04l-.01.01-2.94 1.38c0 .48-.17.95-.48 1.32l4.37 9.24a2.53 2.53 0 0 1 .59 0Zm.92-24.33 11.07 11.24-.12.31-4.21 1.03a2.13 2.13 0 0 0-1.68-.88c-.49 0-.95.17-1.32.49L30 26.52v-.02a2 2 0 0 0-1-1.73v-8.98l.21-.1Zm7.07 14.28 3.96-.98.06.13-9.36 9.37 3.3-6.97h.03a2.1 2.1 0 0 0 2-1.55Zm-20.4-2.71a2.5 2.5 0 0 0-.14-.37l11.06-11.2.2.1v8.98a2 2 0 0 0-1 1.7l-.08.04-2.9 1.35a2.03 2.03 0 0 0-3 .4l-4.13-1Zm-.15 1.86.06-.12 3.94.97a2.06 2.06 0 0 0 2 1.55h.04l3.3 6.97-9.34-9.37Z" fill="url(#bylg1mmvx)"/><defs><linearGradient id="aylg1mmvx" x1="10.42" y1="9.71" x2="68.15" y2="76.02" gradientUnits="userSpaceOnUse"><stop stop-color="#1A1E21"/><stop offset="1" stop-color="#06060A"/></linearGradient><linearGradient id="bylg1mmvx" x1="11" y1="28" x2="45" y2="28" gradientUnits="userSpaceOnUse"><stop stop-color="#0BADF4"/><stop offset=".93" stop-color="#30EFE4"/></linearGradient></defs></svg>