<svg width="56" height="56" viewBox="0 0 56 56" xmlns="http://www.w3.org/2000/svg"><path d="M35.09 12.87a.31.31 0 0 0-.1.07c-.02.03-.01.05.03.06h.09a6.52 6.52 0 0 1 3.88 1.67l-.03.02h-.25c-.34 0-.6 0-.77.03-.28.04-.54.13-.77.27a.05.05 0 0 0-.02.05c0 .02.01.03.03.04a8.57 8.57 0 0 1 4.9 4.05h-.03a10.4 10.4 0 0 0-2.36-.9v.02a7.67 7.67 0 0 1 2.02 2.43c.15.32.4.47.76.45l-.42.25c-.03.01-.03.03-.02.06l.52 1.04a13.81 13.81 0 0 1 1.37 4.67 15.18 15.18 0 0 1-5.17 12.94 16.39 16.39 0 0 1-16.56 2.8 16.67 16.67 0 0 1-6.55-4.64l5-6.19c.13-.16.22-.3.26-.45.48-1.65 1.2-3.22 2.16-4.7l.74-1.12c.04-.06.03-.11-.01-.16a6 6 0 0 0-3.16-1.9 2.5 2.5 0 0 0-.94-.05c-.24.05-.55.16-.93.34-.78.36-1.56.64-2.35.84-.09.02-.13.07-.12.16a5.29 5.29 0 0 0 .72 2.18 6.15 6.15 0 0 1-2.13-2.8 5.16 5.16 0 0 1-.1-3.46 6.1 6.1 0 0 1 1.35-2.2 9.34 9.34 0 0 1 2.02-1.67l.75-.46c.32-.2.83-.59 1.52-1.16l.6-.5a17.17 17.17 0 0 1 3.88-2.24c.55-.2.91-.32 1.07-.36a15.1 15.1 0 0 1 5.8-.14 29.06 29.06 0 0 0 4 .28c.01.02 0 .03-.01.04l-.67.34Z"/><path d="M28.7 19.73c-.09 0-.24.04-.46.08a3.03 3.03 0 0 1-2.91-.68.03.03 0 0 1-.01-.04c0-.02.01-.03.03-.02.42.03.81-.06 1.19-.28.36-.2.64-.5.85-.86 0-.02.02-.03.04-.02.02 0 .03.02.02.04-.04.2-.12.4-.23.58-.07.12-.2.28-.37.5l-.1.1c0 .03 0 .03.02.02a14.2 14.2 0 0 0 1.64-1.1c.48-.38.8-.62.98-.7a11.37 11.37 0 0 1 1.86-.74c-.7.07-1.42.1-2.14.09-.3 0-.62-.1-.95-.3L27 15.7c-.05-.03-.05-.06-.02-.1l.43-.57v-.05h-.05A15.41 15.41 0 0 1 22.65 17c-.13.04-.43.08-.9.14a.05.05 0 0 0-.05.03v.05l.25.42v.06a.05.05 0 0 1-.06.02 2.1 2.1 0 0 1-.67-.34c-.02-.02-.04-.02-.06 0-.02.01-.02.03 0 .05l.22.4c.01.02 0 .04-.01.06-.02.02-.04.02-.06 0l-.54-.41h-.03v.02l.13.24v.05h-.05a5.44 5.44 0 0 1-.58-.77c-.2-.3-.2-.58.02-.82.2-.22.45-.45.76-.69a16 16 0 0 1 2.91-1.75 11.85 11.85 0 0 1 3.85-1.14c.93-.09 1.94-.04 3.03.14.67.12 1.71.36 3.13.73l.11.02a7.7 7.7 0 0 0 2.22.29c0 .01 0 .03-.02.03L34.26 15a.03.03 0 0 0-.01.03 16.94 16.94 0 0 1 3.5 2.02c.02.01.03.03.02.05 0 .02-.02.03-.04.02a5.38 5.38 0 0 0-2.31.15c0 .02 0 .02.02.03a9.41 9.41 0 0 1 5.3 4.74 4.26 4.26 0 0 1 .41 1.6h-.03a7.7 7.7 0 0 0-4.38-3.06l-.02.02.01.02c.39.24.76.5 1.13.77.7.53 1.3 1.13 1.8 1.8a4.49 4.49 0 0 1 .96 2.32h-.03a4.35 4.35 0 0 0-2.51-1.28v.03a21.02 21.02 0 0 1 1.68 5.94l-.03-.01a9.4 9.4 0 0 0-5.49-3.5v.02a10.01 10.01 0 0 1 2.47 5.73h-.02a29.58 29.58 0 0 0-4.25-3.63 91.03 91.03 0 0 0-1.5-1 12.74 12.74 0 0 1-.21 6.55c-.32-.35-.6-.75-.86-1.2a22.8 22.8 0 0 1-.82-1.63 33.7 33.7 0 0 0-1.15 4.35h-.02a10.54 10.54 0 0 1-.3-3.82l-.01-.02h-.02a23.08 23.08 0 0 0-4.24 7.37c-.01 0-.02 0-.02-.02a9.37 9.37 0 0 1-.21-3.42 15.8 15.8 0 0 1 1.73-5.52h-.04a16.14 16.14 0 0 0-3.46 5.15.8.8 0 0 1-.11.18h-.04c-.01 0-.02 0-.02-.02 0-.13-.02-.34-.05-.62a9.77 9.77 0 0 1 .6-4.4 12.2 12.2 0 0 1 8.66-7.76 10.51 10.51 0 0 1 1.38-.3c0-.01 0-.02-.02-.02-1.05-.3-2.12-.42-3.19-.38-.32.01-.63.06-.93.16-.02 0-.04 0-.05-.02v-.05l.34-.34v-.02h-.01a5.16 5.16 0 0 1-4.14-.2c0-.02.01-.03.03-.04.21-.12.46-.19.74-.22l.46-.02c.41 0 .7-.03.86-.08.42-.1.8-.31 1.16-.62.03-.02.02-.04-.02-.06l-.3-.1c-.44-.14-.67-.24-.68-.28-.01-.04 0-.06.05-.06a4.64 4.64 0 0 0 2.69-.6h-.02Z" fill="#F0F3FA"/><path d="M24.9 12.7a17.18 17.18 0 0 0-4.48 2.75c-.7.57-1.2.96-1.52 1.16l-.75.46a9.34 9.34 0 0 0-2.02 1.67 6.1 6.1 0 0 0-1.34 2.2 5.16 5.16 0 0 0 .09 3.47A6.15 6.15 0 0 0 17 27.2v-.04a5.29 5.29 0 0 1-.72-2.15c0-.09.03-.14.12-.16.79-.2 1.57-.48 2.35-.84.38-.18.7-.3.93-.34.27-.04.59-.03.94.04a6 6 0 0 1 3.16 1.91c.04.05.05.1 0 .16l-.73 1.12a17.92 17.92 0 0 0-2.16 4.7c-.04.14-.13.3-.25.45-1.68 2.06-3.35 4.12-5.01 6.2l-.48-.67c-1.96-2.62-3-5.58-3.16-8.87v-1.05a15.87 15.87 0 0 1 3.81-9.8 15.45 15.45 0 0 1 9.1-5.17ZM35.09 12.87a.1.1 0 0 0 .02.12.17.17 0 0 1-.1.01c-.03 0-.04-.03-.01-.06a.31.31 0 0 1 .09-.07Z" fill="#A5634D"/><path d="M24.98 17.16c.06-.02.1 0 .11.05l.17.4c.07.17.21.24.42.22.2-.02.35-.1.43-.25.04-.09.05-.23.03-.43a1.1 1.1 0 0 1 0-.29c.02-.1.07-.16.16-.2.1-.04.17-.02.22.07a1.16 1.16 0 0 1 .01 1.23 1.13 1.13 0 0 1-1.12.5 1.13 1.13 0 0 1-.74-.58c-.07-.14-.1-.28-.05-.4.05-.15.17-.25.36-.32ZM20.45 19.73v.04h-.04c-.15-.11-.31-.2-.5-.27a8.48 8.48 0 0 0-.6-.2c-.7-.22-1.2-.66-1.49-1.3a.12.12 0 0 1 0-.11.74.74 0 0 1 .3-.26c.48-.29.93-.54 1.34-.76.19-.1.35-.06.49.1.33.4.45.86.38 1.38 0 .02-.02.03-.03.04h-.05l-.38-.3a.11.11 0 0 0-.1-.01l-.99.33a.05.05 0 0 0-.03.04l.01.05c.2.2.5.36.93.45.38.1.63.35.76.78Z" fill="#F0F3FA"/><path d="M20.6 20.77v.03l-.04-.01c-.19-.27-.4-.47-.63-.61-.1-.07-.31-.15-.62-.23l-.2-.06a1.89 1.89 0 0 1-1.13-1c-.02-.05-.05-.06-.1-.04-.4.2-.8.5-1.17.9-.3.3-.6.7-.95 1.18-.02.02-.04.03-.06.02-.02-.01-.03-.03-.02-.05.15-.82.53-1.53 1.11-2.14l.01-.01c.3-.3.53-.5.7-.6a.17.17 0 0 1 .13 0c.04 0 .08.04.1.08.24.44.56.8.95 1.06.1.08.31.17.6.28.31.12.52.21.63.29.34.23.57.54.7.9ZM39.83 18.26v.11a.42.42 0 0 1-.14-.12v-.02c0-.01 0-.02.02-.02.04 0 .08.02.12.05ZM20.14 21.6c.1-.07.35-.21.72-.42.08-.05.14-.1.16-.16.02-.06.02-.13-.01-.23-.04-.1-.07-.25-.12-.43 0-.02 0-.04.02-.05h.05c.14.13.28.22.4.28.18.06.52.07 1.02 0a8.13 8.13 0 0 1 2.71.07c0 .01 0 .02-.02.02l-1.39.12c-.7.09-1.45.3-2.23.63a8.7 8.7 0 0 1-1.32.2l.01-.02Z" fill="#F0F3FA"/><path d="M42.44 24.27 42 25.52c-.03-.6-.03-1.2-.03-1.78a3.18 3.18 0 0 0-.07-.65c0-.01 0-.02.02-.02h.03l.48 1.2Z" fill="#EF3230"/><path d="M42.44 24.27c.16.4.26.75.3 1.07a45.86 45.86 0 0 1-2.13 5.13l-.12-1.13.83-1.9.33.35h.04c.01 0 .02-.01.02-.03l-.12-1.09.24-.58c.03.06.05.1.08.12h.03l.02-.02.05-.67.43-1.25Z" fill="#F0F3FA"/><path d="M42.74 25.34c.14.3.2.58.2.8a38.9 38.9 0 0 1-2.2 5.46l-.13-1.13a45.9 45.9 0 0 0 2.13-5.13ZM41.83 26.1l-.24.57-.1-1.03.01-.02h.02l.31.47Z" fill="#EF3230"/><path d="m40.7 26.8-.04.04-.46 1.08-.25-.93.24-.6a.08.08 0 0 0-.02-.1l-.35-.36c-.03-.03-.06-.03-.09.01-.04.07-.05.16-.03.28l-.18-.52.01-.02h.03l1.13 1.12Z" fill="#F0F3FA"/><path d="m39.95 26.99-.25-.77c-.02-.12-.01-.21.03-.28.03-.04.06-.04.09 0l.35.35c.03.03.04.06.02.1l-.24.6Z" fill="#EF3230"/><path d="M42.93 26.14c.13.5.19.95.19 1.35a58.03 58.03 0 0 1-1.31 3.24 16.56 16.56 0 0 1-.98 1.87l-.1-1a38.9 38.9 0 0 0 2.2-5.46Z" fill="#F0F3FA"/><path d="M40.66 26.84h.08l.58.6-.83 1.9-.29-1.42.46-1.08Z" fill="#EF3230"/><path d="M43.12 27.5c.07.44.1.85.05 1.23a33.35 33.35 0 0 1-2.61 5.8 13.45 13.45 0 0 1-6.43 5.66 21.39 21.39 0 0 1-5.05 1.4 15.5 15.5 0 0 1-5-.02l.04-.87c2.9.32 5.95-.12 9.14-1.32A13.83 13.83 0 0 0 40 34c.25-.37.49-.76.73-1.17.08.1.1.02.09-.23 0 .02 0 .02.01 0 .34-.56.67-1.2.97-1.87.48-1.11.92-2.19 1.3-3.24Z" fill="#EF3230"/><path d="m36.88 28.63-.2.33h-.03l-.27-.58v-.03h.03l.47.28Z" fill="#F0F3FA"/><path d="M37.48 29.06c-.12.27-.28.52-.48.75a1 1 0 0 1-.16-.42c-.02-.15-.08-.3-.17-.43l.21-.33.6.43Z" fill="#EF3230"/><path d="M43.17 28.73c.02.8-.04 1.57-.2 2.29l-.83 1.8a19.05 19.05 0 0 1-2.01 3.39 14.11 14.11 0 0 1-6.89 4.95 21.48 21.48 0 0 1-5.69 1.2c-1.09.07-2.24 0-3.47-.19l-.03.03.02-.63c1.67.28 3.35.3 5.01.03 1.82-.29 3.5-.76 5.05-1.41a13.45 13.45 0 0 0 6.43-5.67 33.35 33.35 0 0 0 2.61-5.79Z" fill="#F0F3FA"/><path d="M36.67 28.96c.1.14.15.28.17.43a1.39 1.39 0 0 1-.19-.43h.02Z" fill="#A5634D"/><path d="m37.95 29.47-.02.03-.72 1.05-.21-.74c.2-.23.36-.48.48-.75l.47.4Z" fill="#F0F3FA"/><path d="M38.47 29.98v.05l-.54-.53.02-.03.52.5Z" fill="#A5634D"/><path d="m37.93 29.5.54.53c-.29.53-.63 1.06-1.03 1.56l-.23-1.04.72-1.05Z" fill="#EF3230"/><path d="M32.16 29.61a.4.4 0 0 0-.07.32V30l-.03.17-.02-.57c0-.04.02-.05.05-.04l.07.05Z" fill="#A5634D"/><path d="M32.84 30.11c-.22.22-.48.4-.77.55l-.01-.49.03-.17v-.07a.4.4 0 0 1 .07-.32l.68.5Z" fill="#EF3230"/><path d="m38.47 29.98.44.5-1.37 1.99-.1-.88c.4-.5.74-1.03 1.03-1.56v-.05ZM33.33 30.5c-.36.3-.74.57-1.14.8-.08.05-.13.16-.14.32l.02-.96c.3-.15.55-.33.77-.55l.5.4Z" fill="#F0F3FA"/><path d="M33.62 30.72c.06.13.12.19.2.17.07.04.13.1.18.16-.62.54-1.3 1.01-2.05 1.42l.1-.85c.01-.16.06-.27.14-.31.4-.24.78-.5 1.14-.8l.29.21ZM39.5 31.22c-.52.88-1.13 1.72-1.83 2.52l-.13-1.27 1.37-2 .59.75ZM42.97 31.02c-.1.87-.32 1.73-.65 2.59A14.65 14.65 0 0 1 33 42.4a15.55 15.55 0 0 1-8.88.27l-.04-.5c1.23.19 2.38.25 3.47.18 1.88-.13 3.78-.53 5.7-1.2a14.11 14.11 0 0 0 6.88-4.95c.81-1.1 1.48-2.23 2.01-3.39l.83-1.8Z" fill="#EF3230"/><path d="m34 31.05.46.4c-.81.7-1.69 1.28-2.63 1.76l.12-.74c.75-.4 1.43-.88 2.05-1.42ZM39.5 31.22l.39.5a16.82 16.82 0 0 1-2.16 2.82l-.06-.8c.7-.8 1.31-1.64 1.83-2.52Z" fill="#F0F3FA"/><path d="M35.02 31.94c-.02.02 0 .06.08.11a12.2 12.2 0 0 1-3.5 2.28l.16-.71c.07-.07.08-.14.03-.23 0-.05.01-.11.04-.18.94-.48 1.82-1.07 2.63-1.76l.56.5ZM40.04 31.92c.02.1.08.17.19.22.04.04.08.1.11.17a15.31 15.31 0 0 1-2.14 3.05 13.14 13.14 0 0 1-5.2 3.5 18.75 18.75 0 0 1-8.86 1.24 1.8 1.8 0 0 1 .07-.75c.04-.02.08-.07.1-.15 1.2.08 2.4.04 3.58-.14.04.09.06.16.06.22 0 .1.02.18.06.27.02.04.04.04.06 0 .01 0 .02-.02.01-.03l.05-.38.06-.09a.1.1 0 0 1 .07-.04c1.55-.27 3.05-.68 4.52-1.24a13.72 13.72 0 0 0 4.37-2.7l.5-.42.04.03c.03.02.05.01.05-.03v-.1c.8-.86 1.52-1.8 2.15-2.83.06.05.12.12.15.2Z" fill="#EF3230"/><path d="M40.23 32.14a.3.3 0 0 1-.2-.22l.2.22Z" fill="#A5634D"/><path d="M36.58 33.52a13.81 13.81 0 0 1-5.22 3.18 24.2 24.2 0 0 1-2.78.79.12.12 0 0 0-.1.07l-.08.2.17-.89c3.14-.65 5.65-1.89 7.52-3.71.04-.04.04-.08 0-.12l-.51-.52c-.04-.03-.08-.04-.12 0a13.12 13.12 0 0 1-4.01 2.5l.16-.7a12.2 12.2 0 0 0 3.49-2.27v-.03l1.48 1.5ZM40.34 32.31l.4.52c-.24.41-.48.8-.73 1.17a13.83 13.83 0 0 1-6.75 5.38 19.47 19.47 0 0 1-9.14 1.32l.02-.6c2.78.34 5.73-.08 8.86-1.25a13.14 13.14 0 0 0 5.2-3.49c.81-.9 1.53-1.9 2.14-3.05Z" fill="#F0F3FA"/><path d="m28.57 36.87.02-.07a.42.42 0 0 0 .05-.33c-.01-.05 0-.1.03-.15.06-.11.1-.24.1-.39l1.69-.5c.03-.01.05 0 .07.01l.27.23.3.33c.02.01.04.02.06.01.02 0 .04-.02.04-.04l.17-.63c.06-.06.1-.16.1-.3 1.5-.61 2.83-1.45 4-2.52.03-.04.07-.03.11 0l.51.52c.04.04.04.08 0 .12-1.87 1.82-4.38 3.06-7.52 3.71Z" fill="#EF3230"/><path d="M23.34 40.02a7.02 7.02 0 0 1-.1 1.38 130.3 130.3 0 0 0-.03 1.54l-.02-.39a.1.1 0 0 0-.07-.1 14.29 14.29 0 0 1-6.46-4.22c-.02-.02-.02-.04 0-.06L20.55 33h.03v.02c-.3 1.55-.18 2.83.36 3.81.01.02.02.03.04.03.01 0 .03 0 .04-.02l1.59-2.34h.01c-.27 1.1-.39 2.12-.36 3.03.04 1.23.36 2.16.95 2.8h.05c.01 0 .02-.01.02-.03a1.12 1.12 0 0 1 0-.3l.04-.02.02.04Z" fill="#4868B1"/><path d="M31.76 33.62a.42.42 0 0 1 .03-.23c.05.09.04.16-.03.23Z" fill="#A5634D"/><path d="M37.23 34.2c-1.38 1.37-3 2.4-4.86 3.09-1.37.5-2.74.88-4.1 1.11l.13-.65.09-.2a.12.12 0 0 1 .09-.06c.83-.18 1.76-.44 2.78-.8a13.81 13.81 0 0 0 5.22-3.17l.65.68Z" fill="#EF3230"/><path d="M29.55 34.19c-.01.03-.02.03-.02.01a.63.63 0 0 0-.4.11l-.04-.01.14-.53c0-.01 0-.02.02-.02l.02.01.28.43Z" fill="#F0F3FA"/><path d="M29.53 34.2c.14.24.3.44.5.6l.07.1-1.23.37c.01-.14.04-.27.1-.39.07-.08.08-.13.02-.17l.05-.2c.06-.03.08-.1.08-.2a.63.63 0 0 1 .41-.1Z" fill="#EF3230"/><path d="m37.23 34.2.41.45-.5.43a13.72 13.72 0 0 1-4.36 2.7c-1.47.55-2.97.96-4.52 1.23a.1.1 0 0 0-.07.04l-.06.09.14-.74c1.36-.23 2.73-.6 4.1-1.11 1.86-.7 3.48-1.72 4.86-3.09ZM26.87 35.07c-.06-.24-.24-.24-.54 0l.41-.6h.03l.01.01.09.6Z" fill="#F0F3FA"/><path d="M28.96 34.88a.26.26 0 0 1 .03-.17c.05.04.05.1-.03.17Z" fill="#A5634D"/><path d="m30.8 35.67-.27-.23a.08.08 0 0 0-.07-.02l-1.68.51h-.04l.13-.66 1.23-.38.7.78Z" fill="#F0F3FA"/><path d="m26.87 35.07.06.27c-.04.1-.03.19.05.24l.01.12-1.12.14c.05-.14.1-.25.2-.32.12-.13.21-.27.26-.44.3-.25.48-.25.54 0Z" fill="#EF3230"/><path d="m31.45 35.02.02.01c0 .15-.04.25-.1.31 0-.11.03-.22.08-.32ZM26.33 35.08c-.05.17-.14.31-.27.44l.27-.44ZM26.93 35.34c.03.07.04.15.05.24-.08-.05-.1-.13-.05-.24Z" fill="#A5634D"/><path d="m27 35.7.14.59-1.62.2-.03.01.38-.66L27 35.7Z" fill="#F0F3FA"/><path d="M28.78 35.93c-.02.15-.05.28-.1.4 0-.14.01-.27.06-.4h.04Z" fill="#A5634D"/><path d="m27.14 36.29.23.8c-.75.13-1.5.18-2.25.17.02-.12.06-.2.1-.25.13-.14.22-.32.3-.52l1.62-.2Z" fill="#EF3230"/><path d="M28.59 36.8a.6.6 0 0 1 .05-.33c.03.11.01.22-.05.33ZM25.5 36.5l.02-.01c-.08.2-.17.38-.3.52l.27-.5Z" fill="#A5634D"/><path d="m19.02 37.53.64.23c.15.06.27.03.38-.09a11.66 11.66 0 0 0 .5-.57l.01.02.05.87c0 .1.05.17.13.22l.72.41.02.04c0 .02-.01.03-.03.04l-.68.25c-.13.04-.2.14-.21.29a47.03 47.03 0 0 0-.1.86l-.03-.01c-.15-.25-.32-.5-.5-.73-.05-.06-.16-.08-.33-.07a14.35 14.35 0 0 0-.67.08v-.03l.43-.7c.06-.1.05-.21-.02-.36a11.57 11.57 0 0 1-.34-.74c0-.01.02-.02.03-.01ZM27.37 37.1l.15.58a16.32 16.32 0 0 1-2.69.17l.29-.6c.75.02 1.5-.03 2.25-.15Z" fill="#F0F3FA"/><path d="m27.52 37.68.22.8c-1.08.16-2.16.2-3.24.14l.27-.64c.05-.02.08-.06.1-.13.88.02 1.77-.04 2.65-.17Z" fill="#EF3230"/><path d="m27.74 38.48.15.58a17.22 17.22 0 0 1-3.62.15l.23-.6c1.08.08 2.16.03 3.24-.13Z" fill="#F0F3FA"/><path d="M24.31 39.2c-.02.08-.06.13-.1.15a.39.39 0 0 1 .06-.14h.04ZM28.08 39.52v.04c-.03.03-.05.03-.07 0a.62.62 0 0 1-.06-.28c.05.05.1.13.13.24ZM24.08 42.17l.04.5c-.12-.01-.14-.17-.07-.47l.03-.03Z" fill="#A5634D"/></svg>