<svg width="56" height="56" viewBox="0 0 56 56" xmlns="http://www.w3.org/2000/svg"><path d="M35.75 12.08a10.69 10.69 0 0 1-2.72 3.7c-.04.04-.04.07 0 .12l.02.03c.67-.39 1.27-.66 1.82-.8.4-.1.48.02.24.35a.8.8 0 0 0-.16.39.2.2 0 0 1-.07.13l-.29.23c-.03.02-.04.05-.03.1.02.03.04.06.09.06l.81.02a.35.35 0 0 0 .34-.23c.23-.6.37-1.25.42-1.95.01-.2 0-.43-.05-.7-.02-.16-.07-.4-.15-.74l-.14-.64c-.02-.03 0-.06.07-.1a.13.13 0 0 1 .12 0c.04.03.06.06.07.1.07.35.15.69.25 1.02.09.3.12.62.1.97a8.53 8.53 0 0 1-.16 1.23 2.3 2.3 0 0 1-.35.93.16.16 0 0 0-.02.15c.02.05.06.09.11.1l.52.17a.63.63 0 0 0-.24.08c-.2-.07-.52-.12-.93-.15l-.3-.02-.85-.09a.07.07 0 0 1-.07-.05.08.08 0 0 1 .01-.08l.1-.11.34-.41c.1-.16.18-.32.2-.48.02-.05 0-.07-.06-.06-.37.06-.68.2-.91.42-.1.1-.23.17-.37.22-.48.16-.99.4-1.52.7a.15.15 0 0 1-.12.01.14.14 0 0 1-.09-.07s0-.04.03-.1c.21-.05.34-.15.39-.3.25-.1.4-.24.48-.43l.09-.01a13.43 13.43 0 0 0 2.77-3.7.16.16 0 0 1 .07-.07.15.15 0 0 1 .1-.01l.04.07Z" fill="#46382B"/><path d="M41.09 16.04a.07.07 0 0 0 .04-.06c.01-.03 0-.05-.02-.07-.83-.7-1.55-1.38-2.15-2.05a.13.13 0 0 0-.1-.05.14.14 0 0 0-.1.04l-.3.3a.19.19 0 0 1-.14.05.19.19 0 0 1-.14-.05l-.43-.41c-.06-.06-.06-.13 0-.19l1.07-.97a.19.19 0 0 1 .18-.04l.86.21c.07.02.07.05.02.1l-.62.49a.06.06 0 0 0-.02.04 33.55 33.55 0 0 1 2.28 2.17c.02.03.05.04.09.04a.1.1 0 0 0 .08-.04c.23-.3.32-.69.25-1.16-.06-.4-.2-.78-.45-1.12a4.34 4.34 0 0 0-1.34-1.23l.02-.03h.02c.6.2 1.1.51 1.53.92.48.46.77.97.85 1.52.08.48-.07 1-.44 1.56-.03.04-.02.08.02.1l.55.49c.13.12.13.23 0 .36l-.11.11c-.12.12-.23.12-.35 0l-.52-.51a.16.16 0 0 0-.2-.04c-.46.23-.93.3-1.41.2-.48-.09-.9-.33-1.27-.71-.02-.02-.05-.03-.07-.02-.03.02-.04.04-.04.06 0 .13-.06.2-.2.23-.05.01-.1.04-.13.08l-.58.7a.31.31 0 0 1-.38.08l-.07-.04c-.15-.08-.18-.19-.07-.32.19-.22.4-.4.63-.54.05-.04.12-.1.2-.21.08-.12.16-.2.23-.22.17-.06.34-.13.5-.23.05-.03.1-.03.15.01.33.27.65.45.97.52.35.09.72.06 1.1-.07Z" fill="#FCE740"/><path d="M24.24 16.01c.13.08.25.12.33.12.28-.02.54.02.77.11a.1.1 0 0 0 .12-.03.13.13 0 0 0 .04-.09c0-.05.01-.08.05-.1a.11.11 0 0 1 .12-.01c.34.17.64.4.9.7.06.06.13.08.21.07 1.1-.16 2.22-.25 3.36-.27l.4-.05c.15-.02.3-.01.49.02.1.01.17-.01.23-.09.02.02.05.04.07.08-.05.05-.04.1.02.16.06.04.05.08-.02.1-.2.05-.38.17-.54.33a.16.16 0 0 1-.16.05l-.23-.05c-.06-.02-.1 0-.12.06l-.25.53a.5.5 0 0 0-.05.17c0 .1-.05.18-.11.25a.11.11 0 0 0-.02.12c.02.04.05.07.1.07.14.02.28.02.41 0 .18-.01.44-.04.79-.09.59-.07 1.03-.12 1.32-.14a5.97 5.97 0 0 1 2.81.48c.18.08.37.14.56.2.07.02.14 0 .2-.04a.7.7 0 0 0 .16-.15c.04-.05.04-.1-.02-.13l-.19-.12c-.2-.13-.35-.22-.44-.3a1.08 1.08 0 0 1-.33-.34.1.1 0 0 1 0-.1.1.1 0 0 1 .06-.05l1.17-.45c.06-.01.1-.03.13-.05.05-.04.05-.08 0-.12-.02-.03-.06-.03-.1-.01l-.13-.05a.63.63 0 0 1 .24-.08c.1.01.17.04.22.07.04.04.06.09.05.14 0 .06-.04.1-.09.13l-1.3.53a.07.07 0 0 0-.05.07c0 .03 0 .05.03.07.07.05.15.1.23.13.08.05.18.07.3.07.35 0 .67-.08.96-.23a.8.8 0 0 0 .4-.23.44.44 0 0 1 .15-.03.1.1 0 0 1 .07.04c.02.02.02.04.02.07-.08.48-.26.93-.55 1.33-.1.15-.26.38-.45.7-.2.33-.37.57-.48.73-.12.16-.28.32-.48.48-.06.05-.06.1 0 .14l1.6 1.2.02.05c0 .03 0 .04-.03.06l-1.35.87a.21.21 0 0 0-.1.15c-.01.07 0 .13.05.18.08.1.12.2.12.32 0 .06.02.1.07.13l1.04.72.8.65c.22.31.5.55.85.7a4.09 4.09 0 0 0 2.15.31c.4-.05.74-.15 1.04-.32.33-.18.6-.43.78-.74a.58.58 0 0 1 .14-.14.93.93 0 0 0 .08-.06h.1c.08 0 .08.03.02.07a.93.93 0 0 0-.3.27 4.93 4.93 0 0 1-.68.73l-.54.2-1.49.28c-.07-.16-.21-.21-.43-.16a4.58 4.58 0 0 1-.88-.3 2.68 2.68 0 0 1-.76-.55 7.85 7.85 0 0 0-1.66-1.35 5.06 5.06 0 0 0-1.12-.48c-.49-.14-.9-.15-1.21-.03-.04 0-.1.05-.16.16a1.31 1.31 0 0 0-1.07-.48c-.37 0-.76.12-1.16.34-.05 0-.07-.02-.08-.07.04-.07.14-.14.31-.2.17-.05.16-.1 0-.12a44.6 44.6 0 0 1-1.7-.28 4.53 4.53 0 0 0-2.9.38c-.1.05-.1.09.02.12l.83.27v.01l-.02.05c0 .02-.02.02-.04.01-.4-.16-.8-.25-1.2-.27-.47-.01-.77.17-.9.55-.1.26-.12.65-.06 1.19-.03.17 0 .25.06.26.22.38.5.58.85.58s.97-.12 1.89-.4c.05 0 .08-.05.08-.1v-.84c0-.04.03-.05.06-.05h.04c.02 0 .03 0 .03.03l.02.83c0 .05.03.07.07.06.55-.1 1.1-.15 1.65-.13.26 0 .56.07.9.2.01 0 .02 0 .03-.02l.01-.03c.02-.03 0-.06-.02-.07a1.16 1.16 0 0 1-.5-.49.23.23 0 0 1 .04-.06h.02l.03.01c.17.29.36.47.59.54.22.07.5.1.82.11.37.01.66-.04.84-.14l.46-.32a.89.89 0 0 1-.36.42c-.07.04-.07.07.01.08l.54.1c.07.02.09 0 .05-.07a.74.74 0 0 1-.13-.5.1.1 0 0 0-.03-.07c-.02-.02-.05-.03-.09-.02a.28.28 0 0 1-.1-.05.06.06 0 0 1-.01-.05c0-.02.01-.04.03-.05l.25-.12c.13.03.24.03.33-.02.42.05.84.17 1.24.34.04.01.07.04.1.07.03.04.06.07.1.09.28.13.49.28.63.46.25.29.41.47.49.54.03.21.17.36.43.43.44.5 1.03.78 1.76.85a4.4 4.4 0 0 0 2.6-.48c.1-.06.18-.12.24-.2.06-.07.15-.14.28-.24.15-.11.27-.22.34-.32.28-.4.55-.81.8-1.25a3.24 3.24 0 0 1-1.1 1.86c-.13.12-.28.21-.46.3a6.29 6.29 0 0 1-.79.3c-.4.15-.83.23-1.28.23a5.5 5.5 0 0 1-1.38-.2c-.14-.05-.3-.11-.46-.2a5.9 5.9 0 0 1-.42-.3c-.16-.11-.28-.2-.36-.24a1.43 1.43 0 0 1-.47-.5 2.52 2.52 0 0 0-.73-.83 3.2 3.2 0 0 0-1.05-.42c-.12-.1-.32-.15-.61-.15-.16.16-.17.44-.03.82.02.05.05.08.1.1l.3.07c.06.01.1 0 .12-.06.08-.27.06-.5-.07-.67l.19-.04c.05 0 .07.03.06.06-.04.25-.06.48-.06.68 0 .1.04.16.12.2.68.32 1.32.68 1.91 1.1.05.02.06.06.03.1a.35.35 0 0 1-.06.09c-.06.05-.06.1 0 .14.02.01.01.03-.02.05a.16.16 0 0 1-.14.03c-.44-.1-.88-.17-1.33-.22-.1-.01-.1 0-.02.05.27.18.48.37.63.58.14.2.3.39.46.58.04.05.03.1-.02.13a.31.31 0 0 1-.11.06.17.17 0 0 1-.13-.01l-1.31-.72c-.17-.1-.2-.06-.07.09.18.22.3.47.37.74.01.07.04.12.08.18a.3.3 0 0 1 .05.28.1.1 0 0 1-.07.07.1.1 0 0 1-.09 0 .75.75 0 0 1-.3-.26c-.11-.18-.25-.23-.4-.13-.09-.03-.15-.01-.2.03a.15.15 0 0 0-.01.16c.02.06.03.13.02.2 0 .04-.01.1-.04.19a1 1 0 0 0-.04.33c.01.48 0 .84-.03 1.07-.06.4-.18.72-.38.98-.04.06-.1.1-.17.11a.3.3 0 0 1-.2-.02c-.2-.1-.36-.25-.48-.46a.1.1 0 0 0-.1-.05.1.1 0 0 0-.08.06c-.15.41-.33.8-.56 1.2-.03.06-.1.1-.17.11a.25.25 0 0 1-.2-.05l-.9-.7a.15.15 0 0 0-.14-.02.15.15 0 0 0-.1.1.78.78 0 0 0-.02.39c.07.37.13.74.17 1.1.08.68.32 1.27.72 1.8.16.22.37.44.62.69.16.14.4.36.75.65.4.35.73.82.96 1.41.27.71.55 1.41.84 2.1.08.2.12.4.13.6.01.25.1.49.26.71.02.02.02.05 0 .07a.06.06 0 0 1-.05.04c-.05 0-.1 0-.13-.04-.15-.43-.33-.85-.52-1.25a.28.28 0 0 1-.03-.12c0-.03 0-.07.03-.1.03-.05.04-.1.02-.15a12.3 12.3 0 0 0-1.01-2.42c-.05-.08-.13-.19-.26-.31a2.04 2.04 0 0 1-.18-.2c-.11-.15-.23-.27-.37-.38a7.7 7.7 0 0 1-1.05-1c-.34-.4-.58-.8-.7-1.21-.17-.52-.3-1.2-.4-2-.03-.21-.02-.4.03-.6a.1.1 0 0 0-.02-.09.1.1 0 0 0-.1-.04.23.23 0 0 0-.18.12c-.2.34-.4.75-.56 1.23a.2.2 0 0 1-.16.14.2.2 0 0 1-.2-.07c-.1-.1-.17-.3-.24-.6a4.34 4.34 0 0 0-.04-.15c-.06-.21-.12-.21-.18 0l-.03.1c-.08.3-.16.48-.24.58-.23.27-.5.27-.84.02-.12-.1-.24-.23-.36-.38-.1-.14-.18-.28-.23-.4l-.85-2.11c0-.02-.02-.03-.04-.02l-.06.01c-.03 0-.04.03-.03.06.24.62.36 1.32.36 2.1-.01 1.14-.5 2.03-1.45 2.67a31 31 0 0 1-2.15 1.32.27.27 0 0 0-.11.12.25.25 0 0 1-.24.14c-.05 0-.1.02-.14.04l-.33.18c-.26.14-.46.25-.58.34-.58.42-1.15.82-1.72 1.2-.06.04-.06.08 0 .13l.14.12c.06.05.05.08-.03.08-.1 0-.2-.02-.3-.08a.12.12 0 0 0-.14 0A3.46 3.46 0 0 0 17.8 42c-.08 0-.14-.01-.2-.04a.12.12 0 0 1-.06-.11c0-.57.13-1.08.37-1.53.2-.38.52-.8.98-1.27.1-.03.2-.09.3-.18a.06.06 0 0 0 0-.06.06.06 0 0 0-.04-.04 2.91 2.91 0 0 0-.77-.06c-.3.04-.5.15-.62.36-.27.1-.56.18-.87.23-.46.06-.76.12-.88.16-.38.14-.74.33-1.07.59a.1.1 0 0 1-.1.01.1.1 0 0 1-.07-.08 2.17 2.17 0 0 1-.02-.31c0-.16 0-.28-.02-.36-.06-.26-.1-.45-.15-.6a1.7 1.7 0 0 0-.22-.46c-.19-.28-.5-.45-.96-.52a.25.25 0 0 1-.13-.07l-.07-.07c.1-.03.22-.03.34-.01.36.07.66.22.9.45.24.24.4.53.46.9.05.2.1.4.17.6.03.08.08.1.16.07.63-.3 1.3-.49 2.04-.56a.67.67 0 0 0 .36-.15c.46-.38 1.01-.45 1.67-.23.04.01.08 0 .12-.02l1.07-.72 1.7-1.13c.07-.04.06-.07 0-.1-.35-.22-.77-.28-1.25-.21-.13.01-.27.02-.42 0a5.78 5.78 0 0 1-.54-.1.16.16 0 0 1-.11-.08c-.2-.35-.3-.66-.3-.94 0-.62.05-1.4.14-2.32a.1.1 0 0 0-.05-.1.27.27 0 0 0-.15-.06c-.1 0-.11-.04-.04-.1l1.06-.92L22.93 30l.47-.12a.2.2 0 0 1 .2.05.2.2 0 0 1 .06.2c-.1.5-.16.98-.2 1.42a9.64 9.64 0 0 0 .41 3.87c.07.24.2.28.4.14l.42-.3c.55-.26.94-.66 1.17-1.17.29-.53.37-1.16.24-1.89.05-.18.05-.4.02-.64a6.4 6.4 0 0 0-.22-1 1.44 1.44 0 0 0-.3-.62 2.41 2.41 0 0 0-.48-1.16.12.12 0 0 0-.09-.05c-.03 0-.06 0-.09.03a2.5 2.5 0 0 1-.26.2c-.1.05-.19.06-.26.01a.05.05 0 0 1-.02-.03l.01-.04.36-.39c.04-.04.03-.08-.01-.12l-.33-.24a.2.2 0 0 0-.2-.03c-.3.11-.58.2-.86.28a.32.32 0 0 1-.25-.03c-.05-.03-.06-.07-.02-.12l.3-.36c.39-.26.46-.4.2-.43-.1-.21-.25-.32-.42-.32a.12.12 0 0 0-.11.06c-.19.33-.37.64-.53.95-.11.2-.3.43-.55.69a3.58 3.58 0 0 1-1.25.88c-.34.17-.76.3-1.26.39-.65.11-1.3.22-1.93.31-.2.03-.38.02-.57-.02-.44-.1-.93-.23-1.47-.4a2.12 2.12 0 0 1-1.33-1.07.84.84 0 0 0-.2-.23 5.6 5.6 0 0 1-.22-4.57 7.53 7.53 0 0 1 .64-.97c.19-.23.5-.36.94-.4.37-.04.72 0 1.04.09.21.06.42.2.62.4.14.15.22.33.23.53.03.47.03.93-.01 1.38 0 .03-.02.06-.05.07l-.33.2h-.01l-.01-.02.2-.82a.23.23 0 0 0 0-.12l-.01-.06a.13.13 0 0 0-.06-.06c-.05-.2-.02-.32.1-.34.04-.42-.14-.7-.54-.85a1.7 1.7 0 0 0-1.55.08.29.29 0 0 0-.15.15l-.17.1c-.02-.05-.07-.08-.15-.1.24-.17.4-.28.45-.3.38-.17.37-.2-.03-.12-.12.02-.26.12-.44.3a2.3 2.3 0 0 0-.4.59c-.13.24-.22.47-.26.66l-.12.38a2.2 2.2 0 0 0-.14.47 5.24 5.24 0 0 0 .34 2.82c.4.84 1 1.41 1.85 1.72.43.15.85.26 1.26.34.12.02.26.02.4 0a4.92 4.92 0 0 0 .76-.14l1.3-.18a3.44 3.44 0 0 0 2.6-1.56c.23-.34.46-.68.71-1 .25-.33.44-.68.59-1.05.15-.38.46-.66.93-.84a3 3 0 0 1 1.27-.16c.02 0 .04 0 .06-.02a.08.08 0 0 0 .02-.06v-.65c0-.04-.02-.07-.06-.09a3.54 3.54 0 0 0-1.59-.07c-1.18.15-1.93.68-2.26 1.6a.96.96 0 0 1-.15.26c-.13.17-.24.44-.32.8a.24.24 0 0 1-.08.14c-.2.17-.38.35-.55.55a2.7 2.7 0 0 1-1.65.83c-.62.1-1.25.07-1.88-.08-.38-.1-.67-.25-.87-.45-.4-.42-.81-.81-1.25-1.19.01-.05.06-.08.14-.09.42.3.8.66 1.16 1.08.15.19.44.34.86.45.67.2 1.32.22 1.93.1.6-.1 1.09-.36 1.49-.79l.32-.45a.24.24 0 0 0 .03-.2l-.43-1.64a.08.08 0 0 0-.07-.06c-.03-.01-.06 0-.08.03l-.64.78a.24.24 0 0 1-.19.1.14.14 0 0 1-.14-.1 2.89 2.89 0 0 1-.26-1.84.33.33 0 0 0-.09-.3c-.41-.44-.9-.8-1.46-1.1a1.92 1.92 0 0 0-.5-.16c-.06-.02-.07-.05-.03-.1.42-.45.92-.79 1.5-1.03.13-.05.13-.1 0-.15a1.03 1.03 0 0 1-.44-.29 7.35 7.35 0 0 1-1.32-2.17c-.14-.35-.25-.6-.36-.76a.09.09 0 0 1 0-.1.09.09 0 0 1 .08-.05c.27-.01.53.03.77.13.06.03.1 0 .11-.05.07-.3.07-.6 0-.86a.84.84 0 0 0-.17-.33 2.81 2.81 0 0 0-.27-.27c-.19-.18-.31-.32-.38-.43a1.75 1.75 0 0 1 .1-2.03c.13-.16.26-.43.4-.8l.19-.43c.08-.15.16-.29.25-.4.22-.26.46-.43.7-.5.31-.07.56.03.76.32.13.18.3.3.52.36.83.2 1.34.45 1.53.74.19.28.4.48.61.62.15.09.3.19.44.3.06.06.06.1-.03.12a.06.06 0 0 0-.04.03c-.02.05-.01.09.03.12.66.4 1.3.8 1.9 1.2l.34.12Z" fill="#211E0E"/><path d="M35.75 12.08a.1.1 0 0 1 .06-.01c.02 0 .04.01.04.04l.03.04.14.64c.08.33.13.58.15.74.05.27.06.5.05.7-.05.7-.2 1.35-.42 1.95a.35.35 0 0 1-.34.23l-.81-.02c-.05 0-.07-.03-.09-.07-.01-.04 0-.07.03-.1l.29-.22a.2.2 0 0 0 .07-.13.8.8 0 0 1 .16-.39c.24-.33.16-.45-.24-.35a7.18 7.18 0 0 0-1.82.8l-.03-.03c-.03-.05-.03-.08.01-.12a10.69 10.69 0 0 0 2.72-3.7Z" fill="#E3C879"/><path d="M18.5 12.23c0 .03-.02.06-.07.07a.61.61 0 0 1-.21-.04l-.02-.05c.15-.06.25-.05.3.02Z" fill="#696868"/><path d="M18.2 12.2c0 .02 0 .04.02.06-.05.34-.03.69.06 1.05 0 .05 0 .08-.05.1-.23.13-.33.35-.3.66.04.68.06 1.42.04 2.23 0 .27.15.63.46 1.09 0 .09-.02.13-.06.12l-.01-.08c-.01-.09-.04-.1-.1-.02a.97.97 0 0 1-.7.38c.03-.43-.04-.73-.2-.9l-.42-.42a1.6 1.6 0 0 1-.17-2.18c.23-.3.4-.67.54-1.09.06-.22.18-.4.34-.57.17-.17.35-.31.55-.42ZM18.5 12.23c.13.03.2.09.26.16.16.25.38.41.65.5.53.15.99.34 1.37.58a.2.2 0 0 1 .08.09c.1.21.23.4.42.55.02.02.02.04.01.07 0 .02-.02.03-.04.03h-.04c-.97-.51-1.87-1.1-2.72-1.8a.1.1 0 0 1-.03-.06c0-.02-.01-.04-.03-.05.05-.01.07-.04.08-.07Z" fill="#FF7A90"/><path d="M19.44 15.41a.83.83 0 0 1-.18-.27l-.54-1.33c-.05-.11-.1-.22-.17-.32s-.13-.24-.17-.4a4.76 4.76 0 0 1-.07-.5c0-.03 0-.06.04-.07a.06.06 0 0 1 .07 0c.9.73 1.84 1.34 2.8 1.85.06.03.08.08.04.15a2.2 2.2 0 0 1-.68.74c-.24.17-.53.33-.9.48-.05.02-.1 0-.11-.05l-.06-.17a.32.32 0 0 0-.07-.1Z" fill="#F0E2B9"/><path d="M27.63 15.2c.08.12.2.08.34-.1.03-.1.07-.18.12-.27.13-.23.32-.3.58-.18.1.05.2.11.29.2a1 1 0 0 1 .2.26c.11.21.2.2.24-.04l.22-1.16c0-.06.04-.1.1-.1.06-.02.1 0 .13.05l.7 1.03c.08.12.1.24.04.37-.01.02 0 .05.02.07h.06a1.3 1.3 0 0 0 .4-.69.21.21 0 0 1 .12-.16.21.21 0 0 1 .2 0c.51.26.92.61 1.22 1.05.03.05.02.08-.02.12a.11.11 0 0 1-.07.02.28.28 0 0 1-.1-.04.77.77 0 0 1-.35-.22c.09-.06.11-.11.07-.15-.23-.2-.45-.36-.65-.5-.17-.12-.23-.07-.2.12v.1c.02.06 0 .1-.05.12-.17.09-.3.22-.43.4-.08.13-.18.16-.3.1a.1.1 0 0 1-.06-.1c0-.17-.04-.36-.14-.55a4.46 4.46 0 0 0-.46-.7c-.07-.1-.1-.08-.11.03l-.06.68c-.09.07-.12.18-.1.33-.05.11-.13.17-.23.17a.36.36 0 0 1-.27-.14c-.15-.17-.3-.33-.47-.49-.11-.11-.21-.1-.3.05-.14.26-.34.49-.59.66a.12.12 0 0 1-.1.03.13.13 0 0 1-.08-.06 2.12 2.12 0 0 1-.35-.73 5.35 5.35 0 0 1-.1-.9c-.02-.2-.08-.21-.16-.03l-.63 1.25a.97.97 0 0 0-.08.27v.08c-.02.05-.05.08-.1.1-.68.16-1.17 0-1.47-.5-.02-.03-.04-.04-.07-.03a.06.06 0 0 0-.06.05l-.23.81-.01.03a.1.1 0 0 1-.04.01.2.2 0 0 1-.06-.06.13.13 0 0 1-.02-.09l.05-.6c0-.05.01-.09.04-.12l.28-.43a.13.13 0 0 1 .12-.06c.05 0 .09.02.11.07.07.12.12.26.15.4-.07.13.01.23.25.33.26.12.5.13.73.03a.2.2 0 0 0 .1-.1l.49-1.07.33-.56.31-.67a.15.15 0 0 1 .1-.08h.1c.04.02.06.06.06.1-.05.88-.04 1.42.03 1.62l.22.57Z" fill="#46382B"/><path d="M18.17 15.7c0-.57-.03-1.12-.1-1.63a.5.5 0 0 1 .1-.4c.13-.17.25-.15.34.05.18.4.35.85.51 1.33.05.15.17.35.34.6l.19.28c.01.02.01.05 0 .07a.07.07 0 0 1-.07.04c-.42 0-.85-.06-1.28-.18a.1.1 0 0 1-.06-.04v-.05a.09.09 0 0 0 .03-.06Z" fill="#FF002A"/><path d="M29.58 15.29c.1-.06.13-.17.1-.33l.06-.68c0-.11.04-.12.1-.03l.14.2c.16.21.27.38.33.5.1.2.15.38.14.54 0 .05.02.09.06.11.12.06.22.03.3-.1.12-.18.26-.31.43-.4.05-.03.07-.06.06-.12l-.02-.1c-.02-.2.04-.24.2-.12.2.14.43.3.66.5.04.04.02.09-.07.15l-.81.98a.23.23 0 0 1-.23.09 1.74 1.74 0 0 0-.48-.02l-.41.05a27.4 27.4 0 0 0-3.36.27.23.23 0 0 1-.2-.07c-.27-.3-.57-.53-.9-.7a.11.11 0 0 0-.13 0 .11.11 0 0 0-.05.11c0 .04-.01.07-.04.1a.1.1 0 0 1-.12.02 1.8 1.8 0 0 0-.77-.11.65.65 0 0 1-.33-.12v-.09a.1.1 0 0 0 .04-.01l.01-.03.23-.81c0-.03.03-.05.06-.05s.05 0 .07.03c.3.5.79.66 1.47.5.05-.02.08-.05.1-.1v-.08a.97.97 0 0 1 .08-.27l.63-1.25c.08-.18.14-.17.15.03l.01.11c.03.36.06.62.1.79.07.26.18.5.35.73.02.03.05.05.09.06.03 0 .06 0 .1-.03.24-.17.44-.4.59-.66.08-.15.18-.16.3-.05l.46.49c.08.09.17.14.27.14s.18-.06.23-.17Z" fill="#FCE740"/><path d="M21.35 14.72a.18.18 0 0 1 .17-.11h.08c.1 0 .12.03.07.11-.35.53-.77.95-1.26 1.26a.55.55 0 0 1-.38.08.43.43 0 0 1-.19-.08c-.07-.05-.07-.09 0-.13l.16-.07c.35-.18.61-.33.78-.44.28-.2.47-.4.57-.62Z" fill="#F0E2B9"/><path d="m25.44 16.36-.34.77c0 .02-.02.03-.03.03l-.04-.01a8.55 8.55 0 0 0-3.12-1.57.1.1 0 0 0-.11.03.1.1 0 0 0-.02.11c.24.51.54 1 .92 1.45.02.02.01.05-.02.1a7.3 7.3 0 0 1-.7.06 1.2 1.2 0 0 1-.6-.11 4.45 4.45 0 0 1-1.17-.85.07.07 0 0 1-.02-.06c0-.03.02-.04.04-.05a3.92 3.92 0 0 0 1.57-1.35.14.14 0 0 1 .1-.07c.04 0 .07 0 .1.03l.89.6c.48.29.79.47.92.53.48.23 1.02.35 1.63.36Z" fill="#E3C879"/><path d="m36.35 16.8.12.05-.02.18-1.17.45a.1.1 0 0 0-.06.06.1.1 0 0 0 0 .09c.06.1.17.22.33.35a5.58 5.58 0 0 0 .63.4c.06.04.06.09.02.15a.7.7 0 0 1-.15.14.26.26 0 0 1-.22.04 4.25 4.25 0 0 1-.55-.2 6.21 6.21 0 0 0-2.8-.48c-.3.02-.74.07-1.34.14l-.78.1h-.41a.1.1 0 0 1-.1-.08.11.11 0 0 1 .02-.12c.06-.07.1-.16.1-.25a.5.5 0 0 1 .05-.17l.26-.53c.02-.06.06-.08.12-.06l.23.05c.07.02.12 0 .16-.05.16-.16.34-.28.54-.33.07-.02.08-.06.02-.1-.06-.06-.07-.1-.03-.16.3-.2.53-.49.67-.84 0-.02.02-.03.04-.03.03-.01.05 0 .04.04l-.26.9-.03.09c.02.04.05.06.09.07.04.02.08.01.12-.01a8.8 8.8 0 0 1 1.52-.7.98.98 0 0 0 .37-.22c.23-.22.54-.36.91-.42.05 0 .08.01.07.06-.03.16-.1.32-.21.48-.07.1-.18.23-.34.4l-.1.12a.08.08 0 0 0-.01.08c.01.03.03.05.07.05a115.17 115.17 0 0 1 1.15.11c.41.03.72.08.93.15Z" fill="#FCE740"/><path d="M32.07 15.41c.13.13.25.2.35.22a.7.7 0 0 0-.22.6c-.05.15-.18.25-.4.3l.27-.9c0-.03 0-.04-.04-.03a.05.05 0 0 0-.04.03c-.14.35-.36.63-.66.84-.02-.04-.05-.06-.07-.07l.8-.99Z" fill="#4F8604"/><path d="M25.44 16.36c-.09.14-.06.2.08.18-.03.21-.08.4-.16.58-.05.11-.12.18-.2.21-.1.03-.2 0-.29-.07a7.28 7.28 0 0 0-2.68-1.46c-.1-.03-.13 0-.07.1l.86 1.42c.02.03.01.06-.03.08a.6.6 0 0 1-.2.04.13.13 0 0 0 .02-.04c.01-.04 0-.06-.03-.07a.15.15 0 0 1-.06-.06c.03-.05.04-.08.02-.1a6.43 6.43 0 0 1-.92-1.45.1.1 0 0 1 .02-.11.1.1 0 0 1 .1-.03 8.55 8.55 0 0 1 3.17 1.58c.01 0 .03-.01.03-.03l.34-.77Z" fill="#46382B"/><path d="m32.42 15.63.1.04c.04.01.1.06.16.13-.07.2-.23.34-.48.44a.7.7 0 0 1 .22-.61ZM25.52 16.54c.1-.02.19-.05.25-.1.07-.07.06-.1-.03-.11l-.08-.02c-.09-.01-.1-.05-.03-.1.06-.05.12-.04.17.01.44.42.83.83 1.17 1.25.04.04.09.06.14.06.06 0 .1-.03.14-.08a.3.3 0 0 1 .1-.09c.05-.04.1-.03.14.03l.57.76c.07.09.07.17 0 .25a.2.2 0 0 1-.06.05c-.06.04-.12.03-.17-.02a.7.7 0 0 0-.4-.2l-1.82-.22a3.13 3.13 0 0 0-.73.02.08.08 0 0 0-.07.05l-.02.05c0 .02 0 .03-.03.04-.38.08-.71.2-.99.33-.56.28-1.1.58-1.65.88a.3.3 0 0 1-.3 0l-.21-.1c-.08-.04-.08-.07 0-.1.2-.1.4-.21.6-.34.14-.1.13-.16-.04-.2-.72-.14-1.23-.46-1.52-.95-.1-.15-.05-.22.12-.22l1.98-.03a.6.6 0 0 0 .2-.04c.04-.02.05-.05.03-.08l-.86-1.43c-.06-.1-.03-.12.07-.1 1 .3 1.9.8 2.69 1.47.09.08.18.1.27.07.1-.03.16-.1.21-.2.08-.18.13-.38.16-.6ZM20.19 16.57c0 .02-.02.03-.04.04a.35.35 0 0 0-.1.05.2.2 0 0 0-.06.08 4.73 4.73 0 0 0-.57 2.11c0 .13-.06.17-.18.11l-.17-.08a.3.3 0 0 1-.19-.27 7.45 7.45 0 0 0-.55-2.42c-.04-.08 0-.12.08-.11l1.27.13c.15.02.31.14.5.36Z" fill="#FCE740"/><path d="M20.19 16.57c.05.07.14.16.25.24-.04.1-.15.12-.34.07 0-.07.03-.13.09-.2v-.05l-.04-.02c.02 0 .03-.02.04-.04Z" fill="#E3C879"/><path d="m34.98 18.84.53 1.8c.01.04-.03.07-.12.1a.2.2 0 0 0-.13.2c0 .04.01.08.04.12a.2.2 0 0 0 .1.07l.1.03c.05.57.05 1.13 0 1.68 0 .09-.03.15-.1.19.01-.06 0-.1-.05-.14-.05-.03-.08-.02-.08.04l-.06.58c-.01.05-.04.07-.1.06-.4-.1-.8-.12-1.23-.04a.2.2 0 0 1-.15-.02 1.84 1.84 0 0 0-.95-.26c-.78-.02-1.6-.11-2.42-.28a5.13 5.13 0 0 0-3.37.42c-.1.05-.22.08-.35.1h-.03l-.43.1a.76.76 0 0 0-.35.27.7.7 0 0 0-.1.26.95.95 0 0 1-.06.21c-.03.05-.07.07-.12.04a2.12 2.12 0 0 0-1.06-.16c-.29.01-.66.07-1.11.17-.82.18-1.42.67-1.8 1.47-.03.05-.07.06-.13.03a2.43 2.43 0 0 1-.95-1c-.22-.44-.38-.78-.48-1.02l.01-.11c.04 0 .07-.02.07-.07.02-.3-.26-.6-.26-.89 0-.02 0-.04-.02-.06a.08.08 0 0 0-.06-.02c-.04 0-.09.02-.14.07l-.1.1c-.06-.5-.12-.99-.16-1.49a8.25 8.25 0 0 1 .07-1.45l.2-.07a.1.1 0 0 0 .08-.08.1.1 0 0 0-.04-.1.36.36 0 0 1-.15-.25c0-.06.02-.11.06-.15a.28.28 0 0 0 .12-.24c-.04-.77.1-1.5.4-2.17.19.05.3.03.34-.07.16.1.3.22.4.37-.03 0-.06 0-.08.02-.02.03-.02.07 0 .12-.18 0-.34.02-.5.07-.05.02-.06.06-.02.1.2.29.42.53.66.75.31.27.6.42.84.47.33.05.34.13.03.23-.16.06-.31.14-.48.25-.05.03-.05.06 0 .1.2.13.37.22.48.25.17.04.36.01.54-.08a16.96 16.96 0 0 0 1.2-.67c.31-.04.6-.15.84-.35v-.01c0-.02.01-.02.02-.02.98-.13 1.88-.14 2.7-.03.13.02.24.07.33.14.15.12.31.16.5.14.16-.01.32-.09.46-.22.04-.04.05-.1.02-.15a7.58 7.58 0 0 0-.97-1.24.09.09 0 0 0-.1-.02.08.08 0 0 0-.05.07c-.01.14-.09.22-.22.26-.02.01-.05 0-.07 0a.1.1 0 0 1-.05-.05v-.06a.06.06 0 0 1 .06-.03c.02 0 .03 0 .03-.02.01-.05-.01-.09-.06-.1a.25.25 0 0 1-.15-.1c-.04-.04-.02-.08.04-.1.41-.1.82-.15 1.22-.14a30 30 0 0 0 2.79-.11c.12-.01.14.03.06.13a.42.42 0 0 1-.16.1.3.3 0 0 1-.16.03c-.27-.05-.5.1-.7.48-.12.26-.21.55-.27.9 0 .03 0 .06.03.09.02.03.05.04.08.04.36.04.68.03.97-.02 1.16-.22 2.32-.24 3.49-.08.14.02.25.07.34.17.05.06.1.16.17.31l.12.25c.02.03.04.04.06.05.05.03.07.01.08-.04l.02-.22Z" fill="#4F8604"/><path d="M20.85 17.18c.13.01.25.05.36.1.05.03.04.05 0 .06a.96.96 0 0 1-.44-.02c-.03-.05-.03-.09 0-.12 0-.02.04-.02.08-.02Z" fill="#FCE740"/><path d="m18.37 17.51-.1.2c-.1.49-.18.96-.22 1.4 0 .13 0 .3.03.52l.03.46c0 .05-.03.09-.07.11a.26.26 0 0 1-.23.01.24.24 0 0 1-.14-.17.9.9 0 0 0-.25-.45.15.15 0 0 1-.05-.13l.19-1.67a.97.97 0 0 0 .7-.38c.06-.07.09-.07.1.02v.08Z" fill="#E7FDFA"/><path d="M18.43 17.39c.11.11.2.26.23.43a3.22 3.22 0 0 1 .06.72c.01.13-.05.18-.17.12l-.11-.05a.2.2 0 0 1-.11-.1.2.2 0 0 1 0-.16.83.83 0 0 0-.06-.63l.1-.21c.04.01.06-.03.06-.12Z" fill="#FF002A"/><path d="M37.07 18.48c-.49.45-.85.99-1.1 1.6-.08.2-.24.4-.46.57l-.53-1.8-.1-.23c0-.02 0-.04.02-.06a11.75 11.75 0 0 0 .88.28c.27.09.44-.01.52-.3 0-.03.02-.04.05-.04.03 0 .05 0 .07-.02.03-.04.03-.07-.01-.1l-.36-.24c-.08-.05-.07-.08.02-.09.41-.03.82-.16 1.21-.37h.06c.01.02.02.04.01.06l-.28.74ZM17.08 19.37a9.41 9.41 0 0 1-.15-.39c-.1-.29-.2-.5-.27-.65a.06.06 0 0 1 0-.06.06.06 0 0 1 .06-.03c.2 0 .39.06.57.16.05.02.07.06.05.12-.08.27-.13.54-.14.83 0 .18-.05.19-.12.02ZM19.43 19.94l-.02.21c-.05.55-.07.97-.05 1.24.04.5.1 1 .17 1.5.04.1.07.22.1.34.02.12.06.24.1.34.05.1.1.26.17.46.12.36.24.64.36.83.05.09.05.17-.02.25l-.62.76a.08.08 0 0 1-.08.03.08.08 0 0 1-.06-.05 2.98 2.98 0 0 1-.18-1.65.2.2 0 0 0-.05-.17.53.53 0 0 1-.13-.32c0-.06-.04-.1-.09-.14l-1.5-.87a.18.18 0 0 1-.09-.16c0-.07.03-.13.1-.17l1.37-.86c.08-.05.07-.09-.01-.11a1.95 1.95 0 0 1-1.13-.93c-.03-.06-.02-.08.05-.07.2.04.32-.01.39-.14a.47.47 0 0 0 .04-.28 5.27 5.27 0 0 1-.02-1.18c.01-.08.06-.1.14-.07l.87.4c.1.04.16.12.16.23l.03.58Z" fill="#FCE740"/><path d="M32.84 20.02c.08 0 .14.02.17.04a13.71 13.71 0 0 1 .05 2.16c0 .04-.02.08-.06.13-.03.05-.02.07.03.06a.2.2 0 0 0 .07 0c.18-.03.23 0 .16.08-.4.17-.8.23-1.18.19a.89.89 0 0 1-.6-.36 2.44 2.44 0 0 1-.5-2.05c0-.06-.02-.1-.09-.08l-.51.07-.02-.01v-.04c0-.02 0-.04.02-.04l.38-.11a.1.1 0 0 0 .09-.1c.04-.39.19-.73.45-1.03a.1.1 0 0 1 .08-.03h.2s.01 0 0 0l-.57.96c-.03.05-.02.08.04.1.18.06.35.08.52.07.5-.03.91-.03 1.27 0Z" fill="#0F161B"/><path d="M28.03 19.9c0 .05 0 .08-.05.1h-.05c-.08.03-.13 0-.15-.08a1.12 1.12 0 0 0-.6-.77c-.04-.02-.04-.04-.02-.06l.03-.04a.12.12 0 0 1 .14-.03c.37.14.6.44.7.89ZM33.26 22.49c.07-.08.02-.11-.16-.09.35-.17.6-.44.75-.8.13-.32.19-.7.17-1.13a.3.3 0 0 0-.07-.19.3.3 0 0 0-.17-.1 1.9 1.9 0 0 0-.75 0c.02-.04.02-.09-.02-.12-.03-.02-.09-.03-.17-.04l.91.02a.1.1 0 0 0 .09-.04.1.1 0 0 0 .02-.1l-.2-.72c-.03-.08 0-.12.08-.1h.07c.08.01.13.06.14.13l.15.75c0 .04.03.06.07.08l.17.1c.1.05.09.08-.01.08a.2.2 0 0 0-.09.03.12.12 0 0 0-.07.12l.04.33c.03.2.04.33.03.4-.07.6-.4 1.06-.98 1.39Z" fill="#211E0E"/><path d="m27.04 20.2.06.1c.02.66-.01 1.31-.09 1.96 0 .05-.03.12-.07.2l-.02.06c-.03.07-.01.1.06.1.21-.02.4-.1.56-.27.05.02.07.06.08.1-.25.22-.5.33-.76.35-.11 0-.19.04-.23.1-.03.05-.06.06-.11.05l-.07-.02-.38-.4a4.8 4.8 0 0 1-.43-1.5c0-.06-.05-.15-.15-.27v-.13c-.02-.05-.05-.08-.1-.08-.23-.02-.46 0-.69.08-.07.02-.1.07-.1.14.05.39.13.78.26 1.18.14.43.3.72.47.85.25.2.6.29 1.05.27.01-.04.03-.04.05 0v.07a.07.07 0 0 1-.07.04l-.55.04c-.2.01-.4-.07-.6-.25a1.61 1.61 0 0 1-.38-.56 5.25 5.25 0 0 1-.4-1.62c0-.05-.03-.08-.08-.08h-.23a.1.1 0 0 1-.09-.04c0-.02 0-.04.05-.07a.22.22 0 0 1 .05-.02l.15-.04c.05-.01.07-.05.07-.1-.01-.4.1-.8.35-1.22a.14.14 0 0 1 .08-.06.15.15 0 0 1 .1 0c.05.02.07.06.05.1a1.3 1.3 0 0 1-.13.35c-.06.1-.1.2-.14.32a4.07 4.07 0 0 0-.1.43c0 .03.01.06.03.08.02.02.04.03.07.02.43-.05.84-.12 1.22-.19.16-.03.4-.05.74-.05l.42-.02Z" fill="#0F161B"/><path d="M31.82 20.14c-.08.37-.07.73.03 1.07.01.45.06.83.15 1.15.06.24 0 .27-.18.1a2.05 2.05 0 0 1-.58-.87 3.2 3.2 0 0 1-.07-1.36c0-.04.02-.07.06-.08a.92.92 0 0 1 .6-.01Z" fill="#E7FDFA"/><path d="M27.62 22.46c0-.05-.03-.09-.08-.1.47-.49.64-1.08.52-1.8a.27.27 0 0 0-.1-.16.27.27 0 0 0-.17-.07l-.7-.02-.05-.11c.48-.1.96-.1 1.43-.03.1.01.1.04.02.1a.53.53 0 0 1-.21.06c-.06 0-.1.04-.08.1.2.98 0 1.65-.58 2.03Z" fill="#211E0E"/><path d="M33.1 22.4a.2.2 0 0 1-.07.01c-.05 0-.06-.01-.03-.06.04-.05.06-.09.06-.12.04-.68.03-1.36-.03-2.04.29-.06.53-.06.75-.01a.3.3 0 0 1 .17.1.3.3 0 0 1 .07.2c.02.42-.04.8-.17 1.11-.15.37-.4.64-.75.81ZM27.1 20.3l.69.03c.07 0 .12.02.17.07.05.04.09.1.1.16.12.72-.05 1.31-.52 1.8a.83.83 0 0 1-.56.26c-.07 0-.1-.03-.06-.1l.02-.05a.68.68 0 0 0 .07-.2c.08-.66.1-1.3.09-1.96ZM25.5 20.76c-.03.7.16 1.3.57 1.78l.38.39c.05.01.03.06-.07.14-.45.02-.8-.07-1.05-.27-.17-.13-.33-.42-.47-.85a5.8 5.8 0 0 1-.25-1.18c-.01-.07.02-.12.1-.14.22-.07.45-.1.67-.08.06 0 .1.03.1.08.02.05.02.1.01.13Z" fill="#E7FDFA"/><path d="M35.4 23.03c.07-.04.1-.1.1-.19.05-.55.05-1.11 0-1.68.04-.02.13.01.24.1.37.27.75.55 1.11.85.04.03.04.06 0 .09l-1.14.8a.15.15 0 0 0-.06.1c-.04.2 0 .4.12.57.04.05.03.08-.04.08a.71.71 0 0 1-.32-.08c-.06-.03-.08-.08-.07-.14l.07-.5Z" fill="#FCE740"/><path d="m42.69 21.38.39.12c.02.04.01.08-.02.12a1.98 1.98 0 0 0-1.17-.06c-.27.08-.26.14.01.18.5.08.93.38 1.26.89.03.04.04.1.04.17-.01.03-.03.04-.04.03 0 0-.02 0-.03-.02-.14-.22-.29-.4-.43-.56a1.3 1.3 0 0 0-.55-.26c-.33-.18-.62-.18-.86 0-.13.09-.26.3-.39.63-.1.28-.23.55-.37.82 0 .02-.03.03-.05.02a.11.11 0 0 1-.07-.04.05.05 0 0 1 0-.05l.3-1.15a.28.28 0 0 1 .12-.16c.35-.26.65-.44.88-.54.32-.12.64-.17.98-.14Z" fill="#211E0E"/><path d="M43.06 21.62c.11.05.18.09.2.12.32.36.53.7.64 1.04.13.4.13.8 0 1.19-.14.47-.35.9-.63 1.29-.25.44-.52.86-.8 1.25-.07.1-.19.21-.34.32-.13.1-.22.17-.28.24a.87.87 0 0 1-.24.2 4.4 4.4 0 0 1-2.6.48 2.63 2.63 0 0 1-1.76-.85c-.03-.2-.18-.35-.43-.43a7.54 7.54 0 0 1-.49-.54 1.84 1.84 0 0 0-.63-.46.26.26 0 0 1-.1-.09.21.21 0 0 0-.1-.07c-.4-.17-.82-.28-1.24-.34h-.05c-.05-.01-.07-.04-.07-.09.08-.41 0-.8-.21-1.19.31-.12.72-.1 1.21.03.37.1.74.26 1.12.48.5.29 1.06.74 1.66 1.35.22.23.47.41.76.55.23.1.52.2.88.3.09.23.23.28.43.16l1.5-.28c.3.1.47.03.53-.2l.08-.08c.29-.28.49-.5.6-.65.08-.11.18-.2.3-.27.06-.04.06-.06-.02-.08h-.1c-.04 0-.06-.04-.04-.08.18-.46.27-.85.29-1.17.01-.47.04-.79.07-.95a.3.3 0 0 0-.04-.17 1.82 1.82 0 0 0-1.26-.89c-.27-.04-.28-.1-.01-.18.35-.1.74-.08 1.17.06Z" fill="#FCE740"/><path d="M42.15 21.99c.18.03.37.12.55.26-.23.03-.42-.06-.55-.26ZM14.49 23.4a2.86 2.86 0 0 0-.33 1.92c.09.64.36 1.16.82 1.57.44.38.85.77 1.25 1.19.2.2.5.35.87.45.63.15 1.26.18 1.88.08a2.7 2.7 0 0 0 1.65-.83c.17-.2.36-.38.55-.55a.24.24 0 0 0 .08-.13c.08-.37.19-.64.32-.8a.97.97 0 0 0 .15-.28c.33-.9 1.08-1.44 2.26-1.59.7-.08 1.23-.06 1.59.07.04.02.06.05.06.09v.65c0 .02 0 .04-.02.06a.07.07 0 0 1-.06.02 3 3 0 0 0-1.27.16c-.47.18-.78.46-.93.84a4.3 4.3 0 0 1-.59 1.05c-.25.32-.48.66-.7 1a3.44 3.44 0 0 1-2.6 1.56 53.18 53.18 0 0 0-2.06.33c-.15.01-.3.01-.41-.01a7.96 7.96 0 0 1-1.26-.34 3.15 3.15 0 0 1-1.85-1.72 5.24 5.24 0 0 1-.34-2.82c.01-.1.06-.26.14-.47l.12-.38c.04-.2.13-.42.26-.66.13-.26.27-.46.4-.6.18-.17.32-.27.44-.29.4-.08.41-.05.03.12-.06.02-.2.13-.45.3Z" fill="#FCE740"/><path d="M31.46 23.64c-.2.25-.35.49-.45.73-.12.31-.14.58-.04.81.12.22.28.38.5.49.03.01.04.04.02.07l-.01.03c0 .02-.02.02-.03.02-.34-.13-.64-.2-.9-.2-.55-.02-1.1.02-1.65.13-.04 0-.07-.01-.07-.06l-.02-.83c0-.02 0-.03-.03-.03h-.04c-.03 0-.05.02-.05.05v.83c0 .06-.04.1-.1.12-.9.27-1.53.4-1.88.4-.34-.01-.63-.2-.85-.6.08-.03.1-.09.05-.17a.18.18 0 0 0-.11-.08c-.06-.54-.04-.93.05-1.19.14-.38.44-.56.9-.55.4.02.81.1 1.21.27.02.01.04 0 .04-.01l.02-.05v-.01l-.83-.27c-.11-.03-.11-.07-.01-.12a4.53 4.53 0 0 1 2.88-.38l1.7.28c.17.03.18.07.01.13-.17.05-.27.12-.3.2Z" fill="#EBA96D"/><path d="M16.5 23.16c.4.15.59.43.56.85a2.75 2.75 0 0 1-.55-.85Z" fill="#FCE740"/><path d="M33.77 23.85c.12.17.18.32.18.45l-.02.7-.25.11a.06.06 0 0 0-.03.05c0 .02 0 .04.02.05l.1.05c-.06.1-.06.13 0 .06a3.8 3.8 0 0 1-.46.32c-.18.1-.47.15-.84.14-.32 0-.6-.04-.82-.11-.23-.07-.42-.25-.6-.54.04-.44.2-.85.46-1.25.04-.05.05-.1.03-.17.4-.22.79-.33 1.16-.34.44 0 .8.16 1.07.48Z" fill="#EBA96D"/><path d="M14.49 23.4c.08.01.13.04.15.08a.44.44 0 0 0-.16.24l-.08.6c-.05.22-.05.42-.03.6l.1.86c.1.31.24.6.43.85.04.06.11.12.22.17-.08.01-.13.04-.14.09-.46-.4-.74-.93-.82-1.57-.1-.77.01-1.41.33-1.93ZM31.46 23.64c0 .05.03.07.08.07.02.06 0 .12-.03.17-.26.4-.42.81-.46 1.25l-.02-.01h-.02a.23.23 0 0 0-.04.06c-.1-.23-.08-.5.04-.8.1-.25.25-.5.45-.74Z" fill="#46382B"/><path d="M33.93 23.7c.22.37.29.77.21 1.18 0 .05.02.08.07.08l.05.01a.48.48 0 0 1-.33.02c0-.23 0-.46.02-.7 0-.12-.06-.27-.18-.44.07-.1.12-.16.16-.16Z" fill="#4F8604"/><path d="M33.34 24.5c.07.25 0 .45-.23.59-.23.15-.5.23-.8.24-.33.02-.59-.06-.77-.24-.13-.14-.17-.32-.1-.54.07-.21.19-.37.36-.47.15-.08.28-.19.38-.32a.2.2 0 0 1 .17-.07c.28 0 .54.1.78.33.06.05.1.12.12.2l.09.29ZM27.91 25.5c-.41.23-.82.23-1.23.02-.48-.25-.68-.67-.6-1.26 0-.05.03-.09.07-.11a1.68 1.68 0 0 1 1.81.01c.12.08.22.18.28.3a.8.8 0 0 1-.03.76.74.74 0 0 1-.3.29Z" fill="#380903"/><path d="m28.27 23.9-.02.01a.07.07 0 0 0-.03.1l.34.7c.02.02.06.04.1.02h.01a.07.07 0 0 0 .03-.1l-.34-.7a.07.07 0 0 0-.09-.03Z" fill="#46382B"/><path d="m37.83 25.26-.8-.65c.53.02.8.24.8.65Z" fill="#E3C879"/><path d="M34.16 25.11c.17.18.31.26.42.26.13.18.15.4.06.67-.01.05-.05.07-.1.06l-.3-.08a.15.15 0 0 1-.11-.1c-.14-.37-.13-.64.03-.81Z" fill="#4F8604"/><path d="M34.16 25.11c.29 0 .5.05.6.15.03 0 .03.03 0 .07l-.18.04c-.1 0-.25-.08-.42-.26Z" fill="#FCE740"/><path d="M33.76 25.26c.04-.01.07 0 .1.02a.1.1 0 0 1 .02.08c-.02.18.03.35.13.49.04.06.02.09-.05.07l-.54-.1c-.08-.01-.08-.04-.01-.08.16-.1.28-.24.36-.42-.06.07-.06.05 0-.06Z" fill="#4F8604"/><path d="M25.8 25.35c.05.02.08.04.1.08.05.08.04.14-.04.18-.07 0-.09-.1-.06-.26Z" fill="#696868"/><path d="M24.74 26.89c-.35-.02-.6.12-.76.4-.02.08-.08.1-.2.06a.98.98 0 0 1-.28-.24 1.52 1.52 0 0 0-.18-.16c-.04-.04-.05-.08-.01-.13.15-.21.25-.44.3-.68.27-.06.4-.19.42-.37.4-.2.85-.3 1.36-.32.04 0 .07.01.1.04.02.03.03.06.03.1-.01.23.02.48.09.73.01.06 0 .11-.06.14l-.81.43Z" fill="#4F8604"/><path d="M20.75 25.72a.1.1 0 0 1-.04-.06c-.01-.07 0-.08.07-.05.2.11.42.27.63.47.04.04.05.08.02.12l-.28.52c-.08.16-.13.15-.15-.03a4.28 4.28 0 0 0-.2-.9.15.15 0 0 0-.05-.07Z" fill="#FF002A"/><path d="M25.74 26.15a.6.6 0 0 1-.09-.46c0-.02.02-.03.03-.03l.04.01c.14.2.3.35.48.48.08.06.07.1-.03.12l-.31.05c-.06.01-.09-.01-.1-.07a8.03 8.03 0 0 0-.02-.1Z" fill="#EBA96D"/><path d="M30.42 26.02c-.33.06-.6.16-.84.3-.82.44-1.62 1-2.43 1.7a.55.55 0 0 1-.27.13.1.1 0 0 0-.09.08l-.01.06c0 .03-.03.06-.05.08l-.73.59a.11.11 0 0 1-.13 0c-.08-.03-.1-.09-.05-.15a.54.54 0 0 0 .1-.24c0-.06.03-.1.08-.13.18-.08.25-.2.22-.38V28a.1.1 0 0 1 .07-.04c.07-.02.1-.07.08-.14a.11.11 0 0 0-.06-.08.11.11 0 0 0-.1 0c-.31.13-.6.3-.87.49a.12.12 0 0 1-.14 0l-.03-.02c-.04-.03-.04-.05 0-.08l.4-.34a.07.07 0 0 0 .02-.06v-.01c-.02 0-.02-.01 0-.02a.38.38 0 0 0 .2-.14c.01-.02 0-.04-.02-.05a.4.4 0 0 0-.37 0c-.55.28-1.1.47-1.66.57-.18.03-.22-.03-.12-.18.03-.06.1-.11.2-.17.11-.06.18-.12.2-.18a.23.23 0 0 1 .08-.11c.45-.32.92-.59 1.42-.8a.16.16 0 0 1 .13-.01c.05.02.1.05.15.1.02.02.05.03.09.01 0 0 .02-.01.02-.03 0-.01 0-.03-.02-.03a.17.17 0 0 1-.07-.05c-.04-.05-.03-.08.03-.1a2.9 2.9 0 0 1 1.2-.17c.34.03.58.03.74.02.26-.03.48-.13.67-.28.24-.2.63-.33 1.19-.38.5-.05.93-.04 1.28.05.74.19 1.51.26 2.32.21.3-.02.75.1 1.32.34a.1.1 0 0 1 .07.1l-.01.43c0 .05.01.07.06.08.05 0 .1 0 .16-.02.05-.02.05-.04 0-.08-.1-.07-.12-.18-.06-.32 0-.02.02-.04.04-.04h.06c.53.23 1.04.48 1.51.73.1.06.2.14.27.24a.1.1 0 0 1 .01.12.1.1 0 0 1-.1.06 11.7 11.7 0 0 1-1.41-.24.4.4 0 0 0-.3.05c-.05.02-.05.06 0 .09l.13.09c.26.18.45.32.58.43.2.18.35.36.43.53.09.2.04.24-.15.14l-1.3-.74a.14.14 0 0 0-.11-.02.14.14 0 0 0-.09.06c-.04.07-.05.13-.01.19.18.28.34.53.5.73.04.05.06.12.06.2 0 .1-.03.11-.1.06l-1.31-.94a.13.13 0 0 1-.06-.15c.02-.06 0-.09-.07-.1a.3.3 0 0 1-.2-.08 8.96 8.96 0 0 0-1.3-1.07c-.49-.3-1.01-.5-1.56-.58-.09-.01-.1-.04-.02-.09l.15-.1c.07-.05.07-.07-.02-.05ZM24.03 25.77c-.01.18-.16.3-.43.37a.7.7 0 0 1 .43-.37Z" fill="#FCE740"/><path d="M27.47 26.2c0-.03 0-.04.02-.04l.53-.1c.05 0 .1-.01.14 0 .03 0 .05.01.06.03v.02c0 .02-.01.04-.04.06a.35.35 0 0 1-.13.04l-.53.1c-.02 0-.03 0-.04-.02l-.01-.1Z" fill="#FCE740"/><path d="M42.02 26.08c-.06.23-.24.3-.54.2l.54-.2Z" fill="#FF002A"/><path d="m32.03 27.42.08.27c-.13-.05-.16.07-.08.36.01.04.04.06.09.04l.11-.03c.05-.01.07-.05.06-.1a.61.61 0 0 1 .09-.38.1.1 0 0 1 .07-.05.1.1 0 0 1 .08.01c.22.15.4.34.58.55.03.05.03.1 0 .14-.1.13-.2.23-.31.32-.14.11-.26.17-.37.18a.22.22 0 0 0-.11.03c-.07.04-.06.06.01.06l.04.02c.02.02.02.03 0 .04-.1.1-.25.14-.43.12l-.34-1.16-.04-.68c0-.03-.02-.05-.06-.04h-.04c-.03 0-.05.03-.05.06l.05 1.67c0 .07-.03.12-.1.13-.18.05-.35-.03-.5-.24-.04.06-.08.01-.12-.14.04 0 .07 0 .1-.04a.15.15 0 0 0 .03-.1 1.1 1.1 0 0 0-.32-.66c-.05-.05-.08-.04-.08.03l-.06.94c0 .09-.05.15-.13.2a.21.21 0 0 1-.23-.03c-.07-.05-.13-.07-.2-.06l-.1-.63c.14-.13.11-.28-.1-.46a.1.1 0 0 0-.1-.02.1.1 0 0 0-.07.08l-.17.91a.11.11 0 0 1-.1.1c-.26.06-.4-.05-.39-.32v-.16c.02-.27.02-.48 0-.62-.03-.24-.1-.41-.22-.52a.05.05 0 0 0-.06-.01.05.05 0 0 0-.04.04 2.7 2.7 0 0 1-.11.5c-.05.16-.1.32-.12.49a.98.98 0 0 1-.2.48.13.13 0 0 1-.12.05l-.07-.01a2.11 2.11 0 0 1-.47-.08c-.17-.06-.28-.15-.33-.29a.18.18 0 0 1 .06-.21l.38-.33c.08-.06.14-.05.18.05l.11.27c.02.05.06.08.1.09.12.01.2-.04.22-.17.03-.1 0-.16-.07-.16l.04-.33c.05-.02.08-.08.1-.16a.22.22 0 0 1 .08-.15c.38-.27.77-.53 1.17-.79.17-.1.39-.15.65-.14.97.04 1.62.38 1.93 1.04Z" fill="#701413"/><path d="M40 26.56c-.2.12-.35.07-.44-.16.22-.05.36 0 .43.16ZM36.82 26.47c.25.08.4.23.43.43-.26-.07-.4-.22-.43-.43Z" fill="#FF002A"/><path d="m24.74 26.89-.76.4c.16-.28.4-.42.76-.4Z" fill="#FCE740"/><path d="m32.1 27.7-.07-.28-.02-.2c-.01-.05 0-.07.05-.06.18.02.27.1.28.26.01.26-.07.35-.23.27Z" fill="#F0E2B9"/><path d="M23.6 27.46c.26.03.19.17-.2.43-.12-.11-.05-.26.2-.43Z" fill="#FCE740"/><path d="m28.1 27.62-.04.33c-.1.09-.18.1-.22.02-.13-.2-.08-.37.16-.5a.06.06 0 0 1 .06 0l.04.05v.1Z" fill="#696868"/><path d="M25.01 27.95c-.05-.02-.07-.06-.03-.11a.66.66 0 0 1 .42-.17c.05 0 .06.02.03.06a.72.72 0 0 1-.42.22Z" fill="#FCE740"/><path d="m28.27 28.83.25-.89c.1-.35.16-.35.17.02l.03.87-.02.02c-.14.02-.28.02-.42-.01v-.01Z" fill="#E7FDFA"/><path d="M24.98 27.84c-.04.05-.03.09.03.11 0 .12-.01.2-.06.26a.12.12 0 0 1-.08.04c-.03 0-.06 0-.09-.02l-.17-.12c-.06-.04-.06-.09 0-.13.08-.06.2-.1.37-.14Z" fill="#4F8604"/><path d="M31.94 29c-.1.07-.2.08-.33.04-.05-.02-.07-.05-.07-.1l.06-1.1.34 1.16Z" fill="#E7FDFA"/><path d="m25.9 28.25-.33.66a.08.08 0 0 1-.07.05c-.03 0-.05 0-.07-.03l-.24-.32a.08.08 0 0 1-.02-.06l.03-.06c.24-.2.5-.36.76-.48.09-.04.12-.01.07.08a.2.2 0 0 1-.06.08.2.2 0 0 0-.06.08Z" fill="#4F8604"/><path d="m29.74 28.25.11.63a.34.34 0 0 1-.36.04c-.04-.01-.05-.04-.05-.08l.1-.58a.1.1 0 0 1 .04-.07.1.1 0 0 1 .09 0 .2.2 0 0 1 .07.06ZM30.74 28.6c.04.15.08.2.11.14l.01.19c.01.04 0 .06-.05.06l-.18.01c-.04 0-.07-.02-.07-.06 0-.24 0-.47.03-.69.01-.09.04-.09.07 0a1 1 0 0 1 .08.35Z" fill="#E7FDFA"/><path d="M32.14 29.55c-.54.27-1.01.48-1.42.61-.17.05-.41.05-.74 0-.24-.04-.49-.1-.73-.18-1.01-.34-2-.67-3-.97-.07-.03-.08-.06-.02-.11.17-.14.37-.2.62-.17.19.02.4.1.62.22.1.06.23.1.35.1.07 0 .18 0 .33-.02.17-.03.3-.04.4-.03 1.05.07 2.16.13 3.32.18.39.01.83-.23 1.33-.74.06-.05.12-.06.19-.02l.04.02c.07.05.07.1 0 .14l-.08.05a2.9 2.9 0 0 0-.56.43c-.17.19-.38.35-.65.49Z" fill="#EBA96D"/><path d="M26.22 29.19c.78.37 1.62.62 2.51.75.33.09.68.2 1.05.32.27.1.53.12.78.09.15-.02.37-.09.65-.19s.5-.17.65-.2a.97.97 0 0 0 .46-.23 14 14 0 0 1 1.07-.87.47.47 0 0 0 .16-.21.07.07 0 0 1 .06-.05c.03 0 .05 0 .07.03.1.14.25.22.44.24.07 0 .08.04.04.09a.17.17 0 0 1-.1.06c-.05.02-.09.06-.09.12 0 .09 0 .22-.02.4-.03.26-.04.46-.03.59 0 .64-.09 1.25-.28 1.84a.21.21 0 0 1-.15.14.21.21 0 0 1-.2-.04.82.82 0 0 1-.31-.45.17.17 0 0 0-.17-.14c-.1 0-.18.03-.23.13a7.2 7.2 0 0 0-.58 1.18.18.18 0 0 1-.13.12.18.18 0 0 1-.17-.04l-1.27-.98a.24.24 0 0 0-.15-.05c-.05 0-.1.02-.14.05-.18.15-.33.36-.47.64-.1.23-.2.48-.27.75a.1.1 0 0 1-.05.06.1.1 0 0 1-.09 0 .16.16 0 0 1-.08-.13c-.03-.3-.1-.58-.18-.83a.16.16 0 0 0-.15-.11.16.16 0 0 0-.17.09c-.15.26-.25.54-.32.84a.37.37 0 0 1-.21.28.34.34 0 0 1-.36-.05 1.8 1.8 0 0 1-.67-.9l-.13-.4a16.5 16.5 0 0 0-.34-.94 4.56 4.56 0 0 0-.44-.87 3.8 3.8 0 0 1-.43-.8.13.13 0 0 1 .01-.12c.13-.23.28-.3.43-.21Z" fill="#4F8604"/><path d="m26.22 29.19 2.51.75a8.74 8.74 0 0 1-2.5-.75Z" fill="#EBA96D"/><path d="M25.6 29.94c.15.18.25.38.3.62l.08.35c.08.29.12.5.14.65.03.24.03.46-.02.64a4.45 4.45 0 0 0-.16-.58 4.5 4.5 0 0 1-.13-.48c-.08-.4-.15-.8-.2-1.2ZM23.87 35.75a.1.1 0 0 1-.03.15l-1.23.71a.23.23 0 0 1-.27 0c-.38-.28-.8-.38-1.22-.3a1.9 1.9 0 0 1-.67 0c-.3-.05-.46-.17-.5-.36-.09-.4-.12-.84-.12-1.3a16.76 16.76 0 0 1 .15-1.79.53.53 0 0 1 .19-.36c.9-.76 1.83-1.5 2.8-2.23a.72.72 0 0 1 .37-.14c.03 0 .06 0 .08.02.02.02.02.05.02.08-.33 1.67-.26 3.35.18 5.02.05.19.13.35.25.5Z" fill="#4F8604"/><path d="m38.79 41.98-.04-.85a.73.73 0 0 0-.2-.44.17.17 0 0 0-.11-.06l-.87-.08a.08.08 0 0 1-.06-.03.09.09 0 0 1-.02-.07v-.05c0-.03.02-.05.05-.04.46.08.8.1 1.04.07.38-.05.66-.24.86-.56.19-.3.28-.63.28-1 0-.22-.06-.58-.17-1.06-.07-.3-.35-.7-.85-1.17-.15-.14-.2-.1-.17.1.03.16.04.33.04.5 0 .04-.02.06-.06.06h-.05c-.04 0-.06-.03-.06-.07 0-.14-.02-.35-.07-.63a3.32 3.32 0 0 1-.07-.57 30.8 30.8 0 0 0-.21-3.28c0-.05-.03-.07-.08-.07-.24-.01-.45-.06-.65-.16-.04-.02-.07 0-.07.05 0 .9-.08 1.76-.22 2.6-.01.1-.06.27-.14.48l-.11.35c-.03.13-.05.25-.05.36.01.2 0 .4-.03.6a.1.1 0 0 1-.03.07.2.2 0 0 1-.04.03c-.09.05-.13.02-.12-.08l.04-.65a.09.09 0 0 0-.04-.08.09.09 0 0 0-.08-.02c-.4.12-.72.31-.98.59a1.78 1.78 0 0 0-.51 1.16c-.05.37-.08.64-.08.8 0 .24.02.43.1.58.07.17.2.3.4.4.2.11.48.2.85.25.06 0 .1 0 .15-.03a.69.69 0 0 1 .22-.1c.07 0 .12.02.15.09.05.11.15.2.28.23l.02.03v.05c0 .01-.01.02-.03.02h-.18c-.16.01-.23.09-.24.24l-.03 1.44c-.25.05-.37-.02-.35-.2a188.6 188.6 0 0 1 .15-1.57 5.41 5.41 0 0 1-.7-.16 1.8 1.8 0 0 1-.54-.24c-.33-.24-.48-.62-.43-1.14.02-.35.06-.63.1-.85a2.07 2.07 0 0 1 1.46-1.7c.17-.06.3-.18.41-.35.1-.15.16-.32.2-.51.16-.88.25-1.78.24-2.7 0-.1.03-.22.1-.38.05-.15.08-.27.09-.36.02-.44.07-.86.15-1.28.01-.03.03-.06.06-.08a.1.1 0 0 1 .1 0 .3.3 0 0 1 .19.27c0 .08.02.16.05.24.07.17.13.35.21.52.03.07.05.17.05.3 0 .1.01.18.03.24.05.17.09.43.12.76.1 1.06.17 2.2.2 3.4 0 .06.02.1.07.13.12.06.23.14.34.24l.28.3c.2.21.36.37.48.46.31.22.56.43.75.65.28.32.4.61.35.86a2.04 2.04 0 0 1-1.22 1.55l-.58.26c-.07.03-.08.07-.05.14l.03.03.13.25c.03.1.05.2.05.28 0 .46-.1.67-.28.64Z" fill="#211E0E"/><path d="m34.82 41.97-1.7.01c-.24-.64-.48-1.28-.7-1.92a5.04 5.04 0 0 0-.71-1.42 2.66 2.66 0 0 0-1.26-.96 4.1 4.1 0 0 0-3.5.22c-.58.32-1.13.92-1.66 1.78-.42.67-.79 1.45-1.1 2.31h-3.51l.16-1.31c0-.05-.02-.09-.07-.1h-.05a.09.09 0 0 0-.1.06L20.4 42h-2.6c0-1.3.5-2.3 1.52-3.02.05-.03.1-.03.15 0 .08.06.18.09.3.08.07 0 .08-.03.02-.08l-.14-.12c-.06-.05-.06-.1 0-.13a87.3 87.3 0 0 0 1.72-1.2 5.45 5.45 0 0 1 1.05-.56c.11 0 .19-.05.24-.14a.27.27 0 0 1 .1-.12 31 31 0 0 0 2.16-1.32 3.06 3.06 0 0 0 1.45-2.66 5.6 5.6 0 0 0-.36-2.11c-.01-.03 0-.05.03-.06l.06-.01c.02 0 .03 0 .04.02l.85 2.1c.05.13.13.27.23.4.12.16.24.3.36.39.33.25.61.25.84-.02.08-.1.16-.29.24-.57l.03-.12c.06-.2.12-.2.18 0l.04.16c.07.3.15.5.23.6a.2.2 0 0 0 .2.07.2.2 0 0 0 .17-.14c.17-.48.35-.89.56-1.23.04-.07.1-.1.19-.12a.1.1 0 0 1 .09.04.1.1 0 0 1 .02.1c-.05.19-.06.38-.03.58.1.82.23 1.49.4 2 .12.42.36.82.7 1.23.27.31.62.64 1.05.99.14.1.26.23.37.37.03.05.1.12.18.2.13.13.21.24.26.32.47.86.61 2.04.99 2.8.2.4.37.81.52 1.25Z" fill="#4F8604"/><path d="m37.87 31.43.04.12c.03.07.05.14.05.2 0 .22 0 .43.03.63.01.11-.04.16-.15.13l-.33-.07c-.1-.03-.14-.09-.13-.2l.13-1.3c.02-.18.08-.2.17-.03.08.15.14.32.19.52Z" fill="#EBA96D"/><path d="M38.79 41.98h-2.24l.03-1.44c0-.15.08-.23.24-.24H37l.04-.02v-.05a.04.04 0 0 0-.03-.03.42.42 0 0 1-.28-.23c-.03-.07-.08-.1-.15-.08a.69.69 0 0 0-.22.09.21.21 0 0 1-.15.03 2.76 2.76 0 0 1-.85-.25.87.87 0 0 1-.4-.4c-.08-.15-.1-.34-.1-.59a9.2 9.2 0 0 1 .1-.93c.05-.39.2-.73.49-1.02.26-.28.59-.47.98-.59.03 0 .06 0 .08.02.03.02.04.05.04.08l-.04.65c0 .1.03.13.12.08a.2.2 0 0 0 .04-.03.1.1 0 0 0 .03-.06c.03-.21.04-.41.03-.61 0-.11.02-.23.05-.36l.11-.35c.08-.21.13-.37.14-.48.14-.84.21-1.7.22-2.6 0-.05.03-.07.07-.05.2.1.41.15.65.16.05 0 .07.02.08.07.13 1.1.2 2.2.2 3.28 0 .13.03.32.08.57.05.28.08.49.07.63 0 .04.02.07.06.07h.05c.04 0 .06-.02.06-.06 0-.17-.01-.34-.04-.5-.04-.2.02-.24.17-.1.5.48.78.87.85 1.17.1.48.16.84.17 1.07 0 .36-.1.69-.28 1-.2.31-.48.5-.86.55-.23.04-.58.01-1.04-.07-.03 0-.05 0-.05.04v.05c0 .03 0 .05.02.07.01.02.03.03.06.03l.87.08c.04 0 .08.02.11.06.13.15.2.3.2.44 0 .27.02.56.04.85Z" fill="#4F8604"/><path d="M20.43 37.86a.9.9 0 0 1-.34-.21 2.82 2.82 0 0 0-.37-.3c-.56-.37-1.1-.78-1.63-1.21-.4-.33-.8-.57-1.22-.72-.4-.14-.87-.22-1.4-.24-.24 0-.51.07-.84.2-.44.2-.89.4-1.34.58.65-.58 1.34-.9 2.07-.95a4.16 4.16 0 0 1 2.77.93c.72.56 1.48 1.11 2.27 1.66.11.08.12.16.03.26Z" fill="#211E0E"/><path d="M20.43 37.86c.02-.04.04-.02.07.06l-1.07.72a.13.13 0 0 1-.12.02c-.66-.22-1.21-.15-1.68.23a.67.67 0 0 1-.35.15c-.73.07-1.41.26-2.04.56-.08.04-.13.01-.16-.07-.07-.2-.13-.4-.17-.6a1.66 1.66 0 0 0-.46-.9 1.69 1.69 0 0 0-.9-.45.73.73 0 0 0-.34.01.16.16 0 0 0-.03-.06l-.06-.02c-.39-.01-.73-.14-1.02-.36a.26.26 0 0 1-.1-.2c0-.08.02-.15.08-.2.35-.33.75-.59 1.21-.79l1.34-.57c.33-.14.6-.21.84-.2.53 0 1 .09 1.4.23.41.15.82.39 1.22.72.53.43 1.07.84 1.63 1.2l.37.31c.1.1.22.17.34.21Z" fill="#4F8604"/><path d="M33.13 41.98a.5.5 0 0 1-.3-.03l-.53-1.64c-.02-.05-.05-.07-.1-.04l-1.72.85h-.19l-5.28.1c-.02 0-.03-.01-.03-.03v-.05c0-.02.01-.03.04-.03l5.18-.2.29-.03c.03.02.07.02.1 0 .45-.2.97-.48 1.55-.8.04-.03.06-.07.04-.11a4.93 4.93 0 0 0-.8-1.41 1.96 1.96 0 0 0-1.82-.75c-.12-.22-.35-.26-.7-.13-.3-.07-.68-.03-1.13.13-.78.27-1.38.7-1.78 1.28a12 12 0 0 0-1.33 2.47.94.94 0 0 1-.23.38l-.2.05c.31-.86.68-1.64 1.1-2.31a4.97 4.97 0 0 1 1.66-1.78 4.1 4.1 0 0 1 3.5-.22c.48.17.9.49 1.26.96.29.38.53.86.72 1.42.21.64.45 1.28.7 1.92Z" fill="#211E0E"/><path d="M29.55 37.81c.3.58.48 1.04.55 1.38.11.56.24 1.12.38 1.69l-.28.03c-.11-.6-.22-1.12-.34-1.54a7.77 7.77 0 0 0-.58-1.48.18.18 0 0 0-.1-.1l-.31-.11c.34-.13.57-.09.68.13Z" fill="#46382B"/><path d="M39.44 40.07c.25-.3.4-.68.46-1.13.05-.43 0-.81-.16-1.13-.12-.25-.08-.28.13-.1.27.23.45.42.55.57.17.26.2.5.1.76-.11.28-.24.51-.4.7-.18.24-.39.4-.61.45-.13.03-.16-.01-.07-.12Z" fill="#4F8604"/><path d="m28.87 37.68.3.12c.05.02.09.05.1.09.24.43.43.93.59 1.48.12.42.23.94.34 1.54l-5.18.2c-.03 0-.04.01-.04.03v.05c0 .02.01.03.03.03l5.28-.1.03.8c0 .05-.02.08-.08.08h-5.52a.44.44 0 0 1-.16-.03.4.4 0 0 0-.17-.03c.08-.07.16-.2.23-.38a12 12 0 0 1 1.33-2.47c.4-.58 1-1.01 1.78-1.28.44-.16.82-.2 1.14-.13ZM29.56 37.81c.76-.07 1.36.18 1.82.75.36.45.63.92.8 1.4.02.05 0 .09-.04.11-.58.33-1.1.6-1.54.81a.12.12 0 0 1-.11 0c-.15-.57-.28-1.13-.39-1.7-.06-.33-.25-.79-.54-1.37Z" fill="#EBA96D"/><path d="M18.9 39.05c-.32-.06-.7-.05-1.13.02.12-.2.32-.32.62-.36.2-.02.45 0 .77.06.02 0 .04.01.05.04 0 .02 0 .04-.02.06-.09.1-.19.15-.29.18Z" fill="#4F8604"/><path d="m32.83 41.95-2.17.03c-.04 0-.07-.02-.08-.07l-.1-.79 1.71-.85c.06-.03.1-.01.11.04l.53 1.64Z" fill="#EBA96D"/><path d="M20.68 42h-.27l.2-1.36c0-.02.02-.04.04-.06a.09.09 0 0 1 .07 0h.05c.05.01.07.05.07.1L20.68 42Z" fill="#211E0E"/></svg>