<svg width="56" height="56" viewBox="0 0 56 56" xmlns="http://www.w3.org/2000/svg"><path d="M28 49V14.13c-4.67.44-14 2.03-14 4.8v11.5C13.87 34.6 16.5 44.19 28 49ZM28 14.13c4.67.44 14 2.03 14 4.8v11.5C42.13 34.6 39.5 44.19 28 49V14.13Z" fill="#C1D8E5"/><path d="M28 12v34.92c-11.51-4.82-14.12-14.4-14-18.6v-11.5c0-2.79 9.34-4.37 14-4.82Z" fill="#508FC9"/><path d="M28 12v34.92c11.51-4.82 14.12-14.4 14-18.6v-11.5c0-2.79-9.34-4.37-14-4.82Z" fill="#2868A3"/><path d="m24 40-5.45-17c-1 1.72-.53 5.34.5 9 .83 2.94 3.65 6.56 4.95 8ZM32 40l5.45-17c1 1.72.53 5.34-.5 9-.83 2.94-3.65 6.56-4.95 8ZM26.06 15.2c0-.93 1.22-1.2 1.94-1.2s1.94.27 1.94 1.2c0 .74-.57 1.33-.94 1.54v2.23c0 .27 1.87 1.24 2.3 1.24.2 0 .27-.09.35-.18.1-.1.2-.2.49-.2.97 0 1.64 1.1 1.81 1.4l.05.06c.04.04-.26.11-1.14.11-.71 0-1.51-.31-1.82-.47-.46 0-.8.44-1.04.66V40.8c0 .95-1.42 3.19-2 4.19-.58-1-2-3.24-2-4.19V21.6c-.24-.22-.58-.66-1.04-.66-.31.16-1.1.47-1.82.47-.88 0-1.18-.07-1.14-.11l.05-.07c.17-.28.84-1.4 1.81-1.4.3 0 .4.11.49.21.08.1.16.18.36.18.42 0 2.29-.97 2.29-1.24v-2.23c-.37-.2-.94-.8-.94-1.54Z" fill="#fff"/><path d="M19 29h5.99L26 30h-7v-1ZM24.96 23h-6.61L18 24v-1.2c0-.46.75-.72 1.13-.8h6.26c.3 0 .61-.04.61.34 0 .45-.7.58-1.04.66ZM31.19 22.42c.19-.26.51-.42.86-.42h6.67c.22 0 .36.22.23.39l-.14.19c-.19.26-.51.42-.86.42h-6.67c-.22 0-.36-.22-.23-.39l.14-.19Z" fill="#fff"/><path fill-rule="evenodd" d="m28 18-.42 1.26c-.15.43-.55.77-1.07.89L25 20.5l1.5.35c.53.12.93.46 1.08.9L28 23l.42-1.26c.15-.43.55-.77 1.07-.89L31 20.5l-1.5-.35a1.44 1.44 0 0 1-1.08-.9L28 18Zm0 .84-.16.48c-.17.5-.65.9-1.26 1.05l-.57.13.57.13a1.7 1.7 0 0 1 1.26 1.05l.16.48.16-.48c.17-.5.65-.9 1.26-1.05l.57-.13-.57-.13a1.7 1.7 0 0 1-1.26-1.05l-.16-.48Z" fill="#2868A3"/></svg>