<svg xmlns="http://www.w3.org/2000/svg" width="56" height="56"><path d="M15.86 14c-1.03 0-1.86.83-1.86 1.84A1.9 1.9 0 0115.94 14h-.08zm25.03 0c1.03 0 1.86.83 1.86 1.84v25.32c0 1.01-.83 1.84-1.86 1.84h1.17A1.9 1.9 0 0044 41.16V15.84A1.9 1.9 0 0042.06 14h-1.17zM15.94 43A1.9 1.9 0 0114 41.16c0 1.01.83 1.84 1.86 1.84h.08z" fill="#C713EB"/><path d="M18.49 17c-.82 0-1.49.65-1.49 1.46 0-.8.63-1.46 1.4-1.46h.09zm18.75 0c.77 0 1.76.65 1.76 1.46v20.08c0 .8-.99 1.46-1.76 1.46h1.27c.82 0 1.56-.6 1.56-1.4L40 18.45c0-.8-.67-1.46-1.49-1.46h-1.27zM18.49 40c-.82 0-1.49-.65-1.49-1.46 0 .8.63 1.46 1.4 1.46h.09z" fill="#17D6D1"/><path fill-rule="evenodd" d="M15.87 14c-1.03 0-1.87.83-1.87 1.84v25.32c0 1.01.84 1.84 1.87 1.84h25.26c1.03 0 1.87-.83 1.87-1.84V15.84c0-1.01-.84-1.84-1.87-1.84H15.87zm3.47 3c-.83 0-2.34.5-2.34 1.32v20.36c.07.52 1.51 1.32 2.34 1.32h18.32c.83 0 2.34-.5 2.34-1.32V18.32c0-.82-1.17-1.32-2.34-1.32H19.34z" fill="#FBFFFA"/><path fill="#17D6D1" d="M11 38h3v1h-3zm27 0h2l-.23 1H38v-1zm0-10h2v1h-2z"/><path fill="#C713EB" d="M43 22h2v1h-2zm1 13h1v1h-1zM18.53 17A1.5 1.5 0 0017 18.46v20.08c0 .8.69 1.46 1.53 1.46h.8c-.82 0-1.33-.65-1.33-1.46V36h1v-1h-1V23h1v-1h-1v-3.54c0-.8.5-1.46 1.32-1.46h-.79zM44 28h2v1h-2z"/><path d="M20.82 21a.83.83 0 00-.82.85V22h1v1h-1v5h-1v1h1v6h1s.03 1 0 1h13.48c1.15 0 1.5-.17 1.52-.25v-.62h-1v-6.56h-.94v-.75h.86c-.01-.43-.17-.68-.35-.82h-4.54c-.53 0-1.03.5-1.03 1l-1 .02V29h1c0 .5.5 1 1 1 1.21 0 2-.08 2 .37v2.36c0 .15-.23.27-.37.27H23v-3.66h-1.58v-.84H23V24h11.37c.3-.1.57-.3.63-.69v-.47h.98v-.94H35v-.05a.83.83 0 00-.82-.85H20.82z" fill="#17D6D1"/><path d="M22.82 21a.83.83 0 00-.82.85v.1h.66v.83H22v5.7h-1v.82h1v5.73h.66v.83h-.29c.13.09.28.14.45.14h13.65c1.16 0 1.5-.17 1.53-.25V35h-1v-6h-1v-1h1c0-.48-.5-1-1-1h-3.97c-.44 0-.81.38-.87.84h-.85v.86h.84v.02c0 .52.4.94.88.94h1.47c.21 0 .38.18.38.4v2.67c0 .15-.11.27-.25.27H25v-4h-2v-1h2v-4h11c.56 0 .94-.3 1-.69V23h1v-1h-1v-.15a.83.83 0 00-.82-.85H22.82z" fill="#C713EB"/><path d="M21.82 21a.83.83 0 00-.82.85V22h1v1h-1v5h-1v1h1v6h1v1h13.47c1.16 0 1.5-.17 1.53-.25V35h-1v-6h-1v-1h1c0-.43-.3-1-1-1h-4c-.5 0-1 .45-1 1h-1v1h1.15c0 .49.35 1 .88 1h1.47c.21 0 .38.48.38.7v2.03c0 .15-.11.27-.25.27H24v-4h-2v-1h2v-4h11.37c.3-.1.57-.3.63-.69V23h1v-1h-1v-.15a.83.83 0 00-.82-.85H21.82z" fill="#FBFFFA"/><path d="M11 35h2v1h-2v-1zm-1-7h2v1h-2zm1-13h2v1h-2z" fill="#17D6D1"/><path d="M12 15.84c0-1.01.88-1.84 1.96-1.84h1.98c-1.03 0-1.86.83-1.86 1.84v25.32c0 1.01.83 1.84 1.86 1.84h-1.98c-1.08 0-1.96-.83-1.96-1.84V23h1v-1h-1v-6.16z" fill="#17D6D1"/><path fill="#FBFFFA" d="M13 15h2v1h-2z"/><defs><linearGradient id="a3iieltqn" x1="10.42" y1="9.71" x2="68.15" y2="76.02" gradientUnits="userSpaceOnUse"><stop stop-color="#1A1E21"/><stop offset="1" stop-color="#06060A"/></linearGradient></defs></svg>