<svg width="56" height="56" viewBox="0 0 56 56" xmlns="http://www.w3.org/2000/svg"><path d="M33.14 10.82c.1.24.26.44.48.58.88.58.2 1.16.51 1.93.07.17.28.35.61.55a3 3 0 0 1 1.08 1.09 15.75 15.75 0 0 0-8.85-2.2c-.71.03-1.33.13-1.87.3a13.72 13.72 0 0 0-5.93 2.59 16.52 16.52 0 0 0-5.93 8.7.09.09 0 0 1-.08.07c-.06 0-.09-.02-.07-.08.34-1.5.7-2.57 1.07-3.18.47-.78.92-1.56 1.37-2.34.31-.55.97-1.3 1.97-2.25.5-.47.37-1.1.84-1.59.42-.43.9-.31 1.17-.99.1-.25.2-.43.3-.54.4-.5.46-1.06.97-1.36a5.97 5.97 0 0 0 .7-.5c.02-.06 0-.1-.05-.14-.07-.05-.1-.12-.09-.22 0-.03.02-.05.04-.07a.13.13 0 0 1 .06-.04l1.3-.41c.07-.03.13 0 .18.06l.09.13c.03.05.08.08.13.08.36.03.53-.11.5-.44 0-.08.04-.13.12-.15l1.35-.23a.08.08 0 0 1 .07.02.08.08 0 0 1 .02.06v.13l.04.03c.18.11.37.13.57.06.07-.03.1-.08.08-.16a.18.18 0 0 1 .04-.18.22.22 0 0 1 .13-.06c.41-.06.83-.08 1.25-.06a.3.3 0 0 1 .2.08c.28.27.55.28.83.02a.29.29 0 0 1 .2-.09c.39 0 .76.04 1.14.1.17.02.26.07.27.14.01.05.04.1.07.15l.14.1h.18a.37.37 0 0 0 .16-.06l.26-.2a.2.2 0 0 1 .18-.04l1.12.3c.14.04.2.09.16.15a.2.2 0 0 0 .08.28.2.2 0 0 0 .1.02c.29 0 .53-.05.74-.14Z" fill="#947FCB"/><path d="M33.14 10.82c.45 0 .72.18 1.13.31.14.05.2.14.19.28-.01.06 0 .13.04.18.04.05.1.1.16.1.2.06.38.03.56-.07a.2.2 0 0 1 .18 0l1.05.52a.29.29 0 0 1 .16.2c.02.1.06.18.11.27.06.08.14.13.24.13.44 0 .83.15 1.15.47.03.03.08.05.13.06.27.04.4.19.38.44a.26.26 0 0 0 .18.27c.57.17 1.02.48 1.37.94.17.22.14.5.46.65.51.24.91.61 1.19 1.12a.3.3 0 0 1 .03.19c-.04.38.14.57.54.57a.2.2 0 0 1 .17.1l.61.96c.05.07.06.14.04.22-.11.36.01.6.37.71.07.03.13.07.17.14l.54 1c.04.08.05.15.02.22l-.14.4a.16.16 0 0 0 .09.2l.36.16c.1.04.15.1.19.2l.37 1.08c.01.03.02.06 0 .08 0 .03-.01.06-.03.08a.7.7 0 0 0-.23.45c0 .04 0 .07.02.1a.2.2 0 0 0 .06.09l.36.25a.3.3 0 0 1 .12.19l.22 1.07c0 .04 0 .07-.02.1a.16.16 0 0 1-.07.08.46.46 0 0 0-.26.36.22.22 0 0 0 .07.19c.53.49.47.83.5 1.5l-.01.11a.24.24 0 0 1-.06.1l-.2.2a.34.34 0 0 0-.11.22c-.02.26.1.41.34.48a.16.16 0 0 1 .12.17l-.12 1.12a.31.31 0 0 1-.11.2l-.33.25c-.07.06-.09.13-.06.22.06.15.16.29.28.4a.2.2 0 0 1 .06.18l-.22 1.09a.25.25 0 0 1-.12.17l-.35.22c-.05.03-.1.1-.1.16-.02.06 0 .13.03.18l.18.29a.22.22 0 0 1 .02.2l-.35 1.01a.2.2 0 0 1-.14.14c-.47.14-.59.43-.36.9a.22.22 0 0 1 0 .2l-.46.93a.27.27 0 0 1-.15.13l-.45.16c-.08.03-.12.1-.1.18l.04.46c0 .07 0 .14-.04.2-.21.4-.57 1.22-1.16 1.01a3.94 3.94 0 0 1-.13-1.46.22.22 0 0 0-.18-.23.2.2 0 0 0-.1 0l-.53.2a.18.18 0 0 1-.2-.06c-.16-.22-.17-.5-.05-.86.9-1.74 1.7-3.23 2-5.2.93-5.1-.29-9.54-3.65-13.33-.97-1.1-2.09-2.02-3.34-2.75a3 3 0 0 0-1.07-1.09c-.34-.2-.54-.38-.6-.55-.32-.77.36-1.35-.52-1.93a1.23 1.23 0 0 1-.48-.58Z" fill="#AB96DD"/><path d="M21.42 11.68c-.2.15-.42.3-.64.42-.5.3-.57.85-.98 1.36-.09.11-.19.3-.29.54-.28.68-.75.56-1.17 1-.47.49-.34 1.1-.84 1.58-1 .95-1.66 1.7-1.97 2.25-.45.78-.9 1.56-1.37 2.34a11.9 11.9 0 0 0-1.07 3.18c-.02.06 0 .09.07.08.04 0 .07-.03.08-.07a16.52 16.52 0 0 1 5.93-8.7c.09.31.35.4.8.24.11-.04.34-.2.69-.46a5.23 5.23 0 0 1 1.92-.74c.33-.08.53-.27.8-.36a11 11 0 0 1 2.77-.55c.54-.03.92-.29 1.49-.28.4.01.8-.01 1.2-.07 1.23.05 2.1.18 2.63.39 1.07.43 2.14.86 3.2 1.31.7.3 1.5.83 2.37 1.6.58.5 1.37.91 1.95 1.74a10.15 10.15 0 0 1 1.5 2.96c-.41-.5-.97-.87-1.3-1.36-.47-.71-.74-1.36-1.37-2.09a1.16 1.16 0 0 0-.26-.37c-.75-.2-.88-.81-1.36-1.15-.7-.49-1.72-.7-2.5-1.04a11.3 11.3 0 0 0-1.81-.62c-.75-.18-1.25-.64-2.14-.57-.07 0-.14 0-.2-.03-.46-.2-.78-.3-1.3-.22a9.7 9.7 0 0 1-1.08.1.44.44 0 0 0-.2.06c-.5.29-1.02.38-1.6.27a.62.62 0 0 0-.48.12c-.84.64-1.72 1.25-2.63 1.81-.27.17-.4.4-.4.71a.24.24 0 0 0 .13.21c.64.34 1.32.43 2.03.26a.3.3 0 0 1 .21.03c.2.1.3.27.3.52.06.01.1.08.1.2 0 .04.02.08.06.12.05.04.06.1.06.17l-.19 1.46c.14-.71.07-1.39-.2-2.04a.18.18 0 0 0-.15-.11.53.53 0 0 0-.43.13c-2.34-.3-1.5 3.26-1.7 4.48-.06.37.05.52.28.78l-2 .36a.08.08 0 0 0-.04.03.09.09 0 0 0-.02.07l.01.05c0 .02.02.03.04.03.63-.14 1.5-.35 2.13-.1.06.02.1.07.1.14-.01.35.15.52.48.5 1.17-.04 2.04.24 2.62.83-2.56-.92-5.33-.67-7.07 1.57-.08-.27-.24-.29-.45-.06-.34.36-.46.92-.84 1.34a.4.4 0 0 0-.1.18c-.1.46-.14.77-.13.92.05.76-.05 1.6.04 2.26.16 1.11.65 2.6 1.45 3.44.5.53 1.14.79 1.77 1.1.52.25 1 .28 1.57.35.24.03.4.16.5.38.02.07.07.12.13.16.3.17.62.23.97.17.02 0 .04 0 .04-.02l.01-.06c0-.01 0-.02.02-.02l.72-.2c.17-.04.21-.14.11-.3a.2.2 0 0 0-.12-.08.1.1 0 0 1-.06-.16.1.1 0 0 1 .06-.03c.51-.17.73-.31.67-.45.23-.05.35-.2.34-.43a8.6 8.6 0 0 1 .06-1.84l.11.66c.01.06.04.11.1.16l.34.32a.16.16 0 0 1 .03.2l-.4.81a.17.17 0 0 0 .03.2l.63.66a.41.41 0 0 0 .72-.33.52.52 0 0 1 .09-.38c.03-.05.09-.07.15-.06l.35.06a.38.38 0 0 1 .3.48.38.38 0 0 1-.12.17c-.27.25-.4.5-.41.8a.77.77 0 0 0-.37 0 .26.26 0 0 0-.16.1l-.24.38a.13.13 0 0 1-.16.05.14.14 0 0 1-.09-.15l.09-.6a.25.25 0 0 0-.31-.28c-.93.22-1.53.69-2.53.7-.3 0-.56.05-.78.15h-.92c-.61-.02-1.13-.3-1.75-.43-.33-.07-.6-.17-.83-.3-2.74-1.7-3.37-3.3-3.66-6.5a.14.14 0 0 0-.12-.12h-.06c-.49.16-.42 1.53-1.1 1.3a.29.29 0 0 1-.2-.21l-.29-1.5c-.02-.09-.07-.13-.15-.14l-.72-.02c-.1 0-.14.04-.12.14.17.82.25 1.76.45 2.48a15.32 15.32 0 0 0 3.54 6.23c.53.44.99.95 1.5 1.41.36.35.73.58 1.09.7.11.3.32.54.62.7.75.37 1.75.76 1.94 1.3.46 1.36 1.1 1.18 2.11 1.96.52.4.81.74 1.5.8 1.41.15 2.75.38 4.16.19 1.15-.15 2.27-.25 3.41-.57l1.38-.37c-.48.55-1.12.8-1.92.75a.36.36 0 0 0-.2.05c-.97.55-1.67.28-2.65.52-.83.21-1.53-.02-2.35.08a5.35 5.35 0 0 1-1.25 0l-.36-.22a.3.3 0 0 0-.24-.03c-.6.17-1.19.14-1.77-.08-.14-.05-.21-.15-.21-.28a.13.13 0 0 0-.09-.13l-.14-.06a.17.17 0 0 0-.18.03c-.36.33-1.18-.03-1.6-.25a.31.31 0 0 1-.14-.15.68.68 0 0 0-.2-.26.31.31 0 0 0-.24-.06c-.53.06-1-.09-1.4-.44-.28-.25-.46-.47-.84-.58a2.8 2.8 0 0 1-1.55-1.1.46.46 0 0 0-.18-.16 3.77 3.77 0 0 1-1.6-1.45.45.45 0 0 0-.17-.16 2.94 2.94 0 0 1-1.31-1.51c-.02-.06-.11-.15-.27-.26-.48-.36-.8-.81-.93-1.37-.25-.96-1.24-1.11-1.04-2.35a.33.33 0 0 0-.04-.22.67.67 0 0 0-.42-.34.25.25 0 0 1-.14-.12 2.73 2.73 0 0 1-.3-.85c-.07-.43.28-.88-.25-1.29a.32.32 0 0 1-.11-.19l-.21-1.02a.29.29 0 0 1 .04-.22c.15-.2.17-.4.07-.58a2.16 2.16 0 0 1-.15-2 .32.32 0 0 0 .02-.21c-.16-.7-.29-1.26.02-1.95.3-.64-.15-1.52.23-2.03.24-.32.38-.54.36-.97-.02-.67.2-1.25.67-1.73a.27.27 0 0 0 .07-.19c.02-.78.33-1.41.94-1.88.06-.05.1-.11.12-.19.14-.54.16-.98.66-1.43.16-.15.43-.22.63-.38.06-.05.09-.1.1-.18.05-.51.26-.92.65-1.22.36-.28.95-.12.95-.85 0-.07.03-.13.08-.18.44-.47.68-.7 1.33-.83.3-.05.42-.2.37-.47a.18.18 0 0 1 .08-.2l.92-.63a.22.22 0 0 1 .22-.02c.23.1.45.09.66-.05a.14.14 0 0 0 .06-.15.14.14 0 0 0-.02-.06c-.06-.07-.05-.16 0-.27a.38.38 0 0 1 .18-.15l.93-.48a.23.23 0 0 1 .21 0c.27.13.54.17.8.13Z" fill="#7D6BAF"/><path d="M35.82 14.97c1.24.73 2.36 1.64 3.34 2.75 3.35 3.79 4.57 8.23 3.64 13.33-.38.25-.52.04-.41-.61.04-.25.06-.47.04-.66l-.24-3.48c-.02-.27-.1-.59-.25-.95-.1-.28-.14-.68-.38-1.03l-1.07-2.88c-.28-.96-.78-1.94-1.5-2.96-.58-.83-1.37-1.24-1.95-1.74a9.07 9.07 0 0 0-2.37-1.6c-1.06-.45-2.13-.88-3.2-1.31a8.62 8.62 0 0 0-2.63-.39 7.04 7.04 0 0 0-3.01-.06c-.42.07-.66-.04-.73-.32a7.58 7.58 0 0 1 1.87-.29c3.2-.13 6.15.6 8.85 2.2Z" fill="#5B4D98"/><path d="M25.1 13.06c.07.28.31.39.72.32 1.2-.2 2.2-.17 3.02.06-.4.06-.8.08-1.2.07-.57 0-.95.25-1.49.28a11 11 0 0 0-2.77.55c-.27.1-.47.28-.8.36-.9.2-1.55.45-1.92.74-.35.26-.58.42-.7.46-.44.15-.7.07-.79-.24a13.71 13.71 0 0 1 5.93-2.6Z" fill="#6F5DB3"/><path d="M37.56 17.62c-.2.01-.3.07-.3.17.02.33.08.64.21.95.03.06.04.13.02.2a8.03 8.03 0 0 0-.01 3.27c.12.61-.12 1.6-.12 2.25l-.06 6.29c0 .4.26 1.05.18 1.38a4.35 4.35 0 0 0 0 2.14c.23.22.34.17.33-.14-.06-2.85-.01-5.72-.08-8.6-.02-.63 0-1.41.06-2.34.05-.72.04-2.15-.04-4.3 0-.28.07-.59.07-.9.63.73.9 1.38 1.37 2.09.33.5.89.85 1.3 1.36l1.07 2.88c.39 1.3.57 2.28.53 2.9-.08 1.43-.11 2.87-.4 4.28l-.38 1.93c-.04.18-.1.36-.17.54a19.72 19.72 0 0 1-1.57 2.89c-.56.9-1.36 1.65-2.06 2.48-.03.04-.03.08 0 .12l.05.04.07.04a11.82 11.82 0 0 0 2.18-2.09c.32-.4.64-.8.99-1.2-.12.36-.1.64.04.86a.17.17 0 0 0 .21.07l.53-.2a.2.2 0 0 1 .26.11c.02.03.03.07.02.1-.04.53 0 1.02.13 1.47a2.44 2.44 0 0 1-.7 1.51c-.04.03-.23.14-.58.32-.46.23-.4.64-.7.95-.35.35-.76.59-1.25.7a.23.23 0 0 0-.15.14c-.24.5-.6.85-1.1 1.04-.34.12-.84-.12-.99.43a.33.33 0 0 1-.1.17c-.39.32-.73.48-1.03.49-.38 0-.67.05-.87.14l-1.38.37c-1.14.32-2.26.42-3.41.57-1.4.19-2.75-.04-4.15-.18-.7-.07-1-.4-1.5-.8-1.03-.8-1.66-.6-2.12-1.97-.19-.54-1.2-.93-1.94-1.3-.3-.16-.51-.4-.62-.7.7.14 1.37.35 2.03.64 2.33 1.03 2.82-.9 4.38-1.87.8-.49 1.23-1.28 1.48-2.17 0-.28.14-.54.41-.79a.38.38 0 0 0-.18-.65l-.35-.06a.15.15 0 0 0-.15.06c-.08.1-.1.23-.1.38a.42.42 0 0 1-.23.42.41.41 0 0 1-.48-.09l-.63-.66a.17.17 0 0 1-.03-.2l.4-.82a.16.16 0 0 0-.03-.19l-.35-.32a.27.27 0 0 1-.09-.16l-.11-.66-.05-1.21.1-.5a.16.16 0 0 0-.04-.14.15.15 0 0 0-.12-.05l-2.68.05c-.29-.5-.27-.99.05-1.46.8.09 1.44.04 1.92-.15l.15-2.73c0-.07.03-.13.08-.18.42-.4 1.2-.42 1.73-.72a.2.2 0 0 0 .1-.15c.02-.16 0-.3-.04-.43l-.9-.55c-.57-.6-1.44-.87-2.61-.83-.33.02-.5-.15-.48-.5a.14.14 0 0 0-.1-.15c-.62-.24-1.5-.03-2.13.1-.02.01-.03 0-.03-.02l-.02-.05a.09.09 0 0 1 .02-.07l.02-.02.03-.01 2-.36c-.06-.05-.03-.06.09-.04l1.19.05c-.12 0-.19.02-.2.06a.15.15 0 0 0 .06.19l.07.01c.71.02 2.12.2 2.72.66.07.05.1.11.1.19v.65c0 .03 0 .06.02.09.02.02.05.04.08.04l.06.02c.09.02.13-.01.13-.1v-1.03c-.01-.09-.05-.14-.14-.17l-2.06-.51.08-3.35.18-1.46a.2.2 0 0 0-.06-.17c-.04-.04-.06-.08-.06-.12.83.84 1.64 1.7 2.43 2.56.72.8 1.52 1.65 2.4 2.58 1.6 1.66 3.29 3.4 4.59 5.31.06.1.18.17.35.2.07.02.1-.01.1-.08s-.01-.12-.05-.16c-.3-.27-.5-.55-.64-.82.15.07.26.17.33.3.03.07.07.13.12.18l.26.3a.1.1 0 0 0 .12.03.11.11 0 0 0 .07-.1l-.14-3.03v-.02c-.02-.02-.03-.03-.03-.05.05-2.45.08-4.94.1-7.46a.32.32 0 0 0-.39-.31.66.66 0 0 0-.42.29c-.37-.08-.65-.04-.86.1a.27.27 0 0 0-.12.19c-.06.54-.19 1.06-.37 1.57a.2.2 0 0 0-.01.1c.1.5.22.87.1 1.38-.3 1.29-.05 2.17.04 3.32.05.67.12 1.38.21 2.13l-7.97-8.89a.12.12 0 0 0-.1-.04.13.13 0 0 0-.1.06l-.11.16c-.01-.25-.12-.42-.3-.52a.3.3 0 0 0-.22-.03c-.71.17-1.39.08-2.03-.26a.24.24 0 0 1-.13-.2c0-.32.13-.55.4-.72.9-.56 1.79-1.17 2.63-1.81a.62.62 0 0 1 .49-.12c.57.11 1.1.02 1.58-.27a.44.44 0 0 1 .21-.06 9.7 9.7 0 0 0 1.07-.1c.53-.08.85.02 1.3.22.07.03.14.04.21.03.9-.07 1.39.39 2.14.57.62.16 1.22.36 1.8.62.8.34 1.8.55 2.51 1.04.48.34.61.95 1.36 1.15ZM27 22.77c-.03-.24-.22-.6-.4-.73-.32-.21-1.15-.13-1.39-.03-.18.08-.18.16 0 .25.15.07.31.12.5.14.07 0 .13.04.18.1.26.31.6.52 1 .61a.14.14 0 0 0 .18-.13c0-.03 0-.05-.02-.08a.31.31 0 0 1-.05-.13Zm.56 3.15.05 3.04a.22.22 0 0 0 .1.18c.24.16.46.34.67.54.25.25.53.3.83.47.06.04.11.09.15.16.58 1.2 1.82 1.6 2.6 2.66.5.66.87 1.27 1.53 1.8.86.7 1.3 1.12 1.94 1.73.22.21.47.26.74.13l1.31-.6c.15-.22.14-.44-.05-.66a48.18 48.18 0 0 0-1.9-2.16c-.5-.53-.97-1.22-1.51-1.77-.6-.62-1-1.04-1.19-1.26-1.3-1.53-2.68-3-4.14-4.39-.22-.21-.31-.48-.56-.7a1.7 1.7 0 0 1-.42-.57c-.03-.06-.07-.09-.14-.07l-.08.02c-.06.01-.08.05-.06.11.14.44.18.88.13 1.34Z" fill="#947FCB"/><path d="M37.56 17.62c.12.11.2.24.26.37 0 .31-.08.62-.07.9.07 2.15.09 3.58.04 4.3-.06.93-.08 1.7-.07 2.34.08 2.88.03 5.75.09 8.6 0 .31-.1.36-.32.14a4.35 4.35 0 0 1-.01-2.14c.08-.33-.18-.97-.18-1.38l.06-6.29c0-.65.24-1.64.12-2.25a8.03 8.03 0 0 1 .01-3.27.34.34 0 0 0-.02-.2c-.13-.3-.2-.62-.2-.95 0-.1.1-.16.3-.17Z" fill="#AB96DD"/><path d="m33.81 27.87-.4-.43-.2-1.5c-.01-.07 0-.13.02-.2l.2-.4a.31.31 0 0 0 .01-.21c-.07-.32-.2-.66-.2-.99.03-1.42 0-2.84-.08-4.26-.06-.82.16-1.3.67-1.88a.66.66 0 0 1 .42-.3.32.32 0 0 1 .35.19c.02.04.03.09.03.13a567.03 567.03 0 0 1-.07 7.5l.01.03.14 3.02a.11.11 0 0 1-.07.11.1.1 0 0 1-.12-.03l-.26-.3a.79.79 0 0 1-.12-.18.63.63 0 0 0-.33-.3Z" fill="#5B4D98"/><path d="M32.82 26.79c.15.27.34.48.58.65l.41.43c.13.27.35.55.64.82.04.04.06.09.06.16s-.04.1-.1.08c-.18-.03-.3-.1-.37-.2-1.3-1.91-2.99-3.65-4.58-5.31a152.8 152.8 0 0 1-2.4-2.58c-.8-.86-1.6-1.72-2.43-2.56 0-.12-.04-.19-.1-.2l.12-.16a.13.13 0 0 1 .2-.02l7.97 8.89Z" fill="#AB96DD"/><path d="m24.56 20.03-.07 3.35-.84-.1-1.2-.05c.3-1.43-.04-2.78.27-4.23a.5.5 0 0 1 .28-.35c.29-.13.55-.35.78-.64a.53.53 0 0 1 .43-.13c.08 0 .12.05.15.11.27.65.34 1.33.2 2.04Z" fill="#5B4D98"/><path d="M33.83 18c-.5.58-.73 1.06-.67 1.88.08 1.42.11 2.84.08 4.26 0 .33.13.67.2.99.02.07.01.14-.02.21l-.19.4a.32.32 0 0 0-.02.2l.2 1.5a1.79 1.79 0 0 1-.6-.65c-.08-.75-.16-1.46-.2-2.13-.09-1.15-.34-2.03-.04-3.32.12-.5 0-.89-.1-1.38a.2.2 0 0 1 0-.1 7.3 7.3 0 0 0 .42-1.68.27.27 0 0 1 .08-.08c.2-.14.49-.18.86-.1ZM23.78 18c-.23.3-.49.52-.78.65a.5.5 0 0 0-.28.35c-.3 1.45.04 2.8-.26 4.23-.12-.02-.15 0-.1.04-.23-.26-.34-.41-.28-.78.2-1.22-.64-4.77 1.7-4.48Z" fill="#6F5DB3"/><path d="m27 22.84.04.06a.15.15 0 0 1-.08.2.14.14 0 0 1-.08.01c-.4-.1-.74-.3-1-.61a.27.27 0 0 0-.19-.1 1.44 1.44 0 0 1-.5-.14c-.17-.09-.17-.17.01-.25.24-.1 1.07-.18 1.38.03.19.12.38.49.4.73l.03.07Z" fill="#7D6BAF"/><path d="m23.64 23.28.85.1 2.06.51c.09.03.13.08.13.17v1.03c0 .09-.04.12-.12.1l-.06-.02a.14.14 0 0 1-.08-.04.13.13 0 0 1-.03-.09v-.65a.21.21 0 0 0-.09-.19c-.6-.46-2-.64-2.72-.66a.15.15 0 0 1-.14-.2c.02-.04.09-.06.2-.06Z" fill="#AB96DD"/><path d="M41.56 24.32c.24.35.27.75.38 1.03.15.36.23.68.25.95l.24 3.48c.02.2 0 .41-.04.66-.11.65.03.86.41.6-.3 1.98-1.1 3.47-2 5.2-.35.4-.68.8-1 1.2-.6.78-1.3 1.47-2.1 2.07a.11.11 0 0 1-.07.03.1.1 0 0 1-.07-.04.42.42 0 0 1-.05-.04c-.03-.04-.03-.08 0-.12.7-.83 1.5-1.59 2.05-2.48.61-.98 1.15-1.86 1.58-2.9.08-.17.13-.35.17-.53l.38-1.93c.29-1.4.32-2.85.4-4.28.03-.62-.14-1.6-.53-2.9Z" fill="#6F5DB3"/><path d="M37.47 36.03 36.19 36a657 657 0 0 0-1.98-2.42c-.47-.57-1.03-1-1.56-1.52-.44-.44-1.43-1.24-2-2-.67-.86-1.41-1.37-2.2-2.04-.65-.55-.65-1.17-.8-1.89-.02-.1-.06-.18-.1-.22.05-.46 0-.9-.13-1.34-.02-.06 0-.1.06-.11l.08-.02c.06-.02.1 0 .13.07.1.2.24.4.43.56.25.23.34.5.56.71a58.56 58.56 0 0 1 4.14 4.4c.19.2.58.63 1.19 1.25.54.55 1 1.24 1.5 1.77.66.7 1.3 1.42 1.91 2.16.18.22.2.44.05.66ZM25.68 25.18l.89.55c-.03.53-1 .35-1.39.28-.2-.04-.35-.03-.43.02-.13.08-.21.22-.25.43-.11.62-.15 1.05-.12 1.3.07.6.13 1.32.17 2.18-.48.19-1.12.24-1.93.15-.07.04-.12 0-.15-.15a.58.58 0 0 1-.01-.2c.08-.74-.33-2.37-1.36-2.33-.47.01-.94 0-1.42-.06-.06-.01-.12 0-.18.05l-.47.42c-.47.4-.69.3-.65-.33l-.11-.42.34-.32c1.74-2.24 4.5-2.5 7.07-1.57Z" fill="#5B4D98"/><path d="M26.57 25.73c.05.12.06.27.04.43a.2.2 0 0 1-.1.15c-.53.3-1.31.32-1.73.72a.26.26 0 0 0-.08.18l-.15 2.73c-.04-.86-.1-1.58-.17-2.17-.03-.26.01-.7.12-1.3.04-.22.12-.36.25-.44.09-.05.23-.06.43-.02.4.07 1.36.25 1.39-.28Z" fill="#6F5DB3"/><path d="M27.55 25.92c.05.04.08.11.1.22l-.07 1.74a.19.19 0 0 0 .1.18l.1.05c.06.04.1.09.13.15.1.25.25.48.43.69.07.07.14.09.23.06a.62.62 0 0 0 .19-.09c.07-.04.14-.04.21 0 .34.26.54.66.78.92 1.95 2.02 3.92 4.01 5.91 6 .19.18.37.24.54.17l1.27.02-1.31.6a.61.61 0 0 1-.74-.13 24.77 24.77 0 0 0-1.94-1.73c-.66-.53-1.03-1.14-1.52-1.8-.79-1.06-2.03-1.46-2.61-2.66a.35.35 0 0 0-.15-.16c-.3-.17-.58-.22-.83-.47-.21-.2-.43-.38-.67-.54a.22.22 0 0 1-.1-.18l-.05-3.04Z" fill="#7D6BAF"/><path d="M27.65 26.14c.15.72.15 1.34.8 1.89.79.67 1.53 1.18 2.2 2.05.57.75 1.56 1.55 2 1.99.53.52 1.1.95 1.56 1.52L36.2 36c-.18.07-.35 0-.54-.18a418.3 418.3 0 0 1-5.9-6c-.25-.25-.45-.65-.8-.9-.06-.05-.13-.05-.2 0a.62.62 0 0 1-.19.08.21.21 0 0 1-.23-.06c-.18-.2-.33-.44-.43-.69a.27.27 0 0 0-.13-.15l-.1-.05a.19.19 0 0 1-.1-.18l.07-1.74Z" fill="#6F5DB3"/><path d="m18.6 26.75-.33.32c-1.94 3.94-.44 9.65 5 9 .37-.04.93-.17 1.7-.4.06.14-.16.28-.67.45a.1.1 0 0 0-.05.15.1.1 0 0 0 .05.04.2.2 0 0 1 .12.09c.1.15.06.25-.11.3l-.72.18-.02.03-.01.06-.04.02c-.35.06-.67 0-.97-.17a.32.32 0 0 1-.13-.16.59.59 0 0 0-.5-.38c-.57-.07-1.05-.1-1.57-.35-.63-.31-1.26-.57-1.77-1.1a6.75 6.75 0 0 1-1.45-3.44c-.1-.67 0-1.5-.04-2.26 0-.15.04-.46.13-.92a.4.4 0 0 1 .1-.18c.38-.42.5-.98.84-1.34.21-.23.36-.21.45.06Z" fill="#947FCB"/><path d="M18.27 27.07c.08.25.11.4.11.42-.03.63.18.74.65.33l.47-.42a.22.22 0 0 1 .18-.05c.48.05.95.07 1.42.06 1.04-.04 1.44 1.59 1.36 2.33v.2c.04.14.1.2.16.15-.31.47-.33.96-.04 1.46-.2.16-.28.31-.26.45a.13.13 0 0 0 .14.12.6.6 0 0 1 .5.18c.02.02.02.03.01.05 0 .02-.02.04-.03.05 0 .03-.03.04-.05.04l-.17-.04c-.23-.06-.26 0-.08.16.2.19.42.41.64.66a.2.2 0 0 0 .2.07c.07-.01.1-.06.08-.14a.34.34 0 0 0-.13-.2.08.08 0 0 1 .03-.14h.06l.26.16a.38.38 0 0 0 .51-.13c.07-.1.15-.18.26-.24a.28.28 0 0 1 .2-.03c.27.06.46-.07.57-.38l.05 1.2c-.08.37-.1.99-.06 1.85 0 .24-.1.38-.34.43-.77.23-1.33.36-1.7.4-5.44.65-6.94-5.06-5-9Z" fill="#6F5DB3"/><path d="M22.73 37.5c.18.4-.08.69-.78.87-.86.23-1.8 0-2.69-.2-1.1-.24-1.7-.96-2.91-.22a15.32 15.32 0 0 1-3.08-5.75c-.2-.72-.28-1.66-.45-2.48-.02-.1.02-.15.12-.14l.72.02c.08 0 .13.05.15.13l.3 1.5a.29.29 0 0 0 .19.23c.68.22.61-1.15 1.1-1.3a.13.13 0 0 1 .18.11c.29 3.2.92 4.8 3.66 6.5.22.13.5.23.83.3.62.14 1.13.41 1.75.42h.91ZM25.32 32.19c-.1.31-.3.44-.57.38a.28.28 0 0 0-.2.03c-.1.06-.2.14-.26.24a.38.38 0 0 1-.51.13l-.26-.16a.08.08 0 0 0-.09.14c.07.05.11.12.13.2.02.08 0 .13-.09.14h-.1a.2.2 0 0 1-.1-.07 7.79 7.79 0 0 0-.63-.66c-.18-.16-.15-.22.08-.16l.17.04c.02 0 .04 0 .05-.04l.03-.05v-.05a.6.6 0 0 0-.51-.18.13.13 0 0 1-.14-.12c-.02-.14.07-.3.26-.45l2.68-.05a.15.15 0 0 1 .12.05.16.16 0 0 1 .04.13l-.1.5Z" fill="#5B4D98"/><path d="M27.29 37.14a3.52 3.52 0 0 1-1.48 2.17c-1.56.97-2.05 2.9-4.38 1.87-.66-.29-1.34-.5-2.03-.64a3.16 3.16 0 0 1-1.1-.7c-.5-.46-.96-.97-1.5-1.4-.17-.15-.32-.31-.45-.49 1.22-.74 1.81-.02 2.91.23.9.2 1.83.42 2.7.2.69-.2.95-.49.78-.88.22-.1.48-.15.78-.15 1-.01 1.6-.48 2.53-.7a.25.25 0 0 1 .3.27l-.08.61a.14.14 0 0 0 .1.15.13.13 0 0 0 .15-.05l.24-.37c.04-.06.1-.1.16-.12a.77.77 0 0 1 .37 0Z" fill="#6F5DB3"/></svg>