<svg width="56" height="56" viewBox="0 0 56 56" xmlns="http://www.w3.org/2000/svg"><path d="M19.5 33c.27 3.5-3.5 7-6.5 8 1.6-2.8 0-10.35 0-14 0-13 12-16 16-16 3.2 0 7.33 1 9 2l-1 3 2.5-2c2 1.5 3.67 3.67 4.5 5l-7 4.5c-2.5-2-6.5-3.5-9-3.5-8.14 0-9 6.5-8.5 13Z" fill="#fff"/><path d="M21 35a11.63 11.63 0 0 1-2 4c2.5-.5 7.33.33 9 1 0-1.6-.33-4-.5-5 1.2 1.6 2.17 5.33 2.5 7 2.8 1.6 6.5 2.67 8 3 0-4-.67-8.33-1-10-6-1-6.5-3.5-6.5-5 2.4 1.2 6.83 1.5 8.5 1.5 0-2-1-4.5-1.5-5.5-.8.4-2.67.5-3.5.5l2-1c-1.6-2.4-4.66-3.5-7.5-3.5-9.5 0-7 10.5-7.5 13Z" fill="#fff"/></svg>