<svg width="56" height="56" viewBox="0 0 56 56" xmlns="http://www.w3.org/2000/svg"><path d="M41.12 23.16c-.11-.08-.18-.14-.19-.2a1 1 0 0 0 .6-.01c.2.16.4.29.64.37.34.12.5.27.74.5.3.28.38.23.27-.15-1.46-4.94-4.7-8.37-9.72-10.29a14.76 14.76 0 0 0-8.26-.77c-4.8.95-8.4 3.56-10.82 7.82a.7.7 0 0 1-.2-.03 15.95 15.95 0 0 1 15.35-8.32c3.68.47 6.86 1.92 9.52 4.36a13.7 13.7 0 0 1 2.84 3.58 17.4 17.4 0 0 1 1.67 4.28c.09.37 0 .4-.25.13a4.28 4.28 0 0 0-2.19-1.27Z" fill="#EDD79E"/><path d="M13.96 23.06c0 .01-.01.02-.03.02h-.1a.08.08 0 0 1-.07-.04.08.08 0 0 1 0-.07c1.66-4.54 4.64-7.64 8.93-9.31 1.95-.76 3.9-1.1 5.88-1.02 2.9.12 5.63 1.04 8.2 2.75a14.22 14.22 0 0 1 5.83 7.75c0 .03 0 .04-.03.04h-.11a.12.12 0 0 1-.1-.07 14.11 14.11 0 0 0-7.39-8.4c-4.33-2.14-8.6-2.32-12.79-.54a14.3 14.3 0 0 0-8.22 8.89Z" fill="#EDD79E"/><path d="M33.62 14.44a6.73 6.73 0 0 1-1.99 1.47c-1.36.46-2.98.25-4.37.05a.21.21 0 0 1-.19-.15c-.11-.36-.32-.57-.62-.64-.18-.05-.2 0-.05.11.36.3.47.7.33 1.2-.02.1-.09.16-.2.17l-1.3.14-.5-.7c-.08-.12-.13-.11-.15.03l-.08.6a2.94 2.94 0 0 1-.56-.9.11.11 0 0 0-.05-.06.2.2 0 0 0-.09-.02c-.05 0-.07.03-.07.08v.62c0 .1-.05.19-.16.24l-.66.31c-.13.06-.12.1.02.13.1.02.21 0 .32-.06.22-.11.41-.16.57-.13.1.01.1.04.01.09-.71.32-1.33.1-1.86-.67l-.84-1.25c.91-.49 1.57-.79 1.96-.9 1.96-.6 3.8-.87 5.5-.86 1.64.02 3.32.39 5.03 1.1Z" fill="#162031"/><path d="m35.97 15.7-2.2 1.08a.1.1 0 0 0-.03.15.1.1 0 0 0 .06.03 1.3 1.3 0 0 0 .85-.1v.01c-.64.26-1 .58-1.05.95l-1.48.21A14.62 14.62 0 0 0 27.64 17l-.38-.55c-.07-.1-.15-.1-.24-.03-.14.13-.15.34-.02.64-.03.12 0 .25.1.38l.18.49a.8.8 0 0 0 .26.3c.58.99.97 1.75 1.16 2.29.05.14.03.37-.07.68l-.05-.24c.05-.13.07-.23.04-.3a6.58 6.58 0 0 0-2.42-3.12c-.17-.22-.5-.47-.97-.75l1.3-.14c.11 0 .18-.07.2-.17.15-.5.03-.9-.33-1.2-.15-.12-.13-.16.05-.11.3.07.5.28.62.64.03.09.1.14.19.15 1.39.2 3.01.4 4.37-.05.45-.14 1.11-.63 2-1.47l2.34 1.26Z" fill="#1C3344"/><path d="m21.13 15.1.84 1.25.05.54-.19.17-1.31.54a2.34 2.34 0 0 1-.15-1.97l.76-.53Z" fill="#4D6095"/><path d="M20.37 15.63c-.23.73-.19 1.4.15 1.97l.78.88c-.04.1-.1.15-.17.16-.06.01-.12-.02-.2-.08l-.29-.3a.16.16 0 0 0-.08-.05c-.04 0-.08 0-.12.02-.08.06-.09.13-.01.2l.17.16c.05.06.05.12 0 .17a.14.14 0 0 1-.08.03c-.04 0-.08 0-.13-.04-.36-.23-.73-.69-1.19-.7-.75-.04-1.29.14-1.6.55-.33.42-.4.85-.19 1.28.26.54.62.86 1.1.96.24.06.25.14.04.25-1.35.71-2.22.36-2.59-1.07.23-.42.5-.8.8-1.13.7-.8 1.45-1.58 2.2-2.34.41-.4.92-.63 1.41-.92Z" fill="#0C1831"/><path d="m24.5 16.72 2.27 1.99c-.21.02-.4.01-.58-.04-.67.08-1.12-.08-1.35-.49-.04-.08-.11-.11-.2-.08-.79.26-1.53.02-2.23-.7a1.12 1.12 0 0 0-.39-.51l-.05-.54c.53.77 1.15 1 1.86.67.1-.05.1-.08-.01-.1a.93.93 0 0 0-.56.14c-.12.06-.23.08-.33.06-.14-.03-.15-.07-.02-.13l.66-.31c.1-.05.16-.13.16-.24v-.62c0-.05.02-.08.07-.08a.2.2 0 0 1 .1.02l.04.06c.1.27.28.57.57.9Z" fill="#838383"/><path d="M35.97 15.7a12.65 12.65 0 0 1 5.52 6.26c.16.37.17.7.05.99a1 1 0 0 1-.6 0l-.9-1.98c-.4-.9-.73-1.53-1.01-1.9-1.32-1.74-3.13-2.16-5.43-1.25.06-.37.4-.69 1.05-.95v-.01c-.3.13-.59.17-.85.1a.1.1 0 0 1-.05-.03.1.1 0 0 1 .03-.15l2.2-1.09Z" fill="#295569"/><path d="M25.23 16.79c.48.28.8.53.97.75.12.39.37.78.75 1.18.18.18.16.21-.03.1a.65.65 0 0 1-.15-.11l-2.27-1.99.08-.6c.02-.14.07-.15.15-.04l.5.7Z" fill="#7E6654"/><path d="M27.64 17c0 .24-.09.41-.25.52a.25.25 0 0 0-.12.23v.18l-.17-.49c.23-.13.26-.37.09-.71-.06-.12-.12-.12-.17 0a.67.67 0 0 0-.02.33c-.13-.3-.12-.51.02-.64.1-.07.17-.06.24.03l.38.55Z" fill="#3E4844"/><path d="M27.1 17.44a.52.52 0 0 1-.1-.38.67.67 0 0 1 .02-.33c.05-.12.1-.12.17 0 .17.34.14.58-.1.71Z" fill="#7E6654"/><path d="M22.02 16.89c.21.17.34.34.39.5-.35.16-.16.45.59.86.12.07.11.12-.01.17-.11.05-.23.02-.35-.07-.35-.27-.7-.5-1.02-.68-.08-.05-.08-.1.01-.13.2-.06.27-.22.2-.48l.2-.17Z" fill="#747DAD"/><path d="M32.12 18.04c.33.14.67.27 1.01.38.1.03.18.03.25 0a.46.46 0 0 0 .21-.15s.01 0 0 0l-.42.7-.73.4c-.16-.1-.29-.22-.4-.36.22 0 .3-.1.27-.27-.1-.43-.42-.74-.94-.93-.2-.08-.5-.08-.88 0-.3.05-.53.18-.69.4-.17.25-.24.52-.22.83a.5.5 0 0 1-.1-.27l.04-.47c0-.1-.04-.18-.14-.22-.54-.23-.95-.13-1.23.29-.05.08-.11.08-.18.02-.14-.13-.29-.18-.43-.15a.8.8 0 0 1-.26-.31l-.01-.18c0-.1.03-.17.12-.23.16-.1.25-.28.25-.52 1.57.12 3.06.46 4.48 1.04Z" fill="#7E6654"/><path d="M22.4 17.4c.71.72 1.45.96 2.23.7.1-.03.17 0 .21.08.23.41.68.57 1.35.49a1.8 1.8 0 0 1-1.5-.14l-.03.07c-.02.04 0 .08.04.1.7.34 1.29.82 1.76 1.43l-.36-.2c-.1-.05-.18-.04-.26.03a.18.18 0 0 0-.05.06.13.13 0 0 0 0 .15l.8 1.14c.05.06.03.1-.04.12-.04 0-.07-.01-.11-.06-.62-.79-1.28-1.16-1.97-1.1a3.87 3.87 0 0 0-1.75-.9l-1.42-.9-.78-.87 1.31-.54c.07.26 0 .42-.2.48-.09.04-.1.08 0 .13.32.18.66.41 1.01.68.12.1.24.12.35.07.12-.05.13-.1 0-.17-.74-.41-.93-.7-.58-.86Z" fill="#ECB8A7"/><path d="M40.93 22.95c.01.07.08.13.2.2l-.56.06-.25-.01c-.47-2-1.2-3.54-2.21-4.63-1.54-1.65-3.5-1-4.94.4l.43-.7a.46.46 0 0 1-.22.15.38.38 0 0 1-.25 0c-.34-.11-.68-.24-1-.39l1.47-.21c2.3-.91 4.11-.5 5.43 1.25.28.37.61 1 1.01 1.9l.9 1.98Z" fill="#377285"/><path d="M40.32 23.2a.6.6 0 0 1-.4.09 84.11 84.11 0 0 0-1.56-3.34 3.08 3.08 0 0 0-2.88-1.8 3.96 3.96 0 0 0-2.4 2.02c-.05.08-.1.1-.2.06a.35.35 0 0 1-.08-.07l-.36-.78.73-.4c1.44-1.4 3.4-2.06 4.94-.4 1 1.08 1.74 2.62 2.2 4.62Z" fill="#4A92A1"/><path d="M26.2 17.54a6.58 6.58 0 0 1 2.42 3.13c.03.06.01.16-.04.29-.04-.12-.1-.2-.17-.23-.06-.03-.14 0-.23.05-.49.32-.59.77-.31 1.34a.06.06 0 0 1 0 .05l-.02.03-.03.01-.28.07c-.05.01-.08 0-.1-.06a4.76 4.76 0 0 0-.98-2.09 4.97 4.97 0 0 0-1.76-1.43c-.04-.02-.06-.06-.04-.1l.03-.07h.01c.49.26.99.3 1.5.14.16.05.36.06.57.04.06.05.1.1.15.11.2.11.2.08.03-.1-.38-.4-.63-.8-.75-1.18Z" fill="#EDD79E"/><path d="M32.05 19.01a2.5 2.5 0 0 0-1.62-.54c-.2 0-.36.07-.46.2a.92.92 0 0 0-.22.55c0 .1-.04.11-.11.05-.05-.04-.07-.12-.06-.23-.02-.3.05-.58.22-.83.16-.22.39-.35.7-.4.37-.08.67-.08.86 0 .53.2.84.5.94.93.05.17-.04.26-.25.27Z" fill="#3E4844"/><path d="M29.47 18.77a.69.69 0 0 0-.38-.14c-.11 0-.17.06-.17.16 0 .4.03.68.1.82.2.41.27.75.2 1-.26 1.23-.45 1.44-.58.65l-.01-.06c.1-.31.12-.54.07-.68-.19-.54-.58-1.3-1.16-2.28.14-.03.29.02.43.15.07.06.13.06.18-.02.28-.42.7-.52 1.23-.3.1.05.14.12.14.23l-.05.47Z" fill="#838383"/><path d="m21.3 18.48 1.42.9-1.18.3-1.34-.92c-.05-.04-.09-.04-.1 0l-.04.1c-.04.1-.05.16-.03.18l1.05.94c-.32.3-.56.66-.72 1.08a2.8 2.8 0 0 0-2.36.97c-.07.07-.09.13-.07.2.04.1.1.12.2.06.64-.41 1.12-.82 1.95-.72-.12.18-.1.3.08.35l-1.22.24-.03.05v.1l.04.04h.06c.3-.06.6-.08.86-.05.21.02.23.1.05.2-.18.12-.4.21-.7.29a.44.44 0 0 0-.14.07l-2.05 1.34c-.1.06-.08.1.02.13.07.02.13.02.16 0 .86-.5 1.77-.92 2.73-1.25-.1.3-.25.53-.46.68-.48.08-.92.26-1.32.55a.3.3 0 0 1-.26.05.38.38 0 0 0-.35.06.13.13 0 0 0-.04.05c-.01.02-.02.04-.01.06 0 .02 0 .04.02.06a.1.1 0 0 0 .05.03l.12.02c.12.03.15.1.07.2-.03.05-.12.08-.26.1a.27.27 0 0 1-.22-.1c-.11-.12-.24-.18-.37-.17a.27.27 0 0 1-.24-.12c-.08-.13-.19-.18-.32-.15-.09.02-.11.07-.08.16.03.08.14.15.3.23.03.19-.12.25-.44.18l-.52.08c-.6-.06-1.15.22-1.64.86-.59.75-1.01 1.43-1.74 1.64-.13.04-.2-.01-.2-.15v-.1c0-.14.07-.25.22-.31.34-.15.54-.26.6-.33A8.98 8.98 0 0 1 15 24.7c.1-.06.19-.1.24-.08.08 0 .17.03.26.07a.12.12 0 0 0 .16-.07.1.1 0 0 0 0-.09.14.14 0 0 0-.06-.06 3.43 3.43 0 0 0-1.17-.44c-.05 0-.08-.04-.07-.09l.03-.07a.05.05 0 0 1 .04-.02l1.36-.08a3.95 3.95 0 0 0 1.34-.14.12.12 0 0 0 .04-.07c0-.04-.02-.07-.06-.07l-1.57.01c-.07 0-.12-.02-.14-.05l-1.18-.1 1.01-.23c.1-.02.11-.06.05-.13-.47-.5-.51-1.05-.13-1.63.43-.66.7-1.1.81-1.35.37 1.43 1.24 1.78 2.6 1.07.2-.11.19-.2-.04-.25-.49-.1-.85-.42-1.1-.96-.21-.43-.15-.86.18-1.28.31-.4.85-.59 1.6-.56.46.02.83.48 1.19.71.05.04.1.05.13.04.03 0 .06-.02.07-.03.06-.05.06-.11 0-.17l-.16-.16c-.08-.07-.07-.14.01-.2a.15.15 0 0 1 .12-.02 6.94 6.94 0 0 0 .38.35c.07.06.13.1.19.08.07 0 .13-.06.17-.16Z" fill="#4D6095"/><path d="M39.92 23.29c-.43.08-.9-.02-1.4-.3a5.07 5.07 0 0 0-.63-2.3c.08-1.46-.63-2.23-2.15-2.33-.03-.07-.12-.15-.26-.22 1.35.04 2.3.64 2.88 1.81.54 1.08 1.06 2.2 1.56 3.34Z" fill="#73CBC2"/><path d="M35.48 18.14c.14.07.23.15.26.22-1.48.36-2.07 1.22-1.76 2.58.09.41.03.62-.14.97l-.44 1.06a.25.25 0 0 1-.24.16h-.28c-.1 0-.15-.06-.14-.16.14-1 .08-1.97-.2-2.9.05.06.14.1.26.09l.09.07c.08.04.14.02.19-.06a3.96 3.96 0 0 1 2.4-2.03Z" fill="#B0CEA1"/><path d="m37.9 20.69-.44 1a.3.3 0 0 0 .02.27c.27.45.61.8 1.03 1.03.51.28.98.38 1.41.3a.6.6 0 0 0 .4-.09l.26.01-.09.05c-.04.02-.05.05-.03.1l.04.1-.25.11a1.1 1.1 0 0 1-.64.17.4.4 0 0 1-.26-.12c-.1-.1-.26-.15-.46-.13-.14.01-.15.06-.04.14.13.08.28.12.44.13.1.01.16.05.2.14.05.12.14.16.25.13a.56.56 0 0 1-.2.1l-1.43-.22-.71-.31c-.1-.05-.17-.02-.18.09-.04.21-.02.44.05.66a.9.9 0 0 0-.3.03 2.53 2.53 0 0 0-1.03-1.43.41.41 0 0 0-.27-.08c-.3.03-.61.14-.96.33-.2-.5-.5-.94-.87-1.3.17-.34.23-.55.14-.96-.31-1.36.28-2.22 1.76-2.58 1.52.1 2.24.87 2.15 2.33ZM19.29 20.43c-.7.24-1.21.09-1.51-.47-.34-.62-.2-1.28.57-1.47.54-.13 1.26.36 1.58.72a.44.44 0 0 1 0 .6l-.4.46a.53.53 0 0 1-.24.16Z" fill="#0C1831"/><path d="M32.05 19.01c.1.14.23.27.39.37l.36.78c-.12 0-.2-.03-.26-.1a2.27 2.27 0 0 0-1.72-.37.44.44 0 0 0-.37.43v1.22c0 .07-.03.1-.1.07-.08-.03-.13-.04-.18-.02a.73.73 0 0 0-.23.16c-.26.33-.55.62-.85.85a.28.28 0 0 1-.4-.06.26.26 0 0 1-.03-.14l-.02-.94c.13.8.32.58.59-.65.06-.25-.02-.59-.21-1-.07-.14-.1-.41-.1-.82 0-.1.06-.16.17-.16.12 0 .25.05.38.14.01.1.05.2.1.27 0 .11.02.19.07.23.07.06.1.05.11-.05a.92.92 0 0 1 .22-.56c.1-.12.26-.19.46-.19.6 0 1.15.17 1.62.54Z" fill="#EDD79E"/><path d="M21.54 19.69c-.11.12-.26.22-.46.3l-1.05-.95c-.02-.02-.01-.08.03-.19l.04-.1c.01-.03.05-.03.1.01l1.34.93Z" fill="#8DA5B1"/><path d="M36.5 19.08c-.08.1-.01.2.2.28a.18.18 0 0 0 .18-.04c.04-.03.05-.08.03-.14 0 .22.06.42.18.61.16.26.24.45.23.56-.02.24-.16.48-.43.72 0-.31-.08-.64-.23-.99a.26.26 0 0 0-.1-.12.27.27 0 0 0-.3 0 .27.27 0 0 0-.1.1.51.51 0 0 0-.03.4c.06.21.1.42.13.64-.3 0-.46-.16-.48-.46 0-.1-.04-.18-.11-.25-.3-.3-.68-.55-1.14-.77l.57-.15c.1-.02.17-.08.2-.18.06-.17-.02-.29-.25-.35.29-.13.52-.07.7.16.07.08.15.13.24.16.22.06.39 0 .51-.18Z" fill="#377285"/><path d="M35.05 18.94c.23.06.31.18.25.35-.03.1-.1.16-.2.18l-.57.15c.07-.43.25-.65.52-.68Z" fill="#9EE3F7"/><path d="M36.9 19.18c.03.06.02.1-.02.14a.18.18 0 0 1-.19.04c-.2-.08-.27-.17-.19-.28.23-.06.36-.03.4.1Z" fill="#838383"/><path d="M32.54 20.06c.28.94.34 1.9.2 2.9-.01.11.04.17.14.17h.28c.11 0 .2-.06.24-.16l.44-1.06c.37.35.66.78.87 1.3l-1.7.62c-.25.1-.26.2 0 .3l1.33.59c.1.04.15.1.17.2a.3.3 0 0 1 0 .16c-.04.09-.11.13-.21.13a.44.44 0 0 0-.31.07c-.55-.4-1.1-.5-1.65-.32-.42-.36-.87-.71-1.35-1.05-.46-.32-.9-.49-1.3-.5a2.29 2.29 0 0 0-1.43.4c-.36.23-.84.53-.97.92-.09.3-.23.56-.4.82a.47.47 0 0 0-.1.27c0 .54-.09 1.04-.27 1.49l-1.13-1.2c-.06-.07-.1-.06-.13.03a3.89 3.89 0 0 1-3.15 2.65.64.64 0 0 1-.2-.52 3.09 3.09 0 0 0 2.86-2.2.35.35 0 0 0-.02-.25l-.02-.07c-.05-.13-.02-.2.09-.22l.31-.07c.18-.04.18-.08 0-.12-.35-.1-.75-.14-1.21-.13-.2 0-.29-.12-.25-.34.16-.27.37-.48.63-.62.08-.05.12-.12.1-.2-.1-.59.08-1.1.52-1.54.55-.06.98.2 1.28.76.23.43.4.41.5-.06.06-.24-.02-.55-.25-.95a3.53 3.53 0 0 0-1.55-1.44c-.13-.06-.27-.25-.43-.55.7-.06 1.35.31 1.97 1.1.04.05.08.07.11.06.07-.02.09-.06.04-.12l-.8-1.14a.13.13 0 0 1 0-.15.18.18 0 0 1 .05-.06c.08-.07.17-.08.26-.03l.36.2c.52.64.84 1.34.99 2.1 0 .04.04.06.09.05l.28-.07.03-.01.02-.03v-.05c-.28-.57-.17-1.02.31-1.34.1-.06.17-.08.23-.05.08.03.13.1.17.23l.05.24c0 .02 0 .04.02.06v.94c0 .05.02.1.05.14l.1.1a.28.28 0 0 0 .3-.04c.3-.23.58-.52.84-.85.03-.04.1-.1.24-.16.04-.02.1-.01.16.02.08.03.11 0 .11-.07v-1.21c0-.1.04-.2.1-.29a.45.45 0 0 1 .27-.15c.61-.1 1.18.02 1.72.37Z" fill="#F1EEAE"/><path d="M36.9 21.07c-.2.27-.4.28-.64.03a3.77 3.77 0 0 0-.13-.64.51.51 0 0 1 .03-.4.27.27 0 0 1 .26-.15c.05 0 .1.02.14.05.05.03.08.07.1.12.15.35.22.68.23.99Z" fill="#ECB8A7"/><path d="M30.87 20.95a.47.47 0 0 0-.01.1.1.1 0 0 1-.03.05.1.1 0 0 1-.05.04.1.1 0 0 1-.12-.06c-.09-.19-.11-.4-.07-.66.02-.1.08-.17.18-.2.54-.2.95 0 1.22.54 0 .02.03.06.09.14.03.05.03.11-.02.17-.06.1-.13.1-.18 0-.13-.26-.4-.35-.8-.3a.23.23 0 0 0-.2.18Z" fill="#7E6654"/><path d="M14.18 20.4a.7.7 0 0 0 .2.03l-1.33 3.34c-.1.25-.03.3.2.16l.97-.57 1.18.1a4.1 4.1 0 0 0-.83 0c-.27.02-.52.11-.73.28a19.46 19.46 0 0 0-1.06.87.1.1 0 0 1-.06-.01.1.1 0 0 1-.05-.1c.28-1.42.79-2.79 1.51-4.1Z" fill="#838383"/><path d="M38.51 23a2.83 2.83 0 0 1-1.04-1.04.3.3 0 0 1-.01-.27l.43-1c.4.73.6 1.5.62 2.3Z" fill="#82E6E7"/><path d="M24.92 22.5c.17-.53.17-1.1-.02-1.68.67.32 1.19.8 1.55 1.44.23.4.31.7.26.95-.11.47-.28.5-.5.06-.3-.56-.74-.82-1.3-.76Z" fill="#ECB8A7"/><path d="M20.36 21.06c-.01.48-.1.65-.28.51-.83-.1-1.3.3-1.95.72-.1.06-.16.04-.2-.07-.02-.06 0-.12.07-.19a2.8 2.8 0 0 1 2.36-.97ZM20.16 21.92c.23.39.15.77-.22 1.16-.96.33-1.87.74-2.73 1.25-.03.02-.09.02-.16 0-.1-.03-.11-.07-.02-.13l2.05-1.34c.04-.04.1-.06.14-.07.3-.08.52-.17.7-.28.18-.12.16-.19-.05-.2a2.66 2.66 0 0 0-.86.05.09.09 0 0 1-.1-.06v-.09c0-.03.02-.04.03-.05l1.22-.24Z" fill="#E0F3F3"/><path d="m36.97 24.38.07.58c0 .1 0 .19-.05.27l-.37.75a6.26 6.26 0 0 1-2.63-.7.44.44 0 0 1 .3-.07c.1 0 .18-.04.21-.13a.3.3 0 0 0 .01-.15.27.27 0 0 0-.17-.21L33 24.13c-.25-.1-.24-.2.01-.3l1.7-.63c.35-.2.67-.3.96-.33.1 0 .19.02.27.08.51.34.85.82 1.03 1.43Z" fill="#B0CEA1"/><path d="m24.11 23.35-.26.59c-.04.09-.08.08-.12 0-.15-.38-.06-.62.26-.73.14-.04.19 0 .12.14Z" fill="#7E6654"/><path d="M15.8 23.78a.43.43 0 0 0 .04-.07c.04-.06.02-.1-.05-.12l-.25-.08h1.57c.04 0 .06.02.06.06l-.04.07a3.95 3.95 0 0 1-1.34.14Z" fill="#1C3344"/><path d="M40.25 23.57c.05.15.09.2.12.17l-.09.1c-.09.09-.07.15.06.18 1.25.28 2.18 1.3 2.8 2.34.05.06.27.24.67.52.12.08.18.2.18.34v.25a.11.11 0 0 1-.06.1.12.12 0 0 1-.12-.01c-.44-.33-.7-.57-.78-.73a4.79 4.79 0 0 0-2.14-2.31c-.3-.14-.58-.3-.85-.45-.05-.06-.15-.07-.3-.04-.11.03-.2-.01-.25-.13a.22.22 0 0 0-.2-.14.87.87 0 0 1-.44-.13c-.11-.08-.1-.13.04-.14.2-.02.35.03.46.13.07.07.16.11.26.12.21.01.43-.04.64-.17Z" fill="#8DA5B1"/><path d="M40.5 23.46c1.38-.07 2.38 1.04 3.14 2.04.2.26.3.52.3.78 0 .12-.05.14-.13.05-.44-.5-.77-1.29-1.41-1.82a3.2 3.2 0 0 0-2.03-.77c-.03.03-.07-.02-.12-.17l.25-.1ZM19.48 23.76c-.17.36-.43.6-.79.72a.42.42 0 0 0-.16.1l-.86.77h-.26a.67.67 0 0 0-.24.05c-.89.38-1.52.88-1.9 1.5-.27.46-.57.93-.88 1.4-.18-.07-.29-.13-.33-.2.37-.51.72-1.04 1.05-1.6.26-.4.65-.78 1.17-1.1.22-.1.44-.17.65-.21.07-.02.12-.05.14-.1.05-.1.02-.14-.09-.14-.18-.01-.32-.07-.4-.16-.17-.08-.28-.15-.3-.23-.04-.09-.02-.14.07-.16.13-.03.24.02.32.15.06.08.14.12.24.12.13 0 .26.05.37.17.07.07.14.1.22.1.14-.02.23-.05.26-.1.08-.1.05-.17-.07-.2l-.12-.02a.1.1 0 0 1-.07-.09v-.06l.05-.05c.1-.08.22-.1.35-.06.1.03.18.01.26-.05.4-.29.84-.47 1.32-.55Z" fill="#9AC4E2"/><path d="M29.28 24.48c-.03.3-.1.6-.23.9-.2-.2-.42-.32-.66-.38a.32.32 0 0 0-.26.05l-.43.28c-.12.09-.17.05-.15-.1.13-.71.43-.75.77-1.26a1 1 0 0 1 .91-.14c.1.02.13.08.1.17a.75.75 0 0 0-.05.48Z" fill="#E0F3F3"/><path d="M39.54 24.12c-.52.32-1 .25-1.43-.21l1.43.21Z" fill="#3E4844"/><path d="M29.6 24.36c-.03.02-.05 0-.04-.04.06-.24.2-.36.41-.36.4.01.42.1.04.27l-.4.13Z" fill="#838383"/><path d="M13.28 25.2c-.3.33-.6.69-.87 1.06-.08.1-.14.09-.18-.02-.03-.08-.01-.17.06-.28a7.9 7.9 0 0 1 1.65-1.82c.1-.09.2-.12.27-.1.12.04.13.1.04.18-.34.3-.67.63-.97.97Z" fill="#4D6095"/><path d="m14.85 24.65-.29-.03c-.06-.01-.1-.05-.1-.11v-.08c0-.03.02-.04.04-.05.18-.02.3.02.39.1.1.13.1.19-.04.17Z" fill="#747DAD"/><path d="M37.27 24.35c.26.13.29.36.08.7a.31.31 0 0 0-.04.27c.14.52.05 1-.28 1.42a7.45 7.45 0 0 1-2.18 1.7c.61-.66 1.13-1.2 1.55-1.64.25-.25.27-.49.23-.82l.36-.75a.48.48 0 0 0 .05-.27l-.07-.58c.1-.03.2-.04.3-.03Z" fill="#3E4844"/><path d="M31.99 25.98c-1.7.58-2.41 1.56-3.63 3.08l-.3-1.8.31-.73c.05-.1.13-.15.25-.14l.2.01c.48.03.52-.1.13-.38-.2-.15-.17-.37.1-.65.13-.29.2-.58.23-.89.19-.01.35.1.48.33.05.1.11.1.19.03l.13-.13a.25.25 0 0 1 .27-.06c.03.02.06.03.08.06l.27.26c.06.06.13.09.21.1.58.03.94.34 1.08.91Z" fill="#F1EEAE"/><path d="M40.78 24.86c.08.2.08.37-.02.5l-.52-.65c.05-.14.23-.1.54.15Z" fill="#9AC4E2"/><path d="M39.74 24.94c-.07.06-.08.1-.06.09a.57.57 0 0 0-.45 0 .51.51 0 0 1-.29.03c-.16-.02-.33-.09-.5-.2-.1-.05-.2-.04-.28.04l-.22.21c-.07.07-.1.06-.1-.04 0-.07.02-.13.08-.19a.23.23 0 0 1 .11-.06 7.7 7.7 0 0 1 1.4-.1c.08 0 .15.03.2.1l.1.12Z" fill="#838383"/><path d="M16.28 25.4a.53.53 0 0 0-.09-.17c.03.04.07.04.1 0 .04-.05.04-.1 0-.13l-.16-.13c.32.07.47 0 .45-.18.08.1.22.15.4.16.1 0 .14.05.1.14-.03.05-.08.08-.15.1-.21.04-.43.11-.65.2Z" fill="#747DAD"/><path d="M23.67 24.87c-.04.22.04.34.25.34.46 0 .86.04 1.21.13.18.04.18.08 0 .12l-.31.07c-.11.02-.14.1-.1.22l.03.07c.04.09.04.17.02.25a3.09 3.09 0 0 1-2.85 2.2l-.1-.61c.86 0 1.55-.33 2.06-1 .12-.15.09-.19-.1-.1-.13.05-.28.15-.44.27a.66.66 0 0 1-.24.13.6.6 0 0 1-.26.01.47.47 0 0 1-.22-.1.4.4 0 0 1-.12-.2c-.08-.26-.33-.36-.78-.3-.02.01-.03 0-.04-.01l-.05-.08c-.05-.07-.03-.1.05-.1.31.01.5 0 .57-.01.6-.16.6-.3 0-.44l-1.1-.23c.26-.29.55-.5.88-.63a.26.26 0 0 1 .3.06l.52.52c.06.06.1.05.15-.01.17-.29.4-.48.67-.57Z" fill="#ECB8A7"/><path d="M33.99 25.28c.84.43 1.72.67 2.63.7.05.33.03.57-.22.82-.42.43-.94.98-1.55 1.64a5.97 5.97 0 0 1-2.5-3.48c.54-.19 1.09-.08 1.64.32Z" fill="#73CBC2"/><path d="m41.62 26.93-.86-1.56c.1-.14.1-.31.02-.51.39-.02.72.21 1 .7l.84 1.47c.28.5.71.81 1.17 1.1a.44.44 0 0 1 .21.37v.2a.12.12 0 0 1-.07.11.13.13 0 0 1-.14-.02c-.52-.45-1.1-1-1.47-1.74-.25-.49-.57-1.03-.96-1.6a.07.07 0 0 0-.07-.04h-.14c-.08 0-.1.04-.05.1.34.47.56.8.75 1.3.29.79.47 1.22.54 1.3l1.27 1.2c.18.16.25.3.22.43-.1.36-.2.36-.3 0-.03-.12-.14-.25-.33-.4a4.34 4.34 0 0 1-1.63-2.4Z" fill="#8DA5B1"/><path d="m16.13 24.97.15.13c.05.03.05.08.02.12-.04.05-.08.05-.1 0-.72.28-1.3.76-1.76 1.44-.1.04-.17.04-.23-.02-.03-.03-.05-.09-.05-.17a5.1 5.1 0 0 1 1.45-1.42l.52-.08Z" fill="#9AC4E2"/><path d="M39.74 24.94c.54.36.93.86 1.16 1.5.05.3-.04.5-.29.6a3.44 3.44 0 0 0-.93-2.01c-.02 0 0-.03.06-.09Z" fill="#9EE3F7"/><path d="M38.22 26.06c.15.14.14.3-.02.47-.06.07-.06.13 0 .19.26.24.47.3.65.18.1-.08.18-.06.26.03l.17.2.52.62c-.15.19-.27.24-.36.17l-.42-.59a.34.34 0 0 0-.25-.14 1.18 1.18 0 0 1-.42-.13.62.62 0 0 1-.3-.29c-.34-.73-.16-1.27.55-1.63.13-.07.16-.04.09.08a.74.74 0 0 1-.33.3c-.22.12-.27.3-.14.54Z" fill="#838383"/><path d="M28.46 25.29a.14.14 0 0 1 .12.02c.04.02.02.08-.04.16a.13.13 0 0 1-.13.05.13.13 0 0 1-.1-.09c-.02-.06.03-.1.15-.14Z" fill="#B0CEA1"/><path d="M39.59 25.51h-.21a.1.1 0 0 1-.09-.05.09.09 0 0 1 .02-.1c.06-.06.12-.1.16-.1.05 0 .1.03.12.07l.04.14c0 .01 0 .02-.02.03l-.02.01Z" fill="#8DA5B1"/><path d="m17.58 25.39-.88 1.35c-.72.59-.98 1.3-.8 2.12.06.26.12.26.19 0 .07-.32.2-.56.39-.7.4 1.96 1.6 3.67 3.6 5.14.05.14.15.32.32.51l-.04 1.32-.37-.05c.11-.38.13-.75.06-1.12a.48.48 0 0 0-.14-.25 22.21 22.21 0 0 1-3.05-3.56l-.07.07c-.02.03-.03.06-.01.1a9.45 9.45 0 0 0 2.82 3.52c.2.17.27.48.18.95l-.3-.08c.04-.27.02-.44-.07-.53-.7-.7-1.35-1.37-1.94-2.01-.08-.1-.12-.08-.12.04v.52a.59.59 0 0 0 .18.43l1.86 1.78c-.16.08-.36.1-.6.09-.12-.02-.18.04-.18.16v.15c0 .13.06.17.18.14a.24.24 0 0 0 .15-.11.2.2 0 0 1 .19-.1c.07 0 .13.02.2.06.06.04.1.12.12.25.04.3.05.61.02.9l-.1-.4c0-.03-.03-.04-.05-.05h-.09c-.05 0-.09.02-.09.08l-.04.56c-.1.42-.25.62-.48.6l-.09-1c.14-.32.07-.59-.2-.79a.48.48 0 0 0-.3-.09h-.2a.18.18 0 0 1-.17-.15l-.08-.48a3.16 3.16 0 0 0-.74-.89c-.1-.09-.15-.07-.15.07 0 .36.2.62.57.77.03.02.06.04.07.07.02.03.02.07.01.1-.03.13-.14.18-.32.16-.12-.02-.19.03-.21.14-.13.5-.08 1.02.12 1.54-.34-.25-.51-.56-.5-.91.02-.9 0-1.8-.06-2.67.13-.93.12-1.87-.04-2.82 0-.02-.01-.02-.03-.02a.16.16 0 0 0-.07.04c-.02.02-.02.05-.02.09-.01.74-.07 1.53-.18 2.38l-.23-2.88c0-.1-.05-.13-.14-.1a.91.91 0 0 0-.47.43l-.45.38a.1.1 0 0 1-.16-.05c-.01-.06 0-.12.05-.2.11-.17.35-.46.72-.85.06-.07.1-.16.11-.26l.1-1.24c.15-.18.24-.39.28-.63 0-.04-.01-.06-.05-.06h-.11a.1.1 0 0 0-.1.07l-.16.57a4.6 4.6 0 0 1-1.23 1.78c-.1-.07-.14-.13-.14-.17.43-.56.69-.97.78-1.22a5.05 5.05 0 0 1 2.75-3Z" fill="#9AC4E2"/><path d="m21.15 25.5 1.1.23c.6.13.6.28 0 .44-.07.02-.26.02-.57.01-.08 0-.1.03-.05.1l.05.08.04.02c.45-.07.7.03.78.3a.4.4 0 0 0 .12.19c.06.05.13.08.22.1a.6.6 0 0 0 .26-.01.66.66 0 0 0 .24-.13c.16-.12.3-.22.45-.28.18-.08.2-.04.09.12-.51.66-1.2 1-2.06.99a3.8 3.8 0 0 0-1.73-1.89v-.02a.06.06 0 0 1 .01-.06l.08-.07a.1.1 0 0 1 .12-.02l.58.25c.06.03.11.01.14-.05l.13-.3Z" fill="#838383"/><path d="M39.42 25.85c.07.33-.03.53-.29.61-.33.1-.53-.06-.6-.5.02-.21.15-.34.38-.4.23-.05.4.05.51.29Z" fill="#F1EEAE"/><path d="M28.32 25.9c.07 0 .11.03.14.08v.03a.03.03 0 0 1-.04.01c-.16-.06-.3-.16-.42-.28-.05-.05-.06-.09-.02-.1l.04-.03c.05-.02.08-.01.1.02l.14.23a.09.09 0 0 0 .06.03Z" fill="#ECB8A7"/><path d="M39.84 26.49a1.22 1.22 0 0 1-.2-.59c0-.1.01-.18.05-.22.05-.07.1-.06.13.02.11.26.12.53.02.79Z" fill="#838383"/><path d="M39.65 25.9c.01.22.07.41.19.59-.11.12-.04.26.22.41-.12.04-.2.1-.21.2-.33-.28-.52-.27-.57.04l-.17-.21c-.08-.1-.16-.1-.26-.03-.18.12-.4.06-.65-.18-.06-.06-.06-.12 0-.19.16-.17.17-.33.02-.47.11.05.21.02.3-.1.08.44.28.6.61.5.26-.08.36-.28.3-.61l.22.05Z" fill="#3E4844"/><path d="M26.51 27.3c-.33.5-.68 1-1.03 1.49a6.48 6.48 0 0 1-1.94 1.77c-.1.07-.2.05-.27-.06l-1.16-1.71a3.89 3.89 0 0 0 3.15-2.65c.03-.09.07-.1.13-.03l1.12 1.2Z" fill="#ECB8A7"/><path d="M32.29 26.72c-1.5.82-2.48 1.33-3.28 2.68l-.25.22-.44-.23.04-.33c1.22-1.52 1.92-2.5 3.63-3.08.14.19.24.44.3.74Z" fill="#EDD79E"/><path d="M41.43 27.12c.14.52.3 1.05.48 1.57.22.64.6 1.02 1.17 1.15.2.04.37.15.49.31.1.17.16.37.13.56a14.83 14.83 0 0 1-8.17 11.35l-.05-.07a.01.01 0 0 1 0-.01l2.09-1.4a.1.1 0 0 0 .03-.04.1.1 0 0 0 .01-.04v-6.35c0-.14.05-.25.14-.35l2.38-2.48c.23-.1.25-.42.09-.96.04-.23 0-.37-.12-.4.21-.09.28-.16.2-.22v-1.82c0-.1-.02-.19-.08-.27l-.37-.56c.02-.09.09-.15.2-.19l.34.47c.08.11.15.1.2-.02a.5.5 0 0 0 .02-.32c.25-.1.34-.29.3-.58.3.13.47.35.52.67Z" fill="#8DA5B1"/><path d="M14.16 26.47c0 .08.02.14.05.17.06.06.14.06.23.02a6 6 0 0 1-2.3 2.24.14.14 0 0 1-.12-.07.13.13 0 0 1-.02-.06v-.27a.42.42 0 0 1 .3-.4 3.66 3.66 0 0 0 1.86-1.63Z" fill="#4D6095"/><path d="m16.7 26.74-.22 1.42c-.19.14-.32.38-.4.7-.06.26-.12.26-.18 0-.18-.82.08-1.53.8-2.12Z" fill="#377285"/><path d="M34.25 30.13a3.53 3.53 0 0 1-1.73-.6c-.23-.17-.35-.29-.37-.36-.18-.54-.34-.53-.47.04a7.6 7.6 0 0 0-.14 1.22.33.33 0 0 1-.13.24l-.32.26a.88.88 0 0 1-.68.21c0-.2.06-.32.2-.34.43-.06.63-.27.6-.62 0-.1-.03-.17-.1-.23-.3-.27-.51-.57-.64-.9a.4.4 0 0 0-.36-.25.39.39 0 0 0-.22.07.37.37 0 0 0-.15.17l-.06.17c-.03.1-.1.13-.22.1-.19-.08-.34-.05-.45.1.8-1.36 1.79-1.87 3.28-2.69.2.51.39 1.04.57 1.58.18.53.64 1.14 1.4 1.83Z" fill="#B0CEA1"/><path d="m28.07 27.25.29 1.81-.04.33c.03.3-.04.53-.2.66a.7.7 0 0 0-.16.23c-.33.72-.48 1.49-.46 2.3 0 .03-.01.05-.05.05H27.35v-.02a.93.93 0 0 0-.1-.49c-.05-.12-.1-.13-.18 0a.93.93 0 0 0-.1.53l-.1.04c-.1.05-.16.01-.16-.1v-.18c0-.19-.05-.2-.15-.03a6.69 6.69 0 0 1-3.96 3.14c-.29.1-.66.13-1.13.13-.59 0-.98.04-1.19.14-.1.04-.16.02-.21-.07a.18.18 0 0 0-.09-.09c-.1-.05-.17-.02-.19.09-.02.12 0 .25.06.4l-.1 2.27-.27-.23V36.5c.02-.3.01-.6-.03-.91-.02-.13-.06-.21-.12-.25a.42.42 0 0 0-.2-.06.2.2 0 0 0-.19.1.24.24 0 0 1-.15.11c-.12.03-.18-.01-.18-.14v-.15c0-.12.06-.17.18-.16.24.02.44-.01.6-.1a.4.4 0 0 0 .09-.22l.3.08c0 .1.01.17.05.24 0 .03.03.05.05.07.08.04.11.04.1-.02l.38.05a.7.7 0 0 0 .25.06c2.86.14 4.84-1.05 5.93-3.58.2-.5.14-1.06-.19-1.72.43-.97 1-1.85 1.72-2.64Z" fill="#E0F3F3"/><path d="M15.56 28.04c.04-.1 0-.12-.14-.05l.16-.57a.1.1 0 0 1 .04-.05.1.1 0 0 1 .06-.02h.1c.05 0 .07.02.06.06a1.3 1.3 0 0 1-.28.63Z" fill="#377285"/><path d="M39.21 28.3c.22 1.52.16 1.85-.18.99l.06-.79c0-.1-.03-.18-.1-.25l-.79-.78v-.04l.07-.06h.03c.4.22.7.54.91.94Z" fill="#747DAD"/><path d="M37.76 27.65h-.4c-.03 0-.05 0-.07-.02a.09.09 0 0 1-.01-.12.09.09 0 0 1 .06-.03c.36-.06.52-.02.5.11 0 .02-.01.03-.03.05a.08.08 0 0 1-.05.01Z" fill="#295569"/><path d="M40.31 29.74c.07.06 0 .13-.21.21l-.63.95-.44-1.61c.34.86.4.53.18-.98.13.03.2-.1.23-.4.09.08.2.03.36-.16.13.58.2 1.2.22 1.84 0 .08.02.14.06.17.06.03.13.03.23-.02Z" fill="#377285"/><path d="m15.56 28.04-.1 1.24a.44.44 0 0 1-.11.26c-.37.4-.6.68-.72.86-.05.07-.06.13-.05.19a.1.1 0 0 0 .06.07.1.1 0 0 0 .1-.02l.45-.38c.14.55.2 1.1.15 1.66-.01.1-.07.15-.18.13a.6.6 0 0 1-.2-.09.48.48 0 0 0-.04-.15.18.18 0 0 0-.12-.1.18.18 0 0 0-.16.04c-.32.27-.3.56.05.86.02.02.05.03.07.03l.09-.01c.07-.04.1-.11.12-.22l.1-.07c.1-.07.16-.05.2.07.12.46.09.85-.1 1.16l-.19-.13c-.08-.06-.14-.04-.18.06a.58.58 0 0 1-.15.24l-.3-.08c-.47-.98-.78-2.02-.93-3.12a.25.25 0 0 1 .1-.25l.67-.52A4.6 4.6 0 0 0 15.42 28c.13-.07.18-.06.14.05Z" fill="#0C1831"/><path d="M37.98 27.8a14.76 14.76 0 0 1-1.76 3.24l.01.06a.1.1 0 0 0 .1.05l1.57-.3-1 1.23a.23.23 0 0 1-.23.09c-.12-.02-.21 0-.28.06-.34.36-.7.53-1.06.52a.18.18 0 0 0-.1.03l-.14.1a.43.43 0 0 1-.23.07c-.28 0-.57.05-.88.14a2 2 0 0 1-.96-.02c-.84-.2-1.6-.5-2.29-.9a4.81 4.81 0 0 1-.5-.43 1.15 1.15 0 0 0-.62-.3l-.09-.04a.09.09 0 0 1-.05-.09c0-.02 0-.03.02-.05a.09.09 0 0 1 .05-.03c.45-.12.7-.05.75.23.04.23.17.4.37.5.05.03.1.04.14.03.05 0 .1-.03.13-.06.11-.1.24-.17.39-.2.11-.04.15-.1.1-.21a.44.44 0 0 0-.2-.2v-.17c-.01-.18.04-.2.14-.05a3.7 3.7 0 0 0 2.1 1.44c.5.13.9.04 1.32-.1.36-.1.36-.22.01-.35-.1-.03-.27-.06-.5-.09-.02 0-.03-.01-.03-.03v-.09c0-.05.03-.07.08-.08l.86-.11c.31-.04.31-.09 0-.13-1.11-.16-1.8-.99-2.68-2.03.52.35 1.1.55 1.73.6.15.02.28 0 .37-.08.99-.77 2.11-1.53 3.36-2.26Z" fill="#73CBC2"/><path d="m41.6 30.13-.01 2.09c0 .04.02.07.07.07h.1c.04 0 .06-.02.06-.06v-1.08c0-.13.06-.17.18-.11a.4.4 0 0 0 .17.05c.04 0 .07-.03.08-.07a1.9 1.9 0 0 0 .07-.67.06.06 0 0 0-.04-.04h-.02c-.34.03-.48-.04-.45-.21a2.7 2.7 0 0 0-.43-.91c-.25-.35-.24-.62-.15-.99.04-.2.09-.2.14 0 .19.79.65 1.42 1.38 1.88.08.06.12.13.1.23-.28 1.85-.8 3.49-1.55 4.91-.01.03-.06.09-.15.19s-.14.16-.14.18a7.66 7.66 0 0 1-1.11 1.79c-.07.08-.05.13.05.15l.07.03c.02 0 .03 0 .04-.02a14.5 14.5 0 0 0 2.98-6.86c.01-.1.07-.15.18-.15h.1a.08.08 0 0 1 .09.1 14.32 14.32 0 0 1-4.03 8.35c-.24.25-.36.2-.36-.14v-4.9c0-.16.05-.3.17-.4l.26-.27c.12-.12.19-.09.19.08v1.57c0 .03 0 .06.03.08.02.02.04.03.07.03h.13c.05 0 .07-.03.07-.08l-.08-2.02a.24.24 0 0 1 .1-.21.25.25 0 0 1 .25-.02c.04.03.09.04.15.03.11 0 .17-.06.17-.18v-.91l.03-.03h.05a3.66 3.66 0 0 1 .14.07c.02 0 .03.03.05.07.16.55.17 1.09.03 1.63-.03.1-.07.1-.13.01a.51.51 0 0 0-.16-.17.25.25 0 0 0-.22-.01.25.25 0 0 0-.15.16.48.48 0 0 0 0 .33c.05.1.12.13.23.1a.81.81 0 0 1 .34-.03c.11.02.17.08.17.19l.03 1.15v.02l.07.06c.02.02.04.02.04-.02.08-.82.1-1.61.1-2.38-.01-.36-.09-.9-.24-1.62a4.41 4.41 0 0 1 0-1.77c.02-.1.07-.12.15-.05.26.22.44.47.54.78Z"/><path d="M14.06 28.1c.04.07.15.13.33.2-.36.4-.78.74-1.27 1.06-.25.17-.44.34-.54.5-.1.16-.19.34-.27.55-.06.14-.12.14-.18 0-.21-.44.03-.93.47-1.23.5-.34.98-.7 1.46-1.08Z" fill="#4D6095"/><path d="m37.98 27.8.3.66c.13.28.2.5.19.7-.02.34-.11.69-.29 1.03l-.28.67-1.56.29a.1.1 0 0 1-.1-.05.1.1 0 0 1 0-.11c.6-.8 1.19-1.87 1.74-3.2Z" fill="#82E6E7"/><path d="M30.41 31.14a.45.45 0 0 0-.12.32c-.05-.28-.3-.35-.75-.23a.1.1 0 0 0-.05.03.09.09 0 0 0 .03.14l.1.04a.4.4 0 0 0-.19.23c-.01.07.01.16.08.25 1.4 2.02 3.94 2.38 6.13 1.5a5.81 5.81 0 0 0 2.64-2.15c.31-.4.47-.76.48-1.1 0-.06.02-.1.07-.12h.08a.6.6 0 0 1 .2.24c.04.08.04.17 0 .23A7.34 7.34 0 0 1 37 33l-1.34.77-2.08.5a.23.23 0 0 1-.23-.06c-.1-.1-.26-.15-.5-.16-.3-.01-.48-.03-.53-.04a5.42 5.42 0 0 1-3.08-2 1.78 1.78 0 0 0-.88-.77c.18-.12.23-.24.15-.37-.33-.48-.25-.9.25-1.24l.25-.22c.11-.14.27-.17.45-.1.11.04.19.01.22-.09l.06-.17a.37.37 0 0 1 .15-.17.39.39 0 0 1 .44 0c.06.04.11.1.14.18.13.33.34.63.64.9.07.06.1.14.1.23.03.35-.17.56-.6.62-.14.02-.2.13-.2.34Z" fill="#838383"/><path d="M32.52 29.53c.88 1.04 1.57 1.87 2.68 2.03.31.04.31.09 0 .13l-.86.11c-.05 0-.07.03-.07.08v.09c0 .02 0 .03.02.03.23.03.4.06.5.1.35.12.35.24 0 .35-.43.13-.82.22-1.33.09a3.7 3.7 0 0 1-2.1-1.44c-.1-.15-.15-.13-.15.05v.17l-.12-.39.32-.26a.33.33 0 0 0 .13-.24c.02-.5.07-.9.14-1.22.13-.57.29-.58.47-.04.02.07.14.2.37.36Z" fill="#56938E"/><path d="m28.32 29.39.44.23c-.5.34-.58.76-.25 1.24.08.13.03.25-.15.37l-.32 3.3c0 .05-.03.08-.07.08l-.08.01a.28.28 0 0 0-.17.15l-.24.53c-.07.16-.1.15-.1-.02v-.42c0-.11-.06-.16-.18-.13-.12.02-.2.1-.25.25-.45.32-.83.68-1.12 1.08a.37.37 0 0 0-.07.22v1.12a.32.32 0 0 0 .12.24c.41.33.75.72 1 1.16-.38-.3-.72-.61-1.02-.95-.19-.2-.29-.4-.3-.57a4.18 4.18 0 0 1 0-.7c0-.11-.05-.16-.17-.13-.16.05-.27.18-.34.38a.25.25 0 0 1-.07.04c-.07.02-.11 0-.13-.06l-.08-.2 2.46-2.3a.1.1 0 0 0 .04-.08v-.17a.13.13 0 0 0-.07-.11.13.13 0 0 0-.13 0l-.52.35c-.13.1-.16.07-.08-.07.2-.34.24-.59.1-.75l.4-.83a.93.93 0 0 1 .1-.54c.07-.12.13-.11.19.01a.93.93 0 0 1 .08.5.02.02 0 0 0 .02.01h.09c.04 0 .05-.02.05-.06-.02-.8.13-1.57.46-2.3a.7.7 0 0 1 .17-.22c.15-.13.22-.35.19-.66Z" fill="#8DA5B1"/><path d="M14.05 29.6c0 .04.05.1.14.17l-.67.52a.25.25 0 0 0-.1.25c.15 1.1.46 2.14.93 3.12.05.26.12.43.21.52l.59 1.15c.21.18.4.47.56.88l.92 1.34c.03.05.02.07-.04.07H16.37a15.75 15.75 0 0 1-3.27-7 .07.07 0 0 0-.04-.03h-.18a.14.14 0 0 0-.1.05.13.13 0 0 0-.03.1 17 17 0 0 0 4.48 8.4l.14.14c.18.22.38.36.59.45l.45.46c.16.14.36.25.6.33.14.2.25.32.34.37a16.45 16.45 0 0 0 6.04 2.57c.2.05.64.09 1.3.13.43.02.86.1 1.27.23-.3.17-.7.22-1.16.15-.64-.15-1.29-.28-1.94-.4a13.5 13.5 0 0 1-1.9-.48c-4.74-1.71-8-4.96-9.78-9.74a9.57 9.57 0 0 1-.61-2.67c-.01-.1.02-.19.08-.26.37-.41.84-.68 1.4-.82Z" fill="#747DAD"/><path d="M16.03 32.8c-.06-.13-.04-.1.06.07l-.38 3.34c-.16-.4-.35-.7-.57-.88.15-.33.19-.68.12-1.04-.02-.1-.08-.17-.18-.19a.68.68 0 0 0-.52.08c-.09-.09-.16-.26-.2-.52l.29.08.04.19c0 .04.03.07.06.1.03.02.07.03.11.03l.19-.02c.06-.01.11-.06.15-.14a.31.31 0 0 0-.03-.33c.18-.3.22-.7.1-1.16-.04-.12-.1-.14-.2-.07l-.1.07a.36.36 0 0 1-.18-.06c-.1-.07-.1-.15-.01-.23l.18-.16a.6.6 0 0 0 .2.09c.11.02.17-.02.18-.13.04-.55 0-1.1-.15-1.66.11-.2.27-.34.47-.42.09-.04.14 0 .14.09l.23 2.88Z" fill="#295569"/><path d="M26.36 29.9c.32.65.39 1.22.18 1.7-1.1 2.54-3.07 3.73-5.93 3.6a.69.69 0 0 1-.25-.07l.04-1.32.09.83c.01.11.07.17.19.17h.6c.18 0 .22-.07.1-.21l-.47-.56c.14.02.22-.03.22-.15l.83.7c.08.07.17.1.27.07.87-.21 1.66-.6 2.34-1.17a.38.38 0 0 0 .14-.24c.05-.33 0-.54-.16-.65.77-.7 1.37-1.6 1.8-2.7Z" fill="#63A3ED"/><path d="M40.1 29.95c.12.04.16.18.12.41l-.49.75c-.5.75-.98 1.36-1.44 1.81l-.94.96a.4.4 0 0 0-.11.28v5.57c0 .21-.09.38-.25.52l-1 .82c-.02.02-.05.01-.07-.02v-.04l.93-.83a.36.36 0 0 0 .11-.27l-.05-4.32-.01-1.45c-.1-.07-.14-.14-.14-.22 0-.05.05-.1.13-.18.15-.11.27-.24.37-.38a8.81 8.81 0 0 0 2.2-2.46l.64-.95Z" fill="#9EE3F7"/><path d="M41.81 30.1c-.03.17.11.24.45.21a.06.06 0 0 1 .06.04v.02c.02.21 0 .43-.07.65 0 .04-.04.07-.08.07a.4.4 0 0 1-.17-.05c-.12-.06-.18-.02-.18.1v1.09c0 .04-.03.06-.07.06h-.1c-.04 0-.06-.03-.06-.07l.01-2.1.21-.02Z" fill="#838383"/><path d="M38.18 30.19c.14.12.17.23.08.33a.93.93 0 0 0-.22.55c0 .07.08.13.24.2a5.81 5.81 0 0 1-2.64 2.14c-2.19.9-4.73.53-6.13-1.49-.07-.1-.1-.18-.08-.25a.4.4 0 0 1 .18-.23c.23.03.44.13.62.3.26.24.43.38.5.43.7.4 1.45.7 2.29.9a2 2 0 0 0 .96.02c.31-.09.6-.13.88-.14.08 0 .16-.03.23-.07l.14-.1a.18.18 0 0 1 .1-.03c.37.01.72-.16 1.06-.52.07-.06.16-.08.28-.06.1.02.17-.01.23-.09l1-1.22.28-.67Z" fill="#1C3344"/><path d="M16.37 33.14a.43.43 0 0 1-.28-.27c-.1-.18-.12-.2-.06-.06.1-.85.17-1.64.18-2.38 0-.04 0-.07.02-.09a.16.16 0 0 1 .07-.04c.02 0 .03 0 .03.02.16.95.17 1.9.04 2.82Z" fill="#747DAD"/><path d="M22.33 32.67c-.61.23-1.18.3-1.71.23-.28-.04-.32.04-.14.25l.64.74c0 .12-.07.17-.21.15l-.8-.85-.4-.58a.37.37 0 0 1-.05-.27l.36-1.93c0-.03.01-.05.03-.07a.13.13 0 0 1 .2 0l2.08 2.33Z" fill="#9EE3F7"/><path d="m15.71 36.2.38-3.33c.04.13.13.22.27.27.07.88.1 1.77.07 2.67-.01.35.16.66.5.9.42.82.6 1.6.51 2.35 0 .07-.05.1-.12.1-.03 0-.06 0-.1-.02a17 17 0 0 1-4.47-8.45.13.13 0 0 1 .07-.1h.24l.05.01.02.05a15.75 15.75 0 0 0 3.24 6.96l.05.01h.16c.07 0 .08-.02.05-.07l-.92-1.34Z" fill="#162031"/><path d="m31.09 30.93.12.4c.1.05.18.11.2.19.06.1.02.17-.1.2a.96.96 0 0 0-.38.21.24.24 0 0 1-.27.04.68.68 0 0 1-.37-.5c0-.14.04-.24.12-.33.24.03.47-.04.68-.2Z" fill="#295569"/><path d="m17.22 33.24 1.1 1.1c.45.5.39.57-.2.22-.38-.22-.8-.61-1.27-1.19a.42.42 0 0 1-.1-.27v-1.81c0-.07.03-.08.09-.04l.1.09.05.05.1 1.57c.01.1.05.2.13.28ZM35.66 33.76c.08.62-.32.86-1.18.7a.97.97 0 0 0-.33 0 .48.48 0 0 0-.25.13.3.3 0 0 1-.27.06c-.44-.1-.81.02-1.12.37l-.94-.01c-.1 0-.18.04-.23.12l-.46.66c-.25.28-.36.63-.35 1.05 0 .1-.04.13-.13.07a.76.76 0 0 0-.53-.12c-.11.01-.2-.03-.25-.14-.04-.1-.02-.22.08-.34a.46.46 0 0 0 .01.24c.03.08.08.13.16.15.05.01.1.01.14 0 .11-.03.14-.1.1-.2-.07-.2-.2-.28-.36-.24l1.45-1.4a.18.18 0 0 0-.13-.32h-.82c-.08 0-.13.05-.14.13l-.12.94c-.02.11-.08.14-.19.08-.92-.47-1.44.39-1.79 1.07-.23-.04-.47.01-.73.15-.1-.03-.14-.1-.11-.21l.2-.33c.06-.11.14-.13.25-.06l.19.12c.11.08.14.05.1-.08-.08-.2-.27-.3-.59-.33-.05-.45-.18-.8-.37-1.04.05-.14.13-.23.25-.25.12-.03.18.02.18.13v.42c0 .17.03.18.1.02l.24-.53a.28.28 0 0 1 .25-.16c.04 0 .06-.03.07-.07l.32-3.3c.3.1.6.35.88.76.61.9 1.64 1.57 3.08 2 .05.01.23.03.53.04.24.01.4.07.5.16.07.06.14.08.23.06l2.08-.5Z" fill="#1C3344"/><path d="M40 32.49a.71.71 0 0 1-.37-.1l.51-.58c.09-.1.14-.08.15.04a.63.63 0 0 1-.28.64Z" fill="#01040F"/><path d="m26.97 32.65-.4.83a7.07 7.07 0 0 1-1.93 1.83c-.24.16-.66.33-1.25.52-.96.31-1.27.68-.94 1.1l1.3 1.13c.08.07.12.15.12.26l-.08 3.5c0 .02-.01.03-.04.02a56.27 56.27 0 0 1-.05-3.05.8.8 0 0 0-.24-.6l-1.27-1.25a.56.56 0 0 1-.18-.36c0-.07 0-.11.02-.14.02-.06 0-.09-.07-.09h-1.35c-.05 0-.08.03-.07.08.02.2.05.33.1.38.22.34.48.64.78.9.07.07.11.15.12.25 0 .07.02.14.06.2.03.06.11.12.25.2.19.1.28.26.26.47 0 .1-.07.17-.18.19a.21.21 0 0 0-.1.04c-.01.01-.02.02-.03.01l-.03-.03.01-.06c0-.02.02-.03.03-.05a.33.33 0 0 0 .1-.3.2.2 0 0 0-.1-.14.24.24 0 0 0-.19-.03c-.1.03-.15.1-.13.2l.05.29v.02h-.01l-.02.01a.2.2 0 0 1-.08 0c-.04-.02-.06-.05-.06-.1v-.74c0-.1-.04-.18-.1-.24l-.75-.73c-.12-.12-.18-.1-.18.07 0 .3-.01.5.19.84a3.46 3.46 0 0 1 .33.7.05.05 0 0 1-.06.02s-.02 0-.03-.02c-.2-.24-.43-.37-.68-.38-.09 0-.13-.05-.14-.13 0-.04.02-.07.07-.08.02 0 .04 0 .05-.02a.07.07 0 0 0 .02-.05v-1.83c0-.08-.04-.13-.12-.15a.48.48 0 0 0-.12-.03.65.65 0 0 1-.06-.4c.02-.1.09-.13.19-.08.04.02.07.05.09.09.05.09.12.11.21.07.2-.1.6-.15 1.2-.14.46 0 .83-.04 1.12-.13a6.69 6.69 0 0 0 3.96-3.14c.1-.17.15-.16.15.03v.17c0 .12.05.16.16.11l.1-.04Z" fill="#63A3ED"/><path d="M39.63 32.4c.12.06.24.09.38.09-.02.03-.06.04-.13.04a.3.3 0 0 0-.22.1L38 34.41a.04.04 0 0 1-.03.01h-.02l-.01-.01-.06-.09c-.03-.04-.03-.08.01-.12l1.74-1.8Z" fill="#162031"/><path d="M24.55 32.6c.16.1.21.32.16.65a.38.38 0 0 1-.14.24c-.69.57-1.47.96-2.34 1.17-.1.02-.2 0-.27-.07l-.83-.7-.65-.74c-.18-.2-.14-.29.14-.25.53.08 1.1 0 1.71-.23l.92.8a.32.32 0 0 0 .43-.02l.87-.85Z" fill="#4D6095"/><path d="M37 33c.04.13.13.26.26.36-.1.14-.22.27-.37.38-.08.07-.12.13-.13.18 0 .08.04.15.14.22l-.92.8c-.07.07-.14.07-.22.02a.43.43 0 0 0-.3-.08.1.1 0 0 0-.1.11c.02.06-.02.11-.1.16a.22.22 0 0 1-.14.03c-.37-.05-.56.12-.54.5.01.53 0 .92-.07 1.19 0 .03-.02.06-.04.09l-1.32 1.28a.45.45 0 0 0-.13.31l-.12 3.3c0 .04-.03.05-.08.03-.03 0-.04-.01-.04-.03l.04-3.5a.26.26 0 0 1 .08-.2l1.27-1.24c.05-.04.07-.1.07-.18v-1.58c0-.15-.06-.18-.18-.1-.5.35-.47.86-.46 1.45 0 .1-.04.19-.11.25l-1.07.98c-.1-.02-.13-.1-.12-.22 0-.05.04-.07.12-.07.33-.2.6-.46.79-.76a.5.5 0 0 0 .09-.28v-.95c0-.05.02-.09.06-.12l.1-.06c.12-.08.11-.16-.01-.23-.23-.14-.47-.1-.72.08l-.12.25c-.04.1-.08.1-.13 0-.04-.09-.09-.13-.14-.11l.17-.24c.31-.35.68-.48 1.12-.37a.3.3 0 0 0 .28-.06c.06-.06.14-.1.25-.12a.97.97 0 0 1 .32 0c.87.15 1.26-.1 1.18-.71l1.34-.77Z" fill="#377285"/><path d="m20.9 34.04.48.56c.12.14.08.2-.1.2h-.6c-.12 0-.18-.05-.19-.16l-.09-.83a1.6 1.6 0 0 1-.32-.51c-.1.03-.1 0 .03-.1l.8.84ZM26.57 33.48c.14.16.1.41-.1.75-.08.14-.06.16.08.07l.52-.35a.13.13 0 0 1 .18.04l.02.07v.17a.1.1 0 0 1-.04.08l-2.46 2.3-.06.75a5.12 5.12 0 0 0-2.26-.43c-.33-.42-.02-.79.94-1.1a6 6 0 0 0 1.25-.52 7.07 7.07 0 0 0 1.93-1.83Z" fill="#203B7C"/><path d="M17.58 34.76c-.08.8-.06 1.59.04 2.38.04.33.03.67-.02 1.03-.05.35-.07.7-.06 1.04 0 .08-.06.1-.17.07l-.14-.14.09.02c.07 0 .11-.03.12-.1a4.1 4.1 0 0 0-.5-2.34 2.47 2.47 0 0 1-.14-1.54c.03-.1.1-.16.22-.14.18.02.29-.03.32-.16v-.1a.14.14 0 0 0-.08-.07c-.38-.15-.57-.41-.57-.77 0-.14.05-.16.15-.07.32.28.57.58.74.9Z" fill="#295569"/><path d="m29.75 36.26-.05.05c-.1.12-.12.24-.08.34.05.1.14.15.25.14.19-.03.37.01.53.12.1.06.13.03.13-.07-.01-.42.1-.77.35-1.05l-.31 1.6-1.39 1.3c-.22.2-.46.24-.71.1a.3.3 0 0 0-.27-.03c-.29.11-.39.32-.3.63-.17-.1-.35-.09-.57.05-.11-.08-.16-.2-.14-.35a.22.22 0 0 0-.11-.23.45.45 0 0 0-.2-.06c-.25-.44-.59-.83-1-1.16a.31.31 0 0 1-.12-.24v-1.12c0-.08.02-.15.07-.22.3-.4.67-.76 1.12-1.08.2.24.32.6.37 1.04-.24.31-.29.54-.15.68-.03.11.01.18.11.2.25.2.5.16.73-.14.35-.68.87-1.54 1.8-1.07.1.06.16.03.18-.08l.12-.94c0-.08.06-.12.14-.12h.82a.19.19 0 0 1 .17.1.18.18 0 0 1-.04.21l-1.45 1.4Z" fill="#0C1831"/><path d="M18.53 36.28c-.02-.35-.12-.57-.3-.63-.1-.04-.16 0-.17.11l-.1 3.97c-.21-.09-.41-.23-.6-.45.12.04.18.01.18-.07 0-.35.01-.7.06-1.04.05-.36.06-.7.02-1.03-.1-.79-.12-1.58-.04-2.38l.08.48a.18.18 0 0 0 .18.15h.2c.1 0 .2.03.28.1.28.2.35.46.21.79Z" fill="#4D6095"/><path d="M32.73 35.12c-.03.22-.03.5.02.83.02.15-.03.26-.14.32a.36.36 0 0 0-.17.22c-.09.3-.1.62-.02.95-.08 0-.12.02-.12.07-.01.13.03.2.12.22l-.14 1.16c0 .05-.04.07-.1.05l-.07-.04c-.04-.01-.05-.04-.05-.08.16-.68.2-1.4.1-2.16 0-.1-.07-.16-.17-.15-.25.02-.4.15-.5.4-.01.05-.03.06-.06.03-.02-.03-.03-.05-.02-.06.16-.35.21-.71.16-1.1a.28.28 0 0 1 .09-.24 1 1 0 0 1 .68-.28c.05-.02.1.02.14.1.04.1.09.1.13 0l.12-.24Z" fill="#838383"/><path d="M36.35 35.67c-.3.4-.43.96-.4 1.68 0 .1-.03.18-.1.26l-1.2 1.35-.1-.2 1.17-1.6a.44.44 0 0 0 .09-.27v-.71c0-.1-.04-.2-.12-.27-.18-.17-.17-.38.02-.63.06-.08.14-.1.24-.06.21.09.35.24.4.45Z" fill="#E0F3F3"/><path d="m18.53 36.28.1 1c-.03.93-.02 1.87.02 2.81 0 .1-.08.13-.24.1l-.45-.46.1-3.97c0-.12.07-.15.18-.11.17.06.27.27.3.63Z" fill="#0C1831"/><path d="M27.17 36.7c-.14-.14-.09-.37.15-.68.32.03.51.14.59.33.04.13.01.16-.1.08l-.19-.12c-.1-.07-.2-.05-.26.06l-.2.33Z" fill="#747DAD"/><path d="M39.88 36.63c-.03.08-.13.16-.29.26-.1.07-.17.04-.2-.07-.07-.21-.1-.35-.06-.42.03-.07.15-.15.36-.25.1-.05.17-.02.19.1.03.18.03.3 0 .38Z" fill="#9AC4E2"/><path d="m29.7 36.31.05-.05c.17-.04.29.04.36.24.04.1.01.17-.1.2a.27.27 0 0 1-.14 0 .22.22 0 0 1-.16-.15.46.46 0 0 1 0-.23ZM19.1 36.67l-.08 3.85c-.25-.08-.45-.2-.6-.33.15.03.23 0 .23-.1-.04-.94-.05-1.88-.03-2.81.23.01.39-.19.48-.61ZM24.77 36.61l.08.2c.02.06.06.08.13.06l.07-.03v1.41c-.01.05-.04.08-.09.08h-.1c-.06 0-.09-.03-.08-.1.03-.3 0-.59-.07-.87l.06-.75Z" fill="#4D6095"/><path d="M28.01 36.76c-.23.3-.48.34-.73.15.26-.14.5-.19.73-.15Z" fill="#8DA5B1"/><path d="m33.8 38.68-.17-.22.82-.87a.48.48 0 0 0 .13-.26c.05-.22.17-.32.37-.27.1.02.16.09.16.2v.07c0 .1-.04.17-.13.21-.5.27-.9.65-1.18 1.14Z" fill="#B0CEA1"/><path d="M22.86 38.92a.46.46 0 0 0-.14-.32l-1.4-1.36c-.02-.03-.02-.05.01-.07l.08-.06c.04-.02.07-.02.1 0l1.29 1.27a.8.8 0 0 1 .24.57l-.05 2.66c0 .06-.02.08-.04.07-.03-.01-.05-.03-.05-.06l-.04-2.7Z" fill="#8DA5B1"/><path d="M19.75 38.4a13.7 13.7 0 0 0 0 1.77c.02.17.15.34.4.52a14.4 14.4 0 0 0 4.99 2.22.05.05 0 0 1 0 .04c0 .03-.03.04-.06.04-2-.4-3.8-1.2-5.42-2.39a.35.35 0 0 1-.15-.28l-.03-2.16.27.23Z" fill="#747DAD"/><path d="M26.07 38.86c.01.15.03.3.07.45 0 .04 0 .06-.03.08a.13.13 0 0 1-.08.01.15.15 0 0 1-.09-.06c-.04-.05-.08-.2-.1-.45-.02-.25-.02-.4.01-.47a.14.14 0 0 1 .07-.08h.09c.03.01.04.04.04.07 0 .16 0 .3.02.45Z" fill="#295569"/><path d="m33.63 38.46.17.22c.02 1.39.02 2.33 0 2.82-.02.22-.16.45-.44.7-.24.23-.27.21-.08-.06l.26-.35a.46.46 0 0 0 .07-.27l.02-3.06ZM29.18 38.68l.04.09-.35.36a.5.5 0 0 0-.13.26c-.06.3-.3.4-.69.26-.05-.02-.06-.05-.04-.1l.03-.06h.01c.12.04.24.04.36 0 .1-.04.15-.1.15-.2v-.36c0-.16-.06-.18-.17-.07l-.5.53c-.08-.3.02-.52.3-.63a.3.3 0 0 1 .28.02c.25.15.49.12.71-.1Z" fill="#4D6095"/><path d="m34.56 38.76.1.2c.06.33.09.66.07.99 0 .11.09.2.27.27a.16.16 0 0 1 .1.15l-.01.09a.1.1 0 0 1-.07.05.12.12 0 0 1-.09 0c-.06-.03-.09-.1-.1-.18 0-.06-.03-.07-.08-.04l-.13.09c-.1.07-.1.14-.01.22l.08.04c.02 0 .03.03.03.08l-.13 1.57c-.01.06-.03.12-.06.17a.27.27 0 0 1-.13.11 18.18 18.18 0 0 1-4.9 1.24c-.23.03-.38 0-.48-.1.07-.03.1-.05.1-.07 1.32-.14 2.6-.41 3.83-.82.06-.02.1-.05.14-.1.07-.08.1-.14.1-.17.01-.1.03-.1.06-.01.02.03.06.07.13.1.05.01.1.01.15-.01l.75-.38c.1-.05.17-.12.19-.22.1-.51.08-1-.06-1.48a.67.67 0 0 1-.02-.28l.17-1.51Z" fill="#747DAD"/><path d="M25.02 39.45c.04 0 .15.1.3.3.08.08.09.16.04.26-.13.23-.24.35-.35.35-.1 0-.21-.12-.34-.36a.22.22 0 0 1 .03-.26c.17-.2.27-.29.32-.29Z" fill="#4D6095"/><path d="M30.23 41.43c.22 0 .4-.18.4-.39a.39.39 0 0 0-.4-.38c-.21 0-.39.17-.39.38s.18.39.4.39Z" fill="#E0F3F3"/><path d="M28.8 43.16c.05.19-.03.35-.25.49a.34.34 0 0 1-.5-.18c-.05-.11-.03-.26.05-.42.2-.18.44-.14.7.11Z" fill="#9EE3F7"/><defs><linearGradient id="a" x1="10.42" y1="9.71" x2="68.15" y2="76.02" gradientUnits="userSpaceOnUse"><stop stop-color="#1A1E21"/><stop offset="1" stop-color="#06060A"/></linearGradient></defs></svg>