<svg width="56" height="56" viewBox="0 0 56 56" xmlns="http://www.w3.org/2000/svg"><path d="M25.1 32.48c-.04 0-.1.04-.1.12v7.8c0 .34-.15.6-.5.6h-4.77c-.49 0-.73-.3-.73-.76.02-14.16.03-23.49.02-27.04 0-.46-.11-1.18.5-1.2h4.85c.76 0 .63.45.63 1.08v14.28c0 .28.13.31.32.12a3.96 3.96 0 0 1 2.86-1.14c1.74-.02 2.85-.81 3.31-2.37.13-.45.16-1.04.2-1.48a3.65 3.65 0 0 1 4.46-3.28c3.51.8 3.84 5.74.5 7.07-.65.25-1.32.24-1.94.35a3.43 3.43 0 0 0-2.72 4.47 3.48 3.48 0 0 0 3.08 2.44c1.09.13 1.73.16 2.6.91a3.7 3.7 0 0 1 .66 4.97 3.68 3.68 0 0 1-3.74 1.5c-1.97-.46-2.77-1.92-2.94-3.85a3.55 3.55 0 0 0-2.25-3.13c-.6-.22-1.53-.13-2.15-.28a4.03 4.03 0 0 1-2.09-1.18h-.05Z" fill="#fff"/><defs><linearGradient id="a" x1="10.42" y1="9.71" x2="68.15" y2="76.02" gradientUnits="userSpaceOnUse"><stop stop-color="#1A1E21"/><stop offset="1" stop-color="#06060A"/></linearGradient></defs></svg>