<svg width="56" height="56" fill="none" xmlns="http://www.w3.org/2000/svg"><path d="M22.697 15.726c1.528-.743 3.73-1.243 5.882-1.163 2.29 0 4.376.775 5.132 1.163 6.302-3.954 8.29-2.752 8.496-1.657.988 4.135-.283 8.324-1.043 9.901 2.719 8.108 1.828 12.363 1.043 13.476-3.167 4.707-9.191 4.707-16.297 4.48-7.105-.229-9.152-1.026-11.546-4.48-1.916-2.764-.622-9.107.265-11.934-.966-1.9-2.832-10.007-.517-11.443s8.207 1.458 8.585 1.657z" fill="#31006B"/><path d="M22.491 16.61c1.445-.702 3.955-1.318 5.99-1.243 2.166 0 4.584.76 5.3 1.126 5.96-3.739 7.61-2.729 7.804-1.693.935 3.91-.57 7.568-1.289 9.06 2.57 7.667 1.88 11.993 1.138 13.046-2.994 4.451-8.691 4.451-15.41 4.236-6.72-.216-8.712-.766-10.92-4.236-1.705-2.681-.516-8.92.323-11.592-.914-1.797-2.858-9.34-.669-10.698 1.96-1.216 7.442 1.824 7.733 1.994z" fill="#fff"/><path d="M28.414 17.828c-2 .032-3.286-.64-3.679-.98-7.81 1.944-12.103 13.76-9.817 19.772 1.828 4.81 9.64 4.488 13.628 4.597 2.099 0 7.087 0 9.883-1.623 3.62-2.1 3.795-4.75 3.62-6.432-1.07-10.242-7.447-15.883-9.876-16.315-.42.314-1.76.95-3.76.981z" fill="#F9EBD1"/><path d="M22.164 31.348c.692-1.714 4.28-2.687 5.989-2.96 2.146 0 6.338 2.404 6.338 4.105 0 2.24-1.746 7.555-6.338 7.375-4.592-.18-6.854-6.378-5.99-8.52z" fill="#fff"/><path d="M26.427 32.327a1.57 1.57 0 01-1.468-1.04l-.346.735.83.995 4.083.502 2.088-.7v-.985c-.1.269-.5.788-1.294.717-.796-.072-1.705-.873-2.06-1.264-.226.359-.907 1.068-1.833 1.04z" fill="#DCC7E6"/><path d="M26.537 29.914c.22-.684 1.453-.788 1.823-.772 1.312 0 1.923.51 1.906 1.151-.013.513-1.121 1.005-1.674 1.187v.973c.078.197.538.594 1.76.608 1.223.013 1.322-.874 1.219-1.32.398.629.603 1.103-.399 1.839-.801.589-1.139 1.827-1.207 2.373.193 1.072.058 3.185-2.028 3.061-2.607-.154-1.967-2.895-1.835-3.381.133-.487-.506-1.614-.64-2.053-.132-.439-1.098-1.127-1.061-1.626.028-.398.438-.64.64-.712-.254.902.53 1.626 1.327 1.602.637-.019 1.366-.269 1.623-.391v-.973c-.704-.25-1.674-.883-1.454-1.566z" fill="#3B0364"/><path d="M27.27 35.608c.53.063.742.942.792 1.323.158-.495.309-1.285.84-1.214.53.07.617.623.602.942-.016.32-.064 1.861-1.442 1.892-1.379.032-1.609-1.573-1.593-1.775.016-.203.214-1.239.8-1.169z" fill="#FB6E64"/><path d="M27.948 37.531c-.706.012-1.126-.445-1.248-.675-.066.498.109 1.49 1.332 1.469 1.222-.021 1.243-.973 1.101-1.447-.1.213-.478.641-1.184.653z" fill="#D85465"/><path d="M28.282 29.59c-.611.003-.904.178-.974.265 0 .196.84.255.974.255.135 0 1.19-.201 1.194-.29.005-.088-.43-.236-1.194-.23z" fill="#BD98DB"/><path d="M35.48 26.054c-1.918.039-2.387 1.694-2.381 2.517.234-.497 1.037-1.536 2.38-1.715 1.344-.18 2.615.919 3.082 1.49-.228-.78-1.164-2.33-3.081-2.292zM20.615 26.033c1.917.038 2.386 1.694 2.38 2.516-.233-.496-1.037-1.535-2.38-1.715-1.344-.18-2.615.92-3.082 1.491.228-.78 1.164-2.33 3.082-2.292zM28.484 28.058c-1.891-.18-3.68 1.325-4.337 2.1.662-.521 2.414-1.568 4.125-1.587 1.712-.02 3.41 1.285 4.044 1.94-.685-.962-1.468-2.229-3.832-2.453z" fill="#3B0364"/><path d="M28.306 39.968c-7.197.858-12.073-3.431-13.61-5.683.747 3.063 2.381 4.36 4.135 5.683 1.753 1.322 13.61 1.91 18.412.127 3.842-1.426 4.449-4.63 4.272-6.054-1.914 2.634-4.211 4.854-13.209 5.927z" fill="#D3BDBF"/><path d="M40.245 23.785c-1.286-3.735-4.056-6.003-5.28-6.67 3.697-2.773 5.368-2.872 5.742-2.575 2.278 1.744.642 6.89-.462 9.245z" fill="#F6EED4"/><path d="M35.556 17.53c2.263 1.596 3.564 3.795 3.937 4.963 1.56-2.64 1.77-5.5 1.621-6.814-.005-.335-.288-.997-1.477-.746-1.19.252-3.26 1.89-4.081 2.597z" fill="#480066"/><path d="M39.596 21.09c-1.041-1.872-2.45-3.157-3.025-3.565 2.004-1.434 3.062-1.958 3.493-2.087.118-.036.23.029.276.14.598 1.453-.232 4.249-.744 5.512z" fill="#FF696E"/><path fill-rule="evenodd" clip-rule="evenodd" d="M37.784 18.625c.513-.962 1.46-2.37 2.101-2.032.346.183.529.593.617 1.036.086-.771.062-1.505-.162-2.05-.046-.112-.158-.177-.276-.142-.43.13-1.489.654-3.493 2.088.266.189.71.565 1.213 1.1z" fill="#DC546C"/><path d="M21.324 17.311c-6.282-4.116-7.67-1.305-7.578.615.125 2.749 1.162 6.089 1.666 7.415 1.218-4.228 3.58-6.56 4.608-7.198l1.304-.832z" fill="#F8EBDA"/><path d="M20.048 18.142c-2.263 1.596-3.575 4.33-3.948 5.499-1.56-2.64-1.651-5.928-1.502-7.243.005-.335.313-.942 1.502-.691 1.19.251 3.127 1.728 3.948 2.435z" fill="#31006B"/><path d="M15.299 16.695c-.196 2.274.437 4.415.8 5.243.356-.764 1.433-2.604 2.895-3.855-1.572-1.051-2.624-1.543-3.2-1.737-.246-.084-.473.09-.495.349z" fill="#FD6B6C"/><path fill-rule="evenodd" clip-rule="evenodd" d="M15.326 18.772c.06-.538.204-1.094.508-1.136.385-.053 1.502.767 2.235 1.363.286-.322.596-.634.925-.915-1.572-1.052-2.624-1.543-3.2-1.738-.246-.083-.473.09-.495.35-.062.717-.041 1.422.027 2.076z" fill="#D65969"/></svg>