<svg width="56" height="56" viewBox="0 0 56 56" xmlns="http://www.w3.org/2000/svg"><path d="M45 28a17 17 0 1 1-34 0 17 17 0 0 1 34 0Z" fill="#7ED956"/><path d="M36.01 29.17c-.02.05-.06.07-.12.05a.18.18 0 0 1-.08-.07 2.51 2.51 0 0 1-.23-.41.43.43 0 0 0-.03-.23.76.76 0 0 1-.05-.23c0-.09-.02-.17-.04-.23-.1-.26-.26-.52-.48-.78a14.8 14.8 0 0 0-.29-1.04 3.96 3.96 0 0 0-.39-.9 1.15 1.15 0 0 0-.32-.32.17.17 0 0 0-.1-.04l-.86-.01c-.14 0-.24.09-.36.14-.27.13-.56.17-.87.12-.03-.01-.04-.03-.04-.06 0-.17-.03-.32.13-.44.14-.1.3-.18.47-.22l.9-.26c.45-.13.91-.01.7-.72-.1-.31-.2-.6-.33-.86-.14-.32-.42-.53-.44-.9a.17.17 0 0 0-.05-.11 1.58 1.58 0 0 1-.32-.6 2.06 2.06 0 0 0-.35-.7c-.39-.44-.75-.83-1.1-1.15-.2-.19-.46-.3-.79-.34l-.03-.01a.06.06 0 0 1-.02-.03.4.4 0 0 1 .03-.3c.1-.2.19-.38.26-.58.1-.25.35-.28.56-.15.19.13.33.2.42.2.29.01.49.15.6.4l.89 1.27c.03.05.05.14.05.26-.02.42.33.86.57 1.23.34.52.6 1.06.96 1.57.23.34.47.45.84.6.22.09.37.28.58.37l.66.29c.28.14.65.19.78-.19a.09.09 0 0 0-.03-.09.1.1 0 0 0-.1-.02c-.53.19-1.07-.12-1.48-.45a1.03 1.03 0 0 1-.3-.4 4.58 4.58 0 0 1-.3-.95 2.38 2.38 0 0 0-.15-.52c-.53-1.23-1-2.19-1.43-2.89-.2-.32-.54-.55-.81-.86l-.3-.3a3.18 3.18 0 0 0-.89-.58l-.02-.04a4.54 4.54 0 0 0-1.75-.82c-.07-.06-.13-.1-.23-.1-.22.03-.43 0-.62-.07a.44.44 0 0 0-.2-.02c-.23.02-.49.06-.77.12-.23.04-.29.32-.55.34a1 1 0 0 1-.23-.05c-.11-.03-.2-.02-.27.03-.5-.15-1-.28-1.52-.4a3.74 3.74 0 0 0-1.1 0c-.1.02-.14-.02-.13-.1.73-.6 1.5-.34 2.31-.08.21.07.44.1.68.1.54 0 1.07-.08 1.6-.22.36-.1.71.08 1.05.18.14.05.29.09.45.12a4.53 4.53 0 0 1 2.77 1.7l.88 1.07c.26.32.41.82.62 1.24.16.32.33.63.52.93.12.2.32.38.53.5.4.2.86.38 1.15.74.34.4.65.85.94 1.34.1.15.15.38 0 .53-.31.33-.18.83-.47 1.2-.29.36-.5.74-.62 1.12-.18.52-.21 1.07-.42 1.6-.13.36-.28.7-.42 1.04-.05.1-.08.24-.1.44Z" fill="#2B1410"/><path d="M24.54 15.62c0 .08.03.12.12.1.35-.03.77-.07 1.1 0 .53.12 1.04.25 1.53.4.18.2.34.32.49.38.1.04.21.04.37 0 .03 0 .06 0 .08.02.16.06.3.05.44-.03a.7.7 0 0 1 .86.15c.03.03.04.05.04.09.05.33.27.47.66.4.1 0 .22-.1.2-.21v-.07c.01-.03.03-.04.06-.04.22.02.43-.01.64-.08.19-.06.4-.03.6.04a.2.2 0 0 0 .2-.04c.32.14.61.33.9.57v.03c-.01.02-.02.02-.04.01a3.02 3.02 0 0 0-.7-.3.83.83 0 0 0-.5.05c-.03.01-.03.03-.01.05.18.15.02.38.25.51.7.42 1.42.19 1.34 1.25l.45 1.03c.03.05.01.06-.03.03a.38.38 0 0 1-.13-.18 1.78 1.78 0 0 0-.2-.44c-.22-.32-.42-.63-.6-.94a.1.1 0 0 0-.06-.05.28.28 0 0 0-.22.04c-.1-.25-.3-.39-.59-.4-.09 0-.23-.07-.42-.2-.21-.13-.47-.1-.56.15-.07.2-.16.39-.26.58a.4.4 0 0 0-.03.3s0 .02.02.03l.03.01c.33.04.6.15.8.34.34.32.7.7 1.1 1.15.14.16.28.48.35.7.06.22.16.42.31.6.03.03.04.06.05.1.02.38.3.59.44.9.12.27.23.56.33.87.21.7-.25.6-.7.72l-.9.26c-.18.04-.33.12-.47.22-.16.12-.14.27-.13.44 0 .03.01.05.04.06.31.05.6.01.87-.12.12-.05.22-.15.36-.14.72-.24.97-.13 1.28.38.15.23.28.53.4.89.1.35.2.7.28 1.04l.42.98.01.07c-.01.26-.04.53-.1.8a.99.99 0 0 1-.1.33c-.06.1-.1.2-.14.3-.06.2-.25.27-.38.41-.33.34-.36.95-.25 1.37l.26 1.07c.06.25.08.56.06.95 0 .1-.05.16-.08.24h-.01a.03.03 0 0 1-.03.01l-.02-.01a.73.73 0 0 0-.66-.4c-.15 0-.3-.02-.43-.06l-.6-.22a.32.32 0 0 1-.2-.18c-.13-.32-.2-.65-.19-.99.01-.24-.36-.51-.57-.34a.71.71 0 0 0-.16.26c-.1.25-.25.48-.41.7.05-.17.11-.32.18-.46.07-.12.1-.23.1-.31a.7.7 0 0 0-.1-.35 4.78 4.78 0 0 1-.59-1.68 2.69 2.69 0 0 0-.24-.7c-.04-.09-.13-.2-.25-.3a2.13 2.13 0 0 1-.36-.46l-.27-.7-.03-.25.06-.38a.2.2 0 0 1 .1-.14c.2-.11.4-.26.57-.43.43-.42.15-.73.42-1.14.15-.25.29-.44.58-.56.68-.28 1.39-.67.87-1.51-.2-.31-.42-.64-.69-.97a6.73 6.73 0 0 1-.59-.92c-.28-.5-.6-.98-.97-1.4-.28-.3-.64-.42-1.09-.34-.19.03-.4.05-.61.06-.5 0-.98.07-1.49.06a.2.2 0 0 0-.14.04.1.1 0 0 1-.07.03l-.48-.02c-.19-.04-.3-.11-.35-.21l.41.07c.42-.07 1.08 0 .78-.52 0-.02 0-.03.02-.04l.01-.01.04.01c.13.23.32.33.57.3.03 0 .05-.03.06-.05l.06-.15a.04.04 0 0 1 .04-.03.05.05 0 0 1 .04.02l.04.06c.01.02.04.02.06.01a.12.12 0 0 1 .11 0c.04.02.06 0 .08-.02.23-.36.15-1.08-.08-1.41-.17-.25-.26-.52-.52-.7-.79-.6-1.8-.87-2.78-.66-.4.09-.84.14-1.2.33-.28.15-.58.35-.89.61-.28.23-.4.6-.57.91-.04.1-.14.14-.17.25a4.47 4.47 0 0 1-1.15 1.58c-.08.08-.09.17-.1.27 0 .08-.01.16-.04.24-.15.4-.39.89-.32 1.32.04.33.13.68.04 1-.1.3-.17.6-.25.86a.38.38 0 0 1-.18.25c-.22.14-.38.32-.48.55a.07.07 0 0 0 0 .07l.03.02.04.01h.42a.1.1 0 0 0 .07-.03l.26-.28a.15.15 0 0 0 .03-.07.2.2 0 0 1 .09-.13 14.24 14.24 0 0 1 .36-.63c.14-.25.11-.55.26-.8a1.09 1.09 0 0 1 .3-.32h.03l.01.02v.02l.02.99c0 .19.07.21.2.06.16-.2.16-.56.14-.8 0-.04.01-.08.03-.1.14-.24.23-.52.26-.86.02-.12.04-.12.09 0 .02.06.03.13.03.2 0 .23 0 .45.02.67 0 .02.01.05.03.07.1.08.13.18.12.28a5.27 5.27 0 0 1-.54 1.49c-.1.1-.16.22-.26.32l-.79.73c-.28.24-.6.4-1 .46a.96.96 0 0 0-.26.09.67.67 0 0 1-.47.02c-.2-.04-.81-.08-.97.1-.07.08-.13.18-.19.3-.07.14.02.25.17.25-.42.08-.79-.06-1.18-.14-.13-.02-.14-.07-.04-.15.1-.08.11-.18.04-.3-.09-.13-.1-.35.08-.41a.18.18 0 0 0 .12-.21.18.18 0 0 0-.04-.08c-.07-.09-.1-.18-.08-.29.09-.4.14-.77.16-1.13.02-.33.28-.5.2-.88-.21-1.04.6-1.6 1.6-3.03.4-.54.77-1.09 1.13-1.62.4-.6.89-1.14 1.52-1.51.34-.2.71-.39 1.13-.57l1.78-.78Z" fill="#8F5947"/><path d="M32.28 27.02c.2-.1.41-.18.62-.25l.6 1.91-.38.15c-.22.1-.5.2-.8.2l-.02-1 .03 1c-.24.01-.48 0-.71-.05-.37-.08-.8-.28-1.04-.74-.23-.41-.2-.85-.14-1.17l1.5.32L32 27a1.17 1.17 0 0 0 .24.02l.04-.01Zm-.35.37.46.1a.5.5 0 0 0-.06-.2.6.6 0 0 0-.2-.22.39.39 0 0 0-.12-.06l-.08.38Z" fill="#DA928B"/><path d="M31.93 16.73a.2.2 0 0 1-.2.04.97.97 0 0 0-.6-.04c-.2.07-.42.1-.64.08-.03 0-.05.01-.06.04v.07c.02.11-.1.2-.2.22-.4.06-.61-.08-.66-.41a.15.15 0 0 0-.04-.09.7.7 0 0 0-.86-.15.47.47 0 0 1-.44.03.16.16 0 0 0-.08-.01.66.66 0 0 1-.37-.01 1.52 1.52 0 0 1-.5-.38c.08-.05.17-.06.28-.03a1 1 0 0 0 .23.05c.26-.02.32-.3.55-.34.28-.06.54-.1.77-.12.07 0 .14 0 .2.02.2.07.4.1.62.08.1-.01.16.03.23.09a4.54 4.54 0 0 1 1.77.86Z" fill="#5B3328"/><path d="M25.96 19.52c-.22.02-.44-.04-.66-.17a.14.14 0 0 0-.19.05.13.13 0 0 0-.01.06c0 .08-.05.14-.15.18l-.65.26c-.12.04-.2.13-.3.18-.18.07-.31.2-.47.3a.09.09 0 0 1-.08 0 .09.09 0 0 1-.05-.07.49.49 0 0 0-.12-.29.15.15 0 0 1-.04-.07 1.25 1.25 0 0 0-.16-.46c-.01-.02-.03-.02-.04-.02-.03 0-.04.02-.04.05.03.13.1.25.11.39.07.46-.09.86-.15 1.31l-.2 1.65a3 3 0 0 1-.25.95v.05c0 .1-.02.19-.06.24a6.37 6.37 0 0 1-1.3 1.54 4.8 4.8 0 0 1-3.03 1.07c-.15 0-.24-.1-.17-.25.06-.12.12-.22.19-.3.16-.18.77-.14.97-.1.19.05.34.04.47-.02a.96.96 0 0 1 .26-.09c.4-.07.72-.22 1-.46.26-.22.52-.47.8-.73.1-.1.16-.22.25-.32a5.28 5.28 0 0 0 .54-1.49c.01-.1-.02-.2-.12-.28a.1.1 0 0 1-.03-.07l-.02-.67a.62.62 0 0 0-.03-.2c-.05-.12-.07-.12-.09 0-.03.34-.12.62-.26.85a.17.17 0 0 0-.03.1c.02.25.02.62-.15.81-.12.15-.18.13-.19-.06l-.01-1a.04.04 0 0 0-.02-.02.04.04 0 0 0-.04 0c-.12.1-.22.2-.3.31-.14.25-.11.55-.25.8a14.45 14.45 0 0 0-.36.63.2.2 0 0 0-.09.13c0 .03-.01.05-.03.07l-.26.28a.1.1 0 0 1-.07.03h-.42a.08.08 0 0 1-.07-.03.07.07 0 0 1 0-.07c.1-.23.26-.41.48-.55a.38.38 0 0 0 .18-.25l.25-.85c.1-.33 0-.68-.04-1.01-.07-.43.17-.92.32-1.32a.78.78 0 0 0 .05-.24c0-.1.01-.19.1-.27.2-.2.45-.38.57-.63.08-.15.13-.3.25-.42.15-.15.26-.33.32-.53.03-.11.13-.15.17-.25.16-.3.3-.68.57-.91.31-.26.61-.46.89-.6.36-.2.8-.25 1.2-.34.97-.2 2 .06 2.78.65.26.2.35.46.52.7.23.34.3 1.06.08 1.42-.02.03-.04.04-.08.02a.12.12 0 0 0-.1 0c-.03.01-.06 0-.07-.01l-.04-.06-.02-.02a.05.05 0 0 0-.06.03l-.06.15a.07.07 0 0 1-.06.04c-.25.04-.44-.06-.57-.29 0-.01-.02-.02-.04-.01h-.01c-.02.02-.03.03-.02.05l.16.27a.07.07 0 0 1 0 .06v.03l-.03.01c-.29.16-.57.2-.9.15l-.42-.07Z" fill="#B37D62"/><path d="m32.82 17.3.3.3c.27.32.62.55.81.87.43.7.9 1.66 1.43 2.89.06.16.11.33.15.52.05.27.15.58.3.95.07.15.17.28.3.4.41.33.95.64 1.49.45a.1.1 0 0 1 .1.02.09.09 0 0 1 .02.1c-.13.37-.5.32-.78.18l-.66-.3c-.21-.08-.36-.27-.58-.36-.37-.15-.61-.26-.84-.6-.35-.5-.62-1.05-.96-1.57-.24-.37-.59-.8-.57-1.23 0-.12-.02-.2-.05-.26l-.9-1.27a.28.28 0 0 1 .22-.04.1.1 0 0 1 .05.05l.6.94c.08.12.15.27.2.44.03.07.07.13.14.18.04.03.06.02.03-.03l-.45-1.03c-.27-.91-.67-.84-1.34-1.25-.23-.13-.07-.36-.25-.51-.02-.02-.02-.04 0-.05.2-.07.37-.09.52-.05.21.06.44.16.7.3l.02-.01v-.03Z" fill="#644734"/><path d="M25.96 19.52c.05.1.16.17.35.21-.06.11-.15.15-.25.12-.22-.12-.38-.2-.5-.2-.11-.02-.2 0-.28.04-.16.09-.32.17-.49.23-.3.13-.53.35-.7.61-.06.08-.06.22-.12.33-.1.15-.18.29-.22.47a29 29 0 0 1-.22.87c-.16.63-.4 1.2-.73 1.74l-.05-.14a.1.1 0 0 0-.02-.05.1.1 0 0 0-.1-.02.1.1 0 0 0-.05.03.4.4 0 0 0-.06.11.28.28 0 0 1-.01-.05 90.02 90.02 0 0 1 .46-2.6c.05-.45.21-.85.14-1.31-.02-.14-.08-.26-.1-.4-.01-.02 0-.03.03-.04.01 0 .03 0 .04.02.08.13.13.28.16.46l.04.07c.07.08.1.18.12.3a.08.08 0 0 0 .05.06.09.09 0 0 0 .08 0c.16-.1.3-.23.46-.3.12-.05.19-.14.31-.18l.65-.26c.1-.04.15-.1.15-.18a.13.13 0 0 1 .06-.12.14.14 0 0 1 .14 0c.22.14.44.2.66.18Z" fill="#A46355"/><path d="M29.84 27.35c-.07-.15-.11-.3-.13-.46a.34.34 0 0 1 .03-.23c.1-.17.32-.34.48-.46.25-.2.39-.5.47-.8.1-.35.3-.64.6-.85.31-.21.12-.63-.15-.77a6.1 6.1 0 0 1-.53-.34c-.05-.11-.08-.22-.2-.27-.13-.05-.24-.1-.35-.13a.14.14 0 0 1-.07-.05c-.13-.16-.32-.24-.44-.4-.18-.25-.42-.45-.56-.72-.12-.24-.25-.59-.45-.77l-.58-.57a1.25 1.25 0 0 0-1.21-.36c-.16.04-.36.02-.61-.05-.15-.05-.24-.17-.39-.2a1.4 1.4 0 0 0-.69.07h-.02v-.02c0-.02 0-.03.02-.03.2-.04.3-.36.55-.21.33.2.64.3.93.3h.05c.04-.04.1-.05.16-.04.02 0 .03-.01.04-.03v-.02c0-.02-.02-.03-.04-.02-.24.04-.48.02-.7-.07.11.03.2 0 .26-.12l.48.02a.1.1 0 0 0 .07-.03.2.2 0 0 1 .14-.04c.51 0 1-.05 1.49-.06.22 0 .42-.03.61-.06.45-.08.8.03 1.09.34.38.42.7.9.97 1.4.21.38.4.69.6.92.26.33.49.66.68.97.52.84-.19 1.23-.87 1.5-.3.13-.43.32-.58.57-.11.17-.06.39-.07.58 0 .02 0 .05-.02.07-.12.16-.18.35-.33.5-.17.16-.36.3-.57.42a.2.2 0 0 0-.1.14l-.06.38Z" fill="#CA7D64"/><path d="M26.06 19.85c.21.09.45.1.7.07.01 0 .02 0 .03.02v.02c-.01.02-.02.03-.04.03-.06-.01-.12 0-.16.04a.08.08 0 0 1-.05 0c-.3 0-.6-.1-.93-.3-.25-.15-.35.17-.55.2-.02.01-.03.02-.02.04v.02h.02c.27-.08.5-.1.7-.07.14.03.23.15.38.2.25.07.45.09.6.05.45-.1.86.02 1.22.36l.58.57c.2.18.33.53.45.77.14.27.38.47.56.71.12.17.31.25.44.41.02.03.04.04.07.05.11.03.22.08.35.13.12.05.15.16.2.27l.05.05c.15.1.31.2.48.29.27.14.46.56.15.77-.3.21-.5.5-.6.86-.08.3-.22.59-.47.79-.16.12-.37.29-.48.46a.34.34 0 0 0-.03.23c.02.16.06.31.13.46l.03.25-.2-.2c-.03-.02-.06-.03-.1 0l-.07-.01c-.04-.03-.07-.02-.09.01l-.26.4a.1.1 0 0 1-.06.03c-.54.11-.42.59-.47.98 0 .03-.02.05-.03.07-.08.1-.14.2-.18.3a.15.15 0 0 1-.05.07.7.7 0 0 0-.21.27.11.11 0 0 1-.1.07.34.34 0 0 0-.2.08.16.16 0 0 1-.11.04 3.6 3.6 0 0 0-1.31.17c-.05.01-.11 0-.2-.04.13-.05.25-.08.37-.15.12-.08.25-.14.4-.2.3-.14.52-.44.78-.7.18-.19.3-.52.39-.76.06-.18-.04-.45-.06-.64 0-.11 0-.25.05-.42.08-.36-.05-.7-.2-1.05a.35.35 0 0 0-.24-.2.67.67 0 0 0-.27-.02c-.26.04-.53.06-.8.07a.51.51 0 0 0-.32-.4.08.08 0 0 1-.05-.06.4.4 0 0 1 .02-.25c.09-.25.17-.49.23-.73.07-.24.05-.5.05-.75 0-.13-.01-.26-.06-.4-.1-.27-.16-.55-.17-.83 0-.13-.06-.27-.2-.31-.31-.08-.63-.27-.96-.12l-.7.32a.8.8 0 0 0-.43.51c-.23.7-.37 1.29-.41 1.77a2 2 0 0 1-.09.4c-.06.2-.04.38.05.54.18.3.45.58.82.88a.69.69 0 0 1-.22.09.2.2 0 0 0-.13.1l-.58 1.13v.03l.02.01h.01c.05 0 .1-.01.14-.05a.43.43 0 0 0 .12-.14c.15-.3.4-.5.72-.57a8.4 8.4 0 0 1 1.02-.16c.18.13.37.22.59.28.03 0 .05.02.06.04l.08.08a.08.08 0 0 1-.01.11.08.08 0 0 1-.04.02c-.19.02-.5.06-.54.27a2.23 2.23 0 0 0-1.37 1.02.07.07 0 0 0 .04.07h.04l.1.01a.1.1 0 0 0 .07-.02c.38-.35.66-.7 1.24-.8 0 .08.02.14.06.2-.3.1-.57.25-.78.49a.04.04 0 0 0 0 .05c.02.03.05.03.08.02a26.4 26.4 0 0 1 .7-.22c.02 0 .04.02.05.03.03.05.11.07.17.04a.25.25 0 0 1 .16-.02c.13.03.14.08.02.14a.57.57 0 0 0-.24.2.1.1 0 0 1-.06.04c-.13.02-.23-.02-.3-.1-.04-.04-.07-.05-.1-.02a.13.13 0 0 0-.03.04.15.15 0 0 0 .02.19c.3.33.8.32 1.05-.06.12-.19.11-.35-.02-.5a.08.08 0 0 1-.02-.06c.01-.09.11-.16.2-.13.29.11.61.32.5.65-.07.22-.25.31-.45.37-.23.08-.46.24-.67.48a.06.06 0 0 0 0 .08c0 .03.04.06.1.08a4.58 4.58 0 0 1-.96-.26 1.27 1.27 0 0 1-.33-.28.11.11 0 0 0-.07-.04.72.72 0 0 0-.5.12.15.15 0 0 1-.07.02c-.2 0-.32.11-.38.32-.05.23-.1.44-.11.65a.1.1 0 0 1-.04.07.47.47 0 0 0-.24.4c-.01.45.3.73.75.75.47.02.86.19 1.15.5l.3.28a2 2 0 0 1 .62.81c.12.28.27.57.43.85.05.08.12.14.22.18a.13.13 0 0 0 .1 0 .13.13 0 0 0 .07-.08c.16-.56.21-1.13.15-1.7l.01-.1a.19.19 0 0 1 .06-.07l.2-.2c.18-.23.09-.6.3-.8a.08.08 0 0 0 .04-.06c0-.17.05-.33.15-.48.03-.06.08-.08.14-.06.03 0 .05.03.07.05l.02.07c-.02.22.01.43.1.65l.03.04a.1.1 0 0 0 .1.01.1.1 0 0 0 .03-.03.75.75 0 0 1 .46-.28.9.9 0 0 0 .44-.2c.14-.13.39-.12.48.07.06.15.23.43.2.59-.05.3-.06.57.24.71.03.01.05.02.08.01a.62.62 0 0 1 .21 0h.08c.37-.15.48-.55.38-.9a.1.1 0 0 0-.04-.06.51.51 0 0 1-.23-.3c-.12-.38-.4-.66-.52-1.04a4.24 4.24 0 0 1-.2-1.76c.1.17.21.32.35.45.12.11.2.22.25.32.12.23.2.46.24.7.12.6.25 1.1.59 1.67.06.1.09.22.1.35 0 .08-.03.19-.1.31-.07.14-.13.3-.18.45l-.67.6a.08.08 0 0 0-.03.05c-.03.52.07 1.02.3 1.51.05.1.14.17.25.19.04 0 .08 0 .1-.03.08-.05.1-.12.08-.21l-.38-1.09c-.07-.19 0-.31.2-.36h.11a.4.4 0 0 1 .3.26l.31.84a.7.7 0 0 1-.06.65c-.08.13-.23.13-.32.23a.24.24 0 0 1-.28.06c-.26-.12-.45.04-.66.15-.07.04-.16.08-.25.1-.42.11-.83.25-1.22.4l-.55.02c-.03 0-.05-.02-.05-.05a.57.57 0 0 1 .08-.36c.07-.1.09-.2.06-.3-.04-.13-.1-.14-.17-.02l-.2.34a.08.08 0 0 1-.06.04h-.3a.12.12 0 0 0-.07.03.12.12 0 0 0-.04.08c0 .12.04.23.13.32l.01.02v.02c-.22.24-.04.59-.09.88-.04.25-.2.56-.52.33a.43.43 0 0 1-.14-.2.1.1 0 0 0-.04-.05c-.2-.15-.4-.23-.6-.26-.24-.03-.48-.1-.72-.2a.15.15 0 0 0-.1 0 .14.14 0 0 0-.08.07c-.08.16-.06.3.06.45.18.2.4.43.64.56l.3.18c.21.15.63 0 .69.3a.3.3 0 0 1-.04.2c-.1.19-.08.37.05.55.04.05.06.11.06.18a.07.07 0 0 1-.04.06.08.08 0 0 1-.07 0 5.9 5.9 0 0 1-.46-.22 1.58 1.58 0 0 0-.7-.17.73.73 0 0 1-.38-.14h-.02l-.01.01c-.03.03-.03.05 0 .08.09.1.17.17.24.2.43.2.84.47 1.22.78-.2-.07-.38-.14-.54-.22-.11-.06-.23-.02-.36.1a.07.07 0 0 0-.02.07c.05.16.14.3.29.43.03.03.02.05-.02.06l-.02.02a17.27 17.27 0 0 0 .6.43c.17.1.35.1.52.19.17.08.3-.04.47-.02a9.41 9.41 0 0 1 1.49.25l.04.06a.14.14 0 0 1 0 .13.3.3 0 0 0-.05.14c0 .04 0 .07.03.1l.3.33c.02.03.03.06.03.1-.02.23 0 .46.05.67.05.2 0 .35-.13.5a.09.09 0 0 1-.06.03h-.5c-.09 0-.12.04-.2.07-.04.01-.04.03-.01.06.17.14.25.37.25.58 0 .09.02.17.06.25.22.38.38.68.5.92-.32 0-.56.05-.73.12l-2.72-.03c0-.02-.02-.03-.03-.03a.31.31 0 0 1 .1-.01c.1.02.11 0 .04-.08-.1-.09-.22-.16-.37-.22a7.8 7.8 0 0 1-1.2-.57 14.51 14.51 0 0 1-2.4-1.72 1 1 0 0 1-.17-.2.2.2 0 0 1 0-.22c.41-.7.77-1.43 1.06-2.2l.02-.04v-.06l-.1-.07a1.1 1.1 0 0 0 0-.43 11.76 11.76 0 0 0-.86-2.47.14.14 0 0 1-.04-.07c.04-.06.06-.07.06-.02-.26-.76-.51-1.5-.78-2.19-.03-.1-.1-.14-.21-.15-.64-.02-1.16-.53-1.5-1a4.2 4.2 0 0 1-.4-.87l-.45-1.18a.86.86 0 0 1 0-.4c.05-.15.07-.25.07-.3l.02-.76c0-.03.02-.06.04-.09a.14.14 0 0 1 .1-.04c.25 0 .5-.04.76-.1.2-.05.35 0 .43.16.14.28.26.6.35.94.19.68.44 1.32.75 1.92.24.46 1.05.35.83-.24-.04-.1-.08-.18-.13-.25a8.05 8.05 0 0 1-.6-1.12.28.28 0 0 1-.01-.12c0-.42.02-.84.04-1.25a6.08 6.08 0 0 0-.26-2.14c-.08-.26-.18-.54-.29-.83-.05-.14-.04-.4.03-.79a4.22 4.22 0 0 0 1.36-1.82c.32-.53.57-1.11.73-1.74.1-.35.17-.64.22-.87.04-.18.13-.32.22-.47.06-.1.06-.25.12-.33.17-.26.4-.48.7-.6.17-.07.33-.15.49-.24a.44.44 0 0 1 .27-.05c.13.02.3.09.5.21Z" fill="#E6A391"/><path d="m26.65 25.77.05.14c-.63.13-1.26.23-1.9.3l-.37.13c-.37-.3-.64-.59-.82-.88a.65.65 0 0 1-.05-.54 2 2 0 0 0 .09-.4c.04-.48.18-1.07.4-1.77a.8.8 0 0 1 .44-.51l.7-.32c.33-.15.64.04.95.12.15.04.2.18.2.31.02.28.08.56.18.84.05.13.07.26.06.4 0 .24.02.5-.05.74-.06.24-.14.48-.23.73a.4.4 0 0 0-.02.25c0 .02.02.04.04.05.2.08.3.22.33.4Z" fill="#F7C3BA"/><path d="m18.12 26.72.65-.06a4.8 4.8 0 0 0 2.38-1.01c.49-.4.97-1 1.3-1.54a.54.54 0 0 0 .07-.24.41.41 0 0 1 .06-.1.1.1 0 0 1 .1-.04.1.1 0 0 1 .07.07l.05.14a4.22 4.22 0 0 1-1.36 1.82c-.22.23-.34.5-.36.83-.02.27.09.52.14.79.06.3.13.61.22.94.09.35-.02.44-.28.65a.13.13 0 0 0-.05.11c.02.12.04.24.08.35.09.3.09.66.1.97a.03.03 0 0 1-.02.03.04.04 0 0 1-.03 0h-.03a.1.1 0 0 1-.07-.08c-.07-.3-.22-.98-.6-1.05a.85.85 0 0 0-.33 0c-.2.05-.42.07-.65.05-.15 0-.31.1-.3.27a8.04 8.04 0 0 1-.02.78h-.04a.1.1 0 0 1-.06-.07l-.17-.63c0-.03-.03-.04-.06-.05h-.11c-.03 0-.05.01-.06.05a.97.97 0 0 0 0 .48c.11.35.3.68.57 1l.44 1.17c.16.42.3.7.42.87.33.47.85.98 1.49 1 .1 0 .18.06.21.15.27.7.52 1.43.78 2.19a4.5 4.5 0 0 1-.56-.63c-.12-.16-.36-.23-.56-.24-.65-.03-1.3-.26-1.6-.84a.86.86 0 0 0-.42-.44c-.92-.41-1.2-1.55-1.37-2.4-.22-1-.69-2.2-1.04-3.22-.11-.34-.34-.43-.6-.63a.36.36 0 0 1-.13-.24 3.2 3.2 0 0 1-.01-1.16c.09-.42.2-.9.33-1.4.09-.33.12-.7.1-1.11-.03-.6.06-1.07.43-1.52.03-.05.1-.06.2-.03a.05.05 0 0 1 .03.02v.04a.63.63 0 0 0-.07.37c.08.37-.18.55-.2.88-.02.36-.07.73-.16 1.13-.03.11 0 .2.08.29.08.1.04.24-.08.29-.17.06-.17.29-.08.42.07.11.06.2-.04.29-.1.08-.09.13.04.15.4.08.76.22 1.18.14Z" fill="#5B3328"/><path d="M26.23 29.84v.01c-.06-.03-.1-.05-.1-.08a.06.06 0 0 1 0-.08c.21-.24.44-.4.67-.48.2-.06.38-.15.45-.37.11-.33-.21-.54-.5-.65-.09-.03-.19.04-.2.13a.08.08 0 0 0 .02.07c.13.14.14.3.02.49-.25.38-.75.39-1.05.06a.15.15 0 0 1-.02-.19l.03-.04c.03-.03.06-.02.1.01.07.09.17.13.3.1a.1.1 0 0 0 .06-.03.56.56 0 0 1 .24-.2c.12-.06.11-.1-.02-.14a.25.25 0 0 0-.16.02c-.06.03-.14.01-.17-.04l.06-.07a.1.1 0 0 1 .06-.03c.16-.01.3-.06.45-.14.02-.01.03-.03.03-.05l-.02-.1c-.01-.02-.03-.04-.06-.04-.12 0-.24.01-.37.05v-.14a.05.05 0 0 0-.03-.05c-.02 0-.03-.02-.02-.05a1.6 1.6 0 0 1 1.34.11c.02.02.05.02.08.02.04-.01.07 0 .1.02.02.01.04.01.04-.02a.17.17 0 0 0-.05-.18c-.54-.49-1.15-.37-1.84-.18.03-.21.35-.25.54-.27l.04-.02.02-.03a.08.08 0 0 0-.01-.08l-.08-.08a.13.13 0 0 0-.06-.04 1.68 1.68 0 0 1-.59-.28l.6-.02c.03 0 .06 0 .08-.02a.4.4 0 0 1 .2-.06c.08 0 .15-.02.23-.04.34-.07.71-.14 1.11-.2.15-.03.2-.12.16-.26l-.05-.12a.32.32 0 0 0-.13-.17.34.34 0 0 0-.2-.05l-.83.07-.05-.14c.27 0 .54-.03.8-.07.1-.01.2 0 .27.01.12.04.2.1.24.21.15.35.28.69.2 1.05-.04.17-.06.3-.05.42.02.19.12.46.06.64-.1.24-.2.57-.4.76-.25.26-.47.56-.78.7-.14.06-.27.12-.4.2-.11.07-.23.1-.36.15Z" fill="#CA877A"/><path d="M21.44 25.76c-.07.4-.08.65-.03.79l.3.83c.21.7.29 1.4.25 2.14l-.04 1.25c0 .05 0 .08.02.12.17.4.36.76.59 1.12.05.07.1.16.13.25.22.6-.59.7-.83.24a9.73 9.73 0 0 1-.75-1.92c-.1-.34-.2-.66-.35-.94-.08-.16-.23-.21-.43-.16-.26.06-.51.1-.76.1a.14.14 0 0 0-.1.04.13.13 0 0 0-.04.1c0 .26 0 .5-.02.74 0 .06-.02.16-.06.3a.86.86 0 0 0-.01.41 2.8 2.8 0 0 1-.56-1 .97.97 0 0 1-.01-.47c0-.04.03-.05.06-.05h.1c.04 0 .06.02.07.05l.17.63c.01.03.03.05.06.07h.04a.04.04 0 0 0 .02-.04 8 8 0 0 0 0-.74c-.01-.17.15-.27.3-.27.23.01.44 0 .65-.05a.85.85 0 0 1 .33 0c.38.07.53.74.6 1.04 0 .05.03.07.07.08l.03.01a.04.04 0 0 0 .03 0 .03.03 0 0 0 .02-.03c-.01-.31-.01-.67-.1-.97a1.9 1.9 0 0 1-.08-.35.12.12 0 0 1 .05-.11c.26-.21.37-.3.28-.65-.09-.33-.16-.64-.22-.94-.05-.27-.16-.52-.14-.8.02-.32.14-.59.36-.82Z" fill="#A46355"/><path d="M25.53 26.78c-.39.04-.73.1-1.02.16-.33.07-.57.26-.72.57a.43.43 0 0 1-.12.14.22.22 0 0 1-.14.06h-.01l-.02-.02a.03.03 0 0 1 0-.03l.58-1.13a.2.2 0 0 1 .13-.1.69.69 0 0 0 .22-.1c.17-.06.3-.1.37-.11a31.5 31.5 0 0 0 1.9-.3l.82-.08c.08 0 .15.01.21.05.07.04.11.1.13.17l.05.12c.05.14 0 .23-.16.25a48.96 48.96 0 0 0-1.61.33l-.6.02Z" fill="#804E41"/><path d="M33.2 27.73c-.16.05-.33.11-.5.2-.15.06-.28.1-.4.1-.17 0-.33 0-.49-.04-.35-.07-.48-.3-.39-.71.14-.06.25-.03.32.08.11.18.31.42.55.42.29 0 .5-.13.62-.4.05-.09.05-.2 0-.3-.05-.1-.16-.13-.24-.21a.14.14 0 0 1 0-.2.15.15 0 0 1 .07-.04c.24-.06.48-.04.6.2.11.22.14.46.09.73-.04.14-.11.2-.23.17Z" fill="#E99D9B"/><path d="M31.42 27.28c-.09.4.04.64.4.71.15.04.31.05.48.04.12 0 .25-.04.4-.1.17-.09.34-.15.5-.2.03.03.05.06.05.09.01.02 0 .04-.05.06a4.22 4.22 0 0 0-.16.1.08.08 0 0 0 .03.12c.41.25.77-.16.9-.5.08-.19.22-.3.42-.34.08-.01.16-.02.22.05.35.43.46.9.32 1.4a.6.6 0 0 1-.2.3c-.14.13-.29.24-.43.34-.1.06-.15.16-.19.3-.14.6-.07 1.2-.02 1.78 0 .13.07.34.13.5l.3.77v.08l-.07.22a.1.1 0 0 1-.03.04.1.1 0 0 1-.14.01 4.39 4.39 0 0 0-1.1-.6c-.37-.13-.26-.43-.4-.7a1.15 1.15 0 0 1-.1-.25 1.2 1.2 0 0 0-.09-.23l-.57-1.17a4.22 4.22 0 0 0-.42-.7 51.7 51.7 0 0 0-.77-1.03.07.07 0 0 1 .02-.05l.02-.02a.87.87 0 0 0 .36-.3.12.12 0 0 0 .02-.07c0-.15-.06-.3-.05-.45.02-.17.09-.24.22-.2Z" fill="#CA877A"/><path d="M34.98 27.27c.22.26.38.52.48.77.02.07.04.15.04.24 0 .07.02.15.05.23.03.08.04.16.03.23-.06.45-.08.9-.06 1.34.01.24 0 .44-.02.6-.07.5-.04.89-.03 1.33a1 1 0 0 1-.08.36c-.05.14-.08.3-.1.46 0 .32-.17.6-.17.9 0 .36-.03.65-.14 1.01a5.2 5.2 0 0 0-.15.77 22.4 22.4 0 0 0-.17 2.17c0 .1-.01.19-.03.27-.05.23 0 .44-.1.66-.23.52-.55.81-.97 1.16-.14.12-.3.23-.47.32a23.54 23.54 0 0 0-1 .56.15.15 0 0 0 .02.2l.53.49c.2.18.34-.01.46-.13a.12.12 0 0 0 .04-.08l.02-.34c.02-.3.38-.54.64-.64.12-.05.18-.2.3-.21.1-.02.16.02.2.12.1.24.19.5.24.77.03.15.16.24.19.43l.29 2.2-.65.29c-.08-.46-.18-.9-.29-1.35-.03-.14-.22-.43-.36-.48a.3.3 0 0 0-.4.17.6.6 0 0 1-.27.3c-.15.07-.27.18-.38.33a.17.17 0 0 1-.13.07.18.18 0 0 1-.14-.07l-.11-.13a.1.1 0 0 1-.02-.08c.03-.2-.03-.4-.2-.57a.38.38 0 0 0-.22-.12c-.28-.05-.51-.06-.71-.05a.14.14 0 0 0-.08.03.99.99 0 0 0-.42.84 3.32 3.32 0 0 1-.05.57l-.03.03c-.2.15-.25.35-.13.59.08.15.14.3.19.48 0 .03.02.05.04.07l.08.05c.17.05.32.13.46.24l-1.21.21c-.12-.24-.28-.54-.5-.92a.5.5 0 0 1-.06-.25.77.77 0 0 0-.25-.59c-.03-.02-.03-.04 0-.05.09-.03.12-.08.21-.07a5.84 5.84 0 0 0 .53 0l.03-.03c.13-.15.18-.3.13-.5a2.03 2.03 0 0 1-.05-.68L30 41.7l-.3-.34a.13.13 0 0 1-.03-.09c0-.05.01-.1.04-.14a.14.14 0 0 0-.03-.19 9.42 9.42 0 0 0-1.48-.26c-.18 0-.31.1-.48.03-.17-.08-.35-.1-.52-.2a17.27 17.27 0 0 1-.6-.42l.02-.02c.04-.01.05-.03.02-.06a.93.93 0 0 1-.3-.43c0-.03 0-.05.03-.07.13-.12.25-.16.36-.1.16.08.34.15.54.22.17.12.36.23.58.33l.45.24a3 3 0 0 0 1.7.37l.44-.1c.2-.04.31-.17.53-.16.26 0 .22-.16.34-.28a.08.08 0 0 1 .06-.03c.43 0 .77-.1 1.01-.28.3-.23.57-.51.84-.86.09-.1.19-.18.32-.23a.17.17 0 0 0 .09-.1c.06-.14.1-.31.12-.5.04-.3-.13-.55-.44-.58-.4-.04-.76-.02-1.07.07-.33.1-.7.21-1.05.16a2.35 2.35 0 0 0-.86-.03.04.04 0 0 1-.02-.02v-.02l.02-.13c0-.03 0-.06-.02-.08a.13.13 0 0 0-.07-.06l-.28-.09c-.26-.16-.5-.34-.7-.56-.02-.02-.01-.03.01-.02.31.07.67.2.92.42.17.14.4.18.71.1a.1.1 0 0 0 .06-.02.4.4 0 0 1 .26-.15c.21-.02.43-.06.64-.13.2-.06.4-.06.6-.1l.1-.06a.49.49 0 0 1 .22-.17c.15-.05.2-.24.1-.36-.19-.25-.18-.5.03-.78a.12.12 0 0 0 0-.14.15.15 0 0 0-.12-.08c-.03 0-.07 0-.1.02-.71.4-1.31.8-2.02.6-.45-.14-.93.01-1.34.2h-.1l-.08-.07v-.02c.02 0 .02-.02.03-.04.4-.15.8-.28 1.22-.39.1-.02.18-.06.25-.1.21-.1.4-.27.66-.15a.24.24 0 0 0 .28-.06c.09-.1.24-.1.32-.23a.7.7 0 0 0 .06-.65l-.3-.84a.4.4 0 0 0-.3-.26h-.12c-.2.05-.27.17-.2.36l.38 1.09c.03.09 0 .16-.08.21a.13.13 0 0 1-.1.03.3.3 0 0 1-.25-.19c-.23-.5-.33-1-.3-1.5 0-.03.01-.05.03-.06l.67-.6c.16-.21.3-.44.41-.7a.72.72 0 0 1 .16-.25c.21-.17.58.1.57.34 0 .34.06.67.2 1 .03.08.1.14.19.17l.6.22c.14.04.28.06.43.06.3 0 .52.15.66.4a.03.03 0 0 0 .03.01.03.03 0 0 0 .03-.01c.03-.08.08-.15.08-.24.02-.39 0-.7-.06-.95l-.26-1.07c-.1-.42-.08-1.03.25-1.37.13-.14.32-.22.38-.41.03-.1.08-.2.13-.3a1 1 0 0 0 .12-.33 6.43 6.43 0 0 0 .08-.87l-.42-.98Z" fill="#804E41"/><path d="m29.87 27.6.27.7c-.05.6.02 1.2.2 1.76.13.38.4.66.53 1.05.04.12.11.22.23.3a.1.1 0 0 1 .04.05c.1.35-.01.75-.38.9a.15.15 0 0 1-.08 0 .62.62 0 0 0-.21 0h-.08c-.3-.16-.3-.42-.24-.72.03-.16-.14-.44-.2-.6-.1-.18-.34-.19-.48-.06a.9.9 0 0 1-.44.2.75.75 0 0 0-.46.28.1.1 0 0 1-.09.04.1.1 0 0 1-.07-.06 1.4 1.4 0 0 1-.1-.65c0-.02 0-.05-.02-.07a.12.12 0 0 0-.07-.05c-.06-.02-.1 0-.14.06a.96.96 0 0 0-.15.48c0 .02-.01.05-.03.06-.22.2-.13.57-.31.8l-.2.2a.18.18 0 0 0-.07.16 4.45 4.45 0 0 1-.17 1.75.13.13 0 0 1-.1.05l-.05-.01a.43.43 0 0 1-.22-.18c-.17-.28-.3-.57-.43-.85a2 2 0 0 0-.62-.81 2.8 2.8 0 0 1-.3-.28c-.3-.31-.68-.48-1.15-.5-.45-.02-.76-.3-.75-.76 0-.16.08-.29.23-.39a.1.1 0 0 0 .05-.07c.02-.2.06-.43.11-.65.06-.2.18-.31.38-.32.02 0 .05 0 .07-.02.16-.1.32-.14.5-.12.03 0 .05.02.07.04.14.15.25.25.33.28a4.58 4.58 0 0 0 1.16.29c.43-.14.87-.2 1.3-.17.05 0 .1-.01.12-.04a.34.34 0 0 1 .2-.09.11.11 0 0 0 .1-.06.7.7 0 0 1 .21-.27.15.15 0 0 0 .05-.07c.04-.1.1-.2.18-.3a.14.14 0 0 0 .03-.07c.05-.4-.07-.87.47-.98a.1.1 0 0 0 .06-.04l.26-.39c.02-.03.05-.04.09-.01.02.02.05.02.08 0s.06-.01.08.01l.2.2Z" fill="#F7C3BA"/><path d="M26 27.81a.53.53 0 0 0-.21.06c-.58.1-.86.44-1.24.79a.1.1 0 0 1-.07.02h-.1l-.04-.01a.07.07 0 0 1-.04-.07 2.23 2.23 0 0 1 1.36-1.02c.7-.19 1.31-.31 1.85.18.06.05.07.11.05.18 0 .03-.02.03-.04.02a.12.12 0 0 0-.1-.02c-.03 0-.06 0-.08-.02a1.6 1.6 0 0 0-1.34-.11Z" fill="#5B3328"/><path d="M25.9 28.43a.13.13 0 0 0-.05-.03 25.84 25.84 0 0 0-.7.22c-.03.01-.06 0-.08-.02l-.01-.03v-.02c.22-.24.48-.4.8-.48.07.01.14 0 .2-.02.12-.04.24-.05.36-.05.03 0 .05.02.06.05l.02.09c0 .02 0 .04-.03.05-.14.08-.3.13-.45.14a.1.1 0 0 0-.06.03l-.06.07ZM35.58 28.74c.74 1.65.53 4.72.12 6.5a12.34 12.34 0 0 0-.36 2.62c0 .57.17 1.49.18 1.5a4.46 4.46 0 0 1 .25 1.56c.01.71.04 1.43.07 2.14l-.82.4-.3-2.2c-.02-.2-.15-.28-.18-.43a3.4 3.4 0 0 0-.24-.77c-.04-.1-.1-.14-.2-.12-.12.02-.18.16-.3.2-.26.11-.62.35-.64.65 0 .11 0 .22-.02.34 0 .03-.01.05-.04.08-.12.12-.27.31-.46.13a267.07 267.07 0 0 1-.57-.55v-.07a.15.15 0 0 1 .07-.11c.3-.18.62-.35.95-.52.17-.1.33-.2.47-.32.42-.35.74-.64.97-1.16.1-.22.05-.43.1-.66a22.44 22.44 0 0 1 .2-2.44c.04-.25.08-.52.15-.77.1-.36.14-.65.14-1.01 0-.3.16-.58.18-.9 0-.17.04-.32.1-.46a1 1 0 0 0 .07-.36c0-.44-.04-.83.03-1.33.02-.16.03-.36.02-.6-.02-.44 0-.89.06-1.34Z" fill="#5B3328"/><path d="M20.44 31.02c-.02.5.16.9.57 1.22a1.6 1.6 0 0 1 .37.45.06.06 0 0 1-.02.06l-.02.01c-.16.05-.3.01-.42-.08a9.6 9.6 0 0 1-.58-.45 1.02 1.02 0 0 1-.33-.54l-.18-.75c-.07-.35.2-.47.38-.69.1-.13.27-.1.36.03.17.24.14.46-.1.68a.1.1 0 0 0-.03.06Z" fill="#A46355"/><path d="M30.12 32.82c-.23.1-.51.19-.72.33-.13.09-.18.06-.16-.09.03-.2.23-.56.47-.6.17-.01.32.03.44.12a.14.14 0 0 1 .06.13.14.14 0 0 1-.09.11Z" fill="#5B3328"/><path d="m29.18 35.9-.03.03v.02l.08.07c-.01 0-.03 0-.04.03 0 .03-.02.04-.04.05-.5.22-1 .88-.62 1.41.01.02.03.04.06.05.12.05.2.14.2.27-.02.18.06.32.26.44s.39.1.57-.07c.09-.09.1-.22.13-.33.01-.03.03-.04.05-.05.1-.01.2-.06.29-.15.1-.09.07-.24-.06-.28a.1.1 0 0 1-.06-.05.1.1 0 0 1 0-.09l.27.1c.03 0 .05.02.07.05.02.02.02.05.02.08l-.03.13v.02a.04.04 0 0 0 .03.02h.02c.29-.05.56-.02.84.03.35.05.72-.06 1.05-.16.31-.09.67-.11 1.07-.07.31.03.48.28.44.57-.02.2-.06.37-.12.51a.17.17 0 0 1-.1.1.76.76 0 0 0-.3.23 4.8 4.8 0 0 1-.85.86c-.24.18-.58.28-1 .28-.03 0-.05 0-.07.03-.12.12-.08.29-.34.28-.22-.01-.34.12-.53.17l-.43.1a3 3 0 0 1-1.7-.37 4.08 4.08 0 0 0-.46-.25c-.22-.1-.41-.21-.58-.33a5.61 5.61 0 0 0-1.22-.78.85.85 0 0 1-.25-.2c-.02-.03-.02-.05 0-.08l.02-.01h.02c.14.09.27.14.39.14.24.01.47.06.69.17a5.93 5.93 0 0 0 .5.23.08.08 0 0 0 .06-.04v-.03a.27.27 0 0 0-.05-.18c-.13-.18-.15-.36-.05-.54a.3.3 0 0 0 .04-.22c-.06-.29-.48-.14-.69-.29l-.3-.19a2.3 2.3 0 0 1-.64-.55c-.12-.14-.14-.3-.06-.45a.14.14 0 0 1 .08-.07.15.15 0 0 1 .1 0c.24.1.48.17.72.2.2.02.4.11.6.26a.1.1 0 0 1 .04.05c.04.09.09.16.14.2.32.23.48-.08.52-.33.05-.3-.13-.64.09-.88V36a.38.38 0 0 1-.14-.32c0-.03.01-.06.04-.08a.12.12 0 0 1 .08-.03h.29c.03 0 .05-.02.07-.04l.2-.34c.06-.12.12-.11.16.02.03.1 0 .2-.06.3-.06.1-.1.24-.08.36 0 .03.02.05.05.05l.55-.03Z" fill="#CA877A"/><path d="M29.96 37.25a.1.1 0 0 0 0 .1.1.1 0 0 0 .07.04c.13.04.16.19.06.28a.57.57 0 0 1-.29.15.07.07 0 0 0-.05.05c-.04.1-.04.24-.13.33-.18.16-.37.19-.57.07-.2-.12-.28-.26-.27-.44.02-.13-.07-.22-.2-.27a.13.13 0 0 1-.05-.05c-.38-.53.11-1.19.62-1.4a.09.09 0 0 0 .04-.06l.04-.03h.1c.41-.19.89-.34 1.34-.2.7.2 1.3-.2 2.02-.6a.18.18 0 0 1 .1-.02c.06 0 .1.03.13.08a.12.12 0 0 1-.01.14c-.2.27-.22.53-.03.78.1.12.05.3-.1.36a.49.49 0 0 0-.22.17.16.16 0 0 1-.1.05c-.2.04-.4.05-.6.1-.21.08-.43.12-.64.14a.4.4 0 0 0-.26.14.1.1 0 0 1-.06.04c-.3.07-.54.03-.71-.11-.25-.22-.61-.35-.92-.42-.02 0-.03 0 0 .02.2.22.43.4.7.56Z" fill="#E99D9B"/><path d="M35.75 39.21c.32.04.64.08.95.14.27.04.54.13.79.24l1.2.57c.24.12.57.2 1 .23-.07.11-.14.18-.21.2a20.13 20.13 0 0 1-3.63 2.46c-.04-.7-.06-1.42-.08-2.13a4.45 4.45 0 0 0-.26-1.6.1.1 0 0 1 .07-.07.1.1 0 0 1 .04-.01c.04 0 .08 0 .13-.03Z" fill="#1C1318"/><path d="M23.57 39.72c-.3.77-.65 1.5-1.06 2.2a.2.2 0 0 0 0 .21c.05.08.1.15.18.21.7.63 1.5 1.2 2.4 1.72.4.24.8.43 1.19.57.15.06.27.13.37.22.07.07.06.1-.04.08h-.1c-.2.01-.38 0-.57-.02-1.8-.24-3.51-.7-5.16-1.42-.1-.05-.27-.06-.34-.19l.05-.01.07-.04c.25-.21.52-.41.8-.6.25-.16.48-.37.68-.61a9.93 9.93 0 0 0 1.44-2.28c.02-.04.05-.06.09-.04Z" fill="#40343E"/><path d="M34.37 43.75c-1 .4-2.06.7-3.16.92-.15-.11-.3-.2-.47-.24a.19.19 0 0 1-.08-.05.18.18 0 0 1-.04-.07 2.86 2.86 0 0 0-.2-.48c-.11-.24-.07-.44.14-.6a.12.12 0 0 0 .05-.07c.02-.17.03-.34.03-.52 0-.35.14-.62.42-.84a.14.14 0 0 1 .08-.03c.2-.01.43 0 .7.04.1.02.18.06.24.13.16.18.22.37.19.57 0 .03 0 .06.02.08l.1.13a.17.17 0 0 0 .15.07.18.18 0 0 0 .13-.07c.1-.15.23-.26.38-.34a.6.6 0 0 0 .28-.3.3.3 0 0 1 .39-.16c.14.05.33.34.36.48l.3 1.35Z" fill="#CA877A"/></svg>