<svg width="56" height="56" viewBox="0 0 56 56" xmlns="http://www.w3.org/2000/svg"><path fill-rule="evenodd" d="M16.5 11.04 16 11l-.24.47a7.24 7.24 0 0 0-.45 5.34c.43 1.58 1.35 3.1 1.98 3.87l2.2 21.4A3.2 3.2 0 0 0 22.62 45h10.29a3.2 3.2 0 0 0 3.12-2.9l2.5-23.1h-4.57l1.23-5H39v-2h-5.52l-1.72 7h-6.3c.88-1.48 1.48-3.9.2-6.85l-.17-.42-.44-.06c-.84-.12-2.5.14-4 1.57a7.12 7.12 0 0 0-4.54-2.2ZM23.2 19a6 6 0 0 0 1.11-5.39c-.57.07-1.25.3-2.15 1.23.6 1.16.76 2.44.54 4.16h.5Zm-2.34 0a5.86 5.86 0 0 0-.73-4.04c-.87-1.32-1.92-1.68-3.07-1.9-.47 1.2-.32 2.09 0 3.25.3 1.09.8 2.04 1.25 2.69h2.55Zm-1.66 2h12.07l-.74 3H19.51l-.31-3Zm2.19 20.91L19.72 26h16.05l-1.75 15.91c-.09.83-.76 1.09-1.56 1.09h-9.5c-.81 0-1.49-.26-1.57-1.09ZM32.72 24H36l.33-3h-2.86l-.74 3ZM28 38h-2v2h2v-2Zm-4-2v6h6v-6h-6Zm4-5.16 1.42-1.41 1.42 1.41-1.42 1.41-1.41-1.4Zm1.42 4.24-4.24-4.24 4.24-4.24 4.24 4.24-4.24 4.24Z" fill="url(#bjtv2iqzg)"/><defs><linearGradient id="ajtv2iqzg" x1="10.42" y1="9.71" x2="68.15" y2="76.02" gradientUnits="userSpaceOnUse"><stop stop-color="#1A1E21"/><stop offset="1" stop-color="#06060A"/></linearGradient><linearGradient id="bjtv2iqzg" x1="15" y1="28" x2="39" y2="28" gradientUnits="userSpaceOnUse"><stop stop-color="#1E8544"/><stop offset="1" stop-color="#2AB28C"/></linearGradient></defs></svg>