<svg width="56" height="56" viewBox="0 0 56 56" xmlns="http://www.w3.org/2000/svg"><path d="M17.69 32.17c-1.3.3-2.18.98-2.49 1.86-.31.88-.06 1.92.75 2.93.8 1 2.12 1.92 3.78 2.5 1.66.59 3.3.67 4.58.37 1.3-.3 2.18-.98 2.49-1.86.31-.88.06-1.92-.75-2.93-.8-1-2.12-1.92-3.78-2.5a8.33 8.33 0 0 0-4.58-.37Zm-.26-.97a9.47 9.47 0 0 1 5.21.4 9.52 9.52 0 0 1 4.27 2.84c.94 1.18 1.36 2.56.9 3.85-.46 1.3-1.71 2.15-3.24 2.5a9.47 9.47 0 0 1-5.21-.39 9.52 9.52 0 0 1-4.27-2.84c-.94-1.18-1.36-2.56-.9-3.85.46-1.3 1.71-2.15 3.24-2.5ZM10.7 21.9c-.98.15-1.56.56-1.73 1.1-.18.5.03 1.18.72 1.9.67.71 1.73 1.38 3.02 1.84 1.34.41 2.61.51 3.59.36.99-.15 1.56-.55 1.74-1.04.17-.51-.04-1.19-.73-1.91a7.76 7.76 0 0 0-3.02-1.83 7.8 7.8 0 0 0-3.59-.43Zm-.15-.83a8.78 8.78 0 0 1 4.05.47c1.42.5 2.61 1.24 3.4 2.06.77.82 1.21 1.8.9 2.7-.32.93-1.31 1.44-2.45 1.62a9.22 9.22 0 0 1-4.04-.4h-.01A8.66 8.66 0 0 1 9 25.45c-.77-.81-1.21-1.79-.9-2.7.32-.96 1.3-1.5 2.45-1.68ZM36.07 32.89c-1.04.03-1.72.37-2 .88-.26.5-.15 1.24.45 2.1.58.84 1.58 1.7 2.84 2.34 1.3.64 2.58.93 3.6.9 1.03-.03 1.7-.37 1.96-.88.27-.5.16-1.24-.44-2.1a7.85 7.85 0 0 0-2.84-2.34 7.66 7.66 0 0 0-3.57-.9Zm-.03-.89c1.23-.03 2.67.3 4.04 1.01 1.37.7 2.5 1.65 3.18 2.63.68.97 1 2.07.5 3-.5.91-1.57 1.32-2.77 1.36a8.9 8.9 0 0 1-4.07-1v-.01a8.76 8.76 0 0 1-3.18-2.63c-.68-.97-1-2.07-.5-3 .5-.92 1.6-1.32 2.8-1.36Z" fill="#1A47DE"/><path fill-rule="evenodd" d="M27.55 22.97c-.88.11-1.39.48-1.55.92-.17.42-.02 1.04.58 1.75a7.01 7.01 0 0 0 2.7 1.83h.01c1.17.51 2.3.67 3.16.56.88-.11 1.39-.48 1.55-.92.17-.42.02-1.04-.58-1.75a7.01 7.01 0 0 0-2.7-1.83h-.01a6.19 6.19 0 0 0-3.16-.56Zm3.52-.3a7.1 7.1 0 0 0-3.63-.63c-1.04.13-1.97.61-2.31 1.51-.35.91.06 1.9.74 2.7.7.82 1.78 1.58 3.06 2.09a7.1 7.1 0 0 0 3.63.62c1.04-.13 1.97-.61 2.31-1.51.35-.91-.06-1.9-.74-2.7a7.93 7.93 0 0 0-3.06-2.09Z" fill="#1A47DE"/><path d="M39.93 24.4c-.1.32.01.8.54 1.4.52.6 1.35 1.2 2.4 1.67a6.8 6.8 0 0 0 2.84.66c.8-.02 1.22-.26 1.36-.52.1-.3-.01-.79-.54-1.39a7.15 7.15 0 0 0-2.4-1.66 7.05 7.05 0 0 0-2.85-.7c-.8.02-1.2.26-1.35.55Zm1.34-1.4c.95-.01 2.1.26 3.23.77a8.03 8.03 0 0 1 2.71 1.9c.6.68.98 1.5.7 2.26l-.02.02v.02c-.36.72-1.24 1-2.16 1.03a7.7 7.7 0 0 1-3.23-.74 8.03 8.03 0 0 1-2.71-1.9c-.6-.68-.98-1.5-.7-2.26l.01-.02h.01c.35-.78 1.24-1.07 2.16-1.08ZM20.46 15.93c-.89.07-1.32.36-1.44.67-.12.3 0 .8.62 1.4.59.58 1.54 1.15 2.73 1.57 1.2.41 2.32.57 3.17.5.89-.07 1.32-.36 1.44-.67.12-.3 0-.8-.62-1.4a7.54 7.54 0 0 0-2.73-1.57 8.07 8.07 0 0 0-3.17-.5Zm-.09-.91a9.1 9.1 0 0 1 3.6.56c1.3.45 2.38 1.09 3.1 1.79.7.68 1.15 1.53.82 2.35-.32.82-1.27 1.18-2.26 1.26a9.1 9.1 0 0 1-3.6-.56 8.51 8.51 0 0 1-3.1-1.79c-.7-.68-1.15-1.53-.82-2.35.32-.82 1.27-1.18 2.26-1.26Z" fill="#1A47DE"/><path fill-rule="evenodd" d="M34.23 16.97c-.8.03-1.1.28-1.18.48v.02l-.01.02c-.1.23-.04.67.5 1.27a6.97 6.97 0 0 0 2.4 1.6c1.03.48 2.02.69 2.77.67.78-.03 1.15-.28 1.25-.52.1-.23.04-.67-.5-1.27a6.97 6.97 0 0 0-2.4-1.6 6.77 6.77 0 0 0-2.83-.67Zm3.24-.21A7.76 7.76 0 0 0 34.2 16c-.89.03-1.79.32-2.08 1.12-.34.78.09 1.62.69 2.28.63.7 1.59 1.36 2.72 1.84 1.13.53 2.27.78 3.2.76.9-.03 1.8-.33 2.14-1.1.35-.78-.07-1.64-.68-2.3a7.94 7.94 0 0 0-2.72-1.84Z" fill="#1A47DE"/><path d="M29 27.65 23.83 33l-.83-.65L28.17 27l.83.65ZM18 32l-2.5-4 .87-.5 2.5 4-.87.5ZM33.59 36.2l-6.5.8-.09-1.2 6.5-.8.09 1.2ZM43 28.44l-3.5 4.98-.92-.44 3.5-4.98.92.44ZM34.78 33.1 32 28.6l.72-.6 2.78 4.5-.72.6ZM40 26h-5.5l-.5-1h5.5l.5 1ZM40 24l-1.5-2.5.39-.5 1.61 2.5-.5.5ZM32 23.34 34.32 20l.68.66L32.68 24l-.68-.66ZM26.22 23 25 20.73l.78-.73L27 22.27l-.78.73ZM32.5 19H27v-1h5.5v1ZM16 22.3l4.34-3.3.66.7-4.34 3.3-.66-.7ZM25.98 26H18.5v-1h7.48v1Z" fill="#1A47DE"/></svg>