<svg width="56" height="56" viewBox="0 0 56 56" xmlns="http://www.w3.org/2000/svg"><path d="M28 31a10 10 0 1 0 0-20 10 10 0 0 0 0 20Zm10.97-10.77c4.4 2.1 7.23 5.44 7.23 9.19 0 4.29-3.7 8.03-9.2 10.01a5.43 5.43 0 0 1-.75 2.37C43.18 39.66 48 34.92 48 29.42c0-4.87-3.78-9.14-9.45-11.54.22.75.37 1.54.42 2.35Zm4.01 9.92c0 3.23-2.39 6.09-6.08 7.87a5.6 5.6 0 0 0-.75-1.86c2.24-1.3 3.64-3.15 3.64-5.19 0-1.62-.88-3.1-2.36-4.3a10.93 10.93 0 0 0 1.32-3.33c2.62 1.76 4.23 4.16 4.23 6.81Zm-7.16 8.35a4.77 4.77 0 0 0-.64-1.84A17.13 17.13 0 0 1 28 38.15c-2.7 0-5.2-.56-7.18-1.49a4.77 4.77 0 0 0-.64 1.84c2.28.91 4.95 1.44 7.82 1.44s5.54-.53 7.82-1.44Zm1.36-7.1c0 1.4-.69 2.68-1.85 3.71a8.44 8.44 0 0 0-2.33-1.7c.1-.25.14-.51.14-.78 0-.58-.21-1.13-.59-1.61 1.34-.61 2.53-1.48 3.52-2.55.71.88 1.11 1.88 1.11 2.94Zm-2.67 4.35a7.2 7.2 0 0 0-1.96-1.51c-.86 1.1-2.58 1.84-4.55 1.84-1.97 0-3.69-.75-4.55-1.84a7.2 7.2 0 0 0-1.96 1.5A11.78 11.78 0 0 0 28 37.57c2.54 0 4.85-.7 6.5-1.81Zm-11.65-3.12c0 .27.05.53.14.79-.9.45-1.7 1.03-2.33 1.7a4.98 4.98 0 0 1-1.85-3.71c0-1.06.4-2.06 1.1-2.94a11.03 11.03 0 0 0 3.53 2.55c-.38.48-.59 1.03-.59 1.6Zm-6.65-1.66c0 2.04 1.4 3.88 3.64 5.19a5.6 5.6 0 0 0-.75 1.86c-3.7-1.78-6.08-4.64-6.08-7.87 0-2.65 1.6-5.05 4.23-6.81.26 1.19.7 2.3 1.32 3.32-1.48 1.2-2.36 2.7-2.36 4.31Zm-6.4-1.55c0 4.29 3.7 8.03 9.2 10.01.05.84.32 1.64.74 2.37C12.82 39.66 8 34.92 8 29.42c0-4.87 3.78-9.14 9.45-11.54-.22.75-.37 1.54-.42 2.35-4.4 2.1-7.23 5.44-7.23 9.19ZM28 40.94c-2.79 0-5.43-.4-7.79-1.11.15.88.56 1.7 1.16 2.4a28.63 28.63 0 0 0 13.25 0 5.06 5.06 0 0 0 1.17-2.4c-2.36.7-5 1.1-7.79 1.1Z" fill="#fff"/></svg>