<svg width="56" height="56" viewBox="0 0 56 56" xmlns="http://www.w3.org/2000/svg"><path d="m21.97 19-.88 2.7 5.6 4.08L22.24 29 17 25.17 19 19h2.97Zm1.04 0 4.49 3.27v2.88l-5.25-3.82.76-2.33Zm-.75 11.21-.01.04 5.25 3.82V26.4l-5.24 3.8v.01Zm.96 1.97 4.27 3.11h.01V39l-5.25-3.82.98-3Z" fill="#E1AA00"/><path d="M34.03 19H37l2 6.19L33.75 29l-4.42-3.23 5.58-4.05-.88-2.72Zm-5.53 3.27L33 19l.75 2.33-5.25 3.81v-2.88Zm5.24 7.94-5.23-3.8h-.01v7.66l5.25-3.82-.01-.04ZM28.5 35.3l4.28-3.11.97 3L28.5 39v-3.71Z" fill="#FFC800"/><path fill-rule="evenodd" d="M28 44a16 16 0 1 0 0-32 16 16 0 0 0 0 32Zm0 1a17 17 0 1 0 0-34 17 17 0 0 0 0 34Z" fill="#FFC800"/><defs><linearGradient id="akai2rmto" x1="10.42" y1="9.71" x2="68.15" y2="76.02" gradientUnits="userSpaceOnUse"><stop stop-color="#1A1E21"/><stop offset="1" stop-color="#06060A"/></linearGradient></defs></svg>