<svg width="56" height="56" viewBox="0 0 56 56" xmlns="http://www.w3.org/2000/svg"><path d="m25.3 18.76-2.37-2.43L10 29l11.86 12.14 12.93-12.66-2.37-2.43-10.5 10.29-7.12-7.29 10.5-10.29Z" fill="url(#adifssfoa)"/><path d="M23.74 15.54 29.4 10l2.37 2.43-5.66 5.54-2.37-2.43Z" fill="url(#bdifssfoa)"/><path d="m30.7 37.24 2.37 2.43L46 27 34.14 14.86 21.21 27.52l2.37 2.43 10.5-10.29 7.12 7.29-10.5 10.29Z" fill="url(#cdifssfoa)"/><path d="M32.26 40.46 26.6 46l-2.37-2.43 5.66-5.54 2.37 2.43Z" fill="url(#ddifssfoa)"/><defs><linearGradient id="adifssfoa" x1="20.69" y1="20.69" x2="35.88" y2="36.44" gradientUnits="userSpaceOnUse"><stop stop-color="#208DFB"/><stop offset="1" stop-color="#6F14F7"/></linearGradient><linearGradient id="bdifssfoa" x1="20.69" y1="20.69" x2="35.88" y2="36.44" gradientUnits="userSpaceOnUse"><stop stop-color="#208DFB"/><stop offset="1" stop-color="#6F14F7"/></linearGradient><linearGradient id="cdifssfoa" x1="20.69" y1="20.69" x2="35.88" y2="36.44" gradientUnits="userSpaceOnUse"><stop stop-color="#208DFB"/><stop offset="1" stop-color="#6F14F7"/></linearGradient><linearGradient id="ddifssfoa" x1="20.69" y1="20.69" x2="35.88" y2="36.44" gradientUnits="userSpaceOnUse"><stop stop-color="#208DFB"/><stop offset="1" stop-color="#6F14F7"/></linearGradient></defs></svg>