<svg width="56" height="56" viewBox="0 0 56 56" xmlns="http://www.w3.org/2000/svg"><path d="M13.44 26 12 30h13.95l-3.61 14h4.22l3.94-14h8.16l-.6 2h-6.03l-.86 4 3.05 8h5.09l-3.35-8h4.16c.61 0 1.15-.22 1.31-.81l2.53-8.29c.18-.64-.3-.9-.98-.9H30.5l1.5-5.81c.18-.65-.31-1.19-.98-1.19h-11.1l.66-2h12.6c.3 0 1.03-2.45 1.35-4H18.48c-.6 0-1.13.39-1.3.96l-2.74 8.02c-.2.65.29 1.02.97 1.02h11.15l-.6 3H13.43Z" fill="url(#b5qe5xyrw)"/><defs><linearGradient id="a5qe5xyrw" x1="10.42" y1="9.71" x2="68.15" y2="76.02" gradientUnits="userSpaceOnUse"><stop stop-color="#1A1E21"/><stop offset="1" stop-color="#06060A"/></linearGradient><linearGradient id="b5qe5xyrw" x1="28" y1="12" x2="28" y2="44" gradientUnits="userSpaceOnUse"><stop stop-color="#238FE2"/><stop offset=".26" stop-color="#A2D857"/><stop offset=".49" stop-color="#FFF902"/><stop offset=".69" stop-color="#F2B43C"/><stop offset="1" stop-color="#AB24D1"/></linearGradient></defs></svg>