<svg width="56" height="56" viewBox="0 0 56 56" xmlns="http://www.w3.org/2000/svg"><path d="M20 23.5v-9L12 19l8 4.5Z" fill="#A62222"/><path d="M20 32.5v-9L12 28l8 4.5Z" fill="#EE8622"/><path d="M20 41.5v-9L12 37l8 4.5Z" fill="#A62222"/><path d="M44 37v-9l-8 4.5 8 4.5ZM36 32.5v-9L28 28l8 4.5ZM36 41.5v-9L28 37l8 4.5Z" fill="#E23C25"/><path d="M28 46v-9l-8 4.5 8 4.5Z" fill="#EE8622"/><path d="M44 28v-9l-8 4.5 8 4.5Z" fill="#FAC211"/><path d="M28 19v-9l-8 4.5 8 4.5Z" fill="#EE8622"/><path d="M20 23.5v-9l8 4.5-8 4.5Z" fill="#E23C25"/><path d="M20 32.5v-9l8 4.5-8 4.5ZM28 46v-9l8 4.5-8 4.5Z" fill="#FAC211"/><path d="M12 28v-9l8 4.5-8 4.5ZM12 37v-9l8 4.5-8 4.5Z" fill="#E23C25"/><path d="M28 19v-9l8 4.5-8 4.5Z" fill="#FAC211"/><path d="M36 23.5v-9l8 4.5-8 4.5ZM36 32.5v-9l8 4.5-8 4.5Z" fill="#EE8622"/><path d="M36 41.5v-9l8 4.5-8 4.5Z" fill="#A62222"/></svg>