<svg width="56" height="56" viewBox="0 0 56 56" xmlns="http://www.w3.org/2000/svg"><path d="M37.83 28.54h-.06c-.01-.04 0-.1.01-.18.03-.1-.03-.26-.16-.5a4.72 4.72 0 0 0-.03-.06.07.07 0 0 0-.07-.04l-.9.11c-.21.03-.41.1-.6.19a.16.16 0 0 1-.18-.02c-.06-.05-.13-.06-.22-.05-.36.03-.7-.02-1-.16.08-.07.2-.1.35-.08l.3.04c.3.05.52.06.67.04l1.4-.17a.75.75 0 0 0 .34-.12l.71-.49c.34-.22.43-.52.28-.9-.08-.2-.22-.24-.44-.14-1.8.8-3.69 1.17-5.66 1.1-.04 0-.07-.01-.1-.05.15-.04.3-.06.44-.06a11.49 11.49 0 0 0 4.06-.67c.42-.17.84-.32 1.25-.47.02-.01.03-.03.03-.05a3.62 3.62 0 0 0-1.18-2.54 11.5 11.5 0 0 1-.54-.54.16.16 0 0 0-.16-.05c-.56.12-1 .2-1.3.21l-1 .09c-.05 0-.05.02-.02.05l.26.18v.05l-.02.02c-.02.02-.04.02-.07 0a7.14 7.14 0 0 0-1.24-.6l-.45-.2a.09.09 0 0 1-.06-.08v-.02c0-.04.02-.05.05-.03l.15.06c.56.26.99.39 1.3.4.74.02 1.47-.05 2.17-.2.23-.05.45-.14.67-.27l.93-.56c.24-.15.42-.39.55-.7a.27.27 0 0 1 .14-.16l.65-.3c.12-.05.16-.14.11-.25-.03-.06-.07-.09-.14-.07-.71.15-1.4.3-2.07.42-.68.13-1.6.18-2.74.14-.33 0-1.02-.1-2.06-.28-.03 0-.05 0-.06.03-.09.2-.23.38-.41.54-.21.19-.42.29-.63.3-.2 0-.38.05-.57.13-.27.12-.56.17-.87.15-.02 0-.03 0-.05-.02v-.02c0-.02 0-.04.03-.04l.22-.04a1.95 1.95 0 0 0 .67-.17c.12-.05.3-.09.53-.1.32-.04.62-.25.9-.64.08-.12.06-.25-.06-.39-.02-.02-.05-.03-.08-.01a8.6 8.6 0 0 1-2.27.73c-.53.07-1.21.1-2.05.07a4.2 4.2 0 0 1-1.62-.4 13.7 13.7 0 0 1-1.62-.92c-.32-.2-.74-.3-1.25-.32-.34-.01-.5-.18-.48-.5.02-.2.13-.3.35-.28.68.06 1.33-.07 1.95-.37.36-.18.73-.39 1.13-.62a4.88 4.88 0 0 1 2.96-.65c.15.08.14.11-.03.1a6.42 6.42 0 0 0-1.7.18c-.35.09-.85.3-1.5.66-.44.24-.78.41-1.01.5-.34.14-.6.22-.76.26-.25.05-.61.08-1.09.07-.11 0-.17.05-.18.17v.05c-.02.16.06.25.21.28l1.38.21c.13.02.27.02.42-.01l.5-.09a9 9 0 0 0 .75-.13l2.79-.68c1.08-.25 2.16-.33 3.23-.23.1 0 .17.05.21.12l.16.39c.02.04.04.06.09.04a22.17 22.17 0 0 1 3.96-.72l.23-.01c.3-.04.82-.03 1.53.04.5.05.96.19 1.4.42.03.01.06 0 .08-.01a.25.25 0 0 0 .07-.1.08.08 0 0 0-.02-.08 3.7 3.7 0 0 0-1.88-.97 8.55 8.55 0 0 0-2.63-.22.6.6 0 0 0-.16 0c-1 .13-2.02.36-3.03.68-.03 0-.04 0-.05-.03v-.02c0-.04 0-.06.04-.07.66-.18 1.33-.35 2.02-.51a9.66 9.66 0 0 1 1.02-.16c.04.02.09.02.13 0a7.82 7.82 0 0 1 4.02.67c.04.02.05 0 .04-.04a.75.75 0 0 0-.48-.53 5.3 5.3 0 0 1-.19-.09c-.2-.09-.37-.15-.5-.17-.42-.09-.8-.15-1.11-.2a8.48 8.48 0 0 0-4.72.62c-.19.08-.36.19-.52.32a.07.07 0 0 1-.08 0c-.7-.3-1.46-.5-2.26-.58a.33.33 0 0 1-.15-.06c-.03-.02-.03-.04.01-.05a8.2 8.2 0 0 1 2.34.53c.1.03.16 0 .19-.1a.26.26 0 0 0-.11-.3l-.48-.33a.81.81 0 0 0-.35-.14l-1.54-.2c-.15-.01-.15-.04-.01-.1l.08-.01h.09l1.33.17c.08 0 .09-.01.02-.07a8.1 8.1 0 0 1-.46-.4 5.4 5.4 0 0 0-2.68-1.43 4.88 4.88 0 0 0-3.44.35c-.42.2-.8.42-1.13.67-.03.01-.05.01-.06-.01l-.02-.02v-.05a6 6 0 0 1 2.18-1.08c.77-.2 1.6-.2 2.5.01a7.1 7.1 0 0 1 2.25 1.02.1.1 0 0 0 .12 0 .1.1 0 0 0 .04-.11c-.22-1.06-.6-1.79-1.17-2.18-.9-.61-1.8-1-2.75-1.16a5.77 5.77 0 0 0-1.06-.03c-.41.02-.86.12-1.34.32-.68.28-1.3.69-1.83 1.24a8.87 8.87 0 0 0-2.26 4c-.12.48-.2 1.07-.28 1.78 0 .01 0 .02-.03.02h-.02c-.03 0-.05-.02-.05-.05.04-.58.12-1.17.25-1.76.02-.06 0-.08-.06-.07-.6.16-1.06.48-1.38.94a11.88 11.88 0 0 0-1.18 2.28c-.29.66-.5 1.15-.67 1.48a7.94 7.94 0 0 0-.4 5.72c.15.4.3.67.42.82l.46.59c.16.2.33.35.52.45 1.25.65 2.6 1.1 4.04 1.35 2.39.41 4.68.63 6.87.64 1.02.01 2.03-.05 3.03-.18l.42-.02h.31c.04 0 .07-.02.09-.05.12-.14.32-.25.6-.33h.02a8.68 8.68 0 0 0 3.1-1.72c.02-.03.02-.04-.03-.05l-.13-.01c-1.26-.01-2.55-.02-3.86-.01a14.6 14.6 0 0 1-4.83-.86c-.63-.33-1.25-.67-1.84-1.02-.16-.09-.6-.43-1.3-1.02-.2-.17-.34-.33-.44-.5a2.85 2.85 0 0 1-.27-.67 1.1 1.1 0 0 1 .04-.7c.1-.25.28-.37.54-.36.27.01.5.1.7.25l.27.2c.79.62 1.4 1.02 1.85 1.19a15.5 15.5 0 0 0 6.1 1.09c-.04.04-.07.06-.11.06-1.32.08-2.62-.06-3.92-.4-.62-.16-1.24-.35-1.85-.56a7.94 7.94 0 0 1-2.32-1.46c-.19-.16-.39-.25-.6-.27a.5.5 0 0 0-.54.3c-.12.28-.12.57.02.9.13.34.28.57.42.68l.84.68c.27.23.6.45.98.67.44.26.87.5 1.27.75.19.12.42.21.69.28.74.2 1.51.38 2.33.54.44.08.89.12 1.36.12a683.68 683.68 0 0 0 5.2-.02c.08.02.12.05.13.1l-.03.02c-.15.12-.26.14-.34.05-.04-.04-.08-.04-.13 0a8.13 8.13 0 0 1-3.18 1.81c-.23.06-.44.18-.62.34a.1.1 0 0 0-.03.08c0 .1.05.18.14.24.1.08.28.18.51.33.71.43 1.18.79 1.42 1.05.44.5.7.97.79 1.43a.7.7 0 0 0 .16.32 3 3 0 0 1 .5 1.12c.06.21.1.5.1.85a1025.21 1025.21 0 0 0 .2 4.9.1.1 0 0 1-.07 0 13 13 0 0 0-.04-1.04l-.06-1.02c0-.27-.01-.53-.03-.78l-.03-.77c0-.75-.03-1.35-.09-1.8a3.7 3.7 0 0 0-.64-1.58.4.4 0 0 1-.07-.17 4.3 4.3 0 0 0-.66-1.26c-.16-.2-.35-.37-.58-.53-.49-.31-.98-.64-1.47-.97a.48.48 0 0 1-.16-.2.2.2 0 0 0-.16-.11c-.08-.02-.14.01-.17.08-.1.2-.25.34-.47.43a4.45 4.45 0 0 1-1.4.37c-.48.05-.84.09-1.08.1a30.05 30.05 0 0 1-4.77-.2l-.03-.02c.03-.04.06-.05.1-.05 1 .08 1.97.15 2.93.2l.34-.01.25-.02L29 32.6c.43 0 .88-.06 1.35-.17.65-.15 1.02-.36 1.11-.62.03-.06 0-.08-.06-.07-.85.12-1.77.19-2.74.2-1.2.02-2.31-.02-3.33-.1a58 58 0 0 1-3.44-.4 16.8 16.8 0 0 1-2.97-.7c-.64-.21-1.32-.52-2.04-.91a.1.1 0 0 0-.12.01.2.2 0 0 0-.05.07c-.01.04 0 .07.02.1a15.23 15.23 0 0 0 4.46 2.07c.29.07.58.13.87.16.06 0 .12.04.18.09-.02.02-.05.03-.1.02-.97-.15-2.13-.52-3.49-1.1-.57-.24-1.2-.6-1.88-1.09a.54.54 0 0 0-.58-.05l-.2.08c-.25.1-.43.23-.53.36-.5.66-1.02 1.49-1.55 2.48-.17.3-.26.6-.28.89 0 .05.01.06.05.02a.12.12 0 0 1 .1-.04c.05 0 .06.02.03.07a.76.76 0 0 1-.07.1 6.42 6.42 0 0 0-.62 1.63l-.01.27a.6.6 0 0 1-.08.26c-.03-.26-.02-.47.01-.63.09-.35.21-.71.38-1.1.06-.15.1-.3.11-.45.03-.37.12-.7.27-1.01.44-.88.96-1.73 1.55-2.53.09-.12.2-.22.32-.28.26-.14.54-.23.84-.28a.1.1 0 0 0 .07-.05l.13-.16c.02-.03.02-.06 0-.1a2.6 2.6 0 0 0-.36-.42 3.13 3.13 0 0 1-.83-1.53 7.7 7.7 0 0 1-.16-3.27c.16-.93.42-1.72.77-2.38.16-.29.3-.59.44-.9.3-.73.68-1.5 1.14-2.32.24-.44.5-.75.78-.92.34-.21.64-.35.9-.43a.23.23 0 0 0 .18-.16 9.2 9.2 0 0 1 2.06-3.6 5.4 5.4 0 0 1 3-1.67c.19-.03.4-.05.61-.04l.33.01c.23 0 .42 0 .54.03 1.09.2 2.1.65 3.03 1.36.03.02.07.03.1.01.78-.38 1.45-.66 2-.84.7-.23 1.44-.29 2.23-.18.67.1 1.22.37 1.64.84a4 4 0 0 1 1.01 2.13c.02.1.07.16.16.2l.29.09c.44.15.76.28.95.4.31.18.6.4.88.66.03.02.03.05.02.09a.27.27 0 0 0-.02.1c0 .04.02.07.06.1l.1.05c.31.17.53.35.65.53.02.03.03.05.03.08v.04c0 .14.03.24.08.3.11.12.22.25.34.36.12.13.12.26-.01.39a.08.08 0 0 0-.02.08c0 .03.02.06.04.11.16.44.14.76-.08.97l-.28.26a.12.12 0 0 0-.04.1l.04.29c0 .05-.01.08-.06.1l-.74.37a.34.34 0 0 0-.15.15c-.17.35-.39.6-.66.78l-1 .6c-.08.05-.09.1-.02.16l.78.8c.48.5.77 1.23.89 2.2 0 .05.03.09.08.1l.04.02c.13.06.21.11.25.17.11.19.15.4.12.62-.03.25-.28.52-.75.8l-.32.22c-.08.06-.09.13-.04.22.15.27.19.5.1.67Z" fill="#0C0C0C"/><path d="M32.48 27.06h-.04a15.5 15.5 0 0 1-6.09-1.1 8.01 8.01 0 0 1-2.11-1.37c-.2-.15-.44-.24-.71-.25-.26-.01-.44.1-.54.36-.09.22-.1.45-.04.7.06.22.15.44.27.67.1.17.24.33.43.5.71.59 1.15.93 1.3 1.02.6.35 1.22.7 1.85 1.02a14.6 14.6 0 0 0 4.83.86 240.44 240.44 0 0 1 4 .02c.04 0 .04.02.01.05a8.68 8.68 0 0 1-3.09 1.7l-.02.02c-.28.08-.48.2-.6.33a.12.12 0 0 1-.09.05h-.3c-.2 0-.34 0-.43.02-1 .13-2.01.19-3.03.18-2.2-.02-4.48-.23-6.87-.64-1.44-.25-2.79-.7-4.04-1.35-.19-.1-.36-.25-.52-.45l-.46-.59a3.32 3.32 0 0 1-.43-.82 7.94 7.94 0 0 1 .4-5.72 42.65 42.65 0 0 0 .8-1.78c.34-.78.7-1.44 1.06-1.98.32-.46.78-.78 1.38-.94.05-.01.08.01.06.07-.13.6-.21 1.18-.25 1.76 0 .03.02.05.05.05h.02c.02 0 .03 0 .03-.02a8.18 8.18 0 0 1 .7-3 8.87 8.87 0 0 1 1.84-2.78 5.36 5.36 0 0 1 1.83-1.24c.48-.2.93-.3 1.33-.32.48-.02.84 0 1.07.03.94.16 1.86.55 2.75 1.16.56.4.95 1.12 1.17 2.18a.1.1 0 0 1-.04.1.1.1 0 0 1-.12 0 7.1 7.1 0 0 0-2.25-1c-.9-.22-1.73-.22-2.5-.02a6 6 0 0 0-2.17 1.08c-.02.01-.02.03 0 .05v.02c.02.02.04.02.07 0 .34-.24.71-.47 1.13-.66a4.88 4.88 0 0 1 3.44-.35c.73.19 1.38.47 1.97.84.17.11.41.3.71.59.2.19.35.32.46.4.07.06.06.08-.02.07a128.3 128.3 0 0 0-1.42-.17l-.08.01c-.14.06-.14.09.01.1l1.54.2c.12.02.24.07.34.14l.49.33c.1.08.14.17.1.3-.02.1-.08.13-.18.1a8.2 8.2 0 0 0-2.34-.53c-.04.01-.04.03 0 .05.05.04.1.06.14.06.8.08 1.55.27 2.26.59.02.01.05 0 .08-.01.16-.13.33-.24.52-.32a8.48 8.48 0 0 1 4.72-.62l1.12.2c.12.02.28.08.5.17l.18.09c.26.1.42.28.48.53.01.04 0 .06-.04.04l-.84-.3a7.81 7.81 0 0 0-4.33-.21c-.69.16-1.36.33-2.02.51-.04.01-.05.03-.04.07v.02c0 .03.02.04.05.03 1.01-.32 2.03-.55 3.03-.69l.16.01.13.01c.85-.05 1.69.02 2.5.21.83.2 1.46.52 1.88.97.03.02.03.05.02.09a.25.25 0 0 1-.07.09.07.07 0 0 1-.08 0 3.8 3.8 0 0 0-1.4-.4 7.79 7.79 0 0 0-1.76-.04h-.26c-1.25.14-2.49.38-3.7.72-.05.02-.07 0-.09-.04l-.16-.39c-.04-.07-.1-.11-.2-.12-1.08-.1-2.16-.02-3.24.23l-2.8.68c-.17.04-.42.09-.74.13l-.5.09c-.15.03-.3.03-.42.01a51.2 51.2 0 0 0-1.38-.21c-.15-.03-.23-.12-.22-.28v-.05c.02-.12.08-.17.19-.17.48 0 .84-.02 1.1-.07.15-.04.4-.12.75-.26.23-.09.57-.26 1-.5a6.7 6.7 0 0 1 1.51-.66c.57-.13 1.14-.2 1.7-.17.17 0 .18-.03.03-.1l-.13-.02a4.88 4.88 0 0 0-2.83.66c-.4.23-.77.44-1.13.62-.62.3-1.27.43-1.95.37-.22-.02-.33.07-.35.28-.02.32.14.49.48.5a2.52 2.52 0 0 1 1.4.42c.65.4 1.14.67 1.47.83.56.25 1.1.38 1.62.4.84.01 1.52-.01 2.05-.08a8.6 8.6 0 0 0 2.27-.73c.03-.02.06-.01.08.01.12.14.14.27.06.39-.28.4-.58.6-.9.63-.23.02-.4.06-.53.11s-.26.1-.38.13c-.06.02-.16.03-.29.04l-.22.04c-.03 0-.04.02-.04.04l.01.02.05.02c.31.02.6-.03.87-.15.18-.08.38-.13.57-.13.2-.01.42-.11.63-.3.18-.16.32-.34.41-.54.01-.02.03-.04.06-.03a13.3 13.3 0 0 0 4.8.14l2.07-.42c.07-.02.11 0 .14.07.05.11.01.2-.11.26l-.65.29a.27.27 0 0 0-.14.15c-.13.32-.31.56-.55.7-.3.2-.6.38-.93.57a2.2 2.2 0 0 1-.67.27c-.7.15-1.43.22-2.18.2-.3-.01-.73-.14-1.3-.4l-.14-.06c-.03-.02-.05 0-.05.03v.02c0 .04.02.07.06.09l.45.18c.57.23.98.44 1.24.61.03.02.05.02.07 0l.02-.02v-.05l-.26-.18c-.03-.03-.03-.05.02-.05l1-.09c.3-.02.74-.09 1.3-.21.06-.01.11 0 .16.05l.54.54a3.62 3.62 0 0 1 1.18 2.54c0 .02 0 .04-.03.05l-1.26.47a11.5 11.5 0 0 1-4.06.67c-.14 0-.28.02-.42.06Z" fill="#5A8D3E"/><path d="M31.94 12.5c.21-.04.49-.07.83-.07.9-.03 1.63.25 2.21.81.54.53.9 1.26 1.07 2.19 0 .03 0 .05-.04.07-.08.03-.24.02-.47-.05a1.47 1.47 0 0 0-.3-.07 6.4 6.4 0 0 1-.66-.08 5.43 5.43 0 0 0-.79-.1c-1.14 0-2.35.1-3.6.3-.03 0-.05-.02-.05-.04a5.49 5.49 0 0 0-.83-1.89v-.04c.82-.51 1.7-.86 2.63-1.03Z" fill="#5A8D3E"/><path d="M35.62 15.59c.08.03.2.05.35.05.11 0 .2 0 .27.02.73.16 1.36.5 1.9.98.07.06.11.12.14.19.03.08 0 .1-.07.1a35.4 35.4 0 0 0-1.82-.3 5.88 5.88 0 0 0-1.4-.03c-.76.08-1.39.2-1.88.36l-1.24.42c-.03.01-.05 0-.05-.03a.52.52 0 0 0-.17-.26l-1.62-1.32c-.04-.03-.04-.06 0-.08a.5.5 0 0 1 .16-.07 15 15 0 0 1 3.68-.28c.16 0 .4.04.7.1l.12.02c.08.01.2.03.36.03.25.01.44.05.57.1Z" fill="#5A8D3E"/><path d="M28.7 16.43h.1c.03 0 .04.02.05.04.01.03 0 .05-.03.06-.05 0-.09 0-.13-.02-.06-.03-.06-.06.01-.08ZM23.33 18.12a4.59 4.59 0 0 0 1.83-.78c.76-.52 1.81-.82 3.16-.9.02 0 .03.01.03.03v.05l-.5.08a8.98 8.98 0 0 0-1.75.4c-.23.07-.55.24-.94.5a3.68 3.68 0 0 1-1.84.7h-.03v-.03c0-.03 0-.05.04-.05Z" fill="#0C0C0C"/><path d="M32.5 19.04c2.09-.63 3.93-.86 5.52-.69a4.64 4.64 0 0 1 1.3.38c.19.07.32.28.39.64.05.25-.11.47-.47.68-.25.14-.55.24-.88.28-.03 0-.06-.01-.06-.05-.1-.48-.22-.83-.33-1.05a1.42 1.42 0 0 0-.83-.69 2.1 2.1 0 0 0-1.85.22c-.61.38-.88 1.02-.8 1.93 0 .05-.02.07-.06.07-.67-.04-1.39-.13-2.16-.29-.1-.01-.18-.1-.27-.23v-.02a.1.1 0 0 1-.02-.07l.27-.97a.1.1 0 0 1 .06-.06c.06-.04.12-.06.2-.08ZM31.9 19.93c-.05.15-.24.3-.57.44a3 3 0 0 0-.23.1c-.04.02-.06.01-.08-.03a3.2 3.2 0 0 0-.52-1.08c-.25-.29-.6-.46-1.05-.52a2.65 2.65 0 0 0-1.79.38c-.48.3-.7.85-.63 1.63 0 .07-.02.1-.08.08a7.5 7.5 0 0 1-2.63-1.23c-.02-.02-.02-.04 0-.05.04-.03.1-.05.17-.04h.1a11.74 11.74 0 0 0 2.4-.47 30.28 30.28 0 0 1 2.92-.64 6.75 6.75 0 0 1 1.7-.01c.28.01.44.1.5.28.07.2.01.55-.16 1.05l-.04.1Z" fill="#F48A8D"/><path d="M35.64 19.15c.13-.11.26-.15.37-.1.14.04.18.14.12.3-.05.17-.16.2-.32.12a.37.37 0 0 1-.2-.24.08.08 0 0 1 .03-.08ZM28.37 19.8c.14 0 .26-.13.26-.27a.26.26 0 0 0-.26-.26.26.26 0 0 0-.26.26c0 .14.12.26.26.26ZM37.15 19.76l-.12-.1a.23.23 0 0 0-.32.02l-.09.1c-.08.1-.07.24.02.32l.12.1c.1.1.24.08.32-.01l.09-.1a.23.23 0 0 0-.02-.33ZM29.73 19.86l.12.1c.06.04.1.1.1.18 0 .09-.03.15-.1.2l-.16.12c-.12.09-.22.08-.32-.03l-.13-.15a.23.23 0 0 1-.05-.22.23.23 0 0 1 .15-.17l.17-.06a.22.22 0 0 1 .22.03Z" fill="#fff"/><path d="M24.22 20.7c-.02-.02-.02-.03-.02-.05l.02-.02c0-.03.02-.03.04-.02.77.33 1.44.6 2 .81.22.08.56.13 1.03.14l1.68.05c.35.01.35.05 0 .11a14.35 14.35 0 0 1-1.84-.04c-1-.1-1.97-.42-2.91-.99ZM30.38 22.05a21.2 21.2 0 0 1-3.2 1.45l-.05-.01-.01-.02c-.03-.04-.02-.06.02-.07a32.76 32.76 0 0 0 3.25-1.43v.02c.02.03.01.05-.01.06Z" fill="#0C0C0C"/><path d="m32.44 27.07.04-.01c.02.04.05.06.1.06 1.96.06 3.85-.31 5.65-1.11.22-.1.36-.05.44.13.15.39.06.7-.28.91l-.7.49c-.1.06-.22.1-.35.12-.47.05-.94.1-1.4.17-.15.02-.37.01-.67-.04a6.11 6.11 0 0 0-.3-.04c-.16-.02-.27 0-.35.08a.57.57 0 0 0-.25.12l-2.37.18c-1 .08-1.97.02-2.92-.17a10.02 10.02 0 0 1-2.49-.77 10.18 10.18 0 0 1-2.26-1.5c-.03 0-.04.01-.01.03.5.5 1.27 1.04 2.32 1.6.4.22.9.4 1.5.54 1.28.3 2.29.44 3.02.42.53-.02 1.31 0 2.36.03h.14a3.95 3.95 0 0 0 .71-.06l.9.48.33.2c.05.05.14.1.26.17l.36.24H35l-3.98.02c-.47 0-.92-.04-1.36-.12-.82-.16-1.6-.34-2.33-.54-.27-.07-.5-.16-.69-.28l-1.27-.75a6.85 6.85 0 0 1-.98-.67 32 32 0 0 0-.84-.68 1.68 1.68 0 0 1-.43-.68 1.06 1.06 0 0 1 0-.9.5.5 0 0 1 .53-.3c.2.02.41.1.6.27.9.74 1.67 1.23 2.32 1.46.61.21 1.23.4 1.85.57 1.3.33 2.6.47 3.92.4.04 0 .07-.03.1-.07Z" fill="#A25D38"/><path d="M22.15 25.55a3 3 0 0 0 1.22 2.33c.03.03.04.06.05.1V28c0 .03-.01.04-.04.03-.86-.5-1.3-1.33-1.32-2.5 0-.03 0-.04.03-.03h.02c.03 0 .04.02.04.05ZM34.37 27.95c.02 0 .03.02.02.08-.03.05-.04.12-.02.22h-.05c-.3.05-.51.07-.66.07h-.14a39.85 39.85 0 0 0-2.36-.04c-.73.02-1.74-.12-3.02-.42-.6-.14-1.1-.32-1.5-.53a10.14 10.14 0 0 1-2.32-1.6c-.02-.03-.02-.04 0-.04h.04l.02.01c.6.54 1.34 1.04 2.21 1.49.6.3 1.42.55 2.49.77.95.2 1.92.25 2.92.17l2.37-.18Z" fill="#0C0C0C"/><path d="M37.77 28.55c-.13.16-.3.2-.51.12a9.57 9.57 0 0 0-1.48-.47c-.29-.15-.34-.22-.16-.21.09-.01.16 0 .22.05s.12.05.19.02c.18-.1.38-.16.6-.19l.89-.1c.03 0 .05 0 .07.03l.03.05c.13.25.19.42.16.51a.42.42 0 0 0-.02.19Z" fill="#A25D38"/><path d="M34.62 27.83c.3.14.64.2 1 .16-.18 0-.13.06.16.2l-.12-.01h-.05c-.01 0-.02 0-.01.02.03.06.08.1.14.11l.29.1c.36.17.74.33 1.14.49l.5.22a17.3 17.3 0 0 0 .57.27c.05 0 .09.02.12.03l.51.32c.08.04.16.07.25.09a.8.8 0 0 1 .22.07 1.65 1.65 0 0 0 .38.12l-.11-.07c-.04-.02-.04-.03 0-.02.29.06.58.14.88.25.05.02.12.03.18.03.03 0 .05 0 .07.02a.1.1 0 0 1 .02.03c.02.03.05.04.09.04.11 0 .22.03.3.12a.1.1 0 0 0 .08.03h.22c.03 0 .06 0 .08.02.06.04.12.06.19.06.14 0 .3.08.5.2.06.05.09.11.08.2 0 .05 0 .11.02.17.04.17.04.35-.02.52a.55.55 0 0 0-.02.15c0 .07 0 .12-.02.15l-.14.32a.18.18 0 0 0 .03.2l.54.6c-.2-.06-.32-.11-.36-.15a3.75 3.75 0 0 0-.5-.35.64.64 0 0 1-.17-.34 3.97 3.97 0 0 1 .04-.82c.04-.12.02-.21-.05-.27a.54.54 0 0 0-.3-.12 4.79 4.79 0 0 1-1.49-.34.94.94 0 0 0-.36-.09.12.12 0 0 1-.08-.03.47.47 0 0 0-.27-.12.08.08 0 0 1-.06-.03.42.42 0 0 0-.21-.13l-.02-.02v-.02c0-.02 0-.03-.02-.04a10.26 10.26 0 0 0-.5-.22.1.1 0 0 1-.07-.02.72.72 0 0 0-.28-.14 1.71 1.71 0 0 1-.51-.26c-.1-.07-.22-.13-.35-.18-.1-.03-.18-.09-.27-.15-.18-.14-.4-.24-.66-.32a.12.12 0 0 1-.06-.04 1.5 1.5 0 0 0-.4-.31 7.74 7.74 0 0 0-1.02-.49.23.23 0 0 1-.15-.05.09.09 0 0 0-.08-.01.21.21 0 0 0-.1.05c0-.06 0-.09-.02-.08.08-.07.17-.1.25-.12Z" fill="#625954"/><path d="M41.83 32.54c-.31-.15-.78-.4-1.39-.78a14.5 14.5 0 0 0-2.11-1.24c-.35-.19-.62-.34-.79-.46l-.72-.45c-.16-.1-.32-.16-.47-.17 0-.05-.05-.08-.13-.1a2.8 2.8 0 0 0-.36-.24 3.3 3.3 0 0 1-.26-.16c-.13-.1-.23-.16-.32-.21l-.9-.48c-.03-.1-.02-.17.01-.22a.22.22 0 0 1 .1-.05c.03-.01.05 0 .08.01.04.04.1.06.15.05a7.74 7.74 0 0 1 1.02.48c.17.1.3.21.4.32.01.02.03.04.06.04.26.08.48.18.66.32.09.06.18.12.27.15.13.05.24.11.35.18.18.13.35.21.5.26.12.03.21.07.29.14a.1.1 0 0 0 .07.02h.05a10.38 10.38 0 0 1 .47.26v.02l.02.02c.09.02.16.07.2.13.02.02.04.03.07.03.1.01.2.05.27.12.03.02.05.03.08.03.13.01.25.04.36.1.1.04.21.09.32.12.37.12.75.19 1.16.21.12.01.22.05.31.12.07.06.09.15.05.27a3.97 3.97 0 0 0-.04.82c.01.1.07.22.17.34Z" fill="#9A908F"/><path d="M35.78 28.2c.34.06.83.22 1.48.47.21.08.38.04.5-.12.03-.01.05-.02.07-.01l-.06.15c-.03.06-.01.1.05.12l.18.09c.2.1.36.16.47.2.15.04.36.12.64.22.53.2.94.32 1.22.4 1.2.28 2.18.6 2.96.97l-.17-.02c-.03 0-.04 0-.05.03v.04c0 .03 0 .06-.03.1a.75.75 0 0 0-.12.5.1.1 0 0 1-.02.07.73.73 0 0 1-.1.1.45.45 0 0 0-.14.2c-.08.26.03.45.33.57a.1.1 0 0 0 .11-.01c.06-.04.08-.08.06-.12a.09.09 0 0 1 .01-.1c.27-.32.5-.55.7-.7a.67.67 0 0 1 .45-.1.1.1 0 0 1 .08.04l.09.1a.1.1 0 0 0 .08.03h.07c.02 0 .03 0 .04.02a.1.1 0 0 0 .04.04c.04.02.07 0 .07-.04l.01-.19.2.5v.09l-.06.16a.1.1 0 0 0 0 .08c.08.15.07.35-.03.6a.36.36 0 0 1-.17.2 18.6 18.6 0 0 1-.2.27c-.06.1-.2.17-.41.2-.2.04-.36.03-.47-.03.02-.01.01-.02 0-.03a.04.04 0 0 1-.02-.05l.02-.02h.02c.14.1.27.03.38-.18.03-.06.05-.06.08 0v.04c0 .03.02.05.05.05.07.01.13 0 .18-.05a.1.1 0 0 0 .03-.05.75.75 0 0 1 .06-.16c.03-.06.02-.1-.04-.12a.07.07 0 0 1-.05-.05.1.1 0 0 1 0-.05c0-.03.02-.04.04-.04.07-.01.1-.06.1-.16l.24-.03c.05 0 .06-.03.02-.07a.36.36 0 0 0-.11-.1c-.07-.02-.07-.05 0-.09.05-.03.09-.08.1-.14.02-.05 0-.07-.05-.07h-.2a.1.1 0 0 0-.09.04l-.14.2c-.09.14-.14.13-.13-.05a.66.66 0 0 0-.06-.13l-.03-.26c0-.02 0-.02.02-.02h.03c.03 0 .05.01.06.05v.08l.01.07c.02.02.04.04.07.04.02 0 .04 0 .06-.02a.1.1 0 0 0 .02-.07c0-.03.02-.05.06-.06a.64.64 0 0 0 .19-.08.12.12 0 0 1 .08-.02.1.1 0 0 0 .08-.04c.03-.04.02-.06-.02-.07a.5.5 0 0 0-.32.04.06.06 0 0 1-.06 0 .4.4 0 0 1-.16-.15c-.01-.02-.03-.03-.06-.02a.25.25 0 0 1-.09.02.12.12 0 0 0-.08.03l-.2.17a.22.22 0 0 0-.07.26c.05.15.04.29-.04.41-.01.02-.03.03-.05.02a.63.63 0 0 0-.28 0 .08.08 0 0 0-.06.05l-.11.28a.12.12 0 0 0 0 .08l.13.42c.02.03 0 .05-.03.05l-.06.01-.49-.24-.54-.6a.18.18 0 0 1-.03-.2l.14-.32a.44.44 0 0 0 .02-.15l.02-.15a.88.88 0 0 0 .02-.52.56.56 0 0 1-.02-.18.2.2 0 0 0-.09-.19c-.19-.12-.35-.2-.5-.2a.38.38 0 0 1-.18-.06.13.13 0 0 0-.08-.02h-.22a.1.1 0 0 1-.07-.03.39.39 0 0 0-.31-.12.08.08 0 0 1-.09-.04.1.1 0 0 0-.02-.03.11.11 0 0 0-.07-.02.55.55 0 0 1-.18-.03 7.25 7.25 0 0 0-.88-.23l.11.07c.02.01.01.01 0 .01a1.64 1.64 0 0 1-.38-.13.8.8 0 0 0-.22-.07.71.71 0 0 1-.25-.09c-.17-.1-.34-.2-.51-.32a.27.27 0 0 0-.12-.03 23.84 23.84 0 0 1-2.22-.97 1.98 1.98 0 0 0-.28-.1.23.23 0 0 1-.14-.12c-.01-.01 0-.02.01-.03h.05l.12.03Z" fill="#26201B"/><path d="M23.86 32.5a.1.1 0 0 1-.05 0 .55.55 0 0 0-.26-.09 25.81 25.81 0 0 0-1.3-.08.33.33 0 0 0-.19-.1c-.3-.02-.58-.08-.87-.16-1.4-.39-2.67-.93-3.83-1.64-.17-.1-.38-.24-.63-.43-.03-.02-.03-.05-.02-.09a.2.2 0 0 1 .05-.07.1.1 0 0 1 .12-.01c.72.4 1.4.7 2.04.91.9.3 1.89.54 2.97.7 1.35.18 2.5.32 3.44.4 1.02.08 2.13.12 3.33.1.97-.01 1.89-.08 2.74-.2.07-.01.09.01.06.07-.09.26-.46.47-1.11.62-.47.1-.92.16-1.35.17a396.03 396.03 0 0 1-1.77.05c-.15.01-.26.02-.34.01-.96-.05-1.94-.12-2.94-.2-.03 0-.06.01-.09.05Z" fill="#5A8D3E"/><path d="M22.24 32.33c.04.01.07 0 .07 0 0 .03.03.05.07.04h.08l1.26.17c.04 0 .07 0 .09-.04a.1.1 0 0 0 .05 0 1.87 1.87 0 0 0 .05.03c1.56.19 3.14.25 4.75.2a14.61 14.61 0 0 0 1.2-.12c.44-.05.87-.17 1.28-.35.22-.1.37-.24.47-.43.03-.07.1-.1.17-.08a.2.2 0 0 1 .16.12c.03.08.09.14.16.19l1.46.97c.24.16.43.33.6.53a4.3 4.3 0 0 1 .72 1.43c.37.56.59 1.09.64 1.59.06.44.08 1.04.09 1.8 0 .24 0 .5.03.76.02.25.03.51.03.78l.06 1.02c.02.35.04.69.04 1.03l-.1.03h-2.7c.1-.83.15-1.64.13-2.43 0-.37-.03-.89-.06-1.55 0-.03-.01-.04-.04-.04h-.03a27.28 27.28 0 0 1 .04 2.5 10.61 10.61 0 0 1-.14 1.52h-.6c.03-.42.06-.7.1-.82.1-.33.14-.67.12-1l-.07-1.57c0-.06-.03-.08-.08-.08h-1.27c-.06 0-.06 0 0 0 .4.06.79.07 1.19.06.04 0 .07.02.07.07.04.56.07 1.13.08 1.69 0 .19-.02.41-.08.68-.07.32-.14.64-.19.97h-4.76l-.05-.6c-.02-.95-.02-1.86 0-2.72 0-.05.02-.07.06-.07a50.07 50.07 0 0 0 3.53-.09h-3.59c-.05 0-.07.02-.08.07-.02.25-.04.5-.04.77-.01.88.01 1.76.07 2.64h-9.23c.02-.33.03-.67.02-1a5.16 5.16 0 0 1 .06-.81c.03-.2.04-.4.04-.61 0-.6.03-1.22.06-1.83a5.5 5.5 0 0 0 0-.6c0-.01 0-.02-.02-.02h-.03c-.03 0-.05.02-.05.06 0 .71-.01 1.43-.05 2.14l-.04 1.34c0 .45-.04.89-.1 1.33H13v-5.75c.03-.04.04-.05.03-.02a.6.6 0 0 0 .08-.26c0-.14 0-.23.02-.27a6.42 6.42 0 0 1 .61-1.64.77.77 0 0 0 .07-.1c.03-.04.02-.06-.03-.06a.12.12 0 0 0-.1.04c-.04.04-.05.03-.05-.02.02-.3.11-.59.28-.9.53-.98 1.05-1.8 1.55-2.47.1-.13.28-.25.53-.36l.2-.08c.2-.1.39-.08.58.05.68.49 1.3.85 1.88 1.1 1.36.57 2.52.94 3.5 1.1.04 0 .07-.01.1-.03Z" fill="#3F5CAA"/><path d="m43.29 30.69.1.04c.23.09.42.15.56.18.34.07.62.18.85.34l-.01.19c0 .04-.03.06-.07.04a.1.1 0 0 1-.04-.04c0-.02-.02-.03-.04-.03h-.07a.1.1 0 0 1-.08-.02l-.1-.1a.1.1 0 0 0-.07-.04.67.67 0 0 0-.45.1c-.2.15-.43.38-.7.7a.09.09 0 0 0-.01.1c.02.04 0 .08-.06.12a.1.1 0 0 1-.1.01c-.31-.12-.43-.31-.34-.58a.45.45 0 0 1 .14-.18.74.74 0 0 0 .1-.11.1.1 0 0 0 .02-.07.75.75 0 0 1 .12-.5.12.12 0 0 0 .02-.1v-.04c.02-.02.03-.03.06-.03l.17.02Z" fill="#0C0C0C"/><path d="M44.1 32a.33.33 0 0 0-.1-.2c-.02-.02-.04-.02-.06 0a.24.24 0 0 0-.04.24c.02.07.06.13.12.18.02.02.03.05.03.08-.02.1-.1.14-.23.12-.05 0-.07.02-.08.06-.02.19.05.3.22.32.05.01.1.04.15.09.03.03.06.04.1.04.05 0 .1-.02.13-.05a.06.06 0 0 0 .01-.07.58.58 0 0 1-.04-.29c0-.03.03-.04.06-.03l.04.02c.01.03.03.04.06.02a.13.13 0 0 0 .04-.08c0 .1-.03.15-.1.16-.02 0-.04.01-.04.04a.1.1 0 0 0 0 .05c.01.03.03.04.05.05.06.02.07.06.04.12a.76.76 0 0 0-.06.16.1.1 0 0 1-.03.05.23.23 0 0 1-.18.05c-.03 0-.04-.02-.04-.05l-.01-.04c-.03-.06-.05-.06-.08 0-.11.21-.24.27-.38.19h-.02l-.02.01c0 .02 0 .04.02.05.01.01.02.02 0 .03l-.48-.04h.06c.03-.01.05-.03.03-.06l-.14-.42a.12.12 0 0 1 0-.08l.12-.28a.08.08 0 0 1 .06-.05.64.64 0 0 1 .28 0c.02 0 .04 0 .05-.02.08-.12.1-.26.04-.4a.22.22 0 0 1 .07-.27l.2-.17a.12.12 0 0 1 .08-.03c.03 0 .06 0 .1-.02.02 0 .04 0 .05.02a.4.4 0 0 0 .16.15h.06a.5.5 0 0 1 .32-.04c.05 0 .05.03.02.07a.1.1 0 0 1-.08.03c-.03 0-.06 0-.08.03a.64.64 0 0 1-.2.08.06.06 0 0 0-.05.06.1.1 0 0 1-.02.07.07.07 0 0 1-.06.02.09.09 0 0 1-.07-.04.1.1 0 0 1-.01-.07v-.08c-.01-.04-.03-.05-.06-.05h-.03c-.01 0-.02 0-.02.02l.03.26Z" fill="#625954"/><path d="m44.1 32 .05.14c0 .18.04.2.13.05l.14-.2a.1.1 0 0 1 .08-.04h.21c.05 0 .07.02.05.07a.23.23 0 0 1-.1.14c-.07.04-.07.07 0 .1.04.02.08.05.11.09.04.04.03.07-.02.07l-.24.03c0 .04-.02.06-.04.08-.03.02-.05.01-.07-.02a.06.06 0 0 0-.03-.02c-.03-.01-.05 0-.06.03 0 .11 0 .2.04.29.01.02 0 .05-.01.07a.17.17 0 0 1-.13.05.13.13 0 0 1-.1-.04.27.27 0 0 0-.15-.09c-.17-.03-.24-.13-.22-.32 0-.04.03-.06.08-.06.14.02.21-.02.23-.12 0-.03 0-.06-.03-.08a.42.42 0 0 1-.12-.18c-.03-.09-.02-.17.04-.24.02-.02.04-.02.06 0 .05.04.08.11.1.2Z" fill="#A25D38"/><path d="M23.8 32.5c-.01.03-.04.04-.08.04a39.25 39.25 0 0 1-1.34-.17c-.04 0-.06-.01-.07-.05a.49.49 0 0 1 .26 0l.09.02.89.07c.1 0 .18.04.26.1ZM18.05 42h-.11c.06-.44.1-.88.1-1.33l.04-1.34c.04-.71.05-1.43.05-2.14 0-.04.02-.06.05-.06h.03c.02 0 .03 0 .03.03v.59c-.04.61-.06 1.22-.07 1.83a5.16 5.16 0 0 1-.05.67c-.04.33-.06.58-.05.75 0 .33 0 .67-.02 1ZM32.96 42h-.09l.05-.4c.04-.3.07-.68.1-1.13a27.28 27.28 0 0 0-.05-2.49H33c.03 0 .04.01.04.04l.06 1.55c.02.79-.03 1.6-.14 2.43ZM27.38 42h-.1a36.2 36.2 0 0 1-.07-2.64c0-.26.02-.52.04-.77 0-.05.03-.07.08-.07a675.18 675.18 0 0 0 3.58.02c-1.2.07-2.37.09-3.52.07-.04 0-.06.02-.07.07-.01.86 0 1.77.01 2.72l.05.6ZM32.27 42h-.13c.05-.33.12-.65.19-.97.06-.27.08-.5.08-.68-.01-.56-.04-1.13-.08-1.7 0-.04-.03-.06-.07-.06a6.82 6.82 0 0 1-1.2-.07h1.28c.05 0 .07.03.08.09l.07 1.57c.02.33-.03.67-.12 1-.04.13-.07.4-.1.82Z" fill="#0C0C0C"/></svg>