<svg width="56" height="56" viewBox="0 0 56 56" xmlns="http://www.w3.org/2000/svg"><path d="m9.15 23 2.67.02c1.16.26 2.2.35 3.1.27.98-.07 1.93-.05 2.87.05 1 .1 1.62.15 1.85.16a6.18 6.18 0 0 1 1.85.3l.06-.01.04-.04a.12.12 0 0 0 .02-.04l.13-.46a.25.25 0 0 1 .06-.1.29.29 0 0 1 .34-.06c.95.47 1.7.61 2.21.42l3.13-.02c.05 0 .1.02.15.05.05.03.08.08.09.13l.47 1.77.02.04.04.01h.05l.03-.04.75-1.54c.05-.11.13-.2.24-.27.1-.07.23-.11.36-.12a1673.56 1673.56 0 0 1 2.01-.1l3.63.15c.07 0 .13 0 .2-.02 1.58-.27 3.14-.35 4.69-.23.44.04.93.01 1.48-.07.67-.1 1.34-.16 2-.17l1.92-.05c.05 0 .1.01.15.04.05.03.08.08.1.13l2.13 6.42a.17.17 0 0 1-.01.14.18.18 0 0 1-.05.05.2.2 0 0 1-.07.03l-2.77.68a.31.31 0 0 1-.14 0l-1.26-.22-.1.01a.15.15 0 0 0-.07.07l-.07.14a.2.2 0 0 1-.1.1.23.23 0 0 1-.14.01l-1.37-.28a.65.65 0 0 0-.2-.01l-2.09.2c-.14 0-.3 0-.43-.04l-1.08-.3h-.08a.16.16 0 0 0-.07.04.14.14 0 0 0-.04.06c-.01.02-.01.05 0 .07.03.17 0 .27-.1.28-.23.04-1.14.13-2.74.26a.99.99 0 0 1-.44-.06 2.5 2.5 0 0 0-1.48-.12c-.1.02-.22.01-.31-.04-.5-.24-.77-.43-.82-.54a14.4 14.4 0 0 0-.51-.98.07.07 0 0 0-.09.02.06.06 0 0 0-.01.04v1.39c0 .05-.02.1-.06.13a.2.2 0 0 1-.13.06l-2.73.19c-.04 0-.08 0-.12-.02a.26.26 0 0 1-.1-.07c-.11-.14-.28-.18-.5-.14l-1.16.2c-.03 0-.07 0-.1-.02a.13.13 0 0 1-.06-.08l-.26-1a.19.19 0 0 0-.06-.1.22.22 0 0 0-.22-.04.2.2 0 0 0-.09.07l-.84 1.1a.24.24 0 0 1-.12.08.26.26 0 0 1-.15 0l-1.51-.42a1.4 1.4 0 0 0-.78 0l-1.31.39a.37.37 0 0 1-.25-.02l-1.22-.52a.3.3 0 0 0-.17-.02l-2.54.4a.2.2 0 0 1-.14-.03.18.18 0 0 1-.08-.1l-.05-.14a.14.14 0 0 0-.06-.08.16.16 0 0 0-.11-.01l-1.24.29a.71.71 0 0 1-.37-.02l-1.25-.38a.45.45 0 0 0-.13-.02l-5.25.1a.14.14 0 0 1-.1-.04.12.12 0 0 1-.04-.08v-2.54c0-.06.03-.11.07-.15.03-.04.09-.06.15-.07l1.25-.08.04-.02c.02 0 .03-.02.03-.03a.07.07 0 0 0 0-.08l-1.54-2a.23.23 0 0 1-.04-.22c.06-.17.24-.75.53-1.76.09-.31.3-.35.61-.32Z" fill="#EFB88F"/><path d="M21.68 24.58c.14-.25.24-.57.3-.95 0-.03.02-.05.04-.08a.2.2 0 0 1 .15-.08l.08.01 2.01.68a.13.13 0 0 0 .12-.01.12.12 0 0 0 .04-.04l.01-.06v-.1c0-.03.02-.07.05-.1a.17.17 0 0 1 .12-.05h2.62c.05 0 .1.02.14.05.05.03.08.07.09.12l.87 3.29c0 .01 0 .02.02.03a.06.06 0 0 0 .08 0l.01-.04.07-1.31.03-.15.79-1.62a.6.6 0 0 1 .23-.26c.1-.06.22-.09.34-.09h1.55c.04 0 .07 0 .1.03l.06.06c.12.23.33.25.63.05.54-.36 2.37-.04 2.78.02a.8.8 0 0 0 .33-.01c.79-.2 2.04-.5 2.7-.26.09.03.18.04.27.02.8-.14 1.7-.15 2.73-.04.09.01.18 0 .27-.01a18.5 18.5 0 0 1 4.23-.29.1.1 0 0 1 .04.05l1.98 5.95v.08c0 .02 0 .05-.02.07a.2.2 0 0 1-.12.1l-1.82.45c-.53.11-1.29-.1-1.99-.2l-.12.01a.22.22 0 0 0-.09.07l-.15.2a.22.22 0 0 1-.1.06.24.24 0 0 1-.12.01l-1.28-.23a.6.6 0 0 0-.19 0l-1.8.17c-.3.03-.9-.1-1.81-.39-.24-.08-.22-.27-.35-.4l-.03-.02h-.03a.06.06 0 0 0-.03.02l-.01.04v.8c0 .03-.02.07-.04.1a.18.18 0 0 1-.11.05c-.56.07-2.1.3-2.52.09a2.38 2.38 0 0 0-1.56-.1.34.34 0 0 1-.26-.02l-.63-.34a.15.15 0 0 1-.06-.05l-1.22-1.94a.06.06 0 0 0-.03-.02.07.07 0 0 0-.07.02l-.01.04v2.33a.1.1 0 0 1-.03.07.12.12 0 0 1-.08.04 39.34 39.34 0 0 1-2.28.14.17.17 0 0 1-.06-.03.14.14 0 0 1-.04-.06.13.13 0 0 1 0-.06c0-.14-.06-.2-.21-.17l-1.42.27a.2.2 0 0 1-.13-.02.17.17 0 0 1-.08-.1l-.25-.95a.18.18 0 0 0-.07-.1.2.2 0 0 0-.12-.04h-.5a.2.2 0 0 0-.08.02.2.2 0 0 0-.07.05l-.86 1.12a.17.17 0 0 1-.19.06l-1.72-.52a.16.16 0 0 0-.1 0l-1.67.49a.5.5 0 0 1-.37-.04l-1-.51a.24.24 0 0 0-.14-.02c-.7.1-1.48.24-2.35.4-.23.03-.32-.07-.28-.32v-.07a.14.14 0 0 0-.05-.06.16.16 0 0 0-.14-.03l-1.78.41c-.05.01-.1.01-.14 0l-1.23-.37a.27.27 0 0 0-.07 0l-4.71.1a.41.41 0 0 1-.28-.11.37.37 0 0 1-.12-.27V28.2c0-.09.04-.17.1-.24.06-.06.15-.1.25-.11l1.4-.1c.03 0 .05 0 .06-.02a.1.1 0 0 0 .04-.04.1.1 0 0 0-.01-.1L8.38 25.2a.29.29 0 0 1-.04-.27l.57-1.46a.2.2 0 0 1 .07-.1.22.22 0 0 1 .12-.03c1.81-.06 3.5.07 5.07.4.21.04.32.14.47.22a.15.15 0 0 0 .17-.03.13.13 0 0 0 .03-.05l.09-.21a.17.17 0 0 1 .07-.09.18.18 0 0 1 .1-.03l2.55.1c.15.01.29.04.42.08.29.1.46.14.53.13a6.11 6.11 0 0 1 2.7.28.3.3 0 0 1 .12.07l.07.12.06.25.02.03.04.02h.04l.03-.04Z" fill="#46150B"/><path d="m12.03 23.87 1.11 1.07c.03.02.04.05.05.09l-.01.1-.28.6a3.68 3.68 0 0 0-1.64-.77 18.8 18.8 0 0 1-2.16-.56l.18-.5a.17.17 0 0 1 .06-.08.18.18 0 0 1 .1-.03l2.59.08ZM45.73 25.48v1.73a.1.1 0 0 1-.01.06.1.1 0 0 1-.05.03h-.07a8.11 8.11 0 0 1-.98-1.54.5.5 0 0 0-.26-.23.56.56 0 0 0-.36-.03c-1.04.26-1-.98-1-1.52l.02-.05 2.03-.08c.04 0 .07 0 .1.02l.07.08.51 1.53Z" fill="#FFCF32"/><path d="m15.16 24.7-.22.85c-.07.32-.22.58-.44.79.07-.28.04-.42-.11-.43a2.01 2.01 0 0 0-.68.08.1.1 0 0 0-.04.08.1.1 0 0 0 0 .04c.1.24.27.44.5.58l-.16.26a.25.25 0 0 0-.05.18l.08.52c.01.06 0 .12-.01.18a4.04 4.04 0 0 0-.28 1.78c-.03.02-.13-.01-.29-.1a.4.4 0 0 0-.22-.04l-.67.08c.28-.33.47-.67.58-1.02a.36.36 0 0 0-.07-.32c-.42-.56-.64-.84-.67-.86-.1-.06-.27-.27-.49-.63a.86.86 0 0 0-.13-.17 7.21 7.21 0 0 1-.96-1.17.27.27 0 0 1-.03-.2.28.28 0 0 1 .1-.16.32.32 0 0 1 .4.01c.56.5 1.1.73 1.6.7l.28-.6a.17.17 0 0 0-.04-.2l-1.11-1.06 2.25.4c.04 0 .07.01.1.03.03.02.06.05.07.08.2.3.43.41.7.31Z" fill="#A03020"/><path d="m43.02 23.93-.01.05-.22 1.58a.97.97 0 0 1-.15.39l-.58.85a.4.4 0 0 0-.05.32c.12.47.1 1.06-.08 1.78-.08.33.03.58.33.75l-1.3-.22c.07-1.03.14-2.05.06-3.07-.06-.73-.14-1.46-.22-2.17l2.22-.26Z" fill="#D65833"/><path d="m17.41 24.1.22.59c-.85 1.13-1.74 1.41-2.7.86l.23-.86.16-.54a.15.15 0 0 1 .06-.08.17.17 0 0 1 .1-.03l1.93.06Z" fill="#FFCF32"/><path d="m23.44 24.37-1.54 5.51c-.46.28-.95.32-1.47.1-.24-.09-.36-.27-.38-.53-.42-1.4-.83-2.8-1.23-4.21a.85.85 0 0 1 .15-.8c.13-.25.46-.28 1-.11l.37 2.15c0 .02 0 .04.02.07l.55 1.53.06.07a.16.16 0 0 0 .18 0 .14.14 0 0 0 .05-.08l.36-1.31.76-2.65c0-.01 0-.03.02-.04a.13.13 0 0 1 .14-.03l.96.33Z" fill="#FEBB2D"/><path d="M43 23.98c0 .54-.04 1.78 1 1.52a.56.56 0 0 1 .36.03c.12.05.2.13.26.24a8.11 8.11 0 0 0 .98 1.53h.07a.1.1 0 0 0 .05-.03.1.1 0 0 0 .02-.06v-1.73l1.23 3.7a.08.08 0 0 1-.03.1h-.03l-1.22.3-.36-.86a.36.36 0 0 0-.15-.17.39.39 0 0 0-.23-.05l-1.2.08a.26.26 0 0 0-.11.04.24.24 0 0 0-.08.08l-.46.77a.63.63 0 0 1-.1.21.2.2 0 0 1-.09.06.21.21 0 0 1-.1.01l-.55-.1c-.3-.17-.4-.42-.33-.75.17-.72.2-1.31.08-1.78a.4.4 0 0 1 .05-.32l.58-.85a.97.97 0 0 0 .15-.4l.22-1.57Z" fill="#FEB22C"/><path d="M18.97 24.44a.85.85 0 0 0-.15.8c.4 1.41.81 2.82 1.23 4.2-.32-.1-.75 0-1.3.3l-1.12-5.05-.22-.59 1.56.34Z" fill="#A03020"/><path d="m37.8 24.35 1.5 2.44a.1.1 0 0 0 .05.04.1.1 0 0 0 .1-.03.08.08 0 0 0 .03-.05l.02-2.66 1.3.1c.08.71.16 1.44.22 2.17.08 1.02.01 2.04-.05 3.07-.16.28-.54.36-1.16.23l-2.53-3.5a.08.08 0 0 0-.03-.03.08.08 0 0 0-.1.02.07.07 0 0 0 0 .04l-.21 1.82.07 1.84c0 .04 0 .07-.03.09a.13.13 0 0 1-.08.04l-1.22.12-.11-3.93c0-.04 0-.09.02-.13l.58-1.74c.74-.3 1.28-.28 1.62.05Z" fill="#FEBB2D"/><path d="m39.5 24.1-.02 2.65c0 .02 0 .04-.02.05a.1.1 0 0 1-.05.03.1.1 0 0 1-.06 0 .1.1 0 0 1-.04-.04l-1.52-2.44 1.7-.26Z" fill="#A03020"/><path d="M27.42 25.79c.02.28-.05.45-.2.52l-.4-.05a.2.2 0 0 1-.12-.06.18.18 0 0 1-.04-.12v-.1c0-.03 0-.05-.02-.07a.14.14 0 0 0-.04-.05.33.33 0 0 0-.31-.05.29.29 0 0 0-.14.1.27.27 0 0 0-.06.16c0 .05.02.1.05.16.03.05.07.09.13.11.04.02.13.02.3 0a.08.08 0 0 1 .05.03l.02.02v.1c0 .04 0 .07-.03.1a.15.15 0 0 1-.08.04c-.45.06-.84-.09-1.25.21l-.1.02c.09-.26.05-.42-.11-.48a.5.5 0 0 0-.36 0l-.19-.54.33-1.45c0-.04.03-.07.06-.1a.2.2 0 0 1 .12-.04h1.83a.2.2 0 0 1 .12.04c.03.03.06.06.07.1l.37 1.4Z" fill="#FFCF32"/><path d="m32.12 25.66.78 1.25s0 .02.02.02h.03l.02-.01.01-.03.1-2.56a2.6 2.6 0 0 1 1.2.02.2.2 0 0 1 .11.06c.03.03.05.07.05.1l.08 1c.15 1.32.12 2.73-.07 4.21-.38.24-.77.27-1.16.1a19.62 19.62 0 0 0-2.44-3.4.08.08 0 0 0-.07.02 3.12 3.12 0 0 0-.3 2.03l.04 1.32a.3.3 0 0 1-.09.22.34.34 0 0 1-.22.1l-.95.07a.37.37 0 0 1-.26-.09.33.33 0 0 1-.1-.24l.07-3.65c0-.07.02-.13.05-.19l.72-1.5a.38.38 0 0 1 .13-.14.42.42 0 0 1 .2-.07l1-.07c.04 0 .09.01.13.03.04.02.08.05.1.1l.82 1.3Z" fill="#FEBB2D"/><path d="m21.56 26.76-.36 1.3c0 .04-.03.06-.05.08a.16.16 0 0 1-.18 0 .14.14 0 0 1-.06-.06l-.55-1.53a.26.26 0 0 1-.02-.07l-.37-2.15.8.2c.1.03.19.09.25.16s.1.16.1.26c.03.58.18 1.19.44 1.8Z" fill="#D65833"/><path d="m21.9 29.88 1.54-5.5c.21.03.38.17.51.4.04.07.05.14.03.21l-1.27 4.38a.17.17 0 0 1-.08.1l-.73.41Z" fill="#A03020"/><path d="m36.17 24.3-.58 1.74a.34.34 0 0 0-.02.13l.1 3.93-1.22-.38c.2-1.48.22-2.89.07-4.22.22-.23.39-.5.5-.81a.2.2 0 0 1 .06-.09.23.23 0 0 1 .1-.05l.99-.25Z" fill="#EB6936"/><path d="M12.9 25.73c-.5.03-1.04-.2-1.6-.7a.31.31 0 0 0-.4-.01c-.05.04-.09.1-.1.17-.02.07 0 .13.03.2.21.33.53.72.96 1.16.05.05.1.1.13.17.22.36.38.57.49.63.03.02.25.3.67.86a.37.37 0 0 1 .07.32c-.1.35-.3.7-.58 1.02l-3.65.07-.03-.02a.05.05 0 0 1-.02-.04V28.4a.1.1 0 0 1 .03-.07.11.11 0 0 1 .08-.03h2l.1-.03a.17.17 0 0 0 .06-.06.16.16 0 0 0-.02-.18l-2.2-2.87a.22.22 0 0 1-.02-.21l.2-.55c.7.23 1.42.42 2.16.56.6.12 1.15.38 1.64.77Z" fill="#FEB22C"/><path d="m33.09 24.33-.1 2.56-.02.03-.02.01h-.03l-.02-.02-.78-1.25c.2-.08.26-.33.2-.75 0-.07.01-.14.05-.2.14-.19.37-.31.72-.38Z" fill="#A03020"/><path d="m17.63 24.69 1.13 5.04-1.21.17c-.06 0-.12-.01-.16-.04a.22.22 0 0 1-.1-.13l-.2-.89a3.3 3.3 0 0 0-1.6.02.34.34 0 0 0-.17.1l-.75.9-.82-.25c-.05-.56.04-1.16.28-1.78a.38.38 0 0 0 .01-.18l-.08-.52a.25.25 0 0 1 .05-.18l.17-.26c.15-.11.25-.23.32-.35.22-.2.37-.47.44-.8.95.56 1.84.28 2.7-.85Z" fill="#FEB22C"/><path d="M27.21 26.3c.08.14.1.27.06.4a.23.23 0 0 1-.06.1.25.25 0 0 1-.1.05l-.34.1a.23.23 0 0 0-.12.09c-.18.3-.15.59.1.87l.03.06v.07l-.05.05a5.11 5.11 0 0 1-.86.05c-.17-.03-.32-.1-.45-.2a.73.73 0 0 1-.25-.37.96.96 0 0 1 .1-.73c.42-.3.8-.15 1.26-.21.03 0 .06-.02.08-.05a.13.13 0 0 0 .04-.09v-.1a.07.07 0 0 0-.03-.02l-.03-.02h-.03a.74.74 0 0 1-.3 0 .32.32 0 0 1-.12-.12.29.29 0 0 1-.05-.16c0-.06.03-.12.06-.16a.29.29 0 0 1 .14-.1.33.33 0 0 1 .3.05c.03.01.04.03.05.05l.02.06v.1c0 .05.01.1.04.13a.2.2 0 0 0 .13.06l.38.05Z" fill="#794E2F"/><path d="m24.52 25.84.19.55c-.08.15-.09.28-.03.38a.2.2 0 0 0 .1.1c.15.06.28.06.4-.01l.1-.02a.96.96 0 0 0-.1.73c.03.13.12.26.24.36.13.1.28.18.46.21a5.1 5.1 0 0 0 .85-.05.12.12 0 0 0 .05-.05.11.11 0 0 0-.02-.13c-.26-.28-.3-.57-.11-.87a.23.23 0 0 1 .12-.09l.34-.1a.25.25 0 0 0 .1-.06.23.23 0 0 0 .06-.1.47.47 0 0 0-.06-.38c.16-.07.23-.24.2-.52l1.04 3.86a.16.16 0 0 1-.02.13.18.18 0 0 1-.11.08l-1.08.25a.2.2 0 0 1-.15-.02.19.19 0 0 1-.05-.04.17.17 0 0 1-.03-.07l-.24-.9a.16.16 0 0 0-.06-.09.18.18 0 0 0-.11-.03h-1.27a.3.3 0 0 0-.16.04.27.27 0 0 0-.1.12l-.42.86a.25.25 0 0 1-.13.12.28.28 0 0 1-.18.01l-.97-.26a.1.1 0 0 1-.04-.02.1.1 0 0 1-.03-.08l.01-.04.35-1.49c.1-.37-.07-.6-.04-.94 0-.04.02-.08.04-.11l.86-1.33Z" fill="#FEB22C"/><path d="m39.81 29.66-1.6-.35a.28.28 0 0 1-.1-.05.26.26 0 0 1-.07-.08 7.1 7.1 0 0 0-.91-1.29.15.15 0 0 0-.17.04c-.02.01-.03.04-.02.08l.2-1.82c0-.01 0-.03.02-.04a.08.08 0 0 1 .04-.02h.05l.03.03 2.53 3.5Z" fill="#A03020"/><path d="M25.18 26.86c-.12.07-.25.07-.4 0a.2.2 0 0 1-.1-.09c-.06-.1-.05-.23.03-.38a.5.5 0 0 1 .36 0c.16.05.2.2.1.47Z" fill="#794E2F"/><path d="M33.29 29.82c-.49-.14-.82-.38-1-.73l-.3-.57-1.13-1.57a.16.16 0 0 0-.08-.06.17.17 0 0 0-.1 0 .16.16 0 0 0-.08.04.15.15 0 0 0-.04.1l-.08 1.43a3.12 3.12 0 0 1 .3-2.02.08.08 0 0 1 .1.01 19.61 19.61 0 0 1 2.41 3.37ZM45.7 29.59c-.76-.07-1.35-.15-1.77-.26-.38-.1-.66-.04-.83.14l.46-.77a.24.24 0 0 1 .08-.08.26.26 0 0 1 .11-.04l1.2-.08c.08 0 .16.01.23.05s.12.1.15.17l.36.87Z" fill="#A03020"/><path d="M17.08 28.84c-.64.62-1.48.96-2.51 1.02l.75-.9c.05-.05.1-.08.17-.1a3.3 3.3 0 0 1 1.6-.02Z" fill="#D65833"/><path d="m44.2 25.66.05-.06a.13.13 0 0 1 .15 0c.03.01.04.03.05.06l.44 1.3a.2.2 0 0 1-.02.18.24.24 0 0 1-.15.1l-.81.2h-.08a.14.14 0 0 1-.06-.04.13.13 0 0 1-.03-.06v-.07l.47-1.6Z" fill="#A03020"/><path d="M25.55 26.37c.17 0 .31-.13.31-.3 0-.15-.14-.29-.31-.29-.18 0-.32.14-.32.3 0 .16.14.3.32.3Z" fill="#794E2F"/><path d="M16.28 25.87a.12.12 0 0 1 .05-.06.13.13 0 0 1 .15.01c.03.02.04.04.05.07l.3 1.34a.2.2 0 0 1-.03.17.25.25 0 0 1-.16.1l-.82.11a.14.14 0 0 1-.13-.05.12.12 0 0 1-.02-.12l.61-1.57Z" fill="#D65833"/><path d="m31.3 35.66-.1.11a.17.17 0 0 1-.14.07c-.76 0-1.4.04-1.91.15a.3.3 0 0 1-.2-.02l-.87-.43a.24.24 0 0 0-.14-.02l-1.88.33a6.16 6.16 0 0 0-2.26.08c-.04 0-.08 0-.12-.02l-.43-.2a.33.33 0 0 0-.23-.03 2.3 2.3 0 0 1-1.68-.15.58.58 0 0 1-.25-.22.64.64 0 0 1-.09-.34c0-.38.02-.98.06-1.78.03-.54.38-1.18.98-1.18.62 0 .9.2 1.53.2.27 0 .52.09.74.24.12.08.26.11.4.08.68-.16 1.6-.32 2.73-.48.2-.03.43-.01.69.05.58.14 1.06-.4 1.6.17l.1.06h.11l.38-.06c.07-.01.15 0 .2.05.2.15.44.2.7.13.59-.15 1.25-.27 2-.35.13-.02.25.02.36.1.1.08.18.2.21.33a3.76 3.76 0 0 1 .08 1.2l.02.04.05.02a.1.1 0 0 0 .05 0c.99-.17 1.28.8.75 1.5a.31.31 0 0 1-.23.13c-.85.08-1.6.21-2.24.4a.82.82 0 0 1-.77-.13.21.21 0 0 0-.2-.03Z" fill="#D7925E"/><path d="m22.37 35.6-.83-.2a.36.36 0 0 1-.2-.14.41.41 0 0 1-.08-.25l.04-2.03c0-.25.18-.48.56-.7.15-.1.52-.05 1.13.15.08.03.16.04.25.02.4-.05.73.02.96.2.08.06.18.1.27.09a9.59 9.59 0 0 0 1.6-.28c.09-.02.24 0 .45.05.07.01.14 0 .2-.03.4-.25.82-.29 1.25-.1a.4.4 0 0 0 .13.02c.44.01 1.25-.53 1.5.14.02.04.04.07.08.1.03.01.07.02.11.01a.63.63 0 0 0 .24-.1.29.29 0 0 1 .3-.02l.31.14c.08.04.17.06.26.04l2.37-.41h.05c.54.2.33 1.22.33 1.56 0 .04.02.08.05.11.02.03.06.05.1.05h.57a.4.4 0 0 1 .2.05c.05.03.1.08.15.13a.49.49 0 0 1 .07.41l-.05.2a.64.64 0 0 1-.2.32c-.09.09-.2.14-.32.15-.49.04-.83.06-1.02.06-.68.01-.84.56-1.62.12-.16-.09-.35-.06-.54.1-.1.06-.2.1-.31.09a3.75 3.75 0 0 0-1.49.1.3.3 0 0 1-.22-.02l-.85-.42a.22.22 0 0 0-.1-.02c-.45 0-.96.09-1.51.25a.89.89 0 0 1-.7-.05.14.14 0 0 0-.09-.02l-1.87.2a.42.42 0 0 1-.31-.09c-.25-.2-.6-.2-1.05 0a.28.28 0 0 1-.17.01Z" fill="#46150B"/><path d="M28.97 33.18c0 .03 0 .05-.04.05a.31.31 0 0 1-.18-.08.36.36 0 0 1-.12-.17.38.38 0 0 1 0-.21.36.36 0 0 1 .1-.17c.07-.06.18-.1.33-.1.14 0 .2.06.2.2 0 .08-.02.17-.07.27v.02l.13 2.36a.1.1 0 0 1 0 .05.1.1 0 0 1-.03.03.09.09 0 0 1-.09.01l-.52-.2a.14.14 0 0 1-.07-.05.16.16 0 0 1-.03-.09v-1.69c0-.06.02-.12.06-.16.04-.05.1-.08.15-.08l.15-.01h.02l.01.02Z" fill="#FEBB2D"/><path d="M22.36 33.09a.16.16 0 0 0-.13 0 .2.2 0 0 0-.09.13.33.33 0 0 0 0 .17c.02.06.05.12.1.16.24.2.45.3.64.27.04 0 .08.01.12.04.03.02.06.06.07.1.08.42.07.76-.03 1.02a.26.26 0 0 1-.07.11.23.23 0 0 1-.12.05c-.53.07-.9.07-1.1-.01a.47.47 0 0 1-.23-.19.51.51 0 0 1-.08-.29c0-.1.03-.19.1-.26a.36.36 0 0 1 .22-.13c.2-.03.35.13.44.5 0 .02.02.05.04.06l.08.04c.02 0 .05 0 .07-.02a.14.14 0 0 0 .06-.06l.13-.32a.21.21 0 0 0-.01-.19.2.2 0 0 0-.07-.07.17.17 0 0 0-.08-.02c-.5-.02-.77-.15-.83-.4-.12-.52-.04-.9.24-1.15a.26.26 0 0 1 .2-.06l.8.13c.04 0 .08.03.11.06.03.02.06.06.07.1.06.25.08.4.06.47a.36.36 0 0 1-.16.2.32.32 0 0 1-.23.03.35.35 0 0 1-.2-.14.4.4 0 0 1-.08-.24c0-.05-.01-.08-.04-.1ZM27.59 34.24c0 .02.01.04.03.05.01.02.03.03.05.03.02 0 .04 0 .06-.02a.1.1 0 0 0 .03-.05l.13-1.36a.2.2 0 0 1 .06-.12.18.18 0 0 1 .1-.05l.3-.02.1.01a.2.2 0 0 1 .07.06l.04.09v.1l-.48 1.88a.2.2 0 0 1-.06.1.19.19 0 0 1-.11.05l-.68.05h-.05a.13.13 0 0 1-.05-.03.15.15 0 0 1-.05-.1l-.13-2.01a.27.27 0 0 1 .06-.19.24.24 0 0 1 .07-.06.23.23 0 0 1 .1-.03l.27-.02h.05l.05.04a.14.14 0 0 1 .04.1v1.5Z" fill="#FFCF32"/><path d="M32.77 34.87v-2.05c0-.03 0-.07.03-.1a.14.14 0 0 1 .09-.05l.28-.05h.07l.06.04.05.06a.2.2 0 0 1 .01.08v1.48a.17.17 0 0 0 .05.12l.06.03h.06l.72-.12h.1a.2.2 0 0 1 .08.06l.05.1v.1l-.02.13a.37.37 0 0 1-.12.2.32.32 0 0 1-.2.09h-1.27a.1.1 0 0 1-.07-.04.12.12 0 0 1-.03-.08ZM25 33.12v1.91c0 .03-.02.07-.04.09a.12.12 0 0 1-.07.05l-.92.16a.53.53 0 0 1-.46-.14.64.64 0 0 1-.2-.46v-1.8c0-.06.02-.1.06-.14a.17.17 0 0 1 .12-.06h.2c.06 0 .11.03.15.07.04.05.07.1.07.17v1.49c0 .05.02.11.06.15a.2.2 0 0 0 .14.06h.12a.2.2 0 0 0 .14-.06c.04-.04.06-.1.06-.15v-1.22c0-.05.02-.1.06-.15a.2.2 0 0 1 .14-.06h.28c.02 0 .04 0 .06.03a.1.1 0 0 1 .02.06ZM26.55 34.05c.25.24.33.56.21.96a.31.31 0 0 1-.12.17.27.27 0 0 1-.37-.06.33.33 0 0 1-.07-.2v-.58a.2.2 0 0 0-.05-.13.16.16 0 0 0-.12-.06h-.07a.2.2 0 0 0-.14.07.23.23 0 0 0-.06.16v.54c0 .06-.02.12-.06.16a.2.2 0 0 1-.15.07h-.12a.15.15 0 0 1-.11-.05.18.18 0 0 1-.05-.12v-1.75c0-.03 0-.05-.02-.07l-.04-.06a.08.08 0 0 1 0-.1l.04-.02c.54-.25 1-.27 1.4-.05a.32.32 0 0 1 .15.2c.1.38.02.64-.23.77a.09.09 0 0 0-.04.03.1.1 0 0 0-.01.09l.03.03ZM31.72 34.39l-.06.03a.21.21 0 0 0-.08.1.24.24 0 0 0-.02.13c.02.16-.04.31-.19.46a.2.2 0 0 1-.27.03.24.24 0 0 1-.09-.12.26.26 0 0 1 0-.15l.45-1.8c.01-.06.04-.1.08-.14a.25.25 0 0 1 .13-.07l.48-.08c.04 0 .08 0 .12.03.03.03.06.07.06.11l.3 1.98a.3.3 0 0 1-.04.21.27.27 0 0 1-.08.07.25.25 0 0 1-.1.04l-.32.06a.1.1 0 0 1-.1-.03.14.14 0 0 1-.04-.1v-.62l-.01-.08a.16.16 0 0 0-.06-.06.15.15 0 0 0-.16 0ZM30.15 34.54c0 .02 0 .04.02.05.01.02.03.03.05.03h.06a.09.09 0 0 0 .03-.06 3.96 3.96 0 0 0 .16-1.44c.01-.02.02-.05.04-.06a.17.17 0 0 1 .05-.05.16.16 0 0 1 .07-.01h.32a.2.2 0 0 1 .1.02.2.2 0 0 1 .07.07.23.23 0 0 1 .03.19l-.45 1.8c-.01.04-.03.08-.06.1a.2.2 0 0 1-.1.06c-1.28.35-1.04-1.16-1.03-2.08a.17.17 0 0 1 .12-.17l.4-.13a.09.09 0 0 1 .08.02.1.1 0 0 1 .03.03l.01.05v1.58Z" fill="#FEBB2D"/><path d="M26.08 33.68a.29.29 0 0 0 .24-.32.27.27 0 0 0-.33-.21.29.29 0 0 0-.23.32c.02.15.17.24.32.21Z" fill="#46150B"/><path d="M32 33.95a.15.15 0 0 1-.05.07.14.14 0 0 1-.17-.02.16.16 0 0 1-.05-.08.66.66 0 0 1 .08-.54l.03-.03h.05l.03.01.02.04c.07.33.09.5.07.55Z" fill="#372311"/></svg>