<svg width="56" height="56" viewBox="0 0 56 56" xmlns="http://www.w3.org/2000/svg"><path d="M28.5 22a1.5 1.5 0 1 0 0-3 1.5 1.5 0 0 0 0 3Z"/><path fill-rule="evenodd" d="M26.15 13.78a14.36 14.36 0 0 0-9.88 22.48c.21.32.49.68.81 1.1.2.24.14.78-.1 1-.5.48-1.03.23-1.41-.25A16 16 0 0 1 28.1 12c4.46-.01 8.61 1.9 11.63 5.12a15.9 15.9 0 0 1 1.64 19.66 16.15 16.15 0 0 1-12.65 7.2 8.45 8.45 0 0 1-8.55-5.34 8.42 8.42 0 0 1 6.64-11.4c.37-.05.76-.07 1.14-.09a7.07 7.07 0 0 0 4.44-1.5 6.78 6.78 0 0 0 2.62-5.93c-.04-1-.25-1.93-.69-2.8a5.74 5.74 0 0 0-4.93-3.27c-.93-.08-2-.04-3.24.12ZM30 35.5a1.5 1.5 0 1 1-3 0 1.5 1.5 0 0 1 3 0Z"/></svg>