<svg width="56" height="56" viewBox="0 0 56 56" xmlns="http://www.w3.org/2000/svg"><path d="M28.5 12c-.16.06-.24.12-.22.2l-.6.19c-.44.01-.93-.08-1.46-.29.76-.09 1.52-.12 2.28-.1Z" fill="#2B3539"/><path d="M30.93 12.27c-.37.08-.72.07-1.07-.02a.22.22 0 0 0-.13 0c-.1.05-.16.12-.15.22a3.4 3.4 0 0 0-1.3-.28c-.02-.07.06-.13.22-.18.82.02 1.63.11 2.43.26ZM26.22 12.1c.53.2 1.02.3 1.46.29l-.85.77-1.6-.92c.33-.06.66-.1 1-.14Z" fill="#65666D"/><path d="m25.23 12.24 1.6.92.8.46a.14.14 0 0 1 .07.16.14.14 0 0 1-.13.1c-1.6.04-2.8-.41-3.63-1.36.43-.1.86-.2 1.3-.28Z" fill="#EAF2F7"/><path d="M28.29 12.2c.44 0 .88.09 1.3.27.2.1.37.15.5.12.02.2.16.35.4.45l.55.63c.06.2.2.44.41.7.2.23.32.42.38.6l-.36.53a.12.12 0 0 0 .01.14l.04.03c.05.03.16.07.32.12.07.02.1.05.1.1 0 .03-.03.06-.08.08a.16.16 0 0 0-.1.16l.08.66a.13.13 0 0 0 .11.11h.06a1.54 1.54 0 0 1 .72-.1l1.26.35a.1.1 0 0 1 .08.11.11.11 0 0 1-.1.1h-.28c-.11 0-.17.02-.19.09 0 .05.02.12.09.21l-1.08-.56a.44.44 0 0 0-.6.2.44.44 0 0 0-.04.24l.22 2.02a.19.19 0 0 0 .16.17l.98.14-1.44.16a.12.12 0 0 1-.1-.04.12.12 0 0 1-.04-.1c.15-.8.02-1.55-.4-2.27-.38-.32-.72-.25-1 .23-.41.4-.53.9-.36 1.53l-.01.1a.14.14 0 0 1-.08.07c-.12.04-.26.07-.4.07a.32.32 0 0 1-.19-.06 1.74 1.74 0 0 1-.56-.72.35.35 0 0 0-.14-.28l-.23-.36c.15-.06.32-.08.5-.06a.11.11 0 0 0 .1-.03.1.1 0 0 0 .02-.09A4.58 4.58 0 0 0 27.66 15c-.3-.31-.77-.6-1.44-.84-.5-.18-1.32-.44-2.45-.77-.6-.17-1.04-.3-1.33-.4.5-.17 1-.33 1.5-.47.82.95 2.04 1.4 3.63 1.37a.14.14 0 0 0 .14-.11.14.14 0 0 0-.07-.16l-.81-.46.85-.77.6-.2Z" fill="#D3DAE6"/><path d="M30.93 12.27c.7.13 1.38.3 2.05.53l-2.9-.2c-.12.02-.29-.02-.5-.13 0-.1.04-.17.15-.21a.22.22 0 0 1 .13 0c.35.08.7.09 1.07.01Z" fill="#1B2227"/><path d="M32.98 12.8c.34.1.67.23 1 .36-.12.1-.24.14-.35.13-.8-.08-1.84-.23-3.1-.43-.07 0-.08.05-.04.18-.25-.1-.38-.25-.4-.45l2.9.2Z" fill="#849A8D"/><path d="m33.99 13.16.3.13c-.1.08-.16.16-.16.23 0 .09.06.15.18.19.24.07.5.05.79-.05.3.15.62.32.92.5-1.52-.05-3.01-.15-4.47-.29-.06 0-.13.05-.22.15l-.29-.35-.55-.63c-.04-.13-.03-.19.03-.18 1.28.2 2.32.35 3.12.43.1.01.23-.03.35-.13Z" fill="#65666D"/><path d="m22.44 13 1.33.4c1.13.32 1.95.58 2.45.76.67.25 1.15.53 1.44.84a4.58 4.58 0 0 1 1.24 3.07.1.1 0 0 1-.07.06h-.04c-.2 0-.36.01-.51.07l-.24-.21-.22-.46c0-.24.19-.22.55.06a.18.18 0 0 0 .28-.13l.01-.11a.6.6 0 0 0-.2-.5 8.73 8.73 0 0 0-4.72-1.99c-.7-.08-1.25 0-1.62.25-.45.3-.3.75.48 1.33-.3.12-.58.15-.85.08l-.6-.27a.21.21 0 0 1-.07-.05l-.57-.64-.84-1.22c.88-.54 1.8-.99 2.77-1.34Z" fill="#BBCBE0"/><path d="m31.33 14.02.12.11c.04.04.1.07.16.07l5.37.56c.55.37 1.09.79 1.59 1.23-1.32.17-2.58.5-3.79.99l-.4-.17a5.44 5.44 0 0 1-2.55-1.85 2.07 2.07 0 0 0-.38-.6 1.93 1.93 0 0 1-.41-.69l.3.35Z" fill="#A59F97"/><path d="M27.68 14.12a.08.08 0 0 1-.05-.06.08.08 0 0 1 .03-.07c.1-.07.22-.07.35 0a.1.1 0 0 1 .04.1.09.09 0 0 1-.07.07.66.66 0 0 1-.3-.04Z" fill="#AEB4BB"/><path d="M28.79 14.04c.54-.1 1.04.08 1.53.53a.47.47 0 0 1 .13.45l-.02.1a.13.13 0 0 1-.1.1.14.14 0 0 1-.13-.04c-.26-.24-.47-.37-.64-.4a.29.29 0 0 1-.15-.05l-.65-.56a.07.07 0 0 1-.03-.07.07.07 0 0 1 .06-.06Z" fill="#315D9E"/><path d="m19.67 14.34.84 1.22-.77.78a.17.17 0 0 1-.2.04l-1.03-.46a.17.17 0 0 1-.06-.26.17.17 0 0 1 .09-.05l1.4-.39a.06.06 0 0 0 .02-.1l-.64-.56.35-.22Z" fill="#C8BFB9"/><path d="m19.32 14.56.64.56a.06.06 0 0 1 0 .09l-.03.01-1.4.39a.16.16 0 0 0-.12.15.17.17 0 0 0 .1.17l1.03.45c.04.01.07.02.1 0 .04 0 .07-.01.1-.04l.77-.78.57.64.07.05.6.27.1.28c-.11.88-.44 1.64-1 2.27a.51.51 0 0 1-.16-.43.16.16 0 0 0-.13-.16l-1.33-.21h-.06l-.5.2a.26.26 0 0 1-.2-.01c-.17-.1-.33-.06-.5.1a.11.11 0 0 0-.03.1.1.1 0 0 0 .06.07c.27.14.4.38.43.73.01.07 0 .14-.04.2-.06.1-.23.23-.53.43a.15.15 0 0 1-.1.02.14.14 0 0 1-.1-.05l-.24-.3a.31.31 0 0 0-.2-.11l-.13-.02a.14.14 0 0 0-.15.2c.1.2.3.36.58.47l.17.76h-.26a.18.18 0 0 0-.07.07c-.24.4-.36.82-.34 1.25a3.9 3.9 0 0 0 1.5 3.64c.67.53 1.12.92 1.34 1.2-.04.5-.01.91.07 1.23.35 1.3.66 2.58.96 3.87l.52 2.86c-3.03-.17-6.04-1.4-9.03-3.7a16 16 0 0 1 4.08-14.56l1.47.01a.14.14 0 0 0 .06-.27c-.22-.1-.48-.12-.78-.08-.07.02-.12 0-.16-.07-.03-.05-.02-.11 0-.18.7-.66 1.46-1.25 2.27-1.77Z" fill="#AEA8A0"/><path d="M27.82 17.53a4 4 0 0 0-2.9-1.45c-.4-.02-1.02.06-1.86.26l-.46.1c-.77-.58-.93-1.03-.48-1.33.37-.25.92-.33 1.62-.25 1.87.23 3.44.9 4.72 1.99a.6.6 0 0 1 .2.5v.11a.18.18 0 0 1-.2.16.18.18 0 0 1-.1-.03c-.35-.28-.53-.3-.54-.06Z" fill="#A4BCD8"/><path d="M34.78 16.98c0 .02 0 .05-.03.1a.13.13 0 0 0-.06-.03.1.1 0 0 0-.1.06.1.1 0 0 0 0 .04c-.01.08-.04.13-.08.16a.06.06 0 0 0-.03.03v.04l.17.44a.09.09 0 0 1-.06.11l-.3.08a.14.14 0 0 0-.07.06.13.13 0 0 0-.02.1c.05.25.35.51.9.79l.18.09c.07.04.12.1.14.18.02.08.02.14 0 .2a.1.1 0 0 0 .03.1.1.1 0 0 0 .1.04.58.58 0 0 0 .27-.15.72.72 0 0 1-.2.16.3.3 0 0 1-.2.02l-1-.2a.13.13 0 0 0-.13.05l-.02.05-.08.67c-.08-.12-.12-.34-.11-.64 0-.39.11-.6.32-.63a.08.08 0 0 0 .07-.1l-.01-.03a.19.19 0 0 0-.13-.08c-.18-.05-.3-.24-.35-.57l-.4-.46c-.06-.09-.09-.16-.08-.21.02-.07.08-.1.2-.1.12.02.21.02.27.01a.11.11 0 0 0 .1-.1.1.1 0 0 0-.08-.11l-1.26-.34a1.53 1.53 0 0 0-.72.09.12.12 0 0 1-.11-.02.13.13 0 0 1-.06-.1l-.07-.65a.16.16 0 0 1 .09-.16c.05-.02.07-.05.07-.09 0-.04-.02-.07-.09-.09a3.6 3.6 0 0 1-.36-.15.12.12 0 0 1-.03-.09l.02-.05.36-.54a5.44 5.44 0 0 0 2.55 1.85l.4.17Z" fill="#CD9389"/><path d="m27.82 17.53.22.46-1.3.59-.2-.03c-1.81-.21-3.06-.62-3.74-1.21a.17.17 0 0 1-.06-.16.17.17 0 0 1 .1-.13l.64-.24a.07.07 0 0 0 .04-.07.07.07 0 0 0-.05-.06l-.33-.09a3.41 3.41 0 0 1-1.3.2l-.09-.27c.27.07.55.04.85-.08a19 19 0 0 0 .46-.1c.84-.2 1.46-.28 1.86-.26a4 4 0 0 1 2.9 1.45Z" fill="#869AB1"/><path d="M38.57 15.99c1.03.9 1.94 1.93 2.7 3.07-.06.12-.25.2-.57.23-.02 0-.03 0-.04.02a.06.06 0 0 0-.02.04.07.07 0 0 0 .04.07c.28.13.58.16.88.1A16.02 16.02 0 0 1 44 28.66l-1.94-.1-.1-.02a15.8 15.8 0 0 0-3.43-.35l-.01.03-.01.07 2.38.33a.12.12 0 0 1 .1.13c-.08.78-.22 1.5-.41 2.15a3.06 3.06 0 0 1-2.1 2.13c-.66.22-1.7.34-3.11.38l.22-.92.97-3.22.25-1.55a.34.34 0 0 1 .14-.22l1.24-.9c1.9-1.58 2.19-3.4.86-5.47-.16-.25-.34-.21-.54.1-.4 0-.73-.08-.96-.24a.27.27 0 0 0-.1-.05c-.38-.08-.63 0-.75.27a.18.18 0 0 1-.34-.03c-.1-.41-.26-.66-.47-.76a.05.05 0 0 1-.03-.05.05.05 0 0 1 .04-.05 3.12 3.12 0 0 1 1.2.12.08.08 0 0 0 .05-.07v-.05L37 20a.08.08 0 0 1 0-.08c.05-.07.12-.1.22-.08a.33.33 0 0 0 .19-.09c.03 0 .03-.03.02-.07v-.02c-.25-.2-.52-.49-.8-.87-.09-.12-.24-.17-.45-.15a3.66 3.66 0 0 0-1.44-1.57.26.26 0 0 0 .03-.1c1.2-.48 2.47-.81 3.79-.98Z" fill="#AEA8A0"/><path d="M17.06 16.33c-.03.07-.03.13 0 .18.03.06.08.09.16.07.3-.04.55-.02.77.08a.14.14 0 0 1-.06.27l-1.47-.01.6-.6Z" fill="#404041"/><path d="m26.74 18.58-2.2.25-1.05 1.08a.2.2 0 0 1-.05.04l-1.06.51a.3.3 0 0 0-.17.25l-.09.96-.11-.96a.34.34 0 0 0-.1-.2.74.74 0 0 1-.17-.29.8.8 0 0 0-.3-.4 1.6 1.6 0 0 1-.58-.75c.55-.63.88-1.39.98-2.27a3.41 3.41 0 0 0 1.3-.2l.33.08a.07.07 0 0 1 .05.06.07.07 0 0 1-.04.07l-.63.24a.17.17 0 0 0-.05.29c.68.6 1.93 1 3.74 1.21l.2.03Z" fill="#A8AEBD"/><path d="m33.59 17.66.4.46-.76 1.75-.98-.14a.19.19 0 0 1-.16-.17l-.22-2.02a.44.44 0 0 1 .19-.42.44.44 0 0 1 .45-.02l1.08.56Z" fill="#EAF2F7"/><path d="M34.75 17.07c.66.4 1.14.92 1.44 1.57-.03.1-.05.12-.08.08-.15.16-.25.4-.29.7a.58.58 0 0 1-.28.15.1.1 0 0 1-.12-.13.39.39 0 0 0 0-.2.32.32 0 0 0-.14-.2 2.17 2.17 0 0 0-.18-.08c-.55-.28-.85-.54-.9-.79 0-.03 0-.07.02-.1a.14.14 0 0 1 .08-.06l.3-.08a.09.09 0 0 0 .05-.04.09.09 0 0 0 0-.07l-.17-.44v-.04l.03-.03c.04-.03.07-.08.07-.16a.1.1 0 0 1 .07-.1.1.1 0 0 1 .04 0l.06.02Z" fill="#E68551"/><path d="m31.26 17.62.42 1.7a.28.28 0 0 1-.17.33l-2.58 1a.19.19 0 0 0-.12.2.2.2 0 0 0 .18.17c.85.05 1.67-.1 2.47-.47l-1.29.8a.18.18 0 0 0-.09.14c-.03.27-.14.44-.34.52-.44.18-.75.5-.92.96l.35-.84c.22-.07.31-.17.28-.3a.2.2 0 0 0-.3-.13c-.87.4-1.76.79-2.67 1.14l-1.3.44a.27.27 0 0 1-.21-.01 3.33 3.33 0 0 0-1.94-.25l2.48-1.96 1.51-.78c.43-.26.93-.44 1.5-.55a.23.23 0 0 0 .19-.2c0-.04 0-.08-.02-.1a1.02 1.02 0 0 1-.04-.59c.13.3.31.53.56.72.06.04.12.06.2.06.13 0 .26-.03.39-.07a.14.14 0 0 0 .07-.07.15.15 0 0 0 .02-.1c-.18-.63-.06-1.14.36-1.53a.5.5 0 0 1-.2.34.23.23 0 0 0-.07.2l.09.8c0 .04.02.09.06.12.03.04.08.06.13.07l1.13.15a.16.16 0 0 0 .17-.14c.05-.84-.27-1.37-.96-1.62a.3.3 0 0 0-.22.02l-.13.06c.28-.48.61-.55 1-.23Z" fill="#AEB4BB"/><path d="m33.23 19.87.75-1.75c.05.33.16.52.35.57.06.01.1.04.12.08a.09.09 0 0 1-.02.11.08.08 0 0 1-.04.02c-.2.03-.3.24-.31.63-.01.3.03.52.1.64l.27.12c.38 0 .27.14-.32.45l-.04.05a.88.88 0 0 1-.8-.37.17.17 0 0 0-.3.1v.43a.1.1 0 0 1-.06.09.1.1 0 0 1-.1-.02l-.2-.2c-.13-.16-.12-.37.03-.62a.1.1 0 0 0-.01-.1.1.1 0 0 0-.03-.03c-.1-.05-.21.01-.35.2-.34-.08-.61.01-.8.28-.81.36-1.63.52-2.48.47a.2.2 0 0 1-.18-.16.19.19 0 0 1 .12-.2l2.58-1a.28.28 0 0 0 .17-.34l-.42-1.7a3.24 3.24 0 0 1 .4 2.32.12.12 0 0 0 .07.08h.05l1.45-.15Z" fill="#C2D0C8"/><path d="m30.25 17.85.13-.06a.3.3 0 0 1 .22-.02c.69.25 1.01.78.96 1.62a.16.16 0 0 1-.11.14h-.07l-1.12-.15a.23.23 0 0 1-.13-.07.22.22 0 0 1-.06-.13l-.09-.8a.23.23 0 0 1 .08-.2.5.5 0 0 0 .19-.33Z" fill="#716A7E"/><path d="m28.04 17.99.23.21.23.36v.14a.13.13 0 0 1-.13.12c-.5.05-.87.02-1.09-.07a.32.32 0 0 0-.19-.02l-1.18.2a.1.1 0 0 0-.03 0c-.1.05-.14.13-.11.23.02.07 0 .12-.07.15a.54.54 0 0 1-.26.03l-.9-.5 2.2-.26 1.3-.6Z" fill="#A3704D"/><path d="M20.86 19.07c.12.32.32.57.58.76.14.1.24.23.3.4.05.11.1.21.17.28.06.05.1.12.1.2l.11.96a.19.19 0 0 0-.03.12c-.38.15-.68.1-.9-.18a.11.11 0 0 1-.03-.1.12.12 0 0 1 .05-.07.24.24 0 0 0 .05-.04.15.15 0 0 0 .03-.18.16.16 0 0 0-.04-.05l-.42-.32a.2.2 0 0 1-.07-.2l.04-.17a.27.27 0 0 0-.04-.23l-.43-.62c0-.06.09-.14.24-.25a.13.13 0 0 0 .04-.14.12.12 0 0 0-.02-.04c-.1-.12-.2-.2-.27-.24a.57.57 0 0 0-.73.17c-.37.52-.77 1-1.2 1.43a2.02 2.02 0 0 0-.87-.26 1 1 0 0 1-.58-.47.14.14 0 0 1 .15-.2l.13.02c.08 0 .15.05.2.1l.25.3c.02.03.05.05.09.06.03 0 .07 0 .1-.02.3-.2.47-.34.53-.43a.35.35 0 0 0 .05-.2c-.03-.35-.17-.6-.44-.73a.1.1 0 0 1-.05-.13c0-.02.01-.03.03-.04.16-.16.32-.2.48-.1a.25.25 0 0 0 .21 0l.5-.19h.06l1.33.21a.16.16 0 0 1 .14.16c-.01.18.04.32.16.43Z" fill="#8E8880"/><path d="M28.65 18.84c-.04.22-.03.41.04.58a.23.23 0 0 1-.08.28.22.22 0 0 1-.09.03c-.57.11-1.06.3-1.5.55l-1.58-.94c.11.01.2 0 .26-.03.07-.03.1-.08.07-.15-.03-.1.01-.18.12-.23h.02l1.19-.2c.06-.02.13 0 .19.02.21.1.58.12 1.09.07a.13.13 0 0 0 .11-.12l.02-.14c.09.07.13.16.14.28Z" fill="#AF9F75"/><path d="M36.11 18.72c.04.06.04.12 0 .2l-.3.8a.25.25 0 0 1-.23.17h-1.21a.1.1 0 0 0-.05.02.08.08 0 0 0-.03.03c-.05.1 0 .22.16.35l-.27-.12.09-.67a.13.13 0 0 1 .1-.1h.05l1 .2a.3.3 0 0 0 .19-.02.72.72 0 0 0 .21-.16c.04-.3.14-.54.3-.7Z" fill="#A3704D"/><path d="M20.33 19.63 19.3 20.7a.26.26 0 0 1-.18.08c-.23 0-.48-.07-.74-.22.43-.43.83-.9 1.2-1.43a.57.57 0 0 1 .73-.17c.08.04.17.12.27.24a.12.12 0 0 1 .03.09.12.12 0 0 1-.05.09c-.15.1-.23.2-.24.25Z" fill="#1B2227"/><path d="m25.44 19.34 1.58.94-1.51.78c-.26.03-.44-.04-.55-.2a.47.47 0 0 0-.15-.15.5.5 0 0 0-.2-.07.57.57 0 0 0-.42.12c-.61.5-1.25 1-1.93 1.53a.16.16 0 0 1-.18.02.17.17 0 0 1-.09-.16c0-.1.04-.22.1-.36 0-.05 0-.1.03-.12l.1-.96a.3.3 0 0 1 .16-.25l1.06-.51a.2.2 0 0 0 .05-.04l1.05-1.08.9.51Z" fill="#EAF2F7"/><path d="m36.11 18.91.99.75c.05.04.12.07.2.07l.12.02a.33.33 0 0 1-.2.09c-.24-.11-.43-.02-.56.29a.2.2 0 0 1-.18.12l-.61.04a.13.13 0 0 0-.1.05.13.13 0 0 0-.02.1c.01.03.06.06.14.08l.15.22c.21.33.32.64.31.93a.17.17 0 0 0 .08.14l.62.44c.28.31.37.67.3 1.1l-.02.03c-.01-.2-.24-.27-.69-.23a.27.27 0 0 1-.26-.16.26.26 0 0 1-.02-.1v-.33a.14.14 0 0 1 .22-.12.5.5 0 0 0 .39.1.1.1 0 0 0 .07-.07.09.09 0 0 0-.03-.09 1.8 1.8 0 0 0-.84-.41.26.26 0 0 0-.24.07c-.19.19-.4.32-.62.4a.07.07 0 0 1-.08-.02.07.07 0 0 1 0-.09c.62-.7.54-1.09-.23-1.17l-.66.58a.08.08 0 0 1-.14-.04v-.05c.15-.38.44-.64.87-.79a.14.14 0 0 0-.02-.27c-.25-.04-.56 0-.92.15.6-.3.7-.46.32-.45-.15-.13-.2-.25-.16-.35l.03-.03a.1.1 0 0 1 .05-.02h1.21a.24.24 0 0 0 .23-.16l.3-.82Z" fill="#633E28"/><path d="M41.56 19.52c-.3.06-.6.03-.88-.1a.07.07 0 0 1-.04-.07.06.06 0 0 1 .06-.06c.32-.03.5-.1.57-.23l.3.46Z" fill="#817D78"/><path d="M22.09 21.79c-.06.14-.1.26-.1.36a.17.17 0 0 0 .1.16.17.17 0 0 0 .17-.02c.68-.52 1.32-1.04 1.93-1.53a.57.57 0 0 1 .42-.12.47.47 0 0 1 .35.22c.1.16.3.23.55.2l-2.48 1.96.09.02c-.18-.1-.34-.12-.48-.06-.58-.7-1.13-.87-1.63-.5a223 223 0 0 1-1.78-1.17c-.54-.36-.9-.3-1.1.19-.1-.1-.24-.19-.4-.24a.1.1 0 0 1-.06-.05.1.1 0 0 1 0-.08l.02-.07-.17-.76c.33.03.62.12.86.26.27.15.52.22.75.22.06 0 .13-.03.18-.08l1.01-1.07.44.62a.28.28 0 0 1 .04.23l-.04.17a.2.2 0 0 0 .07.2l.41.32a.15.15 0 0 1 .02.23.23.23 0 0 1-.05.04.12.12 0 0 0-.05.08.11.11 0 0 0 .03.09c.22.27.52.33.9.18Z" fill="#CBC7D2"/><path d="M37.23 19.84c-.1-.01-.17.01-.21.08A.08.08 0 0 0 37 20l.12.32a.08.08 0 0 1 0 .1.08.08 0 0 1-.1.02 3.12 3.12 0 0 0-1.17-.1.05.05 0 0 0 .02.08c.2.1.37.35.47.76a.18.18 0 0 0 .34.03c.12-.26.37-.35.74-.27l.1.05c.24.16.56.24.96.24l-.74.03a.05.05 0 0 0-.05.04.05.05 0 0 0 .03.05c.43.18.6.36.53.52-.12.32.07.33.58.02.05 0 .08 0 .1.04a.05.05 0 0 1 0 .05.2.2 0 0 0-.04.15c-.43.19-.67.4-.73.64a.44.44 0 0 0-.46.03c-.06.04-.1.1-.11.17a.57.57 0 0 1-.25.37 1.25 1.25 0 0 0-.3-1.1l-.62-.43a.17.17 0 0 1-.08-.14c.01-.29-.1-.6-.3-.93l-.16-.22c-.08-.02-.13-.05-.14-.08a.13.13 0 0 1 .12-.15l.62-.04a.2.2 0 0 0 .17-.12c.13-.3.32-.4.57-.3Z" fill="#849A8D"/><path d="M32.63 20.83c.1.32.15.63.14.92a.08.08 0 0 0 .11.08c.02-.01.04-.02.04-.04.17-.32.4-.53.71-.64l-.9 1.34a.14.14 0 0 0 .15.22l1.37-.35-.5.38a.42.42 0 0 0-.15.25c-.1.44-.42.87-.98 1.3-.99.55-1.9 1.26-2.72 2.14.02-.18 0-.37-.06-.55a.2.2 0 0 1 .06-.2.56.56 0 0 1 .45-.16c.17 0 .3-.05.38-.17.27-.42.54-.74.8-.96a.4.4 0 0 0 .12-.19c.08-.3.14-.7.15-1.19.01-.3.03-.53.05-.7a.3.3 0 0 1 .09-.17l.24-.25a.25.25 0 0 0 .08-.19l-.08-1.21.1-.23c.13-.18.25-.24.34-.19a.1.1 0 0 1 .05.06.1.1 0 0 1-.01.07c-.14.25-.15.46-.03.63Z" fill="#1F5F22"/><path d="m32.28 20.26-.1.23a1.5 1.5 0 0 0-1.02.45.13.13 0 0 0-.04.1c0 .03.01.06.04.09l.42.42c.04.04.06.09.07.14.05.49-.04.79-.26.9-.18.02-.32-.09-.42-.3a.13.13 0 0 0-.08-.07.12.12 0 0 0-.11.02c-.08.07-.12.18-.1.35 0 .02 0 .03.02.05l.16.16a.19.19 0 0 1 .01.26.19.19 0 0 1-.08.05l-.71.28a.2.2 0 0 0-.05.36l.05.03.06.03.05-.01.63-.24a.08.08 0 0 1 .09.01.09.09 0 0 1 .02.09c-.07.24-.18.34-.32.3a.92.92 0 0 0-.38-.01.65.65 0 0 1-.33-.03c-.1-.03-.16-.04-.18 0a.37.37 0 0 0-.06.3c.01.05.04.1.07.13a.3.3 0 0 0 .12.08c.04.01.07.04.08.08a.05.05 0 0 1 0 .05l-.02.01h-.03a.83.83 0 0 0-.47-.05c-.13.03-.17.13-.12.31-.08-.1-.14-.24-.2-.43a3.12 3.12 0 0 0 .7-.82.07.07 0 0 0-.03-.05l-.03-.01c-.68-.01-.98-.2-.91-.55.17-.45.48-.78.92-.96.2-.08.31-.25.35-.52 0-.02 0-.05.02-.07a.18.18 0 0 1 .06-.06l1.3-.8c.2-.28.46-.38.8-.3Z" fill="#C0B877"/><path d="m34.1 20.79-.47.36c-.3.11-.54.32-.7.64a.08.08 0 0 1-.16-.04c.01-.29-.04-.6-.15-.92l.21.19a.1.1 0 0 0 .16-.07v-.43a.17.17 0 0 1 .3-.1c.2.25.46.38.8.36ZM32.18 20.49l.08 1.21a.25.25 0 0 1-.08.2l-.24.24a.3.3 0 0 0-.09.17c-.02.17-.04.4-.05.7-.02.5-.07.9-.15 1.2a.4.4 0 0 1-.12.18c-.26.22-.53.54-.8.96-.09.12-.21.18-.38.17a.56.56 0 0 0-.45.16.21.21 0 0 0-.06.2c.06.18.08.37.06.55.37.22.79.2 1.27-.03l1.52-.73a.22.22 0 0 0 .12-.16 4.4 4.4 0 0 1 .55-1.57l-.25 1.28a.27.27 0 0 0 .06.22c.12.14.17.28.15.42a.2.2 0 0 1-.15.15l-.06.02c-1.1.3-1.47.66-1.1 1.1.28.37.5.73.66 1.08-.46.2-1 .28-1.62.21.74-.13 1.15-.36 1.21-.68a.19.19 0 0 0-.11-.21 4.62 4.62 0 0 0-1.65.4.37.37 0 0 0-.15.57c.04.06.2.08.45.05-.31.08-.59.05-.82-.07-.01-.27.23-.56.73-.89a.04.04 0 0 0 .01-.04.04.04 0 0 0-.04-.03l-.6-.03c.1-.21.22-.38.38-.52a.2.2 0 0 0-.04-.33.2.2 0 0 0-.13-.02.7.7 0 0 0-.34.16.11.11 0 0 1-.18-.06.39.39 0 0 1 0-.17l-.07-1.19a.27.27 0 0 0-.08-.17l-.32-.3v-.06c.32.3.61.33.89.11a.45.45 0 0 1 .18-.09c.25-.05.5-.36.75-.92.07-.16.12-.27.16-.32.02-.04.04-.1.04-.15l.07-.86c.23-.12.31-.42.26-.9 0-.06-.03-.11-.07-.15l-.42-.42a.14.14 0 0 1-.04-.1c0-.03.01-.06.04-.09.26-.27.6-.42 1.02-.45Z" fill="#91AA48"/><path d="m35 21.16-.8.92a.07.07 0 0 0 0 .09l.03.03h.05c.18-.07.38-.09.6-.07-.22 0-.43.08-.63.23l-1.37.35a.14.14 0 0 1-.15-.22l.9-1.34.46-.37.04-.04c.36-.14.67-.2.93-.15a.14.14 0 0 1 .02.27c-.44.15-.73.42-.87.79a.08.08 0 0 0 .08.11c.02 0 .04 0 .05-.02l.66-.58Z" fill="#223716"/><path d="M17.7 21.06a.4.4 0 0 0-.04.07.1.1 0 0 0 0 .08.1.1 0 0 0 .07.05c.16.05.3.13.4.24l-.5 1.4c-.25-.33-.46-.5-.6-.52-.03-.43.09-.85.33-1.25a.18.18 0 0 1 .07-.06.17.17 0 0 1 .1-.02l.16.01Z" fill="#DEB22E"/><path d="M38.18 26.6a1.6 1.6 0 0 1-.38-.88c.38.16.61.05.7-.32.07-.25.15-.41.23-.48.7-.5.88-.96.53-1.37.21.01.27-.15.2-.51a.15.15 0 0 0-.06-.08.15.15 0 0 0-.1-.03h-.11a.15.15 0 0 1-.04-.12.13.13 0 0 1-.04-.05v-.02l.01-.02c.15-.09.23-.2.24-.34a.2.2 0 0 0-.03-.1.2.2 0 0 0-.09-.09.8.8 0 0 0-.34-.06c0-.05 0-.1.04-.15a.05.05 0 0 0 0-.05c-.02-.04-.05-.05-.1-.04l.19-.06a.13.13 0 0 0 .08-.18.85.85 0 0 0-.22-.3.2.2 0 0 0-.19-.04.23.23 0 0 0-.15.14c-.05.15-.15.29-.3.42.08-.16-.1-.34-.52-.52a.05.05 0 0 1-.02-.02l-.01-.03a.05.05 0 0 1 .05-.04l.74-.03c.2-.31.39-.35.55-.1 1.33 2.07 1.04 3.9-.86 5.47Z" fill="#5D5A57"/><path d="M21.02 22.48a4 4 0 0 1-.8 1.1c-.21-.12-.4-.19-.57-.19a.26.26 0 0 0-.19.09l-.81.89a2.18 2.18 0 0 0-.88-.42l-.13-1.05.5-1.4c.18-.49.55-.55 1.1-.19l1.78 1.17Z" fill="#633E28"/><path d="M38.84 21.89c-.5.3-.7.3-.58-.02.14-.13.24-.27.3-.42a.23.23 0 0 1 .14-.14.2.2 0 0 1 .19.04c.1.08.16.18.22.3a.13.13 0 0 1-.08.18l-.2.06Z" fill="#2B3539"/><path d="m29.17 22.13-1.53.92a.24.24 0 0 0-.11.25l.27 1.6a1.5 1.5 0 0 1-1.23-.52.29.29 0 0 0-.14-.08l-.22-.06-.22-.11a.2.2 0 0 1-.08-.28.2.2 0 0 1 .07-.07c.28-.17.5-.36.65-.56a.08.08 0 0 0 0-.1c-.02-.02-.04-.02-.08.02a.07.07 0 0 1-.06.02.07.07 0 0 1-.05-.04c-.04-.09-.03-.18.05-.28a46.43 46.43 0 0 0 2.76-1.16.21.21 0 0 1 .2.15c.04.13-.06.23-.28.3Z" fill="#1F5F22"/><path d="m29.17 22.13-.35.84c-.07.36.23.54.91.55a.06.06 0 0 1 .06.03.06.06 0 0 1 0 .07c-.18.3-.41.55-.7.78l-.29.25a.36.36 0 0 1-.18.08l-.7.1c.05.03 0 .03-.12-.01v.07l-.27-1.6a.24.24 0 0 1 .11-.24l1.53-.92Z" fill="#91AA48"/><path d="M34.88 22.13c-.14.3-.06.58.24.81l-.66.03c-.25.01-.54.23-.85.66l-.25.3c-.28.49-.47 1.01-.55 1.58a.21.21 0 0 1-.12.16l-1.52.73.59-.74a.3.3 0 0 1 .21-.12l.46-.05a.17.17 0 0 0 .15-.16l.04-1.03c.56-.44.89-.87.98-1.31.02-.1.08-.19.16-.25l.49-.38c.2-.15.4-.23.63-.23Z" fill="#516E49"/><path d="M38.9 22.13c.1 0 .22.02.34.06a.2.2 0 0 1 .09.08.2.2 0 0 1 .03.11c0 .14-.09.25-.24.34l-.01.02v.02l.04.05-.08-.01H39a.18.18 0 0 0-.07.05c-.23.23-.48.2-.76-.08.06-.24.31-.45.74-.64Z" fill="#1B2227"/><path d="m31.4 22.6-.08.86c0 .06-.02.1-.05.15l-.15.32c-.25.56-.5.87-.75.92a.45.45 0 0 0-.18.1c-.28.21-.57.18-.9-.12-.05-.18-.01-.28.12-.3a.83.83 0 0 1 .47.04h.03l.02-.01a.04.04 0 0 0 0-.05.15.15 0 0 0-.08-.08.3.3 0 0 1-.12-.08.31.31 0 0 1-.07-.13.37.37 0 0 1 .06-.3c.02-.04.08-.03.18 0 .08.04.2.05.34.03a.92.92 0 0 1 .37 0c.14.05.25-.05.32-.29a.09.09 0 0 0-.11-.1l-.63.24a.11.11 0 0 1-.05 0 .12.12 0 0 1-.06-.02l-.05-.03a.2.2 0 0 1 .05-.36l.71-.28a.19.19 0 0 0 .07-.31l-.16-.16a.07.07 0 0 1-.02-.05c-.02-.17.02-.28.1-.35a.13.13 0 0 1 .16 0c.02.01.03.03.03.05.1.21.24.32.42.3Z" fill="#516E49"/><path d="m22.64 22.98-.57 1.15-.22.2-.38-.4-1.24-.34a4 4 0 0 0 .78-1.11c.5-.37 1.05-.2 1.63.5Z" fill="#C0B877"/><path d="m17.64 22.9.13 1.05c.2.63.67 1.2 1.43 1.73-.07.07-.04.16.09.25.65.5 1.32.76 2.02.77l-.1.36a.2.2 0 0 0 .01.1c.01.04.03.07.06.09.54.44 1.42.83 2.65 1.15l.55.15c.53.15 1.01.24 1.46.29 1.53.16 3.11.2 4.74.12a15.3 15.3 0 0 0 4.92-1.31c.28-.12.38-.3.28-.56l-.53-.42 1.69-1.03.04-.02c.14-.04.28-.05.44-.05.12.03.22.08.29.15.03.32.15.61.37.88l-1.24.9a.34.34 0 0 0-.14.22l-.25 1.55c-.48.8-1.1 1.45-1.84 1.95a.41.41 0 0 1-.23.07h-.35c-.02 0-.05 0-.07.02a.13.13 0 0 0-.05.05l-.18.42a.18.18 0 0 1-.22.1.6.6 0 0 1-.37-.36.11.11 0 0 0-.16-.05l-.2.13.44-2.19a.14.14 0 1 0-.28-.09l-.19.44a.15.15 0 0 1-.17.09l-1.06-.26-.33.29a.08.08 0 0 1-.14-.07l.1-.64a.06.06 0 0 0-.02-.04l-.02-.02h-2.47a.15.15 0 0 0-.1.04.15.15 0 0 0-.05.1l-.04 1.58c0-.18-.05-.32-.17-.4-.1-.08-.15-.14-.15-.18.01-.13.06-.22.14-.27a.15.15 0 0 0 .06-.08l.12-.41a.13.13 0 0 0-.01-.1.12.12 0 0 0-.09-.06 2.34 2.34 0 0 0-.65-.02 6.19 6.19 0 0 0-1.24.61.2.2 0 0 0-.04.1l-.06.91-.14-1.61a.26.26 0 0 0-.08-.17c-.14-.14-.32-.2-.56-.19a.18.18 0 0 0-.17.16l-.03.38-.02.07c-.1.15-.23.17-.39.06l-.34-.56a.28.28 0 0 0-.26-.14.29.29 0 0 0-.24.17l-.2.45a.1.1 0 0 1-.17 0l-.26-.68a.36.36 0 0 0-.41-.22 1.7 1.7 0 0 1-.8-.01.23.23 0 0 0-.29.25l.09.78-.17.65-.68-2.49a.1.1 0 0 0-.1-.08l-.04.01-.07.03a.06.06 0 0 0-.04.07l.43 2.73c-.07-.29-.25-.41-.53-.37a.19.19 0 0 1-.2-.11l-.21-.48a.31.31 0 0 0-.06-.1 1.88 1.88 0 0 1-.52-1.2c0-.4-.05-.77-.14-1.12a9.38 9.38 0 0 0-1.34-1.19 3.9 3.9 0 0 1-1.5-3.64c.15.01.36.19.62.52Z" fill="#34363A"/><path d="M26.49 22.84c-.08.1-.1.2-.05.28a.07.07 0 0 0 .11.02c.04-.04.06-.04.08-.02a.08.08 0 0 1 0 .1c-.15.2-.37.39-.65.56a.2.2 0 0 0 .01.35l.22.11c-.25 0-.49.06-.7.2-.47.1-.83.37-1.1.8a.32.32 0 0 1-.25.15c-.63.04-1.26.26-1.9.67a.29.29 0 0 0-.1.13.78.78 0 0 1-.58.49.22.22 0 0 0-.04.42c.37.15.77.24 1.18.27a.75.75 0 0 0-.19.13.11.11 0 0 0 .05.19l1.77.45a.14.14 0 0 0 .17-.09c.01-.02.01-.05 0-.07-.17-.99-.54-1.33-1.1-1.02.1-.23.28-.33.51-.3.08.01.15.05.2.1.19.2.32.38.4.58a.1.1 0 0 0 .17 0l.02-.08a.12.12 0 0 1 .18-.08c.18.08.32.28.4.58a.16.16 0 0 1-.22.18l-.33-.2h-.03l-.02.01v.02l-.02.07a.02.02 0 0 0 0 .02l.94.66c.07.04.14.07.22.07.5 0 1 .03 1.5.08.32.04.76.02 1.32-.05l1.32-.14c.23.12.5.15.82.07l.25-.13c.62.07 1.16 0 1.62-.2.69-.16 1.32-.29 1.9-.4.67-.12 1.1-.36 1.31-.73.1.25 0 .44-.29.56-1.92.8-3.56 1.24-4.9 1.3a30.9 30.9 0 0 1-4.75-.11 9.13 9.13 0 0 1-1.46-.29l-.55-.15a7.13 7.13 0 0 1-2.65-1.15.18.18 0 0 1-.06-.09.19.19 0 0 1 0-.1l.09-.36c.2-.15.32-.35.33-.58a.16.16 0 0 0-.1-.16l-.64-.22c.41.05.73-.09.97-.4a.26.26 0 0 0 .05-.2l-.07-.8.22-.21.79.16c.03 0 .06 0 .08-.02a.12.12 0 0 0 .05-.06c.06-.21.16-.4.3-.57a.22.22 0 0 0 .02-.23l-.2-.37-.08-.02c.76-.1 1.4-.02 1.94.25.07.03.14.03.2 0l1.32-.43Z" fill="#65666D"/><path d="M38.16 22.77c.28.29.53.31.76.08a.18.18 0 0 1 .07-.05H39.14c0 .06.01.1.05.13-.21.06-.35.13-.4.22-.09.12-.05.21.11.3.1.04.21.07.36.1.35.4.17.87-.53 1.37-.47-.52-.94-.78-1.4-.8a.16.16 0 0 0-.16.22c.02.05.06.1.12.13-.15.14-.19.3-.1.5.08.2.23.28.43.26-.19 0-.28.07-.26.2-.24.03-.47.03-.7 0-.2-.03-.25-.24-.16-.62a.16.16 0 0 0-.12-.2c-.02 0-.06.05-.13.14.08-.17.02-.47-.18-.9.06.13.13.22.2.27a.17.17 0 0 0 .2-.01l.86-.73.02-.04a.57.57 0 0 0 .25-.37.26.26 0 0 1 .1-.17c.14-.1.3-.1.46-.03Z" fill="#C0B877"/><path d="M39.19 22.93h.1c.04 0 .08 0 .1.03.03.02.05.05.06.08.08.36.02.52-.19.5a1.3 1.3 0 0 1-.36-.1c-.16-.08-.2-.17-.12-.29.07-.09.2-.16.4-.22Z" fill="#1B2227"/><path d="M22.64 22.98c.14-.06.3-.04.48.06l.19.36c.02.04.02.08.02.12 0 .04-.02.08-.05.12-.13.17-.23.36-.29.57 0 .02-.02.05-.05.06a.11.11 0 0 1-.08.02l-.79-.16.57-1.15Z" fill="#A79924"/><path d="M34.46 22.97c.6.48.95 1.08 1.08 1.81.02.08.01.16 0 .24-.14.44-.46.65-.97.63a.32.32 0 0 1-.2-.08l-.76-.7c0 .03 0 .04-.02.06.33.43.67.74 1.02.95-.19.16.06.42.74.8l.54.41c-.22.37-.65.61-1.31.73-.59.11-1.22.24-1.9.4a4.7 4.7 0 0 0-.68-1.08c-.36-.45.01-.82 1.11-1.11l.06-.02a.2.2 0 0 0 .15-.15c.02-.14-.03-.28-.15-.42a.26.26 0 0 1-.06-.22l.25-1.28.25-.31c.3-.43.6-.65.85-.66Z" fill="#A3ACAE"/><path d="M35.12 22.94c.51.16.83.46.95.91.2.43.26.73.18.9-.24.78-.79 1.15-1.64 1.13a3.65 3.65 0 0 1-1.02-.95.07.07 0 0 0 .01-.06l.76.7c.06.05.13.08.2.08.52.02.84-.19.97-.63a.51.51 0 0 0 .01-.24 2.93 2.93 0 0 0-1.08-1.81l.66-.03Z" fill="#A4BCD8"/><path d="m20.23 23.59 1.24.33a2.38 2.38 0 0 0-.57 1.82l-1.35-.46a.16.16 0 0 1-.1-.18c.02-.2.13-.4.33-.61a.13.13 0 0 0-.15-.21.73.73 0 0 0-.31.27c-.05.08-.13.11-.23.12l-.44-.3.81-.9a.26.26 0 0 1 .2-.08c.16 0 .35.07.57.2Z" fill="#C8BFB9"/><path d="M17.77 23.95c.36.1.65.23.88.42l.44.3.18.02a.14.14 0 0 1 .11.17l-.18.82a3.4 3.4 0 0 1-1.43-1.73Z" fill="#161917"/><path d="m21.47 23.92.38.41.07.82c0 .06-.01.13-.05.18a.97.97 0 0 1-.97.4c-.06-.68.13-1.28.57-1.8Z" fill="#869AB1"/><path d="M38.73 24.92c-.08.07-.16.23-.22.48-.1.37-.33.48-.7.32a.63.63 0 0 0-.29-.15l-.16-.13c-.02-.14.07-.2.27-.2.1-.1.07-.3-.07-.62-.03-.07-.12-.12-.27-.15a.3.3 0 0 1-.12-.13.16.16 0 0 1 .15-.22c.47.02.94.28 1.41.8Z" fill="#EAF2F7"/><path d="m20.9 25.74.64.22a.15.15 0 0 1 .1.16.74.74 0 0 1-.33.58 3.38 3.38 0 0 1-2.02-.77c-.13-.1-.16-.18-.09-.25l.19-.82a.14.14 0 0 0-.12-.17l-.18-.02c.1 0 .18-.04.23-.12.09-.13.2-.22.32-.27a.13.13 0 0 1 .14.21c-.2.2-.3.4-.33.6a.16.16 0 0 0 .1.18l1.35.47Z" fill="#A79924"/><path d="m26.2 24.24.23.06c.05.01.1.04.14.08.37.38.78.55 1.23.51v-.07c-.12.93-.57 1.5-1.37 1.73a.19.19 0 0 0-.14.2.18.18 0 0 0 .18.16c.35.02.69-.02 1.03-.13a.35.35 0 0 1 .3.06c.07.04.18.1.33.16.04.02.08.02.12 0a.16.16 0 0 0 .09-.08l.57-1.3a.32.32 0 0 0-.16-.41l-.83-.39.7-.09c.06 0 .13-.04.18-.08l.3-.25c.05.2.11.33.2.43v.06l-.08.95a.24.24 0 0 1-.1.17l-.46.3a.17.17 0 0 0-.07.08.17.17 0 0 0 0 .1c.06.23.13.7.22 1.42.03.26-.1.48-.4.66a.24.24 0 0 1-.2.03l-2.56-.66a.23.23 0 0 1-.14-.1c-.28-.52-.68-1-1.2-1.46a.2.2 0 0 1 .17-.33 3.63 3.63 0 0 1 1.51.67.14.14 0 0 0 .12-.04.13.13 0 0 0 .03-.06l.08-.28a.2.2 0 0 0-.12-.24l-1.3-.57a.25.25 0 0 1-.06-.42l.77-.67c.22-.14.45-.2.7-.2Z" fill="#CBC7D2"/><path d="m32.62 24.3-.04 1.03a.17.17 0 0 1-.15.16l-.46.05a.31.31 0 0 0-.22.12l-.58.74c-.48.24-.9.25-1.27.03.83-.88 1.73-1.59 2.72-2.13Z" fill="#223716"/><path d="m25.51 24.44-.77.67a.25.25 0 0 0 .06.42l1.3.57a.2.2 0 0 1 .12.24l-.08.28a.13.13 0 0 1-.08.1.14.14 0 0 1-.13-.03c-.38-.3-.86-.5-1.45-.64a.2.2 0 0 0-.17.33 5.65 5.65 0 0 1 1.26 1.52c.02.02.05.04.08.04l2.56.66a.25.25 0 0 0 .2-.03c.3-.18.42-.4.4-.66-.09-.71-.16-1.19-.22-1.41a.17.17 0 0 1 .07-.2l.45-.29a.23.23 0 0 0 .1-.17l.09-.95.32.3c.05.04.08.1.08.17l.07 1.2a.81.81 0 0 1-.58-.28.25.25 0 0 0-.42.2c.04.27.1.56.17.87.17.67.55.71 1.14.14l.6.03a.04.04 0 0 1 .04.03v.02l-.01.02c-.5.33-.74.62-.73.89l-1.32.14c-.56.07-1 .09-1.33.05a15.2 15.2 0 0 0-1.5-.08.38.38 0 0 1-.2-.07l-.95-.66a.02.02 0 0 1 0-.02l.02-.07v-.02a.04.04 0 0 1 .03-.01h.02l.33.2a.16.16 0 0 0 .23-.18c-.1-.3-.23-.5-.41-.58a.12.12 0 0 0-.11 0 .12.12 0 0 0-.07.08l-.02.07a.1.1 0 0 1-.08.07.1.1 0 0 1-.1-.06c-.07-.2-.2-.39-.38-.57a.33.33 0 0 0-.2-.1c-.24-.04-.42.06-.53.29l-.69.4a3.72 3.72 0 0 1-1.18-.26.22.22 0 0 1 .04-.42.78.78 0 0 0 .58-.5c.02-.05.06-.09.1-.12.64-.4 1.27-.63 1.9-.67a.31.31 0 0 0 .25-.15c.27-.43.63-.7 1.1-.8Z" fill="#AEA8A0"/><path d="M37.3 24.47c.14.03.23.08.26.15.14.32.16.52.07.61-.21.02-.36-.07-.44-.26-.08-.2-.05-.36.1-.5Z" fill="#5D5A57"/><path d="m37.36 25.44.16.13a1.74 1.74 0 0 0-.48.07l-1.69 1.03c-.68-.37-.93-.63-.74-.8.85.03 1.4-.34 1.64-1.12.07-.1.12-.14.13-.13a.16.16 0 0 1 .12.13v.06c-.1.38-.04.59.17.62.22.03.45.03.69 0Z" fill="#A3704D"/><path d="m27.92 24.82.83.39a.32.32 0 0 1 .16.41l-.57 1.3a.16.16 0 0 1-.09.09.16.16 0 0 1-.12 0 1.76 1.76 0 0 1-.32-.17.36.36 0 0 0-.31-.06c-.34.1-.68.15-1.03.13a.18.18 0 0 1-.18-.16.19.19 0 0 1 .14-.2c.8-.23 1.25-.8 1.37-1.73.13.04.17.04.12 0Z" fill="#EAF2F7"/><path d="M29.77 26.55a.39.39 0 0 0 0 .17.11.11 0 0 0 .13.08c.02 0 .04 0 .05-.02a.7.7 0 0 1 .34-.16.2.2 0 0 1 .17.35c-.16.14-.29.3-.38.52-.59.57-.97.53-1.14-.14-.07-.31-.13-.6-.17-.86a.25.25 0 0 1 .42-.2c.15.16.35.25.58.26Z" fill="#DEB22E"/><path d="m22.72 27.37.7-.41c.55-.31.92.03 1.1 1.02a.14.14 0 0 1-.1.16c-.02.01-.05.01-.07 0l-1.77-.45a.11.11 0 0 1-.05-.2c.04-.03.1-.08.2-.12Z" fill="#404041"/><path d="M21.52 30.6c.06.16.21.25.45.26a.13.13 0 0 0 .13-.15l-.08-.4.17-.64.35 1.76c-.37.84-.92 1.14-1.65.89-.3-1.3-.62-2.58-.96-3.87-.08-.32-.1-.73-.07-1.24.09.35.13.72.14 1.12.01.42.19.83.52 1.2.03.03.05.06.06.1l.2.48a.19.19 0 0 0 .2.1c.3-.03.47.1.54.38Z" fill="#494C4F"/><path d="m31.05 28.42-.25.13c-.25.03-.4 0-.45-.05a.37.37 0 0 1 .14-.57 4.62 4.62 0 0 1 1.66-.4.2.2 0 0 1 .11.21c-.06.32-.47.55-1.21.68Z" fill="#DEB22E"/><path d="M43.98 28.66a16 16 0 0 1-4.2 10.18A7.3 7.3 0 0 0 37 36.53c-.47-.22-.94-.15-1.4.2a.2.2 0 0 0-.08.17l.05.44a.17.17 0 0 1-.12.18.17.17 0 0 1-.07 0l-.52-.06a.22.22 0 0 1-.14-.08.22.22 0 0 1-.05-.15l.05-.91.62-2.91c1.43-.04 2.46-.16 3.11-.38a3.06 3.06 0 0 0 2.1-2.13c.2-.65.34-1.37.42-2.15a.12.12 0 0 0-.1-.13l-2.37-.32a.01.01 0 0 1-.01 0v-.08c0-.02.01-.02.02-.03l.03-.01a15.8 15.8 0 0 1 3.5.37l1.93.11Z" fill="#A59F97"/><path d="M25.07 29.63c-.06.44.1.79.49 1.04a.19.19 0 0 1-.06.33l-.38.1a.11.11 0 0 0-.08.08.12.12 0 0 0 0 .1c.19.3.37.52.56.65a.3.3 0 0 1 .12.31.24.24 0 0 1-.23.2.85.85 0 0 1-.7-.33.24.24 0 0 0-.19-.09c-.22 0-.45.1-.67.28a.61.61 0 0 0-.19-.21 4.1 4.1 0 0 0-.25-.35c-.26-.33-.4-.6-.45-.8a.13.13 0 0 0-.11-.1.12.12 0 0 0-.12.07l-.1.32c-.02.2-.07.26-.17.2l-.35-1.76-.09-.78a.23.23 0 0 1 .29-.25c.27.07.54.07.8.01a.36.36 0 0 1 .4.22l.27.68a.1.1 0 0 0 .13.04.1.1 0 0 0 .04-.04l.2-.45a.29.29 0 0 1 .39-.14l.11.1.34.57Z" fill="#1B2227"/><path d="M26.45 30.93a3 3 0 0 1 2.1-.1l.03-1.57c0-.04.02-.08.05-.11a.15.15 0 0 1 .1-.04h2.45a.05.05 0 0 1 .05.02.06.06 0 0 1 .01.04l-.09.64a.08.08 0 0 0 .04.08.08.08 0 0 0 .1-.01l.33-.29a8.16 8.16 0 0 0-.76 2.98.1.1 0 0 0 .07.06 2 2 0 0 0 .8-.36.25.25 0 0 1 .25-.03l.38.17c.04.02.08.02.12 0a.16.16 0 0 0 .09-.07l.23-.43-.1.36a.22.22 0 0 0-.02.1c.1.62.02 1.23-.24 1.83-.3-.02-.48.17-.55.56a88.25 88.25 0 0 0-.92 6.2 12.4 12.4 0 0 0-.06 1.55.1.1 0 0 0 .08.04.1.1 0 0 0 .1-.06 3172.66 3172.66 0 0 0 .63-.66.18.18 0 0 0 .06.17.17.17 0 0 0 .18.02.3.3 0 0 0 .1-.07c-.31.3-.64.51-.96.64-.33.13-1 .3-2.02.5-.16-.05-.3-.02-.38.1a.21.21 0 0 0-.05.13v.18a.19.19 0 0 1-.15.19l-1.24.3c-.45-.03-.9-.07-1.34-.13-.27-.34-.5-.68-.71-1.02a1.25 1.25 0 0 0-.64-.48c.41-1.18.52-2.35.33-3.5a.3.3 0 0 0-.56-.06l-.07.16a.1.1 0 0 1-.2-.03l-.45-4.06-.04-.51c-.2-.97-.09-1.66.35-2.06.22-.19.45-.28.67-.28a.24.24 0 0 1 .19.1c.19.22.42.32.7.32a.24.24 0 0 0 .23-.2.3.3 0 0 0-.12-.3 1.98 1.98 0 0 1-.57-.71.12.12 0 0 1 .04-.1.11.11 0 0 1 .05-.02l.38-.1a.18.18 0 0 0 .06-.34c-.38-.25-.55-.6-.5-1.04.17.1.3.09.4-.06a.14.14 0 0 0 .02-.07l.03-.38a.18.18 0 0 1 .16-.16c.24-.01.43.05.57.19.05.04.08.1.08.17l.13 1.61Z" fill="#2B3539"/><path d="M28.55 30.83a3 3 0 0 0-2.1.1l.07-.92a.2.2 0 0 1 .1-.16c.5-.28.9-.46 1.18-.54a2.34 2.34 0 0 1 .7.04l.04.03a.12.12 0 0 1 .01.1l-.12.42a.15.15 0 0 1-.06.08c-.09.05-.13.14-.14.27 0 .04.05.1.15.18.12.08.17.22.17.4Z" fill="#A4BCD8"/><path d="m32.87 31.6-.07.3-.23.44a.16.16 0 0 1-.09.08.16.16 0 0 1-.12 0l-.38-.18a.25.25 0 0 0-.25.03 2 2 0 0 1-.8.36.1.1 0 0 1-.07-.1c.07-1.03.32-2 .76-2.94l1.06.26a.15.15 0 0 0 .17-.1l.2-.43a.14.14 0 0 1 .26-.02c.02.03.02.07 0 .11l-.44 2.2Z" fill="#1B2227"/><path d="m36.55 29.27-.97 3.22c-.87-.08-1.4.2-1.58.84a965.3 965.3 0 0 0-1.58 8.09.15.15 0 0 0 .16.1c.07 0 .12-.07.16-.21a6.59 6.59 0 0 0 1.35-2.29 17.89 17.89 0 0 1-.65 2.8c-.18.41-.57.87-1.18 1.36l-.41.35c-.97.24-1.96.39-2.95.45.03-.16.1-.32.23-.5.15-.19.13-.32-.05-.38 1.02-.21 1.69-.38 2.02-.51.33-.13.65-.34.96-.64l1.44-8.46c0-.04 0-.07-.02-.1a.13.13 0 0 0-.08-.05l-.08-.03a.17.17 0 0 0-.22.14l-.56 3.11a3.6 3.6 0 0 1-.06-2.37l-.03.01c.25-.6.33-1.21.24-1.83v-.1l.11-.36.08-.3.2-.14a.1.1 0 0 1 .1-.02.11.11 0 0 1 .06.07c.07.17.2.3.37.35a.18.18 0 0 0 .22-.1l.19-.4a.13.13 0 0 1 .04-.06.12.12 0 0 1 .07-.02h.35c.08 0 .16-.03.23-.07a6.08 6.08 0 0 0 1.84-1.95Z" fill="#494C4F"/><path d="M23.75 32.09c0 .06-.03.1-.07.13a.06.06 0 0 1-.05 0c-.48-.27-.8-.6-.93-.99l.1-.32a.12.12 0 0 1 .13-.08.12.12 0 0 1 .12.1c.03.21.18.48.44.8l.26.36Z" fill="#5D5A57"/><path d="M22.7 31.23a1.85 1.85 0 0 0 .95 1h.03c.04-.03.06-.08.07-.14.07.05.13.12.18.2-.44.41-.55 1.1-.34 2.07l-.38-1.2a.03.03 0 0 0-.02-.02.03.03 0 0 0-.03 0l-.07.02a.07.07 0 0 0-.05.04.07.07 0 0 0 0 .07c.08.14.12.23.12.27.02.53.06 1.14.14 1.82a.14.14 0 0 0 .28.02c.04-.12.05-.28.04-.5l.45 4.05a.1.1 0 0 0 .1.1.1.1 0 0 0 .1-.07l.07-.16a.3.3 0 0 1 .57.07c.18 1.14.07 2.3-.33 3.49a4.54 4.54 0 0 1-1.8-1.55c-.49-.68-.8-1.72-.92-3.12l-.27-1.48-.18-1.03-.52-2.86c.73.25 1.28-.05 1.65-.89.1.06.16 0 .16-.2Z" fill="#34363A"/><path d="m21.41 35.18.18 1.03c-.68.69-1.31 1.41-1.9 2.17a7.87 7.87 0 0 1-2.18 1.7 16 16 0 0 1-5.13-8.6c3 2.3 6 3.53 9.03 3.7Z" fill="#A59F97"/><path d="M26.73 31.59c-.17-.03-.33.02-.34.12-.02.1.1.2.27.24.17.03.33-.03.34-.13.02-.1-.1-.2-.27-.23Z" fill="#65666D"/><path d="m35.58 32.5-.22.9-.63 2.92-.27.9-.37 1.8c-.3.87-.76 1.64-1.35 2.29l1.63-8.21a.14.14 0 0 0-.06-.15.13.13 0 0 0-.16.01c-.07.06-.12.18-.15.37.18-.64.7-.92 1.58-.84Z" fill="#404041"/><path d="M32.74 41.31c-.04.14-.09.21-.16.22a.15.15 0 0 1-.16-.18c.51-2.66 1.04-5.33 1.58-8.02.03-.2.08-.31.15-.37a.13.13 0 0 1 .16 0 .14.14 0 0 1 .06.14l-1.63 8.2Z" fill="#1B2227"/><path d="m23.58 34.36.04.51c0 .23 0 .4-.04.51a.14.14 0 0 1-.24.07.14.14 0 0 1-.04-.1c-.08-.67-.13-1.28-.14-1.8a.87.87 0 0 0-.12-.28.08.08 0 0 1 0-.07.07.07 0 0 1 .04-.04l.08-.02a.03.03 0 0 1 .04.02l.38 1.2Z" fill="#5D5A57"/><path d="M32.06 41.95a.31.31 0 0 1-.1.07.17.17 0 0 1-.18-.02.18.18 0 0 1-.06-.17l.81-5.27.57-3.11a.17.17 0 0 1 .21-.14l.09.03c.03 0 .06.02.08.05l.02.1-1.44 8.46ZM32.44 34.2l.04-.01c-.27 1-.44 1.85-.53 2.55a102.09 102.09 0 0 1-.88 5.78.1.1 0 0 1-.08.03.1.1 0 0 1-.1-.08 88.26 88.26 0 0 1 1-7.71c.07-.39.26-.58.55-.56ZM28.8 34.05c.39.02.71.09.97.22.04.02.08.05.1.09.02.04.03.09.03.13l-.6 7.5a.2.2 0 0 1-.26.18c-.1-.03-.15-.07-.16-.14-.1-.5-.12-1.2-.05-2.08l.33-3.57a3.64 3.64 0 0 0-.47-2.23.1.1 0 0 1 .05-.08.1.1 0 0 1 .06-.02ZM30.11 42.57a.15.15 0 0 1-.17.1.15.15 0 0 1-.12-.15c.15-1.95.4-4.33.74-7.14a6.48 6.48 0 0 1 .3-1.35.12.12 0 0 1 .12-.03l.05.04c.04.03.05.07.05.1L30.42 41a8.78 8.78 0 0 1-.3 1.56ZM26.88 41.24l-1.5-.53a.18.18 0 0 1-.12-.16c0-.28.02-.7.05-1.24.04-.87.05-1.52 0-1.94a46.66 46.66 0 0 1-.14-3.24.14.14 0 0 1 .12-.09h.11c.04 0 .07.01.1.04.02.02.04.05.05.09l.66 6.08a.08.08 0 0 0 .08.06.08.08 0 0 0 .07-.06 53.57 53.57 0 0 0 .1-6.03.14.14 0 0 1 .11-.07h.07l.4.18a.22.22 0 0 1 .13.22 12.12 12.12 0 0 0 .18 3.65.07.07 0 0 0 .09 0l.02-.03c.2-.63.36-1.57.49-2.82l.1-.98a.1.1 0 0 1 .04-.07.1.1 0 0 1 .06-.02h.09c.02 0 .04 0 .05.02.02.01.03.03.03.05l.04 1.58a52.29 52.29 0 0 1-.07 5.6.22.22 0 0 1-.25.1l-1.16-.39Z" fill="#1B2227"/><path d="M22.47 34.45h-.02c-.1-.01-.19.07-.2.17l-.04.7c0 .1.07.19.18.2h.02c.1 0 .19-.08.2-.18l.04-.7c0-.1-.07-.19-.18-.2ZM39.77 38.84a16 16 0 0 1-6.02 4.1l.52-1.87a.63.63 0 0 1 .54-.46l.6-.06a.18.18 0 0 0 .16-.22.18.18 0 0 0-.05-.09c-.63-.58-.98-1.59-1.06-3.03l.27-.9-.05.92c0 .05.02.1.05.15.04.04.08.07.14.08l.52.07a.17.17 0 0 0 .2-.19l-.06-.44a.2.2 0 0 1 .08-.18c.47-.34.93-.4 1.4-.2a7.3 7.3 0 0 1 2.76 2.32Z" fill="#8E8880"/><path d="m21.86 37.7-.84 2.85a.1.1 0 0 0 .06.13.1.1 0 0 0 .13-.06l.43-.98a.16.16 0 0 1 .15-.1.16.16 0 0 1 .14.1l.96 2.33-.99-1.53a.1.1 0 0 0-.17 0 .1.1 0 0 0-.02.06l.05 2.23a16.05 16.05 0 0 1-4.25-2.65 7.87 7.87 0 0 0 2.18-1.7 23.9 23.9 0 0 1 1.9-2.17l.27 1.48ZM34.46 37.21c.08 1.44.43 2.45 1.06 3.03a.18.18 0 0 1-.02.27.18.18 0 0 1-.09.04l-.6.07a.63.63 0 0 0-.54.46l-.52 1.85c-.62.24-1.26.44-1.9.6l.4-.35c.62-.5 1-.95 1.18-1.36.17-.38.38-1.32.66-2.8l.37-1.8Z" fill="#817D78"/><path d="M24.57 42.36c.3.11.51.27.64.48.2.34.45.68.71 1.02a15.9 15.9 0 0 1-3.49-.86l.46-1.03-.96-2.33a.16.16 0 0 0-.14-.1.16.16 0 0 0-.15.1l-.43.98a.1.1 0 1 1-.2-.07l.85-2.86c.12 1.4.43 2.44.92 3.12a4.54 4.54 0 0 0 1.8 1.55Z" fill="#5D5A57"/><path d="M24.87 39.29c-.04-.34-.16-.6-.27-.58-.1 0-.15.3-.11.63.04.33.16.6.27.58.1-.02.16-.3.11-.63Z" fill="#716A7E"/><path d="M22.89 41.97 22.43 43a15.8 15.8 0 0 1-.67-.27l-.05-2.23a.1.1 0 0 1 .07-.1.1.1 0 0 1 .12.04l.99 1.53Z" fill="#8E8880"/><path d="M24 40.9c.08.03.15.1.23.2l.01.04a.1.1 0 0 1 0 .05l-.04.05a.15.15 0 0 1-.05.02c-.12.04-.21.01-.28-.09a.22.22 0 0 1-.04-.1c0-.04 0-.08.02-.1a.13.13 0 0 1 .06-.07.12.12 0 0 1 .1 0Z" fill="#65666D"/><path d="M25.9 41.08c-.12-.06-.26-.04-.31.05-.05.1 0 .22.11.29.12.06.26.04.31-.05.05-.09 0-.22-.12-.29Z" fill="#817D78"/><path d="M26.88 41.24c.05.01.1.04.13.09.03.03.05.07.05.11l.03 1.14a.18.18 0 0 1-.17.18h-.08a.18.18 0 0 1-.18-.19c.01-.17 0-.53-.03-1.08 0-.08.02-.15.06-.18a.3.3 0 0 1 .19-.07Z" fill="#65666D"/><path d="M29.08 43.1c.18.06.2.2.05.39-.12.17-.2.33-.23.49-.55.03-1.1.03-1.64 0l1.24-.3a.19.19 0 0 0 .15-.18v-.18c0-.05.02-.1.05-.14.1-.1.22-.14.38-.08Z" fill="#A3ACAE"/><defs><linearGradient id="a" x1="10.42" y1="9.71" x2="68.15" y2="76.02" gradientUnits="userSpaceOnUse"><stop stop-color="#1A1E21"/><stop offset="1" stop-color="#06060A"/></linearGradient></defs></svg>