<svg width="56" height="56" fill="none" xmlns="http://www.w3.org/2000/svg"><path fill-rule="evenodd" clip-rule="evenodd" d="M36.798 22c0 .003 1.566-.03 6.975 0 .684.04 1.227.662 1.227 1.375 0 .337-.121.645-.321.88l-2.19 3.897a4.076 4.076 0 01-.053.098l-5.419 9.666A4.024 4.024 0 0133.595 40H33.427l-16.034-.084h-1.787v-.033c1.358-.194 2.5-1.081 3.078-2.304h.013l7.856-14.07c.44-.895 1.342-1.508 2.383-1.508l-.073.002.003-.002h7.933z" fill="#2BBDF7"/><path fill-rule="evenodd" clip-rule="evenodd" d="M24.247 15.012H38.4c.684.041 1.226.626 1.226 1.341 0 .287-.087.553-.235.771l-3.82 6.853-4.06 7.282h.035l-1.298 2.325c-2.125 1.96-1.51 4.454.335 5.64l.115.07c.462.276 0 .276 1.302.706H15c-.659-.012-1.257-.244-1.876-.599-1.99-1.14-2.71-3.732-1.607-5.79l8.806-16.416c.807-1.505 2.366-2.306 3.924-2.183z" fill="#2B6DEF"/><path fill-rule="evenodd" clip-rule="evenodd" d="M29.046 22.002h7.616l-6.3 11.64c-2.306 4.214.367 6.352 3.058 6.352h-6.557L26.86 40H16c1.204-.132 2.334-.83 3.015-1.987l.077-.135 8.032-14.808a2.575 2.575 0 011.95-1.07l-.028.002z" fill="#003CB2"/></svg>