<svg width="56" height="56" viewBox="0 0 56 56" xmlns="http://www.w3.org/2000/svg"><path d="m24.57 43-11.8-27.75c6-1.25 9.25 2.54 10.13 4.59l5.13 12.35 5.28-12.35c2.6-4.92 7.74-5.11 9.98-4.6L31.64 43h-7.07Z" fill="#0066F9"/><path d="M34.74 24.44c5.54.63 9.39 2.03 9.39 3.66 0 2.22-7.2 4.02-16.1 4.02-8.88 0-16.09-1.8-16.09-4.02 0-1.68 4.1-3.12 9.93-3.72l-.4-1.17C14.76 24.07 10 26.24 10 28.77c0 3.3 8.06 5.97 18 5.97s18-2.67 18-5.97c0-2.45-4.45-4.56-10.82-5.48l-.44 1.15Z" fill="#0066F9"/><path d="M28.07 32.1h.12l-.03-.2-.09.2Zm-.07 0-5.1-12.26c-.88-2.05-4.13-5.84-10.13-4.6l6.97 16.41c2.14.23 5.54.51 8.26.46Z" fill="url(#bb1alhq44)"/><defs><linearGradient id="ab1alhq44" x1="10.42" y1="9.71" x2="68.15" y2="76.02" gradientUnits="userSpaceOnUse"><stop stop-color="#1A1E21"/><stop offset="1" stop-color="#06060A"/></linearGradient><linearGradient id="bb1alhq44" x1="20.48" y1="15" x2="24.08" y2="32.09" gradientUnits="userSpaceOnUse"><stop stop-color="#0066F9"/><stop offset="1" stop-color="#0048AF"/></linearGradient></defs></svg>