<svg width="56" height="56" viewBox="0 0 56 56" xmlns="http://www.w3.org/2000/svg"><path d="M42.98 24.72a.05.05 0 0 1-.06.02L28.1 16.3a.18.18 0 0 0-.19 0l-9.83 5.78a.16.16 0 0 0-.08.14v3.7a.16.16 0 0 0 .08.14l9.83 5.8a.16.16 0 0 0 .16 0l4.5-2.54a.2.2 0 0 1 .2 0l3.15 1.9a.16.16 0 0 1 .08.14v1.14a.14.14 0 0 1-.07.12L28.1 37.1a.22.22 0 0 1-.22 0l-14.75-8.37a.22.22 0 0 1-.08-.08c-.02-.04-.04-.07-.04-.11v-8.95a.2.2 0 0 1 .1-.18l14.8-8.38a.2.2 0 0 1 .2 0l14.81 8.4.06.06c0 .02.03.05.03.08v5.12l-.02.03Z" fill="#9FA5B1"/><path d="M28.01 39.71 38 33.86v-3.89s.01 0 0 0v-.02l-10-5.86a.03.03 0 0 0-.03 0l-4.64 2.63a.03.03 0 0 1-.03 0l-3.28-1.98v-.01L20 24.7v-1.28l.01-.02h.01L28 18.83a.03.03 0 0 1 .03 0l14.96 8.47v.01l.01.01v9.18l-.01.01L28.02 45a.03.03 0 0 1-.03 0L13 36.52a.03.03 0 0 1-.01-.03V31.3l.02-.02h.03l14.93 8.44a.03.03 0 0 0 .03 0Z" fill="#9FA5B1"/></svg>