<svg width="56" height="56" viewBox="0 0 56 56" xmlns="http://www.w3.org/2000/svg"><path d="M15.57 17.37c0 .03.01.05.04.05 4.63.22 8.73 1.79 12.31 4.7.05.04.1.04.15 0a20.55 20.55 0 0 1 12.3-4.7c.05 0 .08-.03.08-.08v-5.28c0-.04.02-.06.06-.06h1.45c.03 0 .04.02.04.04v5.85c0 .5-.16.82-.49.96-.1.05-.25.07-.46.08-5.06.1-9.4 1.87-13.01 5.29-.03.03-.07.03-.1 0a18.93 18.93 0 0 0-13.02-5.29c-.62 0-.92-.32-.92-.95v-5.93c0-.03.02-.05.05-.05h1.43c.06 0 .1.03.1.1l-.01 5.27Z" fill="#fff"/><path d="M28 26.48c.01 0 .02 0 .03-.02a17.1 17.1 0 0 1 12.4-5.97l.97-.06c.21-.01.4-.06.57-.14 1-.46 1.5-1.26 1.5-2.42l-.02-2.74c0-.05.02-.07.07-.07h1.4c.05 0 .08.03.08.1-.02.6-.02 1.2 0 1.83.01.76 0 1.34-.06 1.71a3.78 3.78 0 0 1-2.2 2.91c-.52.25-1 .37-1.43.37a19.46 19.46 0 0 0-5.12.8 15.48 15.48 0 0 0-8.17 6.28c-.02.04-.05.04-.07 0a15.5 15.5 0 0 0-12.52-7.04 8.61 8.61 0 0 1-1.55-.17 3.76 3.76 0 0 1-2.05-1.35 3.65 3.65 0 0 1-.82-2.3v-3.07c0-.05.02-.07.06-.07h1.4c.05 0 .07.02.07.07V18c0 .55.14 1.04.45 1.47.3.43.72.73 1.24.89.22.07.6.1 1.14.11a17.06 17.06 0 0 1 12.55 5.97c.02.03.05.04.08.03Z" fill="#fff"/><path d="M25.07 18.36a19.1 19.1 0 0 0-1.94-.9c-.1-.05-.1-.09 0-.12a13.87 13.87 0 0 1 9.78.03c.03.04.03.06-.01.08-.72.28-1.4.6-2.02.93a.38.38 0 0 1-.27.04 11.92 11.92 0 0 0-5.2 0 .48.48 0 0 1-.34-.06Z" fill="#fff"/><path d="M28.05 32.15c.97-2.5 2.53-4.53 4.66-6.1a13.61 13.61 0 0 1 7.95-2.7c.63-.02 1.1-.06 1.4-.13a5.29 5.29 0 0 0 4.24-5.15c0-.04.02-.07.07-.07h1.54c.05 0 .08.03.08.08a7.08 7.08 0 0 1-7.14 6.96 12.19 12.19 0 0 0-10.05 5.43 12.12 12.12 0 0 0-1.94 5.87v.52c.02.09-.02.13-.1.13L27.2 37c-.02 0-.03-.01-.03-.03a12.53 12.53 0 0 0-1.25-5.22c-.79-1.62-1.9-3-3.35-4.13a11.79 11.79 0 0 0-6.91-2.55c-1-.04-1.58-.08-1.73-.11a7.38 7.38 0 0 1-3.65-1.8A7.05 7.05 0 0 1 8 18.1c0-.07.03-.1.1-.1h1.56c.05 0 .08.03.08.09a4.84 4.84 0 0 0 1.38 3.5 5.08 5.08 0 0 0 3.4 1.71c.2.02.5.04.91.05.56.03.98.05 1.26.09 2.56.3 4.85 1.24 6.85 2.8a13.7 13.7 0 0 1 4.42 5.91c.03.08.06.08.09 0Z" fill="#30A8B5"/><path d="M20.12 39.38a12 12 0 0 0 9.11 2.87A12.07 12.07 0 0 0 39.6 26.87c-.02-.07 0-.1.07-.1l1.55-.07c.04 0 .06.01.07.05.7 2.64.6 5.26-.27 7.87a13.39 13.39 0 0 1-4.54 6.44 13.5 13.5 0 0 1-7.93 2.93c-2.95.12-5.66-.64-8.11-2.27a13.81 13.81 0 0 1-5.72-14.97c0-.04.02-.06.06-.06l1.54.08c.08 0 .11.04.09.12a12.12 12.12 0 0 0 3.7 12.49Z" fill="#fff"/><path d="M21.63 29.13c-.39.14-.65.4-.78.79-.14.38-.1.75.1 1.1.3.47.7.68 1.24.62.53-.05.9-.34 1.1-.85.02-.05.04-.05.08-.01.33.43.64.9.93 1.42.03.05.03.1-.02.14-.47.5-1.05.82-1.71.95-.68.12-1.32.02-1.9-.32a2.86 2.86 0 0 1-1.53-2.92c.06-.75.38-1.4.96-1.95.03-.04.07-.04.12-.02.5.28.98.6 1.42.96.05.04.05.07-.01.1ZM34.4 29.13c-.09-.04-.1-.09-.01-.14l1.34-.9c.05-.04.1-.04.15 0 .85.75 1.17 1.67.98 2.78a2.8 2.8 0 0 1-1.88 2.26c-1.16.45-2.22.21-3.2-.7-.1-.1-.1-.2-.04-.3.28-.49.58-.94.89-1.35.03-.04.06-.04.08.01.27.65.74.93 1.42.84.68-.1 1.04-.49 1.08-1.18.04-.6-.23-1.04-.81-1.32Z" fill="#fff"/></svg>