<svg width="112" height="112" viewBox="0 0 56 57" xmlns="http://www.w3.org/2000/svg"><path fill="#181B1E" d="M0 .41h56v56H0z"/><path d="M16 9.14c0-.4.32-.73.72-.73h.64c1.05 0 1.64.86 1.64 1.9v7.92c0 1.2 1.23 2.18 2.43 2.18h12.32c3.45 0 6.25 2.54 6.25 6v5.27c0 .4-.32.73-.72.73h-.55c-1.1 0-1.73-.9-1.73-2v-2.27c0-2.61-2.37-4.73-4.97-4.73H19.89c-2.15 0-3.89-1.57-3.89-3.73V9.14Z" fill="#C6EA63"/><path d="M16 29.83c0-1.89 1.58-3.42 3.53-3.42h11.2c1.95 0 3.27 1.53 3.27 3.42v5.19c0 .38-.32.7-.72.7H33c-1.25 0-2-.99-2-2.2v-2.18c0-1.06-.9-1.93-2-1.93h-8c-1.1 0-2 .87-2 1.93v5c0 2.7 2.53 5.07 5.33 5.07h7.78c2.7 0 4.89-2.28 4.89-4.9v-.67c0-1.43.93-2.58 2.4-2.58.33 0 .6.26.6.58v3.8a6.87 6.87 0 0 1-6.97 6.77H22.97A6.87 6.87 0 0 1 16 37.65v-7.82Z" fill="#C6EA63"/></svg>