<svg width="56" height="56" viewBox="0 0 56 56" xmlns="http://www.w3.org/2000/svg"><path d="M32 15H15.2a2.23 2.23 0 0 0-2.2 2.28c.01.53.28 1.05.7 1.49l7.6 7.67 2.22-2.3L17.73 18H30.7c1.94 0 3.8 1.16 5.18 2.58l5.75 5.96c.83.86.83 2.26 0 3.12l-5.48 5.68C34.78 36.76 32.91 38 30.97 38H18.2l14.13-15.08a.9.9 0 0 0 .25-.61.86.86 0 0 0-.85-.88h-1.58c-.81 0-1.6.34-2.17.93L13.63 37.23c-1.34 1.4-.4 3.77 1.5 3.77h16.88a7.2 7.2 0 0 0 5.18-2.23l9.4-9.73a1.5 1.5 0 0 0 0-2.08l-9.4-9.73A7.2 7.2 0 0 0 32.01 15Zm7 13a4 4 0 1 1-8 0 4 4 0 0 1 8 0Zm-6.58 5.25-3.79-3.92-2.27 2.44 2.04 2c.48.47 1.13.74 1.8.74h1.72c.63 0 .95-.8.5-1.26Z" fill="#FBD705"/></svg>