<svg width="56" height="56" viewBox="0 0 56 56" xmlns="http://www.w3.org/2000/svg"><path d="m15.28 24 .72-2H8.44A2.45 2.45 0 0 0 6 24.47v6.06C6 31.9 7.1 33 8.44 33H16l-.72-2H8.83c-.4 0-.83-.3-.83-.71v-5.6c0-.4.43-.69.83-.69h6.45ZM51 22l-.72 2h-6.45c-.4 0-.83.3-.83.7v5.59c0 .4.43.71.83.71h6.45l.72 2h-7.56A2.45 2.45 0 0 1 41 30.53v-6.06C41 23.1 42.1 22 43.44 22H51Zm-1 4.5h-6v2h6v-2Z" fill="#FFFFFD"/><path fill-rule="evenodd" d="M27.5 38a10.5 10.5 0 1 0 0-21 10.5 10.5 0 0 0 0 21Zm0-.68a9.82 9.82 0 1 0 0-19.64 9.82 9.82 0 0 0 0 19.64Z" fill="url(#b)"/><circle cx="20.25" cy="20.25" r="1.75" fill="url(#c)"/><circle cx="37" cy="23.75" r="1.75" fill="url(#d)"/><circle cx="26.25" cy="37.75" r="1.75" fill="url(#e)"/><path d="M23 28.19v-4.5A6.2 6.2 0 0 1 25 22v5h6v-4.9a4.05 4.05 0 0 1 2 1.48v8.99L30.99 34v-5h-7.2a.81.81 0 0 1-.79-.81Z" fill="url(#f)"/><defs><linearGradient id="a" x1="0" y1="14.28" x2="42.1" y2="62.41" gradientUnits="userSpaceOnUse"><stop stop-color="#180D1D"/><stop offset="1" stop-color="#308FA1"/></linearGradient><linearGradient id="b" x1="17.49" y1="27.5" x2="28.71" y2="38.49" gradientUnits="userSpaceOnUse"><stop stop-color="#6AA735"/><stop offset="1" stop-color="#1F8134"/></linearGradient><linearGradient id="c" x1="18.5" y1="20.25" x2="22" y2="20.25" gradientUnits="userSpaceOnUse"><stop stop-color="#83AE52"/><stop offset="1" stop-color="#29862B"/></linearGradient><linearGradient id="d" x1="35.25" y1="23.75" x2="38.75" y2="23.75" gradientUnits="userSpaceOnUse"><stop stop-color="#83AE52"/><stop offset="1" stop-color="#29862B"/></linearGradient><linearGradient id="e" x1="24.5" y1="37.75" x2="28" y2="37.75" gradientUnits="userSpaceOnUse"><stop stop-color="#83AE52"/><stop offset="1" stop-color="#29862B"/></linearGradient><linearGradient id="f" x1="23.33" y1="27.34" x2="32.23" y2="27.34" gradientUnits="userSpaceOnUse"><stop offset=".15" stop-color="#77B72D"/><stop offset="1" stop-color="#0A7441"/></linearGradient></defs></svg>