<svg width="56" height="56" viewBox="0 0 56 56" xmlns="http://www.w3.org/2000/svg"><path d="m14.09 21.1.05-1.38c.04-2.56.65-4.96 1.83-7.18 1.2-2.25 2.9-1.76 4.45-.29a27.26 27.26 0 0 1 3.31 3.8.2.2 0 0 0 .1.07h.13c2.38-.76 5.61-.97 8.02.02a.22.22 0 0 0 .26-.08c1.17-1.75 2.5-3.19 3.96-4.33 2.03-1.56 3.39-.38 4.24 1.62a17.27 17.27 0 0 1 1.4 7.81.16.16 0 0 0 .17.1c.42-.04.58.08.48.37-.19.5-.37.9-.55 1.2a.3.3 0 0 0 0 .31c.09.17.14.31.16.44.01.1 0 .22-.02.32l-.47 1.6a.28.28 0 0 0 .09.29c.35.28.72.48 1.12.6a.34.34 0 0 1 .24.24.34.34 0 0 1-.09.32l-.33.33a.28.28 0 0 0 0 .41l1.3 1.28c.03.04.05.08.06.13 0 .04 0 .1-.03.13-.22.4-.47.7-.73.86a.34.34 0 0 0-.16.28.33.33 0 0 0 .17.29l.43.24a.6.6 0 0 1 .28.7.6.6 0 0 1-.14.24l-.85.91a.34.34 0 0 0-.07.35c.28.76.69 1.25-.25 1.94a2.5 2.5 0 0 0-.87 1.04 9.5 9.5 0 0 1-3 3.85c-.61.5-1.21.81-1.8.96a.7.7 0 0 0-.36.21 4.9 4.9 0 0 1-2.86 1.7.28.28 0 0 1-.27-.1c-.11-.14-.23-.17-.34-.1a10.1 10.1 0 0 1-9.96.18.74.74 0 0 0-.44-.07c-1.92.33-2.32-1.1-3.75-1.77a9.6 9.6 0 0 1-5-5.36.37.37 0 0 0-.11-.14l-.94-.82a.65.65 0 0 1-.17-.73l.36-.86a.24.24 0 0 0-.1-.29c-.46-.3-.8-.72-1.02-1.24a.28.28 0 0 1 .06-.3l.74-.74a.23.23 0 0 0 0-.33l-.56-.56a.58.58 0 0 1-.13-.62.57.57 0 0 1 .13-.19l1.08-1.08a.28.28 0 0 0 0-.4l-.27-.27a.4.4 0 0 1 0-.57.42.42 0 0 1 .17-.1c.56-.16.9-.39 1.02-.68.05-.1.05-.21.02-.32-.3-1.04-.47-1.3-.32-2.2.06-.37-.07-.8-.4-1.3a.43.43 0 0 1 .27-.66s.04 0 .1.03a.13.13 0 0 0 .1-.02.12.12 0 0 0 .05-.1Z" fill="#180C15"/><path d="M23.93 17.58a.48.48 0 0 1-.07.12.13.13 0 0 1-.2 0 30.83 30.83 0 0 0-3.83-4.55 2.73 2.73 0 0 0-1.7-.95.67.67 0 0 0-.76.55c-.07.43-.2.83-.37 1.2a9.1 9.1 0 0 0-.94 4.09c0 .1.03.21.08.31.3.57.38 1.18.26 1.82l-.12.51c.24.99.15 1.68-.27 2.06l-.54-1.58a.53.53 0 0 1-.03-.18c0-.94-.2-1.81-.56-2.62.16-1.73.6-3.41 1.3-5.05 1.17-2.72 2.7-1.6 4.21-.19 1.41 1.32 2.6 2.8 3.54 4.46Z" fill="#FFF7D5"/><path d="M41.1 18.16c-.27.55-.41 1.12-.44 1.71l-.09 1.25c-.01.26-.12.5-.29.7l-.16.19a.2.2 0 0 1-.21.06.2.2 0 0 1-.14-.18 21.4 21.4 0 0 1-.12-2.64c.09-2.21-.1-4.79-1.16-6.63a.47.47 0 0 0-.23-.2c-1.1-.43-1.96.64-2.72 1.27l-3.57 4.21a16.46 16.46 0 0 1 4.54-5.68c.95-.78 2.14-.9 2.82.32.96 1.72 1.55 3.6 1.77 5.62Z" fill="#FAE5C1"/><path d="M19.83 13.15a1.75 1.75 0 0 0-1.4.5h-.35c-.42.22-.69.47-.78.76a8.57 8.57 0 0 0-.01 5.57c0 .22-.29.28-.9.2.13-.65.05-1.26-.25-1.83a.7.7 0 0 1-.08-.31 9.1 9.1 0 0 1 .94-4.09c.17-.37.3-.77.37-1.2a.66.66 0 0 1 .75-.55c.68.1 1.25.42 1.7.95ZM40.66 19.87c.03.54.13 1.25-.1 1.73a.88.88 0 0 0-.05.64.35.35 0 0 1-.06.3l-.83 1.03-1.16-1.41a.18.18 0 0 1-.03-.16.18.18 0 0 1 .1-.12c.44-.22.8-.64 1.08-1.28a.24.24 0 0 0-.02-.25.25.25 0 0 0-.23-.1.72.72 0 0 1-.6-.2c.02-.35.12-1.08.29-2.2a5.49 5.49 0 0 0-.9-4.12c-.76-.12-1.32.18-1.69.9-.48.94-.85 1.9-1.17 3.1-.2.75-.46 1.48-.78 2.2-.3-.13-.51-.25-.63-.37.49-.59.8-1.4.95-2.43.53-1.14 1.14-2.26.71-3.44.76-.63 1.61-1.7 2.73-1.26.1.04.17.1.22.2 1.06 1.83 1.25 4.4 1.16 6.62-.02.66.02 1.54.12 2.64a.2.2 0 0 0 .25.18.2.2 0 0 0 .1-.06l.16-.19c.18-.2.28-.44.3-.7l.08-1.25Z" fill="#E8A57A"/><path d="M19.83 13.15a30.83 30.83 0 0 1 3.87 4.58.13.13 0 0 0 .16-.03.48.48 0 0 0 .07-.12l.22.39a.18.18 0 0 0 .22.08.19.19 0 0 0 .13-.2l-.1-.7c2.4-.72 4.79-.7 7.18.02-.2.8-.06 1.05.39.73l3.57-4.21c.43 1.18-.18 2.3-.71 3.44l-.03-.2a.12.12 0 0 0-.1-.1c-.02-.01-.05 0-.07 0a.12.12 0 0 0-.06.06l-1.28 2.2a.08.08 0 0 0 .01.09c.11.13.3.26.58.38.12.12.33.24.63.36l.07.01c-.13.4.04.69.5.85.68.24.91.31 1.34.72.83.76 1.6 1.6 2.3 2.5-5.5-3.69-11.07-5.43-17.23-2.26-1.86.96-3.3 2.02-4.35 3.19-1.34 1.49-2.7 2.99-4.09 4.5-.22-.32-.08-.7.43-1.19l1.3-1.22c.44-.8.97-1.53 1.6-2.2l1.22-1.31c1.02-1.17 1.87-2.15 3.18-2.98.08-.06.12-.12.11-.19 0-.07-.05-.13-.14-.17l.67-.4 1.16-.45a.28.28 0 0 0 .16-.16.27.27 0 0 0-.02-.23l-1.4-2.41a.16.16 0 0 0-.2-.07.16.16 0 0 0-.1.18c.13.71.28 1.46.45 2.23.08.34 0 .52-.22.56-.78-1.55-.88-5.1-2.83-5.77.38-.37.84-.53 1.4-.5Z" fill="#FDA04E"/><path d="m18.08 13.65-.05.06a.16.16 0 0 0 .02.24 4.7 4.7 0 0 1 1.65 2.57.13.13 0 0 1-.07.1.13.13 0 0 1-.05.01h-.56a.56.56 0 0 0-.51.34.55.55 0 0 0 .12.6l.79.78a.15.15 0 0 1-.08.26l-.58.13a.37.37 0 0 0-.24.17c-.16.28-.1.53.21.76.04.03.1.05.14.05.05.01.1 0 .15-.01a.25.25 0 0 0 .1-.08.23.23 0 0 0 .06-.13c.01-.26.2-.43.58-.5.43-.08.7.08.82.48a.23.23 0 0 1-.1.27l-1 .57a.39.39 0 0 1-.26.04l-1.93-.38a8.57 8.57 0 0 1 .01-5.57c.1-.3.36-.54.78-.76ZM38.76 20.05a3.67 3.67 0 0 0-1.83.3.52.52 0 0 1-.45-.04l-.87-.5a.48.48 0 0 1-.22-.56.48.48 0 0 1 .52-.32c.54.06.93.22 1.18.48a.3.3 0 0 0 .36.06.31.31 0 0 0 .1-.08l.04-.04a.32.32 0 0 0 .07-.23.3.3 0 0 0-.12-.21c-.23-.2-.53-.3-.88-.34a.13.13 0 0 1-.11-.1.12.12 0 0 1 .07-.14c.4-.19.66-.54.79-1.04a.5.5 0 0 0-.1-.44.51.51 0 0 0-.4-.2h-.49a.18.18 0 0 1-.13-.05.17.17 0 0 1-.04-.14c.2-1.11.83-2.02 1.9-2.73a5.49 5.49 0 0 1 .9 4.12 36.89 36.89 0 0 0-.3 2.2Z" fill="#BC3F23"/><path d="M31.58 17.17a12.28 12.28 0 0 0-7.19-.03c-.19-.26-.2-.41-.02-.46 2.41-.74 4.82-.75 7.23-.04.04.01.07.03.09.06.02.03.04.06.04.1 0 .1-.04.23-.15.37Z" fill="#FFF7D5"/><path d="m21.42 19.77-.17-.35c.22-.04.3-.22.22-.56-.17-.77-.32-1.52-.45-2.23a.16.16 0 0 1 .1-.18.16.16 0 0 1 .2.07l1.4 2.4a.27.27 0 0 1-.04.34.28.28 0 0 1-.1.06l-1.16.45ZM34.83 17.13a4.8 4.8 0 0 1-.95 2.43 1.73 1.73 0 0 1-.58-.38.08.08 0 0 1 0-.1l1.27-2.2a.12.12 0 0 1 .13-.06.12.12 0 0 1 .1.1l.03.21ZM36.03 18.18a.04.04 0 0 1-.05 0h-.01l-.03-.03a.4.4 0 0 1-.09-.16.47.47 0 0 1-.02-.2.67.67 0 0 1 .2-.38l.04-.02c.1-.1.25-.17.38-.18.14 0 .27.04.36.13l.02.03a.04.04 0 0 1 0 .06l-.8.75ZM19.94 17.5c.1.08.18.26.25.54a.11.11 0 0 1-.08.14h-.06a26.86 26.86 0 0 1-.8-.73.11.11 0 0 1 .01-.11.12.12 0 0 1 .11-.05c.29.05.48.12.57.2ZM39.62 23.57l.83-1.02a.33.33 0 0 0 .06-.31.88.88 0 0 1 .05-.64c.23-.48.13-1.2.1-1.73.03-.6.17-1.16.44-1.7a9.56 9.56 0 0 1 .1 3.21l-.2.47a.16.16 0 0 0 .07.2l.07.02h.35a.14.14 0 0 1 .11.05.13.13 0 0 1 .02.12c-.14.46-.37.76-.69.9a.13.13 0 0 0-.08.13.13.13 0 0 0 .11.11c.18.03.3.08.38.15.07.08.1.2.06.36a4.64 4.64 0 0 1-.33 1 .14.14 0 0 1-.18-.01l-1.27-1.31ZM14.88 18.36c.37.8.55 1.68.56 2.62 0 .06 0 .12.03.18l.54 1.58c.03.21.17.45.43.73l-1.27 1.4a.2.2 0 0 1-.26.03.19.19 0 0 1-.05-.07 4.1 4.1 0 0 1-.33-.92c-.05-.22.04-.35.28-.38a.2.2 0 0 0 .16-.15v-.12a.22.22 0 0 0-.08-.1c-.3-.25-.5-.6-.61-1.03a.15.15 0 0 1 .14-.18c.02 0 .05 0 .08.02l.28.16a.16.16 0 0 0 .19-.02.17.17 0 0 0 .05-.18 5.63 5.63 0 0 1-.14-3.57Z" fill="#CD5B39"/><path d="M38.72 24c.7.67 1.28 1.28 1.74 1.84.27.33.44.74.49 1.22 0 .1.05.2.12.27l1.9 2.05c-.19.23-.48.33-.86.32a.25.25 0 0 0-.24.14.24.24 0 0 0 .05.28l1.16 1.15a.3.3 0 0 1 .01.43c-.3.33-.64.54-1.04.63a.16.16 0 0 0-.13.14v.07l.23.72-.03.83a.29.29 0 0 1-.13.24l-1.35.9.14-1.5.06-.32c.05-.51 0-1.03-.14-1.56a.19.19 0 0 1 .12-.22.32.32 0 0 0 .05-.02.22.22 0 0 0 .12-.28c-.55-1.48-1.17-2.01-2.18-2.91a3.32 3.32 0 0 0-1.77-.53 7.6 7.6 0 0 1-2.13-.14 2.4 2.4 0 0 0-.53-1.29c-.32-.42-.7-.67-1.14-.75-1.45-.29-2.1 1.23-2.24 2.48-.44-.2-.6-.42-.48-.68l.57-1.2c.06-.11.14-.22.24-.3.45-.4.79-.62 1-.68a4.51 4.51 0 0 0 1.54-.76.2.2 0 0 0 .02-.15.18.18 0 0 0-.05-.07c-1.39-1.44-3.1-.75-4 .88-.36.68-.57 1.02-1.23 1.25-1.97.67-2.1-1.3-3.12-2.26-.9-.82-1.9-.87-3-.15l-.4.43a.25.25 0 0 0-.05.27l.4 1.01c-1.1.75-1.51 1.43-1.22 2.04-.76.06-1.6.1-2.5.14-1.67.07-3.09 1.72-3.68 3.16-.07.18.02.4.3.68l-.2.5c-.21.9-.1 1.7.32 2.42l.08.18.54 1.71-.94-1.6a.24.24 0 0 0-.17-.12.61.61 0 0 0-.36.05 2.25 2.25 0 0 1-.93-.5.41.41 0 0 1-.14-.3c0-.47.14-.95.4-1.45a.25.25 0 0 0 .01-.21.26.26 0 0 0-.16-.15c-.3-.1-.56-.25-.82-.46a.47.47 0 0 1-.14-.54.47.47 0 0 1 .11-.16l1.07-1.06a.2.2 0 0 0-.14-.35c-.3-.02-.57-.13-.82-.34 1.38-1.5 2.75-3 4.09-4.5a14.98 14.98 0 0 1 4.35-3.18c6.16-3.17 11.73-1.43 17.23 2.27Z" fill="#F99646"/><path d="m42.98 29.38-1.91-2.05a.5.5 0 0 1-.12-.27 2.25 2.25 0 0 0-.49-1.22 19.75 19.75 0 0 0-1.74-1.83c-.7-.91-1.47-1.75-2.3-2.51-.43-.4-.66-.48-1.34-.72-.46-.16-.63-.45-.5-.85 1.55.56 2.84 1.87 3.78 3 1.18 1.42 1.76 1.92 3.04 3.34.08.08.17.15.27.21l.49.28a.13.13 0 0 1 .06.14.12.12 0 0 1-.12.1h-.76a.1.1 0 0 0-.09.06.09.09 0 0 0 .03.1c.69.5 1.26 1.08 1.72 1.77.13.2.12.35-.02.45ZM20.75 20.17c.1.04.14.1.14.17s-.03.13-.11.19c-1.31.83-2.16 1.8-3.18 2.98l-1.22 1.31c-.63.67-1.16 1.4-1.6 2.2l-.8-.05a.15.15 0 0 1-.13-.11.14.14 0 0 1 .06-.16c.27-.18.54-.4.8-.66a97.64 97.64 0 0 0 4.08-4.38c.44-.51 1.1-1 1.96-1.49Z" fill="#F1CCAC"/><path d="M16.28 20.68a3.65 3.65 0 0 0 1.18 1.37.18.18 0 0 1-.02.22l-1 1.2c-.26-.28-.4-.52-.43-.73.42-.38.51-1.07.27-2.06ZM18.68 20.77h.02l.01.03v.01c0 .18-.08.34-.21.46a.78.78 0 0 1-.52.2h-.03a.81.81 0 0 1-.53-.19.65.65 0 0 1-.16-.21.59.59 0 0 1-.05-.25v-.04h.03l1.44-.01ZM38.8 20.74l.02.01.01.03a.6.6 0 0 1-.05.27.68.68 0 0 1-.16.22.87.87 0 0 1-.54.22h-.04c-.1 0-.2-.01-.3-.04a.8.8 0 0 1-.26-.14.68.68 0 0 1-.17-.22.6.6 0 0 1-.07-.25v-.01l.01-.03.03-.01 1.51-.05Z" fill="#CB9280"/><path d="M31 28.2c1.41 1.5 2.72 1.35 3.91-.45a7.6 7.6 0 0 0 2.13.14 3.32 3.32 0 0 1 1.77.53c1.01.9 1.63 1.43 2.18 2.91a.22.22 0 0 1-.12.28l-.05.02a.19.19 0 0 0-.12.22c.14.53.2 1.05.14 1.56-1.78.96-3.32 2.32-5.5 2.43.06-.6-.07-.8-.38-.6l-.98.26a3.55 3.55 0 0 0-1.46-.66.2.2 0 0 0-.13.08.2.2 0 0 0-.03.08.6.6 0 0 0 .03.25 8.08 8.08 0 0 1-4.08-.11l.01-1.14c0-.04.02-.1.05-.13a.22.22 0 0 1 .13-.07c1.37-.21 2.75-1.64 2.42-2.99-.48-1.95-3.35-2.12-4.78-1.31-.93.53-1.27 1.26-1 2.2.31 1.11 1.11 1.82 2.38 2.11a.22.22 0 0 1 .17.21v.87c-1.37.18-2.74.14-4.1-.13a.37.37 0 0 0-.24.04l-.69.36-.8.54-.1.3a.19.19 0 0 1-.2.14l-.28-.04c-.08-.62-.24-.94-.48-.95a8.4 8.4 0 0 1-5.47-3.35c-.27-.27-.36-.5-.3-.68.6-1.44 2.02-3.09 3.69-3.16.9-.04 1.74-.08 2.5-.14.45 1.12 1.21 1.57 2.3 1.35a2.6 2.6 0 0 0 1.38-.8c.53-.18.7-.5.53-.99a3.79 3.79 0 0 0-1.3-1.94l-1.62-.66a.3.3 0 0 1-.19-.3.97.97 0 0 1 .16-.4c1.12-.73 2.12-.68 3 .14 1.04.96 1.16 2.93 3.13 2.26.66-.23.87-.57 1.24-1.25.88-1.63 2.6-2.32 4-.88a.18.18 0 0 1 .02.22 4.51 4.51 0 0 1-1.54.77c-.21.05-.55.27-1 .66-.1.09-.18.2-.24.32l-.57 1.19c-.13.26.04.49.48.68Z" fill="#FFF7D5"/><path d="M22.48 24.07a.97.97 0 0 0-.16.4c0 .07.01.14.04.2.04.05.09.1.15.11l1.61.66.04.02c.52.36.95 1 1.27 1.92.17.49 0 .81-.53.98.14-1.51-.76-3.05-2.47-2.58l-.4-1.01a.25.25 0 0 1 .06-.27l.4-.43Z" fill="#E8A57A"/><path d="M20.8 35.15c-.17.22-.2.53-.09.94a6.91 6.91 0 0 1-4.3-1.37c-.68-.5-1.1-1.32-1.27-2.43l.2-.49a8.4 8.4 0 0 0 5.46 3.35Z" fill="#FAE5C1"/><path d="M15.14 32.3c.17 1.1.6 1.91 1.26 2.42a6.91 6.91 0 0 0 4.31 1.37c.08.3.2.58.36.84a2.82 2.82 0 0 0 .82 2.23.05.05 0 0 1-.03.06h-.03a5.03 5.03 0 0 1-1.57-.41c-1.3-.7-2.6-1.37-3.91-2a.4.4 0 0 0-.27-.2l-.54-1.7a.91.91 0 0 0-.08-.19 3.17 3.17 0 0 1-.32-2.43ZM40.84 33.4l-.06.33a6.62 6.62 0 0 1-2.32 3.07 6.76 6.76 0 0 1-3.75 1.58c.3-.6.38-1.1.24-1.45.2-.33.33-.69.4-1.1 2.17-.1 3.71-1.46 5.5-2.42Z" fill="#F1CCAC"/><path d="M41.55 34.8c-.24.07-.42.18-.53.31-.09.1-.12.3-.1.59.03.4-.03.79-.2 1.18a9.03 9.03 0 0 1-3.16 3.16c-.22.13-.46.1-.73-.1.41-.25.76-.63 1.04-1.15a9.4 9.4 0 0 0 2.77-3.57l1.35-.89a.3.3 0 0 0 .13-.24l.03-.83c.24.24.38.5.43.8a.38.38 0 0 1-.08.29 1.2 1.2 0 0 1-.95.45Z" fill="#CD5B39"/><path d="m40.78 33.73-.14 1.5a9.4 9.4 0 0 1-2.77 3.56l-3.63 1.64a.15.15 0 0 1-.11 0 .15.15 0 0 1-.08-.06l-.38-.64a.26.26 0 0 1-.03-.16c0-.05.03-.1.07-.14l1-1.05a6.76 6.76 0 0 0 3.75-1.58 6.62 6.62 0 0 0 2.32-3.07Z" fill="#E8A57A"/><path d="M27.7 34.9v.35c-1.34.87-2.37 1.39-3.1 1.56-.73.18-1.56.02-2.49-.5a.18.18 0 0 1-.09-.12c0-.05 0-.1.02-.15l1.51-.76a.2.2 0 0 0 .1-.23.2.2 0 0 0-.21-.13c-.25.03-.5.11-.78.24l.69-.36a.37.37 0 0 1 .25-.04c1.35.27 2.72.31 4.1.13Z" fill="#FAE5C1"/><path d="M41.55 34.8c0 .11-.06.2-.2.29a.25.25 0 0 0-.12.23c.03.6-.14 1.13-.5 1.56.16-.4.22-.79.19-1.19-.02-.28.01-.47.1-.58.11-.13.29-.24.53-.3Z" fill="#3E324F"/><path d="M16.08 36.61c.1.02.2.08.27.2.48.7.96 1.24 1.45 1.6 1.2.9 2.12 1.86 2.78 2.9a5.23 5.23 0 0 1-1.34-1.5.17.17 0 0 0-.22.06c-.13.18-.35.18-.66 0a9.32 9.32 0 0 1-3.3-3.35c-.25-.41-.28-.8-.1-1.17a.2.2 0 0 0 .02-.14.22.22 0 0 0-.07-.12.98.98 0 0 0-.3-.15.61.61 0 0 1 .36-.05.24.24 0 0 1 .17.12l.94 1.6Z" fill="#CD5B39"/><path d="M22.04 36.04c-.16-.05-.22-.17-.18-.34l.8-.54c.27-.13.53-.2.77-.24a.2.2 0 0 1 .22.13.2.2 0 0 1-.1.23l-1.52.76Z" fill="#3E324F"/><path d="M32.4 35.25a12.44 12.44 0 0 1 1.57.74.21.21 0 0 0 .17-.08.22.22 0 0 0 .05-.09c.02-.13-.05-.24-.21-.32l.98-.25-.4 1.16c-.42-.04-.8 0-1.17.13-.54.2-.86.3-.96.3a4.34 4.34 0 0 1-2.57-.85c-.43-.29-1.05-.38-1.56-.65l.01-.2c1.4.38 2.75.42 4.08.1Z" fill="#FAE5C1"/><path d="M27.7 35.25c.04.15.04.3 0 .47a.25.25 0 0 1-.12.17l-2.78 1.5a.22.22 0 0 1-.03.02c-1.52.5-2.69.06-3.49-1.3l.27.03a.19.19 0 0 0 .21-.13l.1-.3c-.04.16.02.28.18.33a.3.3 0 0 0-.02.15.18.18 0 0 0 .1.13c.92.5 1.75.67 2.49.5.72-.18 1.75-.7 3.1-1.57ZM34.56 36.41c-1.97 2.6-3.94.38-6-.4a.4.4 0 0 1-.24-.23.76.76 0 0 1-.02-.44c.5.27 1.13.36 1.56.65.79.53 1.63.88 2.57.85.1 0 .42-.1.96-.3.36-.13.75-.17 1.17-.13Z" fill="#CB9280"/><path d="M34.95 36.93c.14.36.06.84-.24 1.45l-1 1.05a.25.25 0 0 0-.07.14c0 .05 0 .1.03.16l.38.64c.02.03.05.06.08.07h.1l3.64-1.65c-.28.52-.63.9-1.04 1.15a5.79 5.79 0 0 1-2.48 2 .09.09 0 0 1-.02-.16c.26-.18.39-.33.39-.43a.25.25 0 0 0-.14-.23.26.26 0 0 0-.27.01c-3.59 2.5-7.24 2.83-10.98 1l-.14-.09a6.97 6.97 0 0 0-1.41-.79.18.18 0 0 0-.14.1.17.17 0 0 0-.02.08v.3a.14.14 0 0 1-.08.13.15.15 0 0 1-.15 0l-.8-.55c-.67-1.04-1.6-2-2.8-2.9-.48-.36-.96-.9-1.44-1.6 1.31.63 2.62 1.3 3.91 2a5.03 5.03 0 0 0 1.6.4l.02-.01a.05.05 0 0 0 0-.06 2.82 2.82 0 0 1-.8-2.2c1.34 1.63 3.23 1.8 4.91.55.89-.67 1.86-1.05 2.95-.62.66.25 1.2.76 1.79 1.04 1.62.77 3.03.45 4.22-.98Z" fill="#CB9280"/><path d="M20.6 32.47h-.01v-.01c.02-.15.16-.27.39-.34.22-.06.5-.07.8-.02l.85.16c.14.03.28.07.4.12.13.05.25.12.34.18.09.07.16.15.2.23.04.07.05.15.04.22v.01h-.01l-3-.55Z" fill="#3E324F"/><path d="M32.5 33.02h-.03l-.02-.03v-.03a.29.29 0 0 1 .03-.2.6.6 0 0 1 .16-.18c.07-.06.17-.11.27-.16l.33-.1 1.09-.2c.23-.04.47-.03.65.02.19.06.3.16.32.28l.01.03v.04l-.03.01-2.78.52Z" fill="#190924"/><path d="M20.67 34.47h-.01v-.01a.3.3 0 0 1 .06-.22.82.82 0 0 1 .25-.2c.1-.07.24-.13.38-.18.15-.05.3-.08.47-.1l.47-.06c.33-.05.65-.03.9.04.24.07.39.19.4.33v.01l-2.92.39ZM32.53 34.05c-.02 0-.03 0-.03-.02a.05.05 0 0 1-.01-.04v-.05c.01-.06.04-.1.1-.15a.57.57 0 0 1 .2-.11c.08-.03.18-.05.29-.05.1 0 .21 0 .32.02l1.12.17c.1.02.21.05.31.09.1.03.2.08.26.13.07.06.13.11.16.17.04.06.05.12.04.17l-.01.06a.05.05 0 0 1-.02.03.05.05 0 0 1-.04.01l-2.7-.43Z" fill="#180C15"/><path d="M23.35 26.4c-.25-.1-.53 0-.61.22-.09.21.05.47.3.56.26.1.53 0 .61-.21.09-.22-.05-.48-.3-.57ZM32.78 27.24c.27 0 .5-.2.5-.44s-.23-.44-.5-.44c-.28 0-.51.2-.51.44s.23.44.5.44ZM29.97 30.33c-.05.14-.2.1-.45-.11a.25.25 0 0 0-.17-.07h-2.61a.28.28 0 0 0-.2.09c-.38.37-.61.42-.69.17.73-.6 1.63-.83 2.7-.7.56.06 1.03.27 1.42.62Z" fill="#FFF7D5"/><path d="M25.72 38.48a5.2 5.2 0 0 1 1.86-1.08 1.99 1.99 0 0 1 1.6.24l.85.55a.5.5 0 0 1 .23.48.5.5 0 0 1-.33.42c-1.75.62-3.15.5-4.21-.38a.15.15 0 0 1-.05-.12.15.15 0 0 1 .05-.11Z" fill="#FAE5C1"/><path d="M24.1 39.87a.16.16 0 0 1-.02-.21.17.17 0 0 1 .2-.06 8.97 8.97 0 0 0 7 .1.32.32 0 0 1 .4.12.32.32 0 0 1-.06.41 5.55 5.55 0 0 1-3.83 1.3 4.97 4.97 0 0 1-3.7-1.66Z" fill="#965655"/></svg>