<svg width="56" height="56" viewBox="0 0 56 56" xmlns="http://www.w3.org/2000/svg"><ellipse cx="28" cy="28.17" rx="16.38" ry="16.1" fill="#90F46E"/><path d="M28.46 11.48c-.15-.02-.25.08-.3.3-.37-.32-2.1.06-3.66.28-.03-.14-.07-.2-.13-.16-.15.1-.32.1-.5.05l.29-.1c.05-.03.08-.06.08-.12v-1.51c-.01-.32.11-.46.27-.71a.3.3 0 0 1 .14-.12c1.1-.47 2.2-.51 3.29-.13.2.08.31.24.33.49.04.54.1 1.08.19 1.61v.12Z" fill="#29312E"/><path d="m28.16 11.77-2.14.26a1.1 1.1 0 0 1 0-.92 6.13 6.13 0 0 1 1.89-.05c.07.01.12.05.15.12.07.17.1.37.1.6Z" fill="#F18A2B"/><path d="M26.01 11.11c-.13.3-.13.6 0 .92-.43.09-.86.14-1.27.15-.05 0-.1-.01-.13-.03a.8.8 0 0 1-.11-.1l-.01-.6c0-.07.03-.11.1-.12l1.42-.22Z" fill="#464546"/><path d="M31.58 11.8c5.91 1.45 10 4.86 12.24 10.23a15.61 15.61 0 0 1 1.13 7.31c-.46 5.96-3.93 10.95-9.32 13.73-1.63.83-3.4 1.37-5.31 1.61.22-.17.47-.3.76-.38a.1.1 0 0 0 .07-.08c0-.03.02-.05.04-.06a22.38 22.38 0 0 0 1.26-1l2.05-.69c.5-.06.93-.24 1.31-.51.2-.15.43-.28.7-.4.3-.15.58-.37.82-.65.25-.27.63-.47.87-.67 10.56-8.81 5.78-25.67-7.97-27.63-.1.12-.2.18-.32.16-.44-.3-.78-.24-1 .16-.17.1-.24.27-.2.49-.2-.12-.13-.36-.34-.18a.05.05 0 0 1-.04 0l-2.98-.12a1.68 1.68 0 0 0-1.02-.59.4.4 0 0 1-.22.14c-.43.05-.72.29-.86.72a.64.64 0 0 1-.28 0l-.03-.05c-.03-.04-.07-.05-.12-.04a15.62 15.62 0 0 0 .82 29.9c.11-.04.23.04.34.24a.4.4 0 0 0 .14.14 1.39 1.39 0 0 1 .57.76l-.01.03-.03.01h-.03l-2.34-.51A16.77 16.77 0 0 1 11.1 29.53c-.7-8.24 4.7-15.42 12.75-17.58.2.06.36.04.5-.05.07-.04.1.02.14.16a.8.8 0 0 0 .1.09c.04.02.09.03.14.03.41-.01.84-.06 1.28-.15l2.14-.26c.05-.21.15-.31.3-.29 1.13.17 2.17.28 3.12.33Z" fill="#004014"/><path d="M25.35 13.12c.03.05-.03.12-.19.23-.15.1-.27.06-.34-.13a2.33 2.33 0 0 0-.5-.69c.4.07.74.26 1.03.6Z" fill="#77F26C"/><path d="M24.33 12.53c.24.25.4.48.5.7 1.73 3.06 2.36.75 4.08-.3-.08.57.23 1.47.99 1.33a.26.26 0 0 0 .17-.11c.34-.5.3-.97-.16-1.38.12.02.23-.04.32-.16.23.33.34.67.34 1.02-.01.62-.53.7.03 1.44.17.23.17.5 0 .81a.29.29 0 0 0-.03.19c.05.38.23.7.53.95.9.78 1.3 1.54 1.92 2.53a.2.2 0 0 0 .17.1l1.05.02c.06 0 .12.02.17.05.58.3.94.78 1.06 1.42.04.2-.04.35-.25.43l-.6.22a.25.25 0 0 1-.21 0 .41.41 0 0 1-.21-.22c-.03-.07-.09-.1-.16-.08-.6.13-1.08.14-1.49.72a.15.15 0 0 0-.01.16c.3.64.42 1.48.55 1.95.28.95.74 1.9.5 2.95-.28 1.19-.15 2.4-.5 3.56-.22.7-.65 1.56-.16 2.2a7.7 7.7 0 0 1 .97 8.27c-.37.8-.7 1.18-1.45 1.86-.73.63-1.43.97-2.13 1.52-1.3.34-2.4.42-3.8.18-.43-.08-.96-.16-1.6-.24-.77-.1-1.66-.35-2.64-.75 3.05.67 1.9-.08 1.36-.67-3.4-3.69-2.5-9.6 2.13-11.75.68-.31.9-.73 1.04-1.4a.32.32 0 0 0-.01-.2c-.18-.4.11-.7.12-1 .01-.26-.04-.51-.16-.76-.11-.23.21-.6.21-.86a.5.5 0 0 0-.36-.48 3.08 3.08 0 0 1-.94-.48.11.11 0 0 0-.12.08l-.25.85a.24.24 0 0 0 .03.2c.22.43.79 1 .35 1.47a.46.46 0 0 1-.5.11.46.46 0 0 1-.16-.1l-.26-.24a.2.2 0 0 0-.18-.04c-.37.1-.75.1-1.13 0a.21.21 0 0 0-.16.03c-.16.1-.29.23-.38.4a.28.28 0 0 1-.14.12c-.4.17-.69.1-.85-.19-.48-.83.09-1.57.82-2.07a.34.34 0 0 1 .2-.07h.46c.03 0 .07-.01.1-.04a.13.13 0 0 0 .03-.09c.05-.9.2-1.77.43-2.63.22-.75-1.16-1.79-1.85-1.36a.3.3 0 0 1-.21.04l-.26-.04a.18.18 0 0 0-.17.06c-.33.36-.75.2-1.18.36a.4.4 0 0 1-.49-.2c-.4-.86-.2-1.53.59-2.01a.3.3 0 0 1 .17-.04l.78.03c.06 0 .12-.02.17-.06a.26.26 0 0 0 .1-.15c.26-1.26.42-2.4 1.57-3.32.06-.05.1-.11.1-.19.04-.82-.67-1.5-.07-2.3a.33.33 0 0 0 0-.39 1.4 1.4 0 0 1-.24-1.1c.07.01.17.01.28 0-.1.46.2 1.42.86.9.47-.38.6-1.25 0-1.62a.4.4 0 0 0 .22-.14Zm1.57 9.74a10.8 10.8 0 0 1-1.36-3.44.27.27 0 0 0-.15-.2.29.29 0 0 0-.25 0c-.4.2-.56.53-.65.98-.1.6-.26 1.19-.47 1.77a.17.17 0 0 0 .1.21 4.57 4.57 0 0 1 1.63 1h.08l1.03-.21a.07.07 0 0 0 .05-.04.07.07 0 0 0 0-.07Zm2.26 2.83-1.96-.44h-.01l-.01.01v.01c-.04.18.02.38.17.55.15.16.38.3.64.35l.06.01c.13.03.26.04.38.03.13 0 .25-.03.35-.07.1-.05.2-.1.26-.18a.53.53 0 0 0 .14-.24v-.02l-.02-.01Zm1.66-.12c-.4.65-.55 1.11-1.28 1.5a.18.18 0 0 0-.1.14c-.24 1.32 0 2.81-.03 4.17 0 .02 0 .04.02.06a.1.1 0 0 0 .05.03l2.15.48a.3.3 0 0 0 .18-.02l.31-.12c.06-.02.1-.07.1-.13.03-1.13.08-2.26.17-3.39.08-1.18-.53-1.9-1.19-2.75a.23.23 0 0 0-.2-.08.23.23 0 0 0-.18.1Zm-2.98 9.65a.22.22 0 0 0 .06.17l.98 1.08c.14.17.42.04.39-.18l-.43-2.62a.23.23 0 0 0-.27-.18l-.44.1a.23.23 0 0 0-.12.07.22.22 0 0 0-.06.13l-.1 1.43Zm2.32-.35c0 .07.1.1.14.04l.66-.82a.2.2 0 0 0-.09-.3l-.72-.24a.12.12 0 0 0-.15.06v.06l.16 1.2Zm1.8.86c-1.1-.04-.56-.88-.38-1.45.02-.07 0-.11-.08-.12h-.09c-.04-.01-.08 0-.1.02a.16.16 0 0 0-.07.1l-.42 2.29c-.02.1.08.19.18.16.41-.12.77-.32 1.09-.6.05-.05.08-.1.08-.16a.22.22 0 0 0-.06-.2c-.03-.03-.08-.04-.14-.04Zm-5.41 2 .26-2.77c.06-.62-.12-.7-.55-.23a5.94 5.94 0 0 0-1.24 2.12c0 .03 0 .05.03.07.14.08 1.49.93 1.5.81Zm4-1.08.24-1.7c0-.02 0-.03-.02-.03a.2.2 0 0 0-.15.04c-.05.04-.1.1-.14.17-.05.07-.09.16-.12.26-.04.1-.06.21-.08.32v.07c-.04.22-.03.44.01.6.05.18.13.28.23.3l.02-.03Zm-1.69.34a.08.08 0 0 0 0-.1l-.95-1a.08.08 0 0 0-.13.04l-.26 1.76a.08.08 0 0 0 .06.09h.04l.81-.2c.02 0 .03-.02.05-.03l.38-.56Zm3.67-.43a4.56 4.56 0 0 0-1.94 1.12.2.2 0 0 0 .03.19c.21.32.61.45.8.84.04.06.09.1.15.13.06.02.12.02.18 0l1.48-.52a.28.28 0 0 0 .2-.29l-.07-.88a.23.23 0 0 0-.1-.19l-.54-.37a.2.2 0 0 0-.19-.03Zm-7.47.69c-.08-.05-.18 0-.2.09l-.09.9c0 .08.07.15.15.13l1.12-.26c.1-.03.13-.16.04-.22l-1.02-.64Zm2.31 2.22c-.53.11-1.9.25-1.45-.83a.12.12 0 0 0-.02-.12.12.12 0 0 0-.12-.04l-.88.22c-.08.02-.12.06-.11.14.02.78.2 1.52.54 2.22a.15.15 0 0 0 .2.07c.9-.45 1.41-.6 1.94-1.52.04-.07-.02-.15-.1-.14Zm4.8-.45a.14.14 0 0 0-.1.1.14.14 0 0 0 .06.14l.88.74a.14.14 0 0 0 .14.02.14.14 0 0 0 .1-.11l.17-1.1a.14.14 0 0 0-.04-.12.14.14 0 0 0-.14-.03l-1.07.36Zm-.36 2.96a.16.16 0 0 0 .14.09.16.16 0 0 0 .14-.07l.93-1.44a.15.15 0 0 0-.04-.2l-1.3-1.07a.16.16 0 0 0-.16-.03l-.7.24a.16.16 0 0 0-.09.09.15.15 0 0 0 0 .13l1.08 2.26Zm-1.53-2.1-.23.13a.09.09 0 0 0-.03.12l.01.02a17.5 17.5 0 0 0 .79 1.2c.1.14.2.26.28.33.07.07.12.1.15.09.02-.02.02-.08 0-.18a10.69 10.69 0 0 0-.83-1.66c-.04-.05-.08-.08-.14-.05Zm-1.55.05c-.03 0-.08.03-.08.06l-.04 2.7c0 .08.1.1.13.03l.94-2.4a.07.07 0 0 0-.01-.07c-.33-.35-.43-.3-.94-.32Zm-.52.22a8 8 0 0 0-.8.4c-.56.31-.87.97-1.26 1.49-.05.06-.05.12 0 .18.56.58 1.23.95 2.02 1.12.07.01.14-.04.14-.1l.03-3c0-.07-.07-.12-.13-.1Zm1.64.65-.99 2.47c-.02.07.03.14.1.14a4.15 4.15 0 0 0 2.37-.8.15.15 0 0 0 .02-.12.15.15 0 0 0-.03-.06l-1.28-1.66a.1.1 0 0 0-.04-.03.11.11 0 0 0-.15.06Z" fill="#0E2B20"/><path d="M28.71 13.42c.04.49.28.9.73 1.21-.47-.06-.93-.16-1.38-.27-.44-.12-.86-.05-1.32-.12-.26-.03-.41.02-.63.1-.25.1-.24.16.02.18l.12.01-1.86.45a.15.15 0 0 1-.15-.04.14.14 0 0 1-.03-.14l.04-.13c.7-.46.48-.75.57-1.45.07.2.19.23.35.13.15-.1.21-.18.18-.23 3.06.1 3.06.05 2.68 0a.08.08 0 0 1-.07-.06.08.08 0 0 1 .04-.08l.64-.43a.1.1 0 0 1 .12 0 .1.1 0 0 1 .03.13c-.12.2-.14.45-.08.74Z" fill="#50AD39"/><path d="M29.91 12.77c.45.41.5.87.16 1.38a.26.26 0 0 1-.17.1c-.76.15-1.07-.75-1-1.32.23-.4.57-.46 1.01-.16ZM24.11 12.67c.6.37.47 1.25 0 1.61-.67.53-.96-.43-.86-.9.14-.42.43-.66.86-.71Z" fill="#F18A2B"/><path d="M29.44 14.63c.13.04.27.06.43.06.07 0 .13.02.17.07.07.07.13.18.16.32-1.33-.2-2.51-.6-3.95-.55h-.12c-.26-.03-.27-.09-.02-.18.22-.1.37-.14.63-.1.46.06.88 0 1.32.1.45.12.9.22 1.38.28Z" fill="#77F26C"/><path d="M26.25 14.53c1.44-.05 2.62.36 3.95.55.18.08.25.2.21.37-.02.08-.07.12-.15.11a.4.4 0 0 0-.36.2c-.05.07-.11.1-.2.09l-1.3-.18c-.02 0-.04 0-.05.02l-.03.05a.04.04 0 0 0 0 .04.04.04 0 0 0 .02.03l1.26.4c-.24.1-.56.15-.97.17a.2.2 0 0 0-.13.06.19.19 0 0 0-.06.13c0 .1-.05.15-.16.17a.27.27 0 0 1-.19-.03.38.38 0 0 0-.34-.01.22.22 0 0 1-.2-.02.92.92 0 0 0-1.14.03c-.07.04-.06.09 0 .13l1.17.73c.05.02.05.05.01.09-.1.09-.2.13-.3.11a3.47 3.47 0 0 0-.72-.04c-.87-.14-1.5.66-1.64 1.4a2.29 2.29 0 0 0-.4-.95c-.05-.07-.11-.08-.19-.03l-1.04.76a.18.18 0 0 0-.07.14c-.09.85-.34 1.65-.59 2.46a.1.1 0 0 1-.02.04.1.1 0 0 1-.1.02c-.72-.28-1.34.13-1.3.88 0 .08-.04.14-.12.16a.3.3 0 0 1-.3-.07.23.23 0 0 0-.19-.06.65.65 0 0 0-.43.2c-.05.06-.1.06-.14 0-.38-.52-.16-1.11.36-1.45.04-.03.1-.04.16-.05l1.18-.06c.06 0 .1-.04.1-.1 0-.29.06-.54.15-.75.3-.16.48-.46.53-.9.11-1.08.71-1.2 1.05-2-.1-.37-.1-.4-.08-.9 0-.07.04-.12.1-.15l1.08-.5c.09-.03.08-.06-.01-.06a2 2 0 0 0-1.12.38c-.14.09-.44-.28-.13-.28h.03a.05.05 0 0 0 .02-.06.05.05 0 0 0-.02-.03c-.37-.24-.07-.7.06-1 .03-.06.08-.07.14-.04.2.1.4.09.61-.06l-.04.13a.14.14 0 0 0 .03.14c.02.02.04.04.07.04h.08l1.86-.45Z" fill="#396B1F"/><path d="M32.73 20.1a6.07 6.07 0 0 1-1.25-1.9.27.27 0 0 0-.09-.05c-.78-.3-.72-1.1-1.4-1.4-.04-.02-.06-.05-.03-.1.12-.2.14-.41.07-.62 0-.04.03-.08.1-.11a.08.08 0 0 1 .07 0 .07.07 0 0 1 .04.05c.14.9.86 1.43 1.47 2.05.26.27.62.86 1.08 1.77.04.08.1.12.19.13l1.34.1c.06.01.12.03.17.06.35.25.59.58.7 1 .02.08-.02.12-.1.12H35c-.08 0-.11-.04-.12-.12-.02-.44-.25-.76-.7-.95-.02-.01-.04 0-.05.01-.02.03-.02.06.01.08.37.27.55.63.54 1.1 0 .05-.03.08-.07.1l-.06.04a.07.07 0 0 1-.06 0 .06.06 0 0 1-.03-.05 2.3 2.3 0 0 0-.44-1.04.1.1 0 0 0-.16.03v.07c.1.18.1.37.05.56a.21.21 0 0 1-.17.17h-.06c-.13.03-.2-.02-.17-.15.06-.47-.15-1.14-.78-.96Z" fill="#77F26C"/><path d="M30.03 16.03c.07.2.05.41-.07.62-.03.05-.01.08.04.1.67.3.6 1.1 1.4 1.4a.27.27 0 0 1 .14.14c.31.7.71 1.31 1.2 1.8-.02.07 0 .12.03.16-.21.06-.3.13-.24.23-.38.07-.61-.1-.75-.46-.18-.45-.39-.9-.61-1.35a.35.35 0 0 0-.14-.15 2.3 2.3 0 0 1-.78-.62c-.27-.45-.54-.54-.81-.27-.43-.05-.82.01-1.17.19l-1.7-.1c.16 0 .4 0 .71.05.1.02.21-.02.31-.11.04-.04.04-.07 0-.1l-1.18-.72c-.06-.04-.07-.09 0-.14a.92.92 0 0 1 1.14-.02.22.22 0 0 0 .2.02.38.38 0 0 1 .34.01c.06.03.12.05.19.03.1-.02.16-.07.16-.17 0-.05.02-.1.06-.14a.2.2 0 0 1 .13-.05c.4-.02.73-.07.97-.17l.43-.18Z" fill="#50AD39"/><path d="M23.57 17.36c-.34.81-.94.93-1.05 2-.05.45-.23.75-.53.91.17-.86.38-1.72 1.02-2.34l.56-.57Z" fill="#77F26C"/><path d="M29.44 17.63c.42.18.74.5.95.99l.2 1.19-.18.84c-.02.1-.08.14-.17.14h-.05a.14.14 0 0 0-.14.1c-.1.3-.08.57.07.82l-.73.85c-1.31.15-2.2-.6-2.54-1.8-.1-.32.02-.64-.08-.98a.29.29 0 0 1 .16-.35c.46-.2.86-.5 1.2-.87.08-.1.06-.14-.07-.12l-.2.02h-.2a2.05 2.05 0 0 1-1.08-.53l-.01-.03v-.05c.02-.05.04-.06.09-.05.57.16 1.1.17 1.6.02.36-.18.75-.24 1.18-.19Z" fill="#FCFCFC"/><path d="m26.57 17.73 1.7.09c-.5.14-1.04.14-1.61-.02-.05-.01-.07 0-.08.05l-.01.05v.03c.32.28.68.46 1.09.53h.2l.2-.02c.13-.02.15.02.06.12-.33.38-.73.67-1.2.87a.29.29 0 0 0-.15.35c.1.34-.01.66.08.98.34 1.2 1.23 1.95 2.54 1.8l-.55 1.38a.16.16 0 0 1-.1.1.16.16 0 0 1-.14-.03l-1.62-1.08c-1.16-.78-1.77-2.5-2.05-3.8.13-.74.77-1.54 1.64-1.4Z" fill="#8B928B"/><path d="M30.39 18.62c.32.12.51.3.56.55l.34 1.79c-.04.02-.13.02-.25-.01-.07-.01-.11.01-.13.08-.04.14-.1.22-.2.23.16-.5.11-.99-.12-1.45l-.2-1.2Z" fill="#396B1F"/><path d="M30.95 19.18c.35.45.54.97.58 1.55 0 .08-.01.13-.06.16a.5.5 0 0 1-.18.07l-.34-1.79Z" fill="#77F26C"/><path d="M30.59 19.8c.23.47.28.95.13 1.46l-.6.45a.94.94 0 0 1-.07-.81c.02-.07.07-.1.14-.1h.05c.1-.01.15-.06.17-.15l.18-.84Z" fill="#9A9A9A"/><path d="M32.77 20.25c.27.17.39.46.36.88-.01.14-.04.21-.1.23a.25.25 0 0 1-.32-.23c0-.28-.07-.5-.18-.65-.05-.1.03-.17.24-.23Z" fill="#77F26C"/><path d="M37.33 40.91c-.24.28-.51.5-.82.64-.27.13-.5.26-.7.41-.38.27-.81.45-1.3.51l2.82-1.56Z" fill="#396B1F"/><path d="M27.23 9.46c.76-.2.74.58.74 1.04 0 .1-.04.14-.14.15l-1.8.15a.22.22 0 0 1-.23-.16l-.21-.76a.28.28 0 0 0-.1-.16.28.28 0 0 0-.2-.05 1.16 1.16 0 0 0-.55.19.05.05 0 0 1-.05-.02l-.03-.06a.05.05 0 0 1 0-.04.05.05 0 0 1 .02-.03c.68-.32 1.72-.7 2.36-.27.06.03.12.04.19.02ZM26.52 12.3c.6.1 1.28.04 1.9 0 .05-.01.07.01.08.06l.01.05c0 .02 0 .03-.02.03-.17.04-.34.1-.5.16-.74.3-2.06.52-2.75.03-.08-.06-.07-.1.02-.12.34-.09.93-.28 1.26-.22Z" fill="#464546"/><path d="M28.21 26.2c-.4.15-.77.24-1.12.26-1.34-.24-1.62-1.22-2.17-2.2-.7-1.26-1.52-2.24-3.13-2.1-.05 0-.08-.03-.08-.08v-.06a.15.15 0 0 1 .13-.15c2.25-.31 2.91 1.2 3.89 2.8.58.97 1.1 1.54 2.26 1.08.54-.21 1.09-1.72 1.34-2.3a4.32 4.32 0 0 1 2.92-2.67c.1-.03.15 0 .15.1v.08c.01.06 0 .1-.06.14l-.93.6a4.3 4.3 0 0 0-1.85 2.5c-.08.27-.2.52-.35.76l-.35.62c-.15.26-.37.46-.65.61Z" fill="#B2CACC"/><path d="M32.04 22.22a.19.19 0 0 0-.1-.02c-.06 0-.08.04-.07.1.3 1.26.71 2.52.9 3.79.06.4.25.62.56.62-.14.77-.24 1.56-.3 2.38-.08 1.1-.38 1.96-.67 2.98.02-.1-.06-.14-.22-.09a.24.24 0 0 0-.17.2c-.05.58.09 1.1.41 1.57.04.06.1.07.15.04.17-.1.24-.24.2-.43l.64.97c.01.02.02.05.01.07a.1.1 0 0 1-.03.06l-.05.04c-.08.07-.15.06-.2-.04-.22-.42-.32-.49-.29-.2.01.08.03.17.07.25a2.6 2.6 0 0 1 .18.74.1.1 0 0 1-.1.06c-.04 0-.08-.03-.11-.08l-.17-.3c-.2-.45-.28-.44-.26.03a3.48 3.48 0 0 1-.1.98l-.03.02h-.04a.07.07 0 0 1-.03-.02l-.06-.06a.31.31 0 0 1-.1-.22v-.7c0-.05-.02-.07-.07-.06h-.06c-.05 0-.07.03-.06.07 0 .07 0 .14-.02.21a.2.2 0 0 1-.09.11.21.21 0 0 1-.26-.04.2.2 0 0 1-.06-.13c0-.37.05-.74.14-1.12.16-.7.06-.73-.32-.11-.06.1-.12.35-.18.75a.14.14 0 0 1-.13.13c-.17.03-.28-.01-.33-.12-.02-.07 0-.16.05-.26l.66-1.27c.13-.02.17-.16.11-.42 0-.02 0-.03.02-.03.04 0 .07-.02.1-.05a.1.1 0 0 0 .02-.06c.03-.33.02-.59.19-.9.39-.72.32-1.59.43-2.17.24-1.17.56-2.22.23-3.5-.05-.18-.19-.3-.28-.48-.36-.66-.65-1.35-.88-2.08l.48-.56c.03-.03.03-.06 0-.09a.08.08 0 0 0-.04-.03l-.05.01c-.52.29-.91.59-1.17.9-.3.38-.37.34-.21-.11.22-.63.68-1.14 1.4-1.52.14-.08.26-.01.36.2Z" fill="#50AD39"/><path d="M32.04 22.22c.61.7.53 1.6.83 2.45.24.66.39 1.34.46 2.04-.31 0-.5-.21-.56-.62-.19-1.27-.6-2.53-.9-3.78-.01-.07.01-.1.08-.1l.09.01Z" fill="#77F26C"/><path d="M27.4 24.45a1.86 1.86 0 0 0-.6-.33c-.35-.11-.2-.35-.37-.51-.12-.13-.36-.11-.45.06a.49.49 0 0 0-.04.3c0 .08-.03.12-.1.12h-.16l-.7-1a.21.21 0 0 1-.03-.2.21.21 0 0 1 .16-.13c1.17-.25 2.12.58 2.78 1.33.3.34.23.5-.23.46-.03 0-.11-.03-.26-.1Z" fill="#50AD39"/><path d="M31.27 23.43c.23.73.52 1.42.88 2.08.1.18.23.3.28.49.33 1.27.01 2.32-.23 3.5-.11.57-.05 1.44-.43 2.16-.17.31-.16.57-.2.9a.1.1 0 0 1-.01.06c-.03.03-.06.05-.1.05-.02 0-.02.01-.02.03.06.26.02.4-.11.42.03-.53-.1-.99-.42-1.37a.1.1 0 0 1-.02-.1.1.1 0 0 1 .07-.06c.13-.03.23 0 .31.08.05.04.1.04.14 0 .1-.09.14-.2.14-.3-.04-1.2.01-2.4.13-3.6.13-1.25-.57-2.02-1.21-2.98-.36-.53.4-1.21.8-1.36ZM27.4 24.45c-.44-.09-.87-.1-1.28-.05-.07.01-.13 0-.18-.04-.1-.07-.18-.16-.26-.27h.15c.08 0 .12-.04.1-.12a.49.49 0 0 1 .05-.3c.09-.17.33-.2.45-.06.16.16.02.4.37.5.22.08.42.2.6.34Z" fill="#396B1F"/><path d="M24.34 27c-.22.03-.39-.02-.5-.17a.25.25 0 0 1-.06-.18c.06-.49.16-2.08.46-2.42.08-.1.15-.09.21.03l.8 1.62c.04.06.04.12.02.18l-.42 1.16a.17.17 0 0 0 .04.18l.65.83a.28.28 0 0 1 0 .35l-.09.12a.13.13 0 0 1-.12.05.14.14 0 0 1-.1-.08l-.41-.86a.28.28 0 0 0-.26-.15c-.26 0-.76.12-.91-.17a.15.15 0 0 0-.14-.08.3.3 0 0 0-.21.08.17.17 0 0 0-.06.18c.06.22 0 .4-.16.56a.13.13 0 0 1-.18 0c-.26-.24-.05-.42-.04-.7 0-.03-.01-.06-.03-.08a.13.13 0 0 0-.16-.03.12.12 0 0 0-.06.06c-.16.43-.13.85.08 1.27a.07.07 0 0 1-.01.09.08.08 0 0 1-.08.02l-.15-.04a.2.2 0 0 1-.14-.15c-.14-.57-.04-1.01.31-1.32.41-.36 1.14-.2 1.69-.24.03 0 .05-.03.04-.06V27Z" fill="#50AD39"/><path d="M28.21 26.2c-.11.15-.16.27-.13.36-.03-.07-.07-.1-.11-.09a.32.32 0 0 0-.15.08.3.3 0 0 0-.08.13c-.1.29-.1.58-.01.87a.4.4 0 0 1-.3-.03.17.17 0 0 1-.1-.17c.01-.38-.07-.68-.24-.89.35-.02.72-.1 1.12-.27Z" fill="#5B7A74"/><path d="m28.08 26.56.02.95c0 .08-.03.13-.11.14-.08.02-.17-.02-.26-.1-.09-.3-.09-.58 0-.87a.3.3 0 0 1 .1-.13.32.32 0 0 1 .14-.08c.04 0 .08.02.1.09ZM28.09 27.9l-.89-.06a.1.1 0 0 0-.1.1v.1c0 .05.03.1.09.1l.88.05a.1.1 0 0 0 .1-.09V28a.1.1 0 0 0-.08-.1Z" fill="#B2CACC"/><path d="m27.67 28.44.05.58c0 .07.04.12.09.17.13.1.24.09.35-.06l-.07 1.33a.09.09 0 0 1-.09.08l-.82-.04a.14.14 0 0 1-.13-.16l.01-.1a.17.17 0 0 1 .16-.14l.42-.03a.08.08 0 0 0 .06-.03.08.08 0 0 0 .01-.06l-.02-.1a.08.08 0 0 0-.05-.06.09.09 0 0 0-.07-.01.6.6 0 0 1-.4-.02.2.2 0 0 1-.09-.07.18.18 0 0 1-.03-.1c0-.12.03-.22.1-.3a.2.2 0 0 0 .06-.14v-.64c0-.08.03-.12.1-.14.1-.03.23-.02.36.04Z" fill="#5B7A74"/><path d="M28.16 29.13c-.1.15-.22.17-.35.06a.24.24 0 0 1-.09-.17l-.05-.58c.14-.1.27-.12.39-.07.07.03.1.08.1.15v.6ZM27.93 30.7c.45.65.72 1.52.82 2.6.07.76.26 2.13.56 4.1.02.12-.03.18-.15.2h-.09c-.07.02-.1-.01-.12-.08-.19-1.14-.36-2.24-.52-3.31-.15-1.07-.34-2.84-1.05-3.3-.03-.03-.04-.07 0-.11.01-.03.04-.04.08-.05l.47-.05Z" fill="#B2CACC"/><path d="M32.36 32.07c.05.47.17.9.37 1.29.04.19-.03.33-.2.42-.06.04-.1.03-.15-.03a2.3 2.3 0 0 1-.4-1.56.24.24 0 0 1 .16-.21c.17-.05.24-.02.22.09Z" fill="#77F26C"/><path d="M24.56 34.54a5.91 5.91 0 0 0-1.05 3.84c.14 1.88 1.19 3.8 2.97 4.6.38.18.78.24 1.23.19.98-.1 1.9-.4 2.77-.9a.28.28 0 0 1 .23-.02c.07.03.14.03.2 0 .07-.02.1-.06.11-.13.03-.18.03-.3.15-.45.3-.34.63-.83 1-1.45.07-.13.21-.16.42-.1a.07.07 0 0 0 .06 0 .07.07 0 0 0 .03-.06v-.07c0-.02 0-.05-.02-.07a.13.13 0 0 0-.05-.05c-.16-.08-.21-.2-.16-.38.18-.54.28-.99.3-1.34 0-.15.08-.26.21-.31l.1-.05c.15-.06.22-.01.21.15-.01.75-.26 1.48-.4 2.22a.04.04 0 0 0 .02.04.04.04 0 0 0 .04 0c.09-.05.15-.15.2-.3.41-1.4.49-2.72.23-3.98-.01-.04 0-.06.03-.06.04-.01.06 0 .07.03.87 2.96-.24 6.53-3.5 7.42-.75.21-1.57.2-2.37.16-1.73-.08-3.23-1.62-3.85-3.11-1.29-3.12.1-7.14 3.74-7.97a.12.12 0 0 1 .14.09l.01.06c0 .02 0 .04-.03.04a4.5 4.5 0 0 0-3.04 1.96Z" fill="#5B7A74"/><path d="M23.47 34.04a8.84 8.84 0 0 0-.82 2.18.3.3 0 0 1-.23.23l-.08.01a.09.09 0 0 1-.1-.09c.01-.29 0-.59.1-.86a6.2 6.2 0 0 1 2.1-2.9c.1-.07.13-.05.11.06a.33.33 0 0 1-.2.26.29.29 0 0 0-.14.11c-.22.34-.57.69-.74 1Z" fill="#464546"/><path d="M26.49 34.2a.02.02 0 0 1-.03.02h-.01a.35.35 0 0 1-.14-.05.38.38 0 0 1-.11-.11.48.48 0 0 1-.07-.32v-.05a.49.49 0 0 1 .15-.3.39.39 0 0 1 .14-.07c.05-.01.1-.02.15-.01h.01a.02.02 0 0 1 .02.03l-.11.86ZM26.05 34.51c.12.01.22.07.29.18.07.1.1.23.09.37l-.17 1.78a.58.58 0 0 1-.15.35.38.38 0 0 1-.31.12h-.01l.26-2.8Z" fill="#B2CACC"/><path d="M32.86 37.45a.1.1 0 0 1-.07-.02.09.09 0 0 1-.03-.06v-.04a10.5 10.5 0 0 1-.1-1.07c0-.14.02-.26.03-.33.02-.08.04-.12.06-.13h.09c.02-.01.06.02.1.1l.1.3a6.4 6.4 0 0 1 .2 1.07v.1a.09.09 0 0 1-.07.04l-.31.04ZM28.73 38.43l-.36.17a.18.18 0 0 1-.2-.03c-.54-.53-.54-1.05.01-1.57a.21.21 0 0 1 .3 0 .2.2 0 0 1 .05.08l.34 1.03c.05.14 0 .25-.14.32Z" fill="#5B7A74"/><path d="M29.49 38.63c0-.1.04-.2.1-.29.07-.04.1-.1.1-.16 0-.07-.02-.13-.09-.16l-.13-.31.13-.01c.07 0 .13.02.18.06.34.3.33 1-.3.87Z" fill="#B2CACC"/><path d="m29.47 37.71.13.31c-.07-.02-.12 0-.14.03a.23.23 0 0 0-.03.18c0 .05.04.07.08.08l.09.03a.43.43 0 0 0-.11.29c-.33-.27-.34-.58-.02-.92ZM26.64 38.64h-1.3a.17.17 0 0 1-.15-.1.17.17 0 0 1-.02-.07l.02-.45c0-.04.02-.07.04-.1a.17.17 0 0 1 .1-.06l.45-.08c.04 0 .08 0 .12.03l.83.52a.17.17 0 0 1 .07.2.17.17 0 0 1-.16.12Z" fill="#5B7A74"/><path d="M25.9 13.9c.1.03.2 0 .22-.07.02-.07-.04-.15-.13-.18-.1-.03-.2 0-.21.07-.03.08.03.16.13.19ZM27.44 13.93c.11-.04.18-.14.15-.21-.03-.07-.14-.1-.25-.06-.12.04-.18.14-.16.2.03.08.15.1.26.07ZM29.61 13.3c-.01-.05 0-.08.07-.11a.1.1 0 0 1 .06-.01.1.1 0 0 1 .06.03c.15.17.17.35.06.54-.07.14-.18.13-.32-.01a.17.17 0 0 1-.04-.18.57.57 0 0 1 .1-.18.08.08 0 0 0 .01-.09ZM23.64 13.53c-.05.17 0 .33.12.37.12.03.26-.07.32-.23.05-.17 0-.33-.13-.37-.12-.03-.26.07-.31.23Z" fill="#29312E"/></svg>