<svg width="56" height="56" viewBox="0 0 56 56" xmlns="http://www.w3.org/2000/svg"><path d="M27.85 46h-.34c-1.6-.12-3-.33-4.18-.65-10.24-2.75-16.1-14.13-12.02-24.1a18 18 0 0 1 29.47-5.91 17.9 17.9 0 0 1 1.98 22.9 18 18 0 0 1-10.8 7.31c-.54.13-1.18.2-1.76.3-.78.13-1.56.1-2.35.15Z" fill="#F56092"/><path d="M38.24 42.53a15.8 15.8 0 0 0-1.57-4c.18-.19.27-.34.27-.47v-2.34c0-.2-.08-.23-.23-.1l-.64.51a.59.59 0 0 0-.53.06c-.03.02-.06.01-.08-.01l-.03-.03a.06.06 0 0 1-.02-.05l.14-1a.12.12 0 0 1 .09-.1.58.58 0 0 0 .35-.25.18.18 0 0 1 .14-.09c.2-.02.33.07.38.27a.13.13 0 0 0 .15.1l.05-.01c.05-.01.07-.04.06-.09-.14-.72-.3-1.43-.46-2.13-.1-.46-.1-.9-.14-1.37V30.4c.01-.39-.01-.78-.07-1.16-.03-.15-.1-.24-.22-.28-.05-.02-.1 0-.1.06l-.2.7a.6.6 0 0 1 .01-.38c.1-.28.17-.55.28-.83a.71.71 0 0 0-.08-.7.2.2 0 0 1-.02-.15l.04-.2.24.03c.05 0 .09-.02.11-.06.2-.33.07-.7.1-.97.05-.85-.04-2.06.39-2.8a.3.3 0 0 0 .04-.16c.01-.28.19-.46.23-.69.05-.29.08-.59.08-.89.61-1.23.78-2.03 1.04-3.52.06-.34.17-1.29-.14-1.52-.78-.6-1.54-.21-2.2.35-.41.22-.84.45-1.27.7-.73.4-1.18 1.18-2.1 1.22-.39.01-.86-.08-1.24-.16-.48-.1-.95-.21-1.41-.33a7 7 0 0 0-.7-.15l-.71-.1a5.94 5.94 0 0 0-1.6-.17c-.32 0-.62-.03-.92-.1a1.4 1.4 0 0 1-.63-.4l-.59-.57a26.9 26.9 0 0 0-1.96-2.58c-.4-.46-1.07-.83-1.65-.54-.95.47-.77 3.87-.65 4.77-.05.81-.07 1.64-.05 2.47.02.47-.12.64-.33 1.04a4.31 4.31 0 0 0-.39 1.85c0 .03.01.05.05.06l.07.02c.04 0 .08 0 .12-.04.25-.27.47-.48.84-.61.17-.06.35-.13.53-.18.52-.18.94-.49 1.49-.64a.2.2 0 0 0 .12-.1c.18-.36.26-.64.58-.9l.6-.49c.17-.13.18-.32.27-.44.14-.2.3-.38.48-.54.17-.15.41-.15.56-.34a.33.33 0 0 1 .41-.08l.46.24c.06.03.08.07.08.14 0 .33 0 .66.03.99l.08.42c.14.71-.6.8-1.08.9-.57-.78-1.22-.85-1.97-.22-.12.11-.14.23-.06.38.26.43.81.64 1.65.64l1.03.76-.53-.14a.28.28 0 0 0-.16 0c-.38.1-.62.2-.73.28-.52.4-1.01.4-1.49 0a.43.43 0 0 0-.13-.08c-.42-.14 0-.8-.4-1.08a.4.4 0 0 0-.4-.06c-.54.2-1.06.57-1.55 1.09-.23.25-.37.6-.6.89-.55.74-.42 1.99-.34 2.84.04.4 0 .91.21 1.38.02.05.03.1.02.15a1 1 0 0 0 .13.62l.04.13c0 .27-.02.42.07.7.08.25.06.5.16.74.09.25.08.53.17.76.16.42.23.87.31 1.31.12.65.65.94 1.01 1.44.1.14.26.15.45.04.2-.1.35-.25.43-.41.36-.76.42-1.48.17-2.16l.54.42c.37.6.91.95 1.6 1.05.53.07 1.01.05 1.46-.07l.18-.1.08-.06c.12 0 .18-.04.2-.12.5-.17.65-.4.44-.7.7-.66 1.79-.91 2.18-1.87a.23.23 0 0 1 .1-.11l.6-.36.18.4c.02.06.02.1-.01.15l-.35.44c-.08.1-.18.26-.29.47-.24.49-.7.74-.84 1.32l-.24 1c-.02.08-.09.24-.2.47-.18.33-.1.7-.25 1.05a.2.2 0 0 0 0 .15c.1.28.11.55.04.81-.07-.04-.13-.05-.2-.03-.04.02-.07.06-.06.11v.23a.12.12 0 0 1-.02.09.12.12 0 0 1-.1.04c-1.22.04-2.41-.1-3.63-.2-.56-.04-.32-.67-.89-.63-.05-.03-.1-.03-.15 0-.24-.02-.38.06-.43.23l-.2.19c-.82-.25-2.8-.57-3.18-1.5-.1-.24-.17-.23-.2.03-.1 1.07-.03 2.1.23 3.12a11.9 11.9 0 0 1-.54 1.58c-.26.64-.16 1.27-.07 1.92l.14 1.08a17.68 17.68 0 0 1-6.76-7.41c-2.43-5.35-2.38-10.62.15-15.81a17.86 17.86 0 0 1 20.64-9.1 17.64 17.64 0 0 1 11.36 9.7c3.53 7.75 1.11 17.15-5.95 21.96Z" fill="#EDD8D7"/><path d="m24.53 17.17.53.8c.02.04.02.07-.02.09l-1.53.98c-.02.02-.05.01-.06-.01l-.03-.04c-.01-.03 0-.05.02-.06.3-.18.78-.46.83-.83 0-.05-.01-.09-.05-.12a1.7 1.7 0 0 1-.62-1.54c.04-.41-.47-.94-.7-1.25-.21-.3-.43-.48-.64-.56a.95.95 0 0 0-1.07.2c-.36.34-.47.98-.68 1.48-.1.26-.16.5-.16.76 0 .45-.03 1 .05 1.44.13.75.09.85-.13.31-.12-.9-.3-4.3.65-4.77.58-.3 1.25.08 1.65.54.72.84 1.37 1.7 1.96 2.58Z" fill="#D59646"/><path d="m24.53 17.17.59.57c.2.2.4.34.63.4.3.07.6.1.91.1.65-.01 1.06.04 1.6.17l.71.1a7 7 0 0 1 .7.15c.47.12.95.23 1.42.33.38.08.85.17 1.24.16.92-.04 1.37-.81 2.1-1.23l1.27-.69a1 1 0 0 0 1.05-.3c.14-.15.19-.12.15.07a82.07 82.07 0 0 1-.02.25c0 .02.02.04.04.05l.47.28a.26.26 0 0 1 .13.22c0 .85-.07 1.68-.2 2.5-.1.55-.38 1.09-.55 1.65-.13.4-.66.4-1 .45l-.02.01a.06.06 0 0 0-.02.08l.01.04c.02.07.07.1.15.1.49 0 .86-.23 1.11-.7 0 .3-.02.59-.08.88-.04.23-.22.4-.23.7a.3.3 0 0 1-.04.14c-.43.75-.34 1.96-.4 2.81-.02.27.11.64-.09.97a.11.11 0 0 1-.11.06l-.24-.02a.3.3 0 0 1-.15-.18 3.15 3.15 0 0 0-.21-.54c-.08-.16-.2-.3-.37-.4a11.5 11.5 0 0 0-.54-.34c-.24-.14-.38-.31-.57-.5-.14-.2-.44-.42-.87-.66-.45-.25-.8-.39-1.07-.41a.4.4 0 0 1-.22-.14c.04-.01.06-.02.05-.04-.2-.3-.37-.65-.6-.87-.57-.52-1.24-.31-1.82.14a.25.25 0 0 1-.1.04l-.15.03c-.06.01-.08.05-.06.11.17.52.89.64 1.34.7-.24-.03-.45 0-.65.09a.15.15 0 0 0-.07.05c-.1.16-.23.3-.4.39a.17.17 0 0 1-.16 0c-.27-.13-.51-.3-.73-.5-.18-.16-.34-.25-.49-.27-.2-.02-.4.01-.6.1a.28.28 0 0 1-.15.03l-1.38-.15-1.03-.76c.4-.18.53-.45.38-.8.48-.1 1.22-.19 1.08-.9l-.08-.42a12.8 12.8 0 0 1-.03-1c0-.06-.02-.1-.08-.13l-.46-.24a.33.33 0 0 0-.41.08c-.15.2-.39.2-.56.34-.17.16-.34.34-.48.54-.1.12-.1.31-.26.44l-.61.5c-.32.25-.4.53-.58.89a.2.2 0 0 1-.12.1c-.55.15-.97.46-1.5.64l-.52.18c-.37.13-.59.34-.84.61a.12.12 0 0 1-.12.04l-.07-.02c-.04-.01-.05-.03-.05-.06.03-.8.16-1.42.39-1.85.2-.4.35-.57.33-1.04-.02-.83 0-1.66.05-2.47.22.54.26.44.13-.3-.08-.45-.05-1-.05-1.45 0-.25.06-.5.16-.76.21-.5.32-1.14.68-1.48.3-.29.66-.36 1.07-.2.21.08.43.26.64.56.23.31.74.84.7 1.25a1.7 1.7 0 0 0 .62 1.54c.04.03.05.07.05.12-.05.37-.54.65-.83.83-.03.01-.03.03-.02.06l.03.04c.02.02.04.03.06.01l1.53-.98c.04-.02.04-.05.02-.08l-.53-.81Z" fill="#E2C8A9"/><path d="M37 21.92c-.25.48-.62.72-1.11.72-.08 0-.13-.04-.15-.11l-.01-.04v-.03a.06.06 0 0 1 .05-.06c.33-.05.86-.05.99-.45.17-.56.46-1.1.55-1.65.13-.82.2-1.65.2-2.5a.27.27 0 0 0-.13-.22l-.46-.28a.12.12 0 0 1-.06-.12l.03-.18c.04-.2-.01-.22-.15-.07a1 1 0 0 1-1.05.3c.66-.56 1.42-.96 2.2-.35.31.23.2 1.18.14 1.52A11.02 11.02 0 0 1 37 21.92Z" fill="#D59646"/><path d="M21.7 17.89c.13.13.27.2.31.16.05-.04-.02-.19-.16-.32-.13-.13-.27-.2-.31-.16-.05.04.02.19.16.32ZM23.05 17.76c.1.05.21.05.23 0 .03-.05-.04-.12-.15-.17-.1-.05-.21-.05-.23 0-.02.04.04.12.15.17Z" fill="#B4A3B2"/><path d="m23.15 18.25-.82-.52a.04.04 0 0 0-.06.01l-.05.07c-.01.02 0 .05.02.06l.82.52c.02.02.05.01.06 0l.05-.08a.04.04 0 0 0-.02-.06Z" fill="#574641"/><path d="M32.87 20.24c.29.43.57.74.63.7.07-.05-.1-.43-.4-.86-.28-.43-.56-.74-.63-.7-.06.05.12.43.4.86Z" fill="#D59646"/><path d="M21 19.91c.22.13.42.19.45.14.02-.05-.13-.19-.35-.3-.22-.13-.42-.2-.45-.14-.02.04.13.18.35.3Z" fill="#0A0B09"/><path d="M35.91 20.4c.11-.07.16-.18.12-.24-.04-.05-.16-.02-.26.06s-.16.19-.12.24c.04.05.16.03.26-.05Z" fill="#D59646"/><path d="m34.3 20.48-.25.08c-.05.02-.08 0-.1-.05 0-.03.01-.06.04-.09.15-.16.31-.18.49-.06.05.03.05.07 0 .1a.2.2 0 0 1-.12.01l-.07.01ZM36.15 21c.09-.07.13-.17.1-.2-.04-.04-.14-.01-.23.07-.08.08-.13.18-.1.21.04.04.14 0 .23-.07Z" fill="#B4A3B2"/><path d="M34.75 21.14c-.28.13-.36.27-.24.42.12.17.08.25-.12.24-.22 0-.28-.12-.2-.35a.79.79 0 0 1 .5-.5c.04-.02.07 0 .09.04l.01.05c.02.04 0 .08-.04.1Z" fill="#574641"/><path d="M35.4 21.77c.17-.12.29-.24.26-.28-.02-.03-.18.04-.35.16-.17.12-.3.24-.27.28.03.03.19-.03.36-.16Z" fill="#B4A3B2"/><path d="M25.19 22.6c.15.34.03.6-.38.79-.84 0-1.39-.21-1.65-.64-.08-.15-.06-.27.06-.38.75-.63 1.4-.56 1.97.22Z" fill="#0A0B09"/><path d="M24.75 22.74c0 .03-.03.05-.1.06-.2-.03-.32-.15-.36-.36-.01-.07.02-.1.08-.1.2.02.33.15.38.4ZM23.77 22.84c.1.07.2.08.25.02.04-.06.01-.17-.08-.23-.08-.07-.2-.08-.24-.02-.05.06-.01.17.07.23Z" fill="#EDD8D7"/><path d="M24.75 22.74c.01.08.05.13.1.16.04.02.05.05.03.09a.13.13 0 0 1-.06.05.16.16 0 0 1-.12.01.22.22 0 0 1-.09-.04v-.05a.26.26 0 0 0 .05-.04.1.1 0 0 0 .03-.06c0-.05-.02-.07-.04-.06.07-.01.1-.03.1-.06Z" fill="#B4A3B2"/><path d="m31.81 24.3-.19-.07a.16.16 0 0 0-.14.02c-.27.18-.61.24-1.01.16-.45-.06-1.17-.18-1.34-.7-.02-.06 0-.1.07-.11l.14-.03c.04 0 .07-.02.1-.04.58-.45 1.25-.66 1.82-.14.24.22.4.58.6.87.01.02 0 .03-.05.04Z" fill="#0A0B09"/><path d="m25.84 24.15 1.38.15c.05 0 .1 0 .15-.03.2-.09.4-.12.6-.1.15.02.31.1.5.27.2.2.45.37.72.5.02.02.05.02.08.02s.06 0 .08-.02c.17-.1.3-.23.4-.39a.15.15 0 0 1 .07-.05c.2-.09.41-.12.65-.1.4.09.73.03 1.01-.15a.16.16 0 0 1 .14-.02l.19.07a.4.4 0 0 0 .22.14c.18.1.37.18.57.2l.04.02.46.26V25c-.01.02 0 .04.01.06l.5.43c.04.03.06.02.06-.03-.01-.07-.05-.11-.14-.14a.03.03 0 0 1-.02-.02v-.01c0-.03 0-.04.03-.02l.43.24c.2.2.33.37.57.51l.54.33c.16.12.29.25.37.41.09.17.15.35.2.54a.3.3 0 0 0 .16.18l-.04.2a.2.2 0 0 0 .02.14c.15.22.17.45.08.7-.11.28-.17.55-.28.83a.6.6 0 0 0 0 .38c-.13.49-.31.95-.55 1.4-.06.1-.19.25-.4.47a.25.25 0 0 0-.07.13c-.1.68-.27 1.34-.49 1.98-.02.08-.03.21-.08.3a.41.41 0 0 0-.05.13c-.07.3-.22.66-.45 1.08-.24.44-.28 1-.1 1.7-1.66.4-3.49.45-5.17.48-.12.01-.2-.02-.22-.1.07-.1.1-.22.09-.36a1.3 1.3 0 0 0-.04-.8.2.2 0 0 1 0-.16c.15-.36.07-.72.24-1.05.12-.23.2-.39.21-.47l.24-1c.13-.58.6-.83.84-1.32.11-.2.2-.37.29-.47l.35-.44c.03-.04.03-.1.01-.14l-.18-.41H30c.33-.15.56-.33.68-.53.38-.6.8-1.01.99-1.66a.21.21 0 0 0-.01-.15 1 1 0 0 0-.68-.6l-.37.26c-.2.05-.45.19-.73.43-.36.31-.82.44-1.38.37a.4.4 0 0 1-.25-.05c-.24-.35-.6-.4-.83-.71a.78.78 0 0 1 .33-.33.08.08 0 0 0 .04-.06.08.08 0 0 0-.03-.06.28.28 0 0 0-.26-.05.07.07 0 0 1-.07-.02.06.06 0 0 1-.01-.06l.04-.14c.01-.04.05-.07.1-.07h.16c.26 0 .29-.08.08-.23-.06-.05-.09-.14-.08-.26 0-.05.04-.13.1-.24.08-.17.1-.35.04-.55-.09-.44-.27-.77-.53-.98-.15-.18-.4-.31-.74-.38a2.93 2.93 0 0 0-1.28-.15c-1.31.25-1.6 1.52-.78 2.47a.2.2 0 0 0 .12.07c.51.1 1 .56.66 1.09a.14.14 0 0 1-.11.07l-.36.05c-.35-.03-.33-.16.04-.4.03-.02.03-.04 0-.05l-.2-.07a.06.06 0 0 0-.05.01.46.46 0 0 0-.26.37c-.01.04-.04.07-.08.07h-.06a.1.1 0 0 0-.06-.01.14.14 0 0 0-.1.04l-.28.25c-.05.05-.1.05-.14 0-.13-.14-.14-.47.1-.52.07 0 .14 0 .2-.06a.08.08 0 0 0 0-.1.08.08 0 0 0-.02-.03c-.12-.05-.2-.02-.27.1-.1.23-.27.34-.52.3a.16.16 0 0 1-.13-.07l-.58-.94c.01-.06 0-.1-.02-.1.04-.16.02-.28-.05-.34s-.15-.06-.22 0c-.25.21-.32.34-.22.68.31 1.06.62 2.15.91 3.26-.18.23-.5.45-.45.8.07.42.13.8.31 1.2.25.68.19 1.4-.17 2.16a.96.96 0 0 1-.43.41c-.2.11-.34.1-.45-.04-.35-.5-.89-.8-1-1.44-.09-.44-.16-.89-.32-1.3-.09-.24-.08-.52-.17-.77-.1-.25-.08-.49-.16-.74-.1-.28-.07-.43-.07-.7a.27.27 0 0 0-.04-.13 1 1 0 0 1-.13-.62c.01-.05 0-.1-.02-.15-.2-.47-.17-.97-.2-1.38-.1-.85-.22-2.1.34-2.84.22-.3.36-.64.6-.9.49-.51 1-.88 1.55-1.08a.4.4 0 0 1 .39.06c.4.27-.02.94.4 1.08.05.02.1.04.13.08.48.4.97.4 1.49 0 .1-.09.35-.18.73-.28h.16l.53.14Z" fill="#E8E6E8"/><path d="M30.32 24a.8.8 0 0 0 0 .07c0 .1-.04.12-.13.1-.22-.05-.4-.16-.56-.33a.11.11 0 0 1 .05-.18l.15-.05c.1-.03.15 0 .17.1 0 .07.03.11.07.13.05.03.08.02.07-.04l-.02-.22a.12.12 0 0 1 .02-.08.11.11 0 0 1 .08-.04c.43-.02.76.15 1 .5a.1.1 0 0 1 0 .1.1.1 0 0 1-.06.05l-.12.03a.13.13 0 0 1-.15-.08c-.1-.23-.28-.38-.5-.17a.18.18 0 0 0-.07.11Z" fill="#B4A3B2"/><path d="M32.03 24.44c.26.02.62.16 1.07.4.43.25.73.47.87.66l-.43-.24c-.03-.02-.04-.01-.03.02v.01l.02.02c.09.03.13.07.14.14 0 .05-.02.06-.05.03l-.5-.43a.06.06 0 0 1-.03-.06l.01-.06-.46-.27a.12.12 0 0 0-.04-.01c-.2-.03-.4-.1-.57-.21Z" fill="#EDD8D7"/><path d="M26.59 24.6c.12.1.03.26-.27.48a3.93 3.93 0 0 0-1.13-.2c-.2 0-.22.06-.08.2l.55.56a.16.16 0 0 0 .2.01c.22-.17.47-.3.74-.37.18.08.36.1.56.07.06-.01.1.01.1.07.02.13-.01.28.06.37.05.07.13.1.24.06a.08.08 0 0 0 .06-.04.09.09 0 0 0 0-.07l-.3-.76c.26.21.44.54.53.98-.1.15-.31.29-.64.4a.08.08 0 0 0-.05.07.08.08 0 0 0 .03.07l.16.12a.08.08 0 0 1 .03.05.08.08 0 0 1-.02.06c-.22.29-.5.48-.83.58-.45.13-.67.26-.77.7a.15.15 0 0 0 .05.13c.34.3 1.13.39 1.58.5.05 0 .09.04.1.09l.1.25a.17.17 0 0 0-.02.07c0 .04-.03.06-.07.04a.36.36 0 0 1-.18-.13.15.15 0 0 0-.14-.07c-.17 0-.34-.02-.5-.08a.14.14 0 0 0-.15.03c-.16.16-.35.19-.57.07a.27.27 0 0 0-.16-.02l-.19.03c-.06.01-.1-.02-.12-.08l-.06-.2c-.02-.06-.05-.09-.11-.1l-.87-.06a.1.1 0 0 1-.09-.09v-.04l.03-.06a.12.12 0 0 1 .14-.07c.1.02.2.02.3-.02l.36-.05c.05 0 .08-.03.1-.07.35-.53-.14-1-.65-1.09a.2.2 0 0 1-.12-.07c-.82-.95-.53-2.22.78-2.47.3-.06.73-.01 1.29.15Z" fill="#0A0B09"/><path d="M26.58 24.6c.34.07.59.2.74.38l.3.75a.09.09 0 0 1-.02.1l-.04.02c-.1.03-.19.01-.24-.06-.07-.09-.04-.24-.06-.37 0-.06-.04-.08-.1-.07a.93.93 0 0 1-.56-.07c.09-.1 0-.17-.28-.2.3-.22.4-.38.26-.48Z" fill="#574641"/><path d="M26.32 25.08c.27.03.37.1.28.2-.27.08-.52.2-.73.37a.16.16 0 0 1-.21-.01l-.56-.56c-.13-.14-.1-.2.09-.2.39 0 .77.08 1.13.2ZM27.85 25.96c.06.2.04.38-.05.55a.78.78 0 0 0-.08.24c-.02.12.01.2.07.26.2.15.18.23-.08.23h-.17c-.04 0-.08.03-.09.07l-.04.14a.06.06 0 0 0 .01.06.07.07 0 0 0 .07.02c.1-.03.18-.01.26.05l.02.03a.08.08 0 0 1-.03.1c-.16.09-.27.2-.32.31-.02.02-.04 0-.07-.06-.02-.05-.05-.05-.08-.01-.06.07-.15.08-.25.03a.15.15 0 0 1-.1-.15v-.18c0-.08-.03-.11-.11-.08a.45.45 0 0 0-.15.1.2.2 0 0 1-.15.05h-.15c-.05 0-.08.03-.08.08v.08c.01.04.03.08.07.1.3.13.6.21.92.24.04 0 .09.03.12.06.16.17.43.2.51.37.06.13.03.27-.08.43a.09.09 0 0 1-.16-.03c-.01-.03-.03-.06-.07-.07l-.1-.25a.14.14 0 0 0-.1-.1c-.45-.1-1.24-.18-1.58-.49a.15.15 0 0 1-.04-.14c.09-.43.31-.56.76-.69a1.59 1.59 0 0 0 .85-.6.08.08 0 0 0-.01-.07l-.02-.02-.16-.12a.08.08 0 0 1 .02-.14c.33-.11.54-.25.64-.4Z" fill="#B4A3B2"/><path d="M22.4 27a.51.51 0 0 0-.27.34c0 .02 0 .04.03.04l.06.02h.01a.04.04 0 0 0 .03-.02v-.01a.42.42 0 0 1 .16-.28l.58.94c.03.04.07.07.13.08.25.03.43-.08.52-.32-.02.07.01.1.08.1-.23.05-.22.38-.09.52.05.05.1.05.14 0l.27-.25a.14.14 0 0 1 .11-.04.1.1 0 0 1 .06.02l.02.13c.01.05 0 .09-.04.12l-.37.27a2.4 2.4 0 0 0-.13 1.9h-.02l-.86.03c-.3-1.11-.6-2.2-.91-3.26-.1-.34-.03-.47.22-.68.07-.06.15-.06.22 0s.09.18.05.35Z" fill="#0A0B09"/><path d="M22.4 27c.03 0 .03.03.02.09a.42.42 0 0 0-.16.28.04.04 0 0 1-.01.02h-.09c-.03-.01-.04-.03-.03-.05a.51.51 0 0 1 .27-.34Z" fill="#B4A3B2"/><path d="M24.14 27.26a.08.08 0 0 1 .03-.1.09.09 0 0 1 .1 0c.11.09.2.19.3.3a.07.07 0 0 1-.07.1.42.42 0 0 1-.36-.3ZM27.42 28.02c.23.32.58.37.82.72-.05.2-.14.37-.3.54a.68.68 0 0 1-.4-.03.28.28 0 0 0-.14-.02l-.57.05c-.56-.04-.63.14-.97.5-.04.03-.06.03-.06-.03 0-.2.04-.4.14-.6a.1.1 0 0 0 .01-.06.1.1 0 0 0-.04-.06.16.16 0 0 0-.17 0 .44.44 0 0 0-.11.08c-.07.07-.15.09-.24.06a.22.22 0 0 1-.12-.09.12.12 0 0 0-.09-.05 8.97 8.97 0 0 0-1.08-.04c-.05 0-.07-.02-.07-.07 0-.04.01-.07.03-.1.03-.05.02-.1-.01-.13-.04-.04-.12-.05-.22-.03l.37-.27a.11.11 0 0 0 .04-.12l-.02-.13h.06c.04-.01.07-.04.08-.08a.46.46 0 0 1 .26-.37.07.07 0 0 1 .06 0l.18.06c.04.01.04.03 0 .05-.36.24-.38.37-.03.4-.1.04-.2.04-.3.02h-.08a.12.12 0 0 0-.06.07l-.02.06a.1.1 0 0 0 .03.11.1.1 0 0 0 .05.02l.87.07c.06 0 .1.03.11.1l.06.19c.01.06.06.1.12.08l.19-.03c.05-.01.1 0 .16.02.22.12.4.1.57-.07a.14.14 0 0 1 .15-.03c.16.06.33.09.5.08.06 0 .1.02.14.07.05.06.1.1.18.13.04.02.07 0 .07-.04l.02-.07c.04.01.06.04.07.07a.09.09 0 0 0 .07.07.09.09 0 0 0 .09-.04c.11-.16.14-.3.08-.43-.08-.17-.35-.2-.5-.37a.2.2 0 0 0-.13-.06 2.73 2.73 0 0 1-.92-.25.1.1 0 0 1-.06-.09v-.08c0-.05.02-.08.07-.08h.15a.2.2 0 0 0 .15-.06l.15-.09c.08-.03.12 0 .12.08v.18c0 .07.03.12.09.15.1.05.19.04.25-.03.03-.04.06-.04.08 0 .03.06.05.09.07.07ZM23.73 27.88c-.07.01-.1-.02-.08-.09.06-.1.15-.14.27-.09a.07.07 0 0 1 .04.06v.04l-.02.03a.24.24 0 0 1-.2.05Z" fill="#574641"/><path d="M30.97 27.74c.33.1.55.3.68.59a.2.2 0 0 1 0 .15c-.19.65-.6 1.06-.98 1.66-.12.2-.35.38-.68.52.08-.14.26-.38.52-.72.06-.08.06-.16 0-.26-.03-.04-.07-.05-.12-.04-.13.04-.19.13-.17.27a.14.14 0 0 1-.05.12c-.42.37-.7.82-1.13 1.19-.12.1-.27.18-.47.25-.3.09-.53.23-.72.43-.12-.02-.2-.08-.26-.2a.15.15 0 0 1 .01-.15c.07-.1.17-.16.3-.17.36-.26.62-.53.79-.81.16-.28.14-.68.26-1a9.26 9.26 0 0 1 .14-.4.16.16 0 0 0-.08-.12.16.16 0 0 0-.08-.02c-.06 0-.11.04-.15.1-.14.27-.3.43-.34.74 0 .05-.03.1-.06.13-.22.26-.7.92-.62 1.24-.1.07-.16.05-.2-.06a.2.2 0 0 1 .01-.17l.51-.98c.24-.38.37-.8.41-1.24.56.07 1.02-.06 1.38-.37.28-.24.52-.38.73-.43.1.03.17.07.22.12.15.2.26.4.31.61 0 .02.01.03.03.04.01.01.03.02.04.01h.04c.1-.01.15-.07.14-.17a.78.78 0 0 0-.41-.62.44.44 0 0 1 0-.24Z" fill="#0A0B09"/><path d="M22.47 28.2c.08.21.19.36.23.35.05-.02.02-.2-.06-.41-.08-.2-.19-.36-.24-.34-.04.02-.01.2.07.4ZM30.97 27.98c.25.16.38.36.4.62.02.1-.03.16-.13.17h-.08a.07.07 0 0 1-.03-.05 1.64 1.64 0 0 0-.3-.6c.02-.08.07-.12.14-.14ZM23.13 29.12l-.04.09-.02.01a.03.03 0 0 1-.04 0v-.03l-.01-.58a.04.04 0 0 1 .05-.05h.04c.03 0 .05.02.07.04a.1.1 0 0 1 .03.06c.02.15-.04.3-.08.46Z" fill="#B4A3B2"/><path d="M23.83 28.66c.1-.02.18 0 .22.03.03.04.04.08.01.12a.23.23 0 0 0-.03.11c0 .05.02.07.07.07.46 0 .82 0 1.08.04.04 0 .07.02.09.05.03.05.07.08.12.1.1.02.17 0 .24-.07a.43.43 0 0 1 .11-.08.16.16 0 0 1 .17 0 .1.1 0 0 1 .04.06.1.1 0 0 1 0 .06c-.1.2-.15.4-.15.6 0 .06.02.06.06.03.34-.36.41-.54.97-.5.15.02.25.05.3.1l.52.12c.04.01.04.03.02.05l-.04.04a.06.06 0 0 1-.04.02h-.06c-.05 0-.05 0 0 .03.1.05.22.07.34.05.06 0 .1.01.13.06.06.08.08.18.08.28l-.5.98a.21.21 0 0 0-.02.17c.04.1.1.13.2.06l.15.14a.35.35 0 0 0-.3.17.15.15 0 0 0-.02.14c.06.13.14.2.25.2.12.15.12.27-.02.38-.27.22-.62.44-1.06.65a2 2 0 0 0-.87.18.13.13 0 0 1-.16-.02c-.18-.17-.36-.18-.54-.02a.18.18 0 0 1-.14.04c-.28-.03-.54-.1-.79-.2-.19-.08-.53-.04-1.04.11l-.54-.42c-.18-.4-.24-.78-.3-1.2-.07-.35.26-.57.44-.8l.86-.03a.02.02 0 0 0 .02-.02v-.01a2.4 2.4 0 0 1 .13-1.87Z" fill="#E0A2BF"/><path d="M28.24 28.74a.4.4 0 0 0 .25.05c-.04.44-.17.86-.4 1.24 0-.1-.03-.2-.09-.28a.13.13 0 0 0-.13-.06.62.62 0 0 1-.34-.05c-.05-.02-.05-.03 0-.03h.06l.04-.02.04-.04c.02-.02.02-.04-.02-.05l-.52-.11c.44.11.7.07.82-.11.15-.17.24-.35.3-.54Z" fill="#D59646"/><path d="M30.48 29.01h-.05a.02.02 0 0 1-.01-.03c.01-.04.05-.06.1-.04.13.04.27.08.41.1.07.02.08.06.06.11a.8.8 0 0 1-.3.35.1.1 0 0 1-.13-.03.1.1 0 0 1-.02-.04v-.36l-.02-.04a.05.05 0 0 0-.04-.02Z" fill="#B4A3B2"/><path d="M36.07 36.13c-.86.41-1.76.67-2.68.78-.17-.7-.13-1.26.11-1.7.23-.42.38-.77.45-1.08A.4.4 0 0 1 34 34c.05-.09.06-.22.08-.3.22-.64.38-1.3.5-1.98 0-.05.02-.1.06-.13.21-.22.34-.37.4-.47.24-.45.42-.91.55-1.4l.18-.7c.02-.06.06-.08.11-.06.12.04.2.13.22.28.06.38.09.77.07 1.16v1.03c.04.47.03.9.14 1.37.17.7.32 1.41.46 2.13 0 .05-.01.08-.06.09h-.05a.13.13 0 0 1-.15-.09c-.05-.2-.18-.29-.38-.27-.06 0-.11.04-.14.1a.58.58 0 0 1-.35.25.12.12 0 0 0-.09.1l-.14.99c0 .02 0 .03.02.05l.03.03c.02.02.05.03.08 0 .17-.1.34-.11.53-.05ZM27.9 31.38l-.14-.14c-.08-.32.4-.98.62-1.24a.27.27 0 0 0 .06-.13c.04-.31.2-.47.34-.73.04-.07.09-.1.15-.11a.15.15 0 0 1 .16.14v.08l-.14.32c-.12.32-.1.72-.26 1-.17.28-.43.55-.78.81Z" fill="#E2C8A9"/><path d="m30.3 29.15-.28.72c0 .01 0 .02-.02.02l-.2.13a.05.05 0 0 1-.07-.06l.17-.5.01-.03.31-.33a.05.05 0 0 1 .07-.01l.02.03v.03Z" fill="#574641"/><path d="M27.95 29.28c-.11.18-.39.22-.82.1-.05-.05-.15-.08-.3-.1l.57-.05c.05-.01.1 0 .15.02.1.05.24.06.4.03Z" fill="#B4A3B2"/><path d="m30 30.66.06.01-.6.36a.23.23 0 0 0-.1.11c-.4.96-1.47 1.2-2.18 1.86l-.14.3c0-.24-.08-.35-.26-.34a.83.83 0 0 1-.02-.04c.44-.21.8-.43 1.06-.65.14-.1.14-.23.02-.37.2-.2.44-.34.73-.43.2-.07.35-.15.47-.25.43-.37.7-.82 1.13-1.19a.14.14 0 0 0 .05-.12c-.02-.14.04-.23.17-.27.05-.01.09 0 .12.04.06.1.06.18 0 .26a7.1 7.1 0 0 0-.52.72Z" fill="#574641"/><path d="m26.76 32.92.02.04c-.36.09-.23.6-.24.87l-.08.06c-.09.02-.12-.1-.11-.37-.05.06-.07.05-.06-.04l-.02-.02h-.07a.09.09 0 0 0-.08.05l-.27.48a.1.1 0 0 1-.09.05l-.93.02c-.7-.1-1.24-.45-1.61-1.05.5-.15.85-.19 1.04-.1.25.1.5.16.79.2.05 0 .1-.02.14-.05.18-.16.36-.15.54.02.05.04.1.04.16.02a2 2 0 0 1 .87-.18Z" fill="#0A0B09"/><path d="M26.78 32.96c.18-.01.26.1.26.34l-.3.41c-.02.08-.08.12-.2.12 0-.27-.12-.78.24-.87Z" fill="#B4A3B2"/><path d="M27.18 33c.21.3.07.54-.44.71l.3-.4.14-.3Z" fill="#0A0B09"/><path d="M24.79 33.45c0-.08.03-.12.09-.13.35-.01.4.1.13.33-.03.02-.09-.02-.18-.1a.12.12 0 0 1-.04-.1ZM26.35 33.52c-.13.27-.15.43-.07.47-.44.12-.93.14-1.45.07l.94-.02a.1.1 0 0 0 .08-.05l.27-.48a.09.09 0 0 1 .08-.05h.07c.01 0 .02 0 .02.02 0 .09.01.1.06.04Z" fill="#B4A3B2"/><path d="M26.35 33.52c-.01.26.02.39.1.37l-.17.1c-.08-.04-.06-.2.07-.47Z" fill="#574641"/><path d="M22.42 36.96c.06.13.06.24 0 .3-.04.05-.09.06-.14.03-1-.61-1.13 1.02-1.1 1.58 0 .05.02.1.05.13.22.21.48.3.78.28.05 0 .07.01.07.06 0 .35-.12.7.26.89.41.2.92-.06.96-.54.06-.76.23-1.5.36-2.25.07-.44-.08-.72-.46-.9.57-.04.33.59.89.63 1.22.1 2.41.24 3.64.2a.12.12 0 0 0 .12-.13l-.02-.23c0-.05.03-.1.08-.11.06-.02.12-.01.18.03.01.14-.01.26-.08.36l-.13.26a.12.12 0 0 1-.12.06l-3.8-.2a.27.27 0 0 0-.28.23l-.26 1.75a.23.23 0 0 0 .21.27c.45.04.9.08 1.37.14.99.12 1.85.13 2.8.12a.16.16 0 0 1 .16.13c0 .04 0 .07-.04.1l-.65.12c-.1-.01-.15-.04-.18-.08l-3.54-.21c-.06 0-.1.01-.15.05-.15.16-.25.35-.43.44-.67.34-.85-.21-1.07-.68a.2.2 0 0 0-.12-.1c-.67-.25-1.37-.49-2-.83a5.1 5.1 0 0 0-.51-.25 8.97 8.97 0 0 1-.22-3.12c.02-.26.09-.27.19-.03.38.93 2.36 1.25 3.18 1.5Z" fill="#0A0B09"/><path d="m36.67 38.52-.55.4c-1.89.86-4.1 1.14-6.16 1.2-.36.01-.67.03-.93.06-.21.02-.22.06 0 .12.92.26 2.1 1 1.91 2.13-.2 1.19-1.7 1.82-2.8 1.85a3.85 3.85 0 0 1-2.25-.63c-1.03-.67-1.24-2-.16-2.76.36-.24.8-.48 1.36-.7.03.04.09.07.18.08-.62.3-1.26.42-1.77 1-.71.8-.3 1.75.54 2.23 1.1.64 2.25.71 3.48.22 1.52-.6 1.87-2.23.2-3.03a6.24 6.24 0 0 0-1.46-.47c-.09-.17-.01-.27.23-.3.15-.02.45-.02.9 0 .97.02 1.98-.15 2.95-.27.74-.09 4.33-.69 4.35-1.61a45.55 45.55 0 0 0-.03-2 .09.09 0 0 0-.06-.02l-.06.01c-.47.32-.94.57-1.51.73a26 26 0 0 1-6.7.83.15.15 0 0 1-.15-.1c0-.02.01-.05.05-.1 1.68-.03 3.51-.08 5.16-.48a8.62 8.62 0 0 0 2.68-.78l.64-.52c.15-.12.23-.08.23.11v2.34c0 .13-.1.28-.27.46Z" fill="#0A0B09"/><path d="M19.41 36.04a8.52 8.52 0 0 0 2.1.9.08.08 0 0 1 .01.1l-.03.03c-.52.35-.56 1.33-.52 1.88a.12.12 0 0 1-.15.12c-.54-.18-1.54-.55-1.54-1.24a88.25 88.25 0 0 1 .03-1.77l.03-.03a.07.07 0 0 1 .07 0ZM28.26 40.22c0 .08-.12.06-.33-.06.02-.04.04-.07.03-.1a.16.16 0 0 0-.16-.14c-.95.01-1.81 0-2.8-.12a32.12 32.12 0 0 0-1.46-.17.23.23 0 0 1-.12-.24l.26-1.75a.27.27 0 0 1 .28-.23l3.8.2a.12.12 0 0 0 .12-.06l.13-.26c.03.08.1.11.22.1-.04.05-.05.08-.05.1a.15.15 0 0 0 .15.1 26 26 0 0 0 6.7-.83 5.37 5.37 0 0 0 1.58-.74c.02 0 .04.01.05.03l.02.08c.02.64.02 1.27 0 1.9-.01.93-3.6 1.53-4.34 1.62-.97.12-1.97.29-2.95.26l-.9.01c-.24.03-.32.13-.23.3Z" fill="#F582B4"/><path d="m23.05 36.54-.43.23c.05-.17.2-.25.43-.23Z" fill="#D59646"/><path d="M23.05 36.54c.05-.03.1-.03.15 0 .38.18.53.46.46.9-.13.75-.3 1.5-.36 2.25a.66.66 0 0 1-.96.54c-.38-.2-.27-.54-.26-.9 0-.04-.02-.05-.07-.05a.92.92 0 0 1-.78-.28.2.2 0 0 1-.05-.13c-.03-.56.1-2.2 1.1-1.58.05.03.1.02.13-.02.07-.07.07-.18.01-.31l.2-.19.43-.23Z" fill="#F582B4"/><path d="M34.74 37.44c-.24.06-.3.23-.2.49-.16-.03-.2-.13-.14-.31a.44.44 0 0 1 .1-.18c.12-.13.2-.13.24 0Z" fill="#D59646"/><path d="M35.73 37.49c.08.18.07.4-.04.64-.37.5-.75.43-1.14-.2-.12-.26-.05-.43.19-.5l.77-.03c.05 0 .1.01.14.04l.08.05Z" fill="#E2C8A9"/><path d="M35.7 38.13c.1-.24.11-.46.03-.64.05-.05.1 0 .13.11.05.2 0 .37-.17.53ZM22.11 39.1v.02a.81.81 0 0 1-.05 0l.24-1.51c0-.02.02-.02.06 0h.01c.01 0 .02.01.01.02-.05.5-.14.99-.27 1.47ZM28.12 37.84a.1.1 0 0 0-.11.1v1.67c0 .05.05.1.1.1h.02a.1.1 0 0 0 .1-.1v-1.66a.1.1 0 0 0-.1-.1Z" fill="#0A0B09"/><path d="M32.67 39.18c1.1-.74.36-1.38-.65-1.05a.14.14 0 0 0-.1.1c-.05.22 0 .43.14.63-.23-.1-.3-.33-.2-.68a.25.25 0 0 1 .2-.18c.37-.05 1.17-.14 1.25.33.07.39-.3.73-.64.85Z" fill="#574641"/><path d="M32.67 39.18a.94.94 0 0 1-.6-.32.73.73 0 0 1-.15-.63.14.14 0 0 1 .1-.1c1-.33 1.75.3.65 1.05Z" fill="#E8E6E8"/><path d="M30.21 38.4c-.3-.1-.63-.13-1.02-.07a.32.32 0 0 0-.27.35c.04.39.5.77.88.64-.37.23-.7.05-1-.52-.1-.23-.05-.4.16-.5.2-.12.42-.05.65-.03.05 0 .1 0 .15-.02.23-.1.38-.05.45.15Z" fill="#574641"/><path d="M30.21 38.4c.07.35-.07.66-.41.92-.38.13-.84-.25-.88-.64a.32.32 0 0 1 .27-.35c.39-.06.73-.04 1.02.07Z" fill="#E8E6E8"/><path d="M36.67 38.52a15.8 15.8 0 0 1 1.57 4.01 8.5 8.5 0 0 1-2 1.17c.02-.21-.17-.3-.58-.23-.31.04-.36-.05-.16-.3.3-.36.33-.7.5-1.14.2-.57.26-1.12.36-1.7a.14.14 0 0 0-.04-.12l-.36-.4a.25.25 0 0 1 .05-.37c.1-.07.18-.17.26-.33.04-.1-.01-.16-.15-.2l.55-.39Z" fill="#E2C8A9"/><path d="M19.27 38.61c.2.09.37.17.5.25.64.34 1.34.58 2.01.83.05.02.1.06.12.1.22.47.4 1.02 1.07.68.18-.1.28-.28.43-.44a.18.18 0 0 1 .15-.05l3.54.2c-.55.23-1 .47-1.36.71-1.08.76-.87 2.09.16 2.76.68.44 1.44.65 2.26.63 1.08-.03 2.6-.66 2.8-1.85.18-1.13-1-1.88-1.93-2.13-.2-.06-.2-.1.01-.12.26-.03.57-.05.93-.06 2.06-.06 4.27-.34 6.16-1.2.14.03.19.1.14.2a.74.74 0 0 1-.26.32.25.25 0 0 0-.1.28l.05.1.37.39a.15.15 0 0 1 .04.12c-.1.58-.16 1.13-.37 1.7-.16.43-.18.78-.5 1.15-.2.24-.14.33.17.29.41-.06.6.02.58.23-1.61.86-3.5 1.6-5.3 1.8-1.1.13-2.15.23-3.24.24-3.08.03-6.24-1-8.9-2.55l-.14-1.08c-.09-.65-.2-1.28.07-1.92.22-.53.4-1.06.54-1.58Z" fill="#E8E6E8"/><path d="M27.93 40.16c.21.12.33.14.33.06.53.1 1.01.26 1.46.47 1.67.8 1.32 2.42-.2 3.03a3.8 3.8 0 0 1-3.48-.22c-.83-.48-1.25-1.42-.54-2.23.51-.58 1.15-.7 1.77-1l.66-.11Z" fill="#E8E6E8"/><path d="m28.11 40.74-.04.04a.1.1 0 0 1-.1.02c-.13-.04-.24 0-.33.12-.03.03-.05.03-.06-.01l-.04-.1a.08.08 0 0 1 .03-.1l.5-.36c.05-.04.08-.03.09.03.02.13.07.25.15.36a.16.16 0 0 1 .02.15.3.3 0 0 1-.26.2.05.05 0 0 1-.05-.05v-.02l.16-.16a.08.08 0 0 0 0-.1.06.06 0 0 0-.03-.02h-.04ZM28.23 41.74c.13 0 .26-.05.38-.03.74.1.9 1 .3 1.44a3 3 0 0 1-1.48.53c-.17.02-.28-.01-.34-.1a3.5 3.5 0 0 1-.57-1.16c-.19-.7.22-1.5 1.06-1.24a.2.2 0 0 1 .12.1c.11.18.29.46.53.46Z" fill="#0A0B09"/><path d="M27.04 41.4c.4-.26.78.14.95.46a.13.13 0 0 0 .13.07c.17-.02.31-.09.47-.05.46.12.68.57.39.98-.23.33-1.53 1.05-1.87.51-.36-.57-.84-1.46-.07-1.97Z" fill="#E8E6E8"/></svg>