<svg width="56" height="56" viewBox="0 0 56 56" xmlns="http://www.w3.org/2000/svg"><path d="M37.36 17.99c-.22-.09-.2-.33-.52-.38-.02 0-.03-.02-.03-.04s.01-.04.02-.03l1.08.16h.02a.04.04 0 0 0 .03-.05l-.01-.02a2.46 2.46 0 0 0-1.48-1.15.17.17 0 0 1-.12-.13c-.15-.55-.16-.97-.55-1.47-.7-.89-1.63-.13-2.3.33a.33.33 0 0 1-.33.02l-1-.51c-.13-.07-.15-.04-.07.08.13.2.3.38.49.54l.05.07.06.22c.03.1 0 .11-.07.04-1.1-1.13-2.67-.88-4.05-.87-.3 0-.76-.16-1.36-.47-.11-.05-.14-.02-.1.1l.04.13c.04.1.1.18.2.24a.4.4 0 0 1 .2.3c0 .05-.02.07-.07.07-1.23.01-1.55-.55-1.37-1.73.02-.12-.02-.15-.11-.07-.78.64-.9 1.3-1.18 2.2a.04.04 0 0 1-.04.03.04.04 0 0 1-.03-.02c-.22-.4-.45-.54-.42-1.06.01-.25-.07-.3-.25-.12a5.95 5.95 0 0 1-.37.83c-.04.07-.1.08-.16.02l-.2-.18a.16.16 0 0 1-.05-.13l.03-.39a.05.05 0 0 0-.03-.05h-.03a1 1 0 0 1-.05 0 .05.05 0 0 0-.06.04l-.06.18a.12.12 0 0 1-.06.06.12.12 0 0 1-.1 0c-.5-.16-.96-.56-1.49-.18-.87.62-1.1 2.65-1.19 3.66-.02.29-.13.54-.3.76a2.3 2.3 0 0 1-2.21.86c-.05-.01-.06 0-.02.04.6.57 1.1.89 1.92.75.07 0 .08.01.03.06-.32.34-.7.54-1.16.6-.16.01-.32-.06-.5-.08-.12 0-.13.02-.03.09l1.12.72c.04.03.05.06.03.1-.26.47-.33.96-.22 1.48.01.05 0 .1-.02.15-.36.8-1.01.75-1.68.97l-.02.01a.06.06 0 0 0-.01.05v.02l.02.05c.02.02.04.03.07.03h1.09c.12 0 .17.06.14.18l-.38 1.56a7.63 7.63 0 0 0 .46 5.02c.44.99.67 1.36.2 2.47a9.4 9.4 0 0 0-.69 4.42 22.47 22.47 0 0 1 .06 1.57.05.05 0 0 1-.07.01c-.57-.54-1.2-1.08-1.7-1.61-3.39-3.7-4.82-8.14-4.3-13.33.05-.47.2-1.2.45-2.18a15.95 15.95 0 0 1 16.38-12c8.44.48 15 7.5 15.07 16.09a16.32 16.32 0 0 1-4.99 12 .06.06 0 0 1-.06-.02v-.03c0-1.17.02-2.46-.44-3.58-.25-.64-.54-1.26-.86-1.86a.33.33 0 0 1 0-.3 14.17 14.17 0 0 0 1.32-3.95c.2-1.53 0-3.04-.55-4.51-.15-.38-.27-.76-.39-1.14-.15-.53-.42-1.05-.58-1.6-.02-.07 0-.08.05-.05l.18.12c.07.05.12.03.14-.06.15-.73-.17-1.2-.69-1.66a.46.46 0 0 1-.15-.3l-.1-1.24c0-.06.02-.11.07-.14l.35-.2c.19-.11.18-.21-.02-.3l-.37-.17c-.1-.04-.1-.06.01-.07l.45-.02c.08 0 .08-.02-.01-.05Z" fill="#E3706A"/><path d="M22.5 16.5c-.25.08-.41.29-.49.62-.07.36-.3.77-.3 1.06-.01.77-.07 1.54-.18 2.31-.05.3.04.35.26.14l1.3-1.23a2.87 2.87 0 0 0 1.29-.02.16.16 0 0 0 .04-.04l.11-.18c.03-.05.07-.06.12-.03.26.14.53.2.83.2l.04-.02a.07.07 0 0 0-.02-.12.21.21 0 0 1-.13-.16.06.06 0 0 1 .03-.06.06.06 0 0 1 .06 0c.1.07.21.08.32.04.06-.03.07-.07.04-.12l-.12-.2c-.08-.12-.06-.15.06-.07.37.22.77.36 1.2.4.22.02.25-.04.09-.18l-.15-.06c-.2-.06-.2-.14-.03-.25a.14.14 0 0 1 .14-.02c.9.4 1.8.39 2.72.17.24-.06.24-.12 0-.17a.84.84 0 0 1-.34-.15c-.14-.1-.13-.15.05-.12.3.04.56.2.85.18.3-.03.58-.11.86-.25a.31.31 0 0 1 .37.08l.06.12c.04.14.1.3.19.48.02.05.05.08.09.09.07.02.1-.01.1-.09l.03-.6v-.02a.05.05 0 0 1 .07-.02l.02.02c.13.19.18.4.17.62a.06.06 0 0 0 .04.06h.03c.01 0 .02 0 .03-.02l.12-.13a.12.12 0 0 1 .12-.04c.3.07.42.25.38.56v.03a.05.05 0 0 0 .02.03h.07c.02 0 .03 0 .03-.02.04-.13.12-.28.25-.45.62.39 1.2.84 1.74 1.34.14.13.22.23.25.29.17.36.26.34.29-.06a6.8 6.8 0 0 0-.09-1.78l-.3-1.41c-.16-.8-.53-1.03-1.12-.71-.03-.26-.1-.5-.22-.74-.02-.04-.01-.08.03-.12.7-.62 1.5-.93 1.78.33.3 1.36.5 2.74.63 4.13.04.52.16 1.13.32 1.64.28.87.37 1.77.3 2.7-.01.02 0 .03.02.03h.05c.04.01.07-.01.08-.06.02-.25.07-.49.14-.71.06-.17.12-.17.18 0 .36 1.07.68 2.2.96 3.38.12.53.13 1.2.02 2.02-.3.45-.58.75-.86.9.14-.78.32-1.51.2-2.3-.13-.98-.5-2.18-1.32-2.62a1.03 1.03 0 0 0-.83-.06c-.76.24-.98 1.73-1.79 1.72-.31 0-.82-.3-1.1-.39-.86-.3-1.6-.62-2.37.06a4.5 4.5 0 0 1-.6.47c-.8.4-2 .47-2.73-.14-.64-.52-1.05-.9-1.94-.67-.46.12-1.03.32-1.72.6-.71.3-1.18-.88-1.49-1.28a.93.93 0 0 0-.6-.39c-1.39-.23-2 1.9-2.17 2.96-.06.4.04 1.02.3 1.87-.33-.24-.6-.7-.82-1.37a3.56 3.56 0 0 1 .05-1.38c.13-.43.28-1.04.46-1.82.05-.19.13-.37.27-.55.04-.06.07-.06.09.01.03.1.07.2.14.3.05.07.09.06.1-.04l.18-1.22c.15-.96.58-1.92.72-2.89.16-1.04.21-2.53.47-3.77.16-.8.24-1.45.7-1.96a.17.17 0 0 1 .14-.06c.3.02.58.1.85.26.1.05.13.13.09.24l-.32.89Zm4.45 5.63c0-.26-.1-.5-.28-.7a.95.95 0 0 0-1.36 0 .99.99 0 0 0 0 1.4.95.95 0 0 0 1.36 0 .99.99 0 0 0 .28-.7Zm5.17-.08c0-.23-.1-.44-.25-.6a.83.83 0 0 0-.6-.24h-.26c-.22 0-.43.09-.59.25a.86.86 0 0 0-.24.6v.16c0 .22.1.44.25.6.16.15.37.24.6.24h.26c.22 0 .43-.1.59-.25a.85.85 0 0 0 .24-.6v-.16Zm-6.02 2.88c-.26-1.33-1.22-1.66-2.42-1.34-.15.03-.2.13-.17.27.34 1.42 1.34 1.3 2.49 1.2a.1.1 0 0 0 .08-.04.11.11 0 0 0 .02-.09Zm6-1.42c-.8.17-.93.76-1.18 1.44a.08.08 0 0 0 .03.1h.03c1.14.11 2.35.22 2.51-1.33.01-.05-.01-.09-.06-.1-.51-.16-.95-.2-1.33-.11Z" fill="#FFB63B"/><path d="M25.32 16.78c0 .02 0 .05.02.07.3.53.72.92 1.26 1.18.03.02.04.04.02.06 0 .03-.02.03-.05.02-.83-.42-1.55-1.16-1.3-2.15a.3.3 0 0 0 0-.16c-.07-.2-.08-.35-.03-.46.03-.07.05-.07.05.01l.03 1.43ZM31.18 15.48l-2.22-.2a.04.04 0 0 0-.04.04v.02c0 .02.01.05.04.05l2.2.2c.03 0 .06-.02.06-.04v-.02a.05.05 0 0 0-.04-.05Z" fill="#1A3236"/><path d="M23.35 16c.01.08.06.15.1.14.05 0 .07-.08.06-.17 0-.09-.05-.15-.1-.15s-.07.08-.06.17Z" fill="#E4AB31"/><path d="M24.38 17.96c-.6-.32-.5-1.12-.48-1.85 0-.03.01-.04.03-.04.03 0 .04.02.04.04v1c0 .38.3.54.41.85Z" fill="#1A3236"/><path d="M33.34 18.87c.42-.68.68-1.45.77-2.33.59-.32.96-.08 1.12.7l.3 1.42c.13.6.12 1.2.09 1.78-.03.4-.12.42-.3.06a1.25 1.25 0 0 0-.24-.29 11.5 11.5 0 0 0-1.74-1.34ZM22.5 16.5c.18.9.58 1.64 1.22 2.22.04.04.04.06-.02.07a.3.3 0 0 1-.2-.04 7.88 7.88 0 0 1-1.2-.89c-.05-.04-.08-.03-.08.03-.06.77.23 1.27.87 1.51l-1.3 1.23c-.22.21-.31.17-.26-.14.1-.77.17-1.54.18-2.31 0-.3.23-.7.3-1.06.08-.33.24-.54.49-.61Z" fill="#E4AB31"/><path d="M24.38 17.96c.28.13.54.27.8.43v.04c0 .04-.02.05-.05.03a2.45 2.45 0 0 1-.75-.5ZM24.08 18.75c.09.03.17.04.18.01.02-.03-.04-.08-.13-.12-.08-.04-.16-.05-.18-.02-.01.03.05.09.13.13Z" fill="#1A3236"/><path d="M25.99 23.1c.53 0 .96-.43.96-.97a.97.97 0 0 0-.96-.98.97.97 0 0 0-.96.98c0 .54.43.98.96.98ZM31.28 21.2H31a.84.84 0 0 0-.83.86v.16c0 .47.38.84.84.84h.27c.46 0 .83-.39.83-.85v-.16a.84.84 0 0 0-.84-.84Z" fill="#fff"/><path d="M23.68 23.59c1.2-.32 2.16.01 2.42 1.34a.12.12 0 0 1-.02.1.11.11 0 0 1-.08.04c-1.15.08-2.15.21-2.49-1.2-.03-.15.02-.25.17-.28Zm.81.34a.1.1 0 0 0-.02-.05.16.16 0 0 0-.05-.05.26.26 0 0 0-.07-.03.34.34 0 0 0-.18 0 .26.26 0 0 0-.07.04.16.16 0 0 0-.05.05.1.1 0 0 0-.01.06c0 .02 0 .04.02.05 0 .02.02.04.05.05l.07.03a.33.33 0 0 0 .25-.04.16.16 0 0 0 .04-.05.1.1 0 0 0 .02-.06ZM30.92 24.95c.25-.68.38-1.27 1.18-1.44.37-.08.82-.05 1.33.1.05.02.07.06.06.11-.16 1.55-1.37 1.44-2.5 1.33h-.04a.08.08 0 0 1-.04-.06v-.04Zm1.68-.57c.04 0 .08-.01.11-.05.03-.05.05-.1.06-.16l-.01-.09a.25.25 0 0 0-.03-.07.17.17 0 0 0-.05-.05.11.11 0 0 0-.05-.02c-.04 0-.08.02-.11.06a.29.29 0 0 0-.06.15v.09l.04.07.05.05c.01.02.03.02.05.02Z"/><path d="M24.27 24.09c.12 0 .22-.07.22-.16 0-.08-.1-.14-.23-.14s-.23.08-.22.16c0 .08.1.14.23.14ZM32.46 24.15c0 .13.06.23.14.23.09 0 .16-.09.17-.21 0-.12-.06-.23-.14-.23-.09 0-.16.09-.17.21ZM37.54 30.05A6.93 6.93 0 0 1 35.56 33a9.43 9.43 0 0 1-4 2.11c-.54.12-1.08.26-1.61.4-.4.11-1.25.12-2.53.03-.81-.05-1.73-.27-2.75-.64a9.83 9.83 0 0 1-3.86-2.5 6.33 6.33 0 0 1-1.44-2.53 4.7 4.7 0 0 1-.29-1.87c.17-1.05.78-3.2 2.16-2.96.25.04.45.17.61.39.3.4.78 1.57 1.5 1.28.68-.28 1.25-.48 1.7-.6.9-.24 1.3.15 1.95.67.74.6 1.94.54 2.72.14.1-.04.3-.2.6-.47.78-.68 1.52-.36 2.38-.06.27.1.79.39 1.1.4.81 0 1.03-1.49 1.79-1.73.3-.1.57-.07.83.06.83.44 1.19 1.64 1.32 2.62.12.79-.06 1.52-.2 2.3Zm-8.75-.07.04-.3a.2.2 0 0 1 .07-.12l1.11-.98a.15.15 0 0 0 .05-.15c-.33-2.04-5.34-.56-1.84 1.08.05.02.09.06.1.12.04.13.04.27.02.4-.02.06-.05.1-.12.1-.95.1-1.8-.1-2.58-.6-.4-.26-.7-.65-1.02-1.03a.16.16 0 0 0-.1-.06.16.16 0 0 0-.13.05l-.06.06a.24.24 0 0 0-.03.31 3.78 3.78 0 0 0 2.5 1.72c1.8.33 5.04.24 6.05-1.83.02-.06.01-.1-.04-.15l-.13-.1c-.07-.05-.13-.04-.18.03a4.05 4.05 0 0 1-3.64 1.6.14.14 0 0 1-.07-.09v-.06Z" fill="#fff"/><path d="M29.1 28.33c.14 0 .25-.12.25-.26a.25.25 0 0 0-.25-.25.25.25 0 0 0-.25.25c0 .14.12.26.25.26Z" fill="#fff"/><path d="M18.56 28.5c.21.67.49 1.13.81 1.37.3.97.77 1.82 1.44 2.54a9.83 9.83 0 0 0 3.86 2.49c1.02.37 1.94.59 2.75.64a9.6 9.6 0 0 0 2.53-.03c.53-.14 1.07-.28 1.6-.4a9.43 9.43 0 0 0 4-2.11 6.93 6.93 0 0 0 1.99-2.95c.28-.16.57-.46.86-.91-.29 1.5-.76 2.9-1.43 4.2a.68.68 0 0 1-.22.19 18.48 18.48 0 0 1-7.07 2.77c-.4.07-.78.1-1.13.11-.83.02-1.43-.19-2.15-.31-.78-.14-1.65-.39-2.39-.66a28.02 28.02 0 0 1-4.08-1.86.38.38 0 0 1-.2-.35 2.1 2.1 0 0 0-.3-1.15 6.46 6.46 0 0 1-.87-3.58Z" fill="#E4AB31"/><path d="M23.23 38.23a8.9 8.9 0 0 0 1.78.23c.25 0 .28.09.09.25l-1.22 1.04a.16.16 0 0 0-.05.12.16.16 0 0 0 .04.12l3.69 3.82c.04.05.03.07-.03.07-.4 0-.72-.03-.95-.08a33.3 33.3 0 0 1-4.94-1.62c-.77-.32-1.64-.82-2.48-1.19a.49.49 0 0 1-.29-.45c.01-1.02 0-2.06-.05-3.13a7.37 7.37 0 0 1 .79-3.45.16.16 0 0 1 .12-.04l.06.03c.9.55 1.87 1.03 2.91 1.43.26.1.35.26.33.56-.05.73-.02 1.45.09 2.17.01.07.05.1.11.12ZM33.03 39.8l-1.37-1.2a.06.06 0 0 1 0-.1h.04l1.95-.23c.04 0 .07-.02.1-.05a.15.15 0 0 0 .03-.1l.09-2.47a.16.16 0 0 1 .08-.13c1.02-.53 2-.97 2.96-1.6a.12.12 0 0 1 .14 0l.03.04c.31.54.57 1.1.78 1.7.43 1.27.43 3.09.38 4.33-.06 1.7-5.92 3.4-7.3 3.73-.52.13-1.01.2-1.47.19-.15 0-.17-.06-.07-.17l3.64-3.78a.12.12 0 0 0 0-.16Z" fill="#1A3236"/><path d="m23.56 37.73-.18-1.92a.11.11 0 0 1 .04-.1.11.11 0 0 1 .1-.01l1.43.5a.11.11 0 0 1 .07.06l.83 1.83a.12.12 0 0 1 0 .12.11.11 0 0 1-.12.04l-2.08-.42a.11.11 0 0 1-.06-.03.11.11 0 0 1-.03-.07ZM31.16 37.96l.78-1.66a.17.17 0 0 1 .1-.09l1.23-.48a.16.16 0 0 1 .16.02.17.17 0 0 1 .07.15l-.1 1.8c0 .03-.01.07-.04.1a.17.17 0 0 1-.1.05l-1.92.35a.17.17 0 0 1-.16-.07.17.17 0 0 1-.02-.17Z" fill="#1A3236"/><path d="m26.86 38.07 1.16 1.1.01.02v.04l-.65 1.1a.05.05 0 0 1-.1 0l-1.71-3.84a.06.06 0 0 1 0-.06.05.05 0 0 1 .05-.02l2.27.32a.05.05 0 0 1 .04.04.06.06 0 0 1-.01.05L26.86 38l-.02.04.02.04ZM30.28 37.97l-1.13-1.13-.02-.03a.06.06 0 0 1 .02-.05l.03-.02 2.13-.3h.03l.02.02.01.03v.03l-1.6 3.75a.06.06 0 0 1-.04.03.06.06 0 0 1-.05-.02l-.62-1.05a.06.06 0 0 1 .01-.08l1.2-1.1a.06.06 0 0 0 0-.08Z" fill="#fff"/><path d="m29.56 37.8-.86-.86a.2.2 0 0 0-.3 0l-.86.89a.22.22 0 0 0 0 .3l.86.87a.2.2 0 0 0 .3 0l.86-.9a.22.22 0 0 0 0-.3Z" fill="#ED2A24"/><path d="m26.04 38.51 2.37 5.4a.07.07 0 0 1-.02.08.07.07 0 0 1-.09-.01l-3.9-4.03a.07.07 0 0 1 0-.1l1.54-1.36a.07.07 0 0 1 .08 0l.02.02ZM28.73 43.81c.11-.42.2-.71.28-.87.67-1.44 1.3-2.9 1.92-4.36.02-.06.05-.07.1-.03l1.43 1.29c.05.04.05.1 0 .14l-3.44 3.57a1 1 0 0 0-.21.28.1.1 0 0 1-.06.06.12.12 0 0 1-.08.01.02.02 0 0 1-.01-.02v-.01l.07-.05Z" fill="#1A3236"/><path d="m27.5 40.83 1-1.48a.09.09 0 0 1 .07-.04.09.09 0 0 1 .07.04l.86 1.38a.1.1 0 0 1 0 .08l-.88 2.09a.1.1 0 0 1-.08.05l-.05-.01a.1.1 0 0 1-.03-.04l-.97-1.98a.1.1 0 0 1 0-.09Z" fill="#ED2A24"/><defs><linearGradient id="anw53whwr" x1="10.42" y1="9.71" x2="68.15" y2="76.02" gradientUnits="userSpaceOnUse"><stop stop-color="#1A1E21"/><stop offset="1" stop-color="#06060A"/></linearGradient></defs></svg>