<svg width="56" height="56" viewBox="0 0 56 56" xmlns="http://www.w3.org/2000/svg"><path d="M19.71 10.05c1.67 4.32 2.06 2.76 3.01 3.47 1.37-.03 2.7.03 4 .17.9.1 2.07.16 3.5.19 1.28.02 2.52.18 3.73.49.76.49 1.67-.35.97-.72a35.24 35.24 0 0 1 2.86-2.46c.61-.43 2.5-.87 2.76.1-.52 1.47-.3.24-.97 4.22-.14.77.02 1.33.76 1.61-.19.64-.25 1.36-.17 2.16-4.14-.18-7.22-.3-10.5-.48l2.51-2.6c.1-.1.1-.2-.01-.3a1.77 1.77 0 0 0-1.74-.46.57.57 0 0 1-.43-.05c-1.21-.63-4.9-1.48-5.76.05-.08.14-.05.24.1.31.54.24.83.42 1.16.94.38.63.85 1.29 1.39 1.96l-11.2-.42a.4.4 0 0 0 .15-.06.34.34 0 0 0 .18-.3l.02-5.06c.73-.59 1.87-2.2 1.13-3.8 1.4-.1 2.25.25 2.55 1.04Z" fill="#D36D3A"/><path d="m17.18 9 1.25.64a.52.52 0 0 1 .28.42.5.5 0 0 1-.21.44 3.4 3.4 0 0 0-1.37 2.23c-.03.14-.07.23-.13.29-.1.08-.2.12-.34.1l-.27-.05a.5.5 0 0 1-.15-.05.76.76 0 0 1-.18-.23c.03-1.81.4-3.07 1.12-3.79ZM19.74 10.04l2.98 3.46c.89.23.56.73-.99 1.49a.14.14 0 0 1-.15-.02.13.13 0 0 1-.05-.13c.1-.35.09-.61-.15-.9a7.09 7.09 0 0 1-1.64-3.9ZM40.56 11.27c.66 1.01.07 4.67-.2 5.87-.75-.29-.91-.85-.78-1.62a5.3 5.3 0 0 0-.38-3.08.38.38 0 0 0-.15-.17.4.4 0 0 0-.21-.05h-.64c-.07 0-.11-.04-.13-.1l-.02-.14c0-.02 0-.03.02-.05l1.76-.98a.13.13 0 0 1 .16.02l.02.05c.06.24.25.33.55.25ZM33.98 14.37c.38-.2.7-.44.97-.73a2.33 2.33 0 0 0 1.44-.78c.06-.07.13-.07.2 0l.11.11c.06.06.06.12 0 .17a5.52 5.52 0 0 0-1.6 2.7c-.04.15-.12.19-.26.13-.94-.43-1.23-.97-.86-1.6ZM29.66 18.81l-2.78-.14c-.54-.68-1-1.34-1.4-1.97-.32-.52-.6-.7-1.15-.94-.15-.07-.19-.17-.1-.31.86-1.54 4.55-.68 5.77-.05.13.07.27.09.42.05a1.78 1.78 0 0 1 1.75.46c.1.1.1.2 0 .3l-2.5 2.6Z" fill="#973A1F"/><path d="m32.9 18.97-1.68-.08c.35-.99 1.5-.91 1.68.08Z" fill="#FFC181"/><path d="M28.95 21.48a3.76 3.76 0 0 0-2.33-.12c.38-.44-.59-1.55 0-1.76.05-.02.67 0 .73 0l.97.08c.27.03 1.08-.06 1.12.2l-.5 1.6ZM15.68 19.9l.61.26c.15.07.21.17.18.33-.07.41.13.6.6.57.08 0 .14.02.2.06.05.03.09.09.1.15.1.34.22.58.38.72l-1.83 1.71a.52.52 0 0 0-.17.39c-.01.79 0 1.58.03 2.37 0 .08.1.55.26 1.4.2 1 0 3.12.65 4.14.12.08.2.19.21.33l.25 1.76c0 .06.03.12.07.17.05.05.1.1.16.11a.5.5 0 0 1 .2.13c.13.15.28 1.26.03 1.43-.3.22-.64.35-1.01.41-.15.03-.2.11-.18.26a.6.6 0 0 0 .11.25c.1.13.13.27.08.42-.34 1.1 1.13 2.26 1.04 3.33-.05.55-.13 1.14.14 1.65.08.14.07.28-.02.42l-.12.17c-.15.2-.28.19-.38-.04a18.04 18.04 0 0 1-1.43-4.85c-.02-.2-.44-.1-.49.06a17.76 17.76 0 0 1 .06-1.02c.39-1.78.02-3.42-.64-5.44-1.27-3.91-.97-7.79.91-11.64Z" fill="#D36D3A"/><path d="M28.98 21.46c1.33 0 1.07 1.17 1.9 1.34V24c-.47-.49-.95-1.42-1.4-.41a3.26 3.26 0 0 0-3.4-.15c.3-.9-1.92-1.56-.38-1.98.79-.2 2.5-.28 3.28 0Z" fill="#FFC181"/><path d="M39.1 21.84c.34.29.51.35.5.18-.08 1.07-.27 2.1.04 3.1.22.7.5 1.4.81 2.08.15.22.14.72-.02 1.5-.47.23-.9.29-1.28.19-.12-.03-.21 0-.27.11l-.45.77c-.12.2-1.53.33-1.1.77l.53.55c.11.12.16.25.14.41l-.15 1.14a.1.1 0 0 1-.02.05 5.64 5.64 0 0 0-.44.25c-.64.89-1.45 2.6-3.23 3.18a.6.6 0 0 0-.37.8c.04.1.11.18.2.24l.64.46c.13.1.14.2.02.3l-.65.6a.4.4 0 0 0-.12.42c.02.06.06.12.1.17.33.36-.67.97-.67 1.4 0 .15-.1.3-.24.38l-.42.22c-.24.13-.22.2.05.24.27.03.5.15.68.34a.99.99 0 0 0 1.41-.03l1.96-2.18a.42.42 0 0 1 .46-.12l.15.02c.13.02.23-.03.3-.15l1.1-1.9 3.17 4.3c.1.13.1.25-.01.38-.42.5-.77.51-1.05.02-.57-.39-.82-.96-.74-1.7 0-.07 0-.15-.03-.22a.52.52 0 0 0-.13-.2 2.45 2.45 0 0 1-.68-1.11c-.05-.18-.33-.18-.37 0l-1.6 5.97-1.1.39c-1.26-.5-2.23.29-4.24 1.4-1.74.4-3.51.53-5.32.38.08-3.95-2.4-1.61-2.97-.23a26.39 26.39 0 0 1-8.3-3.1c-.2-.11-.36-.28-.44-.49a1 1 0 0 1-.05-.65c.16-.57.15-1-.03-1.26a4.85 4.85 0 0 0 .47-3.2c.06-.19.24-.16.4-.15.02 0 .04 0 .06.02a17.96 17.96 0 0 0 1.47 4.91c.16.35.36.06.5-.13.1-.14.1-.28.03-.42a2.73 2.73 0 0 1-.34-1.58c.1-1.07-1.2-2.3-.85-3.4a.45.45 0 0 0-.08-.42.6.6 0 0 1-.12-.25c-.02-.15.04-.23.19-.26.37-.05.7-.2 1.01-.4.18-.13-.03-.9.02-1 .09-.16.07-.3-.06-.44a.5.5 0 0 0-.19-.12.37.37 0 0 1-.23-.29c-.11-.8-1.17-2.91-1-3.46a.63.63 0 0 0-.01-.43c-.33-.88.06-1.5-.1-2.34-.18-.85-.26-1.32-.27-1.4-.03-.8-.04-1.58-.03-2.37 0-.16.06-.28.17-.39l1.85-1.7c.38 0 .57.31.57.9-1.48 5.17 4.9-.45 6.58 2.87-.09-.71.14-1.33.68-1.86-.2.69-.15 1.45.17 2.3-.57 1.23-1.28 1.88-2.13 1.95-.93-.72-1.74-1.01-2.43-.87-.79 1.47.15 2.44 1.25 3.18.13.08.22.2.28.33.26.59.66 1.06 1.2 1.43 2.38 1.21 3.77 2.03 4.9 1.87l2.58-2.86L34 29.68c.13-.07.2-.18.22-.32l.17-.97c.63-1.11.1-3.91 2.63-4.7.16-.42.49-.75.98-1.01a.61.61 0 0 0 .28-.3c.12-.28.4-.46.82-.54Z" fill="#FFC181"/><path d="M40.44 27.22c-.32-.69-.6-1.39-.81-2.1-.31-1-.13-2.05-.04-3.12a5.46 5.46 0 0 1 .85 5.22Z" fill="#D36D3A"/><path d="M25.08 21.9c.46.23 1.21.93 1.03 1.47l-.49.53a2.13 2.13 0 0 0-.68 1.86.6.6 0 0 1-.06.31.62.62 0 0 1-.2.25c-.38.26-.69.22-.94-.13a.42.42 0 0 0-.4-.18c-.14.03-.22-.03-.21-.18 0-.3.81-.37.58-.67-.4-.47-.67-.4-1.24-.1-.62.33-.78 1.03-1.68 1.3a.63.63 0 0 0-.29.2.58.58 0 0 0-.14.3c-.05.45-.22.85-.52 1.2a.56.56 0 0 1-.26.17c-.32.1-.67-.1-.73-.42a1.76 1.76 0 0 0-1.38-1.49.5.5 0 0 1-.34-.28l-.6-1.33a.5.5 0 0 1 0-.43c.38-.83.99-1.3 1.83-1.4 3.07.15 4.31.17 6.72-.99ZM30.58 23.42c.83.42 2 .48 3.5.17l2.96.08c0 1.29.3 1.94.9 1.94.17 0 .27.08.3.24.08.49-.04.93-.35 1.32a.55.55 0 0 1-.37.21 1.4 1.4 0 0 1-1.07-.3c-.2-.16-.32-.12-.34.13-.04.3-.01.61.06.9.03.11 0 .2-.11.25-.69.35-1.24.36-1.65 0-.08-.56-.34-.91-.76-1.05-.17-.06-.3-.02-.41.11a.8.8 0 0 1-.71.33.43.43 0 0 0-.33.11c-.44.42-.95.51-1.53.28a.46.46 0 0 1-.28-.34c-.14-.98.75-3.5-.5-3.95l-.4-.34c.46-1.01.82-1.04 1.09-.09Z" fill="#FCEBC6"/><path d="m29.49 23.46.4.34c.1 1.05.64 1.97-.62 2.71l-1.6.71c-.13.17-.23.12-.3-.14l-1.6-.88a3.5 3.5 0 0 1-.16-2.29l.48-.51a3.25 3.25 0 0 1 3.4.06Z" fill="#020102"/><path d="M29.84 23.77c1.24.45.5 2.94.65 3.92.13.77 1.26.48 1.63.13.3-.3.82-.06 1.13-.46.1-.13.24-.17.4-.12.43.15.69.5.77 1.06l-.22 1.06a.46.46 0 0 1-.22.33l-2.56 1.55c3.07-5.61 1 .1-1.47-2.46a5.47 5.47 0 0 1-.68-2.26c1.25-.75.66-1.69.57-2.75Z" fill="#D36D3A"/><path d="m25.77 26.17 1.6.9-.06.5a.34.34 0 0 1-.27.3 8.9 8.9 0 0 1-3.4.29c.86-.07 1.57-.73 2.13-1.99ZM29.35 26.49c.01.64.26 1.4.73 2.3l-2.36-.84c-.28-.1-.31-.35-.09-.74l1.72-.72Z" fill="#52433A"/><path d="M23.64 28.13c1.18.12 2.31.02 3.4-.29.15-.04.24-.14.26-.3l.07-.48c.06.27.16.31.3.14-.21.4-.19.64.07.73l2.2.82c.6.61 1.56.4 2.92-.62.35-.26.5-.18.47.24l-.05.53a1 1 0 0 1-.52.83c-.5.3-.95.8-1.33 1.48l-2.58 2.86c-1.25.7-2.42.67-3.52-.08a3.9 3.9 0 0 1-1.38-1.78 5.44 5.44 0 0 0-1.05-1.92c-1.17-1.14-1.76-1.51-1.7-3.03.7-.14 1.51.15 2.44.87Z" fill="#270907"/><path d="M21.23 27.27c-.07 1.52.51 1.9 1.7 3.04.34.33.68.97 1.04 1.92a3.3 3.3 0 0 1-1.21-1.44.76.76 0 0 0-.28-.33c-1.1-.74-2.05-1.71-1.25-3.2ZM40.43 28.68a40 40 0 0 1-1.12 4.57c-.41 1.36-.13 2.7-.56 4.08l-1.1 1.9a.28.28 0 0 1-.3.16l-.14-.03a.42.42 0 0 0-.47.13l-1.96 2.18a.98.98 0 0 1-1.41.03 1.1 1.1 0 0 0-.69-.34c-.27-.03-.28-.11-.05-.24l.43-.22c.07-.04.13-.1.17-.17a.43.43 0 0 0 .07-.22c.01-2.78 1.31-1.61.47-3.6a.58.58 0 0 1 .1-.61.62.62 0 0 1 .28-.18 4.16 4.16 0 0 0 2.43-2.7c-.07-.19-.01-.26.2-.23a.6.6 0 0 0 .6-.26c.08 0 .38-.17.44-.26a.1.1 0 0 0 .02-.04l.16-1.15a.48.48 0 0 0-.14-.4l-.53-.56a.23.23 0 0 1-.05-.09.23.23 0 0 1 .12-.27c.2-.1.43-.17.67-.19a.44.44 0 0 0 .35-.22l.46-.77c.06-.1.15-.14.27-.11.38.1.8.03 1.28-.2Z" fill="#D36D3A"/><path d="M25.32 33.98c1.1.77 2.28.8 3.52.09.21.59.7.47 1.48-.36.19-.2.64-.97.92-.64.06.06.05.12-.02.18-.31.23-.5.53-.6.9-.02.15 0 .28.1.4.28.32.24.69-.13 1.1a30.25 30.25 0 0 1-3.91 3.58c-.37.29-.64.37-.82.25-.25-.16-.46-.56-.64-1.2-.03-.12-.17-.17-.28-.1-.58.35-1.3-2.06-1.6-2.77a.57.57 0 0 0-.25-.27.56.56 0 0 1-.3-.56.4.4 0 0 0-.13-.34c-.13-.12-.78-.54-.44-.79.29-.2.43-.5.42-.87 0-.15.08-.22.24-.19.96.15 1.52 1.62 2.35 2.19.18.12.25.07.2-.14l-.1-.46Z" fill="#EF8A3E"/><path d="M40.86 42.04c-.2 1.48-2.31 2.4-3.52 2.77l1.59-6.02c0-.04.03-.07.06-.1a.19.19 0 0 1 .3.1c.12.43.35.8.68 1.12.06.06.1.12.13.2a.5.5 0 0 1 .02.22c-.08.75.17 1.32.74 1.71Z" fill="#D36D3A"/><path d="m36.21 45.18-4.23 1.4c.1-.9.68-1.48 1.72-1.74.26-.07.33-.25.21-.52a.36.36 0 0 1 .09-.41c.5-.54 1.13-.84 1.87-.93.13 0 .25.01.37.06.11.05.21.13.28.23a.64.64 0 0 1 .03.69c-.21.36-.32.77-.34 1.22ZM26.68 46.95l-2.96-.23c-.32-2.43 2.15-2.86 4.05-2.56a.5.5 0 0 1 .34.2c.27.38.25.74-.08 1.08-.08.1-.2.16-.32.19a.68.68 0 0 1-.37-.02l-.4-.14c-.16-.05-.23 0-.23.15l-.03 1.33Z" fill="#FCEBC6"/><path d="M19.31 16.68c-.8-1.05-1.53-1.94-1.4-3.03.09-.65.3-.7.67-.14.18.27.46.41.85.42.08 0 .16.03.22.08.07.05.11.11.13.19.09.4.28.75.56 1.06.19.2.21.41.06.65l-.46.74a.36.36 0 0 1-.13.13.39.39 0 0 1-.5-.1Z" fill="#973A1F"/><path d="M17.24 15.81c.12.53.42.92.67.87.25-.05.36-.52.24-1.06-.12-.53-.42-.92-.67-.86-.25.05-.36.52-.24 1.05Z" fill="#EF8A3E"/><path d="M38.66 15.16c-.14.48.03.45.09.89.01.1-.02.2-.08.28l-1.49 1.87a.24.24 0 0 1-.19.1l-.1-.03a.24.24 0 0 1-.09-.07l-.76-.97a.42.42 0 0 1-.08-.42c.4-1.16 1.24-1.78 2.52-1.86.16 0 .22.06.18.2Z" fill="#973A1F"/><path d="M38.95 18c.28-.27.35-.64.15-.84-.2-.2-.59-.16-.87.1s-.35.64-.15.84c.2.2.59.15.87-.1Z" fill="#EF8A3E"/><path d="M27.58 23.4c.44.02.85.15 1.23.39.03.02.05.04.07.08a.19.19 0 0 1-.04.2.19.19 0 0 1-.1.06c-.6.1-1.05.07-1.32-.09-.76-.44-.7-.65.16-.63Z" fill="#9A9A9A"/><path d="M24.6 29.7c-.09.21-.24.32-.46.34-.3-.48-.36-.93-.2-1.35.07-.18.18-.22.34-.1.25.18.36.55.33 1.1Z" fill="#FCEBC6"/><path d="M30.72 30.5c-.52.3-.99.67-1.39 1.1a.51.51 0 0 1-.27.17l-1.52.29a.66.66 0 0 1-.42-.05 1.53 1.53 0 0 0-1-.08.47.47 0 0 1-.35-.05c-.53-.29-.9-.76-1.1-1.4a.3.3 0 0 0-.18-.2c-.14-.05-.2 0-.2.14l-.01.2c-.13-.1-.18-.3-.14-.58.22-.02.38-.13.48-.34 1.38.7 2.3 1.13 2.74 1.3.2.08.35.06.44-.07.08-.1.18-.17.3-.21l1.68-.5c.1-.04.17-.1.2-.2.04-.2.12-.37.25-.52a.24.24 0 0 1 .3-.05c.03.01.06.04.08.07.2.3.23.63.1.98Z" fill="#D15258"/><path d="M30.68 30.48a3.6 3.6 0 0 1-2.21 3.09c-2.19 1.06-3.91-1.12-4.18-2.97v-.2c0-.14.07-.19.21-.13.1.04.15.1.18.18.2.66.57 1.13 1.1 1.42.1.06.22.07.33.05a1.5 1.5 0 0 1 1 .08c.14.06.27.08.41.05l1.51-.3a.5.5 0 0 0 .28-.15c.4-.45.85-.82 1.37-1.12Z" fill="#FD7485"/><path d="m41.19 19.3-26.65-1.17v2.05h.88v1.11h.97v.91h1.06v1l7.2.32v-1.09h1.03v-.73h1.06v-1.9h2.1v1.9h1v1.11h.9v.97l7.05.32v-.9h1.18v-1h1.1v-.9h1.12v-2Z"/><path fill="#fff" d="M21.55 19.39h1.03v.99h-1.03zM20.52 20.39h1.03v.99h-1.03zM19.49 21.38h1.03v.99h-1.03zM23.62 19.39h1.03v.99h-1.03zM22.58 20.39h1.03v.99h-1.03zM21.55 21.38h1.03v.99h-1.03zM36 20.09h1.03v.99H36zM34.97 21.09H36v.99h-1.03zM33.93 22.08h1.03v.99h-1.03zM38.06 20.09h1.03v.99h-1.03zM37.03 21.09h1.03v.99h-1.03zM36 22.08h1.03v.99H36z"/></svg>