<svg width="56" height="56" viewBox="0 0 56 56" xmlns="http://www.w3.org/2000/svg"><path d="M35.43 35.12c-.42 0-2.1.42-3.14.42-1.57 0-3.66-.84-4.18-.42-.53.42 1.04 5.88 1.57 5.88.52 0 .52 0 1.04-1.26s2.1-2.52 3.14-2.52c1.05 0 3.14-1.26 3.14-1.68 0-.42 0-.42-.52-.42-.53 0 0 .42-.53.42-.52 0 0-.42-.52-.42Z" fill="#48EFD3"/><path d="M34.07 38C32.41 38 32 40.3 32 41.45c.41.5 2.49-1.48 2.49-.99 0 .4-1.4 1.3-1.25 1.48.25.3 2.16-.59 2.49-.98.41-.5.41-.99-.42-1.97-.66-.8-1.1-.99-1.24-.99Z" fill="#60F8E1"/><path fill-rule="evenodd" d="M36 14c2 0 5.55.91 6.3 2.74.77-.3 2.4-.82 2.77-.46.22.21.13.81.03 1.58-.12.89-.28 2-.03 2.99.12.46.24.84.35 1.2.32 1.06.58 1.9.58 3.95 0 2.74-2.78 9-8.34 9h-3.7c-1.12 0-5.1-.6-6.96-.91v-1.83c.15-.3.56-1 .93-1.37.2-.19.48-.34.75-.49.25-.13.49-.25.64-.4h4.63C35 30 35 29.5 35 29c-.5.5-2 .5-2.5 0 .3-.15 1-.63 1-1 0-.46-.5-.5-1-.5-.87 0-1.5.04-1.5.5 0 .37 1 1 1 1-.5.5-2 0-2 0 .46-.15 1.08-.94.7-1.3-.26-.27.08-.53.42-.79.26-.2.51-.39.51-.58v-1.37c0-.3-.05-.66-.1-1.02-.1-.7-.2-1.42.1-1.72.25-.24.1-.86-.01-1.4-.11-.47-.2-.89.01-.89.47 0 .93-.9 1.4-1.82.21-.43.12-.75.07-.98-.07-.26-.1-.4.39-.4.92 0 1.85 0 1.85-.45 0-.28.18-.39.42-.54.15-.09.33-.2.5-.37.33-.31.01-.88-.18-1.22L36 14Zm8.15 4.57-.47-1.83-.46.46.93 1.37ZM36.5 25c0-1.6 1.29-2 2-2s1.5.8 1.5 2-.93 2-1.5 2-2-.4-2-2Zm.5-3c.47-.3 1.88-.72 3 0-.16-.3-.75-1-1.5-1s-1.34.7-1.5 1Z" fill="#36FFCB"/><path d="M37 25c0-1.35 1.5-2 1.99-1.54-.75.73-.65 2.44-.49 3.04-1 0-1.5-1.05-1.5-1.5Z" fill="#FBFAFA"/><path d="m18 34.5-.52.23c.16-.9.28-2.7-.47-2.7-.93 0-2.48 3.07-2.01 3.97.37.72 2.48 1.29 3.42 1.44v-.45l.46.45.94 8.56c0-.45.1-1.44.47-1.8.46-.45.46-.45.46-.9s.94 0 1.4 0c.38 0-.15-.6-.46-.9l1.4.45v-.9c.94-.9.94-.9.94-1.8 0-.91.97-.46.97-.91v-1.8c0-.45-.04-.9.43-1.8.37-.73-.12-.99-.43-1.14-2.62 1.08-5.75.45-7 0Z" fill="url(#bbmwkpwmp)"/><path fill-rule="evenodd" d="M20 16c.23.22.4.54.53.8.1.16.16.3.22.35-4.13 0-10.75 5.6-10.75 9.92 0 2.65 3.36 4.68 5.61 5.4.47.16 2.34-1.34 2.34-1.8 0-.35-.63-.75-.94-.9-.01-.27.49-.77.99-.77.9 0 1.12.4 1.26.64.03.06.06.1.1.13-.32.15-.94.55-.94.9 0 .16.1.24.21.33.15.12.32.24.25.58L18 32v2l.08.02c.66.16 1.99.48 3.42.48 1.5 0 3.03-.35 3.5-.5 0-.14 0-.41-.02-.7l-.02-.82c0-.23.23-.45.47-.68.23-.22.47-.45.47-.67 0-.23.35-.57.7-.9.35-.34.7-.68.7-.9 0-.23.23-.46.52-.74.3-.28.65-.62.88-1.07.22-.42.55-.55.83-.66.31-.12.57-.22.57-.7 0-.9 0-.9.47-1.8.38-.71-.15-1.2-.47-1.35l.94-.9c-.75-2.88-4.99-4.5-7.01-4.96 0-.36-1.22-2-2.53-2.15l.16.32c.26.53.5 1 .5 1.38A4.15 4.15 0 0 0 20 16Zm-3 9.5c0 1.5-1.2 3-2.5 3s-2-1.5-2-3 .88-2.49 2.18-2.49c1.29 0 2.32 1 2.32 2.49Zm8.5-1.5c-.94-.15-3.5.33-3.5 2.5 0 2.57 1.78 2.52 2.4 2.5a4.06 4.06 0 0 1 .29 0c.67.04 2.39.12 2.81-1.5.47-1.8.34-3.05-2-3.5Z" fill="url(#cbmwkpwmp)"/><path d="M13 25.5c0-1.44 1-2.04 1.68-2.04.82 0 1.24.6 1.4.9A2.58 2.58 0 0 0 15 28c-1.4 0-2-.7-2-2.5ZM25 25.5c-1.5 0-1.81 2.1-1.5 3-.5-.5-1-1.28-1-2 0-.9.63-2 2.5-2s2.5 1.1 2.5 2c0 .72-.69 1.85-1 2 .64-1.97 0-3-1.5-3Z" fill="#CAFFF1"/><defs><linearGradient id="abmwkpwmp" x1="10.42" y1="9.71" x2="68.15" y2="76.02" gradientUnits="userSpaceOnUse"><stop stop-color="#1A1E21"/><stop offset="1" stop-color="#06060A"/></linearGradient><linearGradient id="bbmwkpwmp" x1="20.75" y1="33.83" x2="20.34" y2="46" gradientUnits="userSpaceOnUse"><stop stop-color="#FA9600"/><stop offset="1" stop-color="#FBD908"/></linearGradient><linearGradient id="cbmwkpwmp" x1="26.36" y1="17.79" x2="14.77" y2="32.26" gradientUnits="userSpaceOnUse"><stop stop-color="#FBE60F"/><stop offset="1" stop-color="#F5A801"/></linearGradient></defs></svg>