<svg width="56" height="56" xmlns="http://www.w3.org/2000/svg"><path d="M12.106 23.01c3.304.16 3.969 2.501 3.888 3.652h-3.085c-.478-.745-1.345-.932-1.757-.932-2.299 0-2.953 2.21-2.971 2.758-.02.548.205 1.862 1.869 1.826 1.33-.03 2.037-.889 2.224-1.315h-2.075l1.365-1.552h4.28L14.144 33H12.61l.113-1.189c-.4.414-1.638 1.231-3.402 1.187-2.206-.054-4.318-.84-4.318-3.999 0-3.16 2.972-6.19 7.103-5.99z" fill="#fff"/><path fill-rule="evenodd" d="M14 33l6.298-10h4.283L25 33H22v-2h-3.406l-1.352 2H14zm8-3.998h-2.434L21.48 26H22v3.002z" fill="#fff"/><path d="M28.317 23L25 33h3.317l1.352-4h.452v4h2.354l2.5-4h.332l-1.505 4h3.29l3.266-10H35.92l-3.444 6h-.306v-6h-3.852z" fill="#fff"/><path fill-rule="evenodd" d="M37.537 32.998L40.833 23h6.715c.886 0 2.418.586 2.451 2.07.033 1.484-1.414 2.415-2.142 2.695.972.359 1.23 1.516 1.236 2.05-.181 2.655-3.083 3.228-4.511 3.183h-7.045zm5.329-5.995l.493-1.445H45.7c.293 0 .876.129.859.644-.017.516-.666.749-.988.8h-2.705zM42.246 29l-.555 1.458h3.043c.362-.052 1.092-.285 1.111-.8.02-.516-.636-.658-.966-.658h-2.632z" fill="#fff"/></svg>