<svg width="56" height="56" viewBox="0 0 56 56" xmlns="http://www.w3.org/2000/svg"><path d="M35.94 14.18a11.53 11.53 0 0 1-16.47.36 15.56 15.56 0 0 1 16.47-.36ZM37.52 15.24a12.44 12.44 0 0 0-1.05 5.02c0 5.07 3 9.41 7.27 11.23a16.68 16.68 0 0 0-6.22-16.25ZM42.52 35.47A11.87 11.87 0 0 0 29.18 45a16.03 16.03 0 0 0 13.34-9.53ZM26.02 44.92c-.75-5.96-5.69-10.57-11.67-10.57-.44 0-.87.03-1.3.08a16.12 16.12 0 0 0 12.97 10.49ZM12.35 31.96a12.2 12.2 0 0 0 6.24-10.73c0-1.84-.4-3.59-1.11-5.16A16.72 16.72 0 0 0 12 28.52c0 1.18.12 2.33.35 3.44Z" fill="#00D4A3"/><path d="M33.95 27h-7.83c0 2.4 1.96 3 2.93 3h4.9v-3Z" fill="url(#avoph1wnt)"/><path d="M34.92 27H32c.39 0 .16 1.34 0 2l-1.47 5h3.43c.49-1.33 1.56-4.3 1.95-5.5.4-1.2-.49-1.5-.98-1.5Z" fill="url(#bvoph1wnt)"/><path d="M32.97 33h-9.79v3h8.32c1.96 0 3.1-3 3.42-4.5a2.13 2.13 0 0 1-1.95 1.5Z" fill="url(#cvoph1wnt)"/><path d="m25.14 34-2.94-9-2.93 2 2.45 7.5c.39 1.2 1.14 1.5 1.46 1.5h3.43c-.79 0-1.3-1.33-1.47-2Z" fill="url(#dvoph1wnt)"/><path d="M21.71 27.5c-1.56 1.2-1.63 2.17-1.46 2.5l-.98-2c-.78-2 .33-3.5.98-4l5.32-4.18c.63-.5 1.48-.55 2.17-.15l2.3 1.34c-2.13 1.66-6.76 5.3-8.32 6.5Z" fill="url(#evoph1wnt)"/><path d="M26.12 22c-1.18-.8-3.1-.16-3.43 0 .33-.33 2.25-1.8 3.43-2.6 1.17-.8 2.44-.23 2.93.1L35.9 25h-4.4c-.78 0-1.96-.66-2.45-1l-2.93-2Z" fill="url(#fvoph1wnt)"/><defs><linearGradient id="avoph1wnt" x1="26.12" y1="28" x2="33.46" y2="28" gradientUnits="userSpaceOnUse"><stop stop-color="#520AC5"/><stop offset="1" stop-color="#1E0779"/></linearGradient><linearGradient id="bvoph1wnt" x1="32.97" y1="27" x2="31.95" y2="33.99" gradientUnits="userSpaceOnUse"><stop stop-color="#03C096"/><stop offset=".57" stop-color="#00EBB3"/><stop offset="1" stop-color="#08B790"/></linearGradient><linearGradient id="cvoph1wnt" x1="33.46" y1="35" x2="24.7" y2="38.64" gradientUnits="userSpaceOnUse"><stop stop-color="#2E0681"/><stop offset=".42" stop-color="#510AC8"/><stop offset="1" stop-color="#30007C"/></linearGradient><linearGradient id="dvoph1wnt" x1="21.23" y1="25.5" x2="26.37" y2="35.36" gradientUnits="userSpaceOnUse"><stop stop-color="#01B588"/><stop offset=".55" stop-color="#00E2AD"/><stop offset="1" stop-color="#00B68E"/></linearGradient><linearGradient id="evoph1wnt" x1="19.27" y1="28" x2="29.8" y2="22.28" gradientUnits="userSpaceOnUse"><stop stop-color="#3A059B"/><stop offset=".55" stop-color="#4E0AC3"/><stop offset="1" stop-color="#2E0679"/></linearGradient><linearGradient id="fvoph1wnt" x1="24.65" y1="20.51" x2="33.52" y2="19.78" gradientUnits="userSpaceOnUse"><stop stop-color="#05CF9F"/><stop offset=".16" stop-color="#00DCA7"/><stop offset="1" stop-color="#01EAB5"/></linearGradient></defs></svg>