<svg width="56" height="56" viewBox="0 0 56 56" xmlns="http://www.w3.org/2000/svg"><path d="M11.29 24.88a17.1 17.1 0 0 0 1.16 10c.34.23 1.09.66 1.87.88-.35-.61-1.05-2.4-1.05-4.68 0-2.85 3.28-6.03 5.98-7.41l.58-.3c2.88-1.44 8-4 8-9.4a7.3 7.3 0 0 0-.64-2.77l-.14-.17a17 17 0 0 0-14.76 10.46 6.48 6.48 0 0 1 2.86-1.5c.6-.15 1.29-.28 2-.42 2.1-.4 4.45-.85 5.62-2.1-.55 1.03-2.55 3.34-6.16 4.32-3.48.94-4.69 2.11-5.32 3.09Zm33.39 6.44a14.64 14.64 0 0 0-5.92-1.27c-3.79 0-6.02 1.5-8.33 3.07-.44.3-.88.6-1.34.89-2.29 1.45-3.62 1.86-4 1.88.12.23.7.68 2.05.68.74 0 1.63-.32 2.62-.68 1.24-.46 2.66-.97 4.16-.97 2.7 0 3.7 1.59 3.7 2.95 0 1.37-1.23 5.46-10.48 5.46-6.19 0-10.45-2.75-12.5-4.8a17 17 0 0 0 30.03-7.2Z" fill="#13B3EA"/><path d="M29.34 20.32c1.03-4.47-.4-7.79-1.53-9.32H28a17 17 0 0 1 16.5 12.87c-4.77-.87-8.52 1.25-9.88 2.52a11.7 11.7 0 0 1 5.53-1.24c1.76 0 3.45.29 4.7.6a17.15 17.15 0 0 1 .05 4.09 13.53 13.53 0 0 0-6.43-1.75c-4.38 0-7.18 2.07-9.47 3.77l-.5.36c-1.97 1.59-5.5 3.17-7.53 3.17-2.03 0-4.4-1.17-4.4-3.02s1.43-2.89 3.76-2.89c1.36 0 2.35.34 3.17.62.58.2 1.08.37 1.57.37 1.18 0 1.45-.63 1.45-1.25 0-.5-.13-.8-.2-.88.13 0 .47-.06.85-.25s.05-.6-.17-.79c.18.04.57.1.74 0 .22-.12.2-.45 0-.9-.15-.37-.06-.5 0-.53h1.92a7.03 7.03 0 0 1-1.15-3.37c0-1.32 1.15-2 1.72-2.18h-.89Zm-13.8 16.73c1.45 1.93 5.85 5.78 11.83 5.78 4 0 6.63-1.45 7.55-2.25-.56.47-2.23 1.26-5.2 1.26-3.4 0-6-1.71-7.47-2.68l-.66-.42c-1.27-.76-2.86-1.69-4.22-1.9-1.08-.17-1.68.07-1.84.21Z" fill="#29D9A7"/></svg>