<svg width="56" height="56" viewBox="0 0 56 56" xmlns="http://www.w3.org/2000/svg"><path d="M12 17.03c.83 0 2.56-.14 2.84-.72a4.8 4.8 0 0 1 1.43-1.43v-2.52l1.42 1.8L19.1 12c0 .6.14 1.94.71 2.52.17.17.42.34.71.54.94.64 2.3 1.58 2.85 3.77.7 2.88 2.13 3.96 4.26 3.96h5.7v-3.42c.23-1.02 1.56-3.06 4.97-3.06 4.27 0 5.69 2.52 5.69 4.68 0 2.16-1.42 4.67-3.56 4.67v7.91c0 .36.43 1.23 2.14 1.8v3.42c-.36.54-1 1.9-.71 3.05.3 1.23-.94 1.15-1.76 1.1l-.38-.02c-.7 0-1.77-.72-1.42-1.44.11-.22.36-.52.66-.86.64-.76 1.47-1.75 1.47-2.73 0-1.15-2.13-2.4-3.2-2.88.24.24.72.94.72 1.8 0 1.08-1.07 3.6-2.14 3.95h-2.49c-.12-.48-.07-1.43 1.07-1.43.36-.12 1.07-.65 1.07-1.8 0-.77-.4-1.02-.94-1.37a4.24 4.24 0 0 1-1.55-1.5 13.67 13.67 0 0 1-1.42-3.24c-1.43.71-5.05 2.15-8.18 2.15-.36 1.8-1.07 5.68-1.07 6.83 0 1.44-.35 3.6-1.78 3.6-1.42 0-1.06-1.44-.35-2.88.57-1.15-.24-5.5-.71-7.55L18.4 39.7c-.12.6-.71 1.8-2.13 1.8-1.5 0-1.48-.26-1.44-.78l.01-.3c0-.32.33-.46.7-.62.5-.22 1.08-.47 1.08-1.18 0-.47-.15-1.58-.33-2.98a67.94 67.94 0 0 1-.73-7.81c0-2.1.48-2.86.89-3.48.28-.43.53-.8.53-1.55 0-1.65-1.16-2.13-2.35-2.62-1.3-.53-2.63-1.09-2.63-3.14Zm24.89 5.76c.35 0 1.14.21 1.42 1.08.12-.96 0-2.52-1.42-1.08Z" fill="#fff"/><defs><linearGradient id="aov0pccjp" x1="10.42" y1="9.71" x2="68.15" y2="76.02" gradientUnits="userSpaceOnUse"><stop stop-color="#1A1E21"/><stop offset="1" stop-color="#06060A"/></linearGradient></defs></svg>