<svg width="56" height="56" viewBox="0 0 56 56" xmlns="http://www.w3.org/2000/svg"><path d="m47.89 27.6-6.2-10.2a.88.88 0 0 0-.74-.4h-12.4c-.3 0-.58.16-.73.4l-5.1 8.42a.4.4 0 0 1-.44.17.37.37 0 0 1-.28-.35v-3.05c0-3.08-2.86-5.59-6.1-5.59h-5.04c-.46 0-.86.38-.86.81v4.78c0 2.21 1.64 4.25 3.77 5.08.14.06.23.19.23.33 0 .15-.1.28-.23.34-2.14.82-3.77 2.86-3.77 5.07v4.77c0 .45.4.82.86.82h5.03c3.25 0 6.1-2.51 6.1-5.6v-3.04a.37.37 0 0 1 .38-.36.4.4 0 0 1 .34.18l5.1 8.41c.16.25.44.41.75.41h12.39c.3 0 .59-.16.74-.4l6.2-10.2A.78.78 0 0 0 48 28a.76.76 0 0 0-.11-.4ZM35 32a4 4 0 1 1 0-8 4 4 0 0 1 0 8Z" fill="#EE99D0"/></svg>