<svg width="56" height="56" viewBox="0 0 56 56" xmlns="http://www.w3.org/2000/svg"><path d="M39.65 17.1a9.81 9.81 0 0 0-3.1.19 6.95 6.95 0 0 0-2.81 1.28c-.54.42-.96.95-1.28 1.58a3.36 3.36 0 0 0-.39 1.96c0 .42.07.88.2 1.4a11.5 11.5 0 0 0 2.12 4.45 5.3 5.3 0 0 0 1.84 1.53c.54.28 1 .48 1.36.6.48.14.93.2 1.37.18a3.5 3.5 0 0 0 2.17-.84c.56-.48.97-1.14 1.22-1.99.15-.52.25-.98.28-1.4.1-1.25.02-2.55-.24-3.9l.48-.04a15.9 15.9 0 0 1-1.9 15.26c-.54-.3-1.07-.62-1.57-.97l-1.46-1.04a16.72 16.72 0 0 0-4.9-2.18c-.64-.19-1.13-.31-1.47-.38a18.85 18.85 0 0 0-7.37.05 16.33 16.33 0 0 0-1.63.45 12 12 0 0 0-1.2.4c-1.76.7-3.38 1.62-4.86 2.78-.26.2-.75.51-1.47.92a16.03 16.03 0 0 1-1.9-15.3l.43.04c-.07.26-.1.6-.13 1.02a33.8 33.8 0 0 0-.05 2.52c.05 1 .3 1.93.75 2.78a3.19 3.19 0 0 0 2.01 1.67c.88.25 1.74.21 2.56-.13a9.1 9.1 0 0 0 1.5-.73c.5-.33.84-.6 1.01-.8.75-.85 1.38-1.84 1.9-2.95a11.26 11.26 0 0 0 .85-3.42c.03-.32.02-.6-.03-.86a4.5 4.5 0 0 0-1.98-2.9c-.53-.35-1-.6-1.45-.75a9.97 9.97 0 0 0-4.2-.48 16.06 16.06 0 0 1 17.95-3.82 15.95 15.95 0 0 1 5.3 3.7l.1.11Z" fill="#FDBB5B"/><path d="M23.97 22.1h-.7l-2.9.01c-.01 0-.03 0-.04.02a5.13 5.13 0 0 1-.16.85 2.2 2.2 0 0 1-2.63 1.62 2.19 2.19 0 0 1-1.63-2.45.04.04 0 0 0-.03-.02h-2.31l-.43-.03c.05-.24.15-.44.31-.6a7.3 7.3 0 0 1 1.44-2.59 6.3 6.3 0 0 1 2.21-1.26v-.02h-.02c-.45 0-.9.07-1.33.19-.05 0-.07-.03-.06-.05l.62-.67a9.97 9.97 0 0 1 4.2.48c.44.15.92.4 1.45.75a4.5 4.5 0 0 1 1.98 2.9c.05.25.06.54.03.86ZM39.65 17.1c.24.17.46.4.68.7l-.2-.03a6.43 6.43 0 0 0-1.31-.14c.78.23 1.51.62 2.19 1.15a8.79 8.79 0 0 1 1.54 2.7c.15.18.26.38.32.62l-.48.04h-.36l-1.85-.02a.05.05 0 0 0-.04.02.05.05 0 0 0 0 .04c.04.39 0 .75-.14 1.1a2.1 2.1 0 0 1-1.48 1.3c-.35.1-.72.1-1.09 0-.37-.08-.7-.27-.99-.56a2.04 2.04 0 0 1-.56-.98 8.5 8.5 0 0 1-.19-.92.07.07 0 0 0-.04-.02h-2.9l-.68.01c-.08-.63.05-1.28.4-1.96.3-.63.73-1.16 1.27-1.58.76-.6 1.7-1.03 2.8-1.28 1.01-.23 2.05-.3 3.11-.2Z" fill="#693519"/><path d="M14.9 18.92c.18-.38.41-.72.7-1.04a5.75 5.75 0 0 1 1.5-.24.02.02 0 0 1-.01.02 6.3 6.3 0 0 0-2.2 1.26ZM40.33 17.8c.26.28.49.61.68.98a6.44 6.44 0 0 0-2.19-1.16c.3-.01.73.04 1.3.15l.2.03Z" fill="#FDBB5B"/><path d="M23.2 21.47a.07.07 0 0 1-.07.07h-9.01a.07.07 0 0 1-.05-.02.07.07 0 0 1-.02-.06c.09-.76.39-1.45.91-2.07a4.06 4.06 0 0 1 1.87-1.3c.3-.1.83-.17 1.6-.22.42-.03.9.02 1.42.14a5.02 5.02 0 0 1 2.74 1.7c.4.53.6 1.12.6 1.76ZM32.84 21.48c0-.65.2-1.24.6-1.78a5.02 5.02 0 0 1 2.74-1.69c.53-.12 1-.17 1.43-.14.76.05 1.3.12 1.6.23.73.24 1.35.67 1.87 1.3a3.9 3.9 0 0 1 .9 2.1.07.07 0 0 1-.06.04H32.9a.07.07 0 0 1-.06-.06Z" fill="#E79D54"/><path d="M23.28 22.1c-.01.7-.05 1.19-.13 1.45-.35 1.3-.87 2.47-1.58 3.54-.12.18-.34.46-.68.82-.47.52-1.02.91-1.66 1.18-.62.26-1.29.38-2 .37-.39 0-.74-.06-1.06-.18-.29-.1-.61-.26-.98-.5-.45-.28-.8-.82-1.05-1.64a7.92 7.92 0 0 1-.27-3.48l.1-1.52 1.9-.01a.04.04 0 0 1 .03 0v.04a2.19 2.19 0 0 0 1.64 2.44c.36.08.73.07 1.1-.04a2.2 2.2 0 0 0 1.53-1.59 5.13 5.13 0 0 0 .16-.85.07.07 0 0 1 .05-.02h2.9Z" fill="#FDEDAF"/><path d="M23.97 22.1a11.26 11.26 0 0 1-.84 3.42 12.48 12.48 0 0 1-1.91 2.94c-.18.2-.51.47-1.01.8a9.1 9.1 0 0 1-1.5.73c-.82.34-1.68.38-2.56.13a3.19 3.19 0 0 1-2.01-1.67 6.68 6.68 0 0 1-.75-2.78c-.02-.4 0-1.24.05-2.52.02-.42.06-.76.13-1.02h.4l-.1 1.53a7.91 7.91 0 0 0 .28 3.48c.24.82.6 1.36 1.04 1.65.36.23.7.4.98.5.32.1.67.16 1.06.17a4.62 4.62 0 0 0 3.67-1.55 8 8 0 0 0 .67-.82c.7-1.07 1.23-2.24 1.58-3.54.08-.26.12-.74.13-1.44l.69-.02Z" fill="#E79D54"/><path d="M42.03 22.14c.14.82.23 1.64.28 2.45.05.77-.01 1.48-.19 2.15a3.8 3.8 0 0 1-1.02 1.82c-.53.51-1.19.8-1.97.88-.85.08-1.69-.06-2.52-.43a4.2 4.2 0 0 1-1.25-.88c-.46-.46-.8-.85-1-1.2a12.8 12.8 0 0 1-1.48-3.4c-.07-.23-.11-.7-.13-1.43h2.9a.07.07 0 0 1 .07.06c.03.28.09.57.16.88.1.37.28.7.56.98.29.29.62.48 1 .56.37.1.73.1 1.08 0a2.12 2.12 0 0 0 1.48-1.3 2.27 2.27 0 0 0 .13-1.12.05.05 0 0 1 .05-.04l1.85.02Z" fill="#FDEDAF"/><path d="M32.75 22.1c.02.73.06 1.2.13 1.43a12.8 12.8 0 0 0 1.47 3.4c.22.35.55.74 1 1.2.4.39.82.68 1.26.88.83.37 1.67.51 2.52.43a3.22 3.22 0 0 0 1.97-.88 3.8 3.8 0 0 0 1.02-1.82c.18-.67.24-1.38.2-2.15-.06-.81-.15-1.63-.29-2.45h.36c.26 1.35.33 2.65.24 3.9-.03.42-.13.88-.28 1.4-.25.85-.66 1.51-1.22 2a3.5 3.5 0 0 1-2.17.83 3.8 3.8 0 0 1-1.37-.19 9.02 9.02 0 0 1-1.36-.59 5.3 5.3 0 0 1-1.84-1.53 11.5 11.5 0 0 1-2.12-4.45 5.8 5.8 0 0 1-.2-1.4h.68Z" fill="#E79D54"/><path d="M12.85 26.07h.01a.17.17 0 0 1 .16.14c.2 1.4.7 2.5 1.46 3.3.02.03.03.05.03.08l-.03.04a.13.13 0 0 1-.04.04.15.15 0 0 1-.05.01h-.06c-.25-.07-.52-.37-.81-.91-.22-.41-.39-.8-.5-1.16a10.51 10.51 0 0 1-.3-1.45.13.13 0 0 1 .13-.1ZM43.19 26.07a.13.13 0 0 1 .1.05.12.12 0 0 1 .02.1c-.07.45-.17.92-.3 1.39-.1.36-.27.75-.5 1.16-.28.53-.55.84-.8.9a.17.17 0 0 1-.11 0 .13.13 0 0 1-.05-.04.12.12 0 0 1-.02-.04c0-.03 0-.05.03-.08a5.9 5.9 0 0 0 1.45-3.3.17.17 0 0 1 .16-.14h.02ZM12.62 27.46a.16.16 0 0 1 .16.12 4.28 4.28 0 0 0 1.02 2 .12.12 0 0 1-.02.1.12.12 0 0 1-.05.04.22.22 0 0 1-.27-.05 3.99 3.99 0 0 1-.94-2.14.1.1 0 0 1 .06-.07.1.1 0 0 1 .04 0ZM43.16 28.75a3.43 3.43 0 0 1-.73 1 .15.15 0 0 1-.12 0 .14.14 0 0 1-.05-.04c-.04-.06-.04-.13.02-.19a4.06 4.06 0 0 0 .97-1.95c0-.08.05-.12.13-.12a.14.14 0 0 1 .1.05.15.15 0 0 1 .04.12c-.03.34-.15.72-.36 1.13Z" fill="#C28443"/><path d="M26.17 29.21h-.04c-.2 0-.35.16-.35.35v.83c0 .2.16.35.35.35h.04c.2 0 .35-.16.35-.35v-.83c0-.19-.16-.35-.35-.35ZM29.91 29.22h-.04a.34.34 0 0 0-.34.34v.84c0 .18.15.34.34.34h.03c.2 0 .35-.15.35-.34v-.84a.34.34 0 0 0-.34-.34Z" fill="#693519"/><path d="M15.66 31.87c.33-.02.58-.23.56-.47-.02-.23-.3-.4-.62-.38-.33.02-.58.24-.57.47.02.24.3.4.63.38ZM40.42 31.01c-.32 0-.58.18-.59.42 0 .24.25.44.57.45.32 0 .59-.18.6-.42 0-.24-.25-.44-.58-.45ZM13.34 31.84c.32 0 .57-.19.57-.41 0-.23-.27-.4-.59-.4-.32 0-.57.2-.57.42 0 .22.27.4.59.4ZM42.7 31.84c.31 0 .57-.19.57-.41 0-.23-.27-.4-.58-.4-.32 0-.57.19-.57.41 0 .23.26.4.58.4Z" fill="#E79D54"/><path d="m40.97 37.36-.51.67c-.63-.48-1.24-.94-1.83-1.36a18.98 18.98 0 0 0-10.64-3.4c-1.88.01-3.86.36-5.95 1.04a17.77 17.77 0 0 0-4.97 2.59c-.24.17-.74.56-1.51 1.15l-.52-.66c.72-.4 1.21-.71 1.47-.92a19.32 19.32 0 0 1 4.85-2.78 12 12 0 0 1 1.61-.52c.55-.16.96-.27 1.23-.33 2.46-.5 4.91-.51 7.37-.05a17.18 17.18 0 0 1 2 .53c1.36.38 2.82 1.06 4.37 2.03l1.46 1.04c.5.35 1.03.67 1.57.97Z" fill="#C28443"/><path d="M14.4 32.84c-.3 0-.55.17-.55.4 0 .22.23.4.53.41.3 0 .54-.17.55-.4 0-.22-.23-.4-.53-.41ZM41.68 33.66c.3-.03.53-.24.51-.47-.02-.22-.28-.39-.58-.36-.3.02-.53.23-.5.46.01.23.27.4.57.37Z" fill="#E79D54"/><path d="M40.46 38.03a16 16 0 0 1-24.9.02c.77-.6 1.27-.98 1.51-1.15a17.77 17.77 0 0 1 4.97-2.59A19.26 19.26 0 0 1 28 33.28a18.98 18.98 0 0 1 10.64 3.4c.6.41 1.2.87 1.83 1.35Z" fill="#FDEDAF"/><defs><linearGradient id="a" x1="10.42" y1="9.71" x2="68.15" y2="76.02" gradientUnits="userSpaceOnUse"><stop stop-color="#1A1E21"/><stop offset="1" stop-color="#06060A"/></linearGradient></defs></svg>