<svg width="56" height="56" viewBox="0 0 56 56" xmlns="http://www.w3.org/2000/svg"><path d="m36.04 43.08-.88.24-1.09.13c-.15-.08-.4-.1-.76-.08a88.93 88.93 0 0 1-3.98-.5c-.52-.09-.56-.45-.72-.84l.57-.77 1-1.92c.14-.25.3-.4.5-.44.94-.21 1.54-.38 1.8-.5a.15.15 0 0 0 .07-.07.26.26 0 0 1 .03-.04.19.19 0 0 1 .09-.04c.35-.1.53-.3.54-.62.17-.22.26-.41.26-.56l-.02-.49c.08-.23.08-.4.02-.54a.47.47 0 0 0-.06-.31c.06-.11.06-.21 0-.3-.16-.24-.25-.4-.27-.5a2.5 2.5 0 0 0-.2-.61c.12-.08.16-.18.14-.32a.15.15 0 0 0-.1-.12c-.45-.17-.84-.04-1.27-.09l1.2-.01a.1.1 0 0 0 .09-.12c-.09-.55-.04-1.1.16-1.6.26.12.53.04.82-.24a.18.18 0 0 0 .05-.18c-.1-.3-.23-.54-.38-.74 0-.34-.1-.6-.3-.81-.06-.43-.08-.9-.05-1.43.02-.34-.02-.65-.1-.93l-.47-1.57-.31-.88a24.8 24.8 0 0 0-1.08-3.61c-.1-.27-.17-.42-.25-.46.05-.02.08-.05.1-.12a.2.2 0 0 0-.02-.13c-.1-.25-.17-.5-.22-.74a3.18 3.18 0 0 0-1.05-1.44c-.8-.94-1.69-1.72-2.66-2.37-.52-.34-1-.42-1.55-.25-.58.2-1.07.34-1.46.44-.23.05-.27.17-.12.33-.17.4-.2.85-.09 1.33-.04.29-.04.54.01.77.04.16.15.43.32.8.03.05.04.1.02.16-.02.07-.08.2-.16.36-.14.27-.35.35-.65.26a7.48 7.48 0 0 1-1.34-.57 2.23 2.23 0 0 0-1.36.19c-.2.08-.62.21-.72.44-.16.35-.43 1.11-.82 2.3-.14.44-.2.83-.2 1.17a112.3 112.3 0 0 0 .15 2.35l.06.06c.36.19.73.29 1.1.3.14 0 .28-.04.4-.13l1.12-.87c.63.06 1.2.17 1.07.97 0 .06-.03.1-.08.14l-.4.25c-.29.33-.34.74-.16 1.22-.44.36-.99.65-1.63.88-.21.08-.35.15-.43.22a.7.7 0 0 0-.24.45c-.05.33-.02.96.06 1.9.06.6.31 1 .77 1.2.07.33.26.64.56.95.5.31.68.7.55 1.15a.46.46 0 0 0-.13.3c-.05 0-.09.02-.1.06a3.7 3.7 0 0 1-1.28 1.9.2.2 0 0 1-.1.04l-.1.04-.75-.4c-.21-.35-.49-.54-.82-.56a1.48 1.48 0 0 0-.66-.68c-.15-.08-.25-.04-.31.11-.48 1.16-.8 2.23-.93 3.2-.02.13-.09.34-.22.63a.23.23 0 0 1-.13.13l-.79.32a.15.15 0 0 1-.12 0 .15.15 0 0 1-.08-.1c-.2-.84-.36-1.54-.47-2.09a17.97 17.97 0 0 0-2.9-6.6c-.14-.2-.15-.57-.11-.82a47.58 47.58 0 0 1 2.24-9.06.56.56 0 0 0 0-.35 9.05 9.05 0 0 1-.36-3.47c.18-2.17.63-4.28 1.35-6.35.11-.32.32-.43.64-.35.59.16 1.28.3 1.54.55l4.49 4a.33.33 0 0 0 .3.07l1.3-.32c.52-.13.7.48 1.29.21.1-.05.25-.2.44-.46.38-.5.9-.75 1.57-.75l4.23.01a.4.4 0 0 0 .35-.2l1.12-1.98c.3-.53.55-.9.76-1.08l.98-.9c.33-.3.64-.3.91-.02.54.57.9 1.28 1.08 2.14.28 1.45.36 2.92.23 4.42a.4.4 0 0 0 .16.36c1.76 1.27 3.52 2.53 5.26 3.8.15.11.23.22.37.38l.12.18c.79 1.64 1.28 3.35 1.47 5.12.26 2.52.16 5.17-.3 7.95-.21 1.3-.45 2.5-.72 3.58-.09.36-.25.67-.48.93a11.4 11.4 0 0 1-2.88 2.3c-1.13.64-2.27 1.2-3.44 1.71Z" fill="#6C0B00"/><path d="m32.13 14.6 1.05-1.86c.25-.46.45-.77.62-.95a6.22 6.22 0 0 1 .9-.77.15.15 0 0 1 .13.02l.04.05c.3.56.51 1.13.61 1.7.2 1.1.25 2.33.17 3.68-.01.13-.07.16-.17.07a6.2 6.2 0 0 0-.89-.65c-.37-.2-.79-.43-1.25-.72a4.98 4.98 0 0 0-1.22-.53.04.04 0 0 1 0-.04ZM21.53 17.44c-.04.22.02.25.17.07.22-.26.35-.48.38-.66.03-.19.13-.3.3-.34l1-.22c.17-.04.24.03.23.19-.12 1.4-.16 2.2-.13 2.4a4.17 4.17 0 0 0 .4 1.22l-.01.07-.04.04h-.05l-1.67-.72a2.04 2.04 0 0 0-.26-.08l-1.84.69a.3.3 0 0 0-.11.08.55.55 0 0 0-.1.14c-.23.52-.52 1.29-.88 2.3-.17.49-.25 1-.25 1.51 0 1.04.03 1.87.1 2.47.03.17.13.3.32.39.33.15.8.28 1.42.37.64.1 1.08-.95 1.58-.98.12 0 .26 0 .42.04.07.02.12.05.14.1.01.04.01.08-.01.13a.15.15 0 0 1-.14.09.83.83 0 0 0-.36.1.18.18 0 0 0-.09.12l-.24 1.08a.36.36 0 0 1-.24.28c-.65.23-1.06.37-1.23.4-.28.06-.48.18-.59.37-.12.22-.2.36-.23.44a1 1 0 0 0-.05.48c.12 1.18.24 2.06.33 2.64.01.05.05.14.12.27.05.08.1.16.17.23.47.5.88 1.02 1.22 1.58.03.05.05.1.04.16-.09.51-.56 1.08-.96 1.6a.15.15 0 0 1-.2.03c-.56-.4-1.19-.94-1.9-1.6-.18-.17-.45-.27-.67-.06-.23.21-.37.36-.42.46a9.51 9.51 0 0 0-1.05 3.23c-.04.37-.1.38-.17 0a18.88 18.88 0 0 0-3.06-7.38.45.45 0 0 1-.07-.31 45.16 45.16 0 0 1 2.07-8.64c.03-.1.1-.13.19-.11.58.13 1.04.09 1.36-.13.18-.12.16-.17-.05-.13-1.23.22-1.36-.71-1.57-1.73-.15-.7-.2-1.32-.16-1.87.15-2.05.55-4.09 1.2-6.12.03-.1.1-.14.2-.12.5.09.78.24 1.21.62l4.2 3.75a.39.39 0 0 1 .14.35l-.11.7Z" fill="#F8BA43"/><path d="M19.09 18.29c.2-1.09-.18-1.68-.72-2.6l-.5-.79c-.1-.15-.08-.17.06-.04.6.53 1.08 1.16 1.46 1.9.16.3.23.57.2.8-.03.32-.13.6-.3.82-.2.26-.26.23-.2-.1Z" fill="#6C0B00"/><path d="M41.99 22.75c-.3-.1-.6-.22-.9-.34a3.1 3.1 0 0 0-.9-.27c-.62-.04-1.05.18-1.3.65-.13-.07-.44-.3-.92-.66-.13-.1-.4-.24-.8-.42-.24-.1-.47-.1-.66 0-.27.15-.45.32-.55.5-.17.28-.32.67-.47 1.16-.8-1.27-1.84-1.33-3.11-.18a131.8 131.8 0 0 0-1.02-3.23 2.7 2.7 0 0 0-.5-.85 15.87 15.87 0 0 0-3.5-3.15c-.2-.14-.59-.27-1.15-.4-.07 0-.09-.04-.06-.1.05-.13.18-.2.36-.2 2.2-.03 4.02-.02 5.45.04.61.03 1.07.15 1.62.49.6.37 1.14.77 1.63 1.2.59.53 1.1.94 1.54 1.25l4.65 3.36c.25.18.45.56.59 1.15Z" fill="#F8BA43"/><path d="M29.9 18.78c-.48.04-.96.04-1.42-.02a9.34 9.34 0 0 1-1.73-.37.14.14 0 0 0-.15.05.13.13 0 0 0 0 .17l1.5 1.77c.05.04.1.07.15.08.9.13 1.8.05 2.7-.24.05.25.12.5.22.74.02.05.02.1.01.13-.01.07-.04.1-.09.12-.46.27-.94.4-1.46.39l-1.66-.06c-.54 0-1.1-.05-1.67-.12-.64-.09-1.32-.15-2.03-.19-.1 0-.18 0-.25.02-.25.06-.28.15-.1.27-.16.1-.18.25-.07.46.17.35.34.6.51.75-.5.04-1.1.22-1.21.75-.03.14-.01.35.05.63.4 1.77.63 2.77.7 3.02.07.35.2.6.36.73.67.54 1.34.62 2.21.57.24-.01.56-.09.94-.24l.93-.33c.08.09.1.16.09.23-.2.74-.56 1.38-1.06 1.92-.09.1-.2.15-.33.16l-1.93.14a.49.49 0 0 1-.33-.09l-1.26-.88c-.18-.13-.32-.3-.4-.51l-.58-1.62.4-.25a.18.18 0 0 0 .08-.14c.12-.8-.44-.91-1.07-.97.03-.88.18-1.74.43-2.6.14-.46.22-.8.25-1 .06-.43.04-.78-.04-1.03-.12-.34-.24-.73-.37-1.18.48.25.92.45 1.34.57.3.1.51 0 .65-.26.08-.17.14-.29.16-.36a.23.23 0 0 0-.02-.17 4.76 4.76 0 0 1-.32-.8 1.91 1.91 0 0 1 0-.76c.65-.01 2.4 0 2.68-.74.15-.39-.42-.7-.72-.72a5.7 5.7 0 0 0-1.88.13c-.15-.16-.1-.28.12-.33.4-.1.88-.25 1.46-.44.54-.17 1.03-.1 1.55.25.97.65 1.86 1.43 2.66 2.37Z" fill="#A3A3A3"/><path d="M24.02 18.26c-.1-.48-.08-.92.1-1.33a5.7 5.7 0 0 1 1.87-.13c.3.03.87.33.72.72-.29.74-2.03.73-2.69.74Z" fill="#010101"/><path d="M29.9 18.78c.5.39.85.87 1.05 1.44-.9.3-1.8.37-2.7.24a.23.23 0 0 1-.14-.08l-1.5-1.77a.14.14 0 0 1 .14-.22c.58.18 1.15.3 1.73.37.46.06.94.06 1.42.02Z" fill="#595959"/><path d="M27.38 20.2c.24.23.4.41.5.55a.1.1 0 0 1-.01.1.09.09 0 0 1-.1.04 5.98 5.98 0 0 1-2-.88 2.2 2.2 0 0 1-.68-.77.25.25 0 0 1 .1-.35c.17-.1.4-.05.58.07.74.51 1.27.93 1.61 1.24Z" fill="#F8E7CB"/><path d="M35.06 20.05c-.28.52-.27 1.07.02 1.22.29.16.75-.14 1.03-.66s.27-1.07-.02-1.22c-.29-.16-.75.14-1.03.66Z" fill="#6C0B00"/><path d="M22.22 20.04c.13.45.25.84.37 1.18.08.25.1.6.04 1.04-.03.2-.1.53-.25 1-.25.85-.4 1.71-.43 2.59l-1.13.87a.63.63 0 0 1-.39.13c-.37-.01-.74-.11-1.1-.3a.17.17 0 0 1-.08-.13c-.03-.34-.07-1.1-.12-2.28-.02-.34.05-.73.2-1.18.38-1.18.65-1.94.81-2.29.1-.23.53-.36.72-.44.5-.21.95-.28 1.36-.19Z" fill="#595959"/><path d="M19.67 23.04c-.23 1.51.05 2.8.63 2.9.58.08 1.24-1.07 1.47-2.58.23-1.51-.05-2.8-.63-2.9-.58-.09-1.23 1.07-1.47 2.58ZM31.1 21.21c.07.04.15.2.24.46a1.5 1.5 0 0 1-.62.22l-1.44.07-4.75-.38-.6-.06c-.2-.12-.16-.21.1-.27a.92.92 0 0 1 .24-.02c.71.04 1.4.1 2.03.19.57.07 1.13.11 1.67.12l1.66.06c.52.01 1-.12 1.46-.39Z" fill="#010101"/><path d="M24.53 21.58c.08.29.2.46.4.52.45.14.6.34.46.59l-1.03.04c-.17-.15-.34-.4-.51-.75-.11-.2-.08-.36.08-.46l.6.06Z" fill="#F8E7CB"/><path d="M29.28 21.96c.1.2.1.36 0 .46-.05.04-.12.07-.24.1-.09.01-.17.04-.24.08l-3.4.09c.13-.25-.02-.45-.48-.6-.18-.05-.31-.22-.4-.5l4.76.37Z" fill="#A3A3A3"/><path d="M31.34 21.67c.46 1.2.82 2.4 1.08 3.6a5.1 5.1 0 0 0-.39 1.78.2.2 0 0 1-.07.14l-1.11 1.01c.13-.42 0-.4-.4.05a.16.16 0 0 0-.04.15c.1.46.13.77.07.93-.4 1.12-.7 2.28-.91 3.48a.74.74 0 0 0 .05.48c.05.09.16.17.35.25.14.06.27.12.4.2-.27 0-.65-.13-.87-.06l-.47.17a.27.27 0 0 1-.16 0 1.2 1.2 0 0 1-.42-.2.17.17 0 0 1-.05-.22c.34-.7.59-1.4.76-2.12.06-.24.05-.5-.03-.78-.2-.77-.69-.68-1.3-.58-.14.02-.27.06-.4.13-.23.12-.4.2-.53.23-.23.07-.54.18-.9.34-.58.25-1.88.55-2.5.23a.88.88 0 0 1-.33-.28 4.93 4.93 0 0 1-.8-2.17c-.17-.48-.12-.9.17-1.22l.58 1.62c.08.2.22.38.4.51l1.26.88c.1.07.2.1.33.1l1.93-.15a.49.49 0 0 0 .33-.16c.5-.54.85-1.18 1.06-1.92.01-.07-.02-.14-.1-.23.62-.24 1.23-.46 1.85-.66.6-.2.82-.67 1.17-1.29.34-.6.3-1.24-.12-1.94-.3-.48-.76-.9-1.4-1.23a1.1 1.1 0 0 0-.5-.1 4 4 0 0 1-.53-.04c.07-.04.15-.07.24-.08.12-.03.2-.06.23-.1.11-.1.11-.26.01-.46l1.44-.07c.16 0 .36-.08.62-.22Z" fill="#595959"/><path d="M41.99 22.75c.27.53.48 1.09.61 1.66.4 1.66.6 3.37.56 5.1a36.17 36.17 0 0 1-1.13 8.4c-.08.3-.23.58-.46.81-1.64 1.71-4.04 2.93-6.26 3.68-.44.15-.87.2-1.36.17a65.84 65.84 0 0 1-4.42-.53.17.17 0 0 1-.07-.13l.02-.08c.34-.63.7-1.27 1.1-1.93.23-.4.52-.6.98-.74.42-.13.9-.3 1.47-.5.27-.11.45-.23.53-.36.13-.2.24-.4.35-.6a.2.2 0 0 1 .18-.1c1.12.08 2.53.11 3.5-.41a11 11 0 0 0 1.88-1.3c.55-.47.86-1 .93-1.59 0-.05.03-.1.07-.15a6.47 6.47 0 0 0 1.32-1.86c.38-.91.08-2.24-.34-3.1a27 27 0 0 1-.32-.77 1.71 1.71 0 0 0-.66-.82l-.58-.38c-.91-.75-1.58-1.32-2-1.73-.1-.08-.08-.16.03-.22.44-.25.76-.6.95-1.08.17-.41.17-.88.02-1.4.25-.47.68-.7 1.3-.65.22.02.52.1.9.27l.9.34Z" fill="#F8E7CB"/><path d="M38.3 23.29c.01.75-.25 1.32-.77 1.7-.1.03-.2.01-.26-.04-.31-.28-.76-.73-1.33-1.35a.19.19 0 0 1-.05-.15c.06-.53.27-.93.64-1.23a.2.2 0 0 1 .18-.04c.69.18 1.22.55 1.6 1.1Z" fill="#1B1B1B"/><path d="M35.5 23.37c.44.84.92 1.5 1.43 1.95l1.96 1.76c.05.05.04.07-.02.08h-.6c-1.1-.01-3.14.3-3.65 1.5-.05.13-.05.32 0 .55.24.92.78 1.62 1.6 2.1.06.02.06.06 0 .1-.29.2-.37.46-.23.76a.26.26 0 0 0 .3.15.26.26 0 0 0 .11-.05c.25-.21.3-.42.15-.63-.13-.18-.1-.22.1-.1.43.23.88.42 1.36.55.06.02.1.05.1.11.02.57.01.95-.03 1.13-.03.15-.17.29-.42.43A12.1 12.1 0 0 1 34 35.13a.39.39 0 0 1-.47-.38V32.8c0-.07.03-.12.09-.16.27-.2.45-.33.54-.38.58-.35.36-.7.14-1.26l-.34-.8a1.7 1.7 0 0 1-.19-.8c.04-.41.1-.97-.01-1.42l-.5-1.73-.88-3.06c1.27-1.15 2.3-1.1 3.11.18Z" fill="#F8E7CB"/><path d="M28.8 22.6a4 4 0 0 0 .53.04c.2 0 .37.03.5.1.64.34 1.1.75 1.4 1.23.42.7.46 1.34.12 1.94-.35.62-.57 1.09-1.17 1.29-.62.2-1.23.42-1.84.66l-.93.33c-.38.15-.7.23-.94.24-.87.04-1.54-.03-2.2-.57-.17-.14-.3-.38-.38-.73l-.69-3.02a1.6 1.6 0 0 1-.05-.63c.11-.53.7-.71 1.21-.75l1.03-.04 3.4-.1Z" fill="#1B1B1B"/><path d="M36.34 22.93c-.09.25.02.5.24.58.22.08.46-.06.55-.3.09-.25-.02-.5-.24-.58-.22-.08-.47.06-.55.3Z" fill="#F8E7CB"/><path d="M27.74 27.44c.02-.14-.1-.2-.39-.18.36-.06 1-.26 1.88-.58.78-.29 1.26-.73 1.43-1.32.18-.58.06-1.03-.34-1.34-.4-.32-.73-.49-.97-.51-.83-.08-1.96-.06-3.4.07l-.87.09c-.32.09-.56.3-.7.62-.14.3-.19.63-.13.97.06.36.11.64.16.84.07.28.17.55.3.8-.1 0-.17.04-.22.1a8.8 8.8 0 0 1-.29-.87 42.86 42.86 0 0 1-.47-2.3c-.05-.32.07-.5.37-.5h.19c1.27-.14 2.8-.22 4.6-.23.4 0 .68.05.85.15.44.26 1.26.98 1.28 1.55.02.48-.13.95-.43 1.42-.13.21-.4.4-.78.55-.68.27-1.37.5-2.07.67Z" fill="#595959"/><path d="M37.53 25c.52-.39.78-.96.77-1.71.32.78.1 1.37-.64 1.76-.03.02-.05.02-.07 0a.2.2 0 0 1-.06-.05Z" fill="#F8E7CB"/><path d="M25.02 24.2c.1-.07.26-.12.5-.13 1.82-.12 3.07-.14 3.75-.05.26.03.51.18.77.46.55.58-.18 1.45-.75 1.66-.93.35-2 .64-3.22.85-.18.04-.39-.04-.64-.22-.62-.46-.7-1.46-.6-2.21a.53.53 0 0 1 .2-.35Z" fill="#010101"/><path d="M26.31 26.2a.32.32 0 0 1-.43-.09l-.06-.08a1.45 1.45 0 0 1-.17-.35 1.14 1.14 0 0 1-.05-.36c0-.11.02-.22.06-.3a.5.5 0 0 1 .18-.22l.03-.02a.5.5 0 0 1 .27-.08c.1 0 .2.02.3.06a1.44 1.44 0 0 1 .57.49l.05.08a.32.32 0 0 1-.09.44l-.66.43Z" fill="#E5220D"/><path d="m32.42 25.28.3.88c-.11.32-.17.64-.18.98 0 .15-.03.25-.08.32-.22.34-.78.63-.94.77a.43.43 0 0 0-.13.46c.04.17.1.3.17.4a.21.21 0 0 0 .32.02l.4-.4c.1-.1.19-.08.27.04.14.22.26.47.34.77a.2.2 0 0 1-.03.17c-.12.18-.28.47-.5.87-.13.23-.32.35-.55.47a.16.16 0 0 0-.09.12.16.16 0 0 0 .05.14c.2.19.42.23.66.14a.2.2 0 0 0 .1-.11c.1-.25.1-.5.33-.68.05-.04.2-.1.44-.17.19-.06.2-.2.06-.38.2.2.3.47.29.81a.47.47 0 0 0-.33.04c-.35.13-.26.55-.44.82a.08.08 0 0 1-.05.04l-.86.27a.16.16 0 0 1-.19-.06L31 31.1a.38.38 0 0 1 .04-.53l.27-.23c.06-.04.07-.1.06-.17l-.52-1.96 1.11-1a.2.2 0 0 0 .07-.15c.03-.62.16-1.21.39-1.77Z" fill="#1B1B1B"/><path d="m32.73 26.16.47 1.57c.08.28.12.59.1.93-.03.52 0 1 .06 1.43.15.19.13.31-.06.38-.25.07-.4.13-.44.17-.23.18-.22.43-.32.68a.2.2 0 0 1-.12.11c-.23.1-.45.04-.65-.14a.16.16 0 0 1-.02-.2.16.16 0 0 1 .05-.06c.24-.12.43-.24.55-.47a13.4 13.4 0 0 1 .54-.95.2.2 0 0 0 0-.09c-.08-.3-.2-.56-.35-.77-.08-.13-.17-.13-.27-.03l-.4.4a.21.21 0 0 1-.31-.03 1.2 1.2 0 0 1-.17-.4.43.43 0 0 1 .13-.46c.16-.15.72-.43.94-.77a.62.62 0 0 0 .08-.32c0-.34.07-.66.19-.98Z" fill="#010101"/><path d="M24.71 26.9c.34.36.68.55 1.02.57.23 0 .77-.06 1.62-.21.28-.02.41.04.39.18-.58.27-1 .41-1.27.44-.63.07-1.95-.09-1.98-.87.05-.07.12-.1.23-.1Z" fill="#A3A3A3"/><path d="M35.1 29.27c-.1-.22-.05-.44.14-.66.2-.24.49-.43.88-.57.94-.34 2-.46 3.15-.36.57.05.95.18 1.16.4.23.24.34.56.35.98 0 .23-.12.48-.35.73-.72.77-1.35 1.34-1.87 1.7-.4.26-.9.14-1.37-.07a2.8 2.8 0 0 1-.55-.32l-.55-.42a3.77 3.77 0 0 1-.98-1.41Z" fill="#2B2415"/><path d="m30.85 28.2.52 1.96c.01.07 0 .13-.06.17l-.27.23a.38.38 0 0 0-.04.53l.78.92c.05.06.11.08.19.06l.86-.28c.02 0 .04-.01.05-.03.18-.27.09-.69.44-.82.13-.02.2.02.2.1.05.36-.07.7-.36 1.01A3.07 3.07 0 0 0 33 33.7a.1.1 0 0 1-.1.08l-1.2.01a2.63 2.63 0 0 0-1.32-.06 3.88 3.88 0 0 0-.4-.2c-.2-.07-.31-.15-.36-.24a.74.74 0 0 1-.05-.48c.2-1.2.5-2.36.91-3.48.06-.16.04-.47-.07-.93 0-.06 0-.1.04-.15.4-.45.53-.47.4-.05Z" fill="#A3A3A3"/><path d="M22.38 28.43c.1.8.36 1.53.8 2.17.07.1.18.2.33.28.61.32 1.91.02 2.49-.23.36-.16.67-.27.9-.34.13-.03.3-.1.54-.23.12-.07.25-.11.39-.13.62-.1 1.1-.19 1.3.58.08.28.09.54.03.78-.17.72-.42 1.42-.76 2.12a.17.17 0 0 0 .05.21c.13.1.27.17.42.21.06.02.11.02.16 0l.48-.17c.21-.07.59.06.87.05.45-.09.89-.07 1.33.07.43.04.82-.09 1.27.08.06.02.09.06.1.12.03.14-.02.24-.14.32-.3-.06-.58-.06-.86.02-.08.02-.12.07-.12.15v.72c0 .03 0 .04-.04.04h-.08c-.05 0-.07-.02-.08-.06l-.12-.7a.21.21 0 0 0-.1-.16c-.32-.17-.68-.2-1.08-.11-.07.01-.1.05-.11.11l-.07.45c-.03.22-.08.22-.15.01l-.16-.5a.23.23 0 0 0-.1-.14c-.23-.13-.48-.11-.77.05a.18.18 0 0 0-.09.14l-.1.72-.02.02-.08.02h-.02v-.02l-.1-.79a.29.29 0 0 0-.1-.17.26.26 0 0 0-.17-.07c-.43 0-.63.17-.6.53 0 .04-.01.06-.05.06h-.09c-.06 0-.1-.04-.1-.1v-.29c0-.05-.02-.1-.06-.14a.4.4 0 0 0-.28-.1.16.16 0 0 0-.14.07c-.15.22-.24.43-.27.66 0 .06.02.11.09.13.63.23 1.14.38 1.53.47.31.07.56.14.74.22.34.15.65.16.9.03.06-.03.11-.02.16.03.1.12.18.18.26.19.78.06 1.74.03 2.9-.08.05.08.07.19.06.31l-.11.03c-.06.02-.1.05-.1.11l.02.27a.17.17 0 0 1-.04.02c-.06.01-.09 0-.1-.06l-.1-.28c-.01-.05-.05-.08-.1-.08a18.2 18.2 0 0 1-3.3-.08c-.2-.02-.37-.07-.52-.14a1.09 1.09 0 0 0-.5-.1c-.05 0-.1-.02-.15-.04l-.5-.2a.17.17 0 0 0-.13 0 .17.17 0 0 0-.09.1c-.15.44-.03.78.35 1 .05.03.1.02.12-.03l.17-.23c.05-.07.09-.06.12.02.05.1.06.2.05.3 0 .1.04.18.14.22l.39.17c.1.04.16 0 .16-.11v-.4c0-.03 0-.05.02-.06.02-.03.05-.03.07-.03.03 0 .05.02.07.05.05.15.07.28.07.41 0 .09.03.15.1.18l.35.14c.1.05.16.02.17-.1 0-.1.02-.18.03-.22.08-.26.14-.26.2.01l.03.3c0 .06.04.1.1.1.43.05.78.06 1.06.03.18-.02.48-.03.88-.03.36 0 .72-.08 1.07-.24 0 .15-.1.34-.26.56l-.99.1a7.1 7.1 0 0 1-2.4-.17 6.75 6.75 0 0 0-.78-.19c-.2-.03-.45-.13-.77-.28-.44-.22-.9-.43-1.39-.63-.12-.47-.34-.6-.66-.36-.15.11-.2.25-.17.42.11.47.18 1.65-.62 1.48-.53-.11-.84-.43-.91-.94a14 14 0 0 0-.1-.62.22.22 0 0 0-.24-.17c-.33.04-.55-.1-.66-.42-.01-.05-.3-.76-.88-2.13-.37-.87.25-1.55-.1-2.36a.35.35 0 0 0-.42-.2.35.35 0 0 0-.15.1.6.6 0 0 1-.52.18.32.32 0 0 1-.14-.05.16.16 0 0 0-.08-.03c-.06 0-.1.03-.1.09l-.22 1.64c-.46-.21-.71-.61-.77-1.21-.08-.94-.1-1.57-.06-1.9a.7.7 0 0 1 .24-.45c.08-.07.22-.14.43-.22a5.58 5.58 0 0 0 1.63-.88Z" fill="#010101"/><path d="m24.47 28.88.65.4a.19.19 0 0 1 .1.16.2.2 0 0 1-.1.17.47.47 0 0 1-.34.07.18.18 0 0 1-.14-.1l-.33-.57c-.1-.21-.05-.26.16-.13ZM26.46 29.05l-.44.14a.23.23 0 0 0-.16.28l.1.3c.03.12.16.19.28.15l.44-.13c.13-.04.2-.17.16-.29l-.09-.3a.23.23 0 0 0-.29-.15Z" fill="#F8E7CB"/><path d="M32.23 29.43h.02c.04.02.06.06.07.1a.3.3 0 0 1 .02.13c-.01.04-.02.1-.05.14a.6.6 0 0 1-.08.14l-.18.2a.6.6 0 0 1-.12.12.47.47 0 0 1-.14.06.3.3 0 0 1-.13 0 .21.21 0 0 1-.1-.04l-.01-.01v-.01l.7-.83Z" fill="#A3A3A3"/><path d="M40.88 30.43c.07 0 .12-.05.14-.14a.17.17 0 0 0-.04-.15c-.12-.13-.15-.27-.08-.41.03-.07.08-.08.13-.02.15.14.24.31.27.52.08.5.19.93.32 1.3.02.03 0 .05-.03.04l-.44-.1a.19.19 0 0 0-.16.03.35.35 0 0 0-.14.29c0 .07.02.12.08.16l.25.18c.11.07.13.17.05.28-.29.4-.57.74-.84 1.05a.9.9 0 0 1-.6.33c-.49.04-.88-.03-1.16-.2a.2.2 0 0 1-.1-.19v-1.28c0-.07.03-.12.1-.16l.39-.23c.04-.02.08-.01.11.03l.1.18c.03.05.07.08.12.1.2.1.39.05.54-.15.12-.15.1-.28-.06-.39l-.16-.11c-.05-.04-.06-.08-.01-.13l.86-.86a.1.1 0 0 1 .12-.03c.1.04.19.06.24.06Z" fill="#F8E7CB"/><path d="M27.74 30.42c.27-.11.52-.16.77-.14a.26.26 0 0 1 .24.26v.64a.27.27 0 0 1-.32.26c-.4-.08-.68-.3-.83-.66a.27.27 0 0 1 .14-.36ZM33.65 30.9c.15.2.28.45.38.74a.18.18 0 0 1-.05.18c-.29.28-.56.36-.82.23.29-.31.41-.65.37-1-.01-.09-.08-.13-.2-.11.1-.05.2-.07.32-.04ZM26.88 36.46c-.58-.04-.64.42-.17 1.36-.1.63-.02 1.05.24 1.26.13.27.2.62.22 1.04 0 .06.02.11.06.16.42.41 1.04.63 1.56.23l.5-.35c.04-.04.04-.08 0-.12a.88.88 0 0 1-.19-.28v-.62l.1-.9a.35.35 0 0 1 .4-.3c.67.1 1.32.18 1.97.23.35.02.73-.01 1.13-.1.1-.02.16-.08.2-.17.02-.07 0-.1-.08-.11l-.6-.06.99-.1c-.01.31-.19.52-.54.62a.19.19 0 0 0-.09.04.27.27 0 0 0-.03.04.15.15 0 0 1-.07.06c-.26.13-.86.3-1.8.5-.2.05-.36.2-.5.45l-1 1.92c-.8-.16-1.64-.08-2.29-.58a20.59 20.59 0 0 1-2.28-2.1c-.4-.42-1.3-1.45-2.72-3.1.01-.12.05-.22.13-.3.25.38.52.66.8.84.43.27.54.18.32-.28l-.8-1.79a.42.42 0 0 0-.17-.18.37.37 0 0 0-.24-.05c-.13.01-.28.12-.46.3-.3-.3-.5-.61-.56-.93l.21-1.64c.01-.06.05-.1.11-.09.03 0 .06.01.08.03.05.03.1.04.14.05a.6.6 0 0 0 .52-.18.35.35 0 0 1 .48-.03c.04.03.08.08.1.13.35.8-.28 1.49.09 2.36l.88 2.13c.11.32.33.46.66.42a.22.22 0 0 1 .24.17l.1.62c.07.51.38.83.91.94.8.17.73-1.01.62-1.48-.03-.17.02-.3.17-.42.33-.23.55-.11.66.36Z" fill="#595959"/><path d="m27.42 31.28.3.3a.08.08 0 0 1 0 .1l-2.43 2.44a.07.07 0 0 1-.07.02.08.08 0 0 1-.05-.06l-.15-.45a.08.08 0 0 1 .02-.08l2.27-2.27a.08.08 0 0 1 .11 0ZM24.05 31.56a.13.13 0 0 1 .11.14v.01a.66.66 0 0 1-.2.4.55.55 0 0 1-.2.12.5.5 0 0 1-.2.02h-.02a.5.5 0 0 1-.2-.07.55.55 0 0 1-.17-.15.66.66 0 0 1-.11-.44v-.01a.13.13 0 0 1 .1-.11h.04l.85.09Z" fill="#595959"/><path d="M30.45 32.89a.12.12 0 0 1-.1-.09c-.01-.01-.02-.03-.01-.05v-.02c.03-.33.09-.65.17-.88.08-.23.17-.35.25-.34h.03c.08 0 .15.14.18.38.04.25.04.57.01.9v.02a.12.12 0 0 1-.04.09.12.12 0 0 1-.1.02l-.4-.03Z" fill="#F8E7CB"/><path d="M35.06 32.65c.14-.11.18-.3.09-.41-.1-.12-.28-.12-.42-.01-.14.11-.17.3-.08.4.09.12.28.13.41.02Z" fill="#6C0B00"/><path d="m25.25 36.08-.28.24a.14.14 0 0 1-.23-.06l-1.11-3.54a.14.14 0 0 1 .09-.18l.33-.1a.14.14 0 0 1 .18.09l1.07 3.4a.14.14 0 0 1-.05.15Z" fill="#595959"/><path d="M38.9 32.74a.17.17 0 0 1 .1-.14l.07-.02h.08a.66.66 0 0 1 .43.17c.05.06.1.12.13.18a.5.5 0 0 1 .04.21v.03c0 .14-.07.28-.19.38a.64.64 0 0 1-.43.15h-.08a.16.16 0 0 1-.11-.05.16.16 0 0 1-.05-.12l.01-.79ZM37.3 33.45a.28.28 0 1 0 0-.56.28.28 0 0 0 0 .56ZM34.57 34.32a.47.47 0 1 0 0-.94.47.47 0 0 0 0 .94Z" fill="#6C0B00"/><path d="M22.02 35.18c.13-.45-.05-.84-.55-1.15.18-.2.33-.3.46-.31.08-.01.16 0 .24.05.07.04.13.1.16.18l.81 1.78c.21.47.1.56-.32.29a2.79 2.79 0 0 1-.8-.84Z" fill="#010101"/><path d="M34.04 35.64c.92-.23 1.81-.5 2.66-.82.16-.06.65-.34 1.47-.85.05-.03.1-.03.16 0 .46.2.92.3 1.38.31a.22.22 0 0 1 .19.33c-.22.37-.5.7-.85.97-.62.51-1.36 1-2.2 1.46a.53.53 0 0 1-.25.07h-2.5c-.08 0-.12-.04-.12-.12v-1.27a.08.08 0 0 1 .06-.08Z" fill="#F8E7CB"/><path d="M32.94 34.32c.1.18.16.38.2.6.02.1.11.27.27.51.06.09.06.19 0 .3-1.16.11-2.12.14-2.9.08-.08 0-.16-.07-.26-.19-.05-.05-.1-.06-.16-.03-.25.13-.56.12-.9-.03a4.13 4.13 0 0 0-.74-.22c-.39-.09-.9-.24-1.54-.47-.06-.02-.09-.07-.08-.13.03-.23.12-.44.27-.66a.16.16 0 0 1 .14-.08c.1 0 .2.04.28.11.04.04.06.09.06.14v.29c0 .06.04.1.1.1h.08c.05 0 .06-.02.06-.06-.03-.36.17-.54.6-.53.07 0 .13.02.18.07.04.04.08.1.08.17l.1.79a.03.03 0 0 0 .01.02h.02l.08-.02.02-.02.1-.72c0-.06.04-.11.1-.14.27-.16.53-.18.76-.05.05.03.09.08.1.14l.16.5c.07.21.12.21.15 0l.06-.46c.01-.06.05-.1.12-.11.4-.1.76-.06 1.07.1.06.04.1.1.11.17l.12.7c0 .04.03.06.08.06h.08c.03 0 .04-.01.04-.04v-.72c0-.08.04-.13.12-.15.28-.08.57-.08.86-.02ZM26.6 35.3a.03.03 0 0 1 .01-.05c.15-.1.32-.13.49-.1.16.03.3.12.4.26l.03.04a.62.62 0 0 1 0 .7.64.64 0 0 1-.18.18.03.03 0 0 1-.05 0l-.7-1.04Z" fill="#D9D9D9"/><path d="M21.89 35.48c1.42 1.65 2.32 2.68 2.72 3.1.83.87 1.6 1.57 2.28 2.1.65.5 1.5.42 2.29.58l-.57.77c-.89 0-1.56-.18-2.02-.52a11.3 11.3 0 0 1-1.4-1.22c-.47-.49-.57-.42-.29.2l1.86 4.08c.19.4.12.72-.2.97-.68.52-1.45.6-2.33.24a.12.12 0 0 1-.07-.06L23.06 43a.15.15 0 0 0-.22-.07l-.72.42a.3.3 0 0 0-.15.28c0 .13.02.27.04.42.02.14 0 .26-.04.38-.26.68-.86.98-1.56.77-.3-.1-.9-.22-1.02-.51-.08-.17-.16-.5-.24-.99-.4-2.34-.54-4.72-.41-7.14.33.02.6.2.82.57-.04 2.3.12 4.53.48 6.7.06.33.26.52.61.57h.07c.31.05.44-.1.38-.41a57.06 57.06 0 0 1-.78-6.47l.1-.04a.2.2 0 0 0 .09-.04 3.7 3.7 0 0 0 1.28-1.9c.01-.04.05-.06.1-.06Z" fill="#1B1B1B"/><path d="M33.28 36.45c.06.02.12.06.17.13l.01.5c-.34.15-.7.23-1.06.23a8 8 0 0 0-.88.03c-.28.03-.63.02-1.06-.03-.06 0-.1-.04-.1-.1a3.65 3.65 0 0 0-.03-.3c-.06-.27-.12-.27-.2 0l-.03.2c0 .13-.07.16-.18.11l-.34-.14c-.07-.03-.1-.1-.1-.18 0-.13-.02-.26-.08-.4a.08.08 0 0 0-.06-.06c-.02 0-.05 0-.07.03a.09.09 0 0 0-.02.05v.41c0 .12-.05.15-.16.1l-.4-.16c-.1-.04-.14-.12-.13-.22a.6.6 0 0 0-.05-.3c-.03-.08-.07-.09-.12-.02l-.17.23c-.03.05-.07.06-.12.03-.38-.22-.5-.56-.35-1a.17.17 0 0 1 .09-.1.17.17 0 0 1 .14 0l.48.2c.06.02.1.03.16.03.17 0 .34.04.5.11.15.07.32.12.52.14 1.03.13 2.13.15 3.3.08.05 0 .09.03.1.08l.1.28c.01.05.04.07.1.06l.04-.02Z" fill="#D9D9D9"/><path d="M33.47 36.04c.06.13.06.31-.01.54a.43.43 0 0 0-.18-.13l-.01-.27c0-.06.03-.1.09-.1l.11-.04Z" fill="#A3A3A3"/><path d="M25.47 36.46a.2.2 0 0 1 .27.11v.03c.1.23.14.47.12.67-.02.2-.1.33-.22.38h-.02a.3.3 0 0 1-.2.02.62.62 0 0 1-.23-.13 1.19 1.19 0 0 1-.21-.24c-.07-.1-.12-.2-.17-.32l-.01-.03a.2.2 0 0 1 .11-.27l.56-.22Z" fill="#595959"/><path d="M26.88 36.46c.49.2.95.41 1.4.63.3.15.56.25.76.28.26.05.53.11.79.2.73.22 1.6.2 2.39.16l.6.06c.07 0 .1.04.07.11-.03.09-.1.15-.2.17-.4.09-.77.12-1.12.1-.65-.05-1.3-.13-1.96-.23a.35.35 0 0 0-.4.3l-.11.9c-.27-.85-.67-1.43-1.2-1.74-.54-.32-.93-.17-1.19.42-.47-.94-.41-1.4.17-1.36Z" fill="#A3A3A3"/><path d="m21.87 36.7.84 1.03c.2.27.38.58.5.95.76 2.14 1.64 4.19 2.67 6.15.06.12.03.2-.1.24l-.5.16c-.2.06-.35 0-.43-.2a86.15 86.15 0 0 1-3.13-8.38.05.05 0 0 1 .09-.03l.06.08ZM20.32 37.52c.13 2.15.4 4.3.78 6.47.06.32-.07.46-.38.41h-.07c-.35-.05-.55-.24-.61-.57-.36-2.17-.52-4.4-.48-6.7l.76.4Z" fill="#595959"/><path d="M29.1 39.14v.62c-.41-.68-1.53-1.83-2.15-.68-.26-.2-.34-.63-.24-1.26.26-.6.65-.74 1.18-.42.54.31.94.9 1.2 1.74Z" fill="#010101"/><path d="M21.74 40.7a.07.07 0 0 1-.09-.07v-.02a29.06 29.06 0 0 1-.28-1.62 5.17 5.17 0 0 1-.04-.5c0-.12 0-.18.03-.18.02 0 .06.05.1.16a17.66 17.66 0 0 1 .52 2.07v.02a.08.08 0 0 1 0 .06.07.07 0 0 1-.05.03l-.2.04Z" fill="#F8E7CB"/><path d="M29.1 39.76c.03.08.1.17.19.28.04.04.04.08-.01.11-.28.2-.44.33-.5.36-.51.4-1.13.18-1.55-.23a.23.23 0 0 1-.06-.16 2.81 2.81 0 0 0-.22-1.04c.62-1.15 1.74 0 2.15.68Z" fill="#A3A3A3"/><path d="m21.8 42.4-.12-.88c0-.05.01-.09.06-.1l.47-.15c.09-.03.15 0 .18.09l.2.5c.06.13.03.23-.1.3l-.55.32c-.08.05-.12.02-.14-.08Z" fill="#595959"/><path d="M36.04 43.08c0 .52-.06 1-.15 1.44-.08.34-.22.6-.42.76-.58.47-1.26.6-2.03.38a.42.42 0 0 1-.3-.45l.17-1.84c.35-.03.6 0 .76.08l-.05 1.15c-.01.26.1.34.35.27l.18-.06a.55.55 0 0 0 .4-.44l.21-1.05.88-.24Z" fill="#1B1B1B"/><path d="m35.16 43.32-.22 1.05a.55.55 0 0 1-.4.44l-.17.06c-.25.07-.36-.01-.35-.27l.05-1.15 1.09-.13Z" fill="#595959"/></svg>