<svg width="56" height="56" viewBox="0 0 56 56" xmlns="http://www.w3.org/2000/svg"><path d="M32.27 11.68a10.6 10.6 0 0 0-4.96.59c-1.1.39-1.7 1.05-1.8 2l-.88.2a4.1 4.1 0 0 0-1.97.17c-.09.03-.13 0-.12-.1.04-.65.25-1.23.63-1.75.3-.41.77-.86 1.42-1.34 2.61-.67 5.17-.59 7.68.23Z" fill="#D6C8BA"/><path d="M24.59 11.45c-.65.48-1.13.93-1.42 1.34-.38.52-.59 1.1-.63 1.75-.01.1.03.13.12.1a4.1 4.1 0 0 1 1.97-.18l-2.1.55-2.54.65c-.1.03-.13 0-.1-.1a6.66 6.66 0 0 1 2.43-3.3 7.42 7.42 0 0 1 2.27-.81Z" fill="#B2A493"/><path d="M32.27 11.68c2 .7 3.7 1.84 5.06 3.44.12.76-.03 1.4-.45 1.92a14.28 14.28 0 0 0-4.26-2.14 16.85 16.85 0 0 0-7.1-.63c.1-.95.7-1.61 1.79-2 1.68-.6 3.34-.8 4.96-.59Z" fill="#E7DACD"/><path d="M22.32 12.26c-1.2.9-2 2-2.43 3.3-.03.1 0 .13.1.1l2.54-.65-1.7.86-2 .9a.27.27 0 0 1-.33-.07.28.28 0 0 1-.07-.32 8.98 8.98 0 0 1 2.24-3.19l1.65-.93Z" fill="#8A7860"/><path d="M20.67 13.2a8.98 8.98 0 0 0-2.24 3.18.28.28 0 0 0 .07.32c.1.1.2.12.32.06l2.01-.89a10.53 10.53 0 0 0-4.79 5.32c0 .01-.01.02-.03.02l-.08-.02c-.07-.02-.1-.06-.07-.13l1.7-4.54a9.3 9.3 0 0 1 3.1-3.33Z" fill="#474034"/><path d="M32.62 14.9c-.13.19-.1.36.07.5.27.24.55.44.86.63a14.66 14.66 0 0 0-3.43-.89 9.28 9.28 0 0 0-5.47.48c-.07.03-.1.08-.08.15 0 .07.05.1.12.1l1.63.07c-1.67.29-3.03.65-4.08 1.08-1.34.54-2.51 1.31-3.5 2.3-.36.44-.62.91-.79 1.42-1.14 1.52-1.2 3.39-.19 5.62l.25.51a8.58 8.58 0 0 1 .8 2.34c.17.94.35 1.6.56 1.99a6.77 6.77 0 0 0 4.08 3.17c1.63.54 3.4.71 5.32.53.06 0 .1-.04.1-.1 0-.06-.04-.1-.1-.1a12.8 12.8 0 0 1-4.24-1.16 9.85 9.85 0 0 1-2.05-1.17c-1.25-1.1-1.62-2.77-1.1-5.03a7.26 7.26 0 0 0 .1 2.83c.17.58.5 1.08.98 1.5a12.22 12.22 0 0 0 1.88 1.21c.8.47 1.44.76 1.89.9.89.25 1.85.32 2.88.2a22.73 22.73 0 0 0 3.42-.74 8.25 8.25 0 0 1-4.64 2.07c-.07 0-.1.04-.1.11 0 .08.03.12.1.12l1.76.16c.08 0 .12.05.13.13.01.08-.02.13-.1.16l-1.2.43-.46.06c-1.96.01-3.97-.4-6.03-1.2a9 9 0 0 1-4-3.01c-.18-.24-.46-.72-.84-1.44-.52-.97-.7-.97-.52 0l-.47-1.05-.49-2.2a.4.4 0 0 0-.14-.24 2.97 2.97 0 0 1-1.02-1.84 5.5 5.5 0 0 1 .05-2.15 5.24 5.24 0 0 1 .8-1.74c.19-.31.33-.64.43-1 .3-1 .52-1.68.64-2.01.25-.68.63-1.37 1.12-2.08l-1.7 4.54c-.02.07 0 .1.08.13l.08.02c.02 0 .03 0 .03-.02.98-2.33 2.58-4.1 4.8-5.32l1.7-.86 2.1-.55.87-.2c2.47-.28 4.83-.07 7.1.64Z" fill="#262018"/><path d="m30.12 15.14-1.2.07c-.07 0-.12.05-.13.12 0 .07.02.12.1.14l1.6.5a13.3 13.3 0 0 0-4.18-.03l-1.62-.06c-.07 0-.11-.04-.12-.11-.02-.07.01-.12.08-.15a9.28 9.28 0 0 1 5.47-.48Z" fill="#474034"/><path d="M30.12 15.14c1.17.16 2.31.45 3.43.89l1.1.54c-.2.22-.46.33-.78.33l-3.39-.92-1.6-.5c-.07-.03-.1-.08-.09-.15.01-.07.06-.11.13-.12l1.2-.07Z" fill="#8A7860"/><path d="M41.35 23.7c.01.24-.1.41-.31.52a.29.29 0 0 1-.35-.05c-.37-.33-.46-.75-.26-1.26a.52.52 0 0 0-.13-.59c-.4-1.24-.7-2.01-.87-2.32a9.53 9.53 0 0 0-2.54-2.96c.41-.52.56-1.16.44-1.92.76.83 1.38 1.85 1.87 3.06.31.76.67 1.9 1.08 3.43.03.1.08.18.17.23.58.4.88 1.02.9 1.86Z" fill="#D6C8BA"/><path d="m30.48 15.98 3.4.92a9.83 9.83 0 0 1 3.83 2.77 7.08 7.08 0 0 1 .89 1.5l.16 2.12a.79.79 0 0 1-.08.4c-.38.76-.62 1.6-.75 2.54-.03.23-.32.87-.87 1.94-.05.1-.1.22-.13.34l-.47 1.89c0 .04-.03.06-.06.07-.04 0-.07 0-.1-.04l-1.63-2.08a.73.73 0 0 0-.14-.42c0-.1-.02-.19-.07-.28l-.13-.3-.21-2.22.85.78c.07.06.15.09.25.06a2.6 2.6 0 0 0 1.95-1.76c.75-1.28.76-2.37.05-3.27a.2.2 0 0 1-.02-.25c.08-.14.14-.27.17-.37.03-.13-.07-.28-.3-.47-.56-.47-1.19-.6-1.87-.39l-1.45.45a.94.94 0 0 1-.82.12c-.04-.01-.06-.04-.06-.1 0-.04.04-.07.08-.07.26-.02.47-.16.63-.42.05-.07.04-.15-.02-.22l-.72-.85a.3.3 0 0 0-.19-.1c-.27-.04-.46.02-.58.16-.13.28-.42.4-.89.36l-3.77-.15-2 .7a.95.95 0 0 0-.25.14c-.55.44-1.18.68-1.9.74-.1 0-.19-.02-.26-.1a5.86 5.86 0 0 0-1.6-.98 2.8 2.8 0 0 0-1.89.18c-.27.06-.53.06-.78 0 1-.99 2.17-1.76 3.5-2.3 1.06-.43 2.42-.8 4.08-1.08 1.35-.2 2.74-.2 4.17.04Z" fill="#171511"/><path d="m39.38 22.63-.02.37c0 .06-.03.08-.08.1-.06 0-.1-.03-.1-.08l-.58-1.85a7.08 7.08 0 0 0-.88-1.5 9.83 9.83 0 0 0-3.85-2.77c.32 0 .58-.11.79-.33a7.75 7.75 0 0 1 4.72 6.06ZM33.75 19.9c-.45.56-.98.71-1.6.46a.56.56 0 0 1-.18-.1 4.26 4.26 0 0 0-2.02-1c-.48-.1-1.22-.14-2.23-.14h-.7a5.2 5.2 0 0 1 1.93-.4c.04 0 .05-.01.01-.03a12.14 12.14 0 0 1-1.55-.05l3.77.15c.17.45.47.79.89 1.02.07.04.14.05.21 0 .08-.03.12-.1.12-.17l.08-.86c0-.1-.04-.18-.13-.22l-.28-.13c.12-.14.31-.2.58-.16a.3.3 0 0 1 .19.1l.72.85c.06.07.07.14.02.22-.16.26-.37.4-.63.42-.04 0-.07.03-.08.08 0 .05.02.08.06.1.27.08.54.04.82-.13Z" fill="#5E594F"/><path d="m32.07 18.43.28.13c.1.04.14.12.13.22l-.08.86c0 .08-.04.14-.12.18a.21.21 0 0 1-.21 0 1.9 1.9 0 0 1-.89-1.03c.47.04.76-.08.89-.36Z" fill="#E7DACD"/><path d="M27.41 18.64a12.14 12.14 0 0 0 1.55.05c.04.02.03.03 0 .03-.67 0-1.31.14-1.94.4-.2.18-.42.29-.66.32-.02 0-.02.01-.01.02.02.02.02.05 0 .1-.1.06-.77.35-2.04.9-.7.3-1.13.77-1.3 1.41-.12.46-.02.86.3 1.17.25.27.63.47 1.13.58a2.57 2.57 0 0 0-1.17.05c-.03 0-.04.03-.04.06s.02.05.05.06c.4.08.75.22 1.03.42.12.08.16.19.12.32a.28.28 0 0 1-.25.23l-.18.02-.76-.17c-.48-.1-.88-.3-1.2-.6a.34.34 0 0 1-.1-.24l-.2-3.44-.78-.96c-.06-.08-.05-.13.06-.15l.38-.08c.58.24 1.11.57 1.6.99.07.07.16.1.27.09.7-.06 1.34-.3 1.89-.74.08-.06.16-.1.25-.13l2-.7Z" fill="#875F46"/><path d="m21.4 19.14-.38.08c-.1.02-.13.07-.06.15l.77.96-.13 1.3-.1-1.14c-.02-.13-.1-.2-.23-.2h-2.64c-.05 0-.09-.03-.1-.07-.02-.05-.01-.1.03-.13l.95-.77a2.8 2.8 0 0 1 1.9-.18Z" fill="#55301B"/><path d="m33.75 19.9 1.45-.44.2.04c.07.02.11.06.12.14a.15.15 0 0 1-.07.17c-.35.21-.58.47-.72.78-.08.19-.15.5-.2.95l-.1.63-.26 2.1c-.5-1.9-1.49-3.18-2.99-3.88-1.48-.69-3.13-.66-4.94.1a.26.26 0 0 0-.17.2l-.09.4a12.4 12.4 0 0 0-.3 1.7c-.05.66.03 1.23.25 1.7l-1.28-.65c-.02-.07-.09-.12-.2-.16-.09-.06-.1-.08-.01-.06-.5-.11-.88-.3-1.14-.58-.3-.31-.4-.7-.29-1.17.17-.64.6-1.11 1.3-1.41a59.82 59.82 0 0 0 2.05-.9c.01-.05.01-.08-.01-.1v-.02c.25-.03.48-.14.67-.33h.7c1.01 0 1.75.06 2.23.15.78.16 1.45.49 2.02 1 .05.04.11.08.18.1.62.25 1.15.1 1.6-.45Z" fill="#A88D76"/><path d="M18.73 19.32c.25.06.51.06.78 0l-.95.77c-.04.04-.05.08-.04.13.02.04.06.07.1.07h2.65c.14 0 .21.07.22.2l.11 1.13.13 1.22-.08 3.5c.08-.9-.07-1.2-.46-.9a9.75 9.75 0 0 0-.92-2.6c-.11-.22-.15-.73-.1-1.53.01-.1-.04-.18-.14-.22-.38-.15-.72-.15-1.02 0a.49.49 0 0 0-.23.24c-.31.68-.5 1.39-.54 2.14l-.28-2.73c.16-.5.42-.98.77-1.42Z" fill="#372A1B"/><path d="M37.17 24.2c-.74-.82-1.61-.98-2.61-.47a.17.17 0 0 1-.2 0 .18.18 0 0 1-.07-.18l.14-1.38.09-.63c.06-.44.13-.76.21-.95.14-.3.37-.57.72-.78.06-.04.09-.1.07-.17 0-.08-.05-.12-.12-.14l-.2-.04a1.91 1.91 0 0 1 1.88.4c.22.18.32.33.29.46-.03.1-.09.23-.17.37a.2.2 0 0 0 .02.25c.71.9.7 2-.05 3.27Z" fill="#55301B"/><path d="m34.17 24.26-.05.87.2 2.23c0 .9-.08 1.6-.22 2.13-.18.65-.5 1.23-.96 1.73-.14.15-.3.18-.47.08a13.25 13.25 0 0 1-2.9-2.18 3.2 3.2 0 0 0-.46-.39l-.5-.31c-.94-.58-1.5-1.13-1.67-1.66-.3-.95-.7-1.7-1.21-2.26a3.57 3.57 0 0 1-.25-1.71 12.4 12.4 0 0 1 .4-2.1c.01-.1.07-.17.16-.2 1.81-.76 3.46-.79 4.94-.1 1.5.7 2.5 1.99 2.99 3.87Z" fill="#D5AB93"/><path d="M23.24 24.61c-.3.16-.43.52-.36 1.1.02.18.03.3.02.37-.02.15.05.23.2.23h.88c.22 0 .32-.1.3-.32-.03-.5-.13-.9-.28-1.21l.18-.02c.13-.02.22-.1.25-.23a.28.28 0 0 0-.12-.32c-.28-.2-.63-.34-1.03-.42-.04 0-.05-.03-.05-.06s0-.05.04-.06c.33-.1.72-.12 1.17-.05-.08-.02-.08 0 0 .06l.61 2.3c.03.11 0 .19-.09.24l-2.48 1.44c-.2.11-.27.28-.23.5l.23 1.07c.06.3.24.42.54.36l3.55-.75c.1-.02.17.02.22.11.19.43.3.9.33 1.43a.2.2 0 0 1-.11.2.2.2 0 0 1-.23 0l-1.24-.72a.15.15 0 0 0-.16 0 .15.15 0 0 0-.08.14v.59c0 .14.07.24.2.3a7.02 7.02 0 0 0 2.26.32c.43.02.85.16 1.26.4a9 9 0 0 1 1.11.85c.17.14.36.22.57.24 1.03.12 1.82-.06 2.36-.52a4.54 4.54 0 0 0 1.21-1.37c.33-.75.41-1.71.26-2.88.08.1.13.24.14.42l-.18 2.49c0 .08-.04.16-.09.23l-.84 1.1a11.62 11.62 0 0 1-5.77 1.57.06.06 0 0 1-.07-.04c0-.03 0-.05.02-.07l1.7-1.47a.12.12 0 0 0 .05-.12.12.12 0 0 0-.09-.1 7.25 7.25 0 0 0-1.98-.18 6.03 6.03 0 0 1-2.86-.56 4.7 4.7 0 0 0-1.48-.08c-1.4.04-1.8-1.72-1.2-5.29.08-.46.03-1.46-.15-2.99l-.13-1.22.13-1.3.2 3.45c.01.1.05.17.12.23.31.3.71.5 1.2.61Z" fill="#68422A"/><path d="M32.87 23.42c-.73-.23-1.28-.12-1.65.34-.07.1-.16.1-.26.03a7.74 7.74 0 0 1-1.8-2.28l-.39-.66a.23.23 0 0 1 0-.26.23.23 0 0 1 .22-.12c2.09.03 3.43.97 4.02 2.8a.1.1 0 0 1-.03.12.1.1 0 0 1-.11.03Z" fill="#D6C8BA"/><path d="m17.95 20.74.3 2.73c.25.77.6 1.34 1.04 1.73.57.5 1.2.58 1.9.24.39-.3.54 0 .46.9l-.27 1c-.52 2.26-.15 3.94 1.1 5.03.34.3 1.02.69 2.05 1.17a12.8 12.8 0 0 0 4.24 1.16c.06 0 .1.04.1.1 0 .06-.04.1-.1.1-1.92.18-3.7 0-5.32-.53a6.77 6.77 0 0 1-4.08-3.17c-.2-.39-.4-1.05-.57-1.99l-.08-.47a8.58 8.58 0 0 0-.71-1.87l-.25-.51c-1.01-2.23-.95-4.1.2-5.62Z" fill="#171511"/><path d="M21.2 25.44c-.7.34-1.34.26-1.9-.24a3.97 3.97 0 0 1-1.06-1.73c.04-.75.23-1.46.54-2.14.05-.1.13-.18.23-.24.3-.15.64-.15 1.02 0 .1.04.15.11.14.22-.05.8-.01 1.31.1 1.53.43.81.74 1.68.92 2.6Z" fill="#68422A"/><path d="m39.38 22.63.24 1.07c.02.05.05.08.1.1.04 0 .08-.01.12-.05l.18-.2c-.46 1.25-1 2.44-1.66 3.57-.17.3-.31.6-.43.93l-.27.8c-.3.9-.56 1.56-.77 1.96-.35.67-.8 1.21-1.36 1.64a.17.17 0 0 1-.18.02.18.18 0 0 1-.12-.14l-.18-.9c-.02-.08-.08-.13-.17-.13-.09 0-.15.03-.17.12a4.3 4.3 0 0 1-2.59 2.98c-.05.02-.1 0-.14-.04-.03-.05-.03-.1 0-.14l1.04-1.29.54-.75.84-1.1a.45.45 0 0 0 .1-.24l.17-2.49 1.63 2.08c.03.04.06.05.1.04a.09.09 0 0 0 .06-.07l.47-1.89c.03-.12.08-.24.13-.34.55-1.07.84-1.71.87-1.94.13-.93.37-1.78.75-2.54a.79.79 0 0 0 .08-.4l-.16-2.12.57 1.85c.02.05.05.08.1.07.06 0 .08-.03.09-.09l.02-.37Z" fill="#262018"/><path d="m34.43 22.17-.14 1.38c-.01.07.01.13.08.17.06.04.12.05.19.01 1-.5 1.87-.35 2.61.48a2.6 2.6 0 0 1-1.95 1.76c-.1.02-.18 0-.25-.06l-.85-.78.05-.87.26-2.09Z" fill="#A9755D"/><path d="M41.35 23.7c.07.52.03 1.08-.13 1.7l-.35.35a.22.22 0 0 1-.2.06.23.23 0 0 1-.17-.12 3.74 3.74 0 0 1-.36-2.52c.16-.17.21-.45.16-.85.17.18.21.37.13.6-.2.5-.1.92.26 1.25.1.1.22.11.35.05.22-.1.32-.28.31-.52Z" fill="#A88D76"/><path d="m33.56 32.18-.54.75-.5.31-.6.16c-1.25.32-2.2.52-2.81.59a7.34 7.34 0 0 1-2.88-.22 9.48 9.48 0 0 1-2.05-.97c-.84-.49-1.41-.86-1.72-1.13a3.08 3.08 0 0 1-.98-1.5 7.26 7.26 0 0 1-.1-2.83l.27-1 .08-3.5c.18 1.53.23 2.53.15 3-.6 3.56-.2 5.32 1.2 5.28a4.7 4.7 0 0 1 1.48.08c.67.37 1.62.56 2.86.56.95 0 1.61.06 1.98.18.05.02.08.05.09.1 0 .05 0 .1-.04.12l-1.7 1.47a.06.06 0 0 0-.03.07c.02.03.04.04.07.04 2.07-.02 4-.54 5.77-1.56Z" fill="#55301B"/><path d="M40.14 23.17c-.17.87-.05 1.7.36 2.52.04.07.1.11.17.12.08.01.15 0 .2-.06l.35-.35c.06.26.05.53-.03.81l-.07.3c-.06.28-.12.48-.18.59a.7.7 0 0 1-.5.33.27.27 0 0 0-.23.2c-.07.19-.16.36-.27.5.02-.21-.02-.38-.1-.5-.19-.3-.3-.6-.34-.9-.02-.1-.07-.15-.17-.14-.1 0-.16.05-.17.15a7.77 7.77 0 0 1-.84 2.95 10.36 10.36 0 0 1-4.6 4.36c-.23.06-.54.15-.93.29-.7.24-1.3.4-1.8.46-.1.02-.2.05-.3.1-.4.18-.85.28-1.33.29-.04 0-.05.01-.05.05v.08l1.96-.06a10.73 10.73 0 0 0 6.37-3.7c.11-.14.23-.15.35-.03.03.02.05.1.07.21a11.82 11.82 0 0 1-7.45 4.5c-.7.21-1.4.27-2.14.18l1.22-.43c.07-.03.1-.08.1-.16-.02-.08-.06-.12-.14-.13l-1.76-.16c-.07 0-.1-.04-.1-.12 0-.07.03-.1.1-.11 1.78-.21 3.32-.9 4.64-2.07l.5-.3-1.04 1.28c-.04.04-.04.1 0 .14.03.05.08.06.13.04a4.3 4.3 0 0 0 2.59-2.98c.02-.09.08-.13.17-.12.1 0 .15.05.17.14l.18.9c.02.06.05.1.12.13.06.03.12.02.18-.02a4.85 4.85 0 0 0 1.36-1.64c.2-.4.47-1.06.77-1.96l.27-.8c.12-.32.26-.63.43-.93.65-1.13 1.2-2.32 1.66-3.56-.1-.23-.05-.36.12-.39Z" fill="#474034"/><path d="M24.65 23.84c.43.72.63 1.42.6 2.1a7.76 7.76 0 0 1-.48 1.95l-.27.83c-.02.04 0 .09.03.12.03.04.07.05.12.04l1.94-.4c.1-.02.18 0 .25.1l.86 1.18a4.4 4.4 0 0 0 1.56 1.31c.5.26 1.2.48 2.1.67 1.46.3 2.41-.17 2.84-1.43.12-.34.2-1 .23-2.01l.03-.65a5.49 5.49 0 0 1-.19 3.16c-.15.35-.55.8-1.2 1.37-.55.46-1.34.64-2.37.52a1.02 1.02 0 0 1-.6-.27c-.48-.4-.84-.68-1.08-.82-.4-.24-.83-.38-1.26-.4l-.3-.02a7.02 7.02 0 0 1-1.96-.3.29.29 0 0 1-.2-.3V30c0-.06.03-.1.08-.14.05-.03.1-.03.16 0l1.24.72a.2.2 0 0 0 .23 0 .2.2 0 0 0 .1-.2 4.1 4.1 0 0 0-.32-1.43c-.05-.1-.12-.13-.21-.1l-3.56.74c-.3.06-.48-.06-.54-.36l-.23-1.08c-.04-.21.03-.38.23-.5l2.48-1.43c.09-.05.12-.13.1-.23l-.62-2.3c.12.03.2.08.21.15Z" fill="#875F46"/><path d="M25.93 24.5c.5.55.91 1.3 1.21 2.26.18.53.73 1.08 1.67 1.66l.5.31c.16.12.31.24.46.39.78.8 1.75 1.52 2.9 2.18.18.1.33.07.47-.08.46-.5.78-1.08.96-1.73.14-.52.22-1.23.23-2.13l.13.29-.03.65c-.03 1-.11 1.67-.23 2.01-.43 1.26-1.38 1.73-2.84 1.43-.9-.19-1.6-.4-2.1-.67a4.4 4.4 0 0 1-1.56-1.32l-.86-1.18a.23.23 0 0 0-.25-.1l-1.94.41c-.05.01-.09 0-.12-.04a.12.12 0 0 1-.03-.12l.27-.83c.3-.87.46-1.52.48-1.94a3.74 3.74 0 0 0-.6-2.11l1.28.66Z" fill="#A9755D"/><path d="M32.84 26.13c-.06.17-.16.22-.33.17l-.37-.12a.55.55 0 0 1-.34-.33.73.73 0 0 1-.02-.54l.02-.08a.75.75 0 0 1 .33-.42c.16-.1.31-.12.47-.07l.37.12c.17.05.22.16.17.33l-.3.94Z" fill="#171511"/><path d="M19.15 32.49a9.05 9.05 0 0 1-2.73-5.06v-1.31c0-.1.04-.13.13-.13h.09c.09 0 .13.04.13.12a8.68 8.68 0 0 0 2.61 6.15c.07.06.07.13 0 .2l-.01.02c-.07.08-.14.08-.22 0Z" fill="#5E594F"/><path d="M39.84 27.64c-.42-.36-.54-.14-.35.65.03.13.02.26-.03.38-.2.41-.32.84-.37 1.28-.02.1-.05.2-.1.3l-.93 1.49c-.02-.12-.04-.19-.07-.21-.12-.12-.24-.11-.35.02a10.73 10.73 0 0 1-3.98 2.92c-.25.1-.63.23-1.11.36a8.33 8.33 0 0 0-1.28.43l-1.96.07v-.1c0-.03.01-.04.05-.04.48 0 .92-.1 1.33-.3l.3-.09c.5-.07 1.1-.22 1.8-.46a15.57 15.57 0 0 1 1.15-.38c1.9-.99 3.36-2.41 4.38-4.27.44-.8.72-1.78.84-2.95.01-.1.07-.15.17-.16.1 0 .16.05.17.15.04.3.15.6.34.9Z" fill="#736F62"/><path d="M39.84 27.64c.08.11.12.28.1.5l-.42 1.6c-.02.12.01.2.11.26l.16.09c.12.07.16.17.12.3-.04.13-.13.2-.27.19-.24-.01-.43.1-.55.34l-1.02 2.52a5.15 5.15 0 0 1-1.68 1.63c-.4.23-1.1.53-2.09.9l-.11.05c-1.17.45-2.5.64-3.99.59-.09 0-.1-.03-.02-.08l.43-.29a11.82 11.82 0 0 0 7.45-4.5l.92-1.5a.76.76 0 0 0 .1-.29c.06-.44.19-.87.38-1.28a.56.56 0 0 0 .03-.38c-.19-.79-.07-1 .35-.65Z" fill="#B2A493"/><path d="M39.94 28.14c.04.16.03.34-.03.52a.3.3 0 0 0 .07.31l.28.34c.05.05.07.1.08.17.1.83-.05 1.6-.42 2.34l-.98-.01.15-.89c.12-.24.3-.35.55-.34.14 0 .23-.06.27-.2.04-.12 0-.22-.12-.29l-.16-.1c-.1-.05-.13-.13-.1-.24l.41-1.61Z" fill="#474034"/><path d="M29.42 29.36c-.28-.07-.55.05-.6.26-.05.21.14.44.42.5.28.08.55-.04.6-.25.05-.22-.14-.44-.42-.51Z" fill="#55301B"/><path d="M16.63 30.83c.35 1.2.89 2.3 1.6 3.27.79.67 1.67 1.2 2.63 1.59.67.27 1.73.57 3.17.92 1.1.27 2.1.45 3 .54.03 0 .05.03.05.06s-.01.05-.04.06c-2.37.6-5.18.07-8.44-1.6a.23.23 0 0 0-.27.03.22.22 0 0 0-.06.27l.14.37c.1.26.27.44.5.56 1.9.98 3.96 1.62 6.18 1.93 1.86.26 4.05.3 6.54.13l3.28-.93c-.09.38-.4.69-.94.92a8.07 8.07 0 0 1-1.63.46c-.23.05-.44.15-.63.3-.55.41-.97.7-1.28.85-.42.2-.98.37-1.66.47-1.68.26-3.18.22-4.51-.12-1.19-.3-2.4-.76-3.65-1.36-1.58-.77-2.66-1.55-3.25-2.36-.61-.84-1.2-1.66-1.76-2.46l.56-4.95.47 1.05Z" fill="#171511"/><path d="M28.02 36.48c.38.27.89.4 1.5.38.1 0 .19.03.26.09.35.28.76.4 1.25.36 1.7-.16 3.4-.7 5.1-1.63.52-.29.87-.52 1.05-.7.22-.23.54-.51.96-.86a.79.79 0 0 0 .19-.22c.14-.25.26-.63.34-1.12.07-.43.16-.75.27-.97l.98.01c-.04.2-.07.49-.1.88a5.53 5.53 0 0 1-.46 2c-.05.1-.06.17-.05.22.02.08.08.13.17.16-.2.04-.38.18-.56.44-.43.34-.76.8-1 1.36a.68.68 0 0 0-.24.14c-.64 0-1.56.34-2.77 1l-3.28.94a9.03 9.03 0 0 1-1.3-.15c-1.46-.4-2.3-.6-2.51-.61-1.11-.05-2.23-.16-3.35-.34-.05 0-.07-.03-.06-.08 0-.05.03-.07.07-.07 2.09.13 3.18.2 3.27.19.46-.03.88-.06 1.26-.07.1 0 .12-.05.07-.13a.97.97 0 0 1-.15-.59c0-.08-.04-.13-.13-.13-3.82.05-7.35-.91-10.57-2.88a10.67 10.67 0 0 1-1.6-3.27c-.18-.97 0-.97.52 0 .38.72.66 1.2.84 1.44a9 9 0 0 0 4 3c2.06.82 4.07 1.22 6.03 1.21Z" fill="#483924"/><path d="m39.09 30.92-.15.89c-.11.22-.2.54-.27.97-.08.5-.2.87-.34 1.12a.79.79 0 0 1-.19.22c-.42.35-.74.63-.96.86-.17.18-.53.41-1.05.7-1.7.92-3.4 1.47-5.1 1.63-.49.04-.9-.08-1.25-.36a.37.37 0 0 0-.25-.09c-.62.02-1.13-.1-1.51-.38l.45-.06c.74.1 1.45.03 2.14-.18l-.43.29c-.08.05-.07.08.02.08a10.1 10.1 0 0 0 3.99-.59l.11-.04c1-.38 1.69-.68 2.08-.9a5.15 5.15 0 0 0 1.69-1.64l1.02-2.52Z" fill="#736F62"/><path d="M31.63 38.96c-2.5.17-4.68.13-6.54-.13a19.28 19.28 0 0 1-6.17-1.93c-.24-.12-.4-.3-.5-.56l-.15-.37a.22.22 0 0 1 .06-.27.23.23 0 0 1 .27-.03c3.26 1.67 6.07 2.2 8.44 1.6.03 0 .04-.03.04-.06s-.02-.05-.05-.06c-.9-.09-1.9-.27-3-.54-1.44-.35-2.5-.65-3.17-.92a9.37 9.37 0 0 1-2.63-1.59 19.46 19.46 0 0 0 10.57 2.88c.09 0 .13.05.13.13-.02.21.03.4.15.6.05.07.03.11-.07.12-.38.01-.8.04-1.26.07l-3.27-.19c-.04 0-.07.02-.07.06 0 .06.01.08.06.1 1.12.17 2.24.28 3.35.33.21 0 1.05.2 2.52.6.18.06.61.1 1.3.16Z" fill="#262018"/><path d="M15.6 34.73c.56.8 1.15 1.62 1.76 2.46.59.8 1.67 1.6 3.25 2.36 1.25.6 2.46 1.05 3.65 1.36 1.33.34 2.83.38 4.51.12.68-.1 1.24-.26 1.66-.47.3-.15.73-.44 1.28-.86.19-.14.4-.24.63-.3l.21-.04a8.07 8.07 0 0 0 1.42-.4c.54-.24.85-.55.95-.93 1.2-.67 2.12-1 2.76-1-.21.34-.5.58-.86.72a67.78 67.78 0 0 0-3.36 2.06c-.7.46-1.82.93-3.37 1.43-1.04.33-1.8.6-2.27.84-.56.26-1.05.3-1.47.09-1.18-.6-2.03-.96-2.54-1.1-.23-.07-.58-.15-1.03-.26a14.3 14.3 0 0 1-2.48-.77c-.46-.2-.94-.38-1.46-.52-.11-.03-.17.01-.18.13l-.14 2.6c-.73-.47-1.42-1-2.07-1.57.12-.38.15-.8.09-1.24a2.7 2.7 0 0 0-.42-1.15c-.54-.79-1.24-.88-2.12-.29-.36-.48-.7-.98-1-1.5.23.05.4.03.49-.07a9.65 9.65 0 0 1 2.11-1.7Z" fill="#372A1B"/><path d="M29.63 38.01c.14-.1.43-.17.87-.22a7.03 7.03 0 0 0 1.58-.33c.16-.06.38-.1.66-.13.22-.02.4-.05.52-.09 1.17-.31 2.33-.77 3.47-1.36.24-.13.5-.32.81-.58l.25-.22c.1-.07.2-.08.3-.02l.02.02c.11.06.12.14.03.23a6.06 6.06 0 0 1-1.63 1.26 21.68 21.68 0 0 1-4.78 1.4c-.17.03-.44.06-.8.08-.56.05-.96.11-1.2.19-.06.02-.11 0-.15-.07-.03-.06-.02-.12.05-.16Z" fill="#736F62"/><path d="M39.48 35.08c.97.6 1.55 1.09 1.75 1.48.24.47.5.82.77 1.06a17.23 17.23 0 0 1-3.34 3.57l-.32-2.52a.49.49 0 0 1 .07-.34 4 4 0 0 0 .51-2.8c.18-.27.37-.41.56-.45Z" fill="#B2A493"/><path d="M38.92 35.52a4 4 0 0 1-.5 2.81.49.49 0 0 0-.08.34l.32 2.52-.47.37c-.2-.23-.45-.31-.78-.25a.24.24 0 0 1-.3-.26c.09-1.42.36-2.8.8-4.17.25-.56.58-1.02 1.01-1.36Z" fill="#A88D76"/><path d="M37.92 36.88a16.37 16.37 0 0 0-.8 4.18.24.24 0 0 0 .29.25c.33-.06.59.02.78.25a17.3 17.3 0 0 1-2.4 1.5l.81-4.36a.15.15 0 0 0-.07-.16.15.15 0 0 0-.17 0l-1.26.82 1.72-1.6c.36-.15.65-.4.86-.74.06-.06.14-.1.24-.14Z" fill="#65533C"/><path d="M16.45 40.68c-.91-.8-1.73-1.7-2.45-2.68.88-.6 1.58-.5 2.12.29.21.32.35.7.42 1.15.06.45.03.86-.09 1.24Z" fill="#474034"/><path d="m36.82 37.75-1.72 1.61c-.83.4-1.53.85-2.1 1.39l-4.7 1.73a.33.33 0 0 0-.24.3c-.07.73-.3 1.47-.68 2.21l-.72-.03c-.35-1-.88-1.86-1.58-2.57a.2.2 0 0 0-.23-.05c-.48.2-1 .25-1.57.13a8.24 8.24 0 0 1-1.48-.53l-.62-.26c-.15-.06-.26-.02-.33.13l-.61 1.41a17.8 17.8 0 0 1-1.72-.97l.14-2.6c0-.12.07-.16.18-.13.52.14 1 .32 1.46.52.55.26 1.38.51 2.48.77.45.1.8.2 1.03.26.51.14 1.36.5 2.55 1.1.41.2.9.17 1.46-.1.47-.22 1.23-.5 2.27-.83 1.55-.5 2.67-.97 3.37-1.43 1.1-.72 2.22-1.4 3.36-2.06Z" fill="#483924"/><path d="M35.8 43.06c-.6.3-1.2.58-1.83.82-.34-.21-.7-.3-1.1-.3-.16.01-.34-.03-.55-.1l-.14-.06a.52.52 0 0 0-.31-.02c-.74.2-1.2.67-1.4 1.4-.35.05-.7.1-1.06.13l-.36-1.33a.2.2 0 0 1 .06-.22 13.92 13.92 0 0 1 3.9-2.63c.56-.54 1.26-1 2.1-1.39l1.25-.82a.15.15 0 0 1 .17 0c.06.04.09.1.07.16l-.8 4.36Z" fill="#A88D76"/><path d="M34.04 40.54c.2-.04.3.05.3.26v1.07c0 .1.05.18.13.25l.6.5c.1.09.12.2.04.31-.08.12-.18.15-.3.09a3.68 3.68 0 0 0-2.33-.29.18.18 0 0 1-.2-.08.18.18 0 0 1-.01-.2l.95-1.65c.03-.06.08-.1.15-.11l.67-.15Z" fill="#D5AB93"/><path d="M33 40.75a13.93 13.93 0 0 0-3.9 2.63.2.2 0 0 0-.05.22l.36 1.33c-.67.06-1.35.08-2.03.06.38-.74.6-1.48.68-2.22.02-.15.1-.24.23-.3l4.72-1.72Z" fill="#8A7860"/><path d="m26.66 44.96-.7-.07a3.28 3.28 0 0 0-.95-2.18.18.18 0 0 0-.21-.05.18.18 0 0 0-.12.19v1.24c0 .1-.05.17-.16.2-.1.04-.18.01-.24-.08a3.46 3.46 0 0 0-2.23-1.4c-.09-.02-.13.02-.13.1l-.02 1.03c-.57-.21-1.12-.45-1.66-.72l.61-1.4c.07-.16.18-.2.33-.14l.62.26c.65.28 1.15.46 1.48.53.57.12 1.09.07 1.57-.13a.2.2 0 0 1 .23.05c.7.71 1.23 1.57 1.58 2.57Z" fill="#65533C"/><path d="M25.96 44.9a17.1 17.1 0 0 1-4.06-.96l.02-1.03c0-.08.04-.12.13-.1.97.2 1.72.67 2.23 1.4.06.1.14.12.24.09.1-.04.16-.1.16-.21v-1.24c0-.1.04-.15.12-.19a.18.18 0 0 1 .21.05c.58.57.9 1.3.95 2.18Z" fill="#8A7860"/><path d="M33.97 43.88c-1.14.43-2.3.74-3.5.92.2-.73.66-1.2 1.4-1.4.1-.02.2-.02.3.02l.15.05c.2.08.39.12.55.12.4-.02.76.08 1.1.29Z" fill="#474034"/><defs><linearGradient id="a" x1="10.42" y1="9.71" x2="68.15" y2="76.02" gradientUnits="userSpaceOnUse"><stop stop-color="#1A1E21"/><stop offset="1" stop-color="#06060A"/></linearGradient></defs></svg>