<!-- by TradingView --><svg width="56" height="56" viewBox="0 0 56 56" xmlns="http://www.w3.org/2000/svg"><path fill="#121F63" d="M0 0h56v56H0z"/><path fill-rule="evenodd" d="M40.02 40.02a17 17 0 1 0-24.04-24.04 17 17 0 0 0 24.04 24.04Zm-.38-.38a16.45 16.45 0 1 0-23.28-23.28 16.45 16.45 0 0 0 23.28 23.28Z" fill="#26BC8B"/><path d="M28.02 16.93v1.56l-.04 1.08c-.22 0-.45 0-.66.02-.11 0-.19.05-.22.14-.12.35.04.45.2.72a.14.14 0 0 1-.01.15.14.14 0 0 1-.13.06l-.34-.02a.19.19 0 0 0-.15.06.18.18 0 0 0-.04.16c.05.2.18.25.38.33.44.18.65.52.64 1.02-.53-.2-1-.25-1.44-.18-.87.16-1.31.91-1.2 1.73.09.7.4 1.27.76 1.87.02.03 0 .05-.03.07-.09.02-.18.01-.27.04-.64.2-1 .62-1.06 1.25-.4.2-.79.5-1.17.9-.94.96-1.2 2-.94 3.29l-4.24 2.37c-.03-.03-.06-.1-.06-.18V22.55c0-.04.01-.08.03-.11a.22.22 0 0 1 .08-.08l9.75-5.4c.05-.03.1-.04.16-.03Z" fill="#6D82D5"/><path d="M28.02 16.93c.05 0 .1 0 .14.03l9.68 5.4c.04.02.08.06.1.1.03.04.06.09.06.13v10.82c0 .05-.01.1-.04.14l-1.39-.77v-9.4a.22.22 0 0 0-.04-.1.23.23 0 0 0-.08-.09l-8.43-4.7v-1.56Z" fill="#3351C4"/><path d="m28.02 18.49 8.43 4.7.08.08.03.12.01 9.39-2.8-1.56a.12.12 0 0 1-.05-.05.12.12 0 0 1-.01-.08c.57-2.69-1.6-3.81-3.5-5.09a1.6 1.6 0 0 0-.07-1.82 5.1 5.1 0 0 0-2.05-1.78c.06-.1.09-.24.09-.39 0-.18.02-.3.05-.37.1-.17.23-.36.43-.4.24-.05.41-.18.52-.4a.13.13 0 0 0 0-.13.13.13 0 0 0-.05-.05.14.14 0 0 0-.07-.01h-.61l-.02-.03a.05.05 0 0 1 0-.05c.18-.24.27-.54.28-.9 0-.02 0-.04-.02-.05a.08.08 0 0 0-.05-.02l-.66-.03.04-1.08Z" fill="#5169CD"/><path d="m27.98 19.57.66.03c.02 0 .04 0 .05.02l.02.05c0 .36-.1.66-.28.9v.05c0 .01 0 .02.02.02l.03.01h.58a.14.14 0 0 1 .12.06.13.13 0 0 1 0 .13.72.72 0 0 1-.52.4c-.2.04-.34.23-.43.4a.9.9 0 0 0-.05.37c0 .15-.03.28-.1.39l-.43-.2c.01-.5-.2-.83-.64-1.01-.2-.08-.33-.14-.38-.33a.17.17 0 0 1 .04-.16.18.18 0 0 1 .15-.06l.34.02a.15.15 0 0 0 .13-.06.14.14 0 0 0 0-.15c-.15-.27-.3-.37-.19-.72.03-.1.1-.14.22-.14l.66-.02Z" fill="#26BC8B"/><path d="m27.65 22.2.44.2c.84.4 1.53 1 2.05 1.78.4.6.43 1.21.07 1.82l-.67.75a.07.07 0 0 0-.02.06l.01.02.03.02a6.9 6.9 0 0 1 2.57 1.79c.24.3.47.86.07 1.14-.7.48-2.59-.67-3.22-1.05-.67-.45-1.3-.96-1.89-1.53a7.03 7.03 0 0 1-.92-1.03c-.1-.15-.23-.2-.4-.14-.33.12-.87.4-.96.74-.27 1.02.62 2.15 1.35 2.85.12.12.25.14.36.07l.85-.06a6.23 6.23 0 0 1 3.82 1.07c.55.39 1.2 1.25.21 1.62-.19.07-.45.1-.78.08a4.96 4.96 0 0 1-1.6-.42 10 10 0 0 1-2.7-1.73c-.05-.1-.12-.13-.19-.12-.8.2-1.56.54-2.27 1.05-.22.16-.4.36-.55.6-.47.8.23 1.6 1.01 1.8.11.05.14.19.08.4a2.36 2.36 0 0 1-1.24-.73c-.26-.3-.38-.67-.35-1.1.1-.44.3-.8.61-1.06a6.53 6.53 0 0 1 2.43-1.23c.04-.02.04-.03.01-.06a6.07 6.07 0 0 1-1.21-1.67 2.47 2.47 0 0 1-.24-1.14c.06-.63.42-1.04 1.06-1.25.09-.03.18-.02.27-.04.04-.02.05-.04.03-.07a4.67 4.67 0 0 1-.76-1.87c-.11-.82.33-1.57 1.2-1.73.43-.07.91-.02 1.44.18Z" fill="#A0F4E0"/><path d="M27.63 22.57c-.47.29-.59.62-.34 1 .16.24.26.42.3.52a5.23 5.23 0 0 1-1.2 1.45.38.38 0 0 1-.17.08c-.02 0-.03-.01-.05-.03a4.03 4.03 0 0 1-.84-1.91c-.05-.37.05-.7.32-1 .44-.5 1.4-.36 1.98-.1Z" fill="#6D82D5"/><path d="M27.63 22.57c.35.14.69.32 1 .57a.56.56 0 0 1-.13.45c-.12.12-.22.25-.3.38-.08.27-.06.52.03.75.08.18.26.26.34.43.22.47-.22.7-.42 1.05l-.7-.24c-.28-.27-.37-.52-.26-.76.03-.06.12-.16.25-.3.19-.2.24-.47.15-.81-.04-.1-.14-.28-.3-.53-.25-.37-.13-.7.34-.99Z" fill="#26BC8B"/><path d="M28.64 23.14c.72.47 1.2 1.04 1.42 1.7.12.34.07.67-.15.99-.63-.53-1.1-1.01-1.4-1.45a3.84 3.84 0 0 0-.3-.4c.07-.14.17-.27.29-.4a.56.56 0 0 0 .14-.44Z" fill="#5169CD"/><path d="M28.2 23.97a7.56 7.56 0 0 0 1.7 1.85 1.83 1.83 0 0 1-.66.65.09.09 0 0 0 .01.12l.1.1c.06.05.06.06-.01.03l-1.19-.52c.2-.35.64-.58.42-1.05-.08-.17-.26-.25-.34-.43a1.1 1.1 0 0 1-.03-.75ZM27.6 24.09c.08.34.03.6-.16.81-.13.14-.22.24-.25.3-.11.24-.02.49.26.76a4.88 4.88 0 0 0-1.14-.26c-.04 0-.07-.03-.09-.08a.38.38 0 0 0 .17-.08c.5-.41.9-.9 1.2-1.45ZM27.09 27.2a.8.8 0 0 0-.13.53c0 .03 0 .05-.05.06a.47.47 0 0 1-.2 0h-.06a.1.1 0 0 0-.04.02.1.1 0 0 0-.03.1c.04.12.11.23.2.35.03.02.03.05.03.08l-.29 1.35c-.11.07-.24.05-.36-.07-.73-.7-1.62-1.83-1.35-2.85.1-.35.63-.62.96-.74.17-.06.3-.01.4.14.14.22.44.56.92 1.03Z" fill="#213993"/><path d="M30.21 26c1.9 1.28 4.06 2.4 3.5 5.1v.07l.06.05 2.8 1.56 1.39.77a.41.41 0 0 1-.13.12c-3.22 1.8-6.44 3.58-9.68 5.37a.3.3 0 0 1-.3 0l-.98-.54c.38-.24.76-.47 1.15-.68a116.17 116.17 0 0 0 2.79-1.54c.42-.23.86-.5 1.3-.73 1.02-.56 2.03-1.14 3.05-1.67.12-.07.21-.14.28-.22a.18.18 0 0 0 .03-.15.18.18 0 0 0-.09-.12l-2.1-1.17a.2.2 0 0 0-.23.02c-.3.28-.85.71-1.3.74h-.48c-.43-.02-.84.06-1.26.1a.57.57 0 0 0-.25.1l-.18.1-.9.45-.17.12a.44.44 0 0 1-.2.08l-.02-.3v-.02l-.02-.01a.05.05 0 0 0-.05 0c-.25.12-.74-.08-.96-.18a.46.46 0 0 0-.26-.04c-.17.03-.32.03-.46 0-.18-.03-.34 0-.52 0-.23.03-.41-.11-.65.03a.64.64 0 0 1-.36.12c-.24-.01-.47 0-.69.05-.78-.2-1.48-1-1.01-1.8.14-.24.33-.44.55-.6a6.5 6.5 0 0 1 2.27-1.05c.07-.01.14.02.2.12-.28.52-.48.84-.87 1.18-.72.61-.15 1.5.6 1.67.1.02.43.03 1 .02.6-.02 1.25-.01 1.92.01.35.01.65-.03.89-.13.3-.12.55-.32.75-.6.33.02.6 0 .78-.08 1-.37.34-1.23-.21-1.62a5.56 5.56 0 0 0-1.85-.85l-.36-1.12c.63.38 2.52 1.53 3.22 1.05.4-.28.17-.84-.07-1.14a6.9 6.9 0 0 0-2.6-1.8.07.07 0 0 1 0-.06v-.03l.68-.75ZM27.63 26.38c-.04.22-.13.41-.29.57l-.75-.83c-.02-.03-.02-.04.02-.03.35.03.7.13 1.02.29Z" fill="#213993"/><path d="m27.63 26.38.54.2c.25.48.46.57.64.27l.44.22a.97.97 0 0 0-.42.27.1.1 0 0 0-.03.09l.04.3c0 .03.03.05.07.05h.23c.04 0 .06.02.06.06-.01.18-.1.33-.25.44-.6-.4-1.13-.85-1.6-1.33.15-.16.24-.35.28-.57Z" fill="#26BC8B"/><path d="m28.17 26.58.63.27c-.17.3-.38.2-.63-.27ZM24.41 26.99c-.01.4.07.78.24 1.14.3.62.73 1.19 1.21 1.67.03.03.03.04-.01.06-1 .29-1.8.7-2.43 1.23a1.9 1.9 0 0 0-.61 1.07h-.1c-.04 0-.05-.01-.06-.04 0-.1-.02-.17-.03-.21l-.32-.73c-.26-1.3 0-2.33.94-3.3.38-.39.77-.69 1.17-.9ZM29.25 27.07l1.17.6c.64.33 1.49.95 1.66 1.65 0 .04 0 .08-.02.12a.17.17 0 0 1-.1.08c-.32.12-.92-.12-1.24-.26-.63-.27-1.22-.6-1.77-.98a.55.55 0 0 0 .25-.44c0-.04-.02-.06-.06-.06h-.23c-.04 0-.06-.02-.07-.05l-.04-.3c0-.04 0-.06.03-.09a.97.97 0 0 1 .42-.27Z" fill="#213993"/><path d="M27.09 27.2c.59.57 1.22 1.08 1.89 1.53l.36 1.12a6.23 6.23 0 0 0-1.97-.22l-.85.06.29-1.35c0-.03 0-.06-.02-.08-.1-.12-.17-.23-.2-.35a.1.1 0 0 1 .02-.1.1.1 0 0 1 .1-.03c.07.02.14.02.2.01.04 0 .06-.03.05-.06a.8.8 0 0 1 .13-.53ZM29.54 30.26c.1.47.43.77.78 1.1.2.2.31.44.32.71-.51-.04-.99-.16-1.42-.35a10.14 10.14 0 0 1-2.56-1.67c0-.03.02-.05.05-.05 1-.1 1.92-.04 2.83.26Z" fill="#26BC8B"/><path d="M26.33 30.25a10 10 0 0 0 2.69 1.73c.55.24 1.09.38 1.6.42-.2.28-.45.48-.75.6-.24.1-.54.14-.89.13-.67-.02-1.31-.03-1.93-.01-.56 0-.89 0-.98-.02-.76-.17-1.33-1.06-.61-1.67.4-.34.6-.66.87-1.18Z" fill="#26BC8B"/><path d="M29.54 30.26c.63.19 1.18.48 1.66.9.23.19.64.68.1.84-.23.07-.45.1-.66.07 0-.27-.11-.5-.32-.7-.35-.34-.67-.64-.78-1.1Z" fill="#213993"/><path d="m22.3 31.18.32.73c.01.04.03.1.03.2 0 .04.02.05.05.05h.1c-.02.42.1.78.36 1.09.3.35.71.59 1.24.73.38 0 .74.05 1.07.16.21.07.43-.04.67.01.13.03.27.04.4.01.27-.04.5.09.76-.03.2-.09.39-.15.58-.19l.2.01c.12.02.2.02.23-.02a.44.44 0 0 0 .2-.08l.17-.12a47.87 47.87 0 0 1 1.33-.64c.42-.05.83-.13 1.26-.1l.49-.01c.44-.03 1-.46 1.3-.74a.2.2 0 0 1 .22-.02l2.1 1.17c.03.01.05.03.06.05a.18.18 0 0 1 .03.15c0 .03-.02.05-.03.07a.85.85 0 0 1-.28.22c-1.02.53-2.03 1.11-3.05 1.67l-1.3.73-1.62.9-1.17.64c-.39.2-.77.44-1.15.68l-8.69-4.83a.66.66 0 0 1-.12-.12l4.24-2.37Z" fill="#2944AF"/><path d="M28.3 33.93c-.03.04-.1.04-.22.02a.53.53 0 0 0-.2 0c-.19.03-.38.09-.58.18-.26.12-.49-.01-.75.03-.14.02-.28.02-.41 0-.24-.06-.46.05-.67-.02a3.27 3.27 0 0 0-1.07-.16c.06-.21.03-.35-.08-.4.22-.05.45-.06.69-.06.14 0 .25-.04.36-.11.24-.14.42 0 .65-.02.18-.02.34-.04.52 0 .14.02.3.02.46-.01.09-.01.19 0 .26.04.22.1.71.3.96.17a.06.06 0 0 1 .05 0l.02.02v.03l.02.3Z" fill="#26BC8B"/></svg>