<!-- by TradingView --><svg width="56" height="56" viewBox="0 0 56 56" xmlns="http://www.w3.org/2000/svg"><path fill="url(#albcgioe1)" d="M0 0h56v56H0z"/><path d="M21 36v-6.68a8.5 8.5 0 1 1 14 0V42h5.08A2.96 2.96 0 0 0 43 39c0-1.66-1.3-3-2.92-3h-5a13.5 13.5 0 1 0-14.15 0h-5A2.96 2.96 0 0 0 13 39c0 1.66 1.3 3 2.92 3H21v-6Zm.5-5.74V41.2c0 .44.38.79.84.79h1.31c.47 0 .85-.35.85-.8v-9.47c-.61-.21-1.2-.65-1.63-.98-.17-.12-.3-.26-.42-.38-.2-.2-.35-.37-.56-.37-.26 0-.37.17-.39.26Zm13 10.95V30.26c-.02-.09-.13-.26-.4-.26-.2 0-.36.16-.55.37-.12.12-.25.26-.42.38-.43.33-1.02.77-1.63.98v9.48c0 .44.38.79.85.79h1.3c.47 0 .85-.35.85-.8Zm-9.5 0V32h.95c.63 0 1.3.4 1.55.59v8.62c0 .44-.33.79-.73.79h-1.04c-.4 0-.73-.35-.73-.8ZM31 32v9.2c0 .45-.33.8-.73.8h-1.04c-.4 0-.73-.35-.73-.8V32.6c.26-.2.92-.59 1.55-.59H31Z" fill="#fff"/><defs><linearGradient id="albcgioe1" x1="0" y1="28" x2="56" y2="28" gradientUnits="userSpaceOnUse"><stop stop-color="#7054D1"/><stop offset="1" stop-color="#B06CD6"/></linearGradient></defs></svg>