<!-- by TradingView --><svg xmlns="http://www.w3.org/2000/svg" width="56" height="56"><path fill="#662C5E" d="M0 0h56v56H0z"/><path d="M40 26.54v9.53C39.68 42.24 34.42 47 28 47s-11.68-4.83-12-11v-.17a1.5 1.5 0 013 0v.51c.5 4.39 4.37 7.66 9 7.66s8.5-3.11 9-7.5v-8.77l-5-4.87V21.18c0-2.15-1.8-4.18-4-4.18s-4 2.03-4 4.18v4.76l5.5 5.47v4.02c0 .8-.67 1.57-1.5 1.57s-1.5-.76-1.5-1.57v-2.8l-5-5.03V20c.26-3.27 3.08-6 6.5-6a6.58 6.58 0 016.5 6v1.13l5.5 5.4z" fill="#FFFEFB"/><path d="M38.5 20.7c.83 0 1.51-.68 1.4-1.5A11.99 11.99 0 0028 9c-6.62 0-12 5.23-12 11.7v8.72l5.5 5.42v1.08A6.66 6.66 0 0028 42a6.59 6.59 0 006.5-6v-7.2l-5-4.95v-3.36a1.5 1.5 0 10-3 .04v4.49l5.5 5.5v4.85C31.96 37.5 30.18 39 28 39c-2.18 0-3.95-1.58-3.98-3.7H24v-2.16l-5-4.84v-7.6c0-4.85 4.03-8.7 9-8.7a8.94 8.94 0 018.87 7.2c.14.82.8 1.5 1.63 1.5z" fill="#FFFEFB"/></svg>