<!-- by TradingView --><svg width="56" height="56" viewBox="0 0 56 56" xmlns="http://www.w3.org/2000/svg"><path fill="#F0F3FA" d="M0 0h56v56H0z"/><path d="M23.51 14.25c-.14-.08-.25-.08-.31 0-.06.07-.07.14-.03.23 0 .05 0 .12-.03.22-.02-.17-.12-.23-.29-.2-.44.12-.95.16-1.53.13-.11 0-.2.05-.24.15-.03.05-.03.1 0 .15.08.11.08.22 0 .33l-.24.35c-.1.15-.06.23.12.22l.73-.01c.13 0 .2-.07.23-.2.03-.18.1-.34.22-.48a.36.36 0 0 1 .26-.14l.86-.1.36.62-.04 3.92c-.3-.14-.67-.18-1.08-.1a.14.14 0 0 0-.09.04.35.35 0 0 1-.05.04c-.17.1-.15.15.04.14.75-.01 1.46.2 2.12.64.06.05.1.1.13.18l.06.15c-.54.28-.95.6-1.21.96-.09.12-.07.22.05.3l.25.16c.11.07.22.06.3-.06l.77-1c.18.1.23.36.15.76a.83.83 0 0 0-.3.58c-.01.1.03.19.13.24.56.28 1.4.44 2.53.45l.42.01c1 .03 1.94-.09 2.82-.34.27-.08.34-.25.22-.5-.37-.8-1.06-1.28-2.06-1.43a.23.23 0 0 1-.2-.18c-.05-.19.01-.32.18-.39.55-.21.95-.43 1.23-.66.26.08.4.3.44.66 0 .13.07.16.18.1a6.65 6.65 0 0 1 1.67-.82c.13-.04.19-.12.2-.25l.02-.63c.02.02.03.06.04.11 0 .05.03.08.08.08l3.34.06c.07 0 .12-.03.14-.1a.21.21 0 0 0 0-.12.12.12 0 0 0-.04-.05l-.1-.08.57-.6a.4.4 0 0 0 .11-.33l-.01-.21c0-.13.05-.19.18-.16.42.07.65.32.68.72.01.13-.02.25-.09.35-.12.2-.1.35.08.5.11.07.13.18.06.3a.73.73 0 0 0-.07.54c.02.12 0 .23-.06.33a.98.98 0 0 1-.33.34.58.58 0 0 0-.4-.16c-1.02.02-2.02.02-3-.02a.21.21 0 0 1-.21-.15c-.13-.32-.41-.42-.86-.29-.76.22-1.3.47-1.64.74-.01.16-.13.2-.34.09-.08-.04-.13-.02-.14.07a.5.5 0 0 0-.01.1c0 .06.02.11.06.16l.99 1.18c.07.09.15.1.25.05l.24-.13c.13-.08.15-.17.05-.27l-.55-.6c.2-.16.5-.2.92-.08.1.02.18.08.24.16.17.26.13.48-.12.66-.21.16-.19.25.07.29.26.03.5-.01.72-.13.12-.06.19-.16.2-.3l.1-.83c.02-.14.1-.22.24-.22l3.23-.12c.15.35.04.58-.33.7-.3.09-.36.26-.17.51.17.22.2.47.08.73-.04.1-.01.15.1.17l.12.02c.1.02.17-.02.2-.13l.12-.45a.3.3 0 0 1 .2-.23c.38-.14.5-.3.34-.47.3-.13.52-.09.66.13.07.1.08.3.05.55-.07.62.07 1.15.44 1.6-.3.07-.51.17-.64.28l-3.08-.06 1.04-1.91c.09-.17.04-.23-.14-.21-.49.06-.95.05-1.39-.04-.08-.01-.1.02-.07.1l.05.06c.08.1.19.12.3.1.08-.01.12.02.14.11.03.11.03.22 0 .33-.08.28-.1.55-.04.82a.26.26 0 0 1-.14.29l-.56.32-.55.02c-.47.12-.94.35-1.4.7l-.3-.3c-.03-.14.01-.23.1-.28a15.8 15.8 0 0 1 2-1c.17-.07.21-.19.12-.35l-.08-.17c-.08-.16-.21-.21-.38-.16-.7.2-1.31.5-1.84.9-.13-.07-.18-.18-.12-.35.05-.16 0-.22-.17-.18-.19.05-.41.18-.67.38-.26.21-.48.33-.67.37-.34.07-.71.12-1.1.15-.07 0-.14 0-.2-.02-.11-.04-.2-.02-.29.06a9.2 9.2 0 0 1-1.14.07.17.17 0 0 1-.1-.03.23.23 0 0 1-.07-.07c-.06-.08-.14-.1-.23-.06a.5.5 0 0 1-.47 0c-.1-.06-.2-.04-.28.05-.11.12-.22.12-.34 0a.31.31 0 0 0-.3-.08c-.47.1-1.06-.08-1.76-.55l-.23-.16c-.14-.09-.2-.05-.2.1l.04.53a6.2 6.2 0 0 0-2.11-1.08c-.2-.05-.34.02-.42.2l-.06.13c-.09.2-.03.32.17.38a6.6 6.6 0 0 1 2.02 1.05c-.18.3-.34.4-.5.34a2.74 2.74 0 0 0-1.14-.53l-.86-.07c-.5-.38-.53-1-.08-1.87.07-.12.03-.19-.11-.18h-1.03c-.23 0-.24.06-.03.17.2.11.43.17.67.19.1 0 .12.04.08.13l-.86 1.6c-.26.1-.6.1-1.01 0l-1.24-2.14c.32-.3.7-.5 1.12-.61.05 0 .08.01.1.03.03.04.03.07-.03.1a.54.54 0 0 1-.17.03c-.07 0-.11.04-.11.1 0 .13.05.22.15.28.33.19.52.46.57.82.02.13.09.18.21.16l.12-.03c.1-.02.14-.08.11-.19a.98.98 0 0 1 .11-.8c.05-.08.04-.16-.02-.22a.62.62 0 0 0-.36-.22.27.27 0 0 1-.22-.2.7.7 0 0 1 .04-.57c.06-.11.03-.17-.09-.2a.32.32 0 0 1-.11-.03.3.3 0 0 1-.15-.3c.04-.3 0-.58-.1-.85-.04-.12 0-.21.1-.27.13-.07.16-.18.1-.3-.26-.5-.18-.86.22-1.1.16-.1.33-.13.53-.13.17 0 .2.08.1.23a.3.3 0 0 0-.05.17c0 .1.03.2.1.27l.55.59-.09.23c-.04.12 0 .18.12.17l3.01-.05c.06 0 .09-.03.09-.08v-.1c0-.06-.03-.1-.1-.1h-.56c-.17 0-.22-.09-.13-.24l.97-1.8c.08-.13.04-.2-.12-.2-.17-.02-.34 0-.52.02a.33.33 0 0 0-.27.19l-.9 1.86a.27.27 0 0 1-.27.16l-.88-.04v-1.3c0-.12-.06-.19-.18-.2a.6.6 0 0 0-.28.04c-.11.04-.2.01-.28-.1l-.25-.4a.55.55 0 0 1-.07-.46c.09-.3 0-.56-.25-.8-.14-.13-.13-.25.04-.34.07-.04.15-.06.23-.04.13.02.24-.02.33-.12.06-.06.07-.13.04-.21a.2.2 0 0 1 .05-.25c.05-.04.1-.06.18-.06.11 0 .19.06.22.17.02.06.03.12.02.18-.01.1.04.16.14.14.03 0 .06-.02.08-.04.04-.04.05-.1.03-.15-.08-.29.02-.52.28-.7.09-.06.09-.12 0-.19-.17-.12-.21-.28-.13-.47.17-.42.4-.46.7-.13l.32.34c.06.07.12.08.2.02l.08-.06c.12-.08.13-.18.06-.3l-.33-.5a.4.4 0 0 1-.05-.33c.13-.44.4-.6.8-.5l.4.12c.17.04.24-.02.2-.2a.26.26 0 0 0-.1-.16c-.12-.08-.15-.18-.1-.31.15-.35.3-.65.49-.9.16-.22.24-.2.24.08l-.03 4.02Z" fill="#FBC912"/><path d="M33.84 13.02c-.1.58.02.69.39.33.17-.18.34-.33.53-.45.12-.07.23-.1.33-.07.13.03.22.1.27.23.04.1.04.2-.01.3-.07.13-.1.26-.11.38-.23.02-.23.25 0 .67.06.1.03.14-.07.15-.86.09-1.72.06-2.57-.09-.06 0-.08.02-.08.08l.02.34c0 .04.03.07.07.09.27.09.52.1.76.03.16-.04.2.01.13.17l-.28.56c-.17.08-.4.11-.7.08l-.1-1.12a.84.84 0 0 1 .05-.5v-3.8c0-.43.12-.46.34-.09.1.19.23.45.37.78.05.1.03.19-.05.26a.3.3 0 0 0-.1.3c.02.14.1.19.24.12l.37-.17c.28-.12.5-.05.64.21.26.46.11.86-.44 1.21Z" fill="#FBC912"/><path d="M31.17 15c-.14.34.23.27 1.1-.23l-.13.4a.81.81 0 0 1-.14.27l-.08.1c-.3.4-.45.77-.47 1.14a3.86 3.86 0 0 1-2.69 3.41c-.17.07-.23.2-.18.39.03.1.1.17.2.18 1 .15 1.69.63 2.06 1.43.12.25.05.42-.22.5-.88.25-1.83.37-2.82.34h-.42a6.04 6.04 0 0 1-2.53-.46.23.23 0 0 1-.13-.24.83.83 0 0 1 .3-.58c.43-.51.9-.8 1.43-.88l1.71-.33c.08-.37.1-.62.04-.77-.11-.33-.4-.4-.85-.19-.1.04-.13.11-.1.21.03.1.03.18 0 .24-.1.28-.19.35-.25.22a3.7 3.7 0 0 1-1.48-.73l-.87-1.06a2.8 2.8 0 0 1-.5-1.9c0-.28-.18-.6-.53-.94l-.36-.62a.39.39 0 0 0-.12-.2l.03-.22a2 2 0 0 0 1.13.74c.16.04.22-.03.18-.19a.32.32 0 0 0-.1-.15.22.22 0 0 0 .11-.1c0-.02 0-.06-.02-.11-.1-.27-.13-.8-.1-1.58a4.57 4.57 0 0 0 1.44 2.25c-.68.86-.76 1.8-.25 2.84.21.81.74 1.19 1.6 1.13.4-.45.86-.47 1.39-.07.08.07.17.09.27.05.28-.1.57-.26.9-.5.38-.28.5-.57.37-.87.45-.94.34-1.8-.32-2.58.45-.33.7-.74.79-1.21.12-.37.3-.71.54-1.03.07-.08.1-.07.1.03L31.17 15Z" fill="#54A4F3"/><path d="M25.81 15.34a4.57 4.57 0 0 1-1.44-2.25l1.44 2.25Z" fill="#B7C2CB"/><path d="M33.84 13.02a.7.7 0 0 1 .39.33c-.37.36-.5.25-.4-.33ZM35.24 13.74c.24.11.35.35.33.72 0 .07.02.13.07.17.13.09.2.05.2-.1a.7.7 0 0 1 .07-.34c.03-.04.06-.06.11-.05l.1.03c.09.01.13.06.13.14l.01.22c0 .16.09.24.25.24h.19c.13 0 .2.07.22.2.02.15-.03.2-.15.14a6 6 0 0 0-1.72-.16c-.26 0-.46.09-.6.24a1.4 1.4 0 0 0-.3.62c-.29.1-.6.08-.93-.07l.28-.56c.08-.16.03-.21-.13-.17-.24.07-.49.06-.76-.03a.1.1 0 0 1-.07-.1l-.02-.33c0-.06.02-.09.08-.08.85.15 1.7.18 2.57.1.1-.02.13-.07.08-.16-.24-.42-.24-.65-.01-.67Z" fill="#FDE9A0"/><path d="M30.56 14.13a1.9 1.9 0 0 1-.79 1.21c0-.36.27-.76.79-1.21ZM23.51 14.25c.14.25.43.46.87.63.05.04.08.09.1.15.04.16-.02.23-.18.19a2 2 0 0 1-1.13-.74c-.04-.09-.03-.16.03-.23.06-.08.17-.08.31 0ZM32.47 14.2a.84.84 0 0 0-.05.5c-.24.28-.3.3-.16.07-.86.5-1.23.57-1.09.22.4-.37.84-.64 1.3-.8Z" fill="#B7C2CB"/><path d="M23.14 14.7c.06.05.1.12.12.2l-.86.1a.36.36 0 0 0-.26.14c-.11.14-.19.3-.22.48-.02.13-.1.2-.23.2l-.73.01c-.18 0-.22-.07-.12-.22l.24-.35a.27.27 0 0 0 0-.33.14.14 0 0 1 0-.15c.05-.1.13-.15.24-.15.58.03 1.1-.01 1.53-.12.17-.04.27.02.29.19Z" fill="#FDE9A0"/><path d="m32.42 14.7.1 1.12-.02 2.63c.02-.33.01-.32 0 .04l-.03.63c0 .13-.06.21-.19.25-.6.2-1.16.46-1.67.81-.11.07-.17.04-.18-.09-.04-.36-.18-.58-.44-.66.91-.78 1.4-1.7 1.46-2.75a2.11 2.11 0 0 1 .55-1.24c.06-.09.1-.17.14-.27l.12-.4c-.13.24-.08.21.16-.07Z" fill="#696868"/><path d="M36.77 15.11c-.13.38-.2.72-.2 1.03a.8.8 0 0 1-.08.4c-.1.16-.22.29-.35.38-.08.05-.15.04-.2-.03-.06-.07-.11-.08-.18-.05a.25.25 0 0 0-.15.24l.02 1.35-2.12-.01c-.2 0-.25-.09-.16-.27l.92-1.96h2c.09 0 .13-.04.13-.12v-.14c0-.08-.04-.12-.12-.12h-2.12c.05-.25.15-.46.3-.62.13-.15.33-.23.6-.24.62-.03 1.2.03 1.71.16Z" fill="#FBC912"/><path d="M23.62 15.52c.35.35.53.66.52.95a2.8 2.8 0 0 0 .51 1.89l.87 1.06c-.21.05-.31.28-.3.68a.42.42 0 0 1-.3.01l-1.34-.67.04-3.92Z" fill="#696868"/><path d="M33.21 15.74c.34.15.65.18.95.07h2.12c.08 0 .12.04.12.12v.14c0 .08-.04.12-.12.12h-2c-.67-.2-1.26.55-1.78 2.26l.02-2.63c.3.03.53 0 .7-.08Z" fill="#D3A616"/><path d="M20.08 18.34c.14.13.26.14.35.02l.88.04c.13 0 .22-.05.27-.16l.9-1.86c.06-.11.15-.18.27-.2.18-.02.35-.03.52-.02.16 0 .2.08.12.21l-.97 1.8c-.09.15-.04.23.13.24h.57c.06 0 .09.04.09.1v.1c0 .05-.03.08-.09.08l-3 .05c-.13 0-.17-.05-.13-.17l.09-.23ZM34.27 16.2l-.92 1.95c-.09.18-.03.27.16.27h2.12c.16.02.27 0 .33-.03l.1.08.04.05v.11c-.02.08-.07.11-.14.11l-3.34-.06c-.05 0-.08-.03-.08-.08a.22.22 0 0 0-.04-.11c.01-.36.02-.37 0-.04.52-1.71 1.1-2.47 1.77-2.26Z" fill="#FDE9A0"/><path d="M28.74 18.15h-1.58c-.12.06-.2.01-.27-.15-.05-.16 0-.27.14-.35.95-.47 1.52-.3 1.7.5Z" fill="#54A4F3"/><path d="M30.1 17.92c.12.3 0 .59-.38.87-.33.24-.62.4-.9.5-.1.04-.19.02-.27-.05-.53-.4-1-.38-1.4.07-.45-.1-.7-.27-.73-.49 0-.11.04-.18.16-.2.35-.04.56-.18.62-.4l-.04-.08h1.58c.15.17.4.3.73.42.1.03.2.02.28-.05.17-.13.28-.33.34-.59Z" fill="#FBC912"/><path d="M25.56 18.18c.15.22.3.35.44.4.1.03.2.01.28-.06.28-.24.58-.34.92-.3-.06.22-.27.36-.62.4-.12.02-.17.09-.16.2.03.22.28.39.74.5-.86.05-1.39-.33-1.6-1.14ZM23.58 19.44l1.34.67c-.03.15 0 .27.1.37-.1-.06-.2-.04-.31.05l-.06-.15a.33.33 0 0 0-.13-.18 3.57 3.57 0 0 0-2.12-.64c-.2 0-.2-.04-.04-.14a.36.36 0 0 0 .05-.04.14.14 0 0 1 .09-.05c.41-.07.77-.03 1.08.1Z" fill="#FDE9A0"/><path d="M28.2 19.67c-.21-.04-.4-.05-.56-.02-.12.02-.18.08-.2.2l-.06.33c0-.2-.05-.28-.13-.25.03-.06.03-.14 0-.24-.03-.1 0-.17.1-.21.45-.2.74-.14.85.2Z" fill="#D3A616"/><path d="M25.52 19.42c.42.35.91.6 1.48.73 0 .15-.01.26-.06.35-.04.07-.12.1-.23.1h-.27c-.52-.05-.92-.22-1.22-.5-.01-.4.09-.63.3-.68Z" fill="#FBC912"/><path d="m37.08 20.17.04.2-3.23.12c-.14 0-.22.08-.23.22l-.1.83a.37.37 0 0 1-.21.3 1.2 1.2 0 0 1-.72.13c-.26-.04-.28-.13-.07-.29.25-.18.3-.4.12-.66a.4.4 0 0 0-.24-.16c-.41-.11-.72-.08-.92.08-.23-.07-.42-.29-.55-.65.34-.27.88-.52 1.64-.74.45-.13.73-.03.86.29.03.1.1.15.2.15 1 .04 2 .04 3 .02.15 0 .28.05.4.16Z" fill="#F99A26"/><path d="M28.2 19.67c.06.15.04.4-.04.77-.48-.04-.74-.13-.78-.26l.06-.34c.02-.1.08-.17.2-.2.16-.02.35-.01.56.03Z" fill="#FBC912"/><path d="M27.25 19.93c.08-.03.13.05.13.25.04.13.3.22.78.26l-1.7.33c.04-.08.03-.14-.02-.18.08.02.18.02.27.02.11 0 .19-.04.23-.11.05-.09.07-.2.06-.35.06.13.14.06.25-.22Z" fill="#696868"/><path d="M17.1 21.4c.02.06.07.13.16.18l1.24 2.13.57 1 .72 1.22.56.96c.1.44.26.7.49.77l1.14 1.97c.03.1.07.19.13.26a.44.44 0 0 0-.14.1c-.1.13-.08.2.08.22l.17.02a.3.3 0 0 0 .3-.13c.1-.13.21-.2.37-.22.1 0 .16.03.2.12.1.19.13.38.1.57 0 .04-.03.07-.06.1a.23.23 0 0 1-.12.05c-.1.01-.16.07-.17.17a3 3 0 0 0 .1 1.09c.06.26-.02.32-.26.2a.4.4 0 0 1-.2-.2c-.14-.67-.56-1.06-1.3-1.2a1.3 1.3 0 0 0-.42-.51c.27-.02.53-.16.8-.4.07-.07.08-.16.03-.25a47.94 47.94 0 0 1-1.64-2.91c-.26-.5-.42-.47-.47.1-.01.14-.11.41-.3.82a.87.87 0 0 1-.26-.54l.47-.83c.06-.1.07-.2.02-.31a7 7 0 0 0-1.1-1.9c-.28-.34-.38-.3-.27.15.07.29-.06.6-.39.92a1.15 1.15 0 0 1-.26-.54c.15-.27.3-.55.44-.84a.7.7 0 0 0 .07-.41.63.63 0 0 0-.2-.37c-.11-.11-.16-.09-.15.07.04.45-.06.9-.3 1.36-.2-.2-.34-.51-.44-.94.35-.58.49-1.03.4-1.35a4.4 4.4 0 0 0-.98-1.55.58.58 0 0 1 .03-.38c.05-.12.12-.13.18 0l.66 1.22Z" fill="#fff"/><path d="M24.92 20.11c.11.03.21.03.3 0 .3.27.7.44 1.22.48.05.04.06.1.01.18-.53.08-1 .37-1.43.88.08-.4.03-.66-.15-.77.17-.12.22-.25.14-.4-.1-.1-.12-.22-.1-.37Z" fill="#D3A616"/><path d="M30.97 20.29c.13.36.32.58.55.65l.55.6c.1.1.08.2-.05.27l-.24.13c-.1.05-.18.04-.25-.05l-.99-1.18a.24.24 0 0 1-.06-.17l.01-.1c.02-.08.06-.1.14-.06.22.1.33.07.34-.1ZM25.01 20.48c.08.15.03.28-.14.4l-.77 1.01c-.08.12-.19.13-.3.06l-.25-.16c-.12-.08-.14-.18-.05-.3.26-.36.67-.68 1.2-.96.11-.09.21-.1.31-.05Z" fill="#54A4F3"/><path d="M16.23 20.55c.53.61.86 1.13.98 1.55.09.32-.05.77-.4 1.35a4.1 4.1 0 0 1-.58-2.9Z" fill="#B7C2CB"/><path d="M18.38 20.97c-.42.11-.8.32-1.12.61a.36.36 0 0 1-.16-.19.9.9 0 0 0 .24-.25c.09-.12.16-.2.23-.24.27-.17.54-.15.81.07ZM38.93 23.5a2.03 2.03 0 0 1-.44-1.6c.03-.26.02-.44-.05-.55-.14-.22-.36-.26-.66-.13-.3-.4-.1-.5.61-.31.1.03.19.08.25.17a.9.9 0 0 1 .14.77.63.63 0 0 0 .01.32c.16.55.2 1 .14 1.33Z" fill="#FDE9A0"/><path d="m29.64 21.7-1.28-.27c-.1-.02-.15-.08-.12-.2.04-.16.18-.23.4-.22.43.03.76.26 1 .7Z" fill="#B7C2CB"/><path d="M35.21 23.72c-.24.12-.5.1-.8-.03l.55-.32c.11-.07.15-.16.14-.29a1.9 1.9 0 0 1 .04-.82.67.67 0 0 0 0-.33c-.02-.09-.06-.12-.13-.1a.32.32 0 0 1-.31-.1.21.21 0 0 1-.05-.08c-.03-.07 0-.1.07-.09.44.09.9.1 1.39.04.18-.02.23.04.14.2l-1.04 1.92ZM20.87 23.68c-.4.14-.85.16-1.36.04l.86-1.6c.04-.09.02-.13-.08-.13a1.57 1.57 0 0 1-.67-.19c-.2-.1-.2-.16.03-.17h1.03c.14 0 .18.06.11.18-.45.87-.43 1.5.08 1.87Z" fill="#FDE9A0"/><path d="M29.64 21.7a.6.6 0 0 1 .19-.04c.06 0 .12 0 .17.05.09.09.12.2.09.31-.05.2-.15.23-.29.07a.77.77 0 0 1-.16-.38Z" fill="#B7C2CB"/><path d="m32.14 24.1-.03.13c-.05.13-.12.15-.22.05a.96.96 0 0 1-.31-.58.36.36 0 0 1 .13-.35l.36-.3c.53-.4 1.14-.7 1.84-.9.17-.05.3 0 .38.16l.08.17c.09.16.05.28-.13.36-.74.3-1.4.64-2 1-.08.04-.12.13-.1.27ZM23.77 23.26c.3.19.34.5.13.94-.18 0-.36-.08-.53-.26a6.6 6.6 0 0 0-2.02-1.05c-.2-.06-.26-.19-.17-.38l.06-.13c.08-.18.22-.25.42-.2a6.2 6.2 0 0 1 2.1 1.08Z" fill="#54A4F3"/><path d="m32.07 23.06-.36.29a.36.36 0 0 0-.13.35c.03.23.13.42.3.58.11.1.18.08.23-.05l.03-.12.3.3c-.06.17 0 .36.17.58a.6.6 0 0 0-.37.34.58.58 0 0 0-.02.48l.14.39c.04.1.1.16.22.16.16 0 .3.03.41.1 0 .14.04.28.1.4v.1c-.01.1-.04.1-.09.01a.13.13 0 0 0-.06-.06.18.18 0 0 0-.2.01c-.15.1-.23.3-.24.57-.35-.26-.52-.25-.5.01-1.11.43-2.21.13-3.3-.88a2.2 2.2 0 0 0-1.74 0c-1.2 1.01-2.31 1.3-3.32.88-.18-.14-.33-.2-.46-.14-.18-.36-.4-.53-.64-.5 0-.16-.01-.32-.06-.49.2.13.37.17.51.15a.27.27 0 0 0 .22-.2l.7-2.12c.2-.44.15-.75-.14-.94l-.03-.52c-.01-.16.05-.2.19-.11l.23.16c.7.47 1.29.66 1.76.55.11-.03.22 0 .3.09.12.1.23.1.34-.01.08-.09.17-.1.28-.05a.5.5 0 0 0 .47 0c.1-.04.17-.02.23.06l.07.07c.03.02.06.03.1.03.38 0 .76-.02 1.14-.07.08-.08.18-.1.29-.06.06.02.13.03.2.02.39-.03.76-.08 1.1-.15.19-.04.41-.16.67-.37.26-.2.48-.33.67-.38.16-.04.22.02.17.18-.06.17-.01.28.12.36Z" fill="#F99A26"/><path d="M17.39 24.58a.66.66 0 0 0-.14-.19c.24-.45.34-.9.3-1.36-.01-.16.04-.18.15-.07.11.1.18.23.2.37a.7.7 0 0 1-.07.41c-.14.29-.29.57-.44.84Z" fill="#B7C2CB"/><path d="M18.5 23.71c.41.1.75.1 1.01.01.5.12.96.1 1.36-.04l.86.07c-.06.14-.06.22 0 .23a.87.87 0 0 0-.35.63c-.01.29.11.48.38.6.26.1.5.24.7.4.12.12.22.1.3-.06.15-.32.24-.65.28-.97-.13-.06-.18-.16-.17-.3.16.07.32-.05.5-.34.17.18.35.27.53.26l-.69 2.12c-.03.11-.1.17-.22.2-.14.02-.31-.02-.51-.15l-1.31-.66c-.18-.1-.3-.05-.37.15-.1.28-.1.52.01.73-.15.04-.3.14-.46.3l-.56-.96c0-.04.04-.07.1-.1.3-.02.58-.32.84-.9l.1-.21c.05-.1.02-.18-.08-.22-.2-.08-.42-.06-.65.06-.54-.15-.88-.1-1.03.15l-.57-1Z" fill="#D3A616"/><path d="M33.85 23.7c.05.1.07.2.04.28-.6.14-1.04.48-1.28 1-.17-.21-.23-.4-.17-.57.47-.35.94-.58 1.41-.7Z" fill="#696868"/><path d="M33.85 23.7h.55c.3.13.57.14.81.02l3.08.06c.1.16.11.39.05.66l-2 .02c-.44.16-.79.6-1.04 1.35-.04.1 0 .17.1.2.15.04.27.02.34-.07.6.14 1.21.14 1.86 0 .1.1.13.34.07.71l-2.83.05c.04-.17.04-.29 0-.34-.03-.28-.13-.47-.3-.58a.25.25 0 0 0-.27-.02l-1.28.7a.86.86 0 0 0-.4-.1c-.12 0-.2-.06-.23-.16a5.33 5.33 0 0 0-.14-.39.58.58 0 0 1 .02-.48.6.6 0 0 1 .37-.34l.13.45c.03.1.1.15.2.11a3.79 3.79 0 0 0 1.44-.78c.09 0 .17.09.25.27.08.17.18.19.3.04l.29-.38c.1-.13.07-.2-.09-.24a1.05 1.05 0 0 0-.69.05c-.08.04-.14.03-.2-.04l-.1-.1-.25-.4a.38.38 0 0 0-.04-.26Z" fill="#D3A616"/><path d="M21.73 23.75c.4.08.78.26 1.14.53-.01.14.04.24.17.3-.2 0-.44-.1-.72-.3a1.85 1.85 0 0 0-.59-.3c-.06-.01-.06-.09 0-.23Z" fill="#696868"/><path d="M18.92 27.09c-.17-.04-.37-.2-.6-.5 0 .1.03.1.1.04.05-.04.06-.09.03-.14l-.8-1.37c.33-.32.46-.63.39-.92-.1-.44-.01-.49.28-.14a7 7 0 0 1 1.1 1.89c.04.1.03.21-.03.31l-.47.82Z" fill="#B7C2CB"/><path d="M21.73 23.98c.16.04.35.13.59.3.28.2.52.3.72.3-.04.32-.13.65-.29.97-.07.15-.17.18-.3.07-.2-.17-.43-.31-.7-.42-.26-.1-.38-.3-.37-.6a.87.87 0 0 1 .35-.62ZM33.9 23.98l.24.38c0 .18.08.31.24.4-.42.37-.9.64-1.43.8-.11.03-.18-.01-.21-.12l-.13-.45c.24-.53.67-.87 1.28-1.01Z" fill="#54A4F3"/><path d="M26.23 24.86c.26.14.54.13.63-.03.1-.16-.04-.41-.3-.56-.26-.15-.54-.13-.63.03-.1.16.04.41.3.56ZM29.35 24.85c.27-.13.42-.38.33-.54-.08-.17-.36-.19-.63-.05-.27.13-.41.38-.33.54.08.17.37.19.63.05Z" fill="#fff"/><path d="m34.14 24.36.1.11c.06.07.12.08.2.04.21-.1.44-.11.7-.05.15.03.18.11.08.24l-.3.38c-.11.15-.21.13-.29-.04-.08-.18-.16-.27-.25-.27a.46.46 0 0 1-.24-.4Z" fill="#FDE9A0"/><path d="M20.1 24.56c-.18.29-.31.62-.39.98-.02.1 0 .17.08.24l.1.05c-.06.03-.1.06-.1.1l-.72-1.22c.15-.24.5-.3 1.03-.15Z" fill="#FBC912"/><path d="M19.88 25.83a.32.32 0 0 1-.09-.05.22.22 0 0 1-.08-.24c.08-.36.2-.7.39-.98.23-.12.45-.14.65-.06.1.04.13.12.08.22l-.1.2c-.26.59-.55.89-.85.91ZM36.33 24.46l-.59 1.48c-.08.09-.19.11-.33.07-.11-.03-.15-.1-.11-.2.25-.74.6-1.2 1.03-1.35Z" fill="#FDE9A0"/><path d="M38.34 24.44c.08.37-.01.77-.28 1.2-.16.25-.31.35-.46.3-.65.14-1.27.14-1.86 0l.6-1.48 2-.02Z" fill="#FBC912"/><path d="M26.04 25.8a.85.85 0 0 0-.5-.35c-.16-.03-.22.02-.18.18l.03.15c.05.2.16.26.34.19l.3-.11c-.05.3-.18.5-.4.58-.28.1-.5 0-.63-.3a.84.84 0 0 1 0-.78c.05-.1.04-.2-.04-.28a.26.26 0 0 1-.06-.17c0-.19.09-.23.24-.12l.97.7c.07.04.1.12.08.2-.02.07-.07.1-.15.12ZM30.54 25.25c.01.06.03.12.07.17.14.2.15.41.03.65a.72.72 0 0 1-.5.4.33.33 0 0 1-.34-.1c-.19-.2-.3-.44-.36-.73a.24.24 0 0 1 .12-.26l.95-.61c.16-.11.24-.07.22.13-.01.07-.04.11-.09.14a.2.2 0 0 0-.1.2Z" fill="#652B0A"/><path d="M17.2 25.51c-1.07-.04-1.62.4-1.64 1.33-.28-.57-.19-1.03.27-1.38.45-.34.9-.33 1.36.05ZM40.56 26.71c-.22-1-.91-1.33-2.09-1.02.52-.32.88-.46 1.09-.43.85.13 1.19.61 1 1.45Z" fill="#FDE9A0"/><path d="M26.04 25.8v.06l-.3.1c-.19.08-.3.02-.35-.18l-.03-.15c-.04-.16.02-.21.17-.18.2.05.38.17.51.36ZM29.77 25.6a.34.34 0 0 1 .16-.18c.1-.05.16-.02.18.09.03.14.02.28-.02.41-.06.18-.15.2-.27.05a.35.35 0 0 1-.05-.37Z" fill="#D3A616"/><path d="M17.2 25.51c.09.06.16.14.21.26.05.12.02.2-.1.23-.17.06-.27.16-.3.3-.03.11 0 .2.06.3l.87 1.23c.08.12.17.13.28.04l.08-.07c.13-.1.14-.24.04-.38-.16-.23-.17-.5-.02-.83.23.3.43.46.6.5.03.22.11.4.26.54l.5.89c-.08.57-.09 1.13-.04 1.7v.46c-.03.36 0 .63.1.82.18.37.08.61-.32.73a.65.65 0 0 1-.5-.06.23.23 0 0 1-.14-.23l.06-2.65c0-.3-.14-.45-.44-.45h-2.85l.12-.81c.02-.14.1-.2.23-.19.36.02.73.03 1.1.03.03 0 .05-.02.05-.06 0-.03-.01-.05-.05-.05-.47.03-.9-.08-1.29-.33l-.15-.59c.02-.93.57-1.37 1.63-1.33ZM40.56 26.71c-.24.42-.23.77.02 1.07.07.08.1.18.1.28v.7c0 .16.08.25.23.25h.52c.16 0 .23.08.22.24-.01.2-.07.4-.17.58-.06.1-.08.2-.07.3.04.26.17.58.4.96-.34-.41-.7-.62-1.05-.63-1.03 0-2.02 0-2.98.03-.14 0-.21-.06-.21-.2v-.94c0-.15.07-.23.22-.23l2.76.05c.07 0 .1-.03.1-.1v-.1c-.01-.1-.06-.13-.14-.13l-3.08.01c-.14 0-.2.07-.2.21l-.02 2.87c0 .2-.1.3-.31.29l-.44-.03c-.11-.01-.17-.07-.17-.19v-4.26c0-.09-.05-.16-.13-.2-.37-.21-.75-.27-1.15-.18l-1.63 1c-.31.06-.6-.12-.87-.53a.55.55 0 0 1 0-.34c0-.28.08-.46.23-.57a.18.18 0 0 1 .2-.01c.03.01.05.03.06.06.05.1.08.1.1-.01 0-.03 0-.07-.02-.1l.06-.05c-.03.26-.02.46.05.6.1.2.26.24.45.11l1.2-.82 2.83-.05c.18.26.18.5 0 .7-.22.26-.17.44.17.52.25.05.41-.05.5-.3.1-.3.27-.56.51-.76.17-.14.22-.3.14-.5a1.76 1.76 0 0 0-.52-.62c1.18-.31 1.87.03 2.1 1.02Z" fill="#FBC912"/><path d="M22.48 26.37c.05.17.07.33.06.49-.06.12-.08.13-.07.03l-1.27-.84c-.1-.07-.19-.05-.25.06-.09.13-.1.35-.04.68-.04-.13-.07-.2-.1-.2-.1-.2-.1-.45-.01-.73.06-.2.19-.25.37-.15l1.3.66Z" fill="#5B81AE"/><path d="m34.85 26.36-.3-.27c-.09-.06-.17-.07-.26-.01l-1.15.73-.06.04a1.02 1.02 0 0 1-.09-.4l1.28-.69c.1-.05.19-.04.28.02.16.11.26.3.3.58Z" fill="#696868"/><path d="M22.47 26.89c0 .26-.05.45-.14.59-.06.1-.14.12-.25.07a4 4 0 0 1-1.17-.76c-.06-.33-.05-.55.04-.68.06-.1.15-.13.25-.06l1.27.84ZM34.85 26.36c.03.05.03.17-.01.34l-1.2.82c-.2.13-.34.1-.45-.11a1.07 1.07 0 0 1-.05-.6l1.15-.73c.09-.06.17-.05.26.01l.3.27Z" fill="#54A4F3"/><path d="m20.76 30.27-1.07-1.75-.51-.89c.19-.4.29-.68.3-.83.05-.56.2-.6.47-.1.56 1.07 1.1 2.05 1.64 2.92.05.1.04.18-.04.25-.26.24-.52.38-.8.4Z" fill="#B7C2CB"/><path d="M28.7 26.62c-.12.45-.32.7-.6.78-.1.03-.16.1-.18.2-.07.29.1.56.48.8l.26.18c.02.02.04.01.06 0v.07c0 .05-.03.06-.07.03-.5-.36-1.04-.39-1.6-.06-.17.1-.2.07-.08-.1a.53.53 0 0 1 .2-.17c.39-.19.5-.46.37-.83a.3.3 0 0 0-.2-.2c-.24-.07-.37-.3-.38-.7a2.2 2.2 0 0 1 1.75 0Z" fill="#652B0A"/><path d="M20.81 26.59c.03 0 .06.07.1.2a4 4 0 0 0 1.17.76c.1.05.19.02.25-.07.1-.14.14-.33.14-.6-.01.11.01.1.07-.02.24-.03.46.14.64.5a3.56 3.56 0 0 0-.02 1.55 1.4 1.4 0 0 1-1.05.98.64.64 0 0 1-.13-.26c.05-.03.1-.06.13-.1.08-.08.1-.17.07-.28a.67.67 0 0 1 .09-.6c.07-.1.05-.18-.06-.24l-1.37-.75c-.23-.08-.39-.33-.49-.77.16-.16.31-.26.46-.3Z" fill="#FBC912"/><path d="M26.96 26.62c.01.4.14.63.37.7.1.04.17.1.2.2.15.37.03.64-.35.83a.53.53 0 0 0-.21.17c-.12.17-.1.2.08.1.56-.33 1.1-.3 1.6.06.04.03.06.02.07-.03v-.08c-.02.02-.04.03-.06 0l-.26-.17c-.39-.24-.55-.51-.48-.8.02-.1.08-.17.19-.2.27-.07.47-.33.6-.78 1.08 1.01 2.18 1.3 3.3.88-.56 1.28-1.62 2.05-3.18 2.32a5.6 5.6 0 0 1-3.95-.7 4.5 4.5 0 0 1-1.18-1.21l-.23-.32c-.04-.04-.03-.08.02-.11.03-.02.08-.01.15.02 1 .43 2.11.13 3.32-.88Z" fill="#fff"/><path d="M28 26.89c-.14.1-.28.1-.41.03-.22-.13-.2-.21.04-.27a.83.83 0 0 1 .33 0c.2.04.21.12.05.24Z" fill="#D3A616"/><path d="M23.18 27.36c.13-.05.28 0 .46.14-.07-.03-.12-.04-.15-.02-.05.03-.06.07-.02.11l.23.32c.44.6.83 1.01 1.18 1.22a5.6 5.6 0 0 0 3.95.69c1.56-.27 2.62-1.04 3.18-2.32-.03-.26.14-.27.5-.01a.55.55 0 0 0 0 .34c.13.66.09 1.15-.14 1.46-.29.3-.64.53-1.05.69-.7.1-1.15.31-1.36.67-.47.18-1 .26-1.6.22.08-.22.05-.33-.07-.33-1.35.01-2.68-.15-3.99-.5a2.7 2.7 0 0 1-1.14-1.13c-.11-.41-.1-.93.02-1.55Z" fill="#D1BFB5"/><path d="M41.82 31.09c-.12.21-.22.34-.32.4.02-.09-.02-.16-.12-.23a.42.42 0 0 0-.22-.07h-3.35c-.16 0-.24.07-.24.24v.56c0 .15.08.23.23.23h2.31c.22 0 .33.1.33.32l.03 2.73c0 .1.05.15.15.15h1.82c.07.03.1.06.08.09a.75.75 0 0 0-.4.18l-7.73.14c-.58-.05-.82-.17-.7-.35.66.13 1.15.06 1.46-.19.35.13.7.15 1.02.07.22.2.45.19.68-.01l3 .1c.12 0 .18-.06.18-.18l.03-2.56a.15.15 0 0 0 .03-.1c0-.07-.03-.1-.1-.1l-7.07.01c-.04-.06-.18-.08-.43-.07l-.12-3.16c.23-.31.27-.8.14-1.46.27.41.56.59.87.53-.11.26-.1.48.05.66a.96.96 0 0 0-.02.43c.01.11.07.15.18.11l.3-.1c.05.2.06.42.04.63-.01.07.01.12.07.15.03.02.07.02.11.02.18-.02.19.02.03.1-.6.32-1 .85-1.2 1.59a.2.2 0 0 0 .1.23c.18.13.4.1.67-.08.7.16 1.38.19 2.07.07.11-.02.17-.08.17-.19a22.2 22.2 0 0 0-.1-3.52.52.52 0 0 0-.11-.3c-.13-.13-.25-.14-.38-.02-.05-.32-.14-.46-.27-.43.06-.19.03-.3-.08-.35.4-.1.78-.03 1.15.17.08.05.13.12.13.21V32c0 .12.06.18.17.19l.44.03c.2.02.3-.08.3-.29l.02-2.87c0-.14.07-.21.21-.21l3.08-.01c.08 0 .13.04.13.12l.01.1c0 .08-.03.11-.1.11l-2.76-.05c-.15 0-.23.08-.23.23v.94c0 .14.08.2.22.2.96-.02 1.95-.03 2.98-.03.36 0 .71.22 1.06.63Z" fill="#D3A616"/><path d="M15.71 27.43c.4.25.82.36 1.3.33.03 0 .04.02.04.05 0 .04-.02.06-.05.06-.37 0-.74-.01-1.1-.03-.14 0-.21.05-.23.19l-.12.81a.19.19 0 0 1-.12.05c-.04 0-.06-.01-.07-.05v-.09c-.18-.6-.07-1.04.35-1.32Z" fill="#FDE9A0"/><path d="M35.01 27.36c.11.04.14.16.08.35-.63.31-1.18.75-1.66 1.31-.14-.18-.16-.4-.05-.66l1.63-1Z" fill="#696868"/><path d="m21.98 29.63-1.14-1.97 1.37.75c.1.06.13.14.06.24a.67.67 0 0 0-.09.6c.03.1 0 .2-.07.29a.72.72 0 0 1-.13.1Z" fill="#5B81AE"/><path d="M35.1 27.7c.12-.02.2.12.26.44l-1.1 1.02-.37.3-.3.1c-.1.04-.17 0-.18-.1a.96.96 0 0 1 .02-.44c.48-.56 1.03-1 1.66-1.31Z" fill="#54A4F3"/><path d="m33.71 32.1.75-1.66a.28.28 0 0 0-.02-.27c-.17-.3-.23-.63-.18-1l1.1-1.03c.13-.12.25-.11.38.02.06.07.1.17.12.3.12 1.16.15 2.33.09 3.52 0 .11-.06.17-.17.2-.69.1-1.38.08-2.07-.08Z" fill="#FBC912"/><path d="m19.69 28.52 1.07 1.75c.15.09.29.26.43.52l-.14.6c.09.18.1.28.04.3l-.2-.01c0-.22.05-.4.11-.55.13-.27.05-.35-.22-.23-.28.13-.55.29-.82.48-.1.07-.11.15-.06.25.1.2.31.28.62.26-.06.13-.06.25 0 .36.04.06.06.1.05.13 0 .05-.04.1-.1.14l-4.36-.04c-.1 0-.17.05-.18.16-.01.07 0 .11.03.14l.03 2.43c0 .11.05.19.15.24.13.05.28.04.43-.04l1.64.1a.42.42 0 0 0-.06.28l-4.74-.13a.82.82 0 0 1 .1-.3c.6.16 1.23.19 1.87.07.12-.02.19-.1.19-.22l.02-2.72c0-.2.1-.3.28-.29l2.31.03c.15 0 .23-.07.23-.22l.01-.68c0-.13-.06-.2-.19-.2l-3.92.1c-.3-.3-.17-.6.36-.93a.26.26 0 0 0 0 .16c.01.08.07.12.15.11 1.14-.1 2.26-.12 3.37-.04.15 0 .22-.07.22-.22l-.05-.9c0-.15-.08-.23-.24-.23l-2.93-.16c.06-.18.12-.27.17-.27v.09c0 .04.03.05.07.05.05 0 .09-.02.12-.05h2.85c.3 0 .45.15.44.45l-.06 2.65c0 .1.05.18.14.23.17.09.33.1.5.06.4-.12.5-.36.31-.73-.09-.19-.12-.46-.1-.82.02-.2.02-.36.01-.46a7.22 7.22 0 0 1 .05-1.7Z" fill="#D3A616"/><path d="m15.2 29.02 2.92.16c.16 0 .24.08.24.23l.05.9c0 .15-.07.23-.22.22-1.1-.08-2.23-.06-3.37.04-.08.01-.14-.03-.16-.11a.26.26 0 0 1 .01-.16c.01-.09-.05-.22-.2-.4-.15-.18-.19-.42-.13-.71.03-.11.1-.18.2-.2.23-.04.45-.03.65.03Z" fill="#FBC912"/><path d="M23.16 28.91c.36.59.74.97 1.14 1.13-.03.15-.17.23-.41.23a.3.3 0 0 1-.28-.16c-.08-.13-.16-.13-.24-.01l-.1.19c-.29.75-.22 1.24.2 1.47a.92.92 0 0 1-.58.58.7.7 0 0 0-.44.54.7.7 0 0 0 .2.66c.07.07.05.2-.06.4h-.06c-.37.03-.63 0-.77-.08.3-.21.3-.62-.04-1.2-.04-.08-.03-.1.06-.07h.1c.08-.02.12-.07.13-.15 0-.08 0-.16-.05-.22 0-.1.02-.18.07-.22.1-.1.2-.13.27-.12.04 0 .1.04.17.1.03.08.1.15.21.2.24.12.32.06.25-.2a3 3 0 0 1-.1-1.09c.02-.1.08-.16.18-.17.05 0 .09-.03.12-.06a.16.16 0 0 0 .06-.09c.03-.19 0-.38-.1-.57-.04-.09-.1-.13-.2-.12a.49.49 0 0 0-.36.22.3.3 0 0 1-.31.13l-.17-.02c-.16-.02-.19-.1-.08-.21a.44.44 0 0 1 .14-.1 1.4 1.4 0 0 0 1.05-.99Z" fill="#D3A616"/><path d="M34.26 29.16c-.05.38.01.71.18 1 .05.1.06.18.02.28l-.75 1.66c-.26.18-.49.2-.68.08a.2.2 0 0 1-.08-.23c.2-.74.6-1.27 1.19-1.59.16-.08.15-.12-.03-.1a.2.2 0 0 1-.11-.02c-.06-.03-.08-.08-.08-.15.03-.21.02-.42-.03-.63l.37-.3Z" fill="#FDE9A0"/><path d="m32.37 29.29.12 3.16-.04 1.72-.5-.65c.09-.3.1-.6 0-.9.12-.66.03-1.3-.29-1.95l-.34-.7c.41-.15.76-.38 1.05-.68Z" fill="#696868"/><path d="M24.3 30.04c1.31.35 2.64.51 3.99.5.12 0 .15.1.08.33-.03-.02-.05 0-.07.06a.88.88 0 0 1-.62-.02c-.15-.05-.22 0-.2.16.02.31.13.67.33 1.09a6.4 6.4 0 0 0 2.54-.74c.06.12.07.23.03.32a.24.24 0 0 1-.21.16c-.15 0-.29.04-.42.1-.16.06-.15.1.02.11.55.05.98-.07 1.29-.36.1-.1.15-.07.17.06l.12.77c.01.1.07.16.17.18.18.03.33-.01.43-.13.1.29.09.58 0 .89-.52.26-.83.55-.96.86-.2-.12-.35-.1-.47.09a.33.33 0 0 1-.25.16l-.48.07c-.16-.17-.4-.28-.72-.34a1.5 1.5 0 0 1-.6-.22.4.4 0 0 0-.28-.08l-4.3.55c-.96-.44-1.16-1.1-.6-1.97.27-.43.67-.52 1.2-.25.1.05.15.02.13-.1a.9.9 0 0 0-.23-.41c.43-.22.7-.55.79-.98a.29.29 0 0 0-.14-.32l-.44-.28c-.13-.09-.21-.05-.25.1l-.3 1.1c-.2-.03-.4.06-.59.26-.41-.23-.48-.72-.19-1.47l.1-.2c.08-.11.16-.1.24.02.06.1.16.16.28.16.24 0 .38-.08.41-.23Z" fill="#F99A26"/><path d="m31.32 29.98.34.7-1.33.25c-.1-.2-.22-.3-.37-.28.21-.36.67-.58 1.36-.67Z" fill="#D3A616"/><path d="m24.4 31.88-.36-.37.3-1.11c.05-.15.13-.19.26-.1l.44.28c.12.08.17.18.14.32-.1.43-.36.76-.79.98Z" fill="#FBC912"/><path d="M29.96 30.65c.15-.02.27.07.37.28.08.2.09.36.02.5a6.4 6.4 0 0 1-2.54.73 1 1 0 0 0 .38-.76c0-.2.09-.25.26-.14.04.03.06.08.05.14-.02.15.05.2.2.15l.5-.18c.1-.03.16-.1.16-.22 0-.13-.06-.22-.2-.24a3.02 3.02 0 0 0-.86.02c.02-.06.04-.08.07-.06.58.04 1.12-.04 1.59-.22Z" fill="#5B81AE"/><path d="M31.66 30.67c.32.64.41 1.3.3 1.96-.12.12-.26.16-.44.13-.1-.02-.16-.08-.17-.18l-.12-.77c-.02-.13-.08-.15-.17-.06-.3.3-.74.41-1.3.36-.16 0-.17-.05-.01-.11.13-.06.27-.1.42-.1.1-.01.17-.06.21-.16.04-.1.03-.2-.03-.32.07-.13.06-.3-.02-.49l1.33-.26Z" fill="#FBC912"/><path d="M21.19 30.79c.73.13 1.15.52 1.28 1.18a.38.38 0 0 0-.17-.1c-.07 0-.16.04-.27.13-.05.04-.08.12-.07.22-.14-.43-.44-.7-.9-.83l.13-.6Z" fill="#FDE9A0"/><path d="M20.88 31.68c-.1.09-.22.16-.36.2-.3.03-.51-.06-.62-.25-.05-.1-.04-.18.06-.25.27-.2.54-.35.82-.48.27-.12.35-.04.22.23-.06.14-.1.33-.12.55Z" fill="#696868"/><path d="M28.3 30.93c.41-.05.7-.06.86-.02.14.02.2.1.2.24 0 .11-.05.19-.16.22l-.5.18c-.15.05-.22 0-.2-.15.01-.06 0-.1-.05-.14-.17-.1-.25-.06-.26.14a1 1 0 0 1-.38.76c-.2-.42-.31-.78-.34-1.09 0-.16.06-.21.21-.16.22.08.43.09.62.02Z" fill="#54A4F3"/><path d="M13.51 35.36a1.02 1.02 0 0 0-.88-.3c-.14.02-.2-.04-.19-.18.06-.4.01-.79-.14-1.16-.2-.48-.02-.92.56-1.3.15-.1.24-.06.26.12.03.22.13.4.28.55.09.08.18.09.27.02.13-.1.16-.2.1-.35a.9.9 0 0 0-.18-.27c-.12-.13-.18-.25-.19-.37 0-.1.02-.2.1-.27a.3.3 0 0 1 .3-.09c.22.06.45.07.68.04.13-.02.17-.1.12-.22-.04-.1-.14-.23-.29-.36l3.92-.09c.13 0 .2.07.2.2l-.02.68c0 .15-.08.22-.23.22l-2.3-.03c-.2 0-.3.1-.3.29l-.01 2.72c0 .12-.07.2-.2.22-.63.12-1.25.1-1.86-.07ZM41.5 31.48c-.2.11-.2.22-.02.33l.07.02h.78c.12 0 .2.05.25.17.02.04.03.1.02.15-.05.17-.14.33-.28.47-.07.07-.08.17-.04.3.07.19.18.22.34.1a.6.6 0 0 0 .24-.4c.02-.12.1-.2.22-.21.13-.02.22.02.28.13l.38.66c.06.1.07.22.02.34-.15.41-.2.83-.15 1.27.02.16-.05.23-.2.22-.45-.04-.78.1-.97.4h-1.82c-.1 0-.15-.06-.15-.16l-.03-2.73c0-.22-.1-.33-.33-.33l-2.3.01c-.16 0-.24-.08-.24-.23v-.56c0-.17.08-.25.24-.25l3.35.01c.08 0 .15.03.22.07.1.07.14.14.12.22Z" fill="#FBC912"/><path d="M21.05 31.39c.47.12.77.4.91.83.04.06.06.14.05.22 0 .08-.05.13-.12.15a.17.17 0 0 1-.11 0c-.09-.03-.1-.01-.06.07.33.58.34.99.04 1.2a1.54 1.54 0 0 1-.74-.46l-.14-.45c.06-.23.16-.47.3-.72.11-.21.08-.39-.09-.54.06-.02.05-.12-.04-.3Z" fill="#54A4F3"/><path d="m20.88 31.68.21.01c.17.15.2.33.09.54-.14.25-.24.5-.3.72a6.62 6.62 0 0 0-1.34 2.34c-.04.1 0 .17.11.19.23.03.4-.05.5-.25.3-.59.6-1.2.87-1.83.2.23.45.38.74.46.14.09.4.11.77.07.04.24.16.42.35.56.1.06.15.14.19.24.13.45.12.92-.04 1.41-.14.06-.24.2-.3.4-.02.1-.02.2.02.3.06.14.07.28.04.41l-5.14.02a2 2 0 0 1 .6-1.19.4.4 0 0 1 .28-.12l4.08-.04c.03 0 .04 0 .04-.03v-.1c0-.05-.02-.07-.06-.07l-4.44.07c0-.12.01-.21.06-.28l1.39-2.55c.05-.1.13-.15.23-.15.43-.02.64-.12.64-.3.06-.03.1-.08.1-.13 0-.03-.01-.07-.05-.13-.06-.1-.06-.23 0-.36.14-.05.26-.12.36-.21Z" fill="#FBC912"/><path d="m27.1 32.24-1.63.68a.23.23 0 0 0-.16.23c0 .1.03.22.1.35-.25-.09-.36-.24-.35-.45 0-.11.05-.2.15-.26a3.42 3.42 0 0 1 1.89-.55Z" fill="#696868"/><path d="m27.1 32.24.25.48a.5.5 0 0 1 .07.51.5.5 0 0 1-.4.33c-.58.1-1.12.07-1.62-.06a.88.88 0 0 1-.09-.35c0-.11.05-.19.16-.23l1.63-.68Z" fill="#54A4F3"/><path d="M20.47 32.52c0 .17-.21.27-.64.29-.1 0-.18.05-.23.15L18.2 35.5l-1.64-.1 1.24-2.47c.07-.14.03-.2-.12-.2l-1.73.04c-.03-.03-.04-.07-.03-.14.01-.1.07-.16.18-.16l4.36.04Z" fill="#FDE9A0"/><path d="M32.49 32.45c.25-.01.4 0 .43.07.43.24.9.3 1.44.18.18-.04.23.02.15.18-.35.75-.73 1.5-1.13 2.24a.26.26 0 0 0-.01.23c.03.1.14.15.32.13-.12.18.12.3.7.35a.34.34 0 0 0-.16-.03c-.11 0-.16.06-.13.17.03.17 0 .32-.1.46a4 4 0 0 0-.45.82c-.07.05-.14.05-.2-.02-.07-.12-.11-.26-.13-.41.2-.56.14-.92-.18-1.09a2.53 2.53 0 0 1-.6-1.56l.05-1.72Z" fill="#FBC912"/><path d="m32.92 32.52 7.07-.01c.07 0 .1.03.1.1 0 .05-.01.08-.03.1-.52 0-1-.01-1.46-.04-.29-.01-.51.12-.66.41-.36.67-.72 1.43-1.1 2.27-.22.2-.45.2-.67.01l1.18-2.35c.1-.2.04-.3-.18-.3l-.4.01c-.23 0-.4.11-.5.31l-1.12 2.26c-.31.25-.8.32-1.46.2-.18.01-.29-.04-.32-.14a.26.26 0 0 1 .01-.23c.4-.74.78-1.49 1.13-2.24.08-.16.03-.22-.15-.18-.53.12-1.01.06-1.44-.18Z" fill="#FDE9A0"/><path d="M16.57 35.41c-.15.08-.3.1-.43.04a.24.24 0 0 1-.15-.24l-.03-2.43 1.73-.04c.15 0 .19.06.12.2l-1.24 2.47ZM36.17 35.36c-.33.08-.67.06-1.02-.07l1.12-2.26c.1-.2.27-.3.5-.3l.4-.02c.22 0 .29.1.18.3l-1.18 2.35ZM40.06 32.7l-.03 2.57c0 .12-.06.18-.18.17l-3-.1c.37-.83.73-1.59 1.09-2.26.15-.29.37-.42.66-.4.46.02.94.03 1.46.03Z" fill="#FBC912"/><path d="M23.7 33.47c.05.33.3.56.55.52.24-.04.4-.34.35-.67-.06-.33-.3-.56-.55-.52-.25.04-.4.34-.35.67Z" fill="#54A4F3"/><path d="m20.88 32.95.14.45c-.28.63-.57 1.24-.87 1.83-.1.2-.27.28-.5.25-.11-.02-.15-.08-.11-.19.29-.88.73-1.66 1.34-2.34Z" fill="#FDE9A0"/><path d="m31.94 33.52.5.65c.03.59.22 1.1.6 1.56-.34.3-.82.47-1.46.54a4.42 4.42 0 0 1-.59-1.89c.13-.31.44-.6.95-.86Z" fill="#54A4F3"/><path d="M22.53 33.93h.06l.31.24a.7.7 0 0 1 .2.23c.29.48.55.55.79.2l4.3-.54c.1-.01.2.01.29.08.13.1.33.17.6.22.31.06.55.17.7.34v.87c-.94.11-2.2.15-3.78.12-.7-.02-1.24-.02-1.6-.02a1.6 1.6 0 0 1-.34-.05c-.31-.08-.55-.05-.7.08-.13.1-.2.17-.21.2-.05.08-.04.2 0 .33 0 .05-.05.02-.12-.09.16-.5.17-.96.04-1.4a.46.46 0 0 0-.19-.25.81.81 0 0 1-.35-.56Z" fill="#5B81AE"/><path d="M31 34.38c.06.72.26 1.35.58 1.89.13.02.22.06.28.1.06.06.08.14.04.25-.06.16-.16.34-.3.53l-1.15.21c-.12.03-.16.1-.12.22l.4 1.17c.06.16.16.25.33.26.43.05.83-.04 1.22-.28.37-.06.72-.2 1.06-.4l1.91-.18c.1-.01.19-.06.26-.13.22-.26.53-.36.9-.3.12.02.15.08.1.19l-.07.13c-.07.11-.03.17.1.17l4.67-.05c.13 0 .2.06.2.19l-.05 1.92c0 .15-.07.22-.22.22l-5.88.03 1.12-2.22c.05-.1.02-.16-.1-.16h-.46a.29.29 0 0 0-.28.16c-.43.85-.72 1.48-.87 1.88-.03.1 0 .2.1.32-.04-.05-.08-.02-.13.08-.23-.15-.7-.19-1.38-.1-.25.02-.27-.03-.05-.16.14-.09.3-.14.46-.14.09 0 .15-.04.17-.13.02-.07-.01-.16-.1-.27l-.07-.7c0-.1-.06-.14-.16-.1-.65.27-1.3.51-1.96.73-.26.1-.5.1-.73.04-.45-.13-.87-.77-1.24-1.9a9.4 9.4 0 0 1-.06-.27.17.17 0 0 0-.17-.1l-1.14.06c-.13 0-.16.06-.1.18.12.25.28.45.47.6.05-.02.1-.03.13-.01.1.02.1.07.05.14-.17.23-.17.43 0 .63.1.1.07.17-.06.2l-.15.03c-.16.03-.28-.02-.35-.17l-.54-.96c-.07-.13-.18-.16-.33-.1l-.27-.35c.36-.29.45-.67.27-1.14l2.23-.06c.12 0 .19-.06.22-.17.06-.24.06-.5 0-.79v-.87l.5-.07c.1-.02.18-.07.24-.16.12-.18.27-.21.47-.09Z" fill="#FBC912"/><path d="M29.78 35.57c.06.3.06.55 0 .79-.03.1-.1.16-.22.17l-2.23.06c-.22-.08-.38-.07-.49.05-.05.06-.07.06-.04-.02.01-.03 0-.07-.02-.1a.13.13 0 0 0-.12-.06h-.12l.31-.1c.07-.03.1-.08.1-.15l-.01-.08a.2.2 0 0 0-.19-.15c-.44-.03-.75.18-.93.62l-2.18-.14a.58.58 0 0 1-.48-.23c-.05-.14-.06-.25-.01-.33.02-.03.08-.1.2-.2.16-.13.4-.16.71-.08.15.03.26.05.33.05.37 0 .9 0 1.61.02 1.58.03 2.84 0 3.78-.12Z" fill="#54A4F3"/><path d="M42.52 35.51c.36.19.48.46.35.83a.5.5 0 0 1-.18.24c-.2.14-.3.3-.3.47.04 1.1.03 2.28-.02 3.55a1.6 1.6 0 0 0-.68-.06v-2.95c0-.21-.1-.32-.3-.32l-4.31-.02c.1-.44.22-.75.36-.96a.71.71 0 0 1 .63-.35l4.15.03c.14 0 .18-.06.12-.18-.04-.07-.1-.1-.21-.1.11-.1.24-.16.39-.18Z" fill="#FBC912"/><path d="m13.41 35.66 4.74.13 4.44-.07c.04 0 .06.02.06.07v.1c0 .02-.01.03-.04.03l-4.08.04a.4.4 0 0 0-.28.12 2 2 0 0 0-.6 1.19h-.79l.61-1c.12-.2.06-.3-.15-.3l-.39-.02a.4.4 0 0 0-.41.26l-.46 1.02-1.78.12.38-1.2c.04-.1 0-.15-.11-.15l-1.42-.1c.05-.26.15-.34.28-.24Z" fill="#FDE9A0"/><path d="M33.04 35.73c.32.17.38.53.18 1.09-.26-.02-.53.06-.79.24l-.82.1c.13-.2.23-.38.29-.54.04-.11.02-.2-.04-.24a.66.66 0 0 0-.28-.11 2.6 2.6 0 0 0 1.46-.54Z" fill="#D3A616"/><path d="M42.13 35.7c.1-.01.17.02.2.09.07.12.03.18-.1.18l-4.16-.03a.71.71 0 0 0-.63.35c-.14.2-.25.52-.36.96l-.79.02.55-1.04c.06-.13.03-.21-.11-.25-.6-.17-1 .24-1.24 1.23-.6.14-1.25.15-1.94.04a4 4 0 0 1 .45-.82c.1-.14.13-.3.1-.46-.03-.1.02-.16.13-.17.04 0 .1 0 .16.03l7.74-.14Z" fill="#FDE9A0"/><path d="m13.13 35.9 1.42.1c.1 0 .15.06.11.16l-.38 1.19-.12 3.16c-.19 0-.37.02-.53.09a78.62 78.62 0 0 1-.01-3.39c0-.2-.08-.4-.26-.56a.76.76 0 0 1-.23-.75ZM16.86 37.27l-.8-.04.46-1.02a.4.4 0 0 1 .41-.26l.39.02c.21 0 .27.1.15.3l-.6 1Z" fill="#FBC912"/><path d="M26.54 36.46c-.26.06-.47.17-.63.33.01-.1-.02-.17-.09-.19.18-.44.49-.65.93-.62.1 0 .16.06.19.15l.01.08c0 .07-.03.12-.1.15l-.31.1Z" fill="#B7C2CB"/><path d="M36.3 37.27a1.8 1.8 0 0 1-.8-.06c.23-1 .64-1.4 1.23-1.23.14.04.17.12.1.25l-.54 1.04Z" fill="#FBC912"/><path d="M23.03 36.14c.07.1.12.14.13.1.12.15.28.22.48.22-.23.03-.33.1-.3.2.09.33.4.6.94.8l-1.5-.2a.66.66 0 0 0-.03-.42.46.46 0 0 1-.02-.3c.06-.2.16-.34.3-.4Z" fill="#D3A616"/><path d="m23.64 36.46 2.18.14c.07.02.1.09.09.2-.1.17-.16.32-.18.47-.15 0-.26.03-.33.1-.07.06-.08.13-.02.2l.06.1c.06.1.08.22.06.34-.1.43-.24.86-.43 1.29a.28.28 0 0 1-.25.16c-.12 0-.17-.07-.17-.19v-.3c0-.18-.04-.2-.13-.03-.22.43-.83.57-1.8.43h-.02a.25.25 0 0 0-.26.1c-.08.12-.08.24 0 .36-.13.07-.18.16-.15.29-.53.43-1.23.53-2.12.28l1.05-2.23c.25.03.55.03.9-.01.33-.04.45.13.38.48.29.22.67.31 1.14.27.1 0 .19-.06.24-.15.3-.51.44-.95.4-1.3-.54-.2-.85-.47-.94-.8-.03-.1.07-.17.3-.2Z" fill="#FBC912"/><path d="M26.54 36.46h.12c.05 0 .09.02.12.06.02.03.03.07.02.1-.03.08-.01.08.04.02.1-.12.27-.13.49-.05.18.47.1.85-.27 1.14l-.85.07a2.1 2.1 0 0 1-.48-.53c.02-.15.08-.3.18-.48.16-.16.37-.27.63-.33ZM33.22 36.81c.02.16.06.3.13.42-.1.39-.1.75 0 1.1-.35.2-.7.34-1.07.4.07-.39.17-.76.31-1.12.09-.22.04-.4-.16-.55.26-.18.53-.26.8-.25Z" fill="#5B81AE"/><path d="M32.43 37.06c.2.15.25.33.16.55-.14.36-.24.73-.31 1.12-.39.24-.8.33-1.22.28a.37.37 0 0 1-.33-.26l-.4-1.17c-.04-.12 0-.2.12-.22l1.16-.2.82-.1Z" fill="#54A4F3"/><path d="m16.06 37.23.8.04h.79l5.14-.02a.49.49 0 0 1-.07.3c-.06.11-.09.2-.08.27.02.13.1.21.24.25h.25a.54.54 0 0 1 .28 0c.16.07.15.1-.02.1-.4 0-.7.15-.89.47.07-.35-.05-.52-.37-.48-.36.04-.66.04-.9 0-.4-.06-.67-.03-.85.1l-5.57-.08c-.11 0-.17.06-.17.18l.1 1.99c.01.22-.11.31-.37.27a.3.3 0 0 1-.2-.1l.11-3.17 1.78-.12Z" fill="#D3A616"/><path d="m22.79 37.25 1.5.21c.03.35-.1.79-.4 1.3a.3.3 0 0 1-.25.15 1.6 1.6 0 0 1-1.14-.27c.2-.32.5-.48.9-.47.16 0 .17-.03 0-.1a.54.54 0 0 0-.27 0 .65.65 0 0 1-.25 0c-.14-.04-.22-.12-.24-.26-.01-.06.02-.15.08-.27a.49.49 0 0 0 .07-.29Z" fill="#54A4F3"/><path d="M33.35 37.23c.06.07.13.07.2.02.7.1 1.34.1 1.94-.04.28.08.54.1.8.06l.79-.02 4.3.02c.21 0 .32.1.32.32v2.95c-.04.15-.19.22-.46.22-1.66.02-3.32.02-4.96-.01l-1.6.06c-.04-.05-.05-.12-.04-.23.05-.1.09-.13.13-.08.25-.05.41-.04.49.02l5.88-.03c.15 0 .22-.07.22-.22l.05-1.92c0-.13-.07-.2-.2-.2l-4.67.06c-.13 0-.17-.06-.1-.17l.06-.13c.06-.1.03-.17-.09-.19-.37-.06-.68.04-.9.3a.37.37 0 0 1-.26.13l-1.9.17c-.1-.34-.1-.7 0-1.09Z" fill="#D3A616"/><path d="M25.73 37.27c.13.2.29.37.48.53-.21.26-.25.47-.1.61-.17-.01-.32.07-.43.23-.1.14-.08.25.07.34.6.35 1.22.45 1.85.3.1-.03.15-.1.15-.2 0-.2-.11-.31-.32-.36.16-.17.13-.38-.1-.63.15-.07.26-.04.33.1l.54.95c.07.15.19.2.35.17l.15-.03c.13-.03.15-.1.06-.2-.17-.2-.17-.4 0-.63.06-.07.04-.12-.05-.14a.19.19 0 0 0-.13 0c.25-.19.45-.4.61-.6.08-.1.2-.1.34-.03l.05.16c.37 1.14.79 1.78 1.24 1.91.23.06.47.05.73-.04.66-.22 1.3-.46 1.96-.72.1-.05.15-.01.16.1l.07.7c-.85.05-1.63.27-2.36.65-.25.21-.67.24-1.27.1l-.78-1.2c-.12-.18-.25-.2-.4-.03-.08.1-.13.2-.16.32-.06.26-.2.33-.43.2-.23-.14-.53-.21-.9-.22-.25 0-.45-.03-.6-.07a.4.4 0 0 1-.12-.06c-.1-.06-.2-.04-.26.06l-.72 1.05-1-.16a4.12 4.12 0 0 0-2.3-.6c-.08-.12-.08-.24 0-.35a.25.25 0 0 1 .27-.11c.98.14 1.59 0 1.81-.43.1-.16.13-.15.13.04v.3c0 .11.05.17.17.17a.28.28 0 0 0 .25-.15c.2-.43.33-.86.43-1.29a.43.43 0 0 0-.06-.34l-.06-.1c-.06-.07-.05-.14.02-.2.07-.07.18-.1.33-.1Z" fill="#F99A26"/><path d="M29.53 37.68c-.15-.07-.26-.07-.34.03-.16.2-.36.41-.6.6-.2-.14-.36-.34-.49-.6-.05-.1-.02-.17.1-.17l1.15-.07c.08 0 .14.03.17.11.01.03.02.07.01.1ZM27.06 37.73l.27.36c.23.25.26.46.1.63-.49.01-.93-.1-1.32-.31-.15-.14-.11-.35.1-.61l.85-.07Z" fill="#54A4F3"/><path d="m20.38 38.26-.91 2c-.05.12-.02.18.1.2.22.05.43.03.6-.06.89.25 1.6.15 2.12-.28.4.1.67.14.8.13.22-.01.36.06.42.21.04.1.03.11-.04.03a.16.16 0 0 0-.06-.05.3.3 0 0 0-.17-.03l-1.14.09a.38.38 0 0 0-.3.15.66.66 0 0 0-.11.4c0 .15.07.22.22.22a.5.5 0 0 0 .16-.03c.08-.03.15 0 .2.07.1.18.24.32.43.4.11.06.2.04.29-.05.1-.11.16-.23.18-.37.03-.2.08-.2.15 0 .03.1.08.2.14.27-.04.14 0 .28.11.4l-7.2.03c.07-.07.16-.2.27-.39.2-.32.38-.51.53-.56a.85.85 0 0 1 .55 0c.12.05.15.12.08.23-.1.16-.14.34-.15.52 0 .12.05.17.16.17l.23-.01a.4.4 0 0 0 .35-.2l.3-.5c.07-.1.17-.16.3-.17l2.29-.04c.04 0 .07-.03.07-.07v-.09c0-.03-.01-.04-.04-.04-2.23-.06-4.45-.08-6.67-.06-.08 0-.18-.05-.27-.16.26.04.38-.05.37-.27l-.1-1.99c0-.12.06-.18.17-.18l5.57.08Z" fill="#FBC912"/><path d="m21.22 38.17-1.05 2.23a.89.89 0 0 1-.6.06c-.12-.02-.15-.08-.1-.2l.9-2c.19-.13.47-.16.85-.1ZM35.26 40.52c-.08-.06-.24-.07-.5-.02-.09-.12-.12-.23-.09-.32.15-.4.44-1.03.87-1.88a.29.29 0 0 1 .28-.16h.46c.12 0 .15.05.1.16l-1.12 2.22Z" fill="#FDE9A0"/><path d="M26.11 38.41c.4.22.83.32 1.32.31.2.05.32.17.32.36 0 .1-.05.17-.15.2-.63.15-1.25.05-1.85-.3-.15-.1-.17-.2-.07-.34.11-.16.26-.24.43-.23Z" fill="#FBC912"/><path d="M33.74 39.78c.09.1.12.2.1.27-.02.09-.08.13-.17.13a.89.89 0 0 0-.46.14c-.22.13-.2.18.05.15.69-.08 1.15-.04 1.38.11 0 .1 0 .18.04.23-.2.2-.37.43-.49.7-.07.17-.13.16-.17-.02l-.08-.42a.08.08 0 0 0-.06-.07.11.11 0 0 0-.1.02c-.05.03-.07.08-.07.15a.32.32 0 0 1-.1.3c-.06.06-.15.08-.26.07-1.17-.13-1.82-.5-1.97-1.1.73-.38 1.51-.6 2.36-.66Z" fill="#fff"/><path d="m24.75 40.43.99.16c-.15.46-.36.85-.63 1.19a.33.33 0 0 1-.26.13l-1.28.06c-.12-.13-.15-.27-.11-.41.67-.27 1.1-.64 1.29-1.13ZM31.38 40.44c.15.6.8.97 1.97 1.1.11.01.2-.01.26-.07a.32.32 0 0 0 .1-.3c0-.07.02-.12.07-.15a.11.11 0 0 1 .1-.02c.04.02.05.04.06.07l.08.42c.04.18.1.2.17.02.12-.27.28-.5.49-.7l1.6-.06-.5.07a.15.15 0 0 0-.07.03c-.05.04-.05.07-.01.1.07.06.09.13.04.21l-.38.78-4.19-.05a.4.4 0 0 1-.28-.12c-.3-.3-.57-.7-.78-1.24.6.15 1.02.12 1.27-.1Z" fill="#D1BFB5"/><path d="M13.63 40.6c.16-.07.34-.1.53-.09.06.07.13.1.2.11.1.11.2.16.28.16 2.22-.02 4.44 0 6.67.06.03 0 .04.01.04.04v.09c0 .04-.03.07-.07.07l-2.29.04a.34.34 0 0 0-.3.17l-.3.5a.4.4 0 0 1-.35.2l-.23.01c-.11 0-.17-.05-.16-.17 0-.18.06-.36.15-.52.07-.1.04-.18-.08-.22a.85.85 0 0 0-.55-.01c-.15.05-.32.24-.53.56-.11.19-.2.32-.27.39h-1.13c-.08-.19-.07-.43.02-.73.03-.1 0-.15-.1-.16L12 40.8c.42-.24.96-.3 1.63-.2ZM41.7 40.54c.25-.03.47-.01.67.06 1.06-.12 1.6-.01 1.63.32l-4.62.22c-.12 0-.2.05-.27.14l-.5.7-.51-.02c.29-1.5-.1-1.51-1.18-.04l-1.56.02.38-.78c.05-.08.03-.15-.04-.21-.04-.03-.04-.06.01-.1a.15.15 0 0 1 .07-.03l.5-.07c1.64.03 3.3.03 4.96.01.27 0 .42-.07.45-.22Z" fill="#FDE9A0"/><path d="m12 40.8 3.16.3c.1.01.13.06.1.16-.1.3-.1.54-.02.74l-3.06-.08c-.1 0-.16-.05-.16-.16l-.02-.95ZM38.1 41.96c-.38.06-.77.05-1.18-.04 1.07-1.47 1.47-1.46 1.18.04ZM44 40.92l-.04.87c0 .1-.06.16-.17.16l-5.17.04.5-.7c.06-.1.14-.15.26-.15l4.62-.22Z" fill="#FBC912"/></svg>