<!-- by TradingView --><svg width="56" height="56" viewBox="0 0 56 56" xmlns="http://www.w3.org/2000/svg"><path fill="#F0F3FA" d="M0 0h56v56H0z"/><path d="M41.87 28.02c.07-.04.1-.02.1.07l.03 8.53a.1.1 0 0 1-.04.08A13459.02 13459.02 0 0 1 28 45h-.05l-13.91-8.25a.1.1 0 0 1-.05-.09v-8.53c0-.08.04-.1.1-.06L18.93 31c.06.03.08.08.08.15v2.25c0 .07.04.12.1.15 4.61 2.73 7.75 4.54 8.85 5.2H28a.1.1 0 0 0 .05 0c1.1-.67 4.29-2.54 8.9-5.28.05-.04.05-.09.05-.16v-2.24c0-.07.05-.13.1-.16l4.77-2.89Zm-20.79-2.2 6.84 4.3c.05.04.05.08 0 .11l-2.53 1.6a.05.05 0 0 1-.05 0l-4.31-2.72a.06.06 0 0 1-.03-.05v-3.19c0-.07.03-.08.08-.05Zm13.84 0c.05-.04.08-.02.08.04v3.2c0 .01 0 .03-.03.04l-4.32 2.72a.04.04 0 0 1-.05 0l-2.53-1.59c-.05-.03-.05-.07 0-.1l6.85-4.32Zm-2-11.17L41.89 20c.07.04.1.1.1.18v5.15c0 .06-.03.12-.09.15l-4.8 3.05c-.05.03-.1.01-.1-.05v-5.12c0-.07 0-.12-.07-.16l-6.4-3.62c-.05-.03-.05-.06 0-.1a5.07 5.07 0 0 0 2.27-4.76c0-.03.02-.05.04-.07a.07.07 0 0 1 .08 0Zm-9.77 0c.02.02.04.04.03.07a5.06 5.06 0 0 0 2.28 4.76c.05.03.05.06 0 .1l-6.36 3.6c-.06.04-.1.1-.1.16v5.11c0 .07-.01.09-.07.05l-4.84-3.04a.17.17 0 0 1-.09-.16v-5.14a.2.2 0 0 1 .1-.18l8.97-5.33a.07.07 0 0 1 .08 0ZM27.99 11c2.28 0 4.12 1.9 4.12 4.24a4.18 4.18 0 0 1-4.12 4.24 4.18 4.18 0 0 1-4.11-4.24A4.18 4.18 0 0 1 27.99 11Z" fill="url(#a)"/><defs><linearGradient id="a" x1="28" y1="11" x2="28" y2="45" gradientUnits="userSpaceOnUse"><stop stop-color="#00A6FF"/><stop offset="1" stop-color="#0069FF"/></linearGradient></defs></svg>