<!-- by TradingView --><svg width="56" height="56" viewBox="0 0 56 56" xmlns="http://www.w3.org/2000/svg"><path fill="#F0F3FA" d="M0 0h56v56H0z"/><path fill-rule="evenodd" d="M28 44.94a16.94 16.94 0 1 0 0-33.88 16.94 16.94 0 0 0 0 33.88ZM28 46a18 18 0 1 0 0-36 18 18 0 0 0 0 36Z" fill="#D8C8CC"/><path d="M26.57 10.4c.07.02.1.04.11.09.01.05-.01.08-.06.08-1.65.1-3.37.47-5.17 1.11a14 14 0 0 0-2.57 1.21c-.87.53-1.69 1.1-2.46 1.7-.32.27-.8.73-1.44 1.39-.46.47-.95.93-1.46 1.37.56-.81 1.3-1.63 2.21-2.46a18.5 18.5 0 0 1 7.35-4.07 9.55 9.55 0 0 1 3.5-.42ZM45.95 26.83a5.3 5.3 0 0 1-.42-1.42c-.05-.33-.1-.66-.18-1a16.76 16.76 0 0 0-5.3-9.24 18.2 18.2 0 0 0-2.92-2.2c-.3-.18-.65-.35-1.04-.52-.35-.14-.7-.3-1.08-.44a21.64 21.64 0 0 0-6.2-1.54c.76-.1 1.4-.13 1.94-.1.59.03 1.16.11 1.73.26a18.22 18.22 0 0 1 13.3 13.35c.21.87.27 1.82.17 2.85Z" fill="#EAE7E6"/><path d="M29.3 11.54c-.42.14-.9.18-1.44.13-.18-.01-.35 0-.52.05-.18.06-.18.09.02.09 1.46.01 2.92.16 4.38.42.08.02.2.05.34.11l.25.09a16.24 16.24 0 0 1 5.38 2.52l.34.26a15.9 15.9 0 0 1 2.42 2.17c.38.42.74.9 1.1 1.46a90.36 90.36 0 0 0 1.12 1.67c.02-.02.04-.03.06 0 .04.03.05.07.05.12-.04.23.04.41.26.53.04.03.08.06.1.11a.3.3 0 0 1 .02.19c0 .05 0 .1.04.14.1.14.16.3.18.49.02.2.1.37.24.54.04.05.06.1.06.17s.02.13.05.2c.07.1.1.24.12.42.03.27.17.4.4.37 1.2 4.35.69 8.49-1.51 12.42a16.43 16.43 0 0 1-6.14 6.26.24.24 0 0 0-.07-.1c-.05-.05-.1-.05-.15-.02a15.95 15.95 0 0 1-4.42 1.78c-.13 0-.22.02-.28.04-.65.23-1.33.33-2.03.29a.5.5 0 0 0-.4.15.17.17 0 0 1-.13.05c-.62-.03-1.23-.02-1.85.02a.11.11 0 0 1-.12-.08.23.23 0 0 0-.22-.13c-.84 0-1.66-.08-2.46-.25a17.41 17.41 0 0 1-5.42-2.2 4.4 4.4 0 0 1-.77-.57c-.53-.5-1-.8-1.4-.88a16.22 16.22 0 0 1-5.23-8.83 16.42 16.42 0 0 1 2.4-12.81 16.49 16.49 0 0 1 6.25-5.56 16.6 16.6 0 0 1 8.98-1.83Z" fill="#B02615"/><path d="M29.3 11.54c2.69.2 5.18.98 7.48 2.36 3.83 2.3 6.33 5.6 7.5 9.9-.24.01-.38-.11-.4-.38a1 1 0 0 0-.13-.43.39.39 0 0 1-.05-.2.25.25 0 0 0-.06-.16 1 1 0 0 1-.24-.54.92.92 0 0 0-.18-.49.18.18 0 0 1-.04-.14.3.3 0 0 0-.02-.19.25.25 0 0 0-.1-.11c-.22-.12-.3-.3-.26-.53 0-.05 0-.1-.05-.13-.02-.02-.04-.01-.06 0 0 .02 0 .01-.01 0-.4-.57-.76-1.13-1.11-1.66-.36-.55-.72-1.04-1.1-1.46a15.9 15.9 0 0 0-2.76-2.43 4.62 4.62 0 0 0-.76-.53c-.08-.04-.2-.11-.34-.22-.15-.1-.27-.18-.36-.22a16.24 16.24 0 0 0-4.17-1.64c-.14-.06-.26-.1-.34-.1a25.42 25.42 0 0 0-4.38-.43c-.2 0-.2-.03-.02-.09.17-.05.34-.06.52-.05.54.05 1.02 0 1.45-.13Z" fill="#BB4434"/><path d="M43.15 32.4a15.38 15.38 0 0 0-3.99-15.17 15.5 15.5 0 0 0-5.06-3.37 15.64 15.64 0 0 0-8.58-1.02c-2.94.48-5.55 1.7-7.84 3.67-.08-.11 0-.25.2-.42.47-.36.99-.73 1.56-1.11 1.52-1 3.27-1.74 5.23-2.2.36-.08.8-.14 1.3-.2.23-.02.45-.06.66-.1.8-.2 1.69-.21 2.66-.03a7.61 7.61 0 0 0 1.07.13c.04 0 .07.02.1.05.03.05.09.07.15.04a.4.4 0 0 1 .2 0c.42.07.85.16 1.28.25.17.03.33.09.5.16.13.07.29.11.45.13.2.03.4.1.59.2.1.05.24.1.44.17l.35.12c.62.28 1.2.59 1.76.93l1.27.82c.17.1.39.27.67.51l.32.28c.13.1.24.2.33.33.16.2.36.4.6.55.2.13.38.3.54.5l1.01 1.27.24.42a1 1 0 0 0 .21.27c.1.08.16.17.22.26a17.64 17.64 0 0 1 1.63 3.67c.11.28.19.55.23.8l.27 1.52c.28 1.52.28 3.06-.01 4.62 0 .04-.02.07-.05.09a.44.44 0 0 0-.03.04l-.01.03c0 .28-.06.69-.19 1.22-.06.28-.16.47-.28.57Z" fill="#A41F14"/><path d="M43.15 32.4a15.66 15.66 0 0 1-4.7 7.37c-.88.71-1.65 1.26-2.3 1.64a15.66 15.66 0 0 1-10.7 2 15.63 15.63 0 0 1-12.18-10.2 15.67 15.67 0 0 1-.66-7.48 14.94 14.94 0 0 1 5.07-9.22c2.3-1.97 4.9-3.2 7.84-3.67 2.93-.47 5.79-.13 8.58 1.02a15.5 15.5 0 0 1 8.48 8.47c1.32 3.22 1.5 6.58.57 10.06Z" fill="#D8C8CC"/><path d="M36.13 16.32c-.16.1-.15.23.01.4.32.3.74.63 1.25.98.07.05.12.11.15.2.08.16.03.23-.16.19-.46-.1-.9-.18-1.32-.25-.3-.05-.6.12-.9.51a14.66 14.66 0 0 0-.77 1.84.83.83 0 0 1-.27.13 4.75 4.75 0 0 0-2.16 1.46 3.24 3.24 0 0 0-1.19-.3c-.02-.05-.17-.1-.44-.13.04-.2.17-.37.36-.54.22-.17.36-.32.44-.44.24-.4.43-.8.56-1.2.14-.45.05-1.08-.27-1.88a1.92 1.92 0 0 0-.4-.6c-.37-.4-.7-.83-1.01-1.32-.05-.09-.03-.15.06-.18.5-.17.98-.18 1.45-.04l2.38.69c.25.07.27.03.05-.11-.4-.26-.84-.5-1.3-.73a4.3 4.3 0 0 0-.82-.25 6 6 0 0 1-.55-.15 6.9 6.9 0 0 0-1.24-.3 13.5 13.5 0 0 0-2.05-.27c-.4 0-.69 0-.87.04-1.17.2-2.33.48-3.47.82-.15.05-.3.1-.44.18l-.43.2c-.27.11-.47.2-.6.29-.16.1-.41.23-.75.4-.5.25-.87.47-1.1.64-.55.42-1.12.87-1.71 1.35-.1.08-.2.22-.31.4-.1.19-.2.32-.3.4-.06.05-.05.08.04.09.1 0 .18-.03.26-.09.53-.43 1.1-.8 1.71-1.1.15-.08.34-.06.57.06.05.03.08.08.07.14-.09.58-.1 1.17-.07 1.78 0 .1.05.15.15.16.56.05.99.2 1.3.47-1.58-.43-2.73-.4-3.44.11-.41.3-.56.68-.44 1.14-.06.4.1.84.46 1.3.07.1.05.17-.07.2l-.07.02-.69-1.72c-.04-.09-.1-.1-.17-.04a1.3 1.3 0 0 1-.57.3c-.38.1-.76.44-1.14 1.03-.07.12-.14.3-.22.55-.05.2-.1.34-.14.43-.1.2-.2.52-.29.95a3.54 3.54 0 0 1-.8 1.72c-.05.07-.08.06-.1-.03-.1-.41-.02-1.03.22-1.87l.17-.6c.02-.1.09-.23.2-.41.09-.15.14-.26.15-.32.06-.37.14-.73.22-1.1.02-.1-.04-.16-.18-.2a14.33 14.33 0 0 1 9.26-7.4 14.5 14.5 0 0 1 11.73 2Z" fill="#8D150D"/><path d="M30.33 21.35a12.7 12.7 0 0 0-6.04.4c-.14.03-.16.01-.09-.05a6.27 6.27 0 0 0-2.16-1.44c-.31-.27-.74-.42-1.3-.47-.1-.01-.15-.06-.15-.16a8.9 8.9 0 0 1 .07-1.78c0-.06-.02-.1-.07-.14-.23-.12-.42-.14-.57-.07-.6.31-1.18.68-1.71 1.11a.38.38 0 0 1-.26.09c-.09 0-.1-.04-.03-.1.08-.07.18-.2.29-.38.1-.2.21-.33.3-.4.6-.49 1.17-.94 1.72-1.36.23-.17.6-.39 1.1-.64.34-.17.59-.3.75-.4.13-.08.33-.18.6-.3l.43-.19c.14-.07.29-.13.44-.18 1.14-.34 2.3-.61 3.47-.82.18-.03.47-.05.87-.04a13.5 13.5 0 0 1 3.3.57 6 6 0 0 0 .54.15c.36.08.63.17.81.25.47.22.9.47 1.3.73.23.14.21.18-.04.1-.82-.22-1.62-.45-2.38-.68a2.32 2.32 0 0 0-1.45.04c-.1.03-.11.1-.06.18.3.49.64.93 1 1.31.19.2.32.4.4.61.33.8.42 1.43.28 1.89-.13.4-.32.79-.56 1.19a2.1 2.1 0 0 1-.44.44c-.2.17-.32.35-.36.54Z" fill="#A41F14"/><path d="M36.13 16.32a13.87 13.87 0 0 1 5.04 5.86 14.43 14.43 0 0 1 1.26 7.6c0 .03-.02.05-.05.07-.12-.02-.18-.1-.18-.27a3.28 3.28 0 0 0-1.5-2.75.25.25 0 0 0-.2-.03c-.24-.44-.92-.75-2.06-.92-.06 0-.09.01-.1.07l-.2 2.92-.32 1.09c-.02.05-.06.07-.11.07-.05-.01-.07-.03-.06-.08a7.48 7.48 0 0 0-.76-4.02c.32-.29.5-.64.54-1.06.1-1.08.32-1.98.65-2.71.1-.2.13-.4.1-.64a1.12 1.12 0 0 0-.17-.6c-.66-.82-1.56-1.09-2.72-.82-.16-.04-.47 0-.9.1.14-.49.3-.95.49-1.4a1.6 1.6 0 0 1 .28-.45c.3-.39.6-.56.9-.51.42.07.86.15 1.32.25.19.04.24-.03.16-.2a.43.43 0 0 0-.15-.2 9.34 9.34 0 0 1-1.25-.98c-.16-.16-.17-.3 0-.4Z" fill="#690B06"/><path d="M22.04 20.26c.82.32 1.54.8 2.16 1.44l-1.23.52c-.06.03-.1.02-.13-.03a.7.7 0 0 0-.33-.27 2.93 2.93 0 0 0-1.9-.77c-.3-.02-.6.03-.88.15-.22.1-.3.25-.25.48l.48 2.13c.03.14.14.28.34.43l-.42.52c-.4-.13-.66-.46-.77-.99l-.2-.94c-.17-.5-.42-.98-.75-1.42-.12-.46.03-.84.44-1.14.71-.5 1.86-.54 3.44-.11Z" fill="#C49B96"/><path d="M36.89 25.93a1.2 1.2 0 0 1-.25-.53c.16 0 .27-.06.3-.19.1-.3.17-.77.21-1.42l.06-.63.22-1.5c.07-.43-.1-.73-.5-.9l-1.64-.66c1.16-.27 2.06 0 2.72.82.1.12.15.32.18.6.02.23-.02.45-.1.64a8.28 8.28 0 0 0-.66 2.71c-.04.42-.22.77-.54 1.06Z" fill="#BB4434"/><path d="m35.3 20.1 1.63.67c.4.16.57.46.5.89l-.23 1.5-.05.63a6.1 6.1 0 0 1-.2 1.42c-.05.13-.15.2-.31.19l-.25-.4c.25-.4.34-.84.3-1.31-.03-.22-.03-.43 0-.66a1.4 1.4 0 0 0-.06-.73c0-.1.02-.24.07-.42.06-.27-.02-.46-.26-.57a1.93 1.93 0 0 0-1.03-.18c-.86.09-1.5.47-1.9 1.14a.32.32 0 0 1-.26-.02c.22-.31.46-.6.73-.85.23-.21.29-.44.2-.67a.66.66 0 0 1-.06-.4c.15-.07.24-.1.27-.14.43-.1.74-.13.9-.1Z" fill="#CA7B6A"/><path d="M34.12 20.32a.66.66 0 0 0 .05.41c.1.23.04.46-.19.67-.27.25-.51.54-.73.85a19.25 19.25 0 0 1-1.21-.52v-.02a4.75 4.75 0 0 1 2.08-1.39Z" fill="#C49B96"/><path d="m22.51 21.92.12.4c.02.05 0 .1-.04.14l-1.29.93c-.38.25-.71.57-1 .95-.2-.15-.31-.3-.34-.43l-.48-2.13c-.05-.23.03-.39.25-.48.29-.12.58-.17.89-.15.79.06 1.42.32 1.9.77Z" fill="#1A0908"/><path d="M30.33 21.35c.27.04.42.08.44.13.33.31.72.52 1.2.63.05.01.1.04.15.07.17.14.36.21.58.23.07 0 .1.04.1.1v.08c0 .06.03.12.08.16.2.14.4.28.62.41.23.14.41.28.57.42.33.31.6.6.84.85.18.2.37.5.57.89.17.32.26.65.3.99.11 1.3.11 2.42 0 3.33-.05.31-.21.65-.5 1.02l-.33-1.8c.1-.53.15-1.06.15-1.58v-.97a2.2 2.2 0 0 0-.55-1.64 7.12 7.12 0 0 0-4.33-2.25c-.58-.08-1.43-.08-2.56 0-.55.05-1.18.2-1.87.45-.99.36-1.67 1-2.04 1.92-.08.2-.06.4.08.58.38.5.79.99 1.21 1.47-.14.18-.14.33 0 .45.57.46 1 .98 1.29 1.58.02.05.07.08.12.1.1.02.18.01.28-.04l.1.34c-.63.24-1.15.62-1.56 1.14a.14.14 0 0 1-.15.05l-1.65-.26c-.1-.01-.15-.07-.12-.17l.03-.07c.43-1.46.43-2.31 0-2.56-.5-.3-1-.25-1.5.13a5.5 5.5 0 0 1-.35-2.05c0-.16.03-.3.08-.44l.11-.32c.1-.32.21-.54.35-.68l.32-.33c.28-.3.5-.5.67-.61.21-.13.4-.32.54-.57a.23.23 0 0 1 .13-.1l.15-.06c.05-.02.1-.06.13-.11l.28-.51c1.99-.62 4-.75 6.04-.4Z" fill="#EB9331"/><path d="M36.63 22.3c-.14.44-.26.95-.36 1.5a.69.69 0 0 1-.4.54 8.57 8.57 0 0 0-2.3-1.92c-.04-.02-.06-.07-.07-.15a2.37 2.37 0 0 1 1.9-1.14c.37-.04.71.02 1.04.18.24.1.32.3.26.57-.05.18-.07.31-.07.42Z" fill="#1A0908"/><path d="M18.48 23.03a85.76 85.76 0 0 0 .3 1.65c.06.5.18.87.35 1.1.06.05.1.1.13.16a.2.2 0 0 1 0 .18 8 8 0 0 0-.67 4.63c.1.79.4 1.56.9 2.31a7.15 7.15 0 0 0 3.6 2.77c.07.14.05.23-.05.26a.6.6 0 0 0-.21.12c-.18 0-.38.06-.59.15a7.5 7.5 0 0 1-1.56-1.04 6.99 6.99 0 0 1-2.2-3.24 29.78 29.78 0 0 1-.95-5.25l-.08-1.46c0-.06-.03-.09-.1-.08-1 .18-1.88.63-2.63 1.33-.41.39-.71.84-.9 1.35-.07.2-.14.25-.2.16.01-2.26.52-4.39 1.52-6.4.14.03.2.1.18.2-.08.36-.16.72-.22 1.09-.01.06-.06.17-.16.32-.1.18-.17.31-.19.4l-.17.61a4.02 4.02 0 0 0-.22 1.87c.02.09.05.1.1.03l.39-.55c.16-.23.3-.63.41-1.17.1-.43.19-.75.29-.95.04-.1.09-.23.14-.43.08-.25.15-.43.22-.55.38-.6.76-.93 1.14-1.02.21-.06.4-.16.57-.3.08-.07.13-.06.17.03l.7 1.72Z" fill="#690B06"/><path d="M30.77 21.48c.43.03.83.13 1.2.3.05.17.16.29.32.35l.3.12c.67.37 1.32.78 1.94 1.23.46.32.8.64 1.03.96.31.43.56.89.75 1.37.4 1.01.68 2.13.83 3.34.17 1.48-.19 2.54-1.1 3.18l-.47.4a.9.9 0 0 1-.61.24c.31-.52.42-1.29.32-2.31.29-.37.45-.7.5-1.02.11-.91.11-2.02 0-3.33a2.7 2.7 0 0 0-.3-1c-.2-.38-.4-.68-.57-.88-.23-.25-.51-.54-.84-.85a3.48 3.48 0 0 0-.57-.42 9.35 9.35 0 0 1-.62-.41.19.19 0 0 1-.08-.16v-.07c0-.07-.03-.1-.1-.1-.22-.03-.41-.1-.58-.24a.36.36 0 0 0-.15-.07c-.48-.1-.87-.32-1.2-.63Z" fill="#E8821E"/><path d="M18.16 21.5c.33.45.58.93.76 1.43l.2.94c.1.53.36.86.76.99l-.52.84c-.04.07-.12.1-.23.09-.17-.24-.29-.61-.35-1.11a84.02 84.02 0 0 1-.3-1.65l.07-.02c.12-.03.14-.1.07-.2-.37-.46-.52-.9-.46-1.3Z" fill="#BB4434"/><path d="M24.2 21.7c-.07.06-.05.08.1.05l-.3.5a.25.25 0 0 1-.12.12l-.15.05a.24.24 0 0 0-.13.1c-.15.26-.33.45-.54.58-.17.1-.4.3-.67.6-.14.16-.24.27-.32.34-.14.14-.26.36-.35.68l-.1.32c-.06.13-.09.28-.09.44-.02.7.1 1.38.35 2.05-.58.98-.9 2.04-.97 3.2l.02 1.52a1 1 0 0 1-.6-.4.33.33 0 0 1-.08-.16.56.56 0 0 0-.24-.39.31.31 0 0 1-.11-.13 4.83 4.83 0 0 1-.44-1.6 13 13 0 0 1 .36-3.5c.1-.46.26-.9.47-1.32.08-.16.24-.36.47-.58.24-.22.42-.49.54-.78l1.29-.93c.05-.04.06-.09.04-.14l-.12-.4a.7.7 0 0 1 .33.27c.03.04.07.06.13.03l1.23-.52ZM32.04 21.71v.02a19.29 19.29 0 0 0 1.22.52c.08.04.16.05.24.02.01.08.03.13.06.15.88.5 1.66 1.14 2.32 1.92l.51.65.25.4c.03.2.12.38.25.54.63 1.3.88 2.63.76 4.02-.06.22-.07.43-.03.63a4.6 4.6 0 0 1-2.6 3.41c-.39.2-.8.36-1.23.49-.06.02-.1 0-.14-.05l-.09-.14c-.03.08-.01.06.06-.05.56-.34 1-.76 1.34-1.27a.9.9 0 0 0 .61-.23c.3-.26.45-.4.48-.41.9-.64 1.26-1.7 1.09-3.18a13.2 13.2 0 0 0-.83-3.34c-.19-.48-.44-.94-.75-1.37a4.33 4.33 0 0 0-1.03-.96c-.62-.45-1.27-.86-1.94-1.23l-.3-.12a.54.54 0 0 1-.33-.35.15.15 0 0 1 .08-.07Z" fill="#D65510"/><path d="m34.95 28.85-.19-.42c-.3-.72-.66-1.12-1.07-1.2-.36-.06-.65 0-.88.2-.23.2-.33.48-.31.84.03.6.16 1.2.37 1.79.02.08 0 .12-.09.13l-1.72.28a.1.1 0 0 1-.11-.04 3 3 0 0 0-2.13-1.29 4.89 4.89 0 0 0-1.98.13l-.11-.34c.46-.27.55-.94.27-1.99-.09-.35-.27-.59-.54-.7-.27-.12-.56-.1-.88.08-.24.13-.42.3-.54.52a24.8 24.8 0 0 1-1.2-1.47.56.56 0 0 1-.1-.58 3.29 3.29 0 0 1 2.05-1.92c.7-.25 1.32-.4 1.87-.44a12.7 12.7 0 0 1 2.56-.01c1.72.24 3.16 1 4.33 2.25.4.42.58.97.56 1.64-.01.32-.02.64-.01.97 0 .52-.05 1.05-.15 1.57Z" fill="#F1AB49"/><path d="M36.63 22.3c.08.21.1.46.07.73-.03.23-.04.44-.02.66.05.47-.04.9-.29 1.3l-.51-.65c.22-.1.35-.28.4-.54.09-.55.2-1.06.35-1.5Z" fill="#C49B96"/><path d="M21.3 23.39c-.12.3-.3.56-.54.78-.23.22-.4.42-.47.58-.2.42-.36.86-.47 1.32a13 13 0 0 0-.36 3.5c.02.44.17.97.44 1.6.02.05.06.1.1.13.15.1.23.23.25.4.01.05.04.1.07.16a1 1 0 0 0 .6.39c.07.34.23.65.48.95.97 1.1 1.76 1.66 2.38 1.67.15 0 .18-.06.1-.18a5.48 5.48 0 0 1-.93-2.3c.24-.07.39-.02.43.15l1.31-.34c.06-.02.1 0 .1.07-.02.65.3 1.12.91 1.41.45.2.79.34 1 .38a4.3 4.3 0 0 0 2.32.15c.27.08.56.03.87-.15a.2.2 0 0 1 .14-.02l.4.07c.07.01.12.04.16.08.45.44 1.02.65 1.71.64.38.1.8-.08 1.26-.54l.09.14c.03.05.08.07.14.05.43-.13.84-.3 1.24-.49a4.6 4.6 0 0 0 2.59-3.41c.17.45.1 1-.2 1.64-.05.11-.09.23-.12.35a.91.91 0 0 1-.19.37c-.04.06-.08.05-.09-.02 0-.07.01-.13.06-.17.03-.04.03-.07 0-.1l-.04-.03c-.02-.02-.04-.02-.06 0a7.73 7.73 0 0 1-4.03 3.27c-.43.05-.85.14-1.26.25-.32.08-.62.12-.9.12l-5.57-.04c-.28 0-.58-.05-.92-.15-.4-.11-.8-.2-1.21-.24a7.15 7.15 0 0 1-3.6-2.77 5.4 5.4 0 0 1-.9-2.31 8 8 0 0 1 .66-4.63.2.2 0 0 0 .01-.18.35.35 0 0 0-.13-.15c.11.01.19-.02.23-.09.2-.3.36-.58.52-.84l.42-.52c.29-.38.63-.7 1-.95Z" fill="#C62D07"/><path d="M17.53 26.83a5.9 5.9 0 0 0-.4 1.8c0 .13-.09.26-.26.4a.27.27 0 0 0-.1.14c-.08.38-.2.77-.33 1.17a3.2 3.2 0 0 0-.17 1.12v.02c.01.7.12 1.13.3 1.29l.15.12c.36.31.64.54.84.67.33.22.55.57.64 1.04.02.05 0 .1-.05.12-.28.16-.5.35-.64.57-.09.15-.2.16-.33.06-.28-.21-.6-.65-.98-1.3l-.15-.27a1.16 1.16 0 0 1-.12-.24c-.05-.15-.14-.2-.28-.17-.06.02-.1 0-.14-.05l-.34-.63c-.12-.21-.18-.2-.19.05 0 .28.1.56.32.84.02.02.04.06.04.1.01.02.02.06.01.1 0 .05.01.1.05.15.36.35.46.67.3.96-.32-.4-.52-.54-.61-.42a13.98 13.98 0 0 1-1.48-6.34c.07.09.14.03.22-.16.18-.51.48-.96.9-1.35a5.11 5.11 0 0 1 2.62-1.33c.07-.01.1.02.1.08l.08 1.46Z" fill="#C15D4B"/><path d="m40.5 26.8.08.14c.33.5.53.9.61 1.2.16.6.24 1.16.21 1.66a8.09 8.09 0 0 1-.4 1.97c-.09.25-.23.48-.44.7a.5.5 0 0 0-.12.16l-.12.3c-.03.07-.07.07-.12.01-.18-.24-.17-.43.04-.58.18-.13.25-.27.2-.42a.25.25 0 0 1 0-.18.45.45 0 0 0 .05-.17c0-.08-.02-.09-.06-.02-.2.35-.47.43-.82.24a2.18 2.18 0 0 1-1.17-1.7 5.44 5.44 0 0 0-.3-1.24l.2-2.92c.01-.06.04-.08.1-.07 1.14.17 1.82.48 2.05.92Z" fill="#BB4434"/><path d="M26.73 28.93a.36.36 0 0 1-.28.04.19.19 0 0 1-.12-.1 4.6 4.6 0 0 0-1.29-1.59c-.14-.11-.14-.26 0-.44.12-.22.3-.4.54-.52.32-.18.61-.2.88-.09.27.12.45.36.54.71.28 1.05.2 1.72-.27 1.99ZM29.73 28.97c-.43.02-.66-.3-.66-.94 0-.48.07-.93.24-1.34a.78.78 0 0 1 .62-.5 1 1 0 0 1 .8.2c.18.13.34.29.46.46.14.2.12.36-.08.5-.55.4-.95.9-1.2 1.5a.18.18 0 0 1-.18.12Z" fill="#EAE7E6"/><path d="m15.91 30.14-.17.5c-.04.13-.1.14-.18.03-.3-.42-.46-.9-.47-1.43 0-.07 0-.17-.02-.31-.03-.5.02-.87.16-1.08.24-.37.53-.74.85-1.11.07-.08.15-.1.25-.08.1.03.15.1.16.2.14.83-.05 1.93-.58 3.28Z" fill="#CA7B6A"/><path d="M40.5 26.8c.07-.02.14 0 .2.03a3.28 3.28 0 0 1 1.5 2.75c0 .16.06.25.18.27.02 0 .03.04.02.1a14.35 14.35 0 0 1-6.35 10.14c0-.05-.01-.07-.03-.05.11-.4.06-.75-.15-1.07-.16-.25-.44-.63-.83-1.14-.2-.52-.52-.92-.98-1.2l-.17-.19c.34-.2.64-.44.9-.72.19-.22.39-.4.58-.55.36-.26.62-.59.78-.98a3.85 3.85 0 0 1 .71-1.04.29.29 0 0 0 .06-.25c0-.04-.05-.04-.14 0 .05-.1.11-.2.2-.28.02-.02.04-.02.06 0l.03.03c.04.03.04.06 0 .1a.2.2 0 0 0-.05.17c.01.07.05.08.1.02.09-.11.15-.24.18-.37.03-.12.07-.24.13-.35.3-.64.36-1.19.19-1.64-.04-.2-.03-.41.03-.63 0 .05.01.07.06.08.05 0 .09-.02.1-.07l.33-1.1c.12.27.22.69.3 1.26.12.77.5 1.33 1.17 1.7.35.18.63.1.83-.25.03-.07.05-.06.05.02 0 .06-.02.11-.04.17a.25.25 0 0 0-.01.18c.05.15-.02.3-.2.42-.2.15-.22.34-.04.58.05.06.09.06.12-.01l.12-.3a.51.51 0 0 1 .12-.16c.2-.22.35-.45.43-.7.25-.78.39-1.44.41-1.97.03-.5-.04-1.06-.2-1.66a4.7 4.7 0 0 0-.7-1.34Z" fill="#8D150D"/><path d="M17.53 26.83c.17 1.84.49 3.6.95 5.25.04.2.03.33-.02.42-.04.07-.09.08-.14.01a.13.13 0 0 1-.02-.15c.05-.1.03-.1-.05-.05-.07.04-.1.1-.06.17l.8 1.74c-.05.02-.1 0-.15-.06a.55.55 0 0 0-.05-.05c-.03-.02-.05-.02-.07 0a.07.07 0 0 0-.02.08c.16.39.25.98.27 1.77l.02.47c0 .36.06.61.2.75.36.35.3.5-.2.43-.36-.04-.94-.37-1.72-.99a5.3 5.3 0 0 1-.74-.73l-.84-1c.17-.29.07-.61-.29-.96a.18.18 0 0 1-.05-.16v-.1a.23.23 0 0 0-.05-.1 1.29 1.29 0 0 1-.32-.83c0-.25.07-.26.2-.05l.33.63c.03.05.08.07.14.05.14-.04.23.02.28.17l.11.24.16.26c.38.66.7 1.1.97 1.31.14.1.25.09.34-.06.15-.22.36-.41.64-.57.05-.02.06-.07.05-.12-.1-.47-.31-.82-.64-1.04-.2-.13-.48-.36-.84-.67l-.15-.12c-.18-.16-.29-.59-.3-1.3v-.01c-.01-.38.04-.75.17-1.12.13-.4.25-.79.34-1.17a.27.27 0 0 1 .1-.15c.16-.13.25-.26.26-.39.03-.6.16-1.2.4-1.8Z" fill="#BB4434"/><path d="M26.84 29.27c.63-.18 1.3-.22 1.98-.13a3 3 0 0 1 2.13 1.29.1.1 0 0 0 .11.04l1.72-.28c.09-.01.11-.05.09-.13a6.39 6.39 0 0 1-.37-1.79c-.02-.36.08-.64.31-.84.23-.2.52-.26.88-.2.41.08.77.48 1.07 1.2a8 8 0 0 0 .19.42l.33 1.8c.1 1.03-.01 1.8-.32 2.32a4.1 4.1 0 0 1-1.34 1.27l-.23-.18a.21.21 0 0 0-.15-.04l-.57.04.07-.13c.37-.74.53-1.36.47-1.84l-.04-.65c-.02-.37-.1-.72-.24-1.05-.02-.06-.06-.08-.12-.08-.54.05-1.08.14-1.62.27-.09.03-.12.08-.08.16l.14.33c.03.07.09.11.17.1.5-.02.99.01 1.47.1.03 0 .04.02.04.05 0 .04-.02.05-.04.04l-1.53-.05c-.03 0-.05.01-.04.04l.09.61c0 .04.02.05.05.06.42.04.8.16 1.16.37l-.01.12a2.13 2.13 0 0 0-1.11-.33c-.06 0-.09.03-.08.09.04.57-.19 1-.68 1.29-.53.3-1.1.52-1.72.65a4.3 4.3 0 0 1-2.32-.15c.43-.23.75-.33.95-.3.8.13 1.61.1 2.44-.08.24-.05.45-.15.63-.3.14-.11.12-.17-.06-.18-.28-.01-.56 0-.85.04a5.05 5.05 0 0 1-1.08-.01c-.16 0-.27-.11-.36-.31.84-.16 1.15-.62.94-1.37-.24-.86-.67-1.26-1.29-1.22-.38.03-.69.24-.9.63a2.2 2.2 0 0 0-.27 1.14l-2.12-.03a.95.95 0 0 0 .12-.65c-.01-.05-.04-.08-.1-.09a4.4 4.4 0 0 0-1.63.1.13.13 0 0 0-.1.11l-.08.55c-.5-.1-.97-.3-1.4-.6-.15-.09-.3-.27-.47-.53l-.16-.23c.06-1.16.39-2.22.97-3.2.5-.38 1-.43 1.5-.13.43.25.43 1.1 0 2.56l-.03.07c-.03.1.01.16.12.17l1.65.26c.06.01.1 0 .15-.05.4-.52.93-.9 1.57-1.14Z" fill="#EAE7E6"/><path d="M30.44 28.35a.8.8 0 0 0 .3 1.09.8.8 0 0 0 1.08-.32.8.8 0 0 0-.29-1.1.8.8 0 0 0-1.09.33ZM25.09 29.55c.44 0 .8-.35.8-.79a.79.79 0 0 0-.8-.78c-.44 0-.8.35-.8.78 0 .44.36.79.8.79Z" fill="#1A0908"/><path d="M23.1 31.33c-.07.01-.09 0-.07-.06l.23-.9c.02-.06.06-.09.13-.08l1.64.28c.1.02.14.08.1.18l-.14.34c-.03.08-.1.12-.19.1a4.8 4.8 0 0 0-1.7.14Z" fill="#E8821E"/><path d="M33.17 31.44a.37.37 0 0 1-.28-.08c.02.01.04 0 .04-.04 0-.03-.01-.05-.04-.05a6.44 6.44 0 0 0-1.47-.1.16.16 0 0 1-.17-.1l-.14-.33c-.04-.08 0-.13.08-.16.54-.13 1.08-.22 1.62-.27.06 0 .1.02.12.08.14.33.22.68.24 1.05Z" fill="#F1AB49"/><path d="M28.37 32.92c-.78.1-1.29-.18-1.52-.82-.01-.43.08-.8.27-1.14.21-.39.52-.6.9-.63.62-.04 1.05.36 1.3 1.22.2.75-.11 1.2-.95 1.37Z" fill="#1E1B1E"/><path d="m20.91 30.73.16.23c.16.26.32.44.46.54.44.28.9.48 1.4.59l.02.3c.07.67.38 1.43.93 2.3.08.12.05.18-.1.18-.62 0-1.4-.56-2.38-1.67-.25-.3-.41-.61-.47-.95l-.02-1.52Z" fill="#BDABA1"/><path d="M24.73 32.07c-.5-.02-.94.14-1.35.47-.04-.17-.19-.22-.43-.15l-.01-.3.07-.55c.01-.06.05-.1.1-.11a4.4 4.4 0 0 1 1.64-.1c.06.01.09.04.1.1.04.2 0 .41-.12.64Z" fill="#D65510"/><path d="M32.9 31.36c.07.06.16.09.27.08l.04.65a.75.75 0 0 0-.53.33 2.71 2.71 0 0 0-1.22-.4c-.03 0-.05-.02-.05-.06l-.1-.6c0-.04.02-.05.05-.05l1.53.05Z" fill="#EB9331"/><path d="m26.62 31.8-.85-.2c-.05 0-.06-.02-.02-.06a.15.15 0 0 1 .13-.04c.25.05.5.12.75.22.03 0 .04.03.03.05l-.01.04h-.03ZM24.73 32.07l2.12.03c.23.64.74.92 1.52.82.09.2.2.3.36.3l.26.02c.36.02.64.02.82 0 .29-.04.57-.05.85-.04.18.01.2.07.06.18-.18.15-.4.25-.63.3-.83.19-1.64.21-2.44.08-.2-.03-.52.07-.95.3a5.2 5.2 0 0 1-1-.38c-.62-.29-.93-.76-.92-1.41 0-.06-.03-.09-.09-.07l-1.3.34c.4-.33.85-.49 1.34-.47Z" fill="#BDABA1"/><path d="M18.48 32.08a6.99 6.99 0 0 0 2.2 3.24c.61.5 1.13.85 1.56 1.04l-.59.53-.85 1.26a3.9 3.9 0 0 0-.78 1.22l.02.7a14.24 14.24 0 0 1-4.95-5.6c.1-.12.3.02.6.42l.84 1c.26.3.5.54.74.73.78.62 1.36.95 1.73 1 .49.05.55-.1.2-.44-.15-.14-.21-.39-.2-.75.41.16.67.44.76.86a.3.3 0 0 0 .13.2c.21.13.38.3.52.5.03.04.06.04.1 0l.03-.03c.06-.05.06-.1.03-.17-.17-.27-.24-.49-.22-.66.03-.28 0-.55-.07-.82a.29.29 0 0 1 0-.16c.1-.32 0-.59-.3-.8l-.36-.26c-.13-.1-.27-.27-.41-.53a2.97 2.97 0 0 0-.21-.34l-.81-1.74c-.03-.07-.01-.13.06-.17.08-.06.1-.04.05.05-.02.05-.02.1.02.15.05.07.1.06.14 0 .05-.1.06-.24.02-.43Z" fill="#A41F14"/><path d="M33.21 32.09a3.38 3.38 0 0 1-.54 1.97l-.37.77c-.7 0-1.26-.2-1.7-.64a.28.28 0 0 0-.16-.08l-.41-.07a.2.2 0 0 0-.14.02c-.31.18-.6.23-.87.15a5.76 5.76 0 0 0 1.71-.65c.5-.29.73-.72.69-1.3 0-.05.02-.08.08-.08.4 0 .76.12 1.1.33l.23.1c.06.04.08.02.05-.04-.03-.05-.1-.1-.2-.15.12-.18.3-.3.53-.33Z" fill="#D65510"/><path d="M36.78 32.9c.08-.04.13-.04.14 0 .02.09 0 .17-.06.25l-.15.2c-.28.34-.47.62-.56.84-.16.39-.42.72-.78.98-.2.15-.39.33-.59.55a3.7 3.7 0 0 1-.89.72c-.05 0-.11-.04-.19-.1a1.3 1.3 0 0 0-.68-.23 21 21 0 0 0-.07-.01.28.28 0 0 1 0-.21 7.73 7.73 0 0 0 3.83-2.99Z" fill="#690B06"/><path d="M13.28 33.21a15.63 15.63 0 0 0 12.18 10.2c3.82.6 7.39-.06 10.7-2 .64-.38 1.4-.93 2.3-1.64-.32.5-.77.93-1.35 1.31a23.05 23.05 0 0 1-3.07 1.72 12.84 12.84 0 0 1-2.96.83c-.43.1-.75.15-.98.17-.84.07-1.71.11-2.62.14-.35 0-.68-.03-.98-.1-.2-.05-.42-.08-.65-.08-.23 0-.46-.02-.68-.06-1.06-.2-2.16-.54-3.3-.99-.1-.03-.19-.08-.27-.14-.08-.06-.17-.1-.27-.14a10.06 10.06 0 0 1-2.41-1.36 7.42 7.42 0 0 0-.43-.3 10.95 10.95 0 0 1-2.18-1.91c-.5-.56-1-1.2-1.52-1.91-.14-.2-.26-.42-.36-.65a5.6 5.6 0 0 0-.34-.67c-.16-.27-.3-.54-.43-.8-.05-.1-.1-.29-.15-.55a1.09 1.09 0 0 0-.26-.5.23.23 0 0 1-.06-.16c0-.15.02-.28.09-.41Z" fill="#BB4434"/><path d="M33.62 34.24c-.07.11-.1.13-.06.05-.46.46-.88.63-1.26.54l.37-.77.57-.04c.06 0 .1 0 .15.04l.23.18Z" fill="#BDABA1"/><path d="M19 34.22a3 3 0 0 1 .2.34c.15.26.29.44.42.53l.36.26c.3.21.4.48.3.8a.29.29 0 0 0 0 .16c.07.27.1.54.07.82-.02.17.05.4.22.66.03.06.03.12-.03.17l-.04.04c-.03.03-.06.03-.09-.01-.14-.2-.31-.37-.52-.5a.3.3 0 0 1-.13-.2c-.1-.42-.35-.7-.77-.86 0-.1 0-.26-.02-.47a5.72 5.72 0 0 0-.26-1.77.07.07 0 0 1 .01-.08c.02-.02.04-.02.07 0l.05.05c.05.06.1.08.16.06Z" fill="#B02615"/><path d="M18.18 36.07a.4.4 0 0 0 .09-.11l.25-.49h.03l.04.01c.03.01.03.03.03.05l-.27.95c-.04.16-.14.2-.28.13l-.37-.18a.2.2 0 0 1-.11-.16c-.02-.06 0-.11.06-.15.03-.02.05-.02.08 0 .14.1.29.09.45-.05Z" fill="#C15D4B"/><path d="M23.09 35.83c.4.04.81.13 1.21.24.34.1.64.15.92.15 1.95 0 3.8.02 5.56.04.29 0 .59-.04.9-.12.42-.11.84-.2 1.26-.25a.28.28 0 0 0 .01.2c-.55.01-1.04.18-1.45.52a.15.15 0 0 1-.15.03 3.48 3.48 0 0 0-1.26-.21c-1.33.04-2.76.13-4.3.26-.33.03-.68.13-1.07.3a.18.18 0 0 1-.18-.02.89.89 0 0 1-.24-.23.27.27 0 0 0-.14-.1l-1.33-.43a.6.6 0 0 1 .2-.12c.11-.03.13-.12.06-.26Z" fill="#A41F14"/><path d="M32.95 36.1h.07c-.07.08-.2.17-.38.29-.42.26-.61.55-.58.87.06.6.2 1.2.42 1.8.05.45.17.85.37 1.2l.09 1.37-.34.14c-.04-.1-.03-.22.04-.34l.03-.15a11.2 11.2 0 0 1-.07-.55 2.22 2.22 0 0 0-.1-.53l-.38-1.07-.26-1.47c-.02-.27-.12-.43-.3-.48a7 7 0 0 0-4.73.69l-.64.33c-.4-.03-.8.01-1.17.1-.19.05-.4.22-.63.53l-.18.23a.1.1 0 0 0-.02.1l.02.06v.1c-.16.33-.24.63-.25.9-.03.6.33 1.2 1.07 1.82.05.04.04.07-.02.08l-.12.03-2.08-.65.11-.92c.43-.28.64-.67.61-1.17.04-.24.05-.47.02-.7a.89.89 0 0 0-.18-.46l-.05-.07a2.1 2.1 0 0 0-1.07-.83.36.36 0 0 1-.15-.08c-.1-.1-.21-.17-.34-.22v-.08c0-.03-.01-.05-.05-.06a.54.54 0 0 1-.06-.02l.6-.53c.2-.1.4-.15.58-.15l1.33.43c.06.02.1.05.14.1.07.1.15.17.24.23.06.04.12.04.18.02.39-.17.74-.27 1.08-.3 1.53-.13 2.96-.22 4.29-.26.4-.01.83.06 1.26.21.06.02.1.01.15-.03.41-.34.9-.5 1.45-.51Z" fill="#C62D07"/><path d="M33.02 36.1c.22 0 .44.08.68.23-1.2.2-1.45.83-.76 1.88l-.14.2-.32.65a7.9 7.9 0 0 1-.42-1.8c-.03-.31.16-.6.58-.87.18-.12.31-.21.38-.28Z" fill="#D65510"/><path d="M33.7 36.33c.08.07.14.1.2.11l.16.2c-.59.4-.83.83-.73 1.27l-.04.05-.35.25c-.7-1.05-.44-1.68.76-1.88Z" fill="#E8821E"/><path d="M34.06 36.63c.46.28.78.68.98 1.2l-.16-.04c-.63-.16-1.15-.12-1.55.12-.1-.44.14-.87.73-1.28Z" fill="#EB9331"/><path d="m21.65 36.89.06.02c.04 0 .05.03.05.06v.08l-.22.38c-.09.15-.04.22.14.2.45-.05.82.1 1.11.47a6.3 6.3 0 0 1-.95-.3c-.06-.02-.18-.02-.35.02-.1.01-.25.08-.43.19l-.26.14.85-1.26Z" fill="#CA7B6A"/><path d="M21.76 37.05c.13.05.24.12.34.22l.15.08a2.1 2.1 0 0 1 1.12.9c.1.14.16.3.18.46.02.23.02.46-.02.7-.04-.19-.1-.36-.2-.51a.15.15 0 0 1-.02-.15.21.21 0 0 0 0-.17c-.05-.13-.16-.2-.33-.22a.95.95 0 0 0-.19-.26 1.17 1.17 0 0 0-1.11-.47c-.18.02-.23-.05-.14-.2l.22-.38ZM31.86 37.66l-.25.2a.18.18 0 0 1-.16.04 6.2 6.2 0 0 1-.4-.1c-.36-.09-.65-.13-.86-.11-.6.04-1.2.22-1.79.53-.25.13-.53.2-.84.2a.36.36 0 0 1-.16-.04 1.6 1.6 0 0 0-.8-.16c-.17 0-.31 0-.41-.02l.64-.33a7 7 0 0 1 4.74-.69c.17.05.27.2.3.48Z" fill="#E8821E"/><path d="M35.04 37.83c.39.5.67.89.83 1.14.21.32.26.68.15 1.07a1.85 1.85 0 0 0-.66-.04c-.49.06-1.1-.34-1.84-1.2-.13-.16-.2-.42-.23-.8v-.04l.04-.05c.4-.24.92-.28 1.55-.12l.16.04Z" fill="#ECDDD0"/><path d="m31.86 37.66.26 1.47.1 2.77-1.33.27c.6-.5.92-.87.94-1.1.05-.38.1-.74.13-1.08a2.6 2.6 0 0 0-.45-1.82.28.28 0 0 0-.13-.1c-.79-.33-1.79-.17-2.99.47-.16.09-.4.16-.72.23a2.4 2.4 0 0 0-.74.25c-.11.07-.29.13-.54.17l-.34.08c-.07.03-.1.08-.05.15.12.18.34.4.66.66.22.17.37.31.47.42a5.86 5.86 0 0 0 3.04 1.68c.07.01.08.04.01.07a.46.46 0 0 0-.13.1c-1.73.26-3.45.2-5.16-.2l.12-.03c.06-.01.07-.04.02-.08-.74-.61-1.1-1.22-1.07-1.83.01-.26.1-.56.24-.88a.14.14 0 0 0 0-.11l-.01-.05a.1.1 0 0 1 .02-.11l.18-.23c.23-.3.44-.48.63-.53.38-.09.77-.13 1.17-.1l.42.02c.31 0 .58.05.79.16.05.03.1.04.16.04.31 0 .6-.07.84-.2.6-.3 1.2-.49 1.79-.53.2-.02.5.02.86.12l.4.1c.06 0 .11-.01.16-.05l.25-.2Z" fill="#EB9331"/><path d="M22.8 38.1c.08.09.14.18.18.26l.12.32c.13.29.17.55.11.78l.01.01h.05c.06 0 .09.03.09.1 0 .14-.03.24-.1.3l-.1.07c-.55.41-1.06.54-1.55.4-.28-.1-.56-.2-.83-.32-.15-.08-.3-.18-.42-.31l-.34-.34c.17-.44.43-.85.78-1.22l.26-.14c.18-.11.33-.18.43-.2.17-.03.29-.03.35 0 .3.12.63.22.95.3Z" fill="#ECDDD0"/><path d="M30.89 42.17c-.14.1-.41.17-.84.18a.46.46 0 0 1 .13-.1c.07-.03.06-.06 0-.07a5.86 5.86 0 0 1-3.05-1.68c-.1-.1-.25-.25-.47-.42a3.18 3.18 0 0 1-.66-.66c-.04-.07-.02-.12.05-.15l.34-.08c.25-.04.43-.1.54-.17.16-.1.4-.18.74-.25.32-.07.56-.14.72-.23 1.2-.64 2.2-.8 3-.48.05.03.09.06.12.1.37.55.52 1.15.45 1.83l-.13 1.07c-.02.24-.34.6-.94 1.1Z" fill="#F1AB49"/><path d="M33.29 37.96V38c.02.37.1.63.23.78.74.87 1.35 1.27 1.84 1.21.22-.02.44-.01.66.04.02-.02.02 0 .03.05l-.32.21c0-.06-.03-.08-.07-.07-.11.05-.26.13-.44.27l-1.01-.09c-.65-.09-1.1-.4-1.35-.94a1 1 0 0 1-.07-.52c.02-.18.02-.36.01-.54l.14-.2.35-.25Z" fill="#BDABA1"/><path d="M22.98 38.36c.17.02.28.1.33.22.03.06.03.11 0 .17-.02.05-.02.1.01.15.1.15.17.32.21.51.02.5-.18.89-.61 1.17-.48.35-.93.44-1.33.26a1.3 1.3 0 0 0-.81-.31l-.74-.46-.02-.7.34.34c.12.13.27.23.42.3.27.13.55.24.83.32.49.15 1 .02 1.54-.39l.1-.07c.08-.06.11-.16.1-.3 0-.07-.02-.1-.08-.1h-.05c.05-.24 0-.5-.12-.8l-.12-.3Z" fill="#C49B96"/><path d="M32.8 38.4c.01.2 0 .37-.01.55a1 1 0 0 0 .07.52c.25.54.7.85 1.35.94-.12.33-.33.42-.62.28a.28.28 0 0 0-.25-.01c-.15-.03-.31-.17-.49-.42-.2-.35-.32-.75-.37-1.2l.32-.65Z" fill="#CA7B6A"/><path d="m32.12 39.13.37 1.07c.06.17.1.35.11.53l.06.55c.01.05 0 .1-.02.15-.07.12-.08.24-.04.34-.15.08-.28.12-.38.13l-.1-2.77Z" fill="#D65510"/><path d="m35.73 40.3-.43.26c-.03-.08-.05-.1-.08-.06.18-.14.33-.22.44-.27.04 0 .06.01.07.07Z" fill="#CA7B6A"/><path d="M32.85 40.26c.18.25.34.39.5.42l.04.05c.03.04.03.08-.02.1-.22.18-.21.4.03.65l-.46.15-.09-1.37Z" fill="#690B06"/><path d="m34.2 40.41 1.02.1c.03-.05.05-.03.08.05l-1.9.92c-.24-.26-.25-.47-.03-.64.05-.03.05-.07.02-.11l-.05-.05a.28.28 0 0 1 .25.01c.3.14.5.05.62-.28ZM21.59 40.84c-.08 0-.1.02-.06.08l-.75-.39c.25 0 .52.1.8.3Z" fill="#BB4434"/><path d="M36.62 42.47a16.64 16.64 0 0 1-8.06 2.32 16.31 16.31 0 0 1-11.67-4.22c.41.08.88.38 1.4.88.2.2.46.38.78.58a17.41 17.41 0 0 0 5.42 2.2c.8.16 1.62.25 2.46.24.1 0 .18.04.22.13.02.06.06.08.12.07.62-.03 1.23-.04 1.85 0 .05 0 .09-.02.13-.06a.5.5 0 0 1 .4-.15c.7.04 1.38-.06 2.03-.3.06-.01.15-.03.28-.03l.28-.04L34 43.5c.67-.24 1.47-.63 2.4-1.16.06-.03.1-.03.15.01.03.03.06.07.07.11Z" fill="#A41F14"/><path d="m22.92 40.58-.11.92-1.28-.58c-.04-.06-.02-.08.06-.08.4.18.85.1 1.33-.26Z" fill="#690B06"/><path d="M27.91 10c-1.16 0-2.76.34-3.41.5l1.31.16c.29-.05 1.11-.15 2.1-.15 1 0 2.31.15 2.85.23l1.26-.23c-.88-.17-2.94-.51-4.1-.51Z" fill="#EAE7E6"/></svg>