<!-- by TradingView --><svg width="56" height="56" viewBox="0 0 56 56" xmlns="http://www.w3.org/2000/svg"><path fill="#19213C" d="M0 0h56v56H0z"/><path d="M32.77 12.5c1.92.6 3.72 1.58 5.3 2.85-.1.83.04 1.65.16 2.78.08.84.34 1.79.87 2.7.36.61.77 1.4 1.03 2.19.32.99.57 1.79 1.04 2.63l.94 1.64c.13.22.38.88.76 1.98.02.06.06.1.11.12l.32.1a.1.1 0 0 1 .06.07.1.1 0 0 1-.03.1l-.58.58a.15.15 0 0 0-.04.15c.01.07.06.13.14.2a.1.1 0 0 1 .02.13c-.18.37-.13.71-.15 1.1-.03.6-.33 1.23-.36 1.69 0 .18-.07.3-.17.33-.24.09-.24.19-.01.3.1.04.24.05.41.03.05 0 .08.01.08.07v.06c-.69 1.61-1.64 3.1-2.81 4.4l-1.4-.1a.4.4 0 0 0-.31.12l-1.08 1.03a7.44 7.44 0 0 1 .88-.97c0-.05.03-.1.06-.12l.68-.72.37-.34a.08.08 0 0 1 .1 0c.02.01.03.02.03.04l.1.4a.13.13 0 0 0 .07.1.12.12 0 0 0 .12-.02c.42-.28.71-.62.88-1 .08-.18.03-.23-.14-.15l-.3.12c-.19.08-.25.03-.2-.17.02-.08.07-.19.17-.34.62-.97 1.26-1.96 1.36-3l.05-.33.05-1.9c0-.13-.02-.26-.07-.4a24.72 24.72 0 0 0-1.8-3.74c-.69-1.2-1.73-2.65-2.52-4.09l-1-1.83a6.05 6.05 0 0 0-3.21-2.84c-.05-1.7-.05-3.5-.01-5.39 0-.05 0-.15-.02-.28-.02-.13 0-.23.05-.28ZM23 12.57v3.46c.04-.23-.11-.3-.45-.21a.23.23 0 0 0-.12.08c-.3.4-.57.65-.81.74-.82.3-1.3.52-1.59 1.23-.12.3-.28.63-.48.97-.05.1-.03.12.07.07.25-.13.44-.24.55-.32.25-.17.32-.11.2.16-.2.57-.39 1.23-.53 1.98-.09.43-.3 1.04-.54 1.28-.43.44-.7.96-.84 1.56-.01.04 0 .09.02.13l.15.26c.02.05.02.1-.02.13l-.5.5a.23.23 0 0 1-.28.04c-.23-.14-.47-.29-.77-.17a3.93 3.93 0 0 0-.6.28.08.08 0 0 0-.02.06l.02.03.61.62a.28.28 0 0 1 .06.29c-.2.52-.4 1.09-.58 1.7-.16.5-.35.86-.56 1.33-.34.77-.3 1.47-.2 2.37l-.02 1.18c-.3-.02-.56-.07-.76-.15-.26-.1-.31-.03-.16.2.32.52.51 1.14.56 1.87a1.2 1.2 0 0 1-.46-.59.11.11 0 0 0-.13-.07c-.06.01-.07.06-.05.13.06.21.15.43.28.66-.19-.13-.31-.15-.38-.06a.16.16 0 0 1-.14.06h-.06c-.07 0-.08-.03-.04-.09l.24-.36a.1.1 0 0 0 .02-.09l-.14-.57a.17.17 0 0 0-.1-.12l-.23-.12c-.06-.02-.07-.06-.05-.12.23-.47.19-.87.17-1.37a.12.12 0 0 1 .12-.13c.02 0 .04 0 .06.02l.52.25a.08.08 0 0 0 .1-.02.09.09 0 0 0 .02-.09c-.1-.3-.16-.55-.18-.75-.07-.67-.14-1.22-.2-1.64-.03-.14-.01-.45.02-.57.19-.63.29-1.26.3-1.88.01-.31.14-.49.31-.78.11-.2.2-.39.24-.59.3-1.26.75-2.5 1.36-3.72l.68-1.39c.71-1.48.65-2.96.7-4.97 0-.05-.03-.12-.08-.2l.03-.03c1.41-1.08 2.99-1.91 4.67-2.47Z" fill="#3D6888"/><path d="m28.9 15.22-.04.09-.04.04a.1.1 0 0 1-.06 0 .17.17 0 0 1-.07-.04 9.56 9.56 0 0 1-.58-1.24c-.11-.3-.2-.3-.27.02-.09.37-.32.64-.48 1.03l-.98 2.5-.78 1.96-.62 1.5a1.4 1.4 0 0 1-.09-.46l1.79-4.38c.11-.38.23-.7.36-.94a.46.46 0 0 0 .07-.25c0-.05 0-.1.02-.15l.53-1.52c.05-.16.18-.3.35-.25a.36.36 0 0 1 .25.27c.05.26.1.61.25.92l.38.9ZM23.67 14.14c.12-.03.2-.12.2-.2-.02-.1-.13-.15-.25-.13-.12.02-.21.1-.2.2.02.09.13.15.25.13Z" fill="#73B1C0"/><path d="m28.9 15.22 1.2 2.97c.13.6.1 1.1-.06 1.52-.22.57-.82 1.4-1.48 1.5-.28.06-.54.02-.78-.1.19-.06.2-.28.05-.65a.2.2 0 0 1 0-.15l.07-.21c.32 0 .6-.08.85-.27.32-.08.45-.53.6-.8.18-.3.19-.63.04-.97-.27-.64-.44-1.07-.52-1.3-.18-.52-.53-.64-1-.72a.2.2 0 0 0-.22.11c-.15.33-.3.62-.45.88-.16.29-.44.48-.82.6l.98-2.5c.16-.4.4-.67.48-1.04.07-.31.16-.32.27-.02a9.57 9.57 0 0 0 .58 1.24l.07.04a.1.1 0 0 0 .06 0l.04-.04.03-.09Z" fill="#236F8D"/><path d="M18.3 15.06c.06.09.09.16.09.2-.05 2.02.01 3.5-.7 4.98L17 21.63a16.95 16.95 0 0 0-1.36 3.72c-.05.2-.13.4-.24.59-.17.3-.3.47-.3.78a7.51 7.51 0 0 1-.3 1.88c-.04.12-.06.43-.04.57.07.42.14.97.21 1.64a4.05 4.05 0 0 0 .18.8.09.09 0 0 1-.12.06l-.52-.25a.13.13 0 0 0-.12 0 .12.12 0 0 0-.06.11c.02.5.06.9-.17 1.37-.02.06 0 .1.05.12l.24.12c.05.02.08.06.1.12l.13.57a.1.1 0 0 1-.02.09l-.24.36c-.04.06-.03.09.04.09h.06c.06 0 .1-.02.14-.06.07-.09.2-.07.38.06l.02.05.03.37c0 .06-.03.09-.08.09l-.7.04-.02.01-.01.04c0 .02 0 .03.02.04l.6.31c.06.09.06.14 0 .16a.07.07 0 0 1-.05 0c-.42-.16-.74-.17-.98-.01-.22-.42-.42-.84-.6-1.27l.6-.26c.04-.03.05-.06.04-.1-.11-.38-.17-.71-.18-1.02-.01-.53.12-1.11-.13-1.76a.84.84 0 0 0-.23-.32c.12.04.22.02.29-.05.05-.05.08-.13.08-.24a2.7 2.7 0 0 0-.28-1.08.17.17 0 0 1 0-.13l.27-.65c.07-.18.02-.22-.15-.13l-.55.28a.06.06 0 0 1-.07 0 .07.07 0 0 1-.02-.08l.33-1c.02-.07.07-.1.13-.06l.43.2a.09.09 0 0 0 .1-.02l.02-.04c.17-1.32.29-2.52.36-3.62l-.02-1.6c0-.05-.03-.09-.08-.1l-.3-.11c-.19-.06-.2-.14-.02-.23.36-.18.62-.41.82-.77a45.84 45.84 0 0 0 1.02-1.92.15.15 0 0 0-.09-.13.15.15 0 0 0-.07 0l-1.17.12a16.1 16.1 0 0 1 3.9-4.32ZM42.68 34.3v-.06c0-.06-.04-.08-.09-.07a.74.74 0 0 1-.41-.03c-.23-.11-.23-.21 0-.3.11-.04.17-.15.18-.33.03-.46.33-1.1.36-1.68.02-.4-.03-.74.15-1.1a.1.1 0 0 0 .01-.08.1.1 0 0 0-.03-.06c-.08-.06-.13-.13-.14-.2a.15.15 0 0 1 .04-.15l.58-.59a.1.1 0 0 0-.03-.16l-.32-.1a.17.17 0 0 1-.11-.12c-.38-1.1-.63-1.76-.76-1.98l-.94-1.64c-.47-.84-.72-1.64-1.04-2.63-.26-.8-.67-1.58-1.03-2.2a6.79 6.79 0 0 1-.87-2.7c-.12-1.12-.26-1.94-.17-2.77a16.14 16.14 0 0 1 4.62 18.95Z" fill="#2B4669"/><path d="m23 16.03.04 1.5L23 20.9c-.64.41-1.21.87-1.72 1.36-.23.23-.37.42-.42.58-.27.93-.4 1.68-.8 2.26-.42.62-1.15.95-1.49 1.63-.1.19-.27.68-.54 1.46-.15.44-.62.66-.94.9a.5.5 0 0 1-.3.1c-.03 0-.06.01-.06.06 0 .13.01.25.05.35a.09.09 0 0 0 .1.05c.16-.03.25-.05.27-.07.22-.13.28-.08.17.15a1.8 1.8 0 0 0-.05 1.2c.05.18 0 .22-.15.13-.32-.2-.42-.31-.73-.26a.07.07 0 0 1-.06-.03.07.07 0 0 1-.01-.06l.03-.08c.03-.05.02-.09-.03-.12a.6.6 0 0 0-.37-.07c-.1.01-.1.06-.04.13l.06.05c.03.04.03.07 0 .1a.66.66 0 0 0-.18.42c-.1-.9-.14-1.6.2-2.37.21-.47.4-.83.56-1.33.19-.61.38-1.18.58-1.7a.28.28 0 0 0-.06-.3l-.6-.6a.07.07 0 0 1-.03-.07.07.07 0 0 1 .04-.06c.14-.08.33-.16.58-.25.3-.12.54.03.77.17a.23.23 0 0 0 .28-.04l.5-.5c.04-.04.04-.08.02-.13l-.15-.26a.18.18 0 0 1-.02-.13c.13-.6.42-1.12.84-1.56.23-.24.45-.85.54-1.28.14-.75.32-1.41.54-1.98.1-.27.04-.33-.2-.16-.12.08-.3.19-.56.32-.1.05-.12.03-.07-.07.2-.34.36-.66.48-.97.3-.7.77-.93 1.59-1.23.24-.09.51-.33.8-.74a.23.23 0 0 1 .13-.08c.34-.1.49-.02.46.21Z" fill="#4C7A94"/><path d="M29.35 19.03c-.07-.5-.31-.75-.74-.78-.22 0-.5.1-.74.13-.39.06-.75.2-1.1.44a.11.11 0 0 0-.04.12c.04.25.12.48.24.67.2.33.52.49.93.49l-.07.21a.2.2 0 0 0 0 .14c.15.38.14.6-.05.66a6.94 6.94 0 0 1-2.18-1.53l.78-1.96c.38-.1.66-.3.82-.59.14-.26.3-.55.45-.88a.2.2 0 0 1 .22-.1c.47.07.82.2 1 .71.08.23.25.66.52 1.3.15.34.13.66-.04.97Z" fill="#1186AC"/><path d="M30.85 20.4c.1.72.35 1.45.77 2.18l-.72 1.38a.33.33 0 0 1-.4.16c-.17-.05-.3-.13-.52-.13-.36 0-.6-.05-.74-.13-.52-.33-1.04-.8-1.68-.53-.43.19-1 .71-1.15 1.23l-.15.45c-.13.5-.28.5-.44.02-.03-.07-.11-.22-.26-.46a8.31 8.31 0 0 1-1-2.45l.42-1.04.62-1.5a6.94 6.94 0 0 0 2.18 1.53c.24.12.5.16.78.1.66-.1 1.26-.93 1.48-1.5.17-.42.19-.92.07-1.52.42.74.67 1.48.74 2.2Z" fill="#133052"/><path d="M29.35 19.03c-.15.27-.28.72-.6.8l.29-.73a.2.2 0 0 0-.09-.25 2.25 2.25 0 0 1-.37-.3c-.2-.18-.46-.18-.71-.17.25-.04.52-.14.74-.12.43.02.67.28.74.77Z" fill="#73B1C0"/><path d="M27.87 18.38c.25 0 .51 0 .7.18.13.12.26.21.38.29a.2.2 0 0 1 .09.25l-.3.73c-.24.19-.52.28-.84.27-.41 0-.72-.16-.93-.5-.12-.18-.2-.4-.24-.66-.01-.05 0-.09.05-.12.34-.24.7-.38 1.09-.44Z" fill="#D1F0F7"/><path d="M41.3 33.25a15.24 15.24 0 0 1-3.41-3.36c-1-1.42-1.56-3.25-2.84-4.4a1.95 1.95 0 0 0-2.12-.42c0-.33-.05-.55-.17-.66l-.01-5.96a6.05 6.05 0 0 1 3.2 2.84l1 1.83c.8 1.44 1.84 2.9 2.54 4.1.73 1.25 1.33 2.5 1.79 3.74.05.13.07.26.07.4l-.05 1.89Z" fill="#4C7A94"/><path d="M13.38 30.74c-.43.1-.4.34.06.75a.1.1 0 0 0 .15-.07l.02-.36c.25.65.12 1.23.13 1.76 0 .3.07.64.18 1.01.01.05 0 .08-.05.1l-.6.27a16.23 16.23 0 0 1 1.14-14.82l1.17-.13a.15.15 0 0 1 .16.14c0 .03 0 .05-.02.08-.3.6-.64 1.22-1 1.84-.2.36-.46.59-.82.77-.17.1-.17.17.02.23l.3.1c.05.02.08.06.08.11l.02 1.6a58.36 58.36 0 0 1-.37 3.66.09.09 0 0 1-.11.03l-.43-.21c-.06-.03-.1-.01-.13.05l-.33 1.01a.07.07 0 0 0 .02.08l.03.01h.04l.55-.3c.18-.08.22-.04.15.14l-.27.65a.17.17 0 0 0 0 .13c.17.36.26.72.28 1.08 0 .1-.03.19-.08.24-.07.07-.17.09-.29.05Z" fill="#263852"/><path d="M30.85 20.4c.18.16.31.36.4.6a25.6 25.6 0 0 0 1.51 3.4c.12.12.17.34.17.67.05.23.09.37.12.43.24.39.52.95.83 1.67.18.4.54 1.09 1.09 2.09.26.47.4.82.44 1.05.06.38-.02.77-.25 1.18l-.38.7c-.62.5-1-.34-1.2-.79-.21-.55-.4-1.11-.59-1.67-.04-.13-.17-.22-.4-.28a.27.27 0 0 1-.12-.07 9.28 9.28 0 0 0-2.37-1.66.72.72 0 0 1-.33-.4c.33.09.65.2.97.14.73-.12.9-.6.86-1.33-.05-.82.02-1.65.2-2.48.07-.28.01-.64-.18-1.07a5.96 5.96 0 0 1-.77-2.19Z" fill="#236F8D"/><path d="M24.9 20.62c0 .15.02.31.08.46l-.42 1.04-1.22 2.9c-.16.39-.25.8-.27 1.16-.03.74-.08 1.4-.15 1.96 0 .04.02.07.06.1a.15.15 0 0 0-.12.12c-.17.69-.26 1.39-.29 2.1l-.26-.43a.18.18 0 0 0-.25-.06l-.45.26a.13.13 0 0 1-.13 0 .13.13 0 0 1-.07-.12c-.01-.5 0-.99.02-1.46.01-.18.08-.38.22-.6.5-.75.93-1.58 1.27-2.47.13-.35.17-.7.11-1.06l.03.05a.12.12 0 0 0 .21 0c.32-.65.63-1.26.88-1.97.23-.66.48-1.33.74-1.98Z" fill="#408190"/><path d="m23 20.9.03 3.62c.06.36.02.71-.11 1.06-.34.9-.77 1.72-1.27 2.48-.13.2-.21.4-.22.6a17.59 17.59 0 0 0 0 1.52.13.13 0 0 0 .12.07l.06-.02.45-.26a.18.18 0 0 1 .25.06l.26.44c-.1 1.04-.11 2.1-.03 3.16.02.22-.03.49.02.75-.06.03-.1.09-.1.16-.17-.54-.32-1.11-.62-1.57-.25-.38-.54-.8-.69-1.2a4.78 4.78 0 0 1-.11-3.1c.03-.11 0-.14-.1-.09a.72.72 0 0 0-.23.22c-.21.3-.59.8-1 1.17-.4.36-.79.74-1.18 1.14l-.5.04c-.05 0-.08.03-.09.08 0 .04.01.1.06.16a.13.13 0 0 1-.02.17 2.71 2.71 0 0 1-2.2.76v-1.18c.02-.16.08-.3.19-.42.03-.03.03-.06 0-.1l-.06-.06c-.07-.06-.05-.1.04-.12a.6.6 0 0 1 .37.07c.05.03.06.07.03.12l-.03.08a.07.07 0 0 0 .04.09h.03c.3-.05.41.06.73.26.15.1.2.05.15-.12a1.8 1.8 0 0 1 .05-1.2c.1-.24.05-.3-.17-.16-.02.02-.11.04-.27.07a.09.09 0 0 1-.1-.05.84.84 0 0 1-.05-.35c0-.05.03-.07.07-.07.1 0 .2-.03.29-.1.32-.23.79-.45.94-.89.27-.78.45-1.27.54-1.46.34-.68 1.07-1.01 1.5-1.63.4-.58.52-1.33.8-2.26.04-.16.18-.35.4-.58.52-.5 1.09-.95 1.73-1.36Z" fill="#5F91A3"/><path d="M24.57 22.12c.2.88.53 1.7.99 2.45.15.24.23.4.26.46.16.48.31.48.44-.02l.15-.45c.16-.52.72-1.04 1.15-1.23.64-.27 1.16.2 1.68.53.13.08.38.13.74.13.21 0 .35.08.53.13a.32.32 0 0 0 .39-.16l.72-1.38c.2.43.25.79.19 1.07-.2.83-.26 1.66-.21 2.48.04.74-.13 1.21-.86 1.33-.32.06-.64-.05-.97-.14-.15-.05-.24-.11-.24-.2a3.46 3.46 0 0 0-.27-1.06l-.25-.7c.03-.57-.1-.98-.42-1.24-.1-.3-.28-.5-.53-.6a.18.18 0 0 0-.14.02 2.8 2.8 0 0 0-.8.6c-.21.21-.26.48-.16.8-.2.95-.37 1.59-.51 1.93-.1.24-.27.4-.52.5-.45.16-.9.34-1.33.55-.04.02-.1.02-.15.02-.05 0-.1 0-.14.03-.44.3-.87.59-1.33.27-.04-.03-.06-.06-.06-.1.07-.56.12-1.22.15-1.96.02-.37.1-.77.27-1.17.4-.96.8-1.93 1.23-2.9Z" fill="#154E78"/><path d="m28.59 24.12-.58-.04c-.05 0-.1.01-.13.03l-.57.25a.17.17 0 0 0-.08.08l-.27.5c-.1-.32-.05-.59.15-.8.25-.26.52-.46.8-.6.05-.03.1-.03.15-.01.25.09.42.28.53.6Z" fill="#0E64A1"/><path d="M28.59 24.12c.31.26.45.67.42 1.25l-.27-.4h.04c-.58-.3-1.1-.23-1.55.2-.08.04-.14.12-.2.24-.14.3-.22.63-.24.98a1.5 1.5 0 0 0-.22.82c0 .05-.01.1-.03.14-.13.3-.2.65-.22 1.06-.01.1-.05.18-.14.25l-1.04.58c-.4.33-.71.71-.92 1.16-.41.87-.8 1.95-1.18 3.24-.1.32-.25.57-.48.74-.05-.26 0-.53-.02-.75-.08-1.06-.07-2.12.03-3.16.03-.72.12-1.42.29-2.1.02-.07.06-.11.12-.13.46.32.9.03 1.33-.27a.23.23 0 0 1 .14-.03c.05 0 .11 0 .15-.02.44-.2.88-.4 1.33-.55a.85.85 0 0 0 .52-.5c.14-.34.3-.98.5-1.93l.28-.5a.17.17 0 0 1 .08-.08l.57-.25a.28.28 0 0 1 .13-.03l.58.04Z" fill="#1098C1"/><path d="M28.78 24.97c-.45.59-.97.66-1.55.2.45-.43.97-.5 1.55-.2Z" fill="#D1F0F7"/><path d="m41.3 33.25-.05.34-.24.58-.01-.07a.1.1 0 0 0-.2-.04l-1.18 1.59a5.4 5.4 0 0 0-1.5-1.35c-.67-.38-1.4-.72-2.22-1.02-.28-.1-.71-.12-1.31-.06l.19-1.03.38-.7c.23-.4.31-.8.25-1.18a3.74 3.74 0 0 0-.44-1.05c-.55-1-.91-1.7-1.09-2.09-.31-.72-.6-1.28-.83-1.67-.04-.06-.07-.2-.12-.43.79-.29 1.5-.15 2.12.41 1.28 1.16 1.84 2.99 2.84 4.41.9 1.3 2.14 2.4 3.4 3.36Z" fill="#5F91A3"/><path d="M28.74 24.98a.5.5 0 0 1-.1.5 5.93 5.93 0 0 1-.75.75.19.19 0 0 0-.02.07.1.1 0 0 1-.05.02c-.03 0-.05 0-.07.02l-1 1.14c-.13-.24-.12-.6.04-1.09.02-.35.1-.68.24-.98.06-.12.12-.2.2-.23.58.45 1.1.38 1.55-.2h-.04Z" fill="#A0C7DF"/><path d="m29 25.37.26.69c.08.64.1 1.2.08 1.67 0 .06-.06.08-.17.05a3 3 0 0 0-1.3-1.48c0-.02 0-.04.02-.07a5.9 5.9 0 0 0 .75-.74.5.5 0 0 0 .1-.51l.27.39Z" fill="#72D1F2"/><path d="M29.77 27.32c.07.19.18.32.33.4a9.29 9.29 0 0 1 2.37 1.66c.03.04.08.06.12.07.23.06.36.15.4.28l.58 1.67a.15.15 0 0 1-.05-.03.05.05 0 0 0-.06-.02.05.05 0 0 0-.02.02l-.01.04.05.71c0 .1-.04.17-.14.2-.5.15-.7.01-.96-.45l-.3-.56c-.05-.16-.1-.26-.2-.27-.2-.7-.19-1.2-.98-1.6-.36-.29-.77-.5-1.23-.62-.13-.18-.2-.4-.21-.64 0-.05-.06-.06-.17-.05.02-.07-.01-.19-.12-.36.1.04.16.02.17-.04.03-.47 0-1.03-.08-1.67.14.34.23.7.27 1.06 0 .09.09.15.24.2Z" fill="#1186AC"/><path d="M27.87 26.3c.6.35 1.03.84 1.3 1.48.1.16.14.28.12.35a5.86 5.86 0 0 1-.67 1.68 8.17 8.17 0 0 0-.68.95.04.04 0 0 1-.03-.02l-1.14-2.3a1.2 1.2 0 0 1-.14-.47c0-.19.03-.36.12-.5l1-1.13a.08.08 0 0 1 .07-.02.1.1 0 0 0 .05-.02Z" fill="#0C0435"/><path d="M26.79 26.4c-.16.48-.17.84-.04 1.08a.85.85 0 0 0-.12.5c0 .13.05.28.14.46a2654.5 2654.5 0 0 0 1.17 2.32.04.04 0 0 0 .04-.02c.2-.33.4-.64.64-.93.19-.25.41-.8.67-1.68.1-.01.16 0 .17.05.01.25.08.46.21.64l-.16.85c-.01.06.01.1.07.09.12-.01.22-.1.3-.29.04-.1.11-.13.21-.11.08.01.19.05.33.1.24.11.4.1.48-.02.8.4.78.9.99 1.6-.05.1-.18.1-.39-.02a6 6 0 0 1-.68-.46.6.6 0 0 0-.46-.11c-.06 0-.09.03-.09.09 0 .24-.08.42-.22.53a.58.58 0 0 1-.11-.27c-.01-.05-.04-.07-.1-.06-.04.02-.09.06-.13.13-.12.18-.2.35-.24.5-.09.28-.46.53-.65.69-.39.32-.93.45-1.44.46a.14.14 0 0 1-.1-.03c-.62-.5-1.23-1.08-1.38-1.83a.1.1 0 0 0-.03-.05.09.09 0 0 0-.06-.02h-.05c-.05 0-.08.02-.07.07l.1 1.23-.02.07a.06.06 0 0 1-.12.02 1.4 1.4 0 0 1-.24-.67.09.09 0 0 0-.06-.08c-.05-.02-.08 0-.09.05-.03.2-.1.35-.18.43l-.16-1.29c0-.04-.02-.05-.06-.03l-.04.03a556.15 556.15 0 0 1-.14 1.29c0 .1-.13.08-.36-.06a14.88 14.88 0 0 1-1.5 3.73.4.4 0 0 0-.04.22l-.36.4-.25.2a1.17 1.17 0 0 1 0-.71c.16-.45.26-.77.29-.95 0-.07.04-.13.1-.16.23-.17.38-.42.48-.74.37-1.29.77-2.37 1.18-3.24.2-.45.52-.83.92-1.16.14.16.35.27.62.34.04.01.08.04.12.08.11.14.2.28.24.42-.1.22-.07.5.1.83.43.83 1.38 1.92 2.28 1 .35-.34.63-.73.84-1.15.18-.36.12-.4-.18-.14-.36.31-.73.6-1.12.83a.17.17 0 0 1-.19 0c-.35-.19-.6-.38-.76-.56-.17-.48-.45-.9-.82-1.25-.16-.14-.13-.18.07-.13l.11.1c.2.2.4.41.57.63.14.17.2.15.18-.08-.05-.44-.43-.78-.84-1.01a.17.17 0 0 1-.09-.12l-.09-.37a.33.33 0 0 0 .14-.25c.02-.4.1-.76.22-1.06.02-.04.03-.09.03-.14a1.5 1.5 0 0 1 .22-.82Z" fill="#37ADD9"/><path d="M22.46 34.54c-.03.19-.13.5-.3.95-.07.19-.07.42 0 .7-.7.39-1.25.78-1.63 1.16-.12.13-.13.3-.02.52-1.25-.35-2.41-.9-3.48-1.65-.28-.2-.5-.39-.65-.57l1.33-1.4c.13-.14.2-.32.2-.5 0-.39 0-.82.02-1.3.01-.59.22-1.04.6-1.34.39-.4.79-.78 1.19-1.14.4-.37.78-.86 1-1.17a.72.72 0 0 1 .22-.22c.1-.05.13-.02.1.08-.31 1.06-.27 2.1.11 3.11.15.4.44.82.69 1.2.3.46.45 1.03.62 1.57Z" fill="#A3C6CE"/><path d="m26.18 28.66.09.37c.01.05.04.1.09.12.41.23.8.57.84 1.01.02.23-.04.25-.18.08a8.76 8.76 0 0 0-.68-.73c-.2-.05-.23 0-.07.13.37.35.65.77.82 1.25-.37-.2-.69-.47-.97-.81a1.43 1.43 0 0 0-.24-.42.22.22 0 0 0-.12-.08 1.27 1.27 0 0 1-.62-.34l1.04-.58Z" fill="#72D1F2"/><path d="M30.9 29.44c-.08.12-.24.13-.48.03-.14-.06-.25-.1-.33-.11-.1-.02-.17.02-.2.11-.09.18-.19.28-.3.29-.07 0-.1-.03-.08-.09l.16-.85c.46.13.87.33 1.23.62Z" fill="#D1F0F7"/><path d="M26.12 30.08c.28.34.6.61.97.81.16.18.41.37.76.57.07.03.13.03.19 0 .39-.25.76-.53 1.12-.84.3-.27.36-.22.18.14-.21.42-.5.8-.84 1.16-.9.91-1.85-.18-2.28-1.01-.17-.34-.2-.61-.1-.83ZM25.08 31.7c.06 1.4-.03 2.7-.27 3.9-.01.08-.09.1-.23.07l-.17-2.5c0-.05.02-.09.07-.11l.2-.13a.16.16 0 0 0 .05-.11l.04-.88a.1.1 0 0 0-.06-.1l-.4-.19c.24.14.36.16.37.05a550.77 550.77 0 0 0 .14-1.28l.04-.03c.04-.02.06 0 .06.03l.16 1.29Z" fill="#0E64A1"/><path d="M31.89 31.04c.08.01.14.1.18.28a.12.12 0 0 0-.04-.03c-.04-.02-.06 0-.05.04.06.3.08.62.07.93-.01.26.03.54.11.84.16.57.28 1.13.38 1.67.06.73.37 1.28.93 1.64a3.48 3.48 0 0 1-3.03-.76.24.24 0 0 0-.23-.03l-1.21.45c-.53.2-1.02 1.02-1.53.37.6.28.88-.05 1.15-.56l.32-.55.84-.16a.19.19 0 0 0 .15-.16 14.79 14.79 0 0 1 .5-2.17c.05-.04.1-.03.15.03l.01.05v.83c0 .06.03.1.08.13.04.03.08.03.13.02a.12.12 0 0 0 .08-.1c.12-.9.17-1.75-.15-2.59-.02-.05-.05-.06-.1-.04-.07.04-.12.03-.16-.03a.18.18 0 0 0-.11-.07.37.37 0 0 0-.24.04.2.2 0 0 0-.07-.04c.14-.1.22-.29.22-.53 0-.06.03-.09.09-.1a.6.6 0 0 1 .46.12 6 6 0 0 0 .68.46c.21.12.34.12.39.02Z" fill="#148DC1"/><path d="M30.05 31.07a.2.2 0 0 1 .07.04 1.12 1.12 0 0 1 0 .68.04.04 0 0 1-.05.01l-.05-.02c-.02 0-.03-.02-.03-.04a.6.6 0 0 0 0-.17c-.07-.21-.14-.22-.22-.03l-.04.13a8.38 8.38 0 0 1-.5 1.55.28.28 0 0 0-.03.14c.04.51 0 1.02-.13 1.5-.04-.42-.01-.85.1-1.27.01-.06-.01-.14-.07-.22-.1-.16-.1-.25-.02-.39a.37.37 0 0 0 .06-.14l.16-.71a.02.02 0 0 0 0-.02.02.02 0 0 0-.02-.01h-.1a.12.12 0 0 0-.13.08l-.31.95a.1.1 0 0 1-.1.07h-1.27a.14.14 0 0 0-.11.05.15.15 0 0 0-.04.11c.06.84-.02 1.72-.25 2.62l-.75-1.95a9.94 9.94 0 0 1-.43-2.14l-.1-1.23c0-.05.02-.07.07-.07h.05c.02 0 .04 0 .06.02a.1.1 0 0 1 .03.05c.15.75.76 1.34 1.39 1.83.02.02.06.03.1.03.5-.01 1.04-.14 1.43-.46.2-.16.56-.4.65-.7.04-.14.12-.3.24-.49.04-.07.09-.1.14-.13.05-.01.08 0 .09.06.01.1.05.2.1.27Z" fill="#0E64A1"/><path d="M13.38 30.74c.12.1.2.21.23.32l-.02.36a.1.1 0 0 1-.05.08.1.1 0 0 1-.1-.01c-.47-.4-.49-.66-.06-.75Z" fill="#3D6888"/><path d="M28.94 35.33a4.76 4.76 0 0 0 .25-1.97c0-.05.01-.1.03-.14a8.38 8.38 0 0 0 .55-1.68c.08-.2.15-.18.21.03a.6.6 0 0 1 0 .17c0 .02.02.04.04.04l.05.02a.04.04 0 0 0 .05-.01v-.01c.07-.23.07-.45 0-.67a.37.37 0 0 1 .24-.04c.04 0 .08.03.11.07.04.06.1.07.16.03.05-.02.08 0 .1.04.32.84.27 1.7.15 2.58 0 .06-.03.1-.08.1a.15.15 0 0 1-.13 0 .14.14 0 0 1-.08-.14v-.83l-.01-.05c-.05-.06-.1-.07-.15-.03a14.79 14.79 0 0 0-.5 2.17c0 .04-.02.08-.05.1a.19.19 0 0 1-.1.06l-.84.16Z" fill="#0E7EBE"/><path d="M18.53 31.1c-.38.31-.59.76-.6 1.36-.02.47-.02.9-.02 1.28 0 .19-.07.37-.2.5l-1.33 1.4c-.58-.48-.9-.95-.97-1.4a3.88 3.88 0 0 0-.56-1.86c-.15-.24-.1-.3.16-.2.2.07.46.12.76.14.44-.04.79-.13 1.04-.27a5.06 5.06 0 0 1 1.17-.49.13.13 0 0 0 .02-.16c-.05-.07-.07-.12-.06-.17 0-.05.04-.08.09-.08l.5-.04Z" fill="#73B1C0"/><path d="M25.79 31.9c.07.78.21 1.5.43 2.14-.15.3-.15.66 0 1.08a.08.08 0 0 1-.04.1h-.04c-.3 0-.56.06-.8.22a.18.18 0 0 0-.09.11c-.02.1 0 .2.07.28l.27.32c.04.05.03.07-.03.08l-.61.03c-.21 0-.22-.04-.03-.13.15-.07.19-.2.11-.35l-.45-.11c.14.03.22 0 .23-.08.24-1.19.33-2.48.27-3.88.09-.08.15-.23.18-.43 0-.05.04-.07.09-.05a.1.1 0 0 1 .06.08c.02.24.1.47.24.67a.06.06 0 0 0 .12-.02l.02-.07Z" fill="#0E7EBE"/><path d="m32.07 31.31.31.56c.26.46.46.6.96.46.1-.04.14-.1.14-.2l-.05-.72a.06.06 0 0 1 .03-.06h.04l.02.02.05.03c.2.45.59 1.29 1.2.79l-.18 1.03-.32-.06a.19.19 0 0 0-.16.04.2.2 0 0 0-.07.14c-.03.5-.24.69-.73.91-.3.14-.56.31-.77.52-.1-.54-.22-1.1-.38-1.67-.08-.3-.12-.58-.11-.84 0-.31-.01-.62-.07-.93 0-.04 0-.06.05-.04l.04.02Z" fill="#37ADD9"/><path d="M31.1 34.01c.1-.34.17-1.13.22-2.36 0-.09.05-.14.13-.16l.07-.02c.06-.01.09.01.08.07-.02 1.02-.08 2.1-.18 3.24-.03.36-.16.64-.36.9a.18.18 0 0 1-.17.07c-.06-.01-.1-.05-.13-.12a.31.31 0 0 1 0-.16c.1-.51.2-1 .34-1.46Z" fill="#154E78"/><path d="m24.32 31.65.39.19a.1.1 0 0 1 .06.1l-.04.88c0 .04-.02.08-.05.11a.87.87 0 0 1-.2.13.11.11 0 0 0-.07.11l.17 2.5.45.11a4.5 4.5 0 0 1-1.6.62l-.9.04c-.92.02-1.43.57-1.52 1.64l-.5-.21c-.1-.22-.1-.4.02-.52.38-.38.93-.77 1.64-1.15l.25-.2c.53-.01.92-.29 1.15-.8.21-.48.32-.91.33-1.3.01-.33-.05-.34-.18-.04-.24.57-.55 1.15-.94 1.74 0-.09 0-.16.04-.22.66-1.16 1.16-2.4 1.5-3.73Z" fill="#1098C1"/><path d="M29.07 34.87a1.4 1.4 0 0 1-.13.46l-.32.55c-.28.51-.55.84-1.15.56a.33.33 0 0 1-.16-.1l-.34-.36a8.28 8.28 0 0 0 .26-2.68.15.15 0 0 1 .14-.1h1.27a.1.1 0 0 0 .1-.07l.32-.95a.12.12 0 0 1 .11-.08h.12a.02.02 0 0 1 0 .03l-.15.71a.37.37 0 0 1-.05.14c-.1.14-.1.23.01.39.06.08.08.16.06.22-.1.42-.13.85-.09 1.28Z" fill="#154E78"/><path d="M34.59 33.22c.6-.06 1.03-.04 1.31.06.81.3 1.55.64 2.22 1.02a5.4 5.4 0 0 1 1.5 1.35l-.8.78c-.16.01-.25-.02-.27-.1-.24-.75-.64-1.5-1.41-1.68-.62-.15-1.24-.29-1.88-.42a.32.32 0 0 0-.36.15l-1.19 1.73a.69.69 0 0 0-.06.28c-.07 0-.13 0-.18.02a2.04 2.04 0 0 1-.93-1.64c.21-.21.47-.38.77-.52.49-.22.7-.41.73-.91a.2.2 0 0 1 .15-.18h.08l.32.06Z" fill="#73B1C0"/><path d="M15.4 34.24c.08.45.4.92.98 1.4.15.2.37.38.65.58 1.07.75 2.23 1.3 3.48 1.65l.5.2.38.2 3.05.9c.8.19 1.6.25 2.4.18h1.28c1.02.13 1.95.03 2.8-.3 1.03-.17 2.1-.44 3.18-.8.18 0 .36-.03.52-.1l2.68-.87a4.7 4.7 0 0 0 1.52-.85l.8-.78 1.18-1.59a.11.11 0 0 1 .12-.04.11.11 0 0 1 .08.08l.01.07c-.47.86-1.02 1.68-1.65 2.45-.61.09-1.1.48-1.8.92-.37.24-.99.48-1.86.7-.88.18-1.83.5-2.6.68-1.58.36-2.94.71-4.39.76-1.56.06-3.3.08-4.89-.4-.62-.2-1.24-.37-1.86-.53-1.02-.27-2.3-.74-3.87-1.42l-1.97-1.34-.73-.98c-.15-.19-.2-.38-.32-.59l-.02-.05a3.22 3.22 0 0 1-.28-.66c-.02-.07 0-.12.05-.13h.08c.03.02.04.05.05.07.07.22.22.41.46.6Z" fill="#D1F0F7"/><path d="M41.25 33.59c-.1 1.03-.74 2.02-1.36 3-.1.14-.15.25-.17.33-.05.2.01.25.2.17l.3-.12c.17-.08.22-.03.14.15a2.42 2.42 0 0 1-.94 1.02.12.12 0 0 1-.14-.1l-.1-.4a.08.08 0 0 0-.04-.06.08.08 0 0 0-.08.02l-.37.34.67-1.32c.63-.77 1.18-1.59 1.65-2.45l.24-.58Z" fill="#4C7A94"/><path d="m22.42 36 .36-.4c.39-.6.7-1.17.94-1.74.13-.3.2-.3.18.04 0 .39-.12.82-.33 1.3-.23.51-.62.79-1.15.8Z" fill="#0E7EBE"/><path d="m26.22 34.03.75 1.95.34.35-1.88-.62c-.05-.02-.08 0-.1.05-.01.02-.02.05-.01.07a.37.37 0 0 1-.07-.28.18.18 0 0 1 .08-.11c.25-.16.52-.23.81-.21a.08.08 0 0 0 .07-.04.08.08 0 0 0 .01-.07c-.15-.42-.15-.78 0-1.09Z" fill="#37ADD9"/><path d="M38.82 36.43a4.7 4.7 0 0 1-1.52.85c-.89.3-1.78.58-2.68.86l-.03-.67c0-.04-.02-.09-.05-.13-.13-.2-.22-.4-.27-.64a.14.14 0 0 0-.1-.11l-.52-.2a.69.69 0 0 1 .06-.28l1.2-1.73c.08-.13.2-.18.35-.15.64.13 1.26.27 1.88.42.77.18 1.17.93 1.4 1.68.03.08.12.11.28.1Z" fill="#A0C7DF"/><path d="M16.12 35.99c.5.93 1.1 1.8 1.76 2.61l1.32 1.43-.74-.64a.17.17 0 0 0-.13-.05l-1.48.1a16.13 16.13 0 0 1-2.97-3.97c.24-.16.56-.15.98.02h.06c.05-.03.05-.08 0-.16h-.01l-.6-.32-.02-.04.01-.04h.03l.69-.05c.05 0 .08-.03.08-.1l-.03-.36c.13.21.17.4.32.6.27.33.51.66.73.97Z" fill="#3D6888"/><path d="M33.47 36.41a.45.45 0 0 1 .18-.02l.52.2c.05.02.08.05.1.1.05.24.14.46.27.65.03.04.04.09.05.13l.03.67c-.16.08-.34.12-.52.12l.12-.78c.06-.32-.06-.53-.38-.57-.42-.18-.89-.01-1.25 0-.62.01-1.56-.54-2.1-.82a.23.23 0 0 1-.1-.11c-.04-.09-.12-.11-.22-.07a13.3 13.3 0 0 0-1.33.67.05.05 0 0 0 0 .06l.02.02.07.03c.05.03.1.02.14 0 .32-.23.67-.38 1.04-.46.05 0 .1 0 .15.02l1.72.83.01.01a.04.04 0 0 1-.01.06c-.49.26-.98.32-1.48.16-.69-.21-1.1-.36-1.23-.43a.28.28 0 0 0-.24-.02.29.29 0 0 0-.11.06.07.07 0 0 0-.02.06.07.07 0 0 0 .04.05c.56.2 1.03.5 1.4.93-.32 0-.54-.04-.64-.13-.4-.3-.96-.82-1.48-.75-.27.03-.64-.16-.92-.24l-1.3-.4h-.05l-.26.13c-.05.02-.04.03 0 .04l1.54.33.2.11a.05.05 0 0 1 .02.05.04.04 0 0 1-.03.03l-1.21.39c-.05 0-.13.07-.26.18-.12.09-.22.1-.32.05-.03-.02-.04-.05-.03-.09l.03-.06c.02-.04 0-.07-.04-.08-.3-.06-.51.03-.65.28a.1.1 0 0 1-.11.06c-.24-.02-.47-.23-.76-.3-.43-.12-.83-.24-1.19-.36-.4-.13-.6-.5-1.09-.14-.37.27-.5.67-.4 1.2l-.38-.18c.1-1.07.6-1.62 1.53-1.64l.9-.04c.56-.1 1.1-.3 1.59-.62.08.16.04.28-.11.35-.2.1-.18.14.03.13l.6-.03c.07 0 .08-.03.04-.08l-.27-.32v-.07c.03-.05.06-.07.11-.05l1.88.62c.04.05.09.08.16.1.5.66 1-.17 1.53-.36l1.2-.45a.23.23 0 0 1 .24.03c.87.73 1.88.98 3.03.76Z" fill="#72D1F2"/><path d="M33.84 36.9c-.4.44-.85.71-1.35.82-.53.1-1.24.19-2.14.24A3.29 3.29 0 0 0 28.9 37a.06.06 0 0 1-.01-.06s0-.02.02-.03a.29.29 0 0 1 .1-.06.28.28 0 0 1 .25.02c.13.07.54.22 1.23.43a1.82 1.82 0 0 0 1.5-.18.04.04 0 0 0 0-.04l-.02-.01-1.72-.83a.22.22 0 0 0-.14-.02c-.38.08-.73.23-1.05.45a.13.13 0 0 1-.14.01l-.07-.03a.05.05 0 0 1 0-.1c.54-.3.97-.51 1.3-.65.11-.04.19-.02.23.07.02.05.05.08.1.1.54.29 1.49.84 2.1.83.36-.01.83-.18 1.25 0Z" fill="#37ADD9"/><path d="M18.09 37.33c.22.65.97 1.13 1.57 1.59a9.64 9.64 0 0 0 5.4 1.66c1 .03 2.26-.1 3.38 0 .85.06 1.33.1 1.45.09 1.48-.02 2.92-.34 4.34-.95.72-.3 1.43-.67 1.47-1.48.87-.22 1.5-.46 1.87-.7.69-.44 1.18-.83 1.8-.92l-.68 1.32-.68.72a.22.22 0 0 0-.06.12 7.45 7.45 0 0 0-.88.97 8.05 8.05 0 0 1-1.73 1.42l-.53.2c.54-.49 1.2-1.18 1.98-2.08.2-.23.28-.47.2-.7-.01-.06-.05-.08-.1-.07-.75.14-1.28.86-1.95 1.22-1.21.66-2.74 1.33-4.1 1.36a7.5 7.5 0 0 1-1.48-.07 6.2 6.2 0 0 0-1.86-.19l-1 .17c-1.92.33-4.12-.21-5.87-1.02a4.7 4.7 0 0 1-1.27-.74c-.31-.34-1-1.18-1.52-1.14-.06 0-.1.04-.09.1.01.1.05.24.13.4a16.8 16.8 0 0 1-1.76-2.62l1.97 1.34Z" fill="#BFCDD2"/><path d="M30.35 37.96c.9-.05 1.61-.13 2.14-.24.5-.1.95-.38 1.35-.81.32.04.44.25.38.57l-.12.78c-1.09.35-2.15.62-3.18.8h-2.41a.23.23 0 0 1-.12-.04c-.18-.1-.32-.25-.43-.43a.23.23 0 0 0-.3-.08c-.44.24-.78.54-1.2.64a3 3 0 0 1-1.6-.04c-.08-.03-.22 0-.42.07l-3.05-.92c-.1-.53.03-.93.4-1.2.48-.35.68.01 1.1.14.35.12.75.24 1.18.36.29.07.52.28.76.3a.1.1 0 0 0 .1-.06c.15-.25.37-.34.66-.28.05.01.06.04.04.08l-.03.06c-.01.04 0 .07.03.09.1.05.2.04.32-.05.13-.11.21-.17.26-.18a26.32 26.32 0 0 0 1.23-.4.04.04 0 0 0 0-.05v-.02l-.2-.1a.33.33 0 0 1 .06-.11c.28.08.65.27.92.24.52-.07 1.08.44 1.48.76.1.08.32.12.65.12Z" fill="#148DC1"/><path d="M28.3 37.44a.2.2 0 0 0-.06-.07c-.1-.05-.13-.1-.1-.15.01-.04.05-.06.1-.05.31.03.73.44 1.16.8.2.18.34.4.39.67 0 .05-.01.08-.06.1-.5.15-.57-.31-.93-.46a1.8 1.8 0 0 1-.66-.41.16.16 0 0 0-.13-.05c-.1 0-.15.05-.16.13 0 .05-.02.08-.08.08-.36.03-.7.37-.97.54-.05.03-.09.02-.12-.03-.1-.14-.22-.28-.39-.39-.04-.03-.05-.07-.01-.1.16-.21.48-.41.95-.6.4-.17.75-.16 1.05.01a.02.02 0 0 0 .02-.02Z" fill="#37ADD9"/><path d="M35.7 38.24c-.04.8-.75 1.17-1.47 1.48-1.42.61-2.86.93-4.34.95-.12 0-.6-.03-1.45-.1-1.12-.08-2.38.04-3.38 0a9.64 9.64 0 0 1-5.4-1.65c-.6-.46-1.35-.94-1.57-1.6 1.56.69 2.85 1.16 3.87 1.43.62.16 1.24.34 1.86.52 1.6.49 3.33.47 4.9.41 1.44-.05 2.8-.4 4.38-.76.77-.17 1.72-.5 2.6-.68Z" fill="#A3C6CE"/><path d="M34.8 41.38c-.8.57-1.42 1.04-2.27 1.14a9.15 9.15 0 0 0-2.02.42c-1.16.2-2.3.27-3.4.2-.46-.12-.92-.21-1.39-.27-.6-.08-1.06-.17-1.38-.26-.6-.16-1.13-.33-1.6-.49-.62-.2-1.25-.48-1.92-.82a5.03 5.03 0 0 1-1.62-1.27l-1.32-1.43a1.1 1.1 0 0 1-.13-.4c0-.05.03-.09.09-.1.52-.03 1.2.8 1.52 1.15.15.17.57.42 1.27.74 1.76.8 3.95 1.35 5.86 1.02l1-.17c.36-.05.98 0 1.87.19.32.06.82.09 1.48.07 1.36-.03 2.89-.7 4.1-1.36.67-.36 1.2-1.08 1.95-1.22.05-.01.09 0 .1.06.08.24 0 .48-.2.71-.78.9-1.44 1.6-1.98 2.09Z" fill="#DADDE3"/><path d="M30.92 39.05c-.85.33-1.79.43-2.8.3 0-.47-.29-.6-.89-.39a.78.78 0 0 0-.4.39c-.8.07-1.6 0-2.39-.17.2-.07.34-.1.42-.07a3 3 0 0 0 1.6.04c.42-.1.76-.4 1.2-.64a.23.23 0 0 1 .3.08c.1.18.25.32.43.43.03.03.07.04.12.04h2.41Z" fill="#37ADD9"/><path d="M28.12 39.35h-1.29c.11-.2.25-.33.4-.39.6-.2.9-.08.9.4Z" fill="#154E78"/><path d="m35.34 41.17-.25.2a.08.08 0 0 0-.03.08.08.08 0 0 0 .07.06l1.23.12a15.96 15.96 0 0 1-5.42 2.1l-.13-.02c-.06 0-.09-.03-.08-.1 0-.07.06-.12.15-.14.22-.05.54-.1.97-.15.03 0 .07-.02.1-.04a.3.3 0 0 0 .07-.1c.02-.04.02-.09 0-.14a.12.12 0 0 0-.12-.08l-1.4-.02 1.05-.27c.16-.04.49-.1.98-.15.85-.1 1.46-.57 2.28-1.14l.53-.21Z" fill="#A3C6CE"/><path d="M27.1 43.15c-.6.06-1.1.03-1.47-.09A4.9 4.9 0 0 0 24 42.8c-.47.02-.87.13-1.18.34a15.9 15.9 0 0 1-3.32-1.6c.47-.04.9-.08 1.3-.1.01 0 .02-.05.02-.13.67.34 1.3.62 1.92.82.47.16 1 .33 1.6.5.32.08.78.17 1.38.25.47.06.93.15 1.39.28Z" fill="#BFCDD2"/><path d="M27.1 43.15c1.11.06 2.25-.01 3.4-.2l1.4.01a.13.13 0 0 1 .11.08c.03.05.03.1.01.13a.3.3 0 0 1-.07.1.19.19 0 0 1-.1.05c-.43.05-.75.1-.97.15-.09.02-.14.07-.15.15 0 .06.02.09.08.1h.13c-2.71.52-5.51.31-8.12-.59.31-.2.71-.32 1.18-.34.44-.02.98.07 1.63.27.37.12.86.15 1.48.09Z" fill="#ACA697"/></svg>