<!-- by TradingView --><svg width="56" height="56" viewBox="0 0 56 56" xmlns="http://www.w3.org/2000/svg"><path fill="url(#a)" d="M0 0h56v56H0z"/><path d="m29.35 11.38-.26.3-.72-.32c-.18-.25-.42-.26-.72-.03-.39.16-.93.35-.8.92l-.09.8-.54.17a.24.24 0 0 0-.17.16l-.16.47a.24.24 0 0 1-.07.1.23.23 0 0 1-.1.05c-.6.14-.53 1.03-.48 1.49.08.7.5 1.06 1.26 1.07.06 0 .12.03.17.07.04.05.07.11.07.18.02.47.08.92.18 1.36.05.2-.02.27-.2.18a5.86 5.86 0 0 1-.42-.2.78.78 0 0 1-.35-.42c-.1-.26-.32-.42-.63-.47-.08-.02-.13-.06-.15-.15l-.03-.16a.29.29 0 0 0-.15-.2c-.8-.4-1.28-.22-1.43.53-.36.1-.55.08-.58-.07a1.94 1.94 0 0 1-.04-.54c.01-.25 0-.43-.04-.53a.88.88 0 0 0-.6-.57c-.1-.23-.14-.48-.1-.74l.02-1.28c0-.26-.13-.39-.38-.38l-1.59.07a.28.28 0 0 0-.19.08.3.3 0 0 0-.08.2c-.01.3-.17.47-.46.5a.4.4 0 0 0-.26.13.42.42 0 0 0-.1.28v.35a.2.2 0 0 1-.06.14.2.2 0 0 1-.13.07l-.42.04a.14.14 0 0 0-.1.05.15.15 0 0 0-.03.1l-.07 2.3-.04 2.1a.16.16 0 0 0 .05.13.15.15 0 0 0 .13.03c.1-.02.2-.06.28-.14a.15.15 0 0 1 .2 0c.1.07.16.22.18.42l-.96.72c-.54.3-.9.84-1.07 1.59-.1.45-.5.97-.54 1.53-.02.22-.03.45-.02.67.04 1.94.04 3.85 0 5.73 0 .08.02.16.06.24.33.58.65 1.2.94 1.83.15.32.45.43.63.74.13.21.3.4.5.55.36.26.69.56 1 .89.26.29.6.56 1.03.8l1.51.9c.53.32.9.43 1.48.4.73-.02 1.47-.03 2.22-.03a.9.9 0 0 1 .7.15c.05.04.08.1.08.18 0 .11.02.22.06.32.04.09.1.14.18.15.67.1 1.33.12 1.98.03a.3.3 0 0 0 .13-.06.31.31 0 0 0 .1-.11c.16-.34.46-.56.89-.67 1 .06 2.77.22 3.53-.29.47-.31.99-.63 1.55-.95.81-.46 1.37-1.14 2.07-1.73.3-.26.44-.62.76-.88.2-.16.37-.36.48-.59.36-.76.88-1.6.89-2.44l.01-5.59c0-.2-.03-.4-.1-.6l-.71-1.8a1.51 1.51 0 0 0-.46-.61l-.45-.32c-.25-.25-.52-.5-.8-.73a.61.61 0 0 1 0-.52c.03-.09.08-.1.14-.03.1.1.24.15.4.14.08 0 .12-.05.13-.12l.04-.32c.08-.3.1-.56.05-.79v-1.28c.1-.63.06-1.25-.1-1.87a.21.21 0 0 0-.14-.16c-.13-.05-.28-.03-.4-.1-.13-.07-.18-.14-.16-.23l-.06-.54c-.01-.1-.06-.15-.14-.16l-.43-.1c-.13-.02-.19-.1-.19-.23 0-.27-.07-.43-.22-.48.22-.05.32-.28.3-.7-.02.21 0 .4.07.55.03.08.09.12.17.12l1.08-.01c.06 0 .1.02.14.06a.2.2 0 0 1 .06.14l.04 1.4c0 .05.03.1.06.13s.08.05.13.06l.53.02c.04 0 .08.02.11.05.03.04.05.08.04.12-.07 1.74.14 3.5.16 4.75 0 .31-.05.64.24.85.57.4.75 1.14.9 1.81.12.5.73.69 1.01.22.22-.36.4-.71.56-1.05.03-.08.1-.13.18-.15.41-.08.8-.07 1.15.04a.3.3 0 0 1 .2.18c.13.35.39.51.78.5a.23.23 0 0 1 .17.06.24.24 0 0 1 .08.17l.05 2.68a.4.4 0 0 1-.09.26.38.38 0 0 1-.23.13l-.43.07a.21.21 0 0 0-.18.15 2.6 2.6 0 0 0-.12 1.17c.01.09.06.14.15.14l.5.02c.26 0 .4.14.43.4.07.64-.04 1.23-.33 1.8-.2.37-.72.29-.81.72a.18.18 0 0 1-.13.14l-.39.12-.81.1a.24.24 0 0 0-.19.12c-.27.47-.56.45-1.04.5-.66.08-.74.34-.24.78.15.13.27.28.37.46.04.08.11.15.2.2.27.14.5.3.68.5.13.17.17.24.11.23l.77 1.37c.04.06.08.12.14.16.25.16.4.41.44.75.16 1.25.18 2.43.05 3.53-.03.2-.14.3-.33.32-.7.03-1.2-.22-1.53-.77-.25-.4-.49-.79-1.06-.66-.55.12-1.16.87-1.63 1.27a.37.37 0 0 1-.5 0c-.2-.2-.36-.37-.63-.49-.91-.44-1.34-.83-2.57-.82l-.2-.55c-.04-.1-.1-.13-.2-.09l-.32.13c-.09.04-.12.1-.1.2.04.3.24.5.6.62l.9 1.6c.04.07.1.14.18.18.81.47 1 1.13 1.18 1.99a.3.3 0 0 0 .16.2c.35.18.51.1.8.47-.49.31-1.06.4-1.73.26.05-.36 0-.77-.14-1.25a3.97 3.97 0 0 0-1.27-1.77.33.33 0 0 1-.12-.2c-.05-.26-.07-.46-.24-.69-.28-.4-.73-.87-.93-1.32-.17-.4-.8-.2-1.14-.19-.45.03-.81-.15-1.28-.06-.5-.1-1.27-.16-1.46.47a.33.33 0 0 1-.29.25 5.9 5.9 0 0 1-1.84-.02c-.22-.04-.34-.18-.35-.42 0-.1-.05-.16-.14-.18-.44-.11-.89-.14-1.36-.1l-2.08.02a.35.35 0 0 0-.2.07.52.52 0 0 0-.2.3.47.47 0 0 1-.12.22c-.31.33-.6.66-.88 1-.16.22-.17.44-.25.69-.05.13-.14.27-.3.42-.48.45-.85.96-1.1 1.53.1.67.1 1.1-.04 1.32l-1.83-.28c.32-.44.57-.37.93-.62a.3.3 0 0 0 .13-.19c.15-.72.34-1.41 1-1.8.36-.23.5-.6.63-.98l.04-.07.59-.73.45-.35a.5.5 0 0 0 .2-.41c-.01-.17-.08-.27-.2-.3-.29-.05-.46.21-.47.47 0 .08-.05.14-.14.15l-.18.03c-.52 0-1 .1-1.45.3-.68.3-1.3.66-1.86 1.07a.22.22 0 0 1-.28-.02c-.34-.3-.67-.65-1-1.04-.48-.57-1.13-.23-1.5.27-.52.69-1.15.95-1.89.78a.23.23 0 0 1-.13-.07.25.25 0 0 1-.06-.14c-.1-1.16-.1-2.4.01-3.75.59-.5.85-1.01.77-1.56.1-.5.58-.26.76-.7.15-.23.37-.4.63-.5a.35.35 0 0 0 .18-.15c.13-.23.28-.4.43-.53.61-.52.53-.8-.25-.83-.36-.02-.69.02-.93-.34-.2-.32-.63-.4-.97-.37l-.48-.13a.26.26 0 0 1-.16-.13.84.84 0 0 0-.6-.47.2.2 0 0 1-.13-.1c-.32-.7-.4-1.4-.26-2.12a.2.2 0 0 1 .07-.1.18.18 0 0 1 .11-.05c.21 0 .4-.05.6-.14a.26.26 0 0 0 .09-.07.28.28 0 0 0 .05-.12 1.7 1.7 0 0 0-.12-1.05.43.43 0 0 0-.46-.25c-.22.04-.33-.05-.35-.25-.05-.88-.04-1.8.04-2.75 0-.07.03-.14.09-.2a.26.26 0 0 1 .2-.06c.4.03.6-.17.62-.58 0-.13.06-.19.18-.19h1.12c.1 0 .17.05.22.13l.68 1.13c.06.1.14.15.24.16l.44.06c.12.02.2-.03.23-.16.21-.78.35-1.66 1.05-2.13.06-.05.1-.1.1-.18.07-.51.1-1.02.11-1.52l.08-3.93c0-.08.04-.12.11-.12l.61-.05c.04 0 .07-.02.1-.05a.15.15 0 0 0 .04-.1v-1.37c0-.16.08-.24.24-.24l1.13-.03c.06 0 .11-.02.16-.06.04-.05.07-.1.07-.17l.01-.52a.2.2 0 0 1 .18-.2 7.16 7.16 0 0 1 1.97.05c.05 0 .1.03.13.06s.06.08.07.12l.14.47a.22.22 0 0 0 .16.16c.3.06.44.26.46.6l.07 1.64c.02.22.13.33.34.34l.47.02c.08 0 .16-.03.22-.08.06-.06.1-.13.1-.21l.14-1.12a.43.43 0 0 1 .1-.24.4.4 0 0 1 .23-.13c.46-.09.4-.89.55-1.26a.24.24 0 0 1 .16-.15l.24-.07a.23.23 0 0 0 .17-.18l.17-.61a.22.22 0 0 1 .15-.15l.3-.1a.3.3 0 0 0 .18-.15l.18-.35c.05-.1.12-.16.22-.2.19-.08.32-.2.4-.37a.59.59 0 0 1 .78-.29c.1.05.18.11.24.2.15.2.34.34.56.43.09.03.14.1.17.19l.17.51Z" fill="#090515"/><path d="m28.38 11.36-.08 5.57-.1.43a.25.25 0 0 1-.06.12.24.24 0 0 1-.25.06.24.24 0 0 1-.11-.07.45.45 0 0 1-.09-.3c.01-.68 0-1.36-.06-2.04V11.4c0 .01.02 0 .02-.06.3-.23.54-.22.73.03Z" fill="#E8FA55"/><path d="M27.62 11.39c.02.01.03 0 .03-.06l-.03.02c-.4.15-.9.35-.78.9l-.08.8c-.04.82-.03 1.65.01 2.48.01.15.05.26.13.32.14.12.29.1.44-.04.05-.04.1-.05.15-.01h.06a.1.1 0 0 0 .04-.08l.04-.59V11.4ZM29.09 11.67l.2 1.44.05 1.18-.2 1.46c-.23.15-.45.2-.65.14-.08-.02-.12.01-.12.09l-.07.95.07-5.57.72.31Z" fill="#15C73C"/><path d="M36.03 12.56c.03.41-.07.64-.29.7l-.35-.03h-1.38c-.18-.02-.28.03-.29.13-.06.42-.05.94.03 1.56.02.1.03.21.01.32 0 .08-.04.14-.1.19-.45.4-.79.5-.66 1.26l-.04.59c-.16.06-.35.08-.56.04-.01-.19-.04-.35-.1-.48-.2-.39-.97-.29-1.3-.2a.22.22 0 0 0-.16.14c-.1.28-.3.47-.58.58-.5.19-.34.85-.96.85-.1 0-.16-.05-.15-.17l.1-1.27c0-.06.03-.1.06-.14a.2.2 0 0 1 .14-.06l1.04-.07a.21.21 0 0 0 .2-.21l.06-2.12c0-.09-.04-.14-.13-.14l-.4-.04c-.05 0-.09-.04-.12-.1-.08-.16 0-.29-.1-.47 0-.17-.1-.25-.27-.25a.95.95 0 0 1-.44-.06l-.2-1.43.26-.3.54.1c.1.03.15.09.16.2l.03.46c.01.1.06.2.13.27.08.06.18.1.28.09.22-.02.33.09.34.31l.02.95c0 .2.1.26.27.2.3-.1.47 0 .5.32.04.37.06.75.06 1.12 0 .24.12.36.35.35l.4-.03c.26-.01.39-.15.4-.41l.06-1.9c0-.08.04-.13.12-.16.1-.04.19-.05.3-.03.07.01.14 0 .2-.06.13-.11.18-.27.14-.48a.42.42 0 0 1 .09-.34.4.4 0 0 1 .3-.13l1.86.02c.12 0 .17.11.13.33Z" fill="#050118"/><path d="M26.76 13.05c-.04.82-.03 1.65.01 2.48.01.15.05.26.13.32.14.12.29.1.44-.04.05-.04.1-.05.15-.01h.06a.1.1 0 0 0 .04-.08l.04-.59c.05.68.07 1.36.06 2.04 0 .12.03.22.09.3l.1.07a.24.24 0 0 0 .26-.06.25.25 0 0 0 .06-.12l.1-.43.07-.95c0-.08.04-.1.12-.09.2.05.42 0 .65-.14.1.17.28.13.56-.13a.4.4 0 0 0 .1-.18l.42-1.45.4.04c.09 0 .13.05.13.14l-.06 2.12a.22.22 0 0 1-.2.2l-1.04.08a.2.2 0 0 0-.14.06.22.22 0 0 0-.06.14l-.1 1.27c0 .12.04.17.15.17.62 0 .45-.66.96-.85.28-.1.47-.3.58-.58a.22.22 0 0 1 .16-.15c.33-.08 1.1-.18 1.3.21.06.13.1.3.1.48l-1.21.08a.36.36 0 0 0-.22.09c-.23.2-.48.4-.75.56-.23.15-.28.46-.54.63-.52.36-1.01.72-1.47 1.1a.37.37 0 0 1-.49-.01c-.44-.4-.94-.77-1.48-1.08a.7.7 0 0 1-.3-.48.23.23 0 0 0-.14-.18c-.28-.12-.5-.3-.7-.54a.24.24 0 0 0-.16-.1l-1.38-.11c.15-.75.63-.92 1.43-.53a.28.28 0 0 1 .15.2l.04.16c.01.09.06.13.14.15.32.05.52.2.63.47.07.18.19.32.35.42l.41.2c.2.09.26.03.21-.18-.1-.44-.16-.9-.18-1.36a.26.26 0 0 0-.07-.18.25.25 0 0 0-.17-.07c-.76-.01-1.18-.37-1.26-1.07-.05-.46-.13-1.35.48-1.49.03 0 .07-.02.1-.05a.24.24 0 0 0 .07-.1l.16-.47a.24.24 0 0 1 .17-.16l.54-.17Z" fill="#068B57"/><path d="M30 13.42a1 1 0 0 1-.1.55c-.04.07-.1.1-.17.1-.17 0-.3.07-.4.22l-.04-1.18c.08.05.23.07.44.06.18 0 .27.08.28.25Z" fill="#198899"/><path d="M22.2 14.83c-.08.11-.21.19-.37.24-.2.05-.3.17-.27.36.01.07.06.12.13.13.25.04.45.05.61.01.3.1.5.29.6.57.04.1.05.28.04.53-.01.2 0 .38.04.54-.37-.04-.82.04-1.36.25-.2-.05-.36-.02-.47.08a4.22 4.22 0 0 1-1.98 1.05.15.15 0 0 1-.1-.08.16.16 0 0 1-.02-.06c-.04-.76.61-1.27 1.24-1.58h.01a.03.03 0 0 0 0-.04.72.72 0 0 0-.48-.09.7.7 0 0 0-.34.15 7.6 7.6 0 0 0-.5.42.65.65 0 0 1-.28.16c-.19.04-.3.04-.35 0l.07-2.3c0-.03.01-.07.04-.1a.14.14 0 0 1 .09-.04l.42-.04a.2.2 0 0 0 .13-.07.2.2 0 0 0 .05-.14v-.35c0-.1.04-.2.1-.28a.4.4 0 0 1 .27-.13c.3-.03.45-.2.46-.5a.3.3 0 0 1 .08-.2.28.28 0 0 1 .19-.08l1.59-.07c.25-.01.38.12.38.38l-.01 1.28Z" fill="#F8D68C"/><path d="M35.39 13.23a.56.56 0 0 0-.3.01c-.12.05-.12.09 0 .13.03 0 .06.03.07.06a.5.5 0 0 1 .05.2c0 .4-.02.77-.05 1.12-.02.23-.14.32-.35.28a.24.24 0 0 1-.13-.06.25.25 0 0 1-.07-.12c-.1-.43-.27-.85-.5-1.25a.21.21 0 0 1-.02-.11c0-.06.03-.12.07-.16.04-.05.03-.08-.02-.1a.33.33 0 0 0-.13 0h1.38Z" fill="#FCFCED"/><path d="M34.01 13.23h.13c.06.02.06.05.02.1a.26.26 0 0 0-.07.16c0 .04.01.08.03.11.22.4.39.82.5 1.25 0 .05.03.09.06.12.04.03.08.06.13.06.21.04.33-.05.35-.28.03-.35.05-.72.05-1.12a.5.5 0 0 0-.05-.2.12.12 0 0 0-.07-.06c-.11-.04-.11-.08 0-.13a.56.56 0 0 1 .3-.01l.35.02c.15.05.23.2.22.48 0 .13.06.2.19.23l.43.1c.08.01.13.07.14.16l.06.54-.74.38a.2.2 0 0 0-.12.17c0 .07.02.12.06.17.05.05.11.07.18.06l.6-.06c.08 0 .12.04.1.12l-.17 1.53c-.24-.26-.51-.4-.8-.44-.15-.01-.21.05-.2.2v.08c0 .15.09.25.23.29.31.08.6.25.86.53.05.38 0 .7-.15.96-.4-.3-.73-.5-1-.59-.19-.06-.35-.15-.47-.26l-.39-.34a1.21 1.21 0 0 0-.86-.11l-.95-.17.04-.59c.43-.04.66-.23.67-.57.01-.38.14-.58.38-.6.5-.02.56-.2.16-.5a2.37 2.37 0 0 0-.46-.1 6.02 6.02 0 0 1-.03-1.56c.02-.1.11-.15.3-.13Z" fill="#F8D68C"/><path d="m30.21 13.99-.4 1.45a.4.4 0 0 1-.11.18c-.28.26-.46.3-.56.13l.2-1.46a.42.42 0 0 1 .4-.22c.07 0 .12-.03.16-.1a1 1 0 0 0 .1-.55c.1.18.02.3.1.47.03.06.07.1.11.1Z" fill="#032F27"/><path d="M36.78 14.76c-.02.09.03.16.15.23.13.07.28.05.41.1.08.03.12.08.14.16a4.67 4.67 0 0 1 .03 2.18c-.03.07-.09.1-.16.07-.25-.08-.47-.2-.66-.38l.18-1.52c0-.08-.03-.12-.11-.12l-.6.06a.22.22 0 0 1-.18-.06.2.2 0 0 1-.06-.17.2.2 0 0 1 .12-.17l.74-.38Z" fill="#76B3DF"/><path d="M22.2 14.83c-.04.26 0 .5.1.74-.16.04-.36.03-.6 0-.08-.02-.13-.07-.14-.14-.02-.19.07-.3.27-.36a.76.76 0 0 0 .38-.24Z" fill="#954B67"/><path d="M33 16.7c-.13-.76.21-.86.67-1.27.05-.05.08-.11.1-.19a.88.88 0 0 0-.02-.32c.28.04.43.07.46.1.4.3.35.47-.15.5-.25.02-.38.22-.39.6-.01.34-.24.53-.67.57Z" fill="#94689F"/><path d="M34.57 15.91c.06.27.28.44.48.39.21-.05.33-.31.26-.57-.06-.27-.28-.44-.48-.39-.2.05-.32.31-.26.57ZM21.27 16.17c.2-.13.3-.38.2-.55-.1-.17-.36-.21-.57-.08-.2.13-.3.37-.2.55.1.17.36.2.57.08Z" fill="#FCFCED"/><path d="M36.7 17.13c.18.17.4.3.65.37.07.03.13 0 .16-.07a.7.7 0 0 0 .08-.31v1.28c.02-.32-.07-.5-.28-.53a5.42 5.42 0 0 1-.53-.08 1.8 1.8 0 0 0-.86-.53c-.14-.04-.22-.14-.23-.3v-.07c-.01-.15.05-.21.2-.2.29.03.56.18.8.44Z" fill="#954B67"/><path d="M21.62 17.46c.32-.13.51-.03.56.3.01.04 0 .1-.03.14a.19.19 0 0 1-.12.08c-.12.02-.2.11-.2.26-.15.09-.27.21-.37.37-.04.07-.1.1-.16.13-.6.2-1.11.24-1.48.83-.07.13-.3.28-.67.45-.02-.2-.08-.35-.18-.43a.15.15 0 0 0-.2.01.54.54 0 0 1-.28.14.15.15 0 0 1-.12-.03.15.15 0 0 1-.06-.12l.04-2.11c.05.03.17.03.35-.01.1-.03.2-.08.29-.16.17-.16.33-.3.5-.42a.7.7 0 0 1 .33-.15.72.72 0 0 1 .48.1.02.02 0 0 1 0 .03c-.64.31-1.3.82-1.25 1.58a.15.15 0 0 0 .06.11.15.15 0 0 0 .12.03 4.22 4.22 0 0 0 1.92-1.05c.1-.1.27-.13.47-.08Z" fill="#068B57"/><path d="M22.98 17.21c.03.15.22.17.58.07l1.38.11a.24.24 0 0 1 .17.1c.18.23.41.42.69.54.07.04.12.1.13.18a.7.7 0 0 0 .3.48c.55.31 1.04.67 1.5 1.08a.37.37 0 0 0 .47.01c.47-.38.96-.74 1.48-1.1.25-.17.31-.48.54-.63.26-.17.51-.35.75-.56a.36.36 0 0 1 .22-.1l1.2-.07c.22.04.41.02.57-.04l.95.17c-.15.17-.16.34-.06.53.04.07.09.1.16.12.18.06.3.18.37.36.03.12.1.21.19.29.09.07.2.12.3.14.49.07.86.3 1.1.69.04.06.1.11.17.15l.68.31c.28.24.54.48.8.73 0 0 .16.1.45.32.18.13.33.33.46.6.02.19-.1.4-.35.67l-1.04-1.01a.56.56 0 0 1-.13-.18c-.2-.45-.7-.53-1.11-.64a.3.3 0 0 1-.2-.16.75.75 0 0 1-.04-.63c-1.36-1.02-2.47-1.06-3.34-.12-.1.67-.02 1.04.22 1.1a.51.51 0 0 0-.21.27c-.2.51-.48.5-.76.87l-.7.94a.34.34 0 0 0-.05.32c0 .02.04.04.1.06-.2.8-.18 1.57.08 2.3-.13.03-.2.14-.18.35.01.17.07.31.19.43.5.51 1.01 1 1.55 1.47.26.23.5.2.7-.06.77.34 1.54.35 2.3.02-.04.13.01.2.14.21a2 2 0 0 0 .37-.06c.37.13.65.12.82-.01.68.17 1.27-.5 1.51-1 .07-.16.07-.3-.02-.42.1-.06.18-.06.27-.01.06.03.1.1.13.2.1.33.1.63-.01.88-.25.57-.4.95-.44 1.14-.62-.37-2.06-.63-2.4.33a.26.26 0 0 0 .01.23c.41.7 1.1.46 1.75.53-.1.9-.43 1.63-1 2.18l-.88.85c-.45.48-.97.9-1.54 1.22l-2.58 1.5c-.22.12-.55.24-.99.34-.09-.95.66-.8.8-1.45a3.5 3.5 0 0 0 1.58-.55 4.04 4.04 0 0 0 1.4-2.2c.05-.18.13-.35.23-.5l.33-.46c.16-.27.4-.47.75-.58a.17.17 0 0 0 .1-.1.18.18 0 0 0-.01-.16l-.35-.6c-.48-.74-.92-.74-1.33-.01a.27.27 0 0 1-.22.14l-1.46.1h-9.35l-1.25-.1a.28.28 0 0 1-.21-.12l-.25-.32a.51.51 0 0 0-.46-.2.5.5 0 0 0-.24.11.53.53 0 0 0-.17.21l-.1.25a.63.63 0 0 0-.03-.04c-.17-.1-.33-.07-.49.06.08-.22.05-.41-.1-.57-.54-.58-1.76-.53-2.32 0-.17-.48-.46-1.18-.43-1.68.02-.35.14-.5.38-.47.02.23.14.48.37.74.38.45.8.63 1.25.54.2.02.4 0 .59-.1.16.06.32.07.47.04.04 0 .07-.03.1-.05a.18.18 0 0 0 .04-.1c.02-.15-.02-.27-.13-.36h.16c-.09.28-.02.46.26.53.7.18 1.4.13 2.08-.16 0 .32.23.35.7.07a3.8 3.8 0 0 0 1.05-1.06c.18-.25.55-.48.62-.79.05-.2 0-.32-.15-.37.28-.68.31-1.42.1-2.24 0-.6-.37-1.17-1.09-1.72-.17-.12-.3-.38-.38-.76.14-.2.12-.54-.05-1.02.03-.39-.22-.64-.77-.76.16-.1.23-.3.2-.58-.03-.2-.2-.3-.5-.29-.22.13-.42.17-.6.12.02-.15.09-.24.21-.26a.2.2 0 0 0 .12-.08.2.2 0 0 0 .03-.15c-.05-.32-.24-.42-.56-.29.54-.21 1-.3 1.36-.25Z" fill="#9FE51E"/><path d="M36.64 18.75c.22.35.52.5.9.43l-.05.33c0 .07-.05.11-.12.12a.48.48 0 0 1-.4-.14c-.07-.07-.12-.06-.16.03a.61.61 0 0 0 0 .52l-.67-.31a.4.4 0 0 1-.17-.15c-.24-.4-.6-.62-1.1-.7a.6.6 0 0 1-.3-.13.62.62 0 0 1-.2-.29.52.52 0 0 0-.36-.36.24.24 0 0 1-.16-.12c-.1-.19-.08-.37.06-.53.3-.07.59-.04.86.1l.4.35c.11.11.27.2.46.26.27.09.6.28 1 .59Z" fill="#079C4D"/><path d="M37.58 18.4c.04.23.03.49-.05.79-.37.05-.67-.1-.9-.44.15-.26.2-.58.15-.96.08.02.26.05.53.08.21.03.3.2.27.53Z" fill="#76B3DF"/><path d="M22.42 18.12c-.36.14-.4.43-.1.88l-.87.12c-.7.11-1.12.56-1.24 1.33-.1.1-.18.15-.23.15-.78.01-.86.46-1.3.88-.3.29-.6.56-.92.81-.8-.46.09-1.18.43-1.55l.96-.72c.37-.17.6-.32.67-.45.37-.59.89-.63 1.48-.83a.29.29 0 0 0 .16-.13c.1-.16.22-.28.36-.37.18.05.38 0 .6-.12Z" fill="#6AD013"/><path d="M22.72 18.99a.88.88 0 0 0-.4 0c-.3-.44-.26-.73.1-.87.3-.01.47.08.5.29.03.28-.04.47-.2.58Z" fill="#FAF5CF"/><path d="M32.07 18.85c.23-.09.37-.3.3-.5-.06-.18-.3-.26-.54-.18-.23.09-.37.3-.3.5.06.18.3.26.54.18Z" fill="#FFFCB4"/><path d="M33.18 19a.15.15 0 0 1-.1-.04.15.15 0 0 1-.05-.1l-.02-.3c0-.1.03-.2.1-.28a.37.37 0 0 1 .26-.13h.13c.1-.01.2.02.28.1a.4.4 0 0 1 .12.27l.02.3a.16.16 0 0 1-.09.14.15.15 0 0 1-.06.01l-.59.03Z" fill="#FAF5CF"/><path d="M24.1 18.17h-.22a.27.27 0 0 0-.27.26v.14c0 .16.1.28.25.28l.22.01c.15 0 .27-.11.27-.27v-.14a.27.27 0 0 0-.25-.28Z" fill="#FFFCB4"/><path d="M22.32 19a.88.88 0 0 1 .4-.01c.55.12.8.37.77.76-.96-.08-1.89-.08-2.78.01a.42.42 0 0 0-.3.17.45.45 0 0 0-.09.33c.01.1-.02.16-.11.19.12-.77.54-1.22 1.24-1.33l.87-.12ZM35.65 19.74l-3.33-.12c.87-.94 1.98-.9 3.33.12Z" fill="#079C4D"/><path d="M30.52 19.94c-.38.21-.63.53-.87.88a.17.17 0 0 1-.18.06.17.17 0 0 1-.09-.05.18.18 0 0 1-.04-.09c-.07-.55.26-.68.65-.9.2-.1.35-.16.45-.17.43-.03.46.06.08.27Z" fill="#FAF5CF"/><path d="M35.66 19.74a.75.75 0 0 0 .05.63c.04.08.1.14.19.16.42.11.91.19 1.11.64.03.07.07.13.13.18l1.04 1c.2.18.27.4.22.68-.02.15-.14.2-.36.16-.56-.57-1.12-1.38-1.8-1.76-.3-.16-.57-.36-.82-.58a.36.36 0 0 0-.24-.1l-2.64-.02c-.24-.07-.31-.44-.22-1.1l3.34.1ZM23.49 19.75c.17.48.19.82.05 1.02-.97-.1-1.92-.1-2.85.03a.4.4 0 0 0-.22.1c-.25.25-.54.45-.86.62-.46.23-.67.68-1.11.96a.38.38 0 0 0-.16.19.77.77 0 0 1-.55.5c-.2 0-.28-.12-.27-.34.02-.28.1-.46.24-.54.32-.25.62-.52.92-.8.44-.43.52-.88 1.3-.89.05 0 .13-.05.23-.15.08-.03.12-.1.11-.19a.46.46 0 0 1 .1-.33.43.43 0 0 1 .29-.17c.9-.09 1.82-.1 2.78-.01Z" fill="#050118"/><path d="M26.5 20.85c-.3-.22-.6-.49-.9-.8-.39-.38-.33-.47.17-.26.28.12.53.27.75.47.11.09.18.22.22.38a.2.2 0 0 1-.03.17.15.15 0 0 1-.2.03Z" fill="#FAF5CF"/><path d="M23.54 20.77c.09.38.21.64.38.76.72.55 1.08 1.12 1.09 1.72l-1.57-1.55a.35.35 0 0 0-.19-.1 9.22 9.22 0 0 0-2.64-.06.27.27 0 0 0-.17.09.3.3 0 0 0-.07.18c-.02.27-.14.45-.38.53a.45.45 0 0 0-.2.13l-.68.82a.43.43 0 0 0-.1.21c-.1.6-.08 1.19.08 1.77l.02.72c0 .08.03.14.09.18.06.05.13.09.2.12.08.02.13.08.16.15.13.35.34.63.63.83.11.09.16.2.13.37 0 .03-.02.06-.05.09a.17.17 0 0 1-.09.05.86.86 0 0 1-.47-.04l-.9-1.09c-.13-.18-.27-.19-.45-.3a.29.29 0 0 1-.13-.16.97.97 0 0 0-.65-.68c-.16-.93-.1-1.7.2-2.34a.77.77 0 0 0 .56-.5.38.38 0 0 1 .16-.19c.44-.28.65-.73 1.1-.96.33-.17.62-.37.87-.62a.4.4 0 0 1 .22-.1c.93-.12 1.88-.13 2.85-.03Z" fill="#FCFCED"/><path d="M18.19 20.74c-.34.37-1.22 1.09-.43 1.55-.14.08-.22.26-.24.54-.01.22.08.33.27.34-.3.63-.37 1.41-.2 2.34-.11.49-.02.78.25.89-.13-.07-.24-.01-.34.16-.23-.04-.36.12-.38.47-.02.5.26 1.2.43 1.67 0 .35.16.7.48 1.05a8.12 8.12 0 0 0 3 3.78c1.14.8 2.52 1.55 4.13 2.28.05.4.32.55.8.46-.04.07-.05.17-.03.31-.75 0-1.49 0-2.22.04-.57.02-.95-.1-1.48-.4-.5-.32-1.01-.62-1.5-.9a4.51 4.51 0 0 1-1.05-.81c-.3-.33-.63-.63-1-.9-.2-.14-.36-.33-.49-.54-.18-.31-.47-.42-.63-.74a26.1 26.1 0 0 0-.94-1.83.44.44 0 0 1-.06-.24c.04-1.88.04-3.79 0-5.73 0-.22 0-.45.02-.67.05-.56.44-1.08.54-1.53.17-.75.53-1.28 1.07-1.59Z" fill="#198899"/><path d="m32.54 20.73 2.64.03c.1 0 .17.03.24.09.25.22.53.42.82.58.68.38 1.24 1.19 1.8 1.76.51.4.34 1.75.31 2.19l-2.28 2.46a2 2 0 0 1-.37.06c-.13 0-.18-.07-.15-.2l.18-.42c.63-.58 1-1.23 1.11-1.95.2-.84.18-1.52-.06-2.04a4.72 4.72 0 0 0-.98-1.17.49.49 0 0 1-.12-.2c-.08-.21-.21-.33-.41-.35-.8-.09-1.69-.1-2.69-.03a.27.27 0 0 0-.2.1c-.1.14-.12.3-.06.52.03.07.07.1.14.11.33.05.58.24.75.58.04.08.1.13.17.17l.32.17a.3.3 0 0 1 .16.23.31.31 0 0 1-.1.27l-.85.81a.34.34 0 0 1-.32.08.33.33 0 0 1-.24-.23.6.6 0 0 0-.52-.46.3.3 0 0 1-.23-.15.87.87 0 0 1-.1-.44c.02-.15.19-.22.5-.2.22.01.33-.1.34-.32v-.18c0-.2-.09-.28-.27-.27-.63.03-.42.54-.76.77l-.4.08c-.05-.02-.08-.04-.09-.06a.34.34 0 0 1 .04-.32l.71-.94c.28-.37.56-.36.76-.87a.5.5 0 0 1 .21-.26Z" fill="#FCFCED"/><path d="M25 23.25c.22.82.2 1.56-.1 2.24a.94.94 0 0 0-.56.44.7.7 0 0 1-.14.2c-.22.2-.4.42-.56.66-.3.45-.93.18-.95.85-.68.29-1.37.34-2.08.16-.28-.07-.35-.25-.26-.52.35-.17.51-.4.47-.72-.01-.07-.05-.12-.13-.14l-.77-.17a.32.32 0 0 1-.2-.12l-.63-.86A3.99 3.99 0 0 1 19 23.5a.43.43 0 0 1 .1-.21l.67-.82a.45.45 0 0 1 .2-.13c.24-.08.37-.26.38-.53a.3.3 0 0 1 .08-.18c.04-.05.1-.08.17-.09.9-.1 1.77-.09 2.64.06.07.01.14.05.19.1L25 23.25ZM36.85 25.33c-.3.18-.5.42-.57.7a.3.3 0 0 1-.08.15.3.3 0 0 1-.3.07.3.3 0 0 1-.12-.09l-.55-.6c0-.17-.08-.27-.24-.32-.62-.2-.95.42-.62.9-.04.3 0 .55.13.8.04.06.1.1.17.12l1.06.22-.17.41c-.76.33-1.53.32-2.3-.02-.11-.25-.27-.44-.5-.56a.94.94 0 0 1-.2-.15l-.94-.9a.13.13 0 0 1-.02-.03 1.09 1.09 0 0 0-.6-.54 3.93 3.93 0 0 1-.08-2.31l.4-.08.18.2c0 .17.04.32.1.44l.1.1a.3.3 0 0 0 .13.05c.27.04.45.19.53.46a.34.34 0 0 0 .23.23.33.33 0 0 0 .32-.08l.85-.81a.3.3 0 0 0 .1-.27.31.31 0 0 0-.16-.23l-.32-.17a.39.39 0 0 1-.17-.17c-.17-.34-.42-.53-.75-.58-.07 0-.11-.04-.14-.11-.06-.21-.04-.38.07-.52.05-.06.11-.1.2-.1 1-.07 1.89-.06 2.68.03.2.02.34.14.4.35.03.08.08.15.13.2.53.5.85.9.98 1.17.24.52.26 1.2.07 2.04Z" fill="#050118"/><path d="M27.1 22c.2.19.42.27.49.19.06-.08-.05-.3-.25-.47-.2-.19-.43-.27-.5-.19-.06.08.05.3.25.48ZM28.93 22.02c.2-.14.3-.33.25-.42-.06-.1-.27-.06-.47.08-.2.14-.3.32-.24.42.06.09.27.05.46-.08Z" fill="#F8D68C"/><path d="M30.05 36.57c0-.06.02-.11.06-.17.2 0 .34-.05.44-.16.03-.04.05-.11.06-.21.01-.1.04-.18.1-.23.43-.1.76-.22.98-.35l2.58-1.49a6.52 6.52 0 0 0 1.53-1.22l.88-.85c.58-.55.92-1.28 1-2.18.47-.22.68-.58.65-1.09.05-.19.19-.57.44-1.14.1-.25.11-.55.01-.89-.02-.1-.07-.16-.13-.2-.09-.04-.18-.04-.27.02-.08-.04-.15-.06-.2-.06l.09-.03c.05 0 .07-.03.07-.08l.01-.86c.03-.44.2-1.8-.3-2.19.2.04.33-.01.35-.16a.68.68 0 0 0-.22-.67c.26-.26.37-.48.35-.66l.7 1.8c.08.2.11.4.11.6l-.01 5.59c0 .83-.53 1.68-.9 2.44-.1.23-.26.43-.47.6-.32.25-.46.61-.76.87-.7.6-1.26 1.27-2.07 1.73-.56.32-1.08.64-1.55.95-.76.51-2.52.35-3.53.29Z" fill="#198899"/><path d="M15.8 25.62c-.3.06-.61.06-.94-.02a.2.2 0 0 1-.16-.15l-.07-.23a.2.2 0 0 0-.14-.14 3.33 3.33 0 0 0-1.1-.17.22.22 0 0 1-.15-.06.23.23 0 0 1-.08-.15L13 22.54c.18-.2.54-.28 1.06-.24.68.06.59.52.68 1.03 0 .06.04.12.09.17.04.05.1.08.17.08l.7.1c.11.02.16.09.16.2l-.05 1.74Z" fill="#F8D68C"/><path d="m20.12 23.96-.24-.04a.23.23 0 0 1-.18-.14c-.1-.2-.07-.37.06-.52a.43.43 0 0 1 .25-.14c.26-.06.4-.22.39-.5a.26.26 0 0 1 .12-.22.34.34 0 0 1 .37 0c.04.02.08.06.12.1l.06.15c.07.29.24.46.52.53.05 0 .1.03.14.07a.29.29 0 0 1 .07.3.29.29 0 0 1-.1.13c-.28.24-.53.52-.73.84-.04.06-.1.1-.18.1-.27.01-.43-.14-.47-.46-.01-.05-.03-.1-.07-.13a.24.24 0 0 0-.13-.07Z" fill="#FCFCED"/><path d="m31.5 23.3-.19-.2c.34-.23.13-.74.76-.77.18-.01.27.08.27.27v.18c0 .22-.12.33-.34.32-.31-.02-.48.05-.5.2Z" fill="#090515"/><path d="M42.9 23.97c-.08.12-.16.31-.23.6a.22.22 0 0 1-.14.17c-.55.2-.83.2-1.27.66-.28.3-.76.28-1.13.19l.04-1.72a.2.2 0 0 1 .06-.14.2.2 0 0 1 .13-.05c.27 0 .5-.04.72-.14.08-.04.13-.1.15-.18.14-.6 0-.97.77-1.07.6-.08.9.17.94.77.02.45.01.76-.04.91Z" fill="#F8D68C"/><path d="m27.83 22.5.35.02c.1 0 .14.06.11.15a.3.3 0 0 1-.14.18.23.23 0 0 1-.16.03c-.16-.02-.25-.1-.27-.25-.01-.09.02-.13.1-.12Z" fill="#FFFCB4"/><path d="m13 22.54.16 2.16c0 .06.03.11.07.15.05.04.1.06.16.06.39 0 .76.06 1.1.18a.2.2 0 0 1 .14.13l.07.23a.2.2 0 0 0 .16.15c.32.08.64.08.94.02.08.22.07.43-.02.63a.22.22 0 0 1-.17.12c-.57.08-1.12.08-1.66 0a.2.2 0 0 1-.16-.12 2.19 2.19 0 0 0-.63-.84.34.34 0 0 1-.12-.18 6.03 6.03 0 0 1-.04-2.69ZM42.9 23.97l-.16 1.28a.36.36 0 0 1-.09.2l-.46.5c-.46-.5-.74-.36-.83.43h-1.03c-.07 0-.13-.03-.16-.1-.08-.21-.1-.44-.04-.69.37.1.85.12 1.14-.19.43-.46.7-.46 1.26-.66a.22.22 0 0 0 .14-.17c.07-.29.15-.48.23-.6Z" fill="#954B67"/><path d="M35.23 25.55c.06.6-.4.79-.86.6-.33-.5 0-1.12.61-.91.17.05.25.15.25.31Z" fill="#7CE5AA"/><path d="M20.35 27.28h-.16c-.3-.21-.5-.49-.63-.84a.25.25 0 0 0-.15-.15.73.73 0 0 1-.21-.12.23.23 0 0 1-.1-.18l-.01-.72.63.86c.05.06.12.1.2.12l.77.17c.08.02.12.07.13.14.04.32-.12.55-.47.72ZM36.84 25.33a3.33 3.33 0 0 1-1.1 1.95l-1.07-.22a.23.23 0 0 1-.17-.13c-.12-.24-.17-.5-.13-.78.47.19.92 0 .86-.6l.55.61a.3.3 0 0 0 .28.1.3.3 0 0 0 .21-.21c.09-.3.28-.54.57-.72Z" fill="#0F4A9E"/><path d="m38.36 25.38-.01.86c0 .05-.03.08-.08.08-.04 0-.06.02-.08.03-.75.44-1.18.93-1.3 1.48-.17.13-.45.14-.82.01l2.29-2.46ZM19.7 27.74a1 1 0 0 1-.58.1l-1.28-1.44c-.27-.1-.36-.4-.26-.89.33.12.55.34.65.68.02.07.07.13.13.17.18.1.32.11.46.3.29.36.58.72.89 1.08Z" fill="#76B3DF"/><path d="M24.91 25.49c.15.05.2.18.15.37-.07.31-.44.54-.62.8a3.8 3.8 0 0 1-1.05 1.05c-.47.28-.7.25-.7-.07.03-.67.66-.4.95-.85.15-.24.34-.46.56-.67a.7.7 0 0 0 .14-.19c.1-.2.3-.35.57-.44ZM31 25.49c.27.1.47.28.6.54l.02.03.95.9c.06.06.12.1.2.15.22.12.38.3.48.56-.2.27-.43.29-.7.06a27.6 27.6 0 0 1-1.54-1.47.66.66 0 0 1-.19-.43c-.01-.2.05-.32.19-.34Z" fill="#FCFCED"/><path d="M42.19 25.96c-.13.37-.4.5-.82.42.08-.79.36-.92.82-.42Z" fill="#76B3DF"/><path d="M27.02 26.95c.24.05.46-.09.5-.3.04-.2-.13-.41-.37-.46-.24-.04-.47.1-.5.3-.04.21.12.42.37.46Z" fill="#FAF5CF"/><path d="M28.6 26.68c-.04.27.08.5.25.52.17.02.33-.18.36-.45.03-.27-.09-.5-.26-.52-.17-.02-.33.18-.36.45Z" fill="#FFFCB4"/><path d="m17.84 26.4 1.28 1.44c-.45.1-.87-.09-1.25-.54a1.37 1.37 0 0 1-.37-.74c.1-.17.21-.23.34-.16Z" fill="#090515"/><path d="M38.19 26.35c.05 0 .11.02.2.06.08.12.08.26.01.41-.24.51-.83 1.18-1.51 1 .11-.54.55-1.03 1.3-1.47Z" fill="#050118"/><path d="M25.2 27.7a.17.17 0 0 1-.03-.24l.2-.24a.99.99 0 0 1 .55-.36c.21-.04.41 0 .56.13l.06.06c.15.12.23.31.23.53 0 .22-.09.44-.23.63l-.2.24a.16.16 0 0 1-.23.02l-.92-.77ZM29.35 27.2l.26-.3a.39.39 0 0 1 .54-.04l.38.33a.4.4 0 0 1 .14.28.41.41 0 0 1-.1.3l-.5.58a.4.4 0 0 1-.38.13.39.39 0 0 1-.18-.11.4.4 0 0 1-.1-.19l-.16-.62a.41.41 0 0 1 .1-.37Z" fill="#090515"/><path d="m40.12 30.24-.02-2.65a.43.43 0 0 1 .13-.3.4.4 0 0 1 .31-.12 13.13 13.13 0 0 0 2.24.01.15.15 0 0 1 .1.14l.01 1.76c0 .14-.04.27-.13.37a.51.51 0 0 1-.35.17c-.25.02-.52.04-.8.08-.39.06-.5.49-.87.6-.15.05-.3.08-.47.09a.14.14 0 0 1-.1-.04.15.15 0 0 1-.05-.11Z" fill="#B97769"/><path d="m13.05 27.47-.05.25.06.77c0 .12.06.23.14.3.09.08.2.13.3.13h1.86a.45.45 0 0 0 .34-.14.48.48 0 0 0 .13-.35l-.02-.64c-.34.42-.92.73-1.74.91a.14.14 0 0 1-.16-.1l-.05-.15a.13.13 0 0 1 .01-.1.13.13 0 0 1 .07-.07l.52-.16a.2.2 0 0 0 .14-.15l.09-.46c0-.04.02-.08.05-.1a.24.24 0 0 1 .1-.08c.1-.05.23-.08.35-.1h-1.95a.63.63 0 0 0-.19.24Z" fill="#F8D68C"/><path d="M15.67 27.23c.12-.03.17.05.16.25l-.02.3c-.34.43-.92.73-1.74.92a.14.14 0 0 1-.16-.1l-.05-.15a.13.13 0 0 1 0-.1.13.13 0 0 1 .08-.07l.52-.16a.2.2 0 0 0 .09-.06.2.2 0 0 0 .05-.1l.09-.45c0-.04.02-.08.05-.1a.24.24 0 0 1 .09-.08c.26-.1.54-.14.84-.1ZM41 27.27h-.23a.32.32 0 0 0-.32.32v.42c0 .18.14.33.31.33H41c.18 0 .32-.15.32-.32v-.42a.32.32 0 0 0-.31-.33Z" fill="#FAF5CF"/><path d="m13 27.72.06.77c0 .12.06.23.14.3.08.08.2.13.3.13h1.86a.45.45 0 0 0 .34-.14.48.48 0 0 0 .13-.35l-.02-.64.02-.3v2.69c0 .03 0 .07-.03.1a.15.15 0 0 1-.09.05c-.44.07-.78-.06-1.01-.4a.35.35 0 0 0-.25-.16c-1.01-.14-1.5.1-1.62-1.23a1.5 1.5 0 0 1 .17-.82Z" fill="#954B67"/><path d="M19.97 29.28a.98.98 0 0 1-.85.38c-.39-.02-.75.01-1.09.1a1.6 1.6 0 0 1-.48-1.06c.56-.52 1.78-.57 2.32 0 .15.17.18.36.1.58ZM38.34 28.62c.02.5-.2.87-.65 1.09-.64-.07-1.34.17-1.74-.53a.26.26 0 0 1-.02-.23c.34-.96 1.78-.7 2.4-.33Z" fill="#FD706B"/><path d="m23.17 29.43.3.04c.09 0 .13.06.12.16a.5.5 0 0 0 .05.3c.04.07.1.1.17.1 4.14.06 6.84.05 8.12 0 .25-.02.45-.22.6-.6l1.45-.1a.27.27 0 0 0 .22-.14c.4-.73.85-.73 1.33.01-.3.24-.46.5-.47.76l-.02.68c-.1.16-.22.31-.33.46-.1.15-.18.32-.23.5-.24.92-.7 1.65-1.4 2.2-.12-.43-.55-.76-1.27-1a.21.21 0 0 0-.19.03.23.23 0 0 0-.1.18.7.7 0 0 1-.54.65.13.13 0 0 1-.12-.02.14.14 0 0 1-.05-.1l-.06-.88c0-.13-.07-.21-.18-.25-.22-.08-.4-.2-.55-.37-.32-.38-.93-.37-1.39-.31a.29.29 0 0 0-.22.16l-.24.48a.22.22 0 0 1-.32.1.24.24 0 0 1-.09-.08 1.38 1.38 0 0 1-.17-.49c-.02-.09-.07-.15-.16-.16a2.72 2.72 0 0 0-1.18.03.3.3 0 0 0-.2.15.91.91 0 0 1-.7.5.2.2 0 0 0-.12.06.2.2 0 0 0-.05.11l-.08.67c0 .06-.03.12-.07.17a.32.32 0 0 1-.32.11.32.32 0 0 1-.16-.09.91.91 0 0 1-.23-.6.2.2 0 0 0-.07-.14.18.18 0 0 0-.16-.03c-.36.11-.42.42-.7.61-.2.15-.41.26-.64.33a2.72 2.72 0 0 1-1.18-1.88c-.09-.6-.62-.87-.74-1.52.1-.48-.02-.8-.34-.96l.1-.25c.04-.08.1-.16.17-.21a.5.5 0 0 1 .5-.07c.08.04.15.1.2.16l.25.32c.05.07.12.11.2.12l1.26.1Z" fill="#050118"/><path d="M20.46 29.22a.96.96 0 0 0-.45.66c-.01.08.02.13.09.17.2.1.45.16.73.17.12.65.65.92.74 1.52.1.77.5 1.39 1.18 1.88.35.66.9.41 1.44.69.15.25.36.45.6.59.22.12.34.23.37.34.03.14.03.33 0 .57a26.5 26.5 0 0 1-4.14-2.28 8.12 8.12 0 0 1-2.99-3.78c.34-.08.7-.11 1.09-.09.34.02.62-.1.85-.38.16-.13.32-.15.5-.06Z" fill="#6AD013"/><path d="M35.04 30.63c0-.22 0-.44.02-.67 0-.27.17-.52.47-.76l.35.6a.17.17 0 0 1 .01.15.18.18 0 0 1-.1.1c-.34.12-.6.32-.75.58ZM20.46 29.22l.03.04c.32.16.43.48.34.96a1.87 1.87 0 0 1-.73-.17c-.07-.04-.1-.1-.09-.17.06-.28.2-.5.45-.66Z" fill="#068B57"/><path d="M32.52 29.43c-.14.38-.34.58-.6.6-1.26.05-3.97.06-8.11 0a.18.18 0 0 1-.17-.1.5.5 0 0 1-.05-.3c0-.1-.03-.15-.12-.16l-.3-.04h9.35Z" fill="#079C4D"/><path d="M23.05 30.18c-.17 0-.26.09-.26.24l.03.72-.5-.36a.35.35 0 0 1-.15-.31.36.36 0 0 1 .19-.29c.17-.1.4-.1.7 0Z" fill="#8883C2"/><path d="m22.82 31.14-.03-.72c0-.15.09-.23.27-.24a.6.6 0 0 1 .47.05c.07.05.11.12.11.2l-.01.76a.37.37 0 0 1-.13.28.35.35 0 0 1-.29.07c-.24-.04-.37-.17-.39-.4ZM33.52 30.17c-.22-.09-.35.26-.4 1.04l-.05.09a.4.4 0 0 1-.15.14.4.4 0 0 1-.54-.16 1.16 1.16 0 0 1-.07-.85.22.22 0 0 1 .15-.17c.36-.11.71-.14 1.06-.1Z" fill="#FCFCED"/><path d="M33.52 30.17c.17.03.22.15.15.36-.1.29-.28.51-.55.68.04-.78.18-1.13.4-1.04Z" fill="#8883C2"/><path d="M33.08 33.8c-.39.28-.92.47-1.58.55 0-.06-.02-.12-.08-.2-.05-.05-.11-.07-.19-.04a.32.32 0 0 1-.25 0c-.18-.07-.33-.03-.44.13-.43.66-.6 1.35-.5 2.07 0 .05.03.08.07.09a.26.26 0 0 0-.06.17c-.43.1-.73.33-.9.67a.3.3 0 0 1-.1.11.3.3 0 0 1-.12.06c-.65.09-1.31.08-1.98-.03a.23.23 0 0 1-.18-.15.74.74 0 0 1-.06-.32.2.2 0 0 0-.09-.18.9.9 0 0 0-.7-.15c0-.14 0-.24.04-.3.07-.74-.12-1.4-.56-2a.3.3 0 0 0-.17-.12c-.39-.1-.73-.05-1.04.15-.53-.28-1.09-.03-1.44-.7.23-.06.44-.17.65-.32.27-.2.33-.5.69-.61a.18.18 0 0 1 .21.09.2.2 0 0 1 .02.08c.02.25.1.45.23.6a.32.32 0 0 0 .34.09c.05-.02.1-.06.14-.1.04-.06.07-.12.07-.18l.08-.67a.2.2 0 0 1 .05-.11.2.2 0 0 1 .11-.06.91.91 0 0 0 .7-.5.32.32 0 0 1 .21-.15c.4-.1.8-.11 1.18-.03.1.01.14.07.16.16.03.18.09.34.18.49a.24.24 0 0 0 .2.11.22.22 0 0 0 .2-.13l.24-.48a.3.3 0 0 1 .22-.16c.46-.06 1.07-.07 1.4.3.14.18.32.3.54.38.11.04.17.12.18.25l.06.88a.15.15 0 0 0 .05.1.14.14 0 0 0 .12.02.7.7 0 0 0 .54-.65.24.24 0 0 1 .1-.18.22.22 0 0 1 .2-.02c.71.23 1.14.56 1.26 1Z" fill="#A6296D"/><path d="M26.77 35.83c-.33-.3-.7-.39-.74-.94-.04-.53-.05-1.13-.04-1.79 0-.38.19-.56.54-.53.3.03.61.16.96.39.07.05.12.12.14.21l.12.67c.08.4.2.42.37.05.13-.29.1-.61.35-.86a1.5 1.5 0 0 1 1.17-.5.3.3 0 0 1 .2.1c.05.05.08.12.1.19.06.77.07 1.58 0 2.42-.02.22-.14.35-.35.38a.65.65 0 0 0-.4.22.44.44 0 0 1-.2.13c-.53.16-1.74.3-2.22-.14Z" fill="#FD706B"/><path d="M40.6 33.5c-.3 0-.44.13-.43.4l-1.6-.52a.11.11 0 0 1-.07-.06.12.12 0 0 1 0-.1c.5-1.09 1.55-.35 2.1.29Z" fill="#068B57"/><path d="M40.6 33.5c.29.52.6.98 1.06 1.38.3.26.46.64.46 1.14 0 .88-.01 1.75-.03 2.58 0 .09-.04.14-.13.15-.17.02-.32-.05-.44-.2-.28-.33-.54-.7-.77-1.1a.26.26 0 0 0-.2-.13c-1.14-.14-1.68.51-2.34 1.27a.24.24 0 0 1-.18.08.24.24 0 0 1-.18-.08c-.3-.32-.67-.56-1.13-.72a.47.47 0 0 1-.21-.15c-.4-.47-1.4-.47-1.96-.5-.08 0-.13-.05-.13-.13-.02-.16.03-.27.13-.35.26-.18.41-.34.44-.47.29.55 1.14-.13 1.5.72a.3.3 0 0 0 .14.15c.24.11.47.16.71.14.14.12.24.28.3.5.02.09.08.13.15.15.3.05.5-.07.6-.36a.3.3 0 0 1 .17-.17l.48-.23a.2.2 0 0 0 .08-.06.21.21 0 0 0 .03-.1c.01-.12.06-.2.15-.28a.33.33 0 0 1 .22-.07l1.1.02c.1 0 .16.05.2.14.03.14.1.25.19.34a.13.13 0 0 0 .13.03c.03 0 .05-.02.06-.04a.15.15 0 0 0 .04-.06c.08-.38.07-.68-.02-.9l.02-.68c.09-.35-.04-.57-.38-.65a.25.25 0 0 1-.15-.11l-.54-.84c-.01-.28.13-.41.42-.4Z" fill="#079C4D"/><path d="M15.81 33.88c-.2.27-.42.54-.64.8l-.26.23c-.17.14-.24.36-.2.66-.07.22-.07.44 0 .65-.15.47-.15.8-.02 1.01-.03.64-.33.87-.89.7l-.02-.24c-.05-.72-.11-1.65.07-2.31.05-.18.2-.35.42-.54a5.8 5.8 0 0 0 1.16-1.27c.24-.5.62-.8 1.14-.9.25-.05.48.02.7.2l.07.08c.13.2.08.35-.14.43l-1.39.5Z" fill="#6AD013"/><path d="M17.55 34.35c-.05.18-.07.39-.04.62 0 .03.02.07.04.1.03.03.06.05.1.06.28.09.48.27.61.54.04.08.09.13.16.16a1 1 0 0 0 .98 0c.65.1 1.3-.04 1.62.7l-1.15.03a.33.33 0 0 0-.23.1.35.35 0 0 0-.1.22c-.03.32-.23.43-.58.33l-.4-.1c-.19-.04-.3-.16-.33-.36-.04-.3-.18-.44-.43-.42a.26.26 0 0 0-.2.13.85.85 0 0 1-.8.42l-.15-.22c.08-.13.1-.25.07-.36a.32.32 0 0 0-.2-.21c-.3-.11-.55-.29-.76-.53a.24.24 0 0 0-.25-.07.25.25 0 0 0-.12.07.26.26 0 0 0-.06.13c-.04.23-.06.42-.29.54-.15.08-.26.08-.34 0a1.12 1.12 0 0 1 0-.66c.1.04.22.05.33.03.08 0 .13-.05.14-.14l.04-.25a.3.3 0 0 1 .1-.2c.54-.46 1.14-.88 1.79-1.23a.3.3 0 0 1 .4.11c.03.05.04.1.04.15v.31ZM41.24 35.51l-.02.67a.53.53 0 0 1-.3.1.18.18 0 0 1-.1-.05.2.2 0 0 1-.06-.1l-.16-.5a.25.25 0 0 0-.06-.1.24.24 0 0 0-.23-.07.24.24 0 0 0-.1.06l-1.31 1.23a.27.27 0 0 1-.22.07.26.26 0 0 1-.2-.14.43.43 0 0 0-.16-.17c-.17-.11-.33-.1-.48.04-.38.33-.55.57-.5.73a1.4 1.4 0 0 1-.7-.14.3.3 0 0 1-.15-.15c-.36-.85-1.21-.17-1.5-.72.4-.36 1-.47 1.8-.34.24.05.47 0 .67-.11.07-.04.12-.1.15-.17.12-.26.31-.43.58-.5.24-.08.32-.24.24-.5a1.1 1.1 0 0 1-.05-.64c.22-.26.48-.3.78-.1a5.2 5.2 0 0 1 1.47 1.2c.2.27.4.41.61.4Z" fill="#A6296D"/><path d="M38.38 34.01c-.05.17-.03.38.05.65.08.24 0 .4-.24.48a.88.88 0 0 0-.58.5.37.37 0 0 1-.15.18.95.95 0 0 1-.67.11.71.71 0 0 1-.26-.12c-.07-.06-.07-.11-.02-.18.19-.23.33-.47.41-.72 0 .14.08.2.26.22.12 0 .2-.05.25-.18l.17-.51.78-.43Z" fill="#068B57"/><path d="M31.5 34.35c-.14.65-.89.5-.8 1.45-.05.05-.08.13-.09.23 0 .1-.03.17-.06.2-.1.12-.24.17-.44.17-.04 0-.07-.04-.07-.09-.1-.72.07-1.41.5-2.07.11-.16.26-.2.44-.13.08.04.17.04.25 0 .08-.03.14-.01.19.05.06.07.09.13.08.2ZM25.96 36.27c-.48.09-.75-.07-.8-.46.03-.24.03-.43 0-.57-.02-.1-.15-.22-.36-.34a1.68 1.68 0 0 1-.61-.6c.3-.19.66-.23 1.04-.14a.3.3 0 0 1 .17.12c.44.6.63 1.26.56 2Z" fill="#090515"/><path d="M18.43 34.45c-.12.57.2.84.7.74.13.14.22.36.26.65a1 1 0 0 1-.97 0 .34.34 0 0 1-.16-.17.98.98 0 0 0-.62-.54.19.19 0 0 1-.09-.06.2.2 0 0 1-.04-.1c-.03-.23-.01-.44.04-.62.31-.04.6 0 .88.1Z" fill="#068B57"/><path d="M19.13 35.19c-.5.1-.82-.17-.7-.74.4.03.64.28.7.74ZM37.6 34.44l-.17.51c-.04.13-.13.19-.25.18-.18-.01-.26-.08-.26-.22.06-.28.29-.43.68-.47Z" fill="#A6296D"/><path d="M17.29 35.8c.17-.1.25-.3.16-.45-.08-.15-.3-.18-.47-.07-.18.11-.25.32-.16.46.08.15.3.17.47.07ZM38.9 35.77c.2-.07.33-.24.29-.37-.04-.13-.24-.18-.44-.1-.2.07-.33.23-.28.36.04.13.24.18.44.1ZM16.65 36.66l-1.26.02a.24.24 0 0 0-.18.09.54.54 0 0 0-.12.27.22.22 0 0 1-.14.18.5.5 0 0 1-.26.01c-.13-.2-.13-.54.02-1 .07.08.18.08.33 0 .23-.12.25-.31.29-.54 0-.05.03-.1.06-.13a.24.24 0 0 1 .37 0c.21.24.46.42.76.53.1.04.17.1.2.21.04.11.01.23-.07.36ZM41.21 36.18c.1.23.1.53.03.9 0 .03-.02.05-.04.07a.14.14 0 0 1-.06.04.13.13 0 0 1-.13-.03.76.76 0 0 1-.2-.34c-.03-.09-.09-.14-.18-.14l-1.11-.02a.33.33 0 0 0-.22.07.38.38 0 0 0-.15.28c0 .03-.01.07-.03.1a.2.2 0 0 1-.08.06l-.48.23a.3.3 0 0 0-.16.17c-.12.3-.32.41-.6.36a.18.18 0 0 1-.16-.14.96.96 0 0 0-.3-.5c-.05-.17.11-.41.5-.74.15-.14.31-.15.48-.04.07.04.13.1.16.17a.27.27 0 0 0 .2.14.26.26 0 0 0 .22-.07l1.3-1.23a.24.24 0 0 1 .4.11l.16.5a.2.2 0 0 0 .06.1c.02.02.06.04.1.04.08 0 .18-.02.3-.09ZM18.96 37.21c-.41-.02-.7.16-.85.55a.35.35 0 0 1-.15.18c-.14.08-.27.06-.37-.04a.33.33 0 0 1-.1-.22c-.03-.28-.18-.44-.45-.48a.29.29 0 0 1-.19-.1.23.23 0 0 1-.05-.22c.36 0 .62-.14.8-.42a.26.26 0 0 1 .2-.13c.25-.02.4.12.43.42.03.2.14.32.33.36l.4.1Z" fill="#F6A15B"/><path d="M21.02 36.54c.16.03.3.1.43.23.12.11.15.24.1.38a.17.17 0 0 1-.16.11l-1.48.15c-.06 0-.11.03-.15.07-.26.29-.56.47-.9.55-.39.08-.61.31-.88.58-.08.08-.17.09-.26.01-.42-.34-.8-.72-1.12-1.14a.35.35 0 0 0-.18-.13c-1.2-.37-1.48.79-2.26 1.34a.25.25 0 0 1-.33-.05.26.26 0 0 1-.05-.12 1.5 1.5 0 0 1 .02-.6c.56.18.86-.05.89-.69.1.02.19.01.26-.01a.22.22 0 0 0 .14-.17c.01-.11.05-.2.12-.28.05-.06.1-.08.18-.09l1.26-.02.15.22c-.02.07 0 .15.05.21s.11.1.2.11c.26.04.4.2.43.48 0 .09.04.16.1.22.11.1.24.12.37.04.08-.04.13-.1.16-.18.15-.38.43-.57.85-.55.35.1.54-.01.58-.33 0-.09.04-.16.1-.22.06-.06.14-.1.23-.1l1.15-.02Z" fill="#079C4D"/><path d="M30.7 37.45c0 .29.06.55.17.8a.3.3 0 0 0 .15.15c.23.1.38.26.42.46.07.27.08.81.05 1.64-.02.13-.22.17-.58.13l-.1-1.2c-.03-.23-.15-.32-.37-.26a3.8 3.8 0 0 0-.8.33c-.72.4-1.68.43-2.45.3-.55-.1-1.14-.45-1.76-.65a1.75 1.75 0 0 0-.97.02.72.72 0 0 1 .01-.43.28.28 0 0 1 .14-.16c.44-.24.66-.61.65-1.13.47-.04.92-.01 1.36.1.1.02.14.08.14.18.01.24.13.38.35.42.6.12 1.26.1 1.84.02.15-.02.25-.1.3-.25.18-.63.96-.56 1.45-.47Z" fill="#B97769"/><path d="m35.68 41.68-.39-.1a.23.23 0 0 1-.16-.14c-.26-.57-.82-.65-.95-1.34a.3.3 0 0 0-.1-.18 1.82 1.82 0 0 0-.57-.3.54.54 0 0 1-.23-.15 2.95 2.95 0 0 0-.37-.35.4.4 0 0 0-.52.03.42.42 0 0 0-.1.17.66.66 0 0 0-.03.2c.01.64.05 1.23.1 1.76.01.08.04.15.1.2.05.06.11.1.19.1.3.04.48.2.55.48.02.06.05.12.1.16a.9.9 0 0 0 .6.24c.18 0 .28-.08.32-.24.02.32-.03.6-.14.84-.3.08-.6.09-.92.02.14-.31 0-.53-.42-.64-.23-.06-.36.03-.41.27-.01.06 0 .18.03.36-.27.07-.58.08-.91.02l.05-1.88c.02-.13.17-.18.44-.16.1 0 .14-.04.13-.13v-.08a.18.18 0 0 0-.06-.12.16.16 0 0 0-.12-.05c-.24.02-.37-.04-.4-.17.03-.83.02-1.37-.05-1.64-.04-.2-.19-.36-.42-.46a.3.3 0 0 1-.15-.15c-.11-.25-.16-.51-.16-.8.46-.1.82.09 1.27.06.34-.01.97-.2 1.14.19.2.45.65.91.93 1.32.17.23.19.43.24.7.02.08.06.14.12.19.61.5 1.04 1.1 1.27 1.77ZM25.27 37.45c0 .52-.22.9-.66 1.13a.28.28 0 0 0-.14.16.72.72 0 0 0-.01.43l-.05 1.43c-.13.1-.32.11-.56.06a1.59 1.59 0 0 1-.21-.88v-.5a.22.22 0 0 0-.11-.2c-.23-.13-.45-.1-.67.09-.34.28-.68.54-1.03.77a.3.3 0 0 0-.13.18l-.1.37a.25.25 0 0 1-.13.16c-.31.17-.53.4-.66.71a.38.38 0 0 1-.14.17c-.15.1-.33.15-.54.17.25-.57.62-1.08 1.1-1.53.16-.15.25-.28.3-.42.08-.25.09-.47.25-.68.27-.35.57-.68.89-1.01.06-.06.1-.14.12-.22.03-.13.1-.23.19-.3a.35.35 0 0 1 .2-.07l2.09-.02Z" fill="#068B57"/><path d="M23.64 39.78c-.03.5.1 1.4-.28 1.76a.4.4 0 0 1-.25.11c-.34.03-.53.22-.57.56 0 .09-.05.13-.14.14l-.69.06-.08-.6a.24.24 0 0 0-.08-.15.23.23 0 0 0-.16-.06h-.21c-.15.01-.23.1-.24.24l-.06 1.18h-.8c.14-.22.16-.65.05-1.32.2-.02.39-.08.54-.17.06-.04.1-.1.14-.17.13-.3.35-.54.66-.7.06-.04.1-.1.12-.17l.1-.37a.3.3 0 0 1 .14-.18c.35-.23.7-.49 1.03-.77.22-.2.44-.22.67-.08.07.04.1.11.1.2v.49Z" fill="#9FE51E"/><path d="M25.43 39.15c-.24.16-.36.65-.36 1.48a2 2 0 0 1-.67-.03l.06-1.43c.22-.1.55-.1.97-.02Z" fill="#F9B05D"/><path d="M35.68 41.68c.14.48.19.9.14 1.25-.29.09-.57.1-.86.04v-1.05a.24.24 0 0 0-.1-.2.39.39 0 0 0-.35-.07.2.2 0 0 0-.15.14l-.14.43c-.04.16-.14.24-.31.24a.9.9 0 0 1-.6-.24.33.33 0 0 1-.1-.16c-.08-.28-.27-.44-.56-.48a.33.33 0 0 1-.2-.1.34.34 0 0 1-.09-.2c-.05-.53-.09-1.12-.1-1.76 0-.07 0-.14.03-.2a.42.42 0 0 1 .26-.27.39.39 0 0 1 .36.07c.14.1.26.22.37.35.06.07.14.12.23.15.2.07.4.17.56.3.06.05.1.11.11.18.13.69.69.77.95 1.34.04.07.09.11.16.13l.4.11Z" fill="#9FE51E"/><path d="M30.9 40.62h-5.83c0-.82.12-1.31.36-1.47.62.2 1.2.55 1.76.64.77.14 1.73.1 2.45-.29.26-.14.53-.25.8-.33.22-.06.34.03.36.27l.1 1.18Z" fill="#FFFCB4"/><path d="M23.64 39.78c0 .35.06.64.2.88-.05.1-.07.19-.06.25.02.08.07.11.15.1.21-.02.38 0 .49.09l.06 1.92a.96.96 0 0 1-.9.02v-.38c0-.12-.07-.18-.19-.18l-.55.04c-.1 0-.17.06-.2.16-.04.16-.1.3-.2.41-.4.07-.65.02-.74-.15l.01-.53.7-.06c.08 0 .13-.05.14-.14.03-.34.22-.53.56-.56a.4.4 0 0 0 .25-.1c.38-.38.25-1.27.28-1.77Z" fill="#079C4D"/><path d="M31.5 41.2c-.05-.1-.27-.15-.67-.13l-5.56-.02-.85.05c-.12-.08-.28-.11-.5-.09-.07.01-.12-.02-.14-.1-.01-.06 0-.15.07-.25.24.05.43.04.55-.06a2 2 0 0 0 .67.03h5.83c.37.04.57 0 .59-.13.03.13.16.19.4.17a.16.16 0 0 1 .12.05.17.17 0 0 1 .06.12v.08c0 .1-.04.13-.13.13-.27-.02-.42.03-.44.16Z" fill="#F6A15B"/><path d="M25.27 41.05c-.27.25-.25.5.06.72.16.12.34.18.55.19.4.01.75.16 1.05.45.07.07.15.1.25.1h1.6a.3.3 0 0 0 .21-.09c.25-.25.72-.42 1.4-.51.4-.06.55-.34.44-.84.4-.02.63.03.67.14l-.05 1.88-1.64.18h-3.84l-1.5-.25-.05-1.92.85-.05Z" fill="#F9B05D"/><path d="M30.83 41.07c.11.5-.03.78-.44.84-.68.09-1.15.26-1.4.51a.3.3 0 0 1-.22.1h-1.59a.34.34 0 0 1-.25-.1c-.3-.3-.65-.45-1.05-.46a.98.98 0 0 1-.55-.2c-.3-.22-.33-.46-.06-.71l5.56.02Z" fill="#FFFCB4"/><path d="m21.71 42.41-.01.53c-.08.16-.35.2-.82.08l.06-1.18c.01-.15.09-.23.24-.23l.21-.01c.06 0 .12.02.16.06.05.03.08.09.08.15l.08.6ZM34.96 42.97l-.88.09c.11-.24.16-.52.14-.84l.14-.43a.2.2 0 0 1 .15-.14.39.39 0 0 1 .34.07c.07.05.1.11.1.2l.01 1.05ZM33.16 43.08a1.7 1.7 0 0 1-.8-.01c-.03-.18-.04-.3-.03-.36.05-.24.18-.33.41-.27.42.11.56.33.42.64ZM23.58 43.04l-1.13.05c.08-.11.15-.25.2-.4.02-.1.09-.16.19-.17l.55-.04c.13 0 .19.06.19.18v.38Z" fill="#090515"/><path d="m29.81 43.27 1.64-.18c.34.06.64.05.9-.02.24.06.5.07.81.01.31.07.62.06.92-.02l.88-.09c.29.06.57.05.86-.04.67.14 1.25.05 1.73-.26l1.12.25c.37.08.73.01 1.09.1.42.1.42.2 0 .31a17 17 0 0 1-4.19.62c-1.53.02-3.03.01-4.49-.03-.8-.02-1.23-.23-1.27-.65ZM18.26 42.74l1.83.28h.8c.46.11.73.08.8-.08.1.17.35.22.75.15l1.14-.05c.32.14.62.14.9-.02l1.49.25c.05.1.07.2.07.28 0 .1-.05.18-.15.22-.14.06-.29.1-.44.11-1.65.13-3.35.15-5.12.07-1.43-.06-2.9-.4-4.35-.65a.16.16 0 0 1-.08-.04.16.16 0 0 1-.05-.08l-.01-.08c-.02-.07 0-.11.08-.12l2.34-.24Z" fill="#7434A3"/><defs><linearGradient id="a" x1="28" y1="0" x2="28" y2="56" gradientUnits="userSpaceOnUse"><stop stop-color="#7DE5AA"/><stop offset="1" stop-color="#9C77E0"/></linearGradient></defs></svg>