<!-- by TradingView --><svg width="56" height="56" viewBox="0 0 56 56" xmlns="http://www.w3.org/2000/svg"><path fill="url(#a)" d="M0 0h56v56H0z"/><path d="M28 17.8c-1.43 0-2.6 1.04-3.42 2.17a5.88 5.88 0 0 1-4.75 2.36A5.75 5.75 0 0 1 14 16.67 5.75 5.75 0 0 1 19.83 11c1.96 0 3.69.93 4.75 2.37.83 1.12 2 2.16 3.42 2.16 1.43 0 2.6-1.04 3.42-2.16A5.88 5.88 0 0 1 36.17 11 5.75 5.75 0 0 1 42 16.67a5.75 5.75 0 0 1-5.83 5.66 5.88 5.88 0 0 1-4.75-2.36c-.83-1.13-2-2.17-3.42-2.17Z" fill="#121316"/><path d="M28 29.13c-1.43 0-2.6 1.04-3.42 2.17a5.88 5.88 0 0 1-4.75 2.37A5.75 5.75 0 0 1 14 28a5.75 5.75 0 0 1 5.83-5.67c1.96 0 3.69.94 4.75 2.37.83 1.13 2 2.17 3.42 2.17 1.43 0 2.6-1.04 3.42-2.17a5.88 5.88 0 0 1 4.75-2.37A5.75 5.75 0 0 1 42 28a5.75 5.75 0 0 1-5.83 5.67 5.88 5.88 0 0 1-4.75-2.37c-.83-1.13-2-2.17-3.42-2.17Z" fill="#121316"/><path d="M28 40.47c-1.43 0-2.6 1.04-3.42 2.16A5.88 5.88 0 0 1 19.83 45 5.75 5.75 0 0 1 14 39.33a5.75 5.75 0 0 1 5.83-5.66c1.96 0 3.69.93 4.75 2.36.83 1.13 2 2.17 3.42 2.17 1.43 0 2.6-1.04 3.42-2.17a5.88 5.88 0 0 1 4.75-2.36A5.75 5.75 0 0 1 42 39.33 5.75 5.75 0 0 1 36.17 45a5.88 5.88 0 0 1-4.75-2.37c-.83-1.12-2-2.16-3.42-2.16Z" fill="#121316"/><defs><linearGradient id="a" x1="3.5" y1="28" x2="54" y2="28" gradientUnits="userSpaceOnUse"><stop stop-color="#EB5935"/><stop offset="1" stop-color="#DD46AC"/></linearGradient></defs></svg>