<!-- by TradingView --><svg width="56" height="56" viewBox="0 0 56 56" xmlns="http://www.w3.org/2000/svg"><path fill="#F0F3FA" d="M0 0h56v56H0z"/><ellipse cx="27.36" cy="27" rx="15.36" ry="15" fill="#122137"/><path d="M28.64 39.5c7.07 0 12.8-5.6 12.8-12.5s-5.73-12.5-12.8-12.5-12.8 5.6-12.8 12.5 5.73 12.5 12.8 12.5Zm0 2.5C37.12 42 44 35.28 44 27c0-8.28-6.88-15-15.36-15s-15.36 6.72-15.36 15c0 8.28 6.88 15 15.36 15Z" fill="url(#a)"/><ellipse cx="28.64" cy="26.69" rx="13.44" ry="12.81" fill="url(#b)"/><path d="m21.92 19.16.32 2.58 6.4 1.3 1.28-.33-.64-1.94h-1.6l-5.12-2.9-.64 1.29Z" fill="#D3815D"/><path d="m33.25 16.17-.27.97-.97-1.86c-.33-.64-1.02-.9-2.05-.81.33-.55.15-.74-.55-.56a2.2 2.2 0 0 0-.05-.97.47.47 0 0 0-.45-.34c-.21 0-.44.11-.67.32 0-.52-.05-.86-.17-1.04-.46-.67-.74-.6-.84.21-.02.13-.1.4-.23.8-.29-.25-.55-.32-.8-.23a.46.46 0 0 0-.32.48v.5a1.1 1.1 0 0 0-1.21.16c-.18.14-.22.31-.1.51.33.61.93.9 1.78.86-.21.1-.36.32-.46.66-.06.2-.17.24-.34.12-.44-.3-.8-.64-1.09-1.04a.8.8 0 0 0-.8-.32.8.8 0 0 0-.63.6c-.1.39-.1.85 0 1.39-.18.3-.5.48-.94.52-.48-.62-.57-1.35-.28-2.18.06.13.18-.05.37-.51.74-.02.95-.37.64-1.05l.07-.2c.31-.29.5-.61.59-.96.59-.17 1.06-.42 1.42-.77.17-.17.17-.34-.02-.5-.15-.13-.4-.25-.73-.36l-1.19-.9c.78-1.12 1.67-.84 2.65.85a.52.52 0 0 0 .55.24c.98-.21 1.83-.2 2.54.04.2.07.38.03.53-.13.32-.34.58-.63.76-.9.27-.37.51-.6.72-.67.28-.1.55-.06.82.1.17.1.25.24.25.44v3.6c0 .21.07.4.21.55.8.86 1.05 1.2 1.26 2.38Z" fill="#E37236"/><path d="m22.96 9.67 1.19.9c-.53.22-.75.77-.67 1.63-.08.35-.28.67-.59.96a.78.78 0 0 1-.05-.44l.12-3.05Z" fill="#7B281A"/><path d="M30.47 11.34c0 .52.19.94.41.94.23 0 .41-.42.41-.94s-.19-.94-.41-.93c-.23 0-.41.42-.41.93ZM24.15 10.57c.33.1.58.22.73.36.19.16.2.33.02.5-.36.35-.83.6-1.42.77-.08-.86.14-1.4.67-1.63Z" fill="#121724"/><path d="M28.24 12.92c-.26.45-.07.85.58 1.18-.12.37-.2.47-.21.3-.71.4-1.4.62-2.05.64.03-.47-.07-.86-.28-1.16.28.07.5.02.63-.16.16-.22.19-.5.1-.84.13-.4.2-.66.22-.79.1-.81.38-.88.84-.2.12.17.17.51.17 1.03Z" fill="#AE5234"/><path d="M29.41 13.91c-.2.13-.4.2-.6.2-.64-.34-.83-.74-.57-1.2.23-.2.46-.3.67-.3a.46.46 0 0 1 .45.33c.1.31.11.64.05.97Z" fill="#F9EDD9"/><path d="M27 12.88c.1.34.07.62-.09.84-.13.18-.35.23-.63.16l-.4-.25v-.49c0-.24.1-.4.33-.48.24-.1.5-.02.8.22Z" fill="#fff"/><path d="M22.82 13.36c.31.68.1 1.03-.64 1.05.04-.45.25-.8.64-1.05Z" fill="#F7AE82"/><path d="m25.88 13.63.4.25c.21.3.3.69.28 1.16l-.21.13c-.85.04-1.45-.25-1.79-.86-.1-.2-.07-.37.1-.5.39-.31.8-.37 1.22-.18ZM29.96 14.47l-.05.49c-.9.17-1.33 0-1.3-.55.02.16.09.06.2-.3.2 0 .4-.07.6-.2.7-.18.88.01.55.56Z" fill="#121724"/><path d="m26.35 15.17.21-.13a4.47 4.47 0 0 0 2.05-.63c-.03.54.4.72 1.3.55.55-.32.64-.1.26.66a.46.46 0 0 1-.55.23 1 1 0 0 0-1.01.2l-1.25-.31c-.23-.06-.4.02-.53.22-.15.25-.2.57-.17.98-.35.18-.7.23-1.06.15l-2.58-.51c-.1-.54-.1-1 0-1.39a.82.82 0 0 1 .63-.6.8.8 0 0 1 .81.32c.29.4.65.74 1.09 1.04.17.12.28.08.34-.12.1-.34.25-.56.46-.66Z" fill="#F9EDD9"/><path d="M32.98 17.14c-.87.89-.97 1.65-.28 2.29.57.53.99.98 1.24 1.34-.65.05-1.4-.5-2.24-1.67-.1-.14-.2-.14-.33-.02l-.6.59c-.24.07-.44.05-.58-.07-.1-.07-.12-.16-.08-.27a.58.58 0 0 1 .06-.16c.1-.2-.02-.27-.36-.21a1 1 0 0 1-.82-.2.24.24 0 0 1-.08-.23.24.24 0 0 1 .17-.18c.4-.1.64-.18.74-.27.22-.21.14-.35-.22-.41a2.45 2.45 0 0 0-1.13.1l.14-1.72a1 1 0 0 1 1-.2.46.46 0 0 0 .56-.23c.38-.76.3-.98-.26-.66l.05-.5c1.03-.09 1.72.18 2.05.82l.97 1.86Z" fill="#fff"/><path d="m28.6 16.05-.13 1.72c-.08.38-.3.63-.66.73-.33.04-.59.01-.78-.08-.25-.12-.27-.28-.07-.47.13-.12.2-.26.23-.41.05-.23-.04-.4-.26-.5l-.27-.1c-.03-.4.02-.73.17-.98.12-.2.3-.28.53-.22l1.25.3Z" fill="#121724"/><path d="m23.02 16.58 2.58.51c.36.08.71.03 1.06-.15l.27.1c.22.1.3.27.26.5-.03.15-.1.3-.23.41-.2.2-.18.35.07.47.2.1.45.12.78.08l-.24 2.64c-2.88-.42-4.7-1.77-5.48-4.04.45-.04.76-.22.93-.52Z" fill="#6E504A"/><path d="M30.78 19.67a4.12 4.12 0 0 1-2.18 1.28c-.37.21-.72.28-1.03.2l.24-2.65c.36-.1.58-.35.66-.73.42-.13.8-.16 1.13-.1.36.06.44.2.22.4-.1.1-.34.19-.74.28a.24.24 0 0 0-.17.18.24.24 0 0 0 .08.24 1 1 0 0 0 .82.19c.34-.06.46 0 .36.2a.58.58 0 0 0-.06.17c-.04.1-.01.2.08.27.14.12.34.14.59.07Z" fill="#AD9D9F"/><path d="M33.94 20.77c.07.03.17.11.28.24-.86.35-1.78.48-2.78.4a.42.42 0 0 1-.38-.33c-.06-.2-.2-.26-.4-.18-.53.23-.96.85-1.28 1.87.17-1.37-.09-1.98-.78-1.82.87-.2 1.6-.63 2.18-1.28l.6-.6c.11-.11.22-.1.32.03.84 1.16 1.6 1.72 2.24 1.67Z" fill="#D3815D"/><path d="M23.47 21.5c-.7.45-1.15.5-1.33.13l-3.01-.16a3.84 3.84 0 0 1 2.5-2.4c.29-.08.5 0 .65.26l.72 1.25c.06.12.1.25.1.39 0 .38.13.55.37.52Z" fill="#AE5234"/><path d="M34.22 21.01c1-.4 1.89-.4 2.69 0 1.12.38 1.84 1.02 2.18 1.91a5.38 5.38 0 0 0-3.03-.5.46.46 0 0 1-.5-.23c-.2-.31-.44-.56-.73-.74a.23.23 0 0 0-.12-.04c-.04 0-.08.01-.11.03a.26.26 0 0 0-.13.15c-.03.07 0 .15.06.26.46.68.84 1.39 1.15 2.13l.03 1.66c-.33.75-.35 1.34-.07 1.77.03.61-.02 1.2-.15 1.76-.11.48-.2.48-.28 0l-.05-.36a.55.55 0 0 0-.4-.48c-.46-.15-.81-.45-1.04-.9a.62.62 0 0 0-.52-.34 3.86 3.86 0 0 1-2.63-1.34c-.1-.12-.1-.24 0-.37l.13-.12c.06-.06.08-.13.03-.2l-1.01-1.77a.14.14 0 0 0-.2-.06l-.19.11c-.07.04-.08.1-.03.16.99 1.24 1.07 2.5.24 3.79-.42-.08-.77-.03-1.03.15-.77-.41-1.37-.48-1.8-.22-.31-.2-.65-.25-1-.14l-.1-.08c-.22-.5-.6-.85-1.13-1.05-.2-.08-.3-.23-.27-.45.04-.38-.07-.67-.34-.88a.62.62 0 0 1-.25-.53l.05-2.49a7.32 7.32 0 0 1 5.7 1.17c.33-1.02.76-1.64 1.3-1.87.2-.08.33-.02.39.18.06.2.19.3.38.32 1 .1 1.92-.04 2.78-.39Z" fill="#F9EDD9"/><path d="m19.13 21.47 3 .16c.95 1.6.45 2.57-1.49 2.91-.21.04-.35-.04-.4-.23l-.47-1.52c-.1-.32-.25-.34-.43-.07-.29.43-.32.85-.09 1.26-.27.76-.07 1.46.59 2.09.13.13.1.2-.08.23l-.46.07c-.04 0-.07 0-.09-.04l-1.85-3.24a.45.45 0 0 0-.33-.24.83.83 0 0 0-.23 0c-.2.01-.27-.07-.18-.26l.19-.4c.79-.64 1.56-.88 2.32-.72Z" fill="#FCC297"/><path d="M39.1 22.92c.36 2.02 1.27 2.36 1.86 4.14l-.13.36a.29.29 0 0 0 .1.32c.03.03.07.04.1.05.19.05.35-.03.48-.21l.15-.01.02 5.3c-.39.03-.68-.04-.87-.23a.52.52 0 0 1-.18-.52l.18-.9c.03-.23-.05-.32-.27-.28l-.16.02c-.2.03-.35.1-.44.2-.34.36-.7.68-1.1.96a.8.8 0 0 1-.52.15 1.8 1.8 0 0 1-.92-.33l.7-1.05a.66.66 0 0 0 .09-.5c-.1-.46.14-.78.73-.94a.7.7 0 0 1 .46.01c.44.18 1 .12 1.66-.19a.32.32 0 0 0 .19-.29.33.33 0 0 0-.18-.3 3.47 3.47 0 0 0-3.33.1c-.81-.6-1.17-1.02-1.07-1.3l-.2-1.97 2.28.42a.18.18 0 0 0 .2-.15v-.1c-.41-1.01-1.5-1.58-3.25-1.7-.3-.74-.69-1.45-1.15-2.13-.06-.1-.09-.2-.06-.26a.26.26 0 0 1 .13-.15.22.22 0 0 1 .11-.03c.04 0 .08.01.12.04.29.18.53.43.73.74.12.19.29.26.5.22.86-.15 1.87.02 3.03.51Z" fill="#F7AE82"/><path d="m23.47 21.5.2.1-.05 2.5c0 .2.08.38.25.52.27.2.38.5.34.88-.02.22.07.37.27.45.53.2.9.55 1.13 1.05l-2.31-.96a.46.46 0 0 1-.32-.47c0-.2.04-.4.11-.6a.43.43 0 0 0-.07-.43.35.35 0 0 0-.18-.12c-.11-.04-.24 0-.36.13-.14.14-.27.3-.4.5a1.2 1.2 0 0 1-.42.46c-.75.37-1.56-.14-2.4-1.53-.24-.41-.2-.83.08-1.26.18-.27.33-.25.43.07l.47 1.52c.05.2.19.27.4.23 1.94-.34 2.44-1.3 1.5-2.91.18.36.62.32 1.33-.14Z" fill="#D3815D"/><path d="m16.8 22.19-.18.4c-.09.19-.03.27.18.26h.23c.15.03.25.1.33.24l1.85 3.24c.02.03.05.05.1.04l.45-.07c.19-.02.21-.1.08-.23-.66-.63-.86-1.33-.59-2.09.85 1.4 1.66 1.9 2.41 1.53.14-.07.28-.22.43-.46.12-.2.25-.36.39-.5.12-.12.25-.17.36-.13.07.02.13.06.18.12.1.13.13.28.07.43-.07.2-.1.4-.1.6-.01.23.1.39.3.47l2.32.96.1.08c-.36 1-1.3 1.29-2.8.85-.1-.58-.49-1.02-1.16-1.32a.93.93 0 0 0-.9.07.96.96 0 0 0-.43.79c-.01.38.1.82.35 1.32.09.19.23.26.44.23.5-.1 1-.04 1.48.14.1.4.01.7-.27.9l-2.26-.65a.52.52 0 0 0-.49.1.4.4 0 0 1-.34.07.23.23 0 0 1-.14-.1c-.12-.18-.08-.32.13-.42.44-.45.61-.89.52-1.33a.5.5 0 0 0-.43-.42l-3.37-.64a.69.69 0 0 0-.53.12l-.4.27v-1.6c0-.2.06-.4.17-.58.4-.68 1.07-1.95 1.23-2.68.18-.07.28-.08.3-.01Z" fill="#7B281A"/><path d="M35.64 27.4c.38-.4.72-.37 1 .09-.1.27.27.7 1.08 1.3l-1.7 1.68a.77.77 0 0 0-.23.51 2.13 2.13 0 0 1-.78 1.5c-.12-.05-.33 0-.64.1l-1.71-.09c-.87-.04-.97-.34-.28-.89.82-.65.86-1.07.12-1.26.25-.25.42-.49.51-.72.1-.23.01-.37-.23-.4a1.53 1.53 0 0 1-1.2-.89.83.83 0 0 0-.48-.41 4.43 4.43 0 0 0-1.8-.26c.09-.3.17-.43.24-.37.83-1.28.75-2.55-.24-3.8-.05-.06-.04-.1.03-.15l.2-.1a.14.14 0 0 1 .19.05l1.01 1.77c.05.07.03.14-.03.2l-.12.12c-.11.13-.11.25 0 .37.69.8 1.57 1.24 2.62 1.34.23.02.4.13.52.34.23.45.58.75 1.03.9.24.07.37.23.41.48l.05.35c.08.49.17.5.28.01.13-.56.18-1.15.15-1.76Z" fill="#121724"/><path d="M36.44 25.5c-.18.14-.42.18-.73.14l-.03-1.66c1.75.12 2.84.69 3.24 1.7a.18.18 0 0 1-.1.25.18.18 0 0 1-.1 0l-2.28-.42Z" fill="#AE5234"/><path d="m36.44 25.5.2 1.99c-.28-.46-.62-.49-1-.08-.28-.43-.26-1.02.07-1.77.3.04.55 0 .73-.13Z" fill="#E37236"/><path d="M19.32 29.06c-.55-.53-.91-.74-1.1-.62a4.5 4.5 0 0 0-2.62-.78.34.34 0 0 0-.31.21c-.06.1-.13.2-.21.29-.17.17-.3.15-.38-.08-.05-.12-.05-.3-.02-.5l.44-.52.39-.27a.69.69 0 0 1 .53-.12l3.37.64a.5.5 0 0 1 .43.42c.1.44-.08.88-.52 1.33Z" fill="#FCC297"/><path d="m22.91 27.93-.22 1.23a2.72 2.72 0 0 0-1.48-.14c-.2.03-.35-.04-.44-.23-.25-.5-.36-.94-.35-1.32a.97.97 0 0 1 .44-.79.94.94 0 0 1 .89-.07c.67.3 1.06.74 1.16 1.32Z" fill="#F7AE82"/><path d="M26.71 27.22c.13 1.38.73 2.25 1.8 2.6.47.96.35 1.9-.36 2.84-.15.2-.34.3-.58.34l-1.85.28a.3.3 0 0 1-.28-.12.3.3 0 0 1-.03-.3c.25-.56.16-.87-.28-.94-.5-.17-.98-.44-1.42-.82-.25-.36-.68-.7-1.3-1.04.3-.2.38-.5.28-.9l.22-1.23c1.5.44 2.44.15 2.8-.85.35-.1.69-.06 1 .14Z" fill="#121724"/><path d="M28.51 27.44c.05.2.05.38-.01.55-.04.13-.12.2-.22.24a.7.7 0 0 1-.4.03c-.12-.03-.17.02-.15.13l.05.32a.2.2 0 0 0 .14.17c.35.14.55.46.6.95-1.08-.36-1.68-1.23-1.8-2.6.42-.27 1.02-.2 1.8.2Z" fill="#ABBAD8"/><path d="M41.51 27.58c-.13.19-.29.26-.47.21a.28.28 0 0 1-.22-.25l.01-.12.13-.36c.27.07.45.24.55.52Z" fill="#fff"/><path d="M29.54 27.29c-.07-.06-.15.07-.23.37-.32-.06-.52 0-.62.2a.5.5 0 0 0 .07.6c.36.42.53.94.5 1.53 0 .24.1.4.33.47 1.01.32 1.98.28 2.9-.12.75.19.7.6-.11 1.26-.69.55-.6.85.28.9l1.71.08c-.1.31.08.63.53.94l-1.55-.13c-.22-.02-.32.09-.32.31 0 .1.05.21.15.32.14.16.13.31-.03.45-.35.3-.64.45-.87.44-.74-.04-1.47-.07-2.2-.08-.08-.6-.26-.96-.52-1.1-.2-.1-.39-.08-.57.07l-1.1.9a.22.22 0 0 0-.06.15c0 .06 0 .12.04.19a.6.6 0 0 0 .14.22c-.15.16-.34.15-.58-.02-.12-.1-.2-.2-.22-.3-.03-.15-.11-.22-.26-.2-.38.02-.64.07-.8.16a19.59 19.59 0 0 1-4.4 1.8c-.39.1-.75.1-1.07-.02a7.1 7.1 0 0 1-1.05-.49 1.06 1.06 0 0 0-.52-.13l-2.83.04-.66-.64.16-.6c-.04-.31-.14-.6-.31-.88l-.6-2.15c.2-.15.3-.33.27-.54a.6.6 0 0 0-.42-.53 4.38 4.38 0 0 1-.1-1.7c.55-.1.94.07 1.16.48.1.18.24.34.4.47a14.44 14.44 0 0 0 5.42 2.84c.99.6 2.17.3 3.53-.93.44.07.53.38.28.93a.3.3 0 0 0 .15.4c.05.03.1.04.16.03l1.85-.28a.84.84 0 0 0 .58-.34c.71-.93.83-1.88.37-2.83-.05-.5-.25-.8-.6-.95a.2.2 0 0 1-.14-.17l-.05-.32c-.02-.11.03-.16.15-.13a.7.7 0 0 0 .4-.03c.1-.03.18-.11.22-.24a.92.92 0 0 0 .01-.55c.26-.18.6-.23 1.03-.15Z" fill="#63221C"/><path d="M14.68 27.57c-.03.22-.03.39.02.51.09.23.21.25.38.08.08-.09.15-.18.21-.29.06-.13.17-.2.31-.2a4.5 4.5 0 0 1 2.63.77c-.63 1.16.08 2.08 2.1 2.75.27.2.4.48.37.84 0 .2.07.34.24.44l.66.38c-2-.55-3.8-1.5-5.42-2.84-.16-.13-.3-.29-.4-.47-.22-.41-.6-.57-1.17-.48a.89.89 0 0 0-.08-.36l.15-1.13Z" fill="#AE5234"/><path d="M29.3 27.66c.63-.04 1.23.05 1.8.25.22.08.38.22.48.42.25.5.65.8 1.2.88.24.04.32.18.23.4-.1.24-.26.48-.51.73-.93.4-1.9.44-2.9.12-.23-.07-.34-.23-.33-.47.02-.6-.15-1.1-.5-1.54a.5.5 0 0 1-.08-.6c.1-.18.3-.25.62-.19ZM37.4 31.94c-.7.74-1.5.92-2.4.53.5-.44.76-.93.79-1.49.01-.2.09-.37.24-.51l1.7-1.68a3.47 3.47 0 0 1 3.32-.1.33.33 0 0 1 .13.46.31.31 0 0 1-.14.12c-.67.3-1.22.37-1.66.2a.7.7 0 0 0-.46-.02c-.59.16-.83.48-.73.94a.64.64 0 0 1-.1.5l-.69 1.05Z" fill="#FCC297"/><path d="M19.32 29.06c-.2.1-.25.24-.13.42.03.05.08.09.14.1a.4.4 0 0 0 .34-.08c.15-.1.31-.14.49-.09l2.26.65c.6.33 1.04.68 1.29 1.04-.35.3-.85.23-1.5-.23a.62.62 0 0 0-.55-.09l-1.33.4c-2.02-.66-2.73-1.58-2.1-2.74.18-.12.54.09 1.1.62Z" fill="#F7AE82"/><path d="M14.72 30.76a.6.6 0 0 1 .42.53c.02.2-.07.39-.27.54a.65.65 0 0 1-.35-.4c-.09-.32-.02-.54.2-.67Z" fill="#AD9D9F"/><path d="M23.7 31.1c.45.38.93.65 1.43.82-1.36 1.22-2.54 1.53-3.53.93l-.66-.38a.45.45 0 0 1-.24-.44.93.93 0 0 0-.37-.84l1.33-.4c.2-.06.38-.04.54.08.66.46 1.16.53 1.5.23Z" fill="#D3815D"/><path d="m41.68 32.87-1.19 1.44c-1.63.3-3.5.04-5.6-.8-.44-.3-.62-.62-.52-.93.3-.1.52-.15.64-.1.89.38 1.68.2 2.4-.54.24.18.55.3.9.33a.8.8 0 0 0 .54-.15c.4-.28.75-.6 1.09-.96.1-.1.24-.17.44-.2l.16-.02c.22-.04.3.05.27.27l-.18.91c-.03.21.02.38.18.52.2.19.48.26.87.23Z" fill="#903A2F"/><path d="M34.9 33.52c2.1.83 3.96 1.09 5.6.8l1.23.1c.25.02.36.15.35.4-.06 1.06.12 1.6-.3 2.75-.25.7-.46 1.42-.65 2.19-.07.31.04.44.34.37h.2a.36.36 0 0 1 .26.1.38.38 0 0 1 .12.26l.01 2.24c0 .22-.12.4-.35.53-.23.12-1.38.37-3.46.75-5.47 1-11.33 1.96-17.57 2.89-1.27.19-2.22.12-2.86-.22-1.2-.62-1.66-1.7-1.42-3.22a.58.58 0 0 1 .3-.42l.92-.54c.1-.05.13-.13.11-.23a.43.43 0 0 0-.07-.16.11.11 0 0 0-.07-.04l-.77-.1c-.21-.03-.34-.14-.38-.35a6.07 6.07 0 0 1 .1-3.38c.07-.23.24-.36.49-.4.05-.02.12 0 .2.04.24.13.32.06.25-.2a2.9 2.9 0 0 0-1.2-1.58l2.83-.04c.18 0 .36.04.52.13.35.2.7.36 1.05.49.32.11.68.12 1.07.02 1.52-.41 2.99-1.01 4.4-1.8.16-.09.42-.14.8-.17.15-.01.23.06.26.2.02.11.1.21.22.3.24.18.43.19.58.03 1.2.16 1.89.02 2.06-.43.74.01 1.47.04 2.2.08.24.01.53-.14.88-.44.16-.14.17-.29.03-.45-.1-.1-.15-.22-.15-.32 0-.22.1-.33.32-.31l1.55.13Z" fill="#142337"/><path d="M30.07 34.83c-.17.45-.86.6-2.06.43a.6.6 0 0 1-.14-.22.37.37 0 0 1-.04-.2c0-.05.03-.1.07-.14l1.1-.9c.17-.15.36-.18.56-.07.26.14.44.5.51 1.1Z" fill="#6E504A"/><path d="M15.47 33.98c.17.28.27.57.3.88-.27.11-.48.02-.63-.29-.1-.19-.06-.34.12-.45l.2-.14Z" fill="#AD9D9F"/><path d="M39.24 40.75h1.7a.62.62 0 0 1 .52.3.63.63 0 0 1 .04.6c-.66 1.4-3.37 1.17-4.48 1.06-.2-.02-.3-.13-.3-.33v-6.02c0-.21.09-.42.24-.57a.79.79 0 0 1 .56-.24h3.45c.35 0 .52.18.52.53v.34c0 .36-.18.55-.54.55h-1.3c-.34 0-.54.16-.6.5l-.04.25c-.05.27.06.4.34.4h1.11c.1 0 .18.05.25.11.07.07.1.16.1.25v.65c0 .27-.13.4-.4.4-.9-.03-1.39.26-1.48.87-.03.23.07.35.3.35Z" fill="#2EB3FC"/><path d="M32.72 38.17a5.22 5.22 0 0 0-2.57.3.3.3 0 0 1-.29-.22c-.09-.33-.12-.63-.09-.92.03-.24.16-.36.4-.36a4.72 4.72 0 0 0 1.27-.13c1.71-.65 3.06-.84 4.03-.58a.4.4 0 0 1 .3.44c-.1 1.73-1.44 3.28-2.75 4.57a.3.3 0 0 0-.07.3.31.31 0 0 0 .23.21l.4.08a.77.77 0 0 0 .67-.19c.25-.23.56-.36.92-.38.11 0 .22.04.3.1.09.07.14.17.17.28.1.48.12.88.08 1.2a.42.42 0 0 1-.36.37l-5.09.75a.52.52 0 0 1-.49-.18.53.53 0 0 1-.08-.52c.73-2.1 2.04-3.17 3.22-4.65.21-.28.15-.44-.2-.47ZM28.44 38.74c-.15.12-.6.1-1.36-.05-.24-.05-.36-.2-.36-.43 0-.31.2-.63.61-.95.41-.32.77-.45 1.06-.38.24.06.35.22.33.46-.04.78-.13 1.23-.28 1.35Z" fill="#2CA7F7"/><path d="M23.56 43.04v-.25c0-.15-.07-.22-.22-.21l-2.67.1c-1 .03-1.5-.45-1.5-1.45v-1.47c0-1.06.52-1.55 1.57-1.49.95.06 2.04-.13 3.27-.57.11-.04.29-.06.53-.06h.52c.17 0 .26.08.29.25l.14.97c.03.18-.05.29-.23.31l-3.47.52c-.36.05-.45.24-.27.56l.25.42a.27.27 0 0 0 .25.14l2.77-.1c.45-.02.68.2.68.65v2.69c0 .5-.25.78-.73.85l-4.6.69c-.46.06-.76-.12-.9-.56a4.65 4.65 0 0 0-.08-.22c-.12-.42.03-.67.45-.77l3.85-.87c.06-.02.1-.06.1-.13Z" fill="#208EEB"/><path d="m28.23 39.53-.93-.03c-.27 0-.5.2-.5.48l-.13 4.09c0 .27.2.5.47.5l.93.04c.27 0 .5-.2.5-.48l.13-4.1c.01-.26-.2-.49-.47-.5Z" fill="#2CA7F7"/><defs><linearGradient id="a" x1="39.52" y1="17.63" x2="17.2" y2="35.01" gradientUnits="userSpaceOnUse"><stop stop-color="#4AE9FE"/><stop offset=".68" stop-color="#2EA8F2"/><stop offset="1" stop-color="#072F73"/></linearGradient><linearGradient id="b" x1="38.24" y1="17.94" x2="19.13" y2="35.26" gradientUnits="userSpaceOnUse"><stop stop-color="#3A4C63"/><stop offset="1" stop-color="#161F31"/></linearGradient></defs></svg>