<!-- by TradingView --><svg width="56" height="56" viewBox="0 0 56 56" xmlns="http://www.w3.org/2000/svg"><path fill="#F0F3FA" d="M0 0h56v56H0z"/><path fill-rule="evenodd" d="m28 14-4-2-8 4.25v4.97l-4 1.99v10.57l4 2v3.98L24.52 44 28 42.02 31.48 44 40 39.76v-3.98l4-2V23.21l-4-2v-4.96L32 12l-4 2Zm-15 9.82 3.48-1.73 2.53 1.44-1.48.88A1.5 1.5 0 0 0 15 25.5a1.5 1.5 0 1 0 2.99-.2l2.26-1.35L25 21.32v-3.4a1.5 1.5 0 1 0-1 0v2.81l-4 2.21-3-1.7v-4.4l2-1.06v2.3a1.5 1.5 0 1 0 1 0v-2.83l4-2.13 3.5 1.74v8.37L24 25.22v5.56l3.5 1.99v8.38l-3.02 1.72L21 41.14V37.9a1.5 1.5 0 1 0-1 0v2.73l-3-1.5v-3.4l3.53-2.2L24 35.29v2.8a1.5 1.5 0 1 0 1 0v-3.42l-4-1.99v-2.76a1.5 1.5 0 1 0-1 0v2.8l-3.53 2.19L13 33.17v-4.24l1.21.8a1.5 1.5 0 1 0 .81-.66L13 27.74v-3.9Zm2.05 6.47.17.11.27-.4h.01a.5.5 0 1 1-.45.29Zm5.53-1.3h-.16a.5.5 0 1 1 .16 0Zm7.92-5.76v-8.37l3.5-1.74 3 1.6v3.37a1.5 1.5 0 1 0 1 0v-2.84l3 1.6v4.39l-3 1.7-4-2.2V17.9a1.5 1.5 0 1 0-1 0v3.4l4.75 2.64 2.26 1.35-.01.2a1.5 1.5 0 1 0 .47-1.09l-1.48-.88 2.53-1.44L43 23.82v3.91l-2.03 1.35a1.5 1.5 0 1 0 .82.65l1.21-.8v4.24l-3.47 1.73L36 32.7v-2.79a1.5 1.5 0 1 0-1 0v2.76l-4 2v3.42a1.5 1.5 0 1 0 1 0v-2.81l3.47-1.73 3.53 2.2v3.4l-3 1.49V37.9a1.5 1.5 0 1 0-1 0v3.23l-3.48 1.73-3.02-1.72v-8.38l3.5-2v-5.55l-3.5-2Zm7.2 13.73h-.4a.5.5 0 1 1 .4 0ZM35.57 29h-.16a.5.5 0 1 1 .16 0ZM40.5 30l.27.4.17-.11a.5.5 0 1 1-.45-.29Zm-9.51.2-3 1.7-3-1.7v-4.4l3-1.71 3 1.7v4.4ZM24.5 17a.5.5 0 1 0 0-1 .5.5 0 0 0 0 1ZM20 19.5a.5.5 0 1 1-1 0 .5.5 0 0 1 1 0Zm15.5.5a.5.5 0 1 0 0-1 .5.5 0 0 0 0 1Zm-15 17a.5.5 0 1 0 0-1 .5.5 0 0 0 0 1Zm4 3a.5.5 0 1 0 0-1 .5.5 0 0 0 0 1Zm7.5-.5a.5.5 0 1 1-1 0 .5.5 0 0 1 1 0Zm0-23a.5.5 0 1 1-1 0 .5.5 0 0 1 1 0Zm-15 9a.5.5 0 1 1-1 0 .5.5 0 0 1 1 0Zm22.5.5a.5.5 0 1 0 0-1 .5.5 0 0 0 0 1Z" fill="url(#a)"/><defs><linearGradient id="a" x1="15.5" y1="21" x2="39" y2="38.5" gradientUnits="userSpaceOnUse"><stop stop-color="#FEB200"/><stop offset=".51" stop-color="#EC5C59"/><stop offset="1" stop-color="#D83696"/></linearGradient></defs></svg>