<svg width="56" height="56" viewBox="0 0 56 56" xmlns="http://www.w3.org/2000/svg"><path d="m40.62 39.33-1.21-.78a15.27 15.27 0 0 0 4-7.92c.46-2.6.3-5.13-.47-7.55a15.55 15.55 0 0 0-9.6-9.88 15.78 15.78 0 0 0-7.36-.81c-.76-.1-1.23-.44-1.4-1.04 3.79-.73 7.34-.32 10.65 1.26a17 17 0 0 1 9.4 11.96 16.68 16.68 0 0 1-4.01 14.76Z" fill="#EDB717"/><path d="M24.57 11.35c.18.6.65.95 1.4 1.04-1.2.15-2.4.45-3.61.9-.17.06-.18.14-.03.24l.96.64c.26.17.55.23.85.16l2.15-.48c.28-.07.67 0 1.18.22l.05.01c.1.04.2.04.3 0 .65-.24 1.2-.26 1.61-.05.27.13.6.45 1.02.97.25.3.44.54.59.69.05.06.12.1.2.13.68.18 1.18.62 1.5 1.32l-1.08-.21a.55.55 0 0 0-.2 0c-.2.03-.42 0-.63-.1-.1-.05-.12-.12-.05-.21a.16.16 0 0 0 .03-.13.2.2 0 0 0-.1-.15 2.84 2.84 0 0 0-.99-.4.38.38 0 0 1-.2-.1c-.42-.4-.83-.82-1.25-1.25-.02-.02-.03-.02-.05 0-.02.02-.02.04 0 .05.4.34.75.7 1.05 1.06.1.13.08.16-.06.1-.11-.04-.27-.1-.48-.2a6.87 6.87 0 0 0-1.93-.6c-.7-.06-1.29.22-1.75.82a.67.67 0 0 0-.6.06c-.01 0-.01 0 0 0 .58-.07 1.1.1 1.56.5.16.15.13.23-.08.23-.36.02-.96.24-1.8.67l-.45.23c-.2.1-.48.14-.83.15l-.04.01v.02c0 .02.02.02.04.03.36.01.69-.06.97-.22a4.98 4.98 0 0 1 1.91-.64c.43-.05.46.05.11.3-.34.23-.65.48-.95.74-.15.14-.26.31-.33.52-.2.55-.56.75-1.12.6a7.64 7.64 0 0 1-3.2-1.75c-.06-.05-.06-.1.01-.15a1.26 1.26 0 0 1 1.5.04l.06.02c.02 0 .03 0 0-.01l-.18-.14c-1.25-.92-1.99-1.62-2.2-2.12-.03-.08-.08-.1-.15-.05a15.99 15.99 0 0 0-3.5 3.17c-.04.06-.03.09.05.08.93-.04 1.8-.25 2.62-.63.1-.05.16 0 .17.17l2.66 2.66c.03.03.03.06-.02.07-1.32.5-2.65.77-3.97.8-.27.01-.53-.06-.78-.22a4.1 4.1 0 0 1-.73-.64c-.1-.08-.08-.13.04-.13a4.77 4.77 0 0 0 1.99-.45c.33-.15.31-.24-.05-.24l-2.2-.02a.25.25 0 0 1-.2-.1l-.18-.22c-.08-.08-.14-.08-.2.01a14.39 14.39 0 0 0-2.6 7.56c-.13 2.2.13 4.26.78 6.18a8.82 8.82 0 0 0 2.7 4 5.94 5.94 0 0 0 4.4 1.54c.27-.02.3-.1.06-.24A6.88 6.88 0 0 1 18.16 36c-.08-.12-.05-.15.08-.1l1.61.57a.6.6 0 0 0-.31.1c-.08.06-.08.11 0 .17l.3.26c.27.51.74.92 1.42 1.23.16.2.47.15.91-.16l.26-.05c.09.2.22.3.41.35.02 0 .02 0 0 .02s-.03.05-.02.08a.1.1 0 0 0 .07.06c.2.05.48.16.83.35.44.22.79.35 1.04.37.85.08 1.58-.23 2.18-.92.05-.05.08-.1.1-.17l.06-.22c0-.03.02-.03.05-.02.02 0 .03.02.04.04.04.07.06.06.07-.02v-.12c.25.22.42.48.5.77.05.12.12.2.24.24.12.03.22.01.32-.06l.85-.68c.06-.1.12-.15.17-.16.07-.03.1 0 .09.08a5.4 5.4 0 0 1-2.13 3.17c-.64.5-1.37.78-2.2.82-.05 0-.07.03-.07.07v.07c.49.06.97.03 1.45-.08 1.67 1.05 3.64 1.3 5.9.76 2.04-.5 3.82-1.48 5.35-2.95.56-.2 1.12-.63 1.68-1.32l1.2.78A16.71 16.71 0 0 1 28.65 45c-4.56.18-8.67-1.38-12.31-4.66a.5.5 0 0 0-.2-.1.26.26 0 0 1-.16-.13 2.3 2.3 0 0 0-.56-.65.42.42 0 0 1-.14-.2 14.81 14.81 0 0 1-3.03-5.08 9.7 9.7 0 0 0-.3-.82 5 5 0 0 1-.27-.84c-.1-.43-.2-.86-.33-1.29a3.22 3.22 0 0 1-.12-.71 6.44 6.44 0 0 0-.07-.73c-.2-1.07-.2-2.42.03-4.06.49-3.6 1.97-6.72 4.45-9.35a16.72 16.72 0 0 1 8.94-5.02Z" fill="#C09910"/><path d="m21.59 15.07-1.07-.87c-.06-.05-.06-.09.02-.12l.38-.14c.03-.01.05 0 .07 0l1.49 1.18c.03.02.04.05.02.08-.01.04-.04.05-.08.04l-.8-.16h-.03Z" fill="#19180E"/><path d="M32.74 17.14a9.98 9.98 0 0 1 2.35 1.92l.51.47c.38.35.3.7-.23 1.07-.19.25-.47.32-.84.23-.15-.04-.15-.08 0-.1l.62-.13c.06-.01.08-.05.07-.1l-.02-.07a.08.08 0 0 0-.08-.08l-.82-.17.03-.12c-.01-.09-.05-.1-.1-.04a.52.52 0 0 1-.53.16c-.12-.1-.23-.12-.33-.07a.27.27 0 0 0-.18.23.75.75 0 0 1-.1.33c-.04.09-.01.15.08.17.27.08.56.1.88.05.04 0 .06.02.07.05l.02.07c0 .02 0 .02-.02.03a3.1 3.1 0 0 1-2.16-.42.5.5 0 0 0 .4-.16.2.2 0 0 0 .03-.21l-.25-.63c-.1-.26-.29-.36-.56-.29-.68.17-1.37.17-2.04 0-.1-.22-.14-.39-.12-.5.02-.12.13-.16.35-.12a7 7 0 0 0 .8.1c.1 0 .17-.03.24-.1a.26.26 0 0 0 .05-.26.1.1 0 0 1 .04-.11c.08-.05.14-.05.2.02.07.05.13.1.21.11.1.02.12 0 .05-.08-.18-.2-.52-.31-1.02-.32-.2 0-.35-.02-.44-.04a.36.36 0 0 0-.31.1c-.11.09-.21.08-.3-.01a.3.3 0 0 0-.23-.1l-1.13-.04a.17.17 0 0 0-.12.05.3.3 0 0 0-.05.06l-.2-.16c-.06-.04-.11-.04-.16.01-.14.14-.28.13-.42-.03a.2.2 0 0 0-.17-.07c-.02 0-.05 0-.07.02-.05.03-.06.06-.03.11.02.04.05.05.09.04l-.3.24-.66-.23c-.03 0-.06 0-.07.04l-.02.06c0 .02 0 .03.02.04.39.08.74.23 1.07.44l-1.3.43c0-.17-.08-.26-.26-.24-.1 0-.14.05-.16.14l-.8.24a2.5 2.5 0 0 1 1.07-1.45c.07-.04.12-.1.15-.18.07-.18.2-.28.4-.3.06 0 .11-.03.14-.1a.6.6 0 0 1 .35-.3c.06-.03.1-.07.1-.13a.15.15 0 0 0-.05-.16 3.3 3.3 0 0 0-1.43-.73c.46-.6 1.05-.88 1.75-.83.42.04 1.06.24 1.93.6l.48.21c.14.06.17.03.06-.1-.3-.37-.65-.72-1.05-1.06-.02-.01-.02-.03 0-.05.02-.02.04-.02.05 0 .42.43.83.85 1.25 1.25.06.05.12.08.2.1.32.06.65.19 1 .4a.2.2 0 0 1 .1.15c0 .04-.01.09-.04.13-.07.09-.05.16.05.2.21.1.42.14.62.1a.55.55 0 0 1 .21 0l1.08.22Z" fill="#DBAC0E"/><path d="m24.31 19.17.81-.24a.7.7 0 0 1 .43.1l1.29-.43.17.07c.2.07.21.05.03-.07a6.98 6.98 0 0 0-.53-.35l.29-.24c.32.18.64.26.98.24.08 0 .1-.03.05-.1a.27.27 0 0 0-.07-.06.3.3 0 0 1 .05-.06.17.17 0 0 1 .12-.05l1.13.04a.3.3 0 0 1 .23.1c.09.1.19.1.3 0 .09-.08.2-.1.3-.09.1.02.25.03.45.04.5 0 .84.12 1.02.32.07.08.05.1-.05.08a.44.44 0 0 1-.2-.11c-.07-.07-.13-.07-.2-.02a.1.1 0 0 0-.05.11c.03.1.01.18-.05.26a.27.27 0 0 1-.25.1 7.06 7.06 0 0 1-.8-.1c-.2-.04-.32 0-.34.12-.02.11.02.28.12.5-.03.06 0 .13.1.22.06.05.13.08.2.08.65.01 1.1.32 1.38.92.03.06.08.1.15.11.18.03.38.02.59-.04.67.4 1.39.54 2.16.42.01 0 .02-.01.02-.03l-.02-.07c0-.03-.03-.05-.07-.05-.32.04-.61.03-.88-.05-.1-.02-.12-.08-.08-.17.06-.1.09-.21.1-.33.02-.11.08-.2.18-.23.1-.05.2-.02.33.07-.03.05-.02.1.02.13.06.06.13.07.2.04l.38-.17.82.17c.04 0 .07.03.08.08l.02.07c0 .05-.01.09-.07.1l-.61.12c-.16.03-.16.07 0 .1.36.1.64.03.83-.22 1.13.58 2.2.6 3.23.05.07-.04.13-.02.18.05.79 1.16 1.05 1.94.79 2.36a.25.25 0 0 0-.02.26c.05.09.11.14.2.16.1.03.14.1.1.2-.3.86-.68 1.69-1.12 2.5-.07.14-.13.13-.17-.03a2.18 2.18 0 0 0-.57-1.02c-.34-.37-.7-.48-1.04-.35a.65.65 0 0 0-.06-.22c-.06-.58-.35-.87-.84-.86a.2.2 0 0 0-.18.1.6.6 0 0 1-.17.2c-.3.24-.38.17-.23-.18.08-.2.02-.34-.17-.44-.07-.03-.1-.01-.13.06a.6.6 0 0 1-.42.44.1.1 0 0 1-.12-.03.1.1 0 0 1-.02-.13l.16-.31c.02-.05.01-.08-.03-.1l-.08-.04c-.02 0-.05 0-.06.02l-.27.37c-.08.11-.15.1-.22-.02l-.12-.27a.15.15 0 0 1 .01-.15.14.14 0 0 1 .13-.07c.17 0 .33-.02.48-.07.03-.01.04-.03.03-.06l-.02-.06c-.02-.05-.05-.07-.1-.05-.25.11-.5.15-.77.13-.07 0-.09.03-.05.1.11.15.1.31-.04.48-.1.12-.18.1-.22-.06-.07-.3-.28-.46-.62-.5a2.9 2.9 0 0 1-1.06-.29 16.3 16.3 0 0 1-1.88-1.06c-.3-.2-.71-.28-1.25-.24-.58.05-.94.23-1.09.55-.09-.02-.14-.07-.16-.14-.2.04-.36.03-.48-.04-.07-.04-.1-.1-.06-.17a1.7 1.7 0 0 1 1.12-.98l.01-.02c0-.04-.03-.05-.06-.04-.76.27-1.16.72-1.17 1.37 0 .1-.06.19-.15.23a4.4 4.4 0 0 0-1.66 1.24c-.19.25-.4.5-.61.72a1.7 1.7 0 0 0-.34.87l-.04.27c-.11.53-.08 1 .1 1.41.15.36.32.66.5.9v.24c-.1.22-.14.44-.12.66 0 .12-.04.15-.15.12l-1.02-.38c-.08-.11-.15-.16-.23-.14-.22-.18-.4-.4-.53-.65.04-.05.07-.1.08-.18.27-.5.32-.99.12-1.48-.1-.29-.16-.58-.17-.87l.2-.26c.1-.13.08-.15-.05-.05l-.58.42a6.9 6.9 0 0 1 .06-2.18l.65-.42a.22.22 0 0 1 .13-.04c.16 0 .27-.1.35-.3l.47-.77.47-.08c.28-.06.28-.09 0-.09-.3 0-.61-.02-.94-.04-.35-.02-.8-.22-1.33-.6a17.33 17.33 0 0 1-3.06-2.83 1 1 0 0 1-.14-.22l-.21-1.33c-.02-.13.02-.16.12-.07.08.07.2.17.33.31.2.2.34.32.44.4.36.26.7.53 1.05.8a7.3 7.3 0 0 0 3.83 1.56Z" fill="#F5C33D"/><path d="M32.25 17.68c.27.1.5.11.53.04.02-.08-.17-.22-.44-.3-.27-.1-.5-.12-.53-.05-.03.08.17.22.44.31Zm-4.49.42c.03.01.05.03.07.06.04.06.03.1-.05.1a1.8 1.8 0 0 1-.98-.25c-.04 0-.07 0-.1-.04-.02-.05-.01-.08.04-.1a.15.15 0 0 1 .07-.03.2.2 0 0 1 .17.07c.14.16.28.17.42.03.05-.05.1-.05.16 0l.2.15Zm-1.26.15c.21.12.39.24.54.34.18.13.17.15-.03.08l-.17-.07a3.15 3.15 0 0 0-1.07-.45c-.01 0-.02-.01-.02-.03l.02-.06c.01-.04.04-.05.07-.04l.67.23Z" fill="#C09910"/><path d="M17.56 18.5c.12-.03.2-.1.2-.15-.02-.05-.12-.07-.25-.04-.12.03-.2.1-.2.15.02.04.12.06.25.03Zm-.76.28c-.24.14-.5.13-.8-.05a.13.13 0 0 1-.06-.12.1.1 0 0 1 .04-.08.16.16 0 0 1 .14-.03l.65.13c.13.03.14.08.03.15Zm2.2.17c.12-.02.22-.07.21-.11 0-.04-.11-.05-.24-.03-.13.02-.23.07-.22.1 0 .04.11.06.24.04Z" fill="#36270B"/><path d="M25.55 19.03a.7.7 0 0 0-.43-.1c.02-.09.07-.13.16-.14.18-.02.27.07.27.24Z" fill="#C09910"/><path d="M31.96 20.62c-.2.06-.4.07-.6.04a.2.2 0 0 1-.14-.11c-.28-.6-.73-.9-1.37-.92a.31.31 0 0 1-.21-.08c-.1-.09-.13-.16-.1-.21a4.4 4.4 0 0 0 2.04 0c.27-.08.46.02.56.28l.25.63a.2.2 0 0 1-.04.2.47.47 0 0 1-.4.17Z" fill="#E9170D"/><path d="M28.77 20a.17.17 0 0 1-.12.04c-.05 0-.05-.02-.01-.05.19-.13.39-.22.6-.27.14-.04.16 0 .04.09a.88.88 0 0 1-.51.2Z" fill="#C09910"/><path d="M31.65 20.2c.14-.02.24-.15.21-.27-.02-.12-.16-.2-.3-.16-.14.03-.23.15-.2.27.02.13.15.2.3.17Z" fill="#FDE066"/><path d="m34.3 20.18-.37.17a.18.18 0 0 1-.2-.03c-.05-.04-.06-.09-.03-.14.2.05.37 0 .52-.16.06-.06.1-.05.1.04.01.03 0 .07-.02.12Z" fill="#C09910"/><path d="M25.67 21.09c.22-.01.39-.05.38-.1 0-.03-.17-.06-.38-.05-.21.01-.39.05-.38.1 0 .03.17.06.38.05Z" fill="#50535D"/><path d="M20.88 23.06a.26.26 0 0 1-.07.13.21.21 0 0 1-.19.06c-.63-.1-1.25-.19-1.88-.24a2.4 2.4 0 0 1-1.57-.71c-.03-.03-.03-.05-.02-.09a.07.07 0 0 1 .07-.05 7.08 7.08 0 0 0 2.1-.43c.67-.25 1.18-.41 1.53-.49a3.76 3.76 0 0 1 1.56-.07c.2.04.22.11.04.21l-.44.25a.38.38 0 0 0-.12.1l-.95 1.2a.32.32 0 0 0-.06.13Z" fill="#EDB717"/><path d="m23.75 21.36-.47.78c.02-.17.08-.33.18-.48h.01v-.03c-.02-.02-.02-.02-.04 0-.12.18-.23.36-.33.56a.36.36 0 0 1-.17.16l-1.15.54c-.04.02-.05.05-.03.09 0 .02.02.04.04.05.04.02.08.01.13 0l.23-.14a6.9 6.9 0 0 0-.06 2.18c.17.1.3.06.43-.1 0 .28.07.57.17.86l-.12 1.48a.37.37 0 0 1-.08.18c-.23.06-.45-.04-.65-.29a6.98 6.98 0 0 0-.1-.11c-.06-.07-.09-.06-.07.03.03.14.11.25.25.32.4.2.76.43 1.1.7.08-.02.15.03.23.14l.1.2c.03.06.09.1.16.1.27.02.53.1.77.24.14.08.24.04.29-.12.1-.33.1-.6-.02-.82v-.24c.34.29.65.6.94.93.26.31.52.55.78.73a3.68 3.68 0 0 1 1.42 1.7c.04.1.1.16.17.22.58.39.9.97.99 1.73l-.14 1.74c0 .09-.04.15-.1.2a.25.25 0 0 1-.22.05 3 3 0 0 1-1.09-.52c-.04-.14-.1-.23-.21-.27-.06-.02-.08 0-.06.06.03.08.1.15.22.21.36.4.72.64 1.1.73.18.04.35 0 .5-.13a.57.57 0 0 0 .21-.48l-.05-1.44c0-.07 0-.12.02-.15a.08.08 0 0 1 .08-.04c.04 0 .06.02.08.05a18 18 0 0 1 .79 3.35c.07.5-.25 1.05-.94 1.64l-.72.59c-.17.13-.31.11-.44-.06a2.87 2.87 0 0 1-.6-1.6c-.02-.24-.1-.27-.26-.1-.39.42-.9.76-1.54 1-.06.03-.12.02-.17-.04a.24.24 0 0 0-.08-.05c-.05-.02-.08 0-.09.05 0 .03 0 .06.03.08.02.03.05.05.08.05.46.07 1.03-.22 1.73-.85.19-.17.28-.13.28.13v.78c-.01.08-.03.09-.07.02a.08.08 0 0 0-.04-.04c-.03-.01-.04 0-.05.02l-.07.22a.45.45 0 0 1-.09.17c-.6.7-1.33 1-2.18.92-.25-.02-.6-.15-1.04-.37-.35-.19-.63-.3-.83-.35a.1.1 0 0 1-.07-.06.08.08 0 0 1 .02-.08c.02-.01.02-.02 0-.02a.56.56 0 0 1-.4-.35c.3-.26.63-.45.99-.58a2.5 2.5 0 0 0 1.17-.84c.02-.03.01-.05 0-.07h-.01a.05.05 0 0 0-.07 0c-.18.19-.37.34-.57.45-.26.13-.31.08-.17-.18a2.5 2.5 0 0 0 .41-1.48 9.53 9.53 0 0 1-.07-1.06c0-.12-.06-.21-.16-.28-.16-.11-.23-.07-.21.13 0 .09-.02.16-.07.22a.57.57 0 0 1-.17.12 6.87 6.87 0 0 1-4.54.35c-.04-.01-.07-.04-.07-.08s0-.07.04-.1l.66-.38a4.78 4.78 0 0 0 1.25-.88c.4-.45.8-.98 1.22-1.59.04-.06.09-.07.14-.03l.07.05c.1.07.13.17.07.3a21.88 21.88 0 0 1-.57 1.09 16.37 16.37 0 0 0 .6-.88c.05-.1.12-.12.21-.1.08.01.13-.02.15-.1a.2.2 0 0 0-.04-.18 8.3 8.3 0 0 1-2.06-3.14c-.06-.14-.1-.14-.14 0a.48.48 0 0 0-.01.19l.03.09c.16.22.3.47.44.75.1.21.03.43-.2.65-.08.07-.13.14-.17.18-.4.51-.89.9-1.48 1.14-.05.02-.06.06-.03.1l.03.05c.01.03.03.03.06.02a17 17 0 0 0 1.78-1.58c.1-.1.2-.1.3 0l.07.06c.1.1.1.2 0 .3a8.93 8.93 0 0 1-1.66 1.51.7.7 0 0 1-.82.04 29.8 29.8 0 0 1-2.02-1.3c-.04-.03-.06-.07-.04-.13l.04-.05h.02c.88.2 1.54.06 1.98-.42a12.62 12.62 0 0 0 1.38-1.93c.09-.15.2-.16.33-.05l.4.37c.06.06.14.1.23.11.12.02.27.13.45.33.11.12.2.21.27.25.22.15.42.32.61.52.07.07.15.1.25.1.15-.02.28.03.39.14.07.08.16.1.26.08.1-.02.17-.09.2-.19.14-.43.16-.85.07-1.26 0-.01 0-.02-.02-.02h-.06c-.05.01-.07.04-.06.09.05.32.06.65.01 1a.24.24 0 0 1-.12.19.24.24 0 0 1-.23 0 87.5 87.5 0 0 1-.79-.37c-.58-.3-.84-.74-.78-1.35.01-.13-.01-.14-.08-.03l-.12.2c-.1.17-.23.2-.39.1a1.63 1.63 0 0 1-.65-.8c-.06-.18-.1-.49-.11-.91 0-.26-.02-.47-.03-.61-.08-.69.13-1.57.62-2.66.05-.1.14-.23.29-.39.17-.18.26-.34.3-.46.08-.4.48-.86 1.2-1.38a.34.34 0 0 1 .19-.07l.92-.02Z" fill="#EDB717"/><path d="M23.28 22.14c-.08.19-.2.28-.35.29a.22.22 0 0 0-.13.04l-.65.42-.23.13c-.05.02-.1.03-.13 0a.11.11 0 0 1-.04-.04c-.02-.04 0-.07.03-.09l1.15-.54a.36.36 0 0 0 .17-.16 6.33 6.33 0 0 1 .36-.56l.01.03h-.01c-.1.15-.16.3-.18.48Zm1.32.52c.21-.08.44-.31.67-.7l.2-.33h.04c.03.02.04.05 0 .08-.23.24-.4.53-.48.87a.2.2 0 0 1-.15.15l-.6.2c-.65.24-1.1.32-1.35.25-.06-.01-.07-.04-.05-.1l.03-.06c.01-.03.04-.05.07-.04.37.08.8.02 1.3-.19l.32-.13Z" fill="#36270B"/><path d="M27.43 28.56c-.4.04-.81.05-1.21.01-.04 0-.05.02-.05.05 0 .03 0 .05.04.06.41.07.82.05 1.22-.07.67.06 1.15 0 1.45-.16a.67.67 0 0 1 .6-.05c.68.25 1.39.53 2.13.83.21.1.21.18 0 .27a8.35 8.35 0 0 1-4.11.6 6.8 6.8 0 0 1-1.4-1.2 1.27 1.27 0 0 0-.5-.45.52.52 0 0 1-.2-.14c-.29-.32-.59-.67-.9-1.06-.06-.07-.07-.14-.04-.2.03-.07.02-.13-.04-.17l-.1-.06a.1.1 0 0 1-.03-.04c-.23-.48-.28-1-.17-1.58.02-.1.08-.13.17-.07l.12.07c.38.24.66.4.85.46a2.86 2.86 0 0 0 1.08.15 3.46 3.46 0 0 1-2.08-.83c-.08-.07-.1-.15-.05-.25a5.7 5.7 0 0 1 2.02-2.18l.4-.26c.2-.15.43-.23.68-.26.04 0 .07-.05.07-.15.02.07.07.12.16.14-.56.28-.92.73-1.1 1.34-.03.1 0 .14.1.11l1.64-.4c.18-.05.18-.08 0-.1-.44-.05-.84.02-1.23.2-.25.12-.3.07-.14-.16.58-.87 1.44-1.27 2.58-1.2.22.02.4.1.54.23.17.16.46.35.88.56l.35.19a.1.1 0 0 1 .05.1.1.1 0 0 1-.07.08.6.6 0 0 0-.38.38.6.6 0 0 0 .06.55c.18.28.48.39.91.32.03 0 .05 0 .06.02l.05.1c.05.08.02.12-.07.1-.1 0-.18.01-.26.05-.12.07-.12.13.02.17.26.1.43.04.51-.17.02-.04.04-.05.08-.02l.07.04c.03.02.03.04.01.07-.16.23-.15.48.03.74.03.05.09.08.16.07.47-.04.92.06 1.36.3.06.03.06.07 0 .1l-.57.4a.82.82 0 0 0-.34.51.97.97 0 0 0 .04.63.2.2 0 0 0 .15.13c.58.12 1.08.38 1.52.77.07.07.07.12-.03.15-.5.18-.98.32-1.45.45-.22.05-.55-.03-.98-.25-.08-.04-.1-.1-.1-.19a.79.79 0 0 0-.02-.38 7.02 7.02 0 0 0-1.98-2.95c-.63-.58-1.14-.83-1.53-.75-.38.09-.77.16-1.16.21-.07.01-.07 0 0-.03l.06-.03c1.03-.47 1.59-.86 1.67-1.18a.2.2 0 0 0-.05-.2.19.19 0 0 0-.2-.05 4.2 4.2 0 0 0-2.08 1.34.27.27 0 0 1-.2.1c-.46.04-.78-.13-.98-.53a4.95 4.95 0 0 0-.04-.1c-.08-.14-.1-.14-.05.03.11.44.43.7.96.8.1.02.15.08.14.19-.05.46-.01.8.1 1.03.17.38.36.74.58 1.09.03.05.02.08-.05.08-.2.01-.3.03-.33.06v.02c0 .02 0 .03.02.03.15.02.29.03.42.02.07 0 .14.01.2.05.35.23.7.44 1.05.65.7.42.65.6-.17.54-.18-.01-.5.03-.92.13Z" fill="#FDE066"/><path d="M37.07 22.29c-.24-.08-.24-.17 0-.27l.44-.19c.23-.1.4-.03.51.2.1.18.13.38.1.59-.06.45-.22.49-.47.11a1.1 1.1 0 0 0-.58-.45Z" fill="#19180E"/><path d="M19.37 22.72c.38.04.7.03.7-.03.01-.06-.3-.15-.68-.2-.38-.04-.7-.02-.7.04-.01.06.3.15.68.19Zm11 1.28c.13.12.24.25.33.4.07.12.05.14-.06.07-.6-.41-.78-1.04-.57-1.88.01-.03.03-.05.06-.04l.07.02a4.75 4.75 0 0 0 .07 1.23c0 .08.04.14.1.2Zm-8.52-.55c.02.1 0 .2-.06.28-.07.1-.1.09-.1-.04.01-.15.04-.3.1-.44.02-.07.05-.07.09-.02.03.05.03.1 0 .13a.1.1 0 0 0-.03.1Z" fill="#C09910"/><path d="M23.06 24.14c-.01.13 0 .24.04.25.04 0 .08-.1.09-.24.01-.14 0-.25-.04-.25-.03 0-.07.1-.09.24Z" fill="#36270B"/><path d="M36.9 24.56c.02.04.04.12.05.22-.36.36-.72.67-1.06.9-.18.14-.22.1-.12-.1.22-.47.4-.94.5-1.4.07-.25.17-.27.31-.06l.31.44Z" fill="#FDE066"/><path d="M17.12 26.33c-.32.07-.39.24-.19.5l.08.1c.2.27.45.36.76.28a13.5 13.5 0 0 0 2.22-.81c.03.18.04.36 0 .54 0 .04-.03.08-.07.1a5.9 5.9 0 0 1-1.51.56c-.67.14-1.17.09-1.53-.15a5.86 5.86 0 0 1-1.1-1c-.07-.07-.06-.12.03-.14a12.5 12.5 0 0 0 4.48-2.24c.06-.04.11-.04.16.02.02.03.03.07.01.1-.07.18-.18.33-.3.46-.07.07-.08.14-.02.22l.03.06c0 .01 0 .08-.03.2l-.17.98a.18.18 0 0 1-.1.13 12 12 0 0 1-1.95.82.75.75 0 0 1-.67-.1l-.14-.1c-.24-.15-.22-.27.04-.37.74-.29 1.4-.63 1.97-1.03.02-.02.03-.04 0-.06 0-.02-.02-.03-.04-.01-.65.48-1.3.8-1.96.94Z" fill="#EDB717"/><path d="m23.6 24.68.11-.05c.14-.07.16-.05.05.06-.15.15-.32.18-.49.1-.1-.04-.14-.12-.13-.22 0-.1.03-.11.08-.02.03.06.08.1.15.13.07.04.15.04.23 0Zm-1.08.28c-.12.17-.26.2-.43.1l.58-.41c.13-.1.15-.08.05.05l-.2.26Zm-.92-.26c.13-.12.2-.09.2.1 0 .21-.07.33-.23.36-.05 0-.1 0-.13-.05a.14.14 0 0 1-.03-.15.6.6 0 0 1 .19-.26Z" fill="#36270B"/><path d="M32.55 25.03c.02.15-.04.21-.18.18-.1-.02-.13-.08-.11-.17.02-.15.1-.19.2-.13.05.03.08.07.09.12Z" fill="#F5C33D"/><path d="M37.05 26.12c.22-.28.39-.58.5-.9.03-.14.1-.16.22-.1.13.1.22.2.28.35.04.1.02.18-.06.24a2.6 2.6 0 0 1-.87.5c-.13.06-.16.03-.07-.09Z" fill="#FDE066"/><path d="M39.06 30.03c.87.46 1.32 1.13 1.35 2 .02.48-.12.9-.42 1.25-.33.4-.71.49-1.15.28-.02-.01-.03-.03-.02-.06l.03-.06c.02-.06.05-.07.1-.05.25.1.47.08.67-.05.2-.12.31-.32.34-.58.07-.75-.05-1.3-.37-1.64a3.4 3.4 0 0 0-1.28-.64l-.71-.25a2.84 2.84 0 0 1-1.45-1.21 7.88 7.88 0 0 1-.67-1.94c-.15-.58-.5-1.1-1.02-1.54-.03-.02-.04-.06-.02-.1l.01-.01c.02-.02.04-.02.06 0a4 4 0 0 1 1.56 1.3c.13.18.3.51.5 1 .21.48.38.82.51 1.02.23.34.5.55.8.64.87.24 1.54 0 2.04-.71.34-.5.35-.91.02-1.27-.15-.18-.12-.25.1-.22l.31.04c.2.02.33.12.42.3.18.39.03.85-.45 1.4-.38.41-.8.75-1.26 1-.06.03-.06.06 0 .1Z" fill="#F5C33D"/><path d="M20.74 25.75c.11-.07.17-.17.14-.22-.04-.05-.15-.02-.25.05-.1.08-.17.18-.13.22.03.05.14.03.24-.05Z" fill="#19180E"/><path d="m22.57 27.3.12-1.47c.2.5.15.98-.12 1.48Zm9.9-1.31c.1.1.22.18.39.23.1.03.1.06 0 .1a.31.31 0 0 1-.22-.02.43.43 0 0 1-.26-.26c-.05-.15-.02-.17.09-.05Zm-9.04.51a.29.29 0 0 1 .13-.15c.08-.04.1-.02.08.06-.05.22-.18.34-.39.36-.12 0-.13-.03-.04-.1.07-.07.15-.12.22-.17Z" fill="#36270B"/><path d="m34.6 26.57-.82.87a.11.11 0 0 1-.13.03l-.56-.2a.11.11 0 0 1-.08-.11l-.01-.4c0-.08.03-.12.1-.13l1.39-.27c.06-.01.1 0 .13.06s.02.1-.02.15Z" fill="#FDE066"/><path d="M21.51 26.73c.03.08.07.14.1.13.01 0 .01-.08-.02-.16-.02-.07-.06-.13-.08-.12-.03 0-.02.07 0 .15Z" fill="#36270B"/><path d="M29.79 27.38c.38.33.86.34 1.44.01.11-.06.21-.04.3.06.23.27.33.57.32.88-.01.1-.06.15-.17.14a5.21 5.21 0 0 1-1.64-.35c-.68-.29-.85-.68-.53-1.2.05-.07.1-.07.15 0 .04.07.06.14.05.22-.01.1.01.18.08.24Z" fill="#FDE066"/><path d="m25.74 27.21.07.01a10.71 10.71 0 0 0 .3 0 5.5 5.5 0 0 1-1.29-.05c-.02 0-.03-.01-.03-.03v-.06c0-.03.02-.04.05-.04a5 5 0 0 1 .9.17Zm-4.02.55v-.08.08Z" fill="#C09910"/><path d="M27.43 28.56v.05c-.4.12-.8.14-1.22.07-.03 0-.05-.03-.04-.06 0-.03.01-.05.05-.05.4.04.8.03 1.2-.01Z" fill="#50535D"/><path d="m18.56 31.41-.05-.05c-.03-.03-.03-.06 0-.09l1.89-2c.03-.03.06-.03.1 0l.04.04-1.98 2.1Zm7.81.49.08.15c.16.3.24.54.26.71.03.44.04.86.02 1.28a1 1 0 0 1-.12.45c-.08.17-.17.24-.26.22-.08-.02-.08-.03 0-.05.06-.02.1-.05.13-.1a.17.17 0 0 0 .03-.1l.03-1.16a2.4 2.4 0 0 0-.5-1.63c-.15-.18-.23-.15-.24.08v.23a.3.3 0 0 1-.16.25c-.1.05-.2.05-.29-.01a2.05 2.05 0 0 0-.84-.33c-.03 0-.04-.02-.04-.05l.02-.06.02-.01c.27.12.55.2.85.25.15.02.22-.04.21-.2a2.69 2.69 0 0 0-1.56-2.37c.03-.04.07-.04.1 0a.3.3 0 0 0 .1.08c.2.1.38.2.55.33.23.16.55.26.97.29.1 0 .15-.04.15-.14l-.01-.53c0-.02 0-.03.02-.03h.03l.01.03.09.66c0 .12-.04.18-.16.18l-.37-.02c-.14 0-.17.06-.1.18.1.19.17.4.2.65 0 .08.05.13.12.17l.68.29c.04.02.06.05.05.1 0 .03-.01.05-.03.06a.13.13 0 0 0-.04.15Z" fill="#36270B"/><path d="m29.4 32.34-.19.07-1.51-2.08.74-.02c.5 0 .88-.02 1.12-.07.54-.1 1.08-.2 1.63-.32.1-.02.26-.07.47-.15.44-.17.77-.22.99-.13.9.35 1.78.76 2.63 1.22.07.04.1.1.11.17a.2.2 0 0 1-.07.2c-.66.56-1.58.94-2.78 1.12-.96.16-1.97.17-3.03.05-.03 0-.07-.02-.11-.06Z" fill="#FDE066"/><path d="M23.28 31.38c-.2-.05-.32-.2-.39-.44-.04-.14 0-.16.1-.05.3.31.65.54 1.08.68.05.02.07.06.05.11l-.02.06c-.01.02-.02.02-.04.02a1.8 1.8 0 0 1-.4-.19c-.15-.1-.28-.16-.38-.19Z" fill="#36270B"/><path d="m30.5 34.83-.37-.4-.92-2.02.19-.07c.08.25.19.38.34.38h.78c1.3.02 2.26-.02 2.9-.13 1.13-.2 1.9-.6 2.34-1.22.05-.07.11-.09.19-.03.51.37.96.83 1.35 1.37.42.6.68 1.18.78 1.77.02.1-.02.17-.12.2-2.2.83-4.42 1-6.66.52a2 2 0 0 1-.8-.37Z" fill="#F5C33D"/><path d="M22.98 31.81c-.02.17.03.3.1.32.09 0 .17-.11.19-.28.02-.16-.03-.3-.1-.3-.09-.02-.17.1-.2.26Zm-4.34-.15c0-.06.04-.08.09-.06.07.02.1.06.11.1.02.08 0 .1-.08.07-.08-.04-.12-.07-.12-.1Zm8.18.11c.45.05.82.01 1.1-.13.16-.08.22-.03.18.16a.2.2 0 0 1-.06.11.25.25 0 0 1-.15.07c-.41.04-.77 0-1.09-.14-.14-.06-.13-.09.02-.07Zm-2.76.53c.04.12.09.23.11.22.03 0 .02-.12-.02-.25-.03-.14-.08-.24-.1-.23-.03 0-.02.12.01.25Zm-.61 1.15c-.15-.28-.3-.55-.46-.8v-.04c.03-.02.04-.02.06 0 .24.33.46.66.66.98.03.06.04.11 0 .17a.16.16 0 0 1-.13.1h-.1c-.14.01-.16-.03-.07-.12s.1-.18.04-.29Zm1.91.81-.04.05c-.02.02-.03.02-.05 0-.4-.3-.75-.64-1.03-1.02a.27.27 0 0 1-.05-.15v-.16c.03-.1.07-.1.11-.01.27.5.62.93 1.06 1.29Zm3.65-1.16.05 1.45c.01.2-.06.36-.21.48a.55.55 0 0 1-.5.13 2.26 2.26 0 0 1-1.1-.73h.05a3 3 0 0 0 1.09.52c.08.02.15 0 .22-.05.06-.05.1-.11.1-.2l.14-1.74c.08 0 .13.06.16.15Z" fill="#36270B"/><path d="M21.31 33.87c-.14.15-.11.24.1.24l1.14.05c.04 0 .06.02.06.06v.08c0 .06-.03.08-.08.08l-.33.01c-.47.02-.8 0-.96-.07a.44.44 0 0 0-.38 0c-.07.04-.13.02-.17-.05a.1.1 0 0 1-.02-.06l.03-.06.91-.79h.05l.06.04c.02.01.02.02 0 .04l-.4.43Zm1.67.19c.09-.05.14-.12.12-.16-.02-.05-.11-.05-.2 0-.08.04-.14.1-.12.15.03.05.11.05.2 0Zm4.32.37h-.05a.45.45 0 0 1-.22-.2c-.02-.07 0-.09.06-.07.1.04.17.13.21.27Z" fill="#C09910"/><path d="M25.63 34.5c.1.05.19.08.2.06.02-.03-.04-.1-.14-.16-.09-.07-.18-.1-.2-.07-.01.03.05.1.14.16Z" fill="#36270B"/><path d="M30.5 34.83c.05.38.2.6.44.67.44.13 1.07.26 1.9.38 1.63.26 3.39.06 5.28-.6.1-.02.15 0 .17.1.17.84.2 1.64.07 2.4a.3.3 0 0 1-.19.23c-2.18.89-4.4 1-6.63.36l-.86-.53a.18.18 0 0 1-.1-.18 8.46 8.46 0 0 0-.45-3.23l.37.4Z" fill="#EDB717"/><path d="M24.89 34.77c0 .13.05.23.1.23s.08-.11.08-.24-.05-.23-.1-.23c-.06 0-.1.1-.08.24Z" fill="#36270B"/><path d="M27.51 35.13a13 13 0 0 1-.2.82l-.05-.01c-.04-.01-.06-.03-.04-.07.06-.25.14-.5.22-.75 0-.03.02-.03.05-.03.02 0 .03.02.02.04Z" fill="#C09910"/><path d="M22 37.97c-.13.08-.3.14-.5.18a.52.52 0 0 1-.28-.06L19.84 37l-.3-.26c-.08-.06-.08-.11 0-.17a.6.6 0 0 1 .31-.1l3.76-.34a.1.1 0 0 1 .11.05c.02.04.03.08.01.12-.33.78-.9 1.33-1.72 1.67Z" fill="#EDB717"/><path d="M24.9 36.91c.03.16.08.29.12.28.05 0 .07-.14.05-.3-.02-.16-.07-.29-.12-.28-.04 0-.06.14-.04.3Z" fill="#C09910"/><path d="M21.87 36.95c.37-.02.66-.08.66-.15 0-.06-.3-.1-.67-.08-.36.02-.66.08-.66.14 0 .06.3.1.67.09Zm-2.03.05c.5.39.96.75 1.38 1.1.04.02.14.04.29.05l-.25.08A2.85 2.85 0 0 1 19.84 37Z" fill="#50535D"/><path d="M23.36 37.69c-.07.09-.1.18-.06.21.04.03.12-.03.18-.12.07-.1.09-.2.06-.22-.04-.02-.12.03-.18.13Z" fill="#C09910"/><path d="M22 37.97c.07.07.12.1.17.1-.44.31-.75.37-.91.16l.25-.08c.2-.04.36-.1.5-.18Z" fill="#36270B"/><path d="M31.2 38.52c.42.25.87.43 1.35.52 1.9.37 3.77.22 5.59-.45.06-.03.1 0 .08.06a3.1 3.1 0 0 1-.5 1.22 11.56 11.56 0 0 1-5.33 2.95c-2.27.55-4.24.3-5.91-.76a6.56 6.56 0 0 0 2.5-1.4 4.52 4.52 0 0 0 1.45-2.45c.03-.13.1-.15.2-.08l.57.39Z" fill="#DBAC0E"/><path d="M20.12 39.55c-.07.05-.07.11.01.16a7 7 0 0 0 1.4.74c.2.08.2.1-.02.07-.6-.1-1.13-.35-1.61-.76-.1-.08-.1-.16 0-.24a3.54 3.54 0 0 1 1.1-.61l.01.06v.02c-.32.16-.62.34-.89.56Zm5.2.3a2.3 2.3 0 0 1-2.13-.15v-.02l.03-.05c.02-.04.05-.05.09-.03.33.19.74.26 1.24.21a3.5 3.5 0 0 0 1.23-.35c.26-.13.3-.07.14.18a7 7 0 0 0-.59 1.04c-.09.2-.03.28.17.28.32 0 .62.02.91.08.23.04.23.08 0 .13-.32.06-.67.05-1.05-.03-.2-.05-.26-.16-.2-.35.07-.27.19-.5.33-.7.2-.28.15-.36-.17-.24Z" fill="#36270B"/><path d="M23.12 41.33c.12.42.46.62 1 .62.08 0 .11.04.1.13l-.03.06-.02.01c-.43-.1-.84-.28-1.23-.52a.14.14 0 0 1-.07-.11.23.23 0 0 1 .1-.25c.08-.04.13-.02.15.06Z" fill="#50535D"/><defs><linearGradient id="a" x1="10.42" y1="9.71" x2="68.15" y2="76.02" gradientUnits="userSpaceOnUse"><stop stop-color="#1A1E21"/><stop offset="1" stop-color="#06060A"/></linearGradient></defs></svg>