<svg width="56" height="56" viewBox="0 0 56 56" xmlns="http://www.w3.org/2000/svg"><path fill-rule="evenodd" d="M28 45a17 17 0 1 0 0-34 17 17 0 0 0 0 34Zm0-1a16 16 0 1 0 0-32 16 16 0 0 0 0 32Z" fill="#FFCA2A"/><path d="M25 32.7v4.9c0 .87-.7 1.4-1.43 1.4a1.4 1.4 0 0 1-1.14-.58l-5.08-6.84a1.75 1.75 0 0 1-.12-1.92l.25-.42a4.02 4.02 0 0 0 .04-3.92l-.02-.04a1.75 1.75 0 0 1 .24-2.01l5.2-5.77c.32-.35.75-.51 1.18-.5.46.01.91.23 1.2.64A3.24 3.24 0 0 0 28 19c1.01 0 2.03-.44 2.68-1.36a1.52 1.52 0 0 1 2.38-.14l5.2 5.77c.5.55.6 1.35.24 2l-.02.05a4.02 4.02 0 0 0 .04 3.92l.25.42c.34.61.3 1.36-.12 1.92l-5.08 6.84c-.3.4-.72.58-1.14.58A1.4 1.4 0 0 1 31 37.59v-4.9c0-.98.53-1.77 1.52-1.77.82 0 1.48-.65 1.48-1.46v-3.93c0-.84-.7-1.53-1.56-1.53h-8.88c-.86 0-1.56.69-1.56 1.53v3.93c0 .8.66 1.46 1.48 1.46 1 0 1.52.81 1.52 1.79Z" fill="#FFCA2A"/></svg>