<svg width="56" height="56" viewBox="0 0 56 56" xmlns="http://www.w3.org/2000/svg"><path d="M13.7 37.3c-2.57-4.51-2.34-10.79 1.5-14.5a18.8 18.8 0 0 1 1.45-1.33.4.4 0 0 0 .18-.33c-.02-2.43.3-4.62 1.79-6.6 2.23-2.95 4.9-1.06 6.68 1.16a.22.22 0 0 0 .17.08h4.44a.33.33 0 0 0 .28-.15c.73-1.16 2.3-2.52 3.8-2.62 1.44-.11 2.8 1.3 3.44 2.48a9.17 9.17 0 0 1 1.18 4.07c.01.3.12.58.3.82.38.49.6 1.08.66 1.79a.68.68 0 0 0 .28.49 10.07 10.07 0 0 1 2.48 13.71c-.27.4-.66.75-.82 1.11a.74.74 0 0 0-.06.36c.16 1.94-.57 3.2-2.18 3.76-1.36.48-2.75.3-4.16-.53a.53.53 0 0 0-.37-.06c-2.93.53-5.89.56-8.86.08a.53.53 0 0 0-.46.14c-1.23 1.2-4.7.9-5.82-.25a.29.29 0 0 0-.17-.08.3.3 0 0 0-.2.05c-1.17.78-2.09.59-3.86.45-.2-.01-.4-.08-.57-.19-1.4-.87-1.76-2.06-1.09-3.56a.38.38 0 0 0-.02-.35Z" fill="#020102"/><path d="m31.89 17.84.59-2.6c.62-.93 1.44-1.16 2.45-.7.14.07.26.16.37.26a7.01 7.01 0 0 1 1.96 4.18.25.25 0 0 1-.17.16.26.26 0 0 1-.12.01c-.33-.05-1.01-.24-1.42-.2-2.8.36-3.98 2.01-3.53 4.97a10.8 10.8 0 0 0-3.56.15c-.88.22-1.44.35-1.67.39 1.52-3.9-2.43-7.26-5.74-4.4-1.45 1.25-1.67 2.86-.66 4.82a3.7 3.7 0 0 0-.04 1.76 1.02 1.02 0 0 1-.43 1.1c-1.9 1.25-4.02 2.96-2.16 5.46a6.5 6.5 0 0 0-.49 2.26 6.79 6.79 0 0 1-2.36-4.2c-.14-1.23-.22-2.9-.69-4.06-.07-.17-.05-.39.04-.64-.01-.16.03-.27.12-.32 1.42-1.5 2.84-2.92 4.26-4.3 1.1-1.06.92-2.25.96-3.84 0-.16.02-.32.06-.48l.8-3.02c1.39-1.18 3.82 1.58 4.62 2.72.03.05.08.08.14.1.05.02.11.01.17 0a8.83 8.83 0 0 1 6.5.42Z" fill="#0A9FF8"/><path d="m20.45 14.6-.79 3.02c-.04.16-.06.32-.06.48-.04 1.59.14 2.78-.96 3.84-1.42 1.38-2.84 2.8-4.26 4.3.52-1.44 1.22-2.43 2.1-2.98.63-.4 1.2-.76 1.7-1.12a.63.63 0 0 0 .27-.56c-.13-1.48-.13-6.26 2-6.98ZM32.48 15.24l-.6 2.6-.61-.98a.43.43 0 0 1-.04-.37c.22-.6.64-1.01 1.25-1.25Z" fill="#003BA1"/><path d="M36.29 20.1c-.85-.21-1.69.24-1.88 1.02-.18.77.35 1.56 1.2 1.76.84.2 1.68-.25 1.87-1.02.2-.77-.34-1.56-1.19-1.77ZM32.02 23.92c.9 1.73 2.32 2.46 4.28 2.2a2.98 2.98 0 0 0 2.38-1.7 3.4 3.4 0 0 0 2.42 1.31 8.65 8.65 0 0 1 1.55 5.5 8.7 8.7 0 0 1-2.49 5.85c-1.37.69-2.82 1.13-4.34 1.32-3.6.59-7.1.42-10.54-.52l-3.75-1.9-2.15-2.14a.83.83 0 0 0-.33-.2l-1.29-.44c-1.86-2.5.26-4.21 2.16-5.47a1.02 1.02 0 0 0 .43-1.09 3.7 3.7 0 0 1 .04-1.76 3.85 3.85 0 0 0 6.4-.42c.23-.04.8-.17 1.67-.39a10.8 10.8 0 0 1 3.56-.15Z" fill="#EAFCFC"/><path d="M41.1 25.73a3.4 3.4 0 0 1-2.42-1.3c.54-.94 1.35-.5 2.42 1.3Z" fill="#0A9FF8"/><path d="M14.26 26.56c-.1.25-.1.47-.04.64.47 1.15.55 2.83.7 4.06a6.79 6.79 0 0 0 2.35 4.2 6.51 6.51 0 0 0 1.88 2.87c.08.16.08.41-.02.76a.34.34 0 0 1-.07.12l-1 1.17a.8.8 0 0 1-.8.26.8.8 0 0 1-.59-.62l-.06-.32a.18.18 0 0 0-.2-.15.2.2 0 0 0-.18.18v.59a.18.18 0 0 1-.18.18h-.28a.25.25 0 0 1-.25-.23l-.08-.76a.17.17 0 0 0-.16-.1.17.17 0 0 0-.15.12l-.07.21a.22.22 0 0 1-.2.15.22.22 0 0 1-.21-.14c-.37-.92-.18-1.65.56-2.17a.2.2 0 0 0 .05-.28c-2.1-2.92-2.12-6.57-1.4-10 .07-.33.2-.58.4-.74Z" fill="#003BA1"/><path d="m21.53 35.99-1.26 1.6c-.43-.22-.8.02-1.12.74a6.52 6.52 0 0 1-1.88-2.87 6.5 6.5 0 0 1 .5-2.26l1.28.43c.13.05.24.12.33.2L21.53 36Z" fill="#7281CF"/><path d="m21.53 35.99 3.75 1.9-.04 1c-.19.36-.31.76-.38 1.2-.07.5-.31.73-.77.81a.23.23 0 0 1-.23-.12.22.22 0 0 1-.03-.09c-.01-.39-.14-.6-.37-.6a.18.18 0 0 0-.17.12l-.2.52a.49.49 0 0 1-.49.32.49.49 0 0 1-.45-.37l-.13-.53a.25.25 0 0 0-.28-.19.26.26 0 0 0-.23.26v.13a.36.36 0 0 1-.53.32.35.35 0 0 1-.16-.18 5.55 5.55 0 0 1-.55-2.9l1.26-1.6ZM40.16 37.08c.22.87.5 2.63-.36 3.2a.2.2 0 0 1-.17.03.2.2 0 0 1-.13-.13c-.07-.2-.14-.32-.19-.35a.25.25 0 0 0-.4.17c-.06.57-.24.86-.55.87-.21 0-.33-.09-.34-.26v-.48a.2.2 0 0 0-.12-.19.2.2 0 0 0-.22.07l-.31.44a.69.69 0 0 1-1.24-.26c-.15-.7-.35-1.01-.6-.92a.8.8 0 0 1 .29-.87c1.52-.19 2.97-.63 4.34-1.32Z" fill="#0A9FF8"/><path d="M35.82 38.4a.8.8 0 0 0-.28.87 18.55 18.55 0 0 1-9.26.6.33.33 0 0 1-.27-.32c0-.42-.26-.64-.77-.66l.04-1c3.43.93 6.94 1.1 10.54.51Z" fill="#7281CF"/><path d="M24.56 20.14c-.83-.24-1.7.2-1.92.97-.22.78.27 1.6 1.11 1.84.84.24 1.7-.2 1.92-.97.22-.78-.27-1.6-1.1-1.84Z" fill="#EAFCFC"/><path d="m30.4 27.66-.7.62c-1.02.88-2.06.95-3.1.22-.46-.33-.66-.82-.59-1.45a.89.89 0 0 1 .14-.4c.08-.1.18-.19.28-.23.11-.04.22-.05.33 0 .1.03.2.11.26.22.12.2.25.39.37.54a.6.6 0 0 0 .2.18.5.5 0 0 0 .26.05c1.1-.06 1.82-.69 2.16-1.88.05-.16.13-.3.25-.4a.57.57 0 0 1 .77.04c.12.1.2.25.24.41.34 1.28 1.88 2.6 2.68 1.13.06-.11.14-.2.24-.24.1-.05.22-.05.32-.02.11.03.21.1.3.2.07.1.13.23.16.37.1.5-.04.92-.4 1.28-1.23 1.18-2.63.57-3.75-.62a.3.3 0 0 0-.2-.1.3.3 0 0 0-.22.08Z" fill="#020102"/></svg>