<svg width="112" height="112" viewBox="0 0 56 56" xmlns="http://www.w3.org/2000/svg"><path d="M46.35 23.19c.07.15.15.29.23.42.12.19.2.33.24.43.24.66.2 1.42.11 2.12a3.3 3.3 0 0 1-.84 1.81c-.58.67-1.15 1.35-1.73 2.06-.2.25-.35.53-.55.8-.67.85-1.02 2.08-1.66 2.76-.31.35-.6.62-.83.82-.32.27-.63.55-.92.83a9.94 9.94 0 0 1-2.8 1.85c-.44.2-.86.43-1.28.67-.4.24-.8.45-1.22.63-1.21.53-2.37 1.09-3.46 1.66a.33.33 0 0 1-.12.04c-.06 0-.1.03-.15.07a258.58 258.58 0 0 1-2.38.94c-.4.14-.79.22-1.19.3-.18.03-.32.13-.5.14a.12.12 0 0 0-.08.03.58.58 0 0 1-.2.1l-1.28.42c-.27.09-.53.16-.8.22a5 5 0 0 0-.77.25.21.21 0 0 1-.12.01.16.16 0 0 0-.15.04.12.12 0 0 1-.07.03c-.29.03-.57.1-.87.2-.14.05-.45.09-.92.12l-2.79.04-.4-.06a2.17 2.17 0 0 1-.38-.1c-.67-.23-1.37-.46-2-.8-.3-.17-.6-.32-.9-.47a.44.44 0 0 0-.44.03c-.3.22-1.17.79-1.52.64-.17-.06-.32-.1-.45-.1-.38-.24-.7-.56-.93-.95-.1-.2-.17-.37-.18-.53-.03-.78.27-1.46.96-1.82.24-.12.47-.28.69-.46.1-.1.17-.23.18-.4.05-1 .18-2.04.19-3.07v-4.7c0-.9-.18-1.7-.55-2.38-.38-.7-.7-1.47-.95-2.18a.63.63 0 0 1-.04-.23l.1-2.4.02-.25.04-.17c.01-.04 0-.07-.04-.08a.3.3 0 0 0-.2.01.23.23 0 0 0-.13-.01.44.44 0 0 1-.32-.44c0-.61.03-1.21.06-1.8 0-.04.02-.06.06-.06.69-.01 1.33 0 1.94.01.26 0 .5-.02.7-.08a.1.1 0 0 0 .07-.06c.15-.4.25-.84.3-1.32.05-.5.27-1.05.64-1.36.48-.4.98-.84 1.49-1.14.79-.46 1.6-.83 2.42-1.1.26-.09.54-.15.84-.19.55-.07 1.1-.2 1.65-.3.6-.13 1.16-.1 1.75-.2.95-.15 1.64-.23 2.1-.24 1.23-.04 2.52-.05 3.85-.04.15 0 .28-.01.39-.04.37-.09.7-.14 1-.14 1.9-.02 3.7-.03 5.4 0 .2 0 .42.03.63.02.1 0 .18 0 .25.02l1 .15c.27.04.54.17.75.32a9.21 9.21 0 0 1 3.16 3.57c.5.99.95 1.93 1.76 2.72.75.74 1.52 1.5 2.14 2.37Z"/><path d="M39.3 34.45c-.22.05-.41.13-.6.23a42.25 42.25 0 0 1-5.75 2.76c-.48.17-.96.32-1.44.43-1.8.43-3.32.75-4.58.98a32.38 32.38 0 0 1-3.9.4l-3.02.04c-.38 0-.76-.01-1.14-.04-.23-.02-.36-.17-.57-.21a.04.04 0 0 1-.03-.03.04.04 0 0 1 .01-.04l1.17-1.02c.03-.03.06-.03.09 0 .1.11.24.16.4.16.05 0 .09.01.13.03.09.04.15.09.26.1.93.14 1.97.2 3.12.16 2.04-.07 3.8-.18 5.27-.33a8.04 8.04 0 0 0 1.79-.44 47.32 47.32 0 0 0 6.3-2.79 3.94 3.94 0 0 0 .61-.42v-.03a.04.04 0 0 0-.03-.02h-.04a60.5 60.5 0 0 1-7.23 3.15c-.49.17-.98.28-1.49.34a63.24 63.24 0 0 1-7.78.27c-.3-.03-.52-.18-.83-.2-.36-.04-.4-.17-.12-.4.48-.38.96-.8 1.45-1.24a.4.4 0 0 1 .32-.1c.47.05.97.09 1.48.1 1.46.04 2.89.03 4.3-.02 1.92-.07 3.76-.43 5.52-1.07a13.86 13.86 0 0 0 3.93-2.5c.9-.74 1.66-1.6 2.31-2.57a57.53 57.53 0 0 1 1.82-2.61v-.08c-.11-.25-.03-.53.08-.76.35-.7 1.3-.08 1.68-.54a.17.17 0 0 0-.06-.27l-1.2-.52c-.42-.2-.55-.73-.66-1.16a.7.7 0 0 0-.25-.38.19.19 0 0 0-.3.1c-.08.32-.26.57-.53.76a8.97 8.97 0 0 1-1.9.96l-.01-.65v-.02h.02l1.1-.04c.05 0 .07-.03.07-.08v-1c0-.06.03-.1.1-.1h.98a.1.1 0 0 0 .08-.03.11.11 0 0 0 .03-.08v-.4c0-.05.02-.07.06-.07.56-.02 1.04 0 1.43.06.8.13 1.76 1.58 1.68 2.39-.02.17-.07.35-.14.53-.15.4-.27.8-.34 1.2-.02.11.02.2.1.28.39.35.82-.78.9-1.02a3.27 3.27 0 0 0-.48-3.02 2.59 2.59 0 0 0-1.94-1.18.1.1 0 0 1-.07-.04.11.11 0 0 1-.03-.07v-.4c0-.04.02-.06.07-.06.48.02.97.05 1.47.1.23.01.42.14.67.12a.3.3 0 0 1 .23.09c.26.27.52.6.78.97.2.3.32.6.34.98.04.75.02 1.52-.06 2.3-.03.26-.11.53-.2.76-.24.58-.9.9-1.43 1.16-.1.04-.2.12-.27.2-.14.11-.12.15.05.1.74-.24 1.6-.59 1.87-1.4.13-.39.21-.82.24-1.29.03-.71.02-1.4-.02-2.07-.05-.73-.77-1.62-1.35-1.93l-.28-.19a.18.18 0 0 0-.11-.03h-1.94c-.04 0-.06-.01-.06-.06v-1.48c0-.04-.01-.06-.06-.06-1.86.02-3.74.03-5.65 0-.1 0-.3-.04-.58-.13a4.45 4.45 0 0 0-.59-.15c-.8-.15-1.59-.17-2.4-.14-.41.01-.87.14-1.26.32-.14.06-.29.1-.45.1-2.03.01-3.98.02-5.88.01-.04 0-.06-.02-.05-.06.03-.51-.1-.96-.4-1.33-.02-.04-.06-.04-.1-.02a.06.06 0 0 0-.03.04.33.33 0 0 0 .03.25c.17.3.38.7.35 1.07 0 .04-.02.06-.07.06l-8.61-.01c-.04 0-.06-.02-.05-.06.06-.37.1-.76.15-1.18.09-.81.93-1.4 1.6-1.82.73-.46 1.43-.81 2.08-1.07.76-.29 1.6-.3 2.43-.32.34 0 .67 0 1 .02 1.33.06 2.34.04 3.03-.04 1.34-.15 2.57-.27 3.7-.35 1.47-.1 2.86-.07 4.2.4 1.87.66 3.61 1.6 5.22 2.84.1.08.2.12.31.14.12 0 .14-.03.04-.1a22.91 22.91 0 0 0-3.5-2.3 10.14 10.14 0 0 0-5.59-1.22c-.66.04-1.32.06-1.99.14-1.2.14-2.28.24-3.24.29a74.46 74.46 0 0 1-2.72.03.06.06 0 0 1-.02-.05v-.03c0-.06.02-.1.08-.11.97-.18 1.85-.3 2.66-.34 1.08-.06 2.14-.15 3.2-.17 3.1-.08 6.23-.08 9.4-.02.48.01.9.11 1.23.3 1.62.92 2.6 2.59 3.34 4.25a5.66 5.66 0 0 0 1.06 1.75.14.14 0 0 1-.04.14.13.13 0 0 1-.07.03l-.9.1a.08.08 0 0 0-.04.03.08.08 0 0 0-.03.05v.04c0 .01 0 .02.03.02.43 0 1.05-.05 1.46.12.17.07.34.1.49.22.45.37.93.91 1.43 1.62.33.46.53.9.6 1.32a4.37 4.37 0 0 1-.86 3.06 3 3 0 0 1-1.65 1.26.3.3 0 0 0-.17.12.1.1 0 0 0-.01.1c.02.05.05.06.1.04.1-.06.18-.09.26-.1.2-.02.23.04.1.19a6.2 6.2 0 0 0-1.15 1.62c-.37.75-.71 1.51-1.27 2.14-.35.4-.8.86-1.33 1.36-.41.38-.87.73-1.39 1.06a26.89 26.89 0 0 1-3.65 1.97c-1.64.72-3.17 1.5-4.77 2.3-.6.29-1.3.54-1.98.67-1.01.2-2.04.45-3.08.75-1.38.4-2.77.65-4.17.7-.94.04-1.76.04-2.46 0A6.2 6.2 0 0 1 16 41.01a.06.06 0 0 1 .02-.05l1.97-1.73a.17.17 0 0 1 .22 0c.09.08.15.14.26.16.54.1 1.06.13 1.57.11l3.65-.1c.74 0 1.41-.11 2.13-.18l.85-.11a53.6 53.6 0 0 0 4.73-.98c1-.26 1.98-.6 2.92-1 1.7-.73 3.31-1.55 4.84-2.46.07-.04.13-.1.17-.18.01-.03 0-.05-.04-.04Z" fill="#fff"/><path d="M29.5 16.17c1.32-.09 2.89.05 4.2.35.61.14 1.33.42 2.14.83a7.94 7.94 0 0 1 2.65 2.2.04.04 0 0 1-.02.03l-.02.02a.1.1 0 0 1-.11-.01c-.5-.47-1-.97-1.53-1.36a9.18 9.18 0 0 0-2.18-1.16 9.15 9.15 0 0 0-1.87-.53c-.92-.13-1.88-.19-2.88-.18-.65.01-1.3.13-1.93.22-.45.07-.85.18-1.33.2-1.34.07-2.69.07-4.04-.01a7.58 7.58 0 0 1-.9-.1 5.67 5.67 0 0 0-1.64-.05 1.9 1.9 0 0 0-.78.37h-.04l-.01-.02a.15.15 0 0 1 0-.15.47.47 0 0 1 .13-.16c.3-.24.72-.33 1.24-.28.6.06 1.2.1 1.8.17.42.05.84.08 1.24.08 1.29.03 2.53.08 3.79-.15.69-.12 1.38-.26 2.08-.3Z"/><path d="M29.6 17.3c.05-.04.1-.07.17-.07.93-.04 1.86-.02 2.8.05a7.2 7.2 0 0 1 2.87.76 7.34 7.34 0 0 1 2.02 1.71.07.07 0 0 1-.04.05l-.02.02c-.06.04-.11.03-.16-.02a9.5 9.5 0 0 0-1.48-1.29c-.5-.36-1.09-.54-1.66-.74-.38-.12-.74-.2-1.09-.23-1.03-.08-1.98-.1-2.86-.03a.21.21 0 0 0-.1.04.1.1 0 0 1-.13 0 .21.21 0 0 0-.1-.03h-.43l-.03-.01a.06.06 0 0 1-.03-.06l.01-.04a.2.2 0 0 1 .16-.07c.04 0 .08 0 .1-.04ZM20.93 17.68a.88.88 0 0 1 .35-.07c.22 0 .42 0 .61.02l1.63.14c.39.04.77.14 1.15.2.1.02.17.08.18.18.02.07-.01.1-.08.08a13.45 13.45 0 0 0-3.38-.36c-.61 0-1.01.27-1.51.58-.45.27-.74.67-.9 1.18-.01.08-.07.12-.15.13-.04 0-.06-.02-.06-.07.05-.39.15-.68.32-.87.25-.3.5-.5.75-.63l.64-.35c.15-.08.3-.09.45-.16ZM29.14 19.38c-.12-.68.07-1.08.49-1.57a.22.22 0 0 1 .2-.08l.08.02c.08.01.09.05.03.1-.4.42-.7.92-.7 1.5 0 .02 0 .03-.02.04l-.05.01c-.02 0-.03 0-.03-.02Z"/><path d="M15.37 22.51h-1.04c-.01 0-.03 0-.04-.02a.06.06 0 0 1-.01-.04l-.01-1.07a.06.06 0 0 1 .01-.04l.02-.01h.02l1.08-.02a.06.06 0 0 1 .05.03v.03l-.03 1.09-.01.03a.05.05 0 0 1-.04.02ZM16.64 22.6v1.12a.06.06 0 0 1-.05.02h-1.08a.06.06 0 0 1-.05-.04v-1.1c0-.02 0-.03.02-.04a.06.06 0 0 1 .04-.02h1.07a.06.06 0 0 0 .05-.03.06.06 0 0 0 .01-.04v-1.1c0-.01 0-.03.02-.04a.06.06 0 0 1 .04-.02h1.03l.04.02.02.04v1.1l-.02.04a.06.06 0 0 1-.04.02l-1.04.01-.04.02a.06.06 0 0 0-.02.04ZM28.48 23.75h1.07a.06.06 0 0 1 .05.03v1.08l.01.04.04.02 1.1.02c.03 0 .04.02.04.04l.01.41c0 .03-.01.04-.04.03a2.4 2.4 0 0 0-1.71-.1.1.1 0 0 0-.03.03c-.08.14-.07.26.03.36.06.05.13.09.2.1l.83.17c.13.03.24.1.33.2.3.37-.19.85-.41 1.15a.2.2 0 0 0-.04.13c.01.15.07.28.19.39.03.03.07.04.12.03.54-.17.91-.5.9-1.08a6.4 6.4 0 0 1 .03-.63l.03-.01 5.37-.01c.04 0 .04.01.01.04a.8.8 0 0 1-.28.19 106 106 0 0 1-5.58 1.8c-1.58.46-3.2.77-4.87.92-1.08.1-2.13.1-3.14 0a8.43 8.43 0 0 1-3.36-1.09c-.73-.4-1.24-.9-1.41-1.79-.01-.04 0-.07.05-.07h3.6l.05.01.02.03a.08.08 0 0 1 0 .08c-.23.26-.55.46-.89.54-.37.09-.68.27-.93.55-.2.2-.17.25.08.12.47-.25.92-.46 1.37-.63a1 1 0 0 1 .5-.05c.04 0 .08.02.1.05l.24.28a.07.07 0 0 0 .05.03.07.07 0 0 0 .05-.02c.3-.28.56-.07.78.16.38.4.75.86 1.2 1.17.45.31 1.25.11 1.58-.2.28-.25.13-.57-.18-.68a.13.13 0 0 0-.12.02l-.28.2a.27.27 0 0 1-.11.05c-.72.1-1.44-.93-1.75-1.48a.15.15 0 0 1 .07-.2.14.14 0 0 1 .07-.02l.15-.01.04-.03a.08.08 0 0 0 .02-.05l.01-.47a.07.07 0 0 1 .05-.07c.29-.09.54-.27.77-.53a.14.14 0 0 1 .1-.05l.16-.01c.05 0 .07-.03.07-.08v-1.05c0-.04.02-.06.06-.06h1.06c.06 0 .1-.04.1-.1v-2.32l.04-.01h2.21c.02 0 .04 0 .05.02l.02.04v2.3c0 .05.01.07.05.07Z" fill="#fff"/><path d="M31.93 23.74h-1.11a.05.05 0 0 1-.02-.05v-1.1l-.01-.03a.05.05 0 0 0-.04-.01l-1.1-.01s-.02 0-.03-.02a.05.05 0 0 1-.02-.03v-1.13l.02-.04a.05.05 0 0 1 .04-.01l1.1-.01h.02a.05.05 0 0 1 .03.05v1.1a.05.05 0 0 0 0 .03.05.05 0 0 0 .04.02h1.12a.05.05 0 0 0 .01-.05v-1.1s0-.02.02-.03a.05.05 0 0 1 .03-.02h1.1c.02 0 .03 0 .04.02l.01.03v1.09c0 .01 0 .03.02.04l.03.01h1.05l.03.01.02.04v1.15l-.01.04a.05.05 0 0 1-.04.01h-1.05l-.03.02a.05.05 0 0 0-.02.04v1.1l-.01.03a.05.05 0 0 1-.04.02H32a.05.05 0 0 1-.01-.05v-1.1a.05.05 0 0 0-.03-.06h-.02Z" fill="#fff"/><path d="M12.32 22.52c.04-.01.08 0 .13.01.07.12.14.2.2.24l-.02.24-.01-.08a.09.09 0 0 0-.06-.08c-.15-.06-.23-.17-.24-.33Z" fill="#136707"/><path d="M19 23.74h-1.15c-.04 0-.05.02-.05.06v1.07c0 .03-.02.05-.06.05h-1.02c-.04 0-.07-.01-.07-.06V23.8c0-.04.01-.06.05-.06h1.04c.04 0 .06-.03.06-.07v-1.05c0-.05.03-.08.08-.08l1.05-.02a.07.07 0 0 1 .07.07v1.15Z" fill="#fff"/><path d="M33.07 22.54h-1a.09.09 0 0 0-.09.08v1.03c0 .05.04.09.08.09h1.01c.05 0 .08-.04.08-.08v-1.03a.09.09 0 0 0-.08-.09Z"/><path d="M35.52 23.74h-1.16a.03.03 0 0 0-.03.03v1.15c0 .02.01.03.03.03h1.16c.02 0 .03-.02.03-.04v-1.14a.03.03 0 0 0-.03-.03ZM15.49 26.09c0 .04.03.06.07.06h1.2c.05 0 .07.02.05.07-.15.34-.25.68-.3 1.04a19.64 19.64 0 0 0-.07 5.2c.06.46.23.97.5 1.54a2.8 2.8 0 0 0 1.64 1.53.04.04 0 0 1 0 .05l-.01.02-3.86 2.15c-.12.06-.17.03-.15-.1.06-.57.1-1.12.1-1.67.07-2.18.08-4.33.04-6.42-.02-1.1-.52-1.98-1.02-2.93a4.91 4.91 0 0 1-.44-2.8c0-.06.04-.1.11-.1l.09.01c.07 0 .1.05.09.12-.12.87-.04 1.68.26 2.45.26.68 1.38 1.09 2.01 1.27.05 0 .07 0 .1-.05v-.03a.05.05 0 0 0 0-.04.04.04 0 0 0-.02-.02c-.54-.24-1.04-.5-1.5-.77-.3-.18-.4-.53-.51-.86a4.33 4.33 0 0 1-.15-1.98c.01-.04.04-.07.08-.07l.4-.02a.07.07 0 0 1 .05.02.08.08 0 0 1 .02.05v1c0 .12.07.17.23.14.07 0 .1.03.09.1-.15.64.34 1.08.8 1.38a.07.07 0 0 0 .1-.02v-.03a.28.28 0 0 0-.08-.22l-.6-.63a.15.15 0 0 1-.04-.1l-.03-.37c0-.08.03-.12.1-.12h.51c.08 0 .12.05.11.13-.03.34-.02.68.03 1.02ZM19 23.74h1.12s.02 0 .03.02l.01.03v1.07c0 .04-.02.06-.06.06l-1.03.01a.07.07 0 0 1-.05-.02.07.07 0 0 1-.02-.05v-1.12ZM39.67 25.69c.19-.1.38-.17.57-.23l.1.01c.24.13.17.38.11.63-.13.67-.5 1.17-1.1 1.5-.57.32-1.18.63-1.83.92a1.1 1.1 0 0 1-.4.1.07.07 0 0 1-.05-.06 4.5 4.5 0 0 1 .1-1.31.76.76 0 0 1 .39-.46c.66-.39 1.36-.76 2.1-1.1Z" fill="#fff"/><path d="M28.82 27.27a.3.3 0 0 0-.19-.05 87 87 0 0 1-1.4-.01c-.15 0-.25-.07-.3-.2a.18.18 0 0 1 .08-.21c.65-.4 1.51-.34 2.24-.25.04 0 .07.02.1.06.19.22.19.48 0 .79-.08.11-.17.13-.28.06l-.25-.19Z"/><path d="M17.4 27.36a.01.01 0 0 1 .02 0c.03 0 .05.02.06.05.02.03.03.06.03.1v.11c0 .05-.02.09-.04.13l-.01.04a.49.49 0 0 1-.15.2c-.06.04-.12.06-.16.04h-.01V28l.26-.65ZM34.82 29.43c-.82.22-1.6.6-2.42.88h-.07a.1.1 0 0 1-.05-.07c-.11-.36-.21-.75-.3-1.18a.76.76 0 0 1 0-.26c0-.04.02-.07.06-.1.18-.11.38-.2.6-.27 1.1-.31 2.14-.64 3.14-.97.17-.06.35-.1.53-.1.04 0 .07.02.08.07.05.27 0 .52-.14.77-.38.61-.75 1.04-1.43 1.23ZM17.59 29.71c.14-.54.28-1.04.56-1.5.03-.03.06-.03.09 0 .06.06.1.14.1.24 0 .6-.04 1.16-.14 1.7-.04.22-.15.27-.35.15a1.13 1.13 0 0 1-.09-.07.47.47 0 0 1-.17-.52ZM38.42 29c.2-.1.41-.2.63-.27.17-.05.2 0 .1.14a22 22 0 0 1-1.28 1.8 4.74 4.74 0 0 1-.57.58.14.14 0 0 1-.16-.04c-.27-.34-.15-.81-.08-1.2.1-.46.97-.83 1.36-1.02ZM19.3 28.91a5.33 5.33 0 0 1 1.04.6c.01.03.02.06.01.08l-.24 1.36c0 .05-.03.07-.08.07-.6-.02-.92-.28-.99-.79-.04-.36-.12-1 .15-1.3.03-.03.07-.04.11-.02ZM31.15 29.06a4.39 4.39 0 0 1 .33 1.47 3.51 3.51 0 0 1-.56.24c-.86.26-1.71.41-2.54.46-.24.02-.46 0-.68-.06a.11.11 0 0 1-.06-.04 8.15 8.15 0 0 1 0-.9c.03-.33.21-.54.57-.63.87-.22 1.82-.41 2.86-.58.03 0 .06 0 .08.04ZM23.53 30.02c.04.02.09.04.12.08s.05.08.05.13c.02.27-.01.55-.09.83 0 .03-.02.06-.05.08a.16.16 0 0 1-.1.04c-.83.06-1.63 0-2.38-.18-.12-.03-.17-.1-.16-.23.04-.38.15-.7.34-.97a.2.2 0 0 1 .17-.09c.7.05 1.4.15 2.1.31ZM24.78 29.96l1.77-.19a.3.3 0 0 1 .23.08.3.3 0 0 1 .1.23v.82c0 .08-.03.16-.1.22a.3.3 0 0 1-.2.1l-1.91.01a.3.3 0 0 1-.24-.12.31.31 0 0 1-.06-.26l.15-.65a.31.31 0 0 1 .1-.16.3.3 0 0 1 .16-.08ZM33.07 31.46c.98-.3 1.87-.73 2.8-1.15.24-.1.36-.03.37.23 0 .3.03.68.2.94l.2.33c.02.04.02.07 0 .1-.15.18-.32.34-.5.47-.46.33-1.23.86-2.32 1.57-.22.15-.39.12-.5-.09-.27-.47-.48-1-.63-1.6-.1-.43.02-.7.38-.8ZM31.98 32.7c.06.59.57.98.57 1.6 0 .07-.01.12-.05.17a.27.27 0 0 1-.13.1c-1.15.44-2.34.73-3.57.86a.35.35 0 0 1-.26-.07.37.37 0 0 1-.14-.24c-.08-.63-.1-1.27-.07-1.94 0-.04.02-.07.04-.1a.85.85 0 0 1 .46-.28c.8-.21 1.67-.49 2.6-.83.12-.05.24-.07.38-.08.06 0 .1.03.1.09l.07.72ZM17.53 33.48c.22.5.45.88.52.85.07-.03-.04-.47-.26-.97-.21-.5-.45-.89-.52-.85-.07.03.05.46.26.97ZM18.83 34.31a1.6 1.6 0 0 0-.09-.68c-.05-.16-.09-.33-.07-.5v-.02l.03-.02a.05.05 0 0 1 .05 0c.5.32.77 1.05 1.03 1.58a.26.26 0 0 1-.03.27.25.25 0 0 1-.25.1 5.43 5.43 0 0 1-.94-.3.38.38 0 0 1-.2-.17c-.08-.15-.04-.22.14-.2.08.02.16.02.25.02.02 0 .04 0 .06-.02a.1.1 0 0 0 .02-.06ZM27.35 33.12a.08.08 0 0 1 .06-.01c.02 0 .04.01.05.03.08.13.13.27.14.44.03.67.04 1.3.02 1.88 0 .04-.02.06-.06.07-.2.03-.38.1-.58.11-.45.01-.96.02-1.53 0-.16 0-.32-.06-.37-.23a8.31 8.31 0 0 1-.28-1.75.3.3 0 0 1 .15-.18 17.03 17.03 0 0 0 2.2-.28.59.59 0 0 0 .2-.08ZM21.18 33.68l.17.22a.1.1 0 0 1 .01.09.1.1 0 0 1-.04.07l-.67.38a.1.1 0 0 1-.08.01.1.1 0 0 1-.07-.05l-.39-.82a.1.1 0 0 1 .01-.11.1.1 0 0 1 .1-.04l.9.2a.1.1 0 0 1 .06.05ZM24.02 34.14c.14.43.21.86.24 1.3 0 .13-.06.2-.2.2-.54.02-.98.09-1.35-.42a.12.12 0 0 1 .03-.16c.4-.32.77-.64 1.09-.97.1-.1.16-.07.2.05Z" fill="#fff"/><path d="m26.17 37.2-2.82-.02a.03.03 0 0 0-.04.03c0 .02.02.04.04.04l2.82.02c.02 0 .03-.02.03-.04a.03.03 0 0 0-.03-.03Z"/><path d="M14.28 41.52c.6-.28.87-1 .6-1.6-.27-.61-.97-.87-1.57-.6-.6.29-.87 1-.6 1.61.27.6.97.87 1.57.59Z" fill="#E9171F"/></svg>