<svg width="56" height="56" viewBox="0 0 56 56" xmlns="http://www.w3.org/2000/svg"><path d="M15.86 30.42 13.43 28v-2.42h1.46c0-.17-.2-.49-.98-.49-.48 0-.97.49-.97.49l-1.45 1.45-.49 2.42.97 2.91 1.46 2.91 2.43-4.85Z" fill="#443C53"/><path d="m17.8 31.4-.97-.98-3.4 6.3 1.94 3.4 5.34 2.91V31.39H17.8Z" fill="url(#a)"/><path d="M23.63 31.4h-1.94V44h5.82l4.86-2.42-7.28-11.16-1.46.97Z" fill="url(#b)"/><path d="m28 28.97-1.94.97 7.28 12.12 5.35-3.4 2.42-4.36-12.14-7.27-.97 1.94Z" fill="url(#c)"/><path d="M25.57 25.58c0 1.16.65 1.77.97 1.94v-2.43L42.1 34.3l2.9-5.82-.97-6.78-4.37-5.34-5.83-1.45-4.37 8.73h-2.92c-.32.16-.97.77-.97 1.94Z" fill="url(#d)"/><path d="m17.31 21.7-.48-1.94 7.77-3.88-2.43-2.43c.65-.32 2.24-.67 3.4.49V12c.49.16 1.65.87 2.43 2.42l5.34.49-3.4 5.82c-.16.32-.77.97-1.94.97H17.31Zm6.8-2.43s.49-.7.49-.97a.49.49 0 0 0-.97 0c0 .27.48.97.48.97Z" fill="url(#e)"/><defs><linearGradient id="a" x1="17.07" y1="30.42" x2="18.28" y2="42.06" gradientUnits="userSpaceOnUse"><stop stop-color="#117165"/><stop offset="1" stop-color="#3F5165"/></linearGradient><linearGradient id="b" x1="27.03" y1="30.42" x2="21.22" y2="44.01" gradientUnits="userSpaceOnUse"><stop stop-color="#00B268"/><stop offset="1" stop-color="#02746B"/></linearGradient><linearGradient id="c" x1="35.77" y1="30.91" x2="31.41" y2="39.64" gradientUnits="userSpaceOnUse"><stop stop-color="#00B8A8"/><stop offset=".64" stop-color="#00B264"/><stop offset="1" stop-color="#019A6B"/></linearGradient><linearGradient id="d" x1="39.66" y1="17.33" x2="31.42" y2="28.5" gradientUnits="userSpaceOnUse"><stop stop-color="#00B9A7"/><stop offset=".55" stop-color="#01B26B"/><stop offset="1" stop-color="#00926B"/></linearGradient><linearGradient id="e" x1="28" y1="13.45" x2="17.81" y2="21.71" gradientUnits="userSpaceOnUse"><stop stop-color="#088269"/><stop offset="1" stop-color="#41475D"/></linearGradient></defs></svg>