<svg width="56" height="56" viewBox="0 0 56 56" xmlns="http://www.w3.org/2000/svg"><path d="M44.84 25.66a16.12 16.12 0 0 0-7.57-11.5c-.72-.44-1.5-.83-2.28-1.16l.63-1-3.64.92 1.21 2.93.8-1.26a13.5 13.5 0 0 1 6.41 6.1 13.22 13.22 0 0 1 .92 9.5A13.92 13.92 0 0 1 38.9 35a14.47 14.47 0 0 1-4.48 3.81l-1.87-6.2a28.61 28.61 0 0 0 1.37-.64l.3-.18.08-.04a5.68 5.68 0 0 0 1.32-1.18 5.46 5.46 0 0 0 .82-1.52 4.74 4.74 0 0 0-.19-3.47 4.64 4.64 0 0 0-3.1-2.9c-.47-.15-1-.25-1.58-.29.35-.26.64-.53.86-.82.23-.29.4-.58.5-.9.1-.3.14-.61.12-.94a3 3 0 0 0-.23-1 4.39 4.39 0 0 0-.53-.95 3.46 3.46 0 0 0-.77-.73l-.09-.06-.04-.03-.02-.02h-.02l-.05-.04-.04-.02a.53.53 0 0 1-.05-.03l-.03-.02h-.02a5.27 5.27 0 0 0-1.17-.48 5.09 5.09 0 0 0-1.18-.11h-.09l-.1.02h-.08l-.25.04-.3.03-.32.05-.6-2.03-1.8.45.52 1.97-.07.02a.4.4 0 0 0-.05.02h-.03l-.02.01a.64.64 0 0 1-.07.02l-.06.01-.07.02-.06.01-1.2.31-1.09-4.72-.19.06h-.02l-.2.07-.2.07-.22.08-.32.12-.09.04-.4.16a18.3 18.3 0 0 0-3.5 2 17.11 17.11 0 0 0-5.78 7.45 16.49 16.49 0 0 0-.95 8.56 15.5 15.5 0 0 0 2.12 5.78c.57.95 1.24 1.83 2.02 2.67l-1.45 2.18 5.37-1.37-.54-5.92-1.38 2.08a13.11 13.11 0 0 1-3.54-6.62 13.33 13.33 0 0 1 .38-6.63 13.84 13.84 0 0 1 4.3-6.46c.97-.82 2.06-1.52 3.24-2.08l.56 2.95-3.98 1 .25 2.3 1.96-.5 1.65 11.21-2.38.6.4 3.67 5.3-1.35.73 3.9 2.62-.68-.88-3.84 1.52-.39.16-.04.17-.04.16-.05.16-.04L32.9 44h.02a10.57 10.57 0 0 0 1.4-.51l.3-.13a16.98 16.98 0 0 0 6.84-5.24 16.63 16.63 0 0 0 3.39-12.46Zm-19.4-2.94-.76-3.3 1.03-.26.1-.03a7.18 7.18 0 0 1 1.58-.2l.37.07a1.12 1.12 0 0 1 .56.35l.2.3a2.46 2.46 0 0 1 .25.84v.4a1.24 1.24 0 0 1-.3.65c-.08.1-.18.17-.3.26a4.54 4.54 0 0 1-.89.44 7.8 7.8 0 0 1-.6.18l-1.25.3Zm6 5.17c-.01.18-.04.34-.1.5-.05.14-.13.28-.23.4-.1.13-.23.24-.38.36-.16.12-.34.22-.54.33a7.09 7.09 0 0 1-1.6.56l-1.4.36-1.14-4.94 1.3-.33a8.76 8.76 0 0 1 1.48-.24c.22 0 .41 0 .6.03a1.72 1.72 0 0 1 1.3.7 2.81 2.81 0 0 1 .3.47 4.78 4.78 0 0 1 .4 1.48c.02.1.02.22.01.32Z" fill="#F0F3FA"/><defs><linearGradient id="aihme5mc1" x1="28" y1="0" x2="28" y2="56" gradientUnits="userSpaceOnUse"><stop stop-color="#5BC8CB"/><stop offset="1" stop-color="#03A4DF"/></linearGradient></defs></svg>