<svg width="56" height="56" viewBox="0 0 56 56" xmlns="http://www.w3.org/2000/svg"><path d="M29.9 22.5c0-.14.06-.2.2-.2l1-.05a13.6 13.6 0 0 1 1.7-.04c.63.05 1.16.19 1.6.43.4.23.84.26 1.32.12.45-.14.8-.41 1.04-.8.39-.64.39-1.26 0-1.86-.37-.6-.93-.89-1.66-.86-.22 0-.52.1-.89.3-.37.2-.68.31-.91.32-.98.06-1.97 0-2.99-.14a.75.75 0 0 1-.56-.36.54.54 0 0 1-.07-.4c.03-.14.1-.25.23-.34.5-.36.88-.66 1.12-.9.36-.37.61-.77.76-1.2a4.47 4.47 0 0 0-.45-3.8A3.58 3.58 0 0 0 27.96 11a4 4 0 0 0-2.98 1.36 4.01 4.01 0 0 0-.93 3.13 3.72 3.72 0 0 0 1.93 3c.27.16.39.51.36 1.07 0 .12-.07.19-.2.2l-3.01.13a3 3 0 0 1-1.28-.32 3.85 3.85 0 0 0-.83-.28 1.72 1.72 0 0 0-.97.13c-.45.2-.75.5-.91.93-.14.38-.15.8 0 1.22a1.76 1.76 0 0 0 2.06 1.23 3 3 0 0 0 .7-.28c.39-.2.7-.3.93-.3 1.08 0 2.18.03 3.28.08.05 0 .08.03.07.08l-.67 13.29c-.01.2-.12.29-.33.26a11.1 11.1 0 0 1-4.43-1.68c-1.52-1.02-2.33-2.24-2.44-3.69 0-.1.04-.13.13-.1l.39.11c1.12.36 1.89.43 2.29.2.07-.03.1-.09.1-.16 0-.36-.17-.65-.47-.87l-3.1-2.2c-.34-.25-.68-.24-1 0l-3.09 2.2c-.23.15-.4.35-.51.58a.37.37 0 0 0-.02.33c.05.1.13.18.24.22.41.14 1.14.05 2.17-.28l.17-.05c.1-.03.15 0 .16.1.17 3.48 1.54 6.06 4.1 7.77 1.46.97 2.91 1.92 4.38 2.86 1.42.9 2.55 2.08 3.4 3.51.07.13.17.2.32.22.15.01.27-.03.37-.14l.92-1.07a11.8 11.8 0 0 1 2.21-2.2c1.22-.82 2.48-1.63 3.8-2.44a10.22 10.22 0 0 0 4.1-4.38 15.02 15.02 0 0 0 .97-4.1c.02-.17.12-.23.29-.18l.4.14c.8.28 1.38.34 1.76.15.19-.1.25-.24.18-.45-.07-.2-.19-.37-.36-.5a41.7 41.7 0 0 0-3.11-2.23 1.07 1.07 0 0 0-1.3.03l-2.77 2c-.25.18-.43.4-.55.65-.1.24-.05.42.17.56.3.2 1.02.08 2.12-.34l.06-.02c.05-.02.1-.01.14.02.04.02.06.06.06.12a3.9 3.9 0 0 1-1.03 2.42 8.24 8.24 0 0 1-5.63 2.88c-.1 0-.17-.04-.17-.16l-.7-13.26Zm-.53-7.47c0 .74-.6 1.35-1.35 1.35a1.35 1.35 0 1 1 0-2.68c.75 0 1.35.6 1.35 1.33Z" fill="#fff"/></svg>