<svg width="56" height="56" viewBox="0 0 56 56" xmlns="http://www.w3.org/2000/svg"><path d="m23.66 20.37-2.55-3.02 4.96-3.21a3.68 3.68 0 0 1 4.05.03l4.73 3.18-2.5 3.02-2.01-1.6a3.68 3.68 0 0 0-4.51-.04l-2.17 1.64Zm-7.06 5.09-2.54-3h-1.1l-1.46.89a1 1 0 0 0-.5.87v8.1a1 1 0 0 0 .49.86l1.48.91h1.1l2.53-2.93-1.76-1.19v-3.33l1.76-1.18Zm22.8 0 2.54-3h1.1l1.46.89a1 1 0 0 1 .5.87v8.1a1 1 0 0 1-.49.86l-1.48.91h-1.1l-2.53-2.93 1.76-1.19v-3.33l-1.76-1.18ZM21.1 39.2l2.56-3.02 2.17 1.64a3.68 3.68 0 0 0 4.5-.05l2.01-1.6 2.51 3.03-4.73 3.18a3.68 3.68 0 0 1-4.05.03l-4.96-3.2Zm-8.2-.32v-1.99c0-.18.15-.34.34-.34h2l7.03-8.24-6.94-8.27h-2.09a.34.34 0 0 1-.34-.34v-2.02c0-.19.15-.34.34-.34h4.6l8.08 9.74c.6.72.6 1.75 0 2.46l-8.08 9.68h-4.6a.34.34 0 0 1-.34-.34Zm30.09-1.99v1.99c0 .18-.16.34-.35.34h-4.6l-8.07-9.68a1.9 1.9 0 0 1 0-2.46l8.08-9.74h4.6c.18 0 .34.15.34.34v2.02c0 .18-.16.34-.35.34h-2.09l-6.94 8.27 7.03 8.24h2c.2 0 .35.16.35.34Z" fill="#050E0D"/><path d="M23.66 19.82 21.1 16.8l4.96-3.21a3.68 3.68 0 0 1 4.05.03l4.73 3.18-2.5 3.02-2.01-1.6a3.68 3.68 0 0 0-4.51-.04l-2.17 1.64Zm-7.06 5.09-2.54-3h-1.1l-1.46.89a1 1 0 0 0-.5.87v8.1c0 .35.18.68.49.86l1.48.91h1.1l2.53-2.93-1.6-1.19V26.1l1.6-1.18Zm22.8 0 2.54-3h1.1l1.46.89a1 1 0 0 1 .5.87v8.1c0 .35-.18.68-.49.86l-1.48.91h-1.1l-2.53-2.93 1.6-1.19V26.1l-1.6-1.18ZM21.1 38.65l2.56-3.02 2.17 1.64a3.68 3.68 0 0 0 4.5-.05l2.01-1.6 2.51 3.03-4.73 3.18a3.68 3.68 0 0 1-4.05.03l-4.96-3.2Z" fill="url(#b)"/><path d="M13 38.66v-2c0-.19.15-.34.34-.34h2.02l7.04-8.28-6.96-8.33h-2.1a.34.34 0 0 1-.34-.34v-2.03c0-.19.15-.34.34-.34h4.61l8.1 9.8c.6.72.6 1.76 0 2.47L17.95 39h-4.6a.34.34 0 0 1-.35-.34Zm30 0v-2a.34.34 0 0 0-.34-.34h-2.02l-7.04-8.28 6.96-8.33h2.1c.19 0 .34-.15.34-.34v-2.03a.34.34 0 0 0-.34-.34h-4.61l-8.1 9.8c-.6.72-.6 1.76 0 2.47l8.1 9.73h4.6c.2 0 .35-.15.35-.34Z" fill="#fff"/><defs><linearGradient id="a" x1="28" y1="0" x2="28" y2="56" gradientUnits="userSpaceOnUse"><stop stop-color="#6B6B6B"/><stop offset=".55" stop-color="#262626"/></linearGradient><linearGradient id="b" x1="28" y1="13" x2="28" y2="42.45" gradientUnits="userSpaceOnUse"><stop stop-color="#16EBFB"/><stop offset="1" stop-color="#22C9FF"/></linearGradient></defs></svg>