<svg width="112" height="112" viewBox="0 0 56 56" xmlns="http://www.w3.org/2000/svg"><rect fill="url(#a4hmn1ut2)" width="56" height="56" rx="28"/><path d="M15.3 29.82c0 .67.62 1.12.7 1.17.44-.26 0-.56-.1-1.46-.08-.71.74-1.45 1.15-1.73l.38.5c-.12.1-.48.38-.91.69-.55.38-.27 1.17-.16 1.39.1.22.57-.11.78-.56.22-.44 1.83-.8 2.65-1.31.82-.51.04-1.2-.18-1.5-.21-.3-.76-.07-1.25.22-.5.3-.51.71-.77.51-.25-.2-.19-.42-.16-.51a12.7 12.7 0 0 1 1.84-.53c5.5.44 16.68 1.4 17.45 1.7.96.4 1.2.25 1.67.42.37.14.47 1.71.47 2.48.05.75.26 2.01.64 1.05.38-.96 0-3.03-.24-3.94.31.15.95.45 1.03.41.1-.04.47-.35.64-.8.17-.47-.25-1.76-1.17-1.76-.92 0-.95.79-1.25.79-.24 0-.72-.79-.94-1.18.06.49.14 1.4 0 1.18-.17-.28-10.46-1.73-11.23-1.94-.77-.21-7.66.56-8.5.78-.83.22-1.12.98-1.48 1.11-.13-.1-.5.58-.58.74-.1.17-.47 1.41-.47 2.08Z" fill="url(#b4hmn1ut2)"/><path d="M38.66 29.3c-.26-.66-.9-2.06-1.2-2.67 0-.32.5 0 .76.31.26.32.36 0 .5 0 .15 0 .74-.73 1.12-.7.37.04.81.54.93.85.11.32-.02.62-.12.64-.1.02-.39-.99-.52-1.1-.13-.12-.7 0-.98.31-.28.32-.02.84 0 1.07.02.24.43 3.1.49 3.78.07.68-.21.55-.3.55-.08 0-.35-2.22-.68-3.04Z" fill="#768389"/><ellipse cx="27.88" cy="20.64" rx="10.4" ry="10.63" fill="url(#c4hmn1ut2)"/><ellipse cx="27.88" cy="20.64" rx="10.4" ry="10.63" fill="url(#d4hmn1ut2)"/><path d="M24.6 13.05v-2.18c.18-.29 1.08-.85 3.26-.85 2.18 0 3.38.48 3.7.72l.22 2.3c-.5-.17-1.98-.53-3.92-.53-1.95 0-2.98.36-3.25.54Z" fill="url(#e4hmn1ut2)"/><path d="M19.17 16.72c-.39.34-.75.04-.89-.16A10.21 10.21 0 0 1 27.81 10c5.78 0 8.8 4.18 9.57 6.26.01.3.02.93 0 1-.02.1-.54-.25-.36-.35.17-.1-.21-.63-.27-.74l-1.4-2.57a10.28 10.28 0 0 0-7.54-3.38c-4.77 0-6.3 3.35-6.68 3.66-.38.32-.25.67-.2 1.46.07.79-1.28.94-1.76 1.38Z" fill="url(#f4hmn1ut2)"/><path d="M11.05 42.99v-3.57c.4-.87 1.24-2.71 1.36-3.12.15-.5 1.38-3.03 2.32-3.92.94-.9.97-1.09 1.18-1.43.22-.35.52-1.3.88-1.73.28-.35.82-.47 1.05-.49l19.01 1.23c.16 0 .6.05 1.1.19.65.17.84 1.01 1.1 1.4.26.38.77.66 1.36 1.33.58.66.66 1.25.8 1.86.15.61 1.34 3.14 1.7 3.58.3.35 1.52 3.26 2.09 4.67H11.05Z" fill="url(#g4hmn1ut2)"/><path d="m38.48 38.76 2-4.3c-1.06 1.81-3.37 5.52-4.09 5.9-.9.45.37-1.6-2.16-1.3-2.53.29-4.25 0-7.56 0-3.3 0-2.94-1.26-4.25-1.67-1.3-.42-1.18.2-1.39 0-.2-.21-.57 1.8-1.83 1.92-1.27.12-1.07-.88-2.99-2.43-1.92-1.54-.53 1.09-.9 1.88-.36.8-1.63 2.01-3.06 1.6-1.14-.34-1.18 1.6-1.06 2.62H44.85c.3 0-.12-.89-.37-1.33-.45.07-1.65.06-2.86-.5-1.5-.71-.61-.21-1.63-1.26-1.02-1.04-.5.21-1.51.21-.82 0-.34-.89 0-1.34Z" fill="#65838E"/><path d="M34.57 42.68c0-.24.75-2.62.91-3.19l.03-.1-.03.1c-.04.37 0 1.41.03 1.94.14.22.48.63.73.46.3-.22 1.58-2.13 1.58-1.76 0 .37-.33 1.76-.5 1.76-.15 0-.9.74 0 .37.74-.3 1.46-.78 1.73-.99h1.9c.26 0 .87.22 1.14.32.02.1-.26.3-1.61.3-1.36 0-2.5.71-2.9 1.07h-3.06l.05-.28Z" fill="#16272F"/><path d="M18.92 33.98c-1.36-2.3-1.39-4.5-1.3-4.73.55.63 2.65 2.46 6.65 4.73 4 2.27 10.8-1.21 13.71-3.24l-.42 2.69-.76 1.16c-.8 1.13-3.56 3.37-8.2 3.37-5.78 0-8.32-1.68-9.68-3.98Z" fill="url(#h4hmn1ut2)"/><path d="M17.76 29.7c0-1.19 1.04-2.14 1.56-2.47l17.66 1.4c.26.25.8.97.84 1.9.07 1.16-2.53 4.78-9.94 4.78-7.42 0-10.12-4.1-10.12-5.6Z" fill="url(#i4hmn1ut2)"/><path d="M19.18 21.6c0 3.2.23 5.3.25 5.41 0 .12-.03.41-.15.57-.12.16-.11.8-.1 1.09.66 1.38 3.24 4.13 8.35 4.13 6.48 0 8.7-2.2 9.01-3.31-.07-.07-.18-.24-.13-.4.05-.16.1-1.07.13-1.51.17-.64.5-2.68.5-5.77 0-3.1-1.67-4.8-2.5-5.27-.08.15-.24.42-.26.3-.02-.16-.22-1.74-.79-2.01-.45-.22-.8.1-.93.27-.32-.33-1.62-1-4.27-1-2.66 0-4.38.67-4.9 1-.07-.12-.36-.34-1.04-.26-.85.1-.54 1.26-.9 1.54a6.76 6.76 0 0 0-2.27 5.22Z" fill="url(#j4hmn1ut2)"/><path d="M29.57 27.76c-.21.15-.15.28-.1.32-.06-.02-.19-.04-.22 0-.04.06-.19.2-.44.7-.25.5.1.18-.47.5-.56.32-.34.29-.35.47-.02.18.71.13 1.17-.08.46-.2.2-.35.51-.8.3-.47-.1-.19-.3-.34-.21-.14-.06-.1.1-.25.17-.15.06-.01.1 0 .03 0 .18.01.87-.25.7-.27.56-.27.96-.68.4-.41.34-.68.21-.7-.12-.03-.36.35-.61.57-.25.23-.51.23-1 .26-.5.03-.17.1-.43.28Z" fill="#2E3A63"/><path d="M29.46 27.23c-.12.07-.21.5-.23.55.04 0 .17-.03.37-.15.24-.16.26.05.37 0 .12-.06.26-.18.58-.34.33-.17.23-.06.59-.37.28-.26.06-.17-.08-.1a1.6 1.6 0 0 0-.5-.08c-.27 0-.57.21-.78.3-.21.07-.19.12-.32.2Z" fill="#D39EB0"/><path d="M27.16 28.65c-.83-.33-.63-1.23-.61-1.3.23-.06.77-.18 1.09-.16.4.02.24.22.29.34.05.11.05.72.09.67.04-.05.07-.25.28-.54.22-.3.9-.38.99-.37.09.01.04.66-.1 1.03-.12.38-1.2.65-2.03.33Z" fill="url(#k4hmn1ut2)"/><path d="M27.17 26.26c-.42.25-.72.44-.8.5a3 3 0 0 0 .4-1.33c-.06-.5-.07-.31-.2-.82-.14-.51-.04-1.36-.15-1.6-.1-.25-.37.84-.55 1.35-.19.51.05 2.46.06 2.64 0 .18.04.16.43.1.4-.08.9-.58 1.08-.78.2-.2.4-.14.76.06.37.2 1.22.7 1.77.78.55.08-.08-.21-.4-.7-.31-.5-.2-1.03-.27-1.7-.08-.65-.3-.15-.42-.15a3 3 0 0 1-.68-.35c.14.3.42.93.42 1.04 0 .13.03.22 0 .44-.04.22.11.28.26.39.15.1-.01.33-.15.25-.13-.08-.63-.25-.94-.36-.32-.12-.2 0-.62.24Z" fill="#25282F"/><path d="M21.66 22.8c.25-.57.79-.39 1.22-.54v.44c0 .11.21.64.14 1.2-.07.57-.27.4-.32 1.38-.06.98-.04.82-.13 1-.09.18-1.09.4-.9.73.17.33 1.35 2 3.95 3.01 2.61 1 1.61.26 3.47.1 1.85-.17 1.28-.44 3.12-1.8 1.84-1.35.52-.85.98-1.93.47-1.08.36-1.51.4-2.48.03-.97-.49-.91-.74-1.44-.2-.43.01-.46.14-.42l1.84.54c.05.27.2.85.4 1.03.25.21.42.32.64 1 .21.68 0 1.11-.34 1.88-.34.77.02.51.12 1.4.11.9-.26 1.08-1.78 1.98-1.52.9-8.35.85-9.67.54-1.32-.3-3.09-1.04-3.55-1.73-.47-.7-.52-2-.45-2.76.07-.74.23-1.15.6-1.8.38-.66.61-.77.86-1.34Z" fill="#B96B45"/><path d="M23.28 22.4c.13-.3.37-.13.47 0 .08.17.2.67.09 1.32-.15.8-.12 1.9-.2 2.17-.09.27-.05.23.08.45a8.71 8.71 0 0 0 1.76 1.84c.44.2.48.4.67.69.18.28.5.47.9.8.38.33.94.22 1.46 0a6.9 6.9 0 0 0 1.24-.68c.03-.04.44-.25.74-.5.29-.25.4-.31.6-.58.18-.26.4-.4 1.07-.88s.26-.74.38-1.66c.12-.92.26-.82.8-1.19s.6.37.82.78c.2.41-.24.63-.5.9-.2.22-.41.5-.49.61.01.06.1.14.32 0 .28-.16.3-.3 1.2-.94.91-.65-.06-.3-.31-.75s-.1-.66.25-.67c.35-.01.23.16.68.44.44.3.2 1 .15 1.31-.06.31-.18.66-.41.78-.24.12-.22.28 0 .72.22.45.3 1.35-1.56 2.73-1.85 1.38-3.81 1.26-5.33 1.28-1.51.02-4.67-1.02-6.1-1.63-1.43-.61-1.78-2.71-1.67-3.34.1-.62.08-1.6.3-2.11a9.8 9.8 0 0 1 1.77-1.9c.19-.13.32 0 .33.14.01.13-.33 1.18-.57 1.38-.25.19-.43.96-.53 1.23-.1.28-.23.47-.19.75.04.27.45.25.83.4.15.05.37.2.6.39l-.47-.4c-.42-.35-.58-.47-.58-.79 0-.32.25-.8.58-1.3.33-.49.66-1.44.82-1.8Z" fill="url(#l4hmn1ut2)"/><path d="M24.77 23.53c-.1-.2-.49-1.13-.8-1.39-.46-.15-.28.54-.3 1.23-.04.7-.14.96-.1.93.06-.03.8-.15 1.2-.28.4-.13.1-.3 0-.5Z" fill="#8F5F2E"/><path d="M24.2 21.78c-.15-.05-.19.19-.19.31.12.26.41.9.67 1.35.31.56.15.34.61.11.46-.23.68-.72 1.05-1.23.37-.52.05-.23-.16-.23-.2 0-.48.3-.95.3-.48 0-.83-.54-1.03-.6Z" fill="url(#m4hmn1ut2)"/><path d="M26.29 23.59c-.03-.6.29-.86.3-.9-.34.06-.95.94-1.03 1.06-.08.12.08 2.16.18 2.61.1.46.3.72.55.6.24-.12.34-1.35.22-1.8-.13-.44-.2-.98-.22-1.57Z" fill="#647C94"/><path d="M24.54 17.35c.31.54-.64 1.62-.7 1.74-.25.33-.78 1.03-.89 1.21a8.74 8.74 0 0 1-1.04 1.3c-.13.05-.17-1.78-.12-2.12.05-.35.1-1.44.12-1.95.02-.5.08-1.6.28-1.86.21-.25.59-.16 1.15.1.56.27.89 1.03 1.2 1.58Z" fill="url(#n4hmn1ut2)"/><path d="M22.4 17.1c.03.49.7 1.77.74 1.93.11-.1.37-.32.51-.51.18-.24-.09-.8-.18-1.24-.1-.44-.5-.77-.75-.85-.26-.08-.34.17-.32.66Z" fill="#170F1A"/><path d="M23.59 15.52a2.19 2.19 0 0 0-1.12-.83c.82.1 1.59.9 1.86 1.29l.87.28c.33-.07 1.4-.21 3.04-.21 1.65 0 2.63.14 2.91.21.12-.07.37-.24.42-.3.04-.04.14.1.18.16.3-.5 1.03-1.51 1.61-1.45.58.07.82.9.87 1.3l-1.87.3c.2-.37.62-1.16.63-1.35 0-.25-.4.21-.7.66-.24.35-.58.9-.72 1.14v-.46c0-.04-.27.15-.78.33-.5.18-1.48.19-2.55.19a42.48 42.48 0 0 1-3-.12 1.6 1.6 0 0 1-.98-.54l.38.86c-.17-.25-.62-.9-1.05-1.46Z" fill="url(#o4hmn1ut2)"/><path d="M31.76 17.35c-.32.54.63 1.62.7 1.74.25.33.77 1.03.88 1.21.15.23.91 1.27 1.05 1.3.13.05.16-1.78.11-2.12-.05-.35-.09-1.44-.11-1.95-.03-.5-.08-1.6-.3-1.86-.2-.25-.58-.16-1.14.1-.56.27-.88 1.03-1.2 1.58Z" fill="url(#p4hmn1ut2)"/><path d="M33.9 17.1c-.04.49-.7 1.77-.75 1.93-.11-.1-.36-.32-.5-.51-.2-.24.08-.8.17-1.24.1-.44.5-.77.76-.85.26-.08.34.17.31.66Z" fill="#170F1A"/><path d="M25.02 17.73c-.27.33-1.61 2.15-2.25 3.01.03.18.13.54.28.63.2.12.47.12.65.12.18 0 .43.3.8 0 .36-.3.69-.6.97-.58.29.02.1-.28 0-.5-.09-.22-.25-.4-.28-.55-.03-.14.28-.65.61-.79.33-.14.86-.23 1.04-.28a4 4 0 0 1 .84-.1c.3 0 .02-.24-.11-.59-.11-.27-.01-.72.05-.9.21-.01.7-.03 1.02 0 .39.03.66.06.85.2.2.13-.02.5 0 .7.02.2.18.44.47.8.29.38.75.67.96.96.22.3 0 .18 0 .32v.45c-.01.17.28.34.34.43.06.1.66.48 1.09.67.42.2.51.09.99.15.47.06.44-.85.34-1.11-.1-.27-1.44-1.78-1.64-2.08-.2-.3-1.89-2-2.08-2-.2 0-3.56-.1-3.73 0-.17.1-.88.63-1.21 1.04Z" fill="url(#q4hmn1ut2)"/><path d="M26.74 19.26c-.3-.45-1.2.08-1.6.4.14-.44.6-1.4 1.35-1.78.93-.46.5.01 1.06.53.57.52.37.05.46.19.1.14-.07 1.06 0 1.19.08.13.1.91.11 1.15.01.23-.08.5-.1.41-.03-.1-.17-.5-.47-.65-.18-.09-.45.26-.63.55l-.18.33.18-.33c.1-.18.18-.4.23-.55.09-.33-.02-.87-.4-1.44ZM29.64 19.26c.3-.45 1.2.08 1.6.4-.14-.44-.6-1.4-1.35-1.78-.93-.46-.5.01-1.06.53s-.37.05-.46.19c-.1.14.07 1.06 0 1.19-.08.13-.1.91-.11 1.15-.01.23.08.5.1.41.03-.1.17-.5.47-.65.18-.09.45.26.63.55l.18.33-.18-.33a3.62 3.62 0 0 1-.23-.55c-.09-.33.02-.87.4-1.44Z" fill="#7A2705"/><path d="M26.08 19c-.5 0-1 .66-1.09.79.04.11.15.38.29.52.17.17.44.16.46.05.02-.1.13-.34.22-.34.1 0 .04.51-.1.7-.12.19.4.42.62.58.22.17.29.04.5-.26.21-.3.29-.8.36-1.19.08-.4-.76-.84-1.26-.84ZM30.2 19c.5 0 1 .66 1.09.79-.04.11-.15.38-.29.52-.17.17-.44.16-.46.05-.02-.1-.13-.34-.22-.34s-.04.51.1.7c.12.19-.4.42-.61.58-.23.17-.3.04-.51-.26-.21-.3-.29-.8-.36-1.19-.07-.4.76-.84 1.26-.84Z" fill="#FBFCFF"/><path d="M25.19 21.96c-.25.06-.42-.23-.47-.38 0-.19.22.1.5.1.24.01.35-.19.37-.29l.3.45c-.08-.04-.24-.1-.25-.12-.01-.01-.14.16-.45.24Z" fill="#432724"/><path d="M25.15 21.1c-.06-.01-.15.12-.3.23-.12.1 0 .12.04.12l.22-.12c.1-.06.07.06.11.13.05.06.1-.02.2-.07.1-.04-.06-.12-.08-.18-.02-.06-.12-.11-.19-.12Z" fill="#344364"/><path d="M25.66 21.45c0-.06-.2-.24-.24-.27.01.13.05.4.08.4.04.01.16-.07.16-.13Z" fill="#595961"/><path d="m30.54 21.43-.2.33c-.02 0-.04.03.02.04.06.02.31-.1.3-.12l-.12-.25Z" fill="#E3DFDC"/><path d="M30.9 21.05c-.1 0-.2.18-.23.27a.89.89 0 0 1 .27-.08c.07 0 .43.08.44.04 0-.03-.38-.21-.49-.23Z" fill="#89888D"/><path d="M31.05 21.82c-.34.05-.41-.3-.41-.32.04.04.18.12.37.16.2.04.43-.12.52-.21a.69.69 0 0 1-.48.37Z" fill="#B57671"/><path d="M31 21.29c-.1 0-.24.16-.3.23.05.04.18.12.36.15.24.04.36-.15.37-.23 0-.08-.31-.16-.44-.15Z" fill="url(#r4hmn1ut2)"/><path d="M26.9 21.15c-.14.27-.4.76-.5.98a6.75 6.75 0 0 1 2.3-.12c.49.05 1.3.4 1.64.58a8.38 8.38 0 0 1-1.01-1.44c-.2-.48-.72-.94-.96-.45-.25.48-.21 1.23-.27.97-.05-.25-.18-1.02-.32-1.17-.14-.16-.73.32-.89.65Z" fill="url(#s4hmn1ut2)"/><path d="M27.7 22.53c-1.18 0-1.24.98-1.13 1.47-.04-.48.17-1.37 1.21-1.37.83 0 1.43.62 1.62.93-.07-.35-.52-1.03-1.7-1.03Z" fill="#6C7886"/><path d="M28.41 23.07a.81.81 0 0 0-.53-.27c.56-.26 1.3.47 1.43.66.13.2-.04.22-.16.24-.13.03-.48-.37-.74-.63Z" fill="#8BA0BD"/><path d="M28.49 24.39c-.35-.19-.47-.59-.48-.76.16.22.56.66.87.65.4 0 .4-.52.46-.65.07-.14-.01-.38-.12-.54-.1-.16-.44-.38-.69-.47-.24-.08-.17-.29.1-.28.28 0 .74.34.86.79.12.44.06 1.08.06 1.38-.01.3-.14.67-.1 1.22.03.55.53 1.17.53 1.29 0 .12-.88-.6-1.14-.9-.25-.32.13-.34.04-.83-.09-.49-.13-.2 0-.4.1-.16.23-.43.28-.54-.08.1-.33.23-.67.04Z" fill="#7690B5"/><path d="M25.21 23.67c.34-.16.62-.75.7-1.02.12.11.3.37.14.48-.19.15-.21 2.3-.13 2.88.08.57.57 1.02.18 1.16-.39.15-1.04-.36-1.3-.7-.26-.36-.87-.88-1.04-.88-.17 0-.27.35-.27.18 0-.18-.08-1.18 0-1.48.08-.3.55-.33.8-.4.27-.08.49-.03.92-.22Z" fill="#A0ABA7"/><path d="M25.13 25.76c.14.7.82 1.3.86 1.34a4.07 4.07 0 0 1-.72-2.13c-.06-.67.33-1.55.53-1.91.06-.02.18 0 .13.26-.07.3.5-.32.74-.7.24-.4 1.26-.36 1.41-.36.15 0 .91.07 1.2.36.28.28.21 1.59.16 2.16-.05.58-.17.68.13 1.6.3.9.56.6 1.25.57.7-.02 1.4-1.53 1.66-1.35.2.14-.27 1.06-.54 1.5.1-.04.39-.32.76-1.17.38-.84.1-1.69-.07-2l.5.8c.23.32.15.89.37 1.03.22.15.24-.19.56-.79.33-.6.02-.97 0-1.23s-.64-1.51-1.2-1.83c-.57-.3-.25.2-.3.42-.04.22-.13 1.19-.09 1.35.05.17-.47-.2-1.2-.36-.73-.16-.62-.45-.94-.78-.31-.34-1.87-.83-3.27-.54-1.4.3-1.33.84-1.6 1.32a4.7 4.7 0 0 0-.33 2.44Z" fill="#FFFEFA"/><path d="M34.22 23.96a5.17 5.17 0 0 1-.47-1.76c.31.21 1 .7 1.25.96.31.32.4.8.63 1.2.24.42-.12.23-.46.22-.34-.01-.34-.1-.57-.26-.23-.16-.16-.08-.38-.36Z" fill="#FEFFF9"/><path d="M31.11 22.1c-.2-.01-.74.05-1.17-.14 0 .08.1.34.53.78.54.54.64.47 1 .38.35-.09.29-.26.54-.71.24-.45.22-.52.25-.6.03-.07-.16-.18-.25-.23-.24.18-.74.53-.9.52Z" fill="url(#t4hmn1ut2)"/><path d="M32.72 22.36c.07-.78-.27-.51-.41-.65-.24.22-.8.7-1.12.93-.4.28-.56.18-.8.52s.83.51 1.2.67c.36.15.72.03.96-.25s.1-.45.17-1.22Z" fill="#F9F3DB"/><path d="M27.26 28.85c-.85-.18-.85-.78-.74-1.06.43.26 1.43.72 2.02.5.74-.29.34.03.52.03s.12.02-.04.25c-.15.24-.7.5-1.76.28Z" fill="#5D132A"/><path d="M26.23 27.7a2.15 2.15 0 0 1-.4-.5c.25-.08.75-.21.77-.15.02.08-.04.32-.08.47-.04.15-.18.25-.3.18Z" fill="#4C3128"/><path d="M20.28 29.74a2.6 2.6 0 0 1-.76-1l.16-.05c.06.18.27.52.72.92.44.4 1.12.85 2.11 1.25 1.25.5 2.26.78 2.97.92a6.4 6.4 0 0 0 1.13.11h.01c.1-.08.19-.2.22-.25l.14.1c-.04.05-.14.19-.25.28a.18.18 0 0 1-.07.04 6.57 6.57 0 0 1-1.2-.1c-.74-.15-1.76-.44-3.01-.94-1-.4-1.7-.86-2.17-1.28ZM35.78 29.74c.47-.4.7-.77.77-1l-.16-.05c-.06.18-.27.52-.72.92-.44.4-1.12.85-2.11 1.25-1.25.5-2.26.78-2.98.92a6.4 6.4 0 0 1-1.13.11c-.1-.08-.19-.2-.22-.25l-.14.1c.04.05.14.19.25.28l.07.04.09.01h.25c.21 0 .5-.05.87-.12.72-.14 1.75-.43 3-.93 1-.4 1.7-.86 2.16-1.28Z" fill="#535552"/><path d="M34.3 29.63c-.77.5-1.7 1.16-2.06 1.43a7.2 7.2 0 0 0 4.29-2.79c.06-.16.02-.7 0-.94a11.6 11.6 0 0 1-2.23 2.3Z" fill="#88878B"/><path d="M28.31 32.66c-5.93 0-8.54-2.4-9.1-3.67l.23-.11c.5 1.14 3 3.52 8.87 3.52 4.71 0 7.33-2.01 8.04-2.99l.2.16c-.76 1.05-3.46 3.1-8.24 3.1Z" fill="#88878B"/><path d="m19.2 27.74-.02.04c-.4.72.6 5.06 8.72 5.06 6.63 0 8.68-2.8 8.88-4.2.1.02.3.28.3 1.2 0 1.16-1.54 4.47-8.79 4.47-7.25 0-9.59-3.56-9.59-4.7a3.57 3.57 0 0 1 .5-1.87Z" fill="url(#u4hmn1ut2)"/><path d="M28.5 33.38c-6.3 0-8.94-2.5-9.48-3.76.54 1.44 3.18 4.31 9.49 4.31 6.3 0 8.22-2.87 8.4-4.3-.83 1.24-3.66 3.75-8.4 3.75Z" fill="url(#v4hmn1ut2)"/><path d="M17.87 28.54c.17-.36.37-.65.5-.8l.14.1c-.13.16-.33.43-.49.78-.16.34-.29.75-.29 1.17 0 .51.34 1.91 1.84 3.18 1.5 1.27 4.18 2.42 8.85 2.42 7.48 0 9.42-3.38 9.48-5.02h.17c-.07 1.78-2.13 5.2-9.65 5.2-4.7 0-7.41-1.16-8.96-2.46-1.54-1.3-1.9-2.75-1.9-3.32a3 3 0 0 1 .3-1.25Z" fill="url(#w4hmn1ut2)"/><path d="M11.62 37.5a5.5 5.5 0 0 0-.62 1.98v.31l.54-1.11c.16-.34.92-2.25 1.26-2.73.33-.48.53-.3.55-.61.02-.31.05-.5.73-1.66.68-1.16.78-.78 1.13-1.03.35-.25.12-.36.36-.62s.4-.48.4-.68v-.52l-1.22 1.2c-.49.64-1.49 2-1.62 2.22-.16.28-.23.83-.25.9-.03.1-.2.2-.31.5a12.7 12.7 0 0 1-.95 1.85Z" fill="#F6F1DB"/><path d="m14.46 42.92-3.36-1.61v.4l2.33 1.21h1.03Z" fill="#0C0D12"/><path d="M17.55 38.64c-.14-.28-1.65-3.62-2.38-5.25.39 1.01 1.22 3.1 1.4 3.4.23.4 1.48 4 1.73 4.6.25.62-.05.96-.2.81a5.9 5.9 0 0 1-.82-1.96c-.17-.84-.93-1.7-1.5-1.86-.57-.17.9 1.76 1.15 2.4.23.64.69 1.58.52 1.92-.17.34-1.1-1.69-1.39-2.38-.28-.7-.76-1.28-1.1-1.78-.34-.5.07 1.2.14 1.37.07.16.85 1.12 1.31 1.7.38.46.57 1.1.62 1.36h2.63c0-.18-.15-1.24-.69-4.03-.54-2.8-1.7-4.73-2.21-5.34.3.63.97 2.05 1.35 2.72.46.84.86 3.17.86 4 0 .66.24 1.9.36 2.45a241.4 241.4 0 0 0-1.78-4.13Z" fill="url(#x4hmn1ut2)"/><path d="M12.84 39.08c-.08-.15-.5-.94-.12-1.08.31-.12.74.56 1.21 1.3l.27.43c.44.68 1.09 1.1 1.54 1.4l.37.25c.38.3 1.15 1.42.5 1.27-.64-.16-1.8-.8-2.3-1.4-.39-.5-1.14-1.65-1.47-2.17Zm-1.7 1.6v-1.02c.13-.07.45-.18.6 0a14.1 14.1 0 0 0 1.4 1.57c.32.23.02.36-.7 0a4.76 4.76 0 0 0-1.3-.55Z" fill="url(#y4hmn1ut2)"/><path d="M15.92 31.04c.05-.8 1-1.98 1.09-2.02-.18.47-.55 1.43-.55 1.55a11 11 0 0 0 1.12 2.4c.56.9 2.07 3.6 2.35 4.79.23.94.69 3.86.89 5.2h-1.17l-.3-2c-.21-1.27-.75-3.98-1.11-4.74a67.09 67.09 0 0 0-1.78-3.25c-.2-.38-.57-1.3-.54-1.93Z" fill="url(#z4hmn1ut2)"/><path d="M16.56 32.18a1.68 1.68 0 0 1-.13-1.08c.1.3.34 1.02.55 1.4.26.47 1.53 2.5 2.08 3.74.54 1.24.54 1.81.82 2.57.27.75.7 3.44.72 3.9.02.38-.35.26-.54.15-.15-.94-.47-3.08-.55-4.05-.1-1.21-1.7-4.19-1.9-4.67-.19-.5-.78-1.32-1.05-1.96Z" fill="#BC683A"/><path d="M35.52 39.5c-.18.82-.53 2.62-.68 3.42h1.11c.18-.83.56-2.67.68-3.41.16-.93 1.2-3.25 1.52-3.86.33-.6 1.08-1.74 1.23-2.97a5.62 5.62 0 0 0-.15-2.5c-.16-.63-.37-.74-.45-.72.08 1.09.02 3.57-.95 4.79-1.22 1.52-2.1 4.24-2.31 5.26Z" fill="url(#aa4hmn1ut2)"/><path d="M21.79 39.37c-.2-.06.55-1.38.64-1.53.21.22 1.45.7 4.72.84 3.27.14 5.82-.42 6.69-.71.01.32.03.98 0 1.06-.03.1-1.66.9-6.44.9s-5.42-.5-5.61-.56Z" fill="#4B4D4A"/><path d="M21.9 41.67V39.4c.89.28 4.46.56 6.92.6 1.96.03 4.4-.4 5.38-.6a24.4 24.4 0 0 1-.15 2.5c-.09.2-.85.19-1.06.17-.2-.02-4.14-.25-6.53-.18-1.91.06-3.83-.11-4.55-.2Z" fill="url(#ab4hmn1ut2)"/><path d="M21.94 42.99v-1.4l12.13.14v1.26H21.94Z" fill="#664C35"/><path d="M26.06 42.27V43h3.68v-.73h-3.68Z" fill="url(#ac4hmn1ut2)"/><path d="M43.77 38.24h-1l-1.02 1.86.17 1.63 2.9-.1a13.85 13.85 0 0 0-1.05-3.39Z" fill="#EF9C85"/><path d="m41.74 40.12-.42-2.01 1.47.11.28 1.81-1.33.09Z" fill="#4161B4"/><path d="M18.15 25.78c0 .06-.32.17-.47.21l-.45-2.16h.63c-.02-1.45-.04-4.4 0-4.61.04-.28.38-2.38.56-2.58.14-.16-.06 1.65-.18 2.58v3.83c0 .1-.07 2.65-.09 2.73Z" fill="#524940"/><path d="M16.64 23.24c-.1-.17-.02-3.9 0-4.03.9-.56 1.31.1 1.31.19 0 .1-.06 4.04-.1 4.1-.03.07-1.11-.1-1.21-.26Z" fill="#4C3E36"/><path d="M17.87 19.02c-.21.16-.88.12-1.19.08-.18-.77.13-1.54.47-2.08.28-.44.96-.52 1.26-.51-.09.77-.33 2.35-.54 2.51Z" fill="url(#ad4hmn1ut2)"/><ellipse cx="17.23" cy="19.82" rx=".47" ry=".48" fill="#0F1934"/><ellipse cx="17.06" cy="22.96" rx=".3" ry=".31" fill="#271009"/><path d="M37.8 25.76c0 .07.31.18.47.23l.49-2.16-.63-.01c.05-1.45.13-4.39.1-4.6-.04-.28-.34-2.4-.52-2.6-.14-.16.03 1.66.13 2.58l-.08 3.83.03 2.73Z" fill="#524940"/><path d="M39.36 23.26c.1-.17.1-3.9.08-4.03-.88-.58-1.31.06-1.32.16 0 .1-.02 4.04.02 4.1.03.07 1.12-.07 1.22-.23Z" fill="#4C3E36"/><path d="M38.21 19.01c.21.17.88.14 1.19.11.2-.77-.1-1.54-.43-2.1-.27-.43-.94-.54-1.25-.53.08.77.28 2.36.5 2.52Z" fill="url(#ae4hmn1ut2)"/><ellipse cx=".47" cy=".48" rx=".47" ry=".48" transform="matrix(-.99977 -.02122 -.02028 .9998 39.32 19.35)" fill="#0F1934"/><ellipse cx=".3" cy=".31" rx=".3" ry=".31" transform="matrix(-.99977 -.02122 -.02028 .9998 39.25 22.66)" fill="#271009"/><defs><linearGradient id="a4hmn1ut2" x1="4.53" y1="10.28" x2="45.42" y2="50.52" gradientUnits="userSpaceOnUse"><stop offset=".11" stop-color="#031F2D"/><stop offset=".36" stop-color="#508478"/><stop offset=".5" stop-color="#9D6B3E"/><stop offset=".64" stop-color="#6D303F"/><stop offset=".85" stop-color="#1C293A"/></linearGradient><linearGradient id="b4hmn1ut2" x1="16.4" y1="27.9" x2="38.16" y2="26.58" gradientUnits="userSpaceOnUse"><stop stop-color="#441E1C"/><stop offset="1" stop-color="#141213"/></linearGradient><linearGradient id="c4hmn1ut2" x1="18.99" y1="19.46" x2="37.36" y2="19.46" gradientUnits="userSpaceOnUse"><stop stop-color="#348C8D"/><stop offset=".43" stop-color="#2B8893"/><stop offset=".83" stop-color="#D9BA6A"/><stop offset="1" stop-color="#E9E67F"/></linearGradient><linearGradient id="d4hmn1ut2" x1="24.6" y1="27.75" x2="24.88" y2="12.27" gradientUnits="userSpaceOnUse"><stop offset=".15" stop-color="#010101"/><stop offset=".83" stop-color="#2B8893" stop-opacity="0"/></linearGradient><linearGradient id="e4hmn1ut2" x1="25.08" y1="12.25" x2="31.36" y2="12.23" gradientUnits="userSpaceOnUse"><stop stop-color="#3B3E4F"/><stop offset="1" stop-color="#B18175"/></linearGradient><linearGradient id="f4hmn1ut2" x1="20.42" y1="15.5" x2="36.33" y2="15.5" gradientUnits="userSpaceOnUse"><stop stop-color="#FBFDF8"/><stop offset="1" stop-color="#F1F6C0"/></linearGradient><linearGradient id="g4hmn1ut2" x1="32.56" y1="31.92" x2="27.85" y2="42.91" gradientUnits="userSpaceOnUse"><stop stop-color="#EAEFE8"/><stop offset=".79" stop-color="#839194"/></linearGradient><linearGradient id="h4hmn1ut2" x1="20.46" y1="35.27" x2="36.3" y2="31.09" gradientUnits="userSpaceOnUse"><stop offset=".52" stop-color="#14121D"/><stop offset="1" stop-color="#356D88"/></linearGradient><linearGradient id="i4hmn1ut2" x1="18.25" y1="33.29" x2="37.35" y2="29.34" gradientUnits="userSpaceOnUse"><stop stop-color="#35353F"/><stop offset="1" stop-color="#42829D"/></linearGradient><linearGradient id="j4hmn1ut2" x1="20.72" y1="23.09" x2="34.28" y2="15.28" gradientUnits="userSpaceOnUse"><stop offset=".73"/><stop offset="1" stop-color="#E4661C"/></linearGradient><linearGradient id="k4hmn1ut2" x1="27.92" y1="27.19" x2="27.92" y2="28.79" gradientUnits="userSpaceOnUse"><stop stop-color="#3F2540"/><stop offset=".41" stop-color="#9D89AE"/></linearGradient><linearGradient id="l4hmn1ut2" x1="22.04" y1="27.86" x2="33.89" y2="27.86" gradientUnits="userSpaceOnUse"><stop stop-color="#9D9F94"/><stop offset=".43" stop-color="#2F2724"/><stop offset="1" stop-color="#E7E7DB"/></linearGradient><linearGradient id="m4hmn1ut2" x1="25.49" y1="22.69" x2="24.77" y2="23.52" gradientUnits="userSpaceOnUse"><stop offset=".4" stop-color="#8D5830"/><stop offset="1" stop-color="#45230A"/></linearGradient><linearGradient id="n4hmn1ut2" x1="23.18" y1="15.52" x2="22.37" y2="21.48" gradientUnits="userSpaceOnUse"><stop stop-color="#6B7B8A"/><stop offset=".56" stop-color="#BEBDC5"/><stop offset=".95" stop-color="#893900"/></linearGradient><linearGradient id="o4hmn1ut2" x1="23.55" y1="15.11" x2="33.18" y2="15.11" gradientUnits="userSpaceOnUse"><stop stop-color="#7F513A"/><stop offset=".4" stop-color="#E46F05"/><stop offset=".56" stop-color="#E06706"/><stop offset="1" stop-color="#D37531"/></linearGradient><linearGradient id="p4hmn1ut2" x1="33.11" y1="15.52" x2="33.93" y2="21.48" gradientUnits="userSpaceOnUse"><stop stop-color="#6B7B8A"/><stop offset=".56" stop-color="#BEBDC5"/><stop offset=".95" stop-color="#893900"/></linearGradient><linearGradient id="q4hmn1ut2" x1="23.63" y1="19.54" x2="33.21" y2="19.54" gradientUnits="userSpaceOnUse"><stop stop-color="#3B2C27"/><stop offset=".36" stop-color="#D2976F"/><stop offset=".71" stop-color="#EAC9A6"/><stop offset="1" stop-color="#3B2C27"/></linearGradient><linearGradient id="r4hmn1ut2" x1="31.06" y1="21.29" x2="31.06" y2="21.68" gradientUnits="userSpaceOnUse"><stop stop-color="#1E0000"/><stop offset="1" stop-color="#812621"/></linearGradient><linearGradient id="s4hmn1ut2" x1="28.37" y1="20.47" x2="28.37" y2="22.59" gradientUnits="userSpaceOnUse"><stop stop-color="#D1601E"/><stop offset="1" stop-color="#ECB690"/></linearGradient><linearGradient id="t4hmn1ut2" x1="30.8" y1="22.21" x2="31.11" y2="23.18" gradientUnits="userSpaceOnUse"><stop stop-color="#6E5E5D"/><stop offset=".39" stop-color="#BFA490"/></linearGradient><linearGradient id="u4hmn1ut2" x1="36.07" y1="31.03" x2="26.97" y2="29.95" gradientUnits="userSpaceOnUse"><stop stop-color="#E2A14D"/><stop offset="1" stop-color="#572E12"/></linearGradient><linearGradient id="v4hmn1ut2" x1="34.87" y1="32.22" x2="19.01" y2="30.35" gradientUnits="userSpaceOnUse"><stop stop-color="#FCD6C3"/><stop offset=".55" stop-color="#7F6043"/><stop offset="1" stop-color="#B07B50"/></linearGradient><linearGradient id="w4hmn1ut2" x1="19.13" y1="31.35" x2="37.09" y2="29.77" gradientUnits="userSpaceOnUse"><stop stop-color="#6E3E20"/><stop offset="1" stop-color="#BAD5D9"/></linearGradient><linearGradient id="x4hmn1ut2" x1="14.06" y1="35.82" x2="17.37" y2="42.91" gradientUnits="userSpaceOnUse"><stop offset=".5" stop-color="#2B2C31"/><stop offset="1" stop-color="#0C0D12"/></linearGradient><linearGradient id="y4hmn1ut2" x1="11.52" y1="38.56" x2="14.8" y2="42.59" gradientUnits="userSpaceOnUse"><stop stop-color="#755443"/><stop offset="1" stop-color="#1E303C"/></linearGradient><linearGradient id="z4hmn1ut2" x1="15.54" y1="30.26" x2="19.66" y2="42.6" gradientUnits="userSpaceOnUse"><stop stop-color="#C9894C"/><stop offset=".28" stop-color="#270E07"/></linearGradient><linearGradient id="aa4hmn1ut2" x1="37.14" y1="29.46" x2="37.14" y2="42.92" gradientUnits="userSpaceOnUse"><stop offset=".51" stop-color="#AC6633"/><stop offset="1" stop-color="#3C1A08"/></linearGradient><linearGradient id="ab4hmn1ut2" x1="23.86" y1="41.42" x2="24.62" y2="38.9" gradientUnits="userSpaceOnUse"><stop stop-color="#4E433D"/><stop offset="1" stop-color="#9F9289"/></linearGradient><linearGradient id="ac4hmn1ut2" x1="26.5" y1="42.08" x2="27.92" y2="42.97" gradientUnits="userSpaceOnUse"><stop stop-color="#1B1F3A"/><stop offset=".44" stop-color="#45121B"/><stop offset="1" stop-color="#183A6B"/></linearGradient><linearGradient id="ad4hmn1ut2" x1="17.52" y1="16.51" x2="17.52" y2="19.14" gradientUnits="userSpaceOnUse"><stop stop-color="#FEFFF9"/><stop offset="1" stop-color="#A29B8B"/></linearGradient><linearGradient id="ae4hmn1ut2" x1="38.61" y1="16.51" x2="38.56" y2="19.14" gradientUnits="userSpaceOnUse"><stop stop-color="#FEFFF9"/><stop offset="1" stop-color="#A29B8B"/></linearGradient></defs></svg>