<svg width="112" height="112" viewBox="0 0 56 56" xmlns="http://www.w3.org/2000/svg"><path d="m23.38 44.87.32-1.73v-.03c.61-3.31.81-4.43-.1-4.72-1.72-.57-3.6-1.29-4.58-3.39a6.52 6.52 0 0 1-.42-3.17c.2-1.8.9-5.26.9-5.26-.16-.08-.33-.2-.5-.34-.1-.08-2.4-2.1-2.33-5.43.01-.61.3-.82.55-.9.93-.27 2.76 1.01 4 2.15h.18a2.57 2.57 0 0 1 .8-1.82 2.56 2.56 0 0 1 1.75-.69 1.55 1.55 0 0 0-.56-.58.11.11 0 0 1-.05-.06l-.01-.07c0-.03.02-.05.03-.07.02-.02.04-.02.07-.03.37-.1.76-.09 1.13.01.37.1.71.3.99.56a2.81 2.81 0 0 1 .7-.95c.36-.3.77-.5 1.21-.63l.06-.01c.02 0 .04 0 .05.02.02 0 .04.01.04.03l.03.05v.08c0 .02-.03.05-.04.06-.21.22-.35.5-.41.8a3.29 3.29 0 0 0-.01 1.27A1.83 1.83 0 0 1 29.1 20c.04-.13.06-.27.08-.4a2.81 2.81 0 0 0-.1-1.18c-.01-.05 0-.09.02-.12a.13.13 0 0 1 .08-.07h.08l.07.04a2.88 2.88 0 0 1 .51.9 2.04 2.04 0 0 1 .9-.6c.15-.05.29-.08.44-.09l.06.01s.02 0 .03.02h.02l.03.05.02.05-.01.07-.04.05a1.93 1.93 0 0 0-.64 1.1l-.05.38c.46-.2.97-.25 1.47-.16a2.44 2.44 0 0 1 1.47.9c1.15-1.1 2.45-2.22 3.3-2.02.25.06.55.25.6.86a7.63 7.63 0 0 1-1.8 5.54c.28.5.5 1.05.63 1.63l1.01 3.87a5.67 5.67 0 0 1-2.97 6.42c-.44.24-.89.43-1.33.6-.9.32-1.21 1.16-1.2 1.8l.01.43.02.43c.06 1.49.12 3 .31 4.49A17.22 17.22 0 0 0 45 28.26C45 18.73 37.39 11 28 11s-17 7.73-17 17.26c0 7.9 5.24 14.57 12.38 16.6Z" fill="url(#akdj1u0jw)"/><defs><linearGradient id="akdj1u0jw" x1="11" y1="28.26" x2="45" y2="28.26" gradientUnits="userSpaceOnUse"><stop stop-color="#FF874F"/><stop offset="1" stop-color="#FF6F5F"/></linearGradient></defs></svg>