<svg width="224" height="224" viewBox="0 0 56 56" xmlns="http://www.w3.org/2000/svg"><circle cx="28" cy="28" r="17" fill="url(#ammvfaxrw)"/><path d="M32.44 19.26c0 .47-.02.94-.04 1.4 0 .12-.04.3-.09.52l-.08.48c0 .18.03.34.1.5.03.06.02.11-.02.16a.8.8 0 0 1-.25.22c-.05.03-.05.07 0 .1.06.03.1.08.13.15.03.06.04.12.04.2a7.87 7.87 0 0 0 .01 1.06 6.32 6.32 0 0 0-.32-1.28c-.02-.05-.04-.08-.07-.1a.17.17 0 0 0-.13 0 .17.17 0 0 0-.09.08.94.94 0 0 1-.3.33.2.2 0 0 0-.09.11c-.1.3-.12.6-.08.87.03.16-.01.3-.12.4a.07.07 0 0 1-.08.02.07.07 0 0 1-.05-.06 4.52 4.52 0 0 0-.3-1.42c-.1-.4-.2-.68-.26-.86-.12-.32-.24-.52-.36-.59-.19-.12-.35-.26-.5-.42l-.08-.3a.37.37 0 0 1-.01-.14.68.68 0 0 0-.07-.34c-.03-.07-.1-.17-.19-.29a5.96 5.96 0 0 1-.11-.15.67.67 0 0 1-.1-.24c-.05-.18-.16-.28-.33-.28a.13.13 0 0 1-.13-.07.38.38 0 0 0-.35-.21c-.05 0-.1.02-.14.05a.12.12 0 0 1-.08.03c-.06 0-.09-.03-.1-.09-.03-.25-.17-.34-.4-.27a.18.18 0 0 1-.14 0c-.11-.05-.22-.08-.31-.1-.14-.01-.24 0-.3.06a.18.18 0 0 1-.12.05c-.1 0-.27 0-.49-.02a4.12 4.12 0 0 0-.48-.01l-1.6.07a2.75 2.75 0 0 0-.69.14c-.14 0-.29.06-.45.2-.12.03-.25.1-.37.21a.67.67 0 0 0-.2.28 3.2 3.2 0 0 1-.17.4c-.09.17-.12.37-.1.6l.06.47a29.79 29.79 0 0 0 .13 1.1c.02 0 .02-.02.02-.03l-.02-.62.04 1.04-.1 1.4-.18-.85c-.04-.17-.1-.34-.21-.53-.1-.17-.19-.34-.26-.51a7.98 7.98 0 0 1-.35-1.37c-.04-.46-.1-.94-.17-1.42 0-.33.09-.67.26-1.02a.15.15 0 0 0 0-.12l-.07-.2a.16.16 0 0 1 .01-.13l.16-.28a.13.13 0 0 0 .01-.1c-.07-.33-.06-.64.04-.94.16-.23.26-.48.32-.75 0-.03.02-.05.05-.06.03 0 .06 0 .08.04l.2.34c.03.03.05.04.09.04.03 0 .06-.02.07-.05l.41-.75a.08.08 0 0 1 .06-.04c.02 0 .05 0 .06.02l.07.1c.02.05.06.06.1.02.19-.14.32-.32.41-.53.01-.03.04-.05.07-.05.06-.01.09.02.08.08 0 .05 0 .1.04.13.03.04.06.05.1.06h.02c.22.01.4 0 .5-.03l.81-.25a.22.22 0 0 0 .12-.08l.15-.2c.03-.05.07-.05.11-.01.22.19.48.26.77.22.35-.04.7-.13 1.05-.25a.16.16 0 0 1 .12 0c.28.12.5.28.66.48a.2.2 0 0 0 .13.08c.2.03.4.02.6-.02.05-.01.1 0 .13.03l.1.1c.05.07.1.12.13.14.05.05.11.07.17.08.1.01.17-.02.23-.08.04-.04.05-.03.04.03-.06.32.06.5.36.54.05 0 .1.03.14.06.6.49 1.17 1 1.7 1.55.09.1.16.2.21.31l.63 1.36Z" fill="#5F5A5E"/><path d="M29.5 21.13a.74.74 0 0 1-.22-.53.27.27 0 0 0-.03-.13 1.15 1.15 0 0 0-.59-.53.15.15 0 0 1-.1-.11c-.02-.14-.1-.23-.25-.27-.12-.03-.17.01-.17.13 0 .12-.05.2-.14.26a.08.08 0 0 1-.07 0 .09.09 0 0 1-.05-.04l-.35-.7a.13.13 0 0 0-.1-.07c-.4-.1-.76-.08-1.08.04a.24.24 0 0 1-.16 0c-.32-.1-.6-.15-.85-.15-.4-.01-.85 0-1.38.04a2.3 2.3 0 0 0-.61.13.6.6 0 0 0-.29.22c-.11.16-.26.3-.45.4a.19.19 0 0 0-.08.1c-.18.5-.25 1.02-.22 1.55-.02.1-.04.17-.06.19-.17-.71-.13-1.3.13-1.79.1-.18.35-.42.78-.72v-.01l-.01-.01c0-.02 0-.03.02-.04a.22.22 0 0 0 .1-.07h.03c.28-.1.5-.14.66-.14a76.6 76.6 0 0 0 1.6-.07l.48.01a4 4 0 0 0 .49.02c.04 0 .08-.02.11-.05.07-.05.17-.07.3-.06.1.02.2.05.32.1.04.01.08.02.13 0 .24-.07.38.02.41.27.01.06.04.09.1.1.03 0 .06-.02.08-.04a.19.19 0 0 1 .14-.05c.16 0 .28.07.35.21.03.05.07.07.13.07.17 0 .28.1.32.28.02.09.06.17.1.24l.12.15c.1.12.16.22.19.29.05.1.07.22.07.34v.14l.1.3Z" fill="#A4969C"/><path d="M23.27 19.02a.22.22 0 0 1-.1.07c-.02.01-.03.02-.02.04h.01v.02c-.43.3-.69.54-.78.72-.26.48-.3 1.08-.13 1.79a2 2 0 0 1-.04 1.01l-.04-1.04c-.23-1.07-.01-1.87.65-2.42.16-.13.31-.2.45-.19Z" fill="#928587"/><path d="M22.82 19.21c-.66.55-.88 1.35-.65 2.42a29.83 29.83 0 0 1 0 .65c-.02 0-.02 0-.02-.02a30 30 0 0 1-.16-1.55c-.03-.23 0-.43.09-.6.06-.12.12-.25.17-.4.04-.1.1-.2.2-.28.12-.1.25-.18.37-.22Z" fill="#7F6F70"/><path d="m28.91 21.99-2.84-.04a.1.1 0 0 0 0 .2l2.84.04a.1.1 0 1 0 0-.2Z" fill="#524344"/><path d="M22.67 22.5h-.07c-.03-.01-.05-.03-.05-.05a.25.25 0 0 1-.01-.09c.15-.05.3-.07.48-.06l1.56-.17c.04 0 .06 0 .06.05v.05c0 .02 0 .04-.03.04l-1.94.23Z" fill="#0E0A0C"/><path d="M27.74 23.2a.26.26 0 1 0 0-.5.26.26 0 0 0 0 .5Z" fill="#524344"/><path d="M24.02 23.38a.2.2 0 1 0 0-.42.2.2 0 0 0 0 .42Z" fill="#0E0A0C"/><path d="M31.83 24.24a2.26 2.26 0 0 1-.41-.7v-.02l.07-.03c.03-.02.05-.01.07.02.08.26.2.49.36.68.02.03.03.06.03.1 0 .03-.01.06-.04.09-.1.12-.23.22-.35.3-.09.04-.12.02-.09-.07.05-.14.16-.24.34-.3.02 0 .02-.01.03-.03l-.01-.04Z" fill="#7F6F70"/><path d="M25.07 25.89h1.26c.04 0 .06.02.06.06v.04c0 .04-.02.07-.07.06a10.1 10.1 0 0 0-1.68.02c-.09 0-.1-.03-.05-.1a.27.27 0 0 1 .11-.09.29.29 0 0 0 .12-.08c.38-.42.58-.9.61-1.44 0-.04.02-.06.06-.05l.05.01c.02 0 .02.02.02.03.01.47-.17.95-.54 1.43-.06.07-.04.1.05.1Z" fill="#0E0A0C"/><path d="M32.04 24.76c-.05.13-.07.24-.03.25.03.02.1-.07.15-.2.05-.12.06-.23.03-.25-.04-.01-.1.08-.15.2Z" fill="#A4969C"/><path d="M31.12 25.4a2.29 2.29 0 0 0-.08-.23c-.02-.06-.01-.06.03-.02l.31.41c.03.04.04.08.01.13-.12.19-.2.39-.23.6 0 .04-.03.05-.06.04l-.04-.01c-.01 0-.02-.01-.01-.03.1-.39.12-.69.07-.9Z" fill="#7F6F70"/><path d="M33.63 26.34c-.02.08 0 .16.04.16.03 0 .07-.06.08-.15.02-.08 0-.16-.04-.16-.03 0-.07.06-.08.15Z" fill="#AC9FA6"/><path d="M15.62 26.42c.22.17.33.4.34.68 0 .05-.01.09-.05.12-.14.11-.17.26-.09.45.02.04 0 .07-.03.08h-.07a.9.9 0 0 1-.05-.37c0-.06-.02-.1-.07-.12l-.17-.09a.22.22 0 0 1-.12-.14.22.22 0 0 1 .03-.18l.17-.3.11-.13Z" fill="#736363"/><path d="M33.3 26.77c.13-.07.2-.17.18-.22-.03-.05-.16-.03-.28.04-.13.07-.2.16-.18.21.03.06.16.04.28-.03Z" fill="#A99598"/><path d="M15.51 26.83a.4.4 0 0 1 .11-.17c.05-.04.09-.03.12.02.07.09.08.18.03.28-.03.08-.08.1-.16.08-.1-.04-.14-.1-.1-.21Z" fill="#B5A8AF"/><path d="M16.36 27.15c-.03.27-.01.5.04.5s.1-.21.13-.49c.03-.27.01-.5-.03-.5-.05 0-.11.21-.14.49Z" fill="#7F6F70"/><path d="m24.4 29.74.83.93c.01.16.1.28.23.36l.43.25c.13.09.24.2.3.31.14.24.19.5.15.77a2 2 0 0 0-.01.49c.02.17.07.34.16.5a.1.1 0 0 1 0 .1.1.1 0 0 1-.08.05c-.12.01-.2-.01-.25-.07a.48.48 0 0 0-.2-.12.58.58 0 0 1-.17-.08l-.44-.42a.57.57 0 0 1-.15-.34c0-.09 0-.21.02-.39l.03-.35a.8.8 0 0 0-.08-.34.29.29 0 0 1-.03-.13l-.01-.36a8.43 8.43 0 0 1-.63-.8c-.2-.3-.4-.57-.6-.82a8.88 8.88 0 0 1-1.04-1.72c-.06-.43.02-.38.23.17l.13.25c.38.58.77 1.17 1.18 1.76Z" fill="#5F5A5E"/><path d="M30.61 27.37c.03-.08.05-.08.08 0a.3.3 0 0 1-.02.22c-.03.07-.05.07-.07 0a.5.5 0 0 1 .01-.22Z" fill="#B5A8AF"/><path d="m27.2 27.55-2.98-.06a.04.04 0 0 0-.04.04v.06c0 .02.02.04.04.04l2.97.07c.02 0 .04-.02.04-.04v-.07a.04.04 0 0 0-.04-.04Z" fill="#0E0A0C"/><path d="M30.5 28.12a.4.4 0 0 1 0-.21c.01-.03 0-.04-.01-.01h-.04c-.02 0-.03.01-.04.03-.05.22-.16.4-.3.54a.39.39 0 0 0-.08.11c-.05.1-.1.11-.15.03l.4-.61c.08-.12.16-.2.26-.27.04-.03.06-.02.06.03 0 .12-.03.24-.1.36Z" fill="#A4969C"/><path d="M30.5 28.12c-.1.27-.21.55-.34.81-.1.2-.12.35-.09.47.05.18.15.32.29.42a.1.1 0 0 0 .1.02c.03-.01.05-.03.07-.06.02-.05.08-.1.16-.17a.71.71 0 0 0 .16-.18c.08-.14.17-.28.28-.42.04-.05.07-.05.1 0l.16.29.68.39c.06.03.1.09.12.15.02.07.02.14-.02.2l-.6 1.1c-.14.23-.28.44-.43.63-.08.12-.22.25-.42.4-.16.12-.3.26-.42.4-.23.15-.49.27-.79.38a12.99 12.99 0 0 1-1.33.41.9.9 0 0 1-.75-.08c-.35-.55-.28-1 .21-1.34a.24.24 0 0 1 .14-.04c.07 0 .13-.03.16-.09a.13.13 0 0 1 .1-.05c.22-.04.31-.17.28-.4a.8.8 0 0 1 0-.1c-.01-.1-.04-.18-.08-.23a.16.16 0 0 1-.04-.12c.01-.2.1-.36.26-.48.26-.2.53-.44.8-.7a.5.5 0 0 0 .16-.3c.02-.08-.01-.1-.07-.05l-1.14.86 1.67-1.63c.05.08.1.07.15-.03a.38.38 0 0 1 .08-.11c.14-.14.25-.32.3-.54 0-.02.02-.03.04-.02l.04-.01c.02-.03.02-.02.01 0a.4.4 0 0 0 0 .22Z" fill="#AC9FA6"/><path d="m30.28 28-.4.6-1.67 1.64-.1.04a.5.5 0 0 0-.16.06.4.4 0 0 1-.14.06c-.01 0-.02 0-.03-.02v-.04c.54-.38 1.02-.77 1.45-1.15.06-.05.1-.1.13-.17a.38.38 0 0 1 .07-.11l.85-.91Z" fill="#B5A8AF"/><path d="M16.34 28.59c0 .05 0 .1-.04.14-.02.02-.05.02-.07-.02-.17-.12-.24-.26-.23-.42.01-.05.04-.08.08-.1.05-.02.1-.02.13.02.1.09.15.21.13.38ZM33.17 30.16c.14.54-.21 1.07-1.06 1.58.43-.36.75-.77.96-1.23a.16.16 0 0 0 0-.14 1.17 1.17 0 0 0-.63-.61c-.07-.03-.1-.01-.09.07l.01.07c.01.05 0 .1-.01.14-.18.45-.42.86-.73 1.23-.06-.01-.08-.05-.06-.12l.61-1.11a.25.25 0 0 0 .02-.2.25.25 0 0 0-.12-.15l-.68-.4c.5.14.88.26 1.16.38.17.07.38.23.62.5Z" fill="#5F5A5E"/><path d="M27.43 33.28a1.02 1.02 0 0 1-.37-.3.2.2 0 0 1-.04-.12v-.7c0-.15.06-.25.18-.3a.32.32 0 0 0 .11-.08l.25-.27a.17.17 0 0 0 .05-.12c0-.2.1-.4.3-.6.22-.2.45-.39.7-.59v-.05l-.03-.03h-.03l-.44.31a.93.93 0 0 1-.38.16 2.92 2.92 0 0 1-.6.04c0-.07.07-.1.18-.1.26 0 .53-.09.8-.25l.1-.04 1.14-.86c.06-.05.09-.03.07.04a.5.5 0 0 1-.15.3c-.28.27-.55.5-.81.71a.64.64 0 0 0-.27.48c0 .04.02.08.05.12.04.05.07.13.07.24v.1c.04.22-.05.35-.28.39a.13.13 0 0 0-.09.05.18.18 0 0 1-.16.09c-.05 0-.1.01-.14.04-.5.34-.56.8-.21 1.34Z" fill="#A4969C"/><path d="m32.1 31.74-.97.5a.08.08 0 0 1-.07.01c-.05-.02-.07-.05-.07-.1a.2.2 0 0 1 .05-.12c.2-.24.4-.5.58-.76.3-.37.55-.78.73-1.23a.25.25 0 0 0 .01-.14v-.07c-.02-.08.01-.1.08-.07.3.14.51.34.63.61.02.05.02.1 0 .14-.21.46-.53.87-.96 1.23Z" fill="#B5A8AF"/><path d="M36.54 31.23c1.08.25 2.15.6 3.2 1.02-.03.07-.02.12.02.16.02.02.04.02.07 0l.03-.02c.06-.04.1-.02.12.04.02.06.06.1.12.1a.1.1 0 0 1 .08.08c.06.19.1.39.13.6a1 1 0 0 0 .15.42c.13.2.28.38.46.53l.03.06v.04c0 .05.02.08.06.11a4.44 4.44 0 0 1 .96 1c.15.17.25.3.3.4.14.23.3.44.5.63l-1.1 1.7c-.2.07-.27-.04-.23-.32.02-.13 0-.33-.07-.6a.7.7 0 0 0-.18-.33 3.28 3.28 0 0 0-.15-.14 1.3 1.3 0 0 1-.34-.39c-.05-.09-.1-.18-.17-.27a1.8 1.8 0 0 0-.53-.46.22.22 0 0 0-.18-.02.22.22 0 0 0-.14.12c-.05.1-.05.2 0 .32.03.05.04.11.04.18-.01.24-.06.45-.13.61-.07.17-.12.33-.14.47a.6.6 0 0 1-.06.24c-.04.07-.1.14-.16.2-.04.05-.07.05-.1 0a.16.16 0 0 1-.03-.14.11.11 0 0 0-.03-.12c-.2-.19-.23-.4-.08-.63.09-.15.07-.26-.07-.35a.84.84 0 0 1-.22-.21 1.29 1.29 0 0 1-.15-.27 2 2 0 0 0-.21-.38l-.47-.66a1.6 1.6 0 0 0-.52-.48 1.93 1.93 0 0 0-.9-.25c-.16 0-.32-.02-.48-.04a1.52 1.52 0 0 1-.46-.15 2.3 2.3 0 0 0-.45-.17c-.16-.04-.3-.1-.41-.2a3.05 3.05 0 0 0-1.68-.63c-.14-.01-.28-.03-.4-.06a.18.18 0 0 1-.13-.09.26.26 0 0 0-.08-.09c-.04-.03-.08-.02-.12 0-.12.1-.25.19-.38.26a.52.52 0 0 1-.4.06l-.52-.13a.18.18 0 0 1-.1-.07c-.18-.26-.36-.37-.54-.34.12-.14.26-.28.42-.4.2-.15.34-.28.42-.4.15-.2.3-.4.42-.62-.02.07 0 .11.06.12-.18.27-.37.52-.58.76a.2.2 0 0 0-.05.13c0 .04.02.07.07.1l.07-.01.98-.51c.85-.51 1.2-1.04 1.06-1.58.27-.12.54-.08.8.12a17.37 17.37 0 0 0 .53.4l.12.06 1.92.5Z" fill="#A99598"/><path d="M27.43 33.28a.9.9 0 0 0 .75.08l.67-.08c.06 0 .09.02.1.07.02.23.17.43.43.6.04.02.07.05.1.09.17.29.38.5.6.62.27.15.59.3.95.42.27.1.54.16.82.18.32.03.6.1.83.19.24.1.49.2.74.27.24.08.46.2.65.33a5.36 5.36 0 0 1 1.95 2.2c.02 0 .03.02.04.04.27.61.57 1.23.88 1.85.08.15.17.27.29.38l.38.34a.2.2 0 0 0 .21.04.2.2 0 0 0 .14-.17l.11-.71c.03-.22.09-.41.17-.6.09-.19.14-.4.16-.62.01-.13.08-.31.22-.54.03-.05.03-.1.02-.15-.02-.12 0-.2.07-.27a.1.1 0 0 1 .12-.02.1.1 0 0 1 .06.1c-.04.63-.05 1.2-.03 1.74 0 .05.02.08.07.1a.1.1 0 0 0 .12-.03l.07-.07a.29.29 0 0 0 .07-.12l.14-.37c.05-.11.1-.23.13-.37.04-.15.11-.3.2-.43.03-.04.07-.05.1-.02.05.03.08.06.1.1.03.06.04.12.02.18-.1.3-.12.6-.02.94.03.14.13.2.27.16.1-.02.17-.07.22-.15.1-.19.2-.34.31-.48a.26.26 0 0 0 .06-.14c.03-.28.13-.5.3-.67.06-.05.11-.05.17 0a.1.1 0 0 1 .04.09v.06c0 .03.03.05.06.05h.07l-.56.65-.65.74c-.25.27-.5.49-.73.67-.1.07-.22.13-.35.17l-.37.12c-.1.04-.16 0-.15-.11l.08-.93c0-.03.01-.04.04-.05.02 0 .02-.02.01-.04v-.05c.04-.28.05-.57.02-.88 0-.09-.05-.11-.13-.08l-.05.03a.12.12 0 0 0-.07.11c.01.44-.05.74-.18.91a.19.19 0 0 0-.04.14c0 .08 0 .16-.05.24-.2.4-.18.78.06 1.16.03.05.03.1 0 .15a.15.15 0 0 1-.12.1h-.1a.15.15 0 0 0-.11.08c-.16.26-.42.5-.79.75-.24.16-.57.33-.97.53a6.13 6.13 0 0 0-.44-1.4c-.1-.2-.27-.42-.5-.67-.1-.1-.17-.23-.22-.38a1.5 1.5 0 0 0-.23-.42c-.04-.05-.1-.14-.15-.27a4.38 4.38 0 0 0-.08-.16.14.14 0 0 0-.06-.06.27.27 0 0 1-.16-.23.07.07 0 0 0-.06-.07l-.06-.01a.16.16 0 0 1-.1-.08c-.16-.28-.3-.44-.45-.49a.32.32 0 0 1-.15-.11.9.9 0 0 0-.17-.18 8.48 8.48 0 0 0-.73-.53c-.27-.17-.52-.35-.76-.53-.3-.24-.63-.42-1-.54a.13.13 0 0 0-.1 0c-.07.05-.14.03-.19-.05h-.02a.63.63 0 0 1-.03.02c-.02.01-.04 0-.05-.02-.06-.1-.16-.16-.3-.17a.06.06 0 0 1-.06-.04.3.3 0 0 0-.12-.16 6.3 6.3 0 0 0-1.2-.59.16.16 0 0 1-.1-.09.62.62 0 0 0-.17-.22.13.13 0 0 1-.05-.1l-.03-.4a.2.2 0 0 0-.05-.13c-.11-.11-.2-.25-.25-.41-.02-.05-.05-.07-.1-.07-.27.04-.46-.1-.58-.39a.9.9 0 0 1-.04-.28l-.01-.2a.1.1 0 0 0-.08-.09.71.71 0 0 1-.41-.23.52.52 0 0 1-.13-.34c0-.2-.02-.4-.05-.59-.07-.33.01-.64.25-.92a.87.87 0 0 1 .25-.19l.23-.14c.04-.04.05-.08.03-.13-.02-.04-.05-.06-.1-.06h-.31c-.05-.03-.05-.05-.02-.09a.18.18 0 0 1 .1-.06h.17c.19-.01.33-.02.42-.04a.93.93 0 0 0 .38-.16l.44-.31h.03l.03.03v.05c-.25.2-.48.4-.7.6-.2.19-.3.38-.3.59 0 .04-.02.08-.05.12l-.25.27a.32.32 0 0 1-.1.08c-.13.05-.2.15-.2.3v.7c0 .04.02.09.05.12.1.14.23.24.37.3Z" fill="#907C7C"/><path d="M25.23 30.67c.15.15.33.24.54.29.33.06.67.07 1 .03.05 0 .12-.02.2-.06a.5.5 0 0 1 .26-.05c.16.03.17.08.02.16l-.71.38a.13.13 0 0 0-.08.12l.01.62-.02.54c0 .27.1.5.33.68.1.07.15.18.12.3-.01.1 0 .19.05.27.11.19.25.35.4.5.1.1.14.17.13.23a.36.36 0 0 1-.33.28c-.4.04-.82.05-1.26.05-.17 0-.33-.03-.5-.07a8.66 8.66 0 0 1-.48-.15 1.19 1.19 0 0 1-.36-.2l-.37-.23a1.26 1.26 0 0 1-.34-.24l-.29-.28a.2.2 0 0 1-.07-.12l-.34-1.78a7.5 7.5 0 0 0 1.85-.7c.09-.06.14-.17.14-.34v.36c0 .05.02.1.04.13.05.1.07.21.08.34l-.03.35c-.02.17-.03.3-.02.39.01.13.06.25.15.34.13.14.28.28.44.41l.17.09c.09.03.16.07.2.12.05.06.13.08.25.07a.1.1 0 0 0 .08-.05.1.1 0 0 0 0-.1 1.37 1.37 0 0 1-.16-.5 2 2 0 0 1 .01-.49c.04-.27 0-.53-.14-.77a.93.93 0 0 0-.31-.31 8.54 8.54 0 0 0-.43-.25.42.42 0 0 1-.23-.36Z" fill="#736363"/><path d="m27.13 30.79.24-.01c.05 0 .08.02.1.06.02.05 0 .1-.03.13-.05.04-.12.09-.23.14a.87.87 0 0 0-.25.19c-.24.28-.32.59-.25.92.03.2.05.39.05.59 0 .13.04.25.13.34.1.12.23.2.41.23a.1.1 0 0 1 .08.09l.01.2c0 .13.02.22.04.28.12.3.3.43.58.4.05-.01.08 0 .1.06.06.16.14.3.25.41a.2.2 0 0 1 .05.13l.03.4c0 .04.02.07.05.1.07.06.12.13.16.22.02.05.06.08.1.1.43.15.83.34 1.2.58.07.04.11.1.13.16.01.02.03.04.06.04.14.01.24.07.3.17.01.03.03.03.05.02l.03-.03h.02c.05.09.12.1.19.07a.13.13 0 0 1 .1-.01c.37.12.7.3 1 .54.24.18.5.36.76.53.26.17.5.35.73.53.06.05.12.11.17.18.04.05.09.1.15.11.14.05.3.21.45.49.02.04.06.07.1.08l.06.01c.04.01.06.03.06.07.01.11.07.19.16.23l.06.06.08.16c.06.13.1.22.15.27.1.12.17.26.23.42.05.15.13.28.22.38.23.25.4.48.5.67.14.25.28.72.44 1.4-.87.5-1.85.92-2.94 1.3-.46.15-.95.26-1.48.33l-.92-1.54a1.48 1.48 0 0 0-.29-.38 1 1 0 0 1-.28-.4.24.24 0 0 0-.08-.11.38.38 0 0 1-.13-.18 1.17 1.17 0 0 0-.13-.24l-.57-.85a.2.2 0 0 0-.1-.08.32.32 0 0 1-.14-.07c-.37-.37-.75-.74-1.14-1.1a.16.16 0 0 0-.1-.04 55.01 55.01 0 0 1-.73-.58 3.04 3.04 0 0 1-.51-.63l-.08-.11a.25.25 0 0 1-.04-.12 1.12 1.12 0 0 0-.3-.65.47.47 0 0 1-.1-.18l-.03-.2a.18.18 0 0 0-.06-.11.22.22 0 0 0-.12-.06.14.14 0 0 1-.1-.08.33.33 0 0 0-.21-.17.57.57 0 0 1-.2-.1.93.93 0 0 0-.46-.22 1.4 1.4 0 0 1-.38-.1 1.2 1.2 0 0 0-.35-.09c-.15-.02-.3-.04-.44-.08a3.02 3.02 0 0 0-.97-.04 1.2 1.2 0 0 1-.54-.12 4 4 0 0 1-.86-.53.23.23 0 0 0-.13-.05h-.39a.4.4 0 0 1-.2-.09c-.25-.2-.38-.43-.4-.66-.03-.32-.1-.53-.2-.63l.3-.43c.28-.49.62-.83 1.01-1.02.47-.22 1.07-.4 1.78-.55l.34 1.78c.01.05.03.09.07.12l.3.28c.1.1.2.18.33.25.13.06.25.14.37.23.1.08.22.15.36.2l.48.14c.17.04.33.06.5.07.44 0 .87 0 1.27-.04a.36.36 0 0 0 .32-.29c.01-.06-.03-.14-.12-.23-.16-.15-.3-.31-.4-.5a.38.38 0 0 1-.06-.26.3.3 0 0 0-.12-.31.78.78 0 0 1-.33-.68 13.79 13.79 0 0 0 .01-1.16c0-.06.03-.1.08-.12l.71-.38c.15-.08.14-.13-.02-.16a.5.5 0 0 0-.26.05.66.66 0 0 1-.2.06c-.33.04-.67.03-1-.03.54.05 1-.01 1.36-.17Z" fill="#7F6F70"/><path d="M39.74 32.25c.38.1.73.23 1.04.42.16.15.3.31.42.48l.38.5c.35.38.69.77 1.02 1.17.21.25.45.44.72.55l-.55 1.03c-.2-.2-.36-.4-.5-.63a3.2 3.2 0 0 0-.3-.4l-.18-.22c-.21-.27-.47-.53-.78-.78a.15.15 0 0 1-.06-.11v-.04a.09.09 0 0 0-.03-.06 2.55 2.55 0 0 1-.46-.53 1 1 0 0 1-.15-.42c-.03-.21-.07-.41-.13-.6a.1.1 0 0 0-.08-.07.15.15 0 0 1-.12-.1c-.02-.07-.06-.09-.12-.05l-.04.02c-.02.02-.04.02-.06 0-.04-.04-.05-.1-.02-.16Z" fill="#B5A8AF"/><path d="M30.3 32.57c.18-.03.36.08.53.34.03.04.07.06.11.07l.53.13c.14.03.27.01.39-.06.13-.07.26-.16.38-.25.04-.03.08-.04.12 0 .03.01.06.04.08.08.03.05.07.08.13.1l.4.05c.6.04 1.17.25 1.68.64.1.08.25.15.41.2.15.03.3.09.45.16.14.08.3.12.46.15.16.02.32.04.48.04.34.01.64.1.9.25.2.11.38.27.52.48l.47.66a2 2 0 0 1 .2.38c.04.09.1.18.16.27.07.1.15.17.22.21.14.09.16.2.07.35-.15.23-.12.44.08.63.03.03.04.07.03.12-.02.05 0 .1.02.14.04.05.07.05.1 0 .07-.06.13-.13.17-.2a.6.6 0 0 0 .06-.24c.02-.14.07-.3.14-.47.07-.16.12-.37.13-.61 0-.07 0-.13-.04-.18a.35.35 0 0 1 0-.32c.02-.06.07-.1.14-.12a.22.22 0 0 1 .18.02c.23.14.4.3.53.46l.17.27c.04.1.16.24.34.4l.15.13c.08.08.14.19.18.34.07.26.1.46.07.59-.04.28.04.39.23.32l-.31.4h-.07c-.03-.01-.05-.03-.06-.06v-.06a.1.1 0 0 0-.04-.1c-.06-.04-.11-.04-.17.01-.17.17-.27.4-.3.67 0 .05-.03.1-.06.14-.1.14-.21.3-.31.48a.31.31 0 0 1-.22.15c-.14.03-.24-.02-.27-.16a1.5 1.5 0 0 1 .02-.94.21.21 0 0 0-.02-.18.27.27 0 0 0-.1-.1c-.03-.03-.07-.02-.1.02-.09.13-.16.28-.2.43-.03.14-.08.26-.13.37l-.14.37a.29.29 0 0 1-.07.12l-.07.07a.1.1 0 0 1-.12.03.1.1 0 0 1-.07-.1c-.02-.54-.01-1.11.03-1.73a.1.1 0 0 0-.06-.11.1.1 0 0 0-.12.02c-.07.07-.09.15-.07.27.01.05 0 .1-.02.15-.14.23-.2.4-.22.54-.02.22-.07.43-.16.63-.08.18-.14.37-.17.59l-.1.71a.2.2 0 0 1-.15.17.2.2 0 0 1-.2-.04 14.5 14.5 0 0 1-.39-.34c-.12-.1-.21-.23-.29-.38a37.47 37.47 0 0 1-.92-1.89 9.67 9.67 0 0 1-3.34-2.8c-.23-.1-.5-.16-.83-.19a3.3 3.3 0 0 1-.82-.18 6.23 6.23 0 0 1-.94-.42 1.71 1.71 0 0 1-.61-.62.29.29 0 0 0-.1-.1c-.26-.16-.4-.36-.43-.59-.01-.05-.04-.08-.1-.07l-.67.08.52-.15c.36-.1.63-.19.81-.26.3-.1.56-.23.8-.38Z" fill="#978383"/><path d="M40.78 32.67c.16.05.3.09.43.1a.4.4 0 0 1 .16.06c.03.01.07.05.12.1.03.03.07.05.11.06.16.04.3.1.42.2.16.12.34.2.55.24.16.04.32.12.46.24.26.21.5.44.73.7l-.44 1c-.27-.11-.5-.3-.72-.55-.33-.4-.67-.79-1.02-1.17l-.38-.5a3.72 3.72 0 0 0-.42-.48Z" fill="#C4B8BE"/><path d="m20.35 33.5-.3.44-.28.46c-.2.56-.26 1.15-.21 1.76-.02.06-.04.22-.06.47 0 .16-.09.27-.24.32a5.04 5.04 0 0 0-.77.38c-.08.04-.19.1-.32.2s-.23.15-.3.19c-.16.08-.31.17-.46.28-.17.12-.38.23-.64.33-.56.21-1.14.42-1.74.62a15.73 15.73 0 0 1-2.35-3.62c.44.09.87.12 1.29.08a.1.1 0 0 0 .08-.06c.02-.03.04-.04.08-.04.13.01.26-.01.41-.07l1.06-.4c.28-.11.58-.26.89-.44.37-.22.71-.38 1.02-.47l1.2-.33c.24-.07.48-.1.72-.08l.66.06c.04 0 .08 0 .11-.04v-.02c0-.03 0-.04.04-.03l.1.02Z" fill="#928587"/><path d="m31.73 44.53-1.35.2a2.5 2.5 0 0 0-.68-1.52 1.02 1.02 0 0 1-.18-.24.67.67 0 0 0-.26-.26 1.9 1.9 0 0 1-.37-.28l-1.13-1.08a.64.64 0 0 1-.15-.21.26.26 0 0 0-.09-.1 11.96 11.96 0 0 0-1.62-1h-.03a.18.18 0 0 1-.1-.04 1.8 1.8 0 0 0-.55-.3 1.57 1.57 0 0 1-.44-.26 9.12 9.12 0 0 0-.12-.09c-.02-.02-.05-.01-.07 0a.06.06 0 0 1-.04.02.12.12 0 0 1-.08-.03.95.95 0 0 0-.46-.18.6.6 0 0 1-.3-.15.12.12 0 0 0-.13-.02.49.49 0 0 1-.25 0 .2.2 0 0 0-.12.02c-.1.06-.26.06-.47.03a3.73 3.73 0 0 1-.51-.13.82.82 0 0 0-.45-.01.21.21 0 0 1-.13-.01.85.85 0 0 0-.42-.06c-.04 0-.09 0-.12-.04a.72.72 0 0 1-.27-.5 1.73 1.73 0 0 0-.1-.46c-.06-.15-.1-.3-.13-.46-.06-.38-.1-.76-.12-1.12a.08.08 0 0 0-.06-.07.06.06 0 0 1-.03-.03 1.68 1.68 0 0 1-.13-.88.98.98 0 0 0-.06-.49 4.04 4.04 0 0 1-.16-.47c-.02-.06-.05-.07-.1-.03a.34.34 0 0 1-.18.12l.28-.46c.1.1.17.31.2.63.02.23.15.45.4.66a.4.4 0 0 0 .2.09h.39c.05 0 .1.02.13.05.26.21.55.4.86.53.18.09.36.13.54.12h.16c.38-.02.65 0 .8.04.16.04.3.06.45.08.12.01.24.04.35.1.12.04.25.08.38.1.17.02.32.09.47.2.05.05.12.09.19.11.1.03.16.09.2.17.03.04.06.07.11.08.05 0 .1.03.12.06.03.03.05.07.06.1v.01c0 .1.02.16.03.2.02.06.06.12.1.18.17.17.27.4.3.65 0 .04.02.08.04.12l.08.11c.2.3.37.51.5.63a54.14 54.14 0 0 0 .73.58c.05 0 .08.01.11.04.4.36.77.73 1.14 1.1.03.02.07.05.13.07a.2.2 0 0 1 .1.08l.58.85c.06.08.1.16.13.24.03.07.07.13.13.18.04.03.07.06.08.1a1 1 0 0 0 .28.41c.11.1.21.23.3.38.3.54.6 1.05.91 1.54Z" fill="#736363"/><path d="M30.38 44.73c-1.68.02-3.35.02-5.02 0-.6 0-1.4-.17-2.37-.52.15-.05.11-.11-.11-.2a.12.12 0 0 1-.09-.12v-.24c0-.05-.01-.1-.03-.14a2.28 2.28 0 0 1-.2-.57c-.03-.2-.1-.4-.22-.59a33.4 33.4 0 0 0-.7-1.13l.02-.01v-.05a.88.88 0 0 0-.22-.26.28.28 0 0 1-.12-.21l-.05-.72c0-.08-.05-.14-.13-.16a.9.9 0 0 1-.4-.25.16.16 0 0 1-.05-.14c.03-.38.01-.74-.05-1.08a.38.38 0 0 0-.06-.14.56.56 0 0 1-.08-.15c-.04-.16-.15-.24-.32-.24a.13.13 0 0 0-.11.06l-.38.55-.13-2.26c-.05-.61.02-1.2.21-1.76a.34.34 0 0 0 .19-.12c.04-.04.07-.03.09.03.04.16.1.32.16.47.06.16.08.33.06.5-.03.29.01.58.13.87l.03.03c.04.01.05.04.06.07.02.36.06.74.12 1.12.03.16.07.3.13.46.05.15.09.3.1.46.02.2.1.37.27.5.03.03.08.05.12.04.14-.02.28 0 .42.06.04.01.09.02.13 0a.82.82 0 0 1 .49.03l.47.12c.2.03.36.03.47-.03a.2.2 0 0 1 .12-.01.5.5 0 0 0 .25-.01c.05-.02.09-.01.12.02.1.08.2.13.31.15.19.03.34.09.46.18.02.02.05.03.08.03l.04-.01c.02-.02.05-.03.07 0l.12.08c.18.15.33.23.44.27.2.06.37.16.54.29.03.02.07.03.1.03h.04a11.96 11.96 0 0 1 1.62 1c.04.03.07.07.09.11.03.08.08.15.15.2l1.13 1.1c.1.1.23.2.37.27.1.06.2.15.26.26.05.09.1.17.18.24.36.35.59.86.68 1.52Z" fill="#6D5E5B"/><path d="M22.99 44.2a5.8 5.8 0 0 1-1.75-.63 14.53 14.53 0 0 1-1.31-1.1c-.2-.2-.32-.42-.34-.68-.01-.15.01-.39.08-.7.07-.33.1-.57.09-.74l-.07-1.93.38-.55a.13.13 0 0 1 .11-.06c.17 0 .28.08.32.24l.08.15c.03.04.05.1.06.14.06.34.08.7.05 1.08 0 .06 0 .1.04.14.11.12.25.2.41.25.08.02.12.08.13.16l.05.72c.01.09.05.16.12.2.09.08.16.16.22.27v.05h-.01v.04c.24.37.47.73.69 1.1.11.2.19.39.23.59.04.2.1.4.19.57l.03.14v.24c0 .06.03.1.09.12.22.09.26.15.1.2Z" fill="#524344"/><defs><linearGradient id="ammvfaxrw" x1="37.6" y1="15.67" x2="28" y2="45" gradientUnits="userSpaceOnUse"><stop stop-color="#E8E1E6"/><stop offset="1" stop-color="#7F6F70"/></linearGradient></defs></svg>