<svg width="224" height="224" viewBox="0 0 56 56" xmlns="http://www.w3.org/2000/svg"><path d="m23.83 26.01 3.17-7V12l-.02.03c-5.16.33-9.65 3.1-12.34 7.17l2.6 1.52a13.02 13.02 0 0 1 7.65-5.34l-8.35 18.8a12.96 12.96 0 0 1-.3-11.72l-2.6-1.53a16 16 0 0 0 5.2 20.22l1.13-2.9c-.42-.33-.81-.68-1.19-1.06l3.7-8.17H27v-3h-3.17ZM21.68 39.39l-1.1 2.82A15.9 15.9 0 0 0 27 44v-3.01a12.91 12.91 0 0 1-5.32-1.6Z"/><path d="M39.46 34.17a12.96 12.96 0 0 0-1.24-14.21l2.07-2.2a15.98 15.98 0 0 1-1.7 22.27l-.05-.08-.04.08-.64-1.42-.7-1.36.06-.06-3.7-8.17H29v-3h3.17L29 19V12l.02.03c3.81.24 7.26 1.82 9.89 4.27l-2.06 2.19a12.97 12.97 0 0 0-5.74-3.11l8.35 18.8ZM35.6 38.58a12.92 12.92 0 0 1-6.6 2.41V44a15.9 15.9 0 0 0 7.98-2.73l-1.38-2.7Z" fill="#AF151D"/><path fill-rule="evenodd" d="M26.25 31.73c0-.2-.13-.64-.63-.72-.62-.1-1.36.62-1.46 1.44-.08.66-.17.85-.3 1.17l-.12.26c-.1.26-.31.46-.48.63-.17.17-.3.3-.25.4.04.08.1.02.2-.1.16-.16.44-.46.95-.52.84-.1 1.57.51 1.15.92-.25.25-.5.1-.73-.05-.15-.1-.3-.2-.42-.15-.31.1-.31 1.23.2 1.33.3.06.46-.13.6-.3.11-.14.2-.26.35-.21.31.1.63.51.31.82a3.5 3.5 0 0 0-.12.13c-.24.25-.44.47-1.34.38.07.17.36.52.94.52.33 0 .6-.09.83-.16.28-.09.5-.16.74-.05.16.08.25.19.34.28.15.16.27.3.6.23.22-.04.44-.32.68-.63.33-.42.71-.9 1.2-.9.44 0 .68.14.9.28.2.12.37.23.66.23.63 0 .94-.1 1.36-.62l.19-.22c.31-.36.51-.6.33-1.11-.13-.38-.33-.57-.62-.82-.18-.16-.39-.34-.63-.62a6.4 6.4 0 0 1-.64-.94c-.29-.48-.55-.92-.93-1.1-.41-.21-.55-.19-.79-.15a2.6 2.6 0 0 1-.46.04c-.29 0-.4 0-.5.02-.13.02-.25.07-.65.19-.45.12-.59.17-.72.19l-.32.01c-.34 0-.42-.07-.42-.1Zm-1.15-.1a.6.6 0 0 1 .73-.21c.31.1.21.51 0 .82-.2.3-.2.41.21.51.28.07.42-.23.54-.5.06-.13.12-.25.2-.32.2-.2.62.2.62.52 0 .3-.84 2.15-1.36 2.15-.52 0-.42-.72-.2-.92.2-.2-.11-.41-.43-.52-.14-.04-.26.12-.4.3-.16.22-.35.48-.64.42-.52-.1.42-1.84.73-2.25Zm2.72 1.02c-.09-.5.73-.75 1.14-.82.84-.1 1.26.62 1.36 1.13.1.51.21 1.64-1.15 1.74-1.14.09-1.25-1-1.31-1.7a5.02 5.02 0 0 0-.04-.35Zm3.34 1.85c.2.13.69.4.94.4.31 0 .42-.5-.32-.81-.73-.31-1.35-.2-1.46.2-.1.41-.1.92.42 1.23.52.31.42.52.1.52-.13 0-.26-.15-.4-.3-.17-.2-.35-.4-.54-.22-.3.31.32 1.13 1.15 1.13.84 0 1.47-.51.84-1.03l-.06-.04c-.6-.5-1.08-.88-.67-1.08Z"/><path d="M28.65 33.27c-.17-.58.14-.79.31-.82.32-.1.42.2.53.5.1.32.1.93-.1.93-.22 0-.53.1-.74-.61Z"/><path fill-rule="evenodd" d="M27.6 37.37c1.05 0 1.89-.83 1.89-1.85s-.84-1.84-1.88-1.84-1.88.82-1.88 1.84.84 1.85 1.88 1.85Zm0 .2c1.16 0 2.1-.91 2.1-2.05 0-1.13-.94-2.05-2.1-2.05-1.15 0-2.08.92-2.08 2.05 0 1.14.93 2.05 2.09 2.05Z" fill="#BB1F23"/><path d="M27.43 33.47h.35l1.49 3.24-.2.09-.48-1.07h-1.77l-.47 1.26-.2-.07 1.28-3.45Zm-.54 2.05h1.6l-.85-1.84h-.06l-.69 1.84Z" fill="#BB1F23"/></svg>