<svg width="224" height="224" viewBox="0 0 56 56" xmlns="http://www.w3.org/2000/svg"><rect fill="#F0F3FA" width="56" height="56" rx="28"/><path d="M38.69 21.5a1.07 1.07 0 0 0-.38-.26l-.35-1.34c-.02-.08-.04-.08-.07 0-.1.35-.24.7-.43 1.02-.13.25-.22.43-.25.53a.86.86 0 0 0-.24.4c-.1.03-.15.08-.17.15a8.3 8.3 0 0 1-2.54 2.15 8.03 8.03 0 0 1-2.48.94 8.74 8.74 0 0 1-4.9-.27.1.1 0 0 0-.05 0h-.04l-.02-.01a13.45 13.45 0 0 1-6.32-7.66c-.03-.19.04-.29.2-.3.16-.02.26.08.3.3.26 1.06.7 2.1 1.3 3.14a9.53 9.53 0 0 0 2.04 2.51 8.49 8.49 0 0 0 7.62 1.79 9.16 9.16 0 0 0 2.37-.99 7.77 7.77 0 0 0 2.38-2.21c.23-.36.43-.74.6-1.14.18-.4.3-.77.36-1.13a.34.34 0 0 0-.02-.19 11.4 11.4 0 0 0-3.24-4.4 10.24 10.24 0 0 0-5.85-2.34h-.18c-.03 0-.03 0 0 .03l.22.18.49.53c.06.06.08.14.06.22-.02.1-.08.14-.18.14l-.16.01-.4-.4a13.73 13.73 0 0 0-.82-.72h-.05l-.1.01a9.8 9.8 0 0 0-2.6.5.09.09 0 0 0-.05.07l-.2.91-.09.81c-.01.14-.09.22-.22.24h-.06c-.11-.04-.17-.1-.17-.18 0-.16 0-.33.02-.49l.17-1.1c0-.03-.01-.04-.03-.03l-.82.39c-.8.4-1.55.93-2.25 1.59-1.09 1-1.95 2.18-2.6 3.52a12.28 12.28 0 0 0-1.14 4.26h.05a1.2 1.2 0 0 1 1.23.32c.09.1.19.2.3.34.06.33.06.66.02.98-.18.27-.35.46-.52.56l-.98.58a.07.07 0 0 0-.04.07c.05.34.11.7.2 1.06.01.04.03.06.07.07.24.04.46.12.66.25h.04l.03-.01c.24-.26.52-.33.85-.2a.3.3 0 0 0 .1 0h.03l.02-.02c.2-.4.54-.68 1.02-.83.4-.13.75-.2 1.03-.2a2.4 2.4 0 0 1 1.04 0c.05 0 .09.02.13.05l.1.1c.07.14.13.26.17.4.03.09.04.2.04.32v.33c0 .05.03.08.08.1l1.35.6c.12.08.2.18.2.32.03.15.01.29-.03.42-.05.18-.14.35-.25.51a.07.07 0 0 0 0 .06c.14.52.01.93-.4 1.24a.15.15 0 0 0-.06.06l-.21.57c-.14.2-.27.33-.4.39-.35.15-.8.23-1.34.25a2 2 0 0 1-.95-.17c-.67-.29-1.3-.67-1.88-1.14-.09-.07-.1-.05-.04.04.73 1.21 1.64 2.24 2.7 3.08a9.86 9.86 0 0 0 5.97 2.18c.24-.01.41 0 .53.01h.2c.04 0 .1 0 .19-.02l.21-.03c.15 0 .3-.02.45-.04a10.16 10.16 0 0 0 4.98-2.18 12.09 12.09 0 0 0 3.3-4.33c0-.03 0-.06-.02-.08a23.88 23.88 0 0 0-.41-.36 1.25 1.25 0 0 1-.42-1.05 1.23 1.23 0 0 1 .34-.74c.34-.34.76-.44 1.24-.3l.04-.01.03-.04c.06-.33.11-.67.15-1 0-.07 0-.13-.02-.2l-.08-.2-.1-.24a2.47 2.47 0 0 1 .17-1.64c.1-.18.1-.39 0-.61.12-.1.22-.23.28-.4l.08.53.01.01h.02c.25-.2.53-.25.84-.17h.03l.02-.03c.24-.85.48-1.74.72-2.67a1 1 0 0 1 .15-.33.69.69 0 0 1 .41-.3c.15-.03.3-.01.44.06a.78.78 0 0 1 .46.75c-.05.57-.12 1.16-.22 1.79 0 .04 0 .05.04.03a.9.9 0 0 1 .56-.17c.18.01.34.1.48.28.07.09.12.19.17.3.07.16.08.28.05.35-.02.04 0 .06.04.04.15-.05.3-.06.43-.02.12.03.22.1.31.2s.15.22.18.35c.04.14.05.28.03.42l-.17 1.12c-.07.37-.2.7-.42.99a3.7 3.7 0 0 1-.76.73.1.1 0 0 0-.04.1c.02.26.02.48-.02.65a.88.88 0 0 1-.33.54.07.07 0 0 0-.02.07l.52 3a1.3 1.3 0 0 1-.21.96 1.2 1.2 0 0 1-.85.5c-.38.05-.74-.08-1.07-.39a364.78 364.78 0 0 0-2.83-2.62l-.01.01a11.44 11.44 0 0 1-6.54 6.15c-.17.02-.33.06-.48.13a.06.06 0 0 0-.04.05 41.43 41.43 0 0 0 .53 1c.1.19.11.4.02.64l-.72 1.91c0 .03 0 .04.02.05.35.1.45.33.28.67a.06.06 0 0 0 0 .06c.08.13.1.26.06.39-.02.03 0 .05.04.05h1.33c.33 0 .63.12.9.36.22.2.41.48.56.82 0 .03.03.04.05.04 1.85.2 3.6.32 5.4.9.31.1.55.21.73.34.17.1.27.24.31.38.06.17.01.32-.12.47-.14.14-.33.27-.58.38a14.8 14.8 0 0 1-2.24.59c-1.63.27-3.43.45-5.41.55-2.09.1-4.22.12-6.4.05a55.93 55.93 0 0 1-5.93-.47 17.23 17.23 0 0 1-2.76-.58c-.2-.06-.45-.18-.72-.33a.66.66 0 0 0-.19-.16c-.12-.14-.18-.26-.18-.38 0-.2.13-.37.36-.52.24-.15.53-.28.89-.4l.95-.24c.44-.09.88-.17 1.32-.23l.98-.14 1.6-.18c.02 0 .04-.01.05-.03.13-.35.32-.64.57-.85.28-.25.59-.37.94-.37h1.3c.03 0 .04-.01.03-.05a.44.44 0 0 1 .06-.39.07.07 0 0 0 0-.07.8.8 0 0 0-.03-.06.4.4 0 0 1-.05-.15c0-.13.03-.25.12-.33.09-.09.2-.13.34-.12.04 0 .05-.01.04-.05l-.72-2.19a.58.58 0 0 1-.02-.3.96.96 0 0 1 .11-.28 80.02 80.02 0 0 0 .46-.83A12 12 0 0 1 18.58 30a.48.48 0 0 0-.14-.16c-.27-.17-.47-.4-.6-.68a.05.05 0 0 0-.06-.03c-.2.01-.38 0-.56-.06l-4.32-1.19a1.2 1.2 0 0 1-.58-.36c-.17-.18-.26-.4-.3-.63a1.5 1.5 0 0 1 .1-.84c.1-.25.3-.45.57-.61l4.27-2.52a.1.1 0 0 0 .05-.08 12.28 12.28 0 0 1 3.16-7.46c.86-.95 1.86-1.72 2.98-2.32l1.18-.55c.1-.36.27-.68.5-.96.26-.31.58-.49.95-.53.35-.04.72.03 1.11.22a12.53 12.53 0 0 1 1.05.63c1.07 0 2.11.16 3.12.5a10.9 10.9 0 0 1 5.7 4.35c.45.67.83 1.39 1.15 2.15.03.08.07.15.12.21.03.04.05.1.06.19 0 .06.02.1.03.13.25.68.44 1.39.57 2.12Z"/><path d="m25.08 11.98.34-.36c.31-.2.67-.22 1.07-.06.2.07.4.17.59.29.04.02.04.04-.01.04a9.97 9.97 0 0 0-2.16.42v-.03l.17-.3Z" fill="#F0F3FA"/><path d="m25.41 11.62-.33.36a.58.58 0 0 1 .33-.36Z" fill="#A7B9A7"/><path d="M27.5 12.19v.04c0 .01 0 .02-.02.03l-.42.29c-.62.42-1.17.92-1.64 1.5-.79.94-1.45 1.98-1.98 3.12-.47 1-.87 2.04-1.2 3.12a12.02 12.02 0 0 1-1.3-3.15 14.4 14.4 0 0 1 2.83-2.94l.25-.15c-.02.16-.02.33-.02.5 0 .07.06.13.17.16h.06c.13-.01.2-.1.22-.23l.1-.8a14.24 14.24 0 0 1 2.85-1.49h.1Z" fill="#287A24"/><path d="m27.5 12.19.04-.01a13.73 13.73 0 0 1 .83.72c-.02.15 0 .3.03.45a2.2 2.2 0 0 0-.93-.11l.1-.57c.02-.08 0-.09-.05-.03-.12.16-.24.34-.35.55-.01.02 0 .04.01.06.02.02.07.03.13.03a3.3 3.3 0 0 1-.24.06c-.22.04-.45.15-.68.32-.2.15-.4.33-.57.54-.38.44-.66.98-.85 1.6a5.9 5.9 0 0 0-.27 1.8c0 .02-.01.04-.04.05-.16.1-.23.2-.21.32.04.29.1.57.18.85-.34 1.18-.56 2.4-.67 3.67a9.52 9.52 0 0 1-1.72-2.2 22.8 22.8 0 0 1 1.2-3.12c.53-1.14 1.19-2.18 1.98-3.13a7.87 7.87 0 0 1 2.06-1.78l.02-.03v-.04Z" fill="#113510"/><path d="M28.5 12.2c.02.03.05.05.1.07 1.07.43 2.09.97 3.05 1.62.24.16.48.34.7.55-.4.17-.75.43-1.03.76a12.6 12.6 0 0 0-1.19-1.5 17.3 17.3 0 0 0-.99-.9 3.27 3.27 0 0 0-.59-.4l-.23-.18c-.02-.02-.02-.03.01-.03h.18Z" fill="#287A24"/><path d="m27.4 12.2-.52.22c-.73.3-1.51.72-2.33 1.25l.19-.91c0-.04.02-.06.06-.07a9.8 9.8 0 0 1 2.6-.5ZM28.5 12.2a10.24 10.24 0 0 1 5.85 2.34 11.4 11.4 0 0 1 3.25 4.39c.02.06.03.13.02.2-.06.35-.18.72-.35 1.13-.18.4-.38.77-.6 1.13l-.06-.28a10.1 10.1 0 0 0-.7-2.14c.07-.72.01-1.44-.17-2.16a4.14 4.14 0 0 0-.65-1.39 2.76 2.76 0 0 0-1.15-.96 2.08 2.08 0 0 0-1.58-.02c-.23-.2-.47-.39-.71-.55a16.34 16.34 0 0 0-3.06-1.62.15.15 0 0 1-.08-.08Z" fill="#113510"/><path d="M28.55 12.4c.22.11.42.25.6.4.33.28.66.58.98.9.27.26.66.76 1.19 1.5-.3.33-.53.69-.7 1.08l-.14.3c-.02.03-.03.03-.03-.01-.04-.5-.17-1-.4-1.52a3.5 3.5 0 0 0-1.14-1.45.91.91 0 0 0-.15-.3l.16-.01c.1 0 .16-.04.18-.14a.23.23 0 0 0-.06-.22l-.49-.53Z" fill="#113510"/><path d="m27.47 13.24-.16.04c-.06 0-.1-.01-.13-.03-.02-.02-.02-.04-.01-.06.1-.21.23-.4.35-.55.05-.06.07-.05.06.03l-.11.57Z" fill="#287A24"/><path d="M24.02 14.05a9.7 9.7 0 0 0-.49.32 68.08 68.08 0 0 1-.91.82.42.42 0 0 1-.09.1 14.4 14.4 0 0 0-1.58 1.86c-.04-.22-.14-.32-.3-.3-.16.01-.23.11-.2.3l.16.54a11.77 11.77 0 0 0-1.68 5.65 4.86 4.86 0 0 0-.3-.34 1.2 1.2 0 0 0-1.23-.31l-.05-.01a12.28 12.28 0 0 1 1.14-4.26 11.6 11.6 0 0 1 2.6-3.52 9.91 9.91 0 0 1 3.1-1.96l-.17 1.11Z" fill="#113510"/><path d="m28.37 12.9.39.4c.07.1.12.2.15.3l-.5-.25c-.05-.15-.06-.3-.04-.45Z" fill="#287A24"/><path d="M36.74 15.43a4.58 4.58 0 0 0-.97-1.37 2.43 2.43 0 0 0-1.52-.68l-.34-.03a.1.1 0 0 1-.08-.03c-.07-.09-.1-.18-.06-.27.03-.07.08-.12.16-.14a.82.82 0 0 1 .23 0c1.31.07 2.32.86 3.02 2.37.02.04.02.09.01.13-.02.1-.07.15-.13.16-.15.05-.25 0-.32-.14ZM28.4 13.35l.5.25c.5.37.89.85 1.15 1.45.23.52.36 1.02.4 1.52 0 .04.01.04.03 0l.15-.3c.16-.38.39-.74.69-1.07.28-.33.63-.59 1.04-.76.54-.2 1.07-.2 1.58.02.43.18.82.5 1.15.96.3.41.51.88.65 1.4a6.15 6.15 0 0 1 .09 2.7.5.5 0 0 0 0 .13.4.4 0 0 1 0 .19c-.2.56-.43 1.04-.67 1.42-.3.47-.64.84-1.05 1.12a13.31 13.31 0 0 0-.49.25l-.3.12c-.24.07-.46.08-.69.03-.2-.05-.5-.19-.87-.42-.22-.13-.4-.3-.58-.5a6.31 6.31 0 0 1-1.17-2.14c0-.02-.02-.02-.03 0-.2.46-.48.86-.85 1.21l-.26.27-.15.08c-.27.15-.47.26-.61.32-.23.1-.43.14-.62.14-.09 0-.18-.01-.3-.04a4.36 4.36 0 0 1-.3-.1l-.06-.02a2.11 2.11 0 0 0-.24-.13 2.49 2.49 0 0 1-.98-.83 6.46 6.46 0 0 1-.98-1.8 6.45 6.45 0 0 1-.18-.85c-.02-.12.05-.23.21-.32a.06.06 0 0 0 .04-.06c0-.62.08-1.22.27-1.8.2-.61.47-1.15.85-1.6.17-.2.36-.38.57-.53.23-.17.46-.28.68-.32l.24-.06.16-.04c.3-.03.61 0 .93.1Z"/><path d="m26.81 17.97-1.74-.24c-.03 0-.04-.02-.04-.05a5.88 5.88 0 0 1 .44-2.27c.16-.38.36-.7.6-.98.26-.3.55-.54.88-.7.33-.16.7-.2 1.1-.14.02 0 .03.01.04.03v.05l-.97 2.5a.23.23 0 0 0-.01.15c.01.05.04.1.08.13l1.46 1.2v.03l-.01.01h-.03l-1.42-.55c-.13-.05-.23-.05-.3 0-.09.05-.12.15-.1.29a4.86 4.86 0 0 1 .02.54ZM33.54 14.72l-.99 2.51a.24.24 0 0 0 0 .16c0 .05.03.1.08.13l1.47 1.21c.02.02.02.03 0 .02l-.09-.01-1.48-.56a.22.22 0 0 0-.22.03.21.21 0 0 0-.1.2l.05.6v.01h-.03l-1.72-.23c-.03 0-.05-.02-.05-.04 0-.63.09-1.23.26-1.78.19-.6.47-1.12.85-1.54.27-.3.56-.52.87-.65.34-.15.7-.18 1.08-.11.03 0 .03.02.02.05Z" fill="#F0F3FA"/><path d="M20.61 17.7c.35 1.14.84 2.21 1.45 3.2l-.1.43-.27 1.35c-.08.5-.11.96-.1 1.37.01.52.06 1 .13 1.46 0 .02 0 .04-.02.06a.07.07 0 0 1-.06.02.23.23 0 0 0-.18.07c-.28 0-.62.06-1.03.2a1.62 1.62 0 0 0-1.04.84h-.03c-.2-.76-.35-1.55-.41-2.38.04-.32.04-.65-.02-.98.09-2.03.64-3.91 1.68-5.65Z" fill="#287A24"/><path d="M26.6 20.88a4.36 4.36 0 0 1-1.63-2.69H25l4.84.66c.02 0 .03.01.02.03a5.05 5.05 0 0 1-1.45 2c-.23.17-.46.3-.71.37a.86.86 0 0 1-.58-.06 2.36 2.36 0 0 1-.51-.3Z" fill="#BB6097"/><path d="M24.63 18.82a6.46 6.46 0 0 0 1.43 2.28c.16.14.34.25.53.35.1.04.18.09.24.13l-.05 2.71a8.49 8.49 0 0 1-2.82-1.8c.1-1.27.33-2.5.67-3.67ZM35.9 18.97a10.1 10.1 0 0 1 .76 2.42 7.77 7.77 0 0 1-2.38 2.21l-.18-1.22c.42-.28.77-.65 1.06-1.12.24-.38.46-.86.66-1.42a.4.4 0 0 0 .01-.19.5.5 0 0 1 0-.14l.08-.54Z" fill="#287A24"/><path d="M32.5 22.23c-.54-.28-1-.7-1.38-1.25a4.58 4.58 0 0 1-.72-1.74l4.86.67.02.02v.03c-.18.48-.44.93-.77 1.33a3.4 3.4 0 0 1-1.19.97.9.9 0 0 1-.82-.03Z" fill="#BB6097"/><path d="M40.95 19.57a.3.3 0 0 1 .15-.15.22.22 0 0 1 .17 0c.06.02.1.06.14.11.04.06.05.13.05.2-.08.9-.19 1.66-.33 2.29-.06.25-.16.5-.3.75-.01.02-.03.03-.05.01a1.91 1.91 0 0 0-.57-.34c-.03-.01-.04-.03-.03-.07a97.32 97.32 0 0 0 .77-2.8Z" fill="#F0F3FA"/><path d="m31.76 22.36.1.14.04.16c.04.63.04 1.28 0 1.93-.94.24-1.94.31-2.97.22l-.06-3.61.26-.27c.37-.35.65-.75.85-1.2.01-.03.02-.03.03 0 .26.79.65 1.5 1.17 2.13.17.2.36.37.58.5Z" fill="#287A24"/><path d="M38.31 21.24c-.4-.12-.77-.05-1.1.21.03-.1.12-.28.25-.53.19-.33.33-.67.43-1.02.03-.08.05-.08.07 0l.35 1.34ZM22.06 20.9a10.9 10.9 0 0 0 1.87 2.2c-.06 1.55.09 3.03.44 4.46l-1.35-.6a.11.11 0 0 1-.07-.11v-.33a1.28 1.28 0 0 0-.23-.72.36.36 0 0 0-.22-.16 2.4 2.4 0 0 0-1.04.02.23.23 0 0 1 .18-.07c.02 0 .04 0 .06-.02a.07.07 0 0 0 .02-.06c-.07-.46-.12-.94-.13-1.46-.01-.4.02-.86.1-1.37a24.23 24.23 0 0 1 .37-1.78Z" fill="#113510"/><path d="M38.31 21.24c.13.05.25.14.38.27.04.13.06.26.05.39a.89.89 0 0 1-.28.4c-.4.3-.81.32-1.22.1-.2-.11-.29-.3-.27-.55a.86.86 0 0 1 .24-.4c.33-.26.7-.33 1.1-.21Z" fill="#FF6AC4"/><path d="m28.87 21.2.06 3.6a8.7 8.7 0 0 1-2.15-.5l.05-2.72.07.02.3.1c.1.03.2.04.29.04.19 0 .4-.05.62-.14a6.7 6.7 0 0 0 .76-.4Z" fill="#113510"/><path d="M36.97 21.85c-.02.25.07.44.27.55.4.22.82.2 1.22-.1.1.22.1.43 0 .61-.24.48-.3 1.02-.17 1.64l.1.25.08.19c.02.07.03.13.02.2a12.1 12.1 0 0 1-.18 1.04.05.05 0 0 1-.04 0c-.48-.14-.9-.03-1.24.3a1.23 1.23 0 0 0-.3 1.16 1.25 1.25 0 0 0 .38.64 6.68 6.68 0 0 0 .4.36c.03.02.04.05.03.08a12.1 12.1 0 0 1-3.3 4.33 10.35 10.35 0 0 1-6.03 2.27c-.12-.02-.3-.02-.53-.01h-.46c-.69-.08-1.31-.2-1.87-.34a9.86 9.86 0 0 1-3.63-1.84A11.52 11.52 0 0 1 19 30.1c-.06-.1-.05-.1.04-.04.58.47 1.2.85 1.88 1.14a2 2 0 0 0 .95.17 17.48 17.48 0 0 0 1.43 1.43 17.25 17.25 0 0 0 3.02 2.02 10.69 10.69 0 0 0 1.15.46c.02-.02.03-.04.02-.08 0-.02-.04-.05-.1-.1a17.9 17.9 0 0 1-3.78-4.37l.21-.57a.15.15 0 0 1 .05-.06c.42-.3.55-.72.4-1.24l.01-.06c.11-.16.2-.33.25-.51.1.43.24.91.42 1.43.6 1.74 1.41 3.39 2.42 4.95.04.06.06.06.05-.02l-.06-.33-.05-.34a79.12 79.12 0 0 1-.54-9.16h.05a8.27 8.27 0 0 0 2.2.46c-.08 0-.12.05-.12.12a96.96 96.96 0 0 1-.6 9.42c0 .08.02.09.06.02.98-1.5 1.77-3.05 2.36-4.64a18.61 18.61 0 0 0 1.13-5.1h-.08a8.03 8.03 0 0 0 2.49-.94c-.04.94-.17 1.85-.4 2.72a14.77 14.77 0 0 1-2.98 5.73c-.76.95-1.62 1.82-2.59 2.6a.05.05 0 0 0-.02.06c.02.04.04.05.08.04a7 7 0 0 0 .94-.38l.5-.25c.17-.07.33-.16.5-.27l.7-.44a11.13 11.13 0 0 0 1.73-1.35h.03l.03-.01.6-.59c.36-.35.7-.74 1-1.17a16.17 16.17 0 0 0 1.22-1.9A11.54 11.54 0 0 0 36.8 22c.02-.07.08-.12.17-.15Z" fill="#113510"/><path d="M41.1 23.4c.11-.2.2-.4.27-.6.05-.15.13-.29.22-.42.17-.23.32-.38.44-.46.22-.13.38-.05.49.23.01.04 0 .07-.01.1l-.78 1.42c-.02.03-.05.04-.08.03l-.5-.19a.08.08 0 0 1-.05-.05v-.06Z" fill="#F0F3FA"/><path d="M36.8 22a11.54 11.54 0 0 1-2.4 8.85c-.31.43-.65.82-1 1.17a661.63 661.63 0 0 0-.64.6h-.03c-.54.5-1.11.96-1.74 1.35l-.7.44c-.16.1-.32.2-.48.27l-.5.25c-.32.15-.64.28-.95.38-.04.01-.06 0-.08-.04 0-.02 0-.04.02-.05a17.12 17.12 0 0 0 2.92-3.02 14.78 14.78 0 0 0 2.64-5.32c.24-.87.37-1.78.4-2.73A8.29 8.29 0 0 0 36.8 22Z" fill="#287A24"/><path d="M31.76 22.36c.37.23.66.37.87.42.23.05.45.04.68-.03l.31-.12a8.61 8.61 0 0 0 .48-.25l.18 1.22c-.73.44-1.53.77-2.37.99.03-.65.03-1.3-.01-1.93a.36.36 0 0 0-.05-.16 1.38 1.38 0 0 0-.09-.14Z" fill="#113510"/><path d="M41.1 26.32a.1.1 0 0 0 .06.01c.15 0 .23-.08.25-.23.05-.3.01-.58-.1-.84 0-.02 0-.04.03-.04l.22-.06.07.01c.35.26.72.34 1.08.23.11-.03.13 0 .04.07a9 9 0 0 1-1.25.93.23.23 0 0 0-.1.14c-.02.06-.01.12.02.18l.05.05c.1.07.2.07.3 0l.33-.22h.03l.01.02c.04.35-.11.56-.46.62-.37.07-.74.04-1.1-.08-.28-.1-.43-.27-.45-.54 0-.03.01-.04.04-.03l.46.09c.15.03.25-.02.32-.15a.12.12 0 0 0 .01-.08.27.27 0 0 0-.23-.22c-.27-.05-.49-.1-.64-.16a1.4 1.4 0 0 1-.54-.35 5.3 5.3 0 0 1-.42-.5 1.95 1.95 0 0 1-.37-1.75c.05-.22.15-.4.29-.54.16-.17.34-.22.55-.17.2.06.39.12.53.19.23.11.36.23.4.35.05.2.11.35.17.44.1.14.22.23.38.3l.36.12c.02.02.04.04.04.07.02.14 0 .26-.02.37-.05.14-.13.22-.26.23-.35 0-.73-.04-1.13-.16a.45.45 0 0 1-.27-.22 1.6 1.6 0 0 1-.12-.34 2.97 2.97 0 0 0-.04-.15.2.2 0 0 0-.11-.13.22.22 0 0 0-.16 0 .23.23 0 0 0-.13.1.27.27 0 0 0-.03.2c.1.46.27.76.52.9.02.01.02.02.02.04l-.01.04c-.08.05-.14.1-.2.17a.18.18 0 0 0-.04.17c.01.06.05.11.1.15.1.06.23.04.35-.07a.87.87 0 0 0 .24-.3c.01-.03.03-.04.06-.03l.48.07c.03 0 .05.02.07.04.14.24.2.5.15.78 0 .06 0 .11.03.17.03.05.07.09.13.11Z" fill="#F0F3FA"/><path d="M42.03 24.08a10.04 10.04 0 0 1 .51-.81c.24-.3.5-.46.76-.5.03 0 .06.01.08.03.1.1.16.22.15.36-.03.5-.14.96-.32 1.38a.63.63 0 0 1-.23.28 1.17 1.17 0 0 1-.74.15.9.9 0 0 1-.35-.17c-.02-.02-.03-.04-.02-.06.02-.06.05-.16.06-.28l.04-.2a.74.74 0 0 1 .06-.18Z" fill="#F0F3FA"/><path d="M23.93 23.1a8.91 8.91 0 0 0 2.85 1.7v.15a79.12 79.12 0 0 0 .65 9.7c0 .08 0 .08-.05.02a23.03 23.03 0 0 1-2.84-6.38.94.94 0 0 0 .04-.42.4.4 0 0 0-.21-.31 16.2 16.2 0 0 1-.44-4.45Z" fill="#287A24"/><path d="M18.95 24.32c.06.83.2 1.62.41 2.39h-.1c-.33-.14-.61-.07-.85.19a.06.06 0 0 1-.03.02l-.04-.01a1.8 1.8 0 0 0-.66-.25.08.08 0 0 1-.07-.07 9.76 9.76 0 0 1-.2-1.06c0-.03.01-.06.04-.07l.98-.58c.17-.1.34-.29.52-.56Z" fill="#113510"/><path d="M31.78 25.1h.08l.02.05a18.61 18.61 0 0 1-1.15 5.05 23.49 23.49 0 0 1-2.36 4.64c-.04.07-.06.06-.05-.02.35-3.1.54-6.25.59-9.42 0-.07.04-.11.12-.13.92.09 1.83.03 2.75-.18Z" fill="#287A24"/><path d="M38.81 25.52c.27.34.54.61.82.81.02.02.03.04.03.07 0 .25.05.49.17.7v.08l-.04.22c0 .01-.01.02-.03.02h-.03l-1.08-1.01a.06.06 0 0 1-.02-.06l.14-.82c0-.03.02-.04.04 0ZM17.21 26.52l-1-.26c-.02 0-.02-.01-.02-.02v-.03l.9-.53h.02l.01.01.12.8v.02l-.03.01Z" fill="#F0F3FA"/><path d="M22.12 26.06c-.3.06-.59.08-.89.07.3-.06.59-.09.89-.07Z" fill="#A7B9A7"/><path d="M22.12 26.06h.19c.03 0 .05.02.07.04.11.15.15.33.12.53 0 .03-.02.04-.04.05a7.62 7.62 0 0 1-.4.1c-.13.03-.24.03-.34.02-.26-.04-.55 0-.86.09a.18.18 0 0 0-.11.09c-.05.09-.06.16-.03.22.07.1.16.15.29.12.32-.08.59-.09.81-.04.26.06.48.2.66.42l.18.21c.08.1.17.12.28.06a.18.18 0 0 0 .07-.05c.07-.1.07-.2 0-.3l-.16-.2c-.02-.03-.02-.04.02-.02l.96.4.19.1c.05.02.07.05.08.07a.3.3 0 0 1 0 .12c-.06.3-.19.48-.38.57a7.04 7.04 0 0 1-.9.33c-.11.04-.17.12-.16.24l.03.09c.1.1.2.14.33.1l.71-.2c.15-.05.2 0 .14.14l-.07.15a.38.38 0 0 1-.3.25c-.39.06-.74.13-1.08.2-.08 0-.12.08-.13.2v.03c0 .07.04.13.1.17.05.05.1.07.18.07.22 0 .44-.03.65-.1.07-.03.08-.01.05.06-.03.07-.08.13-.13.2a.49.49 0 0 1-.25.16c-.72.2-1.27.22-1.64.08a7.54 7.54 0 0 1-2.18-1.35.06.06 0 0 1-.03-.06l.06-.86c.01-.1-.03-.12-.12-.09l-.05.03a.2.2 0 0 0-.1.08.2.2 0 0 0-.02.13l.06.76c0 .02 0 .03-.02.03h-.03c-.3-.13-.5-.35-.6-.66-.04-.1-.02-.25.04-.44.04-.11.1-.27.2-.47l.05-.1.1-.27.12-.31c.06-.11.15-.16.27-.14h.02c.11.02.14.07.1.18-.08.15-.13.31-.18.48-.04.14.01.23.15.29h.16c.06-.02.1-.06.11-.12.13-.38.25-.69.37-.9.18-.34.38-.56.6-.67.08.03.13.01.17-.06l.24-.07c.14 0 .27-.03.4-.08l.1-.03c.29.01.59-.01.88-.07Z" fill="#F0F3FA"/><path d="M21.14 26.16a1 1 0 0 1-.4.08c.12-.05.25-.08.4-.08Z" fill="#A7B9A7"/><path d="M21.46 28.14a2.63 2.63 0 0 1-1.71.17c-.11-.04-.16-.11-.15-.22v-.03a.2.2 0 0 1 .09-.15.2.2 0 0 1 .17-.04c.5.1.97.05 1.43-.15.05-.03.1-.03.14-.01.08.03.13.07.15.14.05.13 0 .23-.12.29ZM19.74 28.85c-.1-.05-.15-.13-.14-.25a.19.19 0 0 1 .13-.17.28.28 0 0 1 .21.01c.46.19.91.26 1.37.2.15-.02.24.04.29.19.01.05 0 .11-.06.18a.19.19 0 0 1-.13.08c-.6.08-1.16 0-1.67-.24ZM19.86 28.97a1.43 1.43 0 0 0 1.07.69c.17.02.25.11.23.28 0 .07-.08.13-.22.17a.2.2 0 0 1-.1 0c-.6-.1-1.05-.38-1.35-.86-.08-.13-.06-.24.05-.33.05-.05.12-.06.2-.03.05 0 .1.04.12.08Z"/><path d="M35.02 31.6a6.9 6.9 0 0 1-2.19 1.9c-.15.09-.31.16-.5.21-.2.06-.38.08-.54.06-.05 0-.05-.02 0-.04a3.9 3.9 0 0 0 1.05-.62c.39-.32.71-.6.97-.83v-.04l.02-.02.01-.01.34-.34.47-.5c.34-.38.63-.72.86-1.02.12-.15.23-.31.32-.48.07-.14.1-.13.06.03-.05.2-.13.41-.22.6l-.25.5a62.5 62.5 0 0 0-.4.6Z" fill="#A7B9A7"/><path d="M23.62 30.73a17.9 17.9 0 0 0 3.88 4.47c0 .04 0 .06-.02.08a10.7 10.7 0 0 1-1.14-.46 17.25 17.25 0 0 1-3.3-2.23c-.5-.48-.88-.89-1.16-1.22.55-.02 1-.1 1.33-.25.14-.06.27-.2.4-.4Z" fill="#287A24"/><path d="M28.95 35.63c-.22.05-.38.08-.48.08-.23.02-.58.02-1.03.01-.17 0-.39-.04-.66-.1.72.04 1.45.05 2.17.01Z" fill="#A7B9A7"/><path d="m28.95 35.63.54 1.01c.02.04.02.08 0 .13l-.78 2.09a.07.07 0 0 1-.06.05l-.14.02a.23.23 0 0 0-.09.02c-.24.14-.3.35-.15.63v.06a.45.45 0 0 0-.05.41v.04c0 .01-.01.02-.03.02-.15.06-.25.18-.3.37-.03.1-.04.28-.04.5v.07c0 .02-.01.03-.03.03h-.03c-.03 0-.04-.01-.04-.04v-.12c0-.22-.02-.37-.05-.47a.47.47 0 0 0-.29-.33.06.06 0 0 1-.03-.03v-.04a.43.43 0 0 0-.05-.41.06.06 0 0 1 0-.07c.13-.24.1-.43-.09-.58a.4.4 0 0 0-.13-.06.61.61 0 0 1-.08-.03.06.06 0 0 1-.04-.04l-.73-2.22a.14.14 0 0 1 0-.12l.52-.9c.27.06.5.1.66.1h1.03l.48-.09Z" fill="#F0F3FA"/><path d="M27 39.16h-1.93a.15.15 0 0 0-.15.15v.01c0 .09.07.16.15.16h1.94c.08 0 .15-.07.15-.16a.16.16 0 0 0-.15-.16ZM30.53 39.16h-1.94a.15.15 0 0 0-.15.15v.01c0 .09.07.16.15.16h1.94c.08 0 .15-.07.15-.16a.15.15 0 0 0-.15-.16ZM27 39.73h-1.93a.16.16 0 0 0-.15.15v.01c0 .09.07.15.15.15h1.94c.08 0 .15-.06.15-.15v-.01a.16.16 0 0 0-.15-.15ZM30.53 39.73h-1.94a.16.16 0 0 0-.15.15c0 .1.07.16.15.16h1.94c.08 0 .15-.07.15-.15a.16.16 0 0 0-.15-.16ZM22 41.88c0-.14.01-.28.06-.43a1.82 1.82 0 0 1 .84-1.03c.13-.07.3-.1.5-.1h3.77c.13 0 .21.04.26.12.03.05.05.15.06.28v1.07a.9.9 0 0 1-.07.32.1.1 0 0 1-.05.05.45.45 0 0 1-.19.04h-4.96c-.08 0-.13-.04-.17-.11a.45.45 0 0 1-.06-.21ZM32.69 40.41c.13.06.25.15.38.27a1.82 1.82 0 0 1 .49.86c.04.16.05.31.02.45-.01.1-.05.16-.12.19a.7.7 0 0 1-.23.02H28.45c-.14 0-.24-.04-.28-.13a.76.76 0 0 1-.06-.32v-.9c0-.15 0-.26.03-.33.04-.13.12-.2.24-.2h3.8c.2 0 .37.03.5.1Z" fill="#F0F3FA"/></svg>