<svg width="224" height="224" viewBox="0 0 56 56" xmlns="http://www.w3.org/2000/svg"><path d="M23.7 11.23c-.18.1-.43.15-.73.12a.11.11 0 0 0-.12.1l-.01.1a.11.11 0 0 0 .03.1.12.12 0 0 0 .1.03c.37-.02.69.16.94.55l.17.25.73 1.25c-.07.18-.23.36-.47.54-.2.15-.38.2-.51.14-.17-.05-.18-.15-.03-.3a.13.13 0 0 0 .02-.16l-.11-.17a.1.1 0 0 1 0-.08c.02-.06.07-.1.15-.12a.1.1 0 0 0 .06-.05.1.1 0 0 0 0-.07.44.44 0 0 0-.21-.26.05.05 0 0 1-.03-.04.05.05 0 0 1 .02-.04c.1-.08.16-.15.17-.21l-.15-.24c-.1-.16-.23-.33-.38-.5a.17.17 0 0 0-.17-.04.16.16 0 0 0-.08.04 5.42 5.42 0 0 0 .12 2.8l-.03.24c0 .04-.02.07-.05.1a.17.17 0 0 1-.27-.08 11.41 11.41 0 0 1-.26-4.12c.37-.17.73-.13 1.1.12Z" fill="#DCB36D"/><path d="m35.03 20.1-.57 1.23c-.06.13-.28.19-.64.18l.7-1.54c.13-.98-.06-1.7-.56-2.16-.61-.58-1.53-.35-2.73.68l-.14.12c-.3.26-.58.35-.83.26a1.81 1.81 0 0 1-.6-.49l-.23-.23c-.05-.05-.1-.06-.15-.02-.03.02-.04.06-.04.11-.07.17-.16.21-.29.12-.63-.5-1.29-.58-1.96-.27-.24.05-.39.13-.44.24-.31.64-.77.75-1.37.3l-.42-.32a4.15 4.15 0 0 0-1.51-.85l.36-1.7v-.01a.05.05 0 0 0-.02-.04h-.03c-.58-.01-.98.2-1.2.66-.09.2-.13.24-.12.13.11-.47.13-.98.05-1.51-.1-.72-.16-1.15-.16-1.27 0-.9.16-1.77.47-2.61l-.09 1.08c-.05.76.07 1.77.35 3.04 0 .03.03.07.06.09a.17.17 0 0 0 .2-.01.16.16 0 0 0 .06-.1l.03-.24c.39.05.6-.14.62-.56.13.06.3.01.51-.14.24-.18.4-.36.47-.54.16.08.28.08.37 0l1.05-.5.01-.03c.06.13.17.2.33.22 1.26.17 2.5.2 3.76.07a.64.64 0 0 0 .47-.29 5.59 5.59 0 0 1 2.37-2.07.1.1 0 0 0-.01-.13h-.09c.3-.03.5.1.61.38.13.34.2.54.21.62.18 1.37.15 2.66-.09 3.87-.01.08 0 .15.02.22.12.27.26.53.44.8l.08.13c.16.43.36.85.57 1.25.4.75.45 1.36.12 1.84Z" fill="#D29B50"/><path d="M33.07 11h.09a.1.1 0 0 1 .03.09.1.1 0 0 1-.02.04 5.6 5.6 0 0 0-2.37 2.07.63.63 0 0 1-.47.29c-1.25.12-2.5.1-3.76-.07-.17-.02-.28-.1-.33-.22.91 0 1.82 0 2.7-.03a7.99 7.99 0 0 1 1.32.09c.05 0 .1 0 .16-.03a.3.3 0 0 0 .12-.1c.93-1.26 1.78-1.97 2.53-2.12Z" fill="#D5C0A5"/><path d="m26.23 13.24-1.04.49-.09-.17a4.4 4.4 0 0 0-.86-1.26.13.13 0 0 0-.1.01.12.12 0 0 0-.04.04c-.02.02-.02.06-.02.13l-.17-.25c-.25-.39-.57-.57-.94-.55a.12.12 0 0 1-.1-.03.12.12 0 0 1-.03-.1v-.1a.1.1 0 0 1 .05-.07.11.11 0 0 1 .08-.03c.3.03.55-.01.74-.12.75.54 1.43 1.17 2.04 1.9.03.04.07.07.12.09.1.04.23.04.36.02Z" fill="#CD9148"/><path d="M33.24 12.43v-.17c0-.05-.03-.1-.06-.13a.25.25 0 0 0-.28-.07.24.24 0 0 0-.11.1l-.47.69a.1.1 0 0 0 0 .12l.03.03c.1.05.15.1.14.13 0 .05-.04.1-.1.16a7.83 7.83 0 0 0-.17.19v.03a.08.08 0 0 0 .06.05c.13.04.18.11.16.23l-.05.08-.09.08a.13.13 0 0 0-.04.08c0 .03 0 .06.03.08.02.04.05.06.09.08.04.01.05.04.06.09 0 .05-.02.1-.06.12a1.59 1.59 0 0 1-.63-.28.16.16 0 0 1-.06-.14l.06-.93.4-.58c.21-.34.47-.62.77-.82a.2.2 0 0 1 .26.03c.52.61.58 1.79.19 3.52-.01.03-.03.06-.06.08a.14.14 0 0 1-.1.02h-.02a.14.14 0 0 1-.08-.06.13.13 0 0 1-.03-.1l.05-.3c.18-1.08.21-1.88.11-2.41Z" fill="#DCB36D"/><path d="M33.24 12.43c0 .83-.11 1.66-.3 2.48 0 .04-.03.07-.06.08a.14.14 0 0 1-.1.02.55.55 0 0 1-.26-.13.9.9 0 0 1-.2-.21c-.02-.06 0-.15.06-.27a.14.14 0 0 0 .05-.12c0-.05-.02-.08-.05-.1a.21.21 0 0 1-.1-.07.12.12 0 0 1-.02-.08c0-.03.02-.06.04-.08l.09-.08a.16.16 0 0 0 .04-.08c.03-.12-.02-.2-.15-.23-.02 0-.03 0-.04-.02a.08.08 0 0 1-.03-.06l.01-.03.17-.16c.06-.06.1-.11.1-.16 0-.03-.04-.08-.14-.13a.1.1 0 0 1-.04-.15l.48-.7a.25.25 0 0 1 .4-.03l.05.14v.17ZM23.83 14.41c-.03.42-.23.6-.62.56a5.42 5.42 0 0 1-.12-2.8.17.17 0 0 1 .24 0 3.84 3.84 0 0 1 .54.74c0 .06-.06.13-.17.21a.05.05 0 0 0-.02.04l.01.02.02.02c.12.07.2.16.22.26l-.01.07a.1.1 0 0 1-.06.05c-.08.02-.13.06-.16.12a.09.09 0 0 0 .01.07l.1.18c.02.03.03.05.02.08 0 .03-.01.06-.03.08-.15.15-.14.25.03.3Z" fill="#934C25"/><path d="m32.15 12.47-.4.58-.35.72a.14.14 0 0 1-.14.08h-.1a.16.16 0 0 1-.07-.03.15.15 0 0 1-.05-.06.14.14 0 0 1 0-.14l.96-1.43.03-.02h.04c.1.01.13.11.08.3ZM25.18 13.73c-.09.08-.21.08-.38 0l-.72-1.25c0-.07 0-.11.02-.13a.12.12 0 0 1 .13-.05l.05.02a4.4 4.4 0 0 1 .9 1.4ZM28 16a.14.14 0 0 1-.2.01 7.25 7.25 0 0 1-.23-2.08.15.15 0 0 1 .11-.07h.07l.5.19c.06.02.1.05.13.1.03.04.04.09.03.14a7 7 0 0 0 0 .19c-.06.73-.19 1.23-.4 1.51Z" fill="#C38341"/><path d="M26.65 15.63c-.36-.26-.8-.29-.97-.06-.17.23 0 .62.36.88.36.25.8.28.96.05.17-.22.02-.62-.35-.87ZM29.21 15.78c.02-.04.17-.12.45-.25.42-.21.75-.12.96.28a.14.14 0 0 1-.01.15c-.19.25-.42.45-.68.6-.35.18-.62.15-.79-.11-.12-.18-.1-.4.07-.67Z" fill="#EEE3CE"/><path d="m23.25 17.46-.56.06c.08-.49-.03-.87-.32-1.15.2-.45.6-.67 1.2-.66h.02a.05.05 0 0 1 .02.04v.02l-.36 1.7Z" fill="#F3CB69"/><path d="M22.69 17.52c-.87.44-1.19 1.23-.95 2.38a1.44 1.44 0 0 0-.4-.07.33.33 0 0 1-.27-.12.3.3 0 0 1-.05-.3c.05-.13.07-.26.06-.4 0-.15.03-.27.13-.35a10.01 10.01 0 0 1 1.03-2.16c-.01.1.03.06.13-.13.29.28.4.66.32 1.15Z" fill="#FCE782"/><path d="M26.63 17.57c0 .04 0 .08.03.11a.13.13 0 0 1-.04.17.14.14 0 0 1-.06.02c-.97.23-1.59-.06-1.85-.85a.12.12 0 0 1 .03-.14c.63-.54 1.18-.5 1.64.15.18.24.26.43.25.54ZM29.57 17.57c0-.12.08-.3.26-.55.47-.65 1.02-.7 1.66-.15a.13.13 0 0 1 .04.14c-.27.8-.9 1.1-1.88.86a.14.14 0 0 1-.1-.07.13.13 0 0 1 0-.12.2.2 0 0 0 .02-.11Z" fill="#331709"/><path d="M25.7 16.85c-.13-.02-.25.03-.26.11-.01.08.09.16.22.18.13.02.24-.03.26-.1.01-.09-.09-.17-.22-.19Z" fill="#D5C0A5"/><path d="M30.67 16.94c.04.1 0 .17-.1.21a.31.31 0 0 1-.14.02.27.27 0 0 1-.12-.04.13.13 0 0 1-.06-.08c0-.03 0-.07.02-.1.07-.08.18-.1.32-.08a.12.12 0 0 1 .08.07ZM34.51 19.97a6.93 6.93 0 0 1-4.38 2.76 1.8 1.8 0 0 1-.93.01.06.06 0 0 1-.02-.05v-.02l.53-.78.01-.03a.05.05 0 0 0-.02-.04l-.03-.01a.6.6 0 0 0-.42.12c-.72.2-1.43.23-2.12.12l-.4-.15a.05.05 0 0 0-.06.02l-.01.02v.03l.38.64.01.03a.07.07 0 0 1-.02.05l-.02.02a1.16 1.16 0 0 1-.8.02c-1.46-.43-2.5-.82-3.12-1.2-.3-.19-.6-.38-.9-.59a.6.6 0 0 1-.22-.3l-.1-.34c-.07-.13-.1-.26-.14-.4-.23-1.15.09-1.94.96-2.38l.56-.06c.43.1.93.39 1.5.85l.43.32c.6.44 1.06.34 1.37-.3.05-.1.2-.19.44-.25.02.08.02.19-.03.32a.2.2 0 0 0 .01.15l.2.41a.47.47 0 0 1-.11.1c-.06-.02-.12 0-.16.05-.15.19-.06.43.26.72.08.08.13.18.14.29.01.1-.02.2-.1.29-.13.16-.24.34-.32.54a.94.94 0 0 1-.84-.5.24.24 0 0 0-.19-.11h-.12a.07.07 0 0 0-.03.07l.01.03c.38.5.87.73 1.46.69.15-.01.4 0 .75.05.2.03.46.01.8-.05a.66.66 0 0 1 .19 0 1.57 1.57 0 0 0 1.6-.7v-.03a.06.06 0 0 0-.06-.03h-.18a.17.17 0 0 0-.07.06c-.12.18-.28.33-.48.47-.27-.13-.49-.29-.63-.49-.2-.25-.19-.48.02-.68.23-.24.26-.48.1-.75a.2.2 0 0 1-.03-.15 2 2 0 0 1 .11-.37c.04-.09.02-.16-.05-.22 0-.05.01-.09.04-.1.04-.05.1-.04.15 0l.22.24c.26.28.46.44.61.5.24.07.52-.01.83-.27l.14-.12c1.2-1.03 2.12-1.26 2.73-.68.5.46.69 1.18.55 2.16Z" fill="#EEE3CE"/><path d="M29.24 18.24c.07.06.09.13.05.22a2 2 0 0 0-.11.37.2.2 0 0 0 .03.15c.16.26.12.51-.1.75-.05 0-.1 0-.14.03.11-.15.2-.32.24-.5a.17.17 0 0 0-.03-.15 1.27 1.27 0 0 0-.98-.43c-.4-.02-.74.08-1.04.28l-.19-.4a.2.2 0 0 1 0-.16c.04-.13.04-.24.02-.32.67-.3 1.33-.21 1.96.28.13.1.22.05.3-.12Z" fill="#DCB36D"/><path d="m28.97 19.76-.63.48a.27.27 0 0 0-.1.21.26.26 0 0 0 .1.21c.4.29.86.37 1.38.24.2-.14.36-.3.48-.47a.17.17 0 0 1 .07-.05.18.18 0 0 1 .09-.02h.09a.06.06 0 0 1 .05.04v.06c-.42.55-.95.77-1.6.67h-.19c-.33.06-.6.08-.8.05-.34-.04-.6-.06-.75-.05a1.6 1.6 0 0 1-1.45-.69.06.06 0 0 1 0-.07c0-.01 0-.02.02-.03h.13a.24.24 0 0 1 .18.11c.2.33.48.5.84.5.37-.01.69-.1.96-.27a.26.26 0 0 0 .02-.44l-.1-.08c-.46-.33-.71-.65-.76-.97-.01-.04.01-.08.06-.12a.47.47 0 0 0 .1-.1c.3-.21.64-.3 1.04-.3.42.02.75.17.98.44.01.02.03.04.03.07v.08c-.04.18-.13.35-.24.5Z" fill="#331709"/><path d="M27.71 19.09c.2-.03.35-.1.34-.16 0-.06-.17-.09-.37-.06-.2.02-.35.09-.34.15.01.06.18.09.37.07Z" fill="#D5C0A5"/><path d="M21.08 19.02c0 .13-.01.26-.06.4a.3.3 0 0 0 .05.28.32.32 0 0 0 .27.13c.08 0 .21.02.4.07.02.14.07.27.12.4.02.03.05.14.11.35.04.11.1.21.21.3l.4.81c-.41.08-.68-.04-.79-.34-.11-.3-.23-.51-.35-.64-.14-.39-.31-.77-.5-1.16-.08-.15-.03-.35.14-.6Z" fill="#DCB36D"/><path d="M27.06 19.07c-.05.04-.07.08-.06.12.05.32.3.64.76.97l.1.08a.27.27 0 0 1 .12.22.26.26 0 0 1-.13.22c-.28.16-.6.26-.96.27.07-.2.18-.38.32-.54.07-.08.1-.19.1-.3-.02-.1-.07-.2-.15-.28-.32-.3-.41-.53-.26-.72.05-.06.1-.07.16-.04ZM29.11 19.73c-.2.2-.22.43-.02.68.14.2.35.36.63.5a1.6 1.6 0 0 1-1.38-.25.27.27 0 0 1-.1-.2.26.26 0 0 1 .1-.22l.63-.48c.04-.02.1-.03.14-.03Z" fill="#D5C0A5"/><path d="m34.51 19.97-.69 1.54a.83.83 0 0 0-.39.4c-.16.12-.3.27-.39.44a.29.29 0 0 1-.12.11c-1.26.6-2.66 1.03-4.18 1.26-.64.1-1.13.1-1.47.02a1115.97 1115.97 0 0 1-3.24-.8.12.12 0 0 0-.05.02.11.11 0 0 0-.04.1c.06.37.41.68 1.06.94 2.1.83 3.65 1.06 4.65.7l.7-.28c.77-.3 1.28-.43 1.51-.39.17.03.25.16.24.37-.82.39-1.7.68-2.63.88-.96.2-1.9.16-2.81-.15-.73-.25-1.51-.46-2.36-.65a.2.2 0 0 0-.19.07.18.18 0 0 0-.02.2l.1.17c-.12.02-.2-.04-.2-.16a7.93 7.93 0 0 1-.14-1.2l-.2-.54a7.83 7.83 0 0 0-1.07-1.26l-.4-.82.91.6a14.03 14.03 0 0 0 3.13 1.19c.3.08.55.07.79-.02a.07.07 0 0 0 .04-.05v-.05l-.39-.64a.04.04 0 0 1 0-.05l.03-.02h.03l.41.15c.7.64 1.41.6 2.12-.12a.6.6 0 0 1 .42-.12.05.05 0 0 1 .04.03.05.05 0 0 1 0 .05l-.52.78-.01.02a.06.06 0 0 0 .02.05l.02.02c.23.07.53.06.91-.03l.13-.03a6.93 6.93 0 0 0 4.25-2.73Z" fill="#D5C0A5"/><path d="m35.04 20.1-.37 1.12a.51.51 0 0 1-.07.13c-.28.39-.43.82-.45 1.3v.15c.02.04.07.06.15.09-.06.13.01.26.2.38-.08.08-.13.1-.16.1-.05-.06-.14-.08-.26-.07-.42 0-.82.08-1.2.26a.11.11 0 0 1-.1-.01.1.1 0 0 1-.04-.1.65.65 0 0 0-.03-.45l.73-1.08c.05-.16.18-.3.38-.41.36 0 .58-.05.64-.18l.58-1.22Z" fill="#934C25"/><path d="M22.58 21.76c.4.39.76.8 1.07 1.26a4.66 4.66 0 0 1 .23.73c0 .19.03.52.1 1 .02.13.09.19.2.17l.15.14c-.09.15-.1.25-.04.29a.56.56 0 0 0-.23-.02c-.05-.3-.23-.52-.54-.7a1.89 1.89 0 0 1-.34-.22c-.27-.23-.6-.56-.98-.99-.05-.05-.12-.05-.22-.02a.32.32 0 0 0-.22-.1c.13-.2.18-.33.13-.4l.15-.05c.03-.01.05-.02.07-.05a.12.12 0 0 0 .02-.07c0-.35-.05-.63-.17-.85-.28-.54-.46-.9-.53-1.1.13.13.25.34.36.64.1.3.37.42.8.34Z" fill="#C38341"/><path d="M29.25 21.93c-.7.72-1.4.76-2.12.12.7.11 1.4.07 2.12-.12Z" fill="#C5A98A"/><path d="M33.44 21.92 32.7 23c-.25.44-.37.93-.37 1.45-.05.09-.09.24-.1.47.06-.24 0-.41-.14-.52.01-.21-.06-.34-.23-.37-.24-.04-.75.09-1.52.4l-.7.26c-1 .37-2.55.14-4.65-.7-.64-.25-1-.56-1.06-.93a.11.11 0 0 1 .04-.1.12.12 0 0 1 .1-.02l3.2.8c.34.08.83.08 1.46-.02 1.53-.23 2.92-.65 4.18-1.26.05-.02.1-.06.13-.11.1-.17.22-.32.39-.43Z" fill="#C5A98A"/><path d="M21.9 22.9c.04.07 0 .2-.14.4-.13.05-.18.14-.14.27.04.18.14.28.3.31a.18.18 0 0 0 .15-.03.17.17 0 0 0 .06-.13.5.5 0 0 0-.14-.32c.1-.03.16-.03.2.02.4.43.72.76.99 1 .07.06.19.13.34.22.3.17.49.4.54.69-.18.05-.23.17-.13.35a.26.26 0 0 0 .18.13.27.27 0 0 0 .22-.06c.14-.11.13-.25-.04-.4-.06-.04-.04-.14.04-.3.07.06.13.14.18.25.02.05.06.1.11.12a35.06 35.06 0 0 0 1.5.57c.27.06.45.15.55.26a.23.23 0 0 0-.1.1.1.1 0 0 1-.12.05l-1.27-.44a1.8 1.8 0 0 0-.7-.09c-.12.02-.18.05-.19.1 0 .02 0 .04-.03.07a.17.17 0 0 1-.06.05.24.24 0 0 1-.1.01c-.03 0-.07 0-.1-.02a55.43 55.43 0 0 1-.74-.6.06.06 0 0 1 .01-.06l.03-.02.21-.09a.2.2 0 0 0 .1-.07.2.2 0 0 0-.01-.24.21.21 0 0 0-.1-.07.88.88 0 0 0-.39-.06.12.12 0 0 0-.07.06.1.1 0 0 0-.01.08c.02.08 0 .14-.1.18a.14.14 0 0 1-.11 0 2.2 2.2 0 0 1-.6-.42.08.08 0 0 1 0-.09.07.07 0 0 1 .07-.03c.1.01.21.06.36.14a.23.23 0 0 0 .25-.02.2.2 0 0 0 .06-.24.77.77 0 0 0-.66-.49c-.05 0-.1 0-.14.04l-.01.02v.02a.04.04 0 0 0 .03.03c.02 0 .03.02.05.04.02.03.01.06-.02.1-.08.06-.22.1-.42.09-.31-.3-.5-.6-.54-.87-.06-.34.15-.55.64-.62ZM34.43 24.4c-.2.12-.36.08-.45-.1-.03-.04.04-.1.19-.2l.02-.02v-.03a.05.05 0 0 0-.02-.03h-.03c-.37.04-.64.19-.81.44a.19.19 0 0 0-.03.13c0 .05.03.09.07.12a.3.3 0 0 0 .14.07h.16l.25-.15a.1.1 0 0 1 .13 0 .1.1 0 0 1 .01.13c-.15.22-.38.37-.67.44a.1.1 0 0 1-.09-.02.09.09 0 0 1-.02-.09l.04-.1a.1.1 0 0 0-.04-.11.1.1 0 0 0-.04-.01c-.26-.03-.47.02-.62.14a4.07 4.07 0 0 1-.82.5l-.04.02a.06.06 0 0 0-.03.02.06.06 0 0 0 0 .07l.02.02.12.05c.01 0 .03.01.03.03a.07.07 0 0 1-.01.09.08.08 0 0 1-.05.02c-.49 0-.82.15-1.01.44a.1.1 0 0 1-.1.05.1.1 0 0 1-.05-.02c-.2-.14-.47-.06-.8.24a.27.27 0 0 1-.16.06c-.16.02-.34.08-.55.18a.66.66 0 0 1-.32.06h-.14a.13.13 0 0 0-.08.05.12.12 0 0 0-.03.08V27c0 .03-.01.07-.03.1a.16.16 0 0 1-.08.05c-.2.05-.4.08-.63.07-.03 0-.06-.01-.08-.03a.17.17 0 0 1-.06-.05l-.07-.11a.19.19 0 0 0-.1-.08l-.6-.22a.1.1 0 0 1-.07-.08.1.1 0 0 1 .03-.09l.13-.1c.78.35 1.51.35 2.2 0a13.12 13.12 0 0 1 1.6-.7l1.4-.83c.02-.23.05-.38.1-.47.04.43.28.42.72-.03a7.35 7.35 0 0 1 .75-.67.29.29 0 0 0 .09-.14.68.68 0 0 1 .18-.3c.12-.02.2 0 .27.06l-.19.22a.18.18 0 0 0 .02.2c.02.04.05.06.1.07a.2.2 0 0 0 .1 0 .4.4 0 0 0 .28-.26c.04-.14-.01-.25-.16-.33-.19-.12-.25-.25-.2-.38.6.02.84.3.71.85-.04.18-.23.4-.58.67Z" fill="#F3CB69"/><path d="M32.71 23c.06.14.07.29.03.44a.1.1 0 0 0 .03.1.11.11 0 0 0 .12.02 2.7 2.7 0 0 1 1.2-.26c-.1.1-.16.2-.2.31a.29.29 0 0 1-.08.14l-.22.2c-.22.17-.4.33-.53.47-.44.45-.68.46-.72.03 0-.52.12-1 .37-1.45Z" fill="#C38341"/><path d="M34.5 23.27c.15.08.2.2.15.33a.4.4 0 0 1-.27.25.2.2 0 0 1-.2-.05.18.18 0 0 1-.02-.21l.18-.22c.03 0 .08-.02.16-.1Z" fill="#331709"/><path d="m34.43 24.4.19 1.8-.24-.41a.31.31 0 0 0-.18-.15.33.33 0 0 0-.24.02l-1.44.7a.06.06 0 0 1-.06-.01c-.08-.06-.12-.16-.12-.3.23-.11.36-.26.4-.43v-.08a.13.13 0 0 0-.05-.06.14.14 0 0 0-.16 0l-.34.29-.4-.25.11-.06c.34-.17.57-.32.72-.45.15-.12.35-.17.61-.14a.1.1 0 0 1 .1.08.1.1 0 0 1-.01.05l-.04.09a.08.08 0 0 0 .02.09.1.1 0 0 0 .1.02c.28-.07.5-.22.66-.44a.1.1 0 0 0-.01-.12.1.1 0 0 0-.13-.01c-.14.09-.22.13-.25.14a.33.33 0 0 1-.17.01.3.3 0 0 1-.14-.07.21.21 0 0 1-.06-.12c-.01-.05 0-.1.03-.13.16-.25.43-.4.8-.45l.04.01.02.02a.05.05 0 0 1-.02.06c-.16.1-.22.16-.2.2.1.18.25.22.46.1ZM25.18 25.96l-.27.31c0 .02-.02.03-.07.05-.44.2-.94.08-1.51-.34l-.37-.25-.96-.78c.06-.22-.01-.41-.2-.57.2 0 .33-.03.41-.1.03-.03.04-.06.02-.09a.09.09 0 0 0-.05-.04.04.04 0 0 1-.04-.03v-.02l.02-.02a.17.17 0 0 1 .14-.04c.31.04.54.2.66.48a.2.2 0 0 1-.06.25.22.22 0 0 1-.25.02 1.09 1.09 0 0 0-.36-.14h-.04a.07.07 0 0 0-.04.08c0 .01 0 .03.02.04.15.16.35.3.59.42a.14.14 0 0 0 .12 0c.08-.04.11-.1.09-.18a.1.1 0 0 1 .04-.12l.04-.02c.07-.01.2 0 .38.06.04.01.08.04.1.07a.2.2 0 0 1-.08.31l-.2.09a.07.07 0 0 0-.04.02l-.01.03a.07.07 0 0 0 .02.06l.72.57.1.02.1-.01a.17.17 0 0 0 .06-.05.13.13 0 0 0 .03-.08c0-.04.07-.07.19-.09.2-.02.43 0 .7.09Z" fill="#9F5F0E"/><path d="M32.1 24.4c.15.1.2.28.14.52l-1.4.84a2.45 2.45 0 0 1-3.8.69l-.37-.2c-.1-.11-.28-.2-.55-.26l-.2-.05-1.3-.52a.21.21 0 0 1-.11-.12.61.61 0 0 0-.18-.24l-.15-.14-.09-.17a.18.18 0 0 1 .1-.26.2.2 0 0 1 .12-.01c.84.19 1.62.4 2.35.65.91.3 1.85.36 2.81.15.93-.2 1.8-.5 2.63-.88Z" fill="#EEE3CE"/><path d="m22.96 25.72-.34.12a.12.12 0 0 0-.06.05.11.11 0 0 0-.02.07c.05 1.33-.4 3.02-1.37 5.06l.08-.94c0-.02.01-.05.03-.07a.19.19 0 0 1 .05-.06.51.51 0 0 0 .17-.24c.24-.7.45-1.4.6-2.15.17-.71.1-1.32-.17-1.82l.07-.79.96.77Z" fill="#DCB36D"/><path d="M24.06 25.33c.07-.01.15 0 .23.02.17.15.18.29.04.4a.26.26 0 0 1-.21.06.27.27 0 0 1-.18-.13c-.1-.18-.06-.3.12-.35Z" fill="#9F5F0E"/><path d="m32.35 26.06-.2.1c-.13.03-.25.05-.35.05-.01 0-.03 0-.04-.02a.07.07 0 0 1-.02-.09c0-.02.02-.03.04-.03a1 1 0 0 0 .41-.3l.34-.28a.14.14 0 0 1 .21.05v.08c-.04.17-.17.32-.4.44Z" fill="#F3CB69"/><path d="m31.8 25.52.4.25a1 1 0 0 1-.42.3.08.08 0 0 0-.04.03.07.07 0 0 0 .02.1h.05c.1 0 .2-.01.33-.05l.21.26a.38.38 0 0 0-.2-.09c-.05 0-.1 0-.15.04-.8.5-1.7.92-2.67 1.26a7.89 7.89 0 0 0-1.36-.15c-.33 0-.62.05-.89.18-.28-.09-.55-.2-.82-.35a4.5 4.5 0 0 0-1.2-.27l-.83-.37a.13.13 0 0 0-.13 0 .12.12 0 0 0-.04.06c0 .02-.01.05 0 .07a3.28 3.28 0 0 0 .76 1.55v.03l-.03.02h-.27c-.7-.07-1.16-.02-1.38.14-.42.29-.62.7-.6 1.25.02.47.18.92.48 1.35a6.07 6.07 0 0 0 1.28 1.4c1.03.8 1.64 1.52 1.83 2.17-.2.26-.33.55-.38.87a1.46 1.46 0 0 0-.3-.43.1.1 0 0 0-.1-.02.1.1 0 0 0-.04.03 12.68 12.68 0 0 0-.2 2.52c.03.79-.28 1.2-.92 1.24-.18-.02-.39-.1-.63-.24a15.44 15.44 0 0 0-.69-3.18 11.3 11.3 0 0 1-.43-1.43 9.33 9.33 0 0 0-.4-1.36l-.07-.16a.12.12 0 0 0-.12 0 .1.1 0 0 0-.06.1l.15 1.73a.13.13 0 0 1-.03.1.14.14 0 0 1-.1.05c-.32.02-.54-.1-.65-.35 0-.27-.05-.67-.12-1.2a8.36 8.36 0 0 1-.12-1.46l.25-.5c.96-2.03 1.42-3.72 1.37-5.05 0-.03 0-.05.02-.07a.12.12 0 0 1 .06-.05l.34-.12.37.26c.57.42 1.07.54 1.5.34 0 .06.02.1.06.14.26.24.52.38.79.44.16.03.37.1.64.22a2.34 2.34 0 0 0 1 .24l.01-.02a.05.05 0 0 0-.02-.05 1.67 1.67 0 0 0-.72-.27.22.22 0 0 1-.13-.08l-.36-.41a.14.14 0 0 0-.12-.05.14.14 0 0 0-.1.05c-.1.14-.23.17-.38.1a.22.22 0 0 1-.11-.1c-.1-.23-.27-.31-.48-.26l.27-.31 1.27.44a.1.1 0 0 0 .11-.04.23.23 0 0 1 .1-.1l.38.19-.13.1a.1.1 0 0 0 .03.16l.62.23c.04.01.07.04.1.08l.06.1c.01.03.03.05.06.06.02.02.05.03.08.03.22 0 .43-.02.63-.07.03-.01.06-.03.08-.06a.15.15 0 0 0 .03-.09v-.02c0-.03.01-.06.03-.08a.13.13 0 0 1 .08-.05h.14c.13 0 .23-.02.31-.06.22-.1.4-.16.55-.18.06 0 .12-.02.16-.06.34-.3.6-.38.81-.24a.1.1 0 0 0 .08.02.1.1 0 0 0 .07-.05c.18-.3.52-.44 1-.44l.06-.02a.07.07 0 0 0 .02-.1.07.07 0 0 0-.05-.02l-.1-.05a.06.06 0 0 1-.04-.02.06.06 0 0 1 0-.07l.04-.02.04-.01Z" fill="#CD9148"/><path d="M34.62 26.2c.2.85.42 1.7.64 2.56.32 1.22.4 2.47.24 3.72l-.22 1.85c-.15.07-.32.12-.52.13a.11.11 0 0 1-.11-.07 14.86 14.86 0 0 1 .34-2.4.7.7 0 0 0-.01-.38.07.07 0 0 0-.03-.04.07.07 0 0 0-.08 0 39.97 39.97 0 0 1-1.96 6.76c-.01.07 0 .21.02.41l-.09.01a14.1 14.1 0 0 1 .48-4.32c.27-.88.61-1.82 1.02-2.83.27-.67.38-1.43.3-2.28-.08-.98-.38-1.68-.91-2.12a5.02 5.02 0 0 0-1.36-.7l-.02-.1-.2-.25.2-.1c0 .14.04.24.11.3a.06.06 0 0 0 .07 0l1.44-.7a.33.33 0 0 1 .23 0c.08.01.14.07.18.14l.24.41Z" fill="#C38341"/><path d="m21.17 31.02-.25.49c-.02-.67 0-1.14.04-1.43.14-.8.47-2.25.97-4.34.28.5.34 1.1.18 1.82-.16.74-.37 1.46-.61 2.15-.04.1-.1.18-.17.24a.19.19 0 0 0-.07.13l-.09.94Z" fill="#FCE782"/><path d="M24.84 26.32c.05-.02.08-.03.07-.05.21-.05.37.03.48.26.02.04.06.08.1.1.16.07.28.04.39-.1a.14.14 0 0 1 .22 0l.36.42c.03.03.08.06.14.07.24.02.48.11.72.27l.01.02v.03l-.01.02-.03.01c-.27 0-.6-.08-.97-.25-.26-.12-.48-.2-.64-.22-.27-.06-.53-.2-.79-.44-.03-.03-.05-.08-.05-.14Z" fill="#F3CB69"/><path d="m32.35 26.4.01.1-.07.23c-.44.01-.81.17-1.13.46a.36.36 0 0 1-.1.06l-1.27.55-.46-.18c.97-.34 1.86-.76 2.67-1.26.05-.03.1-.04.16-.04.07.01.13.04.19.09Z" fill="#C5A98A"/><path d="M29.11 27.28c.03-.04.11-.07.26-.1l.04-.03a.07.07 0 0 0 0-.08.07.07 0 0 0-.03-.03l-.12-.04a.05.05 0 0 1-.03-.02.05.05 0 0 1 0-.07l.04-.01a.46.46 0 0 1 .2-.01.14.14 0 0 1 .1.06c.02.04.05.07.08.06.06 0 .1-.01.12-.03a4.24 4.24 0 0 1 .58-.54.1.1 0 0 1 .08.01.1.1 0 0 1 .03.04c.05.1.13.15.24.16l.1-.01a.16.16 0 0 0 .07-.07c.06-.1.15-.18.27-.23a.13.13 0 0 1 .15.04.12.12 0 0 1 0 .15c-.16.17-.35.28-.56.35-.28.09-.65.23-1.12.44a.85.85 0 0 1-.45.07.07.07 0 0 1-.06-.04.07.07 0 0 1 .01-.07Z" fill="#F3CB69"/><path d="M32.84 38.75c-.37.19-.7.23-.98.12-.32-.11-.47-.39-.45-.82.03-.94-.02-1.85-.14-2.73a.2.2 0 0 0-.12-.15.2.2 0 0 0-.2 0c-.14.1-.22.2-.22.31.01-.17 0-.29-.07-.36a.1.1 0 0 0-.1-.03.1.1 0 0 0-.05.03.1.1 0 0 0-.03.05l-.14 1.07v-.56a2.87 2.87 0 0 1 1.26-2.7c1.74-1.3 2.5-2.52 2.28-3.64-.07-.38-.3-.67-.66-.88-.2-.11-.57-.14-1.1-.1a5.6 5.6 0 0 1-.44.02.06.06 0 0 1-.02-.1c.3-.46.5-.99.63-1.55l.08-.23c.62.24 1.08.47 1.36.7.53.44.83 1.14.92 2.12.07.85-.03 1.61-.3 2.28-.42 1.01-.76 1.95-1.03 2.83a14.1 14.1 0 0 0-.48 4.32Z" fill="#CD9148"/><path d="M25.06 27.03c.7.54 1.38.75 2.02.66.09.04.17.17.23.37a2.72 2.72 0 0 0-1.94 2.38.53.53 0 0 1-.3.37.18.18 0 0 0-.05.05.17.17 0 0 0-.03.07c-.05.28-.03.56.09.83a3.14 3.14 0 0 0 2.04 2.31 3.32 3.32 0 0 0 4-1.16l.46-1a.2.2 0 0 0 .02-.09l.03-1.6c0-.04 0-.08-.02-.12l-.69-1.34a.4.4 0 0 0-.11-.14l-1.02-.82 1.27-.55a.36.36 0 0 0 .1-.06c.32-.3.7-.45 1.13-.46a4.78 4.78 0 0 1-.65 1.6.06.06 0 0 0 .04.05l.03.01c.09 0 .22 0 .41-.03.53-.04.9-.01 1.1.1.37.2.6.5.66.88.22 1.12-.54 2.34-2.28 3.65-.94.7-1.36 1.6-1.26 2.69-1.3.65-2.68.76-4.17.33l-.03-1.31c-.2-.65-.8-1.38-1.84-2.17l-.25-.2c-.26-.2-.6-.6-1.02-1.2-.3-.43-.47-.88-.49-1.35-.01-.55.18-.96.6-1.25.22-.16.69-.2 1.38-.15a18.06 18.06 0 0 0 .28.01.06.06 0 0 0 .03-.05l-.02-.03c-.4-.47-.65-.98-.75-1.52v-.07l.04-.05a.13.13 0 0 1 .13-.01l.83.37Z" fill="#EEE3CE"/><path d="M27.08 27.65v.04c-.64.1-1.32-.12-2.03-.66.64.09 1.04.18 1.2.27.28.15.55.26.83.35Z" fill="#C5A98A"/><path d="m29.33 27.62.46.18 1.02.82a.4.4 0 0 1 .1.14l.7 1.34c.02.04.02.08.02.12l-.03 1.6a.2.2 0 0 1-.02.1l-.47.99c-.06-.31 0-.66.2-1.05.1-.22.16-.39.2-.52a.09.09 0 0 0-.07-.1l-.02-.01a.1.1 0 0 0-.07 0 .1.1 0 0 0-.04.06 3.85 3.85 0 0 1-.91 1.42l-1.97.77a.54.54 0 0 1-.42-.01c-.45-.2-.93-.3-1.43-.3a.38.38 0 0 1-.22-.07c-.5-.36-.86-.78-1.09-1.27-.1-.22-.17-.24-.2-.07a1.43 1.43 0 0 1-.08-.83.17.17 0 0 1 .09-.12c.16-.09.25-.2.29-.37.02 1 .46 1.78 1.33 2.32.48.35.93.52 1.36.5a2.91 2.91 0 0 0 2.78-1.95c.13-.22.21-.45.24-.7 0-.05.04-.1.08-.14.12-.12.16-.3.12-.53-.06-.37-.2-.7-.42-1a.14.14 0 0 0-.15-.05l-.26.07c-.99-.98-2.03-1.28-3.14-.9-.07-.2-.14-.33-.23-.37v-.04c.27-.13.56-.19.89-.18.54.02 1 .07 1.36.15Z" fill="#F3CB69"/><path d="M30.44 28.96a2.54 2.54 0 0 1 .55 1.43l-.15.92a2.91 2.91 0 0 1-2.79 1.95 2.2 2.2 0 0 1-1.35-.5c.04-.1.13-.15.27-.17l.16.02.23.1c.18.12.35.18.53.18 1.3.04 2.17-.5 2.6-1.61a.18.18 0 0 0-.02-.18.2.2 0 0 0-.16-.08l-1.47.06c.1-.13.21-.22.36-.27l1.22-.03a.16.16 0 0 0 .15-.1v-.07c-.07-.92-.34-1.55-.8-1.9a2.67 2.67 0 0 0-1.68-.45 1.77 1.77 0 0 0-.8.06c-.1-.05-.17-.1-.19-.18a.61.61 0 0 1 .2-.08c1.12-.38 2.16-.08 3.14.9Z" fill="#9F5F0E"/><path d="M27.1 28.14c.02.07.08.13.2.18-.78.3-1.26.81-1.44 1.54-.1.28-.12.56-.07.84l.03.06.07.04c.37.06.73.01 1.1-.16.3-.1.52-.31.65-.63.18-.44.33-.99.45-1.66.14 0 .2.03.19.12-.07.45-.15.88-.24 1.27-.04.18-.01.4.08.65.02.05.05.09.1.12s.09.04.11.04a1 1 0 0 0 .51.23l.36.03a.79.79 0 0 0-.36.27l-.1.02c-.6.08-.99.4-1.17.96l-.2.64-.24-.1.12-.79c.05-.04.05-.1 0-.17-.3-.5-.75-.7-1.36-.6l-.04.01a.1.1 0 0 0-.03.04.1.1 0 0 0-.01.08c.16.42.38.81.67 1.15.04.06.1.08.17.08l.32.2c-.14 0-.23.06-.27.16a2.63 2.63 0 0 1-1.33-2.32c.1-1.06.69-1.83 1.74-2.3Z" fill="#C38341"/><path d="M28.1 28.26v.1a9.06 9.06 0 0 1-.46 1.65c-.13.32-.35.53-.65.63a3.9 3.9 0 0 1-1.13-.78c.18-.73.66-1.24 1.44-1.54.25-.08.52-.1.8-.06Z" fill="#FCE782"/><path d="M29.77 28.72c0 .05.03.1.08.18a.65.65 0 0 0-.4-.09c-.05 0-.1.03-.14.06a2.58 2.58 0 0 0-.98 1.68.24.24 0 0 1-.1-.04.25.25 0 0 1-.1-.12c-.1-.25-.13-.47-.09-.65.1-.4.17-.82.24-1.27.01-.09-.05-.12-.19-.12.02.01.02-.02 0-.09.6-.04 1.16.12 1.68.46Z" fill="#F3CB69"/><path d="m29.2 30.8-.36-.02c.33-.16.56-.4.7-.73.01-.05.04-.1.09-.14.5-.42.57-.76.22-1.01-.05-.07-.08-.13-.09-.18.47.34.74.97.82 1.9a.15.15 0 0 1-.1.14.16.16 0 0 1-.06.02l-1.22.03Z" fill="#CD9148"/><path d="M29.85 28.9c.35.25.28.59-.22 1.01a.33.33 0 0 0-.1.14 1.3 1.3 0 0 1-.69.73 1 1 0 0 1-.5-.23c.09-.66.41-1.22.97-1.68a.29.29 0 0 1 .14-.06c.13-.02.26.01.4.09Z" fill="#EEE3CE"/><path d="m30.84 31.3.15-.91a2.54 2.54 0 0 0-.54-1.43l.26-.07a.14.14 0 0 1 .14.06c.22.3.37.62.43.99.04.23 0 .41-.13.53a.23.23 0 0 0-.07.14c-.03.25-.1.48-.24.7Z" fill="#CD9148"/><path d="M25.86 29.86c.32.32.7.57 1.13.78-.37.17-.73.22-1.1.16a.13.13 0 0 1-.1-.1c-.05-.28-.02-.56.07-.84ZM27.25 31.81a.33.33 0 0 0-.13-.14c-.06-.03-.11 0-.18.06-.17.18-.27.4-.3.67a.19.19 0 0 1-.16-.08 4.18 4.18 0 0 1-.68-1.2l.02-.03a.1.1 0 0 1 .07-.05c.6-.1 1.06.1 1.37.6.04.07.04.13 0 .17Z" fill="#F3CB69"/><path d="m27.36 32.7.2-.64-.04.21v.06l.05.04a.1.1 0 0 0 .1-.02l1.07-1.25.1-.02 1.46-.05a.2.2 0 0 1 .17.07.18.18 0 0 1 .02.18c-.43 1.1-1.3 1.65-2.6 1.61a.97.97 0 0 1-.53-.19Z" fill="#CD9148"/><path d="m28.74 31.1-1.06 1.25a.1.1 0 0 1-.11.02.09.09 0 0 1-.04-.04.08.08 0 0 1 0-.06l.04-.21c.19-.56.58-.88 1.17-.96Z" fill="#F3CB69"/><path d="M31.11 32.9a3.36 3.36 0 0 1-4 1.17 3.14 3.14 0 0 1-2.04-2.31c.03-.17.1-.15.2.07.23.49.6.91 1.09 1.27.06.05.14.08.22.07.5 0 .98.1 1.43.3a.54.54 0 0 0 .42.01l1.97-.77.06-.05c.36-.37.65-.83.85-1.37a.1.1 0 0 1 .04-.05.1.1 0 0 1 .07-.01h.02a.09.09 0 0 1 .06.1c-.03.14-.1.31-.2.53-.19.4-.25.74-.19 1.05Z" fill="#AC8967"/><path d="m35.28 34.33.12.27-.9.5-.23.16c-.28.13-.44.3-.5.54a144.72 144.72 0 0 1-.5 2.42l-.17 2.52a.28.28 0 0 0 .1.24.3.3 0 0 0 .27.07c.66-.15 1.16-.4 1.5-.78 0-.1.1-.2.29-.29a4.2 4.2 0 0 0 1.68-2.06c.05.48.01.94-.14 1.4-.05.16-.2.45-.47.85-.19.29-.34.58-.45.88-.4-.25-.87-.3-1.4-.12-.34.06-.66.19-.96.4a.2.2 0 0 0-.06.06.2.2 0 0 0-.03.08v.1a.08.08 0 0 1-.06.06.1.1 0 0 1-.09-.01.36.36 0 0 0-.15-.08c-.24-.48-.31-1.33-.22-2.54l.02-.26c-.03-.2-.03-.34-.01-.4a40.02 40.02 0 0 0 .64-2.77c.1-.22.2-.57.32-1.05l.17-.65a41.88 41.88 0 0 1 .82-2.3.07.07 0 0 1 .08 0l.03.04a.7.7 0 0 1 0 .37 14.86 14.86 0 0 0-.33 2.41.1.1 0 0 0 .06.06h.05c.2 0 .37-.05.52-.12Z" fill="#934C25"/><path d="m27.25 31.81-.12.8-.16-.02-.32-.2c.02-.26.12-.48.3-.66.06-.07.11-.09.17-.06.05.02.09.07.13.14Z" fill="#EEE3CE"/><path d="M22.87 35.49a.37.37 0 0 1-.22.1 6.01 6.01 0 0 0-1.18-.9.6.6 0 0 0-.39-.06c.06-.11.08-.26.08-.46.1.25.33.37.65.35a.15.15 0 0 0 .1-.05.14.14 0 0 0 .03-.1l-.14-1.72a.1.1 0 0 1 .05-.1.12.12 0 0 1 .12 0l.07.15c.14.37.28.82.4 1.36.11.49.26.96.43 1.43Z" fill="#934C25"/><path d="m19.12 34.46-1.95.65a2.78 2.78 0 0 0-.76 2.1c0 .46.13.85.39 1.19.17.55.14.83-.11.82a4.55 4.55 0 0 1-.67-2.22 2.9 2.9 0 0 1 .62-2.15c.33-.43.75-.78 1.25-1.05a2.81 2.81 0 0 1 1.63-.38.06.06 0 0 1 .02.05l-.01.03c-.22.24-.36.56-.41.96Z" fill="#EEE3CE"/><path d="M19.12 34.46c0 .13-.02.26-.07.4-.02.25-.15.38-.4.38-.5.02-.99-.03-1.48-.13l1.95-.65Z" fill="#D5C0A5"/><path d="M36.94 37.92a4.2 4.2 0 0 1-1.68 2.06l.13-.43c.4-.6.64-1.26.71-1.95.08-.8-.09-1.45-.5-1.98a.97.97 0 0 0-.8-.4c-.06-.07-.16-.11-.3-.12l.9-.5c.63.2 1.08.66 1.36 1.37.24.63.3 1.27.18 1.95Z" fill="#CD9148"/><path d="M21.08 34.63a.6.6 0 0 1 .4.06 6 6 0 0 1 1.17.9c.26 1.15.47 2.3.61 3.44.07.52.07 1.03.02 1.54-.03.22-.12.55-.29 1-.13.37-.22.65-.26.84l-1.7.09c-.04 0-.1 0-.13-.02l-.78-.26.47-.61a.08.08 0 0 1 .05-.03.08.08 0 0 1 .1.05v.06l-.1.23a.22.22 0 0 0 .09.26l.1.04c.2.03.38-.07.53-.3.06-.1.11-.16.15-.2.14.03.19.16.15.39a.1.1 0 0 0 .04.1.1.1 0 0 0 .1 0c.5-.23.72-.56.66-1.01a.2.2 0 0 0-.1-.15c-.2-.12-.42-.17-.65-.16l-.24-.04c.18-.13.23-.24.15-.34-.3-.37-.5-.68-.6-.92.13.08.22.17.29.29l.97.42a.26.26 0 0 0 .28-.05.24.24 0 0 0 .05-.09l.17-.49a.27.27 0 0 0 .02-.12l-.09-.92a11.4 11.4 0 0 0-.55-3.08.35.35 0 0 0-.07-.13c-.29-.3-.6-.3-.97-.01a.89.89 0 0 1-.07-.48c.01-.13-.05-.2-.2-.22l.23-.08Z" fill="#AC8967"/><path d="M20.86 34.71c.14.02.2.1.19.22-.02.18 0 .34.07.48l-.59.96c-.17-.05-.4.06-.67.34-.1.1-.18.11-.22.03l-.08-.17c.03-.04.04-.1.04-.16.36-.93.78-1.5 1.26-1.7Z" fill="#F3CB69"/><path d="m26.13 34.7.04 1.31.01.86v.37l-.04 1.25c-.08.12-.2.2-.35.24l-.04-3.16c.05-.32.18-.6.38-.87Z" fill="#934C25"/><path d="M19.05 34.86c.04.37.04.64-.02.8l-.5 2.49a.1.1 0 0 1 0 .03.38.38 0 0 1-.24.21.12.12 0 0 0-.06.06.11.11 0 0 0 0 .09v.04a.1.1 0 0 1-.03.1.1.1 0 0 1-.1 0l-1-.36a.12.12 0 0 0-.11.03.11.11 0 0 0-.03.12l.37.75-.53-.82a1.96 1.96 0 0 1-.4-1.18c0-.9.25-1.6.77-2.1.5.1.99.14 1.49.12.24 0 .37-.13.39-.38Z" fill="#CD9148"/><path d="m25.75 35.57.04 3.16c0 .96.09 1.9.3 2.84.07.34.02.6-.15.8a.16.16 0 0 1-.09.05l-.1-.01a.18.18 0 0 1-.11-.17c0-.08-.02-.13-.05-.15a.08.08 0 0 0-.11.02l-.01.04c-.05.47-.36.6-.93.38l.15-.48a.07.07 0 0 0-.04-.08l-.03-.01h-.05a.09.09 0 0 0-.09.04l-.07.2c-.09.3-.25.42-.48.34a.19.19 0 0 1-.1-.07.18.18 0 0 1-.03-.12l.03-.41a.06.06 0 0 0-.03-.06.06.06 0 0 0-.07 0 .99.99 0 0 0-.31.51l-.04.06a.12.12 0 0 1-.07.02c-.07.01-.13-.04-.17-.14l.58-2.06.47-1.36c.64-.04.95-.45.93-1.24a12.68 12.68 0 0 1 .2-2.52.1.1 0 0 1 .14 0c.1.1.2.24.29.42Z" fill="#EEE3CE"/><path d="m30.73 35.48-.18 5.43c-.16 0-.23-.07-.23-.22v-2.18l-.02-1.03.03-1.02.01-.22.14-1.07a.1.1 0 0 1 .02-.05.1.1 0 0 1 .16 0c.06.07.08.19.07.36Z" fill="#934C25"/><path d="M34.5 35.1c.15.01.24.05.3.12a4.74 4.74 0 0 0-.78 2.62c-.12.66-.1 1.3.07 1.92.01.03.03.06.06.08.03.01.07.02.1 0l1.14-.29-.13.43c-.2.1-.3.2-.3.3l-1.06.12c-.05 0-.09-.01-.12-.04a.15.15 0 0 1-.06-.1 8.51 8.51 0 0 1 .26-3.77c.11-.4.2-.81.3-1.23l.22-.16Z" fill="#D5C0A5"/><path d="m22.71 38.63-.2.97a.26.26 0 0 1-.1.15.28.28 0 0 1-.15.06l-.95.07a.91.91 0 0 0-.28-.3 13.83 13.83 0 0 0-.37-.9 3.28 3.28 0 0 1-.13-2.3l.6-.97c.35-.3.68-.3.96 0l.08.14c.32 1.01.5 2.04.54 3.08ZM32.84 38.75h.1l-.03.25c-.1 1.21-.02 2.06.22 2.54.08.16.13.32.17.47.05.17.02.3-.06.38-.25.02-.35-.1-.3-.38a.04.04 0 0 0-.01-.03.04.04 0 0 0-.03-.02h-.08a.07.07 0 0 0-.07.05c-.02.1-.02.22.02.35a.19.19 0 0 1-.1.22.2.2 0 0 1-.08.02l-.24.02a.24.24 0 0 1-.17-.05.22.22 0 0 1-.08-.15l-.03-.42a.08.08 0 0 0-.03-.05.09.09 0 0 0-.14.03c-.04.16-.05.3-.03.44a.2.2 0 0 1-.06.17.22.22 0 0 1-.18.06c-.44-.04-.64-.2-.6-.48v-.04a.08.08 0 0 0-.04-.03.1.1 0 0 0-.1 0 .12.12 0 0 0-.06.05c-.01.02 0 .05.01.1.04.07.04.12 0 .15a.27.27 0 0 1-.25.02.24.24 0 0 1-.1-.07.22.22 0 0 1-.04-.12c-.04-.43 0-.87.1-1.32l.18-5.43c0-.1.07-.2.22-.3a.2.2 0 0 1 .31.14c.13.88.17 1.79.14 2.73-.01.43.14.7.46.82.28.11.6.07.98-.12ZM34.8 35.22c.31 0 .58.13.8.4.41.53.58 1.19.5 1.98-.07.69-.3 1.34-.7 1.95l-1.14.3-.1-.01a.13.13 0 0 1-.07-.08 4.2 4.2 0 0 1-.05-2.08c.01-.87.27-1.69.75-2.46Z" fill="#EEE3CE"/><path d="M34.28 35.26c-.09.42-.19.83-.3 1.23a8.51 8.51 0 0 0-.26 3.78c0 .04.03.07.06.1.03.02.08.03.12.03l1.06-.13c-.33.37-.83.63-1.49.78a.3.3 0 0 1-.26-.07.3.3 0 0 1-.1-.24l.17-2.52v-.03c.15-.68.32-1.48.5-2.39.05-.23.21-.41.5-.54Z" fill="#AC8967"/><path d="m23.56 38.67.16 1.6-.58 2.06a.71.71 0 0 0-.05.28.39.39 0 0 0-.36-.2c.04-.2.13-.47.27-.84.16-.45.26-.78.28-1 .05-.51.05-1.02-.01-1.54-.15-1.14-.35-2.29-.62-3.44.08 0 .15-.04.22-.1.35 1.06.58 2.12.69 3.18Z" fill="#9D7757"/><path d="M30.34 35.68v.78c-.08.18-.23.34-.44.47-1.12.7-2.36.68-3.72-.06V36c1.48.43 2.87.32 4.16-.33Z" fill="#D5C0A5"/><path d="M19.03 35.66c.18.26.31.48.39.67.02.05.08.07.18.08 0 .07-.02.12-.04.16l-.01 1.7a.29.29 0 0 0 .12.25l1.32.91c.02.05.04.1.04.16.1.24.3.55.59.92.08.1.03.21-.15.34-.36 0-.68.1-.97.3-.06-.08-.15-.12-.28-.11.09 0 .16 0 .21-.02.02 0 .03-.01.03-.02a.06.06 0 0 0 0-.08 4.85 4.85 0 0 1-3.13-1.7l-.37-.75a.1.1 0 0 1 .02-.12.12.12 0 0 1 .12-.03l1 .37a.1.1 0 0 0 .1-.02.1.1 0 0 0 .03-.04.1.1 0 0 0 0-.05l-.01-.04a.11.11 0 0 1 .07-.15c.12-.04.2-.11.24-.21a.1.1 0 0 0 0-.03l.5-2.5Z" fill="#934C25"/><path d="M20.53 36.37c-.23.87-.2 1.64.13 2.31l.33.75-1.32-.91a.3.3 0 0 1-.12-.24l.01-1.7.08.16c.04.08.11.07.22-.03.27-.28.5-.39.67-.34Z" fill="#D29B50"/><path d="M30.3 37.48c-.53.63-1.2.96-2 .98a2.33 2.33 0 0 1-1.3-.23c-.23-.15-.5-.47-.82-.99v-.37c1.36.74 2.6.76 3.72.06.21-.13.35-.29.43-.47l-.03 1.02Z" fill="#C5A98A"/><path d="m30.3 37.48.02 1.03c-.3.54-.5.88-.6 1.03-.32.48-.81.75-1.47.8-.68.05-1.18-.17-1.52-.66a4.77 4.77 0 0 1-.59-1.2l.04-1.24c.32.52.59.84.82.99.28.18.71.25 1.3.23a2.64 2.64 0 0 0 2-.98Z" fill="#AC8967"/><path d="M17.33 39.22a4.85 4.85 0 0 0 3.13 1.7l.02.03-.01.05-.04.02a4.64 4.64 0 0 1-3.75-1.8c.26 0 .3-.27.12-.82l.53.82Z" fill="#C5A98A"/><path d="M30.32 38.51v2.18c0 .15.07.22.23.22-.1.45-.14.9-.1 1.33 0 .04.02.07.04.1.03.04.06.06.1.08.04.02.08.02.13.02.04 0 .08-.02.12-.04.04-.03.04-.08 0-.16-.02-.04-.02-.07-.01-.09a.12.12 0 0 1 .07-.06.1.1 0 0 1 .05 0 .1.1 0 0 1 .04.01c.02 0 .03.02.03.03v.04c-.03.28.18.44.61.48a.22.22 0 0 0 .18-.06.2.2 0 0 0 .06-.17c-.02-.13-.01-.28.03-.44 0-.02.02-.03.03-.04a.09.09 0 0 1 .11 0l.03.06.03.42c0 .05.04.1.08.15.05.03.11.05.17.05l.25-.02a.2.2 0 0 0 .14-.08.19.19 0 0 0 .03-.16.67.67 0 0 1-.02-.35.07.07 0 0 1 .08-.05H32.92l.01.02a.04.04 0 0 1 0 .03c-.04.28.06.4.3.38.08 0 .17.02.27.05-.1.18-.26.3-.52.36l-.3.1a.65.65 0 0 1-.38.08c-.12-.02-.38-.01-.77.02a3.73 3.73 0 0 1-1.15-.3.23.23 0 0 1-.06-.09l-.14-.33a.19.19 0 0 0-.14-.12 10.35 10.35 0 0 0-3.65.03.16.16 0 0 0-.05.07c-.1.26-.22.42-.37.5-.42.2-.93.27-1.54.21-.1-.04-.13-.15-.1-.3.02-.14.09-.19.21-.14.57.22.88.09.93-.38l.01-.04a.08.08 0 0 1 .07-.04c.01 0 .03 0 .04.02.03.02.05.07.05.15a.18.18 0 0 0 .21.18c.04-.01.07-.03.09-.05.17-.2.22-.46.14-.8-.2-.94-.3-1.88-.29-2.84a.65.65 0 0 0 .35-.24c.14.42.34.82.6 1.2.33.48.83.7 1.51.65a1.84 1.84 0 0 0 1.47-.8c.1-.15.3-.49.6-1.03Z" fill="#9D7757"/><path d="m21.31 39.88.95-.07c.06 0 .11-.03.16-.06a.26.26 0 0 0 .08-.15l.21-.97.09.92c0 .04 0 .08-.02.12l-.16.5a.24.24 0 0 1-.14.14.25.25 0 0 1-.2 0l-.97-.43Z" fill="#C5A98A"/><path d="m24.19 38.91-.47 1.36-.16-1.6c.24.13.45.22.63.24Z" fill="#D5C0A5"/><path d="M35.88 41.05c.42.18.6.5.57.95-.23.15-.37.06-.4-.27l-.02-.04a.09.09 0 0 0-.04-.03l-.12-.05a.06.06 0 0 0-.06.02l-.02.03v.03l.05.11a.3.3 0 0 1 0 .21.3.3 0 0 1-.13.16.32.32 0 0 1-.4-.07l-.3-.36a.08.08 0 0 0-.05-.02h-.05l-.05.03a.09.09 0 0 0-.03.03.08.08 0 0 0 .01.1c.1.1.13.16.08.2a.3.3 0 0 1-.27.06.26.26 0 0 1-.12-.07.23.23 0 0 1-.05-.12c-.06-.36-.06-.7 0-1.02.54-.17 1-.13 1.4.12ZM21.47 40.85l.25.04c.33.06.26.34-.2.83-.04.04-.1.1-.16.2-.15.23-.33.33-.54.3a.23.23 0 0 1-.16-.1.22.22 0 0 1-.01-.2l.09-.23a.08.08 0 0 0-.04-.1.08.08 0 0 0-.06-.01.08.08 0 0 0-.04.03l-.48.61c-.2-.43-.07-.79.38-1.07.3-.2.61-.3.97-.3Z" fill="#EEE3CE"/><path d="M21.52 41.72c.46-.5.53-.77.2-.83.22-.01.44.04.64.16a.2.2 0 0 1 .1.15c.06.45-.16.78-.66 1.01a.1.1 0 0 1-.1 0 .1.1 0 0 1-.03-.05.1.1 0 0 1 0-.05c.03-.23-.02-.36-.15-.4Z" fill="#D5C0A5"/><path d="M34.48 40.93c-.06.32-.06.66 0 1.02 0 .04.02.08.05.12.03.03.07.06.12.07a.29.29 0 0 0 .27-.06c.05-.04.02-.1-.08-.2a.08.08 0 0 1-.03-.06l.02-.04.03-.03.04-.02a.09.09 0 0 1 .06-.01c.02 0 .04.01.05.03l.3.36c.05.05.12.09.19.1.07.01.15 0 .2-.04a.3.3 0 0 0 .14-.16.3.3 0 0 0 0-.2l-.05-.12a.06.06 0 0 1 .02-.06.06.06 0 0 1 .06-.01l.12.04c.02 0 .03.02.04.03l.02.04c.03.33.16.42.4.27-.18.37-.58.5-1.2.4-.06 0-.12 0-.16.03-.2.11-.66.13-1.4.04l-.19-.03a.88.88 0 0 0-.26-.05c.09-.08.1-.2.06-.38-.04-.15-.1-.3-.17-.47.06.02.11.04.15.08a.09.09 0 0 0 .09.01c.02 0 .03-.01.04-.03l.01-.04v-.09a.2.2 0 0 1 .04-.08.2.2 0 0 1 .06-.07c.3-.2.62-.33.96-.39Z" fill="#AC8967"/><path d="M24.54 42.53c-.12-.05-.2 0-.21.13-.02.16.01.27.1.31-.2.03-.37.03-.47 0a9.62 9.62 0 0 1-.87-.36c0-.12.02-.22.05-.28.04.1.1.15.18.14a.12.12 0 0 0 .1-.08.99.99 0 0 1 .3-.5.06.06 0 0 1 .08-.01l.02.02.01.04-.03.41.03.12.1.07c.23.08.4-.04.49-.35l.06-.19a.09.09 0 0 1 .09-.05h.05a.08.08 0 0 1 .06.04.07.07 0 0 1 .01.06l-.15.48Z" fill="#C5A98A"/><defs><linearGradient id="a" x1="4.07" y1="3.78" x2="56" y2="50.02" gradientUnits="userSpaceOnUse"><stop stop-color="#4A4A4A"/><stop offset=".47" stop-color="#222"/><stop offset=".96" stop-color="#202020"/></linearGradient></defs></svg>