<svg width="112" height="112" viewBox="0 0 56 56" xmlns="http://www.w3.org/2000/svg"><path d="M33.14 41.91c-2-2.01-3.16-3.14-5.17-5.15l3.07-3.08 4.25 4.25L38 35.21l-4.27-4.28 3.09-3.09 5.18 5.2a3.37 3.37 0 0 1 0 4.75l-4.11 4.12a3.36 3.36 0 0 1-4.76 0Z" fill="url(#akk1vpapy)"/><path fill-rule="evenodd" d="m14.02 37.97 4 4.01a3.48 3.48 0 0 0 4.93 0l19.02-19.03a3.48 3.48 0 0 0 0-4.92l-4-4a3.47 3.47 0 0 0-4.92-.01L14.02 33.05a3.48 3.48 0 0 0 0 4.92Zm3.8-2.46 2.65 2.65 17.44-17.44-2.66-2.65L17.82 35.5Z" fill="url(#bkk1vpapy)"/><path d="m18.75 13.95-4.57 4.58a3.13 3.13 0 0 0 0 4.43l13.9 13.9 3.1-3.1-13.01-13.02 2.64-2.64 9.86 9.86 3.26-3.25-10.75-10.76a3.13 3.13 0 0 0-4.43 0Z" fill="url(#ckk1vpapy)"/><defs><linearGradient id="akk1vpapy" x1="35.48" y1="27.84" x2="35.48" y2="42.9" gradientUnits="userSpaceOnUse"><stop stop-color="#087FFD"/><stop offset="1" stop-color="#0BEFF8"/></linearGradient><linearGradient id="bkk1vpapy" x1="41.56" y1="20.51" x2="13.75" y2="20.51" gradientUnits="userSpaceOnUse"><stop stop-color="#001BFF"/><stop offset="1" stop-color="#08E0FE"/></linearGradient><linearGradient id="ckk1vpapy" x1="11.88" y1="21.11" x2="30.76" y2="21.11" gradientUnits="userSpaceOnUse"><stop stop-color="#0BF9FF"/><stop offset=".99" stop-color="#0092F6"/></linearGradient></defs></svg>