<svg width="112" height="112" viewBox="0 0 56 56" xmlns="http://www.w3.org/2000/svg"><rect fill="#F0F3FA" width="56" height="56" rx="28"/><path d="M41.95 24.88c.54 2.49.44 4.95-.3 7.39a14.43 14.43 0 0 1-1.67 3.55 13.23 13.23 0 0 1-1.81 2.25 14.44 14.44 0 0 1-11.98 4.1 13.87 13.87 0 0 1-6.15-2.3 14.58 14.58 0 0 1-5.57-7.28c.25-.21.47-.46.65-.74a13.46 13.46 0 0 0 26.03-1.05c.46-2.14.4-4.29-.21-6.44A13.47 13.47 0 0 0 27 14.59l.4-.87c1.98-.1 3.92.23 5.81.96a14.05 14.05 0 0 1 7.31 6.43 14.4 14.4 0 0 1 1.43 3.77Z" fill="#346858"/><path d="m27.4 13.72-.4.87c-.84.07-1.67.21-2.49.43l.45-.98c.8-.18 1.6-.29 2.43-.32Z" fill="#0F5143"/><path d="m24.96 14.04-.45.98a13.46 13.46 0 0 0-9.9 11.8c-.14.2-.26.33-.35.4-.17.1-.29.06-.37-.14a4.98 4.98 0 0 1-.12-.34 14.26 14.26 0 0 1 11.2-12.7Z" fill="#174236"/><path d="M15.12 31.85a13.35 13.35 0 0 1 4.64-14.47 13.46 13.46 0 0 1 18.02 1.4 13.22 13.22 0 0 1 3.16 5.58c.6 2.15.67 4.3.2 6.44-.6 2.74-1.9 5.06-3.9 6.97a13.22 13.22 0 0 1-10.84 3.58 13.43 13.43 0 0 1-11.28-9.5Z" fill="#EBEEF6"/><path d="M30.56 16.81c-.1.02-.1.04.02.06l.17.03c.72.18 1.4.41 2.07.7.05.02.06.06.03.11l-1.65 3.07a5.88 5.88 0 0 0-2.94-.66c-.04 0-.06-.02-.07-.07l-.23-3.3c0-.02.02-.04.04-.04.9-.08 1.75-.05 2.56.1ZM27.21 16.72l.24 3.31c0 .07-.02.11-.1.13a8.7 8.7 0 0 0-1.55.42 3.1 3.1 0 0 0-.54.28c-.08.05-.15.04-.21-.04l-2.16-2.74c-.02-.02-.02-.04.01-.06a10.74 10.74 0 0 1 4.31-1.3Z" fill="#27A486"/><path d="M25.26 20.86c.22-.13.4-.23.54-.28a8.7 8.7 0 0 1 1.56-.42c.07-.02.1-.06.1-.13l-.25-3.3h.2c.03 0 .04.01.04.04l.23 3.3c0 .05-.02.08-.08.1-.77.1-1.5.34-2.18.7-.04.02-.1.02-.16-.01ZM30.56 16.81c.88.17 1.71.44 2.52.8.03.02.03.03.02.06l-1.61 2.97c-.04.07-.14.11-.3.14l1.66-3.07c.03-.05.02-.09-.03-.1a12.44 12.44 0 0 0-2.24-.74c-.12-.02-.12-.04-.02-.06ZM34.39 23.3l3.24-1.78c.04-.02.04-.05.02-.08-.38-.47-.76-.91-1.16-1.34a10.34 10.34 0 0 0-2.95-2.23c.25.02.57.15.95.4a13.95 13.95 0 0 1 3.4 3.24l-3.26 1.78a.29.29 0 0 1-.24.02Z" fill="#0F5143"/><path d="M33.54 17.87c1.11.56 2.1 1.3 2.95 2.23.4.43.78.87 1.16 1.34.02.03.02.06-.02.08L34.4 23.3c-.02 0-.05 0-.08-.02a.15.15 0 0 1-.04-.06.84.84 0 0 0-.08-.15 8.21 8.21 0 0 0-2.34-2.1l1.69-3.1ZM22.3 18.32l2.21 2.81c.03.03.03.06 0 .08-.81.56-1.5 1.24-2.08 2.02l-3.07-2.3c-.02-.01-.02-.03 0-.06l.68-.72c.67-.72 1.42-1.33 2.25-1.83Z" fill="#27A486"/><path d="M22.43 23.23a8.67 8.67 0 0 1 2.07-2.02c.03-.02.04-.05.01-.08l-2.22-2.81c.17.02.27.06.3.1l2.14 2.73c.02.03.02.05 0 .06a7.86 7.86 0 0 0-2.05 1.97.08.08 0 0 1-.06.04l-.2.01Z" fill="#0F5143"/><path d="M29.38 20.75a6.75 6.75 0 0 1 3.32 1.79c.14.13.4.43.8.9-.5 0-.93.03-1.33.1-.17-.01-.3 0-.4.02a9.41 9.41 0 0 0-4.25 2.55l-.64-.01c-.58.05-1.04.32-1.38.83a2.08 2.08 0 0 0 .26 2.7c.31.3.7.49 1.15.53a.67.67 0 0 1 .28.01c-.08-.02-.12 0-.13.06l-.02.04c-.48.54-.93 1-1.37 1.39-.24.22-.53.38-.85.48-.06.02-.1.06-.1.12v2.48c-.2-.1-.35-.22-.48-.33a7.64 7.64 0 0 1-2.62-5.02c-.3-2.5.38-4.7 2.04-6.56a6.18 6.18 0 0 1 5.72-2.08Z" fill="#27A486"/><path d="M33.5 23.43c-.4-.46-.66-.76-.8-.9a6.74 6.74 0 0 0-3.32-1.79c1.22.18 2.3.68 3.22 1.53.39.35.76.72 1.11 1.11.02.02.02.04 0 .05-.1.02-.17.02-.21 0Z" fill="#0F5143"/><path d="M19.07 21.35c0 .06.03.13.12.2.93.7 1.87 1.4 2.84 2.1.02.02.03.04.01.07A8.83 8.83 0 0 0 21 26.26l-3.9-.85c-.03 0-.04-.02-.03-.04.36-1.44.97-2.76 1.84-3.97.03-.05.08-.07.16-.05Z" fill="#27A486"/><path d="M19.07 21.35c.08.01.13.03.15.05l3.01 2.27c.02.01.03.03.01.06-.45.77-.8 1.6-1.02 2.47 0 .02-.02.04-.04.05a.4.4 0 0 1-.18.01c.21-.9.56-1.76 1.04-2.54.02-.03.01-.05-.01-.06-.97-.7-1.91-1.41-2.84-2.11-.09-.07-.13-.14-.12-.2Z" fill="#0F5143"/><path d="M34 23.97a.1.1 0 0 0-.05.01c-.03.02-.03.04 0 .05.1.07.18.16.25.27.39.71.67 1.47.85 2.29.1.5.15.95.14 1.35a8.4 8.4 0 0 0-3.28-.2c-.77.05-1.56.23-2.36.53-.12.05-.18.1-.19.17l-.12-.02c-.03 0-.05-.02-.04-.05a2.09 2.09 0 0 0-.96-2c-.03-.02-.03-.04 0-.06.12-.12.4-.34.8-.67a8.21 8.21 0 0 1 2.33-1.3c.9-.33 1.77-.45 2.62-.37Z" fill="#27A486"/><path d="M34 23.97c.2.05.34.17.44.36a9.15 9.15 0 0 1 1 3.56c0 .03 0 .04-.03.05a.46.46 0 0 1-.22 0c.01-.4-.04-.85-.14-1.35a8.34 8.34 0 0 0-.85-2.29.74.74 0 0 0-.25-.27c-.03-.01-.03-.03 0-.05a.1.1 0 0 1 .05-.01Z" fill="#0F5143"/><path d="m33.86 24.44-.03.08.72 2.46.04.05v.04c0 .03 0 .04-.02.06a.05.05 0 0 1-.06 0 .27.27 0 0 1-.14-.18l-.73-2.46c-.01-.05 0-.09.06-.1.09-.03.14-.01.16.05Z" fill="#174236"/><path d="M34.6 27.03a.16.16 0 0 1-.05-.05l-.72-2.46c0-.02 0-.04.03-.08.04 0 .08.03.1.11l.7 2.38a.1.1 0 0 1-.03.1h-.04Z" fill="#346858"/><path d="M31.8 24.8a.37.37 0 0 0 .05.3v.01l.5 1.77.04.06.03.03c.02.03.02.06 0 .07-.12.05-.2.02-.23-.08l-.57-1.9a.86.86 0 0 1-.04-.29c0-.02.02-.04.04-.05.12-.03.18 0 .19.07Z" fill="#0F5143"/><path d="M31.8 24.8h.08c.02.02.03.04.03.07 0 .05.01.1.04.18.03.08.04.14.04.18 0 .04.01.08.04.11a.2.2 0 0 1 .04.08c.04.18.08.34.14.48l.02.14v.01l.27.85-.01.06c-.02.01-.04.02-.07 0l-.03-.02a.13.13 0 0 1-.03-.06l-.5-1.77-.01-.02a.37.37 0 0 1-.04-.3Z" fill="#346858"/><path d="M29.94 25.65c.09.57.24 1.1.45 1.62-.02.09-.08.1-.19.04a.08.08 0 0 1-.04-.05l-.43-1.54c0-.02 0-.04.02-.06.06-.05.13-.06.2 0Z" fill="#0F5143"/><path d="M29.94 25.65c.22.5.39 1.02.52 1.54 0 .03 0 .05-.04.07l-.03.01a7.16 7.16 0 0 1-.45-1.62Z" fill="#346858"/><path d="M17.16 25.96c.3.13.59.2.85.24a1.25 1.25 0 0 1 .31.07l2.34.5c.17.03.23.14.18.32l-.05.32a13 13 0 0 0 .03 2.27l-3.63.48h-.3c-.05 0-.08-.03-.09-.08-.2-1.36-.16-2.73.1-4.1 0-.02.02-.03.05-.04a.31.31 0 0 1 .21.02Z" fill="#27A486"/><path d="M20.82 29.68v-.3a13 13 0 0 1 .02-2.3c.05-.17-.01-.28-.18-.31A87.33 87.33 0 0 1 18 26.2a3.27 3.27 0 0 1-.85-.24l3.86.85c.04.01.06.04.06.08a9.02 9.02 0 0 0-.03 2.69c0 .03 0 .04-.03.05l-.2.05ZM26.88 26.1c-.6.18-1.03.53-1.3 1.02-.29.5-.34 1.05-.16 1.61.21.7.71 1.18 1.49 1.43a1.84 1.84 0 0 1-1.15-.53 2.08 2.08 0 0 1-.26-2.7c.34-.5.8-.78 1.38-.83Z" fill="#0F5143"/><path d="M27.53 26.61c.43.21.73.5.9.87.17.36.2.73.08 1.1-.17.5-.54.87-1.11 1.07-.28.04-.48.04-.6 0-.57-.15-.95-.47-1.13-.95-.17-.47-.14-.9.08-1.33.23-.41.59-.67 1.08-.78.22-.04.45-.04.7.02Z" fill="#27A486"/><path d="M27.53 26.61c.53.1.89.35 1.08.78.32.74.2 1.37-.36 1.92-.22.21-.5.33-.85.34.57-.2.94-.56 1.1-1.07.13-.37.1-.74-.07-1.1a1.83 1.83 0 0 0-.9-.87ZM13.77 26.74c0 .05.05.16.12.34.08.2.2.25.37.13.09-.06.2-.19.35-.39-.14 1.72.03 3.4.5 5.03-.17.28-.39.53-.64.74l-.29-.95a14.67 14.67 0 0 1-.41-4.9Z" fill="#0F5143"/><path d="M31.91 27.74c-.87.14-1.72.38-2.55.7 0-.07.07-.12.19-.17.8-.3 1.58-.48 2.36-.53Z" fill="#346858"/><path d="m34.46 28.34.56.17c.1.03.17.1.18.22l.1 1.03c.02.36.09.67.2.95.22.51.47 1.02.77 1.52.01.02.01.05 0 .07a.09.09 0 0 1-.06.06l-.66.21c-.11.04-.18.11-.2.21a1 1 0 0 0 .02.31c.03.18.03.31 0 .38a.9.9 0 0 1-.1.14l-.68.01-.1.05.01-.03c0-.02 0-.03-.02-.03a.28.28 0 0 0-.18.05.08.08 0 0 0-.04.07c0 .03 0 .05.03.07.06.06.13.07.22.05l.66.02c-.01.05 0 .07.02.08.02 0 .03.02.03.05 0 .02 0 .04-.03.06-.13.1-.24.2-.31.34-.03.05-.05.2-.04.45 0 .36-.03.7-.11 1.04-.9 0-1.8-.06-2.66-.19-.06 0-.1-.04-.1-.1v-7.26c0-.04.03-.07.07-.07a9.3 9.3 0 0 1 2.42.07ZM31.25 28.34v11.05c0 .1-.05.17-.15.19l-.26.05-.01.02.01.03h.05a11.88 11.88 0 0 1-5.65-.16.1.1 0 0 1-.07-.1v-6.75c0-.04.02-.07.05-.08.34-.18.65-.39.96-.64.25-.21.55-.5.88-.86.77-.8 1.36-1.4 1.78-1.8.47-.46 1.28-.78 2.41-.95Z" fill="#27A486"/><path d="M30.89 39.68h-.05l-.01-.03.01-.02.26-.05c.1-.02.16-.09.16-.2V28.35h.17c.02.01.03.03.03.05 0 4.84 0 8.48.02 10.92 0 .13-.06.21-.16.25l-.43.12ZM35.27 33.6a.9.9 0 0 0 .1-.13c.03-.07.03-.2 0-.38a1 1 0 0 1-.02-.3c.02-.11.09-.18.2-.22l.66-.21c.03-.01.05-.03.06-.06a.08.08 0 0 0 0-.07c-.3-.5-.55-1.01-.77-1.52a2.95 2.95 0 0 1-.2-.95 34 34 0 0 0-.1-1.03.24.24 0 0 0-.18-.22l-.56-.17.8.18c.08.02.13.07.14.15.05.5.1.94.12 1.33.02.2.1.46.23.78.2.47.45.97.75 1.5.02.04 0 .06-.03.07l-.7.22c-.18.06-.25.21-.2.46.02.12.03.26.03.42a.1.1 0 0 1-.03.07c-.07.06-.17.1-.3.09Z" fill="#0F5143"/><path d="M33.24 29.53c-.03-.08 0-.13.07-.16.27-.1.45-.15.53-.13.41.1.69.17.82.22.06.02.1.04.1.07.03.03.02.07 0 .1a.12.12 0 0 1-.12.05 3.4 3.4 0 0 1-.62-.13 1 1 0 0 0-.62.05c-.07.02-.12 0-.16-.07ZM27.19 30.17c.04 0 .08 0 .1.02.03.02.03.04.01.06l-.94 1a3.05 3.05 0 0 1-1.33.9.1.1 0 0 0-.08.12v2.43c0 .03-.02.04-.04.05-.08.03-.14.03-.2-.01l.02-2.48c0-.06.03-.1.09-.12.32-.1.6-.27.85-.48a16 16 0 0 0 1.39-1.43c0-.06.05-.08.13-.06ZM18.95 35.29l3.1-2.26c.03-.01.03-.03.02-.06a8.77 8.77 0 0 1-1.1-2.76c.07 0 .14.02.2.07a.1.1 0 0 1 .05.06c.2.95.56 1.83 1.07 2.65.02.02.01.04-.01.05l-3.05 2.19c-.06.04-.15.06-.28.06Z" fill="#0F5143"/><path d="M20.96 30.21c.22.99.59 1.9 1.11 2.76.01.03.01.05-.01.06l-3.11 2.26a11.84 11.84 0 0 1-2-4.5c0-.02.01-.04.03-.04l3.98-.54Z" fill="#27A486"/><path d="M33.93 30.62c.14 0 .3-.05.5-.13a.1.1 0 0 1 .08 0 .1.1 0 0 1 .05.07c.02.08 0 .12-.07.15-.26.1-.45.16-.55.16-.11 0-.3-.05-.56-.15-.07-.02-.1-.07-.08-.14a.1.1 0 0 1 .05-.07.1.1 0 0 1 .08 0c.2.07.37.1.5.1ZM29.83 31.26c-.02.13-.03.32-.03.56v6.05c0 .19 0 .34.03.46-.03.07-.07.08-.14.05a.16.16 0 0 1-.08-.16c-.02-2.3-.02-4.56 0-6.74 0-.11.02-.2.06-.26a.07.07 0 0 1 .07-.03c.07 0 .1.02.1.07Z" fill="#0F5143"/><path d="M29.83 31.26c.07 0 .1.02.11.07a3577.13 3577.13 0 0 0 0 6.95c0 .04-.02.06-.06.05h-.05a2.24 2.24 0 0 1-.04-.46v-6.05c0-.24.02-.43.04-.56Z" fill="#C0E2D9"/><path d="M27.2 11.73c.03 0 .05.02.05.05l.02.28c0 .05-.02.08-.07.08l-.38.03c-.07 0-.1.04-.1.1l.06.8c0 .02.02.04.04.04h1.22c.02 0 .04-.02.04-.04V11.8c0-.04.02-.06.05-.06h.7c.06 0 .1.03.1.1v.2c0 .05-.03.08-.09.08l-.4.03c-.05 0-.08.03-.08.1v.8c0 .03.01.05.04.05l1.13.08c.03 0 .05-.01.05-.04l.18-1.28c0-.03.02-.04.05-.04l.76.1c.05.02.07.04.06.1l-.06.24c-.02.06-.05.09-.12.08l-.38-.05c-.04 0-.06 0-.07.04l-.11.82c0 .02 0 .03.02.03l1.13.28c.04 0 .07 0 .08-.05l.3-1.29c.01-.02.02-.02.04-.02l.76.19c.04 0 .06.03.05.07l-.08.3c0 .04-.03.05-.06.04l-.4-.1c-.06 0-.1.02-.11.08l-.19.77c0 .02 0 .04.03.04l1.1.36c.04.02.06 0 .08-.04l.39-1.19c.01-.06.05-.07.1-.05l.7.25c.04.02.05.03.04.06l-.1.3c-.01.04-.04.05-.09.04l-.37-.12c-.06-.02-.1 0-.12.06l-.28.75c0 .02 0 .04.02.05l1.09.44.03-.01.56-1.13c.02-.06.07-.08.12-.05l.66.32c.04.02.04.05.02.08l-.16.28c-.02.04-.05.05-.09.02l-.32-.18c-.05-.03-.1-.02-.13.04l-.36.73c0 .02 0 .03.02.03l.99.58c.05.03.09.02.12-.03l.6-1.05c.03-.05.08-.06.13-.03l.61.35c.05.03.06.07.03.12l-.12.2c-.04.08-.1.1-.17.05l-.3-.17c-.07-.04-.11-.03-.15.03l-.38.67v.04l.92.66c.06.04.1.03.14-.02l.7-.96c.05-.06.1-.07.16-.02l.53.42c.06.05.06.1.01.15l-.15.17a.1.1 0 0 1-.09.04.1.1 0 0 1-.08-.04.97.97 0 0 0-.28-.2c-.04-.03-.08-.02-.11.02l-.5.61c-.02.03-.01.05.01.08l.93.74h.05l.63-.66.02-.02a1 1 0 0 1 .2-.26c.05-.04.1-.03.13.01l.46.55c.03.03.03.05 0 .08l-.17.19a.09.09 0 0 1-.07.03.1.1 0 0 1-.08-.04l-.2-.25c-.03-.02-.05-.03-.08 0l-.63.52c-.04.04-.04.08 0 .12l.8.8c.03.04.07.04.1.01l.93-.79c.04-.03.08-.03.11.01l.46.54c.03.05.03.09-.01.12l-.2.17c-.06.05-.11.05-.16-.01l-.23-.3c-.03-.04-.07-.04-.11 0l-.6.5c-.03.02-.04.06 0 .1l.7.9c.02.02.04.03.06.01l1.07-.73c.04-.02.07-.02.1.03l.35.62c.03.05.02.09-.03.11l-.22.13c-.06.04-.1.02-.14-.03l-.18-.32c-.03-.05-.06-.06-.1-.03l-.67.46c-.02 0-.02.02-.01.04l.58 1c.03.06.07.07.13.04l1.06-.62c.03-.01.06 0 .08.03l.37.63c.02.05.01.09-.03.11l-.25.15c-.06.03-.1.02-.13-.04l-.22-.37c-.02-.03-.04-.04-.07-.02l-.72.41v.02l.5 1.06c.02.05.05.07.1.05l1.12-.49c.05-.02.09 0 .1.04l.29.65c.02.04 0 .07-.04.1l-.3.12c-.04.02-.06 0-.08-.03l-.2-.44c0-.03-.02-.03-.04-.02l-.78.34c-.02 0-.02.02-.02.04l.39 1.07c.02.06.06.08.12.06l1.15-.32c.07-.02.1 0 .13.07l.17.62c.02.06 0 .09-.05.1l-.26.08c-.07.02-.11 0-.13-.08l-.11-.37c-.01-.04-.03-.05-.07-.04l-.79.22c-.03.01-.04.03-.04.07l.19.74.1.43c.02.03.04.04.07.04l1.21-.26c.06-.02.1 0 .11.07l.12.68c0 .05-.01.07-.06.08l-.27.06c-.07.01-.1-.01-.11-.07l-.07-.39c-.01-.05-.04-.08-.1-.07l-.79.14c-.04 0-.06.03-.05.08l.2 1.16c0 .03.02.04.05.04l1.24-.09c.05 0 .08.02.08.07l.05.65c0 .07-.03.11-.1.12l-.24.01c-.07 0-.11-.03-.11-.1l-.03-.38c0-.05-.03-.07-.07-.07l-.76.06c-.04 0-.06.02-.06.06v1.2c0 .04.01.06.04.06h1.26c.04 0 .07.02.07.06v.67c0 .07-.04.1-.1.1h-.24c-.07 0-.1-.03-.1-.09v-.41c0-.04-.02-.05-.05-.05h-.8c-.06 0-.09.02-.1.07l-.07 1.13c0 .03.01.05.05.06l1.26.18c.04 0 .06.03.05.07l-.09.66c0 .06-.04.09-.1.08l-.27-.04c-.05 0-.08-.04-.07-.09l.06-.38c0-.06-.02-.09-.08-.1l-.76-.1c-.02 0-.04 0-.04.02l-.29 1.17c0 .03 0 .05.04.06l1.29.31c.03 0 .04.03.03.05l-.17.72c-.01.04-.04.06-.08.05l-.28-.07c-.06-.01-.08-.05-.06-.1l.1-.42c0-.03 0-.05-.04-.06l-.8-.2c-.04 0-.07.01-.08.06l-.28.96-.05.15c-.01.04 0 .07.04.08l1.21.4c.03.01.04.03.03.05l-.24.73c0 .03-.03.05-.07.03l-.31-.11c-.03-.01-.04-.04-.04-.07.04-.16.1-.3.17-.43.02-.03.01-.04-.02-.05l-.8-.3c-.04-.01-.06 0-.07.03l-.45 1.1c-.02.02 0 .04.02.05l1.16.57c.03.02.04.04.02.07l-.31.65c-.02.05-.06.06-.1.03l-.24-.14c-.05-.02-.06-.06-.04-.11l.18-.36c0-.02 0-.04-.02-.05l-.69-.4c-.05-.03-.09-.02-.12.04l-.6 1.04c-.02.02 0 .04.02.06l1.12.65c.03.01.04.04.02.07l-.37.64c-.03.05-.07.06-.12.03l-.22-.17c-.05-.03-.05-.07-.03-.11l.21-.37c.02-.03.02-.06-.02-.09l-.68-.39c-.03-.02-.07-.01-.09.02l-.68.94c-.03.04-.02.07.02.1l1.03.75c.03.01.03.04.01.06l-.4.57a.13.13 0 0 1-.1.05c-.03 0-.07 0-.1-.03l-.14-.11a.13.13 0 0 1-.05-.1c0-.03 0-.06.03-.1l.22-.27c.03-.04.03-.08-.01-.11l-.62-.5c-.05-.03-.09-.03-.12.02l-.74.92v.04l.96.89c.03.02.03.05 0 .08l-.55.46c-.03.03-.06.03-.08 0l-.18-.16c-.02-.02-.02-.04 0-.07a.95.95 0 0 1 .28-.3c.03-.03.03-.05 0-.07l-.6-.61c-.05-.04-.08-.04-.12 0l-.72.9c-.02.03-.02.05 0 .08l.75.88c.02.02.02.04 0 .06l-.55.46c-.05.04-.1.04-.13-.01l-.16-.2c-.03-.04-.03-.08 0-.11l.34-.28c.03-.02.03-.05 0-.08l-.52-.62c-.04-.04-.07-.04-.11-.01l-.9.7c-.03.02-.04.05-.01.09l.72 1.05c.01.02.01.04-.02.06l-.6.41c-.04.04-.08.03-.11-.03l-.14-.23c-.02-.04-.01-.07.03-.1l.35-.24c.03-.02.03-.04.02-.06l-.46-.67c-.03-.04-.06-.05-.1-.02l-1 .57c-.04.02-.05.06-.03.1l.64 1.1c.01.03 0 .05-.02.06l-.67.39c-.03.02-.06.01-.08-.03l-.13-.3c-.01-.02 0-.03.01-.05l.41-.23c.03-.02.04-.04.02-.08l-.4-.7c-.03-.04-.07-.05-.12-.03l-1.03.5c-.02 0-.03.03-.02.05l.52 1.2-.01.04-.72.3c-.03.02-.04.01-.06-.02l-.13-.31c-.01-.02 0-.04.01-.05l.45-.2c.03 0 .04-.02.03-.05l-.33-.77c-.02-.04-.05-.05-.1-.04l-1.08.4c-.02 0-.02.01-.02.03l.36 1.26c0 .03 0 .05-.04.06l-.7.2c-.04.01-.06 0-.07-.05l-.09-.29c0-.03 0-.05.04-.06l.44-.13c.03 0 .04-.02.03-.05l-.22-.8c-.02-.04-.04-.05-.08-.04l-1.14.24c-.05.01-.06.04-.05.08l.26 1.26c.01.03 0 .05-.03.06l-.74.12c-.04.01-.07 0-.08-.05l-.04-.27c-.01-.04 0-.07.05-.08l.43-.09c.03 0 .04-.02.03-.05l-.14-.85c-.01-.04-.03-.06-.08-.05l-1.16.2c-.02 0-.02 0-.02.02l.09 1.3c0 .02-.01.04-.04.04l-.73.05c-.05 0-.08-.02-.08-.07v-.26c0-.05.03-.08.08-.08l.41-.03c.04 0 .05-.02.05-.06l-.05-.81c0-.04-.03-.06-.06-.06h-1.2c-.03 0-.05.02-.05.05v1.26c0 .04-.02.06-.05.06h-.72c-.04 0-.06-.02-.06-.06v-.28c0-.04.02-.06.06-.06h.42c.03 0 .05-.02.05-.06v-.86c0-.03-.01-.05-.05-.05l-1.13-.08c-.03 0-.05.02-.05.05l-.18 1.28c0 .03-.02.04-.04.03l-.76-.1c-.04 0-.05-.03-.04-.06l.08-.32c0-.03.02-.04.05-.03l.42.06c.04 0 .07-.02.08-.06l.11-.84c0-.03 0-.04-.03-.05l-1.17-.21c-.04 0-.06 0-.07.04l-.3 1.27c0 .02-.02.02-.03.02l-.73-.18c-.04-.01-.05-.04-.05-.07l.07-.29c.01-.04.04-.05.08-.04l.41.1c.05 0 .09-.01.1-.06l.2-.8c0-.03-.01-.04-.03-.05l-1.1-.36c-.07-.02-.11 0-.13.07l-.39 1.17c-.01.05-.04.06-.09.04l-.7-.25a.06.06 0 0 1-.04-.05c0-.02 0-.04.02-.06a.4.4 0 0 0 .09-.21c0-.06.04-.08.1-.06l.4.13c.04.01.06 0 .08-.04l.29-.78c0-.03 0-.05-.03-.06l-1.06-.44c-.05-.02-.08 0-.1.04l-.56 1.13c-.01.03-.03.04-.06.02l-.68-.33c-.03-.01-.03-.03-.02-.06l.16-.28c.02-.03.04-.04.08-.02l.34.17c.07.03.11.01.15-.05l.34-.7c0-.03 0-.05-.02-.06l-1.02-.6c-.05-.02-.08 0-.11.04l-.63 1.08c-.01.03-.04.04-.07.02l-.66-.38c-.03-.02-.04-.05-.02-.08l.2-.26c.01-.03.03-.03.06-.01l.37.2c.05.03.08.02.11-.03l.4-.7v-.03l-.95-.69c-.05-.03-.08-.02-.12.02l-.7.97a.11.11 0 0 1-.08.05c-.03 0-.06 0-.09-.03l-.55-.44c-.02-.01-.02-.03 0-.06l.2-.25c.02-.03.05-.03.09 0l.32.25c.04.03.07.03.1-.01l.5-.62c.04-.05.03-.1-.02-.13l-.9-.72c-.02-.02-.04-.02-.06 0l-.84.91c-.05.05-.09.05-.13 0l-.42-.5c-.05-.06-.05-.1 0-.16l.12-.09c.05-.04.1-.04.16 0l.2.19c.05.05.1.05.15 0l.56-.56c.02-.02.02-.05 0-.07l-.85-.78c-.03-.03-.06-.03-.1 0l-.89.75c-.04.04-.07.03-.1 0l-.47-.56c-.03-.03-.03-.06 0-.08l.28-.19c.04-.02.07-.02.1.02l.2.28c.01.03.04.05.07.05a.1.1 0 0 0 .1-.03l.6-.51c.02-.02.02-.04 0-.06l-.7-.92c-.04-.03-.07-.04-.1-.01l-1.04.7c-.05.04-.09.03-.11-.02l-.37-.63c-.01-.02 0-.05.02-.06l.27-.16c.04-.02.07-.01.1.03l.19.33c.01.03.03.03.06.02l.72-.42c.03-.02.04-.04.02-.07l-.58-1c-.04-.07-.09-.09-.15-.05l-1.06.61c-.03.02-.06.01-.07-.02l-.37-.63c-.03-.05-.02-.1.04-.12l.24-.1c.06-.03.1-.01.13.04l.2.34c.02.04.05.05.1.02l.7-.4c.03-.02.03-.04.02-.07l-.53-1.06c-.02-.03-.04-.03-.07-.02l-1.12.48c-.05.03-.09.01-.1-.04l-.3-.65c-.01-.05 0-.09.06-.1l.26-.08c.05-.01.09 0 .1.05l.16.36c.02.05.06.06.1.04l.74-.32c.05-.02.07-.06.04-.12l-.46-1.06c0-.01-.01-.02-.02-.01l-1.23.34c-.02 0-.04 0-.04-.02l-.2-.72c-.02-.04 0-.06.03-.07l.32-.06c.03-.01.05 0 .06.04l.11.4c.02.04.04.06.09.04l.82-.27.02-.05-.02.05-.27-1.12c-.02-.08-.07-.1-.15-.1l-1.15.25c-.05.02-.08 0-.09-.06l-.12-.71c0-.03 0-.05.04-.06l.29-.05c.05 0 .08.01.1.07l.06.39c0 .05.04.07.08.06l.8-.14c.05 0 .07-.04.06-.09l-.2-1.14c0-.04-.02-.05-.05-.05l-1.26.09c-.03 0-.05-.01-.05-.04l-.05-.71c0-.05.02-.08.07-.08l.27-.02c.06 0 .1.02.1.08l.02.42c0 .03.02.05.05.05l.8-.06c.04 0 .07-.03.07-.07v-1.2c0-.04-.02-.06-.05-.06h-1.27c-.04 0-.06-.02-.06-.06v-.7c0-.05.02-.07.07-.07l.3.02c.04 0 .06.02.06.07v.42c0 .04.02.06.06.06h.78c.06 0 .1-.03.1-.1l.07-1.09c0-.04-.02-.07-.06-.07l-1.24-.18c-.04 0-.06-.03-.05-.07l.1-.7c0-.04.03-.06.07-.05l.29.04c.06 0 .08.04.07.1l-.05.39c-.01.05.01.07.06.08l.79.11c.04 0 .06 0 .06-.05l.2-1.14c0-.04-.01-.07-.06-.08l-1.15-.28c-.07-.02-.1-.06-.08-.12l.16-.67c.01-.04.04-.05.08-.04l.3.07c.04.01.06.03.05.08l-.11.43c0 .03 0 .05.04.06l.73.18c.06.02.1 0 .12-.06l.35-1.08c.02-.04 0-.07-.04-.09l-1.22-.4c-.03 0-.04-.03-.03-.06l.25-.67c.03-.07.07-.09.14-.06l.23.1c.05.01.06.05.05.1l-.15.38c-.01.04 0 .06.04.08l.75.27c.04.02.07 0 .08-.03l.44-1.06c.02-.04 0-.07-.04-.1l-1.17-.57c-.02 0-.02-.02-.01-.03l.38-.66c.02-.04.05-.05.1-.03l.24.14c.03.02.04.05.02.08l-.2.4c0 .03 0 .04.03.06l.77.37c.02.01.03 0 .04-.01l.58-1.1-1.13-.68c-.03-.01-.03-.04-.02-.07l.36-.62a.1.1 0 0 1 .07-.05.1.1 0 0 1 .08.02l.23.17c.04.03.05.07.02.11l-.23.32c-.04.05-.03.08.02.1l.7.42.06-.01.7-.98c.02-.02.02-.04 0-.05l-1.07-.77c-.03-.03-.03-.06 0-.09l.46-.58c.03-.04.06-.04.1 0l.23.17c.04.03.04.07.01.1l-.26.33c-.03.03-.02.07.01.1l.63.5c.03.02.07.02.1-.02l.77-.91v-.03l-.96-.88c-.03-.02-.03-.05 0-.07l.51-.52a.1.1 0 0 1 .09-.03.1.1 0 0 1 .07.05l.12.17c.03.05.03.1-.01.14l-.25.25c-.03.02-.03.05 0 .07l.55.56c.03.02.06.03.1.03a.1.1 0 0 0 .08-.04l.65-.82c.04-.05.04-.1 0-.16l-.72-.85v-.04l.6-.5c.04-.04.08-.04.1.01.05.09.11.16.18.23.04.03.04.06 0 .1l-.3.25c-.05.04-.05.08-.02.12l.47.6c.04.04.08.05.13 0l.9-.69c.01-.02.02-.04 0-.06l-.72-1.05c-.02-.04-.02-.06.02-.09l.63-.43c.02-.02.04-.01.06.02l.17.29c.02.03.01.06-.02.08l-.34.23c-.04.02-.04.05-.02.08l.46.67c.01.03.03.03.05.02l.98-.57c.06-.03.07-.07.04-.13l-.63-1.08c-.02-.04 0-.07.03-.08l.11-.04a.39.39 0 0 0 .12-.07c.13-.1.27-.17.43-.22.05-.02.09 0 .11.04l.13.22c.02.04.01.07-.03.1l-.37.2c-.04.03-.05.06-.03.1l.4.7c.01.02.03.02.05.02.39-.15.74-.31 1.05-.5.03-.02.04-.04.03-.08l-.51-1.17c-.01-.02 0-.03.01-.03l.71-.31c.05-.02.08-.01.1.03l.12.28c.01.04 0 .07-.03.08l-.41.18c-.04.02-.05.04-.04.08l.34.77c.02.04.05.06.1.04l1-.44c.03-.01.05-.04.03-.09l-.34-1.2c0-.02 0-.03.02-.03l.78-.22c.02-.01.04 0 .05.03l.07.33c0 .03 0 .05-.03.06l-.4.11c-.05.01-.07.04-.05.1l.22.77c0 .03.02.04.05.04l1.1-.24c.06-.01.09-.05.07-.11l-.25-1.19c-.01-.06.01-.1.07-.1l.72-.13c.05 0 .07.01.08.05l.05.26c.02.05 0 .08-.06.1l-.38.08c-.06 0-.09.05-.08.1l.13.78c.01.06.05.08.1.07l1.13-.2.02-.01-.09-1.3c0-.02.01-.04.04-.04l.77-.05Zm6.01 2.95a13.94 13.94 0 0 0-8.25-.64 14 14 0 0 0-6.08 2.95c-.14.1-.28.22-.44.37l-1 .98c-.64.7-1.25 1.54-1.81 2.5l-.06.1a14.26 14.26 0 0 0-1.39 10.7l.29.95a14.58 14.58 0 0 0 5.57 7.29 13.87 13.87 0 0 0 6.15 2.3 14.44 14.44 0 0 0 13.79-6.36l.28-.48c.58-.97 1.05-2 1.4-3.08l.03-.1c.7-2.37.79-4.76.29-7.16l-.03-.12a14.4 14.4 0 0 0-8.74-10.2ZM13.8 32l-.02.04.02-.04a.9.9 0 0 1 .02-.04l-.02.04Z" fill="url(#a)"/><path d="M25.42 11.2c2.4-.37 4.77-.23 7.12.42a16.85 16.85 0 0 1 10.23 7.96c.32.57.61 1.15.87 1.76l.06.14a16.89 16.89 0 0 1 .93 10.06 16.9 16.9 0 0 1-1.91 4.98l-.1.15-.07.13a16.92 16.92 0 0 1-7.05 6.46c-2.02.99-4.15 1.56-6.4 1.7a16.8 16.8 0 0 1-7.4-1.17 16.76 16.76 0 0 1-6.58-4.7 16.77 16.77 0 0 1-3.55-6.74l-.03-.12a16.93 16.93 0 0 1 .54-10.18l.07-.17a16.86 16.86 0 0 1 6.96-8.36 16.83 16.83 0 0 1 6.3-2.32Zm1.98.25-1.22.08c-.04 0-.06.02-.06.07l.1 1.29c0 .04-.02.07-.07.07l-.68.05c-.04 0-.07-.02-.07-.07l-.02-.26c0-.06.02-.09.08-.09l.36-.02c.03 0 .04-.02.04-.04l-.07-.88c0-.05-.02-.07-.07-.06l-1.26.22c-.04 0-.06.03-.05.07l.27 1.25c0 .05-.01.08-.06.09l-.66.13c-.06.02-.1 0-.11-.07l-.05-.24c-.01-.05 0-.08.06-.1l.36-.07c.04-.01.06-.03.05-.08l-.17-.77a.1.1 0 0 0-.05-.08.1.1 0 0 0-.08 0l-1.2.33v.02l.35 1.27c.01.03 0 .04-.02.05l-.6.26c-.06.03-.1.01-.14-.05l-.1-.24c-.02-.04 0-.07.03-.1l.4-.16c.05-.03.07-.06.04-.11l-.3-.72c-.04-.06-.08-.08-.15-.06l-1.11.49c-.02 0-.02.02-.01.03l.51 1.2c.01.01 0 .03-.02.04l-.59.34c-.05.03-.1.02-.12-.03l-.12-.2c-.04-.08-.03-.13.04-.17l.33-.2c.05-.02.06-.06.03-.11l-.4-.68c-.02-.06-.06-.07-.11-.04l-1.07.62c-.02 0-.02.02-.01.04l.65 1.13c.02.03.01.05-.02.07l-.6.35c-.04.02-.07.01-.1-.03l-.14-.21c-.04-.05-.03-.09.02-.12l.33-.23c.02-.01.03-.03.01-.05l-.4-.7c-.04-.06-.08-.07-.13-.03l-1.05.71v.03l.75 1.1-.01.04-.52.44c-.03.03-.05.03-.08.01a.67.67 0 0 1-.23-.26c-.02-.04-.02-.07.02-.1l.28-.24c.03-.02.03-.05.01-.08l-.45-.65c-.03-.06-.08-.06-.12-.02l-.99.83v.02l.83.98c.02.03.02.05 0 .07l-.45.48c-.04.05-.09.05-.14 0l-.24-.2a.08.08 0 0 1-.02-.07c0-.03.01-.05.03-.06l.35-.24c.04-.03.04-.05 0-.08l-.5-.47c-.07-.06-.13-.06-.19 0l-.92.76V17l1 .92c.02.02.02.04 0 .06l-.4.52c-.04.04-.08.05-.12.02l-.23-.17a.09.09 0 0 1-.04-.07c0-.02 0-.05.02-.07l.26-.28c.02-.02.02-.04 0-.06l-.6-.56c-.05-.04-.09-.03-.13.01l-.8 1c-.02.03-.02.06.01.08l1.03.74c.03.02.03.05.02.08l-.31.53a.13.13 0 0 1-.08.07.13.13 0 0 1-.1-.02l-.2-.12a.1.1 0 0 1-.04-.15l.2-.28c.04-.04.03-.07 0-.1l-.67-.48c-.05-.04-.1-.03-.12.02l-.65 1.12c-.01.02 0 .04.01.05l1.1.64c.05.02.06.05.03.09l-.33.58c-.02.04-.05.05-.1.03l-.28-.14c-.03-.02-.04-.04-.02-.08l.22-.38-.01-.04-.74-.42c-.04-.03-.07-.02-.1.03l-.56 1.16c-.01.02 0 .03.02.04l1.18.58c.03.01.03.03.02.05l-.25.61c-.02.05-.06.07-.1.05l-.29-.12c-.04-.01-.05-.04-.03-.08l.16-.38c.01-.04 0-.06-.03-.07l-.78-.32c-.03-.01-.05 0-.06.02l-.48 1.24v.04l.02.02 1.28.41c.03.01.04.03.03.06l-.2.63c-.03.06-.06.08-.12.06l-.24-.08c-.05-.02-.07-.05-.06-.1l.1-.39c0-.02 0-.03-.03-.04l-.8-.26c-.04-.01-.07 0-.08.05l-.31 1.27c0 .02 0 .04.03.04l1.28.32c.04 0 .05.03.04.06l-.15.62c-.02.07-.06.1-.12.08l-.23-.06c-.05-.01-.07-.04-.06-.09l.05-.39c0-.02 0-.03-.03-.04l-.78-.2c-.07 0-.11.02-.12.09l-.18 1.26c0 .04.01.06.05.06l1.27.18c.04 0 .06.03.05.07l-.04.55c0 .1-.05.14-.14.14h-.17c-.07 0-.11-.04-.11-.12v-.36c0-.05-.02-.08-.07-.08l-.84-.06c-.03 0-.04.01-.04.03v1.35c0 .04.02.05.06.05h1.22c.05 0 .08.03.08.07v.6c0 .07-.04.1-.11.12l-.17.03c-.04 0-.07 0-.1-.02a.11.11 0 0 1-.04-.09l-.03-.34c0-.05-.02-.07-.07-.07h-.83c-.03 0-.04.01-.04.04l.09 1.32c0 .02.02.04.04.04l1.28-.1c.04 0 .07.02.07.07l.11.61c0 .05-.01.07-.05.08l-.3.07c-.05 0-.08-.01-.09-.06l-.07-.4c0-.06-.04-.08-.1-.07l-.82.14c-.02 0-.02.01-.02.03l.22 1.3c.01.04.03.05.07.05l1.25-.27c.05-.01.08 0 .09.06l.13.63c.01.05 0 .08-.05.09l-.25.07a.1.1 0 0 1-.08-.01.1.1 0 0 1-.05-.07l-.08-.35c0-.04-.03-.05-.07-.05l-.8.18a.06.06 0 0 0-.06.05c0 .06 0 .12.04.19l.3 1.06c.01.05.04.06.1.05l1.23-.35c.05-.01.07 0 .09.05l.17.63c.01.02 0 .04-.02.05l-.27.12c-.04.02-.07 0-.09-.04l-.16-.38c0-.02-.02-.03-.04-.02l-.82.23c-.06.02-.08.05-.05.1l.52 1.2c.01.04.03.05.07.03l1.12-.48c.04-.02.08-.01.1.03l.32.54c.03.05.01.09-.03.12l-.23.13c-.06.03-.11.02-.14-.04l-.21-.36c-.03-.04-.05-.05-.1-.03l-.73.43c-.01 0-.02.02 0 .03l.6 1.13c.02.05.05.06.1.03l1.1-.63c.03-.02.06-.02.08.02l.33.57c.03.05.02.08-.02.1l-.2.15c-.06.04-.1.03-.14-.03l-.21-.3c-.02-.04-.06-.04-.1-.02l-.72.42c-.03.01-.03.04-.01.06l.73 1.08c.02.03.05.03.08.01l1.04-.7c.04-.04.08-.03.1.01l.39.49c.03.04.03.08-.01.12l-.19.15c-.06.05-.1.05-.16-.01l-.21-.28c-.04-.04-.07-.05-.11-.02l-.66.52c-.03.02-.03.05-.01.07l.83.98c.02.03.05.03.07.01l.95-.8c.03-.02.06-.02.09 0l.48.45c.04.04.04.07 0 .1l-.22.2c-.04.03-.08.03-.12-.02l-.25-.3c-.02-.02-.04-.02-.06 0l-.53.58c-.03.02-.03.05 0 .07l.8.95c.02.03.06.03.1 0l.83-.91c.05-.05.1-.05.15-.01l.47.37c.04.04.05.08.01.13l-.16.2c-.04.05-.08.05-.13.01l-.3-.24c-.05-.03-.08-.03-.11.01l-.53.66c-.01.02-.01.03.01.05l1.03.82c.02.02.05.02.07 0l.73-1.02c.05-.06.1-.07.16-.03l.5.36c.04.04.05.08.01.13l-.14.2c-.04.05-.08.05-.12.02l-.3-.22c-.04-.02-.06-.02-.09.01l-.51.71c-.03.04-.02.07.02.1l1.11.64c.05.03.08.02.1-.03l.61-1.04c.03-.06.08-.07.13-.04l.55.32c.04.02.05.04.03.08l-.12.24c-.02.04-.05.06-.1.03l-.32-.16c-.06-.02-.1 0-.13.04l-.41.72c-.02.03-.01.05.02.07l1.2.58.03-.01.57-1.18c.03-.05.06-.06.11-.04l.57.28c.03.02.04.04.03.08l-.08.22c-.02.05-.06.07-.1.05l-.37-.12c-.03 0-.05 0-.07.04l-.37.75c-.02.04 0 .07.04.09l1.24.46c.04 0 .06 0 .07-.04l.4-1.22c.01-.04.04-.05.07-.04l.62.2c.06.02.07.06.06.1l-.07.23c-.02.05-.05.06-.1.05l-.36-.09c-.04 0-.07.01-.08.05l-.26.8c-.02.05 0 .07.04.08l1.25.3c.04.02.07 0 .08-.05l.31-1.25c0-.03.02-.04.05-.04l.66.16c.04.01.06.04.04.08l-.05.25c-.01.04-.04.05-.08.05l-.4-.06c-.02 0-.03 0-.03.03l-.2.84c-.02.05 0 .08.05.09l1.31.18c.02 0 .03 0 .03-.02l.18-1.31c0-.03.02-.04.05-.04l.6.04c.08 0 .11.04.11.12v.18c0 .07-.03.1-.1.1h-.38c-.04 0-.07.03-.07.07l-.06.86c0 .03.01.04.04.04h1.33c.04 0 .06-.02.06-.06v-1.24c0-.04.02-.05.05-.05h.64c.05 0 .07.03.09.07v.23c0 .04-.02.06-.06.06l-.4.07c-.02 0-.04.02-.04.06v.85c0 .03.02.05.05.05l1.32-.1c.02 0 .03 0 .02-.02l-.09-1.32c0-.02.01-.04.04-.04l.65-.11c.04-.01.07 0 .08.05l.04.27c.01.05 0 .08-.06.1l-.4.06c-.05 0-.07.04-.06.08l.15.84c0 .03.02.04.05.04l1.29-.23c.02 0 .03-.01.03-.04l-.28-1.3c0-.03 0-.04.03-.05l.69-.15c.04 0 .07.01.08.06l.06.26c0 .04-.01.06-.05.07l-.4.12c-.03 0-.03.02-.03.03l.19.87c0 .04.02.05.06.04l1.24-.35c.04-.01.05-.03.04-.06l-.36-1.28c-.01-.03 0-.05.03-.06l.64-.18c.04 0 .06 0 .07.04l.1.24c.02.03.01.06-.02.07l-.4.18c-.02 0-.02.01-.02.02l.24.83c0 .03.02.05.05.06h.07l1.2-.52c.02-.01.02-.02.02-.04l-.5-1.16c-.02-.04-.01-.06.02-.08l.56-.33c.05-.02.08-.01.11.03l.14.25c.03.04.02.07-.02.1l-.4.22c-.03.02-.04.05-.02.1l.42.72c.02.04.05.05.09.03l1.11-.65c.02 0 .02-.02.01-.04l-.65-1.12c-.01-.03 0-.06.02-.07l.59-.34c.04-.02.07-.01.1.02l.14.23c.03.03.02.06-.01.08l-.34.23c-.03.03-.04.05-.02.08l.42.72c.02.05.06.05.1.03l1.08-.74v-.03l-.74-1.1c-.02-.02-.02-.04 0-.06l.5-.4c.06-.03.1-.03.15.02l.16.2c.03.04.03.08-.01.11l-.3.23c-.04.03-.05.07-.01.1l.5.66c.03.03.06.04.08.01l1-.84v-.04l-.76-.9c-.05-.06-.05-.11 0-.17l.36-.45a.1.1 0 0 1 .08-.04.1.1 0 0 1 .08.04l.2.24c.03.02.03.05 0 .07l-.35.27c-.04.03-.04.06 0 .1l.61.48c.02.02.04.02.05 0l.96-.81c.02-.02.02-.03 0-.05l-.96-.9c-.03-.02-.04-.05 0-.09l.38-.48c.04-.06.1-.06.15-.02l.21.17c.04.03.04.06.01.1l-.25.3c-.03.05-.03.09.01.12l.62.5c.04.02.07.02.1-.02l.77-.96c.04-.05.03-.1-.01-.13l-1.03-.74c-.03-.02-.03-.05 0-.08l.37-.52c.03-.04.07-.05.12-.03l.22.13c.05.03.06.07.02.12l-.21.3c-.03.04-.03.08.01.1.28.24.52.39.73.45l.04.01.7-1.1c0-.03 0-.05-.03-.07l-1.1-.64c-.05-.03-.06-.06-.03-.11l.32-.56c.03-.05.07-.06.12-.03l.24.14c.04.02.04.05.03.09l-.21.35c-.02.03-.01.05.02.06l.74.43c.04.02.07.01.09-.03l.57-1.18c.01-.02 0-.03-.01-.04L41.8 34c-.04-.02-.05-.05-.03-.09l.27-.56c.02-.04.06-.06.1-.04l.26.1c.05.01.07.05.04.1l-.16.33c-.02.03-.01.06.02.07l.75.37c.05.02.09 0 .1-.05l.46-1.22c.01-.04 0-.06-.04-.08l-1.22-.4c-.04 0-.05-.03-.04-.07l.21-.64c.01-.03.04-.05.07-.04l.28.07c.04.01.06.04.05.08l-.1.41c0 .03 0 .04.02.05l.81.26c.04.02.07 0 .08-.04l.31-1.28c0-.03 0-.04-.03-.05l-1.28-.3c-.03-.02-.04-.04-.04-.07l.16-.65c.01-.04.04-.05.07-.05l.31.08c.04 0 .05.03.04.07l-.09.37c0 .03 0 .04.03.05l.79.2a.1.1 0 0 0 .09-.02.1.1 0 0 0 .04-.08l.18-1.26c0-.03 0-.04-.03-.04l-1.26-.18c-.05 0-.08-.04-.07-.09l.04-.57c0-.05.03-.07.07-.07h.27c.05 0 .08.03.08.08v.4c0 .03.02.04.05.05l.81.05c.06 0 .09-.02.09-.08v-1.3c0-.03-.02-.04-.06-.04h-1.25c-.03 0-.05-.02-.05-.06v-.64c0-.06.03-.09.09-.09h.22c.06 0 .1.03.1.1l.02.31c0 .05.03.07.08.07h.8c.04 0 .06-.02.06-.06l-.09-1.24c0-.05-.03-.08-.08-.08l-1.25.1c-.03 0-.04-.02-.05-.05l-.1-.63c-.01-.05 0-.08.06-.09l.32-.05c.03 0 .04 0 .04.03l.08.4c0 .07.04.1.1.08l.8-.14c.03 0 .03 0 .03-.03l-.22-1.3c-.01-.03-.03-.05-.07-.04l-1.23.26c-.06.01-.09-.01-.1-.06l-.13-.62c-.01-.05.01-.09.07-.1l.25-.05c.06-.02.1 0 .1.06l.08.36c0 .03.03.05.06.04l.84-.18c.03 0 .04-.03.04-.06l-.36-1.24c0-.05-.03-.06-.08-.05l-1.24.35c-.04.01-.06 0-.07-.03l-.18-.63c0-.04 0-.06.04-.08l.24-.1c.05-.02.08-.01.1.03l.14.34c.02.05.06.07.1.05l.78-.22c.04 0 .05-.03.04-.06l-.52-1.28-1.17.52c-.05.02-.09 0-.11-.04l-.3-.53c-.05-.06-.03-.11.03-.15l.24-.14c.04-.02.08-.01.1.03l.23.4c.02.02.04.03.07.01l.72-.41c.04-.03.05-.06.02-.1l-.61-1.07c-.02-.04-.05-.05-.09-.02l-1.1.63c-.03.02-.05.01-.07-.01l-.33-.59c-.04-.06-.03-.1.04-.14l.21-.13c.05-.02.09-.01.12.04l.16.28c.04.06.08.07.13.04l.71-.41c.04-.02.04-.05.02-.08l-.72-1.05c-.02-.04-.05-.04-.1-.02l-1.07.74c-.02.01-.04.01-.05-.01l-.37-.54c-.03-.05-.03-.1.02-.13l.16-.14a.11.11 0 0 1 .1-.03c.03 0 .06.03.08.06l.16.23c.03.05.07.06.12.03l.62-.43a.12.12 0 0 0 .05-.08c0-.04 0-.07-.02-.1l-.78-.92c-.03-.03-.06-.03-.1 0l-.92.77c-.04.04-.07.04-.11 0l-.48-.44c-.04-.04-.04-.07 0-.1l.26-.23c.04-.03.08-.03.11.02l.2.3c.03.03.06.03.08 0l.47-.5c.06-.06.06-.13 0-.19l-.73-.87c-.03-.03-.06-.04-.09 0l-.88.95c-.03.03-.06.04-.1 0l-.5-.46c-.03-.03-.03-.06 0-.09l.18-.2c.05-.05.1-.05.15 0l.25.22c.02.03.05.02.08 0l.54-.6c.04-.04.04-.09-.01-.13l-.96-.77c-.04-.03-.08-.02-.11.02l-.74 1.01c-.03.05-.07.05-.11.02l-.52-.38c-.05-.03-.06-.07-.03-.12l.12-.21c.03-.05.07-.06.12-.03l.35.2c.02.02.04.01.06 0l.5-.7c.03-.04.02-.07-.02-.09l-1.1-.64c-.03-.02-.06-.01-.07.02l-.63 1.08c-.02.04-.06.05-.11.03l-.57-.33c-.05-.03-.06-.07-.04-.13l.1-.21c.04-.06.08-.08.14-.04l.31.18c.04.02.08.01.1-.03l.4-.7c.04-.05.02-.1-.04-.13l-1.12-.53c-.04-.02-.07 0-.08.04v.02l-.01.05-.5 1.08c-.03.04-.07.06-.11.03l-.62-.3c-.03-.01-.04-.04-.03-.07l.1-.24c.03-.07.07-.08.13-.05l.25.12c.07.03.12.02.15-.05l.35-.72c.02-.04.01-.07-.03-.09L33 12.25c-.06-.02-.1 0-.12.06l-.39 1.18c0 .02-.02.03-.04.02l-.68-.16c-.06-.02-.09-.05-.07-.11l.1-.3c.01-.03.04-.04.08-.03l.38.12c.02.01.03 0 .04-.02l.28-.85c0-.03 0-.05-.03-.05l-1.23-.3c-.04-.01-.07 0-.08.05l-.3 1.23c0 .05-.04.07-.09.06l-.66-.17c-.04 0-.05-.03-.04-.07l.07-.28c0-.05.03-.06.07-.05l.36.09c.03 0 .05 0 .06-.04l.2-.85c.01-.04 0-.07-.04-.07l-1.25-.18c-.04 0-.07.01-.08.06l-.17 1.26c-.01.05-.04.07-.08.06l-.63-.09c-.06 0-.08-.04-.07-.1l.03-.2c0-.07.04-.1.1-.09l.3.04c.04 0 .07-.01.08-.06l.11-.85c.01-.06-.01-.09-.07-.09h-1.3c-.03 0-.05.02-.05.05v1.26c0 .03-.01.05-.05.05h-.7c-.06 0-.1-.03-.08-.1l.03-.25c0-.03.03-.05.06-.05h.33c.05 0 .07-.02.07-.07v-.86c0-.04-.02-.06-.05-.05Z" fill="url(#b)"/><path d="M28.32 32.56c-.05.01-.07.05-.07.12v5.63c-.04.13-.1.11-.18-.03a16744.9 16744.9 0 0 1-.02-5.57c0-.12.05-.2.15-.21.06-.02.1 0 .12.06Z" fill="#0F5143"/><path d="M28.32 32.56c.06 0 .08.05.08.12a3286.37 3286.37 0 0 0-.02 5.6c-.02.01-.06.03-.13.03v-5.63c0-.07.02-.1.07-.12Z" fill="#C0E2D9"/><path d="M26.72 33.51c-.02.02-.03.04-.03.07v4.65l.03.06c0 .07-.03.1-.11.05a.2.2 0 0 1-.12-.19V33.7c0-.12.04-.2.13-.25h.08c.02.01.03.04.02.07ZM24.55 39.31l.02-3.75a.18.18 0 0 0-.09-.16 9.18 9.18 0 0 1-2.02-1.92.4.4 0 0 1 .25.04l.06.05a7.62 7.62 0 0 0 1.88 1.8c.07.06.11.13.11.23v3.64c0 .03-.01.04-.04.04l-.17.03Z" fill="#0F5143"/><path d="m26.72 38.29-.03-.06v-4.65c0-.03.01-.05.03-.07.08 0 .12.02.12.08v4.66c0 .05-.04.06-.12.04Z" fill="#C0E2D9"/><path d="M22.46 33.48a9.18 9.18 0 0 0 2.03 1.92c.05.04.08.1.08.16l-.02 3.75a10.77 10.77 0 0 1-5.18-3.6l3.1-2.23Z" fill="#27A486"/><path d="M34.5 33.67c-.02.05-.01.1.01.18-.09.02-.16 0-.22-.05a.08.08 0 0 1-.03-.07c0-.03.02-.05.04-.07a.28.28 0 0 1 .18-.05c.02 0 .02.01.02.03v.03ZM34.73 35.89c.08-.33.11-.68.1-1.04 0-.25.02-.4.05-.45.07-.13.18-.24.31-.34a.06.06 0 0 0 .03-.06c0-.03-.01-.04-.03-.05-.03 0-.03-.04-.02-.08.09 0 .17.01.25.05.02.01.04.03.04.06s-.01.05-.03.07c-.13.08-.22.16-.27.23a.6.6 0 0 0-.12.33l-.01.95c0 .2-.1.3-.3.33Z" fill="#0F5143"/><defs><linearGradient id="a" x1="16.86" y1="13.57" x2="39.44" y2="39.9" gradientUnits="userSpaceOnUse"><stop stop-color="#137A61"/><stop offset="1" stop-color="#0D7159"/></linearGradient><linearGradient id="b" x1="16.86" y1="13.57" x2="39.44" y2="39.9" gradientUnits="userSpaceOnUse"><stop stop-color="#137A61"/><stop offset="1" stop-color="#0D7159"/></linearGradient></defs></svg>