<svg width="224" height="224" viewBox="0 0 56 56" xmlns="http://www.w3.org/2000/svg"><rect fill="url(#a)" width="56" height="56" rx="28"/><path d="M32 11.58a34.25 34.25 0 0 0-4.37 3.74c.18.4.3.84.35 1.3A26.32 26.32 0 0 1 39.3 27.06a4.02 4.02 0 0 1 2.04.17 22.2 22.2 0 0 0 3-4.23l.67 3.47c-.56.78-1.15 1.52-1.74 2.21a3.98 3.98 0 0 1-.9 5.54c.31 1.1.52 2.12.64 3.02L40.71 40c-.2-1.8-.51-3.46-.92-5a3.98 3.98 0 0 1-2.55-1.1 27.04 27.04 0 0 1-13.36 4.07 4 4 0 0 1-1.8 2.45A22.5 22.5 0 0 0 24.36 45l-3.47-1.2c-.46-.96-.86-1.9-1.2-2.81A4 4 0 0 1 16 37.3c-1.44-.3-2.7-.7-3.76-1.11L11 32.97c1.96.82 3.84 1.43 5.65 1.85.35-.55.84-1 1.4-1.32a25.32 25.32 0 0 1 3.09-13.7A3.99 3.99 0 0 1 20 16.7c-1.86-.31-3.58-.4-5.01-.33L17.8 14c1.1.08 2.15.22 3.16.4a4 4 0 0 1 4.82-.98c.93-.97 1.85-1.79 2.69-2.42l3.54.58Zm-4.62 7.56a4 4 0 0 1-4.01 1.8c-2.3 4.13-3 8.3-2.8 12.1a4 4 0 0 1 3.16 2.52c4.92-.14 9.05-1.7 12.34-3.82a4.02 4.02 0 0 1 1-3.46 23.11 23.11 0 0 0-9.69-9.14Z" fill="#fff"/><defs><linearGradient id="a" x1="28" y1="0" x2="28" y2="56" gradientUnits="userSpaceOnUse"><stop stop-color="#FF6512"/><stop offset="1" stop-color="#FFA013"/></linearGradient></defs></svg>