<svg width="224" height="224" viewBox="0 0 56 56" xmlns="http://www.w3.org/2000/svg"><path fill-rule="evenodd" d="M27.78 44c8.67 0 15.7-7.16 15.7-16v-.24c-.29-.94-.54-1.54-.59-.91-.1 1.45-.59 3.2-.78 2.2-.2-1-.79-3.9-1.62-3.05-.35.36-.5.95-.65 1.52-.2.79-.39 1.53-1.07 1.53-.94 0-1.18-.97-1.18-1.45l4.95-5.08c-.5-1.4-1.2-2.7-2.03-3.9-2.16.84-5.4 2.08-6.74 2.58-1.57.58-1.8 2.38-1.94 3.47-.04.32-.07.57-.13.73-.24.7-2.2.05-3.04-.4-.4-.22-.87-.18-1.34-.13-.49.04-.98.09-1.4-.17-.45-.27-.18-.78.13-1.37.27-.5.57-1.07.45-1.58-.15-.7.32-.73.8-.77.26-.01.53-.03.67-.18.4-.4-.63-1.5-1.22-1.3-.6.2.2-1 .83-1.8.36-.45.73.16 1.09.76.28.47.56.93.83.84.58-.2.24-1.35 0-1.6-.25-.25.88-1.2 2.45-1.55.97-.22 2.08.09 3.3.42.74.2 1.52.42 2.34.53.73.1 1.44.26 2.07.44a15.5 15.5 0 0 0-22.63-1.2c1.7-.77 3.33-1.4 3.98-1.34.69.07 2.13-.2 3.42-.42 1.46-.27 2.72-.5 2.51-.18l-.11.18c-.35.55-.73 1.15-2.2 1.92-.6.32-1.03.74-1.4 1.1-.64.62-1.1 1.07-1.93.6-.7-.4-.24-1.08.13-1.63.33-.5.6-.9-.13-.87-1.52.05-2.4.45-2.3.8.02.11.19.22.36.34.37.25.77.52-.07.86-.64.26-2.35.4-3.9.46a16.06 16.06 0 0 0-2.32 4.22c.66-.03 1.23.2 1.31.97.2 1.85.05 3.65-.34 3.15l-.26-.37c-.35-.5-.73-1.06-.92-.43-.14.44 0 .87.14 1.34.12.38.25.79.25 1.26 0 .44.07.84.12 1.13.07.4.1.61-.12.47a8.94 8.94 0 0 1-1.18-2.08V28c0 5.32 2.55 10.03 6.47 12.94-2-2.95-4.57-7.62-2.83-8.79 2.45-1.65 4.36-.2 4.51 1.8.05.71.19 1.3.3 1.78.19.87.3 1.36-.3 1.52l-.06.02c-.37.1-.53.14-.64.24-.08.08-.14.2-.23.4l-.3.59c-.36.68-.16 1.92.08 2.82 2.5 1.7 5.49 2.68 8.7 2.68Zm2.2-4.5c.82.23 2.6.63 3.15.35.37-.19.55-.55.74-.92.17-.32.34-.65.63-.88.41-.32.82-.79 1.22-1.24.22-.25.44-.5.65-.71.28-.29.24-.7.21-1.07-.03-.38-.06-.7.33-.73.73-.05 1.37.35.68 1.2-.68.85-1.37 1.75-.68 1.75.68 0 1.96-1.5 1.86-2.95-.08-1.16-3.6-1.75-5.35-1.9L30 39.5Z" fill="#261901"/><path d="M26.35 22.32c-.2-1.05-7.24-5.1-10.74-6.99l.44 1.62-3.24-1.82.69 1.16L8 13c0 1.9 1.24 3.9 1.86 4.66L8 17.31c.24.93 2.26 3.19 3.24 4.2h-.59a10.02 10.02 0 0 0 2.85 2.8h-.7c.36.72 2.32 2.05 3.25 2.63l-.64.3c.4.24 2.26.99 3.09 1.26-.7-.05-2.5 0-3.87 0-1.35 0-1.77.82-1.82 1.22a83 83 0 0 0 0 3.75c.04 1.3 1.23 1.53 1.82 1.53h5.4l.24.5-1.57.96 3.14.61.49.71h1.13c.35 1.5 1.85 3.2 2.55 3.85l.2-.5c.08.77 1.37 1.57 2 1.87.56-.16 1.51-1.18 1.92-1.67l.25.3c.94-.73 1.93-2.87 2.3-3.85h1.33l.44-.7 3.24-.62-1.91-.96.24-.5c1.47-.02 4.65-.04 5.55 0 1.13.05 1.91-.61 2.01-1.73.08-.9-.52-1.49-.83-1.67.58-.04.8-1.03.83-1.52.04-1.5-1.22-1.63-1.9-1.58H37.5c1.8-.36 3.17-1.04 3.68-1.26l-.74-.3c1.26-.37 2.45-1.91 2.9-2.64l-.45-.25c1.46-.9 2.64-2.23 3.05-2.79h-.74c1.02-.73 2.29-3.07 2.8-4.16l-1.38.41c1.18-1.3 1.41-3.51 1.38-4.46l-5.45 3.14.78-1.16-3.28 1.67.39-1.37c-3.47 2.01-10.44 6.2-10.6 6.84-.16.65.42 1.52.73 1.88A7.96 7.96 0 0 0 28 23.5c-.95 0-1.8.34-2.19.55.15-.26.74-.67.54-1.73Z" fill="#261901"/><path fill-rule="evenodd" d="M26.3 23.3c.09-.24.13-.56.05-.98-.18-1-6.49-4.66-10.13-6.66l-.61-.33.44 1.62-3.24-1.82.69 1.16L8 13c0 .2.01.4.04.6a8.67 8.67 0 0 0 1.82 4.06L8 17.31c.04.15.13.34.25.55a21.74 21.74 0 0 0 2.99 3.65h-.59a4.36 4.36 0 0 0 .33.5 12.05 12.05 0 0 0 2.51 2.29h-.68a3.22 3.22 0 0 0 .38.5 15.73 15.73 0 0 0 2.86 2.14l-.64.3.57.28a31.12 31.12 0 0 0 2.52.98c-.32-.02-.87-.03-1.5-.02h-.88l-1.5.02c-1.34 0-1.76.82-1.81 1.22a83 83 0 0 0 0 3.75c.04 1.3 1.23 1.53 1.82 1.53h5.4l.24.5-1.57.96 3.14.61.49.71h1.13c.3 1.26 1.4 2.66 2.16 3.47a11.05 11.05 0 0 0 .4.38l.19-.5c0 .07.03.15.06.23.05.13.13.26.23.39A5.46 5.46 0 0 0 28.22 43c.43-.13 1.1-.78 1.58-1.3.13-.13.24-.27.33-.37l.25.3.06-.05a3 3 0 0 0 .3-.3c.82-.9 1.62-2.65 1.95-3.5H34l.44-.7 3.24-.62-1.91-.96.24-.5c1.47-.02 4.65-.04 5.55 0 1.13.05 1.91-.61 2.01-1.73.05-.55-.16-.99-.4-1.28a1.73 1.73 0 0 0-.43-.4c.19 0 .34-.12.45-.28.25-.34.36-.9.38-1.23.04-1.5-1.22-1.63-1.9-1.58H37.5a14.14 14.14 0 0 0 3.45-1.16l.23-.1-.74-.3c.21-.07.43-.16.63-.28a7.12 7.12 0 0 0 2.26-2.36l-.44-.25.47-.31a12.57 12.57 0 0 0 2.58-2.48h-.74a2.78 2.78 0 0 0 .54-.5A15.95 15.95 0 0 0 48 17.1l-1.38.41a4 4 0 0 0 .49-.66 7.51 7.51 0 0 0 .89-3.8l-5.45 3.14.78-1.16-3.28 1.67.39-1.37-.63.36c-3.61 2.12-9.82 5.87-9.97 6.48-.09.37.06.81.26 1.19.16.28.34.53.47.69A8.85 8.85 0 0 0 28 23.5a4.67 4.67 0 0 0-2.19.55l.13-.17c.11-.14.26-.32.36-.58Zm13.32-6.9c-1.64.95-3.68 2.17-5.46 3.29-1.1.68-2.08 1.32-2.8 1.83a12.5 12.5 0 0 0-1.04.83c-.02.15.03.38.16.65.14.3.34.57.47.72l-.56.8A7.48 7.48 0 0 0 28 24c-.84 0-1.6.3-1.96.5l-1.52.78.86-1.48c.11-.2.29-.35.4-.55.08-.17.16-.41.09-.81-.02-.03-.1-.14-.24-.29-.2-.19-.48-.42-.85-.7-.72-.54-1.72-1.2-2.82-1.88-1.82-1.13-3.9-2.32-5.56-3.24l.45 1.65-3.11-1.75.26.77-.76-.28-4.64-2.78a9.09 9.09 0 0 0 1.65 3.4l.87 1.07-2.2-.42c.22.33.5.7.8 1.07.65.8 1.4 1.6 1.88 2.1l.82.85h-.8a11.76 11.76 0 0 0 2.15 1.87l1.4.92h-1.25a23.43 23.43 0 0 0 2.39 1.7l.78.5-.5.23a32.8 32.8 0 0 0 2.06.8L20 29h-1.54c-.44-.03-1.34-.02-2.3-.01l-1.53.01c-.57 0-.88.17-1.06.33a.82.82 0 0 0-.26.43 82.4 82.4 0 0 0 0 3.7c.01.46.22.7.45.83.27.16.62.21.87.21h5.7l.59 1.19-.86.53 2.07.4.46.66h1.26l.1.39A6.2 6.2 0 0 0 25 39.73c.36.5.75.94 1.06 1.26l.63.08c.01.07.05.18.16.33.11.14.27.3.46.45a6 6 0 0 0 .91.6l.17-.12c.15-.1.32-.25.49-.4.34-.33.67-.69.86-.92l.39-.47.28.35c.3-.33.6-.8.89-1.33.4-.73.73-1.49.9-1.96l.13-.32h1.4l.4-.66 2-.38-1.03-.52.6-1.22h.3c1.47-.02 4.66-.04 5.58 0 .46.02.8-.1 1.05-.3.23-.21.4-.53.44-.97a1.33 1.33 0 0 0-.6-1.2l-1.36-.82 1.6-.11.04-.04c.05-.04.1-.12.15-.25.1-.24.16-.55.17-.76 0-.3-.05-.49-.12-.62a.71.71 0 0 0-.3-.28 1.83 1.83 0 0 0-.95-.15H36l1.4-.99c1-.2 1.85-.5 2.5-.76l-.97-.4 1.37-.4c.5-.14 1.04-.54 1.54-1.05.3-.31.57-.65.78-.93l-.7-.4.71-.45c.9-.54 1.68-1.27 2.23-1.86h-1.22l1.27-.9c.42-.3.95-1 1.46-1.81.24-.38.46-.77.66-1.14l-1.98.58 1.2-1.32c.51-.56.84-1.34 1.03-2.14.09-.38.15-.76.18-1.1l-4.66 2.7-.8.37.32-.9-3.07 1.57.37-1.28Z" fill="#C59407"/><path d="m11 16.7 3.87 2.05-1.42-.45.2.65c-1.85-.48-2.54-1.7-2.66-2.25ZM15.16 20.7 11 19.6c.51.96 2.31 1.43 3.14 1.55l-.49-.6 1.52.15ZM17.18 23.45 13.45 23c.5.76 2.04.92 2.75.9l-.45-.4 1.43-.05ZM18.1 25.35l-2.35.15c.36.48 1.62.5 2.21.45l-.39-.3.54-.3ZM20.07 27.2l.1-.35-1.32.35c.39.12.98.05 1.22 0ZM21.1 28.6l1.33-1-.2.35.2.15c-.28.24-1 .43-1.33.5ZM24.93 22.5l-5.74-3.3 4.51 3.5h-2.16l2.26.8c-.3.23-.84.78-.68 1.1.15.32.98 1.03 1.37 1.35l-.59-1.25 1.23-1.7-.2-.5ZM28.46 26.6c-.86-.8-.45-1.47-.14-1.7-.9 0-1.46 1.07-1.62 1.6v-.85c-.08.12-.75.08-1.08.05.16.36.4.58.49.65l-.79.5h.7c-.32.84-.07 1.72.09 2.05.12-.44.34-.52.44-.5.04.52.25.92.34 1.05v-1.9c-.2-.3.05-.55.3-.35.2.16.37.07.44 0l-.54-.6.83.4.54-.4Z" fill="#A06A04"/><path d="M27.24 28.05c0 .24.36.5.54.6-.08-.12-.25-.39-.25-.55 0-.2.4.2.6.65.15.36.35.95.43 1.2l.69-1.2-.5.4V27c-.27.18-.88.56-1.12.6-.3.05-.4.15-.4.45ZM30.13 26.75l-.68.25c.05.03.18.1.34.1.16 0 .3-.23.34-.35ZM33.27 24.6c0 .32-1.01.97-1.52 1.25l.69-1.15-1.28-1.7.25-.5 5.5-3.3-4.47 3.5h2.3l-2.3.8c.28.23.83.78.83 1.1ZM40.49 25.35h-2.4l.68.3-.24.2c1.3.12 1.84-.28 1.96-.5ZM42.8 23l-3.69.45h1.57l-.39.45c1.65-.12 2.36-.65 2.5-.9ZM45.3 19.6l-4.17 1.1 1.57-.05-.45.5a4.52 4.52 0 0 0 3.05-1.55ZM45.3 16.7l-3.83 2.05 1.52-.45-.4.7c1.85-.48 2.58-1.73 2.7-2.3Z" fill="#A06A04"/><path d="M35 35H22l1.42 1h10.4L35 35Z" fill="url(#assuvtmyv)"/><path d="M35 31H21v2h14v-2Z" fill="url(#bssuvtmyv)"/><defs><linearGradient id="assuvtmyv" x1="28.5" y1="35" x2="28.5" y2="36" gradientUnits="userSpaceOnUse"><stop stop-color="#A66F04"/><stop offset=".52" stop-color="#E2AD08"/><stop offset="1" stop-color="#AA7205"/></linearGradient><linearGradient id="bssuvtmyv" x1="28" y1="31" x2="28" y2="33" gradientUnits="userSpaceOnUse"><stop stop-color="#A66F04"/><stop offset=".52" stop-color="#E2AD08"/><stop offset="1" stop-color="#AA7205"/></linearGradient></defs></svg>