<svg width="112" height="112" viewBox="0 0 56 56" xmlns="http://www.w3.org/2000/svg"><path d="m34.27 11.93.35.17c.01.07 0 .12-.02.14a.2.2 0 0 1-.2.03 16.42 16.42 0 0 0-7.85-.86 10 10 0 0 0-3.01.8l-3.62 1.72c-.07.1-.17.15-.3.14-.1-.06-.15-.12-.15-.2l.72-.38a39.47 39.47 0 0 1 3.26-1.59c1.1-.44 2.2-.71 3.28-.81 2.75-.25 5.26.03 7.54.84Z" fill="#D9D9D9"/><path d="m34.62 12.1 1.4.84a.75.75 0 0 0-.29 0 .15.15 0 0 0-.1.12c-.02.06 0 .1.04.15 1.56 1.47 1.76 3.05.6 4.74-.06.08-.04.13.06.15.1.03.17 0 .21-.05l.1.07a1.68 1.68 0 0 0-.7.04c-.28.09-.42.24-.42.46a.56.56 0 0 1-.04-.48c.03-.09 0-.16-.07-.2a.19.19 0 0 0-.24 0c-.1.08-.18.14-.26.18-.09.05-.16.03-.22-.06l-.3-.52c-.05-.1-.14-.13-.25-.1l-.08.01c-.1.03-.13.08-.08.18.22.34.36.62.42.81.09.31.07.59-.07.83-.15.27-.46.38-.93.33-.4-.05-.72-.16-.98-.34a15.25 15.25 0 0 0-2.8-1.62 5.63 5.63 0 0 0-3.15-.36c-1.25.23-2 .88-2.25 1.96-.15.63-.13 1.45.04 2.48 0 .03.02.06.05.09l.08.07c.04.05.06.1.06.16 0 .28.12.56.35.84.65.78 1.51 1.18 2.57 1.2.36 0 .87 0 1.55-.02 1.1-.03 1.94-.02 2.5.02.44.04.88.04 1.3 0 .3-.03.53-.01.69.05.17.07.23.19.15.36l-1 2.45c-.31.78-.13 1.41.56 1.91.55.4 1.11.4 1.67-.03.08.31-.13.63-.64.95a.57.57 0 0 0-.11-.3.2.2 0 0 0-.23-.08 1 1 0 0 1-.32 0c-.05 0-.1.02-.12.06a.11.11 0 0 0 0 .13c.02.04.06.08.12.12a.4.4 0 0 1-.12.01.97.97 0 0 0-1.06-.25l-.03-.25c-.02-.1-.07-.13-.17-.11l-.28.07.04-.33c.08-.52.04-.88-.12-1.08a.21.21 0 0 0-.25-.07c-.1.03-.16.1-.15.21 0 .52-.12 1-.37 1.45a.4.4 0 0 0-.06.25c.03.24.16.34.4.29-.16.21-.23.48-.2.8l-.2-.03c.2-.3.14-.5-.21-.58a.38.38 0 0 0-.24.02c-.41.16-.56.4-.44.71l-.26.47c-.1.07-.18.08-.24.03a.07.07 0 0 1-.03-.06l.1-1a3.36 3.36 0 0 0 1.27-2.97.45.45 0 0 0-.07-.22 2.14 2.14 0 0 1-.21-.4c-.05-.12-.01-.21.11-.28l.5-.02.8.5a.1.1 0 0 0 .07 0c.08-.01.1-.05.1-.1l.15-.06a.3.3 0 0 0 .18-.15c.17-.33.22-.68.15-1.05-.13-.59-.9-.87-2.31-.82-1.14.03-2.17.04-3.09.04-1.48 0-2.48-.36-2.99-1.08a4.9 4.9 0 0 1-.82-2.26c-.1-.82-.07-1.63.1-2.42.34-1.5 1.3-2.34 2.86-2.53a6.56 6.56 0 0 1 3.98.96c.7.45 1.6 1.03 2.7 1.76.27.17.55.19.84.04l.06-.03c.1-.05.14-.13.15-.23 0-.1-.04-.2-.12-.27l-1.94-1.6a4.27 4.27 0 0 1-.7-3.64c.21-.42.15-.64-.17-.64.18-.16.27-.26.26-.3-.02-.11-.1-.18-.21-.19-.12 0-.2.05-.24.16L30.47 14l-.66.74a.52.52 0 0 1-.1.09l-.89.58-1.65-.14c-.4-.21-.64-.48-.72-.81-.05-.2-.05-.55.02-1.02l.03-.27c.29-.47.65-.9 1.08-1.26.02-.02.03-.04.01-.07l-.04-.08c-.02-.03-.05-.03-.08-.02a3.76 3.76 0 0 0-1.96 3.05c-.37.62-.98.84-1.82.67l-.68-1.3c-.06-.55.12-1.2.53-1.95a10 10 0 0 1 3.01-.8c2.97-.31 5.58-.03 7.84.86a.2.2 0 0 0 .2-.03c.04-.02.04-.07.03-.14Z" fill="#A9A9A9"/><path d="M26.5 13.17a2 2 0 0 0-.32 1.85c.05.15 0 .27-.16.33s-.28.02-.36-.13a1.64 1.64 0 0 1-.15-.43 3.76 3.76 0 0 1 1.96-3.05c.03-.01.06 0 .08.02l.04.08c.02.03.01.05-.01.07-.43.37-.8.79-1.08 1.26Z" fill="#343535"/><path d="M27.37 13.55c.3-.82.92-1.34 1.87-1.56.32-.08.55.04.68.34.03.06.03.22.01.5 0 .12-.07.28-.19.49-.08.13-.12.23-.14.3-.05.19-.2.4-.45.64-.6.58-1.19.7-1.74.34a.44.44 0 0 1-.17-.18c-.15-.32-.11-.6.12-.86Z" fill="#EEE"/><path d="M23.54 12.2c-.41.76-.59 1.4-.53 1.96-.12-.01-.3-.09-.56-.23-.33-.19-.7-.2-1.14-.02l-1.4.02 3.63-1.72Z" fill="#5A5A5A"/><path d="M24.85 14.93c0 .04-.03.05-.07.04l-.03-.01a1.18 1.18 0 0 1-.72-.65 1.28 1.28 0 0 1-.05-.99l.04-.09c.11-.34.33-.6.64-.76.32-.16.64-.18.97-.08l.03.01c.04.02.05.04.04.08l-.85 2.45Z" fill="#EEE"/><path d="M31.2 12.78c-.06.4-.16.8-.3 1.16-.15.43-.12 1.1.11 2.02.12.46.38.87.8 1.23l.79.87c.02.02.02.04.01.07a.07.07 0 0 1-.07.05h-.27l-.02-.01-.41-.45c-.48-.54-.9-.93-1.26-1.16a5.23 5.23 0 0 0-5.47-.31c-.1.08-.16.03-.18-.13l.02-.07 2.22-.78 1.65.14 1.81.78c.05.02.08.01.11-.03s.03-.08-.01-.11a.61.61 0 0 1-.18-.4 15.9 15.9 0 0 1-.08-1.65l.54-1.55c.04-.11.12-.16.24-.16.12.01.19.08.21.2.01.03-.08.13-.26.29Z" fill="#343535"/><path d="M35.89 14.03c-.78-1.34-2.08-2.04-2.92-1.57-.84.47-.89 1.93-.12 3.27.78 1.34 2.09 2.04 2.92 1.57.84-.47.9-1.94.12-3.27Z" fill="#EEE"/><path d="M32.07 17.06a.9.9 0 0 0-.26.13 2.39 2.39 0 0 1-.8-1.23c-.23-.92-.26-1.6-.1-2.02.13-.36.23-.75.29-1.16.32 0 .38.22.18.64a4.27 4.27 0 0 0 .7 3.64Z" fill="#D9D9D9"/><path d="M36.01 12.94c.16.08.3.2.43.33a.2.2 0 0 0-.12-.02c-.07 0-.09.04-.04.1l.65.81.5 2.16c-.19.62-.49 1.2-.89 1.73-.04.06-.11.08-.21.05-.1-.02-.12-.07-.06-.15 1.16-1.69.96-3.27-.6-4.74a.14.14 0 0 1-.04-.15c0-.06.04-.1.1-.12a.74.74 0 0 1 .28 0Z" fill="#C52596"/><path d="m26.5 13.17-.03.27c-.07.47-.07.81-.02 1.02.08.33.32.6.72.8l-2.22.8c-.34.04-.68.19-1.03.42a.1.1 0 0 1-.1.01.1.1 0 0 1-.07-.09l-.06-.94c.84.17 1.45-.05 1.82-.67.04.16.09.3.15.43.08.15.2.2.36.13.15-.06.2-.18.16-.33a2 2 0 0 1 .32-1.85Z" fill="#5A5A5A"/><path d="m36.44 13.27 1.08.93a.23.23 0 0 1-.2.05l-.4-.09-.64-.81c-.05-.06-.03-.1.04-.1a.2.2 0 0 1 .12.02Z" fill="#A9A9A9"/><path d="m23 14.16.69 1.3.06.94c0 .04.02.07.06.1a.1.1 0 0 0 .11-.02 2.5 2.5 0 0 1 1.03-.43l-.02.07a4.18 4.18 0 0 0-1.9 1.93c-.05.1-.1.1-.16.02l-.09-.13.41-.9.02-.04c.15-.62.14-1.2-.03-1.73-.27-.85-.9-1.3-1.87-1.36.44-.17.81-.17 1.14.02.25.14.44.22.56.23ZM19.47 13.87c0 .08.05.14.15.2l-.76.56a9.5 9.5 0 0 0-3.82 6.54.79.79 0 0 1-.21.45 6.1 6.1 0 0 0-.8.94c-.2.32-.3.66-.27 1.02.01.28.16.6.44.94.27.32.54.53.8.6.98.3 1.64.52 1.99.64A11.57 11.57 0 0 1 18.95 27c.42.46.9.85 1.45 1.18.18.1.38.17.59.18.77.06 1.5.03 2.2-.1.38-.07.98-.27 1.82-.58 1.28-.18 2.58-.2 3.9-.07.13.02.26.13.4.34a13.8 13.8 0 0 0-5.18.34c-1.04.28-1.8.43-2.31.45-.87.03-1.58-.2-2.14-.7a18.67 18.67 0 0 0-1.7-1.36 6.31 6.31 0 0 0-1.89-.85 5.35 5.35 0 0 1-2.31-1.14c-.44-.47-.6-.94-.49-1.42a4 4 0 0 1 .73-1.26c.2-.26.34-.46.43-.6.07-.1.11-.2.14-.32.3-1.26.51-2.04.63-2.32a9.93 9.93 0 0 1 4.25-4.9Z" fill="#44B7AB"/><path d="M21.3 13.9c.98.06 1.6.52 1.88 1.37a3.16 3.16 0 0 1 .01 1.77l-.4.9c-.24.4-.38.8-.43 1.22a8.48 8.48 0 0 0 1.07 5.27c.03.06.05.13.06.2l.03.46-.45.58c-.27.15-.57.22-.88.2a5.22 5.22 0 0 1-1.1-.23l-2.42-.46-1.33-.75a.65.65 0 0 1-.19-.15l-.74-.86c-.3-.47-.5-.97-.6-1.48.13-.16.23-.2.31-.11.09.08.16.07.23-.03.68-1.04 1.55-1.24 2.59-.62.57 1.54 1.3 2.54 2.16 3 .55.38.92.74 1.12 1.08.07.13.19.2.34.23.15.02.28-.02.4-.12.3-.27.37-.59.19-.94l-.77-1.54a.97.97 0 0 1-.1-.26c-.2-1.3-.3-2.06-.3-2.3a7.4 7.4 0 0 1 .75-3.23.75.75 0 0 0 .07-.2c.19-.97.1-1.68-.29-2.15-.4-.5-1.1-.66-2.1-.47a.78.78 0 0 0-.23.09c-.5.29-.94.37-1.32.26l.76-.56c.13 0 .23-.04.3-.14l1.39-.02Z" fill="#343535"/><path d="M30.47 14c0 .56.03 1.11.08 1.65.02.17.08.3.18.4.04.03.04.07.01.1-.03.05-.06.06-.11.04l-1.81-.78.88-.58a.52.52 0 0 0 .11-.1l.66-.73ZM21.1 24.18c.5.08.82 0 .95-.26a2.35 2.35 0 0 0 .04-1.34c-.34-.88-.55-1.53-.63-1.94a2.76 2.76 0 0 1 .28-2c.33-.7.55-1.23.67-1.6.2-.63.25-1.13.13-1.5-.23-.77-.76-1.05-1.56-.85-.65.16-1.25.53-1.8 1.1a.83.83 0 0 0-.15.19 5.2 5.2 0 0 0-.44 3.79l.35 1.41c-1.04-.62-1.9-.42-2.59.62-.07.1-.14.11-.23.03-.08-.09-.18-.05-.31.1a.37.37 0 0 0-.25-.13c-.1-.01-.15.03-.14.13l.03.44c-1.1.37-1.35.99-.78 1.85.4.6.92.99 1.55 1.17.78.22 1.63.48 2.56.76.1.03.17 0 .23-.1.05-.08.03-.16-.04-.23a.98.98 0 0 1-.3-.64l2.42.46c-.55.18-.99.4-1.3.65-.36.27-.38.6-.09.96.24.3.53.5.89.63a4.3 4.3 0 0 0 3.1-.04l1.32-.17c-.84.31-1.44.5-1.82.58-.7.13-1.43.16-2.2.1-.21-.01-.4-.07-.59-.18a6.46 6.46 0 0 1-1.45-1.18 11.58 11.58 0 0 0-1.96-1.23l-1.98-.63a1.8 1.8 0 0 1-.8-.61 1.68 1.68 0 0 1-.45-.94c-.02-.36.07-.7.27-1.02a6.08 6.08 0 0 1 .8-.94c.12-.13.2-.28.21-.45a9.5 9.5 0 0 1 3.82-6.54c.38.11.82.03 1.32-.26a.78.78 0 0 1 .23-.09c1-.2 1.7-.04 2.1.47.38.47.48 1.18.29 2.15a.75.75 0 0 1-.07.2 7.4 7.4 0 0 0-.75 3.24c0 .23.1 1 .3 2.29.03.09.05.18.1.26l.77 1.54c.18.35.11.67-.19.93v.01a.45.45 0 0 1-.4.12.45.45 0 0 1-.34-.23c-.2-.34-.57-.7-1.12-1.08ZM36.93 14.16l.4.1c.2.17.24.28.13.34.31.57.4 1.17.26 1.79-.07.02-.17 0-.28-.07l-.51-2.16Z" fill="#5A5A5A"/><path d="M39.24 16.13a2.9 2.9 0 0 0-1.78-1.53c.1-.06.06-.17-.14-.35.08.02.14 0 .2-.05a5.9 5.9 0 0 1 2.3 1.78c.05.07.03.12-.05.15a.77.77 0 0 1-.53 0Z" fill="#C52596"/><path d="m39.24 16.13-1.52.26c.14-.62.05-1.22-.26-1.8.85.3 1.44.81 1.78 1.54ZM21.1 24.18c-.87-.46-1.59-1.46-2.16-3l-.35-1.41a5.2 5.2 0 0 1 .44-3.8.83.83 0 0 1 .14-.19 3.89 3.89 0 0 1 1.8-1.09c.81-.2 1.34.08 1.57.86.12.36.07.86-.13 1.5a14.92 14.92 0 0 1-.8 1.9 2.75 2.75 0 0 0-.15 1.69c.08.41.29 1.06.63 1.94a.84.84 0 0 1 .06.32c.02.52-.01.86-.1 1.02-.13.26-.45.34-.95.26Z" fill="#A9A9A9"/><path d="M31.8 17.2a.9.9 0 0 1 .27-.14l1.94 1.6c.08.07.12.16.12.27 0 .1-.06.18-.15.23l-.06.03a.78.78 0 0 1-.84-.04c-1.1-.73-2-1.31-2.7-1.75a6.55 6.55 0 0 0-3.98-.97c-1.57.19-2.52 1.03-2.85 2.53-.18.79-.22 1.6-.11 2.42.12.9.39 1.65.82 2.26.51.72 1.51 1.08 3 1.08.9 0 1.94-.01 3.08-.04 1.42-.05 2.18.23 2.3.82.08.37.03.72-.14 1.05a.3.3 0 0 1-.18.15l-.16.06a4.35 4.35 0 0 0-2.31-1.43c-.54-.12-1.4-.17-2.56-.13-.56.02-.98.02-1.27.02-.45 0-.9-.12-1.37-.33a4.85 4.85 0 0 1-1.21-2.13c-.62-2.09-.6-3.7.06-4.85a4.9 4.9 0 0 1 1.61-1.66 5.23 5.23 0 0 1 5.47.3c.36.24.78.63 1.26 1.17a24.11 24.11 0 0 0 .43.46h.27c.03 0 .06-.02.07-.05.01-.03.01-.05-.01-.07l-.8-.87Z" fill="#EEE"/><path d="M24.93 16.12c.02.16.08.2.18.13a4.9 4.9 0 0 0-1.61 1.66c-.66 1.15-.68 2.76-.06 4.85.26.88.67 1.6 1.21 2.13-.13.06-.15.15-.06.25a2.8 2.8 0 0 1-.76-.62.14.14 0 0 0-.17-.05c-.06.02-.1.06-.1.13l-.04.49-.03-.46a.45.45 0 0 0-.06-.2 8.48 8.48 0 0 1-1.07-5.27c.05-.41.19-.82.42-1.22l.1.13c.05.08.1.07.15-.02a4.18 4.18 0 0 1 1.9-1.93Z" fill="#2D8176"/><path d="m40.28 16.67.06.22c.03.1 0 .15-.11.13a3.2 3.2 0 0 0-2.02.3 8.4 8.4 0 0 0-1.8 1.42.33.33 0 0 1-.27.09 1.33 1.33 0 0 1-.62-.2c0-.23.14-.38.42-.47.22-.06.45-.08.7-.04.49-.27.79-.68.9-1.22a.22.22 0 0 1 .14-.16c.43-.18.86-.29 1.3-.32.54-.04.97.05 1.3.25Z" fill="#EEE"/><path d="M40.39 16.73c.9.98 1.14 2.09.73 3.34a5.85 5.85 0 0 0 .46 2.85c-.04.52-.39.9-1.05 1.14-.77.27-1.17.64-1.2 1.11a2.31 2.31 0 0 1-1-.29.43.43 0 0 1-.17-.18l-.37-.78c.33.05.64.09.94.11 1.1.09 1.77-.35 2.02-1.32a.2.2 0 0 0 .01-.08l-.07-1.51a.8.8 0 0 0-.36-3.33c-.47-.2-.95-.15-1.45.14-.66.39-1.33.76-2 1.12-.4.2-.8.2-1.23-.04a.61.61 0 0 1-.13-.39c.19.12.4.19.62.2.1.02.19-.01.26-.08l.24-.21a8.4 8.4 0 0 1 1.57-1.22 3.2 3.2 0 0 1 2.02-.29c.1.02.14-.03.11-.13l-.06-.22c.08.03.12.05.1.06Z" fill="#A9A9A9"/><path d="M41.85 22.26c0 .2-.08.42-.27.66a5.85 5.85 0 0 1-.46-2.85c.4-1.25.16-2.36-.73-3.34.48.16.84.54 1.1 1.14.22.54.3 1.06.22 1.57-.1.7-.2 1.41-.32 2.12-.06.34.1.57.46.7Z" fill="#C52596"/><path d="M34.33 19.27c.25.24.14.42-.31.54h-.03l-.75.06a.1.1 0 0 0-.09.06.1.1 0 0 0 .01.12c.15.2.23.43.25.67l.08.33c.22.8.3 1.37.27 1.72-.07.59-.41 1.02-1.04 1.31-.42.04-.86.04-1.3 0-.56-.04-1.4-.05-2.5-.02-.68.01-1.2.02-1.55.01a3.25 3.25 0 0 1-2.57-1.2c-.72-.86-.8-2.68-.58-3.63.25-1.08 1-1.73 2.25-1.96a5.63 5.63 0 0 1 3.15.36c.72.29 1.65.83 2.8 1.62.26.18.58.3.98.34.47.05.78-.06.93-.33Z" fill="#040808"/><path d="M35.52 18.62c0 .15.04.28.13.39-.09-.02-.15 0-.18.06v.04l.3.52c.02.03.03.06.03.1v1.6c-.2-.52-.29-1.05-.26-1.57a.32.32 0 0 0-.18-.32.33.33 0 0 0-.36.02c-.27.18-.49.38-.65.61a.3.3 0 0 0-.06.23l.26 1.46-.3-.85a.17.17 0 0 0-.16-.13l-.68-.06c-.02-.24-.1-.47-.25-.67a.1.1 0 0 1 0-.12.1.1 0 0 1 .09-.06l.74-.05h.03c.45-.13.56-.31.3-.55.15-.24.17-.52.08-.82a3.8 3.8 0 0 0-.42-.82c-.05-.1-.03-.15.08-.18l.08-.02c.11-.02.2.02.25.11l.3.52c.06.09.13.1.22.06.08-.04.17-.1.26-.17a.19.19 0 0 1 .24-.02c.07.05.1.12.07.2a.56.56 0 0 0 .04.5Z" fill="#5A5A5A"/><path d="m37.79 23.92-.23.05a2.3 2.3 0 0 0-.63-1.11l-.67-.86-.46-.66v-1.62c0-.03 0-.06-.02-.09l-.3-.52c-.02-.02-.02-.03-.01-.04.03-.06.1-.08.18-.06.42.24.83.25 1.23.04.67-.36 1.34-.73 2-1.12.5-.3.98-.34 1.46-.14.34.14.52.4.53.77a17.15 17.15 0 0 1-.18 2.56l.07 1.51a.2.2 0 0 1 0 .08c-.26.97-.94 1.41-2.03 1.32-.3-.02-.61-.06-.94-.11Z" fill="#040808"/><path d="m35.8 21.34.46.66c-.89-.17-1.5.34-1.84 1.54l.13-1.78-.26-1.46a.3.3 0 0 1 .06-.23c.16-.23.38-.43.65-.61a.33.33 0 0 1 .36-.02c.13.07.19.18.18.32-.03.52.06 1.04.26 1.58Z" fill="#A9A9A9"/><path d="m34.55 21.76-.13 1.78c-.39 1.1-.8 2.11-1.26 3.03-.25.5-.34.98-.28 1.44.01.08.04.15.1.22.5.73 1.22.71 2.17-.06.08.04.12.08.12.14l-.48.5c-.56.44-1.12.45-1.67.04-.69-.5-.87-1.13-.56-1.91l1-2.45c.08-.17.02-.3-.15-.36a1.54 1.54 0 0 0-.7-.05c.64-.29.98-.72 1.05-1.3.04-.36-.05-.93-.27-1.73l-.08-.33.68.06c.08.01.13.05.16.13l.3.85Z" fill="#343535"/><path d="m42.12 24.93-1.39 1.41a.62.62 0 0 0-.14.22c-.2.56-.3 1.12-.3 1.68.01.1-.04.2-.14.3a.34.34 0 0 0-.1.13c-.02.08.02.13.1.15.63.15.94.49.93 1.02 0 .24-.07.43-.2.56-.05.04-.1.05-.16.02-.05-.03-.08-.07-.06-.14.03-.18-.04-.4-.2-.63.1-.01.16-.05.2-.1.03-.07.03-.12-.02-.17-.2-.2-.43-.34-.68-.44-.1-.04-.15-.11-.14-.22l.16-2.43 1.36-1.02c.3-.2.54-.44.71-.72.07-.1.04-.17-.06-.22l-.04-.02c-.1-.05-.12-.11-.05-.2.61-.88.8-1.71.57-2.5a.9.9 0 0 0-.57-.37c-.07-.02-.1-.06-.08-.12l.02-.07c0-.03.02-.04.05-.04.66.08 1.02.36 1.08.84.12 1-.16 2.03-.85 3.08Z" fill="#C52596"/><path d="M18.92 22.4c-.22-.08-.41-.07-.58.05-.25.18-.33.42-.22.7.25.71.78 1.33 1.58 1.86a3.82 3.82 0 0 1-2.58-1.15c-.37-.4-.57-.8-.6-1.24-.02-.47.17-.87.58-1.2.44-.36.83-.41 1.2-.17.3.22.52.6.62 1.15Z" fill="#A9A9A9"/><path d="M42.25 21.78c.05.49.05.8-.01.97a3.46 3.46 0 0 1-2.91 2.42c.03-.47.43-.84 1.2-1.11.66-.24 1.01-.62 1.05-1.14.19-.24.28-.46.27-.66.1-.15.08-.3-.05-.47a.12.12 0 0 1-.01-.14.13.13 0 0 1 .12-.07c.12 0 .24.07.34.2Z" fill="#EEE"/><path d="M41.34 25.27c.07-.23-.11-.22-.54.04-.05-.21-.25-.23-.62-.06-.34.16-.56.23-.67.23-.28 0-.54-.06-.79-.15a.13.13 0 0 0-.13.03.12.12 0 0 0-.05.12l.2.89c.01.06-.01.11-.07.14-.06.03-.12.02-.16-.03l-.1-.1-.85-2.41.23-.05.37.78c.04.08.1.14.17.18.29.17.62.26 1 .3 1.41-.2 2.38-1.02 2.9-2.43.07-.16.07-.48.02-.97.08-.03.16-.1.22-.18.23.8.04 1.63-.57 2.5-.07.1-.05.16.05.2l.04.03c.1.05.13.12.06.22-.17.28-.41.52-.71.72Z" fill="#440934"/><path d="M15.8 21.94c.12.51.32 1 .61 1.48.02.08.03.13.02.14a.22.22 0 0 1-.19.1c-.08 0-.13-.04-.17-.1l-.62-1.2-.03-.43c0-.1.04-.14.14-.13.09 0 .17.05.25.14Z" fill="#D9D9D9"/><path d="m36.26 22 .67.86c.06.33.05.5-.02.52-.26-.13-.48-.12-.64.04a.18.18 0 0 0-.05.13V27c0 .18.09.25.27.22.37-.05.64.03.81.26.21.27.44.36.69.27l.09.24-.37.19c-.18-.26-.34-.4-.49-.4l-.38-.03a4.45 4.45 0 0 0-.94-.01c-.34.05-.59.19-.75.42-.95.77-1.67.8-2.18.06a.51.51 0 0 1-.09-.22c-.06-.46.03-.94.28-1.44.45-.92.87-1.93 1.26-3.03.34-1.2.95-1.71 1.84-1.54ZM18.92 22.4c.42.9.78 1.44 1.06 1.63.56.39 1.18.76 1.88 1.14.09.04.11.11.08.2-.03.09-.1.12-.2.1L19.7 25a3.82 3.82 0 0 1-1.58-1.85c-.1-.3-.03-.53.22-.71.17-.12.36-.13.58-.05Z" fill="#EEE"/><path d="m15.45 22.37.62 1.19c.04.06.1.1.17.1.08 0 .14-.04.19-.1l-.02-.14.74.86c.05.06.12.1.19.15l1.33.74c.03.29.13.5.3.65.07.07.09.15.04.24-.06.09-.13.12-.23.09-.93-.28-1.78-.54-2.56-.76a2.74 2.74 0 0 1-1.55-1.17c-.57-.86-.31-1.48.78-1.85Z" fill="#A9A9A9"/><path d="m37.56 23.97.86 2.4c.2.7.08 1.25-.35 1.63l-.08-.24c.22-.34.25-.74.09-1.19-.51-1.44-.9-2.5-1.17-3.19.07-.02.08-.2.02-.52.34.34.55.71.63 1.11Z" fill="#C52596"/><path d="M35.6 27.21c-.08.05-.28.12-.62.24-.13.04-.3.15-.5.32-.17.15-.3.25-.41.3-.24.1-.43.04-.56-.15a.58.58 0 0 1-.06-.6 21.5 21.5 0 0 0 1-2.82c.09-.36.23-.63.42-.82.23-.24.5-.3.8-.2.11.03.17.1.17.22l-.01 3.08c0 .19-.08.33-.24.43Z" fill="#040808"/><path d="M16.86 24.55c.02.02.02.04 0 .06 0 .02-.02.03-.05.02a2.6 2.6 0 0 1-1.26-.84c-.09-.1-.07-.18.06-.23l.09-.03c.06-.02.12 0 .17.04l1 .98Z" fill="#D9D9D9"/><path d="M24.59 25.14c.97.28 2.27.36 3.9.24.8-.06 1.64.16 2.53.66a.4.4 0 0 1 .15.15c.04.07.06.13.04.17l-.5.02c.03 0 .05-.05.04-.11a.11.11 0 0 0-.05-.08c-.66-.49-1.8-.63-3.43-.44-1.18.14-2.22 0-3.1-.4a.47.47 0 0 0-.31-.03c-.2.05-.29.15-.24.3a.67.67 0 0 1-.55.05l.45-.58.04-.5c0-.06.04-.1.1-.12.07-.02.12 0 .17.05.13.18.39.39.76.62Z" fill="#44B7AB"/><path d="M32.16 26.76c.02.05-.01.09-.09.1a.1.1 0 0 1-.07 0l-.8-.5c.03-.04.01-.1-.03-.17a.4.4 0 0 0-.15-.15 4.49 4.49 0 0 0-2.53-.66c-1.63.12-2.93.04-3.9-.24-.1-.1-.07-.19.06-.25.47.21.92.32 1.37.33.29 0 .71 0 1.27-.02 1.16-.04 2.02 0 2.56.13.88.2 1.66.68 2.31 1.43Z" fill="#040808"/><path d="m40.8 25.31-1.91 1.3a.15.15 0 0 1-.13.02c-.12-.04-.2.02-.23.17-.07.3-.02.5.13.6.05.02.16-.05.34-.22-.15.59-.16 1.14-.02 1.67a.5.5 0 0 1-.32-.09c-.08-.05-.13-.03-.15.07l-.03.17a1.07 1.07 0 0 0-.07-.04c.03-.23 0-.4-.12-.5-.1-.1-.27-.13-.48-.07l-.1-.2.36-.2c.43-.37.55-.92.35-1.62l.09.11c.04.05.1.06.16.03s.08-.08.07-.14l-.2-.89c0-.05 0-.09.05-.12a.13.13 0 0 1 .13-.03c.25.1.51.14.8.15.1 0 .32-.07.66-.23.37-.17.57-.15.62.06Z" fill="#5A5A5A"/><path d="M30.7 26.38c-.12.07-.16.16-.11.28.05.13.12.27.2.4.05.07.08.14.08.22a3.36 3.36 0 0 1-1.27 2.97c-.14 0-.21-.06-.22-.17-.23-.21-.54-.3-.93-.24-.45.05-.72.31-.8.79 0 .07-.05.11-.13.11-.07 0-.12-.03-.13-.1l-.04-.18c-.01-.03-.03-.04-.06-.04s-.04.01-.05.04a.83.83 0 0 0-.01.22c0-.54-.2-.94-.58-1.19-.14-.07-.32-.05-.55.05-.4.19-.52.48-.37.87.02.04 0 .07-.03.09-.03.02-.06.02-.1-.01a.53.53 0 0 0-.33-.17c-.23-.18-.33-.46-.3-.86l.2.1c.08.04.13.02.14-.07.03-.15 0-.27-.1-.35.11-.15.16-.3.14-.47l.07-.05c.1-.08.1-.16-.02-.23l-.06-.03c-.05-.03-.07-.08-.05-.14.02-.06.05-.09.12-.09l1.2-.01c.03 0 .05.02.05.06l.02.09c.01.04.04.06.08.06a.41.41 0 0 0 .3-.18.11.11 0 0 1 .1-.04l1.34.04-1.08.04c-.04 0-.06.02-.07.05-.02.04-.01.07.02.1.05.05.13.09.25.12.09.02.14.08.15.17.02.09-.01.15-.1.2-.04.01-.1 0-.2-.03-.38-.4-.74-.45-1.06-.12a.48.48 0 0 1-.29.15c-.22.03-.39.18-.5.45-.02.04 0 .07.02.1.04.02.07.02.1 0 .52-.43.98-.4 1.4.08.12 0 .23.02.3.06.1.05.12.12.05.21a.61.61 0 0 1-.2.19c-.02 0-.04.03-.04.05 0 .03.02.05.05.06.12.03.19.05.21.04.08 0 .15-.06.21-.17l.2-.31.25-.27c.12.18.21.26.26.22.35-.01.7.07 1.02.25.07.04.13.05.19.02.06-.03.1-.09.13-.16.65-.77.83-1.6.54-2.51-.3-.98-1.16-1.4-2.56-1.25-.66.06-1.35.09-2.08.07a1.4 1.4 0 0 1-.38-.06 6.97 6.97 0 0 0-1.67-.28c-.05-.15.03-.25.24-.3.1-.03.2-.02.3.03.9.4 1.93.54 3.11.4 1.63-.2 2.77-.05 3.43.44l.05.08c0 .06 0 .1-.05.11Z" fill="#343535"/><path d="M14.54 25.58c.3.57.72 1.08 1.24 1.51.06.05.1.04.12-.04.1-.31.14-.63.12-.95l.45.07a5.7 5.7 0 0 0 .07 3.17l.26 1.54c0 .04-.01.07-.05.08-.04 0-.06 0-.08-.04a6.52 6.52 0 0 1-.36-.9 5.57 5.57 0 0 0-.33-.87c-.1-.2-.16-.44-.16-.73l.06-.22c.07-.21.08-.48.02-.8a2 2 0 0 1-.89-.48c-.38-.42-.67-.9-.89-1.43a.06.06 0 0 1 .01-.07c.02-.02.05-.03.07-.02.16.06.27.11.34.18Z" fill="#2D8176"/><path d="M16.02 26.1c.02.32-.02.64-.12.95-.02.08-.06.09-.12.04a5.16 5.16 0 0 1-1.24-1.51l1.48.52Z" fill="#5A5A5A"/><path d="M29.77 29.65c.15-.55.19-1 .12-1.34-.07-.24-.2-.35-.42-.33l-.17-.04c-.13-.21-.26-.32-.38-.34a16.62 16.62 0 0 0-3.91.07l-1.33.17a4.3 4.3 0 0 1-3.1.03 1.93 1.93 0 0 1-.88-.62c-.3-.37-.27-.69.08-.96.32-.25.76-.47 1.3-.66l.17.05c.43.12.74.18.94.2.31 0 .6-.06.88-.21.2.06.37.04.54-.05.58.02 1.14.12 1.68.28.12.04.25.06.38.06.73.02 1.42 0 2.08-.07 1.4-.15 2.25.27 2.56 1.25.3.9.11 1.74-.54 2.51Z" fill="#A9A9A9"/><path d="M21.81 32.84a4.2 4.2 0 0 1-.4-3.24c-.07.09-.04.08.1-.03a.08.08 0 0 0 .03-.08.07.07 0 0 0-.06-.06l-1.27-.31a.31.31 0 0 1-.09-.04l-1.79-1.04a.17.17 0 0 0-.17 0 .16.16 0 0 0-.1.15L18 31.16a.9.9 0 0 1-.05.24c-.16.5-.2 1.01-.11 1.54l.03.24a.18.18 0 0 1-.1.19.83.83 0 0 1-.52.1c-.03-.97.05-2.04.26-3.22.15-.86.03-1.65-.36-2.38.06-.15.03-.27-.08-.37-.09-.1-.19-.1-.3-.04-.11.06-.16.15-.13.27.11.52.08 1.06-.1 1.6a5.7 5.7 0 0 1-.06-3.16c.6.18 1.46.73 2.56 1.64l.34.27c.65.54 1.35.83 2.1.88.1 0 .18.05.25.13.06.07.08.16.06.26a9.91 9.91 0 0 0 .03 3.49Z" fill="#5A5A5A"/><path d="M26.6 26.76c-.9.44-1.88.74-2.93.9-1.32.21-2.27.1-2.84-.36a.44.44 0 0 1-.17-.38.44.44 0 0 1 .22-.37c.31-.2.71-.27 1.19-.23 1.33.12 2.42.17 3.27.14.28-.02.69.04 1.24.16.04 0 .06.03.06.07 0 .03 0 .06-.04.07ZM39.98 26.3l-.16 2.42c-.01.1.04.18.14.22.25.1.47.24.68.44.05.05.05.1.02.16-.04.06-.1.1-.2.1l-.59-.13a.35.35 0 0 1-.19-.12c-.2-.23-.42-.41-.7-.54a3.24 3.24 0 0 1 .02-1.67c.15-.34.48-.63.98-.89Z" fill="#EEE"/><path d="M15.9 27.4c.06.32.05.59-.02.8l-.06.22c0 .29.05.53.16.73.1.2.21.49.33.86.13.39.25.7.36.91.02.04.04.05.08.04.04-.02.05-.04.05-.08l-.26-1.54c.17-.55.2-1.09.09-1.6-.03-.13.02-.22.13-.28.11-.06.21-.05.3.04.11.1.14.22.08.37-.08.73-.1 1.42-.05 2.08.02.31-.06.92-.25 1.83-.1.5-.1 1.16.02 1.98-.06-.07-.16-.12-.33-.17l-.05-.01a6.6 6.6 0 0 0-.96-4.3c-.2-.4-.3-.96-.28-1.66 0-.07.03-.12.09-.15a.17.17 0 0 1 .17 0c.26.13.4.1.4-.08Z" fill="#343535"/><path d="M31.83 29.17c-.1.28-.27.52-.5.72-.25.05-.38-.05-.4-.3-.01-.08 0-.16.05-.24.25-.44.37-.93.37-1.45 0-.1.04-.18.15-.21.1-.04.18-.01.25.07.16.2.2.56.12 1.08l-.04.33Z" fill="#EEE"/><path d="m37.7 28.19.1.2c-.13.04-.18.1-.13.2.17.34.41.46.74.37l.07.04c.2.07.34.16.43.26-.44-.08-.8.17-1.06.76a1.7 1.7 0 0 0-.41-.75l-.89-1.38a.2.2 0 0 0-.22-.1l-.1.03c-.1.02-.11.07-.06.15l.5.8c-.12.28-.09.54.09.76.1.13.31.3.63.5.13.15.19.28.17.37a.1.1 0 0 1-.08.09c-.05 0-.08 0-.11-.04-.17-.23-.35-.36-.54-.4-.12-.02-.3-.01-.57.03a2.9 2.9 0 0 1-.59.07.55.55 0 0 1-.01-.2c.2.07.32 0 .37-.19.16-.65.04-1.1-.36-1.36.04-.2-.1-.24-.4-.09 0-.06-.04-.1-.12-.14.16-.23.41-.37.75-.42.2-.03.51-.03.94.01l.38.03c.15 0 .3.14.49.4Z" fill="#A9A9A9"/><path d="M37.44 29.27c-.07.03-.15.02-.26 0a1.8 1.8 0 0 0-.51-.5l-.5-.8c-.05-.08-.03-.13.06-.15l.1-.02a.2.2 0 0 1 .22.09l.89 1.38Z" fill="#343535"/><path d="m17.24 33.47.42.87c-.12.11-.23.17-.34.17-.1 0-.2-.08-.26-.24a8.17 8.17 0 0 0-.2-.5 6.2 6.2 0 0 1-.02-2c.19-.9.27-1.5.25-1.82-.05-.66-.03-1.35.05-2.08.4.73.51 1.52.36 2.38-.2 1.18-.3 2.25-.26 3.22Z" fill="#44B7AB"/><path d="M21.41 29.6c-.04.06-.06.05-.06-.01 0-.09-.05-.12-.13-.1a1.87 1.87 0 0 1-1.46-.35.33.33 0 0 0-.3-.06.32.32 0 0 0-.23.22 5.5 5.5 0 0 0 .08 4.15c-.1.02-.22.1-.37.25l-.58.26a.86.86 0 0 0-.24-.44.32.32 0 0 1-.1-.2.6.6 0 0 0-.2-.38 3.2 3.2 0 0 1 .12-1.54.89.89 0 0 0 .05-.24l.07-2.97c0-.07.04-.12.1-.15a.17.17 0 0 1 .17 0l1.8 1.04.08.04 1.27.3c.04.02.06.04.06.07.01.03 0 .06-.03.08-.14.11-.17.12-.1.03Z" fill="#A9A9A9"/><path d="M29.89 28.3c-.65-.02-1.03.26-1.13.85a.27.27 0 0 1-.12.19.82.82 0 0 0-.2.2c-.06.04-.15-.04-.27-.22.11-.15.2-.32.27-.5.08-.21.04-.36-.12-.46a.27.27 0 0 0-.3 0 .24.24 0 0 0-.12.26c.03.21-.01.43-.12.65-.08.16-.03.26.14.32l-.2.31c-.06.1-.13.16-.2.17a.87.87 0 0 1-.22-.04.05.05 0 0 1-.05-.06c0-.02.02-.04.04-.05a.61.61 0 0 0 .2-.19c.07-.09.05-.16-.05-.21a.81.81 0 0 0-.3-.06c.27 0 .38-.22.33-.66.1.04.16.04.2.02.09-.04.12-.1.1-.2-.01-.08-.06-.14-.15-.16a.57.57 0 0 1-.25-.13.08.08 0 0 1-.02-.09c0-.03.03-.05.07-.05l1.08-.04c.26 0 .52 0 .79-.02.12 0 .18-.05.18-.15.21-.02.35.09.42.33Z" fill="#5A5A5A"/><path d="M35.67 28.4c-.1.52-.11 1.04-.01 1.56l.01.19a.66.66 0 0 0-.12.5c.01.06-.01.1-.06.11-.06.02-.1 0-.11-.05-.24-.57-.68-.78-1.32-.64l-.02-.12c.04-.1.08-.16.11-.18.5-.32.72-.64.64-.95l.48-.51c.3-.15.44-.12.4.1ZM29.89 28.3c.07.35.03.8-.12 1.35a.31.31 0 0 1-.13.16c-.06.03-.12.02-.2-.02a1.86 1.86 0 0 0-1-.25.82.82 0 0 1 .2-.2c.07-.05.11-.11.12-.19.1-.59.48-.87 1.13-.84Z" fill="#EEE"/><path d="m28.17 29.32-.25.27c-.17-.06-.22-.16-.14-.32.1-.22.15-.44.12-.65a.24.24 0 0 1 .12-.26c.1-.06.2-.06.3 0 .16.1.2.25.12.46-.07.18-.16.35-.27.5Z" fill="#44B7AB"/><path d="M37.8 28.39c.22-.06.38-.03.5.07.1.1.14.27.11.5-.33.09-.57-.03-.74-.36-.05-.1 0-.17.14-.21Z" fill="#EEE"/><path d="m24.9 28.54-.64.51-.36.33a.15.15 0 0 1-.15.03.14.14 0 0 1-.1-.1l-.07-.34a.2.2 0 0 1 .08-.23c.43-.33.84-.4 1.23-.2ZM35.66 29.96c-.1-.52-.1-1.04 0-1.56.41.26.53.71.37 1.36-.05.2-.17.26-.37.2Z" fill="#5A5A5A"/><path d="M27.47 28.8c.05.44-.06.66-.34.66-.4-.48-.87-.5-1.39-.09-.03.03-.06.03-.1 0-.03-.02-.04-.05-.02-.09.11-.27.28-.42.5-.45a.48.48 0 0 0 .29-.15c.32-.33.68-.29 1.06.12Z" fill="#EEE"/><path d="M25.35 28.68a.64.64 0 0 1-.14.46l-.95-.09.63-.5.46.13Z" fill="#D9D9D9"/><path d="M37.18 29.26c.14.3.21.55.2.76a2.5 2.5 0 0 1-.62-.5c-.18-.21-.2-.47-.1-.75.23.15.4.31.52.5Z" fill="#C52596"/><path d="M21.41 29.6a4.2 4.2 0 0 0 .4 3.24l-1.03.33-1.47.28a5.5 5.5 0 0 1-.08-4.15.32.32 0 0 1 .22-.22.33.33 0 0 1 .31.06c.4.3.89.42 1.46.34.08-.01.12.02.13.1 0 .07.02.08.06.02Z" fill="#EEE"/><path d="M32.31 29.46c-.42.39-.7.8-.82 1.25a.79.79 0 0 1-.37-.01c-.03-.33.04-.6.2-.81.24-.2.4-.44.5-.72l.3-.07c.09-.02.14.01.16.1l.03.26Z" fill="#5A5A5A"/><path d="M38.91 29.26c.06.1.08.12.04.04l.36.75a2.78 2.78 0 0 0-1.46-.03c.26-.59.62-.84 1.06-.76ZM24.98 29.46c-.04.4.05.68.3.86.03.33-.01.67-.13 1.01-.1 0-.14.03-.12.06a.79.79 0 0 1-.6-.51.33.33 0 0 1-.01-.07l-.02-1.43c.18-.06.37-.03.58.08Z" fill="#EEE"/><path d="M34.15 29.77a.54.54 0 0 0-.11.18l-.55-.25a.42.42 0 0 1-.12-.12.11.11 0 0 1 0-.13.12.12 0 0 1 .12-.06 1 1 0 0 0 .32 0 .2.2 0 0 1 .23.08c.07.09.1.19.11.3Z" fill="#343535"/><path d="m39.31 30.05-.36-.75c.7.25.81.5.36.75Z" fill="#C52596"/><path d="M16.48 33.58c-.07-.03-.18.01-.36.11l-.6-4.4a6.6 6.6 0 0 1 .96 4.29Z" fill="#A9A9A9"/><path d="m24.4 29.38.02 1.43.01.07c.1.27.3.44.6.51l-1.36-.1a.24.24 0 0 1-.18-.11.23.23 0 0 1-.03-.21c.16-.48.32-.9.47-1.26.08-.2.24-.31.47-.33ZM26.65 29.5c-.46.2-.61.69-.45 1.44.02.08.07.14.15.19.24.13.5.2.77.24.06 0 .12-.02.16-.06.04-.05.06-.1.05-.17l-.1-.46.01-.22c0-.03.02-.04.05-.04.03 0 .05.01.06.04l.04.18c.01.07.06.1.13.1.08 0 .12-.04.13-.11.08-.48.35-.74.8-.79l-.13 1.76c0 .1.04.19.14.24.2.1.43.17.7.2.05 0 .1-.02.12-.09a.27.27 0 0 0 0-.16l.18.03.12.28c.04.09.02.16-.07.21l-.33.19a.26.26 0 0 1-.26 0c-.26-.13-.7-.24-1.34-.31-.17-.02-.25-.12-.24-.3 0-.05 0-.1-.04-.14-.07-.08-.14-.09-.23-.04a.21.21 0 0 1-.2.02 1.87 1.87 0 0 0-1.12-.04c-.1.03-.17 0-.2-.1-.01-.02 0-.06.01-.12.01-.03-.02-.06-.08-.1-.08-.06-.2-.07-.33-.04.12-.34.16-.68.12-1.01.13.01.24.07.34.17.02.03.06.03.1.01.03-.02.04-.05.02-.1-.15-.38-.02-.67.37-.86.23-.1.4-.12.55-.05Z" fill="#9A9A89"/><path d="M33.37 29.71c.04.16 0 .27-.14.34-.62-.06-1.08.13-1.38.58a.44.44 0 0 1-.14.22l-.22-.14c.12-.45.4-.86.82-1.25a.97.97 0 0 1 1.06.25ZM26.65 29.5c.38.24.57.64.58 1.18l.1.46c.01.06 0 .12-.05.17a.19.19 0 0 1-.16.06 2.12 2.12 0 0 1-.77-.24.28.28 0 0 1-.15-.2c-.16-.74-.01-1.22.45-1.44Z" fill="#EEE"/><path d="m33.49 29.7.55.25.02.12c-.17.06-.25.15-.24.29 0 .08-.04.14-.12.17-.04.01-.13 0-.26-.03-.04-.01-.07-.08-.1-.2a.75.75 0 0 0-.11-.25c.14-.07.18-.18.14-.34a.4.4 0 0 0 .12 0Z" fill="#2D8176"/><path d="M29.38 30.08c-.44.6-.48 1.18-.1 1.7v.17c-.03.07-.07.1-.13.09-.26-.03-.5-.1-.69-.2a.23.23 0 0 1-.14-.24l.13-1.76c.4-.05.7.03.93.24Z" fill="#EEE"/><path d="m40.26 29.96-.11-.03a.3.3 0 0 0-.37.21l-.66 2.3a.3.3 0 0 0 .21.36l.11.03a.3.3 0 0 0 .38-.2l.65-2.3a.3.3 0 0 0-.21-.37Z" fill="#FAD7E7"/><path d="m29.6 30.25-.1 1 .03.06c.06.05.14.04.24-.03.06.06.13.1.2.13l-.06.42c-.23-.14-.38-.14-.45-.01l-.19-.03c-.37-.53-.33-1.1.1-1.7.02.1.1.15.23.16Z" fill="#2D8176"/><path d="m30.92 30.66-.89.15c-.12-.3.03-.55.44-.71a.38.38 0 0 1 .24-.02c.35.09.42.28.2.58ZM37.81 32.48l.67-2.18c.29-.06.49-.02.61.12.03.05.05.1.03.15l-.31 1.57a.3.3 0 0 1-.05.1c-.24.36-.55.44-.95.24ZM33.59 31.08l-.2 1.37c-.07.13-.27.25-.6.37-.26.09-.43.17-.52.24a.06.06 0 0 1-.07.01.14.14 0 0 1-.05-.04l.08-1.25c0-.03 0-.06.02-.08.17-.39.22-.76.16-1.12.2-.2.4-.28.65-.22.08.02.14.06.18.13l.35.6ZM35.48 31.83v1.27c-.46.13-.98.16-1.54.1.29-.78.35-1.57.17-2.37a.56.56 0 0 1 0-.39c.39-.22.72-.12.99.28.2.3.33.67.38 1.11ZM37.37 31.16l.1 1.4c.1.27-.02.42-.34.46-.4.05-.81.08-1.25.08.28-.82.37-1.66.26-2.52.2-.29.46-.35.78-.18.31.17.46.42.45.76Z" fill="#EEE"/><path d="m38.48 30.3-.67 2.18c-.1-.03-.21 0-.34.08l-.1-1.4.1.04c.11.03.17-.01.19-.12.08-.53.36-.79.82-.78Z" fill="#7F7E7E"/><path d="M34.1 30.44a.56.56 0 0 0 .01.39l-.48 1.75a.3.3 0 0 0-.04-.13c-.02-.03-.05-.04-.1-.04a.2.2 0 0 0-.1.04l.2-1.37c.15-.38.32-.6.51-.64Z" fill="#5A5A5A"/><path d="M32.41 30.58c.06.36 0 .73-.16 1.12a.23.23 0 0 0-.02.08l-.08 1.25-.15-.07-.07-1.75a.32.32 0 0 0-.08-.2l-.14-.16a.44.44 0 0 0 .14-.22l.02.06c.04.1.1.11.2.07l.34-.18Z" fill="#9A9A89"/><path d="M36.14 30.58c.1.86.02 1.7-.26 2.52a.65.65 0 0 0-.4 0v-1.27c.08.17.16.22.25.13.06-.06.09-.16.08-.3-.03-.42.08-.78.33-1.08Z" fill="#93906D"/><path d="m30.92 30.66.2.04c.1.03.22.03.37 0l.22.15.13.16c.06.06.09.13.09.2l.07 1.75c-.1-.02-.22-.1-.36-.22.04-.54.04-.9-.01-1.09-.17-.6-.52-.8-1.06-.6-.27.11-.47.23-.6.36a.6.6 0 0 1-.2-.13l.26-.47.89-.15Z" fill="#343535"/><path d="M33.94 33.2a.48.48 0 0 1-.37-.05c-.07-.04-.1-.1-.07-.17l.13-.4.48-1.75c.18.8.12 1.6-.17 2.37Z" fill="#ACAC8B"/><path d="M31.64 32.74c0 .16-.12.3-.38.4-.55-.18-.78-.88-.7-2.08.55-.2.9 0 1.07.6.05.18.05.54 0 1.08Z" fill="#EEE"/><path d="M30.57 31.06c-.1 1.2.14 1.9.7 2.09-.1.19-.27.39-.48.6-.1.09-.2.12-.33.1-.25-.04-.36-.14-.33-.31.18-.5.1-1.02-.22-1.6.03.02.03-.02 0-.11l.07-.42c.12-.13.32-.25.59-.35Z" fill="#9A9A89"/><path d="m30.13 33.54-.06-.05c-.04-.03-.08-.03-.12 0a.32.32 0 0 0-.08.07l-.07-1.17c.12-.16.16-.31.11-.44.33.57.4 1.1.22 1.59Z" fill="#343535"/><path d="M24.55 32.4c.03.02.05.03.05.07 0 .03-.01.05-.04.06-.41.16-.84.21-1.3.17-.16-.01-.22-.1-.2-.26l.05-.18c.01-.09.06-.12.15-.1l1.29.25Z" fill="#D9D9D9"/><path d="M28.6 32.66c.12.55-.08.92-.6 1.13-.9.37-1.94.47-3.1.3-.88-.12-1.8-.23-2.76-.34L21 33.41c-.03 0-.04-.02-.04-.05v-.07a3.16 3.16 0 0 1 1.78.15c.05.02.18 0 .4-.03.03 0 .05-.02.05-.05 0-.03 0-.05-.03-.07a.63.63 0 0 0-.37-.09c-.04 0-.06 0-.06-.05 0-.03.01-.05.05-.05 1.4-.25 2.54-.44 3.41-.57a5.6 5.6 0 0 1 2.4.13Z" fill="#F6F8DB"/><path d="m29.8 32.4.07 1.16c-.94.6-2.01.97-3.22 1.1a8.92 8.92 0 0 1-3.4-.3c-.43-.13-.8-.33-1.11-.61.96.1 1.88.22 2.77.35 1.15.16 2.18.06 3.09-.3.52-.22.72-.6.6-1.14.45.2.85.1 1.2-.27Z" fill="#ACAC8B"/><path d="M39.14 33.08a3.64 3.64 0 0 0-.16 1.67c-.01.26-.15.43-.4.5-.1.02-.14-.01-.13-.1l.06-1.97c-.06-.27.02-.4.22-.4.16 0 .3.1.41.3Z" fill="#FAD7E7"/><path d="M18.36 33.96a.99.99 0 0 1-.7.38l-.42-.87c.2.02.38-.02.53-.1.07-.04.1-.1.09-.19l-.03-.24c.11.1.18.23.2.38 0 .08.04.15.1.2.12.13.2.27.23.44Z" fill="#A5A15A"/><path d="M39.14 33.08c.22.3.22.73-.02 1.3-.02.12-.06.24-.14.37a3.63 3.63 0 0 1 .16-1.67Z" fill="#C52596"/><path d="M20.78 33.17c.05.06.1.1.18.12v.07c0 .03.01.05.04.05l1.14.34c.3.28.68.48 1.11.61a.44.44 0 0 0-.07.27l-2.17-.9c-.14-.06-.24-.07-.33-.04a.07.07 0 0 0-.04.06c0 .03 0 .06.03.07l.4.23c.06.03.1.08.14.13.1.2.31.42.6.67a.3.3 0 0 1 .1.14l.14.43c.06.4.04.78-.07 1.14 0-.13-.04-.2-.13-.23-.04-.01-.07 0-.1.04l-.12.2a.2.2 0 0 1-.17.11h-.02c-.35.02-.6.05-.74.1a.81.81 0 0 0-.5.46c-.28-.03-.59 0-.91.08-.1-.2-.26-.24-.48-.14-.4-.05-.72-.18-.96-.4.43.13.87.16 1.33.09.09-.02.22-.01.38.02.22.04.39.02.5-.04.11-.07.16-.16.15-.29-.02-.12-.1-.18-.22-.19-.06 0-.1 0-.13-.02-.08-.04-.07-.09 0-.13.44-.23.8-.3 1.1-.2.13.1.27.12.4.06.28-.13.36-.34.27-.62-.4-1.2-1.3-1.78-2.69-1.76.15-.15.27-.23.37-.25l1.47-.28Z" fill="#635E17"/><path d="M38.98 34.75c.08-.13.12-.25.14-.36.03.05.05.11.06.18 0 .08.04.13.12.16.4.18.56.5.5.99a.32.32 0 0 1-.13.22c-.38.28-.45.66-.22 1.14-.18.02-.34.02-.5-.02.04-.24-.05-.41-.26-.53-.11-.05-.18-.02-.2.1-.11.48-.32.82-.64 1.03-.1.03-.2.03-.28 0a.26.26 0 0 0 .02-.13c.26-.17.4-.35.44-.54.02-.1-.02-.16-.12-.18l-.47-.09c-.1-.02-.17.02-.2.12l-.17.6c-.06.05-.09.13-.07.23h-.48l-.56-.07-.01-.12c.32.08.57 0 .75-.26a.5.5 0 0 0 .08-.17l.26-1.09c.02.07.05.12.1.14.06.03.12.01.17-.03-.04.15-.04.27 0 .36.05.12.14.15.28.09a.94.94 0 0 0 .49-.43c.03-.06.02-.11-.03-.16a.17.17 0 0 0-.17-.04c.06-.07.07-.14.03-.2-.03-.05-.09-.08-.17-.1.08-.07.1-.1.06-.09.29-.06.42-.23.39-.5a4.9 4.9 0 0 1 .02-1.41c.13.37.23.23.3-.41l-.06 1.97c0 .09.03.12.12.1.26-.07.4-.24.41-.5Z" fill="#440934"/><path d="m37.07 33.48-.18 1.53a.85.85 0 0 1-.5.62.3.3 0 0 1-.3-.02.3.3 0 0 1-.15-.26v-1.69c0-.08.03-.13.1-.16a1.2 1.2 0 0 1 1.03-.02ZM34.84 35.62a3.83 3.83 0 0 1-.05-.91c0-.54-.04-.85-.13-.96a.1.1 0 0 1-.02-.1.1.1 0 0 1 .07-.07l.73-.16c.1-.02.16.02.17.12.04.6 0 1.19-.11 1.78-.03.15-.19.28-.47.4-.1.04-.17 0-.2-.1Z" fill="#EEE"/><path d="m37.93 33.43-.13 2.07c.04-.01.02.02-.06.1a.73.73 0 0 1-.35.03c-.11-.02-.18-.07-.2-.16a.45.45 0 0 1 .02-.28l.16-1.72c.15-.09.34-.1.56-.04Z" fill="#FAD7E7"/><path d="M38.2 33.59a4.9 4.9 0 0 0-.01 1.4c.03.28-.1.45-.4.51l.14-2.07c.1-.02.2.03.28.16Z" fill="#C52596"/><path d="m37.37 33.47-.16 1.72c.02-.14-.09-.2-.32-.18l.18-1.53h.3Z" fill="#5A5A5A"/><path d="m16.48 33.58.05.01c-.05.13-.04.3.03.5-.29.33-.32.73-.1 1.18-.1.16-.12.31-.07.44.1.26.2.52.29.8.02.05.06.09.13.09.11 0 .22-.07.33-.2-.02.1.04.17.19.21l.4 1.9c0 .04.02.08.06.12l.07.06c.05.05.05.1 0 .15l-.04.05c-.23-.06-.38-.15-.46-.28l-.4-1.27c0-.04-.04-.06-.09-.06-.05 0-.08.02-.09.07-.06.24-.02.57.14.98a3.1 3.1 0 0 1-1.03-.8l.12-2.3c.01-.18-.04-.52-.17-1.03 0-.02-.01-.02-.03-.01-.02.01-.03.03-.03.06s-.02.04-.05.05c-.05.01-.08-.02-.1-.09.1-.23.27-.4.5-.52.17-.1.29-.14.35-.11Z" fill="#A5A15A"/><path d="M31.46 33.76c.12-.16.37-.24.76-.23.27 0 .41.15.41.42v1.65c0 .18-.09.27-.27.27h-.21c-.2 0-.3-.1-.35-.28l-.37-1.7c-.01-.04 0-.09.03-.13ZM33.08 33.96c0-.14.07-.22.21-.25l.77-.17c.19-.04.28.04.28.22.01.5-.05.97-.19 1.37-.19.58-.49.9-.9.93-.11 0-.17-.04-.17-.15v-1.95Z" fill="#EEE"/><path d="m16.86 33.76.2.5c.07.17.15.25.26.25.1 0 .22-.06.34-.17a.99.99 0 0 0 .7-.38l.58-.26c1.39-.02 2.28.57 2.69 1.76.1.28 0 .49-.27.62-.13.06-.27.03-.4-.07.23.06.29-.1.18-.51a.45.45 0 0 0-.15-.23l-.74-.61a.23.23 0 0 0-.23-.04c-.33.1-.6.12-.83.04-.04-.01-.05-.04-.05-.08s.02-.06.06-.07l.47-.1c.04 0 .06-.03.06-.07 0-.04-.02-.06-.06-.06a2.93 2.93 0 0 0-2.29.54.54.54 0 0 0-.15.18c-.1.2-.08.4.06.63.12.2.3.36.52.45l.63.28c.06.02.08.06.06.12-.02.05-.05.08-.11.07a2.43 2.43 0 0 1-1.33-.6c-.02-.03-.05-.03-.07 0l-.06.05c-.04.04-.04.08 0 .1.14.08.2.18.21.3-.1.13-.22.2-.33.2-.07 0-.11-.04-.13-.1l-.29-.79c-.05-.13-.03-.28.06-.44.24-.1.34-.21.32-.33a9 9 0 0 0-.2-.85c-.08-.2-.1-.38-.04-.5.17.05.27.1.33.17Z" fill="#908718"/><path d="m23.18 34.63 2.1.35c-.51.3-1.22.56-2.14.77-.52.12-.88.01-1.09-.33l-.14-.43a.3.3 0 0 0-.1-.14c-.29-.25-.5-.47-.6-.67a.32.32 0 0 0-.13-.13l-.4-.23a.07.07 0 0 1-.04-.07c0-.02.01-.04.04-.06.09-.03.2-.02.33.04l2.17.9Z" fill="#F6F8DB"/><path d="M30.38 34.2c-.28.47-.14.85.4 1.14-.4.12-.79.1-1.15-.05a.27.27 0 0 1-.16-.2l-.13-.59a.3.3 0 0 1 .07-.27c.3-.36.63-.37.97-.03Z" fill="#9A9A89"/><path d="M15.9 37.53c-.34-.07-.5-.35-.48-.84l.02-1.13c.07-.22.1-.47.1-.76l.1-.59c0 .07.04.1.1.09.02 0 .03-.02.04-.05 0-.03.01-.05.03-.06.02-.01.03-.01.03.01.13.5.18.85.17 1.04l-.12 2.29ZM16.56 34.1c.1.3.17.6.21.84.02.12-.08.23-.32.33-.21-.45-.18-.85.11-1.18Z" fill="#ACAC8B"/><path d="M30.79 35.34c-.55-.3-.69-.67-.4-1.14l.46-.06c.1-.01.17.03.19.13l.18.82c.02.07 0 .12-.07.16a.78.78 0 0 1-.36.09Z" fill="#EEE"/><path d="M20.96 36.01c-.3-.1-.66-.02-1.1.21-.07.04-.08.09 0 .13.02.02.07.02.13.02.13 0 .2.07.22.2.01.12-.04.21-.15.28-.11.06-.28.08-.5.04-.16-.03-.29-.04-.38-.02-.46.07-.9.04-1.33-.09-.07-.11-.24-.17-.52-.17-.15-.04-.2-.11-.19-.21 0-.12-.07-.22-.2-.3-.05-.02-.05-.06-.01-.1l.06-.05c.02-.03.05-.03.07 0 .42.35.86.55 1.33.6.06 0 .1-.02.1-.07.03-.06 0-.1-.05-.12l-.63-.28c-.23-.1-.4-.24-.52-.45-.14-.23-.15-.44-.06-.63a.54.54 0 0 1 .15-.18 2.92 2.92 0 0 1 2.29-.54c.04 0 .06.02.06.06 0 .04-.02.06-.06.07l-.47.1c-.04.01-.06.03-.06.07 0 .04.02.07.05.08.23.08.5.07.83-.04a.23.23 0 0 1 .23.04l.74.6c.07.07.12.15.15.24.1.4.05.57-.18.51Z" fill="#E7C91F"/><path d="M27.2 35.1c-.05-.02-.07-.05-.06-.1 0-.04.03-.07.08-.08l1.62-.35c.16-.03.27.03.33.18.06.14.03.26-.11.35-.57.35-1.2.35-1.87 0Z" fill="#EEE"/><path d="M15.53 34.8c.01.29-.02.54-.1.76a.43.43 0 0 0-.03-.1c-.04-.06-.1-.08-.17-.06-.51.18-.82.63-.93 1.37-.33-.36-.3-.75.08-1.15.28-.3.6-.45.97-.46.1 0 .13-.05.1-.14a.91.91 0 0 1 0-.35c.01-.02.03-.04.05-.04.03 0 .04.01.05.04.01.05 0 .1-.02.13Z" fill="#5A5A5A"/><path d="m22.13 36.67-.15-.1c.1-.37.13-.75.07-1.15.21.34.57.45 1.1.33.9-.2 1.62-.46 2.13-.77l1.19-.01c.05 0 .05 0 0 .03l-4.34 1.67Z" fill="#ACAC8B"/><path d="M19 35.64c-.01 0-.02 0-.02-.02-.03-.19.2-.31.7-.38h.07c.49-.07.75-.01.77.17v.01c0 .02 0 .02-.02.03l-1.5.2Z" fill="#908718"/><path d="M26.72 35.2c-.18.82.11 1.33.87 1.55.04 0 .05.03.05.07 0 .04-.03.05-.06.05-.65 0-1.07-.26-1.26-.8-.07-.2-.22-.29-.44-.25-.23.04-.33.17-.31.4.01.18-.05.39-.2.62a1.4 1.4 0 0 1-.75-.64c-.03-.06-.08-.07-.14-.04h-.01c-.06.04-.07.09-.04.14.18.28.4.52.65.72-.3.06-.62-.06-.95-.36-.06-.05-.1-.04-.15.03l-.04.08c-.04.06-.03.12.02.17a3 3 0 0 1 .77 1.36c.02.11.06.21.12.3l.43.72c-.24-.08-.4-.2-.49-.33-.25-.39-.53-.7-.82-.93.08-.53-.1-.94-.54-1.25-.06-.04-.11-.03-.15.03a.4.4 0 0 0-.04.07c-.03.07-.06.07-.1.01l-.14-.2.02-.07c0-.02.01-.03.03-.04l3.67-1.41Z" fill="#696868"/><path d="M27.6 35.58c-.31.16-.3.34.05.53.32.19.67.3 1.04.32.03 0 .06 0 .08-.03a.2.2 0 0 0 .03-.07c.07.07.12.18.14.32-.22-.02-.38 0-.47.06a.1.1 0 0 0-.05.09c0 .04.02.07.06.08.27.14.4.34.37.6-.07.69.04 1.34.33 1.96.04.09.11.16.2.21.32.18.71.24 1.18.2v.02c-.86.57-1.6.5-2.22-.22l-.1-.83a.18.18 0 0 0-.1-.14.18.18 0 0 0-.2.01c-.2.14-.2.4 0 .8l.05.1c.04.1.03.17-.05.24-.07.07-.16.08-.25.03-.23-.13-.43-.2-.58-.21-.35-.32-.61-.95-.79-1.9l-.11-.58a2 2 0 0 1 .44.81c.02.09.06.16.11.22l.48.56c.08.08.16.1.27.08.1-.03.16-.1.18-.2l.03-.14a.65.65 0 0 0-.19-.63l-1.18-1.17a.13.13 0 0 0-.14-.03.13.13 0 0 0-.1.1c-.02.09 0 .2.05.35-.1-.02-.15-.05-.18-.1l-.6-.18c.14-.23.2-.44.19-.63-.02-.22.08-.35.3-.4.23-.03.38.06.45.27.2.53.6.8 1.26.8.03 0 .06-.02.06-.06 0-.04-.01-.06-.05-.07-.76-.22-1.05-.73-.87-1.55l.89.38Z" fill="#A9A9A9"/><path d="M29.53 35.6c.13.64.44 1 .93 1.08.49.08.77-.11.84-.58.04.02.07.05.1.1.05.04.09.06.12.05.07 0 .12-.04.17-.12.02.29.14.5.35.66.1.07.2.07.3.01.1-.05.14-.14.13-.26a.8.8 0 0 0-.05-.15c.1-.1.17-.17.24-.2a.24.24 0 0 1 .25.04c.08.06.11.14.1.23-.02.22.02.4.1.53-.13.05-.17.15-.13.3.01.07.04.12.07.15.08.05.1.1.09.13-.04.07-.09.1-.14.1h-.05L31.71 37a.24.24 0 0 0-.14-.03l-2.06.2a1 1 0 0 1-.57-.52.59.59 0 0 0-.14-.32l-.14-.74.54-.28c.07-.04.13-.02.18.05l.15.24Z" fill="#5A5A5A"/><path d="m15.44 35.56-.02 1.13a.5.5 0 0 1-.18-.3c-.01-.08-.05-.1-.11-.06l-.31.18c-.06.03-.08.07-.06.13.08.43.58.96 1.48 1.6 1.21.88 3.23 1.94 6.06 3.2l1.64.73c.2.09.46.1.8.06h.24c.19.24.41.43.68.56l1.17.58a.7.7 0 0 0 .86-.13l.9-.9c.12-.1.14-.23.1-.37a.33.33 0 0 0-.32-.23 6.27 6.27 0 0 1-3.62-1.45c-1.2-.98-2.72-2-4.55-3.05.1-.23.27-.38.5-.46.14-.05.39-.08.74-.1h.02a.2.2 0 0 0 .17-.1l.13-.21c.02-.04.05-.05.1-.04.08.02.12.1.12.23l.15.1c-.13.07-.23.19-.3.37l-1.07.04c-.06 0-.1.03-.1.08-.02.05 0 .1.04.12l2.87 1.77c.37.1.66.35.9.74.03.06.08.1.14.14l.65.33.15.04c.56.1 1.09.26 1.58.48V41c-.38-.2-.78-.33-1.2-.38-.03 0-.05 0-.06.03 0 .02 0 .04.02.06.72.46 1.52.73 2.4.81.56.06 1.6.31 3.12.77.38.11.79.12 1.24.04l4.74-.88a6.8 6.8 0 0 0 1.56-.5.44.44 0 0 0 .2-.17.3.3 0 0 0 .2-.07c.7-.54 1.02-1.24.96-2.12a.1.1 0 0 1 .05-.09c.06-.05.14-.04.23.03l.99.24a.1.1 0 0 1 .08.07.1.1 0 0 1-.02.12 18 18 0 0 1-14.76 6A17.76 17.76 0 0 1 13 36.97c.24.01.28-.1.13-.35a.27.27 0 0 1-.02-.24c.12-.32.36-.5.72-.55.06 0 .1.02.11.07.02.05 0 .09-.04.12l-.18.1c-.19.1-.22.24-.11.42a10.2 10.2 0 0 0 2.1 2.43c.48.4 1.4.93 2.75 1.6 1.15.57 2.51 1.15 4.1 1.74.06.02.1 0 .11-.07l.02-.07c0-.03 0-.05-.04-.06l-1.08-.46a39.85 39.85 0 0 1-4.1-1.9 14.22 14.22 0 0 1-2.07-1.33c-.4-.35-.76-.9-1.1-1.64.11-.74.42-1.2.93-1.37.08-.02.13 0 .17.07l.04.09Z" fill="#201F20"/><path d="M39.03 35.81c.18-.12.27-.29.2-.37-.05-.1-.25-.06-.42.06-.18.12-.27.29-.21.38.06.08.25.05.43-.07Z" fill="#D9D9D9"/><path d="M27.6 35.58h1.06l.14.75a.2.2 0 0 1-.03.07.08.08 0 0 1-.08.03 2.45 2.45 0 0 1-1.04-.32c-.34-.2-.36-.37-.04-.53ZM29.53 35.6c.55.13 1.09.14 1.62.02.09-.02.14.01.16.1.03.11.03.24 0 .38-.08.47-.36.66-.85.58-.49-.08-.8-.44-.93-1.08ZM35.6 35.77a.15.15 0 0 1 .17 0c.06.04.08.09.08.15v.02c-.02.2-.1.35-.26.47-.25.2-.48.25-.7.12-.07-.04-.1-.11-.09-.2.01-.1.07-.17.16-.22l.65-.34ZM37.04 35.96l-.26 1.1a.5.5 0 0 1-.08.16c-.18.25-.43.34-.75.26l-.08-.05a.16.16 0 0 1-.07-.16c.02-.2.08-.37.18-.51a.27.27 0 0 0 .04-.24c-.06-.23 0-.4.2-.5.38-.22.62-.3.72-.26.08.03.1.1.1.2ZM33.86 37.8c-.09.03-.16.04-.2.01-.04-.01-.05-.07-.03-.18a.85.85 0 0 0-.02-.38l.06-.03a.12.12 0 0 0 .06-.12c0-.06-.02-.1-.07-.12-.19-.1-.35-.23-.49-.39a.1.1 0 0 1-.01-.1.1.1 0 0 1 .08-.07c.38-.04.66-.2.86-.48a.2.2 0 0 1 .2-.08.2.2 0 0 1 .18.13c.07.18.04.36-.08.54a.46.46 0 0 0-.09.26v.5a.4.4 0 0 1-.09.26c-.09.12-.2.2-.36.25ZM37.88 35.9c.06-.02.12-.01.17.03.05.05.06.1.03.16a.94.94 0 0 1-.5.43c-.13.06-.22.03-.28-.1-.03-.08-.03-.2.01-.35.12-.1.31-.17.57-.18ZM32.42 36.39a.8.8 0 0 1 .05.15c.01.12-.03.2-.13.26s-.2.06-.3 0a.83.83 0 0 1-.35-.67c.26-.03.5.05.73.26Z" fill="#EEE"/><path d="m25.38 36.84.6.18a.8.8 0 0 1-.57.13l-.33-.13c-.25-.2-.47-.44-.65-.72-.03-.05-.02-.1.04-.13l.01-.01c.06-.03.1-.02.14.04.17.3.43.52.76.64ZM15.42 36.69c-.02.49.14.77.47.84.21.27.55.54 1.03.8.15-.03.3.06.44.28.08.13.23.22.46.28l1.53.83.52.19c.04.08.1.16.2.23l2 .88c.16.15.4.2.69.14.28.38.63.57 1.02.6.15.12.37.22.67.3.05.05.14.11.28.17-.33.05-.6.03-.8-.06-.35-.17-.9-.41-1.63-.74a36.3 36.3 0 0 1-6.06-3.18c-.9-.65-1.4-1.18-1.48-1.61-.02-.06 0-.1.06-.13l.3-.18c.07-.03.1-.02.12.06a.5.5 0 0 0 .18.3Z" fill="#140512"/><path d="M38.94 37.06c0 .07-.03.12-.07.17l-.16.05a.12.12 0 0 0-.08.12c0 .05.01.1.06.12l.93.54.07.06c.05.05.08.1.1.18.1.87-.16 1.6-.81 2.17-.07.06-.08.12-.03.2l.06.1a.44.44 0 0 1-.2.17c-.19-.09-.43-.1-.72-.01l-.24.06c-.93.16-1.82.37-2.67.6a4.4 4.4 0 0 1-1.18-.44c-.24-.14-.47-.41-.67-.8a5.01 5.01 0 0 0-.18-.36.31.31 0 0 1-.04-.25l.26-.97c.24-.33.65-.67 1.23-1.03a.7.7 0 0 1 .53-.1c.1.02.2.03.28.01l.55-.05.56.08c-.68.4-1.3.85-1.83 1.36-.28.28-.35.6-.2.96.16.41.63.65 1.42.72.58.05 1.15.01 1.72-.12a2.06 2.06 0 0 0 1.4-.93c.35-.57.25-1.04-.3-1.4-.3-.22-.6-.42-.88-.6.32-.22.53-.56.64-1.04.02-.12.09-.15.2-.1.21.12.3.3.25.53Z" fill="#A9A9A9"/><path d="M17.33 36.61c.28 0 .45.06.52.17.24.22.56.35.96.4 0 .13.03.25.1.35a1.2 1.2 0 0 0-.1.03c-.09.03-.11.08-.09.16l.63 2-1.53-.83.04-.05c.05-.05.05-.1 0-.15a2.44 2.44 0 0 1-.07-.06.2.2 0 0 1-.07-.12l-.4-1.9Z" fill="#93906D"/><path d="m26.2 37.17-.04-.05a.63.63 0 0 1-.05-.35.13.13 0 0 1 .1-.1c.05-.02.1 0 .14.03l1.18 1.17c.18.18.24.39.2.63l-.04.14a.24.24 0 0 1-.18.2c-.1.02-.2 0-.27-.08l-.48-.56a.52.52 0 0 1-.11-.22 2 2 0 0 0-.44-.81ZM28.94 36.65a1 1 0 0 0 .57.52c.26.24.5.4.7.5l.57.9c.14.58.07 1-.22 1.27-.47.05-.86-.01-1.18-.19a.47.47 0 0 1-.2-.21c-.3-.62-.4-1.27-.33-1.97.02-.25-.1-.45-.37-.59a.1.1 0 0 1-.06-.08.1.1 0 0 1 .05-.1c.1-.05.25-.07.47-.05ZM34.63 37.24c.01-.02.04-.13.07-.34a.21.21 0 0 1 .12-.17.83.83 0 0 1 .43-.1.4.4 0 0 1 .3.17c.08.1.09.21.03.32-.15.29-.4.45-.76.48a.21.21 0 0 1-.22-.12.2.2 0 0 1 .03-.24Z" fill="#EEE"/><path d="m23 36.71.14.21c.04.06.07.06.1 0a.4.4 0 0 1 .04-.08c.04-.06.1-.07.15-.03.44.3.62.72.54 1.25l-.28-.13c-.09-.04-.15-.02-.17.08-.06.2.02.34.23.4.09.03.22.15.4.35a4.14 4.14 0 0 0 2 1.37l1.3.32c.08.2-.08.3-.46.32a6.37 6.37 0 0 0-1.73-.52l-.65-.33a.34.34 0 0 1-.14-.14 1.54 1.54 0 0 0-.9-.74l-.68-2.17c0-.07.04-.13.1-.16Z" fill="#44B7AB"/><path d="m25.08 37.02.33.13c.25-.03.36.12.34.45-.15.21-.18.54-.08 1 .08.33.08.55 0 .68s-.2.15-.39.04l-.43-.71c-.06-.1-.1-.2-.12-.3a3 3 0 0 0-.77-1.37c-.05-.05-.06-.11-.02-.17l.04-.08c.04-.07.1-.08.15-.03.33.3.64.42.95.36Z" fill="#A9A9A9"/><path d="M37.6 37.53c-.3.04-.47.01-.53-.08l.17-.61c.03-.1.1-.14.2-.12l.47.1c.1.01.14.07.12.17-.03.19-.18.37-.44.54ZM22.9 36.87l.67 2.17-2.87-1.77c-.04-.03-.06-.07-.05-.12.02-.05.05-.08.1-.08l1.07-.04c.4-.21.75-.27 1.07-.16Z" fill="#EEE"/><path d="M33.12 37c.15.16.3.25.49.25.03.12.04.25.02.38-.02.1-.01.17.03.18.04.03.11.02.2 0l-.85.84c-.38.22-.78.3-1.2.24-.51-.26-.9-.66-1.17-1.2a.22.22 0 0 0-.1-.1c-.12-.06-.23-.04-.33.07a2.29 2.29 0 0 1-.7-.49l2.06-.2c.05 0 .1.01.14.03l1.24.67H33c.05 0 .1-.03.14-.1.01-.03-.01-.08-.09-.13a.28.28 0 0 1-.07-.15c-.04-.15 0-.25.14-.3Z" fill="#A9A9A9"/><path d="m26.16 37.12.05.05.11.58c.18.95.44 1.58.79 1.9.34.22.5.43.48.63l-.88-.42a2.46 2.46 0 0 1-.67-2.09c0-.1-.03-.14-.13-.15l-.16-.02c.02-.33-.1-.48-.34-.45a.8.8 0 0 0 .57-.13c.03.05.09.08.18.1Z" fill="#44B7AB"/><path d="M39.45 37.08c.35.34.59.73.72 1.17.03.08.07.14.12.16.07.03.14.03.22.02a.17.17 0 0 0-.06.09c-.09-.07-.17-.08-.23-.03a.1.1 0 0 0-.05.1c.06.87-.26 1.57-.96 2.1a.3.3 0 0 1-.2.08l-.06-.1c-.05-.08-.04-.14.03-.2.65-.57.91-1.3.8-2.17a.28.28 0 0 0-.1-.18l-.06-.06c-.09-.33-.34-.6-.75-.83.04-.05.07-.1.07-.17.17.04.33.04.5.02Z" fill="#C52596"/><path d="m19.29 37.32 1.07 2.64c.03.06 0 .1-.06.12l-.22.06a.6.6 0 0 1-.2-.23l-.97-2.38a.56.56 0 0 1-.1-.35c.22-.1.38-.05.48.14Z" fill="#D9D9D9"/><path d="M20.2 37.24a35.65 35.65 0 0 1 4.55 3.05 6.27 6.27 0 0 0 3.62 1.45c.15.01.26.09.31.23.05.14.03.27-.08.38l-.9.89a.7.7 0 0 1-.87.13l-1.17-.58c.02-.35.39-.4 1.1-.12.29.11.72.1 1.29-.03.07-.02.08-.06.04-.12l-.04-.06c.06-.01.1-.05.13-.1.05-.11.01-.16-.1-.16a5.97 5.97 0 0 1-3.05-.65c-.05-.03-.1-.02-.12.03-.03.04-.03.08 0 .12l.07.04c-.09-.02-.15-.01-.18.03-.06.07-.06.12 0 .15a1.65 1.65 0 0 1-.62-1.4c0-.07 0-.13-.04-.2l-.2-.33a.32.32 0 0 0-.23-.16l-.08-.02c-.04 0-.07 0-.1.03a.08.08 0 0 0 0 .09l.92 2.13c-.3-.08-.52-.18-.67-.3l-2.04-2.68a.1.1 0 0 0-.1-.05.1.1 0 0 0-.1.08l-.03.15a1.4 1.4 0 0 1-.28-.7.26.26 0 0 0-.05-.13l-.22-.34c-.03-.04-.06-.04-.1-.02l-.24.14c-.02 0-.02.02-.01.04l1.54 2.73c.01.02 0 .03-.02.04h-.06l-2-.88.23-.06c.07-.02.09-.06.06-.12l-1.07-2.64c.32-.08.63-.1.91-.08Z" fill="#7F7E7E"/><path d="M17.36 38.6c-.14-.2-.29-.3-.44-.27-.16-.41-.2-.74-.14-.98.01-.05.04-.07.1-.07.04 0 .07.02.09.06l.4 1.27Z" fill="#5A5A5A"/><path d="M28.11 37.53c-.16-.19-.36-.28-.44-.21-.08.06-.02.27.14.46.17.18.36.28.44.21.09-.07.02-.27-.14-.46Z" fill="#343535"/><path d="M37.07 37.45c.06.1.23.12.52.08 0 .05 0 .1-.02.13-.19.06-.38.06-.57.01-.02-.1 0-.18.07-.22Z" fill="#7F7E7E"/><path d="M31.82 37.54c-.21-.1-.43-.09-.5.03-.06.13.05.31.26.42.2.1.43.1.5-.03.06-.13-.06-.31-.26-.42Z" fill="#EEE"/><path d="m18.91 37.53.96 2.38-.52-.2-.63-1.99c-.02-.08 0-.13.08-.16.04 0 .07-.02.11-.03Z" fill="#5A5A5A"/><path d="m25.75 37.6.16.02c.1 0 .14.06.13.15-.1.82.13 1.52.67 2.09l-.57.27a4.14 4.14 0 0 1-2-1.37c-.17-.2-.3-.32-.4-.35-.2-.06-.28-.2-.22-.4.02-.1.08-.12.17-.08l.28.13c.3.23.57.54.82.93.09.14.25.25.5.33.17.1.3.1.38-.04.08-.13.08-.35 0-.69-.1-.45-.07-.78.08-.99Z" fill="#343535"/><path d="M37 37.67c.2.05.38.05.57 0 .08.02.18.02.28 0l.89.6c.54.36.64.83.3 1.4-.28.48-.75.79-1.41.93-.57.13-1.14.17-1.72.12-.79-.07-1.26-.31-1.43-.72-.14-.36-.07-.68.21-.96a9.54 9.54 0 0 1 1.83-1.36H37Z" fill="#EEE"/><path d="m21.5 39.26 1.26 1.9c-.3.06-.53.01-.7-.14h.07c.03 0 .03-.02.02-.04l-1.54-2.73v-.04l.25-.14c.04-.02.07-.02.1.02l.22.34c.03.04.04.08.05.12.03.27.12.5.28.7Z" fill="#343535"/><path d="m30.57 39.87-.01-.03c.29-.26.36-.69.22-1.28l.86.72c.06.06.06.11 0 .17-.32.23-.67.37-1.07.42Z" fill="#5A5A5A"/><path d="M28.34 39.65c.06.43.42.76 1.08.97-.18-.02-.28.03-.3.14-.03.07 0 .12.07.14.4.16.85.2 1.36.12a.2.2 0 0 0 .16-.14c.05-.13.1-.22.15-.25.23-.14.39-.11.48.1-.23.15-.24.34-.04.56.52.54 1.17.57 1.94.07.06 0 .1-.02.14-.06.03-.03.03-.07 0-.1l-.57-1a.43.43 0 0 0-.37-.22l-.85-.05.42-.43c.05-.05.05-.11 0-.17a.72.72 0 0 1-.2-.44c.42.06.82-.02 1.2-.24 0 .1.01.14.05.14.09.01.19 0 .3-.02l-.25.97a.31.31 0 0 0 .04.25l.18.35c.2.4.43.67.67.8.35.2.74.35 1.18.46a14.95 14.95 0 0 1-3.03.38c-.48.01-1.02-.05-1.63-.18l-3.54-.81.01-.22c.38-.02.54-.13.46-.32.37.17.75.27 1.16.3.03 0 .05-.01.06-.04l.01-.08-.01-.03-1.08-.32c.02-.2-.14-.4-.48-.63.15.01.35.08.58.21.1.05.18.04.25-.03.08-.07.09-.15.05-.24l-.06-.1c-.2-.4-.2-.66.02-.8a.18.18 0 0 1 .18-.01c.07.03.1.07.11.14l.1.83Z" fill="#5A5A5A"/><path d="M23.78 41.76c-.4-.03-.74-.22-1.02-.6l-1.25-1.9.04-.15a.1.1 0 0 1 .08-.08c.05 0 .09.01.11.05l2.04 2.68Z" fill="#D9D9D9"/><path d="m24.8 41.92.18.31h-.25a.69.69 0 0 1-.28-.17l-.92-2.13a.08.08 0 0 1 0-.09.09.09 0 0 1 .1-.03l.08.02c.1.02.18.07.23.16l.2.34c.03.06.05.12.04.18-.03.55.17 1.02.62 1.4Z" fill="#5A5A5A"/><path d="m31.6 39.93.84.05c.16 0 .29.08.37.22l.58 1c.02.03.02.07-.01.1a.16.16 0 0 1-.14.06c-.01-.22-.13-.38-.35-.48l-.17-.08a3.38 3.38 0 0 0-.73-.27c-.27-.04-.48.02-.65.2-.1-.21-.25-.24-.48-.1-.05.03-.1.12-.15.25a.2.2 0 0 1-.16.14c-.5.08-.96.04-1.36-.12-.07-.02-.1-.07-.08-.14.03-.11.13-.16.31-.14l2.17-.7Z" fill="#A9A9A9"/><path d="M33.24 41.36c-.77.5-1.42.47-1.94-.07-.2-.22-.19-.4.04-.57.17-.17.38-.23.65-.19a3.37 3.37 0 0 1 .9.35c.22.1.34.26.35.48Z" fill="#EEE"/><path d="M26.98 40.99c1.16.27 2.34.54 3.54.8.6.14 1.15.2 1.63.2a13.44 13.44 0 0 0 3.03-.4 26.34 26.34 0 0 1 2.91-.66c.3-.08.53-.08.72.01a6.8 6.8 0 0 1-1.56.5l-4.74.88c-.45.08-.86.07-1.24-.04a20.4 20.4 0 0 0-3.12-.77 5.27 5.27 0 0 1-2.4-.81c-.02-.02-.03-.04-.02-.06 0-.02.03-.03.05-.03.43.05.83.18 1.2.38Z" fill="#44B7AB"/><path d="M28.05 42.46a5.83 5.83 0 0 1-3.13-.76c-.04-.04-.04-.08-.01-.12.03-.05.07-.06.12-.03.97.49 1.99.7 3.04.65.12 0 .16.05.11.16-.02.05-.07.09-.13.1Z" fill="#201F20"/><path d="M24.98 41.74c.95.52 1.98.76 3.07.72l.04.06c.04.06.03.1-.04.12-.57.13-1 .14-1.3.03-.7-.27-1.07-.23-1.1.12a1.9 1.9 0 0 1-.67-.56l-.18-.31c-.06-.03-.06-.08 0-.15.03-.04.09-.05.18-.03Z" fill="#D9D9D9"/><defs><linearGradient id="a" x1="0" y1="28" x2="56" y2="28" gradientUnits="userSpaceOnUse"><stop stop-color="#0A6256"/><stop offset=".37" stop-color="#111417"/><stop offset=".65" stop-color="#101215"/><stop offset="1" stop-color="#7A0A5C"/></linearGradient></defs></svg>