<svg width="56" height="56" viewBox="0 0 56 56" xmlns="http://www.w3.org/2000/svg"><path d="m36.39 24.76-.34 3.16-.29 2.26a189 189 0 0 1-1.38 7.3c-.03.15-.12.24-.3.26l.05-.25c0-.05 0-.1-.03-.15a.2.2 0 0 0-.12-.08 6.2 6.2 0 0 0-1.53-.2 34.1 34.1 0 0 0-5.76.48.5.5 0 0 1-.34-.07 3.79 3.79 0 0 1-1.71-2.07c-.94-3.05-1.3-5.81-2.27-9.12a28.9 28.9 0 0 1-1.18-7.17c0-.05-.02-.1-.05-.13a.21.21 0 0 0-.28-.05.22.22 0 0 0-.09.12 4.23 4.23 0 0 1-1.08 1.73l-.17-.65c1.13-3.76 3.65-5.8 7.57-6.1a8.82 8.82 0 0 1 6 1.6 7.73 7.73 0 0 1 2.53 3.22c.4.9.48 1.81.72 2.8.03.11.04.22.04.34v2.77Z" fill="#D8D9D8"/><path d="m14.82 17.43-1.25-.63a.2.2 0 0 1-.1-.15.2.2 0 0 1 .05-.17l.13-.12c1-.39 2.69-.12 3.37.82a.15.15 0 0 1-.04.21.14.14 0 0 1-.07.02l-2.09.02Z" fill="#1C262E"/><path d="m13.65 16.36-.13.12a.2.2 0 0 0-.05.17.2.2 0 0 0 .1.15l1.25.63c-.95.46-1.38 1.42-1.28 2.87-.48.6-.47 1.43.02 2.52a.38.38 0 0 0 .22.2c.93.33 1.7.32 2.32-.02a5.8 5.8 0 0 0 3.02-.75l.04.23a.17.17 0 0 0 .08.12.16.16 0 0 0 .14 0l.2-.08.01 1.33-1.15 1.73a.24.24 0 0 1-.17.11l-.11.01.1-.73a.16.16 0 0 0-.03-.12.15.15 0 0 0-.11-.05c-.9.04-1.54.29-1.94.75-2.72-.3-5.44-1.66-6.02-4.62l1.06-1.07c.06-.06.1-.13.11-.22l.25-1.63c0-.05 0-.1-.04-.16a.21.21 0 0 0-.13-.09 1.68 1.68 0 0 0-.71.02c.73-1 1.71-1.48 2.95-1.42Z" fill="#D8D9D8"/><path d="M29.68 28.48c-2.1.02-3.85-.48-5.21-2.14a6.7 6.7 0 0 1-.83-6.7c.92-2.08 2.88-3.22 5.28-3.24 2.11-.02 3.86.48 5.21 2.15a6.69 6.69 0 0 1 .83 6.7c-.91 2.08-2.88 3.21-5.28 3.23ZM10.16 20.93c-.35.14-.53 0-.54-.45-.02-.59-.05-.98-.09-1.17.3-.64.69-1.15 1.17-1.53.25-.06.5-.06.71-.02.05.02.1.05.13.1.04.04.05.1.04.15l-.25 1.63a.38.38 0 0 1-.1.22l-1.07 1.07Z" fill="#1C262E"/><path d="M34.09 37.74c-.14.04-.2.08-.18.12-1.13-.13-2.21-.28-3.35-.2-1.52.1-3.06.4-4.6.87a.22.22 0 0 0-.13.09.22.22 0 0 0 .03.28c.03.03.08.05.13.06l1.1.13c-.73.08-1.35.35-1.84.8a6.26 6.26 0 0 1-1.92-1.72l-1.79-5.1a.1.1 0 0 0-.09-.07h-.05a.11.11 0 0 0-.05.04c-.6.9-1.38 2.17-2.66 2.04a5.18 5.18 0 0 1-2.06-.68c-.72-.41-1.25-1-1.57-1.78.87.46 1.62.47 2.22.03.73.6 1.54.89 2.43.87a.3.3 0 0 0 .23-.11.3.3 0 0 0 .06-.25 5.24 5.24 0 0 0-1.18-2.5c.27-.28.47-.6.6-.92a.58.58 0 0 0 .04-.28c-.02-.29.02-.56.1-.8.05.39.21.52.51.4.28-.11.52-.06.72.15.84.9 1.08 2 .7 3.28a.3.3 0 0 0 .2.36c.04.02.1.02.14 0h.02a.88.88 0 0 0 .64-.58c.3-.9.42-1.64.37-2.24-.1-1.03-.76-3.35-1.81-4.11a.35.35 0 0 0-.52.15.36.36 0 0 0-.02.2c.05.29.02.53-.09.75.03-1.1-.47-2.08-.83-3.17v-1.33c.22-.52.26-1.1.1-1.74.47-.44.83-1.02 1.08-1.73a.22.22 0 0 1 .1-.12c.04-.02.09-.03.14-.03.05.01.1.04.13.08.03.03.05.08.05.13.08 2.4.48 4.78 1.18 7.17.97 3.3 1.33 6.07 2.27 9.12.26.83.83 1.52 1.71 2.07.1.07.22.1.34.07 2.09-.33 4-.5 5.76-.48.55 0 1.06.07 1.53.2a.2.2 0 0 1 .12.08c.03.05.04.1.03.15l-.04.25Z" fill="#8996A3"/><path d="M28.6 19.1c2.1-.04 5.89.27 5.36 3.38-.42 2.53-1.68 4.52-4.3 4.58-2.96.06-6.34-2.83-5.1-6.06.65-1.67 2.35-1.89 4.05-1.9ZM19.52 20.13l.17.65c.16.64.12 1.22-.1 1.74l-.2.09a.16.16 0 0 1-.15 0 .17.17 0 0 1-.08-.12l-.04-.24c-.09-.4-.24-.8-.47-1.18a.17.17 0 0 1-.02-.09v-1.6a.16.16 0 0 1 .07-.13.14.14 0 0 1 .14-.02c.31.12.54.42.68.9Z" fill="#22384A"/><path d="M9.53 19.31c.04.19.07.58.09 1.17 0 .45.19.6.54.45.58 2.96 3.3 4.32 6.02 4.62l-.66.7-2.96-.71-.4-1a.26.26 0 0 0-.1-.12l-1.68-.99a.28.28 0 0 0-.4.13.3.3 0 0 0-.03.15l.11 1.43a5.9 5.9 0 0 1-.53-5.83Z" fill="#8996A3"/><path d="M16.1 23c-.61.34-1.39.35-2.32.02a.38.38 0 0 1-.22-.2c-.5-1.09-.5-1.93-.02-2.52l1.36-.72a.56.56 0 0 1 .66.11l1.22 1.25a.28.28 0 0 1 .05.3L16.1 23Z" fill="#22384A"/><path d="M26.29 20.46c.19 0 .37.03.55.1.18.08.34.2.48.35.14.15.26.34.34.54a2.02 2.02 0 0 1-.21 1.89c-.25.33-.6.53-.99.55-.18.01-.37-.02-.55-.1-.18-.08-.34-.2-.48-.35a1.77 1.77 0 0 1-.34-.54 2.02 2.02 0 0 1 .21-1.88c.26-.34.6-.54.99-.56ZM31.1 22.33a.23.23 0 0 1-.36-.08.25.25 0 0 1-.02-.15l.03-.2c.04-.26.17-.49.36-.65 1-.87 1.88-.81 2.6.16a.31.31 0 0 1-.08.46.3.3 0 0 1-.16.04c-.19 0-.47-.07-.83-.2-.37-.13-.89.08-1.53.62Z" fill="#82D4EC"/><path d="M46.7 22.65c-2.08-.24-3.42.6-4.01 2.51a.3.3 0 0 1-.18.2.3.3 0 0 1-.25-.03l-1.42-.83a.16.16 0 0 0-.17 0 .15.15 0 0 0-.04.06l-.46.82c-.09-1.05.43-2.08 1.57-2.05 1.26.02 2.63-1.2 3.48-2.08.58-.6 1.85-.75 1.78.48-.02.33-.12.64-.3.92ZM27.25 22.19c-.03-.5-.39-.89-.81-.86-.42.02-.74.44-.72.94.03.5.4.88.81.86.43-.03.75-.45.72-.94Z" fill="#22384A"/><path d="M46.7 22.65c-1.17.89-1.5 1.38-.98 1.49l-1.87 1.39a.31.31 0 0 0 0 .5.3.3 0 0 0 .17.05h1.06a.12.12 0 0 1 .11.07.12.12 0 0 1-.02.14c-.37.42-.5.78-.41 1.07a.36.36 0 0 0 .18.21l.98.47c-.7.58-1.52.94-2.44 1.07-.95-.18-1.64.68-2.62-.22-.8-.73-1.06-1.66-.8-2.81l.1-.7.47-.82a.15.15 0 0 1 .21-.06l1.42.83a.3.3 0 0 0 .36-.05.3.3 0 0 0 .07-.12c.59-1.91 1.93-2.75 4.02-2.5ZM12.56 25.54c.46 1.1-.18 1.18-1.9.24l-.6-.64-.11-1.43a.3.3 0 0 1 .13-.27.29.29 0 0 1 .3 0l1.67.98c.05.02.08.07.1.12l.4 1Z" fill="#1C262E"/><path d="M19.6 23.85c.35 1.1.85 2.07.82 3.17-.48.41-.77.96-.85 1.63-.1.25-.13.52-.1.81 0 .1-.01.19-.05.28-.13.33-.33.64-.6.93-.21.03-.46 0-.72-.07l-.1-.82a4.36 4.36 0 0 1 0-2.55c.05-.2.06-.34.03-.44a.56.56 0 0 0-.3-.32c-.06-.16.08-.42.43-.77l.11-.01a.24.24 0 0 0 .17-.1l1.15-1.74Z" fill="#FBFBFB"/><path d="M29.94 26.1c-.7.12-2.72-.05-2.86-1.05 0-.04 0-.08.02-.13a.25.25 0 0 1 .08-.1.29.29 0 0 1 .27-.03c.83.34 1.6.44 2.34.33a4.48 4.48 0 0 0 2.14-1.02.3.3 0 0 1 .13-.06h.13c.05.02.08.05.11.08s.05.07.06.12c.15.98-1.72 1.76-2.42 1.87Z" fill="#82D4EC"/><path d="M45.72 24.14c.4 1.07.64 1.88.68 2.45.05.5-.12.98-.48 1.45l-.98-.47a.34.34 0 0 1-.11-.08.37.37 0 0 1-.07-.13c-.1-.3.04-.65.41-1.07a.12.12 0 0 0-.02-.2.12.12 0 0 0-.07-.01h-1.06a.3.3 0 0 1-.17-.06.3.3 0 0 1-.1-.34.3.3 0 0 1 .1-.15l1.87-1.4Z" fill="#22384A"/><path d="M18.16 25.7c-.35.35-.49.61-.43.77a2.8 2.8 0 0 0-.56 2.29.41.41 0 0 1-.07.3c-.19.3-.32.63-.41.98a.53.53 0 0 0 .04.36c.05.11.14.2.25.25a.5.5 0 0 0 .63-.21l.4-.66.09.82c.11.87-.16 1.56-.82 2.05-.6.44-1.35.43-2.22-.03-.32-.26-.71-.55-1.18-.86a2.74 2.74 0 0 1-.9-1.16 7.67 7.67 0 0 0-.74-1.29 7.7 7.7 0 0 1-1.2-2.66c.97.02 1.83.3 2.6.82a3.39 3.39 0 0 0 2.33 1.37.2.2 0 0 0 .18-.06.22.22 0 0 0 .07-.18 3.86 3.86 0 0 1 .09-1.3.14.14 0 0 0-.09-.1h-.07l-.51.1-.31-.35a.3.3 0 0 1-.06-.28c.05-.14.13-.28.25-.42l.66-.7c.4-.46 1.05-.71 1.94-.75a.15.15 0 0 1 .11.05.15.15 0 0 1 .04.12l-.11.73Z" fill="#1C262E"/><path d="M36.39 24.76c.26.38.43.8.5 1.26-.08.79 0 1.56.24 2.32a.2.2 0 0 0 .08.1.2.2 0 0 0 .25-.02.2.2 0 0 0 .06-.11l.08-.56a.11.11 0 0 1 .07-.09c.14-.05.22.01.24.19 0 .06.03.12.07.18.03.05.08.1.13.12a.3.3 0 0 0 .33 0A3.3 3.3 0 0 0 40 25.74c.04.1.06.22.06.34-.26 1.15 0 2.08.8 2.8.98.9 1.67.05 2.62.23-.31.16-.63.36-.94.6-.38.26-.7.45-.95.55-1.83.7-3.63.55-5.4-.44.43-.58.52-1.28.29-2.1a.2.2 0 0 0-.14-.14.2.2 0 0 0-.19.05c-.05.05-.09.15-.1.29l.34-3.16Z" fill="#8996A3"/><path d="M40 25.74a3.3 3.3 0 0 1-1.56 2.4.3.3 0 0 1-.16.06.33.33 0 0 1-.17-.05.39.39 0 0 1-.13-.12.43.43 0 0 1-.07-.18c-.02-.18-.1-.24-.24-.19a.11.11 0 0 0-.07.1l-.08.55a.2.2 0 0 1-.06.11.2.2 0 0 1-.33-.08 5.45 5.45 0 0 1-.24-2.32l1.35.54a.43.43 0 0 0 .42-.06l1.26-1a.1.1 0 0 1 .1 0 .09.09 0 0 1 .03.12l-.05.12Z" fill="#D8D9D8"/><path d="M15.52 26.25c-.12.14-.2.28-.25.42a.3.3 0 0 0 .06.28l.3.36-1.99.16a4.66 4.66 0 0 0-2.6-.82c.42.16.29-.13-.39-.87 1.73.94 2.37.85 1.9-.24l2.97.71Z" fill="#838383"/><path d="M19.57 28.65c.08-.67.37-1.22.85-1.63.11-.22.14-.46.09-.74a.36.36 0 0 1 .15-.37.34.34 0 0 1 .39 0c1.05.77 1.7 3.09 1.8 4.12.06.6-.06 1.34-.36 2.24a.9.9 0 0 1-.64.58h-.02a.28.28 0 0 1-.34-.2.3.3 0 0 1 0-.16 3.2 3.2 0 0 0-.7-3.28c-.2-.21-.44-.26-.72-.15-.3.12-.46-.01-.5-.4ZM17.73 26.47c.14.07.24.18.3.32.03.1.02.25-.03.44-.25.87-.25 1.72 0 2.55l-.39.66a.5.5 0 0 1-.63.21.5.5 0 0 1-.25-.25.53.53 0 0 1-.04-.36c.09-.35.22-.68.41-.97a.42.42 0 0 0 .07-.31 2.8 2.8 0 0 1 .56-2.29ZM36.2 29.82l-.44.36.3-2.26c0-.14.04-.24.1-.3a.2.2 0 0 1 .18-.04.2.2 0 0 1 .14.14c.23.82.14 1.52-.28 2.1Z" fill="#22384A"/><path d="M22.42 29.42a.5.5 0 0 1-.03.36.48.48 0 0 1-.27.25.46.46 0 0 1-.36-.03.48.48 0 0 1-.24-.28l-.36-1.04a.44.44 0 0 1 .1-.46.41.41 0 0 1 .15-.09l.16-.06a.41.41 0 0 1 .46.13l.08.15.31 1.07ZM32.95 32.62c.25.85-.2.84-1.34-.03-.58-.62-1.19-.6-1.82.08l-1.78.1-.17-3.05a.19.19 0 0 1 .18-.2h1.11c.07 0 .14.03.18.07.05.05.08.12.08.19v1.25a.18.18 0 0 0 .09.15.17.17 0 0 0 .17 0c1.23-.81 3.09-.19 3.3 1.44Z" fill="#4597AE"/><path d="m20 30.18.08.04c.01 0 .02 0 .03-.02l.02-.03c.03-.2.17-.32.4-.36h.11c.04.02.08.04.1.07.44.48.63.85.6 1.11-.1.61-.2 1.13-.35 1.56a.29.29 0 0 1-.1.14.28.28 0 0 1-.42-.11c-.2-.44-.45-.81-.74-1.13a.51.51 0 0 1-.14-.33c0-.23.13-.54.4-.94H20ZM18.82 30.67A5.24 5.24 0 0 1 20 33.29a.3.3 0 0 1-.16.2.3.3 0 0 1-.13.03c-.89.02-1.7-.27-2.43-.87.66-.5.93-1.18.82-2.05.26.08.5.1.72.07Z" fill="#D8D9D8"/><path d="M15.02 31.36a.26.26 0 0 1-.08-.4.25.25 0 0 1 .13-.07c.72-.24 1.29-.22 1.7.05a.55.55 0 0 1 .2.67.54.54 0 0 1-.26.27.52.52 0 0 1-.36.04c-.4-.1-.84-.29-1.33-.56Z" fill="#22384A"/><path d="M29.79 32.67c-.35.55-.35 1.06.01 1.54a.7.7 0 0 0 .25.2c1.23.62 2.18-.64 1.56-1.82 1.14.87 1.59.88 1.34.03.3 1.86-.37 2.94-2.03 3.25-1.16.22-2.03-.21-2.6-1.3a4.36 4.36 0 0 1-.3-1.8l1.77-.1Z" fill="#5AAF88"/><path d="M33.9 37.86c-.26.6-.67 1.18-1.23 1.75l-.75 1.66h-.02l.68-1.92a.1.1 0 0 0 0-.08.08.08 0 0 0-.06-.04c-.12-.02-.18.07-.19.26 0 .07-.02.13-.06.17l-.56.7a.05.05 0 0 1-.03.02.07.07 0 0 1-.01-.08l.37-.66a.02.02 0 0 0 0-.03h-.68a.22.22 0 0 1-.18-.1 1.2 1.2 0 0 1-.23-.63.19.19 0 0 0-.13-.17.19.19 0 0 0-.08-.01l-2.54.27-1.11.12-1.1-.13a.21.21 0 0 1-.13-.06.22.22 0 0 1 .1-.37c1.54-.48 3.08-.77 4.6-.87 1.14-.08 2.22.07 3.35.2Z" fill="#D8D9D8"/><path d="M32.67 39.6a7.68 7.68 0 0 1-2.84 5.33.3.3 0 0 1-.28.05 7.44 7.44 0 0 1-2.67-1.56.1.1 0 0 1 .02-.12l.06-.06H27c.55.45 1.18 1.05 1.31 1.1h.03l.02-.02a.04.04 0 0 0 0-.05L26.8 42.5l.78.75a.01.01 0 0 0 .02 0 .01.01 0 0 0 0-.02c-.44-.78-.86-1.58-1.26-2.37 1.38.54 1.76-.75 1.86-1.88l2.54-.27a.18.18 0 0 1 .2.1v.08c0 .17.08.38.24.62a.22.22 0 0 0 .18.1h.67v.02a.02.02 0 0 1 .01.02l-.37.66a.07.07 0 0 0 0 .08.04.04 0 0 0 .04-.01l.56-.7c.04-.05.06-.11.06-.18.01-.19.07-.28.19-.26a.08.08 0 0 1 .05.04l.01.04a.1.1 0 0 1 0 .04l-.68 1.91v.01h.02l.75-1.66Z" fill="#82D4EC"/><path d="M28.2 38.97c-.1 1.13-.48 2.42-1.86 1.88a59.32 59.32 0 0 0 1.25 2.4v-.01l-.8-.75-1.54-2.6c.5-.45 1.1-.72 1.84-.8l1.1-.12ZM31.95 39.38c-.39.1-.64.1-.76 0a.1.1 0 0 1-.02-.12.1.1 0 0 1 .11-.06l.66.1a.04.04 0 0 1 .05.04v.02h-.01a.04.04 0 0 1-.03.02Z" fill="#4597AE"/></svg>