<svg width="112" height="112" viewBox="0 0 56 56" xmlns="http://www.w3.org/2000/svg"><rect fill="#F0F3FA" width="56" height="56" rx="28"/><path d="M44 28a16 16 0 1 1-32 0 16 16 0 0 1 32 0Z" fill="url(#a34inezdu)" fill-opacity=".3"/><path fill-rule="evenodd" d="M28 42.88a14.89 14.89 0 1 0 0-29.77 14.89 14.89 0 0 0 0 29.77ZM28 44a16 16 0 1 0 0-32 16 16 0 0 0 0 32Z" fill="url(#b34inezdu)"/><path d="m19.05 35.69 6.39-5.79c.58.3 1.62 1 1.66 1.98l-5.65 6.23c-.8-.02-2.4-.54-2.4-2.42Zm2.11.75a.5.5 0 1 0 0-.99.5.5 0 0 0 0 1Z" fill="url(#c34inezdu)"/><path d="m27.31 29.29 6.57 2.8 1.4-1.48-.24-.3.66-.52.68.88-2.29 2.4-6.57-2.78-1.04 1.13-.62-.57 1.45-1.56Z" fill="#737071"/><path d="M26.64 18.03c-2 .29-3.32 2.4-3.73 3.4l9.98 10.07a3.64 3.64 0 0 0 3.69-3.37l-9.94-10.1Z" fill="#B38C68"/><path d="M24.59 19.87c-.42.16-.82 1.6-.96 2.29l8.94 9.02c1.67-.13 2.11-.96 2.13-1.36.44-.1 1.47-1.22 1.92-1.77l-9.82-9.98c-.34.16-1 .57-1 .92 0 .44-.69.68-1.21.88Z" fill="url(#d34inezdu)"/><path d="m32.53 12.01-5.81 6.18 9.8 9.87 7.4-7.42V12H32.53Z" fill="url(#e34inezdu)"/><defs><linearGradient id="a34inezdu" x1="17.69" y1="15.86" x2="37.51" y2="40.12" gradientUnits="userSpaceOnUse"><stop stop-color="#99817E"/><stop offset=".25" stop-color="#948680"/><stop offset=".51" stop-color="#7C988B"/><stop offset=".77" stop-color="#7B90A1"/><stop offset="1" stop-color="#868A9F"/></linearGradient><linearGradient id="b34inezdu" x1="17.93" y1="15.12" x2="36.9" y2="40.86" gradientUnits="userSpaceOnUse"><stop stop-color="#FF413F"/><stop offset=".16" stop-color="#FD9819"/><stop offset=".36" stop-color="#FCC008"/><stop offset=".51" stop-color="#45C391"/><stop offset=".7" stop-color="#D69B70"/><stop offset=".86" stop-color="#A767E5"/><stop offset="1" stop-color="#6A8AEF"/></linearGradient><linearGradient id="c34inezdu" x1="21.39" y1="33.01" x2="24.26" y2="35.96" gradientUnits="userSpaceOnUse"><stop stop-color="#D02612"/><stop offset=".48" stop-color="#EB4F2E"/><stop offset="1" stop-color="#841F0C"/></linearGradient><linearGradient id="d34inezdu" x1="25.27" y1="20.17" x2="34.87" y2="29.59" gradientUnits="userSpaceOnUse"><stop stop-color="#0EBEFF"/><stop offset=".28" stop-color="#46CB85"/><stop offset=".51" stop-color="#FA4B4C"/><stop offset=".69" stop-color="#F9CD07"/><stop offset="1" stop-color="#AE63E4"/></linearGradient><linearGradient id="e34inezdu" x1="29.98" y1="14.63" x2="39.68" y2="24.6" gradientUnits="userSpaceOnUse"><stop stop-color="#79DBFF"/><stop offset=".29" stop-color="#77DC9B"/><stop offset=".55" stop-color="#EB6F69"/><stop offset=".73" stop-color="#FEE074"/><stop offset="1" stop-color="#C58FEC"/></linearGradient></defs></svg>