<svg width="112" height="112" viewBox="0 0 56 56" xmlns="http://www.w3.org/2000/svg"><rect fill="#F0F3FA" width="56" height="56" rx="28"/><path d="M39.24 11c-.54 1.43-1.4 4.5-1.94 5.94a.3.3 0 0 0 .02.22c.13.23.3.45.41.69.39.76.46 1.56.18 2.37-.2.55-.5 1.03-.86 1.46-.08.1-.08.16-.02.26.25.36.4.76.49 1.2.04.23.1.42.33.56.65.42 1.27.87 1.91 1.3.36.25.7.48 1.07.7.33.2.67.35 1 .54a3 3 0 0 1 1.45 1.61c.13.42.19.86.28 1.29.01.07 0 .15.1.17.28.05.33.12.34.4v1.46c0 .39-.16.6-.52.75l-.24.09c-.11.03-.16.1-.16.23.03.47-.07.35.37.58l.07.03c.2.11.25.27.15.47-.05.13-.11.26-.18.38a.48.48 0 0 1-.57.26c-.15-.04-.3-.1-.44-.13-.06-.01-.16 0-.2.05-.48.59-1.13.88-1.85 1-1.2.24-2.43.07-3.53-.46-.52-.24-1.02-.52-1.54-.78-.3-.14-.6-.28-.93-.28-.8 0-1.54.2-2.25.58-.1.05-.13.1-.09.22l.26.76c.3.8.76 1.55 1.35 2.19a8.02 8.02 0 0 0 2.5 1.78c.9.43 1.83.81 2.75 1.22l.16.1-.15.05c-.5.07-1 .12-1.5.21-1 .18-1.97.4-2.92.73-1.3.46-2.59.93-3.87 1.42-1.03.4-2.07.75-3.15.99-.79.17-1.58.29-2.39.35-1.87.14-3.69-.06-5.43-.8a7.9 7.9 0 0 1-3.34-2.62 9.62 9.62 0 0 1-1.73-4.81c-.11-1.08-.1-2.17.04-3.25.01-.1-.02-.15-.1-.19-.2-.09-.39-.19-.57-.3-.66-.43-1.23-.99-1.81-1.52l-.06-.1 2.17-.26a6.31 6.31 0 0 1-3.3-2.49.3.3 0 0 1 .16-.02l.56.1c.53.06 1.05.03 1.56-.15.61-.2 1.14-.62 1.5-1.17.53-.82 1.05-1.65 1.55-2.5.66-1.1 1.34-2.18 2.22-3.12l.41-.43-.07-.04a2.2 2.2 0 0 0-.12-.04 2.3 2.3 0 0 1-1.67-1.91c-.09-.56-.14-1.13-.2-1.7l.02-.12.16.11c.15.13.3.27.47.4.5.39 1.04.66 1.7.6a4.7 4.7 0 0 0 1.73-.54c.02 0 .02-.03.05-.07l-.1-.06a1.63 1.63 0 0 1-.51-1.21c0-.4.12-.75.31-1.08.42-.73 1.02-1.27 1.62-1.82l.1-.05v.17c-.02.19-.05.37-.03.55.03.44.26.65.69.6.24-.02.48-.06.71-.12.8-.2 1.6-.44 2.39-.63 1.1-.27 2.24-.37 3.37-.3.8.04 1.56.2 2.28.58.34.18.65.4.99.6l.06-.11c.22-.45.59-.8 1.03-1.02.18-.08.21-.06.26.14.16.71.46 1.32 1.12 1.7.2.13.2.14.34-.05.76-.95 2.59-2.96 3.35-3.9h.23m-3.4 10.65c-.05-.04-.1-.1-.15-.11-.05-.02-.1 0-.16 0l-.11.05c-1.43.37-2.57-.06-3.38-1.43l-.22-.41a.28.28 0 0 0-.12-.1c-.25-.1-.5-.23-.75-.32a.4.4 0 0 1-.25-.27 7.38 7.38 0 0 0-2.21-3.1c-.34-.28-.7-.52-1.1-.7v.11c.37.84.73 1.69 1.13 2.51.25.53.6 1 1.13 1.28.13.07.26.12.42.19l-.86.16c-1.34.25-2.6.82-3.68 1.64a9.72 9.72 0 0 0-3.33 4.72 11.24 11.24 0 0 0-.56 4.96c.23 1.99.91 3.8 2.22 5.32a8.16 8.16 0 0 0 3.97 2.56l.87.22.15.02a13.52 13.52 0 0 1-3.23-5.87 13.73 13.73 0 0 0 6.58 5.3l.04-.04-.44-.5a8.57 8.57 0 0 1-1.78-2.99c-.1-.3-.16-.6-.24-.9a.28.28 0 0 0-.13-.16 7.53 7.53 0 0 1-2.8-2.16 5.95 5.95 0 0 1-1.35-3.27c-.1-1.17.2-2.25.8-3.24.05-.06.1-.12.17-.15l-.06.36c-.14.62-.2 1.25-.19 1.89 0 .94.19 1.84.65 2.66a4.07 4.07 0 0 0 2.69 2.04c1.5.36 2.9.04 4.2-.76.35-.22.65-.49.98-.73l.07-.1a2.5 2.5 0 0 1-1.38-2.05c-.03-.32.01-.63.13-.93.07.18.13.34.2.48.28.62.79.96 1.44 1.04.5.06 1 .04 1.5.07.41.02.82.02 1.22.07.17.02.32.13.47.22.05.03.06.11.1.17-.06.02-.12.06-.18.06l-1.14.08-.11.02.16.13c1.01.61 2.07 1.12 3.2 1.45.64.2 1.3.32 1.96.25.24-.03.47-.11.7-.2.06-.01.11-.11.12-.19.02-.12.01-.26.01-.43-.4.22-.77.35-1.2.27a2.53 2.53 0 0 0 .57-.38.66.66 0 0 0 .23-.52c-.02-.56-.01-1.12-.21-1.66-.19-.5-.51-.91-.89-1.28l-.07-.04h-.05l.16 1.27-.03.02-.32-.54-.58-.98a.65.65 0 0 0-.18-.2l-4.95-3.4a.72.72 0 0 1-.2-.17l1.22.16a2.57 2.57 0 0 0-.87-1.47Zm-21.12 9.46c.6.14 1.22.2 1.83.15a2.6 2.6 0 0 0 2.27-1.74 2.92 2.92 0 0 1-2.1 1.16l-.03-.04.35-.18c.55-.32.94-.8 1.27-1.34.48-.75.93-1.53 1.39-2.3.5-.84 1.04-1.67 1.72-2.39.2-.21.42-.4.63-.61l.14-.13-.02-.04-.62.3a6.69 6.69 0 0 0-2.58 2.66c-.4.7-.79 1.4-1.22 2.08a4.37 4.37 0 0 1-2.12 1.83c-.42.16-.87.25-1.31.37l-.14.04v.05l.54.13Zm21.67.06c-.01.13.1.14.2.16.44.09.88.18 1.32.3l-.13.02-1.14.1c-.19.01-.21.04-.14.22.06.18.15.35.24.52.05.1.13.12.24.1a14.44 14.44 0 0 1 5.2-.15c.13.02.17-.03.15-.17-.02-.11-.1-.1-.17-.1-.4-.04-.82-.06-1.23-.12a8.86 8.86 0 0 1-1.99-.62c-.8-.33-1.58-.73-2.31-1.2-.03-.03-.06-.04-.15-.08l-.09 1.02ZM24.21 16.82c-1.01.19-1.92.66-2.86 1.03-.53.2-1.07.42-1.62.59-.55.16-1.12.18-1.67-.01-.14-.05-.28-.12-.44-.2l.03.1c.27.61.8.86 1.47.73.6-.11 1.16-.34 1.72-.57.77-.32 1.54-.64 2.32-.92 1.58-.55 3.32-.13 4.07 1l.08-.06a2.74 2.74 0 0 0-3.1-1.69Zm10.51.73c.3.37.7.64 1.16.77.03 0 .1-.02.12-.05l.5-1.3c.01-.03-.02-.1-.05-.13l-.73-.5c-.04-.03-.14-.03-.16 0l-.85 1.06-.04.07.05.08Zm-.01 3.68c.26-.66.52-1.33.76-2 .02-.04-.03-.15-.08-.18-.37-.27-.74-.54-1.12-.79-.05-.03-.2-.03-.23.02-.45.53-.88 1.07-1.31 1.62-.03.03-.04.07-.06.1 0 0 .65 1.46 2.04 1.23Zm6.91 12.03a8.24 8.24 0 0 0-3.27-.01c.76.75 2.64.75 3.27 0Zm-4.88-18.42-.69.86c-.08.1-.07.17.02.24l.45.33c.1.08.16.05.2-.07l.59-1.53.35-.93-.03-.02-.9 1.12Zm-1.58 16.7c-.02.48.33.97.84 1.16a6.15 6.15 0 0 1-.23-2.61c-.3.44-.58.9-.6 1.46Z"/><path d="M22.43 15.46c-.73.11-.58-1.12-.42-1.74-1.79 2.34-.65 3.16.14 3.27 1.28.17 3-1.53 4.25-1.53 1.46 0 2.5.9 2.85 1.32 1.9-.83 3.35.17 3.84.77-3.7-7.25-9.76-2.23-10.66-2.1Z" fill="url(#aiwi1ka3c)"/><path d="M13.09 28.2c1.97 2.75 3.66.82 4.95-1.31 2.43-4.07 5.38-6.77 10.17-7.95-4.03.56-6.7 1.78-8.5 3.14-1.96 1.48-2.72 3.45-4.15 5.3a2.6 2.6 0 0 1-.8.69 2 2 0 0 1-1.67.14Z" fill="url(#biwi1ka3c)"/><path d="M16.55 31.27c-.61.04-1.23 0-1.83-.15l-.41-.1-.14-.03v-.05l.15-.04.41-.1c.3-.08.61-.16.9-.27.91-.35 1.6-1 2.12-1.83.32-.5.62-1.02.91-1.53l.31-.55a6.69 6.69 0 0 1 3.2-2.96l.02.04-.14.13a19.96 19.96 0 0 1-.63.61c-.68.72-1.21 1.55-1.72 2.4l-.41.69c-.32.54-.64 1.07-.98 1.6a3.86 3.86 0 0 1-1.27 1.34l-.25.13-.1.05.03.04a2.92 2.92 0 0 0 2.1-1.16 2.6 2.6 0 0 1-2.27 1.74Z" fill="url(#ciwi1ka3c)"/><path d="M22.06 17.56c.7-.3 1.4-.6 2.15-.74a2.74 2.74 0 0 1 3.1 1.7l-.08.04c-.75-1.12-2.49-1.54-4.07-.99-.7.25-1.39.53-2.08.81l-.24.1-.02.01c-.55.23-1.1.46-1.7.57-.67.13-1.2-.12-1.47-.72l-.02-.06v-.05l.13.07c.1.05.2.1.3.13.55.19 1.12.17 1.67 0 .54-.16 1.06-.36 1.58-.57l.04-.01.7-.3Z" fill="url(#diwi1ka3c)"/><path d="M33.5 17c-1.11-1.4-.32-2.77.21-3.28a1.9 1.9 0 0 0 .98 2.02l-1.19 1.25Z" fill="url(#eiwi1ka3c)"/><path d="M36.78 17.62c.4.53.88 2-.35 3.62-.26-.46-.54-1.84.35-3.62Z" fill="url(#fiwi1ka3c)"/><path d="M20.34 20.4c.79-1.36 3.13-3.69 6.2-2.01a6.53 6.53 0 0 0-6.2 2.02Z" fill="url(#giwi1ka3c)"/><path d="M20.9 27.72c-1.38 1.28-4.08 4.73-3.9 8.3.08-1.24 1-4.62 3.9-8.3Z" fill="url(#hiwi1ka3c)"/><path d="M20.06 40.96c-3.74-2.29-1.56-7.5 0-9.82-.32.8-.48 2.53.53 4.38 1.35 2.47 3.75 3.58 6.43 4.02 3.29.55 7.16.32 9.34.03-3.88 1.41-12.57 3.67-16.3 1.39Z" fill="url(#iiwi1ka3c)"/><path d="M34.72 17.55c.3.37.7.64 1.16.77.03 0 .1-.02.12-.05l.5-1.3c.01-.03-.02-.1-.05-.13a19.1 19.1 0 0 0-.73-.5c-.04-.03-.14-.03-.16 0l-.71.88-.14.18-.03.04-.01.03a1.76 1.76 0 0 1 .05.08Z" fill="url(#jiwi1ka3c)"/><path d="M34.7 21.23c.27-.66.53-1.33.77-2 .02-.04-.03-.15-.08-.18-.37-.27-.74-.54-1.12-.79-.05-.03-.2-.03-.23.02l-1.13 1.39-.18.23a.38.38 0 0 0-.04.07l-.02.04s.65 1.45 2.04 1.22Z" fill="url(#kiwi1ka3c)"/><path d="M36.74 14.84a48.69 48.69 0 0 0-.69.86c-.08.1-.07.17.02.24l.3.22.15.11c.1.08.16.05.2-.07l.39-1v-.01l.2-.52.35-.93-.03-.02-.9 1.12Z" fill="#F0C113"/><path d="m35.84 21.66-.04-.03a.38.38 0 0 0-.11-.08c-.04-.02-.1 0-.14 0h-.02a.26.26 0 0 0-.06.03.28.28 0 0 1-.05.02c-1.43.37-2.57-.06-3.38-1.43a3.39 3.39 0 0 1-.11-.2l-.11-.21a.28.28 0 0 0-.12-.1 33.35 33.35 0 0 1-.9-.43.41.41 0 0 1-.1-.16 7.38 7.38 0 0 0-2.21-3.1c-.34-.28-.7-.52-1.1-.7v.11l.3.68c.27.61.54 1.23.83 1.83a2.75 2.75 0 0 0 1.4 1.4l.15.07-.26.05-.6.1c-1.34.26-2.6.83-3.68 1.65a9.72 9.72 0 0 0-3.33 4.72 11.24 11.24 0 0 0-.56 4.96c.23 1.99.91 3.8 2.22 5.32a8.16 8.16 0 0 0 4.58 2.72l.26.06.07.01h.08a13.52 13.52 0 0 1-3.23-5.86 13.73 13.73 0 0 0 6.58 5.3l.04-.04-.08-.09-.36-.4a8.57 8.57 0 0 1-1.92-3.51l-.1-.39a.28.28 0 0 0-.13-.16 7.53 7.53 0 0 1-2.8-2.16 5.95 5.95 0 0 1-1.35-3.27c-.1-1.17.2-2.25.8-3.24.05-.06.1-.12.17-.15l-.02.11-.04.25c-.14.62-.2 1.25-.19 1.89 0 .94.19 1.84.65 2.66a4.07 4.07 0 0 0 2.69 2.04c1.5.36 2.9.04 4.2-.76.24-.15.46-.33.68-.5a16.08 16.08 0 0 1 .34-.28l.03-.05a2.5 2.5 0 0 1-1.38-2.05c-.03-.32.01-.63.13-.93l.07.19.13.3c.28.61.79.95 1.44 1.03.33.04.67.05 1 .05a18.92 18.92 0 0 1 1.72.09c.14.02.27.1.39.17l.08.05c.03.02.05.07.07.11l.03.06a.87.87 0 0 0-.06.02.39.39 0 0 1-.12.04l-.76.05-.38.03h-.06l-.05.02.06.05.1.08c1.01.61 2.07 1.12 3.2 1.45.64.2 1.3.32 1.96.25.23-.03.45-.1.67-.18l.03-.01c.06-.02.11-.12.12-.2.02-.08.02-.17.01-.28v-.15c-.4.22-.77.35-1.2.27l.08-.04.2-.1.3-.23a.66.66 0 0 0 .22-.53v-.12a4.68 4.68 0 0 0-.21-1.54 3.55 3.55 0 0 0-.95-1.32h-.06l.16 1.27-.03.02a51.74 51.74 0 0 0-.32-.54l-.2-.33-.38-.65a.65.65 0 0 0-.18-.2 3188.38 3188.38 0 0 0-4.95-3.4.72.72 0 0 1-.2-.17l1.22.16a2.57 2.57 0 0 0-.87-1.47Z" fill="url(#liwi1ka3c)"/><path d="M41.62 33.26a8.24 8.24 0 0 0-3.27-.01c.76.75 2.64.75 3.27 0Z" fill="url(#miwi1ka3c)"/><path d="M35.16 31.55c-.02.47.33.96.84 1.15a6.14 6.14 0 0 1-.23-2.61c-.3.44-.58.9-.6 1.46Z" fill="url(#niwi1ka3c)"/><path d="M29.4 22.57c.18-.24.68-.7 1.18-.7.4 0 1.18.62 2.15 1.39l.43.34c.16.12.41-.2.48-.96.77.96.4 1.67.4 1.67l1.35 1.11c-.6-.25-1.94-.83-2.44-1.11-.35.12-1 .25-1.55.07-.57-.19-.72-.6-.91-1.1l-.02-.05-.24-.66h-.84Zm1.46-.07c0 .48.27 1.46.83 1.46h.84a3.87 3.87 0 0 0-1.67-1.46ZM37.27 25.98c.67-.17 1.3 1 1.53 1.6-.3-.25-.95-.76-1.12-.76-.16 0-.25.18-.27.27-.5-.14-.7-.97-.14-1.11Z"/><path d="M31.7 23.96c-.57 0-.84-.98-.84-1.46a3.88 3.88 0 0 1 1.67 1.46h-.84Z" fill="url(#oiwi1ka3c)"/><defs><linearGradient id="aiwi1ka3c" x1="32.81" y1="17.2" x2="20.89" y2="16.09" gradientUnits="userSpaceOnUse"><stop stop-color="#623F03"/><stop offset="1" stop-color="#240E00"/></linearGradient><linearGradient id="biwi1ka3c" x1="27.93" y1="18.94" x2="12.53" y2="28.7" gradientUnits="userSpaceOnUse"><stop stop-color="#573500"/><stop offset="1" stop-color="#240E00"/></linearGradient><linearGradient id="ciwi1ka3c" x1="21.8" y1="24.03" x2="15.11" y2="30.79" gradientUnits="userSpaceOnUse"><stop stop-color="#D7951D"/><stop offset="1" stop-color="#BB6628"/></linearGradient><linearGradient id="diwi1ka3c" x1="27.3" y1="18.32" x2="17.48" y2="18.32" gradientUnits="userSpaceOnUse"><stop stop-color="#E9B516"/><stop offset="1" stop-color="#BB6628"/></linearGradient><linearGradient id="eiwi1ka3c" x1="33.09" y1="14.69" x2="34.2" y2="16.23" gradientUnits="userSpaceOnUse"><stop stop-color="#240E00"/><stop offset="1" stop-color="#523100"/></linearGradient><linearGradient id="fiwi1ka3c" x1="36.22" y1="18.73" x2="37.2" y2="19.29" gradientUnits="userSpaceOnUse"><stop stop-color="#3A1F00"/><stop offset="1" stop-color="#482900"/></linearGradient><linearGradient id="giwi1ka3c" x1="26.05" y1="18.32" x2="20.34" y2="20.06" gradientUnits="userSpaceOnUse"><stop stop-color="#5C3800"/><stop offset="1" stop-color="#240E00"/></linearGradient><linearGradient id="hiwi1ka3c" x1="18.94" y1="27.72" x2="18.94" y2="36.01" gradientUnits="userSpaceOnUse"><stop stop-color="#573500"/><stop offset="1" stop-color="#240E00"/></linearGradient><linearGradient id="iiwi1ka3c" x1="19.43" y1="32.95" x2="34.69" y2="40.54" gradientUnits="userSpaceOnUse"><stop stop-color="#240E00"/><stop offset="1" stop-color="#573500"/></linearGradient><linearGradient id="jiwi1ka3c" x1="36.64" y1="13.79" x2="29.18" y2="38.66" gradientUnits="userSpaceOnUse"><stop offset=".02" stop-color="#F0C113"/><stop offset=".45" stop-color="#F3C712"/></linearGradient><linearGradient id="kiwi1ka3c" x1="36.64" y1="13.79" x2="29.18" y2="38.66" gradientUnits="userSpaceOnUse"><stop offset=".02" stop-color="#F0C113"/><stop offset=".45" stop-color="#F3C712"/></linearGradient><linearGradient id="liwi1ka3c" x1="36.64" y1="13.79" x2="29.18" y2="38.66" gradientUnits="userSpaceOnUse"><stop offset=".02" stop-color="#F0C113"/><stop offset=".45" stop-color="#F3C712"/><stop offset="1" stop-color="#C97D22"/></linearGradient><linearGradient id="miwi1ka3c" x1="36.64" y1="13.79" x2="29.18" y2="38.66" gradientUnits="userSpaceOnUse"><stop offset=".45" stop-color="#F3C712"/><stop offset="1" stop-color="#C97D22"/></linearGradient><linearGradient id="niwi1ka3c" x1="36.64" y1="13.79" x2="29.18" y2="38.66" gradientUnits="userSpaceOnUse"><stop offset=".45" stop-color="#F3C712"/><stop offset="1" stop-color="#C97D22"/></linearGradient><linearGradient id="oiwi1ka3c" x1="30.93" y1="22.84" x2="32.6" y2="23.96" gradientUnits="userSpaceOnUse"><stop stop-color="#D08B1F"/><stop offset=".5" stop-color="#F0C113"/><stop offset="1" stop-color="#D8981D"/></linearGradient></defs></svg>