<svg width="224" height="224" viewBox="0 0 56 56" xmlns="http://www.w3.org/2000/svg"><path d="M33.06 11.8c.1-.02.14.04.13.15l-.03.07-1.67 1.76a.14.14 0 0 0 .04.22l.65.3a.11.11 0 0 1 .06.06.1.1 0 0 1-.02.09l-.03.05a.09.09 0 0 1-.05.04.09.09 0 0 1-.07-.01.98.98 0 0 0-.3-.17 6.46 6.46 0 0 0-3.54-.38 23.95 23.95 0 0 1-.8.1.1.1 0 0 1-.05-.1.1.1 0 0 1 .03-.06c.12-.15.2-.27.21-.36a.11.11 0 0 0-.04-.12.12.12 0 0 0-.13 0l-2.75 1.33a.12.12 0 0 0-.06.07.1.1 0 0 0 .02.1 6.93 6.93 0 0 0 2.5 2l.04-.02a.07.07 0 0 0 .01-.08l-.3-.62a.14.14 0 0 1 .03-.17.14.14 0 0 1 .18 0l1.48 1.08a.08.08 0 0 0 .09 0 .07.07 0 0 0 .02-.09l-.39-.78a.1.1 0 0 1 .02-.12.1.1 0 0 1 .13-.02 7.42 7.42 0 0 1 1.74 1.32l.05-.01a.07.07 0 0 0 .03-.08l-.25-.85a.14.14 0 0 1 .06-.17.15.15 0 0 1 .18.02l1.06 1.05a.09.09 0 0 0 .09.02l.04-.02a.09.09 0 0 0 .02-.04c.02-.15-.07-.36-.26-.64a.15.15 0 0 1 .03-.2.15.15 0 0 1 .2 0l1.23 1.21a.08.08 0 0 0 .13-.07 5.87 5.87 0 0 0-.56-1.38.08.08 0 0 1 .07-.06l.04.01.6.34a.09.09 0 0 0 .11 0 .08.08 0 0 0 0-.1 4.22 4.22 0 0 0-2.47-1.82.04.04 0 0 1 .03-.05l.93-.04c.23.28.48.52.76.7a.17.17 0 0 0 .16.01.17.17 0 0 0 .1-.13c.16-1.09.44-2.07.84-2.96a.9.9 0 0 1 .4-.44.08.08 0 0 1 .1.01c.04.04.05.1 0 .16a10.08 10.08 0 0 0-1.18 3.68c0 .1.02.21.08.3.07.1.17.18.28.23.05.02.07.05.06.1 0 .08.01.15.05.22l.23.43a.08.08 0 0 1-.02.1.09.09 0 0 1-.1.01l-.39-.22a.07.07 0 0 0-.1.04v.04l.32 1.18a.9.9 0 0 0-.47 0l-.71-.61a.13.13 0 0 0-.19.03.12.12 0 0 0-.02.06v.36a.11.11 0 0 1-.07.11.12.12 0 0 1-.13-.04 3.21 3.21 0 0 0-.92-.74.1.1 0 0 0-.06 0 .1.1 0 0 0-.05.1v.47a.05.05 0 0 1-.04.05h-.03l-1.36-.78a.1.1 0 0 0-.13.02.1.1 0 0 0-.02.04c-.03.1-.01.23.04.39a.09.09 0 0 1-.03.1.1.1 0 0 1-.1 0l-1.24-.7a.12.12 0 0 0-.17.06V17c.04.17-.02.26-.16.28l-.1-.01-1.5-.9a.74.74 0 0 1-.17-.13l-2.55-2.72a5.86 5.86 0 0 0-1.4-1.47l-.04.02a.05.05 0 0 0 0 .08c.9 1 1.63 2.09 2.22 3.27a4.05 4.05 0 0 1 .3 1.34.1.1 0 0 1-.06.06l-.04.01a.33.33 0 0 1-.16-.05c.09-.3.07-.6-.07-.88a7.52 7.52 0 0 0-1.21-1.82 8.7 8.7 0 0 0-1.53-1.96.44.44 0 0 0-.52-.07.43.43 0 0 0-.14.12c-.07.1-.13.23-.17.4a10.06 10.06 0 0 0-.2 4.56c.18.93.7 1.85 1.59 2.77-.08.05-.11.21-.1.5-.37-.07-.89-.06-1 .36a.72.72 0 0 0 .03.48c-.48.57-.8 1.03-.96 1.77a2.72 2.72 0 0 1-.75 1.32.07.07 0 0 0 .07.08h.62a.1.1 0 0 1 .09.05.1.1 0 0 1 0 .1l-.33.56a.09.09 0 0 0 0 .07.08.08 0 0 0 .04.05l.56.26a.1.1 0 0 1 .02.14l-.39.4a.11.11 0 0 0 .03.17l.06.02c.54-.07.74 0 .6.22-.06-.14-.15-.16-.27-.05a.18.18 0 0 0-.05.1c-.01.09-.05.13-.1.13-.02-.18-.2-.24-.57-.2a.1.1 0 0 1-.1-.04.1.1 0 0 1 0-.12l.35-.45a.1.1 0 0 0-.03-.15.1.1 0 0 0-.06-.02h-.62a.1.1 0 0 1-.1-.06.1.1 0 0 1 .01-.11l.42-.55a.12.12 0 0 0-.03-.17.12.12 0 0 0-.06-.02h-.73a.14.14 0 0 1-.12-.08.13.13 0 0 1 .03-.15l1.18-1.17a.13.13 0 0 0 .03-.15.13.13 0 0 0-.12-.08h-.39a.11.11 0 0 1-.1-.06.1.1 0 0 1 .02-.12l.97-1.17a.38.38 0 0 0 .08-.18c.05-.37.15-.67.3-.91a.25.25 0 0 0 0-.3c-1.11-1.42-1.15-3.64-.94-5.56.15-1.3.42-2.36.83-3.18.4-.78.81-.8 1.42-.27.3.25.6.53.9.85.74.8 1.41 1.56 2.01 2.3a.24.24 0 0 0 .29.05c1.1-.54 2.08-.99 2.93-1.33.25-.1.47-.17.66-.18.02 0 .05 0 .06.02a.11.11 0 0 1 .06.11l-.03.06-.38.37a.1.1 0 0 0 .03.16 7.68 7.68 0 0 1 2.92.09.36.36 0 0 0 .34-.1l1.88-1.97Z" fill="#42463C"/><path d="M34.67 15.42c-.12-.03-.2.01-.25.11a.05.05 0 0 1-.06.04.05.05 0 0 1-.04-.06v-.13l.05-2.46-.09-1.32a.2.2 0 0 0-.11-.16c-.25-.12-.45-.06-.6.15a.28.28 0 0 1-.12.1c-.11.04-.2.04-.26-.02.45-.68 1.36-1 1.49.12.14 1.2.13 2.41-.01 3.63Z" fill="#42463C"/><path d="m34.37 12.92-.08-1.02a.13.13 0 0 0-.03-.06.14.14 0 0 0-.13-.06.14.14 0 0 0-.07.03l-.12.1c.04-.06.03-.12-.02-.16a.08.08 0 0 0-.09 0 .9.9 0 0 0-.4.43 11.06 11.06 0 0 0-.87 3.04.17.17 0 0 1-.23.04 3.15 3.15 0 0 1-.76-.7c.1-.07.18-.14.2-.2.1.04.2.1.3.17a.09.09 0 0 0 .07.01.09.09 0 0 0 .05-.04l.04-.05a.1.1 0 0 0-.05-.16l-.65-.3a.14.14 0 0 1-.07-.16c0-.02.01-.04.03-.05l1.67-1.76a.14.14 0 0 0 .03-.07c.01-.11-.03-.17-.13-.16.04-.06.09-.1.13-.12.06.06.15.06.26.01a.28.28 0 0 0 .11-.09c.16-.21.36-.27.61-.15a.2.2 0 0 1 .11.16l.09 1.32Z" fill="#4F6869"/><path d="m34.37 12.92-.05 2.46c.02.29-.02.53-.1.74-.15.85-.41 1.63-.79 2.34a1.5 1.5 0 0 1-.27-.44l-.32-1.18a.07.07 0 0 1 .06-.1c.01 0 .03 0 .04.02l.39.22a.08.08 0 0 0 .12-.06v-.05l-.23-.43a.4.4 0 0 1-.05-.22c0-.05-.01-.08-.06-.1a.67.67 0 0 1-.28-.23.44.44 0 0 1-.08-.3c.16-1.3.55-2.52 1.19-3.68l.12-.1a.14.14 0 0 1 .14-.02.14.14 0 0 1 .09.11l.08 1.02ZM22.52 14.08c.05.3.1.48.14.55.66.91.87 1.8.63 2.64l-.68 1a.1.1 0 0 1-.1.04h-.06a.17.17 0 0 0-.16.12 4 4 0 0 1-.74 1.47 5.55 5.55 0 0 1-1.58-2.77c-.29-1.52-.23-3.04.19-4.55.04-.18.1-.32.17-.4a.44.44 0 0 1 .32-.19.44.44 0 0 1 .34.13 8.7 8.7 0 0 1 1.53 1.96Z" fill="#FDAE78"/><path d="m32.69 18.02.67.79a.07.07 0 0 1-.03.1h-.05c-.7-.31-1.28-.19-1.76.38-.19.21-.28.46-.27.74a.12.12 0 0 0 .12.12c.02 0 .04 0 .06-.02.64-.34 1.18-.26 1.87-.24a15.67 15.67 0 0 1 .95.04l.1.14a.06.06 0 0 1 0 .07.06.06 0 0 1-.05.03c-.77-.03-1.61-.02-2.52.02-.4.02-.67.17-.84.44a.23.23 0 0 1-.2.11h-.94a.27.27 0 0 1-.18-.08l-.24-.22a.33.33 0 0 0-.16-.09 12.84 12.84 0 0 0-3.58-.15.16.16 0 0 1-.16-.08c-.07-.13-.19-.18-.35-.15.46-.16.76-.22.9-.17l3.01.31a.13.13 0 0 0 .12-.05.13.13 0 0 0 .01-.12 2.36 2.36 0 0 0-1.45-1.3.64.64 0 0 0-.22-.04c-.6.01-.9-.06-1.38.19-.52.26-.96.63-1.31 1.12a.22.22 0 0 0-.03.2l.02.04a.17.17 0 0 1-.06.2c-.27.18-.49.27-.66.27-.63 0-1.51-.08-2.64-.22 0-.29.03-.45.11-.5a4 4 0 0 0 .74-1.48.17.17 0 0 1 .16-.12h.06a.1.1 0 0 0 .1-.04l.68-.99.51-.5c.06.04.11.06.16.06a.11.11 0 0 0 .08-.03.1.1 0 0 0 .03-.09c-.06-.57-.17-1-.3-1.3a14.88 14.88 0 0 0-2.24-3.3c0-.02 0-.03.02-.04a.06.06 0 0 1 .07 0 5.87 5.87 0 0 1 1.36 1.45l2.55 2.72c.05.06.1.1.17.14l1.5.89c.04.01.07.02.1.01.14-.02.2-.1.16-.28a.11.11 0 0 1 .04-.12.12.12 0 0 1 .13 0l1.24.7a.1.1 0 0 0 .13-.05v-.05a.7.7 0 0 1-.04-.4.1.1 0 0 1 .06-.06.1.1 0 0 1 .09 0l1.36.78a.05.05 0 0 0 .07-.02v-.49a.1.1 0 0 1 .05-.1.1.1 0 0 1 .1 0c.33.2.62.44.88.74a.12.12 0 0 0 .13.04.12.12 0 0 0 .07-.1v-.37a.12.12 0 0 1 .08-.1.12.12 0 0 1 .13.01l.7.61Z" fill="#4F6869"/><path d="M31.78 14.36a.62.62 0 0 1-.2.2l-.94.04h-.02a.04.04 0 0 0 0 .05l.01.02a4.22 4.22 0 0 1 2.48 1.84c0 .02-.01.04-.03.05a.09.09 0 0 1-.1.01l-.6-.34a.08.08 0 0 0-.1.01.08.08 0 0 0-.01.09 5.87 5.87 0 0 1 .54 1.38.08.08 0 0 1-.08.04.08.08 0 0 1-.04-.02l-1.22-1.2a.15.15 0 0 0-.26.08c0 .04 0 .08.02.11.2.28.28.49.26.64a.08.08 0 0 1-.06.06.09.09 0 0 1-.09-.02l-1.06-1.05a.15.15 0 0 0-.24.05.14.14 0 0 0 0 .1l.25.85a.07.07 0 0 1-.03.08.07.07 0 0 1-.09-.01 7.42 7.42 0 0 0-1.77-1.31.1.1 0 0 0-.06.03.1.1 0 0 0-.02.12l.39.78a.07.07 0 0 1-.02.1.07.07 0 0 1-.1 0l-1.47-1.1a.14.14 0 0 0-.18 0 .14.14 0 0 0-.03.18l.3.61a.07.07 0 0 1-.01.09.08.08 0 0 1-.09.01 6.93 6.93 0 0 1-2.47-2.04v-.05a.11.11 0 0 1 .06-.07l2.75-1.34a.13.13 0 0 1 .13.01.12.12 0 0 1 .04.12c-.01.09-.09.2-.21.36a.1.1 0 0 0 .03.15 6.46 6.46 0 0 1 4.34.3Z" fill="#DFC3A1"/><path d="m23.8 16.78-.5.49c.23-.85.02-1.73-.64-2.64-.05-.07-.1-.25-.14-.55.49.54.9 1.15 1.21 1.82.14.29.16.58.07.88Z" fill="#B3A273"/><path d="M34.32 15.38v.13l.01.04a.05.05 0 0 0 .07.01s.02-.01.02-.03c.05-.1.13-.14.25-.11a13.64 13.64 0 0 1-.69 3.68.37.37 0 0 0 .1.39l1.1 1.1a.51.51 0 0 1 .06.67l-.13.17a.32.32 0 0 0-.07.2c0 .5-.12.97-.35 1.39a.22.22 0 0 0 0 .19c.1.22.28.4.55.56a.09.09 0 0 1 .03.12.1.1 0 0 1-.03.03c-.07.05-.16.06-.3.02a.14.14 0 0 0-.13.05.13.13 0 0 0-.01.15c.2.33.3.7.28 1.08a.1.1 0 0 1-.06.1.11.11 0 0 1-.12-.02.32.32 0 0 0-.1-.07.13.13 0 0 0-.16.11 4.2 4.2 0 0 1-.77 1.9c-.04.06-.22.23-.52.5-.25.23-.41.56-.5 1a.23.23 0 0 0 .07.2l1.12 1.2a38.13 38.13 0 0 0 6.67 3.24 22.03 22.03 0 0 1-2.33-.69A24.72 24.72 0 0 1 34 30.35c-.42-.3-.74-.6-.98-.91a.22.22 0 0 0-.19-.1.23.23 0 0 0-.18.11c-.49.79-.86 1.75-1.4 2.57-.57.87-.93 1.5-1.07 1.87a756.61 756.61 0 0 1-3.66 9.62c-.12.29-.32.62-.62 1l3.85-10.13c.17.08.22-.13.15-.62l1.27-2.1.81-1.59a.14.14 0 0 0 .02-.06c0-.03 0-.05-.02-.07-.01-.04-.08-.07-.18-.1-.08-.02-.15.02-.23.11-.41.48-.65.07-1.03.32-.2.13-.36.13-.46 0a.1.1 0 0 0-.13-.05.1.1 0 0 0-.04.03.97.97 0 0 1-.65.3.42.42 0 0 0-.2.1l-1.5 1.13-1.5.84-.37-.1c.47-.08.95-.32 1.44-.7l1.83-1.3a.1.1 0 0 0 .04-.08.1.1 0 0 0-.05-.08 10.96 10.96 0 0 0-4.75-1.82.06.06 0 0 1-.03-.06.06.06 0 0 1 .05-.05l.09-.01c.24.07.5.1.77.1a.7.7 0 0 1 .19 0c1.43.33 2.72 1.03 4 1.78a.31.31 0 0 0 .38-.04l.4-.4a.04.04 0 0 1 .06 0c.16.27.3.35.42.23a8.18 8.18 0 0 1 .32-.27c.02 0 .05 0 .07.02.04.01.07.04.1.09 0 .02.02.05.05.06a.2.2 0 0 0 .08.03.21.21 0 0 0 .17-.05c.17-.14.32-.31.45-.52a.09.09 0 0 1 .08-.04.09.09 0 0 1 .07.04l.08.17a.1.1 0 0 0 .1.06.1.1 0 0 0 .1-.06l.87-1.84.01-.01c.42-.35.65-.56.7-.63.32-.47.51-1.1.58-1.9-.05 0-.05-.1.01-.3.16.06.3.07.4.02a.14.14 0 0 0 .08-.19l-.32-.8-.01-.03c0-.1.05-.16.17-.17a.09.09 0 0 0 .06-.05.08.08 0 0 0 0-.07c-.05-.12-.1-.2-.15-.22a.2.2 0 0 0-.1-.02c-.04 0-.07 0-.1.02l-.78.4c-.1.07-.16.14-.18.21a5.47 5.47 0 0 0-1.03-.64 3.95 3.95 0 0 1-1.53-1.63.35.35 0 0 0-.26-.17c-.2-.03-.38-.01-.56.04a.35.35 0 0 0-.23.21l-.5 1.24c-.5.76-1.22.9-2.13.9-1.12 0-2.02-.03-2.54-1.13a.4.4 0 0 0-.36-.23c.05.01.1 0 .13-.02.04-.03.04-.07 0-.12-.13-.47.06-1.02-.69-1.04-.4-.02-.81-.02-1.22-.03a4.52 4.52 0 0 0-2.04-.18.72.72 0 0 1-.04-.48c.12-.42.64-.43 1-.36 1.13.14 2 .22 2.64.22.17 0 .4-.1.66-.27a.16.16 0 0 0 .06-.2l-.02-.04a.21.21 0 0 1 .03-.2c.35-.49.79-.86 1.3-1.12.49-.25.8-.18 1.39-.19.07 0 .15.01.22.04.7.25 1.19.68 1.45 1.3a.13.13 0 0 1-.01.12.13.13 0 0 1-.12.05l-3-.31c.75-.2 1.48-.25 2.2-.11.2.03.38.1.58.2a.07.07 0 0 0 .08-.03.07.07 0 0 0 0-.08c-.44-.54-.82-.89-1.51-1-.6-.11-1.2.1-1.76.62-.27.24-.43.44-.5.57.16-.03.28.02.35.15a.16.16 0 0 0 .16.08c1.21-.12 2.4-.07 3.58.15.06.01.12.04.16.09l.23.22c.06.05.12.08.2.08h.94a.23.23 0 0 0 .2-.11c.16-.27.43-.42.83-.44a26.64 26.64 0 0 1 2.55-.02.06.06 0 0 0 .04-.07l-.02-.03-.1-.14h-.02c-.18-.02-.49-.03-.93-.04-.69-.02-1.23-.1-1.87.24a.12.12 0 0 1-.18-.1c0-.28.08-.53.27-.74.48-.57 1.07-.7 1.76-.38a.07.07 0 0 0 .08-.02.07.07 0 0 0 0-.08l-.67-.79a.9.9 0 0 1 .47 0c.05.13.14.28.27.44l.24.25a.1.1 0 0 0 .13 0 5.93 5.93 0 0 0 .41-2.6c.1-.2.13-.44.11-.73Z" fill="#232927"/><path d="M34.21 16.12a5.94 5.94 0 0 1-.4 2.6.1.1 0 0 1-.1.01.1.1 0 0 1-.04-.02l-.24-.25c.38-.71.64-1.5.78-2.34Z" fill="#4F6869"/><path d="M26.04 19.8c-.15-.05-.45 0-.9.17.06-.13.22-.33.49-.57.57-.52 1.15-.73 1.76-.63.69.12 1.07.47 1.51 1a.07.07 0 0 1-.04.12h-.04c-.2-.1-.38-.17-.57-.2a4.84 4.84 0 0 0-2.21.11Z" fill="#DFC3A1"/><path d="M22.52 21.42c.7.25 1.35.6 1.92 1.07.03.05.03.09 0 .12-.04.03-.09.03-.14.02-.76-.2-1.47-.11-2.15.28a.07.07 0 0 0-.03.08c0 .01.01.03.03.03 0 .01.02.02.04.01.16-.02.3-.01.4.03a.07.07 0 0 1 .05.07.07.07 0 0 1-.05.07c-.6.24-1.08.57-1.44 1.01a.11.11 0 0 0 .08.18c.02 0 .05 0 .07-.02.26-.18.5-.3.71-.36a.08.08 0 0 1 .1.03.07.07 0 0 1-.02.1 6.87 6.87 0 0 0-.98 1.3v.08l.04.06.07.03c.05 0 .08.02.1.05a.13.13 0 0 1 .01.17c-.08.1-.1.18-.08.25.03.08.1.12.2.13.14.01.26.04.36.09a.14.14 0 0 1 .09.16c-.04.13.01.22.13.26l1.24.83a.1.1 0 0 1 .04.13c0 .02-.02.03-.03.04-.06.05-.09.1-.08.16 0 .04.01.07.04.1s.06.04.1.04c.23.02.44.06.63.14a1.08 1.08 0 0 0-.55-.02.07.07 0 0 0-.03.02l-.02.04a.06.06 0 0 0 .05.06l.24.07c-.18.03-.3.14-.33.3-.08.34-.14.8-.17 1.38l-.03.8a.52.52 0 0 0-.17-.15c-.06-.03-.1-.03-.13.01-.02.03-.02.08-.01.14l-.53-.65a4 4 0 0 0-.64-2.4 2.34 2.34 0 0 0-1.5-1.08.1.1 0 0 1-.08-.12.1.1 0 0 1 .02-.04l.06-.07c.13-.22-.07-.3-.6-.22a.12.12 0 0 1-.12-.07.11.11 0 0 1 .02-.13l.4-.39a.1.1 0 0 0 .02-.08.1.1 0 0 0-.05-.06l-.56-.26a.08.08 0 0 1-.05-.05.08.08 0 0 1 .01-.07l.33-.56a.1.1 0 0 0-.04-.13.1.1 0 0 0-.05-.02h-.66a.07.07 0 0 1-.01-.11c.39-.42.63-.85.73-1.29.16-.74.48-1.2.96-1.77.62-.1 1.3-.04 2.04.18Z" fill="#4F6869"/><path d="M24.44 22.49a6.31 6.31 0 0 0-1.92-1.07c.41 0 .82.01 1.22.03.75.02.56.57.7 1.04Z" fill="#00355E"/><path d="m33.44 24.04-1 .03c-.37 0-.69.13-.95.39l-2.15-1.37.5-1.24a.36.36 0 0 1 .22-.21c.18-.05.36-.07.56-.04a.35.35 0 0 1 .26.17c.45.79.96 1.33 1.53 1.63.51.27.86.48 1.03.64Z" fill="#4F6869"/><path d="M24.3 22.63c.15-.01.3.08.36.23.52 1.1 1.42 1.13 2.54 1.13.9 0 1.62-.14 2.14-.9l2.15 1.37c-.15.93.32 1.59 1.4 1.98.04.01.06.03.08.06.01.03.02.06.01.1l-.06.25h.03l.01-.03.13-.3a.21.21 0 0 1 .1-.1l.45-.22c.05-.02.1-.06.13-.1l.59-.86c-.07.8-.26 1.43-.58 1.9-.05.07-.28.28-.7.63l-.88 1.85a.1.1 0 0 1-.1.06.1.1 0 0 1-.1-.06l-.08-.17a.09.09 0 0 0-.07-.04.09.09 0 0 0-.08.04c-.13.2-.28.38-.45.52a.22.22 0 0 1-.17.05.2.2 0 0 1-.08-.03.18.18 0 0 1-.06-.06.22.22 0 0 0-.09-.1.13.13 0 0 0-.14.02 8.3 8.3 0 0 0-.25.24c-.12.12-.26.04-.42-.22a.04.04 0 0 0-.03-.02h-.03l-.4.4a.31.31 0 0 1-.38.05 14.04 14.04 0 0 0-4-1.77.71.71 0 0 0-.19-.02 2.2 2.2 0 0 1-.77-.1c-.08-.26-.27-.4-.57-.42a.17.17 0 0 1-.12-.05.17.17 0 0 1-.04-.12c0-.19-.11-.32-.36-.39a.47.47 0 0 1-.22-.13c-.27-.3-.6-.49-.97-.58-.12-.04-.17-.13-.13-.26 0-.03 0-.07-.02-.1a.14.14 0 0 0-.07-.06c-.1-.05-.22-.08-.36-.1-.1 0-.17-.04-.2-.12-.03-.07 0-.15.08-.25a.13.13 0 0 0 0-.17.18.18 0 0 0-.11-.05.13.13 0 0 1-.07-.03.14.14 0 0 1-.04-.06.17.17 0 0 1 0-.08l.02-.08a6.87 6.87 0 0 1 .98-1.27v-.05a.08.08 0 0 0-.09-.03c-.22.06-.46.18-.72.36a.12.12 0 0 1-.14-.02.11.11 0 0 1-.01-.14 3.46 3.46 0 0 1 1.47-1.04.07.07 0 0 0-.03-.11.77.77 0 0 0-.4-.03.07.07 0 0 1-.07-.04.07.07 0 0 1 .03-.08c.68-.4 1.4-.49 2.15-.28Z" fill="#ECC88A"/><path d="M34.37 24.94a1.57 1.57 0 0 0-.75-.93.1.1 0 0 1-.04-.05v-.06l.04-.07.78-.4a.23.23 0 0 1 .1-.02.2.2 0 0 1 .1.02c.04.03.1.1.15.22a.08.08 0 0 1 0 .07.09.09 0 0 1-.06.05c-.12 0-.17.07-.17.17v.03l.33.8a.14.14 0 0 1-.08.2c-.1.04-.24.03-.4-.03Z" fill="#4F6869"/><path d="M33.62 23.83a.25.25 0 0 0-.04.07v.06l.04.05c.38.21.63.52.75.93-.06.2-.06.3-.01.3l-.6.85a.34.34 0 0 1-.12.11l-.44.22a.21.21 0 0 0-.1.1l-.14.3-.01.03h-.02l.05-.25a.13.13 0 0 0-.08-.16c-1.1-.4-1.56-1.05-1.4-1.98.25-.26.57-.38.94-.39l1-.03c.02-.07.08-.14.18-.21ZM20.15 26.45l-.06.07a.1.1 0 0 0-.02.1.1.1 0 0 0 .08.06c.66.16 1.16.52 1.5 1.08a4 4 0 0 1 .64 2.4c-.23 1.9-.26 3.27.45 4.81a.17.17 0 0 0 .15.1.17.17 0 0 0 .15-.1c.38-.76.85-1.48 1.4-2.14.2.03.28.07.27.12-.48.28-.62.62-.42 1.02-.08.07-.12.2-.12.4l-.08-.46a.11.11 0 0 0-.16-.08.11.11 0 0 0-.05.05l-.75 1.28a.23.23 0 0 1-.19.11.24.24 0 0 1-.2-.09l-.27-.36a.19.19 0 0 1-.04-.06l-.32-1.1a.07.07 0 0 0-.02-.03.07.07 0 0 0-.09 0 14.96 14.96 0 0 0-.7 7.71l-.02.51-.01.02h-.02a.03.03 0 0 1-.03-.02 5.43 5.43 0 0 1-.17-1.6c.09-1.83.28-3.74.58-5.73.21-1.37.13-2.76.3-3.95a.15.15 0 0 0-.09-.16.15.15 0 0 0-.17.03c-.39.38-.77.68-1.17.92a37.8 37.8 0 0 1-4 2.09.83.83 0 0 0-.43.43c-.85 1.98-.53 4.01-.76 6.12l-.31-.35c.16-.74.3-1.45.28-2.21-.02-1.09.08-2.09.28-3 .1-.49.33-.9.68-1.22.06-.06.12-.1.2-.14 1.62-.66 3.1-1.44 4.46-2.36a4.97 4.97 0 0 0 1.16-1.3v-.1c-.34-1.22-.88-2.56-2.4-2.4l-.04-.01a.09.09 0 0 1-.05-.05.1.1 0 0 1-.01-.04c0-.07.05-.13.15-.2.06 0 .1-.03.1-.11.01-.04.03-.08.06-.1.12-.12.2-.1.28.04Z" fill="#173233"/><path d="m24.3 28.42-.08.01a.06.06 0 0 0-.05.05v.03l.03.03.1.04a10.96 10.96 0 0 1 4.69 1.82.1.1 0 0 1 0 .09.1.1 0 0 1-.03.04l-1.83 1.3-1.94-1.75a9.5 9.5 0 0 0-1.47-.59c-.17-.05-.3-.02-.4.1a.72.72 0 0 0-.16.42c.03-.58.09-1.04.17-1.38.04-.16.15-.27.33-.3.36 0 .46-.05.31-.17-.19-.08-.4-.12-.63-.14a.15.15 0 0 1-.1-.04.15.15 0 0 1-.04-.1c0-.05.02-.1.08-.16a.11.11 0 0 0 .04-.09.1.1 0 0 0-.05-.08l-1.24-.83c.38.1.7.28.96.58.06.06.14.1.23.13.25.08.37.2.36.39a.16.16 0 0 0 .1.16l.06.01c.3.02.5.16.57.43Z" fill="#B3A273"/><path d="M23.97 28.16c.15.12.04.18-.31.16l-.24-.06a.06.06 0 0 1-.03-.1l.03-.02c.18-.04.37-.03.55.02Z" fill="#42463C"/><path d="M40.71 33.37c.46.42.77.92.93 1.5.2.74.28 1.46.26 2.15-.02.74 0 1.47.1 2.2a.4.4 0 0 1-.11.2 19.52 19.52 0 0 1-15.8 5.47c-.2-.03-.29-.13-.25-.33l.06-.06c.3-.37.5-.7.62-.99.59-1.49 1.8-4.7 3.66-9.62.14-.38.5-1 1.07-1.87.54-.82.91-1.78 1.4-2.57a.22.22 0 0 1 .18-.1.23.23 0 0 1 .19.09c.24.31.56.62.98.9 1.16.82 2.62 1.6 4.38 2.35.3.14 1.09.36 2.33.68Z" fill="#00355E"/><path d="M27.13 31.82c-.5.38-.97.62-1.44.7-.34.03-.61-.03-.81-.16a8.96 8.96 0 0 1-1.75-1.55l.03-.8a.72.72 0 0 1 .15-.43c.1-.11.24-.14.4-.1a9.49 9.49 0 0 1 1.48.6l1.94 1.74Z" fill="#ECC88A"/><path d="m31.17 31.66-3.6.12 1.48-1.14a.42.42 0 0 1 .21-.08c.28-.03.5-.14.65-.3a.1.1 0 0 1 .17 0c.1.14.25.14.46 0 .38-.24.62.17 1.03-.31.08-.1.15-.13.23-.1.1.02.17.05.18.1L32 30c0 .02 0 .04-.02.06l-.8 1.59Z" fill="#B0C8BE"/><path d="M22.82 30.81a9 9 0 0 0 2.24 1.86.08.08 0 0 1-.03.1.08.08 0 0 1-.05 0c-.15-.01-.33 0-.55.06-.54.66-1 1.38-1.39 2.15a.17.17 0 0 1-.15.1.17.17 0 0 1-.15-.1c-.7-1.55-.68-2.92-.45-4.82l.53.65Z" fill="#FEF8B0"/><path d="m21.31 41.34.07.82.24 1.5-.02.07a.06.06 0 0 1-.03.03.06.06 0 0 1-.04 0A18.37 18.37 0 0 1 15.3 40c.23-2.11-.1-4.14.76-6.12a.83.83 0 0 1 .42-.43 37.78 37.78 0 0 0 4.01-2.1c.4-.23.78-.53 1.17-.9a.15.15 0 0 1 .24.03c.02.03.02.06.02.1-.17 1.18-.09 2.57-.3 3.94-.3 2-.5 3.9-.58 5.72a5.43 5.43 0 0 0 .18 1.63h.04v-.02l.04-.5Z" fill="#00355E"/><path d="M23.13 30.81a8.96 8.96 0 0 0 1.75 1.55c.2.13.47.19.81.16l.36.1c-.03.03-.04.07-.02.1 0 .03.04.05.1.07l.29.07c.1.03.2.1.26.19l1.5 2.23a.14.14 0 0 0 .12.06.15.15 0 0 0 .11-.04l1.5-1.54c.06.5.01.7-.16.62l-1.35 1.1a.24.24 0 0 1-.35-.07c-.26-.44-.58-.91-.96-1.4-.05-.06-.1-.07-.15-.03l-.1-.24c-.12-.42-.32-.67-.6-.75-.3-.08-.8-.1-1.53-.04.01-.05-.08-.09-.28-.12.22-.05.4-.07.55-.05a.08.08 0 0 0 .08-.05.08.08 0 0 0-.03-.1 9 9 0 0 1-2.21-1.82c-.01-.06 0-.1.01-.14.02-.04.07-.04.13-.01s.11.08.17.15Z" fill="#42463C"/><path d="m31.17 31.66-1.27 2.1-1.49 1.54a.14.14 0 0 1-.11.04.15.15 0 0 1-.11-.06l-1.51-2.23a.45.45 0 0 0-.26-.19l-.3-.07c-.05-.02-.08-.04-.1-.07 0-.03 0-.07.03-.1l1.51-.84 3.61-.12Z" fill="#FEF8B0"/><path d="M24.7 32.95a5.09 5.09 0 0 1 1.54.04c.28.08.48.33.6.75l-.86 1.47a.1.1 0 0 1-.14.04 1.7 1.7 0 0 0-1.09-.17.18.18 0 0 1-.2-.13l-.26-.98c-.2-.4-.06-.74.42-1.02Z" fill="#FAB032"/><path d="m24.17 34.38.17.76c.02.11.01.22-.03.33a34.97 34.97 0 0 0-1.81 7.93l-.1.03-.92-1.63-.02-.02h-.02a.05.05 0 0 0-.04.03.73.73 0 0 0-.02.35l-.07-.82c0-.43 0-.87.04-1.3a87.96 87.96 0 0 1 .65-6.4.07.07 0 0 1 .11.02l.32 1.1.04.06.27.36a.24.24 0 0 0 .2.1.24.24 0 0 0 .2-.12l.74-1.28a.11.11 0 0 1 .12-.06.11.11 0 0 1 .09.1l.08.46Z" fill="#FEF8B0"/><path d="m26.94 33.98-.7 1.3a.66.66 0 0 0-.07.24l-.03.59a46.82 46.82 0 0 1-.54 6.67c-.04.24-.05.8-.04 1.66-.17.3-.3.39-.38.28.05-.54.18-1.61.38-3.22.2-1.53.31-3.52.36-5.96a.2.2 0 0 0-.15-.2c-.3-.1-.62-.12-.98-.05a.27.27 0 0 0-.19.14 9.62 9.62 0 0 0-.68 1.9 44.4 44.4 0 0 0-1.17 6.06c-.05.35-.03.62.06.8l-.22-.1a.19.19 0 0 1-.12-.14c-.03-.18-.02-.37.03-.55.3-2.72.9-5.36 1.81-7.93.04-.1.05-.22.03-.33l-.17-.76c0-.2.04-.34.12-.41l.26.98a.18.18 0 0 0 .2.13c.4-.06.76 0 1.09.17a.1.1 0 0 0 .14-.04l.86-1.47.1.24Z" fill="#806F34"/><path d="M29.75 34.38 25.9 44.5l-.06.06c-.14.05-.24 0-.28-.12-.01-.87 0-1.42.04-1.66.31-1.93.5-4.15.54-6.67 0-.2.02-.4.03-.59.01-.08.03-.16.07-.23l.7-1.31c.06-.04.1-.03.15.02a13.14 13.14 0 0 1 1.02 1.49.23.23 0 0 0 .29-.01l1.35-1.1Z" fill="#FEF8B0"/><path d="m25.18 44.72-2.37-.53c-.09-.18-.1-.45-.06-.8.24-2 .63-4.03 1.17-6.06.2-.78.43-1.41.68-1.9a.27.27 0 0 1 .2-.14c.35-.07.67-.05.97.05a.2.2 0 0 1 .15.2 57.84 57.84 0 0 1-.36 5.96c-.2 1.6-.33 2.68-.38 3.22Z" fill="#FAB032"/><path d="M22.4 43.43a.4.4 0 0 1 0 .35c-.05.1-.14.16-.29.16-.25.01-.41-.08-.49-.27l-.24-1.5a.73.73 0 0 1 .02-.36.05.05 0 0 1 .06-.03l.02.02.91 1.63Z" fill="#B0C8BE"/><path d="M19.47 14.87v-.03l.03-.02a.07.07 0 0 1 .05-.02h.01a.06.06 0 0 1 .05.07c-.04 1.83.08 3.4 1.37 4.83a.08.08 0 0 1 0 .1.08.08 0 0 1-.1.03 2.52 2.52 0 0 1-1.4-2.06c-.11-.95-.12-1.91-.01-2.9Z" fill="#4F6869"/><path d="m33.43 14.46.14.18v.04a1.64 1.64 0 0 1-.41.97.06.06 0 0 1-.07-.02l-.03-.03v-.03c.22-.27.32-.63.3-1.09a.03.03 0 0 1 .03-.04h.02l.02.02ZM33.24 15.95l.2-.4a.04.04 0 0 1 .07 0v.02a.69.69 0 0 1-.18.44.06.06 0 0 1-.07 0 .05.05 0 0 1-.02-.06ZM21.43 14.6l.8.95c.03.03.04.07.05.12 0 .15.1.3.27.45a.06.06 0 0 1-.02.11h-.04a1.08 1.08 0 0 1-.6-.36.14.14 0 0 1-.02-.16l.03-.06a.08.08 0 0 0 0-.1 3.84 3.84 0 0 1-.58-.93c0-.02.02-.03.03-.04a.06.06 0 0 1 .08.01ZM22.51 16.94h-.3l-.04-.02a2.05 2.05 0 0 1-.67-1.14l.01-.03.03-.02h.11v.02a1.94 1.94 0 0 0 .9 1.13.04.04 0 0 1-.04.06ZM21.45 16.62l.01-.02a.04.04 0 0 1 .05 0h.01a1.65 1.65 0 0 0 .87.85v.07a.06.06 0 0 1-.03.04.06.06 0 0 1-.05 0 1.75 1.75 0 0 1-.88-.66.06.06 0 0 1 0-.04l.02-.24ZM22.2 18.03c-.34-.05-.49-.13-.46-.24a.06.06 0 0 1 .03-.05.06.06 0 0 1 .06 0l.4.19.02.02V18a.06.06 0 0 1-.06.04Z" fill="#806F34"/><path d="M33.73 19.75a2.98 2.98 0 0 0-2.3.13l-.03-.01a.04.04 0 0 1 0-.05c.26-.56.67-.87 1.24-.93.08-.01.17.01.24.06l.91.68a.07.07 0 0 1-.01.11h-.05Z" fill="#DFC3A1"/><path d="M28.47 20.72a.7.7 0 0 1 .65.43c.03.08.05.17.05.26v.5c0 .44-.18.87-.5 1.19-.3.31-.73.49-1.17.49h-.89a1.63 1.63 0 0 1-1.17-.5 1.69 1.69 0 0 1-.48-1.2v-.5c0-.18.07-.35.2-.48a.7.7 0 0 1 .5-.2h2.81ZM32.13 22.93c.15-.07.34-.1.54-.1.53-.04.57-.76.68-1.27a.3.3 0 0 0-.16-.33 1.68 1.68 0 0 0-1.6.03.13.13 0 0 0-.06.17c.1.26.16.46.15.59l-.23.04c-.19-.43-.16-.8.08-1.1.04-.06.1-.1.17-.1a7.85 7.85 0 0 1 2.23-.13.23.23 0 0 1 .12.23c-.06.5-.32 1.5.04 1.92.02.02.03.05.03.08 0 .04-.01.07-.03.09-.5.56-1.52.43-1.96-.12Z" fill="#ECC88A"/><path d="m34.58 21.24.06.03c.01.02.02.04.01.07l-.06.51c-.03.25-.08.49-.14.66-.06.17-.12.26-.16.26l-.08-.01c-.03 0-.05-.03-.07-.08a2.74 2.74 0 0 1 0-.88l.07-.52.03-.06a.09.09 0 0 1 .06-.01l.28.03Z" fill="#FAB032"/><path d="M32.67 22.82c-.2 0-.39.04-.54.1-.41-.21-.64-.5-.68-.86l.23-.04c.03.2.1.35.23.45.16.14.3.13.43-.04.18-.25.22-.58.1-1h.01a1.42 1.42 0 0 1 .65.09v.01c.13.58-.01 1.01-.43 1.3Z" fill="#FEF8B0"/><path d="M32.85 27.74c-.64.08-1.3.14-1.95.18a5.52 5.52 0 0 1-1.93-.28 8.92 8.92 0 0 1-3.35-1.87.12.12 0 0 1 .03-.12.12.12 0 0 1 .05-.03c.2-.05.34 0 .4.17a.9.9 0 0 0 .3.36c1.72 1.28 3.7 1.93 5.82 1.43a.9.9 0 0 1 .65.07c.01 0 .02 0 .02.02a.05.05 0 0 1 0 .05l-.04.02Z" fill="#232927"/><path d="M32.67 24.83c.3-.02.52-.14.5-.26 0-.13-.24-.21-.53-.2-.29.03-.51.15-.5.27 0 .13.25.2.53.19Z" fill="#4F6869"/><path d="M34.17 40.53a.2.2 0 0 1-.16.17h-.08l-2.23-.3a.21.21 0 0 1-.13-.09.2.2 0 0 1-.04-.15l.08-.6a.2.2 0 0 1 .16-.17h.08l2.23.31c.05 0 .1.04.14.08.03.05.05.1.04.16l-.09.6Z" fill="#DFC3A1"/><path d="M28.1 21.62a.82.82 0 0 0-.51-.1.12.12 0 0 0-.08.04.11.11 0 0 0-.02.09c.08.42.04.84-.36 1.05a.19.19 0 0 1-.1.02.18.18 0 0 1-.1-.04c-.28-.2-.4-.52-.36-.96a.12.12 0 0 0-.18-.1l-.16.1a.38.38 0 0 0-.16.36c.07.52.34.82.8.9-.14.21-.35.15-.62-.17a1.8 1.8 0 0 1-.38-.7.55.55 0 0 1 .02-.33.66.66 0 0 1 .21-.29c.49-.38 1.19-.44 2.1-.18.14.04.2.13.2.28-.02.07-.11.08-.3.03Z" fill="#232927"/><path d="M28.1 21.62c.2.43.19.8-.04 1.11a.24.24 0 0 1-.16.1l-1.04.15c-.45-.08-.72-.38-.8-.9a.38.38 0 0 1 .17-.37l.16-.1a.12.12 0 0 1 .13 0 .12.12 0 0 1 .05.11c-.04.44.08.76.36.96l.1.04c.03 0 .07 0 .1-.02.4-.21.44-.63.36-1.05a.11.11 0 0 1 .02-.1.11.11 0 0 1 .08-.04c.19-.02.36.02.51.11Z" fill="#FEF8B0"/></svg>