<svg width="224" height="224" viewBox="0 0 56 56" xmlns="http://www.w3.org/2000/svg"><rect fill="#F0F3FA" width="56" height="56" rx="28"/><path d="M28 45a17 17 0 1 0 0-34 17 17 0 0 0 0 34Zm0-1.51a15.06 15.06 0 1 0 0-30.13 15.06 15.06 0 0 0 0 30.13Z" fill="url(#asl33ox0p)"/><path d="M28 44.86a16.86 16.86 0 1 0 0-33.73 16.86 16.86 0 0 0 0 33.73Zm15.2-16.44a15.2 15.2 0 1 1-30.4 0 15.2 15.2 0 0 1 30.4 0ZM45 28a17 17 0 1 1-34 0 17 17 0 0 1 34 0Zm-1.94.42a15.06 15.06 0 1 1-30.12 0 15.06 15.06 0 0 1 30.12 0Z" fill="url(#bsl33ox0p)"/><ellipse cx="28" cy="28.25" rx="15.17" ry="15.42" fill="url(#csl33ox0p)"/><path d="M43.1 29.7A15.27 15.27 0 0 1 28 43.67c-3.27 0-6.3-1.05-8.78-2.85L30.43 29.7h12.68Z" fill="url(#dsl33ox0p)"/><path d="M32.38 29.7c-1.04 2.05-3.7 5.75-7.48 6.8l-4.95 4.82c-.25-.16-.5-.32-.73-.5L30.43 29.7h1.95Z" fill="#1457FC"/><path d="M27.28 27.87c-3.4.95-10.01 3.42-9.18 5.66.83 2.23 3 4 3.98 4.6l-2.86 2.7a15.47 15.47 0 0 1-6.4-12.58 15.3 15.3 0 0 1 14.46-15.4v15.02Z" fill="#C4D4F4"/><path d="M25.18 25.06c0 1.9 1.4 2.68 2.1 2.83v-5.37c-.7.05-2.1.64-2.1 2.54Z" fill="url(#esl33ox0p)"/><path d="M29.45 12.9v13.5c-.02.4.2 1.19 1.21 1.19h12.5A15.31 15.31 0 0 0 29.45 12.9Z" fill="url(#fsl33ox0p)"/><path d="M29.45 15.29c1.1.2 2.25.86 2.74 1.22 1.43.03 4.4 1.9 5.7 2.82-1.92-3.37-6.24-4.55-8.44-4.76v.72Z"/><path d="M11.1 29.86c.67.32 1.45.56 1.99.7a15.19 15.19 0 0 1 .3-5.84c-.52.97-1.23 2.14-1.56 2.14-.27 0-.37-1.36-.38-2.75a17.05 17.05 0 0 0-.35 5.75Zm18.37-16.43v-.6c2.86.24 9.38 2.1 12.49 7.69v-2.23a16.92 16.92 0 0 1 3.02 10.5l-1.92-.14v-.23c0-7.82-5.96-14.25-13.6-14.99Z"/><path d="M27 27.88V12.86h.28v15.02H27Z" fill="#8F99AB"/><defs><linearGradient id="asl33ox0p" x1="25.69" y1="11" x2="28.07" y2="44.99" gradientUnits="userSpaceOnUse"><stop stop-color="#E3EAF9"/><stop offset="1" stop-color="#787A80"/></linearGradient><linearGradient id="bsl33ox0p" x1="28" y1="11" x2="27.52" y2="43.49" gradientUnits="userSpaceOnUse"><stop/><stop offset=".73" stop-color="#9CA7B8"/><stop offset="1" stop-color="#797B81"/></linearGradient><linearGradient id="csl33ox0p" x1="33.29" y1="21.33" x2="20.14" y2="39.23" gradientUnits="userSpaceOnUse"><stop stop-color="#CDD8EC"/><stop offset=".92" stop-color="#E4ECFB"/></linearGradient><linearGradient id="dsl33ox0p" x1="29.79" y1="32.92" x2="36.26" y2="40.96" gradientUnits="userSpaceOnUse"><stop stop-color="#3D70FC"/><stop offset=".12" stop-color="#1B48FB"/><stop offset="1" stop-color="#040B94"/></linearGradient><linearGradient id="esl33ox0p" x1="25.53" y1="25.7" x2="27.27" y2="25.8" gradientUnits="userSpaceOnUse"><stop stop-color="#A6B1C2"/><stop offset="1" stop-color="#7C899F"/></linearGradient><linearGradient id="fsl33ox0p" x1="39.76" y1="18.99" x2="29.32" y2="27.21" gradientUnits="userSpaceOnUse"><stop stop-color="#377ECB"/><stop offset=".19" stop-color="#53A3FC"/><stop offset=".41" stop-color="#6EBCFC"/><stop offset=".63" stop-color="#5DA4F9"/><stop offset=".87" stop-color="#24528B"/><stop offset="1" stop-color="#4C7DAF"/></linearGradient></defs></svg>