<svg width="224" height="224" viewBox="0 0 56 56" fill="none" xmlns="http://www.w3.org/2000/svg"><path d="m16.16 20.5-4.67.26.47 9.18 4.72-.1-.52-9.34Z" fill="url(#az3ycpvlp)"/><path d="m12.46 18.98-.13-.16-.19.19.07 1.12 3.34-.18-.06-1.14-.15-.17-.13.52-.71.04-.02-.35-.13-.15-.09.51-.77.06-.02-.35-.14-.16v.51l-.85.05-.02-.34Z" fill="url(#bz3ycpvlp)"/><path d="M16.16 20.5v-.6l1.19.8.03.51-1.22-.71Z" fill="url(#cz3ycpvlp)"/><path d="m16.64 29.33-.5-8.84 1.24.72.57 8.2-1.31-.08Z" fill="#4D34B3"/><path d="m14.25 20.16-.08-1.45h.19l.08 1.45h-.19Z" fill="url(#dz3ycpvlp)"/><path d="m15.24 20.09-.09-1.46h.2l.07 1.46h-.18Z" fill="url(#ez3ycpvlp)"/><path d="m16.16 20.5-4.81.29-.04-.6 4.85-.28v.59Z" fill="url(#fz3ycpvlp)"/><path d="m15.95 20.73-4.26.24.5 8.68 4.26-.1-.5-8.82Z" fill="url(#gz3ycpvlp)"/><path d="m12.96 22.95-.85.04v-.09h.04v-.08h.04l-.06-1.16h-.04v-.07l.07-.02c.04-.06.14-.2.3-.2.16 0 .26.1.3.16h.08v.08l-.04.01.06 1.16h.04l.02.08h.04v.09Z" fill="#fff"/><path d="m12.45 21.64-.22.01.04.71h.21l-.03-.72ZM12.46 22.41l-.21.02.01.38h.22l-.02-.4ZM12.74 22.4l-.21.02.02.38h.21l-.02-.4ZM12.7 21.64l-.2.01.03.71h.21l-.03-.72Z" fill="#211759"/><path d="m14.41 22.85-.85.05v-.1h.04v-.07h.05l-.07-1.16h-.04v-.08h.08c.03-.08.14-.21.3-.21.15 0 .26.1.29.16h.08v.08l-.04.01.06 1.15h.05l.01.1h.04v.07Z" fill="#fff"/><path d="m13.9 21.54-.21.02.03.7h.22l-.04-.72ZM13.91 22.32l-.21.02.02.37h.21l-.02-.4ZM14.2 22.31l-.22.02.02.38h.22l-.02-.4ZM14.16 21.54l-.21.02.03.7h.22l-.04-.72Z" fill="#211759"/><path d="m15.87 22.77-.85.04v-.09h.04v-.08h.05l-.07-1.16H15v-.07l.08-.02c.03-.06.14-.2.3-.2.15 0 .26.1.29.16h.08v.08l-.04.01.06 1.16h.05l.01.08h.04v.09Z" fill="#fff"/><path d="m15.36 21.46-.21.01.03.71h.22l-.04-.72ZM15.37 22.23l-.21.02.02.38h.21l-.02-.4ZM15.66 22.23l-.22.01.02.38h.22l-.02-.4ZM15.62 21.46l-.21.01.03.71h.22l-.04-.72Z" fill="#211759"/><path d="m13.08 25.13-.85.04v-.08h.05V25h.04l-.07-1.16h-.04v-.08l.08-.01c.03-.07.14-.2.3-.2.15 0 .26.1.29.16h.08v.08h-.04l.06 1.16h.05l.01.09h.04v.08Z" fill="#fff"/><path d="m12.57 23.82-.21.02.03.7h.22l-.04-.72ZM12.58 24.6l-.21.02.02.37h.21l-.02-.4ZM12.87 24.6h-.21l.01.39h.22l-.02-.4ZM12.83 23.82l-.21.02.04.7h.2l-.03-.72Z" fill="#211759"/><path d="m14.54 25.04-.85.04V25h.04v-.08h.04l-.06-1.16h-.05v-.07l.08-.01c.03-.07.14-.2.3-.2.15 0 .26.1.3.15h.08v.08l-.04.02.06 1.15h.04l.01.09h.05v.08Z" fill="#fff"/><path d="m14.03 23.73-.22.02.04.7h.21l-.03-.72ZM14.04 24.5l-.22.02.02.38h.22l-.02-.4ZM14.29 23.73l-.22.02.04.7h.21l-.03-.72Z" fill="#211759"/><path d="m16 24.95-.85.04v-.08h.04v-.08h.04l-.06-1.16h-.05v-.08l.08-.01c.03-.07.14-.2.3-.2.15 0 .26.1.3.16h.08v.08h-.04l.05 1.16h.05l.01.09H16v.08Z" fill="#fff"/><path d="m15.49 23.64-.22.02.04.7h.21l-.03-.72ZM15.5 24.42l-.22.02.02.37h.22l-.02-.4ZM15.78 24.41l-.21.02.02.38h.21l-.02-.4ZM15.75 23.64l-.22.02.04.7h.21l-.03-.72Z" fill="#211759"/><path d="m13.18 27.32-.85.04v-.09h.04v-.08h.04l-.06-1.16h-.05v-.07l.08-.02c.04-.06.14-.2.3-.2.16 0 .26.1.3.16h.08v.08l-.04.01.06 1.16h.04l.02.09h.04v.08Z" fill="#fff"/><path d="m12.67 26-.22.02.04.71h.21l-.03-.72ZM12.68 26.78l-.21.02.01.38h.22l-.02-.4ZM12.96 26.78l-.21.01.02.38h.21l-.02-.4ZM12.93 26l-.22.02.04.71h.21l-.03-.72Z" fill="#211759"/><path d="m14.63 27.22-.85.05v-.09h.04v-.08h.05l-.07-1.16h-.04v-.08h.08c.03-.08.14-.21.3-.21.15 0 .26.1.29.16h.08v.08l-.04.01.06 1.16h.05v.08h.05v.08Z" fill="#fff"/><path d="m14.12 25.91-.21.02.03.7h.22l-.04-.72ZM14.13 26.69l-.21.02.02.38h.21l-.02-.4ZM14.42 26.68l-.22.02.02.38h.22l-.02-.4ZM14.38 25.91l-.21.02.03.7h.22l-.04-.72Z" fill="#211759"/><path d="m16.1 27.14-.86.04v-.09h.04v-.08h.05l-.07-1.16h-.04v-.07l.08-.02c.03-.06.14-.2.3-.2.15 0 .26.1.29.16h.08v.08l-.04.01.06 1.16h.05v.09h.05v.08Z" fill="#fff"/><path d="m15.58 25.83-.21.01.03.71h.22l-.04-.72ZM15.6 26.6l-.22.02.02.38h.21l-.02-.4ZM15.88 26.6l-.22.01.02.38h.21l-.01-.4ZM15.84 25.83l-.21.01.03.71h.22l-.04-.72Z" fill="#211759"/><path d="m13.27 29.49-.85.04v-.08h.05v-.09h.04l-.07-1.16h-.04v-.07l.08-.01c.03-.07.14-.2.3-.2.15 0 .26.1.29.15h.08v.08l-.04.02.06 1.15h.05l.01.09h.04v.08Z" fill="#fff"/><path d="m13.02 28.18-.21.02.03.7h.22l-.04-.72Z" fill="#211759"/><path d="m14.73 29.4-.85.04v-.09h.04v-.08h.04l-.06-1.16h-.05v-.07l.08-.02c.03-.06.14-.2.3-.2.15 0 .26.1.3.16h.08v.08l-.04.01.06 1.16h.04l.01.09h.05v.08Z" fill="#fff"/><path d="m14.22 28.09-.22.01.04.71h.21l-.03-.72ZM14.23 28.86l-.22.02.02.38h.22l-.02-.4ZM14.51 28.86l-.21.01.02.38h.21l-.02-.4ZM14.48 28.09l-.22.01.04.71h.21l-.03-.72Z" fill="#211759"/><path d="m16.19 29.3-.85.05v-.08h.04v-.09h.04l-.06-1.16h-.05v-.07l.08-.01c.03-.07.14-.2.3-.2.15 0 .26.1.3.15h.08v.08l-.04.02.05 1.15h.05l.01.09h.05v.08Z" fill="#fff"/><path d="m15.68 28-.22.02.04.7h.21l-.03-.72ZM15.69 28.77l-.22.02.02.38h.22l-.02-.4ZM15.97 28.77l-.21.02.02.38h.21l-.02-.4ZM15.94 28l-.22.02.04.7h.21l-.03-.72ZM16.46 21.41l.39.24v1l-.4-.23v-1ZM17.04 21.8l.4.23v1l-.4-.23v-1ZM16.59 24.06l.4.23v1l-.4-.23v-1ZM16.74 26.75l.4.24v1l-.4-.23v-1ZM17.18 24.38l.4.24v1l-.4-.23v-1.01ZM17.34 27.07l.39.24v1l-.4-.23v-1Z" fill="#211759"/><path d="m23.99 19.07-1.6-.9.79 11.1.97-.1-.16-10.1Z" fill="#FF547B"/><path d="m22.82 20.28-.06-1.05.36.24.08 1.06-.38-.25ZM23.03 23.2l-.07-1.04.36.24.08 1.06-.37-.26ZM23.23 26.02l-.06-1.04.36.24.07 1.05-.37-.25ZM23.49 20.62l-.07-1.04.36.24.08 1.05-.37-.25ZM23.69 23.55l-.07-1.05.36.24.08 1.06-.37-.25ZM23.88 26.36l-.07-1.04.36.24.08 1.05-.37-.25Z" fill="#512A39"/><path d="m22.37 18.18-.04-.66 1.62 1 .04.55-1.62-.9Z" fill="url(#hz3ycpvlp)"/><path d="M17 18.57v-.67l5.33-.38.06.67-5.39.38Z" fill="url(#iz3ycpvlp)"/><path d="m18 29.77-.8-11.23 5.2-.38.83 11.52-5.23.1Z" fill="url(#jz3ycpvlp)"/><path d="m22.18 18.43-4.73.36.78 10.92 4.73-.08-.78-11.2Z" fill="url(#kz3ycpvlp)"/><path d="m22.24 27.28-3.83.28.03.3 3.83-.29-.03-.3Z" fill="url(#lz3ycpvlp)"/><path d="m18.95 17.37.69 9.88 1.33-.02-.7-9.97-1.32.11Z" fill="url(#mz3ycpvlp)"/><path d="m20.04 17.53-.82.06.05.66.82-.07-.05-.65ZM20.1 18.36l-.82.07.05.84.83-.08-.05-.83ZM20.18 19.26l-.83.08.06.97.83-.1-.06-.95ZM20.26 20.3l-.83.07.05.97.83-.09-.05-.96ZM20.32 21.33l-.84.08.06.97.83-.1-.05-.95ZM20.4 22.34l-.84.08.06.97.83-.1-.06-.95ZM20.46 23.37l-.83.08.05.97.83-.09-.05-.96ZM20.54 24.4l-.83.09.05.97.83-.1-.05-.95ZM20.62 25.44l-.83.08.05.97.83-.09-.05-.96Z" fill="#B23B56"/><path d="m18.89 20.9-.95.07v-.1h.04v-.09h.05l-.1-1.28h-.04v-.08l.08-.02c.04-.07.15-.23.33-.23.18 0 .3.11.34.17h.09v.09l-.05.01.1 1.28h.05l.01.1h.05v.09Z" fill="#fff"/><path d="m18.3 19.47-.25.02.06.78h.24l-.06-.8ZM18.32 20.32l-.24.03.03.42h.24l-.03-.45ZM18.64 20.31l-.24.03.03.42h.24l-.03-.45ZM18.58 19.46l-.23.03.05.78h.24l-.06-.81Z" fill="#512A39"/><path d="m19.1 23.63-.95.07v-.1h.05v-.09h.04l-.09-1.28h-.05v-.09l.09-.01c.03-.08.15-.23.33-.23.17 0 .3.1.33.17h.1v.09l-.05.01.09 1.28h.05l.02.1h.04v.08Z" fill="#fff"/><path d="m18.5 22.2-.23.02.05.78h.24l-.05-.8ZM18.54 23.05l-.24.03.02.42h.24l-.02-.45ZM18.86 23.04l-.24.02.02.42h.24l-.02-.44ZM18.8 22.19l-.24.02.06.78h.24l-.06-.8Z" fill="#512A39"/><path d="m19.27 26.3-.95.06v-.1h.05v-.09h.04l-.1-1.28h-.04v-.08l.09-.02c.03-.07.15-.23.32-.23.18 0 .3.11.34.17h.1v.09l-.05.01.09 1.28h.05l.01.1h.05v.09Z" fill="#fff"/><path d="m18.68 24.86-.24.02.05.78h.24l-.05-.8ZM18.7 25.71l-.24.03.03.42h.24l-.03-.45ZM19.02 25.7l-.24.03.03.42h.24l-.03-.45ZM18.97 24.85l-.24.02.05.79h.24l-.05-.81Z" fill="#512A39"/><path d="m22.32 23.38-.95.06v-.1h.04v-.08h.05l-.1-1.29h-.04v-.08l.08-.02c.04-.07.16-.23.33-.23.18 0 .3.12.34.17h.1v.1h-.05l.08 1.28h.06l.01.1h.05v.09Z" fill="#fff"/><path d="m21.72 21.94-.24.02.06.79h.24l-.06-.81ZM21.75 22.8l-.24.02.03.42h.24l-.03-.44ZM22.07 22.78l-.24.03.03.42h.24l-.03-.45ZM22.02 21.93l-.24.03.05.78h.24l-.05-.8Z" fill="#512A39"/><path d="m22.44 26.04-.95.07V26h.04v-.09h.05l-.1-1.28h-.04v-.09l.08-.01c.04-.08.15-.23.33-.23.18 0 .3.11.34.17h.09v.09l-.05.01.1 1.28h.05l.01.1h.05v.08Z" fill="#fff"/><path d="m21.84 24.6-.24.03.05.78h.24l-.05-.8ZM21.87 25.46l-.24.03.03.42h.24l-.03-.45ZM22.19 25.45l-.24.02.03.42h.24l-.03-.44ZM22.13 24.6l-.24.02.06.78h.24l-.06-.8Z" fill="#512A39"/><path d="m22.1 20.65-.95.07v-.1h.05v-.09h.04l-.1-1.28h-.04v-.09l.09-.01c.03-.08.15-.23.32-.23.18 0 .3.1.34.17h.1v.09l-.05.01.09 1.28h.05l.01.1h.05v.08Z" fill="#fff"/><path d="m21.5 19.21-.23.03.05.78h.24l-.05-.8ZM21.53 20.07l-.24.03.03.41h.24l-.03-.44ZM21.85 20.06l-.24.02.03.42h.24l-.03-.44ZM21.8 19.2l-.24.03.05.78h.24l-.05-.8Z" fill="#512A39"/><path d="m21.28 29.34-1.47.07v-.1h.07v-.08h.07l-.14-1.29h-.07v-.08l.13-.02a.68.68 0 0 1 .52-.23c.27 0 .46.1.51.17h.15v.08l-.07.02.12 1.27h.09l.02.1h.07v.09Z" fill="#fff"/><path d="m20.37 27.9-.37.03.07.78h.37l-.07-.8ZM20.4 28.76l-.37.03.04.42h.37l-.04-.45ZM20.9 28.75l-.37.02.04.42h.37l-.04-.44ZM20.82 27.9l-.37.02.08.78h.37l-.08-.8Z" fill="#512A39"/><path d="m18.79 27.54-.03-.29 3-.23.03.3-3 .22Z" fill="url(#nz3ycpvlp)"/><path d="m7 36.85.68-3.12 41.03.23.29 2.88-.48 1.16H36.94l-.6-.63-.6.63h-2.2l-.72-.68-.63.68h-7.5l-.65-.81-.59.81h-2.51l-.7-.78-.78.76-3.02.02-.4-.56-.47.54-1.98.02-.4-.58-.45.56h-4.8L7 36.85Z" fill="#5D228C"/><path d="M30 29.38V17.13l1.6 1.16-.7 11.1H30Z" fill="#40C8D7"/><path d="M30.27 19.17v-1.24l.4.32v1.25l-.4-.33ZM31 19.66v-1.24l.4.32v1.25l-.4-.33ZM30.27 22.6v-1.25l.4.32v1.25l-.4-.33ZM31 23.08v-1.24l.4.32v1.25l-.4-.33ZM30.27 26.02v-1.24l.4.31v1.26l-.4-.33Z" fill="#512A39"/><path d="M30 16.09v1.04l1.8 1.32V17.4L30 16.1Z" fill="url(#oz3ycpvlp)"/><path d="M24 17.13h6v12.41h-6V17.13Z" fill="url(#pz3ycpvlp)"/><path fill="url(#qz3ycpvlp)" d="M24.25 17.43h5.39v12.7h-5.39z"/><path d="M24 16.09h6v1.04h-6v-1.04Z" fill="url(#rz3ycpvlp)"/><path fill="url(#sz3ycpvlp)" d="M24.97 27.76h.65v1.65h-.65z"/><path fill="url(#tz3ycpvlp)" d="M28.14 27.76h.65v1.65h-.65z"/><path d="M25.9 19.57h-1.11v-.12h.06v-.1h.06l-.01-1.53h-.06v-.1h.11c.05-.1.2-.26.4-.25.2 0 .34.16.38.23h.11v.11l-.06.02v1.51h.06l.01.12h.05v.1Z" fill="#fff" fill-opacity=".65"/><path fill="#512A39" d="M25.02 17.81h.3v.94h-.3zM25.37 17.81h.3v.94h-.3zM25.02 18.83h.3v.5h-.3zM25.37 18.83h.3v.5h-.3z"/><path d="M29.14 19.57h-1.11v-.12h.06v-.1h.06v-1.53h-.06v-.1h.1c.05-.1.2-.26.4-.25.21 0 .35.16.39.23h.1v.11l-.06.02v1.51h.07v.12h.06v.1Z" fill="#fff" fill-opacity=".65"/><path fill="#512A39" d="M28.26 17.81h.3v.94h-.3zM28.62 17.81h.3v.94h-.3zM28.26 18.83h.3v.5h-.3zM28.62 18.83h.3v.5h-.3z"/><path d="M25.9 22.93h-1.11v-.12h.06v-.1h.06l-.01-1.52h-.06v-.1l.11-.01c.05-.1.2-.26.4-.25.2.01.34.16.38.23h.11v.11l-.06.02v1.51h.06l.01.12h.05v.11Z" fill="#fff" fill-opacity=".65"/><path fill="#512A39" d="M25.02 21.17h.3v.94h-.3zM25.37 21.17h.3v.94h-.3zM25.02 22.19h.3v.5h-.3zM25.37 22.19h.3v.5h-.3z"/><path d="M29.14 22.93h-1.11v-.12h.06v-.1h.06V21.2h-.06v-.1l.1-.01c.05-.1.2-.26.4-.25.21.01.35.16.39.23h.1v.11l-.06.02v1.51h.07v.12h.06v.11Z" fill="#fff" fill-opacity=".65"/><path fill="#512A39" d="M28.26 21.17h.3v.94h-.3zM28.62 21.17h.3v.94h-.3zM28.26 22.19h.3v.5h-.3zM28.62 22.19h.3v.5h-.3z"/><path d="M25.9 26.23h-1.11v-.12h.06v-.1h.06l-.01-1.52h-.06v-.1l.11-.01c.05-.09.2-.26.4-.25.2.01.34.16.38.24h.11v.1l-.06.02v1.52h.06l.01.11h.05v.11Z" fill="#fff" fill-opacity=".65"/><path fill="#512A39" d="M25.02 24.48h.3v.94h-.3zM25.37 24.48h.3v.94h-.3zM25.02 25.49h.3v.5h-.3zM25.37 25.49h.3v.5h-.3z"/><path d="M29.14 26.23h-1.11v-.12h.06v-.1h.06V24.5h-.06v-.1l.1-.01c.05-.09.2-.26.4-.25.21.01.35.16.39.24h.1v.1l-.06.02v1.52h.07v.11h.06v.11Z" fill="#fff" fill-opacity=".65"/><path fill="#512A39" d="M28.26 24.48h.3v.94h-.3zM28.62 24.48h.3v.94h-.3zM28.26 25.49h.3v.5h-.3zM28.62 25.49h.3v.5h-.3z"/><path d="M26.32 29.57v-1.54h-.09v-.14l.16-.02c.07-.13.3-.38.6-.36.3.02.5.23.57.34l.16.01v.16l-.1.01v1.53l-1.3.01Z" fill="#fff" fill-opacity=".65"/><path fill="#512A39" d="M26.49 28.01h.44v1.38h-.44zM27.02 28.01h.44v1.38h-.44z"/><path fill="url(#uz3ycpvlp)" d="M24.67 27.41h4.51v.35h-4.51z"/><path fill="url(#vz3ycpvlp)" d="M25.09 27.06h3.56v.35h-3.56z"/><path fill="url(#wz3ycpvlp)" d="M26.31 16.88h.25v10.18h-.25z"/><path fill="url(#xz3ycpvlp)" d="M27.06 16.88h.25v10.18h-.25z"/><path fill="url(#yz3ycpvlp)" d="M24 15.72h6v.37h-6z"/><path d="M29.48 15.72h-5.2c.37-1 1.4-1.72 2.6-1.72 1.2 0 2.22.72 2.6 1.72Z" fill="url(#zz3ycpvlp)"/><path fill-rule="evenodd" d="M28.87 15.58a2.14 2.14 0 0 0-2-1.33 2.14 2.14 0 0 0-2 1.33h4Zm-3.68-.2h3.36a1.94 1.94 0 0 0-1.68-.93c-.73 0-1.36.38-1.68.93Z" fill="#2A8E93"/><path d="M26.73 15.52v-1.2h.24v1.2h-.24Z" fill="#2A8E93"/><path d="M31 26.5v-1.23l.4.31v1.26l-.4-.33Z" fill="#512A39"/><path d="m38 19.55-1.44-1.1-.6 11.11.96.03 1.07-10.04Z" fill="#FF547B"/><path d="m36.73 20.6.06-1.05.32.29-.05 1.05-.33-.3ZM36.56 23.52l.07-1.04.31.29-.05 1.05-.33-.3ZM36.42 26.34l.06-1.04.32.29-.06 1.05-.32-.3ZM37.32 21.02l.07-1.04.31.28-.05 1.06-.33-.3Z" fill="#512A39"/><path d="m36.55 18.45.04-.66 1.43 1.2-.02.56-1.45-1.1Z" fill="url(#aaz3ycpvlp)"/><path d="m31.34 18.17.08-.7 5.17.33-.03.66-5.22-.29Z" fill="url(#abz3ycpvlp)"/><path d="m30.87 29.38.67-11.22 5.02.29-.62 11.52-5.07-.59Z" fill="url(#acz3ycpvlp)"/><path d="m36.34 18.68-4.6-.27-.59 10.94 4.56.53.63-11.2Z" fill="url(#adz3ycpvlp)"/><path d="m33.92 26.46-.8-.03-.08.97.81.02.07-.96Z" fill="#B23B56"/><path d="m35.31 27.46-3.72-.22v.3l3.71.22.01-.3Z" fill="url(#aez3ycpvlp)"/><path d="m33.36 17.2-.55 9.9 1.28.15.55-9.99-1.28-.06Z" fill="url(#afz3ycpvlp)"/><path d="m34.4 17.5-.8-.04-.04.66.8.04.03-.65ZM34.35 18.34l-.8-.04-.06.84.8.03.06-.83ZM34.31 19.23l-.8-.02-.07.96.8.02.07-.96ZM34.26 20.27l-.8-.03-.07.97.8.02.07-.96ZM34.19 21.3l-.81-.02-.07.96.81.02.07-.95ZM34.14 22.32l-.81-.03-.07.97.81.02.07-.96ZM34.07 23.35l-.8-.03-.07.97.8.02.07-.96ZM34.02 24.39l-.8-.03-.07.97.8.02.07-.96ZM33.97 25.43l-.8-.03-.07.97.8.02.07-.96Z" fill="#B23B56"/><path d="m32.87 20.7-.93-.06.01-.1.05.01v-.09h.05l.07-1.28h-.04v-.09h.09c.04-.07.17-.2.34-.19a.4.4 0 0 1 .3.22h.1l-.01.1h-.05l-.07 1.28.05.01v.1h.05l-.01.1Z" fill="#fff"/><path d="m32.47 19.2-.23-.01-.05.78.23.03.05-.8ZM32.4 20.05h-.24l-.03.41.23.03.03-.44ZM32.7 20.08h-.23l-.03.41.23.03.03-.44ZM32.75 19.23h-.23l-.05.77.23.03.05-.8Z" fill="#512A39"/><path d="m32.74 23.43-.92-.06v-.1l.05.01.01-.09h.05l.06-1.28h-.04v-.08h.1c.04-.08.17-.22.34-.2a.4.4 0 0 1 .3.22l.09.01-.01.09h-.05l-.07 1.29h.05v.1h.05v.1Z" fill="#fff"/><path d="m32.34 21.93-.23-.01-.04.78.23.03.04-.8ZM32.26 22.78h-.23l-.02.41.23.03.02-.44ZM32.57 22.81h-.23l-.03.41.24.03.02-.44ZM32.63 21.96h-.24l-.04.78.23.02.05-.8Z" fill="#512A39"/><path d="m32.57 26.1-.92-.06.01-.1h.05v-.08h.05l.07-1.28h-.05l.01-.1h.09c.04-.07.17-.2.34-.18a.4.4 0 0 1 .3.21l.1.01-.02.1h-.04l-.08 1.28h.06v.1h.04v.1Z" fill="#fff"/><path d="M32.18 24.59h-.24l-.04.78.23.02.05-.8ZM32.1 25.45l-.24-.01-.02.42.23.03.03-.44ZM32.4 25.47h-.23l-.02.42.23.02.03-.44ZM32.46 24.62h-.23l-.05.78.23.03.05-.8Z" fill="#512A39"/><path d="m35.86 23.6-.92-.06.01-.1.05.01v-.09h.05l.07-1.28h-.05l.01-.08h.09c.04-.08.17-.22.34-.2a.4.4 0 0 1 .3.22l.1.01-.02.09h-.04l-.08 1.29h.06v.1h.04v.1Z" fill="#fff"/><path d="m35.47 22.1-.24-.01-.04.78.23.03.05-.8ZM35.39 22.95h-.24l-.02.41.23.03.03-.44ZM35.7 22.98h-.24l-.02.41.23.03.03-.44ZM35.75 22.13h-.23l-.05.78.23.02.05-.8Z" fill="#512A39"/><path d="m35.65 26.26-.92-.06v-.1l.05.01.01-.09h.05l.06-1.28h-.04v-.09h.1c.04-.07.17-.2.34-.19a.4.4 0 0 1 .3.22h.09l-.01.1h-.05l-.07 1.28.05.01v.1h.05l-.01.1Z" fill="#fff"/><path d="M35.25 24.75h-.23l-.05.78.24.03.04-.8ZM35.17 25.61h-.23l-.03.41.24.03.02-.44ZM35.48 25.64h-.23l-.03.41.23.03.03-.44ZM35.53 24.79h-.23l-.04.77.23.03.04-.8Z" fill="#512A39"/><path d="m35.99 20.87-.92-.06v-.1l.05.01.01-.09h.05l.06-1.28h-.04v-.09h.1c.04-.07.17-.2.34-.19a.4.4 0 0 1 .3.22h.09l-.01.1h-.05l-.07 1.28.05.01v.1H36l-.01.1Z" fill="#fff"/><path d="M35.6 19.36h-.24l-.05.78.24.03.04-.8ZM35.51 20.22h-.23l-.03.41.24.03.02-.44ZM35.82 20.25h-.23l-.03.41.23.03.03-.44ZM35.87 19.4h-.23l-.04.77.23.03.04-.8Z" fill="#512A39"/><path d="m34.13 29.38-1.42-.12v-.1l.08.01v-.09h.07l.03-1.28-.07-.01.01-.08h.13c.07-.07.26-.2.52-.17.27.03.43.17.48.24l.14.02v.08l-.08.01-.04 1.28.08.01.01.1h.07v.1Z" fill="#fff"/><path d="m33.43 27.83-.36-.02-.02.79.36.04.02-.8ZM33.36 28.7l-.36-.03-.01.42.35.04.02-.44ZM33.84 28.74l-.36-.02-.02.42.36.04.02-.44ZM33.87 27.89l-.36-.03-.02.79.35.04.03-.8Z" fill="#512A39"/><path d="m31.95 27.27.01-.3 2.91.17v.3l-2.92-.17Z" fill="url(#agz3ycpvlp)"/><path d="m42.15 20.79-4.66-.45-.8 9.15 4.68.62.78-9.32Z" fill="url(#ahz3ycpvlp)"/><path d="m38.7 18.72-.11-.18-.21.16-.1 1.13 3.34.32.1-1.14-.12-.2-.2.51-.72-.08.03-.34-.1-.17-.16.5-.77-.06.03-.36-.12-.18-.07.51-.85-.08.02-.34Z" fill="url(#aiz3ycpvlp)"/><path d="m42.14 20.78.09-.59 1.06.98-.04.5-1.1-.89Z" fill="url(#ajz3ycpvlp)"/><path d="m41.4 29.6.74-8.81 1.11.89-.68 8.13-1.17-.22Z" fill="#4D34B3"/><path d="m39.29 20.05.12-1.46.19.03-.13 1.46-.18-.03Z" fill="url(#akz3ycpvlp)"/><path d="m40.3 20.16.12-1.45.2.03-.13 1.45-.19-.03Z" fill="url(#alz3ycpvlp)"/><path d="m42.15 20.79-4.8-.45.04-.6 4.84.46-.08.59Z" fill="url(#amz3ycpvlp)"/><path d="m41.9 20.98-4.24-.4-.7 8.66 4.23.55.72-8.8Z" fill="url(#anz3ycpvlp)"/><path d="m38.64 22.72-.85-.08.02-.09h.04v-.07h.05l.1-1.16h-.05l.01-.08h.08c.05-.06.17-.18.32-.15.16.02.25.14.28.2l.08.01-.01.08h-.05l-.1 1.16h.05v.1h.04l-.01.08Z" fill="#fff"/><path d="m38.32 21.35-.22-.02-.06.71.21.03.07-.72ZM38.22 22.12l-.21-.02-.04.38.21.03.04-.4ZM38.5 22.15h-.21l-.04.37.22.03.03-.4ZM38.57 21.39l-.2-.02-.07.7.2.04.07-.72Z" fill="#211759"/><path d="m40.1 22.85-.85-.09v-.08h.05l.01-.08.04.01.1-1.16h-.04v-.08h.08c.05-.06.17-.18.33-.16.15.03.24.15.27.2l.08.02-.01.08h-.04l-.1 1.16h.04v.1h.04v.08Z" fill="#fff"/><path d="m39.77 21.48-.22-.02-.06.7.21.04.07-.72ZM39.67 22.25l-.21-.02-.04.38.21.03.04-.4ZM39.95 22.28l-.2-.01-.04.37.2.04.04-.4ZM40.03 21.52l-.22-.02-.06.7.21.04.07-.72Z" fill="#211759"/><path d="m41.55 22.98-.85-.08.01-.09h.05v-.07h.05l.1-1.15-.05-.01.01-.07h.08c.04-.07.17-.19.32-.16.16.02.25.14.27.2l.09.02-.02.08h-.04l-.1 1.15.05.01v.09h.04l-.01.08Z" fill="#fff"/><path d="m41.22 21.61-.21-.01-.06.7.2.03.07-.72ZM41.13 22.38l-.22-.01-.03.37.21.03.04-.39ZM41.41 22.42l-.21-.02-.04.38.21.03.04-.4ZM41.48 21.65l-.21-.01-.06.7.2.03.07-.72Z" fill="#211759"/><path d="m38.46 24.9-.84-.08v-.09h.05l.01-.07h.04l.1-1.16h-.04v-.07h.08c.05-.07.17-.19.33-.16.15.02.24.14.27.2l.08.01-.01.08-.04.01-.1 1.15h.04v.1h.04v.08Z" fill="#fff"/><path d="m38.14 23.53-.22-.01-.06.7.21.03.07-.72ZM38.04 24.3l-.21-.02-.04.38.21.03.04-.4ZM38.32 24.34l-.2-.02-.04.38.2.03.04-.4ZM38.4 23.57l-.22-.02-.06.71.21.03.07-.72Z" fill="#211759"/><path d="m39.91 25.03-.84-.09v-.08h.05l.01-.07h.04l.1-1.16h-.04v-.08h.09c.04-.06.16-.18.32-.16.15.03.24.15.27.2l.08.02-.01.08h-.04l-.1 1.16h.04v.1h.04v.08Z" fill="#fff"/><path d="m39.59 23.66-.22-.02-.06.7.21.04.07-.72ZM39.5 24.43l-.22-.02-.04.38.22.03.03-.4ZM39.78 24.46l-.22-.01-.03.38.2.03.05-.4ZM39.85 23.7l-.22-.02-.06.7.21.04.07-.72Z" fill="#211759"/><path d="m41.37 25.16-.85-.08.02-.09.04.01v-.08h.05l.1-1.15h-.05l.01-.08h.08c.04-.07.17-.18.32-.16.16.02.25.15.28.2l.08.02-.01.08h-.05l-.1 1.15.05.01v.09h.04l-.01.08Z" fill="#fff"/><path d="m41.05 23.8-.22-.02-.06.7.21.04.07-.73ZM40.95 24.56l-.21-.01-.04.37.21.04.04-.4ZM41.23 24.6l-.21-.02-.04.38.22.03.03-.4ZM41.3 23.83l-.21-.01-.06.7.2.04.07-.73Z" fill="#211759"/><path d="m38.25 27.08-.84-.09.01-.08h.04l.01-.08.04.01.1-1.16h-.04v-.08h.09c.04-.06.16-.18.32-.16.15.03.24.15.27.2l.08.02-.01.08h-.04l-.1 1.16h.04v.1h.04v.08Z" fill="#fff"/><path d="M37.93 25.7h-.21l-.07.7.21.03.07-.72ZM37.83 26.48l-.21-.02-.03.38.2.03.04-.4ZM38.12 26.51l-.22-.01-.03.37.2.04.05-.4ZM38.19 25.75l-.22-.02-.06.7.21.04.07-.72Z" fill="#211759"/><path d="m39.7 27.2-.84-.08.01-.08h.04l.01-.08h.04l.1-1.15h-.04v-.08h.09c.04-.06.16-.18.32-.16.15.02.24.15.27.2l.08.02v.08h-.05l-.1 1.16h.05v.09h.04l-.02.09Z" fill="#fff"/><path d="m39.38 25.83-.21-.01-.07.7.22.04.06-.73ZM39.29 26.6l-.22-.01-.03.38.2.03.05-.4ZM39.57 26.64l-.22-.01-.03.37.21.03.04-.39ZM39.64 25.87l-.21-.01-.07.7.21.04.07-.73Z" fill="#211759"/><path d="m41.16 27.34-.84-.08v-.09h.05l.01-.07h.04l.1-1.16h-.04v-.08h.08c.05-.06.17-.18.33-.15.15.02.24.14.27.2l.08.01-.01.08h-.04l-.1 1.16h.04v.1h.04v.08Z" fill="#fff"/><path d="m40.84 25.97-.22-.02-.06.71.21.03.07-.72ZM40.74 26.74l-.21-.02-.04.38.21.03.04-.4ZM41.02 26.77h-.21l-.03.37.2.03.04-.4ZM41.1 26h-.22l-.06.7.21.03.07-.72Z" fill="#211759"/><path d="m38.05 29.24-.85-.08.01-.09h.04l.02-.07h.04l.1-1.15-.05-.01.01-.07h.08c.04-.07.17-.19.32-.16.16.02.25.14.27.2l.09.01-.02.08-.04.01-.1 1.15h.05v.1h.04l-.01.08Z" fill="#fff"/><path d="m37.72 27.87-.21-.01-.06.7.2.03.07-.72ZM37.63 28.64l-.22-.01-.03.37.21.03.04-.39ZM37.91 28.68l-.21-.02-.04.38.21.03.04-.4ZM37.98 27.9h-.21l-.07.7.22.03.06-.72Z" fill="#211759"/><path d="m39.5 29.37-.85-.08.01-.09h.05v-.07h.05l.1-1.16h-.05l.01-.08h.08c.04-.06.17-.18.32-.15.16.02.25.14.27.2l.09.01-.01.08h-.05l-.1 1.16h.05v.1h.04l-.01.08Z" fill="#fff"/><path d="m39.17 28-.2-.02-.07.7.2.04.07-.72ZM39.08 28.77l-.21-.02-.04.38.21.03.04-.4ZM39.36 28.8l-.21-.01-.04.38.21.03.04-.4ZM39.43 28.04l-.21-.02-.06.7.2.04.07-.72Z" fill="#211759"/><path d="m40.95 29.5-.84-.08.01-.09.04.01.01-.08h.04l.1-1.15h-.04v-.08h.09c.04-.06.16-.18.32-.16.15.02.24.15.27.2l.08.02v.08h-.05l-.1 1.15.05.01v.09h.04l-.02.09Z" fill="#fff"/><path d="m40.63 28.13-.21-.01-.07.7.22.04.06-.73ZM40.54 28.9l-.22-.01-.03.37.2.04.05-.4ZM40.89 28.17l-.21-.01-.07.7.21.04.07-.73ZM42.32 21.73l.35.3-.14 1-.35-.3.14-1ZM42.84 22.2l.35.3-.14.99-.35-.3.14-.99ZM42.08 24.37l.35.3-.13.99-.36-.3.14-.99ZM41.86 27.06l.36.3-.14.99-.36-.3.14-1ZM42.62 24.78l.36.3-.14.99-.36-.3.14-1Z" fill="#211759"/><path d="m7.12 36.26.88-6.6h37l.3 3.34h3.43l.22 3.25-.47.75H36.94l-.6-.67-.6.67h-2.18l-.72-.7-.63.7h-7.47l-.64-.84-.6.84H21l-.7-.77-.8.77h-2.98l-.4-.58-.47.58H13.7l-.4-.6-.46.6H8.06l-.94-.74Z" fill="url(#aoz3ycpvlp)"/><path d="m43.1 30.76 1.32-.07.32 3.6h3.43l.14 1.44-.19.82-.12.12-4.66-.12-.36-4.93.13-.86ZM42.54 32.12l-.11-1.38-.04-.09-4.58-.01-.1.12-.1.85.23 4.77.07.1 4.62.07.12-.1.13-.86-.1-1.34-.06-.11h-1.45l.09-.62-.03-.4h1.07l.11-.12.13-.88ZM37.1 32.13l-.07-1.5h-3.98l-.1.13-.07.78.06 1.4.05.14h1.3l.14 3.3.08.12h1.2l.1-.12.11-.71-.13-2.6h1.11l.08-.1.11-.84ZM22.01 35.62v-.3l1.4-4.66.12.11v1.94h2.06l1.21-2.06.08.12-.02 5.58-.08.1h-1.21l-.07-.08-.01-.1-.02-1.16h-2l-.03 1.26-.08.1h-1.21l-.09-.12-.05-.73ZM27.53 35.65V31.46l.08-.1h.6v-.58l.09-.12h3.24l.07.14v.56h.6l.12.12v4.2l-.1.12h-.58v.57l-.09.1h-3.23l-.1-.12v-.57h-.62l-.08-.13ZM16.34 32.13l.02-.26 2-1.23h2.02l.1.12.07.78-.06 1.4-.05.14h-1.3l-.14 3.3-.08.12h-1.2l-.1-.12-.11-.71.14-2.6h-1.12l-.08-.1-.11-.84ZM14.01 35.7l.03-.26 1.24-4.73h.32l.1.11.13.85-.3 4.83-.06.12h-1.22l-.1-.11-.14-.8ZM8.46 35.86l.04-.27 4.04-4.88h.34l.11.15.1.6h.41l.1.1.14.83-.24 3.47-.05.12h-.65l-.04.6-.06.1-3.94.07-.12-.1-.18-.8Z" fill="#000" fill-opacity=".23"/><path d="m8.13 35.47.04-.27 3.6-1.08.78-3.76.12.11.09.6h.42l.1.1.13.83-.23 3.47-.06.12-.64.08-.04.23-.06.1H8.44l-.12-.1-.19-.43Z" fill="url(#apz3ycpvlp)"/><path d="m22.64 29.37-.02-.35 1.18-.06v.37l-1.16.04Z" fill="#FF6689"/><path d="m13.67 35.34.02-.26 1.56-4.73.11.11.13.85-.31 4.57-.06.12h-1.21l-.1-.1-.14-.56Z" fill="url(#aqz3ycpvlp)"/><path d="m15.95 31.84.02-.27L20 30.34l.1.12.06.79-.06 1.4-.05.14h-1.29l-.15 3.1-.07.11h-1.2l-.11-.12-.1-.51.13-2.6h-1.12l-.08-.1-.1-.83Z" fill="url(#arz3ycpvlp)"/><path d="m36.72 31.84-.01-.27-4.03-1.23-.1.12-.06.79.06 1.4.04.14h1.3l.14 3.1.08.11h1.2l.1-.12.11-.51-.13-2.6h1.11l.09-.1.1-.83Z" fill="url(#asz3ycpvlp)"/><path d="m42.15 31.82-.12-1.38-.03-.09-4.58-.01-.11.12-.08.85.22 4.58.07.11h4.61l.13-.1.13-.61-.1-1.34-.06-.1h-1.45l.08-.63-.03-.4h1.08l.11-.12.13-.88Z" fill="url(#atz3ycpvlp)"/><path d="m42.72 30.47.11-.12 1.32 3.7 3.72 1.1.04.3-.18.44-.12.11H43l-.4-4.67.12-.86Z" fill="url(#auz3ycpvlp)"/><path d="M21.63 35.3V35l1.4-4.66.12.11v1.94h2.06l1.2-2.06.09.11-.03 5.47-.08.09h-1.31l-.07-.08-.01-.1v-.95h-2v1.02l-.08.11h-1.16l-.09-.12-.04-.58Z" fill="url(#avz3ycpvlp)"/><path d="M27.16 35.31v-4.18l.09-.1h.6v-.59l.08-.11h3.24l.07.13v.57h.65l.11.11v4.2l-.1.12h-.62v.45l-.09.09h-3.08l-.11-.12v-.43h-.76l-.08-.14Z" fill="url(#awz3ycpvlp)"/><path d="m12.22 20.27-.09-1.46h.2l.07 1.46h-.18Z" fill="url(#axz3ycpvlp)"/><path fill-rule="evenodd" clip-rule="evenodd" d="M12.54 30.37H8.65l-.47 4.82 4-.05.07-.73h.67l.1-1.25h-.67l.07-.86h.66l.09-1.25h-.67l.04-.68Zm-.84 1.45H9.94l-.07.5h1.76l.07-.5Zm-1.89 1.4h1.8l-.08.52H9.74l.07-.52Z" fill="url(#ayz3ycpvlp)"/><path fill-rule="evenodd" clip-rule="evenodd" d="M12.54 30.37H8.65l-.47 4.82 4-.05.07-.73h.67l.1-1.25h-.67l.07-.86h.66l.09-1.25h-.67l.04-.68Zm.43.86h-.66l.04-.67H8.81L8.38 35l3.64-.06.06-.73h.68l.06-.88h-.67l.11-1.23h.66l.05-.88Zm-3.18.4h2.12l-.13.87H9.67l.12-.87Zm2.02 1.4-.13.9H9.54l.12-.9h2.15Zm-1.87-1.21h1.76l-.07.5H9.87l.07-.5Zm-.13 1.4h1.8l-.08.52H9.74l.07-.52Z" fill="url(#azz3ycpvlp)"/><path d="M36.58 30.33h-3.91l.03 1.24h1.36l.1 3.45h1.24l-.12-3.45h1.36l-.06-1.24Z" fill="url(#baz3ycpvlp)"/><path fill-rule="evenodd" clip-rule="evenodd" d="m36.64 31.57-.06-1.24h-3.91l.03 1.24h1.36l.1 3.45h1.24l-.12-3.45h1.36Zm-1.42 3.26-.12-3.44h1.35l-.04-.87h-3.56l.02.87h1.36l.1 3.44h.89Z" fill="url(#bbz3ycpvlp)"/><path d="M20 30.35h-3.9l-.07 1.24h1.35l-.19 3.46h1.23l.17-3.5h1.35l.06-1.2Z" fill="url(#bcz3ycpvlp)"/><path fill-rule="evenodd" clip-rule="evenodd" d="M18.6 31.56h1.34l.06-1.2h-3.9l-.07 1.23h1.35l-.19 3.46h1.23l.17-3.5Zm-.35 3.3.18-3.49h1.34l.04-.83h-3.54l-.05.86h1.35l-.19 3.46h.87Z" fill="url(#bdz3ycpvlp)"/><path d="m43.2 35.1-.37-4.77h1.22l.27 3.54 3.43.06.13 1.28-4.69-.1Z" fill="url(#bez3ycpvlp)"/><path fill-rule="evenodd" clip-rule="evenodd" d="m44.16 34.05-.28-3.53h-.85l.33 4.4 4.32.1-.1-.9-3.42-.07Zm3.59-.12.13 1.28-4.69-.1-.36-4.78h1.22l.27 3.54 3.43.06Z" fill="url(#bfz3ycpvlp)"/><path d="M42 30.33h-4.58l.21 4.78h4.7l-.1-1.24-3.42-.06-.03-.82h2.03l-.04-.56h-2.04l-.04-.83h3.4l-.1-1.27Z" fill="url(#bgz3ycpvlp)"/><path fill-rule="evenodd" clip-rule="evenodd" d="m42.09 31.6-.1-1.27h-4.57l.21 4.78h4.7l-.1-1.24-3.42-.06-.03-.82h2.03l-.04-.56h-2.04l-.04-.83h3.4Zm-1.49 1.01h-2.04l-.05-1.2h3.39l-.07-.9H37.6l.2 4.41h4.33l-.06-.87-3.44-.06-.04-1.19h2.03l-.02-.19Z" fill="url(#bhz3ycpvlp)"/><path fill-rule="evenodd" clip-rule="evenodd" d="M27.93 30.33h3.23v.7h.7l.04 3.28h-.67V35h-3.31v-.7h-.69v-3.28h.69l.01-.7Zm.72 1.4h1.81v1.85h-1.81v-1.85Z" fill="url(#biz3ycpvlp)"/><path fill-rule="evenodd" clip-rule="evenodd" d="M27.92 31.02h-.69v3.29h.69V35h3.31v-.7h.67l-.04-3.28h-.7v-.7h-3.23l-.01.7Zm.19-.5-.02.69h-.68v2.91h.68v.69h2.97v-.69h.66l-.04-2.91h-.7v-.7H28.1Zm2.53 1.02v2.23h-2.17v-2.23h2.17Zm-2 .19h1.82v1.85h-1.81v-1.85Z" fill="url(#bjz3ycpvlp)"/><path d="M23.02 30.33h-1.19L21.7 35h1.22l.04-1.38h2.2V35h1.23l.04-4.67h-1.2l-.04 2.06h-2.2l.04-2.06Z" fill="url(#bkz3ycpvlp)"/><path fill-rule="evenodd" clip-rule="evenodd" d="M23.02 30.33h-1.19L21.7 35h1.22l.04-1.38h2.2V35h1.23l.04-4.67h-1.2l-.04 2.06h-2.2l.04-2.06Zm2.38.19-.04 2.06H22.8l.03-2.06h-.82l-.13 4.3h.86l.04-1.39h2.56v1.39h.86l.04-4.3h-.84Z" fill="url(#blz3ycpvlp)"/><path d="M15.25 30.35h-1.19l-.33 4.74h1.22l.3-4.74Z" fill="url(#bmz3ycpvlp)"/><path d="M8.04 26.68c.11-.31.37-.52.48-.58-.81.1-1.03.56-1.03.8 0 .23.13.42.23.56.15-.05.2-.2.22-.26v-.15h-.22l.24-.11.04-.16-.22-.03c.05 0 .16-.04.26-.07Z" fill="#559337"/><path d="M8.87 25.56a1.1 1.1 0 0 0-.32.66c-.3-.69.04-1.09.26-1.2.23-.1.48-.1.65-.1.04.15-.08.27-.14.31l-.14.07-.1-.18v.25l-.14.11-.12-.16.05.24Z" fill="#36722B"/><path d="M7.78 26.28c.3-.18.65-.2.78-.19-.7-.37-1.2-.13-1.35.06-.16.18-.19.4-.21.56.15.06.3-.03.35-.08l.1-.1-.18-.13.28.04.14-.1-.16-.14.25.08Z" fill="#36722B"/><path d="M8.4 25.39c-.06.42.12.64.19.74-.68-.41-.65-.92-.53-1.12.11-.21.32-.33.47-.42.12.1.14.23.12.3l-.11.15-.2-.09.15.17-.06.17-.15-.06c.03.02.05.1.12.16ZM10.74 23.33c-.18.51-.11.8-.05.94-.68-.76-.46-1.27-.26-1.5.2-.24.5-.35.71-.42.13.14.13.3.08.37l-.2.2-.24-.16.16.24-.14.22-.18-.11c.04.04.05.13.12.22Z" fill="#559337"/><path d="M9.62 24.36c.57-.18.9-.14 1.05-.08-.88-.59-1.45-.37-1.7-.18a1.4 1.4 0 0 0-.45.66c.17.1.35.1.43.05l.2-.19-.17-.2.28.13.23-.13-.12-.16c.04.03.14.04.25.1Z" fill="#36722B"/><path d="M9.84 24.9c.39-.46.7-.6.87-.63-1.12-.08-1.49.42-1.6.73-.1.3-.03.61.02.83.2 0 .36-.09.4-.17l.07-.28-.28-.1.32-.02.13-.25-.21-.07c.06 0 .15-.05.28-.04Z" fill="#559337"/><path d="M12.2 23.34c.23-.04.21-.25.17-.35a2.3 2.3 0 0 0-.6-.07c-1 .03-1.18.9-1.04 1.36a1 1 0 0 1 .36-.5l-.04-.21.1.15.25-.14.03-.33.1.25.27-.09.03-.26.1.24.27-.05Z" fill="#36722B"/><path d="M12.21 29.37c.69-1.35-.7-3.94-1.5-5.07A6.64 6.64 0 0 1 13 29.37c-.08.09-.35.2-.78 0ZM8.56 26.14c1.57 1.38 1.98 2.73 1.99 3.24.1.17.37.41.5 0a5.18 5.18 0 0 0-2.5-3.24Z" fill="#BF7536"/><path d="M8.23 26.62c0-.2.2-.44.3-.54.18.15.28.35.3.44l-.1-.02a1 1 0 0 1 .12.1c.02.16 0 .25-.02.28l-.14-.06a6 6 0 0 0 .13.15c-.04.11-.18.27-.24.33l-.2-.21.02-.19-.09.08a.8.8 0 0 1-.08-.26l.1-.1h-.1Z" fill="#36722B"/><path d="M9.12 25.75c-.23.01-.49.21-.59.31.18.16.42.23.52.24l-.02-.1c.02.03.09.09.12.1.18 0 .28-.02.31-.03l-.08-.13.18.1c.13-.04.3-.18.36-.24l-.26-.17-.21.04.08-.08a1.1 1.1 0 0 0-.3-.05l-.1.1-.01-.1ZM11.56 23.99c-.3-.04-.71.16-.88.27.2.25.5.4.62.45v-.13l.13.16c.23.05.38.04.42.03l-.06-.19.2.18c.2-.03.45-.17.56-.24l-.3-.28h-.3l.15-.1a1.44 1.44 0 0 0-.39-.14l-.17.12.02-.13Z" fill="#559337"/><path d="M10.96 25.08c.05-.27-.16-.65-.28-.8-.28.16-.46.43-.51.54h.14l-.18.12a.82.82 0 0 0-.04.38l.2-.05-.2.18c.02.17.17.4.25.5l.32-.25v-.27c.03.03.09.1.1.13.1-.11.16-.28.18-.34l-.12-.16.14.02Z" fill="#36722B"/><path d="M46.96 26.68a1.19 1.19 0 0 0-.48-.58c.81.1 1.03.56 1.03.8 0 .23-.13.42-.23.56-.15-.05-.2-.2-.22-.26v-.15h.22l-.24-.11-.04-.16.22-.03a7.58 7.58 0 0 1-.26-.07Z" fill="#559337"/><path d="M46.13 25.56c.24.24.32.54.32.66.3-.69-.04-1.09-.26-1.2-.23-.1-.48-.1-.65-.1-.04.15.08.27.14.31l.14.07.1-.18v.25l.14.11.12-.16-.05.24Z" fill="#36722B"/><path d="M47.22 26.28a1.4 1.4 0 0 0-.78-.19c.7-.37 1.2-.13 1.35.06.16.18.19.4.21.56-.15.06-.3-.03-.35-.08l-.1-.1.18-.13-.28.04-.14-.1.16-.14-.25.08Z" fill="#36722B"/><path d="M46.6 25.39c.06.42-.12.64-.19.74.68-.41.65-.92.53-1.12-.11-.21-.32-.33-.47-.42-.12.1-.14.23-.12.3l.11.15.2-.09-.15.17.06.17.16-.06c-.04.02-.06.1-.13.16ZM44.26 23.33c.18.51.11.8.05.94.68-.76.46-1.27.26-1.5-.2-.24-.5-.35-.71-.42-.13.14-.13.3-.08.37l.2.2.24-.16-.16.24.14.22.18-.11c-.04.04-.05.13-.12.22Z" fill="#559337"/><path d="M45.38 24.36c-.57-.18-.9-.14-1.05-.08.88-.59 1.45-.37 1.7-.18.26.19.37.46.45.66-.17.1-.35.1-.43.05l-.2-.19.17-.2-.28.13-.23-.13.12-.16c-.04.03-.14.04-.25.1Z" fill="#36722B"/><path d="M45.16 24.9c-.39-.46-.7-.6-.87-.63 1.12-.08 1.49.42 1.6.73.1.3.03.61-.02.83-.2 0-.36-.09-.4-.17l-.07-.28.28-.1-.32-.02-.13-.25.21-.07c-.06 0-.15-.05-.28-.04Z" fill="#559337"/><path d="M42.8 23.34c-.23-.04-.21-.25-.17-.35.23-.06.43-.08.6-.07 1 .03 1.18.9 1.04 1.36a1 1 0 0 0-.36-.5l.04-.21-.1.15-.25-.14-.03-.33-.1.25-.27-.09-.03-.26-.1.24-.27-.05Z" fill="#36722B"/><path d="M42.79 29.37c-.69-1.35.7-3.94 1.5-5.07A6.64 6.64 0 0 0 42 29.37c.08.09.35.2.78 0ZM46.44 26.14c-1.57 1.38-1.98 2.73-1.99 3.24-.1.17-.37.41-.5 0a5.18 5.18 0 0 1 2.5-3.24Z" fill="#BF7536"/><path d="M46.77 26.62c0-.2-.2-.44-.3-.54a.91.91 0 0 0-.3.44l.1-.02-.12.1c-.02.16 0 .25.02.28l.14-.06-.13.15c.04.11.18.27.24.33l.2-.21-.02-.19.09.08a.8.8 0 0 0 .08-.26l-.1-.1h.1Z" fill="#36722B"/><path d="M45.88 25.75c.23.01.49.21.59.31a1.1 1.1 0 0 1-.52.24l.02-.1c-.02.03-.09.09-.12.1a.82.82 0 0 1-.31-.03l.08-.13-.18.1c-.13-.04-.3-.18-.36-.24l.26-.17.21.04a1.3 1.3 0 0 0-.08-.08c.1-.04.24-.05.3-.05l.1.1.01-.1ZM43.44 23.99c.3-.04.71.16.88.27-.2.25-.5.4-.62.45v-.13l-.13.16c-.23.05-.38.04-.43.03l.07-.19-.2.18a1.9 1.9 0 0 1-.56-.24l.3-.28h.3l-.15-.1c.13-.07.31-.12.39-.14l.17.12-.02-.13Z" fill="#559337"/><path d="M44.04 25.08c-.05-.27.16-.65.28-.8.28.16.46.43.51.54h-.14l.18.12c.06.2.05.34.04.38l-.2-.05.2.18c-.02.17-.17.4-.25.5l-.32-.25v-.27c-.03.03-.09.1-.1.13-.1-.11-.16-.28-.18-.34l.12-.16-.14.02Z" fill="#36722B"/><path fill-rule="evenodd" clip-rule="evenodd" d="m14.23 30.54-.3 4.36h.85l.28-4.36h-.83Zm-.17-.19-.33 4.74h1.22l.3-4.74h-1.19Z" fill="url(#bnz3ycpvlp)"/><path d="M44.92 29H8.07L8 30h37l-.08-1Z" fill="#89BDF1"/><defs><linearGradient id="az3ycpvlp" x1="12.05" y1="20.84" x2="16.61" y2="29.64" gradientUnits="userSpaceOnUse"><stop stop-color="#8C50DF"/><stop offset="1" stop-color="#4D34B3"/></linearGradient><linearGradient id="bz3ycpvlp" x1="13.79" y1="19.27" x2="13.85" y2="20.13" gradientUnits="userSpaceOnUse"><stop stop-color="#4D34B3"/><stop offset="1" stop-color="#7746D0"/></linearGradient><linearGradient id="cz3ycpvlp" x1="17.38" y1="20.37" x2="16.19" y2="20.34" gradientUnits="userSpaceOnUse"><stop stop-color="#623DC2"/><stop offset="1" stop-color="#9453E5"/></linearGradient><linearGradient id="dz3ycpvlp" x1="14.3" y1="18.71" x2="14.3" y2="20.16" gradientUnits="userSpaceOnUse"><stop stop-color="#4D34B3"/><stop offset="1" stop-color="#7C49D4"/></linearGradient><linearGradient id="ez3ycpvlp" x1="15.29" y1="18.63" x2="15.29" y2="20.09" gradientUnits="userSpaceOnUse"><stop stop-color="#4D34B3"/><stop offset="1" stop-color="#7C49D4"/></linearGradient><linearGradient id="fz3ycpvlp" x1="16.16" y1="20.21" x2="11.36" y2="20.46" gradientUnits="userSpaceOnUse"><stop stop-color="#4F35B4"/><stop offset="1" stop-color="#9C57EB"/></linearGradient><linearGradient id="gz3ycpvlp" x1="14.07" y1="20.73" x2="14.75" y2="29.65" gradientUnits="userSpaceOnUse"><stop stop-color="#9E58EC"/><stop offset="1" stop-color="#5A3ABC"/></linearGradient><linearGradient id="hz3ycpvlp" x1="23.99" y1="18.74" x2="22.32" y2="18" gradientUnits="userSpaceOnUse"><stop stop-color="#FF92AD"/><stop offset="1" stop-color="#FF5C81"/></linearGradient><linearGradient id="iz3ycpvlp" x1="22.39" y1="17.8" x2="17.01" y2="18.21" gradientUnits="userSpaceOnUse"><stop stop-color="#FFA3BB"/><stop offset="1" stop-color="#FF577E"/></linearGradient><linearGradient id="jz3ycpvlp" x1="20.11" y1="18.21" x2="20.32" y2="29.73" gradientUnits="userSpaceOnUse"><stop stop-color="#FF6689"/><stop offset="1" stop-color="#FFA6BD"/></linearGradient><linearGradient id="kz3ycpvlp" x1="20.11" y1="18.47" x2="21.04" y2="29.66" gradientUnits="userSpaceOnUse"><stop stop-color="#FF547B"/><stop offset="1" stop-color="#FFA1B9"/></linearGradient><linearGradient id="lz3ycpvlp" x1="22.28" y1="27.42" x2="18.42" y2="27.8" gradientUnits="userSpaceOnUse"><stop stop-color="#FFA3BB"/><stop offset="1" stop-color="#FF577E"/></linearGradient><linearGradient id="mz3ycpvlp" x1="19.87" y1="17.26" x2="20.61" y2="27.46" gradientUnits="userSpaceOnUse"><stop stop-color="#FFA6BD"/><stop offset="1" stop-color="#FF577D"/></linearGradient><linearGradient id="nz3ycpvlp" x1="21.79" y1="27.16" x2="18.76" y2="27.41" gradientUnits="userSpaceOnUse"><stop stop-color="#FF577E"/><stop offset="1" stop-color="#FFA3BB"/></linearGradient><linearGradient id="oz3ycpvlp" x1="31.73" y1="16.85" x2="29.93" y2="16.85" gradientUnits="userSpaceOnUse"><stop stop-color="#41C9D6"/><stop offset="1" stop-color="#61FDA8"/></linearGradient><linearGradient id="pz3ycpvlp" x1="26.97" y1="17.13" x2="26.97" y2="29.54" gradientUnits="userSpaceOnUse"><stop stop-color="#5AF2B2"/><stop offset="1" stop-color="#40C8D7"/></linearGradient><linearGradient id="qz3ycpvlp" x1="26.95" y1="17.43" x2="26.95" y2="30.13" gradientUnits="userSpaceOnUse"><stop stop-color="#61FDA8"/><stop offset="1" stop-color="#43CDD3"/></linearGradient><linearGradient id="rz3ycpvlp" x1="29.93" y1="16.27" x2="24" y2="16.27" gradientUnits="userSpaceOnUse"><stop stop-color="#41C9D6"/><stop offset="1" stop-color="#61FDA8"/></linearGradient><linearGradient id="sz3ycpvlp" x1="25.29" y1="27.76" x2="25.29" y2="29.41" gradientUnits="userSpaceOnUse"><stop stop-color="#40C8D7"/><stop offset="1" stop-color="#5DF7AD"/></linearGradient><linearGradient id="tz3ycpvlp" x1="28.46" y1="27.76" x2="28.46" y2="29.41" gradientUnits="userSpaceOnUse"><stop stop-color="#40C8D7"/><stop offset="1" stop-color="#5DF7AD"/></linearGradient><linearGradient id="uz3ycpvlp" x1="29.18" y1="27.58" x2="24.67" y2="27.58" gradientUnits="userSpaceOnUse"><stop stop-color="#41C9D6"/><stop offset="1" stop-color="#61FDA8"/></linearGradient><linearGradient id="vz3ycpvlp" x1="28.65" y1="27.23" x2="25.09" y2="27.23" gradientUnits="userSpaceOnUse"><stop stop-color="#41C9D6"/><stop offset="1" stop-color="#61FDA8"/></linearGradient><linearGradient id="wz3ycpvlp" x1="26.43" y1="16.88" x2="26.43" y2="27.06" gradientUnits="userSpaceOnUse"><stop stop-color="#40C8D7"/><stop offset="1" stop-color="#60FBAA"/></linearGradient><linearGradient id="xz3ycpvlp" x1="27.18" y1="16.88" x2="27.18" y2="27.06" gradientUnits="userSpaceOnUse"><stop stop-color="#40C8D7"/><stop offset="1" stop-color="#60FBAA"/></linearGradient><linearGradient id="yz3ycpvlp" x1="30" y1="15.9" x2="24" y2="15.9" gradientUnits="userSpaceOnUse"><stop stop-color="#61FDA8"/><stop offset="1" stop-color="#41C9D6"/></linearGradient><linearGradient id="zz3ycpvlp" x1="29.48" y1="14.86" x2="24.27" y2="14.86" gradientUnits="userSpaceOnUse"><stop stop-color="#41C9D6"/><stop offset="1" stop-color="#61FDA8"/></linearGradient><linearGradient id="aaz3ycpvlp" x1="38.04" y1="19.23" x2="36.5" y2="18.32" gradientUnits="userSpaceOnUse"><stop stop-color="#FF92AD"/><stop offset="1" stop-color="#FF5C81"/></linearGradient><linearGradient id="abz3ycpvlp" x1="36.61" y1="18.08" x2="31.39" y2="17.82" gradientUnits="userSpaceOnUse"><stop stop-color="#FFA3BB"/><stop offset="1" stop-color="#FF577E"/></linearGradient><linearGradient id="acz3ycpvlp" x1="34.37" y1="18.19" x2="33.03" y2="29.63" gradientUnits="userSpaceOnUse"><stop stop-color="#FF6689"/><stop offset="1" stop-color="#FFA6BD"/></linearGradient><linearGradient id="adz3ycpvlp" x1="34.34" y1="18.44" x2="33.77" y2="29.66" gradientUnits="userSpaceOnUse"><stop stop-color="#FF547B"/><stop offset="1" stop-color="#FFA1B9"/></linearGradient><linearGradient id="aez3ycpvlp" x1="35.32" y1="27.61" x2="31.57" y2="27.5" gradientUnits="userSpaceOnUse"><stop stop-color="#FFA3BB"/><stop offset="1" stop-color="#FF577E"/></linearGradient><linearGradient id="afz3ycpvlp" x1="34.26" y1="17.22" x2="33.63" y2="27.42" gradientUnits="userSpaceOnUse"><stop stop-color="#FFA6BD"/><stop offset="1" stop-color="#FF577D"/></linearGradient><linearGradient id="agz3ycpvlp" x1="34.89" y1="27.28" x2="31.94" y2="27.16" gradientUnits="userSpaceOnUse"><stop stop-color="#FF577E"/><stop offset="1" stop-color="#FFA3BB"/></linearGradient><linearGradient id="ahz3ycpvlp" x1="38.03" y1="20.5" x2="41.25" y2="29.93" gradientUnits="userSpaceOnUse"><stop stop-color="#8C50DF"/><stop offset="1" stop-color="#4D34B3"/></linearGradient><linearGradient id="aiz3ycpvlp" x1="39.98" y1="19.21" x2="39.9" y2="20.07" gradientUnits="userSpaceOnUse"><stop stop-color="#4D34B3"/><stop offset="1" stop-color="#7746D0"/></linearGradient><linearGradient id="ajz3ycpvlp" x1="43.38" y1="20.84" x2="42.2" y2="20.65" gradientUnits="userSpaceOnUse"><stop stop-color="#623DC2"/><stop offset="1" stop-color="#9453E5"/></linearGradient><linearGradient id="akz3ycpvlp" x1="39.54" y1="18.61" x2="39.32" y2="20.05" gradientUnits="userSpaceOnUse"><stop stop-color="#4D34B3"/><stop offset="1" stop-color="#7C49D4"/></linearGradient><linearGradient id="alz3ycpvlp" x1="40.56" y1="18.73" x2="40.34" y2="20.17" gradientUnits="userSpaceOnUse"><stop stop-color="#4D34B3"/><stop offset="1" stop-color="#7C49D4"/></linearGradient><linearGradient id="amz3ycpvlp" x1="42.19" y1="20.5" x2="37.4" y2="20.09" gradientUnits="userSpaceOnUse"><stop stop-color="#4F35B4"/><stop offset="1" stop-color="#9C57EB"/></linearGradient><linearGradient id="anz3ycpvlp" x1="40.05" y1="20.7" x2="39.37" y2="29.62" gradientUnits="userSpaceOnUse"><stop stop-color="#9E58EC"/><stop offset="1" stop-color="#5A3ABC"/></linearGradient><linearGradient id="aoz3ycpvlp" x1="28.04" y1="29.54" x2="28.04" y2="37.41" gradientUnits="userSpaceOnUse"><stop stop-color="#63A3EA"/><stop offset="1" stop-color="#9046CE"/></linearGradient><linearGradient id="apz3ycpvlp" x1="10.77" y1="30.36" x2="10.77" y2="36.36" gradientUnits="userSpaceOnUse"><stop offset=".76" stop-color="#177277"/><stop offset=".98" stop-color="#30A6B1"/></linearGradient><linearGradient id="aqz3ycpvlp" x1="14.58" y1="30.35" x2="14.58" y2="36.26" gradientUnits="userSpaceOnUse"><stop offset=".76" stop-color="#177277"/><stop offset=".98" stop-color="#30A6B1"/></linearGradient><linearGradient id="arz3ycpvlp" x1="18.06" y1="30.34" x2="18.06" y2="36.2" gradientUnits="userSpaceOnUse"><stop offset=".76" stop-color="#177277"/><stop offset=".98" stop-color="#30A6B1"/></linearGradient><linearGradient id="asz3ycpvlp" x1="34.62" y1="30.34" x2="34.62" y2="36.2" gradientUnits="userSpaceOnUse"><stop offset=".76" stop-color="#177277"/><stop offset=".98" stop-color="#30A6B1"/></linearGradient><linearGradient id="atz3ycpvlp" x1="39.81" y1="30.34" x2="39.81" y2="36.26" gradientUnits="userSpaceOnUse"><stop offset=".76" stop-color="#177277"/><stop offset=".98" stop-color="#30A6B1"/></linearGradient><linearGradient id="auz3ycpvlp" x1="45.25" y1="30.35" x2="45.25" y2="36.38" gradientUnits="userSpaceOnUse"><stop offset=".76" stop-color="#177277"/><stop offset=".98" stop-color="#30A6B1"/></linearGradient><linearGradient id="avz3ycpvlp" x1="24.06" y1="30.33" x2="24.06" y2="36.15" gradientUnits="userSpaceOnUse"><stop offset=".76" stop-color="#177277"/><stop offset=".98" stop-color="#30A6B1"/></linearGradient><linearGradient id="awz3ycpvlp" x1="29.56" y1="30.33" x2="29.56" y2="36.13" gradientUnits="userSpaceOnUse"><stop offset=".76" stop-color="#177277"/><stop offset=".98" stop-color="#30A6B1"/></linearGradient><linearGradient id="axz3ycpvlp" x1="12.27" y1="18.81" x2="12.27" y2="20.27" gradientUnits="userSpaceOnUse"><stop stop-color="#4D34B3"/><stop offset="1" stop-color="#7C49D4"/></linearGradient><linearGradient id="ayz3ycpvlp" x1="10.67" y1="30.37" x2="10.67" y2="35.19" gradientUnits="userSpaceOnUse"><stop stop-color="#61FDA8"/><stop offset=".47" stop-color="#76E9CD"/><stop offset=".53" stop-color="#33A0AC"/><stop offset="1" stop-color="#33A0AC"/></linearGradient><linearGradient id="azz3ycpvlp" x1="10.67" y1="30.37" x2="10.67" y2="35.19" gradientUnits="userSpaceOnUse"><stop stop-color="#41C9D6"/><stop offset="1" stop-color="#61FDA8"/></linearGradient><linearGradient id="baz3ycpvlp" x1="34.65" y1="30.33" x2="34.65" y2="35.02" gradientUnits="userSpaceOnUse"><stop stop-color="#61FDA8"/><stop offset=".47" stop-color="#76E9CD"/><stop offset=".53" stop-color="#33A0AC"/><stop offset="1" stop-color="#33A0AC"/></linearGradient><linearGradient id="bbz3ycpvlp" x1="34.65" y1="30.33" x2="34.65" y2="35.02" gradientUnits="userSpaceOnUse"><stop stop-color="#41C9D6"/><stop offset="1" stop-color="#61FDA8"/></linearGradient><linearGradient id="bcz3ycpvlp" x1="18.01" y1="30.35" x2="18.01" y2="35.05" gradientUnits="userSpaceOnUse"><stop stop-color="#61FDA8"/><stop offset=".47" stop-color="#76E9CD"/><stop offset=".53" stop-color="#33A0AC"/><stop offset="1" stop-color="#33A0AC"/></linearGradient><linearGradient id="bdz3ycpvlp" x1="18.01" y1="30.35" x2="18.01" y2="35.05" gradientUnits="userSpaceOnUse"><stop stop-color="#41C9D6"/><stop offset="1" stop-color="#61FDA8"/></linearGradient><linearGradient id="bez3ycpvlp" x1="45.36" y1="30.33" x2="45.36" y2="35.21" gradientUnits="userSpaceOnUse"><stop stop-color="#61FDA8"/><stop offset=".47" stop-color="#76E9CD"/><stop offset=".53" stop-color="#33A0AC"/><stop offset="1" stop-color="#33A0AC"/></linearGradient><linearGradient id="bfz3ycpvlp" x1="45.36" y1="30.33" x2="45.36" y2="35.21" gradientUnits="userSpaceOnUse"><stop stop-color="#41C9D6"/><stop offset="1" stop-color="#61FDA8"/></linearGradient><linearGradient id="bgz3ycpvlp" x1="39.87" y1="30.33" x2="39.87" y2="35.11" gradientUnits="userSpaceOnUse"><stop stop-color="#61FDA8"/><stop offset=".47" stop-color="#76E9CD"/><stop offset=".53" stop-color="#33A0AC"/><stop offset="1" stop-color="#33A0AC"/></linearGradient><linearGradient id="bhz3ycpvlp" x1="39.87" y1="30.33" x2="39.87" y2="35.11" gradientUnits="userSpaceOnUse"><stop stop-color="#41C9D6"/><stop offset="1" stop-color="#61FDA8"/></linearGradient><linearGradient id="biz3ycpvlp" x1="29.57" y1="30.33" x2="29.57" y2="35" gradientUnits="userSpaceOnUse"><stop stop-color="#61FDA8"/><stop offset=".47" stop-color="#76E9CD"/><stop offset=".53" stop-color="#33A0AC"/><stop offset="1" stop-color="#33A0AC"/></linearGradient><linearGradient id="bjz3ycpvlp" x1="29.57" y1="30.33" x2="29.57" y2="35" gradientUnits="userSpaceOnUse"><stop stop-color="#41C9D6"/><stop offset="1" stop-color="#61FDA8"/></linearGradient><linearGradient id="bkz3ycpvlp" x1="24.06" y1="30.33" x2="24.06" y2="35" gradientUnits="userSpaceOnUse"><stop stop-color="#61FDA8"/><stop offset=".47" stop-color="#76E9CD"/><stop offset=".53" stop-color="#33A0AC"/><stop offset="1" stop-color="#33A0AC"/></linearGradient><linearGradient id="blz3ycpvlp" x1="24.06" y1="30.33" x2="24.06" y2="35" gradientUnits="userSpaceOnUse"><stop stop-color="#41C9D6"/><stop offset="1" stop-color="#61FDA8"/></linearGradient><linearGradient id="bmz3ycpvlp" x1="14.49" y1="30.35" x2="14.49" y2="35.09" gradientUnits="userSpaceOnUse"><stop stop-color="#61FDA8"/><stop offset=".47" stop-color="#76E9CD"/><stop offset=".53" stop-color="#33A0AC"/><stop offset="1" stop-color="#33A0AC"/></linearGradient><linearGradient id="bnz3ycpvlp" x1="14.49" y1="30.35" x2="14.49" y2="35.09" gradientUnits="userSpaceOnUse"><stop stop-color="#41C9D6"/><stop offset="1" stop-color="#61FDA8"/></linearGradient></defs></svg>