<svg width="112" height="112" viewBox="0 0 56 56" xmlns="http://www.w3.org/2000/svg"><path d="m36.68 41.75-.4-1.53-.02-.02-.03-.02h-.03l-.03.01a6.63 6.63 0 0 1-6.92 1.18.21.21 0 0 1-.1-.07.2.2 0 0 1 .07-.31c.16-.08.3-.09.41-.03 1.3.2 2.6.24 3.87.13 2.33-.2 2.33-2.33 3.2-3.9.7-1.26 1.16-2.5 1.37-3.7.18-1.04.76-1.56 1.16-2.48a.59.59 0 0 0 .04-.37l-.54-2.82a4.11 4.11 0 0 1 .36-2.7.36.36 0 0 0-.17-.45.38.38 0 0 0-.18-.05c-.42.01-.72.2-.9.56a.33.33 0 0 0 .04.36c.16.2.26.39.31.59.02.07 0 .12-.07.15l-1.77.68a.43.43 0 0 1-.41-.04c-.29-.19-.48-.28-.6-.28-.66 0-.7.18-.08.55.13.07.25.25.37.51.04.11.01.18-.1.22-.37.13-.71.13-1.02.01-.15-.06-.23 0-.24.15-.15 1.32.12 2.4.82 3.24a.59.59 0 0 1 .13.45.58.58 0 0 1-.25.4c-.64.46-1.45 1.15-2.07 1.08l-1.04-.15a.18.18 0 0 1-.16-.15c-.02-.08-.02-.13 0-.16a.17.17 0 0 0 .03-.11.21.21 0 0 0-.04-.12.32.32 0 0 0-.12-.09.37.37 0 0 0-.14-.04 3.73 3.73 0 0 1-1.34-.2c-.82-.6.3-1.6.87-1.91.24-.13.27-.08.1.13-.1.13-.35.37-.73.74-.2.2-.25.39-.15.59.06.14.17.18.32.14.86-.23 1.77-.1 2.72.42.12.06.25.1.38.09a1.7 1.7 0 0 0 1.3-.7c.08-.1.08-.21-.03-.32a3.55 3.55 0 0 1-.96-2.24c-.2-1.76-.17-3.13.05-4.1a.34.34 0 0 0-.1-.34c-.15-.16-.14-.32.05-.48a.27.27 0 0 0 .08-.3l-.06-.14c-.01-.04 0-.07.03-.1a.15.15 0 0 1 .14-.03c.07.01.11.05.13.12.03.13.03.3 0 .5a.41.41 0 0 0 .15.4.43.43 0 0 0 .42.06l2.63-1.01a.33.33 0 0 1 .22 0l1.38.48c.13.04.16 0 .1-.12a4.69 4.69 0 0 1-.72-2.32c.03-1.34.1-3.18-1.47-3.72-.56-.2-1.43-.47-2.61-.82a.12.12 0 0 1-.08-.06.19.19 0 0 1 0-.18c.06-.1.13-.11.2-.03l.1.09c.06.07.14.07.21 0 .09-.09.12-.2.08-.33-.02-.06-.04-.1-.07-.1-.03 0-.07 0-.1-.02-.05 0-.08-.04-.07-.1.01-.19.11-.3.3-.3.03.22.15.43.35.65.09.1.2.12.33.08 1.5-.44 3.18-1.8 2.48-3.5-.07-.16-.02-.22.16-.17.43.1.58.46.43 1.08a.08.08 0 0 0 .02.08l.05.02a.1.1 0 0 0 .04 0l.28-.11c.1-.04.15-.1.17-.2.14-.73-.03-1.19-.52-1.37-.73-.29-1.78-.5-3.15-.62v.01l1.27-.17c.46-.07.48-.2.06-.4a2.63 2.63 0 0 0-1.48-.16c-1.51.19-2.9.2-4.14.04-.22-.03-.22-.06 0-.1.35-.05.59-.06.72-.04.72.12.77 0 .13-.35-1.03-.59-2.18.05-3.68.6-.75.28-1.53.36-2.34.23-.04 0-.05-.03-.06-.07 0-.07.03-.1.1-.1a6.58 6.58 0 0 0 2.91-.78.1.1 0 0 0 0-.12.11.11 0 0 0-.05-.03c-2.48-1.03-3.95.04-6.08 1a.1.1 0 0 1-.13-.03.1.1 0 0 1 .03-.13.35.35 0 0 0 .1-.1c.09-.14.05-.2-.12-.2a8.2 8.2 0 0 0-2.74.57c-.94.4-2.28.72-3.08 1.32-.9.67-1.64 1.44-2.25 2.3-.55.78-.4 2.08-.37 2.87 0 .08.04.1.11.07l.14-.05a.12.12 0 0 0 .09-.1c.03-.23.1-.35.24-.36a.14.14 0 0 1 .13.06.13.13 0 0 1 0 .14c-.37.61-.77 1.17-1.19 1.67-.96 1.16-.16 2.79.44 4.24.05.11.14.2.25.25.16.07.19.2.07.4-.47.8-1.04 2.22-.55 2.94.11.15.18.14.21-.04.11-.54.34-1.08.69-1.63.12-.2.17-.18.17.05 0 .23.02.42.07.55.03.06.07.1.13.13.05.03.11.04.17.03a.52.52 0 0 0 .33-.2c.14-.1.27-.07.4.1-.2.2-.28.46-.26.76.1 1.6.92 4.77 2.88 4.95.36.04.58-.04.66-.24.14-.36.25-.36.34.01l.63 2.67c-.38.07-.64-.27-.79-1.02a.16.16 0 0 0-.2-.12.16.16 0 0 0-.07.04c-.9.97-.6 3.17-.42 4.38l.02 5.52c0 .03-.02.06-.04.08a.12.12 0 0 1-.09.04h-.16c-.09 0-.13-.04-.13-.13v-5.95a.88.88 0 0 0-.15-.48.92.92 0 0 0-.38-.33 2.71 2.71 0 0 1-1.27-1.38c-.17-.38-.08-.91-.5-1.35a9.82 9.82 0 0 1-.5-.56c-.6-1-.75-2-.43-3a.95.95 0 0 0-.22-.95c-.95-1-2.05-1.88-1.52-3.41.28-.8.53-1.2.27-1.97-.24-.68-.5-1.43-.76-2.25-.46-1.4.22-1.98.9-2.99.07-.1.09-.23.06-.35-.54-2.37.12-3.27 1.79-4.92a6.45 6.45 0 0 1 2.1-1.4 15.57 15.57 0 0 1 5.13-1.33 4.83 4.83 0 0 0 1.7-.45c1.7-.74 3.11-.44 4.95.1.13.05.27.05.4.02 1.41-.35 1.98.12 3.18.58.3.12.62.15.93.1 1.14-.17 2.04-.33 3.09.28.12.07.2.17.23.3.08.33.3.47.69.44.14-.01.27.02.39.09.69.4.99.9.9 1.53-.06.4.08.66.41.76 1.07.32 1.6 1.09 1.49 2.2-.03.19-.33.78-.9 1.76a.38.38 0 0 0-.01.37c.23.43.63.71 1.22.85a.3.3 0 0 1 .2.17.29.29 0 0 1-.02.27c-.62.96-1.51 1.33-2.68 1.13-.03-.01-.06 0-.08.04-.03.04-.04.07-.03.1 0 .05.04.08.09.08.12.01.2.05.26.13.1.14.06.21-.1.22-.03 0-.07.03-.13.07-.06.05-.07.11-.03.18.5.78 1.1.47 1.67.63.13.04.2.1.22.2.02.13-.03.22-.14.29-.22.13-.34.29-.35.49 0 .15.06.2.2.13.5-.22.71-.63.62-1.25-.07-.43-.33-.6-.77-.52l-.87.18c-.05 0-.1-.01-.12-.06l-.11-.18c-.06-.1-.03-.14.08-.14.44-.01.81-.08 1.1-.2.08-.02.19 0 .34.04l.44.16c.1.03.2.02.29-.04a2.87 2.87 0 0 0 .98-1l.01.01.1.1c.04.03.04.07.01.12-.3.47-.66.85-1.1 1.15-.12.1-.16.2-.11.35.2.58-.04 1.09-.7 1.52a.2.2 0 0 0-.07.05l-1.95 2.79c-.07.1-.1.2-.07.32.24 1.33.44 2.29.59 2.89.27 1.06-.83 1.98-1.07 3.08a15.32 15.32 0 0 1-1.57 4.14c-.25.46-.3 1-.23 1.46.29 1.82.52 3.64.69 5.46 0 .06-.03.1-.09.1l-.14.03a.15.15 0 0 1-.11-.03.16.16 0 0 1-.07-.1l-.3-2.63Z" fill="#2B2B2B"/><path d="m34.9 16.22.04-2.1c0-.04.03-.06.07-.04l.11.04c.02 0 .02 0 .02.02.07.37.1.89.1 1.57 0 .25.1.38.3.4a.26.26 0 0 0 .22-.08.25.25 0 0 0 .05-.22 2.81 2.81 0 0 1 0-1.47c.09-.33.14-.32.15.01l.06.98c.02.43.15.47.38.1.48-.76.48-1.54 0-2.34a.17.17 0 0 1-.02-.06v-.05l.01-.04.03-.03h.11c.04 0 .06.01.08.04.98 1.32.24 2.68-.88 3.6a.36.36 0 0 1-.29.07.31.31 0 0 1-.13-.06.29.29 0 0 1-.09-.1v-.15c.01-.08-.02-.12-.1-.14-.05-.01-.13 0-.22.05Z" fill="#3B403D"/><path d="M30.7 16.86c-.65-.2-1.28-.27-1.87.13-.52.34-1.05.27-1.67.65a15.5 15.5 0 0 0-3.93 3.31c-.08.1-.13.2-.16.33l-.35 1.7c-.02.04 0 .07.05.08l.21.05c.1.02.17-.02.2-.12.06-.17.09-.35.08-.54 0-.15.08-.22.23-.22.2 0 .38.16.55.45-.55.52-1.18 1-1.91 1.44-.7.42-.93.89-1.21 1.58.01 1.05-.33 1.66-1.15 2.27a.6.6 0 0 0-.25.62c.09.54.14 1.15.17 1.84-.73.14-1.4-.25-2-1.15a5.69 5.69 0 0 0-1.36-3.53c.06-.18.15-.32.27-.43.1-.1.23-.12.37-.06 1.21.6 2.51.8 3.6-.26a.37.37 0 0 0 .12-.3.36.36 0 0 0-.17-.27l-.24-.16a.18.18 0 0 1-.08-.16.17.17 0 0 1 .1-.14c1.27-.55 2.2-1.05 2.24-2.54 0-.15-.07-.23-.23-.23h-1.04c-.21 0-.52.12-.93.35-1.26.7-2.46.51-3.6-.59-.02 0-.02-.02-.02-.03l.02-.12a.05.05 0 0 1 .03-.03.05.05 0 0 1 .05 0c.8.61 2.25 1.18 3.26.54.15-.1.15-.18-.02-.25a1.46 1.46 0 0 0-.63-.02c-.16.02-.17-.02-.04-.1l.46-.28c.1-.06.21-.07.33-.02 1.25.52 2.4.22 3.46-.9a.33.33 0 0 0 .07-.32.32.32 0 0 0-.25-.22l-1.02-.2a.08.08 0 0 1-.06-.04.08.08 0 0 1 0-.06l.01-.12.05-.07a.12.12 0 0 1 .08-.02c1 .11 1.98-.06 2.95-.5.33-.14.82-.58 1.45-1.3.94-1.07 1.84-1.53 3.38-1.29a.7.7 0 0 0 .35-.04c.3-.1.57-.06.79.13.11.1.18.22.2.37l.04.2c.03.24.1.25.22.04.14-.25.13-.5-.06-.71-.7-.84-1.68-1.14-2.93-.89-1.02.2-2.05.58-3.08 1.12-.02 0-.04 0-.04-.02l-.04-.1c-.03-.06-.01-.1.04-.13 1.84-.85 3.54-1.82 5.43-.95 1.19.55 1.52 1.43 1 2.63-.05.12-.14.16-.26.1l-1.26-.5Z" fill="#2B2B2B"/><path d="M30.7 16.86c-.3.19-.65.32-1.05.39a.44.44 0 0 0-.3.2c-.73 1.13-2.46 2.22-3.78 2.08a.3.3 0 0 0-.2.05c-.05.04-.09.09-.11.15-.17.53-.22 1.01-.13 1.46a.26.26 0 0 1-.13.29c-.49.3-.8.7-.96 1.2-.17-.29-.35-.44-.55-.45-.15 0-.23.07-.23.22 0 .2-.02.37-.08.54-.03.1-.1.14-.2.12l-.2-.05c-.06 0-.08-.04-.06-.09l.35-1.69a.76.76 0 0 1 .16-.33 15.5 15.5 0 0 1 3.93-3.31c.62-.38 1.15-.31 1.67-.65.6-.4 1.22-.33 1.87-.13ZM16.33 25.75a5.69 5.69 0 0 1 1.35 3.53l-1.14-1.8a.49.49 0 0 1-.07-.34c.14-.87.06-1.06-.24-.58-.12-.16-.25-.19-.4-.1a7.25 7.25 0 0 0-.5-.83c-.08-.11-.1-.2-.06-.27.09-.14.16-.14.23 0s.15.26.23.38c.19.24.39.25.6.01ZM20.92 25.7l.18 2.52c0 .13-.02.25-.07.37-.13.32-.21.6-.23.82-.06.62.43 1.07.05 1.74-.07.12-.17.16-.3.1a1.65 1.65 0 0 1-.86-.82c-.02-.69-.08-1.3-.17-1.84a.6.6 0 0 1 .25-.62c.82-.6 1.16-1.22 1.15-2.27ZM20.49 34.72c.14.4.27.86.38 1.37.04.18.17.32.37.43.27.15.43.23.48.27a30.96 30.96 0 0 0 7.91 4.17c-.12-.06-.25-.05-.4.03a.21.21 0 0 0-.12.2.21.21 0 0 0 .14.18 6.63 6.63 0 0 0 6.95-1.2h.03l.03.03.01.02.41 1.53c-.3-.5-.69-.65-1.15-.44a.4.4 0 0 0-.23.24l-.42 1.16c-.05.14-.15.2-.29.16-.58-.12-.93.1-1.05.66-.02.1-.1.17-.23.2a.22.22 0 0 1-.18-.05.2.2 0 0 1-.08-.16v-.29c0-.11-.05-.17-.17-.18-.05 0-.1.01-.15.04a.2.2 0 0 0-.08.26c.17.35.24.55.24.6 0 .14-.07.15-.22.02s-.28-.17-.38-.14c-.18.07-.2.16-.07.29l.22.22c.13.12.14.25.05.39-.47.69-1.62 1.83-2.41.95a.5.5 0 0 0-.33-.17 6.48 6.48 0 0 1-1.32-.46 3.47 3.47 0 0 1-2.02-2 7.41 7.41 0 0 0-.62-1.4 6.9 6.9 0 0 0-1.59-1.58 11.83 11.83 0 0 1-4.06-4.76.18.18 0 0 0-.23.02c-.22.23-.36.5-.42.83a.94.94 0 0 1-.15.35c-.3.4-.4.9-.33 1.5-.19-1.22-.49-3.42.42-4.39a.16.16 0 0 1 .16-.04.16.16 0 0 1 .11.12c.15.75.41 1.09.79 1.02Z" fill="#555F58"/><path d="M39.02 16.3c.21.17.34.21.38.12a.68.68 0 0 0-.38-.12l-.46-.77a.33.33 0 0 1-.01-.35c.23-.43.66-.53 1.29-.31.94.34 1.37.97 1.3 1.91-.05.48-.15.47-.3 0-.1-.33-.06-.75-.4-1.07-.43-.43-.88-.56-1.33-.39a.18.18 0 0 0-.1.08.17.17 0 0 0-.01.12c0 .04.02.07.03.1.02.01.06.03.13.04 2.57.41-.36 3.37 2.2 4.34.3.12.32.27.05.45l-.45.31a.65.65 0 0 1-.81 0C39.1 20 39.2 19.04 39 17.4c-.01-.1-.06-.12-.14-.07a.32.32 0 0 1-.2.05c-.11 0-.22-.09-.32-.23a.14.14 0 0 1 .05-.2.15.15 0 0 1 .07-.02c.09 0 .13-.04.15-.1.02-.06-.01-.1-.09-.1h-1.2c-.25 0-.26-.06-.05-.17l.88-.5a.44.44 0 0 1 .36-.04c.2.06.36.15.51.28Z" fill="#7E9387"/><path d="M37.22 25.93c.2.05.21.13.04.24-.45.28-.95.39-1.51.3a.17.17 0 0 1-.14-.1.17.17 0 0 1 .03-.17c.31-.38.84-.47 1.58-.27Z" fill="#9E9E9E"/><path d="M16.56 33.38c-.01-1.02-.21-1.75-.6-2.18-.31-.32-.4-.67-.26-1.06.16-.46.32-.46.48 0 .08.25.24.52.46.82.55.75.36 1.61-.08 2.42Z" fill="#555F58"/><path d="M16.56 33.38c-.8-.3-1-1.03-.6-2.18.39.43.59 1.16.6 2.18Z" fill="#7E9387"/><path d="M30.58 11.34h.01l.02.04c.01.03-.01.07-.08.12a6.3 6.3 0 0 1-1.33.69l-.13.05a10.4 10.4 0 0 1-1.09.36l-.35.06c-.09 0-.14-.01-.15-.04l-.01-.04 3.11-1.24ZM20.24 13.02c.47-.28.83-.55.78-.62-.04-.07-.46.1-.93.37-.48.27-.83.54-.79.61.04.07.46-.1.94-.36ZM32.69 12.76c-.1 0-.15-.02-.17-.09-.03-.07 0-.1.07-.06a2.72 2.72 0 0 1 1.56 1.99c.31 1.41-.2 2.37-1.53 2.88-.08.03-.13 0-.15-.07 0-.04 0-.07.02-.11a.18.18 0 0 1 .06-.08c.32-.23.64-.44.73-.82.34-1.44-.23-2.39-1.74-2.83-1.73-.51-3.54.23-5.08 1.16h-.02l-.08-.07c-.02-.03-.02-.05 0-.06 1.88-1.48 4.77-2.25 6.69-.47.46.42.7.93.71 1.53l.03.09.07.05a.16.16 0 0 0 .17-.04l.1-.09a.07.07 0 0 0 .01-.06 4.82 4.82 0 0 0-.78-1.82c-.46-.65-1.23-.88-2.1-1.24-.05-.03-.05-.06 0-.1l.08-.05h.01l1.34.36ZM24.3 13.41c.23-.14.57-.24 1-.3.15-.02.2.03.13.16-.05.09-.16.15-.34.17a1.4 1.4 0 0 0-.66.2c-.25.15-.32.2-.52.46-.1.14-.21.2-.32.2-.14-.01-.17-.07-.08-.18.28-.34.54-.58.78-.7ZM19 15.84c-.23.24-.29.33-.42.69-.07.19-.17.3-.29.33-.16.04-.21-.02-.15-.17.19-.48.39-.84.61-1.07.22-.24.56-.47 1.03-.7.15-.07.21-.02.19.14-.02.12-.13.22-.31.31-.35.16-.44.22-.67.47ZM22.36 16.23c-.36-.04-.79-.2-1.3-.46-.16-.09-.16-.17 0-.25.13-.06.29-.03.49.08.37.2.48.23.85.28.37.04.49.04.9-.08.21-.06.37-.04.48.04.14.12.12.2-.06.25a4 4 0 0 1-1.36.14ZM22.85 17.13l-1.6-.56c-.1-.03-.13-.1-.1-.19l.04-.1a.1.1 0 0 1 .06-.07.11.11 0 0 1 .08 0 5.4 5.4 0 0 0 4.19.31c.08-.03.12 0 .12.09v.13c0 .02-.01.04-.03.04-.72.26-1.54.43-2.12.86-.36.27-.92.17-1.1.34l-.11.11c-.08.11-.15.18-.2.2-.3.08-.51.01-.64-.22a.4.4 0 0 0-.3-.21 4.33 4.33 0 0 1-1.8-.7c-.02-.02-.03-.03-.02-.05l.04-.11c.02-.06.06-.07.11-.05 1.13.62 2.26.73 3.38.32.13-.05.13-.1 0-.14ZM18.58 20.28c-.3.1-.7.12-1.2.09-.17-.01-.2-.08-.1-.2.08-.1.22-.13.42-.11.37.03.47.02.78-.08.31-.1.4-.14.68-.37.16-.13.29-.17.4-.14.16.04.17.11.05.21-.4.31-.74.5-1.03.6ZM19 22.8c.29-.14.7-.24 1.24-.29.17-.02.22.05.13.2-.07.1-.2.17-.41.18-.4.03-.5.06-.82.22-.3.15-.4.21-.66.51-.13.16-.26.23-.4.22-.16-.02-.2-.1-.07-.22.35-.4.68-.66.98-.81Z" fill="#3B403D"/><path d="m31.62 25.21-1.11 1.22c-.1.1-.2.11-.3.03-.25-.19-.44-.28-.56-.29a13.1 13.1 0 0 1-.1-.18c.13-.66-.22-1.08-1.05-1.25a3.74 3.74 0 0 0-4.32.07l-.06-.09c-.03-.06-.02-.1.04-.13.74-.46 2.57-1.53 3.42-1.14 1.1.5 2.34.93 3.7 1.28a.5.5 0 0 0 .45-.08c.1-.07.14-.2.13-.38 0-.15.05-.17.17-.08.14.1.22.22.24.34a.29.29 0 0 1-.13.31l-.52.37Z" fill="#2B2B2B"/><path d="M29.55 26c-.94-.55-1.77-.57-2.48-.07-.32.23-.29.35.1.38a10 10 0 0 0 2.48-.14c.12 0 .3.1.55.29.11.08.21.08.3-.03l1.12-1.22c.13 2.08-.8 2.82-2.79 2.2-.14-.04-.17-.12-.08-.24.07-.09.17-.13.31-.12.4.02.43-.11.1-.4a.37.37 0 0 0-.29-.07c-1.23.19-2.39.07-3.47-.37a.69.69 0 0 0-.42-.03l-.57.12c-.19.05-.23 0-.12-.16.2-.3.53-.51 1.01-.64 1.35-.37 2.41-.62 3.2-.76.83.17 1.18.59 1.05 1.25Z" fill="#3B403D"/><path d="M19.83 24.93c.15-.13.27-.2.37-.22.26-.04.27.04.06.22-.45.38-.86.57-1.23.57-.28 0-.32-.06-.13-.2.1-.07.3-.14.6-.2a.69.69 0 0 0 .33-.17Z" fill="#555F58"/><path d="m29.55 26 .1.17a10 10 0 0 1-2.47.14c-.4-.03-.43-.15-.11-.38.71-.5 1.54-.48 2.48.06Z" fill="#9E9E9E"/><path d="M36.15 33.44a.16.16 0 0 0-.06-.17.16.16 0 0 0-.18 0c-.98.59-2 .88-3.09.86a15.33 15.33 0 0 1-6.07-1.28.34.34 0 0 0-.37.06.32.32 0 0 0-.07.36l.24.61a.14.14 0 0 1-.04.16.25.25 0 0 1-.18.05.15.15 0 0 1-.1-.05l-1.2-1.4a.37.37 0 0 1-.09-.31.37.37 0 0 1 .2-.26c.83-.4 1.64-1 2.56-.42.17.1.16.18-.05.22l-.7.12c-.6.1-.63.27-.07.52 1.38.61 3 1.03 4.84 1.26a6.22 6.22 0 0 0 4.62-1.1c.37-.24.34-.4-.1-.5l-.2-.03c-.18-.04-.25-.15-.21-.32l.11-.52c.03-.16.13-.23.3-.22.33.01.5.2.51.54 0 .06.02.13.06.19.03.06.08.1.14.14.25.14.4.31.47.52.04.12 0 .22-.1.3-.46.4-.81.87-1.04 1.42-.03.06-.07.08-.14.07l-.12-.03c-.02 0-.03-.01-.03-.03l.16-.76Z" fill="#2B2B2B"/><path d="m31.78 35.67-1.18-.54c-.03-.02-.04-.05-.03-.09l.04-.1c.02-.08.07-.1.14-.08.9.26 1.82.35 2.72.28.66-.05 1.06-.44 1.55-.9.1-.1.14-.08.14.06v.2c0 .01 0 .03-.02.05l-1.15.98a.4.4 0 0 0-.14.33.84.84 0 0 1-.21.64.5.5 0 0 1-.34.16 4.72 4.72 0 0 1-1.97-.28c-.14-.06-.18-.16-.13-.3.05-.14.23-.23.55-.25.2-.02.2-.07.03-.16Z" fill="#3B403D"/></svg>