<svg width="112" height="112" viewBox="0 0 56 56" xmlns="http://www.w3.org/2000/svg"><path d="M29.85 23.82c-.23-.06-.37-.13-.4-.24a6.62 6.62 0 0 0-.8-1.53.32.32 0 0 0-.1-.1c-.27-.14-.54-.3-.8-.26h-.03l-.02.03v.05a5 5 0 0 1 .77 1.85.1.1 0 0 1-.02.07.1.1 0 0 1-.06.04l-.43.07a9.68 9.68 0 0 0-2.39-3.33c-.5-.48-1.05-.9-1.66-1.27l-.76-.44-1.68-.68c-1.01-.34-2.09-.52-3.23-.54a.25.25 0 0 1-.15-.05.23.23 0 0 1-.08-.12l-.27-.97a.08.08 0 0 0-.02-.04 10.23 10.23 0 0 0-3.8.72A8.78 8.78 0 0 0 10.54 19a12.6 12.6 0 0 0-3.9 6.04l-.2.55-.01.03a.05.05 0 0 1-.07 0l-.01-.04-.01-.5c.92-3.5 3.24-6.22 6.52-7.84a12.49 12.49 0 0 1 16.36 5.13c.25.44.46.92.62 1.44Z" fill="#F0F0F2"/><path d="m14.08 18.88.83-.4 1.13-.38c1.09-.25 2.18-.34 3.27-.27.27.02.5.08.69.19a.16.16 0 0 1 .07.1c.16.56.22 1.05-.51 1.2h-.11a8.67 8.67 0 0 0-3.47.25c-.37.08-1.49-.52-1.9-.7Z" fill="#F0F0F2"/><path d="M17.67 16.34c.02 0 .03 0 .05.02l.02.04.27.97c.01.05.04.1.08.12.04.03.1.05.15.05 1.14.02 2.22.2 3.23.54l1.68.68.76.44c.58.34 1.1.74 1.57 1.18l.09.09a9.68 9.68 0 0 1 2.4 3.33l1.5.07c-.63.02-1.25.06-1.87.11-.32.03-.83.02-1.53-.03a.5.5 0 0 1-.13-.12 8.9 8.9 0 0 0-7.75-4.38 9.4 9.4 0 0 0-3.3.7c-.7-.01-1.36-.34-2-.55.36-.29.75-.53 1.19-.72.41.17 1.53.78 1.9.69a8.67 8.67 0 0 1 3.58-.25c.73-.16.67-.64.51-1.2a.15.15 0 0 0-.07-.1c-.2-.1-.42-.17-.69-.19-1.09-.07-2.18.02-3.27.27a2.44 2.44 0 0 0-1.42-1.28c1-.31 2-.47 3.05-.48Z" fill="url(#b)"/><path d="m29.85 23.82-.38.05-1.5-.07.42-.07a.1.1 0 0 0 .06-.04.1.1 0 0 0 .02-.07 5 5 0 0 0-.78-1.87.06.06 0 0 1 .05-.06c.27-.04.54.12.8.26.05.03.08.06.11.1.34.49.6 1 .8 1.53.03.1.17.18.4.24Z" fill="#BDBDC1"/><path d="m9.95 21.29-.9 1.45-.54 1.29c-.21-.25-.48-.4-.8-.47l-.04.01a6.52 6.52 0 0 0-.58 1.69 6.6 6.6 0 0 0-.02 2.66l.92 1.06c.1.63.29 1.23.55 1.81l.07.28a7.97 7.97 0 0 0-2.14-1.06.04.04 0 0 0-.01.04c.07.51.21 1.13.43 1.85.12.4.25.72.39.94 1 2.26 2.56 4 4.66 5.22 1.05.61 2.32 1.1 3.51 1.4 3.38.84 6.96.1 9.85-1.89a8.25 8.25 0 0 0 1.52-1.19l.9-.9c.03.06.07.12.12.17a12.56 12.56 0 0 1-17.1 1.8 12 12 0 0 1-4.27-5.97 4.66 4.66 0 0 0-.18-.73 7.46 7.46 0 0 1-.25-1.85c.04.1.1.15.16.13l.02-.02.01-.02c-.03-1-.02-1.64.03-1.91.12-.68.25-1.35.39-2.03a12.6 12.6 0 0 1 2.63-4.78l.67 1.02Z" fill="url(#c)"/><path d="M14.62 16.82c.63.22 1.1.65 1.42 1.28l-1.13.38-.83.4c-.44.19-.83.43-1.2.72l-.1.06-.68.58-.93 1-.29.32-.02.02h-.05l-.02-.02a1.51 1.51 0 0 0-.56-.44.1.1 0 0 0-.1.01l-.18.16-.67-1.02a24.53 24.53 0 0 1 1.57-1.5l.3-.25a8.79 8.79 0 0 1 2.76-1.44l.09-.04c.19-.1.4-.17.62-.22Z" fill="url(#d)"/><path d="m8.51 24.03-.4 1.58-.1.45.02 1.76-.11-.78c0-.02 0-.03-.02-.04a.06.06 0 0 0-.08 0 7.6 7.6 0 0 0 .17 1.98l-.92-1.06a6.6 6.6 0 0 1 .01-2.67 6.52 6.52 0 0 1 .59-1.68h.05c.31.06.58.21.8.46ZM6.65 25.05l-.4 2.03A12.56 12.56 0 0 0 6.23 29l-.02.02c-.07.02-.12-.03-.16-.13-.1-1.3 0-2.56.3-3.8l.02.49.01.03.03.02h.04l.02-.04.19-.55Z" fill="#BDBDC1"/><path d="M12.88 19.6c.65.21 1.3.54 2.01.56-.81.35-1.55.82-2.23 1.4a8.04 8.04 0 0 0-2.76 8.22 3.37 3.37 0 0 1-.31-1.23h-.05v.01l-.13.97v.02l-.03.01h-.01l-.02-.01c-.46-.65-.7-1.1-1.28-1.42l-.04-.3-.01-1.77.08-.45.41-1.58.55-1.29.89-1.45.18-.16a.1.1 0 0 1 .1-.01 1.51 1.51 0 0 1 .58.45.06.06 0 0 0 .07-.01l.3-.32.92-1 .69-.58.1-.06Z" fill="url(#e)"/><path d="m8.03 27.82.04.31.34 1.68c.04.23.1.47.17.7.07.2.06.3-.04.28a7.21 7.21 0 0 1-.55-1.8A7.6 7.6 0 0 1 7.82 27a.06.06 0 0 1 .08 0c.01 0 .02.01.02.03l.11.78Z" fill="#F0F0F2"/><path d="M9.9 29.77a8.08 8.08 0 0 0 1.49 3.22c.27.36.57.7.9 1.02.32.33.67.63 1.04.88a8.9 8.9 0 0 0 4.7 1.55c.38 0 .82.03 1.17-.04.28-.05.5-.09.67-.1.21-.03.43-.08.66-.14.6-.19 1.23-.44 1.92-.76l.7-.42a23.17 23.17 0 0 0 1.55-1.3c.11-.15.25-.31.42-.49.29-.29.53-.6.73-.95a.28.28 0 0 1 .1-.1c.04-.02.1-.04.14-.04h3.65a.1.1 0 0 1 .08.04.1.1 0 0 1 .02.09c-.04.2-.1.4-.2.6a11.24 11.24 0 0 1-1.8 2.82.44.44 0 0 1-.11-.17l.9-1.29a4.96 4.96 0 0 0 .8-1.72.1.1 0 0 0-.05-.07 5.23 5.23 0 0 1-1.43-.15l-1.9.07a.12.12 0 0 0-.1.05l-1.01 1.45-.73.7c-.6.5-1.1.77-1.67 1.15-.75.37-1.35.6-1.8.69a13.17 13.17 0 0 0-1.2.27l-1.2.03a8.3 8.3 0 0 1-2.36-.31 9.99 9.99 0 0 1-3.27-1.65l-1.06-.95a.08.08 0 0 0-.13.02v.05c.01.11.06.21.15.3.21.24.2.78.14 1.05l-.01.02-.02.02a.05.05 0 0 1-.05 0l-.66-.42c.02-.07-.01-.13-.09-.2-.3-.24-.56-.52-.78-.84l.2.18a.06.06 0 0 0 .05.02.06.06 0 0 0 .04-.03c.54-.65-.2-1.57-.54-2.11-.5-.8-.7-1.46-1.54-2l-.34-1.68c.58.31.82.77 1.28 1.42a.03.03 0 0 0 .03.01.03.03 0 0 0 .03-.03l.12-.97h.01v-.01h.05v.01l.01.01c.03.42.12.81.3 1.2Z" fill="#939398"/><path d="M8.6 31.07a10.37 10.37 0 0 0 2.38 3.53c.08.06.1.12.1.19-.34-.28-.78-.85-1.25-.85a.04.04 0 0 0-.03.02.03.03 0 0 0 0 .04c.2.22.47.54.81.96.24.3.66.68 1.25 1.18a.88.88 0 0 1-.3-.17c-.12-.1-.17-.1-.13.03-.39-.2-.7-.5-.96-.86a.53.53 0 0 0-.12-.12 1.34 1.34 0 0 1-.34-.34 4 4 0 0 0-.84-1.07 4.5 4.5 0 0 0-1.9-.77 4.08 4.08 0 0 1-.38-.94 12.56 12.56 0 0 1-.42-1.89.04.04 0 0 1 .04 0c.75.24 1.45.6 2.1 1.06Z" fill="#4D4E54"/><path d="M10.2 33.76c-.67-.83-1.2-1.72-1.6-2.69l-.06-.28c.1.02.11-.08.04-.29a5.1 5.1 0 0 1-.17-.7c.84.55 1.04 1.2 1.54 2 .34.55 1.08 1.47.54 2.12l-.02.02a.06.06 0 0 1-.05 0l-.02-.01-.2-.17Z" fill="#BDBDC1"/><path d="M29.73 25c.07 0 .14.03.2.08.04.06.07.13.07.21v5.55c0 .05-.08.16-.15.16h-1.08a.1.1 0 0 1-.04 0 .1.1 0 0 1-.04-.03.13.13 0 0 1-.03-.09V25.3c0-.08.05-.15.1-.2a.25.25 0 0 1 .19-.1h.78Z" fill="url(#f)"/><path d="M38.54 25c.13 0 .25.07.25.23v.38c0 .12.02.39-.17.39h-5.27a.47.47 0 0 0-.34.16c-.22.24-.22.95 0 1.2.1.11.24.17.39.17l4.14.02c.31 0 .58.1.82.29.3.13.47.46.51.99.06.33.07.7 0 1.07-.21.75-.68 1.11-1.4 1.1h-5.8c-.03 0-.06-.05-.08-.07a.13.13 0 0 1-.03-.1l-.01-.53c-.03-.2.04-.3.22-.3h5.37c.26-.01.41-.47.41-.83-.04-.34-.2-.5-.49-.51-.88 0-1.73-.04-2.58-.01-.79.02-1.35.02-1.69 0-.7-.07-1.12-.47-1.23-1.22-.09-.6-.04-1.37.15-1.9l.05-.06c.24-.31.53-.47.85-.47h5.93Z" fill="url(#g)"/><path d="M21.24 25c.04 0 .08.02.1.05.04.04.05.08.05.13v2.14c0 .05.02.14.04.17.03.03.07.05.1.05h4.28c.05 0 .1-.02.14-.06.03-.04.05-.1.05-.16v-2.19c0-.05.04-.13.1-.13h1.17c.05 0 .1.07.1.13v5.61c0 .05-.02.17-.05.2a.15.15 0 0 1-.11.06h-1.05a.14.14 0 0 1-.1-.05.22.22 0 0 1-.06-.13V28.8c0-.03-.03-.09-.05-.1a.1.1 0 0 0-.07-.04h-4.24a.2.2 0 0 0-.14.06.25.25 0 0 0-.07.16v1.66c-.01.23-.17.44-.33.46h-.84c-.1-.02-.26-.2-.26-.3v-5.63c0-.02.04-.04.05-.05a.05.05 0 0 1 .04-.02h1.15Z" fill="url(#h)"/><path d="M13.27 25h5.59c.03 0 .07.01.1.04.02.03.04.07.04.1v.7c0 .02 0 .04-.02.06 0 .02-.01.04-.03.05a.15.15 0 0 1-.05.04.13.13 0 0 1-.05.01h-5.09c-.76.02-.78.85-.76 1.53v1.7c0 .57.53.77.95.77h4.69c.11 0 .36.02.36.14v.65l-.01.08a.2.2 0 0 1-.04.06.18.18 0 0 1-.06.05l-.07.02h-4.9a3.48 3.48 0 0 1-1.66-.26c-.47-.28-.68-.82-.62-1.62v-2.1c0-.43 0-.99.17-1.3.32-.63.79-.72 1.46-.72Z" fill="url(#i)"/><path d="M43.65 25.02c.8 0 .94.44 1.4 1.22l.48.84 2.01 3.65a.2.2 0 0 1 .03.1c0 .05-.03.12-.08.15a.15.15 0 0 1-.08.02h-1.08a.33.33 0 0 1-.2-.06.4.4 0 0 1-.13-.17s-.12-.37-.37-.81c-.08-.14-.21-.2-.4-.2-1.22.02-2.28 0-3.17-.02-.16 0-.3.11-.44.37l-.45.75c-.04.04-.1.14-.15.14H39.9l-.07-.02a.13.13 0 0 1-.04-.05.15.15 0 0 1-.01-.13l1.66-3.1.33-.54.95-1.64c.18-.33.49-.49.93-.5Zm.03 1.4a.1.1 0 0 0-.06.02.12.12 0 0 0-.04.05l-.37.7-.72 1.27a.17.17 0 0 0 0 .15c0 .03.03.05.05.06.02.02.04.02.07.02h2.12c.02 0 .05 0 .07-.02a.15.15 0 0 0 .05-.05.17.17 0 0 0 0-.16l-.9-1.62-.17-.35a.13.13 0 0 0-.04-.05.1.1 0 0 0-.06-.02Z" fill="url(#j)"/><path d="M48.62 25H50v6h-1.38v-6Z" fill="url(#k)"/><path d="M11.43 36a9.13 9.13 0 0 0 6.06 2.27c.2 0 .42-.04.67-.12a.46.46 0 0 1 .11-.02l.45-.03 1.4-.11c1.53-.26 2.95-.83 4.25-1.71-.08.2-.17.36-.27.48a.08.08 0 0 0 0 .1l.03.03h.06l.48-.12a.11.11 0 0 1 .1.02c.25.19.43.45.53.78a12.22 12.22 0 0 1-9.85 1.88c-1.19-.3-2.46-.78-3.51-1.39a11.14 11.14 0 0 1-4.66-5.22c.78.15 1.41.4 1.89.77a4 4 0 0 1 .84 1.07c.06.1.17.2.34.34.05.03.09.07.12.12.25.37.57.66.96.86Z" fill="#2E2F35"/><path d="M27.8 33.42a11.8 11.8 0 0 1-2.53 2.81c-.01 0-.02 0-.02-.02v-.02c.07-.22.18-.43.32-.63a.73.73 0 0 0 .1-.2c.04-.12.02-.15-.07-.1l.26-.3a.05.05 0 0 0 0-.06l-.02-.02h-.03c-1.13.27-2.04 1.27-3.06 1.84a10.5 10.5 0 0 1-2.96 1.1.07.07 0 0 0 0 .1l.04.02.3.05-1.4.1-.9-.04-.32-.08h-.02l-.01-.03a.03.03 0 0 1 .04-.03c.09.01.23 0 .4-.03l1.68-.32a9.71 9.71 0 0 0 4.4-2.02c.78-.9 1.57-1.69 2.82-1.89.04 0 .08-.02.12-.06.23-.22.4-.45.5-.67a.49.49 0 0 1 .39-.28l.1-.02a.17.17 0 0 1 .16.07.16.16 0 0 1 .01.17l-.3.56Z" fill="#939398"/><path d="m28.63 34.2-.9 1.28c-.32.3-.62.6-.91.9-.36.37-.86.77-1.52 1.2-.1-.34-.28-.6-.54-.8a.11.11 0 0 0-.1-.02l-.47.14h-.06a.09.09 0 0 1-.04-.04.08.08 0 0 1 .01-.1c.1-.12.2-.28.27-.48l1.23-1.01c.09-.06.11-.03.07.1a.73.73 0 0 1-.1.19 2.43 2.43 0 0 0-.32.65c0 .01 0 .02.02.02h.04c1-.82 1.83-1.76 2.5-2.81l.82.77Z" fill="#4D4E54"/><path d="m17.49 37.96.34.09.9.05-.46.03a.46.46 0 0 0-.1.02c-.26.08-.48.12-.68.12-.44-.12-1.08-.24-1.92-.38a6.88 6.88 0 0 1-1.7-.54 9.8 9.8 0 0 1-3.26-2.4 31.14 31.14 0 0 0-.81-.99l.01-.01h.02c.47-.01.91.56 1.24.84l.66.41a.05.05 0 0 0 .07 0v-.03c.06-.27.08-.81-.13-1.04a.57.57 0 0 1-.16-.3l.01-.06a.08.08 0 0 1 .09-.04l.04.02 1.06.95a9.99 9.99 0 0 0 3.27 1.65 8.3 8.3 0 0 0 2.36.31 210.95 210.95 0 0 0 1.34-.05c.24-.08.6-.16 1.06-.25a8.02 8.02 0 0 0 1.8-.7c.57-.37 1.07-.65 1.67-1.14l.73-.7 1-1.45a.12.12 0 0 1 .1-.05l1.91-.07a5.22 5.22 0 0 0 1.43.15.1.1 0 0 1 .06.07 4.96 4.96 0 0 1-.8 1.72l-.83-.77.29-.56a.16.16 0 0 0-.08-.22.17.17 0 0 0-.09-.02l-.1.02a.49.49 0 0 0-.4.28c-.1.22-.26.45-.5.67a.21.21 0 0 1-.11.06c-1.25.2-2.04 1-2.82 1.89a9.72 9.72 0 0 1-4.4 2.02l-1.67.32a1.5 1.5 0 0 1-.44.04l-.01.02v.02Z" fill="#4D4E54"/><path d="m25.6 35.27-1.23 1.01c-1.3.88-2.72 1.45-4.24 1.71l-.3-.05a.07.07 0 0 1-.04-.03.07.07 0 0 1 0-.08 10.5 10.5 0 0 0 2.96-1.11c1.02-.57 1.93-1.57 3.06-1.84a.05.05 0 0 1 .05.02.05.05 0 0 1 0 .06l-.26.3Z" fill="#BDBDC1"/><path d="M11.86 36.14c.62.46 1.3.87 2.01 1.21.61.28 1.18.45 1.7.54.84.14 1.48.26 1.92.38A9.13 9.13 0 0 1 11.43 36c-.04-.12 0-.13.14-.03.09.08.19.13.29.17Z" fill="#939398"/><defs><linearGradient id="a" x1="10.42" y1="9.71" x2="68.15" y2="76.02" gradientUnits="userSpaceOnUse"><stop stop-color="#1A1E21"/><stop offset="1" stop-color="#06060A"/></linearGradient><linearGradient id="b" x1="19.83" y1="19.22" x2="26.95" y2="23.61" gradientUnits="userSpaceOnUse"><stop stop-color="#F0F0F2"/><stop offset="1" stop-color="#343338"/></linearGradient><linearGradient id="c" x1="15.54" y1="16.82" x2="7.61" y2="31.29" gradientUnits="userSpaceOnUse"><stop offset=".26" stop-color="#73737B"/><stop offset="1" stop-color="#4D4D55"/></linearGradient><linearGradient id="d" x1="15.54" y1="16.82" x2="7.61" y2="31.29" gradientUnits="userSpaceOnUse"><stop stop-color="#F0F0F2"/><stop offset=".26" stop-color="#73737B"/><stop offset="1" stop-color="#4D4D55"/></linearGradient><linearGradient id="e" x1="12.42" y1="20.68" x2="10.71" y2="26.7" gradientUnits="userSpaceOnUse"><stop stop-color="#F0F0F2"/><stop offset="1" stop-color="#5E5D63"/></linearGradient><linearGradient id="f" x1="30.7" y1="25" x2="30.7" y2="31" gradientUnits="userSpaceOnUse"><stop stop-color="#E7E8EA"/><stop offset="1" stop-color="#75767B"/></linearGradient><linearGradient id="g" x1="30.7" y1="25" x2="30.7" y2="31" gradientUnits="userSpaceOnUse"><stop stop-color="#E7E8EA"/><stop offset="1" stop-color="#75767B"/></linearGradient><linearGradient id="h" x1="30.7" y1="25" x2="30.7" y2="31" gradientUnits="userSpaceOnUse"><stop stop-color="#E7E8EA"/><stop offset="1" stop-color="#75767B"/></linearGradient><linearGradient id="i" x1="30.7" y1="25" x2="30.7" y2="31" gradientUnits="userSpaceOnUse"><stop stop-color="#E7E8EA"/><stop offset="1" stop-color="#75767B"/></linearGradient><linearGradient id="j" x1="30.7" y1="25" x2="30.7" y2="31" gradientUnits="userSpaceOnUse"><stop stop-color="#E7E8EA"/><stop offset="1" stop-color="#75767B"/></linearGradient><linearGradient id="k" x1="30.7" y1="25" x2="30.7" y2="31" gradientUnits="userSpaceOnUse"><stop stop-color="#E7E8EA"/><stop offset="1" stop-color="#75767B"/></linearGradient></defs></svg>