<svg width="56" height="56" viewBox="0 0 56 56" xmlns="http://www.w3.org/2000/svg"><rect fill="#F0F3FA" width="56" height="56" rx="28"/><path fill-rule="evenodd" d="M35 24.48A2.5 2.5 0 0 1 32.5 27a2.5 2.5 0 0 1-2.5-2.52 2.5 2.5 0 0 1 2.5-2.51 2.5 2.5 0 0 1 2.5 2.51ZM33 24a1 1 0 1 1-2 0 1 1 0 0 1 2 0Zm.5 1a.5.5 0 1 0 0-1 .5.5 0 0 0 0 1Z" fill="#F24139"/><path fill-rule="evenodd" d="M44 28.75c0 6.79-3.84 12.62-9.39 15.25 4.48-4.77 4.4-10.64 4.39-11.82v-.13a2.6 2.6 0 0 1-1.83.95c-3.13 0-6.17-2.54-9.4-5.98C24.55 23.6 23 19.85 23 18.59c0-.65.36-1.08.6-1.38l.15-.18c.14-.19.25-.34.25-.53 0-.49-.56-.49-1.17-.49-2.21 0-5 1.09-7.27 2.22A15.71 15.71 0 0 1 28 12c8.84 0 16 7.5 16 16.75ZM14.24 37.3a16.62 16.62 0 0 0 3.97 4.7h3.72c4.15 0 8.07-2.73 8.07-7.1 0-4.36-3.92-7.88-8.07-7.88h-9.85a17.74 17.74 0 0 0 1.5 8.98H29c-1.37.67-4.9 2-8.07 2-2.15 0-4.73-.35-6.69-.7ZM28 20.08c0-1.66 2.01-2.08 3.02-2.08C37.8 18 38 24.75 38 25.76c0 .15-.01.3-.04.49l3.27.83c.86.22 1.05 1.22.32 1.67L37.92 31l-.55-2.98c-.33.56-.8.98-1.41.98-1.4 0-3.75-1.76-4.94-2.82-1.19-1.06-3.02-4.02-3.02-6.1Z" fill="#F24139"/></svg>