<svg width="112" height="112" viewBox="0 0 56 56" xmlns="http://www.w3.org/2000/svg"><rect fill="#F0F3FA" width="56" height="56" rx="28"/><path d="m44 29.84-.01 1.04v.02a.49.49 0 0 0-.01.2v.06c-.05.2-.06.5-.05.9.03.89.02 1.5-.03 1.85 0 .09-.07.2-.19.33.02-1.35.02-2.71-.01-4.08 0-.22-.06-.4-.07-.62-.01-.46-.03-1.01-.07-1.65-.02-.34-.12-.66-.15-1a.08.08 0 0 0-.03-.06.08.08 0 0 0-.07-.02c-.3.08-.57.13-.8.17-.07 0-.33.07-.75.18a5.58 5.58 0 0 1-1.9.15 7.82 7.82 0 0 0-.65-.22c-.16-.04-.31-.1-.46-.2a3.54 3.54 0 0 1-1.19-1.09c-.14-.2-.34-.38-.5-.59a23.48 23.48 0 0 0-.96-1.15.63.63 0 0 1-.12-.31.14.14 0 0 1 .1-.14 2.42 2.42 0 0 0 .8-.5l.72-.46.15-.08.58-.24c.21-.09.41-.15.6-.2a71.64 71.64 0 0 1 1.41-.31l2.06-.01c.13 0 .22.01.28.04.02 0 .03.02.04.04.08.1.11.21.12.31a4.04 4.04 0 0 0 .22 1.16.02.02 0 0 0 .01-.02l-.02-.4c0-.1-.03-.24-.06-.4a2.22 2.22 0 0 1-.05-.51c0-.38.02-.68-.06-1.04-.03-.14-.05-.3-.06-.49a9.44 9.44 0 0 1-.26-1.42c-.05-.48-.21-.81-.4-1.28a2.49 2.49 0 0 0-.27-.5c-.15-.23-.41-.68-.78-1.35-.15-.27-.39-.6-.72-.97-.11-.14-.26-.25-.37-.38a2.28 2.28 0 0 0-.28-.25l-.56-.45c-.4-.32-.79-.53-1.26-.6a43.67 43.67 0 0 1-2.43-.44c-.28 0-.5 0-.62-.03a5.4 5.4 0 0 0-.67-.06c-.54-.01-1.06-.06-1.57-.15-.3-.05-.62-.04-.87-.08a6.04 6.04 0 0 0-.66-.08l-1.69-.09c-.1 0-.24-.02-.42-.05a2.94 2.94 0 0 0-.42-.03h-8.42c-.1 0-.19.01-.28.04-.16.06-.35.12-.58.16-.16.03-.39.12-.69.26-.22.1-.5.27-.82.49-.42.28-.71.59-1.18 1-.15.13-.27.3-.4.45-.2.27-.5.5-.68.8a17 17 0 0 1-.53.75c-.24.33-.38.68-.58 1.03-.05.1-.1.25-.13.35-.1.36-.19.76-.27 1.2-.04.23-.02.5-.11.73a.3.3 0 0 0-.02.1c-.03.7-.02 1.62-.02 2.92 0 .24-.02.45-.04.65-.07.53-.13 1.1-.17 1.62a8 8 0 0 1-.09.72c-.09.52-.08 1.04-.2 1.53-.06.3-.04.5-.06.87a10.42 10.42 0 0 0 .07 4.38 14.9 14.9 0 0 1 .13 2.1c0 .24.09.51.09.72l.01 1.73a2 2 0 0 0 .05.33c-.02.28-.01.5.01.65.05.3.08.48.08.57l-.36-.33v-.97l-.06-2.03v-.01l-.04-.2c-.02 0-.02 0-.02.02 0-.05 0-.07-.03-.07l-.04-.99a11.09 11.09 0 0 0-.16-1.88 3.4 3.4 0 0 1 .01-4.88l.1-.56c.05-.23.05-.42.09-.66l.14-1.06c.03-.5.07-.94.13-1.35l.04-.46c.03-.16.05-.3.05-.44v-2.89c0-.07.03-.2.07-.37l.02-.14c.02-.26.02-.4.08-.6l.22-.94c.1-.39.27-.66.53-1.11.33-.58.72-1.11 1.1-1.6.14-.17.3-.33.42-.51a34.66 34.66 0 0 0 .64-.64c.19-.19.36-.3.53-.46.18-.18.37-.3.57-.45.07-.06.15-.1.25-.16a8.24 8.24 0 0 0 .63-.32c.41-.13.85-.23 1.18-.33.13-.04.29-.05.42-.05a5810.46 5810.46 0 0 0 8.72.02c.15 0 .31.05.45.05.4.01.76.02 1.2.08a6.6 6.6 0 0 0 .95.06c.23.05.52.08.87.09.04 0 .1 0 .14.02.24.06.45.05.68.1l.36.03a12 12 0 0 1 1.1.06 4.5 4.5 0 0 0 .83.07c.18.04.37.07.57.08.34.03.7.18 1.08.2.15.01.27.03.38.07l.1.01c.24 0 .59.08.82.21.16.09.32.12.46.22a5.77 5.77 0 0 1 .88.67c.16.1.27.25.43.4.38.34.63.63.77.85a4 4 0 0 0 .29.46c.09.09.15.18.2.28.12.28.3.5.42.76.04.07.1.2.21.36a4.67 4.67 0 0 1 .61 1.47c.04.22.05.42.1.58.08.28.09.54.17.8.08.26.1.62.1.84l.02.07c.04.1.06.23.06.36.02.42 0 .77.06 1.18l.15 1.02c.04.3.08.7.1 1.17.03.47.06.87.1 1.18.06.39.09.67.09.84 0 .17.02.38.06.61.08.45.12.89.13 1.3a51.17 51.17 0 0 0 .03 1.05l.06.22Z" fill="#010201"/><path d="M43.71 34.24c-.19.39-.4.77-.66 1.16a18.8 18.8 0 0 1-17.98 8.48 18.97 18.97 0 0 1-11.03-5.1 3.53 3.53 0 0 1-.3-.34c0-.09-.03-.27-.08-.57a3.45 3.45 0 0 1-.02-.71 2 2 0 0 1-.04-.27l-.01-1.73c0-.2-.08-.48-.09-.71a29.07 29.07 0 0 0-.13-2.1c-.06-.5-.09-.83-.09-.97a182.7 182.7 0 0 0 .02-3.42c.02-.36 0-.58.07-.87.1-.5.1-1 .2-1.53l.08-.72c.04-.51.1-1.09.17-1.62.02-.2.04-.41.04-.65 0-1.3-.01-2.21.02-2.92 0-.03 0-.07.02-.1.1-.23.07-.5.11-.73.08-.44.17-.84.27-1.2.02-.1.08-.26.13-.35.2-.35.34-.7.58-1.03a17 17 0 0 0 .53-.74c.18-.3.47-.54.69-.8.12-.17.24-.33.39-.47.47-.4.76-.7 1.18-1 .33-.21.6-.38.82-.48.3-.14.53-.23.7-.26.22-.04.4-.1.57-.16a.8.8 0 0 1 .28-.05l8.42.01c.15 0 .29.01.42.03.18.03.32.05.42.05l1.69.1c.22 0 .44.03.66.07.25.04.58.03.87.08.5.09 1.03.14 1.57.15.24.01.47.03.67.06a4.15 4.15 0 0 0 .73.04c.4.1 1.18.24 2.32.42.47.08.86.29 1.26.61l.56.45c.1.07.2.16.28.25.11.13.26.24.37.38.33.38.57.7.72.97.37.67.63 1.12.78 1.35.12.17.21.34.27.5.19.47.35.8.4 1.28a9.44 9.44 0 0 0 .26 1.42c0 .19.03.35.06.5.08.35.07.65.06 1.03 0 .17.01.34.05.52l.06.4a11.5 11.5 0 0 0 0 .41l-.02-.01a4.03 4.03 0 0 1-.2-1.15.6.6 0 0 0-.1-.31.12.12 0 0 0-.05-.04.69.69 0 0 0-.28-.04 139.34 139.34 0 0 0-2.28.03l-1.2.3c-.18.04-.38.1-.59.19a61.05 61.05 0 0 0-.73.32l-.72.46-.02.01c-.27.24-.49.39-.78.49a.14.14 0 0 0-.1.14c.01.1.05.2.12.3l.43.52.53.64c.16.21.36.38.5.59.3.45.7.82 1.19 1.1.15.08.3.15.45.2a7.83 7.83 0 0 1 .73.22c.65.05 1.26 0 1.83-.16l.76-.18a8.7 8.7 0 0 0 .83-.17.08.08 0 0 1 .05.04l.01.03c.03.35.13.67.15 1.01.04.64.06 1.19.07 1.65 0 .23.07.4.07.62.03 1.37.03 2.73.01 4.08Z" fill="#55AE59"/><path d="M30.96 23.84a.08.08 0 0 1 0 .08.08.08 0 0 1-.07.04h-.22a.04.04 0 0 0-.04.02.47.47 0 0 0-.08.17l-.23.77c-.12.3-.15.64-.24 1a.71.71 0 0 1-.13.3c-.27.32-.57.68-.96.8l-1.33.36c-.14.03-.43.05-.88.06h-1.07c-.3 0-.59-.09-.88-.12l-.05-.01-.54-.27-.02-.01a2 2 0 0 1-.5-.25 6 6 0 0 1-.94-.73c-.22-.22-.14-1.1-.06-1.42l.09-.34c.1-.4.36-.66.63-1 .26-.3.62-.63.9-.9.26-.24.55-.41.87-.51l.46-.15c.47-.17.99-.16 1.46-.03a22.8 22.8 0 0 1 1.25.45l.28.15c.29.13.56.37.87.52l.56.3c.17.1.35.17.55.18a.08.08 0 0 1 .07.04l.25.5Z" fill="#010201"/><path d="M30.22 23.57c.12.05.1.18.07.29l-.23.78c-.05.17-.15.3-.15.45 0 .08-.01.19-.04.3-.06.2-.08.43-.22.63-.24.33-.56.66-.97.75l-1.05.27c-.21.06-.44.1-.68.1h-1.09a27.66 27.66 0 0 1-.85-.12l-.16-.06-.74-.34a7.24 7.24 0 0 1-.68-.48c-.19-.14-.47-.35-.48-.6-.02-.47.06-.9.23-1.3.01-.05.07-.14.16-.27.12-.18.3-.34.42-.52.08-.14.24-.22.36-.37.07-.09.16-.17.28-.25.08-.06.12-.11.18-.2l.35-.26a27.14 27.14 0 0 1 .9-.35 1.8 1.8 0 0 1 1.3.01 7.8 7.8 0 0 0 .93.33c.36.19.7.4 1.02.6.11.08.22.14.32.18.14.05.26.15.42.23l.4.2ZM36.75 24.34c-.1-.1-.35-.48-.16-.6.2-.1.38-.24.53-.38a.41.41 0 0 1 .09-.07l.37-.21.03-.02c.16-.14.31-.23.48-.28a2.99 2.99 0 0 0 .65-.27l1.65-.4.06-.02h1.9c.1.01.17.07.18.2.04.61.14 1.18.28 1.7.1.34.16.6.19.79a37.61 37.61 0 0 0 .3 1.49c.05.2-.06.26-.25.28-.32.04-.69.16-1.05.21-.17.03-.32.07-.45.11-.22.09-.42.09-.65.14-.24.06-.57.04-.76.04a.54.54 0 0 1-.2-.05 3.92 3.92 0 0 0-.45-.17 2.9 2.9 0 0 1-1.56-1.11 5.07 5.07 0 0 0-.5-.55l-.17-.24c-.19-.19-.32-.38-.51-.59Z" fill="#fff"/><path d="M41.2 25.63a.19.19 0 0 1-.12.06c-.28.03-.7.06-.94-.1a5.4 5.4 0 0 0-.9-.48l-.34-.24c-.18-.11-.15-.64-.1-.85a.4.4 0 0 1 .03-.09c.14-.29.34-.53.6-.72.38-.27.96-.27 1.42-.24.26.02.38.18.57.4l.02.03.22.46.01.05c.03.42.03.68 0 .78-.07.37-.23.69-.48.94ZM25.42 25.41a.07.07 0 0 1-.04-.06c-.04-.33-.07-.78.07-1.09.18-.42.45-.81.9-.93a2.1 2.1 0 0 1 1.17.17c.22.08.37.26.59.32.18.05.23.15.24.33.04.39-.2.75-.48.99a.27.27 0 0 1-.09.05c-.13.05-.23.1-.31.17a.17.17 0 0 1-.08.03l-.26.03a50.54 50.54 0 0 1-1.71-.01ZM42.57 29.38a.12.12 0 0 1 .07.1c0 .2.01.37.04.5.03.16.05.32.06.5.01.64.02 1.16 0 1.57 0 .15-.03.27-.1.36-.18.27-.32.45-.63.6-.35.17-.65.27-.9.29-.38.03-.68.06-.89.1-.29.03-.58.05-.9.04h-3.14c-.17 0-.33-.02-.48-.04-.37-.06-.5-.06-.86-.08-.3 0-.56-.06-.88-.07-.21 0-.34-.04-.56-.09a.7.7 0 0 0-.14-.02c-.17 0-.33-.02-.5-.06a.61.61 0 0 0-.12-.01c-.4 0-.8 0-1.16-.1a.84.84 0 0 0-.2-.02l-6.84-.01c-.02 0-.03 0-.05-.02a.08.08 0 0 1-.03-.03 1.28 1.28 0 0 1-.08-.2 1.23 1.23 0 0 0-.08-.19 4.71 4.71 0 0 1-.28-.6l-.23-.63c-.1-.3-.16-.55-.17-.79a.27.27 0 0 1 .1-.2c.15-.15.37-.33.6-.4a5.76 5.76 0 0 0 .65-.24c.24-.02.48-.01.71.04h.2c.67-.14 1.11-.22 1.35-.24.18-.02.56-.02 1.11-.01.28 0 .5.09.8.12l.32.05c.32.06.52.09.61.09.77.03 1.69-.02 2.52-.01.78 0 1.14-.01 1.64.01l.5-.01c.36-.05.6-.05.94-.1.3-.04.49-.05.79-.06.11 0 .21-.02.3-.03.23-.04.45-.07.68-.08.29-.02.58-.15.87-.17.17-.01.29-.02.48-.05.25-.04.53-.06.83-.06h2.2c.1 0 .26.05.49.15.12.05.27.06.36.1Z" fill="#010201"/><path d="M42.3 29.63a.07.07 0 0 1 .05.07 3.32 3.32 0 0 0 .1.68v1.61c0 .08-.05.2-.14.32a1.4 1.4 0 0 1-.7.54c-.3.1-.67.2-.99.2-.36.02-.72.09-1.1.09h-2.96c-.26 0-.5 0-.76-.04a7.82 7.82 0 0 0-1.06-.09c-.35-.1-.7-.02-1.05-.1l-.6-.1c-.41-.05-.83-.04-1.26-.06-.02 0-.05 0-.07-.02-.13-.05-.3-.08-.53-.08h-6.36a.85.85 0 0 1-.25-.02.07.07 0 0 1-.04-.05 1.7 1.7 0 0 0-.1-.26 8.26 8.26 0 0 1-.65-1.8.1.1 0 0 1 .03-.05l.4-.28a2.27 2.27 0 0 0 .7-.26c.06-.05.14-.03.2.03l.04.05.02.07a.13.13 0 0 0 .07.09.13.13 0 0 0 .1 0c.14-.07.28-.08.41-.13.35-.16.74-.22 1.18-.28.36-.06.68-.04 1-.05a64.43 64.43 0 0 1 1.7.23c.16.03.35.06.53.06.4-.01.89 0 1.46.01.67.02 1.6.02 2.77 0 .18-.01.35-.05.54-.08a3.95 3.95 0 0 0 .87-.09c.08-.02.16-.02.24-.02.3 0 .54-.02.72-.05.3-.05.51-.04.78-.08a2.95 2.95 0 0 1 1-.17l.15-.02c.2-.06.36-.08.49-.09l2.38.01c.06 0 .12.02.17.05.14.07.31.13.51.16Z" fill="#AF7E5E"/><path d="M41.26 30.9c.02.06.02.13.01.19 0 0 0 .02-.02.03l-.03.01c-.2 0-.5.02-.9.06-.23.03-.54.04-.9.04H37.6c-.29 0-.56.06-.84.06-.21 0-.5.05-.7.05a219.34 219.34 0 0 1-6.57 0c-.19.01-.4-.02-.61-.03h-.13a4.06 4.06 0 0 0-.5-.08 195.6 195.6 0 0 1-2.32-.01.13.13 0 0 1-.08-.12c0-.04.02-.08.04-.1a.14.14 0 0 1 .1-.04h1.97c.26 0 .58 0 .96.04.41.04.73.05.96.05a261 261 0 0 1 6.1-.02l.96-.05c.9-.06 1.66-.02 2.72-.02.17 0 .37-.01.58-.04a7.71 7.71 0 0 1 1-.05l.02.03Z" fill="#010201"/><path d="M13.38 37.14c-.02-.03-.04-.04-.07-.02a.05.05 0 0 1-.05 0l-.02-.01v-.53a26.7 26.7 0 0 0 .02-1.66c0-.02 0-.03.02-.02l.04.2v.01l.06 2.03Z" fill="#838383"/></svg>