<svg width="112" height="112" viewBox="0 0 56 56" xmlns="http://www.w3.org/2000/svg"><circle cx="28" cy="28" r="17" fill="url(#biko5esuf)"/><circle cx="28" cy="28" r="16" fill="url(#ciko5esuf)"/><path d="M28 18a10.04 10.04 0 0 0-10 10.17c.05 2.5 1.02 5 2.93 6.9a2.05 2.05 0 0 0 2.9-2.9A6 6 0 0 1 22 28a6.1 6.1 0 0 1 6-5.9 6 6 0 0 1 6 5.9 6.05 6.05 0 0 1-4 5.52V28c0-1.13-.87-2-2-2-1.12 0-2 .88-2 2v7.95A2 2 0 0 0 28 38a10.01 10.01 0 0 0 0-20Z" fill="#fff"/><defs><linearGradient id="aiko5esuf" x1="28" y1="0" x2="28" y2="56" gradientUnits="userSpaceOnUse"><stop offset=".48" stop-color="#001E5C"/><stop offset="1" stop-color="#0CBEEA"/></linearGradient><linearGradient id="biko5esuf" x1="12.7" y1="27.73" x2="42.96" y2="27.73" gradientUnits="userSpaceOnUse"><stop stop-color="#349FDC"/><stop offset="1" stop-color="#13D785"/></linearGradient><linearGradient id="ciko5esuf" x1="13.6" y1="27.74" x2="42.08" y2="27.74" gradientUnits="userSpaceOnUse"><stop stop-color="#030303"/><stop offset="1" stop-color="#303030"/></linearGradient></defs></svg>