<svg width="112" height="112" viewBox="0 0 56 56" xmlns="http://www.w3.org/2000/svg"><rect fill="#F0F3FA" width="56" height="56" rx="28"/><circle cx="28" cy="28" r="17" fill="url(#awkivys1h)"/><path d="M33.28 19.27a10.2 10.2 0 0 1 4.15 4.93c.09.2.19.23.3.12.18.2.26.42.25.67l-.56-.05a5.39 5.39 0 0 0-1.07-2c-.84-.96-1.94-1.91-3.3-2.85-.44-.3-1-.6-1.66-.9a7.2 7.2 0 0 0-2.1-.55c-.07-.01-.12 0-.18.02-.05.01-.05.03 0 .05l1.33.4c.43.14.74.6 1.05.9.25.25.55.4.87.54.17.08.32.21.45.4.22.3.56.21.87.2.6-.02 1.07.43 1 1.05-.03.32-.17.79-.05 1.08.07.18.17.37.3.58.3.5.52 1.06.63 1.67a3.43 3.43 0 0 0-.93.94.06.06 0 0 1-.06-.01l-.02-.03-.68-2.2v-.01a.03.03 0 0 0-.04 0h-.01l-1.72 2a.09.09 0 0 1-.1.03.09.09 0 0 1-.03-.02l-1.61-1.93a.03.03 0 0 0-.03 0h-.02v.01l-.74 1.95c-.04.1-.06.09-.07-.01l-.09-1.35-.01-.03-.03-.01-1.41.04v-.08a.06.06 0 0 0-.06-.06.12.12 0 0 1-.08-.06c-.31-.52-.99-.72-1.45-.2-.21.24-.26.38-.15.43l-1.06.04c-.04 0-.07.01-.08.03a.12.12 0 0 0-.05.09.06.06 0 0 1-.08.05 3.45 3.45 0 0 0-2.53-.17 3.14 3.14 0 0 0-1.61 1.13.07.07 0 0 1-.06 0s-.02 0-.02-.02a3 3 0 0 0-2.04-1.01c-.68-.07-1.4.12-2.14.57a11.32 11.32 0 0 1 16.73-6.37Z" fill="#CE6E42"/><path d="M22.29 19.2c.13-.04.26-.13.38-.2a11.55 11.55 0 0 1 4.38-1.03c.01 0 .02 0 .02.02v.03l-.01.02c-1.44.17-2.72.5-3.85.99a10.82 10.82 0 0 0-5.74 5.68h-.02c-.01-.02-.02-.03-.01-.04l.41-.88a10.03 10.03 0 0 1 4.44-4.58Z" fill="#BA9853"/><path d="M37.08 20.42a.1.1 0 0 1 .04 0 .06.06 0 0 1 .04.08.32.32 0 0 1-.07.14.09.09 0 0 0 .06.14c.04 0 .08 0 .11-.04.05-.02.1-.01.17.03l-.66.75c-.03.03-.03.06-.01.1.1.14.08.27-.06.37-.14.11-.13.2.04.25.15.05.26.15.31.31.02.04.04.06.08.06.32.04.56.31.37.62-.02.03-.02.05 0 .08l.18.21c.02.03.05.04.08.04.3-.04.38.31.45.53v.05l-.04.03-.43.15c-.12.11-.22.07-.3-.12a10.2 10.2 0 0 0-4.16-4.93c-.1-.32-.03-.57.23-.75.43-.25.8-.04.85.44 0 .03.01.06.04.08l.07.08c.02.02.03.05.04.09 0 .13.03.27.1.43.05.11.17.16.25.25a.11.11 0 0 0 .1.04c.15-.01.26.05.34.18a.1.1 0 0 0 .07.05c.29.01.41.18.37.5a.08.08 0 0 0 .07.09l.16.03c.13.03.2.14.34.07.26-.15.51-.3.77-.43Z" fill="#FEFEFE"/><path d="m39.67 19.08-.4-.5a.65.65 0 0 1 .34-.06c.12.02.2.08.25.2.05.14-.01.26-.19.36Z" fill="#A54838"/><path d="m39.27 18.57.4.51c-.12.35-.35.64-.69.87a3.9 3.9 0 0 1-.9.49.14.14 0 0 1-.16-.05l-.06-.1c-.03-.04-.03-.07.02-.1l.35-.27a.08.08 0 0 0 .02-.1c-.02-.05-.05-.06-.1-.03-.13.08-.25.18-.36.3-.02.01-.05.02-.08 0a.27.27 0 0 1-.14-.25l.31-.4c.39-.47.85-.76 1.39-.87Z" fill="#FEFEFE"/><path d="M37.42 24.94c-.71.02-1.33.22-1.86.59-.11-.6-.32-1.16-.63-1.67-.13-.21-.23-.4-.3-.58-.12-.3.02-.76.05-1.08.07-.62-.4-1.07-1-1.05-.31.01-.65.1-.87-.2a1.14 1.14 0 0 0-.45-.4 2.89 2.89 0 0 1-.87-.54c-.3-.3-.62-.76-1.05-.9l-1.33-.4c-.05-.02-.05-.04 0-.05a.36.36 0 0 1 .17-.02c.71.08 1.45.25 2.1.55.68.3 1.23.6 1.67.9 1.36.94 2.46 1.89 3.3 2.84.46.52.82 1.19 1.07 2ZM28.24 19.68c-.37-.16-.73-.34-1.08-.54-.17-.1-.16-.16.04-.17.68-.06 1.27.16 1.91.37a3.14 3.14 0 0 1 .85.47.03.03 0 0 1 0 .03h-.02c-.6.12-1.15.1-1.7-.16ZM22.92 20.07c-.19.07-.2.05-.05-.07.08-.06.15-.1.24-.14a6.84 6.84 0 0 1 2.66-.56c.16 0 .31.02.47.09a.08.08 0 0 1 .05.07c0 .06-.02.09-.07.1-.5.14-1 .06-1.53.1-.6.05-1.2.18-1.77.41ZM37.89 19.44l-.32.4a.69.69 0 0 0-.28-.1c-.21 0-.23-.06-.05-.17.1-.06.21-.12.35-.17.1-.05.2-.03.3.04ZM25.4 20.24c.3-.09.5-.2.49-.26-.02-.05-.26-.03-.54.06-.29.08-.5.2-.48.25.01.06.26.04.54-.05ZM26.02 22.22c.08.12.22.16.31.1.1-.06.1-.2.02-.32s-.22-.16-.3-.1c-.1.06-.1.2-.03.32ZM22.76 22.09a.6.6 0 0 1-.32.22.94.94 0 0 0-.32.17c-.2.2-.32.5-.35.9a.98.98 0 0 1-.13-.56.82.82 0 0 1 .62-.74.99.99 0 0 1 .5 0Z" fill="#A54838"/><path d="M22.76 22.09a1.1 1.1 0 0 1 .8.93c.01.15-.01.3-.08.44a.8.8 0 0 1-.24.3.86.86 0 0 1-.36.15c-.2.04-.43 0-.63-.09-.2-.1-.37-.25-.48-.44.03-.4.15-.7.35-.9a.94.94 0 0 1 .32-.17.6.6 0 0 0 .32-.22Z" fill="#C05B3E"/><path d="m33.8 23.68-.07-.49a.64.64 0 0 0-.14-.37c-.23-.24-.56-.37-1-.39a1 1 0 0 1 .7-.16.79.79 0 0 1 .61.5c.07.13.09.29.07.45a1.1 1.1 0 0 1-.18.46Z" fill="#A54838"/><path d="M32.6 22.43c.43.02.76.15.99.4.08.08.12.2.14.36l.06.49c-.08.12-.18.23-.3.32-.2.13-.4.2-.62.19a.8.8 0 0 1-.54-.22.8.8 0 0 1-.22-.38.96.96 0 0 1 0-.47 1.12 1.12 0 0 1 .48-.69ZM27.96 24.9l-1.74.03c-.11-.05-.06-.2.16-.43.45-.52 1.13-.32 1.44.2.02.03.05.05.08.06.03 0 .05.02.05.06l.01.08Z" fill="#C05B3E"/><path d="M35.56 25.53a3.46 3.46 0 0 1 1.86-.6l.56.06a3.48 3.48 0 0 1 1.27.56l.01-.01v-.02l.01-.53c0-.04.02-.05.06-.03l2.36 1.36c.05.03.07.02.07-.04l-.09-1.12.01-.02a.03.03 0 0 1 .02 0l3-.19c.06.46.1.82.11 1.07.04.69.05 1.62.09 2.52.03.84-.04 1.68-.2 2.52l-2.38-1.1a.05.05 0 0 0-.04.01.05.05 0 0 0-.02.04l.03.73c0 .06-.02.09-.08.09h-2.86c-.04 0-.06-.01-.06-.05v-.72a.04.04 0 0 0-.03-.04.04.04 0 0 0-.05 0l-.54.4c-.4.19-.79.31-1.18.37-.8.09-1.53-.1-2.16-.53-.1-.1-.19-.13-.27-.1-.72.25-1.45.5-2.2.74-.06.03-.1 0-.1-.06a3.26 3.26 0 0 0-.2-.77.06.06 0 0 0-.06 0l-.03.01-.42.54c-.02.04-.05.04-.07 0l-.55-.61a.09.09 0 0 0-.15.03l-.33.87a.06.06 0 0 1-.04.04.06.06 0 0 1-.04 0l-1.38-.57h-.03a.05.05 0 0 0-.04.02v.02l-.02.27c0 .05-.02.07-.07.08l-4.24.04a.07.07 0 0 1-.07-.05v-.21a.06.06 0 0 0-.05-.06h-.03a3.35 3.35 0 0 1-4.13-.86.07.07 0 0 0-.06 0 3.3 3.3 0 0 1-4.65.55l-.35-.43-.01-.01h-.02a.04.04 0 0 0-.02 0c-1.1 1.1-3.12 1.08-4.55.73-.1-1.24-.15-2.31-.15-3.22 0-.6.07-1.28.2-2.04a6.6 6.6 0 0 1 2.62-.33 2.63 2.63 0 0 1 2.13 1.26.06.06 0 0 0 .06 0h.02l.52-.5a3.53 3.53 0 0 1 2.14-.57 3 3 0 0 1 2.06 1.03.07.07 0 0 0 .06 0s.02 0 .02-.02a3.45 3.45 0 0 1 4.14-.94.06.06 0 0 0 .05-.03l.01-.02c0-.04.02-.07.05-.09.01-.02.04-.02.08-.03l1.06-.04 1.74-.03 1.41-.04.03.01.01.03.1 1.35c0 .1.02.1.06 0l.74-1.94a.03.03 0 0 1 .05 0l1.61 1.92a.09.09 0 0 0 .13 0l1.72-2.01a.03.03 0 0 1 .03-.01.03.03 0 0 1 .02.02l.68 2.2a.06.06 0 0 0 .05.04.06.06 0 0 0 .06-.02c.25-.38.55-.68.9-.92Z" fill="#FEFEFE"/><path d="m25.34 25.62-.03-.28a.08.08 0 0 1 .02-.06.08.08 0 0 1 .06-.03l3.72-.11c.03 0 .04.01.04.04l.09 1.94a.06.06 0 0 1-.02.04.06.06 0 0 1-.04.02l-.72-.02c-.04 0-.07.02-.06.07l.06 1.22.01.03.04.02c.13.03.47.08.53-.09a4297.67 4297.67 0 0 0 1.38-3.57.04.04 0 0 1 .04.01L32 26.7c.02.03.04.03.06 0a788.72 788.72 0 0 0 1.64-1.89.1.1 0 0 1 .06 0v.01l.76 2.46c.02.06.04.06.06 0a2.93 2.93 0 0 1 3.07-2.02c.75.05 1.36.37 1.84.95.04.05.06.04.06-.02v-.7c0-.05.02-.06.06-.03l2.43 1.4a.04.04 0 0 0 .04 0l.01-.01v-.02c-.06-.48-.1-.94-.1-1.37 0-.04.01-.05.05-.06l2.38-.11h.01a.04.04 0 0 1 .03.02v.02l.19 5.34a.04.04 0 0 1-.06.04l-2.56-1.18a.04.04 0 0 0-.04 0 .04.04 0 0 0-.02.04l.03.93c0 .04-.02.06-.06.06h-2.3c-.04 0-.06-.01-.06-.06V29.3c0-.06-.02-.06-.06-.02-.1.12-.2.25-.31.36-1.02.99-2.55 1.24-3.72.4a324.6 324.6 0 0 1-.29-.2.1.1 0 0 0-.05 0l-2.12.72h-.02a.05.05 0 0 1-.04-.01v-.02l-.27-1.12v-.01l-.02-.01a.03.03 0 0 0-.03.01l-.6.8c-.03.03-.06.03-.1 0l-.68-.78h-.01a.03.03 0 0 0-.03 0v.01l-.44 1.14a.05.05 0 0 1-.05.03h-.02l-1.56-.65a.04.04 0 0 0-.04 0 .04.04 0 0 0-.02.04l.03.42a.06.06 0 0 1-.02.05.06.06 0 0 1-.04.02l-3.7.05a.05.05 0 0 1-.03-.01.06.06 0 0 1-.02-.04V30c0-.05-.02-.07-.07-.03a3.1 3.1 0 0 1-2.77.46 2.76 2.76 0 0 1-1.67-1.33c-.02-.03-.04-.03-.06 0a3 3 0 0 1-1.91 1.45 2.7 2.7 0 0 1-3.05-1.27c-.02-.05-.05-.05-.08 0-.85 1.26-2.9 1.21-4.2.97a.13.13 0 0 1-.1-.12l-.2-4.53a.16.16 0 0 1 .12-.16c.5-.15 1.03-.25 1.6-.29 1.06-.07 2.03.07 2.68.98.12.17.2.35.28.54.02.04.04.04.07 0a2.98 2.98 0 0 1 2.58-1.34 2.6 2.6 0 0 1 2.23 1.28.03.03 0 0 0 .03 0 3.08 3.08 0 0 1 4.04-1.22c.16.07.29.17.44.26.04.02.06.01.06-.04Z" fill="#1B1D3F"/><path d="M24.07 28.23h-.61c-.05 0-.06-.03-.06-.07l.09-.87.01-.04.04-.01h1.66l.03.01.01.03c.02.61.05 1.27.1 1.99 0 .1-.03.17-.1.24a2.7 2.7 0 0 1-1.69.68c-1.18.06-2.3-.6-2.6-1.74a2.38 2.38 0 0 1 1.61-2.84 2.7 2.7 0 0 1 2.4.28c.01.01.02.03 0 .05l-.46.93c-.02.04-.05.05-.08.03a.64.64 0 0 0-.18-.07c-.52-.1-.92 0-1.22.32a.9.9 0 0 0-.27.75c.07.63.7.93 1.27.86l.01-.01.01-.02.05-.48c0-.01 0-.02-.02-.02ZM11.77 29.9l-.16-4.08c0-.04.02-.06.05-.07.53-.14 1.1-.22 1.7-.23 1 0 1.76.32 2.16 1.24.14.33.21.68.22 1.04.04 2.24-2.32 2.37-3.93 2.14-.02 0-.02 0-.03-.02l-.01-.02ZM27.16 28.42l.01.43a.05.05 0 0 0 .06.05h1.44a.05.05 0 0 1 .04.05l.03 1.11a.06.06 0 0 1-.02.04.05.05 0 0 1-.04.02l-2.94.02a.05.05 0 0 1-.05-.05v-4.42a.05.05 0 0 1 .05-.05l3.02-.1a.06.06 0 0 1 .04.02.05.05 0 0 1 .01.04l.03 1.16a.06.06 0 0 1-.04.06h-.02l-1.6-.04h-.02l-.02.02a.06.06 0 0 0-.01.04v.4a.06.06 0 0 0 0 .03.05.05 0 0 0 .05.02h.81l.04.02.02.04.02 1.04a.06.06 0 0 1-.02.04.05.05 0 0 1-.04.01l-.8-.06a.06.06 0 0 0-.04.02.05.05 0 0 0-.01.04ZM32.8 28.58l-.8 1.04a.04.04 0 0 1-.02.01.04.04 0 0 1-.03 0l-.8-.91a.04.04 0 0 0-.04-.01.04.04 0 0 0-.03.02l-.51 1.35a.04.04 0 0 1-.05.02l-1.45-.6a.04.04 0 0 1-.02-.05l1.46-3.86a.04.04 0 0 1 .03-.02.04.04 0 0 1 .04.01l1.42 1.7a.04.04 0 0 0 .03.01.04.04 0 0 0 .03 0l1.48-1.74h.02a.04.04 0 0 1 .04.02l1.22 3.95v.03l-.03.02-1.5.5h-.01a.04.04 0 0 1-.03 0v-.02l-.38-1.46a.04.04 0 0 0-.03-.02h-.02l-.01.01ZM39.5 26.95a2.24 2.24 0 0 1-.06 1.73A2.64 2.64 0 0 1 36.25 30a2.07 2.07 0 0 1-1.42-2.05c0-.3.08-.6.2-.87a2.64 2.64 0 0 1 3.19-1.32c.6.21 1.05.64 1.27 1.19ZM42.5 27.5l-.12-1.71a.03.03 0 0 1 .01-.03.03.03 0 0 1 .02 0l1.66-.1.01.01a.03.03 0 0 1 .02.03l.15 4.38v.01l-.02.01a.03.03 0 0 1-.03 0l-2.58-1.19a.03.03 0 0 0-.03 0 .03.03 0 0 0-.02.03l.02 1.2-.01.01-.02.01H40a.03.03 0 0 1-.03-.02l-.03-4a.03.03 0 0 1 .02-.03.03.03 0 0 1 .03 0l2.46 1.41h.01a.03.03 0 0 0 .03-.02ZM20.32 29.11l-.03-.3a1 1 0 0 0-.08-.3l-.15-.4a13.33 13.33 0 0 1-.55-1.1c-.05-.13-.16-.21-.18-.36-.03-.18-.1-.71-.35-.72-.1 0-.16.04-.2.14-.06.13-.14.26-.22.38a.14.14 0 0 1-.08.05 5.4 5.4 0 0 1-.62.1c-.29.03-.3-.2-.47-.3-.08-.05-.1-.03-.08.06l.04.18a.73.73 0 0 1-.26.62.37.37 0 0 0-.14.31c0 .02.01.03.03.03l.03-.03c.03-.04.03-.04.01 0-.1.26-.1.52-.05.78a43.38 43.38 0 0 1 .14.47l.15.15a.1.1 0 0 1 .03.09l-.05 1.13c-.53-.22-.95-.6-1.17-1.1a2.1 2.1 0 0 1-.14-1.29c.1-.5.37-.95.76-1.3.36-.32.8-.54 1.27-.64.47-.09.95-.05 1.38.12a2.08 2.08 0 0 1 1.36 2.1c-.02.4-.15.79-.38 1.13Z" fill="#F4E167"/><path d="M19.9 27.8c.1.2.12.4.04.56-.1.2-.22.37-.38.5-.1.08-.14.06-.12-.07a.25.25 0 0 0-.08-.23.1.1 0 0 1-.03-.08c.01-.18.03-.35.06-.52a.95.95 0 0 0 0-.35c-.03-.1-.07-.2-.13-.31a.1.1 0 0 0-.11-.06l-.46.08a.2.2 0 0 0-.15.16c-.03.16-.15.24-.36.23a.07.07 0 0 1-.06-.04.11.11 0 0 0-.1-.07.06.06 0 0 1-.04-.03c-.03-.05-.02-.1.02-.14a.13.13 0 0 1 .08-.03c.04 0 .06-.01.07-.04 0-.03.04-.05.08-.07-.01.15.03.25.12.28.03.02.06 0 .08-.02.04-.05.06-.1.06-.14 0-.05-.04-.1-.11-.12a.31.31 0 0 0-.17-.02c.1-.12.06-.2-.1-.26a.13.13 0 0 0-.15.04.13.13 0 0 0-.03.05l-.06.23c-.01.05-.04.07-.09.07h-.06c-.04 0-.06-.02-.05-.06l.03-.54c0-.03-.02-.05-.05-.06a.32.32 0 0 0-.19 0c-.04.02-.06 0-.07-.04l-.04-.16-.04-.18c-.02-.09 0-.11.08-.06.18.1.18.33.47.3.23-.03.44-.06.62-.1.03 0 .06-.03.08-.05.08-.12.16-.25.22-.38.04-.1.1-.15.2-.14.25 0 .32.54.35.72.02.15.13.23.19.35.12.27.24.54.38.8Z" fill="#BA9853"/><path d="m24.94 26.84.34-.68a.03.03 0 0 1 .03-.02.03.03 0 0 1 .02.03v.67a.03.03 0 0 1-.04.03h-.34a.03.03 0 0 1-.02-.02v-.01Z" fill="#FEFEFE"/><path d="m17.35 26.54.04.16c0 .05.03.06.07.05a.32.32 0 0 1 .19-.01c.03 0 .05.03.05.06l-.03.54c0 .04.01.06.05.06h.06c.05 0 .08-.02.09-.07l.06-.23a.13.13 0 0 1 .17-.1c.17.06.2.15.11.27l.02.02c-.04.02-.07.04-.08.07-.01.03-.03.04-.07.04a.13.13 0 0 0-.08.03c-.04.04-.05.09-.02.14 0 .02.02.03.04.03.05 0 .08.03.1.07 0 .02.03.04.06.04.2 0 .33-.07.36-.23a.19.19 0 0 1 .15-.16l.46-.08a.11.11 0 0 1 .11.06.96.96 0 0 1 .12.66l-.05.52c0 .03 0 .06.03.08.07.06.1.14.08.23-.02.13.02.15.12.07.16-.13.29-.3.38-.5.08-.17.07-.36-.04-.56l.16.3.15.42c.05.1.07.2.08.29l.03.3a2.57 2.57 0 0 1-1.72 1.1 2.5 2.5 0 0 1-1.36-.12l.05-1.13a.1.1 0 0 0-.03-.09l-.15-.15a43.38 43.38 0 0 0-.13-.48c-.07-.25-.05-.51.04-.76.02-.05.02-.05 0 0l-.04.02c-.02 0-.03 0-.03-.03 0-.12.04-.23.14-.3a.73.73 0 0 0 .26-.63Z" fill="#DEC88C"/><path d="M13.08 27.12a.13.13 0 0 1 .13-.13h.35a.71.71 0 0 1 .67.45c.04.09.05.18.05.28v.09a.71.71 0 0 1-.71.73h-.35a.13.13 0 0 1-.13-.13v-1.29ZM38.14 27.49c.05.1.08.22.08.34a.98.98 0 0 1-.27.66 1.05 1.05 0 0 1-1.05.27.86.86 0 0 1-.52-.45.83.83 0 0 1-.08-.34.9.9 0 0 1 .07-.35 1.05 1.05 0 0 1 1.25-.58c.23.07.42.23.52.45Z" fill="#1B1D3F"/><path d="m18.23 27.3-.02-.03c.06 0 .11 0 .17.02.07.03.1.07.1.12 0 .04-.01.1-.05.14-.02.03-.05.03-.08.02-.1-.03-.13-.13-.12-.28ZM17.3 27.35v-.03l.03-.01h.02a.2.2 0 0 1 .12.04l.04.06.02.06v.01c0 .05-.02.09-.05.12a.19.19 0 0 1-.13.05h-.01l-.03-.01-.01-.03v-.26Z" fill="#12120B"/><path d="M37.47 28.36c.3-.13.44-.45.33-.7-.12-.26-.45-.36-.75-.22-.3.14-.44.45-.32.7.11.26.45.36.74.22ZM13.49 27.41a.05.05 0 0 1 .05-.05h.05a.31.31 0 0 1 .23.12.36.36 0 0 1 .08.26v.07a.38.38 0 0 1-.11.25.31.31 0 0 1-.24.1h-.05a.05.05 0 0 1-.03-.03.05.05 0 0 1-.02-.04l.04-.68Z" fill="#FEFEFE"/><path d="m29.07 27.52-.25.66-.02.03h-.04a.05.05 0 0 1-.04-.05V27.47a.05.05 0 0 1 .03-.02h.28a.05.05 0 0 1 .04.07Z" fill="#BA9853"/><path d="M17.71 28.4a1.2 1.2 0 0 1-.25.01c-.07 0-.09.04-.07.14a1.22 1.22 0 0 0-.17-.44.12.12 0 0 1 .03-.16c.1-.07.22-.09.37-.07.04.01.06.03.06.06.02.1 0 .19-.03.28a.1.1 0 0 1-.09.06c-.01 0-.02 0-.03.02-.02.03-.02.05.03.06.06 0 .1.01.15.04Z" fill="#040405"/><path d="M17.4 28.55c-.03-.1 0-.14.06-.14l.25-.01c.16.03.3 0 .44-.08a.08.08 0 0 1 .1.04c.02.03 0 .05-.05.08a1.3 1.3 0 0 1-.8.11Z" fill="#12120B"/><path d="m18.08 29.4-.48-.15a.25.25 0 0 1-.13-.12c-.06-.11-.04-.13.07-.07.15.1.3.12.46.09.22-.05.45-.14.68-.25.05-.03.06-.01.05.03l-.01.03-.02.04-.26.25a.16.16 0 0 0-.05.11.4.4 0 0 1-.04.18c-.03.06-.08.08-.14.04a.07.07 0 0 1-.03-.05.2.2 0 0 0-.05-.1.09.09 0 0 0-.05-.03Z" fill="#BA9853"/><path d="M35.33 30.26h-.06c-.03 0-.03.03-.02.06.03.05.04.11.03.16-.03.73-.1 1.52-.19 2.38-.05.5-.17 1-.51 1.39-.49.55-1.07.9-1.74 1.06.19-1.2-.1-2.17-.85-2.9a3.1 3.1 0 0 0-.87-.58 3.74 3.74 0 0 0-4.75 1.55.09.09 0 0 1-.1.03h-.02c-.03-.01-.03-.03-.02-.05l.47-1c.01-.03 0-.06-.02-.08a3.88 3.88 0 0 0-5.3.21c.18-.68.1-1.21-.23-1.58a1.1 1.1 0 0 0-.59-.35 1.6 1.6 0 0 0-.41 0 .9.9 0 0 1-.43-.04 4.1 4.1 0 0 0 1.03-.89.07.07 0 0 1 .07 0l.02.02a3.35 3.35 0 0 0 4.13.84.06.06 0 0 1 .06.06l-.01.18a.07.07 0 0 0 .04.08h.03l4.24-.04c.05 0 .07-.03.07-.08l.01-.27a.05.05 0 0 1 .05-.05h.03l1.38.58a.06.06 0 0 0 .05 0 .06.06 0 0 0 .03-.04l.33-.87a.09.09 0 0 1 .07-.06.09.09 0 0 1 .08.03l.55.62c.02.03.05.03.07 0l.42-.55a.06.06 0 0 1 .1.02c.1.24.15.49.19.74 0 .06.04.09.1.06.75-.24 1.48-.5 2.2-.74.08-.03.17 0 .27.1Z" fill="#CE6E42"/><path d="M16.1 30.18c.92.7 1.92.9 3 .6.09.13.08.26-.02.39l-.2.27c-.12.26-.16.52-.14.8.07.65.44 1 1.12 1.07.34.03.63-.06.89-.28a.05.05 0 0 1 .08.03c0 .07.02.13.05.16-.43.78-.5 1.68-.23 2.69-.82-.71-1.53-1.5-2.12-2.35-.07-.11-.12-.23-.2-.34l-.02.01-.01.01v.02c.44.8.97 1.55 1.57 2.24.28.33.6.6.99.83.26.45.62.84 1.06 1.15a3.83 3.83 0 0 0 4.83-.44.09.09 0 0 1 .12 0c.51.47 1.1.76 1.75.88l-.74.66c-.4.36-.92.57-1.46.57a7.65 7.65 0 0 0-.46.02v.03s0 .02.02.02c.51.05 1.03.1 1.55.13.63.05 1.37.06 1.8-.42.28-.33.58-.64.88-.93a.1.1 0 0 1 .1-.03c.03.01.05 0 .07 0 .03-.03.03-.05 0-.07a.34.34 0 0 0-.12-.06 4.47 4.47 0 0 0 1.76-1.04l4.13-1.96a1 1 0 0 0 .4-.3c.1-.15.2-.32.25-.5.32-1.01.6-2.07.82-3.17 0-.03 0-.06-.03-.07a4.06 4.06 0 0 0 1.08-.38c0 .03 0 .07.04.11-.1.54-.2 1.11-.35 1.61a11.36 11.36 0 0 1-8.25 7.95 11.33 11.33 0 0 1-13.12-6.5c-.47-1.08-.77-2.21-.89-3.4Z" fill="#CE6E42"/><path d="M35.33 30.26c.63.44 1.35.62 2.16.53h.1c.03.02.04.05.03.08-.22 1.1-.5 2.16-.82 3.17-.06.18-.14.35-.25.5a1 1 0 0 1-.4.3l-4.13 1.96c.4-.52.67-1.02.81-1.49a3.27 3.27 0 0 0 1.75-1.06c.34-.4.46-.89.51-1.39.1-.86.16-1.65.2-2.38 0-.05-.01-.1-.04-.16-.01-.03 0-.05.02-.07l.06.01Z" fill="#A54838"/><path d="M19.72 30.52a.9.9 0 0 0 .43.05c.2-.02.34-.02.41 0 .24.05.44.16.6.34.32.37.4.9.22 1.58l-.5.73c-.03-.03-.05-.09-.05-.16l-.01-.02a.05.05 0 0 0-.07 0c-.26.21-.55.3-.9.27-.67-.06-1.04-.42-1.1-1.08-.03-.27.01-.53.13-.79l.2-.27c.1-.13.1-.26.02-.39.24-.05.45-.14.62-.26Z" fill="#C05B3E"/><path d="M32.83 35.31c-.14.47-.42.97-.81 1.5-.5.47-1.09.82-1.76 1.03a3.46 3.46 0 0 1-3.39-.8.09.09 0 0 0-.12 0 3.83 3.83 0 0 1-4.83.44 3.6 3.6 0 0 1-1.06-1.15c-.08-.24-.15-.38-.21-.42-.27-1.01-.2-1.9.23-2.7l.5-.72a3.88 3.88 0 0 1 5.3-.21c.03.02.03.05.02.08l-.47 1c-.01.02 0 .04.02.04l.02.01a.09.09 0 0 0 .1-.03 3.74 3.74 0 0 1 4.75-1.56c.32.15.6.35.87.6.76.72 1.04 1.7.84 2.9Z" fill="#FEFEFE"/><path d="m26.7 36.46-.02.22c0 .02 0 .04-.03.06a3.52 3.52 0 0 1-4.8.35 2.97 2.97 0 0 1-.8-3.6c.99-2.01 3.6-2.44 5.31-1.12l.02.02v.03l-.63 1.24v.01a4.67 4.67 0 0 0 .8-.01 3.42 3.42 0 0 1 4.55-1.54 2.7 2.7 0 0 1 1.38 3.3 3.4 3.4 0 0 1-3.82 2.23 2.89 2.89 0 0 1-1.92-1.21h-.02a.02.02 0 0 0-.02.02Z" fill="#1B1D3F"/><path d="M24.8 35.2h-.67l-.02-.01-.02-.01-.01-.02v-.03l.09-1.03.01-.04.04-.01h1.96a.05.05 0 0 1 .05.06l.07 2.37c0 .03-.01.07-.03.1-.12.15-.26.27-.43.38-1.29.8-2.94.71-4-.42a2.62 2.62 0 0 1 .2-3.74c1-.94 2.65-1.1 3.82-.3.03 0 .03.03.02.05l-.54 1.1-.03.01h-.03a1.49 1.49 0 0 0-1.26 0c-.42.21-.66.52-.71.93-.1.8.7 1.3 1.44 1.22a.08.08 0 0 0 .06-.07l.05-.47c0-.04-.02-.06-.06-.06ZM32.14 33.88c.1.32.14.66.1 1-.05.33-.16.66-.34.97a3.11 3.11 0 0 1-3.82 1.21c-.32-.14-.6-.35-.84-.6a2.33 2.33 0 0 1-.59-1.86c.05-.34.16-.67.34-.97.18-.3.42-.58.7-.8a3.1 3.1 0 0 1 3.12-.42c.32.15.6.36.83.6.23.26.4.55.5.87Z" fill="#F4E167"/><path d="M20.65 35.9c.06.05.13.19.2.43-.37-.23-.7-.5-.98-.83a13.1 13.1 0 0 1-1.56-2.27l.02-.01c.08.1.13.23.2.34.6.86 1.3 1.64 2.12 2.35Z" fill="#A54838"/><path d="M30.49 34.36a1.01 1.01 0 0 1-.08.78c-.08.12-.17.24-.28.33a1.24 1.24 0 0 1-1.24.18.97.97 0 0 1-.54-.57.93.93 0 0 1-.04-.4c.01-.13.06-.26.12-.39a1.24 1.24 0 0 1 1.51-.51c.27.12.46.32.55.58Z" fill="#1B1D3F"/><path d="M29.64 35.3c.39-.14.6-.52.48-.85-.12-.32-.54-.47-.92-.33-.4.15-.6.53-.48.86.12.33.53.47.92.33Z" fill="#FEFEFE"/><path d="m30.26 37.84.12.06c.03.02.03.04 0 .07a.07.07 0 0 1-.07 0 .1.1 0 0 0-.1.03c-.3.3-.6.6-.88.93-.43.48-1.17.47-1.8.42a53.25 53.25 0 0 1-1.57-.15v-.03l.46-.02c.54 0 1.06-.2 1.46-.57l.74-.66c.56.1 1.1.07 1.64-.08Z" fill="#A54838"/><defs><linearGradient id="awkivys1h" x1="11.69" y1="27.11" x2="44.37" y2="27.11" gradientUnits="userSpaceOnUse"><stop stop-color="#1E296C"/><stop offset="1" stop-color="#3455A5"/></linearGradient></defs></svg>