<svg width="112" height="112" viewBox="0 0 56 56" xmlns="http://www.w3.org/2000/svg"><rect fill="url(#a)" width="56" height="56" rx="28"/><path d="m30.5 10 .18 2.26c0 .03 0 .05-.02.08a.15.15 0 0 1-.06.06.16.16 0 0 1-.16 0l-1.56-1.06L30.5 10Z" fill="#EB752F"/><path d="M30.5 10 32 11.56l-1.13.81a.14.14 0 0 0-.05.16l.03.08a.2.2 0 0 1-.03.13.21.21 0 0 1-.1.09l-1.6.73a.24.24 0 0 0-.13.15.23.23 0 0 0 .05.2l1.12 1.45c.03.04.08.07.13.1a.29.29 0 0 0 .29-.06.27.27 0 0 0 .08-.13l.68-2.59a.1.1 0 0 1 .09-.07h.06a.1.1 0 0 1 .04.04l1.2 1.54c.02.02.04.04.06.04a.12.12 0 0 0 .12-.03 7.11 7.11 0 0 0-.06-3.08c.08-.07.29-.12.62-.13.1.83.48 1.68 1.14 2.55l-.96.55-.73.4-2.39 1.38-2.53 1.36a.4.4 0 0 1-.47-.07c-.56-.57-1.4-1.4-1.36-2.27.67-.36 1.06-.76 1.16-1.2l.11-1.4c0-.04 0-.07-.02-.1a.16.16 0 0 0-.26-.02c-.11.14-.3.26-.55.37a.2.2 0 0 1-.15 0 .19.19 0 0 1-.1-.09c-.16-.32-.23-.6-.2-.83 0-.05.03-.1.05-.13a.33.33 0 0 1 .11-.1l.15-.05.16.01c.34.08.53.03.59-.14.03-.05.06-.07.08-.07.13-.2.28-.34.46-.41a.26.26 0 0 1 .24.02l.87.59 1.56 1.05a.16.16 0 0 0 .16 0 .15.15 0 0 0 .06-.05.15.15 0 0 0 .02-.08L30.5 10Z" fill="#F0AA92"/><path d="m35.3 13.09-.68.45A5.22 5.22 0 0 1 33.48 11l1.11-.58a.1.1 0 0 1 .09 0 .1.1 0 0 1 .06.07l.57 2.6Z" fill="#F8E4D1"/><path d="M27.3 11.14c-.01 0-.04.02-.07.07l-1.02.1a.2.2 0 0 0-.11.05.18.18 0 0 0-.06.11l-.1 1.39c0 .04.01.09.04.12.02.04.05.07.1.1l1.26.61c-.1.44-.49.84-1.16 1.2-.4.32-.85.44-1.37.34a.54.54 0 0 0-.36.06.52.52 0 0 0-.24.28c-.11.31-.33.58-.66.78-.07.05-.36.14-.88.26-.3.07-.58.2-.86.38l.2 3.23a.46.46 0 0 1-.4.1l-3.02-1.33a.16.16 0 0 0-.17.02.15.15 0 0 0-.04.17l.69 1.6v.1a.14.14 0 0 1-.06.07l-.9.5h-.01a.01.01 0 0 1 0-.02c.22-.6.28-1.17.19-1.7a.19.19 0 0 0-.05-.09.2.2 0 0 0-.2-.06.2.2 0 0 0-.09.05c-.3.3-.63.46-.97.47l-.27-2.85 2.48 1.2a.36.36 0 0 0 .47-.14.35.35 0 0 0 .05-.17l.04-1.95.04-1.12a.21.21 0 0 1 .07-.15.23.23 0 0 1 .17-.06l.53.04c.08 0 .15-.02.21-.07a.3.3 0 0 0 .12-.19c.15-.9.48-1.56.98-1.97l-.14 2.8c0 .04 0 .08.03.12a.2.2 0 0 0 .1.08l1.46.48a.19.19 0 0 0 .2-.04.17.17 0 0 0 .03-.19 6.05 6.05 0 0 1-.33-1.13c-.08-.48.24-1.31.37-1.88.12-.14.21-.38.27-.7a.2.2 0 0 1 .11-.14.21.21 0 0 1 .19 0l.77.38a.33.33 0 0 0 .29 0 .3.3 0 0 0 .17-.22l.19-.93a.3.3 0 0 1 .13-.19c.29-.18.63-.25 1-.2.24.03.29.22.6.23Z" fill="#DA5D29"/><path d="M27.23 11.2c-.06.18-.25.23-.59.15a.46.46 0 0 0-.16 0c-.05 0-.1.02-.15.04a.33.33 0 0 0-.1.1.28.28 0 0 0-.06.13c-.03.23.04.51.2.83.02.05.06.08.1.1h.15c.25-.12.44-.24.55-.38a.16.16 0 0 1 .18-.04c.03.01.06.03.08.06.02.03.02.06.02.1l-.11 1.4-1.27-.62a.23.23 0 0 1-.1-.09.22.22 0 0 1-.02-.12l.1-1.39c0-.04.01-.08.05-.11a.2.2 0 0 1 .11-.06l1.02-.1Z" fill="#EC8835"/><path d="M32.87 11.12a7.11 7.11 0 0 1 .05 3.08.12.12 0 0 1-.12.03.11.11 0 0 1-.05-.04l-1.2-1.54a.1.1 0 0 0-.05-.04.1.1 0 0 0-.12.02.1.1 0 0 0-.03.05l-.68 2.58a.27.27 0 0 1-.08.14.28.28 0 0 1-.3.05.28.28 0 0 1-.12-.09l-1.12-1.45a.23.23 0 0 1-.05-.2.23.23 0 0 1 .13-.15l1.6-.73a.21.21 0 0 0 .1-.1.2.2 0 0 0 .03-.12.54.54 0 0 0-.03-.08.14.14 0 0 1 .05-.16l1.13-.81.86-.44Z" fill="#F8E4D1"/><path d="M23.6 12.91c-.14.57-.46 1.4-.38 1.88.05.3.16.67.33 1.13a.17.17 0 0 1-.04.19.18.18 0 0 1-.19.04l-1.45-.48a.2.2 0 0 1-.1-.08.2.2 0 0 1-.04-.12l.14-2.8 1.72.24Z" fill="#96461D"/><path d="m37.04 16.85-1 .07a.14.14 0 0 1-.12-.04.13.13 0 0 1-.04-.12l.62-3.04v-.08a.15.15 0 0 0-.06-.07.16.16 0 0 0-.17-.01 4.4 4.4 0 0 1-2.61.53l.96-.55.69-.45 2.36.06a.15.15 0 0 1 .11.06.14.14 0 0 1 .03.12l-.77 3.52Z" fill="#EC8835"/><path d="m37.04 16.85.88 1.18-.32 1.07c0 .02-.01.04-.03.05a.13.13 0 0 1-.18-.01l-.4-.52a.39.39 0 0 0-.32-.15h-3l-.06-.02a.11.11 0 0 1-.04-.06.1.1 0 0 1 0-.07c.01-.03.03-.05.05-.06l2.08-1.16a.21.21 0 0 0 .1-.14.2.2 0 0 0-.04-.17 8.58 8.58 0 0 0-2.83-2.3l.73-.4c.9.1 1.77-.08 2.61-.53a.16.16 0 0 1 .17 0c.03.02.04.05.06.08v.08l-.62 3.04a.13.13 0 0 0 .04.12.14.14 0 0 0 .11.04l1-.07Z" fill="#F0A554"/><path d="M32.93 14.5a8.58 8.58 0 0 1 2.87 2.37.2.2 0 0 1-.03.17.2.2 0 0 1-.07.06l-2.08 1.16a.11.11 0 0 0-.05.06.1.1 0 0 0 .04.13l.07.02h3a.4.4 0 0 1 .3.15l.4.52.06.03a.13.13 0 0 0 .13-.02.12.12 0 0 0 .03-.05l.32-1.07.8 1.93-2.87 1.73a.15.15 0 0 0-.06.06.15.15 0 0 0 .02.16l.07.05.78.22c-.15.14-.03.4.35.76a.15.15 0 0 1 .05.13.14.14 0 0 1-.1.11l-.77.33a6.19 6.19 0 0 0-2.66-2.71v-.05c0-.02.02-.03.03-.04l.05-.01.82.16.07-.01c.02 0 .04-.02.05-.04a.11.11 0 0 0 0-.13l-1.46-1.91c-.3-.02-.65.07-1.03.26a.27.27 0 0 1-.26-.02c-1.56-.94-4.5-.94-3.52 1.78a.24.24 0 0 0 .21.16c.6.02 1.11.04 1.75-.09.62-.12 1.26-.23 1.92-.32-1.29.48-1.47 1.39-.56 2.72a.22.22 0 0 1 0 .25.24.24 0 0 1-.26.08l-.78-.26a1.79 1.79 0 0 1-.98-.78l-.8-1.35a.24.24 0 0 0-.25-.11l-.4.07-1.62.96c.12-1.37.16-3.12-1.78-3.05l.56-.42 1.72-.91a6.9 6.9 0 0 1 3.49-.57c.17.02.33.07.47.15l1.54.86a.12.12 0 0 0 .15-.03.11.11 0 0 0 0-.14l-2.12-2.14 2.39-1.37Z" fill="#EC8835"/><path d="M26.18 14.89c-.04.86.8 1.7 1.36 2.27a.4.4 0 0 0 .47.07l2.53-1.36L32.65 18a.11.11 0 0 1-.06.18h-.08l-1.54-.87c-.14-.08-.3-.13-.47-.15a6.89 6.89 0 0 0-3.5.57c.3-.19.39-.38.27-.57a.1.1 0 0 0-.03-.03l-2.52-1.5a.11.11 0 0 0-.1 0 .1.1 0 0 0-.07.08 4.65 4.65 0 0 0 .74 2.93l-.56.42-.22.08a12.67 12.67 0 0 0-2.7-2.16c.28-.18.57-.3.86-.38.52-.12.81-.21.88-.26.33-.2.55-.47.66-.78a.52.52 0 0 1 .24-.28.54.54 0 0 1 .37-.06c.51.1.96-.02 1.36-.34Z" fill="#F0A554"/><path d="m27 17.74-1.71.9a4.65 4.65 0 0 1-.72-2.97.1.1 0 0 1 .15-.03l2.52 1.5a.1.1 0 0 1 .03.03c.12.2.03.38-.26.57Z" fill="#F0AA92"/><path d="m19.75 16.2-.04 1.94a.35.35 0 0 1-.17.3.37.37 0 0 1-.35.01l-2.48-1.2c1.24-.25 2.25-.6 3.04-1.06Z" fill="#96461D"/><path d="m24.51 19.15-2.3 1.27a.15.15 0 0 1-.15 0 .13.13 0 0 1-.06-.13l.01-.07-.2-3.23c1.02.61 1.92 1.33 2.7 2.16Z" fill="#F0AA92"/><path d="m33.1 18.77-.03 1.64a.18.18 0 0 1-.06.13.19.19 0 0 1-.14.05l-.71-.05c-.66.09-1.3.2-1.92.32-.64.13-1.16.1-1.75.09a.23.23 0 0 1-.21-.16c-.97-2.72 1.96-2.72 3.52-1.78a.27.27 0 0 0 .26.02c.38-.2.73-.28 1.03-.26Z" fill="#F0A554"/><path d="M36.19 23.51c-.58.16-.86.46-.85.88a.32.32 0 0 1-.2.21l.19-2.25a.2.2 0 0 0-.02-.1.2.2 0 0 0-.08-.09.22.22 0 0 0-.22 0l-2.88 1.7c-.12-.03-.2.03-.26.16a39 39 0 0 0-3.16 1.61c-.05.03-.08.06-.09.1 0 .04 0 .09.03.13-.06-.06-.08-.12-.08-.17.12-1.18.32-2.33.6-3.47a.3.3 0 0 0-.06-.24c-.15-.2-.4-.38-.53-.71-.05-.1-.2-.14-.44-.11l.39-.07a.24.24 0 0 1 .25.11l.8 1.35c.22.37.56.65.98.78l.78.26a.24.24 0 0 0 .25-.08.22.22 0 0 0 .01-.25c-.91-1.33-.73-2.24.56-2.72l.7.05a.19.19 0 0 0 .15-.05.18.18 0 0 0 .06-.13l.02-1.64 1.46 1.9a.11.11 0 0 1-.05.18.12.12 0 0 1-.07 0l-.82-.15h-.05a.07.07 0 0 0-.03.05v.05l.03.04a6.19 6.19 0 0 1 2.63 2.67ZM26.51 22.12c-.7.3-1.36.7-2 1.2-.25.2-.78.4-1.59.58l-3.04-1.01a.07.07 0 0 0-.06 0 .07.07 0 0 0-.03.06c0 .68.12 1.34.38 1.96.03.08.04.16.03.24l-.02.14-3.24-.72c.12-.4.38-.88.78-1.42.08-.17.12-.3.13-.41.67-.76 1.84.47 2.3-.4a.4.4 0 0 0 .05-.22.9.9 0 0 1 .04-.44.78.78 0 0 1 .34-.35l1.09-.6a.2.2 0 0 0 .1-.15.2.2 0 0 0-.06-.17l-.1-.09c.14.03.28 0 .4-.1a.4.4 0 0 0-.01.07l.01.07.05.06a.15.15 0 0 0 .15 0l2.3-1.27.22-.08c1.94-.07 1.9 1.68 1.78 3.05Z" fill="#EB752F"/><path d="m21.6 20.32.1.09a.2.2 0 0 1 .07.17.2.2 0 0 1-.1.16l-1.1.6a.77.77 0 0 0-.33.34.89.89 0 0 0-.04.44.4.4 0 0 1-.04.22c-.47.87-1.64-.36-2.31.4l-2.55-1.7 1.68-.94c.34 0 .66-.16.97-.47a.2.2 0 0 1 .2-.04.2.2 0 0 1 .09.05l.05.1a3.15 3.15 0 0 1-.19 1.7h.01l.9-.5a.14.14 0 0 0 .06-.07.13.13 0 0 0 0-.1l-.69-1.59a.14.14 0 0 1 .04-.17.15.15 0 0 1 .17-.02l3.02 1.33ZM29.41 20.51a.53.53 0 0 1-.43-.14.5.5 0 0 1-.15-.43c.08-.53.43-.77 1.06-.7.04 0 .08.01.12.04l.86.63a.24.24 0 0 1 .01.39.26.26 0 0 1-.13.05l-1.34.16Z" fill="#F0AA92"/><path d="M38.71 19.96c.1.12.14.3.1.54-.3 0-.42.1-.34.3l.45 1.24.06-.08-2.32.22-.78-.22a.15.15 0 0 1-.07-.05.14.14 0 0 1-.02-.16.15.15 0 0 1 .06-.06l2.86-1.73Z" fill="#F0A554"/><path d="M38.82 20.5c.2.44.24.96.1 1.54-.17-.5-.32-.9-.45-1.24-.08-.2.04-.3.35-.3Z" fill="#F8E4D1"/><path d="m15.3 21.03 2.55 1.71c-.01.1-.05.24-.13.4-.13-.13-.38-.07-.77.2l-1.65-2.3Z" fill="#EC8835"/><path d="M28.14 21.16c.25-.03.4 0 .44.1.13.34.38.53.53.72a.3.3 0 0 1 .05.24 25.66 25.66 0 0 0-.59 3.47c0 .05.02.1.08.17.1.07.15.1.16.05-.03.27-.02.45.06.54-.1.03-.16.08-.16.16-.15-.26-.28-.39-.4-.4-.15-.12-.25-.01-.3.33-.17-.21-.4-.22-.7-.03-.63.4-1.27.8-1.93 1.18.02-.78 0-1.53-.04-2.26-.01-.1-.04-.19-.1-.26a.14.14 0 0 0-.22 0 .13.13 0 0 0-.03.08l-.04 2.5c-1.26-.31-2.46-.48-3.6-.52l-.25-.4a5.3 5.3 0 0 0 1.67-2.69c.05-.04.1-.12.15-.24.8-.18 1.34-.38 1.6-.58.63-.5 1.3-.9 1.99-1.2l1.63-.96Z" fill="#A25D20"/><path d="M38.98 21.96c-.06.95-.3 1.66-.09 2.66l-.78.46a.14.14 0 0 0-.05.05.13.13 0 0 0 0 .14l.05.04.07.04c.06.03.1.08.12.13.02.05.02.11 0 .16l-.16.44c-.1.38-.3.66-.63.83-.1-.15-.25-.27-.43-.36-.05-.15-.13-.25-.23-.3-.08-.05-.2-.04-.36.03a128.17 128.17 0 0 0-1.99.9.08.08 0 0 1-.04-.04l-.04-.06v-.02l.01-.02L36.29 26a.14.14 0 0 0 .04-.04.13.13 0 0 0 .02-.1.12.12 0 0 0-.02-.05l-.72-.87c-.2-.17-.3-.35-.27-.55 0-.42.27-.72.85-.88l.78-.33a.15.15 0 0 0 .09-.1.14.14 0 0 0-.05-.14c-.38-.36-.5-.62-.35-.76l2.32-.22Z" fill="#542F0E"/><path d="M35.15 24.6a1.6 1.6 0 0 1-.69-.1c-.45-.19-.79-.29-1-.3l-1.33-.34 2.88-1.7a.22.22 0 0 1 .22 0 .2.2 0 0 1 .08.09.2.2 0 0 1 .02.1l-.18 2.25Z" fill="#EC8835"/><path d="M25.53 24.94a.34.34 0 0 1-.2-.19.31.31 0 0 1 .02-.26l.92-1.8a.16.16 0 0 1 .27 0l1.65 2.76a.2.2 0 0 1-.02.22.21.21 0 0 1-.22.06l-2.42-.8Z" fill="#DA5D29"/><path d="M22.92 23.9c-.05.12-.1.2-.15.24l-2.66-.87a.13.13 0 0 0-.13.03.12.12 0 0 0-.04.11 30.98 30.98 0 0 0 .44 1.86l-.03.06a.15.15 0 0 1-.1.07c-.04 0-.07-.03-.07-.11l.02-.14a.41.41 0 0 0-.03-.24 4.91 4.91 0 0 1-.37-1.99.07.07 0 0 1 .05-.03h.03l3.04 1.01Z" fill="#542F0E"/><path d="M17.72 23.15a4.8 4.8 0 0 0-.78 1.42l1.24 2.17c-.04.07-.04.16-.02.29l-1.14 1.29-.03.02-.03-.01a.05.05 0 0 1-.02-.03v-.03l.94-1.46a.2.2 0 0 0 .02-.18.2.2 0 0 0-.13-.13l-2.7-.9a.1.1 0 0 1-.07-.07.1.1 0 0 1 .03-.1l1.92-2.1c.39-.26.64-.32.77-.18Z" fill="#F0A554"/><path d="M22.77 24.14a5.3 5.3 0 0 1-1.67 2.68c-.13-.3-.3-.58-.54-.8.07-.15-.08-.19-.45-.12l-1.93.84-1.24-2.17 3.24.72c0 .08.03.11.07.1a.14.14 0 0 0 .1-.06.17.17 0 0 0 .02-.13 31.04 31.04 0 0 1-.42-1.85c0-.02.02-.04.03-.05a.13.13 0 0 1 .13-.03l2.66.87Z" fill="#DA5D29"/><path d="m32.13 23.86 1.32.34c-.29.14-.64.19-1.07.14a.1.1 0 0 0-.05 0 .09.09 0 0 0-.03.03l-.02.05.01.04c.24.44.3.77.69 1.16a.9.9 0 0 1 .25.43c.06.47.25.85.57 1.14.05.04.09.04.12.02.04-.03.05-.08.04-.14.04.04.08.1.11.16l.07.44-2.56-.58a.02.02 0 0 0-.01 0h-.01v.01l-.02.09v.05l.05.03 1.94.37c.02 0 .05.01.06.03a.12.12 0 0 1-.02.18l-2.63 1.47a.2.2 0 0 1-.12.02.19.19 0 0 1-.11-.06l-1.12-1.39c-.07.02-.12-.03-.16-.15l-.72-1.13c0-.08.06-.13.16-.16.18.43.42.79.71 1.08a.2.2 0 0 0 .1.06.2.2 0 0 0 .12-.02l1.58-.74.49-2.81c.06-.13.14-.19.26-.16Z" fill="#96461D"/><path d="m31.87 24.02-.5 2.8-2.56-.9c-.01.03-.07.01-.16-.06a.16.16 0 0 1-.03-.13c0-.04.04-.07.09-.1a38.98 38.98 0 0 1 3.16-1.61Z" fill="#F0AA92"/><path d="M35.15 24.6c.1-.04.16-.11.19-.2-.03.2.07.37.27.54-.32.13-.57.37-.74.72-.26.5-.57.93-.94 1.3l-.7-.91a.9.9 0 0 0-.25-.43c-.39-.4-.45-.72-.69-1.16a.08.08 0 0 1 0-.09c.02 0 .03-.02.04-.03a.1.1 0 0 1 .05 0c.43.05.78 0 1.07-.14.22.01.56.11 1.01.3.2.08.42.11.69.1Z" fill="#A25D20"/><path d="M40.57 26.47c0 .27-.07.43-.23.5a.22.22 0 0 1-.18.01l-2.02-.9.16-.44a.23.23 0 0 0 0-.16.24.24 0 0 0-.12-.13l-.07-.04a.13.13 0 0 1-.05-.18.14.14 0 0 1 .05-.05l.78-.46 1.68 1.85Z" fill="#F8E4D1"/><path d="m35.6 24.94.73.87a.12.12 0 0 1 0 .15.13.13 0 0 1-.04.04l-1.86 1.04-.01.02v.02l.04.06c0 .02.02.03.04.03h.06l1.93-.89c.16-.07.28-.08.36-.03.1.05.18.15.23.3l-1.1.68a.5.5 0 0 1-.35.07l-.42-.09a.37.37 0 0 0-.24.04c-.35.18-.65.18-.9-.02a.6.6 0 0 0-.11-.16l-.03-.1c.37-.38.68-.81.94-1.3.17-.36.42-.6.74-.73Z" fill="#EB752F"/><path d="M25.38 27.69c-.1 0-.19.04-.26.12a.13.13 0 0 0-.02.11.13.13 0 0 0 .07.1l2.06 1.02c.01.03.1.08.24.14.07.04.15.06.23.06l2.7.11.07-.01a.12.12 0 0 0 .04-.05.11.11 0 0 0 0-.12l-.92-1.28 1.12 1.39c.02.03.06.06.1.06a.2.2 0 0 0 .13-.02l2.63-1.47a.11.11 0 0 0 .02-.18.12.12 0 0 0-.06-.03l-1.94-.37a.07.07 0 0 1-.04-.03.06.06 0 0 1-.01-.05l.01-.09.02-.01h.01l2.56.58 2.55 1.3c.16.09.28.06.36-.06a.18.18 0 0 1 .17-.07c.27.03.52.13.76.28l.07.68-1.06-.35-3.07-1.34a.34.34 0 0 0-.15-.02c-.06 0-.1.01-.16.04l-2.74 1.5c-.37.21-.54.51-.52.91a.24.24 0 0 1-.1.22c-.45.33-.95.56-1.49.7l-.37-.13a.16.16 0 0 1-.07-.05.16.16 0 0 1 .05-.24l1.78-1c.01 0 .03-.01.03-.03l.01-.05a.07.07 0 0 0-.03-.04.08.08 0 0 0-.04-.02l-2.72-.18a.47.47 0 0 1-.21-.06l-1.53-.85a.28.28 0 0 0-.23-.02l-.55.2a.32.32 0 0 0-.13-.1l-.52-.45c-.16.02-.37.15-.63.39a.1.1 0 0 1-.14-.01.09.09 0 0 1-.01-.05l-.01-.1 1.5-.93.05-2.49c0-.02.01-.05.03-.07a.14.14 0 0 1 .07-.05.14.14 0 0 1 .15.04c.06.07.09.16.1.26.05.73.06 1.48.04 2.26Z" fill="#100804"/><path d="m20.1 25.9-1.87 2.81c.08-.72.02-1.12-.18-1.2.15-.22.19-.38.11-.48-.02-.13-.02-.22.02-.29l1.93-.84Z" fill="#EB752F"/><path d="M20.56 26.01c.22.97.66 1.87 1.3 2.67.15.39.33.52.56.41.46-.22.78-.36.97-.42a8.05 8.05 0 0 1-.93 2.37l1.34 2a.06.06 0 0 1-.02.08.07.07 0 0 1-.08 0 4.81 4.81 0 0 1-1.15-1.41.24.24 0 0 0-.27-.01.37.37 0 0 1-.14.05c-.05 0-.08-.06-.1-.18a12.57 12.57 0 0 0-.1-.46.2.2 0 0 0-.17-.07.2.2 0 0 0-.09.03l-.14.08a.45.45 0 0 1-.35.03l-2.38-.79a.08.08 0 0 1-.05-.03.08.08 0 0 1-.02-.06c0-.02.02-.04.04-.05.02-.01.04-.02.06-.01l.5.03.08-.01a.14.14 0 0 0 .05-.2l-.55-.8 1.78.23.07-.01a.12.12 0 0 0 .05-.05.11.11 0 0 0-.02-.13.69.69 0 0 0-.5-.22 8.77 8.77 0 0 1-2.07-.37l1.88-2.81c.37-.07.52-.03.45.11Z" fill="#A25D20"/><path d="m31.38 26.83-1.58.74a.2.2 0 0 1-.12.02.2.2 0 0 1-.1-.06c-.3-.3-.53-.65-.71-1.08-.08-.1-.1-.27-.06-.54l2.57.92Z" fill="#EB752F"/><path d="M20.56 26.01c.23.23.41.5.54.81l.25.41.51 1.45a6.73 6.73 0 0 1-1.3-2.67ZM33.93 26.97l.03.1c.01.06 0 .1-.04.14-.03.02-.07.02-.12-.02a1.71 1.71 0 0 1-.57-1.14l.7.92Z" fill="#542F0E"/><path d="m38.14 26.08 2.02.9a.22.22 0 0 0 .18 0c.16-.08.24-.24.23-.5.52.49.57.95.14 1.4l-.27-.04a.2.2 0 0 1-.13-.07.17.17 0 0 1-.03-.14l.04-.19a.14.14 0 0 0-.04-.13.16.16 0 0 0-.13-.05.69.69 0 0 0-.35.16l-1.46-.45a.1.1 0 0 0-.11.04.1.1 0 0 0 0 .12c.16.21.28.45.34.71a.23.23 0 0 1-.1.25.8.8 0 0 1-.64.11c-.33-.54-.44-.97-.32-1.29.33-.17.54-.45.63-.83Z" fill="#F0A554"/><path d="m28.3 26.21-.43 1.65a.06.06 0 0 1-.02.04.06.06 0 0 1-.05 0 .06.06 0 0 1-.04-.02.06.06 0 0 1-.01-.05l.26-1.29c.05-.34.14-.45.3-.33Z" fill="#542F0E"/><path d="m28.7 26.61.73 1.13a.27.27 0 0 1-.07.15 4.71 4.71 0 0 1-2.13 1.15l-2.06-1.03a.14.14 0 0 1-.07-.09.13.13 0 0 1 .02-.1.32.32 0 0 1 .26-.13c.66-.38 1.3-.77 1.94-1.18.29-.2.52-.18.69.03l-.26 1.3v.04l.04.02a.07.07 0 0 0 .06 0l.01-.02.01-.02.43-1.65c.13.01.26.14.4.4Z" fill="#EB752F"/><path d="M37.51 26.91c-.12.32-.01.75.32 1.3-.01.17.01.33.08.47a.18.18 0 0 0 .13.1.18.18 0 0 0 .16-.03l1.6-1.33a.69.69 0 0 1 .35-.16.16.16 0 0 1 .13.05.15.15 0 0 1 .04.13l-.04.19a.17.17 0 0 0 .03.14.18.18 0 0 0 .13.07l.27.03-.76.5a.22.22 0 0 0-.1.15c-.02.17.08.35.3.54-.54.08-.85.29-.92.64a.2.2 0 0 0 .07.2.21.21 0 0 0 .22.03c.44-.2.65-.46.64-.79.22.17.3.39.24.66-.07.28-.34.44-.8.5l-1.62-1.18a1.97 1.97 0 0 0-.76-.29l-.1.01a.17.17 0 0 0-.07.07c-.08.12-.2.15-.36.07l-2.55-1.31-.07-.44c.25.2.55.2.9.02a.37.37 0 0 1 .24-.04l.42.09a.5.5 0 0 0 .34-.07l1.1-.68c.2.09.34.21.44.36Z" fill="#A25D20"/><path d="m39.8 27.42-1.6 1.33a.18.18 0 0 1-.16.03.19.19 0 0 1-.13-.1.96.96 0 0 1-.08-.48.8.8 0 0 0 .65-.1.24.24 0 0 0 .09-.12.23.23 0 0 0 0-.14c-.06-.26-.18-.5-.34-.71a.1.1 0 0 1 .05-.16.1.1 0 0 1 .06 0l1.46.45Z" fill="#DA5D29"/><path d="m24.95 27.74-1.51.92a8.68 8.68 0 0 0-1.01.43c-.24.11-.42-.02-.57-.4l-.5-1.46c1.13.04 2.33.21 3.59.51Z" fill="#EB752F"/><path d="M18.05 27.5c.2.09.26.5.18 1.21.65.2 1.35.33 2.08.37.2.01.37.09.5.22l.02.06-.01.07a.12.12 0 0 1-.05.05.12.12 0 0 1-.07 0l-1.78-.23-1.7-.2a.1.1 0 0 1-.07-.05.1.1 0 0 1 0-.1l.9-1.4Z" fill="#F0A554"/><path d="m29.59 27.9.92 1.27a.11.11 0 0 1-.04.17.12.12 0 0 1-.07.01l-2.7-.1a.56.56 0 0 1-.23-.07c-.15-.06-.23-.11-.24-.14a4.71 4.71 0 0 0 2.13-1.15.27.27 0 0 0 .07-.15c.04.12.1.17.16.15Z" fill="#A25D20"/><path d="m36.99 29.45-1.76 1.73a.12.12 0 0 0-.03.05c-.08.24.28.56.37.85a15.21 15.21 0 0 1 .4 1.44.19.19 0 0 0 .14.07l.08-.01 1.23-.5a.2.2 0 0 1 .23.06.2.2 0 0 1 .04.07c.1.35.1.69.16 1.03.03.2-.05.37-.25.5l-4.24-.76a.9.9 0 0 0-.46.04l-1.14.41a.7.7 0 0 1-.08-.42c.15.08.3.12.43.1.03 0 .05 0 .06-.02a.1.1 0 0 0 .04-.12.1.1 0 0 0-.04-.05l-.48-.35a.14.14 0 0 1-.04-.17.14.14 0 0 1 .06-.07.15.15 0 0 1 .1-.01l.96.18a.13.13 0 0 0 .11-.03.12.12 0 0 0 .03-.12 1.07 1.07 0 0 0-.28-.46 4.28 4.28 0 0 1 .8-1.42.16.16 0 0 0-.04-.14.17.17 0 0 0-.06-.05l-2.47-1.2a.08.08 0 0 0-.09 0 .07.07 0 0 0-.02.08l.16.36c-.12.01-.19.06-.2.14-.14.81-.2 1.64-.18 2.49a.82.82 0 0 0-.13.46c0 .04 0 .08-.03.12a.23.23 0 0 1-.1.09.24.24 0 0 1-.25-.03c-.29-.23-.6-.34-.92-.32a.2.2 0 0 0-.2.2l-.04.86-.04-.11a.08.08 0 0 0-.03-.04.08.08 0 0 0-.1 0 .08.08 0 0 0-.02.03l-.06.12c-.04-.26-.13-.35-.27-.28a1.1 1.1 0 0 1-.6.14.07.07 0 0 0-.04.03v.03l-.04.49c0 .03-.01.05-.03.08a.14.14 0 0 1-.08.04c-.12.02-.26-.02-.4-.14.16-.3.27-.64.32-1.01a.22.22 0 0 1 .15-.2c.53-.16.94-.41 1.23-.73a.67.67 0 0 0 .16-.59.65.65 0 0 0-.38-.46c-1.4-.61-2.41-.19-3.05 1.27-.1-.05-.26 0-.5.17-.09-.42-.03-.81.18-1.17a.3.3 0 0 1 .2-.15l.75-.17a.43.43 0 0 0 .2-.1c.38-.34.7-.56.95-.65a.26.26 0 0 1 .26.05c.08.07.12.14.14.2 0 .04.03.08.06.11.04.03.08.06.12.07.34.07.61.04.82-.1a4.33 4.33 0 0 0 1.5-.7.25.25 0 0 0 .1-.22c-.03-.4.14-.7.51-.9l2.74-1.51a.36.36 0 0 1 .3-.02L37 29.45Z" fill="#96461D"/><path d="m24.23 28.44-.06 3.24c-.52-.3-1.1-.52-1.7-.64.46-.82.77-1.6.92-2.37h.05v.1c0 .02.01.03.03.05l.04.03a.1.1 0 0 0 .1-.02c.25-.24.46-.37.62-.39Z" fill="#542F0E"/><path d="m24.23 28.44.52.44c-.13 0-.22.05-.28.14a.12.12 0 0 0 0 .11l1.12 2.37-1.4.5-.02-.32.06-3.24Z" fill="#96461D"/><path d="m33.55 31.13.18-2.3a.2.2 0 0 1 .06-.13.22.22 0 0 1 .26-.04c.04.02.08.06.1.1l.9 2.15a.2.2 0 0 1-.08.24.22.22 0 0 1-.1.04l-1.07.16a.22.22 0 0 1-.18-.05.2.2 0 0 1-.07-.17ZM28.76 31.46c-.2.14-.48.17-.82.1a.25.25 0 0 1-.12-.07.23.23 0 0 1-.06-.11.45.45 0 0 0-.14-.2.25.25 0 0 0-.26-.05c-.25.1-.56.31-.94.65a.43.43 0 0 1-.2.1l-.76.17a.31.31 0 0 0-.2.15c-.2.36-.27.75-.18 1.17-.04.05-.12.07-.22.04a.25.25 0 0 1-.15-.1c-.2-.27-.38-.56-.54-.87-.1-.17-.09-.32.03-.45l1.39-.5 1.52-.53a.24.24 0 0 0 .1-.07.23.23 0 0 0-.05-.34l-2.28-1.56.55-.2a.29.29 0 0 1 .23.02l1.53.85c.06.04.14.06.21.06l2.72.18.04.02.03.04v.05l-.04.04-1.78 1a.16.16 0 0 0-.06.06.15.15 0 0 0 .01.16l.07.06.37.13Z" fill="#542F0E"/><path d="m24.88 29 2.28 1.55c.04.02.07.06.08.1a.23.23 0 0 1-.03.24.24.24 0 0 1-.1.07l-1.52.54-1.13-2.37a.12.12 0 0 1 0-.11c.07-.09.16-.13.29-.14.05.02.1.06.13.11Z" fill="#DA5D29"/><path d="M40.15 29.06c-.07-.04-.06-.01 0 .08.02.33-.2.6-.63.8a.22.22 0 0 1-.22-.03.2.2 0 0 1-.07-.2c.07-.36.38-.57.92-.65Z" fill="#EB752F"/><path d="M21.86 29.17c.01 0 .03 0 .04.02a.08.08 0 0 1 .03.08c0 .01 0 .03-.02.04l-.18.2h-.01c-.28-.02-.52-.1-.73-.21a.1.1 0 0 1-.04-.05.1.1 0 0 1 0-.06.1.1 0 0 1 .04-.05.1.1 0 0 1 .06-.02l.8.05Z" fill="#542F0E"/><path d="M39.6 30.3a.54.54 0 0 0-.18.14.11.11 0 0 0 .07.18c.52.15.63.67.38 1.06-.07.11-.16.16-.27.14a.4.4 0 0 0-.2.01.2.2 0 0 0-.1.09.14.14 0 0 0 0 .12l.2.54c-.2-.12-.45-.16-.78-.13-.26.03-.4.16-.43.37-.09-.22-.19-.43-.3-.63-.04-.07-.06-.12-.04-.14l.14-.23a.23.23 0 0 0 .03-.12l-.07-1.9-.07-.68 1.62 1.17Z" fill="#96461D"/><path d="m38.05 29.8.07 1.9c0 .04-.01.09-.03.12l-.14.23c-.02.02 0 .07.04.14.11.2.21.4.3.63l.93 1.27c-.31.4-.86.62-1.62.66.2-.13.28-.3.25-.5-.06-.35-.07-.7-.16-1.04a.2.2 0 0 0-.1-.12.2.2 0 0 0-.17 0l-1.23.49a.19.19 0 0 1-.25-.14c-.05-.26-.17-.71-.37-1.36-.1-.29-.45-.61-.37-.85 0-.02.01-.03.03-.05l1.76-1.73 1.06.35Z" fill="#542F0E"/><path d="m20.17 30.26 1.09-.36a.33.33 0 0 1 .34.09c.07.07.1.2.1.37a.14.14 0 0 1-.04.1.15.15 0 0 1-.1.04l-1.37-.09c-.02 0-.04 0-.06-.02a.08.08 0 0 1-.01-.1.08.08 0 0 1 .05-.03Z" fill="#100804"/><path d="m32.63 32.89-.4-.16c.1-.02.11-.11.02-.26-.43-.67-.87-1.32-1.34-1.95l-.15-.36a.07.07 0 0 1 .01-.08.07.07 0 0 1 .09 0l2.48 1.2a.17.17 0 0 1 .08.11.16.16 0 0 1-.03.14c-.33.4-.58.85-.76 1.36Z" fill="#542F0E"/><path d="M30.9 30.52a31 31 0 0 1 1.35 1.95c.1.15.09.24-.02.26l-1.7.42c-.02-.85.04-1.68.18-2.49.01-.08.08-.13.2-.14Z" fill="#A25D20"/><path d="m27.14 34.92-2.02-.97a.17.17 0 0 1-.1-.13.17.17 0 0 1 .05-.15l.5-.47c.65-1.46 1.66-1.88 3.06-1.27a.67.67 0 0 1 .38.46.65.65 0 0 1-.16.59c-.29.32-.7.57-1.23.74a.23.23 0 0 0-.1.07.22.22 0 0 0-.05.12c-.05.37-.16.7-.33 1.01Z" fill="#EC8835"/><path d="M27.71 32.99c.24-.05.4-.23.37-.41-.04-.18-.26-.28-.5-.23-.24.05-.4.23-.37.4.04.18.26.29.5.24Z" fill="#F8E4D1"/><path d="M39.5 32.58c.07.45-.02.95-.28 1.5l-.93-1.26c.03-.21.17-.34.43-.37.33-.03.59 0 .78.13Z" fill="#A25D20"/><path d="m32.23 32.73.4.16c.14.14.24.3.28.46a.12.12 0 0 1-.03.12.13.13 0 0 1-.11.03l-.97-.18-.09.01a.14.14 0 0 0-.06.07.14.14 0 0 0 .04.17l.48.35a.1.1 0 0 1 .04.05.1.1 0 0 1-.03.12.11.11 0 0 1-.07.02.73.73 0 0 1-.43-.1l-.1-.07a.28.28 0 0 0-.29-.02c-.3.15-.63.2-.97.15a.34.34 0 0 0-.3.1c-.1.12-.2.26-.26.43a.33.33 0 0 1-.09.12.34.34 0 0 1-.14.07l-.65.2-.02-.46.04-.86c0-.05.02-.1.06-.14a.21.21 0 0 1 .14-.06c.33-.02.63.09.92.32a.24.24 0 0 0 .26.03.23.23 0 0 0 .1-.09.21.21 0 0 0 .02-.12c0-.16.04-.31.13-.46l1.7-.42Z" fill="#100804"/><path d="M31.68 34a.7.7 0 0 0 .08.43c-.07-.01-.15.01-.22.08a.12.12 0 0 0-.04.06l-.33 1.61a.1.1 0 0 1-.02.04.1.1 0 0 1-.03.03.1.1 0 0 1-.1 0l-1.68-.95a.18.18 0 0 0-.1-.02.7.7 0 0 1-.36-.06v-.23l.65-.2a.34.34 0 0 0 .23-.2c.06-.16.15-.3.26-.41a.33.33 0 0 1 .3-.1c.34.04.67 0 .97-.16a.27.27 0 0 1 .3.02l.09.07Z" fill="#542F0E"/><path d="m28.86 34.53.02.46v.23c-.04.1-.1.15-.17.16l-.12-.01a.16.16 0 0 1-.12-.13l-.02-.13.16-.58.06-.12c0-.01.01-.03.03-.03a.08.08 0 0 1 .09 0l.03.04.04.1Z" fill="#F0A554"/><path d="M26.94 35.66c.27.4.26.81-.01 1.23.02-.11.03-.2.02-.27a.12.12 0 0 0-.07-.1.13.13 0 0 0-.11 0c-.44.2-.7.52-.77.95-.4-.02-.73.07-1.02.27a.19.19 0 0 1-.22 0 .18.18 0 0 1-.06-.1.17.17 0 0 1 0-.1c.19-.52.16-.94-.09-1.28a.14.14 0 0 1-.02-.13l.04-.06a.15.15 0 0 1 .06-.03l.12-.03c.06-.01.1-.04.14-.08a.24.24 0 0 0 .06-.14l.09-1.23c0-.03 0-.05.02-.07a.13.13 0 0 1 .19-.03l1.63 1.2Z" fill="#EB752F"/><path d="m28.45 35.1.02.14c0 .03.01.06.04.08.02.03.05.04.08.05l.12.01-.82.58a.17.17 0 0 0 0 .28l.17.13a.15.15 0 0 1 .06.14c0 .03-.01.06-.03.08a.16.16 0 0 1-.07.05l-1.16.4.07-.15c.27-.42.28-.83 0-1.23l1.52-.55Z" fill="#96461D"/><path d="M29.59 36.43c.07.06-.1.35-.52.86-.07.1-.16.1-.26 0-.1-.08-.12-.17-.04-.25.48-.47.75-.67.82-.61Z" fill="#A25D20"/><path d="m26.93 36.89-.07.14c-.28.2-.32.48-.12.82.2.27.31.56.36.89.01.08.05.16.12.21.6.57.67.88.2.92-.1-.43-.25-.63-.47-.6l-.22-.02.1-.09a.15.15 0 0 0 .03-.2c-.2-.29-.5-.4-.9-.35a.24.24 0 0 0-.16.1l-.19.24a.19.19 0 0 1-.25.03l-.48-.35a.12.12 0 0 1-.05-.11c0-.03.02-.05.03-.06a.12.12 0 0 1 .06-.03c.51-.13.87-.45 1.08-.96.07-.43.33-.74.77-.94a.13.13 0 0 1 .16.04l.02.05c.01.07 0 .16-.02.27Z" fill="#F8E4D1"/><path d="m24.31 38.94-.22 1.05-.01.03-.03.02c-.11.07-.26 0-.43-.22a.3.3 0 0 0-.36-.09l-1.25.5a.06.06 0 0 0-.03.07l.01.03.04.02.8.09c.17.34.4.63.7.86.06.06.15.09.24.1H24.35l.02.04v.04c-.01.02-.02.03-.04.03l-.12.05a.2.2 0 0 0-.08.06.2.2 0 0 0-.04.1c-.02.14.03.27.13.4-.09.03-.17 0-.26-.08a.24.24 0 0 0-.2-.05l-2.02.5c0-.15-.01-.25-.05-.3-.13-.12-.27-.14-.44-.05.02-.08 0-.12-.08-.14a.46.46 0 0 0-.26.02l-1.29-.19a.14.14 0 0 1-.06-.03.13.13 0 0 1-.02-.18l2.14-2.75a.1.1 0 0 1 .14-.01.1.1 0 0 1 .03.05c.05.19.14.36.3.52l-.02.3a.13.13 0 0 0 .06.12.14.14 0 0 0 .13.01l.86-.35a.18.18 0 0 0 .1-.11.17.17 0 0 0-.02-.16l-.69-.93c-.06-.25.05-.5.32-.76a.24.24 0 0 1 .18-.07c.24.02.62-.16 1.13-.52a.1.1 0 0 1 .1 0 .1.1 0 0 1 .05.03.1.1 0 0 1 .01.05l-.05 1.9Z" fill="#EB752F"/><path d="M28.48 37.95c-.06.21-.06.34 0 .38-.14.4-.18.81-.1 1.2l-.22 1.95a.84.84 0 0 1-.25.25.13.13 0 0 1-.16-.04.12.12 0 0 1-.02-.05l-.32-1.77c.48-.04.41-.35-.2-.92a.37.37 0 0 1-.11-.21 1.98 1.98 0 0 0-.36-.89l1.54-.28a.18.18 0 0 1 .2.08l.02.07c0 .07 0 .14-.02.23Z" fill="#DA5D29"/><path d="M28.48 37.95c0 .03.02.06.03.08.01.04.03.06.06.08.04.02.07.02.1.02a5.45 5.45 0 0 1 1.74.02c-.76-.03-.92.4-1.08.98l-.85-.8c-.06-.04-.06-.17 0-.38Z" fill="#542F0E"/><path d="m30.41 38.15-.57 1.26a.12.12 0 0 1-.08.06.13.13 0 0 1-.1-.01 1.22 1.22 0 0 1-.33-.33c.16-.58.32-1.01 1.08-.98Z" fill="#A25D20"/><path d="m22.57 38.31.7.93a.18.18 0 0 1 .02.16l-.04.07a.18.18 0 0 1-.07.04l-.86.35a.14.14 0 0 1-.13-.01.13.13 0 0 1-.06-.12l.01-.3.43-1.12ZM26.73 39.25l.22.02c-.27.33-.6.51-.98.53a.13.13 0 0 0-.1.05.12.12 0 0 0-.01.1l.51 2.2a2.27 2.27 0 0 1-.66-.35.15.15 0 0 0-.2.02c-.11.12-.16.2-.16.26.01-.6-.35-1.15-1.1-1.66a.38.38 0 0 0-.24-.06l-1.19.08-.8-.09s-.02 0-.03-.02a.06.06 0 0 1-.01-.07l.03-.02 1.25-.51a.3.3 0 0 1 .36.09c.17.22.32.29.43.22l.03-.02v-.03l.23-1.05.6.62c.04.03.07.05.11.06h.13l1.58-.37Z" fill="#F0AA92"/><path d="m28.16 41.48.23-1.95.97.38c.07.02.13.07.18.13a.4.4 0 0 1 .05.4.4.4 0 0 1-.14.17l-1.29.87Z" fill="#96461D"/><path d="m25.35 42.08-.1.8c-.02.15-.07.19-.14.14a5.58 5.58 0 0 1-.89-.9.56.56 0 0 1-.13-.4.2.2 0 0 1 .04-.1.2.2 0 0 1 .08-.06l.12-.05c.02 0 .03-.01.04-.03a.06.06 0 0 0-.02-.08.07.07 0 0 0-.04 0h-.54a.39.39 0 0 1-.25-.1 2.75 2.75 0 0 1-.7-.86l1.19-.08c.08-.01.17.01.24.06.75.51 1.11 1.07 1.1 1.66Z" fill="#100804"/><path d="m29.3 42.42-.9-.66a.11.11 0 0 1-.04-.1l.01-.05a.11.11 0 0 1 .04-.03l.86-.48a.1.1 0 0 1 .15.05.1.1 0 0 1 0 .06c-.07.32-.06.7.04 1.11a.1.1 0 0 1-.05.1.1.1 0 0 1-.11 0Z" fill="#DA5D29"/><path d="m26.37 42.15.74.8a.08.08 0 0 1 .02.08l-.03.03a.08.08 0 0 1-.04.02l-1.55.02c-.08.03-.14.02-.2-.03-.04-.05-.06-.1-.05-.18l.1-.8c-.01-.06.04-.15.15-.27a.15.15 0 0 1 .2-.02c.22.16.44.28.66.35Z" fill="#F8E4D1"/><path d="M24.22 42.13c.26.33.56.62.9.89.06.05.1 0 .14-.13 0 .07.01.13.06.18.05.05.11.06.2.03l-3.97.55h-.05a.12.12 0 0 1-.04-.03.1.1 0 0 1-.03-.09c.03-.36.14-.7.32-1.05l2-.48a.24.24 0 0 1 .2.04c.1.08.19.11.27.09Z" fill="#EC8835"/><path d="m21.25 42.14-.95 2.77c0 .02-.02.03-.04.04a.08.08 0 0 1-.1-.02.07.07 0 0 1 0-.05l.16-2.36a.22.22 0 0 1 .1-.17l.49-.33a.46.46 0 0 1 .26-.02c.07.02.1.06.08.14Z" fill="#F8E4D1"/><path d="M19.5 44.98c-.13-.28-.35-.99-.66-2.13a.25.25 0 0 0-.08-.12.27.27 0 0 0-.15-.06l-1.92-.13c-.02 0-.03 0-.04-.02a.06.06 0 0 1 .03-.1l2.89-.33a.18.18 0 0 1 .15.04.17.17 0 0 1 .05.14l-.19 2.7-.01.02a.04.04 0 0 1-.07-.01Z" fill="#EB752F"/><defs><linearGradient id="a" x1="10.42" y1="9.71" x2="68.15" y2="76.02" gradientUnits="userSpaceOnUse"><stop stop-color="#1A1E21"/><stop offset="1" stop-color="#06060A"/></linearGradient></defs></svg>