<svg width="112" height="112" viewBox="0 0 56 56" xmlns="http://www.w3.org/2000/svg"><rect fill="#FFE476" width="56" height="56" rx="28"/><path d="M23.5 22c1.93 0 3.5-2.01 3.5-4.5S25.43 13 23.5 13 20 15.01 20 17.5s1.57 4.5 3.5 4.5ZM21 24.5c0 2.49-1.57 4.5-3.5 4.5S14 26.99 14 24.5s1.57-4.5 3.5-4.5 3.5 2.01 3.5 4.5Zm7.06 17.57c-.93 0-1.96.22-3.02.44-2.25.47-4.68.98-6.82-.44a5.5 5.5 0 0 1-2.15-5.4c.34-2.54 2.16-4.18 3.98-5.83.94-.84 1.88-1.7 2.61-2.66 1.68-2.22 3.21-4.18 5.4-4.18 2.13 0 3.4 1.67 4.9 3.68l.38.5c.73.97 1.67 1.82 2.61 2.66 1.82 1.65 3.64 3.29 3.98 5.82a5.5 5.5 0 0 1-2.15 5.41c-2.14 1.42-4.5.91-6.72.44a14.95 14.95 0 0 0-3-.44ZM35 24.5c0 2.49 1.57 4.5 3.5 4.5s3.5-2.01 3.5-4.5-1.57-4.5-3.5-4.5-3.5 2.01-3.5 4.5ZM32.5 22c-1.93 0-3.5-2.01-3.5-4.5s1.57-4.5 3.5-4.5 3.5 2.01 3.5 4.5-1.57 4.5-3.5 4.5Z" fill="#EEC43C"/></svg>