<svg width="112" height="112" viewBox="0 0 56 56" xmlns="http://www.w3.org/2000/svg"><rect fill="#146AFF" width="56" height="56" rx="28"/><path d="M28.9 21c-5.16-.04-10.21-.05-15.15-.01a.74.74 0 0 1-.6-.26.66.66 0 0 1-.15-.43c0-.16.06-.31.15-.42 1.43-1.63 3.31-3.81 5.65-6.54.1-.1.2-.2.33-.25a.9.9 0 0 1 .39-.09h9.31c.05 0 .1.02.12.06a.2.2 0 0 1 .05.13v7.7a.12.12 0 0 1-.03.08.1.1 0 0 1-.07.03ZM32.2 13.04l3.77 3.89a.11.11 0 0 1 0 .15l-3.79 3.89a.1.1 0 0 1-.16-.02.11.11 0 0 1-.02-.06l.01-7.78c0-.02 0-.04.02-.06a.1.1 0 0 1 .11-.05.1.1 0 0 1 .06.04Z" fill="#D5E4FF"/><path d="m46.98 27.94-4.42-4.47a.08.08 0 0 0-.12 0l-4.42 4.47a.08.08 0 0 0 0 .12l4.42 4.47c.03.04.09.04.12 0l4.42-4.47a.08.08 0 0 0 0-.12Z" fill="#AAC9FF"/><path d="m32.19 24.03 3.78 3.9a.1.1 0 0 1 .03.08.1.1 0 0 1-.03.07l-3.8 3.89a.1.1 0 0 1-.17-.08l.01-7.79a.1.1 0 0 1 .07-.1.1.1 0 0 1 .1.03ZM28.9 24a.1.1 0 0 1 .07.03c.02.02.03.05.03.08v7.7a.2.2 0 0 1-.05.14.16.16 0 0 1-.12.05h-9.31a.9.9 0 0 1-.4-.1 1.01 1.01 0 0 1-.32-.24c-2.34-2.73-4.22-4.91-5.65-6.55a.66.66 0 0 1-.15-.42c0-.16.05-.31.15-.43a.74.74 0 0 1 .6-.26c4.94.04 9.99.04 15.15 0Z" fill="#fff"/><path d="M28.9 43c-5.16-.04-10.21-.04-15.14 0a.74.74 0 0 1-.6-.26.66.66 0 0 1-.16-.43c0-.16.06-.32.15-.43 1.43-1.63 3.31-3.81 5.65-6.54.1-.1.2-.2.33-.25a.9.9 0 0 1 .39-.09h9.31c.05 0 .1.02.12.05a.2.2 0 0 1 .05.14v7.7c0 .03-.01.06-.03.08a.1.1 0 0 1-.07.03ZM32.2 35.04l3.77 3.87a.12.12 0 0 1 0 .17l-3.76 3.88a.12.12 0 0 1-.13.03.12.12 0 0 1-.05-.04.12.12 0 0 1-.02-.07L32 35.12c0-.03 0-.05.02-.07a.11.11 0 0 1 .18-.02Z" fill="#D5E4FF"/></svg>