<svg width="112" height="112" viewBox="0 0 56 56" xmlns="http://www.w3.org/2000/svg"><rect fill="#F0F3FA" width="56" height="56" rx="28"/><path d="M22 10.74a24.74 24.74 0 0 1 12 0V22H22V10.74ZM45.26 22a24.74 24.74 0 0 1 0 12H34V22h11.26ZM34 45.26a24.74 24.74 0 0 1-12 0V34h12v11.26ZM10.74 34a24.74 24.74 0 0 1 0-12H22v12H10.74Z" fill="#0278FE"/><path d="m25 19 3-6 3 6h-6Z" fill="#5DCBFE"/><path fill="#0378FB" d="M26 26h8v1h-8zM26 29h8v1h-8z"/><path fill="#5DCBFE" d="M13 25h6v6h-6z"/><circle cx="40" cy="28" r="3" fill="#5DCBFE"/><path fill="#5DCBFE" d="M29.29 37 31 38.71 26.71 43l-1.7-1.71z"/><path fill="#5DCBFE" d="M31 41.28 29.29 43 25 38.71 26.71 37z"/></svg>