<svg width="112" height="112" viewBox="0 0 56 56" xmlns="http://www.w3.org/2000/svg"><rect fill="url(#a)" width="56" height="56" rx="28"/><path d="M44.4 32.29c-.53-1.05-1.2-2.45-2.02-4.2a4.97 4.97 0 0 0-1.08-1.49c.01-.43-.01-.7-.07-.8a17.72 17.72 0 0 1-1.39-3.38c-.02-.17-.08-.28-.15-.35-.2-1.01-.56-2-1.07-2.95l-.93-1.34-.36-.42c.17-.1.33-.24.46-.45.54.28.98.6 1.33.97a.13.13 0 0 0 .15.02.13.13 0 0 0 .08-.14c-.02-.15-.07-.24-.15-.28-.4-.18-.85-.5-1.4-.93-.37-.3-.92-.46-1.08-.8a.34.34 0 0 0-.2-.2l-.78-.26c-.15-.03-.29-.07-.4-.15-.47-.24-1-.38-1.62-.42a.44.44 0 0 0-.08-.16 1.26 1.26 0 0 0-.36-1.49c-.28-.18-.55-.37-.8-.56a.55.55 0 0 0-.44-.1l-.03.02a.06.06 0 0 0 0 .07l.02.03c.55.21.87.56.96 1.02.02.08.06.16.12.22.17.17.26.3.26.36a.1.1 0 0 1-.06.1.1.1 0 0 1-.12-.02c-.45-.38-.77-.8-.96-1.25a.1.1 0 0 0-.17-.03.1.1 0 0 0-.02.07l.04.1a.07.07 0 0 1 0 .08.07.07 0 0 1-.08.02l-.34-.13c-.14-.1-.24-.21-.3-.33a.38.38 0 0 0-.2-.17 6.28 6.28 0 0 0-3.18-.39c-.63.1-.98.08-1.06-.05a.17.17 0 0 0-.27-.02c-.1.1-.6.23-1.5.4-.44.1-.87.37-1.26.83-.76-.06-1.37-.17-1.72.49l-.1.23-.06.17a.14.14 0 0 1-.06.07.13.13 0 0 1-.1.01c-.13-.02-.27.05-.4.22l-1.1 1.02-2.18 1.9-1.42 1.03a.54.54 0 0 0-.22.35c-.06.4-.21.77-.45 1.14a.13.13 0 0 0 0 .14c0 .03.02.05.03.08l-.26.08c-.07-.04-.12-.04-.15-.01a9.43 9.43 0 0 0-1.38 1.63v1.14a.1.1 0 0 0 .18.03c.21-.74-.2-1.1.67-1.76l.6 1.58a.18.18 0 0 0 .35-.05c.06-.52.02-1.03-.1-1.54a.38.38 0 0 1 .02-.24l.07-.18c.1 0 .16.04.2.1.06.09.08.1.07.04l.56 1.62a.3.3 0 0 1-.03.27c-.1.17-.14.31-.11.42.12.41.15.72.1.93-.7-.34-1.2-.02-1.5.96a.3.3 0 0 0 .05.27c.24.3.54.46.92.5-.07.22-.19.36-.34.42-.09.03-.17.01-.23-.06a.53.53 0 0 0-.22-.17c-.11-.04-.18.02-.2.17-.01.1.02.18.1.27v.05l-.85-.46a.23.23 0 0 0-.31.1c-.68 1.38-1.85 3.4-3.12 4.28a16.98 16.98 0 0 1 30.19-13.02c3.1 4.01 4.5 9.61 3.02 14.73Z" fill="#D8D6D6"/><path d="M33.64 14.56a.97.97 0 0 0-.26-.22.17.17 0 0 0-.2.04.17.17 0 0 0-.04.06l-.47 1.88a.04.04 0 0 1-.08 0c-.07-.47-.3-1-.66-1.6a.2.2 0 0 0-.26-.08c-.26.1-.4.32-.45.63a.06.06 0 0 1-.1.02 1.5 1.5 0 0 1-.08-.48.23.23 0 0 0-.4-.15l-.2.2a.15.15 0 0 1-.24-.07l-.3-1.05c.18-.25.37-.42.57-.51a.2.2 0 0 1 .21.03c.25.23.37.47.38.72a.09.09 0 0 0 .06.08h.06c.01-.02.03-.03.03-.05l.45-.94.34.13a.07.07 0 0 0 .07-.02.07.07 0 0 0 .01-.08l-.04-.1a.1.1 0 0 1 .19-.04 3.33 3.33 0 0 0 1.02 1.27.1.1 0 0 0 .06 0 .1.1 0 0 0 .06-.1c0-.07-.09-.19-.26-.36a.45.45 0 0 1-.12-.22c-.1-.46-.41-.8-.96-1.02a.06.06 0 0 1-.04-.06.06.06 0 0 1 .05-.06c.17-.02.31.01.44.1.25.2.52.38.8.56a1.26 1.26 0 0 1 .36 1.5ZM28.78 13.5c.07.35-.02.5-.28.47-.51-.07-1-.06-1.48.03a.16.16 0 0 0-.12.11.16.16 0 0 0 .04.16c.42.4.87.54 1.35.4-.05.82.47 1.33 1.56 1.53.08.02.15.06.2.13l.14.2.11.1.14.02c.28-.02.5.06.64.24-.21 0-.3.02-.26.08a6.45 6.45 0 0 0-3.7-.3c-.2 0-.35-.01-.45-.06a.35.35 0 0 0-.02-.04 4.92 4.92 0 0 0 1.72-.66.15.15 0 0 0 .02-.13 3.38 3.38 0 0 0-1.32-.87.62.62 0 0 1-.23-.14l-.66-.64c-.38-.34-1.27-.15-1.75-.07a.06.06 0 0 1-.07-.07l.02-.04.25-.24a.14.14 0 0 1 .08-.04l3-.3a.05.05 0 0 0 .03-.07c0-.01 0-.02-.02-.03a2.68 2.68 0 0 0-.53-.32.06.06 0 0 1 0-.07h.04c.55-.1 1.08.42 1.55.63Z" fill="#4B3C33"/><path d="M29.46 13.8a3.53 3.53 0 0 1 .36 1.29l-.03.02-.08.02a.1.1 0 0 1-.1-.03.1.1 0 0 1-.02-.04c-.07-.27-.19-.47-.35-.62a.1.1 0 0 0-.13 0 .1.1 0 0 0-.03.03v.09a.1.1 0 0 1-.1.1l-.69.01c-.48.14-.93 0-1.35-.4a.16.16 0 0 1-.04-.16c0-.03.02-.05.04-.07a.16.16 0 0 1 .08-.04c.47-.09.97-.1 1.48-.03.25.03.35-.12.28-.46.31-.08.54.02.68.3Z" fill="#44444A"/><path d="m22.07 14.06.26.33a.27.27 0 0 0 .24.1l3.61-.36.66.64c.06.06.14.11.23.14a3.38 3.38 0 0 1 1.32.87.14.14 0 0 1-.02.13 4.92 4.92 0 0 1-1.72.66c-2.2-.1-3.73.83-4.57 2.81l.01-.26a.47.47 0 0 0-.5-.07.45.45 0 0 0-.15.11c-1.57 1.82-1.56 3.5-1.28 5.73a.43.43 0 0 0 .34.37h.01a.2.2 0 0 0 .1 0l.09-.05a.26.26 0 0 0 .09-.18l.07-1.33.02 2.25-.68-.5h-.05a.06.06 0 0 0-.04.04l-.04.16v.08c0 .03.02.06.04.08.64.79.07 2.5-.36 3.62a4.7 4.7 0 0 0 .06 3.48c.02.05.04.1.04.15.07.36.2.65.39.88a.11.11 0 0 0 .1.04.11.11 0 0 0 .1-.08c.04-.23-.04-.48-.25-.77a.09.09 0 0 1 0-.09l.03-.03h.04c.2.02.32.01.37-.04a.33.33 0 0 1 .45-.04 4.07 4.07 0 0 1 1.7 3.23c.02.9-.1 1.92-.35 3.08a.65.65 0 0 1-.12.25l-.88 1.15-1.65.69-.04-.07v-.06l.04-.03a4.22 4.22 0 0 0 2.2-2.17.15.15 0 0 0-.05-.17.15.15 0 0 0-.18 0l-1.52 1.09a.13.13 0 0 1-.18-.03l-.06-.1a.06.06 0 0 1-.01-.03l.01-.03 1.13-1.12a.25.25 0 0 0 .07-.22.26.26 0 0 0-.12-.18c-1.32-.76-1.65-1.87-2.34-3.17a3.91 3.91 0 0 1 .3-2.3.08.08 0 0 1 .12.04c0 .03-.01.12-.06.28-.01.03.03.18.13.43.23.62.4 1.17.48 1.62.02.12.07.24.15.32.08.08.18.12.28.11.05 0 .19.09.4.28a.2.2 0 0 0 .29-.26 1.72 1.72 0 0 0-.34-.4c-.22-.17-.4-.37-.52-.6a1.1 1.1 0 0 1-.14-.63c.01-.1-.03-.23-.14-.36a.53.53 0 0 1-.11-.27 4.73 4.73 0 0 0-.62-1.88.2.2 0 0 0-.18-.01.19.19 0 0 0-.08.05l-.55.7-.13.09c.03-.15 0-.26-.08-.33-.1-.08-.2-.08-.33 0-.18.12-.4.32-.66.6a.11.11 0 0 1-.14.03.12.12 0 0 1-.06-.13c.03-.17.19-.4.46-.7.05-.05.13-.09.2-.1.37-.02.64-.23.8-.64l.71-1.68a.5.5 0 0 0 .04-.19l.08-2.67c.38.34.56.77.52 1.3a.07.07 0 0 0 .07.08.09.09 0 0 0 .1-.08c.06-.75.09-1.46.06-2.15a.2.2 0 0 0-.12-.17.19.19 0 0 0-.21.05c-.06.07-.11.1-.16.09a.09.09 0 0 1-.06-.07c-.08-.41-.22-.76-.41-1.06-.21-1.2-.33-2.16-.37-2.88a4.6 4.6 0 0 1 1.36-3.48l-.63 2.07a.1.1 0 0 0 .05.13.1.1 0 0 0 .1-.03l.03-.03 1.61-3.55 1.29-1.53a.15.15 0 0 0 .03-.11.14.14 0 0 0-.05-.1c-.2-.16-.47-.29-.8-.39.14-.17.28-.24.42-.22.03.01.06 0 .09-.01a.14.14 0 0 0 .06-.07l.06-.17Z" fill="#2A2120"/><path d="M35.33 15.14c-.27.26-.64.36-1.1.29-.23-.16-.4-.4-.5-.71.6.04 1.14.18 1.6.42Z" fill="#838383"/><path d="M22.5 15.64c.03-.19.24-.33.64-.43.3-.06.84-.16 1.64-.29a1 1 0 0 1 .36.01 4.77 4.77 0 0 1 1.7.8.05.05 0 0 1-.03.05l-.24.17a.02.02 0 0 1-.02 0l-1.04-.71a.25.25 0 0 0-.28 0l-.07.05a.68.68 0 0 1-.55.11c-.58-.12-1.22 0-1.94.37a.12.12 0 0 1-.17-.13ZM35.33 15.14c.12.07.26.12.41.15-.17.07-.23.17-.19.3l.05.05 2.19 1.27c-.13.2-.29.36-.46.45a1.7 1.7 0 0 1-.65-.38.15.15 0 0 0-.1-.04.15.15 0 0 0-.11.04c-.16.16-.33.2-.52.1a3.81 3.81 0 0 1-1.71-1.65c.45.07.82-.03 1.1-.29Z" fill="#44444A"/><path d="m35.74 15.3.78.25a.35.35 0 0 1 .2.2c.16.34.71.5 1.09.8.54.44 1 .75 1.39.93.08.04.13.13.15.28a.13.13 0 0 1-.16.15.13.13 0 0 1-.07-.03 4.9 4.9 0 0 0-1.33-.97l-2.19-1.27a.12.12 0 0 1-.05-.06c-.04-.12.02-.22.2-.29Z" fill="#4B3C33"/><path d="M20.35 15.55c.08.11.13.21.15.31.02.1-.02.2-.12.29a4.54 4.54 0 0 1-2.2 1.3l2.17-1.9Z" fill="#917261"/><path d="M30.82 16.97c.63.35 1.05.6 1.26.78.38.31.65.78.8 1.4-.33 1.06-.15 1.79.56 2.19.61.44.9 1.44.84 3-.46.62-.98 1.22-1.58 1.81-.27.27-.53.4-.8.4a.12.12 0 0 0-.07.22c.37.29.75.3 1.12.05a.16.16 0 0 1 .15-.01.16.16 0 0 1 .1.13c.04.4-.08.74-.35 1.01-.88.87-1.77.94-2.67.2-.12-.1-.27-.16-.42-.2l-1.33-.31 1.73 2.16c.7.54 1.53.72 2.48.53a.15.15 0 0 1 .16.06l.02.08c0 .03 0 .06-.02.09-.3.53-.75.98-1.33 1.34-.5.32-.57 1.17-.91 1.66-.78 1.11-2.28 1.68-3.51.71a.37.37 0 0 1-.02-.57l.55-.5a6.59 6.59 0 0 0 1.82-1.9c.3-.2.64-.25 1.02-.16h.06a.07.07 0 0 0 .03-.05l.03-.12a.07.07 0 0 0-.01-.05.07.07 0 0 0-.05-.03l-4.84-.26c-.16.1-.28.07-.34-.07a.14.14 0 0 1-.01-.1.15.15 0 0 1 .07-.1l1.72-.87a.27.27 0 0 0 .12-.1c.15-.25.43-.4.85-.42l.2-.04a.09.09 0 0 0 0-.17.55.55 0 0 1-.28-.17.42.42 0 0 0-.7.07c-.13.19-.32.23-.54.12l-.61-.62a.36.36 0 0 1-.1-.25c0-.35.06-.68.19-.98.21-.79.21-1.65-.02-2.58a.95.95 0 0 1 0-.44l.23-.88a.19.19 0 0 0-.14-.23c-1.02-.27-1.87-.52-1.52-1.82.17-.66.24-1.33.2-2.01-.01-.32.02-.58.1-.77.14-.37.27-.6.38-.66.5-.28 1.05-.57 1.68-.88a6.45 6.45 0 0 1 3.7.31Z" fill="#F6F6F5"/><path d="m26.65 16.57.02.04-2.53.9a.15.15 0 0 0-.08.07c-.03.06-.03.1 0 .11-.17-.07-.3-.07-.36 0-.27.3-.55.56-.84.78a.52.52 0 0 0-.17.23c-.47 1.27-1.1 2.66-.73 4.07l-.48.14a.15.15 0 0 1-.19-.1c-.1-.25-.13-.51-.12-.8.1-.97.4-1.85.91-2.63.84-1.98 2.37-2.91 4.57-2.8Z" fill="#917261"/><path d="M26.67 16.6c.1.06.25.08.45.06-.63.3-1.18.6-1.68.88-.11.07-.24.29-.39.66-.07.19-.1.45-.08.77.03.68-.04 1.35-.21 2-.35 1.3.5 1.56 1.52 1.83a.19.19 0 0 1 .14.23l-.22.88a.95.95 0 0 0 0 .44c.22.93.22 1.8 0 2.58l-.27-2.37c-.52-1.05-1.47-1.69-2.86-1.9.27-.38.49-.78.65-1.2.59-1.47-1.03-2.52.35-3.77-.04-.01-.04-.05-.01-.11a.15.15 0 0 1 .08-.07l2.53-.9Z" fill="#E7D9C7"/><path d="m20.97 16.66-1.61 3.55a.1.1 0 0 1-.05.05.1.1 0 0 1-.13-.04.1.1 0 0 1 0-.08l.63-2.07 1.16-1.4Z" fill="#4B3C33"/><path d="M31.08 16.89c1.06.03 1.03.64 1.8 1.05l.55 1.5-.55-.3a2.53 2.53 0 0 0-.8-1.39 9.44 9.44 0 0 0-1.26-.78c-.04-.06.05-.08.26-.08Z" fill="#917261"/><path d="M34.97 19.45a.89.89 0 0 1-.5-.73.5.5 0 0 0-.09-.24l-.57-.81.57-.62a.44.44 0 0 1 .71.11c.08.16.2.32.36.48a.16.16 0 0 1 .01.2.16.16 0 0 1-.2.05 5.82 5.82 0 0 1-.14-.04.09.09 0 0 0-.04.13l.91 1.27a.1.1 0 0 1-.07.16l-.95.04ZM37.69 17.78l.93 1.34c-.25.07-.55-.01-.68-.25a2.95 2.95 0 0 0-1.36-1.13c-.17-.07-.26-.17-.28-.3v-.1l.04-.08a.17.17 0 0 1 .06-.06.13.13 0 0 1 .08 0c.03 0 .08.02.15.07.06.04.1.07.13.11.27.4.58.53.93.4Z" fill="#44444A"/><path d="M24.07 17.7c-1.38 1.24.24 2.29-.35 3.76-.16.42-.38.82-.65 1.2l-1.11.11c-.37-1.41.26-2.8.73-4.07.04-.1.1-.17.17-.23.3-.22.57-.48.84-.79.06-.06.19-.06.37.01Z" fill="#D5B9A4"/><path d="M17.3 19.54c-.24-.09-.22-.31.06-.67.1-.15.05-.25-.16-.32.18-.24.4-.43.65-.56a.7.7 0 0 1 .45-.05c.16.02.23.1.2.22v.04l-.04.02-.33.2a.51.51 0 0 0-.22.27c-.12.35-.32.63-.6.84Z" fill="#44444A"/><path d="M17.2 18.55c.21.07.27.17.16.32-.28.36-.3.58-.06.66l-.04.7a.16.16 0 0 1-.15.15h-.1a.18.18 0 0 0-.12.05.18.18 0 0 0-.06.11c-.03.28-.18.44-.45.47.01.06-.01.05-.07-.04a3.2 3.2 0 0 1 .9-2.42Z" fill="#D5B9A4"/><path d="M22.08 19.38a5.69 5.69 0 0 0-.9 2.64l-.32 1.68-.08 1.33a.26.26 0 0 1-.08.18.22.22 0 0 1-.1.05.2.2 0 0 1-.09 0h-.01a.43.43 0 0 1-.34-.37c-.28-2.23-.3-3.91 1.28-5.73a.45.45 0 0 1 .5-.13c.05.02.1.05.15.1v.25Z" fill="#0F050C"/><path d="M33.43 19.44c.3.3.34.59.12.86a.17.17 0 0 0-.03.12c.02.12.08.17.18.15.04 0 .07 0 .1.02s.05.05.06.08l.03.1a.1.1 0 0 1-.02.1.1.1 0 0 1-.08.03c-.35 0-.46.14-.35.44-.7-.4-.9-1.13-.56-2.2l.55.3Z" fill="#D5B9A4"/><path d="m38.54 21.8.23.97c.03.1.08.18.16.24.35.28.46.74.25 1.19-.22.46.16 1.4.34 1.82a.15.15 0 0 1-.03.17c-.12.11-.26.07-.45-.12.02.5.1.95.27 1.31.04.09.1.17.17.24.35.35.55.65.6.91a4 4 0 0 0 .5 1.31.12.12 0 0 1 0 .13.1.1 0 0 1-.11.04l-.38-.1a.28.28 0 0 0-.31.41l.44.77v.03a.05.05 0 0 1-.04.04H39.89l-.77-1a.12.12 0 0 0-.13-.03.13.13 0 0 0-.09.1c-.03.31-.2.49-.48.52a.07.07 0 0 0-.06.05.07.07 0 0 0 .04.08c.22.1.3.23.27.37v.06l.65 1.22a.1.1 0 0 1-.04.13l-.1.05a.12.12 0 0 1-.17-.06 5.94 5.94 0 0 0-.9-1.68c-.35-.46-.34-.86.05-1.2a.29.29 0 0 0 .09-.28 4.08 4.08 0 0 0-1.15-2.1 5.3 5.3 0 0 0-1 2.45c-.1.16-.15.32-.16.47-.26.36-.43.76-.49 1.2a.07.07 0 0 1-.07.06c-.02 0-.03-.01-.05-.03a.09.09 0 0 1-.02-.04l-.12-.91c-.55.05-.6-.41-.15-1.4a.13.13 0 0 1 .1-.07.14.14 0 0 1 .13.05c.06.06.06.17.03.34a.13.13 0 0 0 .02.1.13.13 0 0 0 .1.06c.1.01.17-.02.22-.1.03-.04.05-.1.05-.15 0-.36.11-.55.32-.58a.1.1 0 0 0 .08-.06.1.1 0 0 0-.03-.1c-.2-.18-.23-.45-.12-.8a.13.13 0 0 1 .23-.02l.06.09a.11.11 0 0 0 .2-.03l.28-1.1a.38.38 0 0 0-.06-.3c-.32-.49.19-.93.19-1.45 0-.91.08-1.88.24-2.92.02-.1 0-.17-.03-.2-.08-.1-.12-.16-.1-.21a.11.11 0 0 1 .2-.04c.47.64.69 1.42.66 2.34-.02.39-.12.82-.3 1.3a14.2 14.2 0 0 0-.34 1.32.06.06 0 0 0 .1.01l.4-.38a.05.05 0 0 1 .05 0c.01 0 .02 0 .02.02v.03c-.04.14-.01.38.1.72.24.77.5 1.56.78 2.38a.34.34 0 0 1-.08.35c-.1.1-.18.25-.24.41a.14.14 0 0 0 0 .1c.02.04.05.06.08.07.03.02.06.02.09 0a.13.13 0 0 0 .07-.05c.2-.37.46-.47.75-.29a.2.2 0 0 0 .29-.25 5.68 5.68 0 0 1-.41-1.42l-.09-.3c-.29-.6-.5-1.29-.65-2.05a.35.35 0 0 1 .07-.29c.2-.24.22-.56.05-.95-.26-.61-.4-1.22-.43-1.84 0-.1-.03-.18-.08-.26-.1-.17-.16-.36-.16-.57a1.73 1.73 0 0 0-.74-1.38 2.72 2.72 0 0 1-.65-1.36.14.14 0 0 1 .07-.14.14.14 0 0 1 .16.02l1.34 1.3a.17.17 0 0 1 .05.15.17.17 0 0 1-.11.13.8.8 0 0 0-.08.02v.02l.62.93Z" fill="#917261"/><path d="M16.11 20.19c.04.21.04.44 0 .68l-.07.18a.38.38 0 0 0-.03.24c.13.5.17 1.02.11 1.54a.18.18 0 0 1-.34.05l-.6-1.58.67-1.03.26-.08Z" fill="#F6F6F5"/><path d="m35.19 30.59-.95 2.39a.09.09 0 0 1-.06.05c-.12.04-.23-.09-.31-.38l.63-3.6c-.01-.23.1-.47.31-.73.02.09.05.14.1.14.05.01.1-.01.15-.07.25-.31.48-.65.71-1 .36-.55.23-1.31.55-1.8.06-.09.09-.2.07-.3-.06-.44-.1-.95-.11-1.54 0-.56.32-1.16.1-1.86.22-.11.34-.26.35-.43a.2.2 0 0 1 .1-.17c.18-.1.28-.3.3-.57.47.34.72.8.74 1.38.01.2.07.4.17.57.05.08.07.16.08.26.03.62.17 1.23.43 1.84.17.39.15.7-.05.95a.35.35 0 0 0-.07.29c.15.76.36 1.45.65 2.06.04.09.07.19.09.3.05.42.2.9.4 1.41a.2.2 0 0 1-.28.25c-.3-.18-.55-.08-.75.3a.13.13 0 0 1-.07.05.12.12 0 0 1-.09 0 .13.13 0 0 1-.07-.08.14.14 0 0 1 0-.1c.05-.16.13-.3.23-.41a.35.35 0 0 0 .08-.35c-.27-.82-.54-1.6-.78-2.38-.11-.34-.14-.58-.1-.72a.04.04 0 0 0-.02-.06h-.03l-.03.01-.38.38a.06.06 0 0 1-.11-.01v-.05c.15-.64.27-1.07.35-1.27.17-.48.27-.91.28-1.3.04-.92-.18-1.7-.66-2.34a.11.11 0 0 0-.2.04c0 .05.03.12.1.2.04.04.05.11.04.2a19.52 19.52 0 0 0-.24 2.93c0 .52-.5.96-.19 1.45a.37.37 0 0 1 .06.3l-.28 1.1a.11.11 0 0 1-.2.03l-.06-.1a.13.13 0 0 0-.2-.03.13.13 0 0 0-.03.06c-.11.35-.07.62.12.8a.1.1 0 0 1 .03.1.1.1 0 0 1-.08.06c-.21.03-.32.22-.32.58 0 .06-.02.11-.05.16-.05.07-.13.1-.23.09a.13.13 0 0 1-.11-.16c.03-.17.03-.28-.03-.34a.14.14 0 0 0-.12-.05.14.14 0 0 0-.1.08c-.45.98-.4 1.44.14 1.39Z" fill="#4B3C33"/><path d="M39.69 22.07c.07.07.13.18.15.35-.15.92-.02 1.78.37 2.6a.18.18 0 0 1-.01.16.42.42 0 0 0-.05.18.24.24 0 0 0 .06.19c.2.23.24.47.1.72a.23.23 0 0 0-.01.2l.55 1.37a.11.11 0 0 0 .21-.03c.03-.27.1-.47.23-.61.08.37.14.74.15 1.12.03.8.18 1.05.55 1.68.21.35.26.73.14 1.13l-.03.04a.16.16 0 0 1-.09.04v-.02a1.97 1.97 0 0 0-.46-1.57.1.1 0 0 0-.18.06l-.01.18a.68.68 0 0 1-.34-.1c-.07-.04-.12-.13-.16-.27a3.23 3.23 0 0 0-1.03-1.7.7.7 0 0 1-.2-.28l-.59-1.44c.19.2.33.23.45.12a.16.16 0 0 0 .03-.17c-.18-.42-.56-1.36-.34-1.82.21-.45.1-.91-.25-1.19a.44.44 0 0 1-.16-.24l-.23-.98c.01-.23-.03-.45-.13-.67a.13.13 0 0 1 .23-.13 5.71 5.71 0 0 1 .71 1.31c.02.02.04.02.07.03a.13.13 0 0 0 .12-.06l.15-.2Z" fill="#44444A"/><path d="M21.17 22.02c-.01.28.03.54.12.8a.16.16 0 0 0 .2.09l.47-.14 1.11-.11c1.4.21 2.34.85 2.86 1.9.07.65-.01 1.12-.25 1.4-.1-.73-.26-.97-.46-.73-.23-.05-.48-.24-.75-.55-.06-.08-.14-.05-.22.08-.01-.11-.13-.23-.36-.36.38.08.58 0 .58-.23l.2.1c.06.02.1.06.14.1l.13.23a.06.06 0 0 0 .06.04.07.07 0 0 0 .06-.06c.05-.6-.24-.93-.88-1.03-1-.46-1.8-.56-2.41-.32-.51.54-.77.93-.77 1.15.02.91 0 1.82-.04 2.74l-.08-1.17-.02-2.25.31-1.68ZM30.44 22.5l1.57.4a.1.1 0 0 1 .06.04.1.1 0 0 1 .01.07l-.03.12v.02h-.01a.04.04 0 0 1-.03 0 3.95 3.95 0 0 0-2.14-.28.62.62 0 0 0-.26.1 2.6 2.6 0 0 1-1.5.31.12.12 0 0 1-.06-.15c.13-.27.29-.43.5-.47.9-.19 1.44-.3 1.6-.35a.19.19 0 0 1 .12 0 .2.2 0 0 1 .1.08s0 .03.03.08l.01.02.03.01Z" fill="#4B3C33"/><path d="M41.3 26.6c-.06.22-.07.42-.01.6-.12.14-.2.34-.23.61a.1.1 0 0 1-.2.03l-.57-1.38a.23.23 0 0 1 .02-.19c.14-.25.1-.49-.1-.72a.24.24 0 0 1-.06-.2c0-.07.02-.12.05-.17a.18.18 0 0 0 0-.17 4.23 4.23 0 0 1-.36-2.59c.34 1.16.8 2.28 1.4 3.37.05.11.07.38.06.81Z" fill="#838383"/><path d="M24.18 23.55c-.3-.02-.53.05-.69.2a.2.2 0 0 0 .21.34c.22-.09.47-.06.77.08 0 .23-.2.3-.58.23-.31-.13-.74-.1-1.3.1-.3-.46-.98-.64-.82-1.27.6-.24 1.41-.14 2.4.32Z" fill="#D5B9A4"/><path d="M21.77 23.23c-.16.63.53.81.83 1.26-.24.08-.39.2-.43.4a.2.2 0 0 0 .01.14.2.2 0 0 0 .1.1.9.9 0 0 0 .3.06c.04.1.02.18-.05.25a.08.08 0 0 1-.13-.1 3.73 3.73 0 0 1 .04-.08l-.01-.03a.05.05 0 0 0-.07 0c-.28.25-.4.56-.36.93.1.94.14 2 .14 3.17 0 .05.02.1.06.14l.81.8a.21.21 0 0 1 .03.27c-.35.57-.22 1.1.37 1.6.07.6.84 1.54 1.25 2.02.52.62 1 1.03 1.45 1.23.67.3 1.37.33 2.09.06.7-.15 1.33-.46 1.89-.93a.37.37 0 0 1 .13-.07l1.09-.37a.23.23 0 0 0 .08-.04l1.34-1.12.88 2c-.06.24-.03.52.1.84-.59-.16-.94 0-1.06.52l-.04-.22a.07.07 0 0 0-.02-.04c-.04-.04-.08-.04-.1 0l.17-2.3a.21.21 0 0 0-.24-.22.2.2 0 0 0-.11.05l-2.36 1.98-.92.58c-1.13.66-1.9.97-2.28.93a22.39 22.39 0 0 0-1.36-.08.15.15 0 0 0-.1.14l-.06 1.16-.3 1.58a3.94 3.94 0 0 1-.78-1.9c.19-.53.3-1.07.32-1.62.02-.27.07-.49.15-.64.12-.2.08-.4-.1-.6-1.85-1.87-3.47-3.24-3.35-6.17 0-.1 0-.22-.02-.33l-.2-1.46c.05-.92.07-1.83.05-2.74 0-.22.26-.6.77-1.15Z" fill="#917261"/><path d="M34.94 24.39c.12.53.27.96.34.94.07-.02.02-.46-.1-1-.12-.53-.28-.96-.35-.94-.06.02-.02.46.1 1Z" fill="#2A2120"/><path d="M24.18 23.55c.64.1.93.44.88 1.03a.07.07 0 0 1-.06.06.06.06 0 0 1-.06-.04l-.13-.22a.28.28 0 0 0-.13-.12l-.2-.09c-.3-.14-.56-.17-.78-.08a.2.2 0 0 1-.27-.21.2.2 0 0 1 .06-.12c.16-.16.4-.23.69-.2Z" fill="#F6F6F5"/><path d="m27.88 24.24.04.03a.31.31 0 0 0 .35 0c1.03-.71 2.05-.6 3.07.32a.12.12 0 0 1 0 .19.12.12 0 0 1-.07.02c-.4.02-.67-.08-.83-.3a.13.13 0 0 0-.2-.02l-.3.3a.33.33 0 0 1-.31.09.7.7 0 0 1-.51-.47.13.13 0 0 0-.1-.08h-.06a.13.13 0 0 0-.05.03.98.98 0 0 0-.15.32c-.04.13-.12.2-.22.2-.25.03-.48 0-.7-.07a.26.26 0 0 1-.17-.24v-.18a.15.15 0 0 1 .21-.14Z" fill="#4B3C33"/><path d="M16.9 24.25c-.04.77-.21 1.35-.53 1.72-.38-.03-.68-.2-.92-.49a.3.3 0 0 1-.05-.27c.3-.98.8-1.3 1.5-.96Z" fill="#F6F6F5"/><path d="M34.27 24.34 34 27.12l-.03 1.96a6.54 6.54 0 0 1-1.23 3.84l-1.34 1.12a.23.23 0 0 1-.08.04l-1.1.37a.37.37 0 0 0-.12.07c-.56.47-1.19.78-1.9.93a3.3 3.3 0 0 1-2.76-1.24.29.29 0 0 1 .08-.43c.7-.4 1.38-.6 2.07-.57l-.55.5a.37.37 0 0 0 .01.56c1.24.97 2.74.4 3.52-.7.34-.5.41-1.35.9-1.67a3.8 3.8 0 0 0 1.34-1.34.16.16 0 0 0 0-.17.15.15 0 0 0-.16-.06c-.95.19-1.78.01-2.48-.53.46.17.96.36 1.41.08.22-.13.47-.23.74-.28.03 0 .06-.02.08-.05a.14.14 0 0 0 .02-.1.16.16 0 0 0-.17-.13c-.81.14-1.44.04-1.89-.31-.81-.62-1.45-1.08-1.92-1.37l1.33.31c.15.04.3.1.42.2.9.74 1.79.67 2.67-.2.27-.27.39-.6.34-1.01a.16.16 0 0 0-.17-.15.16.16 0 0 0-.07.03c-.38.25-.75.24-1.12-.05a.12.12 0 0 1 .07-.22c.27 0 .53-.13.8-.4.6-.58 1.12-1.19 1.57-1.81Z" fill="#E7D9C7"/><path d="M19.03 26.44a4.46 4.46 0 0 1-.21-2.01 3.03 3.03 0 0 1 .43 1.1l.04.03c.05 0 .1-.02.16-.1a.18.18 0 0 1 .2-.04.2.2 0 0 1 .13.17 16.86 16.86 0 0 1-.1 2.2.09.09 0 0 1-.06.03.07.07 0 0 1-.07-.08c.04-.53-.14-.96-.52-1.3Z" fill="#44444A"/><path d="m23.73 25.3-.06.22a.1.1 0 0 0 .02.1.1.1 0 0 0 .1.04c.4-.06.81-.1 1.23-.14a.2.2 0 0 0 .16-.1.37.37 0 0 0 .04-.19c.2-.24.35 0 .46.73a1.96 1.96 0 0 1-.33 1.2c-.31.52-.4 1.07-.25 1.65.3.54.77.73 1.43.56h.2a.16.16 0 0 0 .15-.21l-.15-.38c.22.11.4.07.55-.12.1.22.37.33.77.31-.42.03-.7.17-.85.42a.26.26 0 0 1-.12.1l-1.72.88a.15.15 0 0 0-.07.08.14.14 0 0 0 0 .11c.07.14.19.17.35.07-.37.34-.8.4-1.3.18a.18.18 0 0 0-.21.27c.21.27.39.42.53.45.05.56.3 1.06.75 1.5a.29.29 0 0 0 .28.08l.65-.17a.5.5 0 0 1 .2 0c.53.08.99-.08 1.39-.49a.12.12 0 0 0 .02-.14.12.12 0 0 0-.13-.06c-.33.06-.68.1-1.06.1s-.64-.07-.78-.23a.1.1 0 0 1-.02-.11.1.1 0 0 1 .08-.07c.3-.04.44-.13.42-.26.65.02 1.25-.07 1.81-.3.02.03.02.07 0 .13-.27.06-.5.17-.67.3a.2.2 0 0 0 .16.36c.32-.05.61-.18.87-.38.08-.07.1-.15.05-.24a.2.2 0 0 0-.18-.1c.13-.27.44-.32.9-.15a6.58 6.58 0 0 1-1.82 1.9 3.73 3.73 0 0 0-2.07.58.29.29 0 0 0-.08.43 3.3 3.3 0 0 0 2.77 1.24c-.73.27-1.42.25-2.09-.06-.45-.2-.93-.61-1.45-1.23-.4-.48-1.18-1.42-1.25-2.01.17.2.36.35.56.42a.14.14 0 0 0 .2-.14c0-.55-.25-.96-.75-1.22a.13.13 0 0 0-.18.05.13.13 0 0 0-.02.07c.01.28.08.55.2.82-.6-.5-.73-1.04-.38-1.6a.21.21 0 0 0-.03-.27l-.81-.81a.2.2 0 0 1-.06-.14c0-1.18-.05-2.23-.14-3.17-.04-.37.08-.68.36-.93a.05.05 0 0 1 .07 0l.01.03v.04l-.04.04a.08.08 0 0 0 .13.1.22.22 0 0 0 .06-.25c.13-.25.29-.42.47-.5a.2.2 0 0 1 .13-.01.2.2 0 0 1 .1.07l.44.54Z" fill="#D5B9A4"/><path d="M25.22 25.23c0 .07-.02.14-.04.19a.2.2 0 0 1-.16.1 17.85 17.85 0 0 0-1.28.13.1.1 0 0 1-.07-.13l.06-.23c.3-.16.47-.33.52-.53.08-.13.16-.16.22-.08.27.31.52.5.75.55Z" fill="#F6F6F5"/><path d="M26.2 26.93c-.12.3-.18.63-.18.98a.35.35 0 0 0 .1.25l.61.62.15.38a.16.16 0 0 1-.08.2.16.16 0 0 1-.07.01h-.2a2.6 2.6 0 0 0-.85-.83c-.16-.08-.36.01-.58.27a2.05 2.05 0 0 1 .25-1.64 1.96 1.96 0 0 0 .33-1.2c.24-.3.32-.76.25-1.4l.28 2.36ZM29.01 25.18c.16.27.47.37.93.29H30a.1.1 0 0 1 .04.05c.02.04.02.08 0 .12-.01.03-.03.05-.05.05-.64.18-1.25.11-1.8-.2a.11.11 0 0 1-.06-.12.11.11 0 0 1 .09-.1l.63-.16h.1c.02.02.05.04.06.07Z" fill="#917261"/><path d="M24.08 29.1a.04.04 0 0 1-.05.03H24c-.15-.06-.29-.15-.4-.27-.12-.12-.21-.28-.28-.45a1.6 1.6 0 0 1-.08-.56c0-.2.04-.4.1-.59l.05-.11c.06-.2.16-.37.28-.53.12-.15.27-.28.42-.38.16-.1.32-.15.5-.17.16-.03.33-.01.48.04l.02.01a.04.04 0 0 1 .02.05l-1.04 2.94Z" fill="#E7D9C7"/><path d="m39.04 26.07.59 1.44a.7.7 0 0 0 .2.28c.5.42.84.99 1.03 1.7.04.14.09.23.16.27.09.06.2.09.34.1a7.48 7.48 0 0 1 .49 3.48.08.08 0 0 1-.13 0c-.04-.06-.06-.15-.05-.28.03-.55-.04-.94-.2-1.16a.27.27 0 0 1-.04-.28c.07-.15.02-.33-.14-.55l-.02-.02a.04.04 0 0 0-.04.01l-.01.02-.16.62a.19.19 0 0 0 .07.2c.1.07.15.18.15.32 0 .07-.08.15-.24.26-.17.12-.31.29-.42.5-.19.06-.33.05-.41-.04a.32.32 0 0 0-.55.2c-.08 1.15-.4 2.34-1.58 2.89-.1-.24-.16-.5-.17-.79.6-.77.76-1.68.48-2.73a.2.2 0 0 0-.38 0l-.07.3a.22.22 0 0 1-.1.14.22.22 0 0 1-.17.03l-.15-.04a.2.2 0 0 0-.25.15l-.37 1.46a.08.08 0 0 1-.14.03c-.5-.66-.65-1.4-.48-2.21.04.24.15.4.32.5a.2.2 0 0 0 .28-.22c-.16-.58-.37-.95-.63-1.12.01-.4-.1-.81-.3-1.22 0-.15.05-.3.14-.47a2.61 2.61 0 0 1 .9 1.3.14.14 0 0 0 .09.04h.05a.15.15 0 0 0 .1-.2l-.28-.91a.44.44 0 0 1 .05-.38c.13-.23.17-.3.12-.65a6.92 6.92 0 0 1-.02-1.64c.58.55.96 1.25 1.15 2.09a.3.3 0 0 1-.1.28c-.38.34-.4.74-.03 1.2a5.94 5.94 0 0 1 .92 1.73.12.12 0 0 0 .14.01l.1-.05a.1.1 0 0 0 .04-.13l-.65-1.22v-.06c.04-.14-.05-.27-.27-.37a.07.07 0 0 1-.04-.08.07.07 0 0 1 .06-.05c.28-.03.44-.2.48-.52a.13.13 0 0 1 .1-.1c.02-.01.04-.01.07 0 .02 0 .04.02.05.04l.76.98a.03.03 0 0 0 .03.01h.27a.05.05 0 0 0 .04-.02.05.05 0 0 0 0-.05l-.44-.77a.28.28 0 0 1 .31-.4l.37.09a.1.1 0 0 0 .12-.04.11.11 0 0 0 0-.12 4 4 0 0 1-.5-1.32c-.05-.26-.25-.57-.6-.91a.82.82 0 0 1-.17-.24c-.16-.36-.25-.8-.27-1.31Z" fill="#4B3C33"/><path d="m15.48 26.66.17.07.43.08a.2.2 0 0 1 .15.17.2.2 0 0 1 0 .08.96.96 0 0 0-.08.4c0 .1.04.21.1.31.36.57.37 1.09.05 1.55-.56.82-.7 1.53-.44 2.14a.33.33 0 0 1-.04.32l-.4.54a.48.48 0 0 0-.1.24c-.06.52.1.89.47 1.1a.2.2 0 0 1 .08.26c-.22.44-.81.28-1.07.6-.15.19-.2.34-.14.46a.29.29 0 0 1-.02.27c-.49.81-.45 1.7.1 2.66.13.2.02.3-.3.33a16.24 16.24 0 0 1-3.24-7.66c1.27-.89 2.44-2.9 3.12-4.28a.22.22 0 0 1 .3-.1l.86.46Z" fill="#F6F6F5"/><path d="m17.65 26.64.14-.14a.25.25 0 0 1 .42.17v2.5a.12.12 0 0 1-.23.05 5.58 5.58 0 0 1-.55-1.92.8.8 0 0 1 .22-.66Z" fill="#2A2120"/><path d="M44.4 32.28c-.34 1.44-.89 2.83-1.64 4.16a.55.55 0 0 1-.62.27l-1.29-.32a.31.31 0 0 1-.15-.52c.53-.55.7-1.1.51-1.64v-.05l.16-1.32a.14.14 0 0 0-.08-.15h-.02a.07.07 0 0 0-.04.05l-.3 1.56v.1c.19.51.01 1.04-.52 1.6-.1.1-.22.15-.35.14-.16-.02-.25-.05-.29-.1a.13.13 0 0 1-.02-.12.13.13 0 0 1 .1-.08c.52-.1.73-.46.64-1.05-.01-.07-.06-.11-.14-.12h-.03a.06.06 0 0 0-.03.03.05.05 0 0 0 0 .06l.07.09a.19.19 0 0 1 .03.17.2.2 0 0 1-.12.13c-.36.12-.56.32-.6.6l-.05.06a.1.1 0 0 1-.07.03c-.14-.01-.22-.07-.23-.17v-.07l1.3-2.64c.1-.21.25-.38.42-.5.16-.1.23-.2.24-.26a.37.37 0 0 0-.15-.32.19.19 0 0 1-.07-.2l.16-.62v-.02a.04.04 0 0 1 .07 0c.16.23.2.41.14.56a.28.28 0 0 0 .03.28c.17.22.24.6.21 1.16 0 .13.01.22.05.28a.08.08 0 0 0 .09.03.08.08 0 0 0 .06-.07 7.48 7.48 0 0 0-.51-3.44l.01-.18a.1.1 0 0 1 .18-.06 1.97 1.97 0 0 1 .46 1.58h.01c.03 0 .06-.01.08-.03l.03-.04c.12-.4.07-.78-.14-1.13a2.85 2.85 0 0 1-.55-1.68 6.24 6.24 0 0 0-.15-1.12c-.06-.18-.05-.38.01-.6.48.47.85.96 1.08 1.48.82 1.76 1.5 3.16 2.03 4.2Z" fill="#F6F6F5"/><path d="m15.65 26.73-.17-.07v-.05c.09 0 .14.04.17.12Z" fill="#917261"/><path d="M34.78 27.34c-.15-.05-.25 0-.3.17l-.43 1.43-.1.14.04-1.96c.24 0 .4-.05.48-.17a.13.13 0 0 1 .2-.01c.08.1.12.23.11.4Z" fill="#4B3C33"/><path d="M34.78 27.34c.08.36.09.68.03.98-.22.26-.32.5-.31.73-.24.04-.39 0-.45-.11l.43-1.43c.05-.17.15-.22.3-.17Z" fill="#F6F6F5"/><path d="M37.1 27.4c-.06.63-.05 1.18.02 1.64.06.36.01.42-.12.65a.45.45 0 0 0-.05.38l.28.92a.15.15 0 0 1-.1.18.14.14 0 0 1-.1 0 .14.14 0 0 1-.07-.08c-.17-.5-.46-.92-.87-1.25a5.3 5.3 0 0 1 1-2.44Z" fill="#2A2120"/><path d="M28.43 27.64c.47.29 1.11.75 1.92 1.37.45.35 1.08.45 1.89.3a.15.15 0 0 1 .17.13c0 .04 0 .08-.02.1a.13.13 0 0 1-.08.06c-.27.05-.52.15-.74.28-.45.28-.95.09-1.4-.08l-1.74-2.16Z" fill="#917261"/><path d="M28.05 28.97c-.4.02-.66-.09-.77-.31.15-.26.5-.3.69-.07.07.08.17.14.29.17a.09.09 0 0 1 .07.08.09.09 0 0 1-.07.09l-.2.04ZM29.4 31.3c-.46-.17-.77-.12-.9.14a.53.53 0 0 0-.23.07c.02-.06.02-.1 0-.13l.09-.11a.15.15 0 0 0 0-.16.15.15 0 0 0-.14-.08l-2.7.16-.04.24c0 .05-.02.1-.06.13a.24.24 0 0 1-.13.07 1.5 1.5 0 0 1-.63-.1c-.14-.03-.32-.18-.53-.45a.18.18 0 0 1 .21-.27c.5.22.93.16 1.3-.18l4.84.26a.07.07 0 0 1 .05.03.07.07 0 0 1 0 .05l-.02.12c0 .02-.02.04-.03.05a.08.08 0 0 1-.06 0 1.2 1.2 0 0 0-1.02.16Z" fill="#4B3C33"/><path d="M28.27 31.38c-.56.23-1.16.32-1.8.3-.45-.07-.77-.24-.96-.5l2.71-.15a.15.15 0 0 1 .14.24l-.09.11ZM23.41 32.15a2.2 2.2 0 0 1-.19-.82.13.13 0 0 1 .13-.14c.03 0 .05 0 .07.02.5.26.74.67.74 1.22a.14.14 0 0 1-.12.14h-.07a1.2 1.2 0 0 1-.56-.42Z" fill="#F6F6F5"/><path d="M25.51 31.19c.2.25.51.42.95.49.02.13-.12.22-.42.26a.11.11 0 0 0-.06.18c.14.16.4.24.79.23a6.32 6.32 0 0 0 1.13-.09.12.12 0 0 1 .03.2c-.4.4-.86.56-1.38.47a.5.5 0 0 0-.21.01l-.65.17a.3.3 0 0 1-.28-.08c-.44-.44-.7-.94-.75-1.5.27.09.48.12.63.1a.23.23 0 0 0 .2-.2l.02-.24Z" fill="#917261"/><path d="M18.73 35.04c-.11.38-.25.63-.41.75a.26.26 0 0 1-.36-.37c.17-.22.26-.43.27-.63a.19.19 0 0 0-.15-.19.2.2 0 0 0-.22.11c-.03.06-.03.17-.01.32a.28.28 0 0 1-.22.32.3.3 0 0 1-.14 0l-.1-.02a.13.13 0 0 1-.08-.07.14.14 0 0 1-.01-.1l.84-3 .55-.7a.19.19 0 0 1 .17-.07.2.2 0 0 1 .15.1c.3.56.5 1.16.56 1.8 0 .1.05.2.11.28.1.13.15.25.14.36-.03.2.02.42.14.64.12.22.3.42.52.6.1.07.21.2.34.4a.2.2 0 0 1-.29.25c-.21-.2-.35-.28-.4-.28-.1 0-.2-.03-.28-.11a.58.58 0 0 1-.15-.32c-.09-.45-.25-1-.48-1.62-.1-.25-.14-.4-.13-.43.05-.16.07-.25.06-.28a.08.08 0 0 0-.12-.04 3.91 3.91 0 0 0-.3 2.3Z" fill="#4B3C33"/><path d="M28.5 31.44a.2.2 0 0 1 .18.11c.05.1.03.17-.05.24-.26.2-.55.33-.87.38a.2.2 0 0 1-.16-.35c.18-.14.4-.25.67-.31a.53.53 0 0 1 .23-.07ZM32.49 36.02c-.2 1.1-.24 2.18-.1 3.26.11.92.02 1.7.16 2.5a.13.13 0 0 0 .25-.03V40c0-.09.03-.18.09-.24l1-1.25a.13.13 0 0 1 .2 0l.02.07.02.2-.59 1.53a.1.1 0 0 0 0 .07.1.1 0 0 0 .08.07.1.1 0 0 0 .07-.02 6.96 6.96 0 0 0 .83-1.58l-.32 5a17.54 17.54 0 0 1-11.42.38.27.27 0 0 1-.19-.29l.13-1.15.2-3.1.01-.08.74-2.92a.14.14 0 0 1 .23-.07c.03.02.04.05.05.08l.2 1.25c.03.53.29 1.16.78 1.89.12.95.96 1.33 1.32 1.86a.1.1 0 0 0 .18-.02c.08-.15.3-.63.65-1.43a1 1 0 0 1 .33-.42c.14-.1.3-.14.45-.12.59.06 1.18.73 1.63 1.29a.33.33 0 0 0 .57-.11 4 4 0 0 0 .02-1.89c-.22-1.13-.26-2.29-.13-3.47l2.36-1.98a.21.21 0 0 1 .35.18l-.17 2.3Z" fill="#F6F6F5"/><path d="M16.83 34.11c.19.02.22.14.12.34-.06.12-.22.3-.49.52-.15.12-.3.2-.46.25a.28.28 0 0 1-.34-.19.28.28 0 0 1 0-.14l.21-.85a.23.23 0 0 1 .3-.16l.66.23Z" fill="#917261"/><path d="M29.95 35.53c-.13 1.18-.1 2.34.13 3.47a4 4 0 0 1-.02 1.89.33.33 0 0 1-.57.1c-.45-.55-1.04-1.22-1.63-1.28a.65.65 0 0 0-.45.12 1 1 0 0 0-.33.42 55.95 55.95 0 0 1-.68 1.47.1.1 0 0 1-.1.01.1.1 0 0 1-.05-.03c-.36-.53-1.2-.91-1.32-1.86l.3-1.58c.15-.26.2-.55.14-.88a.17.17 0 0 1 .27-.17c.8.54 1.51 1.05 2.16 1.53a4.08 4.08 0 0 0 .93.21.13.13 0 0 0 .08-.15c-.23-1.03-.5-1.6.22-2.7l.92-.57ZM32.65 36.28c-.06.1-.09.19-.08.28a.38.38 0 0 0 .38.32c.58 0 1.06-.11 1.44-.34a.12.12 0 0 1 .17.05v.06l-.17 1.88c-.01-.18-.1-.1-.26.25l-.02-.2a.13.13 0 0 0-.22-.07l-1 1.25a.39.39 0 0 0-.09.24v1.75a.13.13 0 0 1-.25.02c-.14-.8-.05-1.57-.16-2.5-.14-1.07-.1-2.16.1-3.25.02-.04.06-.04.1 0l.02.04.04.22Z" fill="#E7D9C7"/><path d="M29.03 36.1c-.72 1.1-.45 1.67-.22 2.7a.13.13 0 0 1-.08.15h-.07c-.52-.1-.8-.17-.86-.21-.65-.48-1.37-1-2.16-1.53a.17.17 0 0 0-.27.17c.06.33.01.62-.14.88l.06-1.16a.15.15 0 0 1 .16-.15c.44.02.87.05 1.3.1.39.03 1.15-.28 2.28-.94Z" fill="#D5B9A4"/><path d="m39.33 36.67 2.5.63a.23.23 0 0 1 .16.13.22.22 0 0 1-.02.2 16.4 16.4 0 0 1-2.67 3.04.12.12 0 0 1-.14-.11V36.8a.14.14 0 0 1 .11-.14h.06ZM35.08 42.23l.04-4.9a5.06 5.06 0 0 1 2.92.36.38.38 0 0 1 .22.25l.73 2.81a.26.26 0 0 1-.08.26 16.4 16.4 0 0 1-3.7 2.36.24.24 0 0 1-.18-.1.25.25 0 0 1-.05-.1c-.04-.28 0-.6.1-.94Z" fill="#44444A"/><path d="M34.4 38.53c.02.14.06.25.12.32a6.96 6.96 0 0 1-.86 1.6.1.1 0 0 1-.08 0 .1.1 0 0 1-.04-.07.1.1 0 0 1 0-.07l.59-1.53c.16-.35.25-.43.26-.25Z" fill="#917261"/><path d="M20.16 39.12c-.43.36-.69.56-.79.58-1 .2-1.97.2-2.88-.01a.55.55 0 0 1-.25-.13c-.27-.23-.4-.47-.4-.73a.24.24 0 0 1 .17-.23.24.24 0 0 1 .27.1l.4.54a.44.44 0 0 0 .3.18c.7.1 1.5-.36 2.25-.25.26.05.46-.09.6-.4a.16.16 0 0 1 .28-.02l.08.1a.2.2 0 0 1-.03.27Z" fill="#4B3C33"/><defs><linearGradient id="a" x1="10.42" y1="9.71" x2="68.15" y2="76.02" gradientUnits="userSpaceOnUse"><stop stop-color="#1A1E21"/><stop offset="1" stop-color="#06060A"/></linearGradient></defs></svg>