<svg width="112" height="112" viewBox="0 0 56 56" xmlns="http://www.w3.org/2000/svg"><rect fill="#F0F3FA" width="56" height="56" rx="28"/><path d="M18.03 27.88 23.29 37h3.86l-4.85-8.85L25.12 23H38l2 3H27.01l-1.15 2.1.94 1.9h16.7l1.5-2-5.1-9h-17l-4.87 8.88Z" fill="url(#a5p4jpm5x)"/><path d="m38.77 17-2.27-4H26.2L24 17h14.77Z" fill="url(#b5p4jpm5x)"/><path d="M23.17 13H19.5l-4.99 8.8 1.97 3.4L23.17 13Z" fill="url(#c5p4jpm5x)"/><path d="M13 24.48 21.4 39H34l1.2-2h-4.95l-1.48-3H41.6l-5.1 9h-17L11 28l2-3.52Z" fill="url(#d5p4jpm5x)"/><defs><linearGradient id="a5p4jpm5x" x1="35.5" y1="14.5" x2="20.5" y2="43" gradientUnits="userSpaceOnUse"><stop stop-color="#18E9D9"/><stop offset="1" stop-color="#875FEA"/></linearGradient><linearGradient id="b5p4jpm5x" x1="35.5" y1="14.5" x2="20.5" y2="43" gradientUnits="userSpaceOnUse"><stop stop-color="#18E9D9"/><stop offset="1" stop-color="#875FEA"/></linearGradient><linearGradient id="c5p4jpm5x" x1="35.5" y1="14.5" x2="20.5" y2="43" gradientUnits="userSpaceOnUse"><stop stop-color="#18E9D9"/><stop offset="1" stop-color="#875FEA"/></linearGradient><linearGradient id="d5p4jpm5x" x1="35.5" y1="14.5" x2="20.5" y2="43" gradientUnits="userSpaceOnUse"><stop stop-color="#18E9D9"/><stop offset="1" stop-color="#875FEA"/></linearGradient></defs></svg>