<svg width="112" height="112" viewBox="0 0 56 56" xmlns="http://www.w3.org/2000/svg"><path d="M11.06 17.02a35.63 35.63 0 0 1 13.93-3.89 37.47 37.47 0 0 1 19.97 3.91l.03.08c.06 1.43-.07 2.84-.39 4.23l-.67 3.03a30.7 30.7 0 0 1-5.19 11.55 35.62 35.62 0 0 1-10.33 9.9c-.46.3-.82.15-1.27-.16a39.96 39.96 0 0 1-7.34-6.38 33.94 33.94 0 0 1-7.45-13.7 38.7 38.7 0 0 1-1.34-8.54.1.1 0 0 1 .05-.03Z" fill="#33D584"/><path d="M28.88 28a.05.05 0 0 1 .01-.03.05.05 0 0 1 .04-.02c1.76 0 3.45.3 5.09.93.47.19.67.37 1.01.65a.14.14 0 0 0 .23-.05l.83-1.85a.15.15 0 0 0 0-.11.16.16 0 0 0-.07-.09 22.37 22.37 0 0 0-8.34-1.8.18.18 0 0 1-.1-.03.17.17 0 0 1-.06-.07 16.94 16.94 0 0 1-1.16-8.68l.03-.01a29.39 29.39 0 0 1 14.7 3.08l.02.09a11.37 11.37 0 0 1-.4 3.56.09.09 0 0 1-.08.03s-.02 0-.03-.02a24.59 24.59 0 0 0-10.81-3.33.08.08 0 0 0-.05.05v.04l.31 1.95c0 .04.03.07.06.1.02.03.06.04.1.05 3.57.3 6.88 1.44 9.91 3.3.03.02.06.05.07.09.02.03.02.07.01.1a24.03 24.03 0 0 1-3.5 7.98c-.2.29-.62.17-.91.03a17.2 17.2 0 0 1-6.9-5.93Z" fill="#FCFCFC"/><path d="M26.1 33.6a.06.06 0 0 1-.02-.05.06.06 0 0 1 .04-.04c1.73-.32 3.42-.24 5.07.25.14.04.26.1.38.18a39.51 39.51 0 0 0 3.52 2.03.07.07 0 0 1 .01.05l-.01.03a27.84 27.84 0 0 1-6.71 6.01c-.46.3-.71.06-1.15-.24a31.1 31.1 0 0 1-3.79-3.06 26.22 26.22 0 0 1-7.76-13.59 31.31 31.31 0 0 1-.7-5.2.18.18 0 0 1 .06-.07 27.7 27.7 0 0 1 9.01-2.82.07.07 0 0 1 .04.04v.03c-.14 1.93-.03 3.84.35 5.74.18.9.57 2 .8 2.99a.07.07 0 0 1-.01.06.07.07 0 0 1-.05.03c-.97.09-1.9.28-2.78.57-.14.05-.25.05-.33.02-.33-.14-.58-1.19-.7-1.58a19.31 19.31 0 0 1-.68-3.65l-.03-.01h-.02l-1.9.6a.17.17 0 0 0-.1.07.17.17 0 0 0-.02.11 24.2 24.2 0 0 0 2.08 7.2.14.14 0 0 0 .15.03 18.5 18.5 0 0 1 4.71-1.36c.24-.03.47-.03.71.02a.28.28 0 0 1 .19.14 17.4 17.4 0 0 0 1.97 2.84.11.11 0 0 1-.03.1.12.12 0 0 1-.05.03l-.58.16a12.36 12.36 0 0 0-5.2 1.15.07.07 0 0 0 0 .06A25.95 25.95 0 0 0 28 38.12c.04 0 .06 0 .08-.02l1.56-1.27a.09.09 0 0 0 0-.14 24.23 24.23 0 0 1-2.73-2.3l-.8-.78Z" fill="#FCFCFC"/><defs><linearGradient id="a" x1="10.42" y1="9.71" x2="68.15" y2="76.02" gradientUnits="userSpaceOnUse"><stop stop-color="#1A1E21"/><stop offset="1" stop-color="#06060A"/></linearGradient></defs></svg>