<svg width="112" height="112" viewBox="0 0 56 56" xmlns="http://www.w3.org/2000/svg"><path d="M17.15 11h.82c2.37.22 3.43 1.4 4.91 2.9a.72.72 0 0 0 .71.2c.57-.18 1.2-.3 1.88-.38.38-.04.82-.02 1.31.06.45.08.9.14 1.36.19.07 0 .1-.03.1-.1l-.03-.14-.01-.03-.03-.02c-.64-.19-1.3-.25-1.97-.17-.03 0-.05-.01-.05-.05l-.02-.1a.1.1 0 0 1 .08-.1c2.29-.52 4.52-.37 6.7.45a.27.27 0 0 0 .3-.09A7 7 0 0 1 37.9 11h.72a10.7 10.7 0 0 1 1.44 5.29 3.34 3.34 0 0 1-1.18 2.66.18.18 0 0 0 .1.31c.36.06.7.01 1.03-.15.43-.22.52-.12.27.3-.4.67-.93 1.23-1.57 1.67a.5.5 0 0 0-.16.63c.3.56.28 1.12-.05 1.67a.31.31 0 0 0-.02.28l.33.85a.72.72 0 0 1-.1.72c-1.03 1.27-2.12 2.27-1.18 4.07a.19.19 0 0 0 .18.1l.07-.02c2.65-1.43 2.51 1.54 1.58 2.97a5 5 0 0 0-.8 2.35c-.09.96-.46 1.52-1.45 1.38a.37.37 0 0 1-.23-.13l-.7-.84c-.24-.74-.08-.66.5.27.05.08.13.15.23.18 1.2.4 1.35-.53 1.43-1.42.11-1.18.95-1.91 1.2-2.99.17-.69.24-2.03-.89-1.85a9.22 9.22 0 0 0-.9.2.22.22 0 0 0-.08.15v.08c.23.86.52 1.6.27 2.58 0 .02-.02.04-.05.04h-.07c-.03 0-.05-.02-.05-.05-.09-1.93-1.76-2.5-2.19-4.27-.02-.13-.07-.13-.14-.03-.12.2-.2.28-.45.34-1.14.27-3.78.6-4.58-.16-.46-.42-.9-.85-1.35-1.29-.03-.02-.03-.05 0-.08h.02a.05.05 0 0 1 .04 0l.02.01c.23.31.46.45.71.41 1.83-.3 3.77-1.04 5.33.4a.13.13 0 0 0 .13.02.13.13 0 0 0 .08-.1c.07-.8-.12-1.49-.58-2.08-.14-.17-.43-.34-.58-.54-.1-.14-.07-.17.08-.1.93.44 1.37 1.19 1.32 2.26v.03c.02.02.05.03.08.03l.03-.03c.06-.28.16-.54.3-.78a.45.45 0 0 1 .23-.18c.36-.14 1.09-.32 1.26-.68.03-.06.02-.08-.05-.06l-.9.29a.17.17 0 0 1-.13 0 .18.18 0 0 1-.09-.09c-.09-.16-.07-.27.06-.32.28-.11.5-.27.64-.48.12-.18.09-.23-.11-.13l-.57.28a.4.4 0 0 1-.53-.19.61.61 0 0 1-.04-.37.3.3 0 0 1 .18-.23l.6-.3c.03-.03.05-.06.05-.1-.01-.07-.05-.1-.11-.08-.22.06-.34.08-.36.08-.49-.04-.5-.16-.04-.37.78-.36 1.5-.81 2.18-1.36.12-.1.14-.22.05-.36l-.07-.1c-.06-.1-.15-.12-.24-.04a11.77 11.77 0 0 1-13.74.97c-.72-.42-1.44-.86-2.14-1.3-1.8-1.12-3.1-1.66-4.9-.48a.16.16 0 0 0-.06.06c-.02.05-.04.08-.03.1l.01.04c0 .02.02.04.03.05a.1.1 0 0 0 .04.02h.05a3.77 3.77 0 0 1 4.35.76c.08.08.08.16 0 .24l-.53.56a.18.18 0 0 1-.3-.05c-.57-1.2-1.47-1.55-2.69-1.02-.17.07-.16.12.02.15.14.02.28 0 .42-.05.1-.03.2-.04.29-.02.77.16 1.35.6 1.72 1.29a.71.71 0 0 1 .01.65l-.11.22c-.15.32-.31.32-.48.01-.63-1.2-1.56-1.47-2.8-.8-.03.02-.04.05-.04.08l.01.08c0 .03.02.03.04.03 1.43-.53 2.31-.06 2.64 1.4a.16.16 0 0 1-.05.16.16.16 0 0 1-.16.02 1.82 1.82 0 0 0-1.09-.13c.3.07.6.22.9.44.08.06.13.14.15.24.2 1.02.22 2.05.05 3.08a.4.4 0 0 1-.13.23c-1.3 1.12-1.07 2.5-.91 3.9.03.27-.05.3-.24.13-.8-.75-1.52-1.78-1.03-2.94a.3.3 0 0 0-.14-.38.3.3 0 0 0-.14-.03c-1.92.04-.26 3.12.09 3.8.3.59.28 1.1.37 1.73.17 1.1 1.5 1.15 1.88.13a.1.1 0 0 1 .08-.06.1.1 0 0 1 .1.05.2.2 0 0 1 0 .18c-.36.39-.51 1.05-1.14 1-1.74-.15-.97-1.76-1.52-2.79-.68-1.27-1.74-2.79-.63-4.15a.47.47 0 0 1 .24-.16.64.64 0 0 1 .5.06c.36.2.49.09.37-.31-.15-.54-.65-2.59-1.6-1.78l-.43.37c-.1.08-.12.06-.08-.06.19-.61.09-1.18-.3-1.69-.06-.08-.07-.17 0-.25.07-.1.16-.17.26-.23a.4.4 0 0 0 .2-.23c.3-1.02.72-2 1.23-2.91.5-.88.34-1.03-.47-.44-.03.02-.23.03-.6.02-.07 0-.09-.04-.06-.1l.24-.5c.05-.1.03-.17-.07-.23a2.82 2.82 0 0 1-1.23-1.6c-.13-.41-.06-.45.22-.12.59.71 1.28.8 2.08.24a.24.24 0 0 0 .02-.37c-.92-.8-1.22-1.8-1.13-3.05.13-1.75.62-3.35 1.46-4.81Zm1.54 2.84c.12.35.03.4-.25.18-.24-.2-.33-.6-.56-.8a.36.36 0 0 0-.11-.06.15.15 0 0 0-.19.08c-.73 1.57-1.25 3.62-.27 5.2a.18.18 0 0 0 .18.08.18.18 0 0 0 .15-.12c.35-1.1.79-2.53 2-2.93 1.96-.63 3.87-.81 5.73-.53.04 0 .06 0 .06-.04l.01-.1a.12.12 0 0 0-.11-.14l-2.09-.18a.31.31 0 0 1-.23-.13c-.93-1.23-2.75-1.55-4.2-1.45-.28.02-.38.17-.29.45l.17.5Zm18.34.14.2-.59a.38.38 0 0 0-.05-.35.37.37 0 0 0-.31-.15 7.7 7.7 0 0 0-3.32.95.15.15 0 0 0 .06.2c1.85.83 3.82 2.17 4.3 4.3.04.15.11.25.21.3a.19.19 0 0 0 .24-.07c1.14-1.77.58-3.61-.18-5.39-.04-.1-.1-.1-.17-.03-.27.3-.45.78-.85.95-.13.06-.18.02-.13-.12Z"/><path d="M28.46 13.68a18.29 18.29 0 0 1 7.1 2.73v.03l-.01.03-.03.01a5.93 5.93 0 0 0-.15 0 20.15 20.15 0 0 0-6.84-2.45.17.17 0 0 1-.14-.14l-.02-.11c-.02-.08.01-.11.09-.1ZM33.06 17.39a22.54 22.54 0 0 0-7.48-2.35.1.1 0 0 1-.04-.13l.03-.07a.19.19 0 0 1 .2-.12c2.6.4 5.03 1.23 7.32 2.5.03.03.04.05.02.08l-.03.08h-.02Z" fill="#9F0511"/><path d="m36.18 35.1.03.79a.35.35 0 0 1-.12.12c-.03.02-.08.02-.14 0-1.18-.22-2.43-.39-3.73-.48-.2-.45-.43-.9-.68-1.34-.3-.53-.82-.92-1.15-1.43a.83.83 0 0 0-.38-.32c-.17-.08-.2-.04-.1.12.56.76 1.64 1.82 1.65 2.97h-2.75c-.1 0-.17.06-.17.17v.56c0 .11.05.18.16.2a18.3 18.3 0 0 1 6.85 2.62.21.21 0 0 1-.02.26 84.98 84.98 0 0 1-3.9 4.01c-.81.78-2.4 1.05-3.48 1.38-.25.06-.5.06-.76 0-1.37-.44-2.86-.76-3.92-1.83a47.8 47.8 0 0 1-3.25-3.68.17.17 0 0 1 .02-.14 17.19 17.19 0 0 1 6.85-2.62.18.18 0 0 0 .15-.18v-.6a.15.15 0 0 0-.04-.1.14.14 0 0 0-.1-.05h-3.1a10.57 10.57 0 0 1 1.83-2.95c.03-.04.03-.07 0-.1-.04-.04-.07-.04-.1-.01a7.04 7.04 0 0 0-2.13 3.03l-4.15.54.04-.95a.2.2 0 0 0 0-.18.1.1 0 0 0-.18.01c-.38 1.02-1.71.96-1.88-.13-.09-.62-.08-1.14-.37-1.72-.35-.7-2-3.77-.1-3.81a.3.3 0 0 1 .3.26c.01.05 0 .1-.01.15-.5 1.16.23 2.19 1.03 2.94.19.18.27.14.24-.12-.16-1.41-.39-2.8.9-3.91a.4.4 0 0 0 .14-.23 8.46 8.46 0 0 0-.05-3.08.38.38 0 0 0-.15-.24 2.63 2.63 0 0 0-.9-.45c.37-.07.73-.02 1.09.14a.16.16 0 0 0 .21-.1.16.16 0 0 0 0-.08c-.33-1.46-1.2-1.93-2.64-1.4-.02 0-.03 0-.04-.03v-.08c0-.03 0-.06.03-.08 1.24-.67 2.17-.4 2.8.8.17.31.33.31.48 0l.11-.23a.7.7 0 0 0 0-.65 2.43 2.43 0 0 0-1.73-1.29.52.52 0 0 0-.29.02.87.87 0 0 1-.42.05c-.18-.03-.19-.08-.02-.15 1.22-.53 2.12-.19 2.7 1.02a.18.18 0 0 0 .21.1l.08-.05.53-.56c.08-.08.08-.16 0-.24a3.77 3.77 0 0 0-4.4-.76.1.1 0 0 1-.04-.02.13.13 0 0 1-.03-.05.15.15 0 0 1-.01-.05c0-.02 0-.04.03-.09a.16.16 0 0 1 .06-.06c1.8-1.18 3.1-.64 4.9.48.7.44 1.42.88 2.14 1.3a11.77 11.77 0 0 0 13.74-.97c.1-.08.18-.07.24.03l.07.11c.1.14.08.26-.05.36-.68.55-1.4 1-2.18 1.36-.46.2-.45.33.04.37.02 0 .14-.02.36-.08.06-.01.1.01.1.08.01.04 0 .07-.04.1l-.6.3a.3.3 0 0 0-.18.23.62.62 0 0 0 .04.37.4.4 0 0 0 .23.21.39.39 0 0 0 .3-.02l.57-.28c.2-.1.24-.05.1.13-.13.2-.35.37-.63.48-.13.05-.15.16-.06.32.02.04.05.07.1.08.03.02.07.02.11 0l.91-.28c.07-.02.08 0 .05.06-.17.36-.9.54-1.26.68-.1.04-.17.1-.22.18-.15.24-.25.5-.31.78 0 .02-.02.03-.03.03-.03 0-.06 0-.07-.03l-.01-.03c.05-1.07-.39-1.82-1.32-2.26-.15-.07-.18-.04-.08.1.16.2.44.37.58.54.46.59.65 1.28.58 2.08a.13.13 0 0 1-.08.1.12.12 0 0 1-.13-.02c-1.56-1.44-3.5-.7-5.32-.4-.26.04-.5-.1-.72-.4a.06.06 0 0 0-.04-.03.05.05 0 0 0-.04.01c-.03.03-.03.06 0 .08.44.44.9.87 1.35 1.3.8.74 3.44.42 4.58.15.24-.06.33-.14.45-.34.07-.1.12-.1.14.03.43 1.78 2.1 2.34 2.19 4.27 0 .03.02.05.05.05h.07c.03 0 .04-.02.05-.04.25-.97-.03-1.72-.26-2.58a.21.21 0 0 1 .15-.27c.26-.06.54-.12.82-.16 1.13-.18 1.06 1.16.9 1.85-.26 1.08-1.1 1.81-1.21 3-.08.88-.23 1.81-1.43 1.41a.43.43 0 0 1-.24-.18c-.57-.93-.73-1.01-.49-.27Z" fill="#E1FFBD"/><path d="M20.35 26.89c0 .07-.01.13-.05.16-.04.04-.07.03-.07-.03.01-1.05.39-1.74 1.13-2.07.64-.3.67-.24.09.16-.36.24-1.1 1.19-1.1 1.78Z"/><path d="M21.74 25.85c.92-.7 2-.71 2.98-.45.51.13.5.2-.03.22-.83.02-1.95-.1-2.8.43a.05.05 0 0 1-.05 0l-.09-.05a.1.1 0 0 1-.03-.12l.02-.03ZM33.96 25.99a6.22 6.22 0 0 0-3.2-.34.04.04 0 0 1-.02-.03l-.01-.07c0-.03 0-.07.02-.1a.11.11 0 0 1 .07-.04c.98-.16 2.48-.35 3.2.47.13.14.1.17-.06.1Z" fill="#6E765D"/><path d="M24.75 27.04c.1.06.16.23.18.5l.08.2c.03.09.1.14.2.15.15 0 .28-.01.42-.06.14 0 .2.06.15.18-1.23 1-3.67.63-5.08.28a.28.28 0 0 1-.15-.45c1.06-1.27 2.57-1.29 4.2-.8Z"/><path d="M24.75 27.04c.3 0 .62.02.94.09.33.07.52.1.55.07.63-.36.68-.28.17.23l-.63.58c.04-.12 0-.18-.15-.18.1-.05.17-.12.2-.19.05-.1.03-.15-.08-.17a1.54 1.54 0 0 0-.82.07c-.02-.27-.08-.44-.18-.5Z" fill="#6E765D"/><path d="m30.9 27.9-.03.02a.05.05 0 0 1-.04.01h-.05a3.18 3.18 0 0 1-.6-.2.7.7 0 0 1-.18-.11c-.04-.04-.05-.07-.05-.1l.01-.06c0-.03.04-.06.09-.08a.69.69 0 0 1 .2-.04l.3.01.33.05.05.01.04.02v.04l-.08.42ZM22.73 28.32l-.5.02a.17.17 0 0 1-.15-.07.18.18 0 0 1-.02-.16l.09-.27a.18.18 0 0 1 .07-.1l.4-.25a.17.17 0 0 1 .28.15v.5a.18.18 0 0 1-.17.18ZM25.63 27.83a1.1 1.1 0 0 1-.41.06.22.22 0 0 1-.21-.16l-.08-.19c.27-.1.54-.12.82-.07.1.02.13.07.09.17a.46.46 0 0 1-.21.2Z" fill="#EED617"/><path d="M29.24 27.62c-.51 1.25 1.47 2.06 2.26 2.5.15.08.14.1-.02.05a4.78 4.78 0 0 1-2.38-1.47c-.3-.31-.32-.7-.09-1.17a.08.08 0 0 1 .1-.04l.1.04c.04.02.05.05.03.1Z"/><path d="M33.81 28.1c.06.15.01.23-.15.24h-.42a.17.17 0 0 1-.13-.04.17.17 0 0 1-.05-.13l.01-.53a.15.15 0 0 1 .14-.14l.07.01c.25.12.43.32.53.59Z" fill="#EED617"/><path d="M26.96 27.69c.28 1.37-1.64 2.12-2.6 2.52-.03 0-.05 0-.06-.03-.01-.03 0-.05.03-.06.86-.3 2.46-1.18 2.4-2.32 0-.08.04-.12.11-.13l.08-.01c.02 0 .04 0 .04.03Z"/><path d="m23.8 29.42-.02.03-.04.02-.58-.01a29.56 29.56 0 0 1-1.71-.1c-.1-.01-.14-.03-.13-.04v-.06c0-.02.2-.05.55-.06.35-.01.81-.02 1.3 0h.58a.05.05 0 0 1 .03.02.05.05 0 0 1 .02.03v.17ZM31.93 29.2v-.02l.03-.01h.1c.62.01 1.2.03 1.64.06.43.02.67.05.67.08v.06l-.17.03a29.34 29.34 0 0 1-2.14.03h-.1l-.03-.01v-.22Z" fill="#6E765D"/><path d="M35.95 30.17a1.5 1.5 0 0 1-.27-.21c-.23-.3-.2-.35.12-.12 1.89 1.37 1.04 2.46.27 4.1-.02.04-.05.05-.1.03l-.06-.03c-.02 0-.02-.02-.02-.04.53-1.1 1.36-2.87.06-3.73Z"/><path d="M19 32.3c-.1-.64-.05-1.6.56-1.98.12-.07.15-.04.08.08-.75 1.3-.2 2.8.66 3.88.02.02.02.05 0 .07-.03.02-.05.02-.07 0-.75-.82-1.16-1.5-1.24-2.06ZM32.21 35.53c-.2.04-.42.04-.65 0-.01-1.15-1.1-2.2-1.65-2.97-.1-.16-.07-.2.1-.12.15.06.28.17.38.32.33.51.85.9 1.15 1.43.25.44.48.89.67 1.34ZM24.1 35.53l-.4-.03a7.04 7.04 0 0 1 2.12-3.03c.04-.03.07-.03.1 0h.01c.03.04.03.07 0 .11-.77.88-1.38 1.86-1.83 2.95Z" fill="#6E765D"/><path d="m29.13 33.74-.54 1.44a.09.09 0 0 1-.08.06.09.09 0 0 1-.08-.06.65.65 0 0 1-.01-.36c.04-.22.25-.6.63-1.13.02-.04.05-.04.08-.02.02 0 .02.03 0 .07ZM26.88 34.16a.9.9 0 0 1-.1-.26c-.03-.13 0-.15.1-.05.33.36.52.8.57 1.3a.1.1 0 0 1-.02.06.1.1 0 0 1-.18-.03l-.27-.8a1.26 1.26 0 0 0-.1-.22ZM24.1 35.53h3.1c.04 0 .07.02.1.05.03.02.04.06.04.1v.6a.18.18 0 0 1-.14.18 17.2 17.2 0 0 0-6.86 2.62.18.18 0 0 0 .01.2 47.8 47.8 0 0 0 3.22 3.62c1.05 1.07 2.55 1.39 3.92 1.83-.97-.08-2.87-.2-3.55-.97-1.26-1.41-2.5-2.8-3.7-4.17a.37.37 0 0 0-.4-.1.37.37 0 0 0-.13.08 35.45 35.45 0 0 0-4.46 5.16c-.25.35-.35.3-.32-.12.08-.92.24-1.82.48-2.72a.25.25 0 0 0-.07-.25.24.24 0 0 0-.25-.04 8.77 8.77 0 0 0-2.46 1.48.1.1 0 0 1-.11-.08 6.07 6.07 0 0 1 1.4-2.56.12.12 0 0 0-.12-.14c-.76 0-1.51.12-2.25.34-.66.2-.73.08-.2-.37 1.97-1.67 4.94-3.45 7.58-3.95.24-.04.45-.14.62-.28l4.14-.54.41.03ZM31.56 35.53c.23.04.45.04.65 0 1.31.1 2.56.26 3.73.49l.15-.01a.35.35 0 0 0 .12-.12c.03.11.08.17.14.19 3.22.8 6 2.23 8.34 4.26.46.4.4.5-.18.33a9.54 9.54 0 0 0-2.08-.4c-.35-.02-.42.1-.2.39.52.63.91 1.33 1.18 2.1.12.38.04.44-.26.19a8.74 8.74 0 0 0-2.3-1.38.22.22 0 0 0-.3.14.22.22 0 0 0 0 .12c.24.93.4 1.87.49 2.82.04.42-.06.46-.3.12a33.44 33.44 0 0 0-4.48-5.2.46.46 0 0 0-.67.03c-1.2 1.4-2.41 2.77-3.65 4.12-.74.81-2.63.96-3.69 1.01 1.07-.33 2.67-.6 3.48-1.38a84.98 84.98 0 0 0 3.94-4.1.21.21 0 0 0-.08-.23 18.3 18.3 0 0 0-6.8-2.56c-.1-.02-.16-.09-.16-.2l.01-.56c0-.11.06-.17.17-.17h2.75Z"/><path d="M30.7 38.09c-.44-.2-.75-.31-.92-.31-1.39-.02-3.33-.34-4.6.23-.24.1-.26.07-.07-.1.68-.59 1.47-.8 2.38-.65 1.29.22 2.2-.44 3.28.74.12.13.1.16-.06.09ZM26.87 39.52c-.16.07-.27.11-.33.11-.15.01-.18-.03-.06-.12 1.13-.96 2.18-.94 3.14.08.04.04.03.05-.02.03-1.05-.42-1.95-.45-2.73-.1Z"/></svg>