<svg width="112" height="112" viewBox="0 0 56 56" xmlns="http://www.w3.org/2000/svg"><rect fill="#F0F3FA" width="56" height="56" rx="28"/><path d="m28 10 16 9v18l-16 9-16-9V19l16-9Z" fill="url(#ankge5lok)"/><path d="m28 15.5 11 6.25v12.47l-11 6.24-11-6.24V21.75l11-6.24Z" fill="url(#bnkge5lok)"/><path d="m28 40.46-11-6.24V21.76l11 6.08v12.62Z" fill="#A08894"/><path d="M20 32.76V23.4l8 4.43v9.92l-8-4.99Z" fill="#A07B82"/><path d="M36 32.76v-9.62l-8 4.69v9.92l8-4.99Z" fill="#954838"/><path d="M19.98 32.77 28 37.75v-6.93l-3.91-.86-4.11 2.8Z" fill="url(#cnkge5lok)"/><path d="M36.02 32.69 28 37.75v-6.88l4.04-.91 3.98 2.73Z" fill="url(#dnkge5lok)"/><path d="m38.97 21.73.03.02v12.47l-.1.06L36 32.6v-9.4l2.97-1.47Z" fill="#99354B"/><ellipse cx="28" cy="27.36" rx="5.74" ry="5.64" fill="url(#enkge5lok)"/><path d="M28 33a5.69 5.69 0 0 0 5.74-5.64c0-.87-.2-1.7-.57-2.44L28 27.82V33c.01 0-.01 0 0 0Z" fill="url(#fnkge5lok)"/><path d="M28 33a5.72 5.72 0 0 1-5.74-5.64c0-.87.2-1.69.56-2.42L28 27.83V33Z" fill="url(#gnkge5lok)"/><defs><linearGradient id="ankge5lok" x1="12.04" y1="28" x2="43.8" y2="28.94" gradientUnits="userSpaceOnUse"><stop stop-color="#292448"/><stop offset="1" stop-color="#240E21"/></linearGradient><linearGradient id="bnkge5lok" x1="19" y1="22.16" x2="37.37" y2="22.34" gradientUnits="userSpaceOnUse"><stop stop-color="#966944"/><stop offset="1" stop-color="#9A3235"/></linearGradient><linearGradient id="cnkge5lok" x1="21.16" y1="32.77" x2="26.97" y2="35.69" gradientUnits="userSpaceOnUse"><stop stop-color="#AE8485"/><stop offset="1" stop-color="#B35887"/></linearGradient><linearGradient id="dnkge5lok" x1="28.99" y1="34.9" x2="34.83" y2="33.16" gradientUnits="userSpaceOnUse"><stop stop-color="#A17B4A"/><stop offset="1" stop-color="#A45546"/></linearGradient><linearGradient id="enkge5lok" x1="28" y1="21.73" x2="28" y2="33" gradientUnits="userSpaceOnUse"><stop stop-color="#C7907B"/><stop offset=".46" stop-color="#BC7E7A"/></linearGradient><linearGradient id="fnkge5lok" x1="28.57" y1="28.14" x2="32.86" y2="31.11" gradientUnits="userSpaceOnUse"><stop stop-color="#B69277"/><stop offset="1" stop-color="#C5A17C"/></linearGradient><linearGradient id="gnkge5lok" x1="27.47" y1="27.6" x2="23.19" y2="30.84" gradientUnits="userSpaceOnUse"><stop stop-color="#C46D93"/><stop offset="1" stop-color="#CF9191"/></linearGradient></defs></svg>