<svg width="112" height="112" viewBox="0 0 56 56" xmlns="http://www.w3.org/2000/svg"><rect fill="#FEC7DC" width="56" height="56" rx="28"/><path d="m37.15 42.21-.15.05c-.3-1-.33-2.37-1.48-2.9a17.15 17.15 0 0 0-1.2-.51.09.09 0 0 0-.07.05 16.15 16.15 0 0 1 .24 3.36.1.1 0 0 0 .16 0c.08-.15.2-.27.33-.37a.09.09 0 0 1 .12.11c-.23.35-.88 1.22-.07 1.4l-.36.14c-.3-.25-.46-.5-.45-.79.03-.93.01-1.76-.04-2.49-.01-.16-.08-.64-.21-1.45a.7.7 0 0 0-.34-.5l-.42-.23a.22.22 0 0 0-.3.1.22.22 0 0 0-.02.12c.23 1.28.3 2.66.2 4.14a.42.42 0 0 1-.22.35c-.35.18-.74.3-1.15.37-2.22.35-4.3.35-6.26.01-.68-.12-1.09-.33-1.2-.94-.22-1.1-.53-2.16-.95-3.15l-.67-1.27a.49.49 0 0 0-.6-.22l-.84.32a.26.26 0 0 0-.14.34c.02.04.04.08.08.1.24.19.48.47.72.86a12.67 12.67 0 0 1 1.3 4.3c.02.2 0 .4-.1.6-.16-.04-.25-.05-.24-.02.08-.46.02-1.06-.15-1.82a9.66 9.66 0 0 0-1.33-3.34.71.71 0 0 0-.12-.13l-.27-.23a.36.36 0 0 0-.37-.06c-1.18.51-2.28.87-2.9 1.99-.1.18-.22.36-.35.53l-.06-.08a3.96 3.96 0 0 1 1.3-1.72.1.1 0 0 0-.05-.13 3.31 3.31 0 0 1-1.92-3.25c0-.13.02-.27.07-.41a.15.15 0 0 1 .25-.06c.35.37.6.72 1 .78a.1.1 0 0 0 .1-.11.1.1 0 0 0-.01-.05c-.29-.35-.4-.77-.34-1.27a.18.18 0 0 1 .32-.1c.44.55 1.38.87 1.86.17.3-.44-.52-1.27-.85-1.53-1.12-.91-2.22-1.77-2.95-2.78a8.18 8.18 0 0 1-1-7.44 9.63 9.63 0 0 1 2.67-4.1c.24-.2.53-.44.85-.75.63-.6 1.4-1.03 2.3-1.3a.81.81 0 0 0 .24-.11l.66-.48a8.68 8.68 0 0 1 4.86-1.81.2.2 0 0 0 .06-.05c.07-.1.13-.17.16-.25a.48.48 0 0 1 .2-.2c.1-.05.2-.07.3-.06.34.02.65.2.92.5a.29.29 0 0 0 .34.08c.87-.38 1.8-.6 2.8-.67.08 0 .16-.01.23-.04.47-.15.88-.41 1.21.16.05.08.11.14.2.18 1.4.69 2.62 1.84 2.79 3.45.02.24-.11.57.07.77.29.32.5.66.62 1.02a.3.3 0 0 0 .17.17c.7.3 1.52.53 1.64 1.38a.17.17 0 0 0 .11.13l.75.29a.1.1 0 0 0 .09 0 .1.1 0 0 0 .04-.07l.22-1.01a.05.05 0 0 1 .02-.03l.01-.01h.02l.06.01a.05.05 0 0 1 .04.04v.02l-.22 1.08a.18.18 0 0 0 .05.16c.32.31.48.61.48.9a.4.4 0 0 0 .2.35c.05.04.12.05.18.05.07 0 .13-.03.18-.07a6.65 6.65 0 0 0 1.23-1.3l.12.06a.06.06 0 0 1 .02.09l-1.36 1.36a.15.15 0 0 0-.03.16l.35.92a.2.2 0 0 0 .22.12c.69-.14 1.34-.45 1.97-.72a.05.05 0 0 1 .05.02.04.04 0 0 1-.01.05c-.79.4-1.53.66-2.21.78a.2.2 0 0 0-.16.14 2 2 0 0 1-.74.99c-.26.19-.16.44-.23.68-.2.58-.68 1-1.46 1.23a.1.1 0 0 0-.07.07.1.1 0 0 0 .02.1c.32.45.5.93.52 1.44a.16.16 0 0 0 .1.14l.25.04c.59.1.65.61.26.98a7.68 7.68 0 0 0-.33.37.2.2 0 0 0 0 .09c.07.42.14.68-.2 1-.2.18-.36.3-.47.37a.38.38 0 0 0-.19.25c-.1.42-.34.81-.71 1.18a7.4 7.4 0 0 1-3.05 1.85.24.24 0 0 0-.17.2.23.23 0 0 0 .12.23l.49.28c.1.05.2.08.32.08.37-.02.75-.19 1.12-.5a.12.12 0 0 1 .12-.02.12.12 0 0 1 .08.08c.35 1.23-.44 2.57-1.46 3.18a.11.11 0 0 0-.05.1.11.11 0 0 0 .08.1c.43.15.78.34 1.04.57.61.56.91 1.84 1 2.67Z" fill="#050405"/><path d="m31.64 16.06-.38.17a.14.14 0 0 1-.17-.05l-.46-.66a.09.09 0 0 1 0-.09c.34-.65.85-1.45 1.6-1.59a.4.4 0 0 1 .49.43 4.09 4.09 0 0 1-.41 1.59.08.08 0 0 0 .04.06h.12l.02-.03.16-.33a.16.16 0 0 1 .13-.1.17.17 0 0 1 .15.07c.32.4.46.77.4 1.1a.09.09 0 0 1-.08.08 4.59 4.59 0 0 0-1.79.27.1.1 0 0 1-.1-.1l-.03-.27a.13.13 0 0 1 .05-.1l.34-.33a.08.08 0 0 0-.08-.12Z" fill="#BE3727"/><path d="M31.16 14.02a.08.08 0 0 1 .07.13 3.25 3.25 0 0 0-.8 1.27.09.09 0 0 1-.1.02 1.24 1.24 0 0 0-1.07.08.08.08 0 0 1-.07 0 .08.08 0 0 1-.05-.05c-.1-.25-.27-.48-.5-.67a.07.07 0 0 1-.02-.06.06.06 0 0 1 .04-.05 9.04 9.04 0 0 1 2.5-.67Z" fill="#FBCE63"/><path d="M26.4 16.4a.05.05 0 0 1-.04-.02v-.05l.33-.57a.12.12 0 0 1 .1-.06.12.12 0 0 1 .1.04c.05.06.14.12.26.17h.06c.02 0 .03-.02.04-.03l.03-.05.01-.05a.08.08 0 0 0-.02-.05c-.35-.32-.66-1.27-.06-1.55.57-.28 1.43.9 1.76 1.37a.14.14 0 0 1 .01.14.98.98 0 0 1-.3.37.18.18 0 0 1-.19 0l-.21-.12a.09.09 0 0 0-.12.13.6.6 0 0 0 .2.2.27.27 0 0 1-.2.5l-1.77-.37Z" fill="#BE3727"/><path d="M33.55 16.62c.23-.39-.4-1.22-.66-1.4a.13.13 0 0 1-.05-.09l.01-.08c.06-.1.1-.31.1-.63a.07.07 0 0 1 .1-.06c1.32.62 2.57 1.9 2.6 3.43a.09.09 0 0 1-.04.08.09.09 0 0 1-.1-.01A4.02 4.02 0 0 0 34 16.9l-.42-.15a.1.1 0 0 1-.04-.06v-.07ZM26.32 15.94a2.8 2.8 0 0 0-2.3 1.15c-.58.38-1 .85-1.26 1.42a4.7 4.7 0 0 0-.31 3.03c.51 2.37 1.62 4.85-.5 6.87.05-.34.17-.67.35-.98l.05-.15a5.64 5.64 0 0 0-.2-3.2 10.67 10.67 0 0 1-.75-3.66.1.1 0 0 0-.07-.05 4.82 4.82 0 0 0-2.55 1.65.07.07 0 0 1-.08-.1l.45-1.94c.17-.04.27-.1.3-.19.68-2.34 2.85-3.93 5.08-4.7.78-.28 1.43-.4 1.95-.38.03 0 .05 0 .07.03.02.01.04.04.04.06l.08.47c.01.03 0 .06-.01.1l-.34.57Z" fill="#FBCE63"/><path d="M29.97 17.81a4.63 4.63 0 0 0-1.23-.83.17.17 0 0 1-.08-.22c.18-.4.35-.83.71-1.04.9-.5 1.62.47 1.8 1.27a.13.13 0 0 1-.06.13l-1.03.7a.1.1 0 0 1-.11 0Z" fill="#BE3727"/><path d="m26.32 15.94-.18.44-.05.06a7.16 7.16 0 0 0-2.08.65 2.8 2.8 0 0 1 2.3-1.15Z" fill="#CD9F53"/><path d="M24.23 21.83c.6-1.18 1-2.04 1.15-2.59.15-.54.24-.9.25-1.05.04-.37-.1-.8-.44-1.29a4.9 4.9 0 0 1 4.65 1.22 2.92 2.92 0 0 1 .84 1.44c0 .01 0 .02-.02.03a.07.07 0 0 1-.06.02 5.09 5.09 0 0 0-2.42-.22c-.06 0-.08.04-.06.1.02.06.06.09.11.09 1.02.02 2.4-.02 3.05.95a.07.07 0 0 1 0 .07.07.07 0 0 1-.07.03 5.57 5.57 0 0 0-2.64 0 .15.15 0 0 1-.11-.16c.01-.25 0-.4-.03-.42a.14.14 0 0 0-.12-.04.15.15 0 0 0-.1.06l.05.45c0 .04 0 .09-.02.12a.18.18 0 0 1-.1.08l-1.1.43a.07.07 0 0 0-.05.07v.08a.09.09 0 0 0 .12.09l1.08-.42a.06.06 0 0 1 .05 0 .07.07 0 0 1 .03.05l.18.98a.04.04 0 0 1-.02.04l-1.33.52a.17.17 0 0 1-.2-.06c-.46-.6-.75-1.3-.86-2.05a.17.17 0 0 0-.17-.15h-.05a.06.06 0 0 0-.05.02.06.06 0 0 0-.02.05 5.28 5.28 0 0 0 .9 2.28.06.06 0 0 1-.03.05l-1.14.77a.27.27 0 0 1-.32 0 .27.27 0 0 1-.08-.1l-.85-1.54Z" fill="#519F37"/><path d="M25.2 16.9c.32.5.47.92.43 1.3-.01.15-.1.5-.25 1.04-.16.55-.54 1.4-1.15 2.59l-.12-.24a.12.12 0 0 0-.2-.02.12.12 0 0 0-.02.07c-.01.1.01.22.07.35.26.53.56 1.04.9 1.5-.16.53-.29 1.07-.39 1.6a13.5 13.5 0 0 1-.36 1.61c-.38 1.1-.91 2.12-1.6 3.04a.25.25 0 0 0-.01.3c1.38 1.95 3.6 3.8 5.95 4.32 2.04.45 4.07.34 6.06-.33a3 3 0 0 0 1.4-.85c.1-.12.07-.23-.1-.32l2.05-.54a.07.07 0 0 1 .08.1c-.07.2-.18.38-.32.53-1.35 1.51-3.2 2.26-5.18 2.6-3.26.55-6.52.09-9.51-1.27-.85-.38-1.6-.83-2.24-1.35a5.4 5.4 0 0 1-2.25-4.28 10.24 10.24 0 0 1 .53-2.97.09.09 0 0 1 .12.01c.55.71.98 1.47 1.29 2.27.19.51.14 1.09-.14 1.72v.1a.15.15 0 0 0 .16.03 5.42 5.42 0 0 0 2.56-2.18c1.06-1.74.35-3.86-.16-5.79a8.8 8.8 0 0 1-.16-1.46 3.8 3.8 0 0 1 .9-2.56 4.9 4.9 0 0 1 1.65-.92Z" fill="#447A30"/><path d="M30.35 18.08a3.55 3.55 0 0 1 2.86-1.11c1.34.12 2.5 1.19 3.1 2.37a.07.07 0 0 1 0 .06.06.06 0 0 1-.05.04l-1.45.14a.07.07 0 0 0-.05.03.07.07 0 0 0-.01.05v.09a.08.08 0 0 0 .04.06.08.08 0 0 0 .06.01c1.3-.14 2.42-.2 3.2.81a.13.13 0 0 1-.04.2 5.99 5.99 0 0 0-3.23.59.07.07 0 0 0 0 .1l.03.03a.05.05 0 0 0 .06.02c1.38-.47 2.81-.72 4.19-.05a.17.17 0 0 1 .09.1.18.18 0 0 1-.02.15l-.16.28a.17.17 0 0 1-.16.08c-1.74-.18-3.36.31-5.03.94a.15.15 0 0 1-.18-.05l-.62-.73a.17.17 0 0 1-.04-.13c.12-.55-.54-1.08-1-1.26-.29-.1-.34-.23-.43-.54a.2.2 0 0 0-.05-.08l-.42-.43a.25.25 0 0 1-.08-.16 2.67 2.67 0 0 0-.61-1.43.14.14 0 0 1 0-.18Z" fill="#519F37"/><path d="M19.1 19.9c-.39.1-.75.27-1.07.54a9.5 9.5 0 0 0-2.55 3.38 21.28 21.28 0 0 0-.55 1.42.07.07 0 0 1-.04.01.06.06 0 0 1-.06-.04l-.02-.08c.2-1.9.9-3.58 2.1-5.06a11.2 11.2 0 0 1 3.53-2.84.09.09 0 0 1 .04.15 5.9 5.9 0 0 0-1.37 2.52Z" fill="#FBCE63"/><path d="M19.1 19.9c0 .05.02.08.05.08l-.45 1.95a.07.07 0 0 0 .04.08.07.07 0 0 0 .08-.02c.34-.47.84-.89 1.48-1.26a3.5 3.5 0 0 1 1.03-.36.1.1 0 0 1 .07.05l.01.05c.02 1.18.27 2.39.73 3.62a5.64 5.64 0 0 1 .16 3.34c-.18.31-.3.64-.35.98l-1.15.88-.02.01a.04.04 0 0 1-.05-.03v-.02c.18-1.1-.32-2.1-.92-2.99a5.95 5.95 0 0 1-1.2-3.51.15.15 0 0 0-.13-.15.12.12 0 0 0-.14.1c-.03.66.05 1.25.22 1.77.11.33.18.57.21.73.01.06.01.12-.01.18a8.05 8.05 0 0 0-.4 4.73c.62 2.46 3.51 4.22 5.82 4.94a.24.24 0 0 1 .17.23v1.3a.23.23 0 0 1-.14.21l-1.49.57a.26.26 0 0 1-.15.01l-.2-.05h-.09c-.7.1-1.22.33-1.56.72a.85.85 0 0 1-.27.2l-1.53.7a.26.26 0 0 1-.21.01 3.3 3.3 0 0 1-1.6-1.41c.16 0 .24-.1.28-.33a.3.3 0 0 1 .37-.24c.78.24 1.8.3 2.5-.22.64-.49.44-1.1.09-1.68a.67.67 0 0 1-.06-.2.16.16 0 0 0-.14-.15 1.8 1.8 0 0 0-.67-1.3c-.92-.8-2.06-1.64-2.76-2.43a7.66 7.66 0 0 1-1.92-5.86l.03.08a.06.06 0 0 0 .1.03l.03-.03a9.5 9.5 0 0 1 3.08-4.77c.31-.27.67-.45 1.07-.54Z" fill="#CD9F53"/><path d="M32.72 22.08a.05.05 0 0 1-.07.06c-1.1-.45-2.72-.35-3.85-.13a.15.15 0 0 1-.16-.07.15.15 0 0 1-.02-.06l-.08-.8c0-.05 0-.08.03-.12a.16.16 0 0 1 .1-.06 5.2 5.2 0 0 1 3.31.33c.43.2.67.48.74.85Z" fill="#519F37"/><path d="M39.37 21.84h.01l.02-.01a.03.03 0 0 1 .02 0l.02.02c.1.1.19.19.25.27.05.07.08.13.06.15l-.05.06c-.02.02-.08 0-.17-.04a1.83 1.83 0 0 1-.29-.22l-.02-.01a.03.03 0 0 1 0-.02.03.03 0 0 1 0-.03l.15-.17Z" fill="#CD9F53"/><path d="M33.35 23.25a.04.04 0 0 1 .07-.02c.8 2.2-1.18 2.84-2.86 2.85a10.1 10.1 0 0 1-4.02-.8c-.43-.18-.84-.34-1.13-.6a.45.45 0 0 1-.11-.52c.5-1.04 2.57-1.72 3.65-1.9a.04.04 0 0 1 .04.02l.01.03v.02c-.08.2-.22.38-.27.6-.3 1.22.04 2.06 1 2.5.73.35 1.89.38 2.55.03.9-.47 1.06-1.28 1.07-2.21Z" fill="#FFFEFF"/><path d="M40.45 23.74a.04.04 0 0 1 .03-.04h.03l.02.03c.25.5-.16 1.24-.57 1.49-1.71 1.05-4.45.53-6.24-.14a.1.1 0 0 1-.06-.08 2.32 2.32 0 0 0 .1-1.54.13.13 0 0 1 .09-.15 13.37 13.37 0 0 1 2.67-.8.07.07 0 0 1 .04.06v.04c-.64 1.53.38 2.81 2 2.75 1.06-.04 1.69-.58 1.89-1.62ZM32.45 23.83c.31-.1.49-.43.4-.72a.58.58 0 0 0-.75-.36.58.58 0 0 0-.4.73c.1.3.44.45.75.35Z" fill="#FFFEFF"/><path d="M39.42 23.92a.53.53 0 1 0 0-1.07.53.53 0 0 0 0 1.07ZM30.28 23.78c.19-.05.3-.23.26-.4-.05-.17-.23-.27-.42-.22-.18.05-.3.23-.26.4.05.17.23.27.42.22ZM38.01 23.64c.14-.01.25-.13.24-.25-.01-.13-.14-.22-.29-.2-.14.01-.25.13-.24.25.02.13.15.22.29.2Z" fill="#FFFEFF"/><path d="m24.86 23.5.27.18a.12.12 0 0 1 .05.15c-.29.7-.17 1.01.5 1.35 1.76.89 3.64 1.26 5.62 1.11a4.83 4.83 0 0 0 1.53-.36l.03.01a.06.06 0 0 1 0 .07c-.08.15-.2.27-.39.37-1.13.65-2.4 1.07-3.79 1.25a.13.13 0 0 0-.12.13v.05a.06.06 0 0 0 .07.06c1.2-.1 3.86-.62 4.48-1.83a.14.14 0 0 0 0-.14.12.12 0 0 1 .01-.15l.29-.33a.16.16 0 0 1 .17-.05c1.23.41 2.48.64 3.76.69a6.36 6.36 0 0 0 2.26-.31.11.11 0 0 1 .09.08v.06c-.47 1.5-2.13 1.44-3.38 1.13a.84.84 0 0 1-.4-.23 2.85 2.85 0 0 0-1.1-.68.05.05 0 0 0-.03.07c.05.1.1.18.18.22.6.39 1.1.85 1.47 1.4a.13.13 0 0 0 .16.05l.04-.02a.06.06 0 0 0 .04-.04.06.06 0 0 0 0-.05l-.16-.23a.04.04 0 0 1 0-.04.04.04 0 0 1 .03-.02l1.35.06c.05 0 .1.02.13.05.4.42.6.9.58 1.47a.13.13 0 0 1-.09.12 36.6 36.6 0 0 1-11.54 1.27 21.65 21.65 0 0 1-2.84-.31.19.19 0 0 0-.07.03c-.79.6.92 1.34 1.38 1.54.86.37 1.83.66 2.94.87 1.83.35 3.79.5 5.86.46.54-.01 1.06-.06 1.58-.15.16.1.19.2.09.32a3 3 0 0 1-1.4.85c-2 .67-4.01.78-6.06.33-2.35-.52-4.57-2.37-5.95-4.32a.25.25 0 0 1 0-.3c.7-.92 1.23-1.93 1.61-3.04.1-.28.22-.82.36-1.6.1-.55.23-1.08.4-1.6Z" fill="#519F37"/><path d="M25.3 30.86a.08.08 0 0 0-.08.11l.04.04c.23.12.5.2.82.24 2.24.32 4.3.52 6.16.59 1.34.05 2.8-.08 4.4-.38.73-.13 1.43-.43 2.08-.7a.19.19 0 0 1 .23.07l.03.09c0 .12-.03.25-.1.4a.42.42 0 0 1-.08.1c-1 .92-2.73 1.17-4.05 1.25a24.8 24.8 0 0 1-7.76-.73 6.67 6.67 0 0 1-2.87-1.43v-.05a.09.09 0 0 1 .09-.05c.6.03 1.57.22 2.4.27 2.59.15 5.2.02 7.83-.39 1.5-.23 2.84-.6 4.32-.91.27-.06.47-.02.6.1.05.06.07.13.07.2 0 .08-.04.16-.1.22-.27.3-.62.55-1.02.73-2.02.92-4.79 1.05-7.13.85l-4.8-.42c-.35-.03-.68-.16-1.08-.2Z" fill="#DA7B67"/><path d="M20.15 34.72c.08.01.13.06.14.14.02.1.04.17.06.2.35.59.55 1.2-.09 1.69-.7.53-1.72.46-2.5.22a.29.29 0 0 0-.37.24c-.04.22-.12.33-.27.33a3.04 3.04 0 0 1-.33-1.86l.04-.02a.08.08 0 0 1 .08.01l.53.5a.4.4 0 0 0 .13.08l1.6.6a.18.18 0 0 0 .2-.03l.04-.05a.06.06 0 0 0 0-.1l-.03-.01c-.89-.18-1.4-.72-1.55-1.64a.08.08 0 0 1 .08-.09c.01 0 .03 0 .04.02.67.57 1.77.7 2.2-.23Z" fill="#FBCE63"/><path d="M32.22 37.94c-.44 1.35-1.3 2.08-2.59 2.2-.27-.1-.6-.05-1 .14a.45.45 0 0 1-.52-.1 3.1 3.1 0 0 0-1.83-.84c-.87-.13-1.72-.24-2.56-.32a.3.3 0 0 1-.24-.17l-.56-1.2a.07.07 0 0 1 0-.05.07.07 0 0 1 .04-.04c.4-.19.87-.37 1.38-.56.47-.16.3-1.04.26-1.61a.12.12 0 0 1 .05-.1.12.12 0 0 1 .11-.03 15.73 15.73 0 0 0 5.9.75.12.12 0 0 1 .06.07l.01.04v1.77a.08.08 0 0 0 .08.08h.06a.08.08 0 0 0 .06-.02.09.09 0 0 0 .02-.06v-.36a.1.1 0 0 1 .05-.08.1.1 0 0 1 .08 0l1.14.5Z" fill="#447A30"/><path d="M35.12 36.18c-.07.62-.45 1.08-1.12 1.4l-.64.3-.9-.13a.93.93 0 0 1-.21-.06l-1.21-.53a.1.1 0 0 1-.07-.1v-.98c0-.03.01-.05.03-.06a13.86 13.86 0 0 0 2.85-.53.25.25 0 0 1 .28.1c.2.31.53.5 1 .59Z" fill="#CD9F53"/><path d="m33.36 37.89.64-.31c.67-.32 1.05-.78 1.12-1.4.41.01.8-.09 1.14-.31a.12.12 0 0 1 .12 0 .12.12 0 0 1 .06.1c0 .5-.13 1.02-.38 1.52-.3.57-.98 1.32-1.69 1.1a.31.31 0 0 1-.13-.1 2.61 2.61 0 0 0-.88-.6Z" fill="#FBCE63"/><path d="M23.31 39.08c-.47.13-.95.18-1.45.13a3.02 3.02 0 0 0-.72-.85.25.25 0 0 1-.05-.37.26.26 0 0 1 .11-.08l.84-.32a.49.49 0 0 1 .6.22l.67 1.27Z" fill="#DA7B67"/><path d="m32.22 37.94.3.13a.17.17 0 0 1 .09.11c.12.49.2.87.2 1.14.06 1.08.07 2.09.04 3.02a.36.36 0 0 1-.25.34c-.4.13-.8.22-1.17.27-1.95.25-3.85.26-5.69.02-.51-.07-1.1-.14-1.21-.76a17.85 17.85 0 0 0-.8-2.85.08.08 0 0 1 .09-.06c.92.06 1.78.17 2.56.32.8.15 1.15.35 1.73.9a.37.37 0 0 0 .39.07l1.13-.44c1.29-.13 2.15-.86 2.6-2.2Z" fill="#519F37"/><path d="M34.68 43.54c-.13.1-.26.17-.4.22a17.18 17.18 0 0 1-11.02.48.38.38 0 0 1-.19-.13c.08-.2.11-.4.09-.6-.18-1.51-.61-2.95-1.3-4.3.5.05.98 0 1.45-.13.42 1 .73 2.04.95 3.15.11.61.52.82 1.2.94 1.95.34 4.04.34 6.27-.01.4-.07.79-.2 1.14-.37a.43.43 0 0 0 .23-.35c.09-1.48.02-2.86-.2-4.14a.22.22 0 0 1 .31-.22l.42.23a.7.7 0 0 1 .34.5c.13.81.2 1.3.21 1.45.05.73.07 1.56.04 2.5 0 .27.15.53.46.78Z" fill="#FB7FB1"/><path d="M22.82 44.09c-1.99-.65-3.75-1.6-5.28-2.83a1 1 0 0 1-.2-.23l.34-.53c.62-1.12 1.72-1.48 2.9-1.99a.35.35 0 0 1 .37.06l.27.23.12.13c.53.74.97 1.85 1.33 3.34.17.76.23 1.36.15 1.82ZM37 42.26c-.01.07-.04.12-.08.15-.54.38-1.17.71-1.9.98-.8-.17-.15-1.04.08-1.39a.09.09 0 0 0 0-.1.09.09 0 0 0-.12-.01c-.13.1-.25.22-.33.37a.1.1 0 0 1-.18-.06 16.15 16.15 0 0 0-.22-3.3.09.09 0 0 1 .06-.05h.05c.28.1.67.27 1.16.5 1.15.54 1.19 1.9 1.48 2.9Z" fill="#519F37"/><path fill-rule="evenodd" d="M28 44.5a16.5 16.5 0 1 0 0-33 16.5 16.5 0 0 0 0 33Zm0 .5a17 17 0 1 0 0-34 17 17 0 0 0 0 34Z" fill="#050405"/></svg>