<svg width="112" height="112" viewBox="0 0 56 56" xmlns="http://www.w3.org/2000/svg"><rect fill="#F0F3FA" width="56" height="56" rx="28"/><path d="M37.26 12H18.74A6.74 6.74 0 0 0 12 18.74v18.52A6.74 6.74 0 0 0 18.74 44h18.52A6.74 6.74 0 0 0 44 37.26V18.74A6.74 6.74 0 0 0 37.26 12Z" fill="#D41072"/><path d="M29.97 15.44c-.49.16-2.1 2.08-3 3.35-.65.94-1.8 3.12-2.3 4.1a94.02 94.02 0 0 0 2.3 4.62c.08-1.58.17-3.14.29-4.32.19-1.92.95-4 1.65-5.59a32.32 32.32 0 0 1 1.06-2.16Zm-5.63 7.92c-1.34-.18-2.7-.29-4.06-.33-2.04-.06-4.19.09-4.63.39l.05.01c.32.11.72.27 1.19.45.93.37 2.11.86 3.31 1.39a75.97 75.97 0 0 1 5.6 2.62c.23.13.6.28 1.06.44a55.32 55.32 0 0 1-2.52-4.97Zm-8.58.62c.49.75 1.83 1.87 2.96 2.82l.34.28c.9.78 1.72 1.64 2.46 2.57l2.86-.56c.6-.1 1.24-.25 1.9-.44-.3-.11-.55-.22-.74-.33a76.26 76.26 0 0 0-5.54-2.6 113.47 113.47 0 0 0-4.24-1.74Zm5.74 6.18c-.3.72-1 2.44-1.38 3.92a28.76 28.76 0 0 0-.59 5.48c.4-1.24.94-2.7 1.44-3.75a17.57 17.57 0 0 1 5.1-6.59c-.55.15-1.09.28-1.6.37l-2.97.57Zm-1.48 9.53.09-.1c.6-.65 2.63-2.8 3.78-3.7.91-.69 1.87-1.32 2.87-1.88a304.02 304.02 0 0 1 .15-4.9c-.35.35-.68.66-.97.9a17.07 17.07 0 0 0-4.52 6c-.48 1.03-1 2.45-1.4 3.68Zm7.24-5.51c.54.36 1.7 1.18 3.74 2.68 2.97 2.22 3.62 3.4 3.62 3.4.03.04.06.08.1.1-.43-1.68-1.69-3.69-3.09-5.6A88.31 88.31 0 0 0 29.5 32l-.12-.15a52.82 52.82 0 0 1-1.57-2.03l-.4-.59a249.4 249.4 0 0 0-.14 4.95Zm7.64 6.34c.15.09.2.01.2.01l.02-.06-.22.05Zm.28-.36c.07-.55.13-1.8-.28-4.07-.53-2.96-2-5.4-2.33-5.91a80.26 80.26 0 0 1-4.6-1.01l.23.35c.39.54.93 1.23 1.56 2.01l.12.15c.67.85 1.43 1.8 2.16 2.79 1.37 1.87 2.67 3.92 3.14 5.7Zm-2.19-10.42a22 22 0 0 1 5.23-2.4c.2-.06.47-.12.75-.18.5-.1 1.04-.22 1.3-.4h-.04a29.2 29.2 0 0 0-2.2-.12c-1.37-.03-3.09.01-4.49.3-1.34.28-2.81.78-4.3 1.28l-.24.08-1.04.35a83.04 83.04 0 0 0 4.83 1.06l.19.03h.01Zm7.44-3.17a.2.2 0 0 0 0-.04v.04Zm-.2-.31c-.64-.5-2.68-1.22-4.2-1.54a24.21 24.21 0 0 0-5.06-.28 88.3 88.3 0 0 1-3.16 3.73l1.03-.34.25-.09c1.48-.5 2.98-1 4.35-1.29 1.46-.3 3.22-.34 4.6-.3a37.06 37.06 0 0 1 2.19.1Zm-9.78-1.96c-.1-.65-.45-3.04-.45-4.04 0-.9.07-1.8.14-2.6.05-.66.1-1.23.08-1.63-.23.46-.54 1.07-.85 1.77-.7 1.58-1.43 3.6-1.61 5.44-.13 1.24-.23 2.9-.3 4.57a56.57 56.57 0 0 0 2.99-3.51Z" fill="#fff"/></svg>