<svg width="112" height="112" viewBox="0 0 56 56" xmlns="http://www.w3.org/2000/svg"><path d="M20.75 37.5a.04.04 0 0 0 .05.02.04.04 0 0 0 .02-.05l-.11-2.63a.14.14 0 0 0-.04-.09.13.13 0 0 0-.08-.04 11.04 11.04 0 0 1-6.6-3.03c-2.17-2.11-2.36-5.79-1.54-8.64.03-.13.04-.26.03-.38-.22-2.23-.43-4.41.02-6.45.59-2.63 3.03-2.37 4.91-1.48.65.3 1.3.7 1.98 1.2a.58.58 0 0 0 .52.09 9.93 9.93 0 0 1 4.13-.39.55.55 0 0 0 .5-.22c.8-1.09 1.5-2.04 2.74-2.37 1.44-.38 2.5 1.96 2.96 3.08a.14.14 0 0 0 .15.1l.06-.03c5.96-4.13 14.76-1.03 16.32 6.28.97 4.54-1.2 9.24-5.4 11.34a10.87 10.87 0 0 1-9.75.09.1.1 0 0 0-.09.07v.07c.63 2.6.95 5.12.46 7.72a4.61 4.61 0 0 1-1.2 2.46c-1.21 1.23-2.6-.82-3.06-1.84a.32.32 0 0 0-.33-.2.32.32 0 0 0-.18.1.33.33 0 0 0-.1.17c-.07.37-.15.7-.24.99-.53 1.61-2.1 2.13-3.33.8-.2-.2-.41-.45-.63-.72a.3.3 0 0 0-.27-.11c-2.06.28-3.36-.65-3.9-2.8a.3.3 0 0 0-.11-.16.3.3 0 0 0-.18-.07c-2.3.05-2.14-3.43-.14-3.93 1-.25 1.81.1 2.43 1.05Z" fill="#221918"/><path d="M27.62 13.7a9.2 9.2 0 0 0-.85 3.17 2.23 2.23 0 0 0-1.51-.7.15.15 0 0 1-.12-.22 6.3 6.3 0 0 1 1.44-1.65c.24-.2.59-.4 1.04-.6Z" fill="#B6D8E3"/><path d="M27.78 30.55a9.03 9.03 0 0 1-6.83 1.73c-.57-.08-1.1-.32-1.59-.44a4.4 4.4 0 0 1-1.14-.46c-2.47-1.38-3.64-3.61-3.5-6.69.04-.87.17-2.11.38-3.73.03-.28-.06-.49-.27-.62 1.33-1.6 3.6-2.87 5.47-3.57 1.71-.65 3.8-.12 5.67.4.28.08.54-.02.8-.3a9.2 9.2 0 0 1 .85-3.18 5.9 5.9 0 0 1 1.98 2.92.26.26 0 0 1-.09.29 10.25 10.25 0 0 0-3.44 5.88.13.13 0 0 1-.14.1c-1.3-.04-.53 1.93-.15 2.46.1.13.15.27.17.42.2 1.7.8 3.3 1.83 4.8Z" fill="#fff"/><path d="M14.72 14.9c-.23 1.4-.18 2.8.15 4.21a9.88 9.88 0 0 0-1.63 2.23.06.06 0 0 1-.08-.01 16.99 16.99 0 0 1-.1-3.6c.1-1.21.27-2.65 1.66-2.84Z" fill="#B6D8E3"/><path d="M14.87 19.11c-.33-1.4-.38-2.8-.15-4.22 1.44-.01 2.76.68 3.92 1.5a.14.14 0 0 1 .04.19 16.23 16.23 0 0 0-3.8 2.54Z" fill="#fff"/><path d="M45.73 27.41A7.84 7.84 0 0 1 44.8 29c-.31.31-.59.67-.83 1.07a.7.7 0 0 1-.13.16c-2.01 1.82-3.98 3.12-6.79 3.15-6.28.08-10.92-5.2-9.25-11.53a9.9 9.9 0 0 1 3.06-4.9c.26-.24.55-.45.9-.63a9.9 9.9 0 0 1 12.75 2.97 8.94 8.94 0 0 1 1.22 8.13Z" fill="#67BD61"/><path d="M30.86 16.95a9.9 9.9 0 0 0-3.06 4.89c-1.67 6.33 2.97 11.6 9.25 11.53 2.81-.03 4.78-1.33 6.79-3.15a.7.7 0 0 0 .13-.16c.24-.4.52-.76.83-1.07.19-.2.5-.73.93-1.58-.06.35-.14.65-.24.89a9.84 9.84 0 0 1-13.75 4.72 9.46 9.46 0 0 1-4.95-9.75 9.38 9.38 0 0 1 2.64-5.25c.43-.44.9-.8 1.43-1.07Z" fill="#417E47"/><path d="M14.83 20.34c.21.13.3.34.27.62-.21 1.62-.34 2.86-.38 3.73-.14 3.08 1.03 5.3 3.5 6.7.4.21.77.37 1.14.45.48.12 1.02.36 1.59.44a9.03 9.03 0 0 0 6.83-1.73l1.14 1.36a.13.13 0 0 1-.04.2 19.23 19.23 0 0 1-6.93 1.78 9.93 9.93 0 0 1-6.6-2.06 5.8 5.8 0 0 1-2.26-3.44c-.7-3.01-.13-5.7 1.74-8.05ZM28.26 34.7a.99.99 0 0 0-1.08.2l-2.05-.61c-.01 0-.02 0-.03-.02a.05.05 0 0 1 0-.05l.03-.02a16.13 16.13 0 0 0 4.5-1.62c.01 0 .03 0 .04.02a.08.08 0 0 1 0 .1l-1.4 2Z" fill="#B6D8E3"/><path d="M29.23 35.9a.06.06 0 0 1-.05.02.06.06 0 0 1-.04 0l-.17-.13a.75.75 0 0 1-.13-.11.55.55 0 0 1-.08-.13.3.3 0 0 1-.03-.12c0-.04 0-.07.02-.1l1.48-2.09c.04-.05.11-.07.2-.06.1 0 .2.05.3.12l.16.12a.06.06 0 0 1 .03.07l-.01.02-1.68 2.39Z" fill="#8FBF8A"/><path d="M25.26 34.94c-.62.29-1.3.43-2.03.43-.1 0-.2.04-.26.11a.37.37 0 0 0-.1.26c-.02 1.03.06 2.1.24 3.21a6.85 6.85 0 0 0 2.83 4.64c-.17.45-.54.67-1.1.63-.2 0-.47-.21-.83-.61-2-2.22-2.54-5.88-2.49-8.75l.03-.06a.1.1 0 0 1 .06-.03l3.22-.46a.07.07 0 0 1 .07.04.07.07 0 0 1-.01.09.95.95 0 0 1-.06.05c-.04.03-.04.08-.03.14.04.14.2.24.46.3Z" fill="#B6D8E3"/><path d="m28.26 34.7-.22.3a.19.19 0 0 1-.2.06l-.66-.16a.99.99 0 0 1 1.08-.2Z" fill="#fff"/><path d="M30.78 43.02a4.56 4.56 0 0 1-1.68-1.66c-.05-.2-.21-.29-.4-.2a4.28 4.28 0 0 1-3.04.22.36.36 0 0 0-.4.14.37.37 0 0 0-.06.14l-.02.11a.31.31 0 0 0 .13.31.3.3 0 0 0 .1.05l.8.15c.03 0 .05.03.08.05.02.03.03.06.02.1-.02.37-.14.76-.36 1.16a6.85 6.85 0 0 1-2.84-4.64c-.17-1.1-.26-2.18-.25-3.21 0-.1.04-.2.11-.26.07-.07.16-.1.26-.1.73 0 1.41-.15 2.03-.44 1.34.36 2.27.64 2.79.83.52.2.83.75.53 1.33-.74 1.38-3.14.65-4.2.28a.26.26 0 0 0-.3.1.27.27 0 0 0-.04.1l-.02.1a.24.24 0 0 0 .17.27l1.52.44c.17.34.4.62.72.85.3.2.64.31 1.04.32 1.18.02 1.7-.66 1.55-2.06l1.81-2.5a.05.05 0 0 1 .1.02c.67 2.58.83 5.47-.15 8ZM20.7 40.35c-.2.84.05 1.33.14 2.08a2.8 2.8 0 0 1-1.35-2.23.72.72 0 0 1 .05-.35l.27-.64a.4.4 0 0 0-.26-.54.38.38 0 0 0-.48.26c-.43 1.46-1.84.3-1.44-.8.36-.96 1.45-1.28 2.18-.57.14.14.24.47.31.97.1.65.29 1.25.58 1.82Z" fill="#fff"/><path d="M29.02 37.5c.15 1.4-.37 2.08-1.55 2.06-.4 0-.75-.11-1.04-.32-.31-.23-.55-.51-.72-.85 1.28.12 2.42.3 3.3-.89ZM20.84 42.43c-.09-.75-.35-1.24-.14-2.08l.87.62c.06.04.1.1.13.16l.6 1.38a.11.11 0 0 1-.04.13.1.1 0 0 1-.04.02 2 2 0 0 1-1.38-.23ZM30.78 43.02c-.15.28-.33.5-.56.68-.2.15-.37.17-.51.07a4.32 4.32 0 0 1-1.24-1.64.16.16 0 0 1 0-.11.15.15 0 0 1 .06-.09c.39-.24.58-.43.57-.57.4.68.96 1.24 1.68 1.66Z" fill="#B6D8E3"/><path d="M20.67 26.03c.26.8.83 1.34 1.27 1.2.44-.15.58-.93.32-1.74-.27-.8-.84-1.34-1.27-1.2-.44.15-.58.93-.32 1.74Z" fill="#221918"/><path d="m18.65 28.36-1.24.6a.4.4 0 0 0-.18.53v.02c.1.2.33.28.52.18l1.24-.6a.4.4 0 0 0 .18-.52l-.01-.03a.38.38 0 0 0-.51-.18ZM18.67 30.52c-.24.27-.3.62-.14.78.18.16.52.07.76-.21.25-.28.31-.63.14-.79-.17-.15-.51-.06-.76.22ZM44.63 24.78a7.85 7.85 0 0 1-2.47 5.62 8.18 8.18 0 0 1-5.8 2.26 8.32 8.32 0 0 1-5.75-2.42 8 8 0 0 1-2.32-5.69 7.85 7.85 0 0 1 2.47-5.62 8.18 8.18 0 0 1 5.81-2.26 8.32 8.32 0 0 1 5.74 2.43 8 8 0 0 1 2.32 5.68Z" fill="#1F1B15"/><path d="m41.1 30.27-1.12.44c-.46.19-.84.32-1.14.39-2.32.53-4.33 0-6.03-1.6 1.09-2.04 1.7-3.97 1.16-6.25a10 10 0 0 0-1.57-3.47c.35-.55.83-.99 1.42-1.32.61-.35 1.09-.65 1.42-.9a7.57 7.57 0 0 1 6.66 2.22 7.13 7.13 0 0 1 1.35 7.7 7.24 7.24 0 0 1-2.15 2.79Z" fill="#8FBF8A"/><path d="M35.24 17.56c-.33.25-.8.55-1.42.9-.6.33-1.07.77-1.42 1.32-.29.07-.45.17-.5.3a.6.6 0 0 0 0 .32.64.64 0 0 0-.34.3c-1.6 2.9-1.38 5.66.65 8.26l-.25.53c-.08.17-.04.3.1.43a.34.34 0 0 0 .5-.07l.25-.35c1.7 1.6 3.7 2.13 6.03 1.6.3-.07.68-.2 1.14-.39l1.12-.44a7.5 7.5 0 0 1-11.44-2.75 7.05 7.05 0 0 1 1.12-7.46 7.45 7.45 0 0 1 4.46-2.5Z" fill="#69A463"/><path d="M31.9 20.4c1.88 2.87 1.95 5.53.3 8.56-2.02-2.6-2.23-5.36-.64-8.27a.64.64 0 0 1 .34-.29Z" fill="#8FBF8A"/><path d="M39.04 18.88c.87.33 1.61 1.08 2.23 2.24a.6.6 0 0 1-.1.7l-.02.02a.39.39 0 0 1-.6-.06l-.47-.8a3.1 3.1 0 0 0-3.28-1.48c-.54.1-.84.16-.9.16a.39.39 0 0 1-.4-.24.4.4 0 0 1-.03-.17v-.02a.58.58 0 0 1 .45-.55c1.26-.3 2.3-.23 3.12.2ZM41.72 23.9c.32 0 .58-.27.58-.6a.58.58 0 0 0-.58-.58.58.58 0 0 0-.58.59c0 .32.26.58.58.58Z" fill="#fff"/></svg>