<svg width="56" height="56" viewBox="0 0 56 56" xmlns="http://www.w3.org/2000/svg"><rect fill="#F0F3FA" width="56" height="56" rx="28"/><circle cx="28" cy="28" r="16" fill="#FECB94"/><path d="M32.46 32c-.12-.12-.3-.03-.54.25a10.5 10.5 0 0 0-2.05 3.96 16.27 16.27 0 0 0-.38 7.03c-1.94.25-3.87.1-5.79-.43a20.35 20.35 0 0 1-4.2-1.92.15.15 0 0 1 0-.19 6.86 6.86 0 0 0 1.47-3.48.14.14 0 0 1 .09-.07h.05c1 .19 2.03.33 3.05.45 1.24.14 2.57.24 2.78-1.2.06-.34-.01-.77-.22-1.28a27.3 27.3 0 0 0-5.1-8.25.22.22 0 0 1 .07-.25 10.45 10.45 0 0 1 6.17-2.36c.68-.03 1.23.13 1.65.63a.28.28 0 0 0 .33.08l2.47-1.04a.28.28 0 0 1 .3.05c.71.68 1.56 1.05 2.54 1.13a.22.22 0 0 1 .2.2c.02.47-.19.66-.43 1a16.56 16.56 0 0 1-4.94 4.53c-.15.09-.18.2-.1.35l.33.56c.08.15.2.17.33.09a18.43 18.43 0 0 0 5.4-5.06.16.16 0 0 1 .2.06c.09.13.1.29.01.47a10.52 10.52 0 0 1-3.42 4.28.63.63 0 0 0-.27.4Zm-4-5.57c-.84-1.9-3.66-.74-2.82 1.17.03.06.07.09.14.09 1.01-.04 1.89-.4 2.63-1.08a.16.16 0 0 0 .04-.18Z" fill="#E57C45"/><path d="M25.64 27.6c-.84-1.9 1.98-3.07 2.81-1.17a.16.16 0 0 1-.04.18 3.96 3.96 0 0 1-2.63 1.08.14.14 0 0 1-.14-.09Z" fill="#55322B"/><path d="M20.7 27.78c1.08 1.8 1.94 3.69 2.58 5.65.32.97.48 1.98.46 3a27.22 27.22 0 0 1-5.43-1.22.33.33 0 0 1-.23-.3c-.07-2.64.72-5 2.38-7.07.05-.07.14-.1.25-.06Z" fill="#E57C45"/><path d="M23.74 36.43a9.24 9.24 0 0 0-.46-3 27.93 27.93 0 0 0-2.57-5.65c.16.02.3.12.38.3.02.05.06.08.12.08.04.01.08.03.1.07l.06.1c.56.59 1.06 1.23 1.5 1.9.86 1.32 1.79 2.73 2.35 4.2.22.56.6 1.1.67 1.72a.38.38 0 0 1-.21.39.38.38 0 0 1-.15.04 6.1 6.1 0 0 1-1.79-.15Z" fill="#90351A"/><path d="M32.46 32c-.57 3.68-.15 6.87.36 10.34l-.01.08a.12.12 0 0 1-.07.05c-.99.37-2.07.63-3.25.77-.38-2.37-.26-4.71.38-7.03a10.5 10.5 0 0 1 2.05-3.96c.24-.28.42-.37.54-.26Z" fill="#FFBFB5"/><path fill-rule="evenodd" d="M19.54 40.93a.16.16 0 0 1-.04-.23 6.86 6.86 0 0 0 1.47-3.48.13.13 0 0 1 .09-.07h.05c1 .19 2.02.33 3.05.45 1.24.14 2.57.24 2.78-1.2.06-.34-.02-.77-.22-1.28a27.3 27.3 0 0 0-5.1-8.25.23.23 0 0 1 .07-.25 10.45 10.45 0 0 1 6.17-2.36c.68-.03 1.23.13 1.65.63a.28.28 0 0 0 .33.08l2.47-1.04a.28.28 0 0 1 .16-.02c.06 0 .1.03.15.07a4.02 4.02 0 0 0 2.6 1.15.22.22 0 0 1 .13.19c.02.39-.13.58-.32.84l-.11.15a16.56 16.56 0 0 1-4.94 4.53c-.15.09-.18.2-.1.35l.33.56c.08.15.2.17.33.09a18.43 18.43 0 0 0 5.4-5.06.16.16 0 0 1 .2.06c.09.13.1.29.01.47a10.52 10.52 0 0 1-3.42 4.28.63.63 0 0 0-.27.4c-.57 3.7-.17 6.96.35 10.43 0 .02.01-.03 0 0 0-.03 1.09-.54 1.09-.54a26.4 26.4 0 0 1-.45-9.08c.05-.47.2-.6.47-.8.07-.05.14-.1.22-.18 2.46-2.08 4.15-3.93 2.3-6.28a.2.2 0 0 1-.04-.16c.01-.11.04-.23.07-.36.3-1.21-.55-2.2-1.35-2.97a.18.18 0 0 0-.16-.05c-1.7.42-3.35.98-4.94 1.7a.18.18 0 0 1-.17 0c-.14-.07-.25-.14-.36-.21a1.39 1.39 0 0 0-.8-.3 11.09 11.09 0 0 0-9.02 3.92 11.19 11.19 0 0 0-2.6 8.72.27.27 0 0 0 .17.17l2.27.73a.15.15 0 0 1 .1.17c-.2 1.01-.5 2.2-1.23 2.95a.17.17 0 0 1-.22.01c.22.2 1.35 1.05 1.38 1.07Zm4.2-4.5a6.1 6.1 0 0 0 1.85.14.38.38 0 0 0 .3-.42c-.05-.41-.24-.8-.42-1.17l-.25-.55a22.77 22.77 0 0 0-2.28-4.08l-.07-.11a14.26 14.26 0 0 0-1.66-2.08.15.15 0 0 1-.12-.08c-.09-.18-.22-.28-.38-.3-.11-.03-.2-.01-.25.06A10.5 10.5 0 0 0 18.1 35a.33.33 0 0 0 .2.2c1.76.59 3.57 1 5.44 1.22Z" fill="#55322B"/><path fill-rule="evenodd" d="M28 42a14 14 0 1 0 0-28 14 14 0 0 0 0 28Zm0 2a16 16 0 1 0 0-32 16 16 0 0 0 0 32Z" fill="#55322B"/></svg>