<svg width="112" height="112" viewBox="0 0 56 56" xmlns="http://www.w3.org/2000/svg"><path d="m43 36.72-4-20.74a.04.04 0 0 0-.03-.02L27.94 12h-.02l-10.95 3.95a.04.04 0 0 0-.02.03L13 37.12v.02l.02.02L28.2 46a.04.04 0 0 0 .04 0l14.74-9.24.02-.02v-.02ZM20.76 24.1l-.01-.02-2.88-7.52a.04.04 0 0 1 .02-.05l9.48-3.42a.04.04 0 0 1 .05.01.04.04 0 0 1 0 .05l-6.6 10.94-.01.01h-.05Zm7.89-10.94h.02l9.39 3.35a.04.04 0 0 1 .02.04v.01l-2.75 7.52a.04.04 0 0 1-.06.02l-.01-.01-6.64-10.88a.04.04 0 0 1 .03-.05Zm2.27 22.97h-.02l-5.49.06a.04.04 0 0 1-.03-.03l-4.22-11a.04.04 0 0 1 0-.03l6.8-11.28a.04.04 0 0 1 .04-.02h.02l.02.02 6.88 11.3a.04.04 0 0 1 0 .03L30.94 36.1l-.01.02ZM37.4 20.8l.89-2.4c.07-.2.12-.36.15-.51.03-.12.05-.12.08 0l3.23 16.75c.02.09 0 .1-.05.02-1.9-3.15-3.83-6.3-5.76-9.47a.36.36 0 0 1-.03-.32l1.5-4.07ZM17.5 17.9l2.68 7c.04.1.03.19-.02.27L14.3 34.9c-.04.06-.05.05-.04-.02l3.17-16.96c.02-.09.04-.09.07-.01Zm3.13 8.18v.02l3.85 10.04v.02a.04.04 0 0 1-.03.03l-10 .15a.04.04 0 0 1-.03-.03v-.02l6.15-10.2.02-.01a.04.04 0 0 1 .04 0Zm11.2 10v-.02l3.63-9.94a.04.04 0 0 1 .07 0l5.98 9.8a.04.04 0 0 1 0 .04.04.04 0 0 1-.03.02l-9.62.12h-.01l-.02-.01v-.02Zm-.31.85h.02l9.67-.14a.04.04 0 0 1 .04.03.04.04 0 0 1-.02.05L28.75 44.7a.04.04 0 0 1-.06-.05l2.81-7.7h.02Zm-.92.04V37l-2.36 6.45-.01.02a.04.04 0 0 1-.05 0l-.01-.02-2.44-6.38a.04.04 0 0 1 .03-.05l4.8-.07a.04.04 0 0 1 .04.03Zm-15.79.2c.01-.01.02-.02.03-.01l9.95-.14h.02l.02.03 2.92 7.63a.04.04 0 0 1-.06.05l-12.87-7.5a.04.04 0 0 1-.02-.04l.01-.03ZM26 22h-2v7h2v-2.5h4V29h2v-7h-2v2.5h-4V22Z" fill="#B0252F"/></svg>