<svg width="112" height="112" viewBox="0 0 56 56" xmlns="http://www.w3.org/2000/svg"><path d="M36.52 26H21.67v5h14.85v-5Z" fill="#B246FF"/><path d="M32.62 12.64a16.14 16.14 0 0 0-19.1 8.65 16.07 16.07 0 0 0 5.62 20.16l7.76-16.59 5.72-12.22Z" fill="url(#b)"/><path d="M36.86 14.55a16.07 16.07 0 0 1 5.62 20.16 16.14 16.14 0 0 1-19.1 8.65l7.76-16.58 5.72-12.23Z" fill="url(#c)"/><defs><linearGradient id="a" x1="10.42" y1="9.71" x2="68.15" y2="76.02" gradientUnits="userSpaceOnUse"><stop stop-color="#1A1E21"/><stop offset="1" stop-color="#06060A"/></linearGradient><linearGradient id="b" x1="31.32" y1="15.41" x2="-8.26" y2="10.57" gradientUnits="userSpaceOnUse"><stop stop-color="#B246FF"/><stop offset="1" stop-color="#FF6A8A"/></linearGradient><linearGradient id="c" x1="35.56" y1="17.33" x2="64.63" y2="44.57" gradientUnits="userSpaceOnUse"><stop stop-color="#B246FF"/><stop offset="1" stop-color="#FF6A8A"/></linearGradient></defs></svg>