<svg width="112" height="112" viewBox="0 0 56 56" xmlns="http://www.w3.org/2000/svg"><rect fill="url(#ak0w4u12z)" width="56" height="56" rx="28"/><path d="m25.51 27.05-.24-.33.1-.06.23.33-.09.06ZM30.54 26.28l-.44-.16.04-.1.43.16-.03.1ZM31.15 26.96l-.66-.22.04-.1.65.21-.03.1ZM28 25.97l-.19-.16.07-.08.2.16-.07.08ZM27.21 26.29h-.46v-.11h.46v.1ZM30.42 25.76l-.97-.43.05-.1.96.43-.04.1ZM25.4 25.92l-.4.22-.06-.09.4-.22.06.1ZM26.77 27.8h-.85v-.11h.85v.1ZM24.47 27.81l-.34-.37.08-.07.34.37-.08.07ZM30.19 24.54a4.43 4.43 0 0 0-1.39-.58l.03-.1c.26.05.92.25 1.42.6l-.06.08ZM26.47 24.45c-.47.14-.88.39-1.02.49l-.07-.09c.15-.1.57-.35 1.06-.5l.03.1Z" fill="#fff"/><path d="M27.18 24.3c1.14-.1 3.67.25 4.6 2.52-.37-.43-1.14-2.1-4.6-2.52ZM28.68 29.04a3.1 3.1 0 0 1-1.5-.3c.26.03.9.08 1.5.08s1.57-.41 1.97-.61a3.4 3.4 0 0 1-1.97.83Z" fill="#fff"/><path fill-rule="evenodd" d="M44 18.99 28 10l-16 8.99v17.97L28 46l16-9.04V19ZM40 20l-11-6v9.5c-.5-.18-.63-.06-1.2-.06-.42 0-.4-.54-.8-.44v-9l-11 6 8.5 4.5c-.74.6-1.23 1.08-1.5 2L15 22v12l8-4.5c.2.94.31 1.36 1 2L16 36l11 6v-9c.4.1.38 0 .8 0 .57 0 .7.18 1.2 0v9l11-6-8.7-4.57a4.66 4.66 0 0 0 1.28-2.48L41 34V22l-8 4.5c-.23-.93-.8-1.38-1.5-2L40 20Z" fill="#76928C"/><path d="M31.2 28.5a6.1 6.1 0 0 1-3.34.97c-1.49 0-2.84-.5-3.84-1.33l-.02.32c.78.43 2.26 1.15 3.01 1.15.61 0 1.09-.04 1.46-.08.25-.02.46-.04.64-.04-1.67.89-4.03-.1-5.1-.75C24.15 30.56 25.89 32 28 32c2.2 0 4-1.57 4-3.5 0-.17-.01-.34-.04-.5-.53 1.32-2.34 1.8-3.2 1.87.15-.08.33-.15.53-.22.37-.15.83-.32 1.33-.67.19-.13.39-.3.58-.48Z" fill="#fff"/><path d="M26.46 23c-.19-.37-.2-1.5 1.2-3.5.75-1.15.9-2.41.9-3.5l.14.34c.3.71.5 1.21.5 1.9 0 .73-.2 1.55-.38 2.32-.04.2-.61 2.39-.17 2.44.02-.2.15-.72.56-1.14.24-.25.55-.47.89-.7.37-.25.76-.51 1.09-.86.5-.53.67-.79.65-.85.08.11.17.34.16.65-.01.33-.23.76-.6 1.25-.89 1.2-1.07 1.67-1 2.08.13-.4.96-1.3 3.34-1.76a6.28 6.28 0 0 0 3.06-1.92l-.13.35a4.7 4.7 0 0 1-.95 1.7c-.5.54-1.2 1-1.86 1.44l-.04.02c-.66.44-1.28.85-1.74 1.5.19-.13.62-.34 1.16-.34.35 0 .72.09 1.12.17.43.1.9.2 1.37.2.73 0 .97-.12 1-.18-.04.3-.43.92-1.61 1.06-1.48.18-1.94.37-2.18.7.36-.18 1.59-.2 3.57 1.22 1.15.75 2.4.9 3.49.9l-.34.14c-.71.3-1.2.5-1.89.5-.73 0-1.55-.2-2.32-.37-.88-.21-1.6-.42-2.12-.28a.7.7 0 0 0-.33.28c.24.06.6.21.94.53.25.24.47.56.7.9.25.36.51.75.86 1.08.53.5.79.58.85.56-.23.18-.94.37-1.9-.34-.12-.1-1.82-1.39-2.05-.98.4.15 1.28.99 1.75 3.33A6.52 6.52 0 0 0 36 37l-.34-.13a4.51 4.51 0 0 1-1.64-1.04c-.53-.5-1-1.2-1.43-1.86-.5-.74-.94-1.42-1.4-1.7.11.23.21.56.21.95 0 .35-.08.72-.16 1.12-.1.43-.18.88-.18 1.36 0 .73.1.99.16 1.02-.3-.05-.92-.43-1.06-1.62-.17-1.44-.36-1.91-.67-2.16h-.02c.17.4.15 1.61-1.22 3.56a6.32 6.32 0 0 0-.9 3.5l-.14-.34c-.29-.71-.5-1.21-.5-1.9 0-.73.2-1.55.38-2.32a5.65 5.65 0 0 0 .25-2.27c0-.05-.01-.09-.08-.1-.03.23-.18.68-.55 1.07-.24.25-.56.47-.9.7a6.4 6.4 0 0 0-1.08.86c-.5.53-.59.79-.56.85-.18-.23-.37-.95.34-1.9.9-1.2 1.07-1.67 1-2.08-.12.4-.96 1.3-3.34 1.76A6.35 6.35 0 0 0 19 36l.14-.34c.27-.72.58-.97 1.05-1.47.5-.53 1.2-1 1.87-1.43a7.6 7.6 0 0 0 1.83-1.6c-.2.13-.61.32-1.13.32-.35 0-.72-.08-1.12-.17-.43-.1-.9-.2-1.37-.2-.73 0-.97.12-1 .18.04-.3.43-.92 1.61-1.06 1.48-.18 1.88-.37 2.12-.7-.36.18-1.53.2-3.5-1.22a6.27 6.27 0 0 0-3.5-.9l.34-.14c.71-.3 1.2-.5 1.89-.5.73 0 1.55.2 2.32.38.88.2 1.7.4 2.2.26.13 0 .12-.1.17-.14a5.3 5.3 0 0 1-.95-.56 5.4 5.4 0 0 1-.7-.9c-.24-.36-.5-.75-.86-1.08-.53-.5-.79-.58-.85-.56.23-.18.94-.37 1.9.34 1.2.88 1.66 1.06 2.07.98-.39-.11-1.3-.94-1.77-3.33A6.42 6.42 0 0 0 20 19c.12.05.23.1.34.13.72.28 1.06.57 1.55 1.04.53.5 1 1.2 1.44 1.86.48.74.93 1.42 1.39 1.7-.1-.23-.21-.56-.21-.95 0-.35.08-.72.17-1.12.1-.43.2-.9.2-1.38 0-.73-.13-.97-.19-1 .3.05.92.43 1.06 1.62.18 1.48.37 1.86.7 2.1Zm1.43 9.87a4.74 4.74 0 0 0 0-9.5 4.8 4.8 0 0 0-4.83 4.74c0 2.62 2.21 4.76 4.83 4.76Z" fill="#fff"/><defs><linearGradient id="ak0w4u12z" x1="8.75" y1="5.95" x2="47.08" y2="49.48" gradientUnits="userSpaceOnUse"><stop stop-color="#1D3835"/><stop offset="1" stop-color="#118065"/></linearGradient></defs></svg>