<svg width="112" height="112" viewBox="0 0 56 56" xmlns="http://www.w3.org/2000/svg"><rect fill="#181B1E" width="56" height="56" rx="28"/><rect x="18" y="25" width="24" height="1" rx=".5" fill="#F49308"/><rect x="9" y="27" width="23" height="1" rx=".5" fill="#FAFAFA"/><rect x="12" y="29" width="19" height="1" rx=".5" fill="#FAFAFA"/><rect x="17" y="31" width="8" height="1" rx=".5" fill="#F49308"/><rect x="20" y="33" width="4" height="1" rx=".5" fill="#F49308"/><path d="M35.5 27a.5.5 0 0 0 0 1h5a.5.5 0 0 0 0-1h-5ZM34 29.5c0-.28.22-.5.5-.5h5a.5.5 0 0 1 0 1h-5a.5.5 0 0 1-.5-.5Zm-.5 1.5a.5.5 0 0 0 0 1h5a.5.5 0 0 0 0-1h-5ZM32 33.5c0-.28.22-.5.5-.5h5a.5.5 0 0 1 0 1h-5a.5.5 0 0 1-.5-.5Zm-.5 1.5a.5.5 0 0 0 0 1h5a.5.5 0 0 0 0-1h-5Zm-1 2a.5.5 0 0 0 0 1h5a.5.5 0 0 0 0-1h-5Z" fill="url(#a)"/><path d="M40.5 17a.5.5 0 0 0 0 1h5a.5.5 0 0 0 0-1h-5ZM39 19.5c0-.28.22-.5.5-.5h5a.5.5 0 0 1 0 1h-5a.5.5 0 0 1-.5-.5Zm-.5 1.5a.5.5 0 0 0 0 1h5a.5.5 0 0 0 0-1h-5Zm-1 2a.5.5 0 0 0 0 1h5a.5.5 0 0 0 0-1h-5Z" fill="url(#b)"/><rect x="23" y="23" width="4" height="1" rx=".5" fill="#F49308"/><rect x="24" y="21" width="4" height="1" rx=".5" fill="#F49308"/><rect x="23" y="19" width="6" height="1" rx=".5" fill="#F49308"/><rect x="26" y="17" width="4" height="1" rx=".5" fill="#F49308"/><rect x="18" y="35" width="5" height="1" rx=".5" fill="#F49308"/><rect x="11" y="37" width="11" height="1" rx=".5" fill="#F49308"/><defs><linearGradient id="a" x1="38.51" y1="33.05" x2="32.92" y2="31.17" gradientUnits="userSpaceOnUse"><stop stop-color="#D81928"/><stop offset="1" stop-color="#A40F2C"/></linearGradient><linearGradient id="b" x1="42.97" y1="20.85" x2="38.67" y2="18.99" gradientUnits="userSpaceOnUse"><stop stop-color="#D81928"/><stop offset="1" stop-color="#A40F2C"/></linearGradient></defs></svg>