<svg width="112" height="112" viewBox="0 0 56 56" xmlns="http://www.w3.org/2000/svg"><path d="M32.08 13.57a4.32 4.32 0 0 1 2 1.84c.72 1.38 1.32 2.8 1.8 4.27.1.32.17.64.21.98a.12.12 0 0 1-.23.07l-1-1.74a.18.18 0 0 0-.14-.08.18.18 0 0 0-.15.05l-.08.08a.27.27 0 0 0-.06.31l.6 1.29a.21.21 0 0 1-.11.28l-1.26.55-2.61-3.4-.01-.02h-.01c-.07.02-.11.04-.13.08a.04.04 0 0 0 0 .04l.87 1.78.52 1.28a.33.33 0 0 1-.35.45l-1.58-.27a.59.59 0 0 1-.29-.14 4.66 4.66 0 0 1-1.2-1.8.2.2 0 0 0-.37.09c.08.54.24 1.06.48 1.57a.23.23 0 0 0 .23.13c.3-.03.56.16.75.57-.12.12-.34.2-.67.2a.46.46 0 0 0-.24.08c-.17.1-.37.18-.6.22a.27.27 0 0 1-.3-.2l-.53-1.85a.13.13 0 0 0-.23-.06.13.13 0 0 0-.03.1c-.09 2.78 1.09 4.9 2.07 7.5a.09.09 0 0 1-.11.1 9.42 9.42 0 0 1-5.07-4.6 34.25 34.25 0 0 1-1.4-3.24.08.08 0 0 0-.12.03 17.58 17.58 0 0 0 1.7 5.39l.22.45c.22.69.23 1.01.02.97l-1.49-2.1a.5.5 0 0 1-.09-.28c-.01-.77-.62-1.31-.87-2.08a20.96 20.96 0 0 1-.88-4.23l.4 1.23a.24.24 0 0 0 .22.17.25.25 0 0 0 .24-.17l.39-1.07a.2.2 0 0 1 .26-.11.2.2 0 0 1 .09.07c.23.35.52.62.86.82a.24.24 0 0 0 .35-.28l-.24-.83a.28.28 0 0 0-.1-.16c-.74-.5-1.52-.8-2.35-.91l-.21-1.68a.22.22 0 0 0-.38-.13l-.48.48a.24.24 0 0 0-.05.08l-.8 2.35c-.4-.49-.8-.85-1.2-1.1a.3.3 0 0 0-.3-.01.3.3 0 0 0-.17.24c-.05.67-.02 1.04.1 1.1a.3.3 0 0 0 .2.04l1.37-.27-.67 2.7a.29.29 0 0 1-.52.09c-.13-.2-.2-.44-.24-.7a.6.6 0 0 0-.12-.27 3.37 3.37 0 0 1-.64-2.5 15.14 15.14 0 0 1 8.56-4.27c2.06-.28 4.16-.14 6.17.43Z" fill="#CE989E"/><path d="m35.55 15.04-.9-.24a.16.16 0 0 0-.17.23l2.38 4.52-.84-.98a.05.05 0 0 0-.08.02v.03l.8 2.88c.04.1.05.22.04.33-.08.95-.03 1.85.13 2.7a.23.23 0 0 1-.27.27.23.23 0 0 1-.13-.08l-2.85-3.25 1.26-.55a.21.21 0 0 0 .1-.28l-.59-1.29a.27.27 0 0 1 .06-.3l.08-.1a.19.19 0 0 1 .15-.04.18.18 0 0 1 .14.08l1 1.74a.12.12 0 0 0 .23-.07 5.16 5.16 0 0 0-.22-.98 28.89 28.89 0 0 0-1.78-4.27 4.32 4.32 0 0 0-2.01-1.84c1.21.34 2.38.83 3.47 1.47Z" fill="#B37C80"/><path d="M35.55 15.04a15.05 15.05 0 0 1 2.86 23.87l-1.42.19a.16.16 0 0 1-.17-.23l2.8-5.73a.08.08 0 0 0 0-.07.09.09 0 0 0-.04-.05l-.09-.04a.14.14 0 0 0-.18.06 9.9 9.9 0 0 1-2.49 2.91.18.18 0 0 1-.21 0 .17.17 0 0 1-.06-.2l.53-1.33a14.1 14.1 0 0 0 3.2-7.7.15.15 0 0 0-.1-.16l-.11-.02a.12.12 0 0 0-.16.08l-.49 1.8a.08.08 0 0 1-.09.06.08.08 0 0 1-.07-.09l.2-5.8a.14.14 0 0 0-.27-.05l-.7 2.6a.38.38 0 0 1-.75-.03l-.1-.59a20.45 20.45 0 0 0-.78-4.97l-2.38-4.52a.16.16 0 0 1 .18-.23l.89.24Z" fill="#CE989E"/><path d="m21.46 16.99-.12 1.24-.1-.9a.09.09 0 0 0-.07-.07.09.09 0 0 0-.1.06l-2.14 6a.7.7 0 0 0-.03.17l-.17 1.79a.34.34 0 0 1-.35.3h-.1a.37.37 0 0 1-.36-.44 3.9 3.9 0 0 0 .05-1.54.07.07 0 0 0-.08 0 .07.07 0 0 0-.03.02l-.84 2.33a19.58 19.58 0 0 1-.3-6.4c.11-.77.15-1.3.1-1.58.17-.2.35-.38.53-.57-.1 1 .11 1.83.64 2.51.06.09.1.18.12.28.03.25.11.48.24.69a.29.29 0 0 0 .52-.08l.67-2.71.8-2.35a.24.24 0 0 1 .05-.08l.48-.48a.22.22 0 0 1 .38.13l.21 1.68Z" fill="#C18E92"/><path d="m21.34 18.23.12-1.24c.83.11 1.61.42 2.34.91.06.04.1.1.11.16l.24.83a.24.24 0 0 1-.35.28 2.6 2.6 0 0 1-.86-.82.2.2 0 0 0-.35.04l-.39 1.07a.25.25 0 0 1-.24.17.25.25 0 0 1-.23-.17l-.39-1.23ZM19.54 18.09l-1.37.27a.3.3 0 0 1-.2-.04c-.12-.06-.15-.43-.1-1.1a.31.31 0 0 1 .17-.24.3.3 0 0 1 .3 0c.4.26.8.62 1.2 1.1Z" fill="#E6D0C8"/><path d="M21.34 18.23c.15 1.44.44 2.85.88 4.23.25.77.86 1.3.87 2.08 0 .1.04.2.1.27l1.48 2.1c.07.27.21.5.42.69v.04l-.04.07-.03.03a.08.08 0 0 1-.03 0h-.03a2.62 2.62 0 0 0-.81-.66l-1.56-2.5a.36.36 0 0 0-.4-.16l-2.48.7a.44.44 0 0 0-.3.3c-.3 1.08-.08 2 .61 2.79l-.62.25a2.82 2.82 0 0 0-.42-1.19.12.12 0 0 0-.12-.05.11.11 0 0 0-.09.1c-.03.31-.02.64.03.98.02.22.13.31.33.28.09.01.03.07-.16.16-.35-.1-.65.01-.91.33a.2.2 0 0 1-.34-.05 10.47 10.47 0 0 1-.7-3.07l.84-2.33a.07.07 0 0 1 .13 0c.08.41.06.92-.07 1.52a.36.36 0 0 0 .2.4c.04.03.1.04.15.04h.1a.34.34 0 0 0 .36-.3l.17-1.8a.7.7 0 0 1 .03-.17l2.14-5.99a.09.09 0 0 1 .15-.03l.03.05.1.9Z" fill="#9F7371"/><path d="M16.81 17.97c.06.28.02.8-.1 1.58-.26 1.74-.16 3.88.3 6.4a10.47 10.47 0 0 0 .77 3.15.2.2 0 0 0 .28-.03c.26-.32.56-.43.91-.33-.85.57-.3 1.74.17 2.37a.2.2 0 0 0 .32-.03.2.2 0 0 0 .02-.13c-.19-.73-.02-1.24.5-1.56-.5.7-.55 1.4-.16 2.11a.14.14 0 0 1-.08.2h-.08c-.34-.1-.55-.49-.8-.56a.31.31 0 0 0-.18 0 .15.15 0 0 0-.1.18 7.7 7.7 0 0 0 2.53 3.89 4.86 4.86 0 0 1-3.23-3.82 1.4 1.4 0 0 0-.1-.31l-.26-.56a21.18 21.18 0 0 1-1.28-5.21c-.14-.95-.17-2.1-.07-3.43l.23-3.43.41-.48ZM33.66 21.47l2.85 3.25a.23.23 0 0 0 .4-.2c-.16-.84-.2-1.74-.13-2.69 0-.11 0-.22-.04-.33l-.8-2.88a.05.05 0 0 1 .02-.06H36l.03.01.84.98c.47 1.64.73 3.3.78 4.97a9.55 9.55 0 0 1-.26 3.07.12.12 0 0 1-.12.03.13.13 0 0 1-.06-.03.9.9 0 0 0-.39-.24.33.33 0 0 1-.22-.22.68.68 0 0 0-.34-.45.2.2 0 0 0-.23.03.19.19 0 0 0-.04.07c-.1.26-.13.56-.07.88-.14.51-.37.91-.68 1.22l-.11.01a.15.15 0 0 1-.17-.14c0-.02 0-.05.02-.07l.22-.38a.26.26 0 0 0-.03-.3.27.27 0 0 0-.3-.08l-1.16.41a2.89 2.89 0 0 0-1-.44c-.1-.12-.09-.23.03-.31a.21.21 0 0 1 .19-.02c.17.06.3.14.36.25.04.06.1.1.16.13.25.1.45.13.6.08a.35.35 0 0 0 .24-.26.28.28 0 0 0-.02-.18.26.26 0 0 0-.12-.11.97.97 0 0 1-.48-.5.44.44 0 0 1-.04-.19c0-.07.02-.14.05-.2a.54.54 0 0 1 .33-.26c.48-.13.78.06.92.57a.52.52 0 0 0 .47.38c.11 0 .21-.03.3-.1a.41.41 0 0 0 .13-.26.95.95 0 0 0-.03-.38.3.3 0 0 1 .49-.31c.24.2.4.42.5.66a.22.22 0 0 0 .41-.02l.3-1.12a.32.32 0 0 0-.12-.34.3.3 0 0 0-.11-.05l-2.07-.44c.42-.49-.01-1.29-1.31-2.4-.05-.1-.2-.23-.46-.4a3.58 3.58 0 0 0-.94-1.2 1.3 1.3 0 0 1-.23-.26l-.48-.7-.87-1.78a.04.04 0 0 1 0-.04c.02-.04.06-.06.13-.08l.02.01 2.6 3.41Z" fill="#714647"/><path d="M21.1 35.2c.43-.06.8.16 1.12.68a.25.25 0 0 1 0 .26.26.26 0 0 1-.23.13l-.71-.02a.17.17 0 0 0-.17.2l.07.54-.73-1.37a.32.32 0 0 0-.15-.14l-1.65-.8c-.08-.4-.5-.84-1.26-1.31a1.03 1.03 0 0 1-.24-.2c-1.95-2.28-2.75-5.9-2.86-8.81a.12.12 0 0 0-.1-.11.11.11 0 0 0-.12.06l-.12.22a1.57 1.57 0 0 0-.42-.65 15.02 15.02 0 0 1 2.87-5.43l-.23 3.43c-.1 1.34-.07 2.48.07 3.43.34 2.33.77 4.07 1.28 5.21 0 .03.1.21.25.56.05.1.09.2.1.3a4.86 4.86 0 0 0 3.24 3.83Z" fill="#C18E92"/><path d="m31.77 19.95.48.7c.06.1.14.18.23.26.4.33.71.73.94 1.2-.28.03-.37.23-.25.6.22.71.33 1.27.35 1.69a.56.56 0 0 0 .63.54c.76-.08 1.1-.34 1-.78-.01-.05-.03-.1-.06-.13l-1.21-1.52c1.3 1.11 1.73 1.91 1.31 2.4l-2.2.68-.14-.82a.3.3 0 0 0-.07-.15.28.28 0 0 0-.14-.08l-.35-.1a.42.42 0 0 1-.2-.13l-1.42-1.79c-.4-.03-.64-.26-.71-.7-.2-.4-.44-.59-.75-.56a.22.22 0 0 1-.23-.13c-.24-.51-.4-1.03-.48-1.57a.2.2 0 0 1 .36-.1c.28.72.68 1.32 1.21 1.8.08.08.18.13.29.15l1.58.27a.33.33 0 0 0 .35-.45l-.52-1.28Z" fill="#9F7371"/><path d="M29.96 21.83c.07.43.3.66.7.69l-.77.14a.2.2 0 0 0-.13.08.18.18 0 0 0-.03.13c.15 1.09.41 2.14.78 3.17.17.48.5.6 1 .34l-.51.89c-.23.4-.21.67.05.8.02.05 0 .09-.04.12a.12.12 0 0 1-.06.02l-.06-.01a.15.15 0 0 1-.09-.1 1.6 1.6 0 0 1-.04-.74.22.22 0 0 0-.1-.25l-.97-.57a.13.13 0 0 0-.18.17l.67 1.37c0 .02.02.04.04.05.65.69.8 1.14.46 1.36a11.35 11.35 0 0 1-3.38-1.44.1.1 0 0 0-.1.15c.22.52.61 1 1.17 1.46a.13.13 0 0 1-.03.21.13.13 0 0 1-.08.01 1.64 1.64 0 0 1-.74-.31c-.3-.26-.52-.41-.67-.45-1.1-.3-2-.94-2.7-2.03a2.62 2.62 0 0 1 .8.65H25a.08.08 0 0 0 .06-.03l.04-.07v-.04c-.2-.2-.35-.42-.42-.68.21.04.2-.28-.02-.97.2.5.44.85.75 1.07a.13.13 0 0 0 .2-.05.13.13 0 0 0 0-.07 2.46 2.46 0 0 0-.99-1.78.15.15 0 0 0-.23.1c-.01.07 0 .16.05.28a17.58 17.58 0 0 1-1.7-5.4.08.08 0 0 1 .11-.02l.04.05c.36.98.81 2.04 1.37 3.2a9.42 9.42 0 0 0 5.12 4.6.09.09 0 0 0 .06-.07v-.05c-.98-2.6-2.16-4.71-2.07-7.5a.14.14 0 0 1 .26-.03l.52 1.85a.27.27 0 0 0 .3.2c.24-.04.44-.11.61-.22a.46.46 0 0 1 .24-.07c.33-.02.55-.09.67-.21Z" fill="#B37C80"/><path d="M33.42 22.1c.25.18.4.31.46.4l1.2 1.53c.04.04.06.08.07.13.1.44-.24.7-1 .78a.56.56 0 0 1-.63-.54 7.15 7.15 0 0 0-.35-1.69c-.12-.37-.03-.57.25-.6Z" fill="#EABAB0"/><path d="m30.67 22.52 1.41 1.79c.06.06.13.11.21.14l.35.1c.05 0 .1.03.14.07.03.04.06.1.07.15l.14.82-1.48.79c-.5.25-.83.14-1-.34a15.6 15.6 0 0 1-.78-3.17c0-.04 0-.1.03-.13a.2.2 0 0 1 .13-.08l.78-.14Z" fill="#E6C0BF"/><path d="M37.07 34.42c.12-.86.32-1.72.59-2.56.29-.93.38-1.59.4-2.51a.26.26 0 0 0-.48-.12c-.5 1.02-1.23 2.06-.86 2.57-.2.44-.5.77-.9 1a.21.21 0 0 1-.31-.15c-.01-.05 0-.1.02-.14a8.16 8.16 0 0 0 1.05-2.99.16.16 0 0 0-.17-.1c-.28.03-.54.14-.76.31a.48.48 0 0 1-.27.1c-.23.02-.45-.03-.65-.15-.52-.3-1.09-.3-1.66-.36a.44.44 0 0 0-.2-.2c.16 0 .25-.03.27-.07.02-.06 0-.13-.08-.23.32.07.62.1.92.12.27 0 .43-.1.5-.3a.17.17 0 0 0-.02-.12.16.16 0 0 0-.1-.08l-.66-.1 1.17-.42a.27.27 0 0 1 .35.23c0 .05 0 .1-.03.15l-.22.38a.15.15 0 0 0 .15.21l.1-.01c-.08.21-.03.3.17.28a.83.83 0 0 0 .4-.18c.26-.2.5-.16.72.11a.19.19 0 0 0 .24.05.2.2 0 0 0 .09-.23 4.57 4.57 0 0 1-.26-1.13c-.02-.2-.1-.3-.26-.33-.13-.01-.27.05-.4.21-.07-.32-.05-.62.06-.88a.2.2 0 0 1 .27-.1c.17.1.29.24.34.45a.33.33 0 0 0 .22.22.9.9 0 0 1 .39.24.13.13 0 0 0 .12.03.12.12 0 0 0 .08-.09c.24-1 .32-2 .24-3l.1.58a.38.38 0 0 0 .74.04l.7-2.6a.14.14 0 0 1 .28.03l-.2 5.81a.08.08 0 0 0 .13.08.08.08 0 0 0 .03-.05l.5-1.8a.13.13 0 0 1 .1-.09h.05l.1.03a.15.15 0 0 1 .11.17 14.1 14.1 0 0 1-3.2 7.7Z" fill="#B37C80"/><path d="M13.95 24.53c-.16 2.03.16 4 .97 5.93.47 1.13.97 2.26 1.5 3.37.77 1.62 1.55 3.24 2.34 4.85.46.94.37 1.28-.27 1.04a15.02 15.02 0 0 1-4.96-15.84c.2.18.33.4.42.65Z" fill="#CE989E"/><path d="M18.65 34.68a22 22 0 0 0 3.03 3.72.15.15 0 0 0 .25-.09c0-.03 0-.07-.02-.1-.05-.08-.1-.2-.14-.38a7.4 7.4 0 0 0 3.06 2.15l1.82.66-.27.08a.63.63 0 0 0-.33.09.2.2 0 0 0-.1.15c0 .07 0 .13.02.2a2.5 2.5 0 0 0-1.03 1 .35.35 0 0 1-.59.02 14.4 14.4 0 0 0-2.75-2.96.46.46 0 0 1-.1-.11l-.23-.4a.5.5 0 0 0-.14-.16 19 19 0 0 1-4.72-4.72 79.1 79.1 0 0 1-1.5-3.37c-.8-1.93-1.12-3.9-.96-5.93l.12-.22a.11.11 0 0 1 .13-.06c.02 0 .05.02.06.04.02.02.03.04.03.07.1 2.91.9 6.53 2.86 8.8.07.09.15.16.24.21.76.47 1.18.9 1.26 1.3Z" fill="#83575B"/><path d="M24.14 27.09a4.57 4.57 0 0 0 2.7 2.03c.16.04.38.19.68.45.15.14.4.24.74.31a.13.13 0 0 0 .15-.07.13.13 0 0 0-.04-.15 3.85 3.85 0 0 1-1.16-1.46.1.1 0 0 1 .15-.13c1 .64 2.11 1.11 3.32 1.42.14.1.26.1.38 0a.17.17 0 0 0 .04-.18l-.17-.64a.3.3 0 0 1 .04-.26.86.86 0 0 1 .96-.38c.22.55.53.92.95 1.1.07.03.14.1.19.19a6.79 6.79 0 0 0-1.7 1.96.56.56 0 0 0 .1.7c1.23 1.1 3.04 1.16 4.65 1.07a.26.26 0 0 1 .28.31 17.53 17.53 0 0 1-2.42 6.38l-2.1 1.83a.76.76 0 0 1-.26.15c-.72.23-1.23.28-1.55.15a37.45 37.45 0 0 0-3.42-1.23l-1.82-.66c-.94-.62-2.35-1.53-2.68-2.65a.97.97 0 0 1 .23-.96c1.21-1.25 2.86-2.73 1.16-4.56a.9.9 0 0 0 .58-.21c.74-.11.75-1.52.76-2.03a.7.7 0 0 0-.4-.65 7 7 0 0 0-4.46-.71c-.7-.78-.9-1.71-.62-2.79a.44.44 0 0 1 .3-.3l2.48-.7a.37.37 0 0 1 .4.15l1.56 2.52Z" fill="#E6D0C8"/><path d="m35.2 24.91 2.06.44a.3.3 0 0 1 .2.15.32.32 0 0 1 .03.24l-.3 1.12a.22.22 0 0 1-.42.02 1.6 1.6 0 0 0-.5-.66.3.3 0 0 0-.48.31c.04.13.05.25.03.38a.42.42 0 0 1-.43.36.52.52 0 0 1-.48-.38c-.13-.51-.43-.7-.9-.57a.54.54 0 0 0-.34.26.46.46 0 0 0-.05.2c0 .07.01.14.04.2.11.23.27.39.48.49.05.02.1.06.12.11.02.06.03.12.02.18a.33.33 0 0 1-.08.16.35.35 0 0 1-.16.1c-.15.05-.35.03-.6-.08a.36.36 0 0 1-.16-.13.7.7 0 0 0-.36-.25.22.22 0 0 0-.19.02c-.12.08-.13.19-.02.3-.1.4.03.7.35.94.08.1.1.17.08.23-.02.04-.11.07-.26.08-.42-.18-.73-.55-.95-1.1a1.07 1.07 0 0 0-.14-.55.15.15 0 0 0-.25-.01l-.49.6c-.26-.13-.28-.4-.05-.8l.51-.89 1.48-.79 2.2-.68Z" fill="#2B1717"/><path d="m24.65 25.95-.22-.45a.66.66 0 0 1-.05-.28.15.15 0 0 1 .23-.1c.6.46.93 1.05 1 1.78a.13.13 0 0 1-.14.14.13.13 0 0 1-.07-.02 2.25 2.25 0 0 1-.75-1.07Z" fill="#83575B"/><path d="m31.05 28.07.5-.6a.15.15 0 0 1 .18-.03c.02 0 .04.02.06.04.08.13.13.32.14.55a.86.86 0 0 0-.96.38.3.3 0 0 0-.04.26l.18.64a.18.18 0 0 1-.05.18c-.12.1-.24.1-.38 0 .34-.22.19-.67-.46-1.36a.15.15 0 0 1-.04-.05l-.67-1.37a.13.13 0 0 1 .18-.17l.98.57a.21.21 0 0 1 .1.25c-.05.16-.04.4.03.74a.15.15 0 0 0 .09.1l.06.01.06-.02c.04-.03.06-.07.04-.12Z" fill="#EABAB0"/><path d="M19.4 28.46a.45.45 0 0 1-.27.12c-.2.03-.3-.06-.33-.28a4.47 4.47 0 0 1 0-1.05.11.11 0 0 1 .06-.03h.07l.05.05c.25.4.38.8.42 1.19Z" fill="#CE989E"/><path d="M35.23 28.88c.31-.3.54-.71.68-1.22.14-.16.28-.22.41-.2.16.01.24.12.26.32.03.36.12.74.26 1.13a.2.2 0 0 1-.1.23.19.19 0 0 1-.23-.05c-.22-.27-.46-.3-.71-.11a.83.83 0 0 1-.41.18c-.2.03-.25-.07-.16-.28Z" fill="#EABAB0"/><path d="m33.7 28.33.65.11a.16.16 0 0 1 .1.08.16.16 0 0 1 .03.13c-.07.2-.23.29-.5.29-.3-.01-.6-.05-.92-.12a.83.83 0 0 1-.35-.93c.33.07.66.22 1 .44Z" fill="#E6C0BF"/><path d="M24.12 31.6a.87.87 0 0 1 .04-.42c.22-.74.11-.99-.31-.74-.28.27-.67.27-1.17 0-.59-.32-.82-.61-.7-.88a.26.26 0 0 0 0-.25.27.27 0 0 0-.24-.13h-.06a.3.3 0 0 0-.29.24c-.14.68-.36 1-.67.94a1.23 1.23 0 0 1-.32-.93.17.17 0 0 0-.22-.17.56.56 0 0 0-.2.13c-.52.32-.69.83-.5 1.56a.2.2 0 0 1-.34.16c-.47-.63-1.02-1.8-.17-2.37.2-.1.25-.15.16-.16.08 0 .18-.04.27-.12l.62-.25a7 7 0 0 1 4.47.71.7.7 0 0 1 .4.65c-.02.5-.03 1.92-.77 2.03Z" fill="#2B1717"/><path d="m37.07 34.42-.52 1.33a.17.17 0 0 0 .06.2.18.18 0 0 0 .21 0 9.9 9.9 0 0 0 2.49-2.91.14.14 0 0 1 .18-.06l.09.04a.1.1 0 0 1 .04.05v.07l-2.8 5.73a.16.16 0 0 0 .17.23l1.42-.19a15.1 15.1 0 0 1-8.89 4.11l-3.14-2.3.27-.08c1.16.36 2.3.76 3.42 1.23.32.13.83.08 1.55-.15.1-.03.19-.08.27-.15l2.1-1.83 1.49-1.35a.37.37 0 0 0 .12-.3c-.03-.6.05-1.1.23-1.5.48-1.06.58-2.13.85-3.23a46.75 46.75 0 0 1 .53-1.94.1.1 0 0 0-.16-.05c-.1.09-.2.23-.33.43-.37-.5.37-1.55.86-2.57a.26.26 0 0 1 .49.12 8.54 8.54 0 0 1-.41 2.51c-.27.84-.47 1.7-.59 2.56Z" fill="#9F7371"/><path d="m20.72 30.36.39.74-.76-.83a.29.29 0 0 0-.48.08.29.29 0 0 0-.01.19l.3 1.11a.24.24 0 0 0 .17.16c.44.12.88.08 1.31-.12.6.17 1.23.2 1.9.12 1.7 1.83.05 3.31-1.16 4.56a.97.97 0 0 0-.23.96c.33 1.12 1.74 2.03 2.68 2.65a7.4 7.4 0 0 1-3.06-2.15l-.59-.84-.07-.55a.17.17 0 0 1 .17-.2l.7.03a.27.27 0 0 0 .24-.13.26.26 0 0 0 0-.26c-.32-.52-.69-.74-1.11-.67a7.7 7.7 0 0 1-2.52-3.9.15.15 0 0 1 .09-.17c.04-.02.1-.02.18 0 .25.07.46.46.8.57a.14.14 0 0 0 .18-.13c0-.02 0-.05-.02-.08-.39-.7-.34-1.41.16-2.1a.56.56 0 0 1 .2-.14.17.17 0 0 1 .16.03.17.17 0 0 1 .06.14c-.02.34.08.65.32.93Z" fill="#EABAB0"/><path d="M23.85 30.44c0 .12-.07.24-.21.37a2.54 2.54 0 0 1-1.9-.76.28.28 0 0 0-.45.26c.12.58.46.95 1 1.13.77.6 1.14-.02 1.87-.26a.87.87 0 0 0-.04.42.9.9 0 0 1-.58.2c-.67.1-1.3.06-1.9-.1l-.53-.6-.4-.74c.32.05.54-.26.68-.94a.3.3 0 0 1 .3-.23h.05a.27.27 0 0 1 .27.24c0 .04 0 .09-.02.13-.13.27.1.56.69.88.5.27.89.27 1.17 0Z" fill="#714647"/><path d="M36.72 31.8c.12-.2.23-.34.33-.43a.1.1 0 0 1 .16.1c-.27.91-.45 1.54-.53 1.9-.27 1.1-.37 2.16-.85 3.21a3.2 3.2 0 0 0-.23 1.52.36.36 0 0 1-.12.3l-1.5 1.34a17.52 17.52 0 0 0 2.42-6.38.26.26 0 0 0-.28-.3c-1.6.08-3.42.03-4.65-1.08a.55.55 0 0 1-.1-.7 6.79 6.79 0 0 1 1.7-1.96c.57.05 1.14.06 1.66.36.2.12.42.17.65.15.1 0 .2-.04.27-.1.23-.17.48-.28.76-.32a.16.16 0 0 1 .17.11c.01.02.02.05.01.07a8.16 8.16 0 0 1-1.06 2.92.21.21 0 0 0 .3.29c.39-.23.69-.56.9-1Z" fill="#EABAB0"/><path d="M23.64 30.81a1.5 1.5 0 0 1-1.01.19c-.17-.02-.28.01-.32.09-.05.08-.06.2-.02.35a1.42 1.42 0 0 1-1-1.13.28.28 0 0 1 .46-.26c.53.52 1.16.78 1.89.76Z" fill="#B37C80"/><path d="m21.1 31.1.54.6c-.43.2-.87.23-1.3.11a.24.24 0 0 1-.16-.16l-.32-1.11a.29.29 0 0 1 .49-.27l.76.83Z" fill="#E6D0C8"/><path d="M24.16 31.18c-.73.24-1.1.87-1.87.26-.04-.16-.03-.27.02-.36.04-.07.15-.1.32-.08.42.04.76-.02 1-.19.15-.13.22-.25.22-.37.42-.25.53 0 .31.74Z" fill="#E6C0BF"/><path d="m25.97 41.16.35.14a.5.5 0 0 1 .2.16l1.26 1.64a15.08 15.08 0 0 1-4.5-.76 20.33 20.33 0 0 0-4.15-3.67h-.02l-.01.03a.44.44 0 0 0-.02.15.15.15 0 0 0 .05.11 9.94 9.94 0 0 1 1.91 2.44c-.9-.47-1.76-1.03-2.55-1.68.64.24.73-.1.27-1.04a466.7 466.7 0 0 1-2.35-4.85 19 19 0 0 0 4.72 4.72c.06.05.1.1.14.17l.23.39.1.11a14.4 14.4 0 0 1 2.75 2.96.35.35 0 0 0 .59-.02c.27-.46.61-.8 1.03-1Z" fill="#B37C80"/><path d="m18.65 34.68 1.65.8c.07.03.12.08.15.14l.73 1.37.6.84c.03.17.08.3.13.38a.15.15 0 0 1-.23.19 22 22 0 0 1-3.03-3.72Z" fill="#2B1717"/><path d="M23.29 42.34c-.78-.25-1.52-.56-2.25-.94a9.94 9.94 0 0 0-1.95-2.49.15.15 0 0 1-.01-.06c0-.06 0-.11.02-.15a.05.05 0 0 1 .03-.03.05.05 0 0 1 .05 0 20.33 20.33 0 0 1 4.1 3.67Z" fill="#9F7371"/><path d="m26.38 40.72 3.14 2.3c-.57.06-1.16.09-1.74.08l-1.26-1.64a.5.5 0 0 0-.2-.16l-.35-.14a.45.45 0 0 1-.02-.2.2.2 0 0 1 .1-.15c.09-.06.2-.1.33-.1Z" fill="#2B1717"/><path d="M29.44 15.62a.37.37 0 0 1 0-.53c.05-.05.1-.08.17-.1l.75-.21a.53.53 0 0 1 .52.14l.95.94a.25.25 0 0 1 0 .35.24.24 0 0 1-.1.06l-1.13.32a.27.27 0 0 1-.25-.07l-.9-.9ZM25.26 18.63a.47.47 0 0 1-.49-.12l-.37-.37a.29.29 0 0 1 .14-.48c1.01-.23 1.66-.85 1.95-1.88a.22.22 0 0 1 .42 0l.7 2.44a.17.17 0 0 1-.19.22 4.9 4.9 0 0 0-2.16.19Z" fill="#E6C0BF"/><path d="m28.42 17.08-.28-1a.2.2 0 0 1 .34-.2l1 1c.04.05.07.1.07.16s-.01.12-.05.16c-.19.27-.5.29-.93.06a.3.3 0 0 1-.15-.18ZM20.72 19.41a.13.13 0 0 1 .14-.1.14.14 0 0 1 .13.13c.13 1.43.47 2.74 1.04 3.95a.36.36 0 0 1-.22.5l-2.23.62a.16.16 0 0 1-.19-.2l1.33-4.9Z" fill="#E6D0C8"/><path d="M33.89 26.9c.02.25.21.44.42.42.21-.03.36-.24.34-.49-.02-.25-.22-.43-.43-.4-.2.01-.36.23-.33.48Z" fill="#EABAB0"/><path d="M23.39 27.98c.42.13.79.14.83.02.03-.12-.28-.32-.7-.44-.42-.13-.8-.14-.83-.03-.03.12.28.32.7.45Z" fill="#9F7371"/><path d="M27.12 33.92c0-.43.23-.86.7-1.27a.33.33 0 0 1 .27-.07c.64.12 1.2.31 1.66.59a.33.33 0 0 1 .16.35l-.3 1.66a.39.39 0 0 1-.14.24c-.65.48-1.25.5-1.81.09a.5.5 0 0 1-.18-.26L27.13 34a.31.31 0 0 1-.01-.08Z" fill="#EABAB0"/><path d="m27.57 37.7.98.26c.12.03.25.04.38.02.92-.14 2.25-.23 3.01-1.09a.27.27 0 0 1 .18-.09c.07 0 .14.02.2.06v.01a.26.26 0 0 1 .04.36c-.43.54-.89.87-1.37 1.01-1.13.32-2.21.35-3.23.08a.5.5 0 0 1-.3-.23l-.09-.14a.17.17 0 0 1 .02-.2.17.17 0 0 1 .18-.06Z" fill="#C18E92"/><path d="M23.06 28.99H23a.35.35 0 0 0-.38.32l-.02.22c-.02.2.13.36.32.38H23c.19.02.36-.13.38-.32l.01-.22a.35.35 0 0 0-.32-.38Z" fill="#E6D0C8"/><path d="M35.65 39.29a.15.15 0 0 0-.09-.14.14.14 0 0 0-.15.03l-1.53 1.5a.19.19 0 0 1-.28-.02v-.01a.23.23 0 0 1 .02-.32 47.5 47.5 0 0 0 1.96-1.77c.5-.58.89-1.11 1.14-1.61a.2.2 0 0 1 .37.11 7.27 7.27 0 0 1-1.15 2.92.17.17 0 0 1-.31-.1l.02-.6Z" fill="#83575B"/><path d="M28 11a17 17 0 1 1 0 34 17 17 0 0 1 0-34Zm0 2a15 15 0 1 0 0 30 15 15 0 0 0 0-30Z"/></svg>