<svg width="56" height="56" viewBox="0 0 56 56" xmlns="http://www.w3.org/2000/svg"><path d="M31.58 12.48a5.07 5.07 0 0 0-7.16 0L12.48 24.42a5.07 5.07 0 0 0 0 7.16l11.94 11.94a5.07 5.07 0 0 0 7.16 0l11.94-11.94a5.07 5.07 0 0 0 0-7.16l-.67-.67L30.43 36a2.9 2.9 0 0 1-4.08-.01l-5.85-5.85a3.08 3.08 0 0 1 4.35-4.35l2.72 2.72a1.2 1.2 0 0 0 1.7 0l9.23-9.1-6.92-6.93Z" fill="url(#a)"/><path d="m31.41 12.32.17.16 6.92 6.92-.15.15a19.2 19.2 0 0 0-3.62-2.52 13.78 13.78 0 0 0-6.39-1.8c-2.28 0-3.85.52-4.9 1.05-.8.4-1.8.28-2.34-.44l-.01-.03 3.33-3.33.03-.03a15.39 15.39 0 0 1 6.96-.13Z" fill="url(#b)"/><path d="m14.94 21.96 3.43-3.42.02.01c.76.48.98 1.48.56 2.28a12.82 12.82 0 0 0-1.54 6.1v.44c0 .48-.01 1-.05 1.45-.1 1.1-.51 2.32-.92 3.32-.37.9-.78 1.73-1.1 2.3l-2.41-2.41c.16-.34.34-.73.5-1.12.37-.92.63-1.78.68-2.37.03-.32.04-.66.04-1.1v-.57c.02-.69.06-1.5.2-2.43.11-.77.3-1.59.59-2.48Z" fill="url(#c)"/><path d="m19.7 38.8-1.88-1.88c.03-.17.07-.34.15-.51.83-1.8 1.86-4.38 2.28-6.56l.25.29 2.43 2.43a40.2 40.2 0 0 1-2.08 5.37c-.22.48-.66.78-1.15.86Z" fill="url(#d)"/><path d="M24.11 43.21 22.8 41.9c-.08-.4-.02-.82.2-1.2a40.6 40.6 0 0 0 2.68-5.38l.67.68c.61.61 1.43.9 2.23.84a45.13 45.13 0 0 1-2.85 5.65c-.34.58-1 .84-1.62.73Z" fill="url(#e)"/><path d="m33.55 41.55-1.97 1.97-.15.15a1.63 1.63 0 0 1-.5-.15 1.7 1.7 0 0 1-.8-2.2 67.2 67.2 0 0 0 2.03-5.78 1.67 1.67 0 0 1 2.03-1.13 1.6 1.6 0 0 1 1.12 2 75.6 75.6 0 0 1-1.76 5.14Z" fill="url(#f)"/><path d="m42.8 32.3-4.04 4.04c.5-1.84 1.12-5.31 1.1-9.63l3-2.96.15.16c.2 3.15.07 6.01-.2 8.39Z" fill="url(#g)"/><path d="M35.52 22.34a6.7 6.7 0 0 0-2.8-2.94 9.06 9.06 0 0 0-4.38-.97c-1.72 0-3.16.4-4.31 1.21a6.83 6.83 0 0 0-2.35 3.03c-.38.9-.62 1.86-.8 2.79 1-.71 2.32-.76 3.36-.14.12-.5.26-.97.44-1.38a3.6 3.6 0 0 1 1.21-1.63c.5-.35 1.25-.62 2.45-.62 1.28 0 2.18.22 2.82.57.62.34 1.1.85 1.49 1.61.13.29.26.6.36.95l2.51-2.48Z" fill="url(#h)"/><path d="m34.23 32.26 2.56-2.53c0 .43-.02.86-.04 1.3a1.6 1.6 0 0 1-1.72 1.51c-.3-.02-.57-.12-.8-.28Z" fill="url(#i)"/><path d="m30.25 27.55.04-.9A1.6 1.6 0 0 0 28.7 25c-.9-.01-1.64.7-1.67 1.6-.01.46-.04.83-.06 1.3l.6.6a1.2 1.2 0 0 0 1.7.01l.98-.96Z" fill="url(#j)"/><defs><linearGradient id="a" x1="45" y1="28" x2="11" y2="28" gradientUnits="userSpaceOnUse"><stop stop-color="#5DE481"/><stop offset="1" stop-color="#1CBD49"/></linearGradient><linearGradient id="b" x1="42.39" y1="18.37" x2="17.67" y2="37.31" gradientUnits="userSpaceOnUse"><stop stop-color="#01D739"/><stop offset="1" stop-color="#037806"/></linearGradient><linearGradient id="c" x1="42.39" y1="18.37" x2="17.67" y2="37.31" gradientUnits="userSpaceOnUse"><stop stop-color="#01D739"/><stop offset="1" stop-color="#037806"/></linearGradient><linearGradient id="d" x1="42.39" y1="18.37" x2="17.67" y2="37.31" gradientUnits="userSpaceOnUse"><stop stop-color="#01D739"/><stop offset="1" stop-color="#037806"/></linearGradient><linearGradient id="e" x1="42.39" y1="18.37" x2="17.67" y2="37.31" gradientUnits="userSpaceOnUse"><stop stop-color="#01D739"/><stop offset="1" stop-color="#037806"/></linearGradient><linearGradient id="f" x1="42.39" y1="18.37" x2="17.67" y2="37.31" gradientUnits="userSpaceOnUse"><stop stop-color="#01D739"/><stop offset="1" stop-color="#037806"/></linearGradient><linearGradient id="g" x1="42.39" y1="18.37" x2="17.67" y2="37.31" gradientUnits="userSpaceOnUse"><stop stop-color="#01D739"/><stop offset="1" stop-color="#037806"/></linearGradient><linearGradient id="h" x1="42.39" y1="18.37" x2="17.67" y2="37.31" gradientUnits="userSpaceOnUse"><stop stop-color="#01D739"/><stop offset="1" stop-color="#037806"/></linearGradient><linearGradient id="i" x1="42.39" y1="18.37" x2="17.67" y2="37.31" gradientUnits="userSpaceOnUse"><stop stop-color="#01D739"/><stop offset="1" stop-color="#037806"/></linearGradient><linearGradient id="j" x1="42.39" y1="18.37" x2="17.67" y2="37.31" gradientUnits="userSpaceOnUse"><stop stop-color="#01D739"/><stop offset="1" stop-color="#037806"/></linearGradient></defs></svg>