<svg width="112" height="112" viewBox="0 0 56 56" xmlns="http://www.w3.org/2000/svg"><path d="M28 31a3 3 0 1 0 0-6 3 3 0 0 0 0 6ZM24 17a2 2 0 1 0 0-4 2 2 0 0 0 0 4ZM41.95 29a2.5 2.5 0 1 0 0 5 2.5 2.5 0 0 0 0-5Z" fill="#fff"/><path d="M38.1 22.43c1.38-4.24 1.2-7.59-.78-8.9-2.2-1.42-5.93.12-9.8 3.75-.31-.29-.62-.56-.92-.82a3 3 0 0 1-.67.95c.25.22.52.44.75.67-1 1.01-1.94 2.07-2.82 3.18-1.95.14-3.9.43-5.8.88-1.18-3.64-1.15-6.49.39-7.5a2.9 2.9 0 0 1 2.28-.26c.12-.4.32-.77.6-1.1-1.45-.43-2.7-.38-3.66.26-1.98 1.3-2.15 4.65-.77 8.89-4.35 1.22-7.08 3.22-7.08 5.58s2.73 4.34 7.08 5.57c-.12.37-.23.73-.32 1.09h.17c.34 0 .68.05 1 .16.09-.31.18-.63.29-.95 1.91.43 3.86.72 5.82.85a39.06 39.06 0 0 0 2.83 3.18c-3.37 3.11-6.53 4.57-8.24 3.44a2.3 2.3 0 0 1-.7-.74c-.44.15-.9.2-1.36.13.24.7.7 1.3 1.3 1.72 2.2 1.45 5.92-.09 9.82-3.74 3.88 3.65 7.6 5.2 9.81 3.74 1.99-1.3 2.16-4.65.78-8.9.4-.1.8-.23 1.17-.35-.24-.31-.41-.66-.52-1.03l-1.05.32a35.23 35.23 0 0 0-2.08-4.48c.8-1.44 1.5-2.94 2.08-4.48 3.73 1.03 6.12 2.67 6.12 4.48 0 .33-.08.65-.22.94.37.27.68.62.9 1.02.43-.57.67-1.26.68-1.97 0-2.36-2.73-4.36-7.08-5.58ZM27.5 18.88c.7.7 1.41 1.47 2.09 2.3-.69-.03-1.4-.05-2.09-.05-.7 0-1.42 0-2.08.05.66-.83 1.37-1.6 2.08-2.3Zm-4.6 3.59a49.02 49.02 0 0 0-2.87 4.33 33.26 33.26 0 0 1-1.61-3.6c1.47-.33 2.97-.57 4.47-.72l.01-.01Zm-5.62 10c-3.73-1.02-6.12-2.66-6.12-4.47 0-1.81 2.4-3.43 6.12-4.48A34.95 34.95 0 0 0 19.37 28c-.8 1.44-1.5 2.94-2.08 4.48Zm1.13.3c.46-1.23 1-2.43 1.6-3.6.53.88 1.05 1.76 1.68 2.64.4.6.8 1.16 1.2 1.7-1.5-.15-3-.4-4.48-.74Zm4.22-1.58a51.4 51.4 0 0 1-1.98-3.18 46.93 46.93 0 0 1 3.78-5.64 45.7 45.7 0 0 1 6.13 0A46.78 46.78 0 0 1 34.34 28a46.92 46.92 0 0 1-3.77 5.64 49.57 49.57 0 0 1-6.13 0c-.61-.78-1.21-1.6-1.8-2.46Zm2.76 3.63c.68.03 1.38.04 2.08.04.7 0 1.42 0 2.09-.04-.7.83-1.41 1.6-2.09 2.3-.68-.7-1.39-1.47-2.08-2.3Zm11.17 6.53c-1.7 1.12-4.87-.33-8.24-3.44 1-1.01 1.95-2.07 2.83-3.18 1.96-.14 3.9-.43 5.8-.87 1.18 3.63 1.15 6.46-.39 7.49Zm0-8.59c-1.47.35-2.97.6-4.48.74a46.35 46.35 0 0 0 2.87-4.33 33.26 33.26 0 0 1 1.62 3.6Zm-1.6-5.95c-.52-.86-1.04-1.75-1.66-2.63-.4-.58-.8-1.15-1.21-1.7 1.5.15 3 .4 4.48.74-.46 1.23-1 2.43-1.6 3.6Zm2-4.67c-1.91-.45-3.85-.74-5.8-.88a39.06 39.06 0 0 0-2.83-3.18c3.36-3.11 6.53-4.56 8.24-3.43 1.53 1 1.56 3.85.38 7.49Z" fill="#fff"/><path d="M20 38.5a2.5 2.5 0 1 0-5 0 2.5 2.5 0 0 0 5 0Z" fill="#fff"/><defs><linearGradient id="acozwep3d" x1="14" y1="52.25" x2="42" y2="3.75" gradientUnits="userSpaceOnUse"><stop stop-color="#383D63"/><stop offset=".23" stop-color="#693566"/><stop offset=".48" stop-color="#982D6A"/><stop offset=".7" stop-color="#BB276C"/><stop offset=".88" stop-color="#D0236D"/><stop offset="1" stop-color="#D8226E"/></linearGradient></defs></svg>