<svg width="112" height="112" viewBox="0 0 56 56" xmlns="http://www.w3.org/2000/svg"><rect fill="#F0F3FA" width="56" height="56" rx="28"/><path d="M32.59 12.91c-.22.71-.36 1.24-.4 1.58-.1.7.2 1.03.9.97.26.45.36.97.3 1.57-.24.1-.49.16-.74.17a1.4 1.4 0 0 1-.7-.2 7.56 7.56 0 0 0-3.2-.84c-.08 0-.12.03-.1.12 0 .03.02.06.04.1l-.82.16a.21.21 0 0 1-.25-.11l-.04-.08a.22.22 0 0 0-.2-.12l-2.2.01a9.46 9.46 0 0 0-4.24.57c.28-.6.48-1.11.6-1.53l.85-3c.04-.14.17-.33.4-.57a5.6 5.6 0 0 1 4.34-1.7c.57.01 1.27.23 2.1.65.79.4 1.58.73 2.38 1 .28.1.5.26.64.47.16.23.27.49.34.78Z" fill="#545D6A"/><path d="M26.96 13.05v.16a.22.22 0 0 0 .16.22l.34.1c.05.01.09.05.1.1.01.04 0 .07-.01.1a.1.1 0 0 1-.1.06h-.39c-.1 0-.17.05-.17.16l-.02.27c0 .1-.04.18-.09.21a.23.23 0 0 1-.12.05c-.1 0-.17-.03-.21-.1a1.77 1.77 0 0 1-.08-1.42c.03-.1.1-.15.22-.15.23 0 .43-.02.6-.08a.33.33 0 0 1 .3.05c.17.13.22.23.17.3-.04.06-.1.07-.17.03l-.32-.18c-.14-.08-.21-.04-.21.12ZM25.19 13.62c.1-.14.2-.34.26-.6.03-.1.12-.16.27-.17h.1a.17.17 0 0 1 .18.17c0 .03 0 .06-.02.09l-.77 1.31a.22.22 0 0 1-.2.1.22.22 0 0 1-.2-.13l-.5-1.32c-.07-.17 0-.24.17-.21h.1c.11.02.19.08.23.19l.21.55c.04.1.1.11.17.02ZM28.84 14.2c.13.02.23 0 .3-.04.09-.07.13-.17.13-.28v-.68a.2.2 0 0 1 .11-.2.16.16 0 0 1 .14 0 .14.14 0 0 1 .1.12c.03.69-.02 1.11-.15 1.27-.2.25-.45.35-.74.29a.72.72 0 0 1-.55-.54c-.08-.38-.1-.75-.03-1.1.03-.12.11-.2.25-.2h.1a.14.14 0 0 1 .13.1l.01.05v.98c0 .13.07.2.2.23Z" fill="#F0F3FA"/><path d="M32.59 12.91c.38.73.55 1.58.5 2.55-.7.06-1-.27-.9-.97.04-.34.18-.87.4-1.58Z" fill="#758475"/><path d="M23.63 13h-.03c-.13 0-.23.1-.24.22l-.05 1.26c0 .12.1.23.22.23h.02c.13.01.24-.09.24-.21l.06-1.26c0-.12-.1-.23-.22-.24ZM30.65 14.3c.02.2 0 .35-.04.42-.22.35-.34.33-.34-.08l-.01-1.36c0-.04.02-.07.05-.1a.2.2 0 0 1 .12-.05.37.37 0 0 1 .34.2c.14.26.26.45.35.57.06.08.13.13.22.17.31.15.42.43.33.84-.02.1-.08.12-.17.08a1.26 1.26 0 0 1-.57-.62c-.03-.07-.07-.11-.11-.13a.22.22 0 0 0-.1-.02c-.05 0-.08.03-.07.08Z" fill="#F0F3FA"/><path d="m25.18 16.24-2.27.64a1.6 1.6 0 0 0-1.28.52.41.41 0 0 0-.1.26c-.06 1.23-.42 2.12-1.09 2.65a5.13 5.13 0 0 1-2.42 2.13c-.1.03-.15.1-.17.2-.07.36-.2.7-.4 1.03-.05.08-.04.16.02.23.09.1.13.2.14.3l-.19.16a1.02 1.02 0 0 0-.56.06c-.13.03-.27.09-.42.18.35-.74.6-1.84 1.03-2.47.89-1.28 2.73-2.92 3.1-4.35.02-.1.03-.27.03-.52 0-.34.11-.5.34-.45a9.46 9.46 0 0 1 4.24-.57Z" fill="#A89D7D"/><path d="m33.4 17.03.01 1.15c0 .08.04.16.09.22.05.06.12.1.2.12.45.1.64.33.59.7l-.98-.56a.15.15 0 0 0-.2.05.14.14 0 0 0-.02.07c-.02.51.1.96.33 1.35l-.8-.68.15-1.3a.1.1 0 0 0-.04-.1.11.11 0 0 0-.1-.02c-.41.07-.73.27-.95.6l-.6-.1c-.45.31-.64.32-.56.03a3.62 3.62 0 0 1 1.62-.53l.03-.1c.01-.05 0-.08-.06-.1A6.33 6.33 0 0 1 30 16.75c-.2-.16-.64-.28-1.3-.37a.26.26 0 0 1-.04-.1c-.02-.09.02-.13.1-.12 1.15.05 2.21.33 3.2.85.27.14.5.2.7.2.25-.02.5-.08.74-.18Z" fill="#8D9180"/><path d="M28.7 16.38c.65.09 1.09.21 1.29.37.65.5 1.36.86 2.12 1.08.06.02.07.05.06.1l-.03.1-.02.02a3.62 3.62 0 0 0-1.6.52 1.7 1.7 0 0 1-1.4-.18 3.3 3.3 0 0 0-2.42-.6c-.6.16-1.2.26-1.84.3l-2.54-.41a.15.15 0 0 1-.07-.27l.66-.53 2.27-.64 2.2-.01c.08 0 .15.04.2.12l.05.08c.05.1.13.13.24.1l.82-.15Z" fill="#3B2026"/><path d="m22.9 16.88-.65.53a.15.15 0 0 0 .07.27l2.54.4c.09.42.6.48 1.52.2.3-.09.85-.02 1.66.2.49.12 1.04.56 1.63.77.1.03.18.01.26-.07l.58-.61c-.07.28.12.27.57-.03.2.03.23.11.1.25-.55.56-.88.92-1 1.09-.32.4-.29.7.1.88.73.33 1.52.43 2.37.29a.2.2 0 0 1 .22.12 7.51 7.51 0 0 0 1.97 2.85l-1.19-.29-.68-1.61a.28.28 0 0 0-.21-.18 37.93 37.93 0 0 1-2.63-.66 2.56 2.56 0 0 1-.9-.7.26.26 0 0 1-.07-.27.46.46 0 0 0 .01-.16.11.11 0 0 0-.08-.1.12.12 0 0 0-.13.05 4.92 4.92 0 0 1-1.86 1.62 3.37 3.37 0 0 1-2.32-.92 3.04 3.04 0 0 0-2.5.03c-.46.21-.93.65-1.4 1.3l-1.08 1.63c-.2.06-.32-.07-.35-.38-.02-.15-.08-.17-.2-.08l-.64.53a.56.56 0 0 1-.22.1l-.37.1a5.24 5.24 0 0 0 1.9-2.28.6.6 0 0 1 .17-.23c.29-.23.4-.63.35-1.2.67-.54 1.03-1.43 1.08-2.66.01-.1.05-.19.11-.26a1.6 1.6 0 0 1 1.28-.52Z" fill="#834545"/><path d="m30.51 18.57-.58.61a.22.22 0 0 1-.26.07c-.59-.21-1.14-.65-1.63-.77-.8-.22-1.36-.29-1.66-.2-.92.28-1.43.22-1.52-.2a8.32 8.32 0 0 0 1.84-.3 3.3 3.3 0 0 1 2.42.61c.4.26.87.31 1.4.18Z" fill="#333F4C"/><path d="m32.62 19.45-.58-.24c-.05-.03-.15 0-.3.07-.18-.1-.2-.31-.06-.65.22-.33.54-.53.96-.6a.11.11 0 0 1 .13.12l-.15 1.3Z" fill="#D99C9C"/><path d="M31.68 18.63c-.15.34-.12.56.06.65.04.4.08.65.1.77.06.18.17.24.35.2.1-.01.16-.08.17-.18.02-.26-.08-.55-.32-.86l.58.24.8.68c.64 1 1.36 2.27 2.16 3.83.1.18.25.3.47.36.1.03.17.09.22.17.1.14.1.28.02.39l-1.26-.73a.37.37 0 0 1-.2-.13 7.51 7.51 0 0 1-1.96-2.85.2.2 0 0 0-.22-.12c-.85.14-1.64.04-2.37-.3-.39-.17-.42-.47-.1-.88.12-.16.45-.52 1-1.08.13-.14.1-.22-.1-.25l.6.09Z" fill="#AE7476"/><path d="M34.29 19.22c.83.81 1.41 1.75 1.75 2.83.03.1.02.2 0 .3-.26.78-.03 1.47.69 2.07.32 1.25.1 1.62-.62 2.6.03-.14-.03-.33-.17-.55.27-.33.4-.68.35-1.04.11-.23.1-.42 0-.55.09-.11.08-.25-.01-.4a.4.4 0 0 0-.23-.16.72.72 0 0 1-.47-.36 46.67 46.67 0 0 0-2.16-3.83 2.4 2.4 0 0 1-.33-1.35.14.14 0 0 1 .07-.12.15.15 0 0 1 .15 0l.98.56Z" fill="#D99C9C"/><path d="M32.04 19.21c.24.31.34.6.32.86-.01.1-.07.17-.18.19-.17.03-.29-.03-.33-.21a6.08 6.08 0 0 1-.1-.77c.14-.07.24-.1.3-.07Z" fill="#834545"/><path d="M33.65 23.73c-.87-.46-1.7-.8-2.5-1a2.29 2.29 0 0 0-1.44.05c-.63.25-1.24.53-1.83.83a.7.7 0 0 1-.37.1.96.96 0 0 1-.38-.13c.29-.67.28-1.29-.03-1.86a4.92 4.92 0 0 0 1.92-1.66h.06c.03 0 .05.01.06.03a.1.1 0 0 1 .03.06l-.01.16c-.03.1 0 .19.06.26.36.39.67.62.9.7.38.13 1.26.35 2.64.67.1.02.17.08.2.18l.7 1.61Z" fill="#8D1616"/><path d="M20.44 20.31c.05.58-.06.98-.35 1.21a.6.6 0 0 0-.17.23 5.24 5.24 0 0 1-1.9 2.28l-.41.17c-.01-.1-.06-.2-.14-.3-.07-.07-.07-.15-.02-.23.2-.32.33-.67.4-1.04.02-.1.07-.16.17-.2a5.13 5.13 0 0 0 2.42-2.12Z" fill="#AE7476"/><path d="M24.78 20.8c.1.45.24.81.42 1.08a.18.18 0 0 1-.05.25.19.19 0 0 1-.09.03c-.58.04-1.18.1-1.77.17-.21.03-.5.19-.85.48l-2.64.95c.36-.55.72-1.1 1.09-1.62.46-.66.93-1.1 1.4-1.31.79-.37 1.62-.38 2.49-.03Z" fill="#8D1616"/><path d="M27.1 21.72c.3.57.32 1.2.03 1.86a6.08 6.08 0 0 0-2.63-1.1 2.65 2.65 0 0 0-1.03.1c-.34.1-.68.17-1.03.23.35-.3.64-.45.85-.48.6-.07 1.18-.13 1.77-.17a.19.19 0 0 0 .15-.1.18.18 0 0 0 0-.18 3.2 3.2 0 0 1-.43-1.08c.76.65 1.54.96 2.32.92Z" fill="#B32410"/><path d="M27.13 23.58c.12.07.25.12.38.13a.7.7 0 0 0 .37-.1 25 25 0 0 1 1.83-.83c.4-.17.89-.18 1.44-.05.8.2 1.63.54 2.5 1l1.19.29c.04.06.1.1.2.13-.07.23-.08.39-.03.47a.49.49 0 0 1 .04.47.57.57 0 0 1-.38.31c-1.24.3-2.32.65-3.25 1.04-.6.26-1.08.3-1.66.1-.6-.21-1.19-.45-1.77-.7-.33-.16-1.1-.16-2.3 0l.93-1.43a.3.3 0 0 0-.06-.4 4 4 0 0 0-2.06-.89 3.57 3.57 0 0 0-1.98.46c-.43.21-1.06.5-1.89.84-.67.28-.64.43.09.43.62 0 1.19.31 1.69.94a13.74 13.74 0 0 1-4.2-1.27.17.17 0 0 0-.13.08.16.16 0 0 0-.02.08c0 .18-.05.35-.12.51a.13.13 0 0 1-.1.08.14.14 0 0 1-.11-.03c-.3-.25-.4-.55-.3-.88l.18-.16.4-.17.38-.1c.1-.02.17-.05.23-.1l.63-.53c.12-.1.18-.07.2.08.03.3.15.44.36.38l2.63-.95c.35-.06.7-.14 1.04-.23.4-.1.74-.13 1.03-.1.9.14 1.78.5 2.62 1.1Z" fill="#F91B1B"/><path d="M25.68 25.85a3.41 3.41 0 0 1-3.27-.06c-.5-.63-1.07-.94-1.7-.94-.72 0-.75-.15-.08-.43.83-.35 1.46-.63 1.9-.84a3.57 3.57 0 0 1 1.97-.46 4 4 0 0 1 2.06.89.31.31 0 0 1 .06.4l-.94 1.44ZM27.94 24.72a4.11 4.11 0 0 1 2.92-1.6c.1 0 .2.01.28.06.36.2.62.67.82.9.21.26.4.5.57.76.06.08.04.15-.04.2-.32.22-.68.5-1.08.82-.52.42-.7.41-1.32.32a.82.82 0 0 1-.5-.26c-.41-.45-.9-.74-1.48-.87-.07-.02-.13-.08-.18-.18a.14.14 0 0 1 .01-.15Z" fill="#FD4446"/><path d="M24.13 23.73a.4.4 0 0 1 .35.03l.63.36c.14.08.17.18.1.32l-.52.89a.54.54 0 0 1-.4.26.55.55 0 0 1-.46-.15l-1-1a.15.15 0 0 1 .05-.24l1.25-.47Z" fill="#D99C9C"/><path d="M24.75 24.14a.16.16 0 0 1 .14.1v.13c-.01.21-.1.4-.22.55a.57.57 0 0 1-.45.2h-.06a.56.56 0 0 1-.43-.26.9.9 0 0 1-.14-.57v-.07a.15.15 0 0 1 .05-.1.16.16 0 0 1 .12-.05l1 .07Z" fill="#F0F3FA"/><path d="m35.03 24.15 1.26.73c.1.13.11.32 0 .55-.17.43-.55.74-1.15.95-.61.21-1.05.39-1.33.54-2 1.07-3.6 1.01-6.3 1-.6 0-1.2.3-1.78.92a.66.66 0 0 1-.25.15l-.23.1c-.13.04-.2 0-.2-.14v-.31a.12.12 0 0 0-.05-.1.13.13 0 0 0-.12-.02c-.2.1-.35.28-.43.56l-3.29-.37a3.5 3.5 0 0 0-.77-1.1 2.9 2.9 0 0 0-.98-1.72c-.22-.18-.25-.15-.11.1l.66 1.11c.03.06.01.1-.05.12-.05.01-.14-.04-.27-.16-.12-.1-.22-.15-.31-.16a.1.1 0 0 0-.1.06.1.1 0 0 0 .01.1c.09.13.1.25.06.35a.24.24 0 0 0-.16-.11l-2.25-2.46a.31.31 0 0 1-.09-.27l.06-.15c.2-.08.39-.1.56-.06-.09.33.01.63.3.88a.14.14 0 0 0 .22-.05c.07-.16.11-.33.12-.5a.16.16 0 0 1 .08-.14.17.17 0 0 1 .15-.01c1.29.63 2.66 1.04 4.12 1.25 1.05.58 2.14.6 3.27.06 1.2-.17 1.98-.17 2.3-.02.59.26 1.18.5 1.78.7.58.21 1.06.17 1.66-.09.92-.4 2-.74 3.24-1.04a.57.57 0 0 0 .38-.31.5.5 0 0 0-.03-.47c-.05-.08-.05-.24.02-.47Z" fill="#B32410"/><path d="M16.86 24.42a.45.45 0 0 0-.06.15c0 .1.02.19.09.27l2.25 2.46c-.02.44.2.81.65 1.12l.04.03c.05.08.06.15.04.23a.1.1 0 0 1-.05.07.12.12 0 0 1-.1 0l-1.1-.31a.28.28 0 0 1-.2-.2 3.95 3.95 0 0 0-1.59-2.32c-.54-.66-.67-1.1-.4-1.32.15-.1.3-.15.43-.18Z" fill="#AE7476"/><path d="M30.33 25.25c.32.02.6-.15.61-.38.01-.23-.24-.42-.57-.44-.33-.02-.6.15-.61.38-.02.22.24.42.57.44Z" fill="#F0F3FA"/><path d="M35.94 26.47c.27-.33.39-.68.35-1.04-.17.43-.55.74-1.15.95-.61.21-1.05.39-1.33.54-1.9 1.02-3.44 1.02-5.9 1h-.4c-.6 0-1.2.3-1.78.92a.66.66 0 0 1-.25.15l-.23.1c-.13.04-.2 0-.2-.14v-.31a.12.12 0 0 0-.05-.1.13.13 0 0 0-.12-.02c-.2.1-.35.28-.43.56l-3.29-.37c.08.16.17.28.28.36.09.06.22.1.41.1.38 0 .74.04 1.1.13a.3.3 0 0 1 .21.18.3.3 0 0 1-.04.28c-.36.51-.88.84-1.57 1a.37.37 0 0 1-.45-.34 8.18 8.18 0 0 0-.7-2.82 2.9 2.9 0 0 0-.99-1.7c-.22-.2-.25-.16-.1.08l.65 1.12c.03.06.01.1-.05.12-.05.01-.14-.04-.27-.16-.12-.1-.22-.15-.31-.16a.1.1 0 0 0-.1.06.1.1 0 0 0 .01.1c.09.13.1.25.06.35l1.15 1.12a.48.48 0 0 1 .06.62c-.13.2-.13.4.02.63.05.07.06.15.03.24-.13.32-.06.68.2 1.08.07.1.16.14.27.1l2.6-.98h.04l.04.06-.01.03-1.25.63c.2.52.59.7 1.2.56 1.04-.25 1.82-.42 2.33-.5 1.67-.24 4.28-.19 5.56 1.1.41.25.86.4 1.33.47.07 0 .11.03.14.05.04.04.06.1.04.16l.33-.15c.1-.05.14-.16.12-.32-.5-.13-.92-.32-1.26-.58-.54-.18-1.07-.39-1.57-.64-.62-.3-1.14-.5-1.57-.57a20.04 20.04 0 0 0-4.23-.3c.85-1.08 2-1.54 3.46-1.38.16-.58.44-.47.86.34 1.34-.52 2.79-.73 4.35-.65.15 0 .23.06.24.15a1 1 0 0 1-.02.34c.47-.05.84-.32 1.09-.8.15-.32.33-.56.52-.74a.47.47 0 0 0 .1-.12l.47-.89Z" fill="#C14516"/><path d="M19.14 27.3c.07.02.12.05.16.11l1.15 1.12a.48.48 0 0 1 .06.62c-.13.2-.13.4.02.63.05.07.06.15.03.24-.12.32-.06.68.2 1.08.07.1.16.14.27.1l2.6-.98h.04l.04.06-.01.03-1.25.63-1.55.7a1.22 1.22 0 0 0-.4-.17c-.1-.02-.15.02-.14.12l.07.97a.8.8 0 0 1-.28.68c0-.1-.01-.16-.06-.22a.14.14 0 0 0-.05-.03c0-1.52.94-.82-1.36-3.79a10.9 10.9 0 0 1-1.84-3.28c.76.51 1.29 1.28 1.58 2.31.03.1.1.18.2.2l1.1.33a.12.12 0 0 0 .1-.01.11.11 0 0 0 .05-.07.27.27 0 0 0-.04-.23.25.25 0 0 0-.04-.03c-.45-.3-.66-.68-.65-1.12Z" fill="#A39892"/><path d="M36.11 27.01c-2.77 6.64 3.41 7.7 5.02 10.23 0 .1-.04.2-.1.28a.15.15 0 0 0-.11-.09c-.1-.01-.16.03-.16.14v.2c0 .14-.06.18-.2.11-.96-.5-2.04-1.1-3.25-1.78-.39-.23-.58-.56-.86-.88-.07-.08-.14-.08-.22-.01a.77.77 0 0 1-.6.24c.12-.21.32-.4.6-.54.09-.04.1-.11.05-.2-.48-.71-.88-1-1.69-1.34a.6.6 0 0 1-.35-.46l-.3-2.36.54-.86a.12.12 0 0 0-.04-.16.12.12 0 0 0-.05-.02c-.24-.03-.4 0-.49.1-.23.27-.36.23-.4-.13l-.05-.42c.07.05.17.04.3-.04.49-.05.85-.32 1.1-.8.15-.32.33-.56.52-.74a.47.47 0 0 0 .1-.12l.47-.89c.14.22.2.4.17.54Z" fill="#B5B4A4"/><path d="M20.4 27.6c.32.33.58.7.77 1.11.07.16.16.28.27.36.09.06.22.1.41.1.38 0 .74.04 1.1.13a.3.3 0 0 1 .21.18.3.3 0 0 1-.03.28c-.36.51-.89.84-1.58 1a.37.37 0 0 1-.4-.2.37.37 0 0 1-.05-.14 8.18 8.18 0 0 0-.7-2.82Z" fill="#DF9A71"/><path d="M29.18 29.18a1.84 1.84 0 0 1-.85-.34c.16-.58.44-.47.86.34Z" fill="#8D1616"/><path d="M33.45 29.06c.07.05.17.04.3-.04a1 1 0 0 0 .03-.34c-.01-.1-.1-.14-.24-.15-1.56-.08-3.01.13-4.35.65a1.84 1.84 0 0 1-.86-.34c-1.46-.16-2.6.3-3.46 1.38 1.5-.04 2.91.05 4.23.3.43.07.95.27 1.57.57.5.25 1.03.46 1.57.64.34.26.76.45 1.26.58.15-.56.16-1.1.02-1.64-.03-.12.02-.17.14-.15l.28.03.54-.86a.12.12 0 0 0-.1-.18c-.23-.03-.4 0-.48.1-.23.27-.36.23-.4-.13l-.05-.42Z" fill="#EEA846"/><path d="m33.94 30.55.3 2.36a.58.58 0 0 0 .35.46c.8.35 1.21.63 1.69 1.34.05.09.04.16-.06.2a1.4 1.4 0 0 0-.6.54c-.12 0-.2.01-.25.06-.22-.1-.37-.1-.47-.05-1.02-.48-1.46-1.32-1.3-2.52 0-.1-.07-.2-.22-.31.1-.05.15-.16.12-.32.15-.56.16-1.1.02-1.64-.03-.12.02-.17.14-.15l.28.03Z" fill="#A39892"/><path d="M31.54 32.1a1 1 0 0 0-.48.1.33.33 0 0 0-.21-.14 6.83 6.83 0 0 0-2.74-.12c-.16-.18-.45-.21-.87-.1-1.2-.2-2.43-.2-3.67 0l-1.93.61c-.13-.2-.34-.38-.64-.54a.18.18 0 0 1-.1-.18v-.09l1.55-.7c.2.52.6.7 1.2.56 1.05-.25 1.82-.42 2.33-.5 1.67-.24 4.28-.19 5.56 1.1Z" fill="#8D1616"/><path d="M27.24 31.84c-1 .38-1.56.8-1.65 1.3-.12.6-.22 1.19-.32 1.77a.62.62 0 0 1-.12.27c-.22.28-.3.57-.23.87l-.16.18a20.76 20.76 0 0 1-2-1.07 3.22 3.22 0 0 1-.66-.73.24.24 0 0 1 0-.28l.45-.78a.14.14 0 0 1 .17-.07c.53.19.82.51.88.97a.87.87 0 0 0 .44.66l.3.18c.23.13.33.06.29-.2-.14-.99-.5-2.01-1.06-3.08 1.24-.19 2.47-.19 3.67.01Z" fill="#344A48"/><path d="M28.11 31.94c-1.27.84-1.96 1.83-2.07 2.99-.16 1 .15 1.65.94 1.95a.3.3 0 0 0 .37-.13l.49-.83c.06-.1.12-.1.18 0l.37.58c-.93 1.11-1.88 1.16-2.88.15-.04-.05-.08-.07-.13-.08l-.15.01c-.02-.31-.12-.49-.3-.53-.07-.3 0-.59.22-.87.06-.08.1-.17.12-.27.1-.58.2-1.17.32-1.77.1-.5.64-.92 1.65-1.3.41-.11.7-.08.87.1Z" fill="#676E72"/><path d="M23.56 31.83a9.46 9.46 0 0 1 1.07 3.09c.03.25-.06.32-.29.19l-.3-.18a.88.88 0 0 1-.44-.66c-.06-.46-.35-.78-.88-.97a.15.15 0 0 0-.17.07l-.46.78c-.06.1-.05.2.01.28.27.37.49.61.66.73.26.19.93.54 2 1.07.24 1.83.32 3.69.24 5.59 0 .1-.05.18-.15.18h-.35l-.06-.87c.05-1.35-.62-2.94-2.19-3.02-1.63-.08-2.72-.12-3.3-.13-.17 0-.26-.23-.13-.35.41-.37.6-.73.72-1.22.2-.86.47-1.72.83-2.56.45-.65.87-1.11 1.27-1.4l1.92-.62Z" fill="#14272D"/><path d="M31.54 32.1c.41.25.86.4 1.33.47.07 0 .11.03.14.05.04.04.06.1.04.16l-.77.95c-.36.2-.58.37-.67.51-.32.53-.48.49-.5-.13 0-.01-.07-.13-.23-.36l.14-.95.04-.6a1 1 0 0 1 .48-.1Z" fill="#333F4C"/><path d="m31.02 32.8.04-.6a.33.33 0 0 0-.21-.14 6.83 6.83 0 0 0-2.74-.12c-1.27.84-1.96 1.83-2.07 2.99-.16 1 .15 1.65.94 1.95a.3.3 0 0 0 .37-.13l.49-.83c.06-.1.12-.1.18 0l.37.58 1.19-.75c.53-.54.97-1.2 1.3-2l.14-.95Z" fill="#B9B9BD"/><path d="M20.9 31.73v-.09a1.22 1.22 0 0 0-.4-.17c-.1-.02-.15.02-.14.12l.07.97a.8.8 0 0 1-.28.68c-.6.49-1.08 1.06-1.44 1.72-.33.07-.63.18-.89.34-.34.2-.62.32-.84.39a5.36 5.36 0 0 0-3.92 3.65l-1 2.22c.33.04.59-.1.77-.44a8.43 8.43 0 0 1 1.92-2.63c.18-.15.55-.36 1.1-.63.99-.49 1.72-.91 2.2-1.27.14-.1.25-.16.34-.2a.3.3 0 0 0 .2-.17c.41-1 1.01-1.8 1.78-2.37.45-.65.87-1.11 1.27-1.4-.13-.2-.34-.38-.64-.54a.18.18 0 0 1-.1-.18Z" fill="#A89D7D"/><path d="m29.58 35.75.18.38c-.18.29-.28.52-.31.7-.3 1.67-.53 3.44-.45 5.17h-.52l-.54-3.58a.5.5 0 0 0-.17-.3.5.5 0 0 0-.32-.12H25.3l-.07-1.42a.48.48 0 0 1 .15 0c.05 0 .09.02.13.07 1 1.01 1.95.96 2.88-.15l1.19-.75Z" fill="#344A48"/><path d="M29.54 42H29c-.08-1.73.15-3.5.45-5.18.03-.17.13-.4.31-.69.13.04.18.16.16.36-.04.34-.1.67-.2 1-.09.34-.13.67-.1.99.06 1.11.04 2.34-.08 3.52Z" fill="#A39892"/><path d="M28.48 42h-2.9c-.07 0-.15-.12-.16-.19l-.12-3.8 2.14-.01a.5.5 0 0 1 .33.12c.1.08.16.18.17.3l.54 3.58Z" fill="#545D6A"/><path d="m41 42-.33-1.38.53-2.12c-.12-.3-.18-.63-.17-.98.06-.08.1-.17.1-.28.12.06.2.12.25.18a34.84 34.84 0 0 1 2.6 4.34c.04.1.01.24.01.24h-3Z" fill="#A39892"/><path d="M19.54 36.4c.2-.85.47-1.7.83-2.55a5.62 5.62 0 0 0-1.79 2.37.3.3 0 0 1-.19.18c-.1.03-.2.1-.33.2-.49.35-1.22.77-2.21 1.26-.55.27-.92.48-1.1.63a8.43 8.43 0 0 0-1.92 2.63c-.18.33-.44.48-.77.44l-.05.22c-.03.1.01.22.13.22h12.41l-.11-.87c.05-1.35-.62-2.94-2.18-3.02-1.63-.08-2.73-.12-3.3-.13a.2.2 0 0 1-.14-.35c.41-.37.61-.73.72-1.22Z" fill="#435652"/><path d="M33.38 32.63c.15.1.22.21.21.3-.15 1.21.29 2.05 1.31 2.53.1-.06.25-.04.47.05.04-.05.13-.07.26-.06.21.02.41-.06.6-.24.08-.07.15-.07.22 0l.2.25c.19.24.37.47.66.64 1.2.68 2.3 1.28 3.25 1.78.14.07.2.03.2-.12v-.2c0-.1.05-.14.16-.13.05.01.09.04.11.09 0 .35.05.68.17.98l-.53 2.12.66 1.38H29.54c.12-1.18.14-2.4.07-3.52-.02-.32.02-.65.12-1 .08-.32.15-.65.19-.99.02-.2-.03-.32-.16-.36l-.18-.38c.53-.54.97-1.2 1.3-2l.24.36c0 .62.17.66.5.13.08-.14.3-.3.66-.5l.77-.96.33-.15Z" fill="#758475"/></svg>