<svg width="56" height="56" viewBox="0 0 56 56" xmlns="http://www.w3.org/2000/svg"><rect fill="#151D28" width="56" height="56" rx="28"/><path d="M27.63 22c-2.78-1.15-5.54-2.31-8.31-3.48a.15.15 0 0 1-.08-.2l1.94-4.81a.04.04 0 0 1 .04-.03l.03.01.01.02.18.48c.92 2.43 4.48 1.72 4.3-.9-.03-.4.28-.88.62-1.22.55-.55 1.02-1.23 1.5-1.83a.1.1 0 0 1 .15 0c.59.8 1.2 1.53 1.83 2.23.34.37.2 1.02.3 1.49.47 1.95 3.11 2.4 4.1.58a4.65 4.65 0 0 0 .38-.86.03.03 0 0 1 .05.01l1.97 4.87a.11.11 0 0 1-.06.15c-2.84 1.2-5.66 2.37-8.46 3.53-.14.06-.34.02-.5-.05ZM25.28 22.3c.5.2 1.28.42 1.55.9.06.12.1.32.11.58a4.4 4.4 0 0 0 .1.79.04.04 0 0 1-.03.02H27c-2.06-.97-4.4-2-6.18-2.97-.45-.25-.9-.96-1.23-1.38a.07.07 0 0 1-.01-.06c.01-.06.06-.08.15-.06l.45.15c1.7.69 3.4 1.37 5.1 2.03ZM29.64 22.68c2.14-.83 4.25-1.71 6.38-2.56.09-.03.16-.03.22 0a.09.09 0 0 1 .04.1l-.01.03c-.48.62-.82 1.18-1.54 1.54-1.94.97-3.89 1.9-5.86 2.78-.03.02-.04.01-.04-.03.13-.75-.08-1.51.81-1.86ZM29.29 24.99l5.47-1.88c.07-.02.08 0 .03.06-.62.85-1.3 1.67-2.02 2.46-.13.15-.36.15-.56.1l-2.6-.5a1.95 1.95 0 0 1-.32-.1c-.14-.05-.14-.1 0-.14ZM21.14 23.12l5.39 1.86c.21.07.2.13-.01.18-.93.2-1.9.4-2.9.58-.28.06-.42.01-.62-.2-.7-.77-1.33-1.55-1.91-2.34-.06-.08-.05-.1.05-.08Z" fill="#fff"/><path fill-rule="evenodd" d="M29.53 28.14c-1.03.8-2.06.8-3.08-.02-.03-.02-.03-.05-.02-.08.12-.26.25-.52.39-.77.02-.04.02-.08 0-.12 0 0 0-.02-.02-.02a.06.06 0 0 0-.05-.01s-.02 0-.02.02l-3.62 3.89a.06.06 0 0 1-.08 0 .06.06 0 0 1-.02-.07l.74-1.67c0-.03 0-.05-.02-.07-.8-.53-1.61-1.04-2.44-1.52a2.96 2.96 0 0 1-1.52-2.14.06.06 0 0 0-.08 0 .06.06 0 0 0-.02.02c-.54 1.18-1.1 2.27-2.18 3.05-.42.3-.97.54-1.5.78l-.33.14c-1.16.54-2.06 1.79-2.56 2.98-.15.37-.15.65.16.92 4.8 4.1 9.6 8.2 14.4 12.32l.31.22c.03.02.06.01.09 0l.39-.33c4.75-4.07 9.5-8.13 14.27-12.18.29-.24.35-.54.2-.9a5.87 5.87 0 0 0-2.37-2.9 9.72 9.72 0 0 0-.84-.41 8.62 8.62 0 0 1-.9-.45c-1.19-.72-1.85-1.84-2.4-3.08-.12-.25-.2-.24-.23.03-.2 1.18-1.3 1.83-2.3 2.43-.24.14-.47.27-.68.41l-.92.61c-.03.02-.04.05-.03.08l.73 1.64v.09a.05.05 0 0 1-.06.02h-.02l-3.64-3.93c-.03-.03-.05-.03-.07 0-.03.03-.03.07 0 .13a20.13 20.13 0 0 0 .38.83.1.1 0 0 1-.04.06Zm-2.69 7.4c.75-.54 1.44-.53 2.19.02.18.13.5.2.66.08a104.66 104.66 0 0 0 1.43-1.18.09.09 0 0 0-.02-.1c-.55-.42-1.05-.87-1.52-1.35-.91-.94-2.72-.8-3.55.2a6.59 6.59 0 0 1-1.33 1.23.05.05 0 0 0 .02.04c.48.37.95.75 1.4 1.16.22.18.5.06.72-.1Z" fill="#fff"/></svg>