<svg width="56" height="56" viewBox="0 0 56 56" xmlns="http://www.w3.org/2000/svg"><rect fill="url(#a)" width="56" height="56" rx="28"/><path d="M28.27 12c.47.03.95.07 1.42.12 2.41.26 4.63 1.01 6.64 2.25a15.92 15.92 0 0 1 .9 26.66 15.96 15.96 0 0 1-7.7 2.87l-1.25.1h-.36l-1.38-.11a14.4 14.4 0 0 1-3.38-.67 16.17 16.17 0 0 1-7.73-5.36A16.18 16.18 0 0 1 12 28.19v-.3l.09-1.3a15.98 15.98 0 0 1 5.68-10.84 16.2 16.2 0 0 1 9.8-3.75h.7Z" fill="#6D6D6D"/><path d="M37.3 40.82c.13-.14.27-.28.42-.4l.44-.39a23.05 23.05 0 0 0 2.62-2.99c.64-.96 1.19-1.95 1.62-2.95a13.8 13.8 0 0 0 1.11-5.19.07.07 0 0 0-.03-.01c-.03 0-.05 0-.05.04a12.98 12.98 0 0 1-.45 2.66c-.06.34-.14.67-.25.98-.3.9-.61 1.72-.97 2.48-.1.2-.2.41-.34.62-.4.6-.83 1.22-1.33 1.86a17.55 17.55 0 0 1-1.9 2.04c-.1.1-.62.48-1.55 1.14-.03.02-.04.02-.02-.01.07-.16.16-.29.28-.4l.64-.6c.31-.27.52-.47.64-.6a17.9 17.9 0 0 0 3.5-5.36 14.45 14.45 0 0 0 1.1-5.42 16.7 16.7 0 0 0-1-5.82 6.82 6.82 0 0 0-.56-1.22 17.4 17.4 0 0 0-1.88-2.95c-.38-.45-.88-.96-1.52-1.55a12.67 12.67 0 0 0-2.37-1.73 37.9 37.9 0 0 0-1.5-.81c-.26-.13-.63-.28-1.1-.46a4.91 4.91 0 0 0-1.09-.29c-.54-.06-.91-.1-1.12-.11-.13-.01-.92-.03-2.4-.05a14.6 14.6 0 0 0-3.86.45c-.12.02-.3.05-.55.07a15 15 0 0 1 3.6-.66l1.62-.08c.03 0 .04-.01.04-.04 0-.02 0-.03-.03-.04a69.03 69.03 0 0 0-1.63-.35 9.38 9.38 0 0 0-3.16.22 15.56 15.56 0 0 0-7.26 4.04.13.13 0 0 0-.07-.02 15.89 15.89 0 0 1 5.65-3.64c.09-.05.08-.07-.02-.06-.07 0-.16.02-.29.05h-.02v-.03l.02-.03a39.98 39.98 0 0 1 1.58-.5c.73-.2 1.48-.35 2.24-.45a27.92 27.92 0 0 1 2.99-.06 53.3 53.3 0 0 0 1.9.23l.01.02h.03c.08 0 .15 0 .22.03l.2.07.74.16.77.24a7.71 7.71 0 0 1 1.08.4 14.55 14.55 0 0 1 4.27 2.59l.41.35a16.6 16.6 0 0 1 3.2 4.11l.23.46.23.47a18.55 18.55 0 0 1 .5 1.15c.04.04.07.08.08.13l.33 1.15c.05.15.11.4.18.72a14.47 14.47 0 0 0 .2.91 17.14 17.14 0 0 1-.28 6.42c-.15.6-.27 1.05-.37 1.32a9.56 9.56 0 0 1-.86 1.96l-.47.9a16.68 16.68 0 0 1-4.4 4.83Z" fill="#2C2D2E"/><path d="M37.3 40.82c-.1.05-.19.1-.27.17l-.22.16a15.9 15.9 0 0 1-5.74 2.4 21.2 21.2 0 0 1-.6.06c-.03-.01-.04-.03-.03-.05.01-.03 0-.05-.04-.05-.24 0-.51.02-.82.06a22.36 22.36 0 0 1-2.11.08 17.27 17.27 0 0 1-4.3-.74c-.1 0-.1.03-.02.07l.22.12c.03 0 .03.02 0 .03l-.04.02a.1.1 0 0 1-.08 0l-1.03-.4a12.26 12.26 0 0 1-1.14-.5 5.37 5.37 0 0 1-.45-.23l-1.16-.68a18.7 18.7 0 0 1-4.12-3.72 19.04 19.04 0 0 1-1.82-3.12c-.11-.22-.2-.44-.28-.67l-.33-.87a1.68 1.68 0 0 1-.1-.35 1.7 1.7 0 0 0-.1-.36l-.1-.4a10.95 10.95 0 0 0-.25-1.11l-.03-.24c0-.07-.02-.15-.04-.24-.04-.19-.06-.39-.05-.6a.4.4 0 0 0-.06-.23 10.63 10.63 0 0 0-.05-1.35c-.02-.09-.01-.24.01-.44a4.08 4.08 0 0 0 .02-.7 2 2 0 0 1 .06-.46.91.91 0 0 0 .02-.2c0-.18.02-.37.08-.56l.03-.22a16.04 16.04 0 0 1 4.43-8.6v.02l-.03.05V17h.03c.05-.02.1-.04.15-.08.03 0 .05 0 .07.02a15.04 15.04 0 0 0-3.38 5.07c-.29.7-.5 1.38-.61 2.01l-.17.88a16.07 16.07 0 0 0-.2 3.28l.04.05c.05.04.1.01.12-.07.04-.1.07-.2.08-.3l.19-1.21a16.55 16.55 0 0 1 2.08-5.93 15.09 15.09 0 0 1 6.65-6.09c.33-.14.61-.27.82-.39a.41.41 0 0 1 .2-.06c.03 0 .07-.01.12-.04a14.06 14.06 0 0 0 .88-.29c.25-.02.43-.05.55-.07 1.27-.33 2.56-.48 3.87-.45 1.47.02 2.27.04 2.4.05.2 0 .57.05 1.11.11.32.04.68.14 1.1.3.47.17.83.32 1.09.45.32.16.83.43 1.5.8.8.45 1.59 1.03 2.37 1.74.64.59 1.15 1.1 1.52 1.55a17.4 17.4 0 0 1 2.44 4.17 16.7 16.7 0 0 1 1 5.82c-.02 1.88-.39 3.7-1.1 5.42a17.9 17.9 0 0 1-3.5 5.36c-.12.13-.33.33-.64.6l-.64.6c-.12.11-.21.24-.28.4a34.86 34.86 0 0 0 1.69-1.22 8.23 8.23 0 0 0 .91-.93c.38-.42.68-.76.88-1.02.49-.64.93-1.26 1.32-1.86.13-.2.25-.41.34-.62.36-.76.68-1.58.97-2.48.1-.31.2-.64.25-.98l.22-1c.09-.34.16-.9.23-1.66 0-.03.02-.04.05-.04l.04.01v.04a13.8 13.8 0 0 1-1.12 5.15c-.43 1-.98 1.99-1.63 2.95a23 23 0 0 1-2.61 2.99l-.44.38c-.15.13-.3.27-.42.41Z" fill="#252525"/><path d="M41.66 29.08a15.71 15.71 0 0 1-.87 3.6 13.57 13.57 0 0 1-9.58 8.55c-.7.17-1.64.33-2.79.47-.1 0-.2-.02-.3-.04a2 2 0 0 0-.3-.03 13.7 13.7 0 0 1-12.9-17.46 13.73 13.73 0 0 1 5.36-7.43 12.47 12.47 0 0 1 6.5-2.31c.9-.05 1.55-.06 1.97-.04a23.51 23.51 0 0 1 2.07.28c.85.18 1.66.43 2.43.75.2.08.61.28 1.21.6a12.92 12.92 0 0 1 6.43 7.65 16.5 16.5 0 0 1 .77 5.41Z" fill="#15181C"/><path d="M37.6 36.14c-.32.3-.65.57-1 .81a.78.78 0 0 1-.27.13c-.03 0-.05 0-.07-.02a.07.07 0 0 1-.02-.06c.02-.14.07-.28.15-.42l.92-1.56c.59-1.04 1.05-2.12 1.37-3.25a12.6 12.6 0 0 0-2.57-11.66 5.78 5.78 0 0 0-2.82-1.9c-.66-.19-1.38-.34-2.17-.45-.6-.09-1.36-.16-2.26-.23a14.73 14.73 0 0 0-1.47-.04l1.06.04a10.64 10.64 0 0 0-8.1 3.33 10.42 10.42 0 0 0-2.82 7l-.02-.12c0-.03-.02-.04-.05-.04a.98.98 0 0 0-.56.21c-.27.21-.65.55-1.16 1.02-.02.02-.03.01-.03-.02l-.12-.81.08.5c.03.13.05.13.08 0a31.8 31.8 0 0 1 .57-2.43l.24-.58.65-1.47.17-.26c.27-.4.53-.81.76-1.24.08-.14.42-.6 1.03-1.35.2-.25.47-.52.8-.8l.72-.68c.31-.3.63-.55.96-.75l.78-.5c.27-.17.54-.31.82-.42.25-.1.53-.23.84-.38.44-.22.89-.4 1.33-.51 1-.28 2.1-.5 3.26-.69.19-.02.36-.07.5-.15a.15.15 0 0 0 .1-.13.15.15 0 0 0-.08-.14 1.73 1.73 0 0 0-.4-.17l-.83-.24c-.35-.12-.6-.18-.76-.18h-1.19c.58-.1 1.17-.17 1.76-.18.15 0 .36 0 .62.04a6.3 6.3 0 0 0 .4.06c-.27-.01-.53.02-.78.1h-.08c-.02 0-.02 0 0 0a.2.2 0 0 0 .12.02c.6-.13 1.2-.15 1.8-.06a12.45 12.45 0 0 1 8.72 5.58 12.37 12.37 0 0 1 1.53 10.39 11.95 11.95 0 0 1-1.25 2.94c-.25.34-.48.69-.7 1.04-.11.16-.3.39-.57.68Z" fill="#2C2D2E"/><path d="M26.02 15.53h1.19c.15 0 .4.06.76.18l.83.24c.13.03.27.09.4.17.06.03.08.07.08.14 0 .06-.03.1-.09.13-.15.08-.32.13-.5.15-1.18.18-2.26.41-3.27.69-.44.12-.88.29-1.33.51-.3.15-.59.28-.83.38-.29.1-.56.25-.83.42a41 41 0 0 1-.78.5c-.33.2-.64.45-.96.75l-.71.67c-.34.3-.6.56-.8.81-.62.76-.96 1.2-1.04 1.35a14.8 14.8 0 0 1-.93 1.5c-.19.45-.4.94-.65 1.47a7.9 7.9 0 0 0-.52 1.65l-.29 1.36c-.03.13-.05.13-.07 0l-.1-.5-.02-.74c0-.28.02-.85.07-1.68.14-.94.38-1.83.75-2.67a12.56 12.56 0 0 1 9.65-7.48Z" fill="#6D6D6D"/><path d="M28.92 16.34c.05-.02.16-.06.31-.14.02 0 .03 0 .03.02v.04l-.01.02c-.24.13-.48.22-.74.27l-2 .34a6.45 6.45 0 0 0-.65.14c-.02-.02-.01-.03 0-.04.57-.17 1.18-.3 1.84-.37a6.6 6.6 0 0 0 1.22-.28Z" fill="#2C2D2E"/><path d="M37.6 36.14c-.35.47-.64.8-.88 1a15.78 15.78 0 0 1-4.14 2.49c-.62.25-1.23.44-1.83.58-.49.11-1.02.2-1.57.27a11.1 11.1 0 0 1-4.69-.39A12.4 12.4 0 0 1 19 36.72c-.36-.37-.72-.73-1.1-1.08a3.23 3.23 0 0 1-.66-1.03 7.2 7.2 0 0 0-.4-.83 2 2 0 0 1-.12-.26l-.12-.25a2.27 2.27 0 0 1-.18-.37c-.24-.66-.43-1.22-.57-1.7l-.16-.72-.12-.74a5.9 5.9 0 0 1-.11-.84c-.02-.49-.03-.97-.02-1.46 0-.12-.02-.2-.08-.25.04-.46.09-.86.15-1.2.02-.09.06-.2.12-.31a16.73 16.73 0 0 0-.04 2.42l.12.81c0 .03.01.04.04.02.5-.47.88-.8 1.15-1.02.16-.13.35-.2.56-.2.03-.01.05 0 .05.03l.02.12A10.5 10.5 0 0 0 27.6 38.45c2.27.07 4.35-.45 6.23-1.58a9.28 9.28 0 0 0 2.14-1.74 7.89 7.89 0 0 0 1.47-2.33c.34-.82.46-1.68.36-2.58a.81.81 0 0 0-.57-.73.8.8 0 0 0-.55 0 1.1 1.1 0 0 0-.46.33c-.21.24-.35.46-.42.64-.16.47-.32.88-.48 1.24a8.89 8.89 0 0 1-2.33 3.15 7.27 7.27 0 0 1-3.53 1.66c-1.47.25-2.91.13-4.32-.37-1.4-.5-2.6-1.3-3.59-2.41a8.44 8.44 0 0 1-2.12-4.83c-.17-1.63.09-3.16.78-4.6a8.52 8.52 0 0 1 3.27-3.66 8.35 8.35 0 0 1 4.73-1.27c1.6.05 3.04.5 4.32 1.36A10.1 10.1 0 0 1 36.06 25c.2.44.34.75.45.93.43.7 1.05 1.12 1.86 1.25.03.01.05 0 .07-.02a.08.08 0 0 0 .02-.07l-.28-1.63a8.06 8.06 0 0 0-2.43-5.04 8.94 8.94 0 0 0-2.02-1.51 11.3 11.3 0 0 0-4.26-1.3 23.5 23.5 0 0 0-1.02-.08l-1.06-.04c.52 0 1 0 1.47.04.9.07 1.66.14 2.26.23.79.11 1.51.26 2.17.45 1.06.3 2 .93 2.82 1.9a12.6 12.6 0 0 1 2.57 11.66 14.76 14.76 0 0 1-1.37 3.25l-.92 1.56a1.1 1.1 0 0 0-.15.42c0 .02 0 .04.02.06.02.02.04.02.07.02.1-.03.19-.07.27-.13.35-.24.68-.51 1-.81Z" fill="#252525"/><path d="M28.45 17.53c.34.02.68.04 1.02.08 1.5.15 2.92.58 4.26 1.3.7.38 1.38.88 2.02 1.5a8.06 8.06 0 0 1 2.43 5.05l.28 1.63c0 .03 0 .05-.02.07a.08.08 0 0 1-.07.02 2.61 2.61 0 0 1-1.86-1.25c-.1-.18-.26-.49-.45-.93l-.27-.56a10.1 10.1 0 0 0-3.27-3.7 7.96 7.96 0 0 0-4.32-1.37 8.35 8.35 0 0 0-4.73 1.27 8.52 8.52 0 0 0-3.27 3.65 8.45 8.45 0 0 0-.79 4.6c.2 1.84.9 3.45 2.13 4.84a8.46 8.46 0 0 0 3.59 2.41c1.4.5 2.84.62 4.31.37a7.28 7.28 0 0 0 3.54-1.66 8.89 8.89 0 0 0 2.33-3.15c.16-.36.32-.77.48-1.24.07-.18.2-.4.42-.64.13-.15.29-.26.46-.32a.8.8 0 0 1 .55 0c.34.12.53.36.57.72.1.9-.02 1.76-.36 2.58a7.89 7.89 0 0 1-1.47 2.33 9.28 9.28 0 0 1-2.14 1.74 11.15 11.15 0 0 1-6.23 1.58 10.5 10.5 0 0 1-10.06-10.59 10.58 10.58 0 0 1 2.83-7 10.64 10.64 0 0 1 8.1-3.33Z" fill="#0286C2"/><path d="M18.1 18.62a13.73 13.73 0 0 0-3.2 5.55 13.8 13.8 0 0 0 2.86 12.81 13.7 13.7 0 0 0 7.78 4.43.21.21 0 0 1-.08.13.07.07 0 0 1-.06.01c-.32-.07-.66-.13-1.04-.19-.87-.14-1.75-.4-2.64-.8a13.67 13.67 0 0 1-6.9-7.34 15.28 15.28 0 0 1-1-4.65 10.73 10.73 0 0 1 .12-2.1 17.2 17.2 0 0 1 .62-2.86c.21-.61.45-1.17.72-1.67l.54-1c.17-.32.52-.82 1.05-1.5l.93-1.04a.1.1 0 0 1 .06-.03h.04c.02-.01.04 0 .04.03 0 .08.06.15.16.22Z" fill="#2C2D2E"/><path d="M29.54 20.02c.73.15 1.43.38 2.1.7.7.34 1.3.74 1.8 1.22a7.62 7.62 0 0 1 2.02 2.84c.2.46.52.99.94 1.59.04.05.03.07-.03.05a3.4 3.4 0 0 1-1.64-1c-.3-.35-.6-.78-.93-1.29l-1.09-1.71a5.23 5.23 0 0 0-.96-1.01 9.07 9.07 0 0 0-2.23-1.33c-.17-.07-.16-.1.02-.06ZM30.18 24.23c-.84-.7-1.8-.99-2.9-.87a4.29 4.29 0 0 0-3.25 1.93 4.78 4.78 0 0 0 .4 5.91 4.66 4.66 0 0 0 5.61 1.16 6.75 6.75 0 0 0 2.38-1.85c.49-.6.86-1.35 1.12-2.23.24-.81.36-1.65.36-2.52 0-.06.02-.07.05-.01.43.69.72 1.4.88 2.13.17.8.16 1.57-.04 2.28a6.67 6.67 0 0 1-4.36 4.6c-1.75.6-3.48.56-5.2-.12a6.72 6.72 0 0 1-3.25-2.67 7.22 7.22 0 0 1-.17-7.6 7.04 7.04 0 0 1 2.58-2.6 5.42 5.42 0 0 1 3.54-.7c.53.06 1.02.15 1.46.28 1.02.3 1.85.92 2.5 1.84.66.93.92 1.93.79 3-.1.8-.39 1.54-.87 2.23-.05.08-.07.07-.07-.02a5.71 5.71 0 0 0-.28-2.28c-.27-.77-.7-1.4-1.28-1.89Z" fill="#BAD4E5"/><path d="M12.97 31.89c.4 1.53 1.01 2.97 1.85 4.32.32.51.76 1.14 1.31 1.87l.31.35c.15.16.26.29.32.38.15.26.13.29-.07.1-.48-.46-.92-.95-1.3-1.47a16.09 16.09 0 0 1-2.66-5.49 15.02 15.02 0 0 1-.35-6.1c.09-.64.23-1.27.43-1.9.08-.27.12-.25.1.05 0 .11-.03.27-.09.48l-.1.46c-.13.91-.2 1.67-.23 2.27-.08 1.6.08 3.15.48 4.68Z" fill="#6D6D6D"/><path d="M27.99 30.14a2.14 2.14 0 1 0 0-4.28 2.14 2.14 0 0 0 0 4.28Z" fill="#0286C2"/><path d="M17.24 34.6a11.96 11.96 0 0 1-1.4-3.12c-.4-1.38-.55-2.81-.48-4.29.05.05.08.13.08.25a30.17 30.17 0 0 0 .04 1.58c.01.2.04.43.08.72a48.56 48.56 0 0 0 .3 1.46c.13.48.32 1.04.56 1.7.05.12.1.25.18.37l.11.25a2 2 0 0 0 .12.26c.15.27.29.54.4.83ZM28.43 41.7c1.15-.14 2.08-.3 2.78-.47a13.57 13.57 0 0 0 9.58-8.55c.43-1.17.72-2.37.87-3.6l.13-1.53c0-.03.02-.05.05-.04.02 0 .04.02.05.06.07.28.1.62.11 1.01.03 1.87-.34 3.66-1.1 5.37a13.99 13.99 0 0 1-7.72 7.34 12.78 12.78 0 0 1-6.47.75l-.02-.03c0-.02 0-.03.02-.03l.47-.03c.12 0 .28-.03.46-.07l.79-.18Z" fill="#6D6D6D"/><defs><linearGradient id="a" x1="10.42" y1="9.71" x2="68.15" y2="76.02" gradientUnits="userSpaceOnUse"><stop stop-color="#1A1E21"/><stop offset="1" stop-color="#06060A"/></linearGradient></defs></svg>