<svg width="224" height="224" viewBox="0 0 56 56" xmlns="http://www.w3.org/2000/svg"><path fill-rule="evenodd" d="M35.4 17.23c-1.77-.36-3.6-.56-5.49-.58-.07 0-.1-.04-.08-.11.12-.46.07-.84-.26-1.2a9.97 9.97 0 0 0-6.22-3.25A10.12 10.12 0 0 0 12 22.02c-.03 2.37.7 4.53 2.17 6.48.48.64 1.2.63 1.75.08l1.47-1.41c.08-.07.11-.05.1.05L16.7 34a6.7 6.7 0 0 0 0 1.62c.46 3.62 3.07 6.14 6.34 7.35 2.9 1.07 5.94 1.3 9.12.69 4.22-.8 8.24-3.45 8.8-8.1.06-.47.05-1.07-.04-1.8-.56-4.7-1.1-9.2-1.58-13.48l-.03-.23c-.04-.46-.09-.9-.4-1.25-.78-.86-2.4-1.35-3.51-1.58ZM26 19.94a.87.87 0 0 1-1.17-.08c-.46-.54-.16-1.05.3-1.44a196.31 196.31 0 0 0 2.72-2.34.08.08 0 0 0 0-.02.08.08 0 0 0-.02-.06 8.34 8.34 0 0 0-11.71.23 8.5 8.5 0 0 0-1 10.66.07.07 0 0 0 .04.01.07.07 0 0 0 .05-.02l2.46-2.34c.1-.1.16-.21.18-.35.11-.73.2-1.48.25-2.24.01-.18.06-.34.14-.5.3-.56 1.2-.48 1.44.1.06.15.08.35.05.61a482.63 482.63 0 0 1-1.18 10.46.05.05 0 0 0 .05.06h.02c.72-.3 1.44-.52 2.16-.68 1.28-.28 2.58-.48 3.9-.6 2.6-.22 5.22-.23 7.87-.03 1.76.13 3.44.4 5.05.82a8.96 8.96 0 0 1 1.43.5.06.06 0 0 0 .04-.02.12.12 0 0 0 .02-.08l-1.34-11.25c0-.05-.03-.06-.08-.05-1.18.4-2.39.69-3.62.85-3.52.46-7.12.43-10.59-.11a13.6 13.6 0 0 1-1.43-.31c-.86-.23-4.04-1.2-3.22-2.68.32-.58 1.01-.53 1.45-.13.41.39.92.66 1.52.84 1.44.42 2.98.69 4.62.79 2.18.14 4.28.12 6.3-.07a14.45 14.45 0 0 0 4.15-.91v-.06a34.1 34.1 0 0 0-8.84-1.15c-.1 0-.2.04-.27.1-.6.5-1.17 1-1.74 1.5Zm-7.06 14.47c-.1.06-.1.11 0 .16 1.77.78 3.77 1.1 5.66 1.28 2.74.26 5.5.26 8.28.01 1.23-.11 2.46-.3 3.68-.57a10.57 10.57 0 0 0 2.18-.75.07.07 0 0 0 0-.08 43.23 43.23 0 0 0-15.19-1.21c-1.01.12-2.03.32-3.05.59-.58.15-1.1.34-1.56.57Zm20.13 1.95c-.8 3-3.7 4.78-6.58 5.49-1.56.38-3.19.51-4.88.39-3.7-.27-7.85-1.94-9.06-5.83v-.01a.08.08 0 0 1 .04-.09.08.08 0 0 1 .07 0c1.68.7 3.57 1.02 5.38 1.2 3.85.4 7.61.32 11.29-.23a17.76 17.76 0 0 0 3.73-.96.04.04 0 0 1 .01.04Z" fill="#fff"/></svg>