<svg width="112" height="112" viewBox="0 0 56 56" xmlns="http://www.w3.org/2000/svg"><rect fill="url(#a)" width="56" height="56" rx="28"/><path d="M17.6 42c-1.4 0-2.35-.8-2.65-1.2L23 30.69l18.63 9.05c-.38 1.6-2.22 2.18-3.09 2.27H17.6Z" fill="url(#b)"/><path d="M23 14v16.7l-9-1.3v-12a3.3 3.3 0 0 1 3.23-3.4H23Z" fill="url(#c)"/><path d="M23 30.68c-7.31-3.18-8.96-7.15-8.98-8.77v15.9c0 1.96.68 2.86 1.01 3.07A10.84 10.84 0 0 0 23 30.68Z" fill="url(#d)"/><path d="M26 23.85V14h6l-6 9.85Z" fill="url(#e)"/><path d="M26 14.05v9.8L28.34 20A17.74 17.74 0 0 0 26 14.05Z" fill="url(#f)"/><path d="M38.4 14h-3.13L29 26l13-8.15c0-2.12-1.62-3.85-3.6-3.85Z" fill="url(#g)"/><path d="M35.3 14h-.03L29 26l5.38-3.37c1.57-3.99 1.35-7.14.92-8.63Z" fill="url(#h)"/><path d="m42 21-12 7h12v-7Z" fill="url(#i)"/><path d="M42 21.06V21l-12 7h7.17A13.28 13.28 0 0 0 42 21.06Z" fill="url(#j)"/><path d="M42 31H31l11 5v-5Z" fill="url(#k)"/><path d="M42 31.08c-.83 1.01-2.41 2.37-3.57 3.3L31 31h11v.08Z" fill="url(#l)"/><defs><linearGradient id="a" x1="10.42" y1="9.71" x2="68.15" y2="76.02" gradientUnits="userSpaceOnUse"><stop stop-color="#1A1E21"/><stop offset="1" stop-color="#06060A"/></linearGradient><linearGradient id="b" x1="16.31" y1="42.63" x2="32.52" y2="33.07" gradientUnits="userSpaceOnUse"><stop stop-color="#24E27F"/><stop offset="1" stop-color="#2B7F57"/></linearGradient><linearGradient id="c" x1="23.9" y1="14.31" x2="18.02" y2="30.53" gradientUnits="userSpaceOnUse"><stop stop-color="#29DA7E"/><stop offset=".18" stop-color="#21E07D"/><stop offset=".76" stop-color="#27895A"/></linearGradient><linearGradient id="d" x1="20.12" y1="24.47" x2="24.21" y2="39.2" gradientUnits="userSpaceOnUse"><stop stop-color="#25D87C"/><stop offset=".76" stop-color="#287F56"/></linearGradient><linearGradient id="e" x1="28.98" y1="14" x2="29.01" y2="23.85" gradientUnits="userSpaceOnUse"><stop stop-color="#317D59"/><stop offset=".55" stop-color="#5BE2A2"/></linearGradient><linearGradient id="f" x1="27.17" y1="14.05" x2="27.17" y2="23.85" gradientUnits="userSpaceOnUse"><stop stop-color="#26E080"/><stop offset=".65" stop-color="#278A5B"/></linearGradient><linearGradient id="g" x1="35.5" y1="14" x2="35.5" y2="21.43" gradientUnits="userSpaceOnUse"><stop stop-color="#327C59"/><stop offset="1" stop-color="#22D87B"/></linearGradient><linearGradient id="h" x1="33.37" y1="15.29" x2="33.35" y2="22.28" gradientUnits="userSpaceOnUse"><stop stop-color="#24E07F"/><stop offset="1" stop-color="#278859"/></linearGradient><linearGradient id="i" x1="38.37" y1="21.56" x2="36.01" y2="27.12" gradientUnits="userSpaceOnUse"><stop stop-color="#37815D"/><stop offset="1" stop-color="#21E781"/></linearGradient><linearGradient id="j" x1="35.26" y1="22.68" x2="36.18" y2="27.58" gradientUnits="userSpaceOnUse"><stop stop-color="#27D77D"/><stop offset="1" stop-color="#278B5A"/></linearGradient><linearGradient id="k" x1="36.5" y1="31" x2="36.5" y2="36" gradientUnits="userSpaceOnUse"><stop stop-color="#397F5D"/><stop offset="1" stop-color="#28CE78"/></linearGradient><linearGradient id="l" x1="36.15" y1="31.1" x2="36.15" y2="33.67" gradientUnits="userSpaceOnUse"><stop stop-color="#21E17E"/><stop offset="1" stop-color="#27965F"/></linearGradient></defs></svg>