<svg width="112" height="112" fill="none" xmlns="http://www.w3.org/2000/svg" viewBox="0 0 56 56"><rect fill="url(#paint0_linear_1530)" width="56" height="56" rx="28"/><path fill-rule="evenodd" clip-rule="evenodd" d="M31.816 12.458c-.94 3.098.273 5.31 1.109 6.1 1.533-1.159 2.207-3.229 2.45-4.76C40.498 16.465 44 21.827 44 28.006c0 3.5-1.122 6.736-3.027 9.37.03-.439.042-.897.038-1.375a.26.26 0 00.006-.059v-2.31a.259.259 0 00-.517 0v1.585c-2.038.325-5.872 2.388-7.075 7.852-.543.196-1.1.363-1.668.5-1.509-5.497-5.307-7.022-7.24-7.075V34.52a.259.259 0 00-.517 0v2.221l-.01.006.01.093c.001.016.003.031.006.046.457 3.65 1.813 5.849 3.356 7.114C18.822 43.665 12 36.633 12 28.006 12 19.166 19.163 12 28 12c1.315 0 2.593.159 3.816.458zm-.35 12.368c-1.647-.708-4.46-3.417-2.607-8.605v-1.459a.258.258 0 11.518 0v1.415c1.47.892 3.86 3.805 2.089 8.65zm5.982-7.75c.315 5.57-3.188 7.366-4.98 7.568-.29-5.078 2.751-7.188 4.432-7.657v-1.49a.259.259 0 11.517 0v1.515a.254.254 0 01-.005.054l.036.01zm-10.368 6.11V21.61a.259.259 0 00-.517 0v2.027a.39.39 0 000 .02c-.059 5.863 3.605 7.404 5.48 7.435 0-5.577-3.244-7.574-4.963-7.906zm5.463 7.767c1.91-.031 5.674-1.63 5.472-7.765a.26.26 0 00.008-.063v-1.747a.259.259 0 00-.518 0v1.67c-1.72.331-4.962 2.328-4.962 7.905zm-6.53-1.562v-1.609a.258.258 0 10-.517 0v1.901c0 .022.002.044.008.064.262 6.925 4.648 8.468 6.826 8.37-.4-6.465-4.339-8.501-6.317-8.726zm6.687 8.676c2.187.027 6.542-1.67 6.546-8.664a.258.258 0 00.014-.084v-2.067a.259.259 0 00-.517 0v1.884c-1.964.28-5.855 2.438-6.043 8.931z" fill="#FABB47"/><defs><linearGradient id="paint0_linear_1530" x1="10.418" y1="9.712" x2="68.147" y2="76.017" gradientUnits="userSpaceOnUse"><stop stop-color="#1A1E21"/><stop offset="1" stop-color="#06060A"/></linearGradient></defs></svg>