<svg width="56" height="56" viewBox="0 0 56 56" xmlns="http://www.w3.org/2000/svg"><rect fill="#F0F3FA" width="56" height="56" rx="28"/><path d="M45 28a17 17 0 1 1-34 0 17 17 0 0 1 34 0Z" fill="#061833"/><path d="M44.67 28a16.66 16.66 0 1 1-33.32 0 16.66 16.66 0 0 1 33.32 0Z" fill="#F0F3FA"/><path d="m37.14 41.09-1.93.75a.11.11 0 0 1-.16-.11l.2-2.26 1.78-.12a.14.14 0 0 0 .13-.15v-.87a.15.15 0 0 0-.04-.1.15.15 0 0 0-.1-.05c-.35-.04-.65 0-.92.1a.1.1 0 0 0-.05.07.1.1 0 0 0 .02.09c.08.09.12.18.12.28 0 .04 0 .07-.03.1a.18.18 0 0 1-.1.07l-.8.17-1.3-6.05a.22.22 0 0 1 .06-.2c.1-.1.16-.21.2-.33l2.6.9 4.59 1.82a.42.42 0 0 0 .5-.16c.4-.63.62-1.2.67-1.7.37-.66.6-1.39.68-2.18.2-.6.29-1.28.28-2.05l.03-2.1-.27-2.03a5.77 5.77 0 0 0-.65-2.19 5.92 5.92 0 0 0-.82-2.03 5.94 5.94 0 0 0-1.56-2.24 5.58 5.58 0 0 0-1.67-1.97c-.6-.61-2.36-2.16-3.2-2.16l-.12-.2a.4.4 0 0 0-.16-.14 14.97 14.97 0 0 0-3.62-1.33 15.2 15.2 0 0 0-3.22-.33.29.29 0 0 0-.27.24c-.06.3-.03.42.08.38a.76.76 0 0 1-.07.3c-2.74.52-4.58.94-5.53 1.28-1.93.69-2.22 2.28-2.51 4.11-.07.4.03.68.3.86a17.08 17.08 0 0 0 5.36 2.32c.2.1.43.16.7.15.16 0 .32-.07.5-.19.09-.06.3-.09.61-.07h.07l5.2-.73h.02l1.74-.04.1.01 2.71.57c-.2.1-.67.07-1.42-.08h-.03c-.1.1-.09.22.06.4-.03-.06-.07-.08-.11-.06-.04.01-.06.04-.07.08a.52.52 0 0 0-.03.1c0-.16-.12-.31-.37-.46-.2-.15-.42-.25-.66-.28l-.55-.09c-.84-.03-1.65.02-2.43.15-1.95.33-3.74.58-5.4.73h-.23a10.6 10.6 0 0 1-2.24-.47 63.5 63.5 0 0 0-2.45-1.14c-.16-.06-.28-.01-.38.14a.7.7 0 0 1-.26.24.08.08 0 0 1-.08-.01.08.08 0 0 1-.03-.08c.03-.12.1-.23.23-.34a.16.16 0 0 0 .02-.22.63.63 0 0 0-.5-.26.15.15 0 0 0-.16.12l-.56 4.52a.1.1 0 0 0 .12.1c.29-.1.53-.23.73-.43.8-.16 1.43-.4 1.89-.75a67.24 67.24 0 0 1 2.03-1.45.05.05 0 0 1 .03.09 13.7 13.7 0 0 1-2.73 2.37.27.27 0 0 0 .05.35c.35.3.42.56.3 1.1-.06.34.07.65.4.93a.06.06 0 0 1-.06.12c-.1-.03-.36-.18-.78-.47a.3.3 0 0 1-.13-.29l.17-1.45c-.57-.1-.98-.07-1.22.06a.98.98 0 0 0-.47.04.15.15 0 0 0-.1.18l.38 1.8-.28.19-.13-.03a.26.26 0 0 0-.08-.01h-7.23a.18.18 0 0 0-.18.19l.1 1.9c-.02.73.08 1.42.28 2.06.1.82.32 1.54.68 2.17-.03.49.14.95.52 1.4a.3.3 0 0 0 .35.07l3.13-1.44 3.54-1.48c.78 1.16 1.4 2.5 1.84 3.99.39 1.3 1.13 3.66 2.23 7.07a.2.2 0 0 1-.05.2l-.45.44a16 16 0 1 1 12.62-2.5Z" fill="#022F5A"/><path d="M31.5 12.72c-.03.08-.08.12-.13.11-1.12-.05-2.21 0-3.28.18-.1.04-.14-.08-.09-.38a.28.28 0 0 1 .28-.24c1.05 0 2.13.1 3.22.33Z" fill="#BB133E"/><path d="M35.4 14.39a2.11 2.11 0 0 0-.76.05.07.07 0 0 0-.02.07s0 .02.02.03c.45.57.77 1.25.94 2.03l.55 1.98c-.1.03-.14.07-.12.15.12.33.2.65.21.96a.28.28 0 0 0 .13.23c.79.47 1.57.77 2.36.91.32.48.73.9 1.22 1.24.14.1.23.18.3.27.12.19.1.27-.07.26a5.55 5.55 0 0 0-2-1.38 1.04 1.04 0 0 1-.2-.11c-.66-.5-1.29-.84-1.87-1.04a14.65 14.65 0 0 0-6.08-.42c-.95.13-2.2.37-3.75.73-.77.18-1.35.17-2.06.24a.07.07 0 0 1-.05-.02.07.07 0 0 1-.03-.05v-.01c0-.02 0-.04.02-.06a.08.08 0 0 1 .05-.03c.8-.1 1.5-.1 2.39-.33a33.4 33.4 0 0 1 3.16-.64 17.1 17.1 0 0 1 6.11.24.13.13 0 0 0 .1-.15 23.91 23.91 0 0 1-.56-2.38c-.15-.99-.39-1.7-.71-2.12A4.3 4.3 0 0 0 33 13.56a8.32 8.32 0 0 0-4.98-.25.76.76 0 0 0 .07-.3c1.07-.17 2.16-.23 3.28-.18.05 0 .1-.03.13-.1 1.25.27 2.45.71 3.62 1.32a.4.4 0 0 1 .16.14l.11.2Z" fill="#6C1521"/><path d="m40.16 22.57-.02.22c-.09.15-.23.21-.42.19a.17.17 0 0 1-.06-.02l-.88-.5a.06.06 0 1 1 .05-.13c.24.07.37.04.4-.08l-.01-.04a.06.06 0 0 0-.04-.02l-1.89-.61-2.71-.57h-.1l-1.74.03h-.03l-5.19.73h-.07c-.32-.02-.52 0-.61.07a.92.92 0 0 1-.5.19c-.27 0-.5-.05-.7-.15a17.08 17.08 0 0 1-5.37-2.32c-.26-.18-.36-.46-.3-.86.3-1.83.6-3.42 2.52-4.11a45 45 0 0 1 5.53-1.28 8.32 8.32 0 0 1 4.98.25c.54.21 1.1.7 1.68 1.48.32.42.56 1.13.72 2.12a23.9 23.9 0 0 0 .54 2.44.13.13 0 0 1-.15.1c-2-.45-4.01-.53-6.05-.25-.8.11-1.86.33-3.16.64-.9.22-1.58.24-2.39.33a.08.08 0 0 0-.05.03.08.08 0 0 0-.02.06v.01a.08.08 0 0 0 .03.05l.02.02h.03c.7-.07 1.3-.06 2.06-.24 1.55-.36 2.8-.6 3.75-.73 1.79-.24 4.23-.2 6.08.42.58.2 1.21.55 1.88 1.04l.2.11c.75.3 1.41.77 1.99 1.38Z" fill="#C72727"/><path d="M26.27 13.54c.14-.06.22-.17.18-.25-.03-.08-.17-.1-.3-.04-.14.06-.22.17-.18.25.03.08.17.1.3.04Z" fill="#696868"/><path d="M23.06 13.78c-.14-.02-.35.13-.63.46-.04-.23-.13-.38-.25-.47l-.03-.03a.06.06 0 0 1 0-.06c.02 0 .02-.01.03-.02l.58-.29a.2.2 0 0 1 .26.06c.02.03.04.06.04.1v.25Z" fill="#F0F3FA"/><path d="M22.43 14.24c.28-.33.5-.48.63-.46.86-.4 1.63-.49 2.32-.23a.09.09 0 0 1 .04.14 267.7 267.7 0 0 1-2.38.6.59.59 0 0 1-.27 0c-.1-.03-.18.01-.27.1a.06.06 0 0 1-.08.02.07.07 0 0 1-.03-.09l.04-.08Z" fill="#C72727"/><path d="M20.47 15.2a.05.05 0 0 1 .01-.08l.04-.02c.16-.12.32-.2.46-.25.14-.05.24-.04.28.01l.02.03c.04.05.01.15-.07.27-.09.12-.22.25-.38.37l-.04.02a.05.05 0 0 1-.07-.01l-.25-.34ZM31.85 16.48v.96a.29.29 0 0 1-.13.24c-1.92 1.22-2.9-3.01-.82-2.62.24.05.43.15.56.29a.2.2 0 0 1-.17.32l-.65-.08a.27.27 0 0 0-.21.07c-.22.2-.28.51-.18.9.13.56.5.75 1.08.58a.16.16 0 0 0 .07-.27.16.16 0 0 0-.1-.05.67.67 0 0 1-.55-.29.2.2 0 0 1 .09-.3.21.21 0 0 1 .12-.03l.73.1a.18.18 0 0 1 .16.18ZM29.59 17.63a.2.2 0 0 1-.35.2c-.1-.12-.14-.2-.16-.23a.5.5 0 0 0-.82-.2.5.5 0 0 0-.15.3.53.53 0 0 1-.04.16.22.22 0 0 1-.42-.12l.25-2.36a.17.17 0 0 1 .1-.13.98.98 0 0 1 .53-.06.13.13 0 0 1 .1.08l.96 2.36ZM34.33 17.89a.13.13 0 0 1-.14.18l-.13-.01a.37.37 0 0 1-.31-.3c-.07-.34-.33-.5-.76-.48a.2.2 0 0 0-.18.13.6.6 0 0 0-.04.3.22.22 0 0 1-.07.17.22.22 0 0 1-.18.06l-.09-.01a.16.16 0 0 1-.1-.06.16.16 0 0 1-.03-.12l.28-2.24a.4.4 0 0 1 .75-.1l1 2.48ZM26.35 16.79a.1.1 0 0 0-.15-.07.1.1 0 0 0-.03.05l-.3 1.13a.14.14 0 0 1-.25.02l-.41-1a.1.1 0 0 0-.11-.07.1.1 0 0 0-.08.1v1.2a.27.27 0 0 1-.17.24l-.17.07a.15.15 0 0 1-.2-.15l.1-1.97a.3.3 0 0 1 .1-.21c.14-.1.32-.15.55-.16.04 0 .08.01.11.04s.05.06.05.1c.01.15.07.31.17.48a.2.2 0 0 0 .37-.1v-.47a.41.41 0 0 1 .25-.38l.3-.12a.17.17 0 0 1 .24.13l.32 2.3a.1.1 0 0 1-.03.08.1.1 0 0 1-.07.03h-.27a.17.17 0 0 1-.16-.14l-.16-1.13Z" fill="#F0F3FA"/><path d="m33.07 15.86.35.85a.14.14 0 0 1-.08.19.14.14 0 0 1-.07 0l-.3-.03a.18.18 0 0 1-.15-.13v-.07l.1-.78a.08.08 0 0 1 .15-.03Z" fill="#C72727"/><path d="M28.29 16.93a.05.05 0 0 1-.06-.04l-.01-.04a3.48 3.48 0 0 1-.04-.65c0-.09.02-.16.04-.2.02-.06.04-.08.07-.09h.06c.06-.02.13.07.2.23s.13.39.17.62l.01.05a.05.05 0 0 1 0 .04l-.02.01h-.02l-.4.07Z" fill="#BE4D53"/><path d="m19.64 16.39.2.16a.2.2 0 0 1 .04.23c-.08.19-.1.33-.09.42a.08.08 0 0 1-.02.08.08.08 0 0 1-.08.01 1.44 1.44 0 0 0-.58-.06.18.18 0 0 1-.05-.03.32.32 0 0 1-.05-.03c-.06-.23-.15-.4-.25-.52a.08.08 0 0 1-.01-.09.08.08 0 0 1 .07-.05c.09 0 .2-.09.36-.23a.2.2 0 0 1 .23-.03l.23.14Z" fill="#F0F3FA"/><path d="M38.6 16.55c.73.55 1.28 1.2 1.67 1.97l-4.14.03-.55-1.98 3.02-.02Z" fill="#BB133E"/><path d="M17.63 17.68c.07 0 .13.03.2.08.1.06.18.13.27.2a.2.2 0 0 1 .03.26.61.61 0 0 0-.1.3c0 .04-.01.07-.04.1a.15.15 0 0 1-.1.04 4.45 4.45 0 0 1-.51 0 .15.15 0 0 1-.1-.05.16.16 0 0 1-.05-.1.6.6 0 0 0-.1-.3.2.2 0 0 1 .05-.25 4 4 0 0 1 .27-.2.33.33 0 0 1 .18-.08ZM41.83 20.76l-3.11.04a6.94 6.94 0 0 1-2.37-.91.28.28 0 0 1-.13-.23 3.33 3.33 0 0 0-.2-.96c-.03-.08 0-.12.1-.15l4.15-.03a5.94 5.94 0 0 1 1.56 2.24ZM15.93 20.18h-.26a.15.15 0 0 1-.1-.05.16.16 0 0 1-.05-.1.61.61 0 0 0-.1-.3.19.19 0 0 1 .04-.24l.27-.22a.31.31 0 0 1 .18-.07c.07 0 .13.02.2.07l.27.21a.2.2 0 0 1 .04.25.63.63 0 0 0-.1.3c0 .04-.01.07-.04.1a.15.15 0 0 1-.1.04h-.25ZM19.3 19.17c.07 0 .13.02.2.07.1.06.19.13.27.2a.19.19 0 0 1 .04.25.6.6 0 0 0-.1.3.15.15 0 0 1-.14.14 11252.1 11252.1 0 0 1-.5 0 .15.15 0 0 1-.16-.14.6.6 0 0 0-.1-.3.19.19 0 0 1 .05-.24l.26-.21a.32.32 0 0 1 .18-.07Z" fill="#F0F3FA"/><path d="m20.98 20.6.45.64c.02.02.03.05.03.08 0 .02 0 .05-.02.08l-.49.91a.12.12 0 0 0 .03.16.12.12 0 0 0 .16 0 2.43 2.43 0 0 1 .92-.45.05.05 0 0 1 .03.06l-.02.03a3.64 3.64 0 0 0-1.58 2.13c-.2.2-.44.34-.73.43a.1.1 0 0 1-.12-.06.1.1 0 0 1 0-.04l.56-4.52a.15.15 0 0 1 .15-.12c.21 0 .38.1.51.26a.16.16 0 0 1-.02.22c-.13.1-.2.22-.23.34a.08.08 0 0 0 .03.08l.04.01h.04a.7.7 0 0 0 .26-.24Z" fill="#D59368"/><path d="M36.56 20.76a.1.1 0 0 1 .06.04c.01.02.02.04.01.07v.01l-.01.03h-.03c-2.06-.3-3.58-.42-4.56-.38-.67.03-2.04.23-4.12.6-1.87.32-3.24.37-4.66-.55a.15.15 0 0 1 .11-.27c.31.07.54.24.7.5a.28.28 0 0 0 .2.13l1.68.27c.08.02.17.02.26 0 1.4-.2 2.74-.42 4-.64 2.28-.38 4.3-.24 6.36.2Z" fill="#6C1521"/><path d="m34.1 21.2.2 2.8a3.07 3.07 0 0 0-1.49-.7.21.21 0 0 1-.11-.06 1.68 1.68 0 0 0-.07-.06.3.3 0 0 0-.21-.09h-.82a.22.22 0 0 1-.22-.19l-.07-.62a.08.08 0 0 0-.07-.07.05.05 0 0 0-.05.05c-.01.62-.03 1.2-.07 1.75a2.2 2.2 0 0 0 .1.46.09.09 0 0 0 .13 0c.56-.57 1.13-.34 1.81-.5.15-.04.3-.02.43.06l.55.31.24 1.1v.05c.05 1.16.03 2.32-.03 3.48-.01.22.12.36.4.41-.05.66-.2 1.37-.47 2.14-.2.59-.58.95-1.16 1.07.1-.12.17-.23.19-.3a.1.1 0 0 0-.11-.14.1.1 0 0 0-.06.03l-.76.61c-.34-.37-.87-.45-1.6-.25a4.9 4.9 0 0 1-1.63.23.25.25 0 0 0-.09.07l-.2.23c-.56-.68-1.3-.87-2.2-.57-.13.05-.4-.04-.82-.26.19-1.1.23-2.17.12-3.21-.02-.26.05-.72.24-1.37a5.21 5.21 0 0 1-1.37-1.54c.06-.1.03-.15-.07-.14a.1.1 0 0 0-.09.05l-.04.07a.13.13 0 0 1-.08.06.13.13 0 0 1-.1-.02c-.54-.45-.9-.9-1.09-1.35a.15.15 0 0 0-.28.05c-.06.83-.04 1.85.04 3.05.01.22-.08.35-.29.4-.96.34-1.49-.07-1.6-1.23a.64.64 0 0 0-.06-.22c-.24-.48-.37-.97-.14-1.46.07-.16.1-.3.11-.4.02-.2.19-.25.52-.19l-.17 1.45a.31.31 0 0 0 .13.3c.42.28.68.43.78.46a.06.06 0 0 0 .08-.08.06.06 0 0 0-.02-.04c-.33-.28-.46-.59-.4-.92.12-.55.05-.8-.3-1.11a.27.27 0 0 1-.05-.35 13.7 13.7 0 0 0 2.74-2.41l-.01-.03a.06.06 0 0 0-.07-.02l-2 1.45c-.45.34-1.08.6-1.88.75a3.64 3.64 0 0 1 1.6-2.16.05.05 0 0 0-.07-.06c-.32.09-.62.24-.88.45a.12.12 0 0 1-.19-.16l.5-.91a.15.15 0 0 0 .01-.08.16.16 0 0 0-.03-.08l-.45-.64c.1-.15.22-.2.38-.14.23.1 1.05.47 2.45 1.14a10.61 10.61 0 0 0 2.48.47 75.1 75.1 0 0 0 5.4-.73c.77-.13 1.58-.18 2.42-.15Z" fill="#F6C396"/><path d="M17.62 20.65c.07 0 .14.03.2.07.1.07.2.14.28.22a.2.2 0 0 1 .03.25.62.62 0 0 0-.1.3c0 .04-.01.08-.04.1a.15.15 0 0 1-.1.05 14.35 14.35 0 0 1-.52 0 .15.15 0 0 1-.1-.05.16.16 0 0 1-.05-.1.63.63 0 0 0-.1-.3.2.2 0 0 1 .05-.25c.08-.08.17-.15.27-.22a.33.33 0 0 1 .18-.07ZM14.51 21.63h-.65a.1.1 0 0 1-.09-.05.1.1 0 0 1 0-.1l.36-.68a.14.14 0 0 1 .18-.06l.43.24a.12.12 0 0 1 0 .21c-.1.07-.14.16-.1.28a.12.12 0 0 1-.13.16Z" fill="#F0F3FA"/><path d="M41.83 20.76c.38.57.65 1.25.82 2.03l-2.25.1a.45.45 0 0 0-.26-.1l.02-.22c.17.01.19-.07.06-.26a1.1 1.1 0 0 0-.29-.27c-.5-.34-.9-.76-1.22-1.24l3.12-.04Z" fill="#BB133E"/><path d="m35.32 21.56-.1.01a.12.12 0 0 0-.08.06.12.12 0 0 0-.02.1c.24.87.28 1.84.12 2.9 0 .06-.08.16-.24.27a.3.3 0 0 0-.12.18l-.13.54-.16-3.15v-.18c.07-.34.09-.67.07-1 .24.02.46.12.66.27Z" fill="#F6C396"/><path d="m37.29 21.58 1.9.61.02.02c.01.02.02.03.01.04-.02.12-.15.15-.39.08a.06.06 0 0 0-.05.12l.88.5.06.03c.2.02.33-.04.42-.2.1.01.19.05.27.1-.42.65-1 .2-1.49 0a.96.96 0 0 0-.34-.06l-2.38-.02-.05-.44a.21.21 0 0 1 .18-.23l.47-.06a.04.04 0 0 0 .03-.03l-.01-.03-.03-.01-.9-.1c-.14-.18-.16-.3-.05-.4h.03c.75.15 1.23.18 1.42.08Z" fill="#6C1521"/><path d="m35.9 21.9.9.1.02.01v.05h-.02l-.47.07a.2.2 0 0 0-.13.08.21.21 0 0 0-.05.15l.05.44c.04.78-.17 1.49-.63 2.13-.17.04-.28.27-.34.68l-.16 1.4.01 2.11-.39 2.05c-.17.37-.35.72-.57 1.07-.04.06-.05.1-.03.14.02.04.06.07.12.1a.78.78 0 0 1-.19.34.22.22 0 0 0-.06.2l1.3 6.04-.02.4-.19 2.27a.11.11 0 0 0 .16.11l1.92-.75a16 16 0 0 1-12.62 2.5l.46-.44a.2.2 0 0 0 .05-.2c-1.1-3.41-1.84-5.77-2.23-7.07a14.68 14.68 0 0 0-1.84-4c.35-.12.66-.35.92-.69.35-.4.38-.67.1-.82a4.12 4.12 0 0 1-1.56-1.28 4.55 4.55 0 0 1-.44-2.03l.28-.2c.1.5.09 1.1.22 1.51.26.8.78 1.4 1.56 1.75a.23.23 0 0 0 .3-.13.22.22 0 0 0 .01-.12c-.15-.61-.77-1.2-1.1-1.73a5.11 5.11 0 0 1-.8-3.3c.24-.12.65-.14 1.22-.05-.33-.06-.5 0-.52.19 0 .1-.04.24-.11.4-.23.5-.1.98.14 1.46.04.06.06.14.06.22.11 1.16.64 1.57 1.6 1.23a6.95 6.95 0 0 0 2.44 5l3.59 1.91.12.05c1.27.33 2.15-.07 2.63-1.18a.45.45 0 0 1 .3-.26c.46-.13.8-.36 1.04-.7.01-.07 0-.1-.03-.1a.05.05 0 0 1-.06-.02v-.05l.26-.35a1.5 1.5 0 0 0 1.16-1.07c.26-.77.42-1.48.47-2.14v-3.76l.13-.54a.3.3 0 0 1 .12-.18c.16-.11.24-.2.24-.28.65-.65.8-1.51.45-2.6l.02-.1c.02-.04.04-.07.08-.08.04-.02.08 0 .1.06Z" fill="#061833"/><path d="M18.72 22.51c.15-.02.34-.14.56-.37a.15.15 0 0 1 .25.1c.05.67-.1.98-.44.95a.14.14 0 0 1-.1-.06.14.14 0 0 1-.03-.1c.02-.2-.06-.34-.26-.43a.05.05 0 0 1 .01-.1Z" fill="#F0F3FA"/><path d="M27.84 24.14c-.3-.07-1.1-.31-1.39.14a.23.23 0 0 1-.19.1c-.17.01-.47.13-.89.37a.09.09 0 0 1-.1 0 .09.09 0 0 1-.02-.1c0-.02.07-.06.18-.11a.14.14 0 0 0 .07-.18.14.14 0 0 0-.05-.06.35.35 0 0 0-.2-.05.08.08 0 0 1-.06-.03l-.02-.03v-.04a.06.06 0 0 1 .08-.05c.63.15.97-.25 1.45-.4.73-.23 1.25-.41 1.57-.56a.43.43 0 0 1 .2-.04l1.04.04a.48.48 0 0 0 .48-.31 1.61 1.61 0 0 0 .04-.7.07.07 0 0 1 .04-.04h.13l.01.04V23a.49.49 0 0 1-.18.39c-.32.25-.5.55-.53.91a.19.19 0 0 1-.1.15.2.2 0 0 1-.18.01c-.55-.25-.8-.42-1.18-.33a.44.44 0 0 1-.2 0Z" fill="#061833"/><path d="M15.92 23.15c-.09 0-.17 0-.25-.02a.2.2 0 0 1-.17-.15c-.04-.2-.1-.33-.16-.39a.08.08 0 0 1 .03-.14c.15-.04.32-.13.5-.27h.02a.27.27 0 0 1 .07 0h.02c.18.14.35.24.5.28a.08.08 0 0 1 .05.06.08.08 0 0 1-.02.08c-.07.06-.13.19-.17.38a.2.2 0 0 1-.17.16l-.25.01Z" fill="#F0F3FA"/><path d="m34.3 24-.16.34-.55-.31a.57.57 0 0 0-.43-.07c-.68.17-1.25-.06-1.8.51a.09.09 0 0 1-.15-.04 2.18 2.18 0 0 1-.1-.42 32.4 32.4 0 0 0 .1-1.78c0-.01.01-.02.03-.02a.08.08 0 0 1 .07.07l.07.62a.22.22 0 0 0 .22.2h.82a.3.3 0 0 1 .21.08l.07.06c.02.03.06.04.11.05.53.09 1.03.32 1.5.7Z" fill="#061833"/><path d="M17.65 23.64h.02a.1.1 0 0 1 .03 0c.18.15.34.24.5.28a.08.08 0 0 1 .05.06.08.08 0 0 1-.02.07c-.07.07-.12.2-.17.4a.2.2 0 0 1-.16.15 1.76 1.76 0 0 1-.51 0 .2.2 0 0 1-.17-.15c-.04-.2-.1-.33-.17-.4a.08.08 0 0 1 .03-.13c.15-.04.32-.13.5-.28h.07ZM14.2 24.6c-.09 0-.17-.01-.25-.03a.2.2 0 0 1-.17-.15c-.04-.2-.1-.32-.16-.38a.08.08 0 0 1 0-.12.08.08 0 0 1 .03-.02c.15-.04.31-.13.49-.27h.02a.27.27 0 0 1 .07 0h.02c.18.14.35.22.5.26l.03.03a.08.08 0 0 1 0 .11c-.07.06-.12.2-.16.39a.2.2 0 0 1-.17.15c-.08.02-.17.02-.25.02Z" fill="#F0F3FA"/><path d="M26.48 24.6c.6.54 1.28.61 2.05.23a.07.07 0 0 1 .1.03.07.07 0 0 1-.02.1c-.81.49-1.56.4-2.25-.27a.05.05 0 0 1-.02-.03c0-.01 0-.03.02-.04l.01-.01a.08.08 0 0 1 .05-.03.07.07 0 0 1 .06.02Z" fill="#0D0C17"/><path d="M24.83 26.12c.03-.09.03-.1 0-.06a.3.3 0 0 0-.06.21c.02.2.11.47.26.81.27.62.66.81 1.17.58a4.4 4.4 0 0 0-.24 1.37c.11 1.04.07 2.11-.12 3.2l-.76-.52h-.03a.05.05 0 0 0-.04.04l.01.03c.6.7 1.34 1.3 2.15 1.2.34-.04.54-.05.6-.05.14.01.27.05.39.1.12.04.37.18.73.39 1.2.71 2.78.28 3.93-.35.04-.03.09-.01.13.04a1.8 1.8 0 0 1-1.04.7.46.46 0 0 0-.3.26c-.48 1.11-1.36 1.5-2.63 1.18a.54.54 0 0 1-.12-.05l-3.59-1.92a6.95 6.95 0 0 1-2.44-5c.2-.04.3-.17.29-.39-.09-1.2-.1-2.22-.04-3.05a.15.15 0 0 1 .22-.12c.03.01.05.04.06.07a3.62 3.62 0 0 0 1.13 1.37.13.13 0 0 0 .1-.02.13.13 0 0 0 .04-.04l.04-.07a.1.1 0 0 1 .09-.05c.1 0 .13.04.07.14Z" fill="#D59368"/><path d="M32.93 25c.34 0 .61-.2.87-.23a.05.05 0 0 1 .05.07l-.02.03c-.36.22-.66.32-.9.32a1.72 1.72 0 0 1-.91-.39.05.05 0 0 1 .05-.06c.25.03.51.25.86.26Z" fill="#696868"/><path d="M20.44 24.85a5.11 5.11 0 0 0 .8 3.3c.33.52.95 1.1 1.1 1.72a.22.22 0 0 1-.31.25 2.79 2.79 0 0 1-1.56-1.75c-.13-.4-.12-1.01-.22-1.5l-.38-1.8a.15.15 0 0 1 .1-.18.98.98 0 0 1 .47-.04Z" fill="#D59368"/><path d="m35.57 24.94 7.73.04.27 2.03h-8.5l.16-1.4c.06-.41.17-.64.34-.67Z" fill="#BB133E"/><path d="m19.44 25.12.35.87a.1.1 0 0 1-.01.08.09.09 0 0 1-.08.04l-.68-.09a.07.07 0 0 1-.05-.04.07.07 0 0 1 0-.06c.05-.11-.03-.26-.24-.45a.06.06 0 0 1 .02-.1c.2-.06.39-.15.56-.28l.03-.02a.09.09 0 0 1 .08.02l.02.03ZM15.92 26.06l-.25-.01a.2.2 0 0 1-.17-.16c-.04-.2-.1-.32-.17-.38a.08.08 0 0 1 .03-.15c.15-.04.32-.13.5-.28h.02a.27.27 0 0 1 .1 0c.18.14.34.23.5.27a.08.08 0 0 1 .03.14c-.07.06-.12.2-.16.4a.2.2 0 0 1-.17.15c-.08.02-.17.02-.26.02ZM12.86 26.06a.07.07 0 0 1-.08.05l-.06-.02a.3.3 0 0 1-.11-.06.31.31 0 0 1-.08-.1.38.38 0 0 1-.02-.26l.04-.15a.38.38 0 0 1 .16-.21.31.31 0 0 1 .11-.05l.13.01.06.02a.07.07 0 0 1 .04.08l-.19.7Z" fill="#F0F3FA"/><path d="M29.27 27.55c.15 0 .36-.11.62-.34a.2.2 0 0 1 .27.01l.35.35a.35.35 0 0 0 .35.1l1.18-.32.04-.03a.12.12 0 0 0 .05-.1s0-.03-.02-.04l-.56-1.12a.1.1 0 0 1 .17-.12c.37.38.63.85.76 1.4.02.09.07.18.13.25a7.21 7.21 0 0 1 1.2 1.89.05.05 0 0 1-.02.03h-.04a4.35 4.35 0 0 0-1.38-1.56c-.35-.2-.76-.15-1.21.16-.17.1-.24.24-.21.4a.19.19 0 0 1-.13.2.2.2 0 0 1-.23-.08c-.21-.36-.3-.61-.8-.7-.53-.1-1 .1-1.42.57a7.79 7.79 0 0 0-1.04 1.4h-.03a.05.05 0 0 1-.03-.03v-.04c.09-.2.25-.59.43-.8a7.1 7.1 0 0 0 1.32-2.47c.14-.46.36-.89.88-.53.05.03.1.08.12.14.03.05.05.12.04.18 0 .06-.03.11-.06.16a.27.27 0 0 1-.14.09c-.32.08-.56.34-.7.79a.12.12 0 0 0 .05.14l.06.02ZM24.83 26.12c.28.51.73 1.03 1.37 1.54-.51.23-.9.04-1.17-.58a3.01 3.01 0 0 1-.26-.8.3.3 0 0 1 .06-.22c.03-.04.04-.03 0 .06Z" fill="#0D0C17"/><path d="m43.57 27-.03 2.11-8.46.01-.01-2.1 8.5-.01Z" fill="#F0F3FA"/><path d="m21.87 31.2-9.14-.03c-.2-.64-.3-1.33-.28-2.05l7.96-.03c.3.45.82.88 1.57 1.28.27.15.24.43-.1.82ZM43.54 29.11c0 .77-.08 1.45-.28 2.05h-8.57l.4-2.04h8.45Z" fill="#BB133E"/><path d="M28.09 30.28a.37.37 0 0 1 .2-.17l1.65-.55c.2-.08.44-.1.66-.05.22.05.45.05.66 0 .5-.13 1.34.2 1.77.39a.06.06 0 0 1 .03.07l-.02.08a.03.03 0 0 1-.01.02.03.03 0 0 1-.02 0l-1.38-.36a.34.34 0 0 0-.22.02c-.32.15-.66.18-1.03.07a.6.6 0 0 0-.32 0l-1.94.52a.02.02 0 0 1-.03 0v-.04Z" fill="#0D0C17"/><path d="m26.33 39.2 1.28-.48a.51.51 0 0 1 .67.34l.38 1.4-.51 2.43c-.06.27.05.4.04.53a.18.18 0 0 1-.15.16c-.38.06-.83.04-1.34-.07a.2.2 0 0 1-.15-.13l-1.56-4.5-.01-.05a3.9 3.9 0 0 0-.43-1.26.57.57 0 0 1-.07-.23l-.02-.23c.05-.06.05-.11 0-.15-.02-.03-.06-.03-.1.01-.01-.2-.05-.36-.1-.47-.56-1.3-1.11-2.65-1.65-4.05-.34-.87-.27-1.28.04-2.07a.07.07 0 0 1 .13-.01c.5 1.08 1.57 2.91 2.74 3.47a36.34 36.34 0 0 1 3.63 2.02.1.1 0 0 1-.03.14c-1.27 1.03-2.17 2.08-3.5 3.51a.07.07 0 0 0 0 .1.07.07 0 0 0 .07.02c.24-.07.45-.21.64-.43Z" fill="#F0F3FA"/><path d="M32.08 30.87a.08.08 0 0 1-.04.12h-.05c-.98-.35-1.84-.27-2.59.24a.07.07 0 0 1-.1 0 .08.08 0 0 1-.01-.1c.11-.25.31-.48.6-.7a.34.34 0 0 1 .2-.05h1.7c.02 0 .05 0 .07.02.02.02.04.05.04.08.02.13.08.26.18.4ZM25.84 32.24c.41.22.69.3.82.26.9-.3 1.64-.11 2.2.57 1.15.43 2.32.34 3.52-.28l.76-.61a.1.1 0 0 1 .17.1.84.84 0 0 1-.19.31l-.25.35-.01.02V33l.03.02h.03c.03 0 .04.03.03.1-.04-.05-.09-.07-.13-.04-1.15.63-2.73 1.06-3.93.35-.36-.21-.6-.35-.73-.4a1.35 1.35 0 0 0-.39-.09c-.06 0-.26.01-.6.05-.81.1-1.55-.5-2.15-1.2a.05.05 0 0 1 .06-.07l.76.53Z" fill="#0D0C17"/><path d="M32.38 32.8a4.2 4.2 0 0 1-3.52.27l.2-.23a.25.25 0 0 1 .2-.09c.42.03.92-.04 1.52-.21.73-.2 1.26-.12 1.6.25Z" fill="#D59368"/><path d="m17.4 33.37-3.12 1.44a.3.3 0 0 1-.35-.07c-.38-.45-.55-.91-.52-1.4l4 .03ZM42.58 33.34c-.05.5-.27 1.07-.67 1.7a.41.41 0 0 1-.5.16l-4.6-1.82 5.77-.04Z" fill="#BB133E"/><path d="M33.74 36.45c-.05 1.09-.04 2.16.02 3.2.01.1-.07.14-.24.14l-3.4-3.75a.11.11 0 0 1 .03-.17 4.7 4.7 0 0 0 1.55-1.34 2.64 2.64 0 0 1 1.22-.89.11.11 0 0 1 .1.09l.72 2.72Z" fill="#F0F3FA"/><path d="M28.1 37.75a.28.28 0 0 1 .03-.37l1.2-1.2a.34.34 0 0 1 .5 0l.87.87a.53.53 0 0 1 .14.51l-.35 1.32a.22.22 0 0 1-.27.16 1.65 1.65 0 0 0-.84.03.33.33 0 0 1-.36-.12l-.91-1.2Z" fill="#BE4D53"/><path d="M33.74 36.45c.56 1.95.57 3.66.75 5.54a.23.23 0 0 1-.08.2c-.2.17-.45.27-.76.3-.05-.67-.05-1.36.02-2.07.01-.12-.04-.26-.14-.43.05-.02.04-.09-.01-.2.17 0 .25-.04.24-.14a31.07 31.07 0 0 1-.02-3.2ZM24.46 37.11a.36.36 0 0 1-.1-.14c.04-.04.08-.04.1-.01.05.04.05.1 0 .15ZM28.66 40.46l-.38-1.4a.5.5 0 0 0-.67-.34l-1.28.48 1.47-1.1a.18.18 0 0 1 .26.04l.84 1.1a.3.3 0 0 1 .05.26l-.29.96Z" fill="#A7C6DD"/><path d="M33.53 39.99c.1.17.15.31.14.43-.07.7-.07 1.4-.02 2.07-.3.23-.63.35-.97.36a.19.19 0 0 1-.17-.1l-1.7-3.37a.26.26 0 0 1-.02-.18l.25-.95a.12.12 0 0 1 .19-.06l2.3 1.8Z" fill="#F0F3FA"/><path d="m35.24 39.47.01-.41.8-.17c.04-.01.08-.03.1-.06a.17.17 0 0 0 .04-.11c0-.1-.04-.2-.12-.28a.1.1 0 0 1 0-.13.1.1 0 0 1 .03-.02c.27-.11.57-.15.92-.11.04 0 .08.02.1.04.03.03.04.07.04.1v.88a.14.14 0 0 1-.13.15l-1.79.12Z" fill="#D5899F"/><path d="M29.82 39.26c.41-.05.74.18 1 .7a132.45 132.45 0 0 0 1.47 2.93.24.24 0 0 1-.1.19.24.24 0 0 1-.1.04 31.45 31.45 0 0 1-3.38.49.24.24 0 0 1-.2-.08.24.24 0 0 1-.05-.21l.6-3.11c.1-.57.35-.89.76-.95Z" fill="#BE4D53"/></svg>