<svg width="112" height="112" viewBox="0 0 56 56" xmlns="http://www.w3.org/2000/svg"><rect fill="#F3BA2F" width="56" height="56" rx="28"/><path d="M41.4 36.25c.28.06.58.16.88.3.2.08.19.12-.03.1a7.94 7.94 0 0 1-1-.2.15.15 0 0 0-.16.06l-.95 1.13c-.05.06-.04.1.02.14a5.25 5.25 0 0 1 1.43 1.24h-.02l-1.55-1.1c-.05-.03-.09-.03-.12.02l-.65.77c-.03.04-.03.09 0 .13.43.49.8 1.03 1.1 1.63.02.02.01.05 0 .07l-.02.02-1.22-1.6c-.03-.03-.06-.04-.1 0a30.79 30.79 0 0 1-3.48 2.96c-.32.24-.67.46-1.04.68-.25.13-.51.23-.81.27a11 11 0 0 1-3.68-.05c-.34-.07-1.05-.24-2.13-.53-.81-.2-1.51-.41-2.1-.6a.1.1 0 0 0-.13.04c-.3.39-.54.65-.7.8-.37.32-.42.28-.14-.13l.54-.76c.04-.05.03-.08-.03-.1A35.86 35.86 0 0 1 22 40.22c-.23-.1-.93-.5-2.1-1.17-.64-.37-1.25-.77-1.81-1.2l-2.2-1.71c-.76-.7-1.4-1.45-1.92-2.27a2.77 2.77 0 0 1-.4-1.19 9.28 9.28 0 0 1-.08-1.1 22.81 22.81 0 0 1 .57-5.24v-.39c-.02-.11-.02-.2-.01-.26a.51.51 0 0 0-.02-.25 54.04 54.04 0 0 1-.74-2.52 13.9 13.9 0 0 1 .07-6.02l.16-.82c.06-.34.16-.72.29-1.13l.37-1.1c.2-.57.5-1.09.9-1.54.26-.3.6-.39 1.03-.23.34.12.67.27.97.46l.66.4c1.06.63 1.81 1.1 2.25 1.4.68.46 1.28.83 1.8 1.13.33.18.79.46 1.38.85l.9.58a5.09 5.09 0 0 1 .55.4c.02.02.05.03.08.02l3.18-1.13c.05-.02.1-.01.15.03.05.03.07.08.07.14l-.03.53c0 .04.02.06.05.05.4-.1.86-.16 1.39-.21.18-.02.28.06.3.24 0 .03.02.05.05.06 1.12.14 2.2.4 3.23.77a.1.1 0 0 0 .1-.01c.67-.42 1.48-.82 2.4-1.19a27.34 27.34 0 0 1 6.13-1.64c.32-.04.52.03.63.23a20.68 20.68 0 0 1 .38 2.55c.07 1.01-.01 2.02-.25 3.02-.29 1.2-.67 2.3-1.15 3.29a.1.1 0 0 0 0 .1c.44.9.81 1.85 1.12 2.86.22.7.37 1.44.45 2.19.13 1.17.14 2.23.05 3.16a6.94 6.94 0 0 1-1.14 3.11c-.28.43-.42.67-.44.72-.01.03 0 .06.04.06Z" fill="#040302"/><path d="M38.89 35.04c-.04-.08-.06-.09-.08-.03-.23-.54-.53-1-.9-1.4a7.52 7.52 0 0 0-2.94-1.85.08.08 0 0 1-.07-.06 2.56 2.56 0 0 1-.14-.52 36.56 36.56 0 0 0-.66-4.63c-.04-.18-.16-.27-.35-.26-.2.03-.28.14-.26.32.22 1.71.1 3.38-.35 5.02a.08.08 0 0 1-.07.06 11.35 11.35 0 0 0-2.7.72l-.9.35c-.46.16-.76.28-.9.36-.2.1-.5.34-.91.7a3.26 3.26 0 0 0-1.3 1.83c-.02.08-.05.22-.07.42l-.04.32c0 .03-.02.05-.05.05a36.2 36.2 0 0 0-3.71.82c-.02.04-.01.06.03.05.69-.07 1.08-.12 1.2-.14l2.46-.52.1 1.35a28.87 28.87 0 0 0-3.31 1.92.06.06 0 0 0-.03.06c0 .03.02.05.05.05l.11.02.05-.01 2.39-1.4c.13-.08.4-.22.78-.4l.25.86.15.91-1 1.17a.1.1 0 0 1-.12.03l-2.34-.88c-.72-.27-1.38-.59-1.99-.93A27.25 27.25 0 0 1 19 38.02a69.7 69.7 0 0 1-2.77-2.12 10.37 10.37 0 0 1-1.95-2.29c-.15-.24-.25-.5-.3-.8a8.6 8.6 0 0 1-.1-1.4l.03-1.33c-.01-.42.02-.86.08-1.31.09-.6.2-1.17.32-1.72.12-.51.17-1 .15-1.47 0-.07-.05-.24-.16-.5-.09-.22-.2-.56-.33-1.04l-.14-.5c-.13-.4-.22-.74-.26-1.04-.25-1.73-.22-3.41.1-5.05l.3-1.55a13.12 13.12 0 0 1 .55-1.86c.18-.52.45-1 .81-1.42a.74.74 0 0 1 .2-.18.35.35 0 0 1 .25-.01c.34.09.58.16.7.24l1.06.63c.96.58 1.71 1.04 2.24 1.4.64.44 1.23.8 1.77 1.1.27.15.67.4 1.21.75l1.06.67a7 7 0 0 1 .36.27c.04.03.04.05 0 .07l-.8.39c-.06.02-.07.06-.05.12l.01.05c.01.04.04.05.08.04l4.18-1.48c.05-.02.07 0 .06.04v.1c-.02.2 0 .35.02.43.05.14.16.19.35.14.42-.11.82-.19 1.2-.23.04 0 .07.02.08.07 0 .05.03.1.06.16a.1.1 0 0 0 .09.05c.56 0 1.27.12 2.13.33 1.12.28 2.21.7 3.27 1.28.1.06.21.08.32.05a.12.12 0 0 0 .1-.1c.01-.05 0-.1-.04-.13-.2-.16-.42-.3-.69-.44l-1.01-.47a.04.04 0 0 1-.03-.04c0-.01 0-.03.03-.04a30.91 30.91 0 0 1 6.17-2.12c.82-.2 1.56-.33 2.2-.4.05 0 .08.01.1.06.14.75.25 1.55.31 2.4a8.98 8.98 0 0 1-.36 3.27c-.2.71-.36 1.25-.51 1.63l-.5 1.23a.13.13 0 0 0 0 .1c.13.31.35.9.67 1.8.47 1.28.75 2.38.86 3.3.1.95.13 1.95.08 3-.01.3-.08.65-.2 1.05-.28 1.04-.77 2-1.46 2.89a.09.09 0 0 1-.09.03l-1.57-.23a.08.08 0 0 1-.06-.05l-.3-.8Z" fill="#E7C089"/><path d="m16.56 22.33.53-.65c.95-.9 2-1.61 3.15-2.16.02-.01.02-.03 0-.05-.45-.46-.86-.94-1.24-1.46-.6-.8-1.17-1.61-1.74-2.44l-1.1-1.66c-.02-.03-.04-.04-.08-.02-.45.26-.8.76-1.06 1.5-.16.48-.3 1.08-.43 1.8a5 5 0 0 0-.05 1.37c.15 1.3.57 2.55 1.25 3.78a2.02 2.02 0 0 1-.98-1.1 9.68 9.68 0 0 1-.68-2.71 4.8 4.8 0 0 1 .03-1.16c.1-.68.23-1.3.4-1.88.15-.48.34-.9.58-1.23.3-.43.63-.7 1-.8.12-.04.22 0 .3.11a99.94 99.94 0 0 0 2.57 3.8c.48.68.97 1.32 1.49 1.93.03.04.08.05.13.03l.04-.02c.04-.02.04-.05.02-.08-.12-.13-.17-.26-.13-.37.03-.12.14-.18.32-.19.21 0 .42 0 .62.05.3.05.48.15.54.29a.1.1 0 0 1-.02.1.1.1 0 0 1-.1.05l-.65-.1c-.07 0-.1.02-.06.09.12.23.09.37-.1.44-.52.2-.97.4-1.35.63-.52.3-1.04.65-1.56 1.05a46.63 46.63 0 0 0-1.64 1.31c-.15.08-.18.05-.1-.1l.1-.15Z" fill="#040302"/><path d="m17.26 15.57-.06.67c-.01.22-.04.44-.09.66-.17.82-.27 1.38-.29 1.66-.07.88.02 1.92.27 3.12l-.54.65h-.76a9.97 9.97 0 0 1-1.25-3.77 5 5 0 0 1 .05-1.36c.12-.73.26-1.33.43-1.8.25-.75.6-1.25 1.06-1.5.03-.03.06-.02.08.01l1.1 1.66Z" fill="#E49FBE"/><path d="M17.09 21.68c-.25-1.2-.34-2.24-.27-3.12.03-.28.12-.84.3-1.66.04-.22.07-.44.08-.66l.06-.67c.57.83 1.15 1.64 1.74 2.44.38.52.8 1 1.24 1.46.02.02.02.04 0 .05-1.15.55-2.2 1.27-3.15 2.16Z" fill="#C57183"/><path d="M40.16 22.6c0-.03.03-.07.05-.12.3-.65.5-1.15.57-1.48.35-1.38.42-2.78.24-4.2a.07.07 0 0 0-.05-.06.07.07 0 0 0-.07 0l-1.23.87-2.8 2.02-.09-.04a.1.1 0 0 1-.06-.09c0-.04 0-.07.04-.1a58.08 58.08 0 0 1 4.02-3.03c.14-.1.3-.11.44-.03.03.02.06.05.07.08.08.18.12.36.14.54.14 1.14.1 2.31-.11 3.52a5.83 5.83 0 0 1-.72 1.97.84.84 0 0 1-.22.24c-.05.03-.09.04-.13.04-.05-.01-.08-.06-.1-.13Z" fill="#040302"/><path d="m40.16 22.6-.43-.13c.29-.88.4-1.78.3-2.7-.07-.77-.2-1.49-.36-2.16l1.23-.87a.07.07 0 0 1 .07 0c.03 0 .04.03.05.06.18 1.42.1 2.82-.24 4.2a9.39 9.39 0 0 1-.62 1.6Z" fill="#E49FBE"/><path d="M39.67 17.61c.17.67.29 1.4.36 2.16.1.92-.01 1.82-.3 2.7l-1.36-1.3a5.19 5.19 0 0 0-.77-.64 3.04 3.04 0 0 1-.47-.37.93.93 0 0 1-.26-.53l2.8-2.02Z" fill="#C57183"/><path d="M31.25 22.78c.05.22.08.37.08.46.04.98.12 2.02.25 3.12 0 .04-.01.04-.05.02-.04-.03-.07-.08-.09-.15a13.82 13.82 0 0 1-.2-3.45ZM35.94 24.85a9.68 9.68 0 0 0-.08 1.75c.05 0 .15-.77.23-1.73.09-.96.12-1.74.08-1.75-.05 0-.15.77-.23 1.73Z" fill="#040302"/><path d="M26.94 25.38a.54.54 0 0 1-.36-.45c-.03-.2.04-.39.2-.56.18-.2.49-.27.93-.23.37.03.69.12.95.26.1.05.19.16.27.32.1.19.1.35.02.51-.09.16-.23.24-.43.26-.7.07-1.22.03-1.58-.11ZM38.44 26.24c.4-.08.7-.35.65-.6-.05-.26-.41-.4-.81-.33-.4.07-.7.34-.65.6.05.25.41.4.81.33Z" fill="#fff"/><path d="M30.35 25.37a.05.05 0 0 0-.03.06l.4.85c.02.03.05.04.07.03a.05.05 0 0 0 .02-.07l-.4-.85a.05.05 0 0 0-.06-.02ZM37.3 25.66a.06.06 0 0 0-.09 0l-.65.67a.06.06 0 0 0 0 .1c.03.02.07.02.1 0l.64-.68a.06.06 0 0 0 0-.09ZM22.66 25.76a1 1 0 0 1 .29-.05 30.9 30.9 0 0 1 4.87.26c.8.11 1.48.26 2.04.44.17.05.3.2.39.46.01.04 0 .07-.04.08-.05.02-.09 0-.11-.02a1.94 1.94 0 0 0-.29-.32.84.84 0 0 0-.37-.16c-.17-.04-.4-.07-.7-.1a10.4 10.4 0 0 1-.76-.12c-.64-.13-1.3-.21-1.95-.25a3012.4 3012.4 0 0 0-3.38-.22h.01Z" fill="#040302"/><path d="m38.81 35 .04.07c.29.87.26 1.76-.08 2.67-.05.15-.1.25-.16.29a.12.12 0 0 0-.05.1v.03c-.01.1-.03.17-.06.23a4.76 4.76 0 0 1-1.33 1.72l-1.3 1.04c-.47.38-1.1.8-1.89 1.27-.13.07-.29.12-.47.14-1.04.1-2.06.07-3.05-.08-.83-.13-1.85-.38-3.07-.76a6.17 6.17 0 0 0-.58-1.39l1.81-2.05a.07.07 0 0 0 .01-.07l-.02-.04c0-.02-.02-.03-.04-.01A15.79 15.79 0 0 0 26.72 40l-.15-.91-.15-.92 1.17-.57c.07-.03.07-.06 0-.07a.67.67 0 0 0-.36.06c-.26.1-.53.22-.81.35l-.03-1.32.77-.1.04-.04-.01-.05-.06-.05h-.02l-.65.02c-.06 0-.09-.02-.09-.08.02-.88.45-1.72 1.29-2.5.42-.37.72-.6.9-.7.14-.09.45-.2.9-.37.29-.1.59-.22.9-.35.58-.25 1.16-.45 1.76-.6a5.99 5.99 0 0 1 .95-.12c.03 0 .06-.03.07-.06.45-1.64.57-3.31.35-5.02-.02-.18.06-.29.25-.31h.01c.2-.02.3.07.34.25.32 1.54.54 3.08.67 4.63 0 .1.05.27.14.52.01.03.04.05.07.06.16.02.45.13.85.33.8.4 1.5.91 2.08 1.53.38.4.68.85.91 1.39Z" fill="#fff"/><path d="m37.77 27-.26.2c-.04.02-.07.03-.1.02-.01 0-.03-.02-.04-.05a.09.09 0 0 1 0-.1.87.87 0 0 1 .8-.4 31.75 31.75 0 0 0 1.7.03v.03h-.01c-.54.09-1.13.14-1.77.17-.11 0-.21.04-.32.1ZM30.08 29l-.31-.38a.2.2 0 0 0-.18-.07l-1.32.15c-.06 0-.1.04-.1.1-.13.53-.37 1-.73 1.4a2.19 2.19 0 0 1-.65.44c-.04.02-.04.05-.02.08.01.02.04.03.06.04 0 .07-.05.1-.15.11-.26.03-.46.03-.6.03-.42-.03-.84-.02-1.27 0-.2-.11-.28-.2-.26-.29l.6.02c.06 0 .07-.01 0-.05L25 30.5c-.27-.14-.46-.3-.57-.47a3.02 3.02 0 0 1-.48-1.7c0-.05-.02-.07-.06-.08l-.96-.14c-.03 0-.05.01-.05.05-.03.54.08 1.12.32 1.72a2.5 2.5 0 0 1-.7-1.87c0-.05-.03-.08-.08-.08l-.55-.08a.1.1 0 0 1-.1-.08.11.11 0 0 1 .03-.12c.05-.05.14-.07.27-.07h.06c2.46-.03 4.97.15 7.56.54.17.02.3.07.37.14a4 4 0 0 1 1.06 1.73c.02.04 0 .05-.04.04-.05-.02-.09-.06-.12-.12l-.02-.03-.85-.87ZM38.7 30.65c.58-.52.89-1.17.9-1.97.01-.06-.01-.09-.07-.09l-.72-.04c-.06 0-.1.03-.1.09-.1 1.02-.64 1.65-1.6 1.88a2.87 2.87 0 0 1-.74.02.08.08 0 0 0-.08.05l-.11.24-.2.8c-.02.02-.03.02-.04 0l-.06-.07a4.77 4.77 0 0 1 .65-3.33.15.15 0 0 1 .13-.09 44.78 44.78 0 0 1 4.45-.08c.04.04.05.09.03.15a.16.16 0 0 1-.13.1l-1.05.21c-.04.01-.05.03-.05.07.03.8-.23 1.49-.79 2.06a.89.89 0 0 1-.56.3c-.13 0-.14-.04-.05-.12l.18-.18Z" fill="#040302"/><path d="m24.55 30.61-.46-.1c-.4-.12-.7-.33-.9-.64a4.1 4.1 0 0 1-.32-1.72c0-.04.02-.05.05-.05l.96.14c.04 0 .06.03.06.07-.01.63.15 1.2.48 1.7.11.18.3.34.57.48l.17.1c.06.03.05.04-.02.04l-.6-.02ZM30.08 29c0 .1 0 .16.04.2.05.08.08.16.08.24 0 .03 0 .07.02.1.16.36.27.74.31 1.14.01.08-.02.12-.1.12l-3.35.07-.25-.1a.15.15 0 0 1-.06-.05c-.03-.03-.02-.06.02-.08l.08-.05c.29-.15.48-.28.57-.39.36-.4.6-.87.72-1.4.02-.06.05-.1.11-.1l1.32-.15a.2.2 0 0 1 .18.07l.3.38ZM38.7 30.65l-2.52.18.11-.24a.08.08 0 0 1 .08-.05h.13c.3 0 .5 0 .6-.02.97-.23 1.5-.86 1.61-1.88 0-.06.04-.1.1-.1l.72.05c.06 0 .08.03.08.09a2.6 2.6 0 0 1-.92 1.97Z" fill="#fff"/><path d="M27.08 30.87c-.26.19-.51.3-.75.31a3.1 3.1 0 0 1-1.52-.28c.43-.02.85-.03 1.27 0 .14 0 .34 0 .6-.03.1 0 .15-.04.15-.1l.25.1Z" fill="#C57183"/><path d="M25.62 31.89c-.47 0-.85-.04-1.14-.1a2.35 2.35 0 0 1-1-.5c-.02-.02-.03-.04-.02-.07.03-.05.06-.07.12-.06.35.06.73.15 1.16.27.25.08.59.08 1.01.03.13-.02.18.03.14.15l-.02.08c-.03.13-.12.2-.25.2ZM38.45 31.8c-.38.1-.62.1-.72 0-.13-.12-.1-.18.07-.19.39 0 .75-.1 1.11-.3.04-.02.07-.02.1.02l.02.07c0 .04.03.06.06.05l.15-.03c.05-.01.07.01.07.06 0 .05-.01.08-.03.09-.25.14-.49.26-.7.35-.23.11-.44.17-.64.18-.1 0-.16 0-.19-.03-.16-.16-.14-.2.08-.14.18.06.38.01.62-.13ZM37.28 32.67a2.66 2.66 0 0 1-.94-1.1c-.01-.04-.02-.06-.01-.07 0-.02 0-.03.02-.03 0-.01.03 0 .05.03l.92 1.14c.07.09.05.1-.04.03ZM33.84 35.2c-.25.08-.43-.02-.55-.31-.1-.23-.13-.47-.1-.73.01-.17.1-.3.29-.4.13-.07.46-.1.99-.07.67.02 1.3.1 1.92.23.08.01.12.06.13.14a2.06 2.06 0 0 1-.15 1.1.55.55 0 0 1-.41.32c-.04 0-.06.03-.06.06l-.01.29a.2.2 0 0 1-.05.12c-.22.25-.48.46-.79.6a.1.1 0 0 0-.06.08c-.11.64-.3 1.22-.57 1.72-.02.04-.02.07 0 .1.25.22.5.4.78.53l.7.34c.34.2.33.23-.06.13l-1.28-.32a2 2 0 0 0-.95.03l-.63.15c-.5.1-.88.21-1.13.31-.47.18-.92.32-1.37.4h-.04l-.01-.03v-.02a.97.97 0 0 1 .22-.12c1.24-.47 2.37-.93 3.4-1.4.1-.05.17-.11.2-.2l.44-1.61c.01-.04 0-.07-.03-.1a7.83 7.83 0 0 0-.16-.14c-.33-.28-.54-.5-.61-.65-.03-.06-.03-.19 0-.37a2 2 0 0 0 0-.13c.01-.04-.01-.06-.05-.05ZM27.66 33.82c-.84.8-1.27 1.63-1.29 2.5 0 .07.03.1.09.1l.65-.03h.03l.05.05c.01.01.02.03.01.05 0 .02-.02.03-.04.03l-.77.11-.21.02-2.47.52c-.1.02-.5.07-1.19.14-.04 0-.05-.01-.03-.05a36.19 36.19 0 0 1 3.71-.81c.03-.01.05-.03.05-.06l.04-.32a3.26 3.26 0 0 1 1.36-2.25Z" fill="#040302"/><path d="m35.36 34.12-.9-.03c-.04 0-.06.02-.06.06 0 .17.03.35.1.55.16.42.42.77.79 1.05.05.03.12 0 .21-.09-.1.2-.26.35-.5.48a.16.16 0 0 1-.2-.02l-.45-.4a.12.12 0 0 1-.04-.09l-.01-.32c-.03-.38-.19-.55-.47-.52-.13.01-.2-.05-.23-.18l-.07-.36c-.03-.16.03-.24.19-.25.59-.03 1.13 0 1.64.12Z" fill="#C57183"/><path d="m35.36 34.12.77.13c.04 0 .06.03.06.07a1.8 1.8 0 0 1-.14.62.13.13 0 0 1-.08.07l-.05.03a.65.65 0 0 0-.29.16.64.64 0 0 0-.13.46c-.1.1-.16.12-.21.09a2.33 2.33 0 0 1-.79-1.05c-.07-.2-.1-.38-.1-.55 0-.04.02-.06.06-.06l.9.03Z" fill="#E49FBE"/><path d="M30.59 35.84c-.04.06-.04.14 0 .17.05.04.12.01.16-.05.05-.07.05-.15 0-.18s-.12 0-.16.06Z" fill="#040302"/><path d="m39.7 37.5-.5-.29a.03.03 0 0 1-.02-.03l.06-1.03c0-.03.01-.04.04-.04l1.37.2c.04 0 .05.03.02.06l-.93 1.12c-.02.02-.03.02-.05 0Z" fill="#E7C089"/><path d="M36.98 36.43a.1.1 0 0 0 .1-.1.1.1 0 0 0-.1-.1.1.1 0 0 0-.1.1c0 .05.04.1.1.1ZM38.02 36.65c.08 0 .13-.06.13-.13a.13.13 0 0 0-.13-.14.13.13 0 0 0-.13.14c0 .07.06.13.13.13Z" fill="#040302"/><path d="m26.39 36.63.03 1.32c0-.01-.05 0-.13.05l-.11-1.35.2-.02Z" fill="#C57183"/><path d="M29.28 37.18c.1 0 .17-.08.17-.18 0-.1-.08-.18-.17-.18-.1 0-.18.08-.18.18 0 .1.08.18.18.18ZM30.46 37.51c.08 0 .14-.06.14-.14a.14.14 0 0 0-.14-.15.14.14 0 0 0-.14.15c0 .08.06.14.14.14ZM37.17 37.32c0 .06.03.12.08.12.06 0 .1-.04.1-.1.01-.07-.03-.13-.08-.13s-.1.04-.1.1Z" fill="#040302"/><path d="m39.55 37.72-.61.62c-.03.03-.06.03-.09.01-.03-.02-.04-.04-.03-.08l.28-.84c.01-.05.05-.07.1-.04l.33.21c.05.04.06.07.02.12Z" fill="#E7C089"/><path d="m38.72 38.6-.06.07c-.03.04-.05.04-.04-.02l.03-.06a.05.05 0 0 1 .05-.03c.02 0 .03.01.02.03Z" fill="#C57183"/><path d="M26.81 40.33c.25.44.45.9.59 1.39l-1.35-.38c-.03 0-.03-.02-.02-.04l.78-.97Z" fill="#E7C089"/></svg>