<svg width="112" height="112" viewBox="0 0 56 56" xmlns="http://www.w3.org/2000/svg"><path d="M28 11a17 17 0 1 1 0 34 17 17 0 0 1 0-34Z" fill="url(#ag2jwji4o)"/><path d="M28 13a15 15 0 1 1 0 30 15 15 0 0 1 0-30Z" fill="#4A4A6A"/><path d="M28 14a14 14 0 1 1 0 28 14 14 0 0 1 0-28Z" fill="#3B265E"/><path d="M23 37v-4.68l-3.33-2.93v-.97l-.67-.49v5.4L23 37Zm0-13v7.92l-3-2.65v-.96l-1-.74v-7.14l1-.43 3 4Zm11.7 12-1.25 1-.45-.18v-2.05l2-1.86V27.5l2-1.93v.62l-1 1v5.65l-1.3 1.33v1.83Zm.28-.23L37 34.14v-7.57l-.72.72v5.65l-1.3 1.33v1.5ZM33 25.07v9.31l1.72-1.58v-5.42l2.28-2.2V20h-1.58L33 25.07ZM24.42 20H21l3.73 5h2.93l-.73-1h-.74l-2.51-3.28h1.28l-.54-.72Zm.75 1h-.93l2.1 2.72h.73l1.12 1.56h-3.25L26.97 28h2.4l.63-.52L25.17 21Zm6.1-1h2.6l.13.63L31.66 25h-2.34l-.32-.69L31.26 20Z" fill="url(#bg2jwji4o)"/><defs><linearGradient id="ag2jwji4o" x1="17" y1="14.5" x2="38.5" y2="41.5" gradientUnits="userSpaceOnUse"><stop stop-color="#FAFCFF"/><stop offset=".3" stop-color="#9EB9C0"/><stop offset="1" stop-color="#8A70A0"/></linearGradient><linearGradient id="bg2jwji4o" x1="22.18" y1="21.75" x2="32.77" y2="35.84" gradientUnits="userSpaceOnUse"><stop stop-color="#FAFCFF"/><stop offset=".3" stop-color="#9EB9C0"/><stop offset="1" stop-color="#8A70A0"/></linearGradient></defs></svg>