<svg width="112" height="112" viewBox="0 0 56 56" xmlns="http://www.w3.org/2000/svg"><rect fill="url(#asxwkwp55)" width="56" height="56" rx="28"/><path d="M19.14 38.17a14.2 14.2 0 0 0 19.02-6.43A14.15 14.15 0 0 0 29.81 12 16.06 16.06 0 1 1 12 29.98a14.24 14.24 0 0 0 7.14 8.2Z" fill="url(#bsxwkwp55)"/><path d="M38.11 26.97c-.8 0-2.01.1-3.42.45-.05 0-.1.05-.2.05-.05 0-.1.05-.2.05a13.23 13.23 0 0 0-3.82 1.96c-.05.05-.16.1-.2.15a11.8 11.8 0 0 0-3.63 5.48 17.07 17.07 0 0 0-.75 3.27h.05a13.08 13.08 0 0 0 12.48-11.4l-.3-.01Z" fill="#5076FF"/><path d="M24.38 35.06a11.68 11.68 0 0 0-3.63-5.48c-.05-.05-.15-.1-.2-.15-.05-.05-.15-.1-.2-.15-.5-.4-1.05-.7-1.66-1-.6-.3-1.26-.56-1.96-.8-.05 0-.1-.06-.2-.06-.05 0-.1-.05-.2-.05a14.5 14.5 0 0 0-3.42-.45h-.4c.4 3.06 1.85 5.88 4.12 7.99a13.07 13.07 0 0 0 8.4 3.41c-.1-.8-.25-1.6-.45-2.3-.05-.3-.1-.61-.2-.96Z" fill="#B80083"/><path d="M27.75 31.64c.7-1.05 1.5-1.96 2.46-2.71.05-.05.15-.1.2-.15a7.5 7.5 0 0 1 1.71-1.05c.66-.36 1.36-.6 2.12-.86a18.6 18.6 0 0 0-.76-6.83c-.55.25-2.1 1.05-3.72 2.46-.05.05-.1.1-.15.1a107.27 107.27 0 0 0-1.56 1.6 13.44 13.44 0 0 0-2.26 3.83l-.1.25c-.05.1-.05.2-.1.3-.66 1.96-.91 4.12-.71 6.43.25.75.45 1.55.6 2.4a16.89 16.89 0 0 1 .86-3.06l.2-.5c.35-.8.76-1.5 1.2-2.2Z" fill="#5032FF"/><path d="M18.94 27.77c.5.26 1.01.56 1.51.9.05.06.1.1.2.16a10.6 10.6 0 0 1 2.67 2.86c.35.55.65 1.1.96 1.71 0-1.16.1-2.26.35-3.32.15-.7.35-1.4.6-2.05a14.72 14.72 0 0 0-2.26-3.82 12.78 12.78 0 0 0-1.71-1.71c-1.61-1.4-3.12-2.16-3.73-2.46-.25.9-.95 3.66-.75 6.83.8.3 1.5.6 2.16.9Z" fill="#CC00D5"/><path d="M23.37 23.86c.9 1.05 1.61 2.2 2.16 3.41a14.48 14.48 0 0 1 3.63-4.92 20.04 20.04 0 0 0-3.63-5.93c-.65.7-2.46 2.86-3.62 5.93.5.45 1 .95 1.46 1.5Z" fill="#7800FF"/><defs><linearGradient id="asxwkwp55" x1="10.42" y1="9.71" x2="68.15" y2="76.02" gradientUnits="userSpaceOnUse"><stop stop-color="#1A1E21"/><stop offset="1" stop-color="#06060A"/></linearGradient><linearGradient id="bsxwkwp55" x1="32.71" y1="31.58" x2="40.1" y2="38.4" gradientUnits="userSpaceOnUse"><stop stop-color="#FFF1B2"/><stop offset=".98" stop-color="#FFCF60"/></linearGradient></defs></svg>