<svg width="112" height="112" viewBox="0 0 56 56" xmlns="http://www.w3.org/2000/svg"><path d="m18.1 11 .14.04 12.07 4.12c.2.07.36.35.49.83l.1.35a26925.46 26925.46 0 0 1 8.1 24.6l-.01.03-.03.02-.03.01h-2.91a.1.1 0 0 1-.1-.07l-2.48-7.52a.1.1 0 0 0-.08-.06.1.1 0 0 0-.09.04l-4.7 7.5-.03.03a.08.08 0 0 1-.08 0 .08.08 0 0 1-.03-.02l-4.7-7.5a.08.08 0 0 0-.11-.02.08.08 0 0 0-.02.04l-2.51 7.5a.1.1 0 0 1-.1.07h-2.92a.07.07 0 0 1-.06-.02v-.06l6.9-20.68a.3.3 0 0 0-.05-.28l-6.8-8.88v-.02a.04.04 0 0 1 .01-.04l.03-.01Zm8.23 5.97v.07l1.8 2.35a.34.34 0 0 1 .05.3c-1.3 3.85-2.37 7.08-3.23 9.68-.07.19-.03.39.1.6l3.4 5.41a.06.06 0 0 0 .05.03h.03l.02-.03 3.54-5.63a.39.39 0 0 0 .03-.33l-3.85-11.7a.33.33 0 0 0-.2-.2l-1.67-.57h-.03a.06.06 0 0 0-.04.02Z" fill="#fff"/></svg>