<svg width="56" height="56" viewBox="0 0 56 56" xmlns="http://www.w3.org/2000/svg"><rect fill="#F0F3FA" width="56" height="56" rx="28"/><path d="M42.92 34.27c.63.1.74.77.45 1.26-.32.55-.8.86-1.43.94-.17.02-.27.11-.3.28-.08.4-.61.55-.96.48a.24.24 0 0 0-.25.1.25.25 0 0 0-.03.1c-.32 2.25-1.56 3.6-3.71 4.05-2.38.48-4.76.4-7.14.48-1.78.05-3.03.05-3.77 0-2.57-.21-4.84-1.3-7.22-2.28-.56-.23-1.17-.41-1.83-.56-2.15-.46-2.16-3.88-1.84-5.6.01-.08-.02-.14-.1-.17a8.27 8.27 0 0 1-1.34-.73 187.8 187.8 0 0 1-3.11-2.24c-.13-.1-.35-.32-.67-.66-.4-.43-.36-.82.15-1.17.62-.42 1.27-.75 1.86-1.23.34-.27.74-.46 1.21-.58.24-.06.24-.12 0-.18a7.78 7.78 0 0 1-3.57-2c-.96-.94-1.7-2.33-1.1-3.68 1.35-3.02 4.41-2.75 7.06-2.25.06.01.09.05.1.1v.09a.17.17 0 0 1-.15.12c-1.15.14-2.64.68-3.41 1.63-.47.57-.46 1.07.03 1.5.47.44 1.07.77 1.68.96 1.74.54 3.55.76 5.42.65a.13.13 0 0 0 .12-.1c.2-1.03.41-2.03.64-3a4.5 4.5 0 0 1 1.56-2.62 5.6 5.6 0 0 1 6.14-.4c.06.03.13.03.2.01.37-.1.65-.28.82-.54.17-.24.28-.22.33.08.02.08.05.16.1.23a.26.26 0 0 0 .25.1c.82-.1 1.47-.77 2.02-1.36a.25.25 0 0 1 .24-.07.24.24 0 0 1 .17.18c.05.2.05.39 0 .58a.13.13 0 0 0 .05.13.13.13 0 0 0 .13.02c.22-.1.45-.13.67-.11.02 0 .05 0 .06.02a.12.12 0 0 1 .04.13l-.03.06c-.25.22-.4.5-.43.82a.17.17 0 0 0 .05.14.16.16 0 0 0 .15.04c1.74-.44 4-.55 5.66.23 1.52.7 1.51 1.81 1.5 3.28a.2.2 0 0 0 .19.2c1.48.1 2.48.75 3 1.95a.17.17 0 0 0 .2.1c1.15-.24 2.34-.78 2.91-1.87.75-1.4-.45-2.7-1.9-2.65a.1.1 0 0 1-.06-.02.1.1 0 0 1-.03-.07c0-.08.03-.13.1-.15 1.22-.47 2.78-.65 3.58.62.52.82.71 1.78.58 2.9-.26 2.11-2.17 3.57-4.03 4.3a.15.15 0 0 0-.1.13c0 .05 0 .1.04.14.03.03.07.05.1.06.9.13 2.02.37 2.73.95a.34.34 0 0 1 .09.42.34.34 0 0 1-.1.12c-.52.4-1.1.72-1.5 1.25-.48.62-1.02 1.34-1.76 1.64-.08.03-.1.08-.08.16.25.78.09 1.6-.49 2.43-.05.07-.03.11.06.13Z"/><path d="m31.54 17.2.42-.18c.04-.02.08 0 .11.03l.03.07a.13.13 0 0 1-.03.11.77.77 0 0 0-.2.66c.01.1-.02.16-.11.19l-2.47.84a.16.16 0 0 1-.18-.05 5.66 5.66 0 0 0-1.21-1.03c-.15-.1-.14-.16.03-.2.18-.05.34-.14.49-.27.08-.08.16-.07.23.03.59.82 2.08-.56 2.48-1.07a.17.17 0 0 1 .2-.05c.02 0 .04.02.05.05l.01.1-.05.63c0 .15.06.2.2.14Z" fill="#fff"/><path d="M26.32 17.42a5.76 5.76 0 0 1 1.93 4.84c-1.38-.29-2.88-.79-4.28-.13-.55.26-1.11.5-1.7.73-.02.01-.02.03-.02.06.01.02.03.03.05.02l1.77-.48c.85-.25 1.73-.3 2.65-.14.63.1 1.2.22 1.73.34.4.55.55 1.11.45 1.69-1.7-.25-3.32-.23-4.88.52-.6.28-1.18.4-1.78.6a.43.43 0 0 1-.24 0 .5.5 0 0 0-.18 0c-.12.01-.13.05-.02.11.34.19.59.42.75.7a8.13 8.13 0 0 0 4.8 3.7c1.14.3 2.3.34 3.46.1.25-.05.37-.2.38-.44a.65.65 0 0 1 .22-.08c.11.18.15.42.12.72-.76.4-1.63.6-2.6.6a81.63 81.63 0 0 1-4.34-.1c-.33.03-.33.06 0 .1 1.9.23 4.06.42 5.85.13.33-.05.73-.21 1.2-.48l.33.58c-.12 0-.2.02-.27.07a5.29 5.29 0 0 1-.97.53l.02.05c0 .04.03.05.07.03l1.13-.46c.02.11.06.22.12.33-.38.22-.55.47-.53.77.05.68.38 1.29.97 1.81.05.04.06.09.02.14a3.7 3.7 0 0 1-2.21 1.36c-1.14.25-1.93 1.16-1.58 2.32.18.58.64.92 1.4 1.02.37.46.4.92.08 1.4-.26.37-.6.72-1.03 1.05-.47.04-.97.08-1.52.1-1.98.08-3.9-.23-5.75-.94-1.02-.39-2.2-.82-3.55-1.3a6.99 6.99 0 0 1-2.1-1.05c-1.2-1.02-1.3-3.15-1.19-4.71a.13.13 0 0 1 .1-.12h.04a4.8 4.8 0 0 0 2.98-.43c.02-.01.02-.03.02-.04-.01-.02-.02-.02-.04-.02-1.66.61-3.19.4-4.58-.61l-3.65-2.68c-.33-.24-.4-.5-.22-.8.21-.37 1.14-.77 1.6-1.02a6.03 6.03 0 0 1 3.54-.8c1.14.1 2.33.42 3.55.95.04.02.07 0 .08-.03l.03-.05-.01-.02-.85-.45a.1.1 0 0 1-.04-.07.1.1 0 0 1 .02-.08 6.04 6.04 0 0 0 1.57-3.32c.18-1.29.48-2.48.9-3.58.98-2.64 3.57-3.73 6.2-3.04Z" fill="#D06311"/><path d="M26.32 17.42a6.84 6.84 0 0 1 4.48 5.1c.02.07-.01.1-.08.1a5.86 5.86 0 0 1-2.47-.36 5.76 5.76 0 0 0-1.93-4.84Z" fill="#fff"/><path d="M34.23 22.17a7.86 7.86 0 0 0-.8-3l-.46-.95c1.62-.34 5.32-.45 6 1.62.15.5.23 1.06.24 1.69 0 .1-.05.15-.14.15-.41 0-.82.06-1.22.14-1.18.24-2.38.36-3.62.35Z" fill="#D06311"/><path d="m32.97 18.22.46.95c.46.93.73 1.93.8 3-1 0-2.01.13-3.04.37-.08.01-.13-.02-.15-.1a7.08 7.08 0 0 0-1.6-3.21.08.08 0 0 1 .02-.07l.03-.02 3.48-.92Z" fill="#fff"/><path d="M11.7 20.31c-1.56 1.42.47 2.49 1.57 2.85a15.12 15.12 0 0 0 5.64.73.08.08 0 0 1 .05.1 5.57 5.57 0 0 1-1.54 3.23.28.28 0 0 1-.3.06 8.76 8.76 0 0 0-2.55-.6c-.47-.04-.9-.14-1.28-.3-2.15-.88-5.93-2.7-4.7-5.72.97-2.4 3.84-2.33 5.92-1.97.06 0 .08.04.07.1l-.02.06a.11.11 0 0 1-.07.05c-1.05.2-1.99.67-2.8 1.41ZM44.71 18.98c2.61-.62 3.28 1.96 2.73 3.93-.5 1.8-1.92 2.97-3.55 3.81a.1.1 0 0 1-.12-.04l-.25-.46a.25.25 0 0 1-.02-.21c.2-.54.03-.96-.5-1.25a.28.28 0 0 1-.13-.17l-.13-.47c-.02-.07 0-.12.08-.13a5.76 5.76 0 0 0 2-.82c.9-.57 1.77-1.7 1.26-2.78a2.22 2.22 0 0 0-1.38-1.2c-.24-.08-.24-.15.01-.2Z" fill="#FFF5DF"/><path d="M35.8 25.26c-.2-.94-.53-1.86-.99-2.76l1.2-.05c.82-.04 1.61-.23 2.4-.4 1.95-.44 3.54.47 4.15 2.43.02.08 0 .13-.09.14-1.62.13-3.19.23-4.7.28-.34.01-1 .13-1.97.36Z" fill="#D06311"/><path d="M34.81 22.5c.46.9.79 1.82 1 2.76-.65.24-1.25.6-1.81 1.08-.14.11-.4.2-.8.24-.09.01-.14-.03-.14-.12l-.04-.52a.39.39 0 0 0-.09-.21 11.9 11.9 0 0 1-1.73-2.8c-.04-.08 0-.13.07-.15 1.2-.27 2.39-.37 3.54-.28ZM28.45 22.66l2.35.27c.08.01.14.06.18.14.35.81.82 1.6 1.37 2.26.1.13.09.16-.07.1-1.1-.46-2.22-.82-3.38-1.08.1-.58-.05-1.14-.45-1.7Z" fill="#fff"/><path d="M27.95 25.95c-1.42.42-2.02 1.54-1.76 2.95a.07.07 0 0 1-.02.07.07.07 0 0 1-.08 0 7.59 7.59 0 0 1-2.25-1.77c-.47-.53-.96-1.01-1.48-1.44-.1-.1-.1-.15.04-.18.44-.1.86-.1 1.3-.24l1.16-.4c2.63-.92 5.36-.16 7.8.92a.25.25 0 0 1 .15.2c.07.7 0 1.36-.2 1.98-.14.47-.54.89-1.2 1.26a.08.08 0 0 1-.12-.04v-.05c.1-.45.13-.92.08-1.4-.19-1.73-1.96-2.29-3.42-1.86Z" fill="#fff"/><path d="m36.3 26.56-.26-1c.77-.2 1.38-.3 1.83-.33 1.5-.08 2.94-.18 4.33-.3.33-.04.58 0 .75.1.28.19.4.46.33.83a.07.07 0 0 1-.1.04 3.08 3.08 0 0 0-1.7-.49c-1.78 0-3.52.5-5.17 1.15Z" fill="#EE7113"/><path d="m36.04 25.56.27 1a4 4 0 0 1-2.71.3c-.1-.02-.11-.06-.01-.1l2.45-1.2Z" fill="#fff"/><path d="m43.26 27.14.2-.03a.11.11 0 0 1 .1.03.12.12 0 0 1 .04.1 3.09 3.09 0 0 1-1.53 2.42c-.1.06-.13.04-.11-.07.44-2.06-1.48-4.62-3.4-2.12a6.1 6.1 0 0 0-1.17 2.91c0 .04-.02.07-.05.09a.14.14 0 0 1-.09.04c-1.77.04-3.5-.25-4.81-1.52-.06-.06-.06-.11 0-.17.4-.44.6-1.03.57-1.76 0-.08.04-.11.12-.1.21.01.39.14.6.17.94.13 1.68.11 2.21-.06 1.78-.58 3.57-1.28 5.5-1.33.81-.02 1.68.16 2.07.97.1.2.03.28-.19.26-.05 0-.1.01-.13.06-.05.09-.03.12.07.1Z" fill="#fff"/><path d="M22.55 26.28c.4.37.79.75 1.15 1.13a7.2 7.2 0 0 0 7.49 2.23c0 .24-.13.39-.38.44-1.16.24-2.32.2-3.46-.1a8.13 8.13 0 0 1-4.8-3.7Z" fill="#EE7113"/><path d="M27.88 27.57c.35.1.68-.02.75-.25.06-.23-.18-.5-.52-.6-.35-.09-.69.03-.75.26-.06.23.17.5.52.6ZM39.53 27.8c.14.17.31.24.4.16.09-.07.05-.26-.08-.42-.13-.17-.31-.24-.4-.16-.09.07-.05.26.08.42Z" fill="#fff"/><path d="M40.39 32c.03-.17-.04-.29-.19-.36.54-.14 1.13-.2 1.6-.45a6.6 6.6 0 0 0 1.6-1.24c.24-.24.24-.47.01-.71-.09-.1-.07-.16.05-.2.8-.23 1.63-.7 2.5-.6.1 0 .11-.02.02-.08-.63-.4-1.7.06-2.37.31-.12.05-.15.02-.07-.1.25-.36.37-.73.36-1.1a.1.1 0 0 1 .08-.1.1.1 0 0 1 .05 0c.81.2 1.8.37 2.5.86a.2.2 0 0 1 .05.26.2.2 0 0 1-.07.07 5.97 5.97 0 0 0-1.93 1.73c-.25.36-.95 1.1-1.44 1.1-.16 0-.25 0-.4.07-.74.32-1.53.5-2.35.53Z" fill="#EE7113"/><path d="M10.62 29.02c-.01.09 0 .2.03.3.06.23 0 .27-.18.12-.17-.13-.24-.43-.07-.6.17-.2.37-.34.6-.42a4.48 4.48 0 0 1 3.58.11c1.2.56 1.72 2.13 3.34 1.75.32-.08.54-.3.79-.52.1-.1.13-.08.06.05-.17.32-.42.55-.76.66-1.46.51-2.37-.9-3.5-1.5-1.04-.57-2.29-.62-3.72-.15-.1.04-.15.1-.17.2Z"/><path d="M29.89 28.65c.13.18.34.26.46.17.12-.1.1-.31-.02-.5-.14-.18-.34-.25-.46-.16s-.11.31.02.5ZM27.9 28.94c.14.07.3.02.37-.11.06-.13 0-.3-.14-.36-.14-.07-.3-.02-.37.11-.06.13 0 .3.14.36ZM40.94 29.56a.4.4 0 0 0 .4-.4.4.4 0 0 0-.4-.4.4.4 0 0 0-.4.4c0 .22.18.4.4.4ZM31.53 30.28c.03-.3-.01-.54-.12-.72l.7-.42a.15.15 0 0 1 .18 0c.05.03.08.08.1.14.02.07 0 .13-.05.19l-.81.81Z" fill="#fff"/><path d="M39.15 29.3c-.04.07-.02.15.04.19.05.03.13 0 .16-.07.04-.07.03-.16-.03-.19-.05-.03-.13 0-.17.07Z" fill="#FAD7B4"/><path d="M37.89 31.06c-.02-.04-.02-.15 0-.33.55.05 1.14.04 1.76-.03 1.15-.13 2.52-.54 3.3-1.41a.15.15 0 0 1 .16-.04l.05.03.07.1c.06.13.04.26-.05.37a4.17 4.17 0 0 1-2.75 1.53c-.53.06-1.07.14-1.6.24-.32.06-.56-.06-.73-.36-.06-.09-.12-.12-.21-.1Z" fill="#EE7113"/><path d="M37.88 30.73v.33l-.03.1a.2.2 0 0 0 .03.2c.64.86 1.48 0 2.32.28.15.07.22.2.19.35h-1.33c-.37-.01-.8-.06-1.32-.14-1.2-.2-2.42-.32-3.64-.37-.7-.03-1.38.03-2.03.18-.06-.1-.1-.22-.12-.33.04-.13.04-.2.02-.22l-.34-.58.9-.92c.05-.05.1-.06.16-.02a6.72 6.72 0 0 0 5.2 1.14Z" fill="#fff"/><path d="M42.36 34.45c-.01.02-.03.03-.06.03-.01 0-.02 0-.03-.02a.08.08 0 0 1-.03-.03c-.12-.22-.3-.29-.55-.21-.6.18-1.69.33-2.1-.29a.37.37 0 0 1 .2-.56c.41-.13.82-.3 1.2-.52.37-.2.34-.32-.08-.35-.44-.04-.88.03-1.33 0-.47-.02-.95-.03-1.42-.1a9.07 9.07 0 0 0-1.54-.12c.02-.03.02-.05-.01-.06-.08-.04-.08-.09-.01-.15a.15.15 0 0 0 .04-.07c2.16.23 4.15.6 6.22-.3.1-.04.2-.01.26.08.1.11.14.26.14.42 0 .14-.06.17-.17.1l-.12-.09a.32.32 0 0 0-.18-.06c-.31 0-.6.12-.87.35-.63.55-1.31.9-2.05 1.07a.18.18 0 0 0-.14.16c0 .1.03.18.1.22.39.17.8.21 1.22.13.5-.1 1-.14 1.49-.13.18 0 .21.08.09.21l-.27.3Z" fill="#FFF5DF"/><path d="M35.79 31.9c-.05.1-.16.2-.31.26-.07.03-.08.07-.02.12l1.59 1.34a.28.28 0 0 1 .1.2.28.28 0 0 1-.07.2c-.12.14-.23.24-.43.24-.85 0-1.7 0-2.55-.03a.82.82 0 0 0-.6.23.37.37 0 0 1-.18.1c-.15.03-.27.06-.39.18a4.97 4.97 0 0 1-1.51 1.18c-.44.16-.85.32-1.24.49-.68.3-1.27 1.18-.58 1.81.06.05.12.08.2.07l1.93-.11c.04 0 .08-.02.1-.05a.18.18 0 0 0 .06-.1c.01-.08-.02-.13-.1-.14l-.34-.06a.15.15 0 0 1-.13-.12.55.55 0 0 1-.03-.18c1.47.05 2.7-.63 4.02-1.22 1.44-.65 2.68-.59 4.25-.13a10.99 10.99 0 0 0 1.9.37l.04.05a.12.12 0 0 1-.03.13c-.27.3-.63.37-1.06.23-1.09-.37-2.04-.7-3.19-.34-1.82.56-3.48 1.41-5.4 1.85-.95.22-2.76.57-2.76-.95 0-1.31 1.23-1.44 2.15-1.8.56-.2 1.1-.64 1.62-1.29.05-.06.12-.1.2-.1l.42-.05c.07 0 .1-.05.08-.12l-.02-.06a.07.07 0 0 0-.03-.05.07.07 0 0 0-.05 0c-1.04.28-1.45-.74-1.58-1.54a.58.58 0 0 1 .28-.58.56.56 0 0 1 .2-.08c1.13-.15 2.28-.14 3.46.04Z" fill="#FEE8C4"/><path d="M35.79 31.9c.28-.02.56.01.85.1 0 .03-.02.05-.04.07-.07.06-.07.11.01.15.03.02.03.03.01.06v.02h.02c.52 0 1.03.03 1.52.1.47.07.95.08 1.42.1.45.03.89-.04 1.33 0 .42.03.45.15.08.35-.38.22-.79.4-1.2.52a.36.36 0 0 0-.25.23.37.37 0 0 0 .05.33c.41.62 1.5.47 2.1.29.25-.08.43 0 .55.21a.08.08 0 0 0 .06.05c.03 0 .05 0 .06-.03l.04.08c.04.07.1.1.17.07l.17-.07a.43.43 0 0 1 .44.1.44.44 0 0 1 .13.43 1.6 1.6 0 0 1-1.69 1.2c-1-.05-2.01-.36-2.98-.6-1.74-.44-3.3.3-4.9 1.05a8.3 8.3 0 0 1-2.56.73c-.07.03-.07.05.01.07l.1.02c0 .07 0 .13.03.18.02.07.06.1.13.12l.34.06c.08.01.11.06.1.14 0 .03-.02.07-.05.1a.15.15 0 0 1-.1.05l-1.94.11a.25.25 0 0 1-.2-.07c-.7-.63-.1-1.52.58-1.81l1.24-.5c.36-.13.87-.52 1.51-1.17.12-.12.24-.15.4-.19a.37.37 0 0 0 .17-.09.82.82 0 0 1 .6-.23l2.55.03c.2 0 .3-.1.43-.24a.28.28 0 0 0-.03-.4l-1.59-1.34c-.06-.05-.05-.09.02-.12.15-.06.26-.15.3-.27Z" fill="#FAD7B4"/><path d="M32.76 33.86c-.28-.4-.61-.87-.23-1.27.61-.65 1.86-.48 2.55-.13.6.31 1.18.72 1.73 1.24.22.21.18.3-.12.27-1.13-.1-2.37-.1-3.73-.02a.22.22 0 0 1-.2-.1Z"/><path d="M29.2 41.53c.42-.33.76-.68 1.02-1.06.31-.47.29-.93-.09-1.39 1.37-.1 2.7-.44 4-.99.97-.41 1.89-.78 2.75-1.1 1.22-.46 2.18-.22 3.32.2.04.02.06.05.05.1-.13.67-.34 1.29-.63 1.85-.82 1.59-2.59 2.08-4.22 2.2-2.03.17-4.1.23-6.2.19Z" fill="#fff"/></svg>