<svg width="56" height="56" xmlns="http://www.w3.org/2000/svg"><rect fill="#725CE6" width="56" height="56" rx="28"/><path fill-rule="evenodd" d="M28.02 11c-3.516 2.43-7.896 7.676-7.695 14.083-4.105 2.2-7.468 6.6-8.325 14.542 3.951 1.602 10.75 2.41 16.174-1.127 5.27 3.452 11.913 2.776 15.826 1.277-.655-8.013-3.942-12.477-8.022-14.734.164-4.417-1.858-9.321-7.959-14.041zm.122 15.554c1.17.068 2.42.284 3.655.704-.687 2.45-1.73 4.354-2.97 5.817-.253.259-.506.495-.755.706-1.466-1.55-2.684-3.68-3.402-6.558a14.3 14.3 0 013.472-.669zm2.894 9.492c.497-.55.97-1.156 1.415-1.819 1.142-1.516 2.13-3.255 2.769-5.149 2.129 1.647 3.87 4.234 4.561 8.156-2.095.519-5.58.506-8.745-1.188zm.633-12.582c.25.038.495.08.738.127-.281-2.492-1.55-5.158-4.433-7.739-1.724 1.38-3.817 4.148-4.26 7.595 2.427-.456 5.225-.557 7.955.017zm-6.751 12.095c-1.928-2.198-3.163-4.366-3.863-6.456-2.157 1.641-3.95 4.206-4.74 8.075 2.119.527 5.68.515 8.941-1.22-.114-.13-.227-.263-.338-.399z" fill="#fff"/></svg>