<svg width="112" height="112" viewBox="0 0 56 56" xmlns="http://www.w3.org/2000/svg"><path d="M23.19 13 28 17.82 32.81 13H43v10.15L38.16 28 43 32.85V43H32.81L28 38.18 23.19 43H13V32.85L17.84 28 13 23.15V13h10.19Z" fill="#4CCA47"/><path d="M20.84 27.17s1.91-2.4 5.16-2.65v-1c-3.6.29-7 3.48-7 3.48s2.05 5.12 7 5.6v-.94c-3.63-.46-5.16-4.5-5.16-4.5ZM26 29.8v.86c-2.75-.5-3.8-3.37-3.8-3.37s1.61-1.55 3.8-1.79v1.02c-1.15-.14-2.34.94-2.34.94s.8 1.82 2.34 2.34Zm0-7.8v1.52l.28-.02c4.1-.14 6.51 3.48 6.51 3.48s-2.81 3.75-6 3.75c-.3 0-.53-.02-.79-.07v1c.22.03.41.05.65.05 2.97 0 4.87-1.53 6.95-3.34.34.28 1.75.95 2.04 1.25-1.97 1.67-6.33 3.01-8.94 3.01-.25 0-.46-.01-.7-.04V34h11V22H26Zm0 3.5v-.98l.28-.02C29.23 24.4 31 27 31 27s-1.86 3-4.1 3c-.32 0-.64-.1-.9-.2v-3.28c1.15.14 1.1.65 1.78 1.8L29.5 27s-1.16-1.5-3.05-1.5c-.2 0-.26-.02-.45 0Z" fill="#F7F7FA"/></svg>