<svg width="56" height="56" viewBox="0 0 56 56" xmlns="http://www.w3.org/2000/svg"><rect fill="#F0F3FA" width="56" height="56" rx="28"/><path d="M28 12c7.2 0 13.4 4.69 15.37 11.43.18.61.28 1.27-.42 1.5-.13.05-.37.07-.73.07l-5.3-.01c-.5 0-.69-.24-.9-.68A8.7 8.7 0 0 0 28 19.1a8.7 8.7 0 0 0-8.02 5.2c-.21.44-.4.67-.9.68l-5.3.01c-.36 0-.6-.02-.73-.06-.7-.23-.6-.9-.42-1.5A15.94 15.94 0 0 1 28 12Z" fill="url(#a)"/><path d="M31.54 31.54a5 5 0 1 0-7.07-7.08 5 5 0 0 0 7.07 7.08ZM29.5 28a1.5 1.5 0 1 1-3 0 1.5 1.5 0 0 1 3 0Z" fill="#4AB1D6"/><path d="M25.99 42.94c0-1.87.02-4.43-.01-5.63-.01-.42-.21-.69-.6-.8a8.82 8.82 0 0 1-5.68-5c-.2-.45-.6-.5-1.07-.5H13.8c-.43 0-.73.05-.9.15-.5.3-.43.86-.27 1.4 1.73 5.85 6.15 10.1 11.77 11.35.85.19 1.59.18 1.6-.97Zm4.03-5.62c-.03 1.2-.02 3.76 0 5.63 0 1.14.74 1.15 1.59.96 5.62-1.24 10.04-5.5 11.77-11.34.16-.54.23-1.1-.27-1.4-.17-.1-.47-.16-.9-.16h-4.84c-.46 0-.86.06-1.07.5a8.82 8.82 0 0 1-5.68 5c-.39.12-.59.39-.6.8Z" fill="url(#b)"/><defs><linearGradient id="a" x1="28" y1="12" x2="28" y2="25" gradientUnits="userSpaceOnUse"><stop stop-color="#84E1CC"/><stop offset="1" stop-color="#1B88DA"/></linearGradient><linearGradient id="b" x1="28" y1="31" x2="28" y2="44" gradientUnits="userSpaceOnUse"><stop stop-color="#F09465"/><stop offset=".37" stop-color="#EB4269"/><stop offset="1" stop-color="#CF0C9B"/></linearGradient></defs></svg>