<svg width="56" height="56" viewBox="0 0 56 56" xmlns="http://www.w3.org/2000/svg"><path fill-rule="evenodd" d="M29.15 16.06C28 15.93 27 15.04 27 13.87c0-1.05.82-1.93 1.86-1.87A16.43 16.43 0 0 1 44 27.18c.06 1.05-.82 1.87-1.87 1.87-1.16 0-2.05-1-2.18-2.16a12.37 12.37 0 0 0-10.8-10.83ZM28 42.1c0 1.1-.9 2.02-2 1.88a16.33 16.33 0 0 1-14-15.23c-.07-1.38 1.37-2.23 2.65-1.7.8.35 1.3 1.15 1.38 2.02a12.22 12.22 0 0 0 9.98 10.85c1.09.18 2 1.07 2 2.18ZM33 28a5 5 0 1 1-10 0 5 5 0 0 1 10 0Zm4 0a9 9 0 1 1-18 0 9 9 0 0 1 18 0Zm-21.02-4.48a1.5 1.5 0 1 1-3 0 1.5 1.5 0 0 1 3 0Zm25.54 10.55a1.5 1.5 0 1 0 0-3 1.5 1.5 0 0 0 0 3Z" fill="url(#a0m3mg4da)"/><defs><linearGradient id="a0m3mg4da" x1="13.48" y1="25.53" x2="43.03" y2="31.53" gradientUnits="userSpaceOnUse"><stop stop-color="#1568B3"/><stop offset="1" stop-color="#15B088"/></linearGradient></defs></svg>