<svg width="56" height="56" viewBox="0 0 56 56" xmlns="http://www.w3.org/2000/svg"><path fill-rule="evenodd" d="M18.83 38.5v.03c.94 1.41 2 2.66 3.18 3.75 3.43 3.17 7.76 3.53 11.84 1.27 6.19-3.42 5.99-11.16 3.62-16.73-.6-1.4-1.29-2.81-2.08-4.21a.15.15 0 0 1 .03-.19l.67-.67c2.98-2.95 3.34-7.48.54-10.73a.07.07 0 0 0-.1 0l-.01.04c.2 3.63-.76 6.6-4.54 7.97-.46.17-1.26.4-2.17.68-1.15.35-2.49.75-3.53 1.12-1.7.6-3.2-.34-4.01-1.81a16.82 16.82 0 0 1-1.47-3.58.06.06 0 0 0-.06 0 7.55 7.55 0 0 0 .22 7.57.05.05 0 0 1-.04.02c-1.9.55-3.44.95-4.62 1.2-.8.18-1.39.47-1.29 1.31.27 2.33 2.05 3.89 4.51 3.93 4.37.08 9.12 1.48 12.22 4.6a1299.72 1299.72 0 0 1 1.29 1.3.2.2 0 0 1 0 .15.2.2 0 0 1-.28.1.2.2 0 0 1-.07-.04c-1.67-1.87-3.51-3.17-5.92-3.62a.07.07 0 0 0-.07.02.07.07 0 0 0-.01.06c.2.78.28 1.54.24 2.29-.1 2.2-1.81 3.94-3.95 4.5a7.64 7.64 0 0 1-4.11-.36l-.02.01-.01.03Zm12.06-16.84-2.96 1.11h-.01a.02.02 0 0 0 0 .03c.06.17.28.28.6.3.33.01.72-.06 1.11-.2l.08-.03c.38-.15.73-.35.95-.58.23-.22.32-.44.25-.61v-.01h-.02Z" fill="#fff"/><defs><linearGradient id="a" x1="10.42" y1="9.71" x2="68.15" y2="76.02" gradientUnits="userSpaceOnUse"><stop stop-color="#1A1E21"/><stop offset="1" stop-color="#06060A"/></linearGradient></defs></svg>