<svg width="112" height="112" viewBox="0 0 56 56" xmlns="http://www.w3.org/2000/svg"><rect fill="url(#a)" width="56" height="56" rx="28"/><path d="M27.9 11a2.76 2.76 0 0 1 2.9 2.4 2.87 2.87 0 0 1-2.1 3.16.16.16 0 0 0-.07.06.16.16 0 0 0-.04.1v1.21l.03.06.05.01h6.43c1.48-.03 2.9.9 2.9 2.59a1121.15 1121.15 0 0 1 .02 6.75l.02.03.03.01a.1.1 0 0 0 .03.01h1.32c.02 0 .05 0 .07-.02a.12.12 0 0 0 .04-.06c.07-.22.16-.43.29-.62a2.76 2.76 0 0 1 3.01-1.26c.8.14 1.41.6 1.83 1.37.33.61.42 1.25.27 1.93a2.73 2.73 0 0 1-1.25 1.75c-.67.43-1.37.54-2.11.35a2.78 2.78 0 0 1-2.05-2.09.14.14 0 0 0-.05-.07.14.14 0 0 0-.09-.03h-1.27a.1.1 0 0 0-.07.03l-.04.07v6.8c0 1.67-1.48 2.49-2.92 2.46a582.63 582.63 0 0 0-6.43 0 .1.1 0 0 0-.03.02.1.1 0 0 0-.03.07v1.29a.1.1 0 0 0 .08.1c.95.26 1.6.81 1.95 1.67.23.58.27 1.17.1 1.75-.15.54-.45 1-.9 1.39-.44.38-.95.61-1.5.69a2.7 2.7 0 0 1-1.75-.36 2.7 2.7 0 0 1-1.32-1.73 2.81 2.81 0 0 1 2.08-3.44.07.07 0 0 0 .06-.07V38.1a.1.1 0 0 0-.1-.1l-6.63.01c-1.62.05-2.67-1-2.66-2.74V28.7c0-.02.02-.03 0-.04a.05.05 0 0 0-.03-.02h-1.32a.14.14 0 0 0-.14.1c-.18.72-.57 1.28-1.17 1.7-.62.42-1.28.56-2 .43A2.76 2.76 0 0 1 11 28.05c.02-.76.3-1.4.85-1.92a2.69 2.69 0 0 1 2-.76c1.3.04 2.18.7 2.66 1.97l.03.04.05.01h1.36a.1.1 0 0 0 .06-.02c.02-.02 0-.04 0-.07v-6.46c0-1.66 1-2.85 2.63-2.84h6.67c.03 0 .05 0 .07-.02a.09.09 0 0 0 .02-.06v-1.25a.1.1 0 0 0-.07-.1 2.83 2.83 0 0 1-1.8-4.19A2.71 2.71 0 0 1 27.9 11Zm.1 29.6a1.57 1.57 0 1 0 0 3.14 1.57 1.57 0 0 0 0-3.13ZM20.6 19.5c-.3 0-.58.12-.78.34-.21.21-.33.5-.33.81v14.7c0 .3.12.6.33.81.2.22.49.34.78.34h14.78c.3 0 .58-.12.78-.34.21-.21.33-.5.33-.8V20.64c0-.3-.12-.6-.33-.81a1.1 1.1 0 0 0-.78-.34H20.61Zm12.21 2.58c.32 0 .62.13.84.35.22.23.34.54.34.86l-.02 9.56c0 .32-.12.63-.34.86-.22.22-.52.35-.84.35l-9.62-.02c-.32 0-.62-.13-.84-.35a1.23 1.23 0 0 1-.34-.86l.02-9.56c0-.32.12-.63.34-.86.22-.22.52-.35.84-.35l9.62.02ZM23.9 23.5a.4.4 0 0 0-.39.4v8.2c0 .22.18.4.4.4h8.2a.4.4 0 0 0 .4-.4v-8.2a.4.4 0 0 0-.4-.4h-8.2ZM13.7 26.6c-.85.04-1.51.76-1.47 1.6.04.85.78 1.5 1.63 1.45a1.54 1.54 0 0 0 1.48-1.61 1.54 1.54 0 0 0-1.64-1.45Zm29.06.1c-.8-.3-1.7.09-2 .88-.29.79.12 1.67.93 1.97.8.3 1.69-.1 1.98-.89.3-.79-.11-1.67-.91-1.97ZM28 12.23a1.58 1.58 0 1 0 0 3.15 1.58 1.58 0 0 0 0-3.15Z" fill="url(#b)"/><defs><linearGradient id="a" x1="10.42" y1="9.71" x2="68.15" y2="76.02" gradientUnits="userSpaceOnUse"><stop stop-color="#1A1E21"/><stop offset="1" stop-color="#06060A"/></linearGradient><linearGradient id="b" x1="39.58" y1="36.38" x2="17.98" y2="15.37" gradientUnits="userSpaceOnUse"><stop stop-color="#BA7AF4"/><stop offset="1" stop-color="#7697F7"/></linearGradient></defs></svg>