<svg width="112" height="112" viewBox="0 0 56 56" xmlns="http://www.w3.org/2000/svg"><rect fill="#F0F3FA" width="56" height="56" rx="28"/><path d="M41.92 30.16a4.3 4.3 0 0 1-.58-3.34l.29-1.26a4.9 4.9 0 0 0-.37-2.46 6.3 6.3 0 0 0-3.5-3.4 5.88 5.88 0 0 0-4.94.28c-.18.1-.58.33-1.2.72a.7.7 0 0 1-.2.09 2.8 2.8 0 0 1-.68.09l-5.6-.02c-.37-.02-.67-.1-.9-.26a9.73 9.73 0 0 0-1.77-.95 5.44 5.44 0 0 0-3.32-.22 6.69 6.69 0 0 0-2.96 1.58 5.31 5.31 0 0 0-1.65 2.97 4.99 4.99 0 0 0 .24 3.28c.16.3.13.76-.07 1.35a9.71 9.71 0 0 1-.67 1.6 13.63 13.63 0 0 1 3.45-13.82 14.4 14.4 0 0 1 7.49-4.04 14.33 14.33 0 0 1 13.62 4.16 13.5 13.5 0 0 1 3.9 8.12c.2 1.63.15 3.1-.13 4.43-.08.34-.23.71-.45 1.1Z" fill="#F5DF3C"/><path d="M41.92 30.16c.04.4.08.68.14.84a205.1 205.1 0 0 1 1.74 5c.28.93.27 1.8-.05 2.64-.33.86-.92 1.5-1.78 1.94-.7.36-1.43.48-2.2.38a3.86 3.86 0 0 1-2.03-.93 6.82 6.82 0 0 1-1.4-2.2 434.4 434.4 0 0 1-1.64-3.58 2.5 2.5 0 0 0-1.32-1.39 5.51 5.51 0 0 0-2.07-.22H24.5c-.87 0-1.52.1-1.93.26-.54.22-.95.65-1.22 1.29a112.2 112.2 0 0 1-2.08 4.48 3.91 3.91 0 0 1-2.3 2.13c-.9.3-1.8.26-2.7-.14a3.65 3.65 0 0 1-1.95-1.9c-.43-.96-.43-2 .01-3.13.74-1.9 1.3-3.7 1.71-5.42.2-.35.43-.88.67-1.6.2-.6.23-1.04.07-1.35a4.99 4.99 0 0 1-.24-3.28c.25-1.21.8-2.2 1.65-2.97a6.69 6.69 0 0 1 2.96-1.58 5.44 5.44 0 0 1 3.32.22c.53.2 1.12.52 1.76.95.24.15.54.24.9.26l5.61.02c.23 0 .45-.03.69-.1a.7.7 0 0 0 .2-.08c.6-.39 1-.63 1.19-.72a6.03 6.03 0 0 1 7 1.04c.62.6 1.1 1.29 1.44 2.08.33.78.46 1.6.37 2.46l-.3 1.26a4.3 4.3 0 0 0 .6 3.34Z" fill="#3F35BC"/><path d="M24.75 25.09c0 1.1-.4 2.05-1.2 2.83a4 4 0 0 1-2.9 1.18 4 4 0 0 1-2.9-1.18 3.83 3.83 0 0 1-1.2-2.83c0-1.11.4-2.06 1.2-2.84a4 4 0 0 1 2.9-1.18 4 4 0 0 1 2.9 1.18c.8.78 1.2 1.73 1.2 2.84Z" fill="#fff"/><path d="M20.63 23.95c.02 0 .05-.01.08-.04l.2-.21c.34-.37.61-.6.81-.72.35-.2.66-.16.93.1.27.27.3.57.1.9-.1.2-.35.47-.73.8l-.2.2c-.04.03-.06.06-.06.08a7.64 7.64 0 0 0 .26.28c.38.33.62.6.74.8.2.34.16.64-.1.9-.28.26-.58.3-.93.1-.2-.1-.48-.35-.82-.71l-.2-.21c-.03-.03-.05-.05-.08-.05a11.57 11.57 0 0 0-.28.25c-.34.37-.62.61-.82.72-.34.2-.65.16-.92-.1s-.3-.56-.1-.9c.1-.2.35-.47.73-.8.1-.09.17-.15.2-.2.04-.03.06-.05.06-.08a11.5 11.5 0 0 0-.26-.27c-.38-.34-.62-.6-.74-.8-.2-.34-.16-.64.1-.9.27-.26.58-.3.93-.1.2.1.47.34.82.71.09.1.15.17.2.2.03.04.05.05.08.05Z" fill="#3F35BC"/><path d="M35.33 22.96c.96 0 1.77.32 2.43.95a3.69 3.69 0 0 1 1.1 2.39c.03.2-.03.4-.17.57a.79.79 0 0 1-.52.29h-.03a.68.68 0 0 1-.54-.15.65.65 0 0 1-.25-.48 2.3 2.3 0 0 0-.6-1.48c-.37-.4-.84-.6-1.42-.6s-1.06.2-1.43.6a2.3 2.3 0 0 0-.6 1.48c-.01.2-.1.36-.25.48a.68.68 0 0 1-.54.15h-.03a.79.79 0 0 1-.53-.3.75.75 0 0 1-.17-.57 3.7 3.7 0 0 1 1.12-2.39 3.38 3.38 0 0 1 2.43-.94Z" fill="#fff"/><path d="M38.53 31.73c.6 0 1.1-.48 1.1-1.08 0-.6-.5-1.08-1.1-1.08-.61 0-1.1.49-1.1 1.08 0 .6.49 1.08 1.1 1.08Z" fill="#08E9FB"/><path d="M17.6 31.73c.61 0 1.1-.48 1.1-1.08 0-.59-.49-1.07-1.1-1.07-.6 0-1.09.48-1.09 1.07 0 .6.5 1.08 1.1 1.08Z" fill="#fff"/><path d="M24.76 34.4c.06-.03.1-.04.12-.03.27.06.57.06.9-.03a567.23 567.23 0 0 0 6.78-.02c.33 0 .57.18.71.54l1.5 3.76c.05.14 0 .26-.13.34-.42.25-.87.46-1.36.64a14.84 14.84 0 0 1-11.6-.45c-.22-.1-.36-.2-.43-.3-.08-.11-.1-.27-.04-.48.04-.18.11-.4.23-.65a102.05 102.05 0 0 0 1.09-2.6c.09-.3.2-.52.31-.64a.15.15 0 0 1 .1-.05l1.39-.08h.02l.36.05a.1.1 0 0 0 .05 0Z" fill="#F5DF3C"/><path d="M30.3 36.65c0 .03 0 .04.02.06.03.01.05.01.07 0l.88-.5a.28.28 0 0 1 .24-.02c.08.03.13.09.17.17v.01c.08.19.03.33-.14.44a6.13 6.13 0 0 1-7.02.04c-.21-.11-.27-.28-.18-.5v-.01c.04-.09.1-.14.19-.17a.28.28 0 0 1 .24.04c.75.52 1.5.84 2.25.98.08.02.14 0 .19-.08.63-1 1.36-1.52 2.19-1.56a1 1 0 0 1 .72.22c.22.18.29.4.22.67-.03.09-.04.16-.04.21Z" fill="#3F35BC"/><path d="M28 37.27c-.04 0-.06-.01-.03-.05.28-.46.73-.81 1.33-1.04a.24.24 0 0 1 .23.02c.08.05.12.11.12.2.01.16-.1.4-.36.72a.21.21 0 0 1-.15.08l-1.13.07Z" fill="#F5DF3C"/></svg>