<svg width="56" height="56" viewBox="0 0 56 56" xmlns="http://www.w3.org/2000/svg"><rect fill="url(#aaflzomay)" width="56" height="56" rx="28"/><path d="M18.5 34.73A8.33 8.33 0 0 1 14.01 36 7.74 7.74 0 0 1 6 28c0-4.71 3.44-8 8-8 4.56 0 8 3.29 8 8 0 2.14-.72 4-1.93 5.36l-1.57 1.37ZM20 28c0-3.28-2.75-6-6-6-3.24 0-6 2.73-6 6 0 3.3 2.75 6 6 6 4.03 0 6-3.32 6-6ZM30.46 20l-1.85 1.24.82 1.74L32.14 30H26.2l-.91 2h7.66l1.61 4H37l-6.54-16ZM49 36h-2.33L39 23.64V36h-2V20h2.35L47 32.48V20h2v16Z" fill="#fff"/><path d="M15.85 30H13l5.77 6h2.83l-5.75-6ZM30.47 20h-2.38l-6.4 16h2.44l6.34-16Z" fill="#00ADEE"/><defs><linearGradient id="aaflzomay" x1="10.42" y1="9.71" x2="68.15" y2="76.02" gradientUnits="userSpaceOnUse"><stop stop-color="#1A1E21"/><stop offset="1" stop-color="#06060A"/></linearGradient></defs></svg>