<svg width="56" height="56" fill="none" xmlns="http://www.w3.org/2000/svg"><rect fill="#F0F3FA" width="56" height="56" rx="28"/><path fill-rule="evenodd" clip-rule="evenodd" d="M43.164 33.276c.01-4.126-1.895-10.368-9.732-12.365 2.546.625 7.284 1.996 9.15 3.31-1.43-1.956-5.738-5.87-11.533-5.87 1.079-.897 3.068-2.921 3.732-4.836A16.13 16.13 0 0144 28.119a16.21 16.21 0 01-.836 5.157zM12 28.208v-.089C12 19.217 19.163 12 28 12c1.885 0 3.694.328 5.373.931-.42.682-1.55 1.957-3.864 3.44-.027-.383-.192-1.3-.63-1.901-.087.417-.711 1.465-2.5 2.319-.446.213-.884.405-1.3.586-1.661.728-2.942 1.288-2.823 2.383.12 1.095.933 1.38 1.325 1.385-.348.105-1.122.213-1.44-.2-.486.561-1.656 1.674-2.451 1.634-.994-.05-1.16-1.1-.828-1.634-1.341.85-3.706 3.36-2.434 6.589 1.371-.834 4.907-2.362 8.076-1.808.916.16 1.64.259 2.228.339 1.953.265 2.404.327 3.436 1.772 1.343 1.88.053 8.741-8.027 9.335-5.788.425-8.967-5.2-10.14-8.962z" fill="#4289C7"/><path d="M13.838 27.565c0-7.66 6.164-13.87 13.767-13.87 25.317 1.049-7.689 36.531-13.767 13.87z" fill="url(#paint0_linear_1530)"/><path fill-rule="evenodd" clip-rule="evenodd" d="M17.435 26.736a2.64 2.64 0 00-.1.135c3.11-.51 9.78-1.057 11.516.93 1.736 1.987 1.216 3.453.723 4.643-1.376 3.32-12.22 7.98-17.568-4.405-.202 5.434 4.453 16.751 17.22 15.915 16.23-1.062 11.224-22.15-2.652-21.181l-.118.025c1.44.663 2.343 1.76 2.672 2.378-5.535-1.345-9.814.374-11.693 1.56z" fill="#191E44"/><path d="M28.419 27.361c2.946 1.957 2.55 5.029 1.983 6.32.664-.718 1.706-1.196 2.145-1.346.708.245 1.538 1.717-.81 5.647-2.347 3.93-7.25 4.437-9.409 4.2l1.417.958 10.522-2.549 2.185-9.459-8.033-3.873v.102z" fill="#0C1D63"/><path d="M21.351 29.016c-1.018-.094-3.245-.654-4.007-2.146 1.692-1.108 6.435-2.76 11.877-.503-.075-.314-.36-1.027-.907-1.374.189.032.617.117.825.194-.174-.289-.639-.959-1.114-1.324 3.578.497 10.733 3.304 10.733 10.562 0 7.258-5.61 9.306-8.414 9.423-2.316.387-7.939.268-12.259-3.2a2.489 2.489 0 01-.29-.24l.29.24c.896.644 3.098 1.595 6.752 1.595 5.18 0 11.514-5.199 9.025-10.886-.034.537-.599 1.867-2.59 2.894.702-2.413.389-7.305-6.475-7.563-1.812-.113-5.037.194-3.446 2.328z" fill="#262F72"/><path d="M38.224 23.038c-2.066-1.356-3.954-1.969-5.021-2.189 3.497.42 5.18 1.17 5.585 1.492a7 7 0 00-.564-.98c1.546.546 3.587 2.17 4.415 2.913-1.174-.66-3.433-1.099-4.415-1.236z" fill="#161A3D"/><path d="M29.353 18.112c-.221.94-.932 1.822-1.259 2.145 6.617-2.898 7.531-8.046 7.161-10.257-.49 1.88-1.837 3.915-2.45 4.698l1.108-.261c-1.385 2.107-3.617 3.328-4.56 3.675z" fill="#18214A"/><path d="M25.047 19.069c-.989.473-1.141 1.164-1.094 1.451 2.818.115 3.748-1.846 3.86-2.84-.427.367-1.53.797-2.766 1.389z" fill="#253155"/><path fill-rule="evenodd" clip-rule="evenodd" d="M24.416 20.52c.5-.148 1.051-.423 1.415-.902.315-.414.51-.838.624-1.199-.12.056-.245.112-.374.171-.324.148-.674.306-1.034.479-.989.473-1.141 1.164-1.094 1.451.16.007.314.006.463 0z" fill="#5D98CE"/><path d="M18.789 23.135c-.543-.021-1.073 1.035-1.27 1.566.979-.982 1.373-.701 1.448-.438.166-.367.364-1.107-.178-1.128z" fill="#54A2CC"/><path fill-rule="evenodd" clip-rule="evenodd" d="M18.089 23.62c.238-.149.485-.245.652-.17.151.067.275.215.37.378.072-.335.044-.678-.323-.693-.245-.01-.489.201-.7.485z" fill="#3A415A"/><defs><linearGradient id="paint0_linear_1530" x1="18.826" y1="16.551" x2="24.363" y2="23.396" gradientUnits="userSpaceOnUse"><stop stop-color="#fff" stop-opacity=".41"/><stop offset="1" stop-color="#fff" stop-opacity="0"/></linearGradient></defs></svg>