<svg width="112" height="112" xmlns="http://www.w3.org/2000/svg" viewBox="0 0 56 56"><path d="M9 17h14v3.18L25 22H9v-5z" fill="#04FEE2"/><path d="M9 25h16v6H9v-6z" fill="#02D6FE"/><path d="M9 34h16v3.46c-1 0-1 1.54-1 1.54H9v-5z" fill="#3868FD"/><path d="M39.824 17H26v3.166l2 1.843v15.669L27 39h5.104c.65 0 .855-.882.896-1.322.014-4.408.032-13.457 0-14.386-.032-.93 1.027-1.252 1.351-1.292h4.257C39.5 22 41 22.409 41 24.454 41 26.876 39.176 27 38.608 27H35v5h1.176l5.675 7H47v-1.322L42 32c3.373-1.314 4.068-5.61 4-7.546-.162-5.803-4.23-7.387-6.176-7.454z" fill="#fff"/><defs><linearGradient id="paint0_linear" x1="10.418" y1="9.712" x2="68.147" y2="76.017" gradientUnits="userSpaceOnUse"><stop stop-color="#1A1E21"/><stop offset="1" stop-color="#06060A"/></linearGradient></defs></svg>