<svg width="56" height="56" viewBox="0 0 56 56" xmlns="http://www.w3.org/2000/svg"><rect fill="#497DDB" width="56" height="56" rx="28"/><path d="M14.1 14.53c.3-.5.7-.64 1.22-.44.07.03.13.08.2.13 2.54 2.31 4.42 4.04 5.64 5.18.54.5.8 1.22.8 2.15L22 28v13.15c0 .12-.03.22-.1.32-.29.5-.7.65-1.2.44a.65.65 0 0 1-.2-.13 634.25 634.25 0 0 1-5.65-5.17c-.54-.5-.8-1.22-.8-2.16L14 28V14.85c0-.11.03-.22.1-.32Zm10 0c.3-.5.7-.65 1.2-.44.08.03.14.07.2.13 2.53 2.31 4.4 4.04 5.6 5.17.54.5.8 1.23.8 2.16l.02 6.45c.02 3.16.01 7.54 0 13.15 0 .12-.03.22-.1.32-.28.5-.68.65-1.2.44a.65.65 0 0 1-.2-.13c-2.52-2.31-4.38-4.04-5.59-5.17-.53-.5-.8-1.23-.8-2.16L24 28c-.02-3.16-.01-7.54 0-13.15 0-.12.04-.22.1-.32Zm10 0c.3-.5.7-.65 1.22-.44.07.03.14.07.2.13 2.54 2.31 4.42 4.04 5.64 5.17.54.5.81 1.23.81 2.16L42 28v13.15c0 .12-.04.22-.1.32-.29.5-.7.65-1.2.44a.65.65 0 0 1-.2-.13 660.15 660.15 0 0 1-5.65-5.17c-.54-.5-.81-1.23-.81-2.16L34 28V14.85c0-.12.04-.22.1-.32Z" fill="#fff"/></svg>