<svg width="56" height="56" viewBox="0 0 56 56" xmlns="http://www.w3.org/2000/svg"><path d="M32.43 12c4.73 0 8.57 3.9 8.57 8.7v3.93c0 2.8-2.24 5.37-5.01 5.37h-4.51c-.82 0-1.48.67-1.48 1.5 0 .82.74 1.5 1.55 1.5h7.3c1.23 0 2.15 1.01 2.15 2.26v5.38c0 1.85-1.67 3.31-3.5 3.31S34 42.88 34 41.02v-.2A2.8 2.8 0 0 0 31.22 38h-9.18C20.5 38 19 39.26 19 40.82v1.53c0 .91-.6 1.65-1.5 1.65s-1.5-.74-1.5-1.65v-7.4C16 33.7 17 33 18.21 33h.18c.82 0 1.61-.68 1.61-1.5v-.2c0-.71-.7-1.3-1.42-1.3A2.6 2.6 0 0 1 16 27.38v-.55c0-1.6 1.27-2.83 2.84-2.83h1.74c2.1 0 3.46-1.87 3.46-4s-1.42-4-3.52-4h-2.5A1.95 1.95 0 0 1 16 14c0-1.17.93-2 2.09-2h14.34Zm-.01 6c-.79 0-1.42.67-1.42 1.5s.63 1.5 1.42 1.5h1.16c.78 0 1.42-.67 1.42-1.5s-.64-1.5-1.42-1.5h-1.16Z" fill="#F296C3"/></svg>