<svg width="112" height="112" viewBox="0 0 56 56" xmlns="http://www.w3.org/2000/svg"><path d="M23 35v5.09c.28.96 1.6 2.88 4.5 2.91 2.9-.03 4.22-1.95 4.5-2.91V35c-1.7.24-3.68.3-4.5.31-.82 0-2.8-.07-4.5-.31Z" fill="#06E003"/><path d="M27.33 36.46V36h.52v.53c.38.13.77.44 1.1.96l-.42.29a1.94 1.94 0 0 0-.68-.69v1.82c.24.15.5.31.7.49.24.2.45.48.45.84 0 .5-.25.83-.55 1.02-.2.14-.41.21-.6.25V42h-.52v-.48c-.8-.12-1.22-.84-1.33-1.2l.49-.16c.08.26.35.71.84.83V39.2c-.24-.15-.5-.31-.7-.5-.24-.22-.45-.5-.45-.87 0-.63.39-1.19.96-1.33l.2-.04Zm0 .53-.06.01c-.32.08-.58.41-.58.83 0 .15.09.3.28.48.1.1.23.19.36.28v-1.6Zm.52 2.53v1.45c.1-.03.22-.07.32-.14.18-.12.32-.3.32-.6 0-.12-.08-.26-.27-.44a3.2 3.2 0 0 0-.37-.27Z" fill="#324A30"/><path fill="#FDFEFD" d="M13 26h2v2h-2zM15 28h2v2h-2zM17 30h2v2h-2zM32 27h2v2h-2zM34 29h2v2h-2zM36 31h2v2h-2z"/><path d="M30 27h-4v2h-1v1.06h-2V32h-2v1h12v-1h-2v-3h-1v-2ZM24.34 42.9a5.69 5.69 0 0 1-1.8-2.2 11.66 11.66 0 0 1-6.05-7.63H15V31h-2v-3h-1v-.03.18c0 7.17 5.27 13.18 12.34 14.74ZM44 28.14c0 7.34-5.53 13.47-12.87 14.85a5.7 5.7 0 0 0 1.84-2.07 11.68 11.68 0 0 0 6.53-7.86h.5V31h1v-1h2v-3.64h.9c.06.59.1 1.18.1 1.79ZM28 13c-7.7 0-14.13 5.14-15.66 12h8.64c-.37-.32-.68-.74-.68-1.26a2.05 2.05 0 0 1 1.92-2.04V21h.86v.8c.64.18 1.58.7 1.58 2.1h-.97c0-.93-.25-1.1-.61-1.26V25h8.9c-.37-.32-.68-.74-.68-1.26a2.05 2.05 0 0 1 1.92-2.04V21h.86v.8c.64.18 1.58.7 1.58 2.1h-.97c0-.93-.25-1.1-.61-1.26V25h9.57C42.13 18.14 35.7 13 28 13Zm-5.78 9.48-.1.02c-.54.13-.96.61-.96 1.24 0 .23.13.46.46.73.17.14.37.28.6.41v-2.4Zm10.9.02.1-.02v2.4a4.95 4.95 0 0 1-.6-.41c-.33-.27-.46-.5-.46-.73 0-.63.42-1.11.95-1.24Zm-16-3.36a6.09 6.09 0 0 1 5.46-2.1c.26.04.45.3.42.58-.04.28-.28.48-.54.45a5.17 5.17 0 0 0-4.62 1.76.46.46 0 0 1-.68.04.54.54 0 0 1-.04-.73Zm16.3-2.1a6.09 6.09 0 0 1 5.46 2.1c.17.21.16.54-.04.73-.2.19-.5.17-.68-.04a5.17 5.17 0 0 0-4.62-1.76c-.26.03-.5-.17-.54-.45-.03-.28.16-.54.42-.57Z" fill="#FEE030"/></svg>