<svg width="112" height="112" viewBox="0 0 56 56" xmlns="http://www.w3.org/2000/svg"><path d="M28 13a15 15 0 1 1 0 30 15 15 0 0 1 0-30Zm0 4a11 11 0 1 0 0 22 11 11 0 0 0 0-22Z" fill="#fff"/><path d="M28 20a8 8 0 1 1 0 16 8 8 0 0 1 0-16Zm0 4a4 4 0 1 0 0 8 4 4 0 0 0 0-8Z" fill="url(#a)"/><circle cx="37.5" cy="37.5" r="3.5" fill="#EBEBEB"/><defs><linearGradient id="a" x1="23.21" y1="21.46" x2="33.43" y2="34.01" gradientUnits="userSpaceOnUse"><stop stop-color="#fff"/><stop offset="1" stop-color="#8C8C8C"/></linearGradient></defs></svg>