<svg width="112" height="112" viewBox="0 0 56 56" xmlns="http://www.w3.org/2000/svg"><rect fill="#F0F3FA" width="56" height="56" rx="28"/><circle cx="28" cy="28" r="17" fill="#1B131C"/><path d="m28.6 12.17-1.28.02a.27.27 0 0 0-.27.28l.01.82c0 .15.13.27.28.27l1.3-.02c.14 0 .26-.13.26-.28l-.01-.82a.27.27 0 0 0-.28-.27ZM15.7 36.56l-.74-1.06a.27.27 0 0 0-.38-.06l-.68.47a.27.27 0 0 0-.06.38l.74 1.06c.09.12.26.15.38.06l.67-.47a.27.27 0 0 0 .07-.38ZM13.24 28.55l.02-1.29a.27.27 0 0 0-.26-.28l-.82-.01a.27.27 0 0 0-.28.26l-.03 1.3c0 .15.12.27.27.27l.82.02c.15 0 .28-.12.28-.27Z" fill="#E45BEB"/><path d="M34.42 15.32c.38.17.57.4.56.71 0 .1-.04.2-.12.27-.16.16-.3.39-.42.68a.22.22 0 0 0 .34.25c.19-.15.39-.44.6-.89a.33.33 0 0 1 .36-.18c.44.09 4.1 2.73 4.4 4.74a.49.49 0 0 1-.11.39c-.16.18-.65.26-.85.55a.53.53 0 0 0-.1.5c.02.01-.02.05-.1.1-.06-.16-.18-.12-.35.13l-.17-.26c.2-.12.22-.31.06-.58a11.26 11.26 0 0 0-3.18-3.36 12.38 12.38 0 0 0-11.26-1.85c-.92.27-1.64.66-2.14 1.16-.1.1-.2.18-.34.23-.1-.08-.17-.1-.24-.06-1.7.94-3 2.27-3.9 4l-.11.17a2.76 2.76 0 0 1-1.57-.9.36.36 0 0 1-.06-.38c.47-1 1.13-1.89 1.97-2.67l.55-.55a4.9 4.9 0 0 1 1.84-1.27.36.36 0 0 1 .4.09l.07.12c.08.21.27.46.57.75a.23.23 0 0 0 .23.05h.01a.25.25 0 0 0 .15-.35c-.26-.54-.8-1.1-.06-1.6 4.31-1.98 8.6-1.6 12.97.01Z" fill="#5ECBEC"/><path d="M36.69 14.7c-.06.35-.2.66-.42.93a.45.45 0 0 1-.42.15c-.36-.05-.68-.2-.95-.43a.4.4 0 0 1-.09-.48c.06-.28.14-.48.24-.63a.37.37 0 0 1 .39-.15c.46.1.87.31 1.25.61ZM21.15 14.9c-.1.4-.43.71-1 .93a.39.39 0 0 1-.39-.06 1.6 1.6 0 0 1-.53-.96c.13-.16.3-.3.48-.41.32-.2.5-.3.55-.31.3-.07.59.2.89.8Z" fill="#E45BEB"/><path d="m38.46 22.3-.2-.42a.75.75 0 0 0-1.2.25c-.13.32-.1.62.1.89-.06 0-.1 0-.14.02a.17.17 0 0 0-.1.08.18.18 0 0 0-.02.11c0 .05.02.1.03.14-.24-.12-.5-.1-.8.07-1.3.7-3.14 1.6-5.48 2.67-.11.05-.2.13-.26.22l-.1.17-1.04.55a.55.55 0 0 1-.4.04c-.32-.08-.64-.1-.94-.04a5.82 5.82 0 0 1-.97-2.1.12.12 0 0 0-.05-.06.1.1 0 0 0-.07-.02l-.15.02a.08.08 0 0 0-.06.04.1.1 0 0 0-.02.08l.44 1.53-2.03-.66c.16-.28.12-.5-.1-.66a586.25 586.25 0 0 0-3.4-2.26.24.24 0 0 0-.19.05.25.25 0 0 0-.06.07l-.1.16a.2.2 0 0 0-.02.15c0 .05.04.1.08.13l2.36 1.87-5.22-2.17c.44-.2.62-.47.53-.78-.19-.64-.66-.84-1.42-.58a9.52 9.52 0 0 1 3.9-4.01c.07-.04.15-.02.25.06-.3.26-.35.54-.13.82.37.5.83.5 1.35 0a.36.36 0 0 0 .06-.44c-.3-.55-.62-.75-.95-.61.5-.5 1.22-.89 2.14-1.16 4.07-1.21 7.83-.6 11.26 1.85 1.35.97 2.4 2.08 3.18 3.36.16.27.14.46-.06.58Z" fill="#2A2046"/><path d="M28.2 16.15h-.61a.33.33 0 0 0-.33.33v.64c0 .18.15.32.34.32h.6c.19 0 .33-.15.33-.33v-.64a.33.33 0 0 0-.33-.32ZM21.6 17.91c.13-.05.24-.13.34-.23.33-.14.65.06.95.61a.35.35 0 0 1-.06.44c-.52.5-.98.5-1.35 0-.22-.28-.17-.56.13-.82ZM33.18 17.74a.3.3 0 0 1 .39-.18l.24.1c.22.08.41.22.53.38.11.17.15.35.1.5l-.06.15a.46.46 0 0 1-.15.2.66.66 0 0 1-.25.12 1.25 1.25 0 0 1-.66-.05l-.24-.1a.3.3 0 0 1-.17-.38l.27-.74Z" fill="#C8FBCA"/><path d="M14.47 17.82c.06.04-.17.5-.69 1.37-.52.87-.8 1.29-.86 1.26-.06-.04.17-.5.7-1.36.51-.88.8-1.3.85-1.27Z" fill="#2A2046"/><path d="M28.69 20.92c-.16-.3-.55-.46-1.2-.5-.03-.01-.07 0-.1.02-.16.1-.23.32-.2.64l-.35-.93a.91.91 0 0 1 .3-1.03.86.86 0 0 1 1.05 0c.09.07.28.16.56.26a.36.36 0 0 1 .24.37c-.03.45-.13.84-.3 1.17ZM14.13 20.04l.18-.4c.5-.03.9.14 1.23.52a.37.37 0 0 1 .03.42l-.48.84a.4.4 0 0 1-.55.15l-.57-.33a.38.38 0 0 1-.17-.2.37.37 0 0 1 .01-.27l.32-.73ZM42.08 20.69a.28.28 0 0 1-.13.37l-.56.27c-.18.08-.4.1-.58.05a.66.66 0 0 1-.41-.35l-.07-.15a.66.66 0 0 1 0-.54.82.82 0 0 1 .4-.42l.55-.26a.28.28 0 0 1 .38.13l.42.9Z" fill="#E45BEB"/><path d="M28.68 20.92c-.18.42-.4.65-.65.68-.45.06-.73-.11-.84-.52-.03-.32.04-.54.2-.64a.19.19 0 0 1 .1-.03c.65.05 1.04.21 1.2.5ZM41.84 24.19l.57 3c.02.08.06.15.12.2.07.05.14.08.22.08h.98a.34.34 0 0 1 .34.34v.5c0 .11-.05.22-.13.3a.43.43 0 0 1-.3.12h-.93a.33.33 0 0 0-.23.09.34.34 0 0 0-.1.22 15.33 15.33 0 0 1-1.38 5.4.3.3 0 0 0 .12.37l.84.48a.18.18 0 0 1 .07.25l-.57.99a.21.21 0 0 1-.35.03 2 2 0 0 0-.58-.48.37.37 0 0 0-.26-.03.36.36 0 0 0-.22.15c-.66 1.01-1.86 2.22-3.62 3.64-.24.2-.3.46-.17.76.16.36.18.6.07.75-.19.25-.5.43-.91.53a.3.3 0 0 1-.21-.03.31.31 0 0 1-.15-.16c-.1-.26-.21-.45-.33-.57a.38.38 0 0 0-.43-.07 15.49 15.49 0 0 1-4.86 1.47.38.38 0 0 0-.2.08.39.39 0 0 0-.11.18.84.84 0 0 0-.02.4c.02.1 0 .22-.05.32a.5.5 0 0 1-.25.21.65.65 0 0 1-.67-.15c-.26-.25-.34-.52-.23-.83a.37.37 0 0 1 .36-.27h.13a.12.12 0 0 0 .1-.03.13.13 0 0 0 .04-.1l-.17-1.12a.32.32 0 0 0-.6-.1c-.26.56-.3 1.03-.1 1.41.04.07.06.15.06.24-.02.36-.1.63-.25.8a.5.5 0 0 1-.45.17.42.42 0 0 1-.21-.1.4.4 0 0 1-.12-.2 1.54 1.54 0 0 1 0-.6.28.28 0 0 0-.05-.2.27.27 0 0 0-.18-.12l-1.77-.35c-.29-.3-.59-.37-.91-.2L21.67 41a.27.27 0 0 0-.19-.02.28.28 0 0 0-.15.1l-.61.84c-.46-.1-.83-.32-1.1-.68a.36.36 0 0 1 .01-.44c.14-.17.21-.34.24-.49a.46.46 0 0 0-.18-.45c-1.23-.89-5.9-4.42-6.04-10.8l.03-1.48c.1.13.26.27.5.43-.19.03-.3.11-.34.24v.1c.02.04.04.06.07.08.85.55 1.25.43 1.2-.35.11-.04.26-.03.46.02.25 4.28 2.13 8.07 5.78 10.44h.22c-.1.08-.1.15.02.22 1.3.7 2.58 1.2 3.85 1.52a10 10 0 0 0 4.1.14c4-.68 7-2.6 9.02-5.72 1.04-1.6 1.6-3.67 1.68-6.2l1.46.26h.04l.33-.25a.18.18 0 0 0-.06-.32 1.96 1.96 0 0 0-1.27.08.27.27 0 0 1-.36-.17l-.16-.6a14.48 14.48 0 0 0-1.24-5.07c.08-.04.12-.08.1-.1l1.32-.8a.33.33 0 0 1 .47.17l.97 2.49Z" fill="#E45BEB"/><path d="m38.46 22.3.17.27c-.47.64-.97.79-1.48.45a.86.86 0 0 1-.08-.89.75.75 0 0 1 1.19-.25l.2.43Z" fill="#C8FBCA"/><path d="M17.16 22.19c.05.3.04.4-.03.3-.85 1.52-1.31 3.15-1.37 4.9 0 .05 0 .09.03.12l.1.08a.6.6 0 0 0-.05.3c-.15 0-.24.07-.27.21-.2-.05-.35-.06-.46-.02-.19-.22-.5-.25-.94-.07-.23-.16-.4-.3-.49-.43l.28-2.65.83-2.67a.73.73 0 0 1 .82-.5c.12.02.23.06.32.13.3.22.7.32 1.23.3Z" fill="#5ECBEC"/><path d="M18.35 23.22a2.2 2.2 0 0 1-1.22-.72c.07.09.08-.02.03-.31l.19-.17.1-.16c.77-.26 1.24-.06 1.43.58.09.31-.09.57-.53.78Z" fill="#C8FBCA"/><path d="M17.13 22.5c.37.4.78.64 1.22.72l5.22 2.17c.27.24.56.44.86.62.12.06.22.08.3.05.1-.04.18-.1.27-.18l1.33 1.9a.18.18 0 0 1-.16.29c-1.1-.06-2.23-.14-3.37-.25-1.4-.14-1.87.72-2.51 1.73a.26.26 0 0 1-.3.1l-1.8-.58a.32.32 0 0 0-.33.06c-.6.52-1 1.14-1.17 1.85-.18.09-.26.15-.24.2.1.2.26.3.49.26-.07.24-.06.46.02.67a.3.3 0 0 0 .16.17.28.28 0 0 0 .23-.02l.17-.1a.16.16 0 0 1 .12-.01.16.16 0 0 1 .1.08l.06.11a.14.14 0 0 1-.07.19c-.5.24-.63.57-.42.98-.1 0-.24.04-.44.12-.75-1.77-1.19-3.6-1.3-5.53.03-.14.12-.2.27-.2-.05.3-.01.51.11.66.04.05.1.08.16.09.34.04.59.04.75 0a.63.63 0 0 0 .45-.59.6.6 0 0 0-.44-.59c-.27-.08-.6-.04-.98.12a.44.44 0 0 1-.1-.08.16.16 0 0 1-.03-.12c.06-1.75.52-3.38 1.37-4.9Z" fill="#211B2F"/><path d="M25 25.88a.73.73 0 0 1-.27.18c-.08.03-.18.01-.3-.05-.3-.18-.59-.38-.86-.62l-2.36-1.87a.23.23 0 0 1-.08-.13.2.2 0 0 1 .02-.15l.1-.16a.25.25 0 0 1 .15-.12.24.24 0 0 1 .2.04l3.3 2.22c.22.16.26.38.1.66ZM36.93 23.37c.15.28.08.48-.19.6-1.95.92-3.89 1.87-5.8 2.86-.27.13-.49.02-.65-.33l.1-.17c.06-.1.15-.17.26-.22a99.26 99.26 0 0 0 5.49-2.67c.3-.16.55-.19.79-.07ZM27.9 27.05l.43.48a.29.29 0 0 1 .02.36.7.7 0 0 1-.45.32.3.3 0 0 1-.21-.04.28.28 0 0 1-.12-.18 4.46 4.46 0 0 0-.54-1.45l-.44-1.53a.1.1 0 0 1 .02-.08.09.09 0 0 1 .06-.04l.15-.02a.1.1 0 0 1 .07.02c.03.01.04.04.05.06.19.78.51 1.48.96 2.1Z" fill="#E45BEB"/><path d="M40.04 27.6c.15.51.1.86-.1 1.04-.42.04-.71.05-.88.03a.6.6 0 0 1-.13-1.15c.32-.13.7-.1 1.11.08ZM15.84 27.9a.6.6 0 0 1 .05-.3c.38-.17.71-.2.98-.13a.6.6 0 0 1 .44.6.62.62 0 0 1-.45.58c-.16.04-.41.04-.75 0a.24.24 0 0 1-.16-.1c-.13-.14-.16-.36-.11-.65Z" fill="#C8FBCA"/><path d="M29.92 29.2c-.23-.62-.25-1.12-.07-1.52a.22.22 0 0 1 .25-.12.21.21 0 0 1 .16.21v1.36a.18.18 0 0 1-.34.07Z" fill="#E45BEB"/><path d="m40.22 27.5.16.6a.27.27 0 0 0 .36.17c.4-.16.83-.19 1.27-.08a.18.18 0 0 1 .06.32l-.33.24-.02.01h-.02l-1.46-.25c-.05.11-.15.16-.3.13.2-.18.24-.53.1-1.04.07-.01.13-.04.18-.1Z" fill="#2A2046"/><path d="M28.39 28.5h-.02a.18.18 0 0 0-.07.25l4.16 7.56c.05.09.16.12.24.07h.02a.18.18 0 0 0 .07-.25l-4.16-7.56a.18.18 0 0 0-.24-.07Z" fill="#E45BEB"/><path d="M17.3 33.51c.34-.3.65-.45.93-.44a.63.63 0 0 1 .33 1.16c-.16.1-.38.18-.67.23-.1.02-.21 0-.3-.06-.28-.2-.38-.5-.28-.89ZM38.48 33.47l-.7-.38a.36.36 0 0 0-.5.14l-.23.43c-.1.18-.03.4.15.5l.7.38c.17.1.39.03.49-.14l.23-.43c.1-.18.03-.4-.14-.5Z" fill="#C8FBCA"/><path d="M15.92 35.46c.11-.4.37-.66.77-.77a.18.18 0 0 1 .15.32l-.76.56a.1.1 0 0 1-.16-.05.1.1 0 0 1 0-.06Z" fill="#2A2046"/><path d="m40.16 35.73-1.09-.63a.17.17 0 0 1 .13-.32c.49.15.83.44 1.04.87a.06.06 0 0 1-.05.09l-.03-.01Z" fill="#1B131C"/><path d="M21.57 38.55h-.22c-.1-.46 0-.84.3-1.13a.73.73 0 0 1 .9-.1.8.8 0 0 1 .37.84c-.03.14-.16.33-.38.56a.35.35 0 0 1-.39.08l-.58-.25ZM33.66 37.27l-.48.21a.44.44 0 0 0-.22.58l.22.5c.1.22.36.32.58.22l.48-.21c.22-.1.32-.36.22-.58l-.22-.5a.44.44 0 0 0-.58-.22Z" fill="#C8FBCA"/><path d="M30 38.54c-.43.32-.89.35-1.38.08a.8.8 0 0 0-.5-.1l-1.9.29a.3.3 0 0 1-.24-.07.3.3 0 0 1-.1-.23v-.37a.3.3 0 0 1 .3-.3h3.6a.39.39 0 0 1 .22.7Z" fill="#5ECBEC"/><path d="m28.11 38.85-.41.03a.42.42 0 0 0-.39.44l.05.61c.01.23.21.4.44.39l.41-.03c.23-.02.4-.22.39-.44l-.04-.61a.42.42 0 0 0-.45-.39Z" fill="#C8FBCA"/><path d="M21.5 39.13c.06.5-.11.9-.53 1.16a.2.2 0 0 1-.28-.26l.55-.96a.14.14 0 0 1 .23-.02l.04.08Z" fill="#2A2046"/><path d="m35.08 39.64.27.44a.22.22 0 0 1-.23.27c-.19-.02-.36-.15-.52-.4-.16-.26-.2-.48-.14-.65a.22.22 0 0 1 .25-.13c.03 0 .06.02.1.04l.27.43Z" fill="#1B131C"/><path d="M26.62 40.04c-.36-.03-.63-.1-.79-.2a.23.23 0 0 1-.1-.26.24.24 0 0 1 .22-.18c.3-.02.57.07.82.26a.21.21 0 0 1-.15.38ZM30.13 39.88l-.86.13a.2.2 0 0 1-.24-.2v-.12a.21.21 0 0 1 .21-.22h.85a.2.2 0 0 1 .04.41Z" fill="#5ECBEC"/></svg>