<svg width="224" height="224" viewBox="0 0 56 56" xmlns="http://www.w3.org/2000/svg"><path d="M37 16H13c0 1.98 3 4 5 4h19.64c2.4 0 4.57 1.25 5.36 2v-.09A5.96 5.96 0 0 0 37 16Z" fill="#FEF0C8"/><path d="M13 19.55c.79.82 2.95 2.45 5.35 2.45h18.67c3.3 0 5.98 2.78 5.98 6.35v.1c-.79-.82-2.95-2.45-5.35-2.45H18.98c-3.3 0-5.98-2.78-5.98-6.35v-.1Z" fill="#FEF0C8"/><path d="M25.44 25A2.48 2.48 0 0 0 23 27.52V46c1.97 0 4-3 4-5.03V28.1c0-1.18.86-2.13 2-2.13V25h-3.56ZM34.75 25v1c-1.09 0-1.75.9-1.75 2.05v12.7c0 2-2.11 4.4-4 4.96-.57.1-1.82.29-2.25.29.75-.8 2.25-2.96 2.25-5.25V27.48c0-1.37 1.05-2.48 2.34-2.48h3.41Z" fill="#FEF0C8"/></svg>