<svg xmlns="http://www.w3.org/2000/svg" width="112" height="112" viewBox="0 0 56 56"><rect fill="url(#akpdywu1v)" width="56" height="56" rx="28"/><path d="M16 17h-4v14a8 8 0 008 8h1a8 8 0 008-8V17h-4v13.5a4.5 4.5 0 11-9 0V17zm15 6h4v15h-4z" fill="#fff"/><path d="M39.5 22.5A5.5 5.5 0 0034 28v10h1v-9a3 3 0 116 0v9h4V28a5.5 5.5 0 00-5.5-5.5z" fill="#fff"/><defs><linearGradient id="akpdywu1v" x1="28" y1="0" x2="28" y2="56" gradientUnits="userSpaceOnUse"><stop stop-color="#5079DD"/><stop offset="1" stop-color="#3E3BAC"/></linearGradient></defs></svg>