<svg width="224" height="224" viewBox="0 0 56 56" xmlns="http://www.w3.org/2000/svg"><path d="M45 28c0 2.25-.43 4.42-1.3 6.5a16.87 16.87 0 0 1-9.2 9.2 16.84 16.84 0 0 1-13 0 16.87 16.87 0 0 1-9.2-9.2 16.84 16.84 0 0 1 0-13 16.87 16.87 0 0 1 9.2-9.2 16.84 16.84 0 0 1 13 0 16.87 16.87 0 0 1 9.2 9.2c.87 2.08 1.3 4.25 1.3 6.5Z" fill="#101A07"/><path d="M42.1 36.49a6.52 6.52 0 0 1 .01-1.73c.13-.9-.27-1.51-1.18-1.83-.3-.1-.93-.39-1.9-.87-.59-.29-1.36-.6-2.32-.93-.3-.1-.37-.3-.23-.58a.42.42 0 0 1 .13-.17l.1-.07c.24-.17.4-.3.47-.41a.7.7 0 0 0 .1-.62.38.38 0 0 0-.09-.17l-.32-.34a.48.48 0 0 1-.11-.17 2.9 2.9 0 0 0-.62-.99c-.05-.05-.05-.1 0-.14.56-.42.99-.72 1.3-.92.23-.13.39-.31.48-.54.06-.13.1-.34.14-.62.05-.33.11-.55.2-.68.06-.1.06-.2 0-.29a1.07 1.07 0 0 1-.23-.73.23.23 0 0 0-.04-.15l-.86-1.14a4.9 4.9 0 0 1-1.25-1.39.25.25 0 0 1-.05-.18c.18-1.2.16-2.17-.08-2.93a4.1 4.1 0 0 0-1.84-2.25 7.79 7.79 0 0 0-3.1-1.11c-.12-.02-.3-.14-.58-.38-.1-.1-.39-.14-.82-.12-.06 0-.1.01-.15.03-.34.14-.58.22-.71.23-1.41.1-2.47.26-3.17.45a6.27 6.27 0 0 0-2.68 1.48 7 7 0 0 0-1.97 3.42.36.36 0 0 1-.11.19A13.62 13.62 0 0 0 17.59 24c-.7 1.39-.96 2.7-.78 3.9.03.22.23.75.6 1.6.03.07.07.13.13.19l.93.83c.1.09.1.17 0 .24-.14.1-.3.2-.47.26-1.13.43-2.32.72-3.59.89-.33.04-.53.22-.6.52-.21 1-.4 2-.54 3.03-.24-.4-.4-.73-.5-.97A16.9 16.9 0 0 1 12 23.75a16.33 16.33 0 0 1 5.96-8.9 16.4 16.4 0 0 1 13.7-2.98 16.43 16.43 0 0 1 11.1 8.63 16.72 16.72 0 0 1 .56 13.83c-.52 1.27-.92 1.99-1.22 2.16Z" fill="#F0F3FA"/><path d="m42.1 36.49-.1.35a.86.86 0 0 0-.25-.54l-.1-.62c.18-.47.25-.94.19-1.4-.07-.58-.35-.9-.82-.97-.16-.09-.3-.14-.42-.15a2.53 2.53 0 0 0-.56-.38c-1.1-.49-2.35-.97-3.72-1.45a.28.28 0 0 0-.19 0l-.27.2a1.5 1.5 0 0 1-.39.19.9.9 0 0 0-.58.5.34.34 0 0 0-.02.2l.15.95c.02.11-.03.18-.15.21l-1.13.3c-.18-.01-.27-.06-.26-.16a3.5 3.5 0 0 0 1.12-.3.28.28 0 0 0 .17-.3l-.05-.56c-.01-.05-.04-.1-.09-.13a.16.16 0 0 0-.16 0l-2.32 1.04-1.73.27a.3.3 0 0 0-.23.16l-1.13 1.97c-.06.1-.03.15.08.17.53.1.79.37.79.8 0 .4-.2.74-.6 1-.1.06-.14.12-.16.18 0 .05 0 .15.04.29l.04.27-.05 1.5c0 .13.02.25.08.35.02.05.06.08.12.1.05.03.08.08.07.14-.02.36-.11.7-.27 1.04.06-.37.02-.68-.14-.92-.16-.26-.2-.8-.12-1.63l.02-.29c.01-.12-.02-.27-.1-.46-.08-.22-.1-.4-.07-.52.03-.1.03-.2 0-.3-.36-.91-1-1.58-1.97-1.98-.08-.04-.15-.02-.2.06-.04.08-.03.15.05.2.42.34.7.55.83.64a3 3 0 0 1 .9 1.25 6 6 0 0 0 .2.4c.03.06.03.12 0 .18-.2.37-.49.63-.9.78a5.4 5.4 0 0 1-1.23.23.27.27 0 0 1-.21-.06l-1.5-1.23a6.97 6.97 0 0 0-2-.4c-.3.05-.59.2-.88.44a.2.2 0 0 0-.06.23c.03.1.1.14.2.14h.18a2.14 2.14 0 0 1 .68.12c1.11.38 1.77.73 1.97 1.06.02.03.02.06-.01.08-.03.03-.06.03-.09.01-1.63-1.05-2.64-1.3-3.03-.73a.32.32 0 0 0-.05.27c.02.1.08.17.16.22l.45.23c.81.4 1.35.8 1.61 1.17a27.67 27.67 0 0 1 .86 1.23l1.47.95c-.76-.1-1.45-.4-2.05-.9-.05-.04-.1-.04-.16 0-.45.37-.7.85-.74 1.46 0 .06.02.11.07.16.13.12.3.21.47.27l-1.86-.64.93-.84c.06-.05.1-.11.14-.18.15-.33.43-.54.84-.66.15-.04.19-.13.13-.27a2.32 2.32 0 0 0-.66-.9 5.03 5.03 0 0 0-.88-.53c-.34-.16-.6-.3-.77-.42a.23.23 0 0 0-.24 0 .23.23 0 0 0-.14.19c-.03.23.05.41.23.56.4.3.6.49.61.56.01.03 0 .05-.02.06-.02.02-.04.02-.06 0-.36-.23-.6-.44-.7-.62a.16.16 0 0 0-.18-.08.17.17 0 0 0-.15.13 4.9 4.9 0 0 0-.02 2.57c-.16-.03-.33-.1-.5-.2.06.02.11.02.14 0 .04-.03.05-.07.03-.13-.2-.75-.17-1.47.08-2.17.06-.18.1-.3.09-.35-.01-.13-.08-.17-.2-.13l-2.65.87c-.02 0-.04 0-.04-.02l-.02-.06c-.02-.06 0-.1.06-.12l1.79-.59a.2.2 0 0 0 .13-.13.2.2 0 0 0-.02-.18c-.43-.73-.7-1.17-.79-1.35-.18-.35-.78-1.6-1.78-3.78-.04-.1-.02-.17.08-.23l1.18-.68a.1.1 0 0 0 .05-.1.1.1 0 0 0-.07-.1l-1.03-.36c-.13-.04-.17-.13-.12-.25.21-.56.45-1.04.72-1.44l.02-.1c0-.09-.04-.12-.12-.1l-3.47.85c-.2.05-.28.17-.23.37L16 39.4l-.62-.69c.08-.19.06-.48-.07-.87-.23-.72-.48-1.98-.76-3.78a3.2 3.2 0 0 0-.35-1.09c-.02-.04-.06-.06-.1-.05a.1.1 0 0 0-.09.08l-.36 1.76v.03c.02.4-.04.8-.18 1.16l-.2-.48c.16-1.03.34-2.04.55-3.03.07-.3.27-.48.6-.52 1.27-.17 2.46-.46 3.6-.9.17-.06.32-.14.45-.25.1-.07.1-.15.01-.24l-.93-.83a.55.55 0 0 1-.13-.19c-.37-.85-.57-1.38-.6-1.6a6.51 6.51 0 0 1 .78-3.9c.9-1.8 1.91-3.18 3.03-4.16.05-.05.1-.12.11-.2a7 7 0 0 1 1.97-3.4 6.27 6.27 0 0 1 2.68-1.49c.7-.2 1.76-.34 3.17-.45.13-.01.37-.09.7-.23.05-.02.1-.03.16-.03.44-.02.71.02.82.12.27.24.46.36.58.38 1.13.16 2.16.53 3.1 1.11a4.1 4.1 0 0 1 1.84 2.25c.24.76.26 1.73.08 2.93 0 .06 0 .12.04.18a4.9 4.9 0 0 0 1.26 1.39l.86 1.14c.03.04.05.1.05.15-.02.26.05.5.21.73.07.1.07.19 0 .29-.08.13-.14.35-.19.68-.04.28-.08.49-.14.62-.1.23-.25.4-.48.54-.31.2-.74.5-1.3.92-.05.04-.05.09 0 .14.3.34.5.66.62.99.02.06.06.12.1.17l.33.34c.05.05.08.1.1.17a.7.7 0 0 1-.1.62 2.1 2.1 0 0 1-.58.48c-.06.05-.1.1-.13.17-.14.28-.06.47.23.58.96.33 1.73.64 2.32.93.97.48 1.6.77 1.9.87.91.32 1.3.93 1.18 1.83a6.52 6.52 0 0 0 0 1.73Z" fill="#273816"/><path d="M24.47 17.24c0-.03 0-.06-.04-.07l-.12-.04-.78 2.36c-.03.1-.1.14-.2.14l-2.06-.09c-.12 0-.16-.06-.12-.18A6.11 6.11 0 0 1 25 15.2a.57.57 0 0 1 .2-.04 6.58 6.58 0 0 0 2.08-.38l2.01-.2h.1l2.04.33a141.4 141.4 0 0 1 1.72.69 3.68 3.68 0 0 1 2.21 2.33c.19.57.22 1.4.1 2.52a.2.2 0 0 1-.14.18.2.2 0 0 1-.22-.05l-.15-.16a.72.72 0 0 0-.23-.16 13 13 0 0 0-3.5-1.06 14.34 14.34 0 0 0-4.2.06l-3.12.45a.18.18 0 0 1-.17-.06.18.18 0 0 1-.04-.19l.78-2.22Z" fill="#258C7C"/><path d="M28.63 16.18c-.03-.02-.04-.05-.02-.09.02-.03.05-.05.09-.04.35.1.65.26.92.5.17.16.42.45.76.89l.06.08c.05.06.11.08.19.05l.14-.04c.06-.02.09-.06.1-.12 0-.07-.04-.1-.1-.13-.22-.07-.4-.17-.52-.28-.23-.2-.31-.43-.25-.68.05-.25.23-.43.52-.53.38-.14.73-.1 1.03.12.31.23.4.55.27.98-.03.09 0 .13.1.11l1.07-.16c.03 0 .05-.02.08-.04.1-.1.2-.12.3-.03a.1.1 0 0 1 .03.12c-.02.05-.05.07-.1.07h-.42a.1.1 0 0 0-.05 0l-.97.36-.2.1c-.07.03-.18.15-.33.33-.19.23-.34.39-.46.47a.83.83 0 0 1-.68.13.19.19 0 0 1-.15-.14 3.73 3.73 0 0 0-1.4-2.03Z" fill="#E8F9FB"/><path d="M31.17 16.87c0 .04-.03.06-.07.05l-.23-.05a.4.4 0 0 1-.25-.14.3.3 0 0 1-.06-.26v-.02a.3.3 0 0 1 .16-.21.4.4 0 0 1 .28-.05l.24.05c.03 0 .05.03.04.07l-.1.56ZM33.2 19.9c.08.02.1.06.09.13-.01.06-.05.09-.1.08a7.74 7.74 0 0 0-3.43.25c-1.09.33-1.94.56-2.57.67-.6.12-1.22.1-1.83-.06a2.6 2.6 0 0 1-1.55-.95.09.09 0 0 1 0-.1.09.09 0 0 1 .07-.05c.57 0 1.25-.06 2.05-.2 1.53-.28 2.81-.39 3.85-.34 1.03.06 2.17.24 3.43.57Z" fill="#258C7C"/><path d="m23.29 26.94-.17-.5c.1 0 .16-.05.15-.12a.07.07 0 0 0-.03-.05l-.42-.3a.26.26 0 0 0-.16-.05c-.74 0-1.3.26-1.67.78a.64.64 0 0 0-.1.22c-.2.73-.02 1.34.54 1.83a6.23 6.23 0 0 0 1.76 1.14c1.2.48 2.1.8 2.73.95a32.82 32.82 0 0 0 5.62.87c1.29.12 2.23.16 2.84.13.08 0 .14.04.16.12.02.08 0 .13-.08.17a11.48 11.48 0 0 1-3 1.19c-1.5.3-2.98.37-4.44.2-.06 0-.1.03-.11.1l.01.05c.03.08.09.12.17.12h2.67c.03 0 .05.02.07.04v.08c-.4.63-.8 1.34-1.18 2.12-.14.3-.34.34-.6.14l-.23-.19c-.48-.41-.92-.6-1.3-.55-.25.03-.4.03-.46.02a1.9 1.9 0 0 0-.83-.07c-.17.04-.42.17-.73.38-.34.23-.58.47-.72.7a.34.34 0 0 1-.14.15 3.8 3.8 0 0 0-1.08.81l-.43.16c-.12.05-.2.01-.23-.11l-.23-.89a44.87 44.87 0 0 1-1.06-4.68c-.01-.1.03-.12.11-.1l1.81.64c.03 0 .05 0 .07-.03l.01-.05c.02-.06 0-.1-.06-.12-.68-.21-1.54-.6-2.6-1.14a7.39 7.39 0 0 1-2.18-1.67 3.21 3.21 0 0 1-.65-2c-.04-.78.05-1.5.27-2.15.4-1.19 1.12-2.45 2.13-3.79a9.59 9.59 0 0 1 1.62-1.66.27.27 0 0 1 .19-.06l1.65.14c.1 0 .19.04.26.1l1 .82c.06.04.06.1 0 .14l-.48.36c-.04.03-.05.07-.02.1.02.05.05.06.1.04.14-.05.33-.16.55-.32a.27.27 0 0 1 .22-.05l1.17.23c.07.02.11.06.12.14 0 .07-.03.12-.1.14-.55.2-.98.45-1.28.78a5.22 5.22 0 0 1-.6.36c-.24.12-.34.27-.31.47.02.2.16.32.4.39.1.03.2.08.3.15.05.04.08.1.08.17-.01.21.06.44.21.69.04.05.08.1.14.13 1.1.55 1.87.88 2.3.97 1.46.33 2.89.31 4.28-.05.05-.01.08 0 .1.05.03.05.02.09-.03.12-.26.19-.72.3-1.37.34l-.6.04a6.96 6.96 0 0 1-4.58-1.07c-.08-.05-.14-.03-.16.08v.05c-.02.06 0 .1.05.14.74.46 1.5.76 2.3.9.87.15 1.72.25 2.54.29.09 0 .13.04.14.13 0 .08-.03.13-.12.15l-2.52.55c-.03 0-.05.02-.05.05 0 .05.03.07.08.07a7.2 7.2 0 0 0 2.31-.48c.71-.31 1.45-.68 2.22-1.1a.71.71 0 0 1 .5-.08l2.36.46h.18l1.6-.13c.05 0 .09-.02.12-.03.3-.1.58-.17.88-.18.05 0 .09.02.1.07.02.05 0 .1-.04.12-.09.06-.23.13-.43.23-.49.24-.76.47-.83.67a.24.24 0 0 1-.17.17c-.48.14-.97.22-1.45.24-.67.02-1.11-.12-1.32-.4a.1.1 0 0 1 0-.11.1.1 0 0 1 .09-.05l2.41.1.01-.01v-.09c.01-.08-.03-.12-.11-.12a8.34 8.34 0 0 1-3.5-.67c-.07-.03-.12-.01-.15.05-.02.06 0 .1.04.14l1.57 1.28a4.61 4.61 0 0 0 1.94-.04.4.4 0 0 1 .4.12c.26.26.46.56.59.9.05.13.02.24-.1.31-.62.37-1.28.54-2.01.53-1.73-.02-3.1-.14-4.1-.35l-2.02-.4a17.2 17.2 0 0 1-4.9-1.77ZM34.89 21.14c.04.02.05.05.03.1-.02.04-.05.05-.1.04a4.9 4.9 0 0 0-3.53.27c-.1.06-.2.04-.26-.05a2.34 2.34 0 0 0-.93-.72.1.1 0 0 1-.06-.1.1.1 0 0 1 .06-.1 4 4 0 0 1 1.72-.28 5.67 5.67 0 0 1 3.07.83ZM27.7 21.23c-.03-.01-.04-.03-.04-.05 0-.03.01-.05.04-.05.5-.1 1-.21 1.54-.34.3-.07.65.03 1.04.3.33.23.59.5.79.83.03.05.03.1-.02.15-.04.05-.09.06-.15.03-.79-.33-1.5-.55-2.13-.65-.44-.06-.8-.14-1.07-.22Z" fill="#5D7E21"/><path d="M36.75 22.47c.04 0 .07 0 .08.04.03.03.02.06-.02.08-.17.07-.3.1-.38.08a9.51 9.51 0 0 0-1.93-.25 5.12 5.12 0 0 0-1.97.27.24.24 0 0 0-.17.23v.14c0 .09.03.1.1.06.42-.26.87-.4 1.36-.43a6.29 6.29 0 0 1 3.78.77c.05.04.06.08.04.14-.03.05-.07.07-.13.05-1.1-.38-2.3-.56-3.58-.53-.65.01-1.3.2-1.93.54-.09.04-.16.03-.22-.03-.07-.07-.08-.14-.03-.22l.13-.23a.16.16 0 0 0-.01-.19l-.48-.62a.4.4 0 0 1-.07-.37.4.4 0 0 1 .25-.29 4.9 4.9 0 0 1 3.4-.12c.15.08.38.18.69.29.52.18.88.38 1.1.6Z" fill="#5D7E21"/><path d="m25 23.21.03.05c.02.02.03.03.06.02.47-.19.97-.3 1.5-.33 1.09-.08 1.97-.07 2.64.01.92.12 1.71.39 2.37.82.05.04.07.09.05.15-.02.07-.07.1-.14.09-1.5-.13-2.89-.18-4.15-.13-.17 0-.53-.04-1.06-.15a8.22 8.22 0 0 0-1.49-.19c-.32 0-.6-.07-.85-.24a.18.18 0 0 1-.08-.17c.01-.07.05-.12.11-.15.35-.16.72-.42 1.12-.8.1-.09.2-.16.32-.22a6.03 6.03 0 0 1 2.18-.44l.72.09c.67.08 1.15.17 1.45.28l1.2.45c.06.02.12.07.17.13l.45.57c.08.1.07.2-.04.27-.06.04-.14.04-.24 0l-.3-.13c-.41-.18-.76-.3-1.03-.34a13.05 13.05 0 0 0-3.9-.1c-.35.04-.7.16-1.05.34-.05.03-.07.07-.04.12ZM31.97 23.77l.24-.07a6.86 6.86 0 0 1 1.78-.33c1.22-.02 2.33.13 3.33.44.26.08.43.25.52.51l.05.15c.03.1 0 .18-.07.25a.22.22 0 0 1-.24.05 5.64 5.64 0 0 0-1.58-.36l-1.2-.1c-.7-.07-1.26-.11-1.68-.12h-.01l-1.12-.2c-.06-.02-.1-.05-.1-.1 0-.07.03-.1.08-.12Z" fill="#5D7E21"/><path d="M31.59 24.47c.01.3-.13.55-.41.77-.24.18-.52.3-.86.37a7.16 7.16 0 0 1-4.58-.62 4.6 4.6 0 0 1-.7-.38 1.38 1.38 0 0 1-.43-.55.13.13 0 0 1 .01-.14.13.13 0 0 1 .13-.06l1.64.19c.08 0 .12.05.1.13l-.04.43c-.01.1.02.18.09.25.4.37.86.57 1.36.58.53.02.97-.18 1.31-.6a.23.23 0 0 0 .05-.13l.04-.36c.02-.16.12-.24.28-.22l1.9.22c.07 0 .1.05.11.12Z" fill="#EFEBCC"/><path d="M28.3 24.23c-.14-.01-.26.06-.27.15 0 .1.1.19.23.2.14.02.25-.05.26-.15.01-.1-.09-.18-.22-.2ZM35.48 24.61c.74 0 1.44.13 2.1.4.08.03.13.1.15.17.02.08 0 .16-.04.23-.13.17-.31.3-.54.37a7.94 7.94 0 0 1-5.4-.36c-.12-.04-.15-.12-.1-.22.12-.29.18-.5.16-.67-.01-.12.04-.18.17-.18l.45.02c.16 0 .22.09.2.24-.09.55.17.91.77 1.07.47.12.9.12 1.28 0 .49-.15.72-.46.69-.94 0-.08.03-.13.11-.13Z" fill="#EFEBCC"/><path d="M34.43 24.63c-.14-.01-.26.06-.27.15 0 .1.12.17.26.18.15 0 .27-.07.27-.16 0-.1-.1-.17-.26-.18Z" fill="#EFEBCC"/><path d="m23.12 26.44.17.5c-.46-.06-.84.05-1.17.35-.04.04-.04.08 0 .12l.05.03c.02.02.05.02.06 0 .28-.36.64-.4 1.09-.17.39.22.99.5 1.8.83.47.2 1.1.38 1.88.56l3.4.75c1.63.3 3.21.37 4.73.2.45-.05.85-.18 1.19-.4.21-.15.41-.13.6.05.08.08.11.16.1.26a.3.3 0 0 1-.13.24c-.42.31-.72.48-.9.52-1.06.23-1.92.3-2.6.24-.9-.1-1.45-.15-1.67-.16-1.7-.12-3.5-.43-5.42-.92a9.72 9.72 0 0 1-2.28-.78c-.34-.2-.76-.5-1.27-.88-.03-.02-.06-.02-.1 0-.03.02-.04.05-.03.1.04.1.12.2.26.3.9.69 1.98 1.18 3.26 1.49l1.83.42c.6.12 1.22.2 1.86.26.32.03.78.1 1.38.2 1.57.28 3.14.28 4.7 0 .1-.02.16.02.19.12.2.78-1.11 1.07-3.95.87a47.38 47.38 0 0 1-5.08-.66 16.26 16.26 0 0 1-4.88-1.79 2.49 2.49 0 0 1-1.07-1.24c-.17-.52-.09-.96.24-1.33.05-.05.1-.09.17-.11l.24-.1a2 2 0 0 1 .66-.2c.23 0 .46.1.7.33Z" fill="#875B1B"/><path d="M20.03 32.87c-.02-.03-.05-.03-.07-.01l-.82.58a.19.19 0 0 1-.18.03l-1.15-.4a.2.2 0 0 1-.13-.12.2.2 0 0 1 .01-.18c.3-.55.54-1.03.7-1.42.03-.11.19-.25.45-.42a.24.24 0 0 1 .27-.01l1.1.63c.07.05.11.12.11.21 0 .3.07.77.2 1.38.05.24.42 1.72 1.12 4.43a.5.5 0 0 1 0 .27c-.09.3-.13.6-.13.92 0 .07-.02.13-.07.2l-.56.8a.23.23 0 0 1-.14.08.65.65 0 0 1-.6-.14c-.1-.08-.22-.26-.37-.52a5.28 5.28 0 0 1-.43-.81c-.4-.97-.75-1.7-1.04-2.2a4.95 4.95 0 0 1-.3-.64 4.1 4.1 0 0 0-.37-.74.24.24 0 0 1-.04-.2.24.24 0 0 1 .13-.17c.82-.4 1.59-.89 2.3-1.45.04-.03.04-.06.01-.1Z" fill="#258C7C"/><path d="M20.5 42.8a11.47 11.47 0 0 1-2.18-1.35c-.22-.2-.59-.48-1.1-.87-.4-.29-.8-.68-1.23-1.19l-1.65-6.87c-.05-.2.03-.32.23-.37l3.47-.85c.08-.02.12.01.12.1 0 .05 0 .09-.02.1-.27.4-.5.88-.72 1.44-.05.12 0 .2.12.25l1.03.36a.1.1 0 0 1 .07.1.1.1 0 0 1-.05.1l-1.18.68c-.1.06-.12.13-.08.23 1 2.17 1.6 3.43 1.78 3.78l.8 1.35a.2.2 0 0 1 .01.18.2.2 0 0 1-.13.13l-1.8.59c-.05.02-.07.06-.05.12l.02.06c0 .02.02.03.04.02l2.65-.87c.12-.04.19 0 .2.13 0 .05-.03.17-.1.35-.25.7-.27 1.42-.07 2.17.02.06 0 .1-.03.13-.03.02-.08.02-.14 0ZM40.6 33.16l-1.28 1.17a.33.33 0 0 1-.07.04c-.26.13-.56.2-.9.2-1.55.02-3 0-4.33-.06-.22 0-.42-.13-.6-.37-.04-.06-.03-.11.03-.16s.16-.09.3-.1l1.12-.3c.12-.03.17-.1.15-.21l-.15-.96a.34.34 0 0 1 .02-.2.9.9 0 0 1 .58-.5c.17-.05.3-.12.39-.18l.27-.2a.28.28 0 0 1 .2 0c1.36.48 2.6.96 3.7 1.45.16.07.35.2.57.38Z" fill="#258C7C"/><path d="M33.48 33.72c-.34.12-.68.11-1-.02-.04-.02-.07 0-.09.03l.05.07.72.58c.05.04.07.09.04.15-.02.05-.07.08-.13.07a2.36 2.36 0 0 0-1.51.27c-.34.18-.52.48-.54.89-.02.34-.03 1.17-.02 2.49 0 .13-.05.24-.15.32-.34.26-.7.73-1.1 1.42l-.22.38a.15.15 0 0 1-.16.07h-.09a.64.64 0 0 1-.08-.36l.05-1.5-.04-.27a.79.79 0 0 1-.04-.3c.01-.05.06-.1.15-.17.4-.26.6-.6.6-1 0-.43-.25-.7-.78-.8-.11-.02-.14-.08-.08-.17l1.13-1.97a.3.3 0 0 1 .23-.16l1.73-.27 2.32-1.04c.06-.03.11-.03.16 0s.08.08.09.13l.05.55a.28.28 0 0 1-.17.3c-.3.15-.68.26-1.12.3ZM15.37 38.7a12.9 12.9 0 0 1-1.9-2.76 2.9 2.9 0 0 0 .17-1.2L14 33a.1.1 0 0 1 .09-.08c.04 0 .08.01.1.05.17.3.29.67.35 1.09.28 1.8.53 3.06.76 3.78.13.4.15.69.07.87Z" fill="#258C7C"/><path d="M41.02 33.3c-.33.04-.76.37-1.3.98 0 .02-.02.03-.03.04a.18.18 0 0 0-.03.2c.03.06.08.1.15.11.78.1 1.2.55 1.27 1.36 0 .07.05.12.12.13.26.03.4-.11.44-.44l.11.62c-.64.4-.82.98-.53 1.77l-1.47 1.63-2.9.01a.17.17 0 0 0-.17.13l-.84 2.42c-.03.1-.1.17-.19.2l-.11.06a.08.08 0 0 1-.1-.01.08.08 0 0 1-.01-.1l.88-2.55a.16.16 0 0 0-.02-.15.16.16 0 0 0-.13-.07h-.1c-.14 0-.23.07-.28.2l-.21.61a.23.23 0 0 1-.13.14 2.1 2.1 0 0 1-.78.2c-1.54.04-3 .03-4.38-.04-.04 0-.07-.03-.07-.07v-.07c0-.04.02-.06.06-.06h4.35c.3 0 .54-.11.72-.34l.12-.15a.23.23 0 0 0 .04-.25.22.22 0 0 0-.22-.15c-.64-.02-1.38-.01-2.24.01a14.82 14.82 0 0 1-2.16-.17.56.56 0 0 0-.19-.04.32.32 0 0 0-.2.1c-.34.32-.56.65-.66 1-.05.16 0 .28.17.34l5.13 2c-.16.09-.22.13-.19.13L34 42.8h-.04l-4.09-1.65c-.09-.03-.14 0-.16.09a12.88 12.88 0 0 1-1.25 3.3l-2.03-.05c.18-.04.3-.18.35-.44a.15.15 0 0 0-.06-.16.16.16 0 0 0-.17-.03c-.38.16-.5.36-.39.58l-.81-.1.3-.04c.04 0 .07-.03.1-.06l.38-.47c.1-.13.1-.25-.03-.35l-.28-.23a.25.25 0 0 0-.21-.05.25.25 0 0 0-.18.13c-.11.21-.21.44-.3.68-.06.18-.01.3.14.36l-1.45-.24a1.25 1.25 0 0 1-.47-.27.18.18 0 0 1-.07-.16c.05-.6.29-1.09.74-1.45.05-.05.1-.05.16 0 .6.49 1.29.79 2.05.89.62.3 1.13.7 1.54 1.2.06.08.13.1.22.1.1-.02.16-.07.2-.15l1.02-2.52c.16-.33.25-.68.27-1.04 0-.06-.02-.1-.07-.14a.21.21 0 0 1-.12-.1l.1.01c.06.01.12-.01.15-.07l.22-.38c.4-.69.76-1.16 1.1-1.42.1-.08.15-.2.15-.32-.01-1.32 0-2.15.02-2.5.02-.4.2-.7.54-.88.48-.26.98-.35 1.51-.27.06 0 .1-.02.13-.07.03-.06.01-.11-.04-.15l-.72-.58a.13.13 0 0 1-.05-.07c.02-.04.05-.05.09-.03.32.13.66.14 1 .02-.01.1.08.15.26.16a.56.56 0 0 0-.3.1c-.05.05-.05.1-.01.16.17.24.37.36.6.37 1.32.06 2.77.08 4.32.06.34 0 .64-.07.9-.2a.34.34 0 0 0 .07-.04l1.28-1.17c.12.01.26.06.42.15Z" fill="#1C4F50"/><path d="M41.02 33.3c.47.07.75.4.82.98.06.46 0 .93-.2 1.4-.04.33-.18.47-.44.44-.07-.01-.12-.06-.12-.13-.07-.8-.5-1.26-1.27-1.36a.17.17 0 0 1-.15-.12.18.18 0 0 1 .03-.2l.04-.03c.53-.61.96-.94 1.29-.97Z" fill="#258C7C"/><path d="M27.8 38.51c.03-.1.03-.19.01-.27a2.72 2.72 0 0 0-.96-1.44 9.4 9.4 0 0 0-1.7-1c-.03-.02-.05-.06-.05-.1a.1.1 0 0 1 .07-.1l.11-.04a.5.5 0 0 1 .39.03c.76.38 1.31.71 1.64 1 .3.27.56.6.76.97.28.53.26.9-.06 1.1a.13.13 0 0 1-.16 0c-.05-.04-.07-.08-.05-.15Z" fill="#5D7E21"/><path d="m29.2 41.71-1.03 2.52a.23.23 0 0 1-.19.14.23.23 0 0 1-.22-.08c-.41-.5-.92-.9-1.54-1.21l-1.47-.95a4.43 4.43 0 0 0-2.46-2.4l-.46-.23a.32.32 0 0 1-.16-.22c-.03-.1-.01-.19.05-.27.39-.57 1.4-.32 3.03.73.03.02.06.02.09 0 .03-.03.03-.06.01-.1-.2-.32-.86-.67-1.97-1.05h-.01a2.14 2.14 0 0 0-.67-.11h-.19a.2.2 0 0 1-.2-.15.2.2 0 0 1 .07-.23c.3-.25.59-.39.89-.43a6.97 6.97 0 0 1 2 .4l1.49 1.22c.06.05.13.07.21.06h.04a5.4 5.4 0 0 0 1.2-.23c.4-.15.7-.41.89-.78a.18.18 0 0 0 0-.18 6 6 0 0 1-.2-.4 3 3 0 0 0-.9-1.25l-.83-.64c-.08-.05-.09-.12-.04-.2.05-.08.11-.1.2-.06.95.4 1.6 1.07 1.95 1.99.04.1.04.2.01.3-.04.12-.01.29.07.5.08.2.11.35.1.47l-.02.29c-.08.83-.04 1.37.12 1.63.16.24.2.55.14.92Z" fill="#5D7E21"/><path d="M32.55 35.83c.6-.02 1.04 0 1.31.08.48.12.72.39.71.8 0 .4-.16.67-.47.82-.19.09-.52.15-1 .18-.07.01-.11.05-.11.13v.4c0 .14-.08.22-.23.22h-.15c-.13 0-.2-.07-.2-.2v-2.29c0-.1.05-.14.14-.14ZM37.74 37.86c.39.1.74.13 1.06.06.09-.02.14-.07.15-.16 0-.09-.03-.15-.1-.18l-.17-.08c-.45-.2-.75-.37-.9-.52-.29-.26-.31-.55-.09-.87.16-.22.45-.32.86-.3.36 0 .66.08.91.22.05.02.07.05.07.1 0 .09-.05.16-.13.21a.3.3 0 0 1-.26.05c-.31-.08-.57-.1-.78-.07-.09.01-.14.06-.16.15-.01.09.02.15.1.2l.27.14c.36.2.6.34.73.46.23.19.32.39.27.59-.13.55-.74.73-1.83.55-.14-.03-.21-.11-.21-.26v-.13c0-.05.02-.1.07-.13.04-.04.09-.05.14-.03ZM35.97 35.83c.35 0 .7 0 1.06.04.06 0 .1.03.12.07.03.05.03.1.02.14l-.01.02c-.04.11-.1.17-.22.18l-.59.04c-.1.01-.14.07-.12.17.02.08.04.61.05 1.58 0 .25-.1.38-.3.38-.22 0-.32-.13-.32-.38.02-.97.03-1.5.06-1.58.02-.1-.02-.16-.12-.17l-.6-.04a.23.23 0 0 1-.21-.18v-.02a.15.15 0 0 1 0-.14.15.15 0 0 1 .13-.07c.35-.04.7-.05 1.05-.04Z" fill="#E8F9FB"/><path d="M27.64 38.74c-.04.08-.14.16-.31.23a.22.22 0 0 1-.24-.04.22.22 0 0 1-.07-.24c.09-.33-.02-.63-.33-.91-.93-.86-1.75-1.28-2.44-1.27a.15.15 0 0 1-.15-.1.15.15 0 0 1 .03-.17c.24-.25.5-.33.78-.25 1.5.48 2.42 1.32 2.76 2.54.02.07.01.14-.03.21ZM28.51 36.57c-.03-.05-.02-.1.03-.12l.03-.02c.18-.1.37-.15.57-.12.19.03.33.12.42.26l.02.04c.08.15.1.31.03.5a.84.84 0 0 1-.38.43l-.03.02c-.05.03-.1.02-.12-.03l-.57-.96Z" fill="#5D7E21"/><path d="M32.96 36.52c-.01-.12.04-.18.15-.19l.17-.02c.17-.02.31.01.44.08s.2.17.21.29v.06c.02.12-.03.23-.14.32-.1.1-.24.16-.41.18l-.17.01c-.11.02-.17-.03-.18-.14l-.07-.6Z" fill="#1C4F50"/><path d="M41.75 36.3c.15.15.23.33.25.54l-.78 1.23c-.29-.79-.11-1.38.53-1.77Z" fill="#258C7C"/><path d="M26.76 38.96c-.14.15-.3.19-.5.12a.38.38 0 0 1-.16-.11c-.4-.48-.8-.82-1.22-1.05a4.35 4.35 0 0 0-1.39-.37l-.47-.07a.1.1 0 0 1-.08-.08.1.1 0 0 1 .03-.1c.73-.65 1.52-.74 2.37-.27.9.5 1.4 1.06 1.5 1.69.01.09-.01.17-.08.24Z" fill="#5D7E21"/><path d="M30.99 38.9c.04-.02.08 0 .1.03.11.16.1.28-.02.36a.23.23 0 0 1-.25.01c-.08-.04-.1-.1-.08-.18.02-.07.1-.15.25-.22ZM39.75 39.7a14.08 14.08 0 0 1-4.62 3.2l-5.13-2c-.16-.06-.22-.18-.17-.35.1-.34.31-.67.65-1a.32.32 0 0 1 .2-.09c.05 0 .12.01.2.04l.19.05a14.83 14.83 0 0 0 1.97.12c.86-.02 1.6-.03 2.24 0 .1 0 .17.04.22.14.04.09.03.17-.04.25l-.12.15a.88.88 0 0 1-.72.34h-4.35c-.04 0-.06.02-.06.06v.07c0 .04.03.07.07.07 1.38.07 2.83.08 4.38.03.25 0 .5-.07.78-.19.06-.03.1-.07.13-.14l.2-.6c.06-.14.15-.2.3-.2h.09c.05 0 .1.01.13.06.04.05.04.1.02.15l-.88 2.56c-.02.03 0 .06.02.09.02.02.05.02.09 0l.11-.04c.1-.04.16-.11.19-.2l.84-2.43a.17.17 0 0 1 .17-.13h2.9Z" fill="#258C7C"/><path d="M21.95 43.43c-.4-.1-.71-.24-.94-.43a4.9 4.9 0 0 1 .02-2.57.17.17 0 0 1 .15-.13c.08-.02.14.01.18.08.1.18.34.39.7.62.02.02.04.02.06 0a.05.05 0 0 0 .02-.05 2.37 2.37 0 0 0-.61-.57.57.57 0 0 1-.23-.56c.01-.1.06-.16.14-.2a.23.23 0 0 1 .24.01c.18.12.43.26.77.42.41.2.7.38.88.52.28.23.5.54.66.91.06.14.02.23-.13.27-.41.12-.7.33-.84.66a.54.54 0 0 1-.14.18l-.93.84Z" fill="#5D7E21"/><path d="M34.94 43.03c-2 .98-4.17 1.48-6.49 1.51.59-1.1 1-2.2 1.25-3.3.02-.1.07-.12.16-.09l4.1 1.64a.2.2 0 0 0 .03.01l.95.23ZM25.34 44.35a.2.2 0 0 0-.08-.04c-.15-.05-.2-.18-.14-.36.09-.24.19-.47.3-.68.04-.07.1-.11.18-.13.08-.02.15 0 .21.05l.28.23c.13.1.14.22.03.35l-.38.47a.16.16 0 0 1-.1.06l-.3.05ZM26.42 44.49l-.27-.05c-.12-.22.01-.42.39-.58a.16.16 0 0 1 .17.03c.05.04.07.1.06.16-.05.26-.17.4-.35.44Z" fill="#258C7C"/></svg>