<svg width="224" height="224" viewBox="0 0 56 56" xmlns="http://www.w3.org/2000/svg"><path d="M29.49 11.07a8.41 8.41 0 0 0-1.5 2.06 4.19 4.19 0 0 0-.48 1.39c-.06.37-.1.63-.14.79-.06.25-.14.47-.24.66-.15.29-.37.63-.64 1.03-.2.3-.47.8-.8 1.5-.3.62-.6 1.26-.88 1.9a.19.19 0 0 0-.03.17c0 .04.03.05.06.05h.26c.06 0 .08.03.08.08 0 .2.05.35.15.46a1 1 0 0 0 .44.22c.05.02.06.05.05.1a1.1 1.1 0 0 1-.45.58 3.3 3.3 0 0 1-.67.3l-.08.02c.05-.14.12-.27.22-.39a.12.12 0 0 0 .02-.07v-.18c0-.06-.02-.08-.08-.08-.26.02-.47.03-.65.02a.6.6 0 0 0-.28.06.93.93 0 0 0-.24.14c-.03.03-.08.12-.14.27l-.15.28c-.04.06-.13.2-.3.41a.05.05 0 0 0 0 .06c.01.02.03.03.05.03h1.06a.1.1 0 0 0 .06-.03l.15-.12.15-.17-.41.5c-.02.01-.04.02-.07 0-.23-.1-.46-.13-.69-.1a.91.91 0 0 0-.6.35.07.07 0 0 0 0 .07 1.65 1.65 0 0 0 .45.7c.28.3.34.63.17.97-.19.4-.32.75-.4 1.03 0 .03 0 .05.03.07h.02c.03.02.05.02.07 0 .17-.2.26-.31.28-.36.13-.27.24-.47.32-.6.13-.2.28-.37.45-.5l.42-.35a3.26 3.26 0 0 0 .57-.77c.06-.1.17-.24.32-.43.17-.22.29-.38.34-.47.05-.1.16-.36.31-.79.04-.09.22-.38.55-.89.02-.02.04-.03.06 0 .2.16.28.38.27.64 0 .23-.05.41-.13.54-.2.35-.35.61-.42.8l-.1.46.2-.9c0-.02 0-.02-.02-.02l-.02.01c-.1.35-.18.7-.26 1.05-.01.07-.08.22-.2.44a.15.15 0 0 1-.06.05c-.35.2-.64.43-.86.69a.12.12 0 0 0-.03.07l.01.2c.01.06.07.1.15.15.14.06.24.08.3.07a3.4 3.4 0 0 1 1.42-.06c.32.16.37.2.15.16-.3-.07-.61-.08-.93-.02a.48.48 0 0 0-.21.09l-.19.14c-.17.12-.34.2-.52.21.06-.03.1-.08.12-.13 0-.03 0-.05-.03-.07a1.25 1.25 0 0 0-.58-.27c-.13-.02-.28.01-.45.1l-.52.3c-.34.2-.6.49-.8.86a.06.06 0 0 1-.05.03c-.07 0-.13-.05-.19-.13a.11.11 0 0 1-.01-.09l.1-.49c.16-.38.24-.77.24-1.17 0-.04-.01-.06-.05-.06h-.05a.06.06 0 0 0-.06.03c-.06.1-.18.38-.36.8-.07.16-.14.24-.23.26a2.73 2.73 0 0 0-.58.17l-.03-.01c-.02-.02-.03-.04 0-.06l.13-.15c.26-.28.39-.5.4-.65 0-.42.04-.84.09-1.27 0-.03 0-.11-.04-.24a17.86 17.86 0 0 1-.62 1.05c-.14.26-.24.45-.28.59-.13.4-.3.79-.51 1.17-.08.15-.13.3-.16.43-.1.7-.16 1.12-.16 1.23l.05 1.65c.07.95.28 1.87.6 2.75a10 10 0 0 1-1.49-.05 2.64 2.64 0 0 1-1.77-.82 3.58 3.58 0 0 1-.78-1.8c-.4-2.25-.33-4.35.23-6.28l.49-1.61c.12-.4.29-1.03.5-1.87.26-1 .46-1.76.63-2.25l.93-2.79c.23-.69.4-1.36.52-2.03 0-.03.02-.05.05-.06l1.15-.55c.04-.02.05-.05.02-.08l-.01-.03c2.51-1 5.12-1.39 7.82-1.15Z" fill="#7E7C6F"/><path d="M29.49 11.07c2.21.2 4.31.8 6.3 1.82.3.32.52.6.63.83.16.32.2.66.14 1.03l-.12.6c-.1.5-.17.89-.2 1.16l-.2 1.84a438 438 0 0 1-.2 1.92 6.61 6.61 0 0 0 1.44 5.06l2.05 2.72c.71.97 1.61 1.7 2.7 2.17l2.62 1.19c-.3 1.46-.78 2.86-1.45 4.19a42.83 42.83 0 0 0-2.35-.79c-.7-.2-1.17-.31-1.42-.36-1.28-.24-2.57-.5-3.86-.78.2-.38.35-.67.43-.89.38-1.06.6-2.14.64-3.26l.04-.69c.02-.23.01-.46-.01-.7-.04-.24-.02-.48.04-.72v-.09a1.15 1.15 0 0 0-.28-.41l-.04-.05a.9.9 0 0 1-.14-.25l-.4-1a6.66 6.66 0 0 0-.32-.74 4.43 4.43 0 0 1-.32-.75 1.78 1.78 0 0 0-.26-.56 2.66 2.66 0 0 0-.43-.45.65.65 0 0 1-.14-.16 1.05 1.05 0 0 1-.1-.17 3.24 3.24 0 0 1-.07-.4 1 1 0 0 0-.1-.37c-.1-.17-.22-.33-.34-.48a1.48 1.48 0 0 0-.46-.3l-.1-.06a.7.7 0 0 1-.3-.32 2.25 2.25 0 0 0-.37-.54c-.2-.18-.4-.3-.6-.35-.25-.06-.6-.08-1.06-.07h-1.17c-.51.02-1.12.03-1.84.03-.35 0-.73-.03-1.13-.09a4.53 4.53 0 0 0-.76-.07c-.43.07-.82.29-1.17.65l.87-1.91c.34-.7.6-1.2.8-1.5.28-.4.5-.74.65-1.03.1-.2.18-.41.24-.66a10.98 10.98 0 0 0 .16-.92c.05-.37.2-.8.45-1.26.4-.76.9-1.45 1.5-2.06Z" fill="#868573"/><path d="M21.2 32.44c.18.26.3.56.37.9.08.37.12.67.12.93-1.17-.22-2.34-.41-3.5-.59a7.85 7.85 0 0 1-2.13-.61 3.69 3.69 0 0 1-2.09-2.48c-.13-.47-.2-.88-.23-1.23a21.5 21.5 0 0 1 .66-7.18l.8-3.04c.17-.63.29-1.45.36-2.48 0-.03.01-.05.03-.08.35-.4.7-.77 1.05-1.1.13-.13.14-.18.02-.14a16.9 16.9 0 0 1 5-3.12l.02.03c.03.03.02.06-.02.08l-1.15.55a.08.08 0 0 0-.05.06c-.12.67-.3 1.34-.52 2.03l-.94 2.8c-.16.48-.36 1.23-.62 2.24-.21.84-.38 1.46-.5 1.87l-.49 1.61a13.64 13.64 0 0 0-.23 6.28c.14.77.4 1.37.78 1.8.43.47 1.02.74 1.77.82a10 10 0 0 0 1.5.05Z" fill="#767568"/><path d="M35.78 12.89a16.97 16.97 0 0 1 8.87 18.52l-2.62-1.19c-1.09-.48-1.99-1.2-2.7-2.17-.76-1.03-1.44-1.93-2.05-2.72a6.61 6.61 0 0 1-1.44-5.06 438 438 0 0 0 .4-3.76 16.36 16.36 0 0 1 .32-1.76c.06-.37.02-.71-.14-1.03a3.6 3.6 0 0 0-.64-.83Z" fill="#8E8C7A"/><path d="M21.69 34.27a24 24 0 0 1-.03.9c-.05.41-.09.9-.12 1.45 0 .09-.06.15-.17.18-.3.13-.52.19-.66.17a.34.34 0 0 1-.18-.1c-.12-.11-.2-.18-.27-.2-.33-.17-.76-.34-1.28-.53a5.79 5.79 0 0 1-.75-.34 8.95 8.95 0 0 0-3.4-1 1.48 1.48 0 0 1-.5-.11 9.8 9.8 0 0 0-1.13-.57 12.2 12.2 0 0 1-1.26-.53 16.92 16.92 0 0 1-.59-9.03 16.81 16.81 0 0 1 5.31-9.22c.12-.04.11 0-.02.14-.35.33-.7.7-1.05 1.1a.13.13 0 0 0-.03.08 12.86 12.86 0 0 1-.36 2.48l-.8 3.04a21.5 21.5 0 0 0-.66 7.18c.03.35.1.76.23 1.23a3.69 3.69 0 0 0 2.1 2.48c.62.29 1.33.5 2.11.61 1.17.18 2.34.37 3.5.59Z" fill="#6D6C5F"/><path d="m25.98 19.76-.49.23a.46.46 0 0 0-.14.1l-.11.15a.1.1 0 0 0-.01.08c0 .03.02.06.05.07l.14.06c.02.01.04.03.03.06-.02.19.05.3.23.36.3.1.56.04.76-.18.23-.25.52-.38.87-.39.02 0 .05.01.07.03.36.42.58.89.67 1.42 0 .03 0 .05-.03.06-.41.25-.76.5-1.04.73-.24.2-.37.43-.4.7-.03.3-.1.56-.24.76h-.05c-.02 0-.02-.02-.01-.03.17-.36.24-.74.23-1.12a.57.57 0 0 0-.11.17c.07-.19.22-.45.42-.8.08-.13.12-.3.13-.54a.77.77 0 0 0-.27-.65c-.02-.02-.04-.01-.06.01-.33.5-.51.8-.55.89-.15.43-.26.69-.31.8l-.34.46a6.27 6.27 0 0 0-.43.6c-.2.3-.35.5-.46.6a7.2 7.2 0 0 1-.42.35c-.17.13-.32.3-.45.5-.08.13-.19.33-.32.6-.02.05-.11.17-.28.36-.02.02-.04.02-.07 0h-.02c-.03-.02-.04-.04-.03-.07.08-.28.21-.63.4-1.03.17-.34.1-.67-.17-.97l-.03-.03c-.12-.12-.2-.22-.25-.29-.06-.1-.12-.22-.18-.38l.01-.07c.16-.2.35-.3.6-.34.23-.04.46 0 .7.1.02 0 .04 0 .06-.02l.4-.5h.02c.05-.07.1-.14.12-.22l.08-.02c.32-.11.54-.21.67-.3.22-.14.36-.34.45-.59.01-.04 0-.07-.05-.09a1 1 0 0 1-.44-.22c-.1-.1-.16-.26-.15-.46 0-.05-.02-.08-.08-.08h-.26c-.03 0-.05-.01-.06-.05a.19.19 0 0 1 .03-.16c.35-.36.74-.58 1.17-.65Z" fill="#AC9892"/><path d="M36.67 28.13c-.21.3-.43.5-.66.62-.28.13-.46.23-.53.28-.2.14-.34.27-.42.4-.09.15-.18.28-.3.39a.1.1 0 0 1-.08.03.1.1 0 0 1-.07-.04.8.8 0 0 1-.13-.29l-.09-.34c-.1-.4-.17-.69-.23-.86-.09-.27-.2-.51-.32-.73-.33-.57-.64-1.04-.92-1.4-.47-.6-.82-1.1-1.06-1.5l-.88-1.43c-.13-.12-.14-.25-.02-.38.03-.03.03-.06 0-.08a3.04 3.04 0 0 0-.74-.47 1.4 1.4 0 0 1-.4-.27c-.13-.12-.23-.2-.3-.24-.13-.07-.23-.08-.32-.04a.76.76 0 0 1-.2.06.26.26 0 0 1-.2-.06 2.6 2.6 0 0 1-.5-.6l-.52-.77a.62.62 0 0 0-.23-.17l-.02-.01a.43.43 0 0 0-.22-.06l-.5.02a.08.08 0 0 0-.06.04l-.31.46c-.2.22-.45.28-.76.18-.18-.05-.25-.17-.23-.36 0-.03 0-.05-.03-.06l-.14-.06a.1.1 0 0 1-.05-.07c-.01-.03 0-.06.01-.08l.11-.14a.46.46 0 0 1 .14-.1l.49-.24a20.54 20.54 0 0 0 .76.07c.4.06.78.1 1.13.1a102.15 102.15 0 0 0 2.4-.04h.61c.46-.01.8 0 1.05.07.2.06.41.17.61.35a2.25 2.25 0 0 1 .4.58.7.7 0 0 0 .27.28l.1.05c.24.12.4.23.47.31.11.15.22.31.32.48.06.1.1.22.12.38.02.2.04.33.06.39 0 .03.04.08.1.17.03.06.08.1.14.16.15.12.3.27.43.45.1.14.2.32.27.56.06.23.17.48.31.75.1.18.2.42.31.74l.4 1c.06.12.1.2.15.25l.04.05c.14.15.24.29.28.41v.09c-.06.24-.07.48-.04.72Z" fill="#D6C4B4"/><path d="M30.97 23.26c.09.37.06.74-.06 1.1-.01.03 0 .05.02.06l.66.4c.22.15.36.27.42.38.3.52.63.96.97 1.31a2.03 2.03 0 0 1 .53.8c.26.85.47 1.65.64 2.42.05.25.07.54.06.85 0 .15 0 .3.04.44.1.47.15.81.13 1.02a62.38 62.38 0 0 1-.16 1.4c-.03.28-.07.49-.11.61a.95.95 0 0 1-.39.5l-.57.44c-.2.19-.33.36-.4.53-.3.87-.51 1.43-.65 1.69a6.2 6.2 0 0 1-.59.76c.1-.2.21-.4.35-.6.08-.12.16-.3.25-.55.04-.12.1-.26.18-.41.1-.17.16-.34.2-.5.1-.4.21-.66.31-.78a145.35 145.35 0 0 1 .96-1.15c.2-.22.32-.47.36-.74.06-.34 0-.62-.17-.83a2.77 2.77 0 0 1-.43-.68l-.18-.43a1.46 1.46 0 0 0-.26-.34h-.02c-.02 0-.02 0-.01.02a2.56 2.56 0 0 1 .4.74l-.02.01h-.02a2.65 2.65 0 0 0-.5-.75 1.02 1.02 0 0 1-.24-.48c-.06-.52-.05-.94.02-1.28.1-.44.14-.76.13-.95-.02-.3-.05-.51-.1-.64-.15-.44-.28-.88-.38-1.34l-.01-.11v-.01h-.04l-.04-.02c-.13-.15-.3-.28-.49-.4a.32.32 0 0 1-.12-.15c-.03-.07-.03-.07.01-.02l.1.15h.03v-.02a.75.75 0 0 1-.12-.2.5.5 0 0 0-.13-.2.76.76 0 0 0-.34-.13.11.11 0 0 1-.07-.03.5.5 0 0 0-.27-.16l-.02-.02.01-.04c.03-.01.07 0 .11.02h.02c-.24-.1-.48-.17-.72-.24a4.8 4.8 0 0 1-.92-.37c-.19-.08-.39.03-.6.35-.33.07-.66.07-1 .01-.35-.07-.55-.1-.62-.1-.3 0-.59.03-.88.12l-.71.15-.02.02.02.01.39-.05c.4-.05.75.07 1.02.38a3.4 3.4 0 0 0-1.43.06c-.05.01-.15-.01-.29-.07-.09-.04-.14-.1-.15-.15a.68.68 0 0 1-.01-.2c0-.03.01-.05.03-.07.22-.26.5-.5.86-.69a.15.15 0 0 0 .06-.05c.12-.22.19-.37.2-.44a16 16 0 0 1 .26-1.05h.03l-.18.9-.23.55v.02h.03c.15-.15.25-.33.29-.54l.11-.65c.01.38-.06.76-.23 1.12V24h.06c.13-.2.21-.45.24-.75.03-.28.16-.51.4-.71.28-.24.63-.48 1.04-.73a.06.06 0 0 0 .03-.06c-.09-.53-.31-1-.67-1.42a.08.08 0 0 0-.07-.03 1.2 1.2 0 0 0-.87.4l.31-.47a.08.08 0 0 1 .07-.04l.49-.02c.08 0 .15.02.22.06l.02.01c.11.06.19.11.23.17l.51.78c.18.27.35.46.5.6.06.04.13.06.2.05.05 0 .11-.02.2-.06.1-.04.2-.03.32.04a2.13 2.13 0 0 1 .38.3c.11.1.22.16.33.21.27.12.52.28.74.47.02.02.03.05 0 .08-.12.13-.12.26.01.38Z" fill="#D3A59D"/><path d="M24.65 21.17v.24c0 .07-.03.1-.1.1-.25 0-.48.04-.7.1-.1.03-.13 0-.07-.1.2-.29.46-.43.8-.42.05 0 .07.03.07.08Z" fill="#AC9892"/><path d="M33.8 22.02c-.03 0-.04.03-.02.07 0 .02 0 .02-.01.01-.01 0-.02 0-.02-.02a.05.05 0 0 0-.04-.03l-.22-.02a.26.26 0 0 0-.2-.16 2.36 2.36 0 0 0-.46-.02.1.1 0 0 0-.08.05.1.1 0 0 0-.02.1l.21.6-.07-.12c-.16-.3-.21-.52-.15-.67a.07.07 0 0 1 .06-.04c.05 0 .1-.02.18-.06a.57.57 0 0 1 .2-.07c.18-.01.34.01.5.08l.05.05c0 .03.04.07.09.12v.02a.2.2 0 0 0 0 .02l-.01-.02h-.03c0 .04 0 .08.04.11Z" fill="#774B4E"/><path d="M24.62 22.38a.57.57 0 0 1-.12.21l.2-.54c.05-.17 0-.24-.19-.2l-.26.04a.5.5 0 0 0-.39.29l-.23.5c-.03.06-.01.1.06.11l.4.08c.06.01.14-.02.25-.1l-.15.13a.1.1 0 0 1-.06.03h-1.06c-.02 0-.04-.01-.05-.03v-.06c.17-.21.26-.35.3-.41.05-.07.1-.17.15-.28.06-.15.11-.24.14-.27a.93.93 0 0 1 .25-.14.6.6 0 0 1 .27-.06c.18 0 .4 0 .65-.02.06 0 .08.02.08.08v.18c0 .03 0 .05-.02.07-.1.12-.17.25-.22.4Z" fill="#5A373C"/><path d="M24.5 22.6h-.01l-.15.18c-.11.07-.19.1-.24.1a55.8 55.8 0 0 0-.41-.09c-.07-.01-.1-.05-.06-.11l.23-.5a.5.5 0 0 1 .39-.3l.26-.04c.18-.03.24.04.18.21l-.2.54Z" fill="#180F0E"/><path d="m33.49 22.03.22.13c.06.04.1.08.1.12.03.05.04.1.04.17 0 .03-.01.05-.03.07-.13.11-.19.28-.19.5 0 .06-.03.1-.09.1-.32-.01-.52-.18-.6-.51l-.2-.61a.1.1 0 0 1 0-.1.1.1 0 0 1 .1-.05c.13 0 .28 0 .45.02.09.02.15.07.2.16Z" fill="#291919"/><path d="M33.8 22.02c.19.3.3.62.32.99a9.76 9.76 0 0 1-.09-.4l-.01.02.02.55c0 .03.01.04.03.03h.03c.04 0 .04 0 0 0l-.13.04c-.58.1-.95-.15-1.1-.77l.07.13c.08.33.28.5.6.5.06 0 .1-.03.1-.09 0-.22.05-.39.18-.5a.09.09 0 0 0 .03-.07.6.6 0 0 0-.03-.17c-.02-.04-.05-.08-.11-.12l-.22-.13.22.02c.02 0 .03.01.04.03 0 .01 0 .02.02.02.01.01.02 0 .01-.01-.02-.04-.01-.06.02-.07Z" fill="#A46768"/><path d="M34.12 23c.08 0 .14.06.18.17 0 .02 0 .05-.02.07-.04.05-.09.07-.15.04v-.02l-.16-.01.13-.04c.04 0 .04 0 0 0h-.03c-.02 0-.03 0-.03-.03a14.87 14.87 0 0 0 0-.56h.01l.07.39Z" fill="#AC9892"/><path d="m26.51 22.85-.11.65c-.04.2-.13.39-.29.54h-.02v-.02l.22-.54.09-.46a.57.57 0 0 1 .11-.17Z" fill="#92807E"/><path d="M36.67 28.13c.02.24.03.47.01.7l-.04.69c-.04 1.12-.26 2.2-.64 3.26-.08.22-.23.51-.43.9a3.45 3.45 0 0 0-.64 1.95c-.38.44-.67.75-.86.94-.35.33-.87.79-1.58 1.36a9.21 9.21 0 0 0-1.7 1.84c-.5.7-.74 1.44-.7 2.2.02.36.09.73.2 1.12.18.65.36 1.2.54 1.67-.68.12-1.37.2-2.05.22l-.34-.43a1.72 1.72 0 0 1-.29-.47c-.1-.3-.07-.6.07-.9l.16-.27c.15-.25.25-.43.29-.55.09-.27.14-.55.16-.86l.08-1.2c.04-.67.3-1.23.79-1.67.2-.19.44-.25.7-.2l.26.06c.27 0 .55-.16.85-.52.33-.38.52-.64.59-.76.14-.26.36-.82.66-1.69.06-.17.19-.34.4-.53a6.42 6.42 0 0 1 .6-.45.95.95 0 0 0 .35-.49 3.15 3.15 0 0 0 .13-.71l.14-1.3a3.6 3.6 0 0 0-.13-1.02c-.04-.14-.05-.3-.04-.44.01-.3 0-.6-.06-.85-.17-.77-.38-1.57-.64-2.41a2.38 2.38 0 0 0-.52-.81A6.45 6.45 0 0 1 32 25.2c-.06-.1-.2-.23-.42-.38l-.66-.4c-.03-.01-.03-.03-.02-.06.12-.36.15-.73.06-1.1l.89 1.43c.24.4.6.9 1.06 1.5.28.36.59.83.92 1.4.12.22.23.46.32.73a13.6 13.6 0 0 1 .31 1.2c.03.11.08.21.14.29a.1.1 0 0 0 .07.04.1.1 0 0 0 .09-.03c.1-.11.2-.24.29-.38.08-.14.22-.27.42-.41.07-.05.25-.15.53-.28.23-.12.45-.32.66-.62Z" fill="#C5B0A1"/><path d="M25.23 25.81c-.19.13-.33.3-.43.5-.07.13-.14.35-.23.66l-.05.17-.21.61c-.12.3-.19.52-.2.63 0 .23-.02.46-.05.7 0 .07-.04.15-.1.25 0 .02-.1.17-.28.46a.6.6 0 0 0-.1.37l.03.18c0 .02 0 .02-.02.01l-.43-.3c-.02-.01-.03 0 0 .02.08.13.14.24.17.34.02.1.02.22-.03.37l-.1.38a1.59 1.59 0 0 1-.45-.39c-.1-.12-.2-.3-.3-.54a.1.1 0 0 0-.06-.06c-.1-.04-.2-.05-.29 0a.06.06 0 0 0-.04.07c.04.32.09.55.16.7.1.2.25.34.47.41l.57.18-.95-.11c-.03 0-.05 0-.07.03a.21.21 0 0 0-.04.17c0 .03.02.05.05.05h.18c.11.04.14.08.09.12a.34.34 0 0 0-.16-.07c-.02 0-.05 0-.07.02a3.2 3.2 0 0 0-.04.06.69.69 0 0 1-.2.2c-.09.04-.18 0-.29-.08a.91.91 0 0 1-.33-.84c.03-.35.05-.68.04-.97 0-.14.11-.3.35-.52l.1-.1c.15-.13.25-.26.31-.38.19-.35.26-.7.22-1.01-.04-.4-.26-.63-.65-.72a.8.8 0 0 0-.3-.03.08.08 0 0 0-.07.05c-.15.32-.24.5-.3.53-.03.03-.07.07-.14.11-.11.08-.2.15-.23.2-.07.1-.1.2-.12.35l-.05 1.1-.04-1.65c0-.11.05-.52.16-1.23.02-.14.08-.28.16-.43.21-.38.38-.77.5-1.17.05-.14.15-.33.3-.58l.59-1.06c0-.02.02-.02.02 0l.04.24c-.05.43-.08.85-.1 1.27 0 .16-.13.37-.39.65l-.14.15c-.02.02-.01.04.01.06l.03.01h.02c.19-.08.38-.14.56-.17.09-.02.16-.1.23-.25.18-.43.3-.7.36-.8a.06.06 0 0 1 .06-.04H23c.04 0 .05.02.05.06 0 .4-.08.79-.24 1.17l-.1.5.01.07c.05.09.11.13.19.14.02 0 .04 0 .06-.03.19-.37.45-.66.8-.86l.5-.3c.18-.09.33-.12.45-.1.23.04.43.13.6.27.02.01.02.04.02.07-.02.05-.06.1-.12.13Z" fill="#6A5959"/><path d="m32.34 26.3-.03.36-.04-.36a.09.09 0 0 0-.02-.06l-.15-.14a.15.15 0 0 0-.06-.04 1.38 1.38 0 0 1-.47-.25l-.3-.31c-.42-.25-.8-.43-1.1-.56-.18-.07-.32-.05-.42.06a.37.37 0 0 0-.09.2l-.04.22.04-.44c0-.03.02-.04.05-.05.35-.1.7-.09 1.06.01.02.01.03 0 .03-.02v-.02c0-.02-.01-.03-.03-.03l-.18-.02a6.3 6.3 0 0 0-1.04-.3c-.26-.04-.53 0-.82.14.21-.32.41-.43.6-.35.08.02.18.07.3.13.25.11.46.2.62.24a13.6 13.6 0 0 1 .71.24h-.01c-.04-.03-.08-.03-.1-.02-.02.01-.03.02-.02.04 0 .01 0 .02.02.02.1.01.18.07.27.16.02.02.04.03.07.03.13.02.24.07.34.14.04.03.08.1.13.2.03.07.07.14.12.2v.01h-.02a2.4 2.4 0 0 0-.1-.15c-.05-.05-.05-.05-.02.02.03.06.07.11.12.15.2.12.36.25.5.4l.03.01h.03v.02l.02.11Z" fill="#774B4E"/><path d="m30.59 24.85.18.02c.02 0 .03.01.03.03v.02c0 .02-.01.03-.03.02-.36-.1-.7-.1-1.06-.01-.03 0-.04.02-.04.05l-.05.44c-.2.22-.36.45-.5.7-.05.08-.1.1-.17.06a.1.1 0 0 1-.04-.06 9.67 9.67 0 0 0-.07-.32.43.43 0 0 0-.18-.27.55.55 0 0 0-.45-.08c-.3.07-.56.1-.77.1l-.36-.16c.22.05.17 0-.15-.16a1.1 1.1 0 0 0-1.02-.38 22.2 22.2 0 0 1-.4.04v-.02l.72-.15c.38-.03.65-.03.8-.01l.93.1c.2.03.54-.02 1.01-.12.12-.03.3-.03.54 0l1.08.16Z" fill="#A46768"/><path d="m31.27 25.5.3.3c.14.12.3.2.47.26.02 0 .05.02.06.04l.15.14.02.06.04.36c-.04.34-.04.67-.01 1 .02.29.03.47.01.55-.03.18-.12.35-.26.5-.18.2-.31.34-.4.42a.25.25 0 0 1-.12.06l.18-.17a.06.06 0 0 0 .02-.07c-.1-.37-.21-.65-.32-.84a1.08 1.08 0 0 0-.64-.53 7.6 7.6 0 0 1-1.25-.45c-.25-.12-.45-.17-.6-.15l-.12.02a2.1 2.1 0 0 1-.56.06c-.21-.03-.4-.15-.55-.38-.27-.4-.36-.77-.25-1.14.21.02.47-.02.76-.09a.55.55 0 0 1 .46.08c.09.06.15.15.17.27l.08.32c0 .03.01.05.04.06.06.04.12.02.16-.06.15-.25.32-.48.5-.7l.05-.22c.02-.1.04-.16.09-.2.1-.1.24-.13.42-.06.3.13.68.31 1.1.56Z" fill="#262120"/><path d="m27.08 25.4.36.14c-.1.37-.02.75.25 1.14.16.23.34.35.55.38a2.1 2.1 0 0 0 .68-.08c.15-.02.35.03.6.15.34.16.76.31 1.25.45.27.08.48.25.64.53.11.19.22.47.32.84 0 .03 0 .05-.02.07l-.18.17c-.48.09-.82.1-1.03.05-.3-.07-.6-.11-.9-.13-.04 0-.04 0-.02.03.04.04.09.07.14.09.22.07.4.17.56.3.03.04.03.04 0 .03l-.46-.14-.02.02v.01l.75.35h.04l.23-.07c.1-.02.19-.06.27-.12.04-.03.04-.04-.02-.03l-.27.04-.02-.02.03-.03.24-.18c0-.02.01-.03.02-.03l.46-.17c.04 0 .09-.02.13-.06-.04.08-.01.13.07.15.16.05.25.13.25.25 0 .14-.04.35-.15.63 0 .05-.01.1-.04.14h-.02l-.02-.03v-.04c.06-.06.08-.12.07-.18 0-.03-.02-.03-.03 0l-.61 1.37a3.2 3.2 0 0 1-1.44 1.16c-.1.05-.1.08.02.1l.35.04c.09.1.2.19.31.26.04.01.04.02 0 .03-.49.04-.78.07-.87.1a.82.82 0 0 1-.43-.06 9.48 9.48 0 0 0-.85-.24.71.71 0 0 1-.26-.17c-.02-.02-.02-.04 0-.06a.24.24 0 0 0 .08-.17c0-.1-.02-.18-.1-.23-.34-.1-.69-.18-1.03-.27a1.04 1.04 0 0 1-.48-.23c-.2-.22-.42-.43-.64-.63a18 18 0 0 0-.37-.53.94.94 0 0 1-.17-.34 4.07 4.07 0 0 1-.06-.4 4.92 4.92 0 0 0 .15.56v-.02c-.03-.28-.09-.56-.16-.83a1.2 1.2 0 0 1-.04-.42v-.3a.64.64 0 0 0-.15-.29c-.24-.3-.32-.65-.22-1.04.06-.2.1-.4.13-.6.04-.26.08-.44.12-.53.06-.15.2-.28.42-.39v-.03c-.03-.01-.06 0-.08.03a.23.23 0 0 1-.06.04l-.03.02h-.02v-.03c.25-.14.4-.26.45-.35l.19-.14a.48.48 0 0 1 .2-.1c.33-.05.64-.04.94.03Z" fill="#180F0E"/><path d="M25.75 25.6c-.06.1-.2.21-.44.35v.02h.01l.03-.01a.23.23 0 0 0 .06-.04c.02-.03.05-.04.07-.03l.02.01-.01.02c-.22.11-.36.24-.42.39-.04.09-.08.27-.12.54-.02.2-.07.4-.13.59.02-.31.08-.66.18-1.05.05-.23.13-.42.23-.58.18-.02.35-.09.52-.2Z" fill="#5A373C"/><path d="M25.23 25.81c-.1.16-.18.35-.23.58-.1.4-.16.74-.18 1.05-.1.4-.02.74.22 1.04.08.1.12.19.14.29.01.06.02.16 0 .3v.12c0 .07.02.17.05.3a7.03 7.03 0 0 1 .16.85l-.02-.01a4.91 4.91 0 0 1-.13-.54l.06.39c.02.1.07.21.17.34l.37.53c.18.29.25.6.2.96-.04.24-.19.39-.45.44-.38.06-.74.1-1.08.1a3.52 3.52 0 0 1-.81-.14 1.5 1.5 0 0 0-.5 0c-.2.02-.35-.04-.45-.17-.1-.15-.18-.3-.23-.45.05-.04.02-.08-.09-.12a.14.14 0 0 0-.08 0 .23.23 0 0 1-.1 0c-.03 0-.05-.02-.05-.05a.21.21 0 0 1 .04-.17.07.07 0 0 1 .07-.03l.95.11.38.27h.03l.09-.19c.01-.02 0-.04-.02-.06l-.54-.4.1-.37a.66.66 0 0 0 .03-.37c-.03-.1-.09-.21-.18-.34-.02-.03-.01-.03.01-.01l.43.3c.02 0 .02 0 .02-.02a1.3 1.3 0 0 1-.03-.18.6.6 0 0 1 .1-.37l.29-.46c.05-.1.09-.18.1-.24l.05-.71c0-.11.07-.32.2-.63a6.36 6.36 0 0 0 .25-.78c.09-.31.16-.53.23-.66.1-.2.24-.37.43-.5Z" fill="#774B4E"/><path d="M32.48 35.9c-.26.36-.6.6-1.02.72-.1.03-.28.15-.53.37-.1.04-.09-.05.04-.27.05-.1.09-.17.1-.24.09-.23.17-.4.27-.5.22-.23.35-.4.39-.51.07-.23.16-.45.25-.68.16-.18.27-.4.32-.66.03-.2.12-.26.28-.19.23.1.41.1.55-.03a.09.09 0 0 0 .03-.08c0-.18-.1-.3-.3-.38l-.32-.1a6 6 0 0 1-.87-.37l-.82-.44a.54.54 0 0 1-.27-.32c-.01-.04 0-.09.02-.13a.17.17 0 0 1 .1-.09c.18-.05.3-.13.34-.22l.06-.1c.09-.16.16-.28.22-.34.1-.12.18-.26.25-.42v-.05c-.03-.06-.05-.05-.05.04.03-.2.09-.38.18-.55.01-.02.03-.02.04 0 .03.03.02.05 0 .04a.63.63 0 0 0-.14.27c-.01.12 0 .12.06.02a.69.69 0 0 0 .07-.29c.07.02.1-.06.1-.24.1-.28.16-.5.15-.63 0-.12-.09-.2-.25-.25-.08-.02-.1-.07-.07-.15l.4-.42c.13-.15.22-.32.26-.5.01-.08 0-.26-.02-.55-.03-.33-.03-.66.01-1l.03-.37c.1.46.23.9.39 1.34.04.13.07.34.09.64.01.2-.03.5-.13.95-.07.34-.07.76-.02 1.28 0 .07.04.15.09.25.05.1.1.17.16.23.2.22.36.46.49.74 0 .01.01.02.02.01h.03v-.01c-.1-.27-.23-.52-.4-.74-.02-.01-.02-.02 0-.02h.02c.1.1.2.22.26.34a4.53 4.53 0 0 1 .22.55c.05.1.18.3.4.56.17.21.22.49.17.83a1.5 1.5 0 0 1-.36.74c-.27.3-.4.46-.4.47l-.56.68c-.1.12-.21.38-.33.77Z" fill="#A46768"/><path d="M22.52 31.8c.05.14.12.3.23.44.1.13.25.19.45.17a2.32 2.32 0 0 1 .66.03 3.52 3.52 0 0 0 1.73 0c.26-.04.4-.19.44-.43.06-.35 0-.67-.19-.96.22.2.43.41.64.63.1.1.25.17.48.23l1.04.27-.88-.17c-.03 0-.05 0-.06.03v.03c0 .02 0 .05.03.06.3.15.62.24.96.28l-.66-.03c-.2 0-.42.02-.66.06a822.23 822.23 0 0 1-1.36.2v-.02h-.02l-1 .12c-.16.01-.3.04-.44.09-.21.06-.4.08-.6.06a2.63 2.63 0 0 1-.6-.14.1.1 0 0 0-.08 0l-.16.1c-.04.01-.04.04-.03.07.22.43.45.8.68 1.08a3.68 3.68 0 0 0 .64.56c.1.07.16.15.2.23a1.9 1.9 0 0 1 .1.32c.08.24.3.48.68.72.28.17.5.35.68.55a1.37 1.37 0 0 0 .44.34c.43.1.81.27 1.16.52a7 7 0 0 0-1.27-.5c-.05-.02-.2-.13-.44-.34-.02-.02-.04-.02-.06 0l-.02.01c-.02.02-.03.04-.01.06.12.2.27.36.44.48.1.08.3.2.56.34l.04.02c.23.12.43.25.61.37.03.02.04.04.04.07.02.26-.06.45-.22.57l-.6.4c-.15.1-.3.28-.46.52a7.02 7.02 0 0 0-.49.88c-.01.03-.03.03-.04 0l-.6-1.03c-.04-.07-.1-.1-.2-.07l-1.27.45a6.97 6.97 0 0 0-1.18.61l-.2.54a5.86 5.86 0 0 0-.23-1.16c-.04-.65 0-1.37.13-2.15.03-.18-.03-.35-.18-.5.11-.04.17-.1.17-.19a29.42 29.42 0 0 1 .15-1.9v-.45c0-.26-.04-.56-.12-.92-.07-.35-.2-.65-.37-.9-.33-.89-.53-1.8-.6-2.76 0-.37.02-.74.04-1.1a.63.63 0 0 1 .12-.34c.04-.06.12-.13.23-.2a3 3 0 0 0 .15-.12c.05-.04.14-.21.3-.53a.08.08 0 0 1 .06-.05c.07-.01.17 0 .3.03.39.09.6.33.65.72a1.72 1.72 0 0 1-.63 1.5c-.24.2-.35.37-.35.5 0 .3 0 .63-.04.98s.08.63.33.84c.1.09.2.12.28.08a.69.69 0 0 0 .2-.2c.03-.02.04-.04.05-.06a.07.07 0 0 1 .07-.02c.05 0 .1.03.16.07Z" fill="#514547"/><path d="m26.03 29.06-.22-.09c.15-.02.3-.02.44.03v.02l-.02.01.45.32-.01.02h-.03a1.65 1.65 0 0 0-.61-.31Z" fill="#291919"/><path d="m25.81 28.97.22.09.22.1c.16.04.16.07 0 .1a.69.69 0 0 1-.3-.08c-.07-.03-.12-.1-.14-.21Z" fill="#39302E"/><path d="m31.53 29.2-.46.16-1.35-.13a.46.46 0 0 1-.14-.1 5.47 5.47 0 0 1 .92.1c.2.06.55.05 1.03-.04Z" fill="#291919"/><path d="M31.07 29.36s-.02.01-.02.03l-.48.2a.07.07 0 0 0-.04.05c0 .03 0 .05.02.07.01.02.04.03.08.03h.19l-.23.07h-.04l-.75-.36v-.01l.01-.02h.01l.45.14c.04.01.04 0 0-.02a1.43 1.43 0 0 0-.55-.31l1.35.13Z" fill="#262120"/><path d="m30.82 29.73-.19.01c-.04 0-.07-.01-.08-.03a.08.08 0 0 1-.02-.07c0-.02.02-.04.04-.05l.47-.2-.23.18c-.02 0-.03.02-.03.03l.01.02.28-.04c.06-.01.06 0 .02.03a.93.93 0 0 1-.27.12Z" fill="#5A373C"/><path d="M31.83 30.16c0 .18-.03.26-.1.24.03 0 .04 0 .01-.04-.01-.02-.03-.02-.04 0-.1.17-.15.35-.18.55l-.35.5.62-1.36c0-.03.02-.03.03 0 0 .06-.01.12-.07.18v.04l.02.03h.02c.03-.05.04-.1.04-.14Z" fill="#39302E"/><path d="m23.2 31.16.54.4c.02 0 .03.03.02.05l-.09.18c0 .02-.02.02-.03.01l-.38-.27-.57-.18a.75.75 0 0 1-.47-.41 2.47 2.47 0 0 1-.15-.7c0-.04 0-.06.03-.07.09-.05.19-.04.3 0a.1.1 0 0 1 .05.06c.1.24.2.42.3.54.1.15.26.27.45.39Z" fill="#514547"/><path d="M31.73 30.4c0 .13-.03.23-.07.3-.06.1-.08.09-.06-.03a.63.63 0 0 1 .13-.27ZM32.3 34.13c-.02-.1 0-.18.05-.24a.07.07 0 0 1 .07-.02l.3.04c.25.03.28-.04.09-.2-.12-.1-.3-.2-.53-.31a9.29 9.29 0 0 0-2.17-.68l-.36-.04c-.11-.02-.12-.05 0-.1a3.2 3.2 0 0 0 1.42-1.16l.35-.51c0-.09.01-.1.05-.04v.05c-.07.16-.15.3-.26.42a2.05 2.05 0 0 0-.27.44c-.05.1-.16.17-.34.22a.17.17 0 0 0-.1.09.17.17 0 0 0-.02.13c.04.14.13.24.27.32l.81.44a6 6 0 0 0 1.19.47c.2.07.3.2.31.38 0 .03 0 .06-.03.08-.14.12-.32.14-.55.03-.16-.07-.26-.01-.29.2Z" fill="#5A373C"/><path d="M28 32.18c.07.05.1.13.09.23h-.04a2.86 2.86 0 0 1-.96-.28.06.06 0 0 1-.04-.06l.01-.03c.01-.03.03-.04.06-.03l.88.17Z" fill="#774B4E"/><path d="M28.05 32.41h.04c0 .06-.03.12-.08.17-.02.02-.02.04 0 .06.11.1.2.16.26.17l.85.24c.16.06.3.08.43.05l.87-.1c.04 0 .04 0 0-.02a1.1 1.1 0 0 1-.31-.26l.7.19a6.54 6.54 0 0 1 2 .8c.2.16.16.23-.09.2l-.3-.04c-.03 0-.05 0-.06.02-.06.06-.08.14-.07.24-.04.26-.15.48-.3.66l-.4.31a.5.5 0 0 1-.45.08 5.3 5.3 0 0 1-1.05-.38c-.2-.1-.4-.17-.58-.24a.75.75 0 0 1-.36-.24.94.94 0 0 1-.11-.24 1.31 1.31 0 0 0-.11-.24c-.04-.06-.05-.18-.04-.37 0-.03-.01-.05-.04-.07a.17.17 0 0 0-.1-.04.1.1 0 0 1-.06-.02 1 1 0 0 1-.25-.27c-.02-.03-.04-.03-.07-.02l-.03.01c-.04.02-.04.04-.01.07l.2.23c.02.02.02.04.03.07.04.28 0 .51-.1.7-.1.19-.2.29-.34.31a.93.93 0 0 0-.55.3l-.25.2c-.02.01-.04.02-.07.01-.14-.03-.34-.1-.6-.2a3.9 3.9 0 0 1-2.36-1.04l-.44-.13a.1.1 0 0 1-.08-.08.11.11 0 0 1 .03-.1c.3-.34.79-.58 1.45-.72l1.48-.24c.24-.04.46-.06.66-.06l.66.03Z" fill="#291919"/><path d="M25.26 32.68c-.67.14-1.16.38-1.46.71a.11.11 0 0 0-.03.11.1.1 0 0 0 .08.08l.44.14h.01c.47.35.84.56 1.12.64a70.8 70.8 0 0 1 1.24.4c.25.1.45.16.6.19.02 0 .04 0 .06-.02l.25-.2-.2.28a.08.08 0 0 1-.07.03h-.4a.06.06 0 0 0-.06.03.06.06 0 0 0 0 .07l.7.93c.07.1.2.19.39.26a.1.1 0 0 0 .07 0c.1-.03.12-.12.04-.25a4.8 4.8 0 0 0-.4-.6c-.1-.13-.08-.18.07-.15.2.04.38.12.53.25.31.25.57.52.77.8.12.17.12.35-.01.55-.01.09 0 .16.04.21v.04c0 .02-.02.02-.04 0l-.92-.53c-.08-.04-.14-.02-.17.06-.1.25-.26.45-.47.6a.1.1 0 0 1-.08.02l-.34-.09a3.02 3.02 0 0 0-1.16-.52 1.38 1.38 0 0 1-.44-.34c-.17-.2-.4-.38-.67-.55-.39-.24-.61-.48-.68-.72a1.9 1.9 0 0 0-.1-.32.65.65 0 0 0-.23-.24c-.3-.23-.51-.41-.62-.55a6.43 6.43 0 0 1-.68-1.08c-.01-.03 0-.06.03-.07l.16-.1a.1.1 0 0 1 .08 0c.24.08.44.13.6.14.2.02.4 0 .6-.06.14-.05.28-.08.43-.09a17.4 17.4 0 0 0 1.03-.12v.03l-.11.03Z" fill="#5A373C"/><path d="M31.98 34.8c-.1.22-.18.44-.25.67-.04.11-.17.28-.4.51-.09.1-.17.27-.25.5l-.11.24c-.13.22-.14.3-.04.27-.15.2-.33.37-.56.52-.29.2-.58.38-.88.57-.2.12-.52.26-1 .4l-.8.29h-.02.01a131.02 131.02 0 0 0 .5-.24v-.03c0-.01-.01-.02-.03-.02.23-.1.36-.19.4-.27.11-.22.26-.42.44-.59.1-.08.14-.19.13-.3a1.27 1.27 0 0 0-.12-.4c.13-.19.13-.37.01-.54-.2-.28-.46-.55-.77-.8-.15-.13-.33-.2-.53-.25-.15-.03-.18.02-.08.14.16.2.3.4.41.61.08.13.06.22-.04.25a.1.1 0 0 1-.07 0 .92.92 0 0 1-.4-.26l-.68-.93a.06.06 0 0 1 0-.07.06.06 0 0 1 .05-.03h.4c.02 0 .05-.01.06-.03l.2-.28c.13-.14.32-.24.56-.29.13-.02.25-.12.34-.3.1-.2.14-.43.1-.71a.12.12 0 0 0-.03-.07l-.2-.23c-.03-.03-.03-.05.01-.07l.03-.01c.03-.01.05 0 .07.02.06.1.15.2.25.27a.1.1 0 0 0 .06.02c.04 0 .07.01.1.04.03.02.04.04.04.07-.01.19 0 .31.04.37l.11.24c.04.12.08.2.11.24.1.11.21.2.36.24l.58.24a5.32 5.32 0 0 0 1.05.38.5.5 0 0 0 .46-.08l.38-.3Z" fill="#944C55"/><path d="m30.7 33.26-1.02-.2c-.05-.01-.1.02-.1.06v.01c-.01.05.02.1.07.1l1.02.2c.05.02.1-.02.1-.06.01-.05-.02-.1-.07-.1Z" fill="#6A5959"/><path d="M43.2 35.6a16.94 16.94 0 0 1-2.51 3.71 71.34 71.34 0 0 1-3.4-.73c-.51-.12-1.2-.19-2.05-.2-.02 0-.04.01-.04.04l-.05.57-.03-1.41c0-.21-.03-.44-.1-.67l-.14-.67.05-.6a3.46 3.46 0 0 1 .64-1.96c1.29.27 2.58.53 3.86.77.25.05.73.17 1.42.36.38.1 1.17.37 2.35.79Z" fill="#7E7C6F"/><path d="M16.08 35h-.11l-.4.01c-.98.12-1.97.18-2.97.18-.25-.52-.47-1.06-.66-1.6.41.2.83.38 1.26.53.2.07.57.26 1.12.57.09.05.26.08.5.1.43.05.85.12 1.26.2Z" fill="#4F4740"/><path d="M16.08 35c.76.18 1.47.44 2.15.8.28.15.53.26.75.34.52.19.95.36 1.28.52.06.03.15.1.27.21.06.06.12.1.18.1.14.02.36-.04.66-.17.15.16.2.33.18.5-.12.79-.17 1.5-.13 2.16l-.08-.31-.05-.25a.08.08 0 0 0-.04-.06c-.58-.3-1.18-.54-1.8-.74-1.39-.46-2.5-.36-3.34.28-.3.23-.6.5-.88.84a16.93 16.93 0 0 1-2.63-4.03c1 0 2-.06 2.98-.18l.39-.01h.11Z" fill="#39302E"/><path d="m34.93 35.63-.05.6a10.5 10.5 0 0 1-.19 1.62c-.12.53-.2.92-.2 1.16-.03.62.02 1.24.16 1.86 0 .03.02.05.05.06.03.02.06.02.09 0 .02 0 .04-.04.05-.09.06-.25.12-.52.15-.8a.64.64 0 0 1 .2-.35l.1.5c.03.19.05.35.05.5 0 .27-.02.54-.06.82l-.1.33a.75.75 0 0 0 .06.54c.05.11.13.24.26.39l.02.06.05.39a21.48 21.48 0 0 1-1.69.73c-.99.37-2 .64-3.05.81-.18-.46-.36-1.02-.54-1.67-.11-.39-.18-.76-.2-1.12-.04-.76.2-1.5.7-2.2a9.21 9.21 0 0 1 1.7-1.84 27.6 27.6 0 0 0 1.58-1.36c.2-.19.48-.5.86-.94Z" fill="#D6C4B4"/><path d="M31.51 37.97c-.3.36-.58.53-.85.52l-.26-.05a.75.75 0 0 0-.7.19c-.48.44-.75 1-.79 1.66l-.08 1.2c-.02.32-.07.6-.16.87-.04.12-.14.3-.29.55l-.16.28c-.14.3-.17.59-.07.89.05.12.14.28.29.47l.34.43c-.68.03-1.35.02-2.03-.03l-.1-.04c-.35-.12-.61-.23-.79-.31-.29-.15-.6-.28-.93-.4-.24-.09-.42-.2-.55-.32a2.66 2.66 0 0 1-.2-.25 2.2 2.2 0 0 0-.33-.37l-.43-.33a1.57 1.57 0 0 1-.48-.71c0-.03 0-.05.02-.07.1-.09.2-.13.26-.13.38 0 .8.08 1.26.23.3.1.71.27 1.24.52l.06-.01c.43-.4.72-.88.87-1.45.08-.31.16-.7.25-1.14.06-.3.17-.6.34-.87.1-.16.27-.3.5-.45a5.86 5.86 0 0 1 .76-.37c.47-.14.8-.28 1-.4l.87-.57c.23-.15.41-.32.56-.52.25-.22.43-.34.53-.37.41-.12.75-.36 1.02-.72-.03.17-.1.34-.19.5-.08.16-.14.3-.18.42a2.3 2.3 0 0 1-.25.55c-.13.2-.25.4-.35.6Z" fill="#AC9892"/><path d="m34.88 36.24.15.67c.06.23.09.46.1.67l.02 1.41c-.02.18 0 .37.04.56v.14a.64.64 0 0 0-.2.36c-.04.27-.09.54-.15.8-.01.04-.03.07-.05.09h-.1a.1.1 0 0 1-.04-.07 6.85 6.85 0 0 1-.17-1.86 7.3 7.3 0 0 1 .25-1.34c.06-.24.1-.72.15-1.43Z" fill="#C5B0A1"/><path d="m27.02 37.24.34.09a.1.1 0 0 0 .08-.02c.2-.15.36-.35.47-.6.03-.08.09-.1.17-.06l.92.54h.04v-.05c-.04-.05-.05-.12-.04-.21l.02.04c.06.16.1.27.1.34a.36.36 0 0 1-.13.31c-.18.17-.33.37-.44.6-.04.07-.17.16-.4.26-.45.05-.83.13-1.15.22a.9.9 0 0 0-.5.36c-.07.1-.13.27-.17.52-.08.44-.29.86-.6 1.26-.04.04-.09.05-.14.03a1.29 1.29 0 0 1-.64-.69l-.04-.1a1.94 1.94 0 0 0-.3-.54c-.15-.15-.32-.16-.51-.01-.3.23-.6.43-.88.58-.17.1-.57.39-1.2.88-.08.06-.2.2-.34.43a.06.06 0 0 0 0 .07c.14.2.3.38.5.57a4 4 0 0 1 .33.34c.15.2.24.32.27.4.12.32.3.6.52.85.15.15.4.33.77.52l.19.1c.17.09.34.23.52.42l-.65-.14a1.4 1.4 0 0 0-.36-.33c-.2-.13-.31-.2-.35-.25a5.1 5.1 0 0 1-.6-.68.13.13 0 0 0-.07-.05 1.68 1.68 0 0 0-.32-.05.34.34 0 0 1-.24-.11.65.65 0 0 1-.1-.26.91.91 0 0 0-.06-.16c-.12-.25-.22-.5-.3-.72a7.4 7.4 0 0 1-.19-.35.11.11 0 0 1 0-.08l.11-.89.2-.54a6.97 6.97 0 0 1 1.18-.61l1.28-.45c.08-.03.15 0 .2.07l.59 1.03c.01.03.03.03.04 0l.14-.26c.14-.28.26-.49.35-.62.15-.24.3-.41.46-.52l.6-.4c.16-.12.24-.3.22-.57a.08.08 0 0 0-.04-.07 6.65 6.65 0 0 0-.65-.39 4.83 4.83 0 0 1-.56-.34 1.85 1.85 0 0 1-.44-.48c-.02-.02-.01-.04 0-.06l.03-.01c.02-.02.04-.02.06 0 .24.2.39.32.44.33a7 7 0 0 1 1.27.51Z" fill="#6A5959"/><path d="m30.7 38.24-.21-.2c-.05-.03-.04-.07.01-.11.23-.17.5-.34.8-.52.11-.07.27-.23.47-.46.03-.03.05-.05.07-.05l.06.01c.02.02.03.04.01.07-.23.52-.58.95-1.05 1.27-.05.04-.1.03-.16-.01Z" fill="#92807E"/><path d="M21.34 39.15a1.92 1.92 0 0 0-.02-.1c-.06-.13-.1-.13-.13.02-.1.57-.14 1.15-.1 1.76 0 .08-.03.19-.1.34a.74.74 0 0 0 .07-.28c-.01-.15-.06-.17-.15-.04-.08.12-.18.26-.3.4-.09.1-.18.27-.28.51a3.1 3.1 0 0 1-.16.35c-.1.17-.2.36-.27.57-.02.05-.02.1 0 .15.02.03.02.05-.01.06l-.05.02a16.87 16.87 0 0 1-4.61-3.69c.29-.33.58-.61.88-.84.84-.64 1.95-.74 3.33-.28.63.2 1.23.45 1.8.74.03 0 .05.03.05.05l.05.26Z" fill="#262120"/><path d="M40.69 39.31c-.3.34-.62.66-.95.98-.35 0-.64-.04-.87-.11-.37-.12-.69-.2-.96-.25l-.97-.2a8.73 8.73 0 0 0-1.07-.16c-.28-.03-.48-.2-.6-.5 0-.05-.02-.04-.02 0l-.06.48a1.48 1.48 0 0 1-.04-.56l.05-.57c0-.03.02-.04.04-.04.86.01 1.54.08 2.05.2 1.12.27 2.25.51 3.4.73Z" fill="#767568"/><path d="M28.15 38.48c.02 0 .03 0 .03.02v.03l-.04.03c-.18.05-.49.15-.9.3a.83.83 0 0 0-.5.4c-.06.1-.1.3-.14.56l-.06.4c-.1.44-.3.84-.59 1.2a.13.13 0 0 1-.15.04c-.34-.1-.67-.26-.99-.47-.29-.2-.54-.22-.75-.07a6.1 6.1 0 0 1-1.09.62 3 3 0 0 0-.48.34c-.03.02-.03.04-.02.07l.38.62a4.37 4.37 0 0 1 .34.62c.1.2.2.33.3.39a39.62 39.62 0 0 1 1.33.84l.15.07c.24.12.4.22.51.32-.23-.03-.47-.07-.7-.12a2.08 2.08 0 0 0-.71-.52c-.37-.2-.62-.37-.77-.52a2.7 2.7 0 0 1-.52-.85 1.99 1.99 0 0 0-.27-.4 3.99 3.99 0 0 0-.34-.34c-.2-.19-.35-.37-.49-.57a.06.06 0 0 1 0-.07c.15-.22.26-.37.34-.43.63-.5 1.03-.79 1.2-.88.28-.15.58-.35.88-.58.19-.15.36-.14.5.01.1.1.2.27.3.54l.05.1c.16.34.37.57.64.7.05.01.1 0 .13-.04.32-.4.53-.82.6-1.26.05-.25.1-.42.18-.52a.9.9 0 0 1 .5-.36c.32-.1.7-.17 1.15-.22Z" fill="#7C6E6D"/><path d="m28.5 38.48-.15.06c-.28.13-.48.23-.61.31a1.5 1.5 0 0 0-.5.45c-.17.27-.28.56-.34.87-.09.45-.17.83-.25 1.14a2.92 2.92 0 0 1-.87 1.45.05.05 0 0 1-.06 0c-.53-.24-.94-.4-1.24-.5a4.04 4.04 0 0 0-1.26-.24c-.07 0-.16.04-.26.13-.02.02-.03.04-.01.07.13.35.3.59.47.71.14.1.28.2.43.33.08.06.19.19.33.37l.2.25c.13.13.31.23.55.32.33.12.64.25.93.4a8.89 8.89 0 0 0 .9.35c-.43-.03-.85-.07-1.28-.14-.1-.1-.27-.2-.5-.32a9.99 9.99 0 0 1-.5-.27c-.26-.18-.6-.4-.99-.64-.1-.06-.2-.2-.3-.4l-.09-.16-.25-.45a7.08 7.08 0 0 1-.38-.62c-.01-.03 0-.05.02-.07a3 3 0 0 1 .48-.34c.35-.15.71-.36 1.09-.62.2-.15.46-.13.75.07.33.2.65.37 1 .47.05.02.1 0 .14-.04a2.86 2.86 0 0 0 .65-1.6c.03-.27.08-.46.13-.57.1-.18.26-.31.5-.4l.91-.3a131.02 131.02 0 0 1-.46.22l.82-.3Z" fill="#92807E"/><path d="m21.34 39.15.08.31c.12.4.2.8.23 1.16l-.12.9a7.4 7.4 0 0 0 .2.43c.08.22.18.46.3.71.02.03.03.09.05.16.03.13.07.21.1.26.07.06.15.1.25.11.15.01.25.03.32.05.03 0 .06.02.07.05.2.26.4.5.6.68l.35.25c.13.08.25.2.36.33-1.17-.27-2.3-.67-3.4-1.18 0-.35-.03-.7-.09-1.03a.96.96 0 0 1 .08-.61l.28-.56c.06-.15.1-.26.09-.34-.04-.6 0-1.2.1-1.76.03-.15.07-.15.13-.01l.02.09Z" fill="#180F0E"/><path d="M39.74 40.29a16.93 16.93 0 0 1-4.17 2.93l-.05-.39a.13.13 0 0 0-.03-.06c-.12-.15-.2-.28-.26-.39a.75.75 0 0 1-.05-.54l.1-.33c.04-.28.06-.55.06-.83 0-.14-.02-.3-.06-.5l-.08-.49v-.14l.05-.48c0-.04.01-.05.03 0 .11.3.3.47.6.5.42.04.77.09 1.06.16l.97.2c.27.05.6.13.96.25.23.07.52.1.87.1ZM21 41.17l-.28.56a.96.96 0 0 0-.08.61c.06.34.09.68.1 1.03-.31-.14-.6-.3-.9-.46l.05-.02c.02-.01.03-.03.02-.06a.18.18 0 0 1-.01-.15c.08-.2.17-.4.27-.57.04-.07.1-.19.16-.35.1-.24.2-.4.28-.5l.3-.41c.09-.13.14-.11.15.04 0 .06-.02.15-.06.28Z" fill="#4F4740"/></svg>