<svg width="224" height="224" viewBox="0 0 56 56" xmlns="http://www.w3.org/2000/svg"><path d="M17.55 35.74a13 13 0 0 1 18.19-18.19l-.72.72a12 12 0 0 0-16.75 16.75l-.72.72Z" fill="url(#ahqjurp2y)"/><path fill-rule="evenodd" d="M28 44c4.37 0 8.32-1.75 11.21-4.58-.52-.52-.94-.86-1.46-1.38A13.96 13.96 0 0 0 38.72 19l.7-.7A14.94 14.94 0 0 1 43 28c0 3.84-1.44 7.33-3.8 9.99l.7.7a16 16 0 0 0-22.66-22.54l.6.81a14.96 14.96 0 0 1 20.9.58c-.5.52-.93.85-1.44 1.37A13 13 0 0 1 18.92 37.3c-.53.52-.86.95-1.38 1.46A14.96 14.96 0 0 1 13 28c0-4 1.57-7.64 4.13-10.33l-1.32-1.52C18.91 12.84 23.11 11 28 11a17 17 0 1 1-13.07 6.13l.7.71A16 16 0 0 0 28 44Zm0-30c3.56 0 6.8 1.33 9.28 3.52-.52.51-.95.86-1.47 1.37A12 12 0 1 1 18.9 35.81c-.51.52-.86.95-1.37 1.47A14 14 0 0 1 28 14Z" fill="url(#bhqjurp2y)"/><path d="M18.28 39.43A14.94 14.94 0 0 0 28 43c3.7 0 7.1-1.35 9.72-3.57l-.71-.71A13.94 13.94 0 0 1 28 42c-3.43 0-6.57-1.23-9-3.28l-.72.7Z" fill="url(#chqjurp2y)"/><path fill-rule="evenodd" d="M38 28a10 10 0 1 1-20 0 10 10 0 0 1 20 0Zm-4.33 3v-2.38L32.5 25h1.15l.64 2.11.6-2.11H36l-1.15 3.62V31h-1.18Zm-2.27-6h-1.35l-1.16 6h1.15l.23-1.32h.94l.22 1.32h1.13l-1.16-6Zm-.3 4h-.72l.35-2.49.36 2.49Zm-5.66-4h1.9c.36 0 .65.07.88.2.23.14.4.34.5.6.12.25.17.56.17.93 0 .43-.07.76-.22 1a1.2 1.2 0 0 1-.6.52c-.24.1-.53.15-.86.15h-.55V31h-1.22v-6Zm1.22 2.54h.43c.18 0 .31-.03.4-.08.1-.06.17-.15.2-.27a2 2 0 0 0 0-.93.46.46 0 0 0-.17-.3c-.09-.07-.24-.1-.44-.1h-.42v1.68ZM21.03 25H20l.78 6h1.05l.56-3.8.58 3.8h1.04l.76-6h-1.02l-.41 3.66-.55-3.65h-.82l-.52 3.66-.42-3.67Z" fill="url(#dhqjurp2y)"/><defs><linearGradient id="ahqjurp2y" x1="28" y1="11" x2="28" y2="45" gradientUnits="userSpaceOnUse"><stop stop-color="#AA792A"/><stop offset=".48" stop-color="#EBDF72"/><stop offset="1" stop-color="#BC7B21"/></linearGradient><linearGradient id="bhqjurp2y" x1="28" y1="11" x2="28" y2="45" gradientUnits="userSpaceOnUse"><stop stop-color="#AA792A"/><stop offset=".48" stop-color="#EBDF72"/><stop offset="1" stop-color="#BC7B21"/></linearGradient><linearGradient id="chqjurp2y" x1="28" y1="11" x2="28" y2="45" gradientUnits="userSpaceOnUse"><stop offset=".48" stop-color="#EBDF72"/><stop offset="1" stop-color="#BC7B21"/></linearGradient><linearGradient id="dhqjurp2y" x1="28" y1="18" x2="28" y2="38" gradientUnits="userSpaceOnUse"><stop stop-color="#B68F30"/><stop offset=".5" stop-color="#F3E292"/><stop offset="1" stop-color="#C8A53D"/></linearGradient></defs></svg>