<svg width="112" height="112" viewBox="0 0 56 56" xmlns="http://www.w3.org/2000/svg"><rect fill="#F3C015" width="56" height="56" rx="28"/><path d="M28 10 15 23.85v15.11h26v-15.1L28 10Z" fill="url(#a24bp3ayw)"/><circle cx="28" cy="29" r="10" fill="#FBFBFB"/><path fill-rule="evenodd" d="M28 36.71a7.71 7.71 0 1 0 0-15.42 7.71 7.71 0 0 0 0 15.42ZM28 38a9 9 0 1 0 0-18 9 9 0 0 0 0 18Z" fill="url(#b24bp3ayw)"/><path d="m23 25 2.63 2.15a4.12 4.12 0 0 0 5.17-.12L33 25h-1.9l-1.37 1.26c-.81.74-2.23.78-3.1.07L25.02 25H23ZM23 33l2.63-2.15a4.12 4.12 0 0 1 5.17.12L33 33h-1.9l-1.37-1.26a2.47 2.47 0 0 0-3.1-.07L25.02 33H23Z" fill="#393A3F"/><path d="M35.8 44 15 23.85v15.11L20.2 44h15.6Z" fill="url(#c24bp3ayw)"/><path d="M41 23.85 20.2 44h15.6l5.2-5.04v-15.1Z" fill="url(#d24bp3ayw)"/><defs><linearGradient id="a24bp3ayw" x1="28" y1="10" x2="28" y2="38.96" gradientUnits="userSpaceOnUse"><stop stop-color="#FCE386"/><stop offset="1" stop-color="#F1CA54"/></linearGradient><linearGradient id="b24bp3ayw" x1="20.93" y1="25.14" x2="33.14" y2="36.71" gradientUnits="userSpaceOnUse"><stop stop-color="#727177"/><stop offset="1" stop-color="#F8F8F8"/></linearGradient><linearGradient id="c24bp3ayw" x1="15" y1="27" x2="28.11" y2="44.4" gradientUnits="userSpaceOnUse"><stop stop-color="#FBFFFF"/><stop offset="1" stop-color="#FDEB97"/></linearGradient><linearGradient id="d24bp3ayw" x1="26.7" y1="44" x2="40.46" y2="26.57" gradientUnits="userSpaceOnUse"><stop stop-color="#FBFFFF"/><stop offset="1" stop-color="#FDEB97"/></linearGradient></defs></svg>