<svg width="224" height="224" viewBox="0 0 56 56" xmlns="http://www.w3.org/2000/svg"><path d="M41.42 19.3a13.13 13.13 0 0 0 .57 4.3 1 1 0 0 1 .05.4c-.01.17 0 .4.04.69.12.77.11 1.57-.01 2.38-.01.04-.03.06-.07.06-.04 0-.07-.02-.07-.06-.03-.1-.05-.23-.08-.41a2.71 2.71 0 0 0-.43-1.17.86.86 0 0 1-.15-.33l-.39-1.89.04-.16c0-.03.02-.04.05-.05.03 0 .05 0 .07.02.28.33.47.72.57 1.17 0 .02.02.03.05.03.02 0 .03-.02.03-.04a6.86 6.86 0 0 0-.17-1.2c-.05-.27-.17-.4-.34-.4-.08 0-.13-.05-.13-.13l.01-.5c.02-.5.01-.87-.02-1.12-.06-.45-.2-.82-.44-1.1l-1.1-1.87a.21.21 0 0 0-.12-.1l-.56-.15c-.03 0-.05 0-.07.03-.01.03 0 .05.01.07l.45.44a.5.5 0 0 1 .13.24c.07.29.31 1.13.71 2.5.14.49.23 1.3.26 2.46.02.82.06 1.4.12 1.74.1.58.19 1.18.27 1.82.07.46.18 1.06.35 1.8.15.68.22 1.44.2 2.29 0 .04.03.06.07.07.04.01.07 0 .08-.04l.44-1.01.01-.03c-.03-.43.06-.94.26-1.54.18-.52.3-1.03.37-1.52.23-1.6.34-2.51.32-2.75-.02-.45-.18-.99-.48-1.62-.27-.56-.25-1.1.08-1.61.42.82.75 1.7.99 2.64a.62.62 0 0 0-.06-.14c-.12 0-.17.06-.16.18a2.32 2.32 0 0 1-.1 1.04L42.76 28a.8.8 0 0 0 0 .06l.02.7c0 .08-.03.11-.1.1a.22.22 0 0 1-.1-.04c-.06-.05-.12-.04-.15.05a4.71 4.71 0 0 0 .12 2.19 8.17 8.17 0 0 1 .1 1.35c.01.1-.03.14-.13.13l-.07-.01c-.09 0-.14-.06-.15-.14l-.24-2c0-.04-.02-.05-.05-.06-.04 0-.06.02-.07.05-.19.76-.48 1.33-.85 1.71-.12.11-.2.21-.26.3a.3.3 0 0 0-.05.22c.2 1.3.28 2.6.27 3.9 0 .12-.03.22-.1.32l-.12.16c-.03.03-.06.04-.1.03-.04-.01-.06-.04-.06-.08l-.08-2.5-.1-2.1-.15-1.91c0-.02.01-.03.04-.03h.06c.08 0 .13.04.14.12l.16 1.32c0 .04.02.06.06.08a.1.1 0 0 0 .1 0c.28-.2.37-.41.28-.65a2.7 2.7 0 0 1-.15-.54c-.19-1.24-.3-1.95-.36-2.13a50.38 50.38 0 0 1-.7-2.4.16.16 0 0 0-.12-.12h-.27c-.27.04-.52-.28-.74-.95a8.86 8.86 0 0 1-.4-1.56 9.16 9.16 0 0 1-.37-1.29c-.24-1.05-.59-2.32-1.05-3.83-.02-.08-.07-.11-.15-.08h-.01c-.06.02-.09.06-.07.12.58 1.91 1.05 3.94 1.42 6.1 0 .03-.01.04-.05.04l-.12-.01c-.01 0-.02 0-.02-.02l-.4-1.41c0-.03-.02-.05-.05-.04-.03 0-.05.02-.05.05 0 .68.1 1.37.34 2.08.21.64.37 1.43.47 2.36.02.24.08.58.17 1.02a7.84 7.84 0 0 1 .2 1.46c.03 1.05.06 1.8.1 2.24.06.68.16 1.33.3 1.92.02.05.05.07.1.07.06-.01.09-.04.09-.1V32.8c0-.06.03-.1.1-.1.06-.01.1.01.11.08.18.72.22 1.63.12 2.73l-.17 2.15c0 .06.03.09.09.1.05.01.1 0 .11-.06.2-.55.3-1.13.3-1.74.13.05.24.11.34.2-.03.64.05 1.24.24 1.81l-1.06 1.21a2.09 2.09 0 0 1 0-.54c.02-.13 0-.22-.07-.26-.05-.03-.13-.02-.24.04-.03.02-.07.02-.1 0a.08.08 0 0 1-.03-.1c.1-.44.1-.92 0-1.42a.16.16 0 0 1 .06-.16l.12-.12a.2.2 0 0 0 .06-.14c0-.6-.07-1.1-.23-1.5-.02-.05-.04-.06-.08-.06-.04.01-.07.03-.07.08v.04c-.01.68.03 1.14.14 1.38.06.15.02.24-.1.3a.2.2 0 0 0-.14.16 4.2 4.2 0 0 0 .1 1.89l.04.91-.93.85c-.06-.91-.1-1.81-.12-2.7-.03-1.06-.17-2.3-.43-3.72-.02-.08.02-.12.1-.12.06 0 .11-.02.14-.06.04-.04.06-.09.05-.15l-.01-.84c-.02-.75-.06-1.32-.13-1.72-.13-.7-.22-1.36-.26-2 0-.04-.04-.07-.09-.07h-.06c-.08 0-.13.04-.13.13 0 1.02.08 2.03.25 3.05.01.06-.01.09-.07.1-.09.02-.14-.02-.15-.1a17.51 17.51 0 0 1-.2-4.06c.02-.33-.12-1.36-.42-3.1a4.98 4.98 0 0 0-.15-1.6c-.02-.09-.07-.12-.15-.1-.1.01-.14.08-.14.2l.02-3.5a2 2 0 0 1 .1.9c-.02.08.02.13.1.15.09.03.13 0 .14-.1.02-.8-.05-1.63-.24-2.49-.05-.19.03-.76.22-1.71a.62.62 0 0 0 0-.19 1.7 1.7 0 0 0-.23-.51.16.16 0 0 0-.13-.09l-.95-.09a.17.17 0 0 1-.11-.05 3.42 3.42 0 0 1-.26-.29c-.23-.28-.43-.44-.6-.5-.42-.12-.82-.24-1.2-.37-.1-.03-.2-.08-.28-.14a7.26 7.26 0 0 0-1.69-.8c-.04-.01-.06-.04-.05-.1.01-.04.04-.06.09-.06.09.01.18 0 .26-.04a.07.07 0 0 0 .04-.07.07.07 0 0 0-.04-.07l-.52-.24a.08.08 0 0 1-.05-.08c0-.04.02-.07.05-.08a.54.54 0 0 1 .18-.06c.05 0 .08-.03.08-.08.01-.05 0-.09-.05-.11-.19-.1-.51-.14-.97-.1a.07.07 0 0 0-.07.05c-.01.03 0 .06.03.08l.88.65c.04.02.04.05 0 .09l-.07.07c-.24-.2-.5-.3-.8-.28a.05.05 0 0 0-.04.04c-.01.03 0 .05.01.06.23.22.58.36 1.05.42.07.01.1.05.1.12 0 .08-.03.12-.1.13l-.94.1h-.06c-.08-.06-.1-.13-.05-.21.05-.07.04-.14-.03-.2a.2.2 0 0 0-.22-.04c-.4.15-.7.25-.9.31a.31.31 0 0 1-.2 0 5.56 5.56 0 0 0-1.55-.37c-.6-.2-1.23-.28-1.9-.23a.06.06 0 0 0-.05.04c-.02.02-.01.04 0 .06.14.14.32.25.54.31a7.7 7.7 0 0 0 2.33 1.62l.48.42c.06.05.07.1.03.17a.33.33 0 0 1-.18.16c-.08.03-.12 0-.13-.08a.84.84 0 0 0-.1-.31c-.83-.39-1.56-.82-2.2-1.28a46.03 46.03 0 0 1-2.46-1.99 8.62 8.62 0 0 1 2.5-.5l.76.13c.06.01.11.04.16.08.34.28.7.4 1.1.39.08 0 .15.02.2.07l.23.23c.06.06.14.1.23.12l1.14.22c.03 0 .06 0 .07-.04.02-.03.01-.06-.02-.08-.53-.35-1.06-.65-1.6-.9-.07-.03-.13-.04-.18-.02a.33.33 0 0 0-.11.09.2.2 0 0 1-.2.07c-.3-.06-.56-.22-.76-.5a15.85 15.85 0 0 1 14.57 7.22Z" fill="#9D9001"/><path d="M26.86 12.08c.2.27.46.43.76.49a.2.2 0 0 0 .2-.07.33.33 0 0 1 .11-.09c.05-.02.11-.01.19.02.53.25 1.06.55 1.59.9.03.02.04.05.02.08-.01.03-.04.05-.07.04l-1.14-.22a.43.43 0 0 1-.23-.12l-.22-.23a.25.25 0 0 0-.2-.07c-.4.02-.77-.11-1.11-.4a.32.32 0 0 0-.16-.07l-.76-.13 1.02-.13ZM23.35 12.71c1 .86 1.83 1.53 2.46 2 .63.45 1.36.88 2.19 1.27a.63.63 0 0 1-.23.14L25.42 15h-.01l-1.43-1.08a.11.11 0 0 0-.07-.02h-.24c-.02 0-.04.01-.04.04-.01.02 0 .04.01.05l2.93 2.16c.03.02.04.04.03.08 0 .03-.03.05-.06.06-.5.09-.97-.07-1.4-.47l-.33-.3a9.2 9.2 0 0 0-1.03-.9.91.91 0 0 0-.32-.13 5.83 5.83 0 0 1-1.12-.34 1.69 1.69 0 0 1-.83-.77l1.84-.66Z" fill="#CFC102"/><path d="m36.05 20.18-.3-2.54a.26.26 0 0 0-.13-.2 9.79 9.79 0 0 1-3.77-2.07.7.7 0 0 0-.54-.14l-.95.14-.72-.14-1.25-.2a.22.22 0 0 1-.1-.05l-.53-.39c-.04-.02-.05-.05-.03-.1.02-.03.05-.05.1-.03l.66.2h.03c.38-.05.64-.13.78-.24.03-.02.03-.05.02-.08-.02-.03-.04-.04-.07-.03-.49.13-.94.11-1.36-.06a2.1 2.1 0 0 0-.74-.17c-.07 0-.1.03-.13.09-.02.06 0 .11.05.15l.3.2-.03.05c-.02.03-.04.03-.07.02a3.35 3.35 0 0 1-.75-.55c-.14-.13-.33-.15-.56-.08l-.39.04c-.22-.06-.4-.17-.53-.3a.06.06 0 0 1-.01-.07.06.06 0 0 1 .05-.04 4.77 4.77 0 0 1 2.08.27c.4.03.86.14 1.38.32.06.03.12.03.19.01.2-.06.5-.16.9-.31a.2.2 0 0 1 .22.04c.07.06.08.13.03.2-.05.08-.03.15.05.2.02.02.04.02.06.02l.94-.11c.07-.01.1-.05.1-.13 0-.07-.03-.1-.1-.12-.47-.06-.82-.2-1.05-.42a.05.05 0 0 1-.01-.06c0-.02.02-.03.05-.04.28-.02.55.07.78.28h.01l.08-.07c.03-.04.03-.07-.01-.1l-.88-.64c-.03-.02-.04-.05-.03-.08.01-.04.03-.05.07-.06.46-.03.78 0 .97.1.05.03.06.07.05.12 0 .05-.03.08-.08.08a.54.54 0 0 0-.18.06.08.08 0 0 0-.05.08c0 .03.02.06.05.08l.52.24c.02.02.04.04.04.07 0 .03-.02.06-.04.07a.47.47 0 0 1-.26.04c-.05 0-.08.02-.1.07 0 .05.02.08.06.1.64.21 1.2.48 1.69.8.09.05.18.1.29.14l1.18.36c.18.06.38.22.61.5l.26.3c.03.02.06.04.1.04l.96.1c.06 0 .1.03.13.08.15.24.22.42.24.51l-.01.19a6.7 6.7 0 0 0-.22 1.71c.19.86.27 1.7.24 2.5 0 .09-.05.12-.14.1-.08-.03-.12-.08-.1-.16a2 2 0 0 0-.1-.9Z" fill="#CFC102"/><path d="m28.26 13.73-1.76-.49a.1.1 0 0 0-.12.07v.01a.1.1 0 0 0 .06.12l1.77.48a.1.1 0 1 0 .05-.2ZM33.11 14.09l.1-.11c.07-.06.06-.1-.02-.14l-.75-.36c-.04-.02-.05-.05-.04-.09 0-.03.02-.05.06-.06.53-.06 1.02.01 1.48.2.09.04.16.1.22.16l1.82 1.87c.02.03.02.06 0 .09s-.04.03-.08.02a8.5 8.5 0 0 1-1.4-.76h-.01l-1.35-.66c-.09-.04-.1-.1-.03-.16Z" fill="#BEB003"/><path d="M21.51 13.37c.17.34.45.6.83.77.23.11.6.22 1.12.34.12.02.22.07.32.14a9.21 9.21 0 0 1 1.36 1.2c.43.4.9.55 1.4.46.03-.01.05-.03.06-.06.01-.04 0-.06-.03-.08l-2.93-2.16c-.02-.01-.02-.03-.01-.05 0-.03.02-.04.04-.04h.24c.03 0 .05 0 .07.02l1.43 1.07.01.01 2.35 1.13-.04.07a.07.07 0 0 1-.04.03l-1.05.28c-.04 0-.05.03-.06.07 0 .03.02.05.05.06.47.16.91.17 1.34.04.06-.02.1 0 .12.06.03.06.01.1-.04.13-.23.16-.56.2-.98.14-.03 0-.05 0-.06.04-.01.02 0 .05.01.07.16.14.36.22.62.24-.1.04-.13.1-.11.17-.52-.1-1-.29-1.43-.6-.07-.05-.13-.03-.18.06l-.09.18c-.07.16-.19.2-.35.12-.6-.3-1.43-.9-2.46-1.81-.73-.65-1.3-1.11-1.7-1.38-.04-.03-.08-.02-.1.02h-.02c-.03.04-.02.08 0 .1l1.5 1.4c.55.54 1.4 1.16 2.54 1.87.03.03.04.06.02.1h-.16l-.09-.03-.66-.37a.13.13 0 0 0-.13 0 .13.13 0 0 0-.08.1l-.04.29c-.62-.2-1.16-.5-1.63-.9a4.35 4.35 0 0 0-2.16-2.73l1.2-.57Z" fill="#9D9001"/><path d="M28.94 13.6c-.22-.1-.42-.12-.45-.06-.03.07.13.2.35.3.22.09.42.1.44.04.03-.06-.12-.2-.34-.29Z" fill="#BEB003"/><path d="M29.64 15.23c0 .31-.12.51-.33.59-.16.05-.39 0-.67-.17-.56-.33-1.15-.6-1.76-.83-.2-.07-.5-.36-.92-.86.23-.07.42-.05.56.08.32.3.57.47.75.55.03.01.05 0 .07-.02l.03-.04v-.02l-.3-.2c-.05-.03-.07-.08-.05-.14.02-.06.06-.1.13-.1.22.01.47.07.74.18.42.17.87.2 1.36.06.03 0 .05 0 .07.03.01.04 0 .06-.02.08a1.7 1.7 0 0 1-.81.24l-.66-.2c-.04-.02-.08 0-.1.04-.02.04 0 .07.03.1l.53.38c.03.03.06.04.1.05l1.25.2Z" fill="#9D9001"/><path d="M25.96 13.96c.41.5.72.79.92.86.61.22 1.2.5 1.76.83.28.17.5.22.67.17.21-.08.32-.28.33-.6l.72.15.98.38c.06.02.1.06.1.13l.03.1a.1.1 0 0 1-.03.11.11.11 0 0 1-.13.02c-.73-.26-1.19-.25-1.36.02a.17.17 0 0 1-.15.09h-.07a.04.04 0 0 0-.04.03l.01.05.08.05c.06.04.12.06.18.06.44.05.74.11.92.2.02 0 .03.02.02.04 0 .03-.01.04-.03.05l-.48.1c-.04.02-.07.05-.07.1s.02.08.06.1l.59.21c.04.01.06.04.08.08.05.12.02.17-.1.16a9.4 9.4 0 0 1-2.44-.54.33.33 0 0 0-.16-.02c-.15.02-.22.13-.2.32 0 .09-.04.13-.12.15-.14.01-.27.01-.4-.01a.97.97 0 0 1-.6-.24c-.03-.02-.03-.05-.02-.07.01-.03.04-.04.07-.04.41.06.74.02.97-.14.05-.03.07-.07.04-.13-.02-.06-.06-.08-.12-.06a2.1 2.1 0 0 1-1.34-.04c-.03 0-.05-.03-.05-.06 0-.04.02-.06.06-.07l1.05-.28c.02 0 .03-.01.04-.03a.17.17 0 0 0 .04-.07.63.63 0 0 0 .23-.14c.05.1.09.2.1.3.01.09.05.12.13.1a.33.33 0 0 0 .18-.17c.04-.07.03-.13-.03-.17l-.48-.41A7.7 7.7 0 0 1 25.57 14l.4-.05ZM20.3 13.94a4.35 4.35 0 0 1 2.17 2.74c-.74-.75-1.45-1.1-2.13-1.04-.09 0-.1.04-.06.11l.08.07c.06.03.09.08.09.15 0 .05-.04.11-.1.16a.2.2 0 0 0-.07.12c-.1.51-.13.9-.07 1.14.11.44.08.86-.08 1.25a.24.24 0 0 1-.1.12c-.24.15-.41.18-.51.08a.06.06 0 0 0-.07-.01c-.03 0-.04.03-.04.05l.18.12c.05.04.12.04.2.01.22-.07.39-.04.5.09.05.05.05.1.02.16-.04.06-.09.08-.15.06l-.27-.09c-.03 0-.05 0-.07.02-.1.1-.26.07-.5-.08a.16.16 0 0 0-.17 0 .16.16 0 0 0-.1.14v.8c0 .08-.03.12-.11.14-.09.01-.14-.02-.17-.1a.75.75 0 0 1 0-.36.68.68 0 0 0 0-.28c-.03-.09-.08-.14-.15-.15-.06-.01-.1.01-.1.07-.03.1-.07.17-.12.2a.12.12 0 0 1-.15-.01.13.13 0 0 1-.05-.14c.03-.2.05-.35.04-.44 0-.12-.07-.19-.19-.2-.12-.02-.2.04-.23.16-.04.14-.06.3-.07.5-.06-.44-.2-.86-.44-1.26a.9.9 0 0 0 .12-.36l.38.66c.01.03.04.04.07.04.04-.01.05-.04.05-.07.01-1.06-.22-1.78-.7-2.14 0-.1.02-.18.06-.25.84-.8 1.85-1.52 3.02-2.18Z" fill="#BEB003"/><path d="M27.53 17.52c.29.13.59.2.9.2.03 0 .05.02.05.05 0 .03-.01.05-.04.05-.36.06-.7.03-1.04-.09a.5.5 0 0 0-.37.01l-.23.1c-.04.02-.06.05-.05.1 0 .04.03.06.07.07l.53.05c.05 0 .07.03.08.07.01.04 0 .07-.04.1a.9.9 0 0 1-.74.14 18 18 0 0 1-2.55-.8l.04-.28c0-.05.03-.09.08-.11a.13.13 0 0 1 .13 0l.66.37.09.03h.16c.02-.04.01-.07-.02-.1-1.15-.7-2-1.33-2.55-1.87-.41-.4-.9-.87-1.48-1.4-.03-.02-.04-.06 0-.1.03-.04.07-.05.1-.02.4.27.98.73 1.7 1.38 1.04.91 1.86 1.52 2.47 1.81.16.08.28.04.35-.12l.1-.18c.04-.09.1-.1.17-.05.44.3.91.5 1.43.6ZM36.27 15.02c-.2-.19-.4-.29-.46-.23-.05.06.06.26.25.45.2.18.4.28.46.22.06-.06-.05-.26-.25-.44Z" fill="#BEB003"/><path d="M32.1 15.17c-.06-.03-.07-.06-.02-.1l.06-.06a.18.18 0 0 1 .2-.03l1.27.5a.3.3 0 0 0 .11.02c.29 0 .53.14.72.44l.03.04.82.74c.07.06.07.13.02.2-.06.07-.12.08-.2.03l-2-1.34a.52.52 0 0 0-.08-.05l-.94-.4Z" fill="#676102"/><path d="m36.05 20.18-.02 3.48c.17.5.22 1.03.16 1.62a.2.2 0 0 1-.06.14l-.09.07c-.07.06-.06.11.02.15.19.1.28.23.28.42 0 1.26.05 2.3.13 3.12.04.41.05.97.05 1.67l.01.95c0 .1.02.2.05.3.32 1.18.51 2.4.58 3.65l.09.59c.06.3.08.5.08.6-.04 1.28.03 2.56.21 3.83l-.02.06a.2.2 0 0 1-.08.11 15.93 15.93 0 0 1-13 2.66l-1.48-3c-.02-.03-.01-.05.01-.07.03-.02.05-.01.07 0a4.25 4.25 0 0 0 3.42 1.12c1.4-.13 2.7-.75 3.9-1.86a6.1 6.1 0 0 0 2.05-3.77c0-.04 0-.07-.04-.1a.08.08 0 0 0-.1.02l-.57.44c-.05.04-.1.08-.16.1-.55.27-1.3.44-2.27.53-.13 0-.53-.05-1.2-.17a3.96 3.96 0 0 0-1.73.1c-.45.11-1 .33-1.64.64a.3.3 0 0 1-.22.03c-1.09-.3-1.97-.07-2.67.72-.05.06-.1.06-.16 0-.46-.55-1.06-1-1.8-1.37a.15.15 0 0 1-.1-.15v-.69a.16.16 0 0 0-.1-.16 3.41 3.41 0 0 0-1.1-.27c-.05 0-.08.02-.08.07-.01.04 0 .07.05.08l.74.22c.13.04.19.13.19.26v.37a.1.1 0 0 1-.06.1.1.1 0 0 1-.12 0l-.56-.38a.1.1 0 0 0-.11 0 .1.1 0 0 0-.06.09v.1a3.54 3.54 0 0 0-1.16-1.08l-1.17-1.21c-.04-.36.09-.83.38-1.42.09-.17.1-.29.05-.35a.77.77 0 0 0-.31-.23c-.07-.03-.08-.07-.05-.13.07-.13.11-.3.13-.5v-.07l-.54-1.86a.15.15 0 0 0-.1-.1l-.14-.04a.2.2 0 0 1-.08-.08c-.01-.03 0-.06.04-.1a.4.4 0 0 0 .08-.1c.34-.77.38-1.58.12-2.42a2.83 2.83 0 0 1-.1-.77.27.27 0 0 0-.08-.18.32.32 0 0 0-.21-.1c-.06-.01-.1-.04-.11-.1-.02-.06 0-.1.04-.15.1-.1.2-.2.26-.32a.34.34 0 0 0 .05-.2c-.02-.3 0-.65.09-1.04a.6.6 0 0 0 .01-.15l-.05-.84a.2.2 0 0 0-.07-.15c-.18-.15-.2-.51-.08-1.08a.46.46 0 0 1 .07-.16c.23-.33.34-.7.33-1.1a.21.21 0 0 0-.08-.17c-.2-.16-.26-.4-.17-.7l.18-.18c.07-.07.07-.14-.02-.2-.1-.06-.14-.13-.13-.23 0-.08.05-.12.13-.12.08-.01.13.03.15.1l.1.39c0 .06.05.09.11.07l.08-.02c.06-.01.09-.06.07-.12l-.21-.88c-.02-.09.01-.14.11-.13.06 0 .12.02.19.06.25.46.4.99.48 1.58.2.06.33.16.36.3.02.1-.02.16-.1.2-.08.02-.13.06-.14.1-.03.11.01.16.13.15.14-.02.24.14.32.47.01.04.04.06.08.07.05 0 .08-.02.1-.06.04-.08.03-.2-.03-.33-.03-.07-.02-.13.04-.17.09-.07.12-.15.1-.23-.08-.4-.1-.75-.04-1.02.01-.2.03-.36.07-.5.03-.12.1-.18.23-.16.12.01.19.08.2.2 0 .1-.02.24-.05.44-.01.06 0 .1.05.14.05.03.1.04.15 0 .05-.02.09-.09.11-.2.02-.05.05-.07.11-.06.07.01.12.06.14.15.02.06.02.16 0 .28a.75.75 0 0 0 .01.36c.03.08.08.11.17.1.08-.02.12-.06.12-.15v-.79c0-.07.03-.12.09-.15a.16.16 0 0 1 .17 0c.24.16.4.2.5.1a.06.06 0 0 1 .07-.03l.27.09c.06.02.11 0 .15-.06.03-.06.03-.11-.02-.16-.11-.13-.28-.16-.5-.09-.08.03-.15.03-.2 0a2.64 2.64 0 0 1-.18-.13c0-.02.01-.04.04-.05.02-.01.05-.01.07.01.1.1.27.07.51-.08a.24.24 0 0 0 .1-.12c.16-.4.19-.8.08-1.25-.06-.24-.03-.63.07-1.14a.2.2 0 0 1 .07-.12c.06-.05.1-.1.1-.16a.15.15 0 0 0-.09-.15.24.24 0 0 1-.08-.07c-.04-.07-.03-.1.06-.11.68-.06 1.4.29 2.13 1.04.47.4 1.01.7 1.63.89a18 18 0 0 0 2.55.8c.26.06.51.01.75-.15.03-.02.04-.05.03-.1a.08.08 0 0 0-.08-.06l-.53-.05c-.04 0-.07-.03-.07-.08-.01-.04 0-.07.05-.09l.23-.1a.5.5 0 0 1 .37 0c.34.11.68.14 1.04.08.03 0 .04-.02.04-.05 0-.03-.02-.05-.05-.05-.31 0-.61-.07-.9-.2-.02-.07.02-.13.1-.17.13.02.26.02.4 0 .08 0 .12-.05.11-.14-.01-.2.06-.3.21-.32.06 0 .1 0 .16.02.79.3 1.6.47 2.44.54.12.01.15-.04.1-.16a.12.12 0 0 0-.08-.08l-.59-.21c-.04-.02-.06-.05-.06-.1s.03-.08.07-.1l.48-.1c.02-.01.03-.02.03-.05 0-.02 0-.04-.02-.04a2.96 2.96 0 0 0-.92-.2.46.46 0 0 1-.18-.06.95.95 0 0 1-.08-.05c-.01-.01-.02-.03-.01-.05 0-.02.02-.03.04-.03h.07c.07 0 .12-.03.15-.09.17-.27.63-.28 1.36-.02.05.02.09.01.13-.02a.1.1 0 0 0 .03-.12l-.02-.1a.18.18 0 0 0-.11-.12l-.98-.38.95-.14a.7.7 0 0 1 .55.13c.7.52 1.43.93 2.21 1.24a10.06 10.06 0 0 1 1.55.83c.08.05.13.12.14.2l.3 2.55Z" fill="#482200"/><path d="M38.4 17c-.14.04-.33-.03-.55-.22-.36-.32-.73-.65-1.1-1a.2.2 0 0 1-.06-.25c.04-.08.08-.09.14-.03l1.6 1.43c.02.03.02.05-.02.06Z" fill="#BEB003"/><path d="m29.42 16.25-.5-.01c-.02-.01-.04-.03-.04-.06 0-.04.02-.06.05-.06.23-.08.4-.07.53.03.02.02.03.04.02.06-.01.03-.03.04-.06.04Z" fill="#676102"/><path d="M17.29 16.12a.47.47 0 0 0-.06.25c-.18.34-.14.64.13.88.03.04.04.08 0 .12l-.07.1a.13.13 0 0 0-.01.15l.15.26a.9.9 0 0 1-.12.36l-.32-.5c-.04-.06-.1-.08-.17-.05s-.1.08-.09.16c.07.34.24.63.52.89.07.07.08.14.02.22-.05.09-.13.1-.22.06h-.03c-.05.01-.07.04-.06.1.08.29.07.6-.03.9a4.36 4.36 0 0 0-.48-1.58c.12-.3.08-.6-.13-.87-.07-.1-.16-.1-.25-.03-.36.3-.58 1.01-.66 2.1 0 .07.02.1.08.09l.2-.02c-.09.3-.03.53.17.69.05.04.08.1.08.17 0 .4-.1.77-.33 1.1a.46.46 0 0 0-.07.16c-.13.57-.1.93.08 1.08a.2.2 0 0 1 .07.15l.05.84-.01.15c-.08.4-.11.74-.1 1.04.01.07 0 .14-.04.2-.07.11-.15.22-.26.32a.14.14 0 0 0-.04.15c.02.06.05.09.1.1.09 0 .16.04.22.1.04.05.07.11.07.18v.07c.02.28.05.52.1.7.27.84.23 1.65-.1 2.43a.4.4 0 0 1-.1.1c-.03.03-.04.06-.03.09a.2.2 0 0 0 .08.08c-.17.54-.4 1.07-.68 1.57-.14.23-.21.43-.24.61-.02.16-.01.37.03.63.03.17.1.45.22.84.26.89.36 1.55.3 1.99a.3.3 0 0 1-.14.2.07.07 0 0 1-.08 0 .07.07 0 0 1-.03-.06c-.01-.69-.15-1.45-.43-2.3a4.1 4.1 0 0 1-.17-.89c-.04-.36-.02-.62.05-.77.15-.35.36-.73.63-1.14a.8.8 0 0 0 .12-.55l-.17-1.42c0-.02-.01-.03-.04-.04-.02 0-.04.01-.04.04a5.8 5.8 0 0 0-.09 1.83c0 .08-.03.13-.11.14h-.06c-.07.01-.11-.02-.12-.09l-.08-.66c0-.05-.04-.08-.09-.08-.05 0-.08.03-.09.08-.07.44-.1.92-.1 1.43a.1.1 0 0 1-.06.1.11.11 0 0 1-.11 0c-.12-.06-.2-.06-.26 0a.07.07 0 0 0-.02.05v1.35c0 .04-.02.07-.07.07-.04 0-.07-.01-.07-.06l-.23-1.17a9.4 9.4 0 0 1-.86-2.48c-.01-.06-.05-.09-.1-.08h-.06c-.03.01-.04.03-.04.06l.38 2.05h-.44c-.19-1.13-.27-2.2-.26-3.22.62-.7.7-1.45.24-2.27l.14-.9.76 2.38c.05.13 0 .24-.11.32l-.04.02c-.17.1-.25.23-.26.38-.04.51-.02.95.06 1.33 0 .03.02.04.05.04l.05-.01c.06 0 .08-.04.08-.1-.03-.3.07-.6.3-.86.12-.14.1-.29-.07-.46a.16.16 0 0 1-.05-.14c.01-.05.04-.09.08-.12.24-.13.3-.33.18-.58l-.03-.07a5.32 5.32 0 0 1-.42-1.1c-.07-.33-.03-.71.1-1.16.03-.08 0-.15-.06-.2l-.1-.07c-.03-.02-.04-.05-.02-.07l.05-.06c.02-.03.04-.03.07-.01l.42.3c.06.05.13.05.19-.01.51-.52.86-.96 1.05-1.3.28-.5.44-.8.5-.85a.28.28 0 0 0 .06-.18c0-.34-.06-.67-.2-1.01a12.3 12.3 0 0 1-.09-.22.23.23 0 0 1 .03-.22l.13-.17a.43.43 0 0 0 .08-.26v-1.29c0-.06-.02-.08-.07-.03l-.21.18a.18.18 0 0 0-.07.16l.06.7-.01.1-.36 1.18a.16.16 0 0 1-.1.11l-.19.09c-.05.02-.07.06-.06.11.02.06.05.09.1.08h.28c.03.02.04.04.04.07 0 .03-.02.05-.05.06-.27.08-.31.3-.12.67.03.06.04.12.03.18a.86.86 0 0 1-.17.35.1.1 0 0 1-.1.04.1.1 0 0 1-.08-.08l-.17-1.45a.5.5 0 0 1 .13-.41l.03-.05c.18-.2.3-.35.36-.45.1-.17.13-.36.11-.56 0-.02 0-.04-.03-.04l-.05.01-.7.96a14.45 14.45 0 0 1 3.5-4.58Z" fill="#9D9001"/><path d="m17.43 17.88-.15-.26a.13.13 0 0 1 0-.15l.09-.1c.03-.04.02-.08-.01-.12-.27-.24-.31-.54-.13-.88.48.36.71 1.08.7 2.14 0 .03-.01.06-.05.07-.03 0-.06 0-.07-.04l-.38-.66Z" fill="#CFC102"/><path d="M29.95 16.94c.02 0 .02.02.01.04V17c-.04.1-.24.1-.61-.03l-.4-.13c-.36-.12-.53-.23-.5-.34l.01-.03c0-.02.02-.02.04-.02l1.45.48Z" fill="#676102"/><path d="M37.02 17c-.1 0-.14-.06-.13-.15l.01-.1c.02-.12.07-.16.18-.12.37.15.65.32.85.54.13.14.3.4.52.8l.25.45c.22.37.47.97.75 1.81a28.44 28.44 0 0 0 .35 1l.1.51a2 2 0 0 1 .02.55 9.08 9.08 0 0 0 .15 2.8.3.3 0 0 1 0 .15l-.19.59c-.02.08-.07.1-.15.09-.32-.06-.51-.22-.57-.46-.1-.42-.24-.99-.44-1.69a29.2 29.2 0 0 1-.48-1.91c-.14-.7-.31-1.38-.5-2.07-.15-.54-.35-1.08-.61-1.64-.02-.04-.01-.07.02-.1.04-.02.07-.02.1.01.26.23.45.49.56.77.02.06.07.1.13.1l.24.02c.06 0 .1.03.14.09.26.42.39.7.4.86a48.86 48.86 0 0 1 .09 2.28l.57 1.77c.02.07.04.07.04 0a7.93 7.93 0 0 0-.92-5.18c-.2-.34-.48-.86-.84-1.55a.33.33 0 0 0-.28-.18l-.36-.04Z" fill="#CFC102"/><path d="M36.56 17.07c.01-.04.04-.06.08-.06s.07.02.08.06l.18.73c.02.08.01.16-.02.23l-.11.22c-.03.05-.07.07-.12.06-.06 0-.09-.04-.1-.1-.07-.4-.07-.78.01-1.14ZM37.38 17.35c.09.09.14.2.14.34 0 .04 0 .06-.04.08-.03.01-.05.01-.08-.01a3.02 3.02 0 0 1-.43-.4.08.08 0 0 1-.01-.08.07.07 0 0 1 .07-.05.5.5 0 0 1 .35.12Z" fill="#BEB003"/><path d="M16.45 18.44a.42.42 0 0 0-.19-.06c-.1 0-.13.04-.11.13l.21.88c.02.06 0 .1-.07.12l-.08.02c-.06.02-.1 0-.12-.07l-.09-.39c-.02-.07-.07-.11-.15-.1-.08 0-.13.04-.13.12-.01.1.03.17.13.24.09.05.1.12.02.2l-.18.18-.2.02c-.06 0-.09-.02-.08-.08.08-1.1.3-1.8.66-2.1.1-.09.18-.08.25.02.2.28.25.56.13.87ZM17.31 18.24c.24.4.38.82.44 1.26-.05.27-.04.62.05 1.02.01.08-.02.16-.1.23-.07.04-.08.1-.05.17.06.14.07.25.03.33a.09.09 0 0 1-.1.06.09.09 0 0 1-.08-.07c-.08-.33-.18-.49-.32-.47-.12 0-.16-.04-.13-.15.01-.04.06-.08.13-.1.1-.04.13-.1.1-.2-.02-.14-.15-.24-.35-.3.1-.3.11-.61.03-.9-.01-.06 0-.09.06-.1h.03c.1.04.17.03.22-.06.06-.08.05-.15-.02-.22a1.58 1.58 0 0 1-.52-.89c-.01-.08.02-.13.09-.16.07-.03.13 0 .17.06l.32.49ZM40.6 19.78c0 1.18.09 2.34.28 3.49l.4 1.89c.02.12.07.23.14.33.2.3.35.68.43 1.17.03.18.05.32.08.41 0 .04.03.06.07.06.04 0 .06-.02.07-.06.12-.81.13-1.61.01-2.38-.04-.3-.05-.52-.04-.7a1 1 0 0 0-.04-.38 13.14 13.14 0 0 1-.58-4.31l.98 1.7a1.58 1.58 0 0 0-.08 1.62c.3.63.46 1.17.48 1.62.02.24-.1 1.15-.32 2.75-.07.5-.19 1-.37 1.52a4.14 4.14 0 0 0-.27 1.57l-.44 1c-.01.05-.04.06-.08.05-.04 0-.06-.03-.06-.07.01-.85-.06-1.61-.21-2.3-.17-.73-.28-1.33-.35-1.8-.08-.63-.17-1.23-.27-1.8-.06-.35-.1-.93-.12-1.75a11.18 11.18 0 0 0-.26-2.45c-.4-1.38-.64-2.22-.71-2.51a.5.5 0 0 0-.13-.24l-.45-.44c-.02-.02-.02-.04 0-.07 0-.03.03-.03.06-.03l.56.15c.05.02.1.05.13.1l1.1 1.86Z" fill="#CFC102"/><path d="M19.91 18.55a.3.3 0 0 1-.27-.01.4.4 0 0 1-.19-.22l-.02-.05a.4.4 0 0 1 0-.28.3.3 0 0 1 .18-.2h.01l.3.76Z" fill="#676102"/><path d="m33.73 18.68-.44-.1a4.6 4.6 0 0 0-1.15-.19 4.2 4.2 0 0 0-2.17.63c-.51.33-1.06.87-1.62 1.62a6.58 6.58 0 0 1-2.09 1.63c-.3.17-.67.25-1.1.26-.53.01-.85-.14-.97-.46-.02-.05 0-.1.04-.13s.09-.03.14 0l.36.24a.2.2 0 0 0 .11.04c.68.03 1.2-.1 1.58-.36a12.07 12.07 0 0 0 2.25-2.06c.4-.46.73-.79 1.03-.99.53-.37 1.2-.57 2-.62.78-.04 1.47.08 2.07.36.04.02.05.05.04.09-.01.04-.04.05-.08.04Z" fill="#291304"/><path d="m40.5 32.35-.38.22a.17.17 0 0 0-.08.14l-.09 3.25c0 .61-.1 1.2-.3 1.74-.02.05-.06.07-.11.06-.06-.01-.09-.04-.09-.1l.17-2.15c.1-1.1.06-2.01-.12-2.73-.01-.07-.05-.1-.12-.09-.06.01-.1.05-.1.11v1.47c0 .05-.02.08-.07.09-.06 0-.09-.02-.1-.07-.15-.6-.25-1.24-.31-1.92a48.88 48.88 0 0 1-.1-2.37c-.01-.32-.08-.77-.2-1.33-.09-.44-.15-.78-.17-1.02-.1-.93-.26-1.72-.47-2.36-.23-.71-.34-1.4-.34-2.08 0-.03.02-.05.05-.05.03 0 .05 0 .06.04l.39 1.4c0 .02 0 .03.02.03l.12.01c.04 0 .05-.01.05-.05a50.3 50.3 0 0 0-1.42-6.09c-.02-.06 0-.1.07-.12.09-.03.14 0 .16.08.46 1.5.81 2.78 1.05 3.83a9.15 9.15 0 0 0 .43 1.48c.09.51.2.97.34 1.37.22.67.47 1 .74.96.14-.02.23-.02.27-.01.07.01.11.06.13.13.04.21.27 1 .69 2.4.05.17.17.88.36 2.12.02.16.07.33.15.54.1.24 0 .45-.28.64a.1.1 0 0 1-.1.01.1.1 0 0 1-.06-.08l-.16-1.32c0-.08-.06-.12-.14-.12h-.06c-.03 0-.04 0-.04.03l.16 1.9ZM12.4 24.47c.3-1.33.77-2.59 1.39-3.77l.7-.96c.01-.01.03-.02.05-.01.02 0 .03.02.03.04.02.2-.02.39-.11.56a2.93 2.93 0 0 1-.4.5.5.5 0 0 0-.12.4l.17 1.46c0 .04.03.07.07.08a.1.1 0 0 0 .1-.04.86.86 0 0 0 .18-.35.25.25 0 0 0-.03-.18c-.19-.36-.15-.59.12-.67.03-.01.04-.03.05-.06 0-.03-.01-.05-.04-.07h-.27c-.06 0-.1-.02-.1-.08-.02-.05 0-.1.05-.11l.2-.09a.16.16 0 0 0 .09-.1l.36-1.19v-.1l-.05-.7c0-.06.02-.12.07-.16l.2-.18c.06-.05.08-.03.08.03v1.3c0 .09-.03.18-.08.25l-.13.17a.23.23 0 0 0-.03.22l.1.22c.13.34.2.67.19 1.01 0 .07-.03.13-.07.18-.05.06-.21.34-.5.85-.18.34-.53.78-1.04 1.3-.06.06-.13.06-.2.01l-.41-.3c-.03-.02-.05-.02-.07 0l-.05.07c-.02.02-.01.05.01.07l.1.07c.08.05.1.12.07.2-.13.45-.17.83-.1 1.16.04.23.18.6.42 1.1l.03.07c.12.25.06.45-.18.58a.16.16 0 0 0-.08.12c0 .06.01.1.05.14.17.17.2.32.07.46-.23.27-.33.56-.3.87 0 .05-.02.08-.08.09h-.05c-.03 0-.04 0-.05-.03-.08-.38-.1-.82-.06-1.33 0-.15.1-.28.26-.38l.04-.02c.12-.08.16-.19.11-.32l-.76-2.38Z" fill="#CFC102"/><path d="M40.88 23.27c-.2-1.15-.29-2.3-.28-3.49.23.3.38.66.44 1.1.03.26.04.64.02 1.13v.5c0 .08.04.12.12.12.17.01.29.14.34.4.1.46.16.86.17 1.2 0 .03 0 .05-.03.05s-.04 0-.05-.03c-.1-.45-.29-.84-.57-1.17a.07.07 0 0 0-.07-.02.07.07 0 0 0-.05.05l-.04.16Z" fill="#BEB003"/><path d="M37.26 21.33c-.12-.82-.29-1.47-.38-1.45-.1.01-.08.68.03 1.5.12.81.3 1.46.39 1.45.1-.02.08-.69-.04-1.5ZM14.8 25.74l.1-.08a.07.07 0 0 1 .05-.01c.1 0 .15.07.12.22 0 .06 0 .11.04.17.32.48.44.97.35 1.47a.2.2 0 0 0 .07.2c.12.1.19.17.2.22.03.11 0 .2-.07.25-.04.03-.1.03-.2.02-.04-.01-.07-.05-.08-.1-.05-.5-.2-1.1-.46-1.79-.1-.28-.27-.36-.5-.25a.28.28 0 0 0-.12.09l-.46.63c-.04.04-.08.06-.14.04-.06-.02-.08-.06-.08-.12v-.44a.15.15 0 0 0-.04-.1c-.3-.38-.43-.93-.4-1.65 0-.09.04-.12.12-.1.09.02.24 0 .47-.07a.36.36 0 0 0 .17-.1l.88-.98a.5.5 0 0 0 .11-.19l.15-.5a.09.09 0 0 1 .08-.06c.04-.01.07 0 .09.04.15.23.18.45.1.65a.45.45 0 0 1-.1.14c-.35.32-.55.59-.61.81l-.3 1.16c0 .03.01.06.05.07.03 0 .06 0 .07-.04.16-.34.28-.68.38-1.03.08-.26.18-.44.33-.55.06-.05.12-.05.18 0s.07.11.03.18c-.13.23-.27.65-.44 1.26-.03.12-.07.2-.13.24-.14.1-.18.2-.13.28.03.05.07.06.12.02Z" fill="#CFC102"/><path d="M28.65 23.17c-.42.1-.8.35-1.15.74l-.1.01c-.03 0-.05 0-.07-.03a.07.07 0 0 1 0-.08c.2-.38.63-.7 1.3-.96.52-.2 1.06-.32 1.62-.37.07-.01.13.02.17.08.04.06.05.12.02.19l-.15.3a.26.26 0 0 1-.11.12c-.23.13-.49.08-.77-.15a.26.26 0 0 0-.23-.06c-.18.04-.36.1-.53.21Z" fill="#291304"/><path d="M32.08 22.78c-.34.27-.65.46-.92.55-.05.02-.1.01-.13-.02a.12.12 0 0 1-.03-.13l.17-.56c.04-.13.12-.17.25-.13l.65.19c.06.02.07.05.01.1Z" fill="#FBF1F4"/><path d="M20.63 23.06c0-.05.04-.08.1-.07h.08c.06.01.08.04.07.1l-.05.58c0 .05-.03.1-.06.13-.18.22-.4.32-.64.3a12.81 12.81 0 0 1-4.22-1.08c-.03 0-.04-.03-.03-.07v-.01c.02-.04.04-.05.08-.04 1.41.44 2.85.77 4.31.97.19.03.3-.05.3-.24l.06-.57Z" fill="#291304"/><path d="m28.65 23.17.53.62c.03.04.04.08.02.13a.12.12 0 0 1-.1.08c-.55.1-1.04.12-1.47.06-.1 0-.15-.06-.13-.15.34-.4.73-.64 1.15-.74Z" fill="#FBF1F4"/><path d="M25.63 25.92a2.38 2.38 0 0 1-1.05-2.37c.01-.05.04-.08.1-.08.06 0 .09.03.1.09.1.82.41 1.57.96 2.25.03.03.03.07 0 .1-.04.04-.07.04-.11.01Z" fill="#291304"/><path d="M38 40.53c-.15.15-.3.23-.46.24a21.41 21.41 0 0 1-.2-3.83c0-.1-.03-.3-.09-.6a5.52 5.52 0 0 1-.09-.59 17.57 17.57 0 0 0-.58-3.64c-.03-.1-.05-.2-.05-.3l-.01-.96c0-.7-.01-1.26-.05-1.67-.08-.82-.12-1.86-.13-3.12 0-.19-.1-.33-.28-.42-.08-.04-.09-.09-.02-.15l.09-.07a.2.2 0 0 0 .06-.14c.06-.59 0-1.13-.16-1.62 0-.11.05-.18.14-.2.08-.01.13.02.15.1a4.98 4.98 0 0 1 .15 1.6c.3 1.75.44 2.78.42 3.1-.09 1.43-.02 2.79.2 4.07.01.08.06.12.15.1.06-.01.08-.04.07-.1a17 17 0 0 1-.25-3.05c0-.09.05-.13.13-.13h.06c.05 0 .08.03.09.08.04.63.13 1.3.26 1.99.07.4.11.97.13 1.72l.01.84c0 .06-.01.11-.05.15-.03.04-.08.06-.15.06-.07 0-.1.04-.1.12.27 1.42.41 2.66.44 3.72.02.89.06 1.79.12 2.7Z" fill="#BEB003"/><path d="M43.39 23.65c.32.98.52 2.09.58 3.34a15.5 15.5 0 0 1-1.71 8.23l-.1.25c-.05.17-.12.29-.2.35a.72.72 0 0 0-.2.25c-.33.64-.74 1.27-1.23 1.9a4.93 4.93 0 0 1-.24-1.8l.08-1.73c0-.02 0-.03.02-.04.06-.05.12-.04.2.05l.08 2.5c0 .04.02.07.06.08.04.01.07 0 .1-.03l.12-.16c.07-.1.1-.2.1-.32.01-1.3-.08-2.6-.27-3.9a.3.3 0 0 1 .05-.22c.06-.09.14-.19.26-.3.37-.38.66-.95.85-1.71.01-.03.03-.05.07-.05.03 0 .05.02.05.06l.24 2c.01.08.06.13.15.14h.07c.1.02.14-.03.14-.12l-.02-.36a8.13 8.13 0 0 0-.12-1.14 4.71 4.71 0 0 1-.09-2.04c.03-.09.09-.1.16-.05.03.03.06.04.09.05.07 0 .1-.03.1-.1l-.02-.71a.8.8 0 0 1 0-.06l.31-3.28.01-.04c.1-.28.13-.62.09-1-.01-.12.04-.18.16-.18l.06.14Z" fill="#CFC102"/><path d="M12.26 25.37c.45.82.38 1.57-.24 2.27-.06-.83.02-1.58.24-2.27Z" fill="#FAED00"/><path d="m19.28 25.6-.2.67a.25.25 0 0 1-.12.16c-.18.1-.35.12-.49.04-.08-.05-.2-.17-.33-.35-.06-.1-.12-.17-.16-.21.37-.34.8-.44 1.3-.31Z" fill="#291304"/><path d="M20.1 25.58c-.2 0-.32.38-.35 1.13l-.34.14c-.42.19-.75.25-.99.17a3.24 3.24 0 0 1-.82-.9.76.76 0 0 1 .38-.21c.04.04.1.11.16.21.14.18.25.3.33.35.14.08.3.07.5-.04.05-.04.1-.09.12-.16l.19-.67.82-.02Z" fill="#3671F1"/><path d="M19.75 26.71c.03-.75.15-1.12.35-1.13.46.01.84.09 1.14.24.06.03.07.07.02.1-.46.4-.96.66-1.5.8Z" fill="#FBF1F4"/><path d="M17.6 26.12c.2.34.48.64.82.9a.62.62 0 0 0-.21.13l-.84-.93a.62.62 0 0 1 .23-.1Z" fill="#696868"/><path d="m17.38 26.22.83.93c-.52.14-1.07.11-1.68-.1-.08-.02-.1-.07-.04-.15.2-.24.5-.46.89-.68Z" fill="#FBF1F4"/><path d="m13.94 29.61-.2-1.83-.01-.06a.75.75 0 0 1-.1-.22.16.16 0 0 1 .09-.17c.28-.16.54-.48.77-.97.02-.06.06-.08.12-.07.06 0 .1.03.11.1l.07.28a.5.5 0 0 1-.08.42c-.18.27-.28.5-.3.7-.07.53-.19 1.14-.37 1.83 0 .03-.02.04-.05.04-.03 0-.04-.02-.05-.05Z" fill="#CFC102"/><path d="M26.24 28.46c-.36-.07-.73-.3-1.11-.71a6.76 6.76 0 0 0-.33-.33.36.36 0 0 0-.17-.09 1.38 1.38 0 0 0-.74.05 3.2 3.2 0 0 0-1.28-.44.46.46 0 0 0-.49.25 8.6 8.6 0 0 1-.72 1.12 550.7 550.7 0 0 0-2.77 3.52.39.39 0 0 1-.07.02c0-.08.02-.15.08-.22l1.95-2.5c.32-.4.57-.76.77-1.06l.74-1.14c.13-.2.32-.29.56-.25l1.54.23.14.05.27.14a8 8 0 0 1 .95.58c.28.21.5.47.68.78Z" fill="#676102"/><path d="M37.5 27.85c-.08-.6-.22-1.06-.31-1.05-.1.02-.1.5-.03 1.09.07.59.21 1.06.3 1.04.1 0 .11-.5.04-1.08Z" fill="#BEB003"/><path d="m23.9 27.38 1.44.78c.06.03.1.08.13.13.4.7.85 1.33 1.35 1.92.02.02.04.02.06 0 .03 0 .04-.03.03-.06l-.5-1.4c.05.1.08.14.1.12.19.78.49 1.46.9 2.07.43.64.65 1.35.64 2.14 0 .07-.03.12-.08.15a.55.55 0 0 1-.36.07c-.45.04-.85 0-1.18-.1-.98-.22-1.66-.36-2.04-.41a501.84 501.84 0 0 1-4.49-.6c-.38.03-.8 0-1.27-.09a.14.14 0 0 1-.12-.1.9.9 0 0 1-.01-.08l.06-.07.07-.02c.02 0 .04-.03.06-.05a547 547 0 0 1 2.7-3.47c.24-.3.48-.68.73-1.12.1-.2.27-.28.5-.25.44.05.87.2 1.27.44Z" fill="#FAED00"/><path d="M26.24 28.46c.08.1.14.2.17.3l.5 1.4c0 .02 0 .04-.03.06-.02.01-.04 0-.06-.01-.5-.6-.95-1.23-1.35-1.92a.33.33 0 0 0-.13-.13l-1.45-.78c.26-.08.51-.1.74-.05.07.02.12.04.17.09l.33.33c.38.4.75.64 1.11.71Z" fill="#CFC102"/><path d="M37.77 27.57c-.01-.05 0-.07.06-.07h.09l.02.01.48 2 .02.18.02 1.74c0 .08-.04.1-.1.08l-.1-.03c-.12-.04-.17-.11-.13-.24a2 2 0 0 0-.06-1.25c-.1-.28-.15-.54-.12-.77.05-.49-.01-1.04-.18-1.65Z" fill="#BEB003"/><path d="M39.47 32.2c0 .04-.01.06-.04.06h-.1c-.1.01-.17-.05-.18-.18l-.24-3.88c-.01-.13.04-.2.15-.2l.1-.01c.03 0 .05.01.05.05l.26 4.17Z" fill="#9D9001"/><path d="m15.63 29.6.13.05c.06.01.1.05.1.1l.54 1.86.01.07c-.02.2-.06.37-.13.5-.04.06-.02.1.05.13.13.06.24.13.31.23.05.06.04.18-.05.35-.3.59-.42 1.06-.38 1.42a4 4 0 0 1 .46 2.72l-.26 1.14c-.06.3.03.66.27 1.1a13.08 13.08 0 0 1-3.85-6.3c.17-.59.25-1.05.23-1.37 0-.2-.12-.45-.34-.74l-.38-2.05c0-.03.01-.05.04-.05l.06-.01c.05 0 .09.02.1.07a9.4 9.4 0 0 0 .86 2.49l.23 1.17c0 .05.03.07.07.06.05 0 .07-.03.07-.07v-1.35c0-.02 0-.04.02-.05.06-.06.14-.06.26 0 .03.02.07.02.1 0a.1.1 0 0 0 .07-.1c0-.51.03-1 .1-1.43 0-.05.04-.08.1-.08.04 0 .07.03.08.08l.08.66c0 .07.05.1.12.1l.06-.01c.08-.01.12-.06.11-.14a5.8 5.8 0 0 1 .09-1.83c0-.03.02-.04.04-.04.03 0 .04.02.04.04l.17 1.42a.8.8 0 0 1-.12.55c-.27.41-.48.8-.63 1.14-.07.15-.09.4-.05.77.03.34.09.64.17.9.28.84.42 1.6.43 2.3 0 .02 0 .04.03.06h.08a.3.3 0 0 0 .14-.21c.06-.44-.04-1.1-.3-2a8.41 8.41 0 0 1-.22-.83 2.13 2.13 0 0 1-.03-.63c.03-.18.1-.38.24-.61.28-.5.51-1.03.68-1.57Z" fill="#BEB003"/><path d="M27.41 30.94c-.41-.6-.71-1.3-.9-2.07.26.4.5.77.76 1.13.09.14.14.45.14.94Z" fill="#676102"/><path d="M24.68 29.62c.01.02.02.04 0 .06-.01.02-.03.02-.05.02-.35-.1-.73-.07-1.14.08-.04.02-.07 0-.1-.03-.02-.04-.02-.07 0-.08.64-.32 1.07-.34 1.29-.05Z" fill="#CFC102"/><path d="M12.72 30.86c.22.29.33.53.34.74.02.32-.06.78-.23 1.38l-.55-2.12h.44Z" fill="#676102"/><path d="m18.5 31.92.01.08c.02.06.06.1.12.1.47.1.89.12 1.27.1a502.33 502.33 0 0 0 4.5.6c.37.04 1.05.18 2.03.4-.3.14-.62.15-.97.03a1.8 1.8 0 0 0-.58-.14 1 1 0 0 1-.6-.14.23.23 0 0 0-.18-.04c-.24.05-.61.01-1.12-.1a3.36 3.36 0 0 0-.8-.11c-.22.01-.52-.01-.9-.08a5.41 5.41 0 0 0-.87-.09 5.2 5.2 0 0 1-1.5-.23.2.2 0 0 0-.13 0 .3.3 0 0 0-.18.18c-.16-.05-.19-.23-.1-.56Z" fill="#9D9001"/><path d="M26.43 33.2c.33.1.73.14 1.18.1-.54.2-1.02.3-1.45.35-1.63.17-3.27.34-4.91.53-.07 0-.13 0-.19-.03-.9-.44-1.71-1-2.46-1.67a.3.3 0 0 1 .18-.18.2.2 0 0 1 .13 0 5.2 5.2 0 0 0 1.5.23c.22 0 .51.03.88.1.37.06.67.08.89.07.16-.01.43.03.8.11.5.11.88.15 1.12.1.07-.01.13 0 .19.04a1 1 0 0 0 .59.14c.13 0 .32.04.58.14.35.12.67.11.97-.03ZM40.5 32.35l.1 2.1c-.09-.09-.15-.1-.21-.05a.05.05 0 0 0-.02.04l-.07 1.72c-.11-.09-.22-.15-.35-.2l.09-3.25c0-.06.03-.11.08-.14l.38-.22Z" fill="#BEB003"/><path d="m18.54 36.6 3.5 3.95c-.1.01-.14.07-.13.18 0 .03.01.07.04.1.04.06.07.13.07.23.01.09-.03.12-.12.11l-.41-.06h-.04c-.1.01-.16.09-.16.22 0 .06-.05.13-.14.2-.24.17-.43.39-.56.65-1.49-.75-2.8-1.72-3.9-2.9-.25-.45-.34-.82-.28-1.11.1-.38.18-.76.26-1.14a4 4 0 0 0-.46-2.72l1.17 1.21.06.04c.43.26.8.61 1.1 1.04Z" fill="#676102"/><path d="M39.47 39.18c-.14.19-.31.36-.54.5l-.04-.91c0-.04 0-.07-.02-.1a4.2 4.2 0 0 1-.08-1.8.2.2 0 0 1 .14-.16c.12-.05.16-.14.1-.29-.1-.24-.15-.7-.14-1.38V35c0-.05.03-.07.07-.08.04 0 .06.01.08.05.16.4.23.9.23 1.51a.2.2 0 0 1-.06.14l-.12.12a.16.16 0 0 0-.05.16c.1.5.09.98-.01 1.42-.01.04 0 .07.03.1.03.02.07.02.1 0 .1-.06.19-.07.24-.04.06.04.09.13.07.26-.02.2-.03.37 0 .54Z" fill="#CFC102"/><path d="m24.43 43.6-1.73-.5c.27-.15.49-.33.66-.54.13-.15.13-.3 0-.45l-1.33-1.56-3.49-3.95v-.1a.1.1 0 0 1 .06-.1.1.1 0 0 1 .11.01l.56.37a.1.1 0 0 0 .12 0 .1.1 0 0 0 .06-.1v-.36c0-.13-.06-.22-.19-.26l-.74-.22c-.04-.01-.06-.04-.05-.09 0-.04.03-.06.08-.06.37.03.74.12 1.1.27.07.03.1.08.1.16v.7c0 .06.03.11.1.14.74.37 1.34.82 1.8 1.37.05.06.1.06.16 0 .7-.79 1.58-1.03 2.67-.72a.3.3 0 0 0 .22-.03 9.3 9.3 0 0 1 1.64-.65c.6-.16 1.18-.19 1.72-.1.68.13 1.08.19 1.21.18a6.63 6.63 0 0 0 2.27-.52l.16-.1.57-.45a.09.09 0 0 1 .1-.01c.03.02.05.05.04.09a6.1 6.1 0 0 1-2.05 3.77 6.52 6.52 0 0 1-3.9 1.86 4.25 4.25 0 0 1-3.42-1.11c-.02-.02-.04-.03-.07 0-.02.01-.03.03-.01.06l1.47 3Z" fill="#291304"/><path d="M32 36.77a7.03 7.03 0 0 1-3.4 4.04 4.96 4.96 0 0 1-3.35.61 3.16 3.16 0 0 1-2.54-2.11c-.03-.1 0-.14.1-.13 2.08.05 4.14-.21 6.17-.8a6.6 6.6 0 0 0 2.89-1.69c.03-.03.06-.03.1-.01.03.02.04.05.03.1Z" fill="#482200"/><path d="M31.28 36.84c.03 0 .06 0 .07.04.02.03.01.06-.02.08a6.98 6.98 0 0 1-2.69 1.33c-1.81.47-3.4.72-4.77.73-.66 0-1.24-.11-1.76-.36-.07-.03-.09-.09-.05-.16.42-.7 1.16-.95 2.24-.75.24.05.47.02.7-.07l.14-.06c.58-.24 1.01-.4 1.3-.48.5-.13.93-.17 1.32-.12l1.45.18c.14.02.27 0 .4-.02l1.67-.34ZM22.44 40.25c.04.07.03.12-.05.15l-.05.02h-.01l-2.73-3.07c-.02-.02-.02-.05 0-.08.02-.02.04-.03.07-.02.55.22 1.06.55 1.52.98.22.21.52.68.9 1.39.16.32.28.53.35.63Z" fill="#482200"/><path d="m22.03 40.55 1.33 1.56c.13.15.13.3 0 .45-.17.2-.4.39-.66.55l-2.1-.93c.12-.26.3-.48.55-.66.1-.06.14-.13.14-.2 0-.12.05-.2.16-.21h.04l.41.06c.09.01.13-.02.12-.1 0-.1-.03-.18-.07-.25a.18.18 0 0 1-.04-.1c0-.1.03-.16.12-.17Z" fill="#696868"/><defs><linearGradient id="a" x1="10.42" y1="9.71" x2="68.15" y2="76.02" gradientUnits="userSpaceOnUse"><stop stop-color="#1A1E21"/><stop offset="1" stop-color="#06060A"/></linearGradient></defs></svg>