<svg width="112" height="112" xmlns="http://www.w3.org/2000/svg" viewBox="0 0 56 56"><path d="M15 22c0 2.053 1.862 3.995 4 3.995s4-1.942 4-3.995c0-2.052-1.862-4-4-4s-4 1.948-4 4zm8-10h3V22.28C26 25.99 22.866 29 19 29s-6.999-3.288-6.999-7c0-3.711 3.133-7 7-7 1.434 0 2.889.357 3.999 1.067V12zm18 22c0-2.053-1.862-3.995-4-3.995S33 31.947 33 34c0 2.052 1.862 4.005 4 4.005s4-1.953 4-4.005zm-8 10h-3V33.78h.002L30 33.752l-.001-.03C30 30.008 33.134 27 37 27s7 3.288 7 7-3.134 7-7 7c-1.435 0-2.89-.405-4-1.116V44zm1-28c2.053 0 4.004 1.862 4.004 4 0 2.137-1.951 4-4.004 4-2.053 0-3.998-1.863-3.998-4 0-2.138 1.945-4 3.998-4zm-.221-3v.002L33.752 13 33.719 13c-3.713 0-6.722 3.134-6.722 7s3.29 7 7.003 7 7-3.134 7-7c0-1.435-.406-2.89-1.117-4H44v-3H33.779zM18 36c0 2.137 1.948 4 4 4s3.995-1.863 3.995-4c0-2.138-1.943-4-3.995-4s-4 1.862-4 4zm4.22 6.998V43H12v-3h4.145C15.434 38.89 15 37.434 15 36c0-3.866 3.288-7 7-7s7 3.134 7 7-3.009 7-6.72 7a.713.713 0 01-.06-.002z" fill="#FFFFFE"/></svg>