<svg width="224" height="224" viewBox="0 0 56 56" xmlns="http://www.w3.org/2000/svg"><path d="M18.96 18.6c-2.2 2.1-3.43 4.74-3.43 6.9 0 2.15.95 3.6 2.4 4.54 1.5.98 3.55 1.46 5.7 1.46 3.38 0 6.45-1.56 7.52-2.31l1.6 1.31c-1.3.92-5.2 3-9.12 3-2.4 0-4.9-.52-6.82-1.8a7.11 7.11 0 0 1-3.3-6.2c0-2.84 1.55-5.96 4.04-8.34 2.5-2.4 6.04-4.16 10.13-4.16 4.1 0 7.74 1.75 10.41 4.13 2.66 2.37 4.46 5.45 4.78 8.26.26 2.34.28 5.93-1.43 9.36C39.72 38.23 35.58 42 29 43v-2c6.08-1.5 9.19-4.23 10.62-7.13 1.47-2.94 1.48-6.1 1.24-8.26-.25-2.2-1.73-4.86-4.13-7A13.72 13.72 0 0 0 27.68 15c-3.5 0-6.54 1.5-8.72 3.6Z" fill="#F0F3FA"/><circle cx="36.5" cy="25.5" r="1.5" fill="#F0F3FA"/><path d="M35.79 32.5C26.1 39.57 16.37 37.22 13 35l1.01-1.5c2.71 1.78 11.21 4.23 20.16-2.3l1.62 1.3ZM38.5 34c-6.77 6.69-16.03 7.22-19.5 6.5v-2c2.95.61 11.81.61 18-5.5l1.5 1Z" fill="#F0F3FA"/><defs><linearGradient id="aadnzsle4" x1="45.5" y1="6" x2="11" y2="49" gradientUnits="userSpaceOnUse"><stop stop-color="#4375F2"/><stop offset="1" stop-color="#2141E1"/></linearGradient></defs></svg>