<svg width="56" height="56" viewBox="0 0 56 56" xmlns="http://www.w3.org/2000/svg"><path fill-rule="evenodd" d="m18.94 28.54-7.02-6.45a.05.05 0 0 1-.02-.06l.02-.02.03-.01h7.25c.01 0 .02 0 .03.02l3.51 3.22a.05.05 0 0 0 .07 0l3.67-3.2a.05.05 0 0 1 .06 0l11.18 9.62a.05.05 0 0 0 .06 0l11.13-9.57a.05.05 0 0 1 .05-.01l.02.02H49l.01.02v2.05a.05.05 0 0 1-.02.04l-11.2 9.78a.05.05 0 0 1-.06 0l-11.17-9.76a.05.05 0 0 0-.07 0l-2.43 2.14a.05.05 0 0 0-.01.05v.02l8.14 7.47a.05.05 0 0 1 .01.06.05.05 0 0 1-.04.03H24.9l-.03-.02-4.62-4.24-.03-.01h-.03l-4.86 4.25-.04.02h-2.41a.05.05 0 0 1-.05-.03v-.03c0-.01 0-.02.02-.03l6.1-5.3a.05.05 0 0 0 .01-.04.05.05 0 0 0-.01-.03Zm6.67 4.6L14.48 22.92a.05.05 0 0 1-.02-.05l.02-.02h4.07l.03.01L29.7 33.08a.05.05 0 0 1 .01.06l-.01.02h-4.07l-.03-.01ZM14.65 26.4l-8.63 7.52a.05.05 0 0 0 0 .07h2.47l7.39-6.44a.05.05 0 0 0 .01-.04v-.02l-.01-.01-1.17-1.07a.04.04 0 0 0-.06 0Z" fill="#fff"/><defs><linearGradient id="a" x1="10.42" y1="9.71" x2="68.15" y2="76.02" gradientUnits="userSpaceOnUse"><stop stop-color="#1A1E21"/><stop offset="1" stop-color="#06060A"/></linearGradient></defs></svg>