<svg width="224" height="224" viewBox="0 0 56 56" xmlns="http://www.w3.org/2000/svg"><ellipse cx="28" cy="27.99" rx="17" ry="16.99" fill="#030204"/><path d="M33.8 11.93c-4.08-.17-8.16-.11-12.23.2 1.26-.55 2.79-.9 4.56-1.04 2.52-.2 5.3-.1 7.67.84Z" fill="#3781DE"/><path d="M33.8 11.93c1.27.36 2.34.92 3.22 1.67-.26.35-.57.48-.93.4a1.93 1.93 0 0 1-.66-.42c-.6-.5-1.53.38-2 .76-.13.12-.4.2-.8.23a.28.28 0 0 1-.2-.08c-.18-.16-.41-.19-.7-.07a4.4 4.4 0 0 1-2.19.35.26.26 0 0 0-.27.34l.43 1.2c-.46.23-1.43.23-1.37 1a3.54 3.54 0 0 1-1.01-.2c-.3-.15-.62-.18-.96-.12l-.21-1.1a.23.23 0 0 0-.16-.18 1.9 1.9 0 0 0-.8-.06c.01-.62-.9-.6-1.14-.88a.24.24 0 0 0-.1-.08.24.24 0 0 0-.14 0c-.3.08-.66.09-1.08.03-.52-.07-.72-.59-1.26-.68a.3.3 0 0 1-.19-.12c-.18-.24-.4-.25-.68-.03a.24.24 0 0 1-.13.06c-.05 0-.1-.01-.14-.04-.37-.2-.71-.1-1.01.31a.24.24 0 0 1-.2.1c-.33 0-.6.03-.8.12-.29.2-.4.44-.33.69a.21.21 0 0 1-.13.24.2.2 0 0 1-.1.01 2.56 2.56 0 0 1-.95-.33c1.4-1.2 2.98-2.17 4.76-2.93 4.07-.3 8.15-.36 12.23-.19Z" fill="#0066D5"/><path d="M37.02 13.6a5.2 5.2 0 0 1 2.18 1.62c.3.41.67.72 1.13.93.31.15.68.6 1.1 1.35-2.15.05-3.96-.16-5.99-.33a1 1 0 0 0-.08-.64.28.28 0 0 0-.21-.13c-2.05-.2-3.48-.32-4.28-.34-.32-.02-.7.07-1.17.24l-.43-1.2a.26.26 0 0 1 .27-.33 4.4 4.4 0 0 0 2.19-.35c.29-.12.52-.1.7.07a.28.28 0 0 0 .2.08c.4-.04.67-.11.8-.23.47-.38 1.4-1.26 2-.76.3.25.51.4.66.42.36.08.67-.05.93-.4ZM25.2 15.65l-3.36-.19a.4.4 0 0 0-.1 0l-2.5.54c.15-.21.26-.4.33-.58.06-.17.03-.29-.1-.37a.58.58 0 0 0-.43-.05c.1-.16.07-.3-.07-.43a.25.25 0 0 0-.14-.07l-.51-.06c.2-.09.47-.13.8-.12a.23.23 0 0 0 .2-.1c.3-.41.64-.52 1.01-.3l.14.03c.05 0 .1-.03.13-.06.27-.22.5-.21.68.03.05.06.11.1.19.12.54.1.74.6 1.26.68.42.06.78.05 1.08-.03a.24.24 0 0 1 .13 0c.05.02.09.05.11.08.24.29 1.15.26 1.15.88Z" fill="#A7C8EA"/><path d="m18.32 14.44.51.06c.05 0 .1.03.14.07.14.13.16.27.07.43l-.67 1.58a.2.2 0 0 1-.2.12l-1.1-.03c-.09 0-.17 0-.26.03l-2.08.54 2.08-2.2c.28.18.6.3.94.34a.2.2 0 0 0 .19-.06.21.21 0 0 0 .05-.2c-.07-.24.04-.47.33-.68Z" fill="#B3C5E8"/><path d="m19.25 16-.04 1.8-4.98.1a2 2 0 0 1 .5-.66l2.08-.54a.93.93 0 0 1 .26-.03l1.1.03a.2.2 0 0 0 .2-.12l.67-1.58a.58.58 0 0 1 .44.05c.12.08.15.2.09.37-.07.17-.18.37-.32.58Z" fill="#55A3E2"/><path d="m28.33 17.3.04 1.7a4.99 4.99 0 0 0-2.1-.11 5.79 5.79 0 0 1 .1-1.9c.33-.06.65-.03.95.11.2.09.53.16 1 .2Z" fill="#B3C5E8"/><path d="M41.43 17.5a16.26 16.26 0 0 1 2.76 5.22.12.12 0 0 1-.05.13.12.12 0 0 1-.15-.01l-.54-.55a.33.33 0 0 1-.1-.22c-.03-.4-.3-.57-.8-.52a2.01 2.01 0 0 0-.88-.13.42.42 0 0 1-.4-.2c-.42-.68-.84-1.1-1.26-1.28a.52.52 0 0 0-.43.02l-1.41.73a5.28 5.28 0 0 1-1.7.99l-1 .06-.03-4.57c2.03.17 3.84.38 5.99.33Z" fill="#55A3E2"/><path d="M19.2 17.8v7.94a.3.3 0 0 1-.29.3l-2.21-.01-3.2.01-2.36-.01.28-1.85a.23.23 0 0 1 .2-.2l1.53-.09 2.63-.4a.18.18 0 0 0-.02-.37c-.3-.02-.65-.1-1.04-.26a4.63 4.63 0 0 1-.72-.63c-.53-.5-1.05-.28-1.65-.98a11.1 11.1 0 0 1 1.88-3.35l4.98-.1ZM28.37 19l.02 3.73-2.14-.44.02-3.4a5 5 0 0 1 2.1.1Z" fill="#2292DD"/><path d="m42.55 21.55 1.18 1.32a.3.3 0 0 1 .05.33l-.52 1.06c-.19.66-.17 1.29.05 1.89.1.15.13.33.1.56a3 3 0 0 0-.06.57c0 .32-.01.63-.07.91l-.23 2.25c-.02.1-.06.2-.1.28-.05.1-.12.15-.22.16a.85.85 0 0 1-.35-.07l-2.83-.04a.2.2 0 0 1-.12-.04.2.2 0 0 1-.07-.11l-.47-2.1a.15.15 0 0 1 .08-.17l.07-.01h3.1a.12.12 0 0 0 .1-.04.13.13 0 0 0 .03-.1l-.23-1.97c.21-.17.3-.7.28-1.56l-.09-1.84a.39.39 0 0 0-.23-.34c-1.03-.44-1.9-.93-2.77-.96-.84-.03-1.75.87-2.77.15a5.28 5.28 0 0 0 1.71-1l1.41-.72a.5.5 0 0 1 .43-.02c.42.17.84.6 1.25 1.28a.42.42 0 0 0 .4.2c.27-.03.56.01.9.13Z" fill="#CCCCE4"/><path d="m42.32 24.67-4.7.15a.4.4 0 0 1-.26-.07 2.37 2.37 0 0 0-1.9-.46v-2.55l1-.06c1.02.72 1.93-.18 2.77-.15.86.03 1.74.52 2.77.96a.39.39 0 0 1 .23.34l.09 1.84Z" fill="#A7C8EA"/><path d="M12.35 21.25c.6.7 1.12.47 1.65.98.4.4.64.6.72.63.4.15.74.24 1.04.26a.18.18 0 0 1 .02.36l-2.63.41-.79-.04a.17.17 0 0 1-.16-.15 5.97 5.97 0 0 1 .15-2.45ZM28.4 22.73l.05 1.95c-.9-.16-1.62-.05-2.17.34l-.03-2.73 2.14.44Z" fill="#B3C5E8"/><path d="M43.31 26.15a2.99 2.99 0 0 1-.05-1.89c.42.08.77.04 1.03-.12a.18.18 0 0 1 .23.03c.02.01.03.04.04.06.2.56.3 1.13.3 1.7 0 .06-.02.1-.06.14a.2.2 0 0 1-.13.05l-1.36.03Z" fill="#3781DE"/><path d="M42.32 24.67c.03.87-.07 1.39-.28 1.56a11.9 11.9 0 0 0-4.01-.12l-2.52-.02-.04-1.8c.65-.13 1.28.02 1.9.46a.4.4 0 0 0 .24.07l4.7-.15ZM28.45 24.68c.05.36.04.77-.04 1.22a.19.19 0 0 1-.2.15l-1.71-.11a.23.23 0 0 1-.21-.18 1.5 1.5 0 0 1-.01-.74c.55-.4 1.28-.5 2.17-.34Z" fill="#2292DD"/><path d="m16.7 26.03-.42 1.94a.38.38 0 0 1-.37.3h-2.87a.17.17 0 0 1-.13-.07.16.16 0 0 1-.03-.15l.61-2 3.2-.02ZM38.03 26.1l.44 2a.14.14 0 0 1-.08.15.14.14 0 0 1-.06.02h-2.91a.32.32 0 0 1-.32-.25l-.15-.7a.32.32 0 0 1 .13-.34c.28-.2.42-.5.43-.9l2.52.03Z" fill="#CCCCE4"/><path d="m43.37 33.6-1 .06.01-2.85c.13.05.24.07.35.07.1 0 .17-.06.22-.16.04-.08.07-.17.1-.28v2.92c0 .04.02.08.05.12.03.04.06.06.1.08l.16.05Z" fill="#61606C"/><path d="m11.93 33.5-.08-1.88c.05-.48.25-.78.76-.78a475.38 475.38 0 0 1 2.87.01.21.21 0 0 1 .12.24l-.5 2.19a.3.3 0 0 1-.3.24l-2.87-.02Z" fill="#CCCCE4"/><path d="m44.68 31-.6 2.27-.65-2.09a.18.18 0 0 1 .08-.2c.29-.16.68-.15 1.17.03Z" fill="#61606C"/><path d="M41.93 33.68h.1a.04.04 0 0 1 0 .04.04.04 0 0 1-.02.04c-.28.11-.72.23-1.3.36-.23.05-.36.27-.4.64a2.08 2.08 0 0 1-.13-.96.17.17 0 0 1 .13-.15h.07c.51.1 1.03.12 1.55.03Z" fill="#888696"/><path d="m42.37 33.66 1-.05.26.1a13.6 13.6 0 0 1-.36 1.75c-.11.32-.32.7-.62 1.11h-1.59a.52.52 0 0 1-.5-.43l-.25-1.38c.04-.37.17-.59.4-.64a8.64 8.64 0 0 0 1.33-.4.04.04 0 0 0-.02-.03c-.02-.02-.05-.02-.09 0l.44-.03ZM13.48 36.64c.26-.01.49 0 .68.06a.2.2 0 0 1 .13.19c.01.2-.04.42-.14.67-.43-.18-.65-.49-.67-.92Z" fill="#CCCCE4"/><path d="M40.1 36.67a2.14 2.14 0 0 0-1.01.08.16.16 0 0 0 .02.31c.45.1.88.06 1.28-.09.08.37.15.74.21 1.13.05.27.3.48.15.84-.66-.4-1.96-.15-2.5.08a.38.38 0 0 1-.16.03c-.35 0-.67-.19-.98-.57a.16.16 0 0 0-.28.08l-.06.8c-.07.02-.1 0-.12-.07-.17-.83-.25-1.64-.23-2.45a.16.16 0 0 1 .16-.15l3.51-.02Z" fill="#61606C"/><path d="M40.1 36.67c.11.04.21.14.3.3-.41.16-.84.19-1.29.1a.16.16 0 0 1-.1-.25.16.16 0 0 1 .08-.07c.28-.1.61-.13 1-.08ZM40.1 39.93c-1 .04-1.97.04-2.93 0-.15 0-.26-.05-.3-.14a.75.75 0 0 1-.06-.36l.03-.45a.16.16 0 0 1 .13-.14.15.15 0 0 1 .17.08c.2.39.53.54.97.46a9.02 9.02 0 0 0 1.8-.46.48.48 0 0 1 .56.73c-.06.08-.18.18-.37.28Z" fill="#CCCCE4"/><path d="m32.38 40.05.19 1.76a.23.23 0 0 0 .23.2h3.19a.2.2 0 0 0 .12-.03.19.19 0 0 0 .06-.1l.38-1.42.29 2.05c-.78.54-1.59.94-2.44 1.22l-1.63.02a.17.17 0 0 1-.17-.13c-.23-1.23-.3-2.42-.22-3.57Z" fill="#888696"/><path d="m36.55 40.46-.38 1.42a.19.19 0 0 1-.06.1.2.2 0 0 1-.12.04h-3.2a.23.23 0 0 1-.15-.06.22.22 0 0 1-.07-.15l-.19-1.76 3.82.03c.12 0 .2.03.26.1a.5.5 0 0 1 .1.28Z" fill="#CCCCE4"/><path d="M32.28 44.47c-1.57.35-3.19.53-4.85.53.25-.27.35-.55.3-.85a.22.22 0 0 1 .13-.23.21.21 0 0 1 .09-.02h3.98a.21.21 0 0 1 .2.15l.15.42Z" fill="#61606C"/><path d="M22.7 16.32c1.15.04 2.08-.05 2.09-.2 0-.14-.92-.3-2.07-.33-1.14-.04-2.07.05-2.08.2 0 .14.92.3 2.07.33Z" fill="#55A3E2"/><path d="m24.33 16.63 1.25-.41a.27.27 0 0 1 .36.26v9.3a.27.27 0 0 1-.19.25l-1.25.41a.27.27 0 0 1-.36-.26v-9.3a.27.27 0 0 1 .19-.25Z" fill="#D95440"/><path d="m30.55 29.54-1.88-.12a.22.22 0 0 0-.22.13.22.22 0 0 0-.02.09v9.74a.18.18 0 0 1-.11.17.17.17 0 0 1-.08.01l-3.89-.26a.22.22 0 0 1-.2-.22v-9.76a.2.2 0 0 0-.06-.14.2.2 0 0 0-.14-.06l-1.9-.13a.21.21 0 0 1-.15-.07.22.22 0 0 1-.06-.15v-2a.49.49 0 0 0-.49-.49h-1.67a.17.17 0 0 1-.11-.05.17.17 0 0 1-.05-.12v-9.54a.17.17 0 0 1 .05-.13.17.17 0 0 1 .13-.04l3.92.26a.22.22 0 0 1 .2.22v9.75a.23.23 0 0 0 .23.23l4.4.3a.3.3 0 0 0 .28-.18.29.29 0 0 0 .02-.11v-9.7a.13.13 0 0 1 .1-.13h.05l3.98.26a.16.16 0 0 1 .15.16v9.58a.1.1 0 0 1-.11.1L30.96 27a.2.2 0 0 0-.22.2v2.15a.18.18 0 0 1-.19.18Z" fill="#fff"/><path d="m34.1 16.54.01.01c0 .12-.13.23-.36.3-.23.08-.53.12-.85.1l-1.92-.05a3.05 3.05 0 0 1-.85-.16.82.82 0 0 1-.25-.15c-.06-.06-.1-.12-.09-.18l4.32.13Z" fill="#CDC273"/><path d="m35.03 26.62-1.48.48a.17.17 0 0 1-.23-.16V17.4a.17.17 0 0 1 .12-.16l1.49-.48a.17.17 0 0 1 .22.16v9.54a.17.17 0 0 1-.12.16ZM28.4 26.76a.08.08 0 0 1-.02.05.08.08 0 0 1-.06.03h-.04a38.87 38.87 0 0 1-2.18-.16l-.66-.1c-.15-.04-.22-.07-.22-.1v-.07c.02-.06.34-.1.92-.12.58-.02 1.35 0 2.16.03h.04a.08.08 0 0 1 .06.02.08.08 0 0 1 .02.06l-.01.36Z" fill="#D752C6"/><path d="m21.32 26.6-.63-.04a.3.3 0 0 0-.32.28l-.08 1.11a.3.3 0 0 0 .28.32l.63.04a.3.3 0 0 0 .32-.27l.08-1.12a.3.3 0 0 0-.28-.32Z" fill="#CCCCE4"/><path d="M31.38 29.43a.25.25 0 0 1-.3-.12.25.25 0 0 1-.03-.12v-1.52a.32.32 0 0 1 .34-.32l1.33.08c.06 0 .12.04.16.08.04.05.06.11.06.18l-.08 1.06a.3.3 0 0 1-.2.27l-1.28.41Z" fill="#D95440"/><path d="m19.86 28.54-.29 2.07a.18.18 0 0 1-.18.16h-3.06a.19.19 0 0 1-.19-.2l.3-2.08a.19.19 0 0 1 .18-.16h3.06a.19.19 0 0 1 .18.2ZM34.83 28.6l.24 1.86a.29.29 0 0 1-.28.32h-2.94a.24.24 0 0 1-.23-.16c-.05-.14-.07-.4-.05-.77a.22.22 0 0 1 .16-.2l1.23-.4a.22.22 0 0 0 .1-.07.77.77 0 0 0 .13-.6.23.23 0 0 1 .22-.26h1.1a.33.33 0 0 1 .32.29Z" fill="#CCCCE4"/><path d="m29.1 29.73 1.23.08a.32.32 0 0 1 .3.32v8.67a.32.32 0 0 1-.25.31l-1.24.27a.32.32 0 0 1-.39-.3v-9.03a.32.32 0 0 1 .35-.32Z" fill="#00A264"/><path d="m19.64 33.33.15-2.34a.17.17 0 0 1 .17-.16h3.3a.17.17 0 0 1 .18.19l-.16 2.33a.17.17 0 0 1-.17.16h-3.3a.18.18 0 0 1-.17-.18ZM31.09 30.82h-.02c-.12 0-.22.1-.21.23l.07 2.31c0 .13.1.22.23.22h.02c.12 0 .22-.1.21-.23l-.07-2.32c0-.12-.1-.22-.23-.21ZM39.18 31.31l-3.44.85-.19-1.07a.2.2 0 0 1 .12-.22 72.73 72.73 0 0 1 3.18 0c.2 0 .3.15.33.44Z" fill="#CCCCE4"/><path d="m35.75 32.16 3.43-.85.41 2.02a.15.15 0 0 1-.03.12.15.15 0 0 1-.11.06h-3.34a.28.28 0 0 1-.28-.27l-.08-1.08Z" fill="#61606C"/><path d="m14.91 36.42.38-2.7a.14.14 0 0 1 .14-.11h3.5a.14.14 0 0 1 .13.1l.01.06-.38 2.68a.14.14 0 0 1-.13.13h-3.5a.14.14 0 0 1-.15-.16Z" fill="#CCCCE4"/><path d="M23.49 36.6a.07.07 0 0 1-.07-.07l.01-.52a27.83 27.83 0 0 1 .1-1.73l.08-.52c.03-.12.06-.18.09-.18h.06c.05.01.1.27.12.73.02.45.03 1.07 0 1.7v.53a.07.07 0 0 1-.03.05.07.07 0 0 1-.05.02l-.31-.01Z" fill="#A7C8EA"/><path d="m35.5 33.65-1.88.47a.32.32 0 0 0-.2.46l.4.69a.2.2 0 0 1-.12.3l-1.67.39-.16-2.22a.14.14 0 0 1 .04-.1.14.14 0 0 1 .1-.05l3.5.06Z" fill="#CCCCE4"/><path d="m32.03 35.96 1.67-.4a.2.2 0 0 0 .12-.3l-.4-.68a.32.32 0 0 1 .2-.46l1.88-.47.4 2.68a.24.24 0 0 1-.14.25 122.04 122.04 0 0 1-3.24 0c-.35-.01-.52-.22-.49-.62Z" fill="#61606C"/><path d="m22.98 36.91-.19 2.86a.23.23 0 0 1-.22.2h-3.73a.23.23 0 0 1-.22-.15.23.23 0 0 1 0-.1l.4-2.86a.23.23 0 0 1 .22-.19h3.52a.23.23 0 0 1 .22.24Z" fill="#CCCCE4"/><path d="M31.99 39.8c-.32-.29-.88-.36-1.69-.22.37-.11.57-.36.6-.77l.1-1.97c0-.14.1-.22.26-.24a.35.35 0 0 1 .39.34c.02.83.13 1.78.34 2.86Z" fill="#61606C"/><path d="M30.3 39.58c.8-.14 1.37-.07 1.69.22a7.11 7.11 0 0 1-2.64.08.08.08 0 0 1-.02-.04v-.05l.04-.04c.3-.13.62-.2.93-.17Z" fill="#9E9E9E"/><path d="M27.2 42.8c-.05.32-.2.5-.44.54l-.07-.01a.1.1 0 0 1-.04-.04c-.03-.04-.08-.06-.15-.06-.83-.01-1.64.02-2.42.1a.27.27 0 0 1-.23-.09l-.8-.9v-1.92a.47.47 0 0 1 .51-.47l3.48.23c.08 0 .16.04.2.1a.3.3 0 0 1 .09.22l-.13 2.3Z" fill="#B9ACC3"/><path d="M27.2 42.8c.06.3.03.55-.08.76a.27.27 0 0 1-.24.16H23.2a.21.21 0 0 1-.2-.14.22.22 0 0 1-.01-.09l.06-1.16.8.91a.26.26 0 0 0 .23.1c.78-.09 1.6-.12 2.43-.11.06 0 .11.02.14.06a.1.1 0 0 0 .04.04h.07c.24-.04.4-.21.44-.53Z" fill="#61606C"/></svg>