<svg width="112" height="112" viewBox="0 0 56 56" xmlns="http://www.w3.org/2000/svg"><rect fill="#F0F3FA" width="56" height="56" rx="28"/><circle cx="29" cy="28" r="13" fill="#B75868"/><path fill-rule="evenodd" d="M33 12h-9v1h-3v1h-1v1h-1v1h-2v1h-1v1h-1v2h-1v3h-1v2h-1v6h1v2h1v3h1v2h1v1h1v1h2v1h1v1h1v1h1v1h11v-1h1v-1h2v-1h2v-1h1v-1h1v-1h1v-2h1v-3h1v-2h1v-6h-1v-2h-1v-3h-1v-2h-1v-1h-1v-1h-1v-1h-2v-1h-1v-1h-2v-1Zm1 2h-2v-1h-7v1h-3v1h-1v1h-1v1h-2v1h-1v1h-1v2h-1v3h-1v2h-1v4h1v2h1v3h1v2h1v1h1v1h2v1h1v1h1v1h1v1h9v-1h1v-1h2v-1h2v-1h1v-1h1v-1h1v-2h1v-3h1v-2h1v-4h-1v-2h-1v-3h-1v-2h-1v-1h-1v-1h-1v-1h-2v-1h-1v-1Z" fill="#172222"/><path d="M18 17h1v1h-1v-1ZM17 19v-1h1v1h-1ZM17 19v1h-1v-1h1ZM15 21h1v2h-1v-2ZM15 24h-1v1h1v-1ZM14 31h1v1h-1v-1ZM16 33h-1v2h1v2h1v1h1v1h1v-1h-1v-1h-1v-2h-1v-2ZM14 26h-1v4h1v-4Z" fill="#C7C8CB"/><path d="M25 13h7v1h-7v-1Zm-3 1h2v1h-1v1h-2v-1h1v-1Zm-2 3v-1h1v1h-1Zm-1 1v-1h1v1h-1Zm-1 1v-1h1v1h-1Zm-1 1v-1h1v1h-1Zm-1 3v-3h1v3h-1Zm-1 2v-2h1v2h-1Zm0 6h-1v-6h1v6Zm1 2h-1v-2h1v2Zm1 3h-1v-3h1v3Zm1 1h-1v-1h1v1Zm1 1h-1v-1h1v1Zm1 1h-1v-1h1v1Zm1 1h-1v-1h1v1Zm3 2v-1h-1v-1h-2v1h1v1h1v1h9v-1h-8Z" fill="#445150"/><path fill="#913648" d="M35 39h2v1h-2z"/><path d="M33 15h-7v1h-3v-1h1v-1h9v1ZM35 16h-2v-1h2v1ZM37 17h-2v-1h2v1ZM38 18h-1v-1h1v1ZM39 19h-1v-1h1v1ZM39 19h1v1h-1v-1ZM21 17h2v-1h-2v1ZM20 18v-1h1v1h-1ZM19 19h1v-1h-1v1ZM19 37h-1v-1h-1v-3h-1v-2h-1v-6h1v-2h1v-3h1v-1h1v2h-1v4h-1v6h1v4h1v2ZM20 38h-1v-1h1v1ZM21 39h-1v-1h1v1ZM23 40h-2v-1h2v1ZM33 41v1h-9v-1h-1v-1h3v1h7ZM33 41v-1h2v1h-2ZM38 38h-1v1h1v-1ZM39 37v1h-1v-1h1ZM39 37v-1h1v1h-1ZM40 34h1v1h-1v-1ZM40 22h1v-1h-1v1ZM42 25h-1v-1h1v1ZM42 26h1v4h-1v-4Z" fill="#F1F1F4"/><path d="M37 17h-1v1h1v1h1v1h1v2h1v-2h-1v-1h-1v-1h-1v-1Z" fill="#080808"/><path fill="#913648" d="M23 39h3v1h-3zM41 25h1v6h-1zM40 22h1v3h-1zM40 31h1v3h-1zM39 34h1v2h-1z"/><path fill="#F1F1F4" d="M40 32h1v2h-1zM41 30h1v2h-1z"/><path fill="#913648" d="M38 36h1v1h-1zM37 37h1v1h-1zM35 38h2v1h-2zM33 39h2v1h-2z"/><path d="M33 15h-7v1h-3v1h-2v1h-1v1h-1v2h-1v4h-1v6h1v4h1v2h1v1h1v1h1v-1h-1v-1h-1v-2h-1v-4h-1v-6h1v-4h1v-2h1v-1h2v-1h3v-1h7v1h2v-1h-2v-1Z" fill="#080808"/><path fill="#913648" d="M26 40h7v1h-7z"/><path d="M33 19h-7v5h-6v7h6v6h7v-6h6v-7h-6v-5Z" fill="#E5E6F0"/><path d="M33 29h6v2h-6v6h-7v-1h1v-1h3v-1h2v-4h1v-1ZM20 30h7v2h-1v-1h-6v-1Z" fill="#B8B8D2"/></svg>