<svg width="224" height="224" viewBox="0 0 56 56" xmlns="http://www.w3.org/2000/svg"><path d="M37.79 14a.38.38 0 0 1 .31.18l1.57 2.63 2.05 3.44 1.26 2.14a.1.1 0 0 1 .02.09.13.13 0 0 1-.06.07l-.55.3c-.06-.02-.1-.06-.1-.1 0-.03.02-.07.06-.1.1-.1.12-.2.06-.29-.64-1.1-1.25-2.1-1.82-3-.24-.38-.48-.89-.77-1.31-.26-.38-.4-.82-.67-1.2a5.1 5.1 0 0 1-.45-.73c-.27-.55-.64-1.05-.94-1.6-.05-.09-.15-.11-.3-.08a1.03 1.03 0 0 0-.4.01l-8.74-.01-10.02-.02a.43.43 0 0 0-.23.06.41.41 0 0 0-.16.18c-.5 1-1.06 2-1.7 2.97a32 32 0 0 0-1.9 3.32c-.08.16-.25.41-.52.76a1.3 1.3 0 0 1-.49.16l3.38-5.67 1.2-2a.4.4 0 0 1 .36-.2h19.55Z" fill="#DEF2FA"/><path d="M28.32 14.44c.08.25.19.48.31.7l1 1.7c.02.02.05.05.1.06h.1c.78-.38 1.6-.58 2.37-.86a85.3 85.3 0 0 1 4.86-1.59.9.9 0 0 1 .4 0c.08.04.1.1.09.15-.19.48-.41.94-.68 1.37a307.25 307.25 0 0 0-3.1 5.21 8.72 8.72 0 0 1-.94 1.37H13.46a.08.08 0 0 0-.03-.04l.13-.02c.04 0 .06-.03.07-.07l.16-.71c.27-.35.44-.6.52-.76a32 32 0 0 1 1.9-3.32c.64-.97 1.2-1.96 1.7-2.97a.41.41 0 0 1 .16-.18.43.43 0 0 1 .23-.06l10.02.02Z" fill="#74EDFE"/><path d="M37.06 14.45a85.22 85.22 0 0 0-4.86 1.59c-.78.28-1.6.48-2.36.85a.16.16 0 0 1-.12.01.15.15 0 0 1-.09-.07l-1-1.7a3.38 3.38 0 0 1-.3-.7l8.73.02Zm5.33 8.41L31.7 28.84l-3.67 2.03a.05.05 0 0 1-.07-.03v-.03c.11-.27.23-.52.36-.73 1.5-2.49 3-5 4.5-7.53.3-.35.62-.8.95-1.37a306.2 306.2 0 0 1 3.1-5.2c.26-.44.48-.9.67-1.38.02-.05-.01-.1-.09-.16.15-.03.25 0 .3.08.3.55.67 1.05.94 1.6.14.27.28.51.45.74.26.37.4.8.67 1.19.29.42.53.93.77 1.31.57.9 1.18 1.9 1.82 3 .06.1.04.19-.06.29-.04.03-.06.07-.06.1 0 .04.04.08.1.1Z" fill="#9EF1FF"/><path d="M14.6 21.97a.35.35 0 0 1 .09-.05l14.79-4.97c.04-.02.1-.02.14 0 .05.01.1.04.12.08.26.4.5.8.73 1.18l2.3 3.9c.05.1.02.14-.1.14-.3 0-.61-.01-.94-.04-.96-.07-1.92-.02-2.9.02-.66.04-1.3.05-1.9.05-1.94 0-3.85.02-5.83-.05-2.57-.09-4.46-.02-6.66.06-.07 0-.11-.04-.13-.12a.08.08 0 0 1 .06-.1.68.68 0 0 0 .22-.1Z" fill="#38E5FE"/><path d="m13.79 21.7-.16.72c0 .04-.03.06-.07.07l-.13.02a.72.72 0 0 1-.36 0 .09.09 0 0 1-.06-.04.08.08 0 0 1 0-.07l.29-.53c.17-.02.33-.08.49-.16Z" fill="#9EF1FF"/><path d="M27.07 33.46h15.81l.05.01a.1.1 0 0 1 .06.1.1.1 0 0 1-.01.04l-.3.52-2.64 4.44-1.64 2.77c-.13.21-.35.64-.63.65-.05-.01-.05-.04-.08-.07-.03-.04-.03-.07 0-.1l.1-.12 1.9-3.15c.1-.16.14-.32.26-.47l.2-.3c.28-.5.6-.97.8-1.5a.34.34 0 0 1 .15-.17.28.28 0 0 0 .1-.1l1.15-1.91c.07-.13.04-.2-.1-.23a5.2 5.2 0 0 0-1.55 0l-5.14.03-12.75-.02c-.15-.2-.07-.5.21-.93.22-.32.4-.6.53-.84.54-.94 1.16-2 1.88-3.16l1.7-2.77a.13.13 0 0 0-.03-.16c-.03-.03-.06-.04-.08-.02a252.36 252.36 0 0 0-5.5 3.1 13 13 0 0 0-1.02.56c-.64.37-1.3.7-1.94 1.09-.34.2-.72.42-1.14.63-.38.2-.76.4-1.12.62a71.33 71.33 0 0 1-3.21 1.79.37.37 0 0 0-.07-.15.14.14 0 0 1 .01-.16.15.15 0 0 1 .04-.04l1.33-.75 3.26-1.82 10.25-5.72a.06.06 0 0 1 .06 0c0 .02.01.02.02.03v.03c-.06.17-.13.33-.23.49a9124.23 9124.23 0 0 0-4.57 7.7.07.07 0 0 0 .04.06h3.84Z" fill="#DEF2FA"/><path d="m22.81 33.88-4.59 7.7a.08.08 0 0 0 .03.12l.05.01c.35 0 .7-.07 1.04-.2l.57-.22c2.1-.7 4.2-1.4 6.28-2.12.04-.02.1-.02.14 0a.2.2 0 0 1 .1.09l1.39 2.38.09.09.12.03c3.12-.03 6.23-.02 9.34.05a.8.8 0 0 0 .42-.11l-.1.11c-.03.04-.03.07 0 .1.03.04.07.08.12.09H18.13a.28.28 0 0 1-.24-.13l-1.3-2.19-3.5-5.89a57.7 57.7 0 0 0 3.2-1.8c.38-.21.75-.42 1.13-.61.42-.21.8-.42 1.14-.63.64-.4 1.3-.72 1.94-1.1a13 13 0 0 1 1.03-.54c.22-.11.44-.23.65-.36l.66-.4c1.4-.8 2.79-1.59 4.18-2.35.02-.02.05-.01.08.02a.13.13 0 0 1 .02.16c-.54.9-1.11 1.82-1.7 2.77a98.4 98.4 0 0 0-1.87 3.16c-.13.25-.31.52-.53.84-.28.42-.36.73-.2.93Z" fill="#85DCE8"/><path d="M37.79 41.7a.8.8 0 0 1-.42.11c-3.11-.07-6.22-.08-9.34-.05a.25.25 0 0 1-.21-.12l-1.38-2.38a.2.2 0 0 0-.11-.09.21.21 0 0 0-.14 0l-6.28 2.12-.57.22a2.91 2.91 0 0 1-1.09.19.08.08 0 0 1-.04-.07l.01-.05 4.6-7.7 12.74.02c-.58.1-1.08.15-1.5.15a321.1 321.1 0 0 0-7.06 0c-.76.01-1.54-.02-2.34-.1a2.1 2.1 0 0 0-1.12.22c-.04.02-.05.05-.04.09.04.15.1.3.19.43.84 1.38 1.7 2.81 2.56 4.3a.2.2 0 0 0 .1.09h.15c4.2-1.43 8.17-2.76 11.91-4 .98-.32 1.84-.64 2.56-.94.08-.03.09-.08.12-.15.03-.06 0-.1-.06-.1l-.33-.02a5.2 5.2 0 0 1 1.54 0c.15.03.18.1.1.23l-1.15 1.92a.28.28 0 0 1-.1.1.33.33 0 0 0-.14.16c-.2.53-.52 1-.8 1.5l-.2.3c-.12.15-.16.3-.26.47l-1.9 3.15Z" fill="#50CDDF"/><path d="m40.7 33.87.33.02c.07 0 .09.04.06.1-.03.07-.04.12-.12.15-.72.3-1.58.62-2.56.94-3.74 1.24-7.7 2.57-11.91 4a.22.22 0 0 1-.15 0 .2.2 0 0 1-.1-.1c-.86-1.48-1.72-2.91-2.56-4.29a1.72 1.72 0 0 1-.2-.43c0-.04 0-.07.05-.09a2.1 2.1 0 0 1 1.12-.22c.8.08 1.58.11 2.34.1 2.68-.03 5.03-.03 7.05 0 .43 0 .93-.05 1.5-.15l5.15-.03Z" fill="#06B7D1"/><defs><linearGradient id="a" x1="8.07" y1="0" x2="47.46" y2="56" gradientUnits="userSpaceOnUse"><stop stop-color="#08989D"/><stop offset=".41" stop-color="#02161A"/><stop offset=".69" stop-color="#013042"/><stop offset="1" stop-color="#008179"/></linearGradient></defs></svg>