<svg width="112" height="112" viewBox="0 0 56 56" xmlns="http://www.w3.org/2000/svg"><rect fill="url(#akadi2oet)" width="56" height="56" rx="28"/><path d="M16.68 18.33c-.23.39-.3 1.22-.3 1.58l4.5 15.71c1.2.59 5.62 1.42 13.75 0 8.12-1.42 7.5-6.58 6.18-8.98l-2.67-4.8-.8-1.2-.83.11-8.96-1.83-5.71.27c-.82-.02-2.64-.2-3.3-.86-.81-.81-1.56-.47-1.86 0Z" fill="#fff"/><path d="M19.86 23.37a11.94 11.94 0 0 0-2.66-3.13c-.28-.23-.66-.06-.72.3l-.18 1.05-.01.1c.07 1.68.25 5.4.39 7.3.17 2.38 2.95 6.9 3.13 7.42.07.22.12.5.15.74.04.26.25.47.51.48.83.02 1.96.03 2.17-.01.25-.05 5.8-.26 8.64-.36l.16-.03 4.8-1.84c1.2-.48 3.92-1.5 5.34-1.67 1.27-.16.75-.95.2-1.46a.6.6 0 0 1-.19-.44c0-.47-.05-1.35-.28-2.48a27.3 27.3 0 0 0-.7-2.55c-.16-.51-1.34-.56-1.65-.13-.66.91-1.72 2.07-3.36 3.38-4.1 3.28-7.33 4.24-9.48 4.67-1.32.27-2.45.43-3.14.5a.48.48 0 0 1-.53-.44l-.4-4.93c-.25-1.34-1.04-4.5-2.2-6.47Z" fill="url(#bkadi2oet)"/><path d="M21.88 35.8c-.07.35-.74 1.31-1.06 1.75.8-.33 1.27-1.67 1.4-2.3-.08.05-.27.22-.34.56Z" fill="#AF83F1"/><path d="M18.22 18.3c.07-.22.3-.36.53-.3l2.13.6 2.28-.24h.01c6.04-.4 11.2 1.03 13.36 1.93.2-.21.51-.4.94-.4.24 0 .44.1.58.25.13.14.2.32.25.47.07.24.08.51.07.72.73 1.24 2.21 3.85 2.8 5.21.34.77.46 1.73.5 2.6.03.8-.01 1.56-.07 2.08.22.33.6.9.75 1.26l.05.1.09.2c.04.1.08.22.1.35a.7.7 0 0 1-.1.46.85.85 0 0 1-.33.3c-.12.07-.28.1-.4.13a9.3 9.3 0 0 1-1.19.1c-1.21.55-3.81 1.71-5.09 2.22-.83.32-2.31.8-3.91 1.17a19.2 19.2 0 0 1-4.67.62 42.2 42.2 0 0 0-5.08.2l-.71.05a19.6 19.6 0 0 1-.95.02c-.23-.04-.53-.13-.7-.45-.14-.28-.1-.61-.01-.92a1.2 1.2 0 0 0 .04-.42c-.8-1-1.58-2.54-2.16-4.1-.59-1.59-1-3.26-1-4.45 0-2.03-.21-5.53-.27-6.53l-.01-.2c0-.1-.02-.2-.04-.34l-.01-.08a4.14 4.14 0 0 1-.05-.54c0-.18.02-.4.13-.6a.81.81 0 0 1 .61-.43c.15-.02.28.02.36.05.1.04.19.1.27.16.16.12.34.28.53.48.37.4.82.97 1.28 1.64a26.12 26.12 0 0 1 2.66 4.89c.57 1.43.85 3.2.97 4.8.11 1.62.07 3.1 0 3.97a.43.43 0 0 1-.46.4.43.43 0 0 1-.4-.47c.08-.84.12-2.27 0-3.83a15.86 15.86 0 0 0-.9-4.55 25.25 25.25 0 0 0-2.57-4.71c-.45-.65-.87-1.18-1.2-1.54-.17-.18-.3-.3-.4-.37h-.01l-.01.1c0 .13.02.27.04.43v.07c.02.13.05.28.05.42l.01.2c.06.98.28 4.52.28 6.58 0 1.04.37 2.59.94 4.14a14.8 14.8 0 0 0 2.06 3.9c.1.14.15.32.16.48.01.19 0 .42-.08.68l-.04.26a.62.62 0 0 0 .08.03h.2l.54-.04.71-.05.97-.07c1.3-.1 2.9-.18 4.2-.13 1.22.04 2.88-.23 4.45-.6 1.56-.37 3-.83 3.8-1.14 1.27-.5 3.93-1.69 5.11-2.23a.47.47 0 0 1 .2-.04 8.53 8.53 0 0 0 1.22-.11l-.01-.01-.07-.16-.06-.13c-.14-.32-.54-.94-.76-1.24a.5.5 0 0 1-.08-.35c.06-.46.12-1.24.08-2.07a6.7 6.7 0 0 0-.42-2.28 66.27 66.27 0 0 0-2.81-5.22.5.5 0 0 1-.07-.3c.02-.16.01-.37-.03-.53a.45.45 0 0 0-.04-.1.46.46 0 0 0-.37.24.48.48 0 0 1-.61.2c-1.86-.82-7.08-2.37-13.23-1.96l-2.33.25c-.06 0-.12 0-.18-.02l-2.2-.61a.44.44 0 0 1-.3-.54Zm-1.5 1.9Zm2.77 16.4c0-.01 0-.01 0 0Z" fill="url(#ckadi2oet)"/><path d="M34.11 25.72a.44.44 0 0 0-.18-.6.42.42 0 0 0-.57.2 5.77 5.77 0 0 1-2.18 2.17 3.8 3.8 0 0 0-1.34-.63c-.52-.15-1.1-.26-1.7-.33a21.55 21.55 0 0 0-3.19-.14.43.43 0 0 0-.41.45c0 .24.2.43.44.42.74-.03 1.92 0 3.06.13.56.07 1.1.17 1.57.3.28.09.51.18.7.27-.9.44-1.78.7-2.36.82a.44.44 0 0 0-.33.51c.04.24.27.4.5.35.74-.15 1.92-.52 3.06-1.15a6.96 6.96 0 0 0 2.93-2.77Z" fill="url(#dkadi2oet)"/><path d="M41.79 19.9c.24 0 .43.2.43.43-.03 5.8-3.11 11.46-7.33 15.66-4.22 4.2-9.64 7.01-14.42 7.01a7.4 7.4 0 0 1-4.55-1.34 6.79 6.79 0 0 1-2.3-3.24c-.88-2.5-.69-5.45-.25-7.4a.43.43 0 0 1 .52-.33c.23.06.37.3.32.53-.42 1.86-.6 4.63.22 6.9a5.92 5.92 0 0 0 2 2.84 6.56 6.56 0 0 0 4.04 1.17c4.48 0 9.7-2.66 13.82-6.76 4.11-4.1 7.05-9.55 7.07-15.04 0-.24.2-.43.43-.43ZM31.44 14.4a22.05 22.05 0 0 0-6.07 2.77.42.42 0 0 1-.6-.12.44.44 0 0 1 .13-.6 22.9 22.9 0 0 1 6.31-2.89c2.57-.7 5.44-.9 7.8.36.2.1.29.37.18.58a.42.42 0 0 1-.58.19c-2.08-1.11-4.69-.97-7.17-.29Z" fill="#fff"/><path d="M40.77 14.48c.2-.14.46-.1.6.09l1.54 2.07c.22.3.01.71-.35.71h-3.33l1.16 1.4c.15.2.13.47-.05.62a.42.42 0 0 1-.6-.05L38 17.22c-.24-.3-.03-.74.34-.74h3.38L40.7 15.1a.44.44 0 0 1 .08-.6Z" fill="#F5FD47"/><defs><linearGradient id="akadi2oet" x1="28" y1="0" x2="28" y2="56" gradientUnits="userSpaceOnUse"><stop stop-color="#06066A"/><stop offset="1" stop-color="#7758E7"/></linearGradient><linearGradient id="bkadi2oet" x1="19.39" y1="29.38" x2="36.77" y2="41.28" gradientUnits="userSpaceOnUse"><stop stop-color="#C5E9FE"/><stop offset=".66" stop-color="#E797FD"/></linearGradient><linearGradient id="ckadi2oet" x1="16.44" y1="20.79" x2="40.41" y2="35.6" gradientUnits="userSpaceOnUse"><stop stop-color="#87D1EE"/><stop offset="1" stop-color="#E022F4"/></linearGradient><linearGradient id="dkadi2oet" x1="24.54" y1="27.01" x2="33.48" y2="27.35" gradientUnits="userSpaceOnUse"><stop stop-color="#7D87FA"/><stop offset="1" stop-color="#B57AF8"/></linearGradient></defs></svg>