<svg width="224" height="224" viewBox="0 0 56 56" xmlns="http://www.w3.org/2000/svg"><rect fill="#181B1E" width="56" height="56" rx="28"/><path fill-rule="evenodd" d="M24 16c3.25-.05 10.4.64 11.92 3.76 1.52 3.12 3.34 6.99 4.06 8.54A16.6 16.6 0 0 0 48 36H37.19c-.32-.62-2.36-2-7.95-2-5.6 0-16.5 1.29-21.24 2 4.35-2.12 14.1-6.97 18.24-10.68 2.57-2.24 3.26-3.1 3.26-4.68 0-1.58-2.54-3.8-5.5-4.64Zm7.8 8c.33.36 1.15 1.59 1.75 3.58.6 2 1.22 3.16 1.45 3.48-1.5-.2-6.18-.3-13 .94l.19-.12c1.4-.88 6.83-4.3 9.61-7.88Z" fill="#fff"/></svg>