<!-- by TradingView --><svg width="56" height="56" viewBox="0 0 56 56" xmlns="http://www.w3.org/2000/svg"><path fill="#F0F3FA" d="M0 0h56v56H0z"/><circle cx="28" cy="28" r="17" fill="url(#ayq2wga33)"/><path fill-rule="evenodd" d="m24.68 23.4-7.42 1.09 5.4 5.21-1.22 7.45 6.83-3.61 5.41-3.98 5.24-5.07-7.46-1.1-3.44-6.74-3.34 6.75Zm5.52 2.35-2.16-4.16-3.3 6.53 5.46-2.37Zm-1.73 8.03 6.15 3.34-.81-5.14-5.34 1.8Z" fill="#E6E5E3"/><path fill-rule="evenodd" d="M28 41a13 13 0 1 0 0-26 13 13 0 0 0 0 26Zm0-.4a12.6 12.6 0 1 0 0-25.2 12.6 12.6 0 0 0 0 25.2Z" fill="#66590A"/><path fill-rule="evenodd" d="M28 44.5a16.5 16.5 0 1 0 0-33 16.5 16.5 0 0 0 0 33Zm0-.5a16 16 0 1 0 0-32 16 16 0 0 0 0 32Z" fill="#66590A"/><path fill-rule="evenodd" d="M27.42 13v1.26h.26v-.52h.52v-.22h-.52v-.3h.57V13h-.83Zm1.84 1.27.08-1.18.46.03a.5.5 0 0 1 .23.06c.06.04.1.08.13.14a.4.4 0 0 1 .04.21c0 .08-.03.15-.06.2a.33.33 0 0 1-.16.12l.21.48-.27-.02-.2-.43-.18-.01-.03.41-.25-.01Zm.46-.6h-.17l.02-.36.17.01a.3.3 0 0 1 .12.03c.03.01.05.04.07.06a.2.2 0 0 1 .01.1c0 .04 0 .08-.03.1a.14.14 0 0 1-.07.05.31.31 0 0 1-.12.02Zm1.98-.28-.2 1.22-.26-.04.2-1.22.26.04Zm1.88 1.1.26.07v-.2a.47.47 0 0 0-.09-.17.52.52 0 0 0-.14-.13.65.65 0 0 0-.5-.08.54.54 0 0 0-.26.17.74.74 0 0 0-.16.32.74.74 0 0 0 0 .36c.02.1.07.2.15.27a.6.6 0 0 0 .27.14.53.53 0 0 0 .55-.15l.1-.15-.27-.07a.26.26 0 0 1-.13.13.26.26 0 0 1-.09.02.34.34 0 0 1-.25-.1.3.3 0 0 1-.08-.15.57.57 0 0 1 .02-.23.56.56 0 0 1 .09-.21.31.31 0 0 1 .14-.11.3.3 0 0 1 .18 0c.03 0 .07.01.1.03l.06.06c.02.03.04.06.04.09l.01.1Zm-11.32.93-.46-1.16.23-.1.38.97.48-.19.08.2-.7.28ZM18.2 16.6l.15.17.3-.25.69.83.2-.17-.68-.83.31-.25-.14-.18-.83.68Zm-4.96 14.13.23-.02-.03-.4 1.07-.09-.02-.27-1.08.09-.03-.4-.23.02.1 1.07Zm16.85 11.03-.04-.22 1.06-.19.04.22-.4.07.2 1.06-.28.05-.18-1.06-.4.07Zm-15.03-18.5.17-.42a.7.7 0 0 0 .05-.35.53.53 0 0 0-.12-.28.74.74 0 0 0-.3-.2.74.74 0 0 0-.35-.06c-.11 0-.2.05-.3.12a.69.69 0 0 0-.19.28l-.17.43 1.2.49Zm-.05-.5-.07.16-.77-.3.06-.17a.44.44 0 0 1 .12-.17c.05-.04.1-.06.17-.07.07 0 .15.01.24.05s.16.08.2.13c.05.05.08.1.08.16 0 .07 0 .14-.03.21Zm-.66 3.55-.02.46-1.3-.08.03-.46c0-.13.04-.24.1-.33.05-.1.13-.16.23-.2.1-.05.22-.07.35-.06.14 0 .25.04.35.1.1.05.16.13.2.23.05.1.07.21.06.34Zm-.24.17v-.17c.01-.08 0-.15-.02-.2a.28.28 0 0 0-.13-.14.57.57 0 0 0-.23-.06c-.1 0-.18 0-.24.03a.28.28 0 0 0-.14.11.44.44 0 0 0-.06.2l-.01.18.83.05Zm2.3-7.56a.3.3 0 0 1 .08.02l.17-.23a.49.49 0 0 0-.37-.04.56.56 0 0 0-.17.08.65.65 0 0 0-.16.15.64.64 0 0 0-.1.22.57.57 0 0 0 .07.48c.05.07.12.14.2.2.12.09.23.14.34.16.12.02.22 0 .33-.03.1-.05.18-.12.26-.22.07-.09.1-.18.12-.27a.5.5 0 0 0-.03-.28.58.58 0 0 0-.2-.24l-.13-.1-.33.44.17.13.17-.23c.04.03.07.07.09.11.02.05.02.1.01.14 0 .05-.03.1-.07.15-.04.06-.1.1-.15.12a.33.33 0 0 1-.19 0 .6.6 0 0 1-.21-.1.57.57 0 0 1-.17-.18.33.33 0 0 1-.04-.18c0-.06.02-.12.06-.18a.34.34 0 0 1 .08-.07.26.26 0 0 1 .16-.05Zm10.74 23.66c.05-.1.08-.22.08-.37a.76.76 0 0 0-.08-.36.56.56 0 0 0-.22-.23.62.62 0 0 0-.32-.08.63.63 0 0 0-.31.08.57.57 0 0 0-.22.23.77.77 0 0 0-.09.36c0 .15.03.27.09.37.05.1.12.18.22.23.09.06.2.08.31.08.12 0 .22-.02.32-.08.1-.05.17-.13.22-.23Zm-.24-.6c.02.06.04.14.04.23 0 .1-.02.18-.04.24a.32.32 0 0 1-.12.15.31.31 0 0 1-.18.04.31.31 0 0 1-.17-.04.32.32 0 0 1-.12-.15.6.6 0 0 1-.04-.24c0-.09.01-.17.04-.23a.32.32 0 0 1 .12-.15c.05-.03.1-.05.17-.05s.13.02.18.05c.05.04.09.08.12.15Zm1.99 0a.2.2 0 0 0-.06-.13.17.17 0 0 0-.13-.04.19.19 0 0 0-.1.03.14.14 0 0 0-.05.06.16.16 0 0 0 0 .08v.07l.05.04.05.03.07.02.1.03c.04 0 .09.02.13.04l.1.08.07.1c.02.05.04.1.04.16 0 .09 0 .16-.03.23a.35.35 0 0 1-.13.15.44.44 0 0 1-.22.07c-.08 0-.16 0-.22-.04a.36.36 0 0 1-.16-.14.57.57 0 0 1-.07-.25l.21-.01c0 .04.02.08.04.11l.08.07.1.01a.2.2 0 0 0 .1-.03.16.16 0 0 0 .08-.15.14.14 0 0 0-.03-.08.17.17 0 0 0-.07-.05.51.51 0 0 0-.1-.03l-.11-.03a.45.45 0 0 1-.22-.12.37.37 0 0 1-.1-.24c0-.09.01-.16.04-.23a.38.38 0 0 1 .33-.22c.08 0 .15 0 .2.04.07.03.12.07.16.13.03.06.05.14.06.22l-.21.01ZM41.9 33.4l.1-.28-.93.16-.42-.15-.1.25.43.15.62.71.1-.28-.42-.46v-.01l.62-.1Zm-.34-6.51 1.36-.12.08.92-.24.02-.05-.63-.33.03.05.58-.23.02-.05-.58-.33.02.05.64-.23.02-.08-.92Zm-28.54 1.8 1.36-.03-.01-.92h-.24l.01.64h-.33v-.58h-.24v.58l-.32.01-.01-.63H13l.02.92Zm28.36-7.48.13.25-.76.4a.46.46 0 0 1-.26.05.46.46 0 0 1-.24-.1.65.65 0 0 1-.18-.22.65.65 0 0 1-.08-.29c0-.09.02-.17.06-.24.05-.08.11-.14.2-.18l.76-.39.13.25-.74.38a.27.27 0 0 0-.1.09.24.24 0 0 0-.05.12c0 .05.01.1.04.14.02.05.05.09.1.11.03.03.07.04.12.05.04 0 .09-.01.13-.04l.74-.38ZM15.05 35.6l.15.23.7-.45a.27.27 0 0 1 .13-.05c.05 0 .09 0 .13.03.04.02.07.05.1.1.03.04.05.09.05.14 0 .04 0 .08-.02.12a.27.27 0 0 1-.1.1l-.7.46.16.23.72-.46a.46.46 0 0 0 .17-.2.46.46 0 0 0 .04-.25.65.65 0 0 0-.11-.28.65.65 0 0 0-.2-.2.46.46 0 0 0-.25-.07.46.46 0 0 0-.25.08l-.72.47ZM37.8 16.62l-.8 1.04-.2-.14.06-1-.01-.01-.5.65-.23-.17.8-1.04.2.15-.06 1h.01l.5-.65.23.17ZM14.52 34.44l1.2-.53-.1-.25-.76.33v-.01l.53-.85-.1-.23-1.2.53.1.25.76-.33v.01l-.52.86.1.22Zm28.4-4.56-1.32-.04.01-.24.85-.54v-.01l-.83-.03.01-.28 1.32.04-.01.25-.85.54v.01l.83.03-.01.27Zm-2.83-10.02-.15-.22a.26.26 0 0 0 .06-.08.24.24 0 0 0 .02-.18.32.32 0 0 0-.05-.1.3.3 0 0 0-.13-.1.31.31 0 0 0-.18-.02.56.56 0 0 0-.21.1.57.57 0 0 0-.17.15.3.3 0 0 0-.05.17c0 .06.02.12.06.17l.06.07.08.05.1.01c.02 0 .06 0 .09-.02l.15.22a.5.5 0 0 1-.35.04.53.53 0 0 1-.18-.08.61.61 0 0 1-.15-.16.6.6 0 0 1-.1-.3c-.02-.1 0-.2.06-.3.05-.09.13-.18.25-.25a.74.74 0 0 1 .33-.14c.11 0 .21.01.3.05.1.05.17.12.23.21a.51.51 0 0 1 .1.38c0 .06-.01.12-.04.17a.54.54 0 0 1-.13.16Zm1.94 12.16-.05.28c.08 0 .15 0 .22-.03a.5.5 0 0 0 .17-.1c.05-.05.1-.1.12-.16a.7.7 0 0 0 .04-.54.58.58 0 0 0-.2-.26.8.8 0 0 0-.36-.14.8.8 0 0 0-.39.02c-.1.04-.2.1-.27.18a.64.64 0 0 0-.13.31.66.66 0 0 0 0 .24.56.56 0 0 0 .22.34c.05.03.1.06.17.08l.04-.29a.28.28 0 0 1-.15-.12.28.28 0 0 1-.03-.1v-.1a.33.33 0 0 1 .08-.17c.04-.05.1-.08.16-.1a.61.61 0 0 1 .25 0c.1 0 .17.03.23.07.06.04.1.09.13.14.03.06.04.12.03.2 0 .03-.02.07-.04.1a.25.25 0 0 1-.15.13.28.28 0 0 1-.1.02ZM18.13 18.2l-.86-.89-.19.18.86.9.19-.19Zm-3.1 2.23 1.07.61-.13.23-1.08-.62.13-.22Zm-.17 11.16-1.33.36.08.28 1.33-.36-.08-.28Zm27.02-8.96-1.1.52.1.23.4-.19.07.17-.3.38.12.25.33-.43v.01c.06.05.12.07.19.08.07 0 .14-.01.21-.05a.42.42 0 0 0 .17-.13.34.34 0 0 0 .06-.2.49.49 0 0 0-.05-.22l-.2-.42Zm-.42.47.07.16a.3.3 0 0 0 .07.1l.09.03a.2.2 0 0 0 .1-.02.2.2 0 0 0 .08-.06.15.15 0 0 0 .03-.1.28.28 0 0 0-.03-.11l-.07-.15-.34.15Zm-7.1 18.39-.45-1.14.44-.17a.49.49 0 0 1 .23-.04c.07.01.13.04.19.08.05.04.09.1.12.18.03.07.04.15.03.21a.33.33 0 0 1-.1.18l.4.36-.25.1-.37-.32-.17.06.16.4-.24.1Zm.16-.75-.16.06-.14-.35.16-.06a.28.28 0 0 1 .12-.02c.04 0 .06.01.09.03a.2.2 0 0 1 .06.1.2.2 0 0 1 .01.1l-.04.08a.3.3 0 0 1-.1.06Zm-10.3.38-.38 1.17.24.07.13-.4.17.05.08.48.27.08-.1-.53h.01a.33.33 0 0 0 .19-.08c.05-.05.08-.1.1-.18a.42.42 0 0 0 .02-.22.34.34 0 0 0-.1-.18.49.49 0 0 0-.2-.11l-.44-.15Zm.05.63.12-.35.16.05.1.06c.03.02.05.05.05.08a.2.2 0 0 1 0 .1.2.2 0 0 1-.06.1.14.14 0 0 1-.09.03.3.3 0 0 1-.12-.01l-.16-.06ZM41.4 25l1.19-.27.1.46c.02.08.02.16 0 .23a.34.34 0 0 1-.1.17.42.42 0 0 1-.2.1.41.41 0 0 1-.2 0 .33.33 0 0 1-.17-.12l-.42.34-.06-.27.37-.31-.04-.18-.42.1-.05-.25Zm1.04.02-.36.08.03.17a.3.3 0 0 0 .05.11c.02.03.05.05.08.06a.2.2 0 0 0 .1 0 .2.2 0 0 0 .1-.05.15.15 0 0 0 .04-.08v-.12l-.04-.17ZM21.96 41.7l.43-1.19.78.3-.07.2-.54-.2-.1.28.48.18-.07.2-.48-.17-.18.49-.25-.1Zm3.27-27.18.29-.04.04-.3.45-.07.14.27.28-.05-.63-1.18-.34.06-.23 1.31Zm.45-1.06.23.45-.31.05.07-.5h.01Zm-5.03 2.9-.23.16-.34-1.3.28-.19 1.07.81-.24.16-.24-.19-.38.26.08.29Zm-.14-.5.27-.18-.4-.31.13.49Zm13.75-.09.24.14.23-.2.4.23-.07.3.25.14.25-1.32-.3-.17-1 .88Zm.9-.05.11-.49-.38.33.28.16Zm-2.68 26.61-.26.12-.1-1.33.3-.14.91.98-.26.12-.2-.23-.42.18.03.3Zm-.1-1.02.34.38-.3.12-.04-.5Zm-12.53-.72.26.12.2-.22.42.19-.03.3.26.12.13-1.33-.31-.14-.93.96Zm.9-.13.07-.5h-.01l-.34.37.29.13Zm-2.17-2.27a.58.58 0 1 1-1.16 0 .58.58 0 0 1 1.16 0Zm19.43 1.04a.58.58 0 1 0 0-1.17.58.58 0 0 0 0 1.17Z" fill="#fff"/><defs><linearGradient id="ayq2wga33" x1="14.29" y1="19.38" x2="43.95" y2="35.44" gradientUnits="userSpaceOnUse"><stop stop-color="#90711C"/><stop offset=".4" stop-color="#CCB325"/><stop offset=".62" stop-color="#CDB32B"/><stop offset="1" stop-color="#C1B53B"/></linearGradient></defs></svg>