<svg width="112" height="112" viewBox="0 0 56 56" xmlns="http://www.w3.org/2000/svg"><rect fill="#D5E5CF" width="56" height="56" rx="28"/><path d="M43 34.46A8.53 8.53 0 0 1 34.44 43H21.56A8.57 8.57 0 0 1 13 34.46V21.54A8.53 8.53 0 0 1 21.56 13h12.88A8.57 8.57 0 0 1 43 21.54v12.92Z" fill="#004830"/><path d="M36.56 29.35c.44.42 1.2.65 1.77.65.98 0 1.68-.4 1.67-1.26 0-.75-.55-.98-1.07-1.13l-.38-.1c-.15-.03-.28-.06-.39-.1-.22-.07-.31-.14-.31-.26 0-.15.17-.26.46-.26.33 0 .73.1 1.02.39l.66-.7a2.32 2.32 0 0 0-1.67-.58c-.98 0-1.56.45-1.56 1.19 0 .79.55 1.02 1.1 1.18l.4.11.34.08c.22.07.3.14.3.26 0 .16-.17.25-.57.25a1.6 1.6 0 0 1-1.11-.44l-.65.72h-.01ZM33.81 28.3h2.57c.03-.15.04-.31.04-.47 0-1.1-.69-1.83-1.87-1.83-1.18 0-1.92.84-1.92 1.98 0 1.25.77 2.02 2.08 2.02.3.01.6-.04.89-.16a2 2 0 0 0 .71-.5l-.68-.7c-.24.25-.58.39-.92.38-.56 0-.86-.31-.9-.71Zm.75-1.39c.44 0 .7.27.72.66h-1.47c.05-.39.31-.66.75-.66ZM31.89 26c.22 0 .43.08.58.26l-.46.98a.61.61 0 0 0-.4-.14c-.29 0-.61.3-.61.8V30h-1v-4h1v.63c.2-.38.52-.63.89-.63Z" fill="#fff"/><path fill-rule="evenodd" d="M29.5 29.08c.07 0 .13 0 .19-.02v.8c-.2.1-.42.14-.63.14-.3 0-.57-.14-.71-.51a1.52 1.52 0 0 1-1.17.51c-.72 0-1.18-.4-1.18-1.17 0-.75.56-1.2 1.41-1.2a4 4 0 0 1 .95.11v-.12c0-.43-.41-.69-.88-.69-.32.01-.62.14-.86.38l-.6-.7c.42-.4 1-.62 1.58-.61 1.02 0 1.7.5 1.7 1.5v1.37c0 .14.07.22.2.22Zm-1.84-.8c.2.01.5.04.7.1v.25c0 .35-.4.58-.76.58-.34 0-.5-.19-.5-.45 0-.27.19-.47.56-.47Z" fill="#fff"/><path d="M25.5 30v-2.48c0-.98-.51-1.52-1.21-1.52-.45 0-1.02.24-1.29.67V24h-1v6h1v-2.15c0-.49.39-.84.77-.85.37 0 .73.32.73.84V30h1ZM19.5 25c.43-.02.84.39 1.11.77l.82-.8a2.1 2.1 0 0 0-1.89-.97c-1.15 0-1.86.68-1.86 1.72 0 1.11.73 1.57 1.55 1.85l.11.03c.73.25 1.02.35 1.02.71 0 .26-.2.69-.77.69-.48 0-.96-.4-1.27-.9l-.82.82c.47.77 1.2 1.08 2.1 1.08 1.06 0 1.9-.57 1.9-1.79 0-1.16-.87-1.52-1.64-1.78-.7-.24-1.06-.37-1.06-.76a.7.7 0 0 1 .7-.67ZM16 25v-1h1v1h-1Zm0 5v-4.36h1V30h-1Z" fill="#fff"/></svg>