<svg width="112" height="112" viewBox="0 0 56 56" xmlns="http://www.w3.org/2000/svg"><path fill="#B0D3FF" d="M0 0h56v56H0z"/><path d="M40.54 22.17c-.1.08-.2.1-.3.03A14.1 14.1 0 0 0 39 17.54a11.8 11.8 0 0 0-4.51-5.43 10.9 10.9 0 0 0-4.47-1.64c-2.6-.3-5.12.13-7.56 1.28a12.2 12.2 0 0 0-5.95 5.85 12.5 12.5 0 0 0-.93 2.96 1.18 1.18 0 0 0-.24-.35l.1-.54c.52-2.26 1.61-4.19 3.27-5.78 1-.97 2.14-1.76 3.43-2.4a13.6 13.6 0 0 1 8.72-1.23 11.2 11.2 0 0 1 5.75 3.09 14.2 14.2 0 0 1 3.92 8.82Z" fill="#FFC9EB"/><path d="M39 17.54c-.2-.24-.45-.5-.63-.76-.43-.64-.81-1.16-1.14-1.57a10.92 10.92 0 0 0-5.6-3.73 12.52 12.52 0 0 0-6.76 0c-1.06.3-2.07.72-3.05 1.24a12.5 12.5 0 0 0-4.55 4.08c-.14.21-.4.48-.75.8a12.2 12.2 0 0 1 5.95-5.85 13.69 13.69 0 0 1 7.56-1.28c1.52.18 3.16.8 4.47 1.64a11.8 11.8 0 0 1 4.5 5.43Z" fill="#FFADE0"/><path d="M39 17.54a14.1 14.1 0 0 1 1.23 4.66v.49c-.2.44-.43.86-.7 1.26-.48.72-1.1 1-1.99 1.1a7.58 7.58 0 0 1-4.6-.98c.09-1.61-.4-3.21-1.22-4.6-.3-.5-.67-.95-1.1-1.36 1.62.07 3.25.1 4.86.1.64-.01 2.07.01 2.13-.93.06-.93-.77-2.04-1.41-2.7-2.67-2.76-6.79-3.7-10.42-2.96-1.79.36-3.6 1.21-5.12 2.26a6.55 6.55 0 0 0-1.84 1.8c-.2.33-.32.58-.34.76-.06.55.16.9.68 1.05.46.14.95.2 1.48.2h2.65c.47 0 .95 0 1.44.03-1.79 1.23-2.35 3.37-1.83 5.43l.11.53c-.64.43-1.21.74-1.7.94-1.67.65-3.83.44-5.6.1a11.4 11.4 0 0 1-.12-4.16c.19-1.03.5-2.02.93-2.96.36-.32.6-.59.75-.8a12.5 12.5 0 0 1 4.55-4.08c.98-.52 2-.93 3.05-1.23 2.2-.63 4.58-.62 6.76 0 2.24.62 4.13 1.9 5.6 3.72.33.4.71.93 1.14 1.57.18.25.42.52.64.76Z" fill="url(#a)"/><path d="M30.61 18.1a4.54 4.54 0 0 0-4.73-.95c-.38.12-.76.31-1.15.57-.49-.02-.97-.04-1.44-.04l-2.65.01c-.53 0-1.02-.06-1.48-.2-.52-.16-.74-.5-.68-1.05.02-.18.14-.43.34-.75a6.56 6.56 0 0 1 1.84-1.8 14.22 14.22 0 0 1 5.12-2.27c3.63-.73 7.75.2 10.42 2.96.64.66 1.47 1.77 1.4 2.7-.05.95-1.48.92-2.12.92-1.61 0-3.24-.02-4.87-.1Z" fill="#FFC9EB"/><path d="M30.61 18.1a8.21 8.21 0 0 1 2.33 5.96c-.1 1.1-.49 2.08-1.18 2.94l-.4-.08.18-.2c.8-.99 1.14-2.13 1.03-3.42a7.97 7.97 0 0 0-1.6-4.23 4.32 4.32 0 0 0-6.18-.9 4.07 4.07 0 0 0-1.68 3.08c-.05.54-.02 1.1.08 1.66l-.3.24c-.51-2.06.05-4.2 1.84-5.43.39-.26.77-.45 1.15-.57a4.54 4.54 0 0 1 4.73.96Z" fill="#DCEAFE"/><path d="M32.57 23.3c-.32-.55-.66-1.07-1.02-1.56a5.18 5.18 0 0 0-5.66-2.05 8.22 8.22 0 0 0-2.78 1.56c.1-1.3.66-2.33 1.68-3.09a4.32 4.32 0 0 1 6.2.9 7.97 7.97 0 0 1 1.58 4.24Z" fill="#829EDD"/><path d="M32.57 23.3a4.62 4.62 0 0 1-1.03 3.43c-.21-1.46-.54-3.07-1.52-4.2-1.56-1.8-4.06-1.62-5.39.34-.33.5-.63 1.11-.9 1.84a8.57 8.57 0 0 1-.54-1.8 6.38 6.38 0 0 1-.08-1.66 8.22 8.22 0 0 1 2.78-1.56 5.18 5.18 0 0 1 5.66 2.05c.36.49.7 1.01 1.02 1.56Z" fill="#95B2E9"/><path d="M15.59 20.56a11.4 11.4 0 0 0 .13 4.16c.28 1.42.76 2.78 1.41 4.06a12.29 12.29 0 0 0 1.9 2.81 10.96 10.96 0 0 0 8.66 3.61 14.26 14.26 0 0 0 9.34-4.13c2.21-2.3 3.28-5.1 3.2-8.38v-.5c.11.07.22.06.31-.02l.05.5a11.7 11.7 0 0 1-4.54 9.79 14.57 14.57 0 0 1-8.54 3.07c-.6 0-1.11-.01-1.55-.06a10.9 10.9 0 0 1-6.3-2.76 12.02 12.02 0 0 1-2.1-2.45 14.63 14.63 0 0 1-2.4-7.68c0-.8.05-1.6.19-2.37.1.1.19.23.24.35Z" fill="#DCEAFE"/><path d="m31.54 26.73-.18.2a4.52 4.52 0 0 1-4.48 1.2 4.17 4.17 0 0 1-2.12-1.55 7.35 7.35 0 0 1-1.03-1.87c.27-.73.57-1.34.9-1.84 1.33-1.96 3.83-2.15 5.4-.35.97 1.14 1.3 2.75 1.5 4.2Z" fill="#A3CBFF"/><path d="M15.16 22.58c.08 2.77.88 5.33 2.4 7.68.42.84.86 1.57 1.32 2.2A10.47 10.47 0 0 0 25 36.44a12.6 12.6 0 0 0 10.53-2.4c2.05-1.61 3.31-3.74 4.12-6.22a11.7 11.7 0 0 0 .95-5.16c1.6 5.84-1.66 11.73-6.98 14.18-4 1.84-8.95 1.98-12.72-.5-3.3-2.18-5.41-6.04-5.82-9.93a16.5 16.5 0 0 1 .1-3.84Z" fill="#95B2E9"/><path d="M40.24 22.69c.07 3.29-1 6.08-3.22 8.38a14.26 14.26 0 0 1-9.33 4.13 10.96 10.96 0 0 1-8.65-3.6c-.7-.75-1.33-1.69-1.9-2.82a15.78 15.78 0 0 1-1.42-4.06c1.76.34 3.92.55 5.59-.1.49-.2 1.06-.5 1.7-.94.22.77.52 1.5.9 2.2.34.59.7 1.07 1.1 1.45a4.38 4.38 0 0 0 4.97.94A4.6 4.6 0 0 0 31.76 27a5.36 5.36 0 0 0 1.19-2.93 7.58 7.58 0 0 0 4.6.98c.88-.1 1.5-.38 1.98-1.1.27-.4.5-.82.7-1.26Z" fill="#FFADE0"/><path d="M23.19 22.91c.1.61.29 1.21.54 1.8.25.66.6 1.29 1.03 1.87.6.78 1.3 1.3 2.12 1.54 1.59.48 3.32-.02 4.48-1.2l.4.08a4.6 4.6 0 0 1-1.78 1.27c-1.9.73-3.55.42-4.97-.94-.4-.38-.76-.86-1.1-1.46-.38-.69-.68-1.42-.9-2.19l-.11-.53.29-.24Z" fill="#FFC9EB"/><path d="M17.56 30.26c.58.9 1.29 1.72 2.1 2.45a10.9 10.9 0 0 0 7.85 2.82 14.57 14.57 0 0 0 8.53-3.07 12 12 0 0 0 3.6-4.63 12.56 12.56 0 0 1-4.12 6.21A12.6 12.6 0 0 1 25 36.44a10.47 10.47 0 0 1-6.1-3.99c-.47-.62-.91-1.35-1.33-2.19Z" fill="#829EDD"/><path d="M16.08 41.65c-.07.37-.01.68.18.92a4.61 4.61 0 0 0 3.38 2.08c.7.08 1.42.13 2.13.14l8.4.12c1.54.02 3.08 0 4.62-.05.54-.02 1.1-.08 1.64-.17a4.1 4.1 0 0 0 3.08-2.22c.13-.51.07-.63-.16-.93a.98.98 0 0 0-.82-.41l-10.1-.01 9.28-.27c.34 0 .65.04.92.13.49.16.95.09 1.38.36.04.02.06.06.06.1.02.32.03.66.03 1.02-.01 2.42-1.73 3.22-3.7 3.41-.92.1-1.84.14-2.76.13a497.4 497.4 0 0 1-9.57-.18 67 67 0 0 1-3.07-.17 8.84 8.84 0 0 1-2.93-.66c-1.24-.56-1.9-1.56-2.45-2.81a.11.11 0 0 1 0-.12c.13-.17.28-.3.46-.41Z" fill="#A3CBFF"/><path d="M39.51 42.47a4.1 4.1 0 0 1-3.08 2.22c-.55.1-1.1.15-1.64.17-1.54.05-3.08.07-4.62.05l-8.4-.12c-.71-.01-1.42-.06-2.13-.14a4.61 4.61 0 0 1-3.38-2.08c.2.3.51.44.92.44h21.39c.34 0 .66-.18.94-.54Z" fill="#95B2E9"/><path d="m28.63 41 10.3.01c.34 0 .62.12.84.37.24.28.3.65.16 1.12-.28.33-.6.5-.96.5H17.15c-.42 0-.73-.14-.94-.4a.94.94 0 0 1-.18-.85c.16-.5.48-.74.96-.74L28.63 41Z" fill="#020078"/><defs><linearGradient id="a" x1="27.85" y1="11.02" x2="27.85" y2="25.09" gradientUnits="userSpaceOnUse"><stop stop-color="#FFBFE7"/><stop offset="1" stop-color="#FFADE0"/></linearGradient></defs></svg>