<svg width="112" height="112" viewBox="0 0 56 56" xmlns="http://www.w3.org/2000/svg"><path fill="url(#a)" d="M0 0h56v56H0z"/><path d="M30.66 9.57c1.58.87 2.86 2.05 3.84 3.55.07.1.14.23.21.4l.2.4.16.43-.49-.9c-.01-.03-.03-.04-.06-.04l-.03.01h-.02v.02a.03.03 0 0 0 0 .03l.45.8c.02.04 0 .05-.04.04-.5-.14-.82-.26-.97-.33-1.22-.6-1.95-.96-2.2-1.06a15.8 15.8 0 0 0-7.82-1.05c-.11-.39-.05-.75.17-1.09a3.27 3.27 0 0 1 1.02-.98h-.01l-.95.55.02-.06c.06-.06.1-.13.1-.2a6.93 6.93 0 0 1 1.48-.75 7.82 7.82 0 0 1 3.69-.21c.45.08.87.23 1.25.44Z" fill="#001448"/><path d="M30.66 9.57c1.37.64 2.57 1.57 3.59 2.77.66.79 1.23 1.6 1.7 2.46-.13.04-.18.16-.15.37.01.04 0 .08 0 .14-.16-.5-.37-.9-.64-1.2l-.25-.2a6.57 6.57 0 0 1-.2-.4c-.07-.16-.14-.29-.21-.4a10.79 10.79 0 0 0-3.84-3.54Z" fill="#918E9D"/><path d="m23.89 11.87 2.45.54c1.23.7 2.18 1.3 2.85 1.78 1.23.88 2.33 2 2.92 3.44.51 1.27.92 2.59 1.22 3.94.26 1.17.35 2.24.27 3.19a8.78 8.78 0 0 1-.42 1.9l-2 .01c.17-1.1.22-2.11.14-3.02-.18-2-.86-4.4-1.73-6.38-.2-.45-.46-.93-.78-1.44a2.44 2.44 0 0 0-.88-.86 5.72 5.72 0 0 0-3.38-2.24 2.8 2.8 0 0 0-.54-.04c-.26 0-.44 0-.53-.03-.54-.1-.42-.63-.25-1.02.22-.53.51-.96.9-1.3l.93-.54h.01v.02c-.42.27-.76.59-1 .96-.23.34-.3.7-.18 1.1Z" fill="#003265"/><path d="M24.14 10.3c-.26.15-.5.32-.73.52-.23.2-.41.43-.53.67-.25.5-.46.9-.37 1.46 0 .03.02.05.05.04l.47-.1-.85.4a.06.06 0 0 0-.03.02l-.01.03a.08.08 0 0 0 .04.07h.1a.6.6 0 0 1-.2.14l-.35.18c-.27.12-.52.29-.73.5-.25.24-.48.5-.7.78.19-.31.4-.6.63-.89.24-.3.4-.52.46-.67.1-.24.18-.53.2-.87.01-.07 0-.07-.05-.02-.57.7-1.1 1.47-1.59 2.3-.1.16-.18.33-.26.51-.19.34-.37.73-.54 1.19a29.6 29.6 0 0 0-1.37 4.62 64.03 64.03 0 0 0-.7 3.8c0-.25.02-.5.04-.76.2-1.86.55-3.7 1.09-5.51.39-1.33.91-2.6 1.58-3.82.91-1.68 2.11-3.1 3.6-4.25.2-.16.48-.35.85-.56 0 .08-.04.15-.1.21Z" fill="#5B5D6D"/><path d="m24.14 10.3-.02.05c-.38.33-.67.76-.9 1.29-.16.39-.28.92.26 1.02.1.02.27.03.53.03.21 0 .4 0 .54.04a5.72 5.72 0 0 1 3.38 2.24c-.23.07-.3.24-.24.5l.1.45-.86-.82a6.08 6.08 0 0 0-2-1.87 2.77 2.77 0 0 0-1.9-.33l-.47.09c-.03 0-.05 0-.05-.04-.09-.56.12-.97.37-1.46.12-.24.3-.47.53-.67.23-.2.47-.37.73-.53Z" fill="#263F61"/><path d="m35.07 14.35.14.24.36.71.38.77c.04.17.15.52.33 1.05a42.52 42.52 0 0 1 1.51 6 538.7 538.7 0 0 1 .55 3.45l.02-.03-.08-1.13.1.85c.03.1.04.19.03.29 0 .02 0 .02.02.02h.03a4.25 4.25 0 0 1-.03-.44c.02.15.05.3.1.46a.14.14 0 0 1-.06.05l-.38.04c-1.39-.01-2.77-.02-4.16-.01l.2-.02a.1.1 0 0 0 .08-.05l.88-1.53c.39-.64.63-1.14.74-1.5.6-2.1-.1-4.04-1.43-5.73a17.19 17.19 0 0 0-2.68-2.77 13.37 13.37 0 0 0-5.38-2.66l-2.45-.54a15.8 15.8 0 0 1 7.82 1.05c.25.1.98.45 2.2 1.06.15.07.48.19.97.33.05.01.06 0 .04-.04l-.45-.8a.03.03 0 0 1 0-.04h.02l.03-.02c.03 0 .05 0 .06.03l.5.9Z" fill="#001D56"/><path d="M33.93 26.67h-.75a8.8 8.8 0 0 0 .42-1.91 10.8 10.8 0 0 0-.27-3.19c-.3-1.35-.7-2.67-1.22-3.94a8.08 8.08 0 0 0-2.92-3.44 36.11 36.11 0 0 0-2.85-1.78c1.99.47 3.78 1.36 5.38 2.66.94.76 1.83 1.69 2.68 2.77 1.32 1.7 2.03 3.64 1.43 5.73-.1.36-.35.86-.74 1.5l-.88 1.53a.1.1 0 0 1-.08.05l-.2.02Z" fill="#00245E"/><path d="m20.3 15-.67 1.17c-.12.04-.19 0-.2-.14-.01-.05 0-.1.02-.13l.24-.53.26-.52c.5-.82 1.02-1.58 1.6-2.29.03-.05.05-.05.05.02-.03.34-.1.63-.2.87a3.2 3.2 0 0 1-.47.67c-.23.28-.44.58-.63.89ZM26.93 15.1l.81 1.36c-.02.08-.08.04-.17-.1l-.17-.29-.28-.46-.64-.88c-.39-.5-.86-.9-1.4-1.22a2.69 2.69 0 0 0-1.37-.36c-.5 0-.98.09-1.42.25-.05.02-.08.02-.1 0a.08.08 0 0 1-.05-.06v-.03l.04-.03.85-.38c.69-.12 1.32 0 1.9.33a6.08 6.08 0 0 1 2 1.87Z" fill="#918E9D"/><path d="M26.48 14.73c-1 .1-2 .09-3-.06-.71-.1-1.18-.48-1.4-1.12a.6.6 0 0 0 .2-.15c.45-.16.93-.25 1.43-.25.49 0 .94.12 1.36.36.55.32 1.02.72 1.41 1.22Z" fill="#001D56"/><path d="M22.08 13.55c.22.64.69 1.02 1.4 1.12 1 .15 2 .17 3 .06l.64.88c-.58.97-1.26 1.81-2.41 1.99-.56.08-1.2.02-1.93-.18a8.94 8.94 0 0 1-2.04-.86l.35-2.21c0-.04.02-.07.04-.09l.6-.53.35-.18Z" fill="#003265"/><path d="m21.73 13.73-.6.53a.14.14 0 0 0-.04.09l-.35 2.21c-.25-.04-.46.06-.63.3-.26.01-.5-.06-.7-.21l.22-.48.67-1.16c.22-.28.45-.54.7-.78.21-.21.46-.38.73-.5Z" fill="#134B70"/><path d="M35.16 14.1c-.01.12.03.23.14.33.02.03.04.02.06-.01v-.05l.01.02a.5.5 0 0 0 .08.36c.04.04.07.1.09.15 0 .02 0 .02-.02.02h-.04c-.01 0-.02 0-.03-.02a.74.74 0 0 0-.24-.31l-.14-.24-.16-.43.25.18Z" fill="#5B5D6D"/><path d="M35.8 15.3c.02-.05.02-.02-.02.1l-.21-.37a.16.16 0 0 1-.02-.1c0-.07-.03-.13-.1-.18a.5.5 0 0 1-.08-.36v-.02l-.01.05c-.02.03-.04.04-.06.01-.1-.1-.15-.2-.14-.33.27.31.48.71.63 1.2Z" fill="#7281A5"/><path d="M31.18 26.67H30.1l-.03-.02-.01-.02c.34-.77.48-1.56.42-2.36-.15-1.9-.58-3.77-1.3-5.6-.17-.4-.63-1.32-1.38-2.75l-.11-.45c-.07-.26.01-.43.24-.5.34.19.63.47.88.86.32.51.58.99.78 1.44a21.53 21.53 0 0 1 1.73 6.38c.08.91.03 1.92-.14 3.02Z" fill="#134B70"/><path d="M35.45 14.75c.07.05.1.11.1.19 0 .03 0 .06.02.1l.2.36c-.01.02 0 .05.03.07h.05c.02-.03.03-.02.05 0v.04c0 .01-.02.02-.03.01l-.08-.03c-.04-.02-.05 0-.03.04l.1.2-.01.05h-.03l-.25-.48-.36-.71c.1.08.18.18.24.3 0 .03.02.03.03.03h.04c.02 0 .02 0 .02-.02a.42.42 0 0 0-.1-.15Z" fill="#263F61"/><path d="M35.96 14.8a24.36 24.36 0 0 1 2.33 6.41c.4 1.84.63 3.63.71 5.35 0 .04-.01.07-.05.08-.05.02-.13.02-.25 0l-.14-2.32c0-.09-.02-.09-.05-.01a.65.65 0 0 0-.03.2c0-.06-.01-.1-.05-.13V23.93l.01.28c0 .02.01.03.03.02h.04l.02-.03-.4-2.3c0-.03-.02-.03-.04 0-.01.01-.02.03-.01.06a.03.03 0 0 0 .01.02l-.07-.85c0-.02-.01-.03-.03-.02-.02 0-.03 0-.03-.02a112.87 112.87 0 0 0-.54-2c0 .05-.02.05-.05-.02a10 10 0 0 0-.36-.98l-.25-.73-.03-.02-.03.01.06.42c.01.09.03.1.04.02.01-.03 0-.06-.01-.1-.01 0 0-.01 0 0 .01 0 .02 0 .02.02.02.05.02.12.02.2-.09-.03-.13-.13-.13-.28a2.26 2.26 0 0 0-.16-.72l-.32-.84-.02.02h-.02l-.09-.26c-.02-.08-.04-.08-.05 0v.13c.01 0 0 0 0 0a.3.3 0 0 0-.08-.23.2.2 0 0 1 0-.12l-.16-.44c-.03-.2.02-.33.16-.37Z" fill="#F4F1F9"/><path d="M27.8 15.92a39.66 39.66 0 0 1 1.37 2.75c.73 1.83 1.16 3.7 1.3 5.6.07.8-.07 1.59-.41 2.36l-.03-.08c.05-.42.05-.84 0-1.26a43.9 43.9 0 0 0-.46-3.26c-.12-.71-.28-1.39-.47-2.02-.26-.88-.5-1.62-.74-2.2-.14-.37-.35-.82-.62-1.35l-.8-1.36.86.82Z" fill="#2D6079"/><path d="m35.8 15.17.16.44a.1.1 0 0 0-.01-.04l.01.04a.2.2 0 0 0 0 .12l.25.76-.04.1-.22-.52-.38-.77.25.47v.01h.03v-.04l-.1-.21c-.01-.05 0-.06.04-.04l.08.03.03-.01v-.04c-.02-.02-.03-.03-.05 0h-.05c-.03-.02-.04-.05-.02-.07.04-.12.04-.15.01-.1.02-.05.02-.1.01-.13Z" fill="#5B5D6D"/><path d="m19.7 15.37-.25.53a.23.23 0 0 0-.02.13c.01.14.08.18.2.14l-.22.48c-.37.8-.68 1.65-.94 2.51a24.4 24.4 0 0 0-.73 3.32c-.2 1.38-.35 2.78-.44 4.17-.1.04-.18.04-.23.02-.05-.02-.07-.08-.07-.18 0-.5.03-1 .08-1.51l.1-.44c.16-1.12.36-2.24.6-3.36a29.6 29.6 0 0 1 1.37-4.62c.17-.46.35-.85.54-1.19Z" fill="#7281A5"/><path d="m27.4 16.07-.97 2.4c-.04-.1-.1-.03-.18.21l-.48 1.37c-.14.47-.3.89-.47 1.24-.13.26-.33.32-.53.1a5.29 5.29 0 0 0-2.74-2c-.72-.23-1.43-.45-2.15-.66.14-.62.22-1.24.23-1.87.17-.24.38-.34.63-.3.65.37 1.32.66 2.04.86.73.2 1.37.26 1.93.18 1.15-.18 1.83-1.02 2.4-1.99l.29.46Z" fill="#014697"/><path d="m36.22 16.07.32.84-.04-.03c-.03-.03-.04-.02-.05.02a.12.12 0 0 0 .03.1v-.04c.02-.02.02-.02.03 0v.06c.02.03.03.03.04 0 .01-.03 0-.07-.01-.1.1.23.15.46.16.7l-.28-.64a.62.62 0 0 0-.1-.27c.01-.11 0-.16-.04-.14 0 .04.01.1.04.14a.63.63 0 0 1-.1-.22l-.26-.76a.3.3 0 0 1 .08.22v.01s.01 0 0 0a.35.35 0 0 1 0-.13c0-.08.03-.08.05 0l.09.26h.02l.02-.02Z" fill="#7281A5"/><path d="m35.95 16.07.22.53a21.2 21.2 0 0 1 1.02 3.2c.1.35.18.63.22.87.15.8.34 1.67.57 2.6.1.4.2 1.1.3 2.14l.08 1.13c0 .01 0 .02-.02.03-.02 0-.03 0-.03-.02a439.91 439.91 0 0 0-.52-3.43 42.55 42.55 0 0 0-1.5-6c-.19-.53-.3-.88-.34-1.05Z" fill="#1D2D4C"/><path d="m27.57 16.36-.45.83c-.29.58-.5 1.03-.61 1.36-.3.79-.57 1.7-.8 2.73l-.11.27c.2-1.04.48-2.07.83-3.08l.97-2.4.17.29Z" fill="#134B70"/><path d="M27.57 16.36c.09.14.15.18.17.1.27.53.48.98.62 1.34.23.59.48 1.33.74 2.2.19.64.35 1.32.47 2.03.2 1.11.35 2.2.46 3.26.05.42.05.84 0 1.26l-.16-1.75a30.75 30.75 0 0 0-.6-3.72 21.02 21.02 0 0 0-1.53-4.44c-.04-.1-.09-.1-.15-.01l-.14.22-.02.01h-.03v-.01l.02-.06c.03-.08.02-.09-.03-.01l-.1.18-.17.23.45-.83Z" fill="#5B5D6D"/><path d="M36.21 16.5c.03.08.06.15.1.21.06.08.1.17.1.27l.54 1.63c0 .01 0 .02.02.01v-.02l-.08-.42.08.14.15.67c.34 1.32.67 2.79.97 4.39a14.94 14.94 0 0 1 .26 2.45h.01l-.04-.86c0-.07 0-.07.02 0 .07.41.08.84.03 1.3l-.1-.86c-.1-1.04-.2-1.75-.29-2.14-.23-.93-.42-1.8-.57-2.6a8.12 8.12 0 0 0-.22-.87l-.23-.86a21.2 21.2 0 0 0-.79-2.34l.04-.1Z" fill="#263F61"/><path d="M19.4 16.65c.22.15.45.22.71.2 0 .64-.09 1.26-.23 1.88l-.37 1.06c-.15-.26-.3-.45-.45-.56-.14-.1-.34-.13-.6-.07.27-.86.58-1.7.95-2.51Z" fill="#1B5A93"/><path d="M36.54 16.91c.02.04.02.08 0 .11 0 .03-.01.03-.02 0l-.01-.06c0-.02-.01-.02-.02 0v.03h-.01a.12.12 0 0 1-.03-.09c0-.04.02-.05.05-.02l.04.03Z" fill="#918E9D"/><path d="m27.3 16.96-.02.11c-.12.2-.19.38-.21.57l-.3.7.15-.48a11 11 0 0 0-.75 2.2l-.5 2.16-.06-.28.1-.66c.23-1.03.5-1.95.8-2.73.12-.33.32-.78.6-1.36l.18-.23Z" fill="#1D2D4C"/><path d="m36.42 16.98.28.65c0 .15.04.25.13.28l.06.27.09.42-.01.02h-.02l-.53-1.64Z" fill="#5B5D6D"/><path d="m27.32 17.3-.72 1.98c-.27.7-.5 1.43-.67 2.17l-.26.77.5-2.15.58-1.6.57-1.17Z" fill="#081224"/><path d="M37.01 18.1c.14.31.26.64.37.97.02.07.03.07.04.01l-.01-.06a112.07 112.07 0 0 1 .57 2.1H38c.02-.02.02-.01.03 0l.08.85h-.01l-.01-.01v-.06c.03-.03.04-.03.05 0l.4 2.3c0 .01 0 .02-.02.02l-.04.01c-.02 0-.03 0-.03-.02v-.28l-.01.09c-.07-.18-.06-.3-.07-.48l-.03.12c0 .07-.02.07-.04 0a.38.38 0 0 1-.02-.1c.01-.2 0-.35-.01-.46-.18-.97-.39-1.94-.62-2.91-.02-.05-.06-.12-.14-.19l-.05-.08-.1-.76c0-.05-.01-.05-.03 0a.67.67 0 0 0-.03.1c-.02-.09.01-.17-.02-.26a150.54 150.54 0 0 0-.36-.95l-.01.02.07.25-.08-.14-.06-.27c0-.08 0-.15-.02-.2 0-.01 0-.02-.02-.03v.01c.01.04.02.07.01.1-.01.07-.03.07-.04-.02a5.55 5.55 0 0 0-.06-.42h.06l.25.74Z" fill="#918E9D"/><path d="m26.77 18.35-.02.12-.58 1.6a11 11 0 0 1 .75-2.2l-.15.48Z" fill="#142539"/><path d="m37.45 19.92-.33-.93-.15-.67-.07-.25.01-.02h.03l.33.95c.03.09 0 .17.02.27 0-.04.02-.08.03-.11.02-.05.03-.05.03 0l.1.76Z" fill="#7281A5"/><path d="M26.43 18.47a24.94 24.94 0 0 0-.83 3.08l-.23 1.16v.02l-.03-.02-.03-.04.46-2.62.48-1.37c.08-.24.14-.31.18-.21Z" fill="#2D6079"/><path d="M19.88 18.73c.72.21 1.43.43 2.15.66a5.29 5.29 0 0 1 2.74 2l-.41 2.05a7.37 7.37 0 0 0-1.59-1.72 7.11 7.11 0 0 0-3.36-1.28l.1-.65.37-1.06Z" fill="#0051AF"/><path d="m19.5 19.79-.1.65a57.3 57.3 0 0 0-.82 3.16c-.18.92-.16 1.94.05 3.07l-1.33-.02c.09-1.4.23-2.79.44-4.17.17-1.14.41-2.24.73-3.32.25-.06.45-.04.6.07.14.11.3.3.44.56Z" fill="#277EC4"/><path d="m37.45 19.92.05.08c.1.52.28 1.04.36 1.54a148.2 148.2 0 0 0 .37 2.14c0-.06.01-.1.04-.13 0 .04 0 .08.02.12.02.06.03.06.04 0l.02-.13c.02.18.01.3.08.48v.36l.1 2.2a1.95 1.95 0 0 1-.1-.46 4.22 4.22 0 0 0 .03.44l-.03.01c-.02 0-.02 0-.02-.02.01-.1 0-.2-.04-.29a4.52 4.52 0 0 0-.05-1.3l.04.87h-.01c-.01-.77-.1-1.59-.26-2.45a61.8 61.8 0 0 0-.97-4.4l.33.94Z" fill="#5B5D6D"/><path d="M37.5 20c.08.07.12.14.14.19.23.97.44 1.94.62 2.91.02.1.02.26.01.45-.03.03-.04.07-.04.13v.02c0 .02 0 .02 0 0l-.37-2.16c-.08-.5-.26-1.02-.36-1.54Z" fill="#7281A5"/><path d="m25.77 20.05-.46 2.62.03.04.02.02v-.02l.24-1.16.1-.27-.1.66-.02.3v.01-.09c.01-.01.02-.02.03 0l.02.04c-.04.31-.09.61-.15.9l-.17.9c-.12.82-.2 1.65-.25 2.5 0 .05-.02.1-.05.12a.16.16 0 0 1-.11.05h-1.36c.38-.62.62-1.32.7-2.1.07-.53.1-.9.12-1.13l.4-2.05c.21.22.41.16.54-.1.17-.35.33-.77.47-1.24Z" fill="#1B5A93"/><path d="M24.36 23.44c-.01.23-.05.6-.11 1.12-.1.79-.33 1.49-.71 2.1l-4.91.01a8.02 8.02 0 0 1-.05-3.07c.1-.48.37-1.53.83-3.16 1.24.18 2.35.52 3.36 1.28.54.4 1.06.97 1.59 1.72Z" fill="#0060C7"/><path d="M38.7 26.64a.66.66 0 0 1-.23 0 .14.14 0 0 0 .06-.05l-.1-2.21c.04.03.06.07.05.12 0-.09.01-.15.03-.19.03-.08.04-.08.05.01l.14 2.32Z" fill="#918E9D"/><path d="M25.5 33.05c.03.63.12 1.25.28 1.86l.11 1.08a.06.06 0 0 1-.03.07.06.06 0 0 1-.07-.01.8.8 0 0 1-.2-.27c-.16-.32-.3-.65-.42-.97-.07-.17-.4-1.04-.98-2.62-.14-.36-.3-.69-.5-.98-.65-.97-2.05-1.31-2.91-.5-.59.54-.75 1.5-.83 2.3-.06.68-.09 1.37-.09 2.08l-.01 3.7c0 .44-.02.89-.05 1.35l-.31-.63c.02-.9-.02-1.74-.1-2.54a47.62 47.62 0 0 1-.22-7.72h5.76c.05 0 .1.02.14.06a.2.2 0 0 1 .06.13c.06 1.23.2 2.43.38 3.61Z" fill="#263F61"/><path d="M19.17 29.25c-.05 2.2-.05 3.76-.02 4.64.04.93.12 1.96.24 3.08.08.8.12 1.64.1 2.54l-.67-1.63a21.32 21.32 0 0 1-.91-3.37 300.7 300.7 0 0 1-.5-3.35 3.75 3.75 0 0 1-.1-.83c0-.17-.08-.48-.26-.95.02-.03.03-.04.06-.05.68-.05 1.36-.08 2.06-.08Z" fill="#2D6079"/><path d="M17.05 29.38c.18.47.27.78.27.95 0 .29.03.56.08.83.03.12.05.24.05.34 0 .09.02.2.04.34l.42 2.67c.14.9.45 2.03.9 3.37-.1-.08-.13 0-.1.26l-.5-1.56h-.01l-.02-.01h-.03c-.01 0-.02 0-.02.02l.4 1.7-.58-1.85-.05-.56c.01.08.04.15.07.22.02.03.03.03.03 0 0-.15-.03-.28-.06-.4-.13-.44-.23-.89-.3-1.35a14.46 14.46 0 0 0-.38-2.29l-.03.02-.02.03.45 2.77-.31-1.15a26.4 26.4 0 0 1-.33-4.3c0-.02 0-.04.03-.05Z" fill="#7281A5"/><path d="M38.34 29.75c-.09.14-.1.3 0 .48l-.25 2.85c-.29 1.8-.73 3.54-1.33 5.21l-.55 1.52c-.06.2-.17.41-.32.65-.17.27-.3.56-.4.86-.01.03 0 .04.03.03l.11-.07-.14.24-.86 1.4c-.48.78-1.05 1.48-1.71 2.1l.62-.77c.2-.26.4-.53.57-.81a25.49 25.49 0 0 0 3.41-9.2c.1-.6.27-1.98-.3-2.45-.32-.27-.79-.16-1.12.05-.84.56-1.24 1.66-1.52 2.61a56.07 56.07 0 0 1-1.07 3.32c-.42 1.15-.98 2.3-1.7 3.46a9.23 9.23 0 0 1-1.78 2.13 7.1 7.1 0 0 1-1.97 1.24c-.8.32-1.3.53-1.54.64-.5.22-.9.58-1.18 1.05a3.85 3.85 0 0 1-.93-1.12v.02c.17.4.31.64.42.73.28.24.54.5.77.79a.96.96 0 0 1-.39-.18 9.1 9.1 0 0 0-.85-.95 1.1 1.1 0 0 1-.18-.28c-.01-.03 0-.06.02-.08.5-.44.95-.77 1.38-1 .82-.45 1.44-.81 1.84-1.08 1.7-1.15 2.9-3.2 3.58-5.16.67-1.88.92-3.12 1.46-5.45.2-.9.6-1.81 1.17-2.75l4.71-.03Z" fill="#081224"/><path d="m38.72 29.76-.04.97c0-.08 0-.15-.04-.19-.02-.03-.03-.03-.04.01-.02.87-.12 1.73-.28 2.6a2.2 2.2 0 0 0-.03.3c0 .1-.02.2-.05.3a1.5 1.5 0 0 0 .02.51 4.41 4.41 0 0 0-.06-.28l-.02.3c0 .1 0 .1-.02 0v-.14l-.04.15.16-1.41a20.03 20.03 0 0 0 .21-2.86h-.03a7.66 7.66 0 0 1-.05.23h-.05l-.04 1.14.02-1.16c-.1-.18-.09-.34 0-.48h.38Z" fill="#5B5D6D"/><path d="M38.66 33.13a.3.3 0 0 0-.13.05.05.05 0 0 1-.06 0 .05.05 0 0 1-.02-.04l.23-2.4.04-.98h.2c.05 0 .08.05.07.14a35.56 35.56 0 0 1-.33 3.23Z" fill="#F4F1F9"/><path d="M30.49 29.79c.1.92.1 1.86-.04 2.83-.38 2.7-1.1 5.4-2.45 7.7a6.36 6.36 0 0 1-2.68 2.5 7.5 7.5 0 0 0 2.27-2.66l.22-.4c.14-.25.24-.5.3-.77a23.5 23.5 0 0 0 1.39-4.76c.25-1.4.42-2.84.49-4.33 0-.06.04-.1.1-.1l.4-.01Z" fill="#2D6079"/><path d="M31.38 29.78a29.01 29.01 0 0 1-.46 4.49 20.32 20.32 0 0 1-1.56 4.93 8.1 8.1 0 0 1-3.13 3.73c-.59.33-1.32.57-1.91.82-.46.2-.75.54-.86 1.03 0 .03 0 .06.02.09.27.31.49.51.63.76.12.22.09.31-.1.28l-.37-.25v-.02c0-.01 0-.02.02-.02l.18.07c.04.02.06 0 .05-.03a.46.46 0 0 0-.05-.2l-.52-.7c-.16-.24-.31-.6-.46-1.08 0-.02-.02-.03-.03-.03-.02 0-.02.01-.02.03a4.84 4.84 0 0 0 .43 1.1l-.03.02a2.37 2.37 0 0 1-.45-1.02c-.02-.14 0-.3.06-.49.02-.04 0-.06-.04-.06h-.2c-.03 0-.05.02-.04.06.08.62.32 1.15.72 1.6.03.03.04.06.05.1.02.12.05.22.09.28.04.06.08.08.15.05.03-.02.05 0 .06.03l.04.18a.06.06 0 0 1-.02.06.06.06 0 0 1-.06 0c-.47-.28-.9-.64-1.29-1.08.15.05.3.13.45.27.03.02.04.02.05-.02.03-.6-.5-1.03-.23-1.64.14.02.27.05.4.09l.4.09a3 3 0 0 0 1.97-.48 6.36 6.36 0 0 0 2.68-2.5c1.36-2.3 2.07-5 2.45-7.7.13-.97.15-1.91.04-2.83l.9-.01Z" fill="#1D2D4C"/><path d="M33.63 29.78a9.4 9.4 0 0 0-1.17 2.75c-.54 2.33-.79 3.57-1.46 5.45-.69 1.97-1.88 4.01-3.58 5.16-.4.27-1.02.63-1.84 1.08a7.8 7.8 0 0 0-1.38 1c-.03.02-.03.05-.02.08.07.14.13.23.18.28.3.3.59.6.85.95l-.7-.32c-.02 0-.03-.02 0-.03l.02-.01a2.5 2.5 0 0 1-.36-.14.78.78 0 0 1-.17-.12c.2.03.23-.06.1-.28-.13-.25-.35-.45-.62-.76a.1.1 0 0 1-.02-.09c.11-.49.4-.83.86-1.03.59-.25 1.32-.49 1.91-.82a8.1 8.1 0 0 0 3.13-3.73 20.32 20.32 0 0 0 1.56-4.93c.27-1.48.42-2.97.46-4.5l2.25.01Z" fill="#142539"/><path d="m25.78 34.9-.05-.55v-.02h.03l.33 1.5v.03l-.02.02a8.93 8.93 0 0 0 1.64 3.85l-.35.63c-.7-.87-1.43-1.72-2.16-2.55-.3-.35-.63-.66-.98-.95-.55-.43-1.37-.71-1.91-.09-.3.36-.5.77-.6 1.26a5.63 5.63 0 0 0 1.16 4.82c0 .04-.03.06-.1.07a.4.4 0 0 1-.2-.06 2.16 2.16 0 0 0-.83-.3c-.01 0-.02 0-.02.02v.01c.02.01.02.02.01.02a.1.1 0 0 0-.03 0c-.02 0-.03 0-.04-.02a.95.95 0 0 0-.32-.27l-.83-.96-.71-1.22c.03-.46.05-.91.05-1.35v-3.7c.01-.71.04-1.4.1-2.07.08-.82.24-1.77.83-2.32.86-.8 2.26-.46 2.9.5.2.3.37.63.5 1l.99 2.6c.12.33.26.66.42.98.06.12.13.2.2.27l.04.01a.06.06 0 0 0 .06-.03V36l-.1-1.08Z" fill="#1D2D4C"/><path d="m38.28 32.88.04-1.5.04-1.12c0-.01 0-.02.02-.02h.03c.02 0 .03 0 .02.02a3.86 3.86 0 0 0-.02.39 7.66 7.66 0 0 0 .05-.63h.03c0 .96-.07 1.91-.21 2.86Z" fill="#263F61"/><path d="m38.34 30.23-.02 1.16-.04 1.49-.16 1.41-.04.22-.1.18.08-.7h-.01l-.13.53.17-1.44.25-2.85Z" fill="#1D2D4C"/><path d="m38.68 30.73-.23 2.4a.05.05 0 0 0 .02.06.05.05 0 0 0 .06 0 .3.3 0 0 1 .13-.06 25.06 25.06 0 0 1-.81 3.8 4.4 4.4 0 0 1 .1-1.41l.13-1.01.04-.22.03-.15.01.14c.01.1.02.1.02 0l.02-.3a4.4 4.4 0 0 1 .06.27 1.5 1.5 0 0 1-.02-.5c.03-.1.05-.2.05-.3 0-.14.01-.24.03-.3.16-.87.26-1.73.28-2.6 0-.04.02-.04.04 0 .03.03.04.1.04.18Z" fill="#918E9D"/><path d="m32.92 45.01-.17.13-.75.62-.02-.03v-.01c.7-.67 1.34-1.42 1.89-2.23a3.18 3.18 0 0 0 .61-1.34.12.12 0 0 0-.06-.07.11.11 0 0 0-.04-.02.5.5 0 0 0-.27.07l-.33.2-2.04 1.48a11.2 11.2 0 0 1-2.91 1.54l-1.95.66a8.57 8.57 0 0 0-1.07.5v.03c0 .02-.01.02-.02.01l-.45-.26c.28-.47.68-.83 1.18-1.05l1.54-.64a7.1 7.1 0 0 0 1.97-1.24 9.23 9.23 0 0 0 1.78-2.13c.72-1.15 1.28-2.3 1.7-3.46.36-.99.72-2.1 1.07-3.32.28-.95.68-2.05 1.52-2.6.33-.22.8-.33 1.12-.06.57.47.4 1.85.3 2.45a25.49 25.49 0 0 1-3.41 9.2c-.18.28-.37.55-.57.8-.2.27-.41.52-.62.77Z" fill="#040819"/><path d="m38.1 33.08-.18 1.44-.26 1.48-.15.6-.1.33-1.1 2.93-.2.57-.48.85-.11.07c-.03.01-.04 0-.03-.03.1-.3.23-.59.4-.86.15-.24.26-.46.32-.65l.55-1.52c.6-1.67 1.04-3.41 1.33-5.2ZM26.38 36.08a11.18 11.18 0 0 0 0 .14 25.93 25.93 0 0 0 .48 1.6c.21.58.51 1.18.9 1.8 0 .05-.02.09-.05.1a8.93 8.93 0 0 1-1.08-2.22 120.2 120.2 0 0 0-.56-1.62l.02-.02v-.02l-.33-1.5-.02-.01-.01.02.05.56a8.24 8.24 0 0 1-.27-1.86l.17.68c.06.26.11.49.17.68.13.48.26.96.37 1.45a.52.52 0 0 1-.02-.16.02.02 0 0 1 .01-.02h.02v.02l.15.38Z" fill="#142539"/><path d="m17.66 34.88-.02-.53c.07.46.17.91.3 1.35.03.12.05.25.05.4 0 .03 0 .03-.02 0a.73.73 0 0 1-.07-.23 1.1 1.1 0 0 0-.19-.36l-.36-1.78.3 1.15ZM37.99 34.7l-.33 1.3.26-1.48a10.18 10.18 0 0 0 .14-.52l-.07.7Z" fill="#263F61"/><path d="m38.08 34.51-.14 1.01c-.16.6-.28 1.2-.36 1.77-.01.13 0 .13.07.02l.2-.38-.63 1.95c-.01.03-.03.05-.05.06-.03.01-.04.03-.03.07a.06.06 0 0 1-.02.07c-.05.03-.09.09-.1.17-.01.02 0 .03 0 0h.02v-.02l.01-.05c.04-.05.05-.04.04.02a.72.72 0 0 1-.18.34.12.12 0 0 0-.03.1c0 .1-.02.17-.08.19-.04 0-.05.03-.05.07a.2.2 0 0 1 0 .11c-.23.48-.48.96-.75 1.43-.1.18-.12.1-.04-.21.07-.29.2-.57.32-.84.2-.48.32-1 .49-1.5.28-.63.5-1.29.64-1.96l.1-.33.15-.6.33-1.3.09-.19Z" fill="#5B5D6D"/><path d="m17.9 35.88.05.56-.24-.93c.09.1.15.23.19.37Z" fill="#1D2D4C"/><path d="M37.94 35.52c-.1.5-.14.96-.1 1.4l.01.01-.2.38c-.06.11-.08.1-.07-.02.08-.57.2-1.16.36-1.77Z" fill="#7281A5"/><path d="m27.36 40.36-.38.57c-.66-.69-2.03-2.06-3.13-1.77-1.47.4-1.19 2.59-.98 3.69a5.63 5.63 0 0 1-1.16-4.82c.1-.49.3-.9.6-1.26.54-.62 1.36-.34 1.9.1.36.28.7.6 1 .94.72.83 1.44 1.68 2.15 2.55Z" fill="#142539"/><path d="M26.38 36.08c.37 1.17.86 2.3 1.48 3.38l-.1.17c-.39-.63-.69-1.23-.9-1.8a25.95 25.95 0 0 1-.48-1.61v.01h.01v-.15Z" fill="#081224"/><path d="M18.71 38.14a6.5 6.5 0 0 0 .4 1.16c.05.17.1.3.14.38l.53 1.11c.1.22.2.4.3.56l.32.54c.1.18.24.31.34.5.07.15.14.28.23.38.13.15.36.46.69.92.15.2.2.18.15-.07a2.8 2.8 0 0 0-.25-.73c-.14-.28-.38-.54-.57-.8l.35.23c.12.07.23.16.32.27 0 .02.02.02.04.02h.03v-.05c.3.04.58.14.84.3a.25.25 0 0 0-.02.26c-.27.61.26 1.03.23 1.64 0 .04-.02.04-.05.02-.16-.14-.3-.22-.45-.27a14.61 14.61 0 0 1-2.33-3.04c-.5-.9-.99-1.96-1.43-3.18l-.39-1.7c0-.02 0-.02.02-.02h.05v.01l.51 1.56Z" fill="#5B5D6D"/><path d="M37.4 36.93a9.43 9.43 0 0 1-.63 1.96l-.45.97 1.09-2.93Z" fill="#1D2D4C"/><path d="m18.82 37.88.67 1.63.31.63.71 1.22a80.61 80.61 0 0 0 .33.63c0-.04.01-.05.05-.03.04.03.07.07.1.12.2.27.43.53.57.81.11.23.2.47.25.73.04.25 0 .27-.15.07-.33-.46-.56-.77-.69-.92-.09-.1-.16-.23-.23-.37-.1-.2-.23-.33-.34-.5l-.32-.55c-.1-.15-.2-.34-.3-.56l-.53-1.1-.15-.39a6.52 6.52 0 0 1-.4-1.17c-.02-.25.01-.33.12-.25Z" fill="#918E9D"/><path d="M26.98 40.93c-.72 1.07-1.9 2.2-3.27 2.12a6.8 6.8 0 0 1-.95-.13c.08 0 .12-.03.11-.07-.21-1.1-.5-3.3.98-3.69 1.1-.29 2.47 1.08 3.13 1.77Z" fill="#081224"/><path d="M36.77 38.9c-.17.5-.29 1-.49 1.49-.11.27-.25.55-.32.84-.08.32-.06.39.04.21-.21.42-.48.84-.82 1.25.22-.77.53-1.53.93-2.26l.2-.57.46-.97Z" fill="#263F61"/><path d="M25.32 42.82a3 3 0 0 1-1.97.48c-.08 0-.21-.04-.4-.1a2.34 2.34 0 0 0-.4-.08.25.25 0 0 1 .02-.26 6.79 6.79 0 0 0 1.15.2c1.36.07 2.54-1.06 3.26-2.13l.38-.57.35-.63c.03-.02.04-.06.05-.1l.1-.17.24-.47a2.7 2.7 0 0 1-.29.77 63 63 0 0 0-.22.4 7.5 7.5 0 0 1-2.27 2.66Z" fill="#918E9D"/><path d="M36.1 40.43c-.39.73-.7 1.49-.92 2.26-.43.67-.96 1.32-1.59 1.94l-.92.73h-.02l-.02-.02c-.02 0-.02-.02 0-.03a.5.5 0 0 0 .12-.17l.17-.13c.66-.6 1.23-1.3 1.71-2.08.35-.42.63-.89.86-1.41l.14-.24.48-.85Z" fill="#1D2D4C"/><path d="M32.75 45.14a.5.5 0 0 1-.13.17v.03l.03.02h.02l.92-.73a10.1 10.1 0 0 1-2.95 2.1c-.3.13-.65.21-1.05.24l-1.06.03c-.78 0-1.55-.01-2.32-.06a.2.2 0 0 0-.2-.07l-.41-.16a6.15 6.15 0 0 0-.77-.79 2.4 2.4 0 0 1-.43-.73v-.02h.03c.23.43.53.8.9 1.12l.46.26c.01.01.02 0 .02-.01v-.03c.5-.27.86-.44 1.07-.5l1.95-.66a11.2 11.2 0 0 0 2.9-1.54 1895.73 1895.73 0 0 0 2.38-1.68.5.5 0 0 1 .27-.07.12.12 0 0 1 .08.04.12.12 0 0 1 .02.1c-.05.46-.36.92-.61 1.3a13.65 13.65 0 0 1-1.9 2.23l.03.03.75-.62Z" fill="#010410"/><path d="m21.34 42.32-.35-.24a.37.37 0 0 0-.1-.12c-.04-.02-.05-.01-.05.03a.13.13 0 0 0 .02.06l-.35-.7.83.97Z" fill="#7281A5"/><path d="M35.49 41.52c-.23.52-.51 1-.86 1.4l.86-1.4Z" fill="#142539"/><path fill="#131619" d="M16 25h24v5H16z"/><defs><linearGradient id="a" x1="10.42" y1="9.71" x2="68.15" y2="76.02" gradientUnits="userSpaceOnUse"><stop stop-color="#1A1E21"/><stop offset="1" stop-color="#06060A"/></linearGradient></defs></svg>