<svg width="112" height="112" viewBox="0 0 56 56" fill="none" xmlns="http://www.w3.org/2000/svg">
<rect width="56" height="56" fill="#F0F3FA"/>
<path fill-rule="evenodd" clip-rule="evenodd" d="M28 11.1603C31.3623 11.1603 34.6491 12.1526 37.4447 14.0116C40.2403 15.8707 42.4193 18.5131 43.7059 21.6046C44.9926 24.6961 45.3293 28.0979 44.6733 31.3799C44.0174 34.6618 42.3983 37.6765 40.0208 40.0426C37.6433 42.4088 34.6142 44.0201 31.3165 44.673C28.0189 45.3258 24.6007 44.9907 21.4944 43.7102C18.388 42.4296 15.733 40.2611 13.865 37.4788C11.997 34.6965 11 31.4254 11 28.0792C11 23.592 12.7911 19.2886 15.9792 16.1157C19.1673 12.9428 23.4913 11.1603 28 11.1603Z" fill="url(#paint0_linear_2355_47705)"/>
<path d="M20.1819 28.8206C17.3944 28.6048 16.1813 27.0353 15.9232 26.2776L18.6333 26.9326C19.4592 26.8684 21.1731 26.7245 21.4209 26.6629C21.7306 26.5858 25.4086 27.6647 25.9893 27.8573C26.4539 28.0115 28.0154 30.7215 28.7381 32.0572L27.3057 38.0681L22.2339 39.4167L18.9043 38.5305C24.1697 38.2222 25.4086 35.6021 25.4086 33.2902C25.4086 30.9784 23.6664 29.0903 20.1819 28.8206Z" fill="url(#paint1_linear_2355_47705)"/>
<path fill-rule="evenodd" clip-rule="evenodd" d="M32.2656 12.9799C29.5767 11.956 29.2402 8.88906 27.6829 8C27.6829 8 27.7067 12.3101 26.8119 14.1401L29.1539 14.4528L31.7698 13.8408L32.2656 12.9799Z" fill="url(#paint2_linear_2355_47705)"/>
<path fill-rule="evenodd" clip-rule="evenodd" d="M36.3362 13.334C38.6803 14.6469 40.6779 16.4946 42.165 18.7253C43.652 20.956 44.586 23.506 44.8903 26.1658C45.1945 28.8255 44.8603 31.5192 43.9151 34.0254C42.9699 36.5317 41.4407 38.779 39.4531 40.5826C37.4655 42.3863 35.0763 43.6949 32.4817 44.4009C29.8872 45.1069 27.1613 45.1902 24.5281 44.6439C21.8949 44.0975 19.4296 42.9372 17.3346 41.2582C15.2396 39.5793 13.5748 37.4295 12.477 34.9857C17.1416 40.1363 25.8143 39.9215 26.8893 34.8108C27.9643 29.7002 24.0143 27.6228 20.1253 27.5264C15.9267 27.4227 14.2621 25.1438 14.0209 21.3801L20.9919 18.9648C22.6996 18.3721 23.2728 16.2976 25.1711 14.7862C25.6074 14.4394 26.1285 14.3031 26.7359 14.0453C27.3434 13.7874 28.204 13.7489 29.0229 13.617C30.3629 13.4081 31.417 12.9873 32.5202 12.9917C33.7999 12.9927 35.077 13.1073 36.3362 13.334Z" fill="#EDE7F6"/>
<path fill-rule="evenodd" clip-rule="evenodd" d="M15.8165 39.877C14.4244 38.4542 13.294 36.7991 12.477 34.9872C17.1416 40.1378 25.8143 39.923 26.8893 34.8123C27.9643 29.7017 24.0143 27.6243 20.1253 27.5279C17.5779 27.4642 15.9565 26.6004 15.0319 25.0904L15.1406 24.8845C15.6602 25.6079 16.3943 26.1514 17.2399 26.4388C18.6275 26.8937 22.5299 24.9022 24.2034 25.4016C24.2034 25.4016 29.9906 25.495 31.21 30.8753C33.3689 40.3912 21.7199 45.9123 15.8165 39.877Z" fill="url(#paint3_linear_2355_47705)"/>
<path fill-rule="evenodd" clip-rule="evenodd" d="M15.5068 25.7335C14.5897 24.6859 14.1356 23.2145 14.018 21.3801L16.4225 20.5458C16.4225 20.5458 17.1669 22.5359 15.0825 23.3983C15.4666 25.3364 16.6577 26.1707 18.0186 26.1366C20.0405 26.0862 22.0385 24.477 24.2034 25.3957C22.2678 25.292 20.5184 26.2951 18.9923 26.6374C17.6732 26.9338 16.5133 26.8878 15.4994 25.7276L15.5068 25.7335Z" fill="#330099"/>
<path fill-rule="evenodd" clip-rule="evenodd" d="M38.2777 14.6024C41.4464 17.0005 43.6694 20.429 44.5592 24.2906C45.449 28.1522 44.9493 32.2021 43.1472 35.7347C41.345 39.2673 38.3547 42.0587 34.6971 43.6226C31.0395 45.1864 26.9466 45.4236 23.1314 44.2927C32.5321 45.4885 37.6762 36.6305 35.4429 26.8078C34.1237 29.5698 31.21 30.8827 31.21 30.8827C34.3366 27.2227 33.7083 23.3256 30.7246 20.6955C27.7409 18.0653 23.7269 19.8672 23.7269 19.8672C23.7969 19.107 24.8555 18.3854 25.8262 17.9513C26.797 17.5171 27.9107 16.2769 27.0754 15.1892C26.264 14.1283 24.9344 14.9996 24.8674 15.0411C25.7607 14.2424 26.9771 13.5593 28.8263 13.2629C29.9621 13.0832 31.1097 12.9872 32.2597 12.9755C32.9163 11.507 33.9436 9.93338 35.5233 8.97467C35.5233 8.97467 37.9948 10.7335 38.2717 14.5936L38.2777 14.6024Z" fill="url(#paint4_linear_2355_47705)"/>
<path fill-rule="evenodd" clip-rule="evenodd" d="M31.8919 17.5571H31.8994H31.8919ZM32.1182 17.6904C32.4666 17.849 33.1768 17.9868 33.951 17.0977C33.951 17.0977 33.6533 19.2493 34.7387 20.5058C34.5585 19.9916 34.4915 19.4523 34.6791 18.9663C35.2866 17.3956 37.039 16.911 37.2638 14.7876C37.4886 12.6643 36.7427 11.1114 35.5456 9.57181C35.5456 9.57181 33.3778 10.9869 32.9967 13.3177C32.6155 15.6486 33.083 16.8043 32.55 17.5304C32.5087 17.6026 32.4435 17.6582 32.3655 17.6876C32.2876 17.7171 32.2017 17.7186 32.1227 17.6919L32.1182 17.6904Z" fill="#E6E6E6"/>
<path fill-rule="evenodd" clip-rule="evenodd" d="M36.1189 22.6573C36.1189 22.6573 40.645 22.7803 43.7121 21.5964C42.5539 18.8295 40.6811 16.4167 38.2837 14.6024C38.4326 16.668 37.9502 19.3352 36.1233 22.6573H36.1189Z" fill="url(#paint5_linear_2355_47705)"/>
<path fill-rule="evenodd" clip-rule="evenodd" d="M27.2794 16.5035C28.4481 16.5821 29.599 16.7154 31.1921 16.5806C31.3939 15.3396 31.7547 14.1296 32.2656 12.9799C31.1157 12.991 29.9681 13.0866 28.8323 13.2659C28.1958 13.3616 27.5718 13.526 26.9712 13.7563C26.0478 14.113 25.2125 14.6633 24.522 15.37C24.6336 15.2574 24.7513 15.1462 24.8733 15.0381C24.9403 14.9936 26.2699 14.1209 27.0814 15.1862C27.2292 15.3693 27.3255 15.5881 27.3603 15.8204C27.3951 16.0527 27.3672 16.29 27.2794 16.508V16.5035Z" fill="url(#paint6_linear_2355_47705)"/>
<path fill-rule="evenodd" clip-rule="evenodd" d="M23.6674 20.0228C23.6674 20.0228 23.6986 18.9722 24.8748 18.4165C26.2491 17.766 27.0814 19.3056 25.7235 19.5575C25.2158 19.6538 24.4594 19.7057 23.6674 20.0228Z" fill="#330099"/>
<path fill-rule="evenodd" clip-rule="evenodd" d="M35.2955 17.9601C36.9511 15.8278 36.5446 14.1994 35.9997 13.2718C35.9625 13.2066 35.9223 13.1444 35.8836 13.0866C35.718 12.8333 35.5175 12.6043 35.288 12.4064C35.3174 12.5393 35.3324 12.6749 35.3327 12.811C35.3338 12.9298 35.3269 13.0486 35.3119 13.1666C35.1779 14.2335 34.4796 15.3448 34.4796 15.3448C34.4607 14.9304 34.3588 14.524 34.1798 14.1495C34.0008 13.7749 33.7484 13.4397 33.4374 13.1636C33.6532 14.721 33.2438 18.0001 32.1599 17.6978H32.1301C32.48 17.8564 33.1887 17.9942 33.9614 17.1051C33.9614 17.1051 33.6637 19.2567 34.7491 20.5132C34.5674 19.999 34.5004 19.4597 34.6895 18.9737C34.8366 18.607 35.045 18.2679 35.3059 17.9705L35.2955 17.9601Z" fill="url(#paint7_linear_2355_47705)"/>
<defs>
<linearGradient id="paint0_linear_2355_47705" x1="16.5276" y1="13.1448" x2="29.1979" y2="41.0319" gradientUnits="userSpaceOnUse">
<stop stop-color="#A7FFEB"/>
<stop offset="0.506453" stop-color="#0091EA"/>
<stop offset="1" stop-color="#6200EA"/>
</linearGradient>
<linearGradient id="paint1_linear_2355_47705" x1="17.7318" y1="28.1478" x2="26.7756" y2="34.5882" gradientUnits="userSpaceOnUse">
<stop stop-color="#0896EA"/>
<stop offset="1" stop-color="#2637C5"/>
</linearGradient>
<linearGradient id="paint2_linear_2355_47705" x1="27.8652" y1="7.55514" x2="29.9149" y2="15.4261" gradientUnits="userSpaceOnUse">
<stop stop-color="#69F0AE"/>
<stop offset="0.45" stop-color="#00B0FF"/>
<stop offset="0.77" stop-color="#2962FF"/>
<stop offset="1" stop-color="#6200EA"/>
</linearGradient>
<linearGradient id="paint3_linear_2355_47705" x1="30.1009" y1="29.5212" x2="16.5415" y2="40.3996" gradientUnits="userSpaceOnUse">
<stop stop-color="#CDD1E0"/>
<stop offset="1" stop-color="#EDE7F6"/>
</linearGradient>
<linearGradient id="paint4_linear_2355_47705" x1="38.8576" y1="3.05051" x2="27.1857" y2="45.0257" gradientUnits="userSpaceOnUse">
<stop stop-color="#69F0AE"/>
<stop offset="0.411782" stop-color="#00B0FF"/>
<stop offset="0.785075" stop-color="#2962FF"/>
<stop offset="1" stop-color="#6200EA"/>
</linearGradient>
<linearGradient id="paint5_linear_2355_47705" x1="39.9155" y1="14.6024" x2="40.4953" y2="22.3114" gradientUnits="userSpaceOnUse">
<stop offset="0.241354" stop-color="#8CECAD"/>
<stop offset="1" stop-color="#01AEFF"/>
</linearGradient>
<linearGradient id="paint6_linear_2355_47705" x1="28.3938" y1="12.9799" x2="28.6602" y2="16.404" gradientUnits="userSpaceOnUse">
<stop stop-color="#78E6B6"/>
<stop offset="1" stop-color="#0CB7F5"/>
</linearGradient>
<linearGradient id="paint7_linear_2355_47705" x1="34.3034" y1="12.4064" x2="34.3034" y2="20.5132" gradientUnits="userSpaceOnUse">
<stop stop-color="#CCC4DB"/>
<stop offset="1" stop-color="#8C72C0"/>
</linearGradient>
</defs>
</svg>
