<svg width="112" height="112" viewBox="0 0 56 56" xmlns="http://www.w3.org/2000/svg"><path fill="url(#a)" d="M0 0h56v56H0z"/><path d="M31.12 11.3a49.3 49.3 0 0 0-3.24 4.52 20.24 20.24 0 0 0-2.24 5c-.23-.1-.43 0-.6.27-.1.2-.23.38-.37.56-.74.99-1.5 1.96-2.27 2.93a6.4 6.4 0 0 0-.8 1.92 43.54 43.54 0 0 0-4.28 4.97 91.73 91.73 0 0 0-3.74 5.52 16.86 16.86 0 0 1-2.5-10.61 16.88 16.88 0 0 1 4.7-10.2 16.88 16.88 0 0 1 9.74-5c1.87-.27 3.74-.24 5.6.11Z" fill="#4A85C3"/><path d="M37.62 13.99c-.44.23-.82.51-1.13.85-.25.26-.53.64-.85 1.15-.53.81-1.2 1.76-2.02 2.84l-1.58-.73a4.88 4.88 0 0 0-1.67-.1c-.6.06-.99.36-1.16.9a.29.29 0 0 0 0 .14l.26 1.52c.02.1-.02.16-.11.17l-1.13.2c-.06.02-.1 0-.13-.06-.03-.05-.03-.1.02-.15.2-.21.47-.37.8-.48.06-.02.09-.06.08-.13-.02-.06-.06-.09-.12-.09l-1.07.08a.1.1 0 0 0-.09.06c-.04.09-.15.17-.34.26-.68.3-1.26.44-1.74.4a20.24 20.24 0 0 1 2.24-5 49.3 49.3 0 0 1 3.24-4.53 16.8 16.8 0 0 1 6.5 2.7Z" fill="#6696C9"/><path d="M37.62 13.99c2.3 1.57 4.1 3.59 5.4 6.05A16.75 16.75 0 0 1 45 27.91a16.85 16.85 0 0 1-4 11.05 16.85 16.85 0 0 1-10.89 5.9A16.87 16.87 0 0 1 17.8 41.6c.42-.76.85-1.5 1.29-2.2.42-.68.92-1.07 1.51-1.17.04-.01.07-.02.1-.05l.8-.63a.2.2 0 0 0 .09-.18.2.2 0 0 0-.1-.17.89.89 0 0 1-.25-.2.29.29 0 0 1-.07-.2l.03-.67c.05.12.08.25.07.39 0 .19.03.3.1.36.13.1.31.06.56-.14l.29-.07a.1.1 0 0 1 .08.02c.1.07.12.15.05.22-.07.07-.05.12.04.16.07.02.16 0 .27-.06.16-.09.29-.14.39-.15.05 0 .1.02.12.07.03.04.03.09 0 .14L21.13 40v.02l.05.04c.02.02.04.02.06 0 .86-.77 1.6-1.63 2.22-2.6.03-.04.07-.05.11-.03.05.02.06.06.05.1a17.56 17.56 0 0 1-1.31 3.08c-.02.03-.01.06.02.08.02.02.05.02.07 0 .42-.44.82-1.03 1.2-1.77.23-.44.54-1.1.91-1.98.02-.04.04-.05.08-.04l.07.02c.02 0 .03.02.02.05l-1.61 5.12c-.02.07 0 .11.06.14.06.02.11 0 .14-.06l1.25-2.46.02-.02h.01c.05 0 .06.04.05.08-.3 1.25-.46 2.21-.48 2.88 0 .07.03.12.1.13.06.02.11 0 .15-.06.43-.84.78-1.85 1.05-3.01 0-.04.03-.06.06-.07.04 0 .06 0 .09.02l.07.07c.02.02.02.04.02.06-.12.88-.11 1.73.04 2.53.01.09.06.13.15.13.08 0 .13-.04.14-.13l.47-2.75c0-.03.02-.04.04-.04.03 0 .05.01.05.04l.44 2.43c.02.12.1.17.21.16.12-.02.17-.08.16-.2l-.19-2.79c0-.04.01-.06.05-.07.03 0 .06 0 .07.04l.07.16A11.6 11.6 0 0 0 28.91 42c.03.04.06.04.1.02.03-.02.04-.06.03-.1L27.8 38.8c-.01-.03 0-.05.03-.07.03-.02.05-.02.08.01l.8 1c.02.05.06.05.1.02l.06-.04c.02-.02.02-.04.01-.06l-.51-1.04a.4.4 0 0 1-.03-.29 2 2 0 0 1 .34-.73c.3-.17.57-.4.79-.69a.32.32 0 0 0 .06-.24.8.8 0 0 0-.1-.28c-.04-.09-.02-.16.05-.22.17-.15.2-.35.1-.58a.68.68 0 0 1-.1-.36c.04-.3.03-.61-.03-.92-.05-.24-.03-.49.06-.73.02-.06.05-.1.09-.15L30.9 32c.1-.1.2-.19.32-.27l1.05-.7a.18.18 0 0 0 .05-.05l1.15-1.95.04-.1.2-.5c.07-.16.15-.3.24-.44a9.1 9.1 0 0 0 1.61-3.55c.08-.38.12-.8.11-1.22 0-.49-.07-.87-.19-1.16-.09-.2-.27-.46-.57-.75a.76.76 0 0 1-.2-.38c-.18-.8-.54-1.49-1.1-2.09A44.51 44.51 0 0 0 35.64 16c.32-.5.6-.89.85-1.15.31-.34.7-.62 1.13-.85Z" fill="#4A85C3"/><path d="M32.04 18.1c-.27.31-.32.64-.14.97.58 1.1.95 1.83 1.1 2.18a8 8 0 0 1 .69 2.87c.05 1.25-.33 2.06-1.12 2.45-.5.24-1.04.39-1.62.44a13.63 13.63 0 0 1-2.06-.03c-.16-.01-.32 0-.48.03-.36.06-.87.25-1.54.57a30.18 30.18 0 0 1-.76.35c-.6.27-1 .5-1.17.69-.27.3-.33.72-.15 1.25-.63-.14-1.02-.62-1.19-1.44a8.86 8.86 0 0 1-.06-2.09v-.1a6.93 6.93 0 0 0-.24-1.96c-.02 0-.04 0-.05.02a7.08 7.08 0 0 0-1.31 3.06 7.59 7.59 0 0 0 .08 3.27c.18.7.56 1.93 1.14 3.69l-.23-.47c-.04-.08-.1-.1-.18-.07-.09.03-.12.08-.1.17l.17.96c.02.12-.03.19-.16.2l-1.24.08c-.07 0-.1.04-.08.1.02.08.06.12.13.14.1.02.5.06 1.23.12.06 0 .1.03.1.1.01.05-.02.1-.07.11l-1.05.32a.2.2 0 0 0-.11.08c-.22.32-.1.51.36.57-.25.2-.43.25-.57.14-.06-.05-.1-.17-.09-.36a.86.86 0 0 0-.07-.4l-.66-.46a.18.18 0 0 1-.06-.07c-.06-.12-.05-.24.03-.36.1-.14.13-.45.1-.93v-.22c0-.1.03-.17.1-.22.3-.24.5-.52.63-.84a.18.18 0 0 1 .06-.07l.44-.34c.2-.17.27-.37.18-.62-.36-1-.59-2.07-.69-3.2-.05-.62.04-1.38.26-2.28.29-.96.56-1.6.81-1.92.77-.97 1.53-1.94 2.27-2.93.14-.18.26-.37.38-.56.16-.28.36-.37.59-.27.48.04 1.06-.1 1.74-.4.19-.09.3-.17.34-.26a.1.1 0 0 1 .1-.06l1.06-.08c.06 0 .1.03.12.1 0 .06-.02.1-.08.12-.33.1-.6.27-.8.48-.05.05-.05.1-.02.15.02.06.07.08.13.07l1.13-.2c.1-.02.13-.08.11-.18l-.27-1.52a.29.29 0 0 1 .01-.15c.17-.53.56-.83 1.16-.9a4.88 4.88 0 0 1 1.67.1Z" fill="#424969"/><path d="m32.04 18.1 1.58.73c.56.6.92 1.3 1.1 2.1.03.14.1.26.2.37.3.3.48.54.57.75.12.29.19.67.2 1.16 0 .43-.04.84-.12 1.22a9.1 9.1 0 0 1-1.6 3.55c-.1.14-.18.28-.24.44l-.21.5-.04.1-1.15 1.95a.18.18 0 0 1-.05.06l-1.05.7c-.12.07-.22.16-.32.26l-1.3 1.44a.44.44 0 0 0-.1.15c-.08.24-.1.49-.05.73.06.3.07.62.03.92-.01.1.02.21.1.36.1.23.07.43-.1.58-.07.06-.09.13-.04.22.05.1.09.2.1.28a.32.32 0 0 1-.07.24c-.22.29-.49.52-.79.7l-.34-.36a.2.2 0 0 1-.06-.19c.04-.2-.08-.32-.35-.35a.16.16 0 0 0-.15.06.16.16 0 0 0-.02.16l.41 1.06c.03.07.01.13-.05.17-.06.05-.12.05-.18 0l-1.07-.73c-.08-.06-.1-.12-.04-.2l1.54-2.24c.03-.04.02-.07 0-.1-.03-.02-.06-.02-.1 0-.66.5-1.22.94-1.67 1.34-.14.12-.32.32-.55.6l-.24.28c-.08.08-.15.09-.23 0l-1.18-1.17a.13.13 0 0 1-.03-.11l.1-.58c.01-.11.07-.14.17-.09l.7.35c.08.04.13.02.15-.07.1-.46.12-.88.08-1.25a10.1 10.1 0 0 0-.3-1.3c-.13-.45-.22-1.12-.26-2.03l-.07-.88c-.05-.29-.1-.5-.2-.63l-.01-.01h-.01c-.11-.1-.11-.1 0 0 .11.12.13.3.06.53-.18-.53-.12-.95.15-1.25.18-.2.57-.42 1.17-.69a23.34 23.34 0 0 0 .76-.35 6.44 6.44 0 0 1 1.54-.57c.16-.03.32-.04.48-.03a13.6 13.6 0 0 0 2.07.03 4.6 4.6 0 0 0 1.61-.44c.8-.39 1.17-1.2 1.12-2.45a8 8 0 0 0-.69-2.87c-.15-.35-.52-1.07-1.1-2.18-.18-.33-.13-.66.14-.97Z" fill="#1C2B56"/><path d="M31.1 21.18c.04.09.13.14.19.1.06-.02.07-.12.02-.2-.04-.1-.12-.14-.18-.11-.06.03-.08.12-.03.21Z" fill="#656281"/><path d="M25.94 21.96h-.02v-.01c-.07-.09-.07-.2 0-.36.07-.16.2-.3.36-.43l.05-.04c.16-.13.33-.21.5-.25.17-.03.28 0 .35.08v.02l-1.24.99ZM29.88 21.17c.01.03 0 .05-.02.06l-.04.01c-1.08.47-1.65.65-1.7.54l-.02-.04c-.04-.12.48-.4 1.56-.88l.03-.01c.03-.01.05 0 .06.02l.13.3ZM30.33 21.85c.08.16-.12.29-.62.39-1.02.2-1.97.54-2.83 1.02a.28.28 0 0 1-.23.02l-.26-.08c-.07-.02-.1-.06-.1-.13.01-.07.05-.11.11-.12.58-.1 1.74-.57 3.49-1.4.21-.1.36 0 .44.3Z" fill="#6696C9"/><path d="M29.71 22.24c.5-.1.7-.23.62-.4l1.26 1.97c.02.04.02.07 0 .11a.11.11 0 0 1-.09.07c-.2.02-.36 0-.5-.06a.2.2 0 0 1-.14-.19 1.61 1.61 0 0 0-.2-.75.18.18 0 0 0-.18-.09l-.4.05c-.57.07-.98.14-1.23.22-.4.12-.72.32-.98.6-.13.15-.28.18-.45.1l-.05-.04a.2.2 0 0 1-.12-.15c0-.08.02-.14.08-.18.4-.33.7-.5.9-.51a3.95 3.95 0 0 0 1.91-.59.09.09 0 0 0 .05-.09.1.1 0 0 0-.05-.08c-.1-.04-.23-.04-.43 0Z" fill="#656281"/><path d="M25.9 22.41c-.02-.02-.01-.04 0-.05l.04-.02c.67-.34 1.03-.46 1.08-.35l.03.05c.05.1-.25.33-.92.67l-.04.02c-.01.01-.03 0-.04-.01l-.16-.31Z" fill="#6696C9"/><path d="M25.55 23.4a3.6 3.6 0 0 1 2.25 1.53c.08.1.25.23.52.37.24.13.45.2.62.25l1.08.2c.83.13 1.44.27 1.84.4.09.03.13.09.13.17 0 .1-.05.15-.14.17-.44.1-.91.15-1.42.12a9.27 9.27 0 0 1-3.6-.84c-.75-.37-1.33-.65-1.76-.84-.2-.1-.25-.24-.15-.44l.52-1.03c.02-.05.06-.06.1-.05Z" fill="#656281"/><path d="m29.84 24.15.63-.5a.13.13 0 0 1 .14-.02c.05.02.08.06.08.11.02.16.11.27.27.34.1.04.28.07.55.1l.28.05c.04 0 .06.03.06.07 0 .05-.02.07-.07.07-.63.06-1.26.05-1.89-.03a.1.1 0 0 1-.09-.08.1.1 0 0 1 .04-.1Z" fill="#1C2B56"/><path d="M24.79 29.87c.07-.23.05-.4-.07-.52-.1-.1-.1-.11 0-.02h.02l.02.02c.08.13.14.34.19.63l.07.88a10.03 10.03 0 0 0 .26 2.04c.17.6.27 1.04.3 1.29.04.37.02.79-.08 1.25-.02.09-.07.11-.16.07l-.7-.35c-.1-.05-.15-.02-.16.09l-.1.58c-.01.04 0 .08.03.11l1.18 1.18c.08.08.15.07.23 0l.24-.3c.23-.27.41-.47.55-.59.45-.4 1.01-.85 1.67-1.34.04-.02.07-.02.1 0 .02.03.03.06 0 .1l-1.54 2.23c-.06.09-.04.15.04.21l1.07.74c.06.04.12.04.18 0 .06-.05.08-.11.05-.18l-.41-1.06a.16.16 0 0 1 .02-.16.16.16 0 0 1 .15-.06c.27.03.39.15.35.35a.2.2 0 0 0 .06.2l.34.34a2 2 0 0 0-.34.73.4.4 0 0 0 .03.29l.51 1.04c.01.02 0 .04-.01.06l-.06.04c-.04.03-.08.03-.1-.01l-.8-1.01c-.03-.03-.05-.03-.08-.01-.03.01-.04.04-.03.07l1.23 3.13c.02.04 0 .08-.03.1-.04.02-.07.02-.1-.02a11.6 11.6 0 0 1-1.62-2.87c-.01-.03-.04-.04-.07-.04-.04.01-.05.03-.05.07l.2 2.79c0 .12-.05.18-.17.2-.12.01-.19-.04-.21-.16l-.44-2.43c0-.03-.02-.04-.05-.04-.02 0-.04.01-.04.04l-.47 2.75c-.01.09-.06.13-.14.13-.09 0-.14-.04-.15-.13a7.87 7.87 0 0 1-.04-2.53c0-.02 0-.04-.02-.06l-.07-.07a.08.08 0 0 0-.09-.02.08.08 0 0 0-.06.07 12.45 12.45 0 0 1-1.05 3c-.04.07-.09.09-.15.07-.07-.01-.1-.06-.1-.13.02-.67.18-1.63.48-2.88.01-.04 0-.07-.05-.09l-.03.03-1.25 2.46c-.03.06-.08.08-.14.06-.06-.03-.08-.07-.06-.14l1.61-5.12c.01-.03 0-.04-.02-.05l-.07-.02c-.04-.01-.06 0-.08.04-.37.88-.68 1.54-.9 1.98a7.89 7.89 0 0 1-1.2 1.76c-.03.03-.06.03-.08.01-.03-.02-.04-.05-.02-.08.54-1 .97-2.02 1.3-3.08.02-.04 0-.08-.04-.1-.04-.02-.08-.01-.1.03-.63.97-1.37 1.83-2.23 2.6-.02.02-.04.02-.06 0l-.05-.04V40l2.04-2.94a.12.12 0 0 0 0-.14.12.12 0 0 0-.12-.07c-.1.01-.23.06-.39.15l.67-.65a.38.38 0 0 0 .12-.25 4 4 0 0 0-.29-1.78 62.04 62.04 0 0 1-1.14-3.69 7.59 7.59 0 0 1-.08-3.27c.21-1.18.65-2.2 1.3-3.06a.05.05 0 0 1 .06-.02c.02 0 .04.02.04.04l.05.26a6.93 6.93 0 0 1 .15 1.76c-.05.93-.03 1.63.06 2.09.17.82.56 1.3 1.19 1.44Z" fill="#2C5188"/><path d="M20.26 25.3a7.77 7.77 0 0 0-1.31 1.02c-.04.03-.07.03-.1 0-.04-.03-.05-.07-.03-.1.28-.46.7-.86 1.29-1.19.58-.33 1.13-.5 1.67-.5.04 0 .07.02.08.07 0 .04-.01.07-.06.09l-.34.12c-.56.19-.96.35-1.2.49Z" fill="#424969"/><path d="M21.6 26.5c-.23.9-.32 1.66-.27 2.28.1 1.13.33 2.2.69 3.2.09.25.03.45-.18.62l-.44.34a.18.18 0 0 0-.06.07c-.12.32-.33.6-.63.84a.27.27 0 0 0-.1.22v.22c.03.48 0 .79-.1.93-.08.12-.09.24-.03.36l.06.07.66.47-.03.66c0 .08.02.14.07.2.06.08.14.15.25.21.06.04.1.1.1.17a.2.2 0 0 1-.08.18l-.8.63a.23.23 0 0 1-.1.05c-.6.1-1.1.49-1.52 1.16-.44.7-.87 1.45-1.29 2.21-1.7-1.27-3.1-2.8-4.22-4.6a91.76 91.76 0 0 1 3.74-5.52 43.56 43.56 0 0 1 4.27-4.97ZM18.28 27.22c-.04.29.05.55.22.57.16.03.34-.18.39-.47.04-.29-.05-.55-.22-.57-.17-.03-.34.18-.39.47Z" fill="#6696C9"/><path d="M22.83 31.36c.09.2.19.34.22.32.03-.01-.02-.18-.11-.37-.1-.2-.19-.34-.22-.33-.03.02.02.19.1.38Z" fill="#656281"/><path d="M23.16 34.32a4 4 0 0 1 .3 1.78c-.01.1-.05.18-.13.25l-.67.65c-.1.06-.2.08-.27.06-.1-.04-.1-.09-.04-.16.07-.07.05-.15-.05-.22a.1.1 0 0 0-.08-.02l-.29.07c-.46-.06-.58-.25-.36-.57a.2.2 0 0 1 .1-.08l1.06-.32c.05-.02.08-.06.07-.12 0-.06-.04-.09-.1-.1a22.5 22.5 0 0 1-1.23-.11c-.07-.02-.11-.06-.13-.13-.01-.07.01-.1.08-.1l1.24-.1c.13 0 .18-.07.16-.2l-.18-.95c-.01-.09.02-.14.1-.17.09-.03.15 0 .19.07l.23.47Z" fill="#1C2B56"/><defs><linearGradient id="a" x1="10.42" y1="9.71" x2="68.15" y2="76.02" gradientUnits="userSpaceOnUse"><stop stop-color="#1A1E21"/><stop offset="1" stop-color="#06060A"/></linearGradient></defs></svg>