<!-- by TradingView --><svg width="56" height="56" viewBox="0 0 56 56" xmlns="http://www.w3.org/2000/svg"><path fill="#F0F3FA" d="M0 0h56v56H0z"/><path d="M27.5 24.66V11L14 32h8.8l4.7-7.34Z" fill="#B852F7"/><path d="M28.5 24.66V11L42 32h-8.8l-4.7-7.34Z" fill="#D252F5"/><path d="M24.4 33H13.7l6.45 4.7L24.4 33Z" fill="#7953F5"/><path d="M31.5 33h10.68l-6.45 4.7L31.5 33Z" fill="#4839D0"/><path d="M12.82 34 10 38h9.16l-6.34-4Z" fill="#9552F7"/><path d="M43.17 34 46 38h-9.16l6.33-4Z" fill="#362B9C"/><path d="M27.5 43 21 38.44l4.56-5.07 1.94 1.7V43Z" fill="#6045F8"/><path d="M28.47 43 35 38.44l-4.58-5.07-1.95 1.7V43Z" fill="#4E42DF"/></svg>