<svg width="112" height="112" viewBox="0 0 56 56" xmlns="http://www.w3.org/2000/svg"><circle cx="28" cy="28" r="17" fill="url(#aww5egmai)"/><path fill-rule="evenodd" d="M28 43a15 15 0 1 0 0-30 15 15 0 0 0 0 30Zm0 2a17 17 0 1 0 0-34 17 17 0 0 0 0 34Z" fill="url(#bww5egmai)"/><path fill-rule="evenodd" d="M28 41.5a13.5 13.5 0 1 0 0-27 13.5 13.5 0 0 0 0 27Zm0 .5a14 14 0 1 0 0-28 14 14 0 0 0 0 28Z" fill="url(#cww5egmai)"/><path d="m19 33 .5-1h5l.5 1h3l-2.07-3.8c-.19-1.16.61-2.59 1.07-3.2l-3.23 1.61 2.32 4.34-.18.1-.66-1.24h-6.5l-.66 1.24-.18-.1 1.03-1.92-1.81.9L16 33h3Z" fill="#FDC702"/><path d="m18.85 30.61.4-.73L21 29l-.25.5h2.5l-.65-1.3 1-.5 1.55 2.91h-6.3Z" fill="#FDC702"/><path d="M16 31c.8-.8 2.31-2.64 2.99-3.48L22 22l2.69 4.93-1.01.5L22 24.3l-2.9 5.44L16 31Z" fill="url(#dww5egmai)"/><path d="m21.15 28.7-1.74.87L22 24.71l1.5 2.82-.99.5L22 27l-.85 1.7Z" fill="url(#eww5egmai)"/><path d="M39 27.96V33h-2.22v-1.03a5.55 5.55 0 0 1-7.16-.59l1.15-.57a4.7 4.7 0 0 0 6.84-1.51V33h.19v-4.68h-2.01l4.15-2.15c-.39.41-.94.78-.94 1.79Z" fill="url(#fww5egmai)"/><path d="M33.55 30.25c.82 0 1.55-.35 2.06-.92h-1.6v-.12l1.4-.7h2.2v.35c-.9 2.22-3.16 2.67-4.06 2.67a4.03 4.03 0 0 1-2.6-.81L32.4 30c.35.16.74.25 1.15.25Z" fill="url(#gww5egmai)"/><path d="M30.63 30.68a3.79 3.79 0 0 1-.49-.55 4.67 4.67 0 0 1-.85-2.63c0-.7.22-1.75.85-2.63a3.96 3.96 0 0 1 3.4-1.59c1.7 0 2.77.7 3.4 1.59l.03.02.92-.81A5.55 5.55 0 0 0 28 27.5c0 1.08.31 2.09.85 2.93-.06.36-.18.79-.39 1.2l2.17-.95Z" fill="url(#hww5egmai)"/><path d="M30.77 27.5c0 1.03.58 1.93 1.42 2.4l-1.39.7a4.5 4.5 0 0 1-1.32-3.1c0-.67.2-1.68.81-2.52.61-.84 1.62-1.51 3.26-1.51 1.63 0 2.64.67 3.25 1.5 0 .02.02.03.03.05l-1.02.9a2.78 2.78 0 0 0-5.04 1.58Z" fill="url(#iww5egmai)"/><path d="M34 27.5V29l3.04-1.5H34Z" fill="url(#jww5egmai)"/><defs><linearGradient id="aww5egmai" x1="28" y1="11.5" x2="28" y2="45" gradientUnits="userSpaceOnUse"><stop stop-color="#014FA4"/><stop offset="1" stop-color="#001E3E"/></linearGradient><linearGradient id="bww5egmai" x1="28" y1="11.5" x2="28" y2="45" gradientUnits="userSpaceOnUse"><stop stop-color="#FEF78C"/><stop offset=".42" stop-color="#9A6C21"/><stop offset=".74" stop-color="#FDF493"/><stop offset="1" stop-color="#B77E2F"/></linearGradient><linearGradient id="cww5egmai" x1="28" y1="14" x2="28" y2="42" gradientUnits="userSpaceOnUse"><stop stop-color="#FCF58A"/><stop offset=".51" stop-color="#A17529"/><stop offset=".81" stop-color="#E1E399"/><stop offset="1" stop-color="#915E24"/></linearGradient><linearGradient id="dww5egmai" x1="23.5" y1="26" x2="17.5" y2="29.5" gradientUnits="userSpaceOnUse"><stop stop-color="#322D31"/><stop offset=".32" stop-color="#99781B"/><stop offset="1" stop-color="#EEBE09"/></linearGradient><linearGradient id="eww5egmai" x1="23.5" y1="26" x2="17.5" y2="29.5" gradientUnits="userSpaceOnUse"><stop stop-color="#322D31"/><stop offset=".32" stop-color="#99781B"/><stop offset="1" stop-color="#EEBE09"/></linearGradient><linearGradient id="fww5egmai" x1="39.09" y1="31.17" x2="29.85" y2="31.17" gradientUnits="userSpaceOnUse"><stop stop-color="#522A10"/><stop offset=".18" stop-color="#673C11"/><stop offset=".44" stop-color="#9E6D0D"/><stop offset=".67" stop-color="#F7C104"/><stop offset="1" stop-color="#AD800D"/></linearGradient><linearGradient id="gww5egmai" x1="39.09" y1="31.17" x2="29.85" y2="31.17" gradientUnits="userSpaceOnUse"><stop stop-color="#522A10"/><stop offset=".18" stop-color="#673C11"/><stop offset=".44" stop-color="#9E6D0D"/><stop offset=".67" stop-color="#F7C104"/><stop offset="1" stop-color="#AD800D"/></linearGradient><linearGradient id="hww5egmai" x1="36.32" y1="25.21" x2="28.03" y2="30.02" gradientUnits="userSpaceOnUse"><stop stop-color="#5C3916"/><stop offset=".53" stop-color="#F6C103"/><stop offset=".79" stop-color="#A27210"/><stop offset="1" stop-color="#9A7D14"/></linearGradient><linearGradient id="iww5egmai" x1="36.32" y1="25.21" x2="28.03" y2="30.02" gradientUnits="userSpaceOnUse"><stop stop-color="#5C3916"/><stop offset=".53" stop-color="#F6C103"/><stop offset=".79" stop-color="#A27210"/></linearGradient><linearGradient id="jww5egmai" x1="36.32" y1="25.21" x2="28.03" y2="30.02" gradientUnits="userSpaceOnUse"><stop stop-color="#5C3916"/><stop offset=".53" stop-color="#F6C103"/></linearGradient></defs></svg>