<svg width="224" height="224" viewBox="0 0 56 56" xmlns="http://www.w3.org/2000/svg"><rect fill="#F0F3FA" width="56" height="56" rx="28"/><path d="m26.55 33.04-.52-.19a.1.1 0 0 0-.07 0 .1.1 0 0 0-.05.04.09.09 0 0 0 0 .11c.57.62.02.81.53 1.39.03.02.04.06.04.09.1 1 .2 1.03.78 1.14V36.88c.15.5.15.95 0 1.37a3.2 3.2 0 0 0-.18 2.07l.03.08c.05.08.08.14.08.18 0 .07-.02.14-.06.2-.12.18-.18.3-.17.37.05.53.03 1.06-.06 1.58l-.3-.9-.22-.78s0-.02-.02-.03a.08.08 0 0 0-.07-.02s-.02 0-.03.02c-.4.33-.53.36-.41.09l.23-1.29a.25.25 0 0 0-.06-.2.51.51 0 0 1-.1-.39.1.1 0 0 0 0-.05c-.03-.05-1.45 1-2.2-1.26-.24-.03-.17-.26-.47-.24-.03 0-.07 0-.09-.03a.12.12 0 0 1-.05-.07 53.9 53.9 0 0 1-.25-1.5c-.05-.4-.07-.73-.05-1.02l.05-1.01c.01-.1.06-.34.15-.74.12-.5-.15-.88.31-1.34l-.04.51c0 .06 0 .11.04.15.04.05.09.08.14.09.06 0 .11 0 .16-.03a.22.22 0 0 0 .1-.12c.58-1.82 1.5 1.74.62-.89a.15.15 0 0 1 0-.1.16.16 0 0 1 .05-.07c.16-.13.28-.26.34-.41l.71.71c.39.42.61.88 1.1 1.23ZM26.67 10.19c-1.06.3-1.54.96-1.44 2.01 0 .09.04.16.09.22l.72.9c.03.03.06.05.1.06.04 0 .08 0 .11-.02.13-.08.37.14.72.66.05.08.13.12.23.12 0 0 .03-.05.06-.16l.02-.04a.08.08 0 0 1 .05-.02c.02 0 .03 0 .05.02l.02.04.26.9.01.02a.05.05 0 0 0 .05 0l.02-.02.1-.27-.2 1.11c0 .05 0 .1.03.14l.04.09V16.02h-.01a18.71 18.71 0 0 1-.75-1.04l-.06.05-.01.03v.03c.57.85.86 1.78.89 2.78a4.04 4.04 0 0 0-.55-1.77h-.05a.08.08 0 0 0-.04.02.07.07 0 0 0-.01.04c-.08 1.24-.76 2.08-2.04 2.5a.8.8 0 0 1-.24.1l-.15.01-.07-.01a.1.1 0 0 1-.04-.05.1.1 0 0 1 0-.07.1.1 0 0 1 .03-.05l1.44-1.2a.13.13 0 0 0 .03-.18.14.14 0 0 0-.08-.04c-.03-.01-.07 0-.1.01a.4.4 0 0 1-.34.02 1.51 1.51 0 0 0 .46-1.5l-.71-1.74a.15.15 0 0 0-.05-.07.17.17 0 0 0-.08-.03c-.32-.03-.58-.34-.58-.7 0-.41-.34-1.34.14-1.72a.3.3 0 0 0 .1-.14c.1-.26.3-.53.62-.8a.36.36 0 0 1 .2-.1h.13a.2.2 0 0 0 .07-.07c.24-.3.51-.34.8-.13Z" fill="#B1B1B0"/><path d="m29.52 12.5-1.38 1.33a.2.2 0 0 1-.12.05c-.03 0-.07 0-.1.02a.14.14 0 0 0-.07.03.12.12 0 0 0 0 .2l.08.05-.09.43-.1.27c0 .01 0 .02-.02.02h-.05l-.01-.02-.26-.9a.07.07 0 0 0-.02-.04.08.08 0 0 0-.05-.02c-.02 0-.03 0-.05.02a.08.08 0 0 0-.02.04l-.06.16a.26.26 0 0 1-.23-.12c-.35-.52-.59-.74-.72-.66a.16.16 0 0 1-.2-.04l-.73-.9a.41.41 0 0 1-.1-.22c-.09-1.05.39-1.72 1.45-2.01.29-.17.52-.23.7-.16a.4.4 0 0 1 .26.3c.01.06 0 .13-.02.2a.45.45 0 0 1-.1.18c-.2.19-.44.4-.74.63a.7.7 0 0 0-.22.83l.53 1.27.04.05a.13.13 0 0 0 .16 0c.17-.13.27-.3.31-.5a.35.35 0 0 1 .09-.16c.22-.22.33-.56.33-1.02 0-.44.02-.72.06-.86.1-.28.13-.52.11-.72a.13.13 0 0 1 .04-.1.14.14 0 0 1 .1-.04H29.48l.04.04.02.05a4.44 4.44 0 0 0-.02 2.33Z" fill="#E1E2DE"/><path d="M30.23 11.1c-.27.12-.36.3-.27.57l.02.03.04.02a.08.08 0 0 0 .07-.03c.12-.12.22-.2.31-.22a.05.05 0 0 1 .06.02.05.05 0 0 1 0 .06c-.2.22-.32.43-.38.66v.06l.06.04h.06a.08.08 0 0 0 .05-.05c.23-.48.6-.7 1.13-.64-.55.17-.9.49-1.07.94-.15.42-.26.66-.32.72-.27.28-.59.45-.95.5a.55.55 0 0 0-.22.07c-.22.14-.4.3-.55.47l-.03-.22c0-.01 0-.03-.02-.04a.08.08 0 0 0-.03-.02.08.08 0 0 0-.08 0l-.18.14-.08-.06a.13.13 0 0 1-.04-.06v-.07c0-.02.02-.04.04-.06a.14.14 0 0 1 .07-.03l.1-.02a.2.2 0 0 0 .12-.05l1.38-1.33c.04-.38.07-.73.08-1.04.02-.4.1-.66.27-.8.3-.26.67-.37 1.13-.31a.1.1 0 0 1 .06.02l.03.06c0 .02 0 .04-.02.06a.1.1 0 0 1-.05.04c-.31.08-.58.28-.8.57Z" fill="#B1B1B0"/><path d="M32.88 11.93c-.7.32-1.15.54-1.32.65-.4.27-.72.7-.96 1.27-.18.45-.36.61-.81.73h-.08a.12.12 0 0 1-.06-.04.1.1 0 0 1 0-.13c.12-.14.36-.38.73-.72.22-.8.7-1.07-.24-1.38a.09.09 0 0 1-.05-.04.08.08 0 0 1 0-.06c.13-.57-.14-.99.14-1.11v.2c-.02.25 1.01-.28 1.15-.29.1 0 .2-.03.28-.08.53-.3 1.09-.28 1.65.07.04.02.06.05.08.09v.1c-.12.38-.29.63-.51.74Z" fill="#C7C7C7"/><path d="m32.56 11.56-.31.26a.49.49 0 0 1-.19.1c-.81.22-1.2.33-1.56 1.1a.87.87 0 0 1-.15.23c-.05.06-.32.3-.82.74a.49.49 0 0 0-.18.44.2.2 0 0 1-.06.16l-.79.75a.14.14 0 0 0-.05.1l-.01.13-.03.03a.07.07 0 0 1-.08 0 2.53 2.53 0 0 1-.06-1.27c.15-.18.33-.34.55-.48a.55.55 0 0 1 .22-.08c.36-.04.68-.2.95-.49.06-.06.17-.3.32-.72.17-.45.52-.77 1.07-.94.52.05.86-.14 1-.57l.04-.04h.05c.15.02.18.2.09.55Z" fill="#E1E2DE"/><path d="M32.56 11.56c.05.19-.1.4-.47.6a.6.6 0 0 1-.27.08 1.28 1.28 0 0 0-1.09.72c-.15.4-.27.65-.35.73a10 10 0 0 0-.75.78c0 .02 0 .05.02.07l.06.04h.08c.45-.12.63-.28.81-.73.24-.58.55-1 .96-1.27.17-.11.61-.33 1.32-.65a1.7 1.7 0 0 1-.65.55c-.15-.01-.36.09-.63.3-.05.05-.06.09-.04.12a.3.3 0 0 0 .13.1l.03.04a.08.08 0 0 1 0 .08.08.08 0 0 1-.04.03.37.37 0 0 1-.16.02.16.16 0 0 0-.11.03c-.48.36-.56.58-.8 1.14a.48.48 0 0 1-.22.23c-.45.25-1.14.64-1.42 1.1l-.21 1.61c-.02.1 0 .19.06.26a2.32 2.32 0 0 0 1.34.87v.02l-.01.06a.06.06 0 0 1-.07.05 1.97 1.97 0 0 1-1.46-.67.2.2 0 0 0-.29-.01.19.19 0 0 0-.05.08l-.15.62a.24.24 0 0 1-.1.13.25.25 0 0 1-.3 0 .23.23 0 0 1-.08-.13l-.04-.14.16-.56a5.13 5.13 0 0 0-.9-2.82l.02-.02.06-.05h.01a18.65 18.65 0 0 0 .75 1.02v-.05l-.04-.08a.23.23 0 0 1-.03-.14l.2-1.11.09-.43.18-.13.04-.02h.04l.03.03.02.04.03.22a2.53 2.53 0 0 0 .06 1.27.07.07 0 0 0 .08.01l.03-.03a.6.6 0 0 0 .01-.14c0-.03.02-.07.05-.1l.79-.74a.2.2 0 0 0 .06-.16.49.49 0 0 1 .18-.44c.5-.44.77-.68.82-.74a.87.87 0 0 0 .15-.22c.36-.78.75-.9 1.56-1.12a.49.49 0 0 0 .19-.1l.3-.25Z" fill="#7A7A7A"/><path d="M38.11 15.3c-.85.36-1.76.63-2.41 1.35-.85-.52-2.11 1.57-2.48 1.65a.5.5 0 0 0-.18.09c-.1.07-.16.13-.17.16 0 .02-.01.04-.03.05a.08.08 0 0 1-.05.01h-.76a.3.3 0 0 1-.2-.06.17.17 0 0 1-.05-.07c-.02-.06-.07-.1-.16-.13-.4-.15-.75-.34-1.04-.6a1.2 1.2 0 0 0-.4-.22c-.85-.27-1.26-.89-1.21-1.86.28-.46.97-.85 1.42-1.1.1-.05.17-.13.22-.23.15-.35.96-1.53 1-1.55.26-.22.47-.32.62-.3.58.58 1.31.6 2.2.05.28-.17.45-.38.49-.6 0-.06.03-.1.06-.14a.32.32 0 0 1 .27-.13c.05 0 .1.02.15.04l1.72.96c.08.04.14.1.16.19.03.07.02.16-.02.24l-.3.62a.13.13 0 0 0 .04.16l.05.03c.18.04.37.15.6.33l.06.08c.02.03.03.07.03.1v.54c0 .04 0 .08.03.11.02.04.05.07.08.09l.26.14Z" fill="#E1E2DE"/><path d="M39.4 14.83c-.89.87-2.14.98-2.9 1.53-.36.26-.84.83-1.46 1.73-.17.08-.38.27-.62.56a.61.61 0 0 1-.18.15 6.22 6.22 0 0 1-2.6.63.08.08 0 0 1-.04-.06v-.06l.32-.1a4.4 4.4 0 0 0 2.5-.97c.25-.22.68-.75 1.28-1.59.65-.72 1.55-.99 2.41-1.35.48-.24.9-.55 1.25-.92a.17.17 0 0 1 .07-.05.17.17 0 0 1 .17.04l.04.07c.04.14-.04.27-.24.39Z" fill="#211F1E"/><path d="M39.4 14.83c.1.24.25.25.47.02 0 .27.12.37.33.3-.78.53-1.53.9-2.26 1.13a.37.37 0 0 0-.15.1.34.34 0 0 0-.1.31c.02.06.05.11.09.16.05.06.14.1.27.12-.22.2-.54.39-.97.53-.85.3-1.53.5-2.04.59.62-.9 1.1-1.47 1.46-1.73.76-.55 2.01-.66 2.9-1.53Z" fill="#C7C7C7"/><path d="m38.86 16.77-1.04.65-.87.43c-.28.15-.55.33-.78.54l-.39.35a.15.15 0 0 1-.08.04.4.4 0 0 0-.3.18.2.2 0 0 1-.08.07.22.22 0 0 1-.1.02l-.49-.02c-.01-.14-.08-.19-.18-.15a.27.27 0 0 0-.17.13c-.33.2-.64.27-.93.23a.16.16 0 0 0-.14.06.14.14 0 0 0-.03.14l.26.68c.03.08.05.16.05.25 0 .8-.02 1.37.36 2 .04.08.07.17.07.27-.01.38-.17.69-.08 1.08.05.2.03.56-.06 1.06-.03.19 0 .34.07.47l-.11.27c0 .13-.02.23-.06.32l-.03.03a.08.08 0 0 1-.05.01l-.04-.01a.08.08 0 0 1-.03-.04c-.83-2.95.6 1.96-1.21-.26-1.53-1.87-.09-2.28-1.45-.85a.1.1 0 0 1-.15 0c-.03-.06-.04-.13-.01-.22.1-.41.44-.71.41-1.1-.02-.35.02-.58.1-.67a.05.05 0 0 0 .02-.05l-.01-.02-.03-.02c-1.16-.27 1.09-1.22 1.84-1.04a.15.15 0 0 0 .12-.03.15.15 0 0 0 .06-.11v-1.12a.18.18 0 0 0-.06-.14c-.4-.35-.89-.4-1.47-.13-.64.28-1.1.6-1.4.94l-.2.76c0 .03-.01.06-.04.07a.13.13 0 0 1-.08.02.12.12 0 0 1-.08-.03.11.11 0 0 1-.03-.08c-.01-.51.15-.95.49-1.31.05-.06.14-.24.26-.56.13-.3.43-.5.9-.57v.06c0 .02 0 .04.02.06.02 0 .04.02.06.01a6.22 6.22 0 0 0 2.55-.64.61.61 0 0 0 .18-.15c.24-.3.45-.48.62-.56.51-.1 1.2-.3 2.04-.59.43-.15.75-.32.97-.53.98-.36 1.7-.96 2.15-1.82-.21.07-.32-.03-.33-.3.23.01.38.08.45.2.06.12.03.27-.1.45-.34.52-.8.94-1.36 1.27Z" fill="#7A7A7A"/><path d="M40.2 15.15a3.77 3.77 0 0 1-2.15 1.82c-.13-.02-.22-.06-.27-.12a.34.34 0 0 1-.08-.33.37.37 0 0 1 .24-.24c.73-.22 1.48-.6 2.26-1.13Z" fill="#E1E2DE"/><path d="M28.97 15.67c-.05.97.36 1.6 1.2 1.86.15.05.29.13.4.23.3.25.65.44 1.05.59.09.03.14.07.16.13l.06.07a.3.3 0 0 0 .19.07h.76a.08.08 0 0 0 .08-.07c.01-.03.07-.09.17-.16a.5.5 0 0 1 .18-.1c.4-.08 1.6-2.18 2.48-1.64-.6.84-1.03 1.37-1.27 1.59a4.4 4.4 0 0 1-2.51.96c-.07-.2-.21-.26-.42-.2-.44.15-.64.23-1.09.05-.14-.05-.32-.09-.54-.1-.03-.01-.07 0-.1.01a.17.17 0 0 0-.07.08l-.69 1.43c0 .01-.02.03-.04.03a.09.09 0 0 1-.1-.01.08.08 0 0 1-.02-.05l-.03-.24.04-.25c.04-.84-.15-1.27-.57-1.28l-.2 1.1a.58.58 0 0 1-.07.18l-.62 1.08a6.1 6.1 0 0 1 .04-1.28c.02-.15.03-.37.03-.67 0-.23.05-.45.15-.66l.03.14c.01.05.04.1.09.13a.25.25 0 0 0 .3 0 .24.24 0 0 0 .09-.13c.37-1.56.37-.8.63-1.28l.2-1.61Z" fill="#B1B1B0"/><path d="m27.77 17.86-.16.56c-.09.2-.14.43-.14.66 0 .3-.01.52-.03.67-.06.38-.07.8-.04 1.28l-2.69 2a.3.3 0 0 0-.08.09.28.28 0 0 0-.03.11c-.03.32-.17.55-.42.68a.17.17 0 0 0 0 .3c.2.13.03.57-.46.74.02-.09-.03-.1-.15-.06a.26.26 0 0 0-.1.07.24.24 0 0 0-.05.11 2.65 2.65 0 0 1-.96 1.6c-.14.1-.4.04-.5.16a.12.12 0 0 0-.03.09l.08 1.2-.01.08c-.27.6-.66.93-1.16 1-.56.39-2.14.93-2.13 1.16l-.35.3.36-1.36a.3.3 0 0 1 .07-.13c.35-.36.57-.76.67-1.18.09-.42.12-.36-.44.16a.52.52 0 0 1 .2-.52c.33-.28.63-.54.71-1 .08-.49.31-.9.69-1.26.1-.09.16-.2.2-.34l.26-1.26c.83-.16 1.23-1.33.02-.5-.12-.7.08-1.32.13-1.85.1-.82.2-1.46.34-1.93.08-.29.5-.7.89-.86.31-.12.76-.5 1.2-.55.2-.02.38-.09.53-.2.43-.32.9-.44 1.37-.7a.4.4 0 0 0 .34-.01.14.14 0 0 1 .1-.01c.57.03.57-.43 1.13-1.05a.08.08 0 0 1 .09-.02c.02 0 .03.02.04.03.3.55.47 1.13.5 1.74ZM38.86 16.77l.3.36.32.23c.04.02.07.06.08.1a.2.2 0 0 1 .01.13.7.7 0 0 0 .05.5c.02.04.02.08.01.11a.16.16 0 0 1-.06.1 6.58 6.58 0 0 0-2.24 2.57c0 .03.02.04.03.06a.1.1 0 0 0 .14 0l1.47-1.33c.05-.04.16.07.17.12 0 .02 0 .03-.02.05l-.62.9-.01.03-.1.42a.1.1 0 0 0 0 .07c0 .02.02.04.04.05.02.01.05.02.07.01.03 0 .05 0 .07-.02.15-.13 1.44-1.14 1.43-1.1l-.13 1.09a.11.11 0 0 1-.05.03l-.59.55a.85.85 0 0 1-.2.14l-1.91.96a.81.81 0 0 1-.17.07c-.99.23-1.38.73-2.02 1.43a.18.18 0 0 0-.05.15l.04.08a.2.2 0 0 0 .07.05l1.26.54 1.12 2.11.07.08.1.04 1.04.17c0 .24.13.35.37.35-.1.25-.23.48-.41.7a.53.53 0 0 0-.11.4c0 .03.01.05.03.07a.14.14 0 0 0 .19.02c.38-.3.65-.5.8-.57.19-.08.33-.07.42.05.02.01.03.04.03.06a.13.13 0 0 1-.04.12.14.14 0 0 1-.07.03c-.41.08-.77.36-1.05.83a.14.14 0 0 0-.02.11c0 .04.03.07.06.09.32.21.46.58.41 1.1a.22.22 0 0 1-.1.16l-.82.57a.22.22 0 0 1-.1.03c-.27.03-.55-.02-.84-.15a.13.13 0 0 0-.12.01.11.11 0 0 0-.06.1c0 .05.02.1.04.18l-.2-.1-.67-1.07 1.7-1.19a.19.19 0 0 0 .07-.08.18.18 0 0 0-.05-.2.2.2 0 0 0-.1-.05 3.42 3.42 0 0 1-2.39-1.72 11.65 11.65 0 0 1-1.3-3.47c0-.03.02-.06.05-.08.33-.37.77-.54 1.3-.5.06 0 .11-.01.16-.03.05-.02.1-.05.13-.1a.29.29 0 0 0 .06-.13l-.01-.14c-.7-1.85 4.05.58.43-2.33-.76-.62.23-.6 1.16-1.07.44-.64.82-1.47.29-2.2l1.04-.65Z" fill="#C7C7C7"/><path d="M39.87 21.22c.11-.89.06-1.11-1.3 0a.12.12 0 0 1-.18-.03.1.1 0 0 1 0-.07l.1-.42.01-.02.62-.91a.07.07 0 0 0 .02-.05.08.08 0 0 0-.03-.05l-.08-.07h-.06l-1.47 1.33a.1.1 0 0 1-.13 0 .1.1 0 0 1-.03-.12 6.58 6.58 0 0 1 2.23-2.51.16.16 0 0 0 .06-.1.15.15 0 0 0 0-.1.7.7 0 0 1-.06-.52.2.2 0 0 0 0-.12.22.22 0 0 0-.09-.1l-.32-.23c1.46.47 1.8 1.77 1.84 3.1a.21.21 0 0 1-.09.18l-1.04.8Z" fill="#E1E2DE"/><path d="M37.82 17.42c.53.73.15 1.56-.3 2.2-.89 1.3-2.33.4.63 2.3a.1.1 0 0 1 0 .17c-2.64 1.7-2.2 1.22-2.39 1.3a.35.35 0 0 1-.15.02c-.54-.03-.98.14-1.31.5a.21.21 0 0 0-.06.2c.46 2.05 1.4 4.6 3.7 5.08a.2.2 0 0 1 .1.05c.03.02.05.05.05.09v.1a.19.19 0 0 1-.07.1l-1.7 1.18c.05-2.26.78 1.36.68 1.07l.2.1c.06.32.24.56.53.71.13.07 3.16 2.7 1.8 2.3a.41.41 0 0 1-.19-.12l-.6-.68a.15.15 0 0 0-.15-.04.14.14 0 0 0-.07.04.13.13 0 0 0-.03.07c-.02.15-.01.25.01.3.33.6.63 1.24.89 1.9a.2.2 0 0 1 0 .13c-.21.71-.69.26-.9.5a.16.16 0 0 1-.13.05.17.17 0 0 1-.12-.05c-.18-.2-.65-.34-.68-.39-.32-.4-.63-.53-.76-.75a.14.14 0 0 1-.01-.06l-.05-.55v-.02l-.56-2.49c-.21-.26-.4-.44-.57-.54a.2.2 0 0 0-.15-.03l-2.56.57a.67.67 0 0 0-.32.16.63.63 0 0 0-.18.31c-.07.31-.16.71-.17 1.04a36.23 36.23 0 0 1-.28 3.18l-.06.28-1.68-.09c-.04 0-.07.01-.1.03a.17.17 0 0 0-.07.08c-.1.3-.3.52-.6.68a.18.18 0 0 0-.08.1.17.17 0 0 0 0 .12l.28.65a.12.12 0 0 1-.04.14.13.13 0 0 1-.15.02l-.5-.28c.06-.6-.19-1.38.38-1.8a.23.23 0 0 0 .1-.18c.01-.35-.1-.57-.32-.68a.15.15 0 0 1-.06-.05.14.14 0 0 1-.03-.08l-.12-1.86a.12.12 0 0 1 .03-.1.13.13 0 0 1 .1-.04 3.02 3.02 0 0 1 2.68 1.08l.04.03.06-.01.03-.04v-.06l-.84-2v-.06c0-.01 0-.03.02-.04a.1.1 0 0 1 .1-.02l.58.26a.1.1 0 0 0 .1 0 .09.09 0 0 0 .05-.07 5.34 5.34 0 0 0-.38-2.31 44.34 44.34 0 0 1-.73-1.54.12.12 0 0 0-.08-.02c-.17.02-.36-.1-.57-.38-3.65-4.72 1.53 1.35-1.71-1.74.27-.53.63-.96 1.08-1.3a.53.53 0 0 0 .16-.19l.23-.47a.18.18 0 0 1 .08-.07.19.19 0 0 1 .1-.03c.1.01.41-.34.78-.88-.03.09-.02.16.02.21a.1.1 0 0 0 .07.04.1.1 0 0 0 .04-.01 1.87 1.87 0 0 0 .5-.92c0-.03.02-.05.04-.07.02-.02 1.52 1.25 2.4 1.03.1-.5.11-.86.06-1.06-.09-.4.07-.7.08-1.08 0-.1-.03-.2-.07-.28-.38-.62-.36-1.18-.36-2a.72.72 0 0 0-.05-.24l-.25-.68a.14.14 0 0 1 .02-.14.16.16 0 0 1 .14-.05c1.2-.47 1.28-.27 1.87-.22a.2.2 0 0 0 .09-.07.4.4 0 0 1 .3-.18l.07-.04.39-.35c.23-.21.5-.4.78-.54l.87-.43Z" fill="#B1B1B0"/><path d="m28.86 19.95-.57-1.28c.42.01.6.44.57 1.28Z" fill="#C7C7C7"/><path d="m25.08 18.66.89.14c.02 0 .05.01.06.03l.04.06a.1.1 0 0 1-.02.07.11.11 0 0 1-.05.05c-.44.22-.9.29-1.4.21a.14.14 0 0 0-.11.04.13.13 0 0 0-.03.06c-.03.12.05.57.26.56.02 0 .05 0 .07-.02l1.74-.96c.08-.05.2 0 .22.09v.08c-.2.63-.64.97-1.3 1.04a.92.92 0 0 0-.44.16.19.19 0 0 1-.21 0l-1.21-.79.08-.24c.12.13.26.2.4.2a.21.21 0 0 0 .18-.12c.12-.24.32-.43.59-.57a.8.8 0 0 0 .24-.1ZM28.86 19.95l-.04.25-.22 1.2a.09.09 0 0 0 .03.1.1.1 0 0 0 .1.01c.47-.16.76-.17.85-.04.03.04.05.1.05.14.2 1.76.7 2.7-.51 4.27-.36.47-.79.79-1.28.95 0 .82-.06 1.46-.18 1.9-.35 1.24-1.64 1.26-1.2 2.9-.48-.28-.65-.77-.51-1.5a.3.3 0 0 1 .11-.17c1.23-.91 1.47-1.77 1.13-3.26a3.72 3.72 0 0 1-2.3-1.74l-.05-.22a.13.13 0 0 0-.05-.09.13.13 0 0 0-.1-.02h-.02a.14.14 0 0 1-.1 0 .13.13 0 0 1-.07-.07.8.8 0 0 0-.33-.35.18.18 0 0 1-.07-.07.17.17 0 0 1 0-.17.18.18 0 0 1 .08-.06c.25-.13.39-.36.42-.68 0-.04.01-.08.03-.11a.3.3 0 0 1 .08-.1l2.69-2 .62-1.07a.58.58 0 0 0 .07-.18l.2-1.1.57 1.28Z" fill="#E1E2DE"/><path d="M34.73 19.03c.06.17.14.28.24.34a.17.17 0 0 1 .07.12v.07l-.04.07-.4.44a.1.1 0 0 1-.13.02.1.1 0 0 1-.02-.04l-.28-.45a.2.2 0 0 1 0-.21l.21-.38c.03-.06.09-.1.17-.13.1-.04.17.01.18.15Z" fill="#fff"/><path d="m31.92 19.2-.31.11c-.47.07-.77.26-.9.57-.63 1.55.7 2.57.63 2.83l-.01.02c-.1.1-.13.32-.1.68.01.35-.66 1.64-1.3 2a.18.18 0 0 0-.08.07l-.23.47a.53.53 0 0 1-.16.2c-.45.33-.81.76-1.08 1.3-.12.04-.16.17-.11.4a1.28 1.28 0 0 1-.43-1.02c.5-.16.92-.48 1.28-.95 1.2-1.58.7-2.51.51-4.27a.3.3 0 0 0-.05-.14c-.1-.13-.38-.12-.85.04a.1.1 0 0 1-.1-.01.09.09 0 0 1-.03-.09l.22-1.21.03.24c0 .02 0 .04.02.05a.09.09 0 0 0 .1.01c.02 0 .03-.02.04-.03l.7-1.43a.17.17 0 0 1 .06-.08.17.17 0 0 1 .1-.02c.22.02.4.06.54.11.45.18.65.1 1.09-.04.2-.07.35 0 .42.2Z" fill="#C7C7C7"/><path d="m23.67 19.24-.08.24-.62.38a.1.1 0 0 1-.12-.01.18.18 0 0 0-.05-.04.08.08 0 0 0-.08 0 .08.08 0 0 0-.02.04l-.01.03v.02c.02.03.02.06 0 .08a.12.12 0 0 1-.06.07c-.2.09-.27.25-.22.47 0 .02.01.05.03.07l.06.04c.1.04.13.1.12.2-.08.35-.26.6-.53.7a.37.37 0 0 0-.16.14.35.35 0 0 0-.06.2l-.01.09-.03.02h-.04a.06.06 0 0 1-.03-.03.06.06 0 0 1-.01-.04c.03-.39.2-.74.5-1.07a.2.2 0 0 0 .03-.24l-.16-.26a.1.1 0 0 0-.05-.04.1.1 0 0 0-.07 0 .1.1 0 0 0-.05.04.1.1 0 0 0-.02.06c.03.26-.04.44-.2.53a.14.14 0 0 1-.15 0 .13.13 0 0 1-.05-.06.12.12 0 0 1 0-.08c.09-.35.27-.56.54-.62.1-.03.18-.09.23-.17.25-.42.82-1.02 1.37-.76Z" fill="#fff"/><path d="M30.87 21.44a.13.13 0 0 0 0-.1.14.14 0 0 0-.05-.07l-.43-.26c.3-.34.76-.66 1.4-.94.58-.27 1.08-.22 1.47.13a.18.18 0 0 1 .06.14v1.12a.14.14 0 0 1-.06.11.15.15 0 0 1-.12.03c-1.4-.33-1.19-.28-2.2.84-.33.36-.16-.83-.07-1Z" fill="#B1B1B0"/><path d="M23.85 23.57c.09.15.1.24.02.28a.39.39 0 0 1-.36-.04.36.36 0 0 1-.13-.14.34.34 0 0 1-.03-.18 1.8 1.8 0 0 0-.27-1.05l-.1-1.22a.07.07 0 0 1 .05-.07l.28-.07a.06.06 0 0 1 .05.01l.01.02v.03c-.07.6.05 1.2.37 1.8.04.07.05.14.05.22 0 .13.02.27.06.41Z" fill="#7A7A7A"/><path d="M39.82 21.25c.12.38.35.68.68.9l.03.03a.08.08 0 0 1 0 .07s0 .02-.02.03l-2.87 2.36a.17.17 0 0 1-.22 0 .15.15 0 0 1-.04-.07l-.13-.48a.14.14 0 0 0-.14-.1l-.06.01-1 .39a.16.16 0 0 0-.1.08.15.15 0 0 0 0 .13l.3.62-1.26-.54a.2.2 0 0 1-.07-.05.17.17 0 0 1 0-.24c.65-.7 1.04-1.2 2.03-1.42a.81.81 0 0 0 .17-.07l1.9-.96a.85.85 0 0 0 .21-.14l.59-.55ZM21.08 23.77a1.2 1.2 0 0 1 .02-.5c.2-.14.32-.36.36-.66a.1.1 0 0 1 .04-.05.1.1 0 0 1 .12 0 .1.1 0 0 1 .03.05c.03.15.03.33 0 .54v.05l.04.03a.08.08 0 0 0 .1-.03c.15-.19.2-.38.14-.56-.07-.2-.09-.35-.04-.43.07-.12.2-.18.37-.17.03 0 .06.01.08.03.02.01.04.03.05.06a.13.13 0 0 1-.03.14c-.12.12-.15.33-.1.62 0 .04.03.08.05.1a.23.23 0 0 0 .13.08l.04.02.01.04a.07.07 0 0 1-.03.07c-.14.09-.18.2-.12.35.02.04.02.08 0 .12a.19.19 0 0 1-.05.1l-.98.8a.07.07 0 0 1-.08 0 .06.06 0 0 1-.02-.03v-.04c.07-.24.2-.44.36-.6a.12.12 0 0 0 .02-.14.13.13 0 0 0-.06-.05.13.13 0 0 0-.08 0l-.37.06Z" fill="#E1E2DE"/><path d="M26.82 27.02c.04 0 .06.02.09.04a.17.17 0 0 1 .04.17c0 .03-.02.05-.04.07l-.53.5c-.08-.14-.24-.09-.48.15l-1.12 1.09a.34.34 0 0 0-.1.31c.07.32-.07.59-.42.8a.15.15 0 0 0-.07.07.15.15 0 0 0 0 .1c.54 1.43-.54.4-.54.4l.45-1.93c.6-3.9-.9-2.87-1.5-3.67a.08.08 0 0 1-.02-.05v-.29c.38-.82 1.33-1.1 1.27-1.2a.99.99 0 0 0 .24-.59c0-.08.04-.16.1-.22a1.43 1.43 0 0 0 .35-.52.13.13 0 0 1 .13-.03c.1.03.2.03.3-.01a.14.14 0 0 1 .1 0c.03 0 .06.03.08.05.01.03.02.06 0 .1 0 .03-.02.05-.05.07 1 4.6 1.28 1.85 1.72 4.6Z" fill="#B1B1B0"/><path d="M23.72 24.95c.43 1.42.56 2.7.38 3.84-.64.59-1.81 1.5-1.67 2.37.14.83.47 1.64-.41 2.42-.5.43-1.2.78-2.1 1.05l1.1-.54a.38.38 0 0 0 .15-.13.36.36 0 0 0-.13-.52l-.93-.5a.25.25 0 0 0-.27.02l-.52.42a.13.13 0 0 1-.1.03.13.13 0 0 1-.08-.04l-.47-.53-.04-.02h-.03l-.04.02-.02.03-.13.47v-.85c0-.05.02-.1.05-.15.37-.57.83-1.05 1.37-1.44a6.84 6.84 0 0 0 .77-.76l-.02-.05-.05-.05-.01-.01a.05.05 0 0 0-.04 0h-.02l-1.03.85a.06.06 0 0 1-.08 0 .06.06 0 0 1-.02-.07c.35-.75.85-1.28 1.51-1.6.5-.08.89-.41 1.16-1.01a.16.16 0 0 0 0-.08l-.07-1.2a.12.12 0 0 1 .03-.1.13.13 0 0 1 .09-.04h.1c.11 0 .22-.05.3-.12.51-.4.83-.93.97-1.59 0-.04.03-.07.05-.1a.26.26 0 0 1 .1-.08c.12-.05.17-.03.15.06Z" fill="#E1E2DE"/><path d="M33.95 25.25c.66.28.89.8.7 1.58l-.05.08a.18.18 0 0 1-.24.01l-.48-.4a.18.18 0 0 1-.04-.24c.13-.2.13-.46 0-.76l.11-.27ZM27.2 26.7c.33 1.49.1 2.35-1.14 3.26a.3.3 0 0 0-.11.18c-.14.72.03 1.21.5 1.48l.7.76c.06.06.14.1.22.1.08 0 .16-.02.23-.07l1.38-1.14a.72.72 0 0 0 .14-.98c-.6-.83-1.02-1.44-1.08-2.38v-.03s1.35 1.1 1.45 1.52l.32.47c.14.74.03 1.31-.32 1.74-.47.56-.9 1.13-1.29 1.73l-.4.32a.19.19 0 0 1-.1.04l-.1-.01a2.84 2.84 0 0 1-1.05-.65c-.46-.32-.8-.7-1.02-1.1a.68.68 0 0 0-.09-.13l-.7-.71.06-.96a.3.3 0 0 1 .08-.19c.37-.36.58-.64.62-.82.11-.5.4-.95.88-1.33l.53-.5a.17.17 0 0 0 .04-.07.16.16 0 0 0-.04-.17.17.17 0 0 0-.09-.04c-.21-.05-2.08-.34-1.58-.5l.03-.01c.07-.08-.1-.33-.1-.43l.01-.05a.1.1 0 0 1 .04-.04.11.11 0 0 1 .1-.01l1.87.72Z" fill="#C7C7C7"/><path d="M28.95 39.15c-.55 2.56.4 7.91 1.51 3.33a.67.67 0 0 1 .07-.17c.12-.23.2-.3.26-.23a7.74 7.74 0 0 0-.2 3.56c0 .02 0 .03-.02.04a.12.12 0 0 1-.08.05l-1 .13c-.05 0-1 .13-1.03.12a.13.13 0 0 1-.08-.04.12.12 0 0 1-.03-.09c.03-.43-.02-.97-.15-1.64-.16-.75-.21-1.85-.17-3.32.01-.5 0-.92-.02-1.25-.07-1.01-.27-1.7-.22-2.87.16-3.93-.69.09-1.02.86a9.14 9.14 0 0 0-.33.81.1.1 0 0 1-.13 0 .1.1 0 0 1-.03-.06.92.92 0 0 1 .21-.77l-.4-.14a.21.21 0 0 1-.09-.1.2.2 0 0 1-.01-.12c.06-.43.03-.74-.1-.91a.12.12 0 0 1 0-.16c.65-.76.66-2.48.03-3.18a.1.1 0 0 1-.01-.11.1.1 0 0 1 .12-.03l.52.18c.17.27.42.41.75.43.04 0 .08.02.12.04.03.02.06.05.08.09.03.05.06.08.1.09h.1c.04 0 .07 0 .1-.03l.4-.32c.47-.14.85-.37 1.14-.7.04-.04.1-.08.15-.1a.35.35 0 0 1 .19 0c.09.02.18-.05.28-.2a1 1 0 0 0 .15-.56c0-.24.1-.4.3-.47a.22.22 0 0 0 .1-.09.21.21 0 0 0 .03-.12l-.05-.82a.19.19 0 0 0-.08-.14c-.16-.11-.36-.2-.6-.27l-.32-.47a2.3 2.3 0 0 0-1.18-1.44c.03 0 .01-.04-.04-.1-.05-.24-.01-.37.11-.42 1.56 1.49.58.55 1.4-.79a.22.22 0 0 1 .1-.09l.19-.07c.12-.05.31.12.23.24a.1.1 0 0 1-.03.03.1.1 0 0 1-.05.02c-.21.02-.39.14-.52.37-.2.36 0 .76-.1 1.12-.02.1 0 .2.04.29.03.06.18.27.45.62.21.27.4.4.57.38.03 0 .05 0 .08.02a44.32 44.32 0 0 0 .73 1.54 5.34 5.34 0 0 1 .36 2.35.1.1 0 0 1-.08.04.1.1 0 0 1-.05 0l-.58-.27a.1.1 0 0 0-.1.02.09.09 0 0 0-.02.1l.84 2v.06l-.03.04h-.06a.08.08 0 0 1-.04-.02c-2.03-.73-2.8-.85-2.69.92 0 .03.01.05.03.08l.06.05c.23.1.33.33.31.68a.22.22 0 0 1-.09.17c-.57.43-.32 1.2-.38 1.8Z" fill="#7A7A7A"/><path d="m18.36 30.67-1.1 1.74-.04-1.91c0-.05-.01-.1-.04-.15a.3.3 0 0 0-.12-.1.32.32 0 0 0-.3 0c-1.38.82-3.36 1.16-3.08 3.19.09.66.41 1.12.98 1.38.17.08.32.07.47-.04l-.28.72a.12.12 0 0 1-.05.07.13.13 0 0 1-.1 0c-2.69-.6-1.68-3.57-.44-4.9.82-.89 1.77-1.83 2.93-2.15.58-.17 1.2-.29 1.83-.37a2.47 2.47 0 0 1 .8-.72c.01 0 .02 0 .03.02a.04.04 0 0 1 0 .05c-.04.09-.13.19-.27.3a.35.35 0 0 0-.12.2c-.1.41-.32.8-.67 1.17a.31.31 0 0 0-.07.13l-.36 1.37Z" fill="#E1E2DE"/><path d="M38.95 27.97c-.24 0-.37-.11-.37-.35a.5.5 0 0 1 .18-.15c.08-.03.15-.01.2.06.13.17.13.32 0 .44ZM26.38 27.8c-.47.38-.77.83-.88 1.33-.04.18-.25.46-.62.82a.3.3 0 0 0-.08.19l-.07.96a1.1 1.1 0 0 1-.34.4.16.16 0 0 0-.05.09.15.15 0 0 0 0 .09c.1.29.27.54.53.75l.03.03v.04l-.02.03-.03.02-.16.06h-.02l-.01-.01-.3-.41a.17.17 0 0 0-.1-.07c-.04 0-.08 0-.12.02-.22.12-.36.26-.41.43a.22.22 0 0 1-.1.12.24.24 0 0 1-.3-.06.21.21 0 0 1-.05-.15l.04-.5.33-1.26.13-.03a.1.1 0 0 1 .1.03.1.1 0 0 1 .02.09l-.05.2v.04c0 .01 0 .02.02.03a.07.07 0 0 0 .07.01c.31-.13.4-.39.25-.76a.15.15 0 0 1 0-.1.15.15 0 0 1 .07-.09c.35-.2.49-.47.42-.79a.34.34 0 0 1 .1-.31c.38-.37.76-.73 1.12-1.1.24-.23.4-.28.48-.14ZM36.32 30.7l.68 1.08c.02.05.02.98.01 1a.24.24 0 0 1-.12.13.27.27 0 0 1-.19.02.25.25 0 0 1-.14-.11l-.72-1.2a.07.07 0 0 1-.01-.05.08.08 0 0 1 .08-.06c.02 0 .03 0 .05.02.15.13.3.33.46.59l.03.02s-.12-.76-.6-1.64a.13.13 0 0 0-.06-.05 4.21 4.21 0 0 1-1.6-1.21.08.08 0 0 1 .02-.08l.04-.02c.12-.03.24-.04.33.06l.38.43.1.07c1.2.55.8-.64.13-1.26v-.01c.26-.43.37.16.66.42.06.05.1.11.14.19.23.52.35 1.08.33 1.67Z" fill="#7A7A7A"/><path d="m24.1 28.8-.45 1.92-.33 1.25c-.46.46-.19.84-.3 1.34a6.16 6.16 0 0 0-.2 1.75c-.03.29-.01.63.05 1.02l.24 1.5c0 .03.02.06.05.07.02.02.06.03.09.03h.14c.04-.01.07 0 .1.02.02.01.04.04.05.07.03.09.1.14.19.15l.07.06c.03.03.05.06.06.1 0 .03 0 .07-.02.1-.19.25-.14.5.14.73a.08.08 0 0 1 .03.06V39l-.03.02a.18.18 0 0 1-.07.04c-.05.01-.1-.01-.14-.07-.08-.1-.16-.17-.24-.17a.1.1 0 0 0-.04.01.1.1 0 0 0-.04.03.09.09 0 0 0 0 .09c.21.46.6.64 1.13.54.03 0 .06-.02.09-.05a.15.15 0 0 0 .04-.09 10.05 10.05 0 0 1 .79-2.9h-.31a.12.12 0 0 0-.1.09c-.17.43-.4.8-.7 1.1a.17.17 0 0 0-.06.14l.09 1.28-.01.04-.04.02h-.04a3.27 3.27 0 0 1-.17-1.25c0-.05 0-.09-.03-.12a.2.2 0 0 0-.09-.07l-.16-.06c-.66-.33-.9-.8-.75-1.44a.53.53 0 0 0 0-.27c-.09-.3-.06-.58.1-.84a.23.23 0 0 0-.01-.24c-.38-.59-.25-1.13.39-1.62a.09.09 0 0 1 .06-.01.1.1 0 0 1 .06.03l.06.06a.14.14 0 0 1 .03.1c0 .02 0 .04-.02.06a.14.14 0 0 1-.04.04c-.42.3-.54.71-.38 1.25 0 .02.02.03.03.04h.05c.01 0 .03 0 .04-.02a.07.07 0 0 0 .02-.04c-.04-.37.16-.7.58-.97l.04-.01c.02 0 .03 0 .04.02l.05.05a.08.08 0 0 1 .01.1l-.02.02c-.29.18-.42.4-.4.66 0 .03.01.05.03.08a.15.15 0 0 0 .23-.01c.18-.26.46-.28.84-.08a.11.11 0 0 0 .12-.01.1.1 0 0 0 .04-.06.1.1 0 0 0 0-.06c-.12-.31.1-.32.66-.03.03.01.05.04.07.07.01.03.02.07 0 .1l-.04.2a.27.27 0 0 0 .01.2.5.5 0 0 1 0 .5.31.31 0 0 0-.03.27l.07.16a.28.28 0 0 1-.04.27c-.33.45.32.76-.08 1.24 0-.1-.02-.14-.05-.14-.14-.02-.23.04-.28.18a7.76 7.76 0 0 0-.4 1.87.1.1 0 0 0 .04.04.1.1 0 0 0 .07 0 .1.1 0 0 0 .05-.03l.07-.1c.12.08.25.1.4.1l.16.13.05.08v.09c-.16.43-.33.79-.5 1.07-.25.39-.2.7.16.92a.1.1 0 0 0 .12-.01.1.1 0 0 0 .03-.03l.23-.5c-.12.28.02.25.41-.08l.03-.02a.08.08 0 0 1 .07.02l.02.03.22.78-.26 1.72c0 .05-.03.1-.06.13a.28.28 0 0 1-.12.09c-.57.22-.34.74-.8 1.04-.13.1-.25.3-.35.62a.31.31 0 0 1-.11.15.33.33 0 0 1-.18.07h-.08a.16.16 0 0 1-.14-.06.15.15 0 0 1-.02-.15c.29-.7.27-.93-.05-.68-.11-.27-.13-.59-.05-.96a.56.56 0 0 0 0-.2l-.3-1.6-.05-.15a2.22 2.22 0 0 1-.26-.91.51.51 0 0 0-.07-.23 1.74 1.74 0 0 1-.2-.91.76.76 0 0 0-.08-.35c-.21-.42-.3-.74-.24-.96v-.03a.05.05 0 0 0-.03-.03.06.06 0 0 0-.07.02l-.49.54a.13.13 0 0 1-.05.03l-3.84 1a.27.27 0 0 1-.26-.08 5.07 5.07 0 0 1-1.04-1.5.24.24 0 0 0-.1-.04l-.5-.12a.17.17 0 0 1-.07-.03.15.15 0 0 1-.02-.2c.15-.19.32-.35.5-.5 1.18-.9 1.82-1.86 2.7-2.92a5.44 5.44 0 0 0 2.1-1.05c.89-.78.56-1.59.42-2.42-.14-.87 1.03-1.78 1.67-2.37Z" fill="#C7C7C7"/><path d="M20.84 29.2a3.21 3.21 0 0 0-1.5 1.66l.01.03a.06.06 0 0 0 .08 0l1.03-.86a.05.05 0 0 1 .07 0l.05.06.02.05-.02.05c-.37.38-.62.62-.75.71-.54.39-1 .87-1.37 1.44a.28.28 0 0 0-.04.15l-.01.85c-.2.86-.45 1.72-.74 2.57a.2.2 0 0 1-.17.13c-.04.01-.08 0-.11-.02a.17.17 0 0 1-.07-.08c-.02-.02-.06-.02-.14 0a.15.15 0 0 0-.1.1c-.09.34-.18.54-.28.61-.21.14-.53.26-.96.37a.24.24 0 0 1-.24-.09.22.22 0 0 1 0-.25 4.65 4.65 0 0 0 .44-.76.07.07 0 0 0-.03-.04.07.07 0 0 0-.1.02c-.18.21-.34.45-.47.71a.16.16 0 0 1-.09.08.17.17 0 0 1-.12 0l-.06-.03a.09.09 0 0 1-.04-.05v-.06l1.04-2.15a.18.18 0 0 0 .01-.14.2.2 0 0 0-.09-.1.2.2 0 0 0-.26.04c-.17.22-.4.42-.7.58-.15.1-.3.12-.47.04a6.78 6.78 0 0 1 1.53-1.72c.4-.22.75-.45 1.07-.7l1.1-1.73.35-.3 1.4-1.07c.41-.38.66-.42.73-.1ZM28.2 33.34c.4-.6.82-1.17 1.29-1.73.35-.43.46-1 .32-1.74.24.07.44.16.6.27a.19.19 0 0 1 .08.14l.05.82c0 .04-.01.09-.03.12a.22.22 0 0 1-.1.09c-.2.08-.3.23-.3.47a1 1 0 0 1-.15.56c-.1.15-.2.22-.28.2a.35.35 0 0 0-.19 0 .33.33 0 0 0-.15.1c-.29.33-.67.56-1.14.7Z" fill="#B1B1B0"/><path d="m36.18 32.73-.42-.1a.2.2 0 0 0-.2.07c-.42.5-.5.66-1.22.42a.2.2 0 0 0-.17.02.2.2 0 0 0-.09.14 4.2 4.2 0 0 0 .34 2.08l-.01.06a.14.14 0 0 1-.1.06c-1.14.14-1.75 1.13-2.36 1.94.14-1.05.23-2.11.28-3.18 0-.33.1-.73.17-1.04.03-.11.1-.22.18-.3.09-.09.2-.15.32-.17l2.56-.57a.2.2 0 0 1 .15.03c.16.1.36.28.57.54ZM23.73 37.92a.7.7 0 0 1 .15-.3l.16.06a.2.2 0 0 1 .1.07c.02.03.03.07.02.11a3.27 3.27 0 0 0 .17 1.25.06.06 0 0 0 .08-.01v-.04l-.08-1.28a.18.18 0 0 1 .06-.14c.3-.3.53-.67.7-1.1a.12.12 0 0 1 .1-.08l.3-.02h.02a.02.02 0 0 1 0 .03 10.05 10.05 0 0 0-.8 2.88c0 .04-.02.07-.04.1a.17.17 0 0 1-.1.04c-.53.1-.9-.08-1.13-.54a.1.1 0 0 1 .01-.09.1.1 0 0 1 .04-.03.1.1 0 0 1 .04 0c.08 0 .16.05.24.16.04.06.09.08.14.07.03 0 .06-.02.07-.04a.08.08 0 0 0 .03-.05.07.07 0 0 0-.03-.06c-.28-.23-.33-.48-.14-.74a.14.14 0 0 0-.04-.19l-.07-.06Z" fill="#E1E2DE"/><path d="m25.7 37.43-.06 1.2c0 .07-.03.12-.07.17l-.37.45-.07.1a.1.1 0 0 1-.05.03.1.1 0 0 1-.07 0 .1.1 0 0 1-.05-.04 7.76 7.76 0 0 1 .4-1.88c.06-.13.15-.2.3-.17.02 0 .03.05.04.14Z" fill="#fff"/><path d="M31.89 37.7c.01.16 0 .32-.03.49-.26 1.11-.53 2.23-.81 3.34-.06.22-.15.4-.26.55-.05-.08-.14 0-.26.23a16.39 16.39 0 0 1-.53 1.74c-.09.23-.06.37.08.43a.1.1 0 0 1 .06.1l.06.83c0 .03 0 .06-.02.1a.16.16 0 0 1-.08.05.17.17 0 0 1-.18-.03c-.1-.08-.16-.24-.2-.47a.45.45 0 0 0-.14-.24c-.37-.34-.52-.7-.47-1.1v-.06a.12.12 0 0 0-.05-.04c-.05-.05-.1-.06-.11-.05a.18.18 0 0 1-.1.01.2.2 0 0 1-.08-.03.2.2 0 0 1-.1-.16c-.1-1.46-.01-2.88.28-4.24l.5.28a.14.14 0 0 0 .15-.02.12.12 0 0 0 .03-.14l-.26-.65a.17.17 0 0 1 0-.12.18.18 0 0 1 .08-.1c.29-.16.49-.38.6-.68a.17.17 0 0 1 .06-.08.17.17 0 0 1 .1-.03l1.68.09Z" fill="#C7C7C7"/><path d="m25.85 41.1-.23.5a.1.1 0 0 1-.03.03.1.1 0 0 1-.04.02.1.1 0 0 1-.08-.01c-.35-.23-.41-.53-.17-.92.18-.28.35-.64.5-1.07a.14.14 0 0 0 0-.1.16.16 0 0 0-.04-.07l-.17-.14c.05-.1.11-.17.17-.2a.1.1 0 0 1 .11 0 .1.1 0 0 1 .05.1c-.02.15.02.28.1.38a.26.26 0 0 1 .06.2l-.23 1.29Z" fill="#E1E2DE"/><path d="M26.9 42.73 26.62 45a.48.48 0 0 1-.17.18c-.1.06-.2.06-.26 0-.1-.1-.14-.32-.1-.67v-.04a.07.07 0 0 0-.1-.02.07.07 0 0 0-.03.03c-.09.21-.22.4-.4.54a.45.45 0 0 0-.14.19l-.25.7-.79-.16a.14.14 0 0 1-.08-.05.13.13 0 0 1-.02-.09l.14-.84c.33-.25.35-.02.06.68a.15.15 0 0 0 .02.15.16.16 0 0 0 .14.06h.08c.06 0 .13-.03.18-.07.05-.04.09-.1.1-.15.11-.32.23-.53.37-.62.45-.3.22-.82.8-1.04a.29.29 0 0 0 .11-.09.27.27 0 0 0 .06-.13l.26-1.72.3.9Z" fill="#7A7A7A"/><path d="M26.62 45c-.04.3-.02.58.06.83a.13.13 0 0 1-.03.12.14.14 0 0 1-.12.05l-1.36-.1.25-.7a.45.45 0 0 1 .14-.2c.18-.14.31-.32.4-.53 0-.02.02-.03.03-.04a.07.07 0 0 1 .1.03v.04c-.04.35 0 .58.1.67.07.06.16.06.26 0 .07-.04.12-.1.17-.18Z" fill="#B1B1B0"/><path d="M29.48 45.86c-.26.08-.5.1-.72.09l.13-1.18.03-.04a.1.1 0 0 1 .04-.03.1.1 0 0 1 .06 0l.04.04.45.77.01.03c0 .1-.08.14-.22.12-.03 0-.06 0-.08.02a.11.11 0 0 0-.05.06v.08c.02.03.04.05.07.06l.24-.02Z" fill="#C7C7C7"/><path d="m32.27 17.38-.03-.01-.01-.03v-.04l.03-.02.7-.29a.2.2 0 0 1 .12 0c.04 0 .07.03.1.06.04.06.15.12.33.18a.1.1 0 0 1 .05.04.1.1 0 0 1 .02.07.1.1 0 0 1-.03.06.11.11 0 0 1-.06.03c-.17.03-.3.1-.36.18a.23.23 0 0 1-.35 0c-.07-.08-.24-.16-.51-.23ZM24.55 18.49c-.44.29-.9.36-1.41.21a.14.14 0 0 1-.06-.03.13.13 0 0 1-.03-.06.12.12 0 0 1 .02-.12l.05-.05a.4.4 0 0 1 .46-.1l.28.13a.3.3 0 0 0 .2.02c.27-.08.42-.12.46-.11l.04.01.02.03a.06.06 0 0 1-.03.07ZM22.82 18.9l.04.01.03.03V19l-.03.03c-.45.26-.8.56-1.05.9a.08.08 0 0 1-.05.04h-.06a.08.08 0 0 1-.04-.05v-.05c.17-.53.55-.85 1.16-.96Z" fill="#fff"/><path d="M25.88 20.4h.03l.02.02v.02c.04.1.02.22-.04.33a.52.52 0 0 1-.29.22l-.14.04a.55.55 0 0 1-.37 0 .4.4 0 0 1-.23-.25l-.01-.02v-.02a.04.04 0 0 1 .03-.02l1-.32ZM34.53 30.67a16.22 16.22 0 0 1 .41.46l-.01.08a.14.14 0 0 1-.06.07.15.15 0 0 1-.08.02h-1.16a.45.45 0 0 1-.34-.16.41.41 0 0 1-.09-.35c.1-.4.34-.54.74-.4.27.07.46.17.59.28Z" fill="#E1E2DE"/><path d="M29.28 24.4a1.7 1.7 0 0 1-.9.91 1.83 1.83 0 0 1-1.33.04 1.83 1.83 0 0 1-1-.85 1.57 1.57 0 0 1-.07-1.25c.07-.2.19-.38.34-.54a1.83 1.83 0 0 1 1.88-.41 1.83 1.83 0 0 1 1 .85 1.57 1.57 0 0 1 .08 1.25Z" fill="#C7C7C7"/><path d="M24.25 36.63c-.24.33-.36.65-.26.71.1.07.38-.14.62-.47.24-.33.35-.65.25-.72-.1-.07-.38.15-.61.48Z" fill="#E1E2DE"/><path d="M19.74 36.67a.66.66 0 0 1 .77-.05l.86.54a.6.6 0 0 1 .26.4.56.56 0 0 1-.13.46c-.52.6-1.25.94-2.2 1.02a.48.48 0 0 1-.4-.15l-.57-.64a.32.32 0 0 1-.08-.24.32.32 0 0 1 .12-.22l1.37-1.12Z" fill="#fff"/><path d="M18.66 31c-.28.44-.44.83-.37.88.08.04.37-.28.65-.72.28-.44.44-.84.36-.88-.07-.04-.36.28-.64.72Z" fill="#E1E2DE"/><path d="M27.6 25.15c.78 0 1.4-.6 1.4-1.33 0-.74-.62-1.34-1.4-1.34-.76 0-1.38.6-1.38 1.34 0 .73.62 1.33 1.39 1.33Z" fill="#fff"/></svg>