<svg width="112" height="112" viewBox="0 0 56 56" xmlns="http://www.w3.org/2000/svg"><path d="M33.18 11.07c-.41.1-.64.25-.68.48a4.3 4.3 0 0 0-2.42-.85c-1.19.02-2.22 0-3.08-.03-1-.04-2.17.22-3.51.8-.07.04-.09.08-.06.15a.3.3 0 0 0 .06.1 2.3 2.3 0 0 0-.7-.54l-.52-.6.71.55c.06.05.12.05.19.02a8.4 8.4 0 0 1 2.03-.8c1.24-.28 2.55-.4 3.92-.33 1.32.05 2.54.4 3.67 1.05.06.04.19.04.39 0Z" fill="#97A7B9"/><path d="m22.27 10.59.53.6c.07.27.07.49.02.67a.2.2 0 0 1-.13.12.2.2 0 0 1-.18-.02l-.67-.47-.52-.45a.13.13 0 0 0-.15-.02.13.13 0 0 0-.07.13l.53 3.64a3.43 3.43 0 0 1-.84 1.77c-.36-.77-.62-1.61-.8-2.53l-.05-.74c.14-.56.2-1.16.15-1.79 0-.21.1-.52.31-.92.25-.46.64-.62 1.18-.48.16.05.4.2.7.49ZM35.68 11.72a9.84 9.84 0 0 1-.29 1.76 2.2 2.2 0 0 1-.84 1.16.15.15 0 0 1-.18 0 .18.18 0 0 1-.06-.08l.45-3.28a.17.17 0 0 0-.1-.17.18.18 0 0 0-.2.03l-1.08 1.04-1.32 1.44c-.05.05-.08.04-.08-.03-.01-.26.04-.49.15-.7.32-.58.72-1.23 1.2-1.93.27-.3.57-.51.89-.63.37-.13.7-.07.98.16.33.27.49.68.48 1.23Z" fill="#E38449"/><path d="M32.5 11.55c-.23.36-.48.66-.74.9-.27.25-.34.5-.51.8a.33.33 0 0 1-.37.15c-1.4-.41-2.81-.37-4.17-.36-.64 0-1.28.11-1.9.33a.3.3 0 0 1-.34-.12l-.98-1.53a.3.3 0 0 1-.06-.1c-.03-.06 0-.11.06-.15a8.14 8.14 0 0 1 3.5-.8c.87.04 1.9.05 3.1.03.74-.01 1.55.27 2.41.85Z" fill="#040E1C"/><path d="M33.33 10.96c-.48.7-.88 1.35-1.2 1.94-.11.2-.16.43-.15.7 0 .06.03.07.08.02l1.32-1.44-1.18 1.67a.23.23 0 0 0 .04.32c.03.02.07.04.11.04.31.06.76.22.96.5.09.12.24.24.44.36a.19.19 0 0 0 .22-.02c.13-.12.25-.28.34-.5.01.04.03.07.06.1a.15.15 0 0 0 .18 0c.43-.33.7-.72.84-1.17.12-.42.22-1 .29-1.76l.17 2.42-.25.67c-.2.46-.38.93-.57 1.4-.06.16-.08.31-.07.47 0 .12.06.25.16.42.23.36.41.76.54 1.18l-.3-.35a.17.17 0 0 0-.18-.06c-1 .2-1.54.7-2.23 1.47a.25.25 0 0 1-.17.09l-1.56.13c.44-.05.74-.24.89-.57.27-.6-.16-1.13-.7-1.36-.26-.12-.5-.11-.68.02-.46.32-.63.8-.5 1.41h-.06a.17.17 0 0 1-.11-.08c-.53-.72-1.45-1.34-2.4-1.24-.45.05-.75.14-.89.27-.35.33-.71.64-1.1.93a1.5 1.5 0 0 0-.22-1.05c-.72-1.03-2.18.04-1.67 1.05.2.38.59.53 1.16.45-.34.1-.74.29-1.07.28-.23 0-.39-.07-.5-.18-.98-1-2.2-1.32-3.64-.97l1.06-1.96c.51-.63.8-1.22.84-1.77.46.07.97-.13 1.52-.6a.33.33 0 0 1 .18-.09c.1-.01.18-.04.25-.09a.13.13 0 0 0 .05-.08.13.13 0 0 0-.02-.1l-1.77-2.34.67.47a.2.2 0 0 0 .3-.1c.06-.18.06-.4-.01-.68.26.14.5.32.7.54l.97 1.53c.03.05.08.1.15.12a.3.3 0 0 0 .19 0 5.86 5.86 0 0 1 1.9-.33c1.36-.01 2.77-.05 4.17.35a.33.33 0 0 0 .37-.14c.17-.3.24-.55.5-.8.27-.24.52-.54.75-.9.04-.23.27-.39.68-.48.03-.07.08-.11.15-.11Z" fill="#FB9A4C"/><path d="m21.84 11.49 1.77 2.34a.13.13 0 0 1-.03.18.54.54 0 0 1-.25.1.33.33 0 0 0-.18.07c-.55.48-1.06.68-1.52.61l-.53-3.64.01-.08a.13.13 0 0 1 .14-.06c.02 0 .05.01.07.03l.52.45Z" fill="#F5EDE9"/><path d="M19.18 14.29a10.5 10.5 0 0 0-1.46 3.14 68.7 68.7 0 0 0-.47 2.51c-.1.64-.12 1.2-.05 1.7.2 1.33.69 2.53 1.49 3.6.6.63 1.24 1.14 1.93 1.54.67.38 1.4.5 2.14.77 1.98.71 4.35.92 6.5.68l2.01-.18c1.26-.1 2.54-.49 3.83-1.16a6.7 6.7 0 0 0 2.73-2.83c.15-.33.24-.7.26-1.1.01-.3.05-.68.11-1.14.15-1.15.1-2.38-.18-3.67a.7.7 0 0 0-.14-.3 2.47 2.47 0 0 0-.33-.77c-.1-.45-.32-.94-.64-1.45.2-.2.3-.42.28-.63-.07-.72-.1-1.17-.09-1.35.01-.2.13-.4.36-.56.06-.05.1-.03.14.04.22.48.8 1.27 1.04 2 .56 1.7.73 3.45.51 5.26-.01.14.03.16.13.06l.47-.46c.21-.21.29-.17.23.12l-.46 2.26a.2.2 0 0 1-.14.16c-.21.07-.38.16-.5.26a.28.28 0 0 0-.1.17 6.64 6.64 0 0 1-.5 1.8 19.67 19.67 0 0 1-1.57 2.86c-.31.43-.76.83-1.35 1.21-1.39.67-2.6 1.04-3.62 1.12l-2.72.22c-.95.08-2.38 0-4.3-.21-3.19-.36-6.05-1.91-7.26-5-.14-.35-.38-1.12-.73-2.32-.03-.13-.15-.24-.34-.35h.17c.07 0 .1-.04.1-.1-.29-2.74-.41-2.13-.1-4.24.17-1.2.43-2.25.78-3.15a9.06 9.06 0 0 1 2.17-3.2c.1-.1.11-.08.07.03l-1.51 3.7c-.04.08-.01.14.07.19h.12a.18.18 0 0 0 .09-.07c.25-.4.53-.8.83-1.16Z" fill="#D1DAE7"/><path d="m19.94 13.3.06.73a6.96 6.96 0 0 0-1.46 2.7l-.26.89c-.1.3-.17.6-.2.9-.12.88-.19 1.48-.22 1.8a6.57 6.57 0 0 0 1 4.17c.28.45.83.96 1.65 1.51-.19.02-.3.08-.34.2a8 8 0 0 1-1.2-1.04c-.06-.06-.16-.04-.28.08a7.73 7.73 0 0 1-1.49-3.6c-.07-.5-.05-1.06.05-1.7.14-.84.3-1.67.47-2.5.17-.82.66-1.86 1.46-3.15l.76-1Z" fill="#616F81"/><path d="M20 14.03c.17.92.43 1.76.79 2.53l-1.06 1.96a2.85 2.85 0 0 1-.38 1.08 2.7 2.7 0 0 0-.28 1.13c-.03.39.02.77.15 1.14a6.68 6.68 0 0 0 2.2 3.16c.51.65.67 1.19.48 1.61L20.5 26a5.7 5.7 0 0 1-1.65-1.51 6.57 6.57 0 0 1-.99-4.18l.22-1.8c.03-.28.1-.58.2-.89l.26-.89c.28-1 .76-1.9 1.46-2.7Z" fill="#040E1C"/><path d="M35.85 14.14c.5.43.86.93 1.06 1.49 1.3 1.7 1.55 4.2 1.3 6.2-.07.45-.1.83-.12 1.13-.02.4-.1.77-.26 1.1-.24.5-.54.97-.92 1.38l-.73.31c-.23-.1-.55 0-.96.28-.11.07-.22.08-.32.03l.45-.23c.4-.18.6-.54.94-.77.2-.14.38-.31.53-.5.23-.31.4-.68.53-1.1l.3-1.17c.23-.98.1-1.97.05-2.97a5.75 5.75 0 0 0-.4-1.73c-.35-.94-.79-1.8-1.3-2.6-.08-.11-.21-.17-.4-.18l.25-.67Z" fill="#616F81"/><path d="M34.9 26.06c-.1.04-.18.09-.27.14a.48.48 0 0 1-.24.1c-.12 0-.2-.02-.27-.07-.14-.24-.34-.26-.6-.06-.06.05-.11.04-.16-.02-.04-.07-.03-.13.04-.2.4-.38.7-.67.86-.88.54-.38.95-.85 1.24-1.42l.45-.82c.63-1.18.6-2.12.18-3.25l-.05-.12c-.05-.42-.2-.82-.42-1.18-.13-.42-.3-.82-.54-1.18a.94.94 0 0 1-.16-.42c-.01-.16.01-.31.07-.46l.57-1.4c.19 0 .32.06.4.18.51.79.95 1.65 1.3 2.59.24.61.37 1.19.4 1.73.05 1 .18 1.99-.05 2.97l-.3 1.16c-.12.43-.3.8-.53 1.1-.15.2-.32.37-.53.51-.34.23-.55.59-.94.77l-.45.23Z" fill="#040E1C"/><path d="M25.67 18.94a.72.72 0 0 1-.39.36l-.34.09c-.57.08-.96-.07-1.16-.45-.52-1.01.95-2.08 1.67-1.05.2.27.27.62.22 1.05ZM31.22 19.56a.93.93 0 0 1-.82-.26l-.16-.24c-.14-.62.03-1.1.49-1.41.19-.13.42-.14.68-.02.54.23.97.76.7 1.36-.15.33-.45.52-.9.57Z" fill="#070407"/><path d="m30.24 19.06.16.24c-.05.05-.06.1-.03.16.34.62.89 1.06 1.64 1.33.19.07.38.1.57.08.62-.08 1.06-.41 1.74-.87.33-.21.78-.4 1.35-.57a.4.4 0 0 1 .2-.01l.2.04.06.12c-.36.98-.87 1.4-1.77 2.32-.36.38-.8.72-1.35 1.02-.9.5-1.9 1.3-3.07 1.46a42.38 42.38 0 0 1-4.98.38.22.22 0 0 1-.12-.12.22.22 0 0 1-.02-.1c.07-1.52-.05-3.1.2-4.7.13-.19.22-.37.26-.54a.72.72 0 0 0 .4-.36c.38-.3.74-.6 1.1-.93.13-.13.43-.22.89-.27.94-.1 1.86.52 2.39 1.24.03.04.07.06.11.07l.07.01Z" fill="#FEFEFE"/><path d="M35.66 18.28c.23.36.37.76.42 1.18l-.21-.04a.4.4 0 0 0-.2 0c-.57.17-1.02.37-1.35.58-.68.46-1.12.8-1.74.87-.2.02-.38 0-.57-.08a2.94 2.94 0 0 1-1.64-1.33c-.03-.06-.02-.11.03-.16.2.21.48.3.82.26l1.56-.13c.07 0 .13-.04.17-.09.69-.77 1.23-1.27 2.23-1.47.07-.01.13 0 .18.06l.3.35ZM24.95 19.39l.33-.1c-.04.18-.13.36-.25.55-.64.6-1.16.94-1.55 1.02-.36.08-.67.03-.93-.14-.59-.39-1.34-.95-2.27-1.69a.37.37 0 0 0-.2-.08 1 1 0 0 1-.4-.12c.05-.15.06-.26.05-.31a3.61 3.61 0 0 1 3.64.97c.11.11.27.17.5.18.33 0 .73-.18 1.07-.28Z" fill="#FECB8F"/><path d="M16.39 22.29c-.35-.3-.47-.82-.34-1.56l.14-1.32c0-.05.02-.08.07-.1l.06-.01c.02 0 .04.01.04.04l.3 2.85c0 .06-.03.1-.1.1h-.17Z" fill="#97A7B9"/><path d="M34.26 25.07c-.16.2-.45.5-.86.89-.07.06-.08.12-.04.19.05.06.1.07.16.02.26-.2.46-.18.6.06-.77.5-1.55.8-2.31.9-.48.06-1.24.18-2.26.36-.16.03-.3.04-.45.03-.15-.01-.23-.09-.23-.24 0-.5-.24-.75-.7-.77-.57-.03-.83.22-.76.74a.14.14 0 0 1-.04.12.15.15 0 0 1-.1.05c-1.88.08-3.67-.18-5.37-.78.19-.42.03-.96-.47-1.61.8.24 1.59.45 2.35.64 1.1.27 2.15.25 3.24.52a7.6 7.6 0 0 0 2.05.1c.67-.06 1.74-.2 3.22-.44a3.3 3.3 0 0 0 1-.34c.31-.16.63-.31.97-.44Z" fill="#C65F2A"/><path d="M20.17 26.2c1.14.56 2.24.98 3.28 1.24 1.02.25 2.26.4 3.72.43.15 0 .37.04.67.1.24.06.48.07.71.03l.88-.15c.67-.04 1.44-.12 2.31-.23.44-.06.9-.18 1.37-.36l1.34-.49a5.94 5.94 0 0 0 1.73-1.02l.73-.3a6.7 6.7 0 0 1-1.81 1.44 9.97 9.97 0 0 1-3.83 1.16l-2 .18c-2.16.24-4.53.03-6.51-.68-.75-.26-1.47-.4-2.14-.77-.7-.4-1.34-.91-1.93-1.54.12-.12.22-.14.28-.08a8 8 0 0 0 1.2 1.03Z" fill="#164A6D"/><path d="M36.18 25.75c-.57.47-1.14.8-1.73 1.02-.78.28-1.23.45-1.34.5-.47.17-.93.3-1.37.35-.87.11-1.64.19-2.3.23l-.89.15c-.23.04-.47.03-.7-.02-.3-.07-.53-.1-.68-.11-1.46-.03-2.7-.18-3.72-.43a16.33 16.33 0 0 1-3.28-1.25c.04-.1.15-.17.34-.19l1.39.64a14.07 14.07 0 0 0 5.42.76.15.15 0 0 0 .08-.09v-.06c-.06-.52.2-.77.77-.74.46.02.7.28.7.77 0 .15.08.23.23.24.14 0 .3 0 .45-.03 1.02-.18 1.78-.3 2.26-.36.76-.1 1.54-.4 2.31-.9.06.05.15.07.27.06.07 0 .15-.03.24-.09l.27-.14c.1.05.2.04.32-.03.4-.28.73-.37.96-.28Z" fill="#97A7B9"/><path d="M35.36 28.83c.1.8-.08 1.31-.55 1.55-2.73 1.36-6.6 1.62-9.6 1.1-.03-.02-.09 0-.16.03a.4.4 0 0 0-.22 0 .2.2 0 0 0-.06-.08 2.84 2.84 0 0 1-3.73-1.5l-.24-.34-.1-.76c.01-.04.04-.07.1-.08.04-.01.08 0 .11.01 1.4.67 2.67 1.07 3.8 1.2 1.93.22 3.36.29 4.3.21l2.73-.22c1.03-.08 2.23-.45 3.62-1.12Z" fill="#022A4B"/><path d="m20.8 29.6.24.33c-.1.33-.18.62-.22.86-.07.4-.2.43-.4.06v-.5c.16-.13.28-.38.38-.76Z" fill="#164A6D"/><path d="M21.04 29.93c.25.24.53.43.83.55a16.05 16.05 0 0 0 2.9.95.2.2 0 0 1 .06.08c-.04 1.1-.04 2.02 0 2.74 0 .14.03.31.1.54.01.03.03.05.07.05h.05a.13.13 0 0 0 .1-.03.11.11 0 0 0 .03-.1c-.14-1.05-.19-2.12-.13-3.2.07-.03.13-.05.17-.04a15.74 15.74 0 0 0 5.9-.05c.06.02.08.05.07.09a95.76 95.76 0 0 1-.24 4.24c.02.02.03.03.05.03.04.01.08 0 .12-.04.03.07.1.11.2.11a6.48 6.48 0 0 0-1.81 2.38c-.49.55-.95.63-1.4.25.01-.57.04-1.13.07-1.68 0-.17-.1-.34-.1-.47 0-.1-.01-.1-.04 0-.05.15-.07.26-.07.33l-.01.06a.08.08 0 0 1-.05.04c-.05.01-.08 0-.09-.05l-.08-.29c-.07-.22-.02-.36.16-.44l.13.07c.07.04.13.04.2 0a5.02 5.02 0 0 0 1.46-1.22c.59-.73.7-1.67-.07-2.29-.47-.38-.93-.37-1.39.04-.05.04-.1.05-.17.01l-.66-.37a.24.24 0 0 0-.18-.03c-.5.1-.84.3-1.04.57-.5.69-.44 1.38.17 2.06a4.15 4.15 0 0 0 1.2.97.5.5 0 0 0 .06.07l-.21 2.75-1.57-.62-1.02-2a1.2 1.2 0 0 0-.6-.55 13.8 13.8 0 0 0-2.07-.7c-.34-.1-.74-.1-1.2-.04-.24 0-.35-.04-.33-.1a.82.82 0 0 1 .36-.58.19.19 0 0 0 .08-.15l.09-.9a.3.3 0 0 0-.05-.2.32.32 0 0 0-.16-.13c-.45-.17-.7-.1-.71.23l-.36-.33c-.06-.05-.1-.04-.12.04-.14.5-.03.78.34.85l-.03 1.21c0 .04-.02.06-.06.06l-.1-.01a.06.06 0 0 1-.06-.05c-.04-.2-.14-.3-.3-.3l-.29-.05c-.08-.02-.11-.06-.1-.14v-.08c.01-.08.06-.11.15-.08l.34.13c.07.03.13.01.17-.05.05-.08.01-.17-.13-.25a.3.3 0 0 0-.23-.04c-.22.05-.46.07-.71.04 0-.43.06-.8.2-1.13.35-.8.85-1.58 1.49-2.34a6 6 0 0 0 0 .5c.2.37.33.35.4-.06.04-.24.12-.53.22-.86Z" fill="#D1DAE7"/><path d="M36.29 37.9c.04.18.02.32-.06.43l-1.33.28a2.21 2.21 0 0 1-.58-.59l1.12-.47a.1.1 0 0 0 .06-.15 3.2 3.2 0 0 1-1.24-1.53l-.16-.58c.03-.06.03-.2 0-.4l.2-1.08c0-.06-.02-.1-.08-.12a.36.36 0 0 0-.13-.02.34.34 0 0 1-.3-.15 1.28 1.28 0 0 1-.05-1.23c.04-.09.07-.08.1.02.04.21-.12.57.05.87.1.17.25.25.45.24.07 0 .13-.04.17-.1.34-.45.55-.75.64-.9.27-.46.21-.86-.17-1.22-.05-.04-.05-.08 0-.12a.08.08 0 0 1 .09-.02c.29.12.5.34.6.66a.2.2 0 0 0 .16.13l.47.1a.2.2 0 0 1 .17.13c.11.32.13.47.49.6 1.23.5 1.8 1.36 1.69 2.6a2.25 2.25 0 0 1-1.43 1.99c-.23.1-.6.13-.86.18-.08.01-.12.06-.13.13-.01.1 0 .2.06.32Z" fill="#040E1C"/><path d="M25.05 31.51a17.22 17.22 0 0 0 .13 3.25c0 .02-.01.04-.03.05a.13.13 0 0 1-.1.04H25a.07.07 0 0 1-.07-.06c-.07-.23-.1-.4-.1-.54-.04-.72-.04-1.64 0-2.74a.4.4 0 0 1 .22 0Z" fill="#616F81"/><path d="m27.9 35.98-.3-.12a.5.5 0 0 1-.05-.07 4.15 4.15 0 0 1-1.2-.98c-.61-.67-.67-1.36-.17-2.05.2-.27.54-.47 1.04-.57.06-.02.12 0 .18.03l.66.37c.06.04.12.03.17-.01.46-.4.92-.42 1.4-.04.76.62.65 1.56.06 2.29-.4.5-.89.9-1.46 1.22a.19.19 0 0 1-.2 0l-.13-.07Z" fill="#164A6D"/><path d="m20.22 32.87-.05 1.47-.09-.91c-.37-.07-.48-.35-.34-.85.02-.08.06-.09.12-.04l.36.33Z" fill="#616F81"/><path d="m20.6 34.6-.07.25a.12.12 0 0 1-.1.08l-.07-.01a.12.12 0 0 1-.05-.05.98.98 0 0 1-.14-.53l.05-1.47c.02-.32.26-.4.71-.23.07.03.13.07.16.13a.3.3 0 0 1 .05.2l-.09.9a.19.19 0 0 1-.08.15.82.82 0 0 0-.36.57Z" fill="#164A6D"/><path d="M20.17 34.34c-.01.13.03.3.14.53l.05.05a.12.12 0 0 0 .13-.01.12.12 0 0 0 .04-.06l.08-.26c-.02.07.1.1.33.1-.1.17.07.24.5.2l-.76.27c-.07.03-.1.08-.1.16l.23 2.32a.25.25 0 0 0 .11.18.26.26 0 0 0 .21.04c.6-.15 1.24-.16 1.91-.03a4.46 4.46 0 0 0-1.9.18c-.24.08-.69-.03-1.34-.33.12-.29.14-.5.08-.62.08-.14.09-.24.03-.32-.03-.03-.11-.06-.25-.1-.37-.08-.61-.2-.94.12-.05.06-.11.07-.18.03-.24-.13-.4-.35-.5-.64 0-.07 0-.13.02-.17.02-.07.06-.08.12-.03.07.06.15.1.24.13.07.01.14 0 .21-.02.27-.1.53-.16.8-.2.31-.06.34-.17.08-.34-.04-.03-.17-.02-.4.01a.8.8 0 0 1-.44-.04l.99-.02a.2.2 0 0 0 .1-.03.19.19 0 0 0 .07-.09.18.18 0 0 0-.04-.2l-.05-.05a.18.18 0 0 1-.06-.17.69.69 0 0 0-.14-.59c.15 0 .25.1.29.3 0 .01 0 .02.02.03l.03.02h.1c.05.01.07 0 .07-.05l.03-1.21.1.9Z" fill="#97A7B9"/><path d="M19.54 34.34c.14.17.19.37.14.6 0 .06 0 .12.06.16l.05.05a.18.18 0 0 1-.03.29.2.2 0 0 1-.1.03l-.99.02c-.01-.05 0-.1.03-.15a.12.12 0 0 1 .08-.06l.09-.01.01-.01v-.03l-.02-.02-.02-.02c-.06-.02-.08-.06-.08-.11.03-.28.18-.43.44-.44.08 0 .1-.04.02-.09l-.7-.54c.08-.12.15-.18.21-.19.25.03.49.01.71-.04a.3.3 0 0 1 .23.04c.14.08.18.17.13.25-.04.06-.1.08-.17.05l-.34-.13c-.09-.03-.14 0-.15.08v.08c-.01.08.02.12.1.14l.3.05Z" fill="#355B9C"/><path d="m18.53 34.01.7.54c.06.05.05.08-.03.09-.26.01-.4.16-.44.44 0 .05.02.1.08.11l.02.02.02.02v.03h-.01c-.03 0-.06 0-.09.02a.12.12 0 0 0-.08.06c-.03.05-.04.1-.03.15a.8.8 0 0 0 .45.04c.22-.03.35-.04.39-.01.26.17.23.28-.08.33-.27.05-.53.12-.8.21a.36.36 0 0 1-.21.02.6.6 0 0 1-.24-.13c-.06-.05-.1-.04-.12.03a5.62 5.62 0 0 1 .47-1.97Z" fill="#D1DAE7"/><path d="m25.83 37.99-.07.3c-.02.07-.04.07-.07 0l-.1-.15a4.7 4.7 0 0 0-.69-1.61 3.06 3.06 0 0 0-1.32-1.09 6.5 6.5 0 0 0-2.14-.54c-.43.03-.6-.04-.5-.2.46-.07.86-.06 1.2.03.74.2 1.44.43 2.08.7.25.12.46.31.59.56l1.02 2Z" fill="#67676B"/><path d="m25.6 38.14-.04.35c0 .07-.04.1-.11.12l-.2.03a3.58 3.58 0 0 0-2.21-.8 4.37 4.37 0 0 0-1.9.02.26.26 0 0 1-.22-.04.25.25 0 0 1-.1-.18l-.24-2.32c0-.08.03-.13.1-.16l.76-.26c.75.06 1.46.24 2.14.54.57.26 1 .62 1.32 1.09.33.48.56 1.02.7 1.6Z" fill="#E8F0F8"/><path d="M34.1 34.88c.03.21.03.35 0 .4-2.28.1-3.72 1.17-4.33 3.19 0 .5-.1.41-.26-.24.4-.9 1-1.7 1.81-2.38.85-.48 1.77-.8 2.78-.97Z" fill="#67676B"/><path d="m34.1 35.29.15.58-.02 1.75a.23.23 0 0 1-.09.18.24.24 0 0 1-.2.04c-.4-.09-.8-.08-1.22.01a5.7 5.7 0 0 0-2.69.82c-.06 0-.15-.07-.26-.2.6-2.02 2.05-3.08 4.33-3.18Z" fill="#E8F0F8"/><path d="M27.9 35.98c-.18.08-.23.22-.16.44l-.16 3.5a.35.35 0 0 0-.19-.11v-1.2l.22-2.75.3.12ZM34.32 38.02a4.45 4.45 0 0 0-1.6-.17c.41-.1.82-.1 1.22 0a.24.24 0 0 0 .2-.05.23.23 0 0 0 .1-.18l.01-1.75a3.2 3.2 0 0 0 1.2 1.48.11.11 0 0 1 .06.1.1.1 0 0 1-.07.1l-1.12.47Z" fill="#798B9F"/><path d="m28.11 38.48-.53 1.44.16-3.5.08.29c.01.04.04.06.09.05.02 0 .03-.02.05-.04l.01-.06c0-.07.02-.18.07-.34.03-.1.04-.1.04 0 0 .14.1.3.1.48-.03.55-.06 1.11-.07 1.68Z" fill="#97A7B9"/><path d="M19.88 37.06c.06.13.04.33-.08.62-.06-.12-.25-.16-.55-.12.22 0 .43-.16.63-.5Z" fill="#67676B"/><path d="M19.25 37.56c.3-.04.49 0 .55.12.65.3 1.1.4 1.35.33.59-.2 1.22-.25 1.89-.18.84.03 1.57.3 2.21.8a.9.9 0 0 1 .28.42c-.02.26-.09.5-.22.72-.1.18-.24.19-.42.03-.82-.68-1.67-.77-2.72-.73-.12 0-.28.03-.48.08-.3.07-.48.1-.58.09-.08-.01-.13-.06-.14-.15l-.01-.12a.35.35 0 0 0-.1-.22.37.37 0 0 0-.24-.1c-.17-.01-.6-.02-1.26 0-.11 0-.2-.03-.25-.08a.28.28 0 0 1-.1-.25c-.08-.43 0-.68.24-.76ZM32.72 37.85c.53-.04 1.06.02 1.6.17.15.23.35.43.58.6-.4.01-.62.18-.65.49a.15.15 0 0 1-.12.13.35.35 0 0 1-.24-.03 4.6 4.6 0 0 0-3.13.46c-.21.02-.36.09-.46.19a.2.2 0 0 1-.29 0 .19.19 0 0 1-.05-.09l-.16-.69a.23.23 0 0 1 .03-.19.9.9 0 0 1 .2-.22 5.7 5.7 0 0 1 2.69-.82Z" fill="#022A4B"/><path d="M36.82 39.45c.27.5.53 1 .77 1.5.17.35.34.64.5.88.53.72.93 1.53.22 2.26l-.41.39c-.09.07-.07.1.04.08l.38-.05c-1.86.7-3.77 1.2-5.72 1.49H20.53l-.97-.15a20.9 20.9 0 0 1-2.16-1.25c-.75-.5-1.05-1.27-.58-2.06.21-.36.47-.64.76-.84a.16.16 0 0 1 .08-.03c.35-.05.83.86.83 1.18a3.3 3.3 0 0 0 1.97 1.69c1.11.38 2.22.58 3.33.6 1.55.01 2.7.02 3.48 0l2.26.05c1.53.04 3.16-.14 4.88-.53.98-.22 2.13-.6 2.26-1.73.07-.58.2-1.13.4-1.67.03-.08-.11-.26-.2-.18a2.47 2.47 0 0 1-.38.78c-.04.06-.1.08-.16.04-.74-.34-1.4-.79-1.99-1.35a.16.16 0 0 1-.04-.18c.26-.76.79-1.25 1.6-1.46a.3.3 0 0 0 .15-.12c.1-.14.16-.3.18-.46.08-.1.1-.25.06-.43v.96c0 .07.02.13.07.17l.46.42Z" fill="#D1DAE7"/><path d="M27.4 38.61v1.2a2.84 2.84 0 0 1-1.87-.76.9.9 0 0 0-.28-.41l.2-.03c.07-.01.1-.05.1-.12l.05-.35.09.16c.03.06.05.06.07-.01l.07-.3 1.57.62Z" fill="#97A7B9"/><path d="M29.5 38.23c.17.65.26.73.27.24.11.13.2.2.26.2a.9.9 0 0 0-.2.22.23.23 0 0 0-.03.2l.16.68.05.1a.2.2 0 0 0 .2.04.2.2 0 0 0 .09-.05c.1-.1.25-.17.46-.19-.37.21-.55.4-.54.57.01.46 0 .92-.03 1.38a.75.75 0 0 0-.2-.35.6.6 0 0 0-.36-.15 5.36 5.36 0 0 1-1.54-.42.2.2 0 0 0-.22.04l-.06.06c-.06.06-.1.05-.1-.03l-.13-.85.53-1.44c.45.38.91.3 1.4-.25Z" fill="#798B9F"/><path d="M19 38.32c0 .1.03.19.1.25.06.05.15.07.26.07l1.26.01c.09 0 .17.04.23.1.06.06.1.14.11.22l.01.12c.01.09.06.14.14.15.1.01.29-.02.58-.1.2-.04.36-.07.48-.07 1.05-.04 1.9.05 2.72.73l.36 2.29.08.52c.06.57.07.96 0 1.17-.07.32-.36.49-.86.51-.07 0-.11-.02-.13-.08 0-.03-.03-.05-.06-.06h-.05a.06.06 0 0 0-.03.03l-.13.21a.18.18 0 0 1-.17.09c-.93-.1-1.57-.76-1.85-1.63a.16.16 0 0 0-.14-.12.52.52 0 0 0-.45.14.5.5 0 0 1-.19.1c-2.1.66-1.37.2-2.25.02-.17-.14-.35-.18-.53-.14 0-.35-.73-1.9-1.67-.31-.47.79-.17 1.57.58 2.06.79.51 1.5.93 2.16 1.25-1.76-.42-4.02-1.33-3.07-3.53.16-.36.54-.91 1.16-1.64.24-.29.69-1.08 1.35-2.36Z" fill="#E8F0F8"/><path d="M36.23 38.33c-.02.17-.08.32-.18.46a.3.3 0 0 1-.16.12c-.8.21-1.33.7-1.6 1.46-.01.07 0 .13.05.18a7.32 7.32 0 0 0 1.99 1.35c.07.04.12.02.16-.04a2.47 2.47 0 0 0 .38-.78.08.08 0 0 1 .11 0l.07.07c.03.03.04.07.02.1-.2.55-.33 1.1-.4 1.68-.13 1.12-1.28 1.51-2.26 1.73-1.72.39-3.35.57-4.88.53l-2.26-.04c-.77 0-1.93 0-3.48-.02a10.51 10.51 0 0 1-3.33-.6 3.3 3.3 0 0 1-1.97-1.68c.18-.04.36 0 .53.14-.15.18-.17.34-.07.48.07.1.2.16.38.19 1.27.22 2.55.52 3.84.88.57.15 1.04.21 1.43.18 2.1-.2 3.56-.3 5.46 0a5.1 5.1 0 0 0 2 0c.68-.16 1.57-.4 2.66-.74.46-.14.9-.34 1.32-.61.32-.21.3-.32-.1-.33-.9-.01-1.63-.3-2.22-.87-.05-.05-.1-.05-.15.01l-.27.39c.39-1.15.58-2.27.59-3.36.08.04.16.05.24.03a.15.15 0 0 0 .12-.13c.03-.31.25-.48.65-.5l1.33-.28Z" fill="#97A7B9"/><path d="M27.4 39.8c.07.02.13.06.18.12l.12.85c.01.08.05.09.11.03l.06-.06a.2.2 0 0 1 .22-.04c.48.22.99.36 1.54.42a.6.6 0 0 1 .35.15c.1.09.17.2.2.35-.02 0-.05.04-.07.1a.76.76 0 0 0-.07-.31c-.04-.07-.1-.1-.17-.09-.7.06-1.33.05-1.91-.05a.79.79 0 0 1-.46-.27c-.05-.06-.08-.05-.1.02l-.07.4c-.01.04-.03.07-.07.1a.17.17 0 0 1-.11.03l-1.74-.16c-.07 0-.1.02-.12.09-.05.2-.06.4-.04.6l-.36-2.28c.18.16.32.15.42-.03.13-.22.2-.46.22-.72.53.48 1.15.73 1.86.76Z" fill="#616F81"/><path d="m38.32 44.5-.38.06c-.11.02-.13 0-.04-.08l.41-.4c.71-.72.31-1.53-.21-2.25a5.88 5.88 0 0 1-.5-.87c-.25-.51-.51-1.01-.78-1.5a8.6 8.6 0 0 1 2.05 2.4c.61 1.05.43 1.94-.55 2.65Z" fill="#E8F0F8"/><path d="m30.11 41.73-.23 1.07-.18.6c-.02.07-.07.1-.15.1a19.23 19.23 0 0 0-3.83-.08c-.07 0-.12-.03-.15-.1l-.24-.71-.08-.52c-.02-.21-.01-.42.04-.61.01-.07.05-.1.12-.09l1.74.16c.04 0 .08-.01.11-.03a.16.16 0 0 0 .07-.1l.08-.4c.01-.07.04-.08.09-.02.14.16.3.25.46.27.58.1 1.22.11 1.91.05.08 0 .13.02.17.09.04.09.07.2.07.32Z" fill="#37383C"/><path d="M19.02 43c.88.16.14.63 2.25-.02a.5.5 0 0 0 .19-.1.52.52 0 0 1 .45-.15c.07.01.12.05.14.12.28.87.92 1.53 1.85 1.63.03 0 .07 0 .1-.02a.18.18 0 0 0 .07-.07l.13-.21c0-.02.02-.03.03-.03h.05c.03.01.05.03.06.06.02.06.06.09.13.08.5-.02.79-.2.87-.5.06-.22.05-.61-.01-1.18l.24.72c.03.06.08.1.15.09 1.28-.1 2.56-.08 3.83.08.08 0 .13-.03.15-.1l.18-.6c0 .3.02.61.05.9.03.31.18.47.47.46a5.99 5.99 0 0 0 1.38-.12c.03 0 .06.02.09.04.15.11.32.1.5-.02l.4-.27c.13-.1.23-.21.28-.36.12-.3.2-.58.25-.86l.27-.39c.05-.06.1-.06.15-.01.59.57 1.33.86 2.22.87.4 0 .42.12.1.33-.42.27-.86.47-1.31.61-1.1.34-1.99.58-2.68.73a5.1 5.1 0 0 1-2 0c-1.9-.28-3.35-.2-5.45 0-.39.04-.86-.02-1.43-.18a42.1 42.1 0 0 0-3.84-.87c-.18-.03-.3-.1-.38-.19-.1-.14-.08-.3.07-.48Z" fill="#67676B"/><path d="M25.57 17.38c.44.2.94.07 1.1-.28.17-.36-.06-.8-.51-1-.45-.2-.94-.07-1.1.28-.17.35.06.8.5 1Z" fill="#FEFEFE"/><path d="M30.4 17.33c.39-.3.53-.75.3-1.03-.2-.28-.7-.27-1.1.03-.38.29-.52.75-.3 1.03.21.28.7.26 1.1-.03Z" fill="#F3F3F6"/><path d="M24.68 18.18c.14.04.28-.03.3-.14.03-.11-.06-.23-.2-.27-.13-.03-.27.04-.3.15-.03.11.06.23.2.26Z" fill="#FECB8F"/><path d="M31.1 18.29c.12.07.27.05.34-.05.07-.11.03-.26-.1-.34-.12-.07-.28-.05-.35.05-.07.1-.02.26.1.34Z" fill="#F5EDE9"/><path d="m28.32 20.41-.55.04c-.46-.19-.78-.5-.95-.93a.3.3 0 0 1 0-.2c.05-.19.2-.32.45-.4.48-.15.93-.15 1.37 0 .32.1.5.27.56.5.1.43-.51.85-.88.99Z" fill="#070407"/><path d="M28.32 20.41a.64.64 0 0 0-.2.51c.03.43.51.55.85.65.4.1.76 0 1.1-.31.14-.15.17-.13.07.05-.38.73-1.55.45-2.1.13a.2.2 0 0 0-.2-.01c-.8.4-1.72.41-2.16-.46v-.02l.05-.04c.03-.03.05-.03.08 0 .3.45.74.64 1.28.6.6-.05.82-.4.68-1.06l.55-.04Z" fill="#040E1C"/><path d="M26.77 30.42h.18c.07.04.08.1.03.17-.05.09-.08.28-.09.56 0 .03-.01.05-.04.07a.12.12 0 0 1-.12 0 .08.08 0 0 1-.04-.07 1.32 1.32 0 0 0-.13-.55c-.04-.07-.03-.12.04-.16a.54.54 0 0 1 .17-.02ZM25.16 31a.62.62 0 0 0-.2.2c0 .02-.03.03-.05.02l-.06-.04c-.05-.03-.06-.06-.03-.1l.32-.56a.17.17 0 0 1 .14-.08.17.17 0 0 1 .14.06 1.66 1.66 0 0 1 .3.67.07.07 0 0 1-.05.05h-.04c-.08-.02-.17-.08-.27-.2-.06-.06-.13-.07-.2-.02ZM25.95 31.16c.07-.1.03-.27-.11-.5a.12.12 0 0 1 .03-.16.43.43 0 0 1 .22-.06c.08 0 .11.04.11.11 0 .2.02.37.08.54.03.08 0 .13-.09.14l-.18.01c-.08.01-.1-.02-.06-.08Z" fill="#D1DAE7"/><path d="M27.67 30.68a.62.62 0 0 0-.02.5c.02.06 0 .1-.08.12-.18.04-.3-.08-.36-.35a.7.7 0 0 1-.02-.19c0-.06.02-.11.03-.16a.29.29 0 0 1 .08-.12.17.17 0 0 1 .1-.04h.37l.03.04a.07.07 0 0 1-.02.08l-.08.07a.24.24 0 0 0-.03.05ZM30.27 31.02l.04.13c-.22.11-.39.1-.5-.06-.03-.05-.08-.06-.14-.03a1 1 0 0 0-.12.08.34.34 0 0 1-.12.08c-.34.08-.55-.01-.65-.29-.04-.09-.07-.1-.11-.01l-.04.22a.1.1 0 0 1-.06.08.1.1 0 0 1-.09 0 .24.24 0 0 1-.09-.07 4.08 4.08 0 0 1-.05-.37c.02-.16 0-.16-.07-.01a.38.38 0 0 0 0 .28c.02.08-.01.13-.1.13l-.1.01c-.04 0-.06-.01-.07-.05l-.05-.5c0-.1.03-.15.12-.18.26-.07.45-.04.6.08.05.04.11.05.18.02.42-.19.73-.1.91.25.07.12.1.13.09 0 0-.12.02-.23.08-.3a.1.1 0 0 1 .05-.04.1.1 0 0 1 .06 0l.06.02c.07.03.1.08.08.14-.05.17-.02.3.09.4Z" fill="#97A7B9"/><path d="m30.3 31.15-.03-.13c.1-.1.1-.22.04-.37-.04-.1-.01-.15.1-.16l.3-.03c.16-.01.27.06.3.22.07.24.03.4-.11.47a.6.6 0 0 1-.6 0Z" fill="#D1DAE7"/><path d="m36.16 32.66-.6.06c-.06 0-.07-.02-.04-.07l.18-.31c.04-.07.1-.1.19-.1.17.02.29.12.34.32a.08.08 0 0 1-.04.1.08.08 0 0 1-.03 0Z" fill="#F3F3F6"/><path d="m37.63 33.96-.8.78a.18.18 0 0 0-.05.18c.01.04.03.06.06.08.02.02.06.04.09.04.11.01.23-.01.36-.07.19.4.2.6 0 .59-.34.47-.73.62-1.16.46-.28-.2-.64-.26-1.06-.18a.15.15 0 0 1-.16-.06l-.23-.3c-.18-.64-.04-1.26.42-1.87.06-.07.12-.09.2-.07.06.02.12.02.19 0a2.8 2.8 0 0 1 1.65-.08c.16.05.32.21.5.5Z" fill="#355B9C"/><path d="M37.84 34.16c-.06.48-.25.75-.55.81a.69.69 0 0 1-.36.07.18.18 0 0 1-.1-.04.17.17 0 0 1-.06-.17l.05-.09.81-.78c.07-.02.12 0 .16.05.05.06.07.1.05.15Z" fill="#D1DAE7"/><path d="M37.9 35.8c-.1-.04-.16-.06-.19-.05-.06.02-.1.08-.12.17 0-.15-.1-.27-.3-.36.2 0 .19-.2 0-.59.3-.06.49-.33.55-.81.24.66.26 1.2.06 1.64Z" fill="#37383C"/><path d="M36.13 36.02c-.06.25-.06.54 0 .88a.15.15 0 0 1-.06.15.16.16 0 0 1-.18 0c-.58-.34-.99-.87-1.21-1.58l.23.31c.04.06.09.08.16.06.42-.08.78-.02 1.06.18Z" fill="#164A6D"/><path d="M37.9 35.8c-.26.5-.67.78-1.24.85-.07.01-.1-.02-.12-.09l-.01-.14c-.01-.09.03-.13.12-.12.35.03.67-.1.94-.38.02-.1.06-.15.12-.17.03 0 .1 0 .19.05Z" fill="#67676B"/><path d="M27.87 35.45a.15.15 0 0 0-.1-.12.15.15 0 0 0-.15.02.2.2 0 0 0-.06.11c-.02.07-.06.09-.13.06-.39-.17-.56-.4-.52-.68.01-.1-.03-.15-.13-.17-.35-.04-.55-.29-.62-.74 0-.08.02-.1.1-.08.26.1.57.11.92.06a.18.18 0 0 0 .13-.1.18.18 0 0 0 .01-.15 1.6 1.6 0 0 0-.71-.77c-.2-.12-.2-.21.04-.27l.31-.08c.25-.07.46 0 .64.17l.54.52c.05.05.06.1.04.17a.94.94 0 0 0-.04.52.08.08 0 0 0 .05.05.07.07 0 0 0 .07 0l.21-.16c.1-.08.13-.06.1.06a1 1 0 0 0-.05.43c.02.17.02.3-.01.38-.11.37-.21.67-.3.9-.04.1-.1.15-.2.15a.11.11 0 0 1-.08-.02.1.1 0 0 1-.04-.07l-.02-.2Z" fill="#699DBE"/><path d="M19.29 35.15c.13 0 .24-.06.24-.12 0-.07-.1-.13-.24-.13-.14 0-.24.06-.25.12 0 .07.11.13.25.13Z" fill="#D1DAE7"/><path d="m35.15 43.55-2.08.37a.05.05 0 0 0-.05.06V44c.01.03.04.05.07.05l2.08-.37c.03 0 .05-.04.05-.07a.06.06 0 0 0-.07-.05Z" fill="#616F81"/><path d="M29.08 30.94c-.02-.08-.02-.14 0-.17a.14.14 0 0 1 .05-.06.12.12 0 0 1 .07-.02c.16.01.25.05.26.1.01.05 0 .1-.02.15a.25.25 0 0 1-.13.1c-.13.05-.21.02-.23-.1ZM30.54 30.66a.15.15 0 0 1 .16-.02c.11.05.14.16.06.32a.1.1 0 0 1-.05.05.1.1 0 0 1-.07 0c-.24-.1-.27-.21-.1-.35Z" fill="#022A4B"/><path d="M37.06 33.94a2.6 2.6 0 0 0-1.32.51.17.17 0 0 1-.24-.04.16.16 0 0 1-.03-.08c-.01-.34.12-.56.41-.65.36-.12.72-.14 1.09-.07.13.03.2.1.2.2 0 .09-.03.13-.11.13Z" fill="#040E1C"/></svg>