<svg width="224" height="224" viewBox="0 0 56 56" xmlns="http://www.w3.org/2000/svg"><path fill-rule="evenodd" d="M28 46c8.84 0 16-8.06 16-18s-7.16-18-16-18-16 8.06-16 18 7.16 18 16 18Zm0-2c7.73 0 14-7.16 14-16s-6.27-16-14-16-14 7.16-14 16 6.27 16 14 16Z" fill="#1244AB"/><ellipse cx="28" cy="28" rx="13" ry="15" fill="#E2EAF7"/><path d="m34.53 21.76-.78-2.12a.37.37 0 0 0-.26-.25l-1.95-.59a1.58 1.58 0 0 0-1.6.54 4.66 4.66 0 0 0-.74 4.08c-.12.01-.2-.06-.22-.21a4.55 4.55 0 0 1 1.09-4.26c.35-.38.97-.52 1.52-.35l2.23.7a.27.27 0 0 0 .25-.05.3.3 0 0 0 .09-.1.33.33 0 0 0 .03-.14v-.12a.38.38 0 0 0-.04-.2.34.34 0 0 0-.14-.13c-.87-.45-1.7-.96-2.5-1.53a3.58 3.58 0 0 0-1.75-.65 6.79 6.79 0 0 1-1.6-.1c-.14-.03-.24.02-.3.15-.1.17-.28.3-.56.36l-.64.17c-2.52 1.15-3.98 3.2-4.37 6.17-.02.15.04.24.18.25.68.09 1.3.37 1.84.86.03.02.05.05.04.08a.1.1 0 0 1-.05.05c-.03.02-.06.01-.1 0a4.62 4.62 0 0 0-2.3-.45c.11-.5.22-1.01.3-1.51.12-.66.24-1.16.36-1.5 1.18-3.4 4.16-5.35 7.57-4.82.5.07 1.13.38 1.9.91.32.23 1 .63 2.02 1.22.08.05.22.27.4.67.06.13.02.23-.1.29-.2.08-.31.21-.36.38a.54.54 0 0 0 .06.4c.32.58.48 1.18.48 1.8Z" fill="#074980"/><path d="M29.2 23.42c-.01.14-.03.19-.06.14.3 1.04.8 1.94 1.52 2.69.04.04.07.08.1.14a.45.45 0 0 1 0 .33.4.4 0 0 1-.1.14 5 5 0 0 0-1.37 3.97l-.04.83c-.06.24.08.48.43.7.52.35 1.5.74 2.92 1.18.16.05.31.06.44.02.2-.06.34-.13.41-.2.47-.56.59-.48.36.22-.03.1-.21.32-.55.66-2.4-.6-4.78-1.23-7.18-1.9a4.2 4.2 0 0 1-1.32-.55 16.3 16.3 0 0 1-1.28-1.08.47.47 0 0 1-.13-.2.5.5 0 0 1 0-.25.47.47 0 0 1 .1-.22.4.4 0 0 1 .2-.12c.38-.11.66-.37.84-.78.11-.27.07-.3-.13-.1-.77.77-1.66.85-2.65.25-.27-.17-.59-.77-.95-1.82-.3-.53-.3-1.06-.01-1.58l1.14-1.97c.85-.04 1.62.1 2.3.44.05.02.08.03.1.01a.1.1 0 0 0 .06-.05c0-.03 0-.06-.04-.08a3.3 3.3 0 0 0-1.84-.86c-.14-.01-.2-.1-.18-.25.39-2.96 1.85-5.02 4.37-6.17l.64-.17c.28-.07.46-.19.55-.36.07-.13.17-.18.3-.16.5.1 1.03.14 1.6.11.49-.02 1.3.32 1.77.65.8.57 1.62 1.08 2.49 1.53.06.03.1.08.14.13.03.06.05.13.05.2l-.01.12c0 .05-.01.1-.03.13a.3.3 0 0 1-.09.11.28.28 0 0 1-.25.05l-2.23-.7a1.49 1.49 0 0 0-1.52.35 4.55 4.55 0 0 0-1.1 4.26c.04.15.11.22.23.21Z" fill="#0089FA"/><path d="m34.53 21.76-.01.07c-.13.42-.11.83.05 1.2l.04.07c-.31.13-.61.6-.5.98-.2.54-.14.85.17.95-.07.2.01.37.26.47.45.64.64 1.4.56 2.3a.49.49 0 0 1-.16.35c-.32.27-.6.47-.58.98.02.35.18.58.48.7-.01.2-.1.3-.3.3l-4.04-.01c-.16 0-.2.07-.12.22l.11.2a.2.2 0 0 0 .08.09l.1.02c1.26-.1 2.53-.16 3.81-.19.05 0 .1-.02.16-.07a.59.59 0 0 0 .11-.12c.24.02.34.17.31.43a3.69 3.69 0 0 1-.62 1.69.52.52 0 0 1-.29.22c-.25.07-.45.18-.6.32-.5.44-.71.38-1.33.2a7.35 7.35 0 0 1-2.97-1.47l.04-.83c.17-.67.32-1.32.44-1.95a2.7 2.7 0 0 1 1.03-1.76c.1-.08.15-.19.14-.33-.04-.5-.25-.92-.62-1.24a.42.42 0 0 1-.11-.14l-1.03-1.85c.03.05.05 0 .06-.14a4.66 4.66 0 0 1 .74-4.08c.34-.46 1.06-.7 1.6-.54l1.95.6c.13.02.21.1.26.24l.78 2.12Z" fill="#F38F5F"/><path d="M34.52 21.83c.17.37.19.78.05 1.2a1.78 1.78 0 0 1-.05-1.2Z" fill="#021114"/><path d="M34.61 23.1c.54.1.8.6.75 1.47 0 .07-.02.15-.04.22l-.25.84c-.14-.14-.32-.19-.53-.13-.25-.1-.33-.26-.26-.47.4-.68.34-1-.17-.95-.08-.27-.15-.98.5-.98Z" fill="#FEFFFF"/><path d="m29.14 23.56 1.03 1.86c.03.05.06.1.11.13.37.32.58.74.62 1.24a.35.35 0 0 1-.14.33c-.55.4-.9.99-1.03 1.76-.12.63-.27 1.28-.44 1.95a5 5 0 0 1 1.37-3.97.41.41 0 0 0 .1-.14.45.45 0 0 0-.1-.47 6.21 6.21 0 0 1-1.52-2.7Z" fill="#041534"/><path d="m21.9 23.92-1.15 1.97c.01-1.03.4-1.68 1.14-1.97Z" fill="#074980"/><path d="M34.28 25.03c-.3-.1-.36-.41-.17-.95.5-.05.56.27.17.95Z" fill="#021114"/><path d="M35.07 25.63c0 .58.1 1.15.26 1.71l.1.5c.03.22.14.38.3.49.08.05.14.11.18.2.05.07.08.16.09.26a.82.82 0 0 1-.17.58l-.7.94c-.14.04-.24-.12-.3-.48-.29-.12-.45-.35-.47-.7-.02-.5.26-.7.58-.98.1-.09.15-.2.16-.35.08-.9-.11-1.66-.56-2.3.21-.06.39-.01.53.13Z" fill="#50241A"/><path d="m33.26 34.24.2.11v.22l-2.18-.52c-2.52-.37-5-1.04-7.42-2.03l-.2-.1.04-.1v-.06l-.77-1.72a.39.39 0 0 0-.3-.22c-1.16-.23-1.79-1.01-1.87-2.35.36 1.05.68 1.65.95 1.82 1 .6 1.88.52 2.65-.25.2-.2.24-.17.13.1-.18.4-.46.67-.85.78a.4.4 0 0 0-.19.12.47.47 0 0 0-.1.22.5.5 0 0 0 0 .24c.03.08.07.15.13.2.44.41.86.78 1.28 1.09.24.18.68.37 1.32.54 2.4.68 4.79 1.31 7.18 1.91Z" fill="#021114"/><path d="M35.14 30.3a2.88 2.88 0 0 1-.94 2.67c-.07.06-.08.13-.04.21l.07.12c.04.09.03.17-.03.24l-.74.81-.2-.1c.34-.35.52-.57.55-.67.23-.7.1-.78-.36-.23-.07.08-.2.15-.4.21a.74.74 0 0 1-.45-.02c-1.43-.44-2.4-.83-2.92-1.18-.35-.22-.49-.46-.43-.7a7.35 7.35 0 0 0 2.97 1.48c.62.17.82.23 1.32-.2.16-.15.36-.26.61-.33a.52.52 0 0 0 .3-.22c.34-.52.55-1.08.61-1.69.03-.26-.07-.4-.3-.43-.01-.1-.08-.15-.21-.15.18.01.28-.08.29-.3.05.37.15.53.3.49Z" fill="#074980"/><path d="M34.55 30.12c.13 0 .2.05.2.15a.59.59 0 0 1-.11.12.26.26 0 0 1-.16.07c-1.28.03-2.55.1-3.8.19-.04 0-.08 0-.11-.02a.2.2 0 0 1-.08-.09l-.1-.2c-.09-.15-.05-.22.11-.22h4.05Z" fill="#50241A"/><path d="m23.65 31.92.21.1c-.28.21-.45.53-.5.97-.03.14.01.26.11.35.06.05.17.11.33.2.26.11.27.2.05.23a.64.64 0 0 1-.27-.03c-.12-.03-.19.01-.21.14v.14c0 .03 0 .06.02.08 0 .02.03.04.05.06a.13.13 0 0 0 .14 0c.14-.1.33-.18.58-.26a.83.83 0 0 1 .52.04c.5.18 1.81.58 3.92 1.2.4.13 1.07.26 2 .42.69.1 1.36.28 2.02.53-2.1-.04-3.68-.32-4.75-.84-.75-.36-1.36-.46-1.84-.29l-1.57-.62c-.2-.07-.47-.01-.85.18a.88.88 0 0 0-.39.37c-.14.24-.08.39.19.42 1.5.22 2.74.82 3.72 1.8.25.26.4.56.46.9-.43-.32-.68-.82-1.06-1.12a5.57 5.57 0 0 0-2.06-1.03c-.14-.03-.25.02-.33.14-.17.25-.36.43-.57.53a1.9 1.9 0 0 0-.7.71c-.2.32-.55.91-1.05 1.78a.85.85 0 0 0-.08.22c-.1.5-.35.94-.74 1.31.02-1.01.18-1.74.5-2.18A9.78 9.78 0 0 0 23.37 36c.05-.1.06-.16.02-.22-.08-.1-.17-.13-.28-.07-.2.12-.4.18-.6.18a4.9 4.9 0 0 0 .58-3.41c-.05-.33.14-.52.55-.56Z" fill="#074980"/><path d="M23.86 32.02c2.42.99 4.9 1.66 7.42 2.03.03.22-.05.3-.24.25H31a.05.05 0 0 0-.03.04v.04l.03.04c.9.55 1.87.83 2.93.82.08 0 .15.04.2.12.03.03.05.07.06.1.03.11 0 .18-.1.2l-1.47.43c-.66-.25-1.33-.42-2.01-.53a18.2 18.2 0 0 1-2.01-.41c-2.11-.63-3.42-1.03-3.92-1.2a.83.83 0 0 0-.52-.05c-.25.08-.44.16-.58.25a.13.13 0 0 1-.14 0 .15.15 0 0 1-.05-.05.16.16 0 0 1-.02-.08v-.14c.02-.13.1-.17.2-.14.12.03.21.04.28.03.22-.04.2-.12-.05-.24a1.79 1.79 0 0 1-.33-.2.36.36 0 0 1-.12-.34c.06-.44.23-.76.51-.97Z" fill="#0089FA"/><path d="M33.47 34.57c.4.02.71.17.95.45.1.1.13.22.12.37-.03.5-.32.76-.86.79-.24-.17-.5.2-.79 1.07-.04.13 0 .21.12.25l.15.02c-.12.01-.23.1-.33.25a.4.4 0 0 0-.04-.1v-.01a.03.03 0 0 0-.04 0l-.01.01c-.3.67-.65 1.04-1.03 1.13-.39-.3-.78-.29-1.18.02a.32.32 0 0 0-.26.03l-.72-.2a7.64 7.64 0 0 0-1.3-2.12c-.44-.54-.8-.8-1.09-.8l-1.13-.77c.48-.17 1.1-.07 1.84.29 1.07.52 2.66.8 4.75.84l1.47-.43c.1-.02.13-.09.1-.2a.44.44 0 0 0-.05-.1.24.24 0 0 0-.21-.12 5.38 5.38 0 0 1-2.96-.86v-.04c0-.02.02-.03.03-.03h.04c.19.04.27-.04.24-.26l2.19.52Z" fill="#006BCE"/><path d="m26.03 34.96 1.13.77c.58.52 1.07 1.08 1.49 1.67.04.06.14.3.3.7.1.28.3.46.6.55l.72.2c-.44.45-.63.87-.6 1.27a.8.8 0 0 1 0 .35.62.62 0 0 0-.13.56l.37.64c.44.3.7.65.77 1.02-1.57.35-3.11.4-4.64.15-.22-.14-.27-.32-.14-.54.3-.48.32-.88.06-1.2.33-.37.41-.81.25-1.33.44-.37.9-.67 1.38-.88.14-.06.24-.14.28-.24.09-.19.05-.34-.12-.45l-.16-.2c-.05-.33-.2-.63-.46-.88-.98-1-2.23-1.6-3.72-1.8-.27-.04-.33-.19-.19-.43.1-.17.23-.3.39-.37.38-.2.66-.25.85-.18l1.57.62Z" fill="#48D3FC"/><path d="M21.5 38.37c.06-.9.4-1.72 1.02-2.48.2 0 .4-.06.6-.18.1-.06.2-.04.28.07.04.06.03.13-.02.22a9.78 9.78 0 0 1-1.89 2.37Z" fill="#006BCE"/><path d="M29.55 38.65a.9.9 0 0 1-.6-.55c-.16-.4-.26-.64-.3-.7-.42-.6-.91-1.15-1.49-1.67.29 0 .65.26 1.09.8.65.81 1.08 1.52 1.3 2.12Z" fill="#074980"/><path d="m27.6 38 .15.2a1.4 1.4 0 0 1-.67.7 7.42 7.42 0 0 0-3.23 2.93c-.09.02-.16.23-.22.39-1.09-.57-1.75-.85-2.67-1.63l.04-.04c.4-.37.64-.8.74-1.3a.85.85 0 0 1 .08-.23c.5-.87.85-1.46 1.06-1.78.23-.36.46-.6.7-.71.2-.1.39-.28.56-.53.08-.12.19-.17.33-.14.75.2 1.44.54 2.06 1.03.38.3.63.8 1.06 1.12Z" fill="#0089FA"/><path d="m33.68 36.18-.39 1.26-.13.08-.15-.02c-.12-.04-.16-.12-.12-.25.28-.88.55-1.24.79-1.07Z" fill="#074980"/><path d="M33.3 37.44a.77.77 0 0 0 0 .34c-.09.02-.15.06-.18.11s-.02.1 0 .19c.12.27.25.52.42.76.29.77.32 1.57.11 2.4-.36.48-.81.72-1.33.7.02-.44.15-.76.4-.97a.49.49 0 0 0 .15-.29.52.52 0 0 0-.05-.32l-.64-1.2a.35.35 0 0 1 .01-.38l.64-1.01c.1-.16.21-.24.33-.25l.13-.08Z" fill="#48D3FC"/><path d="m32.83 37.77-.64 1.01a.35.35 0 0 0 0 .38l.63 1.2c.05.1.07.21.05.32a.49.49 0 0 1-.16.29c-.24.2-.37.53-.4.97l-.78.37c-.2-.11-.14-.29.19-.52.39-.27.49-.67.83-1 .1-.1.1-.2.04-.33l-.88-1.66c.38-.09.72-.46 1.03-1.13l.01-.01a.03.03 0 0 1 .03 0h.01a.4.4 0 0 1 .04.1Z" fill="#999D60"/><path d="M33.3 37.78c.2.22.29.58.24 1.06-.17-.24-.3-.5-.41-.76-.03-.08-.04-.14 0-.19.02-.05.08-.09.16-.1ZM26.21 39.77c-.68.54-1.3 1.17-1.85 1.9-.29.38-.45.43-.5.16a7.42 7.42 0 0 1 3.22-2.93c.3-.14.52-.38.67-.7.17.11.2.26.12.45-.04.1-.14.18-.28.24-.48.21-.94.5-1.38.88Z" fill="#041534"/><path d="m31.7 38.8.9 1.66c.06.12.04.23-.05.32-.34.34-.44.74-.83 1.01-.33.23-.39.4-.19.52-.2.09-.43.14-.71.14-.04-.64-.34-.9-.91-.78l-.37-.64a2.85 2.85 0 0 1 1.82-.35c.04 0 .06-.02.07-.06l.03-.13c0-.04 0-.06-.04-.06a3.72 3.72 0 0 0-1.74.04.8.8 0 0 0 0-.36l.85-1.3c.4-.3.8-.3 1.18-.01Z" fill="#FFEA8E"/><path d="m30.53 38.82-.86 1.3c-.03-.4.16-.82.6-1.27a.32.32 0 0 1 .26-.03Z" fill="#50241A"/><path d="M26.21 39.77c.16.52.08.96-.25 1.34-.24.23-.36.85-.35 1.7-.8-.15-1.2-.28-2-.6.05-.15.15-.36.24-.38.06.27.22.22.5-.15.57-.74 1.18-1.37 1.86-1.91Z" fill="#006BCE"/><path d="M29.54 41.03c-.04-.21 0-.4.14-.56a3.72 3.72 0 0 1 1.74-.04c.03 0 .05.02.04.06l-.03.13c0 .04-.03.06-.07.06a2.85 2.85 0 0 0-1.82.35Z" fill="#999D60"/><path d="M25.96 41.1c.26.32.24.72-.06 1.2-.13.22-.08.4.14.54-.22.16-.36.12-.43-.1 0-.86.1-1.4.35-1.63Z" fill="#074980"/><path d="M30.82 42.45c-.11.1-.16.18-.14.24-.07-.37-.33-.71-.77-1.02.57-.12.87.14.9.78Z" fill="#9A9A9A"/><path d="m23.55 25.16.25.53-.05.5c-.2.4-.2.86.04 1.38 0 .08 0 .16.03.26-.17.2-.52.29-1.04.25-.81-.24-1.12-.86-.92-1.85.2-1 .76-1.36 1.7-1.07Z" fill="#F38F5F"/><path d="m23.8 25.69-.25-.53c.15.04.27.14.33.3.07.15.04.22-.08.23ZM23.75 26.18l.04 1.39c-.23-.52-.24-.98-.04-1.39Z" fill="#074980"/><path d="M22.78 28.08c.52.04.87-.05 1.04-.25-.17.46-.52.54-1.04.25Z" fill="#041534"/><path d="M31.54 25.66c.59-.27.55-1.36-.04-1.55 0-.4.31-.67.94-.8.3-.06.5.06.61.37.37 1.05.21 1.83-.46 2.34a.8.8 0 0 1-.57.17c-.3-.02-.46-.2-.48-.53Z" fill="#FEFFFF"/><path d="M31.5 24.11c.59.2.63 1.28.04 1.55-.25-.06-.4-.28-.44-.68-.04-.42.1-.71.4-.87Z" fill="#021114"/></svg>