<svg width="224" height="224" viewBox="0 0 56 56" xmlns="http://www.w3.org/2000/svg"><path d="M29.73 13.98h.01l.01.01v.03c-1.07.6-2.17.92-3.35.52l-.02-.02a.05.05 0 0 1 0-.05c0-.01 0-.02.02-.02.51-.18.72-.52.63-1a.11.11 0 0 0-.02-.06.12.12 0 0 0-.05-.03c-.34-.15-.79.16-1.06.24a.3.3 0 0 1-.22-.02.27.27 0 0 1-.09-.08.25.25 0 0 1-.04-.1l-.18-.83a.11.11 0 0 0-.02-.05.12.12 0 0 0-.05-.03l-.19-.09a.1.1 0 0 1-.05-.05.08.08 0 0 1 0-.07l.23-.43a.1.1 0 0 0 0-.1c-.26-.43-.33-.9-.19-1.38a.15.15 0 0 0 0-.1c-.36-.77.26-1.03.96-1.06.17-.01.37-.05.6-.1.99-.28 2.11-.03 2.52.93.12.28.07.77.15 1.08a.3.3 0 0 0 .11.17c.06.04.13.06.2.06.89 0 1.08.75.91 1.43-.22.92-1.2 1.2-2.07.82h-.01l-.01.01v.03c.36.26.78.37 1.27.34ZM39.81 29.66l1.52-.07c.1.03.14-.03.14-.17v-1.44c.2-.21.2-.45.26-.66l.27-.84c.18-.33.32-.54.44-.61.36-.22.7-.2 1 .07a2.66 2.66 0 0 1 .41 1.16c0-.07.05-.16.05-.2 0-.2-.05-.46-.14-.77a.36.36 0 0 0-.1-.15 2.15 2.15 0 0 0-.6-.45c-.12-.03-.17-.05-.13-.07a.3.3 0 0 1 .1-.04c.23.06.42.17.59.32l.03.02h.03l.02-.03v-.03a1.22 1.22 0 0 0-.53-.62 2.79 2.79 0 0 0-1.7-.43c-.53.06-.93.08-1.2.07a.07.07 0 0 0 .01-.06c0-.02-.02-.04-.04-.05a5.7 5.7 0 0 0-.78-.34c-1.37-.47-2.53-.9-3.87-1.13a4.37 4.37 0 0 0-3.52.86 254.78 254.78 0 0 0-.9.67l-.02-.01a.04.04 0 0 1 0-.06c.2-.24.36-.5.46-.8a.14.14 0 0 0-.03-.14c-.1-.1-.14-.26-.1-.46a.1.1 0 0 1 .03-.07.11.11 0 0 1 .07-.02h1.51l.01-.02v-.04a.03.03 0 0 0-.03-.03l-1.47-.1c-.04-.01-.08 0-.12.02a.17.17 0 0 0-.07.1 3.7 3.7 0 0 1-.47 1.1h-.04a.05.05 0 0 1-.03-.03v-.04l.03-.12a8.3 8.3 0 0 0-.45-2.14.23.23 0 0 1 .06-.27c.63-.6 1.15-1.08 1.64-1.78a119.86 119.86 0 0 1 .72-1l.16-.15a.07.07 0 0 0 .01-.09c-.05-.1-.15-.22-.28-.4-.5-.65-.91-1.19-1.26-1.6a2.04 2.04 0 0 0-.38-.35.14.14 0 0 0-.2.03.12.12 0 0 0-.02.06l-.01.19-.01.02a.04.04 0 0 1-.05 0l-.01-.02a.8.8 0 0 0-.13-.3c-.3-.47-.32-1.2-.25-1.78.04-.36.25-.5.64-.41.4.09.72.33.96.73.33.56.6 1.06.99 1.63.55.79.99 1.36 1.27 2.09.08.18.08.34-.05.52-.51.7-.98 1.2-1.4 1.5-.58.4-1.04.74-1.38 1a.92.92 0 0 0-.25.32.13.13 0 0 0 0 .1l.3.92.03.04a62.75 62.75 0 0 1 3.45.16c.73.04 1.34.22 2.2.47 1.18.33 2.26.71 3.24 1.14.1.03.19.05.28.04 1.17-.13 2.04-.14 2.9.7.05.03.07.08.09.13.15.48.27.75.29 1.15.02.84-.07 1.65-.3 2.43-.15.54-.5.96-1.07 1-1.72.12-3.38.19-5.31.36-1.67.15-3.52.26-5.46.5a63.7 63.7 0 0 1-2.76.22.09.09 0 0 1-.04-.02.08.08 0 0 1 0-.08l.24-.62a.2.2 0 0 1 .08-.1.22.22 0 0 1 .12-.03h.73a.1.1 0 0 0 .07-.02.09.09 0 0 0 .03-.06c.02-.99.16-2.07.42-3 .25-.88 1.1-2.08 2.23-1.43.82.48 1.05 1.89 1.04 2.71v.03a.06.06 0 0 0 .05.03h.02c.94-.07 1.8-.17 2.6-.3.5-.1.98-.33 1.27-.75a6.5 6.5 0 0 0 .8-1.53v-.03a24.8 24.8 0 0 0-4.02.6c-.01 0-.01 0 0 0v-.02a17.85 17.85 0 0 1 5.58-.73c.2 0 .25.11.18.33-.21.63-.56 1.2-1.02 1.71-.34.36-.79.62-1.36.77-1.32.36-2.68.6-4.08.73a.26.26 0 0 0-.17.09.27.27 0 0 0-.06.18.4.4 0 0 1-.1.25l-.02.02-.03.01c-.08.01-.13.05-.16.13V30a.03.03 0 0 0 .02.02h.02l6.27-.36Zm-6-1.98.03 1.26c0 .05 0 .1-.03.14-.08.18-.12.35-.12.5v.03h.05l.01-.02.07-.27c.01-.04.03-.06.05-.09a.17.17 0 0 1 .1-.03c1.34-.11 2.63-.35 3.86-.7.5-.15.88-.3 1.13-.47a4.44 4.44 0 0 0 1.5-2.1.05.05 0 0 0-.03-.03h-.04a.05.05 0 0 0-.03.03c-.45 1-1.08 1.92-2.2 2.36a22.11 22.11 0 0 1-4.26.78l-.02-.03v-.02a3.7 3.7 0 0 0-.08-1.35v.01Zm8.57.89a.14.14 0 0 1-.12.03.08.08 0 0 1-.06-.05.84.84 0 0 1-.02-.35c0-.02 0-.03.02-.04a.08.08 0 0 1 .04-.02c.07-.01.14-.05.22-.11l.03-.04v-.09l-.03-.03-.03-.02h-.04a.07.07 0 0 0-.03.03l-.12.15-.03.02a.06.06 0 0 1-.06 0l-.01-.03a.89.89 0 0 1 .07-.6.19.19 0 0 0 .02-.08c0-.1 0-.17.04-.2.13-.16-.09-.28.12-.44l.03-.01h.03l.03.02.01.03.04.22.01.02h.04v-.02l.02-.36c0-.03.01-.05.03-.07a.12.12 0 0 1 .07-.04h.04a.07.07 0 0 1 .05 0l.02.03v.03l-.05.62h.01c.04-.02.06-.07.07-.14a10.21 10.21 0 0 0 .08-.48l.02-.01h.03l.01.01.1.17.05-.02a.11.11 0 0 0 .04-.05.1.1 0 0 0 0-.11c-.2-.23-.4-.27-.6-.13-.26.18-.37.4-.35.68 0 .04 0 .07-.03.1l-.04.06a.17.17 0 0 0-.04.08 3.5 3.5 0 0 0 .15 1.7.8.8 0 0 0 .4.46.37.37 0 0 0 .43-.07 1.51 1.51 0 0 0 .4-.82l-.02-.03a.06.06 0 0 0-.05-.01c-.1 0-.21-.05-.33-.16v-.01h-.04a.03.03 0 0 0-.02.03.03.03 0 0 0 .02.03l.22.17c.04.03.07.07.08.12.02.05.01.1 0 .15-.04.1-.1.2-.16.28l-.03.02h-.03l-.04-.02-.01-.03-.17-.81v-.01h-.08v.03l.14.95a.13.13 0 0 1-.03.11.15.15 0 0 1-.11.04h-.02a.16.16 0 0 1-.1-.05.14.14 0 0 1-.05-.1 2.44 2.44 0 0 0-.1-.95h-.01a.03.03 0 0 0-.03 0 .6.6 0 0 0-.14.22Zm-10.56-1.12-.1-.6c0-.07.01-.13.04-.18a.3.3 0 0 1 .13-.12l.04-.02a.12.12 0 0 1 .11 0l.04.04.01.06v.75H32.16l.1-.77.02-.04a.1.1 0 0 1 .04-.03.1.1 0 0 1 .08 0l.11.05c.07.03.12.08.15.14.02.07.02.14 0 .2l-.27.6v.02l.02.01.02.01h.02c.18-.15.33-.33.44-.55l.03-.03a.09.09 0 0 1 .08 0c.01 0 .02 0 .03.02.31.34-.11.6-.41.85l-.02.03.01.03.03.02h.03l.54-.25h.02a.07.07 0 0 1 .05.01l.02.02c.05.15.03.26-.06.35a.12.12 0 0 1-.05.02l-.45.14-.02.01a.03.03 0 0 0 0 .04l.02.01c.22.06.63.01.6.37a.02.02 0 0 0 0 .02.02.02 0 0 0 .02 0h.02l.01-.01a3.48 3.48 0 0 0-.2-1.54 3.85 3.85 0 0 0-.46-.59c-.5-.38-1.04-.14-1.35.34a.05.05 0 0 0 0 .07h.03c.12.05.24.22.38.5v.02h.03v-.02Zm1.7-.72.01.02.01.01.01-.01v-.03h-.01a.01.01 0 0 0-.01 0Zm10 1.7a2.78 2.78 0 0 0-.24-1.73.04.04 0 0 0-.05 0v.02c-.06.22-.16.43-.3.63l-.01.02v.02l.03.02h.01l.35-.37a.04.04 0 0 1 .03-.01.04.04 0 0 1 .03.02l.03.06a.23.23 0 0 1 0 .22c-.08.15-.2.28-.37.39-.01 0-.02 0-.02.02v.02l.03.01h.03c.12-.05.24-.08.37-.09h.05a.1.1 0 0 1 .04.04.1.1 0 0 1 .02.08l-.03.14-.02.04a.1.1 0 0 1-.1.04l-.3-.08h-.03l-.01.02v.03c.27.16.4.3.42.43v.01a.02.02 0 0 0 .03 0Zm-9.93-1.47.01.08.02.01h.03l.01-.01v-.02c0-.02 0-.04-.02-.07l-.01-.01a.03.03 0 0 0-.03 0v.02Zm-2.33 2.43a.4.4 0 0 0-.03-.2 11.93 11.93 0 0 1 .35-.36v-.06a.1.1 0 0 0-.06-.03.1.1 0 0 0-.07 0l-.25.1a.09.09 0 0 1-.08 0 .08.08 0 0 1-.03-.03.08.08 0 0 1 0-.03v-.54a.03.03 0 0 1 .03-.01l.3.02h.04l.03-.03a.05.05 0 0 0-.02-.07l-.23-.17a.26.26 0 0 1-.08-.1.25.25 0 0 1-.02-.1v-.17l.01-.05a.1.1 0 0 1 .04-.03.1.1 0 0 1 .1 0l.29.2.02.01h.03v-.05a1.07 1.07 0 0 1-.3-.6l-.02-.02h-.04a3.03 3.03 0 0 0-.09 2.35.05.05 0 0 0 .08-.03Zm2.44-2.2-.01.01v.09a.55.55 0 0 0 .04.15l.03.04.02-.02v-.08a.53.53 0 0 0-.04-.15l-.04-.04Zm8.63.26h-.04v.02c0 .05.02.08.05.1.04 0 .06-.01.05-.06l-.06-.06Zm.31.44v.04l.03.04.03.01h.06v-.04a.11.11 0 0 0-.08-.06h-.02l-.02.01Zm-10.45.18-.3-.03c-.02 0-.06.01-.08.03a.12.12 0 0 0-.05.08l-.01.15a.8.8 0 0 0 .03.37c.04.1.1.16.18.17.04 0 .08 0 .11-.03a.35.35 0 0 0 .1-.1l.08-.16a.94.94 0 0 0 .04-.2l.01-.15a.11.11 0 0 0-.02-.09.13.13 0 0 0-.08-.04Zm1.06 1.27a2.26 2.26 0 0 0 .13-.59l-.02-.02a.06.06 0 0 0-.05-.01l-.05.01a.15.15 0 0 1-.1 0l-.65-.29a.02.02 0 0 0-.02 0h-.01v.07l.52.31c.15.1.22.26.2.51l.01.01h.04Zm-.12.09-.75-.61v-.01a.03.03 0 0 0-.03 0l-.01.02-.01.05c.32.28.84.76.44 1.16a.1.1 0 0 1-.15 0 .1.1 0 0 1-.03-.06 1.82 1.82 0 0 0-.32-.79h-.02l-.01.02v.02l.17.83a.09.09 0 0 1-.02.08c-.08.1-.2.13-.36.11h-.02v-.93c0-.02 0-.03-.02-.04a.06.06 0 0 0-.03-.02l-.02-.01h-.02l-.01.03c0 .24 0 .69-.16.87a.05.05 0 0 0 0 .06v.02c.48.3 1 .09 1.22-.38a33.91 33.91 0 0 0 .18-.39.07.07 0 0 0-.02-.03Zm-1.53.63-.03-.25a7.38 7.38 0 0 0 .19-.58l-.02-.02h-.03l-.03.01-.35.46-.01.03v.03l.23.33.01.01a.03.03 0 0 0 .03 0v-.02ZM21.86 27.78a.87.87 0 0 0-.4.08.67.67 0 0 1-.32 0c-.07-.21-.1-.43-.1-.66-.01-.28-.08-.4-.23-.6a.1.1 0 0 1 0-.1.1.1 0 0 1 .03-.04.11.11 0 0 1 .05-.03l1.41-.26v-.06l-.02-.02h-.02c-.22.04-.36 0-.41-.14a.07.07 0 0 0-.04-.04.08.08 0 0 0-.05 0 .41.41 0 0 0-.32.27l-.04.04a.09.09 0 0 1-.06 0 .08.08 0 0 1-.05-.03.07.07 0 0 1-.01-.05c0-.06-.02-.12-.1-.17a.2.2 0 0 0-.14-.04.16.16 0 0 0-.07.02.13.13 0 0 0-.04.06l-.02.04h-.01l-.02.01-.01-.02.05-.64v-.01l-.02-.02h-.01l-.02.01a.6.6 0 0 0-.13.3c0 .05-.02.1-.05.13a.25.25 0 0 1-.11.07 15.69 15.69 0 0 0-2.27.98c.65-.58 1.36-.85 2.22-1.17a.2.2 0 0 0 .08-.07l.47-.56a.18.18 0 0 1 .07-.06.2.2 0 0 1 .1 0c.49.04.82-.18 1-.66.08-.25.27-.92.56-2.01.15-.55.32-.93.55-1.45.08-.2.15-.4.19-.59.24-1.13.35-2.27.32-3.4 0-.43.02-1.39.39-1.72.17-.16.37-.26.6-.3a.1.1 0 0 1 .08.02.1.1 0 0 1 .03.03l.01.04c.04.26.05.52.03.77-.03.34-.24.82-.27 1.2v.02l.02.01a.04.04 0 0 0 .04-.01c.33-.5.81-.71 1.44-.64.53.07.74.3.94.74a17.44 17.44 0 0 1 .37.97c0 .01 0 .02-.02.02l-.02.01c-.59.08-1.17.25-1.75.5a.2.2 0 0 1-.21-.03l-.25-.21a.04.04 0 0 0-.04-.01l-.02.01-.01.02c-.19.81-.42 1.75-.7 2.83-.03.13-.08.27-.15.41-.37.7-.61 1.49-1.02 2.1a51 51 0 0 0-.91 1.44c-.05.08-.15.29-.3.63a.18.18 0 0 0-.02.1c0 .07.06.14.16.2.03.03.06.03.1.03l.42-.08c.05-.01.1 0 .13.02.04.02.07.06.09.1l.21.64c0 .02.01.03.02.03.12.1.2.3.22.57v.02l-.02.01a.04.04 0 0 1-.04 0c-.02-.02-.04-.08-.07-.18 0-.03-.03-.04-.06-.04l-.04.03a.05.05 0 0 0 0 .05c.04.13-.04.23-.26.28-.36.08-.74.16-1.13.26Zm-.04-2.2H21.75a.02.02 0 0 0 0 .03h.02l.05.01h.02v-.04h-.02Zm.97 1.33c0-.04-.03-.07-.07-.08a.25.25 0 0 0-.15-.02.24.24 0 0 0-.12.07c-.03.03-.04.07-.04.1.01.04.04.07.08.08.04.02.1.03.14.02.05-.01.1-.04.13-.07.03-.03.04-.07.03-.1Z" fill="#010101"/><path d="m27.92 17.98.14-.63c.14-.53.24-1.06.88-1.21.67-.16 1.3-.05 1.73.51.35.45-.22 1.31-.47 1.68a.18.18 0 0 1-.1.07.2.2 0 0 1-.11 0 8.72 8.72 0 0 0-2.06-.38l-.01-.02v-.02ZM25.93 20.23l-.07-.84.03-.09a.15.15 0 0 1 .09-.05 12.28 12.28 0 0 1 3.93-.08.1.1 0 0 1 .03.03.1.1 0 0 1 .01.08l-.28 1.1c0 .02-.01.04-.03.05a35.64 35.64 0 0 1-3.69-.16.07.07 0 0 1-.02-.04ZM25.3 34.8l-.01.01h-.02v-.02c0-.77-.1-1.7-.27-2.76-.07-.41-.42-2.12-1.05-5.12-.17-.81-.27-1.44-.3-1.89a5.82 5.82 0 0 1 .74-3.08c.2-.38.52-.74.83-.99a.4.4 0 0 1 .32-.09c1.36.2 2.75.27 4.17.23l.12.03.09.08a5.27 5.27 0 0 1 .8 3.76c-.11.8-.46 1.85-.82 2.77a39.7 39.7 0 0 0-1.63 4.62 7.7 7.7 0 0 0-.28 2.39h-.04l-.01-.02a2.47 2.47 0 0 0-.2-.5 18.02 18.02 0 0 0-.83-1.37.1.1 0 0 0-.09 0 .1.1 0 0 0-.03.02l-1.5 1.94ZM40.26 24.72a395.64 395.64 0 0 0-1.98.24h-.55a36.36 36.36 0 0 1-2.45.18l-.22-.05h-.04a.07.07 0 0 0-.04.04l-.2.32a.24.24 0 0 1-.12.1.25.25 0 0 1-.16 0 1.12 1.12 0 0 1-.5-.34c.15.12.3.2.43.24.05.01.1.01.14 0a.24.24 0 0 0 .12-.08l.15-.2v-.05l-.02-.03H34.23l-.18.03c-.3.06-.54.06-.75 0a7.15 7.15 0 0 0-1.09-.25l-.01-.02v-.03c0-.01 0-.02.02-.02.09-.07.16-.15.21-.25a.03.03 0 0 0 0-.04h-.05c-.1.05-.2.15-.31.3a.12.12 0 0 1-.1.04H31.84v-.01a.03.03 0 0 1 0-.03c.16-.18.44-.42.84-.72 1.37-1.06 2.94-.97 4.52-.45l1.95.68c.26.09.68.38 1.12.4Zm-2.64.14-.78-.85a.67.67 0 0 0-.2-.15c-.2-.1-.33-.16-.4-.18a4.05 4.05 0 0 0-3.44.55.14.14 0 0 0-.06.08c0 .04 0 .08.02.1l.28.44c.04.06.1.1.16.13.06.04.13.05.2.05h1.45l.03-.03a.05.05 0 0 0 0-.05c-.24-.33-.35-.74.16-.9.44-.12 1.34-.15 1.68.24a.14.14 0 0 1 .03.12.14.14 0 0 1-.07.1c-.37.21-.98.2-1.41.23a.11.11 0 0 0-.08.04.1.1 0 0 0-.03.08v.03c.01.05.04.1.08.12a.2.2 0 0 0 .13.05l2.24-.17.01-.01v-.02Zm.37-.01 1.4-.1.03-.01.02-.02a.05.05 0 0 0 0-.05c-.01-.04-.05-.07-.11-.1a29.28 29.28 0 0 0-1.36-.51v.01c.18.24.43.56.02.76v.01s0 .01 0 0Zm-1.66-.68v-.02h-.02l-1.24.03h-.02v.05h.02l1.24-.04h.02v-.02ZM18.15 25.31a.24.24 0 0 0 .15-.15c.17.08.3.1.43.03a17.17 17.17 0 0 1 3.48-1.33.1.1 0 0 1 .05.03.1.1 0 0 1 .02.05.1.1 0 0 1 0 .05l-.02.03a.48.48 0 0 1-.1.15.51.51 0 0 1-.18.1c-.32.13-.76.3-1.33.55-.86.37-1.54.58-2.67.95a21.4 21.4 0 0 0-3.11 1.27.03.03 0 0 1 0-.04c.15-.2.37-.4.63-.57.78-.5 1.66-.88 2.65-1.12Z" fill="#010101"/><path d="M18.3 25.16a.24.24 0 0 1-.15.15 5.65 5.65 0 0 0-3.37.16c-.36.13-.97.43-1.06.8a6.18 6.18 0 0 1-.2.62c-.01-.18 0-.36.06-.53a.04.04 0 0 0-.02-.05.05.05 0 0 0-.05 0 6.38 6.38 0 0 0-1.27 1.53.07.07 0 0 0 .03.06l.03.01a13.83 13.83 0 0 0 2.99.13 56.95 56.95 0 0 1 3.13-.01V28c-.59-.03-1.16-.04-1.72-.02-.42 0-.93 0-1.54-.04-.52-.03-1.04-.04-1.54-.03a.7.7 0 0 1-.32-.08l-.01-.01v-.04l.03-.01c.45 0 .95 0 1.51.04.22 0 .42 0 .6-.03.27-.04.51.04.82.04 1.07 0 1.9-.03 2.67.06a.2.2 0 0 1 .09.04c.1.06.22.1.36.09.48-.01 1.03-.04 1.66-.08.04 0 .08-.02.1-.06.16.03.26.03.33 0 .16-.06.29-.1.4-.08.51.02 1.02 0 1.51-.08.15-.02.29-.07.42-.14h.02l.02.01.01.03-.01.02c-.16.1-.3.15-.42.16-.46.06-.85.11-1.17.17-.38.07-.72.02-1.06.07-.64.1-1.3.15-1.97.16-1.83.03-3.72.02-5.65-.02a10.1 10.1 0 0 1-1.35-.1.07.07 0 0 0-.03.04.3.3 0 0 0 .01.17.04.04 0 0 0-.03-.02l-.04.02v.06a.49.49 0 0 1-.04-.48 5.95 5.95 0 0 1 1.97-2.15 4.1 4.1 0 0 1 1.8-.67 6.58 6.58 0 0 1 2.45.13Z" fill="#6D6B6B"/><path d="M32.29 25.4c-.74.03-1.08.56-1.47 1.1l-.02.01h-.02l-.02-.02v-.03c.32-.6.78-1.14 1.53-1.17.74-.02 1.24.49 1.61 1.06a.03.03 0 0 1-.01.04h-.04c-.43-.51-.82-1.01-1.56-.99Z" fill="#010101"/><path d="M43.03 25.42a.31.31 0 0 0-.1.04c-.04.02 0 .04.14.07a1 1 0 0 0-.85.42c-.16.21-.23.4-.22.53l-.27.84c-.07.21-.06.45-.26.66-.03-.2-.03-.34-.01-.44.14-.74.4-1.5.94-1.96.16-.14.37-.2.63-.16ZM13.25 27.53l-.02.01h-.02v-.02c-.02 0-.01-.03 0-.06a3.33 3.33 0 0 1 .48-.53l.04-.04a5.67 5.67 0 0 1 .57-.44c.03-.02.06-.03.07-.02l.01.02a.02.02 0 0 1 0 .03l-1.13 1.05ZM13.18 27.1c.01-.04 0-.08-.03-.08s-.05.03-.06.07c0 .04 0 .08.03.08s.06-.02.06-.07Z" fill="#6D6B6B"/><path d="M12.2 28.27c.12.2.3.3.53.31 1.43.03 2.84.04 4.3.12.65.03 1.19.03 1.6.01a210.76 210.76 0 0 1 2.98-.13c.12-.06.2-.08.23-.08a17.26 17.26 0 0 0 1.98-.18l.02.04.23 1.05v.03l-.03.02a.05.05 0 0 1-.05 0c-.25-.16-.5-.32-.74-.5-.43-.3-1.05-.26-1.5-.3l-.02.01-.01.02a.03.03 0 0 0 0 .04l1.4 1.15c.06.04.1.1.13.15.02.06.04.12.04.19v.45c0 .01 0 .03.02.04l.04.01h.93a.1.1 0 0 1 .07.03.1.1 0 0 1 .03.05l.12.58a.06.06 0 0 1 0 .06c-.02 0-.02.01-.03.02h-.03c-3.27.1-6.32.1-9.14.03a28.28 28.28 0 0 1-2.59-.17.08.08 0 0 1-.04-.03.07.07 0 0 1 .02-.09.08.08 0 0 1 .04-.02l2.5-.35.04-.01.02-.03v-.03a.05.05 0 0 0-.02-.03.7.7 0 0 0-.41-.13c-.9-.05-1.8-.14-2.71-.26a.19.19 0 0 1-.1-.05c-.1-.09-.03-.27.06-.37.37-.45.24-1.11.02-1.59v-.06s.01-.02.03-.02c0 0 .02 0 .03.02Zm5.03 1.4c.47.05.82.18 1.04.4l-2.23.07a13.74 13.74 0 0 1-1.38-.07l-.5-.27a.07.07 0 0 0-.06 0l-.77.45c1.3.16 2.32.24 3.05.25 1.26 0 1.97.04 2.67 0a2 2 0 0 1 .79.07v-.03l-.45-.2c-.69-.31-1.16-.51-1.4-.6-.11-.03-.35-.07-.73-.11l-.28-.06a.27.27 0 0 1-.14-.08c-.2-.22-.49-.5-.78-.5l-2.03-.06c-.22 0-.42.01-.62.05-.1.02-.2.08-.26.16l-.54.69a.02.02 0 0 0 0 .02h.03l.84-.78a.1.1 0 0 1 .04-.02c.15-.04.28-.06.4-.05.53.03 1.07.05 1.61.06.4.01.71-.03 1 .28.11.12.22.2.3.24.13.05.26.08.4.1Zm4.37-.33a.02.02 0 0 0 0-.02h-.02l-2.42-.36a.03.03 0 0 0-.03 0v.02a.02.02 0 0 0 0 .02h.02l2.42.36a.03.03 0 0 0 .02 0v-.02Zm-8.63-.36-.85 1.1.02.01.05-.02a2.1 2.1 0 0 0 .34-.36l.2-.25a3.24 3.24 0 0 0 .26-.42v-.05l-.02-.01ZM42.38 28.57l.08-.05a.06.06 0 0 1 .05 0 .06.06 0 0 1 .03.02c.11.17.06.5.08.67a.04.04 0 0 1-.02.04.04.04 0 0 1-.04 0 .4.4 0 0 1-.26-.24.12.12 0 0 1 0-.07l.08-.37Z" fill="#010101"/><path d="m21.58 29.31-2.43-.35c-.01 0-.02 0-.03.02 0 .01.01.03.03.03l2.42.35c.01 0 .03 0 .03-.02l-.02-.03ZM41.33 29.6l-1.52.06c-.45-.06-.9-.07-1.36-.05a176.56 176.56 0 0 0-3.48.18v-.05H35c.78-.1 1.23-.14 1.34-.14.9-.03 1.54-.12 2.42-.11.69 0 1.3-.03 1.84-.08.3-.03.55.03.74.18ZM19.4 30.34c-.41.04-.79-.06-1.13-.28a1.77 1.77 0 0 0-1.04-.39l.03-.04c.38.04.62.08.72.11.25.09.72.29 1.41.6Z" fill="#6D6B6B"/><path d="M28.7 38.42a.03.03 0 0 0 .02 0v-.01l2.14-4.91a.05.05 0 0 1 .05-.03h1.02a2089.22 2089.22 0 0 1-3.24 7.37.05.05 0 0 1-.05 0l-.01-.02-1.73-4.28a.06.06 0 0 0-.02-.03.06.06 0 0 0-.1.03l-1.83 4.23-.01.02h-.05l-.01-.02a183.33 183.33 0 0 0-3.15-7.24c0-.02 0-.03.02-.04l.03-.03h.86c.04 0 .08 0 .11.03a.2.2 0 0 1 .08.09l2.08 4.77.01.02a.04.04 0 0 0 .04 0l.01-.02 1.35-3.36a.05.05 0 0 0-.01-.04l-.02-.02H25.86a.06.06 0 0 1-.05-.04.06.06 0 0 1 0-.05l1-1.64.02-.02a.05.05 0 0 1 .05 0l.01.02.85 1.63a.07.07 0 0 1 0 .07l-.04.03H27.37l-.03.01-.02.02a.05.05 0 0 0-.01.05 97.12 97.12 0 0 1 1.38 3.41ZM17.94 33.3l3.48 7.21v.05l-.03.02-.03.01h-1.01a.06.06 0 0 1-.02-.03l-.72-1.49a.06.06 0 0 0-.02-.02l-.03-.01H16.09a.06.06 0 0 0-.02.03l-.74 1.49-.03.02h-1.02a.06.06 0 0 1-.05-.02v-.05l3.6-7.21.02-.03h.07l.02.03Zm-1.35 4.72a.05.05 0 0 0 0 .06l.02.02h.03l2.44.01h.02l.03-.02a.05.05 0 0 0 0-.05l-1.2-2.55a.06.06 0 0 0-.03-.02.06.06 0 0 0-.06 0l-.02.02-1.23 2.53ZM38.84 40.47l.01.04-.01.04a.08.08 0 0 1-.07.04h-.84a.33.33 0 0 1-.15-.04.3.3 0 0 1-.12-.1l-2.32-3.5a.07.07 0 0 1 0-.08l.03-.02.04-.01c.35 0 .65 0 .9-.03.86-.1 1.36-.78 1.07-1.55-.34-.91-1.44-.77-2.27-.76l-.03.01-.08.06v6h-.95l-.03-.01a.05.05 0 0 1-.02-.04v-6.98c0-.01 0-.03.02-.04a138.7 138.7 0 0 1 1.27-.02c1.05 0 1.95-.01 2.62.68 1.06 1.1.76 3-.86 3.48l-.02.01a.06.06 0 0 0-.02.05v.02l1.83 2.75ZM16.34 44h-1.3l-.03-.01-.01-.04v-1.9l.01-.04.04-.01h.18l.03.01.02.04v1.67l.01.03.03.02h1.02a.04.04 0 0 1 .03.01.05.05 0 0 1 .01.03v.14a.05.05 0 0 1-.01.04h-.02l-.01.01ZM19.93 42.88h.9a.05.05 0 0 1 .03.01l.01.02V43.08a.05.05 0 0 1 0 .03.05.05 0 0 1-.04.02h-.92l-.03.01-.02.04v.81l-.04.01h-.16l-.03-.01-.02-.04v-1.9c0-.01 0-.03.02-.04l.03-.01h1.3l.02.01.02.04v.16c0 .01 0 .02-.02.03l-.03.02h-1.02l-.03.01-.02.04v.52c0 .01 0 .02.02.03l.03.02ZM24.98 43.7v-.01l.02-.04.03-.02a.1.1 0 0 1 .08 0c.53.18.85.17.97-.05a.26.26 0 0 0 .01-.21.26.26 0 0 0-.15-.16l-.7-.27c-.29-.12-.34-.5-.16-.7.27-.32.83-.27 1.18-.13.04.01.06.04.08.07v.11a.11.11 0 0 1-.08.06.13.13 0 0 1-.1 0c-.28-.13-.71-.21-.86.07a.17.17 0 0 0-.01.08l.01.08.05.07.08.05c.38.17 1.13.3.98.86-.15.54-.94.51-1.35.3a.16.16 0 0 1-.06-.08.15.15 0 0 1-.02-.09ZM29.16 42.24h-.57c-.01 0-.03 0-.04.02a.05.05 0 0 0-.01.03v1.66a.05.05 0 0 1-.02.04.05.05 0 0 1-.03.01h-.22l-.04-.01a.05.05 0 0 1-.01-.04V42.3c0-.02 0-.03-.02-.04a.05.05 0 0 0-.03-.01h-.63a.05.05 0 0 1-.04-.02.05.05 0 0 1-.01-.04l.03-.14.02-.03.03-.01h1.6l.03.01.01.04v.14a.05.05 0 0 1-.01.04h-.02l-.02.01ZM31.14 42.84l.04-.02.5-.71a.22.22 0 0 1 .09-.07.23.23 0 0 1 .1-.03h.15a.06.06 0 0 1 .05.03.05.05 0 0 1 0 .05l-.71.93a.32.32 0 0 0-.07.18l-.02.72v.03l-.04.03a.22.22 0 0 1-.1.02c-.05 0-.08 0-.1-.02a.08.08 0 0 1-.04-.03.08.08 0 0 1 0-.04l-.01-.7a.33.33 0 0 0-.07-.2l-.7-.93v-.05l.03-.02.02-.01h.15c.04 0 .07.01.1.03.04.02.07.04.09.07l.49.72s.02.02.05.02ZM17.89 42h-.1a.07.07 0 0 0-.08.08l.01 1.85c0 .04.04.07.08.07h.1c.04 0 .08-.03.08-.07l-.01-1.86a.07.07 0 0 0-.08-.07ZM22.65 43.74h1.02s.02 0 .03.02l.02.03v.16l-.02.03-.03.02h-1.33a.05.05 0 0 1-.03-.03v-1.92a.05.05 0 0 1 .01-.03.05.05 0 0 1 .04-.02h1.28c.01 0 .03 0 .04.02l.01.03v.15l-.01.04-.04.01h-.99l-.03.02-.02.04v.48a.05.05 0 0 0 .02.04.05.05 0 0 0 .03.01h.9a.05.05 0 0 1 .03.02.05.05 0 0 1 .01.03v.16a.05.05 0 0 1-.01.04l-.02.01h-.92s-.02 0-.03.02l-.01.04v.53l.01.04.04.01ZM34.62 43.77a.1.1 0 0 1 .07.03l.02.03a.1.1 0 0 1 0 .04v.03a.1.1 0 0 1-.03.06.08.08 0 0 1-.05.02l-1.18.02a.08.08 0 0 1-.06-.02l-.01-.03a.1.1 0 0 1-.01-.04l-.03-1.8a.11.11 0 0 1 .04-.08.1.1 0 0 1 .07-.03h.07a.1.1 0 0 1 .08.04c.02.02.03.05.03.08v1.52c0 .03 0 .06.02.08a.1.1 0 0 0 .08.03l.89.02ZM37.3 43c0 .07-.03.1-.1.1a12.69 12.69 0 0 1-.85.01.1.1 0 0 0-.06.1v.47a.1.1 0 0 0 .03.07c0 .01.01.02.03.02l.03.01h.95l.05.02.02.06v.05a.1.1 0 0 1-.02.06.08.08 0 0 1-.06.03h-1.23a.05.05 0 0 1-.04-.02v-.02l-.01-.02a14.58 14.58 0 0 0 0-1.89v-.02a.06.06 0 0 1 .04-.01l1.23-.02a.08.08 0 0 1 .06.03l.02.03a.1.1 0 0 1 0 .03v.08l-.02.02a.07.07 0 0 1-.05.03l-.95.01a.09.09 0 0 0-.06.03l-.02.03a.1.1 0 0 0 0 .04v.48a.1.1 0 0 0 .03.07l.03.02h.86c.06 0 .09.03.1.1Z" fill="#010101"/></svg>