<svg width="224" height="224" viewBox="0 0 56 56" xmlns="http://www.w3.org/2000/svg"><path fill="#6BC6CC" d="M12 12h32v32H12z"/><path d="m31.39 12 .88.18c.14.03.2.12.14.26l-1.23 3.23c-1.38 1.21-2.65 1.61-3.82 1.2.03-1.75.06-3.36 1.05-4.87h2.98Z" fill="#8ECFC9"/><path d="M44 12v14.06c-.04-.67-.06-1.34-.05-2.02 0-.42-.06-.71-.19-.89-.75-1-3.85-2.7-5.07-2.23-.95.36-1.9.74-2.85 1.13-.6.25-1.72.34-3.37.28.24-1.49.26-2.97.07-4.45a4.3 4.3 0 0 0-.73-1.93l-.63-.28 1.23-3.23c.05-.14 0-.23-.14-.26l-.88-.18H44Z" fill="#E6F2EC"/><path d="M27.36 16.86c1.17.42 2.44.02 3.82-1.19l.63.28c-.22.04-.3.2-.24.5-.33-.06-.62.02-.86.23-.17.14-.3.39-.38.74a4.62 4.62 0 0 1-.52 1.49c-.36.46-.26.88.3 1.23-.14.47-.07.78.22.94.14.07.25.04.33-.1.28-.47.63-.88 1.06-1.22a.2.2 0 0 1 .2-.03.21.21 0 0 1 .14.18c.05.58-.11 1.16-.49 1.74a.74.74 0 0 1-.3.28c-.36.17-.5.41-.41.74.27 1.01.35 1.83.24 2.45-.01.08.02.14.09.18.05.02.1.03.15.02a.23.23 0 0 0 .17-.15c.17-.41.35-.71.54-.9a.27.27 0 0 1 .25-.07.26.26 0 0 1 .18.17c.16.48.2.9.1 1.26-.12.44-.19.85-.2 1.22a3.97 3.97 0 0 1-.28 1.37c-.22.5-.7 1.26-1.45 2.27a.18.18 0 0 0-.04.11c0 .05.01.09.03.12.03.08.08.1.15.03l1.94-1.74a59.68 59.68 0 0 1-7.17 10.23l-1.73.76c-.15.07-.27.04-.37-.1-.14-.19-.29-.23-.44-.11a.29.29 0 0 1-.2.04.28.28 0 0 1-.18-.1c-.16-.2-.18-.35-.06-.46.48-.45.94-.97 1.38-1.56.48-.64.8-1.32.96-2.02l.47-.37a11.59 11.59 0 0 0 5.76-7.1.3.3 0 0 0-.36-.38l-1.86.46c-.71.18-.79.03-.22-.44a6.77 6.77 0 0 0 2.06-3.64.56.56 0 0 0-.01-.34l-2.4-6.08a.61.61 0 0 0-.6-.38c-2.85.15-4.07 1.65-3.64 4.48-.6.67-.8 1.25-.58 1.72.02.07-.1.08-.34.03a3.35 3.35 0 0 0-1.65-.74c.17-.61.2-1.2.12-1.79.29.07.49-.02.6-.27a.66.66 0 0 0 .01-.54l-.57-1.48c-.06-.16-.17-.22-.33-.18-.49.1-.97.33-1.44.66l.54-.85c.1-.14.05-.22-.12-.22-.11-.01-.26.02-.44.09.18-.97.27-1.65.27-2.03.01-1.98.53-2.06 1.55-.27.02.04.28.27.78.69.08.06.16.09.26.08 1.5-.2 3.03-.19 4.58.06Z" fill="#DDA95D"/><path d="M31.81 15.95c.4.57.64 1.21.73 1.93.2 1.48.17 2.96-.07 4.45l.68 3.55c.12.65.35.69.68.12.17-.28.5-.66.98-1.12.24.16.31.27.2.32-.58.4-1.02.92-1.32 1.59-.75.69-1.07 1.43-.96 2.22l-1.94 1.74c-.07.06-.12.05-.15-.03a.25.25 0 0 1-.03-.12c0-.04.02-.07.04-.1a14.54 14.54 0 0 0 1.45-2.28c.15-.33.24-.78.27-1.37.02-.37.1-.78.21-1.22.1-.35.06-.78-.1-1.26a.26.26 0 0 0-.18-.17.27.27 0 0 0-.25.07c-.2.19-.37.49-.54.9a.23.23 0 0 1-.17.15c-.05 0-.1 0-.15-.02-.07-.04-.1-.1-.09-.18.1-.62.03-1.44-.24-2.45-.09-.33.05-.57.4-.74a.74.74 0 0 0 .31-.28c.38-.58.54-1.16.49-1.74a.22.22 0 0 0-.13-.18.2.2 0 0 0-.21.03c-.43.34-.78.75-1.06 1.22-.08.14-.19.17-.33.1-.3-.16-.36-.47-.22-.94.36-.36.49-.87.39-1.54-.02-.14.04-.23.18-.26.34-.08.65-.08.96 0 .15.04.25-.02.28-.18.1-.62 0-1.2-.35-1.72-.06-.29.02-.45.24-.49Z" fill="#A06836"/><path d="M31.57 16.44c.34.53.46 1.1.35 1.72-.03.16-.13.22-.28.18-.3-.08-.62-.08-.96 0-.14.03-.2.12-.18.26.1.67-.03 1.18-.39 1.54-.56-.35-.66-.77-.3-1.23.16-.22.34-.72.52-1.5.09-.34.21-.59.38-.73.24-.2.53-.29.86-.24Z" fill="#D5C1A3"/><path d="M25.39 35.32c.2-1.06-.55-1.28-2.26-.65a.89.89 0 0 1-1.06-.37 11.55 11.55 0 0 1-1.6-4.42l.93 2.66a.24.24 0 0 0 .44.06 9.26 9.26 0 0 1 4.29-3.53c.83-.34.8-.6-.06-.8l-4.47-1a.13.13 0 0 1-.1-.14l.04-.15c.02-.1.09-.15.2-.14.37.03.67-.08.9-.33.4-.03.67-.13.79-.3.12-.17.07-.26-.14-.27-.41-.02-.97.1-1.31-.14-.27-.19-.24-.42.07-.71.15.43.41.6.78.5a.43.43 0 0 0 .31-.28c.2-.5.22-1.04.06-1.66.24.05.36.04.34-.03.87.7 1.77.88 2.7.52 1.85-.72 1.24-2.37-.05-3.15-.78-.47-1.65.26-2.07.91-.43-2.83.79-4.33 3.65-4.48a.6.6 0 0 1 .6.38l2.39 6.08c.04.11.04.23.01.34a6.77 6.77 0 0 1-2.06 3.64c-.57.47-.5.62.22.44l1.86-.46a.3.3 0 0 1 .36.38 11.59 11.59 0 0 1-5.76 7.1Z" fill="#EBCB8B"/><path d="m19.94 19.3-1.24 3.21c-.13-.16-.12-.41.04-.75l1.18-3.43c.18-.07.33-.1.44-.1.17.01.21.09.12.23l-.54.85Z" fill="#A06836"/><path d="M21.67 21.12c-.1-.58-.52-.86-1.23-.83a.36.36 0 0 0-.32.24.35.35 0 0 0-.02.14c.02.45.15.53.39.23.05-.06.1-.07.16-.03.07.04.1.07.12.09.07.12.04.2-.09.24-.63.21-.9.79-.81 1.72.03.3.19.45.48.48.55.05.95-.11 1.2-.5.66.13 1.21.37 1.65.75.16.62.14 1.17-.06 1.66a.43.43 0 0 1-.3.28c-.38.1-.64-.07-.8-.5.26-.45.2-.72-.16-.81-.38-.1-.74-.14-1.1-.12a.3.3 0 0 0-.25.43c.16.32.21.6.15.81L19.53 27a.44.44 0 0 1-.76-.05l-.56-1.13c-.17-1.21 0-2.32.5-3.3l1.23-3.21c.47-.33.95-.55 1.44-.66.16-.04.27.02.33.18l.57 1.48c.08.19.08.37 0 .54-.12.25-.32.34-.61.27Z" fill="#F6E0B5"/><path d="M44 26.06v2.39l-2.7.36c-.54-1.81-1.02-2.89-1.45-3.22-1.66-1.34-3.34-1.58-5.04-.71-.48.46-.8.84-.98 1.12-.33.57-.56.53-.68-.12l-.68-3.55c1.65.06 2.78-.03 3.37-.28.95-.39 1.9-.77 2.85-1.13 1.22-.47 4.32 1.23 5.07 2.23.13.18.2.47.19.9-.01.67 0 1.34.05 2Z" fill="#C6DDDC"/><path d="M21.67 21.12c.09.58.05 1.18-.12 1.79-.25.38-.65.54-1.2.49-.3-.03-.45-.19-.48-.48-.1-.93.18-1.5.81-1.72.13-.05.16-.12.09-.24a.36.36 0 0 0-.12-.09c-.06-.04-.11-.03-.16.03-.24.3-.37.22-.4-.23a.35.35 0 0 1 .21-.35.36.36 0 0 1 .14-.03c.71-.03 1.12.25 1.23.83ZM23.54 23.62c-.21-.47-.02-1.05.58-1.72.42-.65 1.29-1.38 2.07-.9 1.3.77 1.9 2.42.05 3.14-.93.36-1.83.19-2.7-.52Z" fill="#140B09"/><path d="M18.74 21.76c-.16.34-.17.6-.04.75-.5 1-.66 2.1-.5 3.3-.17-.15-.32.14-.46.87a3.91 3.91 0 0 0-.26 3.28c.15.67.33 1.31.55 1.93.08.25.04.86-.14 1.81l-1.52-.1c-.16 0-.3.05-.42.17l-1.31 1.31c-.11.11-.16.24-.16.4 0 .72-.29 1.16-.84 1.33a.36.36 0 0 0-.26.3c-.12.75-.4 1.34-.86 1.77a.2.2 0 0 1-.22.04.21.21 0 0 1-.1-.08c-.02-.03-.2-.12-.2-.16v-3.92l2.77-.23a.41.41 0 0 0 .26-.7l-.56-.57a.4.4 0 0 1-.12-.25l-.12-1.8a.22.22 0 0 0-.12-.18l-.93-.54a.35.35 0 0 1-.19-.38l.12-.9c.02-.14.01-.27-.01-.4l-.5-2.66c-.03-.17.03-.27.2-.31a5.94 5.94 0 0 0 3.86-2.71c.31-.5 1-.96 2.08-1.37Z" fill="#92CAD8"/><path d="M22.05 25.09c-.31.29-.34.52-.07.7.34.24.9.13 1.3.15.22 0 .27.1.15.27-.12.17-.38.27-.79.3-.49.03-.97 0-1.44-.09-.27-.05-.44-.16-.5-.33a1.14 1.14 0 0 1-.02-.69c.06-.22.01-.49-.15-.8a.3.3 0 0 1 .26-.44c.35-.02.71.02 1.09.12.36.09.42.36.17.8Z" fill="#140B09"/><path d="m41.3 28.8-.05 3.8c0 .15-.08.2-.21.2-.6-.04-.88.27-.84.94l-.08-.6c-.03-.16-.12-.25-.28-.27a.57.57 0 0 1-.33-.14.36.36 0 0 1-.11-.41l.16-.52c.27-.35.39-.73.36-1.15l-.12-2.1A3.84 3.84 0 0 0 38.7 26c-.08-.08-.14-.27-.18-.55a.41.41 0 0 0-.26-.33c-.51-.23-1.09-.4-1.73-.47-.56-.08-1.06.25-1.52.56.11-.05.04-.16-.2-.32 1.7-.87 3.38-.63 5.04.7.43.34.9 1.42 1.45 3.23Z" fill="#D5C1A3"/><path d="M39.56 31.8a.66.66 0 0 0-.09-.2 8.58 8.58 0 0 0-1.15-4.92.4.4 0 0 0-.74.13l-.29 1.69.3 1.6a5.76 5.76 0 0 1-3.9-3.31c.3-.67.74-1.2 1.32-1.59.46-.31.96-.64 1.52-.56.64.08 1.22.24 1.73.47.15.07.23.18.26.33.04.28.1.47.19.55.67.7 1.04 1.56 1.09 2.57.03.7.07 1.39.12 2.09.03.42-.09.8-.36 1.15Z" fill="#DDA95D"/><path d="M20.68 25.4c-.07.28-.06.51.01.7.07.16.24.27.51.32.47.09.95.12 1.44.1-.23.24-.53.35-.9.32-.11-.01-.18.03-.2.14l-.04.15a.12.12 0 0 0 .1.15l4.47 1c.87.19.89.45.06.79a9.26 9.26 0 0 0-4.29 3.53.25.25 0 0 1-.44-.06l-.93-2.66-2.73-3.2c.14-.73.3-1.02.47-.86l.56 1.13a.44.44 0 0 0 .76.06l1.15-1.6Z" fill="#D7B26D"/><path d="m39.47 31.6-.66.56c-.16.13-.25.1-.26-.12l-.28-4a.42.42 0 0 0-.78-.18c-.08.14-.15.35-.2.64l.29-1.69a.4.4 0 0 1 .74-.13 8.58 8.58 0 0 1 1.15 4.92Z" fill="#C17D2F"/><path d="m17.74 26.68 2.73 3.2c.24 1.61.77 3.08 1.6 4.42a.9.9 0 0 0 1.06.37c1.71-.63 2.47-.41 2.26.65l-.47.37c-1.86.32-3.8.18-5.83-.42a6.2 6.2 0 0 1-.95-2.8.39.39 0 0 1 .14-.34c.11-.1.14-.21.1-.34-.2-.65-.5-1.26-.9-1.83-.4-1.1-.3-2.2.26-3.28Z" fill="#F0D69F"/><path d="M33.7 26.79c.7 1.65 2 2.75 3.88 3.31-1.41.54-2.6.34-3.56-.62a.6.6 0 0 1-.18-.33l-.16-.87c-.04-.19-.14-.24-.31-.17-.1.04-.14.12-.13.25.16 1.7 1.1 2.68 2.82 2.92.18.02.36.23.55.6.07.13.16.23.29.3.37.18.62.39.76.62.36.59.49 1.12.38 1.6l-8.11 3.1c.05-.1.03-.18-.05-.28a.19.19 0 0 0-.28-.02c-.57.53-1.07 1.03-1.84 1.3-.62.22-1.36.47-2.2.74A59.68 59.68 0 0 0 32.73 29c-.11-.8.2-1.53.96-2.22Z" fill="#C17D2F"/><path d="m39.47 31.6.1.2-.17.52c-.05.16-.02.3.11.4.09.09.2.14.33.15.16.02.25.1.28.27l.08.6c-.15.44-.47.8-.93 1.1-.7.42-1.27.87-1.73 1.33-.46.47-.81.79-1.07.97-.57.4-.99.63-1.26.72-1.33.4-2.98.62-4.95.64-.67 0-1.41.16-2.22.46-.8.3-1.53.54-2.17.74-1.1.28-2.19.74-3.17.4-.37-.14-.55-.34-.54-.6 0-.2.23-.47.67-.78a.8.8 0 0 0 .32-.48c0-.03-.03-.07-.1-.12a.47.47 0 0 0-.32-.07c-1.87.26-3.74.48-5.62.66-.63.06-1.14-.1-1.53-.48l2.32.15 2.26-.72a.12.12 0 0 0 .08-.15.12.12 0 0 0-.03-.06l-1.6-1.6c-.05-.05-.12-.06-.18-.02-.1.06-.24.2-.43.42-.24.03-.31-.04-.23-.2.6-.85.64-1.63.12-2.35.18-.95.22-1.56.14-1.81-.22-.62-.4-1.26-.55-1.93.4.57.7 1.18.9 1.83a.3.3 0 0 1-.1.34c-.1.1-.15.2-.14.34.1 1 .4 1.94.95 2.8.32.64.77 1.17 1.34 1.58.4.3.97.5 1.7.6.6.1 1.22.18 1.83.26-.44.6-.9 1.11-1.38 1.56-.12.1-.1.26.06.46.04.06.1.1.17.1.08.01.15 0 .2-.04.16-.12.31-.08.45.11.1.14.22.17.37.1l1.73-.76c.84-.27 1.58-.52 2.2-.74.77-.27 1.27-.77 1.84-1.3a.19.19 0 0 1 .28.02c.08.1.1.19.05.28-.1.14-.17.27-.2.38-.04.16.02.25.18.27 2.23.32 3.7-.7 5.22-2.07.42-.39.55-.3.37.24-.06.17-.23.36-.52.59a.3.3 0 0 0-.11.2v.13a.22.22 0 0 0 .27.12 4.05 4.05 0 0 0 2.9-2.96c.1-.48-.02-1.01-.38-1.6-.14-.23-.4-.44-.76-.63a.63.63 0 0 1-.29-.29c-.19-.37-.37-.58-.55-.6-1.72-.24-2.66-1.22-2.82-2.92-.01-.13.03-.21.13-.25.17-.07.27-.02.31.17l.16.87a.6.6 0 0 0 .18.33c.96.96 2.15 1.16 3.56.62l-.29-1.6c.05-.29.12-.5.2-.64a.42.42 0 0 1 .78.18l.28 4c0 .21.1.25.26.12l.66-.56Z" fill="#7E5939"/><path d="M44 28.45V44h-2.38c-.04-.44.34-.87 1.14-1.29.13-.07.2-.18.19-.33l-.07-.92c-.01-.24-.14-.34-.37-.33l-.89.07a.53.53 0 0 1-.42-.16l-.92-.93c-.15-.14-.3-.15-.45-.02-.64.55-1.02.84-1.12.86-1.28.29-2.4.83-3.35 1.63-.25.2-.21.32.1.34.62.03 1.85.14 1.76 1.08h-4.58c.6-.5 1.1-1.06 1.52-1.69.68-1 .82-2.08.43-3.24-.05-.15-.15-.22-.3-.2l-4.8.33c-.4.03-.59.24-.56.64l.11 1.64c.03.34.2.48.54.44.37-.05.63.2.75.75.1.44.18.88.2 1.33H27.8a8.83 8.83 0 0 1-1.48-1.68 4.6 4.6 0 0 1-.45-2.62c.64-.2 1.36-.45 2.17-.74.8-.3 1.55-.45 2.22-.46a17.8 17.8 0 0 0 4.95-.64c.27-.09.7-.33 1.26-.72.26-.18.61-.5 1.07-.97a8.94 8.94 0 0 1 1.73-1.33c.46-.3.78-.66.93-1.1-.04-.67.24-.98.84-.94.13 0 .2-.05.2-.2l.06-3.8 2.7-.35Z" fill="#98DAE8"/><path d="M17.9 33.7c.5.72.47 1.5-.13 2.35-1.24.68-1.97 1.4-2.2 2.18.4.38.91.54 1.54.48 1.88-.18 3.75-.4 5.62-.66.11-.02.22.01.31.07.08.05.12.09.11.12a.8.8 0 0 1-.32.48c-.44.31-.66.57-.67.78 0 .26.17.46.54.6.98.34 2.06-.12 3.17-.4a4.6 4.6 0 0 0 .45 2.62c.29.46.78 1.02 1.48 1.68H12c0-2.5.05-5.17.05-5.17.45-.43 1.2-.97 1.33-1.71a.36.36 0 0 1 .26-.3c.55-.18.83-.62.84-1.34 0-.16.05-.29.16-.4l1.3-1.3a.54.54 0 0 1 .43-.17l1.52.1Z" fill="#E6F2EC"/><path d="M38.04 34.4a4.05 4.05 0 0 1-2.9 2.96.22.22 0 0 1-.26-.12.26.26 0 0 1-.01-.12.3.3 0 0 1 .11-.21c.29-.23.46-.42.52-.59.18-.55.05-.63-.37-.24-1.52 1.36-2.99 2.39-5.22 2.07-.16-.02-.22-.11-.18-.27.03-.11.1-.24.2-.38l8.11-3.1Z" fill="#CB9E66"/><path d="M24.92 35.69c-.16.7-.48 1.38-.96 2.02l-1.83-.25c-.73-.1-1.3-.31-1.7-.6a4.35 4.35 0 0 1-1.34-1.6c2.03.6 3.97.75 5.83.43Z" fill="#D7B26D"/><path d="m17.9 38.38.1-2.13c.19-.22.33-.36.43-.42.06-.04.13-.03.19.03l1.59 1.6a.13.13 0 0 1 0 .17.12.12 0 0 1-.05.03l-2.26.72Z" fill="#C17D2F"/><path d="M17.77 36.05c-.08.16 0 .23.23.2l-.1 2.13-2.32-.15c.22-.77.95-1.5 2.2-2.18Z" fill="#F6E0B5"/><path d="M41.62 44h-4.4c.1-.94-1.14-1.05-1.75-1.08-.32-.02-.36-.13-.11-.34a7.85 7.85 0 0 1 3.35-1.63c.1-.02.48-.3 1.12-.86.15-.13.3-.12.45.02l.92.93c.11.11.26.17.42.16l.89-.07c.23-.01.36.1.37.33l.07.92c0 .15-.06.26-.19.33-.8.42-1.18.85-1.14 1.29Z" fill="#C6DDDC"/><path d="m43.55 12.48-.15.65c-.07.34-.28.5-.61.48a8.52 8.52 0 0 1-3.23-.76c-.17-.08-.27-.17-.28-.25a.58.58 0 0 1-.02-.16.15.15 0 0 1 .14-.14l3.77-.26c.32-.03.45.12.38.44Z" fill="#8ECFC9"/><path d="M28.48 22.87c.21-.46.54-.56.97-.3l.55.31c.49.28.63.68.42 1.2-1.26 3.28-3.9 2.88-6.3 1.3-.12-.09-.11-.15.04-.19.17-.04.81-.04 1.93.01.48.03.97-.22 1.47-.75.21-.22.52-.75.92-1.58Z" fill="#F6E0B5"/><path d="M25.05 22.06c-.4.3-.52.83-.38 1.62.03.16-.03.2-.17.11-1.1-.68-.1-2.09.68-2.38.28-.1.49-.04.62.2.1.16.05.27-.13.32a.43.43 0 0 1-.19.02.6.6 0 0 0-.43.11Z" fill="#C6DDDC"/></svg>