<svg width="112" height="112" viewBox="0 0 56 56" xmlns="http://www.w3.org/2000/svg"><path fill="url(#a)" d="M0 0h56v56H0z"/><path d="M15.28 11.03c.84-.01 1.38 0 1.6.02 2.12.24 4.12 1.1 5.99 2.58a.18.18 0 0 0 .17.02 12.84 12.84 0 0 1 10.06.04l.09-.03a12.1 12.1 0 0 1 5.78-2.57c.26-.04.82-.07 1.7-.09 1.25-.02 1.9.62 1.98 1.93a.93.93 0 0 0-.05.58c.01 1.63.13 3.53-.2 4.98a12.5 12.5 0 0 1-1.17 3.18c0 .04 0 .07.02.1l.58 1.04c.58 1.04.97 2.15 1.16 3.33a7.4 7.4 0 0 1-3.21 6.73.24.24 0 0 0-.09.13c-.01.05-.01.1.01.15.2.46.35.96.44 1.5.3 1.77.16 3.58-.42 5.41a17.78 17.78 0 0 1-6.38 3.17 12.6 12.6 0 0 0 3.42-4.1c.48.39.6.91.38 1.57a.06.06 0 0 0 .03.07.07.07 0 0 0 .08-.02l.45-.76c.77-1.54.95-3.2.51-5 .02-.12-.05-.3-.2-.55a.13.13 0 0 0-.1-.06.13.13 0 0 0-.1.03l-.3.26c-.13.11-.27.21-.43.3L34.2 36.5a6.6 6.6 0 0 1-1.5 1l-2.13 1.1a7.56 7.56 0 0 0-2.51 2.03.12.12 0 0 1-.14-.01c-.05-.05-.12-.22-.2-.3-1.23-1.35-2.7-1.97-4.56-2.89-.5-.24-.98-.58-1.47-1.02l-2.6-1.45a.61.61 0 0 1-.1-.06l-.75-.63a.12.12 0 0 0-.1-.02.12.12 0 0 0-.09.05c-.18.3-.28.51-.27.64-.37 1.81-.2 3.47.49 4.99a3.54 3.54 0 0 0 .54.87.07.07 0 0 0 .07-.03.06.06 0 0 0 0-.07 1.31 1.31 0 0 1-.08-.91c.1-.4.27-.68.48-.83.7 1.67 1.8 3 3.3 4 .04.02.06.06.06.09.01.04 0 .07-.02.1l-.11.04a20.07 20.07 0 0 1-6.2-3.11 9.88 9.88 0 0 1 0-7.05 108.13 108.13 0 0 0-1.07-1.06 7.07 7.07 0 0 1-2.14-3.9c-.4-2.22.43-4.38 1.64-6.23a.24.24 0 0 0 .01-.24c-.52-1-.9-2.04-1.14-3.12-.11-.5-.17-1.42-.17-2.77 0-.92-.02-1.85-.04-2.79.04-1.3.67-1.94 1.88-1.9Z" fill="#20000A"/><path d="M20.6 15a8.27 8.27 0 0 0-4.17-1.48c-.4-.05-.77.04-.82.45-.05.41-.05 1.16 0 2.26-.04.78.06 1.55.3 2.3-.48-.04-.77.33-.85 1.11a7.96 7.96 0 0 1-.61-2.81v-2.96c-.03-1.27.3-1.82 1.59-1.79a10.25 10.25 0 0 1 5.76 2.07.1.1 0 0 1-.04.14L20.6 15ZM41.13 19.2l-1.01-.84.29-1.9v-2.12c0-.96-.51-.86-1.34-.76a7.47 7.47 0 0 0-3.6 1.44l-1.24-.74a.1.1 0 0 1-.04-.07.09.09 0 0 1 .04-.08 10.42 10.42 0 0 1 6.03-2.05c.56 0 .96.25 1.2.75.03.08.05.16.05.25v4.2a8 8 0 0 1-.38 1.91Z" fill="#fff"/><path d="m20.6 15-1.02.72a.15.15 0 0 1-.17 0 4.89 4.89 0 0 0-2.85-.98 16.36 16.36 0 0 0 .12 3.08 2.58 2.58 0 0 1-.47-1.57.11.11 0 0 0-.1-.1.89.89 0 0 0-.5.08c-.05-1.1-.05-1.85 0-2.26.05-.41.41-.5.82-.45 1.56.19 2.89.54 4.17 1.49ZM40.4 16.46c-.38-.15-.7 0-.95.47v-2.12a.09.09 0 0 0-.06-.09 5.04 5.04 0 0 0-2.78.96.15.15 0 0 1-.17 0l-.97-.66a7.46 7.46 0 0 1 3.6-1.44c.83-.1 1.34-.2 1.34.76v2.12Z" fill="#D5B8A2"/><path d="M36.52 17.13c0 .1-.04.16-.12.19-.37-.38-.68-.59-.93-.61a9.72 9.72 0 0 0-6.18-2.53c-1.23-.07-2-.1-2.32-.07-2.5.16-4.7 1.03-6.6 2.59a.65.65 0 0 0-.35.25.29.29 0 0 1-.16-.18 12.3 12.3 0 0 1 16.66.36Z" fill="#fff"/><path d="M35.47 16.7a15.95 15.95 0 0 0-6.54-2.42 8.05 8.05 0 0 0-2.62.08c-1.33.26-2.61.7-3.84 1.3-.34.16-.83.47-1.47.92a.72.72 0 0 1-.64.12 11.38 11.38 0 0 1 6.61-2.6c.32-.02 1.09 0 2.32.08 2.4.13 4.47.97 6.18 2.53Z" fill="#FE895C"/><path d="M35.47 16.7c.25.03.56.24.93.62.15.08.28.2.38.35a2.09 2.09 0 0 1-.56 1.87.1.1 0 0 1-.1-.02c-.48-.5-1.17-1.23-1.95-1.19-1.85-.54-3.18-.03-3.98 1.52-.46.6-1.08.9-1.86.9-.68.02-1.36.02-2.04 0l-.44-.87c-.76-1.5-2.04-2.04-3.84-1.65-.82.03-1.5.48-2.06 1.32a.15.15 0 0 1-.14.07c-.28-.03-.5-.09-.69-.19a.56.56 0 0 1-.22-.23.54.54 0 0 1-.06-.32l.1-.92 1.08-1c.08-.13.2-.21.34-.26.22.06.44.02.64-.12.64-.45 1.13-.76 1.47-.93 1.23-.6 2.5-1.03 3.84-1.3.83-.16 1.7-.18 2.62-.07 2.27.3 4.45 1.1 6.54 2.43Z" fill="#F72D25"/><path d="M16.68 17.81c.15-.01.24.13.28.44 0 .06-.01.12-.05.17l-.58.79c-.17-.19-.3-.41-.42-.68a6.06 6.06 0 0 1-.3-2.3c.18-.08.34-.1.5-.09a.11.11 0 0 1 .1.11c-.01.58.15 1.1.47 1.56ZM40.4 16.46l-.28 1.9c-.1.3-.25.57-.47.82l-.57-.8a.18.18 0 0 1-.03-.16l.4-1.29c.25-.46.57-.62.96-.47Z" fill="#BF9386"/><path d="M19.86 16.77c.03.08.08.15.16.18l-1.08 1-.82.97a.32.32 0 0 1-.13-.2l1.87-1.95Z" fill="#D5B8A2"/><path d="M37.94 18.62c-.01.05-.03.07-.05.08a.3.3 0 0 1-.15-.02l-.96-1.01c-.1-.15-.23-.27-.38-.35.08-.03.12-.1.13-.2l1.41 1.5Z" fill="#E1D2BB"/><path d="m37.74 18.68.28.37a8.4 8.4 0 0 1-3.74 3c-.99-.93-2.46-.65-3.1.52-.4-.16-.73-.24-.96-.23-1.14.02-2.16.02-3.06-.01a5.05 5.05 0 0 1-1.41-.27.26.26 0 0 1-.09-.2c0-.05.02-.09.04-.12l.59-1c.68.03 1.36.03 2.04.02.78-.01 1.4-.32 1.86-.9-.25.6-.24 1.16.03 1.64a.32.32 0 0 0 .26.16.33.33 0 0 0 .28-.13l.28-.4c.95-1.46 2.75-1.48 4.28-1a.37.37 0 0 0 .33-.06.35.35 0 0 0 .14-.3c-.02-.6-1.1-1.25-1.62-1.44.78-.04 1.47.69 1.95 1.2a.09.09 0 0 0 .07.02.1.1 0 0 0 .06-.03c.48-.5.65-1.13.53-1.85l.96 1.01ZM22.01 18.23c-.8.3-1.4.75-1.77 1.37a.33.33 0 0 0 0 .35c.04.05.09.1.15.12.05.03.12.04.18.04l.29-.03c1.65.12 2.92-.1 3.98 1.35a.17.17 0 0 1-.08.26.18.18 0 0 1-.1 0 5.39 5.39 0 0 0-1.9-.16c-.54.14-.96.42-1.28.84-1.52-.6-2.82-1.5-3.9-2.7l.54-.75.82-.96-.1.92c-.02.11 0 .22.06.32.05.1.13.18.22.23.18.1.41.16.7.19a.15.15 0 0 0 .13-.07c.55-.84 1.24-1.29 2.06-1.32Z" fill="#EE1623"/><path d="M25.85 19.88c.23.6.2 1.14-.06 1.63a.3.3 0 0 1-.26.15.3.3 0 0 1-.26-.13c-1.08-1.63-2.5-2.02-4.41-1.45l-.3.03a.35.35 0 0 1-.31-.16.33.33 0 0 1 0-.35c.36-.62.95-1.08 1.76-1.37 1.8-.4 3.08.16 3.84 1.65ZM34.17 18.33c.51.19 1.6.84 1.62 1.45a.34.34 0 0 1-.14.29.37.37 0 0 1-.33.06c-1.53-.48-3.33-.46-4.28 1-.1.17-.2.3-.28.4a.32.32 0 0 1-.28.13.33.33 0 0 1-.26-.16c-.27-.48-.28-1.03-.03-1.65.8-1.55 2.12-2.06 3.98-1.52Z" fill="#fff"/><path d="m40.12 18.36 1 .83-.42 1.3-.03.04a.09.09 0 0 1-.13-.02l-.89-1.33c.22-.25.38-.53.47-.82ZM15.91 18.53c.11.27.25.5.42.68l-.84 1.3a.08.08 0 0 1-.07.04.08.08 0 0 1-.07-.05l-.29-.86c.08-.78.37-1.15.85-1.1Z" fill="#E1D2BB"/><path d="M40.75 23a1 1 0 0 1-.2.38 20.04 20.04 0 0 0-2.53-4.33l-.28-.37c.06.02.1.02.15.02.02 0 .04-.03.05-.08l.1.1A29.24 29.24 0 0 1 40.74 23ZM18 18.73c.01.08.06.15.12.2l-.54.75c-.69.93-1.27 1.92-1.76 2.96a.98.98 0 0 1-.06-.57A19.1 19.1 0 0 1 18 18.73Z" fill="#FE895C"/><path d="M38.02 19.05a20.03 20.03 0 0 1 2.53 4.33c.29.8.48 1.63.57 2.48-.36-.61-.85-1.1-1.45-1.46-.08-.05-.14-.07-.19-.04-.05.03-.08.09-.1.18-.04.02-.09 0-.13-.03a4.72 4.72 0 0 0-4.14-1.17.11.11 0 0 0-.04.09l.01.04c.13.24.14.49.04.74a.16.16 0 0 0 0 .12c.02.04.05.07.09.1a4.05 4.05 0 0 1 2.38 4.32c-.65 1.45-1.67 1.82-2.86 2.53a4.45 4.45 0 0 0-1.25-5.22.1.1 0 0 0-.1.03.1.1 0 0 0-.01.05c-.02.22.1.5-.18.62a2.5 2.5 0 0 0-.48-.45 7.55 7.55 0 0 1-1.82-1.33c-.52-.53-.91-.85-1.16-.97-1.33-.62-3.06-.51-4.08.45-1.07 1-2 1.76-2.83 2.26-.17-.1-.22-.31-.14-.61v-.05a.08.08 0 0 0-.04-.04.08.08 0 0 0-.1.01c-1.58 1.48-2.09 3.55-1.13 5.49l-2.75-1.47c-.75-2.07-.12-4.73 2.13-5.62a.13.13 0 0 0 .07-.06.13.13 0 0 0 .01-.1c-.1-.34-.09-.61.05-.81a.1.1 0 0 0 0-.08.1.1 0 0 0-.06-.06c-1.4-.4-3 .23-4.1 1.12-.23-.1-.47-.06-.73.15-.45.36-.8.74-1.08 1.14.12-1.07.41-2.1.88-3.09a17.56 17.56 0 0 1 1.75-2.96c1.08 1.2 2.38 2.1 3.9 2.7-.46.84-.39 1.61.24 2.3.84.95 2.25.76 2.92-.24.4-.6.44-1.24.13-1.94-.34-.75-1-1.07-2-.97.64-.06 1.27 0 1.89.17a.18.18 0 0 0 .19-.07.17.17 0 0 0 0-.2c-1.07-1.44-2.34-1.23-4-1.35 1.91-.57 3.34-.18 4.42 1.45a.3.3 0 0 0 .26.13.3.3 0 0 0 .26-.15c.26-.49.29-1.03.06-1.63l.44.87-.6.99a.26.26 0 0 0 .16.38c.42.13.86.2 1.31.21.9.03 1.92.03 3.06 0 .24 0 .55.08.96.24-.36 1.08.05 2.23 1.18 2.61 1.08.37 2.2-.29 2.43-1.37a1.86 1.86 0 0 0-.5-1.75 8.4 8.4 0 0 0 3.73-3Z" fill="#DD021F"/><path d="M15.76 22.07a.98.98 0 0 0 .07.57 9.84 9.84 0 0 0-.88 3.1l-.86 1.59c-.15-.98.02-1.98.5-3.01.44-.95.83-1.7 1.17-2.25Z" fill="#EE1623"/><path d="M23.77 23.7c.35 0 .63-.28.63-.62a.62.62 0 0 0-.63-.62.62.62 0 0 0-.63.62c0 .34.28.61.63.61ZM33.44 23.7c.35 0 .63-.28.63-.62a.62.62 0 0 0-.63-.61.62.62 0 0 0-.62.6c0 .35.28.62.62.62Z" fill="#fff"/><path d="m41.85 27.28-.73-1.42c-.09-.85-.28-1.68-.57-2.48a1 1 0 0 0 .2-.39 7.77 7.77 0 0 1 1.23 3.87.7.7 0 0 1-.13.42Z" fill="#EE1623"/><path d="m18.66 30.05.35.84a7.77 7.77 0 0 1-3.4-2.76.46.46 0 0 1-.06-.17 3.7 3.7 0 0 1 .3-2.21c.27-.63.57-1.07.9-1.31 1.1-.9 2.71-1.52 4.11-1.12a.1.1 0 0 1 .07.06v.04a.1.1 0 0 1-.01.04c-.14.2-.15.47-.05.82v.1a.13.13 0 0 1-.08.05c-2.25.89-2.88 3.55-2.13 5.62ZM39.39 24.54l.19-.04a.1.1 0 0 1 .07.02.1.1 0 0 1 .04.07c0 .2.03.34.07.4.6 1.08.86 1.62.76 2.78l-.26 1.12c-.5.25-1.03.61-1.57 1.08-.43.37-.97.62-1.6.74.3-.63.47-1.29.5-1.96a4.05 4.05 0 0 0-2.38-4.33.17.17 0 0 1-.09-.09.16.16 0 0 1 0-.12c.1-.25.09-.5-.04-.74a.11.11 0 0 1 .03-.13 4.72 4.72 0 0 1 4.14 1.18c.04.03.09.04.14.02ZM33.19 26.76l.48.6a3.9 3.9 0 0 1-.42 4.51 6.88 6.88 0 0 1-8.38 1.6 5.09 5.09 0 0 1-2.94-3.23c-.33-1.2-.03-2.38.89-3.52a18.3 18.3 0 0 0 2.83-2.26c1.02-.96 2.75-1.07 4.08-.45.25.12.64.44 1.16.97.49.5 1.1.94 1.82 1.33.09.05.25.2.48.45Z" fill="#fff"/><path d="m41.12 25.86.73 1.42c.06.81-.17 1.69-.69 2.64.16-1.35.73-2.43-.14-3.62-.09-.11-.18-.17-.3-.17a.16.16 0 0 0-.16.16l-.04 1.48c.1-1.16-.17-1.7-.76-2.77-.04-.07-.06-.2-.07-.41a.1.1 0 0 0-.04-.07.1.1 0 0 0-.08-.02l-.18.04c.01-.1.04-.15.1-.18.04-.03.1-.01.18.04.6.36 1.09.85 1.45 1.46ZM16.76 24.44c-.34.24-.64.68-.92 1.3a3.7 3.7 0 0 0-.3 2.22c.02.06.04.12.08.17a7.77 7.77 0 0 0 3.4 2.76l.81 1.26.97.94c-.11.08-.27.03-.47-.13a2.25 2.25 0 0 0-.42-.29c-1.71-.8-3.46-2-4.2-3.78-.13-.35-.4-1.18-.77-1.37a.17.17 0 0 0-.2.05 6.79 6.79 0 0 0 .13 2.31 4.53 4.53 0 0 1-.78-2.55l.86-1.6c.27-.4.63-.78 1.08-1.14.26-.2.5-.26.73-.15Z" fill="#F3EFE5"/><path d="m28.01 24.87.56.01c.95.17 1.5.72 1.64 1.66v.2c-.13.94-.72 1.48-1.77 1.62l-.03.01a.08.08 0 0 0-.04.05v.03c.19.79.7 1.26 1.51 1.43a7.11 7.11 0 0 0 1.17-.04c.73-.24 1.14-.73 1.23-1.45a.28.28 0 0 1 .15-.21.3.3 0 0 1 .28 0l.01.01c.1.06.18.15.23.25.05.1.06.22.04.34-.24 1.06-.91 1.7-2.02 1.94-.22.04-.57-.1-.67.19a2.32 2.32 0 0 1-2.28 1.59c-1.08 0-1.9-.58-2.28-1.59-.1-.28-.46-.14-.68-.19-1.1-.23-1.78-.88-2.02-1.93a.53.53 0 0 1 .04-.34c.04-.1.12-.2.23-.25h.01a.3.3 0 0 1 .38.07c.03.04.04.09.05.13.1.72.5 1.2 1.23 1.45a7.15 7.15 0 0 0 1.17.04 1.8 1.8 0 0 0 1.5-1.47.08.08 0 0 0-.03-.05l-.03-.01c-1.05-.13-1.64-.68-1.77-1.62a.71.71 0 0 1 0-.2c.14-.94.68-1.49 1.63-1.65l.56-.02Z" fill="#180106"/><path d="M29.26 26.13h-2.49c.4-.58 1.14-.49 1.8-.43.29.03.51.17.69.43Z" fill="#fff"/><path d="M41.16 29.92a9.3 9.3 0 0 1-4.93 3.75l-.1-.04a.04.04 0 0 1-.02-.07l.03-.03a.03.03 0 0 0 0-.05h-.03a85 85 0 0 0-1.12.33c-.4.12-.81.2-1.26.23l1.19-.75c.03.12-.03.2-.16.23a.08.08 0 0 0-.05.04.08.08 0 0 0 0 .06.08.08 0 0 0 .06.07h.04c.2-.06.33-.14.4-.26.18-.27.4-.48.66-.6 1.9-.95 3.56-1.95 4.4-3.94l.25-1.12.04-1.48a.16.16 0 0 1 .16-.16c.12 0 .21.06.3.17.87 1.19.3 2.27.14 3.62Z" fill="#E1D2BB"/><path d="M26.77 26.13h2.49c.16.17.2.4.13.72 0 .02 0 .03-.02.04a.09.09 0 0 1-.04.02.09.09 0 0 1-.09-.02c-.22-.27-.47-.25-.76.06-.34.12-.67.11-.98-.02-.26-.29-.49-.3-.69-.05a.1.1 0 0 1-.1.04.1.1 0 0 1-.08-.08c-.07-.3-.02-.54.14-.71Z" fill="#AD2642"/><path d="M28.48 26.95c-.04.04-.04.08-.02.12l.05.03.06.04c.04 0 .08.01.1.03.04.03.06.06.07.1a.18.18 0 0 1-.07.2c-.24.16-.5.23-.78.2-.47-.03-.73-.33-.39-.74.31.13.64.14.98.02Z" fill="#6E0010"/><path d="m20.8 33.09 1.54.95-1.93-.39a.08.08 0 0 0-.08.02l-.02.03v.04l.02.11c-2.06-.66-4.45-2.02-5.47-3.97a6.79 6.79 0 0 1-.13-2.31.17.17 0 0 1 .21-.05c.38.2.64 1.02.78 1.37.73 1.78 2.48 2.97 4.2 3.78.1.05.24.15.41.3.2.15.36.2.47.12Z" fill="#E1D2BB"/><path d="M37.59 28.75a6.2 6.2 0 0 1-2.67 4.54l-1.19.75-1.2.6-2.33.4-.03-.01-.01-.02-.02-.06.01-.05a7.25 7.25 0 0 0 4.58-3.62c1.19-.71 2.21-1.08 2.86-2.53Z" fill="#BC0216"/><path d="M40.26 28.89c-.83 1.99-2.5 3-4.39 3.93-.26.13-.48.34-.65.61-.08.12-.22.2-.41.25a.08.08 0 0 1-.1-.06v-.06a.08.08 0 0 1 .05-.04c.13-.03.19-.11.16-.23a6.2 6.2 0 0 0 2.17-2.58 3.37 3.37 0 0 0 1.6-.74 7.83 7.83 0 0 1 1.57-1.08Z" fill="#F3EFE5"/><path d="M27.8 33.05a6.87 6.87 0 0 0 5.9-2.84h.05l.04.04v.05a4.99 4.99 0 0 1-2.52 2.92 6.93 6.93 0 0 1-6.93-.24 4.96 4.96 0 0 1-2.3-3.14l.04-.04a.07.07 0 0 1 .09.03 6.85 6.85 0 0 0 5.64 3.22Z" fill="#E1D2BB"/><path d="M29.32 31.02c-.97-.44-1.85-.45-2.63-.02a.45.45 0 0 1-.1-.26c0-.1.06-.16.18-.18a2.28 2.28 0 0 0 1.18-.67.12.12 0 0 1 .13.02c.33.31.76.55 1.27.72.03 0 .06.03.08.06.01.02.02.06.01.09a.64.64 0 0 1-.12.24Z" fill="#DD021F"/><path d="M21.4 31.52c.35.59.76 1.13 1.26 1.61l-2.83-.98-.82-1.26-.35-.84 2.75 1.47Z" fill="#BC0216"/><path d="M29.32 31.02c-.88.88-1.76.88-2.63-.02.78-.43 1.66-.42 2.63.02Z" fill="#FE895C"/><path d="M22.66 33.13a7.37 7.37 0 0 0 3.43 1.8.07.07 0 0 1 .02.05V35l-.02.04-.01.02h-.02l-2.6-.43-1.12-.6-1.54-.95-.97-.94 2.83.98Z" fill="#930012"/><path d="M36.23 33.67c-1.17.44-2.4.77-3.7.97l1.2-.6c.45-.03.86-.1 1.26-.23a84.95 84.95 0 0 1 1.16-.31.03.03 0 0 1 0 .03l-.04.03a.04.04 0 0 0-.01.04.04.04 0 0 0 .02.03l.11.04ZM22.34 34.05l1.12.59-3.13-.79-.02-.1v-.05l.02-.03.04-.02h.04l1.93.4Z" fill="#F3EFE5"/><path d="M21.69 36.42c.03.68.21 1.36.55 2.06l-1.18-.85a.09.09 0 0 0-.1 0 .08.08 0 0 0-.04.08c.07.3.2.6.42.85a.07.07 0 0 1-.01.1.07.07 0 0 1-.1 0l-1.92-1.61-1.53-2.1c0-.13.09-.34.27-.64a.12.12 0 0 1 .09-.05.13.13 0 0 1 .1.02l.75.63a.6.6 0 0 0 .09.06l2.6 1.45ZM38.21 34.99l-2.02 2.57-1.28 1.1a.07.07 0 0 1-.1-.03v-.05l.35-.87a.09.09 0 0 0-.03-.1.1.1 0 0 0-.11 0l-1.34.86c.53-.64.7-1.29.52-1.96l2.88-1.54c.16-.09.3-.19.43-.3l.3-.26a.13.13 0 0 1 .1-.03.13.13 0 0 1 .1.06c.15.25.22.43.2.55Z" fill="#6E0010"/><path d="M19.3 37.05a9.3 9.3 0 0 0 6.31 4.67c.33.07.62.07.85 0a.26.26 0 0 0 .16-.15.25.25 0 0 0-.02-.22c-.25-.41-.6-.79-1.04-1.08a19.25 19.25 0 0 0-3.32-1.79 5.25 5.25 0 0 1-.55-2.06c.49.44.98.78 1.47 1.02 1.86.92 3.33 1.54 4.56 2.88.08.09.15.26.2.3a.12.12 0 0 0 .13.02c.02 0 .03-.02.04-.03.67-.83 1.5-1.5 2.48-2l2.14-1.1a6.6 6.6 0 0 0 1.49-1c.18.67 0 1.32-.52 1.96-.27.21-.51.36-.71.44-1.24.5-2.28 1.13-3.13 1.9-.18.17-.27.33-.28.5 0 .04 0 .09.03.13l.09.12c.03.03.08.06.13.07.05.02.1.03.16.03a7.7 7.7 0 0 0 3.42-1.02 9.56 9.56 0 0 0 3.06-3.04l-.02-.03-.02-.02c-.06-.04-.13-.03-.22.01L38.21 35c.44 1.8.26 3.46-.52 5a4.16 4.16 0 0 0-.54-2.17.05.05 0 0 0-.07.03l-.32 1.28a12.6 12.6 0 0 1-3.42 4.1 19.11 19.11 0 0 1-10.83-.03.97.97 0 0 0 .11-.04.13.13 0 0 0-.03-.19c-1.5-1-2.61-2.33-3.3-4l-.31-1.07a.06.06 0 0 0-.05-.04h-.03a2.4 2.4 0 0 0-.47 1.9c.01.06 0 .1-.02.13a.23.23 0 0 1-.14.05 7.87 7.87 0 0 1-.5-4.99l1.54 2.1Z" fill="#930012"/><path d="m19.3 37.05 1.94 1.61a.07.07 0 0 0 .09 0 .07.07 0 0 0 0-.1 1.93 1.93 0 0 1-.4-.85v-.05c0-.02.02-.03.03-.04a.09.09 0 0 1 .1 0l1.18.86c1.15.48 2.26 1.08 3.32 1.79.44.3.8.67 1.04 1.08a.25.25 0 0 1-.14.37c-.23.07-.51.07-.84 0a9.3 9.3 0 0 1-6.31-4.67ZM33.68 38.47l1.34-.87a.1.1 0 0 1 .14.05v.06l-.36.87a.07.07 0 0 0 .03.08.07.07 0 0 0 .09 0l1.27-1.1c.09-.04.16-.05.22-.01a.09.09 0 0 1 .04.05.08.08 0 0 1-.01.06 9.56 9.56 0 0 1-3.05 2.98 7.7 7.7 0 0 1-3.42 1.02c-.05 0-.1 0-.16-.03a.41.41 0 0 1-.13-.07.34.34 0 0 1-.1-.12.3.3 0 0 1-.02-.14c0-.16.1-.32.28-.49.85-.77 1.89-1.4 3.13-1.9.2-.08.44-.23.7-.44Z" fill="#BC0216"/><path d="M19.28 38.97c-.21.15-.37.43-.48.83-.08.32-.05.63.08.91l.01.05a.06.06 0 0 1-.05.05h-.03a3.54 3.54 0 0 1-.54-.87c.06 0 .1-.02.14-.05.02-.02.03-.07.02-.13a2.4 2.4 0 0 1 .47-1.9.06.06 0 0 1 .06.01l.02.03.3 1.07ZM37.7 40l-.45.75-.03.03h-.05a.06.06 0 0 1-.03-.07c.23-.67.1-1.2-.38-1.58l.32-1.28a.05.05 0 0 1 .04-.03.05.05 0 0 1 .05.02c.35.6.53 1.32.52 2.15Z" fill="#6E0010"/><defs><linearGradient id="a" x1="28" y1="0" x2="28" y2="56" gradientUnits="userSpaceOnUse"><stop stop-color="#F72D25"/><stop offset="1" stop-color="#930012"/></linearGradient></defs></svg>