<svg width="224" height="224" viewBox="0 0 56 56" xmlns="http://www.w3.org/2000/svg"><path d="M16 13h3v20h-3V13Z" fill="#F26122"/><path d="M16 13h3v7s-.5-4.5-3-7Z" fill="#F6851F"/><path d="M42 33a13 13 0 1 1-23-8.3V33a10 10 0 1 0 3-7.14v-3.82A13 13 0 0 1 42 33Z" fill="#F26122"/><path d="M42 33c0-8.46-10.25-12.26-17.16-9.1A10.02 10.02 0 0 0 22 25.87v-3.82A13 13 0 0 1 42 33Z" fill="#F6851F"/><path fill-rule="evenodd" d="m26 25-3 1.5V34a6 6 0 1 0 3-5.2V25Zm0 9a3 3 0 1 0 6 0 3 3 0 0 0-6 0Z" fill="#F6851F"/><path d="m23 26.5 3-1.5v3.8a5.97 5.97 0 0 1 7.87 1.7c-1.92 0-4.63-.1-6.37.9-2.96 1.71-3.36 6.12-3.36 6.12A5.97 5.97 0 0 1 23 34v-7.5Z" fill="#F26122"/></svg>