<svg width="224" height="224" viewBox="0 0 56 56" xmlns="http://www.w3.org/2000/svg"><path d="M44.65 36.5a8.14 8.14 0 1 1-16.29 0 8.14 8.14 0 0 1 16.29 0Z" fill="#F47226"/><path d="M28.83 11a17.1 17.1 0 0 1 10.98 4.8 16.94 16.94 0 0 1 4.62 16.58A8.96 8.96 0 0 0 34.4 27.8a18855.5 18855.5 0 0 0-5.86-11.5c-.36-.71-1.13-.71-1.48-.02a17237.1 17237.1 0 0 1-7.8 15.39l.02.04 8.52 7.83a.14.14 0 0 0 .15.02l.06-.03a.1.1 0 0 1 .11.02l.02.03a8.97 8.97 0 0 0 4.23 4.83c-3.47.91-6.9.75-10.26-.5A17.02 17.02 0 0 1 11 28.83v-1.66A17.11 17.11 0 0 1 27.15 11h1.68Z" fill="#101010"/><path d="m31.62 24.55-3.8 1.82a.07.07 0 0 1-.06 0l-3.78-1.83a.07.07 0 0 1-.04-.1l3.8-7.46a.07.07 0 0 1 .06-.04.07.07 0 0 1 .06.04l3.8 7.47a.07.07 0 0 1 0 .05.07.07 0 0 1-.04.05ZM23.54 25.32l3.56 1.72a.05.05 0 0 1 .03.05l-.84 4.8a.05.05 0 0 1-.07.02l-3.05-2.07a.05.05 0 0 0-.05 0l-2.47 1.25a.05.05 0 0 1-.06-.03v-.03l2.9-5.69a.05.05 0 0 1 .05-.02ZM27.25 31.66l.74-4.21a.28.28 0 0 1 .15-.21l3.84-1.84a.14.14 0 0 1 .19.06l1.3 2.58.01.02a.06.06 0 0 1-.03.06 8.85 8.85 0 0 0-4.02 2.96c-.08.1-.2.18-.32.2l-1.79.44h-.05c0-.02-.01-.02-.02-.03v-.03ZM26.22 32.61a.08.08 0 0 1 .02-.06.08.08 0 0 1 .05-.03l.71-.14a.1.1 0 0 1 .1.04l.02.04.5 2.62c.03.12.04.25.02.37a9.16 9.16 0 0 0 .28 3.5.16.16 0 0 1-.13.13l-.1.02a.21.21 0 0 1-.25-.17l-1.22-6.32Z" fill="#101010"/><path fill-rule="evenodd" d="M39.26 34.15c-.07-.16-.17-.24-.29-.24-.12 0-.21.08-.28.24a.1.1 0 0 1-.21-.03l-.06-.33a.14.14 0 0 0-.16-.11l-.16.03a.13.13 0 0 0-.1.14c.03.32.21.57.51.79.2.14.25.36.17.67a.18.18 0 0 1-.08.1c-.42.28-.63.64-.63 1.1 0 .46.21.82.63 1.1.04.02.06.06.08.1.08.3.02.53-.17.67-.3.22-.48.46-.52.8a.13.13 0 0 0 .1.13l.17.03c.03 0 .07 0 .1-.03a.14.14 0 0 0 .06-.09l.06-.32a.1.1 0 0 1 .2-.03c.08.16.17.24.3.24.1 0 .2-.08.28-.24a.1.1 0 0 1 .2.03l.06.32c0 .04.03.07.06.1.03.02.07.03.1.02l.17-.03a.13.13 0 0 0 .1-.14c-.04-.33-.22-.57-.52-.8-.19-.13-.24-.36-.16-.66a.18.18 0 0 1 .08-.1c.41-.28.62-.64.62-1.1 0-.46-.2-.82-.62-1.1a.18.18 0 0 1-.08-.1c-.08-.3-.03-.53.16-.67.3-.22.48-.47.52-.8a.13.13 0 0 0-.1-.13l-.16-.03c-.04 0-.08 0-.11.02a.14.14 0 0 0-.06.1l-.06.32a.1.1 0 0 1-.16.08.1.1 0 0 1-.04-.05ZM38.49 36a2.13 2.13 0 0 0 0 1 .11.11 0 0 0 .2.04c.1-.15.2-.23.28-.23.08 0 .17.08.28.24a.11.11 0 0 0 .2-.04c.04-.14.05-.3.05-.5s-.01-.36-.05-.5a.11.11 0 0 0-.2-.04c-.1.16-.2.24-.28.24-.08 0-.18-.08-.28-.24a.11.11 0 0 0-.2.03Zm-5.1-1.9c.23 0 .47.02.72.07a.21.21 0 0 0 .17-.04c.62-.47 1.53-.68 1.97.15.27.5.01 1.1-.27 1.55a.21.21 0 0 0 .01.23l.52.72.03.05c.18.49.17.92-.04 1.31-.4.76-1.26.9-2.05.87a.56.56 0 0 0-.35.1c-.2.15-.42.2-.71.2-.3 0-.51-.05-.72-.2a.55.55 0 0 0-.35-.1c-.8.04-1.65-.11-2.05-.87a1.52 1.52 0 0 1 0-1.36l.51-.72a.21.21 0 0 0 0-.24c-.27-.45-.53-1.04-.26-1.54.44-.84 1.35-.62 1.98-.15a.2.2 0 0 0 .16.04c.25-.05.49-.07.73-.07Zm8.5-.42c.08 0 .13.01.17.05a14.28 14.28 0 0 0 .61.58c.31.5.3.99 0 1.46-.07.1-.2.21-.32.3l-.1.08a.22.22 0 0 0-.08.12l-.01.24.01.24c.01.04.04.08.07.11l.11.09c.11.08.25.19.32.29.3.48.31.97 0 1.46a13.54 13.54 0 0 0-.62.59c-.03.03-.08.05-.16.05s-.13-.02-.17-.05a13.54 13.54 0 0 0-.61-.59c-.3-.5-.3-.98 0-1.46.07-.1.21-.2.32-.3l.11-.08a.22.22 0 0 0 .07-.11l.01-.24-.01-.24a.22.22 0 0 0-.07-.12l-.1-.08a1.38 1.38 0 0 1-.32-.3 1.27 1.27 0 0 1-.01-1.46 13.54 13.54 0 0 0 .62-.59c.03-.03.08-.04.16-.04Zm.28.83c-.1.15-.2.23-.28.23-.08 0-.17-.08-.27-.24a.11.11 0 0 0-.12-.05.11.11 0 0 0-.09.09c-.03.14-.05.3-.05.5 0 .19.01.36.05.5a.11.11 0 0 0 .15.07c.02 0 .04-.02.05-.04.1-.15.2-.23.28-.23.08 0 .17.08.27.23a.11.11 0 0 0 .17.03.11.11 0 0 0 .04-.06c.03-.14.05-.3.05-.5s-.01-.36-.05-.5a.11.11 0 0 0-.2-.03Zm.2 3.95c.04-.14.06-.3.06-.5s-.01-.36-.05-.5a.11.11 0 0 0-.15-.08.11.11 0 0 0-.05.04c-.1.16-.2.23-.29.23-.08 0-.17-.08-.27-.24a.11.11 0 0 0-.17-.02.11.11 0 0 0-.03.06c-.04.14-.06.3-.06.5s.01.36.05.5a.11.11 0 0 0 .15.08c.02 0 .04-.02.05-.04.1-.16.2-.23.29-.23.08 0 .17.08.27.24a.11.11 0 0 0 .11.05.11.11 0 0 0 .1-.09Z" fill="#101010"/></svg>