<svg width="112" height="112" viewBox="0 0 56 56" xmlns="http://www.w3.org/2000/svg"><path fill="#FFB300" d="M0 0h56v56H0z"/><path d="M45 28a17 17 0 1 1-34 0 17 17 0 0 1 34 0Z" fill="#FFE082"/><path d="M40.66 28a12.66 12.66 0 1 1-25.32 0 12.66 12.66 0 0 1 25.32 0Z" fill="#FFB300"/><path d="M29.1 17.86c.03-.03.04 0 .04.1-.82.25-1.34.97-.98 1.83a.05.05 0 0 0 .05.03h.03l.02-.03a1.9 1.9 0 0 1 1.03-1.25.04.04 0 0 0 .01-.03v-.02l-.03-.05h-.02l-.58.24a.06.06 0 0 1-.07-.05v-.03c.2-.26.43-.42.7-.5.46-.15.54-.28.23-.37.29-.21.49-.5.6-.88a.05.05 0 0 1 .07-.03l.02.03a2.73 2.73 0 0 1-.37 1.83.06.06 0 0 0 .07.06c.53-.07.94-.34 1.21-.8a.05.05 0 0 1 .1.03c-.08.6-.33 1.16-.76 1.7-.17.09-.39.15-.66.18a.06.06 0 0 0-.05.05.05.05 0 0 0 .05.06c.35.09.87.2 1.23.06.19-.08.26-.19.22-.34.13-.1.27-.15.42-.16a.04.04 0 0 1 .04.02v.03l-.01.02c-.1.09-.23.13-.3.28-.24.52-.64.89-1.18 1.1l-.25.04a3.1 3.1 0 0 1-1.35-.22.32.32 0 0 0-.25 0c-.47.24-.9.21-1.31-.06a.16.16 0 0 0-.17-.01c-.2.12-.4.18-.63.18-.2-.04-.34-.05-.41-.04a3.97 3.97 0 0 0-1.89-.59l-.01-.02a.05.05 0 0 1 .02-.06c.18-.14.35-.18.5-.13a3.2 3.2 0 0 0 1.38.19.07.07 0 0 0 .02-.09.07.07 0 0 0-.03-.03c-.43-.25-1.08-.7-1.12-1.24l.52.4c.14.1.29.15.46.17.14 0 .24-.1.29-.26a.33.33 0 0 0 0-.16c-.14-.63-.47-.96-1-.97-.09-.01-.16-.07-.21-.17a.08.08 0 0 1 0-.07.08.08 0 0 1 .06-.04c.25-.05.5-.01.75.1a.06.06 0 0 0 .08-.03v-.03c-.04-.26-.24-.73.02-1.03a.06.06 0 0 1 .05-.02.06.06 0 0 1 .05.04c.25.5.63.83 1.15 1 .03.1.07.14.12.13a.3.3 0 0 0 .26-.33c-.04-.5-.22-.77-.53-.8l-.28-.59v-.03l.01-.02a.05.05 0 0 1 .05-.02c.57.19 1.03.51 1.4.97-.16.37-.39.72-.17 1.12a.1.1 0 0 0 .1.05.1.1 0 0 0 .07-.07c.1-.48.3-.93.6-1.35a.43.43 0 0 0 .07-.19c.04-.23-.02-.35-.18-.34.03-.16.08-.3.15-.42a.06.06 0 0 1 .08-.03l.02.02c.49.55.62 1.2.39 1.94Z"/><path d="M28.47 16.35c.16-.01.22.1.18.34 0 .07-.03.13-.07.19a3.78 3.78 0 0 0-.63 1.4.1.1 0 0 1-.05.02.1.1 0 0 1-.1-.05c-.2-.4.02-.75.18-1.12.2-.2.36-.46.5-.78ZM26.95 17.81l-.15-1c.3.04.48.31.53.81a.3.3 0 0 1-.26.33c-.05 0-.1-.04-.12-.14ZM29.53 17.73c.31.1.23.22-.23.37-.05-.08-.1-.13-.16-.14 0-.1 0-.13-.03-.1.13 0 .27-.04.42-.13Z" fill="#054F77"/><path d="M29.3 18.1c-.27.08-.5.24-.7.5a.06.06 0 0 0 .07.08l.58-.24a.02.02 0 0 1 .02 0l.03.05v.02a.04.04 0 0 1 0 .03h-.02a1.9 1.9 0 0 0-1.02 1.25l-.02.02a.05.05 0 0 1-.06 0c-.01 0-.02 0-.02-.02-.36-.86.16-1.58.98-1.83.06.01.11.06.16.14Z" fill="#5390C9"/><path d="M25.7 19.46a.8.8 0 0 0-.1-.5l-.6-.89c.53.01.86.34 1 .97v.16c-.05.17-.15.25-.3.26ZM24.73 18.89c.04.54.69.99 1.12 1.24a.07.07 0 0 1 .04.08.07.07 0 0 1-.07.05 3.2 3.2 0 0 1-1.34-.2.46.46 0 0 1 .42-.03.08.08 0 0 0 .1-.14 1.97 1.97 0 0 1-.6-1.28.05.05 0 0 1 .07-.01c.1.07.19.17.26.29Z" fill="#054F77"/><path d="M25.7 19.46a1.1 1.1 0 0 1-.45-.16.5.5 0 0 0 .36-.34c.1.2.12.36.1.5Z" fill="#B4D5EE"/><path d="m30.47 19.66.79.02c.04.15-.03.26-.22.34-.36.14-.88.03-1.23-.06a.05.05 0 0 1-.05-.06.06.06 0 0 1 .05-.05c.27-.03.5-.1.66-.19Z" fill="#054F77"/><path d="M29.98 21.01c.04.09.08.15.13.2-.14-.01-.19.07-.13.25.03.08.09.18.18.32a18.43 18.43 0 0 1 1.59 2.71h-.15a.3.3 0 0 1-.14-.03c-.77-.42-1.9-.35-2.43-.45-.3-.06-.52.05-.8-.05a.3.3 0 0 0-.22 0c-.2.09-.4.07-.61-.04-.48-.1-.91-.03-1.3.21a.27.27 0 0 1-.2.03.74.74 0 0 0-.5.06.24.24 0 0 1-.16.03c-.32-.06-.67.2-1.02.25.47-.92 1.04-1.77 1.7-2.54.24-.27.35-.57.33-.9-.03-.02-.02-.07.02-.16.22 0 .43-.06.63-.18a.15.15 0 0 1 .08-.02c.03 0 .06 0 .08.03.41.27.85.3 1.32.07a.31.31 0 0 1 .25 0c.44.17.89.24 1.35.21Z" fill="#FEDC00"/><path d="M26.27 20.9c-.04.09-.05.14-.02.16-.1 0-.17 0-.2.03-.46.5-.83.96-1.09 1.38a15.84 15.84 0 0 0-2.35 7.77c-.22 1.6.06 3.23.84 4.87.24.5.56.86.95 1.07.25.13.7.29 1.37.47a8.7 8.7 0 0 0 5.75-.4c1.43-.79 1.95-3.15 1.98-4.63.03-1.47-.15-2.88-.55-4.24a18.78 18.78 0 0 0-1.98-4.98 7.26 7.26 0 0 0-.86-1.2.62.62 0 0 1-.13-.19l.25-.05c.4.44.68.8.85 1.08a19.28 19.28 0 0 1 2.34 5.88.16.16 0 0 0 .17.12c2.11-.2 2.31 3.6.34 3.9a.18.18 0 0 0-.15.17 7.74 7.74 0 0 1-.59 2.48c-.08.2-.14.4-.17.58-.13.1-.18.16-.15.15-.38.65-.9 1.1-1.54 1.36-1.61.62-3.45.6-5.14.33-1.25-.2-2.47-.45-3-1.64l-.1-.05c.02-.09.03-.16 0-.2a9.62 9.62 0 0 1-.86-3.03.12.12 0 0 0-.11-.1c-.68-.06-1.13-.45-1.34-1.17-.25-.86-.12-1.78.54-2.4.3-.3.7-.38 1.08-.3a.1.1 0 0 0 .11-.08 15.37 15.37 0 0 1 3.35-7.18c.07-.01.21 0 .41.04Z" fill="#F37F1F"/><path d="M26.25 21.06c.02.33-.09.63-.32.9-.67.77-1.24 1.62-1.7 2.54l-.14.26a25.04 25.04 0 0 0-1.48 5.48c.13-2.86.91-5.45 2.35-7.77.26-.42.63-.88 1.1-1.38.02-.02.09-.03.2-.03ZM30.1 21.2c.34.38.63.78.87 1.2.89 1.55 1.55 3.2 1.98 4.98A13.1 13.1 0 0 1 31.93 25a.34.34 0 0 1-.01-.14c0-.07 0-.14-.02-.2l-.15-.18a18.41 18.41 0 0 0-1.6-2.71 1.42 1.42 0 0 1-.17-.32c-.06-.18-.01-.26.13-.26Z" fill="#FFE082"/><path d="m27.4 23.92-1 .18a.14.14 0 0 0-.1.1l-.03.07a.06.06 0 0 0 .01.05.06.06 0 0 0 .05.03l1.33-.04c.03 0 .06 0 .09-.02l.1-.06c.04-.02.1 0 .2.03.3.1.44-.11.66 0 .07.04.17.02.28-.05a.17.17 0 0 1 .17-.01c.28.16.6.24.95.24a8 8 0 0 0 1.13.24c.1.02.17 0 .2-.06a.09.09 0 0 1 .1-.04c.17.04.28.12.32.26-.05.31-.2.5-.44.57a.22.22 0 0 1-.11 0l-1.25-.38a.3.3 0 0 0-.14-.01c-.51.06-.94.03-1.27-.1a.25.25 0 0 0-.17 0l-.14.05a.61.61 0 0 1-.25.03c-.3-.02-.75 0-1.34.06-.1.01-.27-.01-.48-.06a.22.22 0 0 0-.17.03 5.05 5.05 0 0 1-1.27.4.31.31 0 0 1-.28.09.29.29 0 0 1-.22-.2 3.22 3.22 0 0 0-.24-.56l.13-.26c.35-.05.7-.31 1.02-.25.05 0 .11 0 .16-.03.14-.07.31-.1.5-.06.07.02.14 0 .2-.03.39-.24.83-.31 1.3-.21Z"/><path d="M27.4 23.92c.2.11.41.13.61.05a.3.3 0 0 1 .21 0c.29.09.5-.02.81.04.53.1 1.66.03 2.43.45.04.02.09.03.14.03h.15l.15.18-.04.17c-.04-.14-.15-.22-.33-.26a.1.1 0 0 0-.05 0 .08.08 0 0 0-.03.04c-.05.06-.12.08-.21.06a8 8 0 0 1-1.13-.24c-.35 0-.67-.08-.95-.24a.17.17 0 0 0-.17 0c-.12.08-.2.1-.28.06-.23-.11-.36.1-.66 0-.1-.04-.16-.05-.2-.03l-.1.06a.22.22 0 0 1-.1.02l-1.32.04a.06.06 0 0 1-.05-.03.06.06 0 0 1 0-.05l.01-.07a.15.15 0 0 1 .12-.1l.99-.18ZM25.25 24.7c.42-.08.74-.23.72-.32-.02-.1-.38-.1-.8 0-.41.08-.74.23-.72.32.02.1.38.1.8 0Z" fill="#054F77"/><path d="M32.95 27.38c.4 1.36.58 2.77.55 4.24-.03 1.48-.55 3.84-1.98 4.63a8.7 8.7 0 0 1-5.74.4 7.73 7.73 0 0 1-1.38-.47c-.4-.2-.7-.56-.95-1.07a8.46 8.46 0 0 1-.84-4.87c.3-1.96.8-3.79 1.48-5.48.1.19.18.38.24.56a.28.28 0 0 0 .21.2.3.3 0 0 0 .29-.1c.03-.02.08-.04.16-.04l.16-.03a5.05 5.05 0 0 0 1.03-.35h.1c.2.05.36.07.47.06a7.8 7.8 0 0 1 1.34-.06c.08.01.17 0 .25-.03l.14-.05a.25.25 0 0 1 .17 0c.33.13.76.16 1.27.1.05-.01.1 0 .14 0l1.25.39h.11c.25-.07.4-.26.44-.57l.04-.17c.02.06.02.13.02.2-.01.05 0 .1 0 .14.27.82.6 1.6 1.03 2.37Z" fill="#FEDC00"/><path d="m28.48 33.52-1.31-.03c-.6-.4-1-.85-1.2-1.38a3.11 3.11 0 0 1 .04-2.4.08.08 0 0 0-.04-.06.08.08 0 0 0-.03-.02c-.87-.08-1.41-.46-1.65-1.15-.28-.8-.01-1.7.73-2.17.63-.4 1.6-.3 2.17.25.45.44.62 1 .49 1.65a.1.1 0 0 0 .02.09.1.1 0 0 0 .08.03h.46a.13.13 0 0 0 .13-.14c-.1-.81.15-1.42.76-1.8 1.64-1.06 3.56.94 2.4 2.53-.33.46-.83.71-1.5.74a.1.1 0 0 0-.1.1v.04c.4 1.15.26 2.34-.65 3.19-.2.19-.46.36-.8.53Z" fill="#F37F1F"/><path d="M26.72 28.77c-.17.14-.33.32-.48.55a.21.21 0 0 1-.15.1c-.94.15-1.7-.73-1.72-1.55a1.54 1.54 0 0 1 1.96-1.58c.8.18 1.5 1.11 1.14 2a.21.21 0 0 1-.12.13c-.25.1-.47.22-.63.35ZM31.14 26.66c1.2 1.05.28 2.97-1.27 2.8a.22.22 0 0 1-.15-.1 3.37 3.37 0 0 0-.46-.54c-.13-.1-.33-.23-.6-.38a.22.22 0 0 1-.12-.14c-.38-1.51 1.4-2.7 2.6-1.64Z" fill="#fff"/><path d="M26.16 28.63a.7.7 0 1 0 0-1.4.7.7 0 0 0 0 1.4ZM29.9 28.65a.7.7 0 1 0 0-1.4.7.7 0 0 0 0 1.4Z"/><path d="M34.34 28.51c-.23.11-.5.12-.78.03-.13-.42.13-.43.78-.03ZM22.36 28.83a1.92 1.92 0 0 0-.97.02c.82-.67 1.14-.67.97-.02Z" fill="#FFE082"/><path d="M33.56 28.54c.29.1.55.08.78-.03.12.1.2.18.23.22.27.36.37.98.29 1.85-.03.27-.14.51-.33.7l-.35.35a.2.2 0 0 1-.22.04.2.2 0 0 1-.12-.19c.02-.9-.07-1.88-.28-2.94ZM22.36 28.83l-.16 2.82a.07.07 0 0 1-.1.07c-1-.2-1.21-1.26-1.06-2.1.06-.3.18-.57.35-.77.41-.1.74-.1.97-.02Z" fill="#FEDC00"/><path d="M29.29 29.44c.03.14.03.23 0 .3a.09.09 0 0 1-.11.05.09.09 0 0 1-.04-.03c-.63-.68-1.37-.8-2.2-.34h-.05l-.04-.04a.06.06 0 0 1-.02-.06.06.06 0 0 1 .03-.05.96.96 0 0 0 .35-.3 1.68 1.68 0 0 1 2.08.47Z" fill="#FFE082"/><path d="M27.2 28.97a.96.96 0 0 1-.34.3.06.06 0 0 0-.03.05.06.06 0 0 0 .02.06l.04.03a.04.04 0 0 0 .04.01c.84-.45 1.58-.34 2.21.34a.09.09 0 0 0 .15-.02c.03-.07.03-.16 0-.3a1.67 1.67 0 0 1-1.48 2.7 1.7 1.7 0 0 1-1.42-1.1 1.68 1.68 0 0 1 .82-2.07Z" fill="#F69628"/><path d="m27.17 33.5 1.3.02c.85 0 1.66-.04 2.44-.15.5-.06 1.08-.1 1.4-.38a.1.1 0 0 1 .17.06.61.61 0 0 1-.15.53.08.08 0 0 1-.1.03.08.08 0 0 1-.05-.07v-.03a.11.11 0 0 0-.14-.1c-.31.06-.5.13-.57.22l-.56.68a4.46 4.46 0 0 1-6.03-.23 2.65 2.65 0 0 0-.46-.67.96.96 0 0 0-.52-.2.12.12 0 0 0-.13.1l-.02.05a.07.07 0 0 1-.05.05.07.07 0 0 1-.07-.01c-.12-.11-.17-.28-.17-.51a.13.13 0 0 1 .2-.1c.28.2.59.32.93.38.79.14 1.65.25 2.58.32Z" fill="#ED3F41"/><path d="M29.37 33.8a.02.02 0 0 1 .02.02c-.01.19-.16.36-.43.48s-.63.18-1 .18h-.05c-.19 0-.37-.03-.54-.07-.17-.04-.33-.1-.45-.16a.94.94 0 0 1-.3-.23.4.4 0 0 1-.1-.27v-.01l.01-.01 2.84.07Z" fill="#F18EAD"/><path d="M24.89 34.08a4.47 4.47 0 0 0 6.02.23c-.6.94-1.55 1.4-2.87 1.37a6.34 6.34 0 0 1-1.38-.16c-.9-.23-1.49-.71-1.77-1.44Z" fill="#FFE082"/><path d="M33.02 35.17c.25.23.32.53.22.9-.06.24-.22.36-.31.56a.26.26 0 0 0-.03.17c.25 1.32-1.03 2.05-2.1 2.32-1.84.47-3.76.44-5.78-.08-1.04-.27-1.89-.88-1.81-2.06a.27.27 0 0 0-.06-.18 4.17 4.17 0 0 0-.21-.26c-.35-.38-.22-.9.14-1.22l.1.05c0 .49-.26.76.21 1.18.4.36.87.55 1.27.88a.06.06 0 0 1 .02.07.06.06 0 0 1-.06.04.73.73 0 0 1-.3-.09 2.17 2.17 0 0 1-.74-.35.04.04 0 0 0-.04.03v.02c.07.66.44 1.14 1.1 1.45 2 .6 4.03.67 6.12.19.3-.07.63-.22 1-.46.54-.27.83-.65.86-1.15.05-.04.08-.13.09-.27a.04.04 0 0 0-.07-.04 2.05 2.05 0 0 1-.9.45.04.04 0 0 1-.03-.04l.01-.03c.65-.57 1.43-.89 1.15-1.93-.03 0 .02-.04.15-.15Z" fill="#5390C9"/><path d="M32.62 37.18c-.36.14-.64.53-.86 1.15-.37.24-.7.39-1 .46a11.6 11.6 0 0 1-6.11-.2 1 1 0 0 0-.25-.52c-.21-.25-.24-.45-.09-.62.14.06.24.1.31.09a.06.06 0 0 0 .05-.04.06.06 0 0 0-.01-.07c-.4-.33-.87-.52-1.27-.88-.47-.42-.21-.69-.2-1.18.53 1.19 1.75 1.44 3 1.64 1.69.27 3.53.3 5.14-.33.65-.25 1.16-.7 1.54-1.36.28 1.04-.5 1.36-1.15 1.93a.04.04 0 0 0 .04.08 2.05 2.05 0 0 0 .9-.47h.02a.05.05 0 0 1 .03.05c0 .14-.04.23-.1.27Z" fill="#fff"/><path d="M24.31 37.45c-.15.17-.12.37.09.62a1 1 0 0 1 .25.53c-.67-.31-1.04-.8-1.11-1.45v-.02a.04.04 0 0 1 .07-.02c.23.17.47.28.7.34ZM32.62 37.18c-.03.5-.32.88-.86 1.15.22-.62.5-1 .86-1.15Z" fill="#B4D5EE"/><path d="M33.98 39.92c-.01.24.01.48.08.73.02.09-.06.16-.25.23a.87.87 0 0 1-.31-.41c-.09-.16-.27-.17-.56-.04a.1.1 0 0 0-.05.06.1.1 0 0 0 0 .07l.82 2.32c.33-.1.52-.03.57.19-.57.11-1.1.32-1.61.63-.07-.21-.05-.36.07-.45.13-.1.17-.24.11-.4-.2-.53-.4-1.12-.62-1.76a.56.56 0 0 0-.1-.18c.03-.06.04-.11.03-.15-.02-.04-.07-.05-.13-.03a9.24 9.24 0 0 0-.45.2.15.15 0 0 0-.04.12c0 .02 0 .04.02.05.16.31.1.51-.18.62a2.29 2.29 0 0 1-.48-.93.1.1 0 0 1 .06-.1c.87-.3 1.73-.6 2.6-.88.18-.06.32-.02.42.11ZM24.72 40.9c.06.58-.17.93-.67 1.06a.05.05 0 0 0-.04.06c0 .01 0 .02.02.03.05.04.13.07.23.1-.05.01-.04.07.04.17.4.95-.54 1.34-1.3 1.1-.06 0-.55-.17-1.47-.46-.07-.02-.11-.02-.12.01a.52.52 0 0 1-.14-.14.08.08 0 0 1 .06-.12c.28-.05.43-.12.45-.21.13-.43.36-1.12.68-2.07a.24.24 0 0 0-.06-.25c-.14-.14-.2-.23-.16-.29.03-.06.08-.08.15-.06.42.1.9.25 1.42.44.38.13.68.34.9.62Z" fill="#FFB300"/><path d="M33.98 39.92c.16.28.25.58.26.9a.14.14 0 0 1-.07.13c-.17.1-.29.07-.36-.07.19-.07.27-.14.25-.23a2.2 2.2 0 0 1-.08-.73ZM33.5 40.47l-.37.1a.13.13 0 0 0-.1.11v.06l.68 2.14-.82-2.32a.1.1 0 0 1 0-.07.1.1 0 0 1 .05-.06c.29-.13.47-.12.56.04ZM23.89 40.8l-.4-.04c-.03 0-.05 0-.08.02a.11.11 0 0 0-.04.06l-.2.67c-.09.03-.16.02-.2 0-.06-.05-.08-.1-.04-.2.09-.22.16-.44.23-.65a.15.15 0 0 1 .14-.1c.26-.01.46.07.59.25Z" fill="#53451F"/><path d="M23.89 40.8c.32.5-.2.96-.72.7l.2-.66c0-.02.02-.05.04-.06a.12.12 0 0 1 .08-.02l.4.05Z" fill="#FFE082"/><path d="M30.84 41.4c.12.54-.03.95-.44 1.24a.09.09 0 0 0-.04.08c0 .08.06.14.16.15.26.4.58.74.96 1.02-.3.06-.58.1-.83.13-.04 0-.06.03-.08.08-.08-.02-.12-.05-.14-.07a92.7 92.7 0 0 0-.56-.82c-.08-.13-.22-.17-.41-.12l.21-.03a.07.07 0 0 0 .05-.05.07.07 0 0 0-.01-.07c-.1-.09-.22-.1-.37-.03a.14.14 0 0 0-.08.11c-.04.47.04.75.25.84.13-.03.23.04.3.2l-1.42.25c-.1-.03-.16-.08-.18-.17l.01-.06a.1.1 0 0 1 .04-.03l.22-.13a.18.18 0 0 0 .09-.18l-.24-2.23c.03-.1 0-.17-.08-.2-.07-.02-.11 0-.13.05l-.23-.04c-.02-.05-.05-.08-.1-.09-.04 0-.07.01-.09.07-.05.15-.08.3-.1.46 0 .03-.02.06-.04.08a.17.17 0 0 1-.07.05l-.23.08c-.13-.11-.17-.27-.12-.47a1.2 1.2 0 0 0-.82-.26.12.12 0 0 0-.11.08c-.13.45-.12.78.03 1 .37-.04.64-.05.81-.02.07.02.13.08.17.2l-.1.2a.12.12 0 0 1-.13.08l-.85-.1a.08.08 0 0 0-.06 0 .08.08 0 0 0-.03.06l-.1.84a.1.1 0 0 0 .04.1.1.1 0 0 0 .1.01.27.27 0 0 0 .09-.05l.6.06a.15.15 0 0 0 .15-.07.75.75 0 0 0 .09-.24.18.18 0 0 1 .16-.16c.13-.02.27.04.42.17-.12.2-.21.45-.27.73a.1.1 0 0 1-.1.08c-.7-.07-1.4-.14-2.08-.23-.05 0-.13.02-.23.07l-.1-.14a.09.09 0 0 1 0-.1.1.1 0 0 1 .03-.03l.3-.17a.12.12 0 0 0 .07-.09l.25-2.14a.16.16 0 0 0-.06-.14.74.74 0 0 1-.25-.37.08.08 0 0 1 .01-.08.08.08 0 0 1 .07-.02l2.61.3a1.28 1.28 0 0 1 3 .32Z" fill="#FFB300"/><path d="m32.13 40.91-.35.17a.16.16 0 0 0-.09.16l.02.06.14.24a.14.14 0 0 1-.04.19c-.19.12-.33.12-.43-.01.28-.1.34-.31.18-.62a.15.15 0 0 1 .02-.16 9.12 9.12 0 0 1 .45-.2c.06-.03.1-.02.13.02 0 .04 0 .09-.03.15ZM24.72 40.9c.4.57.24.99-.46 1.24a.54.54 0 0 1-.23-.1A.05.05 0 0 1 24 42a.05.05 0 0 1 .04-.04c.5-.13.73-.48.67-1.07ZM29.95 41.34l-.58.18a.1.1 0 0 0-.08.11l.07.9c-.21-.18-.3-.54-.28-1.07a.15.15 0 0 1 .09-.12c.3-.16.56-.16.78 0ZM27.14 41.5l-.6-.03a.1.1 0 0 0-.06.01.09.09 0 0 0-.04.06l-.2.78c-.15-.22-.16-.55-.03-1a.12.12 0 0 1 .1-.08c.36 0 .63.09.83.26ZM27.89 41.32c0 .18-.02.35-.06.52-.04.16-.11.25-.22.27-.1.02-.22-.03-.35-.14l.23-.08a.17.17 0 0 0 .1-.13c.03-.15.06-.3.11-.46.02-.06.05-.08.1-.07.04.01.07.04.09.1Z" fill="#53451F"/><path d="M29.95 41.34c.36.68.17 1.08-.59 1.2l-.07-.9a.1.1 0 0 1 .08-.12l.58-.19Z" fill="#FFE082"/><path d="M30.84 41.4c.38.54.27 1.03-.32 1.47-.1-.01-.15-.07-.16-.15a.09.09 0 0 1 .04-.08c.41-.29.56-.7.44-1.24ZM23.43 42.1c-.33-.26-.59.03-.78.86-.21-.23-.18-.58.1-1.07a.14.14 0 0 1 .13-.07c.24.02.42.11.55.27Z" fill="#53451F"/><path d="M23.43 42.1c.3.34.3.62-.02.83-.1.08-.23.11-.37.1a2.05 2.05 0 0 1-.39-.07c.2-.83.45-1.12.78-.87Z" fill="#FFE082"/><path d="M21.4 42.97c.02-.03.06-.03.13-.01l1.47.47c.76.23 1.7-.16 1.3-1.11.56.43.27 1.15-.33 1.36-.54.18-2.07-.43-2.48-.59-.05-.02-.08-.06-.08-.12ZM26.18 43.64a.27.27 0 0 1-.09.05.1.1 0 0 1-.1-.01.1.1 0 0 1-.04-.1l.1-.84a.08.08 0 0 1 .09-.07l.85.1h.08a.12.12 0 0 0 .05-.06l.1-.22c.13-.04.18.09.13.37 0 .03-.02.07-.05.09a.14.14 0 0 1-.1.02l-.82-.1a.1.1 0 0 0-.07.02.1.1 0 0 0-.04.07l-.09.68ZM29.46 43.09l.05.77c-.2-.09-.3-.37-.25-.84a.14.14 0 0 1 .08-.11c.15-.07.27-.06.37.03l.01.03v.04a.07.07 0 0 1-.05.05l-.21.03ZM32.67 43.7c.5-.31 1.04-.52 1.61-.63.05-.05.1-.04.11.04a.1.1 0 0 1-.05.13 5.6 5.6 0 0 1-1.67.46ZM27.6 43.4c.13.27.11.58-.04.95-.01.03-.03.05-.05.06a77 77 0 0 0-2.4-.22.21.21 0 0 1-.19-.14c.1-.05.18-.08.23-.07.69.09 1.38.16 2.07.23a.1.1 0 0 0 .11-.08c.06-.28.15-.52.27-.73ZM30.57 44.1c.02-.05.04-.08.08-.08.25-.03.52-.07.83-.13.08 0 .14.02.16.1a.11.11 0 0 1-.06.12 35.95 35.95 0 0 0-.9.14c-.08.01-.12-.04-.11-.15ZM28.4 44.31l1.42-.25c.13-.03.19.02.15.15 0 .03-.02.05-.04.07a.13.13 0 0 1-.07.03l-1.37.15a.1.1 0 0 1-.07-.02c-.06-.04-.07-.09-.03-.13Z" fill="#53451F"/></svg>