<svg width="224" height="224" xmlns="http://www.w3.org/2000/svg" viewBox="0 0 56 56"><path fill-rule="evenodd" d="M16.363 42h16.82c5.829 0 10.283-5.2 9.387-10.96a9.476 9.476 0 00-1.28-3.495 9.273 9.273 0 001.282-3.493C43.466 18.246 38.974 13 33.096 13H22.26l-2.034 10h-8.249v3h7.64l-.61 3h-7.03v3h6.42l-2.034 10zm5.705-13l.61-3h10.505c1.58 0 3.043.567 4.18 1.522-1.149.933-2.637 1.478-4.267 1.478H22.068zm17.086.93C37.485 31.245 35.363 32 33.096 32H21.458l-1.424 7h13.149c3.988 0 7.036-3.558 6.423-7.499a6.503 6.503 0 00-.452-1.571zm.018-4.804A9.478 9.478 0 0033.182 23h-9.894l1.424-7h8.384c4.036 0 7.126 3.604 6.511 7.596a6.351 6.351 0 01-.435 1.53z" fill="#fff"/></svg>