<svg width="224" height="224" viewBox="0 0 56 56" xmlns="http://www.w3.org/2000/svg"><rect fill="url(#aoxvce0ld)" width="56" height="56" rx="28"/><path d="M25 14h-8v25h5V19h11c.61 0 1 .46 1 1v3c0 .63-.39 1-1 1h-6v5h6c.61 0 1 .55 1 1v3c0 .5-.57 1-1 1h-6v13h5v-8h3.33c3.1 0 3.67-2.04 3.67-3.4V29a2.66 2.66 0 0 0-1.5-2.5c1.04-.54 1.5-2.1 1.5-3v-4.37c0-3.8-2.23-5.13-3.67-5.13H30V9h-5v5Z" fill="#F8E000"/><path d="M22 42h-5v5h5v-5Z" fill="#F8E000"/><defs><linearGradient id="aoxvce0ld" x1="10.42" y1="9.71" x2="68.15" y2="76.02" gradientUnits="userSpaceOnUse"><stop stop-color="#1A1E21"/><stop offset="1" stop-color="#06060A"/></linearGradient></defs></svg>