<svg width="112" height="112" viewBox="0 0 56 56" xmlns="http://www.w3.org/2000/svg"><path fill="#CED1D8" d="M0 0h56v56H0z"/><path d="M18.71 24.83v-1.45c1.86 2.93 6.52 8.58 10.29 7.8 3.77-.79 5.98-5.53 6.62-7.8l.52 1.92c.84-1.31 2.45-4.7 2.14-7.76.7.38 2.07 1.67 1.95 3.83.2-.37.58-1.29.58-1.96a5.27 5.27 0 0 1-.1 6.82l2.29-1.4c.06 1.2-.49 3.8-3.2 4.67.58.01 2.01.17 3.2.65-.27.66-1.4 2.03-3.77 2.29.48.3 1.55.9 2 .93.46.04.73.02.81 0-.46.77-2 2.08-4.47 1.22a4 4 0 0 1 1.52 2.2c-.61.09-1.95.06-2.88-.73.42.5.92 1.35.83 2.36-.65-.19-2.4-.91-4.19-2.3l-10.7 1.64c-.23.35-1.08 1.08-2.72 1.26a3.88 3.88 0 0 1 1.03-2.86c-.63.49-1.9 1.2-3.41 1.23.06-.6.38-1.92 1.14-2.48-.76.33-2.72.62-4.48-.84.27-.01.97-.1 1.58-.37.6-.26 1.42-.58 1.76-.7-1.35 0-4.3-.5-5.34-2.52.59-.17 2.3-.5 4.56-.51a5.36 5.36 0 0 1-5.27-4.9c.95.3 2.97 1.05 3.43 1.53-1.2-1.3-3.26-4.57-1.81-7.19l1.1 1.54c-.28-.96-.42-3.01 1.18-3.5-.03 1.03.69 3.94 3.81 7.38Z" fill="url(#awmp5uret)"/><path d="M24.76 42.67c0-.83.67-1.13 1-1.17l1.14.18c.12.75.24.97.29.99.98 0 3.1-.01 3.71-.05.61-.04.89-.2.95-.28v-.84h.86v.84c.32.01 1.2.1 2.2.33a1.63 1.63 0 0 1 1.28 1.49c-.35-.56-1-.42-1.29-.28v.56c-.3-.82-1.74-.72-2.43-.56l-.14.7c-.17-.23-.69-.7-1.33-.7-.65 0-.97.47-1.05.7-.23-.52-.6-.81-.76-.89h-1.72c.5.26.4.89.29 1.17-.34-.86-1.8-.64-2.48-.42V45c-.91-1.2-2.16-.6-2.66-.14 0-.86-.32-1.01-.48-.98-1.6-.04-2.5.36-2.76.56.6-1.76 2.89-1.6 3.95-1.3.2-.72 1.03-.61 1.43-.47Z" fill="url(#bwmp5uret)"/><path d="M28.85 21.93a2.54 2.54 0 0 1 2.24-2.52l-2.66-.88a2.5 2.5 0 0 1-.58 1.54 5.43 5.43 0 0 0-.38-3.32 9.98 9.98 0 0 0-.14 1.68c-.5-.63-.87-2.1-1-2.75-.46.67-.06 1.83.2 2.33-.96-.56-1.17-1.79-1.15-2.33-.3.74-.13 1.5 0 1.77l-1.57-1.03.14.94-1.33-.94.52 1.31-.86-.56c0 .42.15 1.03.38 1.4 1.15 1.82 2.77 1.4 3.1 2.57.27.93.11 3.5 0 4.67l3.8-.75c-.28-.26-.82-1.26-.7-3.13Z" fill="url(#cwmp5uret)"/><path d="M22.19 13.44c-1.03 1.38-.33 3.1.14 3.78l.86.51-.53-1.3 1.29.97-.1-.98 1.53.98c-.23-.56-.1-1.29 0-1.58.07 1.3.82 2 1.19 2.2-.61-1.13-.38-1.97-.2-2.25 0 .71.64 2.13.96 2.76l.14-1.78c.48.89.48 3.13.48 3.22.57-.65.48-1.07.52-1.44.05-.38-.47-1.73-.57-2.15-.07-.34.84-1.48 1.38-1.92 1.6-1.68.42-4.34-.38-5.46a3.3 3.3 0 0 1-.71 2.43c.07-1.05-1.02-1.78-1.57-2.01.76 1.53-.38 2.35-1.05 2.57a1.8 1.8 0 0 0 0-2.1c-.2 1.16-.84 1.5-1.14 1.54.26-.75.42-1.43.47-1.68-.9 2.38-1.43 1.96-2.71 3.69Z" fill="url(#dwmp5uret)"/><path d="M22.62 22.59c1.1-2.1 3.63-3.08 4.76-3.32h2.71c3.28.64 4.48 3.04 4.67 4.16l.33.8-.47-.2.33.7-.53-.37.53.75-.33.19c.3.44.34 1.12.33 1.4l-.33-.14v.7h-.39l.1.79h-.43l-.24.47c-.57.11-1.76.98-2.28 1.4.14 1.54 2.28 4.15 2.71 4.95.34.63.5 1.76.53 2.24.14.36.43 1.29.47 2.15.04.86-.65 1.54-1 1.77l-.43-1.12c-.26 1.5-1.28 2.12-1.76 2.24-.91-.11-1.4-.8-1.52-1.12L29 42.15l-.57-.42c-.2.19-.43.45-.53.56l-1.52-.14-1.2-1.4-1.28 1.4c-1.57-.8-1.9-2.1-1.66-4.48.23-2.38 4.42-4.95 4.47-5.7.05-.74-.19-1.26-.71-2.05-.42-.64-2.27-1.64-3.14-2.06v-.98l-.43.61c0-.56.12-1.42.19-1.77h-.2l.44-.98-.43-.28.62-1.17-.43-.7Z" fill="url(#ewmp5uret)"/><path d="M34.74 37.45c.14.45.32 1.15.35 1.8.04.87-.65 1.55-1 1.78l-.43-1.12c-.26 1.5-1.28 2.12-1.76 2.24-.91-.11-1.4-.8-1.52-1.12L29 42.15l-.57-.42c-.2.19-.43.45-.53.56l-1.52-.14-1.2-1.4-1.28 1.4c-1.26-.64-1.72-1.6-1.73-3.2.18.37.43.63.73.54.65-.19 1-.92 1.1-1.26.57 1.01 1.99 3.03 3.1 3.03 1.1 0 2.14-.52 2.52-.79.46.16 1.58.42 2.38.23.8-.18 1.41-1.32 1.62-1.86.27 0 .87-.28 1.12-1.4Z" fill="url(#fwmp5uret)"/><path d="M27.71 32.58c.57-.45.5-1.56.38-2.05.54-.38.99-1 1.15-1.27.34.53 1.4.69 1.9.7.1.6.49 2.08 1.29 3.27.8 1.2.93 3.27.9 4.16l-.8-.23-.25 1.12-.66-.33-.48 1.45-.9-.94a3.16 3.16 0 0 1-.81 2.62 2.72 2.72 0 0 1-.81-2.06l-.53.66-.66-1.5-.58.1-.1-.56-.8.46v-.8c-.27.16-.65.07-.8 0 .12-.29.46-1 .8-1.53.43-.66 1.05-2.71 1.76-3.27Z" fill="url(#gwmp5uret)"/><path d="m31.95 11.94-.86.98.41.67.54-.39-.09-1.26Z" fill="url(#hwmp5uret)"/><path d="m32.95 13.59.33.73.43-.37v-1.17l-.76.8Z" fill="url(#iwmp5uret)"/><path d="M32.76 20.81s-3.38-1.32-4.38-1.54l-.9-3.03 1.56-1.54.43.46 2.05-1.58.81 2.1 1-1.36.24 2.01.52-.56-.19 1.63-1.14 3.41Z" fill="url(#jwmp5uret)"/><path fill-rule="evenodd" d="M28.66 18.34c.35.03 1.04-.05 1-.6a4.13 4.13 0 0 0-.85-1.74c-.27.22-.83.71-.9.94-.08.22.21 1.03.37 1.4h.38Zm0-.23c.32 0 .58-.26.58-.57 0-.3-.26-.56-.58-.56a.57.57 0 0 0-.57.56c0 .31.26.57.57.57Z" fill="#111135"/><ellipse cx="28.66" cy="17.54" rx=".29" ry=".28" fill="#111135"/><path d="M30.38 17.92c-.12.48.65.85 1.05.98-.72-.65-.43-1.21.14-1.17.46.04.38.67.28.98l.29-.23c.23-.52-.38-1.37-.71-1.73-.3.19-.94.68-1.05 1.17Z" fill="#111135"/><ellipse cx="31.52" cy="18.29" rx=".29" ry=".28" fill="#111135"/><path d="M25.76 24.75c-.14.21-.32.35-.53.36-.5.03-.94-.66-.99-1.54a2.3 2.3 0 0 1 .19-1.08c-.31.28-.51.85-.47 1.5.05.9.52 1.62 1.04 1.58.34-.02.62-.34.76-.82Z" fill="#4BF8F4"/><path d="M24.8 22.5c-.1.6-.42.8-.56.83.04 1.27.47 1.78.95 1.78.34 0 .57-.23.57-.37V23.6c0-.85-.63-1.1-.95-1.12Z" fill="url(#kwmp5uret)"/><ellipse cx="31.19" cy="23.99" rx="1.71" ry="1.68" fill="#4BF8F4"/><ellipse cx="31" cy="23.8" rx="1.52" ry="1.49" fill="url(#lwmp5uret)"/><path d="M31.09 22.5c.03.11-.14.26-.37.33-.24.07-.45.04-.48-.07-.03-.1.13-.25.37-.32.23-.07.45-.04.48.07Z" fill="#F3F6FF"/><path d="M27.43 29.82c-1.34-3.1-.78-5.3-.34-6.02-1.23-.1-1.71 1.82-1.62 2.66.1.89 1.92 3.27 1.96 3.36Z" fill="#A43A00"/><path d="M28.8 25.3a3.06 3.06 0 0 0-1.7-1.5c-1.07 1.65-.23 4.67.33 5.98-.12-2.32 1.92-2.9 2.95-2.9.38-.18.22-.6.1-.79l-.91-.98c-.57-.23-.75.03-.76.19Z" fill="#F6D50A"/><path d="M24.19 21.89a2.64 2.64 0 0 1-.86 1.5c.16-.3.46-.68.57-.94.15-.33.2-1.26.86-1.17.53.07.83.78.9 1.12-.19-.26-.64-.8-.95-.8-.3 0-.46.2-.52.29Z" fill="url(#mwmp5uret)"/><path d="M30.95 20.95c-1.41.15-1.95 1.4-2.05 2.01.57-1.07 1.2-1.54 2.05-1.63.68-.08 1.4.4 1.67.65a1.9 1.9 0 0 0-1.67-1.03Z" fill="#8D1612"/><path d="M32.9 22.26a1.43 1.43 0 0 1-.62-.19c.23 1.01.8 1.26 1.05 1.26a1.63 1.63 0 0 1-.43-.37l.38-.1c-.42-.1-.58-.38-.62-.5l.24-.1Z"/><defs><linearGradient id="awmp5uret" x1="12.48" y1="30.48" x2="42.28" y2="30.96" gradientUnits="userSpaceOnUse"><stop stop-color="#D1806C"/><stop offset=".21" stop-color="#2B182B"/><stop offset=".36" stop-color="#1B0104"/><stop offset=".7" stop-color="#A51E0B"/><stop offset=".86" stop-color="#230D1F"/><stop offset="1" stop-color="#CF735C"/></linearGradient><linearGradient id="bwmp5uret" x1="27.78" y1="41.5" x2="27.78" y2="45" gradientUnits="userSpaceOnUse"><stop stop-color="#9B270E"/><stop offset=".35" stop-color="#E68944"/><stop offset=".51" stop-color="#901608"/><stop offset=".71" stop-color="#C64F00"/><stop offset="1" stop-color="#DAA781"/></linearGradient><linearGradient id="cwmp5uret" x1="25.85" y1="25.11" x2="29.6" y2="19.02" gradientUnits="userSpaceOnUse"><stop stop-color="#560317"/><stop offset="1" stop-color="#C00"/></linearGradient><linearGradient id="dwmp5uret" x1="26" y1="17.92" x2="28.32" y2="9.8" gradientUnits="userSpaceOnUse"><stop stop-color="#FA5327"/><stop offset=".1" stop-color="#F3A22C"/><stop offset="1" stop-color="#FDF5AD"/></linearGradient><linearGradient id="ewmp5uret" x1="28.63" y1="19.27" x2="28.63" y2="42.29" gradientUnits="userSpaceOnUse"><stop stop-color="#91C3E4"/><stop offset=".25" stop-color="#FAF1DF"/><stop offset=".49" stop-color="#FDEFCB"/><stop offset="1" stop-color="#AB8496"/></linearGradient><linearGradient id="fwmp5uret" x1="22.43" y1="41.03" x2="34.94" y2="39.38" gradientUnits="userSpaceOnUse"><stop stop-color="#31030E"/><stop offset="1" stop-color="#D12511"/></linearGradient><linearGradient id="gwmp5uret" x1="29.24" y1="29.26" x2="29.24" y2="41.08" gradientUnits="userSpaceOnUse"><stop stop-color="#FCE597"/><stop offset="1" stop-color="#9C3904"/></linearGradient><linearGradient id="hwmp5uret" x1="31.21" y1="13.46" x2="33.36" y2="13.98" gradientUnits="userSpaceOnUse"><stop stop-color="#EA4C0A"/><stop offset=".41" stop-color="#F9AB46"/></linearGradient><linearGradient id="iwmp5uret" x1="31.21" y1="13.46" x2="33.36" y2="13.98" gradientUnits="userSpaceOnUse"><stop offset=".75" stop-color="#FAE9A7"/><stop offset="1" stop-color="#D58603"/></linearGradient><linearGradient id="jwmp5uret" x1="27.78" y1="18.19" x2="33.29" y2="19.31" gradientUnits="userSpaceOnUse"><stop stop-color="#EA4C0A"/><stop offset=".41" stop-color="#F9AB46"/><stop offset=".75" stop-color="#FAE9A7"/><stop offset="1" stop-color="#D58603"/></linearGradient><linearGradient id="kwmp5uret" x1="25" y1="22.49" x2="25" y2="25.11" gradientUnits="userSpaceOnUse"><stop stop-color="#02000F"/><stop offset=".45" stop-color="#061336"/><stop offset="1" stop-color="#24BDDD"/></linearGradient><linearGradient id="lwmp5uret" x1="30.38" y1="22.54" x2="31.34" y2="25.07" gradientUnits="userSpaceOnUse"><stop stop-color="#01000E"/><stop offset=".56" stop-color="#002746"/><stop offset="1" stop-color="#37E2F3"/></linearGradient><linearGradient id="mwmp5uret" x1="24.71" y1="21.33" x2="23.41" y2="23.22" gradientUnits="userSpaceOnUse"><stop stop-color="#380629"/><stop offset="1" stop-color="#262442"/></linearGradient></defs></svg>