<svg width="112" height="112" viewBox="0 0 56 56" xmlns="http://www.w3.org/2000/svg"><path fill="url(#aau5npega)" d="M0 0h56v56H0z"/><path fill-rule="evenodd" d="M33.57 10.21a2.22 2.22 0 0 1-2.49 2.2l-1.7 2.92c7.08.69 12.62 6.6 12.62 13.8C42 36.8 35.73 43 28 43s-14-6.21-14-13.87c0-7.46 5.96-13.55 13.42-13.85l.07-.14 2.08-3.57A2.22 2.22 0 0 1 31.33 8c1.24 0 2.24 1 2.24 2.21ZM15.75 29.13C15.75 22.43 21.23 17 28 17s12.25 5.43 12.25 12.13c0 6.7-5.48 12.14-12.25 12.14a12.19 12.19 0 0 1-12.25-12.14Zm5.38 3.24a8.17 8.17 0 0 0 6.9 3.63 8.19 8.19 0 0 0 6.84-3.63c.26-.39.11-.96-.27-1.23a.85.85 0 0 0-1.2.27v.02a6.65 6.65 0 0 1-10.76.04l-.01-.02c-.27-.43-.8-.58-1.2-.3a.9.9 0 0 0-.3 1.22ZM32 29c-.52 0-1-.39-1-.9v-3.2c0-.51.48-.9 1-.9s1 .39 1 .9v3.2c0 .48-.48.9-1 .9Zm-8 0c-.52 0-1-.39-1-.9v-3.2c0-.51.48-.9 1-.9s1 .39 1 .9v3.2c0 .48-.48.9-1 .9Z" fill="#fff"/><defs><linearGradient id="aau5npega" x1="10.42" y1="9.71" x2="68.15" y2="76.02" gradientUnits="userSpaceOnUse"><stop stop-color="#1A1E21"/><stop offset="1" stop-color="#06060A"/></linearGradient></defs></svg>