<svg width="112" height="112" viewBox="0 0 56 56" xmlns="http://www.w3.org/2000/svg"><circle cx="28" cy="28" r="16" fill="url(#a)"/><path d="M36.42 18.92c.77 1.33.5 1.39-.83.16a.44.44 0 0 1-.14-.23c-.18-.73-.64-1.04-1.39-.94-.27.03-.34.16-.21.4-.06.3.01.62.2.94l.43 1.33-.01.73c.09.35.06.62-.09.8-.05.07-.12.08-.2.03l-.44-.32-.57-.57a.33.33 0 0 0 .01-.26c-.02-.06-.08-.1-.18-.15l-.28-.13a.5.5 0 0 1-.18-.2c-.18-.33-.34-.4-.73-.37-.4.04-.84-.04-1.33-.22-.3.16-.51.33-.62.52-.18.1-.18.27.01.5.06.07.23.14.5.2.12.02.14.08.05.18a.56.56 0 0 1-.32.16c-.04.01-.44 0-1.2-.04a.11.11 0 0 0-.11.09l-.03.11c-.01.04 0 .06.05.06.57-.05.97.15 1.2.61v.47c0 .1-.04.14-.14.14h-1.26c-.1 0-.13-.04-.12-.13l.08-.67c.03-.2-.03-.23-.18-.09l-.39.4c-.08.07-.15.07-.2-.03l-.4-.7a2.2 2.2 0 0 1-.17-.82c0-.1-.04-.18-.11-.24l-.99-.74c-.1-.08-.24-.08-.4 0-.37-.05-.66.03-.89.24-.32.35-.6.49-.85.43-.29-.07-.3-.18-.05-.32.68-.38 1.3-.9 1.88-1.54.07-.08.05-.13-.05-.16l-1.6-.42a.52.52 0 0 1-.26-.16c-.3-.33-.72-.53-1.29-.6a2.85 2.85 0 0 1-1.25-.5l-.02-.2a.16.16 0 0 1 .05-.14.17.17 0 0 1 .16-.04c.3.1.74.24 1.3.4.34.1.72.1 1.14 0 1.25-.32 2.34-.42 3.26-.32 1.93.23 3.4-.27 5.25.4 1.29.47 1.97 0 2.9 1.08.28.33.62.62 1.01.87Z" fill="#E9D9CC"/><path d="M22.62 17.36c-.8-.03-1.27.73-1.4 2.3-.2.55-.28 1.19-.26 1.9l-.07.12-.05 1.33c0 .03-.02.05-.04.06l-.08.04a.09.09 0 0 1-.08 0 .08.08 0 0 1-.04-.07.56.56 0 0 0-.18-.34l-.02-.04c-.11-.68-.1-1.37.03-2.07l.68-2.86c.15-.29.23-.58.26-.87.37.27.79.43 1.25.5Z" fill="#BC987F"/><path d="M22.62 17.36c.57.08 1 .28 1.3.61.06.08.15.13.25.16l1.6.42c.1.03.12.08.05.16a7.28 7.28 0 0 1-1.88 1.54c-.25.14-.24.25.05.32.25.06.53-.08.85-.43-.07.19-.09.33-.05.44.04.1.15.15.33.15.52.02.85-.13 1-.44.1.17.04.32-.19.47a.22.22 0 0 0 .05.4c.22.08.37.25.45.53-.39-.4-.84-.6-1.36-.62-.1 0-.18.02-.26.08-.19.12-.52.3-1 .56-.48.26-.56.6-.25 1.02l-.37-.12-.1-.15c-.07-.1-.15-.1-.23 0l-.1.12a.45.45 0 0 0-.21-.03.26.26 0 0 0-.22.15l-1.01 2.13c.02-.04.02-.13 0-.25l.7-1.48a.22.22 0 0 0 0-.18l-.29-.66a.24.24 0 0 1 .16-.33l.84-.25a.16.16 0 0 0 .12-.15c0-.03 0-.05-.02-.07l-.03-.07c-.05-.1-.12-.14-.24-.1-.4.13-.78.12-1.1-.03.5.1.9.05 1.23-.16a.29.29 0 0 0 .13-.23c.02-.37 0-.58.19-.98.33-.7.25-1.06-.23-1.06.17-.23.26-.49.28-.76 0-.1-.04-.17-.13-.2-.66-.25-.96.08-1.2.67-.14.37-.31.74-.51 1.11.13-1.56.6-2.32 1.4-2.29Z" fill="#896D5C"/><path d="m21.1 17.73-.67 2.86-.04-1.12c0-.1-.05-.14-.14-.13l-2.34.31h-.01c-.24.11-.43.26-.57.44a.3.3 0 0 0 .07.43c.04.03.1.05.15.05.72.06 1.28.06 1.66 0 .7-.11.78.05.24.5-.37.31-1.24.32-1.69.67-.15.12-.33.37-.55.75a.3.3 0 0 0 .03.35c.04.04.1.08.15.1.06.03.13.03.2.02.05-.01.11 0 .17.01.09.03.14.1.16.18.1.56-.07.92-.52 1.08l-.94-.9a5 5 0 0 0-.6-2.28c.06-.15.14-.32.25-.5.11-.17.24-.3.4-.4.5-.28.85-.75 1.41-.98.4-.16.78-.36 1.16-.6.6-.38 1.34-.6 2.03-.84Z" fill="#A56E4E"/><path d="M22.78 18.83c-.58.68-1.4 1.48-1.33 2.43.33.15.7.16 1.11.02.12-.03.2 0 .24.1l.03.08a.16.16 0 0 1 0 .13.16.16 0 0 1-.1.09l-.84.25a.24.24 0 0 0-.16.33l.3.66a.22.22 0 0 1-.01.18l-.7 1.48a.53.53 0 0 1-.18-.33l-.18-2.69c-.02-.71.06-1.35.26-1.9.2-.38.37-.75.51-1.12.24-.59.54-.92 1.2-.68.09.04.13.1.13.2-.02.28-.11.54-.28.77Z" fill="#4A2D20"/><path d="m36.42 18.92 1.56 1.1a3.44 3.44 0 0 0-1.9 2.07.6.6 0 0 1-.3-.31c-.02-.2-.06-.34-.1-.41.12-.56.1-1.02-.06-1.37-.27-1.52-.86-2.09-1.77-1.7-.13-.23-.06-.36.21-.4.75-.1 1.21.22 1.39.95.02.1.07.17.14.23 1.33 1.23 1.6 1.17.83-.16Z" fill="#D69D78"/><path d="M35.62 20c-.77-.19-.88-.66-1.3-1.15a.12.12 0 0 0-.22.06l-.05.34a1.4 1.4 0 0 1-.2-.95c.9-.39 1.5.18 1.77 1.7Z" fill="#A56E4E"/><path d="M21.45 21.26c-.08-.95.75-1.75 1.33-2.43.48 0 .56.36.23 1.06-.18.4-.17.6-.19.98 0 .1-.05.18-.13.23-.32.21-.74.27-1.24.16Z" fill="#AA9E97"/><path d="M35.62 20c.16.35.18.81.05 1.37-.39.1-.79-.17-1.19-.79l-.43-1.33.05-.34a.13.13 0 0 1 .16-.1c.02 0 .04.02.06.04.42.5.53.96 1.3 1.15Z" fill="#332116"/><path d="M20.43 20.6c-.13.69-.14 1.38-.03 2.06l-.8 4.4c-.02.08-.01.17.03.25.05.09.12.13.22.15.1 0 .18-.02.24-.1l.57-.74c.18-.23.27-.2.26.09-.06 2.04-.34 4.46 1.96 5.36.27.1.5.2.72.27a.34.34 0 0 1 .21.4l-.15.57c-.02.09-.07.1-.14.05a72 72 0 0 0-1.59-1.02c-.5-.31-.82-.17-1.08.27a.3.3 0 0 0-.02.27l.81 1.87c.17.4.13.42-.13.08l-.85-1.1c-.32-.69-.6-1.3-.75-2.07a35.05 35.05 0 0 0-.9-3.6 2.1 2.1 0 0 1-.56-.48L17.18 26a1.7 1.7 0 0 1 .22-1.77c.45-.16.62-.52.52-1.08a.21.21 0 0 0-.16-.18.35.35 0 0 0-.18-.01.35.35 0 0 1-.34-.12.3.3 0 0 1-.03-.34c.22-.4.4-.64.55-.76.45-.35 1.32-.36 1.7-.67.53-.45.45-.61-.25-.5-.38.06-.94.06-1.66 0a.3.3 0 0 1-.28-.33c0-.05.03-.1.06-.15a1.4 1.4 0 0 1 .58-.44l2.34-.3c.09-.02.14.02.14.12l.04 1.12Z" fill="#4A2D20"/><path d="M27.4 21.7c0 1.21-.63 1.98-1.88 2.3a.24.24 0 0 0-.19.17.69.69 0 0 0-.01.2.19.19 0 0 0 .18.18h1.1a.3.3 0 0 0 .23-.12l.92-1.24-.14.33c-.04.09-.03.17.04.25.06.08.17.12.33.11-.3.1-.52.27-.65.5a.27.27 0 0 0-.02.26l.25.57c.05.11.02.2-.1.24l-.6.26a.36.36 0 0 0-.23.36v.28c0 .21.1.27.28.17l.55-.29a.87.87 0 0 1-.33.52 9.48 9.48 0 0 0-.7 3.67.3.3 0 0 1-.12.24.4.4 0 0 1-.09.06.15.15 0 0 1-.11.01.14.14 0 0 1-.1-.07c-.46-1-.6-1.8-.37-2.45l1.04-3.04a.25.25 0 0 0-.23-.33H24.3a.28.28 0 0 1-.23-.12 4.4 4.4 0 0 1-.88-2.11l.37.12c.56.33 1.2.55 1.95.66.1.02.19 0 .26-.07.63-.48.85-1.03.66-1.63-.08-.28-.23-.45-.45-.54a.22.22 0 0 1-.12-.3.22.22 0 0 1 .07-.09c.23-.15.3-.3.18-.47-.1-.23-.23-.36-.38-.4.16-.07.3-.07.4.01.33.25.65.5.99.74.07.06.11.14.11.24 0 .28.06.56.17.82Z" fill="#AA9E97"/><path d="M25.73 19.9c.15.03.28.16.38.4-.14.3-.47.45-1 .43-.17 0-.28-.05-.32-.15-.04-.1-.02-.25.05-.44.22-.21.52-.3.89-.24Z" fill="#4A2D20"/><path d="M33.17 21.25c-.22-.39-.59-.34-1.1.12-.21.2-.43.38-.65.56a.38.38 0 0 0-.15.24c-.02.14-.01.3.03.48-.03.08-.03.2 0 .36-.27.32-.35.71-.22 1.2.02.1-.01.13-.11.09l-.26-.1a.67.67 0 0 0-.57-.35c.27-.17.14-.4-.4-.68a.8.8 0 0 0 .3-.07c.1-.05.13-.12.1-.22l-.12-.57c-.24-.46-.64-.66-1.21-.61-.05 0-.06-.02-.05-.06l.03-.11a.11.11 0 0 1 .11-.09c.76.04 1.16.05 1.2.04a.56.56 0 0 0 .32-.16c.09-.1.07-.16-.06-.19-.26-.05-.43-.12-.49-.19-.19-.23-.2-.4-.01-.5.16.27.58.4 1.26.37.12 0 .15-.06.1-.17-.17-.28-.41-.53-.74-.72.49.18.93.26 1.33.22.39-.03.55.04.73.38.04.08.1.15.18.2a3 3 0 0 0 .28.12c.1.04.16.09.18.15.03.08.03.16 0 .26Z" fill="#AA9E97"/><path d="M30.48 19.92c.33.2.57.44.73.72.06.11.03.17-.1.17-.67.02-1.09-.1-1.25-.37.1-.19.32-.36.62-.52Z" fill="#82756B"/><path d="M39 20.74c-.39.4-1.18.32-1.65.27a.2.2 0 0 0-.22.12.66.66 0 0 0-.05.5.3.3 0 0 0 .18.19l.69.25.4 1.1a.15.15 0 0 1-.05.16.15.15 0 0 1-.16.02l-1.5-.75-.56-.51c.33-.95.96-1.64 1.9-2.07l1.02.72Z" fill="#CD8D67"/><path d="M35.67 21.37c.05.07.1.2.12.4-.27.97-.18 1.59.29 1.86.13.26.2.62.2 1.1 0 .4.07.75.2 1.04.25.57.5 1.35 1.1 1.3.1 0 .16-.05.18-.15a2.7 2.7 0 0 0-.6-2.35.31.31 0 0 1-.09-.26c.08-.76-.16-1.24-.72-1.43.32-.06.42-.16.29-.28l1.5.75a.15.15 0 0 0 .2-.18l-.39-1.1c.5.57 1.06 1.01 1.68 1.33-.6.92-.9 1.95-.94 3.1-.67 1.13-1.37 1.22-2.12.27l-.7-1.43-.07-1.2c0-.1-.06-.15-.17-.13-.19.04-.3.24-.34.6a1.84 1.84 0 0 0-.32-1.41c-.17-.21-.25-.19-.25.08l.01.8c-.24-.5-.23-1.14.01-1.88.12-.38.03-.68-.27-.9l.01-.72c.4.62.8.88 1.2.79Z" fill="#A56E4E"/><path d="m39.75 23.22-.12.18a5.58 5.58 0 0 1-1.68-1.33l-.69-.25a.3.3 0 0 1-.18-.2.65.65 0 0 1 .05-.49.2.2 0 0 1 .22-.12c.47.05 1.26.14 1.65-.27 1.13.19.88 1.67.75 2.48Z" fill="#8E4E2E"/><path d="m33.17 21.25.57.57c.21.43.34.84.38 1.24l-.14.07c-.23 0-.39-.1-.46-.3a.23.23 0 0 0-.36-.1c-.83.67-1.45.65-1.86-.08a1.23 1.23 0 0 1-.03-.48c.02-.1.07-.18.15-.24l.65-.56c.51-.46.88-.5 1.1-.12ZM16.46 23.32a1.9 1.9 0 0 1-.65-1.37c-.08-.3-.06-.6.05-.9a5 5 0 0 1 .6 2.27Z" fill="#332116"/><path d="M26.43 21.69c.2.6-.03 1.15-.66 1.63a.32.32 0 0 1-.26.07 5.24 5.24 0 0 1-1.95-.66c-.31-.42-.23-.76.25-1.02.48-.25.81-.44 1-.56a.48.48 0 0 1 .26-.08c.52.02.97.22 1.36.62Z" fill="#241C1C"/><path d="M34.73 24.08a48.64 48.64 0 0 1-.1 3.33c-.08.72-.31 1.57-.7 2.53l-.19.07a.4.4 0 0 1-.11-.21.48.48 0 0 1 .02-.26c.25-.63.32-1.15.22-1.55-.09-.35-.2-.35-.33-.02l-.35.83.44-2.47c.02-.12.09-.18.2-.18h.44c.13 0 .2-.07.2-.2v-2.57c0-.12-.06-.2-.18-.25l-.17-.07c-.04-.4-.17-.81-.38-1.24l.44.32c.08.05.15.04.2-.03.15-.18.18-.45.09-.8.3.21.4.5.27.89-.24.74-.25 1.37 0 1.88Z" fill="#AA9E97"/><path d="M21.31 24.58c.03.12.03.2 0 .25l.03 2.48a.19.19 0 0 0 .13.18h.08l1.53-.2c.1-.01.18.02.23.11.51.89 1.51 2.28.7 3.18-.17.92-.16 1.85.04 2.79.01.07.06.11.13.11h.78a.26.26 0 0 0 .2-.1c1.08-1.4 2.17-2.46 1.96-4.41-.1-.94-.1-1.68 0-2.22.2-.16.3-.33.34-.52.1.04.2 0 .3-.13.44.03.98.2 1.64.54.75.39 1.65.5 2.71.33l.05.23c.05.53-.07.98-.34 1.36l-.12-.79a.65.65 0 0 0-.65-.56h-3.57a.3.3 0 0 0-.3.38c.26.92.43 1.9.24 2.83a4.6 4.6 0 0 1-2.8 3.4.23.23 0 0 0-.14.23c0 .22.17.4.52.55a.62.62 0 0 0 .73-.18c.98-1.2 2.87-1.07 4.34-1.17.1 0 .18.02.25.08l1 .8-1.4-.7a.22.22 0 0 0-.16-.02l-1 .3c-.16.04-.18.12-.06.22l.37.32a.8.8 0 0 0 .6.2c.52-.03.98.22 1.37.74.07.09.08.18.02.28l-1.07 1.85c-.05.1-.04.16.05.22.54.38.8.72.76 1-.23.18-.4.24-.54.2.2-.06.33-.16.4-.3.02-.06.01-.11-.03-.15-.7-.6-1.24-.9-1.31-1.93 0-.1.02-.19.06-.27.25-.38.63-.66 1.17-.84a.2.2 0 0 0 .04-.38l-.2-.1a.89.89 0 0 0-.59-.12l-.7.11c-.12.02-.18-.03-.18-.16v-.21a.37.37 0 0 0-.42-.37l-1 .14a.26.26 0 0 0-.19.13l-.35.6c-.08.14-.04.23.12.28l.48.13c.1.02.17.08.21.16.72 1.32.57 2.45-.42 3.38-.12.11-.22.17-.3.16l.25-.5c.05-.1.02-.16-.08-.19a4.43 4.43 0 0 1-3.14-2.52 8.9 8.9 0 0 0-2.09-2.94c-.36-.32-.51-.24-.46.24l.25 2.35-.19-.17-.93-1.55.85 1.11c.26.34.3.31.13-.08l-.81-1.87a.3.3 0 0 1 .02-.27c.26-.44.58-.58 1.08-.27.66.41 1.19.76 1.59 1.02.07.05.12.04.14-.05l.15-.56a.35.35 0 0 0-.21-.41l-.72-.27c-2.3-.9-2.02-3.32-1.96-5.36 0-.29-.08-.32-.26-.1l-.57.75a.24.24 0 0 1-.24.1.27.27 0 0 1-.22-.15.37.37 0 0 1-.04-.25l.8-4.4.03.04c.1.95.07 1.7-.06 2.24a16.3 16.3 0 0 0-.4 1.84c0 .09.04.14.12.17h.11c.06-.02.11-.07.15-.15.73-1.38.69-3.6.55-5.12l.07-.12.18 2.7c.01.1.07.21.17.32Z" fill="#5F5047"/><path d="M20.9 21.68c.13 1.52.17 3.74-.56 5.12-.04.08-.09.13-.15.15a.22.22 0 0 1-.1 0c-.1-.03-.13-.08-.12-.17.04-.35.17-.96.39-1.84.14-.54.16-1.3.06-2.24.1.08.15.2.18.34a.08.08 0 0 0 .04.07.08.08 0 0 0 .08 0l.08-.04a.07.07 0 0 0 .04-.06l.05-1.33Z" fill="#896D5C"/><path d="m30.02 22.31.13.57c.02.1-.02.17-.1.22a.8.8 0 0 1-.3.07l-2 .02-.92 1.24a.29.29 0 0 1-.23.12h-1.1a.19.19 0 0 1-.18-.18l.01-.2c.03-.1.1-.15.19-.18 1.25-.3 1.88-1.08 1.88-2.3l.4.7c.05.1.12.11.2.03l.4-.39c.14-.14.2-.11.17.09l-.08.67c-.01.09.03.13.12.13h1.26c.1 0 .15-.05.15-.14v-.47Z" fill="#D7C6BA"/><path d="M35.79 21.78a.6.6 0 0 0 .3.31l.55.5c.13.13.03.23-.3.3l-.26.74c-.47-.27-.56-.9-.29-1.85Z" fill="#5F5047"/><path d="M23.2 22.6c.09.77.38 1.47.87 2.12.05.08.13.12.23.12h2.15a.25.25 0 0 1 .24.21v.12c-.16.42-.5 1.44-1.05 3.04-.22.65-.1 1.46.38 2.45a.14.14 0 0 0 .09.07.15.15 0 0 0 .11-.01.42.42 0 0 0 .17-.16.31.31 0 0 0 .03-.14c0-1.3.24-2.52.7-3.67a7.53 7.53 0 0 0 0 2.22c.21 1.95-.88 3-1.95 4.4a.25.25 0 0 1-.2.11h-.79c-.07 0-.12-.04-.13-.11-.2-.94-.21-1.87-.04-2.79.21.25.43.4.63.47.1.03.15-.01.16-.11.18-2.15.95-3.65 1.48-5.69a.16.16 0 0 0-.03-.13.16.16 0 0 0-.12-.07H25c-.12 0-.18.06-.17.18 0 .83-.19 1.49-.58 1.98-.27.35-.41.3-.42-.14 0-.55-.03-1.02-.08-1.43-.14-1.02-.65-2.06-1-3.06l.1-.13c.1-.1.17-.09.24.01l.1.15Z" fill="#968981"/><path d="M22.75 22.58c.35 1 .86 2.04 1 3.06.05.4.08.88.08 1.43 0 .44.15.5.42.14.4-.5.59-1.15.58-1.98 0-.12.05-.18.17-.18h1.13a.17.17 0 0 1 .12.07.16.16 0 0 1 .03.13c-.53 2.04-1.3 3.54-1.48 5.69 0 .1-.06.14-.16.1-.2-.05-.42-.2-.63-.46.81-.9-.19-2.3-.7-3.18a.21.21 0 0 0-.23-.11l-1.53.2a.19.19 0 0 1-.21-.18l-.02-2.48 1.01-2.13c.05-.09.12-.14.22-.15.06 0 .13 0 .2.03Z" fill="#82756B"/><path d="M33.98 23.13v.08c-.35.24-.68.39-1.01.44-.83.16-1.38-.05-1.66-.64-.04-.16-.04-.28-.01-.36.4.73 1.03.75 1.86.07a.23.23 0 0 1 .36.1c.07.21.23.32.46.3Z" fill="#714E3B"/><path d="m36.08 23.63.27-.75c.56.2.8.67.72 1.43 0 .1.02.19.08.26.56.63.76 1.41.6 2.35-.01.1-.07.15-.17.16-.6.04-.85-.74-1.1-1.3a2.7 2.7 0 0 1-.2-1.06c0-.47-.07-.83-.2-1.1Z" fill="#D69D78"/><path d="M31.3 23.01c.3.59.84.8 1.67.64l-.41.16a.2.2 0 0 0-.14.2v.22a.53.53 0 0 0 .63.5c.1-.01.2-.06.27-.13l.93-.94a.26.26 0 0 0-.16-.44l-.11-.01v-.08l.14-.07.17.07c.12.04.18.13.18.25v2.57c0 .13-.07.2-.2.2h-.43c-.12 0-.2.06-.21.18l-.44 2.47-.18.91c-.1.61-.14 1.22-.13 1.83 0 .28.13.74.37 1.38.28.73.44 2.05.48 3.97v.58l-.11-.03a.18.18 0 0 0-.2.08 2.32 2.32 0 0 1-2.07 1.02c.53-.15.98-.35 1.37-.6.31-.2.29-.33-.08-.38a3.46 3.46 0 0 1-1.44-.62c-.08-.06-.1-.14-.07-.23l.73-1.9c.03-.02.05-.04.08-.1.76-.15.97-.6.64-1.33-.3-1.06-.49-2.14-.6-3.22-.07-.74.02-1.5.28-2.31a.77.77 0 0 0-.1-.65l-.05-.23a.87.87 0 0 0-.47-.54c.23-.89-.38-1.6-.93-2.23l.26.1c.1.04.13 0 .1-.1-.12-.47-.04-.87.24-1.19Z" fill="#D7C6BA"/><path d="M35.3 24.61c-.18 1.72-.4 2.78.23 4.16l-.62 1.45-.45.46a.32.32 0 0 1-.26.1c-.18-.01-.3-.12-.36-.33-.02-.08 0-.25.09-.5.39-.97.62-1.82.7-2.54.05-.47.08-1.58.1-3.33v-.8c0-.27.07-.3.24-.08.28.36.4.84.32 1.41Z" fill="#332116"/><path d="M29.75 23.17c.53.28.66.5.39.68-.78-.4-1.5-.39-2.16.03-.16 0-.27-.03-.33-.11a.22.22 0 0 1-.04-.25l.14-.33 2-.02Z" fill="#714E3B"/><path d="m33.98 23.2.1.02a.26.26 0 0 1 .17.44l-.93.94a.52.52 0 0 1-.8-.08.53.53 0 0 1-.1-.3v-.21a.2.2 0 0 1 .14-.2l.4-.16c.34-.05.67-.2 1.02-.44ZM30.14 23.85c.26.02.45.14.57.35.55.63 1.16 1.34.93 2.23l-.99-.62-1.3-1.13a.28.28 0 0 0-.38.01l-1.51 1.54-.55.29c-.19.1-.28.04-.28-.17v-.28c0-.17.08-.29.23-.36l.6-.26c.12-.05.15-.13.1-.24l-.25-.57a.27.27 0 0 1 .02-.26c.13-.23.35-.4.65-.5.67-.42 1.38-.43 2.16-.03Z" fill="#E9D9CC"/><path d="M35.87 25.34c-.09.46-.06.9.08 1.32.14.4.21.68.22.85 0 .53-.06 1.1-.64 1.26-.63-1.38-.41-2.44-.24-4.16.04-.36.15-.56.34-.6.1-.02.16.02.17.13l.07 1.2Z" fill="#CD8D67"/><path d="M30.65 25.81c-.93-.07-2.15-.52-2.89.29-.1.12-.2.17-.3.13l1.51-1.54a.27.27 0 0 1 .37-.01l1.31 1.13Z" fill="#BCBCBC"/><path d="m30.65 25.81 1 .62c.24.13.4.32.46.54a4.39 4.39 0 0 1-2.71-.33 4.39 4.39 0 0 0-1.64-.54c.74-.8 1.96-.36 2.9-.29Z" fill="#BC987F"/><path d="M31.82 28.56a4.38 4.38 0 0 0 .76 4.82c.33.74.12 1.18-.64 1.34h-.08a.17.17 0 0 1-.16-.12.96.96 0 0 0-.39-.47l-.99-.8a.36.36 0 0 0-.25-.08c-1.47.1-3.36-.02-4.34 1.17a.62.62 0 0 1-.73.18c-.35-.15-.52-.33-.52-.55 0-.1.04-.18.14-.23a4.6 4.6 0 0 0 2.8-3.4c.2-.92.02-1.9-.23-2.83a.3.3 0 0 1 .29-.38h3.57a.66.66 0 0 1 .65.56l.12.8Z" fill="#241C1C"/><path d="M32.58 33.38a4.38 4.38 0 0 1-.76-4.82c.27-.38.39-.83.34-1.36.13.22.16.44.1.65-.26.8-.35 1.57-.27 2.31.1 1.08.3 2.16.59 3.22Z" fill="#747575"/><path d="M33.93 29.94c-.08.26-.11.43-.09.51.06.21.18.32.36.33.1 0 .2-.02.26-.1l.45-.46v2.32l-.1.22a.15.15 0 0 1-.14.09.14.14 0 0 1-.13-.1l-.38-1.3a.2.2 0 0 0-.1-.12.2.2 0 0 0-.15-.02l-.64.19c-.12.03-.18-.01-.18-.13L33 29.7l.18-.91.35-.83c.13-.33.24-.33.33.02.1.4.03.92-.22 1.55a.48.48 0 0 0-.02.26.4.4 0 0 0 .11.21l.19-.07Z" fill="#714E3B"/><path d="m20.66 33.72.93 1.55-1.33.16a.28.28 0 0 0-.24.21v.11l1 4.95a13.75 13.75 0 0 1-1.52-4.81c-.02-.1 0-.19.05-.27.24-.38.41-.78.51-1.22.04-.16 0-.26-.1-.3a1.88 1.88 0 0 0-.38-.09c.5-.02.75-.2.76-.54.02-.47-.62-1.05-.88-1.47-.13-.2-.2-.52-.21-.93-.03-1.01-.11-2.01-.24-3 .36 1.17.66 2.37.9 3.6.14.75.43 1.37.75 2.05Z" fill="#545455"/><path d="m33.01 29.71.08 1.66c0 .12.06.16.18.13l.64-.19a.21.21 0 0 1 .15.02.2.2 0 0 1 .1.12l.38 1.3a.15.15 0 0 0 .27.01l.1-.22-.58 2.74a.43.43 0 0 1-.15.25c-.31.26-.44.65-.4 1.17a.56.56 0 0 0-.05.19c-.04-1.92-.2-3.24-.48-3.97a4.73 4.73 0 0 1-.37-1.38c0-.6.03-1.22.13-1.83Z" fill="#BC987F"/><path d="M27.04 39c-.09.3-.14.52-.37.75-.28.28-.49.5-.61.65l-4.17-4.46c.04-.13 0-.3-.11-.5l-.25-2.35c-.05-.48.1-.56.46-.24a8.9 8.9 0 0 1 2.09 2.94 4.43 4.43 0 0 0 3.14 2.52c.1.03.13.1.08.19l-.26.5ZM31.31 34.13c.18.11.3.27.39.47.03.08.08.11.16.12h.08c-.03.05-.05.07-.08.08-.66.24-.78 1.27-.98 1.63-.3.56-.14 1.19.06 1.6.05.1.07.21.06.34a.8.8 0 0 1-.13.35l-.52.82c.04-.32.2-.65.45-1 .04-.28-.22-.62-.76-1-.09-.06-.1-.13-.05-.22l1.07-1.85c.06-.1.05-.2-.02-.28-.39-.52-.85-.77-1.38-.74a.8.8 0 0 1-.6-.2l-.36-.31c-.12-.11-.1-.19.05-.23l1.01-.3a.22.22 0 0 1 .17.02l1.38.7Z" fill="#77685F"/><path d="M19.58 34.01c.16.03.3.06.38.1.1.03.14.13.1.3-.1.43-.27.83-.5 1.21a.38.38 0 0 0-.06.27c.2 1.69.71 3.3 1.52 4.8l.8 1.87a.3.3 0 0 1 0 .22c-.04.1-.1.13-.2.1a14.26 14.26 0 0 1-5.24-3.57c-.3-.3-.6-.64-.91-1-.24-.27-.27-.49-.1-.66l1.3-.47 2.9-3.17Z" fill="#15171E"/><path d="M30.26 38.73c-1.08.26-1.99.43-2.73.52-.2.03-.27-.11-.18-.4 1-.94 1.14-2.07.42-3.39a.33.33 0 0 0-.2-.16l-.5-.13c-.15-.05-.19-.14-.11-.28l.35-.6a.26.26 0 0 1 .2-.13l1-.14a.37.37 0 0 1 .41.37v.21c0 .13.06.18.19.16l.7-.11c.2-.03.4 0 .59.11l.19.11a.2.2 0 0 1-.04.38c-.54.18-.92.46-1.17.84a.47.47 0 0 0-.06.27c.07 1.02.62 1.33 1.31 1.93.04.04.05.09.03.14-.07.15-.2.25-.4.3Z" fill="#241C1C"/><path d="m31.86 34.8-.73 1.91c-.04.1-.01.17.07.23.48.34.97.55 1.44.62.37.05.4.18.08.38-.39.25-.84.45-1.37.6-.3.48-.48.91-.51 1.3l-.2-.09-.3-.21.53-.82a.8.8 0 0 0 .13-.35.63.63 0 0 0-.06-.34c-.2-.41-.35-1.04-.06-1.6.2-.36.32-1.4.98-1.63Z" fill="#AA9E97"/><path d="m21.89 35.94 4.17 4.46-.43.45a31.44 31.44 0 0 0-3.7-4.08.23.23 0 0 0-.38.14c-.14.94-.14 1.86.1 2.84.37 1.48.58 2.56.63 3.24 0 .14.08.23.22.27l.87.23h.1a.17.17 0 0 0 .07-.06l1.01-1.32c.06.38.25.6.55.69.42.1.75.22 1 .33.24.12.42.19.54.22.5.12.93.16 1.1.78a10.38 10.38 0 0 1-5.48-.9.26.26 0 0 1-.06-.09l-2.04-6.96a.26.26 0 0 1 .27-.33l1.46.09Z" fill="#7E8592"/><path d="m25.63 40.85-1.08 1.26-1 1.32a.17.17 0 0 1-.08.06.15.15 0 0 1-.1 0l-.87-.23c-.14-.04-.21-.13-.22-.27-.05-.68-.26-1.76-.63-3.24a7.06 7.06 0 0 1-.1-2.84.23.23 0 0 1 .38-.14 31.45 31.45 0 0 1 3.7 4.08Z" fill="#A9AFB9"/><path d="m38 38.16 1.76.51c.2.1.25.2.15.32-.36.43-.73.8-1.12 1.08a10.87 10.87 0 0 1-3.68 2.5c-.26.11-.56.4-.85.12a.17.17 0 0 0-.19-.03c-.03.02-.06.02-.08.01a.07.07 0 0 1-.04-.06l-.24-2.37.01-2.77.01-.58a.55.55 0 0 1 .06-.2L38 38.17Z" fill="#272B39"/><path d="m33.72 37.47-.01 2.77-.02 3c-.28.08-.45.05-.5-.11a6.4 6.4 0 0 0-1.15-2.14l-1.2-1.15c.03-.39.2-.82.51-1.3.9 0 1.6-.33 2.06-1.02.05-.07.12-.1.21-.08l.1.03Z" fill="#E7E8ED"/><path d="M30.8 38.55c-.25.34-.4.67-.45.99l.3.21.16.25c.32.47.23.59-.28.34l-.52-.25c-.9-.05-1.7.19-2.39.71a.28.28 0 0 0-.04.41c.78.86 1.1 1.84.97 2.95-.35.15-.63.14-.82-.03-.16-.62-.6-.66-1.09-.78-.12-.03-.3-.1-.54-.22a6.04 6.04 0 0 0-1-.33c-.3-.09-.49-.31-.55-.7l1.08-1.25.43-.45c.13-.15.33-.37.61-.65.23-.23.28-.45.37-.75.1 0 .2-.05.3-.16-.08.3-.02.44.2.41.73-.09 1.64-.26 2.72-.52.13.05.31 0 .54-.18Z" fill="#34405D"/><path d="m30.01 40.09-.01.08c-.84-.03-.77.73-1.41.98a.31.31 0 0 0-.17.43c.19.4.3.81.34 1.24.02.26.12.46.3.59a.25.25 0 0 0 .26.02.26.26 0 0 0 .15-.23c0-.54.12-1.01.34-1.42l-.4 1.96c-.18-.1-.32-.1-.43-.04a.22.22 0 0 0-.1.24c.04.14.14.23.3.27l-.63-.05a3.57 3.57 0 0 0-.97-2.95.28.28 0 0 1 .04-.4c.7-.53 1.5-.77 2.39-.72Z" fill="#4E6692"/><path d="m30 40.17-.19 1.61c-.22.4-.33.88-.34 1.42a.26.26 0 0 1-.15.23.26.26 0 0 1-.26-.02c-.18-.13-.28-.33-.3-.59a3.62 3.62 0 0 0-.34-1.24.31.31 0 0 1 .17-.43c.64-.25.57-1.01 1.4-.98Z" fill="#7294C5"/><path d="M33.69 43.23c-.32.13-.58.2-.79.2a.27.27 0 0 1-.23-.13 4.24 4.24 0 0 1-.63-2.3 6.4 6.4 0 0 1 1.15 2.13c.05.16.22.2.5.1Z" fill="#8C959C"/><path d="M29.4 43.74c.16.16.18.3.06.43-.08.07-.17.08-.29.04-.16-.04-.25-.13-.29-.27a.22.22 0 0 1 .1-.24c.11-.07.25-.05.43.04Z" fill="#7294C5"/><path d="M33.86 20.32a.04.04 0 0 1 0 .06l-.03.01c-.04.03-.1.05-.16.04a.65.65 0 0 1-.23-.1 2.21 2.21 0 0 1-.5-.47l-.06-.06c-.15-.2-.27-.43-.32-.62-.05-.19-.03-.33.05-.4h.02a.04.04 0 0 1 .05 0l1.18 1.54Z" fill="#CD8D67"/><path d="M20.16 22.61c.12.87-.2 1.15-.89 1.64-.3.22-.52.15-.62-.21l-.16-.54c-.11-.37.02-.62.4-.73l1.04-.3c.13-.04.2.01.23.14Z" fill="#15171E"/><path d="M24.94 23.47c.25.07.34.23.28.49l-.13.48c-.04.14-.12.17-.25.09-.35-.25-.7-.58-1.07-1-.05-.05-.06-.12-.04-.21a.16.16 0 0 1 .2-.11l1 .26ZM38.8 24.7a.12.12 0 0 1-.16.02l-.03-.02a2.7 2.7 0 0 1-.49-.5c-.11-.15-.15-.27-.1-.33l.04-.06c.02-.02.07-.04.13-.03.05 0 .13.02.22.06l.28.15.3.22.04.03a.12.12 0 0 1 .02.17l-.24.3Z" fill="#D7C6BA"/><path d="M31.1 43.35c.2.07.56.02.78.2.04.04.06.1.05.15-.02.11-.08.18-.2.2l-1.63.21c-.1.01-.14-.03-.15-.12-.02-.4.05-.73.2-1 .06-.1.14-.14.24-.12.2.03.36.14.48.32a.4.4 0 0 0 .22.16Z" fill="#E9D9CC"/><path fill-rule="evenodd" d="M28 45a17 17 0 1 0 0-34 17 17 0 0 0 0 34Zm0-1a16 16 0 1 0 0-32 16 16 0 0 0 0 32Z" fill="url(#b)"/><defs><linearGradient id="a" x1="28" y1="12" x2="28" y2="44" gradientUnits="userSpaceOnUse"><stop stop-color="#656D73"/><stop offset="1" stop-color="#ACB2B7"/></linearGradient><linearGradient id="b" x1="12.05" y1="21.46" x2="44.34" y2="34.72" gradientUnits="userSpaceOnUse"><stop stop-color="#E0E0E0"/><stop offset="1" stop-color="#656566"/></linearGradient></defs></svg>