<svg xmlns="http://www.w3.org/2000/svg" width="112" height="112" viewBox="0 0 56 56"><path fill="#1C8CCD" d="M0 0h56v56H0z"/><path d="M32.16 25c1.52 0 2.92-.4 3.83-.9 3.04-1.61 1.9-5.1-1.5-5.1h-2.9l-2.09 6h2.66zM28.7 36c2.5 0 6.6-.58 7.63-3.44 1.19-3.3-3.57-3.56-5.6-3.56h-2.58l-2.3 7h2.85zm4.7-21c3 0 5.14.2 6.41.5 2.68.58 4.28 2.46 4.2 4.75-.11 2.78-2.73 4.92-5.03 6.01 2.29.94 4.07 2.54 4.01 4.74a5.57 5.57 0 0 1-.34 1.72C40.62 38.34 33.78 40 28.46 40H13c-.7 0-1-.46-1-1 0-.55.3-1 1-1h7.16l7.37-21h-7.3c-.68 0-1.23-.32-1.23-1 0-.68.54-1 1.22-1h13.2zM18.68 25c.74 0 1.33.68 1.33 1.5 0 .73-.55 1.5-1.33 1.5h-6.35c-.73 0-1.32-.67-1.32-1.48 0-.82.58-1.52 1.32-1.52h6.35z" fill="#fff"/></svg>