<svg width="112" height="112" viewBox="0 0 56 56" xmlns="http://www.w3.org/2000/svg"><path fill="url(#a)" d="M0 0h56v56H0z"/><path d="M30.31 12.17c.16.2.48.4.96.57.05.02.08.07.1.15.01.12-.04.18-.16.16h-.13c-.08-.01-.14.02-.17.1a.14.14 0 0 0-.01.1c.01.04.06.09.13.13l.2.12c.38.25.34.37-.1.38-.67 0-1.41-.1-2.23-.32.03-.2-.13-.3-.46-.31-2.51-.05-4.84.44-7 1.48-.18-.28-.43-.34-.75-.18a.26.26 0 0 1-.24 0c-.14-.07-.25-.23-.33-.48a16.01 16.01 0 0 1 10.2-1.9Z" fill="#F7C35C"/><path d="M37.72 15.28c-.44.31-.8.67-1.08 1.07a23.85 23.85 0 0 0-2.86-1.89.52.52 0 0 0-.21-.06c-.18-.02-.35.02-.54-.06a3.57 3.57 0 0 0-1.07-.3.3.3 0 0 0-.24.07c-.2.16-.3.38-.31.63a.16.16 0 0 1-.19.16l-2.37-.37c.13-.3.15-.62.05-.97.82.21 1.56.32 2.23.32.44 0 .48-.13.1-.38a5.6 5.6 0 0 0-.2-.12c-.07-.04-.12-.09-.13-.13a.14.14 0 0 1 .01-.1c.03-.08.1-.11.17-.1h.13c.12.02.17-.04.15-.16-.01-.08-.04-.13-.09-.15-.48-.17-.8-.36-.96-.57 2.7.39 5.24 1.46 7.4 3.11Z" fill="#E4A64F"/><path d="M28.9 13.56c.1.35.08.67-.05.97a.85.85 0 0 0-.4-.08.25.25 0 0 1-.2-.1c-.1-.13-.26-.19-.45-.15a.17.17 0 0 1-.2-.14v-.08c0-.1.05-.14.15-.12.32.06.5.08.51.07.67-.27.64-.4-.08-.39a23.52 23.52 0 0 0-1.55.1.1.1 0 0 0-.03.05l-.02.06c0 .02 0 .02.03.02.18-.01.35.01.5.08-1.56.1-3.02.44-4.4 1.01-.07.03-.1.13-.08.3l-.1-.22a.13.13 0 0 0-.24.01c-.08.26-.02.46.2.6.28-.06.54-.06.8-.02.14.03.14.07 0 .11l-.93.34c-.07.03-.09.08-.05.15.3.47.33.76.1.89L21.7 16a.18.18 0 0 0-.2-.07.18.18 0 0 0-.08.03l-.84.72a.31.31 0 0 1-.2.08c-.36 0-.68.16-.96.46-.07.08-.08.17-.01.26l1.23 1.68c.02.02.02.05.01.07l-.05.15c-.02.03-.04.04-.06 0l-1.66-1.95c-.02-.03-.05-.03-.09-.02l-.06.04-.44.2c-.15.12-.21.26-.18.42l.13.05c.1.05.12.12.03.2l-.65.67c-.05.05-.1.06-.16.01a.6.6 0 0 1-.16-.2.18.18 0 0 0-.19-.11.24.24 0 0 0-.07.02c-.07.04-.09.1-.07.16l.13.43c.01.03 0 .04-.02.05l-.08.03c-.02 0-.03 0-.04-.02-.1-.23-.22-.31-.35-.25a.3.3 0 0 0-.13.11.37.37 0 0 0-.05.18c0 .07 0 .14.03.2.03.07.07.14.12.2l1.14 1.2c.06.07.07.14.04.21a.2.2 0 0 1-.18.14c-.1 0-.16-.04-.16-.14 0-.2-.1-.4-.28-.57a.21.21 0 0 0-.25-.03c-.1.05-.16.05-.2 0-.09-.08-.17-.08-.25.02l-.38.5-.98 1.51c-.1-.7.05-1.36.42-1.98.02-.03.01-.06-.03-.07l-.08-.02c-.02 0-.03 0-.04.02a25.96 25.96 0 0 0-1.94 4.95c-.03.09-.09.12-.18.1l-1.02-.25.07-.41.62.16a.26.26 0 0 0 .2-.03.27.27 0 0 0 .12-.16l.3-1.2c.07-.14.13-.34.16-.63l1.16-2.45 1.39-1.58a.46.46 0 0 1 .22-.14c.1-.04.17-.1.2-.2a.23.23 0 0 0-.08-.23.85.85 0 0 1-.27-.4c1.75-1.73 2.9-2.92 5.13-3.4a15.28 15.28 0 0 1 7-1.47c.33 0 .49.1.46.3Z" fill="#402819"/><path d="m28.85 14.53 2.37.37a.16.16 0 0 0 .19-.16c0-.25.1-.46.31-.63a.3.3 0 0 1 .24-.08c.33.03.69.13 1.07.3.19.09.36.05.54.07.07 0 .14.03.2.06 1.02.58 1.98 1.2 2.87 1.89a15.66 15.66 0 0 1 4.2 4.68c.04.06.13.11.27.16.08.03.13.1.13.18 0 .06-.02.12-.07.2a.24.24 0 0 0-.02.22c.03.09.1.18.21.27.06.05.1.12.1.2.04.3.12.55.26.77l-.2.33-.35-.5a.03.03 0 0 0-.06.02l.75 2.37c.02.09 0 .15-.08.2-.15.07-.32.06-.53-.05a14 14 0 0 0-3.85-7.04.31.31 0 0 0-.27-.1c-.1 0-.12.05-.05.13.4.44.52.73.35.87a.76.76 0 0 0-.45.52c-.02.08-.06.1-.14.05a4.55 4.55 0 0 1-1.23-1.27c-.28-.4-.48-.54-.6-.39a13.4 13.4 0 0 0-4.07-1.83l-1.92-.3c-.13-.01-.2.04-.2.18l-.01 2.1c0 .12.05.18.16.2 1.32.15 2.6.57 3.85 1.24l.5.34c.37.2.66.44.89.7 0 .2-.03.3-.12.3a8.72 8.72 0 0 0-6.86-2.15c-.1 0-.15-.04-.14-.14l.03-.37c.01-.12-.04-.17-.16-.15-.92.12-1.76.39-2.52.8a.2.2 0 0 0-.11.21c0 .1.04.17.1.24v.08c0 .04-.01.07-.05.1-.07.03-.12.02-.16-.03-.33-.4-.69-.96-1.07-1.67a.25.25 0 0 0-.2-.14c-.14-.02-.2-.12-.15-.3a.2.2 0 0 0-.09-.22.85.85 0 0 1-.3-.34c.23-.13.2-.42-.1-.9-.04-.06-.02-.1.05-.14l.94-.34c.13-.04.13-.08-.01-.1a2.2 2.2 0 0 0-.8 0c.05 0 .1-.01.13-.05.04-.05.05-.1.03-.18.12.05.23.04.31-.01l.16-.1c.8-.29 1.62-.53 2.45-.71.14-.03.41-.06.83-.07.5-.02.74-.21.71-.57a1.1 1.1 0 0 0-.5-.08c-.02 0-.04 0-.03-.02l.02-.06a.1.1 0 0 1 .08-.06c.57-.05 1.07-.08 1.5-.09.72-.01.75.12.09.4-.03 0-.2-.02-.52-.08-.1-.02-.15.02-.15.12v.08a.17.17 0 0 0 .2.14c.2-.04.34.02.46.16a.26.26 0 0 0 .2.1c.14-.01.27.01.39.07Z" fill="#412008"/><path d="M27.11 13.85c.03.36-.2.55-.71.57-.42.01-.7.04-.83.07-.83.18-1.65.42-2.45.72a3 3 0 0 0-.16.09c-.08.05-.19.06-.3 0l-.03-.14c-.01-.17.01-.27.08-.3 1.38-.57 2.84-.9 4.4-1.01Z" fill="#261306"/><path d="M20.12 14.07c.08.25.2.41.33.48.08.04.16.04.24 0 .32-.16.57-.1.75.18-2.24.47-3.38 1.66-5.13 3.39-.24.38-.5.76-.78 1.12-.37.47-.5.9-.68 1.43l-1.16 2.45a1.3 1.3 0 0 0-.88-.13 16 16 0 0 1 7.31-8.92Z" fill="#D8964E"/><path d="m25.97 15.12 1.5.12c.02 0 .03.02.02.04l-.02.07c0 .02-.02.02-.04.03-.36.07-.71.1-1.05.1a.43.43 0 0 1-.24-.07 1.83 1.83 0 0 0-1.25-.27.07.07 0 0 1-.06-.03.07.07 0 0 1 0-.07l.02-.06c0-.02.02-.03.04-.03l.71-.07c.07 0 .13.01.18.06.04.03.06.06.07.09a.15.15 0 0 0 .12.09Z" fill="#261306"/><path d="m22.63 15.16.02.15c.02.07.01.13-.03.18a.17.17 0 0 1-.14.05c-.2-.13-.27-.33-.19-.59a.13.13 0 0 1 .2-.07l.05.06.09.22Z" fill="#8C5D2B"/><path d="M37.72 15.28A15.98 15.98 0 0 1 42 20.26l-.3.03c-.4-.22-.48-.14-.25.25.03.06.02.16-.05.29a.19.19 0 0 0 .03.22c.42.5.68 1.1.77 1.8-.15.09-.31.15-.5.18a1.78 1.78 0 0 1-.24-.77.31.31 0 0 0-.1-.2.75.75 0 0 1-.22-.27.24.24 0 0 1 .02-.23.33.33 0 0 0 .07-.19c0-.09-.05-.15-.13-.18-.14-.05-.23-.1-.27-.16a15.66 15.66 0 0 0-4.2-4.68c.28-.4.64-.76 1.08-1.07Z" fill="#F7C35C"/><path d="M20.72 16.05c-.07.17-.18.25-.33.25a.3.3 0 0 1-.23-.11l-.1-.12c-.05-.07-.12-.07-.18-.01l-2.96 2.52c-.16.13-.2.1-.11-.1a9.62 9.62 0 0 1 3.38-2.89c.2-.1.34-.02.56-.11.1-.05.19-.03.27.05a.8.8 0 0 1 .17.27c.04.1 0 .15-.1.14l-.16-.01c-.1-.01-.17.03-.2.12Z" fill="#8C5D2B"/><path d="M22.4 17.02c.05.1.15.22.31.34.08.05.1.13.09.23-.05.17 0 .27.15.29.1.01.16.06.2.14.38.7.74 1.26 1.07 1.67.04.05.1.06.16.02.04-.02.05-.05.05-.1v-.07c.05.06.1.16.14.3-.09.12-.25.16-.48.1l-.84-1.25c-.27-.41-.4-.37-.39.12 0 .08-.14.13-.42.15-.09 0-.13.06-.13.15 0 .14.08.24.23.3.16.07.26.16.31.27-.06.12-.3.12-.7-.02a.27.27 0 0 0-.32.11c-.27.44-.18.79.26 1.04.08.05.15.04.22-.02l.61-.52a.12.12 0 0 1 .14-.02l.04.04c.04.06.05.11.02.17a.2.2 0 0 1-.12.1c-.44.16-.7.38-.81.67a.35.35 0 0 1-.17.2.97.97 0 0 0-.27.2.11.11 0 0 0-.02.1.11.11 0 0 0 .08.08c.12.03.22.13.3.33a.2.2 0 0 1-.07.24l-.44.38a.2.2 0 0 1-.24.03l-.62-.31-.6-.1c-.15-.02-.15-.06 0-.1l.23-.06a.29.29 0 0 0 .18-.14c.11-.19.24-.3.4-.35a.21.21 0 0 0 .14-.18c.03-.2.13-.3.33-.3.1 0 .15-.05.15-.15 0-.09-.08-.18-.22-.28a.48.48 0 0 0-.22-.2c-.12-.4-.35-.7-.67-.87a.48.48 0 0 1-.18-.18 7.49 7.49 0 0 0-1.44-1.83.31.31 0 0 1-.1-.13.35.35 0 0 1 0-.16l.06-.04c.04-.01.07 0 .1.02l1.65 1.96c.02.03.04.02.06-.01l.05-.15c.01-.02.01-.05 0-.07l-1.24-1.68c-.07-.1-.06-.18.01-.26.28-.3.6-.46.96-.46.07 0 .14-.03.2-.08l.84-.72a.18.18 0 0 1 .22-.02l.05.06.7 1.02Z" fill="#D8964E"/><path d="M30.94 16.34c-.3.4.13.63-.04 1-.05.1-.02.14.1.11.11-.02.24.04.38.18.52.52 1.08 1.01 1.7 1.48a.36.36 0 0 1-.17.63l-.1.02a10.73 10.73 0 0 0-3.84-1.24c-.11-.02-.17-.08-.16-.2l.01-2.1c0-.14.07-.2.2-.17l1.92.29Z" fill="#FDE76E"/><path d="M20.52 18.39c.2-.13.17-.2-.06-.24-.34-.04-.59-.25-.75-.61-.1-.22-.06-.25.08-.1.06.05.12.07.18.07.04 0 .07 0 .09-.03l1.4-1.14c.15-.13.27-.1.37.06l.46.8c.11.2.07.37-.13.49l-1.58.91a.07.07 0 0 1-.1-.05c0-.09 0-.14.04-.16Z" fill="#261306"/><path d="M30.94 16.34c1.41.36 2.77.97 4.07 1.83.1.05.17.11.18.2 0 .04-.03.11-.1.2-.12.15-.2.33-.22.55-.2.13-.38.33-.56.6a.38.38 0 0 1-.2.14l-.79.24-.5-.34.1-.02a.36.36 0 0 0 .27-.47.36.36 0 0 0-.12-.16c-.6-.47-1.17-.96-1.7-1.48-.13-.14-.26-.2-.38-.18-.1.03-.14-.01-.1-.12.18-.36-.26-.6.05-1Z" fill="#F7C35C"/><path d="m38 17.84-1.52-1.24a.12.12 0 0 0-.17.01l-.01.02a.12.12 0 0 0 .02.17l1.53 1.24c.05.05.12.04.17-.01V18a.12.12 0 0 0-.01-.17ZM25.71 17.9c.02.01.03.03.04.06 0 .02 0 .04-.02.06-.2.17-.38.22-.56.15-.03-.01-.06-.04-.08-.08a.35.35 0 0 1-.02-.15c0-.07-.04-.23-.11-.46-.03-.08-.04-.15-.03-.2a.25.25 0 0 1 .06-.09c.06-.06.12-.06.18 0 .2.16.34.36.44.59l.1.12ZM34.62 17.22a.09.09 0 0 1 .06.04.08.08 0 0 1 .01.06c-.02.12-.1.18-.25.19a.11.11 0 0 1-.11-.1c-.02-.13.07-.2.29-.19Z" fill="#8C5D2B"/><path d="M18.74 17.45v.16c.02.05.05.1.1.13a7.5 7.5 0 0 1 1.44 1.83c.04.07.1.13.18.18.32.18.55.47.67.88v.1a.07.07 0 0 1-.13.03l-.9-1.06a.11.11 0 0 0-.17 0l-.57.64c-.03-.1-.08-.18-.17-.22l.15-.17c.06-.06.05-.1-.03-.13a.3.3 0 0 0-.08-.02c.1-.14.17-.27.2-.39.1.06.2.1.34.13.06.02.1 0 .12-.06v-.08c0-.05-.66-.8-.79-1a.5.5 0 0 0-.16-.15.45.45 0 0 0-.2-.06.37.37 0 0 0-.2.05.33.33 0 0 0-.13.14c-.03.05.03.1.18.17l-1.51 1.14a.14.14 0 0 0-.05.16c0 .02.01.03.03.05l.74.88.08.06.11.02c.13-.01.23-.06.33-.14.05.1.1.13.15.1l-.52.57a.26.26 0 0 0-.05.09l-.53 1.83a.13.13 0 0 0 .03.12.13.13 0 0 0 .1.05l.79-.05c-.48.07-.79.32-.92.74a.33.33 0 0 0 .02.25c.18.36.3.47.36.32.67.1 1.22.2 1.66.28.16.03.26-.08.3-.34.54-.17 1.1-.16 1.68.05.07.03.15.03.23 0l.39-.11c.11-.04.15 0 .11.11l-.88 2.5c-.27.58-.4 1.2-.38 1.84 0 .04-.02.05-.05.05l-.11-.01c-.03 0-.05-.02-.05-.05v-1.18c0-.1-.05-.15-.15-.14-.09 0-.14-.02-.16-.08-.04-.08-.1-.1-.19-.07-.38.14-.81.26-.9.58-.02.1.02.15.1.17l.22.05c.31.08.31.1-.01.08l-2.65-.23c-.08 0-.1.03-.08.1l.05.15.02.03.04.02 2.04.35c-.06 1.16.2 2.28.76 3.35a1 1 0 0 0 .3.35l.08.06c.08.06.08.12 0 .18a.33.33 0 0 1-.22.07.23.23 0 0 1-.2-.14c-.06-.12-.1-.2-.12-.21-.39-.35-.56-.27-.53.23 0 .07.09.29.25.66.04.1.1.15.2.18.26.09.5.32.73.69.03.05.03.1.01.14l-.05.14a.22.22 0 0 0 .02.22c.1.15.3.21.58.2-.17.11-.27.24-.3.36-.02.09 0 .16.08.2l2.46 1.44c-.25.05-.35.17-.3.34 0 .05.06.13.16.25-.11.3-.04.54.24.73.42.28.99.46 1.68.52.38.22.65.44.82.64a.42.42 0 0 0 .62.03c.05-.05.1-.12.11-.2l.08-.3a.18.18 0 0 1 .3-.07c.2.24.35.33.45.28.23.16.59.26 1.07.3.18.2.54.25 1.08.15l1.05-.24c.6-.14 1.16-.31 1.66-.52.34-.15.4-.37.17-.67l-.02-.03v-.04a.07.07 0 0 1 .06-.04l.1-.02a.1.1 0 0 1 .06 0 .1.1 0 0 1 .05.05l.52.99c-.1.07-.1.15-.05.24.03.05.07.08.14.07l-.11.14a.19.19 0 0 0 .1.3c.04 0 .08 0 .12-.02.7-.3 1.28-.53 1.9-1.01.42-.34.84-.63 1.25-.87.37-.05.77-.34 1.18-.88.5-.12.9-.4 1.22-.82a12.94 12.94 0 0 0 2.01-3.95c.05-.15.08-.29.09-.41 0-.09-.04-.14-.13-.15h-.1c-.12-.02-.16.03-.13.14.14.65-.87 2.27-1.15 2.77-.02.03-.05.04-.09.03-.02-.02-.03-.04-.01-.07l.97-2.46a.17.17 0 0 0-.03-.18.18.18 0 0 0-.17-.06c-.5.11-1.07.1-1.69-.03.05-.1.04-.22-.04-.35l3.86-.14c.09 0 .17.02.25.06l.32.15c-.24-.02-.4.1-.46.38-.06.3-.1.47-.13.53-.28.7-.6 1.45-.98 2.24a14.75 14.75 0 0 1-2.71 3.66c-.13-.15-.31-.1-.54.17l-.37.39c-1.15 1-2.5 1.92-3.94 2.42l-1.14.42a8.4 8.4 0 0 1-2.29.52c-.04 0-.07-.02-.07-.06v-.09c0-.05.03-.09.09-.1l1.66-.36c.12-.03.14-.09.06-.18l-.21-.25a.23.23 0 0 0-.27-.08l-.68.22h-.07a.1.1 0 0 1-.05-.04.18.18 0 0 1-.04-.12c0-.04.04-.07.11-.1.34-.14.62-.22.85-.23a.27.27 0 0 0 .21-.11c.18-.25.38-.33.61-.26h.05c.01 0 .01 0 0 0a4.54 4.54 0 0 0-1.15-.05 19.1 19.1 0 0 1-3.84.14 3.47 3.47 0 0 1-.91-.2.19.19 0 0 1-.14-.17v-.1a.09.09 0 0 0-.13-.1l-.37.24a.14.14 0 0 0-.07.1c0 .05 0 .08.02.11.05.08.11.1.19.08l.13-.04c.08-.03.15 0 .2.08.03.06.04.13.02.2a.22.22 0 0 1-.09.12.21.21 0 0 1-.14.04 11.79 11.79 0 0 1-4.4-1.42c-.03-.02-.06 0-.07.03l-.03.08c-.02.04-.01.07.03.09 1.24.66 2.54 1.15 3.9 1.44.08.02.1.06.04.12l-.04.07a.06.06 0 0 1-.06.02 14.06 14.06 0 0 1-7.22-3.74c-.08-.07-.17-.07-.25 0l-.14.12c-.08.07-.09.14 0 .22.93.92 1.96 1.7 3.1 2.36.06.04.06.08 0 .13l-.07.06a.08.08 0 0 1-.1.01 9.32 9.32 0 0 1-2.09-1.47.65.65 0 0 0-.24-.12.65.65 0 0 1-.22-.14A17.3 17.3 0 0 1 14.67 34l-.6-1.23a1.27 1.27 0 0 1-.17-.9l1.14 2.37a13.76 13.76 0 0 0 2.56 3.64.06.06 0 0 0 .05-.01l.02-.03.18-.44a.07.07 0 0 0-.02-.08l-1.44-1.7a.51.51 0 0 1-.1-.22 1.32 1.32 0 0 0-.13-.34 13.1 13.1 0 0 1-2-5.36c-.01-.15-.1-.24-.26-.25l-.18-.02c-.13-.01-.18.05-.17.18l.11.94c-.46-.35-.93-.25-1.4.3-.33-1.8-.35-3.64-.04-5.45l1.02.25c.1.02.15-.01.18-.1a25.95 25.95 0 0 1 1.94-4.95c0-.02.02-.02.04-.02l.08.02c.04.01.05.04.03.07a2.94 2.94 0 0 0-.42 1.98c.15.18.2.41.13.69-.01.06 0 .06.03.02a.28.28 0 0 0 .05-.2c0-.05.01-.1.04-.14.1-.2.23-.5.39-.92.08-.22.23-.4.45-.54a.23.23 0 0 0 .1-.2c0-.12-.08-.2-.2-.21l.37-.5c.08-.1.16-.11.25-.02.04.04.1.04.2-.01a.21.21 0 0 1 .25.03c.18.17.28.36.28.57 0 .1.06.14.16.14.08-.01.14-.06.18-.14a.17.17 0 0 0-.04-.2l-1.14-1.22a.59.59 0 0 1-.12-.18.5.5 0 0 1-.03-.2c0-.08.02-.14.05-.19a.3.3 0 0 1 .13-.11c.13-.06.25.02.35.25 0 .02.02.02.04.02l.08-.03c.02 0 .03-.02.02-.05l-.13-.43c-.02-.07 0-.12.07-.16a.25.25 0 0 1 .07-.02c.09 0 .15.03.19.1.04.1.1.16.16.21.06.05.11.04.16 0l.65-.68c.09-.08.07-.15-.03-.2l-.13-.05c.17 0 .3-.04.37-.1a.21.21 0 0 0 0-.33c-.04-.03-.1-.03-.2.01l.45-.2Z" fill="#50341D"/><path d="M18.12 18.07c-.03-.16.03-.3.18-.42.09-.04.15-.04.19 0a.2.2 0 0 1 .06.24.2.2 0 0 1-.06.07c-.08.07-.2.1-.37.11Z" fill="#8C5D2B"/><path d="M22.44 17.86c-.2.18-.34.36-.43.55a.19.19 0 0 1-.07.08l-.93.58a.17.17 0 0 1-.22-.04l-.05-.06a.1.1 0 0 1 .02-.14l1.58-1.05.04-.01c.01 0 .02 0 .03.02l.05.05-.02.02Z" fill="#402819"/><path d="M16.3 18.12c.05.14.14.28.28.4.07.06.1.14.07.23-.02.1-.08.16-.2.2a.46.46 0 0 0-.21.14l-1.4 1.58c.18-.53.32-.96.69-1.43.28-.36.54-.74.78-1.12ZM35.61 18.56l-.74.56c.03-.22.1-.4.22-.56.07-.08.1-.15.1-.2-.01-.08-.07-.14-.18-.19.12-.15.32-.02.6.39Z" fill="#8C5D2B"/><path d="m19.44 19.41-.85-.86c-.15-.07-.2-.12-.18-.17.03-.06.07-.11.13-.14a.37.37 0 0 1 .2-.05c.06 0 .14.02.2.06a.5.5 0 0 1 .16.15c.13.2.8.95.8 1l-.01.08c-.02.05-.06.08-.13.06a1.09 1.09 0 0 1-.32-.13Z" fill="#D8964E"/><path d="M34.09 21.1c.15.1.23.19.23.24.02.28-.08.33-.29.14a8.68 8.68 0 0 0-3.46-1.86c-1.31-.36-2.7-.46-4.14-.3l-1.86.52a.81.81 0 0 0-.14-.3.44.44 0 0 1-.1-.24.2.2 0 0 1 .1-.2c.77-.42 1.6-.69 2.53-.81.12-.02.17.03.16.15l-.03.37c0 .1.04.15.14.14 2.6-.27 4.88.44 6.86 2.15Z" fill="#F7C35C"/><path d="M34.35 18.54c.1.1.22.13.29.06.06-.06.03-.19-.06-.28-.1-.1-.23-.12-.29-.06-.06.06-.04.19.06.28Z" fill="#8C5D2B"/><path d="M41.25 25.4c-.22.02-.46 0-.72-.1a7.64 7.64 0 0 0-.82-3.1c-.04-.1-.07-.09-.08.02l.04.22c.02.1-.02.13-.12.12-.24-.05-.5-.01-.75.12-.2.1-.32.04-.39-.17-.36-1.22-.97-.89-1.85-.79-.42-.08-.83-.1-1.25-.02a.23.23 0 0 1-.24-.15.22.22 0 0 1-.02-.1c.02-.12.07-.2.18-.25l1.49.04c.1 0 .15-.04.18-.14a.7.7 0 0 0-.04-.5c.05-.18.03-.26-.04-.23.48-.5.68-.87.6-1.11.18-.14.06-.43-.34-.87-.07-.08-.06-.12.05-.14.1-.01.19.02.27.1a14 14 0 0 1 3.85 7.05Z" fill="#50341D"/><path d="M36.44 18.41c.17 0 .3.1.4.31.04.08.02.12-.07.11a9.8 9.8 0 0 0-.32-.02l-.31.04c-.1.02-.12-.02-.09-.1.1-.22.22-.33.39-.34Z" fill="#8C5D2B"/><path d="M24.09 19.95c.1.2 0 .26-.26.2a.21.21 0 0 1-.11-.08l-.74-.97a.1.1 0 0 0-.18.05c0 .17.05.31.16.44.02.03.02.05-.02.06l-.09.03c-.05-.11-.15-.2-.31-.26-.15-.07-.23-.17-.23-.31 0-.1.04-.14.13-.15.28-.02.42-.07.42-.15-.01-.5.12-.53.4-.12l.83 1.26Z" fill="#412008"/><path d="m18.59 18.55.85.86c-.04.12-.1.25-.21.39l-.91.92c-.1.08-.2.13-.33.14-.04 0-.07 0-.1-.02a.23.23 0 0 1-.1-.06l-.73-.88a.15.15 0 0 1 .02-.21l1.5-1.14Z" fill="#261306"/><path d="M35.61 18.56c.36.53.77.96 1.23 1.27.08.05.12.04.14-.05.07-.24.21-.42.45-.52.07.24-.13.6-.6 1.11-.42.06-.85-.03-1.3-.27-.08-.05-.15-.03-.2.05-.13.19-.27.34-.42.45a.19.19 0 0 1-.2.02c-.06-.03-.1-.08-.09-.16a.18.18 0 0 1 .05-.13 2 2 0 0 0 .46-.64c.12-.32.09-.35-.1-.08a74.65 74.65 0 0 0-.66 1.08.1.1 0 0 0 .04.09.1.1 0 0 0 .05.01h.18c.23-.1.29-.04.19.2-.06.15-.17.2-.33.17a.31.31 0 0 1-.18-.14 1.4 1.4 0 0 1-.11-.21c-.23-.27-.52-.5-.89-.7l.79-.25a.38.38 0 0 0 .2-.15c.18-.26.37-.46.56-.59l.74-.56Z" fill="#E4A64F"/><path d="M24.09 19.95c.23.05.39.01.48-.11l1.86-.53a1.37 1.37 0 0 0 .2.76v.04l-.02.06c-.02.04-.01.07.03.08 1.21.51 3.03.53 3.93-.63 1.35.39 2.5 1 3.46 1.86.21.2.3.14.3-.14-.01-.05-.09-.13-.24-.24.09 0 .13-.1.12-.3l.1.22c.06.07.12.12.2.14.15.04.26-.02.32-.17.1-.24.04-.3-.19-.2a.48.48 0 0 1-.19 0 .1.1 0 0 1-.07-.05.1.1 0 0 1 0-.1l.66-1.03c.18-.27.2-.24.1.08a2 2 0 0 1-.47.64.18.18 0 0 0-.05.13c0 .08.03.13.08.16.08.03.14.02.2-.02.16-.11.3-.26.43-.45.05-.08.12-.1.2-.05.45.24.88.33 1.3.27.06-.03.08.05.03.24h-1.59a.26.26 0 0 0-.26.33c.02.05.04.1.08.13l.14.13c-.1.04-.16.13-.18.26a.22.22 0 0 0 .16.23h.1c.42-.06.83-.05 1.25.04.45.06.71.4.8 1.02-.19-.7-.85-.39-1.26-.25-.32.1-.56.16-.71.16-.54.01-1.09-.02-1.63-.09-.07 0-.1.02-.13.08l-.04.1a.1.1 0 0 0 .04.11.1.1 0 0 0 .05.02l.68.05-.09.16a.13.13 0 0 0 .04.17l.06.02c1.31.15 2.36.16 3.25.82.06.05.1.03.13-.03l.24-.63c.06-.14.14-.16.26-.06l.63.57c.1.09.1.18.02.28a.76.76 0 0 1-.54.29l-1.77.13c-.03-.03-.15-.06-.36-.1-.27-.13-.65-.13-1.13 0a.2.2 0 0 0-.16.17.32.32 0 0 1-.09.17.16.16 0 0 1-.1.05l-.12-.03c-.27-.2-.52-.3-.76-.34l-1.12-1.27c-.05-.05-.04-.1.02-.14a.13.13 0 0 1 .12-.02h.05c.02 0 .04 0 .05-.02.11-.07.12-.23.04-.47-.05-.14-.13-.22-.25-.24-.23-.03-.4.04-.53.23a.23.23 0 0 1-.16.1.22.22 0 0 1-.18-.05 4.45 4.45 0 0 0-2.65-1.03l-2.34.04c-.8 0-1.56.2-2.27.62l-1.14-1.4c-.05-.07-.1-.08-.17-.02l-.21.17a.29.29 0 0 0-.03.4l.22.27c.04.04.03.08-.02.1a.42.42 0 0 0-.11.1c-.09.1-.07.15.06.17.16.03.3 0 .43-.1a.19.19 0 0 1 .22 0 .7.7 0 0 1 .35.62c-.1.13-.22.19-.35.17-.05-.01-.12-.08-.21-.2-.41-.19-.7-.1-.86.24l-3.44 1.7-1.64.2c-.06.15-.18.04-.36-.31a.33.33 0 0 1-.02-.26c.13-.42.44-.67.92-.74l.45-.17a.3.3 0 0 1 .26.01c.28.14.6.18.95.13a.28.28 0 0 0 .2-.12l.6-.8.61.3a.2.2 0 0 0 .23-.02l.45-.38a.2.2 0 0 0 .06-.24c-.07-.2-.17-.3-.3-.33a.11.11 0 0 1-.07-.07.11.11 0 0 1 .02-.11.97.97 0 0 1 .27-.2.35.35 0 0 0 .17-.2c.1-.29.37-.51.8-.67a.2.2 0 0 0 .13-.1c.03-.06.02-.11-.02-.17a.13.13 0 0 0-.09-.05.12.12 0 0 0-.09.03l-.61.52a.17.17 0 0 1-.22.02c-.44-.25-.53-.6-.26-1.04a.27.27 0 0 1 .31-.11c.4.14.64.14.71.02l.09-.03c.04-.01.04-.03.02-.06a.6.6 0 0 1-.16-.44.1.1 0 0 1 .07-.09.1.1 0 0 1 .1.04l.75.97c.03.04.07.06.1.07.28.07.37 0 .27-.2Z" fill="#763E0F"/><path d="M30.57 19.62c-.9 1.16-2.72 1.14-3.93.63-.04-.01-.05-.04-.03-.08a.24.24 0 0 0 .03-.06v-.04l-.02-.03c-.13-.2-.19-.45-.2-.73 1.45-.15 2.84-.05 4.15.31Z" fill="#4E290C"/><path d="M21.13 20.63c.1.04.17.1.22.19-.11.2-.32.23-.63.13-.11.02-.22-.06-.31-.24-.1-.1-.18-.12-.24-.07l-1.1.91c-.1.08-.18.11-.24.09l-.3-.13a.17.17 0 0 1-.1-.12.16.16 0 0 1 .04-.14l.89-.91.57-.65a.11.11 0 0 1 .08-.03.11.11 0 0 1 .09.04l.9 1.06a.07.07 0 0 0 .1 0l.02-.04.01-.1Z" fill="#BE6F17"/><path d="M19.23 19.8a.3.3 0 0 1 .08.02c.08.03.09.07.03.13l-.15.17-.72.7c-.05.03-.1 0-.15-.1l.9-.92Z" fill="#D8964E"/><path d="M29.69 20.06c.19.05.36.03.38-.04.02-.07-.13-.16-.32-.21-.2-.05-.37-.03-.38.04-.02.07.12.17.32.21Z" fill="#E4A64F"/><path d="M19.19 20.12c.09.04.14.11.16.22l-.88.9a.16.16 0 0 0-.04.15.16.16 0 0 0 .1.12l.3.13c.06.02.14 0 .24-.09l1.1-.91c.06-.05.14-.03.24.07 0 .17-.06.3-.19.38a6.1 6.1 0 0 0-1.02.82.1.1 0 0 0-.03.07c0 .03 0 .05.02.07l.07.08c.06.07.13.08.2 0l1.26-1.18c.3.1.52.06.63-.13.14.1.21.2.22.28 0 .1-.05.15-.15.15-.2 0-.3.1-.33.3a.2.2 0 0 1-.15.18c-.15.04-.28.16-.4.35a.29.29 0 0 1-.17.14l-.23.06c-.15.04-.15.08 0 .1l.6.1-.6.8a.28.28 0 0 1-.2.12c-.35.05-.66.01-.94-.13a.3.3 0 0 0-.26 0l-.45.16-.78.05a.13.13 0 0 1-.14-.17l.53-1.83a.26.26 0 0 1 .05-.09l.52-.57.72-.7Z" fill="#412008"/><path d="m42 20.26.1.18c-.42.26-.4.66.08 1.18.17.2.3.58.36 1.15l-.33.08c-.09-.7-.35-1.3-.77-1.8a.19.19 0 0 1-.03-.22c.07-.13.08-.23.05-.29-.23-.39-.15-.47.24-.25 0 0 .11 0 .3-.03Z" fill="#8C5D2B"/><path d="M42.1 20.44a16.01 16.01 0 0 1 1.62 4.58c-.12.15-.29.06-.5-.25l-.68-2c-.07-.57-.19-.96-.36-1.15-.48-.52-.5-.92-.08-1.18Z" fill="#FDE76E"/><path d="M36.86 20.6a.7.7 0 0 1 .04.5c-.03.1-.09.14-.18.14l-1.5-.04-.13-.13a.26.26 0 0 1 .18-.45l1.6-.01Z" fill="#F7C35C"/><path d="m20.72 20.95-1.26 1.19c-.07.07-.14.06-.2-.01l-.07-.08a.1.1 0 0 1-.02-.07.1.1 0 0 1 .03-.07c.3-.3.64-.57 1.02-.82.13-.09.2-.21.19-.38.1.18.2.26.31.23ZM17.54 21.7c.05.05.05.08-.01.11l-.1.05a.08.08 0 0 1-.03.01l-.04-.01-.53-.4c-.22-.18-.25-.38-.08-.62a.13.13 0 0 1 .13-.05.13.13 0 0 1 .1.1c.06.32.25.6.56.82Z" fill="#8C5D2B"/><path d="m24.65 22.32-.4.31a.7.7 0 0 0-.34-.63.19.19 0 0 0-.23.02.55.55 0 0 1-.43.1c-.13-.03-.15-.09-.06-.19a.42.42 0 0 1 .11-.09c.05-.02.06-.06.02-.1l-.22-.26a.3.3 0 0 1 .03-.4l.2-.18c.07-.06.13-.05.18.01l1.14 1.41Z" fill="#BE6F17"/><path d="m15.1 22.64.97-1.5c.13.02.2.09.21.2a.22.22 0 0 1-.1.21c-.22.14-.37.32-.45.54-.16.42-.29.73-.4.92a.26.26 0 0 0-.03.15c0 .07 0 .13-.05.19-.03.04-.04.04-.03-.02.07-.28.02-.5-.13-.69Z" fill="#8C5D2B"/><path d="M40.53 25.3c-.07.27.02.4.25.42 1.02.03 2.04.03 3.06-.01.07.5.12 1 .14 1.49a2.34 2.34 0 0 0-.92.03c-.1.02-.14.08-.15.17-.06.9.29 1.47 1.05 1.7-.05.84-.18 1.68-.37 2.51l-.24.06a1.32 1.32 0 0 0-.65-.01l-.32-.15a.54.54 0 0 0-.25-.06l-3.86.14c-.3-.08-.6-.05-.87.1a.16.16 0 0 0-.05.23c.01.03.04.05.07.06.37.14.67.12.9-.04.6.13 1.17.14 1.68.03a.18.18 0 0 1 .17.06.18.18 0 0 1 .03.18l-.97 2.46c-.02.03-.01.05.01.07.04.01.07 0 .1-.03.27-.5 1.28-2.12 1.14-2.77-.03-.1.01-.16.12-.15l.11.01c.1.01.14.06.13.15 0 .12-.04.26-.09.41a12.94 12.94 0 0 1-2 3.95c-.33.43-.73.7-1.23.82.21-.2.3-.34.29-.44-.02-.08-.06-.1-.12-.03L36.34 38c-.41.24-.83.53-1.26.87-.61.48-1.2.71-1.9 1.01a.18.18 0 0 1-.25-.17c0-.04.02-.08.04-.11l.11-.14a12.08 12.08 0 0 0 4.44-3.38.12.12 0 0 0-.02-.1.12.12 0 0 0-.05-.03l-.07-.03a.17.17 0 0 0-.2.06 11.3 11.3 0 0 1-3.5 2.8c-.02-.21-.05-.31-.1-.3l-.51-1.1v-.06c0-.02.02-.04.03-.05l.07-.04h.01l.6.92c.1.15.2.15.3 0l.07-.1a.3.3 0 0 0-.06-.4 2.75 2.75 0 0 1-.62-.8c.04-.16.14-.32.28-.48l.1.5c.04.2.1.33.17.38.15.08.3.08.49-.02a.15.15 0 0 0 0-.27c-.32-.16-.42-.4-.32-.7a.64.64 0 0 1 .26-.34.69.69 0 0 1 .42-.1c.03 0 .06.05.07.15 0 .07.05.12.12.13.05.01.12 0 .21-.01.1-.02.12-.07.08-.16a.4.4 0 0 1-.01-.3c.08-.27.15-.46.2-.59.04-.1.06-.09.07.02 0 .05.02.1.06.15.08.08.18.14.3.17.22.02.44 0 .67-.06.13.04.15.12.07.24-.2.3-.53.44-.97.4a.15.15 0 0 0-.15.08l-.01.05-.01.1c-.02.17.06.24.22.22a1.72 1.72 0 0 0 1.43-1c.14-.28.07-.35-.22-.22-.06.03-.13-.03-.21-.2l-.05-.4c.12-.24.13-.4.04-.48a4.2 4.2 0 0 0-.38-.5c-.09-.1-.17-.16-.24-.15-.1 0-.2.07-.27.21-.22.07-.43.07-.62 0a9.2 9.2 0 0 0 1.92-4.53.13.13 0 0 0-.07-.08.13.13 0 0 0-.04-.01c-.06 0-.11.01-.17.05-.12.04-.2.03-.22-.02-.14-.2-.3-.22-.46-.09a.1.1 0 0 1-.07.02l-1.25-.11c-.1 0-.15-.06-.12-.17.1-.31.1-.57.03-.77-.05-.11 0-.17.11-.17h2.1c.11 0 .17-.05.16-.16 0-1-.2-2-.6-2.99.62-.04 1.21-.1 1.77-.13a.76.76 0 0 0 .54-.29c.08-.1.08-.2-.02-.28l-.63-.57c-.12-.1-.2-.08-.26.06l-.24.63c-.03.06-.07.08-.13.03-.89-.66-1.94-.67-3.25-.82a.13.13 0 0 1-.12-.13c0-.02 0-.05.02-.06l.1-.16 2.99-.18c-.09-.62-.35-.96-.8-1.02.88-.11 1.49-.44 1.85.78.07.21.2.27.39.17.26-.13.5-.17.75-.12.1.01.14-.02.12-.12l-.04-.22c0-.1.04-.11.09-.02.48.98.76 2.01.8 3.1Z" fill="#402819"/><path d="M16.64 22.3c.18-.08.28-.28.2-.44-.06-.16-.27-.22-.46-.14-.18.08-.28.28-.2.44.06.16.27.23.46.14Z" fill="#D8964E"/><path d="M26.92 21.7a8.61 8.61 0 0 0-4.54 3.22c-.05.06-.09.06-.13 0-.02-.05-.01-.09.01-.13.3-.63.76-1.18 1.34-1.66.04-.03.04-.06 0-.08-.05-.02-.06-.05-.04-.09.12-.04.16-.16.13-.36.09.12.16.19.2.2.14.02.26-.04.36-.17l.4-.3a4.45 4.45 0 0 1 2.27-.63Z" fill="#E4A64F"/><path d="M29.26 21.66c.52.32 1.04.6 1.56.85.73.34 1.24.64 1.53.88 1.2 1 1.95 2.32 2.22 3.94.02.1.01.18-.02.27-.06.2-.07.34-.03.44.2.4.16.7-.12.9-.08.04-.1.11-.08.2l.12.36c.02.09.02.17 0 .25a5.61 5.61 0 0 1-1.33 2.45c-.83.8-1.6 1.36-2.29 1.66-.83.37-1.43.54-1.8.5a18.6 18.6 0 0 0-1.58-.06c-2.85 0-4.98-2.24-5.68-4.88a.13.13 0 0 0-.12-.1c-.15 0-.21.06-.18.2l-.22-2.3.88-2.49c.04-.11 0-.15-.11-.11l-.4.12a.36.36 0 0 1-.22 0 2.54 2.54 0 0 0-1.68-.06c-.04-.1-.15-.15-.32-.13l3.44-1.71c.18.14.42.18.73.12-.02.04 0 .07.03.1.05.01.05.04.02.07a5.03 5.03 0 0 0-1.35 1.66c-.02.04-.03.08 0 .12.03.07.07.07.12.01a8.61 8.61 0 0 1 4.54-3.22l2.34-.04Z" fill="#BE6F17"/><path d="M33.87 24.57c.5.97.82 1.88.99 2.74.04.2.16.3.36.3h1.38c.22 0 .31-.11.26-.34l-.63-2.72c.21.04.33.07.36.1.4.99.6 1.98.6 3 0 .1-.05.15-.15.15h-2.1c-.13 0-.17.06-.12.17.07.2.06.46-.03.77-.03.1.01.16.12.17l1.25.11a.1.1 0 0 0 .07-.02c.17-.13.32-.1.46.09l-1.6.03a.31.31 0 0 0-.3.24 7.28 7.28 0 0 1-1.32 2.88c-.55.55-1.08 1.17-1.72 1.56a7.4 7.4 0 0 1-2.07.88c-.63.16-1.42.07-2.03.08-3.1.06-5.4-2.33-6.2-5.23-.02-.15.04-.22.2-.2a.13.13 0 0 1 .1.1c.71 2.63 2.84 4.87 5.69 4.87.53 0 1.06.02 1.59.06.36.04.96-.13 1.8-.5.69-.3 1.45-.85 2.28-1.66.55-.52 1-1.34 1.33-2.45a.42.42 0 0 0 0-.25l-.12-.36c-.03-.09 0-.16.08-.2.28-.2.33-.5.12-.9-.04-.1-.03-.24.03-.44a.54.54 0 0 0 .02-.27 6.33 6.33 0 0 0-2.22-3.94c-.3-.24-.8-.54-1.53-.88-.52-.25-1.04-.53-1.56-.86A4.45 4.45 0 0 1 32 22.73a.23.23 0 0 0 .25-.1c.12-.18.3-.25.53-.22.12.02.2.1.25.24.08.24.07.4-.04.47a.13.13 0 0 1-.05.02h-.05a.13.13 0 0 0-.12.02c-.06.04-.07.09-.02.14l1.12 1.27Z" fill="#E4A64F"/><path d="m37.36 22.75-3 .18-.68-.05a.1.1 0 0 1-.09-.14l.04-.09c.02-.06.06-.08.13-.08.54.07 1.09.1 1.63.1.15-.01.4-.07.71-.17.4-.14 1.07-.44 1.26.25Z" fill="#D8964E"/><path d="M26.92 23.11c.06.22 0 .36-.17.42a4.81 4.81 0 0 0-3.16 3.07 4.54 4.54 0 0 0 1.3 4.94c.48.52 1.07.87 1.78 1.04.1.02.15.08.14.18l-.03.4c-.02.14.04.2.18.2l2.14.07c.17 0 .23-.08.2-.25l-.1-.4c-.01-.1.02-.18.11-.23a.34.34 0 0 1 .24-.03 4.42 4.42 0 0 0 3.17-3.27c.61-2.39-1-5-3.3-5.71-.13-.04-.19-.13-.17-.27l.05-.68c.02-.14.09-.19.22-.16a5.51 5.51 0 0 1 3.91 3.38c.44 1.02.6 2.06.52 3.14-.08.97-.48 1.9-1.21 2.76a5.8 5.8 0 0 1-3.33 2.01c-.56.12-1.34.14-2.35.07a4.5 4.5 0 0 1-2.15-.75 5.58 5.58 0 0 1-2.62-4.86c-.02-1.1.18-2 .61-2.69l.54-.59c.14-.15.23-.38.28-.69a.39.39 0 0 1 .11-.23 5.74 5.74 0 0 1 2.7-1.56c.08-.02.15 0 .2.08.1.16.17.37.2.61Z" fill="#FDFC98"/><path d="M23.69 22.6c.03.2-.01.32-.13.36-.3.06-.55.02-.73-.12.16-.35.45-.43.86-.24Z" fill="#F7C35C"/><path d="m28.5 23.18-.05.65c-.01.15-.1.23-.24.23-.08 0-.2-.03-.35-.08-.15-.06-.21-.16-.2-.31l.04-.46c.01-.13-.04-.2-.17-.2l-.2-.03c-.12 0-.17-.07-.16-.18v-.11c.01-.06.05-.1.1-.1l1.55-.04c.08 0 .13.04.15.12.01.06 0 .14-.06.22-.04.04-.12.08-.27.13a.17.17 0 0 0-.13.16Z" fill="#FDFC98"/><path d="m41.51 23.36.55 1.8c.03.08.07.14.13.2.06.05.14.1.22.11a.72.72 0 0 0 .53-.1c.04-.03-.04-.15-.26-.36a.04.04 0 0 1 0-.04.04.04 0 0 1 .03-.03c.2-.03.36-.08.5-.17.22.31.39.4.51.25l.12.69c-1.02.04-2.04.04-3.06 0-.23 0-.32-.14-.25-.41.26.1.5.12.72.1.2.1.38.12.53.04.08-.04.1-.1.08-.2l-.75-2.36a.03.03 0 0 1 .06-.03l.34.51Z" fill="#8C5D2B"/><path d="m42.54 22.77.68 2a1.37 1.37 0 0 1-.53.18l-.02.02a.04.04 0 0 0 .01.04c.22.2.3.33.26.36a.72.72 0 0 1-.26.1.64.64 0 0 1-.27 0 .5.5 0 0 1-.22-.11.44.44 0 0 1-.13-.2l-.55-1.8.2-.33c.19-.03.35-.1.5-.18l.33-.08Z" fill="#261306"/><path d="M14.06 26.63c-.12.56.03.97.27 1.45.04.08.03.16-.02.23-.23.26-.46.46-.69.58-.08.04-.15.03-.21-.04-.4-.43-.41-.89-.04-1.35a.46.46 0 0 0 .1-.24c.14-1.49.47-2.9 1-4.25.06-.17.17-.2.32-.12l.1.05c.15.08.18.2.1.34-.51.97-.66 2.13-.93 3.35Z" fill="#0A0706"/><path d="M13.7 23.12c-.04.29-.1.5-.17.62-.36 0-.65-.1-.87-.28l.15-.47c.32-.06.61-.02.88.13Z" fill="#763E0F"/><path d="M27.03 23.56c.02.3-.08.55-.32.74a.26.26 0 0 1-.18.06l-.27-.03c-.11 0-.17.04-.18.16-.01.37-.2.6-.56.7a.47.47 0 0 0-.22-.31.2.2 0 0 0-.26.05l-.18.22c-.08.1-.05.14.07.15.1 0 .21.03.3.08l-.26.32c-.4.39-.85.69-1.38.9a4.81 4.81 0 0 1 3.16-3.07c.18-.06.23-.2.17-.42.06.08.1.23.11.45Z" fill="#D8964E"/><path d="M31.03 26.98c-.24.44-.5.7-.8.8-.29.09-.28.16.02.22.56.1.98.49 1.28 1.15a3.35 3.35 0 0 1-2.56 1.17c.91-.34 1.58-1.29.56-1.93-.48-.3-1.32-.42-2.51-.35-.1 0-.16.06-.16.16V30c0 .1-.05.14-.15.1l-1.17-.43c.03-1.11.26-2.19.67-3.22a.42.42 0 0 1 .57-.23c.02 0 .06.07.14.17v.35c-.05.2-.06.4-.02.58.01.1.06.15.16.15.6.06 1.14.05 1.58-.01.8-.12 1.64-.78 1.04-1.68-.47-.7-1.5-.68-2.3-.69-.39 0-.57.17-.54.5-1.82.97-2.3 2.4-1.45 4.3-.96-1.24-.8-2.74-.42-4.19l.26-.32c.07.05.14.05.21 0 .05-.04.08-.1.08-.19.36-.1.55-.33.56-.7 0-.12.07-.17.18-.16l.27.03c.07 0 .13-.02.18-.06.24-.2.34-.44.32-.74l.1-.4c.01-.02.03-.04.07-.04l.18.02c.01 0 .02 0 .02.02l.1.94c0 .11.07.17.18.18l1.06.1c.07 0 .14.02.2.06.3.17.52.35.65.53a.4.4 0 0 0 .22.15c.41.1.78.36 1.12.75.26.31.2.75.1 1.1Z" fill="#763E0F"/><path d="M33.57 23.31c.28.1.36.3.25.6-.04.12-.1.12-.16.04-.12-.15-.2-.3-.25-.49-.04-.15 0-.2.16-.15Z" fill="#BE6F17"/><path d="m13.53 23.74-.3 1.2a.27.27 0 0 1-.12.17.26.26 0 0 1-.2.03l-.62-.16c.1-.51.22-1.02.37-1.52.22.18.5.27.87.28Z" fill="#F7C35C"/><path d="m36.23 24.55.63 2.72c.05.23-.04.34-.26.34h-1.38c-.2 0-.32-.1-.36-.3-.17-.86-.5-1.77-1-2.74.25.03.5.15.77.34l.12.03c.04 0 .07-.02.1-.05.05-.05.08-.1.09-.17a.2.2 0 0 1 .16-.17c.48-.13.86-.13 1.13 0Z" fill="#4E290C"/><path d="M19.39 24.55c.17-.02.28.03.32.13-.04.26-.14.37-.3.34-.44-.09-1-.18-1.66-.28l1.64-.2Z" fill="#D8964E"/><path d="m35.92 24.84.05.26a.1.1 0 0 1-.12.12.45.45 0 0 1-.17-.13c-.08-.08-.11-.15-.1-.22.04-.1.12-.14.24-.13l.06.03.04.07Z" fill="#8C5D2B"/><path d="M25.52 25.2c0 .08-.03.14-.08.18-.07.05-.14.05-.21 0a.78.78 0 0 0-.3-.08c-.12 0-.15-.06-.07-.15l.18-.22a.2.2 0 0 1 .26-.05c.1.06.18.16.22.31Z" fill="#F7C35C"/><path d="M17.86 25.1c.38.04.56.1.55.17 0 .08-.2.1-.57.05-.38-.04-.56-.1-.55-.17 0-.07.2-.1.57-.05Z" fill="#8C5D2B"/><path d="M19.38 25.77a.1.1 0 0 1-.07-.08.09.09 0 0 1 .04-.1l.17-.1a.18.18 0 0 1 .11-.02l1.22.14c.1 0 .2.04.27.1.08.04.13.11.15.19.01.02 0 .05-.04.07a.15.15 0 0 1-.12.04l-1.73-.24Z" fill="#D8964E"/><path d="M26.9 25.93c.05.16.05.3.02.46a.82.82 0 0 0-.14-.17.43.43 0 0 0-.48.09.42.42 0 0 0-.1.14 9.56 9.56 0 0 0-.66 3.22l-.02.36a.4.4 0 0 0-.13-.14c-.86-1.9-.37-3.33 1.45-4.3l.07.34Z" fill="#8C5D2B"/><path d="m17.59 25.65-.55-.04c-.1 0-.2.08-.2.18l-.02.31c0 .1.08.2.18.2l.55.04c.1 0 .2-.07.2-.18l.02-.31a.2.2 0 0 0-.18-.2ZM27.7 26.54c-.07.16-.17.25-.3.28l-.49-.08v-.35a.98.98 0 0 0 0-.46c.15-.2.34-.24.57-.1.24.13.31.37.23.71Z" fill="#E4A64F"/><path d="M27.4 26.82c.13-.03.23-.12.3-.28h1.38c.09 0 .14-.04.16-.13l.08-.3c.04-.16.1-.17.18-.02.17.35-.05.78-.4.9-.57.2-1.16.27-1.77.2a.16.16 0 0 1-.1-.04c-.12-.13-.07-.24.17-.33Z" fill="#763E0F"/><path d="M20.2 26.64c.4.05.73-.01.75-.14.01-.12-.3-.26-.7-.31-.4-.06-.73 0-.74.13-.02.12.29.27.69.32Z" fill="#E4A64F"/><path d="M18 26.74c-.04.18-.02.34.06.36.07.02.16-.11.2-.3.05-.18.03-.34-.04-.36-.07-.01-.17.12-.21.3Z" fill="#BE6F17"/><path d="M19.07 26.99c.19-.03.32-.16.3-.3-.01-.14-.18-.24-.36-.21-.19.02-.32.15-.3.3.01.14.18.23.36.2Z" fill="#E4A64F"/><path d="M31.53 29.15c-.3-.66-.72-1.04-1.28-1.15-.3-.06-.3-.13-.01-.22.29-.1.55-.36.79-.8.24.13.13.42-.35.86a.1.1 0 0 0 .03.18c.72.32 1 .7.82 1.13Z" fill="#D8964E"/><path d="M43.98 27.2c.03.63.03 1.26-.02 1.9-.76-.23-1.11-.8-1.05-1.7 0-.1.06-.15.15-.17.28-.07.6-.08.92-.03Z" fill="#261306"/><path d="m21.24 27.22.22 2.3c.78 2.9 3.1 5.3 6.19 5.24.6-.01 1.4.08 2.03-.08a7.4 7.4 0 0 0 2.07-.88c.64-.39 1.17-1 1.72-1.56l.34.2c.09.06.1.12.04.2-.13.18-.23.36-.28.5-.1.3-.05.33.16.1a4 4 0 0 1 1.13-.82c.04-.02.07-.01.09.03l.05.1c.02.02.01.04-.01.05l-.54.3a.14.14 0 0 0-.05.2c.18.33.2.57.06.73-.56.6-1.24.98-2.04 1.11.08-.12.1-.22.08-.3-.04-.08-.1-.1-.22-.06-.11.05-.21.17-.29.35-1.04-.02-2.38.37-1.94 1.73.02.06.05.1.1.14l.16.1c.32.06.35.2.09.43-.12.1-.23.09-.33-.04a.24.24 0 0 0-.22-.1l-3.25.15a.56.56 0 0 0-.03-.4.42.42 0 0 0-.3-.23c-.12-.03-.42-.09-.9-.16a2.14 2.14 0 0 1-1.01-.55.4.4 0 0 0-.26-.1c-.46-.02-1.1-.46-1.54-.67-.28-.13-.45-.04-.5.27-.04.27.04.47.25.6-.35-.02-.6-.23-.77-.64a.21.21 0 0 1 .03-.24c.27-.3.31-.66.14-1.06-.04-.09-.09-.1-.16-.04-.31.25-.57.55-.76.88-.29.02-.48-.04-.58-.19a.22.22 0 0 1-.02-.22l.05-.14a.15.15 0 0 0 0-.14c-.24-.37-.48-.6-.75-.7a.3.3 0 0 1-.19-.17c-.16-.37-.25-.6-.25-.66-.03-.5.14-.58.53-.23l.12.21c.04.09.1.13.2.14.08 0 .15-.02.22-.07.08-.06.08-.12 0-.18l-.08-.06c.13 0 .17-.1.1-.29-.63-1.8-1.02-2.94-1.16-3.4l-2.04-.36a.07.07 0 0 1-.06-.05l-.05-.15c-.03-.07 0-.1.08-.1l2.65.23c.32.03.32 0 0-.08l-.2-.05c-.1-.02-.13-.08-.1-.17.08-.32.51-.44.9-.58.08-.03.14 0 .18.07.02.06.07.08.16.08.1-.01.15.04.15.14v1.18c0 .03.02.05.05.05l.11.01c.03 0 .05-.01.05-.05-.01-.65.11-1.26.38-1.85Z" fill="#763E0F"/><path d="M28.97 30.32a7.37 7.37 0 0 1-3.4-.18.06.06 0 0 1-.04-.04.4.4 0 0 1-.01-.07l.02-.36 1.17.43c.1.04.15 0 .15-.1v-1.8c0-.1.06-.16.16-.16 1.19-.07 2.03.04 2.5.35 1.03.64.36 1.6-.55 1.93Z" fill="#D8964E"/><path d="M37.05 28.26c0 .15.06.27.12.27s.11-.12.1-.28c0-.15-.04-.27-.1-.27-.07 0-.12.12-.12.28ZM27.58 28.67l-.4-.04c-.07 0-.1-.04-.1-.1l.02-.08c0-.05.03-.08.08-.09.88-.12 2.37-.28 2.65.77.02.09 0 .17-.04.24-.54.75-1.63.8-2.53.75a.16.16 0 0 1-.16-.11.18.18 0 0 1 0-.09c0-.09.05-.15.14-.17l.3-.06c.09-.02.14-.07.14-.17l.06-.66a.17.17 0 0 0-.09-.17.17.17 0 0 0-.07-.02Z" fill="#8C5D2B"/><path d="M28.76 29.55a.04.04 0 0 1-.03 0 .05.05 0 0 1-.03-.02v-.02a.5.5 0 0 1 0-.37c.06-.12.15-.21.26-.25l.02-.01a.46.46 0 0 1 .36.02c.11.05.2.15.25.27v.02a.04.04 0 0 1 0 .04.05.05 0 0 1-.02.02l-.8.3Z" fill="#D8964E"/><path d="M18.98 28.9c.14.46.53 1.6 1.16 3.4.07.2.03.29-.1.29a1 1 0 0 1-.3-.35 6.42 6.42 0 0 1-.76-3.35Z" fill="#E4A64F"/><path d="m35.27 33.68-1.91 1.78a8.7 8.7 0 0 1-2.6 1.23c-.05.02-.08 0-.09-.05l-.02-.1c-.01-.07.01-.11.08-.14a8.85 8.85 0 0 0 6.18-7.29.23.23 0 0 1 .17-.05.12.12 0 0 1 .08.05.13.13 0 0 1 .03.1 9.2 9.2 0 0 1-1.92 4.47Z" fill="#F7C35C"/><path d="M36.69 29.09c.03.05.1.06.22.02a8.85 8.85 0 0 1-6.18 7.3c-.07.02-.1.06-.08.13l.02.1c.01.05.04.07.09.05a8.7 8.7 0 0 0 2.6-1.23c.09.07.09.19 0 .36-.05.07-.03.13.04.18.2.1.31.23.35.38-.14.16-.24.32-.28.49a2.16 2.16 0 0 1-.47-.57.2.2 0 0 0-.19-.1c-.2.02-.31.12-.33.29-.07.77.18 1.44.72 2 .07.08.2.08.37 0 .06-.01.1.09.12.3l-.7.37-.52-.99a.1.1 0 0 0-.05-.05.1.1 0 0 0-.06 0l-.1.02a.08.08 0 0 0-.05.04v.07c.23.3.18.52-.16.67-.5.2-1.05.38-1.66.52l-1.05.24c-.54.1-.9.05-1.08-.16l.21-.68a.24.24 0 0 1 .25-.18c.86-.01 1.36-.21 1.48-.59.1-.32.02-.38-.25-.18a.63.63 0 0 1-.4.1c-.9-.02-1.73-.1-2.5-.23-.5-.09-.84.23-1.37.13-.91-.19-1.8-.48-2.65-.88l-2.46-1.44c-.08-.04-.1-.11-.08-.2.03-.12.13-.25.3-.37.2-.33.45-.63.76-.88.07-.06.12-.05.16.04.17.4.13.76-.14 1.06a.21.21 0 0 0-.03.24c.16.4.42.62.77.65 1.24.77 2.56 1.3 3.98 1.62.1.02.17 0 .23-.07.07-.07.1-.18.08-.32l3.25-.15c.09-.01.16.02.22.1.1.13.2.14.33.04.26-.23.23-.37-.09-.42a.79.79 0 0 1-.16-.1.3.3 0 0 1-.1-.15c-.44-1.36.9-1.75 1.94-1.73.04.15.18.15.43.01.8-.13 1.48-.5 2.04-1.11.14-.16.12-.4-.06-.73a.15.15 0 0 1 .05-.2l.54-.3c.02-.01.03-.03.01-.06l-.05-.1c-.02-.03-.05-.04-.1-.02a4 4 0 0 0-1.12.82c-.21.23-.27.2-.16-.1.05-.14.15-.32.28-.5.06-.08.04-.14-.04-.2l-.34-.2a7.28 7.28 0 0 0 1.33-2.88.32.32 0 0 1 .3-.24l1.59-.03Z" fill="#4E290C"/><path d="M39.18 29.79c-.52-.08-.6-.45-1.14-.23-.09.03-.16 0-.2-.08l-.09-.16a.13.13 0 0 1 0-.14.13.13 0 0 1 .13-.05l1.39.12c.11 0 .17.07.16.18l-.02.17c-.01.14-.09.2-.23.19Z" fill="#763E0F"/><path d="m13.9 31.85-.24-1.3-.1-.95c-.02-.13.03-.2.16-.18l.18.02c.16.01.25.1.27.25.24 1.87.9 3.66 1.99 5.36.04.06.08.18.12.34.02.08.06.15.11.22l1.44 1.7c.02.02.03.05.02.08l-.18.44a.06.06 0 0 1-.04.04.06.06 0 0 1-.06-.02 13.76 13.76 0 0 1-2.53-3.62l-1.14-2.38Z" fill="#0A0706"/><path d="M36.1 30.12c-.04.12-.11.14-.21.06a.33.33 0 0 1-.14-.36c.02-.06.06-.1.14-.14a.28.28 0 0 1 .2-.02c.12.03.16.1.11.21l-.1.25Z" fill="#8C5D2B"/><path d="M20.79 30.4c-.04-.05-.04-.1 0-.13l.07-.05c.07-.06.14-.06.21 0 .1.07.16.2.2.37.03.1-.01.15-.12.13-.1-.02-.22-.13-.36-.33ZM13.66 30.54l.24 1.31c-.05.38 0 .68.17.9-.17.12-.32.2-.46.22-.13.03-.14.08-.03.15.04.03.09.05.13.06.09.03.12.08.1.18a.94.94 0 0 0-.06.34c.03.11.1.18.2.21l.35.1c.11.04.16.11.15.23l-.01.1c0 .08.01.15.04.21a17 17 0 0 0 2.8 3.9c-.02.67.44 1.26 1.38 1.79.06.03.1.08.1.15 0 .04.02.07.03.1.05.12.1.12.15 0a.87.87 0 0 1 .3-.44l.44.32c-.15.1-.26.2-.34.32-.05.08-.03.15.05.19l1.49.78c1.43.71 2.86 1.22 4.28 1.52.07.02.12 0 .14-.08l.03-.08c.03-.1.09-.08.17.06.1.16.24.19.43.1.07.43.3.61.67.54a.2.2 0 0 0 .17-.17c.02-.12.06-.21.13-.3.06-.06.14-.1.23-.1l.74.05c.06.19.05.45-.02.8a16 16 0 0 1-15.6-13.15c.48-.56.95-.66 1.41-.3ZM37.39 30.8l-.06-.03a.08.08 0 0 0-.1.05l-.55 1.38c-.02.05 0 .1.04.11l.06.02c.04.02.09 0 .1-.04l.55-1.39c.02-.04 0-.09-.04-.1Z" fill="#D8964E"/><path d="M27.64 31.62c.07.4.05.81-.06 1.21-.02.09.01.14.1.16.28.06.52.06.72.01.14-.04.18-.2.11-.5l.05.08a.26.26 0 0 0 .42.04c.03-.04.05-.1.06-.15l.08-.94a.23.23 0 0 1 .08-.16.22.22 0 0 1 .16-.05l.82.07a.2.2 0 0 1 .18.16c.03.17-.06.31-.26.42l-.72.33c-.08.04-.06.08.05.13.04.02.08.05.12.1a.34.34 0 0 0-.24.02c-.09.05-.12.13-.1.23l.09.4c.03.17-.03.25-.2.25l-2.14-.06c-.14 0-.2-.07-.19-.21l.04-.4c0-.1-.04-.16-.14-.18-.7-.17-1.3-.52-1.78-1.04l1.78-.27a.19.19 0 0 1 .22.17l.09 1.01c0 .09.05.14.14.14l.07.01c.04 0 .06-.01.08-.05l.37-.93Z" fill="#E4A64F"/><path d="M28.51 32.5c.07.3.03.46-.11.5-.2.05-.44.05-.72-.01-.09-.02-.12-.07-.1-.16.1-.4.13-.8.06-1.21.21-.2.45-.24.7-.11.09.04.13.11.13.2l.04.79Z" fill="#FDFC98"/><path d="M38.27 31.6c.08.12.1.23.04.34-.22.16-.52.18-.9.04a.16.16 0 0 1-.07-.23.16.16 0 0 1 .06-.06c.27-.15.57-.18.87-.1Z" fill="#E4A64F"/><path d="M43.35 31.67c-.19.93-.45 1.74-.77 2.45-.37.8-.86 1.04-1.45.7.37-.8.7-1.55.98-2.25.02-.06.07-.23.13-.53.07-.28.22-.4.46-.38.21-.05.43-.05.65.01Z" fill="#F7C35C"/><path d="M43.59 31.61a16 16 0 0 1-4.06 7.48c-.53.06-.98.33-1.35-.18-.07-.09-.06-.17.02-.24l.22-.2c1.1-1.08 2-2.3 2.7-3.66.6.35 1.09.11 1.46-.7.32-.7.58-1.51.77-2.44l.24-.06Z" fill="#D8964E"/><path d="M41.58 31.82c.15-.03.2.03.14.17l-1.15 2.84a.2.2 0 0 1-.25.11l-.32-.13c-.08-.03-.1-.08-.05-.16.5-.8.87-1.66 1.12-2.57a.29.29 0 0 1 .22-.2l.29-.06Z" fill="#0A0706"/><path d="M22.19 32.86c.43.75 1.11.78 1.68 1.24a.2.2 0 0 1 .05.24.18.18 0 0 1-.04.06.18.18 0 0 1-.08.03l-.07-.01a6.08 6.08 0 0 1-2.05-1.88.14.14 0 0 1 .1-.15l.09-.03c.08-.03.15 0 .18.08.07.15.04.24.14.42Z" fill="#BE6F17"/><path d="M18.52 34.16c-.46-.47-.7-.8-.71-.96-.07-.66.15-.77.66-.34.26.22.36.61.3 1.17-.01.1.03.13.12.1l.23-.04c.16-.03.18 0 .07.12l-.27.29a.46.46 0 0 0 .07.7l.7.48a.08.08 0 0 1 .03.07v.04c-.02 0-.03.02-.04.03l-.12.07a.23.23 0 0 1-.28-.04c-.27-.25-.53-.52-.78-.8a.64.64 0 0 1-.14-.4c0-.15.04-.26.14-.33.07-.04.08-.1.02-.16Z" fill="#763E0F"/><path d="m38.42 38.47-.22.2c-.08.07-.09.15-.02.24.37.51.82.24 1.35.18-.24.25-.48.48-.73.7l-.73-.52c-.07-.05-.14-.05-.2 0l-2.83 2.02-2.52.76a.54.54 0 0 0-.23.13c-.34.32-.73.55-1.18.69a.2.2 0 0 1-.22-.07.35.35 0 0 0-.14-.1c-.07-.03-.17-.02-.3.01-.57.16-1.14.23-1.72.23-.43-.07-.71.02-.86.26l-.74-.04c-.09 0-.17.03-.23.1a.59.59 0 0 0-.13.29.2.2 0 0 1-.17.17c-.38.07-.6-.1-.67-.55a.43.43 0 0 1 .12-.17c.28.07.5.07.68-.02.09-.04.12-.1.09-.2-.11-.28-.32-.36-.65-.22-.11.05-.18.17-.2.35-.09.08-.17.04-.25-.1a.2.2 0 0 0-.13-.1l-3.35-.85a.6.6 0 0 1-.26-.13c-.33-.28-.7-.49-1.1-.63l-1.2-.73-.44-.32-1.96-1.6a17 17 0 0 1-2.8-3.9.38.38 0 0 1-.04-.2l.01-.11c.01-.12-.04-.2-.15-.23l-.36-.1c-.1-.03-.16-.1-.2-.21a.94.94 0 0 1 .07-.34c.02-.1-.01-.15-.1-.18a.47.47 0 0 1-.13-.06c-.1-.07-.1-.12.03-.15.14-.02.3-.1.46-.21l.6 1.23a17.3 17.3 0 0 0 3.58 4.95c.07.06.14.1.22.14.11.03.19.08.24.12a9.3 9.3 0 0 0 2.09 1.47c.03.02.07.02.1 0l.08-.07c.05-.05.05-.1-.01-.13a15.43 15.43 0 0 1-3.1-2.36c-.09-.08-.08-.15 0-.22l.14-.12c.08-.07.17-.07.25 0a14.06 14.06 0 0 0 7.22 3.74c.02 0 .04 0 .06-.02l.04-.07c.05-.06.04-.1-.04-.12-1.36-.3-2.66-.78-3.9-1.44-.04-.02-.05-.05-.03-.09l.03-.08c.01-.04.04-.05.08-.03a11.8 11.8 0 0 0 4.38 1.42c.06 0 .1 0 .15-.04a.22.22 0 0 0 .09-.12.27.27 0 0 0-.03-.2c-.04-.08-.1-.11-.2-.08l-.12.04c-.08.02-.14 0-.19-.08a.16.16 0 0 1-.02-.1c0-.05.03-.09.07-.11l.37-.23a.09.09 0 0 1 .1 0 .09.09 0 0 1 .03.08v.1c.01.1.05.15.14.18.33.12.64.18.91.2 1.4.08 2.68.03 3.84-.14a4.55 4.55 0 0 1 1.1.05c-.23-.07-.43.01-.6.26a.27.27 0 0 1-.22.11c-.23.01-.51.09-.85.23-.07.03-.1.06-.1.1-.01.04 0 .08.03.12a.1.1 0 0 0 .05.04h.07l.68-.22c.1-.03.2 0 .27.08l.21.25c.08.1.06.15-.06.18l-1.66.36c-.06.01-.09.05-.09.1v.09c0 .04.03.06.07.06a8.4 8.4 0 0 0 2.29-.52l1.14-.42c1.43-.5 2.79-1.42 3.94-2.42.07-.06.19-.19.37-.4.23-.25.4-.3.54-.16Z" fill="#0A0706"/><path d="m36.78 34.12-.02.08c-.02.06-.05.07-.1.04l-.77-.56c.08-.14.17-.2.27-.21.07 0 .15.04.24.14.14.16.26.33.38.51Z" fill="#BE6F17"/><path d="m35.89 33.68.77.56c.05.03.08.02.1-.04l.02-.08c.09.08.08.24-.04.49a.72.72 0 0 0-.56-.11.22.22 0 0 0-.18.17c-.06.22-.07.46-.03.72a.55.55 0 0 1-.3-.17.24.24 0 0 1-.06-.15c0-.1-.03-.11-.07-.02-.05.13-.12.32-.2.59a.4.4 0 0 0 .01.3c.04.09.02.14-.08.16a.57.57 0 0 1-.21 0c-.07 0-.11-.05-.12-.12-.01-.1-.04-.16-.07-.16a.69.69 0 0 0-.42.11.64.64 0 0 0-.26.33c-.1.31 0 .55.31.71a.15.15 0 0 1 .06.21.15.15 0 0 1-.05.06c-.18.1-.34.1-.49.02-.08-.05-.13-.18-.17-.38l-.1-.5c-.04-.15-.15-.28-.35-.38-.07-.05-.09-.1-.05-.18.1-.17.1-.3 0-.36l1.92-1.78c.2.07.4.07.62 0Z" fill="#8C5D2B"/><path d="M38.63 34.21c.21-.12.33-.3.27-.42-.06-.1-.29-.1-.5.03-.21.12-.33.31-.27.42.06.11.29.1.5-.03Z" fill="#763E0F"/><path d="m36.74 34.6.05.4c0 .17-.04.27-.15.33-.23.06-.45.08-.67.06-.04-.26-.03-.5.03-.72a.22.22 0 0 1 .18-.17c.18-.05.37 0 .56.1Z" fill="#E4A64F"/><path d="M32.42 34.94c-.25.14-.4.14-.43 0 .08-.2.18-.3.3-.36.1-.04.17-.02.2.06.04.08.01.18-.07.3Z" fill="#BE6F17"/><path d="M21.46 37.86c0 .05.07.12.21.22.14.09.16.2.06.33l-.31.42a.25.25 0 0 1-.35.05c-.67-.5-1.45-1.12-2.34-1.86a7.56 7.56 0 0 1-1.74-2.1.06.06 0 0 1 .03-.05l.03-.01h.13c.02 0 .04 0 .05.03a6.6 6.6 0 0 0 1.48 1.82c.23.2.46.33.71.4.33.08.58.18.73.3a8 8 0 0 1 .93.78.17.17 0 0 0 .16-.03.18.18 0 0 0 .05-.07c.08-.18.02-.3-.18-.36-.12-.03-.14-.1-.08-.2.3-.48.75-.55 1.33-.2.09.06.1.12.02.2-.08.08-.3.12-.65.11-.16 0-.24.07-.27.22Z" fill="#0A0706"/><path d="M36.64 35.33c.1-.05.16-.16.15-.32.08.16.15.22.2.2.3-.14.37-.07.23.22-.29.58-.76.91-1.43 1-.16 0-.24-.06-.22-.23v-.1a.15.15 0 0 1 .06-.1.14.14 0 0 1 .1-.03c.45.04.78-.1.98-.4.08-.12.06-.2-.07-.24Z" fill="#8C5D2B"/><path d="M26.6 37.34c.01.14-.01.25-.08.32a.23.23 0 0 1-.23.07 12.54 12.54 0 0 1-3.98-1.62c-.2-.14-.29-.34-.25-.61.05-.31.22-.4.5-.27.44.2 1.08.65 1.54.68.1 0 .18.03.26.1.35.3.7.49 1.02.54.47.07.77.13.9.16.13.04.23.11.29.23.06.12.07.26.03.4Z" fill="#F7C35C"/><path d="M40.1 35.4c.05.06.05.12.01.18a11.62 11.62 0 0 1-3.7 3.95c-.04.04-.09.03-.13-.02l-.19-.22c-.05-.06-.04-.11.02-.16a15.2 15.2 0 0 0 3.63-3.94.17.17 0 0 1 .21.04l.15.17Z" fill="#0A0706"/><path d="M33.08 39.47c-.07 0-.11-.02-.14-.07-.06-.09-.04-.17.05-.24l.7-.36a11.3 11.3 0 0 0 3.5-2.81.17.17 0 0 1 .19-.06l.07.03a.12.12 0 0 1 .07.08.12.12 0 0 1-.02.1 12.08 12.08 0 0 1-4.42 3.33Z" fill="#F7C35C"/><path d="M33.47 36.87c.17.31.38.57.62.78a.3.3 0 0 1 .06.4l-.07.1c-.1.16-.2.16-.3 0l-.6-.9h-.01l-.07.03a.09.09 0 0 0-.03.05v.05l.5 1.12c-.17.07-.3.07-.37 0a2.47 2.47 0 0 1-.72-2.01c.02-.17.13-.27.33-.29a.2.2 0 0 1 .2.1c.12.22.27.4.46.57Z" fill="#763E0F"/><path d="M29.66 36.42h-1.31a.2.2 0 0 0-.21.21v.03c0 .11.1.2.2.2h1.32c.12 0 .21-.09.21-.2v-.03a.2.2 0 0 0-.2-.2Z" fill="#412008"/><path d="M37.52 37.13c-.41.54-.81.83-1.18.88l1.35-1.35c.06-.07.1-.05.12.03.02.1-.08.25-.29.44ZM23.03 37c.86.41 1.74.7 2.65.89.53.1.87-.22 1.38-.13.76.14 1.6.21 2.48.23.18.01.31-.02.41-.1.27-.2.35-.14.25.18-.12.38-.62.58-1.48.59-.12 0-.2.06-.25.18l-.21.68a2.17 2.17 0 0 1-1.08-.3c.04-.27-.06-.42-.3-.44-.43-.04-.81-.13-1.24-.12a6.4 6.4 0 0 1-2.75-1.06.87.87 0 0 1-.16-.25c-.05-.17.05-.29.3-.34ZM17.28 38.46l1.96 1.6a.87.87 0 0 0-.3.42c-.05.13-.1.13-.15.01a.29.29 0 0 1-.03-.1.18.18 0 0 0-.1-.15c-.94-.53-1.4-1.12-1.38-1.78Z" fill="#8C5D2B"/><path d="m23.76 39.08-.78-.27a.2.2 0 0 0-.27.12l-.02.07a.2.2 0 0 0 .13.27l.78.27a.2.2 0 0 0 .26-.12l.03-.07a.2.2 0 0 0-.13-.27Z" fill="#0A0706"/><path d="M38.8 39.8c-.46.42-.94.82-1.45 1.18-.47 0-.75.2-.83.56a16.02 16.02 0 0 1-7.05 2.4l-.55-.67v-.09c.02-.06.06-.1.12-.09l1.1.1c.08 0 .12.04.13.11.04.12.12.16.26.13a20.5 20.5 0 0 0 3.22-.9c.3-.16.59-.22.84-.19.1.01.16-.02.2-.1.06-.12.06-.3 0-.5-.08-.07 0-.22.25-.45l2.82-2.02c.07-.05.14-.05.21 0l.73.53Z" fill="#E4A64F"/><path d="m36 39.93-2.67 1.4a.2.2 0 0 1-.22-.03.2.2 0 0 1-.04-.06l-.16-.3c-.04-.08-.02-.13.06-.16.9-.28 1.73-.68 2.49-1.2a.28.28 0 0 1 .3-.01l.25.14c.13.08.13.15 0 .22Z" fill="#0A0706"/><path d="m19.68 40.37 1.2.73c.1.23.1.41 0 .56l-1.49-.78c-.08-.04-.1-.1-.05-.19.08-.12.2-.23.34-.32Z" fill="#8C5D2B"/><path d="M32.2 41.17c.01-.17.1-.22.24-.15.13.07.22.17.26.32l-.01.1a.14.14 0 0 1-.07.06c-.3.12-.43.01-.42-.33Z" fill="#0A0706"/><path d="M37.35 40.98c-.27.2-.55.39-.83.56.08-.37.36-.55.83-.56Z" fill="#8C5D2B"/><path d="m25.97 42.91.08.09a.43.43 0 0 0-.12.17c-.2.1-.33.07-.43-.1-.08-.13-.14-.15-.17-.05l-.03.08c-.02.07-.07.1-.14.08-1.42-.3-2.85-.8-4.28-1.52.1-.15.1-.33 0-.56.4.14.77.35 1.1.63.08.07.16.1.26.13l3.35.85c.06.01.1.05.13.1.08.14.16.18.25.1Z" fill="#50341D"/><path d="M35.04 41.3c-.24.22-.33.37-.26.44-1.06.23-1.4.5-1.03.79-.98.37-2.05.67-3.22.9-.14.03-.22-.01-.26-.13-.01-.07-.05-.1-.12-.1l-1.1-.1c-.07-.01-.11.02-.12.08l-.01.1c-.14-.13-.2-.24-.19-.34.58 0 1.15-.07 1.72-.23.13-.03.23-.04.3 0 .05.02.1.05.14.1.06.07.13.09.22.06.45-.14.84-.37 1.19-.69.06-.06.13-.1.22-.13l2.52-.76Z" fill="#8C5D2B"/><path d="M34.78 41.74c.07.2.07.38.01.5-.04.08-.1.11-.2.1-.25-.03-.53.03-.84.19-.37-.3-.03-.56 1.03-.8Z" fill="#261306"/><path d="M26.05 43a.17.17 0 0 1-.08-.09c.02-.18.09-.3.2-.35.33-.14.54-.06.64.23.04.09.01.15-.08.2a.96.96 0 0 1-.68 0Z" fill="#D8964E"/><path d="M28.73 42.94c-.02.1.04.21.19.33l.55.66c-.54.05-1.08.07-1.62.07.07-.35.08-.61.02-.8.15-.24.43-.33.86-.26Z" fill="#402819"/><defs><linearGradient id="a" x1="10.42" y1="9.71" x2="68.15" y2="76.02" gradientUnits="userSpaceOnUse"><stop stop-color="#1A1E21"/><stop offset="1" stop-color="#06060A"/></linearGradient></defs></svg>