<svg width="112" height="112" viewBox="0 0 56 56" xmlns="http://www.w3.org/2000/svg"><path fill="url(#a)" d="M0 0h56v56H0z"/><path d="M35.93 22.66c-.17-.1-.33-.2-.47-.31l-7.05-5.69c-.27-.21-.53-.22-.78-.02L20.1 22.7a.84.84 0 0 1-.1-.37v-4.5c0-.27.04-.46.12-.6a1.9 1.9 0 0 1 .48-.45 12513.1 12513.1 0 0 1 6.72-5.4c.22-.18.38-.3.49-.33a.6.6 0 0 1 .53.06l.43.34 6.95 5.6c.18.14.28.37.28.69v4.47c0 .15-.02.3-.07.46Z" fill="#FF27D8"/><path d="M35.93 22.66c0 .11-.07.21-.19.3l-7.22 5.82c-.37.29-.72.3-1.08 0l-7.2-5.86c-.14-.11-.18-.19-.14-.23l7.53-6.05c.25-.2.51-.2.78.02l7.05 5.69c.14.1.3.21.47.3Z" fill="#FE83ED"/><path d="M19.6 24.22c-.02 1.52-.02 3.05-.02 4.57 0 .47.08.76.24.9l6.81 5.7c.16.14.34.23.54.28a2 2 0 0 1-.28.36 5356 5356 0 0 0-5.68 4.78c-.4.35-.82.68-1.25 1.01a.9.9 0 0 1-.36.18.2.2 0 0 1-.1-.01 2 2 0 0 1-.55-.35 2309.8 2309.8 0 0 1-6.74-5.65c-.13-.11-.2-.28-.2-.5v-4.75c0-.23.12-.44.35-.64l6.8-5.69a.9.9 0 0 1 .43-.2Z" fill="#FF27D8"/><path d="M27.17 35.67a1.3 1.3 0 0 1-.54-.28l-6.81-5.7c-.16-.14-.24-.43-.24-.9l.01-4.57c.2.04.34.1.44.2l6.94 5.8c.15.13.22.34.22.64 0 1.6 0 3.2-.02 4.81ZM36.42 24.21l.02 4.81c0 .3-.08.51-.26.66l-6.81 5.7a1.3 1.3 0 0 1-.54.27l-.02-4.73c0-.21.03-.37.09-.49.05-.11.17-.24.33-.38l6.67-5.59c.14-.12.31-.2.52-.25Z" fill="#C500A7"/><path d="M28.83 35.65c.2-.04.38-.13.54-.27l6.81-5.7c.18-.15.27-.37.26-.66l-.02-4.8c.18.04.34.12.49.24l6.88 5.76c.13.12.2.31.2.58v4.57a.9.9 0 0 1-.32.72l-6.91 5.78c-.23.19-.5.13-.85-.15-2.22-1.85-4.44-3.7-6.66-5.57a1.8 1.8 0 0 1-.42-.5Z" fill="#FF27D8"/><defs><linearGradient id="a" x1="10.42" y1="9.71" x2="68.15" y2="76.02" gradientUnits="userSpaceOnUse"><stop stop-color="#1A1E21"/><stop offset="1" stop-color="#06060A"/></linearGradient></defs></svg>