<svg width="112" height="112" viewBox="0 0 56 56" xmlns="http://www.w3.org/2000/svg"><path fill="#AD9062" d="M0 0h56v56H0z"/><path d="M36.56 14.57c-.43.06-.76-.03-1-.28l-.44-.46-.78-.61a.27.27 0 0 0-.18-.06c-.28 0-.43-.1-.44-.33-.01-.07-.05-.1-.12-.1a.99.99 0 0 1-.54-.1.94.94 0 0 1-.17-.13 2.52 2.52 0 0 0-.59-.43.22.22 0 0 0-.2 0c-.47.27-.95.24-1.42-.08a.28.28 0 0 0-.22-.04c-.71.13-1.38.01-1.98-.36a.3.3 0 0 0-.21-.03c-.12.01-.39.16-.8.44a.94.94 0 0 1-.48.14c-.06 0-.12 0-.18-.02l-.29-.13a.23.23 0 0 0-.19 0c-.41.18-.76.32-1.04.42-.29.1-.48.34-.7.57a.23.23 0 0 1-.18.08l-.83-.02.72-.29a.2.2 0 0 0 .07-.05.19.19 0 0 0 .04-.07l.35-1.22c.04-.11.1-.13.2-.06l.63.49a.1.1 0 0 0 .09.01.1.1 0 0 0 .04-.02.1.1 0 0 0 .02-.04l.17-.59c0-.02.02-.04.04-.05a.1.1 0 0 1 .06 0c.66.1 1.12.25 1.7-.25l.38-.82c.05-.1.09-.1.13 0 .01.05.03.09.06.11.06.06.13.1.21.13.04 0 .07.03.1.07a.08.08 0 0 1 0 .1l-.03.02c-.11.05-.18.13-.2.23 0 .08.03.12.1.13a.9.9 0 0 1 .62.34.16.16 0 0 0 .19.03.86.86 0 0 0 .25-.24.05.05 0 0 1 .04-.02.06.06 0 0 1 .04.02c.15.15.35.26.6.33.06.02.1 0 .15-.04.13-.15.36-.31.7-.47.06-.03.1-.01.1.06 0 .36.17.64.5.83l.07.02a.1.1 0 0 0 .06-.03l.71-.72c.14-.14.21-.11.22.08 0 .3.08.6.23.87.03.07.08.08.15.05.45-.19.73-.48.84-.86.03-.08.06-.08.1 0l.08.36c.02.12.07.23.13.33.2.35.37.71.51 1.09.03.07.2.23.52.5.06.04.12.05.19.01.05-.02.1-.07.16-.14.05-.05.08-.05.1.01.03.04.03.07.03.08-.2.75.26.9.81 1.2Z" fill="#4E4334"/><path d="M27.71 10.9c-.58.5-1.04.36-1.7.24a.1.1 0 0 0-.06.01.09.09 0 0 0-.04.05l-.17.59a.1.1 0 0 1-.02.04.1.1 0 0 1-.1.03.1.1 0 0 1-.04-.02l-.62-.49c-.1-.07-.16-.05-.2.06l-.35 1.22-.04.07a.2.2 0 0 1-.07.05l-.72.3h-1.3a4.1 4.1 0 0 0-1.65.42c-.07.03-.1.08-.1.15 0 .09.07.15.19.2l.6.5c.01.01.02.02.01.04l-.01.06a.05.05 0 0 1-.03.03.05.05 0 0 1-.05-.01 3 3 0 0 0-1.13-.52c.08-.35.2-.57.36-.66.5-.28.94-.45 1.32-.5.67-.07 1.1-.13 1.31-.16.78-.12 1.21-.5 1.3-1.16.04-.27-.04-.5-.07-.75 0-.05.02-.07.08-.04l1.08.5a.16.16 0 0 0 .15-.02.15.15 0 0 0 .05-.06.14.14 0 0 0 0-.08l-.1-.67c-.03-.12.02-.16.14-.1.49.2.8.46.92.76.13.32.22.3.25-.06l.05-.56c0-.01.01-.02.02-.01l.02.02.11.43c.02.07.07.12.15.13.16.02.31.01.46-.03Z" fill="#6D6252"/><path d="M36.56 14.57c.6.1 1.02.27 1.28.5.34.3.58.48.73.53.08.02.1.07.08.14l-.03.1a.36.36 0 0 0 0 .22l.32 1 .41 1.67a.3.3 0 0 1-.02.2l-.04.11c-.23.12-.3.27-.23.44l.6 4.08c0 .07-.02.13-.06.18l-.09.1a.16.16 0 0 0-.02.18c.1.23.24.44.43.62.04.05.08.1.1.18.2.91.3 1.44.31 1.58.02.52.07 1.04.15 1.56.1.64.13 1.04.1 1.23a6.84 6.84 0 0 0-.17 1.78c.02.47-.01.86-.1 1.19a98.29 98.29 0 0 1-.74 2.87c-.12.42-.23 1.07-.35 1.95-.1.72-.25 1.41-.47 2.07-.05.15-.18.36-.4.63-.58.72-1.17 1.6-1.76 2.61a3.42 3.42 0 0 1-1.74 1.38c-1.35.15-2.6.58-3.75 1.3-.1.1-.26.16-.48.18l-.33-.06c.15-.23.2-.44.13-.64-.05-.19-.2-.32-.42-.4-.34-.11-.76-.2-1.27-.27-.53-.07-1.04.3-1.59.6-.22.1-.54.15-.96.13a.15.15 0 0 1-.14-.1l-.8-1.89c.35.3.58.65.7 1.04.07.23.15.24.24.01.1-.27.17-.6.2-1 0-.07.04-.1.11-.07l.77.25c.07.1.17.17.3.23.07.04.1.01.1-.07 0-.38.03-.74.12-1.1.04-.16.04-.36.02-.59-.02-.2-.03-.4-.02-.6l.14-.53a2.8 2.8 0 0 0 .16-1.93.78.78 0 0 1 .52 0 64 64 0 0 1 .52 2.29c.02.08-.04.21-.16.4a.39.39 0 0 0-.07.18c-.03.37.02.78.15 1.24.01.04.03.06.06.09.03.02.07.03.1.03.17 0 .33.03.48.1.09.04.1.02.05-.06l-.35-.52c-.07-.1-.06-.19.01-.28l.06-.07c.1-.12.2-.12.3.02l.5.74.03.02a.1.1 0 0 0 .07 0c.04-.02.06-.04.04-.09l-.62-1.64c0-.77.09-1.36.25-1.75l.45-1.11c.68-1.7.1-3.55-.37-5.22a.57.57 0 0 0-.16-.26.52.52 0 0 0-.27-.13 1.42 1.42 0 0 1-.97-.58c-.33-.5-.64-.78-1.24-.95-.65-.2-1.13-.4-1.45-.64-.58-.42-1.06-.44-1.91-.57a1.24 1.24 0 0 1-1.04-.85.29.29 0 0 1 0-.2c.15-.45.27-.86.34-1.25.03-.14.15-.4.37-.74.17-.28.28-.57.33-.88a6 6 0 0 0 .18-.4c.11-.28.32-.34.62-.18.34.06.6.25.76.55.15.27.28.43.39.49.19.1.41.15.67.13.29.12.48.17.57.16.17-.03.24-.13.22-.31l.45.24c.14.08.28.1.43.1.17-.01.32-.04.46-.07-.07.38.28.41 1.04.09.57.12.93-.54 1.2-.78a.2.2 0 0 1 .18-.05c.46.1.8.34 1.03.73.17.3.45.58.65.77.27.26.35.7.28.96-.2.7-.33 1.26-.4 1.68a.26.26 0 0 1-.1.17c-.24.18-.44.35-.63.52-.2.19-.27.4-.2.65l1.22 1.35.76 1.45v.03l-.04.05c-.04.04-.07.04-.1 0l-.84-1.27c-.2-.32-.45-.56-.75-.72-.13-.08-.18-.04-.14.1.2.66.47 1.27.82 1.85a4 4 0 0 0 1.22.71c.04 0 .07-.02.09-.04.04-.05.04-.1.01-.15l-.05-.09a.1.1 0 0 1 0-.1.11.11 0 0 1 .1-.05.3.3 0 0 0 .16-.02.12.12 0 0 0 .07-.07.11.11 0 0 0-.02-.1c-.18-.25-.4-.53-.68-.84a.28.28 0 0 1-.07-.15c-.01-.08.03-.14.1-.16l.15.1c.16.04.4.02.71-.08.1-.03.17 0 .23.06l.8.96c.07.08.1.07.09-.03-.03-.44.05-.88-.09-1.28-.12-.35-.24-.76-.36-1.22-.02-.1.01-.16.12-.18l.69-.1c.07-.02.1-.05.07-.12a.79.79 0 0 0-.11-.21c-.25-.25-.2-.32.16-.21.03 0 .11.06.25.15l.84.57c.08.04.13.09.14.14l.09.28a2.48 2.48 0 0 0-1.24.13c-.08.03-.1.08-.04.14l.25.3c.1.11.07.15-.07.1l-.1-.02c-.09-.03-.13 0-.1.1.02.12.07.28.14.48.18.5-.07 1.01-.26 1.46-.4.97-.76 1.47-1.56 2.1-.68.54-.87 1.17-1.18 1.95a.15.15 0 0 1-.05.06.16.16 0 0 1-.07.03l-.77.12a.15.15 0 0 0-.1.06c-.29.36-.39.73-.3 1.1a4.5 4.5 0 0 1-.47 3.45.1.1 0 0 1-.14-.02l-.39-.47a.2.2 0 0 0-.24-.04l-.08.04a.2.2 0 0 0-.07.07.2.2 0 0 0 .04.26l.95.73a.07.07 0 0 0 .06.01.07.07 0 0 0 .04-.03c.22-.37.54-.58 1-.63.56-.05 1.16-.12 1.78-.22.97-.15 1.41-.8 2.05-1.56.26-.3.46-.68.63-1.12.1-.28.31-.78.63-1.5.5-1.15.81-2.13 1.13-3.24.13-.47.38-.94.57-1.35.07-.13.1-.28.12-.43l.01-.44c0-.39.2-.9.18-1.36a.26.26 0 0 0-.07-.17c-.5-.56-1.2-.1-1.56.37-.04.05-.09.06-.14.02a.86.86 0 0 1-.24-.33 1.45 1.45 0 0 1-.1-.65c0-.08.05-.12.13-.12.22-.01.47.03.74.1.03.02.05.01.07 0l.04-.05c.02-.03.01-.05-.01-.07l-.49-.39c-.1-.1-.18-.23-.23-.36.1-.1.24-.11.41-.02l.28.15c.38.24.43.2.15-.12-.3-.33-.62-.74-1-1.23-.02-.04-.01-.07.03-.1l.05-.02h.03L39.5 30l.04.02a.08.08 0 0 0 .08-.04l.01-.05a1.13 1.13 0 0 0-.43-.77 7.28 7.28 0 0 1-1.53-1.7 5.4 5.4 0 0 0-.84-1.26.22.22 0 0 1-.1-.21.75.75 0 0 0-.06-.4.23.23 0 0 0-.14-.12 5.26 5.26 0 0 0-1.66-.26c-.16 0-.26.07-.38.16l-.3.03a.24.24 0 0 1-.08-.04.12.12 0 0 1-.02-.04.1.1 0 0 1 0-.04v-.04l.03-.02.91-.34a.1.1 0 0 0 .05-.03.1.1 0 0 0-.02-.13c-.6-.47-1.2.2-1.55.76l-.85.31c.06-.2.22-.38.5-.54.07-.04.08-.09.02-.14a.23.23 0 0 0-.13-.06l.62-.82c.04-.06.1-.09.17-.1 1.48-.12 2.45-.03 3.28-.55.56-.34.72-.83.51-1.44-.4-1.12-1.55-1.52-2.72-2-.2-.08-.2-.16.01-.23.18-.06.39-.14.62-.24.88-.37.72-1.54.35-2.22-.54-1-1.14-1.9-1.82-2.72-1.11-1.35-2.92-1.72-4.68-1.92a4.97 4.97 0 0 0-1.85.16c-1.08.3-1.73.47-1.94.55-.63.23-1.07.45-1.33.65-.7.56-1.5 1.12-2.4 1.66-.79.47-1.3.84-1.52 1.11a3.86 3.86 0 0 0-.85 1.7c-.35 1.85.5 3 2.56 3.47-.3.1-.65.1-1.05.01-.2-.04-.46-.03-.8.04-.16.04-.4.15-.67.33-.6.4-1.22.7-1.87.89-.44.13-.83.1-1.16-.09-.26-.14-.24-.25.05-.33.13-.03.21-.08.25-.13.06-.07.04-.11-.04-.14l-.13-.03a.1.1 0 0 1-.05-.03.09.09 0 0 1 0-.1.1.1 0 0 1 .03-.04l.52-.29c.06-.03.07-.08.04-.14-.12-.22-.18-.37-.03-.6.1-.15.26-.3.46-.43.07-.06.06-.1-.03-.12-.25-.06-.43-.02-.54.13l-1.02.23h-.05l-.07-.06c-.03-.03-.03-.05.01-.07l1.28-.54c.16-.02.32-.07.49-.16.39-.22.59-.26 1.01-.32.09-.01.1-.05.03-.1-.51-.4-.85-.61-1.03-.62-.45-.03-.68-.16-.7-.38l.94-.22c.13.01.23-.01.3-.07.05-.03.06-.07.05-.11a10.77 10.77 0 0 0-.02-.1.08.08 0 0 1 .04-.05.1.1 0 0 1 .04-.01c.15-.01.26-.04.33-.08a.29.29 0 0 0 .1-.1.27.27 0 0 0-.01-.3.28.28 0 0 0-.12-.09c-.1-.04-.23-.01-.38.1l-.26-.12c-.07-.2.04-.27.34-.24.04 0 .06-.02.05-.06l-.01-.08a.07.07 0 0 0-.03-.04.08.08 0 0 0-.04-.02.6.6 0 0 1-.48-.27c1.15.12 1.53-.02 1.14-.41l.51-.94c.04-.07.1-.11.18-.12l.54-.09c.02 0 .04 0 .05-.02a.11.11 0 0 0 .04-.05.1.1 0 0 0-.02-.11l-.54-.6c.17-.23.3-.52.38-.89a3 3 0 0 1 1.15.53h.03l.02-.01v-.02l.02-.06v-.04l-.61-.5c.13-.14.3-.17.47-.07.33.18.6.34.8.5.24.15.3.1.21-.15-.2-.56-.17-.9.08-1.04l1.3-.02.83.02c.07 0 .13-.02.18-.08.21-.23.41-.47.7-.57.28-.1.63-.24 1.04-.42a.23.23 0 0 1 .2 0l.28.13c.05.02.12.03.18.02.2 0 .37-.05.48-.14.41-.28.68-.43.8-.44a.3.3 0 0 1 .2.03c.61.37 1.28.5 2 .36a.3.3 0 0 1 .2.04c.48.32.95.35 1.43.09a.22.22 0 0 1 .2-.01c.15.07.35.21.6.43.05.05.1.09.16.12.15.08.33.12.54.1.07 0 .1.04.12.11.01.23.16.34.44.33.07 0 .13.02.18.06l.78.6.44.47c.24.25.57.34 1 .28Z" fill="#352D20"/><path d="m33.05 25.04-.37.16c-.03.01-.05 0-.06-.02a.22.22 0 0 1-.01-.06c0-.05 0-.09.05-.12.26-.23.44-.5.53-.79.03-.09 0-.16-.07-.21l-.06-.05a.1.1 0 0 0-.04-.02.1.1 0 0 0-.09.03.1.1 0 0 0-.02.04c-.1.4-.35.73-.72.98a.16.16 0 0 1-.18 0c-.09-.06-.15-.18-.2-.35a.1.1 0 0 0-.02-.05.1.1 0 0 0-.14-.01c-.18.12-.42.16-.71.1l.6-.34c.07-.04.07-.07.01-.12-.08-.05-.21-.05-.4 0-.26-.16-.26-.3-.01-.41.1-.05.15-.1.18-.14.04-.08.04-.17-.02-.26-.05-.06-.1-.07-.17-.03a.42.42 0 0 0-.19.34c0 .08-.05.12-.13.12h-.21c-.13-.18-.13-.46-.03-.83.07-.22.2-.36.4-.41.34-.1.82-.16 1.43-.2a2.86 2.86 0 0 0 2.23-1.26c.05-.07.03-.1-.05-.1a6.62 6.62 0 0 1-1.6-.3c-.3-.1-.58-.1-.87-.03-.28.07-.55.19-.8.35-.39.18-.65.54-.8 1.08-.15.33-.33.83-.68.98-.38.16-1.24 0-1.59-.05-.25-.04-.6 0-1.02.13l-.5-.04c-.08 0-.1-.04-.1-.12.03-.1.08-.16.16-.2a.1.1 0 0 0 .04-.04.1.1 0 0 0-.04-.14c-.64-.36-.93-.36-.86 0-.11.21-.14.37-.07.49l.02.05c.01.02 0 .04-.02.05-.32.2-.65.3-.99.31l-.48-.2a.16.16 0 0 1-.06-.04.15.15 0 0 1-.04-.14c0-.02.02-.05.04-.06a.57.57 0 0 0 .14-.3c.01-.08-.02-.12-.1-.13l-1.39-.25-.9-.33c-2.07-.46-2.92-1.62-2.57-3.47.1-.56.4-1.13.85-1.7.23-.27.73-.64 1.51-1.11.9-.54 1.71-1.1 2.41-1.66.26-.2.7-.42 1.33-.65.21-.08.86-.26 1.94-.55a4.97 4.97 0 0 1 1.85-.16c1.76.2 3.57.57 4.68 1.92.68.82 1.28 1.73 1.82 2.72.37.68.53 1.85-.35 2.22-.23.1-.44.18-.62.24-.2.07-.2.15 0 .23 1.16.48 2.32.88 2.71 2 .21.61.05 1.1-.5 1.44-.84.52-1.81.43-3.29.55a.23.23 0 0 0-.17.1l-.62.82Z" fill="#0F0A05"/><path d="M22.28 13.06c-.25.13-.28.48-.08 1.04.1.26.03.3-.2.14-.2-.15-.48-.31-.8-.49-.19-.1-.35-.07-.48.07-.12-.05-.18-.11-.19-.2 0-.07.03-.12.1-.15a4.1 4.1 0 0 1 1.65-.41ZM19.73 14.8l.54.61.02.05a.1.1 0 0 1-.04.1.12.12 0 0 1-.05.03l-.54.09a.23.23 0 0 0-.18.12l-.51.94a2.34 2.34 0 0 1-.35-1.1c0-.08.04-.1.12-.1.05.02.09.04.12.08.11.13.18.12.2-.04l.03-.4c0-.1.06-.13.15-.13l.2.02c.07 0 .14-.02.19-.07a.42.42 0 0 0 .1-.2Z" fill="#4E4334"/><path d="m31.46 45.53-.84-.38c.22-.02.38-.08.48-.18 1.36-.26 2.6-.7 3.75-1.3.82-.34 1.4-.8 1.74-1.38.59-1.02 1.18-1.9 1.77-2.61.21-.27.34-.48.4-.63.2-.66.36-1.35.46-2.07.12-.88.23-1.52.35-1.95.19-.65.44-1.6.75-2.87.08-.33.11-.72.1-1.19-.03-.6.02-1.2.15-1.78.04-.19.01-.6-.09-1.23-.07-.52-.13-1.04-.15-1.56 0-.14-.1-.67-.32-1.58a.36.36 0 0 0-.1-.18 2.07 2.07 0 0 1-.42-.62.16.16 0 0 1 .03-.18l.08-.1a.22.22 0 0 0 .05-.18l-.59-4.08.22.08c.07.02.1 0 .12-.07a.5.5 0 0 0-.1-.45l.04-.12a.3.3 0 0 0 .01-.19l-.4-1.66c.53.83.9 1.65 1.1 2.45.07.3-.02.56-.29.77a.22.22 0 0 0-.08.18c-.04.75.06 1.3.3 1.62l.53.74c.04.05.04.1.01.16a.32.32 0 0 1-.28.17.12.12 0 0 0-.1.05.11.11 0 0 0 0 .1c.24.73.46 1.3.64 1.71.15.35.2.68.17 1-.03.21-.01.51.04.9.02.16.01.46-.02.89a27 27 0 0 0-.1 3.57c.03.52-.02.91-.14 1.19-.34.78-.6 1.56-.75 2.35a121 121 0 0 0-.77 4.1c-.06.37-.2.71-.41 1.03l-1.17 1.69c-.45.66-.9 1.17-1.35 1.54-1.27 1.06-3.08 2.15-4.82 2.25Z" fill="#5F5342"/><path d="M26.76 21.12a7.19 7.19 0 0 0-.7-.55 2.62 2.62 0 0 0-3.07.02c-.06-.43.18-.74.71-.96.3-.12.54-.19.74-.2.28-.03.3-.11.06-.25-.28-.17-.46-.3-.55-.4-.21-.28-.17-.33.14-.15.72.4 1.43.9 2.13 1.48.3.26.49.6.54 1.01Z" fill="#352D20"/><path d="m26.76 21.12.18.34-.61.67c-.77-.36-1.55-.7-2.35-1-.3-.11-.63-.3-1-.54 1-.66 2.03-.67 3.07-.02.16.1.4.29.71.55Z" fill="#4E4334"/><path d="m30.6 23.84-.98.7a.3.3 0 0 1-.23.06.3.3 0 0 1-.2-.13l-.66-1.1a.15.15 0 0 0-.2-.05l-.4.22a.29.29 0 0 1-.22.03.76.76 0 0 1-.49-.38c.43-.13.77-.17 1.02-.13.35.06 1.21.21 1.6.05.34-.15.52-.65.67-.98.01.1.06.2.14.26.05.05.11.06.18.02.22-.14.38-.2.5-.2 1.01.04 1.86-.06 2.46-.8a.09.09 0 0 0-.03-.14.1.1 0 0 0-.05 0c-.3.03-.62 0-.94-.1a4.28 4.28 0 0 0-1.47-.12c.26-.16.53-.28.81-.35.3-.07.58-.06.86.02.52.17 1.06.27 1.6.3.1 0 .11.04.06.11a2.86 2.86 0 0 1-2.23 1.25c-.6.05-1.09.12-1.43.2-.2.06-.33.2-.4.42-.1.37-.1.65.03.84Z" fill="#352D20"/><path d="m22.06 22.1.91.33.46.9c.05.11.02.16-.1.14-.2-.03-.4 0-.62.12l-1.1-.66a.18.18 0 0 0-.19 0c-.72.4-1.53.22-2.12.3a.33.33 0 0 0-.21.1c-.28.32-.47.7-.81.94-.88.62-1.84.81-2.88.6.19-.22.27-.42.25-.63-.01-.07-.05-.1-.13-.07-.15.05-.25.08-.32.08-.1 0-.1-.03-.04-.1l.37-.33a.18.18 0 0 0 .06-.08.17.17 0 0 0 0-.1.18.18 0 0 0-.05-.08.2.2 0 0 0-.09-.05l-.08-.02a.06.06 0 0 1-.03-.02.05.05 0 0 1 0-.07l.03-.02c.68-.15.32-.68.74-.93.2-.12.38-.2.57-.22.06-.01.08-.05.06-.1-.02-.03-.04-.05-.08-.06a1.57 1.57 0 0 0-.58-.07c-.22 0-.24-.06-.07-.19l1.03-.78c.11-.15.3-.2.54-.13.1.03.1.06.03.12-.2.13-.35.28-.46.43-.15.23-.1.38.03.6.04.06.02.11-.04.14l-.52.3a.1.1 0 0 0-.04.03.09.09 0 0 0 .06.13l.13.03c.08.03.1.07.04.14-.04.05-.12.1-.25.13-.3.08-.3.19-.05.33.33.2.72.22 1.16.09.65-.2 1.28-.5 1.87-.89.28-.18.5-.3.68-.33.33-.07.6-.08.79-.04.4.1.75.1 1.05-.01Z" fill="#5F5342"/><path d="M31.3 21.05c.5-.02.98-.03 1.47.12.32.1.63.13.94.1a.1.1 0 0 1 .1.04.09.09 0 0 1-.02.1c-.6.74-1.45.84-2.47.8-.1 0-.27.06-.5.2-.06.04-.12.03-.17-.02a.43.43 0 0 1-.14-.26c.15-.54.41-.9.8-1.08Z" fill="#4E4334"/><path d="m26.33 22.13.6-.67.47 1.04v.05c0 .01 0 .03-.02.04a.08.08 0 0 1-.1.01l-.95-.47Z" fill="#352D20"/><path d="M27.22 23.19c.11.2.28.32.5.38.07.02.14.01.21-.03l.4-.22a.15.15 0 0 1 .2.05l.66 1.1.08.08a.3.3 0 0 0 .24.05.3.3 0 0 0 .1-.05l.99-.71h.21c.08-.01.13-.05.13-.13a.42.42 0 0 1 .19-.34c.07-.04.12-.03.17.03.06.1.06.18.02.26-.03.04-.09.1-.18.14-.25.12-.25.25 0 .4l-.62.34a1.15 1.15 0 0 0-.37-.08c-.18 0-.23.08-.16.24l.1.22c.02.05 0 .1-.07.13l-.55.3c-.07-.5-.32-.8-.73-.88-.4-.09-.98-.07-1.36.25a.42.42 0 0 0-.14.38c.02.07.05.14.09.2.05.05.1.1.17.12l.42.18.02.02v.05c0 .02-.02.03-.03.03-.27 0-.4.07-.4.22l-.57-.2c-.07-.01-.1-.06-.09-.13a.83.83 0 0 1 .15-.33c.04-.06.03-.11-.04-.14l-.58-.27c-.06-.04-.07-.08-.03-.13l.62-.73a.17.17 0 0 0 .03-.15.17.17 0 0 0-.04-.07.18.18 0 0 0-.06-.04l-.82-.33c-.32-.13-.38-.06-.16.2l.16.17c.03.04.02.07-.02.1l-.41.22c-.05.03-.06.06-.04.11l1.11 1.87a1.2 1.2 0 0 1-.67-.13c-.11-.06-.24-.22-.39-.5-.17-.3-.42-.48-.76-.54v-.73c.09-.02.15-.05.18-.08.02-.03.01-.08-.03-.15a1.4 1.4 0 0 1-.19-.39c.34-.01.67-.12 1-.31.02-.01.02-.03.01-.05l-.02-.05c.12.04.19.02.2-.07.05-.17 0-.31-.13-.42-.07-.36.22-.36.86 0a.1.1 0 0 1 .04.04.1.1 0 0 1-.04.14.29.29 0 0 0-.15.2c-.02.08.01.12.1.12l.5.04Z" fill="#4E4334"/><path d="M24.86 23.55c.04.13.1.26.19.39.04.07.05.12.03.15-.03.03-.1.06-.19.08-.46-.39-1-.5-1.63-.33-.2-.03-.38-.11-.55-.25a.97.97 0 0 1 .61-.12c.13.02.16-.03.1-.14l-.45-.9 1.39.25c.08 0 .11.05.1.13a.57.57 0 0 1-.14.3.15.15 0 0 0 0 .2c.01.02.03.03.06.04l.48.2Z" fill="#352D20"/><path d="M25.07 22.83c.14.14.33.19.42.1.1-.08.06-.27-.08-.4-.14-.15-.33-.2-.43-.1-.09.08-.05.26.09.4ZM31.6 23.22c-.14.14-.33.18-.42.1-.1-.09-.06-.27.08-.41.14-.14.33-.19.42-.1.1.08.06.27-.08.4Z" fill="#89795B"/><path d="M22.71 23.59c.17.14.36.22.55.25l.98.6.04.04a.14.14 0 0 1-.01.18l-.86.86a2.5 2.5 0 0 1-.98.66c-.56.16-1.14.12-1.77-.12.85-.08 1.54-.4 2.08-.97.05-.05.04-.1 0-.15a4.3 4.3 0 0 0-1.9-1.02c-.6-.16-.95-.06-1.52.17-.31.12-.38.34-.2.66a.09.09 0 0 1-.05.12.1.1 0 0 1-.05 0c-.5-.05-.98.07-1.43.36-.13.09-.12.29.02.6a5.07 5.07 0 0 0-1.88-.47c-.04 0-.1 0-.13.03a.2.2 0 0 0-.08.12l-.3 1.09c-.11.03-.17.07-.19.14-.02.07 0 .13.09.16l.11.02c.1 0 .13.04.09.13l-.3.57c-.16-.23-.4-.4-.68-.5-.07-.02-.08-.06-.04-.11.21-.27.41-.53.6-.8.3-.38.46-.83.5-1.35 1.04.22 2 .03 2.88-.59.34-.24.53-.62.81-.94.05-.06.12-.1.2-.1.6-.08 1.4.1 2.13-.3a.19.19 0 0 1 .18 0l1.11.66Z" fill="#6D6252"/><path d="M27.5 25.92c.03.18-.04.28-.2.3-.1.02-.3-.03-.58-.15l-1.1-1.87c-.03-.05-.02-.08.03-.11l.4-.23c.05-.02.06-.05.03-.09l-.16-.17c-.22-.26-.16-.33.16-.2l.82.33c.02 0 .05.02.06.04a.17.17 0 0 1 .04.15l-.03.07-.62.73c-.04.05-.03.1.03.13l.58.27c.07.03.08.08.04.14a.83.83 0 0 0-.15.33c-.01.07.02.12.09.14l.57.19ZM24.9 24.17v.73c-.3-.16-.51-.1-.62.18a6 6 0 0 1-.18.4 4.09 4.09 0 0 1-1.88 1.46c-.8.04-1.54-.05-2.21-.28-.28-.1-.35-.01-.23.24l.33.7c.04.08.02.14-.06.17l-1.42.65a.06.06 0 0 1-.07 0l-.05-.05c-.02-.02-.02-.03 0-.03.33-.12.45-.3.37-.55.14-.14.23-.27.27-.38.03-.08.01-.14-.05-.18l-.67-.52c-.06-.05-.05-.09.03-.12l1.39-.5.81-.03c.63.24 1.21.28 1.77.12.3-.1.63-.31.98-.66a60.79 60.79 0 0 0 .89-.92.14.14 0 0 0-.02-.12.15.15 0 0 0-.04-.04l-.98-.6a1.7 1.7 0 0 1 1.63.33Z" fill="#5F5342"/><path d="m20.66 26.06-.81.02-2.33.12c-.17-.1-.14-.21.09-.37-.14-.31-.15-.51-.02-.6.45-.29.93-.4 1.43-.36a.09.09 0 0 0 .09-.03.09.09 0 0 0 0-.1c-.17-.31-.1-.53.2-.65.58-.23.94-.33 1.53-.17a4.3 4.3 0 0 1 1.9 1.02c.04.05.05.1 0 .15-.54.57-1.23.9-2.08.97Z" fill="#89795B"/><path d="M33.05 25.04c.06.01.1.03.13.06.06.05.05.1-.02.14-.28.16-.44.34-.5.54-.03.17 0 .28.11.35.48.88.7 1.46.7 1.74l-.1 1.46c0 .1.03.3.1.62a.2.2 0 0 0 .11.15l1.08.5c.12.05.16.02.14-.1l-.06-.38a.17.17 0 0 1 .05-.16.19.19 0 0 1 .17-.04l1.97.43.1.02 1.23.14.49.38c.02.03.03.05 0 .08a.13.13 0 0 1-.03.04c-.02.02-.04.03-.07.02a2.18 2.18 0 0 0-.74-.1c-.08 0-.12.03-.13.1-.02.2 0 .41.1.66a.96.96 0 0 0-.34-.15l-.09-.28c-.01-.05-.06-.1-.14-.14a480.8 480.8 0 0 0-1.09-.72c-.36-.1-.41-.04-.16.2.02.04.06.1.1.22.03.07 0 .1-.06.12l-.69.1c-.1.02-.14.08-.12.18.12.46.24.87.36 1.22.14.4.06.84.1 1.28 0 .1-.03.11-.1.03l-.8-.96c-.06-.07-.13-.09-.22-.06-.32.1-.56.12-.72.08l-.17-.94c-.01-.08.02-.12.1-.1l.6.04c.08 0 .11-.02.1-.1a.89.89 0 0 0-.13-.3c-.55-.71-1.18-.98-1.88-.8l-.62.32c-.08-.25-.01-.46.2-.65.18-.17.38-.34.62-.52.05-.05.08-.1.1-.17.07-.42.2-.98.4-1.68a1.1 1.1 0 0 0-.28-.96c-.2-.2-.48-.47-.65-.77a1.46 1.46 0 0 0-1.03-.73.2.2 0 0 0-.19.05c-.26.24-.62.9-1.19.78.11-.15.35-.38.73-.71.22-.2.32-.49.32-.9.3.06.53.02.71-.1a.1.1 0 0 1 .1-.01.1.1 0 0 1 .04.02.1.1 0 0 1 .02.05c.05.17.11.29.2.35.03.02.06.03.1.03l.09-.03c.36-.25.6-.58.71-.98a.1.1 0 0 1 .15-.05l.06.05c.07.05.1.12.07.21-.09.3-.27.56-.53.79a.14.14 0 0 0-.05.12l.01.06c.01.02.03.03.06.02l.37-.16Z" fill="#4E4334"/><path d="M30.94 24.67c0 .41-.1.7-.32.9-.38.33-.62.56-.73.7-.76.33-1.1.3-1.04-.08.12-.09.16-.2.14-.34a.16.16 0 0 1 .06-.16l.42-.33-.13.46c-.02.06 0 .12.07.15.05.03.11.02.18-.03a10 10 0 0 0 .86-.8c.2-.2.2-.38.07-.6l.62-.33c.2-.05.33-.05.41 0 .06.05.06.08 0 .12l-.61.34Z" fill="#6D6252"/><path d="m29.47 25.36-.42.33a.16.16 0 0 0-.06.16c.02.14-.02.25-.14.34-.14.03-.3.06-.46.07a.79.79 0 0 1-.43-.1l-.45-.24c0-.15.13-.22.4-.22.01 0 .03-.01.03-.03v-.05l-.02-.02-.42-.18a.44.44 0 0 1-.17-.12.42.42 0 0 1-.07-.4.42.42 0 0 1 .12-.18c.38-.32.95-.34 1.36-.25.41.09.66.38.73.89Z" fill="#0F0A05"/><path d="M30.52 24.54c.12.22.13.4-.07.6a10 10 0 0 1-.86.8c-.07.05-.13.06-.18.03-.06-.03-.09-.09-.07-.15l.13-.46.55-.3c.06-.04.09-.09.06-.14L30 24.7c-.07-.16-.02-.24.16-.24.1 0 .23.03.37.08Z" fill="#89795B"/><path d="M34.2 25.39c-.23.06-.46.1-.69.08.35-.56.94-1.23 1.55-.76a.1.1 0 0 1 .03.04.09.09 0 0 1-.01.09.1.1 0 0 1-.05.03l-.9.34a.06.06 0 0 0-.03.02l-.02.04a.1.1 0 0 0 .01.04l.02.04.08.04Z" fill="#4E4334"/><path d="M28.3 25.07c.31.02.57-.02.58-.1 0-.08-.25-.16-.56-.18-.31-.03-.57.02-.58.1 0 .07.25.15.56.18Z" fill="#352D20"/><path d="m38.03 30.15-.9-1.24a.5.5 0 0 1-.08-.43c.17-.56.13-1.12-.1-1.68a.33.33 0 0 0-.14-.15 5.33 5.33 0 0 0-1.72-.65c-.26 0-.46.07-.63.2l-.3-.2c.25-.17.4-.32.46-.47.04-.1 0-.15-.13-.17.12-.09.22-.16.38-.16.57 0 1.12.08 1.66.26.07.02.12.06.14.13.06.12.07.25.06.39-.01.09.02.16.1.2.14.11.42.53.84 1.27.26.47.77 1.03 1.53 1.7.26.23.4.45.43.77v.05l-.04.03a.09.09 0 0 1-.1 0l-1.51-1.19h-.03l-.05.03c-.04.02-.05.05-.02.09.37.49.7.9 1 1.23.27.32.22.36-.16.12l-.28-.15c-.17-.1-.31-.08-.41.02Z" fill="#4E4334"/><path d="M17.61 25.83c-.24.16-.26.28-.09.37l-1.47-.27c-.07-.01-.12 0-.16.07a.39.39 0 0 0-.04.25l-.33.24-.3.1.3-1.08a.2.2 0 0 1 .08-.12.21.21 0 0 1 .13-.03c.64.03 1.27.19 1.88.47Z" fill="#5F5342"/><path d="M34.5 25.36c.12.02.16.08.12.17-.06.15-.2.3-.45.46-.34.4-.8.44-1.4.14-.1-.07-.14-.18-.1-.35l.84-.31c.23.01.46-.02.68-.08l.3-.03Z" fill="#6D6252"/><path d="M24.1 25.48c-.05.3-.16.6-.33.88-.22.35-.34.6-.37.75-.07.38-.19.8-.35 1.24a.29.29 0 0 0 0 .2c.19.49.53.77 1.05.85.85.13 1.33.15 1.91.57.32.23.8.45 1.45.64.6.17.91.45 1.24.95.24.36.63.52.97.58.1.02.19.06.27.13.07.07.13.16.16.26.48 1.67 1.05 3.52.37 5.22l-.45 1.1c-.16.4-.25.99-.25 1.76-.24-.72-.4-1.47-.5-2.23a3 3 0 0 0-.34-1.11c-.16-.3-.25-.28-.27.05l-.06.84a.78.78 0 0 0-.52 0c-.17-.36-.35-.72-.55-1.08a1.47 1.47 0 0 1-.16-.8c.04-.9.3-1.57.8-2.01-.04.4-.05.72-.03.97.02.2.05.2.1 0 .22-.8.78-1.4.53-2.35-.14-1.74-1.64-2.05-3.15-2.22a.26.26 0 0 1-.18-.1l-.5-.6a.33.33 0 0 0-.19-.12c-1.36-.34-2.23.45-2.8 1.58-.22.38-.42.78-.6 1.2a1.4 1.4 0 0 1-.55.55 5.68 5.68 0 0 0-1.38 1.97.08.08 0 0 1-.06.04l-.07.01h-.03a.03.03 0 0 1 0-.03L19.7 34a.24.24 0 0 0-.02-.22l-.43-.7a.25.25 0 0 0-.13-.1.26.26 0 0 0-.18 0l-.88.34c-.2.08-.23.04-.1-.12l.57-.67c.12-.14.1-.18-.08-.1l-.52.24c-.06.03-.1.01-.13-.06-.01-.03 0-.07.03-.12.21-.28.51-.53.9-.74.46-.26.97-.43 1.5-.5-.41.4-.9.7-1.46.88-.06.02-.09.04-.1.08-.02.06 0 .08.07.06 1.2-.37 2.27-.56 2.94-1.8.15-.12.26-.25.33-.4.03-.08.01-.13-.06-.16a1.35 1.35 0 0 0-.54-.12l-.03-.01a.07.07 0 0 1-.03-.03.07.07 0 0 1 0-.07l.9-1.03.18-.16.58-1.2c0-.2-.27-.32-.8-.35a4.09 4.09 0 0 0 1.89-1.46Z" fill="#4E4334"/><path d="m17.52 26.2 2.33-.12-1.4.51c-.07.03-.08.07-.02.12l.67.52c.06.04.08.1.05.18-.04.11-.13.24-.27.38l-2.01.86a.18.18 0 0 0-.12.16l-.04.42c-.01.1.03.14.13.14.46-.01.9-.12 1.3-.33a.36.36 0 0 1 .2-.03l1.96.16a.1.1 0 0 1 .05.02.1.1 0 0 1 .03.05.08.08 0 0 1-.02.09l-.56.45c-.53.43-1.11.76-1.76 1a.36.36 0 0 0-.22.19c-.03.07 0 .1.07.09.7-.13 1.25-.47 1.88-.64.35-.1.4-.02.14.23-.68.66-1.7.84-2.28 1.36-.61.54-1.08 1.01-1.67 1.26-.07.03-.09 0-.06-.05l.2-.4a.14.14 0 0 0 0-.12l-.8-1.8-.59-.9a.16.16 0 0 1-.01-.17l.62-1.22c.03-.07.02-.12-.03-.17l-.24-.23.18-.2c.08-.2.02-.24-.17-.12a.58.58 0 0 1-.2.07c-.12.02-.14-.01-.06-.1l.22-.24.3-.57c.04-.09.01-.13-.09-.13-.04 0-.08 0-.11-.02-.08-.03-.1-.09-.09-.16.02-.07.08-.11.18-.14.6-.21.49-.28.68-.6.04-.06.09-.08.16-.07l1.47.27Z" fill="#4E4334"/><path d="m34.17 26 .3.2c-.5.57-.21 1.06 0 1.6.01.05.05.1.1.13.06.03.12.04.18.03l1.93-.3.04-.02a.07.07 0 0 0 0-.1c-.45-.6-1-1.1-1.63-1.54.6.1 1.17.32 1.72.65.06.03.1.08.13.15.24.56.28 1.12.1 1.68a.48.48 0 0 0 .08.43l.9 1.24c.06.13.14.25.24.36l-1.22-.14c.19 0 .32 0 .38.02.3.06.36-.01.17-.21l-.88-.9a2.84 2.84 0 0 0-2-.86.38.38 0 0 0-.29.11.35.35 0 0 0-.1.28c.05.41.29.7.73.88.62.24 1.24.46 1.88.66l-1.97-.43a.2.2 0 0 0-.17.04.17.17 0 0 0-.06.16l.07.38c.02.12-.02.15-.14.1l-1.08-.5a.2.2 0 0 1-.12-.15 3.1 3.1 0 0 1-.09-.62l.1-1.46c0-.28-.22-.86-.7-1.74.6.3 1.06.26 1.4-.14Z" fill="#5F5342"/><path d="M35.09 26a7.16 7.16 0 0 1 1.65 1.57.07.07 0 0 1-.02.07.08.08 0 0 1-.04.01l-1.93.3c-.06.02-.12 0-.18-.02a.25.25 0 0 1-.1-.13c-.21-.54-.5-1.03 0-1.6.16-.13.36-.2.62-.2ZM22.22 26.94c.52.03.79.15.79.36l-1.93.07c-.02 0-.03 0-.04.02a.19.19 0 0 0-.03.11c0 .05.03.08.08.1l.88.23c.08.02.14.07.18.14l.28.52-.17.16c-.86.35-1.62.87-2.27 1.53-.05.06-.09.05-.12-.02a1.2 1.2 0 0 1-.07-.38l.56-.45a.08.08 0 0 0 .03-.1.1.1 0 0 0-.04-.04.1.1 0 0 0-.05-.02l-1.97-.16c-.06-.01-.13 0-.19.03-.4.2-.84.32-1.3.33-.1 0-.14-.04-.13-.14l.04-.42c0-.08.04-.13.12-.16l2.01-.86c.08.25-.04.43-.37.55-.02 0-.02.01 0 .03l.05.04c.02.02.05.02.07 0l1.42-.64c.08-.03.1-.09.06-.17l-.33-.7c-.12-.25-.05-.33.23-.24.67.23 1.4.32 2.2.28Z" fill="#6D6252"/><path d="M27.43 27.45c-.17.07-.29.2-.36.38 0 .02-.02.04-.04.05a.14.14 0 0 1-.06.03l-.56.09a.09.09 0 0 1-.09-.04v-.03l-.02-.06c0-.05.01-.08.06-.08.3-.05.5-.13.62-.25.11-.11.09-.17-.07-.17-.34 0-.66.1-.95.3a.22.22 0 0 1-.21.02l-.91-.33a.14.14 0 0 1-.09-.18l.04-.07a12.45 12.45 0 0 1 2.24-.05l2.23.25c.51.06 1.18.01 2.02-.14.26-.04.53.02.8.2.06.04.08.1.08.15l-.02.94c-.02.24-.15.5-.4.8-.11.15-.34.41-.68.8a.5.5 0 0 1-.43.16 5.08 5.08 0 0 0-1.45.03c-.27.05-.56.03-.86-.08-.32-.1-.72-.19-1.19-.24a.39.39 0 0 1-.19-.08c-.5-.36-.85-.6-1.02-.7-.73-.44-.67-.73.18-.87.29-.04.61-.08.97-.1.08 0 .14-.03.17-.08l.29-.56c.06-.12.02-.15-.1-.1Z" fill="#0F0A05"/><path d="m23 27.3-.57 1.19-.28-.52a.28.28 0 0 0-.18-.14l-.88-.23c-.05-.02-.08-.05-.08-.1 0-.04 0-.07.03-.1a.05.05 0 0 1 .04-.03l1.93-.07Z" fill="#5F5342"/><path d="M28.17 27.52c.06.06.07.12.04.17l-.07.28c-.07.24-.14.24-.21 0l-.1-.3c-.01-.07.01-.12.08-.15.06-.03.15-.03.26 0Z" fill="#A59B86"/><path d="M28.21 27.7c.03-.06.02-.12-.04-.18.33.05.64.17.93.35.03.02.04.05.03.08-.01.05-.05.07-.1.05l-.82-.3Z" fill="#5F5342"/><path d="m15.05 28.21.24.23c.05.05.06.1.03.17l-.62 1.22a.17.17 0 0 0 .01.16l.6.92c-.03 1.02-.02 1.82-.64 2.6a.18.18 0 0 1-.16.08l-.73-.07c-.06 0-.1.03-.12.09a.91.91 0 0 0 .02.54.3.3 0 0 1-.11-.1c-.18-.42-.2-.82-.05-1.2a.27.27 0 0 1 .13-.14c.4-.2.65-.35.76-.44.6-.45.66-1.01.18-1.7a.14.14 0 0 0-.08-.05l-.42-.11c-.05-.01-.06-.04-.04-.08l.1-.2c.03-.06.02-.1-.04-.14a.29.29 0 0 0-.1-.02l-.09-.02a.15.15 0 0 1-.05-.06.14.14 0 0 1 .02-.15l1.16-1.53Z" fill="#6D6252"/><path d="m37.04 30.37-.11-.02c-.64-.2-1.26-.42-1.88-.66-.44-.17-.68-.47-.72-.88a.34.34 0 0 1 .1-.28.37.37 0 0 1 .27-.11c.78.02 1.45.3 2 .86l.89.9c.2.2.14.27-.17.2a2.3 2.3 0 0 0-.38 0Z" fill="#89795B"/><path d="m22.26 28.65-.9 1.03a.07.07 0 0 0-.01.07l.03.03h.03c.2.01.37.05.54.13.07.03.1.08.06.15-.07.16-.18.29-.33.4a.79.79 0 0 0-.13-.26c-.04-.05-.1-.06-.15-.01l-1.17 1.05c-.53.08-1.04.25-1.5.5-.39.22-.69.47-.9.75-.03.05-.04.09-.03.12.02.07.07.1.13.06l.52-.23c.18-.09.2-.05.08.1l-.56.66c-.14.16-.1.2.1.12l.87-.34a.26.26 0 0 1 .18 0c.06 0 .1.05.13.1l.43.7c.04.07.05.14.02.22l-.44 1.17v.02a.03.03 0 0 0 .03.01h.07c.03-.01.05-.03.06-.05.32-.76.78-1.41 1.38-1.97l.74-.1a2.82 2.82 0 0 1-.76.9.08.08 0 0 0 .02.08l.04.02c.46.07.91 0 1.37-.24.53-.2.88-.57 1.04-1.12.26-.92.67-1.66 1.2-2.21a.14.14 0 0 0 .01-.2l-.15-.18a.17.17 0 0 0-.19-.06c-.85.24-1.57.7-2.16 1.36.56-1.13 1.43-1.92 2.8-1.58.07.02.13.05.18.11l.5.61c.05.06.1.09.18.1 1.51.17 3 .48 3.15 2.22-.94-.11-1.6-.62-2.28-1.25a.31.31 0 0 0-.19-.09c-.23-.02-.46.01-.68.1a.29.29 0 0 0-.15.12c-.55.94-.8 1.39-1.85 1.7-.1.04-.14 0-.11-.1l.1-.36a.48.48 0 0 1 .33-.34 24.85 24.85 0 0 1 .88-.3.1.1 0 0 0 .02-.06c0-.03-.02-.05-.05-.05l-.33-.09a.12.12 0 0 1-.08-.06.1.1 0 0 1 0-.1l.34-.62c.02-.03.02-.06 0-.09-.04-.04-.07-.04-.11 0-.7.81-1.07 1.33-1.14 1.54a3.45 3.45 0 0 1-.65 1.4 30.16 30.16 0 0 1-1.8 1.58.06.06 0 0 1-.05-.02l-.01-.04c0-.1.02-.18.06-.22.17-.19.13-.26-.11-.2-.52.1-1.03.29-1.55.57l-.55.43-.87-.33a.24.24 0 0 1-.14-.13 4.85 4.85 0 0 0-.9-1.33.18.18 0 0 1-.05-.18l.15-.53c.02-.09-.01-.12-.1-.1-.26.07-.44.15-.54.26-.18.07-.51.28-1 .6a2.7 2.7 0 0 1-1.4.3c-.12 0-.13-.03-.04-.1l1.6-1.21c.06-.05.06-.09-.02-.1l-.16-.05a.19.19 0 0 0-.17.04l-.95.83c-.11.1-.2.14-.3.13-.11-.02-.2-.12-.24-.3a.91.91 0 0 1-.02-.53c.01-.06.05-.1.12-.09l.73.07c.07 0 .12-.02.16-.07.62-.8.6-1.6.63-2.61l.8 1.8a.13.13 0 0 1 0 .1l-.2.4c-.03.07 0 .09.06.06.59-.25 1.06-.72 1.67-1.26.58-.52 1.6-.7 2.28-1.36.26-.25.21-.32-.14-.23-.63.17-1.18.5-1.88.64-.08.01-.1-.02-.07-.09a.36.36 0 0 1 .22-.2 5.92 5.92 0 0 0 1.76-1c0 .15.03.28.07.4.03.06.07.07.12.01a6.79 6.79 0 0 1 2.27-1.53Z" fill="#5F5342"/><path d="M22.2 33.84c-.5.6-1 .33-1.4.33v-.99c.28-.18.46-.37.54-.55.2-.42.4-.82.62-1.2a4.42 4.42 0 0 1 2.16-1.36c.08-.02.14 0 .19.06l.15.19c.03.02.04.06.04.1 0 .03-.02.06-.05.09a5.14 5.14 0 0 0-1.2 2.21c-.16.55-.5.92-1.04 1.12ZM21.68 30.46c-.67 1.25-1.75 1.44-2.94 1.81-.07.02-.09 0-.07-.06.01-.04.04-.06.1-.08a3.6 3.6 0 0 0 1.46-.89l1.17-1.05c.06-.05.1-.04.15.01.05.07.1.16.13.26ZM34.41 31.41a2.53 2.53 0 0 1-1.88-.8c.7-.18 1.33.09 1.88.8Z" fill="#6D6252"/><path d="M32.53 30.6c.48.52 1.1.8 1.88.81.06.1.1.2.13.3.01.08-.02.1-.1.1l-.6-.05c-.08 0-.11.03-.1.11l.17.94-.14-.1-.65-.43-1.21-1.35.62-.33Z" fill="#5F5342"/><path d="M28.77 32.9c.25.95-.3 1.54-.53 2.35-.05.19-.08.18-.1-.01-.02-.25-.01-.58.04-.97.21-.5.04-.9-.5-1.23-.08-.04-.11-.02-.1.06l.13.73c0 .06 0 .12-.04.17l-.7.97c-.04-.37-.03-.73.04-1.1.07-.34.07-.6.01-.74a3.45 3.45 0 0 0-.53-.88c-.25-.3-.34-.26-.27.11.2 1.05.3 2.09.29 3.13 0 .18-.03.41-.1.7-.05.22-.09.45-.1.68a.5.5 0 0 1-.2.33c-.06.04-.1.03-.1-.04l-.12-1.74c.05-.24.08-.45.1-.65.01-.3-.03-.31-.14-.03a4.85 4.85 0 0 1-1.41 1.96l.33-.81a.08.08 0 0 0 0-.08c-.02-.02-.05-.04-.09-.05a.1.1 0 0 0-.07.02l-.93.56 1.17-1.08c.48-.39.75-.75.82-1.09.11-.54.14-1.06.1-1.55-.02-.25-.11-.28-.27-.09-.62.71-1.17 1.5-1.64 2.35-.23.4-.5.6-.94.73-.72.21-1.41.47-2.09.78-.23.11-.34.3-.47.43-.08.08-.12.08-.1-.02.02-.25.07-.48.16-.7.09-.24.02-.29-.2-.14l-.32.21a.16.16 0 0 1-.1.03l-.08-.03-.36-.26a5.31 5.31 0 0 1 1.55-.58c.24-.05.28.02.11.2-.04.05-.06.13-.06.23v.04a.06.06 0 0 0 .06.02l.03-.01c.61-.5 1.2-1.03 1.77-1.57.22-.22.44-.68.65-1.4.07-.21.45-.73 1.14-1.54.04-.04.07-.04.11 0 .02.03.02.06 0 .1a10.9 10.9 0 0 0-.34.66v.05l.04.04.04.02.33.09c.03 0 .05.02.05.05a.1.1 0 0 1-.02.06l-.04.03-.84.27a.48.48 0 0 0-.33.34l-.1.36c-.03.1 0 .14.11.1 1.05-.31 1.3-.76 1.85-1.7.03-.05.08-.1.15-.12.22-.09.45-.12.68-.1.07.01.13.04.19.09.69.63 1.34 1.14 2.28 1.25Z" fill="#6D6252"/><path d="M37.54 31.54c.07 0 .18.06.34.15.04.12.13.23.24.33.05.04.1.03.14-.02.36-.48 1.06-.93 1.56-.37.05.05.07.1.07.17.02.47-.17.97-.18 1.36l-.01.45c-.01.14-.05.29-.12.42-.2.4-.44.88-.57 1.35-.32 1.1-.62 2.1-1.13 3.23-.32.73-.53 1.23-.63 1.5-.17.45-.37.83-.63 1.13-.64.76-1.08 1.4-2.05 1.56-.62.1-1.22.17-1.79.22a1.2 1.2 0 0 0-.99.63c0 .01 0 .02-.02.02a.08.08 0 0 1-.08 0l-.95-.73a.2.2 0 0 1-.05-.26.2.2 0 0 1 .08-.07l.08-.04a.2.2 0 0 1 .24.04l.39.47a.1.1 0 0 0 .14.02 4.5 4.5 0 0 0 .48-3.45c-.1-.37 0-.74.3-1.1a.15.15 0 0 1 .09-.06l.77-.12c.03 0 .05-.01.07-.03a.15.15 0 0 0 .05-.06c.31-.78.5-1.4 1.18-1.94a4.58 4.58 0 0 0 1.56-2.11c.19-.45.44-.95.26-1.46-.07-.2-.12-.36-.14-.47-.03-.1.01-.14.1-.11l.1.03c.14.04.16 0 .07-.1l-.25-.3c-.05-.07-.04-.12.04-.15.38-.15.79-.19 1.24-.13Z" fill="#0F0A05"/><path d="m33.12 32.28.65.43c-.08.02-.12.08-.11.16 0 .05.03.1.07.15a10.16 10.16 0 0 1 .7.89.11.11 0 0 1-.03.09.12.12 0 0 1-.04.03.3.3 0 0 1-.16.02h-.05a.11.11 0 0 0-.05.05.1.1 0 0 0 0 .1l.05.1c.03.04.03.1-.01.14a.15.15 0 0 1-.09.04 4 4 0 0 1-1.22-.71 7.45 7.45 0 0 1-.82-1.85c-.04-.14 0-.18.14-.1.3.16.55.4.75.72l.84 1.27c.03.04.07.04.1 0l.04-.05v-.03l-.76-1.45Z" fill="#4E4334"/><path d="M26.98 34.97c0 .78-.22 1.41-.67 1.9.01-.23.05-.46.1-.69.07-.28.1-.5.1-.69 0-1.04-.09-2.08-.29-3.13-.07-.37.02-.4.27-.11.21.26.4.55.53.88.06.15.06.4-.01.75a3.4 3.4 0 0 0-.03 1.09ZM24.85 35.26l.54-1.3c.07-.17.02-.22-.15-.15l-.31.13c-.1.03-.19.1-.25.16a.61.61 0 0 0-.15.24c-.1.32-.45.8-1.04 1.46-.23.25-.28.6-.15 1.02l-.52.34a1.8 1.8 0 0 0-.42.37 10 10 0 0 0-.35.45c-.35.43-.69 1.01-1.08 1.33a8.63 8.63 0 0 0-.95.86.09.09 0 0 1-.1-.03c-.03-.04-.04-.09-.03-.15.08-.17.1-.3.06-.38-.03-.08-.13-.11-.29-.08-.26.04-.52.1-.75.26-.37.27-.58.37-1.08.3-.3-.04-.59-.03-.88.02a.52.52 0 0 1-.15-.34c-1.33-1.2-2.09-2.9-2.72-3.68-.6-.12-.97-.5-1.08-1.11-.01-.08.02-.13.08-.18.1-.07.22-.12.33-.15.07-.02.1-.06.11-.13l.05-.48a.3.3 0 0 0 .1.1c.06.18.14.28.26.3.08.01.18-.03.29-.13a31.84 31.84 0 0 1 1.03-.87.2.2 0 0 1 .1 0l.15.04c.08.02.08.06.02.1l-1.6 1.23c-.09.06-.08.1.03.1a2.7 2.7 0 0 0 1.4-.3c.5-.33.83-.54 1-.61-.19.38-.48.72-.88 1-.03.03-.04.06 0 .08a.1.1 0 0 0 .05.03c.03 0 .07 0 .1-.03.2-.1.4-.2.58-.31.05-.03.1-.02.12.03l.3.5.05.04.06.02c.14 0 .24.03.32.09.06.04.07.09.04.15-.14.28-.16.56-.08.84.07.24.2.38.41.43.13.02.3-.02.52-.12l.87-.4.55-.44.36.26.09.03.09-.03.32-.21c.22-.15.29-.1.2.14-.09.22-.14.45-.17.7 0 .1.03.1.11.02.13-.12.24-.32.47-.43.68-.3 1.37-.57 2.1-.78.43-.13.7-.32.92-.73.48-.86 1.03-1.64 1.65-2.35.16-.19.25-.16.27.09.04.5.01 1.01-.1 1.55-.07.34-.34.7-.82 1.09Z" fill="#89795B"/><path d="M28.18 34.27c-.5.44-.77 1.11-.81 2.02-.01.32.04.58.16.8.2.35.38.7.55 1.07a2.8 2.8 0 0 1-.16 1.93c-.13-.26-.23-.49-.3-.69-.09-.3-.19-.3-.29 0-.2.56-.37 1.2-.53 1.9-.02.06-.17.32-.46.76-.01.01-.03.02-.04.01a.07.07 0 0 1-.04-.03V42l.75-2.66v-.03a.1.1 0 0 0-.06-.02c-.03-.01-.05 0-.07.02l-.22.27c-.07.08-.1.07-.1-.04l.12-1.24c.02-.2-.02-.21-.1-.03l-1.24 2.44a.03.03 0 0 1-.03.01l-.06-.01c-.05-.02-.06-.04-.04-.08l.41-1.04c.03-.07.01-.13-.06-.18-.29-.18-.33-.43-.13-.75a.09.09 0 0 0 .01-.07.09.09 0 0 0-.04-.05l-.07-.03c-.03-.01-.05 0-.06.01-.48.58-.77.95-.88 1.1-.08.1-.1.2-.1.26.03.07.06.08.12.02.07-.08.13-.13.17-.13.08-.02.12.02.13.09.09.46.24 1 .45 1.62.08.25.11.6.09 1.03l.79 1.89c.02.07.07.1.15.1.4.02.73-.02.95-.14.55-.28 1.06-.66 1.59-.59.51.07.93.16 1.27.27.22.08.37.21.42.4.06.2.02.41-.13.64l-1.07-.14c-.03 0-.04-.02-.04-.05l.02-.05.02-.01h.75c.24 0 .27-.08.08-.22l-.77-.6a.1.1 0 0 0-.09-.02c-.05.01-.08.05-.1.1a.13.13 0 0 0-.01.1c0 .02.02.04.05.06l.29.23a.08.08 0 0 1 .03.08l-.03.04a14.24 14.24 0 0 1-3.72.12L24.52 41c-.06-.19-.1-.18-.12.01a28.57 28.57 0 0 1-.15 1.23h-.06c-.02 0-.04 0-.04-.02l-.1-.56c-.01-.11-.06-.12-.13-.01a1.1 1.1 0 0 0-.1.31c-.02.08-.06.1-.13.05a.26.26 0 0 1-.07-.1c.07-.2.1-.38.05-.55-.02-.09-.05-.1-.1 0l-.14.26c-.47-.9-.22-1.69.22-2.57.2-.38.5-.67.82-.97.18-.18.35-.44.53-.78.3-.6.6-1.23.9-1.89l.12 1.74c0 .07.04.08.1.04a.5.5 0 0 0 .2-.33c.45-.49.67-1.12.67-1.9l.69-.97c.04-.05.05-.1.04-.17l-.13-.73c-.01-.08.02-.1.1-.06.54.32.71.73.5 1.23Z" fill="#5F5342"/><path d="m18.81 36.34-.87.41c-.22.1-.4.14-.52.12-.2-.05-.34-.19-.41-.43-.08-.28-.06-.56.08-.84.03-.06.02-.11-.04-.15a.54.54 0 0 0-.32-.1.14.14 0 0 1-.1-.06l-.3-.5c-.04-.04-.08-.05-.13-.02l-.57.31a.18.18 0 0 1-.1.03.1.1 0 0 1-.06-.03c-.04-.02-.03-.05 0-.08.4-.28.7-.62.89-1 .1-.1.28-.2.54-.25.09-.03.12 0 .1.09l-.15.53c-.02.07 0 .13.04.18.4.41.7.86.91 1.33.03.06.08.1.14.13l.87.33Z" fill="#6D6252"/><path d="m24.85 35.26-1.17 1.08-.34.48c-.13-.43-.08-.77.15-1.02.6-.66.94-1.14 1.04-1.46a.61.61 0 0 1 .15-.24.73.73 0 0 1 .25-.16l.31-.13c.17-.07.22-.02.15.15l-.54 1.3Z" fill="#A59B86"/><path d="M25.89 35.42a33.1 33.1 0 0 1-.9 1.9c-.18.33-.35.6-.53.77-.31.3-.62.6-.82.97-.24 1.71.6 1.96.5 3.17 0 .02.02.03.04.02h.06v-.02c.07-.43.12-.83.15-1.2.02-.2.06-.2.12-.02l1.2 3.72c-.3.08-.58.09-.86.04a.21.21 0 0 1-.15-.1l-.2-.33a.13.13 0 0 0-.06-.06 2.77 2.77 0 0 1-1.79-2.3v-1.5c0-.07-.04-.11-.11-.12l-1.1-.15.43-.74a8.29 8.29 0 0 0 1.62-.88c.25-.18.74-.66 1.47-1.44.14-.15.2-.32.2-.49-.03-.27-.13-.29-.29-.04l-.42.65c-.05.08-.09.07-.1-.03a1 1 0 0 1 .09-.54 4.85 4.85 0 0 0 1.41-1.96c.11-.28.15-.27.13.03-.01.2-.04.41-.1.65Z" fill="#4E4334"/><path d="M24.44 36.7a1 1 0 0 0-.1.54c.02.1.06.11.11.02l.42-.64c.16-.25.26-.23.28.04a.63.63 0 0 1-.19.49c-.73.78-1.22 1.26-1.47 1.44a8.3 8.3 0 0 1-1.62.88l.18-1.5.35-.44c.11-.14.25-.26.42-.37l.52-.34.34-.48.93-.56a.1.1 0 0 1 .07-.02c.04.01.07.03.08.05.02.03.02.05 0 .08l-.32.8Z" fill="#5F5342"/><path d="M20.13 39.04c-.07-.12-.08-.26-.01-.43.33-.9.71-1.1 1.55-1.81.24-.2.32-.15.24.15-.03.12-.1.28-.22.48a31.3 31.3 0 0 1-1.31 1.78.16.16 0 0 1-.19-.03.13.13 0 0 1-.03-.05l-.03-.1Z" fill="#A59B86"/><path d="m29.77 40.61.62 1.64c.02.05 0 .07-.04.09a.1.1 0 0 1-.07 0 .05.05 0 0 1-.02-.02l-.5-.74c-.1-.14-.2-.14-.31-.02l-.06.07c-.07.1-.08.18-.01.28l.35.52c.06.08.04.1-.05.06-.15-.07-.31-.1-.48-.1a.17.17 0 0 1-.1-.03.16.16 0 0 1-.06-.09 3.38 3.38 0 0 1-.15-1.24c0-.06.03-.13.07-.18.12-.19.18-.32.16-.4-.16-.77-.33-1.53-.52-2.29l.06-.84c.02-.33.1-.35.27-.05a3.29 3.29 0 0 1 .34 1.1c.1.77.26 1.52.5 2.24Z" fill="#5F5342"/><path d="m22.05 37.98-.18 1.49-.43.74 1.21 1.77c.18 1.13.78 1.9 1.79 2.3.03.01.05.03.06.06l.2.33c.04.05.09.09.15.1.28.05.56.04.86-.04a14.24 14.24 0 0 0 3.71-.12.08.08 0 0 0 .02-.08.08.08 0 0 0-.02-.04l-.3-.23a.14.14 0 0 1-.04-.07v-.08c.03-.06.06-.1.11-.1a.1.1 0 0 1 .1.01l.76.6c.19.14.16.21-.08.21h-.75l-.02.02-.02.05c0 .03 0 .05.04.05l1.07.14.33.06.84.38c-.41.25-.9.39-1.46.42a29.3 29.3 0 0 1-6.44-.33c-.6-.1-1.04-.24-1.34-.43-.38-.24-.79-.55-1.22-.92a11.68 11.68 0 0 1-2.43-2.73c-.15-.24-.5-.55-1.04-.94.28.09.55.15.8.19.28.03.54-.03.78-.18.29-.18.54-.39.78-.62 0 .06 0 .11.03.15 0 0 .01.02.03.02a.09.09 0 0 0 .1-.01c.28-.3.59-.58.92-.84.4-.32.73-.9 1.08-1.33Z" fill="#6D6252"/><path d="m27.92 40.1-.14.52c-.08-.13-.17-.22-.26-.25-.07-.02-.12 0-.15.06a3.1 3.1 0 0 0-.1 2.32l-.78-.25c-.07-.03-.11 0-.11.07-.03.4-.1.73-.2 1-.1.23-.17.22-.24 0a2.23 2.23 0 0 0-.7-1.05c.03-.43 0-.78-.08-1.03-.21-.62-.36-1.16-.45-1.62 0-.07-.05-.1-.13-.1-.04.01-.1.06-.17.14-.06.06-.1.05-.11-.02-.02-.07.01-.15.09-.25.11-.16.4-.53.88-1.11.01-.02.03-.02.06-.01l.07.03a.09.09 0 0 1 .04.05.08.08 0 0 1 0 .07c-.2.32-.17.57.12.75.07.05.1.1.06.18l-.41 1.04c-.02.04 0 .06.04.08l.06.01h.02l.01-.01 1.23-2.44c.1-.18.13-.17.1.03l-.1 1.24c-.02.1.02.12.09.04l.22-.27a.08.08 0 0 1 .07-.02.1.1 0 0 1 .05.02c.02 0 .02.02.01.03l-.76 2.66v.03l.05.03.04-.01c.29-.44.44-.7.46-.77.16-.7.34-1.33.53-1.9.1-.29.2-.29.3.01.06.2.16.43.3.7Z" fill="#4E4334"/><path d="M19.89 39.99c-.24.23-.5.44-.78.62-.24.15-.5.21-.77.18a4.6 4.6 0 0 1-.81-.2 1.22 1.22 0 0 1-.58-.48c.29-.05.58-.06.88-.02.5.07.7-.03 1.08-.3.23-.16.5-.22.75-.26.16-.03.26 0 .3.08.03.08 0 .21-.07.38ZM22.65 41.98l-1.21-1.77 1.1.15c.07.01.1.05.1.12l.01 1.5ZM27.78 40.62c0 .2 0 .4.02.6.03.23.02.43-.02.6-.1.35-.13.71-.11 1.1 0 .07-.04.1-.11.06a.74.74 0 0 1-.3-.23 3.1 3.1 0 0 1 .1-2.32c.04-.06.09-.08.16-.06.1.03.18.12.26.25Z" fill="#5F5342"/><path d="M34.85 43.67c-1.14.6-2.4 1.04-3.75 1.3a8.79 8.79 0 0 1 3.75-1.3Z" fill="#4E4334"/></svg>