<!-- by TradingView --><svg width="56" height="56" viewBox="0 0 56 56" xmlns="http://www.w3.org/2000/svg"><path fill="url(#atow0u31u)" d="M0 0h56v56H0z"/><path d="M28 14c7.95 0 12.08 7.71 12 15 0 7.02-4.9 13-12 13-7.46 0-12-6.06-12-13 0-6.73 4.09-15 12-15ZM18 29c0 5.84 3.66 10.96 10 10.96 6 0 9.99-5.03 9.99-10.96 0 .1 0-.07 0 0 .05-6.17-3.16-12.96-9.99-12.96-6.75 0-10 7.38-10 12.96Zm4 0h-2c0-2.07.79-6 3.5-6s3.5 3.93 3.5 6h-2c0-.76-.3-4-1.5-4S22 28.24 22 29Zm9 0h-2c0-2.07.79-6 3.5-6s3.5 3.93 3.5 6h-2c0-.76-.3-4-1.5-4S31 28.24 31 29Zm-20-.5c0-3.5 2.5-4.5 4-4.5v2c-1 0-2 1-2 2.5s.5 2.5 2 2.5v2c-2.34 0-4-1-4-4.5Zm32 0c0-2-1.5-2.5-2-2.5v-2c1.5 0 4 1.23 4 4.5 0 1.96-1.66 4.5-4 4.5v-2c1.1 0 2-1 2-2.5Z" fill="#F0F0F0"/><defs><linearGradient id="atow0u31u" x1="10.42" y1="9.71" x2="68.15" y2="76.02" gradientUnits="userSpaceOnUse"><stop stop-color="#1A1E21"/><stop offset="1" stop-color="#06060A"/></linearGradient></defs></svg>