<svg width="56" height="56" viewBox="0 0 56 56" xmlns="http://www.w3.org/2000/svg"><path fill-rule="evenodd" d="M13.8 35.15c-.06-.35-.63-.25-.86-.14h-.03a.05.05 0 0 1-.05-.04l.01-.03.08-.15a.17.17 0 0 1 .09-.08l.11-.05c.25-.1.46-.2.66-.4.08-.1.16-.17.23-.24.33-.33.56-.56.77-.96l1-1.86c.33-.52.34-.79.38-1.38a4.25 4.25 0 0 1 .2-1.13c.06-.24.18-.47.34-.68.48-.65.92-1.37 1.1-2.2.23-.93.34-1.7.34-2.32 0-.5.07-.93.15-1.4l.12-.86c.04-.4.25-.93.62-1.62.22-.4.49-.87.81-1.4.11-.18.18-.17.21.04.06.4.1.9.09 1.5 0 .25.04.5.12.74.06.17.16.34.26.51.15.26.3.52.32.8l-.01.82c0 .17.03.3.11.38.34.37.7.9 1.05 1.57.14.26.38.55.74.86.7.6 1.13 1.07 1.8 1.78l.04.03c.2.22.54.5 1 .84.46.33.8.6 1.03.82.7.66 1.34 1.29 1.89 1.86.24.25.7.6 1.4 1.03.29.17.67.34 1.15.5.26.07.67.23 1.23.45.07.03.14.04.22.04h2.44c.05 0 .08.03.09.08v.33c0 .24 0 .45.14.74l.08.19c.18.4.4.92.81.93.27 0 .46.02.57.05.05 0 .1.03.13.07.14.15.25.23.33.23 2.07-.01 3.48 0 4.23.01.92.02 1.91.23 2.98.62.4.14.9.23 1.51.27.1.01.15-.03.16-.13v-.06c.02-.13-.03-.2-.16-.22a18.6 18.6 0 0 1-2.38-.6 4.13 4.13 0 0 0-.71-.17c-.54-.07-1.2-.16-1.84-.17h-2.73a3.7 3.7 0 0 1-.83-.18c-.35-.1-.59-.1-.95-.11h-.19a.25.25 0 0 1-.21-.12 2.6 2.6 0 0 1-.5-1.64.16.16 0 0 1 .08-.13.16.16 0 0 1 .16 0l.37.21c.04.03.09.04.14.02a.68.68 0 0 0 .23-.14.4.4 0 0 1 .15-.09c.59-.18.95-.32 1.08-.4.58-.36 1.17-.68 1.78-.96.31-.15.5-.53.68-.89l.04-.06c.11-.23.26-.42.42-.58.33-.3.9-.84 1.3-1.35a.97.97 0 0 0 .18-.6c.01-.55.13-1.22.36-2.03.04-.15.22-.35.55-.6a.32.32 0 0 0 .1-.13l.32-.77.4-.72c.25-.4.41-.74.48-1 .03-.1.14-.27.31-.51.1-.14.2-.32.27-.54.12-.38.29-.76.5-1.14.09-.18.14-.38.15-.58.02-.97.08-1.7.16-2.2.05-.26.03-.54-.05-.82a6.74 6.74 0 0 1-.2-1c-.12-.87-1.47-.95-2.12-.86-.32.04-.68.22-1.07.53l-.7.52c-.7.5-1.67 1.2-2.33 1.86-.26.26-.58.54-.94.84-.38.3-.79.69-1.23 1.15-.24.26-.62.52-.9.64-.73.31-1.7.68-2.95 1.13a6.6 6.6 0 0 1-3.57.32c-.73-.15-1.73-.42-2.54-.72-.5-.18-.75-.44-1.07-.81a66 66 0 0 1-1.17-1.43 8.4 8.4 0 0 0-2.07-1.43l-1.46-.6c-.43-.18-.89-.21-1.33-.14a.36.36 0 0 0-.3.3c-.1.55-.29.9-.62 1.4a7.76 7.76 0 0 0-1.11 2.53c-.08.33-.12.86-.12 1.59-.01 1.28-.24 2.6-.69 3.96-.04.14-.2.33-.46.59-.2.2-.35.39-.44.59-.3.63-.47 1.37-.52 2.2-.01.3-.06.51-.14.61a8.85 8.85 0 0 0-1.1 1.98c-.2.48-.44.73-.75 1.05l-.16.18c-.1.1-.33.26-.67.48-.21.14-.41.34-.59.6a.17.17 0 0 1-.13.08l-.16.01c-.2.01-.45.03-.63.1-1.8.69-2.2 1.58-4.11 1.57a.29.29 0 0 0-.27.17.24.24 0 0 0-.03.1c0 .08.03.12.12.13 2.09.08 2.44-.78 4.35-1.54l.28-.1c.12-.05.4-.05.82 0 .08.01.14.05.19.12.04.05.08.1.14.14.04.03.06.02.08-.02.12-.27.32-.37.61-.32.06.01.1 0 .15-.05.04-.04.06-.1.05-.19ZM38 23.3a.17.17 0 0 1-.1-.08.33.33 0 0 1-.04-.2c0-.05.03-.1.07-.14a.67.67 0 0 0 .03-1.03c-.4-.38-.86-.65-1.4-.82a.22.22 0 0 0-.16.01 26.93 26.93 0 0 1-3.89 1.4c-.55.14-1.01.22-1.39.22-.54 0-1.02-.04-1.42-.12-1.17-.22-2.3-.53-3.38-.92a.23.23 0 0 1-.12-.1c-.18-.3-.39-.57-.63-.8-.18-.17-.42-.45-.73-.84a5.64 5.64 0 0 0-1.9-1.59 14.52 14.52 0 0 0-2.48-.93.1.1 0 0 0-.07.07.1.1 0 0 0 0 .05c.17.56.29.99.2 1.54-.1.72.04 1.36.42 1.92.17.24.26.45.27.63a5 5 0 0 1 0 .3c0 .37 0 .85.2 1.08.35.4.63.81.85 1.25.15.3.31.53.49.7l.57.54c.36.33.67.62 1.05 1.03.5.53 1.06 1 1.65 1.4.27.18.48.4.68.61.18.2.37.38.59.55.43.3.78.68 1.2 1.12l.34.35a6.18 6.18 0 0 0 1.85 1.22l1.42.5c.21.09.44.13.67.14.85.01 1.7.02 2.59 0 .3 0 .52.05.65.15.04.04.1.04.14.02l.67-.3c.46-.18.97-.38 1.42-.73.24-.19.43-.26.75-.38l.06-.02c.36-.14.57-.55.72-.86l.1-.18c.13-.24.29-.43.47-.57a8.69 8.69 0 0 0 1.21-1.28l.3-2.3a.2.2 0 0 1 .05-.11A4 4 0 0 0 43 24.3c.11-.25.22-.48.34-.65.18-.25.31-.5.39-.76.08-.27.24-.52.4-.78.19-.3.38-.6.45-.93l.27-1c.1-.32.15-.65.18-1l.11-1.3c.03-.28.03-.56 0-.84l-.12-.83c-.07-.39-.22-.49-.58-.62a1.59 1.59 0 0 0-1.56.17c-.68.48-1.55 1.13-2.6 1.93-.18.14-.33.28-.47.43-.16.18-.31.33-.46.43-.18.12-.42.33-.7.61-.28.28-.57.53-.88.76-.13.1-.33.31-.6.63-.04.05-.03.1.02.13l.54.32c.6.32.94.76 1 1.48.03.42-.29.65-.6.8a.17.17 0 0 1-.13 0Z" fill="#010101"/><path fill-rule="evenodd" d="m43.58 18.62.2.37c.03.06.04.12.03.18l-.22 1.67a.18.18 0 0 1-.18.16c-.5-.02-.97-.13-1.39-.32-.29-.14-.53-.2-.73-.21h-.19c-.54-.02-.8-.02-1.35-.17-.05-.01-.08-.05-.08-.1l.03-.7c0-.24.05-.42.13-.54.26-.37 1-.46 1.38-.48.26 0 .54-.06.84-.17a4.65 4.65 0 0 1 2.02-.16.14.14 0 0 1 .07.08v.06l-.02.15c-.01.08-.05.11-.13.1l-.33-.04c-.1-.01-.12.03-.08.12Zm-1.93 1.4a.03.03 0 0 1-.01.03.03.03 0 0 1-.02.01l-.42.05a2.1 2.1 0 0 1-.4 0 1.44 1.44 0 0 1-.33-.06.68.68 0 0 1-.24-.13.27.27 0 0 1-.1-.17l-.03-.31c0-.06.01-.13.06-.19a.68.68 0 0 1 .2-.17c.1-.06.2-.1.32-.14.12-.04.25-.07.39-.08l.41-.05a.03.03 0 0 1 .04.02v.01l.13 1.18Zm1.64-.24c-.1.5-.52.49-.92.42h-.06c-.06.03-.06.07-.02.13a.1.1 0 0 0 .04.03c.2.09.46.15.79.18a.17.17 0 0 0 .19-.15 3.22 3.22 0 0 0 .03-.6.14.14 0 0 0-.04-.01h-.01Z" fill="#010101"/><path d="m39.3 21.11-.04.02a.26.26 0 0 0-.18.32l.14.5c.04.13.18.21.32.17l.05-.01a.26.26 0 0 0 .17-.32l-.14-.5a.25.25 0 0 0-.31-.18ZM34.92 22.7a.15.15 0 0 0-.06.24l.3.31a.12.12 0 0 1 .04.1.12.12 0 0 1-.06.09l-.15.09c-.1.06-.18.06-.25-.01-.22-.2-.4-.43-.5-.68a.4.4 0 0 1 .19-.54 3 3 0 0 1 1.09-.26c.12 0 .17.05.16.18l-.02.08a.26.26 0 0 1-.2.24l-.54.16ZM33.32 24.41c.06-.21.2-.31.44-.3l.22.02c.73 0 1.32 0 1.76.03.33.01.66-.02.98-.1.7-.19 1.2-.28 1.48-.3.3 0 .6-.07.89-.2.11-.06.4-.15.89-.27.3-.08.5-.22.73-.36.05-.03.1-.03.15 0 .43.28.79.47.66.96a.25.25 0 0 1-.09.14c-.6.47-1.22.74-1.81 1.08-.41.24-.8.4-1.15.47-1.13.24-2.11.35-2.95.34-.23 0-.48-.05-.7-.17a5 5 0 0 0-.97-.44 1.37 1.37 0 0 1-.43-.32.13.13 0 0 0-.15-.04l-.18.06a.1.1 0 0 1-.08 0c-.09-.05-.1-.14-.06-.28.04-.1.13-.17.27-.2.05-.02.09-.06.1-.12Z" fill="#010101"/><path fill-rule="evenodd" d="M29.78 24.09c-.05.16-.08.32-.08.47 0 .07-.03.13-.07.18a.26.26 0 0 1-.17.09c-.4.04-.84.05-1.32.04-.3 0-.73.02-1.3.06-.64.06-1.1.06-1.37.01-.21-.03-.41-.25-.58-.44a2.82 2.82 0 0 0-.63-.54c-.3-.23-.05-.82.07-1.12l.01-.02a.14.14 0 0 0-.02-.15.88.88 0 0 1-.16-.25.13.13 0 0 1 0-.12.13.13 0 0 1 .1-.06 4 4 0 0 0 .31-.04c.17-.02.33-.04.48-.03.5.05 1.17.07 2.02.05.27 0 .57.19.82.35l.27.17 1.76.9c.04.01.07.04.09.07.09.14.05.23-.1.27a.17.17 0 0 0-.13.11Zm-3.68-1.14c-.26.36-.16 1.12 0 1.53.02.05 0 .09-.05.1-.24.08-.49-.03-.67-.24a3.11 3.11 0 0 0-.74-.64.16.16 0 0 1-.07-.18c.1-.3.25-.55.44-.78a.18.18 0 0 1 .15-.07h.97c.07 0 .1.03.07.1a.8.8 0 0 1-.1.18Zm2.58.68-.08.79v.01l.01.02a.04.04 0 0 0 .03.02H28.95a.86.86 0 0 0 .24-.08.5.5 0 0 0 .17-.12c.04-.05.06-.1.07-.16v-.02c.01-.11-.05-.23-.18-.32-.13-.1-.3-.16-.5-.18h-.03a.04.04 0 0 0-.04.02v.02Z" fill="#010101"/><path d="M32.18 23.76c0-.02.02-.04.04-.05a.08.08 0 0 1 .07 0h.03c.08.03.15.1.19.21a.6.6 0 0 1-.01.36l-.13.42a.6.6 0 0 1-.2.3c-.09.06-.19.08-.27.05h-.03a.08.08 0 0 1-.05-.05.09.09 0 0 1 0-.06l.36-1.18ZM20.9 28.88c.28-.38.43-.64.44-.8.07-.69.1-1.4.07-2.12-.01-.4-.18-.79-.26-1.16-.02-.06 0-.1.07-.12l.07-.02h.04c.02 0 .03.02.04.04.17.47.26.86.27 1.14.02.61 0 1.29-.03 2.02-.02.39-.15.75-.38 1.1a.23.23 0 0 1-.06.05c-.16.12-.26.11-.3-.03 0-.04 0-.07.02-.1ZM27.12 27.83a6.9 6.9 0 0 0 2.32 1.75c.97.48 1.5.74 1.59.8.6.32 1.11.53 1.56.61 1.04.2 1.95.28 2.75.25.16 0 .24.07.24.22v.07a.18.18 0 0 1-.06.13.17.17 0 0 1-.12.05c-1.7-.04-3.13-.15-4.62-.96-.7-.39-1.53-.69-2.2-1.12-.4-.26-1.31-.83-1.64-1.38a.41.41 0 0 1-.05-.35l.02-.05c.06-.12.13-.12.21-.02ZM17.96 35.04c.28-.2.51-.43.7-.68.15-.2.32-.53.53-.99.1-.24.57-.77.88-.93.46-.24.91-.39 1.36-.45.08 0 .13.03.15.1l.02.07c0 .11-.05.18-.15.21l-.8.29c-.59.23-.77.45-1.08 1.01a7.47 7.47 0 0 1-1.08 1.57c-.26.27-.63.3-1.1.12-.07-.02-.09-.07-.06-.14.08-.17.23-.22.47-.15.06.02.11 0 .16-.03ZM31.58 34.22c.1.28.42.53.99.75.05.02.07.06.07.11 0 .07-.03.1-.07.12a.53.53 0 0 1-.13.03h-.1a2.1 2.1 0 0 1-1.27-1.8c0-.05.02-.08.07-.08l.05.01a5.4 5.4 0 0 1 .4.86ZM29.1 38.79c.04 0 .09-.02.13-.05a.22.22 0 0 0 .07-.1c.34-1.13 1.25-1.21 2.39-1.11.04 0 .07.03.07.07v.05a.12.12 0 0 1-.07.11 38.84 38.84 0 0 1-.78.02c-.74 0-1.22.3-1.38 1.03a.24.24 0 0 1-.08.14.24.24 0 0 1-.15.05h-1.45a.44.44 0 0 1-.27-.09.45.45 0 0 1-.16-.23l-.12-.42a.16.16 0 0 0-.1-.11c-.2-.07-.44-.2-.73-.4a1.56 1.56 0 0 0-1.47-.2h-.03a.07.07 0 0 1-.05-.04l-.01-.03v-.06c0-.07.03-.11.1-.13.5-.13.97-.08 1.44.15.3.14.45.4.8.5.25.07.38.25.39.54 0 .08.03.16.1.22a.3.3 0 0 0 .2.09h1.16Z" fill="#010101"/></svg>