<!-- by TradingView --><svg width="56" height="56" viewBox="0 0 56 56" xmlns="http://www.w3.org/2000/svg"><path fill="url(#a4n02qrrg)" d="M0 0h56v56H0z"/><path d="M8 28c0-4.97 4.1-9 9.14-9h21.72A9.07 9.07 0 0 1 48 28c0 4.97-4.1 9-9.14 9H17.14A9.07 9.07 0 0 1 8 28Z" fill="#fff"/><path d="M8.5 28c0-4.7 4-8.5 8.91-8.5H38.6c4.92 0 8.91 3.8 8.91 8.5s-4 8.5-8.91 8.5H17.4c-4.92 0-8.91-3.8-8.91-8.5Z" fill="url(#b4n02qrrg)"/><circle cx="17" cy="28" r="8.5" fill="#fff"/><circle cx="39" cy="28" r="8.5" fill="#16191C"/><defs><linearGradient id="a4n02qrrg" x1="10.42" y1="9.71" x2="68.15" y2="76.02" gradientUnits="userSpaceOnUse"><stop stop-color="#1A1E21"/><stop offset="1" stop-color="#06060A"/></linearGradient><linearGradient id="b4n02qrrg" x1="15.02" y1="21.04" x2="37.53" y2="21.04" gradientUnits="userSpaceOnUse"><stop stop-color="#D9D9D9"/><stop offset="1" stop-color="#16191C"/></linearGradient></defs></svg>