<svg width="112" height="112" xmlns="http://www.w3.org/2000/svg" viewBox="0 0 56 56"><path fill="#F0F3FA" d="M0 0h56v56H0z"/><circle cx="28" cy="28" r="16" fill="url(#paint0_linear)"/><path d="M21.448 32.915c-.545.181-1.461.872-1.85 1.21-.21.186-.063.553.256.383a4.48 4.48 0 011.785-.51c1.02-.063 1.344.192 2.237.51.892.32 2-.5 2.097-1.145.098-.645-.268-.482-1.097-.355-1.426.22-1.836-.624-3.428-.093z" fill="url(#paint1_linear)"/><path d="M24.876 24.516c-3.162.816-5.047 7.036-5.08 7.227-.034.191.106.14.19 0 .085-.14 2.424-3.962 3.89-4.727 1.466-.765 5.5-.5 9-1.5 2.39-.683 5.193-4.703 4.5-5-.5-.214-3.838 1.74-6.5 2.5-3.5 1-2.048.48-6 1.5z" fill="url(#paint2_linear)"/><path d="M23.31 29.664c-.894.33-2.75 1.963-3.323 2.706-.128.166-.04.383.127.383.319 0 1.525-1.237 2.814-1.56.79-.197 3.816.451 6.043 0 1.077-.217 2.233-1.845 2.233-2.485 0-.232-.34-.354-.828-.192-2.678.893-5.855.702-7.066 1.148z" fill="url(#paint3_linear)"/><defs><linearGradient id="paint0_linear" x1="17.355" y1="14.614" x2="36.032" y2="42.853" gradientUnits="userSpaceOnUse"><stop stop-color="#966523"/><stop offset=".474" stop-color="#FFE78D"/><stop offset="1" stop-color="#C28F48"/></linearGradient><linearGradient id="paint1_linear" x1="36.109" y1="22.524" x2="19.535" y2="32.915" gradientUnits="userSpaceOnUse"><stop offset=".426" stop-color="#AD7B32"/><stop offset="1" stop-color="#815E1C"/></linearGradient><linearGradient id="paint2_linear" x1="36.109" y1="22.524" x2="19.535" y2="32.915" gradientUnits="userSpaceOnUse"><stop offset=".02" stop-color="#634402"/><stop offset=".426" stop-color="#AD7B32"/><stop offset="1" stop-color="#815E1C"/></linearGradient><linearGradient id="paint3_linear" x1="36.109" y1="22.524" x2="19.535" y2="32.915" gradientUnits="userSpaceOnUse"><stop offset=".02" stop-color="#634402"/><stop offset=".426" stop-color="#AD7B32"/><stop offset="1" stop-color="#815E1C"/></linearGradient></defs></svg>