<svg width="112" height="112" viewBox="0 0 56 56" xmlns="http://www.w3.org/2000/svg"><path fill-rule="evenodd" d="M36.1 10c-1.1 0-2.15.46-2.91 1.28L27 17.94l-6.19-6.66a3.96 3.96 0 0 0-2.9-1.28H14l10.21 11h-6.15c-.86 0-1.06.5-1.06.69 0 .18 0 .87 1.06.87 1.32 0 1.98 1.04 1.94 1.56v14.76c0 1.21-1.18 1.62-2.06 1.92-.52.18-.94.32-.94.57 0 .55.92.65 1.39.63h11.29c5.81 0 8.32-3.5 8.32-6.1 0-2.1-1.94-4.16-2.9-4.93.68-.42 1.9-1.85 1.9-4.24 0-4.04-4.88-5.55-7.23-5.71L40 10h-3.9Zm-9.91 14h3.19c1.44 0 2.62 1.34 2.62 3s-1.18 3-2.63 3H26.2c-.66 0-1.19-.6-1.19-1.36v-3.28c0-.75.53-1.36 1.19-1.36Zm.17 9c-.75 0-1.36.6-1.36 1.36v3.28c0 .75.6 1.36 1.36 1.36H30a3 3 0 1 0 0-6h-3.64ZM30 42h-5v4h5v-4Z" fill="#F5B947"/></svg>