<svg width="56" height="56" viewBox="0 0 56 56" xmlns="http://www.w3.org/2000/svg"><path d="M43.18 20.31c-.24-.1-.48-.14-.71-.12a.12.12 0 0 0-.11.12c0 .04-.02.08-.07.11a.15.15 0 0 0-.05.18 22.9 22.9 0 0 1 1.13 3.57c-.3-1.02-.66-2-1.1-2.93a15.33 15.33 0 0 0-6.83-7.15 15.99 15.99 0 0 0-3.25-1.36c-1.45-.4-3.1-.57-4.91-.53 0-.26-.03-.52-.07-.79-.03-.2-.25-.33-.66-.37 5.63-.34 10.3 1.5 14.05 5.53 1 1.07 1.86 2.32 2.58 3.74Z" fill="#A71D1D"/><path d="M26.55 11.04c.4.04.63.17.66.37.04.27.06.53.07.79a.95.95 0 0 0-.06.02l-1.49.13c-1.69.06-3.26.45-4.72 1.15a15.86 15.86 0 0 0-7.58 7.51 16.71 16.71 0 0 0-1.11 10.92c.2.85.62 1.91 1.25 3.2l-.86.25a16.8 16.8 0 0 1-1.62-9.19c.07-.67.24-1.3.31-1.93.03-.23.08-.48.18-.75.4-1.22.64-1.91.71-2.07a17.1 17.1 0 0 1 14.26-10.4Z" fill="#9B0000"/><path d="m27.22 12.22-.07.44c-4.29.31-8.19 2.14-10.96 5.4a15.45 15.45 0 0 0-2.1 16.59l-.24.32a18.69 18.69 0 0 1-1.24-3.4A15.49 15.49 0 0 1 15 19.09a15.05 15.05 0 0 1 6.7-5.52c.85-.35 1.54-.69 2.45-.88l1.57-.33 1.49-.13Z" fill="#FE8502"/><path d="m25.73 12.35-1.57.33c-.9.2-1.6.53-2.44.88A15.05 15.05 0 0 0 15 19.08a15.49 15.49 0 0 0-2.4 12.5c.18.79.6 1.92 1.25 3.4a15.88 15.88 0 0 0 9.41 8.04 16.18 16.18 0 0 0 8.91.15c5.2-1.6 8.77-4.92 10.73-9.95a7.6 7.6 0 0 1-.71 1.9 16.62 16.62 0 0 1-5 5.93 16.9 16.9 0 0 1-7.4 2.85c-.7.1-1.69.08-2.52.19a12.4 12.4 0 0 1-2.66-.31 22 22 0 0 1-3.28-1.16 12.3 12.3 0 0 1-2.07-1.13 17.4 17.4 0 0 1-5.7-6.36 17.11 17.11 0 0 1-1.24-3.2c-.85-3.5-.5-7.6 1.11-10.92a15.86 15.86 0 0 1 7.58-7.5c1.46-.71 3.03-1.1 4.72-1.16Z" fill="#B80301"/><path d="M27.15 12.66c.11.59-.08 1.19-.09 1.75 0 .32-.04.69-.1 1.1-.07.52-.22.86-.45 1.03a9 9 0 0 0-.73 1.25l-.49.9c-.47.86-.5 1.8-.08 2.81l-.85 1.32a5.25 5.25 0 0 1 .06-1.85.1.1 0 0 0-.17-.03c-1.05.98-2.01 2.22-2.39 3.59a5.9 5.9 0 0 0 .08 3.5l-.02.03a.08.08 0 0 1-.09.02c-.47-.16-.87-1.45-.98-1.95a.14.14 0 0 0-.1-.1.14.14 0 0 0-.15.06 13.65 13.65 0 0 0-1.68 3.85l-.38 1.52a28.58 28.58 0 0 1-4.28 3.24c-.03.02-.06.02-.1.01a.13.13 0 0 1-.07-.06 15.45 15.45 0 0 1 2.1-16.6 15.68 15.68 0 0 1 10.96-5.4Z" fill="#FE6702"/><path d="M37.8 29c.17 1.14.43 2.43.3 3.49-.19 1.62-.46 3.04-1.32 4.5a8.88 8.88 0 0 1-2.75 2.95c-.41.27-.82.4-1.25.63a.12.12 0 0 1-.15-.04.12.12 0 0 1 .01-.15 5.05 5.05 0 0 0 1.23-5.35 2.12 2.12 0 0 0-1.14-1 394.65 394.65 0 0 1-.89-.35.11.11 0 0 1 .05-.16c1.5-.57 2.3-1.77 2.52-3.34.1-.78.02-1.46-.27-2.03-.62-1.2-2.67-1.16-3.82-1.01a9.4 9.4 0 0 1-1.22.07c-1.22 0-2.34.2-3.45.18-.35 0-.94.02-1.77.06a.25.25 0 0 0-.24.22l-1.58 11.54a.12.12 0 0 1-.19.08 7.74 7.74 0 0 1-3.15-4.62 8.61 8.61 0 0 1-.18-3.2l.38-1.53a13.66 13.66 0 0 1 1.74-3.9.14.14 0 0 1 .16.02l.04.07c.1.5.5 1.79.98 1.95a.08.08 0 0 0 .08-.02.08.08 0 0 0 .02-.08 5.9 5.9 0 0 1-.07-3.45 8.17 8.17 0 0 1 2.44-3.62.1.1 0 0 1 .12.13 5.25 5.25 0 0 0-.07 1.78l.09.74a.1.1 0 0 0 .06.09.1.1 0 0 0 .1-.02 9.83 9.83 0 0 0 1.82-1.84 6 6 0 0 0 1.06-2.36c.2-.89.28-1.77.24-2.66-.05-.93-.39-1.9-.45-2.86a.1.1 0 0 1 .17-.07c.73.79 1.37 1.58 1.91 2.38A9.37 9.37 0 0 1 31 21.66c.01.02.03.03.05.03a.08.08 0 0 0 .09-.04c.18-.39.44-.72.77-1a.13.13 0 0 1 .13-.02.13.13 0 0 1 .08.1c.23 1.79 1.21 2.91 2.52 4.65a13.96 13.96 0 0 1 1 1.7.06.06 0 0 0 .06 0l.02-.03a3.8 3.8 0 0 0 .19-1.64.14.14 0 0 1 .26-.1c.74 1.1 1.28 2.33 1.62 3.7Z" fill="#E11A17"/><path d="M30.18 19c-.48-1.03-1.1-2-1.86-2.88a3.13 3.13 0 0 1-.7-1.57.06.06 0 0 1 .07-.04c.02 0 .03.02.04.03.5.64.95 1.23 1.34 1.78.13.18.43.7.89 1.53.2.35.3.76.38 1.1a.09.09 0 0 1-.12.1.09.09 0 0 1-.04-.05Z" fill="#A71D1D"/><path d="M26.51 16.54c.31.7.48 1.25.52 1.63a4.19 4.19 0 0 1-1.34 3.5.3.3 0 0 1-.25.09c-.1-.01-.18-.1-.23-.26a3.16 3.16 0 0 1 .08-2.82l.49-.9c.21-.43.46-.85.73-1.24Z" fill="#E11A17"/><path d="M26.4 17.24c.07.04.12.13.12.25.01.12-.02.26-.09.39l-.87 1.71a.81.81 0 0 1-.26.3c-.1.07-.2.09-.27.05l1.37-2.7Z" fill="#9B0000"/><path d="m32.98 18.57.04.03h.01c.58.84.93 1.32 1.05 1.43a5.94 5.94 0 0 1 1.3 1.79c.32.74.15 1.43.05 2.24a.22.22 0 0 1-.22.2 4.95 4.95 0 0 1-2.4-5.6.17.17 0 0 1 .17-.09Z" fill="#E11A17"/><path d="M35.33 22.64a.05.05 0 0 1-.04.06h-.03A1.71 1.71 0 0 1 33 19.57a.1.1 0 0 1 .18-.09c.8.81 1.97 2.08 2.14 3.16Z" fill="#A71D1D"/><path d="M43.18 20.31a16.98 16.98 0 0 1-7.7 22.91 17.3 17.3 0 0 1-9.19 1.72l.62-.01h.02a.03.03 0 0 0 0-.04l-.01-.01a.32.32 0 0 0-.08-.03.09.09 0 0 1-.08-.06.1.1 0 0 1 0-.04c.04-.28.21-.5.51-.66.83-.1 1.83-.09 2.51-.2a16.9 16.9 0 0 0 7.41-2.84 16.62 16.62 0 0 0 5-5.92c.36-.7.6-1.34.7-1.9.41-1.14.67-2.16.79-3.07a17.3 17.3 0 0 0-.31-5.99 22.89 22.89 0 0 0-1.13-3.57.15.15 0 0 1 .05-.18c.05-.03.07-.07.07-.1a.12.12 0 0 1 .1-.13c.24-.02.48.02.72.12Z" fill="#9B0000"/><path d="M27.56 20.18a.04.04 0 0 1 .05-.02.04.04 0 0 1 .03.05c-.17 1.88-1.52 3.56-3.02 4.61a.14.14 0 0 1-.1.03.14.14 0 0 1-.1-.07c-.1-.18-.16-.4-.17-.68a.13.13 0 0 1 .09-.13h.05c.17.03.3 0 .43-.1a8.17 8.17 0 0 0 2.5-3.04c.04-.2.12-.42.24-.65ZM30.9 23.36c-.16-.51.47-1.55.82-2.07a.11.11 0 0 1 .13-.05.12.12 0 0 1 .08.1v.32c0 .1-.04.18-.1.25-.24.26-.42.53-.53.8a17.18 17.18 0 0 1-.32.68h-.03a.05.05 0 0 1-.04-.03Z" fill="#A71D1D"/><path d="M43.37 24.17c.45 2.04.56 4.04.3 6a16.05 16.05 0 0 1-11.5 13.01c-.92.28-2.2.46-3.86.54l-.48-.43A15.43 15.43 0 0 0 37.35 40a15.31 15.31 0 0 0 4.79-17.75c.16-.29.2-.62.13-1.01.44.93.8 1.91 1.1 2.93Z" fill="#FE8502"/><path d="M22.12 24.83c.07-1.05 1.1-2.34 1.8-3.18a.1.1 0 0 1 .16 0 .1.1 0 0 1 .02.06c0 .37-.17.73-.4 1.02a14.07 14.07 0 0 0-1.5 2.15.05.05 0 0 1-.07-.01.05.05 0 0 1-.01-.04Z" fill="#9B0000"/><path d="M42.14 22.25c2.5 6.39.6 13.5-4.8 17.75a15.43 15.43 0 0 1-9.51 3.3l-.91-.13a.07.07 0 0 1-.05-.04v-.06a54.11 54.11 0 0 1 4.42-6.6c.65-.83 1.5-1.31 2.58-1.44.63 2.1.22 3.88-1.23 5.35a.12.12 0 0 0 .14.19c.43-.22.84-.36 1.25-.63a8.88 8.88 0 0 0 2.75-2.95 10.96 10.96 0 0 0 1.32-4.5c.13-1.06-.13-2.35-.3-3.49a6.25 6.25 0 0 1 .79-3.25 16.57 16.57 0 0 1 3.2-4.05.07.07 0 0 1 .08.04l.27.5Z" fill="#FE6702"/><path d="M32.27 22.47c.58.96 1.28 2 2.1 3.1a8.3 8.3 0 0 1 1.16 2.12.15.15 0 0 0 .2.01c.09-.06.14-.17.15-.33a.04.04 0 0 1 .01-.03.03.03 0 0 1 .03 0h.06v.01a3.18 3.18 0 0 1-.32 1.18l-.04.01c-.02 0-.03 0-.04-.02a6.97 6.97 0 0 1-3.44-6.05l.03-.03a.08.08 0 0 1 .1.03ZM36.22 26.41l.02-.2.02-.03a.07.07 0 0 1 .04-.02.07.07 0 0 1 .07.03 16.99 16.99 0 0 1 1.29 3.32l-.03.03-.06.02a.04.04 0 0 1-.03 0 .04.04 0 0 1-.03-.02 16 16 0 0 0-1.24-2.86.43.43 0 0 1-.05-.27Z" fill="#A71D1D"/><path d="M20.76 27.43a.07.07 0 0 0-.13-.03c-.57.73-.94 1.81-1.31 2.66a.09.09 0 0 1-.12.05l-.11-.05a.05.05 0 0 1-.03-.03.05.05 0 0 1 0-.04l1.43-3.27a.13.13 0 0 1 .12-.07.12.12 0 0 1 .11.09c.21.74.55 1.33 1.03 1.76.05.05.09.11.12.18l.23.63a.08.08 0 0 1-.02.09.08.08 0 0 1-.09 0c-.74-.47-1-1.16-1.23-1.97Z" fill="#B80301"/><path d="M27.58 32.55a.21.21 0 0 1-.2-.24l.25-1.81a.3.3 0 0 1 .27-.27c.58-.06 1.53-.23 1.96.1.06.04.1.1.13.17.3.91-.05 1.9-1.1 1.99-.71.06-1.15.08-1.31.06Z" fill="#E11A17"/><path d="M27.93 31.39a.05.05 0 0 1-.06-.05v-.36c0-.12.02-.24.08-.33.06-.1.14-.15.23-.15l1.24-.03c.05 0 .09.01.13.03l.1.1c.04.05.06.1.08.16.02.05.03.12.03.18v.35a.05.05 0 0 1-.04.05l-1.8.05ZM34.34 31.58a.05.05 0 0 1 .06-.03c.02 0 .03.01.03.03l.01.04a4.33 4.33 0 0 1-1.06 2.18.26.26 0 0 1-.3.06l-.4-.18a.11.11 0 0 1-.06-.17 3.59 3.59 0 0 0 1.72-1.93ZM13.57 35.13a17.4 17.4 0 0 0 5.69 6.36c.65.45 1.34.82 2.07 1.13a22 22 0 0 0 3.28 1.16c.72.18 1.6.28 2.66.3-.3.16-.47.39-.5.67a.1.1 0 0 0 .03.1h.04c.03 0 .05.02.08.03a.03.03 0 0 1-.01.05l-.62.01a16.28 16.28 0 0 1-4.37-1 17.7 17.7 0 0 1-9.21-8.56l.86-.25Z" fill="#A71D1D"/><path d="M26.72 38.25a.14.14 0 0 1-.13-.15l.3-2.2a.23.23 0 0 1 .23-.19h2.02a.54.54 0 0 1 .51.39c.2.64.04 1.91-.8 2.05-.67.1-1.38.13-2.13.1Z" fill="#E11A17"/><path d="M27.26 36.91a.15.15 0 0 1-.17-.17l.08-.55a.21.21 0 0 1 .2-.18h1.7a.37.37 0 0 1 .38.37v.44a.1.1 0 0 1-.14.09c-.54-.21-1.45-.06-2.05 0Z" fill="#A71D1D"/></svg>