<svg width="112" height="112" xmlns="http://www.w3.org/2000/svg" viewBox="0 0 56 56"><path fill-rule="evenodd" d="M30 14a9 9 0 00-9 9v13h4v-6h7a4 4 0 010 8h-5v4h5a8 8 0 008-8c0-3-2-5.5-4-6 0 0 3-1.5 3-5.765A8.235 8.235 0 0030.765 14H30zm-.385 4A4.615 4.615 0 0025 22.615V26h6.308A3.692 3.692 0 0035 22.308 4.308 4.308 0 0030.692 18h-1.077z" fill="#fff"/><path fill="#fff" d="M11 26h14v4H11zm14.5 14a2.5 2.5 0 11-5 0 2.5 2.5 0 015 0z"/><defs><linearGradient id="paint0_linear" x1="10.418" y1="9.712" x2="68.147" y2="76.017" gradientUnits="userSpaceOnUse"><stop stop-color="#1A1E21"/><stop offset="1" stop-color="#06060A"/></linearGradient></defs></svg>