<svg width="112" height="112" viewBox="0 0 56 56" xmlns="http://www.w3.org/2000/svg"><rect fill="url(#ashcjgczb)" width="56" height="56" rx="28"/><path fill-rule="evenodd" d="M7 21h6.71a3.85 3.85 0 0 1 3.85 3.85 2.66 2.66 0 0 1-2.66 2.66h-.11A3.22 3.22 0 0 1 18 30.73 4.27 4.27 0 0 1 13.73 35H7V21Zm3 2h3a2 2 0 1 1 0 4h-3v-4Zm0 6h3a2 2 0 1 1 0 4h-3v-4Z" fill="#F0F3FA"/><path d="M19 21h4.04L33 35h-4.04L19 21Z" fill="#F0F3FA"/><path d="M32 21h-4.04L18 35h4.04L32 21ZM35 21h4.04L49 35h-4.04L35 21Z" fill="#F0F3FA"/><path d="M48 21h-4.04L34 35h4.04L48 21Z" fill="#F0F3FA"/><defs><linearGradient id="ashcjgczb" x1="56" y1="26.5" x2="0" y2="26" gradientUnits="userSpaceOnUse"><stop stop-color="#59B5F6"/><stop offset="1" stop-color="#1648C7"/></linearGradient></defs></svg>