<svg width="112" height="112" viewBox="0 0 56 56" xmlns="http://www.w3.org/2000/svg"><path d="M31 13H21v10c0 4.67 4.78 6.72 7 7h5v3h-5c-5.33 0-7.44 6.67-8 10h14.67C38 43 43 40.67 43 31.5c0-7.33-4.17-10.5-8.33-10.5H31v-8Z" fill="#fff"/><path d="M19.5 25c2.02 3.33 3.46 4.72 6.5 6.5-3.68 2.07-5.12 3.48-6.5 6.5-1.4-3.07-2.8-4.5-6.5-6.5 3.3-2.08 4.58-3.59 6.5-6.5Z" fill="#fff"/><defs><linearGradient id="a" x1="28" y1="0" x2="28" y2="56" gradientUnits="userSpaceOnUse"><stop stop-color="#03C9C9"/><stop offset="1" stop-color="#007EF7"/></linearGradient></defs></svg>