<!-- by TradingView --><svg width="56" height="56" viewBox="0 0 56 56" xmlns="http://www.w3.org/2000/svg"><path fill="url(#a)" d="M0 0h56v56H0z"/><path fill-rule="evenodd" d="M39.31 39.31A16 16 0 1 0 16.7 16.7 16 16 0 0 0 39.3 39.3ZM29.1 26.51c-.07 0-.1-.04-.1-.1V14.07a.08.08 0 0 1 .02-.05.07.07 0 0 1 .06-.02c2.27.17 4.37.85 6.32 2.04.03.02.03.04.02.07l-5.39 10.32a.13.13 0 0 1-.12.07h-.81ZM27 14.08v12.46c0 .05-.03.08-.08.09l-.86.1a.13.13 0 0 1-.15-.08l-5.35-10.51c-.02-.05-.01-.1.04-.12A13.95 13.95 0 0 1 26.9 14c.06 0 .1.03.1.09Zm-11.37 7.33c-.04.08-.03.14.04.2l7.46 5.71c.05.04.1.05.15.03l.77-.2a.07.07 0 0 0 .05-.05.07.07 0 0 0 0-.06l-5-9.82a.05.05 0 0 0-.03-.03h-.02l-.01.01a14.33 14.33 0 0 0-3.41 4.21Zm16.44 5.18h-.03l-.01-.03a.06.06 0 0 1 0-.05l4.83-9.25a.1.1 0 0 1 .06-.05.09.09 0 0 1 .08.02 14.12 14.12 0 0 1 3.37 4.17c.03.05.02.1-.03.12l-7.55 5.08a.2.2 0 0 1-.13.04l-.59-.05Zm3.7.36c2.08.22 4.14.58 6.15 1.02.05.01.08 0 .08-.07a14.37 14.37 0 0 0-.81-4.63.07.07 0 0 0-.08-.01l-5.36 3.6c-.07.05-.07.08.02.1ZM21.1 28.21a11.15 11.15 0 0 0-5.69 5.8.05.05 0 0 1-.05 0l-.02-.02a14.17 14.17 0 0 1-.54-10.66.05.05 0 0 1 .05.01l6.26 4.8c.04.03.04.05 0 .07Zm8.85 4.98c1.27-2.25 4.16-3.6 6.58-4.15.04-.01.05-.03.01-.07-.02-.02-.08-.04-.18-.05a69.2 69.2 0 0 0-5.68-.52c-5.76-.29-12.28 1.39-14.02 7.71-.01.05 0 .1.03.14a14.01 14.01 0 0 0 15.38 5.15.06.06 0 0 0 0-.08c-2.2-2.12-3.8-5.16-2.12-8.13Zm11.87-2.92a14.1 14.1 0 0 1-7.66 10.32.1.1 0 0 1-.13-.01 9.8 9.8 0 0 1-2.29-2.67c-2.08-3.57 1.37-5.9 4.34-6.81a21.6 21.6 0 0 1 5.72-.88.06.06 0 0 1 .02.05Z" fill="#fff"/><defs><linearGradient id="a" x1="44.7" y1="0" x2="8.93" y2="43.44" gradientUnits="userSpaceOnUse"><stop stop-color="#B406FE"/><stop offset=".51" stop-color="#6C49FF"/><stop offset="1" stop-color="#06A5FE"/></linearGradient></defs></svg>