<svg width="112" height="112" viewBox="0 0 56 56" xmlns="http://www.w3.org/2000/svg"><rect fill="#06311D" width="56" height="56" rx="28"/><path d="M39.5 14.76a7.17 7.17 0 0 1-2.32 2.53l-.78.96a4.4 4.4 0 0 1-.92.8 5.52 5.52 0 0 0-1.7 1.8c-.23.3-.52.49-.88.56a.22.22 0 0 0-.17.16c-.16.46.01.78-.04 1.2-.03.23-.12.36-.27.38a.79.79 0 0 0-.62.5c-.2.47-.55.84-1.07 1.08l-.61.12 1.35-.77c.16-.42.65-1 .66-1.43 0-.1-.03-.16-.09-.17l-1.07-1.8a1.76 1.76 0 0 0-.54-.66c.47.06.88.32 1.24.76.06.08.2.07.24-.03l.62-1.2a.49.49 0 0 0 .05-.22c0-.7-.35-.36-.4-.83-.02-.1 0-.18.04-.26.12-.22.19-.46.2-.72 0-.1.05-.17.13-.22.05-.05.1-.1.1-.14.07-.25.23-.56.47-.92.2-.29.41-.77.66-1.45.12-.33.48-.67 1.09-1.04 4.48-2.43 1.48 2.87 4.64 1Z" fill="#C37352"/><path d="m40.51 11-.5 2.8a.49.49 0 0 1-.1.22 2 2 0 0 0-.4.74c-.77.45-.9 1.1-1.63 1.44a.31.31 0 0 1-.23.01c-1.36-.45-2.33 1.06-.19-1.3.2-.21.15-.31-.14-.3-.97.06-.96 1.31-1.6 1.59-.08.03-.1 0-.07-.08.17-.4 2.75-4 .55-1.92a.55.55 0 0 0-.16.26c-.06.24-.18.47-.34.67a.52.52 0 0 0-.1.2 2.22 2.22 0 0 1-.97 1.36c-.15.1-.35.41-.6.93-.05.1-.1.18-.17.21a.5.5 0 0 1-.3.06c-.06 0-.1-.04-.1-.12-.07-1.06.49-1.45.67-2.32.1-.47.19-.77.25-.88.14-.28.3-.55.49-.82.39-.27.72-.62.98-1.03l.4-.24c.12-.08.16-.05.12.09-1.05 3.03.1 1.3.33.24a.33.33 0 0 1 .17-.23c.27-.13.47-.32.61-.57a.47.47 0 0 1 .54-.23c.27.08.57.01.88-.2.44-.05.6-.18.51-.38a3 3 0 0 1 1.1-.2Z" fill="#F6AE7C"/><path d="M38.9 11.58c-.31.21-.6.28-.88.2a.47.47 0 0 0-.54.23c-.14.25-.34.44-.6.57a.34.34 0 0 0-.18.23c-.12.54-.36 1-.75 1.38-.08.08-.16.09-.25.04l-.07-.04a.08.08 0 0 1-.03-.05.08.08 0 0 1 0-.06c.33-.47.58-.97.77-1.51.04-.14 0-.17-.12-.1l-.4.25c.19-.19.24-.3.17-.33a7.5 7.5 0 0 1 2.88-.81Z" fill="#C37352"/><path d="m16.43 14.17.69.54-1.63-.67c-.4-.17-.49-.07-.24.3l.1.28c.02.05 0 .08-.04.1-.14.06-.2.15-.17.28 0 .08.03.15.07.22l.41.7c.04.07.1.12.17.16.17.1.28.21.35.36a.5.5 0 0 1-.22-.05.37.37 0 0 1-.18-.17.3.3 0 0 0-.23-.18.3.3 0 0 1-.2-.12l-.7-.9c-.6-.73-2.41-.64-3.06-1.63l-.54-1.4a.19.19 0 0 1 .23-.25c.87.24 1.66.6 2.37 1.04.36.23.95.36 1.32.78a.5.5 0 0 0 .21.14l1.29.47Z" fill="#5D373D"/><path d="M36.02 12.39c.07.03.02.14-.17.33-.26.41-.6.76-.98 1.03-.6.37-.97.71-1.09 1.04a7.26 7.26 0 0 1-.66 1.45c-.24.36-.4.67-.47.92-.19.72-.07 1.36-.07 2.17 0 .08-.01.15-.05.22l-.62 1.2c-.06.12-.15.07-.24.03-.36-.44-.77-.7-1.24-.76-.45-.18-.77-.4-.96-.7.5-.08.87.06 1.08.4.06.08.13.14.22.16a1 1 0 0 1 .39.22c.12.1.32.06.38-.1.38-1.02.68-2.04.9-3.07.24-1.16 1.26-2.12 1.86-3.13.24-.4.8-.87 1.72-1.41Z" fill="#984E3A"/><path d="M11.55 13.4c.65.98 2.47.89 3.06 1.62 1.14 1.4 1.62 1.45 3.5 1.98 1.04 1.52 2.1 1.8 2.76 3.16.26.52.96.96 1.08.94l.1-.01c.06.22.06.47.02.75l-.51.7c-.21-.44-.69-.5-.83-.93a.28.28 0 0 0-.16-.18l-3.82-1.72v-.22c0-.1.06-.15.16-.15h.34c.11 0 .12-.03.02-.1l-.51-.34a.57.57 0 0 0-.19-.09c-.48-.1-.5-.54-.85-.72-.59-.3-1-.75-1.23-1.36a.5.5 0 0 0-.19-.24c-.97-.67-1.23-1.41-2.14-2.06a1.5 1.5 0 0 1-.61-1.04Z" fill="#552526"/><path d="m17.12 14.7.4.34c-.2-.04-.34-.02-.41.05a.14.14 0 0 0-.04.09c0 .03 0 .06.02.09 1.08 1.65.64.62 1.69 2.43-.8-.78-1.82-.67-2.64-1.26-.11-.25-.39-.3-.52-.52-.39-.67-.7-.84-.82-1.21-.05-.16.47-.34.45-.37-.25-.37-.16-.47.24-.3l1.63.67Z" fill="#825052"/><path d="M17.52 15.04a5.42 5.42 0 0 1 2.45 2.05c.2.1.23-.2.37-.25a.18.18 0 0 1 .12 0c.19.06.31.2.38.39.2.56.44 1.1.74 1.63l.43 1.24c.11.27.09.48-.07.61-.34-.35-.63-.8-.85-1.31a.4.4 0 0 0-.14-.18l-2.17-1.52a2.3 2.3 0 0 0-.92-.93c-.16-.08-.19-.61-.77-1.5a.14.14 0 0 1 .02-.17c.07-.08.2-.1.4-.06Z" fill="#B6756E"/><path d="m18.78 17.7 2.17 1.52c.06.05.11.1.14.18.22.52.5.96.85 1.31.21.08.25.2.12.38l-.11.01a.22.22 0 0 0-.2.18c-.04.17-.1.58-.39.42a.22.22 0 0 1-.09-.1c-.24-.5-1.28-.76-1.7-1.14a31.4 31.4 0 0 1-1.65-1.27c-.1-.09-.07-.32.1-.26.1.03 1.2-.04.75-.28a5.14 5.14 0 0 1-1.87-1.66c0-.05.03-.09.07-.1.06-.02.1 0 .12.07.03.1.1.13.22.1.43-.1.92.12 1.47.64Z" fill="#8E3623"/><path d="M29.47 19.31c.2.3.51.53.96.7.3.28.49.5.54.66-.33.95-2.49.26-3.37 1.08-.1-.29-.55-.8-.87-.43a.37.37 0 0 1-.59-.05c-.63-1.13-1.44-.54-2.25-.34l-.35-.08c-.07-.02-.1-.06-.09-.14l.08-.37c.65-.27 1.32-.48 2.03-.64.23-.06.38-.29.63-.34l1.02-.18a2.73 2.73 0 0 1 2.26.13Z" fill="#D6B8AB"/><path d="m27.2 19.18-1 .18a.7.7 0 0 0-.24.1c-.08.04-.15.1-.21.14a.46.46 0 0 1-.2.1c-.7.16-1.37.37-2.02.64-.46.09-.73.32-.83.68a.38.38 0 0 1-.13.2c-.21.17-.38.37-.5.62.04-.28.04-.53-.01-.75.13-.17.1-.3-.12-.38.16-.13.18-.34.07-.61.08.13.18.23.3.3.08.06.17.07.27.04l1.85-.71c.09-.04.15-.1.18-.18.08-.2.25-.3.49-.31.7-.04 1.4-.06 2.1-.06Z" fill="#5E6762"/><path d="m23.45 20.3.2.22c-.01.07-.18.31-.1.33l.34.08a5.1 5.1 0 0 0 0 1.38l-.79.24a.12.12 0 0 1-.08.03c-.74.04-1.04.72-.9 1.5v.37a1.16 1.16 0 0 0-.72-.29c-.11 0-.18-.03-.23-.08a.87.87 0 0 1-.14-.22c-.02-.33.06-.64.25-.93l.28-.39c.44-.61 1.13-2.1 1.9-2.24Z" fill="#668E8E"/><path d="M27.36 21.18c1.82 5.03 3.4-2.93 4.9 1.27-.01.06-.09.54-.13.6-.24.4-.5.6-.67 1.03l-1.5.47a.8.8 0 0 1-.25.04c-.63 0-1.41.2-2.07-.25a.38.38 0 0 0-.23-.06c-.35 0-.57-.11-.68-.36-.11-.23-2.43-2.04-2.84-2.85-.01-.02-.01-.06 0-.14.81-.2 1.62-.79 2.25.34a.36.36 0 0 0 .6.05c.3-.38.52-.43.62-.14Z" fill="#D2A287"/><path d="m30.97 20.67 1.07 1.8c-.05.03-.12.03-.12.1.11 1.05-1.21 1.68-2.04 1.7-.52.02-1.04.04-1.55.09-.32.02-.67-.3-1-.38a.48.48 0 0 1-.26-.77c.48-.57.58-1.25.3-2.03.15-.15.28-.24.4-.27.1-.02.16.02.14.13.18.97-.14-.45.8-.3.12-.02-.87 4.79 1.5-.02a.13.13 0 0 1 .04-.05h.72Z" fill="#F0BC9A"/><path d="M30.2 20.9c.07.22.1.44.07.67 0 .09.01.17.05.25.24.49.24.95 0 1.38a.3.3 0 0 1-.18.15c-.44.11-.53-.38-.7-.28-.28.17-.58.2-.87.09a.21.21 0 0 1-.15-.22l.01-.47c0-.1-.02-.19-.07-.26-.28-.41-.28-.8.02-1.16.07-.05 1.16-.43 1.26-.33.13.12.31.19.56.19Z" fill="#F7D3BA"/><path d="m33.78 20.86-.56 1.82a.43.43 0 0 1-.14.21c-.2.17-.48.25-.58.48-.07.16-.05.32.06.5l.1.07.34.17c-.37.07-.81-.17-1.13.17-.06.07-.07.13-.02.2.12.21.26.41.4.6.2.27.2.4-.02.35l-.4-.44c-.6-.22-1.08-.04-1.44.52.01-.17-.08-.23-.28-.18.11-.25.32-.45.62-.6.52-.24.88-.6 1.07-1.08a.78.78 0 0 1 .62-.5c.15-.02.24-.15.27-.39.05-.4-.12-.73.04-1.2a.22.22 0 0 1 .17-.15c.36-.07.65-.26.88-.55Z" fill="#3F2F28"/><path d="M23.89 21.07c.2 0 .32.08.38.22.02.06.06.11.1.16.7.6.44.58 1.2 1.1.22.15.3.42.52.56.26.16.47.43.64.81.1.25.34.37.68.36.08 0 .16.02.23.06.66.44 1.44.25 2.07.25a.8.8 0 0 0 .25-.04l1.5-.47-1.34.77c-.89.56-2.19.72-3.08.1-1.06-.71-.47-.96-1.5-.55-.35.14-1.24-.3-1.27-.48-.02-.08 0-.54-.06-.6l-.6-.73-.16-.34c-.07-.14 0-.3.22-.49.06-.05.1-.12.12-.2l.1-.5Z" fill="#CA8A6C"/><path d="m23.45 22.25.16.34c-.43.35-.25.89 0 1.24.04.06.07.12.08.2l.23 1.03c-.42-.42-1.44-.36-2-.67-.12-.7.17-1.5.86-1.83.05-.03.1-.02.15 0 .03.02.05.03.09.02.03 0 .06 0 .08-.03l.35-.3Z" fill="#97634F"/><path d="m30.12 24.85-2.13 1.68a.33.33 0 0 1-.2.07c-.37 0-.93.12-1.27-.06-.36-.19-.82-.35-1.36-.47-.46-.1-.88-.44-1.24-1l-.23-1.05c-.01-.07-.28-.25-.32-.3-.25-.36-.1-1.04.32-1.4.48.58.9 1.84 1.62 2.09a.3.3 0 0 0 .23 0c.2-.09.38-.2.53-.34.07-.07.45-.1.45 0 .03.3.23.7.52.89.9.6 2.2.45 3.08-.11Z" fill="#C37352"/><path d="m21.03 23.86.14.22c.04.05.12.07.23.08.3.02.53.12.72.29l.1.11c.02.04.06.06.1.08.91.35 1.22.94 1.93 1.38.34.21.58.37.7.47.72.56 1.52.48 2.35.55-1.13.35-2.13.2-3-.44-1.07-.77-1.82-1.54-3.24-2.38l-.03-.36Z" fill="#3F2F28"/><path d="m21.93 24.1.92.51c.07.05.15.07.24.06.28-.01.55.12.83.4.36.56.78.9 1.24 1 .54.12 1 .28 1.36.47.07.04.15.06.23.06h1.03c.08 0 .15-.03.2-.07l2.14-1.68.61-.12c-.3.15-.5.35-.62.6a6.1 6.1 0 0 1-2.81 1.71c-.83-.07-1.63.01-2.34-.55a9.4 9.4 0 0 0-.71-.47c-.7-.44-1.02-1.03-1.92-1.38a.31.31 0 0 1-.12-.08 3.43 3.43 0 0 1-.09-.11l-.19-.35Z" fill="#984E3A"/><path d="m33 24.11.21.07c-.32-.04-.52 0-.6.1a44.85 44.85 0 0 1 4.59 7.64c.03.08.04.16.03.25-.06.41-.04.79.08 1.12.15.43.66.75.99 1.08.05.06.05.11-.01.17-.23.18-.4.18-.5 0l-.84-1.37a.44.44 0 0 1-.07-.24l.01-.62a.26.26 0 0 0-.26-.26.25.25 0 0 0-.13.04c-.61.39-1.28.49-1.99.3a.33.33 0 0 1-.17-.12c-.35-.44-1.64-1.48-1.82-2-.1-.3-.21-.56-.32-.75a4.25 4.25 0 0 0-.58-.55c-.33-.3-.36-.67-.08-1.12.04-.06.03-.11-.04-.14l-.26-.1a.42.42 0 0 0-.02-.04l.26-.26.04.06c.03.06.08.08.14.05.77-.29.96-.95.57-1.99.22.04.23-.08.02-.35-.14-.19-.28-.39-.4-.6-.05-.07-.04-.13.02-.2.32-.34.76-.1 1.13-.17Z" fill="#C37352"/><path d="M21.06 24.22c1.42.84 2.17 1.6 3.23 2.38.88.64 1.88.79 3 .44a6.1 6.1 0 0 0 2.82-1.71c.2-.05.3.01.28.18-.24.17-.43.36-.56.58-.06.1-.04.14.06.16.25.05.44.18.57.38a.34.34 0 0 1-.09.46c-.3.22-.9.55-1.01.5l-.14-.08c-.08-.03-.35.17-.43.18-1.11.04-1.91-.42-3.03-.03-.67.23-1 .74-1.85.95-.14.03-.24.02-.3-.04a.15.15 0 0 1-.03-.21c.1-.1.12-.2.08-.26.07-.24-.07-.38-.44-.44a.34.34 0 0 1-.13-.62c.12-.07.31-.29.12-.4a.4.4 0 0 0-.15-.04l-1.16-1.02c-.27-.24-.91-.56-1.1-.87-.2-.36-.12-.52.26-.5Z" fill="#040808"/><path d="M32.6 24.28c2.26 1.16 5.02 6.38 5.56 9.36.09.02.16.06.21.13l.55.64c.04.04.03.07-.02.08l-.44.13-.02.04-.65.07a.37.37 0 0 0-.29.18l-.06.1c-.09.17-.04.24.14.21.26-.03.5 0 .74.1a.18.18 0 0 1 .1.21c0 .03-.02.05-.03.08a.58.58 0 0 0-.14.5c.01.08.06.15.15.18l.83.27a.2.2 0 0 1 .12.1c.03.05.07.08.13.09.15.02.46.01.93-.01.97-.06 1.47-.28 1.47-.66.19.65.15 1.16-.1 1.52l-2-.32a.45.45 0 0 0-.24.03c-.35.13-.7.19-1.06.15-.05-.03-.06-.1-.05-.2.16-.19.38-.32.65-.4.03-.02.05-.03.06-.06a.1.1 0 0 0 0-.07c-.02-.07-.07-.1-.14-.1-.41 0-.99.1-1.28-.27a.28.28 0 0 1 .07-.4l.27-.18a.12.12 0 0 0 .06-.1.13.13 0 0 0-.04-.1.31.31 0 0 0-.19-.08c-.43-.05-.56.48-1.24.18a.1.1 0 0 1-.06-.08.1.1 0 0 1 .04-.1l.67-.62.48-.34c.11.18.28.18.5 0 .07-.06.07-.11.02-.17-.33-.33-.84-.65-.99-1.07a2.29 2.29 0 0 1-.08-1.13c.06-.38-.39-.65-.7-.42l-.42.3a.45.45 0 0 1-.27.1H34.8a.3.3 0 0 1-.24-.12l-.98-1.22a.31.31 0 0 1-.06-.15 1.5 1.5 0 0 0-.57-1.03.42.42 0 0 1-.15-.23c-.05-.22-.16-.4-.31-.57a.27.27 0 0 1-.07-.23 2.4 2.4 0 0 0-.09-1.07.2.2 0 0 1 .1-.23l.46-.2c.08-.04.12-.1.1-.2a2.4 2.4 0 0 0-.2-.73c-.14-.3-.17-.63-.12-1.01a.24.24 0 0 0-.06-.22c-.32-.32-.5-.66 0-.66Z" fill="#CA8A6C"/><path d="m33.21 24.18.92.33c1.66 3.05 3.24 5.64 3.3 6.46.03.7.2 1.37.48 2 .03.08.1.13.17.16l1.19.34c.1.02.18.09.24.18l.73 1.21c.04.07.1.12.17.15.4.18.74.14 1.02-.1.24.26.39.65.45 1.17 0 .38-.5.6-1.47.66-.47.02-.78.03-.93 0-1.35-.15-1.32-1-1.9-1.52-.18.03-.23-.04-.14-.2.08-.14.17-.27.35-.3.9-.1.9-.17 1.1-.23.06-.01.07-.04.03-.08l-.55-.64a.36.36 0 0 0-.21-.13c-1-.19-.75-1.7-.82-2.35a.17.17 0 0 0-.16-.15c-.83-.01-.88 1.13-1.76.33a.63.63 0 0 0-.36-.16c-.93-.85-2.5-2.34-2.16-3.52.1-.36.3-.65.28-1.02l-.09-1.65a.23.23 0 0 0-.13-.2c-.3-.14-.42-.36-.35-.64.08-.1.28-.14.6-.1Z" fill="#F6AE7C"/><path d="M34.13 24.5c.1.03.2.07.27.13-.1.02 1.12 2.53 2.93 4.86.1-.01.16-.06.18-.17l.02-.24c0 .16.03.28.09.36-.01.38 0 .76.03 1.14.17 2 2.5 2.02 3.14 3.62a.5.5 0 0 0 .14.2l.48.4.02.1c-.28.25-.62.29-1.02.1a.37.37 0 0 1-.17-.14c-.73-1.21-.82-1.35-2.16-1.73a.25.25 0 0 1-.17-.15 5.65 5.65 0 0 1-.49-2c0-.1-.05-.15-.14-.15-1.09-.09-1.6.27-2.57-.45a.48.48 0 0 0-.23-.09c-.22-.02-.37-.2-.45-.5a7.19 7.19 0 0 1-.27-2.48c.08-.83-.08-1.41-.18-2.17-.03-.22-.14-.35-.32-.41-.06-.03-.09-.07-.08-.13 0-.04.02-.07.05-.1a24.37 24.37 0 0 1 .9 0Z" fill="#FCCC9E"/><path d="M34.4 24.63c1.37.27 1.83 1.6 2.48 2.57.4.62.51 1.19.65 1.88l-.02.24c-.02.1-.07.16-.18.17l-1.33.05a.75.75 0 0 1-.78-.76c.02-.74.14-1.44-.45-2.13a.37.37 0 0 1-.1-.24 1.9 1.9 0 0 0-.74-1.52.12.12 0 0 1 .06-.2l.41-.06Z" fill="#FEEBCC"/><path d="M31.82 25c-.5-.1-.77.11-.8.66-.01.1.37.22.41.31.25.53.25.61.05 1.34l-.26.26-.3.16c-.2 0-.41 0-.61.02-.69.03-.9-.22-.66-.76.77.61 1.28-.53.24-.74-.1-.02-.12-.07-.06-.16.13-.22.32-.41.56-.58.36-.56.84-.74 1.43-.52Z" fill="#668E8E"/><path d="m31.82 25 .41.43c.4 1.04.2 1.7-.57 2-.06.02-.11 0-.14-.06l-.04-.06c.15-.55.07-.93-.23-1.15a.57.57 0 0 1-.24-.5c.04-.55.31-.77.81-.67Z" fill="#F7F2ED"/><path d="M20.76 26.67c-.86-.02-1.22 1.01-1.48 1.66-.38.2-.63.48-.73.84-.02.08-.08.13-.17.13a.14.14 0 0 0-.06.03c-.06.04-.1.1-.1.17-.12 1.08-.05 1.23.5 2.13.19.33.19.73.5 1.02.07.14.04.25-.08.32a.24.24 0 0 1-.11.03h-.11a.38.38 0 0 0-.17.04c-.51.29-.96.7-1.34 1.22-.11.17-.24.17-.36 0-.06-.07-.06-.16 0-.26.43-.54.93-.97 1.48-1.3a.2.2 0 0 0 .11-.18c0-.13-.07-.23-.2-.3a.52.52 0 0 0-.1-.01c-.1-.02-.17-.16-.2-.44-.5-1.12-.76-2.52.04-3.58a6.7 6.7 0 0 1 1.87-1.79c.47-.26.78-.58.94-.93a.2.2 0 0 1 .17-.13c.08 0 .13.02.14.1.06.55-.11.97-.54 1.23Z" fill="#028AA4"/><path d="M23.06 26.6a.4.4 0 0 1 .15.05c.08.04.1.1.06.19-.07.15-.24.2-.3.35-.1.2.04.44.25.47.37.06.51.2.44.44-.27.59-1.2.04-1.68.1-.46.04-.7-.19-.7-.7-.1-.4-.05-.79.14-1.14.09-.16.2-.24.32-.23.14 0 .27.1.4.28.07.1.18.17.31.17l.61.02Z" fill="#136875"/><path d="M20.76 26.67c-.05.02-.08.05-.09.07a.18.18 0 0 0-.02.11c.07.38 1.94 1.63 3.01 1.25.04.07.01.15-.08.26a.14.14 0 0 0-.03.05c-.02.05 0 .12.05.16.07.06.17.07.3.04.87-.21 1.1-.82 1.76-1.06.43-.15.87-.2 1.33-.16.08.01.16 0 .23-.04.58-.28 1.15.13 1.76.11.09 0 .16.02.24.05l.14.07c.08.05.1.03.06-.06a.66.66 0 0 1-.02-.59c.04-.1.11-.12.2-.08.07.02.08.07.05.14-.25.54-.03.79.66.76l.6-.02-.19.33c-.04.07-.1.11-.18.12-1.43.22 1.15 3.66-3.32 4.26-1.85-3.1-1.73-.26-3.64-.53-.1-.01-.62-.75-.7-.68l-.86.85c-.15.15-1.75 0-2.34 0l-.43-.85c-.02 0-.08-.04-.16-.1-.13-.3-.25-.62-.37-.94-.2-.58.5-1.24.56-1.86.26-.65.62-1.68 1.48-1.66Z" fill="#3F2F28"/><path d="m29.2 28.4.15.2.66.72c.07.07.07.15.02.23l-.16.23c-.06.1-.14.12-.24.1-.84-.23-1.79-.35-2.1.7-.23.07-.42.08-.57.02a.18.18 0 0 1-.12-.18c-.02-.75.28-1.34.9-1.75a.27.27 0 0 0-.08-.48c-.32-.09-.56-.01-.73.23a.22.22 0 0 1-.22.1c-.72-.1-1.01-.38-.88-.87l1.25-.16c.96-.1 1.4.45 2.12.91Z" fill="#D2A287"/><path d="m31.22 27.57.02.05c-.05.25-.16.45-.32.59a.4.4 0 0 1-.2.1.37.37 0 0 0-.3.23.18.18 0 0 0 .09.24l.9.37c.08.03.12.08.13.16.01.14.04.27.14.39.22.25.45.63.7 1.13.19.41.72.53.96.9.13.17.23.37.3.57.03.08.08.14.15.18 1.05.67 1.76.16 2.75-.03.1-.01.14.02.14.12 0 .67-.12 1.3.62 1.73.04.02.06.05.08.08a.2.2 0 0 1 .03.11 1 1 0 0 1-.11.4l-.67.62a.1.1 0 0 0-.04.1.1.1 0 0 0 .06.07c.68.3.81-.23 1.24-.18.07 0 .13.03.19.08a.13.13 0 0 1 .04.1.12.12 0 0 1-.06.1l-.27.18a.28.28 0 0 0-.07.4c.3.38.87.27 1.28.27.07 0 .12.03.14.1a.1.1 0 0 1 0 .07c-.01.03-.03.04-.06.05-.27.09-.49.22-.65.4-.01-.05 0-.12.02-.2.03-.13-.02-.18-.15-.15l-.14.03a.32.32 0 0 1-.23-.02c-.33-.17-.46-.45-.4-.83.02-.1-.02-.14-.12-.12-.28.07-.54.08-.8.03 0-.03-.04-.05-.1-.08l.03-.36c0-.1.04-.18.09-.25.12-.18.26-.32.43-.44.1-.06.1-.13.02-.2a.52.52 0 0 0-.37-.14.34.34 0 0 1-.33-.23 2.14 2.14 0 0 1-.02-1.3.23.23 0 0 0-.06-.22.22.22 0 0 0-.23-.05c-.9.34-1.84.45-2.8.35a.69.69 0 0 1-.61-.69v-.8c0-.1-.03-.2-.09-.27a5.36 5.36 0 0 0-1.38-1.41.42.42 0 0 0-.6.12.41.41 0 0 0-.06.22c0 .24.05.46.15.65.04.07.04.14.02.22-.04.14-.13.2-.26.22-.28.02-.48-.3-.6-.52.19.07.32.06.42-.02a.2.2 0 0 0 .06-.22c-.12-.4-.08-.75.12-1.07.07-.13.04-.19-.1-.2a.56.56 0 0 1-.55-.37.32.32 0 0 0-.16-.18l-.28-.14-.15-.21c.65.46.8-.14 1.34-.22a.23.23 0 0 0 .18-.12l.2-.33.3-.16ZM24.23 28.62c-.4.33-.64.77-.7 1.29 0 .1.04.14.14.1.76-.24 1.6-.81 2.1.22.1.21.24.4.4.57-.7-.03-.48-1.03-1.44-.82-.09.02-.27.13-.53.33-.77.6-1.6-.21-2.38.65-.08.08-.85.13-.88.12-.8-.3-1.03-.31-1.7-.9a.53.53 0 0 1-.13-.64c.27-.55.38-1.17.66-1.73.04-.07.1-.13.16-.18.55-.33.97.74 1.52.77.46.03.91.09 1.36.19.09.01.18.01.26-.01.12-.03.22 0 .28.1.05.07.11.12.2.13.2.05.42-.01.68-.2Z" fill="#774A3A"/><path d="M25.83 27.65c-.13.49.16.77.88.86.1.01.17-.02.22-.1.17-.23.41-.3.73-.22a.27.27 0 0 1 .08.48c-.62.41-.92 1-.9 1.75 0 .09.04.15.12.18.15.06.34.05.58-.02.01.02.03.05.07.07l-.27.27-1.16-.12c-.18-.17-.31-.36-.41-.57-.5-1.03-1.34-.46-2.1-.22-.1.04-.14 0-.13-.1.05-.52.28-.96.7-1.3l.67-.3a.37.37 0 0 0 .17-.16.88.88 0 0 1 .75-.5Z" fill="#97634F"/><path d="m31.24 27.62.26.1c.07.02.08.07.04.13-.28.45-.25.82.08 1.12.35.3.54.48.58.55.1.2.22.44.32.74.06.18.21.3.45.38.07.02.13.06.18.12l1.2 1.51c.04.06.1.1.16.12.71.19 1.38.09 2-.3a.25.25 0 0 1 .25 0 .26.26 0 0 1 .13.22v.62c0 .08.01.16.06.24l.83 1.37-.48.34a1 1 0 0 0 .11-.39.2.2 0 0 0-.03-.1.21.21 0 0 0-.08-.09c-.74-.42-.62-1.06-.62-1.73 0-.1-.05-.13-.14-.12-.99.18-1.7.7-2.75.03a.36.36 0 0 1-.15-.17 2.5 2.5 0 0 0-.3-.59c-.24-.36-.77-.48-.97-.89a5.3 5.3 0 0 0-.69-1.13.67.67 0 0 1-.14-.4.19.19 0 0 0-.12-.15l-.91-.37a.18.18 0 0 1-.1-.24c.06-.13.16-.2.3-.23a.4.4 0 0 0 .21-.1c.16-.14.27-.34.32-.6Z" fill="#984E3A"/><path d="M19.28 28.33c-.03.31-.13.62-.28.92-.19.35-.19.43 0 .95.11.32-.04.62.1.93-.05.17-.06.34-.05.5.03.34.3.55.25.99l-.07.03a5.6 5.6 0 0 1-.86-1.13c-.7-1.15-.42-2.52.91-3.19Z" fill="#136875"/><path d="m29.35 28.6.28.15c.08.04.13.1.16.18.1.24.28.37.55.38.14 0 .17.06.1.19-.2.32-.24.68-.12 1.07a.2.2 0 0 1-.06.22c-.1.08-.23.09-.42.02a3.13 3.13 0 0 0-1.1-.85.46.46 0 0 0-.58.2.45.45 0 0 0-.05.2l-.01.37c0 .05-.03.09-.08.1a.19.19 0 0 0-.08.02c-.06-.23-.17-.29-.33-.2a.22.22 0 0 1-.07-.07c.3-1.05 1.25-.93 2.09-.7.1.02.18 0 .24-.1l.16-.23c.05-.08.05-.16-.02-.23l-.66-.71Z" fill="#984E3A"/><path d="M36.51 35.91c-.18-.17-.15-.45.08-.83a.3.3 0 0 0-.12-.42c-.5-.25-.71-.66-.63-1.22a.18.18 0 0 0-.13-.2h-.08l-1.87.41c-.53.13-1.03.34-1.52.65l-1.51.96a.61.61 0 0 1-.39.11c.78-.56 1.31-1.2 1.6-1.96a.48.48 0 0 0-.16-.55c-.18-.13-.36-.15-.53-.07a.2.2 0 0 0-.12.22c.03.28-.1.46-.37.55a.3.3 0 0 0-.17.14l-.6 1.06c-.44.22-.74-.13-.88-1.06-.01-.08-.05-.1-.11-.04l-.07.05a.36.36 0 0 1-.03-.23c0-.1.03-.2.1-.25.03 0 .06 0 .1.03a26.45 26.45 0 0 0 .45 1.34.22.22 0 0 0 .4.04c.43-.81.64-1.57.26-2.45-.4-.92-.5-1.8-1.71-1.96-.05 0-.1 0-.13.02a.22.22 0 0 0-.1.1c-.08.15-.08.37.02.65-.05.07-.1.1-.16.08-.12-.05-.19-.12-.19-.23a.19.19 0 0 1 .08-.03c.05 0 .08-.04.08-.1v-.36a.45.45 0 0 1 .43-.44c.07 0 .15.01.21.04.41.19.78.47 1.1.85.12.22.32.54.6.52.13-.01.22-.08.26-.22a.27.27 0 0 0-.02-.22c-.1-.2-.15-.41-.15-.65a.41.41 0 0 1 .45-.41c.07 0 .14.03.2.07.55.38 1.01.85 1.4 1.4.05.09.08.18.08.28v.8a.7.7 0 0 0 .6.69c.97.1 1.9-.01 2.81-.35a.22.22 0 0 1 .3.15V33c-.14.44-.13.87.01 1.3a.33.33 0 0 0 .33.23c.14 0 .26.04.37.14.08.07.08.14-.02.2a1.6 1.6 0 0 0-.43.44.51.51 0 0 0-.09.25l-.03.36Z" fill="#603024"/><path d="m25.24 30.35-.16.01c-.09.01-.13.06-.15.14-.1.6-.11 1.2-.01 1.8 1.1 1.86.47 1.32 1.14 3.13l.23.62a.33.33 0 0 0 .17.18c.31.14.65.2 1.02.17-1.22.26-1.93-.25-2.9-.7-.29-.14-1.03.29-1.33.17a6.55 6.55 0 0 1-4-4.64l.38-.01c.1 0 .16.03.21.1.16.26.4.38.69.36.07 0 .14.02.19.08.83.81 1.47.15 2.17-.53.07-.07.16-.1.26-.08.33.05 1.4.11 1.5-.37l.09-.4c.01-.1.07-.16.15-.2.14-.05.25 0 .35.17Z" fill="#311E1B"/><path d="M29 33.23v-.07c.02-.02.03-.03.05-.03.1 0 .2-.01.23.1a5.48 5.48 0 0 0-.99-2.23c-.1-.28-.1-.5-.01-.66a.22.22 0 0 1 .22-.11c1.21.16 1.31 1.04 1.71 1.96.38.88.17 1.64-.26 2.45a.22.22 0 0 1-.4-.03 26.33 26.33 0 0 1-.45-1.35c-.04-.02-.07-.04-.1-.03Z" fill="#552526"/><path d="M25.24 30.35c.6.54 1.27 1.12 2.1.57l.27-.27c.16-.09.27-.02.33.2 0 .1.07.18.2.23.05.02.1-.01.15-.08l.04-.48a.14.14 0 0 1 .06-.1.15.15 0 0 1 .11-.03c1.18.15 1.18.94 1.26 1.9 0 .05.02.1.05.14.2.35.27.72.2 1.1-.05.25-.29.4-.51.29a.25.25 0 0 1-.15-.2l-.07-.39c-.02-.06-.06-.1-.13-.1h-.1c-.02 0-.03 0-.04.03l-.01.07c-.07.06-.1.14-.1.26l-.04.1a.18.18 0 0 1-.31.03l-.5-.7a.58.58 0 0 0-.95.02c-.13.18-.22.4-.26.64a.26.26 0 0 1-.24.21c-.27.03-.53-.03-.77-.15-.04-.03-.06-.01-.07.04l-.03 1c-.03.19-.11.29-.25.3-.07.02-.14 0-.23-.07l-.18-.15.12-.53a.3.3 0 0 0-.04-.23.42.42 0 0 0-.2-.16.17.17 0 0 1-.09-.08.16.16 0 0 1-.02-.1c.1-.52.16-.82.08-1.36-.1-.6-.1-1.2.01-1.8.02-.08.07-.13.15-.14l.16-.01Z" fill="#0D0101"/><path d="m19.23 32.65.07-.03.55.7c.06.06.06.14 0 .21-.17.2-.3.2-.41 0-.45 0-.78.18-1 .56a.17.17 0 0 0 .01.22c.29.35.3.98.52 1.4.31.55-.18 1.56-.23 2.18-.08 1.14-1.23.9-2.06.79-.07-.01-.07-.08-.11-.12-.83-.93-2.08-1.19-1.61-2.9l.43-.6L17.05 34c-.06.1-.06.19 0 .26.12.17.25.17.36 0 .38-.53.83-.93 1.34-1.22.12-.06.27 0 .4-.07.1-.07.14-.18.08-.32Z" fill="#0F2831"/><path d="M28.9 33.49c-.01.09 0 .16.03.22l.03.15a.4.4 0 0 1-.73.3l-.33-.45a.33.33 0 0 0-.59.13c-.09.43-.23.68-.41.74-.54.09-.85-.12-.93-.62 0-.09-.19.48-.24.73l.02-.5.01-.51c0-.05.03-.07.07-.04.24.12.5.18.77.15a.26.26 0 0 0 .24-.2c.04-.25.13-.47.26-.65.23-.32.71-.32.94-.01l.5.69.08.06c.15.07.23-.08.28-.2Z" fill="#552526"/><path d="m30.34 35.37-.84.62c-.56 0-1.08-.03-1.57-.09-.37-.04-.6-.3-1-.32-.1 0-.15-.06-.15-.17v-.11c0-.14.07-.2.2-.18.14.02.31 0 .5-.07.35-.06.68-.03.99.1.32.13.95.18 1.25 0 .2-.12.28-.25.28-.39l.59-1.06a.3.3 0 0 1 .17-.14c.27-.09.4-.27.37-.55 0-.1.04-.17.12-.22.17-.08.35-.06.53.07a.47.47 0 0 1 .16.55c-.29.75-.82 1.4-1.6 1.96Z" fill="#984E3A"/><path d="m25.07 34.76.18.15c.09.06.16.09.23.08.14-.02.22-.12.25-.3.05-.25-.01-1.26 0-1.2.07.5.63 1.18 1.17 1.1a1.9 1.9 0 0 1-.8.02l-.02.01a.06.06 0 0 0 0 .06l.02.06c.02.06.06.08.12.06.5-.14.92-.06 1.26.25-.2.07-.36.1-.5.07-.13-.02-.2.04-.2.18v.11c0 .1.05.16.16.17.39.02.62.28.99.32.49.06 1.01.09 1.57.09-.37.44-1.04.58-2.02.4-.37.04-.71-.02-1.02-.16-.26-.12-.32-.57-.4-.8-.05-.12-.13-.17-.25-.16-1.29.1-2.94-.42-2.43-2.03a.17.17 0 0 1 .13-.11c.14-.03.82.64.9.8.16.36.35.57.66.83Z" fill="#603024"/><path d="M36.51 35.91c.06.03.1.05.1.08-.02.14 0 .23.06.28l.45.32c.28.18.45.5.77.69.08.04.13.1.16.17.11.25.27.46.47.63.09.07.15.17.16.3a.65.65 0 0 1-.07.37c-.03.06-.03.14 0 .23.04.09.1.14.18.18l.53.2c-1.42.24-1.48-1.62-2.35-2.3a5.9 5.9 0 0 1-.64-.58c-.09-.09-.14-.07-.17.05-.03.16 0 .36.08.6-1.4-2.56-.51-1.25-.48.71 0 .07-.03.1-.1.1-1.99.44-3.14 1.76-1.42 4.6.07.05.47.51.49.6.12.49-.74.38-.66.82-.05 0-.1 0-.13-.03-.24-.18-4.79-3.94-4.8-4.93a.44.44 0 0 0-.07-.23c-.27-.44-.25-.85.07-1.24.37-.45.94-.85 1.68-1.2.42-.2.74-.56 1.17-.78.24-.12.42-.3.53-.54.03-.07 0-.1-.07-.1-.68-.03-.94.53-1.72.35l1.51-.96c.49-.3.99-.52 1.52-.65a79.4 79.4 0 0 1 1.95-.4.18.18 0 0 1 .13.2c-.27 1.8.08 1.9.67 2.46Z" fill="#241914"/><path d="m28.93 33.7.07-.04c.06-.05.1-.04.1.04.15.93.45 1.28.9 1.06 0 .14-.09.27-.28.38-.3.2-.93.14-1.25.01-.3-.13-.64-.16-.99-.1-.34-.3-.76-.39-1.26-.25-.06.02-.1 0-.12-.06a1.66 1.66 0 0 0-.03-.09.05.05 0 0 1 .04-.04h.03c.25.04.5.03.76-.03.18-.06.32-.3.41-.74a.33.33 0 0 1 .59-.13l.33.46a.4.4 0 0 0 .73-.31l-.03-.15Z" fill="#825052"/><path d="m38.44 34.66.02-.04c.42-.03.74.04.96.22.46.37.12 1.09-.47 1.07a.26.26 0 0 1-.2-.1.35.35 0 0 1-.07-.36c.03-.1 0-.17-.07-.23-.2-.15-.27-.34-.17-.56Z" fill="#FCCC9E"/><path d="M22.32 39.83c-.28.36-1.28-.48-1.21-.02.01.09-.03.15-.12.19-.07.03-.16 0-.25-.1l-.41-.46a.31.31 0 0 1-.08-.22c.01-.3.24-.48.3-.76.17-.74.4-1.4.69-2 .03-.05.07-.09.13-.1.08 0 .13-.05.14-.13.02-.27-.03-.57-.18-.88.35-.4.61-.16.79.72.04.22.26.47.67.77.07.05.47.26.46.35-.05.4-.52.5 0 1.45.09 1-.93 1.2-.93 1.2Z" fill="#0F2831"/><path d="M36.24 37.13c.22.6.22 1.36.83 1.69.08.04.13.1.15.18.02.05-.83 1.7-.94 1.98-.43.35-.76.7-.97 1.1l-.53.66c-.08.09-.06.16.05.21l.76.35c-1.03-.25-.87.37-1.42.28.2-.28.27-.56.2-.84a.37.37 0 0 0-.13-.2c-.95-.73-2.09-.69-2.69-1.88a.29.29 0 0 1-.03-.17c.14-.9-.37-.83-1.08-.87a.39.39 0 0 1-.24-.1c-.44-.38-.5-.85-.21-1.41a.4.4 0 0 1 .16-.17l.57-.33c.88-.5 1.3-.91 2.43-.82.68.06.94.41.77 1.06-.02.07.01.1.08.1h1.66c.3 0-.8-2.03-.24-2.38a.25.25 0 0 1 .2-.02l.1.02c.08.01.12.06.12.14.03.5.16.98.4 1.42Z" fill="#3F2F28"/><path d="M39.22 37.06c.64-.03.78.91.94 1.44.03.09.09.14.18.14l.67.03c-.48.36-1.05.58-1.7.68-.2-.07-.9-.22-.7-.6a.65.65 0 0 0 .07-.38.44.44 0 0 0-.16-.3c-.54-.42-.78-1.07-1.4-1.48a5.88 5.88 0 0 1-.45-.32c-.06-.05-.08-.14-.06-.28.26.05.52.04.8-.03.1-.02.14.02.12.12-.03.18 1.45.99 1.69.98Z" fill="#552526"/><path d="M41.79 37.6c-.14.5-.4.86-.78 1.07l-.67-.03c-.1 0-.15-.05-.18-.14-.16-.53-.56-.78-1.2-.76-.25.01-.41-.08-.48-.28.35.04.7-.02 1.06-.15a.45.45 0 0 1 .23-.03l2.02.32Z" fill="#984E3A"/><path d="M21.95 38.71c.22.07.43.08.65.03.02.03.05.04.08.05.05 0 .08.03.12.07.49.54.9 1.13 1.25 1.77.22.41.14.7-.26.88a.63.63 0 0 1-.36.04 3.44 3.44 0 0 0-1.73.13l-.96-1.8c.1.1.19.12.27.1.1-.04.14-.1.12-.2-.07-.47.05-.9.35-1.27.02.08.4.23.47.2Z" fill="#232323"/><path d="m36.98 39.6-.4.56c-.24.09-.4.33-.47.73a.2.2 0 0 1-.07.12.2.2 0 0 1-.13.04c-.37.01-.68-.11-1-.13a3.23 3.23 0 0 1-2.27-.92c-.18-.18-.2-.4-.08-.63.16-.29.64-.44.92-.73.05-.07.12-.1.2-.1a4.5 4.5 0 0 1 2 .3c.07.02.13.07.17.12l.3.44a.1.1 0 0 0 .18-.03l.1-.4a.25.25 0 0 1 .36-.16c.33.2.4.46.19.78Z" fill="#774A3A"/><path fill-rule="evenodd" d="M19.16 31.18a1.34 1.34 0 0 1-.07-.05c-.04.17-.05.34-.04.5.03.34.3.55.25.99l.55.7c.06.06.06.14 0 .21-.17.2-.3.2-.41 0 .27.77.68 1.12 1.24 1.07.1-.01.17.01.24.06.24.17.38.4.41.69.35-.4.61-.16.79.72.04.22.26.47.67.77.07.05.1.12.1.21-.1.91-.3 1.03-.32 1.18-.03.19.2.42 1.25 2.4.2.4.13.68-.24.85a.56.56 0 0 1-.33.03 3.08 3.08 0 0 0-1.62.13c.28.49.57.72.9 1.14l.04.06c0 .05 0 .1-.04.15-.3.35-1.14.53-1.56.75a12.07 12.07 0 0 0-1.62.08 2.36 2.36 0 0 0-1.08.47v.04l.05.08c.03.08.85.44 1 .51a.3.3 0 0 0 .1.04c1.07.08 2.13.02 3.17-.04 2.48-.15 4.96-.16 7.45-.34l4.25-.33 1.83-.07c0-.08-.1-.12-.33-.12-.14.02-.28 0-.44-.03-.46-.12-.93.1-1.28-.07-.3.03 0-.42.21-.75.11-.17.2-.31.19-.34-.52-.12-.9-.28-1.19-.43-1.26-.97-2.45-2.66-2.46-3.67 0-.09-1.32-.26-1.75 0-.27-.44-.25-.85.07-1.24.62-.74 1.53-1.02 2.28-1.6.18-.13.36-.27.57-.38.24-.12.42-.3.53-.54.03-.07 0-.1-.07-.1-.3-.02-.93-.35-1.15-.25-1.06.5-2.74 1.93-3.82 1.74-1.04.22-1.71-.12-2.49-.5a8.59 8.59 0 0 0-2.18-.67l-.3-.06a1.7 1.7 0 0 1-.74-.46c-.72-.63-.5-1.71-1.5-2.1-.39-.14-.78-.3-1.02-1.38a.23.23 0 0 1-.09-.05ZM32.26 43c-.34-.71-1.12-.92-1.86-1.12l-.5-.13c-.57-.2-.98-.07-1.41.06-.3.09-.59.17-.93.17-.34 0-.68-.03-1.02-.07a.32.32 0 0 0-.24.07c-.38.31-.49.67-.32 1.08.13.52.21.9.84.88 1.72-.02 3.43-.04 5.14-.04.22 0 .34-.1.35-.31l-.05-.6Z" fill="#040808"/><path d="M35.59 43.3c.26.06.44.13.53.21.13.1.17.21.12.32a.2.2 0 0 1-.16.13.75.75 0 0 0-.3.1c-.13.02-.27 0-.43-.03a.32.32 0 0 1-.17-.11.44.44 0 0 0-.25-.16c-.08-.02-.14.01-.18.09-.1.24-.33.28-.68.11a.52.52 0 0 1 .1-.38c.26.05.4-.03.38-.21a.24.24 0 0 1 .3-.25l.74.18Z" fill="#B6756E"/><path d="M21.87 29.04c.05.01.08.05.1.12a.1.1 0 0 1 0 .07.1.1 0 0 1-.05.04c-.51.32-1.07.46-1.67.43a.28.28 0 0 1-.27-.28V29c0-.12.05-.2.15-.26.26-.16.53-.2.83-.15.08.01.16.05.23.1.08.06.2.1.34.1.13.01.22.08.28.2.01.03.03.04.06.05Z" fill="#C37352"/><path d="M25.82 28.67c.12.5.38.69.9.66.11-.01.15.04.13.16a.65.65 0 0 1-.17.31.29.29 0 0 1-.4 0l-.99-.96a.23.23 0 0 1-.05-.25.24.24 0 0 1 .22-.15c.07 0 .14.01.2.04.08.04.14.1.16.19Z" fill="#552526"/><path d="M17.3 34.97c-.97-.04-.52.75-1.1 1.02-.06.02-.08.07-.07.13.04.19.16.3.35.34a.1.1 0 0 1 .06.02l.04.06c.03.04.07.07.13.08.4.05.76.03 1.1-.06.02.12-.05.22-.23.3-.08.02-.12.08-.1.17.01.08.06.13.14.17a.18.18 0 0 1 .02.33c-.42.24-.73.28-.92.1a.36.36 0 0 0-.18-.1c-.86-.19-.72-1.32-.6-1.94a.36.36 0 0 1 .13-.22c.4-.3.8-.43 1.23-.4Z" fill="#5D373D"/><path d="M17.3 34.97c.23.07.32.24.29.5-.02.1 0 .18.05.26.16.24.22.52.17.83-.34.1-.7.11-1.1.06a.16.16 0 0 1-.13-.08.28.28 0 0 0-.04-.06.1.1 0 0 0-.06-.02.41.41 0 0 1-.35-.34c-.01-.06 0-.1.07-.13.58-.27.13-1.06 1.1-1.02Z" fill="#CA8A6C"/><path d="M33.8 40.13c-.4-.04-.56-.33-.47-.9a.6.6 0 0 1 .52-.49c.9-.1 1.55.21 1.97.95.09.15 0 .36-.17.4l-1.01.26a.42.42 0 0 1-.28-.03 1.9 1.9 0 0 0-.55-.19Z" fill="#97634F"/></svg>