<!-- by TradingView --><svg width="56" height="56" viewBox="0 0 56 56" xmlns="http://www.w3.org/2000/svg"><path fill="#F0F3FA" d="M0 0h56v56H0z"/><path d="M46 28a18 18 0 1 1-36 0 18 18 0 0 1 36 0Z" fill="url(#aspehab1j)"/><path d="M28 10.82a17.18 17.18 0 1 0 0 34.36 17.18 17.18 0 0 0 0-34.36ZM10.48 28a17.52 17.52 0 1 1 35.04 0 17.52 17.52 0 0 1-35.04 0Z" fill="#914D0E"/><path fill-rule="evenodd" d="M28 43.01A15.01 15.01 0 1 0 28 13 15.01 15.01 0 0 0 28 43Zm0 1.95a16.96 16.96 0 1 0 0-33.92 16.96 16.96 0 0 0 0 33.92Z" fill="url(#bspehab1j)"/><path d="M42.71 28a14.71 14.71 0 1 1-29.42 0 14.71 14.71 0 0 1 29.42 0Z" fill="#2E2C2A"/><path d="M29 16.5a.5.5 0 1 1-1 0 .5.5 0 0 1 1 0ZM19 20.5a.5.5 0 1 1-1 0 .5.5 0 0 1 1 0ZM16 30.5a.5.5 0 1 1-1 0 .5.5 0 0 1 1 0ZM20 26.5a.5.5 0 1 1-1 0 .5.5 0 0 1 1 0ZM36 33.5a.5.5 0 1 1-1 0 .5.5 0 0 1 1 0ZM22 39.5a.5.5 0 1 1-1 0 .5.5 0 0 1 1 0ZM37 23.5a.5.5 0 1 1-1 0 .5.5 0 0 1 1 0Z" fill="#EAB45B"/><path d="M32.52 18.08c.32 0 .52.33.39.62l-.78 1.65.4.25.82-1.72a.53.53 0 0 1 .7-.25l1.65.76c.26.12.37.43.25.7L35 22.12l.53.71-1.02 2.18a.3.3 0 0 1-.51.07l-.36-.42a8.83 8.83 0 0 0-2.68-2.01c-2-.93-3.6-.6-4.8.14a6.9 6.9 0 0 0-2.53 2.9v.02a6.83 6.83 0 0 0-.63 3.8c.2 1.39.99 2.8 2.99 3.73 1.27.58 2.74.73 3.29.74h.55a.3.3 0 0 1 .27.43l-1.02 2.18-.9.05-.95 2.05a.53.53 0 0 1-.7.25l-1.65-.76a.52.52 0 0 1-.26-.7l.81-1.71-.46-.15-.78 1.65a.44.44 0 0 1-.72.11l-1.4-1.52a.52.52 0 0 1-.09-.58l.59-1.24c-1.68-1.48-3.8-4.97-1.64-9.58 2.16-4.6 6.22-5.24 8.45-4.93l.58-1.24c.09-.19.28-.3.5-.3l2.07.08Z" fill="url(#cspehab1j)"/><path d="m34.14 24.25.62-1.33-.53-.72 1.07-2.28-1.41-.65-1.07 2.28-1.53-.96.88-1.87-1.66-.06-.76 1.62c-1.84-.45-6.05-.18-8.24 4.47-2.18 4.65.33 8.02 1.86 9.12l-.76 1.62 1.12 1.22.88-1.87 1.72.54-1.07 2.27 1.41.65 1.07-2.27.9-.06.62-1.33c-.6 0-2.18-.16-3.56-.8-4.43-2.04-3.63-6.45-2.68-8.4.9-1.97 3.77-5.42 8.2-3.38a9.48 9.48 0 0 1 2.92 2.19Z" fill="#6F5029"/><path d="M17.83 21.57a.2.2 0 1 1-.39 0 .2.2 0 0 1 .4 0ZM36.13 22.18a.2.2 0 1 1-.39 0 .2.2 0 0 1 .4 0ZM28.56 27.46a.2.2 0 1 1-.39 0 .2.2 0 0 1 .4 0ZM26.83 28.45a.2.2 0 1 1-.39 0 .2.2 0 0 1 .4 0ZM27.44 28.84a.2.2 0 1 1-.4 0 .2.2 0 0 1 .4 0ZM26.83 27.24a.2.2 0 1 1-.39 0 .2.2 0 0 1 .4 0ZM29.08 28.06a.2.2 0 1 1-.39 0 .2.2 0 0 1 .4 0ZM16.49 29.75a.2.2 0 1 1-.39 0 .2.2 0 0 1 .39 0ZM31.5 40.4a.2.2 0 1 1-.39 0 .2.2 0 0 1 .4 0ZM16.1 26.68a.2.2 0 1 1-.39 0 .2.2 0 0 1 .4 0Z" fill="#EAB45B"/><defs><linearGradient id="aspehab1j" x1="37.56" y1="12.51" x2="20.25" y2="44.27" gradientUnits="userSpaceOnUse"><stop stop-color="#E6C366"/><stop offset=".15" stop-color="#C3A679"/><stop offset=".23" stop-color="#EAD165"/><stop offset=".36" stop-color="#E3AF50"/><stop offset=".52" stop-color="#D8A85A"/><stop offset=".61" stop-color="#F8D05C"/><stop offset=".77" stop-color="#FFDE56"/><stop offset=".86" stop-color="#E2B144"/><stop offset="1" stop-color="#EFBB4C"/></linearGradient><linearGradient id="bspehab1j" x1="38.83" y1="15.21" x2="15.87" y2="40.71" gradientUnits="userSpaceOnUse"><stop stop-color="#756036"/><stop offset=".28" stop-color="#B4934F"/><stop offset=".43" stop-color="#88693C"/><stop offset=".64" stop-color="#987C47"/><stop offset=".87" stop-color="#96804C"/><stop offset="1" stop-color="#9D9851"/></linearGradient><linearGradient id="cspehab1j" x1="28" y1="18" x2="28" y2="39" gradientUnits="userSpaceOnUse"><stop stop-color="#F6C54B"/><stop offset=".19" stop-color="#FCBA4F"/><stop offset=".55" stop-color="#E4B247"/><stop offset=".83" stop-color="#FBD04D"/><stop offset="1" stop-color="#E5B14A"/></linearGradient></defs></svg>