<svg width="112" height="112" viewBox="0 0 56 56" xmlns="http://www.w3.org/2000/svg"><path d="M20.9 31a.08.08 0 0 1 .07.08c.08 3.03.03 6-.73 8.86a.09.09 0 0 1-.09.06H14.2a.2.2 0 0 1-.13-.05.18.18 0 0 1-.06-.14v-8.66a.15.15 0 0 1 .16-.15h6.73Zm6.19-15c5.18 2.6 9.67 4.91 13.46 6.92a83.76 83.76 0 0 1 5.27 3.03.4.4 0 0 1 .18.32v3.66a.22.22 0 0 1-.1.17c-.52.38-.95.65-1.28.82A4501.8 4501.8 0 0 0 27.1 40l-.05-.01a.09.09 0 0 1-.03-.04.1.1 0 0 1 0-.04v-6.87a.2.2 0 0 1 .11-.18c3.01-1.46 5.68-2.86 8-4.2.58-.34.6-.5.5-1.09a.25.25 0 0 0-.12-.18 103.8 103.8 0 0 0-8.4-4.37.17.17 0 0 1-.07-.06.16.16 0 0 1-.03-.09v-6.84l.03-.02a.06.06 0 0 1 .05 0Zm-6.2 1c.06 0 .11.05.11.1v6.8a.1.1 0 0 1-.1.1h-6.8a.1.1 0 0 1-.1-.1v-6.8c0-.05.05-.1.1-.1h6.8Z" fill="#fff"/></svg>