<!-- by TradingView --><svg width="56" height="56" viewBox="0 0 56 56" xmlns="http://www.w3.org/2000/svg"><path fill="#223D76" d="M0 0h56v56H0z"/><path d="m37.84 30 .09.03c.62.53 1.13 1.03 1.55 1.5a5.99 5.99 0 0 1 1.51 3.82 6.63 6.63 0 0 1-1.07 3.94 5.27 5.27 0 0 1-2.76 2.22c-.87.3-2.1.45-3.73.47-3.36.03-6.12.03-8.28-.01a.67.67 0 0 1-.24-.03.18.18 0 0 1-.1-.12v-.07c0-.03 0-.05.02-.07l4.01-7.3c.1-.17.27-.38.46-.38h3.15c.18 0 .3.3.22.47l-1.92 3.48a.26.26 0 0 0 0 .26.26.26 0 0 0 .23.12c.66 0 1.9.02 3.73.06 1.98.04 3.3-.99 3.95-3.08a5.53 5.53 0 0 0-.92-5.1.14.14 0 0 1 .02-.18.13.13 0 0 1 .08-.03Zm.98-16a.12.12 0 0 1 .1.06.11.11 0 0 1 0 .11l-3.8 6.47a.74.74 0 0 1-.66.37l-1.28-.04c-2.75-.11-4.66 0-5.74.35a6.56 6.56 0 0 0-3.17 2.19 6.2 6.2 0 0 0-1.43 3.58c-.13 2.06.37 3.72 1.5 5a9.14 9.14 0 0 0 2.7 2.12l.02.05a.16.16 0 0 1-.01.12l-3.86 6.58a.56.56 0 0 1-.25.22.58.58 0 0 1-.35.04c-1.2-.24-2.38-.72-3.55-1.43-3.92-2.4-5.93-5.92-6.02-10.57L13 28.9c-.07-3.22.23-5.63.9-7.22 1.6-3.75 4.44-6.19 8.55-7.3.74-.2 2.1-.31 4.07-.34L38.83 14Zm-13.2 15.02c2.18-.03 4.8-.03 7.87.03 2.2.04 3.52 1.13 3.93 3.28.1.5.02.97-.23 1.4a.28.28 0 0 1-.22.13.29.29 0 0 1-.24-.1c-.7-.78-1.96-1.15-3.8-1.12h-.4c-1.82.02-2.94.03-3.36.01a3.59 3.59 0 0 1-2.49-1.06 4.07 4.07 0 0 1-1.18-2.48c0-.02.01-.03.03-.04a.13.13 0 0 1 .04-.04h.05Z" fill="#fff"/></svg>