<svg width="56" height="56" viewBox="0 0 56 56" xmlns="http://www.w3.org/2000/svg"><path d="M42.67 19.17a16.41 16.41 0 0 1 2.09 5.64 17.54 17.54 0 0 1-5.78 16.05 16.7 16.7 0 0 1-13.78 3.9 16.9 16.9 0 0 1-14.13-15.15c-.22-2.44.07-4.82.86-7.16A16.85 16.85 0 0 1 27.78 11a17.32 17.32 0 0 1 10.93 3.65 16.32 16.32 0 0 1 3.96 4.52Z" fill="#6D3943"/><path d="M12.61 33.63a18 18 0 0 1-.97-5.72 16.16 16.16 0 0 1 4.35-11.07c2.31-2.5 5.15-4.1 8.5-4.83 3.34-.73 6.6-.45 9.79.84.04.02.05.04.03.08l-.37.64c-.01.02-.03.03-.06.01a6.08 6.08 0 0 0-3.28-1.02 4.72 4.72 0 0 0-3.24.93.67.67 0 0 1-.27.13c-.34.08-.65.23-.93.43-.31.23-.52.5-.61.79-.04.11-.08.2-.14.3a.38.38 0 0 1-.12.12 4.5 4.5 0 0 0-1.42 1.28 13.38 13.38 0 0 0-1.07 1.94l-.85 1.14a.12.12 0 0 1-.1.04l-.3-.03c-.71-.08-1.27.15-1.68.7-.2.26-.39.43-.56.48-.12.04-.14.11-.08.22l.1.17c.03.05.04.1.03.16-.11.7-.13 1.4-.04 2.13.04.34.15.63.33.87.14.18.36.38.66.6.06.05.1.1.1.18l.2 2.38c0 .03-.02.05-.04.06a.06.06 0 0 1-.07 0c-.06-.03-.19-.07-.37-.1-.7-.14-1.2.02-1.55.47-.33.46-.33 1 0 1.62.03.06.03.12-.01.17-.2.25-.47.33-.8.23a6.75 6.75 0 0 1-.33-.11 1.8 1.8 0 0 0-1.05-.1c-.43.1-.94.27-1.54.5a.59.59 0 0 0-.35.36l-.87 2.3a.4.4 0 0 1-.07.1c-.2.27-.47.5-.8.67-.07.04-.12.02-.15-.06Z" fill="#E3AEB4"/><path d="m27.58 15.49.03-.02-.33.05h-.03l-.56.2c-.53.16-.9.31-1.14.45-.38.21-.68.52-.91.91l-.31.52c-.5.83-.81 1.48-.93 1.94l-.76-.32c-.07-.03-.08-.08-.04-.14.24-.4.66-1 1.24-1.8a4.6 4.6 0 0 1 2.6-1.84c.09-.02.13-.08.12-.17 0-.04-.04-.1-.12-.2v-.05c.02-.02.03-.02.05-.02.08.03.13.11.15.23.02.09.06.13.14.13.08 0 .13-.03.14-.11a.44.44 0 0 0-.08-.27.27.27 0 0 1-.03-.12c-.04-.4.05-.75.26-1.06h.04c.03.01.03.03.02.05-.2.35-.27.71-.22 1.09.02.13.15.24.38.32.07.02.12 0 .15-.07l.33-.88a.25.25 0 0 1 .09-.12l1.22-.85c.02-.02.04-.02.05.01v.03c-.14.13-.41.34-.82.63-.5.36-.73.85-.73 1.48Z" fill="#B8A29F"/><path d="m28.31 15.66-.24-.05c.15-.22.38-.36.68-.42.05-.01.07-.04.07-.08 0-.05-.02-.08-.07-.09l-.25-.04a.17.17 0 0 0-.16.05l-.57.53-.16-.09-.03.02c.14-.06.23-.21.26-.45a.4.4 0 0 1 .08-.2 3.81 3.81 0 0 1 2.18-1.39c.02 0 .04 0 .05.03.01.02 0 .04-.02.06l-.4.25c-.04.02-.05.05-.03.08.02.03.1.05.23.05.02 0 .04.01.05.03.02.02.01.05-.01.1l-.04.02a4.5 4.5 0 0 0-1.31.69c-.02 0-.03.03-.02.05 0 .02.02.03.05.03l.1-.01c.06 0 .1.02.12.09.01.1.08.12.2.08.04-.02.05-.05.04-.1 0-.03-.03-.04-.06-.04a.2.2 0 0 1-.12 0 .1.1 0 0 1-.06-.1.1.1 0 0 1 .05-.08c.65-.37 1.14-.62 1.47-.74.28-.12.65-.14 1.1-.08.03 0 .04.02.05.05 0 .03 0 .05-.02.07-.3.23-.57.38-.81.46-.72.25-1.48.6-2.27 1.05-.08.04-.12.1-.13.17ZM27.64 14.06l-.27.7c0 .02-.02.03-.05.03-.03 0-.04-.01-.05-.04 0-.04 0-.11.03-.22.08-.24.16-.4.26-.52.02-.02.04-.02.06 0 .02 0 .02.03.02.05ZM35.78 14.59c-.06-.22-.14-.39-.2-.37-.05.01-.04.2.01.41.06.22.14.39.2.37.05-.01.04-.2-.01-.41Z" fill="#A48283"/><path d="M29.19 14.78c.06-.07.13-.1.2-.08.03.01.04.03.05.06 0 .03 0 .05-.04.07l-.17.03c-.02 0-.04 0-.05-.03v-.05Z" fill="#965C64"/><path d="M37 15.43c.08-.2.12-.35.13-.47 0-.06.03-.1.1-.1.06-.01.1.02.12.08.08.3.1.76.08 1.36 0 .08-.04.1-.1.06a.93.93 0 0 1-.24-.22 2.31 2.31 0 0 1-.4-.61c-.08-.21-.05-.46.07-.73.02-.04.05-.05.08-.04.04.01.06.04.05.08-.04.24-.03.44.02.6l.04.02c.02 0 .04 0 .05-.03ZM29.77 15.98c-.25.18-.4.05-.47-.4a5.6 5.6 0 0 1 2.55-.5c.03.01.04.03.04.05 0 .03-.01.05-.04.05-.73.02-1.45.15-2.17.4-.07.02-.08.06-.05.12l.03.05c.02.03.04.04.07.03 1-.33 2.02-.48 3.08-.45.04 0 .06.03.06.06 0 .04-.02.07-.06.07l-2.41.32c-.05 0-.07.03-.07.08s.01.08.06.09c.53.16 1.3.27 2.32.35.4.02.7.05.9.07.03 0 .04.02.04.04 0 .03-.01.04-.03.04l-.99.08c-.02 0-.03.01-.03.03 0 .01 0 .03.02.04l.64.37c.03.02.03.03 0 .04-.06.01-.14 0-.25-.05a20.27 20.27 0 0 0-3.24-.98Z" fill="#A48283"/><path d="m27.61 15.47.16.09c.03.13.13.14.3.05l.24.05.99-.08c.07.45.22.58.47.4a3.83 3.83 0 0 1 1.33 1.12l-.04.04c-.02 0-.03 0-.04-.02a3.22 3.22 0 0 0-.74-.62c-.02-.01-.04 0-.06.02v.06a18.25 18.25 0 0 1 2.67 3.4c.01.04 0 .06-.02.07-.04.02-.07 0-.08-.03-.07-.19-.15-.3-.24-.32-.03 0-.05 0-.06.02a.05.05 0 0 0 0 .07l.92 1.66v.03c-.01.02-.02.02-.04.01-.02 0-.04 0-.05-.02a.82.82 0 0 0-.3-.34c-.02-.02-.04-.02-.07 0-.02.02-.02.05 0 .08l.67 1.35c.03.05.04.11.03.18l-.06.32-.2 1.16-2.43-1.32a.47.47 0 0 1-.25-.36c-.06-.37-.3-.71-.73-1.02a3.72 3.72 0 0 0-1.17-.55.44.44 0 0 0-.2 0 104.03 104.03 0 0 0-.63.1V21c.02-.01.04-.02.06 0 .11.04.22 0 .33-.13a.3.3 0 0 1 .21-.1c1.1-.08 2.04.29 2.78 1.1.02.02.03.02.05.01.02-.01.02-.03 0-.05a4.3 4.3 0 0 0-1.82-1.58.84.84 0 0 0-.25-.07 8.72 8.72 0 0 0-2.79.05c-.2.05-.34.21-.42.5a.28.28 0 0 1-.13.17c-.24.15-.5.24-.75.27-.07 0-.13 0-.19-.04-.19-.1-.38-.16-.57-.18a.3.3 0 0 1-.28-.2 3.13 3.13 0 0 0-.81-1.21c.12-.46.43-1.11.93-1.94l.3-.52c.24-.39.54-.7.92-.91a6.4 6.4 0 0 1 1.14-.46 17.22 17.22 0 0 0 .6-.2l.32-.04Z" fill="#CDBBB7"/><path d="M38.99 16.51c0-.18-.05-.32-.1-.32s-.1.14-.1.33c.01.18.05.32.1.32.06 0 .1-.15.1-.33Z" fill="#965C64"/><path d="M33.07 18.6c.02.01.01.03-.01.05-.03.03-.05.03-.08 0-.2-.2-.34-.27-.4-.23-.08.02-.14 0-.19-.06l-.95-1.3v-.05c0-.01.02-.02.04-.01a3 3 0 0 1 1.79 1.35c.02.04.02.07-.02.1a.08.08 0 0 1-.09-.02l-.44-.46c-.01-.02-.03-.02-.05-.02-.02.01-.03.03-.03.05 0 .11.15.3.43.6ZM34.24 18.68c.28.24.68.51 1.2.83.03.02.04.04.02.06 0 .03-.03.04-.06.03a4.3 4.3 0 0 1-2.3-1.88c0-.03 0-.05.02-.07.03-.02.05-.02.07 0 .41.46.76.8 1.05 1.03Z" fill="#A48283"/><path d="M38.21 35.51c-.9.07-1.64-.17-2.22-.74a4.3 4.3 0 0 1-1.08-2.11c0-.03 0-.05.03-.06.04 0 .06 0 .07.04.16.57.4 1.09.73 1.55.02.03.04.03.06.01.03-.01.03-.03.02-.06a6.9 6.9 0 0 1-.88-2.92c0-.07.02-.12.09-.14a4.13 4.13 0 0 0 2.21-1.9c.1-.18.28-.58.54-1.2a.57.57 0 0 1 .14-.2l.27-.23c.34-.3.58-.55.71-.76a4.8 4.8 0 0 0 .76-2.16l.1-.9c.12-1.05.17-1.8.15-2.24a5.28 5.28 0 0 0-.53-2.05c-.03-.07-.01-.1.06-.12.87-.17 1.3-.71 1.28-1.62 0-.03.01-.04.03-.05l.06.01a15.51 15.51 0 0 1 2.91 5.9 16.62 16.62 0 0 1-3.5 15.03.25.25 0 0 1-.28.09l-.78-.24c-.8-.24-1.45-.39-1.95-.44a6.73 6.73 0 0 1-3.03-1.17A3.26 3.26 0 0 1 32.74 35a5.04 5.04 0 0 1-.01-2.84.16.16 0 0 1 .14-.13c.33-.04.64-.18.93-.4a.08.08 0 0 1 .08-.02c.03 0 .05.03.05.06l.2.95a3.92 3.92 0 0 0 2.62 3c.44.15.92.13 1.47-.08.07-.02.07-.03 0-.03Z" fill="#E3AEB4"/><path d="M34.36 18.18c-.22-.1-.4-.16-.42-.13-.01.03.15.14.37.24.22.1.4.15.42.12.02-.03-.15-.13-.37-.23Z" fill="#965C64"/><path d="M33.1 19.6c-.07-.06-.14-.09-.16-.07-.01.02.02.09.08.14.06.06.13.1.15.07.02-.02-.02-.08-.08-.14ZM22.66 20.11a9.37 9.37 0 0 0-.71-.23c-.02 0-.02-.02-.02-.04 0-.01.01-.02.03-.02.28.03.53.08.75.16a3 3 0 0 1 .67.37c.02 0 .02.02.01.04a9.11 9.11 0 0 0-.73-.28Z" fill="#A48283"/><path d="m21.41 21.62-1.26-.73c-.07-.04-.08-.1-.05-.16.3-.55.83-.74 1.6-.57.03 0 .04.02.04.05l-.24 1.37c0 .05-.04.07-.09.04Z" fill="#965C64"/><path d="m36.88 21.11.59-.41h.03c.02.01.02.03 0 .04-.17.2-.36.36-.54.48-.2.13-.41.23-.66.32-.02 0-.03 0-.04-.02l.01-.04c.2-.11.41-.23.61-.37ZM19.75 21.22l-.11.48c-.01.03-.03.04-.06.03-.02 0-.04-.02-.04-.05 0-.22.02-.39.05-.5.02-.1.08-.26.18-.47.01-.02.03-.03.06-.02.02 0 .04.02.03.05l-.1.48Z" fill="#A48283"/><path d="M24 20.72c.07.02.11.06.12.13.03.16.16.25.4.24.2 0 .37.05.52.16.05.04.1.05.15.03.08-.04.16 0 .22.12.04.08.1.09.16.03l.28-.24.05.02c.02.02.02.03 0 .05l-.31.32c-.07.07-.14.07-.22.02a2.2 2.2 0 0 0-1.08-.4.36.36 0 0 0-.28.08.37.37 0 0 0-.14.25 4.1 4.1 0 0 1-.5 1.51c-.02.04-.05.05-.09.03-.03-.02-.04-.05-.03-.08.26-.52.43-1.08.5-1.7.02-.1.05-.2.09-.24.06-.07.08-.14.06-.23 0-.03 0-.05.02-.08a.08.08 0 0 1 .08-.02Z" fill="#B8A29F"/><path d="m28.68 21.2.01-.06h.02c.66.17 1.2.48 1.64.92.11.11.17.24.18.4 0 .02-.01.04-.04.05-.03 0-.05 0-.07-.03a2.59 2.59 0 0 0-1.7-1.23c-.03 0-.04-.02-.04-.04Z" fill="#A48283"/><path d="M30.24 22.66c0 .06-.02.17-.06.32a2.8 2.8 0 0 0-.07.44 3.55 3.55 0 0 1-.55 1.66c-.39.62-.85.95-1.39 1a2.35 2.35 0 0 1-1.58-.39c-.45-.3-.77-.76-.97-1.37a4.6 4.6 0 0 1-.24-1.64c.03-.71.28-1.15.76-1.32.23-.08.6-.12 1.14-.12.58 0 1.12.09 1.62.27.6.22 1.02.53 1.28.94.04.06.06.13.06.2ZM19.9 21.4c.03-.08.08-.1.15-.06l1.23.72c.08.05.14.12.16.22.01.1 0 .19-.07.27-.43.57-.72 1.2-.86 1.91a.12.12 0 0 1-.09.1c-.05.01-.09 0-.12-.04a2.55 2.55 0 0 1-.63-1.5 3.8 3.8 0 0 1 .23-1.62Z" fill="#965C64"/><path d="M28.59 26.54c.59 0 1.12-.38 1.6-1.15.25-.38.46-.62.63-.7.48-.24 1.15-.2 2.03.1.06.03.08.07.06.13-.19.5-.46.93-.83 1.3-.55.56-1.04 1.13-1.47 1.72-.03.03-.03.07 0 .1.02.04.05.05.1.03l1.22-.46c.07-.03.1 0 .1.08a4.35 4.35 0 0 1-1.99 3.42c-.32.21-.8.4-1.42.58a19.08 19.08 0 0 1-2.83.51 9.74 9.74 0 0 1-2.4.03l-1.23-.27c-.5-.1-.81-.55-.95-1.34-.01-.1.03-.15.13-.15.57-.01 1.08-.15 1.54-.42a3.3 3.3 0 0 0 1.53-.82c.02.17.14.12.38-.14l.3-.07c.03 0 .05-.02.05-.05 0-.02 0-.04-.02-.06a.58.58 0 0 0-.27-.08l-.02-.04a8.7 8.7 0 0 0-.85-1.15c-.4-.43-.78-.65-1.13-.64-.23 0-.49-.07-.76-.22.09-.34.34-.57.77-.7.1-.03.15.01.15.12-.01.2-.12.38-.32.51-.02.01-.02.03-.02.04l.02.05c.02.05.05.06.1.04a.87.87 0 0 0 .42-.61c.01-.1.07-.13.16-.1.36.17.71.25 1.06.26.36-.17.56-.43.59-.77 0-.03-.01-.05-.05-.06-.03 0-.05 0-.06.04-.07.2-.2.38-.38.53a2.08 2.08 0 0 0-.8-1 .31.31 0 0 0-.18-.05l-1.15.06a.78.78 0 0 1-.19-.65c0-.06.04-.11.08-.15l.2-.18a9.6 9.6 0 0 0 1.1-1.1c.36-.47.55-.93.55-1.37 0-.08.04-.15.1-.2a.25.25 0 0 1 .22-.06l.3.05a.3.3 0 0 1 .21.14.3.3 0 0 1 .05.24 4.3 4.3 0 0 0 .4 3.17c.3.57.75.99 1.33 1.25a3.3 3.3 0 0 0 1.84.26Z" fill="#CDBBB7"/><path d="M22.55 21.66c-.18.35-.07.65.32.9l.07.02.14.04c.06.03.08.08.06.15-.14.43-.28.7-.4.84a3.2 3.2 0 0 1-1.86 1.06c-.1.01-.14-.02-.14-.12.01-.42.12-.8.33-1.14.49-.8.92-1.43 1.3-1.87.04-.05.09-.06.14-.02.06.03.07.08.04.14Z" fill="#965C64"/><path d="M25.22 22.52c-.03.26-.05.51-.06.77 0 .02-.01.03-.03.03-.02 0-.03-.01-.03-.03a3.15 3.15 0 0 1-.02-.79c.03-.24.1-.5.2-.76.01-.02.02-.03.04-.02.02 0 .03.02.02.04-.05.24-.09.5-.12.76Z" fill="#A48283"/><path d="M26.47 22.94a.09.09 0 0 1-.1-.02.09.09 0 0 1-.03-.1l.11-.29c.04-.09.1-.15.2-.18.6-.18 1.17-.2 1.68-.06.4.12.9.4 1.47.83.1.06.12.14.07.24-.04.1-.11.15-.22.13-.17-.02-.34-.1-.52-.2a.14.14 0 0 0-.17 0c-.2.14-.5.23-.9.26a.2.2 0 0 1-.17-.05c-.22-.22-.28-.5-.18-.85a.1.1 0 0 0-.03-.1.1.1 0 0 0-.1-.02l-1.11.41Z" fill="#6D3943"/><path d="M28.14 22.91a.08.08 0 0 1-.07-.06.08.08 0 0 1 .03-.09c.07-.05.13-.07.18-.05.03.02.05.05.05.09a.1.1 0 0 1-.05.08.26.26 0 0 1-.14.03Z" fill="#965C64"/><path d="m31.09 23.13-.34.03a.2.2 0 0 0-.2.16l-.15.56a4.2 4.2 0 0 1-1.36 2.18l-.05-.03c-.02-.01-.03-.03 0-.05a4.28 4.28 0 0 0 1.39-3.07c0-.1.05-.12.13-.1l.6.23.02.05c0 .02-.02.04-.04.04Z" fill="#B8A29F"/><path d="M33.59 23.06c0 .13.05.25.17.35.07.06.08.13.03.21l-.06.1a.23.23 0 0 0-.03.16c.03.2-.07.32-.3.34l.19-1.16Z" fill="#A48283"/><path d="m33.07 24.42-2.45-.52.12-.5c.03-.1.09-.14.18-.1.75.24 1.46.61 2.15 1.12Z" fill="#CDBBB7"/><path d="m30.62 23.9 2.45.52c.07-.03.15 0 .23.12.04.06.06.12.05.19a.7.7 0 0 0 .27.68c.05.04.08.08.1.13v.1a.1.1 0 0 0 0 .1c.18.27.36.39.55.35.16-.02.4-.17.7-.44.25-.2.42-.33.54-.38.57-.25 1-.16 1.29.28.04.05.06.11.07.18.14.88-.07 1.7-.64 2.48a4.37 4.37 0 0 1-2.08 1.53.4.4 0 0 1 .06-.34c.04-.06.04-.1 0-.13a.88.88 0 0 0-.14-.07c-.06-.03-.07-.07-.03-.13a.8.8 0 0 1 .46-.3c.1-.02.31-.03.61-.01h.01c-.03.02-.04.04-.02.05.04.06.1.07.18.03.3-.16.6-.47.88-.93.25-.4.42-.8.51-1.2.1-.36.04-.65-.15-.84-.2-.21-.47-.22-.82-.02a5.1 5.1 0 0 0-1.53 1.45c-.05-.17-.15-.23-.32-.18a.34.34 0 0 0-.15.1 4.3 4.3 0 0 0-.97 2c-.02.1.02.2.11.27l.57.41c-.38.06-.68-.05-.89-.33a.19.19 0 0 1-.03-.19c.04-.1.04-.19 0-.25a.08.08 0 0 0-.06-.04.08.08 0 0 0-.07.03l-.23.37c-.37.59-.67 1-.9 1.26-.38.42-.82.7-1.32.86a16.97 16.97 0 0 1-7.7.7c-.78-.12-1.2-.54-1.3-1.27-.05-.42-.04-.9.02-1.46.01-.08.05-.13.13-.15.08-.02.14 0 .18.07.3.46.84.64 1.64.55-.46.27-.97.41-1.54.42-.1 0-.14.05-.13.15.14.8.46 1.24.95 1.34.4.08.82.17 1.22.27l.28.03.4.01a9.75 9.75 0 0 0 2.35-.16c.96-.14 1.7-.28 2.2-.42.64-.18 1.11-.37 1.43-.58a4.35 4.35 0 0 0 1.99-3.42c0-.08-.03-.1-.1-.08l-1.23.46c-.04.02-.07 0-.1-.03-.02-.03-.02-.07 0-.1.44-.6.93-1.16 1.48-1.72.37-.37.64-.8.83-1.3.02-.06 0-.1-.06-.13-.88-.3-1.55-.34-2.03-.1-.17.08-.38.32-.63.7-.48.77-1.02 1.15-1.6 1.15a4.16 4.16 0 0 0 2.03-2.64ZM22.24 25.86c.08 0 .17-.02.25-.09a.3.3 0 0 0 .1.04c.02 0 .05 0 .06-.03a.07.07 0 0 0 .01-.07l-.26-.57 1.15-.06c.07 0 .13.02.19.05.34.22.6.56.8 1a.31.31 0 0 0-.11.26c-.35 0-.7-.09-1.06-.25-.1-.04-.15-.02-.16.09a.87.87 0 0 1-.42.6c-.05.03-.08.02-.1-.03l-.02-.05c0-.01 0-.03.02-.04.2-.13.3-.3.32-.5 0-.12-.05-.16-.15-.12-.43.12-.68.35-.77.69a.4.4 0 0 0-.2.07c-.25.03-.45.2-.58.5-.11.27-.16.53-.14.81 0 .03-.01.05-.04.07-.03.01-.06 0-.08-.02a.97.97 0 0 1-.27-.58c-.08-.75-.12-1.5-.13-2.2 0-.13.06-.2.17-.23l.86-.2c.1-.03.14 0 .13.1-.04.42.1.67.43.76Z" fill="#B8A29F"/><path d="M22.49 25.77c-.08.07-.17.1-.25.09a.96.96 0 0 1-.21-.82c0-.05.03-.06.08-.05l.1.05c.04.01.05.03.05.07-.05.25.02.47.23.66Z" fill="#A48283"/><path d="M39.36 25.13c.03 0 .01.16-.07.44-.09.29-.15.42-.18.41-.04 0-.02-.16.07-.44.08-.29.14-.42.18-.41Z" fill="#B8A29F"/><path d="M23.2 25.28c.02-.04.05-.04.08-.03l.05.03c.56.3.8.5.76.6l-.03.06c-.06.1-.36 0-.92-.3l-.05-.03c-.03-.02-.04-.04-.02-.07l.14-.26Z" fill="#6D3943"/><path d="M33.86 25.7c-.03-.02-.04-.04-.03-.07 0-.02.03-.04.05-.05.06-.02.1 0 .13.03.02.01.03.03.02.06 0 .02-.03.04-.05.04a.16.16 0 0 1-.12-.01Z" fill="#A48283"/><path d="M35.12 28.76c.56-.26.88-.65.96-1.17 0-.1.03-.24.07-.43.11-.67.1-1.06 0-1.16a.15.15 0 0 0-.15-.04.14.14 0 0 0-.1.09c-.14.3-.35.42-.65.34-.09-.02-.15.01-.2.1-.05.07-.04.14.02.2.37.4.5.79.37 1.14-.15.43-.47.65-.97.68 0-.06.01-.12.04-.17.28.03.5-.08.68-.33.17-.24.18-.5.02-.74a.49.49 0 0 0-.2-.25.18.18 0 0 0-.17-.01.84.84 0 0 0-.45.34c-.2.33-.43.61-.7.83-.04.03-.05.07-.03.11.03.05.06.07.11.06.2-.04.3 0 .3.14l-.37.07a.24.24 0 0 1-.22-.06.24.24 0 0 1-.08-.22c.03-.17.1-.3.2-.37.25-.18.44-.39.57-.61a5.1 5.1 0 0 1 1.53-1.45c.35-.2.62-.2.82.02.19.2.24.48.15.84-.09.4-.26.8-.5 1.2a2.5 2.5 0 0 1-.89.93c-.07.04-.14.03-.18-.03-.02-.01 0-.03.02-.05Z" fill="#965C64"/><path d="m33.38 25.89.01-.06c.02-.02.04-.02.06 0l.46.34c.02.01.03.04.03.07 0 .03-.02.04-.05.05a.94.94 0 0 1-.2.03.1.1 0 0 1-.09-.05l-.22-.38Z" fill="#6D3943"/><path d="M35.12 28.76c-.3-.02-.51-.01-.62.01a.8.8 0 0 0-.46.3c-.04.06-.03.1.03.13.09.03.13.06.15.07.03.03.03.07 0 .13a.4.4 0 0 0-.07.34l-.74.16-.57-.41a.25.25 0 0 1-.1-.28c.14-.74.46-1.4.96-1.98.04-.05.1-.09.15-.1.17-.06.27 0 .32.17-.13.22-.32.43-.57.6-.1.08-.17.2-.2.38-.01.08.01.16.08.22.06.06.13.08.22.06l.36-.07.41.02c.5-.03.82-.25.97-.68.13-.35 0-.73-.37-1.13-.06-.07-.07-.14-.02-.22.05-.08.11-.1.2-.09.3.08.51-.04.64-.34a.14.14 0 0 1 .11-.09c.05 0 .1 0 .14.04.12.1.12.49 0 1.16l-.06.43c-.08.52-.4.91-.96 1.17Z" fill="#CDBBB7"/><path d="M22.1 26.78c.26.15.52.23.75.22.35 0 .73.2 1.13.64a8.7 8.7 0 0 1 .87 1.19c-.39.01-.7-.1-.96-.33a2.82 2.82 0 0 0-1.78-.71c-.1-.01-.17.03-.2.13-.02.04-.08.1-.18.18a.23.23 0 0 1-.22.03.23.23 0 0 1-.15-.16.71.71 0 0 1 .05-.54c.05-.1.16-.24.33-.42l.15-.16a.4.4 0 0 1 .2-.07ZM35.2 27.27c-.4-.06-.68.22-.83.85-.01.06 0 .1.02.14.02.03.06.06.12.08a.37.37 0 0 0-.04.17l-.4-.02c0-.13-.1-.18-.3-.14-.05 0-.08-.01-.1-.06-.03-.04-.02-.08.02-.11.27-.22.5-.5.7-.83.1-.15.25-.27.45-.34a.18.18 0 0 1 .17.01c.1.06.16.15.2.25Z" fill="#A48283"/><path d="M23.44 27.33c-.1-.1-.2-.15-.23-.11-.03.03.02.13.11.23.1.1.2.14.23.1.03-.02-.02-.13-.11-.22ZM35.2 27.28c.17.24.16.49-.01.73a.71.71 0 0 1-.68.33.26.26 0 0 1-.12-.08c-.03-.03-.03-.08-.02-.14.15-.63.43-.91.84-.84Z" fill="#B8A29F"/><path d="M18.54 30.26c-.06.02-.11 0-.15-.05-.03-.06-.03-.11.02-.16l.32-.32c.06-.06.07-.13.01-.2a1.25 1.25 0 0 1-.28-.77c-.01-.3.07-.56.24-.78.2-.27.52-.41.95-.43.43-.02.77.1 1.01.33a1.15 1.15 0 0 1 .21 1.45 1.33 1.33 0 0 1-1.35.66.95.95 0 0 1-.18-.06.52.52 0 0 0-.2-.05.25.25 0 0 0-.14.07c-.18.16-.34.27-.46.31Z" fill="#E3AEB4"/><path d="M23.35 28.48c-.39.16-.78.09-1.18-.2-.06-.05-.08-.1-.05-.17.03-.06.08-.09.14-.07l1.06.18c.06.01.1.05.1.12.02.07-.01.12-.07.14Z" fill="#CDBBB7"/><path d="M24.79 29.1c-.24.25-.36.3-.38.13-.9.52-1.7.69-2.38.5-.54-.16-.81-.49-.8-1a.4.4 0 0 1 .17-.32c.12-.08.24-.1.37-.05l.9.3.07.02c.72 0 1.4.13 2.05.41Z" fill="#A48283"/><path d="M22.98 29.32c.13-.04.22-.12.2-.2-.02-.07-.14-.1-.27-.06-.13.04-.22.13-.2.2.02.07.14.1.27.06Z" fill="#CDBBB7"/><path d="M18.87 29.31c-.07-.07-.09-.12-.04-.13.05.03.06.07.04.13Z" fill="#A48283"/><path d="m18.87 29.31.65.42c.04.02.04.03-.01.03a.8.8 0 0 1-.64-.45Z" fill="#965C64"/><path d="M36.2 30.13c-.19.15-.4.28-.65.4-.02 0-.03 0-.04-.02v-.03a9.9 9.9 0 0 0 1.18-.95c.02.02.02.03.01.04-.16.23-.33.42-.5.56ZM17.47 30c.15.16.2.27.14.33.2.28.46.46.81.52.05 0 .08.04.08.09 0 .05-.02.08-.07.1-.57.19-1.13.18-1.69-.03a.19.19 0 0 0-.16.01c-.11.07-.36.16-.76.27-.61.2-1.23.66-1.85 1.42-.02.02-.04.02-.06 0-.03 0-.04-.03-.03-.05l.18-.41c.25-.61.43-1.12.52-1.5a.51.51 0 0 1 .28-.37c1.01-.52 1.88-.65 2.6-.39Z" fill="#CDBBB7"/><path d="m19.19 38.04.31-1.82v-.1l-.48-3.63-.01-.1-.27-1.27a.24.24 0 0 1 .07-.23c.15-.14.14-.3-.03-.48-.06-.06-.06-.12.01-.17a.94.94 0 0 1 .34-.2c.05 0 .1 0 .14.02.39.17.82.11 1.32-.18a.07.07 0 0 1 .07 0c.02.01.04.03.04.06l-.01.83c-.01.78.28 1.31.88 1.6a5.67 5.67 0 0 0 2.07.36c.2.02.32.13.34.34l.35 4.47a.2.2 0 0 1-.1.2 2.88 2.88 0 0 1-1.86.33l-.51.07h-.1a9.17 9.17 0 0 0-2.48 0c-.07.01-.1-.02-.1-.1Z" fill="#E3AEB4"/><path d="m35.88 38.47-2.72-1.53c-.2-.1-.46-.32-.81-.65-.05-.05-.1-.05-.15 0a.77.77 0 0 0-.14.25.13.13 0 0 1-.13.09.13.13 0 0 1-.13-.08c-.37-.8-.36-2 .03-3.6.1-.4.08-.71-.03-.95a.3.3 0 0 0-.18-.15.29.29 0 0 0-.23.01c-.3.15-.6.38-.9.7a16.22 16.22 0 0 1-3.4 2.76c-.75.44-1.1.9-1.03 1.4.04.3.3.73.78 1.3.39.48.63.84.73 1.08.16.41.1.8-.17 1.17l-.78 1.21v.03h.04c.14-.1.24-.2.3-.29a4 4 0 0 0 .98-.09 100.49 100.49 0 0 1 1.23-.24c1.38-.2 2.4-.4 3.06-.63a34.33 34.33 0 0 1 2.1-.63l.04.05c.02.04 0 .07-.03.08a62.13 62.13 0 0 1-5.72 1.73 5.6 5.6 0 0 0-1.87.89c-.21.15-.48.22-.8.22a.29.29 0 0 1-.27-.16.3.3 0 0 1 0-.32c.7-1.08.58-2.12-.35-3.1a14.29 14.29 0 0 1-.6-3.33c0-.08.02-.16.05-.23.21-.49.53-.85.96-1.07.8-.42 1.62-.84 2.49-1.26a12.04 12.04 0 0 0 3.94-3.03.19.19 0 0 1 .21-.05c.13.04.24.1.34.18.06.05.08.12.05.2a8.2 8.2 0 0 0-.44 4.02A3.51 3.51 0 0 0 34.07 37c.78.48 1.56.86 2.34 1.11.02.01.04.03.04.05 0 .03-.01.05-.04.06l-.53.24Z" fill="#B8A29F"/><path d="M17.6 30.33c.07-.06.02-.17-.13-.34.57.15 1 .34 1.28.56.05.03.06.07.05.13a.12.12 0 0 1-.1.09c-.4.05-.77-.1-1.1-.44ZM15.92 31.43l.18-.07c.2-.09.35-.14.45-.16.16-.02.33 0 .52.06.06.02.1.06.11.11.02.06.01.11-.02.16l-.39.52c-.05.07-.1.07-.17.03l-.7-.53a.07.07 0 0 1-.02-.06c0-.03.01-.05.04-.06Z" fill="#E3AEB4"/><path d="m19.3 36.37-.28.15a.16.16 0 0 0-.1.15c0 1.15-.42 1.95-1.24 2.4-.07.04-.13.03-.18-.05l-.05-.08c-.01-.03-.03-.04-.06-.03-.03.01-.04.04-.04.07.09.4.08.84-.02 1.31a11.87 11.87 0 0 1-2.44-2.63l.18-.2c.05-.05.1-.06.16-.03.59.32 1.08.73 1.48 1.22.02.03.05.04.09.01.03-.02.03-.05.01-.08l-.2-.35c-.03-.07-.01-.1.07-.12.32-.04.6-.33.83-.89.17-.42.27-.84.3-1.25l.65.3c.02.01.04 0 .05-.02l.03-.04-.69-.48.64-.17c.09-.03.12-.08.08-.17a7.13 7.13 0 0 1-.52-2.16.3.3 0 0 0-.1-.19l-.3-.3a.22.22 0 0 1-.06-.14l-.04-.56a.51.51 0 0 1 .27-.52l.46-.26a.26.26 0 0 1 .26-.01c.1.04.14.12.15.22l.6 4.9Z" fill="#CDBBB7"/><path d="M17.33 32.3c.04-.03.09-.01.14.06.02.03.01.06-.01.09-.03.02-.05.03-.08 0a.46.46 0 0 0-.3-.07.15.15 0 0 1-.15-.07.15.15 0 0 1-.01-.16c.2-.4.36-.66.47-.77.05-.05.1-.05.15-.02.05.03.07.08.04.14-.09.23-.2.43-.35.6-.05.05-.05.1-.02.16.03.06.07.07.12.04ZM17.2 35.21l-.04.26c0 .18-.06.28-.2.33-.39-.68-.92-1.2-1.57-1.57a.14.14 0 0 0-.17.01l-1.58 1.2h-.02c.02.02.04.03.07.01.88-.44 1.37-.7 1.46-.75.29-.19.54-.18.75.04.24.23.46.47.66.71.4.46.42.96.08 1.49 0 .25-.05.43-.14.54a1.1 1.1 0 0 1-.4-1.12.38.38 0 0 0 .1-.06c.08-.07.08-.13 0-.18a1.59 1.59 0 0 1-.75-.8c-.03-.06-.07-.07-.12-.03-.08.07-.19.18-.32.33-.18.2-.33.35-.44.42-.19.11-.42.16-.68.14l-1.08-2.07c-.02-.04-.01-.08.02-.12l2.26-2.27c.1-.1.24-.16.4-.17.14 0 .28.04.4.13.48.4.91.71 1.3.94.63.38.9.88.8 1.5-.02.1 0 .17.06.23.1.13.22.43.33.9.02.08 0 .12-.08.12-.06 0-.14-.06-.25-.17-.06-.07-.1-.06-.14.02 0 .03.02.09.08.18.03.03.02.06 0 .08-.04.02-.05.03-.06.02a.57.57 0 0 1-.4-.37c-.2-.52-.45-1-.75-1.41a.65.65 0 0 0-.15-.15c-.33-.23-.56-.4-.7-.54-.42-.41-.81-.48-1.17-.2-.54.41-1.1.9-1.67 1.47-.02.03-.02.05 0 .07.02.02.04.02.06 0l1.6-1.37c.35-.28.68-.28 1 .03l.98.92c.38.35.54.77.48 1.26ZM35.88 38.47c-.63.46-1.13.95-1.5 1.45-.33.46-.63.89-.89 1.29l-2.52.8c-.03 0-.04.03-.04.06s.03.05.06.05h.13c.5-.01.84.04 1.02.16.08.06.16.18.23.36.05.17.11.29.18.36l-.33.57a.2.2 0 0 1-.12.1c-3.87.96-7.62.6-11.26-1.07.08-.27.22-.52.42-.75a.35.35 0 0 1 .23-.12l.87-.07c.06 0 .1-.04.11-.1l.23-1.21c.34.08.68.14 1.02.2.1.01.35.13.77.37.05.03.09.07.11.12l.4.82c.02.03.04.04.06.04.03 0 .05-.02.05-.05l.12-.69.1-2.14c.93.98 1.05 2.02.36 3.1a.3.3 0 0 0-.01.32c.05.1.14.16.26.16.33 0 .6-.07.81-.22a5.6 5.6 0 0 1 1.87-.9 62.1 62.1 0 0 0 5.72-1.72c.04-.01.05-.04.03-.08l-.03-.05h-.02c-.76.2-1.46.41-2.1.63a17.78 17.78 0 0 1-3.31.66l-.97.21c-.32.07-.65.1-.98.09.26-.37.41-.68.44-.95.28-.37.33-.76.17-1.17a4.6 4.6 0 0 0-.73-1.07c-.48-.58-.74-1.01-.78-1.31-.06-.5.28-.96 1.02-1.4 1.17-.69 2.3-1.61 3.41-2.77.3-.31.6-.54.9-.69a.29.29 0 0 1 .23-.01.3.3 0 0 1 .18.15c.11.24.12.56.03.95-.39 1.6-.4 2.8-.03 3.6.02.05.07.08.13.08s.1-.03.13-.09c.05-.13.1-.21.14-.25.05-.05.1-.05.15 0 .35.33.62.54.8.65.9.49 1.8 1 2.73 1.53Z" fill="#CDBBB7"/><path d="M16.1 36.36c-.05-.08-.14-.11-.27-.11a.22.22 0 0 1-.16-.07l-.23-.23c-.05-.04-.09-.04-.13.01a2.8 2.8 0 0 1-.91.51c-.04.01-.05.04-.04.07l.03.08c.02.03.04.04.07.02a.8.8 0 0 1 .28-.1c.1-.02.15.02.16.12.02.12-.03.27-.15.47-.02.03-.01.04.02.03l.56-.21c.02 0 .04-.02.06-.04l.1-.13c.07-.1.14-.1.22 0l.72.89c.15.1.3.1.44 0 .26-.18.32-.45.17-.82l-.08-.19a.17.17 0 0 1 .01-.15c.13-.26.13-.5 0-.71.13-.05.2-.15.19-.33-.03.15-.02.27.03.34.03.04.06.06.1.06.2 0 .38.03.52.1-.03.4-.13.83-.3 1.25-.23.56-.5.85-.83.9-.08 0-.1.04-.06.11l.2.35c.01.03 0 .06-.02.08-.04.03-.07.02-.09 0-.4-.5-.9-.9-1.48-1.23-.06-.03-.11-.02-.16.03l-.18.2-1-1.48c.26.02.5-.03.68-.14.11-.07.26-.21.44-.42.13-.15.24-.26.32-.33.05-.04.1-.03.12.03.12.32.37.59.74.8.09.05.1.11.02.18a.38.38 0 0 1-.12.06Z" fill="#B8A29F"/><path d="m17.85 35.73.68.48-.02.04c-.01.02-.03.03-.05.02l-.65-.3c-.14-.07-.31-.1-.51-.1a.11.11 0 0 1-.1-.06c-.06-.07-.07-.19-.04-.34l.05-.26c.25.15.47.32.64.52Z" fill="#A48283"/><path d="M19.3 36.37a10.65 10.65 0 0 1-1.12 3.54c-.14.27-.2.56-.15.86 0 .03-.01.04-.03.06a.05.05 0 0 1-.06-.01l-.6-.53c.1-.47.1-.91.01-1.31 0-.03 0-.06.04-.07.03-.01.05 0 .06.03l.05.08c.05.08.1.1.18.05.82-.45 1.23-1.25 1.25-2.4 0-.07.03-.12.09-.15l.27-.15Z" fill="#B8A29F"/><path d="M16.97 36.92v.48c0 .05-.03.08-.08.09-.05 0-.09-.01-.1-.06a.81.81 0 0 1-.03-.48c0-.04.02-.08.05-.1.03-.04.07-.05.1-.02.03.02.05.05.06.1Z" fill="#CDBBB7"/><path d="M16.43 37.67c.07-.04.09-.1.07-.19.09-.1.14-.29.14-.54l.12.01a.8.8 0 0 0 .02.48c.02.05.06.07.1.06.06-.01.08-.04.08-.1l.01-.47a.26.26 0 0 0 .07-.07c.15.37.1.64-.17.82-.14.1-.29.1-.44 0Z" fill="#965C64"/><path d="m25.02 40.29-.56-.4a.2.2 0 0 0-.26.01c-.35.25-.66.32-.93.21-.17-.06-.3-.08-.38-.05-.11.04-.18.14-.2.29l-.22 1.2c-.01.07-.05.1-.12.11l-.86.07c-.1 0-.17.05-.23.12-.2.23-.34.48-.42.75a1 1 0 0 1-.46-.26.14.14 0 0 1-.04-.15 9.33 9.33 0 0 1 2.13-3.6.25.25 0 0 1 .13-.07l1.69-.41c.04-.01.06 0 .08.04.01.04.03.1.03.17 0 .05.02.07.05.09a.1.1 0 0 0 .05 0c.01 0 .02 0 .03-.02l.14-.83c0-.02.01-.03.03-.03.02 0 .03 0 .03.02l.41 1.7v.03l-.12 1ZM21.45 38.4c.03.01.05.03.06.05l-.01.07a9.37 9.37 0 0 0-1.82 3.32c-.02.07-.06.08-.12.05l-1.16-.67a.19.19 0 0 1-.1-.15c-.04-.34 0-.7.12-1.09a9.79 9.79 0 0 1 .62-1.43c.04-.08.1-.12.19-.13.82-.1 1.56-.1 2.22-.01Z" fill="#A48283"/><path d="M39.56 39.29c-.92-.45-1.83-.35-2.71.3-.3.21-.67.59-1.13 1.13-.36.43-.45.97-.25 1.63l-1.62.71a.06.06 0 0 1-.07 0 .06.06 0 0 1-.02-.08c.4-1.14.9-2.1 1.46-2.85.79-1.07 1.66-1.61 2.6-1.63.47-.01 1.1.11 1.88.37.07.02.09.07.06.14a.7.7 0 0 1-.2.28Z" fill="#B8A29F"/><path d="M39.56 39.29a14.52 14.52 0 0 1-4.09 3.06c-.2-.66-.11-1.2.25-1.63.46-.54.84-.92 1.13-1.13.88-.65 1.79-.75 2.71-.3Z" fill="#CDBBB7"/><path d="M25.02 40.29c0 .38.06.67.21.87l-.12.69c0 .03-.02.04-.05.05-.02 0-.04-.01-.05-.04l-.4-.82a.27.27 0 0 0-.12-.12 3.83 3.83 0 0 0-.77-.37 16.1 16.1 0 0 1-1.02-.2c.01-.15.08-.25.19-.29.09-.03.21-.01.38.05.27.11.58.04.93-.21a.2.2 0 0 1 .26 0l.56.39Z" fill="#B8A29F"/><path d="M27.4 40.27c-.03.27-.18.58-.44.95-.06.1-.16.2-.3.3h-.03v-.04l.77-1.21Z" fill="#A48283"/><path d="m33.5 41.2-.95 1.8c-.07-.07-.13-.2-.18-.36-.07-.18-.15-.3-.23-.36-.18-.12-.52-.17-1.02-.16h-.13c-.03 0-.05-.02-.06-.05 0-.03.01-.05.04-.06l2.52-.8Z" fill="#B8A29F"/></svg>