<!-- by TradingView --><svg width="56" height="56" viewBox="0 0 56 56" xmlns="http://www.w3.org/2000/svg"><path fill="#FBAE42" d="M0 0h56v56H0z"/><path d="M33.59 15.46c1.53.12 2.97.58 4.3 1.4.1.05.13.14.1.27a842.17 842.17 0 0 1-1.2 7.06.15.15 0 0 1-.05.05c-.11.06-.2.03-.29-.1a5.75 5.75 0 0 0-3.37-2.47c-3.84-1.06-7.8.29-9.58 4.13-.88 1.91-1.2 4.61-.07 6.5.92 1.54 2.61 2.26 4.34 2.35a9.55 9.55 0 0 0 7.55-2.97h.07l.05.05.02.06c0 .12-.01.26-.04.43l-1.13 6.67a.31.31 0 0 1-.18.24 12.5 12.5 0 0 1-4.77 1.42c-.07 0-.1.04-.12.1l-.9 5.27-.03.06a.08.08 0 0 1-.05.02h-2l-.03-.02a.07.07 0 0 1-.01-.06l.88-5.15a.1.1 0 0 0-.06-.1l-.04-.01c-.76 0-1.51-.05-2.27-.15-.03 0-.07 0-.1.03a.15.15 0 0 0-.06.09l-.9 5.29a.1.1 0 0 1-.03.06.1.1 0 0 1-.06.02h-1.99c-.03 0-.05-.02-.04-.06l1-5.84c0-.03 0-.06-.02-.1a.13.13 0 0 0-.07-.05c-4.9-1.65-6.99-6.24-6.32-11.32.79-6 4.74-10.84 10.39-12.56.09-.03.14-.1.16-.23l1-5.77c0-.04.03-.07.07-.07h2.03l.02.02a.06.06 0 0 1 0 .05l-.9 5.3a.1.1 0 0 0 .03.1.1.1 0 0 0 .09.03 16.3 16.3 0 0 1 2.41-.17.08.08 0 0 0 .03-.04l.88-5.2c0-.02.01-.04.03-.05a.08.08 0 0 1 .05-.02l1.95-.02a.1.1 0 0 1 .08.04.1.1 0 0 1 .02.08l-.91 5.29a.05.05 0 0 0 0 .03.05.05 0 0 0 .04.02Z" fill="#fff"/></svg>