<svg width="112" height="112" viewBox="0 0 56 56" xmlns="http://www.w3.org/2000/svg"><rect fill="url(#aohcc4112)" width="56" height="56" rx="28"/><path d="M34.81 16.11a37.31 37.31 0 0 1 2.57 4.86.07.07 0 0 1-.02.06l-.03.01-1.16.23-.49.06c-.03 0-.05.02-.05.06l-.02.71-.03.1c-.66-.46-1.36-.85-2.1-1.18-.03-.01-.06 0-.08.02-.14.18-.32.3-.53.38-.04 0-.05.03-.04.07a.98.98 0 0 1-1.42 1.1c-.37-.2-.54-.53-.79-.9a3.1 3.1 0 0 0-4.4-.75c-.45.32-.7.71-.98 1.12-.28.4-.61.7-1.1.65-.42-.03-.9-.42-.85-.91l-.01-.31a.09.09 0 0 0-.05-.07l-.4-.23c-.18-.02-.38.04-.6.16a14.5 14.5 0 0 0-1.89 1.24h-.03l-.02-.02v-.03a.2.2 0 0 0-.02-.13l-.06-.97-1.36-.2c-.11-.02-.15-.08-.1-.18a35.08 35.08 0 0 1 2.23-4.46A42.07 42.07 0 0 1 27.92 8l.04.01a44.03 44.03 0 0 1 6.85 8.1Z" fill="#A80017"/><path d="M23.87 19.98c-.34.42-.43.77-.55 1.22l-.03.03a.06.06 0 0 1-.05 0c-.17-.02-.28-.1-.35-.19-.26-.38-.07-.75.16-1.14.9-1.44 2.55-1.85 4.06-1.04a2.95 2.95 0 0 1 .66.48v.02l-.02.02h-.02c-.42-.11-.9-.27-1.27-.3-.94-.12-1.97.16-2.59.9ZM31.3 19.3c-.9-.42-1.95-.21-2.88.07-.03 0-.04 0-.04-.03s.02-.07.07-.1c1.25-1 2.83-1.13 4.06 0 .51.48 1.38 1.5.4 2.02a.08.08 0 0 1-.07 0 4.96 4.96 0 0 0-.26-.72c-.11-.3-.33-.53-.52-.78a2.28 2.28 0 0 0-.75-.46Z" fill="#E10B41"/><path d="m28.04 20.14.04-.01.03-.02.01-.04-.01-.4c0-.04.02-.06.05-.08 1.68-.77 3.87-.65 4.47 1.38.06.2.03.41.07.64.13.79-.71 1.23-1.36.8-.24-.17-.42-.5-.6-.75-.63-.93-1.47-1.32-2.57-1.48l-.07-.02a.07.07 0 0 0-.08.01 3.38 3.38 0 0 0-2.5 1.24c-.34.42-.63 1.32-1.48 1.14-.44-.09-.63-.4-.63-.85 0-.73.27-1.47.83-1.95 1.06-.9 2.54-.66 3.71-.16.03.02.05.04.05.08v.45c0 .02.02.03.04.02Z" fill="#E10B41"/><path d="M35.58 22.2c.33.27.7.54 1 .82 1.03 1.01 1.95 2.12 2.74 3.33.08.13.1.27.2.4.25.3.44.62.65.95.01.03.04.05.06.06l.1.06c.02.03.02.04-.02.02l-.66-.33a6.7 6.7 0 0 0-2.49-.7c-.4-.03-.78-.04-1.2-.11-2.38-.42-4.48.22-5.84 2.24-.02.03-.05.04-.08.03l-.39-.13a5.81 5.81 0 0 0-3.42.11c-.03.01-.06 0-.08-.02-1.44-1.99-3.37-2.65-5.81-2.24-.26.04-.54.07-.83.08-1.19.05-2.3.4-3.34 1.02-.02.02-.04.02-.06.02-.02 0-.02-.02 0-.04a.31.31 0 0 0 .06-.05c1.32-1.95 2.75-3.91 4.66-5.35.5-.37 1.16-.76 2-1.18l.4.23c.03.01.05.04.05.07v.31c-.03.5.44.88.87.91.48.04.81-.25 1.09-.65s.53-.8.97-1.12a3.1 3.1 0 0 1 4.41.75c.25.37.42.7.79.9a.98.98 0 0 0 1.42-1.1c0-.04 0-.06.04-.07.21-.08.39-.2.53-.38.02-.02.05-.03.08-.02.74.33 1.44.72 2.1 1.17Z" fill="#FEFFFF"/><path d="M22.83 21.2c-.84.4-1.5.8-2 1.17-1.91 1.44-3.34 3.4-4.66 5.35a.3.3 0 0 1-.06.05c-.02.02-.02.03 0 .04.02 0 .04 0 .06-.02a6.83 6.83 0 0 1 3.34-1.02c.3-.01.57-.04.83-.08 2.44-.41 4.37.25 5.81 2.24.02.02.05.03.08.02a5.81 5.81 0 0 1 3.42-.11c.1.02.26.1.39.13.03 0 .06 0 .08-.03 1.37-2.02 3.46-2.66 5.85-2.24.41.07.79.08 1.2.1.87.08 1.7.32 2.48.71a32.95 32.95 0 0 0 .68.31.33.33 0 0 0-.1-.06.16.16 0 0 1-.06-.06c-.2-.33-.4-.64-.64-.95-.11-.13-.13-.27-.2-.4-.8-1.2-1.72-2.32-2.76-3.33-.3-.28-.66-.55-1-.83l.04-.09a9.71 9.71 0 0 1 1.7 1.5c.8.94 1.48 1.74 2.22 2.91.04.06.11.12.22.2 1 .66 1.72 1.65 1.97 2.88 0 .36.07.71.19 1.07.08.25-.03.52-.07.76-.02.15-.02.32.02.48.2.96.19 1.92-.03 2.89a7.43 7.43 0 0 1-1.53 2.8 14.43 14.43 0 0 1-5.08 3.57c-.04.01-.06.05-.05.11-.03-.04-.06-.05-.08-.05.05-.03.06-.06.03-.1 2.32-.99 4.71-2.65 5.98-4.83.47-.8.73-1.66.79-2.57.03-.56-.02-1.2-.1-1.85-.01-.09-.03-.1-.06 0-.8 2.79-3.24 4.14-5.95 4.77-.29.07-.62.07-.92.1a5.14 5.14 0 0 1-5.53-4.87c-.02-.63.06-1.05.15-1.59 0-.03 0-.05-.04-.06-.87-.2-1.75-.2-2.62 0-.04 0-.05.02-.04.06a5 5 0 0 1-1.16 4.77c-.01-.11.02-.2.1-.27.5-.54.84-1.36 1-2.07.07-.4.05-.86.07-1.32a4.13 4.13 0 0 0-.57-2.17h.02a.03.03 0 0 1 .03 0c.22.27.33.54.45.84a.09.09 0 0 0 .07.05.1.1 0 0 0 .08-.02c.1-.09.2-.07.33-.1.47-.07.94-.08 1.42-.02.2.03.5.02.75.13a.17.17 0 0 0 .18-.03.16.16 0 0 0 .04-.05l.32-.72a.04.04 0 0 1 .02-.02.04.04 0 0 1 .03 0h.02a4.68 4.68 0 0 0-.44 1.35c-.04.26-.02.52-.04.79-.03.57.06 1.12.17 1.67.04.18.12.3.2.46.04.12.1.23.16.32.22.31.3.62.62.87.06.04.09.1.1.2 0 .02.02.04.05.06.2.14.37.31.56.45.2.13.39.27.57.42.25.2.59.38.9.46a7.96 7.96 0 0 1 .44.16l.02.03.07.02.58.04h.02l.01.03h.01c.24.03.54.02.9-.03a8.96 8.96 0 0 0 1.57-.32c.65-.2 1.28-.72 1.78-1.2a4.79 4.79 0 0 0 1.38-3.67 4.69 4.69 0 0 0-1.8-3.5 10.67 10.67 0 0 0-.87-.68v-.02l.03-.02.03-.01a5.07 5.07 0 0 1 .73 8.55h.03a7.54 7.54 0 0 0 3.02-4.24.3.3 0 0 0 0-.18l-.8-2.38c-.26-.78-2.22-1.54-2.98-1.8a.56.56 0 0 0-.21.01h-.1a7.01 7.01 0 0 0-2.32-.4c-.25-.01-.52.01-.8.07-.4.09-.66.15-.78.19-.81.25-1.6.91-2.18 1.5-.2.22-.3.52-.56.73h-.02a.04.04 0 0 1-.03-.01v-.02c-.03-.1-.1-.16-.22-.19-.78-.17-1.41-.32-2.13-.18-.25.05-.52.02-.73.08a254.51 254.51 0 0 1-.78.19.07.07 0 0 1-.04-.03c-.92-1.18-1.86-2.04-3.46-2.26-.16-.02-.35-.1-.53-.1-.38.03-.74 0-1.07.05a4.92 4.92 0 0 0-.32 9.75c.55.11 1.19.07 1.8.08.08 0 .22-.03.42-.1.1-.04.24-.08.43-.12.3-.07.6-.2.92-.42.15-.1.27-.12.36-.04-1.21.82-2.65 1-4.06.77a7.62 7.62 0 0 1-1.22-.33c-2.48-.86-4.34-2.23-4.85-4.9l-.1-.14a.82.82 0 0 0 0-.4 14.57 14.57 0 0 0 .25-1.42c.15-1.07.99-2.12 1.95-2.77.16-.1.28-.22.38-.36l.66-.89c.12-.17.34-.4.47-.63a.18.18 0 0 1 .06-.06.7.7 0 0 0 .27-.33c.4-.44.72-.87 1.18-1.3.24-.21.58-.28.63-.72a.2.2 0 0 1 .02.13v.03l.02.02a.05.05 0 0 0 .06 0c.58-.46 1.2-.87 1.86-1.24.22-.12.42-.18.6-.16Z" fill="#2C2E30"/><path d="M37 27.12c-.02.05-.02.06 0 .04a.34.34 0 0 1-.03.01l-.02.02a.05.05 0 0 0 0 .05v.01c.3.2.58.41.86.64a4.69 4.69 0 0 1 1.8 3.5 4.79 4.79 0 0 1-1.38 3.67c-.5.48-1.13 1-1.78 1.2a8.96 8.96 0 0 1-2.47.36v-.01l-.02-.02-.02-.01-.58-.04a.13.13 0 0 1-.07-.02l-.02-.03a8.03 8.03 0 0 0-.44-.16 2.68 2.68 0 0 1-.9-.46 9.24 9.24 0 0 0-.57-.42L30.8 35a.1.1 0 0 1-.05-.07.3.3 0 0 0-.1-.19c-.31-.25-.4-.56-.62-.87-.06-.1-.12-.2-.17-.32-.07-.16-.15-.28-.19-.46-.1-.55-.2-1.1-.17-1.67.02-.27 0-.53.05-.78a4.68 4.68 0 0 1 .43-1.35l-.02-.01h-.01a.04.04 0 0 0-.03 0l-.01.02-.32.72a.16.16 0 0 1-.1.09.17.17 0 0 1-.12 0c-.24-.12-.55-.11-.75-.14a4.81 4.81 0 0 0-1.42.03c-.13.02-.23 0-.33.1a.1.1 0 0 1-.12 0 .09.09 0 0 1-.03-.04c-.12-.3-.23-.57-.45-.84h-.05c.38.68.59 1.42.57 2.17-.02.46 0 .92-.08 1.32a4.43 4.43 0 0 1-1 2.07.34.34 0 0 0-.1.27l-.96.84c-.09-.08-.2-.06-.36.04-.32.21-.63.35-.92.42-.19.04-.33.08-.43.12-.2.07-.34.1-.43.1-.6 0-1.24.03-1.8-.07a4.92 4.92 0 0 1 .32-9.75c.34-.07.7-.03 1.08-.05.18-.01.37.07.53.1 1.6.2 2.54 1.07 3.46 2.25a.07.07 0 0 0 .08.03l.74-.2c.21-.05.48-.02.73-.07.72-.14 1.35 0 2.13.18.12.03.2.1.21.2l.02.02h.04c.27-.21.36-.51.56-.72a5.71 5.71 0 0 1 2.18-1.51c.12-.04.38-.1.78-.19.28-.06.55-.08.8-.08.81.02 1.53.11 2.33.4.03.02.06.02.09.01a.56.56 0 0 1 .21 0Z" fill="#3E4444"/><path d="M19.07 27.29a4.97 4.97 0 0 0-2.51 4.15 4.9 4.9 0 0 0 2.01 4.27l-.01.01c-.01.02-.02.02-.04.01a7.5 7.5 0 0 1-3.03-4.23.66.66 0 0 1 .03-.33c.27-.77.53-1.54.77-2.3.03-.1.12-.23.2-.3a7.5 7.5 0 0 1 2.78-1.4l-.2.12ZM37 27.12c.76.25 2.72 1.01 2.98 1.8l.8 2.37a.3.3 0 0 1 0 .18 7.54 7.54 0 0 1-3.05 4.24v-.03a5.07 5.07 0 0 0-.73-8.52c-.02.02-.02 0 0-.04Z" fill="#6A7070"/><path d="M37.52 34.32a4.1 4.1 0 0 1-6.64-.78 4.03 4.03 0 0 1 3.39-5.88 4.02 4.02 0 0 1 3.29 1.33 3.88 3.88 0 0 1 .28 5c-.09.12-.22.22-.32.33ZM24.32 34.76a4.1 4.1 0 0 1-6.62-2.4 5.29 5.29 0 0 1-.02-1.07 3.7 3.7 0 0 1 .83-2.08c.31-.31.64-.68.99-.9a4.16 4.16 0 0 1 5.83 1.39c.57.96.7 1.98.38 3.07-.15.5-.46.9-.71 1.36a.27.27 0 0 1-.05.06l-.59.56h-.04Z" fill="#2C2E30"/><path d="M25.75 31.66a3.8 3.8 0 0 1-1.17 2.75 4 4 0 0 1-2.82 1.14 4.03 4.03 0 0 1-2.82-1.14 3.84 3.84 0 0 1 0-5.5 4.03 4.03 0 0 1 6.5 1.26c.2.47.3.98.3 1.49ZM38.49 31.66c0 1.03-.42 2.02-1.17 2.75a4.03 4.03 0 0 1-5.63 0 3.84 3.84 0 0 1 1.3-6.34 4.07 4.07 0 0 1 4.33.84 3.84 3.84 0 0 1 1.17 2.75Z" fill="#808585"/><path d="M21.75 35.1a3.5 3.5 0 0 0 3.54-3.44 3.5 3.5 0 0 0-3.54-3.45 3.5 3.5 0 0 0-3.53 3.45 3.5 3.5 0 0 0 3.53 3.45ZM34.52 35.1a3.5 3.5 0 0 0 3.53-3.44 3.5 3.5 0 0 0-3.53-3.45 3.5 3.5 0 0 0-3.54 3.45 3.5 3.5 0 0 0 3.54 3.45Z" fill="#151247"/><path d="M14.91 30.43a.21.21 0 0 1-.1-.08.35.35 0 0 1-.05-.14.6.6 0 0 1 0-.18.8.8 0 0 1 .07-.2l.38-.84a.82.82 0 0 1 .1-.17l.14-.12.14-.06c.05-.01.09 0 .13.01l-.8 1.78ZM40.98 28.75c.2.32.83 1.38.53 1.62-.05.04-.08.03-.1-.03l-.74-1.63a.06.06 0 0 1 0-.06.06.06 0 0 1 .06-.03h.04c.1.01.16.05.2.13Z" fill="#6A7070"/><path d="m41.89 33.72-.3.59c-.09.14-.18.34-.3.58a8.33 8.33 0 0 1-2.13 2.65 14.79 14.79 0 0 1-5.38 3c-.37.12-.74.23-1.12.33-.17.05-.3.07-.43.07-.03 0-.06 0-.09.02-.14.08-.32.07-.44.1-.34.1-.7.15-1.06.16-.18 0-.28.12-.48.1-.38-.02-.76.08-1.1.09-.77 0-1.6.05-2.38-.06-.36-.05-.72 0-1.07-.08l-.49-.1c-1.23-.18-2.42-.5-3.58-.92-2.39-.89-4.58-2.4-6.16-4.38-.47-.6-.9-1.38-1.25-2.38-.03-.64.08-1.32.33-2.02.01-.04.03-.05.06-.04.51 2.67 2.37 4.04 4.85 4.9.48.16.89.27 1.22.33 1.41.23 2.85.05 4.06-.77l.97-.84a5 5 0 0 0 1.16-4.77c-.01-.04 0-.06.04-.07a6.03 6.03 0 0 1 2.62.01c.03 0 .05.03.04.06-.09.54-.17.96-.15 1.6a5.14 5.14 0 0 0 5.53 4.85c.3-.02.63-.02.92-.09 2.7-.63 5.15-1.98 5.95-4.78.03-.08.05-.08.06 0 .08.66.13 1.3.1 1.86Z" fill="#FEFFFF"/><path d="m14.43 31.29.09.14c-.03-.01-.05 0-.06.04-.25.7-.36 1.38-.33 2.02-.01 1.4.66 2.76 1.56 3.8a15.04 15.04 0 0 0 7.49 4.54c3.87 1.04 8.21.82 11.94-.72.03.05.02.08-.03.11-.02.05-.05.07-.08.08-.13.03-.24.07-.34.12-.33.15-.66.24-1 .36-.03.01-.04.04-.03.08l.15.29.04.04a.1.1 0 0 0 .05 0c.42-.05.82 0 1.2.15h.04l.02-.01.01.04c0 .02.02.04.05.05A6.7 6.7 0 0 1 37.36 44h-.1a6.4 6.4 0 0 0-1.02-.88c-.72-.5-1.49-.9-2.32-.8a1.6 1.6 0 0 0-.47.23l-.01.04c-.01.26-.03.48.1.72l.4.69h-.16c-.08-.2-.17-.39-.29-.55-.04-.06-.06-.05-.06.02V44h-.08l.04-1.68c0-.01 0-.03.02-.04a.07.07 0 0 1 .04-.02l.18-.01a.06.06 0 0 0 .04-.03.05.05 0 0 0 0-.05l-.11-.25c-.04-.08-.11-.11-.2-.09-.45.13-.88.24-1.32.32-.07.02-.09.05-.06.1a.1.1 0 0 1 0 .1c-.1.18-.1.52-.14.82-.04.22-.04.5-.02.83h-.08c-.02-.43.01-.85.08-1.27.02-.12 0-.32.09-.48v-.03a.03.03 0 0 0-.04-.01 21.33 21.33 0 0 1-7.48.02.04.04 0 0 0-.01.03L24.5 44h-.07c0-.6-.05-1.19-.18-1.77a.05.05 0 0 0-.04-.05l-1.36-.32a.19.19 0 0 0-.13.02.18.18 0 0 0-.09.1l-.03.08c-.04.1-.01.15.09.18.1.02.17.08.17.16.02.4.03.92.03 1.6h-.08c.03-.19.03-.37 0-.56 0-.04-.01-.04-.03 0l-.28.56h-.12c.08-.22.18-.42.3-.62.19-.3.14-.58.08-.9a.07.07 0 0 0-.05-.06c-.12-.03-.2-.1-.33-.1-1.25-.05-2.46.84-3.24 1.68H19a6.87 6.87 0 0 1 1.67-1.32.08.08 0 0 0 .04-.08v-.24c0 .07 0 .13.03.17 0 .04.03.04.06.03.44-.24 1-.44 1.51-.36.04 0 .06 0 .08-.03l.22-.24a.07.07 0 0 0 0-.09l-.02-.02a1.86 1.86 0 0 0-.42-.16c-.1-.02-.2-.05-.3-.1l-1.1-.42c-.04-.01-.06 0-.08.03a.3.3 0 0 0-.01.12l-.02-.19-.01-.04A6.24 6.24 0 0 1 14 33.11c.03-.53.14-1.36.42-1.82Z" fill="#605452"/><path d="M14.13 33.5c.36.99.78 1.78 1.25 2.37a14.28 14.28 0 0 0 6.16 4.38 18.74 18.74 0 0 0 4.07 1.02c.35.07.71.03 1.07.08.77.11 1.6.06 2.39.06.33 0 .7-.11 1.09-.08.2.01.3-.1.48-.1.37-.02.72-.07 1.06-.17.12-.03.3-.02.44-.1a.18.18 0 0 1 .1-.02c.11 0 .25-.02.42-.07.38-.1.75-.21 1.12-.33 2.01-.63 3.8-1.63 5.38-3a8.33 8.33 0 0 0 2.42-3.23l.3-.59c-.05.9-.3 1.76-.78 2.57-1.27 2.18-3.66 3.84-5.98 4.82a18.97 18.97 0 0 1-11.94.72 15.04 15.04 0 0 1-7.49-4.53 5.94 5.94 0 0 1-1.56-3.8Z" fill="#E5E4E4"/><path d="M29.64 37.83a.1.1 0 0 1 .03.02c.01 0 .01 0 0 0a9.22 9.22 0 0 1-2.57.09c-.3-.07-.58-.07-.87-.2-.31-.15-.2-.44-.08-.71a5.2 5.2 0 0 1 1.38-1.86c1.07-.9 2.4 1.4 2.68 2.07.17.38-.19.63-.57.58v.01Z" fill="#605452"/><path d="M29.84 36.81c.12.24.58.72.04.85-1.2.3-2.36.31-3.5.02a.34.34 0 0 1-.23-.2.1.1 0 0 1 0-.09c.31-.9.85-1.65 1.62-2.24.26-.2.72-.02.98.22.45.41.82.9 1.09 1.44Z" fill="#FFC141"/><path d="m20.71 42.36-.03-1.07.01-.12c.02-.03.04-.04.07-.03l1.1.43.31.1a1.86 1.86 0 0 1 .44.17.07.07 0 0 1 0 .09l-.22.24a.08.08 0 0 1-.08.03 2.5 2.5 0 0 0-1.51.36c-.03.01-.05 0-.06-.03a.43.43 0 0 1-.03-.17ZM35.09 41.22c.02 0 .05.01.08.05l-.03 1.06h-.02c0 .02-.02.02-.03.01a2.3 2.3 0 0 0-1.2-.15.1.1 0 0 1-.1-.04l-.15-.3c-.01-.03 0-.06.04-.07.33-.12.66-.2.99-.36.1-.05.21-.09.34-.12.03-.01.06-.03.08-.08Z" fill="#A80017"/><path d="M33.35 44h-1.53c-.02-.33-.02-.61.02-.83.05-.3.04-.64.14-.83a.1.1 0 0 0 0-.08c-.03-.06 0-.1.06-.1.44-.1.87-.2 1.32-.33.09-.02.16 0 .2.1l.12.24v.05a.05.05 0 0 1-.05.03h-.18c-.02 0-.03.02-.05.03a.07.07 0 0 0-.01.04L33.35 44ZM24.44 44H22.9c0-.68-.01-1.2-.03-1.6 0-.08-.06-.14-.17-.16-.1-.03-.13-.09-.1-.18l.04-.09a.18.18 0 0 1 .09-.1.19.19 0 0 1 .13 0l1.36.31c.02 0 .04.02.04.05.13.58.19 1.18.18 1.77Z" fill="#E0C5A7"/><path d="M31.74 44H24.5l-.13-1.74v-.01a.04.04 0 0 1 .05-.03 21.34 21.34 0 0 0 7.48 0 .03.03 0 0 1 0 .03c-.09.16-.07.36-.1.48-.06.42-.09.84-.07 1.27ZM22.39 44h-3.24c.78-.84 1.99-1.73 3.24-1.68.12 0 .2.07.33.1.02.01.04.03.05.06.06.32.1.6-.08.9-.12.2-.22.4-.3.62ZM37.25 44h-3.3c-.14-.22-.28-.45-.4-.69-.14-.24-.12-.46-.11-.72a.08.08 0 0 1 .04-.07c.22-.12.36-.19.44-.2.83-.1 1.6.3 2.32.8.36.26.7.55 1.01.88ZM22.81 44h-.3l.28-.56c.02-.04.03-.04.04 0 .02.19.02.37-.02.56Z" fill="#E5E4E4"/><path d="M33.78 44h-.35v-.53c0-.07.02-.08.06-.02.12.16.21.34.29.55Z" fill="#FEFFFF"/><defs><linearGradient id="aohcc4112" x1="28" y1="0" x2="28" y2="56" gradientUnits="userSpaceOnUse"><stop stop-color="#00A5E3"/><stop offset="1" stop-color="#99DBF5"/></linearGradient></defs></svg>