<svg width="56" height="56" viewBox="0 0 56 56" xmlns="http://www.w3.org/2000/svg"><path d="M15.92 26.98c.2 5.8 4.4 10.6 10.24 10.59l1.32-.02c.05 0 .1.02.14.05.05.02.08.06.1.11l2 5.12c.05.1.01.16-.1.16l-2.76.01a.32.32 0 0 1-.33-.23l-.72-1.93a.44.44 0 0 0-.38-.29C17.84 40 12.7 33.46 13 25.9a14.44 14.44 0 0 1 7.96-11.53.12.12 0 0 1 .1.04l.02.04.94 2.43c.02.06.02.12 0 .17a.23.23 0 0 1-.1.13c-3.51 1.97-6.05 5.58-6.01 9.8Z" fill="#fff"/><path d="M33.55 38.2a13.81 13.81 0 0 0 4.01-4.51 15.07 15.07 0 0 0 1.79-8.04.1.1 0 0 1 .08-.06.1.1 0 0 1 .06.01c.89.42 1.58.25 2.07-.5.56-.88-.15-1.72-.73-2.39l-.3-.34a.22.22 0 0 1 .03-.3l2.37-1.93c.1-.1.09-.14-.05-.14h-1.8a.1.1 0 0 1-.1-.06.1.1 0 0 1 .02-.1c1.3-1.48 1.56-3.2.8-4.8A3.76 3.76 0 0 0 38.77 13c-.19-.02-.29.07-.28.27v1.38c.01.12-.05.16-.16.12l-.23-.07c-.28-.1-.56-.2-.85-.23a3.7 3.7 0 0 0-3.2 1.16c-.06.06-.06.13.01.19l1.75 1.51a.16.16 0 0 1-.05.26c-3.09 1.15-5.47 3-6.96 5.99-.26.52-.47 1.1-.67 1.66-.13.38-.26.75-.41 1.1a2.95 2.95 0 0 1-4.11 1.54 3.28 3.28 0 0 1-1.6-1.96c-.64-1.9.2-3.07 1.7-4.16a.19.19 0 0 0 .06-.22l-.95-2.46c-.03-.09-.1-.11-.18-.07a6.38 6.38 0 0 0-3.44 7.79c.96 2.9 3.9 5 6.98 4.26a6.1 6.1 0 0 0 4.49-4.17 8.78 8.78 0 0 1 5.64-6.33.1.1 0 0 1 .08.05l.01.05-.05 7.35a10.9 10.9 0 0 1-6.44 8.9.3.3 0 0 0-.15.38l2.13 5.54a.26.26 0 0 0 .25.17h2.77c.13 0 .17-.07.13-.2l-1.62-4.15a.38.38 0 0 1 .13-.45ZM40 20a1 1 0 1 1-2 0 1 1 0 0 1 2 0Z" fill="#fff"/><defs><linearGradient id="a" x1="42" y1="7" x2="16.5" y2="52.5" gradientUnits="userSpaceOnUse"><stop stop-color="#F4895D"/><stop offset="1" stop-color="#FF4C64"/></linearGradient></defs></svg>