<svg width="112" height="112" viewBox="0 0 56 56" xmlns="http://www.w3.org/2000/svg"><rect fill="#DE1F26" width="56" height="56" rx="28"/><path d="M36.56 41.66c-.4.3-.9.5-1.48.58-.46.06-.93-.17-1.41-.7h-.04c-.8.27-1.62.44-2.49.48-.08 0-.14.05-.17.13-.52 1.55-2.64 2.37-3.97 1.49-.3-.2-.59-.31-.86-.34-.18-.02-.66-.11-1.43-.28-.47-.1-.94-.18-1.43-.26a23.28 23.28 0 0 1-4.82-1.24c-1.22-.46-2.8-1.27-3.63-2.3a7.56 7.56 0 0 1-1.64-3.23c-.4-2.01-.18-4 .65-5.95l.6-1.45a.26.26 0 0 0-.01-.23 4.18 4.18 0 0 1-.3-3.88c.5-1.33.86-2.26 1.09-2.78.2-.47.23-1.14.08-2.02-.04-.3-.25-.77-.6-1.45-.32-.58-.43-1.26.3-1.48.84-.24 1.42.45 1.71 1.25.42 1.12.43 2.24.03 3.35-.11.33-.42 1.06-.92 2.18-.3.66-.63 2.25-.23 3.04.12.23.2.22.23-.05.11-1 .38-1.9.78-2.72.07-.15.2-.34.39-.58.22-.28.35-.45.4-.81.26-1.75.92-3.73 2.26-4.83.07-.05.11-.12.13-.2.23-.95.34-1.54.33-1.78-.03-.9.07-1.74.3-2.53a2 2 0 0 1 .63-.9c.33-.3.74-.15 1.05.07.58.43.94.77 1.08 1.04.18.35.39.72.61 1.1.05.07.11.12.2.13.84.1 1.6.35 2.25.71.08.04.15.05.23.02.23-.1.52-.2.87-.32.51-.18 1.18-.11 1.56-.74.46-.78 1-1.5 1.77-1.82a.25.25 0 0 1 .12-.02c.04 0 .08.02.12.04.65.44.68 1.72.74 2.53a.29.29 0 0 0 .12.21c.53.36.86.82.98 1.38.01.04.03.08.06.11.02.04.06.06.1.08.55.25.95.58 1.2.97.05.07.11.12.2.14.26.08.46.26.6.55a.3.3 0 0 1 .02.23c-.12.4-.15.99-.1 1.75 0 .12-.04.26-.13.41-.15.26-.46.4-.64.54-.09.08-.13.14-.1.18l.1.32c.04.08.04.16.03.25-.1.41-.38.62-.86.62-.09 0-.14.04-.16.13-.03.16.04.3.22.4.53.32.9.71 1.08 1.16.04.08.09.14.16.19a7.94 7.94 0 0 1 2.78 2.85c.05.07.1.13.18.16.43.21 1.23.53 1.72.9.77.6 1.65.88 2.4 1.54a6.03 6.03 0 0 1 2.11 4.83c0 .09.04.12.13.11.32-.04.63 0 .94.1.08.04.15.02.2-.05l.31-.54c.24-.43.9-.68 1.33-.31.88.76-.05 1.55-.06 2.41-.02 1.1.04 2.06-.33 3.15-.23.67-.83.61-1.47.47a4.05 4.05 0 0 0-2.24.07c-.54.19-1.01.3-1.4.33-.13 0-.45.07-.97.18-.17.04-.44.2-.8.5-.74.59-1.6.72-2.59.4a.2.2 0 0 0-.2.03Z" fill="#010100"/><path d="M21.3 18.51c.55.17 1.27.5 2.15 1a6.4 6.4 0 0 0 2.78.84c.24.02.48.14.71.36.05.04.11.07.18.09l.23.04c.14.03.14.07.01.12a.5.5 0 0 1-.09.03.23.23 0 0 1-.22-.04.61.61 0 0 0-.45-.15c-1.22.12-2.36.04-3.4-.23-.07-.01-.1 0-.11.07l-.01.07c0 .02 0 .04.02.05.49.22 1 .33 1.54.32l2.02.05c.08 0 .1.03.06.1l-.04.07a.08.08 0 0 1-.07.04c-1.61.2-2.53.6-2.73 1.19-.21.61.03 1.05.72 1.3.31.1.84.03 1.6-.23a14.3 14.3 0 0 1 6.32-.7c.09.01.15.05.2.12.1.17.27.42.47.53.43.24.73.6.92 1.06.03.09.09.15.16.19.54.29 1 .65 1.39 1.09.15.18.15.35 0 .52-1.07 1.14-2.58 1.68-4.16 2.03-.97.2-2.07.26-3.3.15-2-.18-3.8-.59-5.42-1.21a10.75 10.75 0 0 1-4.36-3.09c-.43-.5-.83-.96-.73-1.64.2-1.34.59-2.55 1.19-3.61.29-.52.92-1.06 1.25-1.44a.35.35 0 0 0 .09-.22c.02-.49.18-1.1.17-1.62-.03-.76.06-1.53.27-2.31.11-.45.34-.79.66-1.02a.27.27 0 0 1 .23-.04c.34.1.65.31.94.65.5.57.85 1.17 1.02 1.8.03.07.07.1.14.1 1.15-.05 2.13.3 2.95 1.06.2.19.32.35.35.49a.3.3 0 0 1-.07.25.27.27 0 0 1-.24.09 10.22 10.22 0 0 0-4.35.14c-.28.08-.44.14-.47.18-.35.43-.28.51.2.25.23-.13.55-.28.84-.31 1.28-.15 2.6-.14 3.93.01.09.01.16.05.23.12l.38.39c.1.1.07.13-.05.1-.8-.17-1.78-.23-2.95-.18-.48.03-1 .13-1.56.31-.2.06-.71.22-1.54.45-.25.07-.25.15 0 .22Z" fill="#F9DF95"/><path d="m22.38 13.83-.79-.7a.13.13 0 0 0-.12-.03.13.13 0 0 0-.06.04.14.14 0 0 0-.03.06l-.32 1.9a.22.22 0 0 0 .07.2.2.2 0 0 0 .2.03l1.58-.53c-.45.4-1.02.7-1.69.88a.23.23 0 0 1-.17-.02.24.24 0 0 1-.11-.13 1.72 1.72 0 0 1-.05-1 19.9 19.9 0 0 0 .29-1.61.27.27 0 0 1 .17-.13h.11c.53.11.83.46.92 1.04Z" fill="#010100"/><path d="M30.85 13.16a.22.22 0 0 0-.05-.1.21.21 0 0 0-.3-.01c-.37.34-.72.8-1.05 1.34a.46.46 0 0 1-.3.2c-.1.02-.12-.01-.07-.1.36-.64.76-1.15 1.2-1.53.17-.14.3-.2.39-.2.1.02.2.07.26.15.08.09.12.19.13.3l.18 1.62c.01.08-.02.1-.1.1l-1.41-.26c-.13-.03-.16-.09-.07-.2l.85-1.02c.1-.13.17-.1.17.07 0 .05.02.1.04.14.04.09.07.08.1 0a.9.9 0 0 0 .03-.5ZM22.38 13.83l.53.97-1.58.53a.2.2 0 0 1-.2-.04.21.21 0 0 1-.07-.2l.32-1.89.03-.06a.13.13 0 0 1 .12-.05c.03 0 .05.02.06.03l.79.7Z" fill="#AC965F"/><path d="M26.72 15.52a6.1 6.1 0 0 1 4.04-.4c.5.13 1.46.6 1.58 1.19a.14.14 0 0 1-.02.1.13.13 0 0 1-.1.06l-4.73.35c-.03 0-.07 0-.1-.02a.18.18 0 0 1-.07-.07l-.63-1.13c-.02-.04-.01-.06.03-.08ZM27.5 17.15l2.3-.23c1.6-.2 2.83-.29 3.9.72a.1.1 0 0 1 .02.1l-.03.04a.08.08 0 0 1-.05.01c-1.07 0-1.86-.07-2.69.23a1318.05 1318.05 0 0 0-2.25.8.28.28 0 0 1-.2-.1.3.3 0 0 1-.06-.12 2.63 2.63 0 0 0-.97-1.39v-.03l.01-.02.03-.01ZM14.71 28.16a3.06 3.06 0 0 1-.49-1.84c.03-.85.14-1.54.35-2.07l.84-2.09c.58-1.4.4-2.83-.54-4.26a.64.64 0 0 1-.1-.23.56.56 0 0 1 .01-.24.4.4 0 0 1 .1-.19c.05-.04.1-.08.17-.09h.02c.34-.17.62-.1.85.22 1.19 1.66.86 3.3.02 5-.66 1.35-1.27 3.18-.55 4.62.02.04.02.08 0 .13l-.58 1.04c-.03.05-.06.05-.1 0Z" fill="#F9DF95"/><path d="M25.6 17.94a1.8 1.8 0 0 1 1.1-.04 4.1 4.1 0 0 0 1.02.21c.05.03.08.05.08.08l-.03.06a.15.15 0 0 1-.05.05.16.16 0 0 1-.06.02c-.03 0-.05 0-.08-.02a3.69 3.69 0 0 0-1.8-.26c-.3.04-.63.2-.96.5-.4.35-.7.62-.87.81-.05.05-.1.06-.16.03l-1.34-.8c-.09-.05-.08-.1.02-.12a7.94 7.94 0 0 1 2.19-.34c.26 0 .58-.05.94-.18Z" fill="#FEFDFE"/><path d="M33.72 18.38c-.32-.14-.88-.12-1.69.05-.7.15-1.42.36-2.15.6-.12.05-.3.05-.54.01-.12-.02-.12-.05-.01-.1 1.41-.59 2.26-.88 2.53-.89.52 0 1.19 0 2.01.03.38 0 .63.15.66.54a.08.08 0 0 1-.03.08.08.08 0 0 1-.08 0 14.2 14.2 0 0 0-.7-.32Z" fill="#F9DF95"/><path d="M27.53 18.59v-.02h.01l.01-.01c.07-.01.14 0 .2.02a.5.5 0 0 1 .18.11.87.87 0 0 1 .22.44l.01.1a.8.8 0 0 1-.07.48.44.44 0 0 1-.3.25h-.02a.02.02 0 0 1-.02 0v-.02l-.22-1.35ZM34.14 19.6c-.22-.35-.5-.8-.98-.89-.05 0-.07-.03-.06-.08.01-.04.03-.06.07-.05.4.07.8.2 1.18.39.16.08.18.28.06.6a.16.16 0 0 1-.05.07.15.15 0 0 1-.22-.04ZM28.54 19.25c.68.12 1.43.1 2.2-.17.51-.17 1.05-.32 1.63-.43h.29c.1.03.1.05 0 .08-.67.2-1.22.62-1.64 1.23-.05.07-.11.09-.19.05a2.47 2.47 0 0 0-2.15.01.2.2 0 0 1-.2-.02.2.2 0 0 1-.07-.2l.08-.52c0-.02.03-.04.05-.03ZM26.6 19.3c.16.03.3-.02.33-.12.03-.1-.07-.23-.22-.27-.15-.04-.3.01-.32.12-.03.1.07.22.22.26ZM25.49 19.8c.28-.03.5-.21.5-.42-.02-.2-.27-.35-.55-.33-.29.02-.51.2-.5.4.02.21.26.36.55.34ZM33.33 19.55a.1.1 0 0 1-.05.14l-.1.05-.23.07a.82.82 0 0 1-.2.02.4.4 0 0 1-.16-.03.17.17 0 0 1-.1-.1v-.03a.18.18 0 0 1 0-.13c0-.04.03-.1.08-.14l.15-.14.21-.12.1-.04a.1.1 0 0 1 .08 0 .1.1 0 0 1 .06.05l.16.4ZM26.65 19.89c.04.11.14.18.23.14.08-.03.1-.15.06-.26-.04-.11-.14-.18-.22-.14-.08.03-.11.15-.07.26Z" fill="#FEFDFE"/><path d="m31.74 20.2.16-.18c.2-.08.25-.01.15.2-.06.09-.15.1-.3.05a.04.04 0 0 1-.02-.03v-.03l.01-.01Z" fill="#AC965F"/><path d="M30.51 20.49c0 .01 0 .02-.02.03a.05.05 0 0 1-.03.02l-.18-.01a7.3 7.3 0 0 1-.9-.12 1.43 1.43 0 0 1-.27-.09c-.07-.03-.1-.06-.1-.08v-.02c0-.03.04-.06.1-.08a4.57 4.57 0 0 1 1.19-.05h.18l.04.03.01.04-.02.33Z" fill="#916E3A"/><path d="M30.13 21.15a.24.24 0 0 0 .02-.06c.01-.15.1-.23.28-.24.37-.03.84-.04 1.4-.04.97 0 1.7-.18 2.46-.72a.13.13 0 0 1 .13 0c.13.06.14.18.03.33-.26.4-.64.61-1.12.64a65 65 0 0 0-3.1.3.18.18 0 0 1-.07-.06.15.15 0 0 1-.03-.07v-.08ZM27.97 20.8l.29-.52c.04-.08.1-.1.16-.03.29.24.7.43 1.26.55a.3.3 0 0 1 .2.14c.04.07.05.15.02.23a.26.26 0 0 1-.13.15c-.53.23-1.14.39-1.83.49-.4.05-.77 0-1.13-.15-.09-.03-.08-.08.01-.13.28-.15.95-.35 1.15-.73Z" fill="#F9DF95"/><path d="M27.56 20.41a.06.06 0 0 1 .08.03v.04c0 .04-.03.06-.07.08a.05.05 0 0 1-.05 0 .05.05 0 0 1-.02-.05c0-.04.02-.07.06-.1Z" fill="#916E3A"/><path d="m32.96 21.38.56-.04c.08-.01.1.02.08.1l-.04.08c0 .04-.03.05-.07.05-.2-.03-.38-.08-.53-.16-.04-.02-.04-.03 0-.03Z" fill="#AC965F"/><path d="M24.82 22.7v.06c0 .03 0 .05.03.07.37.23.77.3 1.19.2l1.88-.46c.65-.17 1.2-.25 1.66-.23.8.04 1.58.02 2.34-.05.27-.02.52.03.76.15.28.14.26.2-.05.2a49.08 49.08 0 0 0-3.58-.02c-.32.01-.58.06-.78.16-.34.15-.66.05-1.07.23a8.9 8.9 0 0 1-1.93.54c-.47.07-.89-.03-1.13-.4a.57.57 0 0 1 .11-.75 2.6 2.6 0 0 1 2.67-.38c.15.05.46.07.93.06.3-.01.61-.06.9-.15l.86-.24c.23-.07.52-.1.85-.1.64.01 1.09 0 1.36-.02.32-.03.62 0 .92.09.23.07.54.12.92.17.18.02.21.1.08.23l-.13.13a.46.46 0 0 1-.21.12.44.44 0 0 1-.24 0 6.08 6.08 0 0 0-1.42-.36c-.7.12-1.25.2-1.96.16a5.52 5.52 0 0 0-1.2 0c-.85.25-1.71.45-2.57.62-.35.07-.7.05-1.05-.07-.08-.03-.13-.02-.14.03Z" fill="#E26300"/><path d="M29.35 24.8a6.23 6.23 0 0 0 2.96-1.42h.03l.03.03.01.04.01.05c.02.1 0 .18-.06.23a6.42 6.42 0 0 1-2.8 1.31 9.7 9.7 0 0 1-3.24.02l.01-.08c.01-.04.04-.06.08-.06 1.27.05 2.26.01 2.97-.11Z" fill="#010100"/><path d="M33.84 40.53a.8.8 0 0 0-.17.49c0 .08-.05.14-.12.17-.67.25-1.46.39-2.34.43-.09 0-.12-.04-.1-.12.14-.55.28-1.23.42-2.03.15-.91-.2-2.82-1.54-2.06a.2.2 0 0 1-.21-.01c-.51-.34-1-.33-1.47.02a.18.18 0 0 1-.22.01c-1-.6-1.79.13-2.07 1.12-.26.9-.48 2.9.4 3.45.25.17.3.12.12-.14a2.73 2.73 0 0 1-.45-1.54c0-.78.1-1.46.32-2.03.3-.78 1.26-1.22 1.7-.2.03.08.09.1.17.07.08-.04.14-.15.18-.34a.33.33 0 0 1 .12-.2c.33-.26.69-.27 1.06 0 .07.04.09.1.04.18a.35.35 0 0 1-.14.13c-.05.03-.08.03-.1 0l-.05-.08a.23.23 0 0 0-.09-.1.26.26 0 0 0-.13-.02c-.04 0-.1.01-.14.03a.37.37 0 0 0-.11.1c-.23.29-.22.55.04.77a.37.37 0 0 0 .33.07.39.39 0 0 0 .26-.22c.1-.24.27-.5.54-.77.35-.35.7-.27.97.1a.4.4 0 0 1 .03.11l.04.18a.06.06 0 0 1-.03.06.06.06 0 0 1-.06 0l-.42-.24c-.09-.05-.16-.04-.21.04-.24.3-.27.58-.1.85a.29.29 0 0 0 .2.13c.24.04.44-.1.6-.44.03-.1.07-.1.11 0 .04.11.06.22.05.3-.15 1.41-.4 2.57-.76 3.48-.24.61-.77 1.03-1.59 1.24-.8.21-1.54.04-2.2-.52a.23.23 0 0 0-.2-.05.72.72 0 0 1-.2 0c-1.1-.15-2.79-.46-5.04-.94-2.23-.47-5.01-1.52-6.4-3.28a6.56 6.56 0 0 1-1.42-3.96c-.05-1.32 0-2.52.42-3.84a12.76 12.76 0 0 1 2.14-4.05c.08-.1.15-.38.23-.84a7.05 7.05 0 0 1 .94-2.56.1.1 0 0 1 .05-.01c.02 0 .04 0 .05.02a41.13 41.13 0 0 0 6.95 6.15c1.44.63 2.87 1.2 3.95 1.93 1.12.76 2.18 1.68 3.17 2.75.45.5.96.53 1.54.12 1.35-.95 2.3-2.89 2.91-4.49.4-1.05.58-2.12.53-3.2 0-.18.04-.19.14-.02l.6.96c.03.06.08.1.13.13.88.38 1.56.73 2.02 1.05.27.2.63.42 1.05.68a5.58 5.58 0 0 1 3.07 5.56 9.9 9.9 0 0 1-1 3 .11.11 0 0 0 .06.1H42.53c.03 0 .05-.01.06-.03.4-.79.72-1.67.97-2.64.07-.26.28-.38.64-.35.4.04.72.24.96.6.05.09.08.08.1-.02.1-.79.33-1.26.66-1.42a.44.44 0 0 1 .57.18c.04.07.06.14.07.22.05.82-.46 1.58-.42 2.43.02.78-.03 1.51-.17 2.2a.55.55 0 0 1-.2.34.52.52 0 0 1-.38.1 13 13 0 0 0-1.55-.06c-.47.01-1 .08-1.56.2-1.32.26-2.2.45-2.63.56-.09.02-.15 0-.19-.08l-.4-.7c-.03-.06-.07-.07-.12-.04l-.1.05a.06.06 0 0 0-.03.04.07.07 0 0 0 .01.06l.34.6a.5.5 0 0 1-.15.64c-.62.4-1.29.5-2 .3a.35.35 0 0 1-.16-.1.37.37 0 0 1-.08-.36.36.36 0 0 1 .1-.16c.47-.43.5-.9.07-1.43-.02-.02-.04-.03-.07-.01l-.06.04a.14.14 0 0 0-.05.06v.06c.24.38.25.7.01.95-.06.07-.12.07-.2.01-.24-.2-.38-.48-.42-.83 0-.06-.02-.1-.05-.1-.07-.03-.12-.01-.14.06a.9.9 0 0 0 .2.88c.2.23.3.38.32.46.05.23-.04.43-.3.58a2.2 2.2 0 0 1-1.28.31c-.73-.02-1.05-.43-.93-1.22.02-.16-.02-.18-.13-.06Z" fill="#F9DF95"/><path d="m35.75 26.8.18-.15a.07.07 0 0 1 .07 0c.01 0 .02 0 .03.02l.02.04c.13 1.86-.54 3.52-1.45 5.2a6.17 6.17 0 0 1-2.27 2.55.27.27 0 0 1-.22.02c-.26-.1-.47-.22-.62-.38a15.18 15.18 0 0 0-5.12-3.85c-1.13-.5-2.11-.96-2.94-1.37-2.33-1.14-3.94-1.96-5.13-4.01-.13-.22-.1-.25.09-.07.3.28.74.65 1.32 1.13.57.45 1.05.78 1.45 1a16.1 16.1 0 0 0 3.92 1.46c1.46.33 3.02.5 4.68.5.9 0 1.72-.1 2.46-.31 1.1-.32 2.64-.9 3.53-1.78Z" fill="#A16241"/><path d="M29.8 26.6a8.07 8.07 0 0 1-3.79-.5.09.09 0 0 1 0-.05v-.08a.09.09 0 0 1 .04-.06.08.08 0 0 1 .07 0 9.57 9.57 0 0 0 3.74.42 9.63 9.63 0 0 0 3.4-1.31.08.08 0 0 1 .06.02l.02.03.03.07v.06a8.17 8.17 0 0 1-3.57 1.4ZM19.99 37.02c-.03.02-.04.05-.04.1-.01.07-.04.14-.1.19a.4.4 0 0 1-.2.11c-1.57.39-1.85-1.25-1.64-2.4a.36.36 0 0 0-.03-.24c-.5-.93-.79-1.52-.88-1.76a6.15 6.15 0 0 1-.33-2.98l.03-.02.15-.1c.09-.04.11-.02.09.07-.12.47-.14.94-.07 1.4a7.92 7.92 0 0 0 1.1 2.96c.18.3.27.53.25.69-.08.7-.16 1.5.32 1.99.27.27.6.31.97.12a.22.22 0 0 0 .07-.06.31.31 0 0 0 .05-.1l.16-.45c.03-.09.07-.1.11-.03.38.5.83.64 1.35.4a.3.3 0 0 0 .15-.18c.11-.28.16-.57.13-.88 0-.12.03-.15.13-.08.04.03.06.06.08.1.03.08.08.12.16.12.55.05.83-.2.83-.72 0-.53-.22-.93-.69-1.2a.3.3 0 0 1-.15-.18c-.08-.3-.11-.47-.11-.51-.05-1.61.02-2.48-.72-3.62-.02-.03-.02-.06 0-.1a.1.1 0 0 1 .05-.04h.02c.43.46.66.84.71 1.13.14.9.1 1.94.3 2.95a.32.32 0 0 0 .13.2c.45.3.7.72.73 1.24.06.77-.28 1.15-1.02 1.13-.09 0-.15.03-.17.1l-.2.61a.2.2 0 0 1-.12.13c-.38.15-.8.18-1.28.09a.27.27 0 0 1-.21-.16c-.03-.06-.06-.06-.11-.02ZM36.43 34.12c.23.21.43.29.6.24.07-.03.12 0 .13.08l.13.63a.08.08 0 0 1-.02.07l-.03.02h-.03l-.09.01a.1.1 0 0 1-.07-.02.1.1 0 0 1-.03-.08c0-.19-.06-.3-.16-.34-.08-.03-.13 0-.17.08-.15.37-.29.45-.39.26a.13.13 0 0 1-.01-.08.62.62 0 0 1 .14-.27.22.22 0 0 0 0-.3l-.12-.13c-.12-.12-.25-.13-.38-.02-.22.2-.39.48-.49.85a.08.08 0 0 1-.12.06.1.1 0 0 1-.06-.1c0-.37.15-.7.42-.92.6-.51 1.23-.58 1.9-.22 1 .53.69 1.49-.07 2-.03.02-.06.02-.09 0l-.06-.07c-.06-.06-.05-.12.02-.17.58-.43.92-1.1.05-1.5-.41-.2-.73-.26-.96-.21-.1.02-.11.06-.04.13ZM27.53 39.2a.44.44 0 0 1-.36-.12.66.66 0 0 1-.2-.39.71.71 0 0 1 0-.23.62.62 0 0 1 .07-.2.5.5 0 0 1 .14-.16.4.4 0 0 1 .17-.07c.13-.02.26.02.37.12a.71.71 0 0 1 .2.62.62.62 0 0 1-.08.2.5.5 0 0 1-.13.16.4.4 0 0 1-.18.07Z" fill="#010100"/><path d="m29.17 38.14.12-.01c.1 0 .13.04.08.13a.32.32 0 0 1-.1.11c-.03.04-.07.05-.1.04-.07-.02-.1-.08-.09-.19a.09.09 0 0 1 .09-.08ZM30.63 38.3c.03-.02.07 0 .12.06.03.04.03.08 0 .12-.03.04-.04.05-.06.05-.2-.04-.21-.11-.06-.23ZM27.48 38.45c.15.17.14.3 0 .38a.1.1 0 0 1-.13-.02.1.1 0 0 1-.01-.04.64.64 0 0 1-.01-.29c.03-.11.08-.13.15-.03Z" fill="#AC965F"/><path d="M28.6 42.75c-.35-.08-.63-.36-.8-.77a2.4 2.4 0 0 1-.08-1.4c.11-.5.36-.94.69-1.23.32-.29.7-.4 1.04-.32.35.08.64.36.8.77.17.4.2.92.08 1.41-.11.5-.36.93-.68 1.22-.33.3-.7.4-1.05.32Z" fill="#010100"/><path d="M28 40.62c-.2.87.1 1.7.67 1.83.58.14 1.2-.45 1.4-1.32.2-.87-.1-1.7-.68-1.83-.57-.14-1.2.45-1.4 1.32Z" fill="#916E3A"/></svg>