<svg width="112" height="112" viewBox="0 0 56 56" xmlns="http://www.w3.org/2000/svg"><rect fill="url(#acv1fvp2q)" width="56" height="56" rx="28"/><path d="M35 29h-5c0-1 0-3-2.5-3-2 0-2.5 2-2.5 3v4c0 .5 0 2 2.5 2 2 0 2.33-2 2.5-3h5c0 2.5-.5 7-7.5 7-5.6 0-7.33-4-7.5-6v-4c0-2 1-7 7.5-7 5.2 0 7.5 3 7.5 7Z" fill="url(#bcv1fvp2q)"/><path fill-rule="evenodd" d="M28 44a16 16 0 1 0 0-32 16 16 0 0 0 0 32Zm0 1a17 17 0 1 0 0-34 17 17 0 0 0 0 34Z" fill="#F9CB51"/><path fill="url(#ccv1fvp2q)" d="M22 16h11v4H22z"/><defs><linearGradient id="acv1fvp2q" x1="10.42" y1="9.71" x2="68.15" y2="76.02" gradientUnits="userSpaceOnUse"><stop stop-color="#1A1E21"/><stop offset="1" stop-color="#06060A"/></linearGradient><linearGradient id="bcv1fvp2q" x1="20" y1="29.5" x2="35" y2="29.5" gradientUnits="userSpaceOnUse"><stop stop-color="#C69F38"/><stop offset="1" stop-color="#FAD256"/></linearGradient><linearGradient id="ccv1fvp2q" x1="22" y1="18.5" x2="33" y2="18.5" gradientUnits="userSpaceOnUse"><stop stop-color="#C69F38"/><stop offset="1" stop-color="#FAD259"/></linearGradient></defs></svg>