<svg width="112" height="112" viewBox="0 0 56 56" xmlns="http://www.w3.org/2000/svg"><path d="M34.48 18.36c-.18-.57-.6-.6-1.07-.7a1.2 1.2 0 0 1-.41-.14.1.1 0 0 1-.05-.06c-.05-.2-.08-.35-.25-.5l-.31-.27a1.3 1.3 0 0 1-.2-.2l-.18-.23a.99.99 0 0 0-.22-.2c-.1-.07-.18-.14-.24-.2.7-.52 1.43-.98 2.17-1.37.28-.15.5-.3.65-.46.48-.48.78-1.02.91-1.62.1-.47.09-1-.06-1.58a4.65 4.65 0 0 1-.1-.48c-.04-.3-.14-.55-.12-.87 0-.13 0-.26-.02-.4 0-.02.01-.05.04-.06.52-.19 1.18.86 1.43 1.22.27.4.47.86.69 1.3.25.51.4 1.07.33 1.58-.13.87-.2 1.37-.62 1.98-.65.95-1.35 1.88-1.97 2.85-.1.17-.24.31-.4.4ZM24.93 15.85c.18.2.25.35.21.43-.07.04-.12.03-.14-.01a.06.06 0 0 0-.06-.04h-.1a.1.1 0 0 0-.08.04c-.13.13-.3.12-.43.15-.23.05-.6-.12-.81-.24-.17-.1-.34-.17-.5-.23a3.54 3.54 0 0 1-.86-.38.14.14 0 0 1-.07-.04c-.22-.28-.6-.6-.73-.91-.02-.07-.06-.2-.09-.4-.07-.37-.28-.74-.4-1.1l-.03-.02c-.01 0-.02 0-.02-.02a2.26 2.26 0 0 0-.1-.51c-.08-.25-.05-.49-.17-.73a5.4 5.4 0 0 0-.16-1.57c.14-.23.46-.78.79-.94a.1.1 0 0 1 .08 0c.12.05.16.15.14.3l-.18 1.24c-.14.96.95 2.25 1.4 2.93.42.61.7.99.84 1.13.22.21.6.32.85.5.21.15.42.3.62.42Z" fill="#FBE6BD"/><path d="M32.74 12.43c.05-.2.06-.4.05-.6a.14.14 0 0 0-.03-.09 2.17 2.17 0 0 0-1.07-.62l-.02-.02c0-.02 0-.02-.02-.03-.25-.11-.46-.16-.78-.24-.3-.08-.63-.03-.94-.14a29.53 29.53 0 0 0-.92-.26c-.09-.02-.17 0-.26-.03l-.2-.03c-.56-.03-1.13-.07-1.69-.12-.58-.06-1.1 0-1.66.06-.25.03-.48.12-.73.18-.14.03-.29.12-.48.09-.03 0-.05 0-.08.02a.56.56 0 0 1-.22.14c.29-.23.59-.39.9-.47.56-.16 1.2-.28 1.92-.37.5-.07 1.03.03 1.54.03 1-.01 1.81.03 2.74.18.73.13 1.3.6 1.89 1.02.38.29.28.96.06 1.3ZM20.4 10.26a5.4 5.4 0 0 1 .15 1.58c.12.24.09.48.17.73.05.16.09.33.1.51 0 .01 0 .02.02.02.01 0 .02 0 .02.02.13.36.34.73.41 1.1.03.2.07.33.1.4.11.31.5.63.72.9.02.03.04.05.07.05l.2.1c.18.1.4.2.66.28.16.06.33.13.5.23.2.12.58.29.8.24.15-.03.3-.02.44-.15a.1.1 0 0 1 .07-.04h.11c.03 0 .05.01.06.04.02.04.07.05.14 0l-.27.17a.44.44 0 0 0-.44.11l-.02.02a.75.75 0 0 1-.06.03.2.2 0 0 1-.09.01.07.07 0 0 0-.06.04c-.15.25-.74.04-.9-.07a.96.96 0 0 0-.39-.1 1.23 1.23 0 0 1-.38-.09c-.5-.23-.9-.6-1.17-1.1-.09-.17-.2-.3-.3-.46a1.12 1.12 0 0 1-.18-.56.12.12 0 0 0-.03-.08.12.12 0 0 1-.03-.06 1.23 1.23 0 0 0-.12-.37.17.17 0 0 1-.02-.1l-.01-.22a15.42 15.42 0 0 0-.4-1.43 3.38 3.38 0 0 1-.07-.32l-.12-.88.32-.55Z" fill="#DCC69B"/><path d="M23.23 13.57c-.19-.15-.34-.33-.44-.55-.28-.6.04-1.39.44-1.85.1-.03.2-.09.26-.18a.14.14 0 0 1 .07-.05c.12-.03.23-.08.34-.14.14-.08.25-.13.34-.16.38-.12.82-.32 1.24-.32h1.15c.33 0 .6.13.93.15.28 0 .57.02.85.04.3 0 .58.08.88.13h.01v.03l.01.01c.25.01.44.09.73.17.12.03.25.09.39.17.06.05.09.1.07.19a.1.1 0 0 1-.05.07.13.13 0 0 1-.07.02l-1.34-.13a.09.09 0 0 1-.06-.03l-.02-.02h-.01l-2.35-.05a.1.1 0 0 0-.07.04.06.06 0 0 1-.05.03c-.17.03-.37.03-.6 0-.14-.01-.3.05-.46.05-.21 0-.4.06-.58.2a.15.15 0 0 1-.08.02c-.31.03-.42.23-.62.4-.08.06-.18.07-.26.17a.1.1 0 0 1-.07.03.13.13 0 0 0-.09.04c-.12.11-.3.17-.45.21a.08.08 0 0 0-.06.05.8.8 0 0 0-.07.47c0 .04 0 .05-.04.02l-.02-.02h-.02l.03.46c0 .04 0 .07.02.1l.12.23Z" fill="#CB9D6A"/><path d="m20.08 10.81.12.88a18.52 18.52 0 0 0 .24.88l.23.87a.8.8 0 0 1 0 .23l.03.09c.06.12.1.24.12.37l.03.06c.02.02.03.04.03.08 0 .19.06.39.18.56.1.15.21.29.3.46.27.5.66.87 1.17 1.1.1.05.23.08.38.1.2.01.32.04.38.09.17.1.76.32.9.07a.07.07 0 0 1 .07-.04.2.2 0 0 0 .1-.01.75.75 0 0 0 .07-.05.44.44 0 0 1 .44-.11l-.18.1c-.34.22-1.02.65-1.2 1.02-.02.07-.1.17-.2.3a.16.16 0 0 0-.04.08.62.62 0 0 1-.18.4c-.13.11-.18.22-.26.35a.98.98 0 0 1-.43.28c-.2-.11-.36-.31-.49-.6a7 7 0 0 1-.46-1.33 1.15 1.15 0 0 0-.21-.47 24.05 24.05 0 0 0-.34-.45.24.24 0 0 0-.06-.11 2.24 2.24 0 0 1-.41-.74 7.4 7.4 0 0 1-.18-.68c-.27-1.36-.46-2.5-.15-3.78Z" fill="#D6AE79"/><path fill-rule="evenodd" d="M30.78 13.3c.66-.15 1.62-.35 1.96-.87.05-.2.06-.4.05-.6a.14.14 0 0 0-.03-.09 2.17 2.17 0 0 0-1.07-.62l-.02-.02c0-.02 0-.02-.02-.03-.2-.1-.38-.14-.6-.2l-.18-.04c-.14-.04-.29-.05-.43-.06a2.06 2.06 0 0 1-.5-.08 29.25 29.25 0 0 0-.93-.26.58.58 0 0 0-.13-.01c-.04 0-.09 0-.13-.02l-.2-.03c-.56-.03-1.13-.07-1.69-.12-.57-.06-1.08 0-1.64.06h-.02c-.16.02-.31.07-.47.1a5.52 5.52 0 0 1-.82.2.56.56 0 0 1-.22.13l-.46.43c.1-.03.2-.09.26-.18a.13.13 0 0 1 .07-.05c.12-.03.23-.08.34-.14.14-.08.25-.13.34-.16l.24-.08c.32-.12.67-.24 1-.24h1.15c.18 0 .34.04.5.07.14.04.28.07.43.08l.85.04c.2 0 .4.04.6.08l.28.05h.01v.03l.01.01c.2.01.36.06.55.12l.18.05c.12.03.25.09.39.17.06.05.09.1.07.19a.1.1 0 0 1-.05.07.13.13 0 0 1-.07.02l-1.34-.13a.09.09 0 0 1-.06-.03l-.02-.02h-.01l-2.35-.05a.1.1 0 0 0-.07.04.06.06 0 0 1-.05.03c-.17.03-.37.03-.6 0a.84.84 0 0 0-.25.02l-.2.03c-.22 0-.42.06-.6.2a.15.15 0 0 1-.07.02c-.23.02-.35.14-.48.26l-.14.14c-.03.03-.07.04-.1.06a.4.4 0 0 0-.16.1.1.1 0 0 1-.07.04.13.13 0 0 0-.09.04c-.13.11-.3.17-.45.21a.08.08 0 0 0-.06.05.8.8 0 0 0-.07.47c0 .04 0 .05-.04.02l-.02-.02h-.02l.03.46c0 .04 0 .07.02.1l.12.23.06.04c.1 0 .17.05.23.1l.13.06.52.15c.12.04.2.05.28.04h.09c.29.1.9.21 1.17.09a3.09 3.09 0 0 0 .18-.1c.19-.2.53-.25.86-.3.16-.02.32-.04.46-.08.08-.02.18-.04.3-.04l.18-.02c.07-.02.15-.03.22-.03.25.02.47-.04.67-.17a.16.16 0 0 1 .09-.03c.18 0 .43-.02.58-.15a.88.88 0 0 0 .1-.11c.06-.08.12-.16.21-.18.03 0 .06-.02.08-.04l.08-.08a.79.79 0 0 0 .22-.27.09.09 0 0 1 .06-.05l.37-.13.07-.04.05-.05a.2.2 0 0 1 .07-.04l.54-.2a.17.17 0 0 1 .1-.01c.26.05.54.3.47.6a.99.99 0 0 1-.1.28c-.03.05-.07.08-.12.08a.2.2 0 0 0-.07.03l-.22.15a.1.1 0 0 1-.08.02c-.18-.04-.31.01-.4.15a.1.1 0 0 1-.08.05l-.56.04a.08.08 0 0 0-.05.02l-.03.03v.01a1 1 0 0 1 .53-.04l.29-.06Zm-.73-1.14.67-.23.02-.05c0-.04-.03-.05-.06-.05-.22 0-.36 0-.41-.02-.5-.12-.97-.19-1.4-.21l-.77-.06c-.78-.06-1.54-.11-2.34-.04-.56.05-.87.33-1.23.65l-.23.21c-.07.06-.08.12-.07.2.13.1.28.17.43.24.12.05.23.06.36.08l.2.03c.13.03.26.03.4.04l.3.03c.68.08 1.5-.12 2.26-.3l.72-.17c.42-.09.78-.22 1.15-.35Z" fill="#D6AE79"/><path d="M24.23 12.56c.13.1.28.17.43.24.18.08.36.07.56.1.22.05.44.05.7.08.9.1 2.04-.28 2.98-.47.68-.14 1.2-.4 1.82-.58.05 0 .08 0 .1-.02l.02.01v.04c0 .02 0 .03-.02.03l-1 .4a.2.2 0 0 0-.08.06c-.1.1-.25.15-.35.22l-.28.2a.75.75 0 0 1-.3.1c-.23.03-.45.1-.65.23a.12.12 0 0 1-.08.02.22.22 0 0 0-.19.06.12.12 0 0 1-.07.04c-.22.02-.43 0-.64.06-.25.07-.47.15-.74.14-.29-.02-.47 0-.56.05a.93.93 0 0 1-.85.04.18.18 0 0 0-.09-.02 1.7 1.7 0 0 1-.71-.1.07.07 0 0 1-.05-.05c0-.03-.03-.04-.06-.03a.07.07 0 0 1-.08-.04.44.44 0 0 1-.04-.14c0-.04 0-.07.04-.09.15-.1.19-.27.1-.47-.03-.06 0-.1.09-.1Z" fill="#DCC69B"/><path d="M30.5 13.35c-.3.04-.56.09-.77.16a12.67 12.67 0 0 1-1.6.4c-.22.04-.46 0-.7.06-.78.23-1.64.38-2.44.24a3.88 3.88 0 0 1-1.7-.6c.16.01.25.12.36.16l.52.15c.12.04.2.05.28.04h.09c.29.1.9.21 1.17.09a3.16 3.16 0 0 0 .18-.1c.29-.3.9-.26 1.32-.38.08-.02.18-.04.3-.04.14 0 .26-.06.4-.05.25.02.47-.04.67-.17a.16.16 0 0 1 .09-.03c.18 0 .43-.02.58-.15.1-.1.17-.26.31-.3.03 0 .06-.01.08-.03.1-.1.26-.22.3-.35a.09.09 0 0 1 .06-.05l.37-.13.07-.04.05-.05a.2.2 0 0 1 .07-.04l.54-.2a.17.17 0 0 1 .1-.01c.26.05.54.3.48.6a.99.99 0 0 1-.12.28c-.02.05-.06.08-.1.08a.2.2 0 0 0-.08.03l-.22.15c-.03.02-.05.02-.08.02-.18-.04-.31.01-.4.15a.1.1 0 0 1-.07.05l-.57.04a.08.08 0 0 0-.05.02l-.03.03v.01h.01a1 1 0 0 1 .52-.04Z" fill="#CB9D6A"/><path d="M31.55 15.85c.06.07.14.14.24.2.1.07.17.14.22.21l.18.23c.06.07.12.14.2.2l.31.28c.17.14.2.29.25.49 0 .03.02.05.05.06.13.07.26.11.41.13l-.9.02a.11.11 0 0 1-.08-.03.4.4 0 0 0-.28-.1l-.09-.03c-.29-.19-.67-.11-1-.15-.42-.04-.83.02-1.23.2.1-.1.21-.16.34-.17a.1.1 0 0 0 .06-.03.1.1 0 0 0 .03-.05.11.11 0 0 0-.03-.11c-.2-.16-.4-.25-.59-.27a.89.89 0 0 0-.34.1c-.32.13-.47.1-.75-.1-.13-.1-.22-.28-.4-.35a.15.15 0 0 1-.07-.05 3.96 3.96 0 0 0-1-.9.17.17 0 0 0-.1-.02.73.73 0 0 1-.5-.21c-.04-.03-.03-.05.01-.06.1-.01.16-.06.18-.15 1.12-.3 2.3-.29 3.4.1.43.16 1 .33 1.38.64.02.02.05.03.08.02.04-.02.05-.05.02-.1Z" fill="#D6AE79"/><path d="M26.67 15.2c-.02.08-.08.13-.18.14-.04 0-.05.03-.02.06.14.14.32.2.52.21l.09.03c.38.24.72.53 1 .89l.07.05c.18.07.27.25.4.35.28.2.43.23.75.1.16-.07.27-.1.34-.1.2.02.4.1.59.27a.1.1 0 0 1 .03.11.1.1 0 0 1-.03.05.1.1 0 0 1-.06.03.51.51 0 0 0-.34.18c-.24.08-.27.45-.25.66 0 .05-.02.09-.07.11l-.87.35-1.28.34c-.22.06-.44.07-.66 0a.1.1 0 0 1-.07-.04l-.28-.52c.5-.1.98-.15 1.46-.14.07 0 .13-.04.2-.14.06-.04.08-.13.06-.26a.15.15 0 0 0-.03-.07c-.26-.31-.56-.46-.91-.45-.37 0-.78-.02-1.13.06-.17.04-.35.07-.5.14a.15.15 0 0 1-.11 0c-.08-.03-.14-.02-.18.02l-.04.02h-.03a.1.1 0 0 0-.07.02l-.22.22a.12.12 0 0 1-.07.04.3.3 0 0 0-.2.1.06.06 0 0 1-.06.01c-.01 0-.02 0-.03-.02l-.02-.02c-.02-.07-.06-.09-.13-.06a.09.09 0 0 1-.09 0l-.3-.21a.14.14 0 0 1 0-.23c.14-.1.25-.24.32-.4a.05.05 0 0 1 .05-.03c.22-.01.3-.25.56-.16a.14.14 0 0 0 .13-.03.15.15 0 0 0 .06-.13c-.02-.22-.14-.29-.38-.2l.18-.11.27-.16c.04-.08-.03-.22-.21-.43.13-.14.31-.15.45-.22.4-.2.84-.35 1.29-.44Z" fill="#CB9D6A"/><path d="M25.39 17.62a.97.97 0 0 0-.3.15c-.25.15-.7.5-.74.83-.05.37.32.64.64.47.45-.25.9-.45 1.36-.6l.28.52a.1.1 0 0 0 .07.05c.22.06.44.05.66 0l1.28-.35c-.53.19-1.08.35-1.63.5a9 9 0 0 0-.44.14c-.25.09-.5.1-.74.19-.23.08-.5.1-.7.19l-.6.18c-.09.02-.22.08-.39.2-.28.1-.57.28-.85.57a1.45 1.45 0 0 0-.24-.31c-.17-.16-.18-.32-.23-.53-.06-.23-.03-.46-.01-.7 0-.1.1-.16.17-.2a.1.1 0 0 0 .06-.05.47.47 0 0 0 .05-.2c0-.17-.05-.18-.13-.04-.01.02-.06.04-.15.06.09-.13.13-.24.26-.36.1-.1.17-.23.18-.39l.04-.08c.1-.13.18-.23.2-.3.18-.37.86-.8 1.2-1.01.24-.09.36-.02.38.2l-.01.08a.15.15 0 0 1-.05.05.15.15 0 0 1-.13.03c-.26-.09-.34.15-.56.16a.05.05 0 0 0-.05.03.93.93 0 0 1-.32.4.14.14 0 0 0-.04.18c0 .02.02.04.04.05l.3.2c.03.03.06.03.1.01.06-.03.1-.01.12.06l.02.02a.06.06 0 0 0 .06.02c.01 0 .02 0 .03-.02a.3.3 0 0 1 .2-.1c.03 0 .05-.01.07-.03l.22-.22a.1.1 0 0 1 .07-.02h.03c.02 0 .03 0 .04-.02.04-.04.1-.05.18-.01Z" fill="#B08058"/><path d="M33.41 17.65c.48.1.9.14 1.07.7l-.16.66c-.01.03-.02.03-.04.01l-.03-.02-.2-.19c.07-.03.12-.02.15.03a.06.06 0 0 0 .05.03h.03l.02-.03a.56.56 0 0 0 .04-.57.09.09 0 0 0-.07-.05c-.2-.04-.36-.13-.56-.15-.16 0-.35-.1-.5-.06-.54.13-1.07.23-1.6.3a1.1 1.1 0 0 0-.4.15c-.44.26-.97.09-1.35.18-.18.05-.4.17-.65.38a.18.18 0 0 1-.1.04.16.16 0 0 0-.1.06.12.12 0 0 1-.08.04.58.58 0 0 0-.26.12.17.17 0 0 1-.07.03c-.15.03-.21.04-.36 0a1.2 1.2 0 0 0-.82.01c-.13.05-.32.06-.4.1-.3.15-.6.23-.91.23-.2 0-.47.17-.7.2-.42.06-.84.13-1.27.23.18-.1.3-.17.39-.2.2-.04.4-.1.6-.17.2-.08.47-.1.7-.2.25-.09.5-.1.74-.18l.44-.14c.55-.15 1.1-.31 1.63-.5l.87-.35c.05-.02.08-.06.07-.11-.02-.21 0-.58.25-.66.4-.19.8-.25 1.24-.2.32.03.7-.05 1 .14.02.02.05.02.08.02.1 0 .2.04.28.1.02.03.04.04.07.04l.91-.02ZM28 18.2c.04-.1.03-.17-.05-.23a.1.1 0 0 0-.07-.02c-.04 0-.09 0-.13-.03a2.06 2.06 0 0 0-.99-.22 17.45 17.45 0 0 0-.7.05 3.26 3.26 0 0 1-.96.02.97.97 0 0 1 .29-.15h.1c.16-.08.34-.11.5-.15.36-.08.77-.05 1.14-.06.35-.01.65.14.9.45.03.02.04.04.04.07.02.13 0 .22-.07.26Z" fill="#827B62"/><path d="M28 18.2c-.06.09-.12.14-.19.13-.48 0-.96.04-1.46.14a7.8 7.8 0 0 0-1.36.6c-.32.17-.69-.1-.64-.47.05-.33.5-.68.75-.83a3.26 3.26 0 0 0 .96-.02 17.44 17.44 0 0 1 .7-.06c.37 0 .67.08.99.23.04.02.09.03.13.03a.1.1 0 0 1 .08.02c.07.06.08.14.04.22ZM29.6 17.88v-.02h.02a17.75 17.75 0 0 1 1.34-.13h.41c.1.01.15.03.16.05v.02c0 .02-.04.05-.14.09L31 18a10.87 10.87 0 0 1-1.32.24.02.02 0 0 1-.03 0 .03.03 0 0 1 0-.02l-.05-.34Z" fill="#284952"/><path d="M34.06 18.81c-.21-.36-.5-.47-.88-.32l-.03.01-.01.03a.07.07 0 0 0 .01.05l.2.28a.12.12 0 0 1-.02.17.1.1 0 0 1-.06.02c-.46.01-.88-.4-1.32-.33-.66.1-1.23.22-1.96.33-.42.06-.81.2-1.18.44-.4.22-.57.55-.49 1a5.8 5.8 0 0 1 .08 1.69l-.05.07c-.05.03-.08.09-.08.16-.2.33-.3.57-.72.76v.03l-.02.02c-.07.05-.16.13-.27.25-.15.16-.36.29-.63.37-.29.09-.95.15-1.2.1a6.98 6.98 0 0 1-2-.96c-.17-.1-.54-.33-.72-.25a1.99 1.99 0 0 1-.72.17.1.1 0 0 0-.05.06 1.08 1.08 0 0 1 .18 2.67c0 .04-.02.04-.03 0-.17-.38-.2-.89-.22-1.31 0-.14-.05-.3-.06-.46 0-.3-.07-.57-.01-.88a.15.15 0 0 0-.06-.15 2.12 2.12 0 0 0-.37-.22c-.44-.21-.11-.6.14-.83l.37-.01c.03 0 .05-.01.08-.03.05-.02.1-.05.13-.09.16-.12.4-.14.52-.28.23-.26.46-.5.68-.71.28-.29.57-.48.85-.57.43-.1.85-.18 1.26-.24.24-.03.5-.2.7-.2.33 0 .63-.08.91-.23.09-.04.28-.05.4-.1.28-.1.55-.1.83-.02.15.05.21.04.36.01.03 0 .05-.01.07-.03.08-.06.17-.1.26-.12.03 0 .06-.02.08-.04a.16.16 0 0 1 .1-.06c.04 0 .07-.02.1-.04.25-.2.47-.33.65-.38.38-.1.9.08 1.35-.18.13-.08.26-.12.4-.14.53-.08 1.06-.18 1.6-.31.15-.04.34.05.5.06.2.02.36.11.56.15.03 0 .05.02.07.05.09.2.08.39-.04.57l-.02.02a.06.06 0 0 1-.06 0l-.02-.02c-.03-.05-.08-.06-.14-.03Z" fill="#2A261A"/><path d="m34.06 18.81.19.2c.24.4.3 1.02.38 1.49.01.09 0 .3.05.42.08.23.1.45.11.73 0 .08.05.11.13.1.61-.15 1.32.37 1.57.89.36.75.35 1.8-.16 2.55-.43.64-1.03.96-1.8.96-.07 0-.16-.08-.3-.22l.1-.3c0-.05 0-.05-.04-.02a.22.22 0 0 0-.08.15c0 .03-.02.05-.05.05-.06 0-.1-.03-.1-.1-.05-.35 0-.7.12-1.06.16-.45-.15-.9-.5-1.16h-.04a.1.1 0 0 1-.07-.02l-.66-.5c.35-.25.63-.56.73-1 .13-.62.07-1.2-.2-1.77-.65-.9-1.5-1.14-2.52-.7a2.2 2.2 0 0 0-.88.73c-.1.15-.1.33-.12.5 0 .06-.03.17-.08.33-.09.28.05.6.12.89l-.09-.13c-.02-.02-.03-.02-.03.01v.09c-.12-.36-.21-.72-.3-1.09a2.63 2.63 0 0 0-.44-.77c.09.07.15.07.19 0a.12.12 0 0 0-.04-.15c-.17-.13-.24-.25-.48-.22a.04.04 0 0 1-.03-.02.04.04 0 0 1 0-.04c0-.04.03-.09.07-.14.37-.23.76-.38 1.18-.44.73-.11 1.3-.23 1.96-.33.44-.07.86.34 1.32.33a.11.11 0 0 0 .1-.07.12.12 0 0 0-.01-.12l-.2-.28a.06.06 0 0 1-.02-.05.06.06 0 0 1 .04-.04c.37-.15.67-.04.88.32Z" fill="#CB9D6A"/><path d="M23.29 20.66c-.22.2-.45.45-.68.71-.12.14-.36.16-.52.28l-.13.1a.16.16 0 0 1-.08.02l-.37.01c-.04-.01-.1 0-.2.02l.35-.21a.14.14 0 0 1 .08-.02c.14 0 .22-.05.24-.15.24-1.1.4-1.88.48-2.33 0-.05-.02-.1-.08-.12.16-.05.3-.14.43-.28.09-.02.14-.04.15-.06.08-.14.13-.13.13.04 0 .05-.01.12-.05.2a.1.1 0 0 1-.06.05c-.08.04-.16.1-.17.2-.02.24-.05.47 0 .7.06.2.07.37.24.53.08.07.16.18.24.3Z" fill="#826541"/><path d="M33.44 20.2c-.01.14-.06.22-.15.23-.1.02-.22.03-.33.01-.19-.02-.2-.14-.36-.17-.36-.27-.73-.3-1.1-.1-.16-.03-.31-.1-.46-.21a.19.19 0 0 1-.07-.09.17.17 0 0 0-.1-.1.07.07 0 0 1-.03-.03.08.08 0 0 1-.01-.04c0-.07.03-.13.1-.2 1.02-.44 1.86-.2 2.51.7Z" fill="#FBE6BD"/><path d="M28.81 19.5a.33.33 0 0 0-.08.13.04.04 0 0 0 0 .04l.03.01h.01c.24-.02.31.1.48.23.02.02.04.04.04.07v.07c-.04.08-.1.08-.2 0a.59.59 0 0 0-.3-.09c-.02 0-.03 0-.05.02a.1.1 0 0 0-.03.03c-.04.08-.03.15.02.21.02.02.04.05.04.08.02.11.05.2.06.32 0 .16.04.3.1.45a.2.2 0 0 1 0 .09l-.04 1.14v.02c-.17.32-.27.66-.29 1.02 0 .02 0 .04.02.06l.22.33a.1.1 0 0 0 .04.04c.2.07.38.18.55.31.06.06.2.1.4.15l.07.05c.06.1.14.18.25.26.18.12.3.28.4.5a.1.1 0 0 0 .05.05l.03.02a.05.05 0 0 0 .06.01l.02-.02v-.03c0-.28-.06-.48-.21-.76a3.8 3.8 0 0 1-.47-1.64c-.01-.13-.08-.38-.2-.75l.01-.09c0-.03.01-.03.03 0l.09.12c.26.82.82 1.28 1.7 1.36.44.04.86-.07 1.25-.33l.66.49a.1.1 0 0 0 .07.02h.05c.34.25.65.71.49 1.16-.13.36-.17.71-.12 1.06 0 .07.04.1.1.1.03 0 .05-.02.05-.05 0-.06.03-.11.08-.15.03-.03.04-.03.03.02l-.08.3c-.56 1.73-1.08 3.32-2.4 4.4-.28.23-.81.5-.88.9-.02.14-.13.38-.07.56l-.15.03a.42.42 0 0 0-.2-.01c-.06 0-.06 0-.03-.05a.09.09 0 0 0 .02-.06.09.09 0 0 1 .05-.07c.07-.05.13-.1.16-.2 0-.02 0-.04-.02-.05-.02-.02-.03-.04-.02-.07.01-.03 0-.04-.03-.04-.26-.02-.35.15-.56.25a.12.12 0 0 1-.08.01c-.04 0-.06 0-.07.03a.07.07 0 0 1-.06.04c-.22 0-.44.02-.65.03-.15.01-.3.08-.5.07-.27-.01-.5-.07-.68-.16-.1-.05-.12-.13-.07-.23 0-.03.03-.04.05-.04.5.01.67-.23 1-.55.03-.03.09-.1.15-.2.07-.1.2-.17.27-.24a14.94 14.94 0 0 0 .75-.75l.09.01c.07.03.13.02.2-.03a.1.1 0 0 1 .09-.01c.14.04.27.01.4-.08.07-.07.06-.1-.04-.1-.23 0-.5.1-.72.06-.21-.03-.4-.07-.61-.08-.63 0-1.26 0-1.9.02-.27.01-.58-.03-.87-.02-.25 0-.43-.07-.65-.15a.07.07 0 0 1-.04-.04c-.01-.04-.04-.05-.09-.04a.95.95 0 0 1-.25-.2c-.07-.07-.07-.13-.02-.2a.07.07 0 0 1 .1-.01c.14.1.26.1.38.15a.8.8 0 0 0 .18.07c.4.05.8.15 1.2.03.19-.06.38-.1.57-.12.2-.02.41.09.64.02.21-.06.41-.1.6-.1.05 0 .1 0 .16-.02.14-.03.3 0 .4-.01a7.98 7.98 0 0 0 1.13-.3v-.01l-.02-.03a.08.08 0 0 0-.08-.04c-.9.12-1.78.12-2.65 0-.6-.09-1.18-.08-1.72-.15-.04 0-.12-.03-.24-.08-.02 0-.02-.01-.02-.03l.02-.03c0-.04.03-.05.06-.05h.79l.03.03c.33.07.63.16.97.16l.95-.02c.09 0 .16-.02.21-.05a.3.3 0 0 0 .15-.18c.08-.26.14-.44.2-.56a.16.16 0 0 0 .02-.08c0-.03 0-.06.02-.08a.09.09 0 0 1 .07-.06l.5-.07-.12.06a.06.06 0 0 0-.03.03v.03c0 .02 0 .03.02.04l.03.01.82.05c.2.01.37.07.55.13.04.01.07.03.09.06a.4.4 0 0 0 .2.15.06.06 0 0 0 .07-.02.06.06 0 0 0 .01-.06.58.58 0 0 0-.38-.4c-.47-.17-.8-.1-1.24-.09l.8-.1c.01 0 .02 0 .03-.02l.01-.03.01-.01a.04.04 0 0 0-.01-.04h-.02c-.09-.02-.13-.07-.13-.16a.14.14 0 0 0-.03-.1.88.88 0 0 0-.42-.27l.01.03a.04.04 0 0 1-.02.03.04.04 0 0 1-.04 0c-.14-.1-.25-.15-.33-.18a.09.09 0 0 1-.05-.06c-.01-.02-.03-.03-.05-.03a.9.9 0 0 1-.37-.05.9.9 0 0 0-.27-.06 3.25 3.25 0 0 1-1.44-.04c-.14-.03-.2-.12-.16-.27a.1.1 0 0 1 .04-.06l.18-.13a.44.44 0 0 0 .08-.06l.21-.24a.11.11 0 0 1 .1-.03c.21.03.42 0 .64-.1a.42.42 0 0 0 .16-.12.1.1 0 0 1 .07-.04c.03 0 .05 0 .06.03l.03.02h.04a.37.37 0 0 1 .13-.03c.04 0 .06-.02.05-.06-.02-.05-.05-.08-.1-.08l-.03-.01a.56.56 0 0 0-.02-.03.05.05 0 0 0-.03-.03c-.1-.01-.2-.09-.28-.13a.8.8 0 0 1-.21-.13.08.08 0 0 0-.07-.02.23.23 0 0 1-.2-.07.15.15 0 0 0-.09-.04.19.19 0 0 1-.13-.08.16.16 0 0 0-.07-.06c-.18-.08-.12-.3-.35-.36a.1.1 0 0 1-.06-.05.24.24 0 0 0-.14-.13.08.08 0 0 1-.06-.06.51.51 0 0 1 .06-.38.18.18 0 0 0 .02-.08.4.4 0 0 1 .1-.23c.08-.11.13-.27.17-.48 0-.07.03-.13.08-.16a.12.12 0 0 0 .05-.07l.04-.26c.03-.37-.01-.85-.12-1.43-.08-.45.09-.78.5-1Z" fill="#B08058"/><path d="M30.92 19.5c-.06.07-.1.13-.1.2l.02.04.03.03c.05.02.09.05.1.1l.07.09c.15.11.3.18.46.2-.34.18-.55.46-.64.86-.15.7.32 1.28 1.02 1.21.33-.03.57-.25.79-.52.33-.42.2-1.03-.07-1.44.16.03.17.15.36.17.11.02.22.01.33 0 .09-.02.14-.1.15-.24.27.56.33 1.15.2 1.77-.1.44-.38.75-.73 1-.4.27-.81.38-1.25.34a1.83 1.83 0 0 1-1.7-1.36c-.07-.29-.2-.6-.12-.89l.08-.32c.01-.18.01-.36.12-.5.22-.32.52-.57.88-.73Z" fill="#DCC69B"/><path d="M29.1 20.06c.26.36.42.62.45.77.08.37.17.73.28 1.09.12.37.19.62.2.75.03.6.19 1.14.47 1.64.15.28.21.48.22.77a.05.05 0 0 1-.03.04.05.05 0 0 1-.06 0l-.03-.03a.1.1 0 0 1-.06-.06 1.14 1.14 0 0 0-.39-.5.99.99 0 0 1-.25-.25.12.12 0 0 0-.07-.05c-.2-.04-.34-.1-.4-.15a1.8 1.8 0 0 0-.55-.31.1.1 0 0 1-.05-.04l-.21-.33a.1.1 0 0 1-.02-.06 2.57 2.57 0 0 1 .29-1.04l.05-1.14a.2.2 0 0 0-.02-.09c-.05-.14-.09-.3-.1-.45 0-.12-.03-.2-.05-.32a.14.14 0 0 0-.04-.08c-.05-.06-.06-.13-.02-.2a.1.1 0 0 1 .03-.04l.05-.02c.09 0 .2.03.3.1Z" fill="#D6AE79"/><path d="M32.6 20.27c.26.4.4 1.02.07 1.44-.22.27-.46.49-.79.52-.7.07-1.18-.5-1.02-1.21.09-.4.3-.68.64-.85.37-.2.74-.17 1.1.1Z" fill="#2A261A"/><path d="M31.9 21.26c.12 0 .2-.09.2-.2a.2.2 0 0 0-.2-.2.2.2 0 0 0-.2.2c0 .11.1.2.2.2Z" fill="#DCC69B"/><path d="M21.51 21.78c-.25.23-.58.62-.14.83.14.07.26.14.37.22.03.02.04.04.05.07v.08c-.06.31.01.58.02.88 0 .16.05.32.06.46.02.42.05.93.22 1.32.01.03.02.03.03 0l.04-.21a17.96 17.96 0 0 0-.22-2.47.1.1 0 0 1 .05-.06 1.99 1.99 0 0 0 .72-.17c.18-.08.55.14.71.25.54.34 1.34.81 2 .96.26.05.92-.01 1.2-.1.28-.08.5-.2.64-.37.11-.12.2-.2.27-.25l.02-.02v-.03c.41-.2.51-.43.72-.76-.04.2-.1.37-.18.48a.4.4 0 0 0-.09.23l-.02.08a.51.51 0 0 0-.06.38.09.09 0 0 0 .05.06c.07.02.12.06.15.13a.1.1 0 0 0 .06.05c.23.07.17.28.35.36.03.01.05.03.07.06.03.04.08.07.13.08.03 0 .06.02.08.04.06.06.13.08.2.07.03 0 .06 0 .08.02.06.06.13.1.2.13.1.04.18.12.29.13.01 0 .03.01.03.03l.02.03.02.01c.06 0 .1.03.1.08.02.04 0 .06-.04.06a.37.37 0 0 0-.13.03h-.04a.05.05 0 0 1-.03-.02c-.01-.02-.03-.03-.06-.03a.1.1 0 0 0-.07.04.42.42 0 0 1-.16.12c-.22.1-.43.13-.64.1-.04 0-.07 0-.1.03l-.21.24a.44.44 0 0 1-.08.06l-.18.13a.1.1 0 0 0-.05.06c-.02.15.03.24.17.27a3.25 3.25 0 0 0 1.44.04.9.9 0 0 1 .27.06.9.9 0 0 0 .37.05c.02 0 .04 0 .05.03 0 .03.02.05.05.06a1.84 1.84 0 0 1 .35.18h.02a.04.04 0 0 0 .02-.03l-.01-.03c.17.05.3.14.42.28.02.02.03.05.03.09 0 .1.04.14.13.16a.03.03 0 0 1 .03.02v.03l-.02.03-.03.02-.8.1-.01.01-.51.07a.08.08 0 0 0-.07.06.17.17 0 0 0-.02.08c0 .03 0 .06-.02.08-.06.12-.13.3-.2.56a.3.3 0 0 1-.15.18.44.44 0 0 1-.21.05l-.95.02c-.34 0-.64-.09-.97-.16-.01 0-.02 0-.02-.02v-.01h-.8c-.03 0-.05.01-.06.05l-.02.03c0 .02 0 .03.02.03l.24.08c.54.07 1.13.06 1.72.15.87.12 1.75.12 2.65 0 .03 0 .06.01.08.04l.02.03a.02.02 0 0 1 0 .03h-.01a8 8 0 0 1-1.11.28c-.12.02-.27-.02-.4.01a.78.78 0 0 1-.17.02c-.19 0-.39.04-.6.1-.23.07-.44-.04-.64-.02s-.38.06-.57.12c-.4.12-.8.02-1.2-.03a.8.8 0 0 1-.18-.07c-.12-.05-.24-.05-.38-.15a.08.08 0 0 0-.1.01c-.05.07-.05.13.02.2.07.08.16.15.25.2.05-.01.08 0 .09.04a.07.07 0 0 0 .04.04c.22.08.4.16.65.15.3 0 .6.03.87.02.64-.02 1.27-.02 1.9-.02.2 0 .4.05.6.08.24.03.5-.05.73-.06.1 0 .1.03.03.1a.41.41 0 0 1-.4.08.1.1 0 0 0-.09.01.18.18 0 0 1-.2.03.14.14 0 0 0-.15.04c-.22.24-.44.47-.68.7-.07.07-.2.13-.27.24l-.15.2c-.33.32-.5.56-1 .55a.05.05 0 0 0-.05.04c-.05.1-.03.18.07.23.18.1.4.15.67.16.2.01.36-.06.5-.07l.66-.03c.03 0 .05-.02.06-.04.01-.03.03-.03.07-.03h.08c.2-.1.3-.28.56-.26.03 0 .04.01.03.04 0 .03 0 .05.02.07.02.01.02.03.02.06a.33.33 0 0 1-.17.19.08.08 0 0 0-.03.03l-.01.04c0 .03 0 .05-.02.06-.03.04-.03.06.03.05a.41.41 0 0 1 .2 0c-1.06.68-2.42.62-3.55.26-.52-.16-.96-.3-1.4-.53a1.47 1.47 0 0 0-.39-.1l-.14-.55c-.06-.27-.6-.46-.74-.66-.24-.33-.51-.65-.72-.98-.54-.85-1.22-1.88-1.47-2.75a.21.21 0 0 0-.12-.14.2.2 0 0 0-.18.02c-.56.36-1.45-.27-1.85-.68-.67-.7-.63-1.72-.43-2.62.02-.12.06-.2.12-.27l.15-.18c.3-.42.83-.65 1.29-.83.1-.03.16-.03.2-.02Z" fill="#98724A"/><path d="M35.81 23.91c.3-.55-.2-.85-.54-1.16-.02-.02-.02-.03 0-.05l.02-.02a.08.08 0 0 1 .1 0 2.92 2.92 0 0 1 .68.87v.05c-.13.36-.38.99-.79 1.07-.05 0-.09-.02-.1-.07v-.04c-.02-.06 0-.09.06-.09.37.03.43-.3.57-.56Z" fill="#826541"/><path d="M20.33 23.99c.05.52.42.97.98.95h.01a.03.03 0 0 1 .02.02V25c-.02.04-.04.07-.08.07a.9.9 0 0 1-.73-.31c-.1-.11-.14-.26-.23-.4a.19.19 0 0 1-.03-.08c-.03-.16-.13-.3-.11-.45.03-.41.64-.83 1-1a.04.04 0 0 1 .03 0 .04.04 0 0 1 .02.03v.02c.02.02.02.04.01.06l-.04.04c-.3.15-.56.36-.75.62a.55.55 0 0 0-.1.39ZM27.8 25.31c.08.14.22.2.3.15.08-.06.07-.21-.02-.35-.08-.14-.22-.2-.3-.15-.08.06-.07.22.01.35ZM30.01 25.64l-.02.03h-.05a.36.36 0 0 1-.2-.14.28.28 0 0 1-.04-.1v-.11l.01-.01c0-.04.03-.07.05-.1a.26.26 0 0 1 .09-.06.31.31 0 0 1 .11-.03c.04 0 .08 0 .12.02h.02l.02.01a.05.05 0 0 1 .01.03v.02l-.12.44Z" fill="#2A261A"/><path d="M28.7 27.4h-.01c-.23.04-.43.03-.6-.02a.15.15 0 0 1-.1-.09.16.16 0 0 1 0-.13c.13-.29 1-.15 1.22-.1l.03.01.01.02a.06.06 0 0 1 0 .06c-.02.06-.07.1-.12.1-.15.03-.27.07-.4.12-.01 0-.02 0-.02.02Z" fill="#826541"/><path d="M30.44 27.05h.01c.45-.02.77-.09 1.24.09.2.07.32.2.38.39a.06.06 0 0 1-.01.06.06.06 0 0 1-.06.02.4.4 0 0 1-.21-.15.17.17 0 0 0-.09-.06c-.18-.06-.36-.12-.55-.13a25.06 25.06 0 0 0-.85-.06.06.06 0 0 1-.02-.07c0-.02.02-.02.03-.03l.13-.06Z" fill="#CB9D6A"/><path d="M25.4 31.45c.2.03.33.06.39.09.44.24.88.37 1.4.53 1.13.36 2.5.42 3.55-.25l.15-.03c.18.07.26.13.25.18-.14.34-.14.7-.01 1.1.01.04.1.12.24.21v.24c-.21-.2-.4-.4-.57-.63a.88.88 0 0 0-.3-.27c-.9-.4-1 1.14-.44 1.27.02.01.02.03.01.05 0 .02-.02.04-.04.04l-.83.12c-.04 0-.06 0-.06-.05v-.12c.32-.46-.15-.78-.55-.84-.1-.03-.22 0-.35.07-.35.21-.37.52-.07.93-.37.05-.73.02-1.08-.08-.03 0-.05-.03-.04-.06l.03-.13c.11-.32.1-.6-.05-.85-.18-.24-.56-.34-.8-.15-.28.21-.37.49-.52.83a.77.77 0 0 0-.07.39.1.1 0 0 1-.03.08c-.24.23-.47.47-.69.72-.1.12-.24.2-.4.22l-.02.01-.01.02c-.01.02-.03.04-.05.04-.67.25-1.2.21-1.86.23a.09.09 0 0 1-.06-.02.1.1 0 0 1-.03-.07v-.25l.01-.2 1.14-.2c.8-.1 1.37-.5 1.68-1.23a.55.55 0 0 0 .17-.3c.09-.3.03-.55-.18-.74a.14.14 0 0 0-.08-.04 1 1 0 0 0-.68.15c-.21.13-.25.09-.12-.12 0-.02.06-.05.17-.1l.05-.05v-.07c-.02-.03-.04-.04-.07-.04l-.61.03c-.02 0-.05 0-.07.02-.15.09-.29.1-.4.01.2-.1.41-.17.63-.23.3-.07.57-.25.91-.27l.06-.02.3-.17Z" fill="#2A261A"/><path d="M31.14 31.97a10.01 10.01 0 0 1 1.42.4l.04.06a.16.16 0 0 1 0 .15.15.15 0 0 1-.06.05l-1.17.65c-.14-.1-.23-.17-.24-.22-.13-.39-.13-.75 0-1.09Z" fill="#DCC69B"/><path d="M25.5 33.08c0-.14-.04-.22-.14-.23-.3-.05-.6-.04-.9.01-.26.05-.52.21-.8.3 0-.1.09-.24.27-.42.03-.02.03-.04-.01-.05l-.4-.14a.21.21 0 0 1-.1-.08.22.22 0 0 1-.04-.12c0-.1.03-.18.11-.21.12.08.26.08.41-.01a.14.14 0 0 1 .07-.02l.6-.03c.04 0 .06.01.08.04v.07l-.05.04a.77.77 0 0 0-.17.1c-.13.22-.1.26.12.13a1 1 0 0 1 .68-.15c.03 0 .06.02.08.04.2.2.27.44.18.73Z" fill="#827B62"/><path d="M31.36 33.52c.11.1.13.22.07.34a.1.1 0 0 1-.06.05l-.21.05a.08.08 0 0 0-.05.05.08.08 0 0 0 0 .07c.33.57 1.35 1 1.89 1.03l1.14.02c.04 0 .09-.01.13-.04a.23.23 0 0 0 .08-.11.46.46 0 0 1 .27-.3c.24-.05.37-.01.38.1.04.35.11.7.11 1.04.01.48 0 .97-.02 1.46-.06-.32-.4-.3-.65-.33-.33-.03-.59-.19-.95-.14-.17.02-.3.02-.4 0-.26-.07-.52-.2-.76-.4-.06-.04-.08-.09-.08-.14 0-.03 0-.05-.02-.07l-1.15-1.3a.06.06 0 0 1-.01-.08c.02-.04.01-.08-.02-.1a.1.1 0 0 1-.05-.05l-.14-.48a.22.22 0 0 1-.01-.1c0-.04 0-.07-.02-.1-.03-.05-.07-.07-.14-.08a2.5 2.5 0 0 0-.55 0l-.08-.02c-.56-.13-.45-1.68.45-1.27.08.04.18.13.29.27.17.22.36.43.56.63Z" fill="#D6AE79"/><path d="M27.03 32.97c-.18-.05-.34-.02-.46.08a.16.16 0 0 1-.08.04c-.15.02-.26.27-.32.37a.14.14 0 0 1-.07.06.59.59 0 0 0-.4.5.08.08 0 0 0 .03.07.07.07 0 0 0 .07.02c.33-.1.66-.14.99-.11.1 0 .2-.05.3-.18l-.04.13c0 .03 0 .05.04.06.35.1.7.13 1.08.08.12.09.21.23.28.41a.1.1 0 0 1 0 .09.72.72 0 0 1-.23.23l-.74.5c-.23.16-.4.36-.6.56a.15.15 0 0 1-.07.05.16.16 0 0 0-.07.03c-.59.51-1.21.98-1.72 1.6-.06.07-.18.13-.37.19a.14.14 0 0 0-.08.05.27.27 0 0 1-.12.1.13.13 0 0 0-.07.05.67.67 0 0 0-.12.55c.04.19.04.38.02.57 0 .03 0 .06.02.08.04.07.06.15.08.22h-.01l-.01-.01c0-.02-.02-.03-.04-.03l-.05.02c-.38-.22-.69-.5-.91-.86a7.86 7.86 0 0 0-.28-.42c-.25-.34-.51-.6-.61-1.04-.12-.6-.09-1.23.02-2.01v.25a.1.1 0 0 0 .03.07l.03.02h.03c.66-.02 1.2.02 1.86-.23.02 0 .04-.02.04-.04l.02-.02h.03c.15-.03.28-.1.4-.23.21-.25.44-.49.68-.72a.1.1 0 0 0 .03-.08.77.77 0 0 1 .07-.4c.15-.33.24-.6.51-.82.25-.19.63-.09.8.15Z" fill="#826541"/><path d="M25.5 33.08a.55.55 0 0 1-.18.3c-.5-.06-.98-.08-1.47-.07-.12 0-.19-.05-.19-.16.28-.08.54-.24.8-.29.3-.05.6-.05.9-.01.1.01.14.09.13.23ZM27.03 32.97c.14.25.16.53.05.85-.09.13-.19.19-.3.18a2.47 2.47 0 0 0-1.02.1h-.03l-.02-.04v-.04a.59.59 0 0 1 .4-.5.14.14 0 0 0 .06-.06c.06-.1.17-.35.32-.37.03 0 .06-.02.08-.04.12-.1.28-.13.46-.08Z" fill="#D6AE79"/><path d="M28.59 33.09c-.07.2-.11.44-.12.7 0 .09.02.17.06.24.02.03.03.06.03.1l.06.43.01.04a.1.1 0 0 0 .07.04h.03c.3-.08.32-.47.41-.71v.12c0 .04.02.06.06.05l.83-.12c.02 0 .04-.02.04-.04.01-.02 0-.04-.01-.05.03 0 .06 0 .08.02l.13.05c.03 0 .04.02.03.05-.05.22-.1.76.05.95l.22.27c.1.11.14.27.1.47-.04.34.22.62.48.8.11.08.13.18.05.28a.1.1 0 0 1-.06.04.3.3 0 0 1-.12 0c-.03 0-.05 0-.08.02l-.3.17c-.25.13-.47.47-.42.75.02.15.14.28.21.4.1.2.32.31.25.6-.04.14-.12.3-.24.48-.08.12-.1.25-.19.37a63.87 63.87 0 0 1-.02.55c0 .26.16.77.36.94.05.04.14.09.28.14.2.07.3.2.28.36l-1.05.31c-.26.1-.48.13-.66.12a2.54 2.54 0 0 1-1.25-.4 9.04 9.04 0 0 1-.4-.25c-.58-.4-1.27-.73-1.9-1.05-.47-.24-.91-.53-1.37-.8l-.25-.19h.05c.02-.01.03 0 .04.02l.01.02a.67.67 0 0 0-.07-.23.13.13 0 0 1-.02-.08c.02-.2.02-.38-.02-.57a.67.67 0 0 1 .12-.55.13.13 0 0 1 .07-.05c.05-.02.09-.05.12-.1a.14.14 0 0 1 .08-.05c.19-.06.3-.12.37-.2.5-.6 1.13-1.08 1.72-1.6a.16.16 0 0 1 .07-.02l.07-.05c.2-.2.37-.4.6-.56l.74-.5c.1-.06.17-.14.23-.23a.1.1 0 0 0 0-.09.88.88 0 0 0-.28-.4c-.3-.42-.28-.73.07-.94.13-.07.25-.1.35-.07Z" fill="#B08058"/><path d="M28.59 33.09c.4.06.87.38.55.84-.09.24-.1.63-.4.71a.09.09 0 0 1-.08-.01.1.1 0 0 1-.04-.07l-.06-.44a.24.24 0 0 0-.03-.09.44.44 0 0 1-.06-.24c.01-.26.05-.5.12-.7Z" fill="#DCC69B"/><path d="M30.14 33.91c.18-.02.36-.02.55 0 .07.01.11.03.14.07.02.04.02.07.02.12v.09l.15.48c0 .02.02.04.05.05.03.02.04.06.02.1a.07.07 0 0 0 0 .07l1.16 1.3c.02.03.03.05.02.08 0 .05.02.1.08.14.24.2.5.33.77.4.09.02.22.02.4 0 .35-.05.6.11.94.14.26.02.6.01.65.33-.2.85-.54 1.27-1 1.86-.1.15-.2.25-.27.3-.58.38-.96.81-1.4 1.25-.36.37-.85.6-1.27.9.02-.16-.08-.28-.28-.35a.94.94 0 0 1-.28-.14c-.2-.17-.36-.68-.36-.94a63.87 63.87 0 0 0 .02-.55c.09-.12.11-.25.2-.37.11-.18.19-.34.23-.48.07-.29-.14-.4-.25-.6-.07-.12-.2-.25-.21-.4-.05-.28.17-.62.41-.75l.31-.17a.13.13 0 0 1 .08-.01.3.3 0 0 0 .12 0 .1.1 0 0 0 .06-.05c.08-.1.06-.2-.05-.28-.26-.18-.52-.46-.47-.8.03-.2 0-.36-.1-.47l-.23-.27c-.15-.2-.1-.73-.05-.95 0-.03 0-.05-.03-.05l-.13-.05Z" fill="#CB9D6A"/><path d="m21.8 34-.24.01-.06.02a.14.14 0 0 0-.07.1l.01.07c.06.19.11.43.29.54.16.1.34.07.51-.08l.04-.01h.04c.09.06.15.11.18.17l-.01.2c-.1.78-.14 1.4-.02 2.01l-.23-.16a.11.11 0 0 0-.09-.01.82.82 0 0 1-.39-.03.14.14 0 0 0-.09 0c-.12.04-.24.1-.35.18a.1.1 0 0 0-.04.08c-.02.8-.04 1.48-.31 2.17-.11.28-.13.52-.19.8-.07.31-.08.58.1.81.28.35.4.73.37 1.13 0 .03 0 .06.03.08.03.02.04.05.04.09 0 .16 0 .3-.08.44a.2.2 0 0 0-.03.08c-.05.4.08.83-.16 1.06a.17.17 0 0 0-.04.07c-.05.21-.22.27-.28.5-.02-.48 0-.96-.05-1.41a108.1 108.1 0 0 0-.42-3.25c-.03-.25-.03-.5 0-.73.13-.62.13-1.13.16-1.71.03-.6.14-1.35.15-2.02.1-.4.17-.8.44-1.1.19-.22.53-.15.78-.1Z" fill="#D6AE79"/><path d="m21.8 34 .82-.01c.25 0 .45.03.58.1.2.12.35.3.44.54l-1.14.2a.47.47 0 0 0-.18-.17.06.06 0 0 0-.04-.01l-.04.01c-.17.16-.35.18-.52.08-.17-.1-.22-.35-.28-.54a.14.14 0 0 1 .06-.17.13.13 0 0 1 .06-.02l.23-.01Z" fill="#827B62"/><path d="M37.13 36.2v1.6c.05.9.05 1.79-.12 2.62-.03.15-.02.27-.02.42.01.33-.12.6-.11.94l.02 1.54c-.1.6-.32 1.1-.45 1.68H22.12a.23.23 0 0 1 .04-.17.08.08 0 0 1 .07-.04c.12 0 .2 0 .29-.11.1-.11.21-.2.34-.27a.2.2 0 0 0 .07-.05c.1-.13.24-.18.33-.34.16-.26.24-.7.33-1a.1.1 0 0 1 .05-.06c.1-.06.12-.18.19-.24.14-.15.3-.27.48-.37.22-.13.33-.27.5-.44a.33.33 0 0 0 .04-.07l.1-.2a.24.24 0 0 0 .03-.08.91.91 0 0 0-.02-.4c-.15-.42-.28-.84-.4-1.27a.3.3 0 0 1 0-.16c0-.03 0-.05-.03-.07-.06-.06-.07-.1-.01-.13.46.27.9.56 1.37.8.63.31 1.31.64 1.9 1.05l.4.26c.39.24.8.38 1.25.4.18 0 .4-.04.66-.13.35-.11.7-.22 1.05-.31.42-.31.9-.54 1.27-.9.44-.45.82-.88 1.4-1.26.07-.05.16-.15.28-.3.45-.6.8-1 1-1.86.01-.49.02-.98.01-1.46 0-.34-.07-.7-.1-1.04-.02-.11-.15-.15-.4-.1.13-.13.25-.18.35-.16.4.1.9.16 1.51.2.66.02.6 1.06.66 1.48Z" fill="#FBE6BD"/><path d="M20.57 35.2c0 .67-.12 1.42-.15 2.02-.03.58-.03 1.09-.16 1.7a21.92 21.92 0 0 1-.83-.64.1.1 0 0 0-.03-.05c-.3-.27-.59-.32-.93-.47h-.02l-.01.03c0 .01-.01.02-.02.01a.16.16 0 0 1-.09-.05.02.02 0 0 0-.01 0l-.35-.04a.1.1 0 0 0-.05.01c-.35.19-.56.43-.63.71a6.81 6.81 0 0 0-.06 1.81c.02.16.02.33 0 .5 0 .03.01.05.03.08.11.13.1.31.14.42.1.35.02.65.1.98.14.62.12 1.24-.04 1.86l-.1.42c-.04.17 0 .32 0 .5h-.93l-.1-.02c-.02-.01-.04-.03-.04-.06-.05-.47-.15-.95-.17-1.4L16 41.21a5.63 5.63 0 0 1 2.01-4.43 7.2 7.2 0 0 1 1.36-.97l1.2-.61Z" fill="#826541"/><path d="M37.13 36.2c.2.08.37.2.53.37.48.5.93.92 1.2 1.5.07.16.14.4.2.74.16.74.29 1.5.45 2.3.26 1.24.42 2.53.49 3.89h-3.55c.13-.57.36-1.07.45-1.68v-.89c0-.07.01-.07.03 0l.14.56c.01.06.05.1.11.12l.25.07c.03 0 .06.03.08.05.08.08.16.09.24.16.2.2.38.44.61.6.11.08.34.22.4.34l.05.06c.22.12.38-.03.55-.14a.22.22 0 0 0 .08-.1.23.23 0 0 0 .02-.12c-.07-.61.07-1.38-.5-1.78-.34-.25-.66-.6-.6-1.04.02-.23.09-.44.19-.65l.25-.55c.05-.25.03-.5-.07-.76a.17.17 0 0 0-.05-.07c-.02-.03-.03-.06-.03-.1.01-.04 0-.07-.03-.1l-.73-.66a.09.09 0 0 0-.05-.02h-.03a19.46 19.46 0 0 1-.46-.46c-.16-.18-.23-.19-.22-.03V36.2Z" fill="#D6AE79"/><path d="M22.47 37.03c.1.44.36.7.61 1.04l.28.42c.22.35.53.64.9.85l.26.19c-.06.03-.05.07.01.13.02.02.03.04.02.07a.3.3 0 0 0 0 .16l.4 1.27c.04.1.05.24.03.4 0 .03 0 .05-.02.08l-.11.2a.33.33 0 0 1-.05.07c-.16.17-.27.31-.5.44-.17.1-.33.22-.47.37-.07.06-.1.18-.2.24a.1.1 0 0 0-.04.06c-.1.3-.17.74-.33 1-.1.16-.24.21-.33.34a.2.2 0 0 1-.07.05c-.13.07-.24.16-.34.27-.1.1-.17.1-.3.11a.08.08 0 0 0-.06.04.23.23 0 0 0-.04.17h-1.38l-.01-.69c.06-.22.23-.28.28-.49 0-.03.02-.05.04-.07.24-.23.1-.66.16-1.06a.2.2 0 0 1 .03-.08c.09-.15.07-.27.08-.44a.11.11 0 0 0-.04-.1.08.08 0 0 1-.03-.07c.03-.4-.09-.78-.37-1.13-.18-.23-.17-.5-.1-.8.06-.29.08-.53.19-.8.27-.7.29-1.39.31-2.18a.1.1 0 0 1 .04-.08c.11-.08.23-.14.35-.18a.14.14 0 0 1 .1 0c.12.04.25.05.38.03l.09.01.23.16Z" fill="#DCC69B"/><path d="M36.9 43.32c0-.51 0-1.02-.02-1.54-.01-.33.12-.61.11-.94 0-.15 0-.27.02-.42.17-.83.17-1.72.12-2.61-.01-.16.06-.15.22.03a19.95 19.95 0 0 0 .46.46h.03l.05.02.73.66c.03.03.04.06.03.1 0 .04 0 .07.04.1.02.01.03.04.05.07.1.25.11.5.06.76l-.25.55c-.1.2-.17.42-.2.65-.05.44.27.8.6 1.04.58.4.44 1.17.51 1.78 0 .04 0 .09-.02.13a.22.22 0 0 1-.08.1c-.17.1-.33.25-.55.13a.13.13 0 0 1-.05-.06c-.06-.12-.29-.26-.4-.33-.23-.17-.4-.4-.61-.6-.08-.08-.16-.09-.24-.17a.17.17 0 0 0-.08-.05l-.25-.07a.15.15 0 0 1-.11-.12l-.14-.56c-.02-.07-.02-.07-.02 0l-.01.9Z" fill="#CB9D6A"/><path d="M20.26 38.93c-.03.24-.03.48 0 .73.15 1.04.28 2.07.42 3.25.05.45.03.93.05 1.4l.01.69h-3.39c0-.18-.04-.33 0-.5l.1-.42c.17-.62.19-1.24.05-1.86-.08-.33 0-.63-.1-.98-.04-.1-.03-.3-.14-.42a.1.1 0 0 1-.02-.09c.01-.16 0-.33-.01-.49a6.81 6.81 0 0 1 .06-1.81c.07-.28.28-.52.63-.7a.1.1 0 0 1 .05-.02l.35.03a.02.02 0 0 1 .01.01c.02.03.05.04.09.05h.02v-.03h.03c.34.14.63.2.93.46a.1.1 0 0 1 .03.05c0 .02.02.04.03.05.25.2.52.4.8.6Z" fill="#B08058"/></svg>