<!-- by TradingView --><svg width="56" height="56" viewBox="0 0 56 56" xmlns="http://www.w3.org/2000/svg"><path fill="url(#a)" d="M0 0h56v56H0z"/><path d="M44 30V18.37l-6 2.15v4.83L33 27v-5l-4.5 1.74v-3.76c0-.54.57-.54 2.7-.54 1.7 0 4.09-2.37 4.8-3.44-1.6.54-4.8 1.3-5.87-.85-.85-1.72-1.94-2.15-2.48-2.15v10.74L23 22v5l-5-1.65v-4.83l-6-2.15V30l4 1-4 1v10l16-5 16 5V32l-4-1 4-1Z" fill="#F15A25"/><defs><linearGradient id="a" x1="10.42" y1="9.71" x2="68.15" y2="76.02" gradientUnits="userSpaceOnUse"><stop stop-color="#1A1E21"/><stop offset="1" stop-color="#06060A"/></linearGradient></defs></svg>