<!-- by TradingView --><svg width="56" height="56" viewBox="0 0 56 56" xmlns="http://www.w3.org/2000/svg"><path fill="#BEC9F7" d="M0 0h56v56H0z"/><path fill-rule="evenodd" d="M24 10h2v10.27a8 8 0 0 0 0 15.46V36h1v10h-2v-2.29C17.6 42.29 12 35.79 12 28c0-7.44 5.1-13.7 12-15.48V10Zm1 31.67v-4.14a10 10 0 0 1-1-18.68V14.6A14.01 14.01 0 0 0 14 28c0 6.68 4.71 12.27 11 13.67ZM30 20v.23c2.86.7 5.1 2.94 5.84 5.77H44a16.04 16.04 0 0 0-12-13.52V10h-2v10Zm11.53 4h-4.26A10.06 10.06 0 0 0 32 18.8v-4.24A14.06 14.06 0 0 1 41.53 24Zm-5.44 6h-.25A8.03 8.03 0 0 1 30 35.77V46h2v-2.48A16.04 16.04 0 0 0 44 30H36.1Zm1.18 2A10.06 10.06 0 0 1 32 37.2v4.24A14.06 14.06 0 0 0 41.53 32h-4.26Z" fill="#000006"/></svg>