<svg width="56" height="56" viewBox="0 0 56 56" xmlns="http://www.w3.org/2000/svg"><path d="M25.33 12.13c-1.64.25-2.81.61-4.28 1.34a15.35 15.35 0 0 0-4.19 2.96 15.55 15.55 0 0 0-3.18 4.4 14.63 14.63 0 0 0-1.62 6.02 16.1 16.1 0 0 0 5.62 13.37c1.05.9 3.4 2.4 3.4 2.16 0-.02-.26-.36-.56-.75A16.22 16.22 0 0 1 17 33.45c-.16-1-.16-3.7 0-4.72.45-2.98 1.5-5.53 3.15-7.62.6-.77 1.75-1.83 2.53-2.35a9.26 9.26 0 0 1 5.25-1.64c1.39 0 2.38.16 3.82.63l.75.25.67-.21a27.9 27.9 0 0 1 2.88-.65c.16 0 .05.1-.31.29a5.59 5.59 0 0 0-2.46 2.83 5.12 5.12 0 0 0-.32 2.19c.04.93.17 1.45.6 2.3a5.29 5.29 0 0 0 5 2.98c.8 0 .96-.02 1.45-.17a6.15 6.15 0 0 0 3.76-2.95c.2-.4.09-.43-.32-.05-.69.64-1.31.98-2.18 1.2-.75.19-1.91.15-2.61-.1a4.83 4.83 0 0 1-3.18-3.54c-.2-.79-.19-1.61.02-1.82.07-.07.08-.04.19.68.26 1.73 2.16 2.95 4 2.57.74-.16 1.7-.74 2.09-1.28.36-.5.48-.86.48-1.5-.01-1.16-.6-2.26-2-3.62-1.67-1.65-3.56-2.79-6.6-3.95-2.62-1-5.97-1.44-8.33-1.07Z"/><path d="M28.9 18.8c-.36.2-.53.59-.5 1.1.02.25.47.7.77.75.73.14 1.39-.53 1.2-1.22-.18-.64-.9-.96-1.47-.63ZM43.45 31.5a17.03 17.03 0 0 1-2.4 2.96 18.4 18.4 0 0 1-10.3 5.29c-.76.1-2.57.08-3.34-.03a10.79 10.79 0 0 1-7.2-4.38l-.52-.71c-.06-.11-.13-.2-.17-.2-.14 0 .22 1.7.61 2.83 1.56 4.5 5.47 7.05 10.35 6.7 5.6-.39 10.79-4.53 12.77-10.2.26-.77.77-2.78.75-2.95-.01-.1-.17.1-.55.7Z"/></svg>