<!-- by TradingView --><svg width="56" height="56" viewBox="0 0 56 56" xmlns="http://www.w3.org/2000/svg"><path fill="#1F3A3B" d="M0 0h56v56H0z"/><path d="m32 18 4.5 3.68L37.6 32H44v1h-6.9a.57.57 0 0 1-.56-.5l-1.11-10.24-2.14-1.79L34.77 34H49v1H34.27a.57.57 0 0 1-.57-.5L32 18Z" fill="#D49823"/><path d="m24 18-4.5 3.68L18.4 32H12v1h6.9c.29 0 .53-.22.56-.5l1.11-10.24 2.14-1.79L21.23 34H7v1h14.73c.3 0 .53-.22.57-.5L24 18Z" fill="#DD9623"/><path d="M26.03 16h3.94L31 35h-1l-.97-18h-2.06L26 35h-1l1.03-19Z" fill="#FDB721"/></svg>