<!-- by TradingView --><svg width="56" height="56" viewBox="0 0 56 56" xmlns="http://www.w3.org/2000/svg"><path fill="url(#aj5i3uxen)" d="M0 0h56v56H0z"/><path d="M28 42a14 14 0 1 0 0-28 14 14 0 0 0 0 28Zm0 3a17 17 0 1 0 0-34 17 17 0 0 0 0 34Z" fill="url(#bj5i3uxen)"/><circle cx="28" cy="28" r="14" fill="url(#cj5i3uxen)"/><circle cx="17" cy="24" r="1" fill="url(#dj5i3uxen)"/><circle cx="39" cy="24" r="1" fill="#EDEEF0"/><path d="M29.5 21.5a1.5 1.5 0 1 1-3 0 1.5 1.5 0 0 1 3 0Z" fill="url(#ej5i3uxen)"/><path fill-rule="evenodd" d="M18.09 26c-1.05 0-2.09.5-2.09 1.5 0 2 2.6 4.5 5.22 4.5.7 0 2.08-.5 2.6-1 .53.5 1.68 1 4.18 1s3.83-.67 4.17-1c.53.33 2.1 1 2.61 1C37.4 32 40 30 40 27.5c0-1.5-1.24-1.5-2.09-1.5-.84 0-3.65 1-4.7 2.5C32.18 27 30.1 24 28 24s-4.35 3-5.22 4.5c-.7-.83-2.6-2.5-4.7-2.5Zm1.04 1c1.25 0 2.6 1.33 3.13 2 0 .33-.31 1-1.56 1-1.57 0-3.13-1.5-3.13-2s0-1 1.56-1ZM28 27c-1.25 0-2.96 2-3.65 3A5.8 5.8 0 0 0 28 31.5c1.67 0 3.13-1 3.65-1.5-.7-1-2.4-3-3.65-3Zm8.87 0c-1.25 0-2.6 1.33-3.13 2 0 .33.31 1 1.56 1 1.57 0 3.13-1.5 3.13-2s0-1-1.56-1Z" fill="url(#fj5i3uxen)"/><path d="M20.7 30c-1.57 0-3.13-1.5-3.13-2s0-1 1.56-1v-.87a4.34 4.34 0 0 0-1.04-.13c-1.05 0-2.09.5-2.09 1.5 0 2 2.6 4.5 5.22 4.5 4.17 0 4.17-5 6.78-5 2.09 0 3.38 5 6.78 5C37.4 32 40 30 40 27.5c0-1.5-1.24-1.5-2.09-1.5-.23 0-.6.07-1.04.2v.8c1.56 0 1.56.5 1.56 1s-2.12 2-3.13 2c-2.6 0-2.6-6-7.3-6-3.5 0-5.36 6-7.3 6Z" fill="url(#gj5i3uxen)"/><defs><linearGradient id="aj5i3uxen" x1="10.42" y1="9.71" x2="68.15" y2="76.02" gradientUnits="userSpaceOnUse"><stop stop-color="#1A1E21"/><stop offset="1" stop-color="#06060A"/></linearGradient><linearGradient id="bj5i3uxen" x1="14.5" y1="17" x2="38" y2="41" gradientUnits="userSpaceOnUse"><stop stop-color="#717074"/><stop offset=".1" stop-color="#EBE9ED"/><stop offset=".93" stop-color="#F5FCFD"/><stop offset="1" stop-color="#5F647A"/></linearGradient><linearGradient id="cj5i3uxen" x1="21.5" y1="16.5" x2="34.5" y2="40" gradientUnits="userSpaceOnUse"><stop stop-color="#435AB6"/><stop offset=".5" stop-color="#616267"/><stop offset="1" stop-color="#4059C0"/></linearGradient><linearGradient id="dj5i3uxen" x1="17" y1="23" x2="17" y2="25" gradientUnits="userSpaceOnUse"><stop stop-color="#EFF5FC"/><stop offset="1" stop-color="#B4B3B1"/></linearGradient><linearGradient id="ej5i3uxen" x1="28.5" y1="20" x2="28.5" y2="23" gradientUnits="userSpaceOnUse"><stop stop-color="#F6F6F6"/><stop offset="1" stop-color="#BFBEBE"/></linearGradient><linearGradient id="fj5i3uxen" x1="17.57" y1="26" x2="35.16" y2="31.94" gradientUnits="userSpaceOnUse"><stop offset=".1" stop-color="#7A819D"/><stop offset=".28" stop-color="#E4E4EE"/><stop offset=".41" stop-color="#F6F7F9"/><stop offset=".59" stop-color="#7D818A"/><stop offset="1" stop-color="#070708"/></linearGradient><linearGradient id="gj5i3uxen" x1="17.57" y1="26.5" x2="38.83" y2="32.45" gradientUnits="userSpaceOnUse"><stop stop-color="#878DA7"/><stop offset=".11" stop-color="#898A89"/><stop offset=".31" stop-color="#D8D7D7"/><stop offset=".63" stop-color="#585858"/><stop offset=".84" stop-color="#0A090E"/><stop offset="1" stop-color="#62615F"/></linearGradient></defs></svg>