<svg width="56" height="56" xmlns="http://www.w3.org/2000/svg"><rect fill="url(#paint0_linear)" width="56" height="56" rx="28"/><path d="M44.06 26.793c-.366.083-.616.13-.862.197-1.536.408-3.084.731-4.684.67-2.138-.083-3.974-.956-5.594-2.363-.654-.57-1.262-1.2-1.887-1.805-.304-.292-.377-.624-.146-1.005l.591-.972.798.89c1.151 1.295 2.382 2.475 4.006 3.105 1.594.616 3.218.526 4.849.247 2.305-.391 4.434-1.327 6.522-2.378.069-.035.145-.057.347-.138-.138.264-.215.42-.302.568a27155.93 27155.93 0 01-9.145 15.606c-.375.639-.515.687-1.166.364-4.301-2.145-8.807-2.553-13.458-1.741-.727.127-.856.065-1.203-.692-.38-.827-.377-.805.483-.973a23.656 23.656 0 017.276-.301c2.271.258 4.535.598 6.619 1.683.298.157.456.026.605-.225 1.322-2.241 2.644-4.482 3.973-6.72.71-1.198 1.436-2.387 2.15-3.581.063-.104.112-.213.228-.436zm-32.098.223c.305.523.61 1.045.92 1.566l6.116 10.301c.291.491.291.506-.213.74-1.085.509-.95.64-1.614-.488-2.345-3.997-4.687-7.998-7.03-11.997l-1.897-3.24c-.091-.153-.164-.32-.244-.48l.07-.096c.268.12.537.233.8.358 1.606.763 3.23 1.471 4.95 1.904 2.207.557 4.387.622 6.49-.444 1.31-.662 2.388-1.639 3.36-2.752 1.554-1.787 2.815-3.792 3.96-5.882l.277-.506c.151.229.247.402.37.554.67.834.512 1.577-.053 2.44-1.262 1.928-2.533 3.837-4.213 5.402-1.502 1.4-3.185 2.456-5.164 2.938-1.553.378-3.113.303-4.67.009-.713-.135-1.422-.286-2.133-.43l-.082.103z" fill="#fff"/><defs><linearGradient id="paint0_linear" x1="10.418" y1="9.712" x2="68.147" y2="76.017" gradientUnits="userSpaceOnUse"><stop stop-color="#1A1E21"/><stop offset="1" stop-color="#06060A"/></linearGradient></defs></svg>