<svg xmlns="http://www.w3.org/2000/svg" width="56" height="56"><rect fill="url(#aae4e5xr4)" width="56" height="56" rx="28"/><path d="M34.26 9.86l-1.05.44.8.48c.65.39 1.3.78 1.98 1.1l.16-.07c1-.48 1.99-.97 2.97-1.49A157 157 0 0036.34 9l-2.08.86zm-4.22 1.3l-2.78 1.1 2.04 1.46 3.07-1.33-2.33-1.24zm3.58 4.3l1.25-.5c.62-.26 1.24-.52 1.86-.76l2.45 1.27-.49.24c-.84.4-1.67.8-2.52 1.18-.6-.28-1.17-.62-1.74-.95a41 41 0 00-.81-.48zm-9.44-.96c-1.14.4-2.27.78-3.4 1.19.9.46 1.82.9 2.74 1.33.83-.21 1.64-.52 2.44-.82l1.32-.48a59.9 59.9 0 00-2.13-1.14L25 14.5c-.18-.1-.38-.2-.58-.08l-.24.08zm3.25 1.93c.8-.32 1.6-.63 2.43-.9l2.9 1.2-3.15 1.6a85.04 85.04 0 01-3.17-1.52l.99-.38zm-7.58.8c-.9.29-1.79.57-2.67.88l.96.53c.6.34 1.2.68 1.83.93 1.01-.33 2.01-.68 3.01-1.04l.8-.29-1.89-.96-.84-.43-1.2.38zm13.47 1.9c-.53-.3-1.05-.59-1.59-.86l-3.6 1.48c.39.2.76.43 1.13.66.53.32 1.07.65 1.63.92.8-.34 1.57-.71 2.35-1.08l1.15-.54-1.07-.58zm-16.68-.84L13 19.48c.35.23.64.47.92.7.42.33.83.66 1.38.95l4.07-1.34-2.73-1.5zm9.6 1.2c-.66-.36-1.33-.7-2.02-1l-3.74 1.42a68 68 0 011.26.68c.6.32 1.2.64 1.8.94.8-.23 1.56-.57 2.33-.92l1.41-.6-1.03-.53zm12.57-.86l-3.17 1.49 1.56.72c.78.35 1.56.7 2.32 1.1l.62-.29c.96-.43 1.97-.9 2.86-1.36l-4.19-1.66zm-20.33 1.88l1.32-.48 1.05.58 2.14 1.21-1.58.7c-.8.34-1.63.69-2.33 1.03a21.24 21.24 0 01-3.26-2.07c.81-.31 1.75-.65 2.66-.97zm5.61 1.32zm0 0c1.21-.53 2.43-1.05 3.65-1.55.7.28 1.35.63 2.02.98l1.05.54-2.07.98-1.56.73-.9-.48-2.19-1.2zM13 20.43a50.24 50.24 0 012.93 1.87l3.33 2.2a1772 1772 0 007.27 4.8c-.03 2.64-.15 5.28-.26 7.92-.13 2.93-.25 5.85-.27 8.78a413.2 413.2 0 01-6.48-5.08c-2.14-1.7-4.28-3.4-6.52-5.1V20.43zm20.7.6l-1.8.84c.67.37 1.35.71 2.03 1.05.57.29 1.13.57 1.68.87l.89-.41 2.4-1.14-2.47-1.13-1.46-.68-1.26.6zm-6.02 7.84c1.96-.96 3.92-1.94 5.89-2.92 3.13-1.57 6.27-3.14 9.43-4.65V37l-15.28 8.09-.02-.41c-.03-.69-.06-1.27-.05-2v-6.09c0-2.57 0-5.14.03-7.72zm-5.93-6.04c-.8.35-1.62.71-2.35.99.97.75 2.07 1.37 3.18 1.9.77-.43 1.66-.84 2.53-1.24l1.42-.66-1.5-.85-1.55-.89c-.54.22-1.13.48-1.73.75zm6 1l2.87-1.35.79-.37 1.16.6c.86.43 1.72.87 2.6 1.29l-2.9 1.36-.89.41-1.29-.7-2.33-1.24zm-.92.42l-.11.05-1.3.63c-.78.37-1.57.75-2.3 1.07.7.58 1.55 1.02 2.38 1.45l1.12.6c.82-.43 1.66-.82 2.5-1.21l1.5-.71c-1.11-.64-2.23-1.28-3.36-1.9-.14-.12-.29-.04-.43.02z" fill="#fff"/><path d="M13 19.48c4.45 2.98 8.85 5.83 13.5 8.5l.25.15s-.78 1.35-.75 1.37c-3.54-2.32-6.53-4.86-10.07-7.2-.96-.63-1.93-1.29-2.93-1.87v-.95z" fill="#1D6DAB"/><path d="M42.87 20.37l.13-.07v1c-5.13 2.47-10.22 5.1-15.32 7.62-1.06-.68-1.18-.54-1.18-.92 1.31-.7 2.8-1.22 4.13-1.87l.75-.36c1.26-.59 2.53-1.17 3.79-1.77.1-.06.33-.16.44-.21 1.1-.52 2.2-1.02 3.29-1.56l.62-.3c1.12-.5 2.25-1 3.35-1.56" fill="#BF2824"/><path d="M28 43.03s-.1-9.76-.05-14.25c0 .03-1.19-.67-1.45-.78l-.5 1.5V46l2-1.06v-1.9z" fill="#F5D300"/><defs><linearGradient id="aae4e5xr4" x1="10.42" y1="9.71" x2="68.15" y2="76.02" gradientUnits="userSpaceOnUse"><stop stop-color="#1A1E21"/><stop offset="1" stop-color="#06060A"/></linearGradient></defs></svg>