<svg width="112" height="112" viewBox="0 0 56 56" xmlns="http://www.w3.org/2000/svg"><path d="M24.78 43.06c-.35.65-.06 1.42.89 2.3.8.75 1.9.84 3.33.26h.01c.58-.23.88-.52.89-.86a7.42 7.42 0 0 0-.25-2.42.05.05 0 0 1 .04-.03h.02l1.58.42a.07.07 0 0 1 .05.03.07.07 0 0 1 0 .06c-.36.92-.24 1.61.37 2.08.36.28.78.4 1.24.36 1.71-.16 3.05-1.2 4.02-3.13a13.34 13.34 0 0 0 1.3-5.14c0-.1.02-.18.07-.26.36-.67.69-1.47.98-2.4.3-.91.48-1.61.57-2.1.12-.64.14-1.37.07-2.17a1.44 1.44 0 0 0-.19-.62c-.24-.42-.55-.54-.9-.36-.27.14-.52.4-.78.79A15.7 15.7 0 0 0 36.63 33a.05.05 0 0 1-.05 0 12.6 12.6 0 0 0-3.12-2.17.06.06 0 0 1 0-.05 8.36 8.36 0 0 0 2.33-6.05c-.02-1.21-.29-2.46-.8-3.75a13.97 13.97 0 0 0-1.93-3.46.05.05 0 0 1 .02-.03c.3-.17.65-.27 1.03-.3.05 0 .1.02.13.04 1.1.64 1.98.84 2.62.6a2.63 2.63 0 0 0 1.4-1.1c.32-.53.37-1.11.16-1.76a2.24 2.24 0 0 0-.72-.98c-1.11-.93-2.47-1.17-4.07-.71a9.97 9.97 0 0 0-3.8 2.17 12.41 12.41 0 0 0-3-.64 7.57 7.57 0 0 0-3.27-4.39A2.9 2.9 0 0 0 21.9 10c-.66.04-1.13.32-1.4.85-.73 1.41-.64 2.5.28 3.25.41.33.86.5 1.36.53.04 0 .08.02.11.05.1.1.18.21.23.34v.06a.1.1 0 0 1-.05.05 5.95 5.95 0 0 0-3.08 3.14 8.37 8.37 0 0 0-.73 3.67A3.84 3.84 0 0 0 15 25.83c-.05 1.87.99 3.47 3.1 4.81a18.16 18.16 0 0 0 5.74 2.24.05.05 0 0 1 0 .04c-.44.8-.66 1.67-.66 2.6a9.57 9.57 0 0 0 .78 3.77.05.05 0 0 1-.04.03.5.5 0 0 1-.16-.04.8.8 0 0 0-.14-.04c-1.01-.1-1.52.34-1.52 1.35 0 .6.2 1.13.6 1.61a3 3 0 0 0 1.45.97h.07l.52-.16a.04.04 0 0 1 .03.02.04.04 0 0 1 0 .03Z" fill="#020101"/><path d="M24.54 39.85v.02a.03.03 0 0 1-.05.01 2.28 2.28 0 0 0-1.27-.36c-.5.03-.78.32-.81.87-.04.55.1 1.04.4 1.49.3.42.7.74 1.21.94.13.05.27.04.44-.01a181.85 181.85 0 0 1 2.23-.74v-.04l-.12-2.52a.09.09 0 0 1 .02-.07.1.1 0 0 1 .07-.03h.09a.1.1 0 0 1 .07.02.1.1 0 0 1 .04.07l.32 3.05a.15.15 0 0 1-.06.13.15.15 0 0 1-.15.02l-.1-.04a1.14 1.14 0 0 0-.43-.1c-.32 0-.65.1-.97.26-.51.26-.66.66-.44 1.2.16.4.45.79.89 1.18.44.4 1.03.56 1.76.48.6-.06 1.2-.27 1.79-.61.29-.17.23-1.17-.17-3a26.3 26.3 0 0 0-.02-.17.04.04 0 0 1 .03 0l1.72.47c.3.08.67.03 1.1-.15a2.37 2.37 0 0 0 1.31-1.2.15.15 0 0 1 .19-.07h.01a.12.12 0 0 1 .07.07.12.12 0 0 1 0 .1 2.74 2.74 0 0 1-1.98 1.55 1.97 1.97 0 0 0-.25 1.37c.12.46.45.76 1 .9.2.05.46.05.75 0 1.54-.29 2.74-1.34 3.6-3.17.65-1.4 1.03-3.02 1.14-4.86 0-.1.03-.2.09-.28.13-.23.26-.47.36-.72.44-1.02.82-2.16 1.12-3.42.25-1.07.28-1.96.07-2.68-.16-.55-.42-.67-.8-.37-.23.2-.46.5-.68.9a16.91 16.91 0 0 0-1.34 3.17.09.09 0 0 1-.12 0 11.73 11.73 0 0 0-3.7-2.59.06.06 0 0 1 .01-.04 8.3 8.3 0 0 0 2.28-3.94 8.88 8.88 0 0 0-.12-4.56 13.33 13.33 0 0 0-2.39-4.7l-.04.01c-.5.34-.88.76-1.14 1.26a.2.2 0 0 1-.21.1h-.03a.1.1 0 0 1-.09-.1.1.1 0 0 1 .01-.04c.41-1 1.26-1.64 2.55-1.96a.91.91 0 0 1 .74.12c.3.19.63.34 1 .45.46.15.83.18 1.1.1.65-.2 1.1-.55 1.37-1.03.28-.5.3-1.08.04-1.71a.57.57 0 0 0-.08-.15c-.99-1.26-2.36-1.66-4.11-1.2a9.25 9.25 0 0 0-3.99 2.29l-.05-.01a8.16 8.16 0 0 0-3.2-.7 8.68 8.68 0 0 0-1.83-3.28c-1.05-1.22-2.1-1.72-3.15-1.5-.45.09-.77.36-.97.8-.2.46-.31.84-.36 1.14-.07.57.1 1.06.49 1.46.38.4.86.6 1.44.62.13 0 .26.12.4.34.1.17.16.34.2.5a.08.08 0 0 1-.04.1 5.7 5.7 0 0 0-3.21 3.16 8.24 8.24 0 0 0-.67 3.73c0 .01 0 .03-.02.04a3.39 3.39 0 0 0-3.55 3.09c-.2 1.35.2 2.55 1.15 3.61.67.74 1.5 1.37 2.48 1.9a17.8 17.8 0 0 0 5.37 1.86.05.05 0 0 1-.01.05 4.7 4.7 0 0 0-.86 3.28 9.34 9.34 0 0 0 1.06 3.84Z" fill="#F7C645"/><path d="M20.47 20.75c.2-.33.43-.46.67-.4.27.07.36.45.25 1.14a3.01 3.01 0 0 0 0 .07.03.03 0 0 0 .03 0h.02c.23-.33.37-.69.4-1.08.05-.49-.11-.8-.48-.96-.09-.04-.2-.03-.3.03-.37.16-.58.56-.64 1.18v.02h.02a.03.03 0 0 0 .03 0ZM23.75 22.44a.02.02 0 0 0 .01.02.02.02 0 0 0 .02 0v-.01l.22-.5c.09-.17.21-.31.37-.42.18-.12.36-.15.53-.07.54.24.66 1 .37 2.25a.04.04 0 0 0 .02.04.04.04 0 0 0 .04 0c.5-.8.73-1.63.7-2.53a1.66 1.66 0 0 0-.16-.66c-.18-.36-.42-.57-.7-.6-.31-.05-.58.11-.81.46a5.3 5.3 0 0 0-.61 2.02ZM18.1 26.48c.26.17.58.24.95.2.33-.03.64-.13.93-.31.42-.26.52-.6.3-1-.17-.29-.45-.57-.86-.84a2.57 2.57 0 0 0-1.12-.46c-.46-.04-.74.18-.82.66-.06.33-.04.65.06.97.11.35.3.6.56.78ZM22.6 28.68a3.47 3.47 0 0 1-2.42-.52.13.13 0 0 0-.13.08c-.03.08-.02.13.04.17.84.51 1.7.7 2.56.56a3.63 3.63 0 0 0 2.24-1.33c.05-.06.04-.12-.01-.18a.13.13 0 0 0-.15-.03 3.44 3.44 0 0 1-2.13 1.25Z" fill="#020101"/></svg>