<svg width="56" height="56" viewBox="0 0 56 56" xmlns="http://www.w3.org/2000/svg"><path d="M29.93 15.46a5.82 5.82 0 0 0-4.35 2.29c-.86.42-1.25.85-1.19 1.27l-.24.52a.4.4 0 0 0 0 .34c.02.05.06.1.1.13.05.04.1.06.16.07.42.07.84.4 1.26.96.02.02.03.05.03.08l-.01.08a.14.14 0 0 1-.06.06.13.13 0 0 1-.08.02 8.4 8.4 0 0 1-1.35-.98.27.27 0 0 0-.24-.05.27.27 0 0 0-.1.06.29.29 0 0 0-.08.1l-.74 1.9c-.06.17-.08.34-.06.52.47 3.38 3.43 5.2 6.63 5.4a4.73 4.73 0 0 0 2.8-.56c.16-.1.3-.22.4-.37.43-.66.97-1.17 1.61-1.55.02.35-.1.64-.35.88l-2.48 2.15a.3.3 0 0 0-.08.12.31.31 0 0 0 .15.39c.21.1.32.2.31.32 0 .1-.03.16-.08.18-.06.01-.13-.02-.2-.1a1.53 1.53 0 0 1-.34-.75c-.04-.27-.27-.37-.7-.3-.24.05-.53.03-.88-.04-1.23-.24-2.43-.5-3.6-.77a9.93 9.93 0 0 1-2.3-1.3c-.14-.1-.3-.16-.46-.19-1.5-.24-1.26-2.88-1.3-4.67-.01-.1-.05-.19-.1-.26a.4.4 0 0 0-.24-.14c-.4-.1-.7-.03-.88.17a.3.3 0 0 1-.36.05l-1.7-1.04a.15.15 0 0 1-.05-.2l.07-.15a.18.18 0 0 1 .24-.08c.31.16.62.25.93.26.23 0 .42-.22.56-.67.26-.9.55-1.64.85-2.25.13-.31.43-.66.91-1.04a7.68 7.68 0 0 1 3.7-1.47c.07-.01.14-.04.2-.1.05-.04.08-.1.1-.18a.4.4 0 0 0 0-.21.38.38 0 0 0-.12-.18c-1.06-.9-4.41-.45-5.53-.13a.23.23 0 0 0-.11.07.25.25 0 0 0-.05.25c.02.04.04.07.08.1.27.22.6.28 1 .17a.2.2 0 0 1 .15.03c.05.02.09.07.1.12l.04.1a.2.2 0 0 1-.02.17.18.18 0 0 1-.06.05.17.17 0 0 1-.08.03c-.38.01-.78.21-1.2.6a.26.26 0 0 0-.04.34c.1.13.14.27.14.4 0 .09-.04.18-.1.25a.35.35 0 0 1-.24.11 2.4 2.4 0 0 1-2.03-1.04 1.9 1.9 0 0 0-.15-.84.3.3 0 0 0-.07-.1.28.28 0 0 0-.1-.06.26.26 0 0 0-.22.01c-.23.13-.44.33-.64.6-.4.05-.5-.32-.28-1.1a.23.23 0 0 0-.04-.2.21.21 0 0 0-.08-.06.2.2 0 0 0-.1-.02l-1.4.09-.47-.4a.6.6 0 0 1-.13-.74c.04-.08.1-.14.17-.19 2.16-1.43 3.65-1.35 6.35-1.16 1.67.1 3.3.5 4.89 1.17a.6.6 0 0 0 .71-.23.65.65 0 0 0-.06-.8.56.56 0 0 0-.2-.1.33.33 0 0 1-.13-.08.36.36 0 0 1-.09-.3l.06-.15c.98-1.45 2.35-1.56 3.35-.09a.3.3 0 0 1 .04.23.29.29 0 0 1-.13.19c-.37.22-.54.62-.52 1.22.04 1.32-.07 2.07.9 2.77Z" fill="#191C23"/><path d="M22.34 16.32c-1.44-.08-1.75.27-.9 1.04-.3.6-.6 1.36-.86 2.25-.14.45-.33.67-.56.67-.3-.01-.62-.1-.93-.26a.18.18 0 0 0-.24.08l-.08.15a.14.14 0 0 0-.01.1.15.15 0 0 0 .07.1l1.7 1.04a.3.3 0 0 0 .2.04.3.3 0 0 0 .16-.1c.19-.2.48-.25.88-.16a.4.4 0 0 1 .24.14c.05.07.09.17.1.26.04 1.79-.2 4.43 1.3 4.67.16.03.32.1.46.18a9.92 9.92 0 0 0 2.3 1.31c1.17.27 2.37.53 3.6.77.35.07.64.09.89.04.42-.07.65.03.69.3a1.53 1.53 0 0 0 .34.74c.07.09.15.12.2.1.05 0 .08-.07.08-.17 0-.12-.1-.23-.3-.32a.3.3 0 0 1-.12-.1.32.32 0 0 1-.04-.29.3.3 0 0 1 .08-.12l2.48-2.15c.36.05.63.17.81.35.08.18.26.28.53.29.52.33.98.75 1.4 1.26-.26.63-.76.89-1.5.79h-.02l-.02.01-.02.02v.18a.15.15 0 0 0 .04.11.14.14 0 0 0 .11.04c.71-.07 1.35-.32 1.9-.76.28.16.5.36.67.62 0 .17.08.3.22.41.1.24.26.46.44.66.06.35.17.66.31.94l-.73 1.78a.38.38 0 0 0 .08.4c.05.05.1.08.18.1.06 0 .13 0 .2-.04l.6-.3c.3.53.28 1.07-.02 1.61-1.04.77.49 2.36-1.54 3.13a13.3 13.3 0 0 1-4.5.71 1.05 1.05 0 0 0-.83.1c-.12-.3-.27-.5-.47-.6-.16-.09-.4-.06-.72.07-.84.34-1.72.47-2.65.37l-5.44-.08a1.46 1.46 0 0 1-1.44-.45.94.94 0 0 1-.26-.6 1.27 1.27 0 0 0-.3-.78.1.1 0 0 0-.07-.04.1.1 0 0 0-.12.07 10.83 10.83 0 0 0 1.05 2.1c.12.19.35.3.7.35.1.01.18.06.24.13.07.07.1.16.12.26.05.57-.18 1.19-.7 1.84-.26-.63-.5-.96-.73-1-1.2-.16-2.35-.5-3.44-1.02a.58.58 0 0 0-.47-.02l-.63.23-.95-.15a.7.7 0 0 1-.44-.28l-1.21-1.6-.08-.4c.07-.46-.04-.76-.3-.9l-.05-4.9c.24-.28.3-.57.18-.87l.7-1.37 1.83-1.9c.05 0 .11-.04.17-.12.29.06.53.05.74-.01a.23.23 0 0 0 .1-.06.25.25 0 0 0 .04-.3 7.67 7.67 0 0 0-2.66-2.8c-.27-.53-.26-1.01.04-1.46.37-2.12.4-4.23.1-6.35l-.07-2.28 1.4-.09a.2.2 0 0 1 .1.02l.08.06a.23.23 0 0 1 .04.2c-.21.78-.12 1.15.28 1.1.11.45 0 .87-.36 1.28a.54.54 0 0 0-.13.37l.02 1.28a1.5 1.5 0 0 0 1.25.82l.03-.02a.1.1 0 0 0 .03-.08c0-.04-.02-.1-.05-.16.29.08.42-.02.4-.28-.04-.94-.05-1.88-.01-2.82a2.4 2.4 0 0 0 2.03 1.04c.09 0 .18-.04.24-.1.07-.08.1-.17.1-.27a.7.7 0 0 0-.14-.4.27.27 0 0 1 .04-.34c.43-.38.82-.58 1.2-.6.02 0 .05 0 .08-.02a.18.18 0 0 0 .06-.05.2.2 0 0 0 .02-.17l-.03-.1a.23.23 0 0 0-.1-.12.2.2 0 0 0-.16-.03c-.4.1-.73.05-1-.17a.23.23 0 0 1-.08-.1.25.25 0 0 1 .16-.32c1.12-.32 4.47-.77 5.53.13.06.04.1.1.12.18a.4.4 0 0 1-.1.4.35.35 0 0 1-.2.09c-1.45.2-2.68.69-3.7 1.47Z" fill="#01B7F2"/><path d="M18.27 15.8c-.04.94-.04 1.88.02 2.82.01.26-.13.36-.42.28a3.1 3.1 0 0 0-1.25-.56l-.02-1.28a.54.54 0 0 1 .13-.37c.35-.4.47-.83.36-1.28.2-.27.41-.47.64-.6a.27.27 0 0 1 .32.05.3.3 0 0 1 .07.1c.1.24.16.52.15.84ZM20.15 15.7l-.44-.11a.47.47 0 0 1-.18-.3.5.5 0 0 1 .35-.55.48.48 0 0 1 .34.03c.07.03.14.25.2.66a.24.24 0 0 1-.07.2.22.22 0 0 1-.2.06Z" fill="#C5EAF6"/><path d="m29.93 15.46.95.23c.39.39.83.51 1.33.37l.52.28 1.58 1.82a.23.23 0 0 1 .04.24.21.21 0 0 1-.07.09.2.2 0 0 1-.12.03H31.4c-.11 0-.22.04-.3.1a.56.56 0 0 0-.2.27.59.59 0 0 0 .15.62c.64.59.7 1.07.19 1.46a.11.11 0 0 0-.04.06v.07c0 .02.02.04.03.05a.1.1 0 0 0 .06.03h.54a.45.45 0 0 0 .33-.15.5.5 0 0 0 .14-.36c0-.07 0-.16-.02-.26a.4.4 0 0 1 .08-.29.36.36 0 0 1 .26-.13c1.28-.1 2.2.3 2.75 1.19.05.21.07.44.04.68a.73.73 0 0 1-.36-.03.47.47 0 0 1-.24-.26c-.38-.79-1.02-1.03-1.92-.72a.43.43 0 0 0-.19.13.47.47 0 0 0-.1.21c-.07.37-.54.7-1.41.96-.78.25-1.34.05-1.68-.58a.42.42 0 0 1 .06-.5.38.38 0 0 1 .48-.05c.22.14.43.23.66.25h.04l.03-.04v-.04l-.01-.04-.75-.8a.35.35 0 0 0-.3-.1c-.05 0-.1.03-.15.06a.38.38 0 0 0-.11.12c-.06.1-.1.16-.14.17a.3.3 0 0 1-.19 0 .3.3 0 0 1-.16-.1.32.32 0 0 1 .01-.39l.71-.94a.38.38 0 0 0-.04-.5c-1.08-.96-2.43-1.27-4.06-.92a5.82 5.82 0 0 1 4.35-2.3Z" fill="#C8C8C9"/><path d="M32.21 16.06c-.5.14-.94.02-1.33-.37.57-.09 1.01.03 1.33.37ZM22.34 16.32c-.48.38-.78.73-.9 1.04-.85-.77-.54-1.12.9-1.04ZM35.36 21.18c-.55-.89-1.47-1.29-2.75-1.2a.34.34 0 0 0-.26.14.38.38 0 0 0-.08.3l.02.25a.52.52 0 0 1-.14.36.47.47 0 0 1-.33.15h-.53a.1.1 0 0 1-.07-.03.12.12 0 0 1-.04-.12l.05-.06c.52-.39.45-.87-.2-1.46a.59.59 0 0 1-.15-.62c.05-.11.11-.2.2-.27.1-.06.2-.1.3-.1h2.78a.2.2 0 0 0 .12-.03.21.21 0 0 0 .07-.1.23.23 0 0 0-.04-.23l-1.57-1.82c.88.45 1.61 1.1 2.19 1.92.62.91.55 1.85.43 2.92Z" fill="#040504"/><path d="M15.27 16.4c.3 2.12.26 4.23-.11 6.35a26.5 26.5 0 0 1 .1-6.35Z" fill="#36353C"/><path d="M35.4 21.86c.05.2.05.39.01.55-.5.06-1.02.16-1.54.28-.9.22-1.55-.31-2.27.06-.1.05-.2.06-.3.04a.43.43 0 0 1-.25-.2.13.13 0 0 0-.02-.03.74.74 0 0 0-.47-.23c-.84-.08-1.4.04-1.68.35a.55.55 0 0 1-.62.16c-.65-.25-1.2-.25-1.65 0-.05.03-.1 0-.15-.06a.58.58 0 0 1-.09-.16c-.03-.1.01-.16.11-.19.66-.2 1.29-.65 1.9-1.37.03-.04.05-.08.05-.11a.21.21 0 0 0-.13-.18.16.16 0 0 0-.2.06c-.23.35-.48.46-.74.34a.27.27 0 0 0-.2 0 .28.28 0 0 0-.16.14.84.84 0 0 1-.76.53l-.08-.01a.16.16 0 0 1-.07-.06.18.18 0 0 1 0-.18c.47-.96 1.11-1.5 1.93-1.63.06 0 .12-.04.16-.08.05-.04.08-.1.1-.17a.33.33 0 0 0-.03-.19.3.3 0 0 0-.12-.14c-.32-.2-.75-.27-1.28-.19a.38.38 0 0 0-.26.17.42.42 0 0 0-.07.32.3.3 0 0 1-.03.2.29.29 0 0 1-.1.11.27.27 0 0 1-.29 0c-.31-.2-.6-.5-.86-.9-.12-.19-.24-.27-.37-.27-.15 0-.3.07-.48.2-.06-.42.33-.85 1.18-1.27 1.64-.35 3-.04 4.07.92a.38.38 0 0 1 .04.5l-.71.94a.32.32 0 0 0 0 .38c.03.06.09.1.15.12a.3.3 0 0 0 .2-.01c.02-.01.07-.07.13-.17.03-.05.06-.1.11-.12a.35.35 0 0 1 .31-.04c.05.01.1.05.14.09l.75.79.02.04-.01.04c0 .02-.02.03-.03.03a.07.07 0 0 1-.04.01 1.5 1.5 0 0 1-.66-.25.38.38 0 0 0-.48.05.42.42 0 0 0-.07.5c.35.63.9.83 1.69.58.87-.27 1.34-.59 1.41-.96a.47.47 0 0 1 .1-.21c.05-.06.12-.1.19-.13.9-.3 1.54-.07 1.92.72.06.13.14.21.24.26.12.04.24.05.36.03Z" fill="#040504"/><path d="M17.87 18.9c.04.06.05.12.06.16a.1.1 0 0 1 0 .04.1.1 0 0 1-.06.06h-.04a1.5 1.5 0 0 1-1.2-.82c.48.1.9.29 1.24.56Z" fill="#367982"/><path d="m35.42 22.41-.01.9c-.35.52-.52 1.09-.5 1.69l-.49.75c-.64.38-1.18.9-1.61 1.55-.1.15-.24.28-.4.37-.71.44-1.65.63-2.8.56-3.2-.2-6.16-2.02-6.63-5.4-.02-.18 0-.36.06-.52l.74-1.9a.29.29 0 0 1 .07-.1.27.27 0 0 1 .23-.06c.05 0 .08.02.12.05.8.64 1.26.97 1.35.98.03 0 .05 0 .08-.02a.14.14 0 0 0 .06-.06.15.15 0 0 0-.02-.16c-.42-.57-.84-.89-1.26-.96a.35.35 0 0 1-.15-.07.4.4 0 0 1-.11-.47l.25-.52c.17-.13.32-.2.47-.2.13 0 .26.08.37.26.27.41.55.72.86.91a.27.27 0 0 0 .3 0 .29.29 0 0 0 .1-.11.3.3 0 0 0 .02-.2.43.43 0 0 1 .07-.32.4.4 0 0 1 .26-.17c.53-.08.96-.01 1.28.2.06.03.1.08.12.13a.33.33 0 0 1-.07.36.29.29 0 0 1-.16.08c-.82.12-1.46.67-1.93 1.63a.18.18 0 0 0 0 .18l.07.06c.02.01.05.02.08.01.35-.02.6-.2.76-.53a.28.28 0 0 1 .16-.15.27.27 0 0 1 .2.01c.26.12.5 0 .74-.35a.16.16 0 0 1 .2-.05c.07.03.12.1.13.18 0 .03-.01.07-.05.11a4.06 4.06 0 0 1-1.9 1.37c-.1.03-.13.1-.1.19 0 .04.03.1.08.16.05.07.1.09.15.06.45-.25 1-.25 1.66 0a.55.55 0 0 0 .61-.16c.28-.31.84-.43 1.68-.35.17.02.34.1.47.23l.02.03a.41.41 0 0 0 .55.16c.72-.37 1.37.16 2.27-.06a13.1 13.1 0 0 1 1.55-.28Z" fill="#C8C8C9"/><path d="M33 21.86c.29-.36.55-.53.77-.5.06 0 .1.02.15.06a.3.3 0 0 1 .1.13c.02.05.02.1.01.16a.26.26 0 0 1-.07.13 13.31 13.31 0 0 1-.92.2.12.12 0 0 1-.05-.04.13.13 0 0 1 0-.14Z" fill="#C8C8C9"/><path d="m20.75 23.9.24 2.09a.6.6 0 0 0 .09.25c.04.07.1.13.18.18l.33.2a.2.2 0 0 1 .08.08.21.21 0 0 1-.09.28c-.21.12-.38.12-.5.02-.86-.7-.61-1.96-.54-3.1 0-.03.01-.06.03-.08a.1.1 0 0 1 .14 0c.03.02.04.05.04.08Z" fill="#36353C"/><path d="M28.54 23.95c.19-.57.64-.82 1.37-.75.03 0 .06.02.08.04l.05.07c.07.24.09.4.03.48a.2.2 0 0 1-.07.08.2.2 0 0 1-.27-.08c-.19-.33-.53-.24-1.02.28a.1.1 0 0 1-.13.02.11.11 0 0 1-.05-.07v-.07ZM35.41 23.3c.04.66-.13 1.22-.5 1.7-.02-.6.15-1.16.5-1.7ZM31.5 24.09c-.13.04-.23-.04-.3-.23-.05-.15 0-.22.17-.22.05 0 .1.02.15.06.04.03.07.08.09.14.02.05.01.1 0 .15a.2.2 0 0 1-.12.1ZM16.9 27.38c.33-.38.28-.75-.13-1.11a7.5 7.5 0 0 1-1.65-2.07 7.67 7.67 0 0 1 2.69 2.92c0 .03 0 .07-.02.1a.25.25 0 0 1-.05.1.23.23 0 0 1-.1.05c-.2.06-.45.07-.74.01ZM31.68 25.05c1.27-.07 2.3-.22 2.29-.34-.01-.11-1.04-.15-2.31-.07-1.27.07-2.29.22-2.28.34 0 .11 1.03.15 2.3.07ZM35.4 27.26c-.26 0-.44-.1-.52-.28.24 0 .41.1.53.28ZM16.72 27.5l-1.82 1.9c.35-.9.96-1.54 1.82-1.9ZM20.11 30.33c1.2 1.29 2.22 2.26 2.3 2.19.07-.08-.83-1.19-2.02-2.47-1.2-1.29-2.22-2.27-2.3-2.19-.07.08.83 1.19 2.02 2.47ZM37.3 28.92a3.64 3.64 0 0 1-1.96.75.14.14 0 0 1-.08-.08.15.15 0 0 1-.01-.06v-.16a.05.05 0 0 1 .02-.04.06.06 0 0 1 .05-.01c.73.1 1.23-.16 1.49-.8.19.08.35.21.5.4Z" fill="#040504"/><path d="m31.96 33.96-.77-.02a7 7 0 0 0-2.47.14c-1.32-.09-1.7-.72-1.3-2l4.43-.02c.1 0 .19-.04.26-.1a.44.44 0 0 0 .14-.26c.01-.1-.02-.22-.1-.37a.81.81 0 0 1-.09-.5c.1-.81.25-1.32.44-1.52a.15.15 0 0 1 .19-.03c.03.01.05.04.07.07v.1c-.26 1.28-.28 2.07-.06 2.38a.58.58 0 0 0 .49.27c.66 0 1.31.19 1.96.55a.5.5 0 0 1 .2.22c.05.1.06.2.04.3a.5.5 0 0 1-.14.28.45.45 0 0 1-.26.13l-3.03.38Z" fill="#E80427"/><path d="M28.81 30.16c-.01 0-.02 0-.03-.02a.07.07 0 0 1-.02-.04v-.19a.1.1 0 0 1 .03-.07.1.1 0 0 1 .08-.03c.98.14 1.77.07 2.37-.23a.26.26 0 0 1 .27.01l.1.11c.02.04.03.1.03.14v.22a.28.28 0 0 1-.08.2.24.24 0 0 1-.09.05.23.23 0 0 1-.1.01l-2.56-.16ZM38.63 30.61c-.18-.2-.33-.42-.44-.66l.05-.16c.27.14.4.41.4.82Z" fill="#040504"/><path d="M27.42 32.07c-.4 1.29-.02 1.92 1.3 2l-4.85.2a.38.38 0 0 1-.19-.05.4.4 0 0 1-.14-.13.43.43 0 0 1-.05-.39c.33-.85.12-1.59-.63-2.2a.4.4 0 0 1-.14-.3.42.42 0 0 1 .11-.3l.4-.43a.13.13 0 0 1 .16-.02c.02.01.05.03.06.06l.01.09a.73.73 0 0 1-.16.33.4.4 0 0 0 .04.53c.5.45 1 .66 1.55.62.1 0 .2-.06.28-.14.08-.08.12-.2.12-.3v-1.2c0-.02 0-.04.02-.06a.08.08 0 0 1 .1-.02 3.62 3.62 0 0 1 .3 1.36c0 .08.03.15.08.2.05.06.12.1.2.1l1.43.05Z" fill="#330A09"/><path d="M14.2 30.77c.12.3.06.6-.18.88-.05-.34 0-.63.18-.88Z" fill="#36353C"/><path d="M16.35 31.3a4.27 4.27 0 0 0-.73 3.64c.04.17.1.33.21.47.49.63.79 1.44.9 2.44 0 .04 0 .09-.03.12a.15.15 0 0 1-.1.06h-.02a.15.15 0 0 1-.17-.11c-.16-.52-.46-1.6-.9-3.2a4.21 4.21 0 0 1 .76-3.63l.05.01a.13.13 0 0 1 .06.1.14.14 0 0 1-.03.1ZM38.94 31.55c.23.53.34 1.18.33 1.94l-.6.3a.31.31 0 0 1-.38-.06.38.38 0 0 1-.07-.4l.72-1.78ZM20.3 36.39l-.06-.02a.16.16 0 0 1-.11-.09.18.18 0 0 1-.01-.14 4.74 4.74 0 0 0-.2-4.01.15.15 0 0 1 .04-.12.15.15 0 0 1 .05-.03v-.01a.13.13 0 0 1 .1 0c.04 0 .07.03.08.06a5.19 5.19 0 0 1 .15 4.35.06.06 0 0 1-.04 0Z" fill="#040504"/><path d="m25.12 32.59-.72-.06a.36.36 0 0 0-.38.34l-.04.51c-.01.2.14.39.33.4l.72.06c.2.02.36-.14.38-.34l.04-.5a.37.37 0 0 0-.33-.41ZM26.25 33.3c.09.27.3.44.46.39.16-.06.23-.33.14-.6-.08-.28-.28-.45-.45-.4-.17.06-.23.33-.15.6Z" fill="#E80427"/><path d="M31.96 33.96a7.91 7.91 0 0 0-.27 2.97.32.32 0 0 0 .12.22.29.29 0 0 0 .24.05c.2-.05.38-.17.57-.38a.25.25 0 0 1 .37 0l.1.1c.04.04.05.08.05.13s-.02.1-.05.13c-.4.4-.88.6-1.44.6-.1 0-.2-.03-.27-.1a.45.45 0 0 1-.15-.26c-.2-1.15-.22-2.3-.04-3.48l.77.02ZM39.25 35.1c.04.41 0 .79-.11 1.12a.83.83 0 0 0 .17.82l.34.36c.04.04.1.07.15.1a.34.34 0 0 0 .34-.1c.04-.04.07-.1.1-.15.2-.72.66-1.17 1.36-1.37l-.06.74a.27.27 0 0 0 .09.21.24.24 0 0 0 .21.05c.25-.06.42-.08.52-.06.17.04.2.21.08.54-.11.3-.2.54-.3.71a.5.5 0 0 0 .13.58.44.44 0 0 0 .58 0c.25-.23.36-.57.31-1.01-.06-.66-.55-1.12-.3-1.94 1.6 1.05 1.37 2.7.2 4.03a.43.43 0 0 0-.03.48l.36.6a.5.5 0 0 1 0 .5 3.8 3.8 0 0 1-1.1 1.27.46.46 0 0 1-.49.01l-1.82-1.14c.57-.48 1-1.12 1.3-1.93a.73.73 0 0 0-.16-.76.66.66 0 0 0-.22-.14c-.23-.1-.44-.26-.64-.5a.39.39 0 0 0-.17-.11.37.37 0 0 0-.38.09.41.41 0 0 0-.11.18l-.82 2.94-1.35-.02a.9.9 0 0 1 .48-.52c.48-.2.72-.3.72-.32a7.04 7.04 0 0 1-.35-1.3l.04-.08a.2.2 0 0 1 .07-.06.19.19 0 0 1 .1-.02c.39.02.6-.23.65-.73a.2.2 0 0 0-.02-.12.18.18 0 0 0-.08-.08.17.17 0 0 0-.12 0 .18.18 0 0 0-.09.06c-.32.37-.7.43-1.12.2 2.03-.77.5-2.36 1.54-3.13Z" fill="#040504"/><path d="M42.85 35.7c-.25.82.25 1.28.31 1.94.05.44-.06.78-.31 1a.45.45 0 0 1-.58.01.48.48 0 0 1-.16-.26.5.5 0 0 1 .04-.32c.08-.17.18-.4.3-.71.1-.33.08-.5-.1-.54-.1-.02-.26 0-.5.06a.23.23 0 0 1-.22-.05.27.27 0 0 1-.09-.21l.06-.74c.48-.42.9-.48 1.25-.18Z" fill="#367982"/><path d="M14.38 37.43c-.2-.22-.3-.52-.32-.9.28.15.38.45.32.9Z" fill="#36353C"/><path d="M23.1 38.8c.63 1.8.36 2.75-.79 2.88.53-.65.76-1.27.71-1.84a.46.46 0 0 0-.12-.26.41.41 0 0 0-.24-.13c-.35-.05-.58-.16-.7-.34a10.83 10.83 0 0 1-1.05-2.1.1.1 0 0 1 .12-.08c.03 0 .05.02.07.04.2.23.3.49.3.77.01.23.1.45.26.6.4.43.87.58 1.44.46Z" fill="#330A09"/><path d="M17.05 39.87c-.7.11-1.02.42-.94.91a6.44 6.44 0 0 1-1.66-2.95l1.21 1.61a.7.7 0 0 0 .44.28l.95.15Z" fill="#040504"/><path d="M37.43 41.2c-.62.22-1.16.3-1.6.22-.78-.5-1.24-.44-1.37.2l-1.31.04.06-2.72c1.64 0 3.13-.23 4.5-.7.43.22.8.15 1.12-.21a.18.18 0 0 1 .1-.07l.1.01c.04.02.07.05.09.08a.2.2 0 0 1 .02.12c-.04.5-.26.75-.66.73a.2.2 0 0 0-.09.02.2.2 0 0 0-.07.06.24.24 0 0 0-.04.19c.12.52.23.92.35 1.2l-.72.31a.9.9 0 0 0-.48.52Z" fill="#E80427"/><path d="M39.98 41.45a2.9 2.9 0 0 1-1.2-.23l.82-2.94a.41.41 0 0 1 .1-.18.37.37 0 0 1 .38-.09c.07.02.13.06.18.12.2.23.4.4.64.49a.66.66 0 0 1 .37.37.73.73 0 0 1 0 .53c-.29.8-.72 1.45-1.3 1.93Z" fill="#01B7F2"/><path d="M32.38 39.04c-.94-.2-1.7-.09-2.32.33-1.09.09-1.6-.07-1.52-.5.93.1 1.81-.02 2.65-.36.32-.13.56-.16.72-.08.2.1.35.3.47.6Z" fill="#330A09"/><path d="M28.54 38.88c-.07.42.43.58 1.52.49.08.4.05.75-.09 1.04l-2.73-.74a.4.4 0 0 0-.21 0 .42.42 0 0 0-.19.1l-1.68 1.64c-.1.1-.18.22-.24.35l-.98 2.34-.87-.09c-.87-.68-1.32-.75-1.34-.22l-1-.3-4.62-2.7c-.08-.5.24-.8.94-.92l.63-.23a.58.58 0 0 1 .47.02c1.1.52 2.24.86 3.44 1.03.23.03.47.36.72.99 1.15-.13 1.42-1.09.79-2.88l5.44.08Z" fill="#E80427"/><path d="m33.21 38.94-.06 2.72-.53.3a.49.49 0 0 0-.19.18.52.52 0 0 0-.07.26c0 .99.59 1.18-.12 2.18a.97.97 0 0 1-.6.4.94.94 0 0 1-.68-.12L29.62 44c.24-.47.57-.92.99-1.35.35-.36.4-.69.17-.98l-.81-1.27c.14-.29.17-.63.08-1.04.62-.42 1.4-.53 2.32-.33.28-.15.56-.19.84-.1Z" fill="#36353C"/><path d="m29.97 40.4.81 1.28c-.46-.2-.88-.49-1.24-.85-.1-.1-.23-.18-.36-.24-2.44-1.01-4.51.9-4.61 3.5a1.4 1.4 0 0 1-.63.01l.98-2.34c.06-.13.14-.25.24-.35l1.68-1.64a.42.42 0 0 1 .19-.1.4.4 0 0 1 .2 0l2.74.74Z" fill="#330A09"/><path d="M42.35 41.4c.47-.32.7-.84.5-1.17-.19-.34-.73-.35-1.21-.04s-.7.83-.5 1.17c.19.33.73.34 1.2.03Z" fill="#367982"/><path d="M30.78 41.68c.24.29.18.62-.17.98-.42.43-.74.88-.98 1.35l-5.06.08c.1-2.6 2.17-4.51 4.61-3.5.13.06.26.14.36.24.36.36.78.65 1.24.85Z" fill="#01B7F2"/><path d="M20.73 43.49a6.83 6.83 0 0 1-4.62-2.7l4.62 2.7ZM35.83 41.42c-.47.23-.93.29-1.37.2.13-.64.59-.7 1.37-.2ZM23.07 44.01a2.08 2.08 0 0 1-1.35-.22c.03-.53.48-.46 1.35.22Z" fill="#040504"/></svg>