<svg width="56" height="56" viewBox="0 0 56 56" xmlns="http://www.w3.org/2000/svg"><circle cx="28" cy="28" r="17" fill="url(#amr11ggio)"/><circle cx="28" cy="28" r="14" fill="#979486"/><path d="M16.47 18.58a14.86 14.86 0 0 1 13.16-5.38l.16-1.1a15.97 15.97 0 0 0-14.15 5.74l.83.74Zm-2.13 1.08.87.71a14.82 14.82 0 0 0-2.1 7.45l-1.1-.25c.07-2.9.92-5.6 2.33-7.9ZM29.86 43.9a16 16 0 0 1-17.7-13.6l1.08-.34A14.9 14.9 0 0 0 29.65 42.8l.21 1.1ZM41.8 36.1a16.04 16.04 0 0 1-9.42 7.3l-.32-1.07a14.92 14.92 0 0 0 8.76-6.75l.98.52Zm-3.3-20.18a15.96 15.96 0 0 1 4.4 17.94l-1.06-.35a14.85 14.85 0 0 0-3.98-16.66l.63-.93Zm-6.03-3.29c1.56.46 3.03 1.14 4.36 2.02l-.61.93a14.82 14.82 0 0 0-4.07-1.88l.32-1.07Z" fill-opacity=".2"/><path d="M15 24c.12-.14 3.53-3.48 5.22-5h15.56c1.69 1.52 5.1 4.86 5.22 5L28 41 15 24Z" fill="url(#bmr11ggio)"/><path fill-rule="evenodd" d="m22.07 19.47 1.91 1.71 1.64-.65.09.26-1.46.58 1.16.75-.13.24-1.25-.81-.71 2.55 2.74 9.31 2.11 7.5-.24.09-2.1-7.45-5.64-3.37-3.82-5.94H15.1v-.28h1.26l2.3-3.04 3.4-1.45Zm-5.4 4.77 3.69 5.72 5.36 3.2-2.63-8.92h-3.86l1.14 1.64-.2.17-1.25-1.81h-2.24Zm2.84-.28h3.58l.66-2.35-4.24 2.35Zm4.22-2.65-1.7-1.52-3.15 1.34.2 2.75 4.65-2.57Zm-4.89 2.65H16.7l1.95-2.57.2 2.57Z" fill="#290D00"/><path fill-rule="evenodd" d="m34.04 19.47-1.91 1.71-1.64-.65-.08.26 1.45.58-1.16.75.13.24 1.25-.81.72 2.55-2.74 9.31-2.12 7.5.24.09 2.1-7.45 5.64-3.37 3.83-5.94h.8v-.28h-.81l-2.3-3.04-3.4-1.45Zm5.4 4.77-3.69 5.72-5.36 3.2 2.63-8.92h3.86l-1.14 1.64.2.17 1.26-1.81h2.24Zm-2.84-.28h-3.58l-.66-2.35 4.24 2.35ZM32.4 21.3l1.7-1.52 3.14 1.34-.2 2.75-4.64-2.57Zm4.88 2.65h2.14l-1.95-2.57-.19 2.57Z" fill="#290D00"/><path fill-rule="evenodd" d="m21.8 19.47 1.9 1.71 1.64-.65.09.26-1.46.58 1.16.75-.13.24-1.25-.81-.71 2.55 2.74 9.31 2.11 7.5-.24.09-2.1-7.45-5.64-3.37-3.82-5.94H15v-.28h1.1l2.3-3.04 3.4-1.45Zm-5.4 4.77 3.68 5.72 5.36 3.2-2.63-8.92h-3.86l1.15 1.64-.2.17-1.26-1.81H16.4Zm2.83-.28h3.58l.66-2.35-4.24 2.35Zm4.22-2.65-1.7-1.52-3.15 1.34.2 2.75 4.65-2.57Zm-4.89 2.65h-2.14l1.95-2.57.2 2.57Z" fill="#F9F4DC"/><path fill-rule="evenodd" d="m33.76 19.47-1.9 1.71-1.65-.65-.08.26 1.45.58-1.16.75.13.24 1.25-.81.72 2.55-2.74 9.31-2.12 7.5.24.09 2.1-7.45 5.64-3.37 3.83-5.94h1.25v-.28h-1.26l-2.3-3.04-3.4-1.45Zm5.4 4.77-3.69 5.72-5.36 3.2 2.63-8.92h3.86l-1.14 1.64.2.17 1.26-1.81h2.24Zm-2.84-.28h-3.58l-.66-2.35 4.24 2.35Zm-4.21-2.65 1.7-1.52 3.14 1.34-.2 2.75-4.64-2.57Zm4.88 2.65h2.14l-1.95-2.57-.19 2.57Z" fill="#F9F4DC"/><path fill-rule="evenodd" d="M25.75 19.1c-.44-.3-.99.07-.99.65v3.75l-.67-.43a1.32 1.32 0 0 0-1.48.02l-2.88 1.95c-.45.3-.73.86-.73 1.46v3.86c0 .6.28 1.15.73 1.46l2.73 1.83c.45.3 1 .32 1.46.03l1.25-.78 1.5.99c.47.31 1.06-.08 1.06-.7 0 .62.6 1.01 1.07.7l1.49-.99 1.25.78c.46.29 1.01.28 1.46-.03l2.73-1.83c.45-.3.73-.86.73-1.46V26.5c0-.6-.28-1.16-.73-1.46l-2.88-1.95a1.32 1.32 0 0 0-1.48-.02l-.67.43v-3.75c0-.58-.55-.94-.99-.64l-1.98 1.36-1.98-1.36Zm-3.82 8.5 1.39-.9 1.44.91v1.63l-1.28.82-1.55-.94V27.6Zm11.6 0-1.39-.9-1.44.91v1.63l1.28.82 1.55-.94V27.6Z" fill="#F9F4DC"/><path fill-rule="evenodd" d="M26.29 19.1c-.44-.3-.99.07-.99.65v3.75l-.67-.43a1.32 1.32 0 0 0-1.48.02l-2.88 1.95c-.45.3-.73.86-.73 1.46v3.86c0 .6.28 1.15.73 1.46L23 33.65c.45.3 1 .32 1.46.03l1.25-.78 1.5.99c.47.31 1.06-.08 1.06-.7 0 .62.6 1.01 1.07.7l1.49-.99 1.25.78c.46.29 1.01.28 1.46-.03l2.73-1.83c.45-.3.73-.86.73-1.46V26.5c0-.6-.28-1.16-.73-1.46l-2.88-1.95a1.32 1.32 0 0 0-1.48-.02l-.67.43v-3.75c0-.58-.55-.94-.99-.64l-1.98 1.36-1.98-1.36Zm-3.82 8.5 1.39-.9 1.44.91v1.63l-1.28.82-1.55-.94V27.6Zm11.6 0-1.39-.9-1.44.91v1.63l1.28.82 1.55-.94V27.6Z" fill="#180D00"/><path fill-rule="evenodd" d="M26.02 19.1c-.43-.3-1.02.07-1.02.65v3.75l-.64-.43a1.32 1.32 0 0 0-1.47.02L20 25.04c-.45.3-.73.86-.73 1.46v3.86c0 .6.28 1.15.73 1.46l2.73 1.83c.45.3 1 .32 1.46.03l1.25-.78 1.5.99c.47.31 1.06-.08 1.06-.7 0 .62.6 1.01 1.07.7l1.5-.99 1.24.78c.46.29 1.02.28 1.47-.03L36 31.82c.46-.3.73-.86.73-1.46V26.5c0-.6-.27-1.16-.72-1.46l-2.89-1.95a1.32 1.32 0 0 0-1.47-.02l-.68.43v-3.75c0-.58-.55-.94-.98-.64L28 20.47l-1.98-1.36Zm-3.82 8.5 1.39-.9 1.41.91v1.63l-1.25.82-1.55-.94V27.6Zm11.6 0-1.38-.9-1.42.91v1.63l1.26.82 1.54-.94V27.6Z" fill="url(#cmr11ggio)"/><path fill-rule="evenodd" d="m25.4 20 1.61 1.1V33l-1.87-1.24L23.16 33l-3.66-2.12v-4.9l3.82-2.48 2.08 1.33V20Zm-2.13 5.8 2.13 1.35v2.54l-1.95 1.26-2.24-1.37v-2.43l2.06-1.35Z" fill="#180D00"/><path fill-rule="evenodd" d="m26 20 1.5 1.1V33l-1.73-1.24L23.78 33l-3.51-2.12v-4.9l3.67-2.48L26 24.83V20Zm-2.1 5.8 2.13 1.35v2.54l-1.95 1.26L22 29.58v-2.43l1.9-1.35Z" fill="#F9F4DC"/><path fill-rule="evenodd" d="m25.72 20 1.6 1.1V33l-1.86-1.24-2 1.24L20 30.88v-4.9l3.63-2.48 2.09 1.33V20Zm-2.14 5.8 2.13 1.35v2.54l-1.95 1.26-2.24-1.37v-2.43l2.06-1.35Z" fill="url(#dmr11ggio)"/><path fill-rule="evenodd" d="m30.55 20-1.6 1.1V33l1.87-1.24L32.8 33l3.66-2.12v-4.9l-3.82-2.48-2.09 1.33V20Zm2.14 5.8-2.13 1.35v2.54l1.95 1.26 2.24-1.37v-2.43l-2.06-1.35Z" fill="#180D00"/><path fill-rule="evenodd" d="m30 20-1.54 1.1V33l1.73-1.24L32.18 33l3.51-2.12v-4.9l-3.67-2.48L30 24.83V20Zm2.06 5.8-2.13 1.35v2.54l1.95 1.26L34 29.58v-2.43l-1.94-1.35Z" fill="#F9F4DC"/><path fill-rule="evenodd" d="m30.24 20-1.6 1.1V33l1.86-1.24 2 1.24 3.5-2.12v-4.9l-3.67-2.48-2.09 1.33V20Zm2.14 5.8-2.13 1.35v2.54l1.95 1.26 2.24-1.37v-2.43l-2.06-1.35Z" fill="url(#emr11ggio)"/><defs><linearGradient id="amr11ggio" x1="20.11" y1="13.26" x2="38.81" y2="40.94" gradientUnits="userSpaceOnUse"><stop offset=".13" stop-color="#C29847"/><stop offset=".45" stop-color="#F3EBDF"/><stop offset=".63" stop-color="#D7B35C"/><stop offset="1" stop-color="#EAD86F"/></linearGradient><linearGradient id="bmr11ggio" x1="28" y1="19" x2="28" y2="41" gradientUnits="userSpaceOnUse"><stop stop-color="#C69044"/><stop offset=".5" stop-color="#F1DB6E"/><stop offset="1" stop-color="#D6AE60"/></linearGradient><linearGradient id="cmr11ggio" x1="28" y1="19" x2="28" y2="34" gradientUnits="userSpaceOnUse"><stop offset=".33" stop-color="#D0AD6C"/><stop offset=".55" stop-color="#F4DF82"/><stop offset=".75" stop-color="#CEA549"/></linearGradient><linearGradient id="dmr11ggio" x1="26.91" y1="20.64" x2="20.71" y2="31.76" gradientUnits="userSpaceOnUse"><stop stop-color="#9E7831"/><stop offset=".42" stop-color="#C0A344"/><stop offset="1" stop-color="#82530C"/></linearGradient><linearGradient id="emr11ggio" x1="29.05" y1="20.64" x2="35.25" y2="31.76" gradientUnits="userSpaceOnUse"><stop stop-color="#9E7831"/><stop offset=".42" stop-color="#C0A344"/><stop offset="1" stop-color="#82530C"/></linearGradient></defs></svg>