<!-- by TradingView --><svg width="56" height="56" viewBox="0 0 56 56" xmlns="http://www.w3.org/2000/svg"><path fill="url(#a)" d="M0 0h56v56H0z"/><path d="M23.7 11c.09 0 .17.02.25.05.08.03.14.08.19.15.28.43.62.83 1.03 1.2.08.07.13.16.16.26.08.34.22.59.42.75-.64.52-1.32-.1-1.89.83-.1.17-.32.33-.65.48-.71.33-1.26.83-1.65 1.53-.12-.21-.42-.33-.9-.36.22-.1.44-.14.68-.14a.13.13 0 0 0 .13-.12v-.07l-.13-.24a.16.16 0 0 0-.07-.07.17.17 0 0 0-.09-.03h-1.02a.23.23 0 0 1-.2-.1c-.23-.39-.52-.45-.89-.21-.56.37-1.15.68-1.76.93-.07-.37.05-.73.38-1.07.7-.21 1.07-.47 1.09-.78-.1-.65.3-.96 1.24-.93l.05-.01c.06-.04.09-.1.1-.17l.13.02a.2.2 0 0 0 .24-.15l.2-.7c.27-.08.54-.2.8-.4a.28.28 0 0 1 .25-.03c.03 0 .06.02.08.05l.04.02h.03L23.7 11Z" fill="#B59462"/><path d="M37.6 18.18c-.09.2-.14.3-.16.25a11.4 11.4 0 0 0-5.01-4.64c-3.2-1.26-5.8-.1-8.12 2.13a.1.1 0 0 0 0 .13.1.1 0 0 0 .13.02c.53-.41 1.06-.8 1.6-1.19a6.5 6.5 0 0 1 6.1-.89 8.99 8.99 0 0 1 4.6 4.16.04.04 0 0 1-.04.01L35.21 18l-.05-.01a.14.14 0 0 1-.04-.04c-2.02-2.53-4.45-3.36-7.27-2.48-.91.32-1.6.82-2.07 1.48-2.27.2-2.92-.18-1.94-1.15.43-.42.9-.82 1.42-1.2.21-.15.45-.53.72-1.15a7.8 7.8 0 0 1 5.51-.58c2.7.76 4.74 2.53 6.1 5.32Z" fill="#FDFDCF"/><path d="M19.58 12.68c.26.03.46.1.6.2-.02.08-.05.13-.1.17a.09.09 0 0 1-.06.01c-.93-.03-1.34.28-1.24.93l-.4.03a.24.24 0 0 1-.25-.14.25.25 0 0 1-.02-.1v-.3l1.47-.8ZM32.43 13.8c-.17.03-.27.1-.3.2a6.5 6.5 0 0 0-6.08.88c-.55.38-1.08.78-1.6 1.2a.1.1 0 0 1-.14-.02.1.1 0 0 1 0-.14c2.32-2.22 4.92-3.4 8.12-2.13ZM25.75 13.41l.23.03c-.27.62-.51 1-.72 1.15-.52.38-1 .78-1.42 1.2-.55.27-.97.74-1.28 1.4a.74.74 0 0 1-.24.3c-.6.41-1.24.6-1.91.57l1.15-1.81c.4-.7.94-1.2 1.65-1.53.33-.15.55-.3.65-.48.57-.92 1.25-.31 1.9-.83Z" fill="#CEC7A6"/><path d="M32.43 13.8a11.4 11.4 0 0 1 5 4.63c.03.04.08-.04.16-.25.05.12.17.21.35.27a.32.32 0 0 1 .21.29l.06 1c-.19-.1-.3.05-.36.43l-.56-1.47a.36.36 0 0 0-.23-.22c-.58-.18-1.03-.16-1.35.08a.1.1 0 0 0-.04.12.1.1 0 0 0 .1.07c.97-.06 1.65.3 1.27 1.47-.05.15-.12.6-.23 1.36a.66.66 0 0 1-.65.58l-2.58.02c-.6-.44-1.05-1.24-1.34-2.41-.22-.9-.8-1.08-1.56-.96a.26.26 0 0 0-.16.1c-.08.1-.08.16.02.2a1 1 0 0 0-.35.14c0-.36-.06-.72-.18-1.07a.1.1 0 0 0-.12-.07l-.12.03a.18.18 0 0 0-.1.08.17.17 0 0 0-.02.13c.23 1.01-.22 1.7-.25 2.54a.47.47 0 0 1-.16.34c-.3.28-.68.38-1.1.32a.34.34 0 0 1-.16-.06.36.36 0 0 1-.11-.13l-1.73-3.46a.78.78 0 0 0-1.48.28 6.4 6.4 0 0 0 .36 2.3c.2.65.67.63 1.27.67l.02.01a.04.04 0 0 1 0 .05l-.01.02c-.6.17-1.05.07-1.34-.3a.38.38 0 0 1-.07-.14l-.63-2.42a.7.7 0 0 0-.92-.48l-1.12.41-2.65 1.02a.13.13 0 0 1-.16-.06l-.08-.15a.15.15 0 0 1 .06-.2c.4-.23.74-.51 1.02-.85.67.03 1.3-.16 1.9-.57.11-.08.2-.18.25-.3.3-.66.73-1.13 1.28-1.4-.98.97-.33 1.35 1.94 1.15l.4.16c.28.06.6 0 .93-.19a.3.3 0 0 1 .4.1c.02.01.02.08 0 .19 0 .1.18.13.53.11.45-.02.74.03.88.16a.19.19 0 0 0 .2.03.18.18 0 0 0 .1-.17v-.7a.31.31 0 0 1 .24-.3l.27-.08a.22.22 0 0 1 .21.07.22.22 0 0 1 .05.21c-.1.33-.13.65-.08.95.07.32.22.37.47.15a4.7 4.7 0 0 0 3.22.2c.25.08.44.1.58.07a.16.16 0 0 0 .08-.26c-1.83-1.85-3.92-2.5-6.26-1.93-.11-.1-.16-.18-.15-.25 2.82-.88 5.25-.05 7.27 2.48l.04.04.05.01 1.5.17h.01a.04.04 0 0 0 .03-.03v-.02a9 9 0 0 0-4.62-4.12c.03-.1.13-.16.3-.2Z" fill="#6E6F73"/><path d="M27.85 15.46c-.01.07.04.16.15.25l-1.34.7a.82.82 0 0 0-.48.69l-.4-.16a4.14 4.14 0 0 1 2.07-1.48Z" fill="#CEC7A6"/><path d="m33.6 17.83-.15-.21a.4.4 0 0 0-.35-.17l-2.72.18c-.25.22-.4.17-.46-.15-.06-.3-.04-.62.07-.95a.22.22 0 0 0-.26-.28l-.27.08a.31.31 0 0 0-.24.3v.7a.17.17 0 0 1-.1.17.18.18 0 0 1-.2-.04c-.14-.12-.43-.17-.88-.15-.35.02-.53-.02-.52-.11V17a.3.3 0 0 0-.41-.1c-.34.2-.64.25-.93.19.03-.3.19-.54.48-.69.45-.22.89-.46 1.34-.7 2.34-.56 4.43.08 6.26 1.93a.16.16 0 0 1 .04.16.16.16 0 0 1-.12.1c-.14.03-.33 0-.58-.07Z" fill="#FDFDCF"/><path d="M33.6 17.83a4.7 4.7 0 0 1-3.22-.2l2.72-.18a.4.4 0 0 1 .35.17l.15.21Z" fill="#CEC7A6"/><path d="m37.85 20.17-.34.5c-.09.15-.16.3-.21.46l-.4 1.27-1.21.33a.21.21 0 0 0-.1.36c.42.4.64.65.67.74a.12.12 0 0 1-.2.13.86.86 0 0 1-.19-.24.18.18 0 0 0-.12-.1.19.19 0 0 0-.16.04c-.07.06-.1.15-.1.28 0 .04.02.08.04.11a.2.2 0 0 0 .08.08c.33.18.74.27 1.24.25a8.6 8.6 0 0 1-1.78 4c.19-.69.47-1.32.85-1.89a.33.33 0 0 0-.01-.38.32.32 0 0 0-.36-.1c-.18.06-.34.02-.46-.12a.28.28 0 0 1-.07-.17c0-.07.02-.14.06-.19.24-.3.36-.66.36-1.07 0-.02-.01-.05-.03-.07a.1.1 0 0 0-.06-.03h-.02a.2.2 0 0 0-.23.08.21.21 0 0 0-.03.09c-.06.45-.21.83-.45 1.16a.5.5 0 0 0-.06.48c.05.13.12.24.22.34.32.31.33.73-.1.96a.21.21 0 0 1-.24-.04.2.2 0 0 1-.05-.08c-.1-.27-.15-.5-.16-.7 0-.06-.03-.1-.07-.15-.05-.04-.1-.06-.15-.06l-.08-.16a.3.3 0 0 1-.02-.2.3.3 0 0 1 .11-.17c.54-.37.62-1.21 1.01-1.82a.9.9 0 0 0 .14-.4c.07-.74-.16-1.09-.7-1.04.25-.3-.04-.45-.89-.47l2.58-.02a.65.65 0 0 0 .65-.58c.1-.76.18-1.21.23-1.36.38-1.17-.3-1.53-1.26-1.47a.11.11 0 0 1-.11-.07.1.1 0 0 1 .04-.12c.32-.24.77-.26 1.35-.08a.37.37 0 0 1 .23.22l.56 1.47Z" fill="#4F2F23"/><path d="M22.79 18.61c.07.66.15 1.31.24 1.97.02.17.13.31.32.44.18.25.2.47.1.67-.42.75-.33 1.43.28 2.06a.63.63 0 0 0-.09.36c-.19.14-.28.31-.26.51a.39.39 0 0 0 .29.35c.48.11.6.43.36.96a.29.29 0 0 0 0 .24.28.28 0 0 0 .2.15l.12.03a.53.53 0 0 1 .38.3 8 8 0 0 0 .76 1.45 8.61 8.61 0 0 0 4.17 2.49c.73.08 1.14.11 1.23.1.86-.14 1.68-.4 2.47-.78a3.88 3.88 0 0 0 1.7-1.53 8.6 8.6 0 0 0 1.8-4c.14-.61.16-1.27.05-1.98l.39-1.27c.05-.16.12-.31.21-.45l.34-.5c.05-.4.17-.54.36-.43.1.15.16.33.18.54l-.33.65a.59.59 0 0 0-.05.24c-.02 1.26-.02 2.52 0 3.8 0 .65-.33 1.45-.97 2.38l-1.69 1.82a12.91 12.91 0 0 1-4.58 1.94L26.45 31a.54.54 0 0 1-.35-.14l-1.97-1.73-1.09-1.72a12.87 12.87 0 0 1-1.24-5.7c.02-1.03.45-1.82.53-2.77 0-.08.04-.15.09-.2.05-.06.12-.1.2-.11h.17Z" fill="#FDFDCF"/><path d="M21.63 25.02c-.93.12-1.49.35-1.68.69l-.32.05a.28.28 0 0 0-.17.1.3.3 0 0 0-.07.17c0 .23.03.46.1.68l-.24.32-.82-1.46c.43 0 .81-.1 1.13-.3a.31.31 0 0 0 .14-.34 10.6 10.6 0 0 1-.01-4.72.6.6 0 0 1 .3-.4l1.62-.81a.22.22 0 0 1 .24.03.23.23 0 0 1 .08.24 12.92 12.92 0 0 0-.3 5.75Z" fill="#CEC7A6"/><path d="M30.54 19.1c.48.2.75.61.8 1.22a.15.15 0 0 1-.06.14.15.15 0 0 1-.16 0 2.12 2.12 0 0 0-.87-.29.23.23 0 0 1-.2-.28l.14-.64c.1-.06.21-.11.35-.14Z" fill="#FDFDCF"/><path d="m38.58 21-.17 3.94a.13.13 0 0 0 .07.13h.05c.04 0 .09 0 .14-.03l-.05.62a.19.19 0 0 0 .2.2l1.52-.11c.1.2.16.37.15.53l-.78-.09a.51.51 0 0 0-.36.1c-.35.26-.68.4-1 .43a.2.2 0 0 0-.15.08l-2.4 3.57a.12.12 0 0 0 .07.19c.6.14.94.45 1.04.94-.8-.17-1.74.04-2.8.62-.73.4-1.52.47-2.36.2.69-.4 1.46-.82 2.3-1.29a5.7 5.7 0 0 0 2.99-3.67c.64-.93.96-1.73.96-2.39v-3.8a.6.6 0 0 1 .06-.23l.33-.65c.14.35.2.59.19.71Z" fill="#E0C370"/><path d="M34.47 22.65c.54-.05.77.3.7 1.04a.9.9 0 0 1-.14.4c-.4.6-.47 1.45-1 1.82a.3.3 0 0 0-.12.16.3.3 0 0 0 .02.2l.08.17a.73.73 0 0 1-.3.25.48.48 0 0 0-.12-.1.2.2 0 0 0-.17-.02.2.2 0 0 0-.13.11c-.12.3-.3.53-.5.72a.6.6 0 0 0-.22.43l-.02 1-.2.03a.75.75 0 0 1-.18-.6.17.17 0 0 0-.22-.2.17.17 0 0 0-.09.08l-.76 1.13a.1.1 0 0 1-.12.04.1.1 0 0 1-.03-.02c-.13-.1-.2-.22-.18-.33.02-.1.07-.15.14-.15.29-.03.34-.13.15-.3a.19.19 0 0 0-.14-.04l-.95.1a.24.24 0 0 1-.24-.14.23.23 0 0 1-.02-.1V27.2a.32.32 0 0 0-.1-.22.32.32 0 0 0-.22-.1h-1.9a.28.28 0 0 1-.28-.24c-.03-.23-.02-.5.05-.81a.21.21 0 0 0-.17-.25l-.03-.01a.3.3 0 0 0-.33.17c-.1.24-.09.52.04.83a.12.12 0 0 1-.11.18.34.34 0 0 1-.21-.09.56.56 0 0 1-.18-.33c-.05-.24-.16-.38-.33-.43a.32.32 0 0 1-.22-.34c.02-.22-.01-.38-.1-.48-.4-.44-.67-1.11-.82-2a1.83 1.83 0 0 0-.37-.77.37.37 0 0 1-.1-.26c.02-.1.08-.15.2-.16l2.84.18a.35.35 0 0 1 .34.35v2.98c0 .07.02.14.07.19.05.04.12.07.19.07h.1a.1.1 0 0 0 .11-.1v-3.36a.31.31 0 0 1 .29-.3c.87-.07 1.32-.48 1.35-1.21a.33.33 0 0 1 .52-.25l.07.05c.13.1.24.21.34.34.36.55.4.97.09 1.27-.11.1-.27.12-.48.05a14.8 14.8 0 0 1-.51-.18.1.1 0 0 0-.08.04.1.1 0 0 0-.02.04.1.1 0 0 0 0 .08.1.1 0 0 0 .07.04c.53.17 1.04.12 1.51-.17a.41.41 0 0 1 .39-.01c.85.4 1.76.63 2.75.67Z" fill="#FDFDCF"/><path d="M24.53 21.88c-.12 0-.18.06-.2.16 0 .09.03.17.1.26.2.28.33.54.37.77.15.89.42 1.56.81 2 .1.1.13.26.1.48a.32.32 0 0 0 .23.34c.17.05.28.2.33.43.03.15.09.26.18.33.07.06.14.09.21.09a.12.12 0 0 0 .11-.18c-.13-.31-.14-.59-.04-.83a.3.3 0 0 1 .33-.17h.03a.21.21 0 0 1 .17.26c-.07.3-.08.58-.05.8a.29.29 0 0 0 .28.25h1.9c.09 0 .17.03.23.1.06.06.1.14.1.22v1.14a.23.23 0 0 0 .07.18.23.23 0 0 0 .18.06l.95-.1a.18.18 0 0 1 .14.05c.19.16.14.26-.15.29-.07 0-.12.05-.14.15-.01.11.05.23.18.33a.1.1 0 0 0 .12 0 .1.1 0 0 0 .03-.02l.76-1.13a.17.17 0 0 1 .31.12c-.04.2.02.4.17.6-.03.3-.12.57-.27.8a.35.35 0 0 1-.37.16.63.63 0 0 1-.32-.23.32.32 0 0 0-.16-.1.3.3 0 0 0-.2.02c-.32.13-.52.25-.6.34a.18.18 0 0 1-.15.07.19.19 0 0 1-.15-.1c-.12-.2-.09-.47.1-.8a.2.2 0 0 0 0-.2.2.2 0 0 0-.17-.1h-.36a.36.36 0 0 0-.17.04.35.35 0 0 0-.13.11c-.04.07-.09.15-.12.25-.05.13-.14.19-.28.17-.12-.01-.24-.1-.36-.24a.77.77 0 0 0-.57-.16c-.23.03-.32.13-.26.3.03.1.14.22.32.33.77-.03 1.29.33 1.54 1.07-1.6-.42-3-1.25-4.17-2.49a8 8 0 0 1-.76-1.45.53.53 0 0 0-.38-.3l-.12-.03a.27.27 0 0 1-.2-.15.28.28 0 0 1 0-.24c.24-.53.12-.85-.36-.96a.38.38 0 0 1-.3-.35c0-.2.08-.37.27-.51.2 0 .38.09.52.25a.37.37 0 0 0 .4.11.32.32 0 0 0 .22-.32c-.01-.08-.06-.14-.17-.2-.3-.16-.57-.07-.88-.2-.61-.63-.7-1.31-.28-2.06.1-.2.08-.42-.1-.67.22-.1.4-.24.54-.44a.16.16 0 0 1 .25 0c.18.23.26.47.23.72-.03.3.02.5.16.58Z" fill="#4F2F23"/><path d="M38.58 21c.3 1.37.34 2.72.1 4.04a.36.36 0 0 1-.15.04.13.13 0 0 1-.09-.04.13.13 0 0 1-.03-.1l.17-3.94Z" fill="#CEC7A6"/><path d="M24.52 23.26a.13.13 0 0 1 0 .1.12.12 0 0 1-.06.07l-.13.07a.17.17 0 0 1-.23-.07l-.53-1.06a.12.12 0 0 1 .1-.17h.14a.13.13 0 0 1 .11.06l.6 1ZM36.9 22.4c.12.7.1 1.37-.05 1.98-.5.02-.91-.07-1.24-.25a.2.2 0 0 1-.08-.08.23.23 0 0 1-.04-.1c0-.14.03-.23.1-.29a.2.2 0 0 1 .16-.04.19.19 0 0 1 .12.1c.04.07.1.15.2.24a.12.12 0 0 0 .2-.13 4.15 4.15 0 0 0-.68-.74.22.22 0 0 1 .1-.36l1.22-.33ZM33.53 24.59a1.64 1.64 0 0 0-1.2-1.67.14.14 0 0 1-.09-.07.13.13 0 0 1 .01-.12l.06-.1.04-.02h.04a2.32 2.32 0 0 1 1.4 1.99.09.09 0 0 1-.04.05h-.14a.07.07 0 0 1-.08-.06Z" fill="#B59462"/><path d="M29.72 24.65c.04.17.03.31 0 .43a.45.45 0 0 0-.03.23.5.5 0 0 0 .1.21c.05.07.11.13.19.17.07.04.16.06.24.07.93.08 1.4-.24 1.39-.96 0-.1-.02-.2-.06-.28-.3-.65-.84-.87-1.64-.69a.17.17 0 0 1-.2-.12l-.04-.14a.1.1 0 0 1 .04-.1.1.1 0 0 1 .04-.02c1.13-.18 2.98.34 2.32 1.85a.6.6 0 0 1-.28.3c-.64.34-1.28.42-1.9.25a.35.35 0 0 1-.26-.32 16.77 16.77 0 0 1 0-.91.05.05 0 0 1 .1.03Z" fill="#4F2F23"/><path d="M23.64 24.1c0-.12.02-.24.09-.35.31.13.58.04.88.2.1.06.16.12.16.2a.32.32 0 0 1-.22.32.37.37 0 0 1-.4-.1.7.7 0 0 0-.5-.26Z" fill="#E0C370"/><path d="M35.07 28.38a3.88 3.88 0 0 1-1.71 1.53c-.79.38-1.6.64-2.47.78-.09.01-.5-.02-1.23-.1-.25-.74-.77-1.1-1.54-1.07.37 0 .54-.15.51-.47.12.15.24.23.36.24.14.02.23-.04.28-.17l.12-.25a.36.36 0 0 1 .3-.16h.36a.2.2 0 0 1 .18.1.2.2 0 0 1 0 .2c-.2.34-.23.6-.1.82a.2.2 0 0 0 .14.09.19.19 0 0 0 .16-.07c.07-.1.27-.2.6-.34a.3.3 0 0 1 .19-.02c.06.02.12.05.16.1.1.13.22.2.32.23a.34.34 0 0 0 .37-.15c.15-.24.24-.5.27-.8l.21-.05c.2.09.36.24.5.48a.07.07 0 0 0 .07.03.07.07 0 0 0 .06-.04l.34-.67a.18.18 0 0 0-.03-.2c-.04-.06-.13-.1-.27-.13a.36.36 0 0 1-.24-.18c-.13-.22-.11-.45.06-.66a.17.17 0 0 1 .22-.04l.06.05c.02.04.09.23.2.58.04.08.1.16.16.21.08.06.16.09.26.1.09 0 .18-.02.27-.06a.56.56 0 0 0 .21-.2.41.41 0 0 0 .07-.18.3.3 0 0 0-.2-.31c-.36-.13-.55-.43-.59-.91a.73.73 0 0 0 .3-.25c.06 0 .11.02.16.06.04.04.07.1.07.15 0 .2.06.43.16.7a.2.2 0 0 0 .12.13.21.21 0 0 0 .18-.01c.42-.23.41-.65.09-.96a.97.97 0 0 1-.22-.34.52.52 0 0 1 .06-.48c.24-.33.39-.71.45-1.16a.22.22 0 0 1 .1-.15.2.2 0 0 1 .16-.03h.02a.1.1 0 0 1 .06.04c.02.02.03.05.03.07 0 .4-.12.76-.36 1.07a.28.28 0 0 0-.06.19c0 .06.02.13.07.17.12.14.28.18.46.12a.31.31 0 0 1 .36.1.32.32 0 0 1 .01.38 6.5 6.5 0 0 0-.85 1.9Z" fill="#B59462"/><path d="M35.82 25.73c.05-.27-.01-.47-.18-.6a.19.19 0 0 1 .03-.3c.2-.11.33-.16.41-.15a.22.22 0 0 1 .2.18c.06.4-.03.71-.29.96a.1.1 0 0 1-.11.02.1.1 0 0 1-.06-.11Z" fill="#CEC7A6"/><path d="m24.66 24.89.58.4a.19.19 0 0 1 .04.27c-.14.16-.1.36.14.6a.1.1 0 0 1-.02.15.43.43 0 0 1-.12.03c-.04.01-.07 0-.08-.02-.4-.57-.65-1-.75-1.27a.14.14 0 0 1 .2-.16Z" fill="#B59462"/><path d="M21.63 25.02c-.2 1.1.28 1.9 1.41 2.38l1.1 1.72 1.23 1.78c.08.1.18.2.3.25.64.28 1.09.62 1.36 1l.07 1.14c-.21.66.12 1.19 1 1.58.1.05.2.12.28.22a4 4 0 0 1 .99 2.78c-.38.18-.44.7-.19 1.55.04.68-.28.85-.96.5a.46.46 0 0 1-.25-.46c.05-.44-.02-.75-.22-.92a.14.14 0 0 1-.04-.14.15.15 0 0 1 .11-.1c.2-.05.37-.13.53-.25a.3.3 0 0 0-.2-.54l-6.4-.02a6.2 6.2 0 0 1 .43-2.53.3.3 0 0 1 .22-.18c.2-.05.35.02.44.19a.46.46 0 0 0 .4.23h2.62c.33 0 .57-.1.71-.28.17-.2.17-.46 0-.75a1.77 1.77 0 0 0-1.43-.85 16.5 16.5 0 0 0-2.18.12.3.3 0 0 1-.25-.09.32.32 0 0 1-.09-.25 7.33 7.33 0 0 0-.9-4.25c-.17-.31-.36-.5-.56-.56a.12.12 0 0 1-.08-.1.13.13 0 0 1 .05-.12.8.8 0 0 0 .31-.45.3.3 0 0 0-.28-.39h-.26a.33.33 0 0 0-.34.24c-.04.23-.3.26-.8.1l-.51-.54.25-.32c.45.04.88-.05 1.29-.27a.3.3 0 0 0 .15-.3.3.3 0 0 0-.23-.26l-.76-.17c.2-.34.75-.57 1.68-.7Z" fill="#761818"/><path d="m33.72 25.12.02.55a.17.17 0 0 1-.18.17.17.17 0 0 1-.09-.03 21.43 21.43 0 0 1 .12-.72.08.08 0 0 1 .13.03Z" fill="#B59462"/><path d="M44.41 30.02c-.41-.2-.66-.68-.73-1.45a.18.18 0 1 0-.37 0 .97.97 0 0 1-.26.54c-.09.1-.18.13-.27.09-.07-.04-.11-.12-.14-.26l-.02-.89a.47.47 0 0 0-.75-.36.47.47 0 0 0-.18.29l-.1.52a.29.29 0 0 1-.09.17.28.28 0 0 1-.18.06h-.11a.28.28 0 0 1-.29-.3c.04-.73-.1-1.45-.43-2.15a.95.95 0 0 0-.15-.53l1.2-.53a.34.34 0 0 1 .35.04c1.06.8 4.47 3.2 2.52 4.76ZM18.43 25.57l.82 1.46.5.54c.15.3.24.63.26 1-.36.32-.65.16-.87-.5a.51.51 0 0 0-1 .07c-.05.36 0 .75.17 1.16a.53.53 0 0 0 .03.35c-.15.14-.29.19-.41.15l-.54-1.36a.12.12 0 0 0-.12-.07.1.1 0 0 0-.1.1c-.03.46.08.93.33 1.39a.2.2 0 0 1-.08.27.2.2 0 0 1-.1.03.85.85 0 0 1-.31-.07 7.22 7.22 0 0 1-.72-2.43.1.1 0 0 0-.1-.1v.01a.1.1 0 0 0-.09.1v1.53a.14.14 0 0 1-.27.06l-.4-.78a.06.06 0 0 0-.05-.03.06.06 0 0 0-.05.05l-.11.53c-.02.14-.1.2-.24.15-.06-.02-.08-.06-.07-.1-.19-.75 0-1.46.55-2.15l.47-.4c.61.28 1.15.18 1.62-.31.14-.14.13-.24-.03-.3a.14.14 0 0 0-.17.03c-.06.08-.12.12-.17.1a.14.14 0 0 1-.1-.1.15.15 0 0 1 .03-.13c.08-.1.2-.2.36-.29.2-.09.53-.07.96.04Z" fill="#F7F6EB"/><path d="M17.47 25.53c-.16.1-.28.2-.36.3a.15.15 0 0 0-.02.13l.03.06.06.03c.05.02.1-.02.17-.1a.14.14 0 0 1 .17-.04c.16.07.17.17.03.3-.47.5-1 .6-1.62.33.27-.4.57-.7.9-.89.19-.13.4-.17.64-.12Z" fill="#CEC7A6"/><path d="m19.95 25.7.76.18a.3.3 0 0 1 .23.26.3.3 0 0 1-.15.3c-.41.22-.84.31-1.3.27a1.82 1.82 0 0 1-.1-.68.3.3 0 0 1 .07-.18c.05-.05.1-.08.17-.09l.32-.05Z" fill="#FDFDCF"/><path d="M40.49 26.28c.33.7.47 1.42.43 2.15a.29.29 0 0 0 .29.3h.11c.07 0 .13-.02.18-.06.05-.05.09-.1.1-.17l.09-.52a.47.47 0 0 1 .93.07l.02.9a2 2 0 0 0-.13.75.34.34 0 0 0 .2.3l1 .43c.1.32.09.68-.04 1.07a.75.75 0 0 0-.03.25l.02.78a6 6 0 0 1-2.43.62l-.52-1.73c.33-.17.7-.08 1.12.27.21.18.43.23.65.13.4-.18.68-.54.8-1.09a.2.2 0 0 0-.05-.19.2.2 0 0 0-.19-.05c-.07.01-.16.12-.29.34a.12.12 0 0 1-.12.05.11.11 0 0 1-.1-.09c-.05-.22-.24-.42-.57-.6a.19.19 0 0 0-.2.02.18.18 0 0 0-.07.18c.08.3.24.49.48.57a.1.1 0 0 1-.01.19c-.5.09-.83-.05-.99-.42.13-.32.15-.56.05-.74-.12-.24-.33-.3-.64-.19-.38.14-.63.44-.75.9-.4 1.58-.3 3.05.28 4.43-.16.52-.06.88.29 1.08.63.37.94.77.91 1.2-.15.1-.28.12-.38.03-.02-.35-.15-.57-.38-.66-.16-.08-.3-.04-.42.1-.1.1-.16.25-.2.43l-.4.15a.22.22 0 0 1-.09.01l-7.89.07a.72.72 0 0 1-.4-.03l-.26-1.82a.4.4 0 0 1 .12-.35l.62-.59 1.06-.02c.41-.02.66-.3.73-.84 1.01-.12 2.04-.4 3.07-.87.35-.15.59-.4.7-.77.02-.04-.05-.14-.2-.27 0-.16-.02-.32-.08-.48-.1-.49-.45-.8-1.04-.94a.12.12 0 0 1-.1-.14l.02-.05 2.4-3.57a.2.2 0 0 1 .15-.08c.33-.03.66-.17 1-.43.11-.08.24-.11.37-.1l.78.09Z" fill="#761818"/><path d="M33.7 26.69c.04.48.23.78.59.9a.3.3 0 0 1 .2.32c0 .06-.03.12-.07.19a.56.56 0 0 1-.2.19.53.53 0 0 1-.28.05.47.47 0 0 1-.26-.09.44.44 0 0 1-.15-.21 5.6 5.6 0 0 0-.21-.58.17.17 0 0 0-.22-.06.17.17 0 0 0-.06.05c-.17.21-.2.44-.06.66.05.1.14.16.24.18.14.03.23.07.27.12a.18.18 0 0 1 .03.2l-.34.68a.07.07 0 0 1-.06.04.07.07 0 0 1-.07-.03c-.14-.24-.3-.4-.5-.48l.02-.99a.59.59 0 0 1 .21-.43c.22-.19.39-.43.51-.72a.22.22 0 0 1 .13-.11.2.2 0 0 1 .17.02c.04.02.08.05.11.1Z" fill="#4F2F23"/><path d="M32.67 26.92c-.18.24-.64.39-1.4.44a.3.3 0 0 0-.14.04.32.32 0 0 0-.1.12l-.26.43a.08.08 0 0 1-.08.04.08.08 0 0 1-.06-.07c-.03-.3.01-.57.14-.8a.3.3 0 0 1 .32-.14c.35.07.83-.02 1.42-.26a.13.13 0 0 1 .18.13c0 .02 0 .05-.02.07Z" fill="#E0C370"/><path d="M25.75 27.23c.26.08.5.03.54-.1.04-.14-.14-.3-.4-.38-.26-.07-.5-.03-.53.1-.04.14.14.31.4.38Z" fill="#B59462"/><path d="M27.1 26.92c.3.19.9.27 1.8.27a.32.32 0 0 1 .23.09.31.31 0 0 1 .1.22v.63a.35.35 0 0 1-.26.34.36.36 0 0 1-.15.01l-.52-.07a.4.4 0 0 1-.33-.36v-.07a.31.31 0 0 0-.08-.28c-.1-.1-.22-.12-.33-.07-.14.06-.23.07-.29.01-.2-.2-.32-.39-.36-.58a.12.12 0 0 1 .05-.13.12.12 0 0 1 .13 0Z" fill="#FDFDCF"/><path d="M15.46 26.93c-.55.69-.74 1.4-.55 2.14a3.76 3.76 0 0 0-2.8 3.16c-1.52-2.1-.99-3.7 1.57-4.78l1.78-.52Z" fill="#B5424C"/><path d="m26.58 34.17-4.33.3a.21.21 0 0 1-.24-.2c-.03-.45-.03-.94.02-1.48a5.92 5.92 0 0 0-.96-3.95.8.8 0 0 0-.31-.27.82.82 0 0 0-.75 0c-.02-.37-.1-.7-.26-1 .5.16.77.13.81-.1a.34.34 0 0 1 .34-.25l.26.01a.3.3 0 0 1 .28.39.8.8 0 0 1-.31.45.13.13 0 0 0-.05.12.12.12 0 0 0 .08.1c.2.06.39.25.56.56a7.33 7.33 0 0 1 .9 4.25.32.32 0 0 0 .1.25.3.3 0 0 0 .24.09c.92-.1 1.64-.14 2.18-.12.58.01 1.06.3 1.44.85Z" fill="#94724D"/><path d="M31.75 32.33c-1.15 1-1.44 1.83-.9 2.47.04.04.05.07.04.1-.02.1-.06.16-.12.19a.11.11 0 0 1-.1 0 .12.12 0 0 1-.06-.07 2 2 0 0 0-1.53-1.27.12.12 0 0 0-.14.07.12.12 0 0 0 .06.15c.99.52 2.03 1.93 1.48 3.15-.23.5-.24 1.1-.04 1.76.05.17.04.35-.03.52l-.16.36c.07-.12.04-.1-.1.07-.03.08-.1.1-.18.05a.09.09 0 0 1-.03-.03.1.1 0 0 1-.02-.04l-.34-1.86c.4-.78.49-1.5.23-2.17a3.2 3.2 0 0 0-1.18-1.37 4.66 4.66 0 0 1-.65-.71c-.21-.26-.5-.4-.88-.41l-.07-1.14c.4.57.73.9 1 .97.47.15.75-.02.85-.5a6.7 6.7 0 0 0 3.66-1.35c.1-.08.23-.13.36-.16a3.46 3.46 0 0 0 2.45-1.93l1.69-1.82a5.7 5.7 0 0 1-2.98 3.67c-.85.47-1.62.9-2.31 1.3Z" fill="#4F2F23"/><path d="M40.3 27.4a.26.26 0 0 1 .27.37.26.26 0 0 1-.13.13c-.65.32-1.26.8-1.82 1.45a.8.8 0 0 0-.18.4c-.06.34-.2.63-.43.87a.34.34 0 0 1-.26.1.29.29 0 0 1-.13-.03.28.28 0 0 1-.1-.1.48.48 0 0 1-.05-.3c.02-.21.29-.88.8-2 .08-.2.23-.37.41-.48.3-.2.85-.33 1.61-.41Z" fill="#E63E33"/><path d="M17 30.09c-.11.5-.07.87.13 1.1.6.75 1.18.76 1.74.02.01-.23.08-.34.2-.34 1.04.95-.23 2.86-.7 3.62-.5.07-.72.16-.67.26a2.38 2.38 0 0 0-.86 2.62c-.08.14-.17.2-.27.2a9.24 9.24 0 0 0-2.18.1 2.1 2.1 0 0 0-.71-1.5l.59-1.8v-.03l-.02-.02-.1-.04a.16.16 0 0 0-.12 0 .17.17 0 0 0-.09.1l-.47 1.17a.23.23 0 0 1-.15.13.22.22 0 0 1-.2-.04l-.2-.18c.2-.61.53-1.16.98-1.66a.33.33 0 0 0-.15-.55c-.6-.16-1.14-.5-1.65-1.02a3.76 3.76 0 0 1 2.81-3.16c0 .05.01.09.07.1.14.05.22 0 .24-.14a11.34 11.34 0 0 1 .12-.57.06.06 0 0 1 .1.02l.4.78a.14.14 0 0 0 .26-.06v-1.53a.1.1 0 0 1 .09-.1.1.1 0 0 1 .1.09c.1.85.34 1.66.72 2.43Z" fill="#4F1222"/><path d="M27.4 28.54a.1.1 0 0 1-.03.12.1.1 0 0 1-.12.01l-1.2-.81a.08.08 0 0 1-.04-.08l.03-.05a.1.1 0 0 1 .03-.02l.46-.16h.04c.29.2.56.53.82 1Z" fill="#B59462"/><path d="M20.01 28.57a.82.82 0 0 1 .75 0 .8.8 0 0 1 .3.27c.8 1.18 1.12 2.5.97 3.95a8.12 8.12 0 0 0 0 1.56.22.22 0 0 0 .22.12l4.33-.3c.16.3.16.54-.01.75-.14.18-.38.27-.71.28h-2.62a.45.45 0 0 1-.4-.23c-.09-.17-.24-.24-.44-.2a.3.3 0 0 0-.22.19 6.2 6.2 0 0 0-.44 2.53c-.97.12-1.26-.93-1.04-1.71.14-.46.23-.93.29-1.41.08-.79.56-1.98.04-2.98-.46-1.53-1.36-2.23-2.72-2.1-.17-.4-.22-.79-.16-1.15a.51.51 0 0 1 .99-.07c.22.66.51.82.87.5Z" fill="#C34240"/><path d="M17.93 29.8c.04.32.13.57.26.76a.14.14 0 0 0 .16.05c.02 0 .03-.01.05-.03l.02-.02a.38.38 0 0 1 .21-.06c.08 0 .14.04.18.09l.26.28c-.12 0-.19.11-.2.34l-1.74-.02c-.2-.23-.24-.6-.12-1.1.12.05.22.07.31.07a.2.2 0 0 0 .18-.3 2.54 2.54 0 0 1-.33-1.39.1.1 0 0 1 .1-.1l.07.01c.02.01.04.03.05.06l.54 1.36Z" fill="#94724D"/><path d="M44.41 30.02c.06.08-.06.17-.37.26-.16.01-.27.06-.33.15l-1-.43a.34.34 0 0 1-.2-.3 2 2 0 0 1 .13-.76c.03.14.07.22.14.26.1.04.18.01.27-.09a.97.97 0 0 0 .26-.54.18.18 0 1 1 .37 0c.07.77.32 1.25.73 1.45ZM28.63 29.05c.03.32-.14.47-.51.47-.18-.11-.3-.22-.32-.33-.06-.17.03-.27.26-.3.2-.02.4.03.57.16Z" fill="#CEC7A6"/><path d="M30.77 31.12a4.91 4.91 0 0 0-1.95 1.03l-.44.11a.12.12 0 0 0 0 .24l.5.12c-.1.48-.38.65-.85.5-.27-.08-.6-.4-1-.97a3.25 3.25 0 0 0-1.36-1 .72.72 0 0 1-.3-.25l-1.24-1.78 1.97 1.73c.1.09.22.13.35.14l4.32.13Z" fill="#E0C370"/><path d="M21.03 31.39c-.06.39-.2.32-.44-.2-.43-1.01-1.08-1.63-2.25-1.54a.53.53 0 0 1-.03-.35c1.36-.14 2.26.56 2.72 2.09Z" fill="#B59462"/><path d="M35.35 29.18a3.46 3.46 0 0 1-2.45 1.93.96.96 0 0 0-.36.16 6.7 6.7 0 0 1-3.66 1.35l-.5-.12a.12.12 0 0 1 0-.24l.44-.11.03-.02c.53-.46 1.17-.8 1.92-1 1.48-.29 3.01-.93 4.58-1.95Z" fill="#94724D"/><path d="M18.34 29.65c-.02.25.05.38.19.38 1.3.02 1.87 1.22 1.96 2.33.07.72-.13 1.72-.57 3-.15.4-.34.6-.55.61-.36.3-.53.73-.52 1.28-.24.12-.51.11-.82-.04a.31.31 0 0 1-.16-.34l.5-2.38c.47-.76 1.74-2.67.7-3.62l-.26-.28a.26.26 0 0 0-.18-.09.38.38 0 0 0-.21.06l-.02.02a.14.14 0 0 1-.17.03.14.14 0 0 1-.04-.05 1.82 1.82 0 0 1-.26-.76c.12.04.26-.01.4-.15Z" fill="#FDFDCF"/><path d="M21.03 31.39c.52 1 .04 2.2-.04 2.98-.06.48-.15.95-.29 1.41-.22.78.07 1.83 1.04 1.7l6.41.03a.3.3 0 0 1 .3.38.3.3 0 0 1-.1.16c-.16.12-.33.2-.53.24a.15.15 0 0 0-.11.1.14.14 0 0 0 .04.15c.2.17.27.48.22.92a.45.45 0 0 0 .25.45c.68.36 1 .2.96-.49.08.4.05.8-.07 1.22-.03.1.04.17.2.21-.11.05-.2.15-.27.3l-.8-.4a.35.35 0 0 0-.26-.02c-.17.05-.26.14-.27.29-.58.14-1.09.15-1.53 0-1.48-.46-1.9-1.63-3.78-1.44l.5-.27a.24.24 0 0 0 .11-.32l-.07-.15a.3.3 0 0 0-.34-.15c-.77.22-1.38.08-1.81-.42l.15-.05a.08.08 0 0 0 .06-.1 2.61 2.61 0 0 1-.7-1.65c.17 0 .18-.16.02-.47a4.2 4.2 0 0 0-.4-.65c.44-1.27.63-2.27.57-2.99-.1-1.1-.66-2.31-1.96-2.33-.14 0-.2-.13-.2-.38 1.18-.1 1.83.53 2.26 1.53.23.53.38.6.44.2Z" fill="#4F2F23"/><path d="M41.17 30.73c-.31.24-.47.47-.46.7-.72 1.17 0 2.56.71 3.73.03.05.06.1.07.16l.2.8a.2.2 0 0 1-.36.16 3.72 3.72 0 0 0-1.22-1.15 6.82 6.82 0 0 1-.28-4.42c.12-.47.37-.77.75-.9.31-.12.52-.06.64.18.1.18.08.42-.05.74Z" fill="#FDFDCF"/><path d="M40.71 31.42c0-.22.15-.45.46-.7.16.38.49.52.99.43a.1.1 0 0 0 .01-.2c-.24-.07-.4-.26-.48-.56a.18.18 0 0 1 .07-.18.19.19 0 0 1 .2-.02c.33.18.52.38.58.6a.11.11 0 0 0 .09.09l.07-.01a.12.12 0 0 0 .05-.05c.13-.2.22-.32.29-.33a.21.21 0 0 1 .19.05.2.2 0 0 1 .05.19c-.12.55-.4.91-.8 1.1-.22.09-.44.04-.65-.14-.42-.35-.79-.44-1.12-.27Z" fill="#E0C370"/><path d="M18.87 31.21c-.56.74-1.14.73-1.74-.02l1.74.02Z" fill="#CEC7A6"/><path d="M36.9 31.5c.07.16.1.32.09.48-.89.5-2 .93-3.31 1.27-.22.06-.3.27-.26.64-.07.55-.32.82-.73.84a.31.31 0 0 1 .02-.22 1.1 1.1 0 0 0-.02-1 .35.35 0 0 0-.62-.03l-.48.82c-.14.09-.12.24.04.45l-.62.59a.42.42 0 0 0-.12.35l.25 1.82.12 1.5c0 .07.04.14.1.2a.3.3 0 0 0 .2.07h.7a.35.35 0 0 1 .3.17c.37.62-.16 1.05.03 1.6.07.2.21.35.43.42l.4.86a.15.15 0 0 1-.05.19.15.15 0 0 1-.06.03c-.7.15-1.27.04-1.73-.33-.04-.17-.03-.3.01-.38.05-.1.16-.11.32-.05.1.03.27.05.5.03a.13.13 0 0 0 .11-.09c.01-.02.01-.04 0-.07a.12.12 0 0 0-.04-.06c-.32-.27-.62-.31-.89-.13a.17.17 0 0 1-.21-.02c-.08-.08-.09-.2-.02-.37a.2.2 0 0 1 .07-.1c.18-.1.3-.19.4-.28a.56.56 0 0 0 .06-.66.47.47 0 0 0-.6-.2c-.27.11-.62.08-1.04-.08l.16-.36a.74.74 0 0 0 .03-.52c-.2-.66-.2-1.25.04-1.76.55-1.22-.5-2.63-1.48-3.15a.12.12 0 0 1 .08-.22 2 2 0 0 1 1.53 1.27c0 .02.01.03.03.05a.12.12 0 0 0 .08.03l.05-.01c.06-.03.1-.09.12-.18.01-.04 0-.07-.03-.11-.55-.64-.26-1.46.89-2.47.84.26 1.63.2 2.35-.2 1.07-.6 2-.8 2.8-.63Z" fill="#FDFDCF"/><path d="m40.71 31.42.52 1.73 1.71 3.4c.01.29-.2.59-.63.9-.28-.14-.48-.06-.58.25-.13.35-.47.8-1.04 1.3a.26.26 0 0 1-.18.07h-.34a.24.24 0 0 0-.24.23c-.02.35-.22.73-.64.7a.57.57 0 0 1-.44-.31c.04 0 .08 0 .11-.02a.17.17 0 0 0 .12-.16l-.01-.07a2.13 2.13 0 0 0-.8-.9l1.4-.45c.04-.01.1-.02.15 0 .05.01.1.04.13.08.14.16.33.18.57.08.35-.15.61-.43.79-.84.03-.43-.28-.83-.91-1.2-.35-.2-.45-.56-.29-1.08.5.3.91.68 1.22 1.15a.2.2 0 0 0 .37-.17l-.2-.79a.74.74 0 0 0-.08-.16c-.72-1.17-1.43-2.56-.7-3.74Z" fill="#B59462"/><path d="M36.99 31.98c.15.13.22.23.2.27-.11.36-.35.62-.7.77-1.03.46-2.06.75-3.07.87-.04-.37.04-.58.26-.64a13.5 13.5 0 0 0 3.31-1.27Z" fill="#94724D"/><path d="M27.1 33.29c.38.01.67.15.88.41.31.39.53.62.65.71.6.43.99.88 1.18 1.37.26.66.18 1.39-.23 2.17a.45.45 0 0 0-.21-.08 4 4 0 0 0-.99-2.78.85.85 0 0 0-.29-.22c-.87-.4-1.2-.92-.99-1.58Z" fill="#F7F6EB"/><path d="M32.71 34.51c-.54 0-.91-.08-1.12-.21l.48-.82a.35.35 0 0 1 .62.03c.17.36.18.7.02 1Z" fill="#B59462"/><path d="M36.76 34.7a.54.54 0 0 1-.3-.14l-.43-.41a.23.23 0 0 1 .16-.4c.57.02 1.17.27 1.8.72a.2.2 0 0 1-.15.38l-1.08-.15Z" fill="#94724D"/><path d="M13.68 36.16c-.23.32-.14.68.27 1.09a.02.02 0 0 1 0 .02.41.41 0 0 1-.08.08h-.03a3 3 0 0 1-.92-1.9l.2.19a.21.21 0 0 0 .2.04.23.23 0 0 0 .15-.13l.47-1.18a.17.17 0 0 1 .09-.09.16.16 0 0 1 .12 0l.1.04.01.02v.03l-.58 1.8ZM31.6 34.3c.2.13.57.2 1.11.21a.31.31 0 0 0-.02.22l-1.06.02c-.16-.21-.18-.36-.04-.45Z" fill="#CEC7A6"/><path d="m18.37 34.5-.5 2.37a.32.32 0 0 0 .16.34c.3.15.58.16.82.04.15.58.43.93.86 1.05a.1.1 0 0 0 .12-.1l.01-.12c.28-.02.44-.15.48-.38l.47.57c.43.5 1.04.64 1.8.42a.3.3 0 0 1 .35.15L23 39a.24.24 0 0 1-.1.32l-.51.27-1.42.74c-1.14-.4-1.86-1.08-2.15-2.05a.12.12 0 0 0-.11-.1.13.13 0 0 0-.12.1c-.05.2-.1.32-.17.38-.1.1-.21.04-.32-.16a6.57 6.57 0 0 1-.37-.76.12.12 0 0 0-.15-.01l-.22.18-.01.02v.02c.2.54.17 1-.12 1.36-.29.18-.34-.15-.16-.99-.52.18-.48-.13.11-.94.49-.98.65-1.85.5-2.62-.04-.1.18-.19.68-.26Z" fill="#94724D"/><path d="M17.7 34.75c.14.77-.02 1.64-.5 2.62h-.36a2.38 2.38 0 0 1 .86-2.62Z" fill="#F7F6EB"/><path d="M19.92 35.35c.15.2.29.42.4.65.16.3.15.47-.02.48a1.05 1.05 0 0 0-.31-.14.15.15 0 0 0-.18.13l.01.08.5 1.15c-.04.23-.2.36-.48.38-.4-.11-.58-.43-.53-.96.03-.37.06-.76.06-1.15.21-.01.4-.22.55-.62ZM40.93 37.44c-.2.28-.46.4-.76.35a.27.27 0 0 1-.17-.09.27.27 0 0 1-.07-.17v-.22c.04-.18.1-.33.2-.43.11-.14.26-.18.42-.1.23.1.36.31.38.66Z" fill="#E0C370"/><path d="M17.2 37.37c-.6.8-.36.76-.12.94-.75.25-1.9-.11-2.1-.18-.21-.05-.41-.2-.59-.46a9.24 9.24 0 0 1 2.18-.1c.1 0 .19-.06.27-.2h.35Z" fill="#CEC7A6"/><path d="M39.93 37.31v.22c0 .07.03.13.07.17.05.05.1.08.17.09.3.04.55-.07.76-.35.1.09.23.08.38-.03-.18.41-.44.7-.79.84-.24.1-.43.08-.57-.08a.26.26 0 0 0-.13-.08.28.28 0 0 0-.16 0l-1.39.45a10.06 10.06 0 0 0-3.4-.08.13.13 0 0 0-.02.2l.36.39c0 .21-.02.36-.06.45a.28.28 0 0 1-.25.15.26.26 0 0 1-.24-.16c-.1-.27-.31-.32-.66-.16a.25.25 0 0 1-.3-.08.24.24 0 0 1-.04-.1c-.04-.18.09-.34.36-.5a.13.13 0 0 0-.05-.24l-2.44-.04.32-.1a.12.12 0 0 0 .03-.22l-.35-.2a.14.14 0 0 1-.07-.1.15.15 0 0 1 .02-.12l.07-.09 7.9-.07.08-.01.4-.15Z" fill="#94724D"/><path d="M42.3 37.46c-1 1.7-2.31 3.13-3.94 4.31-.13-.39-.14-.74.2-1.02.22-.17.21-.44 0-.8a.48.48 0 0 0-.29-.2c-.43-.13-.89-.17-1.38-.14l-.26-.67v-.05c0-.02.01-.03.03-.04l.1-.05a.3.3 0 0 1 .37.08c.24.29.58.44 1 .45.15 0 .29.04.4.13l.32.23c.11.18.26.28.44.3.42.04.62-.34.64-.69a.24.24 0 0 1 .24-.23h.34c.07 0 .13-.02.18-.06.57-.52.91-.96 1.04-1.31.1-.3.3-.39.58-.24ZM31.55 37.54l-.07.1a.15.15 0 0 0-.02.11.14.14 0 0 0 .07.1l.35.2a.12.12 0 0 1-.03.23l-.32.1c-.07.56.47.75 1.61.56a.24.24 0 0 1 .25.12c.02.03.03.06.03.1.06.53.43.79 1.09.77a.2.2 0 0 1 .05.4c-.33.08-.64.04-.93-.1a.2.2 0 0 0-.25.06l-.09.13a.15.15 0 0 0-.01.11.14.14 0 0 0 .07.09l.7.38c-.44.1-.79.25-1.03.47a.66.66 0 0 1-.43-.43c-.19-.54.34-.97-.03-1.59a.36.36 0 0 0-.3-.17h-.7a.3.3 0 0 1-.2-.08.3.3 0 0 1-.1-.2l-.12-1.5c.13.06.27.07.41.04ZM20.98 40.32l.11 2.83a4.5 4.5 0 0 0-.43-1.11.46.46 0 0 0-.76-.07c-.08.1-.09.24 0 .4.2.44.6.7 1.2.78-.1.1-.17.3-.24.6l-1.83-1.14c.49-.28.5-.55.05-.83a3.33 3.33 0 0 0-1.68-1.85c.27 0 .21-.21-.16-.63.29-.37.33-.82.12-1.36v-.04l.23-.18a.11.11 0 0 1 .15 0l.03.05c.03.09.14.33.34.72.1.2.21.26.32.16.07-.06.12-.19.17-.38a.13.13 0 0 1 .12-.1l.07.03c.02.02.04.04.04.07.3.97 1 1.65 2.15 2.05Z" fill="#4F2F23"/><path d="M29.37 37.87c.06 0 .13.03.2.08l.35 1.86.02.04.03.03c.09.05.15.03.18-.05l-.01.69c-.21-.08-.49.03-.82.33-.17-.04-.24-.11-.21-.21.12-.42.15-.83.07-1.22-.25-.85-.2-1.37.19-1.55Z" fill="#94724D"/><path d="M14.99 38.13c.07.02.15.04.22.04l.3.04c.5.16 1.02.2 1.57.1-.18.84-.13 1.17.16.99.37.42.43.63.16.63-.23-.13-.4-.3-.54-.51-.03-.06-.06-.09-.1-.1l-.11.02a.21.21 0 0 0-.16.3c.06.14.04.26-.08.34a.2.2 0 0 1-.26-.02c-.3-.34-.7-.56-1.17-.67a.8.8 0 0 0-.16-.29l.17-.87Z" fill="#FDFDCF"/><path d="m31.53 38.37 2.44.04a.13.13 0 0 1 .12.1.13.13 0 0 1-.07.15c-.27.15-.4.3-.36.49a.24.24 0 0 0 .12.17.24.24 0 0 0 .22 0c.35-.15.57-.1.66.17a.25.25 0 0 0 .24.16.27.27 0 0 0 .25-.15c.04-.09.06-.24.06-.45.01.14.04.24.08.31a.17.17 0 0 0 .23.07.17.17 0 0 0 .07-.07c.14-.28.3-.43.49-.42a.26.26 0 0 1 .25.29c-.03.3.02.45.14.44A3.8 3.8 0 0 1 34.05 41l-.7-.38a.14.14 0 0 1-.07-.09.14.14 0 0 1 .01-.11l.1-.13a.2.2 0 0 1 .24-.07c.3.15.6.19.93.11a.2.2 0 0 0-.05-.4c-.66.02-1.03-.24-1.09-.78a.24.24 0 0 0-.28-.2c-1.14.18-1.68 0-1.61-.58Z" fill="#B59462"/><path d="M38.27 38.54c.35.22.62.52.8.9a.17.17 0 0 1-.11.23.55.55 0 0 1-.1.02l-.33-.23a.72.72 0 0 0-.4-.13c-.42-.01-.76-.16-1-.45a.32.32 0 0 0-.17-.1.3.3 0 0 0-.2.02l-.1.05a.07.07 0 0 0-.03.09l.26.67-.42.06c-.12.01-.17-.13-.14-.44a.26.26 0 0 0-.25-.29c-.18 0-.35.14-.5.42a.17.17 0 0 1-.3 0 .82.82 0 0 1-.07-.31l-.36-.4a.13.13 0 0 1-.02-.13.13.13 0 0 1 .1-.09c1.12-.15 2.23-.11 3.34.11Z" fill="#FDFDCF"/><path d="M30.25 39.76c.42.16.77.19 1.05.07a.47.47 0 0 1 .6.2c.05.1.08.23.07.35a.56.56 0 0 1-.15.32c-.08.1-.21.19-.39.28a.2.2 0 0 0-.07.1c-.07.17-.06.29.02.37a.17.17 0 0 0 .21.02c.27-.18.57-.14.9.13a.12.12 0 0 1 .03.13c0 .03-.02.05-.04.06a.13.13 0 0 1-.07.03c-.23.02-.4 0-.5-.03-.16-.06-.27-.05-.32.05-.04.08-.05.2-.01.38-.56-.17-.92-.49-1.08-.97 0-.25-.11-.49-.36-.73l.01-.7c.14-.15.17-.18.1-.06Z" fill="#CEC7A6"/><path d="m29.04 41.16.08.16a.27.27 0 0 1-.02.28.28.28 0 0 1-.27.12c-.43-.07-.8-.3-1.12-.7.01-.15.1-.24.27-.3a.35.35 0 0 1 .27.03l.8.4Z" fill="#94724D"/><path d="M21.1 43.15c-.6-.08-1-.34-1.2-.78-.09-.16-.08-.3 0-.4a.46.46 0 0 1 .76.07c.17.3.32.67.43 1.11Z" fill="#FDFDCF"/><path d="M29.97 42.8c.3-.17.48-.4.41-.54s-.37-.12-.67.03c-.3.16-.49.4-.42.54s.38.12.68-.04ZM34.85 43.3a.12.12 0 0 1 .04.13c0 .03-.02.05-.04.06a.13.13 0 0 1-.07.03H31.9a.05.05 0 0 1-.04-.03.05.05 0 0 1 0-.06 44 44 0 0 1 .56-.48c.9-.3 1.7-.18 2.43.35ZM30.52 44.07a.12.12 0 0 1-.04.05.1.1 0 0 1-.06.01h-.24a.12.12 0 0 1-.12-.17c.25-.6.58-.96 1-1.1a.19.19 0 0 1 .18.34c-.26.19-.5.48-.72.87Z" fill="#F7F6EB"/><path d="m32.23 44.46-1.61.54-1.54-.26a.37.37 0 0 1-.31-.36v-.14a.17.17 0 0 1 .06-.13.18.18 0 0 1 .14-.04l3.26.4Z" fill="#CEC7A6"/><path d="M11 23.32c.17 1.43 2.01 3.04 2.92 3.67l-.25-7.01-.59-.96a16.42 16.42 0 0 0-2.08 4.3Z" fill="#4D1D0B"/><path d="M12.96 22.7c-1.7 1.4.04 3.33 1.12 4.12l3.92-.25c2-1.9 1.25-3.6.63-4.21.26-1.1-.3-2.24-.63-2.67 1.67 0 .7-2.56 0-3.84.57-1.67.02-2-.33-1.97-2.04 1.2-3.99 3.84-4.71 5.01l.54.8c-.67.53-.64 2.22-.54 3Z" fill="#F6E48D"/><path d="M13.3 23.4c-.57.8.23 2.5.7 3.26.18.16.58.21.71-.92.13-1.14-.89-2.03-1.42-2.34Z" fill="#4D1D0B"/><path d="M13.35 21.77c.28.05 1.09.68 1.46 1l2.66 2.45 1.7-.91c-.06-.2-.28-.64-.73-.88-.44-.23-.1-.83.12-1.1.22-.7-.1-1.64-.28-2.02l-2.07 1.23c-.36-.46-1.53-.83-2.07-.95-.39.37-1.08 1.14-.8 1.18Z" fill="#A06E32"/><path d="m14.63 24.36.79 2.13h2.62c.49-.5 1.41-1.63 1.21-2.13-.25-.63-1.79 1.09-1.79.88 0-.17.5-1.94.75-2.8-.39.46-1.25 1.32-1.58 1.09-.42-.3 1-1.26.83-1.59-.13-.27-.92.67-1.3 1.17l-1.53-1.17c.1.28.42 1.04.79 1.88.36.83-.38.7-.8.54Z" fill="#4E170C"/><path d="M14.17 18.14c-.67-.07.1 1.25.58 1.92 1.88.63 3.92-.5 3.84-.88-.09-.37-.75-.25-1.42 0-.53.2-1.25-.25-1.54-.5-.21-.15-.8-.47-1.46-.54Z" fill="#52160A"/><path d="M15.93 17.56c.23-.44-.54-1.04-.94-1.28-.3.24-.47.97-.58 1.28-.1.3 1.23.54 1.52 0Z" fill="#07040A"/><path d="M17.76 17.3a.72.72 0 0 1 .5-.82c.38.44.2 1.26 0 1.33-.2.08-.4.14-.5-.51Z"/><defs><linearGradient id="a" x1="10.42" y1="9.71" x2="68.15" y2="76.02" gradientUnits="userSpaceOnUse"><stop stop-color="#1A1E21"/><stop offset="1" stop-color="#06060A"/></linearGradient></defs></svg>