<!-- by TradingView --><svg width="56" height="56" viewBox="0 0 56 56" xmlns="http://www.w3.org/2000/svg"><path fill="#181B1E" d="M0 0h56v56H0z"/><path fill-rule="evenodd" d="M45.75 27.05c.33.59.33 1.31 0 1.9l-3.95 6.91c1.46.26 2.38 1.35 2.38 2.1 0 .7-.38 1.44-.57 1.72a3.23 3.23 0 0 0-2.1-.78c-.78 0-1.62.68-2.18 1.27l-1.65 2.9c-.33.57-.94.93-1.6.93H19.92c-.66 0-1.27-.36-1.6-.94l-8.07-14.11a1.92 1.92 0 0 1 0-1.9l3.82-6.69c-1.3-.33-2.13-1.34-2.13-2.04 0-.71.38-1.44.57-1.72.27.26 1.07.78 2.1.78.53 0 1.1-.32 1.57-.7l2.14-3.74c.33-.58.94-.94 1.6-.94h16.16c.66 0 1.27.36 1.6.94l8.07 14.11Zm-3-.03c.33.6.33 1.35 0 1.96l-6.6 12.05c-.33.6-.93.97-1.58.97H21.35a1.8 1.8 0 0 1-1.58-.97l-6.6-12.05a2.05 2.05 0 0 1 0-1.96l6.6-12.05c.33-.6.93-.97 1.58-.97h13.22c.65 0 1.25.37 1.58.97l6.6 12.05Z" fill="url(#aa1hraule)"/><path d="M24.63 28.65A3.99 3.99 0 0 1 19 25a4 4 0 0 1 8-.19L26 25a3 3 0 1 0-1.7 2.7l.33.95Z" fill="url(#ba1hraule)"/><path d="m23.76 29.94 5.74-1.44.5.98-5.83 1.44C23.8 31 23.4 31 23 31a6 6 0 1 1 5.93-6.95l-.99.2a5 5 0 1 0-4.18 5.7Z" fill="url(#ca1hraule)"/><path d="M32.24 27.06 26.5 28.5l-.5-.98 5.85-1.4a6 6 0 1 1-4.77 6.84l.98-.21a5 5 0 1 0 4.18-5.7Z" fill="url(#da1hraule)"/><path d="M31.25 28.4a4 4 0 1 1-2.18 4.34l.98-.18a3 3 0 1 0 1.54-3.2l-.34-.96Z" fill="url(#ea1hraule)"/><defs><linearGradient id="aa1hraule" x1="11.72" y1="18.05" x2="44.96" y2="37.93" gradientUnits="userSpaceOnUse"><stop stop-color="#F55456"/><stop offset="1" stop-color="#6D24EA"/></linearGradient><linearGradient id="ba1hraule" x1="24.98" y1="21.74" x2="20.04" y2="27.63" gradientUnits="userSpaceOnUse"><stop stop-color="#D04E4F"/><stop offset="1" stop-color="#E56266"/></linearGradient><linearGradient id="ca1hraule" x1="25.64" y1="19.7" x2="19.55" y2="31.24" gradientUnits="userSpaceOnUse"><stop stop-color="#6ABC8B"/><stop offset="1" stop-color="#7DD2A1"/></linearGradient><linearGradient id="da1hraule" x1="27.07" y1="34.76" x2="38.9" y2="31.12" gradientUnits="userSpaceOnUse"><stop stop-color="#7540ED"/><stop offset="1" stop-color="#531FCC"/></linearGradient><linearGradient id="ea1hraule" x1="33" y1="36" x2="33" y2="29" gradientUnits="userSpaceOnUse"><stop stop-color="#D14F2B"/><stop offset="1" stop-color="#F67555"/></linearGradient></defs></svg>