<!-- by TradingView --><svg width="56" height="56" viewBox="0 0 56 56" xmlns="http://www.w3.org/2000/svg"><path fill="#F0F3FA" d="M0 0h56v56H0z"/><path d="M28 46 12 31h10.57L28 46Z" fill="#EA5429"/><path d="M28 46V31h-5.48L28 46Z" fill="#ED6D2A"/><path d="m28 46 16-15H33.43L28 46Z" fill="#F39945"/><path d="M28 46V31h5.45L28 46Z" fill="#F08341"/><path d="m20 23-8 8h10.62L20 23Z" fill="#CB4819"/><path d="M28 31h-5.48L20 23h8v8Z" fill="#EA5420"/><path d="m36 23 8 8H33.4l2.6-8Z" fill="#FFE225"/><path d="M28 31h5.45L36 23h-8v8Z" fill="#F6AD48"/><path d="M28 9.05a8.1 8.1 0 0 1-2.75 5.94 8.4 8.4 0 0 0-1.25-.92 9.42 9.42 0 0 0 4-5.06c.02 0 .01.02 0 .04Z" fill="#90C31F"/><path d="M28 9.05A9.48 9.48 0 0 0 33.99 15a9.44 9.44 0 0 0-5.94 5.86 1.63 1.63 0 0 1-.09-.45l-.03-.45a8.04 8.04 0 0 0-2.6-4.92.09.09 0 0 0-.07-.03V15c.02 0 .04 0 .05-.02A8.1 8.1 0 0 0 28 9.05Z" fill="#006835"/><path d="M24 14.07a8.4 8.4 0 0 1 1.25.92v.03l-.24.18-.23.2-.79.53a9.33 9.33 0 0 0-1.97-.94c.7-.23 1.36-.54 1.98-.92Z" fill="#23AC38"/><path d="M25.25 15.02a.1.1 0 0 1 .07.03 8.04 8.04 0 0 1 2.63 5.37c0 .16.04.31.09.45a.2.2 0 0 1-.03.12c-.01.02-.02.01-.03 0A9.4 9.4 0 0 0 24 15.92a27.77 27.77 0 0 0 1.26-.9Z" fill="#07913A"/></svg>