<svg width="112" height="112" viewBox="0 0 56 56" xmlns="http://www.w3.org/2000/svg"><rect fill="#D4E8FF" width="56" height="56" rx="28"/><path d="M42.86 33.92a.56.56 0 0 0-.01.43c.87 2.27-1.36 4.7-3.09 5.91-5.49 3.85-14.02 5.26-20.06 1.68a4.53 4.53 0 0 1-2.22-2.97.67.67 0 0 0-.23-.36 13.36 13.36 0 0 1-3.7-4.68c-1.1-2.32-.5-3.9-.37-6.1a.59.59 0 0 0-.12-.42c-2-2.58-3.16-4.46-3.05-7.92.04-1.57.85-1.95 2.38-2.05 1.81-.1 3.62-.17 5.43-.18.28 0 .56-.08.8-.24 1.62-1.05 3.25-.86 4.86-1.62 1.57-.74 2.61-1.31 4.62-1.25.16 0 .3-.04.42-.13 1.04-.8 2.08-1.58 3.13-2.36 2.31-1.7 4.19-2.8 5.92.34a14.3 14.3 0 0 1 1.9 6.18c0 .15.07.27.18.38 2 1.88 4.26 3.37 4.3 6.22.07 3.75.23 6.27-1.09 9.14Z" fill="#fff"/><path d="M29.8 23.17c.07-.5-.14-.84-.63-1.04a.58.58 0 0 1-.36-.4.55.55 0 0 1 .16-.52c.68-.67 1.51-.9 2.5-.72.08.02.17 0 .25-.04a.34.34 0 0 0 .15-.2l.03-.12a.24.24 0 0 0-.03-.2.26.26 0 0 0-.17-.11c-1.55-.32-2.73.13-3.54 1.35-.08.13-.2.16-.33.1-2.1-.83-5.13-.55-6.3 1.59a.4.4 0 0 1-.41.21 2.8 2.8 0 0 0-2.84 1.5.36.36 0 0 0 .05.43.4.4 0 0 0 .12.1l.12.05a.3.3 0 0 0 .34-.06.28.28 0 0 0 .06-.1c.33-.84.96-1.24 1.9-1.2.2 0 .27.1.23.3l-.27 1.31c-.67.64-1.28 1.3-1.85 1.99-1.41 1.72-1.35 3.54-1.6 5.6-.12 1.09-.49 1.77-1.57 2.07a.36.36 0 0 1-.39-.13 6.8 6.8 0 0 1-1.12-6.22c.19-.68-.07-1.6-.56-2.23-1.69-2.15-2.72-4.04-2.67-6.83.02-1.1.58-1.08 1.51-1.12 2.42-.1 5.6.31 7.62-1.15.63-.46 2.65-.48 3.74-1 1.55-.73 2.43-1.19 4.47-1.12.16 0 .3-.04.42-.13 1.4-1.05 4.7-4 6.37-4a.57.57 0 0 1 .4.15c1.87 1.8 2.67 4.9 2.72 7.32 0 .15.05.28.16.38 2.05 2.05 3.97 2.81 4.39 6.03.02.14-.05.2-.2.2-1.79-.02-3.36-.33-5.09-1.06-1.63-.69-2.82-1.23-4.85-1.25-.44-.01-1.42.08-2.92.27Z" fill="#F5AD63"/><path d="M35.47 12.62a12.2 12.2 0 0 1 2.1 5.61c.02.26-.1.33-.34.2l-5.76-2.92a.43.43 0 0 1-.22-.28.41.41 0 0 1 .08-.35 9.44 9.44 0 0 1 2.92-2.51.97.97 0 0 1 1.22.25Z" fill="#F7D896"/><path d="M27.97 19.53c.65-.25 1.01-.85.8-1.34-.2-.5-.88-.68-1.53-.43-.65.25-1.01.85-.81 1.34.2.5.9.68 1.54.43Z" fill="#fff"/><path d="M14.14 25.59a11 11 0 0 1-2.18-5.26.54.54 0 0 1 .14-.44.58.58 0 0 1 .44-.19l4.57.06c.04 0 .09.01.12.04.04.02.07.06.09.1a.22.22 0 0 1-.06.24 8.75 8.75 0 0 0-2.83 5.37l-.03.09a.17.17 0 0 1-.25 0Z" fill="#F7D896"/><path d="m29.8 23.17-2.2-1.32c-.2-.13-.3-.07-.25.17.3 1.7-.2 3.1-1.47 4.24a.56.56 0 0 0-.17.56.58.58 0 0 0 .43.4c1.24.27 2.48.35 3.73.25 1-.07 1.97-1.76 2.52-2.52.29-.4.66-.5 1.11-.32.34.13.58.5.73 1.09.76 3.13-.81 5.3-3.42 6.92 0-1.38 1.57-3.46-.81-4.04-.84-.2-1.55.28-2.19.76a.73.73 0 0 1-.42.15c-2.48.07-2.22 1.81-2.66 3.52-.1.43-.35.6-.73.52-1.78-.46-4-2.07-3.82-4.08a.45.45 0 0 1 .25-.36.47.47 0 0 1 .43 0l1.59.82a1.14 1.14 0 0 0 1.42-.32l1.55-2.05a.6.6 0 0 0-.1-.85.65.65 0 0 0-.3-.13 5.06 5.06 0 0 1-3.2-1.93c-.2-.27-.3-.23-.3.1l-.01.95c0 .04-.02.1-.05.13a.25.25 0 0 1-.25.1.26.26 0 0 1-.13-.06c-.1-.08-.18-.24-.26-.47l.28-1.32c.04-.19-.04-.29-.24-.3-.93-.03-1.57.37-1.9 1.21a.28.28 0 0 1-.16.17.3.3 0 0 1-.23-.01l-.12-.06a.4.4 0 0 1-.2-.22.36.36 0 0 1 .03-.3 2.8 2.8 0 0 1 2.84-1.5.4.4 0 0 0 .4-.21c1.17-2.14 4.2-2.42 6.3-1.59.15.06.26.03.34-.1.81-1.22 2-1.67 3.54-1.35a.27.27 0 0 1 .17.11.24.24 0 0 1 .03.2l-.03.12a.34.34 0 0 1-.15.2.35.35 0 0 1-.26.04 2.63 2.63 0 0 0-2.49.72.56.56 0 0 0-.16.51c.02.1.06.18.13.25.06.07.14.13.22.16.5.2.71.55.65 1.04Z"/><path d="M20.33 21.86c.7 0 1.29-.4 1.3-.92 0-.52-.57-.95-1.28-.95-.71 0-1.3.4-1.3.92s.57.95 1.28.95Z" fill="#fff"/><path d="M30.81 32.64c-.14.62-.29 1.29-.43 2-.52 2.55-5.53 4.8-6.99 1.88-.69-1.4.19-1.93.61-2.97.38.09.62-.09.73-.52.44-1.7.18-3.45 2.66-3.52.16 0 .3-.06.42-.15.64-.48 1.35-.97 2.19-.76 2.38.58.8 2.66.81 4.04Z" fill="#F18D8E"/><path d="M18.47 39.55c6.96 4.7 14.7 3.1 21.14-1.47a8.08 8.08 0 0 0 2.5-2.79c.05-.1.13-.13.24-.08l.11.05c.07.04.13.1.16.17a.3.3 0 0 1 0 .22 8.59 8.59 0 0 1-3.27 4.19c-5.47 3.64-15.85 5.73-20.9.17a.45.45 0 0 1-.11-.27c0-.07 0-.12.02-.16.02-.05.06-.06.1-.03Z" fill="#A21828"/></svg>