<!-- by TradingView --><svg width="56" height="56" viewBox="0 0 56 56" xmlns="http://www.w3.org/2000/svg"><path fill="#181B1E" d="M0 0h56v56H0z"/><path fill="#EBFB36" d="M13 23h5v10h-5zM33 13v5H23v-5zM18 18h5v5h-5zM33 18h5v5h-5zM38 23h5v5h-5zM18 33h5v5h-5zM23 38h5v5h-5z"/><path d="M43 28a15 15 0 0 1-15 15v-5a10 10 0 0 0 10-10h5Z" fill="url(#a)"/><defs><linearGradient id="a" x1="41.67" y1="28" x2="28" y2="42.34" gradientUnits="userSpaceOnUse"><stop stop-color="#302F34"/><stop offset="1" stop-color="#A7A7AD"/></linearGradient></defs></svg>