<svg width="112" height="112" viewBox="0 0 56 56" xmlns="http://www.w3.org/2000/svg"><rect fill="#181B1E" width="56" height="56" rx="28"/><path d="M9 33.34c0-1.82 2.03-4.99 3.04-6.34-.32.71-.97 2.05-.97 3.35 0 5.64 9.95 5.09 14.93 4.1-1.67.85-6.04 2.55-10.13 2.55C10.77 37 9 35.62 9 33.34ZM48 22.66c0 1.82-2.15 4.99-3.22 6.34.34-.71 1.03-2.05 1.03-3.35 0-5.64-10.54-5.09-15.81-4.1C31.77 20.7 36.4 19 40.73 19c5.4 0 7.27 1.38 7.27 3.66Z" fill="#D400A6"/><path d="M43.05 28a15.01 15.01 0 0 1-25.96 10.28l.07.02c2.32.18 11.46-1.05 16.5-8.49-2 1.11-7.16 3.33-11.73 3.33-4.08 0-6.69-.94-8.65-2.25A15.01 15.01 0 0 1 39 17.75a.6.6 0 0 0-.19-.05c-2.3-.18-11.4 1.05-16.42 8.49 2-1.11 7.13-3.33 11.67-3.33 4.15 0 6.75.98 8.72 2.32.18.91.27 1.86.27 2.82Z" fill="#7F16D3"/></svg>