<!-- by TradingView --><svg width="56" height="56" viewBox="0 0 56 56" xmlns="http://www.w3.org/2000/svg"><path fill="#F0F3FA" d="M0 0h56v56H0z"/><path d="M29.92 29.17a2.24 2.24 0 0 1-4.14-1.51c.1-.64.49-1.24 1.03-1.57a2.22 2.22 0 0 1 3.08.7c.06.1.13.21.23.21h2.33c.28 0 .53-.33.55-.6v-1c-.07-.47-.46-.75-.84-.97l-3.7-2.29c-.43-.18-.83-.07-1.24.16-.36.2-.78.45-1.25.74-.75.46-1.16.88-1.92 1.3-.55.3-1.04.64-1.05 1.33v4.61c0 .62.36.99.86 1.27l3.27 2.1c.35.21.77.38 1.16.26.21-.06.43-.16.64-.29l3.42-2c.2-.11.38-.18.5-.2a1.08 1.08 0 0 1 .66 2.01l-4.2 2.46c-.34.2-.73.4-1.12.46-.4.07-.85-.1-1.21-.3l-5-3.15c-.5-.31-.85-.68-.93-1.3-.04-.3-.06-.62-.05-.98V25.2c0-.74-.03-1.4.59-1.87.27-.2.58-.4.93-.6.93-.52 1.5-1.02 2.4-1.57l1.8-1.07c.55-.33 1.15-.6 1.79-.37.27.1.52.22.77.36l4.6 2.85c.13.07.31.2.54.36.41.3.54.71.58 1.23v1.25c-.03 1.22 1.85 1.56 2.31.46.06-.13.08-.4.09-.6v-1.77c0-.22-.05-.45-.09-.66-.13-.68-.56-1.11-1.12-1.47-.6-.39-1.07-.73-1.7-1.09l-2.96-1.7c-.73-.43-1.48-.92-2.23-1.32a3.37 3.37 0 0 0-1.04-.38c-.58-.09-1.21.18-1.7.46-.84.48-1.7 1-2.57 1.53-1.2.73-2.34 1.41-3.57 2.1-.39.22-.73.45-1.04.69-.5.4-.74.91-.8 1.55a11 11 0 0 0-.03 1.12l.03 6.86c0 .46 0 1 .09 1.36.14.61.58 1.04 1.1 1.37.62.4 1.2.76 1.86 1.14l3.04 1.77c.82.47 1.61 1.02 2.48 1.4.57.24 1.14.24 1.71 0 .25-.11.47-.22.66-.33.86-.5 1.74-1.03 2.65-1.58 1.42-.87 2.89-1.62 4.3-2.5.75-.46 1.66.1 1.66.96 0 .44-.23.77-.62.99l-3 1.67c-1.04.6-2.07 1.23-3.1 1.86l-1.8 1.05c-.42.22-.83.37-1.22.46-.73.15-1.53-.19-2.17-.55-.84-.47-1.65-.98-2.49-1.47-1.8-1.05-3.58-2.13-5.53-3.25-.21-.12-.47-.3-.8-.55a2.53 2.53 0 0 1-.96-1.82c-.06-.52-.07-1.3-.06-1.84v-8.12c0-.3.02-.67.06-1.08.08-.84.47-1.5 1.18-1.99.4-.27.75-.5 1.08-.69 1.03-.58 1.96-1.16 3.01-1.75l1.06-.62c1.3-.8 2.45-1.48 3.43-2.05.25-.14.53-.28.85-.4a2.52 2.52 0 0 1 1.88 0c.74.3 1.46.73 2.14 1.15.34.2.69.42 1.05.62 1.88 1.1 3.57 2.17 5.4 3.22.41.23.83.52 1.19.84.69.63.83 1.54.83 2.43v2.57c0 .34.16.72.45.9.54.34 1.57.17 1.87-.4.06-.14.13-.3.14-.5v-3.55c0-.36-.04-.74-.1-1.1a2.94 2.94 0 0 0-1.19-1.92c-.38-.3-.81-.58-1.29-.85-1.96-1.1-4.24-2.33-6.53-3.66l-1.05-.63c-.84-.52-1.7-1.05-2.6-1.44a3.02 3.02 0 0 0-2.48 0c-.4.17-.73.34-1.03.5l-4.17 2.5-1.06.62-3.66 2.06c-.62.35-1.3.77-1.81 1.28a3.3 3.3 0 0 0-.98 2.07c-.03.47-.06.94-.05 1.42v9.7l.03 1.21c.04.99.4 1.85 1.16 2.52.27.23.57.46.9.67.76.47 1.57.9 2.34 1.34l4.69 2.71c.92.54 1.84 1.12 2.75 1.63.8.45 1.68.82 2.6.66.88-.16 1.77-.72 2.57-1.2a810.9 810.9 0 0 0 4.53-2.7c1.59-.88 3.16-1.75 4.69-2.74.26-.16.47-.26.63-.29 1.2-.2 1.79 1.39.79 2.04l-.58.35a1510.82 1510.82 0 0 0-5.52 3.12c-1.71 1.03-3.46 2.1-5.17 3.08-.3.17-.65.34-1.08.51-.91.37-1.82.36-2.74-.03-.35-.15-.68-.3-.98-.47-1.03-.57-2.16-1.28-3.25-1.92l-5.86-3.38c-.96-.56-1.97-1.08-2.88-1.74a4.55 4.55 0 0 1-.67-.6C12 36.57 12 34.81 12 33.08V21.82c0-1.32.17-2.74 1.22-3.66.49-.42 1.08-.83 1.78-1.23a3064.88 3064.88 0 0 1 5.4-3.05l3.62-2.19c.9-.53 1.74-1.05 2.67-1.43a3.46 3.46 0 0 1 2.83.08c.57.26 1.06.51 1.48.76.9.53 1.78 1.09 2.67 1.6 2.57 1.49 5 2.9 7.46 4.3.55.3 1.06.65 1.52 1.02.68.55 1.1 1.26 1.23 2.14.07.47.11.92.12 1.35v6.2c0 .4-.1.67-.15.8-.18.39-.5.5-.93.49H30.1c-.08 0-.13.1-.17.17Z"/></svg>