<svg width="112" height="112" viewBox="0 0 56 56" xmlns="http://www.w3.org/2000/svg"><path fill-rule="evenodd" d="M14 21.58c0-1.42.8-2.73 2.08-3.42l10.22-5.48c1.71-.91 3.78-.9 5.48.02l8.52 4.63a3.19 3.19 0 0 1 .17 5.54l-1.94 1.2 1.7.92a3.27 3.27 0 0 1 .01 5.8l-1.86 1.01 1.85 1a3.27 3.27 0 0 1 .01 5.8l-8.85 4.77a5.25 5.25 0 0 1-5.04-.03l-10.03-5.6a4.47 4.47 0 0 1-2.32-3.9V21.58Zm13.6-6.62c.9-.48 1.98-.48 2.88.01l8.18 4.63a.62.62 0 0 1 .04 1.08l-3.14 2.17-4.5 2.47a4.1 4.1 0 0 1-3.9.02l-6.8-3.64a3.45 3.45 0 0 0-3.36-.1c0-.47.07-.93.5-1.16l10.1-5.48Zm-9.66 9.13c-.6.44-.94 1.13-.94 1.86v3.32s1.35-.96 2.26-.46l8.42 4.47c.75.41 1.66.42 2.41.01l8.53-4.77a.7.7 0 0 0 0-1.25l-2.71-1.63-3.52 1.95a6.84 6.84 0 0 1-6.52.03l-6.8-3.64c-.46-.25-.71-.21-1.13.1Zm-.04 7.83c-.57.43-.9 1.09-.9 1.79v.13c0 .68.24 1.3.85 1.64l9.83 5.6c.75.42 1.66.42 2.41.02l8.53-4.78a.7.7 0 0 0 0-1.25l-2.71-1.62-3.52 1.94a6.84 6.84 0 0 1-6.52.04l-6.8-3.65c-.46-.25-.71-.2-1.13.11l-.04.03Z" fill="#fff"/></svg>