<!-- by TradingView --><svg width="56" height="56" xmlns="http://www.w3.org/2000/svg"><path fill="url(#paint0_linear)" d="M0 0h56v56H0z"/><path d="M25.637 21.526a.59.59 0 000-.731l-3.523-4.54A.675.675 0 0021.58 16h-4.919c-.54 0-.852.577-.532.987l6 7.752a.686.686 0 001.066 0l2.442-3.213zm14.235-4.54c.318-.41.007-.986-.533-.986h-4.923a.675.675 0 00-.532.254L16.13 39.013c-.32.41-.01.987.532.987h4.918c.21 0 .409-.094.533-.254l5.363-6.984a.686.686 0 011.065 0l5.342 6.984c.124.16.322.254.532.254h4.92c.541 0 .853-.577.533-.987L34.873 33h4.464c.364 0 .66-.236.66-.578l.002-1.832c0-.343-.296-.59-.66-.59h-6.815a3.643 3.643 0 01.124-3h6.69c.365 0 .66-.284.66-.626v-1.636c0-.342-.295-.738-.66-.738h-4.286l4.82-7.014z" fill="#FC9B45"/><defs><linearGradient id="paint0_linear" x1="10.418" y1="9.712" x2="68.147" y2="76.017" gradientUnits="userSpaceOnUse"><stop stop-color="#1A1E21"/><stop offset="1" stop-color="#06060A"/></linearGradient></defs></svg>