<svg width="112" height="112" viewBox="0 0 56 56" xmlns="http://www.w3.org/2000/svg"><circle cx="28" cy="28" r="13" fill="#E98B1B"/><path d="M28 40a12 12 0 1 0 0-24 12 12 0 0 0 0 24Zm16-12a16 16 0 1 1-32 0 16 16 0 0 1 32 0Z" fill="#FFBC20"/><path fill-rule="evenodd" d="M28 44c8.8 0 16-7.2 16-16s-7.2-16-16-16-16 7.2-16 16 7.2 16 16 16Zm0 1a17 17 0 1 0 0-34 17 17 0 0 0 0 34Z" fill="#000107"/><path d="M23.93 27H26l-.93 6H23l.93-6Z" fill="#F0F3FA"/><path d="M25 27h8a2.2 2.2 0 0 1-2.2 2H25v-2ZM24 23h9a2.2 2.2 0 0 1-2.22 2h-5.51c-.7 0-1.27-.55-1.27-1.23V23Z" fill="#F0F3FA"/></svg>