<svg width="56" height="56" viewBox="0 0 56 56" xmlns="http://www.w3.org/2000/svg"><rect fill="#F0F3FA" width="56" height="56" rx="28"/><path d="m24.35 12.8-8.58 3.92a1.29 1.29 0 0 0-.03 2.34l8.44 4.06a8.97 8.97 0 0 0 7.8-.02l8.29-4.05c.99-.48.97-1.87-.03-2.33l-8.42-3.9a8.97 8.97 0 0 0-7.47-.02Z" fill="#2A313E"/><path d="M33.24 20.73 22 15.4l.8-.4L34 20.33l-.76.4ZM28.3 21l-.4-.67c1.25-.04 2.68-.04 3.8-.65.49-.28.8-.52.98-.75.36-.48.05-.9-.43-1.1a5.08 5.08 0 0 0-1.98-.26c-.64.02-1.27.11-1.68.25-1.33.46-2.68.95-4.1.87-.77-.06-1.88-.34-2.3-1.07-.25-.45-.04-.87.3-1.22 1.28-1.28 3.19-1.4 4.88-1.4l.07.53c-.66 0-2.2-.03-3.08.46-.4.23-1.37.77-1.07 1.39.27.54 1.14.7 1.68.7a8.13 8.13 0 0 0 2.47-.56c.74-.25 1.68-.46 2.64-.54 1.05-.08 2.12 0 2.93.36.68.3 1.25.98.8 1.73-1 1.57-3.9 1.9-5.51 1.93Z" fill="#A9E3B0"/><path d="M12 34.34V22.56c0-1.43 1.5-2.38 2.82-1.78l8.69 3.98A5.96 5.96 0 0 1 27 30.17v11.84c0 1.44-1.51 2.39-2.83 1.78l-8.7-4.06a5.96 5.96 0 0 1-3.47-5.4Z" fill="#2A313E"/><path d="M22.42 38.66c-.4.25-.8.34-1.38.34-1.73 0-3.58-1.56-4.48-3.74a9.13 9.13 0 0 1-.62-2.75l-.94-.4.48-.95.42.18c.01-.48.05-.97.1-1.45l-1-.43.48-.94.69.3.02-.14c.33-1.66 1.05-2.68 2.6-2.68 1.23 0 2.56.9 3.59 2.26-.1.35-.26.83-.55 1.3-.62-1.3-1.56-2.2-2.64-2.2-1.16 0-1.73.71-2.01 1.89l4.13 1.77-.48.95-3.84-1.65c-.06.47-.1.96-.1 1.45l3.55 1.53-.48.94-2.99-1.29c.08.6.22 1.2.45 1.74.7 1.73 2.1 2.99 3.47 2.99.41 0 .73-.08.97-.22.15.25.35.66.56 1.2Z" fill="#A9E3B0"/><path d="M44 34.36V22.6c0-1.44-1.5-2.39-2.82-1.79l-8.69 3.99a5.96 5.96 0 0 0-3.49 5.4v11.84c0 1.44 1.51 2.4 2.83 1.78l8.7-4.05a5.96 5.96 0 0 0 3.47-5.4Z" fill="#2A313E"/><path d="m37 32.84 2.58-7.18-1.14.39-2.03 5.77-2.22-3.8-1.1.64L36 33.47v.5l-2 .99v1l2-1v1.28l-2 1v1l2-1V39l1-.54v-1.71l2-1v-1l-2 .99v-1.27l2-1v-1l-2 1v-.63Z" fill="#A9E3B0"/></svg>