<svg width="112" height="112" viewBox="0 0 56 56" xmlns="http://www.w3.org/2000/svg"><rect fill="#01E882" width="56" height="56" rx="28"/><path d="M37 18v-3H17.2c-2.87 0-5.2 2.46-5.2 5.5a5.37 5.37 0 0 0 5 5.5v15h3V26h5v-3h-5v-5h17Zm0 0h3v16.97c0 1.74 1.7 3.03 3.5 3.03h.5v3h-.88A6.01 6.01 0 0 1 37 35.1V18Zm-20 0v5a2.42 2.42 0 0 1-2.13-2.47c0-1.29.94-2.4 2.13-2.52Zm6 10v6.75A6.13 6.13 0 0 0 29 41c3.31 0 6-2.8 6-6.25V28h-3v6.95c0 1.8-1.33 3.25-3.05 3.25-1.73 0-2.95-1.45-2.95-3.25V28h-3Z" fill="url(#a)"/><defs><linearGradient id="a" x1="28" y1="15" x2="28" y2="41" gradientUnits="userSpaceOnUse"><stop stop-color="#FF8B9B"/><stop offset=".44" stop-color="#FF26C0"/><stop offset=".66" stop-color="#7655C6"/><stop offset="1" stop-color="#00C7B2"/></linearGradient></defs></svg>