<!-- by TradingView --><svg width="56" height="56" viewBox="0 0 56 56" xmlns="http://www.w3.org/2000/svg"><path fill="url(#a)" d="M0 0h56v56H0z"/><path d="M47.91 26c.02 0 .05.02.06.04a.1.1 0 0 1 .03.06v3.78c0 .03-.01.06-.03.08a.18.18 0 0 1-.1.04h-4.4c-.06 0-.16.21-.15.34a16.1 16.1 0 0 1-4.83 9.43 15.15 15.15 0 0 1-22.56-1.76 15.23 15.23 0 0 1-2.42-4.46l.02-.02H17.21a.25.25 0 0 1 .22.13 12.3 12.3 0 0 0 6.3 5.85c2.27.95 4.66 1.1 7.17.45l.17-.05c1.73-.5 3.27-1.33 4.61-2.5a12.6 12.6 0 0 0 4.23-8.69l-.1-2.6a.12.12 0 0 1 .02-.08.1.1 0 0 1 .04-.02l.04-.02h8Z" fill="url(#b)"/><path d="M26.58 18.94a8.64 8.64 0 0 1 7.33 2.2 9.45 9.45 0 0 1 1.95 11.18 9.12 9.12 0 0 1-2.42 2.96 8.74 8.74 0 0 1-8.8 1.23 8.9 8.9 0 0 1-3.35-2.48 9.48 9.48 0 0 1-1.6-9.29 9.16 9.16 0 0 1 2.95-4.06 8.75 8.75 0 0 1 3.94-1.74Zm3.37 3.95a5.23 5.23 0 0 0-4.27.16 5.6 5.6 0 0 0-.9 9.33c1.77 1.4 3.71 1.54 5.81.44l.1-.06c1-.62 1.73-1.49 2.22-2.6l.05-.15c.5-1.5.48-2.88-.05-4.13a5.4 5.4 0 0 0-2.96-3Z" fill="url(#c)"/><path d="M27.24 15.71a11.84 11.84 0 0 0-6.83 2.82 12.56 12.56 0 0 0-4.16 7.34 16.79 16.79 0 0 0-.05 4.06.1.1 0 0 1-.05.06.1.1 0 0 1-.04.01h-8a.1.1 0 0 1-.08-.03.1.1 0 0 1-.03-.08v-3.78a.11.11 0 0 1 .03-.08.1.1 0 0 1 .07-.03h4.39c.04 0 .09-.02.12-.04a.2.2 0 0 0 .07-.12l.4-2.08c.8-2.92 2.26-5.42 4.41-7.5l.17-.16a15.46 15.46 0 0 1 6.07-3.47l3.51 3.08Z" fill="url(#d)"/><path d="M23.73 12.63a14.86 14.86 0 0 1 10.78.85c3.7 1.78 6.36 4.75 8.02 8.92a.1.1 0 0 1-.01.1.1.1 0 0 1-.08.04h-3.66a.19.19 0 0 1-.1-.03.2.2 0 0 1-.07-.08 11.9 11.9 0 0 0-11.37-6.72l-3.51-3.08Z" fill="url(#e)"/><defs><linearGradient id="a" x1="10.42" y1="9.71" x2="68.15" y2="76.02" gradientUnits="userSpaceOnUse"><stop stop-color="#1A1E21"/><stop offset="1" stop-color="#06060A"/></linearGradient><linearGradient id="b" x1="36.32" y1="15.53" x2="16.7" y2="39.83" gradientUnits="userSpaceOnUse"><stop stop-color="#58DD76"/><stop offset=".43" stop-color="#4ABDD8"/><stop offset=".9" stop-color="#CB3AEF"/></linearGradient><linearGradient id="c" x1="36.32" y1="15.53" x2="16.7" y2="39.83" gradientUnits="userSpaceOnUse"><stop stop-color="#58DD76"/><stop offset=".43" stop-color="#4ABDD8"/><stop offset=".9" stop-color="#CB3AEF"/></linearGradient><linearGradient id="d" x1="36.32" y1="15.53" x2="16.7" y2="39.83" gradientUnits="userSpaceOnUse"><stop stop-color="#58DD76"/><stop offset=".43" stop-color="#4ABDD8"/><stop offset=".9" stop-color="#CB3AEF"/></linearGradient><linearGradient id="e" x1="36.32" y1="15.53" x2="16.7" y2="39.83" gradientUnits="userSpaceOnUse"><stop stop-color="#58DD76"/><stop offset=".43" stop-color="#4ABDD8"/></linearGradient></defs></svg>