<svg width="56" height="56" xmlns="http://www.w3.org/2000/svg"><path fill-rule="evenodd" d="M33.652 41.9c-1.743.71-3.65 1.1-5.648 1.1-6.243 0-11.595-3.813-13.854-9.238.085-3.586 3.207-9.25 9.666-11.124A7.496 7.496 0 0021 28.5c0 .5.049.988.142 1.46.184 2.152.99 4.893 2.903 7.222 1.944 2.366 5 4.268 9.607 4.718zm1.84-.9c-5.374-.071-8.688-2.036-10.674-4.453a11.72 11.72 0 01-1.716-2.84 7.503 7.503 0 0012.47-2.702c1.072.01 2.556.178 3.752.755.611.295 1.126.687 1.48 1.2.336.484.547 1.104.535 1.914a15.069 15.069 0 01-5.846 6.125zm6.575-7.77a14.97 14.97 0 00.937-5.23c0-1.799-1.786-3.003-3.585-3.003h-4.92L34.5 25h-5.242c-1.243 0-2.064.56-2.064 1.804 0 2.07 1.493 3.196 3.564 3.196h5.091l-.002.01c1.121.035 2.63.231 3.91.849.721.348 1.39.84 1.87 1.531.176.256.325.536.439.84zM27.871 21.02a7.57 7.57 0 01.328-.02h6.805a8 8 0 008-8h-15c-8.285 0-15 6.716-15 15 0 1.265.156 2.494.451 3.668 1.202-4.647 5.946-10.422 14.416-10.648zM31 26.5a.5.5 0 011 0v.5h.5a.5.5 0 010 1H32v.5a.5.5 0 01-1 0V28h-.5a.5.5 0 010-1h.5v-.5zm8 0a.5.5 0 11-1 0 .5.5 0 011 0zm-1 1a.5.5 0 11-1 0 .5.5 0 011 0zm1.5.5a.5.5 0 100-1 .5.5 0 000 1zm-.5.5a.5.5 0 11-1 0 .5.5 0 011 0z" fill="#fff"/><defs><linearGradient id="paint0_linear" x1="28" y1="0" x2="28" y2="56" gradientUnits="userSpaceOnUse"><stop stop-color="#0B9946"/><stop offset="1" stop-color="#82C742"/></linearGradient></defs></svg>