<svg width="56" height="56" viewBox="0 0 56 56" xmlns="http://www.w3.org/2000/svg"><rect fill="#F0F3FA" width="56" height="56" rx="28"/><path d="M42.4 35a15.94 15.94 0 0 0 1.57-8H35c-1.33 0-4 .8-4 4s2.67 4 4 4h7.4Zm-5.07 6H35c-4.2 0-8.4-1.69-9.63-6.72-1.37.5-2.87.72-4.37.72h-7.4a16 16 0 0 0 23.73 6Zm5.06-20a16 16 0 0 0-23.72-6H21c4.2 0 8.4 1.69 9.63 6.72C32 21.22 33.5 21 35 21h7.4Zm-28.78 0a15.94 15.94 0 0 0-1.58 8H21c1.33 0 4-.8 4-4s-2.67-4-4-4h-7.4Z" fill="url(#ammway3yy)"/><defs><linearGradient id="ammway3yy" x1="19" y1="14" x2="37.5" y2="41.5" gradientUnits="userSpaceOnUse"><stop stop-color="#FF7500"/><stop offset="1" stop-color="#FD2700"/></linearGradient></defs></svg>