<svg width="56" height="56" viewBox="0 0 56 56" xmlns="http://www.w3.org/2000/svg"><path fill-rule="evenodd" d="M41.94 16.57a.22.22 0 0 0-.17-.2L28.05 13h-.1l-13.72 3.36a.22.22 0 0 0-.17.2c-.02.23-1.68 23.1 13.87 28.42.04.01.1.01.14 0 15.55-5.33 13.89-28.2 13.87-28.42Zm-2.53 2.41a.18.18 0 0 0-.14-.16l-11.23-2.74h-.08l-11.23 2.74a.18.18 0 0 0-.14.16c-.01.2-1.37 18.86 11.35 23.2.04.02.08.02.12 0 12.72-4.34 11.36-23 11.35-23.2ZM20.13 21.9 27.97 20h.06l7.84 1.9a.13.13 0 0 1 .1.1c0 .14.96 13-7.93 16h-.08c-8.89-3-7.94-15.86-7.93-16a.13.13 0 0 1 .1-.1Z" fill="#fff"/><defs><linearGradient id="aonwx1ifl" x1="28" y1="0" x2="28" y2="56" gradientUnits="userSpaceOnUse"><stop stop-color="#2CBBF7"/><stop offset="1" stop-color="#3D3DB7"/></linearGradient></defs></svg>