<!-- by TradingView --><svg width="56" height="56" viewBox="0 0 56 56" xmlns="http://www.w3.org/2000/svg"><path fill="#F0F3FA" d="M0 0h56v56H0z"/><path d="M17 35V21h9.34c.36 0 .66-.33.66-.7v-3.64c0-.37-.3-.66-.66-.66H12.66c-.36 0-.66.3-.66.66v22.68c0 .37.3.66.66.66h13.68c.36 0 .66-.3.66-.66V26.6c0-.37-.3-.6-.66-.6H19.6c-.37 0-.6.23-.6.6v3.64c0 .37.23.76.6.76H22v4h-5Z" fill="#9826FF"/><path d="M29 16.64c0-.35.31-.64.7-.64h5.6c.39 0 .7.29.7.64v.32c0 .36-.31.64-.7.64h-3.68v1.6h3.68c.39 0 .7.3.7.64v.32c0 .36-.31.64-.7.64h-3.68v1.6h3.68c.39 0 .7.29.7.64v.32c0 .35-.31.64-.7.64h-5.6c-.39 0-.7-.29-.7-.64v-6.72Zm8 0c0-.35.31-.64.7-.64h5.6c.39 0 .7.29.7.64v.32c0 .36-.31.64-.7.64h-3.67v1.6h3.67c.39 0 .7.3.7.64v.32c0 .36-.31.64-.7.64h-3.67v1.6h3.66c.4 0 .7.29.7.64v.32c0 .35-.3.64-.7.64h-5.6c-.38 0-.69-.29-.69-.64v-6.72Z" fill="url(#asklcngny)"/><path d="M31.5 36.28v.86c0 .22.17.4.4.4h1.7a.4.4 0 0 0 .4-.4v-.86a.4.4 0 0 0-.4-.4h-1.7a.4.4 0 0 0-.4.4Zm0-7.41v.86c0 .21.17.4.4.4h.86a.4.4 0 0 0 .4-.4v-.86a.4.4 0 0 0-.4-.4h-.86a.4.4 0 0 0-.4.4ZM29 26.66c0-.37.3-.66.67-.66v.01H35c.37 0 .67.3.67.66v1.81h.06c.15 0 .3-.06.42-.15a1.2 1.2 0 0 1 .76-.27c.83 0 1.47.8 1.19 1.65a1.24 1.24 0 0 1-1.6.75c-.13-.04-.24-.1-.35-.18a.67.67 0 0 0-.42-.16h-.06v1.81c0 .37-.3.66-.67.66h-3.17a.33.33 0 0 0-.33.33v.17c0 .18.15.33.33.33h4c.37 0 .67.29.67.65v1.23c-.27-.08-.57-.09-.88.02-.52.16-.91.6-1 1.13a1.48 1.48 0 0 0 1.88 1.66v1.23c0 .37-.3.66-.67.66h-6.16a.66.66 0 0 1-.67-.66v-5.6c0-.18.15-.32.33-.32h.17c.19 0 .33-.15.33-.33v-.17a.33.33 0 0 0-.33-.33h-.17a.33.33 0 0 1-.33-.33v-5.6Zm10 3.07v-.86c0-.22.18-.4.4-.4h1.7c.23 0 .4.17.4.4v.86a.4.4 0 0 1-.4.4h-1.7a.4.4 0 0 1-.4-.4ZM37.17 26c-.37 0-.67.3-.67.66v1.23a1.49 1.49 0 0 1 1.88 1.15 1.48 1.48 0 0 1-1.88 1.66v1.23c0 .36.3.65.67.65h2.67v.07c0 .15-.06.3-.16.42-.07.1-.14.21-.18.34-.1.28-.12.59.06.94.22.41.65.7 1.12.7.69 0 1.24-.55 1.24-1.23 0-.15-.03-.28-.08-.41a1.1 1.1 0 0 0-.19-.34.7.7 0 0 1-.15-.42v-.07h1.83c.37 0 .66-.29.66-.65v-5.27c0-.37-.3-.66-.66-.66h-6.16Zm2.67 11.14v-.86c0-.22.18-.4.4-.4h.87c.22 0 .4.18.4.4v.86a.4.4 0 0 1-.4.4h-.87a.4.4 0 0 1-.4-.4Zm2.26-3.72c.04.13.06.26.06.4a1.48 1.48 0 1 1-2.9-.4H38c-.37 0-.67.29-.67.65v1.81h-.06a.67.67 0 0 1-.42-.15c-.1-.08-.22-.14-.35-.18-.28-.1-.6-.12-.95.05-.42.22-.72.65-.72 1.12a1.24 1.24 0 0 0 1.67 1.14c.13-.04.24-.1.35-.18.12-.1.27-.15.42-.15h.06v1.8c0 .37.3.66.67.66h5.33c.37 0 .67-.3.67-.65v-5.27c0-.37-.3-.66-.67-.66H42.1Z" fill="url(#bsklcngny)"/><defs><linearGradient id="asklcngny" x1="36.5" y1="16" x2="36.5" y2="24" gradientUnits="userSpaceOnUse"><stop stop-color="#8E34E3"/><stop offset="1" stop-color="#7865E2"/></linearGradient><linearGradient id="bsklcngny" x1="36.5" y1="26" x2="36.5" y2="40" gradientUnits="userSpaceOnUse"><stop stop-color="#6B6BF3"/><stop offset="1" stop-color="#31C4FA"/></linearGradient></defs></svg>