<svg width="112" height="112" viewBox="0 0 56 56" xmlns="http://www.w3.org/2000/svg"><path d="M27 9h-2v4.3a15 15 0 0 0 0 29.4V47h2v-4.03a15.18 15.18 0 0 0 2 0V47h2v-4.3A15 15 0 0 0 43 27.45c-.12-.25-.32-.45-.62-.45H32.9a5 5 0 1 0 0 2h8.06a13 13 0 1 1-.94-5.95c.66-.17 1.45-.68 1.36-1.84A15.02 15.02 0 0 0 31 13.3V9h-2v4.03a15.2 15.2 0 0 0-2 0V9Zm4.65 19a3.65 3.65 0 1 1-7.3 0 3.65 3.65 0 0 1 7.3 0Z" fill="#00146A"/><path d="M36.93 32.7A10.06 10.06 0 0 1 18 28a10.06 10.06 0 0 1 19-4.56h-1.08c-1.84 0-3.55-.93-5.25-1.64A6.77 6.77 0 0 0 21.3 28a6.74 6.74 0 0 0 9.3 6.24c1.66-.67 3.3-1.54 5.09-1.54h1.25Z" fill="#F60"/></svg>