<svg width="112" height="112" viewBox="0 0 56 56" xmlns="http://www.w3.org/2000/svg"><path d="m32.13 12.46-.01-1.28c0-.05.02-.1.06-.14.07-.08.1-.16.06-.25a.16.16 0 0 0-.05-.08.17.17 0 0 0-.19-.02.17.17 0 0 0-.07.07c-.22.38-.4.78-.69 1.14-.08.09-.15.21-.22.36-.07.16-.25.39-.53.67a1.4 1.4 0 0 1 0-.55c.02-.06 0-.1-.06-.13a.34.34 0 0 0-.22-.03l.08-.33c.1.05.19.07.28.06l.04.29.02.05a.1.1 0 0 0 .1.02c.03-.01.04-.03.05-.04l1.09-1.83c.15.12.31.14.5.06a.18.18 0 0 0 .08-.06.17.17 0 0 0-.07-.26l-.29-.13c.05-.06.14-.07.25-.03.05.02.1.05.14.1a.33.33 0 0 1 .08.3.33.33 0 0 1-.08.14l-.12.14c-.04.05-.05.1-.01.15.07.12.05.22-.06.31a.14.14 0 0 0-.05.13c.05.4 0 .8-.11 1.17Z" fill="#534925"/><path d="M28.3 10.12a.08.08 0 0 1 .03-.06.08.08 0 0 1 .06-.02h.02a.94.94 0 0 1 .32.06.3.3 0 0 1 .1.06l.03.08v.03c0 .06-.05.1-.13.14a.8.8 0 0 1-.32.06h-.02c-.02 0-.04 0-.06-.02a.08.08 0 0 1-.02-.06v-.27Z" fill="#F9E9A7"/><path d="m32.09 10.05.29.13c.03.01.05.04.07.07a.17.17 0 0 1 0 .19.18.18 0 0 1-.08.06.47.47 0 0 1-.5-.06c-.03-.19.05-.32.22-.39ZM30.49 12.93c.28-.28.46-.5.53-.67.07-.15.14-.27.22-.37.3-.35.47-.75.69-1.13a.17.17 0 0 1 .07-.07.18.18 0 0 1 .19.02l.05.08c.03.09.01.17-.07.25a.19.19 0 0 0-.05.14v1.28c-.03.3.03.64.17 1.02.02.04.05.06.1.05l.06-.02h.2c.12.03.22.01.29-.03l1.87-1.2c.1-.06.19-.03.26.08.02.05.02.09-.02.13-.4.45-1.06 1.3-.75 1.88.02.04.03.04.05 0v-.06c-.03-.05-.03-.09.01-.13.22-.22.45-.35.69-.4.3-.07.32-.01.1.18-.12.09-.2.2-.24.35a.16.16 0 0 1-.07.1l-.07.04c-.05.03-.05.05.01.05.56 0 1.23-.32 1.82-.49l.19-.37c.22.01.35.1.38.26l-.01.07-.05.06a.44.44 0 0 1-.28.07c-.06 0-.12 0-.17.04-.36.2-.7.43-1.01.7l-.58.38a1.1 1.1 0 0 0-.46.54l-.05.32c-.05.15-.15.2-.28.13-.34-.19-.67-.37-.98-.56.54-.47 1-1.26.27-1.84a.21.21 0 0 0-.16-.04l-1.02.14a.24.24 0 0 0-.17.1l-.29.43c-.04.06-.03.11.02.16.22.21.41.27.24.62a11.12 11.12 0 0 0-2.95-.72 63.9 63.9 0 0 1 2.4.6c.07.01.08.06.03.14l-.43.3c-.76-.51-1.58-.79-2.44-.3a.32.32 0 0 1-.14.03l-1.83.1.24-.69a.38.38 0 0 1 .13-.18.4.4 0 0 1 .22-.08 10.67 10.67 0 0 1 1.65.04c.04-.11.04-.11 0 0a4 4 0 0 0-1.9-.12c-.06 0-.08-.02-.07-.08l.18-.73c-.03-.13-.12-.3-.25-.52a.8.8 0 0 1-.15-.5c0-.05-.01-.1-.04-.15l-.55-.88a.24.24 0 0 0-.1-.1l-.22-.09a.19.19 0 0 1-.08-.05.18.18 0 0 1 .03-.25c.12-.1.26-.12.4-.06a.12.12 0 0 1 .07.07.1.1 0 0 1-.01.1.21.21 0 0 0-.03.08c0 .05 0 .09.04.13l1.19 1.32c.16.18.49.47.75.35.13-.07.2-.19.18-.36l.12-1.9c0-.05.03-.07.08-.07a.1.1 0 0 1 .07.02l.1.07c.28.63.58 1.24.9 1.84.11.23.4.64.71.35Zm.35.56.01.1c0 .04.03.07.06.08l.05.01c-.07.02-.13 0-.17-.03-.03-.02-.05-.02-.06.02a.6.6 0 0 0 .07.58c.05.07.13.11.21.13.09.02.17 0 .25-.05.39-.24.53-.58.44-1.01a.18.18 0 0 0-.1-.13c-.33-.18-.59-.08-.76.3Z" fill="#FECE17"/><path d="m27.18 11.43-.01-.01a.04.04 0 0 1 0-.04l.01-.02c.18-.1.36-.12.56-.06a.12.12 0 0 1 .07.07.11.11 0 0 1 0 .1l-.08.1a.18.18 0 0 1-.24.05l-.3-.19ZM30.57 11.95c-.1 0-.19 0-.28-.06a.36.36 0 0 1-.14-.09c-.05-.05-.04-.1.03-.13.1-.06.21-.07.32-.04.08.02.13.06.15.12.02.07 0 .14-.08.2Z" fill="#F9E9A7"/><path d="M35.27 13.49c.1.11.23.15.39.12a.91.91 0 0 1-.52.52c-.04.02-.05.05-.03.1l.04.03h.05c.45-.1.82-.21 1.11-.32.08-.04.18-.01.29.07-.59.17-1.26.5-1.82.49-.06 0-.06-.02-.01-.05l.07-.05a.16.16 0 0 0 .07-.1.68.68 0 0 1 .23-.34c.23-.2.2-.25-.1-.19a1.4 1.4 0 0 0-.68.41c-.04.04-.04.09-.02.13v.06c0 .04-.02.04-.04 0-.31-.58.36-1.43.75-1.88.04-.04.04-.08.02-.13-.07-.11-.16-.14-.26-.07l-1.87 1.2c-.07.03-.17.05-.29.03l.26-.69c.02-.04 0-.07-.05-.08-.09-.03-.18 0-.27.06-.04-.14.03-.23.22-.27.1.03.19.03.26 0a.14.14 0 0 0 .09-.07.13.13 0 0 0-.01-.11.15.15 0 0 0-.12-.08.33.33 0 0 1 .14-.06c.06-.01.1.01.13.07.08.17.03.3-.17.4a.24.24 0 0 0-.12.14.23.23 0 0 0 .02.18l.03.05c0 .02.02.03.03.04a.13.13 0 0 0 .1.03l.06-.02 1.64-1.1a.16.16 0 0 0 .06-.06c.22-.45.78-.25.86.15 0 .07-.02.12-.07.16l-.61.4a.35.35 0 0 0-.12.13c-.07.15-.19.34-.34.57-.07.1-.08.2-.04.3.02.06.06.08.13.05l.51-.22Zm.04-1.2a.56.56 0 0 0 .34-.18c.04-.05.04-.1 0-.13a.6.6 0 0 0-.35-.19.14.14 0 0 0-.15.07c-.08.12-.08.24 0 .37.04.05.1.08.16.06Z" fill="#534925"/><path d="M35.31 12.3c-.06 0-.12-.02-.15-.07-.09-.13-.1-.25-.01-.37a.14.14 0 0 1 .15-.07.6.6 0 0 1 .35.19c.04.04.04.08 0 .13-.09.1-.2.16-.34.18ZM28.34 12.73c.03.04.03.08 0 .12a.14.14 0 0 1-.15.04c-.28-.06-.42-.22-.42-.48l-.02-.32c-.01-.29.06-.31.23-.07.13.2.25.43.36.71ZM30.49 12.93c-.14.03-.25.01-.33-.03-.06-.03-.08-.08-.07-.14l.11-.54c.1-.01.17 0 .23.03.06.02.08.07.07.13a1.4 1.4 0 0 0-.01.55Z" fill="#FECE17"/><path d="M33.03 12.28c.06.01.1.04.12.08a.13.13 0 0 1-.03.16.14.14 0 0 1-.05.03.47.47 0 0 1-.26-.01c-.07-.03-.12-.07-.14-.11-.03-.06-.02-.1.05-.13a.65.65 0 0 1 .31-.02Z" fill="#F9E9A7"/><path d="M27.77 12.4c0 .27.14.43.42.5.05 0 .1-.01.14-.05.04-.04.04-.08.01-.12a.56.56 0 0 1 .18-.11c0 .17-.06.3-.19.36-.26.12-.6-.17-.75-.35.12 0 .18-.07.19-.22ZM32.65 13.52l-.2-.01c-.07-.08-.1-.14-.07-.2l.21-.5c.1-.07.18-.09.27-.07.05.02.07.05.05.1l-.26.68ZM27.03 13.01c.14.21.22.39.25.52a.76.76 0 0 1-.54-.1c0-.17.04-.26.14-.27.12 0 .17-.05.15-.15Z" fill="#B39517"/><path d="M30.96 13.68c.17.08.3.07.38 0a.14.14 0 0 0 0-.2.16.16 0 0 0-.06-.06.5.5 0 0 0-.44.07c.17-.38.43-.48.76-.3.05.03.09.07.1.13.1.43-.05.77-.44 1.01a.35.35 0 0 1-.46-.08.6.6 0 0 1-.07-.58c.01-.04.03-.04.06-.02.04.04.1.05.17.03Z" fill="#A90303"/><path d="M35.66 13.61a.39.39 0 0 1-.39-.12l.01-.07c0-.06.04-.1.11-.1.43-.05.51.05.27.3ZM30.96 13.68l-.05-.01a.08.08 0 0 1-.06-.07l-.01-.1a.5.5 0 0 1 .44-.08l.07.04c.01.02.03.04.03.07a.14.14 0 0 1-.04.14c-.08.08-.2.09-.38.01Z" fill="#F9E9A7"/><path d="M26.74 13.44c.19.1.37.13.54.1l-.18.72c-.01.06.02.09.08.08a4 4 0 0 1 1.89.12c.04-.11.04-.11 0 0-.53-.05-1.08-.07-1.65-.04a.4.4 0 0 0-.22.08c-.06.05-.1.1-.13.18l-.24.69c.05-.04.01-.04-.1 0l.19-1.2c0-.06 0-.12-.04-.17-.14-.2-.2-.39-.14-.56ZM35.13 15.74c.07-.18-.1-.17-.52.02.08-.22.24-.4.46-.54l.58-.39c.32-.26.65-.49 1.01-.7.05-.02.1-.03.16-.03.11 0 .2-.02.3-.07a.13.13 0 0 0 .04-.06c0-.02.01-.05 0-.07-.02-.16-.15-.25-.37-.26.32-.11.5-.03.52.25 0 .06-.02.12-.05.17a.27.27 0 0 1-.16.1c-.38.1-1.6.73-1.66 1.24a.3.3 0 0 1-.06.15.48.48 0 0 1-.25.19Z" fill="#534925"/><path d="M33.3 15.65c-.06-.02-.1-.03-.12-.02l-1-.41c.18-.35 0-.4-.23-.62-.05-.05-.06-.1-.02-.16l.3-.42c.03-.07.09-.1.16-.11l1.02-.14a.21.21 0 0 1 .16.04c.72.58.27 1.37-.27 1.84Z" fill="#F9E9A7"/><path d="m32.19 15.22.99.4c-.07.02-.1.03-.1.06-.49-.26-.96-.4-1.41-.44.05-.08.04-.13-.03-.15a63.9 63.9 0 0 0-2.4-.6l.02-.01c1.01.11 1.99.36 2.93.74Z" fill="#B39517"/><path d="m31.24 15.54 2 .99 1 .8.96 1.18c.32.38.56.76.74 1.14a10 10 0 0 1-.12 9c-.08.16-.18.3-.3.42-.04.04-.03.07.02.1.04 0 .07.04.08.08a.05.05 0 0 1-.02.06.15.15 0 0 1-.06.02l-.1.01c-.05.01-.1.04-.14.08l-.3.36-.73.95a9.93 9.93 0 0 1-2.86 2.16c-.05.03-.06.06-.02.1l.3.34a.2.2 0 0 1 .05.11c0 .1.06.15.15.17h.02v.06l-.04.04a.12.12 0 0 1-.14.02 3.29 3.29 0 0 0-1.03-.3c-.25-.04-.6-.02-1.05.07-.9.17-1.86.26-2.9.26l-.12.04a.9.9 0 0 0-.28-.04c-.08.01-.1 0-.06-.04l-.96-.07a11.07 11.07 0 0 1-4.23-1.83.45.45 0 0 0-.45-.04c-.16.07-.32.1-.5.1l-.03-.01a.06.06 0 0 1-.02-.07c0-.02.01-.03.03-.04.12-.07.22-.16.3-.27a.1.1 0 0 0 0-.13 7.94 7.94 0 0 1-2.9-3.4 7.13 7.13 0 0 1-.4-3.63c.03-.35.22-.98.56-1.88.17-.47.73-1.03.8-1.44.12-.78.6-1.67 1.48-1.84a.3.3 0 0 0 .15-.08c.37-.36.73-.72 1.18-1 .22-.13.34-.25.39-.35.38-1 .8-2.02 1.9-2.36.6-.19 1.1-.08 1.51.33.04.05.1.06.15.04l1.48-.38c.11-.04.15-.04.1 0l1.84-.1c.04 0 .1-.01.14-.04.85-.48 1.67-.2 2.43.3Zm-2.67.07c-.1-.02-.15-.05-.15-.1a.4.4 0 0 0-.26-.04c-1.06.1-2 .28-2.83.53a.45.45 0 0 0-.17.1l-.02.02a.06.06 0 0 0 .03.07h.03c.09 0 .13.05.12.12 0 .05-.03.07-.08.05a.22.22 0 0 1-.14-.13 2.17 2.17 0 0 0-.51-.69.27.27 0 0 0-.15-.07c-.7-.1-1.25.14-1.63.7a9.1 9.1 0 0 0-.9 1.76c-.2.2-.35.33-.48.36l-1.09.9c-.04.05-.05.1-.02.15.2.3.24.6.1.87-.13.25-.17.24-.12-.04.02-.18.01-.36-.04-.54a.33.33 0 0 0-.15-.19.35.35 0 0 0-.24-.04c-1.07.22-1.28 2.14-1.3 2.93 0 .06-.03.1-.09.12-.2.06-.3.2-.3.4 0 .04 0 .05-.03.04h-.05c-.02 0-.02-.02-.02-.03l.17-.8c0-.04-.01-.06-.05-.07l-.1-.02h-.03a13.93 13.93 0 0 0-.68 2.61c-.2 1.53.19 3.6 1.32 4.87 1.93 2.16 4.7 3.79 7.69 3.98 1.59.11 3.46-.05 4.89-.82a9.76 9.76 0 0 0 5.37-7.72 5 5 0 0 0-.11-1.68c.02-.2 0-.36-.08-.47l-.02-.02h-.03l-.03.01-.01.03c-.02.13 0 .28.04.44l-.57 1.65a.1.1 0 0 1-.04.05.1.1 0 0 1-.06.02h-.05c-.03 0-.04-.02-.04-.05.18-.6.42-1.23.4-1.87a.1.1 0 0 0-.03-.08.08.08 0 0 0-.1 0c-.08.04-.09.01-.03-.09.49-.92.26-2.97-.49-3.84a.26.26 0 0 0-.19-.1.27.27 0 0 0-.2.08l-.62.6h-.03l-.04-.02a.08.08 0 0 1-.04-.04v-.06c.16-.3.37-.53.65-.72.05-.03.06-.08.02-.13a7.3 7.3 0 0 0-2.86-2.4c-.21-.1-.24-.06-.08.11.64.7 1.1 1.9 1.45 2.77.01.03 0 .04-.03.04H33.2a2.74 2.74 0 0 0-2.67-3.75c-.73-.4-1.38-.31-1.96.24Z" fill="#221B10"/><path d="M36.42 23.2h.13a5 5 0 0 1 .11 1.69 9.76 9.76 0 0 1-5.37 7.72c-1.43.77-3.3.93-4.9.82a11.64 11.64 0 0 1-7.68-3.98c-1.13-1.27-1.51-3.34-1.32-4.86a13.93 13.93 0 0 1 .68-2.61h.03l.1.01c.04.01.05.03.05.06l-.17.81c0 .01 0 .02.02.02l.05.01c.03.01.04 0 .04-.03 0-.21.1-.35.3-.41.05-.02.08-.06.08-.12.02-.8.23-2.71 1.3-2.93.08-.01.17 0 .24.04.08.05.13.11.15.2.05.17.06.35.04.53-.05.28 0 .3.12.04.14-.28.1-.57-.1-.87-.03-.05-.02-.1.02-.14l1.09-.9c.2.37.37.25.47-.37.29-.72.6-1.3.9-1.77.39-.55.93-.78 1.64-.7.05.02.1.04.15.08.22.2.4.44.51.7a.22.22 0 0 0 .14.12c.05.02.07 0 .08-.05 0-.07-.03-.11-.12-.11l-.03-.01a.06.06 0 0 1-.03-.07l.02-.03.17-.09a14.4 14.4 0 0 1 2.83-.53c.1 0 .19 0 .26.05-.21.14-.34.3-.39.49-.01.06 0 .07.06.04.2-.12.36-.26.48-.44.58-.55 1.23-.63 1.96-.25.43.23.8.46 1.08.87a17.06 17.06 0 0 1 1.59 2.88l.03.01h.2c.04 0 .05-.01.04-.04-.34-.86-.8-2.08-1.45-2.77-.16-.17-.13-.2.08-.1a7.3 7.3 0 0 1 2.86 2.4c.04.04.03.09-.02.12-.28.19-.5.43-.64.72v.06c0 .02.01.03.03.04l.04.03h.03l.63-.61a.26.26 0 0 1 .2-.07.27.27 0 0 1 .18.09c.75.87.98 2.92.49 3.84-.06.1-.05.13.03.09a.08.08 0 0 1 .1 0 .1.1 0 0 1 .04.08c.01.64-.23 1.26-.4 1.87-.01.03 0 .04.03.04h.05a.1.1 0 0 0 .06 0 .1.1 0 0 0 .04-.06l.57-1.65Zm-7.14-5.09a3 3 0 0 1 1.98-.09c.02 0 .03 0 .04-.02l.01-.04c.01-.02 0-.03-.02-.04a2.54 2.54 0 0 0-2.04 0 .1.1 0 0 0-.05.06v.06l.02.05a.04.04 0 0 0 .02.02.05.05 0 0 0 .04 0Zm-5.06.02a1.88 1.88 0 0 0-1.68.13.05.05 0 0 0-.03.04v.03l.03.04c.01.02.02.03.04.02a3.08 3.08 0 0 1 1.63-.2c.15.02.16 0 .01-.06Zm8.9 2.64c-.75-3.33-4.17-3.16-5.43-.32-.03.07 0 .1.07.1.27-.02.53-.23.74-.27a7.17 7.17 0 0 1 4.54.55c.06.03.09 0 .07-.06Zm-8.54-1.57c-.83-.93-2.42-.42-3.11.4-.38.43-.61.88-.7 1.34-.04.18.01.21.16.1a3.63 3.63 0 0 1 2.97-.63 37.1 37.1 0 0 1 1.28.36c.03 0 .05-.01.07-.03a.14.14 0 0 0 .05-.13c-.09-.5-.4-1.06-.72-1.4Zm7.65 4.9c.33-.05.64-.15.93-.31.05-.03.11-.04.17-.04.24.03.47.09.69.17.02.01.03 0 .04-.02v-.02l-.6-.26-.02-.02v-.03a.04.04 0 0 1 .02-.04 5.12 5.12 0 0 0 1.99-2.01c.41-.76-.06-1.38-.2-2.1-.01-.07-.05-.08-.11-.04l-.05.03a.15.15 0 0 0-.06.07.14.14 0 0 0 0 .08c.18.74.47 1.44 0 2.16-.6.97-1.99 2.1-3.2 2.28-1.22.17-2.51.57-3.6.66-2.3.18-4.8.09-7.18-.4-1.02-.21-1.48-.98-1.72-1.88-.18-.65.22-1.57.42-2.22 0-.03 0-.04-.03-.05l-.05-.02a.1.1 0 0 0-.07 0 .1.1 0 0 0-.05.06c-.44 1.46-.92 2.2.17 3.6.04.07.03.1-.05.11-.3.03-.58.1-.86.22v.04c0 .02.02.02.05.02.66-.2 1.3-.14 1.92.15.1.05.09.08 0 .11-.78.26-1.36.74-1.75 1.43-.14.25-.11.27.1.06.62-.63 1.46-1.43 2.3-1.39a.1.1 0 0 1 .05.01.1.1 0 0 1 .04.03.09.09 0 0 1 0 .09c-.15.4.31.67.64.75.01 0 .03 0 .04.02l.04.04a.1.1 0 0 1-.01.1l-.5.76a.04.04 0 0 0 .02.05.05.05 0 0 0 .06 0c.13-.13.2-.3.31-.42a7.44 7.44 0 0 1 1.6-1.09l.07.02a.1.1 0 0 1 .04.05.1.1 0 0 1 0 .05c-.03.25.03.46.18.64.04.05.04.1 0 .15-.44.39-.59.87-.46 1.44.02.1.04.1.07 0 .03-.16.04-.32.03-.49 0-.06.02-.12.06-.17l.5-.64c.05-.07.12-.1.21-.09l.3.05.05.01.02.04a.07.07 0 0 1-.02.08.67.67 0 0 0-.22.42.1.1 0 0 0 .01.05c0 .02.02.03.03.04.03.02.06.01.07-.02.25-.5.66-.75 1.23-.73a.1.1 0 0 1 .04.01.1.1 0 0 1 .04.04.09.09 0 0 1-.01.1 2.98 2.98 0 0 0-.58 2.45c0 .02.02.03.03.03.03 0 .04-.02.04-.04-.02-.88.38-2.28 1.36-2.67.08-.03.11 0 .1.08-.03.29-.03.57.01.86 0 .02.03.03.06.03.02 0 .03-.02.04-.04l.06-.59c0-.07.04-.13.1-.18.06-.04.08-.1.06-.16a.17.17 0 0 1 .03-.14l.44-.52a.26.26 0 0 1 .14-.1c.82-.2 2.04-.35 2.13.74 0 .03.02.04.05.04h.06l.02-.03-.03-.29c-.01-.06.02-.1.08-.13.25-.09.44.01.65-.03.4-.08.95-.42.93-.85a.08.08 0 0 1 .03-.07.09.09 0 0 1 .08 0c.38.13.71.32 1.01.58h.05l.03-.03v-.03a1.78 1.78 0 0 0-.73-.59c-.1-.05-.1-.08.02-.1Zm1.54-2.45c-.35-.28-.27-1.53-.2-1.99.01-.06-.02-.09-.09-.07l-.11.04c-.06.02-.1.06-.1.12 0 .64.09 1.25.28 1.82.01.04.04.07.06.1l.13.04c.1.02.1 0 .03-.06Zm.27-1.88c-.01.2.18.27.1.53a6.75 6.75 0 0 1-.31.87.05.05 0 0 0 .03.02l.09.02c.02 0 .04 0 .05-.02l.5-.96a.16.16 0 0 0-.02-.2l-.31-.3a.08.08 0 0 0-.12 0l-.01.04Zm-1.96 1.41c-.64-.34-2.33-.95-2.95-.53-.08.06-.07.08.03.08.32-.03.61-.08.93-.02a8.3 8.3 0 0 1 1.94.59c.03 0 .04 0 .05-.02l.02-.04c.01-.02 0-.04-.02-.06Zm-10.31.2c.92-.49 1.26-.47 2.3-.36.26.03.27 0 .02-.08a2.57 2.57 0 0 0-2.4.32c-.04.02-.04.04-.02.07l.02.04.04.02h.04Zm3.05-.02c-.87.54-1.81.72-2.83.54l-1.08-.2c-.07 0-.09.02-.05.08.08.12.19.2.32.25 1.22.34 2.63.22 3.67-.56.03-.02.03-.05.01-.07l-.02-.04h-.02Zm4.46.65c-.02.12.06.19.22.2h.5a6.4 6.4 0 0 0 1.96-.32c.09-.03.09-.05-.01-.06l-.18-.01c-.05 0-.07-.03-.06-.07l.02-.05c.04-.08.02-.11-.07-.08-1.16.4-2.3.37-3.43-.08-.04 0-.06 0-.06.04v.07l1.1.36Z" fill="#FECE17"/><path d="m33.08 15.68.34.18-.18.67-2-1 .43-.29c.45.04.92.18 1.4.44Z" fill="#F9E9A7"/><path d="M28.41 15.52c.01.04.06.07.15.1-.11.17-.27.31-.47.43-.05.03-.07.02-.06-.04a.87.87 0 0 1 .38-.5Z" fill="#534925"/><path d="M35.13 15.74c-.2.24-.4.35-.57.34l.05-.32c.41-.2.59-.2.52-.02Z" fill="#221B10"/><path d="M33.42 15.86c.4.14.73.36.96.67.04.05.05.1.04.15-.07.28-.28.28-.17.66l-1.01-.81.18-.67Z" fill="#FECE17"/><path d="M29.28 18.11a.05.05 0 0 1-.04 0h-.01l-.01-.02-.02-.05v-.06a.1.1 0 0 1 .05-.05c.68-.29 1.36-.3 2.04 0 .02 0 .03.01.02.03l-.01.04c-.01.02-.02.02-.04.02a3 3 0 0 0-1.98.1Z" fill="#534925"/><path d="M21.9 17.93c-.1.62-.26.74-.47.36.13-.03.29-.15.47-.36Z" fill="#B39517"/><path d="M24.22 18.13c.15.06.14.08-.01.05a3.08 3.08 0 0 0-1.63.2c-.02.02-.03.01-.04 0l-.02-.05v-.03c0-.02 0-.03.02-.04.53-.3 1.1-.35 1.68-.13ZM27.7 20.45c1.25-2.84 4.67-3 5.41.32.02.07 0 .09-.07.06a7.17 7.17 0 0 0-4.54-.55c-.21.04-.47.25-.74.27-.08 0-.1-.03-.07-.1Zm2.96-1.6.01-.27c0-.07-.03-.1-.1-.1-1.15.06-1.78.75-2.38 1.6-.05.06-.03.08.04.06 1.6-.4 3.03-.2 4.56.36.1.03.12 0 .07-.08l-.73-1.15a.2.2 0 0 0-.11-.08.21.21 0 0 0-.14 0c-.44.19-.83.13-1.15-.18a.2.2 0 0 1-.07-.17Zm.66-.07a.1.1 0 0 0 .04-.05.1.1 0 0 0 0-.06.1.1 0 0 0-.03-.06.11.11 0 0 0-.06-.02c-.12-.02-.22.02-.29.12a.08.08 0 0 0 0 .08c0 .01 0 .02.02.03a.1.1 0 0 0 .04.02c.1.02.2 0 .28-.06Z" fill="#221B10"/><path d="M30.72 19c.33.32.72.38 1.16.2a.2.2 0 0 1 .14 0 .2.2 0 0 1 .1.07l.74 1.15c.05.09.03.11-.07.08a7.39 7.39 0 0 0-4.56-.36c-.07.02-.09 0-.04-.06.6-.85 1.23-1.54 2.38-1.6.07 0 .1.03.1.1l-.01.26c0 .07.02.12.06.17Z" fill="#fff"/><path d="M31.32 18.78a.37.37 0 0 1-.28.06.1.1 0 0 1-.04-.02.09.09 0 0 1-.03-.03.08.08 0 0 1 .01-.08c.07-.1.16-.14.29-.12l.06.02a.1.1 0 0 1 .03.12.1.1 0 0 1-.04.05Z" fill="#fff"/><path d="M24.58 19.2c.31.35.64.91.72 1.41a.14.14 0 0 1-.05.13.15.15 0 0 1-.14.03l-1.2-.36a3.63 3.63 0 0 0-2.98.64c-.15.1-.2.07-.17-.1.1-.47.33-.92.7-1.36.7-.8 2.29-1.32 3.12-.39Zm-.07.43c-.4.07-1.14.03-1-.58a.16.16 0 0 0-.03-.14.17.17 0 0 0-.07-.05h-.08c-1.24.15-1.7.82-2.3 1.72-.14.2-.1.24.12.14.94-.44 1.77-.72 2.82-.46l.97.26c.07.03.1 0 .06-.07l-.36-.75a.12.12 0 0 0-.05-.05.13.13 0 0 0-.08-.02Zm-.63-.61c-.02 0-.03 0-.04.02a.07.07 0 0 0-.02.03v.05l.03.03c.07.03.14.04.21.01 0 0 .02 0 .02-.02a.05.05 0 0 0 0-.07.24.24 0 0 0-.2-.05Z" fill="#221B10"/><path d="M23.51 19.05c-.14.6.6.65 1 .58l.08.01.05.06.36.75c.04.07.01.1-.06.07-.33-.1-.65-.18-.97-.26-1.05-.26-1.88.02-2.82.46-.21.1-.26.05-.13-.14.6-.9 1.07-1.57 2.3-1.73a.18.18 0 0 1 .16.06c.01.02.03.04.03.07.01.02.01.05 0 .07Z" fill="#fff"/><path d="M23.88 19.02c.07-.01.14 0 .2.05a.05.05 0 0 1 .01.05.05.05 0 0 1-.03.04.24.24 0 0 1-.2-.01.07.07 0 0 1-.01-.1.07.07 0 0 1 .03-.03Z" fill="#F9E9A7"/><path d="M32.21 24.21c.3.13.55.33.74.6v.02l-.04.03h-.05a3.3 3.3 0 0 0-1.05-.6.08.08 0 0 0-.06.05v.04c.01.43-.54.77-.94.85-.2.04-.4-.06-.65.04-.06.02-.09.06-.08.12l.03.3-.02.01h-.06c-.03 0-.04 0-.05-.03-.09-1.1-1.31-.93-2.13-.73a.26.26 0 0 0-.14.09l-.44.52a.16.16 0 0 0-.03.14c.02.07 0 .12-.06.16-.06.05-.1.1-.1.18l-.06.6c0 .01-.02.03-.04.03-.03 0-.05 0-.06-.03a3.09 3.09 0 0 1 0-.86c0-.08-.03-.1-.1-.08-1 .39-1.4 1.79-1.37 2.67 0 .02 0 .04-.04.04l-.03-.03a2.98 2.98 0 0 1 .6-2.5l-.01-.05a.1.1 0 0 0-.04-.04.1.1 0 0 0-.04-.01c-.57-.02-.98.23-1.23.73-.01.03-.04.04-.07.02a.1.1 0 0 1-.03-.04.1.1 0 0 1 0-.05c.02-.18.1-.32.2-.42a.07.07 0 0 0 .03-.08.08.08 0 0 0-.02-.04.08.08 0 0 0-.04-.01l-.3-.05a.21.21 0 0 0-.22.09l-.5.64a.25.25 0 0 0-.06.17c.01.17 0 .33-.03.48-.03.11-.05.11-.07 0-.13-.56.02-1.04.45-1.43.05-.05.05-.1.01-.15a.79.79 0 0 1-.18-.64.1.1 0 0 0-.04-.1.12.12 0 0 0-.12 0c-.56.3-1.08.65-1.55 1.07-.12.11-.18.29-.31.42l-.03.01h-.03l-.02-.03v-.03l.5-.76a.1.1 0 0 0-.03-.14.12.12 0 0 0-.04-.02c-.33-.08-.79-.35-.63-.75a.09.09 0 0 0-.01-.09.1.1 0 0 0-.08-.04c-.85-.04-1.7.76-2.31 1.39-.21.21-.24.19-.1-.06.4-.7.97-1.17 1.75-1.43.09-.03.1-.06 0-.1a2.63 2.63 0 0 0-1.92-.16c-.03 0-.05 0-.06-.02l.01-.04c.27-.12.56-.2.86-.22.08 0 .1-.04.04-.1-1.08-1.42-.6-2.15-.16-3.61a.1.1 0 0 1 .05-.06.1.1 0 0 1 .07 0l.05.02c.03 0 .04.02.03.05-.2.65-.6 1.57-.42 2.22.24.9.7 1.67 1.72 1.88 2.39.49 4.89.58 7.17.4 1.1-.08 2.39-.5 3.6-.66 1.22-.17 2.6-1.31 3.22-2.28.46-.72.17-1.42-.01-2.16v-.08a.15.15 0 0 1 .06-.07l.05-.03c.06-.04.1-.03.11.05.14.7.61 1.33.2 2.09a5.12 5.12 0 0 1-2.01 2.03v.05l.02.02.6.26v.02c-.01.02-.02.03-.04.02a2.92 2.92 0 0 0-.69-.17c-.06 0-.12 0-.17.04-.29.16-.6.26-.93.32-.12.02-.13.05-.02.1Zm-1 .61a.1.1 0 0 0 .04-.03l.24-.43a.1.1 0 0 0-.01-.1.1.1 0 0 0-.1-.03l-1.7.4a.1.1 0 0 0-.05.04.1.1 0 0 0-.01.1.1.1 0 0 0 .04.04l.78.36a.1.1 0 0 0 .09 0l.68-.35Zm-8.05.02v-.05h-.02l-1.22-.19a.21.21 0 0 0-.17.06.2.2 0 0 0-.06.16l.01.07c.01.08.06.16.12.22.07.06.15.1.24.1.43.05.8-.08 1.1-.37Zm2.17.06-1.18-.06a.12.12 0 0 0-.08.02.1.1 0 0 0-.04.08v.1c-.01.15.04.3.14.42s.23.19.38.2h.3a.53.53 0 0 0 .4-.14.6.6 0 0 0 .18-.41v-.1a.1.1 0 0 0-.02-.08.11.11 0 0 0-.08-.03Zm.34.45c0 .06.01.12.05.16.36.42 1.32-.24 1.66-.54.08-.06.06-.1-.04-.1l-1.63.04c-.07 0-.1.03-.08.1l.04.25v.09Z" fill="#221B10"/><path d="M33.57 19.66c-.07.46-.15 1.7.2 1.99.07.06.06.08-.03.06a.3.3 0 0 1-.13-.05.18.18 0 0 1-.06-.1 5.47 5.47 0 0 1-.28-1.8c0-.07.03-.11.1-.13l.11-.04c.07-.02.1 0 .1.07ZM34.14 20.3c.08-.26-.12-.33-.1-.53l.01-.04.04-.02a.08.08 0 0 1 .07.02l.32.3c.02.03.04.07.04.1l-.01.1-.5.96c-.02.02-.04.03-.07.02l-.08-.02a.05.05 0 0 1-.04-.02.05.05 0 0 1 0-.04c.13-.28.23-.55.32-.83ZM32.08 21.18c.03.02.03.04.02.06l-.02.04c0 .02-.02.03-.05.02a8.3 8.3 0 0 0-1.95-.6c-.3-.05-.6 0-.93.03-.1 0-.1-.02-.02-.08.62-.42 2.3.19 2.95.53Z" fill="#534925"/><path d="M24.07 21.02c-1.04-.11-1.38-.13-2.3.37h-.04a.06.06 0 0 1-.04-.02l-.02-.04c-.02-.03-.02-.05.01-.07a2.57 2.57 0 0 1 2.41-.32c.25.08.24.1-.02.08ZM24.82 21.36h.01l.03.04c.02.02.01.05-.01.07-1.04.78-2.45.9-3.67.56a.57.57 0 0 1-.32-.25c-.04-.06-.03-.08.04-.07l1.09.19c1.02.18 1.96 0 2.83-.54ZM30 22.22a1.24 1.24 0 0 0-.73-.21l-1.1-.36-.01-.02v-.05c.01-.04.03-.05.06-.04 1.14.45 2.28.48 3.44.08.08-.03.1 0 .07.08a.16.16 0 0 0-.02.05c0 .04.01.07.06.07l.18.01c.1.01.1.03 0 .06a6.4 6.4 0 0 1-1.95.33Zm1.57-.31a4.52 4.52 0 0 1 .1-.05.04.04 0 0 0 0-.05l-.03-.01a.36.36 0 0 0-.3.05l-.02.03a.05.05 0 0 0 0 .05l.03.02a.2.2 0 0 0 .18-.02l.04-.02Z" fill="#221B10"/><path d="M31.53 21.93a.2.2 0 0 1-.18.02.06.06 0 0 1-.03-.02v-.02a.05.05 0 0 1 .02-.06c.09-.06.2-.08.3-.05l.02.01.01.03v.02l-.02.02a3.78 3.78 0 0 0-.12.05ZM29.27 22c.22-.01.46.06.73.22l-.5-.01c-.16-.01-.24-.08-.23-.2Z" fill="#B39517"/><path d="M36.54 23.2h-.12c-.05-.16-.06-.31-.04-.44v-.03a.05.05 0 0 1 .06-.01l.03.02c.07.11.1.27.07.47Z" fill="#534925"/><path d="m31.2 24.82-.67.35a.1.1 0 0 1-.1 0l-.77-.36a.1.1 0 0 1-.04-.04.1.1 0 0 1 .01-.1.1.1 0 0 1 .05-.03l1.7-.41a.1.1 0 0 1 .05 0 .1.1 0 0 1 .05.03.1.1 0 0 1 0 .1l-.23.43a.1.1 0 0 1-.04.03ZM23.16 24.84c-.3.3-.67.42-1.1.38a.41.41 0 0 1-.24-.1.38.38 0 0 1-.12-.23l-.01-.07a.19.19 0 0 1 .06-.16.2.2 0 0 1 .17-.06l1.22.18h.01a.04.04 0 0 1 .02.04l-.01.02ZM25.33 24.9a.11.11 0 0 1 .08.03.1.1 0 0 1 .03.08l-.01.1a.62.62 0 0 1-.19.4.56.56 0 0 1-.4.16l-.3-.02a.54.54 0 0 1-.37-.19.6.6 0 0 1-.14-.42v-.1a.1.1 0 0 1 .04-.08.12.12 0 0 1 .08-.03l1.18.07ZM25.67 25.26l-.04-.26c-.02-.06.01-.09.08-.1l1.63-.02c.1 0 .12.03.04.1-.34.29-1.3.95-1.66.53a.2.2 0 0 1-.05-.16.4.4 0 0 0 0-.1Z" fill="#fff"/><path d="M39.2 32.93c-.48.44-1 .76-1.54.95a.39.39 0 0 0-.23.25l-.09.02c-.08.02-.11 0-.09-.09a.1.1 0 0 0 0-.06c0-.04-.03-.05-.07-.05a3.76 3.76 0 0 1-1.87-.35l-.7-.7v-.14c0-.03.02-.05.05-.05.02 0 .04 0 .06.02.23.29.43.58.76.75.87.44 2.03.54 2.84-.1a.66.66 0 0 0 .38-.24c.94-1.17.86-2.25-.23-3.26a.19.19 0 0 0-.17-.05c-.65.13-1.11.49-1.62-.13.01-.04.03-.07.06-.08.02 0 .05 0 .08.03.54.37 1 .32 1.41-.16.84-1.02-.6-1.95-1.35-.94-.25.23-.16.66-.16.97 0 .07-.06.09-.15.04-.04-.09-.12-.12-.24-.1-.44.08-.71.23-.8.44-.13.16-.3.23-.54.2l.08-.25c.35-.12.55-.29.6-.51.27.06.51.01.72-.14a.21.21 0 0 0 .08-.14c.25-1.93 3.2-1.02 2.05.45a.1.1 0 0 0 0 .13c.27.25.57.48.74.77.5.8.47 1.64-.06 2.52Z" fill="#534925"/><path d="M38.23 29.5a1.38 1.38 0 0 1-1.35-.95c.75-1 2.2-.08 1.35.94Z" fill="#FECE17"/><path d="M36.88 28.55c.25.62.7.93 1.35.94-.4.48-.87.53-1.41.16l-.08-.03c-.03.01-.05.04-.06.08a.18.18 0 0 1-.11-.14c.1.05.15.03.15-.04 0-.3-.1-.74.16-.97Z" fill="#B39517"/><path d="M35.54 29.33c.03.01.08.02.14 0-.06.23-.26.4-.6.52-.05 0-.08-.03-.09-.07l.31-.36a.22.22 0 0 1 .14-.08l.1-.01Z" fill="#fff"/><path d="M36.57 29.56c0 .06.04.1.1.14.52.62.98.26 1.64.13h.09l.08.05c1.08 1 1.16 2.1.22 3.26-.1.13-.22.2-.38.24a.3.3 0 0 0-.09-.03c-.05 0-.08-.04-.08-.08l-.02-.11c1.18-.58 1.32-2.3.1-2.89-.32-.15-.38-.09-.17.2.64.89.5 1.76-.43 2.6-.05-.02-.1-.03-.14-.01a.1.1 0 0 1-.12-.03.1.1 0 0 1 0-.12c.19-.32.3-.56.28-.94-.03-.58.07-1.15-.37-1.65-.11-.13-.23-.15-.35-.06-.6.46-.85 1.15-.73 2.06-.27.05-.48-.05-.65-.32-.35-.58.22-1.04.28-1.58l.46-.39c.05-.04.05-.07-.01-.1-.19-.1-.44-.1-.76-.03.1-.2.37-.36.8-.44.13-.02.21.01.25.1Z" fill="#FECE17"/><path d="M35 29.78c0 .04.03.07.07.07l-.08.25-.17.12a.15.15 0 0 0-.07.13c0 .1-.04.18-.12.25l-.27.33c.02-.12 0-.19-.09-.2l.72-.95Z" fill="#9C9A9B"/><path d="M35.83 30.42c-.6.55-.7 1.64-.37 2.3.15.32.07.39-.24.21-.74-.41-.76-1.55-.59-2.33a.34.34 0 0 0 .12-.25c0-.06.03-.1.07-.13l.17-.12c.23.03.41-.04.53-.2.32-.07.57-.06.76.03.06.03.06.06.01.1l-.46.4ZM37.28 30.32c.12.52.38 1.1.26 1.63-.15.62-.26 1.07-.8 1.44a.21.21 0 0 1-.29-.05 1.26 1.26 0 0 1-.26-1.02c-.1-.9.14-1.6.74-2.06.12-.1.23-.07.35.06ZM38.13 33.16c-.3.06-.46.04-.5-.08.93-.85 1.08-1.72.43-2.62-.2-.28-.15-.34.17-.19 1.22.6 1.08 2.3-.1 2.89Z" fill="#A90303"/><path d="M37.28 30.32c.44.5.34 1.07.37 1.65.02.38-.1.63-.29.94a.1.1 0 0 0 .01.12.1.1 0 0 0 .06.03h.06c.04-.02.09-.01.14.02.03.12.2.14.5.08l.02.1c0 .06.03.08.08.1a.3.3 0 0 1 .09.02c-.81.65-1.97.54-2.84.1-.33-.17-.53-.46-.76-.75a.07.07 0 0 0-.06-.02c-.03 0-.05.02-.05.05v.15a2.02 2.02 0 0 1-.25-1.98l.27-.33c-.17.78-.15 1.92.59 2.33.3.18.39.1.24-.2-.32-.68-.23-1.76.37-2.3-.06.53-.63 1-.28 1.57.17.27.38.37.65.32-.07.35.01.7.25 1.02a.21.21 0 0 0 .28.05c.55-.37.67-.82.81-1.44.13-.53-.14-1.1-.26-1.63Z" fill="#B39517"/><path d="M34.27 30.73c.08.01.11.08.09.2-.26.7-.18 1.35.25 1.97l.7.7.17.55c-.01.47-.17.93-.47 1.36a.09.09 0 0 0 .01.12l.3.28c.04.04.06.1.05.16l-.2 1.75c0 .06-.04.09-.1.08-.7-.1-1.37-.23-2.04-.4-1.04-.25-1.58-.33-2.19-.95a.63.63 0 0 0-.57-.22.3.3 0 0 1-.17-.03c-.63-.37-1.2-.66-1.74-1.18-.48-.45-1.02-.9-1.6-1.36 1.03 0 2-.09 2.89-.26.45-.09.8-.11 1.05-.08.36.05.7.16 1.03.32a.12.12 0 0 0 .14-.03l.04-.04v-.02a.04.04 0 0 0 0-.04h-.02c-.1-.02-.14-.07-.15-.17a.21.21 0 0 0-.05-.11l-.3-.33c-.04-.05-.03-.08.02-.11a9.93 9.93 0 0 0 2.86-2.16Zm-1.49 2.58c-.01.07.03.13.12.17.02.02.04.02.07.02a12.77 12.77 0 0 1 1.56.13.05.05 0 0 0 .03-.05v-.02c-.37-.58-1.4-.96-1.97-.42a.08.08 0 0 0-.02.1l.04.03a.1.1 0 0 0 .06.01h.08c.03 0 .04 0 .03.03Zm-3.18 2.01a.06.06 0 0 0 .07-.02.06.06 0 0 0 0-.06l-.74-1.07-.03-.02h-.03l-.47.04-.03.01a.06.06 0 0 0-.02.04l-.09.48v.04l.04.03 1.3.53Zm3.1.05c-.2-.3-.44-.33-.7-.11a.32.32 0 0 0-.1.15c-.06.18 0 .33.2.44.44.27 1.25.59 1.77.4.1-.04.1-.07 0-.1-.59-.23-.98-.49-1.18-.78ZM20.24 31.2c.1.05.17.1.2.16a.1.1 0 0 1 0 .13c-.09.1-.2.2-.31.27a.06.06 0 0 0 0 .1c0 .01.01.02.03.02.17 0 .33-.03.49-.1a.45.45 0 0 1 .45.04c1.26.9 2.67 1.5 4.23 1.83l-1.07 1.25c-1.71 1.6-3.85 2.23-6.22 3.05-.9.15-1.72.5-2.45 1.04-.08.03-.12-.03-.13-.17-.02-.47.07-.89.28-1.24.48-.24.73-.42.57-1 .46-.34.81-.63 1.07-.86.54-.5.89-1.04 1.04-1.61.3-.6.63-1.13 1-1.57.14-.18.16-.35.06-.5-.04-.07-.03-.12 0-.16.13-.12.38-.35.76-.67ZM22.2 33c.03 0 .04-.02.03-.05a.92.92 0 0 0-.46-.48.34.34 0 0 0-.38.07l-.84.88c-.07.07-.06.1.05.1a3.29 3.29 0 0 0 1.5-.42.26.26 0 0 0 .03-.05.1.1 0 0 1 .07-.05Zm-3.5 1.48c-.04.42-.13.68-.6.79-.22.05-.22.1.01.13.6.1 1.06-.1 1.39-.58.1-.16.07-.29-.09-.39a.7.7 0 0 0-.62-.07c-.06.02-.09.06-.1.12Zm1.65 1.02-.42.12c-.16.04-.16.07 0 .09.67.06 1.2-.1 1.63-.45.3-.25.23-.63-.19-.7-.04-.02-.07 0-.1 0-.37.22-.66.51-.85.88a.12.12 0 0 1-.07.06Zm-1.78 1.94c.07-.02.1-.09.1-.21 0-.1-.04-.17-.14-.2-.51-.44-1.4.04-1.75.44a.08.08 0 0 0 .02.13h.05l1.54-.04c.03 0 .05-.01.07-.03l.11-.1Z" fill="#fff"/><path d="M19.48 32.04c.1.15.08.32-.06.5-.37.44-.7.96-1 1.57.14-.7.41-1.36.82-1.96a.18.18 0 0 1 .12-.08l.12-.03ZM22.13 33.05l-.03.05a3.29 3.29 0 0 1-1.51.43c-.1 0-.12-.04-.05-.1l.84-.9c.05-.04.11-.08.18-.09.07-.01.14 0 .2.03.2.09.35.25.46.48.01.03 0 .05-.03.05a.1.1 0 0 0-.06.05ZM32.75 33.28h-.08a.1.1 0 0 1-.06 0 .09.09 0 0 1-.03-.05.08.08 0 0 1 .01-.1c.57-.53 1.6-.15 1.96.43a.05.05 0 0 1 0 .05.05.05 0 0 1-.05.02 12.79 12.79 0 0 0-1.6-.15c-.1-.04-.13-.1-.12-.17 0-.03 0-.04-.03-.03Z" fill="#221B10"/><path d="M39.2 32.93a9.6 9.6 0 0 1 1.5 3.16c-.18 0-.3.06-.37.15-.06.09-.04.18.06.29.17.17.42.29.76.35.14.33.2.67.2 1.02 0 .06-.03.1-.09.13l-.13.06-.27-.06a5.33 5.33 0 0 0-2.03 0c-.26.05-.53-.02-.83-.22-.3-.2-.57-.15-.78.16a.15.15 0 0 1-.14.07l-.82-.01c-.1-.16-.09-.43.05-.8.05-.13.06-.37.04-.71 0-.06.02-.1.07-.12.38-.2.79-.26 1.21-.18.18.03.2-.01.07-.13a1.8 1.8 0 0 0-.55-.33.13.13 0 0 1-.06-.05.12.12 0 0 1-.02-.07l-.03-.91c.06-.2.2-.4.39-.6.03-.1.12-.22.23-.26.55-.18 1.06-.5 1.54-.94Zm.33 2.05c.08.1.18.15.3.12a.08.08 0 0 0 .06-.05.08.08 0 0 0 0-.06 2.01 2.01 0 0 0-1.23-1.06.4.4 0 0 0-.24 0 .38.38 0 0 0-.2.13c-.16.23-.15.43.04.6.33.3 1.01-.04 1.27.32Z" fill="#fff"/><path d="M35.3 33.6c.6.28 1.23.4 1.88.35.04 0 .07.01.08.05v.06c-.03.08 0 .11.08.09l.09-.02c-.2.2-.33.4-.39.6-.05-.05-.09-.06-.12-.04l.06-.23a.08.08 0 0 0-.03-.08.1.1 0 0 0-.09-.02c-.76.25-1 .94-1.39 1.54-.12-.28-.1-.58.05-.91.17-.36.16-.62.1-.96-.04-.17-.1-.18-.18-.02l.04.14-.17-.55Z" fill="#B39517"/><path d="m25.33 33.65.96.07-.14.05a.31.31 0 0 0-.14.08 3.42 3.42 0 0 0-1.04 1.94c-.09-.14-.2-.35-.35-.66-.06-.12-.18-.2-.35-.23l1.06-1.25Z" fill="#78892A"/><path d="M26.29 33.72c-.04.04-.02.05.06.04 0 .58.18 1.13.53 1.66l-.84 1.4a.16.16 0 0 1-.05.05.17.17 0 0 1-.22-.04l-.8-1.04c.06-.62.4-1.26 1.03-1.94a.31.31 0 0 1 .15-.08l.14-.05Z" fill="#9DB93E"/><path d="M26.35 33.76c.1 0 .2.02.28.04.09.23.39.37.53.57.03.05.04.1.02.15l-.3.9a2.97 2.97 0 0 1-.53-1.66Z" fill="#78892A"/><path d="M26.75 33.76c.59.46 1.13.91 1.6 1.36.56.52 1.12.81 1.75 1.18.05.03.1.04.17.03.24-.02.4.03.57.22.61.62 1.15.7 2.19.95.67.17 1.35.3 2.04.4.06 0 .1-.02.1-.08l.2-1.75a.18.18 0 0 0-.05-.16l-.3-.29a.09.09 0 0 1-.01-.11c.3-.43.46-.89.47-1.36l-.04-.14c.09-.16.14-.15.18.02.06.34.07.6-.1.96-.16.33-.17.63-.05.9.41.28.98.48 1.39.18a.15.15 0 0 0 .07-.13v-1.25c.02-.02.06 0 .11.04l.03.91c0 .03 0 .05.02.07.01.02.03.04.06.05.2.08.39.19.55.33.13.12.11.16-.07.13a1.83 1.83 0 0 0-1.21.18.12.12 0 0 0-.07.12c.02.34 0 .58-.04.71-.14.37-.16.64-.05.8-.11-.02-.2.05-.28.22 0-.2.02-.38.05-.57.04-.28.26-.53.15-.93a.5.5 0 0 0 .04-.24c0-.06-.04-.1-.09-.14-.15-.09-.32-.15-.5-.17a.15.15 0 0 0-.11.03.13.13 0 0 0-.04.1l.03 1.16-.35 2.44c-.1.04-.19.02-.25-.06a.15.15 0 0 1-.02-.16c.12-.24.18-.45.18-.61.04-.1.05-.17.02-.23a.2.2 0 0 1-.01-.1l.05-.6c0-.07-.02-.11-.1-.13l-.55-.11c-.02 0-.04 0-.06.02a.2.2 0 0 0-.03.06c-.03.02-.07.02-.11 0-.24-.2-1.15-.32-1.48-.4a12.72 12.72 0 0 1-4.37-2.18c-.06-.04-.12-.04-.17.01l-.8.78-1.06 1.05c-.04.04-.03.06.03.07 1.2.16 1.9.82 2.05 2 .06.43.02.76-.11 1.01-.76 1.37-1.86 1.74-3.32 1.1a1.87 1.87 0 0 1-1.12-1.23c-.36-1.23.57-2.32 1.7-2.82.18 0 .2-.15.02-.44a2.1 2.1 0 0 0-.25-.34 7.07 7.07 0 0 1-1.02-1.49.14.14 0 0 0-.12-.02.14.14 0 0 0-.06.03l-.34.3a.1.1 0 0 0-.03.07.1.1 0 0 0 .04.08c.7.43 1.13 1.08 1.68 1.65.03.02.04.05.04.07 0 .02-.03.05-.05.07l-1.4-1.36a1.02 1.02 0 0 0-.44-.34.17.17 0 0 0-.17.02c-.55.37-1.11.7-1.7 1.02-.22.13-.46.16-.71.26l-2.56.97c-.27.1-.44.1-.52 0 2.37-.82 4.5-1.45 6.22-3.05.18.03.3.1.36.23.14.3.26.52.35.66l.8 1.04.06.05a.17.17 0 0 0 .16 0 .16.16 0 0 0 .05-.06l.84-1.4.3-.9c.02-.05.01-.1-.02-.15-.14-.2-.44-.34-.53-.57l.12-.04Zm-.52 3.5c.57-.57 1.13-1.38 1.92-1.93.06-.04.06-.08.01-.12l-.53-.54c-.2-.2-.3-.16-.32.12-.02.72-.66 1.5-1.22 2.28a.12.12 0 0 0 .02.16l.04.03.04.02.04-.02Zm-2.08 1.83c-.16.49-.19.86-.08 1.12.83 2.06 3.33 1.3 3.7-.54a1.84 1.84 0 0 0-.52-1.71c-1.19-.93-2.75-.16-3.1 1.13Zm3.64 1.37c-.28.43-.68.74-1.2.94-.02 0-.02.02-.01.04l.03.05c.02.04.05.05.09.04.4-.12.73-.32 1.01-.6.45-.44.68-1.4.45-2.02 0-.02-.02-.03-.04-.03h-.05c-.08 0-.11.04-.1.1l.07.93c0 .06-.02.1-.05.15-.11.11-.14.31-.2.4Z" fill="#534925"/><path d="M39.53 34.98c-.26-.36-.94-.02-1.27-.32-.19-.17-.2-.37-.03-.6a.38.38 0 0 1 .19-.13.4.4 0 0 1 .24 0 2.01 2.01 0 0 1 1.24 1.09.08.08 0 0 1-.03.06l-.03.02c-.13.03-.23-.01-.3-.12ZM29.6 35.32l-1.3-.53a.06.06 0 0 1-.03-.03v-.04l.08-.48c0-.02 0-.03.02-.04l.03-.01.47-.04h.03l.03.02.75 1.07a.06.06 0 0 1 0 .06l-.04.02h-.04ZM18.1 35.27c.46-.11.55-.37.59-.8 0-.05.03-.1.1-.11a.7.7 0 0 1 .61.07c.16.1.2.23.09.4-.33.48-.79.67-1.39.57-.23-.03-.23-.08 0-.13Z" fill="#221B10"/><path d="M36.92 34.7v1.24c0 .05-.02.1-.06.13-.41.3-.98.1-1.39-.17.4-.6.63-1.29 1.39-1.54a.1.1 0 0 1 .09.02l.02.04v.04l-.05.23Z" fill="#FECE17"/><path d="M20.4 35.44c.2-.37.49-.66.85-.87a.16.16 0 0 1 .11-.02c.42.08.48.46.2.7-.43.37-.97.52-1.63.46-.17-.02-.17-.05-.01-.1l.42-.11c.03-.01.05-.03.07-.06Z" fill="#221B10"/><path d="M26.24 37.26a.06.06 0 0 1-.04.02c-.02 0-.03 0-.05-.02l-.03-.02a.12.12 0 0 1-.02-.16c.56-.78 1.2-1.57 1.21-2.3.01-.27.12-.31.32-.11l.54.54c.04.04.04.08-.02.12-.8.55-1.35 1.36-1.91 1.93ZM25.63 37.4l-.1-.02a.15.15 0 0 0 .06-.07c0-.02-.01-.05-.04-.07-.55-.57-.97-1.22-1.67-1.65a.1.1 0 0 1-.05-.08.1.1 0 0 1 .03-.08l.34-.3a.14.14 0 0 1 .12-.02l.06.02.04.05c.27.52.6 1 .98 1.44.12.13.2.25.25.34.17.3.16.44-.02.44Z" fill="#ED2B2B"/><path d="M32.7 35.37c.2.3.58.55 1.17.77.1.04.1.07 0 .1-.52.2-1.33-.12-1.77-.38-.2-.12-.26-.27-.2-.45a.32.32 0 0 1 .1-.15c.26-.22.5-.18.7.1Z" fill="#221B10"/><path d="M34.28 38.01c.32.63.64 1.22.5 1.81 0 .06-.04.1-.1.1-.5.06-1.6.14-1.86.63-.14.28-.12.61-.21.86a83.96 83.96 0 0 0-.2.6c0 .02 0 .05.02.07.12.24.33.4.6.47a.2.2 0 0 1 .12.08c.02.04.03.09.02.13-.06.26-.03.5.08.74.02.06.01.1-.03.14a.4.4 0 0 0-.1.32l-.66.02c-.12-.88-.25-1.73-.39-2.57-.05-.31-.14-.6-.26-.86-.9-1.84-2.87-2.85-4.35-4.33l.8-.78c.05-.05.1-.05.17-.01 1.3.95 2.78 1.78 4.37 2.17.34.09 1.25.21 1.48.41ZM24.13 36.02c-.73.45-1.23.79-1.33 1.51a22.6 22.6 0 0 0-.03 6.45l-1.34-.04a2.8 2.8 0 0 1 .05-1.15c.08-.98.1-1.96.07-2.95-.02-.83.17-1.64.2-2.5 0-.02 0-.05-.02-.08a.29.29 0 0 0-.07-.08c-.04-.05-.08-.05-.12 0-.06.08-.09.16-.16.22-.91.83-1.9 1.47-2.8 2.37-.32-1.41-2-1.2-2.94-.55.03-.05.03-.08 0-.1a.17.17 0 0 0-.13-.04c-.06 0-.03-.03.08-.1a5.58 5.58 0 0 1 2.45-1.03c.08.1.25.1.52 0l2.56-.97c.25-.1.49-.13.71-.26.59-.31 1.15-.65 1.7-1.02.05-.03.1-.04.17-.02.17.07.32.19.43.34Z" fill="#78892A"/><path d="m24.13 36.02 1.4 1.36.1.02c-1.13.5-2.06 1.59-1.7 2.82.16.57.53.98 1.12 1.23 1.46.64 2.56.27 3.32-1.1.13-.25.17-.58.11-1.02-.16-1.17-.84-1.83-2.05-1.99-.06 0-.07-.03-.03-.07l1.06-1.05c1.47 1.48 3.46 2.49 4.35 4.33.12.26.21.55.26.86l.4 2.57h-9.7a22.6 22.6 0 0 1 .03-6.45c.1-.72.6-1.06 1.33-1.5Z" fill="#9DB93E"/><path d="M40.7 36.1c.37 0 .52.26.45.78a1.3 1.3 0 0 1-.76-.35c-.1-.1-.12-.2-.06-.3.06-.08.18-.13.37-.14Z" fill="#221B10"/><path d="M36.18 36.75a.09.09 0 0 0-.07-.04c-.03 0-.05 0-.08.03-.23.2-.4.44-.53.75l-.03-1.16a.13.13 0 0 1 .05-.1.15.15 0 0 1 .11-.03c.18.02.35.08.5.17.05.04.08.08.09.14a.5.5 0 0 1-.04.24Z" fill="#B39517"/><path d="M16.3 36.58c.17.58-.09.76-.56 1-.02.03-.05.03-.1.01a.12.12 0 0 1-.07-.07.1.1 0 0 1 .01-.09c.22-.36.46-.65.73-.85Z" fill="#221B10"/><path d="M36.18 36.75c.11.4-.11.65-.15.93-.03.19-.04.38-.05.57l-.31 1.67c-.01.06-.05.08-.1.08-.15 0-.29-.02-.41-.07l.34-2.44c.13-.3.3-.56.53-.75.03-.03.05-.04.08-.03.03 0 .06.01.07.04Z" fill="#FECE17"/><path d="M18.52 37.03a.9.9 0 0 0 .04.4l-.1.1a.12.12 0 0 1-.08.03l-1.54.05-.05-.01a.08.08 0 0 1-.03-.04.08.08 0 0 1 0-.09c.36-.4 1.25-.88 1.76-.44Z" fill="#221B10"/><path d="m21.48 42.79-.02-.13a.12.12 0 0 0-.03-.05c-.05-.05-.08-.05-.08 0v-3.13c0-.6.13-1.2.19-1.79.02-.17-.04-.2-.17-.08-1.18 1-2.28 1.85-3.25 3.05a.3.3 0 0 0 .01.4c.2.21.37.5.52.87.03.06.08.1.16.12l-.19.08c-.22-.3-.44-.61-.64-.94-.43-.68-1.04-.66-1.76-.63-.02 0-.03 0-.03-.03l.02-.06.03-.02a2.5 2.5 0 0 1 1.55.2.1.1 0 0 0 .12-.02l.66-.86c.9-.9 1.9-1.54 2.81-2.37.07-.06.1-.14.16-.22.04-.05.08-.05.12 0l.07.08.02.09c-.03.85-.22 1.66-.2 2.5.03.98 0 1.96-.07 2.94Z" fill="#534925"/><path d="m27.25 37.96-1.24.66c-.13.03-.2 0-.22-.09a.1.1 0 0 0-.03-.05.11.11 0 0 0-.1-.03.11.11 0 0 0-.06.02c-.5.41-.62.87-.87 1.4l-.36.41c-.04.05-.08.05-.12 0-.21-.3-.25-.69-.1-1.19.35-1.29 1.91-2.06 3.1-1.13Z" fill="#F9E9A7"/><path d="M21.35 42.6c-.6-.1-.7.3-.32 1.25-.27.32-.55.06-.77-.15l-.67-.65a.25.25 0 0 1-.07-.14l-.12-.78c-.04-.2-.15-.27-.36-.21a.66.66 0 0 0-.23.13.23.23 0 0 1-.16-.12 3.02 3.02 0 0 0-.52-.87.3.3 0 0 1-.01-.4c.97-1.2 2.07-2.05 3.25-3.05.13-.12.19-.09.17.08-.06.6-.18 1.2-.19 1.79v3.13Zm-1.18-3.8c-.04.05-.06.1-.06.15.02.54.15 1.07.38 1.57.03.05.07.08.12.07h.07c.05 0 .09-.03.1-.08.2-.66.45-1.62-.16-1.9-.16-.06-.28-.04-.36.08l-.1.12Z" fill="#9C9A9B"/><path d="m40.86 38.03-.04.04a.1.1 0 0 1-.03.03.1.1 0 0 1-.05 0l-4.37.17-.05.01a.1.1 0 0 0-.05.09l.01.05c.28.5.5 1 .66 1.51.17.54.67.99.66 1.54 0 .26-.05.52-.15.76-.2-.3-.33-.27-.4.1-.01.02 0 .05 0 .07l.05.07c.08.05.13.1.16.16l-.04.33c-.01.1-.04.1-.07.01a.54.54 0 0 1-.03-.2l-.22-.48a.22.22 0 0 1 .08-.27c.28-.21.4-.47.35-.77-.15-.92-2-1.14-2.74-1.15-.42 0-.67.14-.75.42 0-.04-.01-.07-.03-.1h-.03l-.05.03c-.02.01-.04 0-.05-.01a.2.2 0 0 1-.01-.05c.03-.04.04-.08.02-.1-.01-.02-.04-.03-.08-.03a.85.85 0 0 0-.65.35l-.03.37a.4.4 0 0 1-.05.15c-.07.14-.12.29-.15.44a.31.31 0 0 1-.06.13c-.17.22-.14.4.08.55.17.18.33.18.48 0l.14 1.24c0 .04.02.05.05.04h.07l1.22.08c.02 0 .03.01.03.04v.05a.04.04 0 0 1-.01.03h-.01l-.02.01h-1.1c-.16 0-.28.06-.35.18-.1-.02-.15 0-.13.04a.4.4 0 0 1 .1-.32.11.11 0 0 0 .03-.14 1.12 1.12 0 0 1-.08-.74c0-.04 0-.1-.03-.13a.2.2 0 0 0-.11-.08.9.9 0 0 1-.6-.47.18.18 0 0 1-.02-.15l.2-.52c.09-.25.07-.58.21-.86.26-.49 1.37-.57 1.86-.63.06 0 .1-.04.1-.1.14-.6-.18-1.18-.5-1.8h.11c.1.06.17.18.2.37.03.25.19.48.48.7 0 .17-.06.38-.18.62a.15.15 0 0 0 .02.16c.06.08.14.1.25.06.13.05.26.07.4.07.07 0 .1-.02.11-.08l.31-1.67c.07-.17.17-.24.28-.22l.82.01c.06 0 .1-.02.14-.07.21-.31.47-.36.78-.16.3.2.57.27.83.22a5.33 5.33 0 0 1 2.03 0Zm-4.88.62c-.03.48-.12.86-.2 1.32 0 .04 0 .07.03.1.02.03.05.05.1.06l.32.07a.1.1 0 0 0 .08-.02.09.09 0 0 0 .03-.07.64.64 0 0 1 .15-.56c.05-.05.06-.1.03-.16l-.35-.77c-.1-.23-.17-.22-.19.03Z" fill="#221B10"/><path d="M35.07 39.1c-.29-.23-.45-.46-.48-.71-.03-.19-.1-.31-.2-.38a.2.2 0 0 1 .03-.06.05.05 0 0 1 .06-.02l.56.11c.07.02.1.06.1.13l-.06.6c0 .03 0 .07.02.1.02.06 0 .14-.03.23Z" fill="#fff"/><path d="M27.25 37.96c.48.5.65 1.07.52 1.71-.37 1.85-2.87 2.6-3.7.54-.1-.26-.08-.63.08-1.12-.15.5-.12.9.1 1.19.04.05.08.05.12 0l.36-.4c.1.02.17.05.22.11l.01.04-.01.05c-.03.03-.04.06-.03.08.03.06.08.09.14.07.21-.05.39-.14.54-.3.05-.04.1-.05.16-.03.04.02.08.03.13.03.07 0 .12-.03.14-.1.08-.23.26-.33.53-.29.06 0 .1.04.1.1v.4c0 .05.03.09.1.1h.05c.08 0 .11-.03.1-.1-.05-.43-.02-.86.1-1.29a.13.13 0 0 0-.06-.14.14.14 0 0 0-.15-.01.9.9 0 0 1-.44.1.14.14 0 0 0-.13.08l-.29.54c-.03.06-.08.08-.14.08a.76.76 0 0 0-.46.1c-.07.04-.14.04-.2 0-.04-.02-.05-.06-.02-.1.07-.1.14-.24.2-.42.04-.12.13-.18.26-.18.07 0 .1.03.1.1l-.02.17v.02a.03.03 0 0 0 .04.01h.02l.05-.04a.1.1 0 0 0 .03-.1c-.02-.17.04-.29.2-.34l1.25-.66Z" fill="#FECE17"/><path d="m40.86 38.03.27.06c.12.65.27 1.28.45 1.92.4 1.4.46 2.48.4 3.84 0 .05-.03.1-.1.11a.44.44 0 0 1-.34 0c.05-1.5.01-2.51-.11-3.04-.15-.63-.32-1.44-.75-1.95a.23.23 0 0 0-.28-.05.22.22 0 0 0-.07.07c-.25.37-.18 1.08-.13 1.5.16 1.15.29 2.3.4 3.46a19 19 0 0 1-3.14-.04l-.01-1.68c.1-.24.15-.5.16-.76 0-.55-.5-1-.67-1.54a8.13 8.13 0 0 0-.67-1.56.1.1 0 0 1 .05-.09.1.1 0 0 1 .05-.01l4.37-.16a.1.1 0 0 0 .05-.01.1.1 0 0 0 .03-.03l.04-.04Z" fill="#A90303"/><path d="M26 38.62c-.16.05-.22.17-.2.34a.1.1 0 0 1-.03.1l-.05.04a.04.04 0 0 1-.04 0l-.01-.01v-.19c0-.07-.02-.1-.1-.1-.12 0-.21.06-.25.18-.06.18-.13.32-.2.42-.03.04-.02.08.03.1.05.04.12.04.2 0a.76.76 0 0 1 .45-.1c.06 0 .11-.02.14-.08l.3-.54a.15.15 0 0 1 .13-.07.9.9 0 0 0 .43-.11.15.15 0 0 1 .15.01c.03.02.04.04.05.06v.08c-.1.43-.14.86-.09 1.29.01.07-.02.1-.1.1h-.05c-.07-.01-.1-.05-.1-.1v-.4c0-.06-.04-.1-.1-.1-.27-.04-.45.06-.53.29-.02.07-.07.1-.14.1a.36.36 0 0 1-.13-.03.14.14 0 0 0-.16.04c-.15.15-.33.24-.54.29-.06.02-.1 0-.13-.07-.02-.02 0-.05.02-.08a.06.06 0 0 0 0-.09.41.41 0 0 0-.22-.11c.25-.54.38-1 .87-1.4a.12.12 0 0 1 .16 0 .1.1 0 0 1 .03.05c.02.09.09.12.22.09Zm-.46 1.02c-.24-.1-.6.03-.5.34 0 .02 0 .03.02.04a.1.1 0 0 0 .04.02.1.1 0 0 0 .09-.01l.36-.27c.06-.05.06-.09-.01-.12Z" fill="#534925"/><path d="M35.78 39.97c.08-.46.17-.84.2-1.32.02-.25.08-.26.19-.03l.35.77c.03.06.02.11-.03.16a.64.64 0 0 0-.15.56.09.09 0 0 1-.03.07.1.1 0 0 1-.08.02l-.33-.07a.15.15 0 0 1-.09-.06.14.14 0 0 1-.03-.1Z" fill="#fff"/><path d="M20.26 38.69c.08-.12.2-.14.36-.07.6.27.36 1.23.16 1.9-.01.04-.05.07-.1.07h-.07c-.05 0-.1-.02-.12-.07a4.1 4.1 0 0 1-.38-1.57c0-.05.01-.1.06-.14l.09-.12Z" fill="#221B10"/><path d="m18.57 39.77-.66.86a.1.1 0 0 1-.13.03c-.48-.24-1-.3-1.54-.21a.04.04 0 0 0-.03.02l-.02.06c0 .02 0 .04.03.03.72-.03 1.33-.05 1.76.63.2.33.42.64.64.94l1.46 1.68c.06 0 .1.03.11.1v.02l-.01.03a.07.07 0 0 1-.05.02l-4.73-.03-.7-1.12a4.17 4.17 0 0 1-.37-1.1c-.1-.75.72-1.99 1.31-2.51.94-.65 2.62-.86 2.93.55Z" fill="#9DB93E"/><path d="M27.8 40.46c.05-.09.08-.29.19-.4a.18.18 0 0 0 .05-.15l-.08-.92c0-.07.03-.1.1-.1h.06c.02 0 .04 0 .04.02.23.63 0 1.58-.45 2.02-.28.28-.62.48-1.01.6-.04.01-.07 0-.1-.04l-.02-.05c-.01-.02 0-.03.02-.04.5-.2.9-.5 1.2-.94Z" fill="#B39517"/><path d="M41.54 43.95h-.94a97.07 97.07 0 0 0-.4-3.46c-.05-.42-.12-1.13.13-1.5a.22.22 0 0 1 .17-.1.23.23 0 0 1 .18.08c.43.51.6 1.32.74 1.95.13.53.17 1.54.12 3.03Z" fill="#ED2B2B"/><path d="M15.5 39.08c.05 0 .1 0 .14.04.03.02.03.05 0 .1-.6.52-1.4 1.76-1.31 2.51.03.26.15.63.36 1.1l.16 1.1c-.09.05-.17.04-.23-.02-.04-.03-.07-.1-.08-.18-.08-.43-.25-1.08-.51-1.96-.22-.71.86-2.13 1.36-2.63a.1.1 0 0 1 .07-.02c.04 0 .05-.02.05-.04Z" fill="#534925"/><path d="M25.03 39.98c-.1-.3.27-.45.51-.34.07.03.07.07.01.12l-.36.27a.1.1 0 0 1-.13 0 .1.1 0 0 1-.03-.05ZM37.12 42.77a1.7 1.7 0 0 1-.5 1.15.2.2 0 0 1-.14.06l-3.23-.06c.07-.12.19-.18.36-.18a365.38 365.38 0 0 0 1.12-.01.04.04 0 0 0 .01-.03v-.05c0-.03 0-.04-.03-.04l-1.22-.08a2.94 2.94 0 0 1-.17-1.05c0-.06.03-.11.07-.15.12-.12.12-.28.22-.38.32-.33 1.06-.2 1.45-.28.44-.07.44-.12 0-.14a22.98 22.98 0 0 0-1.16-.04.12.12 0 0 1-.04-.06c-.09-.3-.1-.6-.02-.91.08-.28.33-.42.75-.42.74 0 2.59.23 2.74 1.15.05.3-.07.56-.35.77a.22.22 0 0 0-.07.27l.21.48Z" fill="#FECE17"/><path d="M33.67 40.4c-.16.31-.16.72 0 1.21v.06a.1.1 0 0 1-.04.05c-.32.2-.45.38-.4.53-.15.18-.3.18-.48 0-.01-.24.02-.47.1-.68.14-.39.12-.59.1-.96.18-.22.4-.34.65-.35.05 0 .08 0 .09.03.02.02.01.06-.02.1Z" fill="#FECE17"/><path d="m33.66 40.4.02.04c.01.02.03.02.05.01l.05-.02h.03c.02.02.03.05.03.09-.08.3-.07.61.02.91 0 .03.02.05.04.06.02.02.05.03.08.03l1.07.01c.45.02.45.07.01.15-.39.06-1.13-.06-1.45.27-.1.1-.1.26-.23.38a.22.22 0 0 0-.06.15c-.01.34.05.69.17 1.05h-.07c-.03 0-.05 0-.05-.04l-.14-1.24c-.05-.15.08-.33.4-.53a.1.1 0 0 0 .03-.05.1.1 0 0 0 0-.06c-.15-.49-.15-.9 0-1.22Z" fill="#534925"/><path d="M32.96 40.6c.01.38.03.58-.11.97-.08.2-.11.44-.1.68-.22-.15-.25-.33-.08-.55a.31.31 0 0 0 .05-.13c.04-.15.09-.3.16-.44a.4.4 0 0 0 .04-.15l.04-.37Z" fill="#B39517"/><path d="M20.26 43.7c.01.05-.05.09-.18.11l-1.46-1.68.19-.08a.66.66 0 0 1 .23-.13c.2-.06.32.01.36.21l.12.78c0 .05.03.1.07.14l.67.66Z" fill="#221B10"/><path d="M37.45 42.23v1.68c-.1.08-.25.1-.42.06-.07-.02-.08-.06-.05-.1l.27-.4c.03-.04.04-.1.04-.15l-.03-.7a.42.42 0 0 0-.16-.15.14.14 0 0 1-.05-.07.13.13 0 0 1 0-.08c.07-.36.2-.39.4-.1Z" fill="#fff"/><path d="M21.35 42.6c0-.04.03-.04.08 0l.03.06.03.13c-.1.34-.12.72-.06 1.15-.24.08-.37.05-.4-.1-.39-.93-.28-1.34.32-1.23Z" fill="#221B10"/><path d="m14.7 42.83.7 1.12-.55-.01-.16-1.11Z" fill="#78892A"/></svg>