<!-- by TradingView --><svg width="56" height="56" viewBox="0 0 56 56" xmlns="http://www.w3.org/2000/svg"><path fill="#F0F3FA" d="M0 0h56v56H0z"/><path d="M45 28a16.85 16.85 0 0 1-4.98 12.02A16.85 16.85 0 0 1 28 45a16.85 16.85 0 0 1-12.02-4.98A16.85 16.85 0 0 1 11 28a16.85 16.85 0 0 1 4.98-12.02A16.85 16.85 0 0 1 28 11a16.85 16.85 0 0 1 12.02 4.98A16.85 16.85 0 0 1 45 28Z" fill="#030303"/><path d="M20.48 13.31a15.94 15.94 0 0 1 6.81-1.85c2.93-.1 5.7.5 8.31 1.83.02.01.03.03.02.05 0 .02-.02.03-.05.02a2.71 2.71 0 0 0-.82-.01c-.19.02-.5.07-.9.16l-.23.05c-.16.03-.3 0-.42-.08a8.3 8.3 0 0 0-6.8-1.2c-.03.02-.05.04-.04.07 0 .03.02.05.05.06.44.08.82.28 1.14.58.04.03.05.07.04.1-.01.02-.03.03-.04.02a10.05 10.05 0 0 0-5.31-.4c-.52.1-1.11.3-1.76.6Z" fill="#F0F3FA"/><path d="M36.77 14.1c-.42.1-.76.27-1.04.5a.47.47 0 0 1-.3.1c-2.45.02-4.76.7-6.92 2.01a.17.17 0 0 1-.15.02.17.17 0 0 1-.11-.1 3.52 3.52 0 0 0-.97-1.4.07.07 0 0 1-.02-.08c.01-.03.03-.05.06-.05l1.53.07c.3.02.57-.06.82-.23.3-.2.4-.44.3-.73-.17-.53-.67-.86-1.5-.98a.7.7 0 0 1-.39-.2l-.55-.53a.04.04 0 0 1-.01-.04c0-.02.02-.03.04-.03a8.49 8.49 0 0 1 2.98.2 6.6 6.6 0 0 1 2.65 1.34.2.2 0 0 0 .2.05c1.1-.33 2.08-.4 2.94-.2a1 1 0 0 1 .45.2c.04.04.03.06-.02.08ZM27.23 13.4c.03.01.04.04.03.07 0 .03-.01.05-.04.06-.43.21-.78.5-1.04.88-.08.1-.17.13-.29.06-.54-.31-1.1-.45-1.69-.42-.2.02-.37 0-.5-.04-.12-.03-.25-.1-.42-.2a5.05 5.05 0 0 0-1.37-.58c-.02 0-.04-.02-.04-.05 0-.03.02-.05.05-.05 1.68-.38 3.35-.34 5.01.13.12.03.22.08.3.14Z" fill="#B0ED31"/><path d="M20.48 13.31c-.02.02-.02.04.02.06h.02l1.68.31c.03 0 .05.03.05.06 0 .04-.03.06-.06.06-.6.02-1.15.1-1.67.26-.07.02-.11.05-.14.08a.04.04 0 0 0 0 .05c0 .02.02.02.04.03a4.72 4.72 0 0 1 1.57.38v.06c0 .02-.02.03-.04.04-.78.1-1.53.33-2.27.68-.61.3-1.28.71-2.02 1.26-.45.34-.86.58-1.23.74-.4.18-.83.28-1.3.32-.02 0-.03 0-.03-.02v-.04a16.49 16.49 0 0 1 4.42-3.85c.39-.23.7-.4.96-.48Z" fill="#F0F3FA"/><path d="M26.5 14.46c.1-.23.36-.44.8-.63l.2-.09a1.87 1.87 0 0 1 2.02.2c.1.07.17.23.2.48 0 .04 0 .08-.03.12-.2.25-.5.36-.86.35a8.36 8.36 0 0 1-1.4-.12c-.33.01-.6-.02-.84-.1a.15.15 0 0 1-.1-.08.15.15 0 0 1 0-.13Z" fill="#74A60E"/><path d="m26.7 14.5.47-.31c.05-.03.1-.04.15-.04.45.01.86-.06 1.23-.22a.08.08 0 0 1 .08 0c.03.02.04.04.05.07.01.16-.02.26-.1.28a.15.15 0 0 1-.08 0c-.3-.07-.6-.06-.9.02a.24.24 0 0 0-.1.07l-.08.07a.14.14 0 0 1-.1.05c-.18 0-.37.03-.58.1-.02 0-.04 0-.04-.03-.02-.02-.01-.04 0-.05Z" fill="#030303"/><path d="m22.08 14.14 1.06.04c.02 0 .03.01.04.03l-.01.06-.29.22c-.1.08-.19.08-.3.02l-.52-.3c-.02-.01-.03-.03-.02-.05 0-.02.02-.03.04-.02Z" fill="#B0ED31"/><path d="m23.67 14.72-.06.1c-.03.05-.02.1.02.16.05.05.1.06.17.03.16-.09.35-.16.57-.23.24-.08.43-.04.55.13.01.02.03.03.05.03l.76-.11c.06 0 .1.02.11.07.02.06 0 .1-.05.13l-.24.11c-.55.26-.96.43-1.24.5-.46.11-.89.1-1.29-.05-.2-.07-.31-.23-.32-.47 0-.04.02-.08.05-.12.2-.24.4-.4.54-.45a3.02 3.02 0 0 1 2.34.08l.01.07c0 .03 0 .05-.04.04-.22-.07-.38-.1-.5-.1-.73.04-1.19.05-1.37.04a.07.07 0 0 0-.06.04Z" fill="#74A60E"/><path d="M42.6 35.73h-.02c-.02 0-.02 0-.02-.02a.82.82 0 0 0-.12-.5c-.06-.1-.1-.18-.12-.25a.28.28 0 0 1 0-.17c.11-.46.09-.9-.07-1.35a.3.3 0 0 1 .05-.3l.27-.35a.22.22 0 0 0 .05-.1c.14-.7 0-1.25-.41-1.66a.57.57 0 0 1-.17-.4l-.16-3.89c0-.08-.05-.12-.13-.12l-.96.04a.2.2 0 0 1-.2-.11l-1.82-3.47c-.02-.05-.02-.08.02-.12l.15-.13c.15-.13.24-.22.27-.28.16-.3.17-.63.05-.98-.1-.29-.3-.57-.6-.83-.03-.03-.03-.07-.01-.11.21-.43.43-.74.64-.95.22-.21.37-.4.44-.54.09-.17.12-.37.1-.6-.02-.14 0-.3.03-.5.17-.9-.42-1.78-1.76-2.67a6.38 6.38 0 0 0-1.19-.53l-.4-.16c-.04-.01-.06-.04-.06-.07 0-.04.02-.06.05-.07.25-.1.45-.17.6-.17.19 0 .39.06.58.2a16.58 16.58 0 0 1 4.93 21.16Z" fill="#F0F3FA"/><path d="M31.08 17.69c-.01 0-.02.02-.01.03 0 .01.01.02.02.01.99-.38 1.92-.68 2.8-.9 1.73-.45 3.43-.48 5.08-.1.24.07.4.21.45.45l.13.59c.02.07 0 .13-.06.17a.16.16 0 0 1-.18.02c-1.45-.73-3-.95-4.65-.66-1.17.2-2.19.75-3.04 1.64a4.3 4.3 0 0 0-.48.67l-.25.37c-.03.05-.07.05-.1.01a3.54 3.54 0 0 0-.6-.57c-.42-.29-.9-.5-1.43-.63a3.1 3.1 0 0 0-1.54-.04c-.46.13-.9.3-1.33.52-.33.17-.75.43-1.26.79a81.82 81.82 0 0 0-2.89 2.23c-.6.28-1.09.3-1.45.08a.08.08 0 0 1-.04-.08c0-.03.02-.06.05-.07.7-.3 1.33-.73 1.91-1.28.79-.74 1.34-1.25 1.65-1.52a4.4 4.4 0 0 1 1.18-.67 7.52 7.52 0 0 1 3.5-.55c.02 0 .03 0 .02-.03v-.04a6.97 6.97 0 0 0-4 .61c-.32.16-.65.37-.97.64a17.24 17.24 0 0 0-1.4 1.32 7.3 7.3 0 0 1-1.93 1.31.3.3 0 0 0-.18.27c-.01.12.04.21.14.28l.04.02c.3.18.6.22.93.11l.7-.23h.16a4.98 4.98 0 0 0 1.46.39c.35.05.62.07.8.08 1.5.01 2.94-.15 4.37-.48.54-.12.96-.27 1.27-.46.39-.23.7-.56.94-.98.02-.04.06-.06.1-.05 2 .4 4 .3 6-.28a7.82 7.82 0 0 0 1.53-.64c.06-.03.1-.02.1.04v.05l-.03.04-.24.3c-.2.25-.37.44-.52.56a8.74 8.74 0 0 1-3.34 1.83 16.11 16.11 0 0 1-3.71.38h-3.55a61.85 61.85 0 0 1-4.84-.32c-.86-.1-1.67-.1-2.42-.03-.3.02-.55.12-.77.27a1 1 0 0 0-.39.54.8.8 0 0 0 .08.63c.12.22.33.4.63.54.49.22 1.07.42 1.76.6.87.2 1.83.37 2.89.5 2.4.3 4.68.4 6.86.3l3.66-.17a12.2 12.2 0 0 0 3.01-.5c.05-.01.1 0 .13.02.04.03.07.06.07.11l.15 1.06c.02.1-.02.15-.12.17l-4.74.67c-.07.01-.1.05-.1.13l.2 2.4c0 .09-.04.15-.12.18l-1.14.36a.56.56 0 0 1-.23.03l-15.3-1.54c-.54-.05-1-.06-1.37-.01-.47.05-.96.1-1.46.13-.12 0-.18-.05-.2-.16l-.07-.32a.1.1 0 0 0-.08-.09c-.09-.02-.26 0-.5.1-.04 0-.06 0-.07-.03-.02-.03-.01-.05.01-.07l1.03-.83c.01 0 .02-.01.01-.03l-.03-.01c-.44.07-.9.08-1.37.04-.02 0-.03-.02-.04-.04a4.9 4.9 0 0 0 1.94-2.15c.03-.04.01-.07-.03-.08a2.74 2.74 0 0 0-1.8.28h-.05c-.01-.01-.02-.03-.01-.05.14-.52.35-1 .63-1.4a9.92 9.92 0 0 1 1.68-2.03.07.07 0 0 0 .03-.06.07.07 0 0 0-.05-.06c-.04-.02-.1-.01-.17 0a6.7 6.7 0 0 1-.59.16c-.03 0-.05-.01-.07-.04 0-.03 0-.06.03-.07a7.66 7.66 0 0 0 2.05-1.44c.03-.03.03-.05-.02-.06-.51-.12-1-.15-1.49-.09-.02 0-.04 0-.05-.03l.01-.05a13.76 13.76 0 0 1 4.57-2.65c0-.01 0-.02-.02-.02a16 16 0 0 1-2.59-.15c-.02 0-.03-.01-.03-.03 0-.02 0-.03.02-.04.52-.2 1.04-.51 1.57-.92.32-.25.76-.55 1.32-.89a6.7 6.7 0 0 1 3.02-.95c.1 0 .15.04.16.13l.03.24c.02.14.1.25.23.32.48.25 1.01.3 1.6.19.43-.1.94-.3 1.54-.62.31-.17.67-.07 1.07.28.3.26.55.59.76.97.02.05.02.12-.01.23-.01.04 0 .07.04.08.27.11.52.15.75.1.04 0 .08-.01.11-.03a13.18 13.18 0 0 1 5.75-1.97 5.27 5.27 0 0 1 4.5 1.4c.03.02.03.04-.02.05a.6.6 0 0 1-.25.02c-1.23-.2-2.49-.19-3.77.05-1.12.21-2.34.61-3.67 1.2Z" fill="#B0ED31"/><path d="m27.64 16.15-.98-.94c-.02-.02-.02-.05-.01-.07.01-.03.03-.04.06-.04.14 0 .28.09.43.24.08.09.15.15.2.19.22.14.4.39.52.74l.02.04.18.22c.02.02.02.05 0 .08a.08.08 0 0 1-.06.05h-.03c-.07.02-.12 0-.14-.07l-.18-.42-.01-.02Z" fill="#74A60E"/><path d="M22.86 17.28a10.98 10.98 0 0 0-3.03 1.5 7.9 7.9 0 0 1 2.98-1.68 7.91 7.91 0 0 1 3.41-.18 11 11 0 0 0-3.36.36Z" fill="#030303"/><path d="M38.18 19.96c-.03 0-.04 0-.03-.03.23-.85.05-1.62-.54-2.3v-.06c.01-.02.03-.02.05-.02.57.13 1.11.35 1.64.67.05.02.08.06.1.1.15.34.06.68-.26 1.02-.26.27-.58.48-.96.62ZM33.93 17.7c.02 0 .04 0 .05.02v.05a2.39 2.39 0 0 0-.1 2.87l.21.23c.02.02.03.04.02.07a.07.07 0 0 1-.06.04c-.46.05-1.15.03-2.06-.05a3.12 3.12 0 0 1-.82-.17c-.21-.08-.26-.24-.15-.49a4.59 4.59 0 0 1 2.91-2.57ZM13.25 21.42c-.02.02-.02.04 0 .06.01.02.03.02.06.01a5.17 5.17 0 0 1 1.73-.41c.03 0 .05.01.06.04.01.02 0 .05-.01.07-.11.12-.27.24-.46.35a17.08 17.08 0 0 1-2.28 1.17 16.3 16.3 0 0 1 2.56-4.83c.03-.04.06-.05.1-.03.64.28 1.34.43 2.1.45.04 0 .1.02.14.05.02 0 .03.02.03.03a12.41 12.41 0 0 0-3.26 2.18c-.28.25-.54.54-.77.86ZM36.83 19.9a.98.98 0 1 0 0-1.96.98.98 0 0 0 0 1.96ZM34.95 19.74a.63.63 0 1 0 0-1.26.63.63 0 0 0 0 1.26ZM27.46 18.99c-.03-.01-.04-.03-.03-.06 0-.03.02-.04.05-.04a4.1 4.1 0 0 1 2.46.61c.32.2.57.43.74.7.02.03.04.07.04.11.09.35 0 .68-.26.99-.22.26-.5.47-.85.64-.25.11-.6.23-1.04.35-.02 0-.03 0-.05-.02a.05.05 0 0 1 0-.05c.28-.58.32-1.19.1-1.82A2.53 2.53 0 0 0 27.47 19ZM35.74 20.34a.32.32 0 1 0 0-.64.32.32 0 0 0 0 .64Z" fill="#F0F3FA"/><path d="M27.27 21.83a1.02 1.02 0 1 0 0-2.03 1.02 1.02 0 0 0 0 2.03ZM25.31 21.67a.65.65 0 1 0 0-1.3.65.65 0 0 0 0 1.3Z" fill="#F0F3FA"/><path d="M34.36 23.21a.03.03 0 0 1-.02-.03 9.1 9.1 0 0 0 3.23-1.7c.23-.19.42-.33.58-.43a.26.26 0 0 1 .33.01c.13.1.24.23.31.37.13.24.2.42.21.54.02.19-.05.37-.21.53-.37.38-.82.58-1.34.6a64.49 64.49 0 0 0-3.08.14v-.03Z" fill="#74A60E"/><path d="M23.8 21.1c-.06.52.08 1 .42 1.47a.1.1 0 0 1 0 .11.1.1 0 0 1-.1.06 7.96 7.96 0 0 1-1.87-.4.08.08 0 0 1-.06-.07c0-.04.01-.07.04-.09l1.44-1.15a.08.08 0 0 1 .09-.01c.03.02.04.04.04.08ZM26.14 22.3a.34.34 0 1 0 0-.67.34.34 0 0 0 0 .67ZM13.64 22.86c.02 0 .04.01.06.04l-.01.06-.59.76c-.66.9-1.08 1.9-1.25 2.97 0 .05.01.08.05.1.04.03.08.02.11-.02.45-.48 1-.76 1.64-.82.03 0 .04 0 .06.03v.06c-.21.4-.52.76-.93 1.08-.38.3-.79.53-1.24.7-.05.03-.08 0-.08-.05.02-1.63.27-3.22.77-4.77a.1.1 0 0 1 .1-.08l1.3-.06Z" fill="#F0F3FA"/><path d="M21.57 24.46c.51.19 1.04.32 1.6.4a21.53 21.53 0 0 0 4.16.26c.8 0 1.4 0 1.82-.03 1.4-.08 2.8-.26 4.18-.53.04-.01.08 0 .12.01.25.14.4.2.45.2a173 173 0 0 0 3.03.2c.28.01.53.09.76.23a.1.1 0 0 1 .04.09.1.1 0 0 1-.06.08c-.68.29-1.74.46-3.2.53l-1.51.08c-1.98.11-3.46.15-4.46.12-2.21-.08-4.37-.3-6.48-.68a8.44 8.44 0 0 1-1.18-.28 8.72 8.72 0 0 1-1.05-.38c-.4-.19-.66-.4-.76-.61a.57.57 0 0 1 .04-.55.8.8 0 0 1 .42-.36c.37-.14.97-.2 1.8-.18h.12c.23 0 .55.03.96.07 1.76.18 3.12.28 4.06.29 2.68.04 4.44.04 5.28.01.55-.02 1.33-.1 2.35-.25.04 0 .06 0 .07.05v.03c0 .01 0 .02-.02.02-.46.1-.7.4-.72.9 0 .1-.06.17-.17.2-1.72.34-3.45.53-5.21.55-1.34.01-2.32 0-2.96-.05a38.88 38.88 0 0 1-3.47-.45c-.09-.01-.1 0 0 .03Z" fill="#74A60E"/><path d="m40.12 26.87-.6.09c-.14.02-.25-.04-.31-.18a13.98 13.98 0 0 0-.44-.9c-.2-.38-.36-.64-.49-.76-.2-.18-.48-.29-.85-.32-.82-.06-1.97-.13-3.46-.21a.44.44 0 0 1-.35-.18.45.45 0 0 1-.09-.38V24c.04-.15.11-.28.23-.38.12-.1.26-.16.41-.17 2.11-.11 3.48-.16 4.1-.14.17 0 .3.12.42.34.52 1.03 1.04 2.03 1.55 2.98.03.05.03.1 0 .16a.15.15 0 0 1-.12.08Z" fill="#C0A1F7"/><path d="M38.52 26.94c-.01 0-.02 0-.03-.02v-.02c-.11-.3-.19-.55-.23-.77-.04-.22-.04-.33 0-.35h.01c.05-.02.12.07.23.27.1.2.2.44.31.73l.01.02-.01.04-.29.1Z" fill="#D9D9D9"/><path d="m39.88 31.38-3.76-3.6a.12.12 0 0 1-.04-.13.12.12 0 0 1 .1-.08l5.17-.65c.05 0 .08.01.11.05s.04.08.03.12l-1.4 4.24a.12.12 0 0 1-.1.08.12.12 0 0 1-.11-.03Z" fill="#C0A1F7"/><path d="M34.14 36.13c0-.04.02-.07.05-.09a.1.1 0 0 1 .09 0c.5.2.94.3 1.35.33.3.01.46-.1.47-.32.02-.2-.06-.38-.23-.57a4.8 4.8 0 0 0-.41-.38c-.02-.02-.03-.05-.02-.07 0-.03.03-.05.06-.05h.13c.35-.03.59-.07.72-.14.2-.12.3-.34.25-.66a.34.34 0 0 0-.17-.27l-1.08-.62c-.07-.04-.07-.08-.02-.13l.22-.17c.37-.27.56-.48.58-.64.04-.24-.07-.43-.3-.57-.2-.12-.43-.17-.7-.17l-.9.06c-.22.02-.36-.02-.43-.14a1.15 1.15 0 0 1-.1-.45v-.1a134 134 0 0 1-.24-2.94c0-.06.02-.09.08-.1l2.06-.29c.08 0 .15.01.21.07l4.22 4.08c.03.02.05.03.09.02.03 0 .05-.03.06-.06.3-.99.72-2.29 1.26-3.9.02-.06.04-.1.06-.1.05-.02.08 0 .08.05.02.77.07 1.77.13 3 0 .07-.02.13-.07.18l-.04.04c-.29.27-.45.5-.5.67-.13.44-.07.82.17 1.12.03.05.03.09-.01.13a.79.79 0 0 0-.26.8 3.29 3.29 0 0 0 .46.95c.04.06.04.12.02.19 0 .03-.03.09-.06.16a.8.8 0 0 0-.09.33c.01.16.12.37.34.62l.08.1c.04.04.06.1.07.15l.02.67c0 .09-.04.13-.12.14l-7.45.3c-.05 0-.07-.02-.08-.07l-.05-1.16Z" fill="#C0A1F7"/><path d="M15.01 38.18c-.1-.06-.22-.2-.38-.43a16.4 16.4 0 0 1-3.17-9.6c0-.04.02-.05.05-.05l1.08.2c.02 0 .03.02.04.04 0 .02 0 .04-.02.06-.47.43-.75.94-.86 1.52 0 .04 0 .06.04.08.03.01.06 0 .08-.02a2.2 2.2 0 0 1 1.02-.8.17.17 0 0 1 .18.04c.05.04.07.1.06.16-.05.38-.17 1.01-.36 1.89-.05.2 0 .48.13.82.34.88.92 2.27 1.74 4.19a11.09 11.09 0 0 1 .4 1.9h-.03Z" fill="#F0F3FA"/><path d="M33.13 35.59c.04.04.03.07-.01.1-.53.3-1.19.43-1.97.4-.51-.02-1.29-.03-2.34-.03L27 36.04c-2.23-.06-4.45-.1-6.66-.12-.5 0-.92 0-1.27.04a3.7 3.7 0 0 0-1.5.5c-.02.02-.03.04 0 .06l.01.03h.02c.43-.2.95-.3 1.57-.3 3.35.04 6.8.1 10.37.18.78.01 1.49 0 2.11-.03.63-.03 1.23-.2 1.8-.52a.2.2 0 0 1 .2 0c.07.03.1.09.11.17l.12 1.45c.01.15.1.22.24.21 2.2-.07 4.08-.13 5.64-.16.3-.01.47.1.51.34.03.2.08.44.15.74.04.14 0 .27-.09.38a16.41 16.41 0 0 1-12.05 5.53c-2.14.04-4.19-.32-6.15-1.07a16.96 16.96 0 0 1-5.33-3.3c-.02 0-.04-.02-.07-.05a7.58 7.58 0 0 1-.82-.83c-.3-.37-.45-.71-.46-1.04a6.4 6.4 0 0 0-.68-2.65l-.3-.65a61.1 61.1 0 0 0-.92-2.24c-.13-.3-.23-.58-.3-.85a2.19 2.19 0 0 1-.02-.9c.07-.45.16-.8.26-1.07a.2.2 0 0 1 .1-.11 5.08 5.08 0 0 1 1.8-.23c.52-.02 1.38.04 2.6.19l.85.1c4.47.4 8.66.82 12.55 1.23.2.03.48.09.81.2.04 0 .06.03.06.06 0 .04-.02.06-.06.07a1.2 1.2 0 0 0-.78.65c-.2.45-.28.92-.23 1.4.05.54.26.95.63 1.24.15.13.51.35 1.08.7.1.05.18.12.24.2ZM33.23 30.7l.01.01c.03.1.02.18-.04.26a.39.39 0 0 1-.23.17l-.04.01a.4.4 0 0 1-.28-.02.3.3 0 0 1-.17-.2v-.02l.75-.2Z" fill="#5813D2"/><path d="M42.33 32.08c-.01-.42-.25-.76-.53-.75-.28 0-.5.36-.48.78 0 .43.24.77.52.76.28 0 .5-.36.49-.79ZM34.4 34.75a9.33 9.33 0 0 1 1.43 1.14c.01.05 0 .1-.03.13a.14.14 0 0 1-.12.04 5.93 5.93 0 0 1-1.7-.51c-.39-.17-.95-.47-1.68-.9-.5-.28-.76-.73-.78-1.34 0-.27.02-.53.08-.77.08-.31.2-.53.37-.65a11.3 11.3 0 0 1 .4-.12c.26-.06.46-.12.6-.2.12-.07.23-.1.33-.12.06-.01.1.02.1.09.01.11.04.2.07.29.02.04.06.07.1.08.24.1.61.12 1.12.06.27-.03.47-.04.6-.03.2.01.35.08.47.2.04.04.06.09.06.15s-.03.1-.07.14l-1.03.83a.06.06 0 0 0-.03.06c0 .03.02.04.04.05.54.25 1 .48 1.36.69.15.08.22.17.21.28 0 .08-.04.14-.1.2a.3.3 0 0 1-.2.09 42.73 42.73 0 0 1-1.6.09v.03ZM41.97 33.75c-.12-.36-.36-.62-.53-.56-.17.06-.21.4-.09.77.13.37.37.63.54.57.17-.06.2-.4.08-.78Z" fill="#B0ED31"/><path d="M41.85 35.13c.06-.03.1-.02.14.03l.1.17c.08.14.14.27.16.39.02.12 0 .2-.04.23h-.01c-.06.04-.13.02-.23-.06-.1-.07-.2-.18-.28-.32l-.1-.16c-.03-.06-.02-.1.03-.14l.23-.14Z" fill="#D9D9D9"/><path d="m41.6 37.42-.78 1.03a.05.05 0 0 1-.05.02c-.03 0-.04-.02-.04-.04l-.07-.87c0-.08.03-.12.1-.12l.82-.07c.02 0 .02 0 .03.02v.03Z" fill="#F0F3FA"/></svg>