<svg width="112" height="112" viewBox="0 0 56 56" xmlns="http://www.w3.org/2000/svg"><circle cx="28" cy="28" r="17" fill="#B5F7FE"/><path d="M33.17 28a.94.94 0 0 0-.53-1 .4.4 0 0 1-.16-.15 1.1 1.1 0 0 0-.45-.46.06.06 0 0 1-.02-.02l-.01-.03.08-.83v-.03l.03-.02c.36-.22.62-.53.76-.91.23.09.4.1.51 0a7.65 7.65 0 0 1 1.75-1.09c.56-.25 1.17-.4 1.8-.44a6.5 6.5 0 0 1 1.9.13c.6.14 1.12.58 1.53.97.45.43.64.95.57 1.56 0 .02 0 .05.02.07l.07.04.77.19c.05.01.1.04.13.07l.58.58.09.06c.03.02.07.02.1.03l1.14.07.07.01.05.04.04.06v.06l-.02.3a.1.1 0 0 1-.02.05 6.97 6.97 0 0 1-1.82.3c-.38.02-.8.1-1.18.1-1.63.01-3.25.02-4.87.01-.64 0-1.62.1-2.91.28Z" fill="#fff"/><path d="M26.52 20c-.2-.1-.33-.29-.4-.57-.3-.81 0-1.67.52-2.35a.2.2 0 0 1 .27-.05.2.2 0 0 1 .08.12.2.2 0 0 1-.01.15c-.46.87-.74 1.43-.28 2.34.08.16.02.34-.18.36Z" fill="#050506"/><path d="M33.64 24.43a2 2 0 0 1-.75 1.06v.03l-.08.94a.06.06 0 0 0 .03.05c.18.11.32.28.43.52.04.07.09.13.16.17.37.25.54.62.5 1.13-.08.61-.54.94-1.08 1.28a.1.1 0 0 0-.05.08c0 .21-.01.35-.02.4l-.34 1.72c-.08.44-.13 1.1-.17 1.97-.04.87.2 1.86.58 2.6a.18.18 0 0 0 .17.1c.67-.04 1.1.25 1.31.88l.12.36a.3.3 0 0 0 .07.12c.59.59 1.23 1.16 1.73 1.77.59.7 1.13 1.44 1.64 2.22l-.48.33a.07.07 0 0 1-.05.01.07.07 0 0 1-.04-.03l-1.39-2.04a8.88 8.88 0 0 0-1.61-1.82.04.04 0 0 0-.03.03c-.05.14-.14.28-.26.4a.07.07 0 0 0-.01.08c.3.55.41 1.22.53 1.83a20.14 20.14 0 0 1 .26 2.9.1.1 0 0 1-.03.03c-.12.08-.24.14-.37.17.04-1.09-.07-2.23-.32-3.41l-.35-1.26a.03.03 0 0 0-.02-.02.03.03 0 0 0-.03 0 5.2 5.2 0 0 1-1.94.92.1.1 0 0 0-.04.07.1.1 0 0 0 0 .04l.36 1.03a6.65 6.65 0 0 1-.15 3.42l-.33.06a.05.05 0 0 1-.04-.02.05.05 0 0 1-.01-.04c.16-.6.26-1.2.3-1.83.02-.41-.01-.79-.1-1.13a4.68 4.68 0 0 0-.46-1.46h-.05c-2.58.46-5.17.3-7.76-.49a4.8 4.8 0 0 1-1.39-.65.07.07 0 0 0-.04.03l-.43.56a31.37 31.37 0 0 0-2.08 3.03h-.04a.8.8 0 0 1-.49-.36 44.78 44.78 0 0 1 2.58-3.62l-.01-.06a1.48 1.48 0 0 1-.02-1.16c.13-.4.37-.6.72-.81a.27.27 0 0 0 .1-.12c.07-.15.1-.34.16-.48.28-.65.6-1.33.55-2.11a10.32 10.32 0 0 0-.65-3.05c-.33-.87-.58-1.63-.77-2.26a3.13 3.13 0 0 1 0-1.64.1.1 0 0 0-.04-.1 2.8 2.8 0 0 1 .33-4.64.23.23 0 0 0 .08-.08c.2-.36.5-.65.88-.87 1-.66 2.1-1.1 3.28-1.33a7.76 7.76 0 0 1 3.72.38c.58.2 1.01.48 1.32.83.02.03.06.05.1.06l.35.06c.38.07.66.26.99.5.9.65 1.23 1.56.97 2.72Z" fill="#050506"/><path d="M35.93 40.1c-.4.33-.85.5-1.38.52-.12-.61-.24-1.28-.53-1.83a.07.07 0 0 1 .01-.08 1.11 1.11 0 0 0 .27-.42.04.04 0 0 1 .04 0h.01c.6.53 1.14 1.14 1.58 1.81ZM31.74 41.55a22.1 22.1 0 0 1-5.83-.3c-.3-.06-.58-.13-.87-.22-1.14-.37-2.2-.79-3.16-1.26a.95.95 0 0 1-.27-.23l.43-.56a.06.06 0 0 1 .04-.03 4.8 4.8 0 0 0 1.39.65 16.25 16.25 0 0 0 7.8.49c.02 0 .03.02.04.03.21.43.36.9.43 1.43Z" fill="#D5D5D5"/><path d="M34.09 40.31c-.5.78-1.17 1.04-2.02.78l-.36-1.03a.1.1 0 0 1 .01-.08.1.1 0 0 1 .06-.05 5.2 5.2 0 0 0 1.94-.9.03.03 0 0 1 .02.02l.35 1.26Z" fill="#E23F3D"/><path d="M34.09 40.31c.25 1.18.36 2.32.32 3.41-.8.33-1.63.6-2.49.79l.15-.63c.2-.9.2-1.83 0-2.79.85.26 1.53 0 2.02-.78Z" fill="#F9605B"/><path d="M27.27 20c-.13.03-.2-.05-.24-.19-.12-.66.11-1.17.5-1.63.37-.44.79-.82 1.25-1.16a.12.12 0 0 1 .11-.01c.04 0 .07.03.09.07v.01c.02.04.02.09.02.13-.01.05-.03.09-.07.11-.61.51-1.16.94-1.5 1.61-.16.3-.13.58-.1.94l-.01.07a.09.09 0 0 1-.05.04Z" fill="#050506"/><path d="M22.93 21.97a7.76 7.76 0 0 1 4.2-1.53c.92-.02 1.83.15 2.76.49a2.52 2.52 0 0 1 .66.38.04.04 0 0 1 0 .04l-.02.01a4.3 4.3 0 0 0-2.02 1.08 2.67 2.67 0 0 0-.76 2.23h-.01l-.76-.06h-.02l-.01-.02v-.01c.15-1.35-.99-2.41-2.21-2.63a6.78 6.78 0 0 0-1.81.03Z" fill="#fff"/><path d="M31.03 21.7c.6.14.99.25 1.48.7.65.58.76 1.55.3 2.3a3.68 3.68 0 0 1-2.1 1.66 1.6 1.6 0 0 1-.78-.06 3.17 3.17 0 0 1-1.47-.82 1.42 1.42 0 0 1-.3-.69c-.26-1.79 1.12-2.84 2.72-3.09h.15ZM26.33 25.07c-.27.43-.57.77-.9 1.03-.1.07-.38.2-.84.4-.92.38-1.88.27-2.69-.32a1.96 1.96 0 0 1-.62-1c-.3-.96.14-2.05 1.04-2.48l.26-.16c.09-.06.19-.1.3-.13 1.38-.26 2.68-.2 3.47 1.08.32.51.3 1.06-.02 1.58Z" fill="#fff"/><path d="M29.97 26.71a.02.02 0 0 1 .02.02v.02h-.01c-.28.11-.52.28-.72.51-.49.6-.85.98-1.08 1.16-.67.54-1.37.15-1.96-.33-.44-.37-.98-.93-1.68-1.09a.02.02 0 0 1 0-.05 4.7 4.7 0 0 0 1.22-.63c.3-.25.62-.62.96-1.13.04-.05.1-.1.15-.12.24-.11.5-.1.76.03.04.02.08.05.1.1a3.5 3.5 0 0 0 2.24 1.51Z" fill="#FFCC69"/><path d="M32.25 26c.06.14.09.23.07.29a.22.22 0 0 1-.17.16c-.05 0-.09 0-.12-.03a.16.16 0 0 1-.07-.09c-.03-.11.04-.23.22-.34a.05.05 0 0 1 .04 0 .05.05 0 0 1 .03.02ZM32.47 26.6c.36.04.6.3.7.76a.32.32 0 0 1-.1.32.95.95 0 0 1-.72.26.95.95 0 0 1-.65-.38.32.32 0 0 1-.05-.33c.18-.45.46-.65.82-.62Z" fill="#fff"/><path d="M31.33 26.64h.25a.09.09 0 0 1 .07.14c-.22.32-.28.58-.18.78.28.57 1.02.74 1.58.41.2-.11.3-.27.33-.48a.05.05 0 0 1 .09-.02c.36.52.34 1-.05 1.46-.07.08-.28.24-.65.47a2.56 2.56 0 0 1-1.98.26.15.15 0 0 1-.04-.04c-.5-.86-.23-2.13.37-2.88a.28.28 0 0 1 .21-.1Z" fill="#1EA79A"/><path d="M30.82 26.83a3.21 3.21 0 0 0-.46 2.39l.12.31v.03a.04.04 0 0 1-.02.03h-.03a4.18 4.18 0 0 1-1.28-.55l-.63-.3a.05.05 0 0 1-.02-.03.04.04 0 0 1 0-.04l1.29-1.35a.33.33 0 0 1 .08-.06l.9-.5a.04.04 0 0 1 .05.02.04.04 0 0 1 0 .05Z" fill="#1EA79A"/><path d="M28.04 29.9c1.08.53 1.85.86 2.32.99.44.12.98.12 1.6 0-.26 1.2-.37 2.25-.34 3.14.03.86.21 1.64.53 2.36a2.08 2.08 0 0 0 .4.63.07.07 0 0 1-.02.06l-.02.02c-.5.21-1.02.36-1.58.44-2.16.3-4.33.21-6.52-.28a11.25 11.25 0 0 1-1.54-.49.07.07 0 0 1 0-.06c.23-.43.45-.93.65-1.51.17-.5.24-.98.2-1.44-.07-.95-.27-2-.62-2.98-.28-.76-.57-1.57-.81-2.38a3.12 3.12 0 0 1 0-1.47.08.08 0 0 1 .08-.03 4.12 4.12 0 0 0 1.42.23.03.03 0 0 1 0 .05l-.01.01-.88.26a.2.2 0 0 0-.1.1.1.1 0 0 0 0 .1.1.1 0 0 0 .07.04l.83.09a.18.18 0 0 1 .16.19l-.1 1.31a.12.12 0 0 0 .18.1l.67-.4a.08.08 0 0 1 .1 0c.3.32.68.54 1.15.7.78.23 1.5.31 2.18.22Z" fill="#fff"/><path d="m23.98 29.06.09-1.13a.28.28 0 0 0-.16-.28 1.4 1.4 0 0 0-.39-.1h-.02v-.03a.03.03 0 0 1 .02-.03l.54-.15h.02c.6-.02 1.09.32 1.5.7l.02.03a.05.05 0 0 1-.02.05l-1.55.97a.03.03 0 0 1-.03 0 .03.03 0 0 1-.02-.03Z" fill="#1EA79A"/><path d="M28.85 29.2c-.38.2-.73.31-1.05.34a3.94 3.94 0 0 1-2.8-.78.05.05 0 0 1 .03-.07c.27-.08.5-.22.7-.41a.08.08 0 0 1 .1 0c.68.54 1.48 1.09 2.34.6a.11.11 0 0 1 .13.01 1.43 1.43 0 0 0 .55.27v.03Z" fill="#FFCC69"/><path d="M31.96 30.9c-.62.1-1.16.1-1.6-.01-.47-.13-1.24-.46-2.32-.99a3.61 3.61 0 0 0 1.23-.52 4.72 4.72 0 0 0 2.93.54v.01l-.24.96Z" fill="#D5D5D5"/><path d="M33.61 38.57c0-.28-.18-.34-.3-.5-.14-.21-.36-.63-.64-.63a.8.8 0 0 0 .22-.33.18.18 0 0 1 .07-.1c.22-.14.44-.1.66.1.3.27.41.62.34 1.06 0 .03-.02.05-.04.07l-.3.33Z" fill="#E23F3D"/><path d="M32.67 37.44c.28 0 .5.42.65.63.11.16.3.22.3.5-.36.34-.75.58-1.17.74-.98.37-2.07.58-3.28.64-1.88.1-3.76-.15-5.62-.73-.48-.15-1.1-.38-1.4-.78-.29-.4-.25-.91.06-1.28a.32.32 0 0 1 .38-.09c.32.15.52.24.8.32 2.25.66 4.66.85 7.23.56.8-.09 1.47-.26 2.05-.5Z" fill="#F9605B"/><path d="M31.37 24.97c.3-.01.54-.2.53-.44 0-.23-.26-.4-.57-.4-.3.02-.55.22-.54.45.01.23.27.4.58.4ZM23.34 25.56c.36-.06.61-.32.57-.58-.04-.26-.37-.43-.72-.37-.36.06-.61.32-.57.58.04.26.37.42.72.37ZM32.59 27.47a.23.23 0 1 0 0-.45.23.23 0 0 0 0 .45ZM32.63 29a.4.4 0 0 1-.1.32.63.63 0 0 1-.55.18.55.55 0 0 1-.2-.06.44.44 0 0 1-.13-.13.36.36 0 0 1-.06-.15.4.4 0 0 1 .1-.33.6.6 0 0 1 .35-.18.63.63 0 0 1 .2 0c.07.02.14.04.19.07.05.03.1.08.13.12.04.05.06.1.07.16Z" fill="#050506"/><path d="M32.13 29.3c.19-.03.32-.14.3-.26 0-.13-.16-.21-.34-.19-.19.02-.32.14-.3.26 0 .12.16.2.34.18Z" fill="#fff"/></svg>