<svg width="112" height="112" viewBox="0 0 56 56" xmlns="http://www.w3.org/2000/svg"><rect fill="url(#aqwnp1ase)" width="56" height="56" rx="28"/><path fill-rule="evenodd" d="m11 18 17 5.54L45 18 28 44 11 18Zm1.84 1.28L28 24.39l15.16-5.11L28 42.3 12.84 19.28ZM28 25.68 15.6 21.4l11.94 18.33v-5.12l-5.97-8.52L28 28.23l10.57-3.84 2.3-2.98L28 25.67Zm-2.3 2.98 2.3.85 9.65-3.41-9.2 13.64v-5.12l2.77-3.83L28 32.07l-2.3-3.41Z" fill="#ED1B24"/><defs><linearGradient id="aqwnp1ase" x1="10.42" y1="9.71" x2="68.15" y2="76.02" gradientUnits="userSpaceOnUse"><stop stop-color="#1A1E21"/><stop offset="1" stop-color="#06060A"/></linearGradient></defs></svg>