<svg width="56" height="56" viewBox="0 0 56 56" xmlns="http://www.w3.org/2000/svg"><path d="M15.49 21.8c-.53.84-1.07 1.49-1.6 2.47a14.59 14.59 0 0 0-1.62 9.87c.93 4.44 3.73 6.9 7.58 8.33 5.73 2.13 14.2 2.42 19.3-1.63 5.41-4.3 6.27-11.2 2.7-16.86-.22-.34-.58-.89-.8-1.2-.36-.5-.7-.6-.37-1.2 1-1.84 1.92-3.77 1.88-6.01-.05-4.01-5.86-.53-7.85.25-1.37.54-2.44-1.74-6.62-.85-1.56.33-2.22-.19-3.68-.05-.68.06-2.87.77-3.11.69-1.27-.46-1.94-3.93-4.4-3.59-.9.53-1.97 5.82-2.1 7.34-.14 1.79.41 1.82.69 2.43Z" fill="#0B0403"/><path d="M12.8 29c-.15 2.61-.4 3.84.45 6.4a9.46 9.46 0 0 0 2.87 4.29c4.86 4.27 16.22 5.26 22.28.97 2.3-1.62 5.02-4.88 4.99-9.25-2.7-2.17-4.11-5.18-6.42-8.2-2.9-3.78-6.27-3.2-9.02.41-.38.51-1.23 1.54-2.27 1.33-.94-.18-.89-1.5-1.19-2.37-.34-.99-.74-1.64-1.8-1.8-3.14-.44-5.07 2.54-6.41 4.5-.72 1.03-2.47 3.23-3.48 3.71Z" fill="#F3E9E0"/><path d="M12.8 29c1.01-.49 2.76-2.7 3.48-3.73 1.34-1.95 3.27-4.93 6.4-4.49 1.07.16 1.47.81 1.81 1.8.3.87.25 2.19 1.19 2.37 1.04.2 1.89-.82 2.27-1.33 2.75-3.6 6.12-4.19 9.02-.4 2.3 3 3.72 6.02 6.42 8.2.22-5.2-3.6-9.07-3.62-9.4.19-.55.59-1.1.86-1.62.66-1.3 2.18-5.33.88-6-1.34-.52-5.02 1.25-6.11 1.76-1.65.77-1.55.28-2.95-.29-2.6-1.06-4.1-.15-5.46-.16-.65 0-1.2-.19-1.82-.22a7.93 7.93 0 0 0-3.31.72c-1.7.65-2.08-2.74-3.86-3.21.2.45.4.74.72 1.25.46.73 1.86 3.07.9 3.74-.9.62-1.48-.42-1.85-.66-.04 2.1.36 2.37-.82 2.7l-.18.06-.09.04c.8 1.97-.03.37-2.05 4.08-.99 1.8-1.22 2.74-1.83 4.78Z" fill="#786E6C"/><path d="m40 16.94.02.66c-.3-.15-.04-.03-.21-.18-.2-.19.03-.12-.3-.25a3.01 3.01 0 0 0-1.49 2.1c-.4 1.86 1.52 3.1 2.54-1.05.19-.75.55-2.46.41-3.17l-.92-.05c-1.67.39-4.9.86-5.05 2.62-.1 1.33 1.84 1.9 2.74 1.34.51-.32.7-2.42 2.27-2.02Z" fill="#C3AB9D"/><path d="M16.63 21.4c.25-.83-.1-.69-.2-1.24-.1-.53.5-.36.97-.46.33-.96-.05-2.16.22-2.88.76.2.44 1.36 1.92.98.6-1.56-1.64-4.21-2.38-4.8-.84 1.1-1.73 5.38-1.77 6.68-.04.94.4 1.93 1.24 1.71Z" fill="#C5AB9E"/><path d="M27.44 16c-1.05.06-1.83 1.19-2.21 2.24-.42 1.15-.27 3.08.51 3.64 1.27.9 3.23-3.53 1.7-5.88Z" fill="#F3E9E0"/><path d="M29 25.5c.44 2.48 4.32 3.67 7 .94-.16-.62-2.02-2.33-3.05-2.43-1.28-.12-3 .84-3.95 1.5Z" fill="#3E3236"/><path d="M34.24 26.44c.32-1-.6-1.87-1.34-2.04-1.11-.25-2.05.38-2.27 1.2-.6 2.18 2.91 2.93 3.6.84Z" fill="#070716"/><path d="M30.89 25.65c.94.26.46.47 1.03 1.19.31-.19.12.21.21-.21-.05-.72.15-1 .76-.6l.05.54c.2-.23.18-.16.23-.41.39.27.44.11.5.59.91-.67.02-1.78-.63-2.02-1.03-.39-1.9.2-2.15.92Z" fill="#5BB7CF"/><path d="M33.67 26.75c-.06-.48-.11-.32-.5-.6-.05.26-.03.2-.23.42-.12.1-.08.05-.22.15-.26 0-.46-.05-.59-.1-.09.43.1.03-.2.22-.58-.72-.1-.93-1.04-1.2-.39 2.03 2.42 2.18 2.78 1.1Z" fill="#8DD7F1"/><path d="M23.48 37.04c-1.85.34-3.18-.63-3.85-2.08-.41-.9-.24-1.16-.63-1.43-.04 1.33.92 2.43 1.53 3 .96.9 2.07.97 3.49.59.36.45.4 1.04 1.31 2.1a5.03 5.03 0 0 0 6.17 1.19c1.71-1.04 4-.67 5.22-3.3.48-1.03.33-1.9-.34-2.5-.77-.67-1.72-.65-2.86-.58.14-1.02.64-2.71 0-3.51-.48.18-1.24 2.58-1.57 3.18-1.39 2.56-2.82 3.87-6.12 3.42-1.13-.15-3.02-.37-3.41-1.25 3.1-.12 5.7-3.5 3.06-5.2-2.15-1.4-7.5-.7-5.78 3.07.34.74 1.03 1.6 1.63 1.86 1.74.75.51.55 1.6 1.1l.55.34Z" fill="#0C0A04"/><path d="M19.75 31.94c.51.43 1.17.34 1.4 1.96-.55-.2-.6-.42-1.28-.52.2.83 1.13 1.97 1.88 2.06 0-.36-.13-.77-.15-1.13-.02-.47-.04-.83.25-1.16-.27 3.12.46 2.9 2.84 1.76l-.87-.84c-.52-.45-.77-.12-1.2.1-.05-.58.18-1.15.74-1.23.68-.09 1.01.42 1.66.5 2.16.28 2.03-3.23-2.66-3.18-1.4.02-2.26.5-2.6 1.68ZM31.5 40.09c-2.01-.15-2.52-.25-3.76-1.28-.42-.35-1.05-1.22-1.25-1.31-.1-.05-1.97-.38-2.06-.37-.01.77 1.4 2.52 2.48 3.08 1.6.83 3.2.58 4.59-.12Z" fill="#3E3236"/><path d="m21.14 31.1.3.2c.75.33 2.78.44 3.62.38-.03-.51-.96-1.25-2.78-.93-.49.09-.9.13-1.14.36Z" fill="#B1AAAC"/><path d="M31.83 34.48c.22-.06.4-.13.67-.22l.35-.1.38-.2c.3-.64.44-2.33.23-3l-1.63 3.52Z" fill="#3E3236"/><path d="M26.91 37.43c.18.64 1.3 1.5 1.92 1.84 2.52 1.4 7.22-.04 7.86-2.76.29-1.24-.44-1.93-1.45-2.19a5.5 5.5 0 0 0-3.27.42c-.55.27-.66.5-.98.93-.28.37-.55.61-1 .92-.87.62-1.79.8-3.08.84Z" fill="#AA6569"/><path d="M18.05 23.43c-.17.6.03 3.09 2.16 3.5 1 .19 1.64 0 2.32-.48.47-.33 1.28-.92 1.47-1.45a5.98 5.98 0 0 0-2.29-1.9c-1.13-.34-2.34.3-3.66.33Z" fill="#3E3236"/><path d="m19.24 24.51.6.05c.3.67.55.78.67 1.66l-.54-.19c.62.82 3.1 0 2.25-1.55-.37-.67-2.12-1.4-2.98.03Z" fill="#B49037"/><path d="m19.97 26.03.54.19c-.12-.88-.37-.99-.66-1.66l-.61-.05c-.33.86.19 1.4.73 1.52Z" fill="#E6B965"/><path d="M20.77 25.6c.36.15.56.16.86-.01.13-.49.04-.72-.25-.75-.13-.02-.31 0-.53.07l-.08.7Z" fill="#0B0403"/></svg>