<!-- by TradingView --><svg width="56" height="56" viewBox="0 0 56 56" xmlns="http://www.w3.org/2000/svg"><path fill="#E64171" d="M0 0h56v56H0z"/><path d="M11.18 34.72a63.88 63.88 0 0 1 19.55-22.13c1.16-.83 2-.87 2.73.4A62.4 62.4 0 0 1 42 41.15c.03.54-.04.95-.22 1.23-.55.88-1.44.68-2.3.27a79.38 79.38 0 0 0-13.38-5.05c-4.16-1.16-9.1-1.1-13.59-.67-1.19.11-1.84-1.24-1.32-2.21Zm21.31-7.94-3.8 3.08a.53.53 0 0 1-.74-.08l-.09-.11a.47.47 0 0 1 .1-.67l2.89-2.2.02-.02a.08.08 0 0 0-.04-.1l-1.7-.79a.66.66 0 0 1-.37-.52.64.64 0 0 1 .27-.6l4.74-3.37c.05-.04.09-.1.1-.16a.26.26 0 0 0-.03-.2c-.65-1.14-1.84-2.38-3.22-2.54-2.05-.23-4.43 1.63-5.68 3.04-2.3 2.6-4.16 6.13-3.06 9.51 1.81 5.55 9.42 6.63 12.63 1.68 1.82-2.8 1.44-7.12.16-10.02a.27.27 0 0 0-.18-.15.28.28 0 0 0-.23.04l-3.5 2.5c-.07.05-.07.1.02.15.5.26 1.96.6 1.8 1.36a.28.28 0 0 1-.09.17Z" fill="#fff"/></svg>