<!-- by TradingView --><svg width="56" height="56" viewBox="0 0 56 56" xmlns="http://www.w3.org/2000/svg"><path fill="url(#aop4gnj51)" d="M0 0h56v56H0z"/><path fill-rule="evenodd" d="M21 23h-4v3h4v-3Zm-5 0v3h-4v-3h4Zm-4 7v-3h4v3h-4Zm0 1v3h4v-3h-4Zm4 7.97A4.5 4.5 0 0 1 12.03 35H16v3.97Zm1 0V35h3.97A4.5 4.5 0 0 1 17 38.97ZM21 31v3h-4v-3h4Zm0-1v-3h-4v3h4Zm-4-8v-3.97A4.5 4.5 0 0 1 20.97 22H17Zm-1 0h-3.97A4.5 4.5 0 0 1 16 18.03V22Zm-5 .5a5.5 5.5 0 0 1 5-5.48V17h1v.02c2.8.25 5 2.61 5 5.48v12a5.5 5.5 0 1 1-11 0v-12Zm33 .5h-4v3h4v-3Zm-5 0v3h-4v-3h4Zm-4 7v-3h4v3h-4Zm0 1v3h4v-3h-4Zm4 7.97A4.5 4.5 0 0 1 35.03 35H39v3.97Zm1 0V35h3.97A4.5 4.5 0 0 1 40 38.97ZM44 31v3h-4v-3h4Zm0-1v-3h-4v3h4Zm-4-8v-3.97A4.5 4.5 0 0 1 43.97 22H40Zm-1 0h-3.97A4.5 4.5 0 0 1 39 18.03V22Zm-5 .5a5.5 5.5 0 0 1 5-5.48V17h1v.02c2.8.25 5 2.61 5 5.48v12a5.5 5.5 0 1 1-11 0v-12ZM24 24h3v3h-3v-3Zm8 0h-3v3h3v-3Zm-3 5h3v3h-3v-3Zm-2 0h-3v3h3v-3Z" fill="url(#bop4gnj51)"/><defs><linearGradient id="aop4gnj51" x1="10.42" y1="9.71" x2="68.15" y2="76.02" gradientUnits="userSpaceOnUse"><stop stop-color="#1A1E21"/><stop offset="1" stop-color="#06060A"/></linearGradient><linearGradient id="bop4gnj51" x1="41" y1="16" x2="13.5" y2="40" gradientUnits="userSpaceOnUse"><stop stop-color="#36C9FF"/><stop offset=".53" stop-color="#7D81FF"/><stop offset="1" stop-color="#DA26FF"/></linearGradient></defs></svg>