<!-- by TradingView --><svg width="56" height="56" viewBox="0 0 56 56" xmlns="http://www.w3.org/2000/svg"><path fill="#181B1E" d="M0 0h56v56H0z"/><path d="M25.8 10.6c1.36-.8 3.04-.8 4.4 0l11.6 6.78c1.36.79 2.2 2.25 2.2 3.84v13.56c0 1.59-.84 3.05-2.2 3.84l-11.6 6.79c-1.36.79-3.04.79-4.4 0l-11.6-6.79a4.45 4.45 0 0 1-2.2-3.84V21.22c0-1.59.84-3.05 2.2-3.84l11.6-6.79Z" fill="url(#a)"/><path d="M16 22.35c0-.83.42-1.6 1.1-2.02l9.81-6.02c.67-.41 1.5-.41 2.18 0l8.16 5.04a.91.91 0 0 1 0 1.53L27 27.4v13.07c0 .62-.66.99-1.15.66l-1.45-.76a.9.9 0 0 1-.4-.75V26.5c0-.36.18-.69.48-.87l8.85-5.4L28 16.77l-8.68 5.53a.68.68 0 0 0-.32.57v13.29c0 .35-.37.56-.66.37l-1.5-.78a1.92 1.92 0 0 1-.84-1.6v-11.8Z" fill="#FCFDFF"/><path d="M28 29.33c0-.59.3-1.14.8-1.44l10.23-6.29c.43-.26.97.06.97.58v1.19c0 .47-.24.91-.63 1.15L31 29.86v2.45L39.35 27c.29-.18.65.04.65.38v1.58c0 .48-.24.91-.63 1.16L31 35.44v2.46l8.03-5.13c.43-.26.97.06.97.58v1.18c0 .48-.24.92-.63 1.16l-10.08 6.19c-.57.35-1.29-.08-1.29-.77V29.33ZM23 25.37a.9.9 0 0 1 .43-.77l7.07-4.37a.34.34 0 0 0 0-.58l-2.5-1.2-7.44 4.57A1.2 1.2 0 0 0 20 24.1v13c0 .35.17.67.44.85l1.9 1.05c.29.2.66-.02.66-.38V25.37Z" fill="#FCFDFF"/><defs><linearGradient id="a" x1="28" y1="10" x2="28" y2="46" gradientUnits="userSpaceOnUse"><stop stop-color="#F83AAC"/><stop offset="1" stop-color="#5427DB"/></linearGradient></defs></svg>