<!-- by TradingView --><svg width="56" height="56" viewBox="0 0 56 56" xmlns="http://www.w3.org/2000/svg"><path fill="#81E38C" d="M0 0h56v56H0z"/><path d="M32.92 16.88c1.07-2.35 2.92-3.29 5.5-4.23 1.41-.5 2.56-1.04 3.45-1.61a.26.26 0 0 1 .37.09c.02.04.03.09.03.13.01 1.28.14 2.5.4 3.66.04.2.05.42.01.62l-.49 2.65c-.02.1-.06.2-.1.3a7.81 7.81 0 0 1-2.72 2.83.22.22 0 0 0-.07.28l.66 1.17c.04.07.1.11.16.14 1.36.54 2.61 1.37 3.18 2.68.12.26.25.48.4.65.53.59.09 1.15.05 1.73 0 .1 0 .18.04.27.73 1.7-.58 2.65-1.87 3.33a.23.23 0 0 0-.11.14.24.24 0 0 0 .02.18 6.1 6.1 0 0 1 .06 6.4 10.17 10.17 0 0 1-3.17 2.51c-.7.36-1.52.56-2.31.81-.4.13-.72.22-.95.26-3.3.6-5.35.96-6.15 1.04-2.67.26-5.37-.04-8.1-.92-2.3-.74-4.04-1.73-5.2-2.98a10.9 10.9 0 0 1-2.8-5.38c-.06-.34-.1-1.23-.1-2.68 0-2.14.51-3.82 1.52-5.57a.16.16 0 0 0 .02-.11.15.15 0 0 0-.06-.1c-1.19-.86-2.32-1.93-2.25-3.65.09-1.85.28-3.11-.3-4.49a.46.46 0 0 1 .16-.56.44.44 0 0 1 .2-.07c.23-.02.53-.01.92.03.29.02 1.16.2 2.62.54.76.18 1.58.56 2.47 1.16.14.1.26.2.36.34l1.07 1.39a.27.27 0 0 0 .38.05 9.11 9.11 0 0 1 5.6-1.92c.88 0 1.78.25 2.72.77a.3.3 0 0 0 .39-.08c.7-.86 1.9-1.36 3.56-1.5a.52.52 0 0 0 .43-.3Z" fill="#0F0E0D"/><path d="m41.79 11.83.42 3.33c.02.14.02.29 0 .43l-.51 2.5c-.22 1-1.74 2.3-2.61 2.9a.16.16 0 0 1-.22-.04 9.28 9.28 0 0 0-3.82-3.14.3.3 0 0 1-.17-.22.3.3 0 0 1 .07-.26 8.24 8.24 0 0 1 3.81-2.36.11.11 0 0 0 0-.15l-.08-.12a.25.25 0 0 0-.28-.08 8.5 8.5 0 0 0-3.97 2.67.32.32 0 0 1-.25.12c-.24 0-.5-.08-.77-.23a.18.18 0 0 1-.07-.24c.9-1.82 2.45-2.83 4.45-3.55a27.84 27.84 0 0 0 3.86-1.67.13.13 0 0 1 .11.05l.03.06ZM12.54 16.86a9.8 9.8 0 0 1 5.52 1.55 7.49 7.49 0 0 1 1.4 1.8.2.2 0 0 1-.1.2l-.44.27a.26.26 0 0 1-.32-.04c-.86-.87-2.42-2.14-3.68-2.07a.18.18 0 0 0-.13.29c.02.03.06.06.1.06A6.05 6.05 0 0 1 18.32 21a.2.2 0 0 1-.08.23 13.47 13.47 0 0 0-3.45 3.45.16.16 0 0 1-.13.01 8.11 8.11 0 0 1-1.5-1.49c-.53-.77-.39-2.08-.28-3.21a6 6 0 0 0-.43-3.03.1.1 0 0 1 .05-.08.1.1 0 0 1 .04 0Z" fill="#E39FA6"/><path d="M30.34 33c.51-.5.82-.69 1.63-.54 2.33.45 4.75.47 7.25.08.73-.11 1.14-.29 1.93-.57a.2.2 0 0 1 .14 0c.04.01.08.04.1.08a5.75 5.75 0 0 1 .87 3.87c-.26 2.24-1.75 3.2-3.61 4.37-.24.15-.96.42-2.16.8-1.73.55-4.06.82-5.45 1.1-1.3.24-2.37.37-3.22.37a19.8 19.8 0 0 1-8.77-1.97 9.62 9.62 0 0 1-5.45-8.3c-.08-1.86-.06-3.62.74-5.33.7-1.51 1.12-2.58 1.95-3.45 1.42-1.5 3.1-2.54 4.87-3.71a9.38 9.38 0 0 1 3.64-1.31c1.4-.23 2.53.05 3.68.74a.48.48 0 0 0 .6-.1 4.57 4.57 0 0 1 2.8-1.44c.97-.15 2 .05 3.1.58a9.64 9.64 0 0 1 4.41 4.36l-.01.04-.03.03h-.04c-1.4-.09-2.75-.1-4.02-.04-.34.02-1 .19-2 .5a.17.17 0 0 0-.07.05c-.04.06-.06.11-.05.16a.21.21 0 0 0 .1.15.21.21 0 0 0 .17.02 12.72 12.72 0 0 1 6.38-.2 5.38 5.38 0 0 1 3 2.2.1.1 0 0 1-.09.1 5.45 5.45 0 0 0-11.36 1.62.09.09 0 0 1-.11-.03 7.15 7.15 0 0 0-2.68-2.5 3.65 3.65 0 0 0-1.84-.42c-1.66.02-3.2.22-4.62.58a.2.2 0 0 0-.14.23l.01.03c.01.05.04.09.08.11.04.03.09.04.14.03 1.36-.29 2.8-.46 4.35-.52 1.85-.07 3.52 1.35 4.36 2.85a.08.08 0 0 1-.06.12l-.05-.01a7.68 7.68 0 0 0-3.47-1.3 12.07 12.07 0 0 0-6.07.62c-1.03.41-2.32 1.37-2.14 2.6.18 1.26 1.74 1.97 2.96 2.3 1.53.44 3.23.5 5.1.22a7.26 7.26 0 0 0 3.65-1.55.27.27 0 0 1 .4.06c.02.04.04.09.04.14v.05a1.32 1.32 0 0 1-.35.99c-1.55 1.63-3.76 2.03-6.04 2.04-1.2 0-2.35.07-3.5-.23a1.74 1.74 0 0 0-.52 0 .21.21 0 0 0-.2.2.22.22 0 0 0 .18.23c1.81.36 3.83.4 6.05.13a8.92 8.92 0 0 0 2.02-.5.06.06 0 0 1 .03.1c-.6.78-.64 1.48-.14 2.11.2.26.68.48 1.44.66 1.17.3 2.3.15 3.38-.43.52-.28.85-.5 1-.65.45-.45.65-1.37.08-1.84-1.05-.87-3.08-.8-4.31-.57h-.04a.07.07 0 0 1-.02-.1Z" fill="#E39FA6"/><path d="M31.4 29.82c.09-.48.06-.96-.08-1.43a.42.42 0 0 1 .05-.36 5.44 5.44 0 0 1 3.33-2.42c1.83-.43 3.87-.46 6.13-.1.88.13 1.75.52 2.47.97a.46.46 0 0 1 .2.5c-.38 1.6-1.64 2.63-3.17 3.12-.74.24-1.97.5-2.8.52-1.89.04-3.02.04-3.39 0-.75-.1-1.62-.3-2.6-.6a.2.2 0 0 1-.13-.21ZM31.01 29.2c0 .34-.14.67-.42.98-.28.32-.7.6-1.22.85-.53.25-1.16.45-1.85.59a12.12 12.12 0 0 1-4.37.08c-.7-.12-1.33-.3-1.86-.52a3.8 3.8 0 0 1-1.26-.8c-.29-.31-.44-.64-.45-.98 0-.33.14-.67.42-.98.28-.32.7-.6 1.23-.85a8.3 8.3 0 0 1 1.84-.59 12.12 12.12 0 0 1 4.37-.08c.7.12 1.33.3 1.87.53.53.22.96.5 1.25.8.29.3.44.63.45.97Z" fill="#fff"/><path d="M31.89 30.65c.83.22 1.44.35 1.83.4 1.1.12 2.59.12 4.43 0a7.8 7.8 0 0 0 5.1-2.3.2.2 0 0 1 .32.06.2.2 0 0 1 .01.12l-.1.58c-.06.32-.23.6-.48.8a8.2 8.2 0 0 1-4.62 1.85l-1.62.15a16.01 16.01 0 0 1-5.25-.44.1.1 0 0 1-.04-.08l.01-.05a2.43 2.43 0 0 0 .29-1.03.1.1 0 0 1 .07-.06.1.1 0 0 1 .05 0Z" fill="#E39FA6"/><path d="M34.57 34.51a.86.86 0 0 1-.17.57c-.12.18-.32.36-.57.52-.25.16-.56.3-.9.4a5.44 5.44 0 0 1-3.12 0c-.56-.22-.9-.56-.93-.93a.86.86 0 0 1 .16-.57c.13-.19.32-.36.57-.52.26-.16.56-.3.9-.4a5.44 5.44 0 0 1 3.13 0c.56.22.9.55.93.93Z" fill="#CE6258"/><path d="M31.41 37.54a.57.57 0 0 1 .5.4c.02.08.03.16.02.23l-.03.36a1.9 1.9 0 0 1-.33.89c-.18.27-.43.5-.74.7-.3.19-.66.33-1.05.41-.39.08-.8.1-1.2.06l-1.23-.12c-.4-.04-.8-.14-1.16-.3a3.3 3.3 0 0 1-.95-.6 2.45 2.45 0 0 1-.6-.84 1.9 1.9 0 0 1-.14-.93l.03-.36a.59.59 0 0 1 .4-.5.57.57 0 0 1 .23-.02l6.25.62ZM28.4 41.05a.25.25 0 0 1-.13.16.73.73 0 0 1-.27.08h-.37a2.47 2.47 0 0 1-.41-.09l-.2-.05a2.48 2.48 0 0 1-.71-.35.74.74 0 0 1-.19-.21.26.26 0 0 1-.03-.2l2.31.66ZM40.23 27.25c.08.19.12.39.12.6 0 .2-.06.41-.15.6a2.03 2.03 0 0 1-1.63 1.1c-.23.03-.45.01-.66-.05-.2-.06-.4-.16-.55-.3a1.34 1.34 0 0 1-.48-1.07c0-.2.06-.41.15-.61a2.03 2.03 0 0 1 1.63-1.1c.23-.03.45 0 .66.06.2.06.4.16.55.3.16.13.28.29.36.47ZM25.06 29.14a1.33 1.33 0 0 1-.36 1.01 1.5 1.5 0 0 1-1.02.49 1.56 1.56 0 0 1-1.07-.34 1.4 1.4 0 0 1-.5-.95 1.33 1.33 0 0 1 .36-1.02 1.5 1.5 0 0 1 1.02-.49 1.56 1.56 0 0 1 1.07.34 1.4 1.4 0 0 1 .5.96ZM32.2 34.47c0 .2.08.36.2.37.12.01.22-.14.24-.33.02-.2-.07-.36-.19-.37-.12-.01-.23.14-.24.33ZM30.41 34.64c-.02.21.05.4.16.41.12.02.24-.14.26-.36.03-.21-.04-.4-.16-.41-.11-.02-.23.14-.26.36Z" fill="#0F0E0D"/><path d="M38.1 28.6c.26-.03.45-.24.43-.45-.03-.22-.26-.37-.53-.34-.26.03-.45.24-.43.45.03.22.26.37.53.34Z" fill="#fff"/><path d="m37.73 28.71-.1.09a.06.06 0 0 1-.07 0 .06.06 0 0 1-.03-.05c0-.1.05-.15.16-.15l.04.01.02.03a.07.07 0 0 1-.02.07Z" fill="#E39FA6"/><path d="M22.98 28.91c-.18.16-.2.42-.07.58.14.16.4.16.58 0 .18-.17.21-.43.07-.59-.14-.15-.4-.15-.58.01Z" fill="#fff"/><path d="m25.42 39.15-.2-.35a.14.14 0 0 1 .08-.2h.08a7.62 7.62 0 0 1 2.5 1.3.1.1 0 0 1-.05.11.1.1 0 0 1-.07 0l-1.93-.54a.68.68 0 0 1-.4-.32Z" fill="#CE6258"/></svg>