<svg width="112" height="112" viewBox="0 0 56 56" xmlns="http://www.w3.org/2000/svg"><path d="M23.19 13 28 17.82 32.81 13H43v10.15L38.16 28 43 32.85V43H32.81L28 38.18 23.19 43H13V32.85L17.84 28 13 23.15V13h10.19Z" fill="#00C805"/><path d="M32.5 19c.85.03 1.41.2 1.78.52.46.38.93 1.9.62 3.86a.81.81 0 0 1-.16.33 90 90 0 0 0-3 3.8c-.14-1.62-.2-3.24-.18-4.86 0-.23-.18-.35-.4-.35-1.57.16-3.14.42-4.7.76l-.1.02c-.03.03-.06 0-.08-.02-.03-.03-.03-.06 0-.09l.08-.08c.97-1.1 1.99-2.15 3.05-3.16.12-.1.23-.18.4-.24A8.69 8.69 0 0 1 32.5 19Zm-5.63 14.92-.14.05c-.8.28-2 .68-3.03 1.2-.06.02-.11.1-.11.1l-.08.16-.1.24-.25.63-.05.13v.06l.02.02h.03l.13-.05.56-.29.49-.25h.02c.69-.32 1.37-.66 2.05-1 0 0 .08-.05.14-.13l.37-.76v-.06c0-.05-.03-.08-.05-.05Zm-2.98-1.19c.04-.11.28-.57.34-.67v-.03c1.63-3.1 3.6-6.03 5.86-8.7l.06-.08c.03-.03.03-.06 0-.09-.03-.02-.06-.05-.08-.02h-.1c-1.5.21-3.02.49-4.5.86-.16.05-.24.13-.28.16a55.07 55.07 0 0 0-3.16 4.25 35.65 35.65 0 0 0 .62 3.54C21.8 34.52 21 38 21 38h.62c.6-1.82 1.35-3.59 2.26-5.27Zm6.97-8.83v-.1c0-.03-.02-.05-.04-.08-.04 0-.07 0-.1.02l-.04.08a45.86 45.86 0 0 0-6.64 10.26l-.06.08v.08l.03.03h.05l.08-.03c1.48-.61 3-1.16 4.54-1.62a.41.41 0 0 0 .2-.16c.68-1.3 2.22-3.84 2.22-3.84.06-.08.03-.16.03-.16s-.27-3.02-.27-4.56Z" fill="#fff"/></svg>