<!-- by TradingView --><svg width="56" height="56" viewBox="0 0 56 56" xmlns="http://www.w3.org/2000/svg"><path fill="#F0F3FA" d="M0 0h56v56H0z"/><circle cx="28" cy="28" r="18" fill="url(#a1vjfcu3n)"/><circle cx="28" cy="28" r="17" fill="url(#b1vjfcu3n)"/><path d="M34.77 18.24a7.92 7.92 0 0 1 6.31 6.3 7.2 7.2 0 0 1-.22 2.9 21.2 21.2 0 0 1-1.55 3.16c-.12.2-.24.5-.36.86-.29.91-.9 1.51-1.85 1.8a.86.86 0 0 0-.47.15.23.23 0 0 0-.1.16c-.16 1.22-.85 1.92-2.08 2.07a.33.33 0 0 0-.29.31c-.05.9-.51 1.55-1.38 1.95l-1.06.06a.37.37 0 0 0-.3.2c-.44.84-1.33 1.65-2.45 2.73-.68.66-1.5.77-2.46.3-.33-.24-.6-.52-.8-.85-.23-.36-.17-.77-.34-1.18a.19.19 0 0 0-.13-.11c-.57-.17-1.14-.27-1.58-.78a1.94 1.94 0 0 1-.35-.72l-.24-.77a.17.17 0 0 0-.15-.12c-1.04-.06-2.09-.7-2.1-1.86a.46.46 0 0 0-.41-.45c-1.32-.15-2.1-.8-2.18-2.18-.02-.3-.22-.56-.6-.8a10.87 10.87 0 0 1-2.45-4.7 7.22 7.22 0 0 1 2.3-7.21 8.56 8.56 0 0 1 3.67-1.97 8.12 8.12 0 0 1 7.11 2.32c.05.04.1.04.15 0 1.67-1.5 4.18-1.8 6.36-1.57Z"/><path d="m33.61 26.12-.07.16c-.02.03-.04.03-.06 0a.1.1 0 0 0-.05-.04c-.05-.01-.06 0-.05.05.02.05.05.1.1.16-.01.02-.03.01-.06 0l-2.65-2.34a.2.2 0 0 0-.27 0c-1.27 1.22-4.35 4.6-6.36 3.32a.1.1 0 0 0-.1 0 .1.1 0 0 0-.05.1c.05.2.14.32.28.34a.1.1 0 0 1 .09.08c.04.15.14.23.3.24.03 0 .05.01.07.03l.04.04c.04.04.1.06.15.06.35.01.65.14 1 .13.16-.01.33 0 .49.01.42.05.8-.03 1.2-.06.65-.04 1.4-.24 1.93-.27.13 0 .2-.05.2-.14 0-.04.02-.07.05-.1a.35.35 0 0 0 .08-.1 92.46 92.46 0 0 1 2.53 2.43c.3.3.57.66.83 1.08-.48.3-.97.49-1.46.58a.49.49 0 0 0-.18-.14c-.5-.42-1-.77-1.43-1.26-.53-.58-1.1-1.25-1.7-1.54-.88-.42-1.69.7-.82 1.26.37.24.56.4.84.58l.4.4a.2.2 0 0 1-.01.08c-.02.04-.04.05-.08.02l-.05-.03c-.02-.01-.03 0-.04.01a.2.2 0 0 0-.03.07c-.01.03-.03.05-.07.05a13.41 13.41 0 0 1-1.84.06.13.13 0 0 1-.06.04c-.03.02-.06.01-.1-.02-.14-.15-.26-.2-.35-.13a84.1 84.1 0 0 0-3.14-3.18c-.54-.52-1.02-.83-1.7-.23l-1.51-1.35a.17.17 0 0 1-.06-.14c0-.22-.35-.43-.44-.69a.22.22 0 0 0-.13-.13l-.05-.02a.13.13 0 0 1-.1-.1 1.18 1.18 0 0 0-.28-.55c-.2-.24-.52-.87-.96-1.88a3.6 3.6 0 0 1-.22-.95c-.05-.38-.29-.82-.16-1.3.5-.54.94-.9 1.3-1.1.4-.21.69-.43.88-.64a.08.08 0 0 1 .08-.02h.06c.04-.02.06-.04.03-.08l-.14-.25c2.82-1.39 5.92-.45 8.12 1.58.03.03.03.07 0 .1a43.02 43.02 0 0 0-4.92 4.93.22.22 0 0 0-.04.22c.54 1.59 3.08 1.73 4.19.8 1.2-1 2.34-2.03 3.43-3.11a.11.11 0 0 1 .08-.04c.03 0 .06.01.08.04l2.96 2.88Z" fill="#5FE8FF"/><path d="M20.57 23.25a1.78 1.78 0 0 0-.31-.77.22.22 0 0 1-.04-.19c.04-.15.01-.27-.1-.35a.26.26 0 0 1-.08-.13l-.16-.5a.18.18 0 0 1 .01-.14.15.15 0 0 0 0-.15.35.35 0 0 1-.04-.11l-.16-1.2a.3.3 0 0 0-.08-.17l-.05-.06c-.05-.05-.05-.1 0-.13a6.44 6.44 0 0 1 3.15-.86c.63-.03 1.26.08 1.9.32a11 11 0 0 1 1.85.91c.24.14.26.32.07.51l-4.47 4.85c-.04.04-.07.04-.1-.02-.08-.19-.2-.34-.37-.46a.23.23 0 0 1-.1-.15c-.02-.16-.13-.24-.3-.25a.14.14 0 0 1-.14-.08c-.13-.28-.2-.44-.25-.47a.69.69 0 0 1-.23-.4Z" fill="#83F0FF"/><path d="m19.71 18.72.14.25c.03.04.01.06-.03.08h-.06c-.03-.01-.06 0-.08.02-.2.21-.48.43-.88.64-.36.2-.8.56-1.3 1.1a6.69 6.69 0 0 0-1.3 2.4c-.05.1-.08.25-.1.46-.07.51-.2.89-.12 1.47a8.3 8.3 0 0 0 1.69 4.19c.34.42.48.82 1.13.4.94-.6 1.8-1.2 2.62-1.81.67-.6 1.15-.29 1.7.23a84.1 84.1 0 0 1 3.13 3.18c.94.84 1.93 1.58 2.86 2.45.42.4 1.88 1.9 2.46 1 .03-.06.04-.12.03-.18a2.04 2.04 0 0 0-.5-.98 80.87 80.87 0 0 0-2.22-2.43l-.4-.4c.19.04.36.18.51.4.03.04.06.07.1.08.04.02.05 0 .02-.03L28.05 30c1.67 1.61 3.31 3.23 4.94 4.86 1.26 1.26-.29 2.97-1.68 2.25a1.88 1.88 0 0 1-.52-.53 1.94 1.94 0 0 0-1.83-.75c-.06 0-.1-.03-.09-.1.14-1.46-.84-2.53-2.35-2.27-.07.02-.1-.01-.09-.08.19-1.48-.94-2.63-2.39-2.25-.06.02-.1 0-.09-.07.07-1.1-.35-1.85-1.25-2.23-.62-.27-1.23-.15-1.83.35a15.8 15.8 0 0 0-2.03 2.02.3.3 0 0 1-.44.01 9.73 9.73 0 0 1-2.66-5.72c-.3-3 1.4-5.44 3.97-6.77Z" fill="#00C7FF"/><path d="M30.43 22.65a89.7 89.7 0 0 1-2.27 2.13c-.91.83-1.5 1.31-1.73 1.43-.75.37-2.6.46-3.06-.58a.14.14 0 0 1 .03-.16 35.6 35.6 0 0 1 5.12-5.05 6.35 6.35 0 0 1 2.4-1.25c3.63-.94 6.84.06 8.76 3.37 1.35 2.33.44 5.62-1.07 7.82-.03.05-.06.05-.09 0a3.35 3.35 0 0 0-.34-.41l-7.48-7.3a.2.2 0 0 0-.27 0Z" fill="#00FFA1"/><path d="M34.15 19.35a5.45 5.45 0 0 1-1.81 3.76c-1.16-1.07-1.77-1.36-3.1-.16-.78.7-1.58 1.35-2.4 1.97-.06 0-.11 0-.16-.02a.11.11 0 0 1-.08-.1c0-.07-.03-.11-.08-.14-.33-.16-.7-.6-.94-.88a.15.15 0 0 0-.14-.06l-.2.02c.86-.94 1.68-1.6 2.55-2.37a7.71 7.71 0 0 1 6.36-2.02Z" fill="#009F63"/><path d="M34.15 19.35c.78.06 1.6.32 2.48.78-.17.93-.44 1.8-.8 2.6-.36.8-.85 1.5-1.48 2.11l-2.01-1.73c1.1-1 1.7-2.26 1.81-3.76Z" fill="#00B873"/><path d="M36.63 20.13c.54.27 1.07.64 1.6 1.1 1.06.94 1.39 2.41 1.33 3.67l-.03.15-.22.52a.68.68 0 0 1-.08.16c-.35.45-.44 1.1-1.21 1a4.7 4.7 0 0 1-1.67-.55c-.76-.42-1.43-.87-2-1.34a6.77 6.77 0 0 0 1.48-2.11c.36-.8.63-1.67.8-2.6Z" fill="#00D786"/><path d="M17.5 20.8c-.13.5.11.93.16 1.3.05.44.12.76.21.96.45 1.01.77 1.64.97 1.88.17.2.26.38.29.54 0 .06.04.1.09.11l.05.02c.06.02.1.07.13.13.1.26.45.47.44.69 0 .05.01.1.06.14l1.52 1.35c-.81.6-1.69 1.21-2.63 1.82-.64.41-.78.01-1.12-.41a8.3 8.3 0 0 1-1.7-4.19c-.08-.58.05-.96.12-1.47a6.69 6.69 0 0 1 1.4-2.87Z" fill="#4CDDFF"/><path d="M26.84 24.92c-.64.51-1.45 1.03-2.3.95-1.08-.11.47-1.89.7-2.13l.2-.02c.06 0 .1.01.14.06.23.29.61.72.94.88.05.03.08.07.08.13s.03.1.08.11c.05.02.1.02.16.02Z" fill="#00B873"/><path d="M33.42 26.44c-.05.03-.1.03-.16 0-.05-.01-.08 0-.1.05-.12.3-.58.6-.93.93-.16.15-.35.28-.59.41l-.69-.63a.15.15 0 0 0-.1-.04.35.35 0 0 1-.24-.11.3.3 0 0 0-.16-.09.71.71 0 0 0-.76.36.2.2 0 0 0-.02.18c.04.11.11.2.2.3a.36.36 0 0 1-.08.1.13.13 0 0 0-.05.09c0 .09-.07.13-.2.14-.52.03-1.28.23-1.93.27-.4.03-.78.1-1.2.06a3.39 3.39 0 0 0-.5-.01c-.34 0-.64-.12-.99-.13a.2.2 0 0 1-.15-.06l-.04-.04a.13.13 0 0 0-.07-.03c-.16-.01-.26-.09-.3-.24a.1.1 0 0 0-.1-.08c-.13-.02-.22-.13-.27-.34a.1.1 0 0 1 .04-.1.1.1 0 0 1 .11 0c2.01 1.28 5.09-2.1 6.36-3.31a.2.2 0 0 1 .27 0l2.65 2.32Z" fill="#83F0FF"/><path d="M33.61 26.12c1.27 1.21 2.52 2.44 3.75 3.68.68.68 1.27 1.14.63 2.02a1.9 1.9 0 0 1-1.8.8.23.23 0 0 1-.15-.07l-5.26-5.26c-.1-.1-.22-.1-.33 0l-.06.05a.14.14 0 0 0-.04.1.14.14 0 0 0 .04.1l5.32 5.35c.05.04.07.1.08.16.14 1.2-.7 2.06-1.93 1.9a.27.27 0 0 1-.16-.07l-3.03-2.97a.23.23 0 0 1 .22-.01l.01.01.02.05c0 .04.03.05.07.06h.05V32a.26.26 0 0 0-.03-.03v-.03c.08-.15.2-.18.32-.11.06.03.1.02.14-.03a.13.13 0 0 1 .12-.06c.05.02.11.06.18.14.47.49 1.18 1.12 1.82 1.21.06.01.1 0 .15-.05.38-.4-.2-1.27-.51-1.74a5.86 5.86 0 0 0-.83-1.08 92.18 92.18 0 0 0-2.53-2.43.81.81 0 0 1-.2-.3.2.2 0 0 1 .02-.17c.17-.28.43-.4.76-.36a.3.3 0 0 1 .16.09c.07.07.15.1.24.1.04 0 .07.02.1.05l.7.63c.8.9 1.95 1.74 2.59 2.3.56.51 1.4 1.03 2.15.74.52-.2.56-.67.26-1.09a19.27 19.27 0 0 0-3.16-3.33.56.56 0 0 1-.1-.16c-.02-.04 0-.06.04-.05a.1.1 0 0 1 .05.04c.02.03.04.03.06 0l.07-.16Z" fill="#00C7FF"/><path d="M33.42 26.44c.03.02.05.03.06.01 1.16 1 2.28 2.07 3.17 3.33.3.42.26.89-.26 1.09-.75.3-1.59-.23-2.15-.73-.64-.57-1.79-1.4-2.6-2.3.24-.14.43-.27.59-.42.35-.32.8-.62.93-.93.02-.05.05-.06.1-.04.06.02.11.02.16 0ZM31.59 31.74c-.05 0-.1.01-.12.06-.04.05-.08.06-.14.03-.13-.07-.24-.04-.33.1v.04l.04.03v.02h-.05c-.04 0-.06-.02-.07-.06 0-.02 0-.03-.02-.05l-.01-.01a.23.23 0 0 0-.22 0l-2.27-2.23a.22.22 0 0 0-.29-.01c-.13.1-.15.2-.06.34l1.06 1.24c.03.03.02.05-.02.03a.18.18 0 0 1-.1-.07c-.15-.23-.32-.37-.5-.42-.29-.18-.48-.34-.85-.58-.87-.56-.06-1.68.82-1.26.6.3 1.17.96 1.7 1.54.43.49.94.84 1.43 1.26Z" fill="#4CDDFF"/><path d="M22.84 29.4c-.06 0-.1.02-.13.05a.09.09 0 0 0-.01.1l.04.08c.03.84-.09 1.25-.88 1.6a.33.33 0 0 1-.16.02c-.22-.02-.34.09-.52.08-.31 0-.62-.08-.93-.2a.23.23 0 0 1-.13-.3.23.23 0 0 1 .08-.1c.27-.2.37-.4.31-.61.55-.72 1.46-1.31 2.33-.72Z" fill="#00B873"/><path d="M22.84 29.4c.5.37.71.88.65 1.52 0 .06-.03.11-.06.16-.64.76-1.93 2.38-2.9 2.57-.65.12-1.15-.14-1.53-.78-.32-.56-.14-1.13.53-1.73.13.35.28.6.45.77.05.04.12.07.19.06.17 0 .33.05.46.15.04.03.08.04.12.04l.73-.04c.07 0 .12-.03.17-.08.18-.22.39-.4.63-.54.06-.03.1-.07.13-.12.31-.55.74-1.12.33-1.75l-.04-.07a.09.09 0 0 1-.02-.06.1.1 0 0 1 .03-.05c.03-.03.07-.05.13-.05Z" fill="#00FFA1"/><path d="M22.74 29.63c.4.63-.02 1.2-.33 1.75a.33.33 0 0 1-.13.12c-.24.14-.45.32-.63.54a.22.22 0 0 1-.17.08l-.73.04a.17.17 0 0 1-.12-.04.66.66 0 0 0-.46-.15.26.26 0 0 1-.19-.06 1.98 1.98 0 0 1-.45-.77l.98-1.02c.06.2-.04.4-.31.6a.23.23 0 0 0-.05.33c.03.03.06.06.1.07.31.13.62.2.93.21.18.01.3-.1.52-.08.05 0 .1 0 .16-.03.8-.34.91-.75.88-1.6Z" fill="#00D786"/><path d="M28.88 31.19c.56.58 1.3 1.39 2.22 2.43.27.3.43.63.5.98.01.06 0 .12-.03.17-.58.9-2.04-.59-2.46-.99-.93-.87-1.92-1.61-2.86-2.45.09-.07.2-.02.36.13.03.03.06.04.1.02a.13.13 0 0 0 .05-.04 13.43 13.43 0 0 0 1.84-.06c.04 0 .06-.02.07-.05a.2.2 0 0 1 .03-.07c0-.02.02-.02.04 0l.05.02c.04.03.06.02.08-.02a.2.2 0 0 0 0-.07ZM33.23 31.3c.3.47.89 1.35.5 1.74a.17.17 0 0 1-.14.05c-.64-.09-1.36-.72-1.82-1.2.5-.1.98-.3 1.46-.6Z" fill="#4CDDFF"/><path d="M23.93 35.53c-1.24 1.16-3.36-.25-2.24-1.65.48-.6 1.1-1.25 1.86-1.93 1.13-1.01 2.56-.13 2.44 1.3 0 .05-.03.1-.06.15-.62.76-1.29 1.47-2 2.13Z" fill="#00FFA1"/><path d="M25.44 32.31c.02.71-.15 1.1-.66 1.52-.17.13-.37.21-.59.24-.31.04-.54.05-.66.02-.57-.14-.9-.35-1-.65.46-.74 2.2-2.51 2.91-1.13Z" fill="#00B873"/><path d="M25.44 32.31c.3.2.1.78-.05 1.02a3.6 3.6 0 0 1-1.3 1.14.28.28 0 0 1-.15.03c-.54-.04-1.1-.01-1.56-.34a.17.17 0 0 1-.07-.14.8.8 0 0 1 .22-.58c.1.3.43.51 1 .65.12.03.35.02.66-.02.22-.03.42-.1.58-.24.52-.42.7-.8.67-1.52Z" fill="#00D786"/><path d="M28.03 34.34a1.35 1.35 0 0 1-.02 1.9L26.23 38a1.35 1.35 0 0 1-1.9-.02l-.1-.08a1.35 1.35 0 0 1 .02-1.9l1.8-1.76a1.35 1.35 0 0 1 1.9.01l.08.09Z" fill="#00FFA1"/><path d="M27.57 35.87c-.7.48-1.51.57-2.41.29-.1-.03-.17-.08-.2-.15a.4.4 0 0 1 0-.26c.46-.59 1.93-2.11 2.76-1.38.14.12.2.29.18.5-.02.3-.13.63-.33 1Z" fill="#00B873"/><path d="M24.95 35.75a.4.4 0 0 0 .01.26c.03.07.1.12.2.15.9.28 1.7.19 2.4-.29-.15.25-.36.48-.65.7-.22.16-.48.24-.76.23a4.15 4.15 0 0 1-1.44-.33.25.25 0 0 1-.06-.27c.07-.18.17-.33.3-.45Z" fill="#00D786"/><path d="M30.29 36.72a1.34 1.34 0 0 1 0 1.9l-1.8 1.78a1.35 1.35 0 0 1-1.9 0l-.08-.1a1.35 1.35 0 0 1 0-1.9l1.79-1.77a1.35 1.35 0 0 1 1.9 0l.09.1Z" fill="#00FFA1"/><path d="M30.06 36.73c-.57 1.32-1.39 1.68-2.45 1.08.48-.64 1-1.07 1.53-1.28.26-.1.57-.03.92.2Z" fill="#00B873"/><path d="M30.06 36.73c.24.66.12 1.25-.34 1.75a1.5 1.5 0 0 1-.91.47c-.36.06-.71.05-1.07-.01-.16-.03-.38-.14-.55-.12a.2.2 0 0 1-.18-.33l.6-.68c1.06.6 1.88.24 2.45-1.08Z" fill="#00D786"/><defs><linearGradient id="a1vjfcu3n" x1="39.95" y1="13.71" x2="21.69" y2="44.45" gradientUnits="userSpaceOnUse"><stop stop-color="#DCDCDF"/><stop offset="1" stop-color="#B6B6BA"/></linearGradient><linearGradient id="b1vjfcu3n" x1="37.73" y1="16.54" x2="22.86" y2="42.04" gradientUnits="userSpaceOnUse"><stop stop-color="#FAFAFA"/><stop offset="1" stop-color="#FAFAFA" stop-opacity="0"/></linearGradient></defs></svg>