<svg width="112" height="112" viewBox="0 0 56 56" xmlns="http://www.w3.org/2000/svg"><path d="M14.2 31.54a.11.11 0 0 0-.02-.11.12.12 0 0 0-.1-.05 5.36 5.36 0 0 1-4.38-1.3c-.3-.26-.53-.53-.67-.82a.36.36 0 0 1 .03-.35c.03-.05.08-.1.13-.12a.38.38 0 0 1 .18-.05h.95l.04-.01a.08.08 0 0 0 0-.12c-.47-.35-1.17-.78-1.05-1.43a.23.23 0 0 1 .13-.18.25.25 0 0 1 .23.01c.46.26.84.46 1.37.34 2.89-.66 4.03-2.97 5.26-5.3.37-.68.72-1.42 1.06-2.23.42-.98.83-1.73 1.25-2.26a7.94 7.94 0 0 1 2.66-2.13 4.01 4.01 0 0 1 3.8.05c.07.03.13.04.2.02a.25.25 0 0 0 .14-.12 6.1 6.1 0 0 1 2.08-2.25c1.1-.7 2.71 1.55 3.14 2.32 0 .02.02.03.04.05a.16.16 0 0 0 .12.03c.02 0 .04 0 .06-.02a3.98 3.98 0 0 1 3.69-.15 7.7 7.7 0 0 1 2.94 2.33c.39.52.82 1.33 1.28 2.43.3.69.63 1.37 1.01 2.07 1.16 2.1 2.39 4.68 5.19 5.17.41.07.85-.03 1.3-.31a.32.32 0 0 1 .28-.03c.05.01.08.04.11.07l.06.12c.1.54-.6 1.1-1.03 1.35a.1.1 0 0 0-.04.05.1.1 0 0 0 .03.1.1.1 0 0 0 .06.02h.86c.06 0 .12.02.16.06.31.22.33.48.06.78a5.45 5.45 0 0 1-4.9 1.83.1.1 0 0 0-.06.07 3.3 3.3 0 0 1-.18 3.77c-.07.1-.3.35-.7.76-.1.11-.19.24-.25.39a5.99 5.99 0 0 1-2.65 3c-1.98 1.15-5.06.75-5.52-1.87a.3.3 0 0 1 .03-.17c.02-.06.06-.1.11-.14a.33.33 0 0 1 .35-.01l.6.34a.31.31 0 0 0 .3 0c.32-.17.51-.36.6-.6a4.05 4.05 0 0 0 .2-1.43.1.1 0 0 0-.08-.05 10.01 10.01 0 0 1-5.03 1.46.2.2 0 0 0-.13.05.19.19 0 0 0-.06.1l-.03.28c-.17 1.8-2.8 1.81-2.89-.04 0-.1-.04-.19-.1-.26a.41.41 0 0 0-.27-.12 9.8 9.8 0 0 1-4.7-1.4.15.15 0 0 0-.12.05.14.14 0 0 0-.03.06c-.12.56.03 1.13.43 1.7a.5.5 0 0 0 .66.16l.55-.3a.32.32 0 0 1 .33 0 .29.29 0 0 1 .13.3 3 3 0 0 1-2.2 2.43 7.29 7.29 0 0 1-2.07-.03 5.88 5.88 0 0 1-3.9-3.65.62.62 0 0 0-.17-.24c-1.4-1.2-1.68-2.68-.87-4.47Z" fill="#010101"/><path d="M36.43 22.62c-.53.28-.91.63-1.15 1.06-.14.25-.35.44-.63.55-2.17.92-4.35 1.86-6.54 2.83a.2.2 0 0 0-.12.18l-.08 2.54c-.65-.32-.95-1.29-1.07-1.92a.66.66 0 0 0-.28-.42 23.91 23.91 0 0 0-5.35-2.75.77.77 0 0 1-.35-.25l-2.05-2.67a.2.2 0 0 1-.03-.19.21.21 0 0 1 .13-.14l.1-.02a.27.27 0 0 1 .27.06l2.08 2.21c.05.06.12.1.19.13l4.23 1.37a.2.2 0 0 1 .12.12l.07.2c.02.05.05.1.1.13a.3.3 0 0 0 .43-.07c.53-.87.9-1.57 1.1-2.1a.27.27 0 0 0-.01-.2.28.28 0 0 0-.13-.14.3.3 0 0 0-.37.09c-.26.38-.5.83-.74 1.35a.19.19 0 0 1-.1.1.2.2 0 0 1-.13 0c-.72-.19-1.4-1.03-1.84-1.5a.57.57 0 0 1-.15-.33c-.27-2.95.83-6.16 2.67-8.33.32-.38.64-.65.95-.8a.6.6 0 0 1 .67.08c.8.73 1.44 1.52 1.9 2.37a12.65 12.65 0 0 1 1.57 6.5c0 .26-.12.5-.32.69l-1.15 1.09a.62.62 0 0 1-.78.04 4.5 4.5 0 0 0-.83-1.35c-.06-.05-.18-.04-.36.03a.33.33 0 0 0-.19.19.31.31 0 0 0 .03.26l1.17 1.96c.02.05.07.09.12.11a.3.3 0 0 0 .3-.03.28.28 0 0 0 .1-.13l.06-.17a.26.26 0 0 1 .18-.17l3.94-1.28c.24-.08.47-.22.64-.4l1.8-1.97a.3.3 0 0 1 .3-.08l.1.03.06.03a.13.13 0 0 1 .03.13l-.04.06c-.28.24-.48.55-.62.92Z" fill="#006384"/><path d="M42.52 28.54a3.79 3.79 0 0 1-2.44-1.29c-.3-.32-.62-.79-.98-1.4a8.23 8.23 0 0 0-1.48-2.92.2.2 0 0 1-.03-.2c.46-.99.34-2.19-1.1-1.9l-1.29-.53-.22-.5a.3.3 0 0 0-.14-.15.32.32 0 0 0-.38.08.3.3 0 0 0-.07.2c0 .74.27 1.42.8 2.05a.13.13 0 0 1-.01.18l-.9.97a.35.35 0 0 1-.15.1l-1.5.5c.3-.98.31-1.98.05-2.99a31.5 31.5 0 0 0-.8-3.17 9.2 9.2 0 0 0-.7-1.47.12.12 0 0 1 .03-.1 3.39 3.39 0 0 1 3.16-.05 6.6 6.6 0 0 1 2.9 2.59c.65 1.12 1.18 2.6 1.79 3.67.72 1.27 1.3 2.51 2.28 3.7a6.07 6.07 0 0 0 3.8 2.13l.02.05-.01.05a3.44 3.44 0 0 1-2.28.15c-.15-.03-.26.05-.35.25ZM23.8 23.89c-.77-.24-1.4-.44-1.9-.62-.18-.06-.53-.4-1.06-1.01a.16.16 0 0 1 0-.22l.5-.56a2.69 2.69 0 0 0 .39-1.56.29.29 0 0 0-.1-.2.3.3 0 0 0-.4-.02.3.3 0 0 0-.11.18c-.18.88-.17 1.06-.67 1.7a.13.13 0 0 1-.1.05.13.13 0 0 1-.1-.04l-.62-.65a.32.32 0 0 0-.18-.1 1.54 1.54 0 0 0-1.11.16.34.34 0 0 0-.16.2c-.13.55 0 .98.38 1.28a.18.18 0 0 1 .06.21c0 .03-.02.05-.04.07-1.17 1.17-1.57 2.6-1.95 4.26a7.1 7.1 0 0 0-.11 2c0 .05 0 .09-.03.13a.26.26 0 0 1-.07.1l-1.6 1.25-.03.01c-1.58.71-3.45.1-4.73-.92a.13.13 0 0 1 0-.2.14.14 0 0 1 .07-.03 3.28 3.28 0 0 0 1.17-.33l1.85-.06a.36.36 0 0 0 .25-.12.35.35 0 0 0 .1-.26v-.02a.26.26 0 0 0-.11-.2.28.28 0 0 0-.24-.06c-.85.18-1.59.16-2.2-.08a.13.13 0 0 1-.07-.05.12.12 0 0 1 .02-.15.13.13 0 0 1 .07-.04 6.27 6.27 0 0 0 3.4-1.77c.6-.6 1.24-1.55 1.93-2.87.34-.64.55-1.02.64-1.16.5-.8.77-1.7 1.15-2.45l.63-1.22a6.82 6.82 0 0 1 3.4-2.75 3.71 3.71 0 0 1 2.76.29.2.2 0 0 1 .05.15 11.44 11.44 0 0 0-1.38 6.9c0 .08.03.16.07.24.06.12.16.24.28.35a.1.1 0 0 1 .02.14.11.11 0 0 1-.05.04c-.02.01-.05.01-.07 0Z" fill="#B682D9"/><path d="m36.48 20.83-.7.6a.15.15 0 0 1-.2 0c-.31-.33-.43-.7-.38-1.13l1.28.53ZM32.63 23.74l-.5.17a.06.06 0 0 1-.06-.02l-.02-.03.01-.04c.6-1.1.53-1.97.62-3.08.26 1 .25 2-.05 3Z" fill="#4F2E66"/><path d="M36.43 22.62c-.32.5-.64.98-.97 1.44-.28.38-.65.65-1.11.82-.57.2-1.53.53-2.25.96-.73.43-1.5.87-2.33 1.33-.5.27-.66.44-.74 1.07-.1.77-.48 1.28-1.12 1.54l.08-2.54a.2.2 0 0 1 .13-.18c2.18-.97 4.36-1.91 6.53-2.83.28-.11.49-.3.63-.55.24-.43.62-.78 1.15-1.06Z" fill="#183842"/><path d="M37.3 23.55a8.27 8.27 0 0 0-1.54 2.17c-.16-.07-.32-.2-.48-.4a.15.15 0 0 1-.03-.09c0-.03 0-.07.03-.1l1.52-1.93a.11.11 0 0 1 .09-.04.11.11 0 0 1 .08.04l.32.35Z" fill="#4F2E66"/><path d="m19.18 23.28 1.5 1.95a.13.13 0 0 1-.02.18l-.87.71a5.82 5.82 0 0 0-.73 5.93 4.01 4.01 0 0 0 2.48 2.19.1.1 0 0 1 .02.05.09.09 0 0 1-.04.08c-2.3 1.46-3.83-1.4-4.17-3.17-.5-2.61-.2-5.84 1.6-7.93a.15.15 0 0 1 .12-.05.15.15 0 0 1 .11.06ZM37.3 23.55c1.63 2.4 1.9 5.46 1.21 8.18-.4 1.63-2 4.03-4.09 2.6a.07.07 0 0 1-.02-.11l.04-.02c3.57-1.11 3.86-6.24 1.32-8.48.38-.8.9-1.52 1.53-2.17Z" fill="#B682D9"/><path d="m27.23 30.05-.6.11a.31.31 0 0 0-.19.14l-.43.67a3.94 3.94 0 0 0-.44-2.9c-1-1.67-3.2-1.5-4.1.15a3.82 3.82 0 0 0 .16 4.1c.47.73 1.18 1.05 2.14.95l.07.1-.1.07c-.06.04-.1.1-.13.16l-.46 1.12-.72-.34.33-.4a.21.21 0 0 0 .03-.2.22.22 0 0 0-.16-.14 2.4 2.4 0 0 0-.93-.05.3.3 0 0 1-.15-.01c-.95-.3-1.63-1.04-2.05-2.2a5.2 5.2 0 0 1 .15-3.78 3.69 3.69 0 0 1 1.98-1.98.6.6 0 0 1 .53.02l3.77 2.1a.73.73 0 0 1 .37.55c.07.64.38 1.23.93 1.76Z" fill="#B0EFFE"/><path d="M33.5 33.57a3.1 3.1 0 0 0 2.5-2.09c.62-1.74.64-3.4-1.14-4.48-.95-.57-1.85-.6-2.69-.11-.79.17-1.4.62-1.82 1.35.14-.58-.08-.51-.65.2a.9.9 0 0 1 0-.43.28.28 0 0 1 .12-.17l2.7-1.6c.31-.18.84-.4 1.6-.64a.35.35 0 0 1 .25.01c.81.39 1.37.84 1.66 1.35a5.1 5.1 0 0 1 .11 5.29 2.45 2.45 0 0 1-2.64 1.32Z" fill="#43808E"/><path d="M42.52 28.54c-.01.22.09.36.3.4.17.05.68.06 1.54.04l.13.02 1.31.32a.2.2 0 0 1 .1.05l.04.09a.18.18 0 0 1-.06.18c-1.21.97-3.2 1.64-4.67.88a.73.73 0 0 1-.17-.13c-.4-.4-.85-.75-1.35-1.03a.37.37 0 0 1-.18-.3l-.05-1.53a.67.67 0 0 0-.04-.21 4.76 4.76 0 0 1-.32-1.46c.36.6.69 1.07.98 1.39a3.79 3.79 0 0 0 2.44 1.29Z" fill="#4F2E66"/><path d="M33.5 33.57a.5.5 0 0 0-.24.1c-.08.06-.1.14-.07.23.03.08.08.15.13.2.07.05.1.12.08.2a.4.4 0 0 1-.18.28.37.37 0 0 0-.14.3c0 .03-.02.07-.04.1a.18.18 0 0 1-.08.06l-1.18.39a.81.81 0 0 1-.34.01c-.01 0-.02 0-.03-.02v-.06l.03-.01c.55-.13.9-.26 1.02-.4.06-.07.1-.17.09-.27a1.7 1.7 0 0 0-.81-1.42c1.4.21 2.36-.34 2.9-1.65a3.9 3.9 0 0 0 .28-2.24l-.23-.78c-.13-.42-.4-.82-.82-1.18-.37-.33-.94-.5-1.7-.52.84-.5 1.74-.46 2.69.11 1.78 1.08 1.76 2.74 1.14 4.48a3.1 3.1 0 0 1-2.5 2.1ZM30.35 28.24c-.34.6-.51 1.32-.5 2.16-.63-.28-1.06-.32-1.29-.13.19-.32.45-.58.79-.77a.28.28 0 0 0 .08-.07.26.26 0 0 0 .05-.1l.22-.9c.57-.7.79-.77.65-.2Z" fill="#B0EFFE"/><path d="M41.28 34.34a4.85 4.85 0 0 1-.13-1.68c0-.08 0-.16-.04-.23-.2-.5-.62-1.45-1.12-1.73a.15.15 0 0 0-.2.04 5.02 5.02 0 0 1-3 4.76c-.33.2-.68.27-1.05.19a.2.2 0 0 1-.1-.05.28.28 0 0 1-.08-.19c1.64.03 2.57-1 3.16-2.4a10.8 10.8 0 0 0 .8-3.02.15.15 0 0 1 .14-.05c.03 0 .05.02.07.03 1.23 1.2 2.14 2.61 1.55 4.33Z" fill="#4F2E66"/><path d="M14.9 34.89a2.2 2.2 0 0 1-.47-1.02 3.92 3.92 0 0 1 1.99-3.85h.03l.02.02v.02c.12.62.23 1.14.33 1.57.41 1.73 1.6 3.88 3.7 3.74a.13.13 0 0 1 .1.05.12.12 0 0 1 .02.11c-.1.3-.04.77.19 1.45.26.8.78 1.2 1.54 1.17l.07.01.05.05a.11.11 0 0 1-.03.13l-.76.73a3.64 3.64 0 0 1-3.28-.14 5.26 5.26 0 0 1-2.27-2.2 3.52 3.52 0 0 1-.26-3.06.27.27 0 0 0-.03-.24.29.29 0 0 0-.2-.13h-.03a.37.37 0 0 0-.27.05.35.35 0 0 0-.15.23l-.2 1.29v.02a.05.05 0 0 1-.06.01l-.02-.01Z" fill="#B682D9"/><path d="M28.56 30.27c.23-.19.66-.15 1.28.13.04.47.15.92.32 1.35.29.7.81 1.2 1.58 1.5.5.32.77.79.81 1.43 0 .1-.03.2-.1.27-.12.14-.46.27-1 .4l-.04.01v.06l.03.02c.06.02.17.02.34-.01-.93.18-1.54.28-1.82.29-1.93.04-3.21.04-3.85 0-.67-.05-1.55-.2-2.62-.48.39.06.28-.11-.34-.52l.46-1.12a.36.36 0 0 1 .13-.16l.1-.07c.05-.02.09-.06.12-.1 1.09-.24 1.82-1.3 2.05-2.3l.43-.67a.3.3 0 0 1 .2-.14l.59-.11c.34.4.78.47 1.33.22Z" fill="#fff"/><path d="M41.28 34.34c-.03.22-.09.36-.16.41a.1.1 0 0 1-.15-.07c-.04-.74-.17-1.2-.4-1.37a.3.3 0 0 0-.31-.04.25.25 0 0 0-.11.1.23.23 0 0 0-.03.16l.12.78a6.07 6.07 0 0 1-2.44 3.77c-.83.6-1.76.9-2.79.93a.4.4 0 0 1-.18-.04l-1.03-.48a.43.43 0 0 1-.22-.16.11.11 0 0 1 .04-.16.12.12 0 0 1 .06-.01c1.4-.06 1.74-1.45 1.72-2.54a.15.15 0 0 1 .06-.12.16.16 0 0 1 .1-.05c0 .07.03.13.09.19a.2.2 0 0 0 .1.05c.36.08.7.02 1.05-.18.68-.4 1.18-.82 1.5-1.24a7.93 7.93 0 0 0 1.5-3.53.15.15 0 0 1 .12-.05l.07.01c.5.28.91 1.22 1.12 1.73.03.07.05.15.04.23-.05.57-.01 1.13.13 1.68Z" fill="#B682D9"/><path d="M23.96 33.27a.36.36 0 0 1-.12.1l-.07-.1h.2Z" fill="#9E9E9E"/><path d="m33.8 38.5 1.03.47a.4.4 0 0 0 .18.04 4.84 4.84 0 0 0 2.79-.93 6.07 6.07 0 0 0 2.44-3.77c.2.84.08 1.64-.36 2.42a5.43 5.43 0 0 1-2.03 2.07c-1.24.72-2.5.73-3.82.02-.18-.1-.25-.2-.23-.33Z" fill="#4F2E66"/><path d="m22.43 34.38.72.34c.62.4.73.58.34.52l-1.1-.43a.18.18 0 0 1-.08-.08.18.18 0 0 1-.03-.1c.01-.1.06-.19.15-.25Z" fill="#43808E"/><path d="M28.78 37.58c-.55-.01-1.12-.19-1.57.23a2.23 2.23 0 0 1-.21-.71.13.13 0 0 1 .03-.1.14.14 0 0 1 .1-.04h1.62a.15.15 0 0 1 .11.05.14.14 0 0 1 .03.12l-.11.45Z" fill="#9E9E9E"/><path d="M28.78 37.58c-.32.71-.85.8-1.57.23.45-.42 1.02-.24 1.57-.23Z" fill="#fff"/><path d="M27.98 14.85c.07 0 .12.02.15.06.45.54 1.02 1.2 1.72 2a6.22 6.22 0 0 1 1.3 1.9 3.19 3.19 0 0 1-3.12 4.08 3.19 3.19 0 0 1-3.15-4.05c.14-.45.56-1.1 1.28-1.92.7-.8 1.27-1.47 1.7-2.01a.14.14 0 0 1 .12-.06Z" fill="#010101"/><path d="M22.92 28.87c.37 0 .67-.29.67-.65 0-.35-.3-.64-.67-.64a.66.66 0 0 0-.66.64c0 .36.3.65.66.65ZM24.02 29.48c.2 0 .35-.16.35-.34a.35.35 0 0 0-.35-.34c-.2 0-.35.15-.35.34 0 .18.16.34.35.34ZM31.84 28.85c.4-.02.69-.32.67-.66-.02-.35-.35-.61-.74-.6-.38.03-.68.32-.66.67.02.35.35.6.73.59ZM32.9 29.46c.22 0 .38-.16.38-.34 0-.18-.19-.31-.4-.3-.21 0-.38.15-.37.33 0 .18.18.32.4.3Z" fill="#fff"/><path d="M28.87 32.4c-.54.15-1.09.11-1.64-.12.6-.3 1.14-.25 1.64.11Z" fill="#9E9E9E"/><path d="M27.23 32.28c.55.23 1.1.27 1.64.11.13.47-.04.8-.5 1a.27.27 0 0 0-.15.17.74.74 0 0 0 .2.76c.12.13.27.21.43.24.16.03.31 0 .43-.07.2-.12.32-.3.38-.57a.21.21 0 0 1 .1-.14.23.23 0 0 1 .17-.03h.01c.07.02.12.06.16.1.04.06.05.12.05.18-.08.75-.52 1.1-1.33 1.1-.29 0-.53-.1-.72-.28a.18.18 0 0 0-.21-.02c-.88.55-1.58.37-2.1-.51-.1-.17-.07-.33.09-.48a.28.28 0 0 1 .28-.06c.05.01.09.04.12.08s.05.08.05.13c.12 1.02 1.54.6 1.44-.4a.24.24 0 0 0-.04-.1.25.25 0 0 0-.08-.08c-.63-.34-.77-.72-.42-1.13Z" fill="#010101"/><path d="M27.97 22.32a2.6 2.6 0 0 1-2.57-3.3c.12-.38.47-.9 1.05-1.58.57-.65 1.03-1.2 1.4-1.64.02-.03.06-.04.12-.04.03 0 .07.01.09.04.36.44.83.99 1.4 1.64.6.67.95 1.19 1.06 1.56a2.6 2.6 0 0 1-2.55 3.32Z" fill="#0072F0"/><path d="M29.44 20.85a1.82 1.82 0 0 0-.9-1.25 7.07 7.07 0 0 1-.97-.66c-.6-.72-.49-1.47.32-2.24a.15.15 0 0 1 .12-.04.15.15 0 0 1 .1.06l1.13 1.4c.83.97 1.11 1.75.38 2.77a.1.1 0 0 1-.1.04.1.1 0 0 1-.06-.03.1.1 0 0 1-.02-.05ZM26.55 18.38c.1.3.24.56.41.79.58.78 2.09 1.05 1.91 2.2 0 .05-.02.09-.05.12a.26.26 0 0 1-.1.08 2.1 2.1 0 0 1-2.45-.73c-.52-.77-.47-1.6.13-2.48a.09.09 0 0 1 .08-.03l.04.01.03.04Z" fill="#9AFFF1"/></svg>