<!-- by TradingView --><svg width="56" height="56" viewBox="0 0 56 56" xmlns="http://www.w3.org/2000/svg"><path fill="#F0F3FA" d="M0 0h56v56H0z"/><path d="M39.45 15.53c-1.65.71-3.25 1.5-4.78 2.38-.38.22-1.09.25-2.12.08-.03-.4-.3-.6-.8-.6l-1.17-.3a5.38 5.38 0 0 0-2.88.1 14.14 14.14 0 0 0-1.93-1.74c-.73-.55-1.77-1.76-3.12-3.62 5.88-1.86 12.35-.6 16.8 3.7Z" fill="#6785A1"/><path d="M22.65 11.83c1.35 1.86 2.4 3.07 3.12 3.62.75.57 1.4 1.15 1.93 1.73-.11.3-.34.43-.7.38a2.25 2.25 0 0 0-1.65-.33.27.27 0 0 1-.21-.05.25.25 0 0 1-.1-.2c-.01-.56 0-1.23-.33-1.72-.66-1-1.37-1.88-2.14-2.63a.5.5 0 0 0-.36-.14c-.65.02-1 .37-1.02 1.06a22.22 22.22 0 0 1-.5 4.06c-.22-.04-.31-.21-.28-.5.16-1.43.15-2.87-.02-4.32l2.26-.96Z" fill="#0B131B"/><path d="m27 17.56-2.22.44a.45.45 0 0 1-.39-.1l-.47-.35c-.14-.11-.27-.1-.37.04-.13.17-.4.4-.22.63a.3.3 0 0 0 .1.08c.85.43 1.74.7 2.65.81.15.02.23.1.23.26.02.78-.26 1.46-.84 2.02.1-.3.23-.56.4-.81.08-.1.1-.29.05-.4a.3.3 0 0 0-.34-.16c-1 .25-2.26.5-3.1 1.18-.53.44-1.14.36-1.5 1.07a.79.79 0 0 1-.47.4c-.56.2-1.12.37-1.69.52h-.84a.32.32 0 0 1-.3-.2.4.4 0 0 1 0-.34c.12-.28.72-.48.99-.73.11-.11.1-.21-.02-.3a.46.46 0 0 0-.27-.1c-.2 0-.26-.09-.18-.27.06-.16.24-.3.52-.42.4-.27.85-.47 1.35-.6a.37.37 0 0 0 .26-.25l.15-.38c.35-.09.53-.27.56-.54.01-.17.1-.28.28-.32.14-.03.28-.07.42-.14a.4.4 0 0 0 .22-.25.26.26 0 0 0 .02-.1c-.02-.13-.09-.2-.22-.2l-.59-.01c-.43-.03-.59-.17-.47-.43.26-1.14.42-2.49.49-4.06.03-.7.37-1.04 1.02-1.06a.5.5 0 0 1 .36.14c.77.75 1.48 1.62 2.14 2.63.33.49.32 1.16.33 1.72 0 .16.16.28.31.25.55-.11 1.1 0 1.65.33Z" fill="#A08587"/><path d="M20.39 12.8c.17 1.44.18 2.88.02 4.3-.03.3.06.47.29.51-.12.26.04.4.47.43-.87.08-1.3.57-1.26 1.47.01.16.1.22.24.18l.33-.1-.15.4a.37.37 0 0 1-.26.23c-.5.14-.95.34-1.35.6-.4 0-.61.18-.62.57 0 .13-.04.25-.1.36l-2.23 3.74a4.55 4.55 0 0 0-2.69.24.44.44 0 0 1-.36-.02c-.58-.3-1.1-.4-1.58-.33a17.65 17.65 0 0 1 3.32-7.63 16.96 16.96 0 0 1 5.93-4.96Z" fill="#566A84"/><path d="m39.45 15.53.43.5c-1.07.44-2.17.53-2.47 1.87-.08.4-.41.7-.59 1.09a1.03 1.03 0 0 1-1.24.55l-2.93-.88a.35.35 0 0 1-.21-.2c-.09-.2-.05-.37.11-.47 1.03.17 1.74.14 2.12-.08a47.82 47.82 0 0 1 4.78-2.38Z" fill="#2E2B34"/><path d="M40.84 16.98a6.9 6.9 0 0 1-.39 2.84l-.6 1.54c-.87-.36-1.7-.76-2.51-1.18-.13-.06-.24-.07-.35-.01a.19.19 0 0 0-.09.1.2.2 0 0 0 .01.15c.38.78.77 1.55 1.19 2.33.32.6.44 1.5 1.2 2.1.16.26.41.33.78.21a.49.49 0 0 1 .37.03c.3.14.54.32.73.54-.97.3-2.02 0-3.14-.92a.46.46 0 0 0-.37-.11l-.58.07a.26.26 0 0 0-.2.16.25.25 0 0 0 .03.25l.77.96-1.76-1.05a.8.8 0 0 1-.29-.3c-.36-.69-.88-1.42-1.57-2.2a1.04 1.04 0 0 0-.72-.4c-.51-.03-.96.17-1.32.6-.03.04-.06.04-.1.01l-.08-.07c-.09-.07-.1-.15-.03-.24.25-.33.4-.7.42-1.1.01-.12-.05-.18-.17-.18h-.13c-.12 0-.2.05-.24.16l-.92 2.58-.16.04a12.07 12.07 0 0 0 1.12-6.5c.5 0 .78.2.81.6-.16.1-.2.26-.12.47a.35.35 0 0 0 .22.2l2.93.88a1.05 1.05 0 0 0 1.24-.55c.18-.38.5-.68.6-1.1.29-1.33 1.39-1.42 2.46-1.87.43.24.75.56.96.96Z" fill="#B0A9B3"/><path d="M30.58 17.1c-2.37.6-4.02 3.77-3.75 6.08a4.95 4.95 0 0 1-.75 3.27.3.3 0 0 0 .01.35l.93 1.29c-.15.1-.2.21-.18.36 0 .05.03.07.08.07.04 0 .08.02.1.04.05.04.05.1 0 .14a1.2 1.2 0 0 0-.28.43.38.38 0 0 0 .06.37 15.42 15.42 0 0 0 5.46 4.7.15.15 0 0 1 0 .2.14.14 0 0 0-.03.15c.06.18-.01.27-.21.28-1.87.05-3.74.06-5.61 0-.13.16-.26.29-.4.4a.6.6 0 0 1-.48.14.4.4 0 0 1-.3-.2.48.48 0 0 0-.3-.22l-3.6-.82a.61.61 0 0 1-.34-.2c-.25-.31-.57-.53-.95-.68-.12-.04-.2 0-.26.1-.42.85-.17 1.69.75 2.52 1.1 1 2.21 1.83 3.32 2.46a3.68 3.68 0 0 1 1.81 2.9l-1.18-.2h.3a.28.28 0 0 0 .21-.16.27.27 0 0 0-.03-.27 3.98 3.98 0 0 0-2.41-1.65 5.5 5.5 0 0 1-2.73-1.48c-2.7-2.43-3.37-5.72-3.33-9.13l.58-1.47a.78.78 0 0 1 .84-.48c.47.06.86-.02 1.18-.26a3.2 3.2 0 0 1 3.15.43c.54.37 1.33.35 2.39-.05.6-.07.88-.82.85-2.26 0-.27-.16-.7-.46-1.28l.45-1.58c.58-.56.86-1.24.84-2.02 0-.15-.08-.24-.23-.26a8.22 8.22 0 0 1-2.66-.8.3.3 0 0 1-.15-.2.28.28 0 0 1 .06-.23l.22-.29c.1-.14.23-.15.37-.04l.47.36c.12.09.25.12.4.09l2.21-.44c.36.05.6-.08.7-.38.84-.28 1.8-.31 2.88-.08Z" fill="#D8C6B9"/><path d="m40.84 16.98.65.77-.87 2.95c-.02.05-.05.08-.1.08h-.14c-.03 0-.05-.03-.04-.06l.11-.9a6.9 6.9 0 0 0 .39-2.84Z" fill="#2E2B34"/><path d="m30.58 17.1 1.16.28c.27 2.03-.1 4.2-1.12 6.51.03.13-.07.34-.3.63l-1.12 2.13c-.07.13-.04.24.07.33l2.4 2.03c.53.76.79 1.51.78 2.28 0 .13.03.27.09.4l.1.14c.16.14.13.22-.07.26l-1.24.24a.46.46 0 0 1-.36-.08c-.7-.5-1.54-.7-2.1-1.39a4.22 4.22 0 0 0-1.4-1.07.63.63 0 0 1-.35-.59.63.63 0 0 1 .4-.56l.22-.08c.2-.08.2-.17.02-.27-.23-.12-.48-.19-.74-.2l-.93-1.29a.3.3 0 0 1-.01-.35c.63-1.03.88-2.12.75-3.27-.27-2.31 1.38-5.48 3.75-6.08Z" fill="#fff"/><path d="M45 28.74c-1.34-.46-2.26-.47-2.77-.01-.5-.39-.61-1.23-.33-2.53a.28.28 0 0 0-.12-.32c-.18-.12-.38-.2-.6-.25-.19-.22-.43-.4-.73-.54a.49.49 0 0 0-.37-.03c-.37.12-.63.05-.77-.2-.05-.34-.2-.57-.46-.69a.28.28 0 0 1-.16-.22.28.28 0 0 1 .1-.25c.19-.15.37-.37.53-.65-.13.72.01 1.26.42 1.6a.34.34 0 0 0 .55-.22c.03-.36.17-.66.41-.93a.38.38 0 0 0 .09-.4l-.5-1.43c-.05-.16-.15-.2-.3-.1-.14.1-.27.24-.39.43.05-.24.13-.46.24-.64l.61-1.54-.11.9c-.01.03 0 .05.04.05h.14c.05 0 .08-.02.1-.07l.87-2.95a17.46 17.46 0 0 1 3.5 11Z" fill="#60738D"/><path d="m20.48 19.6-.33.09c-.15.04-.23-.02-.24-.18-.03-.9.39-1.39 1.26-1.47l.6.01c.12 0 .2.07.2.2v.1a.4.4 0 0 1-.23.25c-.14.07-.28.11-.42.14-.17.04-.27.15-.28.32-.03.27-.21.45-.56.54Z" fill="#2E2B34"/><path d="m25.47 21.39-.45 1.58a5.87 5.87 0 0 0-2.55-.56c-.18 0-.28.09-.31.26l-.03.13a.23.23 0 0 0 .15.26c.23.08.47.12.71.1.17 0 .25.08.24.25l-.18 2.3-.31-1.48a.2.2 0 0 0-.16-.16.2.2 0 0 0-.08 0c-.14.03-.2.1-.22.19 0 .16-.05.17-.14.03a.73.73 0 0 1-.09-.31c-.02-.46-.2-.52-.51-.19-1.17 1.22.3 2.25 1.31 2.58.1.03.19.02.28-.02.1-.05.17-.13.2-.24l.09.2c.04.1.12.16.23.16l.98.04c-1.06.4-1.85.42-2.39.05a3.2 3.2 0 0 0-3.15-.43c-.59.17-.97.2-1.15.08a1.1 1.1 0 0 1-.47-.69 1 1 0 0 1 .18-.78l1.17-1.55a28.1 28.1 0 0 0 1.7-.52c.21-.08.37-.21.46-.4.36-.71.97-.63 1.5-1.07.84-.68 2.1-.93 3.1-1.19a.3.3 0 0 1 .34.17c.05.11.03.3-.05.4a3.1 3.1 0 0 0-.4.81Z" fill="#393A4A"/><path d="M39.84 21.36c-.11.18-.2.4-.24.64-.1.12-.26.2-.49.24-.14.02-.2.1-.18.23.03.2.16.39.39.58-.16.28-.34.5-.53.65a.28.28 0 0 0-.05.38l.1.1c.27.11.42.34.47.68-.77-.61-.9-1.5-1.21-2.1-.42-.79-.81-1.56-1.19-2.34a.2.2 0 0 1 0-.14.19.19 0 0 1 .08-.11c.1-.06.22-.05.35.01.8.42 1.64.82 2.5 1.18Z" fill="#A08587"/><path d="M18.72 20.83c-.28.12-.46.26-.52.42-.08.18-.02.28.18.28.1 0 .19.03.27.09.13.09.13.19.02.3-.27.25-.87.45-1 .73a.4.4 0 0 0 0 .34c.07.13.17.2.31.2h.84l-1.17 1.55a.96.96 0 0 0-.18.78 1.05 1.05 0 0 0 .47.69c.18.12.56.09 1.15-.08-.32.24-.71.33-1.18.26a.79.79 0 0 0-.84.48l-.58 1.47c-.22.2-.41.4-.58.64-.16.22-.24.46-.23.71.02 2.84.96 5.29 2.81 7.33.06.07.07.14.03.22a.21.21 0 0 1-.1.1.4.4 0 0 1-.41-.01 7.8 7.8 0 0 0-2.64-1.01c-.39-.08-.49.06-.29.4l1.24 2.16c.17.29.41.49.73.6l2.18.7c-.23.25-.5.4-.82.43a.4.4 0 0 1-.34-.1c-.37-.34-.7-.73-1.18-.9-.28-.1-.55-.24-.8-.43-.53-.38-.56-1.08-1.1-1.53a4.96 4.96 0 0 1-1.88-3.2c-.14-.9-.04-1.87.3-2.9.03-.1.45-1.02 1.25-2.76.49-1.05.86-2.15 1.11-3.3L18 21.75c.07-.1.1-.23.1-.36.02-.39.22-.58.63-.56Z" fill="#7C6865"/><path d="m37.69 26.04 1.34 2.3c.15.24.12.47-.1.67a.93.93 0 0 1-.3.2c-.22.09-.38.03-.5-.16-.1-.19-.24-.34-.4-.47-.16-.11-.23-.07-.22.12.07.73.31 1.3.74 1.74a.55.55 0 0 1-.18.89c-.43.17-.82.14-1.17-.1a4.04 4.04 0 0 0-2.31-.82c-.57 0-1.06-.06-1.45-.21a5.8 5.8 0 0 1-1.46-1.2l-2.41-2.02c-.12-.1-.14-.2-.07-.33l1.13-2.13c1.04 2.13 2.84-.08.45-.67l.92-2.58c.04-.1.12-.16.24-.16h.13c.12 0 .18.06.17.18-.03.4-.17.77-.42 1.1-.07.09-.06.17.03.24l.09.07c.03.03.06.03.09 0 .37-.44.8-.64 1.32-.6.27.01.51.14.73.38.68.79 1.2 1.52 1.56 2.2a.8.8 0 0 0 .3.31l1.75 1.05Z" fill="#393A4A"/><path d="M39.32 23.05c-.23-.19-.36-.38-.39-.58-.02-.13.04-.2.18-.23.23-.04.4-.12.5-.24.11-.2.24-.34.38-.43.15-.1.25-.06.3.1l.5 1.42c.05.16.02.3-.09.41-.24.27-.38.57-.4.93a.33.33 0 0 1-.21.28.34.34 0 0 1-.35-.06c-.4-.34-.55-.88-.42-1.6Z" fill="#2E2B34"/><path d="M25.02 22.97c.3.58.45 1 .46 1.28.03 1.44-.26 2.2-.85 2.26l-.98-.04a.25.25 0 0 1-.23-.16l-.08-.2a.9.9 0 0 0-.3-.4l.19-2.3c.01-.17-.07-.25-.24-.24-.25 0-.48-.03-.71-.1-.18-.08-.15-.25-.12-.4.03-.17.13-.26.3-.26.86-.01 1.71.18 2.56.56Z" fill="#0B131B"/><path d="M23.05 25.72c.13.1.22.23.29.39a.42.42 0 0 1-.22.24.36.36 0 0 1-.27.02c-1-.33-2.48-1.36-1.31-2.58.32-.33.49-.27.51.19 0 .11.04.21.1.3.08.15.12.14.13-.02.01-.1.08-.16.21-.19a.2.2 0 0 1 .25.16l.3 1.49Z" fill="#566A84"/><path d="M33.96 25.57c-.36-.41-.76-.64-1.19-.69a.37.37 0 0 0-.4.37c0 .07.03.14.07.2a2 2 0 0 0 .63.58c.14.08.18.19.12.34-.19.45-.44.84-.76 1.16-.35.36-.68.34-1-.04-.62-.76-.8-1.54-.56-2.33.04-.13 0-.18-.14-.15a.5.5 0 0 0-.17.07c-.18-.05-.26-.23-.23-.56.22-.29.32-.5.28-.63l.17-.04c1.14-.17 3.6 0 3.63 1.52 0 .14-.06.21-.2.2h-.25Z" fill="#0B131B"/><path d="M41.18 25.63c.22.04.42.13.6.25.1.08.15.19.12.32-.28 1.3-.17 2.14.34 2.53.25.47.3 1.04.15 1.72a.2.2 0 0 1-.14.16c-.35.1-.48.38-.39.83.12.62-.08.77-.6.46-.07-.04-.13-.03-.21.02a.37.37 0 0 0-.2.27l-.54 3.19-.1-2.9c0-.1-.03-.18-.08-.26a.56.56 0 0 0-.73-.2 6.43 6.43 0 0 0-2.26 2.1.4.4 0 0 1-.34.18c-.52.02-1.04.08-1.56.17-1.88.32-3.74.68-5.56 1.06-.76.16-1.32.54-1.69 1.14-.1.18-.23.19-.36.03l-.42-.51a.41.41 0 0 1-.1-.26c0-.1.04-.2.1-.27l-.63-.83c.1-.13 2.78.08 5.44 0 .14 0-.11-.42-.34-.53-.82-.4-6.67-4.88-4.66-6.21.26.01.74.12.97.24.2.11-1.13.63-.78 1.22.06.1.16.19.26.24.58.3 1.05.65 1.4 1.07.56.68 1.4.89 2.1 1.39.1.07.23.1.36.08 1.51-.3 1.12-.04 1.12-1.04 0-.77-.25-1.52-.77-2.28a5.8 5.8 0 0 0 1.46 1.19c.4.15.88.22 1.45.21.85 0 1.62.34 2.31.82.35.24.74.27 1.17.1a.55.55 0 0 0 .19-.89 2.73 2.73 0 0 1-.75-1.74c-.01-.19.05-.23.21-.12.17.13.31.28.42.47.1.2.27.25.48.16a.93.93 0 0 0 .32-.2c.2-.2.24-.43.1-.68l-1.35-2.3-.77-.95a.25.25 0 0 1-.05-.12.26.26 0 0 1 .22-.3l.58-.06c.14-.02.26.02.37.1 1.12.92 2.17 1.23 3.14.93Z" fill="#BFCCD9"/><path d="M15.77 25.5a16.12 16.12 0 0 1-1.1 3.3 88.76 88.76 0 0 0-1.27 2.75c-.33 1.03-.42 2-.3 2.9.19 1.26.81 2.32 1.88 3.2.55.45.58 1.15 1.1 1.53.26.2.53.33.8.43.5.17.82.56 1.2.9.09.09.2.12.33.1.32-.03.59-.18.82-.42 1.49-.43 2.68-.85 3.85-.35.58.25 1.2.48 1.76.77.03.02.06.05.06.1.01.04 0 .07-.01.1-.05.1-.13.14-.24.12-1.76-.31-3.58-.05-4.12 1.9-.04.14-.13.2-.27.17l-.8-.13c-6.25-3.7-9.16-10.29-8.32-17.49.47-.07 1 .04 1.58.33a.46.46 0 0 0 .36.02 4.55 4.55 0 0 1 2.7-.24Z" fill="#2E2B34"/><path d="m33.96 25.57.14.26a.4.4 0 0 1 0 .34c-.44 1.07-1.86 2.7-3.2 1.73-1.03-.76-1.15-1.7-.34-2.82a.5.5 0 0 1 .17-.07c.14-.03.18.02.14.15-.25.79-.06 1.57.57 2.33.31.38.64.4 1 .04.31-.32.57-.7.75-1.16.06-.15.02-.26-.12-.34a2 2 0 0 1-.63-.58.36.36 0 0 1 .33-.57c.44.05.83.28 1.2.69Z" fill="#68C2E0"/><path d="M16.49 28.34c-.04 3.41.63 6.7 3.33 9.13a5.5 5.5 0 0 0 2.73 1.48c.92.19 1.73.74 2.41 1.65a.26.26 0 0 1 .03.27.27.27 0 0 1-.2.16 1.5 1.5 0 0 1-.3 0 1.6 1.6 0 0 0-.85 0c-.24.06-.37.2-.38.45 0 .06.01.12.05.17.03.05.08.08.14.1l1.98.56a.55.55 0 0 1 .36.34l.7 1.98c.06.15 0 .22-.16.22a12.6 12.6 0 0 1-6.86-1.98l.79.13c.14.03.23-.03.27-.17.54-1.95 2.36-2.21 4.12-1.9.1.02.19-.02.24-.12a.15.15 0 0 0 .01-.1.13.13 0 0 0-.06-.1c-.55-.29-1.18-.52-1.76-.77-1.17-.5-2.36-.08-3.85.35l-2.18-.72c-.32-.1-.56-.3-.73-.59l-1.24-2.16c-.2-.34-.1-.48.3-.4a7.8 7.8 0 0 1 2.63 1 .4.4 0 0 0 .41.02.21.21 0 0 0 .1-.1.18.18 0 0 0-.03-.22 10.68 10.68 0 0 1-2.82-7.33c0-.25.08-.49.24-.7.17-.24.36-.46.58-.65Z" fill="#C0ACA2"/><path d="M45 28.74a18.27 18.27 0 0 1-3.95 10.21c-.09.11-.2.15-.33.11l-1.61-.44 1.2-3.24.54-3.2a.37.37 0 0 1 .2-.26c.08-.05.14-.06.2-.02.53.3.73.16.61-.46-.09-.45.04-.73.39-.83a.2.2 0 0 0 .14-.16c.15-.68.1-1.25-.16-1.72.51-.46 1.43-.45 2.77.01Z" fill="#1C2A3D"/><path d="m40.31 35.38-1.2 3.24c-.89.19-1.8.57-2.72 1.15-.37.24-.34.41.08.52.87.23 1.65-.7 2.36.33.1.14.08.27-.03.4-.67.73-1.4 1.3-2.18 1.69-.22-.46-.69-.79-1.4-.98-.27-.08-.46 0-.58.2a.34.34 0 0 1-.28.18l-1.26.13c-.3.04-.71.02-1.24-.07a2.75 2.75 0 0 0-2.47.86c-.29-.19-.6-.4-.92-.66-.3-.24-.63-.41-.98-.52-.62-.2-1.23-.4-1.83-.63a3.68 3.68 0 0 0-1.81-2.89 19.32 19.32 0 0 1-3.32-2.46c-.92-.83-1.17-1.67-.75-2.52.05-.1.14-.14.26-.1.38.15.7.37.95.67.1.11.2.18.34.21l3.59.82c.14.03.24.1.31.22a.4.4 0 0 0 .3.2.6.6 0 0 0 .48-.14c.14-.11.27-.24.4-.4l1.07.13c.17.02.2.1.1.23l-.37.47a.43.43 0 0 0-.1.27c0 .1.04.18.1.26l.42.5c.13.17.25.16.36-.02.37-.6.93-.98 1.69-1.14 1.82-.38 3.68-.74 5.56-1.06.52-.09 1.04-.15 1.56-.17a.4.4 0 0 0 .33-.19 6.43 6.43 0 0 1 2.27-2.09.56.56 0 0 1 .73.2c.05.08.08.17.08.26l.1 2.9Z" fill="#E3E3DE"/><path d="M36.62 42.71a18.66 18.66 0 0 1-6.4 2.28c-.23.04-.33-.06-.28-.28.1-.56-.08-1.12-.55-1.68.72-.72 1.55-1 2.47-.86.53.09.95.11 1.24.07.42-.05.84-.1 1.26-.13a.34.34 0 0 0 .28-.18c.12-.2.3-.28.58-.2.71.2 1.18.52 1.4.98Z" fill="#4D5061"/><path d="m25.9 28.46-.64-.44a.13.13 0 0 1 .06-.23c.43-.08.69.1.77.54a.13.13 0 0 1-.06.14.13.13 0 0 1-.14 0Z" fill="#7C6865"/><path d="m28.9 33.04-1.3-1.03A3.16 3.16 0 0 0 25 31c-.2 0-.22-.04-.05-.16l1.04-.72c.11-.08.22-.07.3.03a9.93 9.93 0 0 0 3.36 2.5c.1.05.17.13.2.24.03.15-.04.23-.2.21l-.75-.06Z" fill="#A08587"/><path d="m27.6 32 1.3 1.04c-.65.47-1.38.77-2.18.93a.43.43 0 0 1-.4-.13 17 17 0 0 1-1.49-1.77c-.35-.49-.23-.67.36-.55l2.42.49Z" fill="#E3E3DE"/><path d="M24.36 24.26c.07.2.22.32.34.28.12-.04.16-.23.1-.42-.07-.2-.22-.32-.34-.28-.12.04-.16.23-.1.42Z" fill="#B0A9B3"/><path d="M36.1 31.03a.64.64 0 0 1 .25.85.64.64 0 0 1-.21.24c-.4.27-.79.13-1.17-.41a.48.48 0 0 1 .1-.65c.3-.24.64-.25 1.03-.03Z" fill="#E3E3DE"/></svg>