<svg xmlns="http://www.w3.org/2000/svg" width="112" height="112" viewBox="0 0 56 56"><path d="M28 10c1.31 0 2.45.81 3 2h-6c.55-1.19 1.69-2 3-2zm0 36a3.4 3.4 0 01-3-2h6a3.4 3.4 0 01-3 2zm4-18a4 4 0 11-8 0 4 4 0 018 0zm-9 4h-6a2 2 0 000 4h12.97a1 1 0 110 2H20a2 2 0 100 4h16a2 2 0 000-4h-.76a1 1 0 010-2H39a2 2 0 000-4h-6c-1 1.36-3.23 2.25-5.09 2.25-1.86 0-3.92-.9-4.91-2.25zm-1.16-2H14a2 2 0 010-4h7.84a5.04 5.04 0 000 4zm12.14 0a5.04 5.04 0 000-4H42a2 2 0 010 4h-8.02zM21 14a2 2 0 00-2 2c0 1.1.71 2 1.82 2H21c.28 0 1 0 1 1 0 1.02-.64 1-.95 1H17a2 2 0 000 4h6c.98-1.5 3.09-2.49 5.01-2.49 1.93 0 4 1 4.99 2.49h6a2 2 0 100-4H25.95c-.3 0-.95.01-.95-1 0-1 .72-1 1-1h9a2 2 0 000-4H21z" fill="#fff"/></svg>