<svg xmlns="http://www.w3.org/2000/svg" width="56" height="56" viewBox="0 0 56 56"><path d="M17 13V41.5c0 .94.75 1.49 1.5 1.49.55 0 1.1-.3 1.37-.94l11.17-28.02A1.49 1.49 0 0 0 29.66 12H18a1 1 0 0 0-.99 1z" fill="#FF0EA9"/><path d="M24.56 42.66l10.17-26.04c.15-.38.5-.6.85-.62.22-.02.45.05.64.2 11.41 9.11 4.94 28.57-10.83 27.78a.95.95 0 0 1-.83-1.32z" fill="#00DAFF"/><defs><linearGradient id="awx0duepl" x1="10.42" y1="9.71" x2="68.15" y2="76.02" gradientUnits="userSpaceOnUse"><stop stop-color="#1A1E21"/><stop offset="1" stop-color="#06060A"/></linearGradient></defs></svg>