<!-- by TradingView --><svg width="56" height="56" viewBox="0 0 56 56" xmlns="http://www.w3.org/2000/svg"><path fill="#F0F3FA" d="M0 0h56v56H0z"/><path fill-rule="evenodd" d="M42 28a14 14 0 0 1-24.19 9.6l19.8-19.79C40.3 20.36 42 24 42 28Zm-5.96-11.46A13.93 13.93 0 0 0 26 14.14V26.6l10.04-10.05ZM24 14.58A14.03 14.03 0 0 0 14.58 24H24v-9.42ZM14.14 26a14.1 14.1 0 0 0 2.4 10.04L24 28.6V26h-9.86ZM44 28a16 16 0 1 1-32 0 16 16 0 0 1 32 0Z" fill="url(#avejazqqw)"/><defs><linearGradient id="avejazqqw" x1="18.5" y1="18.5" x2="38.5" y2="39" gradientUnits="userSpaceOnUse"><stop stop-color="#EE3049"/><stop offset="1" stop-color="#F87147"/></linearGradient></defs></svg>