<!-- by TradingView --><svg width="56" height="56" viewBox="0 0 56 56" xmlns="http://www.w3.org/2000/svg"><path fill="#EE2B5B" d="M0 0h56v56H0z"/><path d="M28 30a6 6 0 0 1 6 6v5h-4v-5a2 2 0 1 0-4 0v5h-4v-5a6 6 0 0 1 6-6ZM21 23v9.5a5.5 5.5 0 0 1-11 0V29h4v3.5a1.5 1.5 0 0 0 3 0V23h4ZM35 23v9.5a5.5 5.5 0 0 0 11 0V29h-4v3.5a1.5 1.5 0 0 1-3 0V23h-4Z" fill="#fff"/><path d="M28 12c6.08 0 11 4.86 11 10.86V29h-4v-5.95c0-3.9-3.13-7.05-7-7.05s-7 3.15-7 7.05V29h-4v-6.14c0-6 4.93-10.86 11-10.86Z" fill="#fff"/><path d="M28.03 21a3.01 3.01 0 0 1 3.02 3 3.01 3.01 0 0 1-4.21 2.76c.7-.12 1.24-.72 1.24-1.45a1.48 1.48 0 0 0-2.93-.36A3.01 3.01 0 0 1 28.03 21Z" fill="#fff"/></svg>