<svg width="56" height="56" viewBox="0 0 56 56" xmlns="http://www.w3.org/2000/svg"><path fill-rule="evenodd" d="M28.23 16H17v1.16l8.2 12.2L17 38.9V40h8.42c-.17 1.27-1.16 4.16-2.69 4.16-.49 0-.83-.09-.91-.23-.7-1.09-1.47-1.45-2.1-1.44-1.86.06-1.38 2.55 0 3.15.58.25 1.4.4 2.53.35 3.67-.14 5.8-4.11 6.41-5.99h8.17L38 33.25l-1.33-.23c-.91 3.38-2.72 3.98-4.1 3.98h-3.14c.35-2.37.68-7.35.98-12.04.17-2.57.33-5.05.48-6.96h2.2c2.33.22 2.85 3.66 2.81 5H37v-7h-5.79c.16-.9.6-2.08 1.42-2.89.46-.45 1.38-.68 1.88-.13.6.65 1.4 1.25 2.13 1.25 1.33 0 1.65-1.44.8-2.3-.71-.73-2.2-1.16-4.46-.8-2.88.45-4.37 3.34-4.75 4.87Zm-1.52 8.57c.02-1.8.44-5.23.79-6.57h-5.63l4.84 6.57Zm-.54 7.38L25.78 37H22l4.17-5.05Z" fill="#fff"/></svg>