<!-- by TradingView --><svg width="56" height="56" viewBox="0 0 56 56" xmlns="http://www.w3.org/2000/svg"><path fill="#F0F3FA" d="M0 0h56v56H0z"/><path d="M12.18 26.8 22.7 11l5.3 7.5-5.37 8.5H12.29a.13.13 0 0 1-.11-.07.13.13 0 0 1 0-.13ZM43.82 26.8 33.29 11 28 18.5l5.37 8.5H43.7a.13.13 0 0 0 .11-.07.13.13 0 0 0 0-.13Z" fill="#7E49FC"/><path d="M44 29a15.62 15.62 0 0 1-4.61 11.3A16.01 16.01 0 0 1 28 45a16.18 16.18 0 0 1-11.39-4.7 15.78 15.78 0 0 1-4.6-11.3H22c-.07 3.21 2.81 6 6 6s6.07-2.79 6-6h10Z" fill="#06F"/></svg>