<!-- by TradingView --><svg width="56" height="56" viewBox="0 0 56 56" xmlns="http://www.w3.org/2000/svg"><path fill="#FC9F40" d="M0 0h56v56H0z"/><path d="M28.08 22.8a3.51 3.51 0 0 0 3.53-3.5c0-1.92-1.58-3.49-3.53-3.49a3.51 3.51 0 0 0-3.53 3.5c0 1.92 1.58 3.49 3.53 3.49Z" fill="#fff"/><path d="M24.8 18.4a16.9 16.9 0 0 1 5.15.08l3.33 1.2 4.61 1.43-.35 14.3-2.56 5.52-3.63 3.23-3.17.5h-2l-2.93-.89-1.53-1.1-1.95-1.22-1-1.86-.95-.41-.92-2.38-.47-3.33-.27-7.43.62-4.94 8.02-2.7Z" fill="#603612"/><path d="M28.18 16.3s.5 1.33.84 1.89c.34.56 1.3.89 2.17 1.08.86.2 3.04 1.2 3.79 1.89s1.76 3.2 1.9 4.02c.14.83 1.18 6.5 1.18 8.16 0 1.67-1.98 6.13-1.98 6.13s1.1-.1 2.24-1.17c1.13-1.06 3-1.65 3.77-2.44s1.08-2.54 1.53-3.46c.45-.93 1.53-4.23 1.25-6.4-.28-2.16-.32-2.12-.47-3.02-.15-.9-.76-1.86-.91-2.14-.15-.28-.48-2.25-.95-3.05-.46-.8-2.14-2.06-2.62-2.4-.48-.34-1.02-1.16-1.63-1.53-.61-.37-1.42-.3-1.92-.4-.5-.1-1.83-1.1-3.1-1.4l-2.01.78-3.08 2.28v1.18Z" fill="#E7C242"/><path d="M37.22 36.64c-.54 1.49-1.14 2.83-1.14 2.83s1.1-.1 2.24-1.17c1.13-1.06 3-1.64 3.77-2.43.77-.8 1.08-2.55 1.53-3.47.15-.31.37-.89.59-1.6 0 0-1.92 4.18-7 5.84Z" fill="#CF7435"/><path d="M44.24 30.73c.04.01.06.06.05.1-.22.7-.44 1.29-.6 1.6-.15.32-.29.73-.43 1.18l-.2.6c-.24.65-.51 1.3-.9 1.71-.2.2-.47.4-.78.58-.27.17-.58.33-.9.5l-.1.06c-.7.37-1.45.78-2 1.3a4.83 4.83 0 0 1-2.23 1.19h-.05l-.02-.08-.07-.03v-.02l.02-.04a37.85 37.85 0 0 0 1.1-2.77.08.08 0 0 1 .07-.05 12.25 12.25 0 0 0 6.92-5.78.09.09 0 0 1 .12-.05Zm-8.16 8.74-.07-.03a.08.08 0 0 0 0 .08c.02.03.05.04.08.04v-.09Zm.14-.1a2.97 2.97 0 0 0 .52-.16c.41-.16.96-.44 1.52-.97a9.64 9.64 0 0 1 2.04-1.33l.1-.05.9-.5c.3-.18.55-.36.73-.55.37-.38.63-1 .86-1.66l.2-.58c.15-.45.3-.88.45-1.21.09-.17.2-.43.31-.76a12.43 12.43 0 0 1-6.57 5.1 47.22 47.22 0 0 1-1.02 2.57l-.04.1Z" fill="#140C10"/><path d="M42.22 23.74a5.89 5.89 0 0 0 .32-5.95c-.46-.8-2.14-2.06-2.62-2.4-.48-.34-1.02-1.16-1.63-1.53-.62-.37-1.43-.3-1.92-.4-.5-.1-1.83-1.1-3.1-1.4l-2.01.78-3.08 2.28v1.18s.5 1.33.84 1.89c.34.56 1.3.89 2.17 1.08.86.2 3.04 1.2 3.79 1.89s1.76 3.2 1.9 4.02c.05.3.22 1.21.4 2.34a9.67 9.67 0 0 0 4.94-3.79Z" fill="#CF7435"/><path d="M33.25 11.98h.05a7.8 7.8 0 0 1 2.2.97l.4.22c.21.11.38.19.49.21a3.55 3.55 0 0 0 .52.06l.38.04c.35.04.72.12 1.04.31.32.2.62.5.89.79l.1.11c.23.26.45.49.65.63.24.17.78.57 1.32 1.03.54.46 1.08.98 1.32 1.4a5.97 5.97 0 0 1-.33 6.05 9.75 9.75 0 0 1-4.96 3.8c-.03.01-.05 0-.07 0a.08.08 0 0 1-.05-.06 277.86 277.86 0 0 0-.4-2.34c-.07-.4-.35-1.23-.72-2.05-.18-.4-.38-.8-.58-1.15-.2-.34-.4-.62-.58-.78a8.64 8.64 0 0 0-1.83-1.12 10.8 10.8 0 0 0-1.92-.75c-.43-.1-.9-.23-1.3-.4-.4-.19-.74-.42-.92-.72a9.64 9.64 0 0 1-.77-1.68 23.13 23.13 0 0 1-.07-.2v-.01l.07-.04-.08.03v-1.21c0-.02 0-.05.03-.06l3.08-2.28.02-.01 2.02-.8Zm-4.98 4.3.01.05a23.41 23.41 0 0 0 .27.67c.17.4.38.87.54 1.14.16.26.47.47.85.65.39.17.84.3 1.27.4.44.1 1.2.4 1.95.76s1.49.79 1.88 1.14c.2.18.4.48.6.83.21.35.42.76.6 1.17a10.85 10.85 0 0 1 .8 2.55c.08.42.2 1.05.32 1.77a9.57 9.57 0 0 0 4.8-3.73 5.8 5.8 0 0 0 .3-5.85c-.22-.38-.74-.89-1.28-1.35-.53-.45-1.07-.85-1.31-1.02a4.9 4.9 0 0 1-.68-.66l-.1-.1a4.2 4.2 0 0 0-.85-.77c-.29-.17-.63-.24-.97-.28l-.37-.04a25.45 25.45 0 0 1-.55-.06 2.37 2.37 0 0 1-.53-.23l-.41-.23-.34-.18a7.74 7.74 0 0 0-1.79-.77l-1.98.78-3.03 2.25v1.12Z" fill="#140C10"/><path d="M39.92 15.39c-.48-.34-1.02-1.16-1.63-1.53-.62-.37-1.42-.3-1.92-.4-.5-.1-1.83-1.1-3.1-1.4l-2.01.78-3.08 2.28v1.18s.5 1.33.84 1.89c.34.56 1.3.89 2.17 1.08 3.76-.02 6.8-1.5 8.72-2.78.38-.26.4-.83.01-1.1Z" fill="#CA5657"/><path d="M33.25 11.98h.05a7.8 7.8 0 0 1 2.2.97l.4.22c.21.11.38.19.49.21a3.54 3.54 0 0 0 .52.06l.39.04c.34.04.71.12 1.03.31.32.2.62.5.89.79l.1.11a4.83 4.83 0 0 0 .64.63h.01c.43.31.42.94-.02 1.24a16.04 16.04 0 0 1-8.78 2.8c-.43-.1-.9-.24-1.3-.42s-.74-.4-.92-.7a9.65 9.65 0 0 1-.76-1.7 19.5 19.5 0 0 1-.07-.15l-.01-.04v-.01l.07-.04-.08.03v-1.21c0-.02.01-.05.03-.06l3.08-2.28.02-.01 2.02-.8Zm-4.98 4.3.01.05a22.41 22.41 0 0 0 .81 1.81c.16.26.47.47.86.65.38.17.82.3 1.25.4 3.74-.02 6.75-1.5 8.66-2.77a.58.58 0 0 0 .01-.96 4.91 4.91 0 0 1-.78-.77 4.2 4.2 0 0 0-.85-.76c-.29-.17-.63-.24-.97-.28l-.37-.04a25.45 25.45 0 0 1-.55-.06 2.36 2.36 0 0 1-.53-.23 23.18 23.18 0 0 1-.75-.41 7.74 7.74 0 0 0-1.79-.77l-1.98.78-3.03 2.25v1.12Zm11.7-.96Zm-.1.14Z" fill="#140C10"/><path d="M33.25 11.98h.05c.64.14 1.3.48 1.86.78l.34.19.4.22c.21.11.38.19.49.21.12.03.26.04.41.05l.11.01.39.04c.34.04.71.12 1.03.3a4.37 4.37 0 0 1 1 .91c.23.26.44.49.64.63.24.17.78.57 1.32 1.03.54.46 1.09.98 1.33 1.4.23.4.44 1.11.6 1.74l.12.52a52.94 52.94 0 0 0 .22.8l.1.15c.22.4.7 1.23.82 2l.11.6c.08.45.16.87.36 2.44.14 1.1-.06 2.47-.35 3.68-.3 1.22-.67 2.28-.9 2.75-.16.32-.3.73-.44 1.18l-.2.6c-.24.65-.51 1.3-.9 1.71-.2.2-.47.4-.78.58-.27.17-.58.33-.9.5l-.1.05a9.5 9.5 0 0 0-2 1.31 4.83 4.83 0 0 1-2.25 1.2h-.03l-.02-.09-.07-.03v-.02l.02-.03a26.84 26.84 0 0 0 .28-.67c.19-.45.44-1.06.68-1.72.25-.66.5-1.37.68-2.02.19-.65.3-1.24.3-1.64 0-.82-.25-2.65-.53-4.38-.2-1.28-.42-2.5-.55-3.22-.04-.25-.07-.44-.1-.54a11.87 11.87 0 0 0-1.3-3.2c-.19-.34-.39-.62-.57-.78a8.65 8.65 0 0 0-1.83-1.12 10.8 10.8 0 0 0-1.92-.75c-.43-.1-.9-.23-1.3-.4-.4-.19-.74-.42-.92-.72a9.64 9.64 0 0 1-.76-1.68l-.07-.16-.01-.04v-.01l.07-.04-.08.03v-1.21c0-.02.01-.05.03-.06l3.08-2.28.02-.02 2.02-.78Zm-4.98 4.31.01.04a22.41 22.41 0 0 0 .81 1.81c.16.26.47.48.86.65.38.17.83.3 1.26.4.44.1 1.2.4 1.95.76a8.8 8.8 0 0 1 1.88 1.14c.2.18.4.48.61.83.2.35.4.76.59 1.17.36.82.66 1.66.73 2.08l.09.54.55 3.22c.28 1.73.54 3.57.54 4.41 0 .43-.13 1.03-.31 1.68a49.8 49.8 0 0 1-1.61 4.34 3.06 3.06 0 0 0 .51-.15c.41-.16.96-.44 1.52-.97a9.64 9.64 0 0 1 2.04-1.33l.1-.05.9-.5c.3-.18.55-.36.73-.55.37-.38.63-1 .86-1.66l.2-.58c.15-.45.3-.88.45-1.21.23-.46.6-1.5.9-2.71.29-1.21.48-2.57.35-3.63-.2-1.57-.28-1.98-.37-2.43l-.1-.6c-.13-.74-.58-1.54-.81-1.94a1.14 1.14 0 0 1-.17-.37 8.25 8.25 0 0 1-.08-.3l-.08-.33-.13-.52a7.62 7.62 0 0 0-.58-1.7c-.23-.38-.75-.9-1.29-1.35-.53-.45-1.07-.85-1.3-1.02-.23-.16-.45-.4-.68-.66l-.1-.1a4.2 4.2 0 0 0-.85-.77c-.3-.17-.64-.24-.97-.28l-.38-.04a15.94 15.94 0 0 1-.55-.06 2.37 2.37 0 0 1-.53-.24 23.66 23.66 0 0 1-.75-.4 7.74 7.74 0 0 0-1.79-.77l-1.98.78-3.03 2.25v1.12Zm7.81 23.18-.07-.03a.08.08 0 0 0 0 .08c.02.02.05.04.08.03v-.08Z" fill="#140C10"/><path d="M33.28 12.06s-.85.76-1.61 1.15c-.76.39-1.07.79-1.47 1.04-.4.26-.85.54-1.24 1.49s-3.27 2.51-4.6 3.32c-1.32.82-4.91 2.15-5.55 2.15 0 0-2 2.74-2.08 4.13-.09 1.4.05 4.92 0 6.01-.06 1.1.1 5.93.1 5.93s-1.83-1.76-2.67-3.15a13.84 13.84 0 0 1-1.78-4.46c-.16-1.2-.22-3.64 0-5 .21-1.36.12-2.22.03-2.36a2.63 2.63 0 0 1-.26-1.04c-.04-.5 0-1.98.05-2.22.05-.25.44-1.29 1.43-2.32.99-1.03 3.8-2.87 4.65-3.16.84-.3 1.73-.2 2-.24a49.3 49.3 0 0 0 3.3-1.44 27 27 0 0 1 4.6-.79c1.83-.18 5.1.96 5.1.96Z" fill="#912A2F"/><path d="M23.58 11.89c-.4.2-3.05 1.4-3.3 1.44-.27.04-1.16-.05-2 .24-.85.3-3.66 2.13-4.65 3.16a5.81 5.81 0 0 0-1.43 2.32c-.04.24-.1 1.71-.06 2.23.04.5.19.88.27 1.03.02.02.03.07.05.14.26.85 1.7 5.23 4.28 8 0-1.5-.08-4-.02-5.1.08-1.4 2.09-4.14 2.09-4.14.43 0 2.22-.6 3.74-1.26.28-1.76.44-3.01.44-3.01l1.46-5.28c-.44.09-.75.17-.88.23Z" fill="#CA5657"/><path d="M24.5 11.6c.03.02.03.05.03.08l-1.46 5.28v.05a51.95 51.95 0 0 1-.11.79l-.33 2.17c0 .03-.02.05-.05.06a33.54 33.54 0 0 1-3.2 1.16c-.22.06-.4.1-.53.1a16.83 16.83 0 0 0-.98 1.51c-.26.43-.51.9-.7 1.35-.2.45-.34.87-.36 1.2-.05.75-.03 2.14 0 3.43l.01 1.67c0 .04-.02.07-.05.08a.09.09 0 0 1-.1-.02 20.5 20.5 0 0 1-3.43-5.2c-.94-2.07-1.5-4.32-1.12-6.28.03-.13.14-.46.37-.89.23-.42.58-.94 1.08-1.47 1.9-1.99 4.1-3.35 6.81-3.51l.07-.02.12-.04.36-.15c.3-.12.66-.28 1.03-.45.73-.33 1.36-.58 1.57-.68.08-.04.2-.08.34-.12l.56-.12c.03-.01.06 0 .08.02Zm-.88.36c-.21.1-.85.36-1.6.7a50.76 50.76 0 0 1-1.52.64 11.15 11.15 0 0 0-6.8 3.49 6.8 6.8 0 0 0-1.06 1.43 3.6 3.6 0 0 0-.35.84c-.37 1.91.17 4.12 1.1 6.17.9 1.96 2.14 3.77 3.26 5 0-.43 0-.92-.02-1.44-.02-1.29-.04-2.69 0-3.45.03-.36.18-.8.38-1.26.2-.46.46-.93.71-1.36a22.31 22.31 0 0 1 1.01-1.55l.08.04-.07-.04a.09.09 0 0 1 .07-.04c.1 0 .27-.03.53-.1l.9-.28c.68-.23 1.48-.54 2.23-.85a93.37 93.37 0 0 0 .42-2.91v-.05l.01-.01v-.01l1.43-5.15a9.77 9.77 0 0 0-.71.2Z" fill="#140C10"/><path d="M33.28 12.06s-3.28-1.13-5.1-.96c-1.83.18-4.2.6-4.6.79-.8.38-1.47.93-2 1.6a97.5 97.5 0 0 1-2.68 3.33c-2.77 3.29-2.3 8.06-2.3 8.06l.23-.1c.44-1.45 1.98-3.57 1.98-3.57.64 0 4.23-1.33 5.56-2.14 1.32-.82 4.2-2.38 4.6-3.33.38-.95.83-1.23 1.23-1.49.4-.25.71-.65 1.47-1.04a9.48 9.48 0 0 0 1.6-1.15Z" fill="#E7C242"/><path d="m33.3 11.98-.02.08.03-.08c.03.01.05.04.05.08 0 .02 0 .04-.03.06a8.93 8.93 0 0 1-1.64 1.15l-.76.49a4.67 4.67 0 0 0-1.9 2.03c-.86 1-2.82 2.38-4.85 3.5a24.98 24.98 0 0 1-3 1.42c-.9.36-1.72.58-2.33.59a9.34 9.34 0 0 0-.22.31c-.15.22-.36.53-.57.89-.44.7-.93 1.59-1.14 2.3-.01.03-.03.05-.05.06l-.23.1a.09.09 0 0 1-.07 0 .08.08 0 0 1-.05-.07h.09-.09v-.01a2.34 2.34 0 0 1-.01-.2l-.02-.6c0-.5.03-1.2.14-2 .23-1.62.8-3.65 2.2-5.31a97.17 97.17 0 0 0 2.68-3.32 5.62 5.62 0 0 1 2.03-1.64c.12-.05.35-.12.65-.18a40.75 40.75 0 0 1 3.98-.6c.93-.1 2.22.14 3.26.4a25.8 25.8 0 0 1 1.84.54h.03ZM16.69 24.76l.08-.04c.23-.73.72-1.61 1.15-2.31a23.09 23.09 0 0 1 .76-1.15l.05-.07.02-.02.07.04-.07-.05a.09.09 0 0 1 .07-.03c.57 0 1.39-.21 2.32-.57a24.8 24.8 0 0 0 2.97-1.42c2.02-1.11 3.94-2.47 4.79-3.44a4.85 4.85 0 0 1 1.95-2.08l.77-.5.48-.3c.36-.23.71-.47 1.02-.73a21.24 21.24 0 0 0-1.72-.5c-1.04-.26-2.3-.49-3.2-.4a40.52 40.52 0 0 0-3.96.6c-.31.07-.53.13-.62.17-.77.38-1.44.92-1.96 1.59-.72.93-1.62 2.07-2.69 3.33a10.31 10.31 0 0 0-2.16 5.22 14.06 14.06 0 0 0-.12 2.66Z" fill="#140C10"/><path d="M27.81 13.8c.04-.03.1-.02.12.02.02.04.01.09-.03.11l-.04-.07-.05-.07Zm-6.64 4.06-.05-.07a1.18 1.18 0 0 1 .1-.07l.32-.2c.3-.16.75-.4 1.42-.66 1.14-.46 1.68-.86 2.54-1.48a86.73 86.73 0 0 1 1.77-1.24 28.44 28.44 0 0 1 .53-.34h.01l.05.06.04.07a3.34 3.34 0 0 0-.14.1 29.16 29.16 0 0 0-1.76 1.2l-.4.28c-.86.63-1.42 1.03-2.58 1.5a12.02 12.02 0 0 0-1.8.91l-.05-.06Zm0 0-.05-.07a.08.08 0 0 0-.02.12c.03.04.09.04.12.02" fill="#140C10"/><path d="M28.63 11.78c0 .05-.03.08-.08.09-1.9.02-3.81.87-5.51 2.08a17.66 17.66 0 0 0-4.19 4.28c-.1.16-.24.5-.38.95a22.7 22.7 0 0 0-.86 4.05c0 .05-.04.09-.09.09a.08.08 0 0 1-.08-.08c0-.2.05-.59.13-1.04a28 28 0 0 1 .74-3.07c.14-.44.28-.8.4-.99 1.02-1.5 2.51-3.1 4.23-4.32 1.72-1.23 3.67-2.1 5.6-2.12.05 0 .1.03.1.08ZM19.9 14.57v.08-.08c.06 0 .1.03.1.08s-.05.08-.1.08m0 0a1.21 1.21 0 0 0-.16.01c-.1.02-.26.04-.43.1-.33.1-.75.3-1.08.74-.45.6-.69 1.33-.9 2.1l-.08.27c-.2.69-.39 1.39-.72 2a.09.09 0 0 1-.12.03.08.08 0 0 1-.03-.1c.32-.6.51-1.29.7-1.97l.08-.27c.22-.77.46-1.54.94-2.16a2.29 2.29 0 0 1 1.62-.9 2 2 0 0 1 .17-.01h.01M15.07 18.88v.01a2.18 2.18 0 0 0-.1.15 6.2 6.2 0 0 0-.68 1.88 29.94 29.94 0 0 0-.19 3.7c0 .2.04.33.09.4a.33.33 0 0 0 .08.1c.04.01.05.06.03.1a.09.09 0 0 1-.11.04l.04-.08-.04.08h-.01l-.01-.01-.03-.03a.5.5 0 0 1-.1-.1.86.86 0 0 1-.1-.5v-.48c.02-.82.05-2.36.18-3.25a5.55 5.55 0 0 1 .78-2.05l.02-.04.08.04-.07-.05a.09.09 0 0 1 .11-.02c.04.02.05.07.03.11ZM15.88 23.37c.05 0 .09.04.09.09h-.09.09a2.32 2.32 0 0 1-.01.15l-.06.4c-.06.3-.18.7-.43 1a.09.09 0 0 1-.12.02.08.08 0 0 1 0-.12c.22-.28.33-.64.39-.94a3.28 3.28 0 0 0 .06-.5v-.01c0-.05.03-.09.08-.09ZM13.56 28.03c.05 0 .08.04.08.09v.02a75.48 75.48 0 0 1 0 1c0 .57.03 1.2.09 1.56a3.14 3.14 0 0 0 .49 1.21l.01.02-.06.05-.07.05c.02.04.08.05.11.02a.08.08 0 0 0 .02-.11m-.06.04-.07.05a1.68 1.68 0 0 1-.07-.1 3.48 3.48 0 0 1-.47-1.2c-.06-.37-.08-1.02-.09-1.58a38.47 38.47 0 0 1 0-1.01v-.02h.09-.09c0-.05.04-.09.09-.09M34.94 15.49c.04-.02.1 0 .11.03l-.07.04-.08.04c-.02-.04 0-.09.04-.11Zm2.61 3.3.28.25c.64.56 1.36 1.2 1.94 1.83.33.36.61.72.82 1.08.2.35.31.7.3 1.03 0 .05-.04.09-.1.08a.08.08 0 0 1-.07-.08 1.8 1.8 0 0 0-.28-.95 6 6 0 0 0-.8-1.05c-.57-.62-1.28-1.25-1.92-1.82l-.28-.24a11.65 11.65 0 0 1-1.8-2.14 16.66 16.66 0 0 1-.72-1.15l-.01-.02.07-.05.07-.04.02.03a11.72 11.72 0 0 0 .7 1.14c.45.66 1.08 1.48 1.78 2.1Z" fill="#140C10"/><path d="M39.53 17.96c.04-.02.1-.01.12.03l-.07.04-.08.05a.08.08 0 0 1 .03-.12Zm2.36 3.25c.4.52.71.92.92 1.24.2.32.32.57.32.79 0 .1 0 .26.02.48l.03.71c.01.26.02.53.01.76 0 .23-.03.43-.07.57-.04.14-.13.3-.24.5v.01l-.35.67a3.63 3.63 0 0 0-.33 1.92c.01.04-.02.09-.07.1a.08.08 0 0 1-.1-.08c-.09-.8.11-1.48.35-2.01.11-.26.24-.48.34-.67l.01-.02c.11-.2.2-.35.23-.47.03-.11.05-.3.06-.53a11.23 11.23 0 0 0-.04-1.44l-.02-.5c0-.17-.1-.38-.3-.7-.2-.31-.5-.7-.9-1.23a43.27 43.27 0 0 1-2.2-3.13l-.04-.08-.02-.02.08-.05.07-.04.01.02.05.07a70.18 70.18 0 0 0 2.18 3.13ZM38.27 23.67c.04-.03.1-.01.12.02l-.08.05-.07.05a.08.08 0 0 1 .03-.12Zm1.66 3.06c.22 1.24.15 2.54.03 3.84l-.1.9c-.1.99-.2 1.98-.2 2.93 0 .05-.04.08-.08.08a.08.08 0 0 1-.09-.08c0-.96.1-1.96.2-2.96l.1-.89c.12-1.3.19-2.58-.03-3.79-.03-.2-.14-.49-.3-.81a15.07 15.07 0 0 0-1-1.82l-.16-.25-.04-.07-.01-.02.06-.05.08-.05v.01l.01.02.05.07a26.06 26.06 0 0 1 1.17 2.09c.15.32.27.63.31.85ZM41.35 31.79c.04 0 .08.04.08.09a4.42 4.42 0 0 1-1 2.43l-.02.03-.01.01-.07-.05.07.05a.09.09 0 0 1-.12.01.08.08 0 0 1-.01-.12l.04-.04a3.26 3.26 0 0 0 .4-.61c.24-.42.49-1.02.55-1.72 0-.05.04-.08.09-.08ZM19.01 21.58s.54-.96.3-1.35c0 0-.11.45-.37.68-.26.23-.86.87-.99 1.44-.13.56-.35.52-.42.34 0 0-.09.64-.35 1.11-.26.47-.57.88-.57 1.08 0 .2-.08 1.3-.08 1.73 0 .43-.37.99-.37.99l.45.22s-.14.53-.3.53c-.15 0-.32.21-.32.68v1.63s.53.04.53.57a6 6 0 0 1-.36 1.5s.27.33.27.74-.22 1.05-.22 1.05l-.06 1.6.44.45s.54 1.32.54 2.01c0 .7-.16 1.28-.16 1.28s.91.21 1.35.59c.44.37.3 1.06.3 1.06s1.03.03 1 .83c0 0 .84-.03 1.11.24.28.27.42 1.27.42 1.27s.95.1 1.24.3c.3.2.9 1.03 1.38 1.03.48 0 1.37-.12 1.74 0 .36.12.7.35 1 .35.3 0 1.22.15 1.22.15l.1.32s.76-.59.99-.6c.22-.01.56.08.56.08V46l.94-.79.16.3s1.06-.83 1.21-.83c.16 0 .28.4.28.4s1.1-.73 1.37-1.12c.28-.38.44-1.37.63-1.39.2-.02.4.45.4.45s.44-.17.74-.7c.3-.55.72-1.46.88-1.88.17-.42.25-1.32.25-1.32s.64-.43.64-.7c0-.27-.07-.7-.07-.7s.63-.4.67-.66c0 0-.27-.15-.24-.36.03-.2.24-.34.24-.34l.06-.94.37-.1-.1-.54.46-.54-.2-.17s.17-.43.16-.67c0-.25-.17-.8-.17-.8l-.22-.93s-.05-.7.24-.8c.3-.11-.06-.87-.06-.87l-.7-3.4c-.14-.6-.28-.53-.33-.83-.06-.3-.05-1.33-.05-1.33s-.7 1.05-.59 1.33c.1.27.46.84.46.84s-.23.36-.14 1.12c.1.76.57 1.31.62 2.15.04.84.33 2.28.33 2.66 0 .37-.32 2.56-.35 2.73-.03.16-.37.88-.37 1l-.02.52-.48.02s-.8 1.13-.8 1.33c0 .19.03.56 0 .71-.03.15-.4 1.02-.74 1.16-.33.13-.55-.44-.55-.77 0-.32.4-.93.4-.93s-.26-.13-.36-.34c-.1-.2-.24-.31.01-.53.26-.22.92-1.12.92-1.12s-1.36.2-1.65.12c-.3-.09-1.1-.33-1.44-.33-.33 0-1 .73-1.37.73-.36 0-1.35.22-1.36.33-.02.1-.96.29-1 .22-.06-.07-.13-.37-.37-.36-.24.01-.86.34-.96.34-.1 0-.88.09-.89-.08 0-.17-.04-.46-.04-.46s-.73.1-1 .02a5.32 5.32 0 0 1-.62-.21s-1.05.13-1.35.1c-.3-.02-.8-.4-1.14-.27-.33.11-.64.36-.64.82 0 .46-.36 2.36-.24 2.53.11.17.02.46.02.52s.1.35.1.35.59.18.59.3-.22.3-.45.15-.45-.38-.45-.38.02.6.24.79c.22.19.13.4.13.4s-.66-.15-.96-.4c-.3-.25-.03-.13-.1-.19-.06-.06-.67-.88-.67-.88l-.16.11s-.05-.56-.24-.61c-.2-.06-.4-.83-.4-.83s-.67-.08-.78-.19a9.36 9.36 0 0 1-.74-1.72c-.05-.28-.09-1.27-.3-1.44-.2-.16.17-.87-.01-1.14-.18-.27-.22-1.98-.22-1.98s.12-1.6.05-1.87c-.06-.28-.01-2.3-.01-2.3l.03-1.95c0-.5-.05-1.4.07-1.41.13-.02.31-.11.31-.4 0-.3.13-.66.19-.79l.3-.6s.4 0 .49-.39c.07-.38.23-.9.3-1.02.08-.11.47-.36.47-.36Z" fill="#140C10"/><path d="M23.34 42.56s.93-.18 1.02.55c0 0 .4-.12.45-.09.05.04 1.36.8 1.64.8 0 0-.43.57-.3.6a6.4 6.4 0 0 0 1.13-.62s1.73.12 1.93.1c0 0 0 .25.14.25.12 0 .27-.38.27-.38s.8-.33 1.24-.7c.44-.37 1-.97.95-1.17-.06-.2-.54-.13-.54-.13s1.03-.83 1.03-1.02c0-.19.08-1.63.19-1.83l.56-1.18-.47-.3-4.86 1.2-4.63-1.05.99 1.67-.99-.33s.24.72.17 1.07c-.07.34-.04.95-.04.95s-.18 1.15.12 1.61Z" fill="#603612"/><path d="m23.95 39.1 7.06-1.2 2.04-.53s-.74 1.34-1.81 1.88c-1.07.55-3.3 1.07-3.93 1.07-.63 0-1.26-.25-2-.28-.73-.03-1.54-.95-1.54-.95h.18Z" fill="#FFFEFF"/><path d="M22.86 37.44s.4 1.66 2.34 2.4c1.92.75 4.77.03 5.8-.7a5.71 5.71 0 0 0 1.58-1.7s-3.64.33-4.92.4c-1.27.08-4.8-.4-4.8-.4Z" fill="#FFFEFF"/><path fill-rule="evenodd" d="M22.87 37.37v.07l-.07.01-.02-.09.1.01Zm9.71.07v-.07l-.16.02a443.85 443.85 0 0 1-4.76.4c-.63.03-1.83-.07-2.87-.18a72.95 72.95 0 0 1-1.76-.22l-.12-.01h-.04v.06l-.07.01v.02a1.75 1.75 0 0 0 .1.26 4 4 0 0 0 2.27 2.17c.98.38 2.19.38 3.28.2a6.84 6.84 0 0 0 2.6-.91 5.77 5.77 0 0 0 1.58-1.71v-.01h.01l-.06-.03Zm0 0v-.07h.12l-.06.1-.06-.03Zm-.11.07h-.04l-.43.04a518.26 518.26 0 0 1-4.34.36c-.64.04-1.84-.07-2.88-.18a73.69 73.69 0 0 1-1.83-.22l.07.17a3.87 3.87 0 0 0 2.2 2.1c.95.37 2.13.38 3.2.2a6.72 6.72 0 0 0 2.55-.9 5.64 5.64 0 0 0 1.5-1.57Z" fill="#140C10"/><path d="M25.95 29.92c.11.04.18.16.14.27l-.2-.07.2.07v.02l-.03.06a9.8 9.8 0 0 1-.36.9 4.81 4.81 0 0 1-1 1.55c-.4.34-.65.58-.8.8a.85.85 0 0 0-.21.52v.18c-.01.27-.02.67.04 1.08.07.52.26.98.63 1.2.1.05.14.18.08.28a.21.21 0 0 1-.29.08c-.55-.32-.76-.95-.84-1.5-.07-.45-.06-.9-.05-1.17v-.15c0-.28.1-.52.3-.78.18-.25.47-.52.85-.85.34-.3.66-.88.9-1.4a10.59 10.59 0 0 0 .37-.93v-.02a.21.21 0 0 1 .27-.14Z" fill="#140C10"/><path d="M24.63 32.76a.2.2 0 0 0 .12-.27l-.12.27Zm-.08-.2-.07-.2-.02.01-.03.01a7.26 7.26 0 0 0-.82.38c-.11.06-.23.14-.3.23l.15.14-.16-.14a11.2 11.2 0 0 1-.76.69l-1.11.98a5.78 5.78 0 0 0-1.15 1.51v.01l.19.1-.2-.1a.2.2 0 0 0 .1.29c.11.04.24 0 .29-.1v-.01a1.31 1.31 0 0 1 .06-.11 4.86 4.86 0 0 1 1-1.28l1.1-.98.04-.03c.35-.3.65-.56.77-.7a4.29 4.29 0 0 1 .96-.5h.03m.13-.27a.21.21 0 0 0-.27-.12l.27.12Zm-.27-.12.07.2-.07-.2ZM29.25 29.84c.12 0 .22.1.22.2.01 1 .38 1.61.81 2.23l.15.2c.4.56.83 1.15 1 2 .05.26.01.55-.06.83a7.8 7.8 0 0 1-.8 1.68l-.02.02-.18-.12.17.12c-.06.1-.2.12-.3.06a.2.2 0 0 1-.05-.3m0 0h.01a4.82 4.82 0 0 0 .14-.23 7.37 7.37 0 0 0 .61-1.34c.07-.25.1-.47.06-.64a4.56 4.56 0 0 0-.92-1.83l-.15-.21a4.04 4.04 0 0 1-.9-2.46c0-.11.1-.2.21-.2M31.7 33.27c.08-.09.2-.11.3-.04l-.12.17.12-.17.02.01a4.09 4.09 0 0 1 .24.19c.15.13.36.31.59.54a4.9 4.9 0 0 1 1.2 1.76.21.21 0 0 1-.14.26.21.21 0 0 1-.27-.13 4.5 4.5 0 0 0-1.1-1.6 7.91 7.91 0 0 0-.77-.68l-.01-.01a.2.2 0 0 1-.05-.3ZM22.13 21.97l-.03-.08-.03-.08h.03a5.77 5.77 0 0 1 .3-.1l.78-.2a8.39 8.39 0 0 1 2.05-.25c.04 0 .08.05.08.1 0 .04-.04.07-.1.07-.6-.02-1.37.1-2 .25a16.35 16.35 0 0 0-1.06.28h-.02v.01Zm-.11-.05a.08.08 0 0 1 .05-.11l.03.08.03.08a.09.09 0 0 1-.11-.05ZM29.28 20.94v-.09a.08.08 0 0 0-.08.1c0 .04.04.07.09.07m0 0H29.35a8.4 8.4 0 0 1 .77-.03c.48 0 1.05.05 1.46.2.05.01.1-.01.11-.06.02-.04 0-.09-.05-.1a5.09 5.09 0 0 0-1.52-.2 10.15 10.15 0 0 0-.83.02h-.01v.09M29.58 24.06a.2.2 0 0 1-.04.3c-.33.24-.42.51-.43.7a.87.87 0 0 0 .04.34.2.2 0 0 1-.1.28c-.12.05-.24 0-.29-.1l.2-.1-.2.1v-.02a.81.81 0 0 1-.05-.15c-.02-.09-.04-.22-.03-.37.03-.31.17-.7.6-1.02.1-.07.23-.06.3.04ZM30.69 29.42a.09.09 0 0 1 .12 0l-.06.06.06-.06m-.06.06-.06.06a.08.08 0 0 1 0-.12m.06.06-.06.06.01.01a3.23 3.23 0 0 0 .19.17c.13.11.31.27.53.42a4.2 4.2 0 0 0 1.73.75c.04 0 .09-.03.1-.07a.08.08 0 0 0-.08-.1 4.04 4.04 0 0 1-1.65-.72 6.13 6.13 0 0 1-.7-.57M30.33 28.36a.09.09 0 0 1 .12-.02l.27.2c.57.4 1.15.81 1.78 1.15.72.4 1.48.69 2.28.72.05 0 .09.04.08.1 0 .04-.04.07-.09.07a5.44 5.44 0 0 1-2.36-.74c-.63-.34-1.23-.77-1.79-1.16l-.27-.2a.08.08 0 0 1-.02-.12Z" fill="#140C10"/><path d="M35.24 29.7c.01.04-.01.1-.06.1a3.4 3.4 0 0 1-1.33.1 4.93 4.93 0 0 1-.13 0h-.01v-.1.1a.08.08 0 0 1-.08-.1c0-.05.05-.08.1-.08h.03a4.27 4.27 0 0 0 1.37-.08c.04 0 .1.02.1.06ZM19.78 29.7a.09.09 0 0 1 .11-.02c.55.4 1.34.47 2 .42a6.53 6.53 0 0 0 1.16-.19h.02l.03.08m0 0 .02.08a1.65 1.65 0 0 1-.1.02 5.97 5.97 0 0 1-1.12.18c-.67.05-1.51 0-2.1-.45a.08.08 0 0 1-.02-.12M18.8 29.45c.05-.01.1 0 .12.05l-.08.03.08-.03.01.03.06.1c.05.07.13.18.24.3.23.22.6.47 1.17.57a.08.08 0 1 1-.03.16 2.28 2.28 0 0 1-1.53-.95 1.46 1.46 0 0 1-.07-.13v-.01l.07-.04-.08.03c-.02-.04 0-.09.04-.1Zm.12.05ZM23.51 28.74c.04.03.05.08.03.12-.42.64-1.2.84-1.86.88a5.27 5.27 0 0 1-1.22-.07h-.01l.02-.08-.02.08a.08.08 0 1 1 .03-.17 1.85 1.85 0 0 1 .1.02 4.82 4.82 0 0 0 1.08.05c.65-.04 1.36-.23 1.73-.8a.09.09 0 0 1 .12-.03Z" fill="#140C10"/><path d="m30.05 26.35-.1.7c0 .13.15.65.21.73.06.07.8.22 1.2.37.4.15 1.07.8 1.73.9.66.08 1.69 0 1.69 0s-.16-1.12-.2-1.5c-.06-.37-.42-1.27-1.07-1.28-.65 0-1.87.1-2.27.1-.4-.02-.99-.24-1.19-.02Z" fill="#FFFEFF"/><path d="m30.93 26.24.31.04a15.14 15.14 0 0 0 1.04-.05c.43-.02.9-.05 1.23-.04.37 0 .64.26.83.54.18.29.29.62.32.82l.12.88.06.42.02.18a.08.08 0 0 1-.07.1c-1.16.1-1.8-.19-2.6-.54-.26-.11-.54-.24-.87-.36l-.55-.19-.28-.09a10.32 10.32 0 0 1-.57-.22.16.16 0 0 1-.04-.04.08.08 0 0 1-.02-.05l.1-1.3.03-.05c.07-.07.17-.1.27-.11.1-.02.21 0 .32 0l.25.05.1.01Zm3.75 2.72-.01-.09a302.09 302.09 0 0 1-.18-1.3 2.02 2.02 0 0 0-.3-.75c-.17-.26-.4-.46-.68-.46-.32 0-.79.02-1.22.04h-.12c-.4.03-.75.05-.93.04a2.62 2.62 0 0 1-.44-.05 6.43 6.43 0 0 0-.52-.05.28.28 0 0 0-.15.05l-.1 1.21h.01l.12.06a10.08 10.08 0 0 0 .66.22l.56.2c.35.12.64.25.91.37.76.33 1.34.59 2.4.51Z" fill="#140C10"/><path d="M32.98 26.28c-.64.03-1.44.09-1.74.08h-.04c-.05.29-.1.74-.04 1.06.05.28.15.56.22.75.4.16 1.07.79 1.71.87.17.02.35.04.54.04.1-.32.27-1.01.04-1.6a4.72 4.72 0 0 0-.69-1.2Z" fill="#140C10"/><path d="M19.38 28.06s.56.89.95.96c.38.08 1.8-.43 2.25-.48.45-.06 1.51-.42 1.51-1.06 0 0-.62-.54-1.22-.56-.6-.02-2.48.22-2.76.22-.27 0-.73.92-.73.92Z" fill="#FFFEFF"/><path d="M21.36 26.94c.58-.06 1.2-.11 1.51-.1.32.01.65.16.88.3a3.27 3.27 0 0 1 .39.27l-.05.07.06-.06c.02.01.03.04.03.06 0 .37-.3.64-.63.82-.34.18-.73.3-.96.32a4.17 4.17 0 0 0-.8.2l-.34.1a9.7 9.7 0 0 1-.93.19.8.8 0 0 1-.21 0 .82.82 0 0 1-.35-.2 5.26 5.26 0 0 1-.64-.8h-.01a.08.08 0 0 1 0-.1l.07.05-.08-.04V28a23.3 23.3 0 0 0 .08-.14 5.18 5.18 0 0 1 .44-.64.77.77 0 0 1 .14-.12.3.3 0 0 1 .15-.05l.46-.04.35-.04h.02l.42-.04Zm-1.88 1.11a4.52 4.52 0 0 0 .59.73c.1.09.2.15.27.16h.17c.07 0 .16-.02.25-.04a9.56 9.56 0 0 0 .99-.24l.32-.1c.2-.05.38-.09.5-.1.21-.03.58-.13.9-.3.3-.17.52-.39.54-.64a2.52 2.52 0 0 0-.35-.24 1.78 1.78 0 0 0-.8-.27 14.77 14.77 0 0 0-1.9.14h-.02l-.35.04a6.9 6.9 0 0 1-.54.06.6.6 0 0 0-.1.1 4.94 4.94 0 0 0-.47.7Z" fill="#140C10"/><path d="M22.87 26.92c-.42-.01-1.46.1-2.14.17-.1.38-.3 1.31-.15 1.93.46-.06 1.24-.3 1.72-.42.05-.18.13-.43.28-.62.2-.28.37-.74.43-1.04l-.14-.02Z" fill="#140C10"/><path d="M27.15 23.74c.24 0 .43-.35.43-.78 0-.43-.2-.78-.43-.78-.24 0-.44.35-.44.78 0 .43.2.78.44.78Z" fill="#8D1114"/><path d="M32.42 37.64h-.4l-.93.09-.83-.03-.43.3h-.25s-.31-.07-.4 0c-.1.05-.64.17-.64.17v-.38s-.56.23-.85.23c-.3 0-.95.15-.95.15v-.3l-.93.11s.03-.13 0-.23c-.02-.1-1 0-1 0l-.25-.1c-.25-.11-1.34-.07-1.34-.07l.17-.3 4.43.45 4.18-.6h.78l-.36.51Z" fill="#140C10"/><path d="M29.44 38.2s1.78-.07 1.8.06c.03.14-.1.83-.1.83s1.5-1.42 1.44-1.62c-.05-.2-1.8.6-3.14.73Z" fill="#140C10"/></svg>