<svg width="56" height="56" viewBox="0 0 56 56" xmlns="http://www.w3.org/2000/svg"><rect fill="#F0F3FA" width="56" height="56" rx="28"/><circle cx="28" cy="28" r="17" fill="#039"/><path fill-rule="evenodd" d="M28 41.55a13.55 13.55 0 1 0 0-27.1 13.55 13.55 0 0 0 0 27.1ZM28 43a15 15 0 1 0 0-30 15 15 0 0 0 0 30Z" fill="#FC0"/><path d="m28 16.87.33 1.03h1.09l-.88.64.34 1.03-.88-.64-.88.64.34-1.03-.88-.64h1.09l.33-1.03ZM22.93 18.18l.34 1.03h1.08l-.87.64.33 1.03-.88-.64-.87.64.33-1.03-.87-.64h1.08l.33-1.03ZM33.07 18.18l.33 1.03h1.08l-.87.64.33 1.03-.87-.64-.88.64.33-1.03-.87-.64h1.08l.34-1.03ZM19.29 21.81l.33 1.03h1.08l-.87.64.33 1.03-.87-.64-.88.64.33-1.03-.87-.64h1.08l.34-1.03ZM18.05 26.74l.33 1.03h1.09l-.88.63.33 1.03-.87-.63-.88.63.34-1.03-.88-.63h1.08l.34-1.03ZM19.34 31.46l.34 1.03h1.08l-.88.64.34 1.03-.88-.64-.88.64.34-1.03-.88-.64h1.09l.33-1.03ZM23.04 35.1l.34 1.04h1.08l-.88.63.34 1.04-.88-.64-.88.64.34-1.04-.88-.63h1.09l.33-1.03ZM28 36.35l.33 1.03h1.09l-.88.63.34 1.03-.88-.63-.88.63.34-1.03-.88-.63h1.09l.33-1.03ZM32.92 35.05l.34 1.03h1.08l-.88.64.34 1.03-.88-.64-.87.64.33-1.03-.88-.64h1.09l.33-1.03ZM36.66 31.46l.33 1.03h1.09l-.88.64.34 1.03-.88-.64-.88.64.34-1.03-.88-.64h1.08l.34-1.03ZM37.9 26.74l.33 1.03h1.09l-.88.63.34 1.03-.88-.63-.88.63.34-1.03-.88-.63h1.08l.34-1.03ZM36.55 21.76l.34 1.03h1.08l-.88.64.34 1.03-.88-.64-.87.64.33-1.03-.88-.64h1.09l.33-1.03Z" fill="#FC0"/></svg>