<!-- by TradingView --><svg xmlns="http://www.w3.org/2000/svg" width="56" height="56"><path fill="#F0F3FA" d="M0 0h56v56H0z"/><path fill-rule="evenodd" d="M34.08 18.75c-.12-1.42-.44-4.28-.7-4.31-.26-.04-1.77 2.95-2.5 4.45l-.07.16c-.49.06-1.51.38-1.75 1.25-.23.86.61 1.33 1.06 1.46.99.56 2.58 2.3 1.03 4.75.1-.53-.16-1.63-2.04-1.83.03.43-.02 1.45-.46 2.08l-.23.31c-.67.92-1.9 2.61-1.8 3.95.14 1.5 1.61 2.23 2.64 1.03.02.11 0 .4-.22.64l-.14.17c-.3.43-.91 1.26-2.89 1.16-.05.1-.14.36-.13.57.01.25.21 1.04.68 1.74.47.69.82 1.82.78 2.3 1.53 0 5-.37 6.71-1.83a6.32 6.32 0 01-1.13-6.19c-.88-.2-2.66-1.04-2.71-2.78.03-.08.12-.22.24-.24.11-.02.17.15.19.24.01.63.52 2 2.45 2.45 1.94.45 3.15.5 3.5.48 1.06.14 3.32.67 3.88 1.76.56 1.08 1.62.72 2.08.41l-1.03-.9c-.07-.1-.12-.28.16-.2.28.08 1.12.49 1.5.69.93-.72 2.52-2.54 1.48-4.08l-4.97-4.15a2.36 2.36 0 01-2.12-2.23c-.52.27-1.74.17-2.52-2.4-.11-.12-.55-.36-1.37-.4a6.8 6.8 0 00-1.95.19c.32-1.05 1.06-3.15 1.38-3.18.32-.02.4.2.45.4l.04.11c.07.14-.12.06-.22 0-.02-.09-.1-.26-.17-.24a20.8 20.8 0 00-.88 2.3 6.56 6.56 0 011.75-.09zM43 28.7c-.17.15-.48.59-.35 1.1.16.66.69.73 1.18.27-.42.03-1.17-.2-.83-1.37z" fill="url(#apc4xqnyw)"/><path d="M10.8 40.57c-.8.04-1.52-.66-1.78-1.02-.18 1.19.78 1.98 1.28 2.22.48.07 1.58.18 2.18.12.75-.1.92-.67.9-.9 0-.23-.18-.56-.47-.59-.29-.03-1.08.13-2.1.17z" fill="url(#bpc4xqnyw)"/><path d="M13.4 39.64c.26-.6 1.09-.81 1.46-.84-1.15 1.98.2 2.97 1.03 3.21-.39.5-.82.95-1.64 1.23-.82.27-2.36-.33-2.85-.4-.4-.05-.91.3-1.12.49.25-.91.85-1.14 1.12-1.14.22.06.8.14 1.33 0 .65-.17.82-.8.9-1.04a6 6 0 00-.23-1.51z" fill="url(#cpc4xqnyw)"/><path d="M15.23 38.88c.14.12 1.31.37 1.87.48-.87.45-1.32 1.68-1.43 2.25-1.54-.64-.94-2.09-.44-2.73z" fill="url(#dpc4xqnyw)"/><path d="M30.58 18.7l1.14-2.42c-8-2.25-9.08 4.06-8.63 7.49.4 1.23 1.25 3.87 1.38 4.57.14.7-.38 2.25-.65 2.93 2.86-3.03 2.44-5.77 2.47-6.25.04-.48-.13-2.09-.21-2.38a4.3 4.3 0 010-1.12c.16-1.44 1.38-2.74 1.7-2.81.27-.06.21.12.15.22-.52.47-1.51 1.78-1.33 3.24.22 1.84 3.35 2.4 3.88 2.58.43.15.78.64.9.86a3.01 3.01 0 00-1.57-3.7c-.32-.02-.98-.34-1.09-1.45-.1-1.1 1.2-1.63 1.86-1.75z" fill="url(#epc4xqnyw)"/><path d="M34.5 18.89l-.2-1.82c1.33-.15 2.5.46 2.91.78l-1.83 1.4c-.25-.2-.69-.33-.87-.36z" fill="url(#fpc4xqnyw)"/><path d="M41.26 16.6a3 3 0 010-1.37l2.39-1.97c.21 0 .2.13.16.2l-2.55 3.14z" fill="#924BC5"/><path d="M39.43 16.57l1.53-1.17a4.03 4.03 0 000 1.6l-1.38 1.68c-.3-.6-.22-1.66-.15-2.1z" fill="url(#gpc4xqnyw)"/><path d="M37.87 20.8c-.38-.48-.33-2.01-.26-2.72l1.46-1.18a4.38 4.38 0 00.3 2.12l-1.5 1.78z" fill="#CD4BDF"/><path d="M33.63 22.75c.9.08 2.22.84 2.76 1.21.81.63.76 1.97-.17 1.61-.94-.36-2.52-2.81-2.59-2.82z" fill="url(#hpc4xqnyw)"/><path d="M37.3 23.85c-.45-.15-1.4.2-1.8.4.3.5.83.76 1 .85.16.07.8-.03 1.11-.09l-.31-1.16z" fill="#4848BA"/><path d="M36.02 24.27c0 .15.18.44.82.4-.77.28-.87-.15-.82-.4z" fill="#ECE2FF"/><path d="M30.4 28.7c.48 1.15 1.8 1.75 2.52 1.91a6.45 6.45 0 00.56 5.42c-3.2-1.35-3.43-5.2-3.08-7.34z" fill="url(#ipc4xqnyw)"/><path d="M37.06 21.9c-1.26-.7-1.62-1.73-1.64-2.15l1.83-1.47c-.11.61-.17 2.02.45 2.78l-.64.83z" fill="#CC51E8"/><path d="M37.85 21.54l.88-1.08c.19.43.16 2.01.16 2.47 0 .36.25.77.37.93a2.1 2.1 0 01-1.4-2.32z" fill="url(#jpc4xqnyw)"/><path d="M23.65 26.6c-1.38-3.27-1.2-5.6-.93-6.35a6.01 6.01 0 00-3.73 5.46c-.03.65.04 2.28.56 3.6.52 1.32.14 2.7-.12 3.23-.49.65-1.77 1.5-3-.27a3.84 3.84 0 010-2.96c-.8.7-2.35 2.47-2.1 3.9.32 1.8.64 3.48 3.72 3.65 2.46.14 3.5-1.95 3.7-3.01V30.8c-.16-1.2-.02-3.72 1.9-4.2z" fill="url(#kpc4xqnyw)"/><path d="M22.2 28.97a2.27 2.27 0 011.64-1.98c.82 3.12-.71 4.73-.8 5.03-.08.25.08.31.16.31l.69-.61c.1 1.38 1.25 2.06 1.82 2.23-.46 1.1.61 2.6 1.17 3.85.44 1-.19 1.89-.56 2.2a2.99 2.99 0 00-.9-2.51c-.05-.1-.42-.52-1.53-1.33a4.59 4.59 0 01-1.68-2.7c-.04-.98-.1-3.24 0-4.5z" fill="url(#lpc4xqnyw)"/><path d="M24.18 31.4c2.75-2.62 2.7-6.77 2.32-8.51a3.68 3.68 0 002.34 1.73c.07.64-.43 2.1-.94 2.66-.42.46-1.04 1.66-1.3 2.2-.99 2.68.68 3.51 1.64 3.6-2.76 1.53-3.86-.47-4.06-1.67z" fill="url(#mpc4xqnyw)"/><path d="M21.18 35.76c.37-.41.7-1.33.83-1.73.2.96.98 1.79 1.34 2.08-.02 0-.1.2-.16.92-.09.9.67 1.4.6 2.7-.07 1.28-.69 2.13-1.62 2.37-.75.2-1.69-.08-2.06-.24 2.59.01 1.58-3.14 1.32-4.06a8.05 8.05 0 01-.25-2.04z" fill="url(#npc4xqnyw)"/><path d="M25.61 38.24c-.08-.35-1.37-1.4-2-1.87-.42 1.11.47 2.2.48 3.3 0 .88-.55 1.84-.83 2.2 2-.95 2.45-3.2 2.35-3.63z" fill="#4C6EB5"/><path d="M20.88 36.63v-.55a4.27 4.27 0 01-5.82-.14c-2.16.5-2.15 2.52-1.88 3.46 1.6-1.8 2.32-.32 4.58-.3 1.81.01 2.84-1.64 3.12-2.47z" fill="url(#opc4xqnyw)"/><path d="M21.45 38.8l-.51-1.7a3.6 3.6 0 01-3.4 2.32c-1.22.4-1.52 1.78-1.52 2.42a3.15 3.15 0 012.38-1c.43.03 1.52 0 2.36-.4.84-.37.81-1.25.7-1.64z" fill="#497DB7"/><path d="M20.63 41.54c.55-.07.83-.97.9-1.41-.43.65-1.34.92-1.75.97h-1.72c-.62 0-1.54.53-1.85.94-.25.32-.86.94-1.13 1.2-.05.2.14.59.23.76a2.46 2.46 0 012.1-1.58h3.22a2.2 2.2 0 01-1.45-.79c.25 0 .89-.01 1.45-.09z" fill="url(#ppc4xqnyw)"/><path d="M12.81 38.38c-1.29.13-1.94-.94-2.1-1.48-.35 2.72 1.37 3.24 2.27 3.15-.18-.23-.19-1.2-.17-1.67z" fill="url(#qpc4xqnyw)"/><path d="M19 12h-3a3 3 0 003 3v8.6c.84-2.18 2.93-3.29 4-3.7V15h4.48c1.66 0 3.25.31 4.7.88a6.2 6.2 0 011.45-1.98c.58.21.81 2.1.86 3.03a4.69 4.69 0 013.1.79l1.96-1.48A14.55 14.55 0 0029.28 12H19zm22.02 5.92l-1.85 2.32c.1.17.17 1.8.16 2.4a2 2 0 00.36 1.11L44 27.44v-.5c0-3.38-1.11-6.5-2.98-9.02zm1.93 15.68l-.21.05c-1.98.41-2.47-.52-2.7-.98l-.1-.17c-.14-.2-.66-.45-1.03-.59A12.56 12.56 0 0127.48 39h-.29c-.4 1.23-.85 1.51-1.12 1.49.14-.7.12-.97 0-1.18-.8 2.6-3.9 3.57-4.67 3.65l-.08.04h7.96c6.2 0 11.5-3.89 13.67-9.4zM19 32.55c.62-.8.79-1.76.66-2.25L19 28.16v4.4z" fill="url(#rpc4xqnyw)"/><defs><linearGradient id="apc4xqnyw" x1="47.39" y1="29.38" x2="26.65" y2="33.49" gradientUnits="userSpaceOnUse"><stop offset=".32" stop-color="#C051E1"/><stop offset="1" stop-color="#4B47C0"/></linearGradient><linearGradient id="bpc4xqnyw" x1="14.05" y1="41.3" x2="9" y2="41.14" gradientUnits="userSpaceOnUse"><stop stop-color="#497DB7"/><stop offset="1" stop-color="#67D1A5"/></linearGradient><linearGradient id="cpc4xqnyw" x1="13.09" y1="38.8" x2="13.09" y2="43.33" gradientUnits="userSpaceOnUse"><stop offset=".14" stop-color="#4E97AE"/><stop offset="1" stop-color="#67D1A5"/></linearGradient><linearGradient id="dpc4xqnyw" x1="17.6" y1="39.64" x2="14.68" y2="40.24" gradientUnits="userSpaceOnUse"><stop stop-color="#497DB7"/><stop offset="1" stop-color="#67D1A5"/></linearGradient><linearGradient id="epc4xqnyw" x1="30.65" y1="21.11" x2="23" y2="21.62" gradientUnits="userSpaceOnUse"><stop stop-color="#4375B1"/><stop offset="1" stop-color="#6AE3A3"/></linearGradient><linearGradient id="fpc4xqnyw" x1="36.82" y1="17.05" x2="34.3" y2="17.05" gradientUnits="userSpaceOnUse"><stop stop-color="#589CB6"/><stop offset="1" stop-color="#6BC7B2"/></linearGradient><linearGradient id="gpc4xqnyw" x1="41.41" y1="16.36" x2="38.69" y2="18.68" gradientUnits="userSpaceOnUse"><stop stop-color="#924BC5"/><stop offset="1" stop-color="#CD4BDF"/></linearGradient><linearGradient id="hpc4xqnyw" x1="33.63" y1="22.75" x2="36.97" y2="26.5" gradientUnits="userSpaceOnUse"><stop stop-color="#6051BE"/><stop offset="1" stop-color="#A754D8"/></linearGradient><linearGradient id="ipc4xqnyw" x1="33.96" y1="32.89" x2="31.23" y2="33.44" gradientUnits="userSpaceOnUse"><stop stop-color="#AF53DB"/><stop offset="1" stop-color="#4E46BD"/></linearGradient><linearGradient id="jpc4xqnyw" x1="39.26" y1="22.16" x2="37.83" y2="22.16" gradientUnits="userSpaceOnUse"><stop stop-color="#4C80B8"/><stop offset="1" stop-color="#6DCBB2"/></linearGradient><linearGradient id="kpc4xqnyw" x1="23.65" y1="33.71" x2="16.08" y2="34.02" gradientUnits="userSpaceOnUse"><stop stop-color="#4375B1"/><stop offset="1" stop-color="#67D1A5"/></linearGradient><linearGradient id="lpc4xqnyw" x1="22.16" y1="26.99" x2="24.6" y2="40" gradientUnits="userSpaceOnUse"><stop offset=".14" stop-color="#67D1A5"/><stop offset="1" stop-color="#446CB8"/></linearGradient><linearGradient id="mpc4xqnyw" x1="28.85" y1="29.61" x2="23.21" y2="31.08" gradientUnits="userSpaceOnUse"><stop stop-color="#4775B3"/><stop offset=".88" stop-color="#6DDFA4"/></linearGradient><linearGradient id="npc4xqnyw" x1="20.69" y1="36.22" x2="23.8" y2="42.17" gradientUnits="userSpaceOnUse"><stop stop-color="#67DAA4"/><stop offset="1" stop-color="#4B8AAE"/></linearGradient><linearGradient id="opc4xqnyw" x1="13.71" y1="37.67" x2="20.42" y2="38.19" gradientUnits="userSpaceOnUse"><stop offset=".15" stop-color="#60D4AB"/><stop offset="1" stop-color="#4883AF"/></linearGradient><linearGradient id="ppc4xqnyw" x1="21.52" y1="40.57" x2="16.98" y2="43.06" gradientUnits="userSpaceOnUse"><stop stop-color="#66BAAB"/><stop offset="1" stop-color="#68DDA4"/></linearGradient><linearGradient id="qpc4xqnyw" x1="14.98" y1="39.04" x2="10.66" y2="39.46" gradientUnits="userSpaceOnUse"><stop stop-color="#4B8DAE"/><stop offset="1" stop-color="#66D0A5"/></linearGradient><linearGradient id="rpc4xqnyw" x1="44.67" y1="31.56" x2="18.81" y2="31.56" gradientUnits="userSpaceOnUse"><stop stop-color="#4D45C2"/><stop offset="1" stop-color="#4B46C2"/></linearGradient></defs></svg>