<!-- by TradingView --><svg width="56" height="56" viewBox="0 0 56 56" xmlns="http://www.w3.org/2000/svg"><path fill="#181B1E" d="M0 0h56v56H0z"/><path d="M24.63 22.55c-.51-.3-1-.5-1.3-.58l.31-.96c.35.12.9.34 1.48.67a5.7 5.7 0 0 1 1.62 1.3l-.78.63c-.32-.4-.82-.77-1.33-1.06ZM31.3 33.45c.52.3 1.01.5 1.3.58l-.3.96c-.36-.12-.91-.34-1.49-.67a5.7 5.7 0 0 1-1.62-1.3l.78-.63c.33.4.82.77 1.34 1.06ZM27.53 22.27a7.4 7.4 0 0 0-3.84-2.4l.2-.99c.9.19 2.98.98 4.42 2.76l-.78.63ZM28.4 33.73a7.4 7.4 0 0 0 3.84 2.4l-.2.99a8.38 8.38 0 0 1-4.41-2.76l.78-.63Z" fill="#BBB"/><path d="M30.06 20.71c-.64.42-1.2.94-1.5 1.28l-6.24 6.56A8.62 8.62 0 0 0 20 34.54c0 2.17.75 4.33 2.32 5.98A7.82 7.82 0 0 0 28 43c2.06 0 4.11-.83 5.68-2.48A8.62 8.62 0 0 0 36 34.6a8.63 8.63 0 0 0-2.32-6.05l.69-.7a9.8 9.8 0 0 1 0 13.38A8.75 8.75 0 0 1 27.99 44c-2.3 0-4.6-.93-6.36-2.77A9.69 9.69 0 0 1 19 34.54c0-2.42.88-4.84 2.63-6.7l6.24-6.55c.35-.39.96-.95 1.67-1.42.7-.47 1.57-.89 2.42-.87l-.02 1a3.56 3.56 0 0 0-1.88.71Z" fill="#BBB"/><path d="M33.68 15.48a7.76 7.76 0 0 0-11.36 0 8.78 8.78 0 0 0 0 11.97l-.69.7a9.8 9.8 0 0 1 0-13.38 8.7 8.7 0 0 1 12.74 0 9.8 9.8 0 0 1 0 13.38l-6.24 6.56c-.35.39-.96.95-1.67 1.42-.7.47-1.57.89-2.42.87l.02-1c.56.01 1.23-.28 1.88-.71.64-.42 1.2-.94 1.5-1.28l6.24-6.56a8.78 8.78 0 0 0 0-11.97Z" fill="#BBB"/><path d="M32.3 22.01a1.98 1.98 0 0 0-1.5.6l-7.07 7.47A6.51 6.51 0 0 0 22 34.44a6.54 6.54 0 0 0 1.73 4.68 5.8 5.8 0 0 0 8.54 0A6.53 6.53 0 0 0 34 34.57c0-1.62-.56-3.25-1.73-4.49l.68-.7a7.7 7.7 0 0 1 0 10.45 6.74 6.74 0 0 1-9.9 0A7.6 7.6 0 0 1 21 34.5c.02-1.86.7-3.7 2.05-5.13l7.06-7.46a2.92 2.92 0 0 1 2.25-.9l-.07 1Z" fill="#BBB"/><path d="M27.98 15c-5.3.02-8.01 7.1-4.3 10.97l-.69.7C18.7 22.2 21.83 14.07 27.94 14c6.16-.06 9.42 8.16 5.07 12.68l-7.14 7.42c-.32.34-1.17.97-2.28.9l.07-1c.73.04 1.32-.4 1.5-.6l7.16-7.43c3.73-3.88.96-10.99-4.34-10.97Z" fill="#BBB"/><path d="M30.84 18.27a3.86 3.86 0 0 0-5.69 0 4.46 4.46 0 0 0 0 6.05l-.69.72a5.52 5.52 0 0 1 0-7.49 4.8 4.8 0 0 1 7.08 0 5.52 5.52 0 0 1 0 7.49l-6.27 6.64a4.48 4.48 0 0 0-1.27 3c0 1 .43 2 1.1 2.8l.08.1a3.72 3.72 0 0 0 5.48.36 4.26 4.26 0 0 0 1.34-3.2c-.03-1.01-.45-2.01-1.17-2.78l-.42-.44.7-.72.4.44c.95 1 1.49 2.3 1.49 3.61 0 1.42-.6 2.83-1.69 3.85-2 1.9-5.09 1.7-6.86-.45l-.09-.1A5.57 5.57 0 0 1 23 34.62a5.55 5.55 0 0 1 1.58-3.65l6.27-6.64a4.46 4.46 0 0 0 0-6.05ZM19.67 19.96A8.32 8.32 0 0 0 13.03 28c0 3.92 2.84 7.2 6.64 8.04l-.23.96A9.32 9.32 0 0 1 12 28a9.32 9.32 0 0 1 7.44-9l.23.96Z" fill="#BBB"/><path d="M19.86 22.13a6.02 6.02 0 0 0 0 11.74l-.24.96A7.02 7.02 0 0 1 14.15 28a7.02 7.02 0 0 1 5.47-6.83l.24.96Z" fill="#BBB"/><path d="M20.27 24.33A3.8 3.8 0 0 0 17.23 28c0 1.8 1.3 3.3 3.04 3.67l-.24.97A4.8 4.8 0 0 1 16.2 28a4.8 4.8 0 0 1 3.83-4.64l.24.97ZM36.35 36.04A8.32 8.32 0 0 0 42.97 28c0-3.92-2.83-7.2-6.62-8.04l.23-.96A9.31 9.31 0 0 1 44 28a9.31 9.31 0 0 1-7.42 9l-.23-.96Z" fill="#BBB"/><path d="M36.17 33.87a6.02 6.02 0 0 0 0-11.74l.24-.96a7.01 7.01 0 0 1 0 13.66l-.24-.96Z" fill="#BBB"/><path d="M35.76 31.67A3.8 3.8 0 0 0 38.78 28c0-1.8-1.3-3.3-3.02-3.67l.23-.97A4.8 4.8 0 0 1 39.81 28 4.8 4.8 0 0 1 36 32.64l-.23-.97Z" fill="#BBB"/></svg>