<!-- by TradingView --><svg width="56" height="56" viewBox="0 0 56 56" xmlns="http://www.w3.org/2000/svg"><path fill="url(#a)" d="M0 0h56v56H0z"/><path fill-rule="evenodd" d="M30.89 41.52c.08-.07.11-.05.11.06v1.2c0 .1.06.22.16.22h5.76c.05 0 .08-.1.08-.16V22.11c0-.06-.03-.11-.08-.11h-7.14c-.67 0-1.13-.1-1.38-.2a2.06 2.06 0 0 1-1.27-1.4c-.2-.68-.12-1.32.26-1.92.4-.66 1.08-1 2.02-1l3.41.01c.07 0 .18-.03.18-.1v-5.24c0-.1-.12-.15-.22-.15-.85.02-1.97.02-3.37 0a7.72 7.72 0 0 0-7.42 10.75c.02.05 0 .08-.03.1a9.61 9.61 0 0 0-5.36 6 11.88 11.88 0 0 0-.4 5.92A9.93 9.93 0 0 0 18.74 40a9.15 9.15 0 0 0 8.7 2.82c1.44-.25 2.54-.82 3.45-1.3Zm.11-13.4a.1.1 0 0 0-.03-.06.09.09 0 0 0-.07-.03c-1.45 0-2.43 0-2.93-.02a9.39 9.39 0 0 0-2.91.23 4.5 4.5 0 0 0-2.92 5.4c.2.78.58 1.45 1.15 2.03a4.35 4.35 0 0 0 4.2 1.2 4.5 4.5 0 0 0 3.23-2.89c.2-.57.29-1.54.27-2.91-.01-.5 0-1.49.01-2.95Z" fill="#BFF009"/><defs><linearGradient id="a" x1="10.42" y1="9.71" x2="68.15" y2="76.02" gradientUnits="userSpaceOnUse"><stop stop-color="#1A1E21"/><stop offset="1" stop-color="#06060A"/></linearGradient></defs></svg>