<!-- by TradingView --><svg width="56" height="56" viewBox="0 0 56 56" xmlns="http://www.w3.org/2000/svg"><path fill="#F0F3FA" d="M0 0h56v56H0z"/><path d="M24.26 11.08a11.9 11.9 0 0 0-4.83 1.66c-1.45.9-6.04 5.37-6.98 6.8-1.25 1.9-1.36 2.4-1.44 6.2-.06 3.59.1 5.72.58 7.4.55 1.92 1.12 2.72 4.2 5.92 3.15 3.27 4.16 4.12 5.6 4.7a15.36 15.36 0 0 0 9.85.75c5.27-1.37 9.27-4.55 11.6-9.2a42.88 42.88 0 0 0 1.97-5.16c.29-1.02.24-4.02-.08-5.23-1.02-3.84-2.37-6.39-4.67-8.78a17.52 17.52 0 0 0-8.8-4.84 35.5 35.5 0 0 0-7-.22Zm8.24 7.24L34 28c-.45 3.02-1.16 6.49-1.58 9.5l-3.56-.83c.52-3.29 1-6.44.94-6.5-.03-.03-.15 0-.26.1-1.5 1.17-7.17 5.42-7.17 5.42l-2.17-2.75c1.04-.86 6.45-5.1 6.45-5.1l-6.45-5.16 2.01-2.73 7.6 5.55s-.77-5.87-.92-6.52l3.6-.66Z" fill="#71C9BB"/></svg>