<!-- by TradingView --><svg width="56" height="56" viewBox="0 0 56 56" xmlns="http://www.w3.org/2000/svg"><path fill="#EDBDC7" d="M0 0h56v56H0z"/><path d="M26.52 12.34h1.86l2.14.44c.13.03.24 0 .33-.11a5 5 0 0 1 2.42-1.64c.56-.1 1.04.15 1.43.76.66 1 1 2.18 1.02 3.5v.57c-.08 1.83-.15 2.83.54 4.33.13.28.17.54.13.77-.03.19-.12.45-.27.8a.15.15 0 0 0 .05.18l.44.31c.01.01.02.02.01.04a.13.13 0 0 1-.06.05.08.08 0 0 1-.08 0l-.27-.2a.19.19 0 0 0-.23 0 .88.88 0 0 0-.34.45.26.26 0 0 0 .03.23c.13.18.27.3.44.35a.2.2 0 0 0 .2-.04c.66-.54 1.4-.95 2.24-1.23a5.92 5.92 0 0 0 1.32-.56c.8-.57 1.21-1.39 1.74-2.2.32-.48.62-.81.88-.98.59-.38 1.2-.38 1.84-.01.44.43.66.97.67 1.61a3.57 3.57 0 0 1-.93 2.47c-1.33 1.44-3.07 1.87-5 2.44-1.43.43-2.14 1.57-2.31 3.01-.06.42-.14.89-.25 1.4a.43.43 0 0 0 0 .23l.38 1.16.07 1.08-.07.74c0 .09.03.14.11.17.3.1.52.3.64.6a.2.2 0 0 0 .17.13c.96.04 1.07.99.86 1.72-.06.21-.14.4-.25.56-.05.07-.04.12.04.15l.34.16c.3.3.42.66.35 1.09-.02.08.02.12.1.12.4.03.71.2.95.55a.14.14 0 0 0 .17.05l1.14-.53.3-.05c1.06-.2 1.84.08 2.35.85.14.43.15.83.04 1.22l-.42.72a.34.34 0 0 0-.05.22 1.7 1.7 0 0 1-.6 1.49c-.9.73-1.92.9-3.05.5a.23.23 0 0 0-.22.02c-.77.48-1.51.5-2.23.03a.23.23 0 0 0-.23-.02c-.53.22-1.05.24-1.56.06a.36.36 0 0 0-.23 0c-.62.22-1.19.16-1.7-.18a.19.19 0 0 0-.21 0c-.83.47-1.59.4-2.27-.2a.17.17 0 0 0-.2-.01c-1.11.69-2.18.69-3.2 0-.06-.04-.1-.03-.15.01l-.08.07-.36-.45.38-.88c.03-.08.06-.08.08 0 .19.65.57 1.03 1.15 1.15.93.2 1.7-.08 2.3-.83.08-.09.15-.13.19-.12.24.94.8 1.23 1.68.85.11-.05.23-.13.36-.24l.34-.28c.09-.06.14-.04.15.07.05.49.46.68 1.24.58.22-.03.3-.15.24-.37-.06-.16-.03-.4.08-.73l.74-1.96a.88.88 0 0 0 0-.62.3.3 0 0 0-.14-.17 1.98 1.98 0 0 0-.88-.24c-.08 0-.13.04-.15.11l-.04.14c-.02.1-.07.11-.15.05-.94-.7-2.16-.07-2.8.73-.07.09-.1.07-.11-.04-.05-.69-.61-1-1.27-.98-.93.03-1.68.4-2.25 1.12-.17.21-.22.19-.15-.07.1-.4.01-.65-.28-.76a2.7 2.7 0 0 0-.76-.16c-.08 0-.13.04-.14.12a3.6 3.6 0 0 1-1.42 2.58l-.25.02c-.07 0-.1-.06-.07-.16l.11-.37a3.4 3.4 0 0 0 .59-1.47c0-.64-.3-.9-.91-.78-.66.13-1.03.18-1.1.17-.1 0-.14-.05-.13-.13l.07-.6c.02-.24-.07-.38-.3-.44l-.68-.18c-.13-.03-.21.02-.25.15l-.25 1c-.02.07-.06.11-.14.12-.37.03-.59.24-.66.61a.17.17 0 0 0 .13.2h.1c.05-.02.1-.02.14-.02.09.02.11.07.07.16l-.47 1.02-.06.1c-.15-.1-.32-.2-.5-.25l.13-.34c.04-.1.01-.14-.1-.13l-.15.01-.18-.52c.34-.09.5-.31.46-.67 0-.1-.06-.15-.15-.14l-.27.03c-.1 0-.15-.04-.12-.14l.12-.48c.06-.22-.02-.38-.23-.46l-.72-.27c-.15-.06-.24-.01-.27.14l-.28 1.07a.13.13 0 0 1-.13.1.89.89 0 0 0-.61.17.15.15 0 0 1-.2-.01c-.2-.2-.52-.32-.94-.35-.06-.01-.1.02-.13.08l-1.2 3.17a.1.1 0 0 1-.1.07.1.1 0 0 1-.05-.02c-.35-.23-.6-.56-.76-.99-.03-.08-.01-.13.07-.17.7-.3 1.59-.66 1.25-1.46a1.15 1.15 0 0 0-.5-.6c-.08-.04-.15-.03-.2.04-.33.47-.68.86-1.05 1.15-.25.2-.3.15-.18-.14.31-.68.5-1.37.58-2.07.03-.25-.07-.4-.3-.46l-.63-.16c-.22-.06-.34.03-.36.25-.15 1.36-.78 2.62-1.42 4.12-.4.96.13 1.44 1.13 1.26a.28.28 0 0 0 .23-.29c-.01-.35.04-.68.15-1 .02-.05.05-.06.1-.04.03.01.04.04.05.07.03.43.13.76.29 1 .36.56.8.68 1.29.34l1.93-.15c.1-.03.23.1.39.4a2.3 2.3 0 0 1-1.4.25 1.2 1.2 0 0 0-.48.02c-.68.19-1.25.34-1.85-.13a.23.23 0 0 0-.2-.04c-.9.28-1.82.34-2.27-.66-.05-.63.08-1.28.38-1.94a13.2 13.2 0 0 0 1.16-3.58c.03-.32.27-.49.74-.5l.62.13c.8.18 1.13.63 1.02 1.36-.01.03 0 .06.04.07l.97.38a.07.07 0 0 0 .1-.05c.12-.4.1-.7-.05-.92l-.23-.35a9.6 9.6 0 0 1-.29-.8c-.25-.7-.35-1.91.69-1.99.08 0 .14-.04.18-.1.15-.26.35-.47.58-.62l.15-.04c.1-.02.13-.08.13-.17a.7.7 0 0 0-.11-.32c-.09-.97.09-1.9.52-2.8a.38.38 0 0 0 .03-.23l-.15-.96-.03-1.28a10.39 10.39 0 0 1 .8-3.25c-.01-.07-.05-.09-.12-.08a.1.1 0 0 0-.05.03c-.12.1-.2.14-.24.15-.1.02-.11-.02-.04-.1.07-.1.2-.2.4-.3.2-.12.3-.23.34-.32.04-.15 0-.32-.13-.52a.32.32 0 0 0-.1-.1.3.3 0 0 0-.13-.05c-.04 0-.09 0-.13.02a.25.25 0 0 0-.1.09c-.05.06-.14.08-.27.06-.1-.02-.1-.05-.02-.1l.4-.22c.07-.05.09-.11.05-.2-.2-.4-.3-.82-.31-1.26l.4-.93c.24-.66.35-1.18.34-1.58-.08-2.16-.2-4.02.65-5.7.34-.67.94-1.53 1.77-1.27.98.3 1.8.87 2.5 1.7.05.07.11.08.18.05.6-.26 1.23-.41 1.87-.46Z" fill="#601A0B"/><path d="M23.07 12c-.24.27-.33.5-.28.7a1.67 1.67 0 0 0-.71-.24.3.3 0 0 0-.22.07c-.54.43-.73 1.88-.78 2.54-.02.31.03.53.15.66.19.22.48.2.86-.07a9.8 9.8 0 0 1-.18 3.77l-2.01.47c-.07.02-.09 0-.07-.07.32-.91.46-1.84.43-2.8l-.05-1.67c.03-1.14.3-3.03 1.29-3.77a.3.3 0 0 1 .22-.05c.45.06.9.22 1.35.46Z" fill="#F9DEAE"/><path d="M33.33 19.43a9.17 9.17 0 0 1-.16-3.82l.43.22a.46.46 0 0 0 .62-.19.47.47 0 0 0 .06-.23c0-.75-.19-2.22-.73-2.85a.27.27 0 0 0-.22-.1c-.24 0-.47.07-.69.18l-.33-.73c.33-.16.66-.27 1-.35.43-.08.58.11.79.42.8 1.16.97 2.65.92 4.04a18.53 18.53 0 0 0 0 2.25c.04.38.16.9.38 1.57.03.08 0 .1-.07.07a5.97 5.97 0 0 0-2-.48Z" fill="#EDAB3C"/><path d="m32.31 11.91.33.73c-.56.33-1.42 1.18-1.47 1.86a.48.48 0 0 0 .31.48l1.69.63a9.17 9.17 0 0 0 .16 3.82c-.1 0-.2 0-.31.02a.35.35 0 0 0-.26.15c-.09.13-.05.25.12.36.69.45 1.3.95 1.84 1.51.04.05.03.08-.05.08l-3.9-.13c-.07 0-.12-.02-.13-.06v-.1c.02-.17-.01-.2-.11-.05a.95.95 0 0 0-.09.17.2.2 0 0 1-.17.12l-1.1.08a.1.1 0 0 0-.08.04c-.01.04-.02.07 0 .1a.3.3 0 0 0 .04.05.1.1 0 0 0 .03.02l.7.3c.1.05.1.1 0 .15-.79.4-1.44.29-1.95-.36a.16.16 0 0 1 .07-.25c.38-.15.6-.4.67-.76a.47.47 0 0 0-.26-.5.45.45 0 0 0-.2-.05h-1.23a.34.34 0 0 0-.33.25.35.35 0 0 0 0 .15c.06.45.26.74.6.88a.24.24 0 0 1 .14.18.25.25 0 0 1-.07.22c-.58.54-1.2.63-1.86.25a.09.09 0 0 1-.04-.09.1.1 0 0 1 .05-.08l.68-.27c.06-.02.09-.07.09-.13 0-.04-.03-.08-.08-.12a.21.21 0 0 0-.11-.03h-1.05a.16.16 0 0 1-.16-.16v-.12c0-.2-.04-.2-.12-.02l-.06.13c-.03.08-.1.11-.2.1a20.22 20.22 0 0 0-3.88.17c-.14.02-.16-.02-.06-.13a9.56 9.56 0 0 1 1.89-1.55c.18-.11.2-.25.08-.4a.27.27 0 0 0-.18-.1l-.38-.02a9.8 9.8 0 0 0 .18-3.77l1.74-.66a.53.53 0 0 0 .35-.5.55.55 0 0 0-.04-.21 3.26 3.26 0 0 0-1.35-1.6c-.05-.2.04-.42.28-.69a6.48 6.48 0 0 1 2.13 1.94c.01.02.03.03.05.01v-.04l-.23-.37a.16.16 0 0 1 .06-.23l.3-.17a.16.16 0 0 1 .22.03l.03.07.38 1.57c.02.08.08.14.16.16.1.04.19.02.27-.03.05-.03.1-.11.11-.24l.28-1.69c.02-.07.06-.1.13-.09.03 0 .05.02.07.04l.03.06c.1.6.21 1.16.34 1.72.04.13.09.21.16.25.08.05.16.05.25 0 .07-.03.12-.08.13-.16l.33-1.8c.02-.07.06-.1.14-.08.02 0 .04.02.05.03.02.02.02.04.03.08.13 1 .23 1.58.3 1.74.06.16.17.2.35.13a.13.13 0 0 0 .07-.1l.4-1.58c.02-.08.07-.1.14-.07l.42.16c.08.03.1.09.05.16l-.2.35c-.02.02-.02.04 0 .05.02.02.03.01.05 0a6.24 6.24 0 0 1 2.24-1.99Z" fill="#F3C258"/><path d="M22.1 13.22a.12.12 0 0 1 .06-.08.12.12 0 0 1 .1 0c.53.24.92.63 1.2 1.16.03.08 0 .13-.07.16l-1.62.58c-.1.04-.13 0-.1-.1l.43-1.72ZM33.27 13.48l-.48 1.24-.83-.27c-.08-.03-.1-.08-.06-.16.25-.49.62-.86 1.1-1.12.08-.04.14-.02.2.04.07.06.09.15.07.27Z" fill="#F59079"/><path d="M33.27 13.48c.23.49.34 1 .34 1.5 0 .08-.04.1-.12.07l-.7-.33.48-1.24Z" fill="#E28131"/><path d="M24.64 20.28c-.36 0-.7-.18-.96-.5-.26-.34-.4-.78-.4-1.24 0-.47.14-.91.4-1.24.25-.33.6-.51.96-.51s.71.18.97.51c.25.33.4.77.4 1.24 0 .46-.15.9-.4 1.23-.26.33-.6.51-.97.51ZM30.65 20.28a1.1 1.1 0 0 1-.52-.13 1.4 1.4 0 0 1-.44-.38 1.84 1.84 0 0 1-.3-.56 2.18 2.18 0 0 1 .29-1.9c.13-.17.28-.3.44-.39a1.11 1.11 0 0 1 1.04 0c.17.09.32.21.45.38.13.16.23.35.3.56a2.18 2.18 0 0 1-.3 1.9c-.12.17-.27.3-.43.39a1.1 1.1 0 0 1-.53.13Z" fill="#601A0B"/><path d="M43.99 18.96a4.96 4.96 0 0 0-1.36 1.69h-.05l-.8-.22c.38-.73.7-1.2.96-1.44.45-.4.87-.4 1.25-.03Z" fill="#E4CCE1"/><path d="M24.61 19.72c.26 0 .48-.22.48-.48a.48.48 0 0 0-.48-.48.48.48 0 0 0-.47.48c0 .26.21.48.47.48ZM30.62 19.72c.26 0 .47-.22.47-.48a.48.48 0 0 0-.47-.48.48.48 0 0 0-.47.48c0 .26.21.48.47.48ZM44 18.96c.32.78.23 1.57-.27 2.37l-1.1-.68c.34-.67.79-1.23 1.36-1.69Z" fill="#fff"/><path d="m41.78 20.43.8.23a5.25 5.25 0 0 1-2.07 2.02c-.29.14-.9.33-1.82.58-.58.16-1.36.63-2.32 1.43.27-.98.97-1.61 2.09-1.9a5.3 5.3 0 0 0 3.32-2.36Z" fill="#EDAB3C"/><path d="M28.23 20.95a.19.19 0 0 0-.07-.26.18.18 0 0 0-.1-.02c-.2.01-.39-.02-.55-.1-.14-.08-.13-.12.03-.12h.65a.2.2 0 0 1 .11.04c.03.02.06.05.08.09.1.24.09.45-.05.62-.07.1-.11.09-.13-.03a.3.3 0 0 1 .03-.22Z" fill="#F59079"/><path d="m42.63 20.65 1.1.68c-1.05 1.43-2.82 2.02-4.5 2.43a4.42 4.42 0 0 0-2.51 1.61c-.05.07-.09.06-.12-.01l-.23-.67a7.04 7.04 0 0 1 2.32-1.43c.93-.25 1.53-.44 1.82-.58a5.25 5.25 0 0 0 2.07-2.02l.05-.01Z" fill="#F3C258"/><path d="M24.18 22.04a4.77 4.77 0 0 0-2.12.07c-.7.17-1.26.32-1.65.46-.18.06-.3-.01-.4-.22a.21.21 0 0 1 0-.11c.03-.2.1-.32.22-.34a10.22 10.22 0 0 1 4.05-.03v.04l-.06.12c-.01.01-.02.02-.04.01Z" fill="#F9DEAE"/><path d="m31.08 22.04-.03-.01-.07-.12a.05.05 0 0 1 .01-.06l.02-.01c1.35-.25 2.68-.23 4 .05.11.02.18.14.22.34a.2.2 0 0 1 0 .1c-.1.21-.22.28-.4.23-.39-.14-.94-.29-1.64-.46a4.74 4.74 0 0 0-2.1-.06Z" fill="#EDAB3C"/><path d="M27.63 22.1h.03a1.9 1.9 0 0 0 .7.7.09.09 0 0 1 .02.07.1.1 0 0 1-.01.03c-.2.35-.45.53-.74.53-.28 0-.53-.18-.73-.53a.1.1 0 0 1-.01-.07.1.1 0 0 1 .04-.05c.28-.17.5-.4.67-.68h.03Z" fill="#F59079"/><path d="M20.48 22.87c-.1-.1-.09-.18.07-.21l2.9-.57a.07.07 0 0 1 .06.03l.07.1-2.49 1a.28.28 0 0 1-.32-.07l-.29-.28ZM21.27 23.3l3.3-1.18a.08.08 0 0 1 .07.01l.1.1v.02L22 23.85a.33.33 0 0 1-.38-.02l-.39-.28c-.15-.1-.14-.2.04-.26Z" fill="#F9DEAE"/><path d="m34.03 23.54-.38.27a.32.32 0 0 1-.38.02l-2.7-1.58v-.02l.1-.1.04-.02h.04L34 23.29c.17.06.18.15.03.26ZM34.6 23.16a.05.05 0 0 1-.04.04h-.02l-.03-.01c-.76-.22-1.48-.45-2-.65-.53-.2-.81-.35-.8-.41 0-.04.1-.05.24-.04a20.19 20.19 0 0 1 2.7.6l.02.02a.05.05 0 0 1 .04.06l-.1.39Z" fill="#EDAB3C"/><path d="M32.28 23.45c-.7.43-1.42.81-2.14 1.16-.04.01-.1 0-.19-.02.13-.35.09-.65-.13-.89a.3.3 0 0 0-.2-.1 1.73 1.73 0 0 0-1.57.75c-.05.06-.11.1-.19.1-.88.05-1.28.51-1.2 1.39 0 .07-.03.11-.1.12-1.23.02-2.1.02-2.64 0a3.22 3.22 0 0 0-1.56.34h-.01v-.02l-.03-.27c-.02-.3-.08-.31-.18-.02a3.97 3.97 0 0 0 .59 3.83c-.84.44-1.49.7-1.88 1.65-.29-.24-.45-.47-.5-.68-.73-2-.8-3.95-.2-5.85a.18.18 0 0 1 .16-.13c.13-.02.27.02.43.1l-.33.4c-.03.03-.03.07 0 .1.01.03.03.04.05.05.03 0 .04 0 .06-.02l.5-.46a4.53 4.53 0 0 0 4.45-.12.08.08 0 0 0-.04-.11 8.75 8.75 0 0 1-2.34-1.34l1.74-.99c.07-.04.14-.03.2.03.32.34.7.5 1.17.5.08 0 .14.03.18.1.2.42.4.67.6.75.78.35 1.36.17 1.75-.54l.17-.22a.25.25 0 0 1 .2-.1 1.59 1.59 0 0 0 1.18-.49c.17-.11.27-.12.3-.04 0 .05.04.1.09.12l1.6.92Z" fill="#F3C258"/><path d="M20.03 23.73c-.1.04-.12.02-.08-.09l.14-.37a.1.1 0 0 1 .06-.06.1.1 0 0 1 .08.01l.19.14c.04.03.05.07.01.11a1.4 1.4 0 0 1-.4.26Z" fill="#F9DEAE"/><path d="M34.89 23.54a.11.11 0 0 1-.07-.09.12.12 0 0 1 .03-.11.48.48 0 0 1 .13-.09.16.16 0 0 1 .18.05l.03.06.06.22c.01.07-.01.1-.08.07l-.28-.11Z" fill="#EDAB3C"/><path d="M23.09 23.4a8.75 8.75 0 0 0 2.37 1.38.08.08 0 0 1-.02.11c-1.47.8-2.94.83-4.42.1.3-.37.6-.62.9-.73a.22.22 0 0 1 .2.01c.22.14.43.21.63.22.09 0 .1-.01.02-.04l-.48-.22a.17.17 0 0 1-.1-.13l.01-.08a.14.14 0 0 1 .05-.06l.84-.55Z" fill="#F9DEAE"/><path d="M34.24 24.9a4.13 4.13 0 0 1-4.42-.06c.07-.1.12-.2.13-.25.1.03.15.03.19.02.72-.35 1.43-.73 2.14-1.16l.79.5a.1.1 0 0 1 0 .17c-.13.11-.3.2-.49.28-.04.01-.05.04 0 .07l.04-.01.66-.23c.08-.03.16-.01.23.05l.73.62Z" fill="#EDAB3C"/><path d="M20.74 24.92a.68.68 0 0 0-.43-.11.18.18 0 0 0-.16.13 8.9 8.9 0 0 0 .2 5.85 6.68 6.68 0 0 1-.58-6.57.35.35 0 0 1 .15-.17l.72-.42c.09-.05.18-.05.27.01l.58.42c.06.04.06.1 0 .15l-.75.7Z" fill="#F9DEAE"/><path d="M34.98 30.63c.55-1.84.61-3.6.2-5.27-.02-.1-.07-.1-.14-.05-.04.03-.06.08-.07.15a4.35 4.35 0 0 0-1.34-1.34.04.04 0 0 1 .02-.04l.85-.49a.1.1 0 0 1 .12 0c.2.13.38.24.54.32.13.07.24.22.34.47.86 2.2.69 4.29-.52 6.25Z" fill="#EDAB3C"/><path d="M28.79 24.56c-.13.06-.23.1-.29.1-.18.04-.2-.02-.1-.15.22-.26.54-.42.96-.5.14-.03.23.03.27.18l.02.08a.18.18 0 0 1-.1.2.18.18 0 0 1-.07.02c-.37.01-.6.03-.69.07Z" fill="#7BBB41"/><path d="M29.82 24.84c1.5.88 2.97.9 4.42.06.17.24.41.42.73.56 0-.07.03-.12.07-.15.07-.06.12-.04.14.05a9.88 9.88 0 0 1-.2 5.27c-.12.27-.32.54-.62.8a2.83 2.83 0 0 0-1.93-1.55 4.46 4.46 0 0 0 .68-3.97.15.15 0 0 0-.12-.11c-.03 0-.05 0-.05.04l-.02.35c0 .1-.05.12-.15.07a2.8 2.8 0 0 0-.78-.3h-3.15c-.05 0-.08-.02-.07-.08a2.17 2.17 0 0 0-.07-.9.08.08 0 0 1 .07-.07l1.05-.07Z" fill="#F3C258"/><path d="M27.72 26.2c.36 0 .64-.3.64-.65a.64.64 0 0 0-.64-.65.64.64 0 0 0-.64.65c0 .36.3.65.64.65Z" fill="#EE1B24"/><path d="M32.64 27.14c-3.64-.06-6.57-.06-8.78-.02-.66.01-1.02.32-1.07.93-.01.05.01.22.07.53.02.14.03.32.02.54-.24-.5-.37-.92-.4-1.25-.07-1.03.6-1.21 1.48-1.21h7.9c.33 0 .6.16.78.48Z" fill="#FFACD0"/><path d="M32.64 27.14c.15.24.17.52.08.82a.27.27 0 0 1-.15.17c-.39.19-.74.41-1.07.67-.47.36-.83.55-1.08.57-.5.04-.95-.1-1.35-.43-.34-.28-.7-.79-1.16-1.04-1.21-.64-2.3-.51-3.26.4a13 13 0 0 1-.73.67c-.46.32-.8.37-1.04.14 0-.2 0-.39-.02-.53a3.7 3.7 0 0 1-.07-.53c.05-.6.4-.92 1.07-.93 2.21-.04 5.14-.04 8.78.02Z" fill="#FE6DCB"/><path d="M31.14 30.47a9.94 9.94 0 0 0-1.28-.08c-.33 0-.58-.03-.78-.1-.28-.1-.5-.25-.68-.43-.7-.75-1.42-1.48-2.39-1.15-.14.05-.44.28-.88.7-.36.34-.77.64-1.22.88l-.25-.26c-.06-.07-.05-.12.03-.15.41-.2.79-.46 1.12-.78.45-.44.8-.7 1.06-.8.98-.38 1.8.15 2.47.86.87.93 2.19 1.23 3.25.4.19-.14.36-.27.52-.37.26-.16.29-.12.1.11-.34.4-.7.8-1.07 1.17Z" fill="#E28131"/><path d="M31.14 30.47c-.11.2-.23.3-.33.3-2.12.03-4.24.04-6.36.04a.24.24 0 0 1-.2-.1l-.34-.42a5.9 5.9 0 0 0 1.22-.88c.44-.42.74-.65.89-.7.97-.33 1.68.4 2.38 1.15.17.18.4.32.69.43.19.07.45.1.77.1.43 0 .86.03 1.28.08Z" fill="#EBA04A"/><path d="M22.73 29.82c.38.51.7.9.93 1.14.14.16.2.33.18.52 0 .09-.05.1-.12.06l-.66-.37c-.13-.07-.16-.05-.07.06l.54.67c.09.1.07.17-.06.22l-.14.05a.32.32 0 0 1-.3-.04l-.6-.43c-.08-.05-.1-.04-.07.06l.12.35a.09.09 0 0 1-.01.08.08.08 0 0 1-.08.03c-.6-.09-1.12-.34-1.54-.75.4-.96 1.04-1.2 1.88-1.65ZM34.37 31.44c-.42.44-.93.7-1.55.76-.09.01-.11-.02-.08-.1l.14-.39c.04-.1.02-.1-.06-.05l-.6.46a.35.35 0 0 1-.37.05l-.06-.03c-.18-.07-.2-.17-.07-.3.21-.22.36-.4.45-.58.06-.1.03-.12-.07-.06l-.61.35c-.08.05-.13.03-.15-.06-.03-.13 0-.25.1-.38l1-1.23c.9.23 1.54.75 1.93 1.56Z" fill="#fff"/><path d="M19.1 32.4a.2.2 0 0 1-.12-.04.2.2 0 0 1-.07-.1 3.6 3.6 0 0 1 .03-1.98c.04-.17.1-.17.19-.03l.78 1.37a.3.3 0 0 1 .04.18c-.03.41-.31.61-.86.6ZM35.92 32.47c-.51-.02-.77-.22-.78-.61a.3.3 0 0 1 .05-.17l.8-1.24c.09-.14.15-.13.18.03.15.7.13 1.32-.07 1.86a.19.19 0 0 1-.18.13Z" fill="#EDAB3C"/><path d="M32.5 33.46c-.9-.14-1.55-.46-1.93-.97a20.5 20.5 0 0 0-.44-.52.2.2 0 0 0-.1-.03h-4.86a.32.32 0 0 0-.29.19 2.08 2.08 0 0 1-1.78 1.25 4 4 0 0 1-2.73-.74c-.03-.09 0-.2.08-.35.04-.07.09-.09.15-.04.75.53 1.58.75 2.5.66.81-.09 1.28-.52 1.41-1.3.01-.08.06-.12.13-.12h5.91c.08 0 .13.04.14.12.15.72.53 1.14 1.16 1.25.93.18 1.79.01 2.57-.49a.12.12 0 0 1 .13 0c.02 0 .03.02.04.04.02.02.02.04.02.06.02.33-.06.66-.22.97a.14.14 0 0 1-.17.07 2.79 2.79 0 0 0-1.71-.05Z" fill="#D152A4"/><path d="M32.5 33.46c-.29.2-.48.35-.58.45l-.62.6c-.9.87-1.81.72-2.66-.12-.33-.33-.56-.6-.9-.77-1.13-.6-2.15-.52-3.06.27l-.98.84c-.94.53-1.87.4-2.77-.38a.38.38 0 0 1-.12-.19l-.44-1.52a4 4 0 0 0 2.73.74c.84-.09 1.44-.5 1.79-1.25a.32.32 0 0 1 .28-.19h4.87a.2.2 0 0 1 .16.08l.37.47c.38.5 1.02.83 1.94.97Z" fill="#FE6DCB"/><path d="m20.4 35.81-.07.1-.39-.06a.3.3 0 0 1-.18-.1c-.68-.75-1.4-.8-2.2-.12a.72.72 0 0 0-.28.42.05.05 0 0 1-.05.03l-.03-.01-.02-.03c0-.05.03-.14.06-.28a.34.34 0 0 0-.02-.22 3.5 3.5 0 0 1-.33-1.42.34.34 0 0 1 .27-.34h.15l.23.06a.21.21 0 0 0 .25-.15c.1-.34.19-.55.28-.6.13-.1.26-.11.4-.04.14.08.25.18.33.3a.14.14 0 0 0 .13.07.14.14 0 0 0 .12-.07c.11-.23.27-.36.45-.4.08-.01.16 0 .22.05.58.45.55 1.97.52 2.63 0 .07.03.12.1.15l.06.03ZM36.87 35.51c-.12-.3-.34-.44-.65-.42a.73.73 0 0 0-.48 1.27c.22.22.52.22.9.01l-.13.67c-.02.08-.07.11-.15.08-.47-.17-.9-.2-1.3-.08v-.16c-.2-.58-.3-1.2-.26-1.84.05-.77.05-1.3.34-1.86a.4.4 0 0 1 .56-.17c.11.06.21.18.3.35.05.09.11.1.19.02l.25-.23c.06-.05.12-.1.2-.13.25-.1.48.13.67.71.05.14.14.18.27.1.27-.15.48-.04.62.33a.43.43 0 0 1-.02.36c-.22.41-.2.73.03.94.08.08.07.1-.03.05-.42-.19-.9-.2-1.31 0Z" fill="#fff"/><path d="M34.24 34.89c-.62-.4-1.12-.4-1.5-.04-.48.44-.99 1.06-1.53 1.3-.73.32-1.5.34-2.3.04-.52-.2-.97-.8-1.36-1.13-.77-.63-1.53-.62-2.28.04-.33.28-.64.57-.94.85-.27.04-.53-.07-.76-.34.47-.28.92-.61 1.34-1 .42-.38.77-.6 1.04-.66.67-.14 1.26.03 1.77.52l.68.64c1.22 1.04 2.58.84 3.61-.37.2-.23.42-.4.68-.52 1.02-.47 1.53-.24 1.55.67Z" fill="#E28131"/><path d="M18.17 34.45c.06.23.25.38.43.33.18-.05.27-.27.22-.5-.06-.22-.25-.37-.43-.32-.18.04-.27.27-.22.5ZM19.05 34.45c.01.24.17.43.35.42.19 0 .33-.2.33-.44s-.17-.43-.35-.42c-.19 0-.33.2-.33.44ZM35.34 34.43c0 .24.14.44.32.44.19 0 .34-.18.35-.42 0-.24-.14-.44-.32-.44-.19-.01-.34.18-.35.42ZM36.24 34.34c-.03.23.1.44.27.46.18.02.35-.15.38-.39.03-.23-.1-.44-.28-.46-.18-.02-.34.15-.37.39ZM17.43 34.88c.06.22.25.35.42.3.18-.04.27-.26.21-.47-.05-.22-.24-.36-.42-.31-.17.05-.27.26-.21.48ZM37 34.68c-.09.21-.02.44.15.5.16.08.37-.04.46-.25.08-.22.02-.45-.15-.52-.17-.06-.37.05-.46.27Z" fill="#FFACD0"/><path d="M34.24 34.89c-.07.53-.05 1.05.05 1.57.04.21.12.35.23.41.14.09.32.1.54.01v.16c-.97-.17-1.83 0-2.57.49-.07.04-.13.04-.19-.01a2.27 2.27 0 0 0-1.97-.5c-.24-.17-.46-.19-.68-.06l-.69.34a.25.25 0 0 1-.2 0l-.98-.37c-.4-.13-.77-.07-1.1.2-.06.06-.12.06-.2.02-.3-.2-.51-.23-.64-.1l-.72.01-.79-1.11c.3-.28.61-.57.94-.85.75-.66 1.51-.67 2.28-.04.39.33.84.94 1.36 1.13.8.3 1.57.28 2.3-.04.54-.24 1.05-.86 1.52-1.3.4-.37.9-.35 1.51.04Z" fill="#EBA04A"/><path d="m36.87 35.51-.23.86c-.38.21-.68.2-.9-.01a.73.73 0 0 1 .48-1.27c.31-.02.53.12.65.42Z" fill="#FFACD0"/><path d="M22.43 35.77c-.25.35-.4.7-.46 1.08 0 .01 0 .02-.02.02h-.07c-.05 0-.08-.03-.08-.07-.1-.51-.43-.8-.97-.89l.06-.56c0-.07.05-.1.12-.07l1.42.5Z" fill="#E28131"/><path d="M23.57 35.61c.23.27.49.38.77.34l.78 1.11c-.1.05-.2.06-.3.03-.08-.02-.12-.08-.12-.16-.01-.87-1.3-1.12-1.9-1.04a.57.57 0 0 0-.35.18c-.1.1-.15.23-.16.37l-.06.6a.2.2 0 0 1-.1.16.64.64 0 0 1-.32.12.17.17 0 0 1-.17-.14 7.1 7.1 0 0 0-.12-.52c-.12-.42-.8-.66-1.19-.75l.07-.1.43.1c.54.08.86.38.97.89 0 .04.03.06.08.07h.07c.01 0 .02 0 .02-.02.05-.37.2-.73.46-1.08l1.14-.16Z" fill="#F2B5B8"/><path d="M18.87 37.11c.4-.25.54-.73.33-1.05-.2-.33-.7-.4-1.08-.14-.4.26-.54.73-.33 1.06.2.32.7.38 1.08.13Z" fill="#fff"/><path d="m20.97 38.56-.19.01a.2.2 0 0 0-.19.12c-.3.58-.53 1.2-.68 1.85a.38.38 0 0 0 0 .17 1 1 0 0 0 .06.17c-.01.03-.04.04-.09.04a.15.15 0 0 1-.08-.03.16.16 0 0 1-.05-.08c-.09-.25-.05-.53.1-.82.03-.07.02-.12-.06-.16-.28-.13-.67-.13-1.16 0l.53-1.14a.12.12 0 0 0-.01-.1.11.11 0 0 0-.1-.05h-.24c-.13-.01-.21.05-.25.17-.13.36-.34.92-.65 1.68-.13.3-.15.7-.09 1.16l-1.93.15c-.02-.23.03-.35.16-.34.38.03.41-.06.08-.26a2.8 2.8 0 0 1-.98-1.27.15.15 0 0 0-.14-.09h-1.75a.27.27 0 0 0-.26.2l-.27.97c-.08.27.06.45.4.53h.31c.29 0 .42-.14.39-.43-.04-.3.04-.63.23-.96a.21.21 0 0 1 .19-.1.2.2 0 0 1 .18.12c.08.17.04.27-.12.29 0-.03-.02-.06-.04-.07-.06-.02-.1 0-.11.04-.12.32-.16.65-.15 1 0 .07-.02.14-.06.19a.28.28 0 0 1-.17.1c-1 .18-1.53-.3-1.13-1.26.64-1.5 1.27-2.76 1.42-4.12.02-.22.14-.31.36-.25l.62.16c.24.06.34.21.31.46-.08.7-.27 1.39-.58 2.07-.13.3-.07.34.18.14.37-.3.72-.68 1.05-1.15.05-.07.12-.08.2-.04.21.12.38.31.5.6.34.8-.56 1.16-1.25 1.46-.08.04-.1.1-.07.17a1.96 1.96 0 0 0 .8 1 .1.1 0 0 0 .08-.02.1.1 0 0 0 .03-.04l1.2-3.17c.02-.06.07-.1.13-.08.42.03.73.15.94.34a.15.15 0 0 0 .2.02.89.89 0 0 1 .61-.17l.09-.03a.13.13 0 0 0 .04-.07l.27-1.07c.04-.15.13-.2.28-.14l.72.27c.2.08.29.24.23.46l-.12.48c-.03.1.01.15.12.14l.27-.03c.1-.01.14.04.15.14.03.36-.12.58-.46.67ZM38.57 39.76c-.07.05-.15.05-.23 0l-2.24.01c.59-1.22 1-2.46 1.25-3.7.01-.08.06-.12.14-.11.33.03.64.13.94.3.08.04.11.1.12.18.05.8-.34 1.68-.6 2.37-.05.13-.02.16.1.08.47-.33.82-.7 1.08-1.08.16-.25.33-.26.52-.02.52.68.43 1.2-.29 1.56l-.8.41ZM25.62 39.88a1.8 1.8 0 0 0-.95-.14.28.28 0 0 0-.18.1l-.5.58c.25-.83.67-1.41.84-2.3 0-.02 0-.04-.03-.05-.03-.02-.05 0-.07.04-.12.38-.39.53-.8.46a.17.17 0 0 0-.2.1L23.19 40c-.35-.3-.74-.36-1.16-.17-.07.02-.13 0-.17-.05a.14.14 0 0 1-.02-.1l.47-1.01c.04-.09.02-.14-.07-.16-.04 0-.09 0-.15.02a.17.17 0 0 1-.17-.03.17.17 0 0 1-.05-.17c.07-.37.3-.58.66-.61.08 0 .12-.05.14-.12l.25-1c.04-.13.12-.18.25-.15l.68.18c.23.06.32.2.3.44l-.07.6c-.01.08.03.12.12.13.08.01.45-.04 1.1-.17.61-.12.92.14.92.78 0 .33-.2.82-.59 1.47Z" fill="#fff"/><path d="M30.33 37.02c-.48.08-.95.26-1.38.52a.18.18 0 0 1-.21 0c-.32-.21-.7-.36-1.14-.45-.44-.09-.74.04-.9.39-.03.07-.08.08-.14.02-.2-.22-.43-.37-.72-.46.13-.12.35-.08.65.1.07.05.13.05.2 0 .32-.28.69-.34 1.1-.2.04 0 .36.13.97.37.07.02.14.02.2 0l.7-.35c.2-.13.43-.1.67.06Z" fill="#F3C258"/><path d="M35.63 40.54c-.24-.05-.23-.24.05-.56a.11.11 0 0 0-.03-.16.11.11 0 0 0-.05-.02l-1.38-.06.54-.9a.3.3 0 0 0-.17-.44c-.78-.22-1.41.68-1.57 1.34l-1.09.03a.21.21 0 0 0-.17.08.22.22 0 0 0-.03.19.6.6 0 0 1-.2.62c-.03 0-.1.03-.18.12-.12-.12-.2-.25-.26-.38.36-.17.56-.47.6-.92 0-.09-.04-.11-.12-.07-.25.12-.5.17-.73.16-.1 0-.14-.06-.1-.15.1-.34.13-.62.11-.83a.3.3 0 0 0-.16-.23.28.28 0 0 0-.29.02c-.6.41-.92.95-.99 1.62-.23-.16-.4-.24-.49-.26-.21-.04-.5-.02-.86.05a.5.5 0 0 1-.22 0 2.2 2.2 0 0 0-1.08 0 .27.27 0 0 0-.17.14c-.23.38-.48.53-.76.46a3.6 3.6 0 0 0 1.42-2.58c.01-.08.06-.12.14-.12.25 0 .6.1.76.16.3.11.39.36.28.76-.07.26-.02.28.15.07a2.87 2.87 0 0 1 2.25-1.12c.66-.03 1.22.29 1.27.98 0 .11.04.13.11.04.64-.8 1.86-1.42 2.8-.73.08.06.13.04.15-.05l.04-.14c.02-.07.07-.11.15-.11.3.01.6.09.88.24.07.04.12.1.15.17.07.2.07.4-.01.62-.23.64-.48 1.3-.74 1.96ZM42.32 39.94a5.5 5.5 0 0 0-2.6-.13c-.02-.03-.07-.03-.15 0 .44-1.5 1.96-2.66 3.48-2.14.8.27.8 1.1.31 1.68-.28.33-.63.53-1.04.6Z" fill="#fff"/><path d="M23.99 40.42c-.04.08-.07.2-.09.39 0 .09-.05.13-.14.13h-.48a.17.17 0 0 1-.18-.14c-.04-.28-.02-.54.08-.8l.56-1.33a.17.17 0 0 1 .18-.1c.42.07.7-.08.82-.46 0-.04.03-.06.06-.04.03.01.04.03.03.05-.17.89-.6 1.47-.84 2.3Z" fill="#451807"/><path d="M31.1 40.4c-.32.18-.65.26-1 .23-.4-.04-.62-.25-.69-.63.07-.67.4-1.2 1-1.62a.29.29 0 0 1 .44.21c.02.21-.01.49-.12.83-.02.1.01.14.1.15.25.01.5-.04.74-.16.09-.04.12-.02.12.07-.04.45-.24.75-.6.92ZM34.22 39.74l-.64.68a.27.27 0 0 1-.43-.04.87.87 0 0 1-.13-.64c.16-.66.8-1.56 1.57-1.34a.3.3 0 0 1 .21.31.3.3 0 0 1-.04.13l-.54.9ZM42.43 38.5c.08.1.06.24-.05.4-.18.25-.43.42-.74.5-.28.07-.44.07-.48 0-.05-.07 0-.22.16-.45.18-.28.42-.46.72-.54.19-.06.32-.03.4.08Z" fill="#601A0B"/><path d="M18.63 39.83c-.24.4-.33.82-.27 1.22.18 1.08 1.75 1.02 2.28.25.25-.37.17-.48-.24-.32-.08.03-.22 0-.43-.1a1.01 1.01 0 0 1-.05-.17.38.38 0 0 1 0-.17c.14-.65.36-1.27.67-1.85a.2.2 0 0 1 .2-.12h.18l.18.51c-.26.33-.44.7-.55 1.13-.01.03 0 .05.03.06l.28.07h.06c.01-.01.03-.03.03-.05l.26-.74c.19.05.36.13.51.24-.25.5-.34.92-.28 1.26.11.59.53.86 1.25.81.4-.02.77-.23 1.1-.63.04-.06.1-.06.16 0 .55.61 1.2.62 1.93.02.1-.08.12-.06.08.06-.39 1.03-1.22 1.45-2.14.67a.18.18 0 0 0-.2-.02c-.14.06-.2.17-.16.35.1.62.48.99 1.14 1.09 1.54.23 2.23-.85 2.8-2.06l.35.45a3.47 3.47 0 0 1-2.17 2.17c-.64.1-1.23.02-1.78-.26-.3-.2-.54-.44-.75-.75l-.14-.45c-.03-.09-.08-.12-.16-.1-.67.08-1.19-.13-1.56-.64-.05-.07-.11-.08-.18-.03a7.3 7.3 0 0 0-.3.2c-.89.63-1.73.64-2.55.02-.16-.3-.3-.43-.39-.4-.06-.47-.03-.85.09-1.16l.65-1.68c.04-.12.12-.18.25-.18h.24a.11.11 0 0 1 .1.05.12.12 0 0 1 0 .11l-.52 1.14Z" fill="#451807"/><path d="M21.83 39.69c0 .03 0 .06.02.09.04.06.1.07.17.05.42-.19.81-.13 1.16.17-.1.26-.13.52-.08.8.01.04.03.07.06.1s.07.04.12.04h.48c.09 0 .13-.04.14-.13.02-.18.05-.31.09-.39l.5-.58c.04-.06.1-.1.18-.1.33-.04.65 0 .95.14l-.1.37c-.04.1-.01.15.06.16.06 0 .14 0 .25-.02.28.07.53-.08.75-.46.04-.07.1-.11.18-.14.35-.09.7-.1 1.08 0a.5.5 0 0 0 .22 0c.36-.07.65-.09.86-.05.1.02.26.1.49.26.06.38.3.6.69.63.35.03.68-.05 1-.23.05.13.13.26.25.38a2.17 2.17 0 0 1-2.3.83c-.58-.12-.96-.5-1.15-1.15-.02-.08-.05-.08-.08 0l-.38.88c-.56 1.2-1.25 2.3-2.79 2.06-.66-.1-1.05-.47-1.14-1.1-.03-.17.02-.28.16-.34a.18.18 0 0 1 .2.02c.92.78 1.75.36 2.14-.67.04-.12.01-.14-.08-.06-.73.6-1.38.6-1.93-.02-.06-.06-.12-.06-.17 0-.32.4-.68.6-1.09.63-.72.05-1.14-.22-1.25-.81-.06-.34.03-.76.28-1.26l.06-.1ZM33.02 39.74c-.04.23 0 .44.13.64a.27.27 0 0 0 .2.12.27.27 0 0 0 .23-.08l.64-.68 1.37.06a.11.11 0 0 1 .1.07.11.11 0 0 1-.02.11c-.27.32-.28.5-.04.56-.1.32-.14.57-.08.73.06.22-.02.34-.24.37-.78.1-1.2-.1-1.24-.58-.01-.1-.06-.13-.15-.07a8.1 8.1 0 0 0-.34.28c-.13.11-.25.2-.36.24-.88.38-1.43.1-1.68-.85a.6.6 0 0 0 .19-.62.22.22 0 0 1 .1-.25.21.21 0 0 1 .1-.02l1.09-.03ZM15.89 41.7c-.5.34-.93.22-1.3-.33a2.14 2.14 0 0 1-.28-1.01c.16-.02.2-.12.12-.29a.21.21 0 0 0-.18-.12.2.2 0 0 0-.2.1c-.18.34-.26.66-.22.96.03.3-.1.43-.39.43h-.3c-.35-.08-.49-.26-.4-.53l.26-.97a.27.27 0 0 1 .26-.2H15c.07 0 .12.03.14.1.3.63.62 1.05.98 1.26.33.2.3.29-.08.26-.13 0-.18.1-.16.34ZM16.53 40.98l.13-.69c.12-.63.6-.65 1.08-.5.16.06.2.16.11.3-.2.33-.28.63-.26.92.03.3-.1.44-.37.42l-.33-.02c-.3-.02-.41-.16-.36-.43ZM18.63 39.83c.5-.13.88-.13 1.16 0 .08.04.1.1.06.16-.15.3-.19.57-.1.82l.05.08.08.03c.05 0 .08-.01.1-.04.2.1.34.13.42.1.4-.16.49-.05.24.32-.53.77-2.1.83-2.28-.25-.07-.4.03-.81.27-1.22ZM36.1 39.77h2.24a3.18 3.18 0 0 0 1.07 1.44.12.12 0 0 1-.05.15c-.25.15-.34.28-.27.4-.96.43-1.5-.51-1.54-1.3-.01-.3-.07-.3-.17-.03-.1.28-.15.58-.14.9.01.14-.05.23-.2.27-.58.15-.99.06-1.2-.27-.11-.16-.11-.42 0-.79.07-.28.16-.54.26-.77ZM42.32 39.94c-.14.15-.28.21-.43.2-.17-.16-.46-.22-.86-.16a.23.23 0 0 0-.17.13.24.24 0 0 0 0 .22c.25.5.71.7 1.38.6.09-.01.1.01.05.08-.42.48-.86.35-1.41.42a.89.89 0 0 1-.74-.27c-.4-.36-.54-.81-.42-1.35.93-.16 1.8-.12 2.6.13Z" fill="#FFACD0"/><path d="M38.57 39.76c.18.53.47.91.85 1.14.23.14.28.09.17-.15a1.19 1.19 0 0 1-.01-.94c.07-.03.12-.03.14 0-.12.54.02.99.42 1.35.23.21.47.3.73.27.56-.07 1 .06 1.41-.42.06-.07.05-.1-.04-.08-.67.1-1.13-.1-1.38-.6a.24.24 0 0 1 .07-.3.23.23 0 0 1 .1-.05c.4-.06.69 0 .85.16-.23.07-.42.1-.58.09-.22-.02-.25.05-.08.2.48.45 1.16.13 1.67-.17.3-.17.4-.1.25.23-.18.43-.51.75-.98.96-.76.34-1.5.3-2.2-.13-.07-.04-.12-.03-.18.02-.19.22-.42.36-.68.43-.08-.13.01-.26.26-.41a.12.12 0 0 0 .06-.1.12.12 0 0 0-.04-.1c-.46-.34-.8-.8-1.04-1.4.08.05.16.05.23 0Z" fill="#F3D4DB"/></svg>