<!-- by TradingView --><svg width="56" height="56" viewBox="0 0 56 56" xmlns="http://www.w3.org/2000/svg"><path fill="#1B1F46" d="M0 0h56v56H0z"/><path d="m35.15 12.06-.26 3.68-.17-.08c-.18-.9-.1-1.57-.68-2.46-.4-.62-1.04-.88-1.93-.8-.82.09-1.4.57-1.7 1.44l-.27.39a.32.32 0 0 0 .01-.17c0-.05-.05-.08-.1-.09a1.56 1.56 0 0 0-.27-.01l.08-1.25c.02-.24-.09-.39-.33-.42a5.45 5.45 0 0 0-2.04.02c-.27.2-.38.39-.34.54l-1.24-.13c.07-.67-.46-.9-1.6-.71-.27.04-.58-.03-.78.28l-.45.26a2.7 2.7 0 0 0-.98-.5.3.3 0 0 0-.33.14c-.32.52-.68 1.06-1.1 1.62-.06.08-.13.13-.2.13a.1.1 0 0 1-.08-.02.1.1 0 0 1-.04-.07L20.27 12l2.2-.46c2.51-.51 4.93-.64 7.53-.46 1.85.12 3.57.45 5.15.98Z" fill="#262853"/><path d="m37.8 13.03-.33 2.47c.02.45-.01.96-.09 1.54-.01.12-.1.18-.24.2-.6 0-1.42.07-1.87-.37a.21.21 0 0 1-.07-.17l.3-4.7v-.1a.16.16 0 0 1 .12-.12c.77-.19 1.5-.15 2.18.1a.23.23 0 0 1 .16.26l-.16.89Z" fill="#E33D3F"/><path d="M17.92 11.93c.14.26.19.33.15.2l.21 5.5c0 .05.02.1.06.13a.2.2 0 0 0 .12.06l1.38.08c0 .27-.14.4-.4.38l-1.53.02c-.33-.21-.45-.74-.37-1.6l-.08-1.64-.16-2.7c.2-.14.41-.3.62-.43Z" fill="#150F1E"/><path d="m20.27 12 .08 1.85a.1.1 0 0 0 .04.07.1.1 0 0 0 .07.02c.08 0 .15-.05.2-.13.43-.56.8-1.1 1.1-1.62a.3.3 0 0 1 .34-.13c.34.09.67.25.98.5.49.32.32.7.1 1.12l-1.23 1.42c-.03.04-.02.06.02.08h.06a.38.38 0 0 0-.17.14c-.04.06-.03.11.03.15.43.26.87.5 1.32.7.1.04.15.12.19.2.11.45-.77 1.17-1.12 1.4a3.7 3.7 0 0 1-1.6-.8c-.24-.2-.35-.15-.31.17.03.24-.01.51-.1.8-.07-.1-.2-.1-.43-.04l-1.38-.08a.2.2 0 0 1-.18-.19l-.2-5.5a4.7 4.7 0 0 1 2.19-.13Z" fill="#E33D3F"/><path d="m35.5 12-.3 4.7c0 .07.02.13.07.17.45.44 1.28.36 1.87.36.01.1.02.16.04.2-.12.15-.36.23-.71.22-.34.02-.71-.02-1.13-.1-.3-.05-.5-.21-.49-.55 0-.43.02-.85.04-1.26l.26-3.68.35-.07Z" fill="#150F1E"/><path d="M25.9 12.72c.02.48.1.9.24 1.26a.46.46 0 0 0 0 .43c.02.06.08.1.14.1.3 0 .56-.04.78-.15.01.1.07.14.17.14a.17.17 0 0 0 .15-.16l.1-2.03a5.45 5.45 0 0 1 2.05-.02c.24.03.35.18.34.42l-.1 1.25c-.14 1.14-.23 2.3-.24 3.46a.6.6 0 0 1-.24.46l-1.59-.02a.44.44 0 0 1-.43-.44v-1.04c0-.08-.04-.12-.12-.12h-.69a.17.17 0 0 0-.1.3.3.3 0 0 1 .08.12c-.03.31-.03.63 0 .97.02.22-.09.33-.31.34l-1.78.04a.2.2 0 0 1-.2-.19c-.11-1.85-.32-3.7-.62-5.55.2-.3.5-.24.79-.28 1.13-.2 1.66.04 1.59.71Z" fill="#E33D3F"/><path d="M23.53 12.3c.3 1.84.5 3.69.62 5.54a.2.2 0 0 0 .2.19l1.78-.04a.64.64 0 0 1-.1.28c-.05.06-.13.1-.25.1l-1.81.1a.29.29 0 0 1-.3-.27l-.16-2.08-.2-1.44-.13-1c.22-.41.39-.8-.1-1.13l.45-.26ZM27.48 12.31l-.1 2.03a.17.17 0 0 1-.15.16c-.1 0-.16-.04-.17-.14l-.03-.49.12-1.02c-.04-.15.07-.33.34-.54Z" fill="#150F1E"/><path d="m34.72 15.66-.15 1.61c-.34.1-.62.13-.8-.22a8.4 8.4 0 0 0-.51-.88.14.14 0 0 0-.19.08l-.2.55c-.02.06-.06.08-.12.06-.18-.08-.39-.1-.64-.07-.07 0-.11.05-.13.12 0 .09.02.18.07.28a.51.51 0 0 0-.2.2c-.52-.12-1.01-.11-1.5 0a.19.19 0 0 1-.21-.1 12.83 12.83 0 0 1 .27-3.44c.3-.88.88-1.36 1.7-1.44.89-.09 1.53.17 1.93.79.58.9.5 1.56.68 2.46Z" fill="#E33D3F"/><path d="m27.15 12.85-.12 1.02-.9.11a3.87 3.87 0 0 1-.22-1.26l1.24.13Z" fill="#443E6E"/><path d="M37.8 13.03c.67.97 1.13 1.57 1.38 1.81 1.14 1.11 2.02 2 2.63 2.67a13.79 13.79 0 0 1 3.13 5.57c.23.8.58 1.85 1.05 3.16a18.09 18.09 0 0 1-6.38 14.49 1.17 1.17 0 0 0-.76.05c1.12-1.35 2-2.54 2.63-3.57 3.19-5.22 3.4-12.23-.09-17.4-.38-.57-1.01-1.3-1.9-2.22l-2.02-2.09.34-2.47Z" fill="#262853"/><path d="m23.18 13.68.13 1-1.28.5h-.06c-.04-.02-.05-.04-.02-.08l1.23-1.42Z" fill="#443E6E"/><path d="M30.4 13.84a12.82 12.82 0 0 0-.26 3.45.2.2 0 0 0 .13.1h.08c.49-.11.98-.12 1.5 0 0 .12-.03.21-.08.28-.05.05-.13.08-.25.08h-.49c-.3-.03-.6-.02-.9.05a.24.24 0 0 1-.29-.23c-.03-1.02.04-2.05.2-3.1 0-.04.04-.12.1-.24l.27-.39Z" fill="#150F1E"/><path d="m27.03 13.87.03.5c-.22.1-.48.15-.77.14a.16.16 0 0 1-.16-.1.46.46 0 0 1 0-.43l.9-.11Z" fill="#FEFAD0"/><path d="M30.14 14.23c-.06.12-.1.2-.1.24a16.46 16.46 0 0 0-.17 3.2.24.24 0 0 0 .27.13c.3-.07.6-.08.9-.05.03.51.73.69 1.14.8l-1.14 2.37a.06.06 0 0 1-.07.03.06.06 0 0 1-.04-.07c.04-.15.04-.26.02-.33a.12.12 0 0 0-.12-.08c-.02 0-.04 0-.05.02a1.4 1.4 0 0 0-.42.47c-.04.06-.1.06-.15.01a3.28 3.28 0 0 0-1.86-.91c-.3-.02-.33.05-.08.23.52.37.97.77 1.34 1.19.11.12.08.17-.08.15l-1.5-.15-1.06-.17-2.1-.56a.11.11 0 0 0-.15.1l.01.06.3.64c.07.14.04.16-.08.08a13.25 13.25 0 0 1-3.5-3.41.08.08 0 0 1 .07-.08c.3.01.56-.11.76-.37.35-.23 1.23-.95 1.12-1.4.04.08.06.16.07.24 0-.16.02-.32.04-.49l.16 2.08a.3.3 0 0 0 .3.26l1.8-.09c.13 0 .21-.04.26-.1a.64.64 0 0 0 .1-.28c.22-.01.33-.12.31-.34a5.31 5.31 0 0 1 0-.97.96.96 0 0 1 .34-.02c.07.01.1.05.1.12v1.08c0 .2.1.3.28.35.6.12 1.2.15 1.8.07.16-.02.27-.15.33-.4a.6.6 0 0 0 .24-.46c.01-1.17.1-2.32.25-3.46l.26.01c.06.01.1.04.11.1v.16Z" fill="#F3E1A2"/><path d="m23.31 14.68.2 1.44-.04.5a.75.75 0 0 0-.07-.24.36.36 0 0 0-.19-.2c-.45-.21-.89-.45-1.32-.7-.06-.05-.07-.1-.03-.16.03-.05.09-.1.17-.13l1.28-.51Z" fill="#FEFAD0"/><path d="m17.46 15.06.08 1.65c-1.96 1.8-3.5 3.63-4.47 6.13a17.06 17.06 0 0 0-.65 10.49c.28 1.14.6 2.28.95 3.42a.79.79 0 0 0-.56-.02A18.08 18.08 0 0 1 10 28.5c.63-2.49 1.13-4.33 1.5-5.52 1.07-3.48 3.16-5.75 5.96-7.93Z" fill="#262853"/><path d="m37.47 15.5 2.02 2.1c.89.9 1.52 1.64 1.9 2.21 3.49 5.17 3.28 12.18.09 17.4a30.87 30.87 0 0 1-2.63 3.57c-.69.3-1.03.74-1.04 1.29-.94.61-1.94 1.14-2.98 1.57-.14-.2-.33-.27-.56-.2a3.37 3.37 0 0 0-1.05-.19l-.51-.1c.2 0 .37-.04.53-.14a.48.48 0 0 1 .18-.08l.57-.1c1.38-.34 2.12-1.29 2.23-2.83.05-.67-.12-1.19-.5-1.57l-.28-.17c.06 0 .11-.02.16-.05a13.14 13.14 0 0 0 5.45-7.73c1-3.87.24-7.83-2.13-11.08l-1.74-1.98a.47.47 0 0 1-.04-.19c.15-.01.23-.07.24-.19.08-.58.1-1.1.1-1.54Z" fill="#443E6E"/><path d="M34.89 15.74 34.85 17c0 .34.19.5.5.56.41.07.78.1 1.12.1a7.08 7.08 0 0 1 1.17 3.75.31.31 0 0 1-.36.32c-.67-.09-1.3-.02-1.92.23-.23-1.4-.61-2.76-1.15-4.06-.03-.06 0-.1.05-.13.22-.09.32-.25.3-.5l.16-1.6.17.07Z" fill="#F3E1A2"/><path d="M34.57 17.27c0 .25-.1.41-.3.5-.07.03-.09.07-.06.13.54 1.3.92 2.65 1.15 4.06l.2 2.32a.14.14 0 0 0 .14.12l.06-.01c.37-.22.67-.43.9-.66.22-.2.3-.15.29.13-.02.33-.4.73-.66 1.06-.03.04-.03.07.01.1l.05.02c.03.02.05.05.04.09a18.68 18.68 0 0 1-.8 4.16.14.14 0 0 0 .13.12l1.3.14c.26.03.29.13.09.3-.27.23-.6.43-.88.77-.4.47-.85.86-1.39 1.16 0-.05 0-.1-.04-.12a.12.12 0 0 0-.1-.04l.34-.3c.33-.3.28-.39-.14-.29l-.31.07h-.01a.02.02 0 0 1-.02-.01v-.11a7.3 7.3 0 0 0 1.94-1.05.1.1 0 0 0-.01-.1.1.1 0 0 0-.06-.03l-.98-.2a.19.19 0 0 1-.12-.09.2.2 0 0 1-.02-.15c.41-1.36.84-2.63.53-3.96-.03-.15-.02-.37.03-.56a.18.18 0 0 0-.05-.18c-.31-.32-.48-.62-.51-.9a18.05 18.05 0 0 0-2-7.05.12.12 0 0 0-.19.07 28.38 28.38 0 0 1-2.27 4.99.27.27 0 0 1-.23.13c-.88 0-1.74-.14-2.59-.42l1.5.15c.16.02.19-.03.08-.15a7.88 7.88 0 0 0-1.34-1.2c-.25-.17-.22-.24.08-.22.68.04 1.36.46 1.86.91.06.05.1.05.15-.01.14-.24.28-.4.42-.47a.12.12 0 0 1 .15.02l.02.04c.02.07.02.18-.02.33a.06.06 0 0 0 .04.07H31c.02 0 .03-.02.03-.03l1.14-2.37.4-1.15c.03-.07.01-.12-.05-.16a.8.8 0 0 0-.48-.05.47.47 0 0 1-.07-.28c.02-.07.06-.11.13-.12.25-.03.46 0 .64.07.06.02.1 0 .12-.06l.2-.55a.14.14 0 0 1 .19-.08l.05.05c.15.22.3.5.47.82.17.36.45.33.79.23Z" fill="#150F1E"/><path d="m34.7 31.62-1.34.56a.4.4 0 0 1-.37-.03l-.7-.44c-.02-.02-.04-.01-.05 0a.24.24 0 0 0-.05.04v.01l.57.41a.07.07 0 0 1-.03.13c-.84.18-1.7.3-2.58.35-2.48.14-4.95 0-7.42-.4-.1-.03-.12-.08-.09-.17l.1-.23c0-.02 0-.03-.02-.05a.1.1 0 0 0-.04-.02c-.04 0-.07.02-.1.08-.1.17-.21.25-.36.24-.07 0-.1-.04-.12-.1l-.05-.18a.17.17 0 0 0-.13-.13 7.68 7.68 0 0 1-2.67-1.37.1.1 0 0 1 .02-.12.1.1 0 0 1 .05-.03l1.17-.3a.28.28 0 0 0 .2-.26c0-.04 0-.08-.02-.12a20.7 20.7 0 0 1-1.16-3.5c-.05-.2.01-.24.19-.15l.72.38c.16.08.18.05.08-.1a5.94 5.94 0 0 1-.35-2.1c0-1.01-.02-1.9-.04-2.68-.02-1.09.14-2.26.48-3.52a.17.17 0 0 1 .24-.11c.03.01.05.04.07.07.2.33.35.7.62 1 .55.65 1 1.15 1.33 1.5a9.55 9.55 0 0 0 2.18 1.65c.67.38 1.14.95 1.93 1.23l.04-.02c.02-.01.02-.03-.01-.05a5.57 5.57 0 0 1-1.59-1.24.7.7 0 0 1-.16-.51.15.15 0 0 1 .06-.12.15.15 0 0 1 .13-.02c.46.12 1.12.35 1.54.11l1.06.17c.85.28 1.71.42 2.59.42a.27.27 0 0 0 .23-.13 28.37 28.37 0 0 0 2.31-5.05.12.12 0 0 1 .14 0c.02 0 .04.02.05.04a18.05 18.05 0 0 1 1.96 7c.03.28.2.58.51.9.05.05.06.11.05.18-.05.19-.06.4-.03.56.31 1.33-.12 2.6-.53 3.96a.2.2 0 0 0 .14.24l.98.2a.1.1 0 0 1 .08.08.1.1 0 0 1-.04.1 7.3 7.3 0 0 1-1.86.96c-.03 0-.04.02-.04.05l-.01.09v.02a.02.02 0 0 0 .03 0l.3-.07c.43-.1.48 0 .15.28l-.35.3Z" fill="#272526"/><path d="M17.54 16.7c-.08.86.04 1.39.37 1.6a13.14 13.14 0 0 0-2.45 13.87 13.02 13.02 0 0 0 6.45 6.95l-.92 2.42-1.57-.1c-.07 0-.1-.04-.1-.11.01-.06 0-.11-.01-.18a.22.22 0 0 0-.12-.14 3.1 3.1 0 0 0-1.14-.28.18.18 0 0 1-.17-.15c-.17-1.2-1.42-1.72-2.5-1.43a.16.16 0 0 1-.17-.08.16.16 0 0 1-.02-.06 2.52 2.52 0 0 0-1.82-2.26 57.59 57.59 0 0 1-.95-3.42c-.89-3.57-.67-7.07.65-10.5.97-2.49 2.5-4.32 4.47-6.12Z" fill="#443E6E"/><path d="M22.28 17.77a.86.86 0 0 1-.76.37.07.07 0 0 0-.07.04.07.07 0 0 0 0 .07c.98 1.37 2.15 2.5 3.5 3.38.12.08.15.06.09-.08l-.3-.64a.11.11 0 0 1 .12-.16l2.1.56c-.41.24-1.07 0-1.53-.11a.14.14 0 0 0-.13.02.15.15 0 0 0-.06.12c0 .2.05.38.16.5.46.52 1 .94 1.59 1.25.03.02.03.04.01.05l-.04.02c-.8-.28-1.26-.85-1.93-1.23a9.56 9.56 0 0 1-2.18-1.65c-.34-.35-.78-.85-1.33-1.5-.27-.3-.43-.67-.62-1a.17.17 0 0 0-.31.04c-.34 1.26-.5 2.43-.48 3.52l.04 2.67c0 .56.12 1.76.35 2.1.1.16.08.2-.08.11l-.72-.38c-.18-.1-.24-.04-.2.15a20.7 20.7 0 0 0 1.2 3.62.28.28 0 0 1-.21.26l-1.17.3a.1.1 0 0 0-.07.14 7.68 7.68 0 0 0 2.67 1.37c.07.03.11.07.13.14l.05.18c.01.06.05.1.12.1.15 0 .27-.07.36-.24.03-.06.06-.08.1-.08a.1.1 0 0 1 .04.02c.02.02.02.03.01.05l-.09.23c-.03.1 0 .14.1.16 2.46.42 4.93.55 7.4.4a17.24 17.24 0 0 0 2.63-.36.07.07 0 0 0 .01-.08.07.07 0 0 0-.02-.03l-.57-.4v-.02a.24.24 0 0 1 .05-.04c.01-.02.03-.02.04 0l.71.44a.4.4 0 0 0 .37.03l1.33-.56c.05 0 .09 0 .11.03.03.03.04.08.04.13l-1.3.62a.07.07 0 0 0-.04.05.06.06 0 0 0 .02.06l1.5 1.14c-.06.01-.08.02-.07.05l-1.65-1.13a.18.18 0 0 0-.18-.02l-.8.31c-.1.04-.11.09-.07.16.14.23.13.47-.03.75a.2.2 0 0 0 .01.22c.2.23.26.5.2.84-.01.07 0 .14.03.2l.36.58.78 1.85-.08.09c-.02 0-.05 0-.08-.02a.12.12 0 0 1-.05-.06 7.98 7.98 0 0 0-.93-2.08.13.13 0 0 0-.18-.04c-.24.14-.52.24-.85.3-.07.02-.1.06-.09.14.11.5.15 1 .12 1.47-.03.5 0 .91.1 1.22.27.96.56 1.7.85 2.2.04.07.1.1.17.09.57-.09.76-.1.9-.7.14-.54.17-1.08.11-1.64 0-.05.02-.08.07-.1l.05-.02c.04-.01.06 0 .06.03l.1.74c-.06.89.01 1.72-1.08 1.97-.46.1-.9-.08-1.33-.54-.08-.08-.12-.07-.12.04l-.05 1c0 .08.03.12.1.13.7.05 1.22.02 1.58-.1 1.15-.38 1.6-1.17 1.33-2.37.08-.16.18-.1.27.2.04.11.06.22.05.3-.07 1.55-1.16 2.07-2.54 2.22a.12.12 0 0 0-.06.02c-.1.07-.11.2-.02.36.03.07.08.1.15.12.1.02.53.02 1.28.02 1.45 0 2.27-.6 2.48-1.8.15-.83.23-1.52-.4-2.1-.06-.06-.05-.1.02-.13h.18c.39.39.56.91.51 1.58-.1 1.54-.85 2.49-2.23 2.83-.58.03-1.25-.01-2.01-.12-.28-.05-.4.1-.36.42-.59.13-2.69.43-3.29-.16a.2.2 0 0 0-.11-.05l-.72-.06c-.07 0-.1.03-.1.1.01.21-.15.33-.5.34-.87.04-1.75.06-2.63.06l-.94-.05c-.7-.03-1.42.09-2.14.37-.37-.15-.73-.31-1.08-.48l.7-1.23.18-.43.92-2.42c.09-1.65.48-3.13 1.17-4.45a.18.18 0 0 0 0-.2l-.08-.11c0-.19.06-.38.17-.58.03-.06.02-.11-.03-.15-.29-.2-.37-.48-.27-.82.02-.07 0-.11-.07-.13l-.45-.08a.16.16 0 0 0-.17.06l-.8 1.04-.64.77c-.02.02-.04.02-.04-.01l-.02-.05v-.02l.42-.58.87-1.14c.07-.1.05-.17-.07-.2l-.86-.2-.5-.16c-.27-.09-.27-.16 0-.23.13-.03.38-.04.78-.02.02 0 .04 0 .05-.02.04-.04.03-.07-.02-.08a9.06 9.06 0 0 1-2.67-1.57 4.95 4.95 0 0 1 1.69-.52.15.15 0 0 0 .05-.2 14.62 14.62 0 0 1-1.25-4.08c-.03-.21.03-.25.2-.12l.67.53c.09.07.12.05.1-.06-.5-2.57-.46-5.17.12-7.8.1-.29.14-.56.1-.8-.03-.32.08-.37.32-.16.44.37.97.64 1.6.79Z" fill="#0D0D0E"/><path d="M32.05 17.2a.8.8 0 0 1 .48.04c.06.04.08.09.06.16l-.41 1.15c-.41-.11-1.11-.29-1.15-.8h.5c.11 0 .2-.03.24-.08.05-.07.08-.16.08-.29a.51.51 0 0 1 .2-.19ZM38.92 19.4c.09 1.01.2 2.01.34 3 .28 1.95-.22 4.64-.98 6.58a11.62 11.62 0 0 1-3.27 4.68l-1.49-1.15a.06.06 0 0 1 0-.09s0-.02.02-.02l1.3-.62c.54-.3 1-.7 1.39-1.16.27-.34.61-.55.88-.78.2-.16.17-.26-.09-.29l-1.3-.14a.14.14 0 0 1-.1-.06.14.14 0 0 1-.02-.12c.4-1.22.66-2.59.8-4.1a.08.08 0 0 0-.05-.09l-.05-.03c-.04-.02-.04-.05-.01-.09.27-.33.64-.73.66-1.06.02-.28-.07-.32-.28-.13a4.81 4.81 0 0 1-.97.67.13.13 0 0 1-.14-.12l-.2-2.32a3.73 3.73 0 0 1 1.92-.23.32.32 0 0 0 .33-.18.31.31 0 0 0 .03-.14 7.08 7.08 0 0 0-1.17-3.76c.35.01.59-.07.71-.23l1.74 1.98Z" fill="#DAB966"/><path d="M20.26 17.94a18.95 18.95 0 0 0-.12 7.8c.02.1-.01.13-.1.06l-.67-.53c-.17-.13-.23-.1-.2.12a14.62 14.62 0 0 0 1.26 4.16.15.15 0 0 1-.13.14c-.6.09-1.14.25-1.62.5-.34 1.34.02 2.19 1.09 2.53.13.04.27.04.42.02.36-.07.74-.03.85-.47l.86.2c.12.03.14.1.07.2l-.87 1.14c-.8-.25-1.22.56-1.55 1.21a.22.22 0 0 1-.15.11.7.7 0 0 1-.6-.15c-1.11-.86-2.22-1.8-3.34-2.8.03.08 0 .03-.08-.15.12-.07.16-.2.13-.39-.18-1.2-.3-2.45-.34-3.77-.03-.77.11-1.47.19-2.32.13-1.48.6-2.9 1.38-4.26.5-.86 1.07-1.3 1.95-2 .32-.24.57-.58.74-1.01.27.02.4-.11.4-.38.23-.07.37-.05.43.04Z" fill="#F3E1A2"/><path d="M19.43 18.28c-.17.43-.42.77-.74 1.02-.88.7-1.45 1.13-1.95 1.99a10.18 10.18 0 0 0-1.38 4.26c-.08.85-.22 1.55-.19 2.32.05 1.32.16 2.58.34 3.77.03.2-.01.32-.13.39A13.14 13.14 0 0 1 17.9 18.3l1.52-.02Z" fill="#FEFAD0"/><path d="M35.44 38.26a2.54 2.54 0 0 0-1.53-.08c-.06.01-.1-.01-.13-.08l-.18-.64-.78-1.85a9.99 9.99 0 0 0 2.2-1.95c1.41-1.13 2.61-3 3.26-4.68.76-1.94 1.26-4.63.98-6.58-.14-.99-.25-1.99-.34-3a13.08 13.08 0 0 1 2.13 11.08 13.15 13.15 0 0 1-5.45 7.73.27.27 0 0 1-.16.05Z" fill="#D3AE5C"/><path d="M21.04 32.27c-.11.44-.5.4-.85.47a.88.88 0 0 1-.42-.02c-1.07-.34-1.43-1.19-1.09-2.53.84.7 1.73 1.22 2.67 1.57.05.01.06.04.02.08a.07.07 0 0 1-.05.02 3.5 3.5 0 0 0-.78.02c-.27.07-.27.14 0 .23l.5.16ZM21.1 33.81l-.41.58v.07c.01.03.03.03.05 0l.64-.76c.4.2.76.45 1.1.71.17.15.41.18.52-.05l.08.12c.04.06.04.12 0 .19-.7 1.32-1.08 2.8-1.17 4.45a13.02 13.02 0 0 1-6.45-6.95 55.53 55.53 0 0 0 3.34 2.81c.19.15.4.2.6.15a.21.21 0 0 0 .15-.11c.33-.65.75-1.46 1.55-1.2ZM34.95 33.7a9.99 9.99 0 0 1-2.13 1.91l-.36-.58a.26.26 0 0 1-.03-.2.97.97 0 0 0-.2-.84.2.2 0 0 1-.01-.22c.16-.28.17-.52.03-.74-.04-.08-.02-.13.06-.17l.81-.3a.18.18 0 0 1 .18.01l1.65 1.13Z" fill="#DAB966"/><path d="M23 34.36c-.1.23-.35.2-.53.05a6.8 6.8 0 0 0-1.1-.71l.81-1.04c.05-.06.1-.08.17-.06l.45.08c.07.02.1.06.07.13-.1.34-.02.62.27.82.05.04.06.09.03.15-.11.2-.17.39-.17.58Z" fill="#F3E1A2"/><path d="m33.6 37.46.18.64c.02.07.07.1.13.08.52-.13 1.03-.1 1.53.08l.27.17a.31.31 0 0 0-.18 0c-.07.02-.08.06-.02.12.63.58.55 1.27.4 2.1-.2 1.2-1.03 1.8-2.48 1.8-.75 0-1.18 0-1.28-.02a.2.2 0 0 1-.15-.12c-.09-.17-.08-.29.02-.36a.12.12 0 0 1 .06-.02c1.38-.15 2.47-.67 2.54-2.21 0-.1 0-.2-.05-.3-.1-.3-.19-.37-.27-.2l-.42-.14-.1-.74c-.01-.03-.03-.04-.07-.03l-.05.02c-.05.02-.07.05-.07.1.06.56.03 1.1-.1 1.63-.15.6-.33.62-.9.7a.16.16 0 0 1-.18-.08c-.3-.5-.58-1.24-.86-2.2-.09-.3-.12-.72-.09-1.22.03-.47 0-.97-.12-1.47-.01-.08.02-.12.1-.14.32-.06.6-.16.84-.3a.13.13 0 0 1 .18.04c.4.65.72 1.34.93 2.08 0 .02.03.05.05.06.03.02.06.02.08.02.02 0 .04-.04.08-.09Z" fill="#272526"/><path d="M13.37 36.75A2.52 2.52 0 0 1 15.2 39a.17.17 0 0 0 .07.11.16.16 0 0 0 .13.03c1.07-.29 2.32.22 2.5 1.43a.18.18 0 0 0 .16.15c.4.03.8.12 1.14.28a.22.22 0 0 1 .12.14c.02.07.02.12.02.18-.01.07.02.1.1.1l1.56.1-.18.44-1.49-.03a.3.3 0 0 1-.18-.06 2.24 2.24 0 0 0-1.9-.42 18.09 18.09 0 0 1-4.43-4.73c.2-.06.39-.06.56.02Z" fill="#474F88"/><path d="M34.3 39.21c.27 1.2-.18 2-1.33 2.37-.36.12-.89.15-1.58.1-.07-.01-.1-.05-.1-.13l.05-1c0-.1.04-.12.12-.04.43.46.87.64 1.33.54 1.1-.25 1.02-1.08 1.09-1.97l.42.13Z" fill="#443E6E"/><path d="M39.61 40.73a18 18 0 0 1-1.8 1.34c0-.55.35-.98 1.04-1.3.28-.1.53-.11.76-.04Z" fill="#474F88"/><path d="m20.8 41.97-.69 1.23a18 18 0 0 1-2.87-1.74c.7-.15 1.32-.01 1.9.42a.3.3 0 0 0 .18.06l1.49.03Z" fill="#443E6E"/><path d="m31.62 43.13 1.09.01.5.11c.22.32.57.38 1.06.2.23-.08.42-.02.56.19a18.02 18.02 0 0 1-10.9.9c.95-.26 1.58-.4 1.9-.44a487.25 487.25 0 0 0 3.63-.44.08.08 0 0 0 .03-.1l-.03-.06a.07.07 0 0 0-.07-.04c-1.61.17-3.2.36-4.78.56l-.72.04c-.33.02-.61.1-.85.25-.63-.18-1.25-.39-1.85-.63.72-.28 1.44-.4 2.14-.37l.94.05c.88 0 1.76-.02 2.64-.06.34-.01.5-.13.49-.34 0-.07.03-.1.1-.1l.72.06a.2.2 0 0 1 .11.05c.6.6 2.7.29 3.3.16Z" fill="#443D4A"/><path d="M34.27 43.44c-.5.2-.84.13-1.05-.19.33 0 .68.07 1.05.2Z" fill="#0D0D0E"/><path d="M23.93 44.54c-.3-.07-.6-.14-.9-.23.25-.15.53-.23.86-.25l.72-.04a323.2 323.2 0 0 1 4.82-.56l.03.04.03.06a.08.08 0 0 1 0 .07.08.08 0 0 1-.07.05l-3.6.42c-.31.03-.94.18-1.9.44ZM32.02 14.27a.12.12 0 0 1 .2.02c.04.07.04.14 0 .22a.1.1 0 0 1-.1.05.1.1 0 0 1-.04-.02c-.1-.1-.12-.2-.06-.27Z" fill="#272526"/><path d="M32.68 14.54a.15.15 0 1 0 0-.3.15.15 0 0 0 0 .3ZM33.11 14.72a.07.07 0 0 1 .06-.02.07.07 0 0 1 .04.04c.03.07.04.14.02.22a.06.06 0 0 1-.05.05.06.06 0 0 1-.05-.02c-.1-.1-.11-.2-.02-.27Z" fill="#7B2324"/><path d="M31.6 14.87a.1.1 0 0 1 .13-.1c.05.04.07.07.07.1a.08.08 0 0 1-.03.07l-.02.02h-.04c-.06 0-.1-.04-.12-.09Z" fill="#272526"/><path d="M32.6 15.73c-.14-.28-.31-.4-.5-.35 0-.26.1-.37.28-.34.25.04.42.34.54.55l.02.06-.01.06c-.08.18-.19.19-.32.02Z" fill="#150F1E"/><path d="m32.6 15.73-.57.04c-.08 0-.11-.03-.1-.1a.63.63 0 0 1 .18-.29c.18-.05.35.07.5.35Z" fill="#FEFAD0"/><path d="M35.53 19.56a.37.37 0 1 0 0-.75.37.37 0 0 0 0 .75Z" fill="#DAB966"/><path d="M22.1 30.5a1.22 1.22 0 0 0-.22-.41 4.05 4.05 0 0 1-.78-3.2.14.14 0 0 1 .16-.05c.96.35 1.65.63 2.08.85.77.4 1.59.65 2.41 1.02.7.3 1.37.38 2.02.24.12-.03.14 0 .04.08l-.14.12a.2.2 0 0 0-.06.16c0 .36-.13.65-.4.85-1.37 1.05-3.63 1.5-5.15.43v-.02a.2.2 0 0 0 .04-.03v-.04ZM35.1 27.9c-.24.6-.54 1.15-.91 1.65-.3.4-.6.67-.9.82a4.44 4.44 0 0 1-3.76-.09 1.61 1.61 0 0 1-.7-.58 2.7 2.7 0 0 0-.41-.59c-.16-.14-.13-.2.08-.18.75.1 1.5.04 2.25-.15 1.06-.26 2.14-.65 3.23-1.18.3-.14.54-.22.72-.23.42-.04.55.14.4.52Z" fill="#0D0D0E"/><path d="M27.79 30.23h.4c.1 0 .12.03.03.1-.16.1-.31.1-.46 0-.08-.07-.07-.1.03-.1Z" fill="#E33D3F"/><path d="M24.77 33.45c-.03.13 0 .26.1.4a3.79 3.79 0 0 1-1.57-.36c-.25-.12-.31-.33-.2-.62.03-.08.08-.1.16-.09l1.65.33c.02 0 .03.01.04.03l.04.08a.06.06 0 0 1 0 .07.07.07 0 0 1-.07.03l-.66-.07c-.01 0-.02.01-.02.04 0 .01 0 .02.02.03l.51.13ZM32.02 33.13l-.5.21a3.9 3.9 0 0 0-.33-.03c-.4 0-.4-.06-.04-.2.15-.06.37-.1.65-.14.07-.01.12.01.16.07l.06.1Z" fill="#7B2324"/><path d="M32.02 33.13c.05.03.09.07.11.13.03.06.03.13 0 .2-.1.2-.14.4-.14.59a.17.17 0 0 1-.1.15c-1 .47-1.7.37-2.66.52-.01 0-.02 0-.02.02s.01.02.02.02c1.12-.03 1.98.05 2.82-.5.1-.06.16-.03.18.1v.11a.3.3 0 0 1-.14.29l-.28.16c-.1.07-.1.1.03.09.1 0 .16-.02.18-.03.22-.16.29-.1.2.15-.06.15-.2.23-.44.24-.79.04-1.26-.01-1.87.24a2.9 2.9 0 0 1-2.22.05c-.79-.24-1.61-.48-2.47-.7.66-.09 1.3 0 1.94.28l.04-.01a.15.15 0 0 0 .03-.05v-.03a3.4 3.4 0 0 0-1-.36l-.98-.17a.26.26 0 0 1-.17-.1c-.1-.13-.15-.3-.18-.51a.4.4 0 0 0-.03-.17c-.1-.13-.13-.26-.1-.39l1.14.13 1.43.1c1.31.13 2.62.07 3.92-.18.1-.02.18-.07.25-.16l.5-.2Z" fill="#E33D3F"/><path d="M24.9 34c.03.22.09.39.18.52.04.05.1.1.17.1.38.08.71.13.98.17.35.05.72.23 1 .36v.03c0 .02-.02.04-.03.05h-.04a3.72 3.72 0 0 0-1.94-.27 5.94 5.94 0 0 1-1.8-.45.32.32 0 0 1-.18-.39c.03-.1.1-.2.17-.29.05-.04.1-.06.17-.05l1.32.23Z" fill="#7B2324"/><path d="m22.59 40.41-.2-.1-.06-.15c.08.02.14.03.18 0 .06-.02.08-.06.07-.11a2.76 2.76 0 0 0-.17-.47c-.1-.24-.16-.55-.15-.92a7.98 7.98 0 0 1 1-3.87.12.12 0 0 1 .07-.01l1.09.21a.2.2 0 0 1 .15.26c-.14.5-.22 1-.24 1.53a94.1 94.1 0 0 1-.04 1.5 9.06 9.06 0 0 1-.67 2.3.16.16 0 0 1-.23-.05c-.05-.08-.14-.08-.26.02-.05.03-.1.03-.14 0a.3.3 0 0 1-.07-.12.27.27 0 0 0-.15-.15c-.11-.05-.17 0-.18.13Z" fill="#272526"/><path d="m26.88 35.64 1.44.38c.23.07.24.14.01.24-.57.23-1.63.24-1.66-.63 0-.1.03-.12.1-.07l.05.04a.1.1 0 0 0 .06.04Z" fill="#E33D3F"/><path d="M26.23 36.57c.03.1 0 .16-.1.2l-1.37.52c-.14.06-.21 0-.21-.14v-.97c0-.11.05-.18.16-.21l1.15-.3a.14.14 0 0 1 .16.1l.21.8ZM31.12 37.28a5.85 5.85 0 0 1-1.8-.69.17.17 0 0 1-.06-.16c.05-.37.33-.56.72-.51.35.04.7.05 1.05.05.1 0 .17.05.18.15l.1 1.01a.14.14 0 0 1-.06.12.14.14 0 0 1-.13.03Z" fill="#272526"/><path d="M28.74 36.11a.13.13 0 0 1 .1-.03l.13.03c.05 0 .05.03.02.07-.66.79-1.38.87-2.16.26a.02.02 0 0 1-.01-.02.02.02 0 0 1 .01-.02l.05-.02c.03-.01.05-.01.07 0 .64.33 1.24.24 1.79-.27Z" fill="#D3AE5C"/><path d="M29.02 36.59c.55.4 1.23.7 2.05.9a.15.15 0 0 1 .12.14v.52c0 .1-.05.16-.16.16-.72.03-1.32.12-1.98.07-.81-.07-1.68-.08-2.6-.02-.26.02-.6 0-1.04-.03a.16.16 0 0 1-.14-.12 1.72 1.72 0 0 1-.03-.76.19.19 0 0 1 .11-.14l1.26-.6a.26.26 0 0 1 .2-.02c.2.06.41.24.61.28.5.1.98-.03 1.44-.38a.13.13 0 0 1 .16 0ZM29.06 40.01a.22.22 0 0 1-.22.22h-2a.22.22 0 0 1-.22-.22v-1.34a.22.22 0 0 1 .22-.21h2a.22.22 0 0 1 .22.22v1.33ZM31.18 38.48h-.2c-.12 0-.22.09-.23.21v.59c-.01.12.09.23.21.23h.2c.12 0 .23-.09.23-.21l.01-.59c0-.12-.1-.23-.22-.23ZM25.73 38.54h-.17a.16.16 0 0 0-.17.16v.62c0 .09.07.16.16.16h.17c.09 0 .16-.07.16-.16v-.62a.16.16 0 0 0-.15-.16ZM26.31 38.58h-.01a.16.16 0 0 0-.17.14l-.04.66c-.01.08.05.16.14.16h.02c.08 0 .15-.06.16-.14l.05-.66a.16.16 0 0 0-.15-.16ZM30.34 38.58h-.18a.2.2 0 0 0-.2.18l-.03.56c0 .1.08.2.19.2l.18.01c.1 0 .2-.08.2-.19l.03-.55a.2.2 0 0 0-.19-.2ZM29.65 38.64a.1.1 0 0 1 .07.03.1.1 0 0 1 .03.07l-.01.34c0 .13-.03.26-.08.35-.05.1-.1.15-.17.15h-.06c-.06 0-.12-.06-.16-.16a.87.87 0 0 1-.06-.36l.01-.33a.1.1 0 0 1 .1-.1l.33.01Z" fill="#272526"/><path d="m22.33 40.16.06.15c.03.12.02.23-.02.33l-.7 1.85c-.34.24-.68.44-1.03.6-.25.12-.3.06-.14-.16.25-.37.48-.81.66-1.32l.87-2.36c.02-.06.04-.06.06 0l.24.9Z" fill="#E33D3F"/><path d="M26.6 41.68a.03.03 0 0 0-.02.02v1.33c0 .07-.03.1-.1.1H24.6a.11.11 0 0 1-.09-.05.12.12 0 0 1-.01-.1c.07-.17.2-.32.4-.46a.4.4 0 0 0 .13-.14 3.44 3.44 0 0 0 .33-2.16.1.1 0 0 1 .09-.07c.33-.05.64-.03.92.07.33.12.58.19.76.19h1.6c.32-.01.52-.22.84-.22a26.93 26.93 0 0 0 1.55-.05.13.13 0 0 1 .08.08v.06l-.16 1.6c-.01.07 0 .14.05.2l.28.38a.38.38 0 0 1 0 .44c0 .02-.03.02-.07 0a.1.1 0 0 1-.07-.1.6.6 0 0 0-.12-.31c-.04-.05-.07-.05-.1 0-.03.07-.02.19.04.35.03.09 0 .14-.1.14l-.56.06c-.09 0-.14-.03-.15-.12l-.02-.3c0-.04-.03-.06-.08-.05l-.06.02h-.02a.06.06 0 0 0-.02.05v.02c.04.12.04.22.01.3-.02.05-.1.08-.22.08-.35.02-.67 0-.95-.05-.08-.01-.11-.06-.1-.14l.04-.4a.53.53 0 0 0-.46-.58l-1.75-.19Z" fill="#272526"/><path d="m21.67 42.49.7-1.85c.04-.1.05-.21.02-.33l.2.1.17.26c.04.05.09.09.15.1.42.1.84.07 1.24-.08a.35.35 0 0 0 .16-.11l.27-.35c.06-.08.1-.07.12.03.13.55.16 1.06.08 1.54 0 .07-.05.1-.12.1-.04 0-.07-.03-.08-.08l-.24-1.07a.06.06 0 0 0-.05-.05l-.07-.01a.05.05 0 0 0-.05.05l.27 1.06c.02.08 0 .12-.09.12-.4.04-.7.22-.94.54-.29.4-.46.38-.5-.09a8.27 8.27 0 0 1-.03-1.47c0-.04-.01-.06-.05-.06h-.1c-.03 0-.04.02-.04.05v1.25c0 .07-.03.1-.1.12l-.92.23Z" fill="#7B2324"/><path d="M27.4 42.8a.1.1 0 0 1-.1-.1v-.56c0-.06.04-.1.1-.1h.78c.16 0 .26.09.3.24l.08.26c.05.17-.02.25-.2.25h-.96ZM22.55 42.47c.09-.02.15.02.19.1l.07.2a.3.3 0 0 0 .37.18.3.3 0 0 0 .13-.08c.34-.37.59-.78.94-.7.08.01.08.03 0 .06a.82.82 0 0 0-.55.8c0 .06-.03.1-.1.1l-2.7.26a.08.08 0 0 1-.05-.15 4.23 4.23 0 0 1 1.7-.77Z" fill="#443E6E"/><path d="M16.1 27.57c.34.74 1.14 1.08 1.79.78.65-.3.9-1.15.55-1.88-.34-.73-1.15-1.08-1.8-.78-.64.3-.9 1.15-.55 1.88ZM16.1 30.8c.13.38.49.59.8.47.31-.1.46-.5.33-.87-.14-.37-.5-.58-.8-.47-.32.11-.47.5-.33.88Z" fill="#DAB966"/><path d="M24.77 29.68c.09.24.17.24.25-.01a3 3 0 0 0 .06-.85c0-.09.03-.11.1-.08.76.32 1.48.49 2.16.51.09 0 .11.05.09.13-.38 1.09-1.46 1.24-2.45 1.28-2.27.1-3.84-1.06-3.7-3.46a.1.1 0 0 1 .05-.07.1.1 0 0 1 .1-.01l3.24 1.42c.06.03.08.07.07.13-.07.4-.06.75.03 1.01ZM31.18 29.6c.11.34.2.33.26-.03.03-.17.04-.39.03-.66 0-.07.03-.12.1-.14.97-.3 1.92-.65 2.85-1.06.44-.2.56-.08.34.36l-.36.73c-.22.46-.57.78-1.03.98-1.25.52-3.79 1.06-4.49-.42-.02-.05 0-.08.05-.08l2.15-.3c.05 0 .07.01.07.06 0 .3 0 .49.03.57Z" fill="#FEE57A"/><path d="M27.8 36.09c.05 0 .08.03.1.09.01.02 0 .04-.02.06a.15.15 0 0 1-.04.03.08.08 0 0 1-.06 0l-.03-.02-.01-.03a.12.12 0 0 1 0-.1c.01-.02.03-.03.07-.03Z" fill="#150F1E"/><path d="M27.4 39.4a.13.13 0 0 0 .14.16h.99c.1 0 .14-.05.14-.15v-.38a.16.16 0 0 0-.16-.16h-1.47c-.03 0-.04-.01-.03-.04l.01-.07c0-.02.02-.03.04-.03h1.6a.15.15 0 0 1 .15.16v.87c0 .09-.04.13-.13.13h-1.6a.15.15 0 0 1-.14-.09c-.1-.18-.15-.35-.17-.5a.24.24 0 0 1 .17-.26.23.23 0 0 1 .1 0c.28.05.4.17.37.37Z" fill="#0D0D0E"/></svg>