<!-- by TradingView --><svg width="56" height="56" viewBox="0 0 56 56" xmlns="http://www.w3.org/2000/svg"><path fill="#F0F3FA" d="M0 0h56v56H0z"/><path d="M28 11a17 17 0 1 1 0 34 17 17 0 0 1 0-34Z" fill="url(#aw5ap5ljr)"/><path d="M28 13a15 15 0 1 1 0 30 15 15 0 0 1 0-30Z" fill="#181B1E"/><path d="m28 38.63 5.31-4.26v-1.06h-10.1l-.52.53L28 38.62Z" fill="#EE2225"/><path d="M37 31.19s.56 1.45.56 2.84c0 1.05-.92 1.95-2.96 1.97-.66 0-1.44-.09-2.35-.3l-1.06-1.75 2.43-2.4L37 31.2Z" fill="#EC2022"/><path d="M35.84 31.19s.66 1.28.66 2.5c0 1.24-1.9 2.23-6.2 1.5l-1.24-1.56 2.85-2.11 3.93-.33Z" fill="#981C1E"/><path d="M25.88 19.5s1.72-1.32 4.68-1.1c0 0 1.18-1.02 3.68-1.02S40.9 19.29 42 20c0 0-5.9-1.72-7.71-.57-1.82 1.15-1.25 3.26-1.25 3.26l-4.87-.5-2.3-2.69Z" fill="#DB2027"/><path d="M36.8 21.63s1.83 2.76 1.83 4.17c0 1.42-.6 2.05-2.15 2.19-1.55.14-2.17-.76-2.1-1.1l1.07-4.57 1.35-.7Z" fill="#EA1C27"/><path d="M35.73 22.69s1.83 2.3 1.83 3.48c0 1.18-.59 1.7-2.14 1.82-1.55.11-2.18-.63-2.1-.92.07-.3 1.07-3.8 1.07-3.8l1.34-.58Z" fill="#981C1E"/><path d="M15.63 31s-2.08-5.09 3.21-7.33l.66-.25-.16-.73-.5.2s-6.78.66-6.78 5.51c0 3.73 2.6 5.6 2.6 5.6s-2.94-3.97-.22-7c0 0-.49 1.6 1.2 4Z" fill="url(#bw5ap5ljr)"/><path d="M36.61 20.68s7.33 2.6 7.33 6.34C43.94 30.2 42 30 42 30s1.81-1.52.15-3.92c0 0-.15 2.92-4.15 2.92 0 0 2.9-.68 2.9-2.11 0-1.44-1.61-3.77-4.32-5.86l-1.14.01.1-.48 1.07.12Z" fill="url(#cw5ap5ljr)"/><path d="M19.84 24.81s-3.53 1.24-3.53 4.76c0 3.51 1.01 6.76 6.69 10.43 0 0-4.64-3.68-4.57-8.02 0 0 2.51 9.48 14.57 11.02 0 0-8.13-2.57-10.78-7.85l-.39-8.64-1.99-1.7Z" fill="url(#dw5ap5ljr)"/><path d="M27.88 35.44c-5.12 0-8.9-3.19-8.9-3.19l.62-1.06-1.16.02L19.6 28h-.7l1.28-1.3a15.28 15.28 0 0 1-1.74-6.13V19.5c2.48.1 5.6 2.25 5.6 2.25l2.25.54-.88-2.79 4.64 2.65v-1.59l1.75 1.07c2.08-1.5 5.22-1.59 5.22-1.59 0 2.65-1.74 6.9-1.74 6.9L36.72 28h-.86l1.7 3.19-1.7-.34.64 1.53c-.96 1.3-3.5 3.06-8.62 3.06ZM21.35 22s.47 1.3.58 1.34l-1.4.04.84 2.04-.4.45-1.37-4.25.88.19.87.19Zm12.57.02-.38 1.23h1.35l-.95 2.04.58.57 1.34-4.25-1.94.4Zm-7.35 7.05-3.48-2.14c-.1 1.18 1.1 3.18 2.04 3.18.91 0 1.44-1.04 1.44-1.04Zm5.8-2.14-3.48 2.14s.53 1.05 1.44 1.05c.94 0 2.14-2.01 2.04-3.2Zm-4.64 6.37c-1.29 0-2.32-.47-2.32-1.06 0-.28.05-.6.35-.78.5-.28 1.47-.28 1.97-.28s1.46 0 1.97.28c.3.15.35.5.35.78 0 .59-1.03 1.06-2.32 1.06Z" fill="#F0F3FA"/><path d="m17.91 19.49.02-.54.54.02c1.35.06 2.84.67 3.94 1.22a19.57 19.57 0 0 1 1.85 1.07l1.24.3-1-3.2 5.02 2.87v-1.61l2.26 1.37a9.89 9.89 0 0 1 3.3-1.24 13.85 13.85 0 0 1 1.88-.24H37l.02.53s-.2 0-.53.04c-.99.1-3.13.43-4.7 1.55l-1.74-1.07v1.59l-4.64-2.65.88 2.8-2.25-.55s-2.7-1.85-5.07-2.2a5.6 5.6 0 0 0-.53-.05v1.07c.02 1.31.56 3.94 1.74 6.13L18.91 28h.7l-1.17 3.2 1.16-.01-.61 1.06-.35.4-.34-.28.37-.64-.99.02 1.17-3.22h-1.21l1.9-1.92c-1.1-2.2-1.6-4.7-1.63-6.03a34.55 34.55 0 0 1 0-1.02v-.07Zm17.95 11.36.64 1.53c-.96 1.3-3.5 3.06-8.62 3.06-5.12 0-8.9-3.19-8.9-3.19l-.34.4v.01h.02l.04.04a7.43 7.43 0 0 0 .65.49c.45.3 1.1.72 1.93 1.13 1.63.82 3.93 1.65 6.6 1.65 5.24 0 7.96-1.81 9.05-3.28l.18-.24-.37-.89 1.82.37-1.82-3.4h1.59l-2.4-1.78a32.67 32.67 0 0 0 .73-2.11c.43-1.4.9-3.19.9-4.6v-.55l-.56.02.02.53c0 .17 0 .35-.02.53-.2 2.65-1.72 6.37-1.72 6.37L36.72 28h-.86l1.7 3.19-1.7-.34Zm-1.92-5.55.58.57 1.34-4.25-1.94.4-.38 1.24h1.35l-.95 2.04Zm1.02-2.57.12-.4-.75.16-.07.24h.7Zm-13.03.62a2.07 2.07 0 0 1-.26-.52c-.16-.38-.32-.82-.32-.82l-1.75-.39 1.37 4.25.4-.44-.84-2.04 1.4-.04Zm-1.37-.5-.17-.51.56.12.15.38-.54.02Zm8.33 6.23a2.13 2.13 0 0 0 .3.44c.25.28.64.6 1.14.6.78 0 1.74-1.38 1.99-2.53.05-.23.07-.45.05-.65l-3.48 2.14Zm2.74-1.06-1.98 1.22c.2.21.44.35.68.35.05 0 .18-.03.39-.2a4.27 4.27 0 0 0 .92-1.37Zm-2.18 3.92h-.01a2.16 2.16 0 0 0-.78-.19 9.7 9.7 0 0 0-1.86 0c-.36.04-.63.1-.78.18-.02.02-.04.03-.05.07a.76.76 0 0 0-.03.25s.03.11.37.27c.33.15.84.26 1.42.26.59 0 1.09-.1 1.42-.26.34-.16.37-.28.37-.28v.01a.8.8 0 0 0-.03-.26.13.13 0 0 0-.02-.04h-.02Zm-6.36-5c-.01.2 0 .42.05.65.25 1.15 1.21 2.54 1.99 2.54.5 0 .9-.33 1.14-.61l.16-.21c.1-.13.14-.23.14-.23l-3.48-2.14Zm.74 1.08c.09.22.2.45.34.67.18.3.39.54.58.7.2.17.33.2.38.2.24 0 .47-.14.67-.35l-1.97-1.22Zm5.87 3.45c-.5-.28-1.46-.28-1.97-.28-.5 0-1.46 0-1.97.28-.3.17-.35.5-.35.78 0 .59 1.03 1.06 2.32 1.06 1.29 0 2.32-.47 2.32-1.06 0-.28-.05-.63-.35-.78Z" fill="#181B1E"/><path d="m25.88 26.94.99 1.06s.13-.48.03-.6c-.1-.1-1.02-.46-1.02-.46ZM30.13 26.94l-1 1.06s-.13-.48-.03-.6c.11-.1 1.02-.46 1.02-.46ZM26.15 31.15v-.01a1.67 1.67 0 0 1 .16-.13 4.58 4.58 0 0 1 1.04-.58c.22-.08.44-.13.65-.13a2.99 2.99 0 0 1 1.85.84c.04.04.13.06.2.04.07-.03.1-.08.06-.12a3.2 3.2 0 0 0-2.11-.93c-.28 0-.56.06-.8.15a3.82 3.82 0 0 0-1.29.76h-.01c-.05.05-.03.1.04.13s.16.02.2-.02ZM31.15 33.37c.05.06.05.17-.01.23l-.1-.12.1.12h-.01a1.36 1.36 0 0 1-.13.12c-.09.07-.21.17-.36.27a2.32 2.32 0 0 1-2.24.17.76.76 0 0 1-.4-.68c0-.1.07-.17.15-.17.09 0 .16.08.16.17 0 .16.07.3.23.4a2.03 2.03 0 0 0 1.94-.17 3.07 3.07 0 0 0 .44-.35m.23 0a.15.15 0 0 0-.22 0h.22Z" fill="#2B2A29"/><path d="M24.85 33.37a.17.17 0 0 0 .01.23c.45.43 1.08.77 1.7.77.91 0 1.44-.3 1.44-.9 0-.08-.07-.16-.15-.16-.09 0-.16.08-.16.17 0 .34-.3.57-1.13.57-.48 0-1.15-.36-1.49-.7m-.22.02a.15.15 0 0 1 .22-.01h-.22Z" fill="#2B2A29"/><path d="M33.25 30.13s-1.1 1.07-2.06 1.42l1.6 1.76s.73-1.42.46-3.19ZM22.75 30.13s1.1 1.07 2.06 1.42l-1.6 1.76s-.73-1.42-.46-3.19Z" fill="#E72528"/><defs><linearGradient id="aw5ap5ljr" x1="17.91" y1="13.66" x2="39.16" y2="41.81" gradientUnits="userSpaceOnUse"><stop stop-color="#0206BC"/><stop offset=".95" stop-color="#3DAF49"/></linearGradient><linearGradient id="bw5ap5ljr" x1="16.31" y1="24.28" x2="15.17" y2="29.4" gradientUnits="userSpaceOnUse"><stop stop-color="#E4282E"/><stop offset="1" stop-color="#F89F1C"/></linearGradient><linearGradient id="cw5ap5ljr" x1="37.56" y1="20.56" x2="43.41" y2="30.66" gradientUnits="userSpaceOnUse"><stop offset=".4" stop-color="#E4282E"/><stop offset="1" stop-color="#F89F1C"/></linearGradient><linearGradient id="dw5ap5ljr" x1="24.81" y1="34.38" x2="17.46" y2="31.85" gradientUnits="userSpaceOnUse"><stop stop-color="#E4282E"/><stop offset="1" stop-color="#FDBE0E"/></linearGradient></defs></svg>