<!-- by TradingView --><svg width="56" height="56" viewBox="0 0 56 56" xmlns="http://www.w3.org/2000/svg"><path fill="#31CB9E" d="M0 0h56v56H0z"/><path d="m29.93 9.15 9.17 7.2c.43.33.38.97-.07 1.24l-13.6 8.03 3.34-16.03a.73.73 0 0 1 1.16-.44Zm9.98 26.98L26.09 28l13.82-8.13a.73.73 0 0 1 1.09.64V35.5c0 .56-.62.92-1.1.64Zm-9.98 10.72 9.2-7.21a.76.76 0 0 0-.08-1.24l-13.63-8.02 3.36 16.03c.1.54.72.77 1.15.44Zm-3.76-36.13-3.62 17.27 3.62 17.3c.13.67-.63 1.16-1.16.74l-9.26-7.25A1.99 1.99 0 0 1 15 37.2V18.8c0-.6.28-1.2.75-1.57l9.26-7.26c.54-.44 1.3.06 1.16.74Z" fill="#fff"/></svg>