<svg width="112" height="112" viewBox="0 0 56 56" xmlns="http://www.w3.org/2000/svg"><path d="M43.94 31.57c.73-7.37-5.66-16.56-13.82-15.3-.55-.34-1.1-.7-1.63-1.05l-.96-.63-.15-.1c-.3-.23-.66-.49-1.03-.49-.75-.03-1.47.88-1.02 1.6-.98-.5-2 .77-1.24 1.62-.66-.33-1.28.35-1.21.97.03.48.43.94.77 1.32l.14.17a21.91 21.91 0 0 0-3.9 5.98 103.3 103.3 0 0 0-2.52 5.91l-.2.53c-.54 1.4-1.47 3.85-3.1 2.91-1.45-.84-2.2-3.11-2.4-4.64-.1-.84-.13-2.01.53-2.66 1.35-1.31 4.89.18 5.4.4.04 0 .06.02.07.02-1.67-1.1-6.59-4.2-7.5-.72-.43 1.66.03 3.7.68 5.23.6 1.43 1.44 2.9 2.79 3.74 2.56 1.57 3.87-1.57 4.76-3.72.16-.38.3-.73.45-1.02 1.34-2.86 2.82-5.75 4.94-8.1a9.96 9.96 0 0 1 5.54-3.27c.92-.16 1.9-.16 2.89.1 2.68.68 5.04 2.76 6.48 5.06 1.38 2.21 2.3 5.13 1.9 7.73-.16 1.2-.59 2.54-1.7 3.19-1.21.74-2.88.58-4.2.29-1.57-.36-3.07-1-4.58-1.66-1.44-.62-7.34-3.6-8.82-4.51l.73.53a70.18 70.18 0 0 0 7.24 4.92l-.07.08c-.19.22-.41.47-.56.7-.26.4.13 1.04.6.69-.17.42 0 .94.55.84-.26.49.33.97.79.68l2-1.4c2.42.95 5.3 1.4 7.73.17a6.94 6.94 0 0 0 3.34-4.48c.16-.52.23-1.08.3-1.63Zm-8.9-6c-.99 0-1.78.77-1.78 1.75 0 .94.79 1.75 1.77 1.75a1.75 1.75 0 1 0 0-3.5Z" fill="#fff"/></svg>