<!-- by TradingView --><svg width="56" height="56" viewBox="0 0 56 56" xmlns="http://www.w3.org/2000/svg"><path fill="#F0F3FA" d="M0 0h56v56H0z"/><path d="M35.52 21.91c1.58-1.5 7.64-3.9 10.48-4.91-1.93 1-6.14 3.3-7.55 4.56-1.4 1.26-2.26 3.85-2.51 4.99.25.01.44.08.44.27-.84 7.9-7.53 9.6-9.62 10.18 4.56-2.95 5.44-5.45 5.34-6.33-.2.12-.56.33-.73.33 2.26-6.92 2.18-7.2 4.15-9.09Z" fill="url(#apuckbeig)"/><path d="M34.79 17.02c-4.94.56-5.13 4.36-4.65 5.98 1.2-3.47 2.7-4.38 3.73-4.38 1.04 0 2.04.82 2.86.82.83 0 1.62-.52 1.79-.82-.75-1.21-2.74-1.72-3.73-1.6Z" fill="url(#bpuckbeig)"/><path d="M33.17 20.64c0-.15.36-.49.54-.64.17.13.53.42.53.55 0 .15-.36.45-.64.45-.29 0-.43-.18-.43-.36Z" fill="#C771BC"/><path d="M23.15 18.3c-5.86-2.6-7.9-5.95-8.15-7.3v2.85c0 1.16.65 2.44 1.09 3 .43.57.87 1.45.7 1.45a4.5 4.5 0 0 1-1.14-.3c.96 3.37 4.97 4.83 8.37 5.43 3.4.6 6.36 2.09 7.01 2.57-.04-1.04-2.52-5.25-7.88-7.7Z" fill="url(#cpuckbeig)"/><path d="M24.38 24.34c3.65.7 5.24 1.85 5.59 2.34-1.33.8-3.58 1.44-4.7 1.3-7.54-.86-8.13-5.51-8.13-5.98 1.75 1.08 2.68 1.48 7.24 2.34Z" fill="url(#dpuckbeig)"/><path d="M26.76 31.52c.97-.31 2.59-1.81 3.18-2.52.3 1.32-1.82 3.18-2.6 3.72-.77.54-2.94 2.4-2.72 2.6.43.38 3.2-1.1 3.59-1.22a2 2 0 0 1 .52-.1c.1 0 .17.03.17.1-2.98 2.29-4.06 3.3-4.93 4.5-.86 1.2-.64 3.02-1.08 4a5.89 5.89 0 0 1-5.1 3.4c-.05-.17-.1-.68.14-1.4.2-.58.28-1.07.28-1.35 0-.14 0-.25-.07-.25-.48 0-1.38 1.14-1.77 2-.1-.84-.3-2.59-.3-3.14 0-3.29 2.76-5.81 4.15-6.66l6.54-4.53v.85Z" fill="url(#epuckbeig)"/><defs><linearGradient id="apuckbeig" x1="46.46" y1="17.71" x2="29.54" y2="35.35" gradientUnits="userSpaceOnUse"><stop stop-color="#D86582"/><stop offset="1" stop-color="#CE65C7"/></linearGradient><linearGradient id="bpuckbeig" x1="39.1" y1="18.45" x2="29.34" y2="19.84" gradientUnits="userSpaceOnUse"><stop stop-color="#E064AB"/><stop offset="1" stop-color="#BE73D1"/></linearGradient><linearGradient id="cpuckbeig" x1="14.56" y1="11.44" x2="30.29" y2="27.34" gradientUnits="userSpaceOnUse"><stop stop-color="#51A7E8"/><stop offset=".54" stop-color="#9386F2"/><stop offset="1" stop-color="#CE6DF3"/></linearGradient><linearGradient id="dpuckbeig" x1="16.79" y1="22.18" x2="21.79" y2="32.28" gradientUnits="userSpaceOnUse"><stop stop-color="#51A7E8"/><stop offset=".54" stop-color="#9386F2"/><stop offset="1" stop-color="#CE6DF3"/></linearGradient><linearGradient id="epuckbeig" x1="29.5" y1="37.48" x2="16.1" y2="43.54" gradientUnits="userSpaceOnUse"><stop stop-color="#D265CA"/><stop offset="1" stop-color="#928AF1"/></linearGradient></defs></svg>