<!-- by TradingView --><svg width="56" height="56" viewBox="0 0 56 56" xmlns="http://www.w3.org/2000/svg"><path fill="#F0F3FA" d="M0 0h56v56H0z"/><path fill-rule="evenodd" d="M43.9 26.16a5.02 5.02 0 0 1-1.96-2.48.5.5 0 0 1 0-.35l1-2.98a1.24 1.24 0 0 0-1.16-1.63h-1.62c-.22 0-.44-.06-.62-.2-1.58-1.07-2.31-2.48-2.18-4.21.02-.4-.17-.8-.5-1.02a1.13 1.13 0 0 0-1.1-.1l-1.59.77c-2.5 1.06-3.7-.34-5.01-1.89-.27-.31-.54-.63-.83-.94a.41.41 0 0 0-.52-.07.42.42 0 0 0-.13.14l-1.12 1.82c-1.83 2-4 1.3-6.17.22a.93.93 0 0 0-.57-.09c-.42.08-.6.25-.51.51-.3 3.35-1.92 4.99-4.84 4.9-.63-.01-1.03.1-1.18.35-.26.4-.36.88-.3 1.45.05.9.8 1.95 1.15 2.76.08.18.08.38 0 .56-.39.93-1.3 1.89-2.72 2.87-.61.43-.4 1.49-.3 2.07.01.15.12.29.33.41 1.1.68 1.93 1.5 2.48 2.49l.21.53a.78.78 0 0 1-.02.6l-1.03 2.2c-.14.3-.17 1.46.02 1.71.35.5.9.75 1.62.75 2.86.01 4.19 1.45 4 4.31-.04.57.73 1.68 1.27 1.49l3.32-1.17c.19-.07.4-.07.59 0a5.7 5.7 0 0 1 2.97 2.55c.2.34.45.48.77.42.38.12.74.12 1.07 0 .2-.06.36-.2.46-.4a5.17 5.17 0 0 1 2.86-2.59c.2-.07.4-.08.6 0l3.23 1.1a.7.7 0 0 0 .73-.19c.62-.64.86-1.51.72-2.6.37-2.02 1.62-2.74 3.53-2.88a3.96 3.96 0 0 0 1.85-.64.78.78 0 0 0 .36-.8 9.39 9.39 0 0 0-1.13-3.16.76.76 0 0 1-.06-.6 5.15 5.15 0 0 1 2.58-3.07c.17-.1.3-.24.37-.43.42-1.13.11-1.96-.92-2.49Zm-17.22 7.76a.45.45 0 0 1 .23-.17c3.14-2.8 6.15-5.79 9.04-8.97.39-.43.2-1.16.14-1.67-.9-1.07-1.8-1.17-2.69-.31-1.94 1.9-4 3.95-6.16 6.18-.22.22-.5.35-.81.35-.3 0-.6-.11-.81-.32l-3.1-3.04c-.99.32-1.66.9-2.03 1.76a.61.61 0 0 0-.06.28c.01.1.04.2.09.28.78 1.33 1.87 2.3 2.92 3.4 1.04 1.09 2.04 2.13 3.24 2.23Zm-7.44 4.38v-.01.02-.01Z" fill="url(#a)"/><defs><linearGradient id="a" x1="15.76" y1="18.79" x2="39.35" y2="33.79" gradientUnits="userSpaceOnUse"><stop stop-color="#A5D5F8"/><stop offset="1" stop-color="#0C6ABA"/></linearGradient></defs></svg>