<!-- by TradingView --><svg width="56" height="56" viewBox="0 0 56 56" xmlns="http://www.w3.org/2000/svg"><path fill="#F0F3FA" d="M0 0h56v56H0z"/><path d="M17 45c.5 0 .28-.2 2.8 0 2.74.2 3.61.35 6.2 1.29-.08-.3 5.77-37.16 4.1-.53 1.16.63 2.62-.36 3.93-.61 1.07-.13 4.61-1.04 4.97-.18V10.98c-1 0-2.87.13-3.72 0-1.23-.18-1.23-.94-2.15-1.45-1.2-.65-1.54.03-2.56-.98-.54-.54.05-.23-.93-.87-.43-.27-.74-.43-1.25-.68-.57.2-.95.38-1.47.74-.9.65-.25.32-.9.88-1 .89-1.69.26-2.76 1.07-1.18.88-.62 1.26-2.57 1.31-1.18.03-2.69 0-3.69 0v34Z" fill="#F5B45C"/><path d="M23 12.68c-.74-1.22-3.49-.82-5-.82l.08 30.3c.69 1.62 4.87 1.32 7.64 3.02h.36c.56-3.07 3.18-3.3 4.74-.52.82-.15 2.54-.8 3.26-1.09.72-.28.84-.48 1.46-.6.8-.13 1.51 0 2.46-.2V12.34c-.44-.82.19-.41-1.25-.61-1.59-.23-2.26.38-3.52 0A37.29 37.29 0 0 0 28.21 9C23 10.18 23.5 12.68 23 12.68Z" fill="#11313D"/><path d="m18.13 42.97-.03-1L18 11.7c1.5.31 3.85-.43 4.59.76.84-.41 1.13-1.67 1.91-1.95 1.08-.4 1.65-.2 2.55.15L27.5 9c1.08-.58.42-.6 1.5 0l.67 1.65c1.85-.63 2.75.08 3.87 1.57 1.51.48.05-.23 1.8-.53 1.14 0 1.97-.36 2.4.48.31-.5.29.71.26-.73-1.8-.08-2.95.4-4.23-.54-.05-.02-.1-.07-.15-.1L31.26 9.7c-.08-.03-.16-.03-.23-.05a1.78 1.78 0 0 1-.2-.08c-.65-.18-.5-.46-.8-.99l-.08-.18c-1.7-2.48-3.78 1.04-3.78 1.04-1.38.4-1.97.54-3.17 1.42-1.38 1.02-1.74.61-5.26.59-.25 2.94.08 31 .39 31.53Z" fill="#C76F2D"/><path d="M20.73 27.78c.56-.4-.87-.17.94-.3.5-.73-.65.28.18-.43.7-.62 7.7-.45 8.43-.35l-.13-1.52c-2.77-.44-4.49.32-6.05-.26-.05-.03-.05-.05-.1-.1V17c.05-1.32.15-1.06.53-2.01h-3.96c.28.45.37 1.6.43 3 0 2.5.03 5.8 0 7.38-.04 1.73-.43 1.98-.43 2.18 0 .06.05.12.16.22Z" fill="#4BDBE4"/><path d="M26.7 24.35c-.15.42.93.44 2.47.17.98-.17.83-2.02.83-3.52 1.5 0 2 0 3 .42V18.7c-1 .29-1.79.29-3 .29v-2c2.35 0 4.45 0 5 .55V15h-8l-.01 9-.3.35Z" fill="#53DBE5"/><path d="M24.74 24.83c.76.03 1.23.05 1.93-.47 1.28.1 2.46-.12 3.18-.26.31-.06.54-.1.65-.1.27.02.25.17.23.3-.01.14-.03.24.24.15.2-.05.17-.08.14-.1-.04-.03-.07-.06.74-.19-.01.43.03.77.07 1.06.06.45.11.8-.07 1.28l-.05.3.03.17c.06.26.17.74.17 1.03H20.67c-.11-.3.21-.96.3-1.1a.79.79 0 0 0 .03-.05c1.02-.9 2.79-.74 4.52-.6 1.98.18 3.92.34 4.68-1.04-.62-.02-1.28 0-1.95.03-1.46.07-2.96.14-4.18-.32l-.03-.02c-.05-.02-.1-.04-.14-.08l.84.01Z" fill="#368B98"/><path d="M22.56 12.45c.39.43-.12.35.67.23.51-.97.87-2.06 3-1.65.93.18.31.23 1.46.48v-.63c-.05-1.07-.25-1.17.54-1.78 1.1.3.85 1.07.93 2.29 1.17-.39 1.87-.74 2.84-.28.03 0 .44.28.46.28l.88.7c.02.03.1.08.17.13l.21-1.01c-1.9-1.14-1.54-1.42-4.08-.56l-.02-1.95c-1.08-.61-1.44-.64-2.52-.05l-.07 2c-.9-.35-1.72-.68-2.8-.28-.28.1-.77.43-.97.79-.49.8.02.93-.7 1.29Z" fill="#071318"/><path d="M26.1 45c.26.25 2.26-.46 4.08-.1l.49-.03.18-.4.02-1.07c-.46-1.78-1.6-2.42-2.66-2.4-1.01.02-1.96.65-2.18 1.36-.03.08-.16.86-.16.94-.15 1.52-.02.69.23 1.7Z" fill="#234955"/><path d="M18.13 42.97c.36.5-.36.33 1 .5 1.56.2.33-.43 2.43.51.85.38 2.47.87 3.57 1.02h.61c-.92-1.09-1.92-1-3.15-1.53-1.46-.63-.05-.73-3.7-.78l-.76-.69v.97Z" fill="#071318"/><path d="M30.1 45.73c-1.82 1.65-1.77-.56-3.36.08.34 1.39.54 1.47 1.21 2.48.87-.25 1.03-.25 1.85-.35.97-1.3 1.5-1.75 3.59-2.41C35.08 45 37.13 45 39 45c-.28-.68.23-.59-1.38-.61l-3.6.48c-.81.15-1.43.33-2.17.63-.85.3-1.13.56-1.75.23Z" fill="#B48435"/><path d="m30.85 44.46-.18.4c1.36-.02 2.36-.22 3.51-.57 1.28-.38 1.64-.84 3.28-.84.72-.25.39.05.54-.86-.95.17-1.64.05-2.43.2-.62.1-.75.3-1.47.6-.71.26-2.43.92-3.25 1.07Z" fill="#071318"/><path d="M17.18 45c1.82 0 4.05-.08 5.82.43.72.2 1.44.48 2.13.86.82.45.95.76 1.51 1.09l.41.15c-.33-.86-.2-1.09-.8-1.8a21.75 21.75 0 0 0-6.84-1.34c-2.54-.18-2.18.03-2.23.61Z" fill="#CA7728"/><path d="M26.1 45h-.97c.87.86.59-.13.8.86.56.7.5.63.84 1.52h-.13c.54 1.16.46.8 1.31 1.62 1.18-.18 1.1-.1 1.87-1.06l.03-.66c-.1.05-.26 0-.31.12-.15.61-.13.08-.36.26-.46.2-.54.19-1.08.34a19.7 19.7 0 0 1-1.36-2.42l-.1-1.9c-.02.07-.07.25-.07.3l-.03.28c-.18.46.56.74-.44.74Z" fill="#D1AE6D"/><path d="M26.87 45.88c.64.36.2-.2.85.74.44-.26 1.15-.61 1.46.1.7-.33.44.43.6-.46l.32-.5.08-.84c.13-.66.28-.66.08-1.12-.41-.88-.05-.33-.77-.68-.72.46-1.05.76-2.44 0-.69 0-.48-.15-.4.58.03.73 0 2.04.22 2.18Z" fill="#2A7685"/><path d="M35 28h-3.5c0 .31.55.34.5 1-.5 2-.5 2-1.5 5-1-3.5-1-3.5-1.5-6h-2.5c-.7 2.18-1.18 3.87-2 6-1-3-1-3-1.5-4.72-.02-.5.37-.95.68-1.28H20c1.02 3.81 1.2 4.46 3 11h3l1.54-6C28 35 28 35 29 39h3c1.63-5.57 2-7 3-11Z" fill="#53DBE5"/><path d="M27.62 45.38c.59.02.46.17.46-.36.82.23 1.02.68 1.43-.02.36-.64.08-1.47-.05-1.9-.15-.8-.77-.83-1.43-1.1-.31.35-.6.92-1 1.1.18 1.31-.18 1.52.59 2.28Z" fill="#74EEF2"/><path d="m27.74 46.6.6.83c.38-.23.66-.28.97-.4l-.1-.34.18-.83-.93-.16s-.66.16-.87.18l.15.71Z" fill="#2CC7CB"/></svg>