<svg width="112" height="112" viewBox="0 0 56 56" xmlns="http://www.w3.org/2000/svg"><rect fill="#F0F3FA" width="56" height="56" rx="28"/><path d="M26 17.48 27 14l1 3.48L27 20l-1-2.52Z" fill="#08883E"/><path d="M48 20h-4.11L40 26.21 36.11 20H32l5.94 9.5L32 39h4.11L40 32.79 43.89 39H48l-5.94-9.5L48 20Z" fill="#E47A04"/><path d="M23 17c.7.06 2.26.75 3 3-.46-.29-2.54-.48-3-3ZM31 17c-.7.06-2.26.75-3 3 .46-.29 2.54-.48 3-3Z" fill="#08883E"/><path d="M13 20H9v19h13v-4h-9V20ZM23.55 26.37l-.47-1.45c-.15-.45-.09-.94.17-1.35.47-.76 1.06-1.73 1.41-2.33.12-.2.38-.29.6-.21.75.24 1.5.36 1.74.39.23-.03.99-.15 1.73-.4.23-.07.5.02.6.22l.92 1.5-3.14.6 3.85.75c.06.27.05.56-.04.83l-1.96 6.04-2.53.5 2.23.42L27 37l-2.95-9.09 3.75-.72-4.25-.82Z" fill="#E47A04"/><path d="m23 38.5 4-.5 4 .5-4 .5-4-.5Z" fill="#B3B3B3"/></svg>