<svg width="56" height="56" viewBox="0 0 56 56" xmlns="http://www.w3.org/2000/svg"><rect fill="#F0F3FA" width="56" height="56" rx="28"/><path d="M28 44a10 10 0 0 0 10-10c0-3.37-2.98-8.96-5.76-14.17-1.77-3.32-3.46-6.5-4.24-8.83-.78 2.34-2.47 5.5-4.24 8.83C20.98 25.03 18 30.63 18 34a10 10 0 0 0 10 10Zm-7-13c.67 1.83 2.6 5.6 5 6-1 .5-3.3 1.1-4.5-.5-1.2-1.6-.83-4.33-.5-5.5Z" fill="url(#a)"/><defs><linearGradient id="a" x1="34" y1="22.5" x2="21.5" y2="41.5" gradientUnits="userSpaceOnUse"><stop stop-color="#6266B0"/><stop offset=".39" stop-color="#2594D2"/><stop offset="1" stop-color="#3ABD9D"/></linearGradient></defs></svg>