<!-- by TradingView --><svg width="56" height="56" viewBox="0 0 56 56" xmlns="http://www.w3.org/2000/svg"><path fill="#181B1E" d="M0 0h56v56H0z"/><path fill-rule="evenodd" d="M28 45a17 17 0 1 0 0-34 17 17 0 0 0 0 34Zm0-1a16 16 0 1 0 0-32 16 16 0 0 0 0 32Z" fill="red"/><path d="m24.76 24.2 3.1-3.99-7.36 4h4.26Z" fill="#771113"/><path d="M27.98 24.2v-3.99l-3.26 4h3.26Z" fill="#D20606"/><path d="M27.94 36.83 24.76 24.2h3.18v12.62Z" fill="#A40B0D"/><path d="M24.85 24.2h-4.43l7.56 12.76-3.13-12.75Z" fill="#3E181B"/><path d="m31.24 24.2-3.1-3.99 7.36 4h-4.26Z" fill="#771113"/><path d="M28.02 24.2v-3.99l3.26 4h-3.26Z" fill="#D20606"/><path d="m28.06 36.83 3.18-12.62h-3.18v12.62Z" fill="#A40B0D"/><path d="M31.15 24.2h4.43l-7.56 12.76 3.13-12.75Z" fill="#3E181B"/><path fill-rule="evenodd" d="M28 37c-.03 0-.06 0-.08-.02l-8.9-9.1a.09.09 0 0 1-.01-.1l1.33-3.6c0-.02.02-.04.04-.05l7.56-4.12a.08.08 0 0 1 .06 0h.06l7.56 4.12.04.05 1.33 3.6c.02.03 0 .07-.01.1l-8.9 9.1A.08.08 0 0 1 28 37Zm-.24-.62-7.2-12.09h4.14l3.06 12.09Zm.14-.14L24.87 24.3h3.03v11.95Zm0-15.91v3.8h-2.96l2.96-3.8Zm-.24.03-2.94 3.76h-3.96l6.9-3.76Zm-8.48 7.43 8.36 8.56-7.1-11.95-1.26 3.4Zm9.06 8.59 7.2-12.09H31.3l-3.06 12.09Zm-.14-.14 3.03-11.95H28.1v11.95Zm0-15.91v3.8h2.96l-2.96-3.8Zm.24.03 2.94 3.76h3.96l-6.9-3.76Zm8.48 7.43-8.36 8.56 7.1-11.95 1.26 3.4Z" fill="red"/></svg>