<!-- by TradingView --><svg width="56" height="56" viewBox="0 0 56 56" xmlns="http://www.w3.org/2000/svg"><path fill="#4197EE" d="M0 0h56v56H0z"/><path d="M16.2 29.92c-1.04-.6-1.71-1.64-2.01-3.12-.07-.34-.13-.82-.18-1.46-.03-.45 0-.94.11-1.47a2.63 2.63 0 0 1 3.08-1.96c.06 0 .1-.01.12-.06l.1-.22a15.17 15.17 0 0 1 3.45-5.26c.9-.82 1.88-1.5 2.95-2.04l1.53-.75c.1-.04.23-.13.43-.28a.26.26 0 0 0 .07-.1c.15-.32.18-.61.08-.86-.1-.25-.3-.44-.61-.56l-.36-.14c-.11-.05-.16-.13-.13-.25.08-.37.27-.69.58-.94.29-.24.63-.38 1.02-.42.34-.04.68-.04 1.02.02.37.06.68.17.93.33.28.18.58.43.9.76 1.02 1.04 1.23 2.34.63 3.88-.02.06 0 .1.06.13.97.38 1.82.94 2.55 1.68.6.6 1.43 1.6 2.52 3.02a.1.1 0 0 0 .08.04h.62a6.04 6.04 0 0 1 3.04.57c.55.28.93.6 1.16 1 .43.73.49 1.48.18 2.22a.13.13 0 0 0 0 .11c.2.41.33.77.37 1.08.04.36 0 .75-.16 1.15a2 2 0 0 1-.6.87 5.63 5.63 0 0 1-.98.61c-.1.05-.14.14-.12.24.11.57.05 1.1-.19 1.6a.48.48 0 0 0-.04.26l.08.62c0 .04.02.08.06.1a7 7 0 0 1 1.51 1.59c.4.6.68 1.28.83 2.03a.3.3 0 0 0 .13.2l.43.32c.13.12.24.26.32.42.37.73.31 1.39-.19 1.98a.13.13 0 0 0-.02.15c.34.74.21 1.41-.37 2.03-.49.5-1.22.85-2.22 1.02a.59.59 0 0 1-.2 0 1.87 1.87 0 0 0-.6-.02c-.25.03-.42.12-.5.28-.18.3-.4.58-.69.8a12.43 12.43 0 0 1-2.58 1.36c-.5.18-1.08.32-1.76.4-2.34.26-4.65.1-6.94-.5a16.08 16.08 0 0 1-7.92-5.03 7.36 7.36 0 0 1-1.23-2.05 9.74 9.74 0 0 1-.68-3.53c0-.61.12-1.2.36-1.77.02-.04 0-.06-.03-.08Z" fill="#0B0D0D"/><path d="M22.4 28.61c-.2-.05-.37.01-.48.17l-.35.51a.81.81 0 0 1-.34.27c-.47.21-.91.52-1.31.93-.29.29-.64.73-1.05 1.3v.06l.03.03c-.12-.01-.2 0-.23.05a5.04 5.04 0 0 0-1.04 4.04l-.03-.01a8.49 8.49 0 0 1-1.16-4.5c0-.4.1-.78.24-1.18.03-.08.09-.1.16-.06.28.14.6.09.93-.14a.1.1 0 0 0 .04-.08c.02-.15 0-.25-.04-.3a.13.13 0 0 0-.1-.03c-.43 0-.72-.04-.86-.1a3.72 3.72 0 0 1-1.9-2.3c-.14-.4-.22-.71-.25-.94-.06-.45-.08-1-.05-1.66.02-.52.12-.91.3-1.18.28-.42.63-.72 1.05-.9a1.68 1.68 0 0 1 2.12.66c.15.22.31.55.5 1 .05.11.1.2.15.25.06.05.14.09.25.11.08.02.13-.02.15-.1a.72.72 0 0 0-.05-.5 8.93 8.93 0 0 0-.45-.94c-.17-.3-.38-.54-.62-.74-.08-.06-.1-.14-.06-.24l.19-.46c.31-.75.55-1.29.72-1.6.36-.67.85-1.38 1.46-2.13.84-1.04 1.89-1.92 3.14-2.62.62-.35 1.33-.71 2.11-1.1.49-.23.8-.5.94-.82a1.62 1.62 0 0 0-.33-1.81c-.07-.06-.2-.15-.39-.26l-.08-.05c-.04-.03-.04-.05-.01-.09.37-.36.82-.53 1.36-.48.5.04.97.23 1.39.58.4.33.7.74.92 1.25.34.77.3 1.55-.09 2.33-.11.23-.19.41-.23.56 0 .04 0 .08.02.12.02.04.05.06.1.07l.1.03c.38.09.66.17.83.25.76.35 1.38.79 1.87 1.3a33.72 33.72 0 0 1 2.37 2.77c.03.04.02.07-.03.08a11.29 11.29 0 0 1-4.44.15 6.48 6.48 0 0 1-1.27-.35 5.66 5.66 0 0 0-1.1-.32 7.61 7.61 0 0 0-2.73-.13 5.4 5.4 0 0 0-1.99.75c-.26.16-.6.46-1 .9-.17.19-.3.33-.4.42a.25.25 0 0 0-.08.2c.01.08.05.15.11.2h.02c.06.05.14.07.22.06.08 0 .15-.04.2-.1.43-.46.83-.82 1.18-1.08.44-.31.92-.54 1.43-.68.28-.08.66-.12 1.14-.12.6 0 .98.02 1.16.03.34.02.9.17 1.68.45.95.34 1.95.54 3 .58.06 0 .1.03.12.08.44.94.37 1.7-.22 2.26-.04.04-.08.04-.12.01a5.94 5.94 0 0 0-1.77-.75 11.4 11.4 0 0 0-3.25-.34 9.38 9.38 0 0 0-3.2.66 3 3 0 0 0-.76.43c-.51.42-.8.96-.85 1.6-.06.65.13 1.23.56 1.74a3.55 3.55 0 0 0 2.36 1.28c1.96.34 3.92.21 5.86-.39.5-.16.96-.38 1.34-.67.03-.03.06-.03.09 0 .58.61 1.26.93 2.04.98a21.29 21.29 0 0 1 .81.08l-.01.04-.34.19c-.32.15-.53.3-.64.45-.02.03-.05.04-.09.01a4.8 4.8 0 0 0-2.7-.8c-.66.02-1.25.17-1.75.46-.08.04-.35.22-.8.54a.8.8 0 0 1-.34.13c-.3.05-.58.1-.84.17-.68.17-1.34.18-1.97.04a14.82 14.82 0 0 1-2.37-.7c-.03-.01-.05-.01-.07 0a.18.18 0 0 0-.12.14Z" fill="#676767"/><path d="m32.17 23.26-.04-.03v-.04a1.97 1.97 0 0 0 .26-1.54l-.27-.58a.1.1 0 0 1 0-.09.1.1 0 0 1 .08-.05c.9-.1 1.54-.19 1.95-.25.83-.14 1.48-.2 1.95-.18.95.04 1.75.23 2.42.58.9.47 1.28 1.14 1.16 2-.01.06-.04.08-.1.05-.76-.38-1.5-.6-2.2-.67a10.63 10.63 0 0 0-5.2.8Z" fill="#676767"/><path d="M23.96 21.51c0-.12.07-.23.23-.32.13-.07.27-.11.43-.13.35-.04.7-.12 1.05-.23a.99.99 0 0 1 .37-.04c.54.04 1.01.14 1.42.31a9.12 9.12 0 0 0 1.45.46c.06.01.1.05.13.1s.04.1.02.17a.22.22 0 0 1-.1.14.22.22 0 0 1-.17.02 7.4 7.4 0 0 1-1.24-.34 4 4 0 0 0-1.67-.37 55.15 55.15 0 0 0-1.47.34.68.68 0 0 1-.31.07c-.08-.01-.13-.07-.14-.18ZM33.9 21.7c.2-.18.6-.33 1.23-.48l.16-.03c.27-.07.6-.08.97-.04.61.06 1.16.13 1.65.2.06 0 .1.04.14.09.04.05.05.1.03.17a.24.24 0 0 1-.1.16.24.24 0 0 1-.18.04c-1-.15-1.67-.22-2.02-.2-.35 0-.85.13-1.5.38-.26.1-.4.04-.43-.2 0-.03.01-.07.04-.1Z" fill="#0B0D0D"/><path d="M31.28 24.48c.32.7.26 1.31-.18 1.8-.16.19-.42.35-.77.5-.82.34-1.92.56-3.3.66-.87.06-1.74.01-2.61-.16a3.44 3.44 0 0 1-1.25-.5c-.4-.26-.7-.58-.89-.96a1.66 1.66 0 0 1-.15-1.13c.09-.4.3-.7.65-.94a4.7 4.7 0 0 1 1.78-.69l1.1-.11c1.3-.13 2.52-.06 3.64.23.37.1.74.25 1.11.46a2 2 0 0 1 .87.84ZM32.04 24.16c.24-.21.51-.37.82-.48 1.97-.7 3.83-.8 5.58-.33.61.17 1 .44 1.16.8.22.51.27 1 .14 1.46-.14.5-.44.87-.93 1.11a5.6 5.6 0 0 1-2.53.54c-1.15 0-2.01-.01-2.58-.06-.77-.06-1.3-.33-1.62-.82a.1.1 0 0 1-.02-.1c.23-.67.21-1.35-.05-2.04a.07.07 0 0 1 .03-.08Z" fill="#F8F3E1"/><path d="M25.56 24.33c.19-.4.5-.67.91-.81.43-.14.84-.11 1.24.08.41.2.69.5.84.93.16.42.14.83-.05 1.22-.2.4-.5.67-.92.8-.42.15-.83.12-1.24-.07-.4-.2-.68-.51-.83-.93-.16-.42-.14-.83.05-1.22ZM37.73 25.15c0 .4-.14.75-.43 1.04a1.4 1.4 0 0 1-1.02.43c-.4 0-.75-.15-1.03-.43a1.42 1.42 0 0 1-.43-1.04c0-.4.15-.74.43-1.03a1.4 1.4 0 0 1 1.03-.43c.4 0 .74.14 1.02.43.29.29.43.63.43 1.03ZM17 25.3l-.03.01c-.43.7-.54 1.44-.31 2.23a.2.2 0 0 1-.03.18.2.2 0 0 1-.17.1c-.18 0-.3-.08-.35-.25-.1-.27-.14-.57-.14-.9 0-.24.04-.55.11-.93.05-.3.24-.58.57-.84.03-.03.03-.06 0-.09a1.7 1.7 0 0 0-.52-.36.77.77 0 0 0-.63.05.15.15 0 0 1-.15 0 .15.15 0 0 1-.08-.14v-.07c0-.1.03-.17.1-.22.37-.25.75-.28 1.15-.08.38.2.7.5.94.9.17.28.35.7.55 1.25.13.37.18.76.13 1.17-.01.08-.05.14-.11.18a.23.23 0 0 1-.21.02h-.04a.38.38 0 0 1-.27-.38l-.03-.72v-.02a22 22 0 0 0-.37-.93.3.3 0 0 0-.12-.15Z" fill="#0B0D0D"/><path d="M36.03 24.7c.13 0 .23-.1.23-.23s-.1-.24-.23-.24-.24.1-.24.24c0 .13.1.23.24.23ZM26.76 24.9c.13 0 .23-.1.23-.23s-.1-.24-.23-.24-.23.1-.23.24c0 .13.1.23.23.23ZM27.5 26c.2 0 .38-.18.38-.38 0-.21-.17-.38-.38-.38-.2 0-.37.17-.37.38 0 .2.17.37.37.37ZM36.58 26.1c.2 0 .37-.18.37-.38s-.17-.38-.37-.38c-.2 0-.38.17-.38.38 0 .2.17.37.38.37Z" fill="#F8F3E1"/><path d="M22.92 27.98v.04l-.07.11c-.06.08-.16.11-.3.09a1.1 1.1 0 0 1-.47-.2l-.18-.13a1.1 1.1 0 0 1-.35-.37c-.07-.13-.08-.24-.02-.31l.07-.12h.04l1.28.9Z" fill="#0B0D0D"/><path d="m36.66 27.86 1.32-.05c.05 0 .09.02.1.08.05.28.04.56-.05.83-.01.02-.03.04-.06.05-.02 0-.05 0-.07-.02a4.2 4.2 0 0 0-1.26-.82c-.01-.01-.02-.02-.01-.04 0-.02 0-.03.03-.03Z" fill="#676767"/><path d="M18.9 31.88a.16.16 0 0 0-.02-.03c-.02-.02-.02-.03 0-.05.4-.58.75-1.02 1.04-1.31.4-.41.84-.72 1.31-.93a.81.81 0 0 0 .34-.27l.35-.5c.11-.17.27-.23.49-.18-.1.19-.04.33.15.42.72.34 1.53.59 2.4.75.78.14 1.74.05 2.88-.27.02 0 .03 0 .05.02l.02.04a2.1 2.1 0 0 0 .8 2.03c.1.1.24.14.38.12.16-.02.24-.11.23-.28a.14.14 0 0 0-.04-.1 3.9 3.9 0 0 1-.6-.6 1.19 1.19 0 0 1-.25-.8c.03-.43.27-.79.72-1.08.38-.25.81-.39 1.28-.42a6.14 6.14 0 0 1 1.4.06l.44.18c.6.23 1.03.66 1.32 1.28.03.07.08.1.16.08.07-.02.1-.07.1-.14l-.03-.68c0-.07.02-.13.06-.2.25-.3.52-.52.83-.64.27-.1.62-.15 1.03-.13.6.04 1.19.34 1.77.92.18.18.28.36.3.53.03.26.03.47-.01.63-.05.19-.15.36-.31.53a48.68 48.68 0 0 0-.58.6.36.36 0 0 0-.02.22c.01.06.05.1.1.12.06.03.11.04.18.02.23-.06.54-.34.93-.83.07-.08.14-.1.23-.03a4.82 4.82 0 0 1 1.8 2.43c.08.23.12.4.1.5 0 .04-.02.06-.06.07-.4.02-1.75.1-4.06.26-.57.04-1.52 0-2.83-.14-.3-.03-1.35-.27-3.16-.72-.48-.12-1.08-.22-1.8-.28-1.05-.1-2.11-.02-3.18.21a6.4 6.4 0 0 0-1.88.72c-.62.36-1.1.8-1.47 1.32a2.72 2.72 0 0 0-.37 2.23c.34.95 1.17 1.42 2.5 1.4 1.7-.04 2.82-.05 3.37-.03.6.02 1.27.09 2.01.21.52.09 1.28.24 2.27.45a27.37 27.37 0 0 0 4.28.56l1.13.09c.02 0 .03.01.04.03v.05c-.08.1-.18.2-.3.28a9.2 9.2 0 0 1-2.36 1.15c-.68.22-1.48.4-2.4.53a16.68 16.68 0 0 1-3.88-.06l-.7-.12c-.4-.05-.7-.1-.9-.14a13.9 13.9 0 0 1-4.07-1.62 16.98 16.98 0 0 1-2.78-1.96c-.54-.5-1.02-1.02-1.43-1.54a.44.44 0 0 1-.1-.3c0-.19 0-.47-.03-.86a4 4 0 0 1 .31-2.28 5.42 5.42 0 0 1 .67-1.2c.03-.14-.02-.25-.15-.32Z" fill="#829EC4"/><path d="m30.24 30.29-.12-.24a.09.09 0 0 1 .01-.1c.16-.21.34-.3.55-.27.33.04.64.18.93.41a1.83 1.83 0 0 1 .65.97c.06.16.09.28.09.35 0 .12-.06.2-.17.22-.12.02-.2-.02-.27-.13l-.4-.73a.47.47 0 0 0-.1-.13l-.35-.31a.2.2 0 0 0-.2-.04c-.16.04-.34.06-.54.05a.09.09 0 0 1-.08-.05ZM36.62 30.3c0 .06 0 .1-.05.13a.13.13 0 0 1-.13.02 1.4 1.4 0 0 0-.4-.03c-.19 0-.33.03-.4.06-.38.16-.63.52-.75 1.09a.36.36 0 0 1-.3.3l-.04.01c-.05.01-.1 0-.14-.04a.16.16 0 0 1-.06-.14c.01-.38.13-.72.34-1.03a.42.42 0 0 1 .08-.1c.02 0 .04-.02.07-.05.28-.23.5-.4.66-.47.24-.13.52-.18.82-.17a.3.3 0 0 1 .2.09.3.3 0 0 1 .1.2v.14ZM24.26 31.67c.41-.18.7-.46.62-.62-.06-.16-.46-.14-.87.03-.41.18-.7.46-.62.62.07.17.46.15.87-.03Z" fill="#0B0D0D"/><path d="M24.34 36.68c.02.04.04.05.08.05l.63-.1a14.56 14.56 0 0 1 5.38.07c1.05.22 2.1.41 3.12.58 1.76.28 3.72.35 5.87.2.44-.04.92-.11 1.46-.23.1-.02.16.02.2.11.2.64-.06 1.17-.8 1.59a4.63 4.63 0 0 1-1.88.54c-.55.03-1.2.03-1.92 0a57.8 57.8 0 0 1-3.82-.3c-.31-.04-.89-.15-1.74-.34a23.43 23.43 0 0 0-2.73-.47c-1-.08-2.05-.09-3.12-.03-.44.03-.98.03-1.63 0-.4-.01-.75-.13-1.02-.37a1.33 1.33 0 0 1-.47-.97c-.03-.54.13-1.04.47-1.5.3-.41.7-.75 1.22-1.01.76-.4 1.45-.64 2.04-.73.82-.13 1.6-.16 2.35-.1.85.05 1.82.24 2.92.54 1.18.32 2.46.53 3.83.62.49.04 1.23.01 2.24-.07.77-.07 1.8-.12 3.08-.15.7-.02 1.12.3 1.27.97.06.3-.02.56-.24.76-.18.17-.43.28-.75.35-.55.12-1.05.19-1.5.2-1.59.08-2.9.05-3.96-.08l-1.96-.23a21.1 21.1 0 0 1-2.58-.5c-1.42-.3-2.9-.38-4.45-.23-.49.04-.95.15-1.38.32-.24.09-.3.26-.2.51Z" fill="#D73B15"/></svg>