<!-- by TradingView --><svg width="56" height="56" viewBox="0 0 56 56" xmlns="http://www.w3.org/2000/svg"><path fill="url(#a)" d="M0 0h56v56H0z"/><path d="M34.03 13.16c.1.83.14 1.74-.46 2.38a64.4 64.4 0 0 0-2.78-.65c-.75-.16-1.36-.32-1.83-.49-.82-.29-1.4-.52-1.76-.7a3.21 3.21 0 0 0-.87-.29c-.57-.1-.87-.14-.92-.13l-2.35.29a.55.55 0 0 0-.3.15.24.24 0 0 1-.12.06.94.94 0 0 1-.44-.04c.14-.16.13-.28-.02-.37-.06-.03-.1-.06-.12-.1-.02-.04-.01-.08.03-.1.13-.1.27-.16.42-.21a16.67 16.67 0 0 1 9.2-.56c.67.16 1.45.4 2.32.76Z" fill="#AEA596"/><path d="M34.03 13.16c2.43 1 4.48 2.48 6.16 4.46a.4.4 0 0 1 .1.2c0 .1.02.17.01.23l-.15 2.72c.16.19.39.25.7.18a.16.16 0 0 0 .12-.17 7.02 7.02 0 0 1 .15-1.86h.03l.2.25a15.95 15.95 0 0 1 2.35 11.98c-.83-.45-2.63-1.32-3.16-.16-.17.36-.25.68-.24.95a37.1 37.1 0 0 1-.27 5.05c-.04.36-.02.85.06 1.48l-1.14 1.2c.47-.56.7-1.14.71-1.76.01-.75.02-1.22.04-1.42.02-.25.1-.71.22-1.4.37-1.99.39-3.88-.52-5.73-.16-.32-.4-.88-.7-1.68a1.77 1.77 0 0 0-.36-.47l.24-1.2c.07-.88.24-1.78.5-2.7.03-.08.08-.58.16-1.5.05-.52.1-.99.18-1.4a7 7 0 0 0 .1-1.74.98.98 0 0 0-.08-.36c-.06-.11-.27-.45-.65-1.01-.23-.36-.46-.56-.68-.6a5.8 5.8 0 0 1-1.18-.26 5 5 0 0 0-.65-.2 7.88 7.88 0 0 1-2.7-.7c.59-.64.55-1.55.45-2.38Z" fill="#D6CEC6"/><path d="M33.57 15.54c.73.36 1.63.59 2.71.7a5 5 0 0 1 .65.2c.4.15.73.2 1.18.27.22.03.45.23.68.59.38.56.6.9.65 1.01.04.08.07.2.08.36a7 7 0 0 1-.1 1.74c-.08.41-.13.88-.18 1.4-.08.92-.13 1.42-.16 1.5-.26.92-.43 1.82-.5 2.7-1.37 1.72-3.24 1.4-4.99.55l-.08-.28c.12 0 .2-.01.27-.05.04-.03.04-.07 0-.1-.47-.53-.72-1.28-.99-2.05-.27-.8-.56-1.35-.89-2.23a8.8 8.8 0 0 0-.65-1.33c-.22-.38-.56-.69-.77-1.06-.16-.28-.43-.5-.65-.7a27.02 27.02 0 0 0-2.81-2l-.45-.3c-.17-.2-.47-.32-.56-.6l-.11-.34c-.22-.33-.6-.3-.74-.7a.17.17 0 0 1 .16-.23h1.53c.03 0 .04-.01.04-.05-.15-.5-.4-.82-.75-.92a4.7 4.7 0 0 0-2.73.06l-.58.15c-.22.05-.4.1-.58.17-.13.05-.13.1 0 .13.43.14.86.3 1.28.45.15.06.38.19.67.39.25.17.54.29.86.36a.08.08 0 0 1 .06.06.07.07 0 0 1-.03.08l-.08.04a.3.3 0 0 1-.18.04 4.08 4.08 0 0 1-2.02-.72c-.25-.18-.48-.3-.69-.33-.5-.1-.99 0-1.43.28a.17.17 0 0 1-.17 0 .15.15 0 0 1-.08-.15c0-.06.08-.14.2-.23.24-.14.49-.24.76-.3.12-.04.2-.1.26-.2a.1.1 0 0 1 .1-.06c.18.02.33-.02.44-.1.12.05.27.06.44.04.05-.01.1-.03.13-.06.1-.09.2-.14.29-.15l2.35-.3.92.14c.3.05.58.15.87.29.36.18.94.41 1.76.7a14 14 0 0 0 1.83.5c.94.19 1.86.4 2.78.64Z" fill="#CC1822"/><path d="M22.18 13.37c.15.1.16.21.02.37-.11.08-.26.12-.44.1a.1.1 0 0 0-.1.05.39.39 0 0 1-.26.2c-.27.07-.52.17-.75.3-.22.04-.41.11-.6.22a.15.15 0 0 0-.07.09.15.15 0 0 0 .01.12l.13.22c-.2.77-.3 1.26-.3 1.48.01.75-.05 1.5-.2 2.24 0 .06-.04.07-.1.06-.1-.14-.2-.18-.33-.15-.04.02-.07.05-.07.1.01.15.1.23.29.25l.64.35c.25.13.48.22.7.25.52.08 1.06.05 1.6-.1l.32.05c.06.01.06.03 0 .05-.2.07-.33.13-.4.19a.17.17 0 0 1-.1.04h-.5a.08.08 0 0 0-.08.04.08.08 0 0 0 0 .08l.2.37a.12.12 0 0 1 0 .12.12.12 0 0 1-.1.06h-.42a.18.18 0 0 1-.14-.06c-.1-.1-.17-.27-.25-.5a.2.2 0 0 0-.08-.1c-.23-.15-.6-.16-.78-.37a.14.14 0 0 0-.17-.03.13.13 0 0 0-.04.05.96.96 0 0 0-.14.58c.04.44.04.74.01.92 0 .06.01.13.05.22l.1.17c.1.16.08.3-.1.38-.03.02-.05.05-.03.1l.15.33-.3.17-.57.3a.16.16 0 0 0-.08.14.15.15 0 0 0 .1.13c.13.06.26.08.37.07.06 0 .07.03.06.07 0 .03-.02.05-.05.06a.8.8 0 0 1-.24.06c-.05 0-.08.03-.08.08 0 .27-.15.47-.46.59a.25.25 0 0 0-.1.07c-.06.08-.13.21-.2.4l-.08.06a.11.11 0 0 0-.08.09 1 1 0 0 1-.26.52.24.24 0 0 0-.07.14c0 .06.02.1.08.15a.1.1 0 0 0 .1 0l.43-.24h.02a.04.04 0 0 1 .04.01v.02l.01.05-.26.31c-.34.16-.55-.01-.7.49a.11.11 0 0 1-.05.07.12.12 0 0 1-.1 0L17.3 26c-.07-.03-.1-.08-.06-.15l.11-.2a.44.44 0 0 0 .1-.23c.04-.31.12-.61.26-.9a.4.4 0 0 1 .17-.15l.02-.03v-.03l-.01-.03-.07-.01c-.19 0-.32.12-.39.39-.12.47-.25.81-.24 1.05 0 .07-.02.14-.06.19-.03.04-.1.08-.23.1a.64.64 0 0 0-.47.4c-.09.03-.14.07-.17.12-.03.04-.02.08.02.12.12.09.22.09.32-.02.08.06.1.15.1.27-.16 0-.24.09-.23.28 0 .05.03.07.08.06.1 0 .18-.04.25-.1.15.01.23.07.24.17.01.06-.02.14-.08.22-.33.42-.35 1.35-.34 1.97 0 .21.09.43.2.6a.3.3 0 0 1-.26.46h-.24a.13.13 0 0 0-.11.05c-.1.13-.13.29-.07.47.02.05.02.1 0 .14l-.16.53c-.06.2-.1.38-.1.53a6 6 0 0 0 .1 1.16c-.16.16-.24.3-.24.42 0 .3.04.5.14.65.2.3.12.42-.24.35l-.17.02a.19.19 0 0 0-.12.06c-.22.28-.29.5-.71.48a.15.15 0 0 0-.12.05c-.08.08-.23.05-.47-.1a.12.12 0 0 1-.05-.04.11.11 0 0 1-.01-.05c0-.02 0-.04.02-.06a.09.09 0 0 1 .04-.03c.04-.01.07-.05.07-.12 0-.05-.02-.08-.07-.07-.1.01-.17 0-.21-.02a.24.24 0 0 1-.12-.14 2.64 2.64 0 0 1-.17-1.02c.02-.27-.1-.48-.14-.76-.09-.15-.24-.18-.44-.08-.23-.3-.43-.8-.59-1.5a14.35 14.35 0 0 1-.32-4.46.1.1 0 0 1 .13-.03c.07.03.15.03.24-.02.18-.08.17-.13-.02-.15-.05 0-.13 0-.23.02-.05 0-.08-.01-.1-.06a.9.9 0 0 1 .08-.6c0 .13.03.23.1.33.02.03.05.05.1.05h.45a.12.12 0 0 0 .1-.05.12.12 0 0 0 .02-.1 1.53 1.53 0 0 0-.24-.54c.13-.08.18-.16.15-.26-.02-.05-.06-.07-.1-.07-.09 0-.17.05-.26.12-.1.04-.2.14-.33.3l.16-.93c.01-.05.04-.08.1-.09a.2.2 0 0 1 .08 0h.09c.08-.02.12-.07.12-.15a.13.13 0 0 0-.07-.12l-.16-.09a.15.15 0 0 1-.07-.12c0-.1.06-.2.18-.29.06 0 .11-.02.16-.06a.18.18 0 0 0 .05-.1c.02-.11.1-.2.24-.28.1-.04.12-.11.1-.2l-.07-.18c-.01-.05-.05-.07-.1-.05a.63.63 0 0 0-.24.17c-.02-.29.06-.44.25-.45a.1.1 0 0 0 .07-.04.1.1 0 0 0 .03-.07c-.01-.18-.03-.42.03-.63.15-.5.3-.86.46-1.08.18-.26.2-.53.35-.79l.91-1.47a.91.91 0 0 1 .32-.23.1.1 0 0 0 .07-.1c-.01-.2.08-.36.26-.46a.2.2 0 0 0 .08-.09c.15-.3.35-.55.6-.73.04-.03.08-.04.12-.03l.1.02c.06.1.14.13.23.1.15-.05.18-.15.07-.29a.5.5 0 0 1-.22-.09c-.04-.03-.04-.06 0-.1l.97-.97a.18.18 0 0 1 .23-.02c.12.09.15.24.09.45-.1.32-.2.73-.26 1.21 0 .02 0 .03.02.03h.05c.02 0 .04-.01.05-.03.15-.46.13-.86.31-1.3.06-.13.11-.34.18-.64.07-.32.25-.49.53-.5a.16.16 0 0 0 .12-.05 3.74 3.74 0 0 1 1.77-1.18c.34-.11.63-.3.93-.45.25-.12.47-.1.74-.1Z" fill="#121003"/><path d="m26.57 16.47-.54-.3a.14.14 0 0 0-.12 0c-.25.1-.5.12-.75.07l-1.6-.34a1.59 1.59 0 0 1-.55-.25 4.96 4.96 0 0 0-1.32-.96l-.01.01-.13.45c0 .02 0 .04.03.05.4.19.63.5.7.93a6.4 6.4 0 0 1-1.48-.7c-.18-.12-.3-.27-.41-.45a.13.13 0 0 0-.12-.06c-.1.01-.14.05-.15.12l-.13-.22a.16.16 0 0 1-.01-.12.16.16 0 0 1 .07-.1c.19-.1.38-.17.6-.2-.13.1-.2.17-.2.24a.15.15 0 0 0 .07.14.17.17 0 0 0 .17 0 1.9 1.9 0 0 1 1.43-.28c.2.04.44.15.69.33.54.4 1.21.64 2.02.72.06 0 .12 0 .18-.04l.08-.04a.07.07 0 0 0 .03-.08c0-.01 0-.03-.02-.04a.08.08 0 0 0-.04-.02c-.32-.07-.61-.2-.86-.36-.3-.2-.52-.33-.67-.39-.42-.16-.85-.3-1.28-.45-.13-.04-.13-.08 0-.13.17-.06.36-.12.58-.17l.58-.15a4.7 4.7 0 0 1 2.73-.06c.35.1.6.41.75.92 0 .04 0 .05-.04.05h-1.53a.17.17 0 0 0-.16.23c.14.4.52.37.74.7l.11.34c.09.28.39.4.56.6Z" fill="#970306"/><path d="m26.57 16.47.45.3.56.71a.1.1 0 0 1-.08.16l-1.11-.02c-.77-.13-1.29-.21-1.86-.47l-2.24-1.02a1.2 1.2 0 0 0-.71-.93c-.03-.01-.03-.03-.03-.05l.13-.45a.03.03 0 0 1 .02-.02.03.03 0 0 1 .03 0c.46.24.89.57 1.28.97a1.59 1.59 0 0 0 .55.24l1.6.35c.25.05.5.03.75-.07a.14.14 0 0 1 .12 0l.54.3Z" fill="#570001"/><path d="m22.29 16.13 2.24 1.02c.1.29.3.49.57.59.67.24 1.1.4 1.29.49l.8.6c.05.03.04.05 0 .06l-1.23.34-3.61.28c-.54.16-1.08.2-1.6.1-.22-.02-.45-.1-.7-.24l-.64-.35c.03 0 .06 0 .09-.02.02-.01.03-.04.03-.07l-.01-.11c.06.02.1 0 .1-.06.14-.74.21-1.49.2-2.24 0-.22.1-.7.3-1.48 0-.07.06-.11.15-.12a.13.13 0 0 1 .12.06c.12.18.23.33.41.45.47.3.96.53 1.49.7Z" fill="#D0D3E6"/><path d="M19.65 15.56c.1.05.2.04.24-.04.04-.07 0-.17-.1-.22-.1-.05-.2-.04-.25.03-.04.07.01.18.1.23Z" fill="#E8DEA4"/><path d="M18.94 15.82v.14l-.03.03a.08.08 0 0 1-.06.02l-.04-.02a.13.13 0 0 1-.05-.07c0-.08.03-.13.09-.14.04-.01.07 0 .1.04Z" fill="#AEA596"/><path d="M19.32 17.2c-.06-.15-.17-.18-.33-.11.02-.19-.06-.23-.25-.12a.14.14 0 0 0-.07.13v.13c0 .06-.03.09-.09.1a.24.24 0 0 1-.24-.14c-.18-.33-.2-.66-.04-1a.13.13 0 0 1 .1-.07c.16-.02.28-.09.36-.2.01.03.03.06.05.07a.08.08 0 0 0 .07.01.08.08 0 0 0 .05-.04.3.3 0 0 0 .01-.14c.05 0 .07.06.07.15 0 .04.01.07.05.1.44.2.37.69.26 1.12Z" fill="#856B2C"/><path d="M18.4 16.47a.07.07 0 0 1-.03-.1l.01-.02a.31.31 0 0 1 .31-.15.3.3 0 0 1 .12.04l.01.01a.3.3 0 0 1 .15.31c0 .04-.02.08-.04.12l-.01.02a.07.07 0 0 1-.1.02l-.43-.25ZM17.07 16.78c.08.05.17.03.2-.04.04-.06 0-.15-.08-.19-.09-.04-.18-.02-.21.04-.03.07 0 .15.09.2Z" fill="#E8DEA4"/><path d="M33.51 26.28a1.94 1.94 0 0 1-.3-.37c-.6-1-1.15-2.01-1.66-3.03a.1.1 0 0 0 .1-.03.08.08 0 0 0 .02-.07l-.37-1.07a.12.12 0 0 0-.1-.08h-.14c-.05 0-.07-.03-.05-.07.04-.1 0-.18-.1-.26a.17.17 0 0 1-.07-.09l-.12-.42-1.14-1.24h-.05l-.02.05c.62.53 1 1.18 1.18 1.97l-.28-.82a.03.03 0 0 0-.04-.01l-.04.01-.01.02.2 1.09a.2.2 0 0 1-.03.05.05.05 0 0 1-.06.02l-.04-.02-.03-.68.04.43c.04.23.05.23.05 0-.01-.6-.3-1.08-.8-1.55-.58-.57-1.04-1.16-1.74-1.52-.54-.27-1.01-.65-1.52-.97l1.11.02a.1.1 0 0 0 .1-.11.1.1 0 0 0-.02-.05l-.56-.71a27 27 0 0 1 2.8 2c.23.18.5.41.66.69.21.37.55.68.77 1.06.28.47.5.92.65 1.33.33.88.62 1.43.9 2.23.26.77.5 1.52.98 2.04.04.04.04.08 0 .1-.06.05-.15.07-.27.06Z" fill="#970306"/><path d="M16.67 17.11c.1.14.08.24-.07.3-.1.02-.17 0-.23-.11-.01-.17.09-.24.3-.19Z" fill="#E8DEA4"/><path d="M24.53 17.15c.57.26 1.1.34 1.86.47.51.32.98.7 1.52.97.7.36 1.16.95 1.75 1.52.49.47.78.95.79 1.55 0 .23-.01.23-.05 0l-.04-.43a.18.18 0 0 0-.06-.06c-.02-.02-.03-.01-.04.02v.04l-.54-.64c-.46-.51-.95-1-1.46-1.48-.35-.33-.7-.59-1.04-.77-.42-.22-.84-.44-1.25-.68h-.03c-.05 0-.04.01.01.04.45.24.87.48 1.28.73.1.06.09.08-.02.05a5.65 5.65 0 0 1-.75-.24 1.1 1.1 0 0 0-.73-.52c-.16-.03-.16 0-.03.07l.76.45-.07-.01-1.29-.5a.96.96 0 0 1-.57-.58Z" fill="#AAA2A7"/><path d="M18.85 17.77c-.04.09-.03.18.03.21.07.04.16 0 .2-.1.04-.08.03-.18-.03-.21-.07-.03-.16.01-.2.1Z" fill="#937D72"/><path d="M29.72 20.59c.3.43.46.86.5 1.28.02.23 0 .23-.04 0a3.34 3.34 0 0 0-.93-1.68c-.14-.14-.16-.13-.06.05l1 1.78c.07.11.1.1.1-.03l-.04-.76.01-.04c0-.03.02-.04.04-.02.02 0 .04.03.06.06l.03.68a.17.17 0 0 0-.06.14c0 .05.02.09.05.12l.09.07c.47.35.74.62.83.8.18.36.38.7.6 1 .21.9.22 1.77.02 2.62 0 .04-.04.07-.08.07-.78.07-1.24-.27-1.36-1.02l-.36-2.04-.07-.08c-.52-.9-1.34-1.1-2.32-.82-.43.13-.83.64-1.06 1.01-.37.97-.54 1.78-1.54 2.27a.28.28 0 0 1-.36-.1.87.87 0 0 0-.8-.47c-.63 0-1.17-.1-1.6-.3-.25-.1-.32-.04-.21.2.13.3.05.5-.13.82-.08.14-.24.5-.49 1.08-.24.57-.5 1.13-1.17 1.11a.24.24 0 0 0-.12.03l-1.55.9c-.03.01-.05 0-.06-.03-.07-.21-.1-.37-.09-.47.04-.28.1-.85.18-1.72.04-.49-.1-1.15.02-1.64.05-.26.24-.77.54-1.54.08-.19.3-.5.7-.95.21-.25.49-.53.82-.83.88-.8 1.75-1.62 2.62-2.44l2.54-.36a.05.05 0 0 0 .04-.03.05.05 0 0 0-.02-.05l-.03-.03 1.22-.34c.05-.01.06-.03.02-.06l-.81-.6c.03.01.05.02.07.01.27.1.52.19.75.24.1.03.12.01.02-.05-.4-.25-.83-.5-1.28-.73-.05-.03-.06-.04 0-.04h.02c.41.24.83.46 1.25.68.34.18.69.44 1.04.77.51.47 1 .97 1.46 1.48Z" fill="#D7D8D6"/><path d="m26.46 18.24-.76-.45c-.13-.08-.12-.1.03-.07.31.07.56.24.73.52Z" fill="#D6CEC6"/><path d="M17.31 18c-.04.06-.08.08-.15.04-.15-.1-.22-.18-.2-.22.03-.05.13-.04.3.04.07.03.08.07.05.14Z" fill="#E8DEA4"/><path d="M18.16 18.22c.08.04.16.04.2-.01.02-.05-.02-.13-.1-.18-.07-.04-.16-.03-.19.02s.01.13.09.17Z" fill="#AEA596"/><path d="M17.68 18.26h-.05a.11.11 0 0 0-.11.1l-.02.34c0 .06.05.11.11.12h.04c.07 0 .12-.05.12-.1l.02-.35a.11.11 0 0 0-.11-.11Z" fill="#BBAFA2"/><path d="M19.52 18.82c0 .04.02.07.01.11 0 .03 0 .06-.03.07a.11.11 0 0 1-.1.02c-.17-.02-.27-.1-.28-.25 0-.05.03-.08.07-.1.12-.03.23.01.33.15Z" fill="#D7D8D6"/><path d="M15.37 19.43c.07.05.16.05.21 0 .05-.07.03-.16-.03-.22-.07-.05-.17-.05-.21.01-.05.06-.04.15.03.2Z" fill="#E8DEA4"/><path d="M18.92 19.42c.08.04.17.04.2-.02.04-.05 0-.13-.07-.18-.08-.05-.17-.04-.2.01-.04.06 0 .14.07.19Z" fill="#D7D8D6"/><path d="m25.96 19.23.03.03a.05.05 0 0 1 .02.05.05.05 0 0 1-.04.03l-2.54.36c-.77.29-1.39.75-1.85 1.4a.34.34 0 0 1-.48.07 4.59 4.59 0 0 1-1-1.12c-.16-.23-.24-.21-.26.07a3.98 3.98 0 0 0 .29 1.84c0 .03 0 .05-.02.07-.04.1-.13.15-.26.18l-.15-.33c-.02-.05 0-.08.04-.1.17-.09.2-.22.09-.38l-.1-.17a.37.37 0 0 1-.05-.22c.03-.18.03-.48 0-.92a.96.96 0 0 1 .13-.58.13.13 0 0 1 .21-.02c.19.21.55.22.78.36a.2.2 0 0 1 .08.11c.08.23.16.4.25.5.04.04.08.06.14.06h.42a.12.12 0 0 0 .1-.18l-.2-.37a.09.09 0 0 1 .07-.12h.5c.05 0 .08-.02.11-.04.07-.06.2-.12.4-.2.06-.01.06-.03 0-.04l-.32-.06 3.6-.28ZM14.83 19.5h-.06a.06.06 0 0 1-.05-.06l.01-.03c.05-.07.12-.08.23-.03a.05.05 0 0 1 .03.04v.02l-.02.02c-.04.03-.09.03-.14.04Z" fill="#8C847C"/><path d="m30.72 20.79.2.66c0 .05 0 .09-.02.13a.3.3 0 0 1-.19.13l-.02-.14a3.5 3.5 0 0 0-1.18-1.97l.02-.04c.01-.02.03-.02.05 0l1.14 1.23Z" fill="#6E4B47"/><path d="M23.43 19.7a272 272 0 0 1-2.62 2.44c-.33.3-.6.58-.83.83a4.4 4.4 0 0 0-.69.95c-.3.77-.49 1.28-.54 1.54-.12.5.02 1.15-.02 1.64-.08.87-.14 1.44-.18 1.72-.01.1.02.26.09.47.01.04.03.04.06.03l1.55-.9a.24.24 0 0 1 .12-.03c.66.02.93-.54 1.17-1.11.25-.58.41-.94.5-1.08.17-.32.25-.51.12-.82-.11-.24-.04-.3.2-.2.44.2.98.3 1.6.3.37 0 .63.15.81.46a.27.27 0 0 0 .36.11c1-.5 1.17-1.3 1.54-2.27l-.02.15c-.05.04-.07.1-.07.2l-.2 1.47c0 .05 0 .1.03.14l.08.14a.07.07 0 0 1 0 .06.07.07 0 0 1-.04.04c-.49.09-.97.24-1.46.46-.07.03-.2.05-.42.05-.05 0-.08-.02-.08-.08v-.33c0-.05-.02-.07-.06-.08-.9-.13-1.87.42-1.79 1.44 0 .05-.02.08-.06.09-.32.09-.42.25-.34.6.15.62.17.74-.08 1.5-.12.35.12.52.38.7.04.03.04.06 0 .08l-.78.45a.08.08 0 0 0-.02.1l.02.05a.04.04 0 0 0 .03.02.04.04 0 0 0 .03 0l.99-.57c.03-.02.06-.02.08 0 .3.32.49.57.55.76.41 1.1.89 2.25 2.23 2.29.45.01.71.07 1.08.19a.7.7 0 0 0 .43 0c.47-.16.94-.3 1.41-.44.76-.2.95-.5 1.52-1.11.08-.08.21-.12.4-.1.1 0 .21.06.33.18.09.09.2.19.35.3a.1.1 0 0 0 .12 0c.4-.2.78-.15 1.13.17.24.2.4.37.47.48l1.17 1.7a2.77 2.77 0 0 0 .68.67h.02a.06.06 0 0 0 .04-.02l.47-.71c-.09.4-.1.68-.02.84.14.28.13.55 0 .8-.09.15-.08.26.06.37-.1.06-.2.14-.27.24-.03.04-.07.05-.11.03a.24.24 0 0 1-.07-.04c-.44-.36-1.1-.28-1.5.05a3.24 3.24 0 0 0-1.13 3.35l-1.75 1.1.03-1.1a.1.1 0 0 1 .07-.1c.47-.18.8-.52 1-1.03.26-.71.38-1.44.34-2.2-.02-.23-.14-.35-.39-.36h-.02c-.24 0-.37.12-.4.37-.04.56-.18 2.06-.62 2.33-.84.52-1.1-.74-1.14-1.32l-.03-.98a.4.4 0 0 0-.12-.27.45.45 0 0 0-.3-.13c-.24 0-.38.1-.4.35-.1.97.02 2.1.63 2.87.13.16.34.25.48.35.03.03.05.06.05.11v.74c0 .4.15.64.57.59a33.84 33.84 0 0 0-4.74 2.01 15.85 15.85 0 0 1-9.3-4.99c-.03-.78 0-1.41.07-1.9.14-.93.23-1.65.25-2.16 0-.22-.12-.58-.39-1.09-.02-.04 0-.07.03-.1.37-.24.57-.62.6-1.14a1.8 1.8 0 0 0-.43-1.39c-.15-.05-.2-.13-.15-.25a.17.17 0 0 1 .14-.1c.03 0 .06.01.08.03.03.01.04.04.05.06.03.08.1.09.21.02a.6.6 0 0 0 .19-.2c.18-.3.35-.54.5-.7.09-.12.12-.24.08-.36a.99.99 0 0 1-.05-.45.2.2 0 0 1 .05-.13c.2-.2.36-.47.48-.78a.58.58 0 0 0 .03-.24.2.2 0 0 1 .04-.13.72.72 0 0 0 .14-.38c0-.05-.02-.07-.07-.07h-.09a.1.1 0 0 1-.06-.02.09.09 0 0 1-.03-.06c0-.04 0-.08.02-.11a3.75 3.75 0 0 1 .35-.5v-.06a.11.11 0 0 0-.04-.05.1.1 0 0 0-.06-.02c-.02 0-.04-.04-.06-.1 0-.05 0-.09.04-.13l.3-.33c.13-.15.1-.2-.09-.14a.73.73 0 0 0-.26.14c-.12.1-.14.09-.07-.05l.22-.45.26-.3c.1-.05.14-.1.15-.16.01-.05-.01-.08-.07-.08h-.04c-.06 0-.1-.03-.1-.09 0-.12.04-.23.1-.32a22.4 22.4 0 0 1 1.1-1.4v-.07a1.8 1.8 0 0 1-.08-.66l.3-.17c.13-.03.22-.09.26-.18a.16.16 0 0 0 0-.13 3.98 3.98 0 0 1-.27-1.78c.02-.28.1-.3.26-.07.31.47.65.85 1 1.12a.34.34 0 0 0 .48-.08 3.83 3.83 0 0 1 1.85-1.39Z" fill="#D0CCC4"/><path d="M17.1 20c.07.07.17.1.22.04.05-.05.03-.15-.04-.22-.08-.07-.18-.1-.23-.04-.04.05-.02.14.05.22Z" fill="#E8DEA4"/><path d="M16.7 20.21a.47.47 0 0 1-.19-.06.06.06 0 0 1-.03-.07.06.06 0 0 1 .06-.05c.09 0 .15.04.2.12a.04.04 0 0 1 0 .05.04.04 0 0 1-.05.01Z" fill="#937D72"/><path d="m29.72 20.59.53.64.04.76c0 .13-.03.14-.1.03l-1-1.78c-.1-.17-.08-.2.06-.05.5.52.81 1.08.93 1.68.05.23.06.23.04 0-.04-.42-.2-.85-.5-1.28Z" fill="#D6CEC6"/><path d="M19.07 20.76a.02.02 0 0 1 0 .01v.01a.1.1 0 0 1-.07.04c-.03 0-.06 0-.1-.02a.81.81 0 0 1-.23-.15l-.04-.03a.69.69 0 0 1-.17-.22c-.03-.07-.03-.13 0-.16l.01-.01h.02l.58.53Z" fill="#5D523A"/><path d="M17.42 20.95c.09-.06.14-.15.1-.2-.03-.06-.13-.06-.22 0-.1.06-.14.15-.1.2.02.05.13.05.22 0Z" fill="#E8DEA4"/><path d="m30.69 21.57.02.15-.19.14-.2-1.1.05-.02a.03.03 0 0 1 .04.01l.28.82Z" fill="#696868"/><path d="M14.66 21.06c.07.07.17.08.23.03.05-.06.03-.16-.04-.23-.07-.06-.17-.07-.22-.02-.06.06-.04.15.03.22Z" fill="#E8DEA4"/><path d="M14.15 21.22c.1.05.19.06.21.01.03-.04-.03-.12-.12-.17-.1-.05-.2-.05-.21 0-.03.04.03.11.12.16Z" fill="#856B2C"/><path d="M17.58 21.62c-.38.11-.65 0-.8-.35a.1.1 0 0 1 .02-.12c.05-.05.1-.08.16-.1.04 0 .08.02.11.05.11.14.27.23.47.29.05 0 .08.04.1.08.01.09 0 .14-.06.15Z" fill="#CC1822"/><path d="M16.78 21.81c.1.12.2.1.35.1a.09.09 0 0 1 .08.06.09.09 0 0 1-.02.1c-.08.08-.17.1-.3.06-.24-.09-.37-.22-.38-.4-.02-.2.03-.21.15-.05l.12.13Z" fill="#970306"/><path d="M15 22c.09-.07.12-.16.07-.22-.04-.05-.14-.05-.22.01-.08.07-.1.16-.06.22.04.05.14.04.22-.02Z" fill="#AEA596"/><path d="M24.63 22.4c.22-.11.48-.47.81-.55.33-.08.62 0 .87.24a.24.24 0 0 1 .04.28c-.08.15-.28.32-.41.44a.95.95 0 0 1-1.06.18l-.63-.24c-.14-.05-.15-.1-.02-.15l.4-.2Z" fill="#121003"/><path d="M14.23 22.13c.23-.14.4-.12.54.08.03.03.07.05.11.06.1 0 .18.05.25.14a.2.2 0 0 1-.16.33.55.55 0 0 1-.26-.07 3.54 3.54 0 0 0-.63-.28.15.15 0 0 1-.02-.2c.07-.08.13-.1.17-.06Z" fill="#970306"/><path d="M31.55 22.88c.5 1.02 1.06 2.03 1.65 3.03.06.1.16.22.31.37l.08.28a.9.9 0 0 0 .05.64c.26.64.46 1.33.58 2.06.08.45.28.89.35 1.37-.55-1.04-1.17-2.34-2.53-1.75-.49.21-.86.74-1.26 1.13l-.71.5-.67.16.95-.58v-.04h-.04l-.66.3 1.06-.78c.31-.01.43-.53.56-.67.2-.24.41-.47.63-.7.1-.1.13-.25.12-.4a.1.1 0 0 0-.15-.08c-.37.22-.76.33-1.15.33a.11.11 0 0 0-.1.07c-.14.31-.23.56-.28.76a.9.9 0 0 1-.32.5c-.46.36-1 .5-1.6.42-.37-.03-1-.16-1.2-.5-.36-.62-.6-.99-1.37-1.06-.32-.03-.6-.12-.85-.27-.18-.1-.23-.06-.17.14l.16.29c.28.43.7.94 1.23 1.53.03.04.07.06.11.06l1.1.14.42.4c.08.08.06.11-.04.09l-.83-.18c-1.09-.25-1.61-1.04-2.25-1.99-.23-.36-.24-.68-.03-.97.53.87 1.48.73 2.15.12.82-.76.68-1.82.12-2.73.2.23.42.55.75.5l.4.07c.06 0 .09.04.1.08.06.14.15.22.27.24a.11.11 0 0 0 .12-.05l.03-.05c.02-.03.01-.06-.01-.09l-.04-.04a.11.11 0 0 1 .05-.2c.11-.02.25-.03.4-.02.43.02.88-.6 1.05-.93-.35.98-.46 2.73.77 3.16.93.32 1.36-.38 1.46-1.2.1-.8-.04-1.56-.42-2.3a7.17 7.17 0 0 1-.6-1 3.15 3.15 0 0 0-.83-.8.86.86 0 0 0 .32-.15c.05-.03.1-.04.12-.04.06 0 .1.04.12.1.01.03 0 .06-.01.1a.28.28 0 0 1-.07.08.13.13 0 0 0-.05.06v.08c0 .03.01.05.03.08a.2.2 0 0 0 .07.05l.55.28Z" fill="#6E4B47"/><path d="M25.81 22.54a.1.1 0 1 0 0-.2.1.1 0 0 0 0 .2Z" fill="#BEB8B1"/><path d="M19.55 22.38c-.02.23 0 .45.07.66a.14.14 0 0 1-.02.13c-.35.4-.7.85-1.06 1.34-.07.09-.1.2-.1.32 0 .06.03.1.09.1h.04c.06 0 .08.02.07.07 0 .06-.06.11-.15.15v-.05a.04.04 0 0 0-.03-.03.04.04 0 0 0-.04 0l-.43.25a.1.1 0 0 1-.1 0c-.06-.05-.08-.1-.08-.16.01-.05.03-.1.07-.14a1 1 0 0 0 .26-.52c.01-.04.04-.07.08-.1.04 0 .07-.03.08-.05.07-.19.14-.32.2-.4a.25.25 0 0 1 .1-.07c.31-.12.46-.32.46-.59 0-.05.03-.08.08-.08a.8.8 0 0 0 .24-.06c.03-.01.04-.03.05-.05.01-.05 0-.08-.06-.08a.93.93 0 0 1-.38-.07.15.15 0 0 1-.07-.22.16.16 0 0 1 .06-.06l.57-.3Z" fill="#937D72"/><path d="M30.05 23.59c0 .13-.01.2-.06.25a.1.1 0 0 1-.12 0c-.2-.11-.34-.05-.45.19a.13.13 0 0 0 .09.17c.02.01.05.01.07 0l.33-.11a.1.1 0 0 1 .11.05c.04.07.06.15.07.24-.17.34-.62.95-1.04.93-.16-.01-.3 0-.41.03a.11.11 0 0 0-.05.19l.04.04c.02.03.03.06 0 .1l-.02.04a.11.11 0 0 1-.12.05c-.12-.02-.21-.1-.26-.24a.13.13 0 0 0-.1-.08 2.76 2.76 0 0 0-.41-.07c-.33.05-.54-.27-.75-.5-.27-.13-.37-.45-.32-.94l.02-.15c.23-.37.63-.88 1.06-1 .98-.3 1.8-.1 2.32.81Z" fill="#121003"/><path d="m28.55 23.23-.1-.19a.08.08 0 0 1 .03-.1l.04-.02c.27 0 .5.04.68.14.18.1.17.19-.02.26-.12.05-.28.14-.47.28a.1.1 0 0 1-.1 0 .1.1 0 0 1-.06-.1v-.27Z" fill="#6E4B47"/><path d="M14.53 23.15c.15 0 .26-.04.26-.09 0-.05-.11-.08-.26-.08-.15 0-.27.03-.27.08s.12.09.27.09Z" fill="#CC1822"/><path d="M27.46 23.34a.1.1 0 0 1-.05-.1v-.03l.01-.01a.41.41 0 0 1 .24-.2.4.4 0 0 1 .3.02l.03.01a.39.39 0 0 1 .2.24.4.4 0 0 1-.03.3v.02a.1.1 0 0 1-.14.04l-.56-.29Z" fill="#6E4B47"/><path d="M17.56 23.33c.06.06.14.06.19.02.04-.05.03-.14-.03-.2-.05-.05-.14-.06-.19 0-.04.04-.03.12.03.18Z" fill="#E8DEA4"/><path d="M12.58 24.15c-.03-.28.01-.5.14-.7a.64.64 0 0 1 .24-.17c.05-.02.09 0 .1.05l.06.17c.03.1 0 .17-.09.21-.14.07-.22.17-.24.28 0 .04-.02.08-.05.1a.21.21 0 0 1-.16.06Z" fill="#970306"/><path d="M16.96 23.87c.1-.03.18-.13.15-.21-.02-.1-.13-.14-.24-.1-.1.02-.17.12-.15.2.02.09.13.13.24.1ZM16.17 23.9c.1.03.2 0 .22-.08.03-.07-.03-.16-.13-.19s-.2 0-.22.08c-.03.08.04.16.13.2Z" fill="#E8DEA4"/><path d="M31.9 24.04c.38.74.52 1.5.42 2.3-.1.82-.53 1.52-1.46 1.2-1.23-.43-1.12-2.18-.77-3.16l.03-.71.36 2.04c.12.75.58 1.1 1.36 1.02.04 0 .07-.03.08-.07.2-.85.2-1.72-.02-2.62Z" fill="#AAA2A7"/><path d="M26.65 23.93c-.05.5.05.8.32.94.56.91.7 1.97-.12 2.73-.67.61-1.62.75-2.15-.12a.36.36 0 0 1-.07-.2c.62-.05 1.9-.41 2.07-1.13.13-.55-.03-1.43-.12-2.03 0-.08.02-.15.07-.19Z" fill="#8C847C"/><path d="M26.58 24.12c.09.6.25 1.48.12 2.03-.17.72-1.45 1.08-2.07 1.13l-.45-.61a.2.2 0 0 0-.26-.06.2.2 0 0 0-.07.07l-.64 1.12a.13.13 0 0 1-.1.06l-.7.07c-.05 0-.05.02 0 .05.26.14.42.23.5.3l1.27 1c.48.43.63.79.88 1.32a3.17 3.17 0 0 0 3.04 1.92c.24 0 .48-.08.75-.22.24-.13.37-.55.64-.67.58-.26.95-.4 1.44-.71.3-.2.6-.36.87-.47a.31.31 0 0 1 .4.16c.25.54.51.85.99 1.35.3.31.68.77 1.16 1.36.23.28.57.52 1.01.73.02.23.09.37.21.44.04.02.09.02.13 0a.62.62 0 0 1 .47.04l-.88.29-.47.7-.02.02a.06.06 0 0 1-.04.01h-.02c-.26-.19-.48-.41-.66-.67l-1.17-1.7c-.07-.11-.23-.27-.47-.48-.35-.32-.73-.37-1.13-.17a.1.1 0 0 1-.12 0c-.15-.11-.26-.21-.35-.3-.12-.12-.23-.18-.33-.19-.19 0-.32.03-.4.11-.57.6-.76.9-1.52 1.11-.47.13-.94.28-1.41.43a.7.7 0 0 1-.43 0 3.49 3.49 0 0 0-1.08-.18c-1.34-.04-1.82-1.2-2.23-2.3a2.62 2.62 0 0 0-.55-.74c-.02-.03-.05-.03-.08-.01l-.99.57a.04.04 0 0 1-.03 0h-.02V31l-.03-.05a.08.08 0 0 1 .02-.1l.78-.45c.04-.02.04-.05 0-.08-.26-.18-.5-.35-.38-.7.25-.76.23-.88.08-1.5-.08-.35.02-.51.34-.6.04-.01.06-.04.06-.09-.08-1.02.9-1.57 1.79-1.44.04.01.06.03.06.08v.33c0 .06.03.08.08.08.21 0 .35-.02.42-.05a6.14 6.14 0 0 1 1.48-.47.07.07 0 0 0 .03-.06v-.03l-.1-.14a.21.21 0 0 1-.02-.14l.2-1.48Z" fill="#BBAFA2"/><path d="M14.94 24.43c-.12 0-.18-.04-.18-.13.08-.07.16-.1.23-.11.05 0 .09.02.1.06.02.08-.03.14-.15.18Z" fill="#AEA596"/><path d="m18.23 25.46-.22.45c-.07.14-.05.15.07.05.07-.06.16-.1.26-.14.2-.06.22-.01.09.14l-.3.33a.13.13 0 0 0-.04.13c.02.06.04.1.06.1a.1.1 0 0 1 .06.02l.03.05v.07c0 .02 0 .04-.02.06-.15.18-.26.32-.32.43a.16.16 0 0 0-.02.11l.03.06a.1.1 0 0 0 .06.02h.1c.04 0 .06.02.06.07a.73.73 0 0 1-.14.38.2.2 0 0 0-.04.13c0 .1 0 .18-.03.24-.12.31-.28.57-.48.78a.2.2 0 0 0-.05.13.99.99 0 0 0 .05.45c.04.12.01.24-.09.35-.14.17-.3.41-.49.71a.6.6 0 0 1-.19.2c-.1.07-.18.06-.2-.02a.13.13 0 0 0-.06-.06.14.14 0 0 0-.08-.02.17.17 0 0 0-.14.1c-.06.1 0 .2.15.24.19.43.26.88.2 1.37-.04.39-.22.73-.54 1.04h-.03a6 6 0 0 1-.1-1.17c.01-.15.05-.32.11-.53l.16-.53a.22.22 0 0 0 0-.14.49.49 0 0 1 .07-.47.13.13 0 0 1 .1-.05h.25a.3.3 0 0 0 .26-.47c-.11-.16-.2-.38-.2-.6 0-.6 0-1.54.34-1.96.06-.08.1-.16.08-.22-.01-.1-.1-.16-.24-.17.04-.06.05-.1.03-.14-.02-.04-.06-.07-.14-.1.02-.12-.01-.2-.1-.27.01-.05 0-.1 0-.14a.1.1 0 0 0-.07-.06.23.23 0 0 0-.1-.01c.1-.23.26-.36.48-.4.12-.03.2-.07.23-.11a.29.29 0 0 0 .06-.19c-.01-.24.12-.58.24-1.05.07-.27.2-.4.4-.4l.06.02.02.03v.03l-.03.03a.4.4 0 0 0-.17.16c-.14.28-.22.58-.26.9-.01.07-.04.14-.1.21l-.11.21c-.03.07-.01.12.06.15l.08.03a.12.12 0 0 0 .14-.03.11.11 0 0 0 .02-.04c.14-.5.35-.33.69-.49Z" fill="#5D523A"/><path d="M14.76 24.3c0 .09.06.13.18.13l.22.54c.01.05 0 .1-.03.13a.41.41 0 0 1-.16.1.1.1 0 0 0-.07.08c-.07.6-.79.4-.85-.08-.03-.2-.03-.42 0-.65 0-.05.03-.08.08-.08.23 0 .44-.05.63-.17Z" fill="#570001"/><path d="M29.6 24.61v.01a.02.02 0 0 1 .01.01v.02l-.04.07a.22.22 0 0 1-.07.05.32.32 0 0 1-.1.03.4.4 0 0 1-.12 0l-.04-.01a.4.4 0 0 1-.11-.04.32.32 0 0 1-.09-.06.22.22 0 0 1-.05-.07.16.16 0 0 1 0-.08v-.02l.01-.01.6.1Z" fill="#5D523A"/><path d="M14.68 24.69c.02.08.06.16.1.23a.1.1 0 0 1-.03.14.1.1 0 0 1-.05 0c-.17-.02-.3-.13-.36-.32a.13.13 0 0 1 .11-.17h.07c.04 0 .07 0 .1.03.03.02.05.05.06.09Z" fill="#CC1822"/><path d="M12.7 25.85c-.18-.04-.25-.12-.22-.2.1-.08.17-.12.25-.13.05 0 .09.02.1.07.04.1 0 .18-.14.26Z" fill="#937D72"/><path d="M12.48 25.64c-.03.1.04.17.21.21.13.2.2.37.24.55a.12.12 0 0 1-.03.1.12.12 0 0 1-.09.04h-.45a.12.12 0 0 1-.1-.05.53.53 0 0 1-.1-.32c.02-.11.02-.2 0-.24a.98.98 0 0 1 .32-.29Z" fill="#970306"/><path d="m38.58 26.02-.24 1.2c-.58 2.42-1.23 4.84-1.95 7.22a.14.14 0 0 1-.09.1.17.17 0 0 1-.13-.01.62.62 0 0 0-.47-.03.17.17 0 0 1-.13-.01c-.12-.07-.2-.21-.21-.44-.1-.91-.18-1.5-.27-1.75-.19-.56-.36-1.12-.52-1.67-.07-.48-.27-.92-.35-1.37a9.57 9.57 0 0 0-.58-2.06.9.9 0 0 1-.05-.64c1.75.85 3.62 1.17 4.99-.54Z" fill="#B40B15"/><path d="M16.43 26.4h.1a.1.1 0 0 1 .05.07c.02.04.02.09.02.14-.1.1-.2.1-.32.02-.04-.04-.05-.08-.02-.12.03-.05.08-.1.17-.11Z" fill="#E8DEA4"/><path d="M24.63 27.28c0 .08.03.15.07.2-.21.3-.2.61.03.97.64.95 1.16 1.74 2.25 1.99.8.24 1.6.31 2.42.23l.67-.16c.28-.1.51-.27.71-.5.4-.39.77-.92 1.26-1.13 1.36-.6 1.98.71 2.53 1.75.16.55.34 1.11.52 1.67.09.25.18.84.27 1.75-.44-.2-.78-.45-1-.73-.49-.6-.88-1.05-1.17-1.36-.48-.5-.74-.8-1-1.35a.3.3 0 0 0-.39-.16c-.28.11-.57.27-.87.47-.49.32-.86.45-1.44.71-.27.12-.4.54-.64.67-.27.15-.51.22-.75.22a3.17 3.17 0 0 1-3.04-1.92c-.25-.53-.4-.9-.88-1.32l-1.27-1a3.9 3.9 0 0 0-.5-.3c-.05-.03-.05-.04 0-.05l.7-.07a.12.12 0 0 0 .1-.06l.64-1.12a.2.2 0 0 1 .16-.1.2.2 0 0 1 .17.09l.45.6Z" fill="#937D72"/><path d="M16.7 26.88c.07.03.11.06.13.1.02.03 0 .08-.03.14a.49.49 0 0 1-.25.1c-.05.01-.08-.01-.08-.06 0-.2.07-.29.22-.28Z" fill="#E8DEA4"/><path d="M28.28 27.99c-.5-.12-.8.04-1.18.05-.07 0-.1-.03-.1-.11 0-.06.03-.1.07-.15.4-.47 1.15-1.12 1.83-.79.56.27.91.46 1.08.58.32.24.28.36-.12.38-.38 0-.73.03-1.05.07-.2.02-.37 0-.53-.03Z" fill="#121003"/><path d="M15.88 27.16c.09-.03.14-.1.12-.17-.03-.07-.11-.1-.2-.07-.09.03-.14.11-.12.18.02.06.11.1.2.06Z" fill="#E8DEA4"/><path d="M38.95 39.66a15.99 15.99 0 0 1-13.44 4.13c1.53-.8 3.11-1.46 4.74-2.01l.25-.22 1.75-1.1c.18.66.57 1.37 1.35 1.36.7-.01.96-.63 1.28-1.23.08-.16.13-.15.14.04l.03.74c0 .25.16.4.45.43h.02c.25-.05.38-.2.39-.43l.03-3.74c0-.41-.09-.93-.61-.8-.14-.1-.15-.22-.06-.37a.83.83 0 0 0 0-.8c-.07-.16-.07-.44.02-.84l.88-.29c.04.02.09.02.13 0a.14.14 0 0 0 .09-.09c.72-2.38 1.37-4.8 1.95-7.23.2.2.3.36.35.47.32.8.55 1.36.7 1.68.92 1.85.9 3.74.53 5.73-.12.69-.2 1.15-.22 1.4-.02.2-.03.67-.04 1.42 0 .62-.24 1.2-.7 1.76Z" fill="#D7D8D6"/><path d="M15.16 27.39c.1 0 .19-.06.19-.14 0-.07-.08-.13-.19-.14-.1 0-.19.06-.2.14 0 .07.09.13.2.14Z" fill="#E8DEA4"/><path d="M17 28.61a.07.07 0 0 1-.04-.02.07.07 0 0 1-.02-.05l.01-.52a1.35 1.35 0 0 1 .06-.35.34.34 0 0 1 .06-.1c.02-.03.04-.04.07-.04.03 0 .05.01.07.04l.06.1.03.17v.19l-.01.52a.07.07 0 0 1-.02.05.07.07 0 0 1-.05.02H17Z" fill="#BBAFA2"/><path d="M28.42 29.8c-.33-.04-.63-.1-.91-.18-.25-.07-.28-.02-.1.16.34.36.78.54 1.3.53a3 3 0 0 0 1-.32l1-.42-1.06.77c-.8.26-1.53.18-2.21-.21l-1.1-.14a.18.18 0 0 1-.12-.06c-.54-.59-.95-1.1-1.23-1.53a1.62 1.62 0 0 1-.16-.3c-.06-.19 0-.23.17-.13.25.15.53.24.85.27.77.07 1 .44 1.37 1.05.2.35.83.48 1.2.51Z" fill="#2E1F19"/><path d="M26.88 28.38c0 .16.07.28.16.28s.17-.12.17-.27c0-.16-.07-.28-.16-.29-.1 0-.17.13-.17.28Z" fill="#937D72"/><path d="m12.96 28.4-.09.03a.14.14 0 0 0-.1.17l.02.03c.02.07.1.12.17.1l.1-.03c.07-.03.1-.1.09-.18l-.01-.03a.14.14 0 0 0-.18-.09Z" fill="#E8DEA4"/><path d="M12.24 28.75c.11.03.22 0 .24-.08.02-.08-.06-.17-.17-.2-.12-.02-.22.02-.24.1-.02.07.06.16.17.18Z" fill="#BBAFA2"/><path d="M13.75 28.67c.09.02.16-.02.17-.07.01-.06-.05-.12-.13-.13-.09-.02-.16.02-.17.08-.01.05.05.11.13.12Z" fill="#E8DEA4"/><path d="M15.87 30.27c.1-.03.18-.1.16-.19-.02-.08-.12-.13-.22-.1-.1.02-.18.1-.16.18.01.08.11.13.22.1Z" fill="#D6CEC6"/><path d="M30.78 30.01c-.2.23-.43.4-.71.5l.71-.5Z" fill="#696868"/><path d="M29.4 30.67a6.1 6.1 0 0 1-2.42-.23l.83.18c.1.02.12 0 .04-.08l-.41-.41c.68.4 1.42.47 2.2.21l.67-.3.03.01.01.04-.95.58Z" fill="#5D523A"/><path d="M43.7 31.15c-.18.85-.37 1.55-.57 2.1-.44 1.15-.9 2.16-1.41 3.01a16 16 0 0 1-1.63 2.21 6.35 6.35 0 0 1-.06-1.48c.2-1.7.3-3.38.27-5.05 0-.27.07-.59.24-.95.53-1.16 2.33-.29 3.16.16Z" fill="#BEB8B1"/><path d="M14.76 30.82c.1-.01.17-.08.16-.16 0-.08-.09-.14-.19-.13-.1 0-.17.08-.16.16 0 .08.09.14.19.13ZM14.2 31l-.1-.01a.14.14 0 0 0-.16.12v.01c-.02.08.03.15.1.17l.1.02c.08 0 .16-.04.17-.12v-.02a.14.14 0 0 0-.11-.16Z" fill="#E8DEA4"/><path d="M16.21 38.8c-.55-1.36-.27-2.65-.02-3.96.05-.25-.01-.72-.2-1.4.33-.32.51-.66.55-1.05.06-.49-.01-.94-.2-1.37.32.35.47.82.43 1.4-.03.51-.23.9-.6 1.13-.04.03-.05.06-.03.1.27.51.4.87.39 1.1-.02.5-.1 1.22-.25 2.15-.08.49-.1 1.12-.07 1.9Z" fill="#8C847C"/><path d="M40.61 31.43c.15-.14.3-.24.45-.3a.1.1 0 0 1 .06-.01c.03 0 .04.02.05.04.5.94.43 1.77-.18 2.5a.26.26 0 0 1-.31.07.3.3 0 0 1-.18-.2c-.05-.17-.05-.28.01-.34.1-.11.14-.25.08-.42-.1-.27-.15-.56-.16-.89 0-.18.06-.33.18-.45Z" fill="#AEA596"/><path d="M13.56 31.85c.1-.01.16-.1.15-.17-.01-.08-.1-.13-.2-.12-.1.02-.17.1-.16.18.02.08.1.13.2.11ZM12.97 32.35c.1-.01.17-.1.16-.19-.01-.08-.1-.14-.2-.13-.11.02-.18.1-.17.19.01.09.1.15.2.13ZM13.56 32.27c0-.12.03-.18.12-.2.1 0 .19.01.26.06a.07.07 0 0 1 .02.06.07.07 0 0 1-.03.05.58.58 0 0 1-.27.1c-.06.01-.1-.01-.1-.07Z" fill="#E8DEA4"/><path d="M13.41 33.04c-.07-.05-.13-.07-.18-.07-.07.01-.08.04-.05.1.05.08.06.19.03.31a.05.05 0 0 0 .05.06h.06c.04 0 .06.02.06.06l.08.63c.02.15-.02.17-.14.07-.16-.13-.2-.35-.15-.66.01-.04 0-.06-.05-.06h-.08c-.06 0-.1-.03-.1-.08a.86.86 0 0 1 .03-.44c.2-.1.35-.07.44.08Z" fill="#937D72"/><path d="M21.02 39.65c-.02.3-.02.85 0 1.62.02.33-.12.5-.4.53a.38.38 0 0 1-.4-.32c-.04-.24-.06-.5-.05-.76 0-.88-.01-1.9-.07-3.09-.01-.2.04-.43.16-.68a.16.16 0 0 1 .1-.1c.31-.09.52 0 .62.3a31.26 31.26 0 0 0 .73 1.8.08.08 0 0 0 .11-.04c.31-.7.63-1.5 1.07-1.92.32-.3.8-.25.97.19.09.24.14.55.14.94.03 1.14.03 2.23.03 3.26a.4.4 0 0 1-.27.4.42.42 0 0 1-.13.04c-.3-.05-.44-.21-.44-.48l-.03-2.8c0-.41-.07-.43-.22-.04-.14.38-.34.8-.6 1.26-.23.4-.53.49-.91.26-.15-.1-.24-.25-.34-.39-.04-.06-.07-.05-.07.02ZM27.16 40.58c0-.16-.05-.17-.12-.02-.17.37-.33.73-.67 1.03-.75.64-1.66-.08-1.89-.83-.41-1.41-.09-2.6.97-3.58.5-.45 1.06-.48 1.67-.08h.05c.01 0 .03 0 .04-.02.33-.48.83-.3.84.25.03 1.44.03 2.8 0 4.06 0 .23-.13.36-.38.4h-.04c-.26-.02-.4-.16-.42-.42l-.05-.8ZM35.33 36.83c.52-.13.62.39.61.8 0 2.07-.02 3.32-.03 3.74 0 .24-.14.38-.4.42h-.01c-.3-.03-.44-.17-.45-.42l-.03-.74c0-.19-.06-.2-.14-.04-.32.6-.57 1.22-1.28 1.23-.78.01-1.17-.7-1.35-1.36-.28-1.38.1-2.5 1.13-3.35.4-.33 1.06-.4 1.5-.05l.07.04c.04.02.08.01.1-.03.08-.1.17-.18.28-.24Z" fill="#1C1819"/><path d="M26.5 39.66a5.82 5.82 0 0 1-.66 1.24.23.23 0 0 1-.27-.03.97.97 0 0 1-.3-.46c-.23-.8-.07-1.57.46-2.28.15-.19.3-.32.47-.4a.3.3 0 0 1 .38.13c.38.59.2 1.12-.08 1.8Z" fill="#D0CCC4"/><path d="M34.36 39.65a5.9 5.9 0 0 1-.67 1.25.23.23 0 0 1-.27-.03.98.98 0 0 1-.3-.46 2.47 2.47 0 0 1 .46-2.3c.15-.19.3-.32.47-.4a.3.3 0 0 1 .39.13c.38.6.19 1.13-.08 1.81Z" fill="#AEA596"/><defs><linearGradient id="a" x1="10.42" y1="9.71" x2="68.15" y2="76.02" gradientUnits="userSpaceOnUse"><stop stop-color="#1A1E21"/><stop offset="1" stop-color="#06060A"/></linearGradient></defs></svg>