<svg width="56" height="56" viewBox="0 0 56 56" xmlns="http://www.w3.org/2000/svg"><path d="M25.2 14.87c.52 0 .93-.41.93-.92a.93.93 0 0 0-.93-.92.93.93 0 0 0-.94.92c0 .51.42.92.94.92Z" fill="#9955E4"/><path d="M30.41 14.88c.54 0 .97-.42.97-.94a.96.96 0 0 0-.97-.94.96.96 0 0 0-.97.94c0 .52.44.94.97.94Z" fill="#C926E9"/><path d="M27.57 13h-.14c-.5 0-.9.35-.9.77l-.01 2.46c0 .42.4.77.9.77h.14c.5 0 .9-.34.9-.76v-2.46c0-.43-.4-.77-.89-.78Z" fill="#9955E4"/><path d="M15.89 24.07a17.42 17.42 0 0 0-2.62-2.33c.53-.15 1.05-.2 1.58-.13a.33.33 0 0 0 .33-.16 14.71 14.71 0 0 1 6.78-6.1c.59-.26 1.03-.1 1.35.5.01.02.02.11.01.26a.86.86 0 0 1-.55.81 12.87 12.87 0 0 0-6.88 7.15Z" fill="url(#a)"/><path d="M25.2 17.37c.52 0 .93-.4.93-.92 0-.5-.41-.91-.93-.91a.92.92 0 0 0-.93.91c0 .51.42.92.93.92Z" fill="#9955E4"/><path d="M32.54 15.5h-2.31c-.44 0-.79.43-.79.95v.1c0 .52.36.95.8.95h2.3c.44 0 .79-.43.79-.96v-.1c0-.52-.36-.95-.8-.95ZM35.4 17.4a.94.94 0 1 0 0-1.86.94.94 0 0 0-.94.92c0 .52.42.93.94.93ZM37.99 18.07l-2.63.03a.85.85 0 0 0-.85.85v.08c0 .47.39.84.86.84l2.64-.02c.47 0 .85-.39.85-.86v-.08c-.01-.46-.4-.84-.87-.84ZM37.96 22.44c.51 0 .93-.42.93-.93a.93.93 0 0 0-.93-.93.93.93 0 0 0-.94.93c0 .51.42.93.94.93ZM40.54 20.63h-.08a.85.85 0 0 0-.85.84v2.58c0 .47.38.85.86.85h.08c.47 0 .85-.38.85-.85v-2.58a.85.85 0 0 0-.86-.84ZM43.06 23.5c.52 0 .94-.42.94-.94a.94.94 0 0 0-.94-.93.94.94 0 0 0-.95.93c0 .52.42.94.95.94Z" fill="#C926E9"/><path d="M13.27 21.74c.96.7 1.83 1.47 2.62 2.33a12.62 12.62 0 0 0 6.6 16 12.88 12.88 0 0 0 8.74.76c.54-.13.92.1 1.11.69l.01.03c.02.53-.21.85-.68.97a14.7 14.7 0 0 1-14.3-3.94 14.38 14.38 0 0 1-4.1-10.38c0-.06-.03-.1-.1-.13a3.31 3.31 0 0 1-2.16-3.37c.07-1.37.83-2.36 2.26-2.96Z" fill="#30DDE8"/><path d="M43.1 24.22H43a.84.84 0 0 0-.85.83l-.01 2.05c0 .46.38.84.85.84h.1c.47 0 .85-.37.85-.84v-2.04a.84.84 0 0 0-.84-.84Z" fill="#C926E9"/><path d="M21.19 25c2.04 0 3.6 1.59 3.38 3.42-.08.58-1.04.75-1.48.4-.35-.3-.27-.82-.42-1.15-.32-.65-.82-.97-1.48-.97s-1.16.32-1.48.97c-.15.33-.07.86-.42 1.14-.44.36-1.4.2-1.47-.39-.23-1.83 1.33-3.42 3.37-3.42Z" fill="#57A0E6"/><path d="M40.5 27.47c.51 0 .93-.42.93-.92 0-.51-.42-.93-.93-.93a.93.93 0 0 0-.93.93c0 .5.41.92.93.92Z" fill="#9955E4"/><path d="M35.28 25.99h-2.94a.96.96 0 0 0-.95.97v.08c0 .53.43.96.95.96l2.95-.01c.52 0 .95-.44.95-.96v-.09a.96.96 0 0 0-.96-.95Z" fill="#826AE8"/><path d="M40.53 28.16h-.08a.85.85 0 0 0-.85.85l.01 2.57c0 .46.39.84.86.84h.08c.47 0 .85-.38.85-.85L41.39 29a.85.85 0 0 0-.86-.84Z" fill="#9955E4"/><path d="M27.5 36c-1.04 0-1.99-.38-2.85-1.13-.37-.33-1.02-1.06-1.03-1.61-.02-1.03.71-1.32 1.4-1.24a246.28 246.28 0 0 0 4.96 0c.68-.09 1.42.2 1.4 1.22 0 .56-.66 1.29-1.03 1.62A4.2 4.2 0 0 1 27.5 36Z" fill="#57A0E6"/><path d="M37.95 35.03c.51 0 .93-.41.93-.92s-.42-.92-.93-.92a.93.93 0 0 0-.93.92c0 .5.41.92.93.92Z" fill="#717BE4"/><path d="M40.5 35.03c.51 0 .93-.41.93-.92 0-.5-.42-.92-.93-.92a.92.92 0 0 0-.93.92c0 .5.41.92.93.92Z" fill="#826AE8"/><path d="M40.52 35.75h-2.6a.85.85 0 0 0-.84.84v.08c0 .47.38.84.85.84h2.59c.47 0 .85-.37.85-.84v-.08a.85.85 0 0 0-.85-.84Z" fill="#717BE4"/><path d="M35.44 38.28H32.8a.84.84 0 0 0-.85.84v.07c0 .46.38.84.85.84h2.65c.46 0 .84-.38.84-.85v-.07a.84.84 0 0 0-.85-.83Z" fill="#57A0E6"/><path d="M37.95 40.08c.51 0 .93-.41.93-.93a.93.93 0 0 0-.93-.92.93.93 0 0 0-.94.92c0 .52.42.93.94.93Z" fill="#658BE6"/><path d="M35.4 42.6c.51 0 .93-.42.93-.93a.93.93 0 0 0-.93-.93.93.93 0 0 0-.94.93c0 .51.42.93.94.93Z" fill="#57A0E6"/><defs><linearGradient id="a" x1="21.95" y1="15.65" x2="18.37" y2="24.1" gradientUnits="userSpaceOnUse"><stop stop-color="#658BE6"/><stop offset="1" stop-color="#30DDE8"/></linearGradient></defs></svg>