<svg width="112" height="112" xmlns="http://www.w3.org/2000/svg" viewBox="0 0 56 56"><rect fill="url(#paint0_linear)" width="56" height="56" rx="28"/><path d="M28.216 12.121L28 12l-.216.121-11.666 6.538c-.21.118-.28.48-.16.686.119.207.445.326.655.209L28 13.21l11.366 6.343c.21.117.565-.03.685-.236.12-.207.046-.541-.164-.659l-11.67-6.538zm-13.564 8.277l-.652-.36v16.075c0 .238.28.437.522.437.241 0 .478-.2.478-.437V21.765l8 4.424v13.98l-6.1-3.412c-.209-.118-.52-.02-.64.186-.12.207-.066.568.144.686l6.566 3.699.01.005 4.812 2.557L28 44l.208-.11 4.812-2.557.01-.005 6.566-3.699c.21-.118.283-.43.163-.636-.12-.207-.475-.354-.685-.236L33 40.169v-13.98l8-4.424v14.348c0 .238.32.43.563.43a.434.434 0 00.437-.43V20.038l-.652.36L32 25.486v15.11l-4 2.198-4-2.198v-15.11l-9.348-5.088z" fill="#fff"/><defs><linearGradient id="paint0_linear" x1="10.418" y1="9.712" x2="68.147" y2="76.017" gradientUnits="userSpaceOnUse"><stop stop-color="#1A1E21"/><stop offset="1" stop-color="#06060A"/></linearGradient></defs></svg>