<!-- by TradingView --><svg width="56" height="56" viewBox="0 0 56 56" xmlns="http://www.w3.org/2000/svg"><path fill="url(#alwkvtcju)" d="M0 0h56v56H0z"/><path fill-rule="evenodd" d="m26.28 13.16.1-.61c-.6.05-1.18.12-1.73.22l-.32.66c.66-.12 1.31-.2 1.95-.27Zm.21-1.16.84.18c.55-.02 1.12-.02 1.71 0l.9-.17.05.25c.6.05 1.2.14 1.8.25l.66-.39.35.6c.58.15 1.16.32 1.75.52l.32-.26.42.52.96.4-.13.29-.48-.2.3.43.03.03c1.47.56 2.66 1.21 3.5 1.81l-.29.38c-.68-.49-1.62-1.02-2.78-1.5.21.34.4.7.51 1 2.48.9 4.1 2.03 4.82 2.78l-.47.43c-1.09-1.14-4.7-3.44-10.7-3.85.1.76.2 1.52.25 2.17l.04.53-.54-.03c-.94-.04-2.21-.04-3.66.04-.08.99-.14 2.05-.16 3.16l-.01.46H26c-.93 0-2.27.05-3.79.2a27.91 27.91 0 0 0-.12 3.7l.02.48h-.5c-.79.01-1.98.05-3.3.13a42.76 42.76 0 0 0 .02 3.17c1.31.11 2.5.2 3.3.24l.46.02v.45c0 1.27.05 2.45.14 3.54 1.46.15 2.8.24 3.79.28l.46.02v.45c0 1.1.02 2.12.07 3.03 1.47.09 2.78.1 3.76.06l.5-.01v.49c0 .67-.08 1.46-.2 2.25 5.96-.42 9.56-2.7 10.64-3.84l.47.43c-.73.76-2.38 1.91-4.9 2.8l.07.04c-.1.2-.27.48-.47.8a14.26 14.26 0 0 0 2.75-1.5l.28.38c-.82.59-2 1.24-3.46 1.8l-.37.55.49-.2.13.28c-.32.15-.64.28-.96.4-.14.2-.28.38-.42.54l-.32-.27c-.58.2-1.16.36-1.73.5l-.38.63-.62-.41c-.6.11-1.2.2-1.78.25l-.1.45-.93-.22.04-.15c-.6.02-1.17.03-1.73 0l.03.1-.9.31a5.95 5.95 0 0 1-.13-.46c-.6-.05-1.16-.13-1.7-.22l-.57.44a5.17 5.17 0 0 1-.42-.64c-.63-.14-1.21-.3-1.73-.48l-.17.26c-.17-.1-.37-.29-.6-.53-.41-.17-.78-.34-1.08-.5l.16-.28.5.26a8.1 8.1 0 0 1-.44-.7c-.33-.11-.66-.24-1-.38l.3.3-.43.45c-.3-.28-.7-.71-1.14-1.33a27.3 27.3 0 0 1-1.41-.74l.23-.41.68.37c-.15-.25-.3-.52-.44-.8l-.73-.42c.2.3.38.54.53.7l-.36.32c-.3-.33-.67-.86-1.06-1.6-.37-.25-.66-.48-.88-.66l.35-.43-.32-.8a13.2 13.2 0 0 1-.33-.18l.25.47-.32.19a9.99 9.99 0 0 1-.5-1l-.52-.37.25-.32c-.21-.58-.41-1.23-.58-1.95a5.41 5.41 0 0 1-.61-.39l.41-.55c-.1-.6-.2-1.22-.24-1.89l-.38-.07.2-.92.12.02c-.01-.54 0-1.1.03-1.69l-.13.04-.24-.92.45-.1c.06-.57.15-1.14.26-1.73l-.43-.77.7-.35c.15-.6.34-1.2.56-1.8l-.36-.5c.24-.17.5-.33.76-.49l.24-.54.34.16-.04.07.1-.05.02-.05.3-.73-.34-.41c.22-.19.52-.43.9-.7.44-.76.88-1.34 1.26-1.72l-.13-.23c.54-.3 1.08-.59 1.62-.84.33-.46.65-.82.93-1.08l.43.45-.05.05c.3-.12.6-.24.9-.34.13-.22.27-.43.4-.6-.23.1-.43.2-.61.3l-.16-.28c.33-.18.72-.36 1.18-.54.14-.16.27-.29.4-.4l.17.2c.55-.2 1.17-.37 1.84-.52l.19-.37.47.23c.67-.12 1.39-.22 2.15-.28l.04-.23Zm-4.42 30.37c.42.14.87.27 1.36.38-.12-.22-.23-.47-.35-.74-.52-.12-1.04-.26-1.57-.43.3.37.52.57.65.66l-.09.13Zm2.6.64c.5.09 1.03.15 1.57.2-.04-.2-.1-.43-.14-.7-.6-.05-1.23-.14-1.86-.26.16.32.3.57.44.76Zm2.56.27c.61.02 1.24.02 1.9-.01l.13-.66c-.7.03-1.43.02-2.17-.02l.14.69Zm2.89-.1a19.8 19.8 0 0 0 1.87-.28c.12-.2.24-.41.35-.64-.67.12-1.36.22-2.09.28l-.13.65Zm2.9-.52c.5-.12 1.01-.28 1.52-.45l.46-.62c-.53.17-1.09.32-1.67.46l-.3.61ZM27.27 13.1l.1-.6c.56-.03 1.13-.02 1.71 0l.11.59c-.62-.03-1.27-.02-1.92 0Zm2.9.05-.1-.57c.62.06 1.26.16 1.9.29l.32.56a22 22 0 0 0-2.12-.28Zm3.13.49L33 13.1c.5.13 1.01.28 1.52.45l.4.53c-.52-.17-1.07-.32-1.64-.45Zm-11.13-.08-.13-.14c.44-.15.92-.29 1.44-.41l-.28.65c-.5.12-1 .25-1.51.4.17-.2.33-.38.48-.5Zm4.04.09c-.68.06-1.39.16-2.1.3-.17.4-.32.81-.46 1.22.74-.11 1.53-.2 2.38-.27l.18-1.25Zm-3.22.55c-.58.14-1.17.31-1.77.51-.2.32-.42.7-.64 1.13.62-.18 1.28-.34 2-.48.12-.39.26-.78.4-1.16Zm-2.93.93c-.4.16-.82.33-1.23.52-.22.3-.46.66-.7 1.07.44-.19.9-.37 1.42-.55.17-.38.34-.72.5-1.04ZM17.7 16.2l-.57.3.12.14c-.24.2-.53.53-.84.97.23-.14.48-.27.74-.41.19-.36.37-.7.55-1Zm17.7-1.45c-.57-.2-1.19-.39-1.84-.55.18.4.35.8.46 1.15.74.15 1.43.33 2.07.53a11.6 11.6 0 0 0-.67-1.1l-.02-.03Zm-2.84-.78a21.5 21.5 0 0 0-2.3-.33l.2 1.24c.94.05 1.82.16 2.66.3-.16-.39-.35-.8-.56-1.2Zm-3.29-.4a21.8 21.8 0 0 0-2.1.01L27 14.85a36.95 36.95 0 0 1 2.5-.03 70.2 70.2 0 0 0-.22-1.25Zm6.77 26.42-.6.96c-.58.2-1.2.4-1.86.57l.41-1c.73-.15 1.41-.33 2.05-.53Zm-2.97.7-.47 1.05c-.71.14-1.47.26-2.26.33l.2-1.09c.89-.06 1.73-.16 2.53-.29Zm-3.51.34-.2 1.1c-.76.05-1.55.04-2.36 0l-.16-1.13a36.76 36.76 0 0 0 2.72.03Zm-3.69-.1.15 1.11c-.66-.07-1.34-.17-2.03-.3-.13-.32-.27-.67-.41-1.07.71.11 1.48.2 2.3.27Zm-3.36-.45c.12.36.23.7.35 1-.6-.15-1.2-.33-1.8-.53-.17-.27-.35-.59-.53-.95.61.17 1.27.34 1.98.48Zm-3-.81c.13.3.26.6.4.85a25.2 25.2 0 0 1-1.3-.55c-.18-.26-.37-.55-.57-.88.44.2.93.4 1.47.58Zm6.43-24.12c-.9.07-1.74.17-2.52.3-.19.6-.35 1.2-.5 1.8.98-.14 1.94-.24 2.84-.31l.18-1.79Zm-3.58.5c-.78.17-1.5.36-2.14.57a18.37 18.37 0 0 0-.62 1.66c.77-.19 1.55-.34 2.31-.47.13-.59.28-1.17.45-1.76Zm-3.14.92c-.6.22-1.12.46-1.59.7-.2.41-.4.87-.59 1.36.54-.19 1.1-.36 1.65-.52a21.9 21.9 0 0 1 .53-1.54Zm-2.51 1.2c-.41.24-.76.47-1.05.68-.14.28-.3.6-.43.93.33-.16.67-.31 1.02-.45.15-.41.3-.8.46-1.16Zm12.87-2.7a27.92 27.92 0 0 0-2.67.02 60.8 60.8 0 0 0-.19 1.79c1.17-.07 2.23-.08 3.1-.06l-.24-1.76Zm.26 23.1c-.02.56-.1 1.2-.18 1.82a27.83 27.83 0 0 1-2.9-.03l-.15-1.86c1.22.07 2.33.09 3.23.07Zm-4.2-.14c.05.68.1 1.3.16 1.87-.87-.07-1.69-.18-2.44-.3a21.91 21.91 0 0 1-.49-1.87c.95.13 1.89.23 2.78.3Zm-3.43 1.03.1.33c-.78-.16-1.49-.35-2.13-.56a15.56 15.56 0 0 1-.62-1.72c.76.18 1.54.33 2.3.46.11.53.23 1.03.35 1.49Zm-3.54-2.18c.16.59.34 1.12.52 1.6-.62-.23-1.17-.48-1.65-.73-.2-.41-.4-.88-.59-1.4.56.2 1.13.38 1.72.53Zm-2.5-.82c.15.42.3.82.45 1.18-.38-.23-.7-.44-.97-.64-.14-.29-.28-.6-.42-.95.3.14.62.28.95.41Zm9.51-18.17c-.94.08-1.94.19-2.97.34-.16.84-.29 1.66-.39 2.44 1.24-.11 2.36-.16 3.23-.17.03-.91.07-1.79.13-2.6Zm-3.97.5c-.81.16-1.63.33-2.42.54-.18.68-.35 1.41-.49 2.21a38.09 38.09 0 0 1 2.55-.37c.09-.75.2-1.55.36-2.37Zm-3.3.8c-.61.17-1.2.38-1.77.6-.2.6-.37 1.25-.52 1.94a30 30 0 0 1 1.85-.43c.12-.76.27-1.46.43-2.12Zm-2.53.93c-.4.18-.79.37-1.16.58-.16.5-.32 1.04-.45 1.61l1.16-.38c.13-.64.28-1.24.45-1.81Zm-1.77.95-.23.15c-.18.48-.33.96-.46 1.43l.31-.13c.11-.51.24-1 .38-1.45Zm-.42 12.69.05-.07c.13.1.26.18.4.27-.12-.42-.24-.87-.34-1.35l-.52-.22c.12.5.26.95.4 1.37Zm1.06.58c.34.2.7.37 1.07.54-.14-.53-.27-1.11-.4-1.73a20.46 20.46 0 0 1-1.09-.34c.13.55.27 1.06.42 1.53Zm1.82.86a21 21 0 0 0 1.82.62c-.15-.64-.29-1.34-.4-2.1-.65-.11-1.28-.25-1.88-.4.14.69.3 1.31.46 1.88Zm2.7.86c.79.2 1.6.38 2.4.52-.12-.73-.23-1.51-.31-2.36a54.9 54.9 0 0 1-2.52-.34l-.03-.01c.13.8.29 1.53.46 2.2Zm3.4.68c1 .15 2 .26 2.93.34-.04-.77-.06-1.6-.06-2.5-.9-.05-2.01-.13-3.21-.25.1.87.21 1.68.34 2.41Zm-2.93-14.8a41.5 41.5 0 0 1 1.51-.2c-.1 1.24-.14 2.32-.12 3.15-.74.01-1.7.05-2.77.1.06-1.02.16-1.97.29-2.86l1.09-.19Zm-3.82.83c.62-.18 1.26-.34 1.9-.47-.11.85-.2 1.77-.26 2.75-.63.05-1.29.1-1.93.17.06-.87.16-1.68.3-2.45Zm-1.88.64c.39-.15.8-.3 1.2-.43-.11.73-.2 1.5-.26 2.31l-1.2.16c.06-.71.15-1.4.26-2.04Zm-.91.41.4-.18c-.1.6-.18 1.23-.23 1.9l-.47.08a19 19 0 0 1 .3-1.8Zm8.02 6.45c0 1.06.05 2.06.12 3a53.29 53.29 0 0 1-2.6-.38c-.13-.87-.22-1.8-.28-2.82 1.05.1 2.02.16 2.76.2Zm-3.56-.27c.05.98.14 1.9.25 2.74-.67-.13-1.31-.28-1.91-.44-.12-.76-.22-1.6-.29-2.5.65.08 1.3.14 1.95.2Zm-2.6-.27c.07.85.16 1.65.27 2.38-.42-.12-.8-.26-1.15-.4-.12-.66-.22-1.37-.29-2.13l1.18.15Zm-1.65-.22c.05.7.14 1.35.24 1.97l-.57-.3a18.8 18.8 0 0 1-.23-1.77l.56.1Zm4.18-3.51c-.64.05-1.3.1-1.95.17a29.98 29.98 0 0 0 .01 2.68l1.96.2a49.42 49.42 0 0 1-.02-3.05Zm-2.58 2.77a37 37 0 0 1 0-2.52c-.42.05-.82.1-1.2.17a23.42 23.42 0 0 0 .01 2.2l1.2.15Zm-1.67-.23a27.73 27.73 0 0 1-.02-2.04l-.5.1c-.04.63-.05 1.25-.03 1.84l.55.1Z" fill="url(#blwkvtcju)"/><path d="M27 32.64v-3.55c0-.3.36-.45.58-.24l1.95 1.9v3.6l1.08 1.01v-4.6L27 27.26v-6.24l7.5 7.43 7.5-7.43v6.23l-3.6 3.5v4.61l1.07-1v-3.6l1.95-1.9c.22-.22.58-.07.58.23v3.55l-3.77 3.6c-.22.21-.58.06-.58-.23v-5.25l3.78-3.74v-4.6L40 23.77v2.42l-5.5 5.47L29 26.2v-2.34l-1.43-1.45v4.6l3.78 3.75V36c0 .3-.36.44-.58.24L27 32.64Z" fill="url(#clwkvtcju)"/><defs><linearGradient id="alwkvtcju" x1="10.42" y1="9.71" x2="68.15" y2="76.02" gradientUnits="userSpaceOnUse"><stop stop-color="#1A1E21"/><stop offset="1" stop-color="#06060A"/></linearGradient><linearGradient id="blwkvtcju" x1="26.86" y1="12" x2="26.86" y2="44" gradientUnits="userSpaceOnUse"><stop stop-color="#38B1DF"/><stop offset="1" stop-color="#1CDBAD"/></linearGradient><linearGradient id="clwkvtcju" x1="34.5" y1="21.02" x2="34.5" y2="36.34" gradientUnits="userSpaceOnUse"><stop stop-color="#10CBF2"/><stop offset="1" stop-color="#90F3A6"/></linearGradient></defs></svg>