<!-- by TradingView --><svg width="56" height="56" viewBox="0 0 56 56" xmlns="http://www.w3.org/2000/svg"><path fill="#CEE1FD" d="M0 0h56v56H0z"/><path d="M43 34.38a8.54 8.54 0 0 1-8.52 8.57L21.62 43a8.55 8.55 0 0 1-8.58-8.52L13 21.62a8.54 8.54 0 0 1 8.52-8.58L34.38 13a8.54 8.54 0 0 1 8.57 8.52L43 34.38Z" fill="#0467DE"/><path d="M19.12 21.9c2.3-2.4 4.73-2.53 7.27-.4a15.55 15.55 0 0 1 1.82 1.81.21.21 0 0 0 .26-.07c1.11-1.58 2.35-2.55 3.73-2.92 1.52-.42 2.99 0 4.4 1.25a10.27 10.27 0 0 1 3 5.38c.53 2.2.54 4.27 0 6.18-.58 2.13-2 3.07-4.26 2.83-1.9-.2-4.05-2.5-6.48-6.9-.22-.4-.38-.7-.5-.89a.72.72 0 0 0-.17-.21.32.32 0 0 0-.26-.06.32.32 0 0 0-.21.15 63.07 63.07 0 0 1-3.41 5.66c-1.18 1.67-2.7 2.42-4.6 2.23-2.6-.25-3.84-2.17-3.7-5.75.13-3.5 1.17-6.27 3.11-8.29Zm14.48.33c-1.57-.34-2.87.55-3.9 2.66a.58.58 0 0 0 .03.54c1.22 2.02 2.43 3.98 3.65 5.88 1.31 2.04 2.48 2.64 3.5 1.8.68-.56.96-1.69.84-3.38a13.7 13.7 0 0 0-.77-3.7c-.79-2.22-1.9-3.49-3.35-3.8Zm-10.14.6c-1.33-.27-2.48.42-3.43 2.08A10.49 10.49 0 0 0 18.75 32c.1.64.46 1.08 1.06 1.3.6.23 1.19.15 1.74-.24.42-.3.75-.6 1-.95 1.5-2.1 2.84-4.15 4.04-6.16a.38.38 0 0 0 0-.4c-.88-1.56-1.92-2.46-3.13-2.71Z" fill="#F8FEFF"/></svg>