<svg width="112" height="112" viewBox="0 0 56 56" xmlns="http://www.w3.org/2000/svg"><rect fill="#F0F3FA" width="56" height="56" rx="28"/><path d="M28 11a17 17 0 1 1-.01 34.01A17 17 0 0 1 28 11Z" fill="#181B1E"/><path d="M24.5 28.15a27 27 0 0 0 5.59.34c-2.15.14-3.73.12-5.8-.03-1.3 1.33.05 2.36.23 3.47.55-.05.88-.17 1.27.07 3.67-.07 6.43.28 9.73-1.12l.06-.63-.64-.25c.46-.65.37.08.4-.8.02-.35.04-.48-.37-.67-.32-3-2.47-2.69-4.76-2.47-1.45.15-4.82.86-4.56-1.1h-.32s-3.44 1.1-.84 3.2Z" fill="silver"/><path d="M20 42c.7.37 3.44 1.64 4.4 1.57l.38-.08c-.47-1.78-.1-2.4-.07-3.1 0-.42-.1-.44-.15-1L23 38.85l.02-7.17 1.54.23c-.17-1.11.13-2.43-.28-3.43-1.33-.2-3.21-.48-4.28-1.1V42Z" fill="#F6F6F6"/><path d="M24.74 39.4h-.18c.06.54.14.57.14.98-.01.72-.39 1.33.08 3.1l-.38.09c.04.03.11 0 .15.07.2.46 4.8.4 5.91.24 2.18-.31 3.05-.82 4.85-1.42 1-.94.42-1.52 1.56-2.01.07-.06-1.48-1.53-1.54-1.54-.84.06-1.34.38-2.4.57-.89.15-1.7.27-2.63.34-2.18.19-3.48-.26-5.56-.41ZM29.32 33.35c.22.52.4 3.54 0 4.01-.97 1.16-1.3-.01-3.8.45-.39-.57-.83-3.48-.5-4.37.16-.4 1.06-.44 2-.44.97 0 2 .07 2.3.35Zm-4.74-1.12.04 3c-.04.53-.18 1.14-.15 1.74.08 1.1.3.55-.01 1.76l.69.15c2.08.07 3.71.32 5.88.12 1.12-.1 4.23-.38 4.62-1.16l.05-.95c-.89-.04-.59.27-1.67.3-.62-.94-.75-3-.48-4.47.53-.3 1.37-.52 2.1-.81.14-.69.16-.33-.2-.53l-2.77.75c-.35 1.3-.16.39-.55 1.16-.2.37-.21.92-.34 1.3-.32-3.13.3-.88.21-2.36-2.84.24-4.72.03-7.42 0Z" fill="silver"/><path d="M25.63 24.98c-.09.8.02.6-.45 1.08 2 .3 3.3.35 5.05.17.87-.1 2.11-.02 2.82.34.48.24.04.12.6-.14-.05.62-.03.67-.19 1.11.05-.02.1-.12.14-.07.04.04.32-.25.91-.42-.04.05-.09.05-.1.11-.02.07-.08.09-.1.12l-.23.46c.7-.06.45-.08.66.09-.5.2-.82-.09-.28.53l.35.13.07.02c.02 0 .06.02.07.04.4.18.38.3.38.66 0 .29.03.15-.41.8l.64.26-.06.63 2.5-1.38V26c-1.01.46-1.49 1.06-3 1.37 1.14-.59 2.98-1.63 3-2.86 0-.26-.08-.54-.26-.82-.25-.38-.4-.31-.65-.69-.3-.44-.1-.29-.54-.71l-.18.18c-.6.64-.95.96-1.75 1.4-.8.43-1.64.69-2.65.89-1.92.37-4.28.58-6.34.22Z" fill="#9A9A9A"/><path d="M20 42V27.39a3.7 3.7 0 0 1-.96-.53c-.34-.26-.65-.53-1.04-.68v14.3c.02.6.11.88 2 1.52Z" fill="#C1C1C1"/><path d="M20.66 24.52c-.32.75-.64 1.66-.47 2.4.2.3 1.44.67 1.83.77.8.2 1.6.43 2.45.46l.54-2.78c.69-1.26-.1.65.28-.39-1.6-.2-2.73-.75-4.01-1.07-.27.29-.34.37-.62.61Z" fill="#F0F0F0"/><path d="M21.8 23.45c.92.8 4.43 1.2 6.03 1.22 1.78.04 5.1-.27 6.22-1.22v-.26c-.3.12-3.02.8-3.54.72l-.01-.09-1.09.27c-.89.04-2.22.02-3.04-.22-1.47-.44-1-.88-1.7-2.07.27-.77-.65-.34-.56-1.07l-1.27.24c-.46.05-.7.28-.96.58-.62.75-.76 1.08-.09 1.9Z" fill="#EBEBEB"/><path d="M27.97 21.43c-.33-.32-.58-.5-.6-1-.02-.63.21-.63.57-1.06l1.19.07c.5.22 1.47 2.18-1.16 2Zm-2.04-2.37c-.46-2.06 1.97-2.11 2.43-1.19.63 1.24-1.5 1.9-2.43 1.2Zm-.23-1.87c-.1.44-.1.07-.43.68l.04.85.59 1.35s2.77 3.84 4.49 1.62c1-1.28-1.72-3.68-2.08-4.6a6.1 6.1 0 0 0-.87-.09c-.56 0-.81.05-1.74.19Z" fill="#C6C6C6"/><path d="M21.8 23.45c-.68-.82-.54-1.15.1-1.88.27-.3.5-.53.96-.58l1.05.15c-.1.74-.13.24-.41 1.01.69 1.18 1.4 1.3 2.9 1.74.8.24 2.12.27 3.03.22l1.08-.27c-1.86-.07-3.66.15-4.06-1.55l-.24-.26a4.65 4.65 0 0 0-.37-.32c-.78-.65-1.13-.7-1.74-1.5l-.16-.2c-.83 0-1.62.5-2.11.96-.64.58-1.1.98-.89 2.17l.85.3Z" fill="#C1C1C1"/><path d="M35.34 38.93c-.13.45.22 1.63-.16 1.96l.4.14c.03.83-.18.83-.25 1.45.97-.46 1.87-.96 2.67-1.33v-3.9l-2.34 1.43c-.3.2-.1.01-.32.25Z" fill="#9A9A9A"/><path d="M30.51 23.92c.54.07 3.24-.6 3.54-.71v.25c.8-.22 1.08-.39 1.53-.81-.66-2.34-3.93-3.42-5.37-3.35l.46.79c.41.63.02.36.84.56.6.15 1.7.44 2 .82.95 1.2-1.06 1.7-1.86 1.96-.23.07-.36.1-.53.19l-.6.3Z" fill="silver"/><path d="M35.45 31.38c.36.22.34-.14.2.53.69-.28.64-.4 1.44-.41.15 1.05.08 2.13.07 3.25-.02 1.95-.64 1.23-1.48 2.14l-.05.95c.8-.3 1.08-.4 1.69-.95.75-.58.68-.86.68-1.95V30l-2.55 1.38Z" fill="#959595"/><path d="M35.82 22.27c2.15-2.85-4.05-4.31-6.53-4.4.44.94.44.78 1.58 1 3.73.76 4.2 2.24 4.88 3.3.02.01.06.07.07.1Z" fill="#989898"/><path d="M24.46 38.73c.32-1.21.1-.65.01-1.76-.03-.6.11-1.21.15-1.74l-.04-3-1.28-.14c.29 1.13.07 4.06.13 5.58.03.92.1.89 1.03 1.06Z" fill="#F3F3F3"/><path d="m25.3 18.72-.03-.85c-.4.51-.35.05-1.86.51-.94.3-1.2.4-2 .8-1.07.55-2.44 1.75-1.22 3.15.02-.03.06-.12.07-.1.08.2.11-.17.15-.2 1.93-3.06 3.3-2.16 4.9-3.3Z" fill="#989898"/><path d="M20.2 26.93c.02-.87.14-1.66.46-2.4-.87-.21-1.32-.7-1.7-1.27-.42.2-.52.19-.7.78-.14.48-.14.96.03 1.42.25.61 1.35 1.24 1.9 1.47Z" fill="#C1C1C1"/><path d="M34.2 36c.72.05 1.78-.2 2.29-.44.66-.3.48-.95.51-1.56-.27.23-.19.27-.26.47-.15.54.07.62-.98.73l-.35-.71-1.41.18c0 .5.02.92.2 1.32Z" fill="#B7B7B7"/><path d="M24.56 39.4h.18v-.54h.4l-.68-.15c-.93-.17-1-.14-1.03-1.06-.06-1.52.16-4.41-.13-5.54l1.28.14c.29-.17-.12-.18.59-.25h.64c-.4-.24-.7-.16-1.25-.11l-1.54-.22-.02 7.16 1.56.56Z" fill="#676767"/><path d="m23.92 19.98.16.2c.6.81.98.86 1.74 1.51a4.62 4.62 0 0 1 .38.32l.23.26c.09-.4.2-.56.32-.82l-.85-1.38-.52-.63c-.53.1-1.03.17-1.46.54Z" fill="#9A9A9A"/><path d="m26.04 35.88 2.93.12.03-.96c-2.76.1-.4.28-2.46.5L26 35l.04.88Z" fill="silver"/><path d="M18.97 23.26c.37.56.81 1.06 1.69 1.26.28-.24.35-.32.63-.63-.03-.03-.07-.14-.08-.1-.02.03-.08-.09-.1-.1l-.7-.53c-.34-.26-.47-.43-.82-.77-.18.22-.16.19-.3.4l-.32.47Z" fill="#9A9A9A"/><path d="M26.41 19.05c.78.12 1.26-.2 1.78-.48l-.13-.77c-1.2-.25-2.34.07-1.65 1.25ZM29.43 20.8c.02-1.58-1.39-1.28-1.65-.76-.23.44-.07.88.28 1.04.6.27.94-.09 1.37-.28Z" fill="#999"/></svg>