<!-- by TradingView --><svg width="56" height="56" viewBox="0 0 56 56" xmlns="http://www.w3.org/2000/svg"><path fill="#143450" d="M0 0h56v56H0z"/><path d="M33.9 15c-3.67 0-9.83 7.15-9.83 7.15L18.83 28c3.27 3.9 11.8 13 17.69 13C40.45 41 47 36.45 47 30.6 47 24.75 38.48 15 33.9 15Z" fill="url(#a)"/><path d="M22.1 15c3.67 0 9.18 7.8 9.18 7.8l5.24 5.85C33.24 32.55 25.38 41 19.48 41 15.55 41 9 36.45 9 30.6 9 24.75 17.52 15 22.1 15Z" fill="url(#b)"/><path d="M27.77 18.43 44.9 36.24C42.64 39.13 39.04 41 36.52 41c-2.12 0-4.57-1.17-7-2.85L12.78 21.93C15.63 18.14 19.5 15 22.1 15c1.71 0 3.82 1.7 5.59 3.5l.08-.07Z" fill="url(#c)"/><defs><linearGradient id="a" x1="28.66" y1="17.6" x2="43.6" y2="33.32" gradientUnits="userSpaceOnUse"><stop stop-color="#009DD8"/><stop offset=".51" stop-color="#00B9E3"/><stop offset=".84" stop-color="#01EAF6"/></linearGradient><linearGradient id="b" x1="13.59" y1="25.4" x2="27.24" y2="38.51" gradientUnits="userSpaceOnUse"><stop stop-color="#01E4F3"/><stop offset=".17" stop-color="#01F3F9"/><stop offset=".5" stop-color="#00A7DC"/><stop offset="1" stop-color="#0096D5"/></linearGradient><linearGradient id="c" x1="18.82" y1="17.6" x2="36.35" y2="39.17" gradientUnits="userSpaceOnUse"><stop stop-color="#00DDF0"/><stop offset=".34" stop-color="#00FDFD"/><stop offset="1" stop-color="#00E9F5"/></linearGradient></defs></svg>