<!-- by TradingView --><svg width="56" height="56" viewBox="0 0 56 56" xmlns="http://www.w3.org/2000/svg"><path fill="#181B1E" d="M0 0h56v56H0z"/><path d="M17 13h15v15H17V13Z" fill="#B7F014"/><path fill-rule="evenodd" d="M32.6 30.47c-.52-.18-.86-.8-.6-1.47.48-.09 1.83.32 2.18.54.09.8-.79 1.2-1.58.93Zm-.48-5.88c-2.19-.4-.83.3-2.45-.8-1.45-.97-2.94-.97-4.65-.62-2.45.49-1.7 0-2.76-.09-.35-.04-.75.13-1 .05-.53-.18-1.59-1.82-1.9-2.66-.78-2.3.31-4.77 1.45-4.86 1.63-.09-.96 2.25 1.76 4.6.4.35 2.28 1.77 2.93 1.32.31-.62-.17-1.68.53-2.96.3-.53 1.14-1.81 1.84-.88.22.8-.48 1.9.3 3.45.31.62 1.41 1.85 2.29 1.72.35-.53.52-1.86.08-2.43-.43-.53-1.62-.75-1.35-1.55.48-.8 2.27-.18 3.02.13.83.4 1.31 1.24 1.4 2.4.12 1.4-.28 2.57.98 2.59.17 0 .37-.01.6-.04 1.4-.18 2.66-1.21 3.5-2.23.34-.42.33-.73.77-.73a2 2 0 0 1 .45.07c.07.14.1.31.09.5-.03 1.73-2.55 4.82-3.54 4.3a12.89 12.89 0 0 0-4.12-1.33l-.22.05Zm-8.85 3.49c-.57-.13-1.23-1.15-1.4-1.68-1.32-3.1 1.13-1.9 1.18-1.86 1.31.27 2.72-.53 4.3-.4 2.14.22 1.8 1.37 3.33 1.46a16.14 16.14 0 0 1 4.77 1.1c1.4.63.57.98 1.58 1.6.22.13.44.3.66.44l2.58 1.68c.4.27.84.53 1.28.8.52.35.57.84.26 1.55a3.9 3.9 0 0 1-2.2 2.07c-1.13.36-1.35-.26-3.46.76-.57.27-1.15.4-1.71.4a5.04 5.04 0 0 1-4.07-2.37c-.13-.26-.28-.49-.54-.57a.7.7 0 0 0-.35-.06.53.53 0 0 0-.48.53c.01.96 2.08 3.3 4.83 3.7.83.13.7.49.92 1.28.3 1.15.62 2.44.75 3.63.17 1.64.13 1.6-2.15 2.08a50.4 50.4 0 0 1-7.76.78c-.57 0-1.59 0-1.59-.56 0-.94.67-.62.54-1.46-.53-.31-6.36-.44-6.54-1.72-.09-.67 1.41-.98 2.55-1.64.83-.49 1.54-.87 1.45-1.62-.5-.27-1.02-.68-1-1.1.01-.18.19-.44.63-.82.57-.53 1.5-1.06 1.99-1.86.4-.7 1.53-4.5 1.4-5.21-.57-.4-1.31-.45-1.75-.93Z" fill="#B7F014"/><path d="M32 18.93v5.63c-2.2-.4-.71.29-2.33-.81-1.45-.98-2.94-.98-4.65-.62-1.19.23-1.8-.12-2.87-.13-.26 0-.53.11-.74.1-.92-.02-1.89-1.97-2.14-2.67a5 5 0 0 1-.27-1.46c-.06-1.78 1-2.97 1.81-2.97 1.69 0-.96 1.82 1.76 4.16.4.36 2.28 1.77 2.93 1.33.31-.62-.17-1.68.53-2.96.3-.53 1.22-1.82 1.93-.89.03.12.04.23.04.36 0 .76-.5 1.76.18 3.1.3.61 1.4 1.85 2.28 1.72.2-.31.54-.9.54-1.44 0-1.27-1.95-1.31-2-2.3 0-.07 0-.15.04-.24.44-.75 2.17-.22 2.96.09Zm0 6.82V28h-8.94c-.53-.27-1-1.12-1.17-1.56A3.92 3.92 0 0 1 21.5 25c0-1.2 1.54-.45 1.57-.41 1.32.26 2.7-.54 4.27-.4 2.15.22 1.8 1.37 3.34 1.46.48-.05.84-.03 1.32.1Z" fill="#181B1E"/></svg>