<svg width="112" height="112" viewBox="0 0 56 56" xmlns="http://www.w3.org/2000/svg"><path d="m31.88 24.37-.27.13A12.62 12.62 0 0 1 34 31.94c0 3.43-.62 8.06-5.93 8.06S22 35.37 22 31.94C22 25.93 28.07 21 28.07 21c.42-.41 8.8-7 11.43-7 2.41 0 2.5 2.39 2.5 2.8V40h2v2h-4.67C37.97 42 37 40.88 37 39.53V23.3c-.22-.2-.67-.3-1.13-.3-1.23 0-2.78.76-4 1.37Zm.12 8.68c0-3.79-4-7.05-4-7.05s-3.71 3.37-4 7.05c0 3.58 1.86 4.84 3.71 4.95H28.3c1.85-.1 3.71-1.37 3.71-4.95Z" fill="#F0F3FA"/><path d="M22.5 23.58c-.97-.35-1.9-.6-2.63-.58-.36.01-.66.1-.87.31V39.6A2.37 2.37 0 0 1 16.6 42H12v-2h2V17c0-.42 0-3 2-3 1.99 0 7.39 3.36 10 5.25a30.35 30.35 0 0 0-3.5 4.33Z" fill="#F0F3FA"/><defs><linearGradient id="awxl4yeu0" x1="0" y1="0" x2="56" y2="56" gradientUnits="userSpaceOnUse"><stop stop-color="#0ECBC5"/><stop offset="1" stop-color="#CFD978"/></linearGradient></defs></svg>