<svg width="112" height="112" viewBox="0 0 56 56" xmlns="http://www.w3.org/2000/svg"><path d="M24.07 12.48A16.02 16.02 0 0 1 43.5 24.07h-.02l-.02.01H41.3l-.02-.03a13.9 13.9 0 0 0-26.9 1.2.06.06 0 0 0 .01.05l.03.01.02.01h3.5s.02 0 .03.02l.02.03v2.85c0 .39.04.66.12.82.53 1.03 2.37.66 2.39-.47v-5.12a3.2 3.2 0 0 1 6.28-1.04c.1.31.21.95.21 1.92v7.92c0 .41.03.68.09.82.62 1.35 1.91.83 1.91-.5V23.7c0-.58.04-1 .13-1.25.97-3.02 5.25-3.06 6.22 0 .1.28.14.68.13 1.17v4.87c0 1.52 2.52 1.75 2.52-.07v-3.04l.03-.02v-.01a.05.05 0 0 1 .05-.02h5.65l.04.01.02.04a16.03 16.03 0 0 1-19.1 18.3 16 16 0 0 1-12.67-14.99l.03-.01h2.04a.05.05 0 0 1 .05.04 13.9 13.9 0 0 0 22.59 10.07 13.88 13.88 0 0 0 5.11-11.31.05.05 0 0 0-.03-.02h-1.75c-.01 0-.02 0-.03.02a.06.06 0 0 0-.02.03c-.05.54.05 1.34-.11 1.89a3.47 3.47 0 0 1-3.48 2.39 3.18 3.18 0 0 1-2.93-2.25c-.07-.22-.1-.52-.11-.9-.03-1.39-.04-2.77-.02-4.15 0-.8.1-1.94-.83-2.18-.67-.17-1.54.48-1.53 1.18v8.24c0 2.05-.54 4.13-3.13 4.13-1.8-.1-2.87-1.47-2.87-3.28v-9.1c0-1.2-1.85-1.6-2.29-.5-.04.1-.06.27-.06.5v.51c-.03.5-.03 1.85-.02 4.09 0 .7-.04 1.2-.13 1.47a3.5 3.5 0 0 1-3.45 2.24 3.1 3.1 0 0 1-2.57-1.51c-.56-.88-.47-1.78-.47-2.72a.12.12 0 0 0-.04-.08.12.12 0 0 0-.08-.04H12.02l-.02-.04v-.24a16.01 16.01 0 0 1 12.06-14.67Z" fill="url(#b)"/><defs><linearGradient id="a" x1="10.42" y1="9.71" x2="68.15" y2="76.02" gradientUnits="userSpaceOnUse"><stop stop-color="#1A1E21"/><stop offset="1" stop-color="#06060A"/></linearGradient><linearGradient id="b" x1="37.34" y1="16.44" x2="18.57" y2="41.35" gradientUnits="userSpaceOnUse"><stop stop-color="#FFDC40"/><stop offset="1" stop-color="#E78B24"/></linearGradient></defs></svg>