<!-- by TradingView --><svg width="56" height="56" viewBox="0 0 56 56" xmlns="http://www.w3.org/2000/svg"><path fill="url(#a)" d="M0 0h56v56H0z"/><path d="M39.17 16.68c-.18.08-.28.18-.3.3 0 .05.02.08.06.11.59.42 1 .98 1.22 1.66.01.05 0 .08-.04.1-.04 0-.07 0-.09-.04-.13-.33-.35-.6-.67-.78-.02-.01-.04 0-.05.01-.02.03-.02.05 0 .07.41.33.5.72.28 1.19a.15.15 0 0 0 0 .16 2.12 2.12 0 0 0 .55.59l-.03.08c0 .04-.03.04-.06.02-.27-.22-.55-.3-.85-.27a.06.06 0 0 0-.05.04c-.01.03 0 .05.02.06l.3.23c.05.04.07.1.06.16-.08.37-.22.7-.4 1-.03.03-.06.04-.1.03-.05-.02-.07-.05-.06-.1.05-.4-.13-.6-.56-.6-.39.02-.63.17-.72.45-.16.49-.37.82-.61 1-.02.02-.02.03-.01.05l.04.02c.27-.07.6-.36.96-.9a.11.11 0 0 1 .12-.05.1.1 0 0 1 .09.08l.01.05c.05.13.03.26-.05.38-.38.58-.9.98-1.57 1.19-.3-1.07-.62-2.03-1-2.9a10.99 10.99 0 0 0-3.43-4.39c.42-.17.8-.15 1.17.06.06.04.12.05.18.06l1.9.1c.08.01.14-.02.19-.1.07-.1.1-.23.1-.4 0 0 0-.02-.02-.02s-.03 0-.03.02l-.08.24c-.03.1-.1.14-.2.13l-1.93-.16a.23.23 0 0 1-.1-.04c-.28-.19-.66-.24-1.15-.15a.25.25 0 0 0-.17.13c-.09.15-.18.36-.26.63l-.2.36c-.09.14-.06.3.08.48h-2.5a52.9 52.9 0 0 0-4.92.12c-.07 0-.1-.02-.13-.08-.13-.4-.16-.79-.08-1.17-.27-1.19-.9-1.73-1.87-1.63a.41.41 0 0 1-.4-.17 1.97 1.97 0 0 0-.6-.52.48.48 0 0 1 .16-.13 16.1 16.1 0 0 1 17.66 2.98c.1.08.14.17.14.26Z" fill="#4F161F"/><path d="m21.14 13.64.8.74a.2.2 0 0 0 .14.05h.56c.26 0 .45.1.6.3l.5.7c.05.08.07.16.06.25-.08.56-.04 1.1.13 1.65-1.84.9-2.74 2.44-2.7 4.62.01.7-.03 1.2-.12 1.53a.13.13 0 0 1-.08.08c-.48.22-.7.74-.63 1.55h-.02a1 1 0 0 0-.54.11c-.22.13-.44.24-.66.31l.15-.66c.02-.08-.01-.12-.1-.12-.09 0-.2.05-.33.13-.03.02-.06.01-.09-.01-.02-.03-.02-.06 0-.09.2-.28.5-.53.9-.74a.07.07 0 0 0 .04-.06.06.06 0 0 0-.04-.06c-.26-.12-.54-.2-.84-.23a.23.23 0 0 1-.12-.05l-.85-.63c-.04-.03-.05-.07-.02-.11.03-.05.07-.06.12-.03.55.3 1 .39 1.32.25.03-.01.04-.03.04-.06s-.02-.04-.05-.05c-.48-.07-.92-.3-1.34-.68v-.03c.01-.02.03-.02.04-.01.46.36.99.56 1.59.59.08 0 .14-.01.2-.04a.11.11 0 0 0 .06-.1.11.11 0 0 0-.05-.1c-.27-.2-.6-.34-1-.42a.18.18 0 0 1-.14-.13l-.05-.18a.13.13 0 0 0-.1-.1l-1-.22a.3.3 0 0 1-.18-.12l-.54-.79c-.02-.04-.02-.07 0-.11.03-.04.06-.05.1-.04l1.63.35c.02 0 .04 0 .04-.03l.02-.08c.01-.04 0-.07-.04-.08l-.7-.3c-.05-.3-.28-.6-.7-.87-.42-.39-.75-.8-1-1.24-.04-.08-.03-.14.04-.2l.13-.13a.28.28 0 0 0 .09-.15l.24-1.08c.14-.18.27-.29.4-.32.2.31.4.57.63.76.04.03.07.03.1 0 .04-.02.05-.05.03-.09l-.43-1c.28-.32.6-.57.92-.74l.76.66c.06.06.12.08.18.08.07 0 .09-.04.04-.1l-.7-.91c.74-.54 1.55-1.02 2.43-1.44.03-.01.07 0 .13.02Z" fill="#4F161F"/><path d="M21.2 13.57c.25.13.45.3.61.52.1.13.23.19.4.17.97-.1 1.6.44 1.87 1.63-.1.72.01 1.44.34 2.14.02.03.01.06-.01.08l-.06.05c-.06.06-.1.05-.14-.02a2.34 2.34 0 0 1-.28-.81 3.72 3.72 0 0 1-.13-1.65.32.32 0 0 0-.06-.25l-.5-.7a.7.7 0 0 0-.6-.3h-.56a.2.2 0 0 1-.14-.05l-.8-.74.07-.07Z" fill="#DE524F"/><path d="m18.59 15.06.7.92c.04.05.02.09-.05.09-.06 0-.12-.02-.18-.07l-.76-.67c.02-.06.12-.15.29-.27Z" fill="#E1B5AF"/><path d="m32.23 15.68-.25.86a.2.2 0 0 1-.08.1.71.71 0 0 0-.04.04c-.07.05-.09.1-.04.18.05.11.1.22.11.34.01.08.05.14.1.19.5.38 1.03.88 1.6 1.48.5.55.78 1.24.82 2.05.04.84 0 1.84-.14 2.97.02-.25 0-.49-.03-.72-.02-.1-.03-.1-.04 0v.65l-.06-3.28c0-.12.01-.13.04 0v.17c.02 1.12 0 1.86-.03 2.24 0 .03.01.05.04.05.02 0 .04-.01.04-.03.07-1 .08-1.74 0-2.23a3.38 3.38 0 0 0-.92-2c-.58-.59-1.03-1-1.34-1.24-.01-.02-.03-.02-.05 0-.02 0-.03.02-.02.04l.07.63h.02l.06-.01c.04-.01.08 0 .12.04l2.18 2.35c.02.02.02.03 0 .04-.01.02-.02.02-.04 0l-.24-.22c-.02.01-.04.01-.05-.01a8.94 8.94 0 0 0-1.93-1.84.14.14 0 0 1-.05-.19v-.02h-.01c-.01-.03-.02-.03-.02 0l-.15 1.98-.24-.07.16-1.28-.1-1.92c-.15-.18-.18-.34-.1-.48l.2-.36c.1-.27.18-.48.27-.63.04-.07.1-.11.17-.13.5-.09.87-.04 1.14.15l.1.04 1.93.16c.1.01.18-.03.21-.13l.08-.24c0-.02.01-.02.03-.02.02 0 .02.01.02.03 0 .16-.03.3-.1.4a.21.21 0 0 1-.2.1l-1.89-.11a.41.41 0 0 1-.18-.06 1.27 1.27 0 0 0-1.17-.06Z" fill="#DE524F"/><path d="M32.23 15.68a10.99 10.99 0 0 1 3.44 4.39c.36.87.7 1.83 1 2.9.08.08.21.12.38.1.04 0 .06.01.07.04.01.04 0 .07-.03.08-.34.16-.57.3-.7.41-.06.06-.07.12-.02.2.05.07.1.09.19.05.32-.14.59-.32.8-.52.02-.02.05-.03.07 0 .02.01.03.03.01.06-.1.2-.24.38-.4.5-.03.03-.04.06-.02.1.02.03.04.04.08.04.29-.06.54-.18.77-.37.02-.02.04-.02.07 0 .02.02.03.04.01.07-.24.54-.63.9-1.16 1.1-.11.03-.35.1-.7.17l-.79.98c-.04.05-.1.06-.16.03l-.91-.53a.14.14 0 0 1-.08-.14l.08-1.52.01-.64c0-.11.02-.11.04 0 .04.22.05.46.03.72.13-1.14.18-2.14.14-2.98a3.13 3.13 0 0 0-.83-2.05c-.56-.6-1.09-1.1-1.58-1.48a.28.28 0 0 1-.11-.2 1 1 0 0 0-.12-.33c-.04-.07-.02-.13.04-.18l.05-.03a.2.2 0 0 0 .08-.11l.25-.86Z" fill="#6E171E"/><path d="M24.08 15.89c-.08.38-.06.78.08 1.17.02.06.06.08.13.08 1.1-.1 2.74-.14 4.92-.12h2.5l.11 1.92c-.7.1-1.4.26-2.08.46-.98.3-1.8.36-2.44.2a20.5 20.5 0 0 0-2.53-.47c-.06 0-.1-.05-.1-.11 0-.11-.04-.25-.1-.42-.01-.06-.05-.09-.12-.08-.06.02-.09.05-.08.12l.1 1.65c-.24.14-.46.3-.68.46-.3.22-.33.52-.1.89.15.25.39.49.71.72.12.72.26 1.43.41 2.12.06.26 0 .74-.2 1.43a.38.38 0 0 0 .02.25l.04.11c.01.03.03.04.06.04s.05-.01.06-.04a4.7 4.7 0 0 0 .08-2.66 5.68 5.68 0 0 0 1.76-.44c1.02-.47 1.71-.65 2.08-.53l.52.17c.54.2.95.31 1.23.36.46.09.87.07 1.24-.05.31.57.5.96.54 1.17.07.29.08.84.02 1.65 0 .07.03.1.1.07l.12-.05c.1-.05.15-.12.13-.24l-.19-1.43a.42.42 0 0 0-.03-.12l-.73-1.72c.69-.22 1.12-.62 1.31-1.21.06-.19 0-.33-.16-.43l-.91-.52.15-1.98c0-.03.01-.03.02 0v.02a.14.14 0 0 0 .05.19 8.94 8.94 0 0 1 1.94 1.84c.01.02.03.02.05 0l.24.23c.02.02.03.02.04 0 .02-.01.02-.02 0-.04l-2.18-2.35a.12.12 0 0 0-.12-.04.95.95 0 0 0-.06.02l-.02-.01-.07-.63c0-.02 0-.04.02-.05H32c.31.25.76.66 1.34 1.25.5.5.82 1.17.93 2 .07.49.06 1.23-.01 2.23 0 .02-.02.03-.04.03-.03 0-.04-.02-.04-.05a27.74 27.74 0 0 0 .03-2.41c-.03-.13-.04-.12-.04 0l.05 3.28-.08 1.52c0 .06.02.11.08.14l.9.53c.07.03.13.02.17-.03l.78-.98c-.05.6-.3 1.12-.75 1.54-.01.02-.02.04 0 .06 0 .02.02.03.04.02a.67.67 0 0 0 .46-.28.16.16 0 0 1 .1-.06c.12-.03.17.03.14.17-.05.22-.12.41-.24.56-.15.2-.33.26-.53.18-.2-.65-.59-1.03-1.18-1.12-.87-.15-1.55-.02-2.04.37-.54.43-.72 1.1-.55 1.98.13.72.54 1.18 1.22 1.38 0 .08-.03.15-.11.22l-.17 3.97c0 .2.05.38.17.54.5.64 1.1 1.12 1.83 1.44-1.46 0-2.34-.64-2.63-1.92a6.45 6.45 0 0 1 .24-2.78c.14-.56-.03-.9-.5-1.01.01-.22-.02-.42-.1-.61a.05.05 0 0 0-.04-.03.04.04 0 0 0-.04.03c-.1.24-.08.46.03.66-.34.18-.7.29-1.1.33a3.7 3.7 0 0 1-1.21-.19l-.37-.1a1.9 1.9 0 0 0-.78-.02l-.39.07c-.53.1-.93.15-1.2.15-.44 0-.88-.1-1.34-.27.14.04.21.02.21-.08 0-.34-.02-.7-.08-1.12 0-.04-.02-.05-.06-.05-.04 0-.06.02-.06.06l-.07 1.02c-.24.28-.33.57-.28.86.27 1.26.39 2.55.37 3.87 0 .2-.1.34-.28.41l-1.75.72c-.06.02-.1 0-.13-.05-.02-.05-.01-.1.04-.13.57-.38 1.14-.83 1.7-1.34l-.4-3.88c.04-.28-.02-.5-.18-.65-.12-.05-.18-.1-.2-.16.71-.2 1.12-.66 1.22-1.38.07-.53.02-1-.15-1.39-.2-.45-.54-.73-1.01-.86-1.18-.3-2.06-.02-2.64.85l-.7-.7c.02-.02.03-.08 0-.16.07-.45 0-.78-.19-1-.06-.82.15-1.34.63-1.56a.13.13 0 0 0 .07-.08c.1-.33.14-.84.13-1.53-.04-2.18.86-3.72 2.7-4.62.05.3.14.57.28.81.04.07.08.08.14.02l.06-.05c.02-.02.03-.05.01-.08a3.68 3.68 0 0 1-.34-2.14Z" fill="#9F191F"/><path d="m17.38 16.07.43 1c.02.04 0 .07-.03.1-.03.02-.06.02-.1 0-.22-.2-.44-.46-.64-.77a1 1 0 0 1 .34-.33Z" fill="#E08B86"/><path d="M39.17 16.68c.06-.01.12 0 .17.07.82.82 1.53 1.7 2.13 2.62-.38.5-.69 1.03-.91 1.57-.17.4-.25.83-.25 1.26 0 .23 0 .66-.02 1.29 0 .55.1 1.16.31 1.82.02.07.1.14.2.2.07.05.1.1.1.2l-.08 1.45c0 .02 0 .03.02.03h.05l1.82-2.44.69-1.03.18.78a28.78 28.78 0 0 0-2.34 3.27 15.27 15.27 0 0 0-.97 2.1l-.42 1.92v.12l.09.89c0 .05.03.08.08.09.06.01.1 0 .12-.06l.52-.99c.07-.14.19-.21.35-.21.16 0 .28.07.35.21l.03.05a.2.2 0 0 0 .2 0 .2.2 0 0 0 .12-.18c.08-.71.3-1.35.68-1.9.07-.09.23-.1.48-.05.07.02.12 0 .16-.07l.24-.41c.02-.05.07-.07.12-.05.06 0 .08.04.09.1 0 .3-.03.61-.1.96-.06.3.02.6.24.91l-.39 1.63c-.13.03-.22-.11-.28-.43a.1.1 0 0 0-.1-.09c-.05 0-.08.02-.1.06-.14.27-.21.54-.22.82-.01.35.1.6.32.74a15.3 15.3 0 0 1-3.2 5.03c-.13-.1-.18-.2-.13-.3.05-.11.07-.2.06-.23 0-.06-.04-.1-.1-.1-.05 0-.09.03-.1.08-.1.34-.26.48-.52.43-.4-.08-.58-.33-.52-.76 0-.03 0-.06-.04-.07-.03-.01-.06 0-.08.02l-.26.35c-.07.1-.15.1-.23.01l-.66-.7c-.06-.08-.12-.07-.17.01l-.06.1c-.03.07-.09.1-.16.1a.17.17 0 0 1-.15-.12l-.2-.5a.32.32 0 0 0-.17-.17 1.54 1.54 0 0 1-.65-.66c-.13-.22-.29-.24-.48-.06l-.56-.42a4.59 4.59 0 0 1-1.83-1.44.82.82 0 0 1-.17-.54l.17-3.97c.59.06 1.18 0 1.79-.18.45-.13 1.02-.38 1.7-.73l.01.74c.33.21.7.34 1.11.38.08 0 .12.04.13.11.02.1.03.24.04.43 0 .4.08.68.2.84.38.48.63 1.04.76 1.67 0 .02.02.04.04.04s.03-.01.04-.04a2 2 0 0 0-.4-1.91c-.11-.13-.14-.4-.1-.8.01-.07.05-.11.1-.15.21-.13.34-.25.4-.36.02-.06.07-.08.13-.06.14.04.44.05.9.03.1 0 .18-.03.24-.1a.07.07 0 0 0 .02-.07.07.07 0 0 0-.05-.05l-.08-.02c.04 0 .07-.01.11-.05a.07.07 0 0 0 .02-.04v-3.45c0-.09-.05-.13-.13-.13h-.76c-.09 0-.13.04-.13.12v1.52c0 .05-.02.07-.06.09-.04.02-.08 0-.1-.03l-1.33-1.56a.23.23 0 0 0-.1-.08 1.61 1.61 0 0 0-1-.02c0 .15-.03.25-.07.29.03-.14-.02-.2-.14-.17a.16.16 0 0 0-.1.06.67.67 0 0 1-.46.28c-.02 0-.04 0-.05-.02l.01-.06c.45-.42.7-.94.75-1.54.36-.08.6-.14.71-.18.53-.19.92-.55 1.16-1.09.02-.03.01-.05-.01-.07-.03-.02-.05-.02-.07 0-.23.19-.48.3-.77.37-.04 0-.06-.01-.08-.04-.02-.04-.01-.07.02-.1.16-.12.3-.3.4-.5.02-.03.01-.05-.01-.07-.02-.02-.05-.01-.07 0-.21.21-.48.39-.8.53-.08.04-.14.02-.2-.05-.04-.08-.03-.14.03-.2.13-.11.36-.25.7-.4.03-.02.04-.05.03-.09-.01-.03-.03-.05-.07-.04-.17.02-.3-.02-.39-.1.66-.21 1.19-.6 1.57-1.2.08-.11.1-.24.05-.37l-.01-.05a.1.1 0 0 0-.1-.08.11.11 0 0 0-.11.05c-.37.54-.69.83-.96.9-.02 0-.03 0-.04-.02v-.04c.25-.19.46-.52.62-1.01.09-.28.33-.43.72-.44.43-.01.61.19.56.6 0 .04.01.07.05.09.05.01.08 0 .1-.04.2-.29.33-.62.4-.99a.15.15 0 0 0-.05-.16l-.3-.23a.06.06 0 0 1-.02-.06c0-.02.02-.04.05-.04.3-.04.58.05.85.27.03.02.05.02.06-.02l.03-.08v-.01c-.22-.17-.4-.36-.54-.58a.15.15 0 0 1-.01-.16c.22-.47.13-.86-.27-1.19-.03-.02-.03-.04-.02-.06.02-.03.04-.03.06-.02.32.19.54.45.67.78.02.04.05.05.09.03.04-.01.05-.04.04-.09a3.22 3.22 0 0 0-1.22-1.66.11.11 0 0 1-.05-.11c0-.12.1-.22.3-.3ZM16.65 16.72l-.24 1.08a.28.28 0 0 1-.09.15l-.13.13c-.07.06-.08.12-.04.2.25.44.58.85 1 1.24-.03.18-.21.1-.54-.22-.02-.02-.04-.03-.06-.01a.06.06 0 0 0-.03.04c0 .03 0 .05.02.08.33.45.77.78 1.31.99l.7.29c.04.01.05.04.04.08l-.02.08c0 .03-.02.04-.04.03l-1.62-.35a.1.1 0 0 0-.1.04c-.03.04-.03.08 0 .11l.53.79c.05.07.1.1.19.12l.98.22c.06.01.09.04.1.1l.06.18c.02.07.07.12.15.13.4.08.72.22.99.42.03.03.05.06.05.1 0 .04-.02.07-.06.1a.34.34 0 0 1-.2.04 2.72 2.72 0 0 1-1.59-.6l-.04.01c-.02.02-.01.03 0 .04.42.38.86.6 1.34.68.03 0 .04.02.05.05 0 .03-.01.05-.04.06-.32.14-.77.06-1.32-.25-.05-.03-.09-.02-.12.03-.03.04-.02.08.02.11l.85.63c.03.03.08.05.12.05.3.03.58.1.84.23.02.01.03.03.03.06s0 .05-.03.06c-.4.2-.7.46-.9.74-.03.03-.02.06 0 .09.03.02.05.03.09 0a.75.75 0 0 1 .33-.12c.09 0 .12.04.1.12l-.15.66c-.65.13-1.3.2-1.98.2-.5.01-.89.17-1.13.48-.16.2-.3.56-.47 1.1l-.08.31c-.13.42-.3.6-.52.56l-.5-1.49a.31.31 0 0 0-.07-.11l-.59-.63a3.2 3.2 0 0 0-1.42-1.6c.7-2.94 2.11-5.48 4.23-7.63Z" fill="#D6CBC5"/><path d="m31.82 18.94-.16 1.28c-.61.04-1.12.36-1.52.94-.1.14-.1.29 0 .43.27.44.7.72 1.25.83.15.17.25.4.3.7a2.5 2.5 0 0 1-1.23.05 9.13 9.13 0 0 1-1.23-.36l-.52-.17c-.37-.12-1.06.06-2.08.53-.12.05-.21.1-.26.11-.32.14-.81.25-1.5.33a2 2 0 0 1-.03-1.13c.43-.05.83-.21 1.2-.47.47-.33.56-.68.26-1.05a1.8 1.8 0 0 0-1.83-.67l-.1-1.65c0-.07.02-.1.08-.12.07 0 .1.02.13.08.05.17.08.3.09.42 0 .06.04.1.1.1.75.1 1.59.25 2.53.48.64.16 1.46.1 2.44-.2.68-.2 1.38-.35 2.08-.46Z" fill="#D8171F"/><path d="M17.15 19.52c.42.28.65.57.7.88-.54-.21-.98-.54-1.31-.99-.02-.03-.03-.05-.02-.08 0-.02.01-.03.03-.04.02-.02.04-.01.06 0 .33.33.51.4.54.23Z" fill="#E08B86"/><path d="M41.47 19.37a16.31 16.31 0 0 1 1.93 4.35l-.69 1.02-1.82 2.44c-.01.02-.03.02-.05.01-.01 0-.02-.01-.02-.03l.08-1.46a.2.2 0 0 0-.1-.19c-.1-.06-.18-.13-.2-.2a5.6 5.6 0 0 1-.3-1.82v-1.3c0-.42.09-.84.26-1.25.22-.54.53-1.07.91-1.57Z" fill="#DE524F"/><path d="M24.84 22.48c-.11.02-.26-.02-.44-.12a2.54 2.54 0 0 1-.72-.72c-.22-.37-.19-.67.11-.9l.68-.45a1.8 1.8 0 0 1 1.83.67c.3.37.21.72-.26 1.05-.37.26-.77.42-1.2.47ZM31.66 20.22l.24.07.9.52c.18.1.23.24.17.43-.19.59-.62 1-1.3 1.21l-.28-.03a1.84 1.84 0 0 1-1.26-.83.36.36 0 0 1 .01-.43c.4-.58.9-.9 1.52-.94Z" fill="#FDD1CB"/><path d="M24.84 22.48a2 2 0 0 0 .03 1.13c.23.9.2 1.78-.08 2.66-.01.02-.03.04-.06.04a.06.06 0 0 1-.06-.04l-.04-.11a.38.38 0 0 1-.02-.25c.2-.69.26-1.17.2-1.43-.15-.7-.29-1.4-.4-2.12.17.1.32.14.43.12ZM31.66 22.45l.73 1.72.03.12.2 1.43c0 .12-.04.2-.14.24l-.13.05c-.06.02-.1 0-.1-.07.07-.81.06-1.36 0-1.65a5.7 5.7 0 0 0-.55-1.17c-.06-.3-.16-.53-.3-.7l.26.03ZM15 28.18l1.15 1.4c-.08.08-.03.13.15.16.26.04.52.06.78.07.07.06.1.15.09.25-.03.41 0 .82.06 1.23.01.07.04.13.08.18.3.37.5.78.61 1.22l-.08.6c0 .03-.03.06-.07.06-.04 0-.07-.01-.08-.05l-.75-1.83c-.03-.09-.1-.12-.2-.1l-.39.08c-.62.13-1.06.17-1.3.12a5.04 5.04 0 0 1-1.36-.57 3.9 3.9 0 0 1-.8-1.89c-.01-.03-.03-.05-.07-.05-.03 0-.05.02-.06.05a3.06 3.06 0 0 0 .05 1.15l.84 2.06c.03.07.07.14.13.2l.1.12c.46.5.74.88.87 1.16.2.47.17.94-.1 1.4a.27.27 0 0 0-.04.1l-.22 1.12a15.9 15.9 0 0 1-1.97-12.07 3.2 3.2 0 0 1 1.42 1.6l.59.63.07.11.5 1.5ZM43.58 24.5c.14.53.24 1.06.3 1.6a31.12 31.12 0 0 1 .1 2.56c-.02.04-.04.06-.03.08 0 .8-.1 1.62-.33 2.46-.22-.3-.3-.6-.24-.91.07-.35.1-.67.1-.96 0-.06-.03-.1-.09-.1-.05-.02-.1 0-.12.05l-.24.41c-.04.07-.1.09-.16.07-.25-.06-.41-.04-.48.06-.38.54-.6 1.18-.68 1.9a.2.2 0 0 1-.11.17.2.2 0 0 1-.21 0l-.03-.05a.37.37 0 0 0-.35-.21.37.37 0 0 0-.35.21l-.52 1c-.03.04-.06.06-.12.05-.05-.01-.08-.04-.08-.1l-.1-.88.01-.12.42-1.91.01-.03c.37-.94.7-1.63.96-2.08.58-.97 1.36-2.06 2.34-3.27Z" fill="#DE524F"/><path d="M20.4 25.11c.19.23.26.56.2 1.01h-1.5c-.13 0-.2.06-.24.19l-.38 1.75c-.01.06-.05.09-.1.1-.07 0-.1-.04-.12-.1l-.45-1.82c-.02-.09-.08-.13-.17-.13h-1.38c-.1 0-.14.04-.14.13l.03 3.34-1.15-1.4c.22.05.39-.14.52-.56l.08-.3c.16-.55.31-.92.46-1.1.25-.32.63-.48 1.14-.48.68-.01 1.33-.08 1.98-.2.22-.08.44-.19.66-.32a1 1 0 0 1 .54-.1h.02Z" fill="#E08B86"/><path d="M23.88 29.76c-.56.15-1.1.14-1.6-.03-.57-.2-.92-.57-1.03-1.13-.12-.55-.1-1.09.04-1.62.58-.87 1.46-1.16 2.64-.85.47.12.81.41 1.01.86.17.4.22.86.15 1.39-.1.72-.5 1.18-1.21 1.38ZM35.3 27.2c.15.56.17 1.03.07 1.41-.14.51-.5.87-1.05 1.08-.48.18-1 .21-1.57.11a1.66 1.66 0 0 1-1.22-1.38c-.17-.89.01-1.55.55-1.98.49-.39 1.17-.52 2.04-.37.6.1.99.47 1.18 1.12ZM27.17 26.09a63 63 0 0 1 1.67 0c.09 0 .14.05.14.15v.65c0 .08-.05.13-.13.13h-.98c-.08 0-.12.04-.12.12v2.55c0 .06-.03.1-.1.1a10.57 10.57 0 0 1-.98 0c-.06 0-.1-.04-.1-.1l.01-2.55c0-.08-.04-.12-.12-.12h-.97c-.09 0-.13-.05-.13-.13v-.66c0-.1.05-.14.14-.14h1.67ZM30.65 26.08h-.95a.11.11 0 0 0-.12.11v3.48c0 .07.05.12.1.12h.97c.06 0 .11-.05.11-.11v-3.49a.11.11 0 0 0-.1-.11ZM20.6 26.12c.02.08.01.14 0 .16l-.05 2.65c-.03.24-.02.45.02.6.01.07 0 .13-.04.18a.2.2 0 0 1-.16.07h-.8c-.15 0-.22-.07-.2-.22l.11-2.08c0-.07-.02-.08-.07-.04-.06.04-.1.13-.14.26-.07.23-.23.87-.49 1.94-.02.1-.08.14-.18.14h-.62c-.1 0-.17-.05-.2-.15l-.55-2.25c0-.01-.02-.02-.03-.01l-.06.02c-.07.01-.1.05-.09.11.1.71.14 1.43.13 2.15 0 .04-.03.1-.1.16-.26 0-.52-.03-.78-.07-.18-.03-.23-.08-.15-.16l-.03-3.34c0-.09.05-.13.14-.13h1.38c.1 0 .15.04.17.13l.45 1.83c.02.05.05.08.11.08s.1-.03.11-.09l.38-1.75c.03-.13.11-.19.24-.19h1.5ZM39.62 29.8c-.29.03-.56.02-.83-.05a.24.24 0 0 1-.13-.08l-1.34-1.58c-.02-.03-.06-.04-.1-.03-.04.02-.06.05-.06.1v1.54c0 .05-.03.08-.08.08l-.93.07-.02-.74.02-2.95c.35-.1.68-.09 1 .02.03.02.07.04.1.08l1.31 1.56c.03.04.07.05.11.03.04-.02.06-.04.06-.09v-1.52c0-.08.04-.12.13-.12h.76c.08 0 .13.04.13.13v3.45c0 .01 0 .03-.02.04-.03.04-.07.06-.1.05Z" fill="#FFFEFE"/><path d="M36.14 26.16v2.95c-.7.35-1.26.6-1.71.73-.6.18-1.2.24-1.79.18.08-.07.11-.14.1-.22.57.1 1.1.07 1.58-.11.56-.2.9-.57 1.05-1.08.1-.38.08-.85-.07-1.42.2.08.38.02.53-.18.12-.15.2-.34.24-.56.04-.04.06-.14.07-.3Z" fill="#E08B86"/><path d="M21.3 26.98a3.37 3.37 0 0 0-.05 1.62c.11.56.46.93 1.04 1.13.5.17 1.03.18 1.59.03 0 .05.07.1.2.16-1.16.35-2.12.1-2.9-.76a.24.24 0 0 0-.3-.06c-.16.07-.27.01-.33-.17l.05-2.65.7.7Z" fill="#DE524F"/><path d="M23.2 26.91h-.15c-.4 0-.71.32-.71.72v.6c0 .4.32.72.72.72h.14c.4 0 .72-.33.72-.72v-.6c0-.4-.32-.72-.72-.72Z" fill="#9F191F"/><path d="M34.28 27.8c-.43-.05-.7.06-.8.34-.11.28-.13.56-.05.85-.26-.02-.47-.16-.63-.42a1.25 1.25 0 0 1-.15-.92c.05-.24.15-.43.3-.58a.7.7 0 0 1 .53-.2c.2 0 .38.1.54.28.15.17.24.39.26.65Z" fill="#D8171F"/><path d="M20.55 28.93c.06.18.17.24.33.17a.24.24 0 0 1 .3.06c.78.85 1.74 1.1 2.9.76.15.15.2.37.18.65l-2.46.13c-.02 0-.05 0-.08.02l-.87.21c-.17.19-.34.31-.52.38-.07.02-.13 0-.17-.06l-.45-.7c-.02-.02-.04-.03-.07-.02-.03.01-.04.03-.04.06.04.45.15.88.35 1.3.03.06.08.11.16.14.15.06.28.13.37.23.02.02.04.02.07 0 .35-.17.58-.17.67 0 .07.1.12.22.15.35a4.76 4.76 0 0 1-1.26-.31.51.51 0 0 0-.15-.04c-.73-.05-1.4.09-2.04.43-.1-.44-.3-.85-.6-1.22a.38.38 0 0 1-.09-.18 5.61 5.61 0 0 1-.06-1.23c0-.1-.02-.19-.09-.25.07-.06.1-.12.1-.16.01-.72-.03-1.44-.13-2.15 0-.06.02-.1.09-.11l.06-.02.02.01.56 2.25c.03.1.1.15.2.15h.62c.1 0 .16-.05.18-.14.26-1.07.42-1.71.49-1.94.03-.13.08-.22.14-.26.05-.04.08-.03.07.04l-.12 2.08c0 .15.06.22.22.22h.8a.2.2 0 0 0 .15-.07c.04-.05.05-.11.04-.17a1.84 1.84 0 0 1-.02-.61Z" fill="#E1B5AF"/><path d="M34.28 27.8c.04.3-.02.57-.17.8-.18.28-.4.4-.68.39-.08-.28-.06-.57.04-.85s.38-.4.81-.34Z" fill="#E08B86"/><path d="m39.62 29.8.08.01c.02 0 .04.02.05.05 0 .03 0 .05-.02.07a.35.35 0 0 1-.24.1c-.46.02-.76.01-.9-.03-.06-.02-.1 0-.13.06-.06.1-.19.23-.4.36a.19.19 0 0 0-.1.15c-.04.4-.01.67.1.8a2 2 0 0 1 .4 1.91c0 .03-.02.04-.04.04s-.04-.02-.04-.04a3.86 3.86 0 0 0-.76-1.67c-.12-.16-.2-.44-.2-.84 0-.2-.02-.34-.04-.43-.01-.07-.05-.1-.13-.11a2.42 2.42 0 0 1-1.1-.38l.93-.07c.05 0 .08-.03.08-.08v-1.55c0-.04.02-.07.06-.09.04-.01.08 0 .1.03l1.34 1.58c.03.04.07.07.13.08.27.07.54.08.83.04Z" fill="#DE524F"/><path d="M25.04 30.28c-.06-.03-.08-.09-.06-.17l.07-1.02c0-.04.02-.06.06-.06.04 0 .06.01.06.05.06.41.08.78.08 1.12 0 .1-.07.13-.2.08Z" fill="#E08B86"/><path d="M17.92 32.7a3.61 3.61 0 0 1 2.04-.44 4.77 4.77 0 0 0 1.42.35c.19.3.2.14.02-.5-.1-.36-.29-.76-.55-1.18l.87-.21.08-.02 2.45-.13.4 3.88c-.2.05-.31-.03-.33-.24 0-.06-.04-.1-.1-.1-.05-.01-.1 0-.12.06-.12.25-.28.45-.47.6-.26.19-.49.18-.69-.03-.02-.02-.05-.03-.08-.02-.03.02-.04.04-.04.08.03.33-.12.56-.45.68-.1.03-.15 0-.17-.1-.01-.04-.04-.07-.09-.1-.08-.04-.13-.02-.13.08-.01.14-.04.24-.08.3-.05.07-.11.1-.2.07a.22.22 0 0 1-.15-.15c-.06-.2-.12-.3-.18-.33-.07-.04-.1-.02-.1.07.01.37-.08.66-.27.87-.19.2-.46.43-.81.7a.39.39 0 0 0-.16.38c0 .04-.01.07-.05.1a.08.08 0 0 1-.1-.01c-.07-.06-.1-.15-.08-.28 0-.04.07-.17.17-.37v-.06c-.03-.02-.05-.02-.07 0-.38.27-.66.6-.85.97-.03.06-.08.08-.15.06l-.35-.12c-.13-.05-.24-.02-.32.1-.08.1-.07.22.03.32.06.06.11.15.16.26.03.07.01.11-.06.12-.52.06-.78.34-.78.82 0 .1-.05.16-.15.19-.1.02-.17-.01-.22-.1-.14-.26-.2-.6-.21-1a.5.5 0 0 0-.05-.2l-.17-.33a.3.3 0 0 1-.01-.24l.4-1.25c.02-.02 0-.04-.01-.04-.02-.01-.04 0-.04.01l-.61 1.2c-.06.11-.1.22-.12.34l-.2.99a12.08 12.08 0 0 1-1.8-2.33l.22-1.13.03-.09c.28-.46.31-.93.1-1.4a4.96 4.96 0 0 0-.96-1.28.64.64 0 0 1-.13-.2l-.84-2.06a3.06 3.06 0 0 1-.05-1.14c0-.04.03-.06.06-.06.04 0 .06.02.07.05.18.88.45 1.51.8 1.9l.14.1c.45.23.85.38 1.21.46.25.05.69.01 1.31-.12l.4-.08c.1-.02.16.01.2.1l.74 1.83c.01.04.04.06.08.05.04 0 .06-.03.07-.07l.08-.59Z" fill="#D6CBC5"/><path d="M31.58 30.26a.37.37 0 0 1-.15.05.77.77 0 0 1-.03-.66c0-.02.02-.03.04-.03s.04 0 .05.03c.07.19.1.4.09.6Z" fill="#DE524F"/><path d="m34.47 35.97.56.42c.38.46.61 1 .7 1.63 0 .02 0 .02-.02.02a.38.38 0 0 0-.04-.02l-.5.6c-.26.29-.64.53-1.14.73-.33.12-.59.27-.76.44-.34.32-.73.58-1.2.77l-1.34.58c-.9.4-1.59.7-2.07.87-.84.3-1.93.09-3.28-.66a1.5 1.5 0 0 0-.26-.1 23.54 23.54 0 0 0-7.45-1.03l-1.49-1.47.2-1c.03-.1.07-.22.13-.33l.6-1.2c.01-.02.03-.02.04-.02.03.01.04.03.03.05l-.41 1.25a.3.3 0 0 0 .01.24l.17.32a.5.5 0 0 1 .05.21c0 .4.07.74.21 1 .05.09.12.12.22.1.1-.03.15-.09.15-.19 0-.48.26-.76.78-.82.07 0 .1-.05.06-.12a.85.85 0 0 0-.16-.26c-.1-.1-.11-.21-.03-.33.08-.11.19-.14.32-.1l.35.13c.07.02.12 0 .15-.06.19-.37.47-.7.85-.97.02-.02.04-.02.06 0 .02.01.02.04.01.06l-.17.37c-.01.13.01.22.08.28.03.02.07.02.1 0a.09.09 0 0 0 .05-.09.39.39 0 0 1 .16-.38c.35-.27.62-.5.8-.7.2-.21.3-.5.28-.87 0-.09.03-.1.1-.07.06.03.12.14.18.33.03.08.08.13.16.15.08.02.14 0 .19-.06a.63.63 0 0 0 .08-.31c0-.1.05-.12.13-.08.05.03.08.06.09.1.02.1.08.13.17.1.33-.12.48-.35.45-.68 0-.04.01-.06.04-.08.03 0 .06 0 .08.02.2.21.43.22.69.03.2-.15.35-.35.47-.6.03-.05.07-.07.13-.06.05 0 .09.04.1.1 0 .2.12.29.33.24-.57.51-1.14.96-1.71 1.34-.05.03-.06.08-.04.13.03.05.07.07.13.05l1.75-.72a.42.42 0 0 0 .28-.41c.02-1.32-.1-2.6-.37-3.87-.05-.3.04-.58.28-.86-.02.08 0 .14.06.17.46.18.9.27 1.34.27a7.52 7.52 0 0 0 1.59-.22c.26-.05.52-.04.78.02l.37.1c.53.15.94.21 1.21.19.4-.04.76-.15 1.1-.33a.37.37 0 0 0 .15-.05c.47.11.64.45.5 1a6.45 6.45 0 0 0-.24 2.79c.3 1.28 1.17 1.92 2.63 1.92Z" fill="#6E171E"/><path d="M20.85 30.93c.26.42.44.82.55 1.18.18.64.17.8-.03.5a1.59 1.59 0 0 0-.15-.35c-.1-.17-.32-.17-.67 0-.03.02-.05.02-.07 0-.1-.1-.22-.17-.37-.23a.27.27 0 0 1-.16-.14c-.2-.42-.31-.85-.35-1.3 0-.03.01-.05.04-.06.03 0 .05 0 .07.03l.45.7c.04.06.1.07.17.05.18-.07.35-.2.52-.38Z" fill="#DE524F"/><path d="m43.23 32.83-.38 1.1c-.22-.14-.33-.39-.32-.74 0-.28.08-.55.21-.82.03-.04.06-.06.12-.06a.1.1 0 0 1 .1.1c.05.3.14.45.27.42Z" fill="#E08B86"/><path d="M39.64 38.96a15.28 15.28 0 0 1-6.15 4.07c-2.75.97-5.51 1.21-8.3.72-2.81-.49-5.32-1.67-7.52-3.53 2.54-.05 5.03.29 7.45 1.03l.26.1c1.35.75 2.44.96 3.28.66.48-.18 1.17-.47 2.07-.87l1.34-.58c.47-.2.86-.45 1.2-.77.17-.17.43-.32.76-.44.5-.2.88-.44 1.14-.74a30.29 30.29 0 0 0 .5-.59l.04.02c.02 0 .02 0 .02-.02a3.2 3.2 0 0 0-.7-1.63c.19-.18.35-.16.48.06.18.32.4.54.65.66.08.04.13.1.16.18l.2.5c.03.06.08.1.16.1.07 0 .13-.02.16-.09l.06-.1c.05-.08.1-.09.17-.02l.66.71c.08.1.16.09.23 0l.26-.36c.02-.03.05-.03.08-.02.03.01.04.04.04.07-.06.43.11.68.52.76.26.05.43-.1.52-.43.01-.05.05-.08.1-.07.06 0 .1.03.1.09.01.04-.01.12-.06.23-.05.1 0 .2.12.3Z" fill="#80161E"/><defs><linearGradient id="a" x1="10.42" y1="9.71" x2="68.15" y2="76.02" gradientUnits="userSpaceOnUse"><stop stop-color="#1A1E21"/><stop offset="1" stop-color="#06060A"/></linearGradient></defs></svg>