<svg width="56" height="56" viewBox="0 0 56 56" xmlns="http://www.w3.org/2000/svg"><path d="M29.59 10.23c.44.3.71.73.8 1.29a.23.23 0 0 0 .2.2l1.4.13.15.06a3.37 3.37 0 0 1 2.37 2.65l.31 3.89c0 .06.03.1.07.15.05.04.1.06.16.06 1.7 0 1.69 1.98.94 2.97-.19.25-.6.35-1.23.3a.31.31 0 0 0-.26.1l-.65.76a.26.26 0 0 0-.06.17c0 .49-.14.96-.4 1.4a6.3 6.3 0 0 1-1.27 2.1l-1.65.4a.21.21 0 0 0-.16.2 54.2 54.2 0 0 1-.58 7.56 40.65 40.65 0 0 1 .22-7.46.13.13 0 0 0-.1-.08h-.06a5.63 5.63 0 0 1-3.18-.14.16.16 0 0 0-.12.1 62.98 62.98 0 0 1 .04 8.27 6.79 6.79 0 0 1-.4-2 260.68 260.68 0 0 1 0-6.6.13.13 0 0 0-.1-.06h-.07c-.56.23-1 .35-1.32.36-.38-.5-.78-.98-1.18-1.43a7.25 7.25 0 0 1-1.14-2.53 1.05 1.05 0 0 0-.28-.46c-.44-.42-.67-.9-.68-1.45.06-.05.12-.06.19-.03.05.03.1.07.13.15.32.71.73 1.24 1.24 1.57.83.55 2.1 1.05 3.8 1.51.05.01.1.05.13.09.03.04.04.1.04.15-.01.24-.11.57-.3.98a.28.28 0 0 0 .05.31l.1.07a5.88 5.88 0 0 0 3.3.25.21.21 0 0 0 .1-.14.2.2 0 0 0 0-.1l-.26-1.09a.5.5 0 0 1 .37-.6 7.81 7.81 0 0 0 4.49-2.97h.13c.04.21.16.29.35.23.1-.04.2-.12.28-.24.37-.18.55-.55.53-1.13-.04-.96-.55-1.33-1.52-1.09a.4.4 0 0 0-.23.16.4.4 0 0 0-.08.26c.04.5-.08.9-.35 1.15-.1.1-.2.22-.25.35a5.89 5.89 0 0 1-1.5 2.04.6.6 0 0 1-.43.17c-.19-.01-.33.05-.41.2-.3.45-1.23.66-1.79.87a.38.38 0 0 1-.19.01l-.66-.1a.3.3 0 0 0-.11 0c-.59.15-1.06.15-1.43-.01a3.98 3.98 0 0 0-1.27-.38 4.91 4.91 0 0 1-1.88-.72c-.66-.27-1.08-.58-1.26-.93a5.2 5.2 0 0 1-.64-2.66.6.6 0 0 0-.22-.5.63.63 0 0 0-.55-.13l-.36.08c-.27.07-.51.22-.68.44-.16.21-.24.48-.23.75.04.7.3.98.77.86-.06.28.06.46.35.55l.02.01v.02l-.01.08a.06.06 0 0 1-.03.05.07.07 0 0 1-.05 0c-2.03-.46-1.92-2.98.06-3.2.05 0 .1-.02.14-.06a.22.22 0 0 0 .06-.14l.1-2.3.6-1.84c.84-1.45 2.85-2.14 4.43-2.37.05-.01.1-.04.14-.07a.25.25 0 0 0 .07-.14c.08-.53.38-.99.89-1.37.7-.27 1.38-.25 2.06.04ZM23.7 11.01c-.13-.35-.3-.56-.51-.6a.24.24 0 0 0-.28.33c.15.3.33.5.53.6.24-.04.33.14.27.55l.02.13a.14.14 0 0 1-.08.16.15.15 0 0 1-.07.01c-.09 0-.16-.06-.2-.15a7.7 7.7 0 0 0-.67-1.12c-.15-.23-.1-.47.15-.71.56-.21 1.1.3.84.8Z" fill="#030203"/><path d="M23.7 11.01c.04.18-.05.29-.26.33-.2-.1-.38-.3-.53-.6a.24.24 0 0 1 .03-.26.24.24 0 0 1 .25-.08c.2.05.38.26.51.61Z" fill="#BED4BC"/><path d="M22 18.42a.13.13 0 0 1-.21.03.12.12 0 0 1-.04-.08c0-1.48.21-2.77.63-3.89.54-1.46 2.95-2.18 4.54-2.25.04 0 .08-.02.1-.05a.14.14 0 0 0 .04-.1c-.1-2.09 2.96-2.24 2.88-.02a.24.24 0 0 0 .08.2.25.25 0 0 0 .2.05c2.88-.42 3.78 1.3 3.96 3.79.08 1.08.12 1.99.13 2.7 0 .04-.01.07-.03.1a.14.14 0 0 1-.18.02.13.13 0 0 1-.06-.08 7.12 7.12 0 0 1-.14-1.78.68.68 0 0 0-.07-.35l-1.43-2.76a.44.44 0 0 0-.35-.23c-.32-.04-.53-.2-.63-.5a.46.46 0 0 0-.37-.3l-2.04-.36a.2.2 0 0 0-.2.1.2.2 0 0 0-.03.07l-.03.16a.35.35 0 0 0 .29.4c1 .15 1.7.41 2.1.78a6.84 6.84 0 0 1 2.2 6.35.7.7 0 0 1-.14.31c-.21.27-.43.59-.64.96-.5.9-1.5 1.29-2.4 1.44a.63.63 0 0 1-.24 0l-2.15-.46a1.02 1.02 0 0 0-.56.04l-.77.28c-.1.04-.2.04-.3.02a2.45 2.45 0 0 0-1.01-.02.48.48 0 0 1-.35-.07 5.07 5.07 0 0 1-1.92-1.8 6.52 6.52 0 0 1-.42-2.82c.39-1.5 1.1-2.8 2.13-3.9l.26-.2c.8-.54 1.82-.89 3.05-1.05a.24.24 0 0 0 .2-.21c0-.05 0-.1-.04-.15a.24.24 0 0 0-.12-.1l-.66-.2a.42.42 0 0 0-.22-.01l-1.65.4a7.1 7.1 0 0 0-2.54 2.6c-.55.97-.44 2-.85 2.94Z" fill="#7B5127"/><path d="M29.22 11.45c0-.07.04-.12.11-.14.14-.05.22-.02.27.09.05.14.06.26.02.35a.18.18 0 0 1-.13.1.19.19 0 0 1-.16-.03c-.09-.08-.13-.2-.11-.37Z" fill="#1A1A1A"/><path d="M27.7 11.48c.05.14.06.26.03.36a.15.15 0 0 1-.14.1.14.14 0 0 1-.1-.02.13.13 0 0 1-.04-.08.69.69 0 0 1 0-.35.13.13 0 0 1 .12-.1c.03 0 .05.01.08.03l.05.06Z" fill="#030203"/><path d="M36.76 12.56c.56.94-1.11 1.59-1.8 1.9a.63.63 0 0 1-.42-.02c.25-.68.66-1.3 1.24-1.85.33-.3.66-.3.98-.03Z" fill="#1A1A1A"/><path d="M36.66 12.96a.06.06 0 0 1-.01.08l-.04.03c-.35.28-.7.53-.98.68-.28.16-.46.22-.5.17l-.03-.03c-.04-.05.06-.22.27-.45.22-.24.53-.52.88-.8l.04-.03a.06.06 0 0 1 .09 0l.28.35Z" fill="#BED4BC"/><path d="M27.88 22.14c-.29.09-.86.2-1.7.32-1.68.24-2.78-.44-3.29-2.07-.54-1.72.23-3.5 1.23-4.84a4.97 4.97 0 0 1 4.2-1.95 4.32 4.32 0 0 1 4.17 2.74c.9 1.94 1.2 4.18-.5 5.74-.66.63-1.46.67-2.42.4a5.3 5.3 0 0 0-1.69-.34Z" fill="#030203"/><path d="M27.94 21.85c-.26.07-.78.17-1.55.3-1.53.25-2.53-.37-3.01-1.84-.52-1.57.16-3.2 1.05-4.43a4.52 4.52 0 0 1 3.8-1.83c1.8-.04 3.08.85 3.84 2.45.84 1.76 1.14 3.79-.38 5.24-.6.58-1.33.62-2.2.38a4.83 4.83 0 0 0-1.55-.27Z" fill="#643440"/><path d="m19.69 14.45.25.09.21.11.7 1.27c-.08.1-.15.15-.22.12a2.26 2.26 0 0 0-1.14-.12c-.69-.04-1.04-.38-1.04-1.02a.39.39 0 0 1 .13-.3c.29-.25.66-.3 1.1-.15Z" fill="#030203"/><path d="M20.01 15.6a3.9 3.9 0 0 0-.74-.07.5.5 0 0 1-.41-.23.43.43 0 0 1 0-.45c.09-.17.3-.21.6-.11.33.1.56.33.71.68a.14.14 0 0 1-.02.14.14.14 0 0 1-.14.05Z" fill="#BED4BC"/><path d="M37.1 15.95c-.56-.28-.73-.45-.52-.53l.2-.1c.6-.14 1.67-.32 1.69.6a.26.26 0 0 1-.16.25c-.48.2-.88.13-1.22-.22Z" fill="#1A1A1A"/><path d="M37.6 15.94c.27.07.53.02.56-.11.03-.14-.16-.3-.43-.37-.28-.07-.53-.02-.56.12-.04.13.16.3.43.36Z" fill="#BED4BC"/><path d="M35.5 21.28c-.08-.16-.23-.2-.43-.14a.34.34 0 0 0-.2.15h-.13a7.81 7.81 0 0 1-4.49 2.97.5.5 0 0 0-.37.6l.26 1.1a.2.2 0 0 1-.1.23 5.88 5.88 0 0 1-3.4-.31.28.28 0 0 1-.06-.32c.2-.41.3-.74.31-.98a.24.24 0 0 0-.18-.24c-1.7-.46-2.96-.96-3.79-1.5a3.53 3.53 0 0 1-1.24-1.58.28.28 0 0 0-.13-.15c-.07-.03-.13-.02-.19.03.01-.18-.03-.28-.14-.31-.1-.04-.26.01-.46.14-.47.12-.73-.16-.77-.86-.01-.27.07-.54.23-.75.17-.22.4-.37.68-.44l.36-.08a.64.64 0 0 1 .55.12.62.62 0 0 1 .22.5c-.03.9.18 1.8.64 2.67.18.35.6.66 1.26.93l.05.02c.86.46 1.47.7 1.83.7.25 0 .68.13 1.27.38.37.16.84.16 1.43 0a.3.3 0 0 1 .11 0l.66.11c.07.01.13 0 .2-.01.55-.21 1.48-.42 1.78-.88.08-.14.22-.2.4-.2a.6.6 0 0 0 .43-.16 5.89 5.89 0 0 0 1.5-2.04c.07-.13.15-.25.26-.35.27-.26.39-.64.35-1.15 0-.1.02-.19.08-.26a.4.4 0 0 1 .23-.16c.97-.24 1.48.13 1.52 1.09.02.58-.16.95-.53 1.13Z" fill="#7B5127"/><path d="M35.5 21.28a.53.53 0 0 1-.28.24c-.2.06-.3-.02-.35-.23a.34.34 0 0 1 .2-.15c.2-.06.35-.02.43.14Z" fill="#BED4BC"/><path d="M39.27 28.65c.45-1.24.54-2.51.27-3.81a5.1 5.1 0 0 0-.64-1.56.1.1 0 0 1 .02-.15l.08-.06a.03.03 0 0 1 .04 0v.01c1.66 2.3.95 5.54-.48 7.75a.12.12 0 0 1-.07.05h-.08l-.07-.06.93-2.17Z" fill="#1A1A1A"/><path d="M24 25.17a.08.08 0 0 1-.06.05h-.04a.07.07 0 0 1-.03-.04l-.85-1.45a.08.08 0 0 1 0-.09l.04-.02h.05l.76.21a.17.17 0 0 1 .12.12c.15.46.16.87.01 1.22ZM32.17 24.15a.2.2 0 0 1 .24-.25l.13.02a.2.2 0 0 1 .1.06.2.2 0 0 1 .06.12c.03 1-.37 1.75-1.23 2.26a.27.27 0 0 1-.22.02 1.4 1.4 0 0 1-.38-.15.11.11 0 0 1 .04-.18h.07l.3.08h.03c.16-.02.23-.14.2-.36 0-.14.05-.24.18-.28.83-.26.64-.7.48-1.34ZM25.58 24.57c-.05.06-.06.23-.06.5a.2.2 0 0 1-.04.13.2.2 0 0 1-.25.06.2.2 0 0 1-.1-.1c-.12-.25-.3-.48-.54-.67a.22.22 0 0 1-.05-.3c.04-.06.1-.1.16-.11.06-.02.13 0 .19.03a1.74 1.74 0 0 0 .65.29.13.13 0 0 1 .06.1c0 .03 0 .05-.02.07Z" fill="#1B4071"/><path d="M31.91 24.36c.05.39.02.69-.1.9a.22.22 0 0 1-.23.11l-.11-.01a.09.09 0 0 1-.06-.04.1.1 0 0 1-.01-.07l.16-.9c0-.04.03-.08.06-.1a.18.18 0 0 1 .24 0c.03.03.05.07.05.11ZM25.95 25.03c0 .34.11.6.25.6.15.01.27-.26.27-.59 0-.33-.1-.6-.25-.6-.14 0-.26.26-.27.6ZM30.8 24.52a.09.09 0 0 1 .08.05v.03l.02.37c0 .21-.01.41-.05.56-.04.16-.1.24-.17.24h-.08c-.06.01-.13-.07-.18-.22a1.96 1.96 0 0 1-.1-.56l-.01-.37a.09.09 0 0 1 .02-.06.09.09 0 0 1 .06-.03l.4-.01Z" fill="#1B4071"/><path d="m35.15 24.73 1.62.01c.74.9 1.41 2.97.37 3.97.07-.1 0-.08-.22.05l-.52-.09a.4.4 0 0 0-.2.02l-2.7.81c-.44.04-.84.15-1.2.31a.22.22 0 0 0-.11.1.21.21 0 0 0-.02.14l1.12 6.02-1.11.23a.2.2 0 0 0-.13.08.2.2 0 0 0-.03.15l.17 1.05-.33.07a2.19 2.19 0 0 1-.37-1.13.2.2 0 0 0-.06-.13.2.2 0 0 0-.14-.06c-.85-.01-1.26.42-1.23 1.29a58.26 58.26 0 0 1 0 1.62l-.03.02h-.1a.04.04 0 0 1-.03 0 .04.04 0 0 1-.01-.04c-.15-.93-.12-1.9.1-2.92a.56.56 0 0 0-.35-.63.58.58 0 0 0-.26-.04l-2.7.17a.18.18 0 0 0-.13.07.17.17 0 0 0-.03.14l.16.79a.13.13 0 0 1-.05.12.13.13 0 0 1-.13.02l-.07-.12a.25.25 0 0 0-.1-.1.26.26 0 0 0-.14-.04l-1.94.12c-.05 0-.1.03-.14.06a.24.24 0 0 0-.08.13l-.07.37a.89.89 0 0 1-.41.03l.08-.44a.18.18 0 0 0-.15-.22l-.65-.1a.27.27 0 0 1-.17-.12.26.26 0 0 1-.05-.2l1.02-5.76a.18.18 0 0 0-.08-.18.18.18 0 0 0-.07-.03l-1.23-.16h-.17l-.24-.04a1.2 1.2 0 0 0-.72-.11c-.96-.7-1.95-1.21-2.96-1.53-.4-.22-.54-.58-.42-1.06.12-.52.42-1.14.89-1.84l.61-.46c.21-.11.4-.11.56 0 .26.19.51.29.75.31.66.12.95.48.87 1.08a.24.24 0 0 0 .12.24c.9.5 2 .36 3.1.24a4.12 4.12 0 0 0 1.39-.36c.02 0 .04 0 .05.02a.12.12 0 0 1 .06.1c-.03 2.18-.03 4.36 0 6.54 0 .54.13 1.2.4 2l2.98-.17a.2.2 0 0 0 .13-.06.2.2 0 0 0 .06-.13l.02-.33c.37-2.5.56-5.02.58-7.55a.21.21 0 0 1 .16-.2l1.65-.4c.87.1 1.7-.03 2.5-.38a.28.28 0 0 0 .16-.22l.1-1.04c.09.01.18-.02.27-.1Z" fill="#1A1A1A"/><path d="M24.9 26.35a1.71 1.71 0 0 1-.55-.36.3.3 0 0 1-.07-.26l.14-.76a.13.13 0 0 1 .17-.1l.06.06c.33.53.49.96.47 1.3a.15.15 0 0 1-.08.12.15.15 0 0 1-.14 0Z" fill="#1B4071"/><path d="M35.17 25.6c-.01-.1 0-.21.04-.31.06-.17.18-.22.34-.14.36.18.47.36.33.55a.45.45 0 0 1-.42.18.35.35 0 0 1-.2-.1.32.32 0 0 1-.09-.18Z" fill="#7B5127"/><path d="M36.69 25.69a.37.37 0 0 1 .38.2c.03.06.03.14 0 .2a.26.26 0 0 1-.13.15c-.08.04-.28.02-.58-.07a.13.13 0 0 1-.1-.15c.01-.03.02-.05.04-.06.15-.17.28-.26.4-.27ZM16.44 25.93l-.03 3.01c.11.8.52 1.4 1.22 1.78a.1.1 0 0 1 .04.13.13.13 0 0 1-.17.06c-1.54-.72-1.5-2.44-1.5-3.97 0-.43.1-.8.28-1.08l.16.07ZM19.14 25.82a.13.13 0 0 1 .15.07c.01.02.02.05.01.08 0 .04-.01.06-.03.09-.06.07-.18.1-.35.08a.13.13 0 0 1-.11-.1.12.12 0 0 1 .06-.13c.04-.03.13-.06.27-.09Z" fill="#643440"/><path d="M20.57 26.63c-.16-.07-.25-.1-.27-.1a.28.28 0 0 1-.28-.27.3.3 0 0 1 .06-.2.3.3 0 0 1 .19-.11c.39-.08.61-.02.67.16.07.25.1.5.06.71a.93.93 0 0 1-.26.53c-.24.22-.56.55-.98.97a.38.38 0 0 1-.33.1c-.44-.07-1.14-.04-1.28-.67-.05-.2.07-.4.36-.6a.28.28 0 0 1 .43.17c.02.06.01.13-.02.18l-.12.22a.15.15 0 0 0 .04.2.16.16 0 0 0 .2 0l1.54-1.16a.07.07 0 0 0 .03-.07.07.07 0 0 0-.04-.06Z" fill="#7B5127"/><path d="M28.27 26.6a7.85 7.85 0 0 0 1.73-.06.1.1 0 0 1 .04.04c.05.1.01.15-.1.19a4.32 4.32 0 0 1-3.35-.24c-.1-.05-.12-.12-.06-.2a.1.1 0 0 1 .12-.04c.55.16 1.1.26 1.62.3Z" fill="#BED4BC"/><path d="M36 26.92a.51.51 0 0 0-.15.2.57.57 0 0 0-.04.26c0 .1.03.18.07.27.05.08.11.16.19.22.2.17.43.17.7 0a.13.13 0 0 0 .06-.13.13.13 0 0 0-.1-.1c-.16-.05-.28-.1-.36-.16a.23.23 0 0 1-.08-.27.23.23 0 0 1 .25-.14l.22.04c.13.02.26.1.35.2a.56.56 0 0 1-.04.76c-.1.1-.23.16-.37.17l-.87.06a.22.22 0 0 1-.14-.05.21.21 0 0 1-.09-.12l-.36-1.53a.36.36 0 0 1 .18-.4.38.38 0 0 1 .44.06c.3.28.34.5.15.66ZM18.76 26.61c.38-.1.64-.1.8.04.09.08.13.19.11.32 0 .07-.04.13-.1.18a.16.16 0 0 1-.12.03.15.15 0 0 1-.1-.06c-.13-.17-.33-.3-.6-.37a.07.07 0 0 1-.03-.02.07.07 0 0 1 0-.1.07.07 0 0 1 .04-.02Z" fill="#7B5127"/><path d="m29.73 34.62-.02.33a.2.2 0 0 1-.06.13.2.2 0 0 1-.13.06l-2.99.16a63 63 0 0 0-.04-8.27.16.16 0 0 1 .2-.08 5.63 5.63 0 0 0 3.17.13.14.14 0 0 1 .1.08v.06c-.3 2.44-.38 4.9-.23 7.4Z" fill="#fff"/><path d="M15.35 31.92a.06.06 0 0 1 .02.05.06.06 0 0 1-.02.05l-.15.1v.01h-.01a2.6 2.6 0 0 1-1.02-1.75 7.9 7.9 0 0 1-.1-2.59.13.13 0 0 1 .13-.06h.05a.09.09 0 0 1 .06.05.09.09 0 0 1 0 .08c-.03.08-.02.75.05 2 .05.9.38 1.59.99 2.06Z" fill="#1A1A1A"/><path d="m28.37 30.3.03-.1a.11.11 0 0 1 .1-.08.12.12 0 0 1 .11.06c.2.37.43.43.7.18a.13.13 0 0 1 .08-.04c.03 0 .06 0 .08.02.06.03.08.07.09.13l-.01.02-.01.01c-.48.42-1 .47-1.58.16a.16.16 0 0 0-.2.03.15.15 0 0 0-.02.06l-.17.6a.1.1 0 0 1-.03.06.13.13 0 0 1-.06.03.1.1 0 0 1-.07-.03.09.09 0 0 1-.03-.06c-.02-.41.03-.99.15-1.73.01-.1.06-.2.12-.29a.59.59 0 0 1 .23-.19.42.42 0 0 1 .26-.03c.09.02.16.07.21.14.12.17.13.36.05.6a.1.1 0 0 1-.09.06.1.1 0 0 1-.1-.05l-.12-.23a.18.18 0 0 0-.17-.08.18.18 0 0 0-.15.1 8.04 8.04 0 0 0-.1.31.08.08 0 0 0 .07.07l.05-.01c.16-.1.27-.11.32-.06.07.07.1.14.09.19-.04.15-.05.23-.04.23a.14.14 0 0 0 .12.02.14.14 0 0 0 .09-.1Z" fill="#643440"/><path d="m31.86 37.65.1 2.17c.01.04 0 .08-.03.12a.19.19 0 0 1-.1.06c-1.23.26-2.41.32-3.54.19a.37.37 0 0 1-.33-.37v-3.46a.04.04 0 0 0-.04-.04h-.13a.24.24 0 0 0-.17.07.24.24 0 0 0-.07.17V40a.37.37 0 0 1-.12.28.39.39 0 0 1-.3.1l-3.1-.3a.34.34 0 0 1-.3-.23.33.33 0 0 1-.01-.13l.24-2.36.07-.37a.24.24 0 0 1 .22-.19l1.94-.12c.05 0 .1 0 .14.03.05.03.08.06.1.1l.07.13a.13.13 0 0 0 .17-.07l.01-.07-.16-.79a.17.17 0 0 1 .1-.19.18.18 0 0 1 .06-.02l2.7-.17a.58.58 0 0 1 .47.19.56.56 0 0 1 .13.48 8.27 8.27 0 0 0-.06 2.96h.11s.02 0 .02-.02l.01-.02v-1.6c-.03-.87.38-1.3 1.23-1.29.05 0 .1.03.14.06a.2.2 0 0 1 .06.13c.02.41.15.8.37 1.13Z" fill="#435A74"/><path d="m31.86 37.65.33-.07.25 1.94a.3.3 0 0 0 .26.26l1.73.3c.05 0 .1.02.13.04l2.6 1.14c.35.19.53.44.53.76 0 .23.04.37.13.4.11.06.27.07.49.06.47.08.7.22.72.4-.38.01-.83-.08-1.35-.26a.91.91 0 0 0-.46-.03c-.37.06-.6 0-.7-.2a6.98 6.98 0 0 0-2.23-.17l-2.23.15c-1.26-.04-2.67-.17-2.99.14a.33.33 0 0 1-.22.09l-2 .02a.63.63 0 0 1-.03-.14.17.17 0 0 1 .06-.14.18.18 0 0 1 .15-.04 3.55 3.55 0 0 0 1.7-.04.09.09 0 0 0 0-.12.09.09 0 0 0-.06-.03 3.31 3.31 0 0 0-1.9.1 3.6 3.6 0 0 1-1.05.2c-.33-.04-.65-.01-.97.08-.5.01-1.04-.03-1.65-.13-.11-.01-.2 0-.25.06a.1.1 0 0 0 .02.16.1.1 0 0 0 .06.02c.73-.03 1.04.14.94.48-1.56 0-3.04.28-4.42.85a.12.12 0 0 0-.08.13c0 .03.02.05.05.07.02.01.05.02.07.01l3.94-.23c0 .16-.03.27-.08.34-1.22.08-2.44.12-3.66.12-.25 0-.46-.03-.62-.1a.25.25 0 0 1-.17-.2.25.25 0 0 1 .13-.24l.72-.4a.08.08 0 0 0 .03-.1.09.09 0 0 0-.08-.06c-1.12-.03-2.83.05-3.36-.45a.36.36 0 0 1-.11-.32.35.35 0 0 1 .21-.26 7.14 7.14 0 0 1 2.4-.55l.44.02a.3.3 0 0 0 .27-.13c.75-1.14 2.42-1.37 3.5-1.58a.24.24 0 0 0 .18-.2l.32-2.41c.13.02.27.02.4-.03l-.23 2.36a.33.33 0 0 0 .18.33l.12.04 3.11.28a.4.4 0 0 0 .3-.1.38.38 0 0 0 .12-.27v-3.44a.23.23 0 0 1 .07-.17.24.24 0 0 1 .17-.07h.13l.03.01V39.82a.37.37 0 0 0 .34.37c1.13.13 2.3.07 3.53-.19a.19.19 0 0 0 .11-.06.18.18 0 0 0 .04-.12l-.1-2.17Z" fill="#030203"/><path d="M32.63 40.27c.97-.1 1.8.14 2.51.7a.31.31 0 0 1 .11.27.3.3 0 0 1-.16.25c-1.32.7-2.92.44-4.24.48-.9.03-1.84-.2-2.6-.38a.14.14 0 0 1-.12-.16c0-.03.02-.07.05-.1a.15.15 0 0 1 .1-.03h.6a.1.1 0 0 0 .07-.02.1.1 0 0 0-.05-.19 3.1 3.1 0 0 1-.75-.23.11.11 0 0 1-.06-.13c0-.02.02-.05.04-.06a.12.12 0 0 1 .08-.02h2.53l.18-.03.78-.27a.14.14 0 0 1 .16.05l.02.06.06.12a.22.22 0 0 0 .3.08c.06-.04.1-.1.14-.2a.29.29 0 0 1 .25-.2ZM24.83 41.38h.38a.19.19 0 0 0 .18-.12.18.18 0 0 0-.08-.2c-.13-.1-.3-.17-.47-.2a.11.11 0 0 1-.1-.08.1.1 0 0 1 0-.05l.02-.02a.1.1 0 0 1 .07-.04l2.68-.13a.24.24 0 0 1 .17.06.23.23 0 0 1 .07.17v.42c0 .12-.04.23-.13.31a.46.46 0 0 1-.31.14c-.88.01-1.61.08-2.19.2-1.63.34-2.76.08-4.5.14a.4.4 0 0 1-.38-.27.38.38 0 0 1 .17-.44c.57-.36 1.2-.57 1.87-.63a.55.55 0 0 1 .43.15l.23.23a.22.22 0 0 1 .05.24.22.22 0 0 1-.2.13h-1.81c-.02 0-.03 0-.04.02l-.01.03v.09c0 .02 0 .05.03.07a.1.1 0 0 0 .07.03c.9.03 1.93-.04 3.09-.22.2-.03-.15-.21-1.05-.55a.2.2 0 0 1-.12-.23.2.2 0 0 1 .05-.08l.1-.1a.26.26 0 0 1 .24-.06c.92.26 1.36.54 1.34.83a.15.15 0 0 0 .04.12.15.15 0 0 0 .11.04Z" fill="#1B4071"/><path d="M36.63 42.02c.03-.07.02-.13-.02-.18a.14.14 0 0 0-.08-.05c-.04 0-.07 0-.1.02-.2.12-.54.17-1 .15a.09.09 0 0 1-.08-.06v-.05c0-.02.01-.03.03-.05.32-.2.43-.38.31-.53a.11.11 0 0 1 .04-.17.11.11 0 0 1 .06 0c.31.01.55.38.96.37.24 0 .46.09.65.28a.27.27 0 0 1 .07.25.26.26 0 0 1-.18.2 2.92 2.92 0 0 1-.6 0 .15.15 0 0 1-.07-.1v-.08Z" fill="#DED581"/><path d="M16.64 42.54c1.06-.66 2.68-.52 3.92-.22.2.05.4.07.62.07l1.08-.02a.23.23 0 0 1 .17.07l.1.1a.18.18 0 0 1 .04.17.18.18 0 0 1-.14.12 16.06 16.06 0 0 1-5.8-.09.13.13 0 0 1 .01-.2Z" fill="#FFF392"/><path d="M36.52 42.4v.46a2.03 2.03 0 0 0-1.34-.15.11.11 0 0 0-.04.07.1.1 0 0 0 0 .04l.02.1.03.03.04.02h.95c.01 0 .03 0 .05.02l.02.05a.07.07 0 0 1-.06.08l-2.05.24a.32.32 0 0 1-.35-.25.32.32 0 0 1 0-.15c0-.01.05-.05.15-.11a.09.09 0 0 0 .01-.15.1.1 0 0 0-.05-.02c-.07 0-.14 0-.23.03l-1.48.11-2.6-.16c-.05 0-.08 0-.11.03a.14.14 0 0 0-.02.2c.03.03.06.05.1.05l1.67.16a.1.1 0 0 1 .07.02.1.1 0 0 1-.05.17c-1.18.27-2.24.38-3.17.32a4.57 4.57 0 0 0-2.2-.33c.22-.06.43-.08.64-.06.09 0 .14 0 .16-.02a.17.17 0 0 0 .03-.11c0-.07-.02-.1-.06-.1-.26 0-.39-.07-.38-.21a.1.1 0 0 1 .1-.1l.48-.06 2-.02c.08 0 .16-.04.22-.1.32-.3 1.73-.17 2.99-.13l2.23-.15c.77-.06 1.51 0 2.23.18Z" fill="#C6BB6F"/><path d="m26.36 42.68.49-.06a.63.63 0 0 1-.03-.14.17.17 0 0 1 .06-.14.18.18 0 0 1 .15-.04 3.55 3.55 0 0 0 1.7-.04.09.09 0 0 0-.06-.15 3.31 3.31 0 0 0-1.9.1 3.6 3.6 0 0 1-1.05.2 2.6 2.6 0 0 0-.97.08c-.5.01-1.04-.03-1.65-.13-.11-.01-.2 0-.25.06a.1.1 0 0 0 .02.16.1.1 0 0 0 .06.02c.73-.03 1.04.14.94.48l2.01.2c.22-.06.43-.08.64-.06.09 0 .14 0 .16-.02a.17.17 0 0 0 .03-.11c0-.07-.02-.1-.06-.1-.26 0-.39-.07-.38-.21a.11.11 0 0 1 .1-.1Z" fill="#958E59"/><path d="M32.2 42.82a2.42 2.42 0 0 0 1.49.04l.01-.01c.02-.05.01-.1-.03-.14.09-.03.16-.04.23-.03a.1.1 0 0 1 .08.07.09.09 0 0 1-.04.1l-.15.1a.32.32 0 0 0 .35.41l2.05-.24.04-.03a.07.07 0 0 0 .02-.05.08.08 0 0 0-.02-.05.08.08 0 0 0-.05-.02h-.95c-.02 0-.03 0-.04-.02a.07.07 0 0 1-.03-.03l-.02-.1a.1.1 0 0 1 .01-.08.1.1 0 0 1 .07-.05c.48-.08.9-.02 1.3.17l1.85.27a4.11 4.11 0 0 0-1.6.72.07.07 0 0 0 0 .08l.04.02.13.02c-.25.09-.52.15-.79.2-.23.03-.27.13-.13.29.03.02.1.05.22.06a.47.47 0 0 1-.3.21c-1.06.28-2.15.47-3.26.58.17-.33-.16-.49-1-.49l2.7-.34a.2.2 0 0 0 .08-.03 2.15 2.15 0 0 1 .86-.2v-.02c0-.03 0-.04-.02-.06a.07.07 0 0 0-.05-.02l-2.15-.05 1.94-.13a.04.04 0 0 0 .03-.02v-.03l-.02-.1a.08.08 0 0 0-.03-.05 23.92 23.92 0 0 1-6.32.22c-1.47-.03-3.5.39-5.35.26.05-.07.08-.18.08-.34l4.65-.3a11.16 11.16 0 0 0 3.23-.36.1.1 0 0 0-.08-.15l-1.67-.16a.14.14 0 0 1-.1-.05.14.14 0 0 1 .02-.2.14.14 0 0 1 .1-.03l2.61.16Z" fill="#736B48"/><path d="M33.67 42.7c.04.05.05.1.03.15l-.01.01-.03.02c-.55.13-1.04.11-1.47-.06l1.48-.11Z" fill="#643440"/><path d="m38.37 43.13.56.25a.18.18 0 0 1 .05.3.2.2 0 0 1-.1.06l-1.94.23c-.05 0-.1 0-.13-.02a.07.07 0 0 1-.05-.06.07.07 0 0 1 .03-.07c.47-.33.99-.56 1.58-.69ZM33.1 44.1l2.15.05c.02 0 .04 0 .05.02.02.02.02.03.02.05v.02h-.02c-.31.02-.6.1-.84.21a.2.2 0 0 1-.08.03l-2.7.34-4.4.02a.16.16 0 0 1-.13-.05.16.16 0 0 1-.04-.13l.02-.11c0-.03.02-.06.05-.08a.14.14 0 0 1 .08-.04l5.84-.33ZM37.36 45.01l-7.57.99h-.04a.06.06 0 0 1 0-.1c.9-.45 1.96-.45 2.93-.6 1.1-.1 2.2-.3 3.26-.57.13-.03.23-.1.3-.2.68-.06 1.37-.08 2.06-.06.06 0 .1.02.12.04.04.03.05.07.06.12 0 .11-.04.18-.13.2-.32.07-.65.13-1 .18Z" fill="#030203"/><defs><linearGradient id="a" x1="0" y1="28" x2="56" y2="28" gradientUnits="userSpaceOnUse"><stop stop-color="#FBBB4F"/><stop offset=".49" stop-color="#FFF392"/><stop offset="1" stop-color="#FAB04E"/></linearGradient></defs></svg>