<!-- by TradingView --><svg width="56" height="56" viewBox="0 0 56 56" xmlns="http://www.w3.org/2000/svg"><path fill="#F0F3FA" d="M0 0h56v56H0z"/><path d="M28 11a17 17 0 1 1 0 34 17 17 0 0 1-17-17c-.08-9.35 7.57-17 17-17Z" fill="url(#a24todxfo)"/><path d="M44.26 33H40.6c-.33 0-3.85-.45-3.61-3.54.16-2.27.6-4.96-.62-7.32-1.3-2.6-3.9-5.14-8.05-5.14-3.18 0-4.07 1-4.07 1s-.65-1-2.12-1c-1.38 0-2.27 1.14-2.52 2.36-.24 1.14-2.51 14.9-2.51 14.9s-.1.42-.11.97c-.02 1.1.32 2.77 2.55 2.77 2.85 0 3.33-3.5 3.33-3.5L24 26.29S24.34 22 27.92 22 32 26 32 27.43c0 2.07 0 5.57 1.53 7.8 1.11 1.63 3.01 2.77 6.1 2.77h2.13a16.44 16.44 0 0 0 2.5-5Z" fill="#F0F3FA"/><defs><linearGradient id="a24todxfo" x1="41.69" y1="16.61" x2="14.26" y2="38.77" gradientUnits="userSpaceOnUse"><stop offset=".04" stop-color="#34CAFF"/><stop offset=".32" stop-color="#7A68F8"/><stop offset=".7" stop-color="#F238B7"/><stop offset=".97" stop-color="#FEB864"/></linearGradient></defs></svg>