<svg width="112" height="112" viewBox="0 0 56 56" xmlns="http://www.w3.org/2000/svg"><rect fill="#54E1D8" width="56" height="56" rx="28"/><path d="M18.85 27a.15.15 0 0 0 .15-.15v-6.19c0-1.41.01-2.28.04-2.6.21-2 .67-3.68 2.19-5.05a7.53 7.53 0 0 1 4.21-1.92c.4-.05 1.17-.08 2.33-.09.93 0 1.7.02 2.33.07a7.86 7.86 0 0 1 6.64 5.8c.3 1.05.26 2.43.26 3.97V27c-.01.01.02 0 0 0h-5c-.02 0 .02.02 0 0s0 .02 0 0v-8.27C32 16 29.06 16 27.37 16c-1.7 0-3.39.9-3.37 2.98V26.9a.17.17 0 0 0 .17.11h2.27c.18 0 .2.06.08.2l-5.13 4.76a.14.14 0 0 1-.2 0l-5.07-4.66c-.2-.2-.15-.3.12-.3h2.61Z" fill="#328780"/><path d="M14.17 37.2c.05.06.08.05.08-.04l-.01-2.21c-.01-.4-.2-.58-.54-.57-.09 0-.14-.03-.16-.11l-.02-.1c-.02-.11.02-.17.13-.17h1.6c.1 0 .15.05.15.15v.05c0 .1-.05.16-.16.17-.14 0-.28.04-.42.1a.15.15 0 0 0-.08.1c-.05.19-.07.37-.07.55v3.73c0 .1-.04.15-.12.15a.57.57 0 0 1-.43-.22c-1.3-1.57-2.26-2.73-2.9-3.47-.05-.07-.08-.06-.08.03v2.9a.32.32 0 0 0 .24.32l.43.1.08.05c.02.03.03.06.03.1-.01.12-.09.19-.24.19H10.1c-.08 0-.11-.05-.1-.12l.04-.15a.1.1 0 0 1 .09-.09l.36-.08c.05 0 .1-.04.12-.09.07-.11.1-.24.1-.38.01-1.74 0-2.84-.01-3.14-.02-.33-.2-.52-.56-.56-.07-.01-.11-.06-.11-.15v-.1c0-.1.04-.14.13-.14h1.2c.09 0 .16.03.22.1l2.59 3.1ZM25.06 34.51c-.05.1-.08.26-.08.49l-.01 2.4c0 .7-.47 1.32-1.17 1.5-1.22.3-2.72-.05-2.8-1.54v-2.65c0-.06-.04-.13-.08-.18a.3.3 0 0 0-.16-.1l-.41-.1c-.07-.02-.1-.06-.08-.13l.03-.12c.02-.05.05-.08.11-.08h2.26c.1 0 .14.05.14.14v.1c0 .08-.04.12-.12.12-.37.01-.67.1-.69.29v2.57c.01.52.24 1.02.76 1.22.78.3 1.7-.12 1.75-1.03.03-.49.03-1.32.02-2.5 0-.41-.19-.6-.56-.54a.13.13 0 0 1-.12-.05.14.14 0 0 1-.03-.12l.02-.1c.02-.07.06-.1.13-.1h1.56c.07 0 .11.04.13.11l.01.06c.03.1-.01.15-.1.17l-.4.09a.17.17 0 0 0-.1.08Z"/><path fill-rule="evenodd" d="m34.76 36.56.02-.01c.63-.22 1.03-.7.93-1.36-.11-.67-.78-1.07-1.42-1.13-.88-.08-1.87-.08-2.96 0-.05 0-.07.02-.07.07v.21c0 .02 0 .04.02.05.02.02.03.03.05.03h.02c.34.01.64.03.65.45v3.42c0 .05-.05.1-.09.15l-.02.03a.3.3 0 0 1-.16.1l-.36.07c-.08.02-.12.07-.12.16v.06c0 .1.04.14.14.14h2.28a.1.1 0 0 0 .08-.03.14.14 0 0 0 .04-.07l.01-.06a.15.15 0 0 0-.06-.17.16.16 0 0 0-.05-.02l-.42-.1a.28.28 0 0 1-.16-.1.8.8 0 0 0-.03-.04c-.04-.04-.08-.09-.08-.13v-1.35c0-.06.08-.09.13-.1.3-.03.53 0 .7.09.11.05.26.23.46.55.41.68.7 1.15.88 1.4a.28.28 0 0 0 .23.13h1.14c.06 0 .1-.03.11-.09a.33.33 0 0 0-.01-.2c-.02-.04-.09-.08-.2-.13a.98.98 0 0 1-.43-.33c-.21-.28-.47-.64-.77-1.1-.09-.14-.22-.26-.33-.37a3.31 3.31 0 0 1-.17-.17.05.05 0 0 1 .02-.05ZM33 34.46l-.01.03v1.84l.02.03.03.02h.5c.14 0 .28-.03.4-.07.13-.04.24-.1.33-.17a.8.8 0 0 0 .23-.25c.05-.1.07-.2.07-.3v-.36a.7.7 0 0 0-.3-.56 1.2 1.2 0 0 0-.73-.22h-.5l-.04.01ZM44.8 36.42c.35.07.65.24.89.48.42.44.43 1.2-.08 1.62-.32.26-.68.4-1.06.43-.65.05-1.72.06-3.2.04-.05 0-.08-.02-.09-.07l-.03-.17a.08.08 0 0 1 0-.06l.03-.02a.1.1 0 0 1 .03-.02l.41-.08a.36.36 0 0 0 .2-.11c.05-.06.1-.13.1-.21v-3.33c0-.41-.22-.5-.61-.51a.13.13 0 0 1-.08-.03.11.11 0 0 1-.04-.06l-.03-.15c-.02-.08.02-.13.1-.13.9-.03 1.8-.05 2.68-.04.96.02 2.05.48 1.65 1.6-.12.35-.52.54-.89.71a.06.06 0 0 0-.03.02.05.05 0 0 0 .01.07l.03.02Zm-1.8-1.9c0-.02.01-.05.03-.06a.11.11 0 0 1 .08-.03h.46c.28 0 .56.09.76.23.2.15.31.35.31.56v.13c0 .1-.03.2-.08.3a.82.82 0 0 1-.23.26c-.1.07-.22.13-.35.17-.14.04-.28.06-.42.06h-.46l-.07-.03a.08.08 0 0 1-.03-.06v-1.53Zm.04 2.07a7.93 7.93 0 0 0 .01 1.57c.03.2.13.32.3.35.9.13 1.37-.15 1.44-.84.03-.34-.1-.63-.41-.89-.28-.23-.93-.23-1.3-.2l-.04.01Z"/></svg>