<svg width="112" height="112" viewBox="0 0 56 56" xmlns="http://www.w3.org/2000/svg"><path d="M30.87 16.4a.24.24 0 0 0-.07.1c-.01.05 0 .07.04.09.09.02.19.02.3 0l.61-.47c.6-.48 1.2-.86 1.97-1.1.97-.32 1.76-.53 2.36-.64.54-.1 1.06-.13 1.57-.1.37.03.93.2 1.08.55a2 2 0 0 1 .14.59 14.24 14.24 0 0 1-.76 5.81.18.18 0 0 0 .02.16c.55.91 1.05 1.97 1.52 3.19l.18.38c.07.14.14.29.19.44.15.45.1 1 .08 1.52a4.33 4.33 0 0 1-.38 1.64c-.12.24-.29.47-.52.68-.04.03-.04.06 0 .1.26.32.48.72.64 1.18.14.4.17.82.08 1.24a3.8 3.8 0 0 1-.78 1.69c-.37.45-.75.84-1.15 1.17-.37.3-.77.53-1.2.72l-1.8.74-.43.13c-.47.15-.95.27-1.43.37-.21.05-.4.11-.54.2-.47.26-1 .36-1.53.5-.34.1-.63.13-.85.12-.68-.04-1.3-.29-1.63-.91-.03-.05-.06-.05-.08 0-.21.42-.56.7-1.06.82-.37.09-.69.14-1.08.05-.43-.1-.85-.21-1.24-.33-.3-.08-.5-.2-.76-.33-.1-.05-.2-.09-.31-.1a12.2 12.2 0 0 1-2.24-.63c-.58-.24-1.24-.45-1.8-.75a6.68 6.68 0 0 1-2.3-2.09 3.65 3.65 0 0 1-.6-1.74c0-.05-.02-.07-.07-.07-.55.02-1.03 0-1.43-.05-.9-.13-1.63-.47-2.1-1.26a4.05 4.05 0 0 1-.46-1.08 2.07 2.07 0 0 1-.03-.77c.1-.84.35-1.59.76-2.24a9.1 9.1 0 0 1 4.67-3.73.16.16 0 0 0 .09-.08l.43-.75a.14.14 0 0 0 0-.13 8.78 8.78 0 0 1-.5-1.7l-.23-1.46c-.14-1.01-.14-1.99 0-2.94.08-.53.63-.81 1.13-.84.7-.03 1.3 0 1.8.12 1.1.24 2 .51 2.7.8.58.24 1.2.65 1.86 1.24.1.08.2.13.32.14.15.02.28 0 .38-.06.3-.18.62-.5.96-.94a.28.28 0 0 0 .1-.13c.02-.04.01-.05-.03-.04a.45.45 0 0 0-.17.07 2.93 2.93 0 0 1-3.16-.88 4.44 4.44 0 0 1-.96-1.73c-.12-.4-.14-.8-.06-1.2.13-.64.38-1.22.76-1.74a4.23 4.23 0 0 1 1.68-1.41A5.64 5.64 0 0 1 27.67 8a4.12 4.12 0 0 1 3.44 2 6.12 6.12 0 0 1 .77 3.02 7.08 7.08 0 0 1-1.01 3.38Z" fill="#fff"/><path d="M17.74 30.66a4.95 4.95 0 0 1-2.52.01c-.42-.1-.75-.28-1-.56a2.88 2.88 0 0 1-.58-1 2.38 2.38 0 0 1-.08-1.1 5.1 5.1 0 0 1 1.14-2.51 9.06 9.06 0 0 1 3.5-2.7c.19-.08.37-.12.56-.13a.1.1 0 0 0 .08-.05l.73-1.26a.1.1 0 0 0 0-.1 6.97 6.97 0 0 1-.6-1.96 13.9 13.9 0 0 1-.26-3.89c.02-.35.21-.55.57-.6a5.22 5.22 0 0 1 1.77.1c.79.16 1.59.38 2.4.67a7.43 7.43 0 0 1 2.33 1.54l.09.01.67-.08c.04 0 .09-.02.12-.05.92-.7 1.63-1.6 2.1-2.63.27-.63.25-1.8-.03-2.43-.33-.77-1.25-1.44-2.12-1.05-.7.3-1.02.86-1.13 1.59a.6.6 0 0 0 .13.47c.2.28.53.35.85.39.48.05.7-.33.75-.77a.1.1 0 0 1 .07-.09c.43-.16.92.3 1 .66.04.21.03.42-.04.62-.3.93-.95 1.38-1.95 1.38-.58-.01-1.1-.23-1.56-.66-.7-.66-1.35-1.83-1.1-2.82a4.01 4.01 0 0 1 3.14-3.02c1-.26 1.88-.15 2.76.45.52.36.91.78 1.18 1.26.2.36.38.83.53 1.41a5.9 5.9 0 0 1-.68 4.14c-.2.36-.48.67-.7 1.01l-.01.02v.01l.01.01.02.01 1.33.18a.2.2 0 0 0 .14-.05 7.53 7.53 0 0 1 2.46-1.57c1.47-.48 2.5-.79 3.78-.74.35.01.73.16.77.54.1 1.27.05 2.49-.18 3.66-.13.68-.25 1.37-.54 1.98l-.14.33a.1.1 0 0 0 0 .09 20.4 20.4 0 0 1 1.8 3.7c.26.7.33 1.4.26 2.14a2.72 2.72 0 0 1-1.12 2.03c-.04.02-.04.05 0 .08.57.47.9 1.07 1 1.8.06.5-.18 1.24-.47 1.68a5.95 5.95 0 0 1-2.89 2.3c-.24.08-.48.18-.72.28-.69.29-1.4.5-2.17.66-.1.02-.21.03-.32.02a.2.2 0 0 0-.11.03c-.34.19-.66.39-1.04.48l-.96.26c-.62.16-1.52 0-1.75-.67a.25.25 0 0 0-.07-.1l-.37-.34c-.03-.03-.05-.02-.08 0-.1.12-.22.22-.34.3a.2.2 0 0 0-.07.12c-.22.67-1.09.85-1.71.7-.62-.15-1.25-.28-1.79-.62a1.2 1.2 0 0 0-.53-.17c-.4-.04-.88-.15-1.42-.34-.83-.29-1.58-.58-2.25-.89a5.15 5.15 0 0 1-1.42-1.01c-.8-.77-1.3-1.53-1.33-2.66 0-.16.04-.31.14-.44.04-.05.03-.07-.03-.06Z" fill="#26163B"/><path d="m29.3 9.74-1.72.74c-.36-.08-.65-.1-.87-.07-.53.08-1 .38-1.4.89a1.8 1.8 0 0 1 0-.7c.05-.39.16-.73.32-1.02a3.14 3.14 0 0 1 3.67.16Z" fill="#ECC802"/><path d="M25.63 9.58c-.16.3-.27.63-.33 1.02-.04.27-.04.5 0 .7a1.74 1.74 0 0 0-.25 1.7l-.99-.9c-.03-.29.02-.59.16-.9.3-.67.77-1.21 1.41-1.62Z" fill="#DC6703"/><path d="M29.3 9.74c.25.18.47.4.64.65.45.66.73 1.03.9 1.7l-.44-.16c-.39-.16-.8-.24-1.22-.23a2.33 2.33 0 0 0-1.6-1.22l1.72-.74Z" fill="#03B87C"/><path d="M29.18 11.7c.43-.01.83.06 1.22.22l.44.18c.06.2.1.37.1.51a6.5 6.5 0 0 1-.45 2.31c-.15.37-.36.74-.64 1.11l-.24.34c-.09.13-.17.25-.25.34a1.4 1.4 0 0 0-.76-.64.1.1 0 0 1-.06-.07.1.1 0 0 1 .02-.09c.3-.38.54-.78.69-1.18.01-.03 0-.06-.02-.09a.21.21 0 0 0-.1-.05c.09-.16.15-.32.19-.5.17-.83.13-1.62-.14-2.4Z" fill="#0C00C7"/><path d="m24.06 12.1.99.9c.16.22.35.4.59.54.2.12.42.19.63.19.47 0 1-.17 1.12-.67.05-.22.14-.24.28-.07l.15.2c.13.16.18.34.14.54-.1.53-.5.92-1.05 1-.63.11-1.18 0-1.63-.31a2.81 2.81 0 0 1-1.24-2.08c0-.06 0-.14.02-.24Z" fill="#DD0102"/><path d="M29.13 14.59c.03 0 .07.02.1.05.02.03.03.06.02.1a4.52 4.52 0 0 1-.7 1.22.1.1 0 0 0 .02.09.1.1 0 0 0 .03.02c.36.15.61.36.76.64l-.1.14a.1.1 0 0 1-.1.04c-.56-.03-1.13-.01-1.72.04-.07.01-.08-.01-.02-.06.18-.15.38-.3.54-.48.49-.54.88-1.14 1.17-1.8Z" fill="#A656B7"/><path d="M20.8 15.5c-.7.33-1.22.8-1.57 1.4-.03.05-.05.05-.06-.01a4.6 4.6 0 0 1 .04-1.42c.01-.04.04-.07.1-.08a5.56 5.56 0 0 1 1.48.05c.07 0 .07.03.01.06ZM37.84 16.88a3.47 3.47 0 0 0-1.6-1.4.02.02 0 0 1 0-.04h.02a6.08 6.08 0 0 1 1.57-.02 5 5 0 0 1 .07 1.45c0 .07-.03.08-.06.01Z" fill="#FFC9ED"/><path d="m27.4 15.59-.02-.04a.06.06 0 0 0-.05-.05h-.04c.05-.04.1-.07.17-.08.04-.01.05 0 .04.04a.28.28 0 0 1-.1.13Z" fill="#26163B"/><path d="M36.99 21.63c-.07.07-.07.13 0 .2.03.03.03.06 0 .08a.34.34 0 0 0-.1.14c-.46 1.19-1.82 1.94-2.52 2.95a.12.12 0 0 1-.08.05h-.06a.12.12 0 0 0-.11.02.15.15 0 0 0-.04.05c-.01.02-.02.02-.01 0l-.01-.05a.07.07 0 0 0-.06-.02c-.04 0-.07.02-.08.07 0 .02-.02.02-.03 0-.02 0-.03 0-.04.02v.05c-.27-.37-.62-.46-1.06-.25a.08.08 0 0 1-.1-.01c-.6-.5-1.38.05-1.24.76l-.05-.11c-.01-.04-.04-.04-.07-.03a.41.41 0 0 0-.18.15.1.1 0 0 1-.11.04c-.05 0-.08 0-.11.05a.1.1 0 0 1-.06.05.1.1 0 0 1-.07 0l-.22-.09c-.04-.01-.06-.04-.05-.08a.47.47 0 0 0-.1-.3.6.6 0 0 0-.1-.25c-.06-.08-.1-.06-.11.04a.95.95 0 0 1-.54.78.47.47 0 0 1-.42.02 3.9 3.9 0 0 1-.67-.37.08.08 0 0 0-.1 0l-.63.36c-.36.18-.84-.2-.92-.52l-.1-.29c-.05-.1-.1-.1-.13 0-.07.2-.08.4-.05.6l-.05.12c-.01.05-.04.05-.06.01-.02-.03-.05-.03-.08-.01l-.02.02c0 .02 0 .02-.02.02l-.5-.24a.12.12 0 0 0-.12.01.14.14 0 0 0-.05.05c-.03.05-.06.05-.09.01l-.03-.04c.02-.7-.3-1-.95-.93-.13.02-.2.1-.3.16a.1.1 0 0 1-.11.01c-.55-.23-.92-.08-1.12.46h-.06c-.03.03-.06.03-.08 0a.06.06 0 0 0-.06 0 .09.09 0 0 1-.1-.03v-.01c.02-.05 0-.09-.06-.1a.23.23 0 0 1-.12-.08.16.16 0 0 1-.04-.13c.01-.11-.04-.2-.15-.26a.24.24 0 0 1-.1-.13.56.56 0 0 0-.21-.28.24.24 0 0 1-.07-.08.48.48 0 0 0-.26-.22.21.21 0 0 1-.08-.06c-.14-.15-.28-.3-.43-.42a.93.93 0 0 1-.24-.3 1.14 1.14 0 0 0-.28-.35c-.1-.08-.18-.18-.25-.3-.12-.2-.22-.4-.32-.6a.41.41 0 0 0-.1-.14 1.63 1.63 0 0 0-.13-.11c.2-.34.4-.65.6-.95.07-.1.11-.22.13-.36.01-.07 0-.08-.06-.03l-.45.4-.01.02a.04.04 0 0 1-.04-.01l-.01-.02c-.4-1.01-.7-2.03-.89-3.05a.82.82 0 0 1 .08-.52c.37-.79 1-1.34 1.89-1.65a.67.67 0 0 1 .4-.01c1.38.37 2.56.98 3.54 1.85.05.03.04.06 0 .09-.17.08-.33.16-.48.25-.01 0-.02.02-.01.04a.03.03 0 0 0 .03.02c1.2-.2 2.39-.35 3.55-.46.19-.02.33-.03.42-.02l2.43.29c.34.04.72.13 1.08.17.19.03.2 0 .04-.1l-.38-.2-.02-.02v-.02a.05.05 0 0 1 0-.04 8.81 8.81 0 0 1 3.52-1.84.63.63 0 0 1 .37-.02c.9.3 1.55.83 1.92 1.6.1.21.14.42.1.63a19.1 19.1 0 0 1-.86 3 .09.09 0 0 1-.08.02 7.76 7.76 0 0 0-.37-.3c-.17-.14-.2-.12-.1.07.18.33.39.67.63 1.01Z" fill="#A656B7"/><path d="m36.14 16.8-.11.02a15.94 15.94 0 0 0-1.64 1.27.14.14 0 0 0 .03.14l.07.04a3 3 0 0 1 1.17.74c.02.02.1.05.21.08.04.07.06.13.06.18l-.01.05a.1.1 0 0 1-.1.05.1.1 0 0 1-.04-.02c-.48-.35-.98-.75-1.56-.9a.65.65 0 0 1-.38-.25.26.26 0 0 1 0-.31 9.65 9.65 0 0 0 1.21-.85c.33-.26.72-.34 1.11-.43a.05.05 0 0 1 .05.02v.05l-.07.13ZM21.24 19.04l1.4-.8a.11.11 0 0 0 .05-.08.1.1 0 0 0-.03-.09c-.5-.5-1.06-.91-1.7-1.24a.21.21 0 0 1-.07-.14c-.01-.04 0-.05.04-.05.48.08.82.2 1.03.36.38.3.78.57 1.21.82.06.04.1.09.12.15.01.06 0 .13-.03.19-.19.34-.46.27-.76.41a6.48 6.48 0 0 0-1.25.8.1.1 0 0 1-.1-.05.09.09 0 0 1 0-.06c0-.06.03-.14.09-.22Z" fill="#26163B"/><path d="M36.14 16.8a5.35 5.35 0 0 0-.27 2.29.56.56 0 0 1-.21-.08 3 3 0 0 0-1.17-.74.15.15 0 0 1-.1-.1.14.14 0 0 1 .05-.14c.54-.46 1.07-.87 1.59-1.2.02-.02.06-.03.11-.02ZM20.97 16.83a6.93 6.93 0 0 1 1.71 1.28.1.1 0 0 1 0 .1.11.11 0 0 1-.05.04l-1.4.8-.02-.73c-.02-.47-.1-.97-.24-1.5Z" fill="#55366E"/><path d="m26.1 22.61-.03.01v.03a1.58 1.58 0 0 1 .62.95v.02a.04.04 0 0 1-.04 0l-.47-.05a.17.17 0 0 1-.13-.1c-.25-.48-.48-.79-1.03-1.02-.48-.2-.88-.11-1.2.26-.2.25-.37.5-.5.77-.02.06-.06.06-.1 0a.55.55 0 0 0-.12-.15.14.14 0 0 1-.05-.1c-.01-.74.32-1.28 1-1.6.15-.07.31-.1.47-.06.56.12.98.3 1.26.54l.64.6c.06.05.05.06-.03.03-.1-.03-.2-.08-.29-.13ZM30.91 22.7c0-.02 0-.03-.02-.04h-.03l-.15.07c-.08.04-.09.03-.03-.03.53-.62 1.14-1 1.85-1.14a.73.73 0 0 1 .42.04c.68.28 1.04.8 1.1 1.57 0 .14-.1.23-.2.32a.07.07 0 0 1-.05.02.07.07 0 0 1-.05-.03c-.1-.24-.24-.46-.38-.66-.37-.5-.85-.6-1.44-.28l-.36.2c-.24.16-.38.46-.51.7a.24.24 0 0 1-.18.12l-.37.06c-.1.02-.13-.02-.1-.1.1-.33.26-.6.48-.79a.04.04 0 0 0 .02-.04Z" fill="#26163B"/><path d="M36.99 21.63c.12.19.27.34.38.52.24.43.45.86.64 1.31-.22.9-1.32 1.6-1.84 2.33l-1.42-.51a.06.06 0 0 0-.07.03v.08h.01l1.44.65c0 .06.05.1.14.11v.04c.01.03 0 .05-.04.05a.18.18 0 0 0-.16.1h-.04c-.02-.01-.04-.01-.05.01l-.01.02c0 .02 0 .02.03.03a.43.43 0 0 0-.3.19 18.54 18.54 0 0 1-4.2 2.28 9.15 9.15 0 0 1-3.92.43c-.61-.13-1.33-.1-1.9-.32l-.63-.18a7.13 7.13 0 0 1-2.6-1.19l-.5-.41a.07.07 0 0 1-.01-.08l.01-.03c.04-.03.04-.07 0-.1-.28-.2-.55-.37-.84-.55a.26.26 0 0 1-.1-.15.14.14 0 0 0-.07-.08c-.06-.02-.08-.07-.08-.13.48-.25.95-.46 1.43-.65.17-.06.17-.11-.02-.13a12.23 12.23 0 0 0-1.1.38.78.78 0 0 0-.38.05.07.07 0 0 1-.08-.01 21.53 21.53 0 0 0-.48-.43.15.15 0 0 1-.07-.06.61.61 0 0 0-.14-.16.52.52 0 0 1-.12-.16.92.92 0 0 0-.26-.32.66.66 0 0 1-.22-.29.34.34 0 0 0-.1-.15.34.34 0 0 1-.15-.33.04.04 0 0 0-.03-.05c-.03 0-.05 0-.05.02-.03.07-.04.07-.05 0a2 2 0 0 0-.03-.2c.23-.55.5-1.09.8-1.6l.2-.2.14.11c.05.04.08.09.1.14.54 1.13 2.04 2.11 2.91 3.35-.05.59.56 1.13 1.04 1.46.56.37 1.27-.75 1.44-1.16l.03.04c.03.04.06.04.09 0a.14.14 0 0 1 .05-.06.12.12 0 0 1 .11 0l.51.23c.02 0 .02 0 .02-.02 0 0 0-.02.02-.02.03-.02.06-.02.08.01.03.04.05.04.06 0l.05-.12c.27.8 1.17 1.07 1.78.42a.14.14 0 0 1 .1-.04.14.14 0 0 1 .1.03c.08.08.17.15.26.21.28.2.6.21.94.04a1 1 0 0 0 .6-1.04c.06.09.09.19.09.3 0 .04.01.07.05.08l.22.09a.1.1 0 0 0 .13-.05c.03-.04.06-.06.1-.05a.1.1 0 0 0 .12-.04c.04-.07.1-.12.18-.15.03-.01.06 0 .07.03l.05.11c.15.38.85 1.48 1.39 1.17.53-.3 1.28-.98 1-1.67v-.05l.04-.02h.01c.01.02.02.02.03 0 0-.05.04-.07.08-.07.02 0 .04 0 .06.02l.01.04c0 .03 0 .03.01 0a.16.16 0 0 1 .04-.04.12.12 0 0 1 .1-.02h.07c.03 0 .06-.02.08-.05.7-1 2.06-1.76 2.52-2.95.02-.05.05-.1.1-.14.03-.02.03-.05 0-.08-.07-.07-.07-.13 0-.2Z" fill="#9353A7"/><path d="M25.17 22c.02 0 .04.02.05.04.05.07.06.13.03.18a.09.09 0 0 1-.04.03h-.06c-.28-.09-.55-.16-.82-.2-.13-.02-.13-.06-.01-.1.28-.13.56-.12.85.04ZM31.83 22.25a.01.01 0 0 1-.02 0v-.02c-.01-.07.03-.14.1-.2.09-.07.2-.12.34-.15h.04a.8.8 0 0 1 .36 0c.1.03.16.08.18.15v.01l-1 .2ZM23.68 22.1c-.05.07-.05.16.02.21.06.05.16.03.21-.04.06-.07.06-.17 0-.22-.07-.04-.17-.03-.23.05ZM33.18 22.29c.06.06.16.08.22.02.06-.05.06-.15 0-.22-.07-.07-.17-.08-.23-.02-.06.05-.06.15 0 .22Z" fill="#fff"/><path d="M17.7 24.91a.1.1 0 0 0 .03-.01.04.04 0 0 0 .02-.04.04.04 0 0 0-.02-.03 1.8 1.8 0 0 1-.54-.88l1.15-.64c.16-.09.2-.05.12.11-.2.45-.4.91-.59 1.4-.03.07-.09.1-.17.1Z" fill="#DD0102"/><path d="M38 23.46c.5.98.82 1.88.95 2.68.06.33.01.73-.14 1.21-.08.1-.17.11-.26.07-.39-.45-.86-.83-1.4-1.14-.35-.2-.68-.36-.98-.5.52-.72 1.62-1.41 1.84-2.32ZM19 23.6a2 2 0 0 1 .04.19c.01.07.02.07.05 0 0-.02.02-.02.05-.02l.03.02v.03c-.01.14.03.25.14.33.05.04.1.1.11.15.05.11.12.2.22.29.1.08.2.19.26.32.03.06.07.1.12.16.06.04.1.1.14.16.02.03.04.05.07.06l.11.07.37.36c.02.02.05.03.08.01a.78.78 0 0 1 .37-.05c-.97.42-1.95.96-2.64 1.76-.07.02-.15 0-.25-.07-.17-.48-.21-.9-.14-1.29.15-.74.44-1.57.88-2.48Z" fill="#835099"/><path d="M17.19 23.95a1.8 1.8 0 0 0 .55.9.04.04 0 0 1 0 .05l-.04.01c-.68.23-1.25.81-1.72 1.33-.2-.29-.32-.6-.34-.95.44-.51.96-.96 1.55-1.34Z" fill="#DC6703"/><path d="M25.64 25.7c-.17.4-.88 1.52-1.44 1.15-.48-.33-1.09-.87-1.04-1.46.2-.54.57-.7 1.12-.46a.1.1 0 0 0 .1 0c.1-.08.18-.15.3-.17.66-.07.98.24.96.93ZM33.85 25.2c.27.68-.48 1.36-1.01 1.67-.54.3-1.24-.8-1.39-1.18-.14-.71.64-1.26 1.24-.76.03.02.06.02.1 0 .44-.2.8-.11 1.06.26Z" fill="#FFC9ED"/><path d="M15.64 25.29c.02.35.13.66.34.95-.27.46-.5.95-.66 1.46a2.33 2.33 0 0 1-1.1-.36c.34-.74.82-1.43 1.42-2.05Z" fill="#ECC802"/><path d="M17.62 25.58c-.22.98-.15 1.91.21 2.78.02.04 0 .06-.03.08-.56.23-1.12.26-1.7.08a.15.15 0 0 1-.08-.07c-.58-1.04.83-2.42 1.6-2.97.03-.03.04-.02.03.02a.1.1 0 0 1-.02.04l-.01.04Z" fill="#fff"/><path d="M36.13 26.04a7.1 7.1 0 0 1 2.34 1.63 4 4 0 0 1-1.06 1.05c-.33.18-.61.4-.94.58-1.04.58-2.04.98-3 1.22-.81.21-1.7.23-2.53.38a8.1 8.1 0 0 1-1.82.13c-.86-.04-1.73.06-2.59-.07l-2.3-.32c-.77-.1-1.6-.36-2.49-.75-.76-.34-1.48-.76-2.15-1.27a5.71 5.71 0 0 1-.94-.94l-.02-.06a7.13 7.13 0 0 1 2.23-1.54c0 .06.02.1.07.13.04.02.06.05.07.08a26.2 26.2 0 0 0 6.57 3.01c.15.04.31.05.48.06h.48c.88.02 2.14-.18 2.96-.49 1.23-.46 3.43-2.3 4.5-2.47H36c-.02 0-.03-.01-.03-.03v-.02c.02-.02.04-.02.06 0 .02 0 .03 0 .04-.02a.18.18 0 0 1 .16-.09c.04 0 .05-.02.04-.05v-.03c-.09-.02-.13-.06-.14-.12Z" fill="#835099"/><path d="M21.3 27.46c.1-.06.21-.1.34-.15.16-.04.18-.01.05.1l-1.46 1.22a.11.11 0 0 1-.06.02c-.08.02-.13-.03-.12-.13 0-.03 0-.06.03-.08.34-.36.75-.69 1.22-.98ZM35.26 27.35v-.04c.03-.02.07-.03.13-.03s.13.03.22.07c.09.03.18.09.28.15.1.06.2.14.3.22l.22.16c.2.16.38.34.49.5.1.14.15.26.1.31v.01a.02.02 0 0 1-.03 0l-1.7-1.35Z" fill="#26163B"/><path d="M38.81 27.35a1.5 1.5 0 0 1-.3.86c-.36.47-.82.9-1.39 1.28-.58.4-1.18.79-1.8 1.18-.78.5-1.58.84-2.43 1.22a.15.15 0 0 1-.08 0c-.17-.01-.33-.08-.5-.09-.44-.02-1.2.07-1.49.47a.1.1 0 0 1-.1.04c-1.05-.21-1.76.14-2.1 1.03-.06.13-.11.13-.16 0a1.6 1.6 0 0 0-.4-.64 1.77 1.77 0 0 0-1.7-.4c-.05.02-.08 0-.1-.04a.51.51 0 0 0-.26-.22 2.55 2.55 0 0 0-1.7-.16.2.2 0 0 1-.12 0c-.96-.4-1.71-.77-2.26-1.11-.72-.45-1.41-.9-2.08-1.37a4.95 4.95 0 0 1-1.38-1.36c-.1-.16-.17-.38-.2-.67.1.06.2.09.26.07a.38.38 0 0 0-.01.19c0 .04.03.05.07.03.02 0 .03-.02.05-.04l.02.06c0 .03.02.05.03.08.31.36.61.65.9.86.69.5 1.4.93 2.16 1.27.89.4 1.72.64 2.48.75l2.31.32c.86.13 1.73.03 2.6.07.6.03 1.2-.02 1.8-.13.85-.15 1.73-.17 2.55-.38.95-.24 1.95-.64 3-1.22.32-.18.6-.4.93-.58a4 4 0 0 0 1.06-1.05h.08c.04 0 .06-.03.06-.07a.4.4 0 0 0-.06-.18c.1.04.18.02.26-.07Z" fill="#55366E"/><path d="M14.23 27.34c.34.22.7.34 1.1.36-.16.38-.14.73.06 1.05-.38.21-.8.23-1.24.07-.07.02-.1 0-.12-.06-.07-.46 0-.93.2-1.42Z" fill="#03B87C"/><path d="m29.03 27.76.37-.04c.41-.02.47.1.2.4-.2.2-.45.39-.74.42-.66.08-1.09-.04-1.5-.57a.16.16 0 0 1 .07-.25.17.17 0 0 1 .1 0c.5.09 1 .1 1.5.04Z" fill="#55366E"/><path d="m15.53 30.22.3-.16a.1.1 0 0 1 .04-.02c.03 0 .05.01.06.03 0 .02.02.03.05.03.5.1 1.08.18 1.55-.03a.11.11 0 0 0 .07-.09l.08-.55a.12.12 0 0 0-.05-.12.12.12 0 0 0-.13 0c-.2.12-.69.08-.93.07h-.03a.06.06 0 0 1-.03-.05v-.02l.04-.24c.5-.04.97-.17 1.43-.37a.1.1 0 0 1 .1.02l.56.54c.03.03.03.06 0 .08-.29.22-.5.47-.66.78a.14.14 0 0 1-.09.08c-.43.13-.99.12-1.63.13-.28.01-.53-.03-.73-.11Z" fill="#A656B7"/><path d="M15.39 28.75a1.79 1.79 0 0 0 1.16.32l-.04.24a.06.06 0 0 0 .03.07h.03c.24 0 .73.05.93-.07a.12.12 0 0 1 .13 0 .12.12 0 0 1 .05.12l-.08.55c0 .05-.03.08-.07.1-.47.2-1.05.13-1.55.02a.07.07 0 0 1-.05-.03c-.01-.02-.03-.03-.06-.03a.1.1 0 0 0-.04.02l-.3.16a2.5 2.5 0 0 1-1.47-1.31.06.06 0 0 1 .03-.05l.02-.01.04-.03c.45.16.86.14 1.24-.07Z" fill="#0C00C7"/><path d="M22.16 29.1c-.09.22-.23.4-.41.53a.13.13 0 0 1-.18-.03.13.13 0 0 1-.03-.06c-.02-.25.44-.5.62-.57a.04.04 0 0 1 .04.01.04.04 0 0 1 .01.03c0 .04-.02.07-.05.1ZM35.32 29.62a1.7 1.7 0 0 1-.44-.58c-.04-.07-.02-.09.06-.06.25.09.45.24.59.46a.13.13 0 0 1-.01.15c-.06.08-.12.09-.2.03Z" fill="#26163B"/><path d="m20.74 31.6.45.05c.04 0 .06.02.06.07-.02.16-.06.3-.1.45l-.1.43c-.05.2-.12.38-.22.55a.1.1 0 0 1-.08.05l-.18.02c-.56-.32-.91-.54-1.07-.65-.4-.3-.84-.74-1.3-1.32.06-.58.41-1.08 1.06-1.5a.1.1 0 0 1 .12 0 8.16 8.16 0 0 1 1.09.7l.02.06c0 .35.19.57.53.67.12.03.12.07 0 .1a1.32 1.32 0 0 0-.45.26.03.03 0 0 0 .01.04h.02c.04.02.09.02.14.01ZM38.86 31.25c-.4.56-.9 1.04-1.47 1.43-.45.3-.81.5-1.1.64-.2-.2-.3-.38-.3-.51-.02-.27-.05-.54-.1-.8 0-.09.01-.24.06-.46l.53.03c.07 0 .08-.02.02-.06a1.92 1.92 0 0 0-.56-.28c-.05-.02-.05-.03 0-.04a.7.7 0 0 0 .65-.72.1.1 0 0 1 .05-.1l1.03-.64a.12.12 0 0 1 .13 0c.67.42 1.03.93 1.06 1.51Z" fill="#A656B7"/><path d="M35.87 30.94a.55.55 0 0 1-.1.1.2.2 0 0 0-.06.06.17.17 0 0 1-.16.07c-.05 0-.06-.02-.01-.05l.31-.2c.06-.04.07-.03.02.02Z" fill="#9353A7"/><path d="M21.24 30.95c.11.03.21.09.3.17.04.04.03.06-.03.05-.12-.02-.21-.09-.28-.21 0-.01 0-.02.01-.01Z" fill="#835099"/><path d="M18.2 31.25c.46.58.9 1.02 1.3 1.32a8.34 8.34 0 0 0 2.95 1.36l.15 1.21c-.32-.04-.6-.1-.88-.2a7.54 7.54 0 0 1-2.68-1.77 2.83 2.83 0 0 1-.83-1.92ZM38.86 31.25c-.01.34-.04.56-.07.67-.17.53-.47.99-.88 1.37-.47.44-.9.78-1.28 1.02-.61.39-1.37.73-2.13.83l.13-1.15c.03-.06.08-.09.13-.1h.1a9.58 9.58 0 0 0 2.53-1.21 5.53 5.53 0 0 0 1.47-1.43Z" fill="#55366E"/><path d="M23.14 31.96c-.47.46-.62 1.2-.66 1.82l-.03.15a8.34 8.34 0 0 1-1.88-.7l.18-.03a.1.1 0 0 0 .08-.05c.1-.17.17-.36.21-.55l.11-.43c.04-.14.08-.3.1-.45 0-.05-.02-.07-.06-.07l-.45-.06a3.9 3.9 0 0 1 2.4.37ZM35.95 31.55c-.05.22-.06.37-.05.46.04.26.07.53.09.8 0 .13.1.3.3.51a9.6 9.6 0 0 1-1.53.58c-.05 0-.1.03-.13.1l-.04-.14c0-.7-.2-1.34-.61-1.9.6-.32 1.25-.46 1.97-.41Z" fill="#835099"/><path d="M23.14 31.96c.2.1.4.23.55.4.03.02.03.06 0 .09-.06.1-.1.2-.1.31-.02.14.02.16.11.05.2-.23.43-.49.77-.5.56-.02 1.14.1 1.59.41.06.05.12.06.2.04.72-.16 1.26.01 1.6.52.2.3.16.54-.14.72-.37.23-.8.28-1.27.16a.89.89 0 0 0-.67-.44 5.04 5.04 0 0 0-.88-.06c-.52 0-.87.2-1.05.61a.1.1 0 0 1-.05.05 372.99 372.99 0 0 0-1.2-.25c-.12-.02-.16-.12-.12-.3.04-.62.19-1.35.66-1.8ZM33.98 31.96c.4.56.61 1.2.61 1.9.03.1.02.18-.04.23a.06.06 0 0 1-.07 0h-.04l-1.05.21a.19.19 0 0 1-.2-.08c-.18-.29-.39-.46-.6-.51-.21-.05-.45-.07-.73-.05-.5.02-.93.2-1.3.51-.52.12-.95.02-1.31-.27a.38.38 0 0 1-.14-.25.46.46 0 0 1 .08-.35c.37-.52.9-.7 1.6-.54.22.05.3-.1.47-.19.36-.16.78-.26 1.25-.27.36-.01.61.2.82.46.14.17.2.15.16-.07a.49.49 0 0 0-.1-.22c-.03-.04-.03-.08 0-.11.16-.18.36-.31.59-.4Z" fill="#FFDCF4"/><path d="M26.45 34.16c-.03.16.05.27.23.32.38.1.78.03 1.21-.23.03-.02.06-.02.08.02.16.28.23.56.2.84a.2.2 0 0 1-.07.12c-.21.21-.47.36-.78.43-.26.07-.53-.03-.8-.07-.1-.02-.13.02-.05.1.2.23.6.28.9.28.05 0 .06.02.03.06a.56.56 0 0 1-.3.22c-.84.26-1.58.14-2.2-.34a1.9 1.9 0 0 0-.43-.24 1.4 1.4 0 0 1-.7-.7c-.03-.07-.09-.1-.17-.09-.04 0-.05.03-.05.07.02.17.1.32.22.46.05.06.04.09-.04.08a2.2 2.2 0 0 1-1.13-.35l-.15-1.2.03-.16c-.04.17 0 .27.12.3a346.22 346.22 0 0 1 1.2.24.1.1 0 0 0 .05-.05c.18-.4.53-.6 1.05-.61.32 0 .6.02.88.06.31.06.53.2.67.44ZM34.6 33.86l.03.13-.13 1.15a2.5 2.5 0 0 1-1.17.36c-.07 0-.08-.02-.03-.07.12-.13.2-.3.22-.5 0-.01 0-.03-.02-.03l-.04-.01h-.08a.12.12 0 0 0-.05.06c-.18.34-.41.58-.7.71a2.5 2.5 0 0 0-.48.28c-.58.44-1.28.55-2.08.34a.74.74 0 0 1-.34-.19c-.1-.1-.07-.14.06-.13.2 0 .8-.07.86-.32a.05.05 0 0 0-.04-.06h-.03a8.2 8.2 0 0 0-.43.09c-.37.08-.78-.1-1.07-.33-.28-.22-.2-.64-.03-.91l.36.45a.14.14 0 0 0 .1.05c.25.02.64.05.84-.14.11-.1.14-.21.08-.31.26-.22.3-.32.13-.3.37-.33.8-.5 1.3-.52.28-.02.52 0 .72.05.22.05.43.22.61.5a.19.19 0 0 0 .2.09 55.98 55.98 0 0 0 1.1-.2l.06-.01c.06-.05.07-.13.04-.23Z" fill="#FFC9ED"/><path d="M30.43 34.48c.06.1.03.2-.08.31-.2.19-.59.16-.84.14a.15.15 0 0 1-.1-.05l-.36-.45c0-.07.02-.12.05-.16.03-.02.06-.03.1 0 .39.22.8.3 1.23.2Z" fill="#FFDCF4"/><path d="M34.99 36.08c-.03.06-.01.1.05.1l-.34.11a.28.28 0 0 0-.14-.08l.43-.13Z" fill="#26163B"/><path d="M35.04 35.8c.22.02.43.07.65.13.24.06.48 0 .7.09.4.17.84.25 1.32.23.52-.01 1.04.05 1.54.2.48.15 1 .2 1.53.17.34-.02.68.03 1.05.14.5.16.97.2 1.39.1a.6.6 0 0 1 .4.06c.29.13.41.35.37.64-.03.18-.08.35-.14.51-.13.34-.08.7-.06 1.06.02.32-.06.6-.24.86-.21.2-.48.28-.82.22-.68-.13-1.35-.28-2.02-.43-.03-.01-.05 0-.04.04.02.16 0 .27-.08.35-.1.56-.17 1.11-.23 1.68-.03.32-.16.47-.23.75a.8.8 0 0 0-.01.35c.06.35 0 .64-.15.85-.18.18-.37.23-.56.17l-.96-.3c-.2-.05-.63-.07-1.3-.04a1.9 1.9 0 0 1-.5-.1c-.26-.3-.22-.73.13-1.32.04-.07.04-.18 0-.34-.1-.37-.04-.81.07-1.18.04-.13.03-.45 0-.95-.02-.14.06-.27.22-.39.05-.03.04-.04-.01-.05l-1.09-.03c-.55-.02-1.03.19-1.54-.11-.04-.02-.07-.02-.08.03-.15.4.2.6.53.57l.77-.06-.02 3.17c0 .04-.02.13-.06.13H33.6c-.04 0-.06-.08-.06-.12V41.1c0-.03-.02-.1-.05-.1h-2.45c-.03 0-.04.03-.04.06v1.85c0 .05-.04.1-.08.09h-1.89c-.02 0-.03-.02-.03-.04v-4.93a.03.03 0 0 1 .03-.03h5.13c.05 0 .07 0 .08-.05l.04-.61c0-.05.02-.1.05-.14.13-.14.16-.3.1-.47a.73.73 0 0 1 .27-.83l.34-.1Zm-1.49 3.24V39h-2.52c-.02 0-.03.01-.03.03V39.99l.03.01h2.49c.01 0 .03-.02.03-.04v-.92Z" fill="#fff"/><path d="M41.97 37.04c.4.13.82.14 1.26.05.27-.06.55.13.55.4 0 .16-.04.32-.1.47-.13.37-.17.75-.12 1.15.06.44-.06 1.15-.72 1.03l-2.22-.47a35.46 35.46 0 0 0-3.44-.46c-.47-.02-.97-.08-1.45-.05-.45.03-.92.16-1.3-.16a.3.3 0 0 1-.1-.32c.1-.33.15-.66.14-1a1 1 0 0 1 .13-.5c.1-.17.08-.35.03-.52-.14-.58.35-.69.79-.59.29.07.58.12.87.16.31.04.61.22.93.2.69-.01 1.43.08 2.22.3.34.09.74.13 1.2.12a4.4 4.4 0 0 1 1.33.2Z" fill="#EDCF96"/><path d="M41.98 37.38c.21.08.42.09.64.03.23-.06.68-.1.7.25.03.45-.02.87-.16 1.26l.01.1c.2.33.03.8-.42.65-.2-.06-.37-.09-.54-.09-.18 0-.36 0-.55-.02-.68-.07-1.36-.17-2.03-.3a2.27 2.27 0 0 1-.4-.1c-.2-.09-.4 0-.6-.1a2.32 2.32 0 0 0-.92-.12 7.57 7.57 0 0 1-1.84-.17c-.3-.05-.54.11-.83.03-.14-.04-.2-.12-.19-.26.04-.31.08-.59.14-.84.1-.4-.22-1.05.37-1.2.26-.06.58.06.87.06.53.01 1.01.07 1.43.17.21.06.4.09.58.1.04 0 .07.02.1.04.07.04.14.06.22.05.39-.01.73.13 1.12.12.33 0 .96.04 1.24.25.1.06.2.08.3.05.26-.07.51-.05.77.04Z" fill="#fff"/><path d="M35.54 37.04a.09.09 0 0 1-.04-.08.08.08 0 0 1 .06-.07.16.16 0 0 1 .1 0l.03.03a.09.09 0 0 1 .02.09l-.04.03a.12.12 0 0 1-.13 0Z" fill="#ECC802"/><path d="M37.19 37.16a.1.1 0 0 1-.13-.02.09.09 0 0 1-.02-.04c0-.06.02-.1.06-.11a.1.1 0 0 1 .1.02l.02.03c.01.05 0 .09-.03.12ZM36.04 37.4c.07 0 .12-.04.12-.11a.12.12 0 0 0-.12-.12.12.12 0 0 0-.12.12c0 .07.05.12.12.12Z" fill="#DD0102"/><path d="M36.74 37.67c.1 0 .19-.08.19-.18 0-.1-.09-.18-.19-.18s-.18.08-.18.18c0 .1.08.18.18.18Z" fill="#03B87C"/><path d="M39.28 37.67c.06-.05.07-.13.03-.17-.05-.05-.13-.04-.18 0-.06.06-.07.14-.03.18.05.05.13.05.18 0Z" fill="#FFC9ED"/><path d="M40.41 37.73c.01.06.06.1.12.1.05-.01.09-.07.08-.13 0-.06-.06-.1-.11-.1-.06 0-.1.06-.09.13Z" fill="#03B87C"/><path d="M42.76 37.89c.08-.04.12-.11.09-.17-.03-.05-.12-.07-.2-.03-.07.04-.1.12-.08.17.03.06.12.07.2.03Z" fill="#ECC802"/><path d="M41.25 37.76c-.05.07-.03.15.03.19.06.03.14 0 .18-.06.04-.07.03-.15-.03-.18-.06-.04-.14-.01-.18.05Z" fill="#FFC9ED"/><path d="M36.05 37.96a.12.12 0 0 1-.06-.09l.01-.05a.08.08 0 0 1 .05-.03c.08 0 .12.03.14.1a.07.07 0 0 1-.02.06.08.08 0 0 1-.05.03c-.03 0-.05 0-.07-.02Z" fill="#ECC802"/><path d="M17 41.03v1.9c0 .05 0 .07-.04.07h-1.9c-.03 0-.06-.02-.06-.06v-4.76c-.01-.12.06-.18.18-.18h1.79c.03 0 .03.02.03.06v.9l.03.04h.9c.05 0 .07.03.07.08v.88c0 .02.01.04.04.04h.92c.01 0 .04 0 .04-.02V38.1c0-.05 0-.1.07-.1h1.87c.04 0 .06.02.06.05v4.9c0 .03-.02.05-.05.05h-1.9c-.04 0-.05-.02-.05-.06v-.9c0-.03-.03-.04-.06-.04h-.88c-.05 0-.06-.03-.06-.09v-.88c0-.02-.03-.03-.05-.03h-.9c-.02 0-.05.01-.05.03ZM25.93 39h-1.85c-.02 0-.04 0-.05.02-.01.01-.03.03-.03.05v2.86l.03.05.05.02h1.86a.07.07 0 0 0 .06-.05v-.88a.07.07 0 0 1 .02-.05.07.07 0 0 1 .04-.02h1.87a.07.07 0 0 1 .07.07v1.86a.07.07 0 0 1-.07.07h-5.86c-.02 0-.04 0-.05-.02a.07.07 0 0 1-.02-.05v-4.86a.07.07 0 0 1 .04-.06l.03-.01h5.86c.02 0 .03 0 .05.02l.02.05v1.86a.07.07 0 0 1-.07.07h-1.86c-.02 0-.03 0-.05-.02l-.02-.04v-.87c0-.01 0-.03-.02-.05a.07.07 0 0 0-.05-.02Z" fill="#fff"/><path d="M35.6 38.36c.08 0 .15-.06.15-.14a.14.14 0 0 0-.15-.14.14.14 0 0 0-.14.14c0 .08.06.14.14.14ZM37.47 38.42c.07 0 .13-.06.13-.14a.13.13 0 0 0-.13-.13.13.13 0 0 0-.14.13c0 .08.06.14.14.14ZM38.65 38.49c.08 0 .14-.06.14-.14a.14.14 0 0 0-.14-.13.14.14 0 0 0-.13.13c0 .08.06.14.13.14ZM41.05 38.44a.1.1 0 0 0 .1-.1.1.1 0 0 0-.1-.12.1.1 0 0 0-.1.11c0 .06.04.1.1.1Z" fill="#03B87C"/><path d="M41.83 38.75c.08 0 .14-.06.14-.14a.14.14 0 0 0-.14-.14.14.14 0 0 0-.15.14c0 .08.07.14.15.14Z" fill="#DD0102"/><path d="M39.33 39.02c.09 0 .16-.06.16-.15a.15.15 0 0 0-.16-.15.15.15 0 0 0-.15.15c0 .09.07.15.15.15ZM40.4 38.88a.1.1 0 0 1 .08 0c.06.02.09.06.09.12 0 .04-.02.07-.06.07a.17.17 0 0 1-.16-.05.07.07 0 0 1 0-.1.17.17 0 0 1 .06-.04Z" fill="#FFC9ED"/><path d="M42.37 39.26c.07 0 .13-.06.13-.12a.13.13 0 0 0-.13-.13.13.13 0 0 0-.13.13c0 .06.06.12.13.12Z" fill="#03B87C"/><path d="M41.43 39.3c-.03.05-.08.06-.15.04a.11.11 0 0 1-.06-.04.1.1 0 0 1 0-.13.11.11 0 0 1 .06-.04c.03 0 .07 0 .12.02.06.04.07.08.03.14Z" fill="#ECC802"/><path d="M39.23 43.93a3.86 3.86 0 0 0-1.89-.3c-.16.03-.35-.02-.5-.07-.16-.04-.21-.13-.17-.29.08-.27.18-.55.3-.83a.48.48 0 0 0 .03-.28c-.06-.35-.06-.7 0-1.03.09-.47.05-.92.06-1.38 0-.02 0-.04.02-.06a.12.12 0 0 1 .04-.05c.73-.39 1.32.02 2.04.11l1.08.14c.2.03.25.12.18.3-.07.15-.1.3-.12.44l-.14 1.34c0 .14-.07.35-.19.61-.1.23-.11.51-.04.87.02.1.01.18-.02.26-.12.28-.35.36-.68.22Z" fill="#EDCF96"/><path d="M37.88 43.27c-.37.22-.75 0-.63-.44.03-.1.06-.2.06-.3 0-.36.04-.7.09-1.03l.1-.8c.02-.27.08-.56.2-.86a.13.13 0 0 1 .09-.09.77.77 0 0 1 .42.02c.06.01.08.05.08.1 0 .03.01.06.03.08.03.02.07.03.1 0l.07-.04a.16.16 0 0 1 .12-.02l1.34.22h.02a.03.03 0 0 1 0 .04l-.4 1.09a.18.18 0 0 0-.01.1l.07.39c.01.04 0 .08-.01.12-.11.28-.22.64-.09.92.13.27.05.48-.21.63a.12.12 0 0 1-.07.01l-.97-.03h-.05l-.24-.12a.12.12 0 0 0-.1 0Z" fill="#fff"/><path d="M43.58 40a1 1 0 0 1-.31.6.16.16 0 0 1-.1.04c-.23.01-.42.02-.65-.04-.6-.15-1.23-.29-1.9-.4.08-.09.1-.21.08-.37 0-.04 0-.05.04-.04.67.16 1.35.3 2.02.44.34.06.61-.01.82-.22Z" fill="#26163B"/><path d="M39.14 40.74a.08.08 0 0 1-.02-.1c.03-.05.07-.07.13-.07.05 0 .08.02.08.06v.1c0 .02-.02.04-.04.05a.09.09 0 0 1-.07 0 .28.28 0 0 1-.08-.04ZM38.6 41.31a.1.1 0 0 0 .12-.1.1.1 0 0 0-.11-.11.1.1 0 0 0-.11.1c0 .06.05.11.1.11Z" fill="#03B87C"/><path d="M37.6 41.47c-.01.06.03.12.08.12s.1-.05.1-.12c0-.06-.04-.12-.09-.12-.05 0-.1.05-.1.12Z" fill="#ECC802"/><path d="M39.12 41.64c.08 0 .14-.06.14-.14a.14.14 0 0 0-.14-.14.14.14 0 0 0-.15.14c0 .08.07.14.15.14Z" fill="#FFC9ED"/><path d="M38.32 42.1c.08 0 .14-.06.14-.13a.14.14 0 0 0-.14-.14.14.14 0 0 0-.14.14c0 .07.06.14.14.14Z" fill="#DD0102"/><path d="M37.79 42.62c.06 0 .12-.05.12-.12a.12.12 0 0 0-.12-.12.12.12 0 0 0-.12.12c0 .07.05.12.12.12Z" fill="#03B87C"/><path d="M39.06 42.88c.03.08.1.12.16.1.05-.03.07-.1.04-.18-.03-.07-.1-.12-.16-.1-.05.03-.07.1-.04.18Z" fill="#ECC802"/><path d="M37.63 43.12c-.13-.03-.17-.1-.14-.2.02-.07.06-.08.13-.06.11.06.15.13.12.21a.09.09 0 0 1-.1.05Z" fill="#FFC9ED"/><defs><linearGradient id="axs1g1t0y" x1="28" y1="0" x2="28" y2="56" gradientUnits="userSpaceOnUse"><stop stop-color="#4F2378"/><stop offset="1" stop-color="#2C146E"/></linearGradient></defs></svg>