<svg width="112" height="112" viewBox="0 0 56 56" xmlns="http://www.w3.org/2000/svg"><rect fill="#2D2560" width="56" height="56" rx="28"/><path d="m22.71 17 2.66-3h11.05L45 22.9v7.5l-7.85 7.85-1.81-1.93 6.66-7.2v-5.2L35.34 17H22.7Zm-5.2 19H31.6l5.62 6.06L35.15 44l-4.83-5h-10.2l-2.6-3Zm-3-2h7.7l-2.85-3h-3.75l-4.06-4.56L15.6 22h6.6l5.4 6H33v-3h-4.24l-5.52-6h-8.72L9 24.95v3.04L14.52 34ZM26.8 19h7.7L40 25.01v3.04L34.48 34h-8.72l-5.52-6H16v-3h5.4l5.39 6h6.6l4.06-4.44L33.4 22h-3.75l-2.85-3Z" fill="#9886FC"/></svg>