<!-- by TradingView --><svg width="56" height="56" viewBox="0 0 56 56" xmlns="http://www.w3.org/2000/svg"><path fill="#181B1E" d="M0 0h56v56H0z"/><path d="m15 28-3 2v-4l3 2ZM18 15l3-2v4l-3-2ZM12 19.18 15 17v2.82L12 22v-2.82ZM16 21.71 21 18v5.29L16 27v-5.29ZM38 15l-3-2v4l3-2ZM28 10l-3 1.5 3 1.5 3-1.5-3-1.5ZM44 19.18 41 17v2.82L44 22v-2.82Z" fill="#EEE93B"/><path d="M40 21.71 35 18v5.29L40 27v-5.29Z" fill="#D3CF38"/><path d="m28 15 5 3-5 3-5-3 5-3ZM18 41l3 2v-4l-3 2ZM40.73 28 44 26.21v3.58L40.73 28ZM12 36.82 15 39v-2.82L12 34v2.82ZM16 34.29 21 38v-5.29L16 29v5.29ZM38 41l-3 2v-4l3 2ZM28 46l-3-1.5 3-1.5 3 1.5-3 1.5ZM44 36.82 41 39v-2.82L44 34v2.82ZM40 34.29 35 38v-5.29L40 29v5.29ZM28 41l5-3-5-3-5 3 5 3Z" fill="#EEE93B"/><path d="M28 31v-8l-5 2.55v5.2L25.5 32l2.5-1ZM28 25v8l5-2.55v-5.2L30.5 24 28 25Z" fill="#B9B859"/><path d="M28 28.5v-2.61l-5 2.73 2.48 1.27L28 28.5ZM28 28.39V31l5-2.73L30.52 27 28 28.39Z" fill="#EEE93B"/></svg>