<svg width="112" height="112" viewBox="0 0 56 56" xmlns="http://www.w3.org/2000/svg"><rect fill="#181B1E" width="56" height="56" rx="28"/><path d="M11 19.82c0-3.36 2.36-4.82 4.43-4.82 3.03 0 6.58 2.02 8.77 3.94a6.9 6.9 0 0 0 3.8 1.68 6.9 6.9 0 0 0 3.8-1.68C34 17.02 37.54 15 40.57 15c2.07 0 4.43 1.46 4.43 4.82 0 3.35-3.17 8.39-7.52 10.94.66.66 3.52 4.09 3.52 6.93 0 2.85-2.05 4.31-3.74 4.31-2.81 0-4.16-1.45-5.4-2.8-1.07-1.15-2.07-2.19-3.86-2.2-1.79.01-2.79 1.05-3.86 2.2-1.24 1.35-2.59 2.8-5.4 2.8-1.7 0-3.74-1.46-3.74-4.3 0-2.85 2.86-6.28 3.52-6.94C14.17 28.21 11 23.17 11 19.82Zm5.02 2.11c.39.9 2.05 3.32 5.53 5.77.73-.59 2.28-2.12 2.28-3.43 0-1.32-2.95-4.02-5.68-4.02-1.54 0-2.13.95-2.13 1.68Zm18.5 5.77c3.49-2.45 5.15-4.87 5.54-5.77 0-.73-.6-1.68-2.14-1.68-2.73 0-5.68 2.7-5.68 4.02 0 1.31 1.55 2.84 2.29 3.43ZM28 26c-.89.82-2.79 2.64-3.13 3 1.55.41 2.7.47 3.1.44.4.03 1.6-.03 3.24-.44-.36-.36-2.28-2.18-3.21-3Zm-4.64 9.25a9.97 9.97 0 0 0-2.4-2.81c-1.55 1.39-2.07 2.77-2.07 3.65 0 .87.67 1.53 1.33 1.53 1.42 0 2.54-1.54 2.99-2.16.06-.1.1-.16.15-.2Zm11.76-2.81a9.97 9.97 0 0 0-2.4 2.81l.15.2c.45.63 1.56 2.17 2.98 2.17.67 0 1.33-.66 1.33-1.53 0-.88-.51-2.26-2.06-3.65Z" fill="#fff"/><path d="M21.42 41.44c-.72.34-1.6.56-2.68.56-1.7 0-3.74-1.46-3.74-4.3 0-2.85 2.85-6.27 3.52-6.93.83.49 1.67 1.05 2.43 1.68C19.4 33.83 19 35.22 19 36.09c0 .87.56 1.53 1.22 1.53 1.42 0 2.57-1.58 3.02-2.2l.12-.17c.3.6.47 1.22.47 1.86 0 1.79-1.16 3.28-2.4 4.33ZM37.5 30.8c.73.72 3.5 4.1 3.5 6.9 0 2.84-2.05 4.3-3.74 4.3-1.01 0-1.83-.19-2.52-.49-1.28-1.04-2.74-2.57-2.74-4.4 0-.64.41-1.26.72-1.86.34.46 1.56 2.37 3.13 2.37.67 0 1.33-.66 1.33-1.53s-.51-2.26-2.05-3.64c.74-.62 1.57-1.17 2.38-1.66ZM20.48 16.43c1.4.72 2.7 1.62 3.72 2.51a6.9 6.9 0 0 0 3.8 1.68 6.9 6.9 0 0 0 3.8-1.68c1.03-.9 2.36-1.83 3.8-2.55.86-.23 1.83-.39 2.76-.39 1.7 0 2.64 1.04 2.64 2.72 0 1.75-.65 3.2-1.9 4.71.5-.65.82-1.17.96-1.5 0-.73-.6-1.68-2.14-1.68-2.73 0-5.68 2.7-5.68 4.02 0 1.3 1.51 2.8 2.26 3.4A10.4 10.4 0 0 1 31.2 29C30.8 28.6 28.92 26.8 28 26c-.89.82-2.79 2.64-3.13 3l.47.12a9.6 9.6 0 0 1-3.78-1.44c.75-.59 2.27-2.1 2.27-3.41 0-1.32-2.95-4.02-5.68-4.02-1.54 0-2.13.95-2.13 1.68.04.11.1.24.2.39a7 7 0 0 1-1.22-3.6c0-1.68.87-2.72 2.56-2.72 1 0 2.02.18 2.92.43ZM19.9 26.44Z" fill="#E1DFEC"/></svg>