<!-- by TradingView --><svg width="56" height="56" viewBox="0 0 56 56" xmlns="http://www.w3.org/2000/svg"><path fill="#051E34" d="M0 0h56v56H0z"/><path d="m27.51 15.2 5.32 5.11A3.66 3.66 0 0 1 34 23v5.76c0 .51-.3.94-.76 1.13-.18.08-.37.11-.55.1a1.14 1.14 0 0 1-.78-.37l-9.82-10.27a1.23 1.23 0 0 0-1.33-.27c-.46.2-.76.62-.76 1.14v18.63c0 1.73-1.56 3.14-2.86 3.14H17c-1.74 0-3-1.4-3-3.14v-21.8A3.08 3.08 0 0 1 17.07 14h7.49c1.14 0 2.14.38 2.95 1.2Z" fill="#F0F3FA"/><path d="m28.49 40.8-5.32-5.1A3.66 3.66 0 0 1 22 32.97v-5.75c0-.51.3-.94.76-1.13.18-.08.37-.11.55-.1.29.02.56.14.78.37l9.82 10.27a1.23 1.23 0 0 0 1.33.27c.46-.2.76-.62.76-1.14V17.14c0-1.73 1.56-3.14 2.86-3.14H39c1.74 0 3 1.4 3 3.14v21.8A3.08 3.08 0 0 1 38.93 42h-7.49a4.04 4.04 0 0 1-2.95-1.2Z" fill="#0082FE"/></svg>