<svg width="56" height="56" viewBox="0 0 56 56" xmlns="http://www.w3.org/2000/svg"><path d="M28.08 25.6 25.64 28l-8.46-8.36c-.04-.04-.08-.04-.11 0A13.44 13.44 0 0 0 15 32.7c.9 2.39 2.38 4.4 4.44 6.03.06.05.06.1 0 .16l-2.11 2.09c-.05.04-.1.04-.14 0a17.08 17.08 0 0 1-4.83-6.38A16.57 16.57 0 0 1 17.27 15c.05 0 .08 0 .12.04L28.08 25.6ZM34.18 36.5c.66-.5 1.28-1.06 1.87-1.67.08-.08.17-.2.26-.38.1-.16.2-.28.32-.35l2.2 2.18c.07.07.13.06.2-.01a13.5 13.5 0 0 0 2.64-10.52 13.55 13.55 0 0 0-5-8.39c-.1-.07-.1-.15-.01-.23l2.06-2.03c.04-.04.09-.04.14 0A16.5 16.5 0 0 1 45 27.5v1.13c0 .44-.02.82-.06 1.13a16.78 16.78 0 0 1-6.11 11.2c-.05.03-.09.03-.13-.01l-4.52-4.45Z" fill="#DF1147"/><path d="M36.63 34.1a.98.98 0 0 0-.32.35c-.1.17-.18.3-.26.38-.59.6-1.2 1.16-1.87 1.67l-6.01-5.96c-.1-.1-.2-.1-.29 0l-5.94 5.86c-.08.07-.16.08-.24.01a10.89 10.89 0 0 1-3.25-3.9 10.25 10.25 0 0 1 .08-9.17c.03-.07.08-.08.13-.02l2.23 2.19c.07.07.1.16.06.26a7.12 7.12 0 0 0 .72 6.03c.04.07.09.08.14.02l3.83-3.81 2.44-2.4 6.16 6.14c.04.05.1.05.14 0 .12-.14.22-.3.32-.52.23-.53.43-1.13.6-1.8.06-.2.09-.4.09-.6 0-.1 0-.24.03-.43l.03-.4a7.28 7.28 0 0 0-3.38-6.12c-.08-.06-.08-.12-.02-.18l2.13-2.1c.04-.04.09-.05.14-.01a12.57 12.57 0 0 1 2.62 2.8l-.01.02a9.53 9.53 0 0 1 1.48 3.6c.07.4.13.83.18 1.32a10.5 10.5 0 0 1-1.96 6.77Z" fill="#110E0F"/></svg>