<!-- by TradingView --><svg xmlns="http://www.w3.org/2000/svg" width="56" height="56"><path fill="#4100A8" d="M0 0h56v56H0z"/><path d="M18.96 19.29c1.03-1 2.2-1.79 3.54-2.28a8.75 8.75 0 017.57.8c.8.52 1.48 1.15 2.1 1.87l-1.14.91a9.28 9.28 0 00-1.35-1.45c-.58-.5-1.28-.9-2-1.17a7.85 7.85 0 00-4.65-.3 8.45 8.45 0 00-3.71 1.95c-.03.03-.04.05-.06.02l-.1-.12-.2-.23z" fill="#fff"/><path d="M44.49 14.8l-3.02.34c-.32.04-.67.06-.9.31-.34.37-.02.84.25 1.12l.8.86.29.3c.02.02-.22.25-.25.28l-1.42 1.55-.07.08A19.53 19.53 0 0037.93 17c-.02-.02-.14-.17-.16-.14l-.2.18-.19.17c-.02.03.14.19.16.21l.7.84a16.7 16.7 0 011.32 1.9c.05.08.06.08-.01.16l-.88.96a13.84 13.84 0 00-6.06-5.99 13.07 13.07 0 00-9.88-.6 13.88 13.88 0 00-7.62 6.42 14.49 14.49 0 00-1.12 11.18c.02.07.04.1 0 .15l-.12.12-.22.23-.46.49-1.51 1.6-1.62 1.71c0 .01-.07.06-.06.07l.4.38c.04.05.07.13.12.08l.17-.18 2.07-2.11 1.55-1.6c.85 2.18 2.21 4.1 3.97 5.61A13.23 13.23 0 0036.36 38a13.88 13.88 0 003.89-7.88 14.75 14.75 0 00-.73-6.9c-.03-.09-.1-.17-.03-.23l.22-.22.8-.8a14.83 14.83 0 01.87 10.24 16.6 16.6 0 01-1.12 3c-.43.85-.91 1.67-1.43 2.46l1.78 1.13c.75-1.33 1.4-2.7 1.88-4.16a16.46 16.46 0 00-.91-12.68l-.28-.52-.07-.12c-.03-.06 0-.07.06-.11l.25-.26.87-.86.89-.88 1.3 1.39c.3.3.83.62 1.09.11.12-.25.12-.54.13-.82l.12-2.43.05-1.01c.02-.32.02-.63-.13-.93a1.35 1.35 0 00-1.37-.7zM15.1 30.1a12.4 12.4 0 011.54-9.4 11.31 11.31 0 017.66-5.2c3.28-.54 6.69.5 9.19 2.68a11.65 11.65 0 013.3 4.78c.03.08.12.22.05.29l-.24.27-1.7 1.84-3.57 3.84-1.83 1.97-.65.7c-.15.16-.47.5-.73.38-.32-.14-.37-.74-.43-1.05l-.47-2.55c-.32-1.72-.6-3.46-.96-5.17-.15-.74-.57-1.53-1.4-1.61-.56-.06-1.09.22-1.48.6-.4.4-.77.81-1.15 1.22l-1.85 1.95L15.35 31l-.24-.88c.07.3-.54-2.25 0 0zm12.66 1.46c0 .02 0 .01 0 0zm9.48-1.83a12.1 12.1 0 01-5.26 7.74 10.93 10.93 0 01-13.36-1.29l-.1-.1-.03-.02a11.82 11.82 0 01-2.74-3.97c-.03-.08-.13-.2-.06-.27l.24-.25 1.64-1.67 3.54-3.63L23 24.35c.38-.38.74-.79 1.13-1.15.17-.15.45-.36.69-.27.32.13.38.62.43.91l.46 2.62.86 5.04c.06.38.12.78.32 1.11.34.6.9.98 1.62.86.6-.1 1.05-.52 1.47-.94l1.9-1.9 5.48-5.53c.24 1.54.21 3.11-.11 4.63.34-1.62-.17.82 0 0z" fill="#fff"/></svg>