<svg width="56" height="56" viewBox="0 0 56 56" xmlns="http://www.w3.org/2000/svg"><path fill-rule="evenodd" d="M28 44a16 16 0 1 0 0-32 16 16 0 0 0 0 32Zm0 1a17 17 0 1 0 0-34 17 17 0 0 0 0 34Z" fill="url(#a)"/><path fill-rule="evenodd" d="M28 42a14 14 0 1 0 0-28 14 14 0 0 0 0 28Zm0 1a15 15 0 1 0 0-30 15 15 0 0 0 0 30Z" fill="url(#b)"/><path d="M37.4 31.4a10 10 0 1 1 .54-2.32l-1.64-.41c-1.35-.35-2.21-1.61-2.74-2.9a6 6 0 1 0-1.54 6.68c1.09-.98 2.52-1.78 3.94-1.42l1.45.37Z" fill="#C7CDFF"/><circle cx="28" cy="28" r="4" fill="#C7CDFF"/><defs><linearGradient id="a" x1="14.36" y1="18.2" x2="44.52" y2="30.5" gradientUnits="userSpaceOnUse"><stop stop-color="#407FC6"/><stop offset=".49" stop-color="#011337"/><stop offset="1" stop-color="#BBA3D3"/></linearGradient><linearGradient id="b" x1="15.42" y1="19.97" x2="41.84" y2="33.23" gradientUnits="userSpaceOnUse"><stop stop-color="#064789"/><stop offset=".51" stop-color="#011435"/><stop offset="1" stop-color="#104480"/></linearGradient></defs></svg>