<svg width="112" height="112" viewBox="0 0 56 56" xmlns="http://www.w3.org/2000/svg"><rect fill="#F0F3FA" width="56" height="56" rx="28"/><path d="M36.46 17.6a3.14 3.14 0 0 1-1.37-.21l3.29 4.68c.61.86 2.85 2.32 3.21 2.46.37.13.1-.44.18-1.23.1-.79.14-.64.83-1.97.68-1.34 1.6-5.17 1.36-6.06-.22-.9-.68-1.43-2.73-.73-2.06.7-4.18 2.98-4.77 3.07Z" fill="url(#avrl3rbon)"/><path d="M37.79 18.18c-.31.44-.68.47-1.05.63l.56.82c.09 0 .27-.08.35-.32.1-.3.27-.41.54-.65.27-.23.28-.48.78-1.02.5-.55 1.45-1.86 1.55-1.91-1.65.92-2.42 2.02-2.73 2.45Z" fill="#845521"/><path d="M39.54 20.34c-.3.28-.78.14-1.24.1.45.54 1.35 1.64 1.4 1.68.05.05.14-.48.74-.85s.74-.93 1.36-1.91c.63-.98.13-.38.07-.34-.05.04-1.1-.12-1.43-.22-.35-.1-.17.04-.6.31-.43.28.14.25.17.63s-.17.33-.47.6Z" fill="#3D2719"/><path d="M39.4 18.69c-.56.56-.67.72-.86.64-1.38-.61.67-1.23 1.82-2.73 1.16-1.5.42-1.07-.1-.82-.54.25-1.59 1.58-2.16 1.94-.57.36-.65.57-1.18.72-.53.15-.47-.53 0-.56.47-.02 1.72-1.44 2.8-2.35 1.09-.9 1.78-.87 2.65-.93.87-.05.47.28.56.48.08.2-.09.8-.46 1.22-.37.42-.8.74-1.7 1.32-.89.6-.82.51-1.37 1.07Z" fill="#B9995E"/><path d="M14.12 36.43c-.14.75-.75 1.16-.78 1.47l.78 2.35c.2 1.59 3.17 4.75 13.41 4.75 12.81 0 15.55-4.78 15.9-5.7.36-.93.22-2.43.22-3.66s-.57-1.23-.92-2.25c-.36-1.03.35-1.78.7-2.66.36-.9-.13-2.63-.35-3.93-.21-1.3-1.17-2.9-2.88-4.2-1.7-1.3-2.7-3.08-3.88-4.14-1.17-1.05-1.78-1.5-2.27-1.63-.5-.14-2.89-.38-3.35-.79-.46-.4-.92-.4-1.46-.38a17.2 17.2 0 0 1-3.38-.64c-.92-.28-2.84 1.05-3.56 1.43-.7.38-3.87 1.67-4.8 2.02-.92.34-3.56 4.64-4.16 5.7-.6 1.06-.22 2.97-.22 5.02 0 2.05-.14 2.05 0 2.94.15.88.72 2.32 1 2.97.29.65.14.58 0 1.33Z" fill="url(#bvrl3rbon)"/><path d="M35.48 34.6c.85-1.63-2.22-8.42-2.9-8.83-1.45-1.14-4.6-1.64-5.54-1.39-.94.25-4.35 2.13-5.12 2.54-.77.4-1.28.57-1.87 1.39-.6.82-1.54 5.56-1.45 6.79.08 1.23 1.2 4.17 2.04 5 .86.81 3.58.97 6.4.65 2.81-.33 2.9-1.64 5.54-3.03 2.64-1.4 2.05-1.47 2.9-3.11Z" fill="#C4BC95"/><path d="M27.04 16.4c.76.3 1.75 2.92 1.93 3.37.25.18.84.49 1.17.3.41-.22 1.64-1.57 3.16-1.73 1.52-.17 3.05 1.43 4.28 2.7A5.35 5.35 0 0 1 39 23.58c.56 2.52 1.6 7.73 1.29 8.43-.38.87-2.96 3.85-5.5 4.58-2.55.73-4.66-1.12-4.78-.73-.11.4-3.04 5.5-6.79 4.66-3.75-.84-2.72-5.22-3.4-6.54-.67-1.32-1.05 1.4-2.28 1.88-1.23.48-1.02.96-2.25-.87s-.65-1.4-.76-2.36c-.12-.96-.88-1.52-1.03-1.8-.12-.22.05-3.11.15-4.52 0 0 .03-1.47.4-2.36.39-.9 1.47-2.42 2.12-3.38.64-.95 1.23-1.37 3.1-2.24 1.87-.88 3.8-1.66 4.16-1.94.35-.28 2.84-.31 3.6 0Z" fill="#DCB972"/><path d="M14.23 28.75c.12-1.16 1.82-5 2.18-5.17 1.46-.76 4.24-.64 6.85.34 2.6 1 .66 1.86.48 2.62-.18.76-.54 1.45-1.15 2.67-.6 1.22-1.27.47-1.94.93-.66.47-.97 2.33-1.27 4.6-.3 2.26 1.27 3.6 1.27 4.47 0 .87-1.33.93-2.12 0-.78-.93-1.63-1.8-2.12-3.14-.48-1.33-.9-1.5-1.45-3.6-.54-2.1-.85-2.56-.73-3.72Z" fill="#E7D9AA"/><path d="M33.8 30.96c.36-1.63-.37-4.54-.37-5.12 1.35.16 4.33.51 5.4.7 1.32.23 2.48.93 2.66 2.5.18 1.57-.49 2.79-1.58 5.29s-3.09 1.86-4.6 2.96c-1.51 1.1-4.78 2.39-4.85 1.46-.06-.93.49-1.4 1.34-2.9a18.93 18.93 0 0 0 2-4.9Z" fill="#C6B58A"/><path d="M23.85 21.32c-.35-.58.05-1.14.11-1.2l2.27 1.2c0 .1.02.33 0 .5-.02.21-.68.36-1.37.34-.69-.02-.66-.26-1.01-.84Z" fill="#534C42"/><path d="M25.4 19.45c.9.06 1.44 1.89 1.57 2.06-.6-.4-1 0-1.4 0-.38 0-.43-.11-.8-.27-.36-.16-.07-.66-.07-.82 0-.16-.18-.16-.62-.16h-1.32c.58-.29 1.91-.86 2.64-.81Z" fill="#141408"/><path d="M24.56 20.2c-.02-.15-.45-.16-.48-.16-.04.05-.1.2-.08.3.03.14.2.2.37.2.16.01.2-.18.19-.34Z" fill="#fff"/><path d="M25.09 20.04c-.27 0-.04.18 0 .32.18.1.55.28.64.2.12-.12-.06-.2-.11-.28-.05-.09-.26-.24-.53-.24Z" fill="#575558"/><path d="M32.97 24.37c-.45-.32-.37-1.2-.31-1.33.26-.14.91-.4 1.48-.42.7-.01.93.42.96.42.03 0 .16.79.14.9-.03.12-.34.55-.55.66-.21.1-1.27.08-1.72-.23Z" fill="#292023"/><path d="M32.94 22.69c-.56.29-.8.25-1.03.3.2.08.71.2 1.03.06.4-.17.56-.28 1.1-.28.43 0 1.17.48 1.49.72-.27-.48-.9-1.45-1.33-1.45-.52 0-.7.36-1.26.65Z" fill="#141408"/><path d="M34.07 23.1a2.05 2.05 0 0 0-.67-.06l.2.42c.03.07-.2.33-.2.4 0 .08.13.25.32.26.19 0 .56-.24.64-.33.08-.09 0-.4 0-.46s-.23-.18-.29-.23Z" fill="#161417"/><path d="M34.44 22.8c-.17-.1-.74-.02-.84 0-.13.02-.34.1-.2.15.16.07.5.13.8.25.29.12.2.03.28.02.09 0 .13-.32-.04-.43ZM33.32 24.01c-.07-.14-.27-.17-.44-.23-.25-.09-.1.37.03.5.13.12.39.1.48.07.09-.03 0-.2-.07-.34Z" fill="#6F675A"/><path d="M22.4 29.74c.1-.06 3.82-.96 4.59-.9.6.04 2.12.62 2.8.9 0 .58.05 1.74.15 1.7.14-.07.67-1.21.8-1.02.14.18.32.56.32 1.8s-3.11 6.24-3.62 6.64c-.51.39-1.8.8-2.82.58a4.35 4.35 0 0 1-2.1-1.34 35.94 35.94 0 0 1-.33-1l.02.08c.14.37.7 1.08 2.02 1.43 1.76.47 2.19.11 2.5 0 .32-.11 1.32-.9.94-1.5h-.39l1.6-3.57c.18-.52.48-1.7.34-2.22a2.26 2.26 0 0 0-1.08-1.3c-.27-.11-.9-.22-1.15-.11-.26.11-1.98-.1-2.37.11-.4.2-1 .6-1.1 1.07l-.72 3.84c.01-.2-.05-.35-.4.58-.34.93-.62 1.2-.72 1.22-.08-.56-.21-1.78-.12-2.24.12-.56.41-1.65.63-2.59.17-.75.22-1.75.22-2.16Z" fill="#0F0B0A"/><path d="M22.61 37.43c-.69-1.69.88-6.8.97-6.82.39-.18 0 .08.83 0 .84-.09.94.63 1.16.93.21.29.39.83.63.72.25-.12 2.56-.17 2.73.42.17.6-.98 3.38-1.04 3.44-.05.04-1.14 1.77-1.69 2.63-.96.12-3.03.03-3.59-1.32Z" fill="url(#cvrl3rbon)"/><path d="M24 30.05c-.41.09-.63.85-.68 1.22 1.57-.47 1.89.7 2 .83.12.12.13.17 1.95.28 1.82.1 1.61.56 1.82.47.2-.1.07-1.28 0-1.83-.08-.55-.81-.97-1.5-1.26-.7-.3-3.1.18-3.6.3Z" fill="url(#dvrl3rbon)"/><path d="M24.93 35.5c-.09.44-.42 1.5-.57 1.97.38-.87 1.2-2.74 1.35-3.18.2-.55.62-2.53.71-2.96.09-.43.58-1.14.75-1.4.14-.21-.06-.26-.17-.26-.21.2-.68.7-.83.97-.18.33-.31 1.85-.46 2.54-.14.7-.66 1.79-.78 2.33Z" fill="#181310"/><path d="M22.58 35.19c-.26.07-.84 1.46-.87 1.57 0 .78.93.88.96.83.02-.05.17-2.48-.1-2.4Z" fill="#C5A689"/><path d="M27.25 36.85c-.44.1-1.05 1.65-1.04 1.88 1.26-.1 1.56-1.1 1.63-1.18.06-.07-.15-.8-.59-.7Z" fill="#C9B290"/><path d="M30.74 30.4c.03-.46-.6-.64-.93-.66l-.11 1.86c.33-.2 1-.74 1.04-1.2Z" fill="#B4A57E"/><path d="M28.51 19.58c-.06.64-1.09.96-1.26.96a4.2 4.2 0 0 0-2.02-1.21c-1.18-.26-1.36.25-2.31.66-.96.4-.74-.4.15-.66s1.71-1.03 2.62-1.58c.91-.55 2.11-.43 2.45-.13.33.3.44 1.32.37 1.96Z" fill="#DEC38E"/><path d="M31.51 20.41c0 .5.4 1.45.67 1.97.04 0 .17-.03.35-.11.22-.1.8-.43 1.38-.66.58-.24.8-.07 1.73.38.93.45.11-.38-.4-.98-.5-.6-1.18-.98-1.78-1.66-.6-.68-1.28-.51-1.77-.24-.49.28-.18.81-.18 1.3Z" fill="#D5BE92"/><path d="M29.96 18.06c-.07.58-.57 2.13-.57 2.68.5-.7 1.81-2.27 2.98-2.95 1.46-.85.12-.64 0-.73-.13-.1-2.1-.73-2.57-.49.16.27.22.91.16 1.5Z" fill="#BA8633"/><path d="M27.55 21.56c-.95.64-3.33 2.74-3.49 2.83.87-.53 3-1.53 4.6-1.34 1.6.2 3.5 1.87 4.25 2.68a81.85 81.85 0 0 0-1.87-3.35c-.58-.9-.92-1.52-1.59-1.7-.67-.18-.95.24-1.9.88Z" fill="#E0BF7A"/><path d="M20.52 20.42c.42-.07 1.3 1.4 1.5 2.07 0 .28.06.91.32 1.1.31.24 1.98.53 2.17.53.2 0 2.46-1.25 4.26-1.25 1.8 0 2.91 1.45 3.25 1.75.34.3 1.14.96 1.62.96.48 0 1.11.14 2.38.32 1.27.17.64-.32 2.25-.8 1.62-.48 1.25.48 2.94.95 1.7.47.74 1.83.72 2.74-.03.92-1.65 2.26-2.57 2.19-.93-.08-2.33-.13-3.34-.92-1-.79-2.58-3.62-2.66-3.53-.07.1-1.2.79-1.34.98-.14.18-.6 0-.78-.19-.18-.19-.25-1.5-.25-2.02 0-.53-1.12-1.46-2.42-1.71-1.3-.25-2.83 1.51-3.02 1.99-.2.48-.5 1.21-1.04 1.36-.53.15-.57-1.18-1.07-1.84-.5-.66-1.69-.48-3.57-.48s-1.88.15-4.45 0c-2.57-.15-.2-.66 0-1.03s1.15-1.1 1.92-1.62a16.8 16.8 0 0 1 3.18-1.55Z" fill="#E8DBB9"/><path d="M19.06 23.75c-.84.66-2.06.54-3.24.54 0 .06-.15.04-.72-.54-.72-.71 2.52-3.43 5.05-4.4 2.53-.95.91 1.86.85 2.49-.06.63-1.1 1.25-1.94 1.91ZM24.02 26.01c-.17-.17-.74-.66-.87-1 .13-.23.65-.8 1.64-1.19a6.24 6.24 0 0 1 2.35-.49c.12.02-.29.38-.95 1.5-.66 1.12-1.11.94-1.4 1.18-.3.24-.59.17-.77 0Z" fill="#EBEBCF"/><path d="M27.85 27.68c.06.25.02.78 0 1.02.18-.2.59-.65.7-.86.13-.26.46-.16 1.05-.22.6-.07.95-.5 1.2-.83.27-.33-.3-.35-.66-.56-.36-.2-.47-.31-.54-.73-.07-.42.14-.27.41-.19.28.08 1.02.33 1.02.19 0-.15-.06-.4-.33-.65a3.84 3.84 0 0 0-.69-.53c-.13-.06-1.01 0-1.6 0h-1.33c.16 0 .48.2.57.3.1.11 0 .5 0 .7 0 .19-.42.52-.74.65-.31.13-.67.18-.65.26 0 .08.75.56.97.71.22.16.53.43.62.74Z" fill="url(#evrl3rbon)"/><path d="M26.31 25.62a4.1 4.1 0 0 0 1.23.1c.48-.18.17-1.06.07-1.22-.1-.16-.54-.2-1.1 0-.57.18-.38 1-.2 1.12ZM30.5 25.16c-.13-.09-.95 0-1.06 0-.07.42.33.91.54 1.02.21.11.52.21.62.19.1-.02.36-.66.37-.83 0-.17-.34-.3-.47-.38Z" fill="#0B0B09"/><path d="M28.38 23.47c-1.44 0-2.06.79-2.1 1.11.35-.08 1.28-.23 2.23-.23s1.96.35 2.53 1.03c-.17-.8-1.21-1.9-2.66-1.9Z" fill="#7D776B"/><path d="M23.81 41.7c-4.34-.56-4.94-2.42-5.16-2.8-.43 1.3.13 3.91 5.8 3.91 5.66 0 7.95-2.24 8.38-3.37-1.56.94-5.55 2.69-9.02 2.25Z" fill="#977A40"/><path d="M36.88 37.58c-1.05 1.31-.73 1.67-.73 1.97 2.15.93 3.2-1.14 4.53-2.54 1.32-1.4 1.42-3.47 1.42-4.61 0-1.14-.74-.8-1.2-.75-.45.04-1.23 2.15-1.91 3.3-.7 1.13-1.06 1.31-2.1 2.63Z" fill="url(#fvrl3rbon)"/><path d="M42.32 40.88c-.38-.12-.88-.25-1.46-.4l-1.35-.37c-1.21-.33-1.7-.1-2.38.23-.41.2-.9.43-1.67.58-1.45.28-1.74.63-2.09 1.06-.13.16-.28.34-.5.53-.54.45-.73 1.32-.9 2.1l-.05.18c6.04-.62 9-2.5 10.4-3.91Zm-20.36 3.74c.24-.16.11-.3-.06-.46-.2-.2-.46-.47-.23-.92.37-.72.09-.92-.28-1.18-.2-.14-.42-.3-.59-.55a2.66 2.66 0 0 0-1.62-1.3l-.47-.16c-.57-.2-1.2-.42-2.05-.4-.81.02-1.73.66-2.38 1.14.57 1.28 2.64 3.06 7.68 3.83Z" fill="#E6D4A4"/><path d="M20.1 43.42c-.27-.3-1.33-2.7-1.4-2.85 1.51.64 5.02 1.97 7.03 2.24 2.52.33 2.42-.29 3.11-.33.7-.05 1.97-.34 2.76-.34.8 0 1.58.29 1.58.67 0 .3-.66 1.57-.98 2.17-3.22-.05-9.78-.2-10.33-.37-.69-.22-1.5-.9-1.77-1.2Z" fill="url(#gvrl3rbon)"/><path d="M19.04 24.4h4.04c.12 0 .39.06.51.32.15.32.1 1.54-.15 3.08-.24 1.55-.64.82-1.67 1.7-1.03.86-.94 2.61-1.67 3.43-.72.81-.4-.44-.66-1-.28-.55-.91-.7-2.92-1.5-2-.82-1.94-.18-2.06-.53a7.03 7.03 0 0 1-.24-2.1c.06-.6 1.15-2.36 1.6-3.08.46-.73 1.74-.32 3.22-.32Z" fill="#E9E4C4"/><path d="M35 32.43c.48-1.22-.19-3.32-.5-4.6-.05-.23.5 0 1.28.58.8.59.37.41 1.37.96 1 .56 1.73.56 2.82.15 1.09-.4.67-.09.79.64s0 1.2-.3 2.27c-.3 1.08-1.31 1.28-3 2.5a9.3 9.3 0 0 1-3.95 1.87c-1.18.23-.58-.35.15-1.22.73-.88.85-1.93 1.33-3.15Z" fill="#D6CAA0"/><path d="M23.44 22.28c-.67-.12-.74-.04-1.43-.12-.14.25-.29.87.27 1.37.69.62.69.08 1.67 0 .98-.09.56-.43.6-.9.05-.47-.44-.22-1.11-.35Z" fill="#DAB36E"/><path d="M27.6 20.65c.28-.57.89-1.11.93-1.71.12.27.41.9.63 1.22.27.4.49.15 1.18 0 .7-.15.7-.94 1.1-1.03.4-.08 0 1.87.17 2.53.18.67-.06 1.31-.17 1.35-.12.05-.45-.21-.97-.81-.5-.6-.78-.9-1.45-1.05-.67-.15-1.14.17-2 .8-.88.61-.45-.05-.19-.18.27-.13.47-.54.76-1.12Z" fill="#BF9E57"/><path d="M26.72 26.38c.7.13 1.67 1.4 1.01 2.45-.85.17-2.4-.23-3.25.21-1.06.55-1.02-.13-.97-.55.04-.42 2.5-2.23 3.2-2.1Z" fill="url(#hvrl3rbon)"/><path d="M30.05 27.12c-.68-.22-2.16.44-2.12 1.67.66.54 2.22.92 2.74 1.7.64.97.94.36 1.12-.03.17-.39-1.06-3.12-1.74-3.34Z" fill="url(#ivrl3rbon)"/><path opacity=".7" d="M37.95 25.82c-.37.1-1.56.9-2.24 1.1.23.26.75.9 1.04 1.3.37.5 0 2.48-.36 3.23s0 1.45.36 1.15c.37-.3.57-.8 1.5-1.9.94-1.1 1.1-1.14 1.77-1.94.68-.8.52-1.84-.3-1.84-.84 0 0-.8-.37-1.1-.37-.3-1.04-.1-1.4 0Z" fill="#EBEBCF"/><path d="M40.87 22.22c-.13.25.27.54.52.82.05-.05.18-.28.29-.82.13-.68 1.85-4.54 1.86-5.16.02-.63-.2-.47-.35-.15-.15.32-.3 1.24-.39 1.66-.08.42-.92 2.07-1.26 2.45-.33.39-.53.94-.67 1.2Z" fill="#A57537"/><path d="M21.55 36.7c-.61-2.26.49-6.07.6-6.91.14-1.89-1.66 1.53-1.85 2.33-.2.8.15 4.07.41 5.3.27 1.24 1.44 2.04 2.2 2.62.76.58 2.2-.33 2.04-.58-.15-.26-2.8-.51-3.4-2.77Z" fill="#E9E4C4"/><path d="M17.2 16.65c.06.63-.27 1.93-.44 2.5a286.3 286.3 0 0 1 6.37-2.4c2-.7 2.7-1.54 2.43-1.7-.27-.14-1.47-.91-1.65-1.38-.18-.48-.5-1.12-.78-1.76a6.89 6.89 0 0 0-2.01-2.6c-.94-.62-2.6-.15-3.02 0-.42.15-.31 3.37-.31 4.05 0 .7-.65 2.5-.58 3.29Z" fill="url(#jvrl3rbon)"/><path d="M18.66 9.3c-.56-.03-.58.5-.62.63v2.62c0 .15-.32 2.36-.47 2.9-.16.53-.36 1.54-.16 1.8.2.25.33.62.85.68.51.07 1.43-.26 1.83-.68.4-.43.45-.71.45-1.48 0-.78-.11-1.18-.45-1.85-.34-.66-.38.13-.78.67-.4.53-.94.45-1.27.15-.34-.3.15-.58.62-1.72.47-1.13.92-1.8 1.27-2.18.36-.4.27-.9 0-1.27-.26-.36-.71-.26-1.27-.28Z" fill="#DEC571"/><path d="M21.9 10.4c-.47-1.15-.96-.72-1.38-.68-.05.18 0 .7.53 1.3.67.78.85 2.47.7 3.31-.16.84 0 .6-.39 1.65-.38 1.05.05.52.54.69.5.17 1.03-.3 1.47-.69.45-.39 1.61-.77 1.52-1.05-.09-.28-.56-.69-1.27-1.44a10.14 10.14 0 0 1-1.72-3.08Z" fill="#C68D3E"/><defs><linearGradient id="avrl3rbon" x1="43.44" y1="20.19" x2="37.43" y2="16.11" gradientUnits="userSpaceOnUse"><stop stop-color="#8E501F"/><stop offset="1" stop-color="#BB883E"/></linearGradient><linearGradient id="bvrl3rbon" x1="39.33" y1="19.23" x2="14.7" y2="35.77" gradientUnits="userSpaceOnUse"><stop stop-color="#CEA354"/><stop offset="1" stop-color="#D7BE85"/></linearGradient><linearGradient id="cvrl3rbon" x1="26.62" y1="31.72" x2="24.23" y2="38.15" gradientUnits="userSpaceOnUse"><stop stop-color="#5E3C33"/><stop offset=".37" stop-color="#715041"/><stop offset=".58" stop-color="#694537"/><stop offset=".8" stop-color="#A0746B"/><stop offset="1" stop-color="#B7827A"/></linearGradient><linearGradient id="dvrl3rbon" x1="27.07" y1="29.84" x2="26.31" y2="32.88" gradientUnits="userSpaceOnUse"><stop stop-color="#120E0D"/><stop offset=".85" stop-color="#634137"/></linearGradient><linearGradient id="evrl3rbon" x1="28.64" y1="24.3" x2="28.64" y2="28.7" gradientUnits="userSpaceOnUse"><stop stop-color="#2C2C24"/><stop offset=".66" stop-color="#1D1E16"/></linearGradient><linearGradient id="fvrl3rbon" x1="36.74" y1="38.54" x2="41.48" y2="32.12" gradientUnits="userSpaceOnUse"><stop stop-color="#A56831"/><stop offset=".91" stop-color="#A56831" stop-opacity="0"/></linearGradient><linearGradient id="gvrl3rbon" x1="18.09" y1="42.78" x2="35.31" y2="43.42" gradientUnits="userSpaceOnUse"><stop stop-color="#B09453" stop-opacity=".2"/><stop offset=".46" stop-color="#B09453"/><stop offset="1" stop-color="#B09453" stop-opacity="0"/></linearGradient><linearGradient id="hvrl3rbon" x1="26.63" y1="26.38" x2="25.85" y2="29.26" gradientUnits="userSpaceOnUse"><stop stop-color="#4B483F"/><stop offset="1" stop-color="#4B483F" stop-opacity="0"/></linearGradient><linearGradient id="ivrl3rbon" x1="30.13" y1="27.16" x2="29.47" y2="30.07" gradientUnits="userSpaceOnUse"><stop stop-color="#4B483F"/><stop offset="1" stop-color="#4B483F" stop-opacity="0"/></linearGradient><linearGradient id="jvrl3rbon" x1="21.19" y1="9" x2="21.43" y2="17.65" gradientUnits="userSpaceOnUse"><stop stop-color="#E0C882"/><stop offset="1" stop-color="#D2AB66"/></linearGradient></defs></svg>