<svg width="56" height="56" viewBox="0 0 56 56" xmlns="http://www.w3.org/2000/svg"><path d="M23.33 11.86a5.9 5.9 0 0 1 3.36 3.28c.06.16.15.58.24 1.27.02.14.07.3.16.49.05.1.09.19.1.25.04.1.05.2.03.31l-.05.2c-.15.67-.19 1.1-.11 1.33.11.35.2.71.25 1.1.02.17-.06.34-.24.5a.3.3 0 0 0-.1.15c-.15.5-.34 1.08-.58 1.71a4.56 4.56 0 0 0-.24 1.08c-.03.15-.05.3-.05.44 0 .54-.06 1.24-.15 2.1a5.73 5.73 0 0 1-.22 1c-.09.34-.34.7-.75 1.1-.2.2-.43.47-.71.84-.22.3-.47.57-.74.83a.6.6 0 0 1 .13-.64c.33-.38.63-.7.89-.95.16-.16.15-.3-.06-.42a.8.8 0 0 1-.38-.56l-.45-1.91c.26-.1.5.02.69.38.03.06.02.11-.03.16l-.09.09a.2.2 0 0 0-.06.18l.19 1.3a.2.2 0 0 0 .12.15l.3.13c.04.02.06 0 .08-.03.08-.25.23-.48.44-.69.05-.04.07-.1.07-.16a.7.7 0 0 0-.04-.25c-.12-.31-.13-.67-.02-1.07.06-.24.23-.79.5-1.63.06-.2.12-.5.17-.85.04-.31.09-.55.14-.7.08-.31.15-.7.19-1.19.08-.92.14-1.86.2-2.83.04-.09.04-.17.01-.24-.02-.06-.07-.09-.14-.07a.38.38 0 0 1-.23-.02c-.04-.01-.08-.07-.11-.18a5.64 5.64 0 0 0-.88-1.93 3.42 3.42 0 0 0-.34-.52 7.2 7.2 0 0 0-2.06-1.63c-.19-.1-.35-.1-.5 0-.26.2-.53.34-.8.43a2.79 2.79 0 0 0-.77.44c-.15.1-.35.19-.6.28-.6.2-1.07.54-1.42 1.01-.42.58-.75.99-.98 1.23l-.88.3a1.2 1.2 0 0 1-.52-.14c-.1-.05-.18-.04-.25.04l-.6.6a.32.32 0 0 0-.1.2l-.04.52a.2.2 0 0 1-.08.15l-.35.26a.22.22 0 0 0-.1.15c-.03.2-.12.34-.26.42a.77.77 0 0 1-.31-.29c-.05-.08-.1-.12-.14-.13-.06-.02-.13 0-.21.06l-.33.42c-.2.07-.27.15-.19.24.06.05.13.1.23.13.17.08.29.2.36.37l.36.85c.05.12.1.12.13 0l.04-.12c.01-.03.04-.05.07-.05.03 0 .06.02.07.05a.2.2 0 0 1 .01.12 4.78 4.78 0 0 0-.11 1.78c0 .06.04.09.1.06.3-.1.42-.33.37-.68.14.08.21.21.22.4-.02.6.04 1.1.16 1.49l.52 1.6c.07.21.24.47.52.78.2.24.37.47.5.7.3.58.76 1.28 1.34 2.1.03.04.03.08.02.12-.02.07-.06.1-.13.1-.04 0-.11 0-.2-.02l-2.41-3.18c-.06-.08-.09-.07-.08.03.1.9.03 1.65-.23 2.22a.23.23 0 0 1-.13.12.9.9 0 0 0-.34.22 2 2 0 0 1-1 .48c-.21.03-.23.1-.06.24.25.18.51.36.78.53.28.18.52.37.73.57.79.77 1.61 1.55 2.47 2.34l1.21.95c.69.52 1.42.85 2.2.98.13.01.22-.03.29-.13l.2-.33c.25-.4.44-.66.57-.82.58-.66 1.12-1.34 1.63-2.05a2.66 2.66 0 0 1 .5-.47c.06-.06.05-.1-.01-.14-.47-.3-.9-.61-1.28-.94-.05-.04-.06-.09-.04-.14.07-.02.11-.05.12-.07l1.83.85 2.84.7c.06.02.12.01.18 0 .38-.14.73-.31 1.06-.54.22-.15.76-.26 1.63-.33l1.27.11a.2.2 0 0 0 .15-.05c.16-.16.33-.28.5-.35-.14.13-.24.26-.3.4-.03.06-.02.1.05.13l.32.14c.01 0 .02.02.01.03l-.02.05c-.01.02-.02.03-.04.02l-.37-.16c-.06-.02-.1 0-.13.05l-.24.56c-.03.06 0 .1.06.1l.5.07.04.03c.04.04.04.08.01.13a.15.15 0 0 1-.14.07l-.4-.03c-.12-.01-.2.05-.2.18l-.03.34c-.01.1.04.16.14.16h.34c.2 0 .21.07.07.2-.07.07-.18.1-.36.08-.07 0-.12.03-.15.1s-.03.16.01.27c.03.06.07.07.12.05l.66-.27.05.01.07.07c.03.04.03.07-.02.09l-.7.28c-.07.03-.1.08-.07.15.12.37.31.67.59.92l.01.06c.01.06-.01.1-.08.1l-.23.05c-.2-.13-.33-.25-.37-.35a4.16 4.16 0 0 0-.27-.5c-.04-.06-.08-.07-.13-.03l-.88.66c-.04 0-.08-.02-.12-.09l.97-.8a.15.15 0 0 0 .06-.14l-.05-.37c-.02-.08-.06-.1-.13-.08l-2.4.96-2.17 1.07c-.03.01-.05 0-.06-.02l-.04-.09c-.02-.05 0-.09.04-.12l2.21-1.2 2.47-.96c.06-.02.1-.06.13-.12.07-.15.1-.3.08-.47-.01-.08-.06-.1-.13-.08a9.3 9.3 0 0 0-2.73 1.35c-.1.2-.22.23-.34.08a.19.19 0 0 1-.03-.17c.06-.22.2-.36.42-.44.46-.2.91-.43 1.35-.65.25-.13.62-.25 1.12-.36l.39-.16a.1.1 0 0 0 .06-.04l.32-.7c.03-.06.01-.1-.06-.1l-.96-.02-2.67.67c-.12.02-.13.08-.05.16l.32.32c.04.04.04.08.03.13a.58.58 0 0 1-.14.19l-1.47-.14a.17.17 0 0 1-.13-.09c-.03-.04-.06-.07-.09-.07l-1.86-.6c-.06-.02-.1 0-.13.06-.43.96-1 1.8-1.71 2.5a167 167 0 0 1-1.5 1.45.29.29 0 0 1-.17.08c-.15.02-.42.05-.8.07-.37.02-.67-.05-.88-.22l-1.02-.78a39.04 39.04 0 0 1-2.62-1.98c-.48-.4-.95-.84-1.42-1.34-.13-.14-.3-.36-.5-.66a6.1 6.1 0 0 0-.47-.64.22.22 0 0 0-.17-.07c-.73 0-1.46.16-2.17.46-.05-.22-.05-.39 0-.48 1.05-.22 2.09-.5 3.1-.84a.8.8 0 0 0 .55-.61c.21-.93.33-1.78.35-2.56 0-.07-.05-.2-.16-.4a1.45 1.45 0 0 1-.2-.49c-.03-.3 0-.67.1-1.1.04-.16-.03-.25-.18-.27a.65.65 0 0 1-.23-.07.23.23 0 0 1-.1-.13c-.15-.37-.22-.75-.21-1.14 0-.21-.07-.46-.2-.72l-.93-1.7a11.2 11.2 0 0 1 3.25-4.08l1.84-1.14c.13-.05.2-.05.22-.03.05.1.03.18-.07.23l-2.39 1.41c-.1.06-.18.19-.23.38a.33.33 0 0 1-.08.14l-.88.88a.11.11 0 0 0-.03.14l.03.09c.01.02.03.03.05 0l1.02-1.02a.3.3 0 0 1 .36-.06c.42.18.8.17 1.11-.02.15-.09.37-.34.65-.74.42-.63.91-1.19 1.48-1.69a3.84 3.84 0 0 1 .9-.58c.56-.27.97-.44 1.24-.5.44-.12.86-.1 1.24.04a6.3 6.3 0 0 1 2.24 1.67c.34.38.73.7 1.17.95l.22.48c.03.06.05.06.06-.01.08-.54-.03-1-.32-1.4a13.05 13.05 0 0 0-3.4-3.23c.12-.1.31-.13.57-.06Z" fill="#100808"/><path d="M22.77 11.92c1.32.87 2.45 1.95 3.39 3.23.29.4.4.86.32 1.4-.01.07-.03.07-.06 0l-.22-.47a9.38 9.38 0 0 0-1.48-1.87 4.34 4.34 0 0 0-2.21-1.28c-.4-.08-.78-.06-1.17.07-.42.14-.8.27-1.13.4-.24.1-.59.3-1.04.65l-1 .74-1.84 1.14a.07.07 0 0 1-.04-.03c-.02-.04-.01-.07.02-.1a15.01 15.01 0 0 1 6.46-3.88Z" fill="#5589A7"/><path d="M26.2 16.08a4.6 4.6 0 0 1-1.17-.95 6.3 6.3 0 0 0-2.24-1.68c-.38-.14-.8-.15-1.24-.04a7.47 7.47 0 0 0-2.14 1.1 8.97 8.97 0 0 0-1.49 1.68c-.27.4-.49.65-.64.74-.32.2-.69.2-1.11.02a.3.3 0 0 0-.36.06l-1.02 1.03c-.02.02-.04.01-.05-.01l-.03-.1a.11.11 0 0 1 .03-.13l.87-.88a.33.33 0 0 0 .09-.14c.05-.2.13-.32.23-.38l2.4-1.4c.09-.06.11-.14.06-.24-.02-.02-.1-.02-.22.03l1-.74c.45-.34.8-.56 1.04-.65l1.13-.4c.39-.13.77-.15 1.17-.07.79.17 1.53.6 2.2 1.28a9.4 9.4 0 0 1 1.5 1.87Z" fill="#222127"/><path d="M26.5 18.35c-.27.03-.55.13-.82.28a.4.4 0 0 0-.2.25.4.4 0 0 0 .03.33l.34.6c.04.06.05.14.03.21l-.03.07c0 .02-.02.04-.05.04-.03 0-.05 0-.07-.02-.24-.31-.54-.47-.88-.48-.86-.04-1.37.36-1.5 1.17-.01.07 0 .13.03.18.06.1.11.16.16.17.24.08.24.14-.02.17-.11 0-.19-.02-.23-.1-.16-.27-.3-.26-.43.02s-.2.56-.18.85c.05.8.07 1.42.07 1.83 0 .1.05.14.14.15l.16.01c.1 0 .14-.04.13-.13 0-.05 0-.08.02-.11.03-.07.08-.08.14-.03.2.18.22.39.05.62-.04.06-.09.07-.15.04-.25-.15-.5-.1-.76.15-.05.05-.04.08.03.1.36.09.75.3 1.15.64l.45 1.91a.8.8 0 0 0 .38.56c.2.12.22.26.06.42-.26.25-.56.57-.9.95a.6.6 0 0 0-.12.64l-.5.3c0 .02-.05.05-.12.07-.01-.08-.06-.1-.15-.07l-.65.25c-.27.1-.5.15-.68.18-.32.03-.68.1-1.07.2a.28.28 0 0 1-.19-.02l-2.26-1.02.2.02c.07 0 .11-.03.13-.1a.14.14 0 0 0-.02-.12 20.38 20.38 0 0 1-1.35-2.1 3.7 3.7 0 0 0-.5-.7 2.5 2.5 0 0 1-.5-.77l-.53-1.61c-.12-.4-.18-.89-.16-1.5l.25-.65a4.41 4.41 0 0 0 .97 2.06 1.1 1.1 0 0 1 .18.42c.07.22.16.4.28.56.2.27.38.58.53.94.03.07.08.12.14.16.26.11.5.3.74.56.05.06.1.05.12-.03l.45-1.34c.04-.13.12-.2.25-.25.24-.06.5-.19.76-.37.5.01.96-.07 1.37-.25.07-.03.08-.07.03-.13a.87.87 0 0 0-.64-.33c-.04 0-.06-.02-.06-.06l.01-.06c0-.02.01-.03.04-.04.34-.05.62.05.82.29.23.26.56.3.97.13.06-.03.1-.07.1-.14.1-.87.13-1.44.08-1.7a4.77 4.77 0 0 1-.1-1.58c.04-.2.28-.6.7-1.18a.3.3 0 0 0 .06-.17c0-.44.28-.73.83-.86.4-.1.78-.07 1.13.1.06.02.11 0 .13-.07l.08-.21c.02-.09 0-.14-.1-.15l-.7-.1c.03-.18.02-.35-.03-.51-.01-.06-.06-.1-.12-.1-.25 0-.46.01-.6.04-.47.08-.5 0-.1-.25l.53-.32a.4.4 0 0 0 .2-.3.4.4 0 0 0-.12-.36l-.53-.53a.17.17 0 0 0-.17-.05c-.58.16-1.09.4-1.53.74-.07.06-.1.04-.1-.05 0-.05.01-.11.05-.19a.82.82 0 0 0 .1-.3c0-.1-.03-.12-.1-.04l-.93.92a.16.16 0 0 1-.16.04.16.16 0 0 1-.12-.12c-.1-.35-.1-.69-.02-1.03.01-.03 0-.05-.02-.07a.06.06 0 0 0-.07 0l-1.42 1c-.43.28-.98.36-1.65.23.23-.24.56-.65.98-1.23.35-.47.82-.8 1.42-1.01a2.7 2.7 0 0 0 .75-.38c.25-.17.46-.28.62-.34.27-.09.54-.23.8-.43.15-.1.31-.1.5 0a7.2 7.2 0 0 1 2.06 1.63c.08.09.2.26.34.52a5.64 5.64 0 0 1 .88 1.93c.03.1.07.17.1.18.07.03.15.04.24.02.07-.02.12 0 .14.07.03.07.03.15-.02.24Z" fill="#3B2821"/><path d="M24.6 18.4c-.14.03-.23-.02-.28-.12a.16.16 0 0 1 .01-.17.2.2 0 0 0 .03-.06c0-.09-.03-.12-.11-.11-.27.04-.43.04-.5.02a.17.17 0 0 0-.18.02c-.1.07-.33.09-.68.05-.75-.08-1.47-.22-2.14-.4a.62.62 0 0 0-.43.03l-1.62.73a2 2 0 0 1-.75.11.26.26 0 0 0-.16.07c-.56.47-.81.94-.78 1.42-.04.45.08.7.36.79.08.02.11 0 .12-.09 0-.05.01-.1.04-.13.04-.06.08-.06.11 0l.04.15c.1.27.25.43.43.45.12.02.7.03 1.73.04.06 0 .12.02.17.05.13.08.25.09.36.04.06-.03.1-.08.1-.14.06-.4-.05-.72-.32-.97a.07.07 0 0 0-.08-.01.07.07 0 0 0-.05.06c0 .2.04.4.14.6.04.06.04.14 0 .21a.2.2 0 0 1-.16.12.2.2 0 0 1-.18-.06l-.3-.3c-.06-.05-.06-.1 0-.15a.6.6 0 0 1 .24-.13c.08-.02.09-.06.03-.12s-.18-.1-.35-.1l.07-.09a.16.16 0 0 0 .02-.17.16.16 0 0 0-.14-.1c-.32-.02-.54-.24-.65-.67l1.58.33c.04.25.16.43.36.55-.04.2-.04.41 0 .64.02.09.05.16.1.22.16.17.26.14.3-.1.31.45.37.95.15 1.5-.14.37-.31.63-.53.8-.41.2-.62.53-.6 1.02l-.25.68c-.27.18-.52.3-.76.37a.35.35 0 0 0-.25.25l-.45 1.34c-.03.08-.07.09-.13.03a2.26 2.26 0 0 0-.73-.56.28.28 0 0 1-.15-.16 3.82 3.82 0 0 0-.52-.94 1.71 1.71 0 0 1-.28-.56l-.04-.14a1.1 1.1 0 0 0-.14-.28l-.08-.11a4.41 4.41 0 0 1-.9-1.95c.02-.3 0-.59-.05-.88-.07-.34-.07-.59-.03-.76l.35-1.3c.09-.3.25-.62.49-.95.2-.3.42-.58.63-.87l.88-.3c.67.14 1.22.06 1.64-.23l1.43-.99a.06.06 0 0 1 .07 0c.02.02.03.04.02.07-.08.34-.08.68.02 1.03.02.07.06.1.12.12.06.02.11 0 .16-.04l.92-.92c.08-.08.12-.06.1.05 0 .08-.03.18-.09.29a.44.44 0 0 0-.06.19c0 .1.04.1.11.05.44-.34.95-.58 1.52-.74.07-.01.13 0 .18.05l.53.53c.1.1.13.21.12.35a.4.4 0 0 1-.2.31l-.53.32c-.4.25-.37.33.09.25.15-.03.36-.04.6-.03.07 0 .11.03.13.09.05.16.06.33.03.52Z" fill="#AA8977"/><path d="m16.81 17.44-.63.87c-.24.33-.4.65-.49.95l-.35 1.3c-.04.17-.04.42.03.76.05.3.07.58.06.88l-.25.65c-.01-.18-.09-.3-.22-.39l-.05-1.02c-.01-.17-.08-.28-.21-.35a.36.36 0 0 1-.14-.14l-.4-.69c-.04-.08-.1-.08-.17-.02-.04.04-.06.11-.07.2a.7.7 0 0 0-.36-.36c.17-.2.15-.32-.04-.37l.33-.42a.44.44 0 0 0-.04.26c.01.06.05.1.12.11.15.03.24.09.28.17l.26.55c.04.07.1.1.17.1.07.01.1-.02.1-.1s-.05-.17-.15-.26a.15.15 0 0 1-.04-.16.34.34 0 0 0-.05-.31c.15-.08.24-.22.27-.42a.22.22 0 0 1 .1-.15l.34-.26a.2.2 0 0 0 .09-.15l.04-.51c0-.09.04-.16.1-.22l.6-.6c.07-.07.16-.08.25-.03.15.08.32.12.52.13Z" fill="#222127"/><path d="m24.6 18.4.7.1c.1.01.12.06.1.15l-.08.21c-.02.08-.07.1-.13.06-.35-.16-.73-.2-1.13-.1-.55.14-.82.43-.83.87a.3.3 0 0 1-.05.17c-.43.58-.67.97-.72 1.18-.06.26-.02.79.11 1.57.05.27.02.84-.08 1.71 0 .07-.04.11-.1.14-.41.17-.74.13-.97-.13a.87.87 0 0 0-.83-.29c-.02 0-.03.02-.03.04v.06c0 .04 0 .06.04.06.28.02.5.13.65.33.05.06.04.1-.03.13-.4.18-.87.26-1.37.25l.24-.68.6-1.02c.23-.17.4-.43.54-.8a1.5 1.5 0 0 0-.16-1.5c-.02-.38-.15-.63-.39-.76a.76.76 0 0 1-.36-.55c.13-.1.21-.18.25-.25.04-.06.03-.11-.03-.16-.2-.16-.34-.25-.43-.28-.41-.12-.88-.3-1.41-.52l1.63-.73a.62.62 0 0 1 .42-.03c.67.18 1.39.32 2.14.4.35.04.58.02.68-.05a.17.17 0 0 1 .18-.02c.07.02.23.02.5-.02.08-.01.12.02.1.1a.2.2 0 0 1-.02.07.16.16 0 0 0 0 .17c.05.1.14.15.27.13Z" fill="#CCAA97"/><path d="M26.5 18.35c-.05.97-.11 1.91-.2 2.83-.03.49-.1.88-.18 1.18-.05.16-.1.4-.14.7-.05.37-.1.65-.17.86-.27.84-.44 1.39-.5 1.63-.1.4-.1.76.02 1.07a.7.7 0 0 1 .04.25c0 .06-.02.12-.07.16-.2.21-.36.44-.44.69-.02.04-.04.05-.08.03l-.3-.13a.2.2 0 0 1-.12-.16l-.2-1.29a.2.2 0 0 1 .07-.18l.1-.1c.04-.04.05-.09.02-.15-.2-.36-.43-.49-.7-.38-.4-.34-.78-.55-1.14-.64-.07-.02-.08-.05-.03-.1.25-.25.5-.3.76-.15.06.03.11.02.15-.04.17-.23.15-.44-.05-.62-.06-.05-.1-.04-.14.03a.2.2 0 0 0-.02.1c0 .1-.04.15-.13.14l-.16-.01c-.1 0-.14-.06-.14-.15 0-.41-.02-1.02-.07-1.83-.01-.29.05-.57.18-.85s.27-.3.43-.02c.04.08.12.1.23.1.26-.03.26-.09.02-.17-.05-.01-.1-.07-.16-.17a.26.26 0 0 1-.03-.18c.13-.81.64-1.2 1.5-1.17.34 0 .64.17.88.48.02.02.04.03.07.02.03 0 .04-.02.05-.04l.03-.07a.26.26 0 0 0-.03-.22l-.34-.6a.4.4 0 0 1-.04-.32.4.4 0 0 1 .2-.25c.28-.15.56-.25.83-.28Z" fill="#CCAA97"/><path d="M18.7 18.4c.53.22 1 .39 1.41.51.09.03.23.12.43.28.06.05.07.1.03.16a.97.97 0 0 1-.25.25l-1.58-.33c-.5-.03-.84.04-1.02.2-.3.28-.54.45-.7.52-.04-.48.21-.95.77-1.42.04-.04.1-.06.16-.07a2 2 0 0 0 .75-.1Z" fill="#3B2821"/><path d="M14.5 19.65c.07.09.08.2.05.3-.02.07 0 .12.04.17.1.1.15.18.15.26 0 .08-.03.11-.1.1a.18.18 0 0 1-.17-.1l-.26-.55c-.03-.08-.13-.14-.28-.17-.07-.01-.1-.05-.12-.11a.44.44 0 0 1 .04-.26c.08-.06.15-.08.21-.06.04 0 .09.05.14.13.07.12.17.22.3.29Z" fill="#AA8977"/><path d="M18.74 19.27c.12.43.33.65.65.67.07 0 .12.04.14.1.03.06.03.12-.02.17l-.07.1c-.4-.05-.8-.02-1.18.08a.06.06 0 0 0-.05.04v.06c.02.03.04.04.07.03l.55-.08c.07 0 .1.02.1.09l-.04.41c0 .08-.05.11-.13.1a1.3 1.3 0 0 1-.66-.42c-.13-.15-.27-.17-.41-.06-.03.02-.03.07-.01.15 0-.06-.02-.1-.04-.15-.03-.06-.07-.06-.1 0a.25.25 0 0 0-.05.13c0 .08-.04.11-.12.09-.27-.08-.4-.34-.36-.79.17-.07.4-.24.71-.52.18-.16.52-.23 1.02-.2Z" fill="#CCAA97"/><path d="m13.08 20 .92 1.7c.14.27.21.52.2.73 0 .4.07.77.21 1.14.02.06.06.1.11.13.08.04.15.06.23.07.15.02.22.1.18.26-.1.44-.13.8-.1 1.11 0 .1.07.27.2.49.1.2.16.33.16.4-.02.78-.14 1.63-.35 2.56a.8.8 0 0 1-.54.61c-1.02.34-2.06.62-3.12.84-.09-.08-.13-.19-.12-.33l-.05-1.3.88-.4a.14.14 0 0 0 .1-.14c0-.72.02-1.43.04-2.15 0-.5.06-1.2.16-2.13l.23-2.24.5-1.16c.05-.1.1-.15.16-.18Z" fill="#FC4C53"/><path d="M17.68 20.7c-.03-.07-.02-.12 0-.14.15-.1.29-.09.42.06.18.21.4.35.66.41.08.02.12 0 .13-.09l.03-.41c0-.07-.02-.1-.09-.09l-.55.08c-.03 0-.05 0-.07-.03a.07.07 0 0 1 0-.06c0-.02.02-.03.04-.04.4-.1.8-.13 1.2-.09.16 0 .28.04.34.1.06.06.05.1-.03.12a.6.6 0 0 0-.25.13c-.05.05-.05.1 0 .15l.3.3a.2.2 0 0 0 .2.06.2.2 0 0 0 .15-.12.23.23 0 0 0 0-.22c-.1-.19-.14-.38-.13-.59 0-.03.01-.05.04-.06.03-.02.06-.01.08.01.27.25.38.57.33.97-.01.06-.05.11-.1.14-.12.05-.24.04-.37-.04a.34.34 0 0 0-.17-.05c-1.03 0-1.61-.02-1.73-.04-.18-.02-.32-.18-.43-.45Z" fill="#1F0A07"/><path d="M14.96 22.46c.04.35-.08.58-.37.68-.06.03-.1 0-.1-.06a4.78 4.78 0 0 1 .1-1.78.2.2 0 0 0 0-.12.08.08 0 0 0-.07-.05c-.03 0-.06.02-.07.05l-.04.12c-.04.12-.08.12-.13 0l-.36-.85c0-.1.03-.17.07-.2.07-.07.13-.07.17.01l.4.69c.03.06.08.1.14.14.13.07.2.18.2.35l.06 1.02ZM20.68 20.15c.23.13.37.38.4.77-.04.23-.14.26-.3.09a.42.42 0 0 1-.1-.22 1.7 1.7 0 0 1 0-.64Z" fill="#696868"/><path d="M24.44 20.77c-.05 0-.1 0-.15.04-.06.04-.07.1-.01.15l.27.27c.1.11.23.13.37.07a.3.3 0 0 0 .2-.31c0-.1-.04-.2-.1-.3-.03-.04-.02-.06.03-.05l.23.02c.05 0 .09.03.1.08.05.22.02.41-.1.59a.13.13 0 0 1-.12.06l-1.15-.1a.2.2 0 0 1-.15-.08.2.2 0 0 1-.03-.18c.06-.21.02-.34-.1-.37-.34-.07-.34-.12.01-.16.14-.01.37 0 .7.01.06 0 .1.04.12.11.02.07.02.13-.02.18 0 .03-.02.04-.04.04l-.02-.04c0-.02-.02-.03-.04-.03Z" fill="#100808"/><path d="m20.7 23.21-.6 1.02c-.02-.49.19-.83.6-1.02Z" fill="#3B2821"/><path d="M32.2 26.86a8.28 8.28 0 0 0-1.86 1.92l-1.08 1.8a.2.2 0 0 1-.14.1.59.59 0 0 1-.5-.12c-.1-.07-.23-.23-.4-.46a12.4 12.4 0 0 0-.1-.15.16.16 0 0 1-.03-.16l.28-.72c.01-.05 0-.1-.03-.18-.03-.04-.1-.09-.19-.13-.08-.03-.08-.07 0-.12.43-.28.6-.62.48-1.02a9.1 9.1 0 0 1-.4-3.07c-.03-.06 0-.1.05-.12l.2-.06c.12-.04.14 0 .07.09l-.03.04c-.02.02-.02.06-.01.1l.17.77c-.19.34-.23.66-.13.95l.31.9c.22.6.1 1.07-.36 1.43-.07.06-.07.11-.01.17l.14.15a.1.1 0 0 1 .02.12l-.37.87a.22.22 0 0 0 0 .2c.03.06.08.1.15.11l.4.1c.17.04.28 0 .34-.14l.2-.51a7.46 7.46 0 0 1 1.8-2.39c.04-.02.03-.05 0-.06-.52-.2-.95-.51-1.28-.96l-.25-.33c-.29-.37-.48-.64-.6-.82-.06-.1-.13-.25-.2-.48a2.7 2.7 0 0 0-.18-.43c-.03-.05-.05-.1-.04-.13a.3.3 0 0 1 .03-.07c.03-.07.07-.07.1 0 .36.63.63 1.04.83 1.2.43.36.81.81 1.16 1.36.14.21.36.34.67.39.06 0 .11 0 .16-.03.21-.11.42-.15.63-.11Z" fill="#1F0A07"/><path d="M23.96 24.4c.07.08.09.16.05.27-.03.08-.06.08-.1 0a1.91 1.91 0 0 1-.08-.17c-.08-.22-.04-.25.13-.1Z" fill="#AA8977"/><path d="M28.23 24.87c-.03.76.1 1.68.4 2.75.12.4-.05.74-.49 1.02-.07.05-.07.09.01.12.1.04.16.09.19.13.03.07.04.13.03.18l-.28.72a.16.16 0 0 0 .02.16l.12.15c.16.23.3.39.38.46.16.12.33.16.51.12a.2.2 0 0 0 .14-.1l1.08-1.8.23 2.04c-.87.07-1.41.18-1.63.33-.33.23-.68.4-1.06.53a.33.33 0 0 1-.18.01l-2.84-.7a4.96 4.96 0 0 1 1.66-.43c.16-.02.27-.15.34-.38l.08-.27c.21-.7.35-1.27.4-1.73.12-.83.29-1.7.52-2.6.08-.3.2-.54.37-.71ZM43.16 25.6l-.86.57c-.28.18-.59.33-.93.44l-1.56.55a.16.16 0 0 1-.16-.03c-.43-.35-.7-.53-.84-.55a3.6 3.6 0 0 1-.95-.25 4.3 4.3 0 0 1 1.35-.21c.48 0 .84-.04 1.09-.1.73-.2 1.44-.43 2.14-.73.17-.07.3-.09.41-.05a.5.5 0 0 1 .31.36Z" fill="#FC4C53"/><path d="M28.68 25.37c.52 1.32.7 2.67.55 4.03 0 .08 0 .13.02.18.03.05.07.1.13.14l-.21.5c-.06.14-.17.2-.34.15l-.4-.1a.22.22 0 0 1-.15-.12.22.22 0 0 1 0-.19l.38-.87a.1.1 0 0 0-.03-.12l-.14-.15c-.06-.06-.06-.11 0-.17.47-.36.59-.84.38-1.42l-.32-.91c-.1-.3-.05-.6.13-.95Z" fill="#956E4A"/><path d="M43.16 25.6c.12.18-.02.44-.4.77-.79.5-1.67.8-2.64.9l-.37.09c-.17.05-.32-.01-.45-.18a.23.23 0 0 0-.14-.09l-1.78-.42c-1.17-.07-2.4 0-3.7.21h-1.11c1.78-.46 3.54-.65 5.29-.55.33.14.65.22.95.25.13.02.41.2.84.55.05.04.1.05.16.03l1.56-.55c.34-.11.65-.26.93-.44l.86-.57Z" fill="#1F0A07"/><path d="M21.82 26.06c.16-.12.33-.16.5-.11.25.07.5.1.78.1.03 0 .05.02.06.05v.05c0 .02-.02.03-.04.04l-1.16.24c-.12.03-.25-.04-.38-.2-.06-.06-.04-.1.04-.13h.06c.05 0 .1 0 .14-.04Z" fill="#AA8977"/><path d="m22.54 29.1-1.79.26a.41.41 0 0 1-.3-.07 9.5 9.5 0 0 1-1.05-.84c-.07-.07-.1-.24-.12-.52 0-.1.05-.25.18-.46.15-.27.14-.55-.03-.84-.16-.26-.1-.34.16-.24.28.11.61.16 1.02.13.08 0 .42.02 1.01.08a4 4 0 0 0 1.62-.17c.05-.02.1 0 .13.02.04.03.05.07.05.12l-.14 1.75c0 .08-.03.15-.1.2l-.48.5a.27.27 0 0 1-.16.08Z" fill="#CCAA97"/><path d="M42.75 26.37c.1.04.16.1.2.2a1 1 0 0 1-.46.57c-.33.1-.64.22-.94.36-.21.1-.44.18-.66.22-.25.04-.48.1-.7.17a9.82 9.82 0 0 1 1.42 2.46c.04.1 0 .15-.1.16-1 .02-1.95.25-2.86.68.04-.07.04-.13.02-.16s-.06-.04-.13-.04a.77.77 0 0 1-.37-.01c-.23-.1-.43-.17-.62-.19a3.01 3.01 0 0 0-.9-.4 4.82 4.82 0 0 0-2.43.44c-.05-.12-.12-.31-.2-.6a.53.53 0 0 0-.17-.26l.37-.5c.07-.38.04-.74-.1-1.08-.27-.63-.75-.84-1.44-.61-.58.08-.88.41-.91 1-.02.3.09.53.3.72.48.41 1.01.41 1.59 0a.05.05 0 0 1 .04 0 .1.1 0 0 1 .05.03c.02.03.02.05 0 .08-.08.12-.14.25-.17.4l-1.08.52c-.18.07-.35.19-.5.35a.2.2 0 0 1-.16.05l-1.27-.1-.23-2.05a8.28 8.28 0 0 1 1.86-1.92l.37.02h1.1c.58.4 1.16.76 1.74 1.06.33.18.59.1.76-.21.07-.13.17-.16.3-.09l.3.18c.1.05.2.06.3 0a.3.3 0 0 0 .17-.23l.15-.92 1.77.42c.06.01.1.04.14.09.13.17.28.23.45.18l.37-.1c.97-.09 1.85-.38 2.63-.89Z" fill="#E89E56"/><path d="m17.91 29.73 2.26 1.02c.06.02.12.03.18.01.4-.1.76-.16 1.08-.2.18-.02.41-.08.67-.17l.66-.25c.09-.03.14 0 .15.07-.02.05-.01.1.04.14.38.33.8.64 1.28.94.06.04.07.08.01.14l-.11.1c-.2.16-.33.29-.39.37-.51.71-1.05 1.4-1.63 2.05a7.07 7.07 0 0 0-.77 1.15.26.26 0 0 1-.29.13 4.86 4.86 0 0 1-2.2-.98 52.7 52.7 0 0 1-1.21-.95 6.53 6.53 0 0 0-1.3-1.76c-.22-.22-.58-.8-1.07-1.76a3.3 3.3 0 0 0-.55-.64.9.9 0 0 1 .34-.22c.06-.02.1-.06.13-.12.26-.57.34-1.31.23-2.22-.01-.1.01-.1.07-.03l2.42 3.18Z" fill="#AA8977"/><path d="M41.95 28.34c-.07 0-.12-.02-.14-.07-.03-.06-.02-.1.03-.15.31-.27.53-.6.66-.98a1 1 0 0 0 .44-.58.5.5 0 0 1 .07-.08c.13-.06.18-.03.12.11a5.64 5.64 0 0 1-1.18 1.75Z" fill="#3B2821"/><path d="m37.39 26.67-.15.92a.3.3 0 0 1-.18.24.3.3 0 0 1-.3-.01l-.3-.18c-.12-.07-.22-.04-.3.09-.16.32-.42.39-.75.21a16.7 16.7 0 0 1-1.74-1.06c1.3-.2 2.54-.28 3.72-.21Z" fill="#E9B887"/><path d="m22.33 27.6-.12.57c-.1.46-.4.58-.92.38-.14-.06-.36-.32-.65-.78a.16.16 0 0 1 0-.18c.02-.04.03-.1.01-.16a.22.22 0 0 0-.1-.16l-.5-.28c-.05-.03-.05-.06 0-.08l.08-.03h.06c.37.22.77.38 1.19.48.21.05.42.05.61 0 .13-.04.32-.13.6-.28l.27-.15c.38-.2.43-.13.14.19-.07.07-.26.19-.56.34a.2.2 0 0 0-.1.14Z" fill="#1F0A07"/><path d="M42.5 27.14c-.13.39-.35.71-.66.98-.05.04-.06.1-.03.15.02.05.07.07.14.07-.02.17.06.3.22.39 0 .1-.06.2-.16.32-.07.07-.07.17-.01.28.03.06 0 .1-.05.11-.26.07-.43.04-.52-.11a5.21 5.21 0 0 0-1.24-1.44c.21-.07.44-.13.7-.17.22-.04.45-.11.66-.22.3-.14.6-.26.94-.36ZM38.9 27.73c-.62.12-1.03.38-1.22.79a3.4 3.4 0 0 1-.48.76c-.26-.9-.01-1.5.74-1.8a.19.19 0 0 1 .17.02c.24.13.5.2.8.23ZM34.21 29.46l-.17-.54a.34.34 0 0 0-.1-.15 4.22 4.22 0 0 1-.22-.26 1.9 1.9 0 0 0-.65-.55 6.65 6.65 0 0 1-.39-.18c.7-.23 1.17-.02 1.43.6.15.35.18.71.1 1.08Z" fill="#956E4A"/><path d="m32.68 27.78.4.18c.18.08.4.26.64.55l.23.26c.04.04.07.09.09.15l.18.54-.37.5-.27.06c.03-.16.09-.3.17-.41a.07.07 0 0 0 0-.08.1.1 0 0 0-.05-.04h-.04c-.58.42-1.1.42-1.59 0a.84.84 0 0 1-.3-.7c.03-.6.33-.93.91-1.01ZM38.9 27.73c1.07.75 1.02 1.45-.13 2.1-.12.08-.42.11-.88.12a.2.2 0 0 1-.16-.07l-.53-.6c.16-.19.32-.44.48-.76.2-.4.6-.67 1.22-.8Z" fill="#100808"/><path d="M40.2 27.89c.41.3.82.79 1.23 1.44.09.15.26.18.52.11.06-.01.08-.05.05-.1-.06-.12-.06-.22 0-.3.1-.1.16-.21.17-.31.18-.02.32.02.4.13.06.06.05.12-.02.16l-.14.08c-.05.03-.07.07-.05.13.06.2.07.33.02.42a.16.16 0 0 1-.16.09l-.31-.03c-.08 0-.12.03-.12.11 0 .49.13.7.4.66.66 0 1.3.07 1.92.18a1.48 1.48 0 0 0 .57-.04c.04.05.06.1.06.14a18.67 18.67 0 0 1-1.23 4.1c-.06.17-.16.3-.28.42l-.18-.16c-.05-.05-.05-.1 0-.15.03-.03.05-.07.05-.14a.22.22 0 0 0-.06-.16 5 5 0 0 0-.25-.23c-.08-.07-.12-.14-.1-.2 0-.08.08-.15.22-.21a.13.13 0 0 0 .08-.1c.01-.06 0-.1-.04-.13a1.7 1.7 0 0 1-.43-.75.19.19 0 0 0-.16-.14l-1.38-.26c-.1.01-.2-.02-.3-.1a.14.14 0 0 0-.17-.01.14.14 0 0 0-.08.14l.01 1.5a.26.26 0 0 0-.05.14c-.01.06-.05.09-.1.08a7.03 7.03 0 0 0-2.1-.98c-.03-.01-.04-.03-.04-.06v-.06l.02-.02c.65.12 1.26.35 1.85.7a.1.1 0 0 0 .1 0 .1.1 0 0 0 .06-.09l.08-1.12c.02-.19-.07-.28-.25-.3l-1.39-.1c-.02 0-.03-.02-.02-.05v-.05h.02l1.15-.04c.15 0 .2-.06.13-.16l-.08-.1a.6.6 0 0 0-.47-.28c-.26-.01-.5.03-.73.11-.03.01-.04 0-.04-.02v-.05l.03-.03.75-.27 2.6.09c.05 0 .07-.02.05-.07l-.24-.58a.06.06 0 0 0-.05-.04c-.82-.06-1.6.07-2.35.4a3.2 3.2 0 0 0-1.45.56c-.02.01-.04.01-.05-.01-.02-.02-.01-.04 0-.05l.78-.54a6.93 6.93 0 0 1 2.86-.68c.1 0 .14-.06.1-.16-.3-.8-.77-1.62-1.42-2.46Z" fill="#222127"/><path d="M38.82 28.65a.23.23 0 1 0 0-.46.23.23 0 0 0 0 .46ZM33.07 28.74a.22.22 0 1 0 0-.43.22.22 0 0 0 0 .43Z" fill="#E9B887"/><path d="M36.35 29.23a4.3 4.3 0 0 0-.8-.15c-.11 0-.12-.03-.02-.08.3-.15.6-.18.92-.1.11.04.17.11.18.23 0 .1-.04.15-.14.15a.29.29 0 0 1-.14-.05Z" fill="#1F0A07"/><path d="M14.72 29.14c.3.3.48.5.55.64.5.95.85 1.54 1.08 1.76.52.5.95 1.09 1.3 1.76a99.55 99.55 0 0 1-2.48-2.34c-.2-.2-.45-.4-.73-.57-.27-.17-.53-.35-.78-.53-.17-.13-.15-.21.06-.24a2 2 0 0 0 1-.48Z" fill="#CCAA97"/><path d="m44.92 29.13-.24 1.5h-.07c-.21.04-.37.05-.5.03-.62-.11-1.26-.17-1.92-.18a6.26 6.26 0 0 1 2.73-1.35Z" fill="#FC4C53"/><path d="M37.14 29.84c.12.12.2.27.26.43.02.07 0 .08-.05.04a4.93 4.93 0 0 1-.66-.7c-.04-.06-.03-.08.04-.05.15.06.3.16.41.28Z" fill="#3B2821"/><path d="m28.3 32.49.29.56a.62.62 0 0 0-.42.44c-.02.06 0 .12.03.17.12.15.23.12.34-.08.01.23.07.32.18.28l-2.2 1.2c-.06.03-.07.07-.05.12l.04.09c0 .03.03.03.06.02l2.16-1.07c.04.06.13.1.29.12.08 0 .11.05.12.13 0 .06-.03.1-.1.13-.37.12-.53.35-.47.68-.03.11-.04.2-.02.29.02.07.06.1.14.11.07 0 .14.03.2.07.05.04.05.08 0 .12l-.5.37-1.29 1.17a.18.18 0 0 0-.06.16l.05.28c0 .07 0 .13-.03.2-.1.2-.55.54-1.32 1l-.41.26c-.3.19-.7.5-1.2.93-.6.52-1.27.92-1.98 1.2a40.8 40.8 0 0 1-2.75-1.47 49.2 49.2 0 0 0-3.42-1.6 5.12 5.12 0 0 1-2.25-1.55c-.04-.06-.08-.09-.12-.09-.04 0-.1.02-.16.06a15.86 15.86 0 0 1-2.26-6.27c.71-.3 1.44-.46 2.17-.46.07 0 .13.02.17.07.12.14.28.35.47.64.2.3.37.52.5.66.47.5.94.94 1.42 1.34.86.7 1.73 1.37 2.62 1.98l1.01.78c.22.17.52.24.89.22.38-.02.65-.05.8-.07.06 0 .12-.03.16-.08.18-.16.68-.65 1.5-1.46a8.06 8.06 0 0 0 1.72-2.5c.02-.05.07-.07.13-.05l1.86.6c.03 0 .06.03.09.07.03.05.08.08.13.09l1.47.14Z" fill="#222127"/><path d="M33.85 29.97c.09.07.14.16.17.27a4 4 0 0 0 .2.59c.18.18.42.29.72.33.15.02.28.1.4.23.02.14-.01.27-.12.4-.57.72-1.1 1.33-1.56 1.82-.13.14-.44.34-.91.62a.29.29 0 0 0-.12.13l-.2.4-.07-.01a2.05 2.05 0 0 1-.6-.92c-.02-.07 0-.12.08-.15l.7-.28c.05-.02.05-.05.02-.1l-.07-.06h-.05l-.66.26c-.05.02-.1 0-.12-.05-.04-.1-.04-.2-.01-.28.03-.06.08-.1.15-.09.17.01.3-.01.36-.07.14-.14.12-.21-.07-.21h-.34c-.1 0-.15-.05-.14-.16l.02-.34c.01-.13.08-.2.22-.18l.38.03c.07 0 .12-.02.15-.07s.03-.09 0-.13a.08.08 0 0 0-.06-.03l-.5-.06c-.06-.01-.08-.05-.05-.1l.24-.57c.03-.06.07-.07.13-.05l.36.16c.02 0 .04 0 .05-.02l.02-.05v-.03l-.34-.14c-.06-.03-.07-.07-.05-.13.07-.14.17-.27.32-.4l1.08-.51.27-.05Z" fill="#E9B887"/><path d="m37.55 30.79-1.27.68c-.15.07-.2.03-.14-.12.06-.18.22-.36.5-.55.16-.11.14-.17-.06-.16l-.83.04a.14.14 0 0 0-.14.1.14.14 0 0 0 .04.16c.15.14.19.34.11.59l-.43-.14a.63.63 0 0 0-.38-.23c-.3-.04-.55-.15-.73-.33.75-.36 1.57-.5 2.44-.43a3 3 0 0 1 .89.39Z" fill="#3B2821"/><path d="M37.55 30.79c.19.02.4.08.62.19.07.03.2.04.37.01.07 0 .1 0 .13.04.02.03.02.09-.02.16l-.77.54c-.02 0-.03.03-.01.05.01.02.03.02.05 0 .44-.3.92-.48 1.45-.55.04.07.03.14 0 .2l-.76.27-.02.03v.05c0 .03 0 .03.03.02.23-.08.47-.12.73-.11.19 0 .35.1.47.27l.08.11c.07.1.03.15-.13.16l-1.15.04h-.01l-.01.05c0 .03 0 .04.03.04l1.38.11c.18.02.27.11.25.3l-.08 1.12a.1.1 0 0 1-.06.09.1.1 0 0 1-.1 0 5.51 5.51 0 0 0-1.87-.68v.06c0 .03 0 .05.04.06.68.2 1.31.49 1.9.88.01.11-.06.18-.21.2-.63.16-1.25.32-1.88.46-.28.07-.58.1-.9.1-.31 0-.61 0-.91.03h-.42l-.82-.44c-.05-.03-.06-.06-.02-.1l.74-.74c.07-.07.14-.07.22 0a2.72 2.72 0 0 0 1.9.66.13.13 0 0 0 .06-.12c0-.06-.02-.1-.07-.13-.31-.19-.75-.44-1.3-.74a.69.69 0 0 1-.39-.56l-.08-.68a.2.2 0 0 1 .04-.16c.06-.07.1-.13.11-.18.02-.07 0-.11-.08-.13a.51.51 0 0 1-.3-.16l-.02-.08c.08-.25.04-.45-.11-.6a.14.14 0 0 1-.04-.16c.03-.06.07-.09.14-.1l.83-.03c.2 0 .22.05.05.16-.27.19-.43.37-.5.55-.04.15 0 .2.15.12l1.27-.68Z" fill="#E9B887"/><path d="M43.97 30.88c.13 0 .14.05.06.14l-.06.06c-.1.09-.2.14-.34.14-.35.01-.71.13-1.08.33-.06.04-.12.03-.16-.03a1.21 1.21 0 0 1-.26-.7c0-.06.03-.09.09-.08l1.75.14Z" fill="#FC4C53"/><path d="M39.36 31.43c.04-.06.05-.13 0-.2a4.95 4.95 0 0 1 2.36-.4c.03 0 .04.02.05.04l.24.58c.02.05 0 .07-.04.07l-2.6-.1Z" fill="#E89E56"/><path d="M30.8 31.02c-.07.38.02.72.26 1.02-.5.11-.87.23-1.12.36-.44.22-.89.44-1.35.65l-.29-.56c.07-.07.11-.13.14-.2a.11.11 0 0 0-.03-.12l-.32-.32c-.08-.08-.07-.14.05-.16l2.67-.67Z" fill="#956E4A"/><path d="M31.06 32.04c-.24-.3-.33-.64-.25-1.02l.96.02c.07 0 .1.04.06.1l-.32.7a.1.1 0 0 1-.06.04l-.4.16Z" fill="#E89E56"/><path d="m35.76 31.53.01.08c-.09.02-.15.05-.2.1-.04.06-.04.12.02.17l.16.16c.04.04.06.1.06.16l-.07.9c0 .05-.03.09-.09.1-.83.33-1.56.84-2.2 1.53-.07.08-.06.1.04.04l.37-.22c.86-.5 1.52-.8 1.96-.94a.23.23 0 0 1 .18.02l1.59.85a2.72 2.72 0 0 1-1.7-.67c-.08-.07-.15-.07-.22 0l-.74.74c-.04.04-.03.07.01.1l.83.44-2.97.06c-.11 0-.17-.05-.18-.16-.01-.14-.07-.22-.18-.23l.19-.4c.02-.05.06-.1.12-.13.47-.28.78-.48.91-.62.47-.5.99-1.1 1.56-1.81.1-.14.14-.27.11-.4l.43.13Z" fill="#956E4A"/><path d="m28.97 31.7.15.12c.04.06.03.11-.03.15-.15.09-.27.1-.35.05-.08-.06-.1-.18-.06-.35.02-.07.06-.1.13-.07.02 0 .07.04.16.1Z" fill="#100808"/><path d="M35.77 31.61c.07.08.17.14.31.16.08.02.1.06.08.13a.52.52 0 0 1-.1.18.2.2 0 0 0-.05.16l.08.68c.03.25.15.43.38.56.56.3 1 .55 1.3.74.06.03.08.07.08.13 0 .05-.01.1-.06.12a.79.79 0 0 1-.2.01l-1.6-.85a.23.23 0 0 0-.17-.02c-.44.13-1.1.45-1.96.94l-.37.22c-.1.05-.11.04-.03-.04a5.85 5.85 0 0 1 2.2-1.52.12.12 0 0 0 .08-.12l.07-.89a.2.2 0 0 0-.06-.16l-.16-.16c-.06-.05-.06-.11-.01-.17.04-.05.1-.08.2-.1Z" fill="#1F0A07"/><path d="m40.56 31.76.27.5c-.4.01-.65-.14-.77-.45-.02-.06 0-.09.06-.08l.44.03Z" fill="#956E4A"/><path d="m40.83 32.26-.27-.5 1.45.06c.03 0 .05.01.07.05l.28.68c.01.04 0 .05-.04.05l-1.5-.34Z" fill="#E89E56"/><path d="M28.72 33.86c-.1.04-.16-.05-.18-.28a9.3 9.3 0 0 1 2.73-1.35c.07-.02.12 0 .13.08.02.17 0 .32-.08.47a.23.23 0 0 1-.13.12l-2.47.96ZM40.98 32.65c-.02.23.02.44.13.62.03.06.08.1.14.12l.49.15c.13.03.3.2.5.5a.71.71 0 0 0-.52.12.2.2 0 0 1-.17.03c-.36-.09-.7-.04-1 .14-.06.04-.1.02-.11-.04v-1.61c-.01-.07.02-.11.08-.14a.14.14 0 0 1 .16.01c.1.08.2.11.3.1Z" fill="#956E4A"/><path d="m43.23 35.28.02.04v.1c-.46.98-1.02 1.9-1.67 2.77-.2-.01-.4-.1-.6-.26a2.26 2.26 0 0 0-.68-.46c-.06-.02-.08-.07-.06-.14.18-.47.12-.9-.17-1.3-.14-.18-.13-.38.03-.61.04-.07.1-.09.18-.05.16.09.28.12.35.1.08-.02.08-.05.02-.1-.17-.12-.23-.29-.16-.48v-.17c-.01-.07.05-.13.17-.2.18-.1.36-.1.54 0a.2.2 0 0 0 .16 0c.33-.1.62-.26.88-.48-.2-.3-.37-.47-.5-.5l-.5-.15a.25.25 0 0 1-.13-.12.98.98 0 0 1-.13-.62l1.38.26c.08.01.13.06.16.14.1.31.24.56.43.75.04.03.05.07.04.12 0 .05-.04.09-.08.1-.14.07-.22.14-.23.23 0 .05.03.12.11.19l.25.23c.04.04.06.1.06.16 0 .07-.02.11-.05.14-.05.05-.05.1 0 .15l.18.16Z" fill="#E9B887"/><path d="M30.29 34.65c-.2.28-.52.36-.98.23-.32-.08-.47.01-.47.28-.1 0-.2.03-.27.12-.05-.33.1-.56.48-.68.06-.02.09-.07.09-.13 0-.08-.04-.13-.12-.13-.16-.02-.25-.06-.29-.12l2.41-.96c.07-.02.11 0 .13.08l.05.37c.01.06 0 .1-.06.14l-.97.8Z" fill="#956E4A"/><path d="M42.24 34.04c-.26.22-.55.39-.88.49a.2.2 0 0 1-.16-.02.52.52 0 0 0-.54.01c-.19-.06-.33-.03-.44.08a.26.26 0 0 1-.16.09c-.13.02-.2-.04-.18-.19.15-.02.22-.09.22-.2.06.05.12.09.18.1.06 0 .1-.02.1-.08.02-.05.03-.1.06-.13a.18.18 0 0 0 0 .1c.01.06.05.08.1.04.32-.18.65-.23 1-.14a.2.2 0 0 0 .18-.03.71.71 0 0 1 .52-.12Z" fill="#1F0A07"/><path d="M32.06 34.96c.06.03.08.09.04.17-.02.04-.05.06-.1.06l-1.63-.13c-.05 0-.08-.03-.07-.08 0-.07.04-.15.11-.24l.88-.66c.05-.04.1-.03.13.03.1.15.19.32.27.5.04.1.16.22.37.35ZM39.88 34.5c-.02.15.05.21.18.19a.26.26 0 0 0 .16-.09c.1-.11.25-.14.44-.08-.12.07-.18.13-.17.2v.17c-.07.2-.02.36.16.48.06.05.06.08-.02.1-.07.02-.2-.01-.36-.1-.07-.04-.13-.02-.18.05-.15.23-.16.43-.02.62.29.39.35.82.17 1.3-.02.06 0 .1.06.13.27.12.5.27.68.46l-.46.13c-.04-.2-.17-.29-.41-.25a.13.13 0 0 1-.15-.06l-.32-.54c.02 0 .03-.02.03-.06a.1.1 0 0 0-.04-.09.88.88 0 0 0-.82-.2.24.24 0 0 1-.22-.03.24.24 0 0 1-.1-.2c0-.86-.1-1.03-.28-.52-.08-.23-.27-.2-.58.13a.17.17 0 0 1-.16.05 2.37 2.37 0 0 0-1.06.02 2.1 2.1 0 0 1-.8.06 3.71 3.71 0 0 0-1.35.1.24.24 0 0 1-.17-.03l-.31-.18a.37.37 0 0 0 .08-.21c0-.07-.02-.12-.08-.14a.78.78 0 0 1-.4-.36c-.04-.06-.02-.1.05-.1h2.18c.12 0 .23-.02.35-.05.29-.08.37-.18.23-.31l.9-.03c.33 0 .63-.03.9-.1.63-.14 1.26-.3 1.89-.46Z" fill="#956E4A"/><path d="M30.29 34.65c.04.07.08.1.12.1-.07.08-.1.16-.11.23 0 .05.01.08.07.08l1.62.13c.05 0 .1-.02.11-.06.04-.08.02-.14-.04-.17l.23-.04c.07-.01.1-.05.08-.1l-.01-.07.08.01c.1.01.17.09.18.23 0 .1.07.16.18.16l2.97-.06h.42c.14.13.06.23-.23.3a1.3 1.3 0 0 1-.35.05l-2.18.01c-.07 0-.1.04-.06.1.1.17.23.29.4.36.07.02.1.07.1.14s-.04.14-.1.21c-.09 0-.18 0-.28-.04a1.7 1.7 0 0 0-.5-.72.23.23 0 0 0-.17-.06l-1.7.13-2.28-.4c0-.28.15-.37.47-.29.46.13.79.05.98-.23Z" fill="#3B2821"/><path d="M39.22 35.31c-.02-.02-.01-.03 0-.05l.12-.06c.39-.24.6-.3.66-.22l.03.04c.05.09-.12.25-.5.48l-.12.07c-.02.01-.03 0-.05-.01l-.14-.25Z" fill="#E89E56"/><path d="m28.84 35.16 2.27.41.64.25c.06.03.1.07.1.13.02.06 0 .12-.04.16L29 38.92a3.99 3.99 0 0 0-.2-1.58 9.88 9.88 0 0 1-.4-1.1l.49-.37c.05-.04.05-.08 0-.12a.36.36 0 0 0-.2-.07c-.08 0-.12-.04-.14-.11a.55.55 0 0 1 .02-.29c.08-.09.17-.13.27-.12Z" fill="#E9B887"/><path d="M33.5 36.22c-.26 0-.4.08-.43.25-.07.33-.14.54-.22.63a4 4 0 0 0-1.13.88c-.32.4-.65.7-.97.91-.17.1-.27.19-.32.24-.17.2-.12.27.14.24.15-.02.3.05.44.23.12.14.12.28 0 .42-.18.22-.41.4-.68.54-.22.11-.36.2-.41.29-.16.25-.06.56.29.93.05.05.05.1 0 .15-.19.2-.62.52-1.3.94-.29.18-.38.38-.3.62l-.23.69c-.03.1 0 .14.1.14l1.98-.12c.27.02.53-.05.8-.23.26-.16.46-.14.61.06.05.05.1.08.17.08a.2.2 0 0 0 .17-.08.9.9 0 0 1 .2-.16c.13-.09.21-.17.24-.24.03-.1.03-.23.01-.38l.42.9c-2.12.66-4.2.93-6.28.83a15.43 15.43 0 0 1-4.05-.8.41.41 0 0 1-.15-.1.81.81 0 0 0-.28-.16l.17-.03c.11-.03.13-.07.04-.14l-.4-.33c-.34-.27-.29-.39.15-.35a.5.5 0 0 0 .43-.14c.16.04.33.15.52.33.1.08.2.1.32.05.09-.03.1-.08.02-.14l-.05-.04 1.16-.75c.12-.08.27-.2.46-.37.22-.2.4-.33.54-.4.12-.08.33-.23.62-.46s.5-.4.65-.5c.22-.13.39-.25.51-.36L29 38.92l2.8-2.8c.05-.05.07-.1.06-.17a.16.16 0 0 0-.11-.13l-.64-.25 1.7-.13c.07 0 .13.01.18.06.22.18.4.42.5.72Z" fill="#956E4A"/><path d="M39.64 37.21a16 16 0 0 0-.91 0c-.37 0-.55-.15-.56-.48 0-.2.01-.4.04-.62.18-.5.27-.34.28.52 0 .08.04.15.1.2.07.05.14.06.22.04.3-.08.57-.02.82.19a.1.1 0 0 1 .04.09c0 .04-.01.06-.03.06Z" fill="#3B2821"/><path d="M38.21 36.11a3.9 3.9 0 0 0-.04.62c.01.33.2.48.56.48h.9l.34.54c.03.05.08.07.14.06.24-.04.38.05.41.25a.56.56 0 0 1-.36.05c-.07 0-.1.02-.08.09.02.11.1.15.25.12.26-.04.45-.07.56-.07.36-.01.4.1.1.3-.21.17-.35.45-.4.85l-1.18 1.18a3.4 3.4 0 0 1-.2-.64c-.07-.36-.26-.54-.57-.53-.16.01-.37.1-.64.3l-.14.1c-.16.1-.2.06-.12-.1l.53-1.25c.08-.17.03-.3-.14-.38-.24-.12-.56.03-.94.46l-.1.1c-.18.19-.23.16-.16-.1.15-.45.2-.76.16-.91a.09.09 0 0 0-.07-.07.1.1 0 0 0-.1.03 5.38 5.38 0 0 0-.77 1.1 4.23 4.23 0 0 1-1.31 1.62.83.83 0 0 1-.27.14c-.46.14-.54.21-.24.22-.29.01-.5.08-.64.21-.12.12-.18.09-.19-.08a.32.32 0 0 0-.1-.2c-.04-.04-.1-.06-.21-.05-.31 0-.61.08-.9.2-.07.04-.1.02-.11-.05-.01-.08.03-.2.13-.39.03-.06.02-.08-.05-.07-.03 0-.07.03-.1.07-.2.28-.25.53-.16.77-.2.28-.17.51.06.68.06.05.12.05.18.03.21-.08.36-.02.44.17.09.2.24.28.46.22l.83-.23c.07-.02.14 0 .2.04.17.13.36.2.55.23.03 0 .06.02.06.06.01.04 0 .07-.03.09-.32.22-.55.5-.7.8a.2.2 0 0 0 0 .2l.07.13c.02.04 0 .06-.07.05-.32-.03-.63 0-.91.1-.08-.71-.48-.95-1.2-.71-.31.1-.66.24-1.03.41-.06.03-.11.02-.15-.04a.3.3 0 0 0-.11-.11c-.07-.04-.12-.02-.14.06-.06.26-.17.46-.33.6-.04.02-.04.06-.01.1.02.05.06.06.11.05.03 0 .07 0 .12.02-.03.05 0 .1.07.17l-1.98.12c-.1 0-.14-.04-.1-.14l.23-.69.11-.12c.24-.26.45-.44.62-.52.48-.24.86-.57 1.15-1 .08-.12.07-.23-.04-.33l-.29-.3a.19.19 0 0 1-.05-.17.19.19 0 0 1 .12-.15c.26-.1.5-.24.7-.4.27-.21.42-.42.43-.63.02-.21-.1-.44-.36-.7-.02-.02-.02-.04 0-.05.31-.23.58-.5.82-.83.07-.1.25-.28.54-.55.19-.17.35-.39.48-.64.08-.09.15-.3.22-.63.03-.17.17-.25.42-.25.1.03.2.05.29.04l.3.18c.06.03.12.04.18.02.49-.11.94-.15 1.35-.1.26.04.53.02.8-.05.33-.08.68-.09 1.06-.02.06.01.12 0 .16-.05.31-.32.5-.36.58-.13Z" fill="#E9B887"/><path d="M28.39 36.24c.05.18.19.55.42 1.1a4 4 0 0 1 .19 1.58c-.46.42-.97.88-1.54 1.37-.12.1-.3.23-.51.37-.15.1-.37.26-.66.49-.28.23-.49.38-.6.45-.14.08-.33.22-.55.41-.2.17-.34.3-.46.37l-1.16.75-1.8-1.23c-.06-.04-.06-.08 0-.13l.43-.33c.71-.28 1.37-.68 1.99-1.2a11.38 11.38 0 0 1 1.6-1.18c.77-.47 1.21-.8 1.32-1.02a.31.31 0 0 0 .03-.19l-.05-.28c0-.06.02-.12.06-.16l1.29-1.17Z" fill="#E89E56"/><path d="m22.15 41.44-.43.33c-.06.05-.06.09 0 .13l1.8 1.23.05.04c.07.06.07.1-.02.14a.28.28 0 0 1-.32-.05 1.4 1.4 0 0 0-.52-.33c-.3-.22-.61-.4-.91-.56-.3-.14-.55-.2-.77-.18-.26.04-.54.03-.86 0-.05 0-.08-.04-.08-.1v-.06c.02-.08.06-.12.15-.13l.58-.02c.1 0 .1-.03.01-.07a.85.85 0 0 0-.36-.1c-.26 0-.47-.02-.64-.08l-.51-.23c-.4-.19-.7-.3-.95-.34l-1.42-.19a14 14 0 0 1-3.5-4.08.35.35 0 0 1 .16-.06c.04 0 .08.03.12.09.36.54 1.1 1.06 2.25 1.56 1.8.79 2.94 1.32 3.42 1.6a40.8 40.8 0 0 0 2.75 1.46Z" fill="#100808"/><path d="M32.85 37.1c-.14.25-.3.47-.48.64-.29.27-.47.45-.54.55-.24.33-.51.6-.82.83-.02.01-.02.03 0 .05.26.26.38.49.36.7-.01.2-.16.42-.43.63-.2.16-.44.3-.7.4a.19.19 0 0 0-.12.15c-.02.07 0 .13.05.18l.3.29c.1.1.1.21.02.34-.28.42-.66.75-1.15.99-.17.08-.37.26-.61.52l-.11.12c-.1-.24 0-.44.28-.62a7.28 7.28 0 0 0 1.31-.94c.05-.05.05-.1 0-.15-.35-.37-.45-.68-.29-.93.05-.08.19-.18.4-.3.28-.13.5-.3.7-.53.11-.14.11-.28 0-.42-.15-.18-.3-.25-.45-.23-.26.03-.3-.04-.14-.24.05-.05.15-.14.32-.24.32-.2.65-.5.97-.91a4 4 0 0 1 1.13-.88Z" fill="#1F0A07"/><path d="M39.4 40.58c-.37.33-.68.58-.93.76-.06.04-.13.05-.23.02a5.87 5.87 0 0 1-.54-.24c-.1-.06-.2-.05-.28.02-.05.05-.05.1 0 .14.14.14.35.26.62.37-1 .82-2.1 1.45-3.26 1.9l-1.65.1c.29-.1.6-.13.92-.1.07.01.1 0 .07-.05l-.07-.13a.2.2 0 0 1-.01-.2c.15-.3.4-.58.71-.8a.08.08 0 0 0 .03-.09.08.08 0 0 0-.07-.06c-.19-.03-.37-.1-.54-.23a.22.22 0 0 0-.2-.04l-.83.23c-.22.06-.37-.01-.46-.22-.09-.2-.23-.25-.44-.17a.18.18 0 0 1-.18-.03c-.24-.17-.26-.4-.06-.68.34-.18.68-.25 1.02-.2.07 0 .11.04.12.1l.03.2c.01.08.05.14.12.18.06.04.13.04.2.01l.91-.37a.38.38 0 0 1 .46.11c.17.18.3.32.42.4.07.07.14.08.2.05.05-.03.06-.08.02-.13l-.17-.25a1.51 1.51 0 0 0-.36-.41c-.15-.1-.37-.13-.65-.1-.3 0-.21-.08.24-.22.1-.03.2-.08.28-.14a4.23 4.23 0 0 0 1.3-1.62 5.38 5.38 0 0 1 .78-1.1c.03-.03.06-.04.1-.03.03.01.06.03.07.07.04.15-.01.46-.16.92-.08.25-.02.28.16.09l.1-.1c.38-.43.7-.58.94-.46.17.09.22.21.14.38l-.53 1.24c-.08.17-.04.2.12.1l.14-.1c.26-.18.48-.28.64-.29.3 0 .5.17.56.53.05.2.11.42.2.64Z" fill="#956E4A"/><path d="M40.98 37.93c.2.16.4.25.6.26l-.98 1.21c.04-.4.18-.68.4-.84.28-.22.24-.32-.11-.31-.11 0-.3.03-.56.07-.15.03-.23-.01-.25-.12-.01-.07.01-.1.08-.09.13.03.25.01.36-.05l.46-.13Z" fill="#3B2821"/><path d="M34.32 40.67c.29-.03.5 0 .65.1.1.06.21.2.36.4l.17.26c.04.05.03.1-.03.13-.05.03-.12.02-.2-.04a3.7 3.7 0 0 1-.4-.41.38.38 0 0 0-.47-.1l-.9.36a.23.23 0 0 1-.21-.01.23.23 0 0 1-.12-.17l-.03-.2c0-.07-.05-.11-.12-.12-.34-.04-.68.03-1.02.21-.1-.24-.04-.5.16-.77.03-.04.07-.06.1-.07.07-.01.08.01.05.07-.1.18-.14.31-.13.39 0 .07.04.09.1.06.3-.13.6-.2.9-.21.11 0 .18 0 .21.04.07.07.1.14.1.21.02.17.08.2.2.08.14-.13.35-.2.63-.21Z" fill="#1F0A07"/><path d="m16.95 40.87 1.42.2c.24.03.56.14.95.33l.51.23c.17.06.38.08.64.08.1 0 .22.03.36.1.1.04.09.07-.01.07l-.58.02c-.09 0-.13.05-.14.13v.07c-.01.05.02.08.07.09.32.03.6.04.86 0 .22-.02.47.04.77.18.3.15.6.34.9.56a.5.5 0 0 1-.42.14c-.44-.04-.49.08-.15.35l.4.33c.09.07.07.11-.04.14l-.17.03a.34.34 0 0 0-.28.02 14.66 14.66 0 0 1-4.36-2.41l-.73-.66Z" fill="#E89E56"/><path d="M38.24 41.36c.18.07.11.16-.2.3a2.1 2.1 0 0 1-.62-.38c-.05-.05-.05-.1 0-.14.08-.07.17-.08.28-.02l.54.24Z" fill="#1F0A07"/><path d="M17.68 41.53a14.66 14.66 0 0 0 4.36 2.41c.1.09.03.12-.19.09a15.88 15.88 0 0 1-4.28-2.34c-.07-.06-.07-.12 0-.17h.11Z" fill="#1C5965"/><path d="m33.13 43.66 1.65-.1-1.7.6-.42-.91c-.75 0-1.5.26-2.27.78a.22.22 0 0 0-.1-.02c-.06.01-.1 0-.13-.05-.02-.04-.02-.08.02-.1.16-.14.27-.34.33-.6.02-.08.06-.1.13-.06a.3.3 0 0 1 .11.1c.04.07.1.08.16.05.37-.17.72-.3 1.03-.41.72-.24 1.12 0 1.2.72Z" fill="#1F0A07"/><path d="M32.66 43.25c.02.15.02.28-.02.38-.02.07-.1.15-.23.24a.89.89 0 0 0-.2.16.2.2 0 0 1-.17.08.2.2 0 0 1-.17-.08c-.15-.2-.35-.22-.6-.06-.28.18-.54.25-.8.23-.08-.07-.1-.12-.08-.17a3.95 3.95 0 0 1 2.27-.78Z" fill="#E89E56"/><path fill-rule="evenodd" d="M28 44.49a16.5 16.5 0 1 0 0-33 16.5 16.5 0 0 0 0 33Zm0 .5a17 17 0 1 0 0-34 17 17 0 0 0 0 34Z" fill="#100808"/></svg>