<svg width="112" height="112" viewBox="0 0 56 56" xmlns="http://www.w3.org/2000/svg"><rect fill="#F0F3FA" width="56" height="56" rx="28"/><path d="M15.6 12a.12.12 0 0 1 .11.07 5.07 5.07 0 0 0 2.04 2.46c1.12.7 2.55.68 4.3-.07.69-.29 1.22-.49 1.6-.6 4.64-1.37 8.87-.95 12.66 1.27 2.05 1.2 3.75 2.8 5.1 4.77a14.25 14.25 0 0 1 2.45 6.46c.4 3.48-.09 6.55-1.48 9.23a15.77 15.77 0 0 1-5.17 5.85 14.07 14.07 0 0 1-7.36 2.53c-3.4.17-6.31-.43-8.71-1.8-5.89-3.35-8.58-9.05-8.08-17.11a56.23 56.23 0 0 1 2.47-13.03.12.12 0 0 1 .07-.03Zm12.98 8.12a8.45 8.45 0 1 0 .02 16.9 8.45 8.45 0 0 0-.02-16.9Z"/></svg>