<!-- by TradingView --><svg width="56" height="56" viewBox="0 0 56 56" xmlns="http://www.w3.org/2000/svg"><path fill="url(#a)" d="M0 0h56v56H0z"/><path fill="#EDE5D9" d="M27 24h1v1h-1zM28 26h1v2h-1zM27 20h1v1h-1zM27 17h1v1h-1zM29 12h1v1h-1zM26 11h1v1h-1zM28 12h1v2h-1zM40 34v-5h.62v.63h.06c.03-.07.09-.16.16-.26s.16-.18.29-.26a.94.94 0 0 1 .5-.11c.26 0 .5.07.7.22.2.15.37.36.49.64.12.27.18.6.18 1 0 .38-.06.72-.18 1a1.5 1.5 0 0 1-.48.64c-.21.15-.45.22-.71.22a.97.97 0 0 1-.5-.11.95.95 0 0 1-.29-.26l-.16-.26h-.04V34H40Zm.63-3.15a2 2 0 0 0 .1.66c.06.2.16.34.29.45.12.1.28.16.46.16a.7.7 0 0 0 .48-.16c.13-.12.23-.27.3-.46.06-.2.1-.41.1-.65 0-.24-.04-.45-.1-.64a.98.98 0 0 0-.3-.45.72.72 0 0 0-.48-.16.72.72 0 0 0-.47.15.97.97 0 0 0-.29.44c-.06.19-.1.4-.1.66ZM37.22 33a1.4 1.4 0 0 1-.62-.14 1.07 1.07 0 0 1-.6-1.04c0-.22.04-.4.12-.54a.9.9 0 0 1 .31-.33c.14-.08.29-.14.45-.19l.5-.1.53-.06a.74.74 0 0 0 .3-.09c.05-.04.09-.1.09-.2a.7.7 0 0 0-.18-.52c-.11-.12-.28-.18-.51-.18a.85.85 0 0 0-.84.54l-.66-.16c.08-.24.2-.43.34-.57.16-.15.33-.25.53-.32a1.92 1.92 0 0 1 1.08-.04c.16.03.31.1.45.2.15.09.26.22.35.4.1.18.14.4.14.69V33h-.69v-.61h-.02a1.07 1.07 0 0 1-.56.52c-.14.06-.31.09-.51.09Zm.15-.6c.2 0 .36-.04.5-.13a.83.83 0 0 0 .32-.32.88.88 0 0 0 .1-.43v-.5a.36.36 0 0 1-.14.08l-.24.06a25.84 25.84 0 0 1-.48.07c-.14.02-.26.05-.38.1-.1.04-.2.1-.26.18a.5.5 0 0 0-.1.32c0 .19.06.33.2.43.12.09.28.14.48.14ZM31.05 33 30 29h.72l.7 2.94h.03l.7-2.94h.71l.7 2.92h.03l.7-2.92H35l-1.04 4h-.71l-.72-2.89h-.06L31.75 33h-.7ZM28.93 30l-.65.12a.82.82 0 0 0-.13-.25c-.12-.16-.31-.27-.61-.27s-.71.14-.71.5c0 .27.17.41.58.51.68.17 1.59.31 1.59 1.2 0 .8-.8 1.19-1.5 1.19-.84 0-1.38-.39-1.5-1.07l.7-.11c.08.38.35.57.79.57.47 0 .77-.23.77-.53 0-.52-.79-.55-1.14-.64-.69-.16-1.01-.52-1.01-1.07 0-.77.74-1.15 1.42-1.15.8 0 1.25.39 1.4 1ZM24.2 33v-3h-.7v-1H25v4h-.8Zm.3-5a.5.5 0 0 1 0-1c.27 0 .5.23.5.5a.5.5 0 0 1-.5.5ZM21.37 33c-1 0-1.37-1.07-1.37-1.91 0-.85.37-1.9 1.38-1.9.45 0 .75.25.94.64h.04V28H23v5h-.62v-.65c-.25 0-.53.65-1 .65Zm.14-.61c.68 0 .86-.77.86-1.31 0-.26-.03-.48-.1-.67-.13-.39-.38-.61-.76-.61-.66 0-.86.73-.86 1.28 0 .54.2 1.3.86 1.3ZM18 33v-4h.7v.69h.04a.95.95 0 0 1 .36-.5 1 1 0 0 1 .6-.19 2.97 2.97 0 0 1 .3.02v.73l-.16-.03a1.42 1.42 0 0 0-.22-.01.91.91 0 0 0-.46.11.83.83 0 0 0-.32.32.89.89 0 0 0-.11.45V33H18ZM17 30c0 .62-.09 1.16-.26 1.6-.17.46-.41.8-.71 1.04S15.38 33 15 33s-.73-.12-1.03-.36a2.4 2.4 0 0 1-.71-1.03A4.45 4.45 0 0 1 13 30c0-.62.09-1.16.26-1.6.17-.45.41-.8.71-1.04S14.62 27 15 27s.73.12 1.03.36c.3.24.54.59.71 1.03.17.45.26.99.26 1.61Zm-.66 0c0-.48-.06-.88-.18-1.2a1.65 1.65 0 0 0-.48-.74 1.03 1.03 0 0 0-1.37 0c-.2.17-.35.41-.47.74-.12.32-.17.72-.17 1.2s.05.88.17 1.2c.12.33.28.58.48.74a1.04 1.04 0 0 0 1.37 0c.2-.16.36-.41.47-.74.12-.32.18-.72.18-1.2Z"/><path d="M24 16.5a.4.4 0 0 1 .14-.26c.11-.1.35-.24.86-.24h5.5c.09 0 .23.03.33.1.08.06.17.16.17.4 0 .06-.03.17-.13.32s-.26.31-.45.48c-.37.32-.84.6-1.14.75l-.28.14v6.94l1.92 3.57h.03l.03.1.63 1.17.3-1.27h.15L30 24.87V18.8c.33-.19.73-.45 1.08-.75.22-.2.45-.42.61-.67.17-.24.31-.54.31-.88 0-.56-.25-.96-.58-1.2-.31-.23-.67-.3-.92-.3H25c-.7 0-1.2.2-1.54.5-.33.31-.46.7-.46 1 0 .34.14.64.3.88.17.25.4.48.62.67.35.3.75.56 1.08.75v6.07l-1.7 2.97v.86h.67l.25-.45a.8.8 0 0 1 .28-1.55c.19 0 .36.07.5.18l.93-1.63.07-.12V18.2l-.28-.14c-.3-.15-.77-.43-1.14-.75a2.55 2.55 0 0 1-.45-.48c-.1-.15-.13-.26-.13-.32Zm9.65 15.16.44.81-.13.53h-.71l-.72-2.89h-.06l-.25 1-.4-.74.33-1.37h.07l1.15 2.13.19.8h.03l.06-.27Zm-1.22-.16.25.46-.18-.72-.07.26Zm.97 1.8h.79l.11-.44 2.64 4.9c.36.63.71 1.66.38 2.6C36.96 41.37 35.9 42 34 42H20a2.5 2.5 0 0 1-1.97-.9c-.56-.73-.62-1.82.01-3.3a71.59 71.59 0 0 1 2.42-4.8 1.44 1.44 0 0 0 .97.3c-1.06 1.97-2 3.78-2.47 4.9-.57 1.32-.38 1.98-.14 2.3.27.35.76.5 1.18.5h14c1.7 0 2.22-.54 2.38-.98.18-.52 0-1.24-.31-1.77l-.01-.01-2.66-4.94Zm-9.9-3.77.3-.53h-.3v.53Zm.87-1.54.48-.85a.5.5 0 0 0-.35-.14.5.5 0 0 0-.5.5c0 .23.16.43.37.49ZM21.1 31.8c.1.18.22.28.41.28.2 0 .32-.1.42-.29.1-.2.14-.48.14-.72 0-.23-.03-.42-.08-.58a.93.93 0 0 0-.08-.17l-.81 1.48Z" fill="#EDE5D9"/><path d="M23 32.48V33h-.34l.34-.52Zm.3-.45.6-.9v2.17h1.4V31h.8l.03.03c.2.21.46.36.78.45l-1.26.2.05.3c.08.41.28.75.6.99.32.22.73.33 1.2.33.4 0 .84-.11 1.18-.35a1.36 1.36 0 0 0 .41-1.85 1.16 1.16 0 0 0-.07-.1h1.2l.6 2.3h1.16l.25-1c1.4 2.5 3.27 6.03 3.27 6.7 0 .8-.67 1-1 1H21c-1.6 0-1.67-.67-1.5-1 0-.86 1.54-3.48 2.97-5.7h.83v-1.27Zm7.75.97-.53-2h.67l.22.94h.04l.17-.73.4.71-.27 1.08h-.7Zm-6.84-2v2H25v-2h-.8Zm2.9.22a1.8 1.8 0 0 1-.55-.22h2a.9.9 0 0 1 .44.8c0 .8-.8 1.2-1.5 1.2-.71 0-1.21-.28-1.42-.78a1.37 1.37 0 0 1-.08-.3l.7-.1c.08.38.35.57.79.57.47 0 .77-.23.77-.53 0-.43-.55-.53-.94-.6a4.18 4.18 0 0 1-.2-.04Zm-.18.26.06.27c.03.13.08.2.15.25.06.05.17.1.35.1.19 0 .31-.05.39-.1.07-.06.08-.1.08-.14a.11.11 0 0 0-.04-.1.55.55 0 0 0-.2-.1c-.1-.03-.2-.06-.33-.08l-.1-.02a2.88 2.88 0 0 1-.36-.08Z" fill="#EDE5D9"/><defs><linearGradient id="a" x1="10.42" y1="9.71" x2="68.15" y2="76.02" gradientUnits="userSpaceOnUse"><stop stop-color="#1A1E21"/><stop offset="1" stop-color="#06060A"/></linearGradient></defs></svg>