<!-- by TradingView --><svg xmlns="http://www.w3.org/2000/svg" width="56" height="56"><path fill="#F0F3FA" d="M0 0h56v56H0z"/><path d="M19.62 37.46L4 30.2l20.11-1.88 1.62 7.21-6.11 1.94z" fill="#A7A7A7" fill-opacity=".7"/><path d="M28.72 29.7l-1.98-10.52c-.06-.33.29-.6.6-.45l9.08 4.1c.28.13.34.5.11.7l-7.1 6.41a.43.43 0 01-.71-.23z" fill="url(#amgbemdrg)"/><path fill-rule="evenodd" d="M16.4 17.47l3.39 20 25.05-5.33L41.44 16 16.4 17.47zm21.82-.14l2.52-.31.2 1.8-2.53.32-.19-1.8zm-10.72.25l9.17 4.25c1.1.51 1.33 1.95.43 2.77l-6.64 6.02c-1 .9-2.63.37-2.86-.95l-1.92-10.73c-.18-1 .87-1.8 1.82-1.36zm-6.3.56l-3.08.3.17 2.2 3.09-.3-.17-2.2zm.87 3.55l-3.09.3.18 2.2 3.08-.3-.17-2.2zm16.94-1.47l2.52-.32.2 1.81-2.53.31-.2-1.8zm-16.39 5.52l-3.07.4.24 2.2 3.07-.4-.24-2.2zm16.97-2.18l2.52-.3.2 1.8-2.53.31-.2-1.8zm-16.4 5.96l-3.07.47.3 2.2 3.07-.48-.3-2.2zm16.97-2.85l2.52-.31.2 1.8-2.53.32-.19-1.8zm-16.3 6.48l-2.91.57.26 1.98 2.92-.62-.27-1.93zm16.87-3.59l2.52-.3.2 1.8-2.53.31-.19-1.8z" fill="url(#bmgbemdrg)"/><path d="M39.02 40.38v-5.72c.2 0 .92-.1 2.19-.51 1.26-.4 2.58-3.24 3.08-4.6l2.71-.17-3.75 5.44L47 38.05v.6l-2.71.58-2.8-2.92v3.26l-2.47.8zm-.02-6.8v-2.2l2.33-.5V33l-2.33.57zm-7.98 1.9l6.98-1.6v-1.5c-.31-.38-1.65-.7-4.06.19-2.42.88-2.92 1.72-2.92 1.92v.99zM31 36.76l7-1.59v4.5c-.21.36-1.3 1.24-3.55 1.8-2.25.55-3.24.23-3.45 0V40.4l5-1.33V37.7l-3.54.85c-.75.18-1.46-.42-1.46-1.23v-.56zm-9-.86v1.43l6-1.4v4.81l-4 .9V38.1l-2 .5v4.56c0 .56.55.96 1.1.8l6.32-1.72c.37-.1.58-.43.58-.8V34.5a.82.82 0 00-1.01-.82l-6.32 1.4a.85.85 0 00-.67.81z" fill="url(#cmgbemdrg)"/><defs><linearGradient id="amgbemdrg" x1="31.8" y1="18.38" x2="28.9" y2="29.61" gradientUnits="userSpaceOnUse"><stop stop-color="#DE3C1B"/><stop offset="1" stop-color="#E6701B"/></linearGradient><linearGradient id="bmgbemdrg" x1="44.84" y1="20.67" x2="18.46" y2="29.56" gradientUnits="userSpaceOnUse"><stop stop-color="#0680CB"/><stop offset="1" stop-color="#1F3086"/></linearGradient><linearGradient id="cmgbemdrg" x1="47.11" y1="30.24" x2="22.14" y2="41.12" gradientUnits="userSpaceOnUse"><stop stop-color="#D61A12"/><stop offset="1" stop-color="#E77917"/></linearGradient></defs></svg>