<svg width="112" height="112" viewBox="0 0 56 56" xmlns="http://www.w3.org/2000/svg"><path fill-rule="evenodd" d="M29.29 18.14c-.1.16-.14.14-.15-.03v-.25c.01-.39.02-.9-.22-1.13a.39.39 0 0 0-.5-.03l-1.37 1.06a.13.13 0 0 1-.2-.06l-.45-1.07c-.87-2.04-1.75-4.13-2.75-6.15a.31.31 0 0 0-.29-.18.3.3 0 0 0-.28.2l-3.11 7.64c-.03.06-.07.07-.12.02-.59-.51-1.2-1-1.83-1.46-.15-.1-.33-.09-.53.07a.41.41 0 0 0-.16.32v3.6c0 .4-.02.67-.07.8a6.56 6.56 0 0 0 .5 6.43l.17.25c.03.06.03.11-.02.16-.62.66-1.15 1.37-1.59 2.12-.02.04-.05.05-.1.01a11.57 11.57 0 0 1-3.51-5.89c-.4-1.7-.26-3.68 1.18-4.83l.8-.66c1.03-.88.22-2.33-1.03-2.2-.32.04-.64.17-.94.4a6.43 6.43 0 0 0-2.54 3.85c-.91 4.47 1.68 9.05 4.96 11.92.07.07.1.14.08.24a9.92 9.92 0 0 0 .5 6.6.11.11 0 0 1-.06.09h-.01l-.05.02h-2c-1.24.06-1.1 2 .08 2H42c.57 0 1-.27 1.07-.8v-.04c.06-.6-.25-1.14-.95-1.16h-1.83c-.1 0-.14-.05-.1-.14.93-2.14 1.11-4.2.55-6.66a.14.14 0 0 1 .04-.15 16.51 16.51 0 0 0 4.52-6.37c.22-.57.4-1.13.5-1.71.57-3.03-.06-5.83-2.48-7.65-.61-.47-1.43-.7-2.04-.11-.4.39-.52.82-.34 1.3.16.41.55.75.94 1.07.2.17.39.33.55.5 1.92 2.05.75 5.64-.5 7.68a12.4 12.4 0 0 1-2.17 2.61c-.06.05-.1.05-.14-.02-.46-.76-.99-1.46-1.6-2.08-.04-.05-.04-.1 0-.16a6.15 6.15 0 0 0 .66-6.52c-.07-.15-.1-.32-.1-.5.01-1.35 0-2.65-.02-3.9-.01-.52-.5-.67-.87-.37a79.75 79.75 0 0 0-1.6 1.32.08.08 0 0 1-.1-.05l-1.23-3.8a.3.3 0 0 1 .07-.3 4 4 0 0 0 .56-.72c1.1-1.81-1.05-4.06-2.9-3-1.17.67-1.39 2-.79 3.19.04.07.04.14.03.22-.03.1-.06.2-.12.3-.77 1.42-1.55 2.8-2.32 4.16Zm3.7-3.7-1.91 3.72v.02h.02a6.03 6.03 0 0 1 3.34.2.09.09 0 0 0 .06-.12l-1.1-3.78c-.04-.11-.12-.17-.25-.15a.2.2 0 0 0-.16.1Zm-10.25.95 1.23-.69a.06.06 0 0 1 .05 0l.03.01.01.02.5 1.14a.06.06 0 0 1-.04.09L22.13 17a.06.06 0 0 1-.08-.09l.66-1.49.03-.03Zm10.67 4.9a5.48 5.48 0 0 0-5.13 1.6c-.08.08-.17.09-.27.02-.45-.3-.87-.6-1.29-.87a5.25 5.25 0 0 0-6.31.24 4.1 4.1 0 0 0 2.76 7.15c.83.01 1.5.77 1.03 1.61a11.33 11.33 0 0 0-.32 9.83c.03.08.1.12.2.13h1.23c.09 0 .13-.03.13-.12.02-1.6.01-3.25 0-4.96-.03-2.03 2.35-1.99 2.35 0l.01 5.03c0 .04.02.06.06.06l.05.01h.04a.1.1 0 0 0 .06-.06v-.02l-.01-.02V34.8c0-.69.35-1.32 1.08-1.34.98-.03 1.23.65 1.22 1.5-.02 1.7-.02 3.35 0 4.93 0 .08.04.11.12.11h1.48c.03 0 .05 0 .07-.03.03-.02.03-.05.03-.08v-5.06c0-.75.27-1.4 1.13-1.37.77.02 1.3.44 1.3 1.26l.02 5.14c0 .1.04.14.13.14h3.02c.08 0 .14-.03.18-.1a8.4 8.4 0 0 0 .87-3.54c.08-3.21-1.11-5.65-3.57-7.3-.29-.2-.57-.55-.18-.85 3.29-2.5 2.56-7.01-1.5-7.91ZM18.09 39.85a7.08 7.08 0 0 1-.66-1.98c-.48-2.87.16-6 2.35-8.04a.18.18 0 0 1 .22-.04c.44.22.89.39 1.36.5.1.03.14.1.1.2-1.18 2.49-1.23 6.84-.1 9.4a.08.08 0 0 1 0 .08l-.03.03a.07.07 0 0 1-.04 0l-2.97.01c-.1 0-.18-.06-.23-.16Zm7.06-15.8c.47 0 .84-.39.84-.86a.85.85 0 0 0-.84-.85.85.85 0 0 0-.85.85c0 .47.38.85.85.85Zm-4.08 0c.46 0 .84-.37.84-.84a.84.84 0 0 0-.84-.84.84.84 0 0 0-.83.84c0 .47.37.85.83.85Zm10.09-.75a.86.86 0 1 1-1.7 0 .84.84 0 0 1 .84-.86c.48 0 .86.38.86.86Zm3.15.88c.47 0 .85-.39.85-.87a.86.86 0 0 0-.85-.86.86.86 0 0 0-.86.86c0 .48.38.87.86.87Zm-13.18 1.38c.52.71 1.13.77 1.8.17.07-.06.13-.06.2 0 .64.62 1.24.6 1.8-.08.14-.16.14-.32.02-.5a.17.17 0 0 0-.1-.07c-.2-.06-.35 0-.46.17-.18.3-.41.35-.68.18a.32.32 0 0 1-.14-.36.33.33 0 0 1 .06-.12c.12-.14.2-.3.25-.47a.27.27 0 0 0-.25-.35l-1.14-.02a.26.26 0 0 0-.22.11.27.27 0 0 0-.04.25c.07.18.15.34.25.48a.32.32 0 0 1-.1.45c-.36.23-.55 0-.73-.25a5.13 5.13 0 0 0-.07-.1.27.27 0 0 0-.38-.03.41.41 0 0 0-.1.12.37.37 0 0 0 .03.42Zm11.1.5a.36.36 0 0 0-.14.16.26.26 0 0 1-.11.13c-.76.43-1.34.33-1.77-.32a.45.45 0 0 1 0-.53c.05-.07.13-.1.24-.11a.23.23 0 0 1 .2.09l.27.36a.29.29 0 0 0 .25.1c.31-.03.5-.2.57-.52a.28.28 0 0 0-.04-.2 4.1 4.1 0 0 1-.3-.6c-.1-.27 0-.4.27-.4l1.18.02a.27.27 0 0 1 .23.14.28.28 0 0 1 .01.27l-.3.58a.3.3 0 0 0-.03.2c.07.28.24.44.51.47a.29.29 0 0 0 .23-.07l.1-.1c.15-.15.3-.31.55-.18a.3.3 0 0 1 .14.34c-.29.95-1.47.87-1.96.2a.08.08 0 0 0-.1-.03Z" fill="#5B5D70"/></svg>