<!-- by TradingView --><svg width="56" height="56" viewBox="0 0 56 56" xmlns="http://www.w3.org/2000/svg"><path fill="url(#a)" d="M0 0h56v56H0z"/><path d="M18 30.34c.06.61.28 1.14.66 1.6a5.71 5.71 0 0 0 1.84 2.64c.08.06.1.14.1.24-.14.81-.4 1.57-.8 2.29-.06.1-.07.2-.02.31.04.1.12.17.23.2l.58.17c.1.03.16.1.15.21-.01.4-.03.66-.06.78-.1.46-.27.49-.5.08l-.32-.6c-.1-.18-.23-.22-.4-.13-.67.36-1.34.3-2.04-.17a4.3 4.3 0 0 1-1.4-1.68c-.24-.53-.5-1.05-.78-1.57a6.15 6.15 0 0 1-.32-1c-.1-.37-.32-.7-.64-1-.18-2-.43-3.58-.75-4.77-.12-.43-.48-.84-1.09-1.2a.28.28 0 0 1-.14-.24c-.03-.3 0-.58.06-.84.03-.1.1-.17.2-.2a.9.9 0 0 0 .67-.5.4.4 0 0 0 .03-.28c-.05-.2-.12-.41-.22-.65a1.3 1.3 0 0 1-.07-.67c.06-.43.14-.88.24-1.35l.62.42c.12.08.22.08.3.02.06-.05.09-.1.08-.17l-.18-1.33c-.01-.1 0-.2.06-.3l.7-1.3.27-.37c.2.82.27 1.65.2 2.5-.02.13 0 .24.05.33.06.13.17.19.33.17.06 0 .1-.04.1-.1l.48-4.2c.19-.3.55-.45 1.08-.44.16 0 .3.05.41.16.11.11.17.25.18.4.02.53-.02.92-.11 1.2-.2.6-.54 1.48-1 2.65-.07.18-.05.45.06.81.03.1.1.18.19.27.18.18.32.14.4-.1.37-1.23.7-2.15.99-2.8.18-.4.47-.68.85-.86.15-.06.19-.02.12.12-.03.05-.11.17-.26.34-.08.1-.12.2-.12.28 0 .12.05.18.17.18.18 0 .33.06.43.15.1.08.14.18.15.3.04.5-.24 1.19-.85 2.05-.39.55-.64.97-.74 1.27-.36.98-.6 1.7-.7 2.16a6.52 6.52 0 0 0 .53 4.52Z" fill="#021801"/><path d="M38.78 35.63c.1-.47.31-.86.62-1.17a.13.13 0 0 0 .03-.15.13.13 0 0 0-.12-.09l-.96-.1 1.28-2.3c.02-.06.02-.1-.03-.14-.09-.1-.17-.16-.24-.21-.35-.26-.35-.4-.02-.42h.17c.1.02.15-.02.18-.11a.7.7 0 0 0 .02-.46.3.3 0 0 0-.21-.2l-.4-.11a.27.27 0 0 1-.2-.21c-.05-.2.07-.34.36-.45.11-.04.12-.09.02-.15a.64.64 0 0 0-.37-.1.3.3 0 0 1-.24-.13l-.33-.41-.72-.84c.17 0 .3.02.38.06.08.03.14.02.2-.04l.08-.08c.05-.05.04-.1-.02-.14l-.6-.36c.2-.09.2-.4 0-.93a.68.68 0 0 0-.37-.39.36.36 0 0 1-.19-.2 3.3 3.3 0 0 0-.57-.98.57.57 0 0 0-.23-.18 4.14 4.14 0 0 1-1.45-1.06 2.6 2.6 0 0 0-.64-.57c-.37-.18-.68-.15-.92.12a1.3 1.3 0 0 0-.37-.65c.26-.2.26-.43 0-.68a2.25 2.25 0 0 0-1.16-.53c-1.46-.13-2.67-.1-3.64.06a.23.23 0 0 1-.22-.07c-.12-.13-.2-.26-.25-.39a.33.33 0 0 0-.2-.21.34.34 0 0 0-.3.02l-1.17.64-.4.05c.42-.3.85-.59 1.29-.85.35-.2.73-.3 1.14-.3 2 .06 3.85.37 5.53.93.6.2 1.5.78 2.7 1.74.26.2.59.58 1 1.14.3.42.53.72.7.9.26.25.46.64.62 1.17.13.43.36.85.68 1.25.07.1.07.18-.03.25-.18.15-.3.22-.35.22-.35-.05-.38.05-.08.3.66.57 1.31 1.3 1.95 2.2.06.1.04.16-.05.2l-.26.16c-.13.08-.19.2-.15.34l.47 2.25c0 .04 0 .06-.04.06l-.76.16c-.08.02-.12.07-.1.17l.16.76c.02.09-.01.15-.1.2-.45.24-.83.57-1.12 1Z" fill="#A43203"/><path d="M32.92 22.48c-.23.06-.47.07-.72.01a.46.46 0 0 1-.26-.15c-.4-.43-.93-.55-1.58-.34a.96.96 0 0 0-.47.3c-.07.1-.15.18-.21.23a.56.56 0 0 1-.25.11l-2.83.6a.4.4 0 0 0-.24.15c-.26.36-.58.62-.95.8a.25.25 0 0 0-.14.24v.31c0 .1-.05.15-.13.18l-.6.25c-.12.05-.14.12-.04.23.35.37.76.51 1.22.4.1-.02.18-.07.25-.15.42-.5.76-.83 1.03-1 .4-.28.86-.4 1.38-.39.45.01.85.04 1.21.08.23.02.37-.02.44-.11l.52-.04c.18.59.06 1.02-.36 1.3-.84.57-1.43.99-1.78 1.28-.5.4-.97.65-1.4.75a8 8 0 0 1-1.64.22c-.12 0-.19.06-.19.19v.15c0 .14.07.2.21.2 1.48-.09 2.39.32 2.72 1.23a.88.88 0 0 1-.36.19l-2 .32c-.3.05-.67.16-1.1.33a7.74 7.74 0 0 1-.67.26l.04.08c.02.03.05.04.09.03a10.5 10.5 0 0 1 2.73-.29c.28.01.3.1.07.25l-.25.11c-.52.02-1 .15-1.45.4-.04.03-.04.05 0 .08.02.02.06.02.12 0 .09-.02.17 0 .24.06.13.1.18.2.15.33-.01.06-.05.1-.1.1-.06.01-.1.03-.11.05-.08.1-.04.14.09.14h.68c.1 0 .14.05.14.15 0 .2-.12.27-.35.23-.74.36-1.4.86-1.96 1.5-.09.1-.06.15.07.15h.19c.06 0 .12-.02.16-.07a.78.78 0 0 1 .61-.24c.12 0 .15.06.1.16l-.26.49a.2.2 0 0 0 0 .2c.05.08.11.11.2.11h2.6c.1 0 .2.04.27.12.12.12.29.22.52.32.19.08.33.15.43.23.39.31.87.54 1.46.7.16.04.54.07 1.15.09.31 0 .7.05 1.15.12.74.11 1.49-.04 2.23-.45a5.22 5.22 0 0 1 1.32-.6 4.75 4.75 0 0 1 1.46 0c.15.04.25.14.28.29a.35.35 0 0 1-.14.37c-.62.5-1.07.95-1.35 1.36-.14.21-.3.37-.5.48-.23.14-.55.37-.95.69l-.45.35c-1.37 1-1.68 2.3-.92 3.9-1.12.45-2.3.73-3.55.86.32-.33.73-.54 1.25-.63.06 0 .08-.03.07-.09l-.25-1.17c-.01-.07-.05-.1-.12-.07l-1.4.42c-.08.03-.15.02-.2-.01a19.93 19.93 0 0 1-4.1-3.6.23.23 0 0 0-.28-.08c-.84.3-1.62.18-2.34-.36-.19-.14-.82-.51-1.91-1.11a.1.1 0 0 1-.05-.09l.01-.1c.02-.06.06-.1.13-.1h.97c.19 0 .23-.07.12-.23l-1.77-2.67a6.07 6.07 0 0 1-.8-1.8l-.85-.72a.3.3 0 0 1-.1-.23l-.04-.52a2.57 2.57 0 0 1 0-.74c.05-.27.2-.5.44-.72.1-.08.2-.09.3-.04.23.1.41.25.54.41.12.15.26.19.43.1.93-.47 1.78-.83 2.56-1.1a6 6 0 0 0 1.3-1.15c.08-.08.1-.18.1-.29-.04-.3.1-.45.43-.45.1 0 .17-.04.21-.11.06-.1.03-.17-.1-.2a2.1 2.1 0 0 1-1.49-1.03.35.35 0 0 0-.23-.16c-.38-.1-.64-.02-.78.22a.65.65 0 0 1-.2.22l-.62.46c-.1.07-.1.16-.01.26l.06.1c.03.1 0 .15-.1.18-.28.07-.46 0-.55-.23a.48.48 0 0 0-.18-.22l-.3-.2a.26.26 0 0 1-.13-.25c.01-.24-.01-.71-.07-1.42-.05-.58.02-1 .2-1.27.28-.4.62-.5 1.03-.28l.08.05c.95.51 1.6.71 1.92.59.1-.04.18-.14.22-.3.03-.09.08-.18.15-.25.23-.23.42-.38.6-.43a7.2 7.2 0 0 0 1.64-.73l1.16-.64c.1-.06.2-.06.3-.02.1.04.18.1.21.21.05.13.13.26.25.39.06.07.13.09.22.07.97-.16 2.18-.19 3.64-.06a2.25 2.25 0 0 1 1.17.53c.25.25.25.48-.01.68Z" fill="#030F01"/><path d="M25.98 21.32c-.4.26-.95.5-1.65.73-.17.05-.36.2-.59.43a.58.58 0 0 0-.15.26c-.04.15-.12.25-.22.29-.33.12-.97-.08-1.92-.59a5.38 5.38 0 0 1-.08-.05c-.41-.22-.75-.13-1.03.28-.18.27-.25.69-.2 1.27.06.7.08 1.18.07 1.42 0 .1.04.19.13.25l.3.2c.08.05.14.13.18.22.09.22.27.3.55.23.1-.03.13-.09.1-.18a.26.26 0 0 0-.06-.1c-.1-.1-.09-.19.01-.26l.62-.46a.65.65 0 0 0 .2-.22c.14-.24.4-.32.78-.22.1.02.18.08.23.16.33.56.83.9 1.5 1.03.12.03.15.1.1.2-.05.07-.12.11-.22.1-.33 0-.48.16-.44.46.02.11-.01.2-.09.29a6 6 0 0 1-1.3 1.16c-.78.26-1.63.62-2.56 1.1-.17.08-.32.04-.43-.11-.13-.16-.3-.3-.54-.41a.26.26 0 0 0-.3.04c-.24.22-.4.45-.45.72-.03.16-.03.4 0 .74.03.22.04.4.04.52 0 .09.04.17.11.23l.84.71c-.2.19-.5.25-.85.18a2.8 2.8 0 0 1-.66-1.6c.26.22.3.04.14-.56a.5.5 0 0 1 0-.29c.09-.3.04-.54-.14-.75-.11-.13-.11-.26 0-.4l.97-1.18c.07-.07.1-.15.12-.24.09-.8.26-1.46.53-1.97.04-.1.06-.2.03-.3-.06-.24-.12-.68-.2-1.32a2.3 2.3 0 0 1 .43-1.6c1.71-.02 3.14-.06 4.27-.13.4-.03.87-.1 1.43-.23l.4-.05Z" fill="#703A06"/><path d="M32.92 22.48c.2.22.33.43.37.65.85 1 1.85 1.71 3 2.15a2 2 0 0 1 .49.43c.08.1.08.17 0 .23l-.08.06c-.1.06-.08.13.03.2.07.06.13.14.18.25.05.11.02.18-.1.22-.2.08-.39.04-.56-.14-.06-.05-.09-.15-.08-.3.01-.08-.03-.14-.11-.15-.3-.05-.47-.2-.55-.47a.32.32 0 0 0-.27-.23.32.32 0 0 0-.34.13c-.78 1.04-.69 1.54.29 1.51l-.81.2-.92.37c-.38 1.17-.34 1.98.1 2.44-.36.87-.7 1.4-1 1.56-.46.25-1.01.54-1.67.85a.4.4 0 0 1-.3.03l-.58-.17a.18.18 0 0 0-.18.04.2.2 0 0 0-.07.14c0 .09.03.14.12.16.78.19 1.21.28 1.3.28a29.4 29.4 0 0 0 5.36-.64.23.23 0 0 0 .02-.09c0-.05-.02-.08-.08-.09l-.66-.07c-.18-.02-.23-.12-.16-.28l.8-1.8c.28-.28.34-.88.2-1.78a.23.23 0 0 1 .09-.24l.24-.18c0 .07.05.16.15.25a.51.51 0 0 0-.19 0c-.1.02-.16.09-.17.2 0 .33.12.6.36.82.12.1.18.08.18-.08l.02-.74a1.9 1.9 0 0 1-.02 1.75 2.4 2.4 0 0 0-.51 2.14c.02.1 0 .18-.07.26-.33.34-.7.52-1.13.53-1.73.06-3.12.19-4.16.4-.27.04-.6-.02-1.02-.2-.38-.17-.69-.24-.93-.22a.16.16 0 0 1-.16-.07.17.17 0 0 1-.02-.17c.14-.38.34-.69.58-.92.08-.08.15-.07.21.02.16.27.7.31 1.6.14.1-.02.18-.07.22-.17a.29.29 0 0 0-.01-.28l-.05-.08c-.04-.08-.02-.12.06-.14l.64-.13c.12-.03.15-.1.1-.2-.04-.09-.15-.13-.34-.13-.23 0-.43-.13-.62-.4-.09-.1-.05-.15.09-.13l.79.15c.1.02.2-.02.27-.12.12-.17.1-.4-.05-.67a.35.35 0 0 1-.03-.29l.47-1.69a.48.48 0 0 0-.1-.46.49.49 0 0 0-.43-.19l-1.81.12a54.6 54.6 0 0 1 1.93-1.7.3.3 0 0 0 .1-.13c.02-.07.02-.13-.01-.18-.07-.12-.17-.15-.3-.08l-.76.44c-.14.08-.26.05-.35-.08-.2-.3-.28-.62-.23-.96.01-.11-.04-.18-.14-.21a.88.88 0 0 0-.46.02l.72-.5c.14-.1.23-.24.25-.41a.58.58 0 0 0-.13-.46c-.48-.59-1.06-.59-1.73 0-.23.19-.3.38-.2.57l-.37.06c-.12.02-.16.09-.12.2.08.25.21.42.4.51.1.06.18.02.2-.1l.07-.43c.04.47.12.68.25.62-.07.1-.21.13-.44.1-.36-.03-.76-.06-1.2-.07a2.3 2.3 0 0 0-1.4.38c-.26.18-.6.52-1.02 1.01a.46.46 0 0 1-.25.16c-.46.1-.87-.04-1.23-.41-.1-.1-.07-.18.06-.23l.6-.25c.07-.03.12-.09.12-.18v-.3c0-.12.04-.2.14-.24.37-.19.69-.45.95-.8a.4.4 0 0 1 .24-.16l2.83-.6c.09-.01.17-.05.24-.11.07-.05.15-.13.22-.22a.96.96 0 0 1 .47-.31c.65-.2 1.18-.1 1.58.34.07.08.15.13.26.15.25.06.5.05.72 0Z" fill="#715C2D"/><path d="m30.69 24.17-.14.02-.52.04c-.13.06-.21-.15-.25-.62a.79.79 0 0 1-.18-.24c-.1-.19-.03-.38.2-.58.67-.58 1.25-.58 1.73 0 .11.14.16.3.13.47a.59.59 0 0 1-.25.41l-.72.5ZM37.66 27.32a.88.88 0 0 0-.33-.15c-.12-.02-.18.04-.18.16 0 .05.02.1.05.16-.15.04-.15.22 0 .53a.7.7 0 0 0-.06-.02c-.1-.09-.15-.18-.15-.25-.24-.77-.84-1-1.8-.73-.98.03-1.07-.47-.29-1.51.08-.11.2-.16.34-.13.14.02.23.1.27.23.08.27.26.42.55.47.08.01.12.07.11.15 0 .15.02.25.08.3.17.18.36.22.57.14.1-.04.14-.1.1-.22a.55.55 0 0 0-.2-.24c-.1-.08-.11-.15-.02-.21l.08-.06c.08-.06.08-.14 0-.23a2 2 0 0 0-.49-.43 7.27 7.27 0 0 1-3-2.15c.24-.27.55-.3.92-.12.15.08.36.27.64.57.4.46.89.81 1.45 1.06.1.04.17.1.23.18.25.3.44.62.57.97.04.1.1.17.2.21.17.08.29.21.36.4.2.53.2.83 0 .92Z" fill="#D5A871"/><path d="M29.6 23.37c.05.1.11.18.18.24l-.07.42c-.02.13-.1.17-.2.11-.19-.09-.32-.26-.4-.5-.05-.12 0-.2.12-.2l.37-.07Z" fill="#030F01"/><path d="M30.69 24.17a.88.88 0 0 1 .46-.02c.1.03.15.1.14.2-.05.35.03.67.23.97.1.13.2.16.35.08l.76-.44c.12-.07.23-.04.3.08.03.05.03.11 0 .18a.31.31 0 0 1-.1.13 54.6 54.6 0 0 0-1.92 1.7 5.47 5.47 0 0 0-2.5 2.36c-.07-.03-.17 0-.3.1-.33-.9-1.24-1.32-2.72-1.23-.14 0-.2-.06-.2-.2v-.15c0-.13.05-.19.18-.19.43 0 .98-.07 1.63-.22.44-.1.9-.35 1.4-.75.36-.29.95-.71 1.79-1.28.42-.28.54-.71.36-1.3l.14-.02Z" fill="#002A13"/><path d="M27.99 25.63a.17.17 0 1 0 0-.34.17.17 0 0 0 0 .34Z" fill="#696868"/><path d="m37.32 29.95-.12 2.43c-.01.3.13.42.42.36l.64-.13c.33-.07.48-.27.44-.6l-.36-3.3.33.42a.3.3 0 0 0 .25.12c.12 0 .24.03.36.1.1.07.1.12-.02.16-.28.1-.4.26-.36.45.03.1.1.18.2.2l.4.12c.1.03.17.1.21.2a.7.7 0 0 1-.01.46c-.04.09-.1.13-.19.12l-.17-.01c-.33.02-.33.16.02.42l.24.2c.05.04.05.09.03.14l-1.28 2.32c-.67-.04-1.12-.01-1.37.07-.33.11-.96.43-1.9.93-1.6.34-2.96.32-4.06-.04a5.28 5.28 0 0 1-1.46-.95c-.76-.62-1.67-1.3-2.73-2.02-.05-.04-.07-.09-.05-.15l.03-.13c.03-.08 0-.13-.08-.14-.23-.05-.26-.2-.1-.43.13-.18.29-.35.46-.5l.99-.21a.2.2 0 0 0 .16-.18l.16-.97a5.47 5.47 0 0 1 2.5-2.36l1.82-.12c.18-.01.32.05.44.19.1.14.14.29.09.46l-.47 1.7c-.03.1-.02.19.03.28.16.27.17.5.05.67-.07.1-.16.14-.27.12l-.8-.15c-.13-.02-.16.02-.08.14.19.26.4.4.62.4.19 0 .3.03.34.12.05.1.02.17-.1.2l-.64.13c-.08.02-.1.06-.06.14l.05.08c.05.1.06.19.01.28a.29.29 0 0 1-.22.17c-.9.17-1.44.13-1.6-.14-.06-.1-.13-.1-.2-.02-.25.23-.44.54-.6.92a.17.17 0 0 0 .03.17c.04.05.1.07.16.07.24-.02.55.05.93.22.42.18.75.24 1.02.2 1.04-.21 2.43-.34 4.16-.4.43 0 .8-.19 1.13-.53.07-.08.1-.16.07-.26a2.4 2.4 0 0 1 .5-2.14Z" fill="#D5A871"/><path d="m37 27.75-.25.18a.23.23 0 0 0-.1.24c.15.9.09 1.5-.18 1.79-.67 0-1.13.13-1.37.4-.2.21-.44.25-.71.1l-.83-.43c-.44-.46-.48-1.27-.1-2.44.18.52.43.98.77 1.38.07.09.16.14.26.17.31.07.53.01.64-.17a.27.27 0 0 0 .02-.28l-.77-1.47.8-.2c.97-.28 1.57-.04 1.81.73Z" fill="#002A13"/><path d="m37.66 27.32.6.36c.06.04.07.09.02.14l-.08.08a.18.18 0 0 1-.2.04 1.1 1.1 0 0 0-.38-.05l-.43-.4a.4.4 0 0 1-.04-.16c0-.12.06-.17.18-.16.1.02.2.07.33.15Z" fill="#703A06"/><path d="m34.38 27.22.77 1.47c.04.1.04.19-.02.28-.11.18-.33.24-.64.17a.47.47 0 0 1-.27-.17c-.33-.4-.58-.86-.76-1.38l.92-.37Z" fill="#021801"/><path d="m37.2 27.49.42.4.72.83.36 3.29c.04.33-.1.53-.44.6l-.64.13c-.3.06-.43-.06-.42-.36l.12-2.43c.29-.58.3-1.16.02-1.75l-.13-.18c-.16-.31-.16-.5-.02-.53Z" fill="#F2CB9E"/><path d="m37.14 28 .07.02.13.18-.02.74c0 .16-.06.19-.18.08a1.02 1.02 0 0 1-.35-.82c0-.11.05-.18.16-.2h.19Z" fill="#021801"/><path d="M29.9 29.6c-.03 0-.04-.02-.04-.04.04-.17.18-.28.44-.35.26-.07.56-.08.9-.02l.12.02c.34.07.62.17.84.33.22.16.31.32.29.48-.01.03-.02.03-.04.03l-2.52-.45Z" fill="#F2CB9E"/><path d="m28.4 29.4-.16.98a.2.2 0 0 1-.16.18l-.99.22-.43.02.25-.12c.23-.16.2-.24-.07-.25-.89-.02-1.8.07-2.73.3-.04 0-.07 0-.09-.04l-.04-.08v-.02l.66-.23c.44-.18.81-.29 1.11-.34.69-.1 1.35-.22 2-.32.1-.02.22-.08.36-.2.13-.08.23-.12.3-.1Z" fill="#703A06"/><path d="m36.47 29.96-.8 1.79c-.08.16-.03.26.15.28l.66.07c.06.01.08.04.08.1 0 .02 0 .05-.02.08a29.4 29.4 0 0 1-5.35.64c-.1 0-.53-.1-1.31-.28-.09-.02-.12-.07-.11-.16 0-.06.02-.1.06-.14a.18.18 0 0 1 .18-.04l.59.17c.1.03.2.02.3-.03.65-.31 1.2-.6 1.67-.85.3-.17.63-.69.99-1.56l.83.44c.27.14.5.1.7-.12.25-.26.71-.39 1.38-.4Z" fill="#43401D"/><path d="M41.64 35.68a16.25 16.25 0 0 1-5.97 6.03c-.75-.46-.71-1.28.12-2.47.25-.36.71-.63 1.38-.8a51.44 51.44 0 0 0 3.16-3.54c.1-.14.2-.21.27-.23.12-.03.2-.09.21-.17.03-.15.15-.33.34-.53.14-.16.27-.33.36-.5.55-1.02.96-1.82 1.24-2.4.45-.93.63-.88.55.13l-.03.64c-.01.16-.07.31-.18.47l-.07.08a.4.4 0 0 0-.07.3.32.32 0 0 1-.15.32c-.06.04-.1.1-.13.16l-1.03 2.5Z" fill="#030F01"/><path d="m26.66 30.8.43-.02c-.17.14-.33.31-.46.5-.16.22-.13.37.1.42.08.01.1.06.08.14l-.03.13c-.02.06 0 .11.05.15 1.06.72 1.97 1.4 2.73 2.02.63.52 1.11.83 1.45.95 1.11.36 2.47.38 4.08.04-.97.79-2.25.98-3.84.58-.35-.1-.86-.4-1.53-.92a7.4 7.4 0 0 0-2.31-1.32c-.12-.03-.16-.1-.13-.22l.08-.28c.03-.1 0-.18-.11-.22l-1.18-.42c.23.04.35-.04.35-.23 0-.1-.04-.15-.14-.15h-.68c-.13 0-.17-.05-.1-.14.02-.02.06-.04.11-.04.06-.01.1-.05.11-.1.03-.13-.02-.24-.15-.34a.27.27 0 0 0-.24-.05h-.12c-.04-.04-.04-.06 0-.09.45-.25.93-.38 1.45-.4Z" fill="#715C2D"/><path d="M30.19 43.46c-1.89.35-3.8.3-5.73-.15.6-.17 1.03-.22 1.29-.17.8.18.9-.01.3-.57a21.46 21.46 0 0 1-1.9-2.1l-.74-.9c-.14-.16-.3-.17-.45-.01l-.46.46c-.14.14-.27.13-.38-.04l-.58-.83c-.21-.3-.32-.27-.33.1l.06.64c.01.11-.03.2-.12.25l-.8.46a.62.62 0 0 1-.59.03 5.05 5.05 0 0 1-1.87-1.37c-.54-.65-.92-1.13-1.13-1.44a5.46 5.46 0 0 1-.73-1.54 4.3 4.3 0 0 0 1.4 1.68c.69.47 1.37.53 2.03.17.17-.09.3-.05.4.13l.33.6c.22.4.38.38.49-.08.03-.12.05-.38.06-.78 0-.11-.04-.18-.15-.21l-.58-.17a.33.33 0 0 1-.23-.2.34.34 0 0 1 .02-.31c.4-.72.66-1.48.8-2.29a.25.25 0 0 0-.1-.24 5.71 5.71 0 0 1-1.84-2.64c.36.07.64 0 .85-.18.18.66.45 1.26.8 1.8l1.78 2.68c.1.16.07.23-.12.23H21c-.07 0-.11.04-.13.1l-.01.1c0 .04.01.07.05.09 1.09.6 1.72.97 1.9 1.1.73.55 1.51.68 2.35.37.1-.04.2-.01.27.08a19.92 19.92 0 0 0 4.11 3.6c.05.03.12.04.2 0l1.4-.41c.07-.02.1 0 .12.07l.25 1.17c0 .06-.01.09-.07.1-.52.08-.93.29-1.25.62Z" fill="#352B00"/><path d="m26.07 32.33 1.18.42c.1.04.14.11.11.22l-.08.28c-.03.12.01.19.13.22.67.2 1.44.64 2.3 1.32.68.52 1.19.83 1.54.92 1.59.4 2.87.2 3.84-.58.93-.5 1.56-.82 1.9-.93.24-.08.7-.1 1.36-.08l.96.1c.06 0 .1.04.12.1.02.05 0 .1-.03.14-.3.31-.52.7-.62 1.17-.38.24-.65.56-.79.96a.57.57 0 0 1-.16.23c-.85.74-1.07 1.28-.66 1.62-.67.17-1.13.44-1.38.8-.83 1.2-.87 2.01-.12 2.47l-1.93.89c-.76-1.6-.45-2.9.92-3.9l.45-.35c.4-.32.72-.55.96-.69.18-.11.35-.27.49-.48.28-.41.73-.86 1.35-1.36.13-.1.17-.22.14-.37a.35.35 0 0 0-.28-.29 4.75 4.75 0 0 0-1.46 0c-.2.02-.63.22-1.32.6-.74.41-1.49.56-2.23.45-.45-.07-.84-.11-1.16-.12-.6-.02-.98-.05-1.14-.1A3.9 3.9 0 0 1 29 35.3a1.9 1.9 0 0 0-.43-.23c-.23-.1-.4-.2-.52-.32a.35.35 0 0 0-.27-.12h-2.6a.2.2 0 0 1-.2-.1.2.2 0 0 1 0-.21l.25-.49c.06-.1.03-.15-.1-.16a.78.78 0 0 0-.6.24.24.24 0 0 1-.17.07h-.18c-.13 0-.16-.05-.07-.15a6.34 6.34 0 0 1 1.96-1.5Z" fill="#452701"/><path d="M16.03 36.28c.15.52.39 1.04.73 1.54a19.25 19.25 0 0 0 1.15 1.47c.47.55 1.08 1 1.85 1.34.2.09.4.08.6-.03l.78-.46c.1-.05.14-.14.13-.25l-.06-.64c0-.37.12-.4.33-.1l.57.83c.12.17.25.18.39.04l.46-.46c.16-.16.3-.15.45.02.18.21.43.5.74.9.78.94 1.41 1.64 1.9 2.09.6.56.5.75-.3.57-.26-.05-.69 0-1.29.17-.96-.24-1.93-.53-2.9-.87-.4-.14-.73-.3-1-.46-.32-.2-.65-.37-1-.5a7.5 7.5 0 0 1-2.47-2.37c-.38-.6-.87-1.3-1.49-2.13a4.06 4.06 0 0 1-.59-1.29c-.18-.63-.44-1.26-.77-1.88.08-.35.1-.71.04-1.1.32.3.54.63.64 1 .14.53.25.86.32 1 .28.52.54 1.04.79 1.57Z" fill="#694200"/><path d="M30.42 38.28c.12-.23.21-.22.29.03.22.69.23 1.45.03 2.28a.25.25 0 0 1-.17.2l-1.33.43a.16.16 0 0 1-.17-.04l-.87-.86c-.1-.1-.12-.22-.05-.36l.23-.41c.06-.1.14-.16.26-.15.8.06 1.39-.31 1.78-1.12Z" fill="#352B00"/><path fill-rule="evenodd" d="M28 45a17 17 0 1 0 0-34 17 17 0 0 0 0 34Zm0-1.33a15.67 15.67 0 1 0 0-31.34 15.67 15.67 0 0 0 0 31.34Z" fill="url(#b)"/><defs><linearGradient id="a" x1="41.91" y1="18.1" x2="8.37" y2="41.31" gradientUnits="userSpaceOnUse"><stop stop-color="#FF4B01"/><stop offset="1" stop-color="#FFB501"/></linearGradient><linearGradient id="b" x1="12.72" y1="6.59" x2="36.66" y2="43.06" gradientUnits="userSpaceOnUse"><stop offset=".14" stop-color="#FEF94E"/><stop offset="1" stop-color="#FDA401"/></linearGradient></defs></svg>