<!-- by TradingView --><svg width="56" height="56" viewBox="0 0 56 56" xmlns="http://www.w3.org/2000/svg"><path fill="#0345FD" d="M0 0h56v56H0z"/><path d="M11.08 32.07c.54.05.7.36 1.14.63.44.26.88.53 1.3.76 2.67 1.44 7.3 1.65 10.37 1.5 1.09-.06 2.8-.32 3.8-.2 2.7.35 6.52.14 9.24-.36 1.23-.23 2.34-.4 3.56-.7.62-.3 1.48-2.54 1.58-3.14.2-1.2-1.24-1.92-1.35-2.55.42-.52 1.18-.42 1.6-1.03.95-1.36-1.42-1.75.34-3.83.13-.15 1.6-1.76 1.82-2.05.29-.3.55-.68.52-1.01a3.58 3.58 0 0 0-.73-1.43c-.08-.09-.14-.17-.23-.24-1.16-2.06-6.3-4.52-9.05-4.42-1.1.04-2.17.52-3.13.98-1.12.54-1.9 1.16-3.19 1.25-1.01.07-2.38-.82-3.45-1.09a5.36 5.36 0 0 0-2.5-.02c-7.75 3.47-12.4 9.35-11.64 16.95Z" fill="#2B2B2A"/><path d="M23.62 25.82c.02-.34.08-.29.28-.56.24-.32.12-.29.5-.41-.07.5-.38.7-.78.97Zm-10.64-1.97c-.8 2.93-1.9 4.06-1.7 7.74a7.06 7.06 0 0 0 2.3 1.64c1.15.53 1.55.7 2.9 1 2.58.58 4.42.63 7.11.52 1.18-.04 2.6-.27 3.72-.23.66.02 1.1.18 1.86.17 3.21-.03 5.93-.2 9.14-.73.9-.1 1.47-.24 2.24-.55l.03-.83c-1.35.7-3.26.72-4.96.74-2.1.03-3.12-.12-4.89-.84-2.44-1-4.02-2.44-5.59-4.34-.18-.22-.46-.54-.63-.85-.45-.82.02-1.63.57-2.03.73-.53 1.41 0 2.17.25 4.3 1.47 10.08 2.9 14.23.66l.61-.4c-.45-2.02-.56-1.57 1.08-3.48.36-.42.32-.26.09-.4-.29.31-1.27.95-1.81 1.15-2.57.95-3.89.36-6.61.22-.57-.03-.69-.23-1.17-.3-1.94 1.09-3.22 2.68-6.2 2.14-1.32-.24-6-1.05-6.58-1.83.24-.47 2.06-.96 2.74-1.26l4.1-1.99c.53-.13 1.05-.24 1.6-.35.78-.16 3.36.06 3.63-.08-.4-.52-1.9-.82-2.78-.75-1.12.08-1.96.28-2.94.58-.85.26-1.78.57-2.62.91-.62.26-1.99 1.01-2.5 1.05.4-.83 5.31-2.45 6.73-2.68 1.18-.2.8-.1.9-.4-2-.62-7.83 1.26-10.1 2.25-.4.17-.8.56-1.13.44.32-.64 3.86-2.1 4.78-2.47.7-.28 2.05-.65 2.84-.76 1.45-.21 2.08.04 3.34.14-.39-.27-.92-.5-1.4-.78-.34-.2-.31-.18-.47-.59-.42-1.04-4-1.57-4.98-1.17-2.88 1.16-8.85 5.79-9.65 8.5Z" fill="#598C3D"/><path d="M40.61 32.14c.44-.6 1.63-1.2 1.03-2.5-.2-.42-.56-.73-.9-1.07-.35-.37-1.05-.44-1.5-.25.12.2.57.58.74.73.26.21.64.5.8.8.39.77-.94 1.18-1.55 1.34-4.57 1.17-8.47.03-12.06-2.73-.5-.38-1.42-.9-1.25-1.75 1.68-.08 4.79 2.87 13.3 1.3a11.6 11.6 0 0 0 1.98-.58c.72-.26 1.32-.47 1.1-1.43-.31-.02-.4.15-.68.33-2.27 1.43-6.79 1.43-9.6.78-1.55-.36-2.96-.66-4.4-1.18-.56-.2-1.59-.7-2.15-.58-.64.14-1.12 1.06-.75 1.83.4.86 1.9 2.34 2.66 2.95 1 .8 2.18 1.5 3.55 2.05 1.86.74 2.57.76 4.79.82 1.36.04 4.12-.08 4.89-.86Z" fill="#935C24"/><path d="M28.59 16.34c.92 1.58 2.76 2.15 4.31 2.65 1.02.33.9.34 1.78-.15.9-.5 2.44-.9 3.4-1.19 1.46-.41 3.61-.36 3.99-.72-.22-.46-.94-.38-1.56-.35-1.46.05-4.23.3-5.36.2.48-.59 3.79-.83 4.54-1.36-1.67-.36-3.13-1.37-4.87-1.26-.71.05-1.51.26-2.47.74-1.44.71-2.11 1.31-3.76 1.44Z" fill="#5A8E3E"/><path d="M28.93 27.87c-.55-.16-2.27-.88-2.68-.64.24.4.42.6.91.94.38.26.68.47 1.07.7.73.41.69.17 1.34.03 2.21-.45 4.8 2.86 6.69 1.55.54-.38 1.02-1.36-1.1-1.65-2.63-.36-2.74.11-6.23-.93Z" fill="#CA0955"/><path d="M37.79 23.26c-.23-.42-.52-.45-.72-1.07-.57-1.79.86-2.8 1.3-3.56-.5.1-1.51.86-2.08 1.16-.45.23-1.8.97-2.02 1.21-.6.66-.5 1.95.57 2.08.49.06.94-.05 1.53.03.45.07.95.13 1.42.15ZM26.56 24.69c-.93-2.2-.84-1.92-.02-3.78-.81.36-1.62.88-2.57 1.26-.62.25-2.32.72-2.7 1.1.4.48 1.67.7 2.41.9.88.22 1.92.42 2.88.52Z" fill="#FCFAFC"/><path d="M37.08 30.29c-.28.4-.94.77-1.02 1.05.73.2 2.64-.3 3.45-.56.99-.34 1.16-.6.41-1.37-1-1.03-1.78-1.15-3.21-.6.3.74.75.94.37 1.48Z" fill="#DDAEC3"/><path d="M30 19.86c.48.9 2.2.33 2.17 3.95.92-.29 1.96-1.68 1.46-3.08-.24-.67-.86-.67-1.56-.79a7.83 7.83 0 0 0-2.08-.08ZM43.93 21.28c.23-.27.21-.17.44-.34.3-.25.43-.47.45-.68.04-.48-.48-.9-.77-1.35-.75-.31-1.5-.63-2.54-.48 1.06 1.14 1.34 1.31 1.32 3.3.6-.1.65-.27 1.1-.45Z" fill="#FCFAFC"/><path d="M33.85 20.2c2.51.32 2.54-2.17 7.34-2.02 1.94.06.87-.23 2.65.35-.23-.58-.35-.56-1.03-.67-2.12-.33-5.17.16-7.1.94-.48.19-.74.33-1.12.55-.7.44-.76.4-.74.85Z" fill="#5B8B44"/><path d="M33.57 31.05c-.21-.47-1.36-1.04-1.86-1.24-.63-.27-1.52-.7-2.24-.3.15.2-.11.12.39.39a9.9 9.9 0 0 0 3.71 1.15Z" fill="#DDAEC3"/><path d="M29.47 22.47c1.23 1 1.7-1.43 0-.95v.95Z" fill="#F3F5FA"/><path d="M40.7 19.83c-1.58.7.56 2.14.72.41-.27-.19-.34-.34-.72-.41Z" fill="#F3F3F3"/><path d="M28.23 23.72c.17.41.29.67.8.5.13-.73-.25-.4-.4-.89-.17-.5.13-.72-.45-.85-.17.36-.1.85.05 1.24Z" fill="#FCFAFC"/><path d="M38.97 21.75c.24.39.2.56.65.6.28-.64-.34-1.5-.75-1.53-.21.4-.11.59.1.93Z" fill="#F5FCF4"/><path d="M28.35 21.75c.16-.42.18-.44-.1-.8-.48-.08-.7 0-.8.44.22.4.35.49.9.36Z" fill="#F3F5FA"/><path d="M39.36 20c.15-.29.3-.18.2-.63-.44-.15-.59-.09-.87.13 0 .53.2.5.67.5Z" fill="#F3F3F3"/><path d="M30.93 41.67c-.1-.32-.23-1.2-.09-1.49.18-.35.9-.51 1.2-.25.42.34.76 2.25-1.1 1.74Zm-.74.22c.21.4-.06 2 .38 2.1.07.02.16 0 .27-.07.1-.08.15.13.12-.7l-.03-.9 1.26-.03c.76-.4 1-1.17.65-2.2-.23-.68-.7-.9-1.15-.9-.36-.01-.7.13-.91.3-.09-.1-.22-.36-.3-.49-1.06.06 0 1.52-.3 2.89ZM18.67 37.66c1.14-.08 1.66.34 1.72.8.07.57-.6 1.2-1.71 1l-.01-1.8Zm.02 2.45c1.77.04 2.42-.85 2.3-1.68-.1-.64-.67-1.26-1.55-1.38-.3-.04-.55-.06-.74-.05-.48.04-.65.24-.69.57-.04.35.05.85.05 1.46 0 .84-.16 2.3.18 2.97.63.02.52-.11.49-.73l-.04-1.16ZM26.55 40.53c0-.86 1-1.36 1.53-.74-.46.3-1.03.47-1.53.74Zm.06.52c.48-.24 3-1.06 1.63-1.82a1.6 1.6 0 0 0-.95-.22c-.8.08-1.32.91-1.29 1.67.02.55.34 1.07 1.04 1.24.28.07.55.1.78.07 1.08-.08 1.52-.96.89-.91 0 0-.62.44-1.24.43-.31 0-.62-.12-.86-.46ZM22.56 40.51c.01-.38.17-.74.47-.91a1 1 0 0 1 1.06.12c-.24.28-1.15.66-1.53.8Zm.08.61c.45-.53 2.1-.64 1.98-1.46-.12-.8-1.65-.9-2.25-.18-.61.73-.45 1.94.36 2.35.79.39 2.58.1 2.22-.74-.51-.08-.31.3-1.1.4-.63.07-.82-.07-1.2-.37ZM35.29 39.62c.69-.23 1.06.27 1.09.8.02.44-.18.9-.61 1-.75.15-1.1-.4-1.08-.93.01-.37.22-.74.6-.87Zm-1.23 1.25c.2.79.92 1.16 1.59 1.13.8-.04 1.53-.66 1.3-1.83A1.35 1.35 0 0 0 35.5 39c-.87.05-1.73.77-1.44 1.87Z" fill="#F5FCF4"/></svg>