<svg width="112" height="112" viewBox="0 0 56 56" xmlns="http://www.w3.org/2000/svg"><rect fill="#5E9F0D" width="56" height="56" rx="28"/><path d="m21.72 43 7.78-.24c3.03.28 4.12-1.04 4.29-1.73 1.29 2.45 5.05 2.84 6.77 2.74 2.94.15 4.75-1.14 5.28-1.8l-.74-1.56-1.58-2.12-1.48-1.8-1.31-.91-1.4-1.61.74-1.42.49-1.52.67-1.87c.2-.49.6-1.71.6-2.66 0-.94-.74-1.84-1.1-2.17 1.22-1.21 1.24-2.38 1.1-2.81-.01-.16-.03-.7 0-1.6.02-.9-.84-1.34-1.27-1.44a7.58 7.58 0 0 0-2.84-2.68c-1.05-3.15-1.75-3.82-4.17-4.13a5.12 5.12 0 0 0-4.03 1.3c-.62-.8-1.18-1.7-4.05-1.84a5.12 5.12 0 0 0-4.34 2.03c-1 1.31-3.48 4.79-5.46 8.2-1.98 3.4-2.93 7.9-3.15 9.73-.45 3.75-.82 6.28 1.15 8.93 1.58 2.11 6.02 2.87 8.05 2.98Z" fill="#498201"/><path d="m24.22 21.09 1.9 1 .24.15c.66.39 2.2 1.3 3.65 1.3 1.32 0 3.04-.31 3.73-.47-.15-.52-.6-1.67-1.23-2.1a3.47 3.47 0 0 0-1.86-.6l-4.22.08c-.77.08-1.52.3-2.21.64Zm10.62 1.56c.07-.36.4-1.15 1.15-1.43a6.1 6.1 0 0 1 2.84-.51c.78.09 1.54.3 2.24.65.04.05.35.47.37.73.03.27-.35 1.08-2 1.4-1.3.22-2.63.13-3.9-.25-.3-.12-.6-.44-.7-.6Z" fill="#fff"/><path d="m28.63 28.76-4.75-1.14c-.82-.2-1.81-.3-2.12.17-.25.36.66 1.2 1.14 1.57l3.57 1.77c1.26.56 4.88 1.68 9.33 1.68 4.47 0 5.7-1.38 5.75-2.08l-.14-.76v-.6c.28-.35.9-1.16 1.05-1.75.16-.58-.3-.92-.56-1.02l-.22.73-.94 1.43c-.29.14-1 .48-1.62.71-.76.3-2.4.13-2.59.13-.2 0-3.37-.2-3.8-.24a60.75 60.75 0 0 1-4.1-.6Z" fill="#9A3D00"/><path d="M21.52 13.01c-.63.72-1.21 1.49-1.75 2.28a75.06 75.06 0 0 0-3.25 5.02 28.35 28.35 0 0 0-4.18 15.38c0 1.61.43 2.86 1.12 3.82a6.72 6.72 0 0 0 2.67 2.14c1.89.8 3.92 1.2 5.98 1.17 1.33 0 2.3-.05 3.36-.1h.27c1.17-.06 2.47-.1 4.45-.1 1.54 0 2.42-.48 2.91-1.04.5-.57.6-1.24.54-1.68a.17.17 0 0 1 .34-.04 2.6 2.6 0 0 1-.62 1.94c-.57.65-1.56 1.15-3.17 1.15-1.97 0-3.27.05-4.43.1l-.28.02c-1.05.04-2.04.09-3.37.09-1.45 0-3.97-.18-6.12-1.2a7.06 7.06 0 0 1-2.81-2.25A6.76 6.76 0 0 1 12 35.7c0-6.63 1.7-11.3 4.23-15.55 1.02-1.72 2.1-3.4 3.26-5.04.54-.8 1.13-1.56 1.76-2.29l.02-.03.18-.24c.16-.2.38-.44.7-.67a5.46 5.46 0 0 1 3.3-.86c1.22 0 2.14.2 2.83.55.6.3 1.02.73 1.3 1.23.86-.84 2-1.31 3.2-1.32 1.04 0 1.87.07 2.55.36.68.3 1.18.83 1.57 1.69l1 2.24c.7.4 1.25.83 1.57 1.14a19 19 0 0 1 1.28 1.5c.45.2.84.5 1.11.96.04.05.07.14.1.23l.05.34c.02.3 0 .68-.1 1.08.08.2.17.48.2.82a2 2 0 0 1-.25 1.2c-.26.45-.63.9-.95 1.28.21.2.47.5.68.85.24.37.44.8.47 1.23.3.19.48.44.54.74.07.3 0 .65-.12.96-.25.58-.6 1.1-1.04 1.56a2 2 0 0 1 .3.94c0 .4-.17.82-.57 1.2a4.3 4.3 0 0 1-1.92.9c-.92.21-2.15.34-3.78.34-7.61 0-12.15-3.15-13.14-3.83l-.15-.1a1.55 1.55 0 0 1-.42-.46c-.1-.18-.18-.38-.18-.6a.72.72 0 0 1 .23-.58c.17-.15.43-.24.77-.24.66 0 1.6.25 2.6.54l.53.15c.87.26 1.76.52 2.6.68a68 68 0 0 0 9.62.87c1.31 0 2.16-.4 2.72-.94a4.04 4.04 0 0 0 1.07-2.03c0-.36-.17-.77-.4-1.15-.2-.3-.44-.58-.64-.77l-.29.3a2.4 2.4 0 0 1-1.2.66.17.17 0 0 1-.18-.27.17.17 0 0 1 .11-.07c.48-.08.88-.4 1.02-.56.54-.54 1.02-1.13 1.43-1.77.2-.32.23-.68.2-1a2.2 2.2 0 0 0-.2-.75c-.27-.37-1.22-1.16-2.83-1.16-.86-.01-1.7.31-2.34.9a4.4 4.4 0 0 1 1.73-.33c1.3 0 2.15.23 2.7.54.54.3.8.7.83 1 0 .2-.07.4-.2.55a2 2 0 0 1-.6.54c-.54.33-1.37.6-2.49.6-1.1 0-2.03-.07-2.67-.26a1.6 1.6 0 0 1-.75-.4.72.72 0 0 1-.15-.72v-.01c.1-.3.36-.7.8-1.04v-.03a3.62 3.62 0 0 1 3.14-1.68c1.44 0 2.42.59 2.9 1.05.03-.24.04-.46.03-.65-.1-.11-.33-.3-.77-.46a6.2 6.2 0 0 0-2.16-.33c-1.22 0-1.99.28-2.45.57a2.5 2.5 0 0 0-.64.55l-.02.02-.05.05a.17.17 0 0 1-.24-.03.17.17 0 0 1 .02-.23l.02-.03a3.4 3.4 0 0 1 .73-.63c.8-.44 1.72-.65 2.63-.61 1 0 1.75.15 2.28.35.2.07.37.15.5.24-.2-.32-.5-.55-.83-.71a.17.17 0 0 1-.15-.07c-.4-.16-.84-.24-1.28-.24a7.3 7.3 0 0 0-2.58.43.17.17 0 0 1-.12-.32c.87-.31 1.78-.46 2.7-.45.31 0 .62.04.91.1a6.97 6.97 0 0 0-2.73-2.3 6.4 6.4 0 0 0-2.83-.73 8.96 8.96 0 0 0-2.68.39c.1.13.2.26.27.4.38.57.74 1.1 1 1.62.3.56.47 1.1.38 1.6a.17.17 0 1 1-.34-.06c.07-.38-.06-.84-.34-1.38-.25-.5-.6-1.02-.98-1.6l-.1-.14a3.82 3.82 0 0 0-.28-.38c-.77-.9-1.95-1.33-4.27-1.33a4.54 4.54 0 0 0-3.81 1.9l-.06.07a.17.17 0 0 1-.18.05.17.17 0 0 1-.06-.03.17.17 0 0 1-.03-.24l.06-.07a4.94 4.94 0 0 1 4.08-2.02c.99 0 1.8.07 2.46.24-.07-.36-.18-.7-.33-1.04a2.77 2.77 0 0 0-1.28-1.3 5.87 5.87 0 0 0-2.67-.5c-1.6 0-2.53.38-3.1.79-.3.2-.5.42-.63.6l-.18.23-.02.03Zm8.58 1.3c.67.21 1.2.54 1.6 1 .18-.1.47-.2.86-.28.5-.11 1.18-.2 2.05-.2 1.02 0 2 .3 2.8.68l-.82-1.85a2.7 2.7 0 0 0-1.4-1.51 6.1 6.1 0 0 0-2.4-.34c-1.5 0-2.6.83-3.03 1.3.16.38.27.77.34 1.2Zm11.14 15.7c-.1.14-.25.3-.47.43-.4.25-1.06.46-2.03.5-1.2.07-4.1.1-7.16-.19-1.5-.12-3-.35-4.47-.68a10.75 10.75 0 0 1-3.55-1.4.17.17 0 0 1 0-.2c.06-.07.17-.1.24-.03.82.55 2 .97 3.39 1.3 1.37.32 2.9.53 4.42.67 3.03.28 5.93.25 7.12.2.65 0 1.29-.15 1.86-.46.35-.22.45-.44.46-.54v-.06l.05-.05c.37-.37.84-.96 1.07-1.54.1-.3.15-.55.1-.77a.73.73 0 0 0-.25-.41l-.02.09a4.5 4.5 0 0 1-1.12 1.9 4.1 4.1 0 0 1-2.95 1.03c-3.25-.06-6.49-.35-9.7-.89-.84-.16-1.75-.43-2.62-.68l-.52-.15c-1.02-.3-1.9-.52-2.5-.52-.3 0-.46.07-.55.15a.4.4 0 0 0-.12.32c0 .14.05.3.14.43a1 1 0 0 0 .3.34l.15.1c.98.68 5.46 3.78 12.96 3.78 1.61 0 2.81-.14 3.7-.35.88-.2 1.44-.5 1.77-.82a1.23 1.23 0 0 0 .3-1.5Zm-6.12-7.55a.41.41 0 0 0 .08.39c.1.1.3.22.6.3.58.18 1.48.24 2.57.24.8.03 1.6-.16 2.31-.54.24-.15.4-.31.51-.45.1-.15.13-.25.13-.3-.02-.17-.17-.47-.66-.75a5.2 5.2 0 0 0-2.53-.5c-1.97 0-2.82 1.1-3 1.6Z"/><path fill-rule="evenodd" d="M32.5 19.67a10.8 10.8 0 0 1 2.53 3.27c.04.09 0 .19-.08.23a.17.17 0 0 1-.19-.03 6.53 6.53 0 0 0-7.03-4.96c-2.3.09-3.6.55-4.3 1.03-.68.49-.75.99-.7 1.2l.05.1c.03.1.05.18.08.23v.02a6.3 6.3 0 0 1 4.87-2.13c1.51.04 2.96.63 4.07 1.67.54.16 1 .68 1.33 1.22.34.53.6 1.13.72 1.54.12.1.24.25.25.45.02.25-.12.5-.44.74a6 6 0 0 0-.53.47c-.8.77-2.13 2.02-4.86 2.75a.17.17 0 0 1-.1-.33 9.87 9.87 0 0 0 4.44-2.4c-1.58-.13-3.16-.2-4.74-.23-.8 0-1.5-.33-2.04-.74a5.02 5.02 0 0 1-1.18-1.3.17.17 0 0 1 .09-.17.17.17 0 0 1 .23.05c.19.3.56.76 1.07 1.14a3 3 0 0 0 1.83.68c1.46 0 3.95.16 5.1.25.17-.18.33-.33.5-.44.26-.2.3-.36.3-.44a.3.3 0 0 0-.1-.18c-.5.16-1.72.43-3.2.43a7.66 7.66 0 0 1-4.2-1.4c-.56-.35-1.73-.87-2.24-1.1l-.36-.15.35-.16a7.5 7.5 0 0 1 2.17-.7h5.07a5.9 5.9 0 0 0-6.18-.76c-.64.3-1.1.7-1.47 1.06-.2.18-.4.34-.62.5a.35.35 0 0 1-.18.03c-.16-.01-.23-.15-.27-.24a3.1 3.1 0 0 1-.1-.26l-.02-.1c-.12-.4.06-1.04.83-1.58s2.14-1 4.48-1.1a6.87 6.87 0 0 1 4.76 1.84Zm-.8.95c.41.12.81.55 1.14 1.08.3.46.52.98.65 1.36-.52.15-1.64.39-3.03.39-1.9 0-3.3-.9-4.01-1.34-.48-.3-1.34-.71-1.93-.97a6.6 6.6 0 0 1 1.7-.52h5.47Z"/><path d="m35.54 24.39.2-.27c.3.14.75.2 1.21.24.46.02.9 0 1.16-.02.1-.01.18.06.2.15 0 .1-.07.18-.16.2-.63.05-1.27.02-1.9-.07l1.82 1.88a.2.2 0 0 1 0 .25.17.17 0 0 1-.25 0l-2.28-2.36Zm-14.57 3.35a.17.17 0 1 1-.34-.07l.06-.15.13-.22c.12-.17.3-.37.55-.55.5-.37 1.29-.63 2.44-.37a.17.17 0 0 1-.08.33c-1.06-.24-1.74 0-2.16.32a2 2 0 0 0-.6.7Zm2.17-2.46c.08.04.1.15.07.23a.51.51 0 0 1-.33.25c-.13.04-.27.05-.4.05h-.41c-.12 0-.2.02-.25.03a.17.17 0 0 1-.1-.33c.1-.03.23-.03.35-.03h.39c.13-.01.24-.03.32-.05.1-.03.12-.06.13-.07a.17.17 0 0 1 .16-.1c.02 0 .05 0 .07.02Z"/><path fill-rule="evenodd" d="M35.52 35.7c.14.13.28.3.38.47a.8.8 0 0 1-.14.97.17.17 0 0 1-.24 0 .17.17 0 0 1 0-.23c.1-.1.14-.2.14-.29 0-.1-.02-.2-.07-.29a1.56 1.56 0 0 0-.4-.45c-.54.3-.7.77-.73.96v.03a.6.6 0 0 0 0 .36c.05.1.14.21.37.24.52.08 1-.09 1.16-.18l1.75-1.26h1.45l.1 1.27 1.25-1.04a.17.17 0 0 1 .2-.02l.04.04c.06.08.05.18-.02.24l-3.78 3.17c.01.13.05.3.13.48.1.21.24.42.48.55.46.26 1.03.2 1.3.13l1.63-2.06a.17.17 0 0 1 .24-.03c.07.06.08.17.02.24l-1.65 2.1a.64.64 0 0 0-.04.46c.06.13.21.3.66.32.48.03.8 0 .98-.05l.18-.08.03-.03 1.54-1.92a.17.17 0 0 1 .24-.03c.08.06.1.17.03.24l-1.5 1.87a.66.66 0 0 0 0 .4c.03.06.07.11.14.15.06.05.16.08.31.09a.9.9 0 0 0 .48-.18c.2-.12.4-.3.6-.5.38-.39.74-.87.95-1.2.05-.07.16-.1.24-.04.08.05.1.16.05.23-.22.34-.6.84-1 1.26-.2.2-.44.4-.66.54-.2.14-.44.24-.67.23a.95.95 0 0 1-.49-.14.67.67 0 0 1-.26-.32.85.85 0 0 1-.05-.26l-.07.02c-.24.06-.59.1-1.09.07-.53-.04-.83-.24-.95-.54a.87.87 0 0 1-.05-.47c-.35.06-.86.05-1.3-.2-.28-.16-.5-.41-.63-.7-.05-.1-.08-.2-.1-.29-.13.08-.3.1-.48.04a.47.47 0 0 1-.28-.22.6.6 0 0 1-.06-.3c0-.12.03-.23.06-.33-.16-.1-.3-.23-.4-.4a.66.66 0 0 1-.08-.42c0-.13.05-.28.1-.4l.1-.23c-.25.06-.55.1-.88.04-.35-.05-.55-.23-.63-.46a.94.94 0 0 1-.04-.52l-.15-.3a1.28 1.28 0 0 0-.29-.35.65.65 0 0 0-.52-.12c-.19.04-.4.18-.58.53-.07.14-.1.3-.08.45.02.14.08.3.18.45.16.24.33.46.52.67l.4.46c.3.4.41.88.44 1.32.03.4 0 .78-.07 1.03.5.9 2.37 2.69 6.17 2.69 1.83 0 3.12-.28 4-.63.84-.34 1.3-.76 1.46-1.04v-.08c-.09-.3-.2-.58-.35-.85-.39-.74-.85-1.43-1.38-2.08-.33-.44-.69-.94-1.08-1.4a6.7 6.7 0 0 0-1.7-1.59 4.1 4.1 0 0 1-1.33-1.26c-.3-.44-.75-.77-1.26-.94a1.12 1.12 0 0 0-.82.1c-.28.13-.56.35-.84.6-.18.16-.34.33-.5.5l-.3.3c-.16.15-.33.3-.5.42Zm10.4 6.07c-.1-.3-.23-.6-.38-.88-.27-.5-.64-1.09-1.05-1.62l-.35-.49c-.33-.44-.7-.95-1.1-1.43a7 7 0 0 0-1.8-1.66c-.5-.29-.91-.69-1.23-1.17a2.8 2.8 0 0 0-1.42-1.06c-.35-.1-.73-.06-1.06.11-.33.16-.64.4-.93.67l-.53.5-.28.28c-.25.25-.47.43-.65.51-.46.21-.73.54-.88.83-.1-.16-.22-.33-.38-.45a1 1 0 0 0-.8-.19c-.3.07-.6.3-.8.71-.11.2-.15.43-.13.65.03.21.12.4.23.6.17.25.36.49.56.7l.37.45c.25.32.36.73.38 1.13.03.4-.02.78-.08 1v.05l.02.06c.5 1.01 2.51 2.93 6.5 2.93 1.86 0 3.2-.28 4.11-.65a3.33 3.33 0 0 0 1.66-1.2l.08-.16a.17.17 0 0 0-.07-.22Zm-9.7-4.2c-.12.13-.26.34-.34.55a.79.79 0 0 0-.08.31c0 .1 0 .16.03.2.07.12.17.23.28.3l2.51-2.56h-.77l-1.65 1.2h.01Zm2.68-.98-2.58 2.62c-.05.1-.1.23-.1.34 0 .06 0 .1.02.13.01.03.03.05.08.06.13.04.2.01.23-.02a.4.4 0 0 0 .1-.14v-.06L39 37.57l-.08-.98Z"/><path d="M31.53 18.29c-.6-.03-1.21.02-1.8.17a.17.17 0 0 1-.09-.33 6.28 6.28 0 0 1 1.91-.18c.72.05 1.48.25 1.92.8.42.53.66 1.16.78 1.73a5.11 5.11 0 0 1 .1 1.46.17.17 0 0 1-.32-.08c.02-.28 0-.76-.1-1.3a3.88 3.88 0 0 0-.72-1.6c-.36-.43-.99-.62-1.68-.67Z"/><path fill-rule="evenodd" d="M26.94 20.7c-.17.32-.6 1.09-.56 1.5.45.28 1.56.89 2.4 1.16 1.08.34 1.87-.63 1.87-1.46 0-.67-.32-1.17-.48-1.33H27l-.07.13Zm.38 1.06a.44.44 0 0 0 0-.87.44.44 0 0 0 0 .87Zm.3.76a.3.3 0 1 0 0-.6.3.3 0 0 0 0 .6Zm2.3-.65a.64.64 0 0 1-.88.6.64.64 0 0 1-.4-.6c0-.36.29-.64.65-.64.35 0 .64.28.64.64h-.01Zm5.92 1.53c-.06-.56-.07-1.8.38-2.26.46-.46 2.03-.53 2.76-.5.22.2.63.85.57 1.7a1.43 1.43 0 0 1-.9 1.3c-.6.03-2.02.03-2.8-.24Zm.85-1.2c.24 0 .44-.2.44-.44s-.2-.44-.44-.44c-.23 0-.43.2-.43.44s.2.43.43.43Zm.3.75a.3.3 0 1 0 0-.6.3.3 0 0 0 0 .6Zm2.31-.65a.65.65 0 0 1-.88.6.64.64 0 0 1-.4-.6c0-.35.3-.64.64-.64.35 0 .64.29.64.64Z"/><path d="M40.38 32.27a1.8 1.8 0 0 1-.97 1.95l-.2-.45c.26-.12.8-.57.67-1.42l.5-.08Z"/><path fill-rule="evenodd" d="M20.6 31.3c.18 0 .34-.07.45-.18-.15-.07-.3-.1-.44-.1-.15 0-.3.03-.44.1.11.1.27.18.44.18Zm0-.63c.22 0 .42.05.62.14l.01-.14a.62.62 0 1 0-1.23.14c.2-.09.4-.14.6-.14Zm.98 0c0 .12-.02.22-.06.32.4.29.74.75 1.01 1.34 1.4-.23 2.53.04 2.95.82.42.75.08 1.8-.78 2.84.36.5.58 1 .65 1.47a.97.97 0 1 1-.93 1.65c-.47.2-1.1.27-1.8.2-.49 1.13-1.2 1.84-2.01 1.84-.85 0-1.6-.8-2.1-2.04-.19.01-.37 0-.55-.01a.97.97 0 1 1-1.61-.84l-.03-.04c-.33-.6-.18-1.4.33-2.21a3.25 3.25 0 0 1-.8-1.98.97.97 0 1 1 1.16-1.4c.44-.14.99-.19 1.59-.13.3-.67.67-1.2 1.1-1.5a.97.97 0 1 1 1.88-.32Zm-3.19 8.1c-.16 0-.31 0-.45-.02a.97.97 0 0 0-1.3-.67l-.02-.03c-.23-.41-.17-1.03.26-1.76.33.38.73.76 1.2 1.11.07.5.18.95.31 1.37Zm-1.4-.41h-.1c.16.14.38.25.65.32a.62.62 0 0 0-.54-.32Zm.63.69c-.44-.1-.8-.26-1.06-.52A.62.62 0 0 0 17 39.6c.32 0 .58-.24.62-.55Zm7.13-.13c.1.06.2.1.32.1a.62.62 0 0 0 .3-1.18 1.43 1.43 0 0 1-.62 1.08Zm.27-1.15c0 .19-.05.36-.13.51-.09.15-.21.28-.37.39a.62.62 0 0 1 .5-.9Zm-.03-.35a.97.97 0 0 0-.78 1.4 3.16 3.16 0 0 1-1.46.16c.17-.47.3-1 .4-1.59.5-.36.94-.74 1.31-1.14v.01c.3.43.47.82.53 1.16Zm-4.38-5.78c.3 0 .56-.13.74-.34.29.22.57.57.82 1.06l.01.03c-.54.12-1.12.3-1.7.56a8.07 8.07 0 0 0-1.52-.4l.09-.19c.24-.49.53-.84.82-1.06.17.2.44.34.74.34Zm1.65 7.63a5 5 0 0 1-.1.19c-.45.9-1.02 1.34-1.55 1.34s-1.1-.43-1.56-1.34a5.3 5.3 0 0 1-.17-.37 7.41 7.41 0 0 0 1.57-.33 8.3 8.3 0 0 0 1.8.51Zm-5.57-6.51a.62.62 0 1 0-.79.92 1.51 1.51 0 0 1 .78-.92Zm-.45.98a1 1 0 0 1 .09-.2c.1-.18.25-.33.47-.45v.03c0 .32-.24.59-.56.62Zm-.05.35a.97.97 0 0 0 .94-1.14 3.34 3.34 0 0 1 1.34-.11 8.12 8.12 0 0 0-.4 1.59c-.49.41-.9.84-1.22 1.28l-.1-.15a2.7 2.7 0 0 1-.56-1.47Zm3.77 4.45a6.6 6.6 0 0 1-1.2.22 7.6 7.6 0 0 1-.29-1.07 10.29 10.29 0 0 0 1.49.85Zm2.44.4a7.56 7.56 0 0 1-1.45-.36 10.16 10.16 0 0 0 1.8-.92c-.09.47-.2.9-.35 1.28Zm-.38-1.25c.28-.15.55-.32.8-.5a9.81 9.81 0 0 0 0-2.59 9.8 9.8 0 0 0-2.33-1.28 10.07 10.07 0 0 0-2.1 1.29 9.82 9.82 0 0 0 0 2.6 9.83 9.83 0 0 0 2.07 1.18c.5-.17 1.03-.4 1.56-.7Zm1.18-.77c.4-.3.76-.62 1.05-.95a7.17 7.17 0 0 0-1.05-1.07 10.31 10.31 0 0 1 0 2.02Zm1.56-1.59c-.08.12-.17.25-.28.38-.35-.45-.8-.89-1.34-1.3a7.91 7.91 0 0 0-.46-1.76c.2-.03.39-.04.57-.05 1.02-.04 1.68.25 1.93.71.26.47.16 1.18-.42 2.02Zm-2.43-2.62c-.44.1-.91.23-1.4.42a10.26 10.26 0 0 1 1.81 1c-.1-.53-.24-1-.41-1.42Zm-3.51.17c.38.05.79.14 1.2.28a10.63 10.63 0 0 0-1.55.95c.1-.45.2-.86.35-1.23Zm-.81 2.06c-.38.34-.69.7-.93 1.05.26.31.57.62.93.92a10.28 10.28 0 0 1 0-1.97Zm4.33.97a1.73 1.73 0 1 1-3.46 0 1.73 1.73 0 0 1 3.46 0Zm.34 0a2.08 2.08 0 1 1-4.15 0 2.08 2.08 0 0 1 4.15 0Zm-1.17-1.03v1.79h-.38v-1.8h.38Zm-2.32 1.79h.4l.14-.41h.64l.14.4h.4l-.61-1.78h-.5l-.6 1.79Zm1.09-.7-.22-.68h-.01l-.23.67h.46ZM33.27 26.03c-.05.2 0 .49.12.74.1.18.22.33.37.42a1.23 1.23 0 0 1 .28-1.36c.1-.1.2-.17.3-.23-.4-.01-.78.18-1.07.43Zm1.42-.48.03-.1c-.6-.22-1.22.08-1.62.43a1.4 1.4 0 0 0-.41.98c-.02.35.05.71.16.95.17.38.48.62.8.76.3.15.63.2.83.22h.01c.8-.06 1.32-.67 1.48-.97v-.01c.05-.1.1-.3.1-.53a1.77 1.77 0 0 0-.62-1.49 2.68 2.68 0 0 0-.73-.34l-.03.1Zm0 .12c-.14.05-.33.16-.49.32-.1.1-.2.24-.25.39a1.63 1.63 0 0 1 1.64-.12 1.16 1.16 0 0 0-.28-.3c-.17-.12-.37-.2-.63-.3Zm1.09.97a1.47 1.47 0 0 0-.78-.32c-.23-.02-.48.01-.74.14.2 0 .41.05.64.16.31.15.64.42.93.87l.02-.23c.02-.2 0-.42-.07-.62Zm-.04 1.13a2.5 2.5 0 0 0-.7-.82c.02.15.03.3.02.44-.01.45-.18.86-.34 1.13.52-.13.87-.51 1.02-.75Zm-1.3.8c.12-.18.28-.48.36-.84-.25.2-.56.3-.85.31-.27.02-.53-.02-.75-.07.15.18.34.3.54.4.25.12.51.18.7.2Zm-1.4-.89c.22.08.55.16.9.14.34-.02.68-.15.9-.47 0-.18-.02-.36-.08-.55a1.25 1.25 0 0 0-.87-.08c0 .18.06.38.17.62l.1.2-.22-.04c-.33-.06-.59-.33-.74-.62a1.52 1.52 0 0 1-.17-.53c-.07.16-.1.33-.12.52-.02.3.04.6.13.81Z"/></svg>