<!-- by TradingView --><svg width="56" height="56" viewBox="0 0 56 56" xmlns="http://www.w3.org/2000/svg"><path fill="#181B1E" d="M0 0h56v56H0z"/><path fill-rule="evenodd" d="M28 39a11 11 0 1 0 0-22 11 11 0 0 0 0 22Zm0-.45a10.55 10.55 0 1 0 0-21.1 10.55 10.55 0 0 0 0 21.1Z" fill="#FFC60D"/><path d="M35 21.55c-.56 0-1.86 2.09-2.44 3.13-.71-1.5-2.63-4.68-5.45-4.68-4.15 0-5.86 4.31-6.2 6.47v3.49l-3.12-1.79c-.26-.23-.79-.11-.79 2.27s3 2.55 4.51 2.34c1.44.74 5.36 2.22 9.51 2.22 5.2 0 5.98-1.39 5.98-1.87 0-.26-.44-.4-.94-.57-.38-.12-.8-.25-1.05-.46 1.16-.95 1.24-1.9 1.24-3.45 0-1.69-.12-3.38-.33-4.7l-.2.45a184.42 184.42 0 0 1-1.61 3.63v2.8c-.03.37-.23 1.11-.83 1.11-.52 0-.81-.36-.93-.63l-1 1.2-.28-.26.9-1.08a6.25 6.25 0 0 1-1.43-1.41c-.23-.3-.46-.62-.69-.98l-.37 2.21c-.04.28-.24.84-.75.84s-.61-.56-.6-.84l.3-4.98a7.1 7.1 0 0 0-1.27-1.96 2.2 2.2 0 0 0-1.66-.68c-1.08 0-1.74.36-1.91.51l-.24-.3c.25-.22 1-.6 2.15-.6.74 0 1.35.22 1.92.78a8.91 8.91 0 0 1 1.63 2.7 14.8 14.8 0 0 0 1.78 3.05c.52.67 1 1.12 1.37 1.34a36.1 36.1 0 0 0 1.93-3.78c.45-1 .9-2 1.25-2.83l.43-.96c-.22-1.06-.5-1.73-.8-1.73ZM28.75 34c-2.65.16-4.54-1.74-5.17-2.7l.32-.23c.58.9 2.36 2.68 4.83 2.53l.02.4Z" fill="#fff"/><path fill-rule="evenodd" d="M38.7 38.13A13.97 13.97 0 0 1 27.83 43 14.96 14.96 0 0 1 13 28c0-1.2.25-2.35.5-3.47-1.38-1.13-2.85-3.5-2.85-5.06 0-1.38.98-2.3 1.47-2.47a6.66 6.66 0 0 0-.33 2.13c0 1.76 1.37 2.94 2.31 3.45A14.74 14.74 0 0 1 27.83 13c8.13 0 14.72 6.72 14.72 15 0 3.01-.87 5.82-2.37 8.17.97.4 2.86.74 4.2-.5a4.67 4.67 0 0 0 1.15-1.5c.2.49.37 1.67-.63 2.6-1.79 1.8-4.48 1.81-6.2 1.36ZM41 28c0 7.46-5.85 13.5-13.17 13.5A13.38 13.38 0 0 1 14.58 28c0-7.46 5.93-13.5 13.25-13.5S41 20.54 41 28Z" fill="#FFC60D"/><path d="M9 20.13c0-1.77 2.08-2.82 3.12-3.13 0 0-.84 1.38-.8 2.33.18 4.93 6.61 9.27 11 11.96 3.93 2.4 14.54 6.88 18.25 6.95 2.96.06 4.65-2.4 5.06-3.63.16.28.37 1.16.37 2.41 0 1.57-1.73 2.98-5 2.98-5.83 0-9.8-1.95-16.77-5.39C12.53 28.7 9 22.35 9 20.13Z" fill="#D9A224"/><path d="M19.05 20c.63.08 1.9.58 1.95 2-.98-.1-2.26-.73-1.95-2ZM18 22.4c.33-.32 1.2-.75 2 .09-.5.5-1.43.87-2-.08Z" fill="#FFC60D"/></svg>