<svg xmlns="http://www.w3.org/2000/svg" width="56" height="56"><path d="M16.52 24.33c.08.56.28 1.78.46 2.2.05.13.18.37.35.67.56 1 1.5 2.68 1.11 3.21-.4.55-.65.85-.72.93l2.11.19a8.34 8.34 0 002.83-2.9c.83-1.67 5.56-5.42 8.71-5.44 3.16-.03 5.77-1.3 5.77-1.52 0-.2-.45-2.07-1.44-2.97-.99-.9-2.3-2.68-2.46-3.37-.04-.2-.06-.41-.07-.6-.04-.47-.06-.86-.51-.97-.52-.13-5.95 2.4-8.6 3.7l.9 1.93-.9 1.3-1.72.27-.85-1.07-.45-.5-2.6 1.78c-.71.6-2.1 2.08-1.92 3.16zM24.2 38.2l-.76 3.72-.16 2.19 3.78.65h2.9c.32-.1.97-.32 1.05-.47.07-.14.03-5.1 0-7.56l-4.81 1.08-2 .4z" fill="#FFE3BB"/><path d="M30.47 36.96a12.22 12.22 0 01-6.5 2.23l.76-2.72h-2.45l-3.04-.26-1.37-1.88-.52-2.8h2.7l1.18-.87 1.54-2.2 2.18-2.37L29 23.98l4.57-1.27 2.87-.36-.42 1.95v2.66l1.17 2.18 1.02 1.26v.65l-1.37.84-3.27 1.04-.75 2.01-.55 2.6v2.5h.55l2.9-.85.3.46h.42l2.06-.71h.72l-.4 1.62-1.98 1.85-2.94 1.04c-.4.18-1.24.55-1.37.55-.13 0-1.82.34-2.65.52-.78-2.1.07-5.92.6-7.56z" fill="#F6C582"/><path fill-rule="evenodd" d="M45 28c0 9.39-7.61 16.9-17 16.9a17 17 0 110-34c9.39 0 17 7.71 17 17.1zm-1 .1C44 36.94 36.84 44 28 44a16 16 0 110-32c8.84 0 16 7.26 16 16.1z"/><path d="M20.05 13.96c-.65-3.15 1.4-4.49 1.71-4.64l.32 4.74c0 .07 1.16 4.37 1.73 6.51l-1.56.34c-.46-1-1.55-3.79-2.2-6.95z" fill="#fff"/><path d="M40.1 18.11c-.84.96-2.76 1.55-3.61 1.72l.64 1.28c3.36-.01 5.74-2.6 5.95-3.1.16-.4-.02-1.85-.13-2.53-.6.48-2 1.68-2.85 2.63z" fill="#C7FED4"/><path d="M41.13 23.65c-1.31 2.06-3.9 2.03-5.02 1.76l-.05 1.58.84 1.6 1.23 1.44c1.27-.85 1.06-2.38.8-3.04-.21.03-.43-.08.39-.7a7.57 7.57 0 001.81-2.64z" fill="#85DC94"/><path d="M22.67 14.6a22.8 22.8 0 01-.66-5.28c-1.86 3.44.39 8.98 1.74 11.31l1.13-.89a31.97 31.97 0 01-2.2-5.13z" fill="#DEDFE1"/><path d="M41.76 21.16c.92-1.02 1.3-2.92 1.37-3.74-1.35 2.76-4.52 3.5-5.97 3.54l-.04.96-.78 1.98-.3 1.61c3.78 1.07 5.3-1.58 5.51-3.4-.25.04-.72.07.2-.95z" fill="#93F4A5"/><path d="M27.37 30.2l.38-3.52c.26-.25.95-.7 1.67-.53.9.21.7 2.42.57 3.32-.1.73-1.79.79-2.62.73z" fill="#91F2A1"/><path d="M30.05 29.6c.52-1.87-.1-3.07-.46-3.44.69-.4 1.78-.2 2.24-.04.42 1.6-1.01 2.99-1.78 3.48z" fill="#FFFCFF"/><path fill-rule="evenodd" d="M22.25 9.64c.02.15.03.3.02.44.24 3.12.97 5.54 1.68 7.17a16.2 16.2 0 011.35-.79 66.56 66.56 0 016.35-2.75c.27-.09.5-.16.65-.18a.9.9 0 01.71.17c.18.15.26.35.32.55.05.2.07.41.1.6.01.21.03.39.07.54a7.4 7.4 0 001.64 2.42c.31.29.88.97 1.36 1.7a5.47 5.47 0 002.8-1.12c.88-.62 1.6-1.32 1.93-1.66l1.45-1.42.03-.02.03-.02a.42.42 0 01.26-.05c.1.02.19.07.25.14.12.13.18.34.2.6.06.51-.02 1.42-.35 2.94a6 6 0 01-1.44 2.65c.32 1.65-.46 3.13-1.53 4.28-.31.34-.66.66-1 .95a2.98 2.98 0 01-.75 3.47c.06.15.1.3.1.45-.02.32-.25.59-.5.79-.27.2-.62.39-.97.54-.71.31-1.51.53-1.9.6-.16.02-.57.14-1.14.34l-.12.04.07.05c-.32.54-1.08 2.32-1.5 5a6.3 6.3 0 000 1.82l2.73-.84c.18-.05.47-.1.73 0 .13.04.25.13.34.26.43-.2 1-.43 1.51-.6.3-.1.6-.17.85-.21.13-.02.25-.03.36-.02.1 0 .23.03.33.1.18.14.22.37.22.54 0 .19-.03.4-.08.6-.11.42-.3.86-.44 1.14a.25.25 0 01-.33.12.25.25 0 01-.12-.34c.13-.26.3-.67.4-1.04.05-.19.08-.35.07-.47 0-.1-.02-.14-.02-.15h-.07l-.24.01c-.21.03-.48.1-.77.2-.52.17-1.1.4-1.52.6v.08a3.02 3.02 0 01-.5 1.6.25.25 0 01-.36.06.25.25 0 01-.05-.35c.12-.16.4-.68.4-1.32a.47.47 0 00-.05-.26.21.21 0 00-.1-.09.67.67 0 00-.4.02h-.01l-2.8.85a6.84 6.84 0 001.63 3.18l-.36.35a7.27 7.27 0 01-1.84-5.9c.35-2.28.95-3.94 1.35-4.78l-1.26.47a28.34 28.34 0 00-3.34 1.46c-.89.55-2.63 1.18-3.37 1.42h-.03l-.02.01-.25.02c-.06.06-.15.16-.24.35-.1.18-.19.42-.28.7a17.5 17.5 0 00-.48 2.03 50.14 50.14 0 00-.6 4.42l-.49-.05c.1-1.14.3-2.9.6-4.46.14-.77.3-1.5.5-2.1a5.28 5.28 0 01.34-.83c-.75.05-1.65.1-2.5.09-.63 0-1.23-.03-1.75-.1a3.5 3.5 0 01-1.27-.35 2.19 2.19 0 01-.75-.9.25.25 0 01-.1-.19 13.57 13.57 0 01-.63-2.03.25.25 0 01-.05-.28c-.1-.59-.18-1.13-.22-1.55h.06l-.01-.01c.18-.12.46-.34.7-.6.25-.28.43-.57.45-.83 0-.06 0-.16-.05-.3a4.1 4.1 0 00-.19-.51c-.16-.38-.39-.82-.63-1.26l-.32-.57-.38-.7c-.2-.37-.37-.71-.43-.94a3.9 3.9 0 01.22-2.78c.06-.12.16-.25.28-.39a23.16 23.16 0 011.67-1.54c.84-.71 1.8-1.45 2.48-1.95-.98-2.6-1.24-4.53-1.14-5.99.12-1.82.79-2.86 1.23-3.46.18-.24.35-.4.52-.48.1-.04.2-.05.31-.02.11.03.19.1.24.17.09.13.13.3.15.45zm-4.28 23.92l.22.14c.11.08.27.04.34-.07a.25.25 0 00-.07-.35l-.64-.4c-.08-.4-.14-.78-.18-1.1h2.04l.02-.01c.5-.06 1.61-.61 2.54-2.18.56-.94 1.42-2.39 3.52-3.75 2.05-1.34 5.3-2.6 10.62-3.19 0 .04-.02.07-.03.1-.14.42-.27.9-.37 1.4-.21 1-.32 2.12-.16 2.9.16.78.75 1.54 1.25 2.17l.07.08c.23.29.44.55.6.79.17.27.24.46.23.59 0 .1-.08.24-.3.42a4 4 0 01-.86.48c-.68.3-1.44.5-1.79.55-.2.04-.66.18-1.22.37a60.22 60.22 0 00-5.02 2.03c.37-.41.68-.9.86-1.47a.25.25 0 00-.48-.15 3.88 3.88 0 01-1.86 2.15c-.82.48-1.72.73-2.32.8-.27.03-.66 0-1.12-.1a17.63 17.63 0 01-2.35-.62l-.5-.15c-.4-.11-.76-.21-.98-.24a4.92 4.92 0 00-1.62.16 7.72 7.72 0 01-.44-1.35zm7.22-14.15a8.55 8.55 0 01-1.02-1.7c.06-.06.2-.16.43-.3a54.16 54.16 0 013.54-1.74 66.1 66.1 0 013.67-1.49c.28-.1.46-.14.55-.15.2-.03.28.01.33.05.06.05.11.14.15.3.04.15.06.32.09.53v.02c.02.19.04.4.09.58.1.4.39.92.72 1.4.34.49.73.97 1.07 1.27.3.27.91 1.02 1.4 1.81.24.4.44.79.54 1.12.11.35.1.56.03.66-.06.1-.13.22-.19.36-5.53.58-8.93 1.88-11.1 3.3a10.83 10.83 0 00-3.68 3.91c-.86 1.45-1.83 1.88-2.16 1.94h-1.64l.2-.21c.28-.3.54-.7.58-1.11 0-.16-.02-.32-.07-.5a4.58 4.58 0 00-.2-.56 16.8 16.8 0 00-.98-1.88 52.2 52.2 0 01-.38-.68c-.2-.39-.35-.68-.4-.84a3.4 3.4 0 01.2-2.43c.03-.06.1-.16.2-.28a22.68 22.68 0 011.6-1.49c.81-.66 1.7-1.35 2.37-1.85.2.5.41 1 .67 1.55l.05.11.13.03c.7.11 2.3 0 3.22-1.44l.1-.15-.11-.14zm-2.93 16.47c.43.12.88.24 1.3.33-.55.03-1.14.05-1.7.04-.61 0-1.2-.03-1.69-.1-.5-.06-.87-.15-1.07-.27-.16-.1-.31-.27-.46-.52.37-.08.9-.16 1.33-.11.17.02.48.1.9.22l.5.15.9.26zm14.97-14.92c-.1-.3-.26-.64-.44-.97 1-.1 1.99-.63 2.8-1.2a15.4 15.4 0 002-1.7c.47-.48 1.02-1.02 1.33-1.31l.04.22c.04.44-.02 1.29-.35 2.8-.3 1.43-1.43 2.72-2.76 3.76a16.37 16.37 0 01-3.45 2.03 13.09 13.09 0 01.42-1.68c.14-.4.27-.7.38-.87.2-.3.15-.71.03-1.08zm-.92 5.98c-.1-.46-.08-1.1 0-1.77 1.02-.41 2.51-1.18 3.85-2.22a12 12 0 001.06-.94c.11 1.3-.53 2.48-1.45 3.48a11.3 11.3 0 01-3.1 2.3c-.17-.28-.3-.57-.36-.85zm1.15 1.97l-.53-.7c.53-.27 1.16-.64 1.79-1.11.48 1.2-.09 2.2-.58 2.7-.17-.26-.39-.53-.6-.8l-.08-.1zM21.44 9.8c.13-.17.22-.26.27-.3l.05.2c.01.11.02.25.01.37v.03c.38 5.01 2.01 8.28 2.91 9.47a2.82 2.82 0 01-2.49 1.08c-1.62-3.52-2-5.96-1.9-7.64.12-1.7.74-2.66 1.15-3.2zm-.6 22.83a.25.25 0 00-.49-.1c-.01.07-.09.24-.19.46-.1.2-.2.41-.28.54a.25.25 0 00.1.34c.13.06.28.02.34-.1l.3-.57c.1-.2.2-.43.22-.57zm9.06-6.45c.33-.06.63-.08.88-.07.3.01.53.06.67.1l.14.07c.03.18.07.8-.15 1.46a2.88 2.88 0 01-1.16 1.55c.24-.6.25-1.2.15-1.75a4.19 4.19 0 00-.53-1.36zm-.55-.4c-.38.1-.79.24-1.22.44a6.19 6.19 0 00-2.98 3.35l-.06.17.15.1c.59.44 2.23 1.06 4.38.32a3.46 3.46 0 002.3-2.27c.27-.83.2-1.6.16-1.76a.43.43 0 00-.19-.25.968.968 0 00-.27-.13c-.2-.07-.49-.12-.82-.14a5.15 5.15 0 00-1.45.18zm.03.51c.21.32.45.8.55 1.35a2.56 2.56 0 01-.42 2.03l-.05.02a5.6 5.6 0 01-1.8.32c.3-.33.67-.9.74-1.57a1.94 1.94 0 00-.5-1.54l.44-.23c.37-.17.72-.3 1.04-.38zm2.24 0z"/><path d="M29.06 27.8c-.14-.54-.7-.56-.95-.62 0 0 .25.32.33.8.08.47-.1.92-.1.92.32-.2.85-.6.72-1.1z" fill="#FFFCFF"/><path d="M18.35 17.42c-.2 0-.36.16-.36.36v.29h-.28a.36.36 0 000 .71h.28v.29a.36.36 0 10.72 0v-.29H19a.36.36 0 100-.71h-.3v-.3c0-.19-.15-.35-.35-.35zM14 25c-.2 0-.36.16-.36.36v.28h-.28a.36.36 0 100 .72h.28v.28a.36.36 0 00.72 0v-.28h.28a.36.36 0 100-.72h-.28v-.28c0-.2-.16-.36-.36-.36zm2 3c-.2 0-.36.16-.36.36v.28h-.28a.36.36 0 100 .72h.28v.28a.36.36 0 00.72 0v-.28h.28a.36.36 0 100-.72h-.28v-.28c0-.2-.16-.36-.36-.36zm-1 5c-.2 0-.36.16-.36.36v.28h-.28a.36.36 0 100 .72h.28v.28a.36.36 0 00.72 0v-.28h.28a.36.36 0 100-.72h-.28v-.28c0-.2-.16-.36-.36-.36zm6 6c-.2 0-.36.16-.36.36v.28h-.28a.36.36 0 100 .72h.28v.28a.36.36 0 00.72 0v-.28h.28a.36.36 0 100-.72h-.28v-.28c0-.2-.16-.36-.36-.36zm15-4c-.2 0-.36.16-.36.36v.28h-.28a.36.36 0 100 .72h.28v.28a.36.36 0 00.72 0v-.28h.28a.36.36 0 100-.72h-.28v-.28c0-.2-.16-.36-.36-.36zm5-1c-.2 0-.36.16-.36.36v.28h-.28a.36.36 0 100 .72h.28v.28a.36.36 0 00.72 0v-.28h.28a.36.36 0 100-.72h-.28v-.28c0-.2-.16-.36-.36-.36zm1-7c-.2 0-.36.16-.36.36v.28h-.28a.36.36 0 100 .72h.28v.28a.36.36 0 10.72 0v-.28h.28a.36.36 0 100-.72h-.28v-.28c0-.2-.16-.36-.36-.36zm-5-11c-.2 0-.36.16-.36.35v.3h-.28a.36.36 0 100 .7h.28v.3a.36.36 0 00.72 0v-.3h.28a.36.36 0 100-.7h-.28v-.3c0-.2-.16-.35-.36-.35zm-11.49-3c-.2 0-.36.16-.36.36v.33h-.28a.36.36 0 100 .72h.28v.23a.36.36 0 10.72 0v-.23h.29a.36.36 0 000-.72h-.3v-.33c0-.2-.15-.36-.35-.36z" fill="#FEFFFF"/><defs><linearGradient id="asiqhyv5p" x1="28" y1="0" x2="28" y2="56" gradientUnits="userSpaceOnUse"><stop stop-color="#FF6599"/><stop offset="1" stop-color="#FF356C"/></linearGradient></defs></svg>