<svg width="112" height="112" viewBox="0 0 56 56" xmlns="http://www.w3.org/2000/svg"><path d="M41.17 29.98c.55-.08.91-.36.81-.63-.09-.26-.6-.4-1.15-.33-.55.08-.91.36-.81.63.09.26.6.4 1.15.33Z" fill="#D1101E"/><path d="M31.82 32.7c-.02.06.02.13.07.13.8 0 1.28-.5 1.44-1.5.1-.58-.04-1.03-.4-1.33-.13-.13-.4-.18-.77-.16-.62.04-1.21.2-1.8.5-.08.03-.14.03-.18 0a.29.29 0 0 1-.08-.15c-.02-.06 0-.1.03-.14a4.32 4.32 0 0 1 3.73-.95c.74.18 1.27.96 1.11 2.05-.26 1.88-1.93 2.43-3.14 2.2-.04 0-.08.01-.11.04a.23.23 0 0 0-.06.13l-.18.78c-.11.36-.24.57-.56.64-.55.12-1.5.1-1.9-.54a.18.18 0 0 1-.02-.07.2.2 0 0 1 0-.08l.04-.06a.1.1 0 0 1 .05-.04c.46-.1.59-.15.77-.76.1-.27.22-.69.38-1.25a5.9 5.9 0 0 1 .44-1.2c.42-.66 1-.9 1.73-.7.04 0 .08.06.08.12v.06l-.67 2.28Z" fill="#004570"/><path d="m26.2 31.08.55-.1h.04c.04.03.07.1.06.16v.08a.3.3 0 0 1-.04.13.14.14 0 0 1-.07.07l-.71.25a.09.09 0 0 0-.04.03 5.24 5.24 0 0 0-.5 2.32c-.02.07.01.13.06.13.44.06.88-.06 1.32-.34.06-.04.1-.02.12.08.02.05.01.1-.01.14-.1.17-.21.29-.34.37-.65.41-1.33.61-2.05.6-.23 0-.62-.13-.59-.63.02-.3.08-.6.18-.92.17-.55.3-1.08.4-1.59.02-.07 0-.12-.04-.13l-.18-.03c-.05 0-.08-.06-.07-.15v-.06c0-.07.03-.11.07-.13l.25-.08.04-.04a.17.17 0 0 0 .02-.07l.04-.62c0-.05.02-.08.05-.1l1.3-.45h.05c.06.04.1.14.1.24l-.06.78c0 .04.01.07.04.06ZM10.6 30.36c-1.24-.84-2.78-.51-4.05.11-.08.04-.16-.02-.17-.12-.04-.4.52-.65.94-.84a5.66 5.66 0 0 1 3.9-.3c.23.06.44.16.62.28.17.12.2.29.1.5l-.41.87c-.1.19-.21.21-.35.06a4.5 4.5 0 0 0-.59-.56Z" fill="#D1101E"/><path d="M8.68 34.13a.17.17 0 0 0 .06-.1.2.2 0 0 0-.01-.11c-.09-.2-.2-.35-.31-.45-.55-.46-.95-.83-1.21-1.13-.23-.25-.44-.7-.31-1.1.24-.82 1.3-1.09 1.94-1.02.03 0 .05.01.07.03.02.01.04.03.05.06a.2.2 0 0 1 0 .16c-.11.3-.05.55.2.76l1.14 1.02c.22.2.38.43.5.71.29.66.04 1.32-.47 1.66-.2.14-.46.24-.76.29-.9.16-1.9.1-3-.15-.15-.03-.3-.1-.47-.2-.1-.06-.13-.2-.08-.31l.4-.81c.05-.12.18-.16.28-.08.51.42 1.4 1.25 1.98.77Z" fill="#D1101E"/><path d="M49.12 31.07c-.03 0-.06-.04-.06-.09l.06-.77-.01-.08c-.02-.09-.08-.14-.15-.13-.4.1-.85.23-1.35.4-.16.04-.22.23-.19.56.02.16-.03.26-.13.3-.03.02-.06.02-.1.03-.07.01-.15.03-.19.1-.05.1-.05.28.05.3l.2.03c.05 0 .07.06.06.12l-.43 1.54c-.1.37-.28.6-.55.68l-.34.1c-.27.09-.36-.06-.27-.44.06-.28.18-.7.34-1.25.1-.34.17-.94-.04-1.23-.16-.22-.33-.33-.52-.32a2.5 2.5 0 0 0-1.32.46c-.08.05-.12.01-.13-.11-.02-.18-.06-.26-.14-.26-.42 0-.86 0-1.33.04-.04 0-.06.03-.07.08l-.08.65a9.5 9.5 0 0 1-.34 1.7c-.1.33-.27.53-.5.6l-.4.09c-.25.06-.34-.07-.25-.41.08-.35.24-.98.49-1.9.06-.25.1-.48.1-.7 0-.1-.03-.15-.1-.15h-1.4a.09.09 0 0 0-.07.03.17.17 0 0 0-.03.1l-.08.8c-.03.2-.08.3-.17.34-.2.09-.43.1-.67.06-.03 0-.06-.04-.07-.09-.1-.54-.28-.89-.52-1.03-.8-.47-1.63-.42-2.5.16-.5.34-.8.86-.9 1.57-.11.96.15 1.58.8 1.87.6.25 1.21.24 1.85-.03.68-.3 1.1-.93 1.25-1.9 0-.02.02-.04.04-.04l.7-.09s.02.02.01.03l-.37 1.33c-.1.39 0 .64.27.76.64.29 1.54-.05 2.14-.43.1-.06.13-.01.1.14a.53.53 0 0 0 0 .23c0 .05.03.08.07.08h1.3c.03 0 .07-.02.1-.06a.3.3 0 0 0 .07-.13l.53-2.46c.06-.28.2-.4.39-.37l.13.02c.22.03.3.2.22.5-.1.41-.24.93-.42 1.55-.05.16-.07.38-.06.67 0 .06.02.1.05.14.1.1.2.17.32.19.7.1 1.38-.07 2.03-.53.06-.04.1 0 .12.14 0 .05.02.1.05.13.13.18.28.27.45.28a4.3 4.3 0 0 0 2.4-.56c.16-.08.3-.2.4-.33.05-.07.05-.16.02-.27a.08.08 0 0 0-.04-.04h-.05a2.2 2.2 0 0 1-1.48.37c-.1 0-.17-.17-.14-.3l.58-2.13c.02-.05.04-.09.08-.1.18-.06.37-.1.56-.12.13 0 .2-.02.22-.03.26-.3.23-.47-.1-.49-.07 0-.23.03-.49.1Zm-12.84 3.2c-.26-.13-.3-.77-.1-1.45.19-.67.55-1.13.8-1 .26.11.3.75.11 1.43-.2.68-.56 1.13-.81 1.01Z" fill="#004570"/><path fill-rule="evenodd" d="M22.57 31.51c-.03.15 0 .17.09.06.28-.36.83-.7 1.23-.48a.2.2 0 0 1 .09.09c.02.04.02.09.02.13-.04.4-.13.74-.28 1a.25.25 0 0 1-.17.12.21.21 0 0 1-.18-.05c-.2-.16-.44-.26-.74-.3-.04 0-.09.01-.13.04a.25.25 0 0 0-.08.13l-.5 2.06a.27.27 0 0 1-.08.14.18.18 0 0 1-.13.05h-1.3c-.05 0-.1-.08-.08-.15l.52-1.68-.01-.02-.7.05c-.03 0-.05.01-.06.04-.14.75-.48 1.26-1.02 1.53-.61.3-1.27.37-1.96.18-.26-.07-.53-.2-.68-.47a.26.26 0 0 0-.05-.06.07.07 0 0 0-.05-.02l-.05.01c-.16.14-.41.3-.6.36-.7.22-1.4.3-2.1.28-.24-.01-.5-.1-.77-.29a.07.07 0 0 0-.08 0 .1.1 0 0 0-.03.04l-.02.05-.13 1.52c0 .04-.01.07-.03.1a.1.1 0 0 1-.08.03h-1.3c-.08 0-.14-.09-.13-.18.08-.76.28-1.46.48-2.14.23-.8.46-1.59.46-2.41 0-.04.02-.08.04-.1a.1.1 0 0 1 .08-.05c.63-.02 1.03-.04 1.21-.06.16-.01.23.12.2.4 0 .1.02.11.08.05.4-.42.85-.58 1.36-.48.54.1.83.56.8 1.27-.02.61-.2 1.13-.55 1.56-.07.09-.06.12.04.1l.87-.24a.16.16 0 0 0 .1-.08c.01-.04.02-.1.01-.14-.13-.86.19-1.62.78-2.03.59-.4 1.22-.54 1.9-.43.6.1 1.07.29 1.22 1.09l.03.07a.1.1 0 0 0 .06.03c.24.05.48.04.7-.05a.14.14 0 0 0 .07-.05.2.2 0 0 0 .04-.1l.07-.84c0-.06.03-.1.08-.1h1.38c.07 0 .13.1.11.2l-.05.22Zm-4.87 1.06c-.2.66-.15 1.28.1 1.4.24.1.6-.33.78-.99.2-.66.15-1.28-.1-1.4-.24-.11-.6.33-.78.99Zm-4.53 1.28c-.23-.18-.2-.76.05-1.3.26-.54.66-.83.89-.65.23.18.2.76-.05 1.3-.26.54-.66.83-.89.65Z" fill="#D1101E"/><path d="M22.7 28.94c-.3 0-.62-.1-.75-.15-.67.08.08.5.3.6.22.12.63.61.93.61.3 0 .44-.5.7-.83.26-.34.9-1.02 1.26-1.55.38-.53.56-1.1.78-1.43.18-.27.65-.64.86-.8.11-.16.46-.37.96.08a5.18 5.18 0 0 0 2.05 1.06c.26 0 .33 0 .89-.23a7.3 7.3 0 0 1 2.23-.41c.63 0 1.67.53 1.74.64.08.11.22 0 .34-.11.1-.12-.45-.6-.9-.95-.44-.34-.33-.49-.48-.49-.15 0-.3.23-.44.23h-1.71c-.7 0-1.08.26-1.34.26s-.15-.07-.78-.8c-.63-.7-.48-1.01-.48-1.5 0-.5-.67-1.17-.67-1.47 0-.3.15-.87.22-1.17.08-.3.08-.64.11-.76.04-.11.26-.11.45-.07.19.04.67 0 .67.34 0 .75-.93 1.77-1 1.88-.08.12.37.38.55.38.19 0 .34-.41.34-.68 0-.26.18-.45.37-.71.18-.27.78-.95.78-1.44s-1.04-.72-2.16-.98c-1.11-.26-1.3-.45-1.3-.83 0-.38.26-.6.26-.9 0-.3-.1-.76-.92-.76-.82 0-.7.6-.7.94 0 .34-.16.42-.23.5-.08.07.22.14.3.22.07.08.14.38.33.38.18 0 .37.07.37.3 0 .23 0 .3-.37.72-.3.33-.35 1.12-.34 1.47-.7 0-1-.08-1.15-.19l-.66-.5c-.08-.03-.41.31-.41.5s.33.15.48.19c.15.04.48.26.85.56.37.3 1.12.38 1.34.38.22 0 .33.53.26.83-.06.24.07.68.15.87-1.19.98-1.64 1.92-1.86 2.23-.22.3-.26.94-.33 1.28-.08.34-.41.87-.9 1.66-.48.8-.62.6-1 .6Z" fill="#004570"/><path d="M21.24 26.27c.71 1.36 4.22.89 7.84-1.06 3.61-1.95 5.97-4.63 5.26-5.99-.1-.2-.26-.35-.47-.48.4.13.68.33.83.63.71 1.36-1.75 4.1-5.5 6.11-3.75 2.02-7.37 2.55-8.08 1.2-.17-.34-.16-.75.02-1.21-.05.3-.02.57.1.8Z" fill="#D1101E"/><path d="M21.55 25.88c.66 1.27 3.93.83 7.3-.98 3.36-1.8 5.55-4.3 4.89-5.57-.5-.96-2.46-.94-4.83-.11 1.94-.6 3.52-.53 3.95.3.61 1.17-1.34 3.44-4.35 5.06-3.02 1.63-5.96 1.99-6.58.81-.31-.6.05-1.5.9-2.45-1.12 1.14-1.65 2.23-1.28 2.94Z" fill="#D1101E"/><path d="M22.3 24.9c.53 1.02 3.12.7 5.77-.72 2.66-1.43 4.38-3.43 3.84-4.46a.91.91 0 0 0-.35-.36c.33.1.57.26.7.5.55 1.06-1.27 3.14-4.07 4.64-2.8 1.5-5.5 1.87-6.06.81-.16-.32-.11-.73.11-1.19-.07.3-.06.55.05.77Z" fill="#004570"/></svg>