<svg width="56" height="56" viewBox="0 0 56 56" xmlns="http://www.w3.org/2000/svg"><path d="M20.52 12.73c.82-.75 2.02-1.73 3.18-2.37l.85.47c.7-.7 2.42-2.24 3.7-2.83.46.18 1.64.87 2.73 2.21.46-.02 1.56.08 2.25.62.08-.17.37-.62.86-1.02.6.25 2.03 1.42 3.42 4.1a17 17 0 0 1-3.65 30.05A6.8 6.8 0 0 1 28.13 47c-3.6 0-6.05-2.2-6.82-3.29h.17a17 17 0 0 1-.96-30.98Z" fill="#813A24"/><path fill-rule="evenodd" d="M20.13 25.73c0 2.93 1.46 7.37 2.18 9.23.6-.36 1.79-.86 2.31-1.06-.53-1.73-1.25-5.2.15-5.2s1.76 3.35 1.77 5.02c.2-.08.76-.24 1.5-.24.73 0 1.52.16 1.83.24-.17-1.82-.14-5.37 1.28-5.02 1.41.36.96 3.71.55 5.35.33.04 1.52.62 2.07.9.63-1.79 1.9-6.15 1.9-9.22 0-3.84-1.02-5.26-7.65-5.26-6.63 0-7.89 1.6-7.89 5.26Zm13.7-1.5c-.2-.27-.98-.9-2.41-1.19-1.43-.29-1.7-.8-1.66-1.03.02-.26.28-.78 1.14-.78 1.07 0 2.94.78 2.94 3Zm-11.67 0c.2-.27.99-.9 2.42-1.19 1.43-.29 1.7-.8 1.66-1.03-.02-.26-.28-.78-1.14-.78-1.07 0-2.94.78-2.94 3Zm-2.65 4.4c.37 1.64 1.35 5.3 2.3 6.88a4.47 4.47 0 0 0-1.42 2.53c-2.02.22-6.07-.63-6.07-5.87.08-1.37 1.23-4 5.19-3.53Zm14.67 6.88c.96-1.59 1.94-5.24 2.31-6.87 3.96-.47 5.11 2.16 5.2 3.53 0 5.24-4.06 6.1-6.08 5.87a4.47 4.47 0 0 0-1.43-2.53ZM28.1 34c-5.6 0-6.99 3.9-6.98 5.85 0 1.26 1.4 6.19 6.98 6.19 4.47 0 6.16-4.13 6.45-6.2.19-1.94-.83-5.84-6.45-5.84Zm-1.4.7c.16.16.68.46 1.4.46.72 0 1.28-.3 1.48-.45-.24.4-.88 1.19-1.48 1.19-.61 0-1.19-.8-1.4-1.2Zm-4.56 3.37c.68.18 2.84.54 6.06.54 3.21 0 5.17-.36 5.75-.54-.4 2.22-2.15 6.65-5.95 6.65-4.76 0-5.86-6.11-5.86-6.65Z" fill="#F3CB96"/><path d="M19.36 27.97c-2.9-.25-4.25.82-4.55 1.4-.85-1.6-.77-4.43-.63-5.65l1.25.84c.3-7.5 5.6-11.88 8.22-13.14-.5.88-.39 2.27-.26 2.86.74-2.45 3.54-4.7 4.85-5.53 1.11.8 3.1 3.07 3.96 4.11a2.13 2.13 0 0 0-.85-1.82 4 4 0 0 1 3.7 2.8l-.7-2.8c4.56 3.93 5.84 11.69 5.9 15.08l1.39-3.18c.28 1.72-.12 5-.35 6.42-.94-1.61-3.68-1.6-4.93-1.4.28-1.2.59-4.03-.35-5.75-1.18-2.16-3.68-2.71-8.11-2.71-4.44 0-6.54.55-7.9 2.71-1.1 1.72-.88 4.56-.64 5.76Zm.98 11.02a11.3 11.3 0 0 1-4.83-1.16c.5.77 2.18 2.4 4.83 2.72-.14-.26-.06-1.15 0-1.56Zm20-1.16a11.3 11.3 0 0 1-4.82 1.16c.06.41.14 1.3 0 1.56a7.03 7.03 0 0 0 4.83-2.72Z" fill="#E7A910"/></svg>