<!-- by TradingView --><svg width="56" height="56" viewBox="0 0 56 56" xmlns="http://www.w3.org/2000/svg"><path fill="#181B1E" d="M0 0h56v56H0z"/><path d="M14.83 33.49c-4.06 0-6.25-2.35-6.83-3.52 4.87.94 8.89-.1 12.04-1.97A16.76 16.76 0 0 0 8 26.03c.58-1.17 2.77-3.52 6.83-3.52 2.33 0 5.74.97 8.54 2.97A20.23 20.23 0 0 0 28 19c.78 1.83 2.33 4.31 4.63 6.48 2.8-2 6.21-2.97 8.54-2.97 4.06 0 6.25 2.35 6.83 3.52-4.87-.94-8.89.1-12.04 1.97A16.76 16.76 0 0 0 48 29.97c-.58 1.17-2.77 3.52-6.83 3.52-2.33 0-5.74-.97-8.54-2.97A20.23 20.23 0 0 0 28 37a20.23 20.23 0 0 0-4.63-6.48c-2.8 2-6.21 2.97-8.54 2.97ZM29.94 28A10.22 10.22 0 0 1 28 24.1a10.22 10.22 0 0 1-1.94 3.9A10.22 10.22 0 0 1 28 31.9a10.22 10.22 0 0 1 1.94-3.9Z" fill="#fff"/></svg>