<svg width="112" height="112" viewBox="0 0 56 56" xmlns="http://www.w3.org/2000/svg"><path d="M24.47 15.75c-.43.22-.41.83-.3 1.31A12.8 12.8 0 0 0 17 23.11c-1.43.4-2.79 2.51-3.34 3.64l-.01.05c-.3-.3-.75-.64-1.24-.65-.54-.02-1.2.77-1.8 1.48-.34.41-.66.8-.93 1-.59.42-.25 1.2 0 1.53-.05-.05-.22.09-.6 1.1s.69 1.51 1.27 1.64l3.3.54 3.5 2.15a12.73 12.73 0 0 0 12.88 6.28c3.36.44 8.59-.82 10.97-1.57l-.1-2.4-.2-.26v-3.45l-.56-.51a12.81 12.81 0 0 0-6-15.8c.02-.41.18-.88.58-1.36.54-.64 1.78-1.1 2.94-1.54 1.62-.6 3.11-1.17 2.4-2.08-1.17-1.54-3.43-.79-5.6-.06l-.17.06c-1.78.6-4.2 2.24-5.18 2.98a4.74 4.74 0 0 1-.74-.23c-.21-.11-3.18-.26-3.9.1Zm-9.94 13.66-.98-1.02-.1.33c.21.25.68.7 1.08.69Z" fill="#1B2405"/><path fill-rule="evenodd" d="M14.14 25.88c.68-1.1 1.74-2.46 2.86-2.77a12.8 12.8 0 0 1 7.18-6.05c-.12-.48-.14-1.1.29-1.3.72-.37 3.69-.22 3.9-.11.17.08.57.19.74.23.99-.74 3.4-2.39 5.18-2.98l.16-.06c2.18-.73 4.44-1.48 5.62.06.7.91-.79 1.47-2.4 2.08-1.17.44-2.41.9-2.95 1.54-.4.48-.56.95-.57 1.37a12.8 12.8 0 0 1 6 15.79l.55.5v3.46l.2.26.1 2.4c-2.38.75-7.6 2-10.97 1.57a12.73 12.73 0 0 1-12.87-6.28l-3.5-2.15-3.3-.54c-.59-.13-1.66-.63-1.28-1.64l.09-.24a.98.98 0 0 1-.28-.25l.61-.45a1.2 1.2 0 0 1 .03-.05c.08-.12.13-.13.15-.1-.16-.22-.35-.6-.32-.97.01-.22.1-.42.32-.57.27-.2.6-.59.94-1 .6-.71 1.25-1.5 1.79-1.48.14 0 .27.03.4.07a2.21 2.21 0 0 1 .84.58l.01-.05c.13-.25.29-.55.48-.87Zm-.46 2.65-.13-.14-.1.33c.21.25.68.7 1.08.7a144.81 144.81 0 0 1-.85-.9Zm-.38-3.19c.26-.42.57-.88.92-1.31a5.95 5.95 0 0 1 2.08-1.73 13.8 13.8 0 0 1 6.8-5.9c0-.08.02-.16.03-.23.06-.43.27-1 .89-1.31.37-.19.86-.25 1.24-.29a14.35 14.35 0 0 1 2.59 0 8.29 8.29 0 0 1 .65.08c.04 0 .18.03.32.1a1.02 1.02 0 0 0 .1.04 22.35 22.35 0 0 1 5.06-2.84l.22-.08c1.04-.35 2.24-.75 3.35-.85 1.16-.1 2.43.12 3.31 1.27.32.42.5.97.3 1.56-.17.5-.56.83-.86 1.03-.59.4-1.46.73-2.2 1a55.3 55.3 0 0 0-1.71.7c-.5.23-.78.43-.9.59a1.8 1.8 0 0 0-.18.23 13.8 13.8 0 0 1 6 15.98l.4.37v3.56l.29.23v3.49l-.7.23c-1.23.39-3.18.9-5.25 1.26-2 .35-4.2.57-6.02.36a13.72 13.72 0 0 1-13.61-6.57L13.3 34.4l-3.13-.51h-.02c-.4-.09-1-.3-1.47-.73a2.07 2.07 0 0 1-.6-.95c-.13-.42-.1-.86.06-1.3.13-.34.25-.62.36-.84-.05-.15-.1-.32-.12-.49-.08-.54.03-1.27.72-1.76a6 6 0 0 0 .75-.82l.02-.03c.28-.34.63-.75.98-1.08.19-.17.4-.35.64-.48.24-.14.57-.26.95-.25.31 0 .6.08.86.2Z" fill="#000700"/><ellipse cx="28.2" cy="29.21" rx="11.31" ry="11.35" fill="url(#amxj0lo3y)"/><path d="M13.45 28.72c.25.3.85.85 1.27.65.53-.26.88-1.3 1.39-1.12.4.14.25 1.22.12 1.73l.82.19c.47.16 1.41.47 1.4.37l-.18-3.59.96.18 1.22-1.26.54 1.8.34.82h1.65l2.24.14c.06-1.19.31-4.12 1.15-5.39h-.96c.15-.64.64-1.92 1.34-1.92.7 0 .81-.16.78-.23-.1-.8-.03-2.56.98-3.12.89-.5 1.96.43 3.58 1 .23.07 1.3 2.03 1.5 2.12.43.17 1.61-1.55 1.88-1.37 1.06.73 1.03 1.03 1.21 1.37L34.8 22.7l2 3.5-.92 1.66c.3.08.95.37 1.2.87.26.5.42.77.46.84l.7.08.39.84.15 1 1.06 1.07.53 6.77-6.83 1.76c-.18.04-4.12.14-6.07.18l-.68-3.06-.12-1.13.36-.84.96-.71-3.69.08-5.47-.1-1.14.4-4.03-2.48-3.3-.54c-.59-.13-1.66-.63-1.28-1.64.38-1.01.55-1.15.6-1.1-.25-.33-.59-1.11 0-1.53.73-.53 1.87-2.5 2.73-2.48.69.02 1.3.66 1.52.98l-.48 1.59Z" fill="#1B2405"/><path d="M28.68 26.4c-.13.62 1.8 1.3 1.9 1.3 1-.13 3.08-.52 3.35-1.07.35-.7-.9-1.35-1.36-1.73-.45-.38-1.1-.03-1.55.38-.45.4-2.22.51-2.34 1.13Z" fill="#090C05"/><path d="M25.32 28.73c-.02.73.52 1.27.8 1.45-.38-3.96 0-3.83.19-4.35.18-.52.64-3.23 1.03-3.8.39-.56.76-2.15.51-2.1-.2.04-.42.82-.51 1.2 0 .06-.14.18-.75.18-.62 0-1.15 1.5-1.35 2.24h1.2c-.42.67-1.09 4.3-1.12 5.18Z" fill="#000700"/><path d="m32.62 26.12-.8-.8c.29-.31 1.01.38 1.42.67.32.23.43-1 .45-1.63.05.36.15 1.24.15 1.86 0 .61-.34.84-.51.88-.01-.12-.04-.39-.1-.5-.05-.1-.49.21-.7.39.26-.27.17-.7.1-.87ZM30.6 27.22c.09-.26.32-.78.47-.79.2 0 .24.61-.47.79Z" fill="#666A5B"/><path d="M29.17 24.05c.49-.06 1.45-.03 1.47.51.02.55-.97-.11-1.47-.51ZM33.03 23.46c-.32.08-.93.32-.79.74.15.42.59-.32.79-.74Z" fill="#C9C0AF"/><path d="M29.12 21.33c-.18.17-.58.7-.82 1.48l4.91-.22c0-.28-.13-.92-.62-1.26l.1.96-.97-.96h-1.35l-.74.96c-.12-.07-.4-.37-.51-.96Zm-.79 1.65a3.42 3.42 0 0 0 3.06.89c1.37-.36 1.78-.88 1.81-1.1l-4.87.21Z" fill="#581F28"/><path d="M31.15 21.35c-2.59.19-3.37-1.8-3.43-2.83l-.88-.36-1.87-1.66h1.4c.05.12.2.36.36.36.16 0 .32-.24.38-.36h.96c.2.5.6 1.6.7 2.02.13.54.56 1.64 2.04 1.64 1.18 0 1.5-1.1 1.52-1.64l-.05-2.9h1.6c-.27.16-.8.68-.8 1.45 0 .96 1.3 4.04-1.93 4.28Z" fill="#7F2644"/><ellipse cx="30.55" cy="19" rx=".92" ry=".93" fill="#C60D73"/><path d="m33.47 22.21-.74-1.4.31-.19.73 1.06-.3.53ZM36.87 25.63l-2.02-3.1-.25 1.1.33-.39.4.73.17.98.13-.52.96 1.2.09.55.2-.55Z" fill="#666A5B"/><path d="M14.52 29.54c-.32-.05-.8-.62-1-.9l3.1-2.77 1.13 1.49c-.95.75-2.91 2.24-3.23 2.18Z" fill="#7F2644"/><path fill-rule="evenodd" d="M15.62 25.73c-.23.38-.2 1.14-.15 1.47.12.15.46.45.87.42.41-.02.76-.78.88-1.16.29.42.94 1.35 1.19 1.68.32.41.96.17 1.1-.08.16-.25.89-1.52 1.04-1.88.12-.3-.16-.6-.3-.72l-1.1 1.36c-.54-.36-1.58-1.25-1.32-1.86.25-.62 1.13-.76 1.54-.75-.1-.09-.4-.27-.96-.3-.69-.02-2.5 1.34-2.79 1.82Zm-2.9 6.02h-2.34c-.08 0-.24-.1-.24-.54 0-.44 1.13-.32 1.7-.2v-.31c-.49-.28-1.4-.91-1.18-1.18.23-.27 1.06.03 1.44.22-.29-.15-.83-.57-.65-1.05.14-.37.73-.08 1.12.1l.28.13c-.34-.52-.75-1.29 0-1.41.18-.03.91.85 1.35 1.38l.13.16c-1.05.6-1.51 2.05-1.61 2.7Zm1.76-.67.8.88c.14-.58.55-1.79 1.15-1.98-.34-.3-1.2-.5-1.95 1.1Zm3.42 2.74-2.2-1.73c.08-.66.63-1.98 2.13-1.98h2.14c-2.47.58-2.4 2.72-2.07 3.71Zm.57-5.31c.35.11 1.13.2 1.44-.33.32-.53.6-1.44.7-1.83l.67 1.9c-.03.46-.32 1.4-1.2 1.47l-.17-.87c-.8.18-1.3-.16-1.44-.34Zm10.25 1.42-.61-1c1.72-1 5.47-2.61 7.35-1.36.56.15.92.46 1.06.66h.02c.5.1.88.52.97 1.02l.04.25a6.24 6.24 0 0 1 .64.07c.06.01.12.06.18.13.06.08.12.19.18.33.12.3.23.75.3 1.44.15 0 .28.14.33.4.05.27.03.69-.13 1.33.13.07.25.22.31.47.08.28.09.69-.02 1.27l.09-.03.03.08c.14.34.32 1.26.03 2.32.1.2.23.53.26.86.03.28 0 .58-.2.79l.07.05c-.54.64-1.54 1.05-2.72 1.33-1.18.28-2.57.42-3.9.49a42.41 42.41 0 0 1-5.15-.08 1.02 1.02 0 0 1-.58-.21c-.07-.07-.13-.15-.13-.24h.05c0-.14-.04-.34-.1-.58l-.12-.56a66.3 66.3 0 0 1-.29-1.4c-.05-.3-.07-.59-.04-.8.04-.35.27-.69.51-.96.17-.17.35-.33.5-.43l-.37-.98 1.58-.15-.08-.4-1.78.2a4.9 4.9 0 0 1-.25-1.45l1.87-.25-.01-.31-1.87.39v-1.39l1.88-.2.01-.22c-.6.08-1.7.24-1.9.3.04-.37.2-.72.26-.86l1.68-.08-.02-.03.04-.03.03-.18ZM27.37 40.3h.06v-.03s0 .02.03.04c.04.03.12.08.27.12h.01l.04.01.1.01.36.04 1.19.06c.96.04 2.24.05 3.56-.01 1.32-.07 2.68-.21 3.84-.49.9-.2 1.66-.5 2.17-.87-1.01.28-2.7.57-4.3.76-.93.1-1.84.18-2.58.2-.37.01-.7 0-.96-.01a1.91 1.91 0 0 1-.6-.12 1.5 1.5 0 0 1-.77-.9 2.5 2.5 0 0 1-.14-.9.65.65 0 0 1-.2-.27 1.6 1.6 0 0 1-.1-.48 7.8 7.8 0 0 1-.01-.62c0-.43-.07-.87-.15-1.21l-1.37.04c-.15.09-.35.25-.54.45-.24.26-.43.57-.47.86a3 3 0 0 0 .04.76c.05.31.12.65.2 1l.09.38.13.56c.05.25.1.47.1.62Zm12.05-1.46-.02-.02-.07.08c-.9.3-2.82.65-4.65.86-.93.1-1.83.18-2.56.2-.37.02-.69.01-.95 0a1.77 1.77 0 0 1-.54-.11 1.32 1.32 0 0 1-.68-.8c-.1-.27-.12-.54-.12-.75.1.04.22.06.36.06.37 0 2.18 0 4.15-.12.98-.06 2-.15 2.92-.28.84-.13 1.6-.3 2.11-.51.09.2.18.47.2.73.04.28 0 .52-.15.66Zm-.1-3.71c.12.36.26 1.2-.01 2.15-.5.21-1.23.38-2.08.5-.9.13-1.92.22-2.9.28-1.97.12-3.77.12-4.14.12a.76.76 0 0 1-.38-.08.46.46 0 0 1-.2-.23c-.04-.11-.07-.25-.08-.42a7.64 7.64 0 0 1-.02-.61c0-.36-.04-.72-.1-1.04 1.06.07 2.78.11 4.61.03 1.84-.07 3.8-.28 5.3-.7Zm-9.94.5c0-.03-.02-.05-.03-.08a5.7 5.7 0 0 0-.12-.45l-.13-.69-.07.01-.01-.07c1.34-.1 3.4-.26 5.34-.44 1.95-.18 3.78-.39 4.6-.56.06.03.17.13.23.37.07.25.09.66-.04 1.27-1.46.4-3.35.6-5.14.67-1.84.08-3.58.03-4.63-.03Zm-.5-5.64c1.18-.96 3.92-2.6 6.47-2.27.43.1.73.3.9.47a10.4 10.4 0 0 0-2.3-.03c-.9.08-1.98.41-2.95.8-.83.34-1.6.72-2.11 1.03Zm-.02.23-.05.5a26.72 26.72 0 0 1 8.53-1.23h.03l-.03-.2c-.08-.45-.4-.8-.83-.88a9.82 9.82 0 0 0-2.55-.07c-.88.07-1.93.4-2.9.78-.88.36-1.7.78-2.2 1.1Zm-.06.7c-.02.38-.03.82-.01 1.29l9.88-.73a4.99 4.99 0 0 0-.28-1.38 1.15 1.15 0 0 0-.16-.29c-.04-.06-.08-.07-.09-.07l-.01-.01-.06-.01-.15-.02a35.8 35.8 0 0 0-3.12.04c-2.32.13-4.9.81-6 1.17Zm0 1.46c.01.58.07 1.2.18 1.8 1.34-.1 3.42-.26 5.36-.45 1.92-.18 3.7-.37 4.54-.54.16-.65.17-1.05.13-1.28-.05-.23-.14-.26-.17-.26l-10.05.73Zm-2.6-1.84-.19.67-2.2.36c.16-.35.86-1.03 2.4-1.03Zm-.14 2.4-.08-1.54-2.15.28c-.24.33-.17 1.1-.11 1.45l2.34-.2Zm-.03.14.4 1.34-2.1.26c-.16-.17-.5-.69-.55-1.34l2.25-.26Zm-1.05 2.56-.46-.74 1.93-.3.55.97-2.02.07Zm-.43-7.26-2.91.15v.44h2.9v-.59Zm10.58.83a.32.32 0 1 0 0-.64.32.32 0 0 0 0 .64Zm-.89-.32a.32.32 0 1 1-.63 0 .32.32 0 0 1 .63 0Zm-1.68.63a.32.32 0 1 0 0-.63.32.32 0 0 0 0 .63Zm-1.06 0a.32.32 0 1 1-.63 0 .32.32 0 0 1 .63 0Zm-1.64.83a.32.32 0 1 0 0-.63.32.32 0 0 0 0 .63Zm0 1.08a.32.32 0 1 0 0-.63.32.32 0 0 0 0 .63Zm.63 1.7a.32.32 0 1 1-.63 0 .32.32 0 0 1 .63 0Zm0 2.17a.32.32 0 1 0 0-.64.32.32 0 0 0 0 .64Zm.48 1.76a.32.32 0 1 1-.63 0 .32.32 0 0 1 .63 0Zm.7-3.8a.32.32 0 1 0 0-.63.32.32 0 0 0 0 .63Zm.57 1.6a.32.32 0 1 1-.63 0 .32.32 0 0 1 .63 0Zm-.42 2.51a.32.32 0 1 0 0-.63.32.32 0 0 0 0 .63Zm1.68-4.55a.32.32 0 1 1-.63 0 .32.32 0 0 1 .63 0Zm-.15 2.23a.32.32 0 1 0 0-.63.32.32 0 0 0 0 .63Zm0 1.92a.32.32 0 1 1-.63 0 .32.32 0 0 1 .63 0Zm1.2-4.03a.32.32 0 1 0 0-.63.32.32 0 0 0 0 .63Zm.58 1.6a.32.32 0 1 1-.63 0 .32.32 0 0 1 .63 0Zm-.63 2.6a.32.32 0 1 0 0-.63.32.32 0 0 0 0 .63Zm1.74-4.51a.32.32 0 1 1-.63 0 .32.32 0 0 1 .63 0Zm.22 2.1a.32.32 0 1 0 0-.63.32.32 0 0 0 0 .63Zm-.31 2a.32.32 0 1 1-.64 0 .32.32 0 0 1 .64 0Zm1.15-3.91a.32.32 0 1 0 0-.64.32.32 0 0 0 0 .64Zm.63 1.6a.32.32 0 1 1-.64 0 .32.32 0 0 1 .64 0Zm-.63 2.55a.32.32 0 1 0 0-.63.32.32 0 0 0 0 .63Zm1.68-4.62a.32.32 0 1 1-.63 0 .32.32 0 0 1 .63 0Zm-.22 2.2a.32.32 0 1 0 0-.64.32.32 0 0 0 0 .63Zm.1 1.64a.32.32 0 1 1-.63 0 .32.32 0 0 1 .63 0Zm-7.36-5.07a.32.32 0 1 0 0-.64.32.32 0 0 0 0 .64Zm2-.64a.32.32 0 1 1-.63 0 .32.32 0 0 1 .63 0Zm1.06.32a.32.32 0 1 0 0-.63.32.32 0 0 0 0 .63Zm1.9-.48a.32.32 0 1 1-.63 0 .32.32 0 0 1 .63 0Zm1.26.35a.32.32 0 1 0 0-.63.32.32 0 0 0 0 .63Zm-1.06-1.78a.32.32 0 1 1-.63 0 .32.32 0 0 1 .63 0Z" fill="#696F55"/><path d="m20.18 25.33-1.12-1.2 1.5 1.2-1.5 1.57 1.12-1.57Z" fill="#C9C0AF"/><path d="m19.6 25.45-.73-.71c1.55-2.02 7.97-6.42 10.98-8.37l7.9-2.84.43-.15-.43.15C32.22 15.61 23.4 22.3 19.6 25.45Z" fill="#14180A"/><path d="M32.55 14.56c-2.36.95-10.12 6.93-13.76 10.2l.2.22c3.38-2.65 10.46-8.25 12.91-9.65a22.6 22.6 0 0 1 6.58-2.29c-1.49-.15-2.98.33-5.93 1.52Z" fill="#696F55"/><path d="M36.25 14.2c-3.47 1.35-12.56 8-16.67 11.17l-.22-.23c4.2-3.4 13.45-10.36 16.89-10.94Z" fill="#696F55"/><defs><linearGradient id="amxj0lo3y" x1="28.2" y1="17.85" x2="28.2" y2="40.56" gradientUnits="userSpaceOnUse"><stop offset=".45" stop-color="#A30559"/><stop offset=".76" stop-color="#12010B"/></linearGradient></defs></svg>