<svg width="56" height="56" viewBox="0 0 56 56" xmlns="http://www.w3.org/2000/svg"><rect fill="#F0F3FA" width="56" height="56" rx="28"/><path d="M16.75 39.2c-.9-.9-.9-2.33 0-3.22l19.32-19.23a2.3 2.3 0 0 1 3.23 0c.89.88.89 2.32 0 3.21L19.98 39.2a2.3 2.3 0 0 1-3.23 0Z" fill="url(#a)"/><path d="M34.55 22.62a2.33 2.33 0 0 1-2.23-1.9l-1.24 2.38c.13.31.42.95.5 1.01.1.07 2.62-.16 3.87-.28l1.6-1.64c-.18.2-.94.54-2.5.43Z" fill="#AF29FA"/><path d="M19.1 33.56c2.86-.99 4.15.4 4.44 1.23.2-.82.52-2.5.26-2.7-.26-.21-2.27-.03-3.25.09-.44.45-1.36 1.35-1.44 1.38Z" fill="#7735FB"/><path fill-rule="evenodd" d="M22.77 32.46c5.4 0 9.78-4.36 9.78-9.73A9.75 9.75 0 0 0 22.77 13 9.75 9.75 0 0 0 13 22.73a9.75 9.75 0 0 0 9.77 9.73Zm0-4.6a5.14 5.14 0 1 0-5.15-5.13c0 2.83 2.3 5.13 5.15 5.13Z" fill="url(#b)"/><path fill-rule="evenodd" d="M33.23 43c5.4 0 9.77-4.36 9.77-9.73a9.75 9.75 0 0 0-9.77-9.73 9.75 9.75 0 0 0-9.78 9.73A9.75 9.75 0 0 0 33.23 43Zm0-4.6a5.14 5.14 0 1 0-5.16-5.13c0 2.83 2.31 5.13 5.16 5.13Z" fill="url(#c)"/><path d="M35.78 23.88a9.7 9.7 0 0 1 3.2 17.24c.43-1.1.69-5.04.12-7.36a9.9 9.9 0 0 0-2-3.91l-.3-.27a5.16 5.16 0 0 0-6.77-.34 9.8 9.8 0 0 1-.36.36 10 10 0 0 1-11.93 1.47 9.73 9.73 0 0 1-4.63-6.9c1.02-1.12 2.63-1.03 4.06-.95l.48.03a5.14 5.14 0 0 0 8.32 3.5c.25-.27.52-.54.8-.79.13-.15.24-.3.34-.46a9.58 9.58 0 0 1 5.31-1.93h.14c1.12-.04 2.2.08 3.22.3Z" fill="url(#d)"/><path d="M38.9 16.9c-.92-.77-2.12-.32-2.61 0l2.95 2.25c.26-.42.57-1.47-.35-2.24Z" fill="url(#e)"/><defs><linearGradient id="a" x1="17.19" y1="39.29" x2="38.22" y2="17.94" gradientUnits="userSpaceOnUse"><stop stop-color="#B828FB"/><stop offset=".23" stop-color="#493DFF"/><stop offset=".83" stop-color="#413EFF"/><stop offset="1" stop-color="#A92FF6"/></linearGradient><linearGradient id="b" x1="30.92" y1="16.29" x2="20.85" y2="28.75" gradientUnits="userSpaceOnUse"><stop stop-color="#A829FE"/><stop offset="1" stop-color="#3543FC"/></linearGradient><linearGradient id="c" x1="43.73" y1="33.55" x2="37.54" y2="44.6" gradientUnits="userSpaceOnUse"><stop stop-color="#3B40FB"/><stop offset="1" stop-color="#A21FF9"/></linearGradient><linearGradient id="d" x1="16.12" y1="23.81" x2="35.41" y2="42.16" gradientUnits="userSpaceOnUse"><stop stop-color="#4435FF"/><stop offset=".43" stop-color="#B827FE"/><stop offset=".5" stop-color="#B728FE"/><stop offset=".76" stop-color="#6B37FE"/><stop offset="1" stop-color="#4640F8"/></linearGradient><linearGradient id="e" x1="39.42" y1="17" x2="37.67" y2="19.04" gradientUnits="userSpaceOnUse"><stop offset=".22" stop-color="#FA4EFC"/><stop offset="1" stop-color="#613AF5" stop-opacity="0"/></linearGradient></defs></svg>