<!-- by TradingView --><svg width="56" height="56" fill="none" xmlns="http://www.w3.org/2000/svg"><path fill="url(#paint0_linear_1530)" d="M0 0h56v56H0z"/><path fill-rule="evenodd" clip-rule="evenodd" d="M12 17.234A5.236 5.236 0 0117.239 12H38.76A5.236 5.236 0 0144 17.234v21.532A5.236 5.236 0 0138.761 44H17.24A5.236 5.236 0 0112 38.766V17.234zm3 .112A2.343 2.343 0 0117.34 15h13.882L18 32h8l-2.05 9h-6.61A2.343 2.343 0 0115 38.654V17.346zM24.04 41h14.62c1.292 0 2.34-1.05 2.34-2.346V17.346A2.343 2.343 0 0038.66 15h-6.842L30 25h8L24.04 41zm1.46-11.996L27 27v1h3.569L29 30v-.996h-3.5z" fill="#fff"/><defs><linearGradient id="paint0_linear_1530" x1="0" y1="28" x2="56" y2="28" gradientUnits="userSpaceOnUse"><stop stop-color="#00F494"/><stop offset="1" stop-color="#0195FF"/></linearGradient></defs></svg>