<svg width="56" height="56" viewBox="0 0 56 56" xmlns="http://www.w3.org/2000/svg"><rect fill="#F0F3FA" width="56" height="56" rx="28"/><path d="M27.98 17.84c-.4.27-.7.65-.9 1.13a15.94 15.94 0 0 0-.5 1.31l-.03.01a.05.05 0 0 1-.05-.02c-.24-.3-.38-.72-.5-1.1-.05-.13-.1-.13-.15 0-.36 1.02.24 1.89.86 2.57l.02.04a.08.08 0 0 1-.02.06 8.05 8.05 0 0 0-3.8 2.4 7.84 7.84 0 0 0-1.64 3.33l-.02.02a.05.05 0 0 1-.05-.01c-.29-.27-.6-.5-.94-.72a1.44 1.44 0 0 0-1.3-.18c-.1.04-.2.1-.27.17a.1.1 0 0 0-.02.04.11.11 0 0 0 0 .09l.03.03c.26.22.54.39.84.52.07.04.07.07 0 .1l-.8.36c-.52.23-.97.52-1.2 1.09-.03.06-.02.11.04.15.2.13.4.16.63.09h.02l.02.01.02.02v.03c-.3.8-.27 1.63.1 2.38.4.84.9 1.3 1.83 1.47.9.16 1.75-.02 2.62-.37l.05.01v.05c-1.34 1.01-3.08 1.35-4.42.12a3.82 3.82 0 0 1-1.04-2.4 103.3 103.3 0 0 0-.07-.53l-.03-.01h-.02l-.73.27h-.05l-.02-.02v-.03c.02-1.15.5-2.31 1.66-2.53.09-.01.1-.05.02-.1l-.81-.64a.07.07 0 0 1-.03-.06v-.03l.02-.02c.98-1.03 2.3-1.48 3.44-.41a.05.05 0 0 0 .06.01l.02-.01.02-.03a6.9 6.9 0 0 1 4.79-4.95.05.05 0 0 0-.02-.04c-1.23-1.18-.77-2.57.25-3.64a.13.13 0 0 1 .18 0 4.66 4.66 0 0 1 .53.55l.02-.01v-.02c.49-1.32 1.38-1.55 2.55-1.58h.03l.02.03a.07.07 0 0 1 0 .07c-.17.24-.29.5-.35.77-.02.06 0 .1.06.08a2.71 2.71 0 0 1 2.64 1.1c.47.58.86 1.27.9 2.06a2.3 2.3 0 0 1-.8 1.92c-.04.03-.06.03-.07-.03v-.05c.62-1.35.5-2.62-.55-3.6a2.57 2.57 0 0 0-2-.76 3.98 3.98 0 0 0-1.23.31l-.03-.01-.01-.03v-.03c.02-.17.03-.35.1-.5l.12-.27c.03-.05.01-.07-.04-.03Z" fill="#565555"/><path d="M29.7 21.78a4.05 4.05 0 0 0-1.54-.44c-.35-.05-.47-.4-.36-.74.17-.51.63-1.04 1.18-1 .26 0 .47.09.64.22.7.57.89 1.3.57 2.15 0 .01 0 .02-.02.03a.07.07 0 0 1-.05.02h-.04l-.39-.24ZM32.3 32.22a5.52 5.52 0 0 0-.64-6.63.07.07 0 0 1 0-.1l1.1-1.22c.05-.05.09-.05.13 0a7.22 7.22 0 0 1 1.74 3.2 7.7 7.7 0 0 1-1.05 6.12c0 .03.02.06.04.08l.9.93c.2.2.32.38.37.55a.93.93 0 0 1-.5 1.16c-.42.17-.75-.01-1.06-.33l-.92-.97a.13.13 0 0 0-.08-.04.13.13 0 0 0-.1.03 6.1 6.1 0 0 1-4.69 1.45 6.18 6.18 0 0 1-3.94-1.93.08.08 0 0 1 .02-.06l1.13-1.23c.02-.02.04-.02.05 0a4.72 4.72 0 0 0 6.18.43c.05-.04.06-.09 0-.14l-.56-.57a.99.99 0 0 1-.26-1.07c.2-.6.94-.82 1.39-.35a14.03 14.03 0 0 1 .65.72.07.07 0 0 0 .07 0l.02-.03Z" fill="#0173BB"/><path d="M28.87 25.91c.38 0 .68-.33.68-.73 0-.4-.3-.73-.68-.73-.37 0-.67.33-.67.73 0 .4.3.73.67.73ZM27.05 29.82c.92 1 2.05 1.42 2.52.92.47-.5.1-1.72-.82-2.73-.92-1-2.05-1.42-2.52-.92-.47.5-.1 1.73.82 2.73Z"/><path d="M21.2 31.67c.02.06.01.1-.04.13-.97.6-1.76-.54-1.87-1.44-.04-.28 0-.52.1-.72.25-.45.82-.77 1.27-.49.28.17.16.52.15.8-.03.54.19 1.2.4 1.72Z" fill="#0173BB"/><path d="M24.32 30.82c.38 0 .68-.32.68-.72 0-.4-.3-.73-.68-.73-.37 0-.67.32-.67.73 0 .4.3.72.67.72Z"/><path fill-rule="evenodd" d="M26.45 40.75c6.83 0 12.37-5.7 12.37-12.75 0-7.04-5.54-12.75-12.37-12.75-6.82 0-12.36 5.7-12.36 12.75 0 7.04 5.54 12.75 12.36 12.75Zm0 3.19C35 43.94 41.91 36.8 41.91 28s-6.92-15.94-15.46-15.94C17.92 12.06 11 19.2 11 28s6.92 15.94 15.45 15.94Z" fill="#F8AE10"/><path d="M28 43.86c7.81-.8 13.9-7.6 13.9-15.86S35.82 12.94 28 12.14c.5-.05 1.02-.08 1.55-.08C38.08 12.06 45 19.2 45 28s-6.92 15.94-15.45 15.94c-.53 0-1.04-.03-1.55-.08Z" fill="#C88A1D"/><path d="M36.94 42c-.7.39-1.41.72-2.16 1h-2.96v-.05c.7-.27 1.38-.58 2.03-.95h3.09Zm2.78-2c-.4.35-.8.69-1.23 1h-3.1c.43-.31.84-.65 1.24-1h3.09Zm2.58-3c-.23.34-.47.68-.72 1h-3.1c.26-.32.5-.66.73-1h3.1Zm1.57-3c-.14.34-.28.67-.44 1h-3.09c.16-.33.3-.66.44-1h3.09Zm.86-3-.22 1h-3.1c.1-.33.16-.66.23-1h3.09Zm.24-2c-.02.34-.05.67-.09 1h-3.1c.05-.33.08-.66.1-1h3.09Zm0-2c.02.33.03.66.03 1h-3.1c0-.34 0-.67-.02-1h3.09Zm-.46-3 .22 1h-3.1a16.3 16.3 0 0 0-.21-1h3.09Zm-2.2-5c.2.32.41.66.6 1h-3.09c-.19-.34-.4-.68-.6-1h3.08Zm-2.6-3c.36.32.7.65 1.02 1h-3.1c-.27-.3-.57-.6-.87-.88V16h2.96Zm-2.77-2c.53.3 1.05.64 1.55 1h-3.1a15.4 15.4 0 0 0-1.39-.91V14h2.94Z" fill="#A57211"/></svg>