<svg width="56" height="56" viewBox="0 0 56 56" xmlns="http://www.w3.org/2000/svg"><path d="M15.79 21.64 22.58 11 12.45 21.17c-.84.85-.45 2.3.71 2.59l5.37 1.36c-1.08 1.7-2.12 3.7-2.19 5.76a4.14 4.14 0 0 0 1.15 3.14c1.28 1.28 2.89 1.78 4.24 2.86 3.4 2.72 4.92 7.7 9.85 8.1 3.05.25 6.77-1.85 7.85-4.78a5.83 5.83 0 0 0-.01-3.8c-.71-2.34-2.18-4.38-2.9-6.72-.67-2.22-.21-3.18.08-3.56.7-.92 2.7-1.18 3.59-1.48l1.96-.66c.47-.16 1.06-.29 1.43-.66.85-.85.24-1.7-.38-2.35A2529.63 2529.63 0 0 0 33.42 11a1198 1198 0 0 1 3.47 5.47l3.36 5.3-.91.31c-1.72.58-3.71.87-4.88 2.4-.96 1.26-1.36 3.2-.5 6 .72 2.34 2.18 4.37 2.89 6.71.25.85.27 1.5.06 2.07-.67 1.81-3.06 2.9-4.92 2.74-4.06-.33-5.8-5-8.58-7.23-1.3-1.03-2.81-1.45-4.02-2.66-.24-.24-.38-.59-.36-1.15.06-2.03 1.45-4.06 2.61-5.62.67-.9.2-2.16-.85-2.43l-5-1.27Zm11.33 11.03s-2.08 0-3.46-1.27c-1.38-1.28 0-3.83 0-3.83s.4.25 1.93 2.04c1.53 1.79 1.53 3.06 1.53 3.06Z" fill="#F0F3FA"/></svg>