<!-- by TradingView --><svg width="56" height="56" viewBox="0 0 56 56" xmlns="http://www.w3.org/2000/svg"><path fill="#181B1E" d="M0 0h56v56H0z"/><path fill-rule="evenodd" d="M44 28a16 16 0 1 1-32 0 16 16 0 0 1 32 0Zm-1 0a15 15 0 1 1-30 0 15 15 0 0 1 30 0Zm-13.37-9.52L27.67 18l-.83 2.85-3.92-.96-.55 1.9 1.6.39c.45.1.72.53.6.93l-2.32 7.9c-.12.42-.57.66-1.02.55l-1.38-.34-.85 2.05 5.76 1.41 1.3-4.42L28 33.22l-1.25-.3-.96 2.02L34.2 37l.1-2.24-1.55-.38-2.97-4.57.74.18c2.32.57 4.7-.69 5.33-2.81.62-2.13-.76-4.31-3.08-4.88l-.4-.1.83-2.84-1.96-.48-.83 2.84-1.61-.4.83-2.84Zm.24 9.1-2.82-.7 1.01-3.47 2.83.69c1.05.26 1.67 1.24 1.39 2.2-.28.96-1.36 1.53-2.41 1.28Z" fill="#fff"/></svg>