<svg width="56" height="56" viewBox="0 0 56 56" xmlns="http://www.w3.org/2000/svg"><path fill-rule="evenodd" d="M44 28a16 16 0 1 1-32 0 16 16 0 0 1 32 0ZM28 42a14 14 0 1 0 0-28 14 14 0 0 0 0 28Zm0-2a12 12 0 1 0 0-24 12 12 0 0 0 0 24Zm4.5-16a2.5 2.5 0 1 0 0-5 2.5 2.5 0 0 0 0 5Zm-6.2-2.88a.5.5 0 0 1 .7.04l2.85 3.04c.2.22.2.56 0 .78l-.62.63a.5.5 0 0 1-.74 0l-1.99-2.12-4.12 3.4a.5.5 0 0 1-.73-.1l-.54-.72a.56.56 0 0 1 .09-.76l5.1-4.2ZM31.88 24c-.49 0-.88.43-.88.96v3.17c0 .48.35.87.79.87h3.33c.49 0 .88-.43.88-.96v-.2c0-.52-.4-.84-.88-.84H33v-2.04a.98.98 0 0 0-.95-.96h-.17Zm-5.05 5.7c.23.24.23.63-.01.87l-5.3 5.25a.6.6 0 0 1-.86 0l-.49-.51a.63.63 0 0 1 .01-.88l5.3-5.25a.6.6 0 0 1 .86 0l.49.51Zm.45 1.02 2.61 1.33-1.6 3.92c-.12.26 0 .56.27.67l.79.32c.26.1.56-.02.67-.28l1.9-4.64c.2-.5 0-1.05-.48-1.3l-3.3-1.68a.51.51 0 0 0-.7.22l-.38.76a.51.51 0 0 0 .22.68Z"/></svg>