<svg width="56" height="56" viewBox="0 0 56 56" xmlns="http://www.w3.org/2000/svg"><path d="M27 13a1 1 0 1 1 2 0v30a1 1 0 1 1-2 0V13Zm-1.93 4a1 1 0 0 0-1.04-1h-10.4c-.9 0-1.63.84-1.63 1.74V38.4c0 .9.73 1.6 1.63 1.6h10.46c.5 0 .91-.5.91-1s-.4-1-.91-1H14V18h10.03a1 1 0 0 0 1.04-1ZM32 18a1 1 0 1 0 0-2 1 1 0 0 0 0 2Zm4-1a1 1 0 1 1-2 0 1 1 0 0 1 2 0Zm2 1a1 1 0 1 0 0-2 1 1 0 0 0 0 2Zm4-1a1 1 0 1 1-2 0 1 1 0 0 1 2 0Zm1 3a1 1 0 1 0 0-2 1 1 0 0 0 0 2Zm1 2a1 1 0 1 1-2 0 1 1 0 0 1 2 0Zm-1 4a1 1 0 1 0 0-2 1 1 0 0 0 0 2ZM33 39a1 1 0 1 0-2 0 1 1 0 0 0 2 0Zm2-1a1 1 0 1 1 0 2 1 1 0 0 1 0-2Zm4 1a1 1 0 1 0-2 0 1 1 0 0 0 2 0Zm2-1a1 1 0 1 1 0 2 1 1 0 0 1 0-2Zm3-1a1 1 0 1 0-2 0 1 1 0 0 0 2 0Zm-1-4a1 1 0 1 1 0 2 1 1 0 0 1 0-2Zm1-2a1 1 0 1 0-2 0 1 1 0 0 0 2 0Zm-1-2a1 1 0 1 0 0-2 1 1 0 0 0 0 2Z" fill="url(#a)"/><defs><linearGradient id="a" x1="28" y1="12" x2="28" y2="44" gradientUnits="userSpaceOnUse"><stop stop-color="#F9635F"/><stop offset=".5" stop-color="#C330EE"/><stop offset="1" stop-color="#4D38C6"/></linearGradient></defs></svg>