<svg width="112" height="112" viewBox="0 0 56 56" xmlns="http://www.w3.org/2000/svg"><path d="M33.38 43.98c-.2-.22-.4-.34-.6-.34-.18-.01-.28-.1-.32-.27a.66.66 0 0 0-.08-.19.37.37 0 0 0-.35-.18c-2.87.15-5.68.14-8.46-.03a.3.3 0 0 0-.28.15c-.1.17-.18.43-.21.78-.47.1-.99.13-1.54.06-.18-.02-.23-.12-.14-.28l.33-.65a.24.24 0 0 0-.18-.33c-2.7-.35-7.1-1.19-8.66-3.67-1.53-2.43-1.12-5.4 1.54-6.8.12-.06.15-.15.1-.27-1.2-2.43-.82-4.61 1.1-6.54.08-.08.08-.16 0-.24l-1.22-1.09a.5.5 0 0 1-.17-.3c-.14-1 1.04-1.5 1.76-1.9a.52.52 0 0 0 .26-.3c1.7-5.16 5.34-8.67 10.64-9.48 5.89-.91 11.89 4.19 12.95 9.86.02.11.08.2.17.25l1.62.99a.4.4 0 0 1 .18.42c-.12.52-.45.98-.98 1.38-.3.22-.34.48-.08.77 1.58 1.79 1.84 3.85.78 6.2-.06.14-.02.24.12.3a4 4 0 0 1 2.32 3.25c.4 5.4-5.36 6.69-9.6 7.17-.28.03-.34.16-.18.39.12.17.19.36.22.55.04.24-.06.35-.3.35l-.74-.01Z" fill="#1B1918"/><path d="m33.38 43.98-10.3-.08c.03-.35.1-.61.2-.78a.3.3 0 0 1 .29-.15c2.78.17 5.6.18 8.46.03.15-.01.27.05.35.18.04.06.07.13.08.2.04.16.14.25.32.26.2 0 .4.12.6.34ZM16.7 21.51a.04.04 0 0 1-.05 0 .04.04 0 0 1 0-.05c2.23-6.47 8.83-10.95 15.65-8.14 3.4 1.4 6.36 4.7 7.2 8.42.03.17-.03.22-.2.15a28.9 28.9 0 0 0-7.2-2.13 26.46 26.46 0 0 0-15.4 1.75Z" fill="#F6F3DB"/><path d="M37.15 22.06a28.38 28.38 0 0 0-8.41-1.53C25 20.4 21.66 20.6 18.6 22A51.92 51.92 0 0 0 15 23.8c-.18.1-.4-.03-.4-.23a.63.63 0 0 1 .3-.52c5.31-3.32 12.03-3.87 18.33-2.62 3.22.64 5.92 1.65 8.1 3.03.15.1.2.23.16.4l-.03.1a.12.12 0 0 1-.17.09c-1.36-.67-2.7-1.5-4.13-2Z" fill="#F6F3DB"/><path d="M15.14 24.02c3.18-1.74 6.19-2.9 9.84-3.05 5.85-.26 11.14.38 15.95 3.33.06.04.06.08.01.13l-.7.68a.1.1 0 0 1-.06.03c-.03 0-.05 0-.07-.02-2.42-1.58-4.73-1.67-6.94-.26-.14.1-.29.1-.44.04a13.6 13.6 0 0 0-10.12-.44.5.5 0 0 1-.35-.02c-2.02-.91-4.07-.73-6.14.55-.04.03-.08.03-.11 0l-.89-.82a.1.1 0 0 1-.01-.12.1.1 0 0 1 .03-.03Z" fill="#F6F3DB"/><path d="M24.72 30.26c.28-2.03-.3-3.79-1.74-5.27-.13-.13-.1-.22.07-.26 3.32-.88 6.48-.71 9.46.5.14.06.16.15.07.27-2.63 3.44-1.26 8.9 3.58 9.3a5.45 5.45 0 0 0 4.95-2.16c.1-.11.2-.13.32-.05 1.29.81 2.12 1.92 2.12 3.48-.02 4.36-4.7 5.52-8.2 6.07-4.65.73-9.35.76-14.1.09-3.63-.52-9.35-1.76-8.68-6.78.16-1.2.84-2.14 2.04-2.83.15-.08.27-.06.38.07 1.54 1.88 3.54 2.51 6 1.9a5.05 5.05 0 0 0 3.73-4.33Z" fill="#7CB24F"/><path d="M40.87 26.43c2.37 3.29-.1 8-4.25 7.82-4.8-.2-6.4-5.69-3.37-8.99a2.8 2.8 0 0 1 1.59-.89c2.68-.5 4.68.2 6.03 2.06ZM23.43 26.05a4.93 4.93 0 0 1 1.08 3.7 5.13 5.13 0 0 1-1.89 3.42 5.2 5.2 0 0 1-3.73 1.14 5 5 0 0 1-3.4-1.8 4.93 4.93 0 0 1-1.07-3.7 5.13 5.13 0 0 1 1.89-3.42 5.21 5.21 0 0 1 3.73-1.15 5 5 0 0 1 3.4 1.8Z" fill="#FFAF93"/><path d="M30.68 16.65c.05-.52.02-1.09-.1-1.7v-.15c.06-.2.37-.4.57-.28.03.02.05.05.06.08.3.85.44 2.65 0 3.63a.56.56 0 0 1-.56.33.73.73 0 0 1-.65-.46c-.11-.29-.27-.3-.45-.06-.26.35-.55.43-.88.23-.9-.52-.78-2.8-.68-3.73a.22.22 0 0 1 .27-.18l.18.05c.14.03.2.12.2.27-.06.85-.02 1.67.1 2.43.03.14.19.21.3.15.14-.08.22-.2.24-.37.08-.83.1-1.63.04-2.4-.01-.27.1-.36.35-.25.22.09.45.2.43.47-.05.74-.02 1.4.07 1.96.22 1.26.4 1.25.51-.02ZM26.75 16.3a.13.13 0 0 0-.02.22c.48.39.68.94.59 1.65-.01.06-.04.11-.09.15a.24.24 0 0 1-.16.06c-.22 0-.37-.11-.45-.33l-.37-1a.36.36 0 0 0-.26-.24.16.16 0 0 0-.2.13l-.1 1.33a.24.24 0 0 1-.28.22c-.36-.07-.54-.3-.54-.7 0-.8-.05-1.64-.13-2.5a.8.8 0 0 1 .56-.85c.76-.23 1.75-.1 1.9.83.08.46-.07.8-.45 1.03ZM33.48 17.86l-.17-.04a.29.29 0 0 0-.35.31l.09.62c.02.2-.06.27-.25.24a.44.44 0 0 1-.37-.33c-.28-1-.27-2.09.03-3.26a.38.38 0 0 1 .27-.28c.7-.18 1.17.05 1.38.7.34.98.47 2.09.4 3.32-.01.2-.12.29-.31.26-.17-.01-.27-.1-.3-.27a4.15 4.15 0 0 1-.06-.81c0-.25-.11-.4-.36-.46ZM22.93 16.64c.07.2.3.21.49.25a.75.75 0 0 1 .38 1.25l-.9.93a.35.35 0 0 1-.3.11l-.76-.1a.45.45 0 0 1-.35-.22.28.28 0 0 1-.03-.26c.07-.18.2-.26.38-.24.34.03.73-.14.74-.54a.3.3 0 0 0-.31-.3c-.32.02-.51-.15-.59-.52a.52.52 0 0 1 .15-.47 4 4 0 0 0 .8-1.11c.08-.17.16-.17.24 0 .11.25.29.3.53.17.23-.13.4-.08.53.16.04.08.05.16.02.25-.04.16-.15.24-.3.25l-.48.01c-.18.01-.3.21-.24.38Z" fill="#7CB24F"/><path d="M14.78 35.53c.03.07.02.13-.03.2-.08.08-.13.07-.17-.04-.18-.6-.04-1.06.41-1.4a.24.24 0 0 1 .3 0c.07.07.1.15.1.24-.02.06-.04.12-.08.17-.15.22-.31.42-.5.6a.2.2 0 0 0-.05.12c0 .03 0 .08.02.11ZM41.22 36.09a38.1 38.1 0 0 1-7.62 1.48c-3.61.3-6.95.26-10.02-.09-2.6-.3-5.38-.99-8.33-2.05a.16.16 0 0 1-.07-.24l.1-.12a.1.1 0 0 1 .1-.03 75.2 75.2 0 0 0 5.33 1.46c1.77.4 3.69.64 5.76.69 3.03.06 5.49 0 7.37-.16 2.01-.19 4.42-.66 7.22-1.44a.24.24 0 0 0 .1-.4l-.16-.14a.14.14 0 0 1-.05-.1.14.14 0 0 1 .17-.15l.04.02c.56.3.75.77.59 1.43-.05.17-.14.27-.3.3-.18.05-.23-.01-.15-.18l.05-.12c.08-.16.03-.2-.13-.16ZM24.75 39.07h-.03c-.12-.07-.08-.08-.02-.23 0-.06.01-.12.04-.16.02-.05.05-.07.08-.07l5.42.22c.03 0 .06.03.08.07.02.05.03.1.02.17 0 .05.03.16-.02.2a.06.06 0 0 1-.05.02l-5.52-.22ZM35.23 31.62a2.15 2.15 0 0 1-1.47-.79 2.35 2.35 0 0 1-.5-1.69c.04-.61.3-1.19.74-1.6.43-.4 1-.6 1.57-.57a2.15 2.15 0 0 1 1.47.79 2.35 2.35 0 0 1 .5 1.69c-.04.62-.3 1.2-.74 1.6-.43.4-1 .61-1.57.57ZM19.53 29.03c-.17.81.25 1.6.95 1.75.7.15 1.4-.39 1.59-1.2.17-.81-.25-1.6-.95-1.75-.7-.15-1.4.38-1.59 1.2Z" fill="#1B1918"/><path d="M25.69 15.41c-.1.24-.02.5.17.57.2.08.43-.06.52-.3.1-.24.02-.5-.18-.57-.19-.08-.42.06-.51.3ZM33.64 17.26c-.16 0-.3-.03-.44-.07a.27.27 0 0 1-.2-.24c-.06-.39-.01-.73.15-1.03.09-.17.35-.16.42.02.15.38.22.77.2 1.18a.14.14 0 0 1-.13.14ZM22.33 16.94a.18.18 0 1 0 0-.36.18.18 0 0 0 0 .36ZM22.99 17.57c.07-.12.17-.15.28-.09a.19.19 0 0 1 .08.22c0 .03-.02.06-.04.07-.08.08-.16.1-.25.06a.17.17 0 0 1-.1-.12.18.18 0 0 1 .03-.14Z" fill="#F6F3DB"/><path d="M37.25 29.3a1.84 1.84 0 1 1-3.67 0 1.84 1.84 0 0 1 3.67 0Z" fill="#903628"/><path d="M35.2 29.96a.58.58 0 1 0 0-1.15.58.58 0 0 0 0 1.15Z" fill="#1B1918"/></svg>