<!-- by TradingView --><svg width="56" height="56" viewBox="0 0 56 56" xmlns="http://www.w3.org/2000/svg"><path fill="url(#ah3pfxkai)" d="M0 0h56v56H0z"/><path fill-rule="evenodd" d="M42.8 28a14.8 14.8 0 1 1-29.6 0 14.8 14.8 0 0 1 29.6 0Zm1.2 0a16 16 0 1 1-32 0 16 16 0 0 1 32 0Zm-5.72-.77V22.4c0-1.03-1.12-1.72-2.15-1.33l-3.55 1.39a14.66 14.66 0 0 0-4.59-.73c-1.64 0-3.2.26-4.58.73l-3.55-1.39c-1.03-.4-2.15.3-2.15 1.33v4.82a5.28 5.28 0 0 0-.36 1.92c0 3.04 2.68 5.43 5.35 6.41 1.2.44 1.92 1.06 2.57 1.6.8.67 1.47 1.23 2.73 1.23s1.93-.56 2.73-1.23c.65-.54 1.38-1.16 2.57-1.6 2.67-.98 5.35-3.37 5.35-6.41 0-.67-.13-1.3-.36-1.92Zm-14.1 7.56a2.9 2.9 0 1 1 0-5.8 2.9 2.9 0 0 1 0 5.8Zm7.63 0a2.9 2.9 0 1 1 0-5.8 2.9 2.9 0 0 1 0 5.8Zm-9.76-2.9 2.13-2.14 2.13 2.13-2.13 2.13-2.13-2.13Zm7.63 0 2.13-2.14 2.13 2.13-2.13 2.13-2.13-2.13Z" fill="#EDB70C"/><defs><linearGradient id="ah3pfxkai" x1="10.42" y1="9.71" x2="68.15" y2="76.02" gradientUnits="userSpaceOnUse"><stop stop-color="#1A1E21"/><stop offset="1" stop-color="#06060A"/></linearGradient></defs></svg>