<svg width="224" height="224" viewBox="0 0 56 56" xmlns="http://www.w3.org/2000/svg"><rect fill="#00B3ED" width="56" height="56" rx="28"/><path d="M30.15 15.92c-2.57.81-4 2.61-4.26 5.4-.07.73-.01 1.5.18 2.3.2.82.5 1.55.93 2.19a5.81 5.81 0 0 1 .96 4.39c-.27 1.46-1.13 2.28-2.58 2.46-1.14.14-2-.33-2.58-1.4a5.63 5.63 0 0 1-.58-3.12c.03-.37-.04-.39-.2-.06a12.23 12.23 0 0 0-1.41 5.35 7.7 7.7 0 0 0 1.76 5.1c.06.07.04.12-.04.15-.47.17-.93.27-1.4.3-.34.02-2.62.02-6.83 0-.73 0-1.25-.11-1.56-.32-.4-.28-.58-.66-.53-1.15.03-.34.2-.78.5-1.32l14.03-25.14c.38-.68.84-1.03 1.4-1.05.56-.02 1.03.32 1.41 1.02a816.6 816.6 0 0 0 3.24 5.81c.43.78.7 1.4.8 1.86a4.8 4.8 0 0 1-.62 3.47l-.75 1.3c-.05.08-.11.1-.19.04-2.53-1.92-3.06-4.41-1.59-7.47a.08.08 0 0 0-.01-.09.07.07 0 0 0-.08-.02Zm5.7 12.03c.29-.5.6-.85.94-1.04.43-.24.86-.22 1.3.07.27.18.58.6.95 1.23l4.4 7.85a4 4 0 0 1 .56 1.5c.04.55-.2.95-.74 1.22-.27.14-.68.21-1.24.21h-7.44c-.18 0-.2-.05-.06-.17 2.27-1.9 3.15-4.38 2.64-7.43a8.62 8.62 0 0 0-1.3-3.3.12.12 0 0 1 0-.14ZM32.7 38.86a7.83 7.83 0 0 0-.03-5.08c0-.03-.03-.04-.05-.03a57.97 57.97 0 0 0-1.43 2.45c-.32.56-.5.99-.52 1.28-.04.5.14.9.55 1.19.39.27.83.38 1.34.31.07 0 .12-.05.14-.12Z" fill="#fff"/></svg>