<svg xmlns="http://www.w3.org/2000/svg" width="112" height="112" viewBox="0 0 56 56"><path fill-rule="evenodd" d="M12.32 20h10.29A2.45 2.45 0 0125 22.5c0 1.38-1.07 2.5-2.39 2.5H20.5v2H18v-5.5h-3.14c-.76 0-.63.69-.46.95.57.6 1.72 2.07 1.72 3.13 0 1.07-.84 1.4-1.26 1.42H9v-2h3.59c.74 0 .46-.52.22-.75l-1.42-1.9c-.75-1.65.31-2.26.93-2.35zm8.18 1.5h1.32c.37 0 .68.34.68.75s-.3.75-.68.75H20.5v-1.5zM30.94 20h-3.88L25 27h2.43l.27-1h2.74l.3 1H33l-2.06-7zm-.95 4.5h-1.87l.77-2.8h.26l.84 2.8zM36 20a3.5 3.5 0 100 7h3v-2h-3a1.5 1.5 0 010-3h3v-2h-3zm6 0h4v2h-4v1h3v1h-3v1h6v2h-8v-7h2z" fill="#fff"/><path fill-rule="evenodd" d="M11.42 29.2l-1.51 1.78a1.5 1.5 0 10-.02 1.09l1.61 1.65A3.73 3.73 0 018.67 35 3.59 3.59 0 015 31.5C5 29.57 6.64 28 8.67 28c1.1 0 2.08.46 2.75 1.2zM43 28h2.5l1.5 2 1.5-2H51l-3 4v3h-2v-3l-3-4zm-24 3.5a3.5 3.5 0 11-7 0 3.5 3.5 0 017 0zm-2 0a1.5 1.5 0 11-3 0 1.5 1.5 0 013 0zM40.5 35a3.5 3.5 0 100-7 3.5 3.5 0 000 7zm0-2a1.5 1.5 0 100-3 1.5 1.5 0 000 3zM21 35l-2-7h2l1 3 1-3h2l1 3 1.16-3h7.21a1.64 1.64 0 01.87 3.04 2.06 2.06 0 01-.8 3.96H29v-5h-.4L27 35h-2l-1.1-2.49L23 35h-2zm10.5-5h1.8a.5.5 0 110 1h-1.8v-1zm0 2h1.75a.75.75 0 010 1.5H31.5V32z" fill="#FC0"/><defs><linearGradient id="auou3540t" x1="28" y1="0" x2="28" y2="56" gradientUnits="userSpaceOnUse"><stop stop-color="#79143A"/><stop offset="1" stop-color="#18022F"/></linearGradient></defs></svg>