<!-- by TradingView --><svg width="56" height="56" viewBox="0 0 56 56" xmlns="http://www.w3.org/2000/svg"><path fill="#F0F3FA" d="M0 0h56v56H0z"/><path d="M24.94 18.73c.85.29 1.74-.28 2.12-1.05.13-.25.1-.45-.07-.6-.42-.36-1.4.07-1.75.36l-.7.57c-.62.52-1.28.83-1.98.94-.16.03-.3-.01-.45-.05-.16-.04-.32-.08-.5-.03-.85.2-1.6 1.05-1.82 1.83-.07.25-.02.46.15.6.47.42 1.34-.25 1.67-.64.12-.14.23-.3.33-.45.15-.21.3-.43.49-.6.63-.61 1.67-1.16 2.5-.88Zm3.41.93c.6.04 1.01-.19 1.25-.67.27-.54.03-1.29-.6-1.39-.45-.07-.84.05-1.19.36-.16.14-.28.32-.4.5-.13.18-.25.35-.4.5-.47.43-1.02.68-1.65.75-.26.03-.51-.03-.77-.1l-.11-.02c-.78-.2-1.57.38-1.94 1.06-.35.63-.22 1.45.56 1.59.51.09 1-.08 1.43-.5.22-.21.35-.46.48-.71a2.61 2.61 0 0 1 2.26-1.56c.21-.01.4.04.6.1.16.04.32.08.48.1Zm-10.2 4.06c-.34.9-.21 1.8.29 1.99.5.2 1.17-.37 1.5-1.27.34-.9.2-1.79-.3-1.98-.49-.2-1.16.37-1.5 1.26Zm8.36-.47a2.83 2.83 0 0 0-.87-.16c-1.02.16-1.98.86-2.21 1.92-.15.65-.44 1.2-1.04 1.5-.73.39-1.51-.03-1.69-.83-.15-.69 0-1.3.46-1.86.38-.45.93-.66 1.48-.48.24.08.54.17.78.15a2.9 2.9 0 0 0 1.94-1.07c.15-.21.27-.46.37-.7.11-.25.22-.48.36-.66.3-.37.7-.57 1.2-.6a1.38 1.38 0 0 1 1.22 2.13c-.31.52-.79.78-1.43.78-.16 0-.36-.06-.57-.12Z" fill="url(#abgfcmxhk)"/><path d="M33.06 19.88c.28 1.19-.68 2.02-1.8 1.58-1.33-.52-2.33.91-1.66 2.12.52.91 2.06 1.23 2.52.03.08-.2.1-.41.12-.62.01-.13.02-.26.05-.4.15-.72.52-1.17 1.12-1.36.17-.05.4 0 .6.05.37.08.72.16.86-.24.36-1.03-1.54-3.05-1.81-1.8-.05.22-.05.43 0 .64Zm2.37.73c.24.63.47 1.24-.17 1.75-.21.17-.47.1-.73.03-.24-.07-.48-.14-.71-.04-.39.17-.6.5-.64.98-.08.8.17 1.42.75 1.87.84.65 1.67-.13 1.58-1.06-.03-.3-.04-.61-.02-.92.02-.38.21-1.29.7-1.28a4.43 4.43 0 0 1 .62.04c.02 0 .04-.02.06-.04a.17.17 0 0 0 .06-.12c.03-.92-.84-2-1.5-2.45a.15.15 0 0 0-.21.04.16.16 0 0 0-.03.07c-.05.37.1.75.24 1.13Zm1.66 5.58c-.75-.3-1.4.53-1.65 1.19-.15.39-.26.78-.32 1.18-.1.65-.54 1.27-1.19 1.4-.69.15-1.25-.42-1.41-1.08-.22-.9.16-2.14 1.15-2.34.24-.06.47.01.7.08l.4.09c1.03.13 1.6-1.17 1.48-2.04-.04-.33-.04-.68.02-1.04.07-.42.4-.78.8-.47.72.55 1.17 2.15.64 2.92-.15.2-.41.19-.62.1Zm-7.14 2.66c-.9 0-1.63-.77-1.63-1.73 0-.95.72-1.73 1.62-1.73.9 0 1.63.77 1.63 1.73s-.73 1.73-1.62 1.73Z" fill="url(#bbgfcmxhk)"/><path d="M18.08 32.69c-.16-.4-.4-1.28.07-1.53a.2.2 0 0 1 .19 0c1.01.47 1.54-.99 1.56-1.77 0-.27.03-.52.08-.77.22-1.17 1.47-1.44 2.13-.45.42.62.48 1.58.03 2.2-.34.48-.79.6-1.35.4-.51-.2-1.04 0-1.29.5-.26.56-.14 1.1-.02 1.67l.05.24c.06.27.04.53-.05.77a.26.26 0 0 1-.14.15.24.24 0 0 1-.2 0c-.5-.24-.86-.9-1.06-1.41Zm3.06-.74c1.2.48 2.17-.73 2.27-1.88.06-.74.53-1.33 1.25-1.43 1.45-.2 2.4 1.65 1.43 2.77-.32.37-.74.53-1.26.47-.15-.02-.3-.06-.45-.1a2.14 2.14 0 0 0-.72-.1c-1.07.08-1.57.92-1.46 1.94.07.7-.38 1.44-1.13.95-.54-.35-.87-.92-.98-1.7-.1-.65.4-1.17 1.05-.92Zm1.88 2.08c-.02.56-.04 1-.49 1.45-.29.28-.66.24-1 .1-.17-.05-.3 0-.4.16a.29.29 0 0 0-.03.24c.2.69.64 1.24 1.3 1.65.08.04.15.05.23.02a.22.22 0 0 0 .11-.09c.03-.04.04-.1.03-.14a3.14 3.14 0 0 0-.16-.78c-.21-.6.09-1.21.73-1.28.24-.03.45.03.66.1.34.09.67.18 1.08-.15 1.31-1.05-.38-3.1-1.59-2.3a.97.97 0 0 0-.46.8v.22Z" fill="url(#cbgfcmxhk)"/><path d="M33.15 30.88c-.9-.25-1.72.51-1.98 1.36-.09.26-.21.5-.37.71-.74.98-1.68 1.3-2.82.95a1.5 1.5 0 0 0-1.4.21c-.6.47-.73 1.44-.15 1.95.45.4.97.43 1.56.1.38-.2.56-.52.74-.85.09-.17.18-.33.29-.48.53-.73 1.69-1.33 2.6-1 .66.23 1.25.07 1.77-.48.62-.66.93-2.15-.24-2.47Zm1.43 3.78c1.1.33 2.09-1.24 2.1-2.2 0-.7-.6-.91-1.13-.59-.5.31-.81.76-1.06 1.3-.34.75-.9 1.3-1.66 1.65-.52.23-.94.2-1.45.04-.91-.3-1.85.55-2.1 1.36-.13.4.06.83.48.9.73.14 1.5-.34 1.93-.92.57-.77 1.87-1.85 2.89-1.54Zm-.35 1.64c-.38.68-1.57 1.7-2.47 1.42-.7-.21-1.9.37-2.45.73-.6.38-1.35.76-2.04.62a.21.21 0 0 1-.1-.05.22.22 0 0 1-.08-.2c.01-.04.02-.08.05-.1.58-.8 1.27-1.1 2.08-.9.9.21 2.13-.34 2.74-1.02.52-.57 1.09-1.1 1.85-1.2.45-.06.63.32.42.7Zm-7.14 1.15c.14.4-.16.89-.67 1.09-.52.2-1.05.04-1.2-.37-.14-.4.16-.88.67-1.08.52-.2 1.05-.04 1.2.36Z" fill="url(#dbgfcmxhk)"/><path d="M22.4 12A16.88 16.88 0 0 0 11 27.93c0 7.53 4.97 13.9 11.83 16.07l.46-.9A15.9 15.9 0 0 1 12 27.93c0-6.98 4.54-12.91 10.86-15.04L22.4 12Zm10.74.9.46-.9A16.88 16.88 0 0 1 45 27.93c0 7.53-4.97 13.9-11.83 16.07l-.46-.9A15.9 15.9 0 0 0 44 27.93c0-6.98-4.54-12.91-10.86-15.04Z" fill="url(#ebgfcmxhk)"/><path d="M35.67 39.71a13.93 13.93 0 0 1-15 .21l-.64.8A14.93 14.93 0 0 0 28 43c3.07 0 5.92-.92 8.3-2.5l-.63-.79Zm.13-23.34a13.94 13.94 0 0 0-15.26-.22l-.58-.81A14.93 14.93 0 0 1 28 13c3.1 0 6 .94 8.39 2.56l-.59.81Z" fill="url(#fbgfcmxhk)"/><path d="M17.84 16.96a14.96 14.96 0 0 0 .25 22.3l.5-.9a13.96 13.96 0 0 1-.15-20.59l-.6-.8Zm19.57.68.5-.9a14.96 14.96 0 0 1 .25 22.3l-.6-.81a13.96 13.96 0 0 0-.15-20.59Z" fill="url(#gbgfcmxhk)"/><path d="M25.16 15A13.24 13.24 0 0 0 15 27.98c0 6.4 4.42 11.75 10.3 13.02l.53-.94A12.21 12.21 0 0 1 16 27.98c0-5.94 4.13-10.9 9.62-12.03l-.46-.95Zm5.22.95.46-.95A13.24 13.24 0 0 1 41 27.98c0 6.4-4.42 11.75-10.3 13.02l-.53-.94A12.21 12.21 0 0 0 40 27.98c0-5.94-4.13-10.9-9.62-12.03Z" fill="url(#hbgfcmxhk)"/><defs><linearGradient id="abgfcmxhk" x1="28.5" y1="18.5" x2="19" y2="25.5" gradientUnits="userSpaceOnUse"><stop stop-color="#26B7DE"/><stop offset="1" stop-color="#164B6E"/></linearGradient><linearGradient id="bbgfcmxhk" x1="37" y1="21" x2="29.5" y2="28" gradientUnits="userSpaceOnUse"><stop stop-color="#EF3D2C"/><stop offset="1" stop-color="#A41D43"/></linearGradient><linearGradient id="cbgfcmxhk" x1="25.5" y1="30" x2="20" y2="34.5" gradientUnits="userSpaceOnUse"><stop stop-color="#5AB547"/><stop offset="1" stop-color="#3F8044"/></linearGradient><linearGradient id="dbgfcmxhk" x1="35.5" y1="32" x2="25.5" y2="37.5" gradientUnits="userSpaceOnUse"><stop stop-color="#F6BF14"/><stop offset="1" stop-color="#C18C2B"/></linearGradient><linearGradient id="ebgfcmxhk" x1="28" y1="12" x2="28" y2="44" gradientUnits="userSpaceOnUse"><stop stop-color="#A41D43"/><stop offset=".46" stop-color="#F03E2C"/><stop offset="1" stop-color="#A61E44"/></linearGradient><linearGradient id="fbgfcmxhk" x1="20.5" y1="17" x2="36" y2="17" gradientUnits="userSpaceOnUse"><stop stop-color="#185375"/><stop offset=".47" stop-color="#27BDE4"/><stop offset="1" stop-color="#185679"/></linearGradient><linearGradient id="gbgfcmxhk" x1="38" y1="18.5" x2="17.5" y2="38.5" gradientUnits="userSpaceOnUse"><stop stop-color="#C18C2B"/><stop offset=".48" stop-color="#F4BD15"/><stop offset="1" stop-color="#C18C2B"/></linearGradient><linearGradient id="hbgfcmxhk" x1="28" y1="15" x2="28" y2="41" gradientUnits="userSpaceOnUse"><stop stop-color="#3F8044"/><stop offset=".52" stop-color="#5CB947"/><stop offset="1" stop-color="#408144"/></linearGradient></defs></svg>