<svg width="56" height="56" xmlns="http://www.w3.org/2000/svg"><path d="M27 18.167V12l-1.126.142C18.04 13.128 12 19.863 12 28s6.039 14.873 13.874 15.858L27 44v-1.987c-.576-.042-1.055-.137-1.628-.252L25 41.687v.014C18.729 40.373 14 34.754 14 28c0-6.753 4.729-12.373 11-13.701v2.41c-2.344.962-4 3.234-4 5.897 0 2.663 1.656 4.935 4 5.896.782.241 1.222.352 2 .49v-1.947l-.73-.203c-1.895-.525-3.27-2.23-3.27-4.236s1.375-3.71 3.27-4.236l.73-.203zM29 37.833V44l1.126-.142C37.96 42.873 44 36.137 44 28s-6.039-14.873-13.874-15.858L29 12v1.987c.576.042 1.055.137 1.628.252l.372.074V14.3C37.271 15.627 42 21.247 42 28c0 6.754-4.729 12.373-11 13.701v-2.41c2.344-.961 4-3.234 4-5.897 0-2.663-1.656-4.935-4-5.896a14.31 14.31 0 00-2-.49v1.947l.73.203c1.895.525 3.27 2.23 3.27 4.236s-1.375 3.71-3.27 4.236l-.73.203z" fill="#fff"/></svg>