<svg width="112" height="112" viewBox="0 0 56 56" xmlns="http://www.w3.org/2000/svg"><path fill-rule="evenodd" d="M27 38v3.96a13.96 13.96 0 0 1-8.95-4.11c.33.1.66.15.95.15h8Zm2 0v3.96c3.42-.24 6.5-1.7 8.8-3.96H29Zm10.5-2H29v-4h8.92c.68.1 1.66.02 2.51-.56C41.4 30.8 42 29.66 42 28c0 2.97-.93 5.73-2.5 8ZM29 24h8.92c.68-.1 1.66-.02 2.51.56C41.4 25.2 42 26.34 42 28c0-2.97-.93-5.73-2.5-8H29v4Zm-2 0v-4h-7a2.3 2.3 0 0 0-1.39.4c-.3.22-.61.66-.61 1.6 0 .94.31 1.38.61 1.6.35.27.85.4 1.39.4h7Zm2-6h8.8a13.95 13.95 0 0 0-8.8-3.96V18Zm-2 0h-7c-.75 0-1.68.16-2.47.7 2.36-2.65 5.7-4.4 9.47-4.66V18Zm-10.73 2.36A4.76 4.76 0 0 0 16 22c0 1.46.52 2.52 1.39 3.2.82.63 1.82.8 2.61.8h7v4h-8a4.28 4.28 0 0 0-3.94 3.34 13.96 13.96 0 0 1 1.2-12.98ZM29 30v-4h9.08l.08-.01c.33-.06.8-.01 1.16.23.3.2.68.64.68 1.78 0 1.14-.39 1.58-.68 1.78-.36.24-.83.29-1.16.23l-.08-.01H29Zm-2 2h-8c-.24 0-.77.15-1.25.53-.45.36-.75.84-.75 1.47s.3 1.11.75 1.47c.48.38 1.01.53 1.25.53h8v-4Zm1 12a16 16 0 1 0 0-32 16 16 0 0 0 0 32Z" fill="#fff"/><defs><linearGradient id="avki3e1aj" x1="10.42" y1="9.71" x2="68.15" y2="76.02" gradientUnits="userSpaceOnUse"><stop stop-color="#1A1E21"/><stop offset="1" stop-color="#06060A"/></linearGradient></defs></svg>