<svg width="112" height="112" viewBox="0 0 56 56" xmlns="http://www.w3.org/2000/svg"><rect fill="url(#aqzghc0rh)" width="56" height="56" rx="28"/><path d="M31 25h13v8h-1v1h-1v1h-1v1h-7v-1h-2v-1h-1v-6h-1v-1h-1v1h-2v5h-1v2h-1v1h-8v-1h-1v-2h-1v-6h-2v-2h14v1h4v-1Z"/><path fill="#07000A" d="M8 21h2v1H8zM38 21h2v1h-2z"/><path d="M37 22h-1v-2h2v1h-1v1Z"/><path fill="#07000A" d="M10 22h1v1h-1zM11 23h1v1h-1zM40 22h1v1h-1zM41 23h1v1h-1zM42 24h1v1h-1zM12 24h1v1h-1z"/><path d="M23 32a3.39 3.39 0 0 0-2-2c.8.8 1 3 1 4h1v-2Z" fill="#F405ED"/><path d="M23 28.5c0-1.5-1-1.5-1.5-1.5-.4 0-.83.33-1 .5-.17-.17-.7-.5-1.5-.5s-1.33 1-1.5 1.5c.4-.4 1.17-.17 1.5 0-.8.4-.67 1.5-.5 2 0-.4.67-.83 1-1 0 .8 1 1.67 1.5 2V30c.8-.4 1.33-.17 1.5 0 0-1.2-.67-1.83-1-2 .8 0 1.33.33 1.5.5Z" fill="#04FD0B"/><path d="M39.5 32a3.39 3.39 0 0 0-2-2c.8.8 1 3 1 4h1v-2Z" fill="#F405ED"/><path d="M39.5 28.5c0-1.5-1-1.5-1.5-1.5-.4 0-.83.33-1 .5-.17-.17-.7-.5-1.5-.5s-1.33 1-1.5 1.5c.4-.4 1.17-.17 1.5 0-.8.4-.67 1.5-.5 2 0-.4.67-.83 1-1 0 .8 1 1.67 1.5 2V30c.8-.4 1.33-.17 1.5 0 0-1.2-.67-1.83-1-2 .8 0 1.33.33 1.5.5Z" fill="#04FD0B"/><defs><linearGradient id="aqzghc0rh" x1="13" y1="6.5" x2="41" y2="45" gradientUnits="userSpaceOnUse"><stop stop-color="#CF2FFF"/><stop offset="1" stop-color="#32CCFE"/></linearGradient></defs></svg>