<!-- by TradingView --><svg width="56" height="56" viewBox="0 0 56 56" xmlns="http://www.w3.org/2000/svg"><path fill="url(#a)" d="M0 0h56v56H0z"/><path d="M24.5 39c.28 0 .5.24.5.54v2.92c0 .3-.22.54-.5.54h-4c-.28 0-.5-.24-.5-.54v-2.92c0-.3.22-.54.5-.54h4Zm5.5 0c.28 0 .5.24.5.54v2.92c0 .3-.22.54-.5.54h-4c-.28 0-.5-.24-.5-.54v-2.92c0-.3.22-.54.5-.54h4Zm5.5 0c.28 0 .5.24.5.54v2.92c0 .3-.22.54-.5.54h-4c-.28 0-.5-.24-.5-.54v-2.92c0-.3.22-.54.5-.54h4Zm-17-4c.28 0 .5.24.5.54v2.92c0 .3-.22.54-.5.54h-4c-.28 0-.5-.24-.5-.54v-2.92c0-.3.22-.54.5-.54h4Zm23 0c.28 0 .5.24.5.54v2.92c0 .3-.22.54-.5.54h-4c-.28 0-.5-.24-.5-.54v-2.92c0-.3.22-.54.5-.54h4Zm0-5c.28 0 .5.24.5.53v2.93c0 .3-.22.54-.5.54h-4c-.28 0-.5-.24-.5-.54v-2.93c0-.3.22-.53.5-.53h4Zm-17-4c.28 0 .5.24.5.54v2.92c0 .3-.22.54-.5.54h-4c-.28 0-.5-.24-.5-.54v-2.92c0-.3.22-.54.5-.54h4Zm5.5 0c.28 0 .5.24.5.54v2.92c0 .3-.22.54-.5.54h-4c-.28 0-.5-.24-.5-.54v-2.92c0-.3.22-.54.5-.54h4Zm5.5 0c.28 0 .5.24.5.54v2.92c0 .3-.22.54-.5.54h-4c-.28 0-.5-.24-.5-.54v-2.92c0-.3.22-.54.5-.54h4Zm-17-4c.28 0 .5.24.5.54v2.92c0 .3-.22.54-.5.54h-4c-.28 0-.5-.24-.5-.54v-2.92c0-.3.22-.54.5-.54h4Zm0-5c.28 0 .5.24.5.54v2.92c0 .3-.22.54-.5.54h-4c-.28 0-.5-.24-.5-.54v-2.92c0-.3.22-.54.5-.54h4Zm23 0c.28 0 .5.24.5.54v2.92c0 .3-.22.54-.5.54h-4c-.28 0-.5-.24-.5-.54v-2.92c0-.3.22-.54.5-.54h4Zm-17-4c.28 0 .5.24.5.54v2.92c0 .3-.22.54-.5.54h-4c-.28 0-.5-.24-.5-.54v-2.92c0-.3.22-.54.5-.54h4Zm5.6 0c.27 0 .5.24.5.54v2.92c0 .3-.23.54-.5.54H26c-.27 0-.5-.24-.5-.54v-2.92c0-.3.23-.54.5-.54h4.1Zm5.4 0c.28 0 .5.24.5.54v2.92c0 .3-.22.54-.5.54h-4c-.28 0-.5-.24-.5-.54v-2.92c0-.3.22-.54.5-.54h4Z" fill="#77FF42"/><defs><linearGradient id="a" x1="10.42" y1="9.71" x2="68.15" y2="76.02" gradientUnits="userSpaceOnUse"><stop stop-color="#1A1E21"/><stop offset="1" stop-color="#06060A"/></linearGradient></defs></svg>