<!-- by TradingView --><svg width="56" height="56" xmlns="http://www.w3.org/2000/svg"><path fill="#04ADEE" d="M0 0h56v56H0z"/><path fill-rule="evenodd" d="M31 18.83a3.001 3.001 0 10-2 0v9.898c0 1.17.44 2.719 2.078 3.875 1.384.979 4.285 2.923 6.19 4.154a3 3 0 101.27-1.378l-5.402-3.643c-.654-.41-2.136-1.617-2.136-3.269v-9.638zM31 16a1 1 0 11-2 0 1 1 0 012 0zM17.313 35.302l6.07-3.688c.658-.476 1.702-1.953 1.617-4.048v-3.708c0-.27.302-.858 1-.858.65 0 .985.542 1 .858v5.349c-.041.745-.526 2.507-2.134 3.59a230.275 230.275 0 01-6.14 3.95 3 3 0 11-1.414-1.446zm13.307-1.35c-.813-.74-1.952-.943-2.42-.952-1.24 0-2.307.634-2.687.951l-3.146 2.35c-.327.282-.521.87-.207 1.371.314.502.966.308 1.2.196l2.976-2.232c1.259-.605 2.81-.252 3.424 0l2.796 2.036c.365.312.866.412 1.238 0s.192-1.129-.15-1.37c-.669-.476-2.211-1.612-3.024-2.35zM40 39a1 1 0 100-2 1 1 0 000 2zm-23-1a1 1 0 11-2 0 1 1 0 012 0z" fill="#fff"/></svg>