<svg width="56" height="56" viewBox="0 0 56 56" xmlns="http://www.w3.org/2000/svg"><path fill-rule="evenodd" d="M28 43c8.22 0 15-6.78 15-15 0-8.22-6.78-15-15-15-8.22 0-15 6.78-15 15 0 8.22 6.78 15 15 15Zm0 2a17 17 0 1 0 0-34 17 17 0 0 0 0 34Z" fill="#F0F3FA"/><path d="M38.5 28.75a10.62 10.62 0 0 0-15.58-11.02c3.27.06 6.22 1.6 8.14 4.02a8.54 8.54 0 0 0-1.82-.24 8.49 8.49 0 0 0-12.46 1.62 8.5 8.5 0 0 1 5.74.1c-1.8.94-3.28 2.1-4.08 3.18.27-.28 2.32-1.73 5-2.76a8.5 8.5 0 0 1 3.03 12.4 8.5 8.5 0 0 0 4.03-13.22 7.63 7.63 0 0 1 1.64.57 10.63 10.63 0 0 1-4.31 14.29h.64c4.38-.2 8.03-3.02 9.48-6.89.4 1.88.35 3.72.14 5.17.95-2.93.94-5.3.4-7.22Z" fill="#F0F3FA"/></svg>