<svg width="112" height="112" viewBox="0 0 56 56" xmlns="http://www.w3.org/2000/svg"><path d="M27.15 14.9c-.01.12-.05.2-.13.28-.05.05-.08.04-.1-.02a.76.76 0 0 0-.59-.46c-.04-.01-.05-.04-.04-.08 0-.03.03-.05.06-.05.35-.01.55-.19.62-.52 0-.04.03-.06.08-.06.03 0 .06.02.06.06.02.27.2.47.52.58l.01.02a.03.03 0 0 1-.02.03l-.4.14c-.05.01-.07.04-.07.09Z" fill="#FBE6E2"/><path d="M29.79 15.14c.05.02.05.05 0 .08a.67.67 0 0 0-.26.38c-.08.19-.15.25-.22.18-.1-.03-.22-.01-.37.05a.23.23 0 0 1-.16 0c-.12-.03-.18 0-.2.13-.01.07-.05.1-.12.12l-.51.06c-.17.01-.23.1-.18.26l-.4.2c-.1.06-.1.1.02.12.12.01.23-.01.34-.08.04-.03.1-.04.15-.04l1.94.1.13.02c-.03.09-.09.14-.2.16-.39.06-.74-.07-1.08-.06h-.5c-.4-.02-.78.1-1.2.1a.25.25 0 0 1-.14-.04l-.8-.54c0-.21 2.58-1.63 3.76-1.2Z" fill="#331F8E"/><path d="M29.53 15.6c.04.1.07.16.1.16.17.04.18.1.04.2-.14.1-.29.19-.46.26-.03.01-.04.04-.04.07v.08c0 .04.01.06.05.06l.6.02c.01 0 .03 0 .04.02.14.12.13.2-.04.23l-1.94-.1c-.06 0-.1.01-.15.04-.1.07-.22.1-.34.08-.11-.02-.12-.06-.02-.11l.4-.21c.31-.18.55.12.83-.2a.23.23 0 0 1 .11-.07l.3-.07a.14.14 0 0 0 .1-.1c.04-.08.1-.14.2-.18.07.07.15 0 .22-.17Z" fill="#F16893"/><path d="M29.31 15.78c-.1.04-.16.1-.2.18a.14.14 0 0 1-.1.1l-.3.07a.23.23 0 0 0-.11.07c-.28.32-.52.02-.83.2-.05-.16 0-.25.18-.26l.52-.06c.06-.01.1-.05.11-.12.02-.12.09-.16.2-.13.06.02.1.02.16 0 .16-.06.28-.08.37-.05Z" fill="#67168D"/><path fill-rule="evenodd" d="m38.94 22.1.04.98.05-3.22a.91.91 0 0 0-.08-.3.26.26 0 0 1 0-.15c.03-.13-.01-.22-.12-.28-2.03-1.17-5.26-3-9.7-5.48-.3-.18-.6-.37-.86-.57a.38.38 0 0 0-.46 0c-.18.13-.37.26-.58.37a1355.61 1355.61 0 0 1-9.76 5.56c-.36.2-.39.46-.4.84 0 1.55 0 3.09.03 4.63h.12l.03-5a.17.17 0 0 1 .08-.14.16.16 0 0 1 .16 0l10.6 6.21c.06.03.1.02.14-.02.18-.23.4-.43.67-.58 3.23-1.89 6.44-3.74 9.61-5.55a.3.3 0 0 1 .3 0 .3.3 0 0 1 .15.27l-.02 2.42Zm-9.1-5.49.22-2.22-1.95-1.13a.15.15 0 0 0-.15 0l-10.23 5.88c-.05.02-.05.05 0 .08l3.5 2.12c.08 0 .1-.04.07-.13a.24.24 0 0 0-.08-.1 2.5 2.5 0 0 1-.44-.44.16.16 0 0 1 .03-.22.15.15 0 0 1 .07-.03c.37-.03.65-.32.8-.63.08-.18.2-.33.36-.46a.4.4 0 0 0 .12-.16.45.45 0 0 1 .36-.3c.05 0 .1-.03.14-.07.25-.27.5-.5.77-.72.1-.08.22-.1.35-.03.07.03.15.03.23 0a.33.33 0 0 0 .18-.15c.44-.83.46.06.51.18l.06.04c.05.02.08 0 .1-.06l.02-.25v-.28c0-.46 0-.91.13-1.37.06-.22.19-.28.38-.17l.64.35c1.35.78 3.54.48 3.8.27Zm-3 7.95c0-.05 0-.1.03-.12.02-.03.06-.04.1-.02.13.05.93-.57 1.05-.5 1.28.77 3.38-.94 4.5-1.54.16-.07.3-.17.4-.31.15-.19.27-.3.35-.35.2-.12.41-.2.64-.25.2-.05.35-.11.44-.2.12-.12.21-.27.27-.45l.07-.02.52-.32c.04 0 .07-.02.1-.03 2.76-1.73-.08-2.88-2.1-4.07a.91.91 0 0 0-.32-.17.25.25 0 0 0-.15.01c-.1.03-.25.05-.44.06-.32 0-.44.17-.36.5l.01.84.02.17c0 .05.02.1.07.13.1.05.17.13.22.23a.26.26 0 0 0-.01.14c0 .06.04.09.1.08.26-.02.5.06.73.23a.78.78 0 0 0-.31.14.21.21 0 0 0-.09.12l-.14.62a.28.28 0 0 0-.12.05c.06-.38 0-.7-.2-.96a.26.26 0 0 1-.05-.15c0-.23-.1-.41-.27-.54a.17.17 0 0 1-.07-.13 8.25 8.25 0 0 1 0-1.69c0-.1 0-.2-.05-.3-.09-.2-.22-.25-.4-.15l-.15.08c-1.05.6-1.4.92-1.4.92l.23-2.22 8.38 4.73.02.03a.08.08 0 0 1-.03.1c-.84.45-1.66.9-2.45 1.36a236.25 236.25 0 0 1-4.92 2.85c-.25.16-.51.32-.78.46-.75.4-1.47.83-2.17 1.3a.17.17 0 0 1-.18 0l-1.08-.66Zm4.52-3.95c.35-.26.62-.52.79-.79.11-.39.15-.66.1-.83-.1-.33-.28-.72-.55-1.17a.32.32 0 0 1-.05-.17v-1.77c0-.1-.1-.16-.18-.11-.4.23-1.3.57-1.5 1.05-.07.19-.2.27-.4.25-1.02-.12-1.76.04-2.69.05-.19 0-.4-.3-.56-.4-.34-.18-.63-.35-.87-.51-.17-.1-.38.03-.38.22l.02 1.79v.09c-.04.06 0 .1.11.11.12.25.15.5.1.78l-.22 1.18-.65.43a.1.1 0 0 0-.03.05.1.1 0 0 0 0 .06l.01.06c.01.04.04.05.07.03l.53-.22a.1.1 0 0 1 .06 0 .1.1 0 0 1 .05.03c.03.03.03.06.02.1-.02.05-.06.07-.12.07-.16-.02-.27.04-.33.16a.12.12 0 0 0 .03.13l.05.04a.1.1 0 0 0 .07-.01c.1-.04.24-.02.42.05.02.09.01.16 0 .22a.18.18 0 0 0 .04.18.17.17 0 0 0 .18.04c.26-.1.53-.1.82-.02.03.01.05 0 .06-.03.01-.02 0-.05-.01-.1-.06-.02-.08-.07-.08-.16a.1.1 0 0 1 .04-.07.09.09 0 0 1 .07-.02c.07.02.11.07.14.17.08.07.16.1.27.09.05 0 .1-.03.13-.07.12-.13.23-.25.36-.35.01-.02.03-.02.04 0v.03a.4.4 0 0 0-.1.12c-.03.07-.01.1.07.1.1 0 .2-.05.28-.12l.38-.04a.73.73 0 0 1 .26 0c.07 0 .12-.03.14-.1.03-.14.12-.25.27-.32.03-.02.05-.01.05.03.02.2.17.26.44.19.04 0 .06-.03.06-.07 0-.03-.02-.06-.05-.1a.22.22 0 0 1-.04-.19c0-.02.02-.04.04-.05a.09.09 0 0 1 .07-.01c.04.01.06.04.07.1a.46.46 0 0 0 .33-.3c-.02-.05-.02-.08 0-.1a.15.15 0 0 1 .2-.04c.03 0 .03.04 0 .1 0 .09.02.14.07.16.24.07.5.07.79 0a.2.2 0 0 1 .14.01c.18.1.39.1.57-.03Z" fill="#FCF6E8"/><path d="M33.2 16.38c-.25.29-.67.42-1.26.4-.08-.33.04-.5.36-.5.2 0 .34-.03.44-.06.04-.02.1-.02.14 0 .11.02.22.08.33.16Z" fill="#67168D"/><path d="m33.2 16.38 2.4 1.4c-.04.22-.1.43-.2.65-.06.16-.05.32-.05.5a.12.12 0 0 0 .04.1.11.11 0 0 0 .1.02l.43-.1c.08-.02.1 0 .06.08-.1.2-.23.38-.38.56a.9.9 0 0 1-.45.3c-.39.11-.75.28-1.1.5-.22.14-.48.2-.8.17-.06 0-.11 0-.16.04a.53.53 0 0 1-.2.08.32.32 0 0 1-.16 0 .84.84 0 0 0-.37-.05.25.25 0 0 1-.27-.14c-.03-.05-.01-.1.05-.11.2-.07.2-.34.5-.4 0 .05 0 .1.03.13.03.04.07.05.12.03l1.1-.61c.05-.03.1-.04.15-.03.14.02.28 0 .4-.08a.1.1 0 0 0 .04-.04.1.1 0 0 0 .01-.05c0-.13-.11-.18-.35-.13.01-.07.04-.13.08-.17.1-.1.15-.2.15-.34 0-.06-.03-.1-.09-.1-.09 0-.14-.05-.14-.14 0-.06.02-.1.07-.12a.33.33 0 0 0 .1-.08.1.1 0 0 0 .02-.11.1.1 0 0 0-.03-.05.1.1 0 0 0-.06-.02 1.2 1.2 0 0 1-.5-.15.3.3 0 0 0-.17-.04c-.32.02-.63-.1-.93-.37a.14.14 0 0 1-.05-.1.38.38 0 0 0-.04-.2c-.04-.05-.07-.05-.1 0-.07.13-.06.25.05.37l.02.02a.06.06 0 0 1-.02.06l-.03.02a1 1 0 0 1-.52-.06v-.84c.58.02 1-.11 1.26-.4Z" fill="#F47479"/><path d="m23.05 17.53-.1.14c-.05.06-.09.06-.13 0a.49.49 0 0 0-.27-.25c-.08-.02-.08-.05 0-.08a.55.55 0 0 0 .31-.3c.04-.1.08-.1.11 0 .04.13.11.23.23.28.07.04.08.08.02.14a.1.1 0 0 1-.06.02.14.14 0 0 0-.11.05Z" fill="#FCF6E8"/><path d="m24.7 18.08-.13.07c-.33.13-.64.3-.94.49a.13.13 0 0 0-.05.07v.1l.06.02c.04.01.06.03.08.06.03.05.02.09-.03.12a5.3 5.3 0 0 0-.89.8c-.07.08-.16.28-.27.58a1.3 1.3 0 0 1-.56.43c-.2.07-.33.21-.42.42-.01.05 0 .1.04.12.2.1.37.2.55.27.18.07.35.16.5.28.28.22.57.37.86.45.08.02.14.06.2.12.1.13.24.21.4.26.06.01.1 0 .14-.06l.37-.57a.2.2 0 0 0-.03-.25.15.15 0 0 1-.05-.16c.02-.07.06-.09.12-.06l.04.01c.05.02.1 0 .13-.03.11-.1.26-.2.44-.26.02.09.01.16 0 .22a.18.18 0 0 0 0 .1c.14.59 6.84-1.38 7.41-2.1l.13-.15a.23.23 0 0 1 .14-.09c.16-.02.3-.08.44-.17.04-.03.09-.03.13.01.03.03.04.07.02.12l-.9.67c-.3.07-.29.34-.5.4-.05.03-.07.07-.04.12.06.1.15.15.27.14.13-.01.25 0 .37.04.05.02.1.02.16.01a.53.53 0 0 0 .2-.08c.05-.03.1-.05.16-.04.32.03.58-.03.8-.17.35-.22.71-.39 1.1-.5a.9.9 0 0 0 .45-.3c.15-.18.28-.37.38-.56.04-.07.02-.1-.06-.08l-.43.1a.11.11 0 0 1-.1-.03.12.12 0 0 1-.04-.1c0-.17-.01-.33.06-.5.09-.2.16-.42.2-.63.35.06.54.28.55.64 0 .07.03.13.08.17l.25.2a.44.44 0 0 1 .16.34.46.46 0 0 1-.14.35l-.5.45c-.05-.1-.12-.14-.2-.13-.16.01-.17.07-.02.18.04.03.09.05.15.06l-.64.4c.05-.04.07-.1.06-.14-.01-.08-.05-.1-.12-.08a.2.2 0 0 0-.1.08.14.14 0 0 0-.03.08c0 .03 0 .05.03.07 0 .01.03.02.07.02l-.52.32c0-.13-.08-.2-.24-.18-.11-.1-.3-.05-.56.16-.05-.1-.16-.04-.35.19l-.92.07c-.03 0-.06-.02-.06-.06v-.06c0-.05-.01-.08-.06-.1-.07-.03-.12 0-.16.07a.07.07 0 0 0 0 .06.07.07 0 0 0 .05.04c.04 0 .07 0 .1.02.09.04.09.08.01.13-.13.09-.28.14-.44.15a.12.12 0 0 1-.1-.04.13.13 0 0 1-.03-.12.1.1 0 0 0 0-.04.1.1 0 0 0-.04-.06.09.09 0 0 0-.07-.02c-.07.01-.1.06-.1.13 0 .04-.01.05-.05.05a.22.22 0 0 1-.2-.11.14.14 0 0 0-.12-.07c-.27-.02-.5.03-.7.14a.2.2 0 0 1-.15.03 1.2 1.2 0 0 0-.73.04.33.33 0 0 0-.22.18.37.37 0 0 0-.2 0 .1.1 0 0 0-.06.03c-.12.16.48 0 .3.3a.1.1 0 0 1-.03.13c-.1.11-.22.26-.34.44-.1.17-.28.34-.51.5l-.55.01c-.06 0-.1.02-.14.05-.37.27-.46-.12-.73-.2-.04-.02-.06-.05-.06-.1v-.05c.02-.05.06-.08.11-.07.03 0 .06.02.08.03.05.03.1.03.15 0 .1-.09.15-.24.05-.32a.7.7 0 0 0-.42-.16c-.25-.02-.32.19-.58.18-.26-.01-.41.22-.65.3-.33.1-.64.27-.93.47-.02.01-.03.03-.02.06.01.02.02.03.04.01.05-.05.08-.04.08.04l-.01.13c-.06-.03-.1-.01-.11.05a.1.1 0 0 0 0 .07c0 .02.02.04.04.05l1.91 1.07c-.04-.02-.08-.01-.1.01-.03.03-.04.08-.02.13-.52-.24-.99-.58-1.5-.8-.27-.1-.45-.28-.7-.42-1.15-.66-2.29-1.32-3.42-2 .09 0 .1-.04.07-.13a.24.24 0 0 0-.08-.1 2.5 2.5 0 0 1-.44-.44c-.08-.1-.02-.24.1-.25.57-.84.67-1.08 1.26-1.23.12-.29 1.06-.93 1.29-1.1.1-.09.22-.1.35-.04.07.03.15.03.23 0a.33.33 0 0 0 .18-.15c.44-.83.46.06.51.18Z" fill="#331F8E"/><path d="M24.88 17.8c-.03.53.04.67.21.42v.09c-.12.27-.14.56-.07.86.02.06.01.11-.01.17-.1.21-.18.43-.25.67-.07.2-.27.32-.46.38-.2.06-.4.2-.56.36a.12.12 0 0 1-.14.03c-.31-.12-.41-.34-.31-.65.02-.05 0-.1-.04-.14-.07-.04-.13-.04-.18.03l-.3.4a.17.17 0 0 1-.22.06c-.05-.03-.06-.06-.02-.09.11-.3.2-.5.27-.58.17-.21.47-.48.9-.8.04-.03.05-.07.02-.12-.02-.03-.04-.05-.08-.06.3-.07.6-.18.9-.31a.24.24 0 0 0 .12-.11c.03-.05.03-.1.03-.16-.01-.04-.05-.07-.12-.1l.13-.07.06.04c.05.02.08 0 .1-.06l.02-.25Z" fill="#EC968E"/><path d="M33.08 18.6a1.06 1.06 0 0 0-.73-.23c-.06 0-.1-.02-.1-.08-.01-.04 0-.09.01-.14.21-.09.47-.1.77 0 .05 0 .1.03.13.07.04.04.06.1.07.14.01.1-.04.17-.15.24Z" fill="#DB9DC1"/><path d="m20.33 18.6-.05.15c-.04.1-.08.11-.13 0a.29.29 0 0 0-.21-.18c-.16-.03-.17-.08-.02-.14a.4.4 0 0 0 .22-.2c.05-.1.1-.1.15 0 .04.1.12.17.23.2.09.03.1.08.03.15-.03.04-.06.04-.1 0a.07.07 0 0 0-.1 0 .08.08 0 0 0-.02.03Z" fill="#fff"/><path d="M24.57 18.15c.07.03.1.06.12.1 0 .06 0 .11-.03.16a.24.24 0 0 1-.11.1c-.3.14-.61.25-.91.32-.03 0-.05-.02-.05-.03a.13.13 0 0 1-.01-.09c0-.03.03-.05.05-.07.3-.2.6-.36.94-.49Z" fill="#F16893"/><path d="M25.08 18.3c-.03.07.01.1.12.12l-.06.76-.03.15c-.15.36-.16.72-.03 1.05l-.65.43a.1.1 0 0 0-.03.05.1.1 0 0 0 0 .06l.01.06c.01.04.04.05.07.03l.52-.22a.1.1 0 0 1 .07 0 .1.1 0 0 1 .05.03c.03.03.03.06.02.1-.02.05-.06.07-.12.07-.16-.02-.27.03-.33.16a.12.12 0 0 0 .03.13l.05.04a.1.1 0 0 0 .07-.01c.1-.04.24-.02.42.05-.18.07-.33.15-.44.26a.12.12 0 0 1-.13.03l-.04-.01c-.06-.03-.1 0-.12.06-.01.06 0 .11.05.16a.2.2 0 0 1 .03.25l-.37.57c-.03.05-.08.07-.14.06a.8.8 0 0 1-.41-.26.37.37 0 0 0-.19-.12c-.3-.08-.58-.23-.86-.44a2.04 2.04 0 0 0-.5-.3 4.33 4.33 0 0 1-.55-.26c-.04-.03-.06-.07-.04-.12a.68.68 0 0 1 .42-.42c.22-.07.41-.25.56-.43-.04.03-.03.06.01.08a.17.17 0 0 0 .22-.05l.3-.4c.06-.07.12-.07.19-.03.04.04.06.09.04.14-.1.31 0 .53.31.65.05.02.1.01.14-.03.15-.16.35-.3.56-.36.2-.06.39-.17.46-.38.07-.24.16-.46.25-.67a.26.26 0 0 0 .01-.17c-.07-.3-.05-.59.06-.86Z" fill="#1B6FCC"/><path d="M34.14 19.2c.23-.05.35 0 .35.13a.1.1 0 0 1-.01.05.1.1 0 0 1-.04.04.58.58 0 0 1-.4.08.22.22 0 0 0-.15.03l-1.1.6c-.05.03-.1.02-.13-.02-.02-.04-.03-.08-.02-.14l.9-.67c.1-.1.3-.13.6-.1Z" fill="#FBE6E2"/><path d="m19.68 20.12-.13-.2a.1.1 0 0 1 0-.1l.12-.23a.09.09 0 0 1 .06-.04.08.08 0 0 1 .07.02l.25.23a.1.1 0 0 1 .03.07.1.1 0 0 1-.03.07l-.24.2a.09.09 0 0 1-.07.02.09.09 0 0 1-.06-.04Z" fill="#FCF6E8"/><path d="M38.6 20.17c.06.1.1.18.1.23.02 1.95.02 5.78 0 11.52l-.02.12-.02.04a.07.07 0 0 1-.08.02.07.07 0 0 1-.03-.03c-.03-.04-.04-.1-.04-.16V20.45c0-.12.06-.16.07-.28h.01Z" fill="#fff"/><path d="M34.44 20.62c-.05-.01-.12.01-.19.07-.17.17-.3.2-.36.09.26-.21.44-.27.55-.16Z" fill="#F16893"/><path d="M34.44 20.62c0 .13.07.2.18.2-.06.18-.15.33-.27.45a.88.88 0 0 1-.44.2c-.23.05-.44.13-.64.25-.08.05-.2.16-.35.35-.1.14-.24.24-.4.31a.59.59 0 0 0-.42-.03c-.02.01-.05.01-.07 0a.12.12 0 0 1-.05-.03c-.07-.08-.07-.15 0-.22.19-.18.42-.29.71-.32a.2.2 0 0 0 .13-.07c.24-.28.53-.45.88-.53.02-.01.05-.02.06-.04a.13.13 0 0 0 .04-.07c.02-.15-.07-.19-.26-.1.19-.23.3-.3.35-.2.06.11.19.09.36-.08.07-.06.14-.08.2-.07Z" fill="#67168D"/><path d="m34.69 20.8-.07.02c-.11 0-.17-.07-.17-.2.16-.01.24.05.24.18Z" fill="#F7D5DD"/><path d="M33.54 20.97c.19-.09.28-.05.26.1l-.04.07a.12.12 0 0 1-.06.04 1.6 1.6 0 0 0-.88.53.2.2 0 0 1-.13.07c-.29.03-.52.14-.7.32-.08.07-.08.14-.01.22.01.01.03.03.05.03.02.01.05.01.07 0 .16-.04.3-.03.42.03-1.56.83-2.73 1.6-4.14 2.38-.56.31-.94-.15-1.4-.34l-1.92-1.07a.1.1 0 0 1-.04-.05.1.1 0 0 1 0-.07c.02-.06.05-.08.1-.05.44.18.85.14 1.25-.1.23-.15.4-.22.52-.22.21 0 .4.06.58.18-.32.1-.34.26-.04.5a.4.4 0 0 0 .1.06c.53.2 1.08.15 1.65-.17.28-.16.54-.07.82-.29.28-.2.58-.36.9-.45a.35.35 0 0 1 .22 0c.06.02.12.01.16-.03.07-.07.07-.14 0-.21a.33.33 0 0 1-.1-.19c0-.03 0-.07.02-.1a.15.15 0 0 1 .08-.07.79.79 0 0 0 .34-.2.1.1 0 0 0 .02-.04c.01-.03.01-.05 0-.07-.03-.03-.06-.04-.1-.01-.29.2-.6.28-.92.24a.53.53 0 0 0-.5.19.3.3 0 0 1-.18.1c-.05.01-.1.03-.13.06a.13.13 0 0 0-.06.1c-.04.89-1.47.63-1.99.6.2-.05.42-.08.63-.08.14 0 .25-.06.32-.19.23-.15.4-.32.51-.5.12-.17.23-.32.34-.43a.1.1 0 0 0 .03-.13c-.04-.08-.11-.13-.22-.13a.1.1 0 0 1-.04-.01.1.1 0 0 1-.04-.04c-.03-.04-.03-.08 0-.12a.1.1 0 0 1 .05-.04.37.37 0 0 1 .21.01c0 .05.02.08.05.1a.23.23 0 0 0 .28-.06.25.25 0 0 0 .05-.1s0-.03-.03-.06a.16.16 0 0 0-.13-.06c.22-.08.46-.1.72-.04a.2.2 0 0 0 .17-.03c.2-.11.42-.16.69-.14.05 0 .08.03.11.07.05.08.12.12.2.11.05 0 .06-.01.06-.05 0-.07.03-.12.1-.13a.09.09 0 0 1 .1.04v.04a.1.1 0 0 1 0 .04.13.13 0 0 0 .03.12.12.12 0 0 0 .1.04c.17-.01.32-.06.45-.15.08-.05.08-.09 0-.13a.28.28 0 0 0-.1-.02l-.04-.01-.02-.03a.07.07 0 0 1 0-.06c.04-.07.1-.1.16-.07.05.02.06.05.06.1v.06c0 .04.03.06.06.06l.92-.07Z" fill="#F3A281"/><path d="m37.73 21.32.07.24-.16.37c-.03.08-.06.08-.09 0a.62.62 0 0 0-.3-.33c-.2-.1-.19-.17.02-.2.14-.02.23-.1.27-.24.02-.07.06-.08.1-.02.04.04.07.1.1.18Z" fill="#FBE6E2"/><path d="M28.7 22.8a.34.34 0 0 1-.3.18c-.22 0-.43.03-.64.08a.8.8 0 0 1-.3-.02.9.9 0 0 0-.57-.18c-.12 0-.3.07-.52.21-.4.25-.81.29-1.24.11l.01-.13c0-.08-.03-.09-.08-.04-.02.02-.03.01-.04-.01 0-.03 0-.05.02-.06.29-.2.6-.36.93-.47.24-.08.4-.31.65-.3.25 0 .33-.2.57-.18a.7.7 0 0 1 .43.16c.05.04.06.09.05.15a.3.3 0 0 1-.1.16.12.12 0 0 1-.15.01.22.22 0 0 0-.08-.03c-.05 0-.09.02-.1.07l-.01.06c0 .04.02.07.06.08.27.1.35.48.72.21a.25.25 0 0 1 .14-.05l.56-.02Z" fill="#4994C3"/><path d="M35.9 22.5a.24.24 0 0 1-.12-.06.08.08 0 0 1 0-.1l.02-.02.13-.04a.2.2 0 0 0 .13-.12c.05-.1.1-.1.19 0 .03.04.08.09.13.12.15.08.15.15 0 .19a.13.13 0 0 0-.1.1.4.4 0 0 0-.01.12c0 .05-.02.1-.07.12a.1.1 0 0 1-.08 0 .12.12 0 0 1-.06-.04.33.33 0 0 1-.05-.16.12.12 0 0 0-.03-.07.11.11 0 0 0-.07-.04Z" fill="#B3EAF9"/><path d="m38.94 22.1.04.98v7.35l-.04-8.34Z" fill="#899CB1"/><path d="m21.24 23.09.35.87c0 .02.02.05.05.06l.07.04 1.04.11c.08-.01.14 0 .2.02.06.03.08.07.06.13a.1.1 0 0 1-.05.06.15.15 0 0 1-.08 0c-.24-.02-.46 0-.66.08-.24-.1-.44-.06-.61.13-.28.3-.39.66-.32 1.07a1.8 1.8 0 0 0-.08.6.1.1 0 0 1-.03.07h-.05a.1.1 0 0 1-.03-.07l-.11-.81c.13-.4-.18-.57-.34-.87a.22.22 0 0 0-.12-.1.66.66 0 0 0-.49-.01 2.22 2.22 0 0 0-.8-.11c-.03 0-.05-.02-.05-.06v-.05c.01-.05.04-.08.08-.08l.68-.06c.3 0 .59-.06.85-.18a.24.24 0 0 0 .11-.1c.13-.23.18-.5.16-.79-.02-.24 0-.48.05-.7.02-.05.03-.05.05 0 .08.24.1.48.07.75ZM37.18 23l-.06-.01c-.08-.03-.09-.07-.02-.12l.26-.2c.04-.03.08-.02.12.02.16.18.14.35-.07.51a.07.07 0 0 1-.1 0 .18.18 0 0 1-.03-.09.15.15 0 0 0-.1-.1Z" fill="#FBE6E2"/><path d="M34.86 23.35c.06 0 .13 0 .19.03.04 0 .07.04.07.08 0 .07-.03.1-.1.12-.2.04-.3.17-.28.4.01.06-.01.08-.06.09h-.04c-.03 0-.04 0-.05-.03-.02-.28-.14-.45-.36-.5-.06-.01-.08-.05-.07-.1a.1.1 0 0 1 .02-.05.09.09 0 0 1 .07-.03c.19 0 .3-.1.31-.3a.1.1 0 0 1 .04-.07.09.09 0 0 1 .06-.02h.05c.03.01.05.03.05.07v.2c0 .07.04.1.1.1Z" fill="#fff"/><path d="M21.07 23.04c.02.3-.03.56-.16.79a.24.24 0 0 1-.11.1c-.26.12-.54.18-.85.18.2-.1.35-.2.48-.32.07-.07.2-.3.35-.45l.29-.3ZM22.75 24.17l-1.04-.11a.15.15 0 0 1-.07-.04.16.16 0 0 1-.05-.06l-.35-.87c.27.24.5.47.72.7.1.12.23.2.36.25.14.05.29.1.43.13Z" fill="#F16893"/><path d="m36.52 24.16.16.46a.2.2 0 0 1 .01.1c-.05.47-.35.74-.9.81a.78.78 0 0 1-.28-.38.76.76 0 0 1 0-.46.8.8 0 0 1 .35-.44.83.83 0 0 1 .66-.09Z" fill="#F4BEAA"/><path d="M35.8 25.53c.54-.07.84-.34.9-.82a.2.2 0 0 0-.02-.09l-.16-.46a.82.82 0 0 1 .51.44.76.76 0 0 1-.11.82.83.83 0 0 1-1.12.12Z" fill="#331F8E"/><path d="M20.99 25.45c-.25-.39-.56-.7-.93-.95l-.02-.03a.67.67 0 0 1 .49 0c.05.03.09.06.11.11.17.3.48.46.35.87Z" fill="#F16893"/><path d="M22.22 24.46a.41.41 0 0 0-.19.25l-.06.1a.34.34 0 0 1-.1.1c-.2.11-.39.36-.58.75-.07-.41.04-.77.32-1.07.17-.19.37-.23.6-.13Z" fill="#F47479"/><path d="M18.36 26.1c-.26.01-.33.35-.22 1.01l-.04.97c-.05.38 0 .79.12 1.2a2.68 2.68 0 0 0 .05 1.35l.03.02a.07.07 0 0 0 .07 0c.3-.2.57-.4.89-.54.4-.18.8-.43 1.19-.75.26-.2.2-.56.14-.85a.2.2 0 0 0-.05-.1.18.18 0 0 0-.1-.05 1.16 1.16 0 0 1-.64-.38.34.34 0 0 0-.12-.09.3.3 0 0 0-.14-.02.25.25 0 0 0-.21.15s.02.07.08.18c-.33-.43-.32-.67.04-.71-.52.35 1.15.34 1.17.34.08.03.13.01.13-.05.03.09.07.12.12.1 0 .47.11.92.33 1.36-.87.53-1.75 1.05-2.63 1.55-.13.07-.24.17-.33.28a.66.66 0 0 0-.11.4l.01.76c-.27-.01-.4-.2-.4-.56 0-2.1.12-4.22.03-6.32.06-.04.1-.14.13-.28.1-.46-.1.43.46 1.02Z" fill="#234267"/><path d="M24.7 27.26c.02.03.01.05 0 .07-.03.03-.07.03-.13.01-.06-.23-.05-.47.02-.72.09-.33.06-.62.13-.94l.03-.06a.14.14 0 0 1 .12-.05c.03 0 .05.01.07.03.3.23.81.3.94-.17a.23.23 0 0 1 .05-.1.22.22 0 0 1 .2-.06c.04 0 .07.02.1.04a1 1 0 0 1 .35.62l.06.16.36.67c.02.04.01.07-.03.09l-.04.02c-.04.01-.07 0-.1-.04l-.47-.78a.13.13 0 0 1-.02-.07.8.8 0 0 0-.18-.49c-.02-.02-.04-.02-.06 0-.1.1-.15.2-.17.32a.1.1 0 0 1-.03.06.1.1 0 0 1-.06.03l-.62.08a.1.1 0 0 1-.04 0 .1.1 0 0 1-.04-.02l-.19-.16c-.1-.08-.15-.06-.12.08.06.32.04.58-.06.79-.09.2-.07.38-.06.59Z" fill="#D9D6CD"/><path d="M27.01 32.25c-.05.05-.07.05-.08 0a.9.9 0 0 1-.4-.74c0-.2.07-.41.18-.64.29-.6.6-1.85.23-2.49a.15.15 0 0 1-.01-.14.1.1 0 0 1 .1-.06c.06 0 .1-.03.1-.09.06-.3.08-.58.04-.85v-.32c.05-.36-.06-.68.01-1.03.02-.05.01-.1-.01-.15a.94.94 0 0 0-.25-.35c-.08-.06-.07-.07.02-.04l.3.12c.07.02.1.06.1.13.06.8.07 1.55.04 2.2-.02.38-.02.75-.01 1.11.01.49-.15.96-.26 1.43-.13.57-.5.86-.34 1.5.01.06.04.1.09.13.1.08.16.17.15.28Z" fill="#899CB1"/><path d="m19.57 25.68.04-.12c0-.02 0-.03.02-.04a.08.08 0 0 1 .1 0c.07.05.1.11.14.19 0 .02.02.04.04.06a.1.1 0 0 0 .07.01c.06 0 .1.02.12.07.03.07.01.12-.07.14-.13.03-.2.13-.23.28-.01.1-.06.11-.13.05a.27.27 0 0 1-.08-.17.15.15 0 0 0-.03-.07.14.14 0 0 0-.06-.04l-.22-.1c-.1-.03-.1-.08-.02-.13a.2.2 0 0 1 .15-.03c.03.01.07 0 .1-.02a.15.15 0 0 0 .06-.08Z" fill="#fff"/><path d="M29.47 26.19c-.16-.21-.3-.25-.4-.11 0-.17.03-.33.1-.48l.03-.04a.08.08 0 0 1 .13.04c.07.16.12.36.14.59Z" fill="#F47479"/><path d="M28.27 31.2a.76.76 0 0 0-.13.37c0 2.01.02 4.03.05 6.06 0 .05-.03.09-.08.1l-.08.02v-7.07l-.02-4.87c0-.08.04-.11.1-.1h.05c.09 0 .13.04.13.13l-.02 5.36Z" fill="#B1BBC5"/><path d="M29.47 26.19c.13.01.2.05.24.1.03.07.01.1-.06.12-.22.03-.32.18-.31.46a.1.1 0 0 1-.01.05c-.03.06-.06.08-.1.07-.02 0-.03-.03-.04-.06-.04-.35-.2-.52-.46-.53-.05 0-.06-.03-.05-.08a.1.1 0 0 1 .04-.06l.05-.01a.38.38 0 0 0 .3-.17c.1-.14.23-.1.4.1Z" fill="#FBE6E2"/><path d="M18.36 26.1c.22.03.38.14.47.32.03.05.06.09.1.11l.29.16c.05.03.08.07.1.12.1.27.14.5.13.68-.35.04-.37.28-.04.71.17.15.31.33.44.55a.16.16 0 0 1 0 .16l-.3.5c-.04.07-.1.09-.15.05-.3-.18-.69-.24-1.18-.17a2.8 2.8 0 0 1-.12-1.21c0 .16 0 .3.05.45.01.05.04.1.08.12.15.1.28.22.39.35.05.06.12.1.2.08a.08.08 0 0 0 .06-.04.09.09 0 0 0 .01-.07.86.86 0 0 0-.4-.5.21.21 0 0 1-.11-.14.23.23 0 0 1 .04-.18c.13-.17.2-.36.22-.57a.14.14 0 0 0-.03-.1.14.14 0 0 0-.1-.05.29.29 0 0 1-.24-.13c-.05-.07-.03-.13.05-.18l.2-.1c.08-.05.12-.11.11-.2 0-.08-.08-.15-.22-.2a.14.14 0 0 0-.16.05c-.07.1-.1.24-.11.44-.1-.66-.03-1 .22-1.02Z" fill="#F47479"/><path d="m18.1 28.08.04-.97c0-.2.04-.34.11-.44a.14.14 0 0 1 .16-.05c.14.05.22.12.22.2 0 .09-.03.15-.12.2l-.2.1c-.07.05-.09.1-.04.18.06.08.14.12.24.13a.13.13 0 0 1 .1.05.14.14 0 0 1 .03.1c-.02.21-.1.4-.22.57a.23.23 0 0 0 .06.33c.2.11.34.28.41.49a.09.09 0 0 1 0 .07.09.09 0 0 1-.07.04.22.22 0 0 1-.2-.08c-.11-.13-.24-.25-.39-.35a.21.21 0 0 1-.08-.12c-.04-.14-.06-.3-.05-.45Z" fill="#F4BEAA"/><path d="M23.58 28.86a.8.8 0 0 1-.13.5c-.11.18-.31.21-.34.45a.31.31 0 0 1-.19.27.1.1 0 0 0-.07.1c-.01.13.08.23.26.31.2.33-.05.43-.78.28l.01-.37c0-.07.02-.13.05-.19.08-.16.13-.32.16-.5.1-.62.89-1.28 1.39-1.56.2-.12.41-.12.64-.14.06 0 .09-.04.1-.1 0-.2-.03-.38-.11-.57.06.02.1.02.12 0a.07.07 0 0 0 .02-.08l.02.04c.02.02.05.02.07 0 .1-.05.2-.1.3-.11.15-.03.21-.14.18-.3a.1.1 0 0 1 .04-.1.1.1 0 0 1 .09-.02c.07.02.11.05.12.11.01.04.03.07.07.1l.57.3c.2.1.2.18-.03.23l-.4.1a.15.15 0 0 0-.11.08.91.91 0 0 0-.1.45.1.1 0 0 1-.04.1.1.1 0 0 1-.09 0c-.09-.02-.12-.07-.1-.14.03-.1 0-.18-.09-.23a.96.96 0 0 1-.24-.21c-.05-.07-.08-.05-.1.03-.02.32-.17.45-.48.5-.44.06-.71.28-.8.67Z" fill="#F7D5DD"/><path d="M20.87 27.88c-.05.02-.09-.01-.12-.1 0-.1-.05-.18-.16-.25-.07-.05-.07-.1.02-.12.1-.04.14-.12.14-.25a.08.08 0 0 1 .04-.07c.04-.02.07-.02.09 0l.03.04c.02.14.1.23.23.27.08.03.09.08.02.14a.07.07 0 0 1-.05.02.13.13 0 0 0-.1.07l-.14.25ZM34.02 27.5c.03 0 .05 0 .06.04.01.03 0 .05-.03.06-.11.05-.18.14-.2.27-.02.14-.07.15-.15.04a1.35 1.35 0 0 1-.12-.2.11.11 0 0 0-.1-.06c-.04 0-.07-.01-.07-.06-.01-.04 0-.07.03-.09.1-.06.19-.14.26-.24.04-.06.09-.06.13.01l.1.19.03.04h.06Z" fill="#fff"/><path d="M35.4 27.7c.06 0 .09.03.1.09.02.06 0 .1-.06.13a.35.35 0 0 0-.21.26c-.03.17-.07.17-.1 0-.04-.14-.13-.22-.27-.24-.04 0-.06-.03-.07-.07a.1.1 0 0 1 .01-.07.1.1 0 0 1 .05-.04.43.43 0 0 0 .27-.31c.03-.1.07-.11.11-.01l.08.17a.15.15 0 0 0 .1.08Z" fill="#FCF6E8"/><path d="M18.22 29.29c.5-.07.88-.01 1.18.17.06.04.1.02.15-.04l.3-.5a.16.16 0 0 0 0-.17c-.13-.22-.27-.4-.44-.55a.94.94 0 0 1-.08-.18.25.25 0 0 1 .21-.15c.05 0 .1 0 .14.02.05.02.1.05.13.09.18.2.4.33.64.38.03 0 .06.02.1.05a.2.2 0 0 1 .05.1c.06.29.11.65-.15.85-.4.32-.8.57-1.19.75-.32.14-.6.34-.89.53a.07.07 0 0 1-.07 0 .08.08 0 0 1-.05-.05 2.68 2.68 0 0 1-.03-1.3Z" fill="#1B6FCC"/><path d="M23.6 27.84h.15c.01.05.01.1 0 .14a.26.26 0 0 1-.07.12l-.77.74c-.1.1-.19.25-.26.45-.08.2-.16.36-.24.5-.3.18-.49.6-.58 1.29-.14-.04-.23.03-.26.22-.03.23-.04.5-.04.8.01.22.08.42.2.6.19.25.38.47.59.65.2.18.43.31.7.4.65.28 1.2.17 1.85.1.2-.02.37-.08.48-.19l.38-.35a.24.24 0 0 1 .14-.07.98.98 0 0 0 .64-.34l.42-.65c0 .05.03.05.08 0l.09.54c.06.28.07.46.03.56-.54.18-1.05.4-1.54.63-.53.25-.97.42-1.33.52-.46.12-.93.24-1.4.34l-3.59-2.01c.63-.4 1.28-.65 1.85-1.1.14-.12.13-.15-.04-.09-.69.25-1.37.6-2.04 1.07l-.9-.48c-.01-.25-.02-.5-.01-.76 0-.16.04-.3.11-.4.09-.11.2-.2.33-.28.88-.5 1.76-1.02 2.63-1.55l2.4-1.4Z" fill="#0397F1"/><path d="M31.44 28.48c-.4.53-.84.57-1.29.13a.86.86 0 0 1-.3-.45c-.07-.27.01-.51.24-.72l.29-.34a.16.16 0 0 1 .13-.06c1.04.03 1.35.51.93 1.44Z" fill="#B3EAF9"/><path d="M24.54 28.89c.32.5-.3.65-.5.97a.22.22 0 0 1-.2.1c-.4-.02-.63.16-.73.53-.18-.08-.27-.19-.26-.32a.1.1 0 0 1 .07-.09.31.31 0 0 0 .19-.27c.03-.24.23-.27.34-.45a.8.8 0 0 0 .13-.5c.62.16.36-.13.96.03Z" fill="#331F8E"/><path d="m32.65 28.77 1.23.76c-1.22.16-2.46.52-3.73 1.09-.32.14-.71.2-1.05.39l-.28.02 3.68-2.26h.15Z" fill="#0397F1"/><path d="M24.85 28.98c.04.28.04.48-.03.58-.15.25-.32.64-.57.75-.21.1-.2.18.01.26l.12.12a.73.73 0 0 1-.35.36c-.2.1-.36.26-.3.51a.2.2 0 0 1-.05.19.95.95 0 0 1-.57.24c.04.16.13.29.28.38.1.06.23.09.41.1l1.2.01c.21 0 .4.14.55.41 0 .26-.06.4-.2.41.05-.26 0-.46-.16-.6a.2.2 0 0 0-.13-.04h-1.42a.26.26 0 0 1-.15-.04 2.6 2.6 0 0 1-1.16-1.85c.73.15.99.05.78-.28.1-.37.34-.55.72-.52a.22.22 0 0 0 .2-.1c.2-.33.83-.48.5-.98.08-.1.18-.07.32.1Z" fill="#EC968E"/><path d="M24.44 30.9c-.05-.04-.07-.1-.06-.21l-.12-.12c-.22-.08-.22-.16-.01-.26.25-.1.42-.5.57-.75.06-.1.07-.3.03-.58.16-.02.24.07.24.25 0 .27.02.56.04.85 0 .06-.02.1-.07.12-.32.17-.53.4-.62.7Z" fill="#331F8E"/><path d="m27.5 38.5-13-7L11 33l5 3 3-1 3.5 1.5-4 1 9.5 5L45 33l-5.5-3-.5.5v1L28 38v-7h-.5v7.5Z" fill="url(#b)"/><path d="m33.88 29.53 4.4 2.51c.03.06.02.1-.02.12l-8.78 4.88c-.26.14-.6.37-1.06.68l.04-6.2c0-.06.01-.1.04-.14a.26.26 0 0 1 .1-.1l.5-.27c.34-.19.73-.25 1.05-.4 1.27-.56 2.51-.92 3.73-1.08ZM37.51 29.7c-.04.2-.04.4-.01.58 0 .08 0 .15-.04.2-.03.05-.07.06-.11 0a.3.3 0 0 1-.07-.11c-.17-.28-.17-.5-.01-.7.08-.1.16-.09.24.02Z" fill="#fff"/><path d="m14.27 31.42-1.21.76v.01l-.02.05c0 .03-.02.04-.05.04a.52.52 0 0 1-.18-.06l4.17-2.43c.19-.12.18-.07-.02.14a.38.38 0 0 1-.1.07c-.82.43-1.84.92-2.6 1.42Z" fill="#FBE6E2"/><path d="M37.5 30.28c-.03-.18-.03-.37.01-.59.13.08.21.2.24.35.02.05 0 .1-.03.14a.34.34 0 0 1-.22.1Z" fill="#67168D"/><path d="m44.8 33.02-.14.07-1.68-.93a27.5 27.5 0 0 0-1.17-.72c-.2-.11-.38-.31-.61-.12-.26.2-.63.34-.92.5a.13.13 0 0 0-.05.05.14.14 0 0 0 0 .14l.05.05 1.45.77.03.03.01.04a.08.08 0 0 1-.03.07 7.93 7.93 0 0 1-1.55.83l-.01.04v.03a6.34 6.34 0 0 0 1.56.84l.01.04c0 .06.03.08.1.05a28.76 28.76 0 0 0 1.6-.92.05.05 0 0 0-.02-.04l-1.52-.83a.09.09 0 0 1-.03-.03.1.1 0 0 1 0-.1.1.1 0 0 1 .03-.03l.92-.54a.17.17 0 0 1 .08-.01c.04 0 .04.03-.02.07-.24.18-.49.33-.75.44a.11.11 0 0 0-.05.04.12.12 0 0 0 0 .13l.05.05 1.42.71c.05.03.1.03.15 0l1.17-.6a.8.8 0 0 0 .04-.02l.07.05a.2.2 0 0 1-.1.24c-2.24 1.28-4.57 2.55-6.81 3.85-3.24 1.88-6.9 3.49-9.87 5.71a.13.13 0 0 1-.14.02 3.1 3.1 0 0 1-.64-.39 4.2 4.2 0 0 0-.6-.38c-1.3-.7-2.6-1.41-3.9-2.15-1.6-.9-3.23-1.81-4.86-2.7-.05-.03-.05-.06 0-.09a.32.32 0 0 1 .23 0c.41.17.8.37 1.18.61.1.06.23.1.41.1.32.02.65-.28.94-.4a.1.1 0 0 0 .04-.04.1.1 0 0 0-.02-.14l-.77-.51a.69.69 0 0 1 .24-.03l.01.06c.01.04.04.06.08.08.18.07.34.18.48.31.04.04.08.06.13.05.24 0 .46-.08.69-.24-.02-.04 0-.07.06-.1l.9-.59c.29-.17.47-.22.57-.15-.42.25-.83.5-1.2.75-.19.11-.27.27-.5.33-.18.05-.2.12-.02.21l1.8.99a.18.18 0 0 0 .19 0c.18-.11.58-.4.78-.39.07 0 .1.03.1.1 0 .08.04.14.12.17.56.2 1.06.52 1.48.95.05.05.14.07.28.07.05.01.07.04.07.09l-.4.2c-.14.07-.14.14 0 .2l1.64.89c.05.03.11.04.17.04h.06c.08 0 .11.04.1.13 0 .05 0 .1.02.16.08.19.14.19.2 0 .06-.18.13-.25.28-.3a8.03 8.03 0 0 0 1.63-.87c.24-.17.44-.21.67-.35l1.52-.84c.12-.06.13-.14.02-.23l-.15-.12a.34.34 0 0 0-.42-.03l-1.49.88c.32-.52 1.01-.67 1.48-1.06.04-.03.09-.04.14-.03l.17.03c.14.07.26.15.38.27.04.03.09.06.14.06a.6.6 0 0 0 .4-.08c.53-.3 1.04-.62 1.54-.92.13-.08.12-.15-.02-.2l-.14-.05a.5.5 0 0 0-.41.03l-1.43.76c-.04.02-.07 0-.08-.04 0-.03 0-.06.03-.09l1.53-.84.02-.01a.05.05 0 0 0 0-.05l-.02-.02a10.63 10.63 0 0 1-1.12-.66h.02l1.41.7c.19.21.42.33.7.36.04.01.09 0 .13-.02l1.09-.6c.02-.02.04-.01.05.01l.03.04-.01.04-1.04.57a.06.06 0 0 0-.02.09l.02.02.73.38.06.01c.24-.01.46-.08.67-.22a41.4 41.4 0 0 1 1.14-.69v-.03a.07.07 0 0 0-.03-.06l-1.39-.85 1.62.8H38c.14-.04.71-.35 1.72-.93v-.01a7 7 0 0 0-1.32-.75.3.3 0 0 1-.14-.12.2.2 0 0 0-.12-.1.18.18 0 0 0-.15.03c-.46.31-.93.6-1.42.84-.12.07-.2.14-.2.24a.73.73 0 0 0-.42.06l-1.49.77a.24.24 0 0 1-.11.02c.01-.05.03-.08.06-.1.51-.3 1.03-.57 1.56-.8.06-.03.06-.06 0-.1l-1.1-.69h-.01l.01-.04c.01-.02.02-.02.04-.01l1.14.65a.28.28 0 0 0 .27 0l3.36-1.95c.16-.1.16-.17-.01-.24-.34-.14-.68-.31-1.03-.52-.02-.01-.02-.02-.01-.04 0-.02.02-.02.04-.01l1.2.6c.08.03.16.03.24 0l1.07-.58c.14-.07.27-.16.37-.28a.07.07 0 0 0 .02-.07l-.02-.03a8.6 8.6 0 0 1-1.32-.74c-.13-.1-.29-.1-.46.03-.31.21-.5.36-.6.45.1-.35.45-.44.69-.66a.18.18 0 0 1 .1-.05c.03 0 .06 0 .09-.02.38-.17.76-.37 1.15-.6.07-.04.07-.09 0-.13-.42-.26-.85-.51-1.3-.75-.21-.12-.5.1-.68.24a.07.07 0 0 1-.09 0c-.02-.03-.02-.04-.01-.05.13-.14.28-.24.46-.3.08-.03.08-.06 0-.1a1.15 1.15 0 0 1-.4-.29v-.03l.03-.04c.02-.02.04-.02.06 0 .25.2.5.38.76.53 1.35.78 2.7 1.58 4.06 2.39.22.13.46.24.7.33Z" fill="#B3EAF9"/><path d="M22.4 29.8c-.15.35-.25.69-.28 1.02 0 .05-.02.1-.06.15-.24.3-.22.58-.22.95 0 .54-.07.55-.2.02-.06-.22 0-.51.19-.86.1-.69.29-1.11.58-1.28Z" fill="#D9D6CD"/><path d="m25.95 32.17.38.32c.03.03.03.06.01.1l-.02.04c-.02.03-.04.04-.07.02l-.5-.34a.17.17 0 0 1-.08-.14l-.03-.47a.3.3 0 0 0-.06-.17 1.05 1.05 0 0 1-.15-1c.01-.03.04-.04.07-.04.06.01.08.05.08.1 0 .33.07.61.22.87.1.17.11.37.1.57-.01.05 0 .1.05.14Z" fill="#899CB1"/><path d="M24.44 30.9c-.26.37-.4.68-.41.92a.33.33 0 0 1-.13.23.3.3 0 0 1-.25.06L23.1 32a.95.95 0 0 0 .57-.24.2.2 0 0 0 .05-.18c-.06-.26.1-.41.3-.52.17-.09.28-.21.35-.36 0 .1.01.17.06.2Z" fill="#67168D"/><path d="m29.1 31-.5.28a.26.26 0 0 0-.1.1.27.27 0 0 0-.04.13l-.04 6.21c-.13.04-.26.04-.39.03l.08-.02c.05-.01.08-.05.08-.1a725.5 725.5 0 0 1-.05-6.06c0-.1.04-.22.14-.37.05.1.23.04.54-.17l.28-.02Z" fill="#899CB1"/><path d="M39.73 31.82a2.1 2.1 0 0 1-.47-.26c-.1-.07-.1-.1.03-.06.16.04.32.13.47.26.11.1.1.11-.03.06Z" fill="#FBE6E2"/><path d="m19.27 32.83-.23-.12a8.85 8.85 0 0 1 2.04-1.07c.17-.06.18-.03.04.08-.57.46-1.22.71-1.85 1.1Z" fill="#B3EAF9"/><path d="m15.53 32.2-1.09.66a.06.06 0 0 0-.02.02.07.07 0 0 0 0 .07l.03.02 1.41.79-1.57-.77a.13.13 0 0 0-.13 0l-1.6.9c.05-.1 0-.13-.13-.1l1.44-.71c.2-.1.2-.2 0-.29a12.95 12.95 0 0 1-.8-.47c.01-.01.02-.02.04-.01.33.14.64.3.9.48a.38.38 0 0 0 .4.01l1.12-.6ZM12.68 32.28c-.24.35-1.2.6-1.29.85-.02.06 0 .11.05.16l-.3-.17 1.54-.84ZM38.77 32.77l.04.05c-.99.6-1.66 1-2.01 1.19a453.7 453.7 0 0 0-8.25 4.62c-.3.21-.49.27-.82.18a.19.19 0 0 0-.15.02l-.84.45a.34.34 0 0 1-.04-.02c-.03-.01-.03-.03 0-.05l.76-.46c.17-.1.3-.12.42-.03.04.04.09.04.14.02l10.75-5.97Z" fill="#FCF6E8"/><path d="M26.5 32.9a.98.98 0 0 1-.63.34c-.05 0-.1.03-.14.07l-.38.35a.83.83 0 0 1-.48.19c-.65.07-1.2.18-1.85-.1.7-.11 1.39-.13 2.07-.08.06 0 .1-.01.13-.06.06-.09.1-.2.13-.31.14-.02.2-.15.2-.4l.12.17a.17.17 0 0 0 .12.08c.18.02.28-.06.3-.24.06.14.16.1.31-.1a.2.2 0 0 0 .1.1Z" fill="#255180"/><path d="M44.92 33.12a.8.8 0 0 1-.04.02l-.22-.05.13-.07c.06.02.1.05.13.1ZM11.1 33.14c.02.08.02.17 0 .24l-.05.02a.49.49 0 0 1-.05-.22c.04-.04.07-.05.1-.04Z" fill="#899CB1"/><path d="m11.14 33.12.3.17 1 .5c.13-.03.17 0 .13.1l1.6.9c.05.02.1.02.14 0 .43-.28.87-.52 1.34-.73a.86.86 0 0 0 .26-.24c.17.03.34-.03.48-.17.2-.2.53-.37 1.03-.52l-1.06.62a.13.13 0 0 0-.06.1.13.13 0 0 0 .05.11c.43.32.9.58 1.4.77.02.01.03.02.03.05l.01.04c-.01.03-.04.03-.07.02a6.24 6.24 0 0 1-1.52-.87.13.13 0 0 0-.15-.02l-1.66.93a.1.1 0 0 0-.04.04.1.1 0 0 0 0 .1 3.4 3.4 0 0 1 1.19.73l-4.44-2.37a.37.37 0 0 0-.01-.24l.05-.02Z" fill="#B3EAF9"/><path d="m27.13 33.35.01 3.77v.02a.05.05 0 0 1-.05.03h-.02l-4.2-2.33c.46-.1.93-.22 1.39-.34.36-.1.8-.27 1.32-.52.5-.24 1.01-.45 1.55-.63Z" fill="#fff"/><path d="M19.34 34.16c-.02.02.01.04.08.08l-1.45.81-1.52.83h-.09l-.02-.04a.06.06 0 0 1 .03-.06l1.57-.87 1.4-.75ZM37.21 34.61c.28.16.52.26.53.24.01-.03-.2-.17-.48-.33a1.69 1.69 0 0 0-.53-.23c-.01.02.2.17.48.32ZM25.4 37.56c.04.03.05.06.02.1l-.9.5c-.02.02-.03.02-.04-.01l-.01-.05.93-.54Z" fill="#B3EAF9"/><path d="m29.94 39.48.11.03a.06.06 0 0 1 .05.05v.03c0 .01 0 .02-.02.03a.12.12 0 0 1-.04.03.1.1 0 0 1-.07 0 .57.57 0 0 0-.6.07c-.3.22-.6.4-.93.56a.28.28 0 0 1-.16.03c-.17-.02-.27.05-.43.03a2.4 2.4 0 0 1-1.33-.73.17.17 0 0 0-.11-.05h-.07c0-.05-.02-.08-.07-.1.13-.11.26-.08.4.1.41.37.82.58 1.21.66.16.03.37-.01.65-.12.2-.07.55-.3 1.07-.7.04-.03.08-.03.13 0 .06.04.13.07.2.08Z" fill="#6BB0D4"/><defs><linearGradient id="a" x1="10.42" y1="9.71" x2="68.15" y2="76.02" gradientUnits="userSpaceOnUse"><stop stop-color="#1A1E21"/><stop offset="1" stop-color="#06060A"/></linearGradient><linearGradient id="b" x1="13" y1="33" x2="44.5" y2="32.5" gradientUnits="userSpaceOnUse"><stop stop-color="#16284B"/><stop offset=".44" stop-color="#3D7FB2"/><stop offset="1" stop-color="#234267"/></linearGradient></defs></svg>