<svg width="112" height="112" viewBox="0 0 56 56" xmlns="http://www.w3.org/2000/svg"><path d="M11.16 30.26a16.7 16.7 0 0 1 1.53-9.64c1.45-3 3.6-5.39 6.47-7.14a16.63 16.63 0 0 1 8.02-2.46c2.88-.14 5.62.42 8.2 1.67a16.52 16.52 0 0 1 7.4 6.89 16.93 16.93 0 0 1 2.13 10.17c-.3 3.15-1.42 6-3.36 8.56a16.76 16.76 0 0 1-9.48 6.26c-.05.02-.13.02-.24.03-.1 0-.18 0-.23.02a17.09 17.09 0 0 1-7.02.05 16.17 16.17 0 0 1-9.33-5.4 16.74 16.74 0 0 1-4.1-9Z" fill="#834C03"/><path d="m34.12 13.42.46.28c.13.1.13.1-.02.05-1.2-.44-2.42-.83-3.65-1.15a13.43 13.43 0 0 0-4.98-.25l.01-.02c1.25-.27 2.52-.36 3.8-.26 1.5.12 2.96.57 4.38 1.35ZM42.34 28.44a14.07 14.07 0 0 1-4.3 10.05 14.25 14.25 0 0 1-15.66 2.93 14.24 14.24 0 0 1-8.72-13.3 14.07 14.07 0 0 1 4.3-10.04 14.25 14.25 0 0 1 15.66-2.93 14.24 14.24 0 0 1 8.72 13.29Z" fill="#DCA93D"/><path d="M36.89 14.45c1.26.85 2.19 1.59 2.77 2.22.4.45.81.94 1.22 1.46a12.6 12.6 0 0 1 2.62 5.73c.05.24.1.49.13.74s.07.5.12.73c.03.16.04.5.03 1.01a2.06 2.06 0 0 0 .07.5c.01.04 0 .07-.05.08h-.03c-.03-.01-.05-.04-.05-.07-.02-.32-.06-.6-.1-.87-.23-1.16-.5-2.24-.83-3.26-.25-.78-.59-1.56-1-2.36a16.68 16.68 0 0 0-3.67-4.5c-.52-.48-1.04-.96-1.56-1.41-.1-.1-.08-.13.05-.1.1 0 .19.04.28.1Z" fill="#DCA93D"/><path d="M40.87 29.94c0 .05-.02.06-.07.02a22.71 22.71 0 0 0-5.78-13.35c-.08-.06-.06-.08.04-.06.24.06.49.17.73.34.41.3.76.57 1.05.85a12.85 12.85 0 0 1 4.02 8.69c.07 1.09.1 2.13.08 3.12 0 .12-.02.23-.07.35v.04Z" fill="#F5C65E"/><path d="M36.05 27.6a5.86 5.86 0 0 1 2.2 1.07c.46.37.81.93 1.06 1.68.22.65.32 1.32.3 2a3.6 3.6 0 0 1-.37 1.52c-.26.54-.6.93-1 1.16-.34.19-.76.37-1.25.54-.67.24-1.37.35-2.09.34-.54-.02-1.09-.03-1.64-.03-.9-.01-1.79.1-2.68.33l-1.86.51c-1.02.3-2.24.49-3.67.57-1.4.09-2.66-.03-3.8-.36a5.87 5.87 0 0 1-1.73-.85 6 6 0 0 1-1.41-1.32c-.79-1.06-.95-2.45-.5-4.16.13-.47.35-.88.66-1.23a.1.1 0 0 0 .02-.1 2.7 2.7 0 0 1 .03-1.58c.16-.56.42-1.03.78-1.4.76-.79 1.5-1.2 2.2-1.23.06 0 .07-.02.04-.07a3.28 3.28 0 0 1-.6-1.78c0-.56.4-1.06 1.21-1.5a8.64 8.64 0 0 1 2.08-.81c.05-.01.06-.04.03-.08-.22-.28-.28-.67-.17-1.15.1-.43.27-.8.52-1.08a4.22 4.22 0 0 1 4.37-1.48l1.22.23c.44.08.64-.1.6-.51 0-.14.03-.16.1-.04.19.25.23.5.13.74-.06.15-.21.35-.47.6-.24.25-.4.45-.46.59-.02.06 0 .1.04.15.13.09.26.15.4.19.32.08.6.17.87.27.67.24 1.19.63 1.55 1.16.4.56.54 1.2.44 1.9-.01.05 0 .07.06.06.44-.07.8-.08 1.07-.01.79.17 1.44.5 1.96 1 .59.56.88 1.23.9 2 0 .87-.38 1.57-1.16 2.1-.05.03-.05.05.02.06Z" fill="#834C03"/><path d="M25.48 20.37a3.58 3.58 0 0 1-1.11.39c-.03 0-.06-.02-.07-.06a1.8 1.8 0 0 1 .05-1.39c.15-.3.45-.66.9-1.06a3.6 3.6 0 0 1 2.99-.88l1.39.22c.27.05.54.04.8-.02.08-.01.08 0 .03.05l-.6.53c-.22.2-.33.41-.3.66.01.26.17.43.47.53.37.11.75.24 1.13.37.46.17.87.48 1.25.94.47.57.6 1.28.4 2.14 0 .02 0 .04.02.06.02.03.05.03.07.02a.24.24 0 0 0 .11-.1c.06-.09.14-.13.25-.12.88.09 1.63.32 2.25.68.8.47 1.23 1.1 1.32 1.88.1.88-.31 1.68-1.23 2.38-.06.05-.06.08.01.11.63.26 1.28.57 1.94.93.6.33 1.05.88 1.36 1.65.27.68.39 1.4.35 2.15-.04.76-.3 1.42-.8 1.99a1.71 1.71 0 0 1-.67.45c-.97.42-1.72.64-2.25.65h-1.12c-1.06 0-1.86.03-2.41.09-.64.07-1.56.27-2.77.6-.59.16-1.03.28-1.31.34-1.5.34-3.11.45-4.84.35a6.32 6.32 0 0 1-4.35-1.96c-.58-.58-.9-1.3-.98-2.18a5.4 5.4 0 0 1 .6-3.16c.02-.03.03-.03.05 0 .1.21.22.42.37.62.01.01.03.02.04.01.03-.01.04-.03.03-.07-.02-.1-.06-.24-.13-.44a3.07 3.07 0 0 1 .79-3.34c.6-.59 1.28-.95 2.02-1.09.03 0 .06 0 .1.02.08.06.14.1.17.1.2.05.23 0 .1-.17a3.87 3.87 0 0 1-.7-1.36c-.18-.63-.09-1.1.27-1.38.6-.5 1.53-.92 2.77-1.28.56-.16 1-.42 1.3-.77.1-.11.07-.14-.05-.08Z" fill="#B77D01"/><path d="M24.49 19.76a3.1 3.1 0 0 1 1.7-1.6 3.3 3.3 0 0 1 2.3-.11c.1.03.1.07 0 .1-.11.03-.21.06-.32.06-.43.03-.8.07-1.13.12-.91.15-1.6.58-2.1 1.32l-.38.58c-.1.14-.15.13-.16-.05 0-.15.02-.3.09-.42ZM32.2 22.4l-.17-.42c-.21-.54-.44-.9-.69-1.08l-.21-.15c-.5-.34-.8-.63-.9-.87-.04-.06-.02-.07.04-.04l.99.57c.37.22.66.5.86.83.23.39.3.77.18 1.16-.03.09-.06.1-.1 0ZM21.72 24.25a1.62 1.62 0 0 1 .32-1.72c.4-.43.92-.7 1.59-.8a.8.8 0 0 1 .34.02c.06.02.07.04 0 .07l-1.22.64c-.7.38-.91 1.03-.65 1.97.02.1-.01.14-.11.09l-.05-.02a.41.41 0 0 1-.22-.25Z" fill="#F5C65E"/><path d="M30.36 22.76c.62.17 1.03.6 1.25 1.3.01.05 0 .08-.06.08-.04 0-.07 0-.1-.03-.47-.42-.88-.62-1.23-.6l-.46.04c-.61.05-1.06.06-1.35.04a.11.11 0 0 1-.09-.06c-.09-.15-.06-.3.09-.47a.92.92 0 0 1 .42-.27c.51-.15 1.02-.16 1.53-.03ZM24.35 23.8a3.9 3.9 0 0 1-.53.36c-.02.02-.05.01-.08-.01a.07.07 0 0 1-.02-.08c.17-.57.51-.96 1.02-1.18.46-.2.98-.23 1.57-.1.33.07.56.26.7.54.04.1.02.17-.07.23a.67.67 0 0 1-.44.1l-1.2-.1c-.39-.05-.7.03-.95.23Z" fill="#834C03"/><path d="M35.15 23.52c.56.27.96.73 1.2 1.36.27.69.09 1.35-.55 1.97-.08.08-.1.07-.07-.04.15-.4.27-.8.36-1.19.07-.3-.02-.62-.26-.98-.2-.31-.45-.55-.73-.7a6.35 6.35 0 0 0-.44-.22c-.36-.17-.61-.3-.76-.42-.04-.03-.03-.05.02-.06.33-.06.74.03 1.23.28Z" fill="#F5C65E"/><path d="M32.1 27.37c-.14.45-.4.82-.75 1.1-.4.33-.8.44-1.23.35a2.02 2.02 0 0 1-1.36-1.08 3.77 3.77 0 0 1-.46-1.78c0-.48.1-.9.3-1.28.24-.4.56-.68.97-.82.31-.1.65-.07 1 .1a2 2 0 0 1 .8.65c.76 1.05 1 1.97.74 2.76ZM26.97 25.63c.08.7-.04 1.35-.34 1.98-.34.7-.83 1.12-1.45 1.26-.4.1-.8-.01-1.2-.32a2.04 2.04 0 0 1-.76-1.05c-.19-.6-.15-1.2.1-1.77.36-.82.8-1.38 1.33-1.67.55-.3 1.07-.26 1.55.11.45.35.7.84.77 1.46Z" fill="#834C03"/><path d="M28.86 25.02c.17-.38.41-.63.74-.76s.67-.09 1.01.14c.28.18.56.55.86 1.1l.1.19a1.94 1.94 0 0 1-.33 2.38c-.52.5-1.07.53-1.66.08-.4-.3-.67-.79-.82-1.45-.14-.65-.1-1.2.1-1.68ZM25.95 24.45c.68.6.85 1.46.5 2.62-.1.35-.28.67-.55.95-.3.33-.61.49-.94.49-.33 0-.62-.12-.87-.36-.77-.72-.86-1.58-.27-2.58l.07-.12c.22-.4.4-.66.55-.8.24-.24.53-.37.88-.4.24-.02.45.04.63.2Z" fill="#F5C65E"/><path d="M30.1 26.98a.51.51 0 0 1-.46-.06.77.77 0 0 1-.32-.44.8.8 0 0 1 0-.54.53.53 0 0 1 .33-.34c.16-.05.31-.03.46.07.16.1.26.24.32.43a.8.8 0 0 1 0 .55.53.53 0 0 1-.33.33ZM25.23 27.05a.52.52 0 0 1-.34-.32.82.82 0 0 1-.02-.55c.05-.2.15-.34.3-.45a.5.5 0 0 1 .45-.09c.15.05.27.16.34.33s.08.35.02.54a.79.79 0 0 1-.3.45.5.5 0 0 1-.45.1Z" fill="#834C03"/><path d="M29.61 26.34c.15.05.24.02.29-.09.04-.11 0-.17-.1-.2l-.14-.01c-.02-.14.05-.2.21-.17.3.04.43.21.4.52-.01.27-.14.39-.37.36-.24-.03-.33-.17-.29-.41ZM25.28 26.82c-.23-.06-.31-.24-.24-.54.07-.3.22-.42.46-.36.23.06.3.24.23.54-.07.3-.22.42-.45.36Z" fill="#B77D01"/><path d="M25.33 26.3c.06.08.16.1.22.04.06-.05.05-.16-.01-.23-.07-.07-.16-.08-.22-.03-.06.06-.05.16.01.23ZM29.66 26.04l.13.02c.12.02.15.08.1.2-.04.1-.13.13-.28.08-.08-.12-.06-.22.05-.3ZM19.18 27.65c.3-.7.86-1.19 1.64-1.47.1-.04.2-.06.3-.07.17-.01.19.04.05.15-.24.18-.5.37-.78.55a2.12 2.12 0 0 0-1.05 2.05l.05.7c.02.4-.06.43-.24.07-.3-.62-.3-1.28.03-1.98Z" fill="#F5C65E"/><path d="M33.1 28.89c-.08.25-.15.51-.19.8-.1.67-.28 1.41-.56 2.24-.13.38-.27.65-.43.82-.59.62-1.26.94-2.02.95l-3.48.05a6.47 6.47 0 0 1-1.8-.21c-.67-.18-1.16-.75-1.48-1.7a46.3 46.3 0 0 0-.95-2.62c-.03-.07-.07-.08-.1 0a.56.56 0 0 1-.2.22c-.1.06-.14.03-.1-.08.19-.5.42-.77.7-.8.04 0 .07 0 .09.04.01.03.01.07-.01.1l-.2.23c-.03.04-.02.07.02.1.8.54 1.79.72 2.98.56.22-.02.54-.08.97-.17.74-.14 1.3-.22 1.7-.22.84-.02 1.67 0 2.5.02.94.04 1.71-.16 2.31-.58.04-.03.05-.06.02-.1-.06-.08-.1-.17-.14-.28-.05-.15 0-.19.13-.11.27.15.46.42.58.8 0 .04 0 .06-.03.08-.03.02-.05.01-.07 0l-.16-.16c-.04-.04-.07-.03-.08.02Z" fill="#834C03"/><path d="M38.62 30.62c.22.41.31.9.29 1.48a3.92 3.92 0 0 1-.36 1.48c-.21.46-.59.8-1.12 1.03a1.9 1.9 0 0 1-.89.2c-.13 0-.14-.04 0-.09.5-.19.96-.48 1.36-.87.25-.24.43-.6.54-1.06a2.96 2.96 0 0 0-.66-2.76c-.36-.41-.71-.8-1.05-1.16-.02-.01-.02-.03 0-.05.03-.03.06-.03.1-.01.82.5 1.42 1.1 1.79 1.8ZM30.14 31.38a3.97 3.97 0 0 0 2.01-.24c.05-.01.06 0 .05.04-.1.37-.2.7-.34 1.01a1.78 1.78 0 0 1-.62.66c-.4.3-.85.46-1.36.47l-3.91.06c-.57 0-1.1-.1-1.58-.33-.37-.18-.7-.65-.96-1.41-.02-.04 0-.06.03-.05.91.26 1.75.26 2.53 0a.3.3 0 0 0 .11-.07c.09-.08.07-.12-.05-.11-.74.04-1.44.02-2.07-.06-.5-.06-.83-.39-1.01-.99a4.59 4.59 0 0 0-.34-.75c-.03-.05-.02-.07.04-.04a4.85 4.85 0 0 0 3.23.29c1-.21 1.76-.32 2.26-.31.88 0 1.82 0 2.79.02.45 0 1-.12 1.65-.37.04-.01.06 0 .05.04a6.5 6.5 0 0 1-.26 1.16c-.1.29-.31.46-.65.52-.5.1-1.03.22-1.58.37-.06.02-.07.05-.02.1Z" fill="#F5C65E"/><path d="M43.93 30.98a13.36 13.36 0 0 1-1 3.36 19.92 19.92 0 0 1-4.07 5.84l-.02-.02c-.01-.02-.02-.04 0-.06a26.23 26.23 0 0 0 .8-1l.46-.69.91-1.36a20.03 20.03 0 0 0 2.28-4.78c0-.05.01-.12.05-.2a1.3 1.3 0 0 0 .34-1.23l.04-.22c.1-.32.17-.7.2-1.16 0-.05.03-.08.08-.07h.04c.02 0 .04.02.04.05v1.41c0 .03-.01.05-.04.05l-.06.02a.07.07 0 0 0-.05.06Z" fill="#DCA93D"/><path d="M18.54 30.76c.36.52.83.84 1.42.97.55.13 1.15.24 1.77.32.19.03.2.07.02.14-.23.09-.47.12-.73.1-1.48-.08-2.35-.56-2.64-1.45-.12-.38-.07-.4.16-.08ZM29.16 34.23c.01 0 .02 0 .02.02.02.17-.32.29-1 .35l-.26.03c-.68.07-1.03.02-1.05-.14v-.01c0-.01 0-.02.02-.02l2.27-.23Z" fill="#F5C65E"/><path d="M26.14 34.68c.83.26 1.57.3 2.2.15a15.6 15.6 0 0 0 1.6-.48.13.13 0 0 1 .09 0c.05.02.06.04.01.08-.9.68-1.92.92-3.07.7a2.34 2.34 0 0 1-.9-.37c-.02-.02-.02-.03 0-.05.01-.03.04-.03.07-.03Z" fill="#834C03"/></svg>