<svg width="224" height="224" viewBox="0 0 56 56" xmlns="http://www.w3.org/2000/svg"><path d="M41.37 36.75A15.99 15.99 0 0 1 27.92 44C19.12 44 12 37.01 12 28.4c0-1.53.22-3 .64-4.4 1.7 4.47 5.61 10.89 11.8 11.22 5.83.32 9.13-1.63 11.27-2.9 1.15-.68 1.97-1.17 2.66-1 1.23.3 2.33 3.11 3 5.43Z" fill="#2A4CF3"/><path d="M40.9 37.44c-1.83-2.23-4.52-5.3-5.51-5.63-.59-.19-1.55.44-2.92 1.33-2.14 1.4-5.28 3.44-9.52 4.03-3.75.53-7.42-1.42-10.02-3.5a15.91 15.91 0 0 0 15 10.33 16 16 0 0 0 12.97-6.56Z" fill="url(#a)"/><path d="M16.24 39c2.37 1.26 5.2 2.3 7.7 2.07 4.87-.43 6.59-3.18 7.61-4.8l.35-.56c.2-.29.42-.7.66-1.15 1-1.88 2.52-4.7 5.32-4.7 2.39 0 4.31 1.61 5.12 3.57A15.9 15.9 0 0 1 27.92 44c-4.61 0-8.77-1.93-11.68-5Z" fill="url(#b)"/><path d="M14.63 19.25A15.99 15.99 0 0 1 28.08 12C36.88 12 44 18.99 44 27.6c0 1.53-.22 3-.64 4.4-1.7-4.47-5.61-10.89-11.8-11.22-5.83-.32-9.13 1.63-11.27 2.9-1.15.68-1.97 1.17-2.66 1-1.23-.3-2.33-3.11-3-5.43Z" fill="#2A4CF3"/><path d="M15.1 18.56c1.83 2.23 4.51 5.3 5.51 5.63.59.19 1.55-.44 2.92-1.33 2.14-1.4 5.28-3.44 9.52-4.03 3.75-.53 7.42 1.42 10.02 3.5a15.91 15.91 0 0 0-15-10.33 16 16 0 0 0-12.97 6.56Z" fill="url(#c)"/><path d="M39.76 17c-2.37-1.26-5.2-2.3-7.7-2.07-4.87.43-6.59 3.18-7.61 4.8l-.35.56c-.2.29-.42.7-.66 1.15-1 1.88-2.52 4.7-5.32 4.7A5.64 5.64 0 0 1 13 22.57 15.9 15.9 0 0 1 28.08 12c4.61 0 8.77 1.93 11.68 5Z" fill="url(#d)"/><path d="M28 28h-3l3-4v4Z" fill="#06BCFC"/><path d="M28 28h-3l3 4v-4Z" fill="#13A0FF"/><path d="M31 28h-3v-4l3 4Z" fill="#00E4FE"/><path d="M31 28h-3v4l3-4Z" fill="#1191FF"/><defs><linearGradient id="a" x1="13" y1="33.76" x2="33.29" y2="41.84" gradientUnits="userSpaceOnUse"><stop stop-color="#3364FC"/><stop offset="1" stop-color="#2792FA"/></linearGradient><linearGradient id="b" x1="19.46" y1="40.59" x2="37.79" y2="34.02" gradientUnits="userSpaceOnUse"><stop stop-color="#2790FD"/><stop offset="1" stop-color="#1DE9F9"/></linearGradient><linearGradient id="c" x1="43" y1="22.24" x2="22.71" y2="14.16" gradientUnits="userSpaceOnUse"><stop stop-color="#3364FC"/><stop offset="1" stop-color="#2792FA"/></linearGradient><linearGradient id="d" x1="36.54" y1="15.41" x2="18.21" y2="21.98" gradientUnits="userSpaceOnUse"><stop stop-color="#2790FD"/><stop offset="1" stop-color="#1DE9F9"/></linearGradient></defs></svg>