<!-- by TradingView --><svg width="56" height="56" viewBox="0 0 56 56" xmlns="http://www.w3.org/2000/svg"><path fill="#F0F3FA" d="M0 0h56v56H0z"/><path d="m42 34-7.29-10-.98 6.2L42 34Z" fill="#A9C5DF"/><path d="m23 37-7 9V34l7-9v12Z" fill="#62A7E9"/><path d="m35.12 37-19.11 9L23 37h12.12Z" fill="#4189CC"/><path d="M23 37V25l12 12H23Z" fill="#1D67AC"/><path d="M35 37 23 25h12v12Z" fill="#4189CC"/><path d="M35 13 23 25h12V13Z" fill="#1D67AC"/><path d="m23 25 12-12H23v12Z" fill="#4189CC"/><path d="M42 21.92 35 13v12l7 9V21.92Z" fill="#62A7E9"/></svg>