<svg width="56" height="56" viewBox="0 0 56 56" xmlns="http://www.w3.org/2000/svg"><path d="m20.05 25.66-4.01 3.14h-1.07l-.48 1.71.15 2.12 1.4 4.03 3.3 6.41 3.55 2.02 4.67.59 6.06-.95 8.04-3.5v-2.35l-.58-2.7-2.59-5.16-1.16-3.86-8.12-2.32-7.72.51-1.44.3Z" fill="#181818"/><path d="m33.94 37.13-.78-1.75 1.4.17c.33.3 1 .9 1 .96 0 .07-1.08.44-1.62.62Z" fill="#FFD0B1"/><path d="M23.45 15.22c-.7 3.22 2.23 6.74 3.78 8.09l2.36.38c.45.09 1.7-1.09 3.04-6.48 1.34-5.4-2.84-7.42-5.1-7.76a9.03 9.03 0 0 0-4.08 5.77Z" fill="#D9BFAC"/><path d="M30.17 17.58c-.12.31-.38.68-.5.83-.07 0-.04-.35.1-.67a10 10 0 0 0 .1-2.12l.4-.37c.02.65.01 2.02-.1 2.33Z" fill="#C4AA98"/><path d="M24.61 16.72c0 3.7 2.25 6.03 3.37 6.73l.73.43c.03.43.06 1.4-.1 1.8-.15.4-.82 1.6-1.13 2.15l-5.96-2.15a9.01 9.01 0 0 1-.79-2.86c-.23-1.83-1.3-8.22 1.02-11a7.3 7.3 0 0 1 5.9-2.45 10.5 10.5 0 0 0-3.04 7.35Z" fill="#C4A695"/><path d="m27.13 27.93-.52 1c.15.44.47 1.37.56 1.51a9 9 0 0 0 1.36 1.3c.17.04.41-.08.41-.19l-.25-3.81-.52-.41-1.04.6Z" fill="#1499F0"/><path d="m26.85 27.75-.49 1.3a3.46 3.46 0 0 1-.55-.25l-1.14-1.6 2.18.55Z" fill="#fff"/><path d="m30.41 25.63-.1-.32-1.35-.38-.2 2.07.62 5.8.77.31-1.06-5.05 1.84.7L28.96 27l-.06-.57.08-.4.2-.55 1.23.15Zm-9.55-.18.77.43-.77.66.68 2.03 2.5.58-.84 1.95 4.28 3.91-5.61-3.73.42-1.41-1.43-.5L19.9 27c-1.15.48-3.55 1.73-3.94 2.87-.5 1.41 2.5 9.07 3.4 10.91a23.14 23.14 0 0 0 2.28 3.61 15.24 15.24 0 0 1-3.04-2.62c-.7-.93-2.73-5.22-3.66-7.25l-.61-3.24.28-2.13 1.6-1.04 4.65-2.66Zm11.3 8.97-.24-.85-.36 1.33 2.08.55 1.96.39-.57-1.86-.67 1.02-1.01-1.43-1.18.85Zm-8.44.47.29 1.65 1.04.06.2-1.33-.64 1.04v-1.75l-.28 1.75-.61-1.42ZM23.58 38c.22-.65.5-.26.56-.18l-.65 1.5v-.06c-.03-.17-.1-.7.09-1.26Zm8.13.83.29.6.56-.46c-.15-.18-.47-.52-.48-.47-.02.05.06.38.1.54l-.47-.21Z" fill="#292929"/><path d="M21.28 19.04a16.28 16.28 0 0 0 2.13 7.46c-1.15-.34-1.9-1-2.13-1.3-.47-1.84-1.34-6.25-1.02-9.06a10.3 10.3 0 0 1 2.57-5.7 26.39 26.39 0 0 0-1.55 8.6Z" fill="#94776B"/><path d="m25.1 22.33.38 2.47c.02.2.13.6.33.62.25.02.18-.85 0-1.36a39.2 39.2 0 0 0-.71-1.73Zm2.35 3.45c.44-.23 1.17-.78.58-1.16-.72-.47-1.77-1.25-1.8-2.22.03.11.3.44 1.16.85.86.4 1.28.99 1.38 1.23l.06.68a7 7 0 0 1-1.38.62Z" fill="#9A7A66"/><path fill-rule="evenodd" d="M27.01 9.75c1.35-.03 4.31.87 5.25 4.78h-.18c-.1-.05-.22-.09-.33-.1a.63.63 0 0 0-.4.1h-1.7a1.42 1.42 0 0 0-.88-.33c-.47 0-.9.18-1.18.33h-1.27v.83h.83v.43h.37v.43h.44v.4h1.54v-.4h.32v-.43h.43v-.43h.27l.5 2.84h-1.25a.2.2 0 0 0-.2.21c0 .11.09.2.2.2h.73l-.12.08a.2.2 0 0 0-.07.28c.06.1.19.13.28.07l.76-.45.14-.08-.48-2.72h.08v.43h.4v.4h.86a10.09 10.09 0 0 1-.8 3.61 9.69 9.69 0 0 1-.67 1.5l-.06.15-.05.12c-.08.2-.17.43-.3.65-.26.42-.6.73-1.13.73a4.22 4.22 0 0 1-2.31-.78.37.37 0 0 0-.52.07c-.13.16-.1.4.07.52.28.22.9.58 1.65.79l.29 1.2c-.08.4-.42 1.27-1.16 2.26h-.02l-.08-.03-.58-.16c-.56-.16-1.35-.38-2.28-.6a7.4 7.4 0 0 1-2.76-1.46 40.36 40.36 0 0 1-.89-5.28c-.1-.81-.2-1.64-.2-3.2 0-1.08.28-2.83 1.22-4.31.93-1.45 2.52-2.65 5.24-2.65Zm0-.75c1.65-.03 5.03 1.08 6.01 5.53h1.02v.83h-.32v.43h-.28v.43h-.33c-.02.67-.08 1.44-.21 2.09a16.04 16.04 0 0 1-1.28 3.58l-.01.03a1.88 1.88 0 0 0-.1.22c0 .04-.03.08-.05.14-.08.21-.2.49-.36.75-.32.54-.86 1.1-1.76 1.1l-.31-.01.03.14 1.73.6.07.14 6.64 1.83.57 2.12c.26.34.45.84.6 1.3.15.47.26.94.33 1.26.44.8 1.48 2.68 2.31 4.35.46.92.64 2 .68 2.97.04.97-.05 1.86-.15 2.38l-.02.14-.1.08c-.86.69-2.4 1.39-3.87 1.97a88.9 88.9 0 0 1-3.6 1.36 21.56 21.56 0 0 1-8.56 1.18c-3.53-.31-5.64-1.67-7.12-3.47-.6-.73-1.24-1.87-1.8-2.98a32.8 32.8 0 0 1-2.27-5.63 16.8 16.8 0 0 1-.38-1.5c-.09-.46-.14-.9-.11-1.26.05-.77.17-1.37.34-1.81.17-.44.4-.77.72-.94l4.38-2.47 1.36-.98c-.25-1.12-.6-2.9-.68-3.8l-.11-1.07c-.1-.82-.2-1.71-.2-3.31 0-1.18.28-3.1 1.33-4.72 1.05-1.66 2.87-3 5.85-3Zm4.32 16.9 1.48 2.88-.71.18 1.06.66-1.3 5.03c.29 0 .64.08.96.32.55.02 1.45.17 2.3.6a20.22 20.22 0 0 1-.2-1.26 2.75 2.75 0 0 1 0-.63c.03-.22.1-.42.2-.61l.28-.5.07-.12c.24-.43.51-.92.7-1.56a.33.33 0 1 1 .63.18c-.2.72-.51 1.27-.76 1.72l-.07.11-.26.46c-.08.17-.13.3-.15.42a10.35 10.35 0 0 0 .12 1.21l.2.98.46-.17c.4-.14.9-.24 1.39-.22.18 0 .32.16.31.34 0 .19-.16.33-.34.32-.2 0-.4 0-.6.04a5.4 5.4 0 0 1 1.62.5c.17.09.23.29.15.45a.33.33 0 0 1-.44.15 5.45 5.45 0 0 0-4.27-.1c.36 1 .67 2.26.76 3.62a.33.33 0 1 1-.66.05 11.35 11.35 0 0 0-1.56-5.19 1.21 1.21 0 0 0-.1-.12l-4.13.7a.33.33 0 0 1-.32-.13l-2.93.84-.75-.27-.71.34-3.4-4.44a.33.33 0 0 1 .06-.47.33.33 0 0 1 .46.06l3.08 4.02.48-.22.8.29 2.28-.66-6.13-4.1.73-1.5-1.65-.26-.93-3.16-4.12 2.33c-.1.05-.24.19-.38.55-.13.35-.24.87-.3 1.6-.01.25.03.61.11 1.06a32 32 0 0 0 2.59 6.94 16.8 16.8 0 0 0 1.7 2.83c1.36 1.65 3.28 2.91 6.61 3.2 3.36.3 6.89-.6 8.23-1.13L35 43.7c.72-.27 1.63-.6 2.58-.98a17.8 17.8 0 0 0 3.56-1.78c.08-.48.15-1.23.1-2.06a6.83 6.83 0 0 0-.59-2.67c-.84-1.7-1.9-3.63-2.33-4.38l-.03-.05-.01-.06c-.05-.3-.16-.76-.31-1.23-.16-.48-.34-.9-.52-1.13l-.05-.06-.5-1.85-5.57-1.54Zm2.12 9.8c.5.1 1.11.29 1.66.62-.47.09-.88.21-1.2.34-.15-.38-.31-.7-.46-.95Zm-4.98-.26-6.13-4.1.88-1.82-2.17-.34-.86-2.92.85-.6a8.47 8.47 0 0 0 2.95 1.66l6.9 7.53-2.42.6Zm2.77-1.31 1.07-4.16-2.1-1.31 1.51-.38-1.45-2.81-1-.35v.1c-.04.25-.16.63-.36 1.07l.53 5.88 1.8 1.96Zm-2.77-4.5.1 1.05-.1-.06-.26-.86c-.01-.03-.06-.1-.18-.07-.11.02-.09.16-.07.22l.25.77-.05.1-.61-.68c.11-.25.28-.57.43-.62.12-.05.32.04.49.14Zm-.2 1.26.3-.07.05.45-.35-.38Zm.13-1.99-.13-1.46-.47.66-.12.14h-.26l-.01-.01h-.02a2.36 2.36 0 0 1-.14-.04l-.35.6.61.59c.01-.1.1-.32.35-.32.26 0 .38.03.4.04l.14-.2Zm-1.9-.93h-.02c-.33-.1-.73-.2-1.18-.32l.9.98.3-.66Zm-2.04 9.14c.18.05.28.23.24.4a8.16 8.16 0 0 1-1.25 2.54.33.33 0 0 1-.46.07.33.33 0 0 1-.06-.47c.27-.37.89-1.35 1.13-2.3a.33.33 0 0 1 .4-.24Zm6.92-17.33a.2.2 0 0 1 0 .3.62.62 0 0 1-.43.2.92.92 0 0 1-.13.11.71.71 0 0 1-.43.15.77.77 0 0 1-.59-.3 1.5 1.5 0 0 1-.43-.08.2.2 0 0 1-.12-.27.2.2 0 0 1 .27-.12c.07.02.19.06.31.06.13 0 .23-.02.28-.06l.06-.05h.58l.07.07c.02.03.06.06.1.07.02 0 .08 0 .17-.08a.2.2 0 0 1 .29 0Zm-1.35.45c.08.08.21.14.36.14.13 0 .24-.05.33-.11l.02-.01v-.01a.6.6 0 0 1-.17-.1h-.26a.74.74 0 0 1-.28.1Zm2.9 19.25c0 .31-.25.57-.56.57a.57.57 0 0 1-.57-.57.57.57 0 1 1 1.14 0Zm-.35 0c0 .12-.1.21-.21.21a.22.22 0 0 1-.22-.21c0-.12.1-.22.22-.22s.21.1.21.22Z"/><path d="M32.4 15.3h-.43v.43h-.42v-.43h-.43v.43h.43v.42h.42v-.42h.43v-.43Zm-4.02 0h.42v.43h-.42v-.43Zm-.85 0h.42v.43h.43v.42h-.43v-.42h-.42v-.43Zm1.27.43h.43v.42h-.43v-.42Z" fill="#fff"/></svg>