<!-- by TradingView --><svg width="56" height="56" viewBox="0 0 56 56" xmlns="http://www.w3.org/2000/svg"><path fill="url(#a)" d="M0 0h56v56H0z"/><path fill-rule="evenodd" d="M24 29v8.59l4 4 4-4V29h10.59L28 14.41 13.41 29H24Zm-13 1h12v8l5 5 5-5v-8h12L28 13 11 30Z" fill="#F0F5FF"/><path d="M28.75 15.75 15.24 29h-1.46l14.25-13.97.72.72Zm1.1 1.1L17.45 29H16l13.12-12.88.73.73Zm1.48 1.48L20.46 29H19l11.61-11.39.72.72Zm1.49 1.49L23.46 29H22l10.1-9.9.72.72Z" fill="url(#b)"/><path d="M32.87 21.13 41 29.11h1.46l-8.87-8.7-.72.72Zm-1.1 1.1 7.01 6.88h1.46l-7.75-7.6-.72.72Zm-1.49 1.49 5.5 5.39h1.46L31 22.99l-.73.73ZM28.8 25.2l3.98 3.9h1.46l-4.72-4.62-.72.72Z" fill="url(#c)"/><path d="M28.5 27v13.5l-.5 1-.5-1V27l.5-1 .5 1ZM27 40l-1-1V28l1-1v13Zm3-12v11l-1 1V27l1 1Zm-4.5 10.5-1-1V29l1-1v10.5Zm6-9.5v8.5l-1 1V28l1 1Z" fill="url(#d)"/><defs><linearGradient id="a" x1="28" y1="0" x2="28" y2="56" gradientUnits="userSpaceOnUse"><stop stop-color="#28338C"/><stop offset="1" stop-color="#1B2153"/></linearGradient><linearGradient id="b" x1="28.5" y1="16.5" x2="16.5" y2="29" gradientUnits="userSpaceOnUse"><stop stop-color="#323386"/><stop offset=".43" stop-color="#EA0D90"/><stop offset=".68" stop-color="#5991A0"/><stop offset=".97" stop-color="#375378"/></linearGradient><linearGradient id="c" x1="31.5" y1="22.5" x2="39" y2="29" gradientUnits="userSpaceOnUse"><stop stop-color="#2D3588"/><stop offset=".31" stop-color="#E51290"/><stop offset=".53" stop-color="#6BBAC8"/><stop offset=".78" stop-color="#3F5787"/></linearGradient><linearGradient id="d" x1="28" y1="26" x2="28" y2="41.5" gradientUnits="userSpaceOnUse"><stop stop-color="#3C6178"/><stop offset=".16" stop-color="#84CAE0"/><stop offset=".43" stop-color="#E90E90"/><stop offset=".75" stop-color="#28317C"/><stop offset="1" stop-color="#2E3782"/></linearGradient></defs></svg>