<svg width="224" height="224" viewBox="0 0 56 56" xmlns="http://www.w3.org/2000/svg"><path fill-rule="evenodd" d="M28 44a16 16 0 1 0 0-32 16 16 0 0 0 0 32Zm0 1a17 17 0 1 0 0-34 17 17 0 0 0 0 34Z" fill="#E6AF55"/><path fill-rule="evenodd" d="M28 43a15 15 0 1 0 0-30 15 15 0 0 0 0 30Zm-6-15h1.73a2 2 0 0 0-1.2-.93L22 28Zm6.93 0h6.93l-6.93-12-3.87 6.7c.92.45 1.73 1.1 2.37 1.89l1.5-2.59 1.73 3h-2.91c.6.88 1.02 1.9 1.18 3ZM28 29a6 6 0 1 1-12 0 6 6 0 0 1 12 0Zm-3 0a3 3 0 1 1-6 0 3 3 0 0 1 6 0Zm7 5v-5h3v2h3v-3h-1l-1.88-3H41v9h-9Z" fill="#E6AF55"/></svg>