<svg width="224" height="224" viewBox="0 0 56 56" xmlns="http://www.w3.org/2000/svg"><path d="m41.44 22-.4-.18c-.34-.21-.69-.41-1.04-.6-.36-.3-.74-.57-1.14-.82a13.7 13.7 0 0 0-.9-.8c-.21-.24-.44-.5-.67-.73a8.5 8.5 0 0 0-.73-.67c-.25-.33-.52-.64-.8-.95-.22-.34-.45-.69-.7-1.01l-.17-.34c-.17-.3-.34-.6-.52-.87l-.13-.34c-1.6-3.64-3.75-5.65-6.07-5.68-2.32-.04-4.52 1.95-6.17 5.55l-.17.39c-.22.33-.42.69-.62 1.06-.21.26-.42.54-.62.83l-.17.26c-.22.23-.44.47-.65.72l-.19.24c-.5.42-.96.87-1.38 1.35l-.25.19a17 17 0 0 0-.77.67c-.33.2-.65.43-.96.67l-.36.18-.88.51-.33.14C11.02 23.36 9 25.5 8.97 27.84c-.04 2.32 1.95 4.51 5.56 6.17l.4.17c.33.22.66.42 1.03.61l.84.63.3.19c.3.28.6.55.93.8.4.5.85.96 1.33 1.39.27.33.54.66.83.97.22.36.45.7.7 1.02l.18.34c.16.3.33.6.5.87l.14.33c1.6 3.64 3.75 5.65 6.07 5.69h.04c2.3 0 4.49-1.98 6.13-5.56l.18-.4c.2-.34.41-.67.6-1.04a13.1 13.1 0 0 0 .8-1.1c.22-.23.44-.47.65-.72l.19-.24a12.65 12.65 0 0 0 1.4-1.37c.33-.26.64-.53.94-.8.36-.23.7-.46 1.02-.7l.34-.19c.3-.16.6-.33.87-.5l.34-.14c3.63-1.6 5.65-3.75 5.68-6.07.03-2.33-1.92-4.53-5.52-6.19Zm1.95 6.14c-.02 2.34-1.24 4.5-3.27 6.22l-.11.04a10.22 10.22 0 0 0 2.3-6.27c0-2.29-.77-4.51-2.18-6.32l.12.05c2.05 1.8 3.16 4 3.14 6.28Zm-30.8-.28c.03-2.34 1.25-4.5 3.27-6.22l.1-.04a10.2 10.2 0 0 0-2.28 6.27c0 2.3.76 4.52 2.18 6.32l-.12-.06c-2.06-1.8-3.17-3.98-3.14-6.27Zm25.95-6.95-.37-.11-.05-.12.37.16.05.07ZM28.06 39.4h-.16a16.38 16.38 0 0 1-7-1.6l-.1-.43c2.28.8 4.69 1.2 7.11 1.21h.22c2.35.01 4.7-.36 6.93-1.1l-.12.44c-2.16.99-4.52 1.5-6.9 1.48h.02Zm6.75-1.05-.15.46a12.53 12.53 0 0 1-6.77 1.88 12.6 12.6 0 0 1-6.73-2l-.14-.46c2.16.99 4.5 1.5 6.88 1.52h.16c2.32 0 4.61-.48 6.73-1.4h.02Zm-6.68-.1h-.22c-2.46 0-4.9-.44-7.22-1.26l-.1-.41c2.4.63 4.86.95 7.33.96h.3c2.37.01 4.73-.26 7.04-.82l-.1.39a21.57 21.57 0 0 1-7.05 1.13l.02.01ZM16.59 27.9c.01-2.43.56-4.82 1.61-7l.43-.12c-.8 2.3-1.2 4.7-1.2 7.12-.04 2.43.33 4.84 1.08 7.15l-.43-.12a16.35 16.35 0 0 1-1.5-7.03h.01Zm1.06 6.9-.45-.14a12.62 12.62 0 0 1 .12-13.51l.45-.14c-.98 2.16-1.5 4.5-1.5 6.88-.04 2.38.43 4.73 1.37 6.91h.01Zm10.3-18.21h.16c2.42.01 4.82.56 7 1.61l.11.43c-2.29-.8-4.7-1.2-7.12-1.22-2.42-.03-4.84.35-7.14 1.1l.12-.45a16.3 16.3 0 0 1 6.86-1.47Zm-6.74 1.05.14-.46c2-1.23 4.3-1.88 6.65-1.88h.12c2.4.02 4.73.72 6.74 2l.14.47c-2.16-.99-4.51-1.5-6.89-1.51-2.38-.04-4.73.43-6.92 1.38h.02Zm6.68.1h.22c2.46.01 4.9.44 7.21 1.27l.1.41a29.28 29.28 0 0 0-7.32-.96c-2.47-.04-4.93.23-7.33.82l.1-.4a21.68 21.68 0 0 1 7-1.13h.02Zm8.36 2.56-.33-.08-.07-.33.32.1.08.3Zm.3-.2.33.11.1.26-.36-.09-.09-.28h.01Zm-8.63 16.18a39.31 39.31 0 0 1-7.56-.77c-.9-5.01-.85-10.14.14-15.13 2.37-.43 4.77-.65 7.18-.64h.4c2.53.02 5.06.28 7.55.78.45 2.5.67 5.03.64 7.57a39.34 39.34 0 0 1-.79 7.55c-2.5.47-5.02.68-7.56.64Zm7.5-.28-.1.37c-2.42.6-4.91.89-7.41.85-2.5-.01-4.99-.35-7.4-1l-.08-.37c2.47.5 4.97.75 7.49.77h.39c2.38 0 4.76-.21 7.1-.64V36ZM20 35.43l-.37-.08a30.09 30.09 0 0 1 .14-14.83l.37-.07A40.98 40.98 0 0 0 20 35.43Zm.56-15.4.09-.37c2.33-.58 4.72-.87 7.13-.86h.29a29 29 0 0 1 7.4 1l.07.37a39.79 39.79 0 0 0-7.48-.76c-2.51-.04-5.02.16-7.5.6v.02Zm16.03 8.06c.03-2.52-.18-5.04-.62-7.52l.36.08c.6 2.43.9 4.93.86 7.43-.01 2.5-.35 5-1 7.4l-.37.08c.5-2.46.75-4.97.77-7.48v.01Zm-.83-8.55-.09-.37.26.1.11.35-.28-.08Zm-15.38-.15-.28.07.1-.33.26-.1-.08.36Zm-.1.37-.06.33-.34.07.1-.32.31-.08Zm-.76.48-.37.08.1-.25.33-.11-.06.28Zm-.77.17-.37.1.1-.18.35-.12-.08.2Zm-1 7.5c0-2.45.43-4.9 1.26-7.21l.41-.1a29.33 29.33 0 0 0-.97 7.33 29.6 29.6 0 0 0 .83 7.33l-.4-.1a21.73 21.73 0 0 1-1.15-7.25h.02Zm1.63 7.7.07.28-.33-.1-.1-.26.36.08Zm.36.09.34.07.07.33-.32-.09c-.05-.1-.07-.2-.1-.31h.01Zm.49.77.08.37-.26-.1-.1-.34.28.07Zm15.37.15.28-.08-.1.34-.26.1.08-.36Zm.1-.37.06-.33.34-.07-.1.34-.3.06Zm.76-.48.37-.09-.1.26-.35.11.08-.28Zm.1-.36c.63-2.4.95-4.85.96-7.33.04-2.46-.24-4.93-.82-7.33l.4.1a21.67 21.67 0 0 1 1.13 7.24c0 2.46-.43 4.9-1.26 7.22l-.4.1Zm2-7.32a22 22 0 0 0-1.08-7.15l.43.13c1 2.2 1.51 4.6 1.48 7.02a16.4 16.4 0 0 1-1.6 7l-.43.12a22.1 22.1 0 0 0 1.2-7.12Zm1.17 0c.03-2.37-.45-4.73-1.4-6.9l.47.14a12.64 12.64 0 0 1-.13 13.5l-.46.15a16.8 16.8 0 0 0 1.52-6.87v-.02Zm-2-7.44-.37-.1-.08-.2.35.12.1.18Zm-.6-.7-.09-.21.26.12.1.18-.27-.1Zm-.42-.15-.28-.09-.09-.3.25.11.12.28Zm-.52-.8a7.74 7.74 0 0 0-.1-.26l.16.1.12.24-.18-.07Zm-.41-.16-.21-.08-.09-.36.18.1.12.34Zm-.42-.87-.1-.37.07.05.15.37-.12-.05Zm-7.27-3.01c-2.32-.03-4.6.57-6.61 1.73l.08-.23A9.93 9.93 0 0 1 28.11 14c2.4.05 4.7.97 6.49 2.58l.08.23a12.98 12.98 0 0 0-6.57-1.85v-.01Zm-7.21 2.5-.1.35-.13.06.16-.36.07-.05Zm-.24.79-.1.38-.21.08.14-.37.17-.1Zm-.71.6-.2.1.13-.28.17-.1c-.02.1-.06.2-.1.3v-.01Zm-.14.42-.1.28-.29.09.11-.25.28-.12Zm-.81.5-.27.09.1-.15.25-.12-.08.18Zm-.75.27-.16.06.18-.1-.02.04Zm-.3.56-.35.1.04-.07.37-.15-.06.12Zm-2.99 7.27a12.9 12.9 0 0 0 1.75 6.61l-.24-.08A9.98 9.98 0 0 1 14 27.86c.04-2.4.95-4.7 2.56-6.48l.24-.09c-1.19 2-1.82 4.27-1.84 6.6v-.02Zm2.52 7.22.35.1.05.12-.36-.15-.03-.06-.01-.01Zm.78.23.36.1.08.2-.33-.12-.11-.18Zm.6.7.08.21-.25-.12-.1-.18.27.1Zm.41.15.28.1.1.29-.26-.11-.1-.27-.02-.01Zm.5.81.1.26-.16-.1-.12-.24.19.08Zm.42.17.2.08.1.35-.18-.1-.12-.33Zm.41.87.1.35-.07-.05-.14-.36.11.06Zm7.27 3h.12c2.29.01 4.53-.59 6.5-1.73l-.08.24a9.96 9.96 0 0 1-6.54 2.44 9.96 9.96 0 0 1-6.49-2.58l-.08-.24a12.93 12.93 0 0 0 6.58 1.88Zm7.22-2.5.1-.36.13-.05-.16.38-.07.04Zm.23-.79.1-.36.21-.08-.13.35-.18.1Zm.72-.6.2-.08-.13.25-.18.1.1-.26Zm.13-.41.1-.28.3-.1-.12.26-.28.12Zm.81-.5.27-.1-.08.16-.26.12.08-.19Zm.17-.41.08-.21.37-.1-.1.18-.35.13Zm.89-.42.35-.1a.83.83 0 0 0-.05.07l-.37.15.07-.12ZM41 28.12c.03-2.32-.57-4.6-1.73-6.61l.23.08a9.98 9.98 0 0 1 2.46 6.54 10 10 0 0 1-2.57 6.48l-.22.08a12.99 12.99 0 0 0 1.84-6.57Zm-2.91-7.79-.23-.1-.04-.06.26.16Zm-1.14-.98-.12-.06-.06-.12.12.08.06.1Zm-1.02-1.08-.07-.17.11.19-.04-.02Zm-1.55-2.29a10.2 10.2 0 0 0-6.28-2.3h-.09a10.2 10.2 0 0 0-6.22 2.17 1 1 0 0 1 .05-.1c1.78-2.04 3.95-3.15 6.2-3.15h.07c2.34.03 4.51 1.25 6.22 3.27.03.03.05.07.06.11h-.01Zm-14.08 1.9-.09.23-.06.03.15-.25Zm-.97 1.13-.07.14-.13.07.08-.14.12-.07Zm-1.46 16.66.22.1.03.06-.24-.15h-.01Zm1.12.98.13.06.05.13-.11-.08-.07-.11Zm1.03 1.09.06.17-.1-.2.04.03Zm1.55 2.28c1.78 1.44 4 2.25 6.28 2.28h.1c2.25 0 4.45-.76 6.23-2.15 0 .04-.03.07-.04.1-1.8 2.04-3.95 3.15-6.22 3.15h-.1c-2.33-.02-4.5-1.24-6.21-3.26a.3.3 0 0 0-.03-.12h-.01Zm14.07-1.9.1-.23.06-.04-.15.27Zm.98-1.14.06-.12.13-.06-.07.1-.12.08Zm1.1-1.03.17-.06-.2.1a.26.26 0 0 0 .04-.04h-.01Zm-9.6-23.68h-.07a8.3 8.3 0 0 0-5.74 2.5c1.6-2.33 3.6-3.72 5.77-3.72h.05c2.14 0 4.16 1.38 5.78 3.87a8.27 8.27 0 0 0-5.78-2.65h-.01Zm-13.22 9.8a8.23 8.23 0 0 0-2.66 5.79 8.27 8.27 0 0 0 2.5 5.8c-2.35-1.6-3.74-3.62-3.72-5.81.02-2.19 1.4-4.17 3.89-5.79h-.01Zm12.93 21.66h.07c2.06 0 4.03-.87 5.73-2.5-1.59 2.33-3.6 3.72-5.76 3.72h-.04c-2.14-.02-4.16-1.39-5.78-3.87a8.28 8.28 0 0 0 5.78 2.65Zm13.24-9.79a8.31 8.31 0 0 0 2.65-5.78 8.27 8.27 0 0 0-2.5-5.8c2.34 1.6 3.74 3.62 3.72 5.8-.03 2.2-1.4 4.15-3.87 5.78ZM28.13 9.34h.03c1.9.03 3.68 1.5 5.14 4.18-1.5-1.8-3.28-2.78-5.15-2.8-1.92-.02-3.71 1.01-5.23 2.76 1.49-2.69 3.31-4.14 5.21-4.14Zm-18.8 18.5c.02-1.9 1.49-3.68 4.17-5.13-1.8 1.5-2.78 3.28-2.8 5.15 0 1.92 1 3.72 2.77 5.23-2.68-1.51-4.16-3.35-4.14-5.26v.01Zm18.53 18.84h-.02c-1.9-.02-3.68-1.5-5.14-4.18 1.52 1.8 3.29 2.78 5.15 2.8h.05c1.9 0 3.68-1 5.19-2.77-1.5 2.67-3.33 4.13-5.23 4.13v.02ZM42.49 33.3c1.8-1.5 2.77-3.28 2.79-5.14.02-1.93-1-3.72-2.77-5.24 2.7 1.5 4.17 3.34 4.15 5.25-.02 1.9-1.49 3.7-4.17 5.13Z" fill="#EA3F27"/><defs><linearGradient id="a11eqxled" x1="10.42" y1="9.71" x2="68.15" y2="76.02" gradientUnits="userSpaceOnUse"><stop stop-color="#1A1E21"/><stop offset="1" stop-color="#06060A"/></linearGradient></defs></svg>