<svg width="56" height="56" viewBox="0 0 56 56" xmlns="http://www.w3.org/2000/svg"><path d="M28.32 13 26 18h13l-1.7-3c-.7-1.24-1.95-2-3.3-2h-5.68ZM27.68 43 30 38H17l1.7 3c.7 1.24 1.95 2 3.3 2h5.68Z" fill="#FD6104"/><path d="M22.63 13h2.32L18 25.57c-.95 1.73.27 3.43 2.22 3.43h13.16c.5 0 .79.56.52.97L31.9 33.5c-.2.31-.54.5-.9.5H16.2a2.7 2.7 0 0 1-2.36-1.4l-1.36-2.46a3.96 3.96 0 0 1-.01-3.8l5.86-10.77A4.89 4.89 0 0 1 22.63 13Z" fill="#FD6104"/><path d="M33.37 43h-2.32L38 29.83A2.55 2.55 0 0 0 35.78 26H22.62c-.5 0-.79-.58-.52-1.02l1.99-3.46c.2-.32.54-.52.9-.52h14.8c.98 0 1.88.56 2.36 1.47l1.36 2.58c.65 1.23.65 2.74.01 3.98L37.66 40.3A4.86 4.86 0 0 1 33.37 43Z" fill="#FD6104"/></svg>