<svg width="56" height="56" viewBox="0 0 56 56" xmlns="http://www.w3.org/2000/svg"><path fill-rule="evenodd" d="M34 13.53v11.4l-2.71.64-2.6 2.3c-.33.3-.87.06-.87-.39v-1.2l-2.81.7c-.58.15-1.19.02-1.65-.34L22 25.57v-11.5l9.02-2.06c.16-.04.31.04.38.18.1.19-.02.42-.23.46l-8.19 1.85 1.07.62c.53.3 1.16.4 1.76.26L34 13.53Zm-1.22 3.05a.3.3 0 0 0 .21-.35.28.28 0 0 0-.33-.22l-6.44 1.4a.3.3 0 0 0-.21.36c.03.15.18.26.33.22l6.44-1.4Zm.21 2.65a.3.3 0 0 1-.21.35L26.34 21a.28.28 0 0 1-.33-.22.3.3 0 0 1 .21-.35L32.66 19c.15-.04.3.07.33.22Zm-.21 3.35a.3.3 0 0 0 .21-.35.28.28 0 0 0-.33-.22l-6.44 1.4a.3.3 0 0 0-.21.36c.03.15.18.26.33.22l6.44-1.4Z" fill="#9F29FB"/><path d="M10.4 31H17l-.4 2H10l.4-2ZM12.13 34H14l-1.13 6H11l1.13-6Z" fill="#fff"/><path d="M29.39 38H32l-.39 2H29l.39-2Z" fill="#9F29FB"/><path d="M27.77 31H30l-1.77 9H26l1.77-9ZM35.77 31H38l-1.77 9H34l1.77-9ZM43.77 31H46l-1.77 9H42l1.77-9Z" fill="#fff"/><path d="M42.52 31h-2.33l-3.14 4.5 1.43 4.5h2.33l-1.43-4.5 3.14-4.5ZM20.27 33.43 16 40h2.5l2.43-3.54-.66-3.03Z" fill="#fff"/><path d="m21.88 31-1.08 1.83 1.08 5.09h-1.25L19.13 40H25l-2.3-9h-.82Z" fill="#fff"/></svg>