<svg width="224" height="224" viewBox="0 0 56 56" xmlns="http://www.w3.org/2000/svg"><path d="M37.48 20.91a.6.6 0 0 0 .2-.2c-.07-.26-.15-.5-.23-.73-.16-.47-.16-.84-.16-1.31 0-.47-.19-.97-.36-1.42l-.06-.15c-.11-.3-.23-.65-.33-1.01-.18-.6-.46-1.5-.96-1.89a7 7 0 0 1-.58-.5c-.14-.15-.3-.23-.46-.31-.15-.09-.3-.17-.43-.3a4.83 4.83 0 0 0-2.05-.95 4.26 4.26 0 0 0-3.2.41c-.67.31-1.35.65-2.02 1.02-.2.12-.36.25-.52.38-.13.11-.25.22-.4.31-.39.25-.63.53-.9.84l-.21.25c-.56.62-.64 1.75-.7 2.58l-.02.2a15 15 0 0 0 .05 3.03c0 .06-.04.08-.09.05a1.3 1.3 0 0 0-.84-.08c.6.23 1.1.52 1.5.89.04.04.1.06.15.07 7.5 1.32 7.2-1.39 12.54-.84 0-.1-.03-.27.08-.34Z" fill="#1E100D"/><path d="M38.22 21.03c.02.16.07.3.17.42.2-.45-.12-1.19-.7-.75a.6.6 0 0 1-.21.21.17.17 0 0 0-.08.14c-4.6 8.87-8.64 4.24-12.79 2.43a.81.81 0 0 0-.03.39c.06.3.25.77.35 1.09.12.34.2.7.26 1.07 0 .06-.02.1-.07.11l-.18.07a.16.16 0 0 0-.12.15l-.02.25c-.03.43.12 1.3-.2 1.64-.4.4-.7.88-.9 1.43a94 94 0 0 1-1.09 2.74c-.12.3-.32.54-.6.73-.94.66-2.03 1.18-3.04 1.73a8.8 8.8 0 0 0-3.33 3.3 10.27 10.27 0 0 0-1.64 4.6c-.01.15.05.22.2.22H40c-1.33-2.34-1.61-3.05-6.27-7.15a.18.18 0 0 1-.07-.16 5 5 0 0 1 1.86-3.35.29.29 0 0 0 .09-.14c.13-.44-.02-.82-.17-1.21-.07-.19-.16-.38-.03-.57.16-.24.34-.48.51-.71.35-.46.7-.9.93-1.44.3-.65.48-1.33.56-2.03.08-.16.13-.35.15-.56.2-1.26.03-3.42.2-4.64.11-.2.24-.25.38-.15a.2.2 0 0 1 .08.14Z" fill="#0F100F"/><path d="M31.6 12.29c-.13.03-.17.1-.12.18.01.03.03.06.06.08.03.04.03.07 0 .1a.13.13 0 0 1-.06.01c-.05.01-.07.04-.06.08.1.38-.12.81-.27 1.15-.1.24-.2.5-.28.76-.16.49-.34.98-.53 1.49-.17.44-.33.98-.47 1.6-.06.28-.1.55-.12.82l-.05.69c-.39-.25-.82-.48-1.3-.7a1.97 1.97 0 0 1-1.06-1.01 2.78 2.78 0 0 1 .58-3.17c.51-.56 1.04-1.13 1.6-1.7a2.6 2.6 0 0 1 2.08-.38Z" fill="#F3AB89"/><path d="m31.6 12.29 1.75.55c-.14.08-.18.17-.1.3l.06.03c.03 0 .06.02.07.05.3.73.56 1.48.78 2.25.19.64.48 1.21.72 1.83.16.42.17.86.13 1.3a.36.36 0 0 1-.2.31c-.76.37-2.46 1.75-.58 1.7a.17.17 0 0 1-.15.09 5.3 5.3 0 0 0-.83.1c-.05-.62-.1-1.11-.16-1.47-.07-.5-.14-.5-.2 0-.04.47-.04 1.01.03 1.63-.01.1.01.29-.13.29h-.36c-.09 0-.1-.04-.06-.11.07-.1.18-.22.18-.35 0-.17-.03-.41-.09-.72a.66.66 0 0 0-.3-.48c-.11-.06-.17-.05-.18.03-.17.1-.47-.16-.23 1.3l-.6-.19-.37-.12-1.34-.46c-.07-.03-.07-.05 0-.06.28-.05.56-.05.84 0 .06 0 .11 0 .16-.05.09-.09.09-.17 0-.24a9.4 9.4 0 0 0-.74-.55l.05-.69c.01-.27.06-.54.12-.81.14-.63.3-1.17.47-1.61.19-.5.37-1 .53-1.5l.28-.75c.15-.34.37-.77.27-1.15-.01-.04 0-.07.06-.08l.05-.01c.04-.03.04-.06 0-.1a.31.31 0 0 1-.05-.08c-.05-.09 0-.15.12-.18Z" fill="#FFB88F"/><path d="m29.51 12.67-1.6 1.7a2.78 2.78 0 0 0-.57 3.17c.2.48.6.79 1.07 1a10.46 10.46 0 0 1 2.03 1.26c.14.12 0 .32-.16.29-.13-.02-.98 0-.84.06l1.34.46a6.46 6.46 0 0 0-2.62-.16c-.24.05-.5.26-.8.64-1.23-.3-.8-1.05-1.23-1.92-1.13-.7-1.1-2.55-.59-3.63.14-.3.23-.6.34-.9.67-.51 1.1-.84 1.29-.97a8.9 8.9 0 0 1 1.8-.95l.54-.05Z" fill="#BC694D"/><path d="M33.35 12.84c.2.16.48.35.85.55.43.25.86.57 1.28.97.24.23.42.52.56.86a25.2 25.2 0 0 1 1.01 3.12c.1.45.22 1.42.35 2.91l-.08 4.28c0 .26-.04.5-.12.71-.1.04-.85.12-1.05.15a.3.3 0 0 1-.21-.06c-.5-.36-.82-.87-.98-1.53a.39.39 0 0 1 .25-.45c.45-.16.74-.4.86-.73.15-.07.29-.18.42-.33.43-.3.79-.7.47-1.26.18-.43.17-.78-.05-1.06-.2-.3-.43-.52-.71-.69-.3-.17-.57-.11-.87-.02-.32 0-.63.05-.93.12a.23.23 0 0 0-.13.07.2.2 0 0 0-.04.16l-.7.02a.15.15 0 0 1-.1-.04.15.15 0 0 1-.05-.08c-.06-.26-.04-.52.07-.8a.12.12 0 0 1 .14-.07c.04.01.07 0 .1-.02.34-.28.7-.51 1.11-.7.13-.07.2-.18.21-.32.04-.44.03-.88-.13-1.3-.24-.62-.53-1.2-.72-1.83-.22-.77-.48-1.52-.78-2.25a.09.09 0 0 0-.07-.05.08.08 0 0 1-.06-.04c-.08-.12-.04-.21.1-.29Z" fill="#FFDCB5"/><path d="m25.88 14.63-.16.46c-.04.13-.1.28-.18.45-.51 1.08-.54 2.94.6 3.63.29.17 2.1.21 2.04.54a.25.25 0 0 1-.1.15c-.2.17-.4.35-.6.55-.37.38-.41.61-.12.68l-.44.77a.22.22 0 0 0-.01.2.13.13 0 0 0 .14.08l.05-.02.54-.4a.12.12 0 0 1 .15 0 .13.13 0 0 1 .04.14l-.02.08a.88.88 0 0 0 .15 1.1c.16.17.3.28.44.34.89.38 1.73.33 2.54-.15.48-.28.68-.71.46-1.25-.18-.44 1.55-.06 1.68-.04a.44.44 0 0 1 .39.38c.05.42.3.73.75.93.72.31 1.48.33 2.27.04-.13.15-.27.26-.42.33-.2 0-.4.01-.59.05a2.1 2.1 0 0 1-.58.04 2.49 2.49 0 0 1-.93-.3 1.63 1.63 0 0 0-.44-.4.2.2 0 0 1-.09-.13 5.03 5.03 0 0 0-.2-.64.18.18 0 0 0-.14-.12c-.47-.11-.85-.01-1.12.3a.28.28 0 0 0-.08.17c-.04.53-.1 1.06-.2 1.59a.74.74 0 0 1-.16.36c-.12.13-.26.25-.44.36a.22.22 0 0 0-.06.32c.12.15.23.15.32-.01.05-.08.1-.12.18-.12l.02.4c.11.31.07.47-.14.49.02-.08.02-.14 0-.19a.1.1 0 0 0-.1-.07.47.47 0 0 1-.36-.16c-.4-.41-.34-.8.17-1.15.19-.14.26-.32.22-.55l-.05-.3c-.04-.2-.14-.25-.33-.14-.55.33-1.2.48-1.93.44-.82-.04-1.39.28-1.7.97-.2.45-.05.91.26 1.25.27.28.5.56.68.84.05.08.07.15.05.22-.1.01-.18-.03-.25-.11-.33-.39-.63-.71-.9-.98-.36-.34-.68-.68-.98-1.03-2.37-2.8-1.35-1.23-1.01 1.01 0 .06-.02.1-.07.11-.11.04-.28.07-.3.22l-.02.25c-.05-.24-.28-.35-.7-.33-.12 0-.27-.06-.45-.21-.13-.1-.24-.24-.32-.39-.53-.96-1.08-1.75-1.05-2.9.01-.53.03-1 .38-1.45.19-.23.37-.3.55-.2.6.23 1.1.52 1.5.89.12.1.4.02.24-.1-.28-.23-.5-.44-.57-.81a12.57 12.57 0 0 1 .04-4.11c.12-.6.23-1.01.33-1.25.19-.43.56-.8 1.13-1.12Z" fill="#883825"/><path d="M33.25 20.8c.36.2.65.29.88.25.48-.09.9-.1 1.27-.04.72.22 1.24.56 1.56 1.02.32.56-.05.96-.47 1.26-.8.29-1.55.27-2.27-.04-.45-.2-.7-.51-.75-.93a.43.43 0 0 0-.4-.38c-.42-.05-.8 0-1.14.15-.23.09-.1-.14 0-.2.17-.16.43-.27.77-.31.14-.02.24.03.3.15.19.03.27.18.44.2.04 0 .08 0 .12-.04v-.02c-.1-.07-.5-.19-.5-.46-.01-.16-.06-.31-.14-.45a7.67 7.67 0 0 1-.02-1.62c.05-.5.12-.5.2 0 .05.35.1.84.15 1.45Z" fill="#0F100F"/><path d="M31.98 19.62c.05.47.06.87.03 1.23 0 .05-.03.09-.07.12-.06.02-.12 0-.19-.06l-.26-1.57c-.03-.12.21-.25.25-.1.03.14.11.27.24.38Z" fill="#FFDCB5"/><path d="M32.16 19.6c.17.1.27.25.3.47.06.3.09.55.09.72 0 .06-.02.1-.05.16l-.13.19c-.05.07-.03.1.06.1h.36c.07 0 .1-.03.1-.09l.03-.2c.08.15.13.3.15.46 0 .14-.02.24-.07.32-.06-.12-.16-.17-.3-.15-.34.04-.6.15-.76.31-.07.04-.12.03-.14-.03.1-.1.18-.15.21-.28.04-.18.1-.35.18-.52.18-.42.07-1.03-.03-1.47Z" fill="#BC694D"/><path d="M36.91 20.97a2.83 2.83 0 0 0-1.51.04 3.72 3.72 0 0 0-1.27.04c-.23.04-.52-.05-.88-.26.22-.04.5-.07.83-.1.07 0 .12-.03.15-.08l1.1-.35c.3-.09.58-.15.87.02.28.17.51.4.71.7Z" fill="#582F1E"/><path d="m35.33 20.26-1.1.35c0-.06 0-.11.04-.16a.23.23 0 0 1 .13-.07c.3-.07.61-.11.93-.12Z" fill="#F3AB89"/><path d="M32.19 21.06c.18-.42.07-1.03-.03-1.47-.11-.06-.17-.05-.18.03.05.47.06.87.03 1.23 0 .05-.03.09-.07.12-.1.31-.24.5-.42.54-.29-.19-.48-.34-.58-.44-.05-.05-.06-.1-.05-.14.02-.05.06-.08.12-.08.07 0 .12-.03.14-.12l-.37-.12a6.45 6.45 0 0 0-2.62-.16c-.24.05-.5.26-.8.64l-.44.77a.22.22 0 0 0-.01.2.13.13 0 0 0 .14.08l.05-.02.54-.4a.12.12 0 0 1 .2.07v.07l-.03.08a.88.88 0 0 0 .15 1.1c.16.17.3.28.44.34.89.38 1.73.33 2.54-.15.48-.28.68-.71.46-1.25a.12.12 0 0 1 .09-.17h.07c.07.04.15.05.24.05l.05-.05c.07-.07.14-.13.16-.23.04-.18.1-.35.18-.52Z" fill="#1E100D"/><path d="m31.15 20.73.6.18c.07.06.13.08.19.06-.1.31-.24.5-.42.54-.29-.19-.48-.34-.58-.44-.05-.05-.06-.1-.05-.14.02-.05.06-.08.12-.08.07 0 .12-.03.14-.12Z" fill="#582F1E"/><path d="m38.39 21.45-.07 1.11c.07.97-.1 1.15-.18 1.33-.12.24-.3.13-.34-.13-.1-.86-.12-1.76-.05-2.72.12-.2.25-.25.4-.15a.2.2 0 0 1 .07.14c.02.16.07.3.17.42Z" fill="#FFDCB5"/><path d="M36.91 20.97c.22.28.23.63.05 1.06-.32-.46-.84-.8-1.56-1.02.48-.15.98-.16 1.51-.04Z" fill="#FFB88F"/><path d="M37.75 21.04c-.07.96-.05 1.86.05 2.72.03.26.1.27.22.03l.24-.16-.7 2.05c0-1.44-.05-4.01.2-4.64Z" fill="#F3AB89"/><path d="M33.07 21.4c0 .16.15.3.47.41l.01.02.01.01v.05a.12.12 0 0 1-.12.04c-.17-.02-.25-.17-.44-.2a.57.57 0 0 0 .07-.32Z" fill="#582F1E"/><path d="m33.97 23.4-.98-.59c0-.02-.03-.04-.06-.03-.05-.2-.17-.26-.34-.16-.11.06-.23.16-.37.3a.72.72 0 0 0-.2.4c-.12.71.02 1.33.41 1.84a.49.49 0 0 0-.23.02.68.68 0 0 1-.27-.29.16.16 0 0 0-.26-.03.66.66 0 0 0-.13.23c-.07 0-.13.04-.18.12-.1.16-.2.16-.32 0a.22.22 0 0 1 0-.25.21.21 0 0 1 .06-.06c.18-.1.32-.23.44-.36.08-.09.13-.21.16-.36.1-.53.16-1.06.2-1.59 0-.06.03-.12.08-.17.27-.31.65-.41 1.12-.3.06.02.11.05.13.12.09.21.16.43.21.64.01.06.04.1.09.13.17.11.32.24.44.4Z" fill="#CA7552"/><path d="M32.93 22.78h-.09c-.06 0-.1.04-.1.1-.04.4 0 .76.1 1.07.11.37.06.73.01 1.1 0 .07.02.1.08.13l.13.04-.19.1-.44-.16a2.31 2.31 0 0 1-.42-1.85c.03-.15.1-.29.21-.4.14-.13.26-.23.37-.3.18-.09.29-.03.34.17Z" fill="#FFB88F"/><path d="M32.99 22.81c.37.48.8 1.39.4 2-.06.07-.06.18 0 .3l-.33.11-.13-.04c-.06-.02-.08-.06-.08-.13.05-.37.1-.73-.02-1.1-.1-.31-.13-.67-.09-1.07 0-.08.22-.16.25-.07Z" fill="#FFDCB5"/><path d="m32.99 22.81.98.6c.28.15.59.25.93.3.13.01.33 0 .58-.04.2-.04.39-.05.6-.05-.13.32-.42.57-.87.73a.4.4 0 0 0-.25.45c.16.66.48 1.17.98 1.53a.3.3 0 0 0 .21.06c.6-.08.5-.16.92-.13.04 0 .08 0 .13-.02a2 2 0 0 1-.22.65l-.32.48c-.4.64-.9 1.14-1.52 1.51l-1.18 1.63a.18.18 0 0 1-.14.08c-.96.07-1.83.21-2.8-.05-.04-.02-.09-.06-.12-.14.04-.2.15-.32.33-.38l.43-.14.42-.24c.12-.07.2-.05.25.07.02.05.06.09.12.1.21.05.35-.01.42-.2l.23-.11c.12-.08.23-.2.36-.39a.48.48 0 0 0 .28-.23l.71-.24c.15-.04.2-.14.33-.22.04-.16 0-.25-.11-.27-.12-.31-.23-.5-.34-.56-.24-.14-.29-.28-.15-.4.36.24.65.54.86.88.03.04.1.04.12 0a1 1 0 0 0-.1-.97c.03.07.07.07.1 0a.16.16 0 0 0 .02-.13c-.2-.67-.63-.99-1.29-.95l-.3-.17c-.04-.03-.04-.05 0-.08.16-.1.26-.2.3-.34.09-.21.07-.37-.04-.48-.05-.04-.1-.05-.16-.01l-.3.18c-.06-.13-.06-.24 0-.32.08-.13-.13-1.1-.17-1.16a.32.32 0 0 1-.04-.19.88.88 0 0 0-.2-.64Z" fill="#FFB88F"/><path d="m28.33 27.14.18.19c-.05.8-.04 1.63.02 2.46.02.36.13.83.46 1.03.11.07.2.15.28.24.04.05.1.09.15.12.16.06.28.16.36.28a4.52 4.52 0 0 1-1.35-.54 9.3 9.3 0 0 1-1.5-1.24c-.32-.3-.56-.7-.73-1.16-.25-.7-.43-1.32-.52-1.87-.06-.34-.24-.62-.3-.96l-.4-1.96a.2.2 0 0 0-.12-.14l-.25-.1c.04-.13 0-.58.34-.26a11.98 11.98 0 0 0 2.23 2.82c.27.27.57.6.9.98.07.08.15.12.25.1Z" fill="#411A11"/><path d="M31.42 25.98V26c-.64.27-1.14.6-1.5 1a.98.98 0 0 0-.27.67v.3c-.01.26.08.3.26.13a5.23 5.23 0 0 1 2.07-1.2c.2-.07.44-.1.7-.08.25.02.49.02.73.01.2 0 .45.11.77.35-.14.13-.09.26.15.4.1.07.22.26.34.57a4.1 4.1 0 0 0-2.36-.5c-.24-.04-.4-.14-.5-.3a.2.2 0 0 0-.2-.1.2.2 0 0 0-.07.03c-.14.1-.29.17-.46.2a.26.26 0 0 0-.14.1l-.47.56a.24.24 0 0 1-.09.1c-.04 0-.08.02-.1.05-.02.04-.02.08.02.12.17.14.35.22.53.21.06 0 .11.02.16.06.15.14.32.24.5.3.14 0 .25.03.33.1.06.29.16.44.3.45.3.16.55.19.75.09-.07.18-.21.24-.42.19a.17.17 0 0 1-.12-.1c-.05-.12-.14-.14-.25-.07a48 48 0 0 1-.42.24l-.43.14a.49.49 0 0 0-.33.38l-.08-.02c-.26-.33-.55-.57-.73-.95a3.2 3.2 0 0 0-.75-1.13 5.3 5.3 0 0 1-.83-.97l-.18-.2c.02-.06 0-.13-.05-.21-.19-.28-.41-.56-.68-.84-.31-.34-.46-.8-.26-1.25.31-.69.88-1 1.7-.97.74.04 1.38-.1 1.93-.44.19-.11.3-.06.33.14l.05.3a.52.52 0 0 1-.22.55c-.5.35-.56.74-.18 1.15.1.11.23.16.37.16a.1.1 0 0 1 .1.07c.02.05.02.11 0 .19Z" fill="#CA7552"/><path d="M32.2 25.18c.17.14.4.19.67.14l.2-.1.31-.1.31-.18c.06-.04.1-.03.16.01.11.11.13.27.04.48-.8.14-1.57.16-2.33.07l-.02-.4c.03-.1.08-.18.13-.24a.16.16 0 0 1 .2-.02c.03.01.05.03.06.05.07.14.16.23.27.29Z" fill="#1E100D"/><path d="M32.2 25.18a.49.49 0 0 1 .23-.02l.44.16c-.27.05-.5 0-.67-.14Z" fill="#BC694D"/><path d="M31.56 25.5c.76.1 1.54.07 2.33-.07a.64.64 0 0 1-.3.34c-.04.03-.04.05 0 .08l.3.17c.34.43.73.79 1.17 1.08a1 1 0 0 1 .1.96.06.06 0 0 1-.06.04h-.03a2.97 2.97 0 0 0-.9-.91c-.31-.25-.57-.37-.76-.36h-.73c-.26-.02-.5 0-.7.08l-.8.31.49-.91a.43.43 0 0 1 .08-.11.24.24 0 0 0 .07-.21c0-.09-.05-.11-.13-.06a.46.46 0 0 1-.28.07l.01-.02c.2-.02.25-.18.14-.48Z" fill="#704932"/><path d="M31.17 27.22c-.47.23-.89.52-1.26.88-.18.17-.27.13-.27-.12l.01-.31c0-.26.1-.48.27-.66.36-.4.86-.74 1.5-1.01.08 0 .18-.02.27-.07.08-.05.12-.03.13.06.01.08-.01.15-.07.2a.43.43 0 0 0-.08.12l-.5.91Z" fill="#582F1E"/><path d="M35.06 27.1a5.03 5.03 0 0 1-1.17-1.08c.66-.04 1.09.28 1.3.95 0 .05 0 .1-.03.14-.03.06-.07.06-.1-.01Z" fill="#FFDCB5"/><path d="M36.98 26.9c-.08.77-.28 1.39-.61 1.83l-1.9 2.6c-.2.29-.55.53-.92.65-.57.18-1.16.25-1.78.23-.11-.14-.35-.39-.7-.75a.82.82 0 0 1-.22-.83c.03-.09-.04-.16-.03-.25l.08.02c.03.08.08.12.12.14.97.26 1.84.12 2.8.05.06 0 .1-.03.14-.08l1.18-1.63c.15.15 1.4-1.18 1.52-1.5l.32-.49Z" fill="#704932"/><path d="m32.31 27.65-1.5.27c-.05.01-.1.04-.13.1-.05.08-.12.12-.2.12l.46-.57a.26.26 0 0 1 .14-.08c.18-.05.5-.34.69-.2a.2.2 0 0 1 .05.06c.09.16.25.26.5.3Z" fill="#883825"/><path d="M28.51 27.33c.22.34.5.66.83.97.38.35.54.68.75 1.13.18.38.47.62.73.95 0 .34 0 .83.25 1.08.35.36.59.61.7.75a8.57 8.57 0 0 1-2-.75c-.43-.68-1.18-.61-1.24-1.67a19.3 19.3 0 0 1-.02-2.46Z" fill="#582F1E"/><path d="M32.31 27.65c.82-.07 1.6.1 2.36.5.1.02.15.1.11.27a.19.19 0 0 1-.17 0 3.7 3.7 0 0 0-1.15-.41c-.28-.04-.85 0-1.72.12l-1.24.24c-.05.01-.09-.01-.1-.06l-.02-.07a.24.24 0 0 0 .1-.1c.08 0 .15-.04.2-.13a.18.18 0 0 1 .14-.09l1.5-.27Z" fill="#411A11"/><path d="M34.78 28.42c-.12.08-.18.18-.33.22l-.7.24c0-.1-.07-.14-.2-.13-.6.06-1.17.04-1.73-.06-.02-.1-.05-.17-.1-.21a.15.15 0 0 1-.06-.14c0-.06.03-.13.08-.21a7.42 7.42 0 0 1 1.72-.12c.37.06.76.2 1.15.4.06.04.11.03.17 0Z" fill="#CA7552"/><path d="M31.74 28.13a.54.54 0 0 0-.08.21c-.01.06.01.1.05.14.06.04.1.11.1.21-.08 0-.63-.02-.38.23l.06.06a1.42 1.42 0 0 1-.5-.3.21.21 0 0 0-.16-.06.77.77 0 0 1-.53-.21c-.04-.04-.04-.08-.01-.12.02-.03.05-.04.1-.05l.01.07c.01.05.05.07.1.06l1.24-.24Z" fill="#883825"/><path d="M31.82 28.7c.56.1 1.14.11 1.73.05.13-.01.2.03.2.13a.48.48 0 0 1-.3.23c-.56.13-1.1.12-1.63-.03-.08-.07-.19-.1-.33-.1l-.06-.06c-.1-.1-.02-.26.11-.25l.28.02Z" fill="#411A11"/><path d="M31.82 29.08c.53.15 1.07.16 1.64.03-.13.19-.24.31-.36.39-.53-.2-.86-.2-.98.03-.14-.01-.24-.16-.3-.45Z" fill="#BC694D"/><path d="m33.1 29.5-.23.12c-.2.1-.45.07-.75-.09.12-.23.45-.24.98-.03Z" fill="#411A11"/><path d="M24.37 25.6c-.13.04-.17 0-.14-.13.12-.36.12-.74.02-1.14-.06-.24-.1-.5-.1-.75-.01-.58.15-1.26-.5-1.58-.47-.23-.54.46-.85.33a.28.28 0 0 1-.17-.18c-.01-.04 0-.07.04-.1l.52-.29a.35.35 0 0 1 .23-.04c.7.09 1.04.61 1.14 1.28 0 .05 0 .1-.04.16-.36.6-.28 1.21.23 1.84.03.03.05.08.04.12-.01.26-.16.42-.42.49Z" fill="#0F100F"/><path d="m23.63 23.34-.3-.4c-.1-.13-.07-.17.1-.11.25.1.35.26.28.5-.02.06-.04.06-.08.01Z" fill="#1E100D"/><path d="M29.51 27.03h-.01a.18.18 0 0 1-.07-.12l.01-.16a.83.83 0 0 1 .08-.2l.14-.2.04-.05.18-.16a.84.84 0 0 1 .17-.11.41.41 0 0 1 .17-.04c.04 0 .09.01.12.04v.01l-.83.99ZM31.67 32.54l-1.21.22c-.19-.23-.5-.36-.93-.37l-.96-.05a6.52 6.52 0 0 1-3.73-2 .79.79 0 0 1-.16-.86l.04-.08c.1-.28.27-.32.5-.14.96.79 1.84 1.43 2.65 1.93.36.23.78.37 1.27.45.27.03.53.1.79.21l.76.32.42.27c.16.1.35.14.56.1Z" fill="#883825"/><path d="m32.78 32.58-.31-.03c-.07 0-.1.03-.12.08a.69.69 0 0 1-.34.45c-.48.26-.97.58-1.47.76-.15.05-.23.2-.23.42l-.01-.83.16-.67 1.2-.22c.17-.03.43-.06.78-.08.13 0 .25.03.34.12Z" fill="#CA7552"/><path d="M32.78 32.58a17.45 17.45 0 0 0-1.39 3.96c-.07.35-.2.37-.4.07a4.94 4.94 0 0 1-.7-1.94c-.02-.15 0-.29.02-.4 0-.23.08-.38.23-.43.5-.19.98-.5 1.47-.76a.69.69 0 0 0 .34-.45c.01-.05.05-.08.12-.08l.3.03Z" fill="#FFB88F"/></svg>