<svg width="56" height="56" viewBox="0 0 56 56" xmlns="http://www.w3.org/2000/svg"><path d="M29 42.6V13.42a.06.06 0 0 1 .05-.06h.02A15.52 15.52 0 0 1 36.02 16a.15.15 0 0 0 .11-.02.16.16 0 0 0 .05-.05l1.7-2.46a.16.16 0 0 0 .03-.12.16.16 0 0 0-.07-.1 17.65 17.65 0 0 0-11.54-3.22 17.73 17.73 0 0 0-9 3.36.09.09 0 0 0 .01.07L19.06 16a.14.14 0 0 0 .1.06.13.13 0 0 0 .1-.03c1.99-1.43 4.2-2.3 6.65-2.62.05 0 .09.01.09.06v32.34c0 .07.02.12.1.12a17.54 17.54 0 0 0 11.89-3.32.1.1 0 0 0 0-.08.1.1 0 0 0 0-.03l-1.77-2.53-.04-.03a.1.1 0 0 0-.05-.01 15.55 15.55 0 0 1-7.07 2.74.08.08 0 0 1-.06-.08Zm-8.94-10.98a8.38 8.38 0 0 1-.8-3.62c0-1.27.27-2.48.8-3.6a8.42 8.42 0 0 1 5.43-4.64c.05-.01.07-.05.07-.1v-3.21a.08.08 0 0 0-.03-.07.08.08 0 0 0-.06-.01 11.74 11.74 0 0 0-8.71 7.42c-.5 1.25-.76 2.66-.76 4.21 0 1.56.25 2.96.76 4.21a11.74 11.74 0 0 0 8.74 7.43.08.08 0 0 0 .06-.08v-3.21c0-.06-.02-.09-.07-.1a8.42 8.42 0 0 1-5.43-4.63Zm12.4-10.63c-.07.1-.15.1-.25.04a7.8 7.8 0 0 0-2.66-1.28.12.12 0 0 1-.07-.04.13.13 0 0 1-.02-.07v-3.17a.1.1 0 0 1 .04-.07.1.1 0 0 1 .07-.02 11.62 11.62 0 0 1 4.6 2.03.1.1 0 0 1 0 .11L32.44 21Zm1.77 16.47-1.72-2.49c-.07-.1-.15-.11-.25-.04a7.87 7.87 0 0 1-2.69 1.28.12.12 0 0 0-.1.12v3.2a.1.1 0 0 0 .04.07.09.09 0 0 0 .08.02 11.71 11.71 0 0 0 4.64-2.04.1.1 0 0 0 0-.12Z" fill="#fff"/><defs><linearGradient id="a" x1="28" y1="0" x2="28" y2="56" gradientUnits="userSpaceOnUse"><stop stop-color="#13323A"/><stop offset="1" stop-color="#0D1826"/></linearGradient></defs></svg>