<svg width="224" height="224" viewBox="0 0 56 56" xmlns="http://www.w3.org/2000/svg"><path d="M36.38 23.83 46 39H29.4l6.98-15.17Z" fill="#DEFA99"/><path d="M36.38 23.83 29.4 39H10l26.38-15.17Z" fill="#ABEC0C"/><path d="M28.45 11 24.9 30.5 10 39l18.45-28Z" fill="#AAAAA9"/><path d="m28.45 11 7.92 12.85-11.48 6.64L28.45 11Z" fill="#F2F2F2"/><path d="m34.05 20.1 2.31 3.75-11.47 6.64 9.16-10.4Z" fill="#C7C6C5"/><path fill-rule="evenodd" d="M36.3 23.74 29.3 39H46l-9.7-15.26Zm.02.23-6.85 14.91H45.8l-9.48-14.91Z"/><path fill-rule="evenodd" d="M36.38 23.83 10 39h19.4l6.98-15.17Zm-.25.27-25.7 14.78h18.91l6.8-14.78Z"/><path fill-rule="evenodd" d="M28.45 11 10 39l15-8.5L28.44 11Zm-.2.5-17.9 27.17 14.55-8.25 3.36-18.92Z"/><path fill-rule="evenodd" d="M28.45 11 24.9 30.5l11.48-6.65L28.45 11Zm.06.3-3.47 18.98L36.2 23.8l-7.7-12.51Z"/><path fill-rule="evenodd" d="m34.05 20.1-9.16 10.4 11.47-6.65-2.31-3.75Zm-.02.18-8.6 9.77L36.2 23.8l-2.18-3.52Z"/></svg>