<svg width="112" height="112" viewBox="0 0 56 56" fill="none" xmlns="http://www.w3.org/2000/svg">
<rect width="56" height="56" fill="url(#paint0_linear_9_16503)"/>
<path d="M31.7321 12.4269L31.9931 18.007C31.0384 17.6217 30.1554 17.4419 29.3443 17.4678C28.8777 17.483 28.3351 17.5579 27.7168 17.6926L27.006 17.7166C27.0551 15.9614 27.0748 14.2053 27.0649 12.4483C27.064 12.4002 27.0493 12.3333 27.0208 12.2476C26.994 12.1683 26.9931 12.096 27.0181 12.0309C28.6555 11.9337 30.2268 12.0657 31.7321 12.4269Z" fill="#BFBFC1"/>
<path d="M26.3841 12C26.3592 12.0651 26.36 12.1373 26.3868 12.2167C26.4154 12.3023 26.4301 12.3692 26.431 12.4174C26.4408 14.1744 26.4212 15.9305 26.3721 17.6857C26.2891 17.7223 26.1651 17.7419 26 17.7446L26.0428 12.3304C26.0428 12.2867 26.0504 12.2444 26.0656 12.2033L26.1272 12.0375L26.3841 12Z" fill="#9C8830"/>
<path d="M26.3875 12L26.3259 12.1659C26.3107 12.2069 26.3031 12.2493 26.3031 12.293L26.2603 17.7071L24.2593 18.1018C24.2138 18.1107 24.183 18.137 24.167 18.1807C24.15 18.2262 24.146 18.2806 24.1549 18.3439L23.4629 18.4162C23.1274 18.4251 22.7763 18.4808 22.4096 18.5834C22.381 18.5914 22.3426 18.6075 22.2945 18.6316C22.1865 18.6842 22.0883 18.6927 22 18.657C22.0152 18.4866 22.0308 18.2289 22.0468 17.8837C22.07 17.378 22.099 17.0012 22.1338 16.7533C22.1562 16.5883 22.1655 16.3363 22.162 15.9974C22.1584 15.7602 22.1602 15.5831 22.1673 15.4663C22.2164 14.6449 22.253 13.8083 22.2771 12.9565C23.5852 12.4491 24.9553 12.1302 26.3875 12Z" fill="#BFBFC1"/>
<path d="M36.8385 13.9572L36.6725 19.4797L36.2857 21.4771C36.1653 20.9607 35.9926 20.5148 35.7678 20.1393C35.2681 19.3027 34.7728 18.7792 34.2821 18.5687C34.0911 18.4866 33.8158 18.3404 33.4562 18.1299C33.1832 17.9693 32.9771 17.8552 32.8379 17.7874C32.6139 17.6786 32.4216 17.6095 32.261 17.58L32 12C33.8016 12.4058 35.4144 13.0582 36.8385 13.9572Z" fill="#C52835"/>
<path d="M22.7532 13C22.7291 13.8517 22.6925 14.6883 22.6435 15.5097C22.6363 15.6266 22.6345 15.8036 22.6381 16.0409C22.6417 16.3798 22.6323 16.6317 22.61 16.7967C22.5752 17.0447 22.5462 17.4215 22.523 17.9272C22.5069 18.2723 22.4913 18.5301 22.4761 18.7004C22.469 18.7138 22.4565 18.7285 22.4387 18.7446C22.3923 18.7642 22.3258 18.7927 22.2392 18.8302C21.7877 19.0264 21.4125 19.1169 21.1136 19.1018C21.052 19.0982 21.0235 19.1276 21.0279 19.1901C21.0324 19.2632 21.0659 19.3265 21.1283 19.38C21.1533 19.4015 21.1627 19.4282 21.1564 19.4603C21.1502 19.4924 21.1319 19.5138 21.1016 19.5245C20.94 19.5816 20.7727 19.6177 20.5996 19.6329C20.5559 19.6365 20.5198 19.6552 20.4912 19.6891C20.4493 19.7381 20.4542 19.7899 20.5059 19.8443C20.5559 19.8969 20.605 19.9495 20.6532 20.0021C20.5657 20.0244 20.534 20.0597 20.5581 20.1078C20.8026 20.5921 21.3813 21.1201 22.2941 21.6918C22.3637 22.1431 22.3017 22.4468 22.1081 22.6028C21.7226 22.9141 21.4214 23.2691 21.2046 23.6678C21.1832 23.7079 21.1832 23.748 21.2046 23.7882C21.226 23.8283 21.2595 23.8501 21.305 23.8537C21.4522 23.8662 21.5602 23.7824 21.6289 23.6022C21.6512 23.6361 21.6757 23.6517 21.7025 23.649C21.4197 24.004 21.1158 24.3349 20.791 24.6417C20.7393 24.6907 20.684 24.7286 20.6251 24.7554C20.5537 24.6519 20.4515 24.6056 20.3186 24.6163C20.232 24.6234 20.1878 24.5837 20.186 24.4972L20 14.2696C20.8522 13.7612 21.7699 13.338 22.7532 13Z" fill="#C52835"/>
<path d="M19.5019 14L19.688 24.2276C19.6898 24.3141 19.7339 24.3538 19.8205 24.3467C19.9534 24.336 20.0556 24.3824 20.127 24.4858C20.1172 24.5072 20.1109 24.5291 20.1082 24.5514C19.9744 24.5041 19.874 24.5126 19.8071 24.5768C19.758 24.6232 19.7402 24.7034 19.7536 24.8176C19.7901 25.1235 19.8298 25.4531 19.8727 25.8062L19.1258 26.5353L19.0294 25.1641L19 14.305L19.5019 14Z" fill="#D78612"/>
<path d="M36.2368 14L36.795 14.3612C36.7709 15.5073 36.7499 16.6462 36.732 17.778C36.7285 18.0259 36.7289 18.4023 36.7334 18.9071C36.737 19.2549 36.7378 19.49 36.7361 19.6121C36.7093 21.5752 36.7093 23.5391 36.7361 25.5039C36.7361 25.5342 36.7481 25.569 36.7722 25.6082C36.8106 25.6448 36.8253 25.6729 36.8164 25.6925L36.8137 27.5641C36.5986 27.5588 36.4501 27.644 36.368 27.8197C36.1021 27.3639 35.9803 26.9202 36.0026 26.4885L36.2368 19.5948C36.2377 19.5707 36.2279 19.5528 36.2074 19.5412C36.1886 19.5305 36.1788 19.5145 36.1779 19.4931C36.1753 19.4601 36.1619 19.4552 36.1378 19.4784C36.119 19.4962 36.0967 19.5109 36.0709 19.5225L36.2368 14Z" fill="#D78612"/>
<path d="M19.1226 15L19.1521 25.8591C19.1458 26.0553 19.1159 26.185 19.0624 26.2484C18.7742 25.7391 18.3713 25.336 17.8538 25.039C17.8181 25.0185 17.79 25.0145 17.7694 25.0269C17.7445 25.043 17.7275 25.0751 17.7186 25.1233C17.6856 25.0537 17.6539 25.0078 17.6235 24.9855C17.5789 24.9534 17.5535 24.965 17.5473 25.0202L17.1725 28.3675L17.1711 28.4237C17.1703 28.4709 17.1466 28.4995 17.1002 28.5093C17.0012 28.5298 16.9289 28.4955 16.8834 28.4063L16.6371 27.8444C16.7201 27.7293 16.7732 27.6022 16.7964 27.4631C17.2443 24.767 17.6686 22.0672 18.0693 19.364C18.1273 18.9715 18.1638 18.6108 18.179 18.2817C18.1861 18.1292 18.1701 18.1265 18.1308 18.2736C18.0452 18.592 17.9702 18.9341 17.906 19.2997C17.4241 22.0405 16.9722 24.7264 16.5501 27.3574C16.526 27.5081 16.5318 27.6504 16.5675 27.7842C16.2739 27.472 16.0848 27.1599 16 26.8477C16.8129 23.6209 17.4616 20.3816 17.9461 17.1298L18.1629 17.5285C18.1835 17.5659 18.2147 17.582 18.2566 17.5766C18.2995 17.5713 18.3258 17.5481 18.3356 17.5071C18.5114 16.7891 18.6162 16.0596 18.6501 15.3184L19.1226 15Z" fill="#92140D"/>
<path d="M37.3855 15.21L37.7174 17.4696C37.7246 17.5151 37.7464 17.5517 37.783 17.5793C37.8107 17.6016 37.8339 17.6275 37.8526 17.6569C37.8794 17.6997 37.8861 17.6966 37.8727 17.6475C37.87 17.6368 37.87 17.6257 37.8727 17.6141C37.8789 17.5918 37.8896 17.5713 37.9048 17.5526C38.0279 17.4054 38.127 17.2368 38.2019 17.0469C38.4536 18.7245 38.6807 20.0779 38.8832 21.1071C39.0938 22.1792 39.4815 23.9656 40.0463 26.4664C40.0731 26.5833 40.119 26.5917 40.1842 26.4918L40.3127 26.2898C40.3751 26.1944 40.3912 26.0914 40.3609 25.9808C39.8175 24.0062 39.3182 21.9312 38.8631 19.7559C38.6249 18.6188 38.4504 17.5534 38.3398 16.5599C38.429 16.4671 38.5464 16.419 38.6918 16.4154C38.7302 16.4903 38.7574 16.5724 38.7735 16.6616C38.9028 17.3572 39.0541 18.0828 39.2272 18.8382C39.6002 20.4614 40.1913 22.1502 41.0006 23.9045C41.0622 24.0392 41.093 24.0325 41.093 23.8844V18.8716C41.275 19.0572 41.3754 19.207 41.3942 19.3211L41.3594 22.964L41.3473 24.041C41.3473 24.1114 41.3174 24.1284 41.2576 24.0918C41.2353 24.0784 41.2121 24.0713 41.188 24.0704C41.1175 24.0668 41.0979 24.0972 41.1291 24.1614C41.3344 24.5859 41.3241 24.969 41.0984 25.3106C41.0064 25.4078 40.886 25.5808 40.737 25.8296C40.5871 26.0785 40.4613 26.2644 40.3595 26.3875C40.2578 26.5097 40.161 26.6756 40.0691 26.8852C39.9549 27.1447 39.7934 27.3784 39.5846 27.5862C39.5426 27.2116 39.4949 26.8517 39.4413 26.5066C39.0077 23.7319 38.537 20.9649 38.0293 18.2054C38.0212 18.1635 37.9963 18.1461 37.9543 18.1532L37.9209 18.1586C37.8986 18.1622 37.8892 18.1746 37.8928 18.196L38.9046 24.7045C38.7833 24.734 38.6856 24.8156 38.6115 24.9493C38.5749 24.7745 38.5004 24.8044 38.388 25.039C38.404 24.956 38.3746 24.9065 38.2996 24.8905C38.255 24.8816 38.214 24.8905 38.1765 24.9172C37.8758 25.1349 37.6072 25.3779 37.3708 25.6463C37.3377 25.6829 37.2985 25.7119 37.253 25.7333C37.087 25.8109 37.0214 25.9821 37.0562 26.247C37.0321 26.2078 37.0201 26.173 37.0201 26.1427C36.9933 24.1779 36.9933 22.214 37.0201 20.2509C37.0219 20.1287 37.021 19.8937 37.0174 19.5459C37.0129 19.0411 37.0125 18.6647 37.0161 18.4168C37.0339 17.285 37.0549 16.1461 37.079 15L37.3855 15.21Z" fill="#92140D"/>
<path d="M18.4857 15C18.4518 15.7412 18.3469 16.4707 18.1711 17.1887C18.1613 17.2297 18.135 17.2529 18.0922 17.2582C18.0502 17.2636 18.019 17.2475 17.9985 17.2101L17.7817 16.8114C17.8084 16.7267 17.8187 16.6442 17.8124 16.5639C17.8098 16.5211 17.7942 16.4872 17.7656 16.4622C17.7192 16.4212 17.6764 16.4145 17.6371 16.4422C17.5836 16.4877 17.5318 16.4908 17.4818 16.4515C17.4613 16.4346 17.4506 16.4132 17.4497 16.3873L17.4484 16.3472C17.4475 16.316 17.4319 16.2955 17.4015 16.2856C17.1428 16.1965 17.0089 16.2593 17 16.4743L17.0629 16.1585L18.4857 15Z" fill="#212D35"/>
<path d="M38.3773 16.1024C38.3407 16.105 38.317 16.1153 38.3063 16.1331C38.2929 16.1572 38.2929 16.1813 38.3063 16.2054C38.1609 16.2089 38.0435 16.2571 37.9543 16.3499C37.8365 16.3436 37.7696 16.3882 37.7535 16.4836C37.7357 16.5942 37.7567 16.712 37.8165 16.8368C37.7415 17.0268 37.6425 17.1954 37.5193 17.3425C37.5042 17.3612 37.4934 17.3818 37.4872 17.4041C37.4845 17.4157 37.4845 17.4268 37.4872 17.4375C37.5006 17.4866 37.4939 17.4897 37.4671 17.4469C37.4484 17.4174 37.4252 17.3916 37.3975 17.3693C37.3609 17.3416 37.3391 17.3051 37.3319 17.2596L37 15C37.5291 15.3023 37.9882 15.6698 38.3773 16.1024Z" fill="#212D35"/>
<path d="M39.081 16C39.9751 16.7617 40.7518 17.6147 41.4112 18.5592V23.572C41.4112 23.7201 41.3804 23.7268 41.3189 23.5921C40.5096 21.8378 39.9184 20.149 39.5454 18.5258C39.3723 17.7704 39.2211 17.0448 39.0917 16.3492C39.0756 16.26 39.0484 16.1779 39.01 16.103C38.9967 16.0789 38.9967 16.0549 39.01 16.0308C39.0207 16.0129 39.0444 16.0027 39.081 16Z" fill="#BFBFC1"/>
<path d="M17.133 16L17.0701 16.3157C17.1299 16.6734 17.112 17.0725 17.0165 17.5131C16.7569 18.7064 16.5039 19.7 16.2576 20.4937C16.0069 21.3018 15.5697 22.3948 14.9459 23.7727C14.7853 24.1268 14.7581 24.434 14.8643 24.6945C15.0454 25.1377 15.293 25.5609 15.6071 25.9641C15.6544 26.0907 15.7539 26.2263 15.9056 26.3708C15.9904 26.6829 16.1796 26.9951 16.4731 27.3072C16.4767 27.359 16.4999 27.379 16.5427 27.3674L16.789 27.9293L12.1981 27.936C12.1446 27.936 12.0999 27.9164 12.0642 27.8771C12.0277 27.8379 12.012 27.7915 12.0174 27.738C12.0861 27.045 12.0803 26.3387 12 25.6189C12.0321 25.3522 12.0745 25.0735 12.1272 24.7828C12.4279 23.1194 13.0248 21.5225 13.918 19.992C14.7586 18.5517 15.8302 17.221 17.133 16Z" fill="#BFBFC1"/>
<path d="M17.9063 16.1958C17.4994 18.9686 16.8355 22.0228 15.9146 25.3585C15.8977 25.42 15.8865 25.5065 15.8812 25.618C15.8758 25.7295 15.8508 25.8156 15.8062 25.8762C15.4921 25.4731 15.2445 25.0499 15.0634 24.6066C14.9572 24.3462 14.9844 24.0389 15.145 23.6849C15.7688 22.3069 16.206 21.2139 16.4567 20.4059C16.703 19.6121 16.956 18.6185 17.2156 17.4252C17.3111 16.9846 17.329 16.5855 17.2692 16.2279C17.2781 16.0129 17.4119 15.95 17.6707 16.0392C17.701 16.049 17.7167 16.0696 17.7176 16.1008L17.7189 16.1409C17.7198 16.1668 17.7305 16.1882 17.751 16.2051C17.801 16.2444 17.8527 16.2412 17.9063 16.1958Z" fill="#92140D"/>
<path d="M38.2069 16.0006C38.3176 16.9941 38.492 18.0595 38.7303 19.1966C39.1853 21.3719 39.6846 23.4469 40.228 25.4215C40.2583 25.5321 40.2423 25.6351 40.1798 25.7305L40.0513 25.9325C39.9862 26.0324 39.9402 26.0239 39.9135 25.9071C39.3486 23.4063 38.9609 21.6199 38.7503 20.5478C38.5478 19.5186 38.3207 18.1652 38.0691 16.4875C38.0093 16.3627 37.9883 16.2449 38.0062 16.1344C38.0222 16.0389 38.0891 15.9943 38.2069 16.0006Z" fill="#B67875"/>
<path d="M18.2446 16.3859C17.7601 19.6377 17.1114 22.877 16.2985 26.1038C16.1468 25.9594 16.0473 25.8238 16 25.6971C16.0446 25.6365 16.0696 25.5504 16.075 25.4389C16.0803 25.3275 16.0915 25.2409 16.1084 25.1794C17.0293 21.8438 17.6931 18.7895 18.1 16.0167C18.1393 15.989 18.1821 15.9957 18.2285 16.0368C18.2571 16.0617 18.2727 16.0956 18.2754 16.1384C18.2816 16.2187 18.2714 16.3012 18.2446 16.3859Z" fill="#B67875"/>
<path d="M33.2092 19.4206C33.0013 19.7346 32.7862 19.97 32.564 20.127C32.1348 19.5375 31.5794 19.0791 30.8977 18.7517C30.8887 18.7482 30.8803 18.7486 30.8722 18.7531C30.8624 18.7584 30.8548 18.7669 30.8495 18.7785C30.845 18.7901 30.8473 18.7999 30.8562 18.8079C30.9624 18.9034 31.1332 19.0398 31.3688 19.2173C31.6713 19.4447 31.8788 19.6182 31.9912 19.7377C32.6676 20.461 33.1066 21.3293 33.3082 22.3424L33.0579 22.5418C32.8349 22.2492 32.5877 21.8581 32.3164 21.3685C31.914 20.6416 31.3862 20.0097 30.733 19.4728C30.0522 18.9127 29.3169 18.5252 28.5273 18.3103C28.5121 18.3067 28.5 18.3111 28.4911 18.3236L28.463 18.3624C28.4389 18.3963 28.4461 18.4204 28.4844 18.4347C29.5659 18.8298 30.4881 19.4385 31.251 20.2608C31.4777 20.5052 31.7726 20.9172 32.1357 21.4969C32.4079 21.9295 32.6894 22.3518 32.9803 22.7638L32.6176 23.2241C32.208 22.9503 31.6807 22.4463 31.0355 21.7123C30.468 21.0657 30.0125 20.6135 29.669 20.3558C28.89 19.7689 27.9941 19.339 26.9813 19.0661C26.0248 18.8093 25.0325 18.7094 24.0046 18.7665C23.9957 18.7031 23.9997 18.6487 24.0167 18.6032C24.0327 18.5595 24.0635 18.5332 24.109 18.5243L26.11 18.1296C26.2751 18.127 26.3991 18.1074 26.4821 18.0708L27.1928 18.0467C27.8603 18.0788 28.5125 18.0645 29.1496 18.0039C29.3245 17.9869 29.6583 18.0253 30.1508 18.1189C30.3659 18.1591 30.6688 18.2532 31.0596 18.4012C31.2202 18.4619 31.3416 18.5065 31.4237 18.535C31.6851 18.6251 31.9858 18.7669 32.3258 18.9604C32.6078 19.121 32.9022 19.2744 33.2092 19.4206Z" fill="#F9CB64"/>
<path d="M17.1016 27.6791C17.0587 27.6907 17.0355 27.6707 17.032 27.6189C16.9963 27.4852 16.9905 27.3429 17.0146 27.1922C17.4366 24.5611 17.8886 21.8752 18.3704 19.1345C18.4347 18.7688 18.5096 18.4268 18.5953 18.1084C18.6345 17.9612 18.6506 17.9639 18.6435 18.1164C18.6283 18.4455 18.5917 18.8063 18.5337 19.1987C18.1331 21.902 17.7088 24.6017 17.2608 27.2979C17.2376 27.437 17.1845 27.5641 17.1016 27.6791Z" fill="#B67875"/>
<path d="M39.6925 27.4345L39.6176 27.5362C39.5373 27.4479 39.4869 27.3453 39.4663 27.2285C39.3084 26.3393 39.1572 25.4474 39.0126 24.5528L38.0007 18.0444C37.9972 18.023 38.0065 18.0105 38.0288 18.0069L38.0623 18.0016C38.1042 17.9944 38.1292 18.0118 38.1373 18.0537C38.645 20.8132 39.1157 23.5803 39.5493 26.3549C39.6029 26.7 39.6506 27.0599 39.6925 27.4345Z" fill="#B67875"/>
<path d="M33.6089 22.2327C33.8302 22.5056 34.0434 22.7134 34.2486 22.8561C34.4093 22.9685 34.5801 23.0037 34.7613 22.9618C34.9549 22.9172 35.0642 22.7946 35.0892 22.5939C35.1329 22.2372 35.07 21.8367 34.9005 21.3926C34.8005 21.1312 34.6145 20.7562 34.3423 20.2675C34.2629 20.123 34.2045 20.0164 34.167 19.9477C34.0091 19.6543 34.0376 19.6351 34.2527 19.8902C34.8139 20.5537 35.1726 21.3248 35.3288 22.2033C35.385 22.5208 35.3199 22.7763 35.1334 22.9698C34.9379 23.1705 34.681 23.2196 34.3624 23.117C34.1643 23.0528 33.8873 22.832 33.5312 22.4548C33.2403 22.0427 32.9588 21.6204 32.6867 21.1879C32.3235 20.6081 32.0286 20.1961 31.8019 19.9517C31.039 19.1294 30.1168 18.5207 29.0354 18.1256C28.997 18.1113 28.9898 18.0873 29.0139 18.0534L29.042 18.0146C29.051 18.0021 29.063 17.9976 29.0782 18.0012C29.8679 18.2161 30.6031 18.6037 31.284 19.1638C31.9371 19.7007 32.4649 20.3326 32.8674 21.0594C33.1386 21.5491 33.3858 21.9402 33.6089 22.2327Z" fill="#5C3015"/>
<path d="M32.7168 19.3777C33.2575 20.2999 33.5582 21.0945 33.6189 21.7616C33.6198 21.7732 33.6167 21.7839 33.6095 21.7938C33.6006 21.8053 33.5917 21.8143 33.5828 21.8205C33.5542 21.8392 33.535 21.8325 33.5252 21.8004L33.461 21.5931C33.2593 20.5799 32.8203 19.7117 32.1439 18.9883C32.0315 18.8688 31.824 18.6954 31.5216 18.4679C31.286 18.2905 31.1151 18.154 31.0089 18.0586C31 18.0505 30.9978 18.0407 31.0022 18.0291C31.0076 18.0175 31.0152 18.0091 31.025 18.0037C31.033 17.9993 31.0415 17.9988 31.0504 18.0024C31.7321 18.3297 32.2876 18.7881 32.7168 19.3777Z" fill="#A34103"/>
<path d="M23.5004 18C24.0688 18.0464 24.6296 18.0767 25.1828 18.091C25.4693 18.0972 25.8811 18.1472 26.4182 18.2408C26.4227 18.2417 26.4258 18.2421 26.4276 18.2421C28.1605 18.5436 29.614 19.3543 30.7883 20.6743C31.0435 20.9606 31.3032 21.2558 31.5673 21.5599C31.8965 21.9372 32.3369 22.3064 32.8883 22.6676C32.9615 22.7158 32.9548 22.7466 32.8683 22.76C32.4391 22.8277 31.9951 22.8398 31.5365 22.7961C30.7459 22.7212 29.9701 22.3925 29.2089 21.8101C28.7565 21.4641 28.1417 20.8656 27.3645 20.0148C27.2878 19.9318 27.2302 19.8694 27.1919 19.8275C26.9982 19.6161 26.7734 19.4194 26.5173 19.2375C26.0399 18.8986 25.3738 18.6912 24.519 18.6154C23.9622 18.5646 23.3996 18.5779 22.8312 18.6555L22 18.285C22.0178 18.2689 22.0303 18.2542 22.0375 18.2408C22.1258 18.2765 22.224 18.268 22.3319 18.2154C22.3801 18.1913 22.4185 18.1753 22.447 18.1672C22.8138 18.0647 23.1649 18.0089 23.5004 18Z" fill="#F9CB64"/>
<path d="M21.9756 19L22.8068 19.3706C23.2797 19.4205 23.75 19.4571 24.2175 19.4803C25.3347 19.5356 26.152 19.8094 26.6696 20.3017C27.08 20.6923 27.4727 21.1004 27.8474 21.5258C28.5568 22.3321 29.3438 22.935 30.2085 23.3345C30.4074 23.4264 30.3976 23.4737 30.179 23.4763C29.4107 23.487 28.742 23.2311 28.1727 22.7084C27.6034 22.184 27.0319 21.4901 26.4581 20.6268C26.1503 20.163 25.7081 19.8879 25.1317 19.8014C24.649 19.7291 24.1122 19.7902 23.5215 19.9846C23.0165 20.1514 22.4726 20.1331 21.89 19.9298C21.8891 19.9298 21.8882 19.9307 21.8873 19.9325L21.8739 19.9632C21.865 19.9828 21.8699 19.998 21.8886 20.0087C22.3767 20.2736 22.913 20.3164 23.4974 20.1371C24.0667 19.9623 24.574 19.8954 25.0193 19.9365C25.5984 19.9909 26.0218 20.2295 26.2895 20.6522C27.0167 21.8027 27.7332 22.6206 28.439 23.1058C28.4801 23.1343 28.4778 23.1588 28.4323 23.1793C28.1905 23.2917 27.8809 23.3113 27.5034 23.2382C27.1822 23.1767 26.886 23.0679 26.6147 22.9118C26.3845 22.7798 26.1137 22.5109 25.8023 22.1051C25.6042 21.8482 25.4462 21.6649 25.3284 21.5552C25.133 21.3715 24.9193 21.2431 24.6873 21.1699C24.4286 21.0879 24.143 21.0504 23.8307 21.0576C23.4319 21.0665 23.0076 21.0179 22.5578 20.9117C22.2857 20.8475 21.8815 20.7258 21.3452 20.5465C21.2551 20.5162 21.1873 20.4934 21.1418 20.4783C20.8107 20.3686 20.7942 20.4043 21.0922 20.5853C21.5259 20.8493 22.0341 21.029 22.6167 21.1245C22.9924 21.186 23.538 21.2239 24.2537 21.2382C24.8096 21.2489 25.3262 21.6297 25.8036 22.3807C25.8143 22.3976 25.8139 22.4146 25.8023 22.4315C25.7898 22.4484 25.7737 22.4542 25.7541 22.4489C25.655 22.423 25.5047 22.4221 25.303 22.4462C25.1629 22.4632 25.0572 22.4699 24.9858 22.4663C24.0453 22.4235 23.2048 22.2616 22.4641 21.9807C21.9127 21.7711 21.4063 21.462 20.945 21.0535C20.8468 20.9661 20.7117 20.8248 20.5394 20.6295C20.3895 20.46 20.2731 20.336 20.1901 20.2575C20.1419 20.2049 20.0929 20.1523 20.0429 20.0997C19.9911 20.0453 19.9862 19.9936 20.0282 19.9445C20.0567 19.9106 20.0929 19.8919 20.1366 19.8883C20.3097 19.8731 20.477 19.837 20.6385 19.7799C20.6688 19.7692 20.6871 19.7478 20.6934 19.7157C20.6996 19.6836 20.6902 19.6569 20.6653 19.6355C20.6028 19.582 20.5693 19.5186 20.5649 19.4455C20.5604 19.3831 20.589 19.3536 20.6505 19.3572C20.9495 19.3724 21.3247 19.2818 21.7762 19.0856C21.8627 19.0482 21.9292 19.0196 21.9756 19Z" fill="#F9B34C"/>
<path d="M33.6451 19C34.8239 19.6332 35.5127 20.6986 35.7117 22.196C35.7902 22.7847 35.5212 23.1334 34.9046 23.2422C34.2309 23.3617 33.6139 23.2155 33.0535 22.8034L33.4163 22.3432C33.7723 22.7205 34.0494 22.9412 34.2474 23.0054C34.566 23.108 34.823 23.0589 35.0184 22.8583C35.2049 22.6647 35.27 22.4092 35.2138 22.0917C35.0577 21.2132 34.6989 20.4422 34.1377 19.7786C33.9226 19.5235 33.8941 19.5427 34.052 19.8361C34.0895 19.9048 34.1479 20.0114 34.2274 20.1559C34.4995 20.6446 34.6856 21.0197 34.7855 21.281C34.955 21.7251 35.0179 22.1256 34.9742 22.4823C34.9492 22.683 34.8399 22.8056 34.6463 22.8502C34.4652 22.8922 34.2943 22.8569 34.1337 22.7445C33.9284 22.6018 33.7152 22.394 33.4939 22.1211L33.7442 21.9218L33.8084 22.1292C33.8182 22.1613 33.8374 22.168 33.866 22.1492C33.8749 22.143 33.8838 22.1341 33.8928 22.1225C33.8999 22.1127 33.903 22.102 33.9021 22.0904C33.8414 21.4232 33.5407 20.6286 33 19.7064C33.2222 19.5494 33.4372 19.3139 33.6451 19Z" fill="#EDA240"/>
<path d="M41.1125 19C42.9667 21.7434 43.8826 24.737 43.8603 27.9808L41.0857 27.9661C41.0277 27.9661 40.9991 27.9366 41 27.8778L41.0776 22.6429L41.1125 19Z" fill="#BFBFC1"/>
<path d="M36.0306 27.0245C35.7058 26.9541 35.4283 26.7726 35.1981 26.48L35.0107 25.8499L35 25.4071C35.0857 25.218 35.0973 25.0352 35.0348 24.8586C35.0901 24.7676 35.112 24.6708 35.1004 24.5683C35.0656 24.2401 35.0683 23.952 35.1084 23.7041C35.137 23.6755 35.1825 23.6318 35.2449 23.5729C35.4332 23.3946 35.5622 23.2537 35.6318 23.1502C35.7504 22.9754 35.7964 22.8015 35.7696 22.6284C35.7232 22.3279 35.704 22.137 35.7121 22.0559L36.0989 20.0585C36.1247 20.0469 36.1471 20.0322 36.1658 20.0144C36.1899 19.9912 36.2033 19.9961 36.2059 20.0291C36.2068 20.0505 36.2167 20.0665 36.2354 20.0772C36.2559 20.0888 36.2657 20.1067 36.2648 20.1307L36.0306 27.0245Z" fill="#C4BFB7"/>
<path d="M34.138 21.0004C34.1469 20.9987 34.1523 21.0022 34.1541 21.0112L34.4217 22.5156C34.4253 22.5388 34.4088 22.5535 34.3722 22.5597L34.3307 22.5678C34.2933 22.574 34.2727 22.5655 34.2692 22.5423L34.0001 21.0379C33.9992 21.029 34.0028 21.0241 34.0108 21.0232L34.138 21.0004Z" fill="#A34103"/>
<path d="M21.4404 23.9104C21.3716 24.0906 21.2637 24.1744 21.1164 24.1619C21.0709 24.1583 21.0375 24.1365 21.0161 24.0964C20.9946 24.0562 20.9946 24.0161 21.0161 23.976C21.2329 23.5773 21.534 23.2223 21.9195 22.9111C22.1131 22.755 22.1752 22.4513 22.1056 22L23.1241 22.313C23.1554 22.3229 23.1759 22.3434 23.1857 22.3746C23.1955 22.4058 23.1902 22.4339 23.1696 22.4589C22.8645 22.8451 22.3438 23.2905 21.6077 23.7954C21.5336 23.8462 21.4778 23.8845 21.4404 23.9104Z" fill="#F9CB64"/>
<path d="M25.0191 34.6638L24.7915 34.5661C24.0518 34.212 23.5053 33.6961 23.1519 33.0182C22.8521 32.4439 22.6714 31.7032 22.6098 30.7961C22.6063 30.7551 22.6174 30.7181 22.6433 30.6851C22.8262 30.4568 22.8664 30.2044 22.7638 29.9279C22.7307 29.8396 22.6995 29.8405 22.6701 29.9306C22.6397 30.0233 22.6241 30.1228 22.6232 30.2289C22.6205 30.5589 22.5059 30.6035 22.2792 30.3627C21.9759 30.0398 21.7443 29.6568 21.5846 29.2135C21.349 28.558 21.1549 27.7526 21.0024 26.7974C20.9916 26.7305 21.0175 26.6832 21.08 26.6556C22.2641 26.1419 22.8909 25.3793 22.9605 24.3679C22.9989 23.8114 23.0051 23.3971 22.9793 23.1251C22.9436 22.7416 22.9962 22.3924 23.1372 22.0776C23.1675 22.0107 23.2179 21.9871 23.2884 22.0067C24.2477 22.2725 25.0802 22.3162 25.786 22.1378C25.8404 22.1235 25.885 22.1391 25.9198 22.1846C26.1947 22.5414 26.5958 22.804 27.1231 22.9726C27.6844 23.1527 28.1644 23.1416 28.5633 22.9391C28.6168 22.9115 28.6704 22.9115 28.7239 22.9391C28.7355 22.9454 28.7534 22.9543 28.7774 22.9659C29.2745 23.2174 29.6488 23.3271 29.9004 23.295C29.9531 23.2879 30.0329 23.2758 30.14 23.2589C30.5362 23.1964 30.8324 23.1875 31.0287 23.2321C31.283 23.291 31.5298 23.3311 31.7689 23.3525C32.0723 23.3793 32.4216 23.3333 32.8169 23.2147C32.9695 23.1683 33.1283 23.167 33.2934 23.2107C33.4612 23.2553 33.6307 23.2977 33.802 23.3378C33.8671 23.353 33.8926 23.3931 33.8783 23.4582C33.8506 23.5786 33.8515 23.6981 33.881 23.8167C33.9069 23.9238 33.9051 24.0651 33.8756 24.2408C33.8596 24.3389 33.8502 24.4152 33.8475 24.4696C33.8439 24.5561 33.8301 24.6399 33.806 24.7211C33.5767 25.5006 33.5593 26.281 33.7538 27.0623C33.7645 27.106 33.7507 27.1403 33.7123 27.1653L33.4246 27.3499C33.4219 27.3517 33.4214 27.3544 33.4232 27.3579L33.4446 27.4021C33.4625 27.4396 33.4884 27.4467 33.5223 27.4235C33.6401 27.3459 33.7449 27.3441 33.8368 27.4181C33.8716 27.4458 33.8899 27.4819 33.8917 27.5265C33.9318 28.3051 33.8386 29.1163 33.6119 29.96C33.5727 30.108 33.5071 30.2405 33.4152 30.3573C33.3135 30.4875 33.2751 30.4706 33.3001 30.3065L33.6173 28.2463C33.6227 28.2133 33.6088 28.1932 33.5758 28.1861L33.5424 28.178C33.5192 28.1727 33.5049 28.1816 33.4995 28.2048C33.338 28.855 33.2149 29.5034 33.1301 30.15C33.0284 30.9304 32.7901 31.6506 32.4154 32.3105C32.0138 33.0178 31.4932 33.5819 30.8534 34.0029C30.6214 34.1554 30.6004 34.1304 30.7905 33.928C31.1688 33.5231 31.4909 33.033 31.7569 32.4577C31.7684 32.4327 31.7622 32.4127 31.7381 32.3975C31.7069 32.3797 31.681 32.3855 31.6605 32.4149C31.441 32.727 31.2219 33.0414 31.0033 33.3581C30.6535 33.862 30.1159 34.3324 29.3905 34.7695C28.7873 35.1324 28.2318 35.4847 27.7241 35.8263C27.6821 35.8549 27.6384 35.8575 27.5929 35.8344C26.6239 35.351 25.7325 34.7645 24.9187 34.0751C24.7045 33.8941 24.4114 33.5868 24.0393 33.1534C23.8144 32.8929 23.6422 32.7003 23.5227 32.5754C23.5191 32.5728 23.5155 32.5719 23.512 32.5728L23.4638 32.5901C23.4468 32.5964 23.4432 32.6071 23.4531 32.6223C23.9465 33.4062 24.535 34.0635 25.2185 34.5942C25.3541 34.6994 25.3363 34.7427 25.165 34.724C25.156 34.7231 25.1074 34.703 25.0191 34.6638Z" fill="#F89757"/>
<path d="M20.8042 27.4235C20.4348 27.4164 20.1078 27.6023 19.8232 27.9814C19.5858 28.2962 19.4261 28.6619 19.344 29.0784C19.2904 29.3513 19.2302 29.6211 19.1633 29.8878C19.1499 29.9413 19.124 29.948 19.0857 29.9078C19.0544 29.8739 19.0259 29.812 19 29.7219C19.0009 29.7067 19.0018 29.6844 19.0027 29.655C19.0143 29.3402 19.0446 29.1007 19.0937 28.9366C19.2374 28.4514 19.4172 27.9765 19.6331 27.5118C19.6608 27.4529 19.6425 27.4266 19.5782 27.4329L19.2142 27.469C19.1562 27.4743 19.1115 27.4529 19.0803 27.4048C19.0482 27.3566 19.046 27.3071 19.0736 27.2563L19.1272 27.1586L19.874 26.4295L20.5727 25.576C20.6699 25.4565 20.6432 25.4105 20.4924 25.4382C20.2755 25.4783 20.1479 25.3905 20.1096 25.1746C20.1123 25.1523 20.1185 25.1305 20.1283 25.1091C20.1872 25.0823 20.2425 25.0444 20.2943 24.9954C20.6191 24.6886 20.9229 24.3577 21.2058 24.0027C21.7688 23.7788 22.2538 23.4671 22.6607 23.0676C22.766 22.9632 22.7905 22.9797 22.7343 23.1171C22.4925 23.6977 21.9513 24.3042 21.1107 24.9365C21.1027 24.9428 21.0987 24.9508 21.0987 24.9606C21.0969 24.9891 21.1045 25.0061 21.1215 25.0114C21.1393 25.0177 21.1567 25.0168 21.1737 25.0087C21.5163 24.8393 21.8117 24.6342 22.0597 24.3934C22.2168 24.2408 22.4389 23.9786 22.7263 23.6067C22.7298 23.6023 22.7325 23.5987 22.7343 23.596C22.795 23.5166 22.8244 23.5269 22.8226 23.6268C22.8101 24.1432 22.7709 24.6226 22.7048 25.0649C22.563 26.0317 21.7862 26.7247 20.3746 27.1439C20.3559 27.1493 20.3425 27.1613 20.3344 27.18C20.3202 27.2157 20.3228 27.2429 20.3425 27.2616C20.3487 27.267 20.3554 27.2697 20.3625 27.2697C20.4884 27.2652 20.6106 27.2362 20.7293 27.1827C20.7748 27.1613 20.8083 27.1738 20.8297 27.2202C20.852 27.2701 20.8435 27.3379 20.8042 27.4235Z" fill="#F9CB64"/>
<path d="M40.754 23L40.6764 28.2349C40.6755 28.2937 40.7041 28.3232 40.7621 28.3232L43.5367 28.3379L43.439 30.0222L36.8712 30.0704C36.8212 30.0704 36.7993 30.0949 36.8056 30.1439L36.8738 30.7259C36.8792 30.7732 36.8957 30.7776 36.9234 30.7393C36.9653 30.6804 36.997 30.6162 37.0184 30.5466C37.0318 30.5029 37.0559 30.4659 37.0907 30.4356C37.27 30.2768 37.403 30.2679 37.4895 30.4088C37.3378 30.3259 37.2312 30.3263 37.1696 30.4102C37.0911 30.5172 37.1058 30.6421 37.2138 30.7848C37.1585 30.8008 37.1099 30.8869 37.0679 31.043C37.0742 30.9636 37.0581 30.9056 37.0197 30.869C36.9858 30.8369 36.935 30.8307 36.8671 30.8503C36.7476 30.8851 36.6454 30.9493 36.5606 31.043C36.243 31.3952 35.9249 31.752 35.6063 32.1132C35.5635 32.1623 35.51 32.1805 35.4457 32.1681C35.3824 32.1556 35.3395 32.119 35.3172 32.0584C35.2681 31.9228 35.1624 31.7926 35 31.6677C35.0437 31.6534 35.0687 31.6071 35.075 31.5286L35.4069 31.9299C35.4354 31.9638 35.4698 31.9723 35.51 31.9553C35.717 31.8688 35.8794 31.7052 35.9971 31.4644C36.0659 31.327 36.1631 31.2133 36.2889 31.1232C36.3246 31.0974 36.3514 31.0644 36.3692 31.0242C36.4237 30.8922 36.442 30.7714 36.4241 30.6617C36.3706 30.337 36.3295 30.0119 36.301 29.6864L36.0467 28.4944C36.1288 28.3187 36.2773 28.2335 36.4924 28.2389C36.5432 28.312 36.6137 28.3308 36.7039 28.2951C36.7387 28.2808 36.7574 28.2554 36.7601 28.2188C36.7922 27.7399 36.8047 27.2605 36.7975 26.7807C36.7958 26.6308 36.6949 26.493 36.4951 26.3673C36.504 26.3477 36.4893 26.3196 36.4509 26.283C36.4161 26.0181 36.4817 25.8469 36.6476 25.7693C36.6931 25.7479 36.7324 25.7189 36.7654 25.6823C37.0019 25.4139 37.2705 25.1708 37.5712 24.9532C37.6087 24.9265 37.6497 24.9175 37.6943 24.9265C37.7693 24.9425 37.7987 24.992 37.7827 25.075C37.7907 26.0953 37.8656 27.1343 38.0075 28.1921C38.02 28.2857 38.0731 28.3285 38.1668 28.3205L38.211 28.3165C38.2886 28.3094 38.3238 28.2674 38.3167 28.1907L38.0062 24.9853C38.0802 24.8515 38.1779 24.7699 38.2993 24.7405C38.4438 25.6351 38.5951 26.5269 38.753 27.4161C38.7736 27.533 38.824 27.6355 38.9043 27.7238L38.6781 28.2509C38.6602 28.2929 38.6741 28.3134 38.7196 28.3125L40.398 28.3031C40.4506 28.3022 40.477 28.2755 40.477 28.2228L40.493 25.3465C40.7188 25.0049 40.729 24.6219 40.5238 24.1973C40.4926 24.1331 40.5122 24.1028 40.5827 24.1064C40.6068 24.1073 40.63 24.1144 40.6523 24.1278C40.7121 24.1643 40.742 24.1474 40.742 24.0769L40.754 23Z" fill="#6E2607"/>
<path d="M28.3704 23.7024C28.3713 23.6961 28.3726 23.6894 28.3744 23.6823C28.378 23.6716 28.3842 23.6636 28.3932 23.6582C28.4324 23.635 28.4708 23.6359 28.5083 23.6609C28.5556 23.6903 28.5734 23.7323 28.5618 23.7867C28.5315 23.9356 28.4681 24.0721 28.3717 24.196C28.2763 24.3191 28.3044 24.3633 28.4561 24.3285C28.705 24.2723 28.8951 24.1456 29.0263 23.9485C29.0637 23.8932 29.0793 23.8326 29.0731 23.7666C29.0579 23.6007 29.0677 23.4397 29.1025 23.2836C29.1445 23.0937 29.1851 23.0937 29.2243 23.2836C29.343 23.8598 29.157 24.25 28.6662 24.4542C28.6243 24.4712 28.5614 24.4854 28.4775 24.497C28.4115 24.5051 28.3619 24.5144 28.3289 24.5251C28.2888 24.5376 28.2731 24.5644 28.2821 24.6054C28.3499 24.8997 28.3338 25.1552 28.2339 25.372C28.1197 25.6172 27.9162 25.7541 27.6235 25.7827C27.6111 25.7836 27.599 25.7813 27.5874 25.776C27.5731 25.7689 27.5687 25.7577 27.574 25.7425C27.5865 25.7078 27.6106 25.6846 27.6463 25.673C28.1451 25.5008 28.3048 25.1164 28.1255 24.5198C28.1085 24.4645 28.0737 24.4257 28.0211 24.4034C27.9541 24.3749 27.864 24.3178 27.7507 24.2322C27.5829 24.1046 27.4437 24.0373 27.3331 24.0301C26.6202 23.982 26.0214 24.0533 25.5369 24.2442C25.4013 24.2977 25.2567 24.3396 25.1032 24.3699C25.0042 24.3896 24.8694 24.4386 24.699 24.5171C24.4474 24.6339 24.2386 24.6879 24.0726 24.679C24.045 24.6781 24.0244 24.6656 24.0111 24.6415C23.9968 24.6174 23.9963 24.5929 24.0097 24.5679C24.2471 24.1318 24.5799 23.7755 25.0082 23.499C25.4445 23.2172 25.917 23.0593 26.4256 23.0254C26.6648 23.0094 26.8861 23.0009 27.0895 23C27.6989 22.9973 28.109 23.2337 28.3195 23.7091C28.3436 23.7635 28.3606 23.7612 28.3704 23.7024Z" fill="#D4701E"/>
<path d="M30.7322 24.0113C30.5975 24.0033 30.4717 24.022 30.3548 24.0675C30.3307 24.0764 30.312 24.0916 30.2986 24.113C30.2861 24.1326 30.2758 24.1531 30.2678 24.1745C30.2491 24.228 30.262 24.2369 30.3066 24.2013C30.3182 24.1914 30.3276 24.1799 30.3347 24.1665C30.3445 24.1477 30.3606 24.1388 30.3829 24.1397C30.3945 24.1397 30.4057 24.1451 30.4164 24.1558C30.4297 24.1709 30.4333 24.1879 30.4271 24.2066C30.3655 24.3886 30.2723 24.5553 30.1473 24.707C30.0313 24.8461 30.0626 24.9009 30.241 24.8715C30.3517 24.8528 30.4623 24.8528 30.573 24.8715C30.7461 24.9 30.9923 24.8233 31.3118 24.6414C31.3198 24.6369 31.3283 24.6356 31.3372 24.6374L31.3881 24.6468C31.4496 24.6583 31.455 24.6824 31.4041 24.719L31.1967 24.8688C31.1735 24.8858 31.1637 24.9085 31.1672 24.9371C31.1708 24.9647 31.1855 24.9843 31.2114 24.9959C31.3569 25.0575 31.5023 25.0766 31.6477 25.0534C31.737 25.0392 31.8681 24.9964 32.0412 24.925C32.1323 24.8876 32.2023 24.8604 32.2514 24.8434C32.2862 24.8309 32.3161 24.8385 32.3411 24.8662C32.3892 24.9206 32.3848 24.9701 32.3277 25.0147C32.2367 25.0851 32.1309 25.14 32.0105 25.1792C31.9444 25.2006 31.9333 25.2385 31.977 25.2929C32.0537 25.3892 32.1871 25.4227 32.3772 25.3933C32.5369 25.3692 32.669 25.3197 32.7734 25.2448C32.8144 25.2144 32.8497 25.2198 32.8791 25.2608L33.0183 25.4508C32.7453 25.5863 32.4593 25.618 32.1604 25.5458C32.0765 25.5261 31.9748 25.4682 31.8552 25.3718C31.7222 25.2648 31.6071 25.2077 31.5099 25.2006C31.3278 25.1872 31.1539 25.1502 30.9879 25.0896C30.8433 25.0361 30.6207 25.02 30.32 25.0414C30.2138 25.0485 30.1344 25.0526 30.0817 25.0534C29.9773 25.0552 29.8899 25.0954 29.8194 25.1739L29.7257 25.2795C29.6499 25.3652 29.6691 25.4057 29.7833 25.4013C29.8225 25.3995 29.893 25.395 29.9947 25.3879C30.7318 25.3362 31.1887 25.3692 31.3653 25.4869C31.5964 25.6403 31.8271 25.771 32.0573 25.8789C32.0716 25.8851 32.0765 25.8963 32.072 25.9123L32.0613 25.9484C32.0569 25.9636 32.0475 25.9681 32.0332 25.9618C32.0305 25.9609 32.0261 25.9591 32.0198 25.9565C31.8664 25.8949 31.7401 25.8758 31.641 25.8989C31.5197 25.9275 31.393 25.9525 31.2609 25.9739C31.2547 25.8686 31.223 25.7848 31.1659 25.7224C31.1347 25.6894 31.0967 25.6711 31.0521 25.6675L30.2999 25.6127L29.6026 25.523C29.5044 25.5096 29.4304 25.5458 29.3804 25.6314C29.2671 25.824 29.1957 26.0524 29.1662 26.3163C29.1484 26.4742 29.1444 26.7141 29.1542 27.0361C29.1551 27.0566 29.1555 27.0718 29.1555 27.0816C29.1564 27.1146 29.1417 27.1369 29.1114 27.1485C29.0926 27.1556 29.0752 27.1485 29.0592 27.1271C29.052 27.1173 29.0471 27.1066 29.0444 27.095C28.8981 26.2343 29.1131 25.5832 29.6896 25.1417C29.7922 25.0633 29.8096 24.9692 29.7418 24.8595C29.6401 24.6962 29.624 24.513 29.6936 24.3096C29.7088 24.2668 29.7355 24.2343 29.7739 24.212C30.0666 24.038 30.386 23.9712 30.7322 24.0113Z" fill="#A45441"/>
<path d="M35.2633 24.0402C35.2232 24.2882 35.2205 24.5762 35.2553 24.9045C35.2669 25.007 35.245 25.1038 35.1897 25.1948C35.0791 25.3812 35.0675 25.564 35.1549 25.7433L35.1656 26.1861L35.0184 26.6115C35.0032 26.6561 35.0121 26.6953 35.0451 26.7292C35.1272 26.8122 35.2299 26.8412 35.353 26.8162C35.5832 27.1087 35.8607 27.2902 36.1855 27.3607C36.1632 27.7924 36.285 28.2361 36.5509 28.6918L36.8052 29.8838L36.757 29.9534C36.6776 30.0702 36.6232 30.0595 36.5937 29.9213C36.3876 28.9491 36.1226 28.2869 35.7987 27.9346C35.7764 27.9105 35.7429 27.874 35.6983 27.8249C35.3994 27.4958 35.1335 27.2867 34.9006 27.1975C34.8381 27.1734 34.8038 27.1943 34.7975 27.2603C34.7859 27.3816 34.7511 27.4882 34.6931 27.5801C34.6681 27.6193 34.665 27.6604 34.6838 27.7032C34.7025 27.746 34.7346 27.7718 34.7801 27.7808C34.9711 27.8173 35.1214 27.8927 35.2312 28.0068C35.7434 28.5384 36.0637 29.0771 36.1922 29.6229C36.2502 29.8682 36.3202 30.1206 36.4023 30.3801C36.4818 30.6334 36.5148 31.0606 36.5014 31.6618C36.3836 31.9026 36.2212 32.0662 36.0142 32.1527C35.974 32.1697 35.9397 32.1612 35.9111 32.1273L35.5792 31.726C35.5676 30.9911 35.4262 30.2865 35.1549 29.6122C34.9934 29.2127 34.7342 28.9451 34.3773 28.8095C34.3683 28.418 34.2885 28.0202 34.1377 27.6162C33.9601 27.1391 33.9543 26.438 34.1203 25.5132C34.1488 25.3553 34.1917 25.3513 34.2488 25.5011C34.2916 25.6117 34.359 25.7116 34.4509 25.8008C34.4634 25.8124 34.4776 25.8146 34.4937 25.8075C34.508 25.8003 34.5178 25.7896 34.5231 25.7754C34.5249 25.7718 34.5249 25.7678 34.5231 25.7633C34.3491 25.486 34.2693 25.172 34.2836 24.8215C34.2871 24.7359 34.3143 24.7279 34.3652 24.7974C34.4643 24.9321 34.5905 25.0106 34.744 25.0329C34.752 25.0338 34.7578 25.0307 34.7614 25.0235L34.7815 24.9834C34.7931 24.9584 34.7859 24.9406 34.7601 24.9299C34.6307 24.8799 34.5339 24.8001 34.4696 24.6904C34.4303 24.6235 34.3902 24.5111 34.3491 24.3533C34.3233 24.2543 34.3014 24.1802 34.2836 24.1312C34.2684 24.0884 34.2822 24.0598 34.3251 24.0456C34.6739 23.9252 34.9216 24.0433 35.0679 24.4001C35.0875 24.4465 35.1152 24.4719 35.1509 24.4764C35.2 24.4826 35.2232 24.4612 35.2205 24.4121C35.2107 24.2668 35.2249 24.1428 35.2633 24.0402Z" fill="#F9CB64"/>
<path d="M29.0816 24.0016L29.0763 24.0015C29.0342 24.0007 28.9993 24.0342 28.9985 24.0763L28.9782 25.1335C28.9774 25.1756 29.0109 25.2104 29.053 25.2112L29.0584 25.2113C29.1005 25.2121 29.1353 25.1786 29.1361 25.1365L29.1564 24.0793C29.1573 24.0372 29.1238 24.0024 29.0816 24.0016Z" fill="#A45441"/>
<path d="M30.6535 24.0018C30.773 24.0375 30.9573 24.0754 31.2062 24.1156C31.4168 24.1486 31.5681 24.178 31.66 24.2039C32.2828 24.3815 32.7794 24.6599 33.1497 25.0391C33.1809 25.0712 33.1894 25.1083 33.1751 25.1502C33.1341 25.2698 33.0555 25.367 32.9395 25.442L32.8003 25.2519C32.7709 25.2109 32.7356 25.2055 32.6946 25.2359C32.5902 25.3108 32.4581 25.3603 32.2984 25.3844C32.1084 25.4139 31.975 25.3804 31.8982 25.284C31.8545 25.2296 31.8656 25.1917 31.9317 25.1703C32.0521 25.131 32.1579 25.0761 32.2489 25.0056C32.306 24.961 32.3105 24.9115 32.2623 24.8571C32.2373 24.8294 32.2074 24.8218 32.1726 24.8343C32.1235 24.8513 32.0535 24.8785 31.9625 24.916C31.7894 24.9874 31.6582 25.0302 31.569 25.0445C31.4235 25.0677 31.2781 25.0485 31.1326 24.9869C31.1067 24.9753 31.092 24.9557 31.0884 24.928C31.0849 24.8995 31.0947 24.8767 31.1179 24.8598L31.3254 24.7099C31.3762 24.6733 31.3709 24.6492 31.3093 24.6376L31.2584 24.6282C31.2495 24.6264 31.241 24.6278 31.233 24.6322C30.9136 24.8142 30.6673 24.891 30.4942 24.8624C30.3835 24.8437 30.2729 24.8437 30.1622 24.8624C29.9838 24.8919 29.9525 24.837 30.0685 24.6978C30.1935 24.5461 30.2867 24.3793 30.3483 24.1972C30.3545 24.1785 30.351 24.1615 30.3376 24.1464C30.3269 24.1357 30.3157 24.1303 30.3041 24.1303C30.2818 24.1294 30.2657 24.1383 30.2559 24.1571C30.2488 24.1705 30.2394 24.1821 30.2278 24.1919C30.1832 24.2276 30.1703 24.2186 30.189 24.1651C30.197 24.1437 30.2073 24.1232 30.2198 24.1035C30.2332 24.0821 30.2519 24.0669 30.276 24.058C30.3929 24.0125 30.5187 23.9938 30.6535 24.0018Z" fill="#D4701E"/>
<path d="M27.0256 24.2709C26.8525 24.2682 26.6723 24.2254 26.4849 24.1424C26.4162 24.112 26.3694 24.1326 26.3444 24.2039C26.3105 24.2967 26.3412 24.3418 26.4367 24.3391C26.5661 24.3364 26.6277 24.3994 26.6214 24.5278C26.6143 24.6697 26.579 24.7554 26.5157 24.7848C26.513 24.7839 26.5086 24.7826 26.5023 24.7808C25.8518 24.614 25.3981 24.5805 25.1411 24.6804C25.0724 24.7072 24.9765 24.7496 24.8533 24.8076C24.5392 24.9557 24.2773 25.0253 24.0677 25.0164C23.9802 25.0128 23.9775 24.9959 24.0596 24.9655C24.2095 24.9093 24.3585 24.8593 24.5067 24.8156C24.587 24.7915 24.5897 24.7603 24.5147 24.7219C24.4808 24.7041 24.454 24.68 24.4344 24.6496C24.3916 24.5818 24.4103 24.5479 24.4906 24.5479C24.7467 24.5497 25.0831 24.4587 25.4998 24.2749C25.8755 24.1089 26.1762 24.0179 26.4019 24.0018C26.6304 23.9858 26.8383 24.0754 27.0256 24.2709Z" fill="#361C16"/>
<path d="M17.5461 25.1555C17.588 25.4034 17.605 25.5912 17.597 25.7187C17.5648 26.2173 17.4836 27.077 17.3534 28.298C17.3052 28.4416 17.2084 28.5005 17.0629 28.4746C17.021 28.4666 17 28.4416 17 28.3997L17.3748 25.0525C17.381 24.9972 17.4064 24.9856 17.4511 25.0177C17.4814 25.04 17.5131 25.0859 17.5461 25.1555Z" fill="#B67875"/>
<path d="M19.5604 26.2285C19.539 26.299 19.4855 26.3984 19.3998 26.5268C19.2954 26.6847 19.2419 26.8038 19.2392 26.884C19.2222 27.4183 19.2271 27.9217 19.2539 28.3944C19.2557 28.4274 19.2401 28.4453 19.2071 28.448L18.6824 28.4881C18.6538 28.4908 18.6427 28.4783 18.6489 28.4506C18.7042 28.1813 18.7029 27.8812 18.6449 27.5503C18.636 27.4968 18.6244 27.4963 18.6101 27.5489C18.5262 27.8664 18.4954 28.1661 18.5178 28.448C18.5222 28.5041 18.499 28.5202 18.4482 28.4961C18.3545 28.4524 18.2576 28.4488 18.1577 28.4854C18.1068 28.5041 18.0645 28.493 18.0306 28.452C17.9922 28.4056 17.99 28.3369 18.0239 28.2459C18.1541 27.025 18.2353 26.1652 18.2675 25.6666C18.2755 25.5391 18.2585 25.3514 18.2166 25.1034C18.2255 25.0552 18.2425 25.0231 18.2675 25.0071C18.288 24.9946 18.3161 24.9986 18.3518 25.0191C18.8693 25.3161 19.2722 25.7193 19.5604 26.2285Z" fill="#610705"/>
<path d="M38.2235 25.112L38.534 28.3174C38.5412 28.3941 38.5059 28.436 38.4283 28.4431L38.3841 28.4471C38.2904 28.4552 38.2374 28.4124 38.2249 28.3187C38.083 27.2609 38.008 26.2219 38 25.2016C38.1124 24.967 38.1869 24.9372 38.2235 25.112Z" fill="#B67875"/>
<path d="M35.0579 25.5488C34.9705 25.3694 34.9821 25.1865 35.0927 25C35.1552 25.1767 35.1436 25.3596 35.0579 25.5488Z" fill="#A45441"/>
<path d="M20.359 25.0301C20.3974 25.246 20.525 25.3339 20.7418 25.2938C20.8926 25.2661 20.9194 25.312 20.8221 25.4316L20.1234 26.2855C20.0806 25.9322 20.0409 25.6025 20.0043 25.2964C19.9909 25.1822 20.0088 25.1019 20.0578 25.0555C20.1248 24.9913 20.2251 24.9828 20.359 25.0301Z" fill="#D41D1C"/>
<path d="M40.8225 25L40.8064 27.8763C40.8064 27.9289 40.7801 27.9557 40.7275 27.9566L39.049 27.9659C39.0035 27.9668 38.9897 27.9463 39.0075 27.9044L39.2337 27.3773L39.3087 27.2756C39.5175 27.0678 39.679 26.8341 39.7932 26.5746C39.8851 26.365 39.9819 26.1991 40.0837 26.0769C40.1854 25.9539 40.3112 25.7679 40.4611 25.5191C40.6101 25.2702 40.7306 25.0972 40.8225 25Z" fill="#BFBFC1"/>
<path d="M31.6137 25.3614L30.0664 25.2128C29.9879 25.2048 29.979 25.1758 30.0397 25.1258C30.0504 25.1169 30.0624 25.1084 30.0758 25.1004C30.0972 25.0861 30.1213 25.079 30.1481 25.079C30.306 25.0772 30.4742 25.0509 30.6527 25L31.4049 25.0549C31.4495 25.0584 31.4874 25.0767 31.5187 25.1098C31.5758 25.1722 31.6075 25.2561 31.6137 25.3614Z" fill="#361C16"/>
<path d="M27.0366 25.114C27.0794 25.1033 27.1213 25.0988 27.1624 25.1006C27.232 25.1024 27.2418 25.1269 27.1918 25.1742C27.0285 25.3277 26.6792 25.3817 26.1438 25.3361C25.7334 25.3013 25.3604 25.2322 25.0249 25.1287C25.0035 25.1215 24.9959 25.1073 25.0021 25.0859L25.0209 25.0069C25.0226 25.0015 25.0262 24.9993 25.0316 25.0002C25.3207 25.0296 25.5951 25.0823 25.8547 25.1581C26.1572 25.2465 26.5512 25.2317 27.0366 25.114Z" fill="#A45441"/>
<path d="M19.3292 26.3713L19.2756 26.4689C19.248 26.5198 19.2502 26.5693 19.2823 26.6174C19.3136 26.6656 19.3582 26.687 19.4162 26.6816L19.7802 26.6455C19.8445 26.6393 19.8628 26.6656 19.8351 26.7244C19.6192 27.1891 19.4394 27.664 19.2957 28.1492C19.2466 28.3133 19.2163 28.5528 19.2047 28.8676C19.2038 28.8971 19.2029 28.9194 19.202 28.9345L19.0334 30.4743C18.9798 30.1283 19.0048 29.739 19.1083 29.3064C19.1485 29.1388 19.1436 28.9332 19.0936 28.6897C19.0829 28.638 19.0512 28.6148 18.9986 28.6201C18.9593 28.6246 18.9209 28.6353 18.8835 28.6522C18.8433 28.671 18.8005 28.6808 18.755 28.6817L12.0159 28.7325C12.0025 28.5301 11.9976 28.3432 12.0011 28.172C12.0199 27.2025 12.0779 26.2241 12.1751 25.2368C12.2554 25.9565 12.2612 26.6629 12.1925 27.3559C12.1872 27.4094 12.2028 27.4558 12.2394 27.495C12.2751 27.5343 12.3197 27.5539 12.3732 27.5539L16.9641 27.5472C17.0096 27.6364 17.0819 27.6707 17.181 27.6502C17.2274 27.6404 17.251 27.6119 17.2519 27.5646L17.2532 27.5084C17.2532 27.5503 17.2742 27.5753 17.3161 27.5833C17.4616 27.6092 17.5584 27.5503 17.6066 27.4067C17.5727 27.4977 17.5749 27.5664 17.6133 27.6128C17.6472 27.6538 17.6896 27.6649 17.7404 27.6462C17.8404 27.6096 17.9372 27.6132 18.0309 27.6569C18.0817 27.681 18.1049 27.6649 18.1005 27.6087C18.0782 27.3269 18.109 27.0272 18.1928 26.7097C18.2071 26.6571 18.2187 26.6576 18.2276 26.7111C18.2856 27.042 18.287 27.3421 18.2316 27.6114C18.2254 27.6391 18.2366 27.6516 18.2651 27.6489L18.7898 27.6087C18.8228 27.6061 18.8384 27.5882 18.8366 27.5552C18.8099 27.0825 18.8049 26.5791 18.8219 26.0448C18.8246 25.9646 18.8781 25.8455 18.9825 25.6876C19.0682 25.5592 19.1217 25.4598 19.1431 25.3893C19.1967 25.326 19.2266 25.1962 19.2328 25L19.3292 26.3713Z" fill="#BF4F0E"/>
<path d="M32.0135 26.3165C31.7896 26.2335 31.5714 26.2286 31.359 26.3017C30.9709 26.4374 30.5288 26.3936 30.0326 26.1706C30.0041 26.1572 29.9943 26.1353 30.0032 26.105C30.0068 26.0907 30.0175 26.08 30.0353 26.0729C30.0496 26.0675 30.0643 26.0671 30.0795 26.0715C30.1018 26.0778 30.1352 26.088 30.1799 26.1023C30.4948 26.1969 30.7295 26.2477 30.8839 26.2549C31.14 26.2656 31.3648 26.1938 31.5585 26.0394C31.596 26.0099 31.6383 25.997 31.6856 26.0006C31.7597 26.0077 31.8253 26.0407 31.8824 26.0996C31.8993 26.1175 31.9176 26.1335 31.9373 26.1478C31.9845 26.1799 32.0238 26.2174 32.055 26.2602C32.1059 26.3272 32.0921 26.3459 32.0135 26.3165Z" fill="#A45441"/>
<path d="M35.3418 26.6304C35.2186 26.6554 35.116 26.6264 35.0339 26.5434C35.0009 26.5095 34.992 26.4702 35.0072 26.4256L35.1544 26L35.3418 26.6304Z" fill="#A45441"/>
<path d="M37.0027 26C37.2026 26.1258 37.3034 26.2637 37.3052 26.4136C37.3123 26.8936 37.2998 27.3733 37.2677 27.8524C37.265 27.889 37.2463 27.9144 37.2115 27.9287C37.1214 27.9644 37.0509 27.9457 37 27.8725L37.0027 26Z" fill="#C4BFB7"/>
<path d="M37.1335 29.696C37.1621 30.0215 37.2031 30.3466 37.2566 30.6713C37.2745 30.781 37.2562 30.9018 37.2018 31.0338C37.1839 31.0739 37.1571 31.1069 37.1215 31.1328C36.9956 31.2229 36.8984 31.3366 36.8297 31.474C36.8431 30.8728 36.81 30.4456 36.7306 30.1923C36.6485 29.9328 36.5785 29.6804 36.5205 29.4351C36.392 28.8893 36.0717 28.3506 35.5595 27.819C35.4497 27.7049 35.2994 27.6295 35.1084 27.5929C35.0629 27.584 35.0308 27.5582 35.012 27.5154C34.9933 27.4725 34.9964 27.4315 35.0214 27.3923C35.0794 27.3004 35.1142 27.1938 35.1258 27.0725C35.1321 27.0065 35.1664 26.9856 35.2289 27.0097C35.4618 27.0988 35.7277 27.308 36.0266 27.6371C36.0712 27.6861 36.1047 27.7227 36.127 27.7468C36.4509 28.0991 36.7159 28.7613 36.922 29.7335C36.9515 29.8717 37.0059 29.8824 37.0853 29.7656L37.1335 29.696Z" fill="#EDA240"/>
<path d="M22.0429 29.3833C22.0795 29.4065 22.1179 29.4097 22.158 29.3927C22.1973 29.3758 22.2214 29.3463 22.2303 29.3044C22.2642 29.1457 22.2383 28.9851 22.1527 28.8228C22.1018 28.7256 22.0019 28.5896 21.8529 28.4148C21.7556 28.3006 21.6873 28.215 21.6481 28.1579C21.5446 28.0072 21.5142 27.8698 21.5571 27.7459C21.5829 27.6701 21.6588 27.5679 21.7846 27.4395C21.8819 27.3387 21.9483 27.2593 21.984 27.2014C22.0001 27.1746 22.0206 27.171 22.0456 27.1907L22.0871 27.2214C22.1058 27.2366 22.1076 27.2535 22.0924 27.2723L21.7712 27.6589C21.6552 27.798 21.657 27.9358 21.7766 28.0723C21.7917 28.0901 21.8167 28.1178 21.8515 28.1552C22.0817 28.4103 22.2374 28.615 22.3186 28.7693C22.4605 29.0395 22.4694 29.275 22.3454 29.4757C22.3008 29.547 22.237 29.5827 22.154 29.5827C22.0139 29.5818 21.8658 29.4962 21.7096 29.3258C21.5919 29.1965 21.4928 29.0498 21.4125 28.8857C21.1734 28.396 21.036 27.8324 21.0003 27.1947C20.9976 27.1438 21.015 27.1015 21.0525 27.0676L21.1167 27.0114C21.131 26.9989 21.1466 26.9967 21.1636 27.0047C21.1805 27.0127 21.1885 27.0261 21.1877 27.0448C21.1814 27.4578 21.2439 27.881 21.375 28.3144C21.5357 28.8442 21.7583 29.2005 22.0429 29.3833Z" fill="#5C3015"/>
<path d="M21.0023 27.0002C21.0443 27.0947 21.0581 27.1763 21.0438 27.245C20.4995 27.4332 20.1216 27.8087 19.9102 28.3715C19.5987 29.2018 19.4506 30.0388 19.4658 30.8825C19.4729 31.2892 19.4752 31.6678 19.4725 32.0184C19.4698 32.3742 19.5042 32.7929 19.5755 33.2746C19.7112 34.1932 20.0212 35.4053 20.5058 36.9107C20.5183 37.0124 20.4553 37.2242 20.317 37.5462L19.2664 33.7535L19.1164 32.9307L19 31.7066L19.0294 30.8384L19.1981 29.2986C19.224 29.3886 19.2525 29.4506 19.2838 29.4845C19.3221 29.5247 19.348 29.518 19.3614 29.4645C19.4283 29.1978 19.4885 28.928 19.5421 28.6551C19.6242 28.2386 19.7839 27.8729 20.0212 27.5581C20.3059 27.179 20.6329 26.9931 21.0023 27.0002Z" fill="#BB884C"/>
<path d="M29.7012 28.1418C29.786 28.1543 29.8507 28.1093 29.8953 28.0066C29.9238 27.9397 29.9493 27.9406 29.9716 28.0093C29.9894 28.0682 29.9952 28.1289 29.989 28.1914C29.9818 28.2538 29.9497 28.2984 29.8926 28.3252C29.8346 28.3511 29.7797 28.3457 29.728 28.3091C29.6218 28.2342 29.5228 28.2422 29.4308 28.3332C29.2827 28.4796 29.1043 28.5719 28.8955 28.6103C28.6599 28.654 28.4689 28.6058 28.3226 28.4657C28.2325 28.3792 28.1401 28.2957 28.0455 28.2154C28.0143 28.1887 27.9991 28.1543 28 28.1124C28.0063 27.9536 28.0563 27.8206 28.1499 27.7135C28.2249 27.6261 28.2628 27.6399 28.2637 27.755C28.2637 27.8567 28.253 27.9611 28.2316 28.0682C28.2218 28.1155 28.2294 28.1601 28.2543 28.2021C28.3498 28.3636 28.5042 28.4479 28.7174 28.455C28.9048 28.4604 29.0784 28.4104 29.2381 28.3051C29.4933 28.1356 29.6178 27.763 29.6115 27.1875C29.6089 26.9439 29.6459 26.9377 29.7226 27.1688C29.8119 27.4374 29.7829 27.7189 29.6356 28.0133C29.599 28.0865 29.6209 28.1293 29.7012 28.1418Z" fill="#A45441"/>
<path d="M20.5791 27L20.7598 27.8629C20.8035 28.027 20.787 28.1505 20.7103 28.2335C20.5193 28.4404 20.3748 28.6799 20.2766 28.9519C19.9625 29.8268 19.8273 30.902 19.8711 32.1774C19.8862 32.6331 19.9531 33.1838 20.0718 33.8296C20.178 34.4048 20.2873 34.9667 20.3997 35.5152C20.4203 35.6151 20.4167 35.8086 20.389 36.0958L20.041 36.6657C19.5565 35.1602 19.2464 33.9482 19.1108 33.0295C19.0394 32.5479 19.0051 32.1292 19.0077 31.7733C19.0104 31.4228 19.0082 31.0442 19.0011 30.6375C18.9859 29.7938 19.134 28.9568 19.4454 28.1264C19.6569 27.5637 20.0348 27.1882 20.5791 27Z" fill="#F5CA8B"/>
<path d="M27.2062 28.6745L27.2624 28.7254C27.3365 28.7905 27.3244 28.8267 27.2263 28.8338C27.179 28.8374 27.133 28.8267 27.0884 28.8017C27.0447 28.7776 27.0188 28.7401 27.0108 28.6893C26.9715 28.4305 27.0394 28.2088 27.2142 28.024C27.241 27.9955 27.2705 27.9924 27.3026 28.0147L27.3387 28.0388C27.3646 28.0566 27.3668 28.0771 27.3454 28.1003C27.2196 28.2369 27.1567 28.3917 27.1567 28.5648C27.1567 28.6085 27.1732 28.6451 27.2062 28.6745Z" fill="#A45441"/>
<path d="M23.6687 34.7466C23.5705 34.7743 23.4215 34.8113 23.2216 34.8576C22.871 34.9397 22.614 35.0119 22.4507 35.0744C22.3517 35.1118 22.1973 35.1613 21.9876 35.2229C21.5441 35.3513 21.2363 35.4824 21.0641 35.6162C20.8544 35.7785 20.675 35.9841 20.526 36.2329C20.5537 35.9457 20.5572 35.7522 20.5367 35.6523C20.4243 35.1038 20.315 34.5419 20.2088 33.9667C20.0901 33.3209 20.0232 32.7702 20.008 32.3145C19.9643 31.0391 20.0995 29.9639 20.4136 29.089C20.5117 28.817 20.6563 28.5775 20.8472 28.3706C20.924 28.2876 20.9405 28.1641 20.8967 28C21.0065 28.5494 21.1841 29.0823 21.4295 29.5987C21.6097 29.9786 21.8395 30.3051 22.1188 30.578C22.1884 30.6475 22.2281 30.7309 22.2379 30.8281C22.2986 31.4534 22.4195 32.0335 22.6006 32.5686C22.846 33.2955 23.285 33.9149 23.9176 34.4269C23.9551 34.4581 23.9971 34.4822 24.0435 34.4991C24.0872 34.5161 24.1166 34.5455 24.1318 34.5874C24.1425 34.6151 24.1389 34.6405 24.1211 34.6637C24.1041 34.6869 24.0809 34.6976 24.0515 34.6958C23.9176 34.6869 23.79 34.7038 23.6687 34.7466Z" fill="#D41D1C"/>
<path d="M34.2199 28C34.5768 28.1356 34.836 28.4031 34.9975 28.8027C35.2688 29.477 35.4102 30.1815 35.4218 30.9164C35.4156 30.9949 35.3906 31.0413 35.3469 31.0556C35.1872 30.9762 34.998 30.9664 34.7794 31.0261C34.5973 31.0752 34.5857 31.1506 34.7446 31.2522C35.0408 31.4413 35.1555 31.6852 35.0886 31.984C35.0609 32.1071 34.9908 32.2846 34.8784 32.5165C34.791 32.6966 34.7316 32.8862 34.7004 33.085L34.4715 32.8937C34.4135 32.8456 34.3475 32.8282 34.2734 32.8416C34.1994 32.8549 34.144 32.8946 34.1075 32.9606C33.9085 33.3156 33.6738 33.6197 33.4034 33.873C33.3677 33.906 33.3263 33.9283 33.279 33.9399C33.1978 33.9595 33.0965 34.0099 32.9751 34.0911C32.9064 34.1375 32.852 34.1709 32.8118 34.1914C32.3585 34.4251 31.945 34.5615 31.5711 34.6008C31.3721 34.6222 31.1655 34.6356 30.9514 34.6409C30.8657 34.6436 30.7644 34.6739 30.6476 34.7319C30.4727 34.8193 30.304 34.8126 30.1416 34.7118C29.9426 34.5887 29.9533 34.488 30.1737 34.4095C30.238 34.3863 30.3321 34.3595 30.4562 34.3292C30.6864 34.2721 30.8555 34.2052 30.9634 34.1285C31.9111 33.4578 32.5816 32.5905 32.9751 31.5265C33.0858 31.2259 33.1884 30.924 33.283 30.6208C33.299 30.5708 33.3303 30.5343 33.3767 30.5111C33.5587 30.4192 33.676 30.3131 33.7287 30.1927C33.8599 29.8894 33.9678 29.4471 34.0526 28.8656C34.1097 28.4785 34.1655 28.19 34.2199 28Z" fill="#D41D1C"/>
<path d="M27.5288 29.4966C27.5582 29.4404 27.5703 29.3355 27.5649 29.182C27.5631 29.1249 27.5627 29.0839 27.5636 29.0589C27.5653 29.0205 27.5854 29.0009 27.6238 29C27.6363 29 27.6483 29.0045 27.6599 29.0134C27.6724 29.0223 27.68 29.0344 27.6827 29.0495C27.7416 29.4234 27.6755 29.6898 27.4846 29.8486C27.3043 29.9976 27.1741 30.1863 27.0938 30.4147C27.0295 30.5986 26.9983 30.5932 27.0001 30.3987C27.001 30.2559 27.1031 30.0583 27.3066 29.8058C27.4172 29.6692 27.4913 29.5662 27.5288 29.4966Z" fill="#A45441"/>
<path d="M29.4365 30.199C29.4392 29.9804 29.3473 29.714 29.1608 29.3999C29.093 29.2857 29.0435 29.1974 29.0122 29.1349C28.989 29.0903 28.9988 29.0546 29.0417 29.0278L29.0765 29.0064C29.0934 28.9957 29.1081 28.9984 29.1206 29.0145C29.5463 29.5757 29.6881 29.9808 29.5463 30.2298C29.4713 30.3601 29.4347 30.3498 29.4365 30.199Z" fill="#A45441"/>
<path d="M19.0175 30.855L18.9881 31.7232C18.9702 31.3691 18.9564 31.0075 18.9466 30.6382C18.9457 30.5865 18.9203 30.5535 18.8703 30.5392C18.8614 30.5375 18.8462 30.5424 18.8248 30.554L18.7311 30.4871L18.1877 30.4683C18.0717 30.4639 18.0007 30.4055 17.9749 30.2931L17.9468 30.1687C17.9173 30.0385 17.9691 29.9653 18.102 29.9493L18.8864 29.8596C18.922 29.8552 18.9475 29.8364 18.9626 29.8034C18.9751 29.7749 18.9751 29.7468 18.9626 29.7192C18.9421 29.6719 18.906 29.6478 18.8542 29.6469C18.2243 29.6291 17.2775 29.6255 16.014 29.6362C15.4938 29.6398 15.1039 29.642 14.8442 29.6429C13.9626 29.6456 13.1426 29.6683 12.3841 29.7111C12.3404 29.7138 12.319 29.7374 12.3199 29.782L12.3212 29.8248C12.3221 29.8561 12.3382 29.8717 12.3694 29.8717L16.2121 29.8984C16.2657 29.8984 16.279 29.9216 16.2523 29.968C16.1541 30.1375 16.1091 30.3074 16.1171 30.4777L14.1429 30.4938L14.2218 30.0442C14.2379 29.9515 14.1986 29.9056 14.1041 29.9065H13.8993C13.7859 29.9065 13.744 29.9613 13.7735 30.071L13.8845 30.4857L12.2222 30.5981L12 29.1131L18.7391 29.0623C18.7846 29.0614 18.8275 29.0516 18.8676 29.0329C18.9051 29.0159 18.9435 29.0052 18.9827 29.0008C19.0354 28.9954 19.067 29.0186 19.0778 29.0703C19.1277 29.3138 19.1326 29.5194 19.0925 29.6871C18.989 30.1196 18.964 30.5089 19.0175 30.855Z" fill="#8A3401"/>
<path d="M28.0071 30.39C28.0499 30.4845 28.1039 30.5144 28.1691 30.4796C28.2788 30.4217 28.3743 30.411 28.4555 30.4475C28.3743 30.4912 28.3573 30.5657 28.4046 30.6709C28.426 30.7191 28.4631 30.7481 28.5157 30.7579C29.0154 30.8506 29.3099 30.7467 29.3991 30.4462C29.5169 30.4114 29.6052 30.3458 29.6641 30.2495C29.6891 30.2085 29.6882 30.1679 29.6614 30.1278C29.6364 30.0903 29.5972 30.0716 29.5437 30.0716C29.5508 29.9075 29.5004 29.7425 29.3924 29.5766C29.3656 29.5356 29.3286 29.5182 29.2813 29.5244C29.1921 29.5351 29.1234 29.5842 29.0752 29.6716C29.0422 29.7322 29.0109 29.7309 28.9815 29.6676C28.9449 29.5855 28.8878 29.5267 28.8102 29.491C28.7638 29.4687 28.7227 29.4767 28.687 29.5151C28.5469 29.6676 28.4756 29.8339 28.4729 30.0141C28.3292 30.0551 28.2056 30.1313 28.1021 30.2428C28.1673 29.9655 28.2534 29.6939 28.3605 29.4281C28.4434 29.2239 28.5916 29.1342 28.8048 29.1592C28.853 29.1646 28.8909 29.1472 28.9186 29.107C28.9257 29.0963 28.9338 29.0865 28.9427 29.0776C28.9605 29.0606 28.9819 29.0526 29.0069 29.0535C29.0988 29.0589 29.1881 29.0441 29.2746 29.0094C29.305 28.9969 29.3353 28.9969 29.3656 29.0094C29.7038 29.1494 29.9166 29.4379 30.0041 29.8749C30.0416 30.0578 30.0224 30.225 29.9465 30.3766C29.8225 30.629 29.7328 30.9091 29.6775 31.2168C29.6097 31.5949 29.4263 31.8714 29.1274 32.0462C28.9195 32.1675 28.7281 32.188 28.5532 32.1077C28.3881 32.0319 28.2636 31.8808 28.1798 31.6542C28.0361 31.2609 27.9785 30.8395 28.0071 30.39Z" fill="#A45441"/>
<path d="M29.0708 30.5932C28.8959 30.6191 28.7353 30.6101 28.5889 30.5664C28.547 30.5539 28.5042 30.5513 28.4604 30.5584C28.3203 30.5789 28.1669 30.5713 28 30.5356C28.0027 30.3554 28.0741 30.189 28.2142 30.0364C28.2498 29.998 28.2909 29.99 28.3373 30.0123C28.4149 30.048 28.472 30.1069 28.5086 30.189C28.5381 30.2523 28.5693 30.2537 28.6023 30.193C28.6505 30.1055 28.7192 30.0565 28.8084 30.0458C28.8557 30.0395 28.8928 30.0569 28.9195 30.098C29.0275 30.2639 29.0779 30.429 29.0708 30.5932Z" fill="#FFFEFE"/>
<path d="M18.4112 30.8573L17.2722 30.86C17.2115 30.8608 17.2022 30.8385 17.2441 30.793C17.3244 30.7074 17.3481 30.5807 17.315 30.4129C17.3025 30.3505 17.2651 30.3264 17.2026 30.3406C17.1589 30.3505 17.1161 30.3491 17.0741 30.3366C17.0054 30.3161 16.9648 30.3415 16.9523 30.4129C16.9175 30.6057 16.9492 30.7346 17.0473 30.7997C17.1143 30.8443 17.108 30.864 17.0286 30.8586L16.6405 30.8319C16.7047 30.6998 16.7377 30.5584 16.7395 30.4076C16.7395 30.3496 16.7105 30.3197 16.6525 30.3179L16.4731 30.3125C16.4 30.3099 16.3594 30.3451 16.3513 30.4183L16.3045 30.8171C16.1341 30.868 15.965 30.8783 15.7972 30.8479C15.7892 30.6775 15.8343 30.5075 15.9324 30.338C15.9592 30.2916 15.9458 30.2684 15.8923 30.2684L12.0495 30.2416C12.0183 30.2416 12.0023 30.226 12.0014 30.1947L12 30.1519C11.9991 30.1073 12.0205 30.0837 12.0643 30.081C12.8227 30.0381 13.6428 30.0154 14.5244 30.0127C14.784 30.0118 15.174 30.0096 15.6942 30.006C16.9577 29.9953 17.9044 29.9989 18.5344 30.0167C18.5861 30.0176 18.6223 30.0417 18.6428 30.089C18.6553 30.1167 18.6553 30.1448 18.6428 30.1733C18.6276 30.2063 18.6022 30.2251 18.5665 30.2295L17.7822 30.3192C17.6492 30.3353 17.5975 30.4085 17.6269 30.5387L17.655 30.6632C17.6809 30.7756 17.7518 30.8341 17.8678 30.8385L18.4112 30.8573Z" fill="#6E2607"/>
<path d="M44.0724 30C44.0001 30.9918 43.7922 31.9635 43.4487 32.9151L42.9468 32.8509C42.8825 32.8429 42.8758 32.8183 42.9267 32.7773C43.1266 32.6132 43.2435 32.3305 43.2774 31.9291C43.2836 31.8569 43.2501 31.8221 43.177 31.8248L42.9682 31.8341C42.8914 31.8377 42.8482 31.8774 42.8383 31.9532L42.7313 32.8509C42.7241 32.9115 42.6902 32.9396 42.6295 32.9352L42.3565 32.9151C42.2958 32.9106 42.2758 32.8799 42.2963 32.8228C42.522 32.1931 42.5443 31.8596 42.3632 31.8221C42.2285 31.7936 42.1535 31.848 42.1383 31.9853L42.046 32.8696C42.0415 32.9151 42.0161 32.9383 41.9697 32.9392L41.8358 32.9405C41.7752 32.9423 41.7515 32.9133 41.7649 32.8536C41.8336 32.5637 41.8604 32.2498 41.8452 31.9117C41.8434 31.8618 41.8193 31.8275 41.7729 31.8087C41.6114 31.7445 41.5458 31.8319 41.5762 32.0709C41.2639 32.1343 40.8432 32.1575 40.314 32.1405C40.1989 32.1369 40.111 32.1347 40.0503 32.1338C39.8915 32.1303 39.6412 32.1338 39.2995 32.1445C38.7659 32.1597 38.3683 32.1575 38.1069 32.1378C37.6661 32.103 37.2971 32.0156 37 31.8756L37.7014 31.0208C37.7433 30.8647 37.7919 30.7786 37.8472 30.7626C37.8838 30.8134 37.9298 30.8326 37.9851 30.8201C38.027 30.8112 38.0601 30.784 38.0842 30.7385C38.135 30.6413 38.1479 30.524 38.123 30.3866C38.0364 30.2457 37.9035 30.2546 37.7241 30.4134C37.6893 30.4437 37.6652 30.4807 37.6518 30.5244C37.6304 30.594 37.5987 30.6582 37.5568 30.7171C37.5291 30.7554 37.5126 30.751 37.5073 30.7037L37.439 30.1217C37.4328 30.0727 37.4546 30.0482 37.5046 30.0482L44.0724 30Z" fill="#521903"/>
<path d="M14.3785 30.5876L14.1202 30.5796L14.0091 30.1646C13.9797 30.0549 14.0216 30 14.1349 30H14.3397C14.4343 29.9991 14.4736 30.0451 14.4575 30.1379L14.3785 30.5876Z" fill="#A34103"/>
<path d="M17.336 30.5195C17.2226 30.5525 17.1106 30.5476 17 30.5047L17.0468 30.1059C17.0549 30.0327 17.0955 29.9975 17.1686 30.0001L17.348 30.0055C17.406 30.0073 17.435 30.0372 17.435 30.0952C17.4332 30.246 17.4002 30.3874 17.336 30.5195Z" fill="#A34103"/>
<path d="M18.5089 30.5273L18.6026 30.5942L18.699 31.3728C18.7079 31.4432 18.6767 31.4776 18.6053 31.4758L13.8069 31.35C13.7034 31.3474 13.657 31.3978 13.6677 31.5012C13.723 32.023 13.7333 32.5518 13.6985 33.0879C13.6949 33.1441 13.6655 33.1672 13.6102 33.1574L13.4281 33.124C13.3755 33.1142 13.338 33.0856 13.3157 33.0384C13.2595 32.918 13.2251 32.7864 13.2126 32.6437L13.1096 31.1132C13.1078 31.0811 13.0971 31.0517 13.0775 31.0249C13.0087 30.9304 12.9369 30.8992 12.862 30.9313C12.8004 30.9581 12.7727 31.0049 12.779 31.0718L12.9583 32.9715C12.9637 33.0348 12.9347 33.0709 12.8713 33.0798L12.8272 33.0852C12.7861 33.0914 12.7629 33.0736 12.7576 33.0317L12.5153 31.0959C12.5108 31.0637 12.4966 31.0374 12.4725 31.0169C12.352 30.9179 12.2168 30.8631 12.0669 30.8524L12 30.6383L13.6624 30.5259L13.9207 30.534L15.8949 30.5179C16.0627 30.5482 16.2318 30.538 16.4022 30.4871C16.5128 30.53 16.6248 30.5349 16.7381 30.5019L17.1263 30.5286C17.2057 30.534 17.2119 30.5143 17.145 30.4698C17.0469 30.4046 17.0152 30.2758 17.05 30.0831C17.0625 30.0118 17.1031 29.9864 17.1718 30.0069C17.2137 30.0194 17.2566 30.0207 17.3003 30.0109C17.3627 29.9966 17.4002 30.0207 17.4127 30.0831C17.4457 30.2508 17.4221 30.3774 17.3418 30.4631C17.2998 30.5086 17.3092 30.5308 17.3699 30.53L18.5089 30.5273Z" fill="#521903"/>
<path d="M38.3695 30.0619C38.3945 30.1993 38.3815 30.3167 38.3307 30.4139C38.3066 30.4594 38.2736 30.4866 38.2316 30.4956C38.1763 30.5081 38.1303 30.4889 38.0938 30.438C37.9858 30.2952 37.9711 30.1703 38.0496 30.0632C38.1112 29.9794 38.2178 29.9789 38.3695 30.0619Z" fill="#A34103"/>
<path d="M38.6634 30.2443C38.6653 30.3766 38.7429 30.4828 38.8367 30.4815C38.9306 30.4802 39.0052 30.3719 39.0033 30.2396C39.0015 30.1073 38.9239 30.0011 38.83 30.0024C38.7362 30.0037 38.6616 30.112 38.6634 30.2443Z" fill="#BF4F0E"/>
<path d="M38.65 30.2432C38.6518 30.3747 38.7324 30.4803 38.83 30.4789C38.9276 30.4775 39.0052 30.3698 39.0033 30.2382C39.0015 30.1067 38.9209 30.0011 38.8233 30.0025C38.7258 30.0038 38.6482 30.1116 38.65 30.2432Z" fill="#BF4F0E"/>
<path d="M40.1941 30.001L40.1164 30.0006C40.0521 30.0003 39.9997 30.0521 39.9994 30.1164L39.9983 30.3306C39.9979 30.3949 40.0498 30.4473 40.1141 30.4476L40.1917 30.4481C40.256 30.4484 40.3084 30.3965 40.3088 30.3322L40.3099 30.1181C40.3102 30.0538 40.2584 30.0014 40.1941 30.001Z" fill="#BF4F0E"/>
<path d="M41.0577 30.4299C41.0175 30.4281 40.9983 30.4072 41.0001 30.367L41.0041 30.3135C41.0166 30.0984 41.0719 29.994 41.1701 30.0003L41.1942 30.0016C41.2932 30.007 41.3365 30.1172 41.324 30.3322L41.3213 30.3857C41.3187 30.4259 41.2973 30.4446 41.2571 30.442L41.0577 30.4299Z" fill="#BF4F0E"/>
<path d="M42.0362 30.4631C42.0112 30.4631 41.9992 30.4506 42 30.4256L42.0014 30.3855C42.0067 30.1267 42.0496 29.9982 42.1299 30H42.17C42.2503 30.0018 42.2878 30.1321 42.2825 30.3908L42.2811 30.431C42.2802 30.456 42.2673 30.4685 42.2423 30.4685L42.0362 30.4631Z" fill="#BF4F0E"/>
<path d="M42.6892 30.2351C42.683 30.3725 42.7449 30.4868 42.8276 30.4906C42.9104 30.4943 42.9825 30.386 42.9887 30.2487C42.9949 30.1113 42.933 29.997 42.8502 29.9932C42.7675 29.9894 42.6954 30.0978 42.6892 30.2351Z" fill="#BF4F0E"/>
<path d="M42.6876 30.254C42.6909 30.39 42.7649 30.4984 42.8528 30.4963C42.9408 30.4941 43.0093 30.3822 43.006 30.2462C43.0027 30.1102 42.9287 30.0017 42.8408 30.0039C42.7528 30.006 42.6842 30.118 42.6876 30.254Z" fill="#BF4F0E"/>
<path d="M28.4658 30C28.6326 30.0357 28.7861 30.0433 28.9262 30.0228C28.9699 30.0156 29.0128 30.0183 29.0547 30.0308C29.201 30.0745 29.3617 30.0834 29.5365 30.0576C29.5901 30.0576 29.6293 30.0763 29.6543 30.1138C29.6811 30.1539 29.682 30.1945 29.657 30.2356C29.5981 30.3319 29.5098 30.3975 29.392 30.4323C29.0726 30.3618 28.758 30.3623 28.4484 30.4337C28.3672 30.3971 28.2717 30.4078 28.162 30.4658C28.0968 30.5006 28.0428 30.4707 28 30.3761L28.095 30.2289C28.1985 30.1173 28.3221 30.041 28.4658 30Z" fill="#361C16"/>
<path d="M40.0603 30.4082C40.0192 30.4082 39.9991 30.3877 40 30.3467V30.2998C40.0027 30.0991 40.0531 29.9991 40.1513 30H40.1861C40.2842 30.0009 40.332 30.1017 40.3293 30.3025V30.3493C40.3284 30.3904 40.3074 30.4109 40.2664 30.4109L40.0603 30.4082Z" fill="#BF4F0E"/>
<path d="M29.0206 30.0525C28.9314 30.3532 28.6369 30.4572 28.1372 30.3644C28.0846 30.3546 28.0475 30.3256 28.0261 30.2774C27.9788 30.1721 27.9958 30.0976 28.077 30.0539C28.3866 29.9825 28.7011 29.982 29.0206 30.0525Z" fill="#FFFEFE"/>
<path d="M37.7812 31.2038L37.0799 32.0587C36.9675 32.1505 36.8921 32.2223 36.8537 32.2741C36.6877 32.4952 36.7346 32.5572 36.9942 32.46C37.0719 32.4306 37.1223 32.4841 37.1455 32.6206C37.1223 32.8533 36.8296 33.0067 36.2674 33.0808C36.2282 33.0861 36.1969 33.0732 36.1737 33.042C36.1274 32.9804 36.1372 32.9318 36.2032 32.8961C36.3022 32.8426 36.4133 32.7918 36.5365 32.7436C36.7176 32.6741 36.7118 32.6299 36.5191 32.6112C36.346 32.5942 36.1845 32.6625 36.0345 32.8159C35.9641 32.8881 35.9422 32.9733 35.969 33.0714C35.9966 33.1695 36.0595 33.2315 36.1577 33.2574C36.2621 33.2841 36.3379 33.3439 36.3852 33.4366C36.4147 33.4946 36.4593 33.5361 36.5191 33.561C36.6717 33.6261 36.7903 33.743 36.8751 33.9116C36.9153 33.9918 36.8947 34.0511 36.8135 34.0895C36.5967 34.1778 36.4084 34.3276 36.2487 34.539C36.2219 34.5738 36.1898 34.5805 36.1523 34.5591L35.3573 34.1069L35.1137 34.0012C35.1048 33.9477 35.0892 33.9 35.0668 33.858C35.0981 33.6591 35.1574 33.4696 35.2449 33.2895C35.3573 33.0576 35.4273 32.8801 35.455 32.757C35.5219 32.4582 35.4073 32.2143 35.111 32.0252C34.9522 31.9236 34.9638 31.8482 35.1458 31.7991C35.3644 31.7394 35.5536 31.7492 35.7133 31.8286C35.8757 31.9534 35.9815 32.0836 36.0305 32.2192C36.0528 32.2799 36.0957 32.3164 36.159 32.3289C36.2233 32.3414 36.2768 32.3231 36.3196 32.2741C36.6382 31.9129 36.9563 31.5561 37.274 31.2038C37.3587 31.1102 37.4609 31.0459 37.5805 31.0112C37.6483 30.9915 37.6991 30.9978 37.7331 31.0299C37.7714 31.0665 37.7875 31.1244 37.7812 31.2038Z" fill="#F89757"/>
<path d="M18.5629 32.1843L18.6794 33.4084C18.7383 33.5547 18.5335 33.6202 18.065 33.6051C16.64 33.5605 15.215 33.5703 13.79 33.6345C13.575 33.6443 13.3688 33.6443 13.1716 33.6345C13.0976 33.6309 13.0521 33.593 13.0351 33.5208C12.9994 33.3692 12.9909 33.2171 13.0097 33.0646C13.0222 33.2073 13.0565 33.3389 13.1127 33.4593C13.135 33.5065 13.1725 33.5351 13.2252 33.5449L13.4072 33.5783C13.4625 33.5881 13.492 33.565 13.4955 33.5088C13.5303 32.9727 13.5201 32.4439 13.4648 31.9221C13.454 31.8187 13.5004 31.7683 13.604 31.7709L18.4023 31.8967C18.4737 31.8985 18.5049 31.8641 18.496 31.7937L18.3996 31.0151C18.4211 31.0035 18.4362 30.9986 18.4451 31.0004C18.4951 31.0146 18.5205 31.0476 18.5214 31.0994C18.5313 31.4686 18.5451 31.8302 18.5629 32.1843Z" fill="#6E2607"/>
<path d="M29.2208 31.3961C29.2324 31.3756 29.2485 31.3715 29.269 31.384C29.3091 31.409 29.3252 31.4474 29.3172 31.4991C29.2797 31.7561 29.236 31.9346 29.186 32.0345C29.1075 32.188 28.975 32.2875 28.7885 32.333C28.5074 32.4017 28.2973 32.2732 28.1581 31.9475C28.0608 31.7218 28.0082 31.4425 28.0001 31.1097C27.9975 30.9767 28.0345 30.9647 28.1112 31.0735C28.1398 31.1137 28.1786 31.1792 28.2277 31.2703C28.3348 31.4684 28.4369 31.5933 28.5342 31.645C28.8135 31.7923 29.0423 31.7093 29.2208 31.3961Z" fill="#BB884C"/>
<path d="M13.1457 32.7913C13.127 32.9438 13.1355 33.0959 13.1711 33.2475C13.1881 33.3198 13.2336 33.3577 13.3077 33.3612C13.5049 33.3711 13.711 33.3711 13.926 33.3612C15.351 33.297 16.7761 33.2872 18.2011 33.3318C18.6695 33.347 18.8743 33.2814 18.8154 33.1352L18.9653 33.9579C18.6503 33.924 18.3305 33.9147 18.0057 33.9298C17.8272 33.9378 17.5608 33.9325 17.2066 33.9138C16.822 33.8933 16.5325 33.8892 16.3379 33.9017C15.4947 33.9543 14.8059 33.9749 14.2714 33.9633C13.7851 33.9526 13.2943 33.9503 12.7991 33.9566C12.4198 33.0237 12.1535 32.0381 12 31C12.1499 31.0107 12.2851 31.0656 12.4056 31.1646C12.4296 31.1851 12.4439 31.2114 12.4484 31.2435L12.6906 33.1793C12.696 33.2212 12.7192 33.2391 12.7602 33.2328L12.8044 33.2275C12.8678 33.2185 12.8968 33.1824 12.8914 33.1191L12.7121 31.2194C12.7058 31.1525 12.7335 31.1057 12.795 31.0789C12.87 31.0468 12.9418 31.078 13.0105 31.1726C13.0302 31.1993 13.0409 31.2288 13.0427 31.2609L13.1457 32.7913Z" fill="#A34103"/>
<path d="M43.1261 33.1273L42.9093 33.7604L37 34.0214L37.1231 33.6573C37.2757 33.5485 37.3618 33.4271 37.3815 33.2933L41.1358 33.1568C41.1796 33.1559 41.2028 33.1331 41.2054 33.0885L41.2536 32.2827C41.2233 32.0436 41.2889 31.9562 41.4504 32.0204C41.4968 32.0391 41.5209 32.0735 41.5226 32.1235C41.5378 32.4617 41.511 32.7757 41.4423 33.0657C41.429 33.1255 41.4526 33.1545 41.5133 33.1527L41.6471 33.1514C41.6935 33.1505 41.719 33.1273 41.7234 33.0818L41.8158 32.1971C41.8309 32.0597 41.9059 32.0052 42.0406 32.0338C42.2218 32.0713 42.1995 32.405 41.9737 33.035C41.9532 33.0921 41.9733 33.1228 42.0339 33.1273L42.307 33.1474C42.3677 33.1518 42.4016 33.1237 42.4087 33.0631L42.5158 32.165C42.5256 32.0891 42.5689 32.0494 42.6456 32.0458L42.8544 32.0365C42.9276 32.0338 42.961 32.0686 42.9548 32.1409C42.9209 32.5424 42.804 32.8253 42.6041 32.9895C42.5533 33.0305 42.5599 33.055 42.6242 33.0631L43.1261 33.1273Z" fill="#A34103"/>
<path d="M37.3233 32C37.6204 32.1401 37.9894 32.2275 38.4302 32.2623C38.6916 32.282 39.0891 32.2842 39.6227 32.269C39.9645 32.2583 40.2148 32.2548 40.3736 32.2583C40.4343 32.2592 40.5222 32.2614 40.6373 32.265C41.1664 32.282 41.5872 32.2588 41.8995 32.1954L41.8513 33.0012C41.8486 33.0458 41.8254 33.0685 41.7817 33.0694L38.0273 33.2059C37.9577 33.0926 37.8636 33.0931 37.7449 33.2073C37.6985 33.1885 37.674 33.1636 37.6713 33.1323C37.7257 33.0842 37.7534 33.0244 37.7543 32.953C37.7551 32.878 37.7239 32.8214 37.6606 32.783C37.5999 32.7464 37.537 32.7442 37.4718 32.7763C37.4067 32.7897 37.379 32.7183 37.3889 32.5622C37.3657 32.4256 37.3152 32.3721 37.2376 32.4015C36.978 32.4988 36.9311 32.4368 37.0971 32.2155C37.1354 32.1637 37.2108 32.0919 37.3233 32Z" fill="#6E2607"/>
<path d="M37.1876 32.0119C37.1777 32.1681 37.2054 32.2394 37.2705 32.2261C37.1278 32.4304 36.9158 32.5486 36.6348 32.5807C36.5884 32.5861 36.5571 32.6111 36.5411 32.6557C36.5339 32.678 36.5366 32.699 36.5491 32.7186C36.5714 32.7561 36.6044 32.7793 36.6482 32.7882C36.9471 32.8533 37.221 32.7846 37.47 32.5821C37.4726 32.6133 37.4972 32.6383 37.5436 32.657C37.4071 32.8159 37.229 32.9243 37.0095 32.9823C36.9533 32.9974 36.9448 33.0269 36.9841 33.0706L37.0095 33.0987C37.055 33.1478 37.1108 33.1692 37.1768 33.163C37.2964 33.1523 37.4267 33.1045 37.5677 33.0198L37.4445 33.3838C37.3 33.4463 37.1536 33.4833 37.0055 33.4949L36.8556 33.4815C36.9368 33.4432 36.9573 33.3838 36.9172 33.3035C36.8324 33.1349 36.7137 33.018 36.5612 32.9528C36.5014 32.9278 36.4568 32.8864 36.4273 32.8284C36.38 32.7356 36.3042 32.6758 36.1998 32.649C36.1016 32.6231 36.0387 32.5611 36.0111 32.463C35.9843 32.3648 36.0061 32.2796 36.0766 32.2073C36.2265 32.0538 36.3881 31.9856 36.5612 32.0025C36.7539 32.0213 36.7597 32.0654 36.5786 32.135C36.4554 32.1832 36.3443 32.2341 36.2453 32.2876C36.1793 32.3233 36.1694 32.3719 36.2158 32.4335C36.239 32.4647 36.2703 32.4777 36.3095 32.4723C36.8717 32.3983 37.1644 32.2448 37.1876 32.0119Z" fill="#A45441"/>
<path d="M36.9328 32.3786C36.6838 32.5811 36.4099 32.6498 36.111 32.5847C36.0672 32.5758 36.0342 32.5526 36.0119 32.5151C35.9994 32.4954 35.9968 32.4745 36.0039 32.4522C36.02 32.4076 36.0512 32.3826 36.0976 32.3772C36.3787 32.3451 36.5906 32.2269 36.7334 32.0225C36.7985 31.9904 36.8614 31.9926 36.9221 32.0292C36.9854 32.0676 37.0167 32.1242 37.0158 32.1992C37.0149 32.2706 36.9872 32.3304 36.9328 32.3786Z" fill="#F89757"/>
<path d="M37.8661 33.0847C37.8465 33.2185 37.7604 33.3399 37.6078 33.4487C37.4668 33.5335 37.3365 33.5812 37.217 33.5919C37.1509 33.5982 37.0952 33.5768 37.0496 33.5277L37.0242 33.4996C36.985 33.4559 36.9934 33.4264 37.0496 33.4112C37.2692 33.3532 37.4472 33.2448 37.5837 33.086C37.7024 32.9718 37.7965 32.9713 37.8661 33.0847Z" fill="#F89757"/>
<path d="M43.4101 33C43.1353 33.907 42.7498 34.7659 42.2537 35.5766L42.334 33.9539C42.3393 33.8593 42.296 33.8254 42.2041 33.8522L42.1707 33.8616C42.0716 33.8901 42.0221 33.9561 42.0221 34.0596C42.0266 34.7499 41.9302 35.4023 41.733 36.0168C41.7303 36.0257 41.7241 36.0306 41.7143 36.0315C41.6973 36.0324 41.6812 36.0333 41.6661 36.0342C41.6241 36.0351 41.605 36.0145 41.6085 35.9726L41.8053 34.0167C41.8097 33.9695 41.795 33.9293 41.7611 33.8963C41.7281 33.8633 41.6879 33.85 41.6407 33.8562C40.9866 33.9365 40.5012 33.9699 40.1844 33.9565C39.1618 33.9137 38.1442 33.9102 37.1314 33.9458C37.0832 33.9476 37.052 33.9253 37.0377 33.8789C36.9913 33.7273 36.9877 33.5659 37.027 33.3947C37.0323 33.3875 37.0439 33.3799 37.0618 33.3719C37.2099 33.3603 37.3563 33.3233 37.5008 33.2609L43.4101 33Z" fill="#521903"/>
<path d="M35.2926 33.1177L35.5362 33.2233C35.5558 33.441 35.6085 33.5359 35.6941 33.5083C35.8753 33.7866 36.0921 33.9716 36.3446 34.0635C36.3875 34.1295 36.3937 34.2133 36.3634 34.315C36.3295 34.4309 36.284 34.5424 36.2268 34.6495L35.4465 35.6595C35.3939 35.6426 35.3452 35.6359 35.3006 35.6394C35.2605 35.643 35.2208 35.6662 35.1815 35.709C34.8719 36.0444 34.5547 36.3222 34.2299 36.5425C33.7141 36.8903 33.1426 37.2337 32.5153 37.5726C32.4591 37.6029 32.4024 37.6029 32.3453 37.5726C32.2891 37.5432 32.2579 37.4963 32.2516 37.4321L32 34.7779C32.1374 34.7199 32.3516 34.653 32.6425 34.5772C32.9789 34.4898 33.2167 34.4095 33.3559 34.3364C33.9412 34.0278 34.428 33.5962 34.8161 33.0414C34.842 33.0039 34.8763 32.9919 34.9192 33.0053L35.2926 33.1177Z" fill="#223F54"/>
<path d="M28.0066 33.8139C28.3368 33.8478 28.679 33.7867 29.0332 33.6305C29.3625 33.4851 29.6578 33.2798 29.9193 33.0148C29.9407 32.9934 29.9599 32.9952 29.9768 33.0202L30.0009 33.055C30.0089 33.0666 30.0085 33.0777 29.9996 33.0884C29.5954 33.5569 29.1024 33.8482 28.5206 33.9625C27.8558 34.0927 27.3525 33.8946 27.0108 33.3682C27.001 33.3539 26.9979 33.3383 27.0014 33.3213C27.0095 33.2821 27.0269 33.2633 27.0536 33.2651C27.0759 33.2669 27.0947 33.2763 27.1098 33.2932C27.3891 33.6082 27.6881 33.7818 28.0066 33.8139Z" fill="#A45441"/>
<path d="M36.5539 34L36.7039 34.0134C36.686 34.0214 36.6744 34.029 36.6691 34.0361C36.6566 34.0388 36.6454 34.0419 36.6356 34.0455C36.6133 34.0517 36.6008 34.0664 36.5981 34.0896C36.541 34.5864 36.3675 35.2932 36.0775 36.2101C35.9365 36.6578 35.8348 36.9976 35.7723 37.2295C35.7125 37.4498 35.5251 37.9274 35.2101 38.6623L35 38.9406C35.0464 38.5981 35.1624 38.1624 35.348 37.6335C35.4506 37.341 35.6335 36.6663 35.8968 35.6094C35.9182 35.5211 35.882 35.4658 35.7884 35.4435C35.8455 35.3365 35.891 35.225 35.9249 35.1091C35.9552 35.0074 35.949 34.9235 35.9061 34.8575C35.8437 34.5891 35.6268 34.404 35.2556 34.3023C35.17 34.33 35.1173 34.235 35.0977 34.0174L35.8928 34.4696C35.9302 34.491 35.9624 34.4843 35.9891 34.4495C36.1488 34.2381 36.3371 34.0883 36.5539 34Z" fill="#BB884C"/>
<path d="M36.5632 34C36.5239 34.1712 36.5275 34.3327 36.5739 34.4843C36.5881 34.5307 36.6194 34.553 36.6676 34.5512C37.6803 34.5155 38.698 34.5191 39.7206 34.5619C40.0373 34.5753 40.5228 34.5418 41.1768 34.4615C41.2241 34.4553 41.2643 34.4687 41.2973 34.5017C41.3312 34.5347 41.3459 34.5748 41.3414 34.6221L41.1447 36.578C41.1411 36.6199 41.1603 36.6404 41.2022 36.6395C41.2174 36.6386 41.2335 36.6377 41.2504 36.6368C41.2602 36.6359 41.2665 36.631 41.2692 36.6221C41.4664 36.0076 41.5627 35.3552 41.5583 34.6649C41.5583 34.5614 41.6078 34.4954 41.7068 34.4669L41.7403 34.4575C41.8322 34.4308 41.8755 34.4647 41.8701 34.5592L41.7898 36.182C41.2 37.2915 40.4518 38.2917 39.5452 39.1827L39.5827 37.8609C39.5845 37.8172 39.5684 37.7811 39.5345 37.7526C39.5283 37.7472 39.5185 37.7392 39.5051 37.7285C38.9849 37.2986 38.5856 37.0302 38.3072 36.9231C37.8512 36.7483 37.3778 36.7876 36.8871 37.0409C36.5159 37.2326 36.2076 37.4279 35.9622 37.6268C35.9327 37.6509 35.9145 37.6817 35.9073 37.7191L35.7266 38.7319C35.5125 38.7845 35.3353 38.8389 35.1953 38.8951C35.0052 38.9709 34.9539 38.9169 35.0413 38.7332C35.0431 38.7287 35.0641 38.6931 35.1042 38.6262C35.4192 37.8913 35.6066 37.4137 35.6664 37.1934C35.7289 36.9615 35.8306 36.6217 35.9716 36.174C36.2616 35.2571 36.4351 34.5503 36.4922 34.0535C36.4949 34.0303 36.5074 34.0156 36.5297 34.0094C36.5395 34.0058 36.5507 34.0027 36.5632 34Z" fill="#6E2607"/>
<path d="M19.1663 34.0633L20.217 37.856L20.1474 38.9851C20.092 38.8156 20.0157 38.6979 19.9185 38.6319C19.8569 38.59 19.7476 38.5534 19.5906 38.5222C19.4772 38.4999 19.388 38.4785 19.3229 38.458C19.2408 38.1771 19.2046 37.8917 19.2145 37.6018C19.218 37.4948 19.1761 37.41 19.0886 37.3476C19.0521 37.3218 18.9954 37.2807 18.9187 37.2245C18.4734 36.8981 18.1254 36.6885 17.8747 36.5958C17.4419 36.4352 17.0618 36.4731 16.7343 36.7095C16.4131 36.9423 16.0762 37.1924 15.7238 37.46C15.6881 37.4867 15.6693 37.522 15.6675 37.5657L15.622 38.4112C14.9921 37.6825 14.5624 37.1313 14.3331 36.7576C14.2689 36.6524 14.172 36.47 14.0427 36.2105C13.8901 35.9054 13.7687 35.678 13.6786 35.5282C13.4056 35.0742 13.1794 34.5855 13 34.0619C13.4952 34.0557 13.986 34.0579 14.4723 34.0686C15.0068 34.0802 15.6957 34.0597 16.5389 34.0071C16.7334 33.9946 17.023 33.9986 17.4075 34.0191C17.7618 34.0379 18.0281 34.0432 18.2066 34.0352C18.5314 34.02 18.8513 34.0294 19.1663 34.0633Z" fill="#6E2607"/>
<path d="M35.6505 34.5555C35.398 34.4636 35.1811 34.2784 35 34C35.3712 34.1017 35.588 34.2869 35.6505 34.5555Z" fill="#C4BFB7"/>
<path d="M24.717 35L24.9446 35.0977C24.8928 35.2083 24.8063 35.289 24.6849 35.3398L24.2874 35.6207C24.2499 35.6466 24.2316 35.6827 24.2325 35.7291C24.2334 35.7746 24.253 35.8098 24.2914 35.8348C24.7295 36.1202 25.0998 36.4551 25.4023 36.8395C25.4264 36.8707 25.4327 36.9051 25.4211 36.9425C25.4086 36.98 25.3836 37.0045 25.3461 37.0161L24.8897 37.1579C24.7987 37.1864 24.7701 37.2457 24.804 37.3358C24.8968 37.5829 25.0003 37.8246 25.1146 38.0609C25.1726 38.1813 25.2814 38.3677 25.4411 38.6201C25.5884 38.8511 25.6928 39.0255 25.7543 39.1432C25.6482 39.656 25.5442 40.164 25.4425 40.667C25.3649 41.0514 25.1511 41.273 24.8014 41.3319C24.5613 41.372 24.3204 41.3658 24.0786 41.3132C23.9305 41.2819 23.7114 41.211 23.4214 41.1004C23.3545 41.0746 23.3036 41.0554 23.2688 41.0429C23.1118 40.9841 23.0194 41.0376 22.9918 41.2035C22.9784 41.2864 22.9601 41.4104 22.9369 41.5754C22.8486 42.1934 22.7375 42.6586 22.6036 42.9707C22.6304 42.7727 22.6152 42.5836 22.5581 42.4035C22.7107 41.9201 22.7513 41.438 22.6799 40.9573C22.6505 40.7736 22.6875 40.5961 22.791 40.4248C22.8133 40.3865 22.8196 40.3455 22.8097 40.3018C22.7821 40.1831 22.7294 40.0824 22.6518 39.9994C22.799 39.5339 22.8539 38.9849 22.8164 38.3526C22.8057 38.1795 22.7165 38.1153 22.5487 38.1599C22.4479 38.1876 22.3605 38.3214 22.2864 38.5613C22.3364 38.3017 22.4591 38.1198 22.6545 38.0154C22.7303 37.9753 22.7696 37.9124 22.7723 37.8268C22.7892 37.2266 22.7303 36.6705 22.5956 36.1586C22.5599 36.0212 22.4716 35.961 22.3306 35.9779C21.7425 36.0511 21.3009 36.2638 21.0055 36.6161C20.8181 36.8391 20.6031 37.2756 20.3604 37.9258C20.3541 37.9428 20.3492 37.9557 20.3456 37.9646C20.2618 38.1894 20.2238 38.4386 20.2319 38.7124C20.2462 39.1619 20.2743 39.4884 20.3162 39.6917C20.3813 40.0066 20.5107 40.296 20.7043 40.56C20.7133 40.6251 20.6834 40.663 20.6147 40.6737C20.5808 40.679 20.5531 40.6679 20.5317 40.6402C20.1685 40.1702 19.9914 39.6422 20.0003 39.0563L20.0699 37.9271C20.2082 37.6052 20.2711 37.3934 20.2586 37.2917L20.6066 36.7218C20.7557 36.4729 20.935 36.2674 21.1447 36.105C21.3169 35.9713 21.6248 35.8401 22.0682 35.7117C22.2779 35.6502 22.4323 35.6007 22.5313 35.5632C22.6946 35.5008 22.9516 35.4285 23.3023 35.3465C23.5022 35.3001 23.6512 35.2631 23.7493 35.2355C24.0866 35.2167 24.4092 35.1382 24.717 35Z" fill="#21282A"/>
<path d="M24.8794 35.0482C25.1435 35.478 25.4728 35.9365 25.8672 36.4234C26.0385 36.6339 26.2223 36.8038 26.4186 36.9331C26.457 36.959 26.4958 36.9603 26.5351 36.9372C26.6475 36.8712 26.7412 36.7713 26.8161 36.6375C26.8786 36.6972 26.8844 36.749 26.8335 36.7927C26.6239 37.0986 26.3856 37.1289 26.1188 36.8836C26.0447 36.815 26.0095 36.831 26.0131 36.9318L26.0586 38.3272C25.9595 38.5804 25.9113 38.7869 25.914 38.9466C25.9212 39.3113 25.8413 39.3319 25.6744 39.0081C25.6735 39.0054 25.6227 38.9372 25.5219 38.8034C25.4603 38.6857 25.3559 38.5113 25.2087 38.2803C25.0489 38.0279 24.9401 37.8415 24.8821 37.7211C24.7679 37.4848 24.6644 37.2431 24.5716 36.996C24.5376 36.9059 24.5662 36.8466 24.6572 36.8181L25.1136 36.6763C25.1511 36.6647 25.1761 36.6402 25.1886 36.6027C25.2002 36.5652 25.1939 36.5309 25.1698 36.4997C24.8674 36.1153 24.497 35.7804 24.0589 35.495C24.0206 35.47 24.0009 35.4348 24 35.3893C23.9991 35.3429 24.0174 35.3068 24.0549 35.2809L24.4524 35L24.8794 35.0482Z" fill="#1B6692"/>
<path d="M27.357 36.0922L26.9367 36.5901C26.8618 36.7239 26.7681 36.8239 26.6557 36.8899C26.6164 36.9131 26.5776 36.9118 26.5392 36.8859C26.3429 36.7565 26.1591 36.5865 25.9878 36.3759C25.5934 35.8887 25.2641 35.4301 25 35C25.4381 35.0473 25.7768 35.149 26.0159 35.3052C26.4763 35.6077 26.9019 35.8223 27.2928 35.949C27.3294 35.9615 27.3517 35.978 27.3597 35.9985C27.3695 36.0244 27.3686 36.0556 27.357 36.0922Z" fill="#FFFEFE"/>
<path d="M35.4884 35C35.5821 35.0223 35.6182 35.0776 35.5968 35.1659C35.3335 36.2228 35.1506 36.8975 35.048 37.19C34.8624 37.7189 34.7464 38.1546 34.7 38.4971C34.6465 38.6041 34.5894 38.6786 34.5287 38.7205C34.4145 38.7998 34.2382 38.881 34 38.964L34.5862 36.3044L34.708 36.0101L35.4884 35Z" fill="#F5CA8B"/>
<path d="M29.8109 35.0726L28.9289 36.8354C28.8655 36.9612 28.7714 36.992 28.6465 36.9277C28.5778 36.8929 28.505 36.8006 28.4283 36.6507L28 36.0778L28.0268 36.0483C28.0455 36.0296 28.066 36.0131 28.0883 35.9988L29.7453 35.0084C29.7614 34.9994 29.7784 34.9977 29.7962 35.003C29.831 35.0128 29.8359 35.036 29.8109 35.0726Z" fill="#FFFEFE"/>
<path d="M30.2245 35.2483L29.819 36.1914C29.802 36.2307 29.8042 36.2681 29.8257 36.3038C29.848 36.3404 29.8801 36.3604 29.922 36.364L30.1469 36.3841C30.1951 36.3885 30.2334 36.4104 30.262 36.4496C30.2905 36.4889 30.2995 36.5321 30.2888 36.5794C30.0407 37.6434 29.6914 38.5397 29.2407 39.2684C29.0694 39.544 28.9757 39.5199 28.9597 39.1961C28.9472 38.9643 28.9155 38.7431 28.8646 38.5326C28.82 38.3471 28.7768 38.3471 28.7348 38.5326C28.733 38.5379 28.7339 38.5772 28.7375 38.6503L28.7268 36.9393C28.7259 36.7653 28.6732 36.7475 28.5688 36.8857L28.439 37.057C28.4033 37.1034 28.3578 37.1172 28.3025 37.0985C28.1981 37.0646 28.1026 37.003 28.0161 36.9138L28 36.6677C28.0767 36.8175 28.1495 36.9098 28.2182 36.9446C28.3431 37.0088 28.4372 36.978 28.5006 36.8523L29.3826 35.0904L29.6329 35.0088C29.6766 34.9945 29.719 34.9976 29.7601 35.0181L30.2245 35.2483Z" fill="#1B6692"/>
<path d="M31.5466 35L31.7983 37.6542C31.8045 37.7184 31.8357 37.7653 31.892 37.7947C31.9491 37.825 32.0057 37.825 32.0619 37.7947C32.6892 37.4558 33.2608 37.1124 33.7765 36.7646C34.1013 36.5443 34.4185 36.2665 34.7281 35.9311C34.7674 35.8883 34.8071 35.8651 34.8473 35.8616C34.8919 35.858 34.9405 35.8647 34.9932 35.8816L34.8714 36.1759C34.8419 36.1902 34.7991 36.2089 34.7429 36.2321C34.6242 36.2803 34.5381 36.3267 34.4845 36.3713C33.6877 37.0339 32.8409 37.5753 31.9442 37.9954C31.8496 38.04 31.8108 38.1135 31.8277 38.2161L32.2667 40.8556L32.9092 42.956C32.8592 42.9613 32.8142 42.985 32.774 43.0269C32.7437 43.0581 32.7075 43.0809 32.6656 43.0951C32.0874 43.2931 31.4405 43.4599 30.7248 43.5955C30.4072 43.6561 30.1212 43.686 29.8669 43.6851C29.8374 43.2927 29.7848 42.911 29.7089 42.5399C29.7009 42.498 29.6862 42.4677 29.6648 42.449C29.6318 42.4195 29.5952 42.4097 29.555 42.4195C29.398 41.7649 29.269 41.1138 29.1682 40.4663C29.1405 40.2879 29.1164 39.9967 29.0959 39.5927C29.0718 39.1254 29.041 38.7784 29.0036 38.5519C29 38.4788 28.9991 38.4395 29.0009 38.4342C29.0428 38.2487 29.0861 38.2487 29.1307 38.4342C29.1816 38.6447 29.2133 38.8658 29.2258 39.0977C29.2418 39.4215 29.3355 39.4456 29.5068 39.17C29.9574 38.4413 30.3068 37.545 30.5548 36.481C30.5655 36.4337 30.5566 36.3904 30.5281 36.3512C30.4995 36.312 30.4611 36.2901 30.413 36.2856L30.1881 36.2656C30.1462 36.262 30.114 36.2419 30.0917 36.2054C30.0703 36.1697 30.0681 36.1322 30.085 36.093L30.4906 35.1498L31.5466 35Z" fill="#212D35"/>
<path d="M22.0556 38.5861L22.0328 39.4998L20.5097 40.6035C20.4972 40.5973 20.4851 40.5911 20.4735 40.5848C20.2799 40.3208 20.1505 40.0314 20.0854 39.7166C20.0434 39.5132 20.0153 39.1868 20.0011 38.7373C19.993 38.4635 20.0309 38.2142 20.1148 37.9895C20.1184 37.9805 20.1233 37.9676 20.1295 37.9507C20.3723 37.3005 20.5873 36.8639 20.7747 36.6409C21.07 36.2886 21.5117 36.0759 22.0998 36.0028C22.2407 35.9858 22.3291 36.046 22.3648 36.1834C22.4995 36.6953 22.5584 37.2514 22.5414 37.8517C22.5388 37.9373 22.4995 38.0002 22.4237 38.0403C22.2282 38.1446 22.1056 38.3266 22.0556 38.5861Z" fill="#223F54"/>
<path d="M27.6187 36.0134L28.047 36.586L28.0631 36.8321C27.9578 36.9106 27.9176 37.023 27.9426 37.1693C27.9631 37.2888 27.9939 37.468 28.035 37.7071C28.2839 39.1465 28.4316 40.2275 28.478 40.9499C28.4816 40.9981 28.4713 41.0436 28.4472 41.0864C28.3062 41.337 28.1269 41.5823 27.9091 41.8222C27.8485 41.89 27.7882 41.89 27.7284 41.8222C27.6651 41.7517 27.571 41.6621 27.446 41.5533C27.2863 41.4124 27.1792 41.2986 27.1248 41.2121C27.0374 41.0712 26.9959 40.8969 27.0003 40.689C27.0253 39.5822 27.1252 38.4478 27.3001 37.2856C27.3296 37.0859 27.2885 36.8852 27.177 36.6836C27.1618 36.6569 27.1275 36.6466 27.0739 36.6529C27.1248 36.6092 27.119 36.5574 27.0565 36.4977L27.4768 36C27.5339 36.0214 27.5812 36.0259 27.6187 36.0134Z" fill="#D41D1C"/>
<path d="M19.7008 37.9596C18.6203 37.7768 17.6356 38.0506 16.7469 38.7811L16 37.9128L16.0455 37.0673C16.0473 37.0236 16.066 36.9884 16.1017 36.9616C16.4542 36.6941 16.791 36.4439 17.1123 36.2111C17.4397 35.9748 17.8199 35.9369 18.2526 36.0974C18.5034 36.1902 18.8514 36.3998 19.2966 36.7262C19.3734 36.7824 19.43 36.8234 19.4666 36.8493C19.554 36.9117 19.596 36.9964 19.5924 37.1034C19.5826 37.3933 19.6187 37.6787 19.7008 37.9596Z" fill="#A34103"/>
<path d="M35.0475 36L34.4613 38.6596C34.3105 38.7666 34.1565 38.8727 33.9995 38.978C33.8166 39.1011 33.6689 39.2139 33.5565 39.3164C33.1175 39.7187 32.7463 40.1731 32.4429 40.6797L32.0039 38.0402C31.9869 37.9376 32.0257 37.864 32.1203 37.8194C33.0171 37.3994 33.8639 36.858 34.6607 36.1953C34.7142 36.1507 34.8003 36.1043 34.919 36.0562C34.9752 36.033 35.0181 36.0143 35.0475 36Z" fill="#B00202"/>
<path d="M39.8186 38.3666L39.5897 38.6489C38.5788 37.7098 37.3822 37.4654 36 37.9158L36.1807 36.9031C36.1878 36.8656 36.2061 36.8348 36.2356 36.8108C36.481 36.6119 36.7892 36.4166 37.1604 36.2248C37.6512 35.9715 38.1246 35.9323 38.5805 36.1071C38.8589 36.2141 39.2582 36.4826 39.7785 36.9124C39.7918 36.9231 39.8017 36.9312 39.8079 36.9365C39.8418 36.9651 39.8579 37.0012 39.8561 37.0449L39.8186 38.3666Z" fill="#8A3401"/>
<path d="M26.8207 37.0018C26.8743 36.9955 26.9086 37.0058 26.9238 37.0325C27.0353 37.2341 27.0764 37.4348 27.0469 37.6346C26.872 38.7967 26.7721 39.9311 26.7471 41.038C26.7426 41.2458 26.7841 41.4201 26.8716 41.5611C26.926 41.6476 27.0331 41.7613 27.1928 41.9022C27.3177 42.011 27.4119 42.1006 27.4752 42.1711C27.535 42.2389 27.5952 42.2389 27.6559 42.1711C27.8736 41.9312 28.053 41.6859 28.194 41.4353C28.2181 41.3925 28.2283 41.347 28.2248 41.2988C28.1784 40.5764 28.0307 39.4955 27.7817 38.056C27.7407 37.8169 27.7099 37.6377 27.6894 37.5182C27.6644 37.3719 27.7045 37.2595 27.8098 37.181C27.8964 37.2702 27.9919 37.3318 28.0963 37.3657C28.1516 37.3844 28.1971 37.3706 28.2328 37.3242L28.3626 37.1529C28.467 37.0147 28.5197 37.0325 28.5206 37.2065L28.5313 38.9175C28.5687 39.1441 28.5995 39.491 28.6236 39.9583C28.6441 40.3624 28.6682 40.6536 28.6959 40.8319C28.7967 41.4794 28.9257 42.1305 29.0827 42.7852C28.7115 43.1018 28.3421 43.3033 27.9745 43.3898C27.5131 43.4987 26.9809 43.496 26.3777 43.3818C26.3554 43.3774 26.342 43.3506 26.3375 43.3016C26.4437 42.803 26.3969 41.974 26.197 40.8146C26.1747 40.6817 26.1582 40.5836 26.1475 40.5202C26.0975 40.2232 26.0636 39.5619 26.0458 38.5362L26.0002 37.1409C25.9967 37.0401 26.0319 37.0241 26.106 37.0927C26.3728 37.338 26.611 37.3077 26.8207 37.0018Z" fill="#FFFEFE"/>
<path d="M23.3882 39.8541L23.0589 39.6895L23.0642 39.5462C23.091 39.4659 23.0696 39.3937 23 39.3294L23.0228 38.4153C23.0968 38.1752 23.1843 38.0414 23.2851 38.0137C23.4528 37.9691 23.5421 38.0333 23.5528 38.2065C23.5903 38.8391 23.5354 39.3883 23.3882 39.8541Z" fill="#92140D"/>
<path d="M18.954 38.0549C19.0191 38.0754 19.1083 38.0968 19.2217 38.1191C19.3787 38.1503 19.488 38.1869 19.5496 38.2288C19.6468 38.2948 19.7231 38.4125 19.7785 38.582C19.7695 39.168 19.9467 39.696 20.3098 40.166C20.3312 40.1936 20.3589 40.2048 20.3928 40.1994C20.4615 40.1887 20.4914 40.1508 20.4825 40.0857C20.4941 40.092 20.5061 40.0982 20.5186 40.1044C20.4883 40.1722 20.4963 40.2231 20.5427 40.2569C20.5784 40.2837 20.6146 40.2842 20.6511 40.2583L22.106 39.2175L22.1007 39.3606L20.6966 40.3359C20.6574 40.3635 20.6386 40.401 20.6404 40.4483C20.6431 40.5919 20.6788 40.7274 20.7475 40.855C20.777 40.9111 20.8202 40.954 20.8773 40.9834L21.3337 41.2188C21.3703 41.2376 21.4029 41.2327 21.4315 41.2041C21.7223 40.9169 22.0645 40.6766 22.4581 40.483C22.5294 40.9638 22.4888 41.4458 22.3363 41.9292L22.0043 42.6945C21.9767 42.7578 21.9294 42.7819 21.8624 42.7667C21.6287 42.715 21.3967 42.6365 21.1664 42.5312C20.3063 42.1397 19.6482 41.7838 19.1922 41.4637C17.8261 40.5067 16.762 39.6442 16 38.8763C16.8887 38.1459 17.8734 37.8721 18.954 38.0549Z" fill="#D41D1C"/>
<path d="M39.1407 38.9521C38.5223 39.6023 37.634 40.335 36.4758 41.1501C35.969 41.5069 35.4885 41.8003 35.0343 42.0304C34.2794 42.4139 33.5236 42.7319 32.7669 42.9843C32.7304 42.9968 32.6889 42.995 32.6425 42.9789L32 40.8786C32.3034 40.372 32.6746 39.9176 33.1136 39.5153C33.226 39.4128 33.3737 39.2999 33.5566 39.1769C33.7137 39.0716 33.8676 38.9655 34.0184 38.8585C34.2566 38.7755 34.4329 38.6944 34.5471 38.615C34.6078 38.5731 34.6649 38.4986 34.7184 38.3916L34.9285 38.1133C34.8884 38.1802 34.8674 38.2159 34.8656 38.2203C34.7782 38.404 34.8295 38.458 35.0196 38.3822C35.1596 38.326 35.3368 38.2716 35.5509 38.219C36.9331 37.7686 38.1297 38.013 39.1407 38.9521Z" fill="#D41D1C"/>
<path d="M26.8786 38C26.8964 39.0257 26.9304 39.687 26.9803 39.984C26.991 40.0473 27.0075 40.1454 27.0298 40.2783C27.2297 41.4377 27.2766 42.2667 27.1704 42.7653C27.0588 42.7234 26.9982 42.7484 26.9884 42.8402C26.9482 43.2086 26.9125 43.4565 26.8813 43.584C25.6169 43.5065 24.3525 43.242 23.0881 42.7907C23.0105 42.7631 22.9841 42.71 23.0091 42.6315C23.0395 42.5325 23.1001 42.4233 23.1912 42.3038C23.325 41.9916 23.4361 41.5265 23.5244 40.9084C23.5476 40.7434 23.5659 40.6194 23.5793 40.5365C23.607 40.3706 23.6993 40.3171 23.8564 40.376C23.8912 40.3884 23.942 40.4076 24.009 40.4335C24.299 40.5441 24.518 40.615 24.6661 40.6462C24.9079 40.6988 25.1489 40.7051 25.3889 40.6649C25.7387 40.6061 25.9524 40.3844 26.03 40C26.1317 39.497 26.2357 38.9891 26.3419 38.4763C26.4427 38.61 26.4936 38.6783 26.4945 38.6809C26.6613 39.0047 26.7412 38.9842 26.734 38.6194C26.7314 38.4598 26.7796 38.2533 26.8786 38Z" fill="#223F54"/>
<path d="M25.1383 38.7224L23.1739 38.9774C23.0778 38.9899 23.0101 39.0778 23.0226 39.1739L23.0574 39.442C23.0699 39.538 23.1579 39.6058 23.2539 39.5933L25.2183 39.3383C25.3144 39.3258 25.3821 39.2379 25.3696 39.1418L25.3348 38.8737C25.3223 38.7777 25.2343 38.71 25.1383 38.7224Z" fill="#B67875"/>
<path d="M22.6054 39.2168L21.1505 40.2582C21.1139 40.284 21.0778 40.2836 21.0421 40.2568C20.9957 40.2229 20.9877 40.172 21.018 40.1042L22.5412 39C22.6108 39.0642 22.6322 39.1365 22.6054 39.2168Z" fill="#FFFEFE"/>
<path d="M22.4604 40L22.7896 40.1646C22.8673 40.2476 22.9199 40.3484 22.9476 40.4671C22.9574 40.5108 22.9511 40.5519 22.9288 40.5903C22.8253 40.7616 22.7883 40.9392 22.8177 41.123C22.4242 41.3166 22.082 41.5571 21.7911 41.8444C21.7626 41.8729 21.73 41.8779 21.6934 41.8591L21.237 41.6235C21.1799 41.5941 21.1366 41.5513 21.1072 41.4951C21.0385 41.3675 21.0028 41.2318 21.0001 41.0882C20.9983 41.0409 21.0171 41.0034 21.0563 40.9757L22.4604 40Z" fill="#F89757"/>
<path d="M27.8705 42.2806C27.87 42.4359 27.8983 42.5618 27.9338 42.5619C27.9693 42.562 27.9985 42.4363 27.999 42.2811C27.9996 42.1258 27.9712 41.9999 27.9358 41.9998C27.9003 41.9997 27.8711 42.1254 27.8705 42.2806Z" fill="#C4BFB7"/>
<path d="M28.3688 43.2213C28.3991 43.2391 28.4174 43.2659 28.4236 43.3016C28.4326 43.3542 28.4116 43.3712 28.3607 43.3524C28.2938 43.3284 28.2265 43.3163 28.1586 43.3163C28.1096 43.3154 28.0694 43.2967 28.0382 43.2601C28.0052 43.2208 27.9936 43.1762 28.0034 43.1262C28.0159 43.0602 28.0551 43.0196 28.1212 43.0044C28.1872 42.9902 28.2398 43.0102 28.2791 43.0647C28.3121 43.1111 28.342 43.1633 28.3688 43.2213Z" fill="#C4BFB7"/>
<path d="M30.3461 44.2699C29.9607 44.3064 29.5618 44.3395 29.1496 44.3689C28.9836 44.3805 28.8239 44.3752 28.6704 44.3528C28.5963 44.3421 28.4906 44.343 28.3532 44.3555C28.2024 44.3689 28.085 44.3685 28.0012 44.3542C27.6612 44.2971 27.3275 44.2922 27 44.3395C27.0312 44.2119 27.0669 43.9638 27.1071 43.5953C27.1169 43.5034 27.1776 43.4784 27.2891 43.5203C27.2936 43.5694 27.307 43.5962 27.3293 43.6006C27.9325 43.7148 28.4647 43.7175 28.926 43.6087C29.2937 43.5221 29.6631 43.3204 30.0343 43.0037C30.0744 42.9939 30.111 43.0037 30.144 43.0331C30.1655 43.0519 30.1802 43.0822 30.1882 43.1241C30.2641 43.4953 30.3167 43.8772 30.3461 44.2699Z" fill="#21282A"/>
<defs>
<linearGradient id="paint0_linear_9_16503" x1="10.4178" y1="9.71163" x2="68.1465" y2="76.0166" gradientUnits="userSpaceOnUse">
<stop stop-color="#1A1E21"/>
<stop offset="1" stop-color="#06060A"/>
</linearGradient>
</defs>
</svg>
