<svg width="112" height="112" viewBox="0 0 56 56" xmlns="http://www.w3.org/2000/svg"><rect fill="#F0F3FA" width="56" height="56" rx="28"/><path d="M43.77 30.7a16 16 0 1 0-31.56-.12 35.17 35.17 0 0 1 19.6-3.35 3.1 3.1 0 0 1-.2 2.36 33.9 33.9 0 0 0-7.61 0v13.9a16.03 16.03 0 0 0 19.2-10.46 32.73 32.73 0 0 0-7.45-2.87 7.26 7.26 0 0 1-2.63 3.67A7.05 7.05 0 0 1 28.83 35h-2.86v-2h2.86a5.04 5.04 0 0 0 4.84-5 4.94 4.94 0 0 0-4.84-5H24v2c-.56.05-.94.12-1.4.2l-.6.1V21h6.84c1.48 0 2.93.22 4.15 1.07a7.25 7.25 0 0 1 3.08 5.76 35.47 35.47 0 0 1 7.7 2.87Zm0 .03-.03.15-.04.22-.02.06v.07l-.04.15c.05-.22.1-.43.13-.65Zm-.16.8-.01.06.01-.06ZM22 42.83a16.04 16.04 0 0 1-9.23-9.9 35.67 35.67 0 0 1 9.23-3v12.9Z" fill="#F25138"/></svg>