<svg width="56" height="56" viewBox="0 0 56 56" xmlns="http://www.w3.org/2000/svg"><path fill-rule="evenodd" d="M19.4 17.83a2.5 2.5 0 1 0-1.4.12v4.9l9.83-6.56-1.51 11.26L14 34.45l11.86 4.4-2.69 1.8a2.5 2.5 0 1 0 .7 1.06l4.57-3.35-11.55-4.2 9.92-5.61 11.86 7.84-1.84-11.92 2.32 1.18a2.5 2.5 0 1 0 .67-1l-4.63-2.36L37 33.96l-9.47-6.41 1.82-13.9-9.96 7v-2.82Zm.28-2.33a1.18 1.18 0 1 1-2.36 0 1.18 1.18 0 0 1 2.36 0ZM41.5 27.68a1.18 1.18 0 1 0 0-2.36 1.18 1.18 0 0 0 0 2.36ZM22.68 42.5a1.18 1.18 0 1 1-2.36 0 1.18 1.18 0 0 1 2.36 0Z" fill="#fff"/></svg>