<svg width="224" height="224" xmlns="http://www.w3.org/2000/svg" viewBox="0 0 56 56"><rect fill="#1592E6" width="56" height="56" rx="28"/><circle cx="27.997" cy="27.996" r="16.756" fill="#fff"/><path d="M27.968 11.183c-9.242 0-16.77 7.513-16.77 16.77 0 9.243 7.528 16.77 16.77 16.77 9.257 0 16.784-7.513 16.784-16.77s-7.541-16.77-16.784-16.77zm0 32.278a15.522 15.522 0 010-31.017 15.523 15.523 0 010 31.003v.014z" fill="#000"/><path d="M40.528 28.279c0-5.204-2.975-9.992-7.867-11.965a5.021 5.021 0 00-4.686-3.3 5.021 5.021 0 00-4.685 3.3c-4.795 1.936-7.867 6.68-7.867 11.823-1.684 1.392-2.265 3.793-1.402 5.8.862 2.007 3.004 3.239 5.172 2.975a12.517 12.517 0 008.79 3.587 12.517 12.517 0 008.76-3.573 5.022 5.022 0 005.007-2.96 5.021 5.021 0 00-1.222-5.687zm-7.584-10.575c3.74 1.813 6.244 5.629 6.422 9.781a4.963 4.963 0 00-2.694-.468 8.842 8.842 0 00-4.323-6.662c.447-.83.595-1.721.595-2.651zm-4.947-3.346c1.976 0 3.629 1.653 3.629 3.63 0 1.976-1.653 3.628-3.63 3.628-1.976 0-3.628-1.652-3.628-3.629 0-1.976 1.652-3.629 3.629-3.629zm-4.962 3.331c-.07.936.142 1.858.581 2.68a8.842 8.842 0 00-4.338 6.662 4.962 4.962 0 00-2.679.397c.192-4.137 2.695-7.932 6.422-9.739h.014zm-4.423 17.905c-2.05.128-3.856-1.547-3.856-3.622 0-2.064 1.797-3.751 3.856-3.622 1.887.118 3.403 1.73 3.403 3.622 0 1.89-1.516 3.503-3.403 3.622zm1.914.964a4.99 4.99 0 002.126-1.673c3.066 2.38 7.471 2.413 10.575.085a4.93 4.93 0 002.17 1.63c-4.222 3.638-10.67 3.62-14.871-.042zm16.67-.964c-2.059.129-3.855-1.559-3.855-3.622 0-2.064 1.796-3.751 3.856-3.622 1.887.118 3.402 1.73 3.402 3.622 0 1.89-1.515 3.503-3.402 3.622z" fill="#1592E6"/></svg>