<svg width="224" height="224" viewBox="0 0 56 56" xmlns="http://www.w3.org/2000/svg"><path d="M22.22 29.22a.28.28 0 0 1-.18-.1 7.3 7.3 0 0 1-1.67-3.15 5.95 5.95 0 0 1 .17-3.57 4.75 4.75 0 0 1 2.32-2.67 5.46 5.46 0 0 1 3.33-.46l3.77.52c.17.03.35.03.55.01l5.49-.58c1.07-.12 1.82-.14 2.25-.09.8.1 1.5.39 2.15.85a5.22 5.22 0 0 1 1.55 1.8c.03.05.05.05.05-.02 0-1.26 0-1.97-.03-2.14a4.59 4.59 0 0 0-2.63-3.54 8.62 8.62 0 0 0-2.05-.46 67035.22 67035.22 0 0 0-17.9-2.53c-.58-.08-1-.1-1.25-.08-1.25.16-2.14.8-2.67 1.9-.2.44-.3.9-.31 1.4L15 27.38c-.02.84-.01 1.38 0 1.62.1 1.16.53 2.22 1.28 3.19a5.68 5.68 0 0 0 3.5 2.16l8.66 1.2c1.1.15 1.86.22 2.25.2a5.66 5.66 0 0 0 4.25-2.02c.8-.9 1.28-1.95 1.45-3.16a5.32 5.32 0 0 0-1.36-4.6.35.35 0 0 0-.32-.1l-4.71.5a.04.04 0 0 0-.04.04v.04c.54.56.75 1.22.65 1.98-.05.4-.18.73-.4 1-.28.36-.63.57-1.04.63-.26.04-.72.02-1.35-.07-2.8-.4-4.68-.65-5.61-.78Zm12.7-3.9a.2.2 0 0 1 .16.05 5.52 5.52 0 0 1 1.85 4.25c0 1.77-.6 3.31-1.82 4.63a6.34 6.34 0 0 1-2.49 1.69c-.44.16-1.13.3-2.07.4-4.7.53-8.05.92-10.03 1.17-.64.08-1.2.08-1.71.02a5.07 5.07 0 0 1-3.72-2.3c-.06-.07-.08-.06-.08.03v3.58c0 .6.01 1.04.05 1.3.06.4.19.79.4 1.14a3.23 3.23 0 0 0 2.24 1.67c.39.08 1.05.06 2-.05l18.04-2.14a6.5 6.5 0 0 0 1.37-.27 4.54 4.54 0 0 0 2.72-2.98c.1-.35.15-.93.15-1.74 0-6.57 0-10.27.02-11.12a6.15 6.15 0 0 0-.12-1.43 4.7 4.7 0 0 0-1.15-2.24 4.23 4.23 0 0 0-2.13-1.24 4.95 4.95 0 0 0-1.7-.1l-10.42 1.1a5.27 5.27 0 0 0-2.94.95 5.8 5.8 0 0 0-2.54 5 6.96 6.96 0 0 0 1.1 1.9c.07.08.18.13.35.15l4.22.58c.02 0 .04 0 .05-.02a.05.05 0 0 0 .01-.05 2.14 2.14 0 0 1 0-1.81 2.34 2.34 0 0 1 2.03-1.46c2.01-.2 4.06-.43 6.16-.66Z" fill="#91E604"/><defs><linearGradient id="a" x1="10.42" y1="9.71" x2="68.15" y2="76.02" gradientUnits="userSpaceOnUse"><stop stop-color="#1A1E21"/><stop offset="1" stop-color="#06060A"/></linearGradient></defs></svg>