<svg width="56" height="56" viewBox="0 0 56 56" xmlns="http://www.w3.org/2000/svg"><path d="M45 28a17 17 0 1 1-34 0 17 17 0 0 1 34 0Z" fill="#199DA2"/><path d="M40.43 23.44a2.14 2.14 0 0 0-.12-.4 13.35 13.35 0 0 0-10.61-8.21c-.2-.03-.4 0-.6-.05-.1-.02-.24-.04-.43-.04h-1.41c-.23 0-.4.06-.62.06a18.77 18.77 0 0 0-1.66.26 13.37 13.37 0 0 0-9.3 8c-.05.13-.08.25-.1.37h-.64a.05.05 0 0 1-.04-.04v-.03a13.9 13.9 0 0 1 26.2.08h-.67Z" fill="#A4DEE0"/><path d="M40.43 23.44a903.3 903.3 0 0 1-8.67-.04c-.25-.01-.52.04-.76.04a58210.88 58210.88 0 0 0-7.35 0 3.82 3.82 0 0 1-.62-1.81 4.06 4.06 0 0 1 1.33-3.52c1.43-1.28 3.6-1.5 5.41-1.18a.04.04 0 0 1 .03.03v.02l-.01.02a3.59 3.59 0 0 0-1.27 2.33 3.55 3.55 0 0 0 1.82 3.59 3.4 3.4 0 0 0 2.51.35 3.6 3.6 0 0 0 2.24-5.39c-1.21-1.8-3.31-2.66-5.39-2.97-.5-.08-1.01-.06-1.5-.09-.4-.01-.7.04-1.21.1a7.6 7.6 0 0 0-2.46.68c-3.12 1.46-4.3 4.59-3.4 7.83h-5.55c.02-.12.05-.24.1-.37a13.37 13.37 0 0 1 10.96-8.26c.23 0 .4-.05.62-.06h1.4c.2 0 .34.01.45.04.18.04.39.02.59.05a13.32 13.32 0 0 1 10.73 8.6Z" fill="#4FBCBF"/><path d="M23.65 23.43h-2.52c-.9-3.24.28-6.37 3.4-7.83a7.6 7.6 0 0 1 2.46-.68c.52-.06.81-.11 1.2-.1.5.03 1 .01 1.51.1 2.08.3 4.18 1.16 5.4 2.96a3.6 3.6 0 0 1-4.75 5.03 3.59 3.59 0 0 1-.54-5.94.04.04 0 0 0-.02-.03l-.02-.01c-1.81-.33-3.98-.1-5.4 1.18-1 .9-1.44 2.07-1.34 3.52.05.64.26 1.24.62 1.8Z" fill="#C5E7E8"/><path d="M32.6 19.78c.7.05 1.11.42 1.23 1.1.13.74-.22 1.45-1 1.62-.33.07-.77.07-1.09-.16-.28-.2-.39-.46-.34-.78.08-.51 1.1-.16.55.44a.08.08 0 0 0-.02.06.07.07 0 0 0 .05.06c.24.1.68.13.92-.03.48-.33.5-1.48.06-1.83-.33-.26-.71-.17-1.05.05a.05.05 0 0 1-.06 0 .05.05 0 0 1-.02-.06A243.13 243.13 0 0 1 33 18.63a.03.03 0 0 0-.03-.02h-1.51a.05.05 0 0 0-.05.05l-.01 1.63c0 .17.04.37.22.41.34.08.45-.09.65-.3a.1.1 0 0 1 .11-.03.1.1 0 0 1 .07.09c.03.23-.3.53-.51.56-.62.1-1.12-.05-1.12-.76a107.91 107.91 0 0 1-.02-1.62.07.07 0 0 0-.05-.03h-.71a.1.1 0 0 1-.1-.09v-.13a.09.09 0 0 1 .1-.1h.76l.02-.04v-.59c0-.05-.02-.1-.06-.15l-.17-.16a.07.07 0 0 1-.01-.07.07.07 0 0 1 .05-.04c.25-.04.47-.03.66.04a.16.16 0 0 1 .11.15v.85a.04.04 0 0 0 .04.02h2.1c.1 0 .17.06.24.19a.06.06 0 0 1-.01.06l-1.18 1.18-.01.02a.03.03 0 0 0 0 .02l.02.01Z" fill="#199DA2"/><path d="M20.25 28.98c.45.28.82.5 1.37.58.16.02.53 0 .67-.12.15-.14.1-.36-.09-.48a1.67 1.67 0 0 0-.28-.14c-1.31-.45-2.65-.98-2.32-2.57.17-.8 1.04-1.28 1.88-1.39.96-.12 1.85.05 2.65.53l.05.06a.1.1 0 0 1 0 .08l-.57 1.28-.01.02-.03.01a.07.07 0 0 1-.05 0c-.45-.29-1.46-.76-1.94-.36a.11.11 0 0 0-.04.07c-.04.23.03.38.22.45 1.04.38 2.22.67 2.52 1.76.1.34.07.7-.07 1.06-.31.82-1.1 1.15-2 1.27-.85.1-2.11-.23-2.74-.76a.12.12 0 0 1-.04-.07l.01-.08.73-1.19a.05.05 0 0 1 .04-.02.05.05 0 0 1 .04 0ZM16 29.42c.56 0 1-.33 1-.83a353.32 353.32 0 0 1 .01-3.58l.03-.01h1.91l.03.01.02.03v3.1c0 .59-.04 1.02-.15 1.3-.37.96-1.33 1.4-2.43 1.53a3.96 3.96 0 0 1-.84 0c-1.1-.12-2.06-.57-2.43-1.53a3.63 3.63 0 0 1-.15-1.3v-3.1c0-.01 0-.02.02-.03h1.97l.01.02v3.56c0 .5.44.83 1 .83ZM34.42 25a2151.18 2151.18 0 0 1 2.9.01v1.48l-.01.02h-1.84l-.04.02-.01.03v4.4a.04.04 0 0 1-.01.03h-.04a205.22 205.22 0 0 0-1.93 0l-.01-.02V26.56c0-.01 0-.02-.02-.03l-.03-.01h-1.8l-.05-.01a.04.04 0 0 1-.01-.04v-1.46h.03l2.87-.01Z" fill="#fff"/><path d="M34.43 25.38h2.38c.03 0 .06.02.08.04a.1.1 0 0 1 .03.07v.54a.1.1 0 0 1-.03.08.12.12 0 0 1-.08.03h-1.72c-.02 0-.04 0-.05.02a.07.07 0 0 0-.03.05L35 30.56a.06.06 0 0 1-.02.04l-.03.01h-.02a71.41 71.41 0 0 1-1.04 0l-.02-.03v-.02l-.02-4.35a.07.07 0 0 0-.02-.05.08.08 0 0 0-.06-.02h-1.71a.12.12 0 0 1-.09-.03.1.1 0 0 1-.03-.08v-.54a.1.1 0 0 1 .03-.07 169.76 169.76 0 0 1 2.46-.04Z" fill="#C5E7E8"/><path d="M40.83 26.52h-2.67l-.02-.01-.02-.03v-1.43c0-.02 0-.03.02-.04l.03-.01h5.16l.03.01.01.03v1c0 .09-.02.17-.08.23-.89 1.08-1.63 1.98-2.2 2.7-.16.18-.28.3-.48.48l-.01.02v.02l.02.02h.02c.17-.02.34-.04.5-.04a372.84 372.84 0 0 1 2.25.03v1.49l-.02.01h-5.3l-.04-.01-.01-.03c-.03-.36-.03-.7 0-1.02 0-.12.08-.26.21-.42.9-1.04 1.6-1.87 2.12-2.49a4.22 4.22 0 0 1 .5-.5l-.02-.01Z" fill="#fff"/><path d="M41.27 26.06c-.3 0-.76.08-1.15.07a91.02 91.02 0 0 0-1.5 0 .13.13 0 0 1-.08-.06.1.1 0 0 1 0-.05v-.55c0-.03 0-.05.02-.07a.1.1 0 0 1 .07-.02h4.22l.05.01.02.05c.07.35 0 .65-.18.88l-2.08 2.52c-.14.17-.3.28-.44.42a.23.23 0 0 0-.06.16v.45h2.67c.04 0 .08.02.11.05.03.03.05.07.05.1v.45l-.01.05-.04.05a.18.18 0 0 1-.12.05h-4.3a.1.1 0 0 1-.06-.02.09.09 0 0 1-.04-.06c-.03-.24-.01-.46.06-.66a186.05 186.05 0 0 0 2.23-2.67l.54-.5a.12.12 0 0 0 .04-.08l.03-.5a.05.05 0 0 0-.01-.05.06.06 0 0 0-.04-.02Z" fill="#C5E7E8"/><path d="M27.95 25a3.4 3.4 0 0 1 2.15.78c.28.25.5.55.66.87.16.33.24.68.24 1.03v.61c0 .71-.32 1.4-.88 1.9-.57.51-1.35.8-2.15.8l-2.9.01-.03-.01-.02-.03-.02-5.91.01-.03.03-.01 2.9-.01Zm-.86 1.45a.1.1 0 0 0-.06.02.08.08 0 0 0-.03.06v2.92c0 .02.01.04.03.05a.1.1 0 0 0 .06.03h.53A1.38 1.38 0 0 0 29 28.15v-.32a1.37 1.37 0 0 0-1.38-1.38h-.53Z" fill="#fff"/><path d="M15.45 32c.06.23.14.72.23.92a13.24 13.24 0 0 0 13.21 8.32A13.31 13.31 0 0 0 40.64 32h.62a.05.05 0 0 1 .05.05v.02a15 15 0 0 1-4.47 6.64 13.9 13.9 0 0 1-17.7-.01 14.85 14.85 0 0 1-4.38-6.67.06.06 0 0 1 .05-.03h.64Z" fill="#A4DEE0"/><path d="M23.13 32a4.1 4.1 0 0 0-3.23 3.4c-.04.26-.02.52-.03.78-.02.96.58 1.87 1.26 2.52 1.93 1.85 4.62 2.52 7.33 2.45a7.76 7.76 0 0 0 6.33-3.21 7 7 0 0 0 1.29-4.75c-.03-.22-.18-.87-.2-1.19h4.78a13.31 13.31 0 0 1-11.77 9.24A13.24 13.24 0 0 1 15.39 32h7.74Z" fill="#4FBCBF"/><path d="M33.54 32c.33.67.43 1.6.43 2.23a4.72 4.72 0 0 1-3.76 4.7 10.24 10.24 0 0 1-4.69-.06.04.04 0 0 1 .02-.04 3.6 3.6 0 0 0 1.44-3.43c-.27-1.58-1.94-3.05-3.5-3.4H33.54Z" fill="#4FBCBF"/><path d="M35.94 32c.02.33.11.72.14.94a7.37 7.37 0 0 1-1.12 4.94c-1.45 2.16-3.97 3.2-6.5 3.27-2.71.08-5.53-.61-7.46-2.52-.68-.67-1.3-1.61-1.27-2.6 0-.27-.01-.54.03-.8A3.92 3.92 0 0 1 23.05 32h.97a4.01 4.01 0 0 1 3.08 3.23 3.8 3.8 0 0 1-1.46 3.56.05.05 0 0 0 .01.05l.02.01c1.53.35 3 .4 4.54.02A4.83 4.83 0 0 0 33.48 32h2.46Z" fill="#C5E7E8"/><path d="M23.73 33.75a.04.04 0 0 0-.03 0 .04.04 0 0 0-.02.04v1.52a.08.08 0 0 0 .05.07c.66.24 1.46.5 1.46 1.34 0 .56-.28.95-.86 1.17a5.08 5.08 0 0 1-.63.16.07.07 0 0 0-.01.04v.47h-.08l-.01-.03V38.06a.04.04 0 0 0-.03-.03h-.52l-.01.01-.01.02v.5l-.02.01h-.06l-.01-.04v-.44a.12.12 0 0 0-.12-.12c-.47-.03-.97-.18-1.17-.6a.98.98 0 0 1-.03-.47.2.2 0 0 1 .04-.1c.26-.32.88-.22.82.27-.02.22-.2.34-.39.45a.06.06 0 0 0-.02.07l.01.02c.16.18.6.25.81.27h.03a.04.04 0 0 0 .01-.04v-1.73a.11.11 0 0 0-.08-.11c-.38-.12-.82-.33-1.03-.69-.37-.62.12-1.34.74-1.54a5.6 5.6 0 0 1 .32-.1l.02-.03.07-.16.01-.02H23a.03.03 0 0 1 .03.03v.1a.05.05 0 0 0 .03.05h.49a.06.06 0 0 0 .05-.02.06.06 0 0 0 .01-.04v-.08l.01-.02.02-.01a.03.03 0 0 1 .03.02l.03.09a.1.1 0 0 0 .07.07c.2.04.38.1.54.15.36.13.8.54.68.96-.13.45-.86.38-.8-.14 0-.19.18-.3.34-.36a.12.12 0 0 0 .04-.21 2.06 2.06 0 0 0-.84-.3Z" fill="#199DA2"/><path d="M23.07 33.73h.48l.03.01.01.03v1.54a.04.04 0 0 1-.02.03.04.04 0 0 1-.03 0l-.48-.2h-.02V33.73l.03-.01ZM22.95 35.06v.02h-.04c-.2 0-.4-.06-.55-.17a.57.57 0 0 1-.24-.45c0-.09.02-.17.06-.25.04-.07.1-.14.16-.2.08-.06.16-.1.25-.14.1-.04.2-.05.3-.05h.03v.01l.03 1.23ZM23.56 37.9h-.5l-.01-.01a.03.03 0 0 1-.02-.02v-1.79a.03.03 0 0 1 .02-.02.03.03 0 0 1 .02 0l.5.2a.03.03 0 0 1 .02.03v1.57a.03.03 0 0 1-.03.03ZM23.7 36.37a.02.02 0 0 1 0-.01h.03a.95.95 0 0 1 .65.23c.09.06.16.15.2.24.05.1.07.2.07.3 0 .2-.1.4-.27.54-.18.14-.41.22-.65.22h-.02a.02.02 0 0 1-.02-.02v-1.5Z" fill="#C5E7E8"/></svg>