<svg width="224" height="224" viewBox="0 0 56 56" xmlns="http://www.w3.org/2000/svg"><rect fill="#F0F3FA" width="56" height="56" rx="28"/><path d="M28 11c8.19 0 15 6.16 16.5 14h-1.57c-1.47-6.97-7.6-12.44-14.93-12.44S14.54 18.03 13.07 25H11.5C13 17.16 19.81 11 28 11Zm16.5 20h-1.58c-1.48 6.96-7.6 12.44-14.92 12.44S14.56 37.96 13.08 31h-1.57C13 38.83 19.82 45 28 45c8.18 0 14.99-6.17 16.5-14Zm-11.07-2.15a5.7 5.7 0 0 0-3.02-1.43l-4.47-.83a3.34 3.34 0 0 1-1.77-.85 2.15 2.15 0 0 1-.62-1.56v-1.43c0-.76.28-1.37.84-1.8a3.5 3.5 0 0 1 2.28-.7h2.81c.89 0 1.6.3 2.13.88.53.58.8.9.8 1.87h1.8a3.9 3.9 0 0 0-1.3-3.12A4.34 4.34 0 0 0 30 18.52V16h-1.5v2.5H27V16h-1.5v2.59c-.97.15-1.79.51-2.45 1.08a3.83 3.83 0 0 0-1.35 3.08v1.43c0 1.1.35 2 1.05 2.73.7.73 1.68 1.2 2.94 1.43l4.5.8c.76.12 1.36.4 1.79.82.45.43.67.94.67 1.54v1.7c0 .76-.3 1.38-.9 1.86-.6.46-1.38.69-2.37.69h-2.76c-1 0-1.81-.34-2.43-1.01a4.1 4.1 0 0 1-.9-2.74H21.5c0 1.08.2 2.1.62 2.93a4.82 4.82 0 0 0 1.8 1.9c.48.28 1 .48 1.58.58V40H27v-2.5h2V40h1.5v-2.57a5.06 5.06 0 0 0 2.6-1.1c.93-.8 1.4-1.84 1.4-3.13v-1.7c0-1.08-.36-1.96-1.07-2.65Z"/></svg>