<svg width="56" height="56" fill="none" xmlns="http://www.w3.org/2000/svg"><path fill-rule="evenodd" clip-rule="evenodd" d="M27.643 19C32.803 19 37 23.362 37 28.724 37 34.085 32.803 38 27.643 38h-1.638v-4h1.638c2.956 0 5.361-2.192 5.361-5.276 0-3.085-2.405-5.724-5.36-5.724H18v17h-4V19h13.643z" fill="#FA9B00"/><path fill-rule="evenodd" clip-rule="evenodd" d="M28.426 12C37.014 12 44 19.177 44 28c0 8.822-6.986 16-15.574 16H20V25h4v15h4.426C34.833 40 40 34.596 40 28s-5.167-12-11.574-12H19v-4h9.426z" fill="#242A47"/></svg>