<svg width="112" height="112" viewBox="0 0 56 56" xmlns="http://www.w3.org/2000/svg"><path fill-rule="evenodd" d="M33.17 28.1a.14.14 0 0 1-.04-.09c0-.04 0-.07.03-.1 1.38-1.6 2.88-3.3 4.5-5.11a11.8 11.8 0 0 0 1.6-2.1 6.6 6.6 0 0 0 .69-3.82c-.2-1.71-1.2-2.85-3-3.41a11.7 11.7 0 0 0-2.5-.42A37.5 37.5 0 0 0 31.5 13h-8.47c-1.57 0-2.82.14-3.77.4-1.42.42-2.37 1.15-2.85 2.22a5.27 5.27 0 0 0-.27 3.28 6.38 6.38 0 0 0 1.44 2.99 1753 1753 0 0 0 5.26 6c.06.06.06.13 0 .2-1.6 1.85-3.16 3.62-4.67 5.31-.7.8-1.18 1.45-1.45 1.97a6.57 6.57 0 0 0-.69 3.44c.12 1.86 1.1 3.08 2.96 3.68.7.23 1.56.38 2.58.45.6.04 1.46.05 2.6.05h.96a181.16 181.16 0 0 0 4.58 0h2.64c.8 0 1.41 0 1.83-.03a8.97 8.97 0 0 0 3.76-.86 3.76 3.76 0 0 0 2.02-3.05 6.3 6.3 0 0 0-.26-2.65 6.39 6.39 0 0 0-1.3-2.33l-5.23-5.98Zm1.68-14.54c1.69.66 2.6 1.82 2.72 3.5a6.44 6.44 0 0 1-.99 4.11c-.26.4-.85 1.11-1.75 2.12a167.85 167.85 0 0 0-2.92 3.37l.85.99c.02.02.04.02.07 0a609.9 609.9 0 0 1 4.85-5.55 8.4 8.4 0 0 0 1.36-1.98c.32-.68.49-1.43.52-2.26.05-1.42-.38-2.5-1.3-3.23a6.22 6.22 0 0 0-3.44-1.11c0 .02 0 .04.03.04Zm-3.27 12.7c.02.03.03.03.05 0a695.3 695.3 0 0 1 3.67-4.18 8.08 8.08 0 0 0 1.27-1.78c.54-1.14.72-2.27.56-3.4-.2-1.3-.84-2.2-1.95-2.72a7.7 7.7 0 0 0-2.76-.68c-.02 0-.03 0-.03.03a4.8 4.8 0 0 1 1.42.77 3.8 3.8 0 0 1 1.4 2.95 6.51 6.51 0 0 1-.66 3.27 9.86 9.86 0 0 1-1.54 2.1 158 158 0 0 0-2.31 2.64v.03l.88.98ZM21.1 13.59a4.5 4.5 0 0 0-1.98 1.48 4.06 4.06 0 0 0-.7 2.36 6.5 6.5 0 0 0 .8 3.37c.3.55.86 1.27 1.65 2.14a192.27 192.27 0 0 1 3.24 3.73l-.86.98h-.04a880.5 880.5 0 0 1-5.24-5.98 6 6 0 0 1-1.5-4.18c.04-2.37 1.57-3.7 4.62-3.96.12-.01.13 0 .01.06Zm-.36 8.53c1.25 1.4 2.46 2.79 3.64 4.14.02.03.05.03.08 0l.85-.93c.02-.02.02-.04 0-.06a122.7 122.7 0 0 0-2.23-2.53c-.8-.88-1.32-1.6-1.6-2.16a6.66 6.66 0 0 1-.68-2.66 4.7 4.7 0 0 1 .57-2.64 3.84 3.84 0 0 1 2.03-1.64c.27-.1.26-.14-.02-.11-2.85.27-4.35 1.5-4.5 3.69-.07.95.06 1.83.4 2.66.3.73.78 1.48 1.46 2.24Zm5.7 1.9-.75.85c-.06.06-.11.06-.17 0a75.2 75.2 0 0 0-1.95-2.25c-.85-.93-1.4-1.65-1.65-2.16a6.19 6.19 0 0 1-.65-3.35 3.4 3.4 0 0 1 1.5-2.64 6.13 6.13 0 0 1 2.98-.92c.04 0 .06 0 .07.04.02.03.01.05-.02.06a3.91 3.91 0 0 0-2.62 3.77 6.77 6.77 0 0 0 1.6 4.52l1.67 1.89c.05.06.05.12 0 .19Zm3.86.82c.07.07.14.07.2 0a316 316 0 0 1 2.67-3.04 6.05 6.05 0 0 0 1.58-4.7 3.44 3.44 0 0 0-.87-2.1 4.09 4.09 0 0 0-1.99-1.16 7.39 7.39 0 0 0-1.67-.3c-.02 0-.04.01-.05.04-.01.03 0 .05.03.06a3.78 3.78 0 0 1 2.58 3.23 6.68 6.68 0 0 1-.91 4.18c-.25.4-.6.87-1.08 1.39-.4.45-.81.9-1.2 1.37-.07.07-.07.15 0 .22l.71.8ZM28 13.66c.12 0 .22 0 .22-.03 0-.02-.1-.05-.21-.06-.12 0-.22.01-.22.04 0 .02.1.05.21.05Zm-1.8 1.57c.27-.43.66-.82 1.18-1.2.05-.03.05-.06 0-.1a1.07 1.07 0 0 0-.87-.09 4 4 0 0 0-2.06 1.27c-.5.6-.78 1.36-.8 2.26a6.11 6.11 0 0 0 1.54 4.36l1.54 1.75c.06.07.12.07.18 0l.76-.87c.04-.06.04-.1 0-.15a6.54 6.54 0 0 1-2.02-5.62c.07-.62.25-1.16.55-1.61Zm2.47-1.31c.22-.14.49-.17.8-.1.2.04.46.14.79.3a3.42 3.42 0 0 1 2.08 2.73 6.07 6.07 0 0 1-1.2 4.48c-.5.64-1.14 1.37-1.9 2.2-.04.03-.06.03-.1 0l-.8-.95c-.03-.03-.03-.06 0-.1.32-.34.6-.67.83-.98 1-1.33 1.4-2.87 1.2-4.63a3.69 3.69 0 0 0-1.7-2.81c-.07-.05-.07-.1 0-.14Zm-2.58 2.92a6.26 6.26 0 0 0 1.85 5.3c.05.04.09.04.13 0A6.26 6.26 0 0 0 29.98 18c.1-1.78-.48-3.02-1.77-3.73a.41.41 0 0 0-.43.02 3.32 3.32 0 0 0-1.69 2.54Zm1.85 8-.8-.87a.1.1 0 0 1 0-.13l.8-.88c.04-.06.09-.06.14 0l.8.87c.03.05.03.09 0 .13l-.8.89c-.04.05-.1.05-.14 0Zm-.27.37-.78-.9c-.05-.06-.1-.06-.14 0l-.79.9c-.03.03-.03.07 0 .11l.78.9c.05.06.1.06.14 0l.79-.9c.03-.03.03-.07 0-.11Zm2.38.14-.75.86c-.06.07-.13.07-.19 0l-.74-.87c-.05-.05-.05-.1 0-.15l.75-.87c.06-.07.12-.07.18 0l.75.87c.04.05.04.1 0 .16Zm-5.28 1.34.78.9c.05.05.1.05.14 0l.79-.91c.03-.04.03-.08 0-.12l-.8-.89c-.04-.05-.09-.05-.14 0l-.77.9c-.04.04-.04.08 0 .12Zm2.38-.11.8-.9c.04-.04.08-.04.13 0l.8.9c.04.03.04.07 0 .1l-.8.9c-.04.05-.09.05-.13 0l-.8-.89c-.04-.03-.04-.07 0-.11Zm4.11 0-.78-.91c-.04-.05-.09-.05-.13 0l-.8.9c-.04.03-.04.07 0 .1l.78.93c.04.05.09.05.13 0l.8-.9c.04-.04.04-.08 0-.11Zm-7.68 1.34.76-.87c.06-.06.11-.06.17 0l.76.88c.05.04.04.1 0 .14l-.77.87c-.05.06-.1.06-.16 0l-.77-.87c-.04-.05-.04-.1 0-.15Zm7.16.14.8.9c.05.05.1.04.14 0l.79-.9c.03-.05.03-.09 0-.13l-.8-.89c-.05-.05-.1-.05-.14 0l-.79.9c-.03.05-.03.08 0 .12Zm-3.07 0-.78.9c-.05.05-.1.05-.15 0l-.78-.9c-.03-.05-.03-.09 0-.13l.79-.89c.05-.06.1-.06.14 0l.78.9c.04.04.04.08 0 .12Zm.7.02.75.86c.06.07.12.07.18 0l.75-.87c.04-.05.04-.1 0-.15l-.76-.86c-.06-.07-.12-.07-.18 0l-.74.86c-.05.05-.05.1 0 .16Zm-1.9 1.34-.78.9c-.04.05-.1.05-.14 0l-.78-.9c-.04-.04-.04-.08 0-.12l.77-.9c.05-.05.1-.05.15 0l.78.9c.04.03.04.08 0 .12Zm1.43-.98-.72.83c-.05.06-.05.12 0 .18l.73.84c.07.08.14.08.2 0l.73-.84c.05-.06.05-.12 0-.18l-.72-.83c-.07-.08-.15-.08-.22 0Zm2.59-.03.78.9c.03.04.03.08 0 .12l-.8.88c-.05.06-.1.05-.14 0l-.78-.9c-.04-.04-.04-.08 0-.12l.79-.88c.05-.06.1-.06.15 0Zm7.03 10.96c-.23 1.46-1.12 2.48-2.66 3.05-.03 0-.04.03-.03.07l.01.04h.01l1.09-.2c.7-.11 1.32-.32 1.86-.63a3.2 3.2 0 0 0 1.34-1.36c.35-.71.49-1.53.42-2.44a6.4 6.4 0 0 0-.71-2.44c-.23-.43-.69-1.04-1.39-1.83a475.69 475.69 0 0 1-4.66-5.28 7.6 7.6 0 0 0-.89 1.03 240 240 0 0 0 3.26 3.71c.85.94 1.4 1.67 1.68 2.2.67 1.27.9 2.63.67 4.08Zm-19.09-.6c.06.91.32 1.67.78 2.3a3.96 3.96 0 0 0 1.97 1.34c.03.01.04.03.03.06v.04h-.02c-.48-.07-.93-.15-1.36-.23a4.72 4.72 0 0 1-1.99-.83c-.6-.46-1-1.04-1.2-1.76a5.93 5.93 0 0 1 .65-4.42c.25-.42.6-.9 1.09-1.44a759.5 759.5 0 0 0 4.85-5.47 9.03 9.03 0 0 1 .89 1.02 645.77 645.77 0 0 0-4.1 4.7 6.35 6.35 0 0 0-1.59 4.7Zm5.13-6.05 1.7-1.9c.05-.06.05-.1 0-.16l-.78-.91c-.04-.04-.08-.04-.12 0l-3.12 3.56c-.9 1-1.46 1.73-1.69 2.17a6.06 6.06 0 0 0-.61 3.8 3.2 3.2 0 0 0 1.64 2.38 7.46 7.46 0 0 0 3 .82c.06-.02.07-.04 0-.07a3.76 3.76 0 0 1-2.73-3.31 6.52 6.52 0 0 1 1.08-4.44c.14-.22.69-.87 1.63-1.94Zm4.12-1.94-.8.9c-.05.05-.09.05-.13 0l-.8-.9c-.03-.04-.03-.08 0-.12l.8-.9c.05-.05.1-.05.14 0l.79.9c.03.05.03.09 0 .12Zm1.6.9.8-.9c.03-.04.03-.08 0-.11l-.82-.9c-.04-.05-.08-.05-.12 0l-.8.9c-.03.04-.03.08 0 .11l.8.9c.05.05.09.05.13 0Zm3.12 10.73a3.68 3.68 0 0 0 2.7-2.91 5.7 5.7 0 0 0 .06-2.07c-.1-.7-.3-1.37-.62-2a9.06 9.06 0 0 0-1.4-1.93c-.8-.9-1.6-1.79-2.37-2.69-.05-.05-.05-.1 0-.16l.73-.88c.06-.06.12-.06.18 0l2.8 3.2a28.6 28.6 0 0 1 1.74 2.1 6.34 6.34 0 0 1 .94 3.79c-.07.7-.27 1.3-.62 1.8a3.4 3.4 0 0 1-1.6 1.26 8.4 8.4 0 0 1-2.5.58c-.04 0-.06-.01-.07-.05 0-.02 0-.03.03-.04Zm-2.07-11.27-.78.88c-.04.05-.04.1 0 .15.58.64 1.15 1.3 1.72 1.96a6.48 6.48 0 0 1 1.44 3c.24 1.2.14 2.3-.31 3.3a4.07 4.07 0 0 1-2.2 1.98c0 .01 0 .03.03.05h.04c2.93-.27 4.43-1.57 4.5-3.9a6.07 6.07 0 0 0-.6-2.88 8.58 8.58 0 0 0-1.37-1.9c-.76-.84-1.53-1.72-2.32-2.64-.05-.06-.1-.06-.15 0Zm-4.64 0 .74.84c.06.07.06.15 0 .22a72.1 72.1 0 0 0-1.84 2.11 6.16 6.16 0 0 0-1.07 1.97 6.3 6.3 0 0 0-.34 2.27c.03.8.23 1.51.58 2.13.4.68.96 1.19 1.7 1.54.43.2.41.27-.06.2-2.06-.29-3.34-1.07-3.84-2.34a4.84 4.84 0 0 1-.3-2.22c.06-.75.26-1.48.6-2.17.28-.6.8-1.3 1.54-2.12.71-.78 1.42-1.59 2.13-2.42.05-.06.1-.06.16 0Zm2.43 1.88.7-.85c.06-.06.06-.12 0-.18l-.71-.83c-.08-.08-.15-.08-.22 0l-.7.85c-.06.06-.06.12 0 .18l.72.83c.07.08.14.08.21 0Zm1.13-.55 1.72 1.96a6.1 6.1 0 0 1 1.32 2.83 4.92 4.92 0 0 1-.25 2.92c-.37.9-1.2 1.57-2.51 1.98-.26.08-.56.05-.9-.08a.05.05 0 0 1-.03-.05c0-.02 0-.04.02-.05a3.75 3.75 0 0 0 1.76-2.92 6.51 6.51 0 0 0-2.02-5.51c-.06-.06-.06-.12 0-.18l.8-.9c.04-.03.06-.03.1 0Zm-2.35.06c-.07-.07-.13-.07-.2 0-.16.2-.4.48-.74.85-.74.83-1.24 1.46-1.5 1.91a6.11 6.11 0 0 0-.82 3.46c.1 1.38.7 2.37 1.79 2.96.38.21.7.35.95.41.37.1.71.09 1.03-.03.02 0 .04-.02.04-.05 0-.02 0-.04-.03-.05-1.29-.77-1.9-2.1-1.82-3.95.08-1.7.76-3.2 2.05-4.48.06-.07.06-.13 0-.2l-.75-.83Zm3.06 6.38a3.7 3.7 0 0 1-.55 1.7c-.34.52-.78.91-1.32 1.16a.19.19 0 0 1-.16 0 3.08 3.08 0 0 1-1.37-1.25 3.9 3.9 0 0 1-.52-1.83 6.23 6.23 0 0 1 1.9-4.83c.05-.04.1-.04.14 0a6.2 6.2 0 0 1 1.88 5.05Z" fill="#ED9D4E"/><defs><linearGradient id="a" x1="10.42" y1="9.71" x2="68.15" y2="76.02" gradientUnits="userSpaceOnUse"><stop stop-color="#1A1E21"/><stop offset="1" stop-color="#06060A"/></linearGradient></defs></svg>