<svg width="224" height="224" viewBox="0 0 56 56" xmlns="http://www.w3.org/2000/svg"><path d="M21.7 19.41c1.03.5 1.86.9 2.48 1.18.17.08.26.22.26.4-.02.71-.02 1.42-.02 2.13a1.04 1.04 0 0 0-.16-.2c-.04-.03-.09 0-.14.08v-2.07l-11.73-5.6h-.04v.05l.12.13a2 2 0 0 0 .22.49l3.28 5.89-.4-.07-3.54-6.35a.19.19 0 0 1-.01-.04c-.06-.23.02-.38.23-.42.1-.03.24.01.43.1l.06.03.87.4 8.08 3.87ZM41.32 20.4l-.28-.12 2.57-4.77c.03-.04.04-.06.03-.07-.01-.04-.04-.04-.07-.03l-11.65 5.57v.86l-.3.58V21c0-.1.03-.19.1-.25a.96.96 0 0 1 .27-.16 14827.23 14827.23 0 0 1 11.4-5.45.87.87 0 0 1 .34-.11c.14 0 .22.08.26.2.03.11 0 .23-.06.35a441.27 441.27 0 0 0-1.98 3.63l-.63 1.2Z" fill="#797676"/><path d="M24.13 20.93c0 .07-.06.1-.17.13a.45.45 0 0 0-.2-.1l-.21-.08c-5.36-2.56-8.54-4.07-9.53-4.53a12.18 12.18 0 0 1-1.1-.58c-.08-.09-.14-.1-.18-.05l-.27-.21-.12-.13v-.04c0-.02.02-.02.04-.01l11.74 5.6ZM43.6 15.51c-.18.1-.3.18-.34.26-.24.41-.71 1.26-1.4 2.55a376.93 376.93 0 0 1-4.6 8.38 23326.46 23326.46 0 0 0-9.14 16.6l-.03-.03-.13-.21h.06a3.44 3.44 0 0 1 0-.51v-7.02l-.05-.18c.03.02.05.02.07 0a166573.14 166573.14 0 0 0 11.1-15.56h-.01l-7.05 4.1.02-.12a1593.3 1593.3 0 0 0-.02-2.61l-.16-.18 11.65-5.57c.03-.01.06 0 .07.03.01 0 0 .03-.03.07Z" fill="#FCE207"/><path d="m12.74 15.72 15.22 27.34.13.21c0 .01.01.02.03.02 0 0 .02 0 .02-.02a22896.5 22896.5 0 0 1 12.34-22.4l1.38-2.55a87.79 87.79 0 0 1 1.4-2.55c.05-.08.16-.17.35-.26l-2.57 4.77a2113.47 2113.47 0 0 0-7.55 13.67l-5.33 9.69a.06.06 0 0 1-.05.03.06.06 0 0 1-.06-.03L23.82 36l-7.85-14.12L12.7 16c-.12-.2-.19-.37-.22-.5l.27.22Z" fill="#746A03"/><path d="M23.96 21.06v2.89a5304.8 5304.8 0 0 1-7.1-4.15v.04l11.1 15.51h.01l.04.18a3802.2 3802.2 0 0 0 .01 7.53h-.05L12.75 15.72c.03-.06.1-.04.17.05l.05.04c.23.14.58.32 1.05.54a2768.31 2768.31 0 0 1 9.74 4.6c.1.04.16.07.2.11Z" fill="#FFF303"/><path d="m23.95 23.95.1.04c.03 0 .05-.01.06-.05v-.21.22c0 .05.03.1.08.13l3.68 2.18c.1.01.2-.01.31-.07a.66.66 0 0 1 .17-.07l-.1.06c-.17.1-.25.2-.25.3v8.76c0 .03-.02.06-.04.11l-11.1-15.51v-.04h.04l7.05 4.15Z" fill="#8C8C8C"/><path d="M27.97 35.35h-.01a.27.27 0 0 0 .04-.11v-8.77c0-.1.08-.2.26-.3l.1-.05a367.22 367.22 0 0 0 1.63-.95c.45-.28 1.08-.66 1.9-1.14a.27.27 0 0 0 .08-.07c.05 0 .09-.03.1-.06l7.05-4.1h.03v.02L28.03 35.35c0 .02-.03.02-.06 0Z" fill="#3C3C3B"/><path d="m41.32 20.4-7.67 13.93-.16-.38a3283.01 3283.01 0 0 1 7.55-13.67l.28.12Z" fill="url(#b)"/><path d="M24.12 23v.73l-.01.2c0 .05-.03.06-.06.06a.27.27 0 0 1-.1-.05v-2.88c.12-.02.18-.06.18-.13V23Z" fill="#746A03"/><path d="m15.97 21.89 7.85 14.12a.8.8 0 0 1-.18.33l-3.03-5.45-3.99-7.16-1.05-1.91.4.07Z" fill="url(#c)"/><path d="M31.92 21.83a61.66 61.66 0 0 0 .05 2.12.27.27 0 0 1-.07.08c-.82.47-1.46.85-1.9 1.14a7.99 7.99 0 0 1-.67.39 351.96 351.96 0 0 1-1.15.63.5.5 0 0 1-.31.06l-3.68-2.18a.14.14 0 0 1-.07-.12V23c.05-.09.1-.11.15-.07.04.03.09.1.15.19l.01.62c0 .07.04.13.1.16a654.65 654.65 0 0 0 1.99 1.17l.28.15c.02 0 .04.02.05.03.1.08.2.14.31.19l.76.45c.04.03.09.03.13 0l3.54-2.06c.02-.01.02-.02.02-.04l.02-1.37.29-.59Z" fill="url(#d)"/><path d="m33.49 33.95.16.38-5.24 9.5a.24.24 0 0 1-.08.1.4.4 0 0 1-.4.03c-.04-.02-.12-.12-.23-.32l-4.06-7.3a.8.8 0 0 0 .18-.33l4.23 7.63c.01.02.03.03.06.03.02 0 .04-.01.05-.03l5.33-9.69Z" fill="#797676"/><defs><linearGradient id="a" x1="10.42" y1="9.71" x2="68.15" y2="76.02" gradientUnits="userSpaceOnUse"><stop stop-color="#1A1E21"/><stop offset="1" stop-color="#06060A"/></linearGradient><linearGradient id="b" x1="41.76" y1="21.54" x2="35.31" y2="33.86" gradientUnits="userSpaceOnUse"><stop offset=".05" stop-color="#797676"/><stop offset=".52" stop-color="#B6B5B5"/><stop offset="1" stop-color="#797676"/></linearGradient><linearGradient id="c" x1="14.9" y1="22.37" x2="22.15" y2="36.38" gradientUnits="userSpaceOnUse"><stop offset=".03" stop-color="#797676"/><stop offset=".52" stop-color="#B6B5B5"/><stop offset="1" stop-color="#797676"/></linearGradient><linearGradient id="d" x1="24.24" y1="23.91" x2="31.97" y2="23.91" gradientUnits="userSpaceOnUse"><stop stop-color="#797676"/><stop offset=".48" stop-color="#AEADAD"/><stop offset="1" stop-color="#797676"/></linearGradient></defs></svg>