<svg width="224" height="224" viewBox="0 0 56 56" xmlns="http://www.w3.org/2000/svg"><path d="M28 44a16 16 0 0 0 15.6-19.55c-.14-.2-.38-.4-.6-.4-.3 0-.58.44-.67.65l-5.58 9.73A5.09 5.09 0 0 1 32.34 37H29V27l-3.97 7.47A5.09 5.09 0 0 1 20.65 37H18V22h6v10l5.44-10H35v10.25l6.45-10.85c.12-.23.42-1 .33-1.53A16 16 0 1 0 28 44Z" fill="#fff"/><defs><linearGradient id="a" x1="10.42" y1="9.71" x2="68.15" y2="76.02" gradientUnits="userSpaceOnUse"><stop stop-color="#1A1E21"/><stop offset="1" stop-color="#06060A"/></linearGradient></defs></svg>