<svg width="224" height="224" viewBox="0 0 56 56" xmlns="http://www.w3.org/2000/svg"><path d="m29.75 10.9-.26.2-1.37-.8a.19.19 0 0 0-.2 0 1228.67 1228.67 0 0 1-15.57 8.77c-.06.05-.1.1-.1.18v17.52c0 .08.04.14.1.18l6.75 3.77-.15.28-6.87-3.88a.14.14 0 0 1-.08-.13l.01-17.93a.2.2 0 0 1 .11-.19l15.55-8.78a.6.6 0 0 1 .62 0l1.46.82Z" fill="#C7703E"/><path d="m29.5 11.1 9.66 5.46 4.45 2.5c.1.06.15.14.15.25l-.05 17.42c0 .1-.04.17-.13.21-.97.5-1.88 1-2.7 1.53-.17.1-.4.23-.73.39-.34.17-.59.3-.75.41-.34.22-.69.42-1.05.62a84.64 84.64 0 0 0-3.8 2.15c-.14.09-.36.2-.65.35-.33.17-.58.3-.74.4-.31.2-.64.4-.97.58a70.53 70.53 0 0 0-4.1 2.35.18.18 0 0 1-.2 0l-3.72-2.14-5.07-2.86-6.74-3.77a.19.19 0 0 1-.1-.18V19.25c0-.08.03-.13.1-.17l.6-.32a1228.67 1228.67 0 0 0 14.97-8.45.19.19 0 0 1 .2 0l1.36.8Z" fill="#25272C"/><path d="m29.75 10.9 9.53 5.39-.12.27-9.67-5.46.26-.2Z" fill="#9F8558"/><path d="m32.4 13.75-.43.67-3.74-2.15a.42.42 0 0 0-.43 0l-13.73 7.76a.2.2 0 0 0-.1.18l-.05 14.55c0 .35.03.7.07 1.06.01.07.05.13.12.17l.8.5c0 .04-.01.07-.04.1-.06.05-.12.04-.17-.03-.03-.05-.07-.07-.12-.05-.02.01-.02.02 0 .03l.04.05c.05.04.05.1.02.14l-.22.35a3.19 3.19 0 0 1-1.1-.68.29.29 0 0 1-.1-.21c.01-.68 0-1.35-.05-2 0-.18-.12-.35-.33-.53-.08-.06-.08-.13 0-.18.05-.03.1-.04.15-.03.1.04.16 0 .17-.11.03-.34.04-.66.04-.98V20.03c0-.28.12-.5.37-.64l14.32-8.08a.19.19 0 0 1 .2 0l4.3 2.44Z" fill="#C7703E"/><path d="m31.97 14.42 5.8 3.24 4.25 2.45v8.67a.5.5 0 0 1-.05.21.6.6 0 0 0-.06.4l.09.4c.07 2 .07 4.03 0 6.05a.2.2 0 0 1-.11.17l-13.92 7.85-5.93-3.34-7.13-4.03-.8-.5a.23.23 0 0 1-.12-.17c-.04-.36-.07-.7-.07-1.06l.04-14.55a.2.2 0 0 1 .11-.18l13.73-7.76c.14-.09.29-.09.43 0l3.74 2.15Z" fill="#25272C"/><path d="m32.4 13.75 5.88 3.33-.16.3a.25.25 0 0 1-.16.12c-.1.03-.17.08-.2.16l-5.79-3.24.43-.67Z" fill="#8E8E63"/><path d="m29.38 40.15-.54-.5c-.07-.06-.14-.07-.22-.02-.25.13-.2.29.15.47-.64.2-1.33.18-2.06-.03-.32-.1-.63-.21-.93-.35a2.29 2.29 0 0 1-.46-.3L25 39.2a1.2 1.2 0 0 1-.28-.22c-.5-.53-.95-.84-1.35-.93-.67-.15-1.75-.27-3.22-.35a5.4 5.4 0 0 1-1.25-.21 2.72 2.72 0 0 1-1.1-.63 1.72 1.72 0 0 1-.52-1.05c0-.08-.03-.2-.08-.33a1.5 1.5 0 0 1-.08-.38c-.03-1 .02-2.02.15-3.04.03-.22.12-.42.26-.6.17-.2.36-.37.58-.5l.41-.3a.4.4 0 0 1 .2-.09c.25-.03.5-.07.77-.13l.27-.1c.15-.08.26-.11.35-.1.08 0 .16-.02.24-.05l.96-.4.06-.04c.2-.22.4-.44.63-.66.13-.13.3-.38.51-.74.14-.24.32-.44.55-.6a.25.25 0 0 0 .11-.23l.01-1.36c.02-.5.25-.97.67-1.43a.16.16 0 0 1 .1-.05l.07-.02a4.61 4.61 0 0 0 .35-.62c.08-.17.13-.35.17-.53.1-.53.23-1.05.4-1.56.26-.8.42-1.65.48-2.57.03-.35.1-.68.21-.97.13-.33.22-.68.27-1.05a.27.27 0 0 1 .12-.2.24.24 0 0 0 .11-.23c0-.09.03-.16.1-.22.4-.33.8-.57 1.16-.7.33-.12.73-.1 1.18.05.07.02.12.06.17.11.08.1.18.15.31.16.07 0 .13.04.16.1.04.1.12.22.24.37.16.2.26.37.3.5.1.37.24.74.39 1.14.04.1.06.23.05.35 0 .12 0 .24.02.36.1.78.23 1.58.39 2.42.04.24.1.49.2.73.1.26.18.53.25.8.08.33.22.62.41.89.1.13.18.26.24.4.07.15.15.3.25.43.3.4.47.88.5 1.42 0 .08.02.16.06.23.1.15.14.32.12.5-.05.5.11.93.5 1.28.24.21.44.46.6.73.03.07.1.12.17.14.22.06.4.19.56.37a.5.5 0 0 0 .2.15l.86.34c.23.1.54.17.93.22.75.1 1.37.47 1.88 1.1.22.28.34.82.37 1.62.02.62.03 1.3.03 2.03 0 .94-.37 1.67-1.09 2.17a4.1 4.1 0 0 1-1.15.53l-4.29.63a.36.36 0 0 0-.2.1.57.57 0 0 1-.16.12.5.5 0 0 0-.17.13 5 5 0 0 1-2.3 1.53Z" fill="#50382F"/><path d="m39.28 16.29 4.6 2.6c.05.03.08.08.08.14v11.42c0 .47 0 1.17.02 2.11.04 1.95.02 3.4-.05 4.38 0 .1-.06.19-.15.24L28.3 45.92c-.19.1-.37.1-.56 0l-3.77-2.08c.06-.12.12-.2.2-.26l3.72 2.15c.07.04.14.04.2 0a70.53 70.53 0 0 1 4.1-2.36c.33-.18.66-.37.97-.58.16-.1.4-.23.74-.4.3-.14.5-.26.65-.35 1.2-.72 2.47-1.44 3.8-2.15.36-.2.71-.4 1.05-.62.16-.1.4-.24.75-.41.32-.16.56-.3.72-.4.83-.51 1.74-1.02 2.71-1.52a.23.23 0 0 0 .13-.21l.05-17.42c0-.1-.05-.19-.15-.25l-4.45-2.5.12-.27Z" fill="#27C6A7"/><path d="M29.8 24.05c.28.56.67 1.07 1.15 1.52.37.35.61.74.72 1.18l-.03.42c0 .1-.06.14-.16.14-.16 0-.3-.03-.45-.09-.08-.03-.12 0-.13.08-.03.23.03.4.18.53.67.6 1.6 1.54 2.78 2.83a56.33 56.33 0 0 0 2.06 2.19l.1.25c.07.17.11.17.14-.01l.13-.94c.19-.46.38-.83.59-1.11.2-.27.3-.24.3.1.01 1.16.02 2.3.01 3.44l.05.43c.13.75-.02 1.17-.44 1.26a.56.56 0 0 1-.57-.18l-5.53.48c-.15.01-.23.1-.24.24l-.08 1c-.2.13-.37.3-.52.5a.27.27 0 0 1-.2.1l-1.25.05c-.1 0-.15.06-.15.15l-.07.86c0 .08-.04.12-.12.14-.27.05-.39-.14-.34-.6a.93.93 0 0 0-.02-.46c-.02-.07-.07-.1-.14-.1l-1.45-.04a.24.24 0 0 1-.17-.07 1.95 1.95 0 0 1-.64-1.6c.01-.11-.04-.17-.15-.18l-5.45-.5-.76.13c-.07.02-.13 0-.16-.07l-.26-.47c.24-.99.32-2.01.23-3.08l.04-1.32c0-.05.02-.1.05-.13.02-.02.04-.02.07-.01.02 0 .04.02.05.05.12.3.3.57.53.8l.03 1.12c0 .14.06.16.16.07.14-.13.33-.33.56-.62l.45-.51c.9-.9 1.8-1.89 2.71-2.96.38-.45.94-1 1.67-1.65.06-.05.06-.1.02-.17l-.04-.05c-.05-.06-.1-.07-.18-.02-.41.29-.68.22-.79-.2l.45-1.15a5.93 5.93 0 0 0 1.61-2.05c.31-.92.5-1.56.56-1.91l.75-4.15c.02-.12.07-.28.14-.49.1-.27.14-.48.15-.62.01-.24.08-.25.2-.05.1.2.19.4.24.6.3 1.32.59 2.77.84 4.35.15.9.4 1.74.77 2.55Z" fill="#fff"/><path d="m38.27 17.08 4.34 2.45-.14.37a.33.33 0 0 1-.13.17.4.4 0 0 1-.32.04l-4.26-2.45c.03-.08.1-.13.2-.16a.25.25 0 0 0 .16-.12l.15-.3Z" fill="#6EA179"/><path d="M21.88 18.98a4.73 4.73 0 0 0-.86-.56.5.5 0 0 1-.29-.46c0-.08.04-.12.12-.13.2 0 .34.05.41.19a4.82 4.82 0 0 0 .64.96h-.02ZM33.84 18.4c.06-.09.1-.08.16.01.05.1.04.18-.02.27-.05.08-.1.07-.14 0-.05-.1-.05-.18 0-.27Z" fill="#fff"/><path d="M42.6 19.53c.08.11.12.24.12.38l.06 16.16c0 .21-.1.38-.27.5-.3.19-.78.46-1.45.82l-.68.37A939.07 939.07 0 0 1 28.3 44.6c-.25.13-.53.09-.84-.15.18-.1.35-.3.52-.58l13.92-7.85a.2.2 0 0 0 .1-.17c.08-2.02.08-4.04 0-6.05l-.08-.4a.6.6 0 0 1 .06-.4.5.5 0 0 0 .05-.21V20.1a.4.4 0 0 0 .32-.04c.06-.04.1-.1.13-.17l.14-.37Z" fill="#27C6A7"/><path d="M27.55 25.85c-.18 0-.27-.1-.27-.27v-2.87c0-1.64.19-2.45.57-2.45h.06c.38 0 .57.81.57 2.45v2.87c0 .18-.1.27-.28.27h-.65ZM26.15 23.77c-.36.77-.9 1.46-1.6 2.05-.04-.6.3-1.2.99-1.8.18-.16.39-.24.61-.25ZM30.95 25.57a5.43 5.43 0 0 1-1.16-1.52c.12-.12.26-.1.43.08l.14.22c.06.09.15.18.28.27.49.34.6.65.3.95ZM31.67 26.75c.27.29.39.63.35 1.03 0 .07.01.13.05.2.15.22.32.42.5.6.16.16.28.33.37.51.12.27.33.5.61.67.02 0 .03 0 .04-.02 0-.03.02-.04.04-.04.04.02.06.05.06.1.01.2.1.38.27.52.05.03.07.02.07-.04 0-.02.02-.03.06-.02a6.15 6.15 0 0 0 2.2 1.9l-.13.93c-.03.18-.07.18-.14.01l-.1-.25a41.84 41.84 0 0 0-4.84-5.02c-.15-.13-.2-.3-.18-.53 0-.09.05-.11.13-.08.14.06.3.09.45.1.1 0 .15-.05.16-.15l.03-.42ZM24.1 26.98c.1.41.37.48.78.19.07-.05.13-.04.18.02l.04.05c.04.07.04.12-.02.17-.73.65-1.29 1.2-1.67 1.65-.9 1.07-1.8 2.06-2.71 2.96-.11.1-.26.28-.45.51-.23.29-.42.5-.56.62-.1.09-.15.07-.16-.07l-.03-1.12a4.5 4.5 0 0 0 1.7-1.16c.1-.11.25-.25.44-.4.16-.13.3-.28.41-.45a.4.4 0 0 1 .2-.15.4.4 0 0 0 .2-.17c.11-.18.25-.34.42-.5.2-.18.25-.39.14-.62a.16.16 0 0 1 .03-.18l1.05-1.35ZM18.76 32.57a9.46 9.46 0 0 1-.23 3.08c-.54-.92-.46-1.94.23-3.08ZM27.73 39.02a.7.7 0 0 1-.5-.09.42.42 0 0 0-.22-.06c-.46 0-.8-.07-1-.23-.45-.37-.9-.71-1.36-1.04a8 8 0 0 0-.76-.49 1.93 1.93 0 0 0-.86-.25 15.1 15.1 0 0 1-3.16-.45c-.18-.05-.24-.17-.16-.35l5.45.5c.11 0 .16.07.15.18-.05.59.16 1.12.64 1.6.05.05.1.07.17.07l1.45.04c.07 0 .12.03.14.1.05.14.05.3.02.47ZM36.23 36.09c-.1.34-.36.48-.8.42a.4.4 0 0 0-.23.03c-.36.15-.74.2-1.14.13-.06-.01-.1 0-.14.03a.26.26 0 0 1-.14.06l-1.93.22c-.06 0-.1.03-.15.07a.95.95 0 0 1-.44.25.43.43 0 0 0-.21.14c-.2.23-.42.35-.67.37l.08-1c0-.15.09-.23.24-.24l5.53-.48Z" fill="#9D5533"/><path d="m14.91 36.49 7.13 4.03c-.07.21-.23.42-.47.6l-7.15-4.04.22-.35c.03-.05.03-.1-.02-.14l-.05-.05v-.03c.06-.02.1 0 .13.05.05.07.1.08.17.02a.11.11 0 0 0 .04-.09Z" fill="#9F8558"/><path d="M17.74 37.57c.1.07.09.12-.03.14a.38.38 0 0 1-.35-.09c-.06-.06-.05-.1.03-.12a.4.4 0 0 1 .35.07Z" fill="#8E8E63"/><path d="M29.38 40.15c.35.43.57.73.65.9.15.3.12.32-.1.05a4.2 4.2 0 0 0-1.16-1c-.34-.18-.4-.34-.15-.47.08-.05.15-.04.22.03l.54.5Z" fill="#fff"/><path d="m22.04 40.52 5.93 3.34c-.17.28-.34.47-.52.58l-5.88-3.32c.24-.18.4-.39.47-.6Z" fill="#6EA179"/><path d="m19.1 40.72 5.07 2.86a.64.64 0 0 0-.2.26L18.95 41l.15-.28Z" fill="#8E8E63"/></svg>