<svg width="224" height="224" viewBox="0 0 56 56" xmlns="http://www.w3.org/2000/svg"><path d="M44 28a16 16 0 1 1-32 0 16 16 0 0 1 32 0Z" fill="#fff"/><path d="M43.35 27.1a25.83 25.83 0 0 1-5.94-2.01.11.11 0 0 1-.02-.03v-.04c.3-1.46.44-3.59-1.4-4.09a2.5 2.5 0 0 0-1.72.12 2.9 2.9 0 0 0-1.72-.13c-1.2.25-1.83 1.37-1.83 2.54 0 .53.05 1.07.13 1.6l-.01.1a.05.05 0 0 1-.1.01c-.23-.86-.42-1.63-.57-2.3a4.4 4.4 0 0 0-.45-1.14c-.3-.5-.7-.8-1.18-.88a2.3 2.3 0 0 0-1.46.25 2.42 2.42 0 0 0-.7-.25c-1-.08-2 .3-2.3 1.35a4.09 4.09 0 0 1-.53-.8c-.3-.31-.68-.5-1.15-.54a2 2 0 0 0-1.25.25 2.51 2.51 0 0 0-1.6-.2c-.87.18-1.36.71-1.5 1.59-.1.63.15 1.35.32 1.95l-.32.01a33.36 33.36 0 0 1-5.37 2.16 15.38 15.38 0 0 1 30.67.49Z" fill="#0F90CF"/><path d="M30.85 25.07c.2 1.41.37 2.83.54 4.25.05.46.05.87-.52.98-.46.1-.79-.07-.97-.47-.17-.36-.3-.74-.4-1.12-.78-3.12-1.32-5.24-1.61-6.35-.12-.47-.4-.89-.8-1.26.5-.25.98-.34 1.45-.25.48.08.87.38 1.18.88.16.27.37.76.45 1.14a55.55 55.55 0 0 0 .6 2.33h.02a.05.05 0 0 0 .05-.04v-.1Z" fill="#61C1EB"/><path d="m37.38 25.02-1.82 6.5a.18.18 0 0 0 .08.2 19.72 19.72 0 0 0 6.44 2.47 15.38 15.38 0 0 1-3.31 4.8l-1.39.2a6 6 0 0 1-4.64-1.11 32.1 32.1 0 0 1-1.79-1.43 54.1 54.1 0 0 1-7.02.07c-.03 0-.07.01-.1.04l-1.5 1.17a9.02 9.02 0 0 1-3.97 1.7.16.16 0 0 0-.09.05l-.12.14-.36-.31c-1.66-1.48-2.99-3.3-3.88-5.35.75-.3 1.47-.65 2.17-1.08a1096.22 1096.22 0 0 0 3.72-2.28.1.1 0 0 1 .05.02l.27.13c.11.36.23.75.34 1.17.1.37.3.83.6 1.38.38.72.84 1.2 1.59 1.46.8.28 1.6.26 2.4-.07.36-.15.74-.6.95-.98.3-.56.53-1.2.67-1.94.03-.15.07-.29.13-.42a.09.09 0 0 1 .09-.04.08.08 0 0 1 .07.06c.14.82.4 1.55.77 2.2.32.57.76.96 1.33 1.17.6.22 1.28.29 1.9.11.16-.04.3-.07.41-.08.54.2 1.1.23 1.66.1.92-.22 1.48-.88 1.85-1.7.24-.54.44-1.1.58-1.64a.2.2 0 0 0-.1-.23l-1.67-.9 1.5-5.17c.06-.25.14-.74.24-1.5.08-.7 0-1.35-.25-1.94a1.96 1.96 0 0 0-.91-.94 2.5 2.5 0 0 1 1.72-.12c1.84.5 1.7 2.63 1.39 4.09Z" fill="#61C1EB"/><path d="M24.09 22.2c-.08.44-.07.83.02 1.16l1.36 5.2c.1.4.14.8.13 1.18 0 .66-1.13.78-1.45.28a4.56 4.56 0 0 1-.42-1.03l-1.68-6.1c-.14-.54-.27-1.22-.9-1.78a2 2 0 0 1 1.25-.25 1.73 1.73 0 0 1 1.2.62c.13.25.3.49.49.72Z" fill="#61C1EB"/><path d="m18.37 24.45 1.75 6.5-.27-.13a.1.1 0 0 0-.1 0l-3.67 2.26c-.7.43-1.42.79-2.17 1.08a15.37 15.37 0 0 1-1.23-7.54 33.36 33.36 0 0 0 5.37-2.16h.32ZM43.35 27.1a15.38 15.38 0 0 1-1.27 7.1l-.5-.12a19.72 19.72 0 0 1-5.94-2.37.18.18 0 0 1-.08-.2l1.82-6.5.01.05a.11.11 0 0 0 .06.06 25.8 25.8 0 0 0 5.9 1.99Z" fill="#13A6DE"/><path d="m33.7 30.6 1.67.9a.2.2 0 0 1 .1.23c-.15.55-.35 1.1-.6 1.64-.36.82-.92 1.48-1.84 1.7a2.8 2.8 0 0 1-1.66-.1 2.9 2.9 0 0 0 1.07-.97c.43-.77.75-1.58.97-2.43.07-.29.17-.62.29-.98ZM38.77 38.98a15.38 15.38 0 0 1-20.62.84l.12-.14a.16.16 0 0 1 .1-.05 9.02 9.02 0 0 0 3.96-1.7l1.5-1.17a.14.14 0 0 1 .1-.04 54.1 54.1 0 0 0 7.02-.07l.07.04c.53.46 1.1.92 1.72 1.38a6 6 0 0 0 4.64 1.11l1.39-.2Z" fill="#7FD0E9"/></svg>