<svg width="112" height="112" viewBox="0 0 56 56" xmlns="http://www.w3.org/2000/svg"><path fill="#FE4D9E" d="M0 0h56v56H0z"/><path d="M28.37 25.5c.7-.73 1.31-1.51 2-2.24.4-.43.68-.84.85-1.22.9-2.08-.3-4.47-2.69-4.82a3.5 3.5 0 0 0-4.03 3c-.16 1.24.34 2.13 1.14 3.04 3 3.4 5.99 6.84 8.98 10.33a7.63 7.63 0 0 0 2 1.85c1.13.53 2.23.5 3.3-.06a3.4 3.4 0 0 0 1.58-4.26c-.19-.45-.5-.9-.91-1.38a469.6 469.6 0 0 1-4.91-5.63.31.31 0 0 1-.05-.32c.8-1.9.87-3.83.2-5.78-.06-.2-.03-.21.1-.06 2.22 2.57 4.3 4.98 6.29 7.22a36.1 36.1 0 0 1 2.69 3.27 7.56 7.56 0 0 1-1.88 9.93c-2.7 2-6.27 2.2-9.12.37a9.6 9.6 0 0 1-2-1.83c-3.2-3.7-6.43-7.42-9.69-11.13a7.72 7.72 0 0 1-2.01-4.87 7.7 7.7 0 0 1 7.28-7.9c6.2-.34 10.21 5.96 7.41 11.2-.28.53-.87 1.3-1.77 2.32a140.46 140.46 0 0 0-1.95 2.22.12.12 0 0 1-.14-.02l-2.67-3.07c-.05-.06-.05-.11 0-.16Z" fill="#fff"/><path d="M20.21 17.86a8.03 8.03 0 0 0 .2 6.02c.03.07.03.12-.02.18-1.75 2-3.5 4.01-5.26 6.05a3.32 3.32 0 0 0-.85 2.5c.23 3.06 4.16 4.35 6.24 1.95a860.94 860.94 0 0 1 4.3-4.92.15.15 0 0 1 .17.03l2.63 3.02c.06.07.06.14 0 .2-.91.98-1.8 1.99-2.65 3.03a13.86 13.86 0 0 1-2.86 2.82 7.93 7.93 0 0 1-10.69-1.99 7.56 7.56 0 0 1-.72-7.6c.3-.66 1.01-1.62 2.13-2.9 2.5-2.83 4.93-5.63 7.33-8.41.07-.08.09-.07.05.02Z" fill="#fff"/></svg>