<svg width="224" height="224" viewBox="0 0 56 56" xmlns="http://www.w3.org/2000/svg"><path d="M21.16 15H34c0 .33-.12 1.08-.5 1.48 2.08.65 5.87 2.98 7.03 6.52l-.97-.5c1.12 2.13 3.47 7.06 1.93 11l-.96-1.5c.16 1.64-.61 6.46-4.85 10l-.48-1c-.96 1.48-3.55 4.01-4.7 4.01v-1.89c-.03 1.43-1.74 3.1-2.5 3.88-.8-.66-2.48-2.42-2.48-4v2.03c-1.45-.66-4.46-2.06-4.84-4.03l-.49 1c-1.76-1.15-5.22-5.27-4.84-10l-.97 1.5c-.64-1.97-.75-6.67 1.94-11l-.82.5a10.1 10.1 0 0 1 6.14-6.52s-.48-.3-.48-1.48Z" fill="#CD9751"/><path d="M21 20c-2 0-3.83 1.17-5 2l-.5 1c1-1 3.26-2 5.5-2 2 0 5 0 7 .5 2-.5 5.4-.5 7-.5 1.6 0 4.5 1.33 5.5 2l-.5-1c-.83-.67-3-2-5-2s-5.17.67-7 1c-1.67-.33-5-1-7-1ZM20.5 26c-2 2.5-4.17 5.33-5 7v-1l-1 .5c.8-1.2 4.33-4.83 6-6.5ZM41.5 32.5c-.4-2-4.5-5.17-6-6.5 2.5 3 5 5.83 5 7v-1l1 .5ZM19 35.5c0-3.22 1.17-6.33 2-7.5l.5 14-1-1.5-.5 1c-.17-.5-1-3-1-6ZM37 35.5c0-3.62-1-6.5-2-7.5l-.5 13.5 1-1 .5 1c.17-.33 1-2.5 1-6ZM26 43v-4c-.5.33-1 1.4-1 3s.17 2.67.5 3v-2c0 1.6 2.5 4 2.5 4s2.5-2.5 2.5-4v2c.17-.5.5-1.8.5-3s-.67-2.5-1-3v4c0 .5-1.33 2.67-2 3-1.2-.8-2-2.5-2-3ZM28 17.5 23 15h-1.5c0 1.2.33 1.5.5 1.5l6 2c1.67-.5 5.1-1.6 5.5-2 .4-.4.5-1.17.5-1.5l-6 2.5Z" fill="#925E2C"/><path fill-rule="evenodd" d="M30.5 43.12c0 .08 0 .17-.02.25-.06.4-.24.82-.48 1.23-.53.9-1.38 1.76-1.9 2.3l-.1.1a8.94 8.94 0 0 1-1.98-2.35c-.3-.53-.5-1.1-.5-1.65v2.03a42.8 42.8 0 0 1-.5-.23c-1.35-.63-3.38-1.7-4.11-3.14-.1-.21-.19-.43-.23-.66l-.49 1a5.48 5.48 0 0 1-.41-.3c-1.7-1.35-4.36-4.76-4.46-8.74 0-.31 0-.64.03-.96l-.97 1.5c-.06-.2-.12-.41-.17-.66a14.88 14.88 0 0 1 2.11-10.34l-.82.5c.06-.2 0-.43.1-.7a10.4 10.4 0 0 1 6.04-5.82C21.21 16.2 21 15.45 21 15h13c0 .33-.12 1.08-.5 1.48.16.05.33.1.5.18 1.99.77 4.98 2.75 6.26 5.64.1.23.19.46.27.7l-.97-.5.39.76c1.12 2.27 2.73 6.23 1.75 9.63l-.2.61-.97-1.5c.02.24.02.56 0 .92A13.5 13.5 0 0 1 35.68 42l-.48-1-.33.47c-.97 1.28-2.73 2.98-3.87 3.43a1.4 1.4 0 0 1-.5.11v-1.89Zm.5 1.23v-1.23a.5.5 0 0 0-1 0c-.01.53-.36 1.2-.88 1.88-.37.5-.8.95-1.15 1.31a9.07 9.07 0 0 1-1.1-1.26 3.8 3.8 0 0 1-.85-2.05.5.5 0 0 0-1 0v1.25c-.63-.3-1.37-.7-2.04-1.15-.96-.67-1.66-1.42-1.81-2.2a.5.5 0 0 0-.94-.12l-.23.46a12.22 12.22 0 0 1-2.6-3.15 10.4 10.4 0 0 1-1.55-6.05.5.5 0 0 0-.92-.31l-.32.5c-.32-2.21-.05-5.96 2.13-9.47a.5.5 0 0 0-.45-.76 9.87 9.87 0 0 1 5.53-5.05.5.5 0 0 0 .32-.43c.03-.27-.39-.71-.44-1.02h11.73c-.05.22-.13.46-.29.63a.5.5 0 0 0 .21.82c.98.31 2.39 1.02 3.7 2.1.98.8 1.89 1.8 2.5 2.95a.5.5 0 0 0-.44.73c.56 1.06 1.4 2.79 1.93 4.72.43 1.6.63 3.3.29 4.87l-.38-.6a.5.5 0 0 0-.92.33c.14 1.43-.52 5.77-4.18 9.14l-.2-.4a.5.5 0 0 0-.87-.06 14.14 14.14 0 0 1-3.46 3.44 4 4 0 0 1-.32.18Z" fill="#0E0C0D"/><circle cx="22" cy="22" r="2" fill="#EFD29A"/><circle r="2" transform="matrix(-1 0 0 1 34 22)" fill="#EFD29A"/><path fill-rule="evenodd" d="M34 23.5a1.5 1.5 0 1 1 0-3 1.5 1.5 0 0 1 0 3Zm0 .5a2 2 0 1 1 0-4 2 2 0 0 1 0 4ZM22 23.5a1.5 1.5 0 1 1 0-3 1.5 1.5 0 0 1 0 3Zm0 .5a2 2 0 1 1 0-4 2 2 0 0 1 0 4Z" fill="#0E0C0D"/><path d="M23 22.5a1 1 0 1 1-2 0 1 1 0 0 1 2 0ZM33 22.52a1 1 0 1 0 2 0 1 1 0 0 0-2 0Z" fill="#CD9451"/><path fill-rule="evenodd" d="M34 23.3a.8.8 0 1 1 0-1.6.8.8 0 0 1 0 1.6Zm0 .2a1 1 0 1 1 0-2 1 1 0 0 1 0 2ZM22 23.3a.8.8 0 1 1 0-1.6.8.8 0 0 1 0 1.6Zm0 .2a1 1 0 1 1 0-2 1 1 0 0 1 0 2Z" fill="#0E0C0D"/><path d="M28 21c-1.88 0-4.56.66-5.5 1-.78 3.43-2.5 8.64-2.5 12.5 0 1.5.63 2.98.94 3.5H35c.47-.17 1-2 1-3.5 0-3.5-1.4-9.4-2.5-12.5-1.1-.34-3.62-1-5.5-1Z" fill="#F3DB91"/><path d="M23.04 21.88c-.19.8-.53 2.18-.78 3.1l-.02.08c-.26 1.01-.54 2.07-.8 3.14-.52 2.21-.94 4.43-.94 6.3 0 1.2.44 2.4.74 3h13.59l.08-.14c.1-.18.2-.44.29-.75.18-.63.3-1.41.3-2.11 0-3.33-1.43-9.5-2.5-12.62a19.89 19.89 0 0 0-5-.88c-1.66 0-3.9.54-4.96.88Zm10.35-.4C34.49 24.57 36 31 36 34.5c0 1.5-.53 3.33-1 3.5H20.94c-.31-.52-.94-2-.94-3.5 0-2.87.95-6.49 1.76-9.56.28-1.06.65-2.56.85-3.44.94-.34 3.51-1 5.39-1s4.3.64 5.39.98Z" fill="#0E0C0D"/><circle cx="23.5" cy="26.5" r="1.5" fill="#0E0C0D"/><circle cx="32.5" cy="26.5" r="1.5" fill="#0E0C0D"/><path d="M23.5 26a.5.5 0 1 1-1 0 .5.5 0 0 1 1 0ZM32.5 26a.5.5 0 1 1-1 0 .5.5 0 0 1 1 0Z" fill="#EFF5EB"/><path d="M30.5 27.5c0-2.4-.67-5.5-1-6.5h-3c-.33 1.67-1 4-1 6.5s.33 3.33.5 4.5h4c.17-.5.5-2.1.5-4.5Z" fill="#D3A363"/><path d="M29.13 21H26.9c-.06.24-.13.85-.2 1.11a23.91 23.91 0 0 0-.73 5.25c0 1.8.17 2.67.33 3.5l.1.5h3.19c.16-.68.38-2.07.38-4 0-2.11-.51-5.15-.85-6.36Zm.85 10.86h-4c-.04-.3-.1-.59-.16-.88-.16-.84-.34-1.77-.34-3.62 0-1.98.42-3.86.76-5.38.09-.4.2-1.13.26-1.48h3c.33 1 .98 4.46.98 6.86 0 2.4-.33 4-.5 4.5ZM28 35c.09 0 .17.04.21.11.22.37.6.75 1 1.03.43.3.85.46 1.14.46.31 0 .57-.1.78-.25.21-.15.36-.33.42-.44.06-.1.2-.14.32-.09.12.05.16.17.1.27a1.93 1.93 0 0 1-1.62.91c-.46 0-.98-.24-1.43-.54a4.24 4.24 0 0 1-.92-.86c-.25.32-.58.62-.92.86-.45.3-.97.54-1.43.54-.45 0-.81-.16-1.08-.35-.27-.18-.45-.4-.55-.56-.05-.1 0-.22.11-.27.12-.05.26 0 .32.1s.2.28.42.43c.2.14.47.25.78.25.3 0 .7-.16 1.13-.46.42-.28.8-.66 1-1.03A.24.24 0 0 1 28 35Z" fill="#0E0C0D"/><path d="M31 32a3 3 0 1 1-6 0 3 3 0 0 1 6 0Z" fill="#D93C29"/><path fill-rule="evenodd" d="M28 34.5a2.5 2.5 0 1 0 0-5 2.5 2.5 0 0 0 0 5Zm0 .5a3 3 0 1 0 0-6 3 3 0 0 0 0 6Z" fill="#0E0C0D"/><path d="M29.5 31a1.5 1.5 0 1 1-3 0 1.5 1.5 0 0 1 3 0Z" fill="#F3A398"/><path d="M28 21c-2 0-4.5.67-5.5 1 .5-2 2-4.5.5-7-.9-1.5-3.83-.5-5 0 1-1.5 3-3 6-3 2.4 0 3.67.67 4 1v8Z" fill="#E74A86"/><path d="M28 21c2 0 4.5.67 5.5 1-.5-2-2-4.5-.5-7 .9-1.5 3.83-.5 5 0-1-1.5-3-3-6-3-2.4 0-3.67.67-4 1v8Z" fill="#4B84F5"/><path d="M28 13.5a.5.5 0 0 1-.35-.15 2.8 2.8 0 0 0-1.03-.5c-.6-.19-1.47-.35-2.62-.35-1.85 0-3.28.6-4.31 1.41.28-.07.56-.12.85-.16 1-.12 2.27-.04 2.89 1 1.3 2.15.56 4.3-.01 5.99l-.02.06-.16.45c1.25-.34 3.15-.75 4.76-.75 1.61 0 3.5.41 4.76.75l-.16-.45-.02-.06c-.57-1.68-1.3-3.84 0-6 .61-1.03 1.87-1.11 2.88-.99.29.04.57.1.85.16A6.85 6.85 0 0 0 32 12.5c-1.15 0-2.02.16-2.62.35-.62.2-.94.42-1.03.5a.5.5 0 0 1-.35.15Zm9.4.73c.22.25.43.51.6.77-.24-.1-.54-.22-.9-.34-1.37-.46-3.38-.86-4.1.34-1.17 1.96-.5 3.92.07 5.63A33.81 33.81 0 0 1 33.5 22l-.57-.18C31.73 21.48 29.7 21 28 21a19.62 19.62 0 0 0-5.5 1 10.42 10.42 0 0 1 .43-1.37c.58-1.71 1.24-3.67.07-5.63-.72-1.2-2.73-.8-4.1-.34-.36.12-.66.24-.9.34.17-.26.38-.52.6-.77A7.18 7.18 0 0 1 24 12c2.4 0 3.67.67 4 1 .33-.33 1.6-1 4-1a7.18 7.18 0 0 1 5.4 2.23Z" fill="#0E0C0D"/><circle cx="39" cy="16" r="2" fill="#EE4684"/><circle cx="17" cy="16" r="2" fill="#4B84F5"/><path fill-rule="evenodd" d="M17 17.5a1.5 1.5 0 1 0 0-3 1.5 1.5 0 0 0 0 3Zm0 .5a2 2 0 1 0 0-4 2 2 0 0 0 0 4ZM39 17.5a1.5 1.5 0 1 0 0-3 1.5 1.5 0 0 0 0 3Zm0 .5a2 2 0 1 0 0-4 2 2 0 0 0 0 4Z" fill="#0E0C0D"/></svg>