<svg width="56" height="56" viewBox="0 0 56 56" xmlns="http://www.w3.org/2000/svg"><path fill-rule="evenodd" d="M43.77 25.3a16.01 16.01 0 0 0-24.9-10.43 16.1 16.1 0 0 0-6.4 9.23c-1.64 6.33 1.09 13.32 6.43 17.05A15.78 15.78 0 0 0 28.54 44 15.77 15.77 0 0 0 37 41.22a15.88 15.88 0 0 0 4.95-5.38 15.86 15.86 0 0 0 1.83-10.55Zm-4.88-7.23a14.9 14.9 0 0 1 3.53 6.88 14.75 14.75 0 0 1-3.56 12.97h-.02l-.01-.01-4.4-4.6c-.02-.02-.02-.04 0-.07a7.17 7.17 0 0 0 2.3-5.95 6.82 6.82 0 0 0-1.86-4.1l-.32-.32a12.4 12.4 0 0 1-.1-.1c-.03-.03-.03-.05 0-.08l4.38-4.62c.02-.02.04-.02.06 0Zm-3.9 2.29 2.94-3.18c.02-.02.02-.04 0-.06a14.7 14.7 0 0 0-19.86.04l.02.02 3.29 3.25a.2.2 0 0 0 .14.06c2.08.02 3.9.03 6.02.01.54 0 1.04 0 1.5.04 1.57.1 3 .54 4.28 1.35a.13.13 0 0 0 .16-.02L35 20.36ZM17.12 37.9a14.68 14.68 0 0 1-.01-19.8c.03-.04.06-.05.1-.01l3.22 3.17a.35.35 0 0 1 .1.25v12.94c0 .12-.04.24-.13.32-.98.98-2.23 2.16-3.2 3.13a.05.05 0 0 1-.06 0h-.02ZM22 22.03a.06.06 0 0 0-.01.04v11.9l.1.03h6.42c3.4-.22 6.74-2.32 6.73-5.9v-.28c-.01-3.58-3.38-5.83-6.77-5.82h-6.42c-.02 0-.03.02-.04.03Zm4.39 20.6c-3.1-.33-6-1.66-8.32-3.76v-.04l3.3-3.22a.25.25 0 0 1 .17-.07h6.52a9.56 9.56 0 0 0 5.32-1.45l.04.02 4.5 4.71a.03.03 0 0 1 0 .03v.02a14.7 14.7 0 0 1-11.53 3.76Z" fill="url(#acaf5a0wr)"/><defs><linearGradient id="acaf5a0wr" x1="36.39" y1="15.12" x2="16.91" y2="38.92" gradientUnits="userSpaceOnUse"><stop stop-color="#40B5D0"/><stop offset=".3" stop-color="#B59277"/><stop offset="1" stop-color="#E53F18"/></linearGradient></defs></svg>