<svg width="56" height="56" viewBox="0 0 56 56" xmlns="http://www.w3.org/2000/svg"><path d="M23.07 40.37a.05.05 0 0 0-.04-.01.05.05 0 0 0-.04.03c-.09.19-.17.52-.36.65-.68.44-1.32.88-1.92 1.32-.1.07-.27.16-.52.25-.17.07-.36.12-.56.15-1.17.18-2.24.19-3.36.24-.13 0-.36 0-.68-.04-.46-.04-1.05-.25-1.36-.33a5.12 5.12 0 0 1-1.6-.75c-.45-.3-.78-.66-.56-1.22l.36-.93c.2-.48.56-.9.74-1.35.13-.31.28-.57.45-.78l.59-.73c.3-.4.5-.64.58-.73a7.63 7.63 0 0 1 2.04-1.46c.23-.13.38-.3.52-.52a.18.18 0 0 0-.02-.21c-.62-.71-1.1-1.33-.82-2.33.04-.14 0-.2-.08-.32-.45-.6-1.07-1.15-.45-1.94a.1.1 0 0 0 0-.12c-.12-.2-.21-.38-.34-.51-.49-.5-1.02-.99-.67-1.77.12-.28.27-.52.46-.73.09-.1.15-.21.2-.35a3.97 3.97 0 0 1 .98-1.4.13.13 0 0 0 0-.1 2.64 2.64 0 0 1-.95-2.09c.01-.37.09-.68.05-1a5.5 5.5 0 0 1-.02-.89c0-.03-.01-.05-.04-.06-.23-.05-.3-.2-.23-.44.04-.15.17-.3.38-.46a9.1 9.1 0 0 1 1.07-.73c.32-.59.64-1.02.95-1.29a10.13 10.13 0 0 1 1.26-.94l.01-.04c.03-.19.08-.36.16-.51.42-.81.9-1.58 1.4-2.3.44-.6.97-.83 1.6-1.17.26-.14.46-.2.76-.22l.99-.04c.74-.02 1.24.06 1.76.58a5.3 5.3 0 0 0 1.08.8l.02-.02c.41-.55.91-.97 1.52-1.25.17-.08.47-.15.9-.2.92-.14 1.85-.14 2.8-.03.23.02.44.09.62.19.55.3 1.02.53 1.4 1 .33.4.56.72.68.95.21.4.36.73.63 1.05.37.42.63.75.79.97.33.47.75.82 1.05 1.28.35.53.82 1.27 1.2 2l.93 1.78c.22.4.44.92.63 1.28.43.8.84 1.65 1.22 2.56.27.65.42 1.24.65 1.98.23.72.3 1.7.39 2.24.2 1.3.35 2.03.42 3.15.05.74.15 1.63.3 2.66v.39a7.71 7.71 0 0 1-.73 2.74c-.3.6-.8 1.24-1.4 1.63-.32.2-.51.34-.8.47L38.9 41a15 15 0 0 1-4.14.96c-1.13.06-2.25.17-3.4.07-.9-.08-1.52-.17-2.33-.18l-2.85-.04a4.07 4.07 0 0 1-1-.12c-.26-.08-.58-.19-.97-.34-.28-.1-.5-.23-.66-.37-.18-.15-.3-.45-.47-.6Z" fill="#070403"/><path d="m22.31 20.82.04.05v-.01a.74.74 0 0 1-.03-.2l-2.07.06c.02.51.14 1.08.55 1.51a2 2 0 0 0 1.53.6l-.02-2.01Z" fill="#F7BB17"/><path d="m22.15 23.22.45.34c-.03.19-.01.33.08.43.22.25.44.43.66.54.26.12.43.24.52.34.7.77 1.2 1.43 2 1.73.32.12.76.24 1.17.42.4.18.75.33 1.2.3.06 0 .1-.05.1-.14 0-.08-.03-.12-.1-.13a2.52 2.52 0 0 1-.85-.2l-.7-.3c-.38-.12-.69-.2-.95-.35a5.35 5.35 0 0 1-1.46-1.34l.01-.01.02-.01c.75-.05 1.53-.04 2.22-.15.11-.02.24-.04.4-.04.67-.03 1.3-.1 1.87-.2.3-.05.63-.16.97-.33.18-.1.42-.28.7-.57.29-.28.58-.54.89-.79.07-.05.07-.1 0-.16l-.03-.02a.18.18 0 0 0-.23 0c-.28.24-.56.5-.84.78-.43.42-.87.66-1.38.76-.4.08-1.03.16-1.9.23-.31.03-.58.06-.8.1-.46.07-.9 0-1.38.06-.34.03-.54.08-.79-.01-.25-.1-1.62-.69-.94-1.07.03-.02.06-.01.09 0 .18.15.46.12.7.22.39.16.62.25.72.27.37.1.9.09 1.37.02.8-.11 1.26-.19 1.37-.23.42-.15.85-.3 1.28-.42l.54-.19c.28-.11.46-.16.67-.34.32-.27.57-.56.88-.7.32-.15.7-.22 1.02-.39.18-.1.47-.23.88-.4a.14.14 0 0 1 .1 0c.27.07.63.13.7-.25.06-.3 0-.57-.2-.82-.1-.12-.36-.41-.8-.87a2.3 2.3 0 0 0-.69-.53c-.51-.23-1-.35-1.66-.32-.44.02-.88.02-1.34-.01a8.5 8.5 0 0 0-.88-.03c-.37.02-.78-.05-1.18-.01-.36.03-.74.03-1.13 0a3.9 3.9 0 0 0-1.19.08c-.27.08-.5.34-.73.57-.15.15-.2.12-.15-.08.03-.12.07-.23.12-.34.16-.31.37-.7.65-1.18a5.92 5.92 0 0 1 2.03-1.96c.14-.08.3-.14.46-.16 1.52-.21 2.97-.35 4.37.15.2.07.41.2.65.42.42.36.72.61.9.74a.12.12 0 0 0 .17-.02l.02-.02a.14.14 0 0 0 .03-.1.14.14 0 0 0-.05-.1c-.6-.47-1.12-1.08-1.9-1.3a5.8 5.8 0 0 0-1.09-.21 11.99 11.99 0 0 0-3.18.17l-.03-.02a.07.07 0 0 1-.02-.06 3.13 3.13 0 0 1 2.9-2.7c.84-.1 1.68-.1 2.53 0 .21.02.4.08.59.17.63.34 1.03.53 1.42 1.01l.5.72c.17.27.31.58.47.88.21.36.65.8.97 1.2.22.3.52.66.9 1.06l.23.34a25.74 25.74 0 0 1 1.81 3.2c.59 1.06 1.1 2.17 1.62 3.18.18.37.3.73.5 1.14.21.45.36 1.13.56 1.67.16.43.28 1.13.36 1.76.14 1.06.24 1.74.3 2.04.1.6.18 1.22.23 1.87.04.57.1 1.19.2 1.87a5.96 5.96 0 0 1-.45 3.39c-.3.88-.96 1.63-1.71 2.08-.42.25-.97.52-1.63.82-.57.25-1.1.36-1.7.56-.18.06-.41.11-.7.16a24.4 24.4 0 0 1-4.25.35c-.42 0-.88-.04-1.36-.1a16.6 16.6 0 0 0-1.83-.11c-1.04 0-2.18-.03-3.41-.07-.19-.01-.45-.07-.66-.15l-1.1-.42a.54.54 0 0 1-.23-.19l-.47-.65a.16.16 0 0 1-.03-.1c0-.27 0-.64-.02-1.1 0-.07.03-.16.1-.29a5.2 5.2 0 0 1 1.08-1.46c.05-.05.14-.2.26-.43.29-.58.04-.97-.44-1.28a.97.97 0 0 0-1.34.21c-.02.02-.03.02-.05 0-.1-.1-.2-.21-.34-.29-.3-.17-.56-.35-.75-.54a6.42 6.42 0 0 0-2.39-1.7 1.5 1.5 0 0 0-.58-.07c-.38.03-.72.4-1.05.72a.1.1 0 0 1-.13 0c-.53-.55-.92-1.15-.77-1.95a.05.05 0 0 1 .03-.04.04.04 0 0 1 .04.01c.3.29.64.49 1.01.6.19.05.53.07 1.03.05.7-.03 1.5 0 2.4.07.55.05 1.37.03 2.47-.04.25-.02.5-.02.77-.02.42 0 .67 0 .78-.03.48-.13 1.15-.25 2.02-.35a4.6 4.6 0 0 0 1.5-.51c.6-.32 1.23-.63 1.88-.93.16-.07.42-.22.77-.44.2-.12.46-.26.78-.42.45-.21.89-.5 1.33-.84.29-.23.47-.44.54-.63.18-.48-.07-1.36-.74-1.25-.35.05-.8.15-1.18.27-.93.3-1.63.55-2.63.74-.82.16-1.46.3-1.92.41-.62.15-1.2.26-1.74.31-.69.08-1.63.26-2.49.29-.45.01-1.12.06-2.02.13-.95.08-1.66.05-2.67 0-.6-.02-1.32-.18-1.77-.64a4.27 4.27 0 0 1-1-1.7c-.27-.89.2-1.52.78-2.1.04-.03.07-.02.1.02.36.66.85.68 1.5.64.07 0 .1-.04.12-.1v-.05c0-.06-.04-.09-.1-.1l-.77-.1a.42.42 0 0 1-.26-.13l-.14-.15c-.1-.12-.08-.16.07-.12a2.33 2.33 0 0 0 .91-.04.1.1 0 0 0 .03-.02c.02-.04.03-.07.02-.1-.02-.09-.07-.13-.14-.12-.57.03-.94 0-1.1-.1-.47-.33-.98-.99-.99-1.6 0-.15.04-.16.11-.04.37.58.89.95 1.56 1.09.36.08.84.1 1.44.07l1.63-.06c.41-.01.67-.1 1.14-.23a.5.5 0 0 0 .35-.29Z" fill="#FEBC04"/><path d="M25.65 12.98c.28.29.59.49.98.75.02.02.03.04.02.07-.09.22-.28.57-.32.8l-.07.47c0 .04-.02.07-.05.09l-1.17.81a.17.17 0 0 1-.14.03c-.22-.06-.39-.1-.5-.15a6.14 6.14 0 0 0-3.16-.23c-.7.12-1.3.32-1.8.59-.08.04-.1.02-.06-.05.44-.87.95-1.7 1.54-2.51.36-.5 1.02-.78 1.64-1.07a.81.81 0 0 1 .28-.07c.49-.04.97-.06 1.43-.07.57 0 .98.12 1.38.54Z" fill="#FEBC04"/><path d="M22.32 21.8c-.67.01-1.01-.36-1.04-1.1l.1.06c.03.02.06.03.1 0 .1-.05.1-.14.03-.23a3.43 3.43 0 0 0-1.9-1.22 12.6 12.6 0 0 0-2.9.08c-.37.08-.68.25-.92.5-.13.13-.16.11-.09-.06.02-.05.08-.1.17-.17.2-.14.45-.32.78-.53.33-.22.65-.2 1.18-.25.6-.05 1.23.04 1.75.1.28.03.6.2.8.3.08.03.13 0 .14-.08v-.04a.28.28 0 0 0-.04-.1.2.2 0 0 0-.06-.08c-.42-.25-.7-.29-1.26-.36a6.66 6.66 0 0 0-1.89.02c-.07 0-.09-.02-.05-.08.43-.78 1-1.23 1.76-1.72a6.13 6.13 0 0 1 4.41-.95c.49.08.9.27 1.32.37a.04.04 0 0 1 .03.03v.02l-.01.01c-.62.63-1.02 1.39-1.42 2.14-.16.31-.2.62-.12.93 0 .03 0 .06-.02.09-.25.3-.44.52-.59.67-.07.08-.15.28-.23.6-.05.22-.07.58-.03 1.05Z" fill="#FEBC04"/><path d="m22.6 23.56-.45-.34c.09-.88-.74-1.45-1.18-2.05-.33-.45-.62-.61-1.18-.98a1.14 1.14 0 0 0-.49-.2 5.67 5.67 0 0 0-2.36.11c-.43.14-.66.63-.93 1.06-.05.08-.08.07-.1-.03-.02-.3 0-.62.06-.95.04-.2.36-.33.58-.43.1-.04.24-.07.44-.1.74-.08 1.35-.12 1.83-.12.97 0 1.8.39 2.46 1.16.03.75.37 1.12 1.04 1.11.05.1.12.11.21.03a.23.23 0 0 0 .08-.17c0-.52-.03-1.1.38-1.54.38-.41.75-.78 1.1-1.12.2-.18.45-.27.76-.27l1.28-.03c.03 0 .04.02.04.05 0 .03-.03.06-.07.07-.5.19-.93.32-1.25.66-.4.44-.91.87-1.27 1.23-.32.31-.53.52-.62.63a1.9 1.9 0 0 0-.52 1.37c0 .04.01.07.04.09.05.05.11.05.17 0a.11.11 0 0 0 .05-.07c.08-.52.14-.9.57-1.3a9.43 9.43 0 0 1 1-.96c.46-.4.74-.83 1.32-1.15.12-.06.53-.21 1.23-.46.22-.08.46-.12.7-.12.87-.01 1.8.09 2.53.03.5-.04.85.08 1.3.22.23.06.41.17.57.32.63.6 1 1 1.1 1.18.08.13.11.27.1.42 0 .04-.01.07-.04.1a.13.13 0 0 1-.1.03c-.28-.01-.4-.29-.63-.6-.28-.38-.67-.66-1.15-.83a9.8 9.8 0 0 0-3.04-.48c-.94-.02-1.53.33-2.27.83-.45.3-.94.5-1.42.74-.18.1-.41.3-.7.64a2.5 2.5 0 0 0-.37.78l-.3.83c-.11.26-.41.27-.5.61Z" fill="#F0B929"/><path d="M25.4 20.73a.3.3 0 0 1-.08 0c-.03 0-.04-.03-.04-.06 0-.02.03-.04.05-.05.37-.16.72-.37 1.05-.62.51-.39 1.09-.58 1.73-.57 1 0 2.2.13 3.17.54.46.2.81.53 1.06 1.02v.05c0 .01 0 .03-.02.03-.1.06-.2.1-.3.12l-.1-.01c-.1-.05-.27-.13-.42-.16a18.09 18.09 0 0 0-4.56-.24c-.21.01-.47 0-.77-.02a8.1 8.1 0 0 0-.77-.03Z" fill="#FEBC04"/><path d="M16.16 21.4c.35-.38.47-.9.93-1.02.57-.16 1.27-.2 2.08-.1.37.05.66.28.9.44.07.07.07.1-.04.1-.8.02-1.5.07-2.1.14-.12.01-.3.06-.44.14-.4.22-.9.46-1.51.72-.04.02-.06 0-.05-.04.02-.15.1-.25.23-.38Z" fill="#F0B929"/><path d="M23.65 23.26a5.85 5.85 0 0 0-.26-.05.11.11 0 0 1-.05-.09v-.05l.37-.9c.13-.35.23-.58.3-.67.18-.22.43-.5.76-.5a24.7 24.7 0 0 1 1.43.07.04.04 0 0 1 0 .04c-.12.15-.3.35-.3.56-.04.73 0 1.25.4 1.87a.05.05 0 0 1 0 .05.05.05 0 0 1-.04.02c-.54.07-1.05.07-1.52.03-.39-.04-.82-.34-1.09-.38ZM30.13 22.06a4.26 4.26 0 0 0-.1.1H30l-.01-.02c-.09-.4-.27-.72-.54-.96-.1-.1-.08-.13.05-.12l2.07.26h.02l.02.02v.05l-.06.04c-.47.15-1.15.35-1.43.63ZM17.79 23.46c-.87-.17-1.18-.54-1.69-1.16a.15.15 0 0 1-.03-.13.15.15 0 0 1 .1-.1c.46-.18.88-.38 1.25-.62.18-.1.36-.15.58-.22.12-.04.13-.01.05.08-.13.14-.22.3-.27.5-.16.54-.16 1.06.2 1.53.08.1.05.16-.1.14l-.1-.02ZM28.7 21.78c.14.03.28-.06.3-.19.02-.13-.07-.26-.21-.28-.14-.03-.28.06-.3.19-.02.13.07.26.21.28ZM19.9 21.85c.03.14.15.23.27.2.12-.03.18-.17.15-.32-.04-.14-.16-.23-.28-.2-.11.03-.18.17-.14.32ZM21.2 22.69a3.6 3.6 0 0 0-.25-.91c-.1-.22-.06-.24.09-.07.42.48.74.78.82 1.31 0 .04 0 .09-.02.12a.17.17 0 0 1-.1.08l-.58.16a.03.03 0 0 1-.03 0 .03.03 0 0 1 0-.03c.05-.27.1-.43.07-.66ZM26.9 22.62c.29.12.6.03.7-.21.1-.25-.04-.54-.32-.67s-.6-.03-.7.2c-.1.25.05.55.33.68ZM18.69 21.93l-.14.01a.32.32 0 0 0-.3.35l.02.17c.01.18.16.32.34.3h.14c.17-.02.3-.18.29-.36l-.01-.17a.32.32 0 0 0-.34-.3ZM28.4 22.52c.07.13.22.18.33.11.1-.06.14-.22.07-.34-.07-.13-.21-.17-.32-.11-.11.06-.14.22-.08.34ZM20.06 23c.12 0 .22-.1.22-.22s-.1-.22-.22-.22-.22.1-.22.22c0 .13.1.23.22.23Z" fill="#FFFDEE"/><path d="M20.26 24.99v-.05a.05.05 0 0 0-.05-.03c-.4.08-.8.06-1.19-.04a.14.14 0 0 1-.08-.06.15.15 0 0 1-.02-.1v-.06c.01-.06.05-.1.12-.08.93.21 1.61-.01 2.52-.38a.12.12 0 0 1 .14.04l.02.05a.1.1 0 0 1 0 .04c0 .04-.02.07-.04.1a.15.15 0 0 1-.06.06 3.8 3.8 0 0 0-1.43 1.02c-.3.38-.63.69-.9 1.17-.03.06-.08.08-.14.04a.07.07 0 0 1-.04-.02.3.3 0 0 1-.04-.1v-.1c.1-.2.23-.4.4-.6l.79-.9ZM32.56 25.55h-.01v-.02l.01-.08c.01-.06.08-.1.2-.12.1-.02.25-.02.4.01l.32.08a1.31 1.31 0 0 1 .38.15c.04.03.08.06.1.1.02.03.03.06.02.1l-.01.07a.02.02 0 0 1-.01.01.02.02 0 0 1-.02 0l-1.38-.3ZM34.57 27.62c-.26-.4-.5-.65-.93-.78a4 4 0 0 0-1.37-.17c-.1 0-.13-.04-.12-.13v-.05c0-.03.02-.07.05-.09a.14.14 0 0 1 .09-.04c.96 0 1.93.12 2.47 1.02.04.07.04.13 0 .2l-.02.03a.1.1 0 0 1-.14.04.1.1 0 0 1-.03-.03Z" fill="#070403"/><path d="M32.57 28.02a.76.76 0 0 0-.22.13c-.43.3-.66.44-1.14.57a8 8 0 0 0-.83.28c-.73.3-1.2.47-1.41.52-.76.19-1.94.2-2.68.3-.54.09-1.05.14-1.7.27-.54.1-1.15.2-1.85.26-.34.03-.68-.1-1-.04-.66.12-1.26.17-1.83.13l-2.13-.14c-.38-.03-.83-.42-1.1-.7l-1.05-1.15a2.35 2.35 0 0 1-.48-.74.8.8 0 0 1 .02-.64l.2-.43c.1-.2.17-.2.19.04.04.4.26.78.48 1.19.26.47.61.87 1.04 1.22.11.09.23.15.36.18.9.23 1.54.1 2.85.1.47 0 .9-.02 1.27-.06.55-.06 1.05-.03 1.68-.08.51-.05 1.01-.08 1.5-.09.93-.01 1.7-.25 2.58-.39a31.86 31.86 0 0 0 3.74-.82l.99-.31a5.89 5.89 0 0 1 1.52-.29c.04 0 .09.02.12.05.03.03.05.07.06.11.02.2.03.39.03.6 0 .2-.25.42-.4.56-.22.23-.47.4-.75.55-.3.15-.5.26-.63.34-.41.27-.69.44-.84.51l-1.5.7c-.22.1-.44.22-.67.38-.2.14-.48.28-.85.42-.47.17-1.03.2-1.66.28-.67.09-1.36.31-2.05.33-1.23.04-2.13.04-2.68.02-.7-.02-1.28-.02-1.74 0-1.22.05-2.16.13-3.05-.63a3.36 3.36 0 0 1-.46-.52c-.34-.46-.83-.94-.36-1.44.03-.02.05-.02.08 0l.72.63c.18.17.37.28.61.32.2.03.36.08.57.09h.83c.6 0 1.19.11 1.79.09.08 0 .24-.03.5-.07.34-.06.8-.02 1.2 0 .24 0 .47-.01.7-.05.62-.09.98-.13 1.41-.22.87-.2 1.44-.3 1.72-.3.45-.02.88-.06 1.3-.14.36-.06.66-.05 1.06-.07.3-.01.75-.18 1.1-.35.75-.34 1.5-.63 2.27-.86.28-.09.5-.24.67-.47.12-.16.08-.21-.1-.17ZM16.56 38.1v.1c.02.07.06.12.11.16.3.2.49.36.59.49.34.44.6.9.81 1.36.06.13.05.3-.04.49-.05.11-.16.18-.33.21-.2.04-.46.06-.77.06-.4 0-.33-.18-.58-.44a61.19 61.19 0 0 1-1.39-1.48.1.1 0 0 0-.07.02l-.05.03c-.06.05-.07.1-.02.16.33.42.77.9 1.33 1.47.14.15.07.32 0 .51-.03.12-.07.2-.2.23-.41.1-.7.03-1-.3l-1-1.24c-.1-.12-.17-.16-.24-.12l-.04.02c-.07.03-.08.08-.04.15.06.1.17.25.33.43.35.4.62.83 1.02 1.16.3.25.67.27 1 .2.23-.05.38-.22.47-.51l.01-.03a.08.08 0 0 1 .06-.03h.03c.33.16 1.6.14 1.74-.37l.1-.31c0-.04.03-.05.06-.05.98.14 1.34-.55 1.96-1.02.38-.28.85-.7 1-1.17l.06-.52c.02-.2.06-.4.13-.6a.08.08 0 0 1 .06-.04c.66-.11 1.17-.25 1.18-1.05l.03-.09c.35-.53.78-.58 1.3-.15.55.48-.18 1.18-.5 1.52-.31.34-.5.73-.75 1.1-.08.1-.1.4-.1.57.01.67.05 1.13-.2 1.68a.7.7 0 0 1-.3.3c-.39.22-.89.56-1.5 1.02-.36.26-.76.43-1.22.5-.66.11-1.35.17-2.08.18l-1.09.05a5.84 5.84 0 0 1-2.06-.3 5.05 5.05 0 0 1-1.97-1.02c-.2-.16-.18-.38-.11-.61a7.3 7.3 0 0 1 .94-2.06c.17-.26.29-.65.53-.96l1.04-1.32a7.06 7.06 0 0 1 2.15-1.6c.19-.1.32-.22.4-.33.13-.17.25-.42.43-.56l.56-.5c.2-.18.47-.21.77-.1.54.19 1.05.49 1.52.9.22.18.54.48.94.89.04.04.03.07-.02.09-.2.1-.37.25-.5.46-.24.37.09.67.4.92a.1.1 0 0 0 .09.02c.05 0 .08-.03.1-.07a.17.17 0 0 0-.05-.2c-.18-.16-.46-.37-.25-.6.1-.1.23-.21.4-.3.16-.1.22-.06.37.04.32.21.52.39.4.83-.1.42-.83.48-1.18.44-.23-.03-.5-.16-.8-.4l-.96-.75c-.49-.4-1.32-.17-1.78.17-.05.03-.08.07-.08.11-.01.04 0 .08.04.1l.07.09.26.51a.03.03 0 0 1 0 .04.03.03 0 0 1-.03.01H18c-.29-.28-.64-.58-1.05-.88-.06-.04-.12-.04-.17.01l-.02.02a.12.12 0 0 0-.04.1.13.13 0 0 0 .05.1c.34.26.68.55 1.02.84.12.1.31.23.56.37l.62.34c.55.26.75.57 1.06 1.1.1.2.1.38 0 .55-.34.52-.77.94-1.4.95a.47.47 0 0 1-.23-.05.13.13 0 0 1-.06-.06 6.99 6.99 0 0 0-.93-1.5 3.1 3.1 0 0 0-.7-.53c-.07-.05-.12-.03-.16.05Z" fill="#FEBC04"/><path d="M20.75 36.92c.18.12.32.14.5.18.01 0 .02.01.02.03l-.13 1.06v.01h-.01a.02.02 0 0 1-.02 0 24.95 24.95 0 0 1-2.02-1.95 1.36 1.36 0 0 1-.27-.44c-.02-.04 0-.05.03-.06.24-.02.44.04.62.2.43.36.85.69 1.28.97ZM20.36 38.7c-.25-.55-.62-1.1-1.13-1.32a.98.98 0 0 1-.34-.19l-.53-.67c-.12-.16-.33-.52-.07-.65.1-.06.18-.03.23.07.13.23.35.5.65.82a34.72 34.72 0 0 0 1.79 1.74.07.07 0 0 1-.02.06l-.46.47a.03.03 0 0 1-.05 0l-.01-.02c0-.12-.01-.22-.06-.32Z" fill="#F0B929"/></svg>