<svg width="224" height="224" viewBox="0 0 56 56" xmlns="http://www.w3.org/2000/svg"><path d="m28.54 12.03-.1.07c-.09.06-.1.13-.03.21.09.1.15.2.18.33.17.94.31 1.84.43 2.7-.2.11-.27.41-.2.9.02.14-.04.23-.19.25l-.08.02c-.09.01-.13-.02-.14-.11-.03-.71-.09-1.39-.18-2.04 0-.03-.02-.05-.05-.04h-.07a40.73 40.73 0 0 1-.02 1.96.18.18 0 0 1-.14.09l-.08-.01a2.42 2.42 0 0 0-1.73-.03c-.24.08-.4 0-.46-.25l-.97-3.37c-.01-.04-.04-.05-.07-.04l-.08.02c-.01 0-.02.01-.01.03l.96 3.61c.02.08 0 .14-.08.17l-.59.29c-.53-1.4-.83-2.89-.9-4.45.51-.17 1.01-.27 1.5-.3.77-.05 1.8-.05 3.1 0Z" fill="#426971"/><path d="M28.54 12.03h.55l.46 4.86c-.45-.05-.63-.57-.53-1.55-.12-.86-.26-1.76-.43-2.7a.68.68 0 0 0-.18-.33c-.07-.08-.06-.15.03-.2l.1-.08Z" fill="#588588"/><path d="m29.1 12.04 2.13.09.02.59c-.07-.26-.17-.4-.31-.43a.17.17 0 0 0-.2.16l-.37 5c-.42-.2-.69-.4-.82-.56l-.46-4.85Z" fill="#426971"/><path d="m31.23 12.13.84.2c-.1 1.07-.17 2.4-.2 4.02 0 .42-.11.67-.34.74l-.03-1.53-.25-2.84-.02-.59Z" fill="#588588"/><path d="m31.25 12.72.25 2.84-.48 2.16c-.02.1-.07.11-.14.06l-.5-.33.36-5a.17.17 0 0 1 .13-.16h.07c.14.03.24.17.3.43Z" fill="#31535E"/><path d="m32.07 12.33 1.64.54c.06.68.08 1.36.05 2.02-.03.62-.04 1.22-.02 1.8a8.7 8.7 0 0 1-.1 1.8c-.06.26-.22.5-.5.75-.17-.12-.23-.25-.19-.37.2-.55.33-.99.37-1.32a5.16 5.16 0 0 0 .18-2.58.17.17 0 0 0-.24-.02l-.14.12a.3.3 0 0 0-.1.21 9.83 9.83 0 0 1-.34 2.27c-.11.35-.42.57-.9.68a.54.54 0 0 1-.34-.14.2.2 0 0 1-.07-.2l.16-.8c.23-.07.34-.32.35-.74.02-1.61.08-2.95.2-4.02Z" fill="#426971"/><path d="M23.95 12.34c.06 1.56.36 3.05.89 4.45-.18.2-.37.3-.55.28a.2.2 0 0 1-.18-.14l-.65-1.8c.09-.33.01-.64-.22-.93-.08-.1-.14-.1-.18.03-.06.15-.15.25-.3.27a.27.27 0 0 1-.2-.04c-.1-.06-.2-.05-.3.03a.28.28 0 0 0-.08.2c0 .27.03.53.1.76.08.25.15.49.2.73.13.56.3 1.1.53 1.63-.02.06-.04.1-.08.1a.27.27 0 0 1-.34-.16 13.2 13.2 0 0 1-.89-3.6c.06-.3.02-.61-.11-.97l2.36-.84Z" fill="#588588"/><path d="M33.7 12.87c1.15.38 2.16.92 3.04 1.61.12 1.2.18 3.07-.4 4.12-.06.13-.04.16.1.1a.87.87 0 0 0 .35-.41l.3.02c-.13.86-.42 1.49-.88 1.88-.53-.17-.91 0-1.14.5-.18.38-.28.36-.3-.06l-.06-.86c0-.02-.01-.04-.04-.04-.02 0-.03.01-.03.03-.07.76-.13 1.51-.18 2.27-.02.15-.05.16-.11.01l-1.2-2.8c.27-.24.43-.5.48-.74.1-.52.13-1.12.1-1.81-.01-.58 0-1.18.03-1.8.03-.66.01-1.34-.05-2.02Z" fill="#31535E"/><path d="M21.59 13.18c.13.36.17.68.11.96l-.06-.14c-.06-.14-.1-.13-.1.02-.01 1.32.37 2.76.87 3.95a.2.2 0 0 1-.05.23 6.11 6.11 0 0 0-1 1.32.06.06 0 0 1-.06 0l-.02-.03a17.9 17.9 0 0 1-1.56-4.86l-.06.01c-.04 0-.05.03-.05.06A14 14 0 0 0 21 19.28c.03.06.03.13.02.2-.02.07-.09.12-.2.13a.27.27 0 0 0-.24.26l-.05 1.47c-.48-.43-.8-.94-.96-1.52a.43.43 0 0 1 .04-.33c.1.06.14.06.13.02l-1-4.7a12 12 0 0 1 2.86-1.63ZM23.46 15.12c-.06.6.04 1.2.3 1.8a.29.29 0 0 1-.07.33l-.68.56a8.31 8.31 0 0 1-.53-1.63 7.17 7.17 0 0 0-.2-.73 2.2 2.2 0 0 1-.1-.76c0-.07.03-.14.09-.2.09-.08.19-.1.3-.03.06.04.13.06.2.04.14-.02.23-.12.29-.27.04-.13.1-.14.18-.03.23.3.3.6.22.92Z" fill="#426971"/><path d="M35.51 14.26c.07 1.24.06 2.35-.02 3.33-.01.24-.08.46-.2.67-.18.32-.26.3-.25-.08.04-1.27.13-2.6.28-4 0-.01.01-.02.03-.02h.07a.1.1 0 0 1 .06.03.1.1 0 0 1 .03.07Z" fill="#588588"/><path d="M36.79 18.29c-.1.19-.21.32-.36.4-.12.07-.15.04-.08-.09.58-1.05.5-2.92.39-4.12.13 0 .24.04.33.13.07.07.11.16.1.27l-.02 2.56c0 .33-.18.58-.36.85Z" fill="#fff"/><path d="m18.73 14.8 1 4.7c0 .05-.04.05-.13-.01l-.43-1-1-3.08a.22.22 0 0 1 .05-.22c.11-.15.28-.27.51-.38Z" fill="#C4CC8F"/><path d="M33.31 17.55c0-.19-.03-.3-.08-.34a.07.07 0 0 0-.11.04 4.2 4.2 0 0 1-.37 1.33c-.04.08-.1.11-.18.1a1.15 1.15 0 0 1-.8-.45c.5-.1.8-.33.91-.68.15-.42.26-1.18.33-2.27a.3.3 0 0 1 .1-.2l.15-.13a.16.16 0 0 1 .27.1c.14.86.06 1.7-.22 2.5Z" fill="#31535E"/><path d="M37.87 15.24c-.1.39-.08.78.03 1.17a.5.5 0 0 0-.14.2c-.03.09-.08.1-.16.06a.09.09 0 0 1-.04-.07c-.03-.37-.05-.85-.03-1.45 0-.08.04-.11.1-.11.08 0 .16.06.24.2Z" fill="#FBF7D5"/><path d="m37.87 15.24.94.78a.71.71 0 0 0-.23.6c.04.42.06.8.06 1.17 0 .11.06.17.17.17h1.05c.1 0 .16-.05.2-.13.04-.11.06-.25.07-.41.7.5.47.93.5 1.64.01.22.11.38.3.46.19.67.18 1.3-.02 1.9.08-.6.11-1.04.1-1.35-.03-.3-.18-.44-.47-.41-.08 0-.16-.01-.24-.05a3.46 3.46 0 0 0-1.5-.3l1.1-.03c.15 0 .23-.08.23-.24v-.73c0-.18-.09-.27-.26-.27l-1.07-.02c-.12 0-.18.05-.2.17-.02.33-.01.66.02.99 0 .04.02.07.04.1l.1.05a.2.2 0 0 1-.06.12.31.31 0 0 0-.06.19l-.03 1.92-.87.04c-.06 0-.11.02-.15.05-.13.09-.15.18-.06.27l-.05 2.24-.51.07-.14-.26c.03 0 .06 0 .08-.02a.15.15 0 0 0 .1-.1c.16-.64.1-1.2-.17-1.69a.5.5 0 0 0 .17-.27c.02-.11-.01-.19-.1-.24a.45.45 0 0 0-.19-.06c-.08 0-.1-.04-.04-.1a.17.17 0 0 0 .05-.1c.67-1.09.86-2.02 1.29-3.09.09-.21.05-.6-.11-1.16v-.73a2.24 2.24 0 0 1-.04-1.17Z" fill="#C6FB72"/><path d="M18.43 17.67a9.76 9.76 0 0 0 2.2 5.53l.64 1.16c.02.37-.03.65-.16.86l-.38-1.3a.42.42 0 0 0-.11-.19c-1.63-1.46-2.4-4.38-2.75-6.53a1 1 0 0 1 .03-.46c.06-.2 0-.4-.19-.6-.17-.18-.24-.15-.21.1.28 2.09.74 3.87 1.38 5.34.37.83.91 1.65 1.63 2.46.06.07.1.15.11.25.15.96.46 1.77.94 2.45.06.09.1.18.1.3.03.65.14 1.27.32 1.86.03.09.02.17-.02.25l-.74 1.43a.28.28 0 0 1-.25.16c-.32.01-.6.14-.84.38a.3.3 0 0 1-.18.09c-.14.01-.24-.05-.3-.19a.2.2 0 0 1 0-.15l.38-.86c.03-.08.09-.15.17-.2.78-.5.96-1.22.53-2.16a.3.3 0 0 0-.32-.17.3.3 0 0 0-.12.05c-.56.4-1.12.78-1.68 1.13-.27.17-.47.4-.6.68-.14.34-.31.67-.52 1a.3.3 0 0 1-.15.14c-.23.08-.42.2-.56.36-.56.61-1.2 1.16-1.93 1.64a.3.3 0 0 1-.19.05l-.31-.02a.32.32 0 0 0-.23.07l-1.17.92.25-.72c1.07-.39 1.94-.83 2.61-1.33.34-.29.6-.57.75-.84.7-.3.94-.7 1.26-1.36.15-.31.34-.56.56-.73.3-.23.59-.43.88-.6.27-.16.48-.34.64-.53.1-.1.25-.14.44-.14.45 0 .7.2.74.6 0 .02.01.04.03.05a.3.3 0 0 0 .07 0c.06.02.1.05.1.1a2.23 2.23 0 0 1-.84 2.04.3.3 0 0 1-.07.01c-.07 0-.1.04-.1.12.01.03.04.05.08.07a.5.5 0 0 0-.3.36v.06a.1.1 0 0 0 .08.07.1.1 0 0 0 .06-.01l.83-.42.56-1.06a.3.3 0 0 0 .02-.23 3.44 3.44 0 0 1-.07-1.42.16.16 0 0 0-.06-.16.22.22 0 0 1-.05-.07.35.35 0 0 1-.04-.17c0-.4-.33-.64-.45-.93-.2-.47-.35-1-.47-1.6-.06-.28-.25-.56-.58-.83-.12-.3-.34-.6-.63-.9-.02-.2-.07-.3-.16-.31l-.96-2.22c-.07-.04-.1-.2-.07-.46.01-.11-.04-.28-.16-.5l-.65-3.45c.15-.18.33-.33.53-.45.08-.05.13-.03.16.06l.3 1.13a.1.1 0 0 1-.04.11.1.1 0 0 1-.03.02c-.04 0-.06.03-.06.07 0 .04 0 .08.02.12.12.2.22.42.3.62Z" fill="#C4CC8F"/><path d="m17.25 16 .65 3.44c-.19.25-.29.48-.29.7 0 .78 0 1.57-.02 2.36 0 .08-.04.12-.12.12h-.78a.13.13 0 0 0-.1.04.14.14 0 0 0-.03.1v7.85c-.16.27-.4.55-.75.84l.03-2.62c0-.1-.05-.14-.13-.14h-.94c-.08 0-.13-.05-.13-.14l-.03-2.76a5.15 5.15 0 0 1 .43 1.75.45.45 0 0 0 .49.42l.26-.03c.09 0 .13-.06.14-.14.06-.77.1-1.65.1-2.5-.03-1.52.04-3.03.2-4.53 0-.1-.01-.19-.05-.27a.82.82 0 0 1-.06-.44c.02-.13-.03-.16-.14-.09a.08.08 0 0 0-.04.07c.01.17-.03.19-.14.06-.14-.15-.27-.15-.4.02-.33.45-.5.97-.49 1.56a.14.14 0 0 1-.09.13h-.05a.6.6 0 0 0-.58.3c-.25.37-.4.74-.45 1.1-.06.39-.1.8-.14 1.23-.04.44.02.88.16 1.3.02.08.08.12.16.1l.28-.02-.01 2.72c0 .1-.06.15-.16.15l-.72-.03a.17.17 0 0 0-.16.1l-.01.07.06 3.96-.25.72-.3-1.16-.01-8.7c-.01-.07 0-.15.02-.23a15.8 15.8 0 0 1 4.59-7.42Z" fill="#714427"/><path d="m38.81 16.02.27.27c-.13.39-.06.86.42.86.13 0 .25-.02.38-.05.13.09.22.2.25.32 0 .16-.03.3-.07.4a.19.19 0 0 1-.2.14h-1.05c-.11 0-.17-.06-.17-.17 0-.36-.02-.75-.06-1.18a.71.71 0 0 1 .23-.6Z" fill="#C4CC8F"/><path d="m39.08 16.3.8.8a2.1 2.1 0 0 1-.38.05c-.48 0-.55-.47-.42-.86Z" fill="#C6FB72"/><path d="M31.26 18.36c.07.63.26 1.2.57 1.69l-1.8.8c-.1-.28-.25-.57-.44-.84a6.63 6.63 0 0 1-.47-.8c-.2-.4-.4-.98-.86-1.12a2.95 2.95 0 0 0-2.98.5.56.56 0 0 0-.16.23.53.53 0 0 0-.04.32.94.94 0 0 0-.84-.1c-.23.08-.42.23-.57.45a194.41 194.41 0 0 0-1 1.45.26.26 0 0 1-.21.03.26.26 0 0 1-.1-.05l-.72-.6 1.01-1.93c.32-.08.66-.34 1.04-.75a.7.7 0 0 1 .43-.22c.5-.08.98-.4 1.43-.62.98-.5 1.84-.35 2.88-.12.39.09.8.29 1.23.6.53.38 1.07.74 1.6 1.08Z" fill="#A7B771"/><path d="M37.9 17.14c.17.56.2.95.12 1.16-.43 1.07-.62 2-1.29 3.1-.16.06-.24.03-.24-.08a10.97 10.97 0 0 0 1.42-4.18Z" fill="#C4CC8F"/><path d="M18.43 17.67c.12.07.2.17.26.29.14.35.3.53.48.53l.43 1a.43.43 0 0 0-.04.33c.16.58.48 1.09.96 1.52.23.69.26 1.3.1 1.86a9.76 9.76 0 0 1-2.19-5.53Z" fill="#588588"/><path d="M36.2 20.2c.47-.4.76-1.03.89-1.89.08-.2.19-.35.3-.44.1-.08.14-.06.1.07a25.6 25.6 0 0 1-.98 2.96c-.04.1-.1.1-.17.03-.22-.23-.26-.47-.13-.74Z" fill="#fff"/><path d="M30.03 20.86c-.7.37-1.35.74-1.96 1.13a.61.61 0 0 1-.39.08.12.12 0 0 0-.1.05.12.12 0 0 0-.02.12l.1.3c-.16.5-.09 1.07.22 1.7a.1.1 0 0 0 .09.06.1.1 0 0 0 .08-.05l.25-.51.1-.01c.06.27.31.4.77.38 1.03.14 2.02.05 2.97-.28.28-.1.48-.25.6-.47.12-.2.24-.44.35-.74.55 1.68.8 3.42.76 5.22.02.1 0 .2-.04.29a.27.27 0 0 1-.19.15c-.17.04-.32.12-.46.23a9.5 9.5 0 0 0-.95.85c-.3.3-.58.54-.85.72l-.94.6c-1.27.79-2.64.96-4.1.5a.52.52 0 0 1-.34-.3 7.31 7.31 0 0 1-.51-3.71c.6-.77.97-1.49 1.1-2.16.05-.32.12-1.04.2-2.17a.88.88 0 0 1 .2-.49.29.29 0 0 0 .06-.26c-.12-.5-.39-.72-.8-.68-.83.08-1.6.2-2.3.37-.28.07-.34-.02-.18-.25.42-.64.86-1.31 1.3-2.03.04-.06.05-.18.03-.36-.02-.08 0-.2.04-.32a.56.56 0 0 1 .16-.22c.84-.71 1.84-.88 2.98-.51.46.14.67.71.86 1.11.14.27.3.54.47.8.19.28.33.57.44.86Z" fill="#C4CC8F"/><path d="m38.8 19.3-.04.03a.22.22 0 0 1-.1-.05.15.15 0 0 1-.04-.1 5.8 5.8 0 0 1-.01-1c.01-.1.07-.16.19-.16l1.07.02c.17 0 .26.1.26.27v.73c0 .16-.08.23-.23.24l-1.1.02Z" fill="#415622"/><path d="m31.26 18.36.97.56c.32.2.58.46.76.78a11.37 11.37 0 0 1 1.5 5.07c-.2.88-.28 1.76-.26 2.65a4.5 4.5 0 0 1-.15 1.46c-.27.8-.65 1.42-1.28 1.97a6.78 6.78 0 0 0-.75.8l.01.07c.05.08.1.1.16.04-.37.46-.83.8-1.37 1.03a15.4 15.4 0 0 1 1.9-2.21c.31-.29.53-.58.67-.88.25-.51.61-1.3.43-1.86.04-1.8-.2-3.54-.76-5.22a2.72 2.72 0 0 1-.25-.87c-.03-.3.06-.35.28-.14l.33.32c.13.13.16.1.1-.06A6.64 6.64 0 0 0 32.46 20a.21.21 0 0 0-.24-.07l-.39.12c-.3-.5-.5-1.06-.57-1.69Z" fill="#7D9A4C"/><path d="m22.65 18.4-1 1.93c-.24-.76.1-1.4 1-1.94Z" fill="#5F7336"/><path d="m22.45 22.02 1.64-2.51a.58.58 0 0 1 .3-.32.11.11 0 0 1 .15.08v.07c-.38.8-.83 1.61-1.34 2.42-.16.25-.4.34-.75.26Z" fill="#68788C"/><path d="m38.76 19.33.05-.03c.54 0 1.04.1 1.5.31.07.04.15.05.23.05.29-.03.44.11.46.41.02.3-.01.75-.1 1.34 0 .02-.02.04-.04.06l-2.25.1.03-1.93c0-.07.02-.13.07-.19a.2.2 0 0 0 .05-.12Z" fill="#FBF7D5"/><path d="M17.9 19.44c.12.22.17.39.16.5-.03.26 0 .42.07.46l-.08 2.07c0 .1.04.14.13.14h.92c.08.01.13.12.15.31v5a9.8 9.8 0 0 0-.87.6c-.22.17-.41.42-.56.73-.32.66-.56 1.05-1.26 1.36v-7.86c0-.03.01-.06.04-.09a.13.13 0 0 1 .09-.04h.78c.08 0 .12-.04.12-.12.02-.79.02-1.58.02-2.37 0-.21.1-.44.3-.7Z" fill="#C6FB72"/><path d="m24.09 19.5-1.64 2.52c-.1.1-.16.15-.2.16-.27.1-.32.04-.15-.2l1.72-2.44c.05-.08.14-.09.27-.03Z" fill="#C4CC8F"/><path d="M41.45 19.7c-.07.7-.07 1.15.02 1.39.19.5.6.65 1.26.45.07.08.12.2.14.36l-.95.02a.45.45 0 0 0-.42.34c-.14.55-.12 1.12.06 1.73.22.28.29.47.2.59-.46.38-.35 1.02-.32 1.54l-.02.24c0 .08.03.14.1.18.17.1.26.23.27.4 0 .09-.03.15-.1.2a.47.47 0 0 0-.2.23c-.13.64-.1 1.27.1 1.89-.2-.21-.39-.34-.55-.38l.04-1.2a.39.39 0 0 0-.07-.23c-.11-.15-.24-.3-.4-.44-.17-.17-.14-.26.1-.26.04 0 .1-.06.17-.18.1-.28.15-.57.14-.87.16-.53.06-.94-.32-1.23-.07-.05-.09-.12-.06-.2.02-.08.1-.14.21-.2.3-.83.26-1.54-.1-2.11-.18-.16-.14-.32.11-.5.02 0 .03-.03.05-.05.2-.59.21-1.22.02-1.89l.52.18Z" fill="#372C10"/><path d="M42.73 21.54c-.65.2-1.07.06-1.26-.45-.09-.24-.1-.7-.02-1.4a.48.48 0 0 1 .06-.12c.08-.09.15-.08.21.02.38.6.72 1.25 1.01 1.95Z" fill="#FBF7D5"/><path d="M14.61 25.79c-.16-.05-.3-.04-.41.02l-.28.03c-.08 0-.14-.03-.16-.1-.14-.43-.2-.87-.16-1.31.03-.43.08-.84.14-1.23.05-.36.2-.73.45-1.1a.6.6 0 0 1 .58-.3.13.13 0 0 0 .1-.03.14.14 0 0 0 .04-.1c0-.59.16-1.1.5-1.56.12-.17.25-.17.39-.02.1.13.15.1.14-.06 0-.03.01-.05.04-.07.11-.07.16-.04.14.09-.02.15 0 .3.06.44.04.08.05.18.04.27-.15 1.5-.22 3-.2 4.54.02.84-.03 1.72-.09 2.49 0 .08-.05.13-.14.14l-.27.03a.44.44 0 0 1-.44-.25.45.45 0 0 1-.04-.17 5.14 5.14 0 0 0-.43-1.75Z" fill="#6D341F"/><path d="m21.1 20.32.26 2.18a.52.52 0 0 0 0 .23c.17.03.23.17.2.44-.03.37 0 .7.17 1.04.08.16.1.32.09.51-.01.09 0 .17.03.25.19.43.3.9.33 1.4l.14 1.62-.03.6c0 .04-.02.06-.07.06h-.08c-.04 0-.07-.02-.07-.07l-.3-2.3a6.3 6.3 0 0 0-.32-2.06 1.43 1.43 0 0 1-.41-.87l-.08-.87a7.9 7.9 0 0 1-.17-2.34c.03-.37.13-.4.31-.07.03.05.03.13 0 .25Z" fill="#C4CC8F"/><path d="M33.1 22.62c-.12.3-.24.54-.35.74-.13.22-.33.38-.61.47-.95.33-1.94.42-2.97.28 1.06-.1 2.13-.1 3.14-.46a.37.37 0 0 0 .23-.24c.18-.61.17-1.18-.04-1.7-.03-.08-.09-.1-.16-.09l-.54.12a.17.17 0 0 0-.13.16l.01.07c.05.12.07.24.07.36-.06.71-.47 1.07-1.23 1.07a.15.15 0 0 1-.13-.07c-.03-.04-.03-.09-.01-.15.56.07.93-.16 1.11-.68a.26.26 0 0 0 0-.2.24.24 0 0 0-.13-.14c-.1-.04-.18-.02-.25.06a.84.84 0 0 1-.97.3.28.28 0 0 0-.18 0c-.08.03-.12.08-.12.14-.08.08-.17.1-.26.09-.04-.01-.06-.04-.06-.09v-.07c-.02-.07-.07-.09-.13-.06-.53.2-.86.6-1 1.2l-.09.01c-.03-.26.02-.52.15-.78.45-.93 3.07-1.45 4.04-1.55a.1.1 0 0 0 .08-.07.1.1 0 0 0-.03-.1c-.45-.4-.83-.37-1.4-.15l-3.48 1.46-.1-.31a.12.12 0 0 1 .02-.12.12.12 0 0 1 .1-.05.6.6 0 0 0 .38-.08c.62-.39 1.28-.76 1.97-1.13l1.8-.81.4-.12c.09-.03.17-.01.23.07.45.53.81 1.16 1.09 1.87.06.17.03.2-.1.06l-.33-.32c-.22-.21-.31-.16-.28.14.04.3.12.6.25.87Z" fill="#040405"/><path d="m21.1 20.32 1.07 1.02c.06.06.08.13.04.21-.2.43-.48.75-.85.95l-.25-2.18Z" fill="#505E78"/><path d="m18.13 20.4.96 2.22h-.9c-.1-.01-.14-.06-.14-.15l.08-2.07Z" fill="#714427"/><path d="M34.9 25.44c0-.46-.22-.84-.28-1.3a4.9 4.9 0 0 1 .73-3.42c.06-.09.14-.17.23-.22.22-.13.35-.07.38.18.12.8.16 1.62.13 2.47a5.4 5.4 0 0 1-1.13 2.9.1.1 0 0 1-.09 0 .1.1 0 0 1-.03-.03.29.29 0 0 1 0-.32.5.5 0 0 0 .06-.26Z" fill="#A7B771"/><path d="m28.3 23.74-.25.51a.09.09 0 0 1-.08.05.1.1 0 0 1-.08-.05c-.32-.64-.39-1.21-.23-1.7l3.49-1.46c.56-.22.94-.25 1.4.15a.1.1 0 0 1 .02.1.1.1 0 0 1-.08.07c-.96.1-3.59.62-4.04 1.55-.13.26-.18.52-.15.78Z" fill="#7D9A4C"/><path d="M36.49 21.32c0 .11.08.14.24.08 0 .03-.02.06-.04.1-.06.05-.05.09.03.1.07 0 .13.02.19.05.1.05.13.13.1.24a.5.5 0 0 1-.16.27.86.86 0 0 0-.46.77c-.01-.43-.04-.84-.08-1.24a.37.37 0 0 1 .02-.2.34.34 0 0 1 .16-.17Z" fill="#8B8B8B"/><path d="M40.86 21.47c-.25.17-.29.33-.12.49l-3.2-.04c-.1-.1-.08-.18.05-.27.04-.03.1-.05.15-.05l.87-.04 2.25-.1Z" fill="#7D9A4C"/><path d="m25.51 25.47-.24-1.18a.16.16 0 0 1 .1-.18c.68-.19.65-1.04.65-1.59a.18.18 0 0 0-.07-.15.17.17 0 0 0-.17-.01c-.48.19-.8.1-.94-.28a.24.24 0 0 1 .09-.29.24.24 0 0 1 .1-.04l1.26-.16a.33.33 0 0 1 .37.28c.01.06 0 .12-.02.17-.12.32-.34.56-.34.92 0 .9-.16 1.75-.45 2.54-.14.37-.25.36-.34-.03Z" fill="#68788C"/><path d="M29.17 24.11c-.46.01-.71-.11-.77-.38.13-.6.46-1 .99-1.2.06-.03.1 0 .13.06v.07c0 .05.02.08.07.09.08.02.17-.01.26-.1.24-.05.4-.01.5.13.04.08.06.22.03.4-.02.06-.02.11.01.15.04.05.08.07.13.07.76 0 1.17-.36 1.23-1.07a.73.73 0 0 0-.07-.36.17.17 0 0 1 .12-.23l.54-.12c.07-.02.13.01.16.09.21.52.22 1.09.04 1.7a.37.37 0 0 1-.23.24c-1 .37-2.08.36-3.14.46Z" fill="#fff"/><path d="m24.86 25.69-.11-.46c-.02-.1-.08-.14-.17-.14-.56-.04-1.15-.12-1.77-.24-.11-.03-.15.02-.1.13.17.34.1.66-.18.96-.2-.03-.3-.18-.29-.46.01-.28.26-.48.24-.72-.02-.36-.09-.5-.18-.4a.39.39 0 0 0-.25-.14c-.14-.12-.2-.21-.21-.3.06.11.1.01.16-.28.05.07.06.15.03.24v.07l.06.06c.05.03.09.01.1-.05.04-.2.07-.4.09-.61.02-.2-.04-.3-.19-.34l-.03-.1c-.02-.08 0-.14.06-.18.41-.28.83-.38 1.25-.3.05 0 .09 0 .12-.04.08-.08.07-.14-.02-.2l-.12-.07c.14-.06.3-.09.45-.06.09 0 .15.05.18.14.04.08.07.17.08.26.01.1-.03.17-.13.19l-1.2.27a.2.2 0 0 0-.16.17c-.06.37-.03.66.1.9a.7.7 0 0 0 .58.4c.28.02.56 0 .83-.05.08-.02.14 0 .18.06.06.07.09.18.07.3l.01.03.07.03c.03.03.06.02.07-.03.07-.33.06-.63-.02-.9-.19-.57-.16-1.07-.3-1.62-.04-.16.01-.27.16-.32l.08-.02c.12-.04.18 0 .2.12.12.8.23 1.6.33 2.42.02.18.08.38.17.6.21.5.13.72-.24.68Z" fill="#68788C"/><path d="m37.53 21.92 3.22.04c.36.57.4 1.28.1 2.11l-3.37.1.05-2.25ZM42.87 21.9l.72 2.22c-.7.12-1.38.07-2.03-.13-.18-.6-.2-1.18-.06-1.73a.46.46 0 0 1 .42-.34l.95-.02Z" fill="#FBF7D5"/><path d="m23.35 22.12.12.07c.1.06.1.12.02.2a.13.13 0 0 1-.12.04c-.42-.08-.84.03-1.25.3-.06.04-.08.1-.06.17l.03.11c-.1.15-.12.36-.1.63-.04.3-.1.4-.15.29l-.08-.98c0-.06-.03-.08-.09-.05-.05.02-.1.11-.11.27.03-.27-.03-.41-.2-.44a5.57 5.57 0 0 1 1.99-.6Z" fill="#fff"/><path d="M30.38 23.18c.03-.18.01-.32-.04-.4-.08-.14-.25-.18-.5-.12 0-.06.04-.1.13-.14a.28.28 0 0 1 .17 0c.39.12.7.02.97-.3.07-.08.15-.1.25-.06.06.03.1.07.13.13.03.07.03.14 0 .2-.18.53-.55.76-1.11.69Z" fill="#714427"/><path d="M36.84 22.16c.28.49.33 1.05.17 1.69a.15.15 0 0 1-.1.1l-.08.02a.53.53 0 0 0-.14-.25c-.07-.06-.11-.05-.14.04a7.79 7.79 0 0 1-.9 2.19.13.13 0 0 0 .03.1c.02.02.03.03.05.03l.85.28c.09.03.12 0 .1-.1 0-.03-.03-.07-.08-.12l.12-1.35c.26-.2.48-.3.65-.3.91.03 1.83.04 2.75.03.68 0 .98.39.9 1.18.01.3-.03.6-.14.87l-.33.14a.14.14 0 0 1-.05 0l-3.34.02c-.1 0-.12.04-.05.11l.16.16c.07.08.17.11.27.12l2.8-.01a.66.66 0 0 1 .67.69l-.03 1.02c-.12.24-.28.37-.49.4-.52.05-1.03.08-1.54.07a.16.16 0 0 0-.15.13c-.04.18-.11.27-.21.28-.17-.4-.34-.8-.53-1.2a4.18 4.18 0 0 0-2.75-2.34c-.08-.03-.1-.07-.05-.14a5.95 5.95 0 0 0 1.13-3.1c.02-.35.17-.6.45-.76Z" fill="#FBF7D5"/><path d="m25.17 23.77-.18-.95a.22.22 0 0 1 .1-.24.22.22 0 0 1 .1-.02l.4-.04a.22.22 0 0 1 .23.14v.1l-.08.86c0 .05-.02.1-.06.13l-.14.14a.22.22 0 0 1-.37-.12ZM22.95 24.01c.12-.15.12-.45-.03-.9.34-.21.66-.31.97-.3.1 0 .15.05.18.15l.22.85a.25.25 0 0 1-.18.3c-.42.09-.8.06-1.16-.1Z" fill="#B35C43"/><path d="M19.25 22.92c.3.3.5.6.63.91l.02 3.56c-.16.19-.37.37-.64.52l-.01-4.99Z" fill="#5F7336"/><path d="M22.1 23.01c.14.04.2.15.18.34l-.09.61c-.01.06-.05.08-.1.05a.13.13 0 0 1-.05-.06.09.09 0 0 1-.01-.07.27.27 0 0 0-.03-.24c-.03-.27 0-.48.1-.63Z" fill="#505E78"/><path d="M22.92 23.1c.15.46.15.76.03.91-.22-.11-.3-.35-.24-.73.03-.2.1-.26.21-.17Z" fill="#C4CC8F"/><path d="M12.64 23.65v8.69a15.9 15.9 0 0 1-.2-8.18c.04-.18.1-.35.2-.51ZM19.88 23.83c.33.27.52.55.58.84.12.6.28 1.12.47 1.59.12.3.45.54.45.93 0 .06 0 .12.04.17 0 .03.03.05.05.07.05.05.07.1.06.16-.07.49-.05.96.07 1.42a.3.3 0 0 1-.02.23l-.56 1.06-.67-.06c-.04-.02-.07-.04-.07-.07-.01-.08.02-.12.1-.12a.3.3 0 0 0 .06 0l.03-.02c.62-.54.9-1.22.8-2.02 0-.06-.03-.1-.1-.1l-.06-.01c-.02-.01-.03-.03-.03-.05-.04-.4-.29-.6-.74-.6a.65.65 0 0 0-.44.14l-.02-3.56Z" fill="#C6FB72"/><path d="M41.56 23.99c.65.2 1.32.25 2.03.13l.08.42-1.9.04c.08-.12.01-.31-.2-.6ZM40.85 24.07c-.12.06-.2.12-.21.2-.03.08 0 .15.06.2.38.29.48.7.32 1.23.08-.8-.22-1.18-.9-1.18-.92 0-1.84 0-2.75-.02-.17 0-.39.09-.65.29.03-.12.1-.22.22-.3.1-.07.11-.16.03-.26l.5-.07 3.38-.09Z" fill="#7D9A4C"/><path d="M21.45 24.22c.23.72.33 1.4.31 2.07a.77.77 0 0 0-.04-.36c-.06-.14-.1-.13-.12.02l-.02.07c-.05.12-.11.12-.17 0a2.45 2.45 0 0 1-.3-.8c.13-.2.18-.5.16-.86l.11.01c.06.02.08 0 .08-.06v-.09Z" fill="#8B8B8B"/><path d="M22.05 24.22c.1 0 .17.05.25.13.01.33-.03.56-.13.71-.06.1-.1.08-.12-.02-.05-.2-.05-.47 0-.82Z" fill="#fff"/><path d="m43.67 24.54.3 2.15c-.79.1-1.48.08-2.1-.04-.21-.05-.36-.22-.43-.53-.03-.52-.14-1.16.32-1.54l1.91-.04Z" fill="#FBF7D5"/><path d="m36.72 24.79-.12 1.35c-.16-.5-.12-.96.12-1.35Z" fill="#7D9A4C"/><path d="M24.86 25.69c-.11 0-.17-.07-.16-.22 0-.06-.02-.1-.06-.13-.01-.02-.03-.02-.06-.01-.03 0-.03.03-.01.05a.2.2 0 0 1 .06.2.17.17 0 0 1-.13.13c-.14.05-.3.07-.45.06a.6.6 0 0 0-.26.05c-.37.15-.8.2-1.26.12.29-.3.35-.62.18-.96-.05-.11-.01-.16.1-.13.62.12 1.2.2 1.77.24.1 0 .15.05.17.14l.1.46Z" fill="#505E78"/><path d="M34.48 24.77c.09.63.14 1.46.16 2.48.01.87-.13 1.64-.43 2.3a6.49 6.49 0 0 1-1.99 2.2c-.05.07-.1.05-.16-.03a.12.12 0 0 1 .02-.14c.2-.25.45-.5.72-.73a4.27 4.27 0 0 0 1.28-1.97c.11-.33.16-.82.15-1.46-.02-.89.07-1.77.25-2.65Z" fill="#C6FB72"/><path d="M26.43 26.74c.35.65 1 .9 1.93.76-.43.56-1.49.15-1.94-.17a.54.54 0 0 1-.12-.76c.25-.36.46-.75.62-1.17.02-.05.06-.07.1-.05l.07.03c.04.01.05.04.04.08-.17.47-.4.9-.7 1.28Z" fill="#415622"/><path d="m14.61 25.79.03 2.76c0 .09.05.13.13.13l.94.01c.08 0 .13.05.13.14l-.03 2.62c-.67.5-1.54.94-2.61 1.33l-.06-3.96a.17.17 0 0 1 .1-.16h.07l.72.02c.1 0 .16-.05.16-.15v-2.72c.12-.06.26-.07.42-.02Z" fill="#C6FB72"/><path d="M24.48 27.45c-.19-.06-.33-.13-.4-.19l-.58-.22-.41-.22a.83.83 0 0 0-.63-.48.02.02 0 0 1 0-.02v-.07c.02-.06.05-.09.11-.08.46.05.9.01 1.33-.1a5.26 5.26 0 0 1 1.68-.14.17.17 0 0 1 .03.25l-1.13 1.27Z" fill="#68788C"/><path d="M41.44 26.12c.07.3.22.48.43.53.61.12 1.31.13 2.1.04l.03.46a4.7 4.7 0 0 0-2.5.22.47.47 0 0 1 .19-.23c.07-.05.1-.11.1-.2 0-.17-.1-.3-.27-.4a.18.18 0 0 1-.1-.18l.02-.24Z" fill="#7D9A4C"/><path d="M22.18 26.37a2.48 2.48 0 0 1 .79.6.1.1 0 0 0 .12-.03c.03-.04.03-.09 0-.12l.4.22c-.05.27-.19.41-.41.44a.42.42 0 0 0-.22.08l-.54.43-.14-1.62Z" fill="#505E78"/><path d="M36 26.66a.18.18 0 0 0-.07.15l-.26-.09-.55-.16c-.05-.08-.06-.14-.01-.18.03-.03.08-.04.14-.03.28.04.53.14.75.3Z" fill="#713885"/><path d="m35.12 26.56.55.16-.15.02c-.08.01-.09.04-.02.09.28.17.52.38.75.62a6.44 6.44 0 0 1 1.65 5.6c-.03.09-.09.13-.18.12l-1-.14a.26.26 0 0 1-.2-.16c-.28-.73-1.32-.82-1.42.04a.19.19 0 0 1-.18.16h-.18c-.13 0-.18-.06-.17-.18.05-.58.18-1.1.38-1.59a.37.37 0 0 0-.2-.49.36.36 0 0 0-.2-.02c-.23.04-.47.05-.7.02-.13-.01-.17-.08-.1-.2l.65-1.04a.46.46 0 0 0 .07-.19c.03-.26.21-.4.26-.64.1-.56.14-1.13.1-1.7a.3.3 0 0 1 .07-.23l.22-.25Z" fill="#391046"/><path d="M40.88 26.57c-.07.12-.13.18-.17.18-.24 0-.27.09-.1.26.16.14.29.29.4.44.04.07.07.15.07.23l-.04 1.2c.06.1.05.14-.05.13l-.01-.2.03-1.01a.67.67 0 0 0-.41-.64.66.66 0 0 0-.26-.05h-2.8c-.1 0-.2-.03-.27-.1l-.16-.17c-.07-.07-.06-.1.05-.1l3.34-.02.05-.01.33-.14ZM26.43 26.74c.5.19.83.26.99.22a3.84 3.84 0 0 1 1.15-.1.24.24 0 0 1 .15.23c-.01.22-.13.36-.36.4-.94.15-1.58-.1-1.93-.75Z" fill="#7D9A4C"/><path d="M36 26.66c1.37.73 2.19 2.38 2.5 3.86-.1.02-.24-.1-.4-.33-.37-1.2-1.1-2.66-2.17-3.38 0-.07.03-.12.07-.15Z" fill="#fff"/><path d="M25.47 27.17a7.31 7.31 0 0 0 .51 3.71.52.52 0 0 0 .34.3c1.46.46 2.83.29 4.1-.5l.94-.6c.27-.18.56-.42.85-.72.28-.29.6-.57.95-.85.14-.11.29-.19.46-.23a.27.27 0 0 0 .2-.15.51.51 0 0 0 .03-.3c.18.57-.18 1.36-.43 1.87-.14.3-.36.59-.66.88-.7.66-1.33 1.4-1.9 2.21l-1.42 1.1a.6.6 0 0 1-.55.1l-2.83-.93a.27.27 0 0 1-.18-.2c-.07-.39-.3-.63-.4-1.03-.21-.97-.35-1.82-.4-2.52-.05-.5-.13-1-.25-1.45a.36.36 0 0 1 .02-.24.77.77 0 0 1 .62-.45Z" fill="#A7B771"/><path d="m44 27.15-.03 2.05c0 .09-.05.14-.13.15-.8.14-1.55.1-2.25-.1a3.62 3.62 0 0 1-.1-1.88 4.7 4.7 0 0 1 2.51-.22Z" fill="#FBF7D5"/><path d="M24.07 27.26c.08.06.22.13.41.19-.36.18-.64.37-.83.6a.34.34 0 0 0-.1.22c0 .29.02.56.08.8 0 .03.02.05.05.05.05 0 .07-.02.07-.07v-.98c0-.06.04-.1.1-.1h.11a.1.1 0 0 1 .1.12c0 .15 0 .28.03.4.04.16.07.16.1 0 .03-.19.04-.37.03-.55l.6 3.93c.02.05 0 .07-.05.07a.1.1 0 0 1-.06-.02 1.42 1.42 0 0 0-.25-.35.29.29 0 0 0-.2-.09.24.24 0 0 0-.2.1.11.11 0 0 1-.1.04.1.1 0 0 1-.09-.06l-.14-.3a.23.23 0 0 0-.09-.1c-.12-.08-.22-.06-.31.04a.24.24 0 0 1-.16-.1.23.23 0 0 1-.04-.14 13.7 13.7 0 0 0-.07-1.7c-.03-.25.03-.5.17-.74.08-.13.06-.24-.07-.32-.1-.07-.1-.14-.01-.21l.92-.73Z" fill="#505E78"/><path d="M20.6 27.99a.8.8 0 0 0-.59.28.26.26 0 0 0-.06.22c.04.3-.04.55-.25.74l-.8.74a.26.26 0 0 0-.08.23.8.8 0 0 1-.1.51c-.34 0-.64-.09-.92-.25-.08-.05-.1-.11-.03-.2.24-.31.42-.66.55-1.03a.4.4 0 0 1 .16-.2l1.86-1.25c.06-.05.12-.04.18.02.03.04.06.1.08.19Z" fill="#C4CC8F"/><path d="M25.26 31.97c-.14 0-.24.1-.3.3l-.37-.15c.1-.02.13-.09.12-.2a.1.1 0 0 0 .06.02c.04 0 .06-.02.06-.07l-.61-3.93a.6.6 0 0 1 .12-.2.12.12 0 0 1 .2.07l.72 4.16Z" fill="#68788C"/><path d="M20.6 27.99c.3.66.07 1.41-.63 1.66-.24.09-.45.2-.65.32-.1.07-.1.13 0 .2a.1.1 0 0 0 .07 0 .1.1 0 0 0 .07-.03.22.22 0 0 1 .14-.09c.14-.02.18.04.11.16l-.3.56a.19.19 0 0 1-.18.1c-.2 0-.37-.06-.52-.16a.8.8 0 0 0 .1-.51c0-.1.03-.17.1-.23l.8-.74c.2-.2.28-.44.24-.74a.26.26 0 0 1 .06-.22.8.8 0 0 1 .6-.28Z" fill="#7D9A4C"/><path d="M30.07 28.73c.32 0 .62-.14.9-.43.15-.17.19-.15.1.07-.17.38-.44.57-.83.58-1.26.02-2.43.2-3.52.52-.04.01-.08 0-.1-.05l-.01-.06a9.9 9.9 0 0 1 3.46-.63Z" fill="#415622"/><path d="m40.98 28.82.01.2-.32.4c-.06.07-.04.1.04.12 1.05.18 2.06.2 3.03.09.1-.01.14.03.15.12.05.34 0 .63-.13.87l-1.35-.1c-.06-.01-.07-.04-.04-.09.02-.03.02-.06-.01-.1a.21.21 0 0 0-.16-.06l-2.82-.04 3.14-.08c.12 0 .19-.07.21-.18l.02-.07a.1.1 0 0 0-.02-.08.09.09 0 0 0-.08-.03c-1.34.18-2.58.24-3.72.2-.12-.01-.19.02-.21.1l-.13-.39c.1 0 .17-.1.2-.28a.16.16 0 0 1 .16-.13c.5.01 1.02-.02 1.54-.07.21-.03.37-.16.49-.4Z" fill="#8B8B8B"/><path d="M22.18 33.77c-.44-.28-.63-.55-.57-.83l-.29-1.3c-.03-.11-.09-.14-.2-.07l-.68.47a.12.12 0 0 1-.15 0 .61.61 0 0 1-.2-.23c.16-.16.34-.3.53-.43.3-.19.4-.34.33-.46.12.04.21.05.3 0 .05-.02.1-.09.14-.2a6.4 6.4 0 0 1 .74-1.49c.04-.05.08-.06.13-.03l.13.06c.06.03.07.07.03.12-.31.36-.5.72-.59 1.08-.2.87-.08 1.98.35 3.3Z" fill="#713885"/><path d="M22.63 35.42c-.1-.04-.16 0-.19.14-.02-.03-.09-.03-.2 0-.1-.5-.23-1.01-.36-1.52-.07-.25-.24-.38-.53-.4.24-.16.33-.4.26-.7-.06.28.13.55.57.83.02-.56-.06-1-.23-1.31a.5.5 0 0 1-.05-.25c.02-.53-.05-1.44.22-1.9.1-.15.17-.3.25-.44.28-.5.44-.46.46.11.02.48.18 1.04.47 1.66.12.27.4.41.66.5a.22.22 0 0 1 .14.17.22.22 0 0 1-.08.21c-.12.09-.2.2-.28.34a.18.18 0 0 0 .04.22l.75.8a.23.23 0 0 1 0 .3l-.32.4a.33.33 0 0 1-.22.11c-.5.05-.95.04-1.38 0-.1-.02-.13.02-.11.11l.13.62Z" fill="#391046"/><path d="m27.68 30 .99-.24c.2-.05.22 0 .06.12-.23.2-.78.43-1.07.2a.05.05 0 0 1-.01-.04.05.05 0 0 1 .03-.04Z" fill="#8B8B8B"/><path d="m39.38 30.23-.48.03c-.04.01-.1-.04-.18-.17.02-.08.09-.11.21-.1a21.26 21.26 0 0 0 3.76-.2l.04.03a.1.1 0 0 1 .02.08l-.02.07c-.02.11-.1.17-.2.18l-3.15.08Z" fill="#fff"/><path d="M38.1 30.19c.16.24.3.35.4.33a8.6 8.6 0 0 1 .1 3.83c-.04.11-.09.19-.14.22-.09.05-.14.03-.16-.07l-.15-.89a9.78 9.78 0 0 0-.05-3.42Z" fill="#BC65D1"/><path d="m20.35 30.24.66.06-.82.42a.1.1 0 0 1-.11-.01.1.1 0 0 1-.04-.1.5.5 0 0 1 .3-.37Z" fill="#714427"/><path d="m38.9 30.26.48-.03 2.82.04c.06 0 .12.02.16.07.03.03.03.06.01.1-.03.04-.02.07.04.07l1.35.1-2.65.07a.08.08 0 0 0-.08.05l-.03.08c-.01.02 0 .03.02.03l2.48.09c.17 0 .24.1.2.26l-.13.59-1.8-.1a.11.11 0 0 0-.1.06.11.11 0 0 0 .01.12l1.35 1.68c.02.2-.06.33-.26.42a.57.57 0 0 1-.73-.25.71.71 0 0 0-.75-.38.59.59 0 0 1-.33-.05c-.18-.1-.38-.2-.59-.22a1.92 1.92 0 0 1-1.2-.5.32.32 0 0 1-.12-.22l-.15-2.08Z" fill="#402616"/><path d="m20.32 32.67-1.87-.07a4.7 4.7 0 0 0-1.58-1.11c-.2-.08-.23-.2-.08-.35l.3-.3a.6.6 0 0 1 .65-.16l1.75.56a.3.3 0 0 1 .19.16l.64 1.27Z" fill="#A7B771"/><path d="M20.95 30.92c.08.12-.04.27-.33.46-.2.12-.37.27-.53.43-.19-.39.1-.69.86-.89Z" fill="#C4CC8F"/><path d="M35.64 35.18 34.8 35a.39.39 0 0 1-.23-.14l-.91-1.09c-.53-.61-1.14-.66-1.81-.14h-.02l-.04-.06c-.02-.05 0-.08.04-.1a5.26 5.26 0 0 0 1.1-.68.1.1 0 0 0 0-.1.1.1 0 0 0-.02-.03.2.2 0 0 0-.12-.04l1.62-1.17a.19.19 0 0 0 .08-.19l-.03-.1c0-.07.02-.12.09-.14l.1-.02a.1.1 0 0 1 .12.05c.02 0 .02.02.02.04a.8.8 0 0 1-.36.75 11.59 11.59 0 0 1-1.05.7v.06l.04.06c0 .01.01.02.03 0l.88-.55c.1-.07.14-.04.12.08a6.97 6.97 0 0 0 .07 2.4h.07c.02-.01.03-.03.03-.05l-.09-1.22c0-.1.04-.16.14-.17.12-.02.24 0 .36.04.08.04.13.1.16.18l.45 1.8Z" fill="#31535E"/><path d="M24.71 31.92c.01.11-.03.18-.11.2a1.47 1.47 0 0 0-.84-.38.33.33 0 0 1-.22-.1.84.84 0 0 1-.21-.44c.09-.1.2-.11.31-.04.04.03.07.06.09.1l.14.3a.1.1 0 0 0 .14.05c.02 0 .03-.01.04-.03.06-.07.13-.1.21-.1.08 0 .15.03.2.09.1.1.18.22.25.35Z" fill="#fff"/><path d="M34.04 31.2c.26-.06.3.01.12.2l-.4.44c-.18.19-.3.16-.36-.09-.07-.26.14-.45.64-.55Z" fill="#31535E"/><path d="M33.29 32.09a.11.11 0 0 1-.06.14l-2.4 1.09a.35.35 0 0 0-.2.4c.02.13.03.28 0 .42a.2.2 0 0 1-.14.17.2.2 0 0 1-.07 0c-.48-.07-.94 0-1.38.19a.1.1 0 0 1-.1-.01.1.1 0 0 1-.05-.1c0-.03 0-.06.04-.09a.1.1 0 0 1 .05-.02c.6-.03.89-.54 1.36-.82.97-.6 1.85-1.3 2.65-2.11a.3.3 0 0 1 .15-.09c.07-.02.1 0 .1.04v.1c-.05.24-.03.48.05.69Z" fill="#5F7336"/><path d="M17.53 32.13c-.16.16-.42.13-.78-.07a.25.25 0 0 0-.22-.01c-.4.16-.72.42-.96.77a.85.85 0 0 1-.4-.13c-.09-.06-.09-.12 0-.18l1.2-.82a.22.22 0 0 1 .24-.02l.92.46Z" fill="#C4CC8F"/><path d="m43.57 31.78-.54 1.76-1.35-1.68a.11.11 0 0 1 .1-.18l1.8.1Z" fill="#714427"/><path d="M20.57 32.57c-.1-.21-.06-.39.13-.53.12-.09.25-.15.38-.18.16-.05.24.02.23.19-.02.32 0 .6.07.83.03.14.04.25 0 .32a.39.39 0 0 1-.2.18.2.2 0 0 1-.25-.09l-.36-.72Z" fill="#402616"/><path d="M17.53 32.13c.43.32.74.63.92.92.14.23.34.78.6 1.64a3.23 3.23 0 0 0-1.55-.57c-.2-.47-.36-.73-.88-.88a6.58 6.58 0 0 1-1.05-.42c.24-.35.56-.61.96-.77a.25.25 0 0 1 .22.01c.36.2.62.23.78.07Z" fill="#A7B771"/><path d="m25.26 31.97.35.8v.04a.09.09 0 0 1-.05.07h-.05c-.33-.1-.52-.3-.55-.6.06-.22.16-.32.3-.3Z" fill="#fff"/><path d="M36.23 37.23c-.13-.62.02-1.2-.2-1.81-.28-.79-.5-1.6-.65-2.43-.05-.22.04-.36.24-.44a.33.33 0 0 1 .18-.02c.3.06.49.23.56.52.19.78.32 1.7.4 2.73.04.65-.06 1.3-.32 1.92-.06.14-.1.14-.15 0-.03-.15-.03-.32-.06-.47Z" fill="#505E78"/><path d="m18.45 32.6 1.87.07.54 1.07c-.4-.06-.66.02-.77.24-.07.06-.16.05-.27-.02a4.1 4.1 0 0 1-1.37-1.36Z" fill="#5F7336"/><path d="M32.8 32.62a.2.2 0 0 1 .1.04.1.1 0 0 1 .04.13 5.26 5.26 0 0 1-1.1.68c-.06.02-.07.05-.05.1l.03.05v.01h.03c.67-.52 1.28-.47 1.81.14.31.36.62.72.91 1.09.06.07.14.12.23.14l.84.18c.19.53.27 1.08.24 1.63 0 .08-.05.13-.13.15-.92.2-1.85.54-2.78 1.04-.22.15-.56.3-1.02.41-.08.02-.14 0-.18-.08a.16.16 0 0 1 0-.13.16.16 0 0 0-.08-.2.16.16 0 0 0-.07-.02h-.11a.29.29 0 0 1-.29-.25c-.02-.2.01-.38.1-.55.1-.21.15-.44.16-.67 0-.2-.07-.27-.23-.23-.05.02-.1 0-.14-.04a.23.23 0 0 1-.04-.07c-.03-.06-.01-.11.05-.15.27-.16.26-.3-.06-.43.05-.03.14-.06.28-.07.15 0 .16-.05.03-.12a.4.4 0 0 0-.42.02c-.44.29-.57.18-.37-.3.07-.18.17-.33.3-.45.05-.05.08-.1.08-.17.01-.23-.04-.43-.15-.61a.26.26 0 0 1 .02-.31.26.26 0 0 1 .1-.07l1.86-.89Z" fill="#426971"/><path d="m14.38 34.2-.1-.06c-.07-.04-.13-.03-.17.04-.19.25-.39.43-.61.54l-.35-.8c-.05-.1-.03-.18.05-.25l.98-.81a.39.39 0 0 1 .36-.08l2.27.7a.3.3 0 0 1 .17.13l.72 1.17a.26.26 0 0 1-.08.35c-.64.4-1.24-.1-1.6-.62a.26.26 0 0 0-.18-.12l-1.46-.2Z" fill="#A7B771"/><path d="M40.7 33.4a1.4 1.4 0 0 0-.12.84l-.02-.15-1.43-.59-.05-.57c-.01-.1.02-.12.1-.06.41.3.92.48 1.52.52Z" fill="#BC65D1"/><path d="m39.13 33.5 1.43.59a11.4 11.4 0 0 1-.58 2.67c-.21.42-.76.67-1.64.75l.69-1.95c.17-.5.2-1.13.06-1.92 0-.08 0-.13.04-.14Z" fill="#532264"/><path d="m40.7 33.4.2 1.05c.08.26.06.46-.06.6-.23.18-.31-.1-.26-.81-.04-.33 0-.61.11-.85Z" fill="#fff"/><path d="m41.5 33.58.36 2.06c0 .04.02.06.05.07l.07-.01c.03.05.02.1-.01.17a16.13 16.13 0 0 1-5.94 5.99c.28-.7.57-1.25.87-1.66.64-.86 1.11-1.76 1.44-2.69.88-.08 1.43-.33 1.64-.75.18-.36.37-1.25.58-2.67l.02.15c-.05.71.03.99.26.81-.13.9-.23 1.5-.28 1.79-.21 1.25-.1 1.28.35.09.25-.66.35-1.5.3-2.53a.71.71 0 0 1-.14-.68.24.24 0 0 1 .15-.17c.11-.04.2-.03.27.03ZM38.15 33.61l.15.89c.02.1.07.12.16.07.05-.03.1-.1.15-.22v.21c-.33 1.17-.56 2.4-1.03 3.5a11.68 11.68 0 0 1-2.18 3.13c-.19.22-.26.52-.46.73-.07.07-.14.08-.21.02l-.36-.26A58.03 58.03 0 0 0 36.6 38c.46-.94.98-2.4 1.56-4.38Z" fill="#713885"/><path d="M41.5 33.58c.25.01.4.24.42.7-.02.26.02.53.11.8l-.05.62c0 .02-.03.02-.07 0-.03 0-.05-.02-.05-.06l-.37-2.06Z" fill="#fff"/><path d="M21.35 33.64c.29.02.46.15.53.4.13.5.25 1.01.36 1.52l.25.8c.03.1.02.18-.02.27-.36.72-.72 1.46-1.08 2.24-.46 1.04-1.46 1.6-2.32 2.2-.09.07-.17.07-.25 0l-1.35-1.05c.46-.4.75-.88.9-1.44.15-.6.02-1-.39-1.16.13-.26.28-.36.46-.33l.55 1.06c.1.18.06.34.2.52.09.11.2.18.35.2.15.02.3.06.43.11a.29.29 0 0 0 .37-.15.3.3 0 0 0 .02-.14l-.1-1.05.65-.73c.02-.02.03-.05.01-.07a.07.07 0 0 0-.06-.03c-.85-.9-.23-2.41.49-3.17Z" fill="#A7B771"/><path d="M28.46 34.67c-.25-.3-.63-.46-1.15-.46-.33-.09-.7-.1-1.13-.05-.1 0-.14.06-.14.16.02.58.23 1.08.23 1.66 0 .36-.02.72-.04 1.08 0 .09-.05.11-.14.08l-.14-.07c-.05-.02-.09-.01-.12.03-.02.03-.02.06 0 .1a.1.1 0 0 1 0 .07.1.1 0 0 1-.04.05c-.2.14-.27.4-.23.78-.53.18-.76-.2-.68-1.16 0-.07.04-.14.1-.2.21-.22.42-.5.6-.88a.97.97 0 0 0 .02-.8 2.66 2.66 0 0 0-.6-1.01c-.36-.35-.3-.45.17-.28.53.18 1.06.24 1.58.17.08 0 .11-.05.1-.12-.02-.1.03-.15.13-.14.89.14 1.4.28 1.54.4.13.12.11.31-.06.59Z" fill="#31535E"/><path d="M39.1 33.64c.12.79.1 1.43-.07 1.92l-.7 1.95c-.31.93-.8 1.83-1.43 2.69-.3.41-.6.96-.87 1.66 0 .05-.02.07-.08.09a.13.13 0 0 1-.16-.07.09.09 0 0 0-.04-.05l-.04.01a3.3 3.3 0 0 1-1.8 1.02c-.05.01-.06 0-.05-.05l.51-1.13.36.26c.07.06.14.05.2-.02.21-.2.28-.51.47-.73.86-.98 1.65-1.88 2.18-3.13.47-1.1.7-2.33 1.03-3.5-.05.2-.06.32-.05.37.07.24.14.24.2-.01l.33-1.28Z" fill="#391046"/><path d="m19.14 33.74.75.55.02.02a.06.06 0 0 1-.04.08c-.5.17-.78-.02-.86-.57a.08.08 0 0 1 .04-.08.08.08 0 0 1 .09 0Z" fill="#714427"/><path d="M20.86 33.74c-.07.25-.33.33-.77.24.11-.22.37-.3.77-.24Z" fill="#A7B771"/><path d="m14.38 34.2-.23.86c-.03.08 0 .13.1.14.02 0 .05 0 .07-.02a.13.13 0 0 0 .06-.08 5 5 0 0 1 .13-.47c.03-.1.1-.14.2-.1.32.11.65.16.97.15.1 0 .18.03.27.08.05.03.09.08.12.13.07.14.03.2-.12.18a.3.3 0 0 0-.16.02c-.08.03-.08.06 0 .08l1.52.34a.19.19 0 0 0 .2-.08c.06-.09.16-.1.28-.05l.08.07c.3.4.7.65 1.16.73.1.01.19.07.24.15.27.35.44.72.5 1.12.03.15.06.15.12 0a.55.55 0 0 0-.03-.44.35.35 0 0 1 .05-.38.34.34 0 0 1 .1-.08c.3-.15.51-.06.65.25.03.05.08.07.14.05.02 0 .04-.02.06-.04.03 0 .05 0 .06.03.01.02.01.05 0 .07l-.66.73c-.06.34-.07.63-.01.9.04.23 0 .25-.13.05-.1-.16-.2-.33-.27-.51.02-.16.04-.28.07-.36.02-.06.01-.07-.02-.01a.19.19 0 0 1-.06.06c-.05.03-.1.03-.15-.01a.22.22 0 0 1-.07-.2.24.24 0 0 0-.07-.21c-.21-.2-.45-.32-.71-.36-.43-.06-.8-.27-1.1-.63a.3.3 0 0 0-.28-.1 1.98 1.98 0 0 1-1.68-.5.65.65 0 0 0-.32-.16c-.12-.03-.2.01-.24.13-.04.1-.1.13-.2.1l-1.18-.43-.34-.68c.22-.1.42-.29.6-.54.05-.07.1-.08.18-.04l.1.06Z" fill="#415622"/><path d="M17.5 34.12c.47.02 1 .21 1.56.57l.57 1a.25.25 0 0 1-.09.34.25.25 0 0 1-.12.03c-.5.03-.94-.17-1.3-.59a.4.4 0 0 1-.1-.22c-.05-.4-.23-.78-.52-1.13Z" fill="#5F7336"/><path d="m27.31 34.2.66 1.52a.5.5 0 0 1 .04.25c-.12.97.45 1.11 1.21 1.33a.8.8 0 0 1 .45.33c.16.23.2.5.15.8a.35.35 0 0 1-.4.28l-2.14-.32a.26.26 0 0 0-.3.34c.07.2.22.34.46.4.09.01.16.06.22.14a4.75 4.75 0 0 0 2.69 1.76c.64.17 1.1.2 1.39.07.36-.17.72-.3 1.1-.42a4.2 4.2 0 0 0 1.67-.98c.02-.02.05-.02.08 0l.02.02c.02.04.05.04.08 0a.12.12 0 0 0 .02-.08c0-.04.02-.06.06-.07.04-.01.1.01.18.07L33.45 43a.25.25 0 0 1-.17.15l-2.62.67-4.01-2.05a6 6 0 0 1-.7-1.07c-.47-.9-.77-1.33-.61-2.22a.22.22 0 0 1 .22-.18 41 41 0 0 0 2 .02c.04 0 .06-.01.06-.05s-.01-.05-.04-.06c-.67-.07-1.34-.1-2.02-.11-.04-.38.04-.64.23-.78a.1.1 0 0 0 .04-.05.1.1 0 0 0 0-.07c-.02-.04-.02-.07 0-.1.03-.04.07-.05.12-.03l.14.07c.09.03.13 0 .14-.08.02-.36.04-.72.04-1.08 0-.58-.21-1.08-.23-1.66 0-.1.04-.15.14-.16.42-.05.8-.04 1.13.05Z" fill="#426971"/><path d="M27.31 34.2c.52.01.9.16 1.15.47.08.07.1.2.03.37-.05.12-.02.14.08.06a.33.33 0 0 0 .1-.12c.17-.34.33-.33.46.03.17.47.38.92.63 1.36.35.64.38 1.31.5 2.02 0 .02.02.04.05.04h.09c.04 0 .06-.01.05-.06L30.34 37c.1-.25.13-.5.11-.73-.02-.16 0-.3.04-.42.04-.1.1-.13.2-.1l.06.03c.09.08.17.07.23-.04l.08-.14c.32.13.33.27.06.43-.06.04-.08.09-.05.15 0 .03.02.05.04.07.04.05.09.06.14.04.16-.04.23.03.23.23-.01.23-.07.46-.17.67-.08.17-.1.36-.09.55a.28.28 0 0 0 .29.25h.11a.16.16 0 0 1 .15.22.16.16 0 0 0 0 .13c.04.08.1.1.18.08.46-.12.8-.26 1.02-.41l2.7-.76c.08-.02.11 0 .08.08l-.8 2.32c-.08-.06-.14-.08-.18-.07-.04 0-.06.03-.06.07 0 .03 0 .05-.02.07-.03.05-.06.05-.08 0l-.02-.01c-.03-.02-.06-.02-.08 0a4.2 4.2 0 0 1-1.68.98c-.37.11-.73.25-1.1.42-.27.12-.74.1-1.38-.07a4.75 4.75 0 0 1-2.7-1.76.38.38 0 0 0-.21-.15c-.24-.05-.39-.18-.45-.38a.26.26 0 0 1 .29-.35l2.14.32a.35.35 0 0 0 .4-.28c.05-.3 0-.57-.15-.8a.8.8 0 0 0-.45-.33c-.76-.22-1.33-.36-1.22-1.33a.5.5 0 0 0-.03-.25l-.66-1.51Z" fill="#588588"/><path d="m41.92 34.27.72-.03c.09 0 .12.04.1.12-.16.51-.4.75-.7.71-.1-.26-.14-.53-.12-.8Z" fill="#713885"/><path d="M25.3 40.22a.1.1 0 0 1-.02.12.1.1 0 0 1-.12.01c-.24-.13-.4-.35-.5-.64a45.1 45.1 0 0 0-.66-1.9c-.16-.41-.2-.84-.11-1.28a6.64 6.64 0 0 1 .85-2.23h.05l.07.04c.06.03.08.09.05.15-.14.3-.2.6-.21.87 0 .88-.14 1.7-.01 2.6.11.79.32 1.54.62 2.26Z" fill="#505E78"/><path d="M41.21 34.4a6.48 6.48 0 0 1-.3 2.53c-.45 1.19-.56 1.16-.34-.1l.27-1.78c.12-.14.14-.34.06-.6a.73.73 0 0 1 .31-.05Z" fill="#532264"/><path d="m30.66 34.66-.33.8a.16.16 0 0 1-.14.1l-.4.03a.27.27 0 0 1-.28-.17l-.27-.6a.18.18 0 0 1 0-.15.18.18 0 0 1 .12-.1 3.67 3.67 0 0 1 1.26-.05.11.11 0 0 1 .04.14Z" fill="#5F7336"/><path d="m19.54 35.3-.21-.55c-.05-.13 0-.18.13-.15.09.02.16.05.23.11a.3.3 0 0 1 .1.27l-.06.44a.07.07 0 0 1-.12.04c-.04-.03-.06-.07-.06-.12v-.05Z" fill="#532264"/><path d="M19.85 38.08c-.42-.72-.9-1.05-1.4-.99-.19-.03-.34.07-.47.32l-1.13 1.13c0-.06 0-.13.02-.2.02-.05 0-.09-.06-.11-.03-.02-.06-.01-.09.02l-.42.4c-.08.08-.16.08-.23 0a15.89 15.89 0 0 1-2.23-3.25l1.18.42c.1.04.17 0 .2-.1.04-.1.12-.15.25-.12.12.02.23.08.32.16.44.41 1 .58 1.68.5a.31.31 0 0 1 .27.1c.3.36.67.57 1.1.63.27.04.5.16.7.36.07.06.1.13.08.21 0 .08.02.14.07.2.05.04.1.04.15 0a.19.19 0 0 0 .06-.05c.03-.06.04-.05.02.01-.03.08-.05.2-.07.36Z" fill="#5F7336"/><path d="M22.63 35.42a49.57 49.57 0 0 0 1.9 4.49 7.9 7.9 0 0 0 2.43 2.6c-.28.23-.44.41-.48.53a.25.25 0 0 1-.32.16.25.25 0 0 1-.1-.08l-.83-1.03c-.26-.32-.5-.7-.74-1.15a96.51 96.51 0 0 1-1.88-3.95c.15-.45.09-.93-.17-1.43.03-.14.09-.18.19-.14Z" fill="#713885"/><path d="M28.74 35.93a.74.74 0 0 1-.26-.13c-.08-.06-.07-.12 0-.17l.09-.05a.1.1 0 0 1 .13 0c.12.12.26.2.42.24.1.03.1.07.03.13-.1.08-.21.15-.32.2-.13.08-.16.05-.1-.09l.04-.06a.06.06 0 0 0 0-.04.05.05 0 0 0-.03-.03Z" fill="#040405"/><path d="M30.45 36.26c.02.23-.01.48-.11.73-.13-.3-.3-.6-.53-.87-.05-.07-.08-.18-.08-.33 0-.08.04-.11.12-.1l.36.03a.13.13 0 0 1 .1.1c.01 0 .02.03.01.04-.02.2.02.33.13.4Z" fill="#5F7336"/><path d="M18.44 37.1c.52-.07.99.26 1.4.98.08.18.17.35.28.5.13.21.17.2.13-.04-.06-.27-.05-.56 0-.9l.11 1.05a.3.3 0 0 1-.25.31c-.05.01-.1 0-.14-.02-.14-.05-.28-.09-.43-.11a.51.51 0 0 1-.34-.2c-.15-.18-.1-.34-.2-.52-.2-.35-.38-.7-.56-1.06Z" fill="#7D9A4C"/><path d="M22.61 36.99a96.64 96.64 0 0 0 1.88 3.95c.23.45.48.83.74 1.15l.82 1.03a.25.25 0 0 0 .36.03.25.25 0 0 0 .07-.1c.04-.13.2-.3.48-.54.47.38.85.83 1.14 1.38.05.08.03.11-.07.1l-2-.11-2.54-3.23-1.38-2.74c.04-.22.2-.53.5-.92Z" fill="#391046"/><path d="M17.98 37.41c.41.17.54.56.38 1.17a2.84 2.84 0 0 1-.89 1.44l-.96-.95c-.07-.06-.07-.13-.02-.2.1-.14.22-.25.36-.33l1.13-1.13Z" fill="#C4CC8F"/><path d="m22.11 37.91 1.38 2.74c-.37.02-.64.17-.8.45a.2.2 0 0 0 0 .22 8.54 8.54 0 0 0 1.85 2.22c-.38.05-.67-.02-.86-.2-.4-.4-.8-.94-1.2-1.62-.18-.3-.37-.57-.57-.8a6.02 6.02 0 0 1-.6-.8c-.05-.08-.1-.08-.16-.02l-.08.08c-.05.05-.06.1-.01.17l2.18 2.88c.05.07.03.09-.04.05l-2.71-1.15c-.08-.5-.27-.98-.57-1.44a3.3 3.3 0 0 0 1.28-1.05c.29-.52.6-1.1.91-1.73Z" fill="#532264"/><path d="M19.92 40.69c.3.46.5.94.57 1.44l-1.16-.7c-.08-.05-.09-.1-.03-.17.17-.23.38-.42.62-.57Z" fill="#391046"/><path d="m23.49 40.65 2.55 3.23c-.62.02-1.12-.1-1.5-.34a8.55 8.55 0 0 1-1.85-2.22.2.2 0 0 1 0-.22c.16-.28.43-.43.8-.45Z" fill="#713885"/><path d="m26.65 41.77 4 2.05-1.9.17a.25.25 0 0 1-.2-.09l-1.9-2.13Z" fill="#31535E"/><defs><linearGradient id="ajl1snaro" x1="10.42" y1="9.71" x2="68.15" y2="76.02" gradientUnits="userSpaceOnUse"><stop stop-color="#1A1E21"/><stop offset="1" stop-color="#06060A"/></linearGradient></defs></svg>