<svg width="224" height="224" viewBox="0 0 56 56" xmlns="http://www.w3.org/2000/svg"><path d="M32.67 11v6.23c-.01 1.27-4.18 2.15-4.99 2.02-1.1-.18-2.14-.68-3.18-1.1-.15-.07-.3-.12-.46-.15-.63-.15-.62-1-.62-1.54V11h9.25Z" fill="#B9FF01"/><path d="M22.45 11.61c.1-.01.14.08.1.27-.03.1-.04.2-.04.27v5.49c-.1.16-.18.3-.3.44a980.26 980.26 0 0 1-3.43 3.7.05.05 0 0 1-.05-.01l-.01-.03c-.04-.5-.07-1.01-.08-1.51a3 3 0 0 0-.2-1.07c-.16-.39-.44-.7-.83-.93l-1.3-.76a.29.29 0 0 1-.1-.1v-.05h.01l.03-.01 6.2-5.7ZM33.6 11.63c.1.05.2.1.26.18l5.99 5.5c.06.06.05.1-.02.14-.66.35-1.77.88-2.07 1.66-.21.54-.3 1.1-.28 1.7.02.3-.03.56-.08.83a.2.2 0 0 1-.1-.06 87.08 87.08 0 0 0-1.86-1.9 17.3 17.3 0 0 1-1.9-2.23l.05-.55a49.39 49.39 0 0 0 .02-1.28 133.47 133.47 0 0 0-.02-4ZM17.6 32.6c0 .05-.02.1-.05.15a.24.24 0 0 1-.12.09l-1.34.4a2.8 2.8 0 0 1-.03-.05c-.01-.01-.06-.03-.06-.05V18.63c.01-.04 0-.07 0-.07h.03l.04-.01c.49.2.87.46 1.13.8.32.39.4.84.4 1.35v11.9ZM39.94 18.63c.04.03.06.06.06.12v14.34c0 .11-.06.16-.16.14a2.03 2.03 0 0 1-.9-.33c-.44-.3-.51-.96-.5-1.49V22.2c-.01-.7 0-1.37.01-2a1 1 0 0 1 .1-.4l.2-.38c.24-.4.63-.54 1.01-.72l.18-.06ZM26.34 19.96c.02.03.06.04.1.03a.11.11 0 0 1 .1 0c.06.03.1.08.12.15-1.76.02-3.52.02-5.26 0-.02 0-.04-.01-.05-.04l1.09-1.13a.26.26 0 0 1 .26-.07l3.64 1.06ZM34.73 20.15h-4.57c-.02-.03-.01-.06.01-.1l3.27-1.16a.16.16 0 0 1 .17.05l1.12 1.2Z"/><path d="M15 29v.02a.03.03 0 0 1-.02.01h-.02a2.82 2.82 0 0 1-1.63-1.08 3.87 3.87 0 0 1-.36-.88c-.2-.8-.43-1.59-.69-2.37-.56-1.7-.23-3.38.5-4.98a.34.34 0 0 1 .24-.19c.6-.15 1.27-.12 1.9-.18.04 0 .08.02.08.07v9.59ZM43.81 25.12l-.15.56c-.36 1.33-1.23 2.78-2.62 3.38a.03.03 0 0 1-.03 0 .03.03 0 0 1-.01-.03v-7.88c.04-.44-.07-.96.2-1.24.55-.58 1.34-.47 2.08-.41.03 0 .06.02.07.05.67 1.82.82 3.67.46 5.57ZM21.35 20.1c0 .03.03.04.05.04 1.74.02 3.5.02 5.26 0 .84.1 1.68.13 2.54.1.08 0 .24-.03.48-.07.16-.03.32-.04.48-.02h4.57c-.03 0-.02-.02.04-.05l1.54 1.69-.78-.8a.16.16 0 0 0-.12-.04h-14.8c-.03 0-.04 0-.04-.04l.78-.81Z" fill="#B9FF01"/><path d="M20.61 20.95h14.8c.05 0 .09.01.12.05l.78.79c0 .03.02.06.05.09a.18.18 0 0 1-.04.03.09.09 0 0 1-.04 0H19.83c-.03 0-.07-.01-.13-.05a.18.18 0 0 0 .06-.06l.85-.85Z"/><path d="M19.84 21.86c.06.04.1.06.14.06h16.17l.05-.01.04-.03c.03 0 .05 0 .07.02l.64.7c.05.05.06.1.03.13H19.06c-.02 0-.02 0-.02-.02l.8-.85Z" fill="#B9FF01"/><path d="M37 22.73v.9H19v-.9h18Z"/><path d="M19 23.63h18v.83H19v-.83Z" fill="#B9FF01"/><path d="M19 24.46h18v1.05H19v-1.05Z"/><path d="M19 25.51h18v.82H19v-.82Z" fill="#B9FF01"/><path d="M19 26.33h7l-.14.2-.66.76a.47.47 0 0 1-.34.16H19v-1.12ZM29.98 26.33H37v1.1h-5.58c-.1 0-.19 0-.29-.02a.16.16 0 0 1-.09-.05l-.73-.83a.29.29 0 0 1-.1-.04.63.63 0 0 1-.09-.1.2.2 0 0 0-.14-.06Z"/><path d="M37.59 29.68c.05.9.04 1.77-.04 2.65-.08.93.4 1.5 1.26 1.6.35.04.7.19 1.08.44.02.02.02.03 0 .05l-3.47 4.26c-.04.04-.06.04-.05-.02a5.13 5.13 0 0 0-.53-3.03c-.3-.56-.63-1.11-.99-1.65-.55-.87-.39-1.85.12-2.7.15-.24.45-.55.9-.93a63.01 63.01 0 0 0 1.7-1.44l.01.01v.76ZM17.53 33.89c.7-.3 1.06-.87 1.07-1.68 0-.5-.02-1.04-.08-1.63a3.89 3.89 0 0 1 .11-1.3.04.04 0 0 1 .04 0c.61.3 1.19.66 1.73 1.07.93.71 1.42 1.69 1.08 2.88-.28 1-.88 1.8-1.42 2.64-.24.38-.36.86-.37 1.31a3.33 3.33 0 0 1-.23 1.1.05.05 0 0 1-.07 0l-3.3-4.02c-.04-.06-.03-.08.04-.08.48 0 .95-.1 1.4-.3Z" fill="#B9FF01"/><path d="M33 31.06v2.85l.92 2.75c.07.1.08.2.08.32V40H22v-2.85c0-.18.06-.4.16-.56l.8-2.78c.05-.08.04-.18.04-.27v-2.13c0-.09.07-.18.12-.25l1.6-2.04a.19.19 0 0 1 .14-.09c.15 0 .28-.03.42-.03h6.11c.02 0 .03.03.04.03l.02.03 1.55 2Z"/><path d="m27.1 32.97-1.28-.67v-.01l-.01-.02-.01-1.23v-.02a.03.03 0 0 1 .06 0l1.29 1.9a.03.03 0 0 1-.02.06h-.02ZM30.37 31.02l-.01 1.25v.02h-.02l-1.3.68h-.02a.03.03 0 0 1-.02-.03v-.02L30.3 31h.02a.03.03 0 0 1 .04 0v.02ZM33.83 41.1c-.37.93-.7 1.84-1.1 2.75-.11.26-.3.53-.57.6-2.7.67-5.53.82-8.11-.07-.56-.2-.85-.8-1.07-1.36-.26-.66-.54-1.31-.82-1.95-.02-.04-.01-.07.03-.07h11.62l.02.03a.08.08 0 0 1 0 .07Z" fill="#B9FF01"/><defs><linearGradient id="afpnrr3no" x1="16.81" y1="15.47" x2="39.96" y2="49.94" gradientUnits="userSpaceOnUse"><stop stop-color="#190D4C"/><stop offset="1" stop-color="#120F29"/></linearGradient></defs></svg>