<svg width="56" height="56" viewBox="0 0 56 56" xmlns="http://www.w3.org/2000/svg"><path d="M36.46 39.78A13.83 13.83 0 0 1 28.92 42C21.22 42 15 35.73 15 28s6.24-14 13.93-14c2.84 0 5.47.85 7.67 2.3L39 14.35A16.8 16.8 0 0 0 28.92 11 16.96 16.96 0 0 0 12 28c0 9.39 7.58 17 16.92 17 3.5 0 6.74-1.06 9.43-2.88l-1.89-2.34Z" fill="#FCFCFC"/><path fill-rule="evenodd" d="m20 23 2.5-4 2.5 4h8l2.5-4 2.5 4-9 16-9-16Zm8.49 4L25 24l3.49 8v-5Zm1.03 0L33 24l-3.48 8v-5Z" fill="#FCFCFC"/><defs><linearGradient id="abkj15bwl" x1="10.42" y1="9.71" x2="68.15" y2="76.02" gradientUnits="userSpaceOnUse"><stop stop-color="#1A1E21"/><stop offset="1" stop-color="#06060A"/></linearGradient></defs></svg>