<svg width="112" height="112" viewBox="0 0 56 56" xmlns="http://www.w3.org/2000/svg"><rect fill="url(#azonff3ef)" width="56" height="56" rx="28"/><path d="m11 27.5 3.5-3.5 3.5 3.5-3.5 3.5-3.5-3.5ZM18 34.5l3.5-3.5 3.5 3.5-3.5 3.5-3.5-3.5ZM25 41.5l3.5-3.5 3.5 3.5-3.5 3.5-3.5-3.5ZM31 34.5l3.5-3.5 3.5 3.5-3.5 3.5-3.5-3.5Z" fill="#fff"/><path d="m24 14.5 3.5-3.5 7 7 3.5 3.5 7 7-3.5 3.5-7-7-3.5 3.5-3.5 3.5-3.5-3.5-7-7 3.5-3.5 7 7 3.5-3.5-7-7Z" fill="#fff"/><defs><linearGradient id="azonff3ef" x1="28" y1="0" x2="28" y2="56" gradientUnits="userSpaceOnUse"><stop stop-color="#0CCB59"/><stop offset="1" stop-color="#0CA033"/></linearGradient></defs></svg>