<svg width="112" height="112" viewBox="0 0 56 56" xmlns="http://www.w3.org/2000/svg"><path d="M31.36 14c.65 0 1.1.04 1.34.12.38.13.68.42.91.87l11.16 21.67c.11.22.18.4.21.56.03.18.02.36-.03.56-.04.15-.14.22-.3.22h-33.3c-.14 0-.24-.06-.29-.18-.03-.07-.05-.19-.06-.36v-.02c0-.2.05-.43.17-.67L22.42 15.1c.19-.37.37-.63.55-.78.24-.2.54-.31.9-.32L26.1 14h5.26Zm-7.24 1a.35.35 0 0 0-.34.2c-3.93 7.73-7.5 14.72-10.7 20.98-.1.2-.16.38-.16.52 0 .2.1.3.31.3h5.22c.12 0 .2-.06.26-.17l8-16.54c0-.03.03-.07.05-.12.14-.3.25-.49.34-.6a.84.84 0 0 1 .55-.28c.33-.04.62-.03.88.04.17.04.32.13.43.28a3.25 3.25 0 0 1 .35.66l4.06 8.44c.48 1 1.02 2.02 1.62 3.06.08.12.08.25 0 .38l-.26.47c-.04.07-.1.1-.18.1a139.23 139.23 0 0 0-9.92-.13h-.06c-.28 0-.47.03-.57.08-.17.09-.2.27-.09.54l1.42 3.59c.05.13.14.2.28.2h16.96c.5 0 .65-.22.43-.65A28459.24 28459.24 0 0 1 32.5 15.6c-.12-.24-.22-.4-.3-.46-.1-.1-.27-.14-.5-.14h-7.58Z" fill="#0F0"/><defs><linearGradient id="a" x1="10.42" y1="9.71" x2="68.15" y2="76.02" gradientUnits="userSpaceOnUse"><stop stop-color="#1A1E21"/><stop offset="1" stop-color="#06060A"/></linearGradient></defs></svg>