<svg width="112" height="112" viewBox="0 0 56 56" xmlns="http://www.w3.org/2000/svg"><path d="M19.37 35.37s-.47 1-.92 2.56l-.04.13-.1.38a11 11 0 0 1-.4 1.32c-.43 1.08-1.01 1.72-1.9 1.63-1.01-.07-2.09-1.57-2-4.21v-.14c.01-.34.05-.7.1-1.08a14 14 0 0 1 1.6-4.53c.12-.23.25-.45.37-.64.5-.8.88-1.25.87-1.26 0-.05 1.13.51 1.92 1.42l.2.25c.7.92 1.03 2.17.3 4.18Z" fill="url(#az0zbw10f)"/><path d="M19.37 35.37s-.47 1-.92 2.56l-.04.13-.1.38a11 11 0 0 1-.4 1.32c-.03-.27.36-5.16.36-5.16a4.98 4.98 0 0 1-2.91-2.5c.1-.23.23-.46.34-.66l.38-.65c.87.03 2.06.23 3 .4.68.92 1.02 2.17.3 4.19Z" fill="gray" style="mix-blend-mode:multiply" opacity=".17"/><path d="M36.63 35.37s.58 1.21 1.06 3.07c.46 1.85 1.09 3.07 2.3 2.95 1.16-.08 2.4-2.03 1.9-5.43a14.3 14.3 0 0 0-1.6-4.53c-.64-1.2-1.25-1.9-1.24-1.9 0-.05-1.13.5-1.92 1.41-.81.94-1.3 2.23-.5 4.43Z" fill="url(#bz0zbw10f)"/><path d="M36.63 35.37s.47 1 .92 2.56l.04.13.1.38c.12.49.26.93.4 1.32.03-.27-.36-5.16-.36-5.16a4.98 4.98 0 0 0 2.91-2.5c-.1-.23-.23-.46-.34-.66l-.38-.65c-.87.03-2.06.23-3 .4-.68.92-1.02 2.17-.3 4.19Z" fill="gray" style="mix-blend-mode:multiply" opacity=".17"/><path d="M22.3 30.2a3.34 3.34 0 0 1-3.37 3.34 3.35 3.35 0 0 1-3.38-3.33 3.35 3.35 0 0 1 3.71-3.32 3.34 3.34 0 0 1 3.04 3.31Z" fill="url(#cz0zbw10f)"/><path d="M19.98 33.37a3.35 3.35 0 0 1-4.43-3.16 3.35 3.35 0 0 1 3.7-3.32c-1.7 1.34-2.28 4.05.7 5.59.05.33.06.63.03.89Z" fill="#B3B3B3" style="mix-blend-mode:screen" opacity=".1"/><path d="M33.7 30.2a3.35 3.35 0 0 0 3.38 3.34c1.87 0 3.38-1.5 3.38-3.33a3.35 3.35 0 0 0-3.38-3.34 3.35 3.35 0 0 0-3.37 3.34Z" fill="url(#dz0zbw10f)"/><path d="M36.02 33.37a3.35 3.35 0 0 0 4.43-3.16 3.35 3.35 0 0 0-3.7-3.32c1.7 1.34 2.28 4.05-.7 5.59-.05.33-.06.63-.03.89Z" fill="#B3B3B3" style="mix-blend-mode:screen" opacity=".1"/><path d="M36.41 33.52c0 .45-.03.92-.1 1.43 0 .05 0 .1-.02.14-.09.6-.23 1.25-.43 1.96C34.12 42.95 31.37 46 28 46s-6.12-3.06-7.85-8.95c-.2-.7-.35-1.36-.43-1.96l-.02-.14c-.08-.5-.1-.99-.11-1.43a7.18 7.18 0 0 1 .95-3.82c.5-.82 1-1.18 1-1.18s2.63-1.04 6.46-1.04 6.46 1.04 6.46 1.04.46.33.93 1.08a7.1 7.1 0 0 1 1.02 3.92Z" fill="url(#ez0zbw10f)"/><path d="M35.4 29.6c-1.83 1.62-1.7 1.73-7.48 1.73-5.8 0-5.33-.11-7.38-1.63.5-.82 1-1.18 1-1.18s2.63-1.04 6.46-1.04 6.46 1.04 6.46 1.04.46.33.93 1.07Z" fill="#2E2E2E" style="mix-blend-mode:multiply" opacity=".1"/><path d="M30.99 36.17A2.97 2.97 0 0 1 28 39.12a2.97 2.97 0 0 1-2.9-3.64 2.98 2.98 0 0 1 2.9-2.26A2.98 2.98 0 0 1 31 36.17Z" fill="url(#fz0zbw10f)"/><path d="M30.9 35.48a2.98 2.98 0 0 1-2.9 2.26c-1.4 0-2.58-.96-2.9-2.26a2.98 2.98 0 0 1 2.9-2.25c1.41 0 2.59.96 2.9 2.25Z" fill="#B3B3B3" style="mix-blend-mode:screen" opacity=".2"/><path d="M28.9 35.12c.36.35.8.48 1 .29.2-.2.06-.64-.3-.99-.35-.35-.8-.48-1-.29-.19.2-.06.64.3.99Z" fill="#E6E6E6" style="mix-blend-mode:screen" opacity=".27"/><path d="M17.6 29.04c-.33.38-.76.54-.98.37-.2-.17-.12-.62.2-1 .33-.38.76-.55.98-.38.21.18.12.63-.2 1Z" fill="#E6E6E6" opacity=".1"/><path d="M38.41 29.04c.32.38.76.54.97.37.21-.17.12-.62-.2-1s-.76-.55-.97-.38c-.21.18-.12.63.2 1Z" fill="#E6E6E6" style="mix-blend-mode:screen" opacity=".1"/><path d="M36.29 35.08c-.28.08-2.56.68-4.74.9.03.48 0 1.83-.91 2.8-.62.65-1.51.98-2.64.98a3.46 3.46 0 0 1-2.63-.98 3.9 3.9 0 0 1-.92-2.8c-2.17-.23-4.46-.82-4.73-.9l-.03-.13h.03c.03 0 2.49.67 4.8.9.04 0 .07.04.06.08-.02.4-.04 1.78.88 2.75.6.63 1.44.94 2.54.94s1.94-.31 2.54-.94c.92-.96.9-2.35.87-2.75 0-.04.03-.07.06-.07 2.32-.24 4.78-.9 4.8-.91h.03l-.02.13h.01Z" fill="gray" opacity=".64"/><path d="M36.41 33.52c0 1-.16 2.17-.55 3.52C34.12 42.94 31.37 46 28 46s-6.12-3.05-7.85-8.95a12.7 12.7 0 0 1-.56-3.52c.72 2.56 3.02 8.8 8.4 8.8 5.4 0 7.7-6.23 8.42-8.8Z" fill="gray" style="mix-blend-mode:multiply" opacity=".2"/><path d="m18.45 37.93-.04.13c-2.1-1.3-3.9-1-4.4-.88v-.14c.25-.05.72-.14 1.36-.1a6.5 6.5 0 0 1 3.08 1v-.01ZM37.55 37.93l.04.13c2.1-1.3 3.9-1 4.4-.88v-.14a4.91 4.91 0 0 0-1.36-.1 6.5 6.5 0 0 0-3.08 1v-.01Z" fill="gray" style="mix-blend-mode:multiply" opacity=".63"/><path d="M18.53 21.85c-.01.98-.1 2-.3 2.86l-1.35-.3c-.28-.05-.5-.22-.55-.42-.25-.93-.36-1.9-.41-2.76-.06-.93-.03-1.7 0-2.12 0-.18.15-.35.38-.45.72-.3 2.02-.81 2.02-.81s.24 1.92.2 4h.01Z" fill="url(#gz0zbw10f)"/><path d="M18.53 21.85c-1-.15-1.86-.37-2.61-.62-.05-.93-.02-1.7 0-2.12.01-.18.16-.35.39-.45.71-.3 2.01-.81 2.01-.81s.25 1.92.21 4Z" fill="#B3B3B3" style="mix-blend-mode:screen" opacity=".31"/><path d="m37.93 24.4 1.31-.3c.27-.06.48-.22.53-.43.5-1.92.44-4.1.4-4.87-.01-.19-.16-.36-.38-.45l-1.95-.82s-.52 4.19.09 6.87Z" fill="url(#hz0zbw10f)"/><path d="M37.64 21.54c.97-.15 1.8-.37 2.53-.62.05-.93.02-1.7 0-2.11 0-.2-.15-.36-.38-.46-.68-.3-1.94-.81-1.94-.81s-.24 1.92-.2 4Z" fill="#B3B3B3" style="mix-blend-mode:screen" opacity=".31"/><path d="M32.64 13.55c-1.63 0-2.58.45-4.67.45-2.1 0-3.05-.45-4.67-.45-1.63 0-5.91 1.47-5.91 7.37s4.6 9.8 7.04 9.8h7.07c2.44 0 7.04-3.9 7.04-9.8s-4.28-7.37-5.9-7.37Z" fill="url(#iz0zbw10f)"/><path d="M28 27.17c-2.14 0-3.67-.14-5.77-.9-1.98-.71-2.66-3.53-2.66-5.46 0-1.65.42-3.02 1.22-3.95a3.51 3.51 0 0 1 3.47-1.18c2.24.52 3.73.53 3.74.53.02 0 1.52 0 3.74-.53a3.52 3.52 0 0 1 3.47 1.18c.8.93 1.23 2.3 1.23 3.95 0 1.93-.7 4.9-2.66 5.64-1.74.65-3.64.72-5.78.72Z" fill="#B3B3B3" style="mix-blend-mode:screen" opacity=".42"/><path d="M36.22 20.82c0-3.98-2.45-5.39-4.43-4.93-2.28.53-3.8.53-3.8.53s-1.5 0-3.78-.53c-1.98-.46-4.43.95-4.43 4.93 0 3.97 2.1 6.06 8.22 6.06 6.65 0 8.22-2.09 8.22-6.06Z" fill="url(#jz0zbw10f)"/><path d="M35.68 19.18c-8.33-1.98-13.26 1.11-15.34 2.97-.11-.4-.18-.85-.18-1.33 0-3.19 1.65-4.61 3.29-4.61.21 0 .42.02.63.07 2.33.54 3.86.54 3.93.54.06 0 1.47 0 3.64-.48l.28-.07a2.95 2.95 0 0 1 3.14 1.39c.27.42.48.92.61 1.51v.01Z" fill="#B3B3B3" opacity=".1"/><path d="M24.02 19h-.04c-.54 0-.98.5-.98 1.11v1.78c0 .61.44 1.11.98 1.11h.04c.54 0 .98-.5.98-1.11V20.1c0-.61-.44-1.11-.98-1.11Z" fill="url(#kz0zbw10f)"/><path d="M32.02 23h-.04c-.54 0-.98-.5-.98-1.11V20.1c0-.61.44-1.11.98-1.11h.04c.54 0 .98.5.98 1.11v1.78c0 .61-.44 1.11-.98 1.11Z" fill="url(#lz0zbw10f)"/><path d="M27.65 13c-.95-.2-4.03-1.15-3.61-4.76A.28.28 0 0 1 24.4 8c.99.29 3.95 1.43 3.57 4.78-.02.14-.17.23-.32.2Z" fill="url(#mz0zbw10f)"/><path d="M28 12.73c.1-.7.53-2.45 2.68-2.73.18-.02.34.12.32.3-.1.73-.56 2.5-2.72 2.7-.16.01-.3-.12-.28-.27Z" fill="url(#nz0zbw10f)"/><defs><linearGradient id="az0zbw10f" x1="19.42" y1="35.67" x2="14.07" y2="35.27" gradientUnits="userSpaceOnUse"><stop stop-color="#8A8A8A"/><stop offset="1" stop-color="#E6E6E6"/></linearGradient><linearGradient id="bz0zbw10f" x1="36.85" y1="38.13" x2="40.63" y2="34.19" gradientUnits="userSpaceOnUse"><stop stop-color="#8A8A8A"/><stop offset="1" stop-color="#E6E6E6"/></linearGradient><linearGradient id="cz0zbw10f" x1="15.55" y1="30.29" x2="20.87" y2="30.16" gradientUnits="userSpaceOnUse"><stop stop-color="#311D52"/><stop offset="1" stop-color="#25002D"/></linearGradient><linearGradient id="dz0zbw10f" x1="40.39" y1="31.7" x2="34.5" y2="28.98" gradientUnits="userSpaceOnUse"><stop stop-color="#311D52"/><stop offset="1" stop-color="#25002D"/></linearGradient><linearGradient id="ez0zbw10f" x1="25.04" y1="45.26" x2="29.22" y2="28.44" gradientUnits="userSpaceOnUse"><stop stop-color="#8A8A8A"/><stop offset="1" stop-color="#fff"/></linearGradient><linearGradient id="fz0zbw10f" x1="29.5" y1="33.24" x2="26.54" y2="39.18" gradientUnits="userSpaceOnUse"><stop stop-color="#E3C20E"/><stop offset="1" stop-color="#BC4F00"/></linearGradient><linearGradient id="gz0zbw10f" x1="15.58" y1="20.01" x2="18.14" y2="21.5" gradientUnits="userSpaceOnUse"><stop stop-color="#E3830E"/><stop offset="1" stop-color="#BC850B"/></linearGradient><linearGradient id="hz0zbw10f" x1="41.54" y1="19.23" x2="37.91" y2="21.23" gradientUnits="userSpaceOnUse"><stop stop-color="#E3830E"/><stop offset="1" stop-color="#BC850B"/></linearGradient><linearGradient id="iz0zbw10f" x1="20.6" y1="28.69" x2="35.14" y2="13.96" gradientUnits="userSpaceOnUse"><stop stop-color="#8A8A8A"/><stop offset=".18" stop-color="#A1A1A1"/><stop offset=".55" stop-color="#CDCDCD"/><stop offset=".83" stop-color="#E7E7E7"/><stop offset="1" stop-color="#F2F2F2"/></linearGradient><linearGradient id="jz0zbw10f" x1="28.49" y1="16.27" x2="27.4" y2="26.87" gradientUnits="userSpaceOnUse"><stop stop-color="#311D52"/><stop offset="1" stop-color="#25002D"/></linearGradient><linearGradient id="kz0zbw10f" x1="23.98" y1="22.91" x2="24.03" y2="19.05" gradientUnits="userSpaceOnUse"><stop stop-color="#BC850B"/><stop offset=".99" stop-color="#E3E554"/></linearGradient><linearGradient id="lz0zbw10f" x1="32.09" y1="22.86" x2="31.85" y2="19.05" gradientUnits="userSpaceOnUse"><stop stop-color="#BC850B"/><stop offset=".99" stop-color="#E3E554"/></linearGradient><linearGradient id="mz0zbw10f" x1="24.16" y1="10.5" x2="31.37" y2="10.5" gradientUnits="userSpaceOnUse"><stop stop-color="#D88B00"/><stop offset=".99" stop-color="#E3FF9D"/></linearGradient><linearGradient id="nz0zbw10f" x1="23.65" y1="11.5" x2="30.7" y2="11.5" gradientUnits="userSpaceOnUse"><stop stop-color="#D88B00"/><stop offset=".99" stop-color="#E3FF9D"/></linearGradient></defs></svg>