<svg width="224" height="224" viewBox="0 0 56 56" xmlns="http://www.w3.org/2000/svg"><rect fill="url(#aeatrzucd)" width="56" height="56" rx="28"/><path d="M19.1 22.06v.1l.33.69s.21.5 0 .8c-.22.27-1.4 2.54-1.6 2.82 0 0-.03.06-.08.06h-1.26c-.06 0-.06-.06-.06-.12l1.55-2.43v-.17l-.48-1.53c0-.05-.05-.05-.1-.05l-.8.17c-.29.02-.56.14-.78.33-.22.19-.38.45-.45.74l-.7 1.9c-.07.2-.2.37-.36.48a.98.98 0 0 1-.55.15h-2.35s-.64.06-.32-.96 1.28-2.93 1.02-4.12c-.27-1.19-.49-.9.32-1.13.8-.22 2.78-.56 2.78-.56a.88.88 0 0 0 1.12 0c.7-.46 4.22-2.44 9.56-2.21 5.23.22 12.5 2.08 19.55 5.23.46.2.9.35 1.4.4.27 0 .27 1.46-.64 1.35-1.47-.16-2.92-.5-4.33-1.02a43.37 43.37 0 0 0-6.03-1.72c.1.74.48 2.5-.65 3.06-.99.56-1.95 1.17-2.88 1.83a.1.1 0 0 1-.1 0l-1.06-.62a.1.1 0 0 1 0-.17 20.9 20.9 0 0 1 2.92-1.89 24.7 24.7 0 0 0-3.04 1.19l-.6.31a.1.1 0 0 1-.1-.01l-.94-.76a.1.1 0 0 1 .03-.17l.54-.22 2.45-1.13s.8-.68.22-1.08c-.59-.4-2.2-.96-4.81-.96-2.62 0-4.28.28-6.42.62 0 0 .54 2.55 0 3.4l-1.72 2.27a.14.14 0 0 1-.1.06c-.42.02-.9-.04-1.32-.13-.1-.02-.15-.15-.08-.23a41.9 41.9 0 0 0 1.73-2.42s.7-.8.27-1.2c-.43-.39-.86-1.35-1.07-.95Z" fill="url(#beatrzucd)"/><path d="M11.1 30c-.4 0-.8.15-1.1.45V28h-.9a.1.1 0 0 0-.07.03.12.12 0 0 0-.03.08v8.78c0 .03.01.06.03.08a.1.1 0 0 0 .07.03h.8c.1 0 .1-.06.1-.11v-.34s.42.45 1.02.45c1.15 0 1.98-.93 1.98-2v-3c0-.8-.7-1.97-1.9-2Zm.9 5c0 .5-.46.98-.98 1-.61.02-1.02-.53-1.02-1v-3c.02-.61.37-1 1-1a1 1 0 0 1 1 1v3ZM21.1 30c-.4 0-.8.15-1.1.45V28h-.9a.1.1 0 0 0-.07.03.12.12 0 0 0-.03.08v8.78c0 .03.01.06.03.08a.1.1 0 0 0 .07.03h.8c.1 0 .1-.06.1-.11v-.34s.42.45 1.02.45c1.15 0 1.98-.93 1.98-2v-3c0-.8-.7-1.97-1.9-2Zm.9 5c0 .5-.46.98-.98 1-.61.02-1.02-.53-1.02-1v-3c.02-.61.37-1 1-1a1 1 0 0 1 1 1v3ZM16 30c-1.11-.01-1.9.86-2 1.94 0 .06.1.06.1.06h.8c.1 0 .1-.06.1-.12.06-.4.34-.88 1-.88.66 0 1 .6 1 1.38v.56c0 .06 0 .06-.05.06h-.58c-1.3 0-2.35.64-2.39 2-.02 1.04.56 2.02 1.77 2 .25 0 .89-.14 1.2-.55H17v.43c0 .06.05.12.16.12h.73c.11 0 .11-.12.11-.12v-4.67c0-1.16-.78-2.21-2-2.21Zm1 4.82c0 .17 0 .33-.06.48-.15.4-.7.7-1.13.7-.54.01-.81-.5-.81-1 0-.59.5-1 1.32-1H17v.82ZM29 30.12c.01-.06-.04-.12-.12-.12h-1.05c-.06 0-.1.03-.12.08L26.5 35.3l-1.29-5.22c0-.05-.06-.08-.11-.08h-.98c-.08 0-.13.06-.12.12l1.8 6.48h.06c-.09.31-.18.62-.3.92-.16.36-.7.55-1.13.55h-.06l-.05.01a.13.13 0 0 0-.04.02.11.11 0 0 0-.02.04.1.1 0 0 0-.01.04v.77l.01.03.05.02h.12c.8 0 1.7-.1 2.12-.76.25-.42.42-.86.55-1.32l1.9-6.8ZM34 30c-1.15 0-2 1-2 2.14v2.72C32 36 32.94 37 34 37c1.22 0 2-1 2-2.14v-2.72c0-1.1-.84-2.14-2-2.14Zm1 4.9c0 .5-.46 1.08-1 1.1-.5.02-1-.5-1-1.1v-2.8c0-.53.43-1.1 1-1.1.59.02.99.57 1 1.1v2.8ZM39.46 30a1.93 1.93 0 0 0-1.46.64v-.49a.15.15 0 0 0-.15-.15h-.7a.15.15 0 0 0-.15.15v6.73l.03.09a.1.1 0 0 0 .07.03h.8a.1.1 0 0 0 .07-.03.12.12 0 0 0 .03-.09v-4.71c.03-.65.34-1.17 1.04-1.17.75.03.96.56.96 1.22v4.66c0 .06.05.12.16.12h.7c.1 0 .14-.03.14-.12v-4.66c0-.98-.36-2.24-1.54-2.22ZM44.47 31c.6 0 1 .39 1.07.85.01.08.08.15.16.15h1.04c.03 0 .07-.01.09-.03a.11.11 0 0 0 .04-.09c0-.27-.05-.53-.17-.79-.38-.85-1.34-1.09-2.23-1.09-1.18 0-2.48.67-2.47 1.97 0 1.12 1.1 1.65 2.04 2.04.54.22 1.64.45 1.66 1.17.01.52-.7.82-1.2.82-.62 0-1.27-.17-1.27-.88 0-.07-.06-.12-.13-.12h-.97c-.07 0-.13.05-.13.12 0 1.35 1.28 1.88 2.47 1.88 1.14 0 2.52-.57 2.53-1.88 0-.8-.43-1.27-1-1.62-.6-.37-1.26-.53-1.9-.8-.4-.17-.75-.4-.8-.73-.07-.55.5-.97 1.17-.97ZM30.86 28h-.68c-.09 0-.18.05-.18.15v8.59c0 .08.02.14.07.19.04.04.1.07.16.07h.59c.05-.01.1-.04.13-.09.03-.05.05-.1.05-.16v-8.6a.16.16 0 0 0-.04-.1.13.13 0 0 0-.1-.05Z" fill="#fff"/><defs><linearGradient id="aeatrzucd" x1="10.42" y1="9.71" x2="68.15" y2="76.02" gradientUnits="userSpaceOnUse"><stop stop-color="#1A1E21"/><stop offset="1" stop-color="#06060A"/></linearGradient><linearGradient id="beatrzucd" x1="43.4" y1="22" x2="40.15" y2="12.88" gradientUnits="userSpaceOnUse"><stop stop-color="#FFAE50"/><stop offset="1" stop-color="#F64F6D"/></linearGradient></defs></svg>