<svg width="224" height="224" viewBox="0 0 56 56" xmlns="http://www.w3.org/2000/svg"><path d="M33.31 42.8c.37-.88.46-1.8.27-2.75-.16-.84-.27-1.38-.3-1.6-.02-.07 0-.11.08-.11h.32c.25 0 .46 0 .77-.1.47-.14 1.88-.96 2.23-.85.27.09.54.07.8-.06a.35.35 0 0 1 .18-.04c.3.01.58-.02.8-.1.4-.16.47-.44.46-.86 0-.32-.08-.61-.21-.86-.04-.07-.02-.11.05-.13.23-.06.73-.07.88-.28l.34-.46a.2.2 0 0 1 .17-.09c.9-.02 2.44-.5 3.2-.91.06-.03.25-.2.58-.5.16-.14.08-.5.08-.69 0-.07.03-.13.08-.18l.67-.54c.36-.28.26-.92.6-1.17a4.82 4.82 0 0 0 1.38-1.49.27.27 0 0 0 .04-.18c-.05-.36.08-.66.39-.91.66-.53.92-1.21.78-2.04a.38.38 0 0 1 .09-.28c.9-.97 1.14-2.05.71-3.24a.26.26 0 0 1 0-.17 3.5 3.5 0 0 0 .13-2.2c-.13-.4-.43-.65-.91-.77-.4-.1-.97.13-1.14.51a10.71 10.71 0 0 1-2.6 3.56 799.63 799.63 0 0 0-1.07.97 15.78 15.78 0 0 1-4.07 2.76c-.03 0-.06 0-.08-.02l-.88-.52c-.05-.03-.06-.07-.05-.12.04-.11.11-.31.24-.6.35-.75.77-2.03.77-2.87v-.23c.02-.78-.23-1.59-.4-2.35-.17-.87-.37-1.77-.81-2.48-.21-.33-.4-.51-.59-.55a2.09 2.09 0 0 1-.49-.15.33.33 0 0 1-.14-.13c-.32-.5-.48-.55-.91-.69l-.25-.08c-.23-.08-.43-.2-.61-.36-.6-.55-1.3-.9-2.13-1.07a.31.31 0 0 1-.16-.09 5.63 5.63 0 0 0-2.32-1.53 8.13 8.13 0 0 0-2.62-.18c-.4.02-.86.15-1.3.26-.28.08-.55.15-.8.19-.23.04-.46.14-.68.24l-.3.13a.36.36 0 0 1-.18.02c-.89-.14-1.6.13-2.15.79-.42.51-.7.82-.85.92-.8.6-1.34 1.44-2.13 2.04a3.45 3.45 0 0 0-1.32 1.54c-.15.69.05 1.23.6 1.61.04.04.06.08.05.14a5.07 5.07 0 0 0-.07 2.3 8.86 8.86 0 0 0 .8 3.08.14.14 0 0 1-.03.1.13.13 0 0 1-.04.03 1.7 1.7 0 0 0-.8.78.18.18 0 0 1-.1.1.18.18 0 0 1-.13-.01 20.04 20.04 0 0 1-5.03-3.14c-.18-.15-.58-.45-1.2-.91-.9-.67-1.83-1.73-2.78-3.17a2.84 2.84 0 0 0-.44-.56c-.24-.2-.5-.3-.74-.28a.78.78 0 0 0-.6.34 2.27 2.27 0 0 0-.36 1.96l.22.69c.03.06.02.13 0 .19-.39.92-.28 1.84.34 2.74.15.23.31.43.47.6.05.04.07.09.07.15l.01.26c.02.55.03.88.47 1.38l.11.11.26.25c.17.16.29.4.36.69.08.34.16.57.23.68.24.34.58.63.91.92.19.16.37.32.53.48a.2.2 0 0 1 .06.11c.05.33.18.62.4.88.06.06.29.25.7.57.05.04.08.1.07.16-.01.6.25 1 .8 1.21.89.35 1.87.63 2.94.82.06 0 .1.04.14.1.2.35.42.59.7.71.1.05.6.18 1.47.37.06.01.11.05.15.1.3.45.59.7.84.75l1.07.2c.06 0 .11.03.16.08.32.27.64.52.98.76.08.07.37.1.86.08a.2.2 0 0 1 .15.07l.77.78c.04.05.06.1.04.16-.13.58-.25 1.16-.35 1.72-.1.6-.1 1.04-.02 1.32a8.14 8.14 0 0 0 .54 1.38l-.01.02h-.02l-.69.18c-.18.05-.27.17-.25.36.03.3.17.45.41.45.47 0 1.51 0 3.13-.03a.3.3 0 0 0 .13-.03c.3-.16.02-.45.17-.65a.24.24 0 0 1 .19-.1h3.8c.1 0 .14.05.12.14-.02.23.03.42.16.58.05.05.11.08.19.08h3.29a.17.17 0 0 0 .16-.13c.04-.14.05-.28.03-.44a.18.18 0 0 0-.1-.14c-.2-.12-.4-.19-.6-.23-.27-.02-.37-.1-.33-.25Z" fill="#021418"/><path d="m25.65 34.96.26 1.46c.08.5.09.95.02 1.35-.07.35-.1.34-.1 0a5.54 5.54 0 0 0-.35-1.66l-.44-1.27c.18-.05.38 0 .61.12ZM30.54 35.89c-.14.6-.36 1.17-.66 1.71-.03.06-.07.1-.11.1h-.08c-.06-.04-.08-.09-.07-.16l.27-1.88.23-.52a.43.43 0 0 1 .36-.25l.17-.01c.14-.01.19.05.15.2l-.26.8Z" fill="#333C3E"/><path d="m26.48 35.88-.56-.87c.23-.1.47-.07.73.05.06.03.08.08.08.15 0 .3-.09.53-.25.67ZM29.7 35.5a.7.7 0 0 1-.08.29c-.04.06-.08.07-.14.04a.73.73 0 0 1-.2-.24.85.85 0 0 1-.28-.4c-.03-.08 0-.13.08-.13l.73-.09c.09-.01.12.03.08.11l-.2.42Z" fill="#FDFEFE"/><path d="M28.23 37.88c.1.28.17.56.22.83.14.71-.03 1.27-.5 1.67a.35.35 0 0 1-.5-.04l-.5-.59a1.95 1.95 0 0 1-.12-.9c.1-.74.34-1.48.73-2.23a.18.18 0 0 0 0-.15l-.46-1.24a.17.17 0 0 1 .02-.17.16.16 0 0 1 .16-.06 3.82 3.82 0 0 0 1.33.06l.05.05a.14.14 0 0 1 .02.14l-.44.93c-.13.25-.18.5-.16.76.02.32.07.63.15.94Z" fill="#5B241F"/><path d="M26.84 39.86c.15.34.37.62.64.84l.03.03v.04l-.03.03a.06.06 0 0 1-.03.01h-1.23c-.07 0-.1-.04-.1-.12.1-1.26.14-2.47.11-3.64 0-.42-.12-.8-.17-1.22 0-.08.03-.11.1-.1.07.01.14.06.2.15 0 .33.1.42.33.26a.24.24 0 0 0 .08-.12l.13-.38c.03-.1.06-.1.1 0l.25.85c.03.09.02.19-.02.27a5.98 5.98 0 0 0-.59 2.14c-.03.35.04.66.2.96ZM29.16 35.78c.07.12.18.23.3.31.06.04.07.09.06.15-.3 1.44-.35 2.93-.15 4.48 0 .06-.02.09-.08.09h-1.27L28 40.8a.07.07 0 0 1-.01-.11c.4-.42.82-.84.74-1.5a9.94 9.94 0 0 0-.3-1.56l-.12-.8a.27.27 0 0 1 .03-.17l.54-.97a.1.1 0 0 1 .14-.04c.05.03.1.08.15.13Z" fill="#FDFEFE"/><path d="M32.45 15.33c-.02.05-.02.1 0 .16a4.9 4.9 0 0 1-.8-.65 3.28 3.28 0 0 0-1.91-.92c-.35-.04-.69-.26-1.05-.23-.75.06-1.54.24-2.38.53l-.4.15a2.38 2.38 0 0 0-.27-.08c-.27-.05-.28-.12-.02-.22 1-.38 2.06-.57 3.2-.57 1.44 0 2.65.62 3.63 1.83Z" fill="#FCF3C9"/><path d="M32.46 15.5c.86.98 1.56 1.93 2.1 2.87.04.06.02.1-.04.14a.15.15 0 0 1-.16-.02 16 16 0 0 0-1.15-.78c-.19-.12-.43-.34-.7-.67l-.66-.72a5.52 5.52 0 0 0-1.94-1.67.44.44 0 0 0-.15-.04c-.2-.02-.23.03-.12.16l-.91.32a.13.13 0 0 0-.08.16c0 .02.02.04.04.05l.63.56c-.63-.42-1.24-.85-1.84-1.29-.25-.2-.65-.3-1.17-.35a9.88 9.88 0 0 1 2.38-.53c.36-.03.7.19 1.05.23.73.1 1.36.4 1.9.92.3.3.58.51.82.65Z" fill="#FCE293"/><path d="M29.32 15.86a9.96 9.96 0 0 0 3.9 2.45c.07.02.1 0 .1-.08.01-.04 0-.1-.03-.17l.86.63c.15.12.14.17-.05.17a4.73 4.73 0 0 1-1.7-.39 10.8 10.8 0 0 1-1.55-.8c-.28-.18-.73-.56-1.35-1.12-.79-.71-1.65-1.3-2.59-1.77l-1-.41.4-.15c.52.04.92.16 1.17.35.6.44 1.21.87 1.84 1.3Z" fill="#FDC66E"/><path d="M26.8 14.93c.96.5 1.7 1 2.24 1.52a10.5 10.5 0 0 0 3.13 2.14c0 .06.04.13.1.2.05.05.04.09-.02.12-.05.02-.1.02-.17 0-.46-.16-.76-.26-.92-.3a2.91 2.91 0 0 1-.86-.42 7.34 7.34 0 0 0-1.33-.7 2.96 2.96 0 0 1-.7-.57c-.3-.29-.52-.48-.67-.58a45.5 45.5 0 0 1-1.21-.84 3.39 3.39 0 0 0-1.34-.6 6.75 6.75 0 0 0-1.91-.13.75.75 0 0 0-.56.34c-.1.31-.22.47-.37.49.34-1.13 1.47-1.36 2.5-1.3.38.03 1.07.24 2.08.63Z" fill="#FDFAE9"/><path d="M31.85 16.32c-.09-.02-.1.06-.04.24-.4-.41-.8-.82-1.2-1.2a2.45 2.45 0 0 0-.97-.6c-.11-.12-.07-.17.12-.15.05 0 .1.02.15.04.76.4 1.4.95 1.94 1.67Z" fill="#9A9A9A"/><path d="m32.17 18.59.08.04c.5.25.94.4 1.33.48.37.06.38.15.01.26-.25.07-.55.12-.81.08a9.12 9.12 0 0 1-2.76-.96c-.76-.4-1.48-.84-2.17-1.33a25.34 25.34 0 0 0-1.82-1.25c-.97-.47-2-.65-3.08-.53-.09 0-.14-.03-.14-.11a.13.13 0 0 0-.08-.11l-.15-.05c.14-.2.33-.31.56-.34a6.76 6.76 0 0 1 1.9.13c.46.08.9.28 1.35.6l1.21.84c.15.1.37.3.67.58.32.32.56.51.7.57.52.21.96.44 1.33.7.3.2.58.34.86.42.16.04.46.14.92.3.07.02.12.02.17 0 .06-.03.07-.07.02-.13a.4.4 0 0 1-.1-.2Z" fill="#FDC66E"/><path d="M29.64 14.77c.36.11.69.3.98.59.4.38.8.79 1.19 1.2.44.58.94 1.08 1.48 1.5.03.07.04.13.04.17 0 .08-.04.1-.11.08a9.96 9.96 0 0 1-3.9-2.45l-.63-.56a.13.13 0 0 1-.01-.18.12.12 0 0 1 .05-.03l.91-.32Z" fill="#FDFAE9"/><path d="M32.25 18.63c.1-.03.15-.09.16-.16.58.24 1.14.37 1.69.39.19 0 .2-.05.05-.17l-.86-.63a7.74 7.74 0 0 1-1.48-1.5c-.06-.18-.05-.26.04-.24.22.23.44.47.65.72.28.33.52.55.71.67.38.23.76.49 1.15.78.05.03.1.04.16.02.06-.03.08-.08.04-.14a18.23 18.23 0 0 0-2.1-2.88c-.03-.06-.03-.11-.01-.16.2.18.28.18.22.01l1.97 2.75c.03.04.07.05.12.03a.1.1 0 0 0 .05-.04c.02-.03.02-.08 0-.13-.13-.51-.32-.98-.56-1.41-.1-.18-.07-.22.1-.1.4.26.53.9.75 1.3.04.07.07.07.09-.01.03-.16.03-.36-.01-.62v-.04l.05-.05c.05-.02.1 0 .12.05.03.08.09.14.16.18.02.02.07.02.16.02.24 0 .41-.04.5-.14.08.03.16.16.25.4-.18.1-.35.22-.51.34-.16.12-.3.27-.42.45l-.51.78c-.19.29-.48.59-.87.88-.28-.27-.78-.36-1.5-.25l-1.42-.42c-.91-.4-1.79-.86-2.64-1.39-.15-.08-.6-.42-1.34-1a6.9 6.9 0 0 0-2.18-1.15 5.32 5.32 0 0 0-1.82-.07c-.3.05-.62.08-.93.1l.14-.06c.05-.02.05-.04 0-.06l-.21-.08c.15-.02.27-.18.37-.5l.15.06a.12.12 0 0 1 .08.11c0 .08.05.12.14.11a5.55 5.55 0 0 1 3.08.53c.17.08.77.5 1.82 1.25.69.5 1.4.93 2.17 1.33.97.5 1.9.82 2.76.96.26.04.56 0 .81-.08.37-.1.36-.2-.01-.26a5.02 5.02 0 0 1-1.33-.48Z" fill="#C56D38"/><path d="M36.17 17.13c-.09.1-.26.15-.5.14-.09 0-.14 0-.16-.02a.44.44 0 0 1-.16-.18c-.03-.05-.07-.07-.12-.05a.08.08 0 0 0-.05.05v.04c.04.26.04.46.01.62-.02.08-.05.08-.09 0-.22-.39-.34-1.03-.75-1.3-.17-.1-.2-.07-.1.1.24.44.43.9.57 1.42.01.05 0 .1-.01.13a.1.1 0 0 1-.05.04c-.05.02-.1 0-.12-.04l-1.97-2.74c.21.02.42.07.63.16.38.16.58.24.6.26.36.19.66.44.92.77a.43.43 0 0 0 .32.16c.35 0 .7.15 1.03.44Z" fill="#FDC66E"/><path d="M25.03 15.77c-.75.2-1.43.5-2.02.9-.52.03-1.02.12-1.51.27l-.63.15c-.2.05-.4.13-.62.23a3.51 3.51 0 0 1 2.03-1.53c.31-.01.62-.04.93-.09.6-.08 1.2-.06 1.82.07Z" fill="#FCE293"/><path d="M25.03 15.77c.79.25 1.51.63 2.18 1.15.75.58 1.2.92 1.34 1 .85.53 1.73 1 2.64 1.39a.72.72 0 0 1-.52.29l-.38-.14-2.56-1.5a7.73 7.73 0 0 0-4.72-1.29c.6-.4 1.27-.7 2.02-.9Z" fill="#FDFAE9"/><path d="M27.73 17.96h-.13c-.07.02-.09.06-.07.12 0 .03.02.05.03.07l-.4-.19a6.27 6.27 0 0 0-3.19-.98c-.9-.03-1.77.07-2.64.29l-1.25.47c.09-.14.14-.28.17-.42.22-.1.42-.18.62-.23l.63-.15c.5-.15 1-.24 1.5-.27a7.73 7.73 0 0 1 4.73 1.29Z" fill="#B29A76"/><path d="M27.17 17.96a.5.5 0 0 1-.34.32c-1.69-.58-3.42-.76-5.2-.55a.87.87 0 0 1-.3-.46 9.38 9.38 0 0 1 2.64-.3c1.16.05 2.22.38 3.2 1Z" fill="#FDFAE9"/><path d="M21.33 17.27c.05.19.15.34.3.46-.3.02-.55.08-.74.18l-1.1.19a.43.43 0 0 0-.16.06l-1.02.68a2.7 2.7 0 0 1 1.47-1.1l1.25-.47Z" fill="#FCE293"/><path d="M36.91 17.72c-.37 0-.64.12-.83.35-.46.4-.84.85-1.15 1.37-.12.2-.3.33-.44.51a.2.2 0 0 0 .01.26c.26.29.42.61.48.98l-.23.45c-.02-.53-.17-.99-.43-1.37-.04-.05-.09-.06-.14-.03-.95.55-1.97.81-3.05.77-.99-.03-1.97-.2-2.94-.52-.35-.12-.85-.35-1.52-.7-.5-.25-1-.49-1.52-.7.17-.03.3-.12.38-.28.32.13.8.4 1.45.8.8.51 1.68.83 2.65.97.8.11 1.56.14 2.26.07.8-.06 1.53-.29 2.22-.67.39-.3.68-.59.87-.88l.5-.78c.13-.18.27-.33.43-.45l.5-.34c.08.07.25.13.5.19Z" fill="#5B241F"/><path d="m26.83 18.28 2.6 1.2c.08.03.11 0 .08-.07l-.02-.09 1.31.59h.04l.05-.05c.03-.03.02-.06-.02-.07a1.57 1.57 0 0 1-.58-.33l.38.14a4.77 4.77 0 0 0 2.24.4.11.11 0 0 0 .01-.17.4.4 0 0 0-.3-.1c.71-.1 1.2-.02 1.49.25-.69.38-1.42.6-2.22.67-.7.07-1.46.04-2.26-.07a6.65 6.65 0 0 1-2.65-.96c-.65-.41-1.13-.68-1.45-.8a5.7 5.7 0 0 0-4.43-.35l.47-.54c.04-.05.03-.07-.02-.07l-.66.05c.19-.1.43-.16.74-.18 1.78-.21 3.51-.03 5.2.55Z" fill="#F3AA5D"/><path d="M36.91 17.72c.59.27.92.8 1.01 1.62a.3.3 0 0 1-.03.1c-.04.06-.08.07-.13.02a3.33 3.33 0 0 0-1.83-.9.12.12 0 0 1-.05-.1l.02-.06.18-.33c.19-.23.46-.35.83-.35Z" fill="#FDFAE9"/><path d="M21.1 18.47a4.34 4.34 0 0 0-2.33 1.93.06.06 0 0 1-.08-.02c-.4-.54-.43-1.05-.08-1.54l1.02-.68c.05-.03.1-.05.16-.06l1.1-.19.66-.05c.05 0 .06.02.02.07l-.47.54Z" fill="#EA9951"/><path d="m27.56 18.15 1.93 1.17.02.09c.03.08 0 .1-.07.07l-2.6-1.2a.5.5 0 0 0 .33-.32l.4.2Z" fill="#FCE293"/><path d="m27.73 17.96 2.56 1.5c.17.15.36.26.58.33.04.01.05.04.02.07l-.05.04c0 .01-.02.02-.04.01l-1.31-.59-1.93-1.17a.23.23 0 0 1-.03-.07c-.02-.06 0-.1.07-.12a.34.34 0 0 1 .13 0Z" fill="#DB8545"/><path d="m36.08 18.07-.18.33a.12.12 0 0 0 .03.15l.05.03c.69.11 1.28.4 1.78.88.05.05.1.04.13-.02a.3.3 0 0 0 .03-.1c.12.15.18.36.16.6a1.41 1.41 0 0 0-.36-.27l-.34-.17a5.13 5.13 0 0 0-1.15-.54.11.11 0 0 0-.08.06l-.02.05a.3.3 0 0 0 0 .06 2.69 2.69 0 0 0-.36-.07c-.38-.01-.42.1-.13.36.56.48 1.21.9 1.97 1.28.22.1.4.32.57.51.03.03.05.03.08 0 .05-.05.07-.14.07-.25l.14.9-.59-.43a3.97 3.97 0 0 0-.6-.4c-.65-.33-1.33-.73-2.04-1.2-.04-.02-.06-.02-.07 0-.02.04-.02.07 0 .1.15.16.28.27.37.33.35.23 1 .63 1.98 1.2.25.16.58.53.98 1.13v.1a.12.12 0 0 1-.06.12.12.12 0 0 1-.13-.02.88.88 0 0 0-.35-.22l-1.82-.52a2.2 2.2 0 0 1-1.1-.7l-.06-.16a1.9 1.9 0 0 0-.48-.98.2.2 0 0 1 0-.26c.13-.18.31-.31.43-.5.31-.53.7-.99 1.15-1.38Z" fill="#FCE293"/><path d="M23.03 18.51c.12.02.2.05.24.09.07.05.06.08-.02.1-.52.13-1.04.2-1.56.22-.16 0-.4.08-.72.22-.09-.01-.13-.07-.13-.18a3.73 3.73 0 0 1 2.2-.45Z" fill="#FDC66E"/><path d="m24.23 18.66-1.05.56c-.2-.08-.4-.1-.6-.05a3.66 3.66 0 0 0-1.68.23c-.07.03-.13.03-.16.02-.06-.03-.06-.06 0-.1l.23-.18c.32-.14.56-.22.72-.22a7.23 7.23 0 0 0 1.56-.22c.08-.02.09-.05.02-.1a.56.56 0 0 0-.24-.09l1.2.15Z" fill="#B35C30"/><path d="M24.82 19c-1.14-.12-2.09.72-2.61 1.7 0 .07-.02.12-.07.14a.13.13 0 0 1-.12 0c-.06-.04-.07-.1-.03-.15l.79-1.18.4-.29 1.05-.56.6.33Z" fill="#5B241F"/><path d="M20.84 18.96c0 .11.04.17.13.18l-.24.18c-.05.04-.05.07 0 .1.04.01.1 0 .18-.02.53-.2 1.09-.28 1.67-.23-.17.2-.4.33-.7.37-.07 0-.1.04-.12.1-.05.2-.13.37-.24.54-.02.04-.07.06-.15.08l-1.5.31a.42.42 0 0 1-.1.01l-.07-.01c-.21-.12-.28-.31-.21-.57.4-.44.84-.78 1.35-1.04Z" fill="#EA9951"/><path d="m24.82 19 .33.09c.52.21 1.02.45 1.52.7.67.35 1.17.58 1.52.7.97.31 1.95.49 2.94.52 1.08.04 2.1-.22 3.05-.77.05-.03.1-.02.14.03.26.38.41.84.43 1.37-.1.56-.11.96-.01 1.2.15.37.28.74.37 1.1.12 1.37.12 2.72.01 4.07-.16 2.01-.67 3.11-2.34 4.05a12.21 12.21 0 0 1-3.95 1.45c-2.31.39-4.27-.3-5.85-2.06a5 5 0 0 1-1.15-2.39 15.08 15.08 0 0 1 .37-7.8.9.9 0 0 0 0-.56c.53-.98 1.48-1.82 2.62-1.7Z" fill="#DB8545"/><path d="m38.08 19.94.15.63a10 10 0 0 0-2.1-1.44.3.3 0 0 1 0-.06.12.12 0 0 1 .05-.09.11.11 0 0 1 .1-.01c.39.13.76.3 1.1.53l.34.17c.12.06.24.15.36.27Z" fill="#B29A76"/><path d="M36.14 19.13a10 10 0 0 1 2.1 1.44c.03.06.07.2.09.39 0 .11-.02.2-.07.25-.02.03-.05.03-.08 0-.17-.19-.35-.4-.57-.51-.76-.38-1.41-.8-1.97-1.28-.3-.25-.25-.37.13-.36l.37.07Z" fill="#FCF3C9"/><path d="m23.18 19.22-.4.29-.57-.03a.16.16 0 0 0-.15.09.7.7 0 0 0-.08.4c0 .07-.02.12-.08.15a1.85 1.85 0 0 1-.65.24l-.02.06c0 .02.02.03.04.03h.32c.36 0 .4.12.12.35-.2.17-.48.35-.8.53a.4.4 0 0 0-.12.1c-.09.12-.06.18.08.18l-.93.69a.08.08 0 0 0-.04.07v.08a.04.04 0 0 0 .04.04h.02l1.83-1.06c-.04.28-.09.43-.15.43-.34.19-.65.4-.94.65-.11.1-.26.28-.44.56-.12.19-.26.36-.44.53-.01.01-.02.04 0 .07l.02.1c.01.03.03.04.05.01l.88-.8-.02.11c0 .05.02.08.06.08a.2.2 0 0 1 .1.02l-.93 1c-.02.02-.02.05 0 .07l.08.08c.02.02.05.02.07 0l.68-.68c-.02.04-.02.07.01.1.03.02.1.03.2.03a5.46 5.46 0 0 0-1.33 2.1 8.42 8.42 0 0 1-.78-4.95c.05-.32.24-.63.58-.94-.07.26 0 .45.2.57l.07.01h.1l1.51-.32c.08-.02.13-.04.15-.08.11-.17.2-.35.24-.54.01-.06.05-.1.11-.1.3-.04.54-.17.71-.37.2-.04.41-.03.6.05Z" fill="#C56D38"/><path d="M32.61 19.73a.4.4 0 0 1 .31.11.1.1 0 0 1 .03.12.1.1 0 0 1-.04.05 4.77 4.77 0 0 1-2.24-.41c.23-.03.4-.13.52-.3l1.42.43Z" fill="#FCE293"/><path d="m22.78 19.51-.79 1.18c-.04.06-.03.1.03.14.04.03.08.03.12.01.05-.02.07-.07.07-.14a.9.9 0 0 1 0 .56.5.5 0 0 0-.02-.18c-.01-.07-.04-.07-.07-.01a.6.6 0 0 1-.14.17v-.05c0-.05-.03-.07-.07-.05l-1.04.47c-.14 0-.17-.06-.08-.17a.4.4 0 0 1 .11-.1c.34-.2.6-.37.81-.54.28-.23.24-.35-.12-.35h-.32c-.02 0-.03 0-.04-.03 0-.03 0-.04.02-.06l.03-.01c.24-.04.45-.12.62-.23a.14.14 0 0 0 .08-.14.7.7 0 0 1 .08-.41c.03-.06.08-.1.15-.09l.57.03Z" fill="#B35C30"/><path d="M18.11 28.56a22.18 22.18 0 0 1-9.1-5.42l-.76-.6a1.8 1.8 0 0 1-.6-.73c-.19-.56-.18-1.15.03-1.76a.36.36 0 0 1 .2-.22c.29-.12.54-.02.75.3a14.05 14.05 0 0 0 3.12 3.55c1.19 1 2.03 1.66 2.52 2 .94.64 2.04 1.28 3.3 1.93.17.08.34.11.52.15.06 0 .1.05.09.11l-.07.69ZM48.26 22.01c-.5.51-1.03 1-1.56 1.44-.3.26-.53.57-.83.83a27.35 27.35 0 0 1-3.63 2.75c-.96.6-1.97 1.07-3.04 1.4l-.03-.68c0-.06.03-.11.08-.14 1.6-.85 2.97-1.79 4.1-2.82l1.31-1.2c1.1-1.01 1.87-2.1 2.5-3.32.16-.32.3-.5.44-.51.4-.07.7.12.84.54.2.6.14 1.16-.18 1.71Z" fill="#FDFEFE"/><path d="M38.47 21.86c.12.22.16.52.12.9a3.86 3.86 0 0 0-1.07-1.29l-1.98-1.2c-.1-.07-.22-.18-.37-.35-.02-.02-.02-.05 0-.09.01-.02.03-.02.07 0 .71.47 1.4.87 2.05 1.2.15.08.35.21.6.4.18.15.38.3.58.43Z" fill="#C56D38"/><path d="M22.2 21.26c-.03.05-.04.08-.02.08-.16.21-.29.46-.38.75l-.37.62a.3.3 0 0 1-.14.12.83.83 0 0 0-.38.36.2.2 0 0 0-.1-.02c-.04 0-.07-.03-.06-.08l.02-.1c.35-.29.64-.66.87-1.13.06 0 .11-.15.15-.43.06 0 .12-.07.2-.19a.6.6 0 0 0 .13-.17c.03-.06.06-.06.07 0a.5.5 0 0 1 .01.19Z" fill="#5B241F"/><path d="M21.98 21.24c-.07.12-.13.18-.19.19l-1.83 1.05a.04.04 0 0 1-.05-.01v-.1c0-.03 0-.05.03-.07l.93-.69 1.04-.47c.04-.02.06 0 .07.05v.05Z" fill="#FDC66E"/><path d="M22.18 21.34c-.78 2.48-.9 5.06-.35 7.72a5 5 0 0 0 1.15 2.4 6.07 6.07 0 0 0 5.85 2.05c1.32-.23 2.64-.71 3.95-1.45 1.67-.94 2.18-2.04 2.34-4.05.11-1.35.1-2.7 0-4.08l.73 2.6c.21 1.06.17 2.1-.12 3.11-.37 1.29-1 2.46-2.22 2.96-.3.12-1.17.44-2.63.96-1.29.46-2.67.62-4.13.48a5.82 5.82 0 0 1-2.74-.86 6.69 6.69 0 0 1-2.3-2.74c-.3-.67-.42-1.55-.64-2.3-.12-.43-.1-.89-.1-1.33.12-.68.18-1.35.2-2.03.01-.14.04-.3.1-.47.1-.37-.03-.72.05-.96l.48-1.26c.1-.29.22-.54.38-.75Z" fill="#C56D38"/><path d="M38.5 22.59c0 .05.03.1.1.17l-.56 2.35c-.23-.07-.4-.24-.48-.5.32-.32.25-.63-.19-.93a2.36 2.36 0 0 0-.74-.3c-.56-.13-1.32-.44-1.5-.97-.1-.35-.06-.38.16-.1.46.6 1.31.78 1.97 1.02.34.12.6.37.79.73a.06.06 0 0 0 .06.04l.04-.02a.07.07 0 0 0 .02-.04l.02-.14v-.05c-.2-.24-.37-.47-.53-.7-.25-.36-.47-.55-.66-.58-.82-.1-1.5-.4-2.05-.93.1-.11.13-.2.1-.3.28.34.65.58 1.1.7l1.81.53c.14.05.26.13.35.22a.12.12 0 0 0 .13.02.12.12 0 0 0 .05-.05.12.12 0 0 0 .02-.07l-.01-.1Z" fill="#DB8545"/><path d="M37.56 24.6c-.76-.46-1.52-.8-2.27-1.06a2.4 2.4 0 0 1-.34-1.9c.55.53 1.23.84 2.05.93.19.03.4.22.66.57a19.53 19.53 0 0 0 .53.76l-.02.14-.02.04a.06.06 0 0 1-.08.01.07.07 0 0 1-.02-.03c-.19-.36-.45-.6-.79-.73-.66-.24-1.51-.41-1.97-1.02-.22-.28-.27-.25-.16.1.18.53.94.84 1.5.98.32.08.57.18.74.3.44.3.5.6.2.91Z" fill="#FCF3C9"/><path d="M21.64 21.86c-.23.47-.52.84-.87 1.13l-.88.8c-.02.02-.04.01-.05-.02l-.03-.1.01-.07c.18-.17.32-.34.44-.53.18-.28.33-.47.44-.56.29-.25.6-.46.94-.65Z" fill="#FDC66E"/><path d="M48.26 22.01c-.1.23-.11.39-.03.48-.72.53-1.37 1.12-1.97 1.77-.6.66-1.43 1.39-2.28 1.93l-1.47 1.02c-.87.62-1.98 1.12-3.32 1.51-.02-.15-.02-.25.01-.29 1.07-.33 2.08-.8 3.04-1.4 1.24-.78 2.45-1.7 3.63-2.75.3-.26.53-.57.83-.83.53-.45 1.05-.93 1.56-1.44Z" fill="#9A9A9A"/><path d="m21.8 22.09-.48 1.26c.08-.18.1-.32.07-.42-.03-.07-.06-.07-.08 0-.12.3-.29.53-.5.73l-.68.68c-.02.02-.05.02-.07 0l-.08-.08c-.02-.02-.02-.05 0-.07l.92-1c.1-.17.23-.3.4-.36a.3.3 0 0 0 .13-.12l.37-.62Z" fill="#F3AA5D"/><path d="M8.94 23.3a24.6 24.6 0 0 0 2.5 2.25c.3.24.62.45.97.66.34.19.66.4.98.62.31.22.78.48 1.41.79.75.36 1.24.59 1.48.69.52.22 1.13.39 1.83.5l.22.7c-.04.08-.08.11-.13.1a9.4 9.4 0 0 0-8.88-3.68c-1.3-.71-2.17-1.8-1.55-3.4a.13.13 0 0 1 .1-.08.13.13 0 0 1 .1.02l.97.83ZM48.23 22.5c.7 1.14-.06 2.48-1 3.2-1.45.76-2.9 1.57-4.32 2.4-.83.5-2.18 1.01-4.05 1.56l.33-.94c1.34-.39 2.45-.89 3.33-1.5.82-.59 1.3-.93 1.46-1.03.85-.54 1.68-1.27 2.29-1.93.59-.65 1.24-1.24 1.96-1.77Z" fill="#FDFEFE"/><path d="M18.11 28.56c.03.1.03.2 0 .26-.7-.12-1.3-.3-1.83-.51a47 47 0 0 1-1.48-.7c-.63-.3-1.1-.56-1.41-.78a12.6 12.6 0 0 0-.98-.62c-.35-.2-.68-.42-.97-.66-.88-.69-1.71-1.44-2.5-2.25l.08-.16a22.18 22.18 0 0 0 9.1 5.42Z" fill="#9A9A9A"/><path d="M37.56 24.6c.09.27.25.44.48.51a3.78 3.78 0 0 1-.37 1.25c-.19.26-.35.48-.5.66.06-.93-.43-1.65-1.49-2.17.1-.08.14-.17.12-.27a4.1 4.1 0 0 1 1.51 1.6c.07.13.15.13.22 0l.1-.17a.7.7 0 0 0 .07-.48c-.11-.56-.48-.98-1.1-1.27-.4-.18-.81-.29-1.26-.33a1 1 0 0 1-.05-.39c.75.25 1.5.6 2.27 1.06Z" fill="#B35C30"/><path d="M19.69 25.89c.27-.8.71-1.5 1.32-2.1-.05-.06-.03-.08.07-.07a.15.15 0 0 1 .13.08.16.16 0 0 1 0 .16l-1.26 2.23c-.02.04-.05.05-.09.02a.5.5 0 0 1-.17-.32Z" fill="#F3AA5D"/><path d="M35.8 24.58c-.2-.15-.35-.36-.46-.65.45.04.87.15 1.26.33.62.29.99.7 1.1 1.27a.7.7 0 0 1-.08.48l-.09.16c-.07.14-.15.14-.22 0a4.1 4.1 0 0 0-1.51-1.59Z" fill="#FDC66E"/><path d="M37.18 27.02c-.2.28-.32.61-.4 1 .06-.12.02-.1-.13.02l-.82-2.42c-.04-.14-.1-.4-.15-.77 1.06.52 1.55 1.24 1.5 2.17Z" fill="#FDC66E"/><path d="M20.28 26.18c.18-.43.35-.76.5-.98.16-.24.22-.22.17.07l-.32 1.98c-.03.2-.09.2-.17.03l-.35-.72a.17.17 0 0 1-.01-.1c0-.03.01-.06.03-.08l.07-.1.08-.1Z" fill="#F3AA5D"/><path d="M47.23 25.7c.01.09.06.16.15.22-.31.1-.55.2-.7.3a43.36 43.36 0 0 1-4.13 2.38 21.72 21.72 0 0 1-3.9 1.36c.1-.28.17-.38.2-.3a19.15 19.15 0 0 0 4.06-1.56c1.43-.83 2.87-1.64 4.32-2.4Z" fill="#5B7070"/><path d="m9.27 26.05 3.34 1.75c-.31.48-.73.83-1.24 1.06L10 28.14a7.52 7.52 0 0 1-.87-.8c-.36-.37-.5-.81-.4-1.32 0-.06.04-.1.1-.1.15-.01.3.03.45.13Z" fill="#FDFEFE"/><path d="m18.33 29.51.16.4a8.9 8.9 0 0 1-1.9-.46c-.36-.13-.7-.25-1.06-.35l-2.92-1.3-3.34-1.75a.1.1 0 0 0 .05-.03c.01 0 .02-.02 0-.04v-.05c.48.17.78.28.9.34l3.1 1.61a22.18 22.18 0 0 0 4.88 1.72c.05.02.09 0 .13-.09Z" fill="#5B7070"/><path d="M47.38 25.92c.22.32.22.66.02 1-.26.42-.69.89-1.3 1.4l-3.62 1.7c.38-.54.4-1.02.07-1.42 1.42-.72 2.8-1.51 4.13-2.38.15-.1.39-.2.7-.3Z" fill="#FDFEFE"/><path d="M20.98 26.8c-.02.45-.03.9.09 1.33.22.76.33 1.64.65 2.31A6.69 6.69 0 0 0 24 33.18c.68.47 1.6.75 2.74.86a9.54 9.54 0 0 0 4.13-.48c1.46-.52 2.33-.84 2.63-.96 1.22-.5 1.85-1.67 2.22-2.96.3-1 .33-2.05.12-3.12.32.78.54 1.42.65 1.94.2.86.3 2.29-.1 3.09a3.98 3.98 0 0 1-1.41 1.55 10.18 10.18 0 0 1-4.1 1.49c-1.8.27-3.6.28-5.4.03a8.16 8.16 0 0 1-1.78-.44 16.4 16.4 0 0 1-1.64-.74c-.39-.2-.69-.45-.9-.74a3.94 3.94 0 0 1-.76-3.41c.31-1.23.5-2.05.57-2.48Z" fill="#B35C30"/><path d="M20.21 27.35a1.47 1.47 0 0 0-1.33.57c-.1.12-.15.1-.16-.04l-.02-.15c.17-.42.46-.69.87-.8.17-.05.3-.03.39.06.08.08.16.2.25.36Z" fill="#FDC66E"/><path d="M37.02 30.02h.7c.07 0 .12-.03.16-.08.66-1.03.82-2.16-.73-2.54.21-.4.47-.56.78-.47.32.1.56.3.74.65.12.24.16.55.11.9a2.4 2.4 0 0 1-1.12 1.83c-.5.28-.7.19-.64-.3Z" fill="#F3AA5D"/><path d="m18.7 27.73.02.15c.01.15.07.16.16.04.31-.41.76-.6 1.33-.57.28.34.3.81.1 1.4a6.1 6.1 0 0 0-.24.78c-.05.27-.07.54-.08.82 0 .1-.05.14-.15.11-.54-.13-.9-.45-1.08-.96a2.75 2.75 0 0 1-.06-1.77ZM37.15 27.4c1.55.38 1.4 1.5.73 2.54a.17.17 0 0 1-.16.08h-.7a6.21 6.21 0 0 0-.37-1.98c.15-.13.2-.14.14-.03.1.05.22-.15.36-.6Z" fill="#C56D38"/><path d="m12.61 27.8 2.92 1.3c-.28.35-.43.75-.47 1.21a23.41 23.41 0 0 1-3.69-1.45c.51-.23.93-.58 1.24-1.05Z" fill="#D0E7E6"/><path d="M11.37 28.86c1.2.6 2.43 1.08 3.69 1.45 1.34.48 2.73.78 4.15.88.12 0 .33.06.61.15.07.02.09.07.07.13l-.06.09c-.21.07-.4.1-.57.07-1.35-.22-2.89-.6-4.63-1.15-.55-.17-1.17-.41-1.86-.71l-1.84-.8a2.6 2.6 0 0 1-.5-.29 5.3 5.3 0 0 0-.49-.31l.05-.23 1.38.72ZM46.1 28.32l.1.2c-1.25.7-2.27 1.22-3.06 1.56a21.49 21.49 0 0 1-4.94 1.45c-.47.09-.86.06-1.17-.08-.02 0-.04 0-.05.02l-.27.47a.04.04 0 0 0 .02.06h.01c.6.02 1.2 0 1.79-.08 1.46-.03 2.88-.26 4.27-.69.3-.09.62-.22.97-.39l.95-.45.01.23a8.4 8.4 0 0 1-2.9 1.2c-.74.1-1.47.22-2.2.33-.9.12-1.8.17-2.69.13l-.68.18.72-1.35c.47.14 1.03.15 1.7.01 1.4-.27 2.66-.64 3.8-1.1l3.62-1.7Z" fill="#5B7070"/><path d="m9.94 28.37.49.31c.18.13.35.23.5.3l1.84.79c.69.3 1.3.54 1.86.7 1.74.56 3.28.94 4.63 1.16.17.03.36 0 .57-.07.07 0 .12 0 .17-.02l.18.33c-.1.07-.23.09-.4.04a1.34 1.34 0 0 0-.39-.06c-2 .1-3.92-.13-5.76-.67-.67-.2-1.4-.5-2.21-.94-.33-.2-.65-.44-.97-.73a2.23 2.23 0 0 1-.6-.78c-.05-.13-.02-.25.1-.36ZM46.2 28.51l.07.04c.05.05.07.1.05.17-.07.27-.17.48-.32.63-.3.3-.72.65-1.28 1.04l-.95.45c-.35.17-.68.3-.97.4-1.39.42-2.81.65-4.27.68l-.29-.01c-.06 0-.08-.03-.07-.1l.03-.28a21.5 21.5 0 0 0 4.94-1.45c.8-.34 1.81-.86 3.05-1.57Z" fill="#D0E7E6"/><path d="M42.55 28.6c.33.4.3.88-.07 1.42-1.14.46-2.4.83-3.8 1.1-.67.14-1.23.13-1.7 0 .04-.18.08-.27.11-.26.21 0 .42-.03.62-.11.17-.07.49-.34.94-.8 1.35-.32 2.65-.78 3.9-1.35ZM18.49 29.92c.3.54.73.87 1.32 1 .06.02.1.06.1.12l.09.5a.33.33 0 0 1-.17.02.24.24 0 0 0 .06-.09c.02-.06 0-.1-.07-.13-.28-.1-.49-.14-.6-.15-1.43-.1-2.82-.4-4.16-.88.04-.46.2-.86.47-1.21.35.1.7.22 1.06.35.6.22 1.23.38 1.9.47Z" fill="#BAD8D9"/><path d="m20.18 31.87 1.13 1.58a.06.06 0 0 1 0 .06c0 .01 0 .02-.02.03h-.02c-.54.02-1 .2-1.4.55l-3.02.16-.04-.04-.06-.14 2.38-.26c.21-.03.3-.14.24-.35l-.07-.28a.36.36 0 0 0-.13-.2.34.34 0 0 0-.22-.07c-1.91.08-3.81 0-5.7-.25-.08 0-.2-.11-.38-.3l.03-.23c.6.25 1.33.4 2.21.43a32.47 32.47 0 0 0 4.54-.1l.02-.02.04-.07c.01-.02 0-.03-.01-.03-1.85-.08-3.64-.3-5.37-.67a9.62 9.62 0 0 1-2-.74 1.03 1.03 0 0 0-.3-.07.25.25 0 0 1-.16-.08c-.1-.11-.21-.2-.34-.26.04-.02 0-.1-.11-.28.8.43 1.54.75 2.21.94 1.84.54 3.76.76 5.76.67.1 0 .23.02.39.06.17.05.3.03.4-.04Z" fill="#578285"/><path d="M11.53 30.52c.13.06.24.15.34.26.04.05.1.08.16.08.13.02.23.04.3.07.8.38 1.47.62 2 .74 1.73.36 3.52.59 5.37.67.02 0 .02 0 .01.03l-.04.07-.02.02h-.02c-1.24.14-2.75.17-4.52.1a6.23 6.23 0 0 1-2.2-.43 2.32 2.32 0 0 1-1.43-1.45c-.03-.09-.02-.14.05-.16ZM44.73 30.62c.07.08.07.2-.02.35-.1.18-.2.35-.33.5-.23.3-.6.42-.9.7l-.54.2c-.2.07-.39.11-.55.13-1.77.17-3.55.2-5.32.09a.17.17 0 0 1-.15-.1c-.03-.06-.02-.13.02-.2.9.03 1.79-.02 2.68-.14l2.2-.33a8.4 8.4 0 0 0 2.91-1.2Z" fill="#BAD8D9"/><path d="m38.2 31.53-.03.29c-.01.06.01.09.07.09l.29.01a12.3 12.3 0 0 1-1.82.06v-.04l.27-.47c.01-.02.03-.03.05-.02.31.14.7.17 1.17.08Z" fill="#92BABB"/><path d="M43.48 32.17c.04.18.03.38-.03.6.03-.1.01-.16-.06-.16a.37.37 0 0 0-.29.1c-1.91.23-3.83.31-5.74.25-.03 0-.05.01-.06.05l-.06.81c0 .04.01.06.05.06l2.33.18a.7.7 0 0 1 .25.04c-.42.04-.5.12-.27.23l-3.18-.2a.14.14 0 0 0-.15.08l-.51.98-1.87-.86a.14.14 0 0 1-.08-.08.15.15 0 0 1 0-.1c.01-.03.05-.06.12-.08a6.4 6.4 0 0 0 2.33-1.6l.68-.19c-.04.08-.05.15-.02.21.03.06.08.1.15.1 1.77.1 3.55.08 5.32-.1.16 0 .35-.05.55-.13l.54-.19Z" fill="#578285"/><path d="M12.87 32.35c.17.2.3.3.38.31.1.2.25.33.43.4a20.23 20.23 0 0 0 2.59.71.11.11 0 0 1 .04.1l-.02.05a.28.28 0 0 1-.09.08c-.95-.18-1.88-.43-2.78-.77-.36-.14-.54-.43-.55-.88ZM43.45 32.77c-.1.28-.34.48-.7.59-.97.28-1.92.53-2.88.74a.71.71 0 0 0-.25-.04c-.1-.01-.17-.04-.2-.07-.03-.05-.02-.09.04-.1 1.34-.28 2.31-.5 2.9-.69.22-.07.47-.23.74-.5.1-.07.2-.1.29-.1.07.02.09.07.06.17Z" fill="#D0E7E6"/><path d="M16.75 34.07c-.2 0-.37-.01-.55-.07a.28.28 0 0 0 .09-.08.11.11 0 0 0-.02-.15 20.25 20.25 0 0 1-2.59-.72.8.8 0 0 1-.43-.39c1.89.25 3.79.33 5.7.25.08 0 .16.03.22.07.07.05.11.12.13.2l.07.28c.05.2-.03.32-.24.35l-2.38.26ZM43.1 32.7c-.27.27-.52.43-.73.5-.6.18-1.57.41-2.9.69-.07.01-.08.05-.04.1.02.03.09.06.19.07l-2.33-.18c-.04 0-.06-.02-.05-.06l.06-.81c0-.04.03-.05.06-.05 1.91.06 3.83-.02 5.74-.26Z" fill="#92BABB"/><path d="M21.53 33.94c-.72.3-1.36.69-1.92 1.15.42-1.01 1.05-1.4 1.92-1.15Z" fill="#F3AA5D"/><path d="M19.61 35.09c.56-.46 1.2-.84 1.92-1.15l.35.28a.1.1 0 0 1 .04.08.1.1 0 0 1-.04.08.68.68 0 0 1-.23.09c-.02 0-.04.02-.04.05v.05c0 .03.02.04.04.04h.53c.06 0 .1.03.13.09.28.57.15 1-.37 1.28-.19.1-.4.15-.65.15-.08 0-.15.02-.19.05-.07.06-.1.14-.08.24.01.07-.02.1-.08.09-.08-.01-.13-.03-.15-.06a.8.8 0 0 0-.75-.34.26.26 0 0 1-.17-.05c-.3-.22-.39-.54-.26-.97Z" fill="#DB8545"/><path d="m22.74 34.9-.47-.7c-.2-.27-.14-.33.15-.17.32.17.7.32 1.17.45.18.05.19.1 0 .18l-.72.29a.1.1 0 0 1-.13-.04Z" fill="#578285"/><path d="M19.87 34.1c-.39.48-.6.86-.65 1.14a2.9 2.9 0 0 0-1.41-.55c-.2-.03-.36-.08-.5-.16l-.46-.28 3.02-.16ZM39.6 34.33c-.45.52-1 .74-1.67.66a3.06 3.06 0 0 0-.76-.03c-.3.06-.55.15-.73.29a.15.15 0 0 0-.06.15c.02.14.02.22.01.24-.15.3-.27.28-.35-.03 0-.02 0-.07.04-.14.03-.07.02-.13-.04-.17a.59.59 0 0 0-.28-.1l.51-.99a.14.14 0 0 1 .15-.08l3.18.2Z" fill="#92BABB"/><path d="m16.81 34.21.04.04.46.28c.14.08.3.13.5.16.62.1 1.1.28 1.41.55l-.02.47c0 .08-.04.1-.1.06-.15-.08-.24-.23-.27-.46a.15.15 0 0 0-.1-.13c-.4-.14-1.4-.17-1.96-.62a.23.23 0 0 1-.09-.16c0-.1.04-.16.13-.19Z" fill="#BAD8D9"/><path d="M38.5 36.06c-.32-.3-.64-.47-.96-.52-.45-.06-.77.1-.93.45a.63.63 0 0 1 .05-.5c.14-.23.44-.22.7-.25.6-.06.98.22 1.15.82Z" fill="#F3AA5D"/><path d="M38.5 36.06c.16.34.1.6-.16.76-.32.2-.79.07-1.12.26a.4.4 0 0 1-.56-.19 1.56 1.56 0 0 0-.32-.5.25.25 0 0 1-.07-.1.22.22 0 0 1-.02-.1c0-.04.02-.07.04-.1a.13.13 0 0 1 .08-.04c.04 0 .09 0 .14.04.03.02.06 0 .07-.03l.03-.07c.16-.36.48-.5.93-.45.32.05.64.22.97.52Z" fill="#C56D38"/><path d="M28.29 21.3c1.34.3 2.68.4 4.02.28.06 0 .11.02.16.06.6.56 1 1.1 1.17 1.6.72 2.05.74 4.07.06 6.04a4.8 4.8 0 0 1-1.86 2.24c-2.91 1.83-7.32 1.62-8.9-1.95a19.5 19.5 0 0 1-.89-2.42c2.1.2.9-2.32.14-2.6.03-1.06.24-2.07.66-3.02.5-1.14 1.54-1.24 2.62-1.07.62.1 1.56.38 2.82.84Z" fill="#EA9951"/><path d="M32.08 23.7a3.38 3.38 0 0 0-2.18.23c-.11.05-.15.14-.12.27l.11.47c.02.07.06.1.13.1.1 0 .35-.03.75-.1a2.86 2.86 0 0 1 1.73.2 4.2 4.2 0 0 0-.13 1.47c-.13.1-.22.16-.29.17a2.74 2.74 0 0 1-2.1-.75.09.09 0 0 0-.1.04l-.12.22c-.04.08-.03.15.04.2l1.77 1.54c-.27.18-.51.4-.74.65a.7.7 0 0 0-.17.59 1.7 1.7 0 0 0-1.17-.1c-.66.14-1.32.3-1.97.48-.74.21-1.64.2-2.7-.05a3.65 3.65 0 0 0-1.24-1.97c.51-.22.99-.5 1.43-.84.15-.12.18-.27.09-.44a.2.2 0 0 0-.12-.09.2.2 0 0 0-.14 0c-.5.24-1.03.37-1.56.4l-.34-1.55c.3.01.86.11 1.7.3.1.02.2-.04.3-.2.06-.07.04-.09-.04-.07-.2.06-.56 0-1.1-.19a1.8 1.8 0 0 0-1.28.04c-.13.05-.16 0-.1-.12l.17-.35c.05-.13.16-.2.3-.21.73-.07 1.42.1 2.06.5l.04-.01v-.06l-1.14-.6c.7-2.17 2.53-2.23 4.45-1.87 1.41.27 2.67.71 3.78 1.7Z" fill="#FDC66E"/><path d="M32.08 23.7c.55.18.82.57.8 1.16 0 .07-.03.11-.1.13-.08.01-.17-.03-.28-.12a2.86 2.86 0 0 0-1.73-.2c-.4.07-.65.1-.75.1-.07 0-.11-.03-.13-.1l-.11-.48c-.03-.12 0-.2.12-.26.68-.32 1.4-.4 2.18-.24Z" fill="#5B241F"/><path d="m23.85 23.87 1.13.6c.02.01.02.03.01.06 0 .02-.02.02-.04 0a3.22 3.22 0 0 0-2.06-.49.35.35 0 0 0-.3.2l-.17.36c-.06.13-.03.17.1.12a1.8 1.8 0 0 1 1.28-.04c.54.18.9.25 1.1.2.08-.03.1 0 .05.07-.11.15-.22.21-.32.19-.83-.19-1.4-.29-1.7-.3-.21.13-.45.2-.7.23-.14-.1-.16-.26-.04-.52.1-.25.24-.45.41-.62.05-.04.1-.06.17-.06h1.08Z" fill="#021418"/><path d="m22.94 24.84.34 1.55a1.25 1.25 0 0 1-.68-.45l-.06.01c-.03.02-.03.04-.02.08.08.27.24.49.47.64.08.05.07.08-.02.09-.2.01-.43-.12-.7-.4a.06.06 0 0 0-.07 0 .06.06 0 0 0-.02.07c.06.1.14.2.25.33.14.15.1.22-.1.2l-.33-.03.24-1.86c.24-.03.48-.1.7-.23Z" fill="#F3AA5D"/><path d="m32.37 26.34.12-.1c.12-.12.16-.1.1.07-.08.27-.26.48-.54.64-.13.08-.12.12.04.12h.42l.03.01.01.03v.06a.82.82 0 0 0-.38.21c-.05.05-.04.07.02.08.04 0 .08 0 .12-.02h.03l.01.02v.04l-.03.02c-.29.2-.54.29-.75.24l-1.77-1.53c-.07-.06-.08-.13-.04-.21l.12-.22a.09.09 0 0 1 .06-.04.09.09 0 0 1 .07.02c.6.53 1.3.77 2.07.73.06 0 .16-.06.29-.17ZM23.28 26.4a4.26 4.26 0 0 0 1.56-.4.2.2 0 0 1 .26.08c.1.17.06.32-.1.44-.43.33-.9.62-1.42.84l-.7.26c-.08-.27-.36-.43-.83-.47-.1-.05-.14-.1-.15-.15 0-.04.03-.06.1-.07l.33.04c.2.01.24-.06.1-.21-.11-.12-.2-.23-.25-.33a.06.06 0 0 1 .02-.08.06.06 0 0 1 .08 0c.26.29.5.42.7.4.08 0 .09-.03.01-.08-.23-.15-.39-.37-.47-.64-.01-.04 0-.06.02-.08a.08.08 0 0 1 .06 0h.01c.17.22.4.36.67.44Z" fill="#030304"/><path d="M30.66 29c.4.3.62.7.68 1.22 0 .04 0 .06-.04.06h-.07c-.03 0-.05-.02-.06-.05-.06-.25-.19-.5-.38-.73a.17.17 0 0 0-.13-.06.16.16 0 0 0-.12.05c-.32.36-.99.91-1.46 1.1-1.4.57-3.17.4-4.11-.95a.28.28 0 0 0-.15-.12l-.25-.09a.06.06 0 0 1-.03-.02l-.01-.03a.07.07 0 0 1 .03-.06c.06-.04.15-.03.27.01 1.05.24 1.95.26 2.69.05.65-.18 1.3-.34 1.97-.49.45-.1.84-.06 1.17.11Z" fill="#112529"/><path d="M19.78 21.18h-.01a.03.03 0 0 1-.02 0v-.03c-.02-.03 0-.07.04-.11.03-.04.1-.09.17-.14l.29-.13c.1-.05.22-.09.34-.13l.12-.03c.24-.07.48-.12.66-.12.19 0 .3.02.32.08v.04l-.02.01-1.89.56Z" fill="#FDC66E"/><path d="M27.46 31.85c.15 0 .41-.12.8-.36.04-.03.06-.02.08.03v.1c-.22.24-.71.63-1.04.53a.5.5 0 0 1-.29-.18c-.16-.24-.12-.3.13-.16.05.03.15.04.32.04Z" fill="#5B241F"/><path d="M27.08 28.25c.06.09.26.17.59.23.08.02.09.05.01.1a.67.67 0 0 1-.5.05c-.32-.08-.43-.3-.32-.65.07-.25.2-.39.4-.43.17-.04.18 0 .05.1-.17.14-.27.28-.28.42 0 .07 0 .13.05.18Z" fill="#030304"/><path d="M32.26 24.45c-.64-.2-1.32-.2-2.04.01-.08.02-.15 0-.2-.08a.27.27 0 0 1-.04-.1c-.02-.13.04-.22.16-.25a4.75 4.75 0 0 1 1.9-.08c.4.06.54.26.68.61.06.13.02.16-.1.1a4.7 4.7 0 0 0-.36-.21Z" fill="#FCE293"/><path d="M25.5 29.78c.98.08 1.74.04 2.29-.14.98-.31 1.58-.5 1.8-.55.25-.05.5-.05.74.02.07.01.08.05.04.11a3.2 3.2 0 0 1-2.33 1.37 3.1 3.1 0 0 1-2.56-.74c-.07-.05-.06-.08.03-.07Z" fill="#FDFEFE"/></svg>