<svg width="224" height="224" viewBox="0 0 56 56" xmlns="http://www.w3.org/2000/svg"><path d="M15.69 23c.03 0 .06.02.08.04l.04.08 1.3 9.64a.19.19 0 0 1-.03.14.17.17 0 0 1-.13.06h-2.21c-.02 0-.04 0-.06-.02a.1.1 0 0 1-.03-.06l-.13-1.55a.14.14 0 0 0-.04-.08.13.13 0 0 0-.1-.04h-.67a.13.13 0 0 0-.09.04.14.14 0 0 0-.04.1l-.11 1.54a.1.1 0 0 1-.03.05.08.08 0 0 1-.06.03l-2.2.03a.17.17 0 0 1-.14-.06.18.18 0 0 1-.04-.14l1.19-9.66c0-.03.02-.06.04-.08a.12.12 0 0 1 .08-.03 89.1 89.1 0 0 1 3.38-.02Zm17.73.01a.13.13 0 0 1 .07.08v.05l-1.16 9.73a.14.14 0 0 1-.13.12H29.1a.1.1 0 0 1-.1-.09c-.19-1.38-.41-3.2-.68-5.48a.32.32 0 0 0-.04-.13h-.03a.03.03 0 0 0-.02.01l-.75 5.56c-.01.04-.03.07-.06.1a.16.16 0 0 1-.1.04H24.3a.19.19 0 0 1-.13-.05.18.18 0 0 1-.06-.11L23 23.09v-.03l.02-.03.03-.02H25.36c.03 0 .07 0 .1.03.02.02.03.05.04.09l.59 6.57v.01H26.17l.02-.01.01-.03.08-1.25c.02-.4.07-.81.13-1.25.18-1.26.32-2.59.42-3.99 0-.05.03-.1.06-.13a.2.2 0 0 1 .14-.05h2.45c.04 0 .07.02.1.04l.04.08.7 6.6h.01l.02.01h.02l.01-.02.62-6.62a.1.1 0 0 1 .1-.09h2.28l.05.01Zm3.56 0a2.56 2.56 0 0 1 1.78.72 2.49 2.49 0 0 1 .74 1.76v5.03a2.45 2.45 0 0 1-1.57 2.3c-.3.12-.64.18-.97.18h-.94a2.56 2.56 0 0 1-2.33-1.54c-.13-.3-.2-.63-.19-.95v-5.03a2.45 2.45 0 0 1 1.57-2.3c.3-.12.64-.18.97-.18h.94Zm6.39 0a3.97 3.97 0 0 1 1.47.32 1.67 1.67 0 0 1 .71 1.35c.07.79.06 1.37 0 1.75-.13.65-.45 1.04-.97 1.17a.86.86 0 0 0-.2.06c-.01 0-.02 0-.02.02v.02l.01.02.02.01c.85.13 1.28.7 1.29 1.7v3.42c0 .04-.02.08-.05.1a.15.15 0 0 1-.1.05h-2.05a.13.13 0 0 1-.1-.04.14.14 0 0 1-.03-.1v-3.84c0-.14-.05-.29-.13-.41a.69.69 0 0 0-.34-.26l-.04-.01a.33.33 0 0 0-.32.04.35.35 0 0 0-.15.29v4.18c0 .04 0 .08-.03.1a.14.14 0 0 1-.1.05h-2.12a.12.12 0 0 1-.09-.04.12.12 0 0 1-.03-.09V23.2c0-.05.02-.1.05-.13a.17.17 0 0 1 .12-.05h3.2Zm8.38 0s.02.01.02.03l.02.03v.04c-.47 1.49-.9 2.82-1.3 3.98a1 1 0 0 0-.02.62A1184.71 1184.71 0 0 1 52 32.92c0 .02 0 .03-.02.04l-.02.03h-2.41a.14.14 0 0 1-.09-.02.16.16 0 0 1-.05-.09l-.77-3.31a5.13 5.13 0 0 0-.27-.84h-.01v4.14c0 .04-.02.07-.04.1a.12.12 0 0 1-.1.03h-2.1a.1.1 0 0 1-.09-.03.12.12 0 0 1-.03-.09v-9.76c0-.03.01-.06.03-.08a.1.1 0 0 1 .08-.03h2.17c.02 0 .04 0 .05.02a.1.1 0 0 1 .03.06v3.67l.01.03h.06l.02-.02 1-3.58c.02-.06.06-.1.1-.14.04-.03.1-.05.15-.05h2.05Zm-32.6.07a4.8 4.8 0 0 1 2.13.08c.76.2 1.26.66 1.49 1.36.13.42.18 1.12.16 2.09v.06c0 .02-.01.04-.03.05a.08.08 0 0 1-.05.03h-2.32a.13.13 0 0 1-.1-.04.13.13 0 0 1-.03-.1v-1.63a.35.35 0 0 0-.14-.27.36.36 0 0 0-.3-.07h-.03c-.11.02-.21.07-.29.16a.45.45 0 0 0-.1.3v5.8c0 .11.04.23.13.31.08.09.2.14.31.14h.05a.43.43 0 0 0 .32-.1.4.4 0 0 0 .13-.3v-1.91l-.01-.01-.02-.01h-.39a.09.09 0 0 1-.1-.1v-1.17a.1.1 0 0 1 .04-.08.11.11 0 0 1 .08-.03h2.84c.02 0 .04 0 .06.02l.02.06v5a.09.09 0 0 1-.1.09h-1.39a.23.23 0 0 1-.15-.06.23.23 0 0 1-.07-.14c-.03-.18-.05-.3-.09-.35l-.01-.02h-.06c-.77.72-1.68.93-2.74.63-.4-.12-.74-.44-1-.96a3.3 3.3 0 0 1-.36-1.38c-.05-1.28-.04-2.85.03-4.68a3.7 3.7 0 0 1 .34-1.69c.34-.56.92-.92 1.75-1.08ZM5.13 23h3.58a3 3 0 0 1 1.36.27c.05.02.1.05.13.09.43.36.64 1.03.63 1.99v.19c0 .49-.04.83-.1 1.03-.11.32-.34.55-.67.69l-.38.1c-.15.03-.25.05-.29.07l-.02.02v.03l.01.02h.02c1.07.2 1.6.89 1.6 2.08v.46a5.3 5.3 0 0 1-.16 1.7c-.2.55-.64.93-1.3 1.13-.28.08-.7.13-1.27.13-1.47 0-2.51 0-3.13-.03a.15.15 0 0 1-.14-.15v-9.7a.13.13 0 0 1 .13-.12Zm31.36 1.6a.47.47 0 0 0-.47.47v5.86c0 .26.21.47.47.47h.02c.26 0 .47-.2.47-.47v-5.86a.47.47 0 0 0-.47-.47h-.02ZM7.58 28.4a.11.11 0 0 0-.11.1l-.01 2.72c0 .03 0 .06.03.08.02.02.05.03.08.03h.19a.65.65 0 0 0 .45-.18.63.63 0 0 0 .2-.44v-1.69a.63.63 0 0 0-.19-.44.65.65 0 0 0-.45-.19h-.2Zm6.46-3.46c-.03 0-.04.04-.05.12a113.94 113.94 0 0 1-.37 4.31c0 .02.02.03.03.04l.03.02a3.75 3.75 0 0 1 .7 0 .1.1 0 0 0 .06-.1c-.13-1.24-.25-2.67-.36-4.27 0-.08-.02-.12-.04-.12Zm-6.48-.38a.1.1 0 0 0-.07.03.1.1 0 0 0-.03.07v2.13a.1.1 0 0 0 .1.1h.21a.62.62 0 0 0 .63-.64V25.2a.62.62 0 0 0-.63-.63h-.21Zm34.9 0c-.03 0-.04.02-.05.03a.07.07 0 0 0-.03.05v2.1l.03.04c0 .02.02.02.04.02h.23c.18 0 .35-.07.47-.2.12-.12.2-.3.2-.47v-.89a.68.68 0 0 0-.2-.47.66.66 0 0 0-.47-.2h-.23Z"/></svg>