<svg width="224" height="224" viewBox="0 0 56 56" xmlns="http://www.w3.org/2000/svg"><rect fill="#FCFC06" width="56" height="56" rx="28"/><path d="M36.25 43.14a.97.97 0 0 1-.22.51c-.33.39-1.16.14-1.47-.12l-.26-.21c-.06-.06-.12-.09-.15-.08-1.34.03-3.26-.09-3.3-1.72a26.6 26.6 0 0 0-.07-1.84c0-.05-.03-.07-.08-.04a12.64 12.64 0 0 1-7 1.19c-.04 0-.06 0-.08.02a.1.1 0 0 0-.05.06 17.81 17.81 0 0 1-.92 3.28.24.24 0 0 1-.07.1.26.26 0 0 1-.1.05c-.67.16-1.34.26-2.01.3-.18 0-.36.04-.52.12-.5.22-1.27.46-1.6-.12a.26.26 0 0 0-.14-.12.27.27 0 0 0-.18 0c-.4.17-.8.24-1.24.23-.42-.02-1.2 0-.97-.68a.06.06 0 0 0-.01-.06l-.03-.02h-.03c-.4.04-1.16.15-1.09-.44.07-.53.3-.94.71-1.23a.08.08 0 0 0 .04-.09 3.18 3.18 0 0 0-.25-.81c-.18-.37-.3-.77-.36-1.2a9.47 9.47 0 0 1-.05-1.53c0-.04-.02-.07-.06-.07a3.14 3.14 0 0 1-2.66-1.57c-.06-.1-.04-.17.07-.23a13.47 13.47 0 0 0 2.32-1.67v-.08c-.3-.96-.5-1.93-.6-2.92 0-.05-.02-.06-.07-.05-.22.08-.4.1-.56-.09-.36-.4-.46-.87-.3-1.4.02-.04 0-.07-.04-.08-.82-.21-.24-1.18.18-1.45a.27.27 0 0 0 .12-.17c.1-.6.35-1.14.72-1.63.12-.16.2-.28.23-.37.15-.37.33-.55.66-.91.12-.14.22-.29.31-.45.35-.63.71-1.19 1.08-1.67a.06.06 0 0 0 0-.08 7.51 7.51 0 0 0-.24-.4 1.8 1.8 0 0 1-.26-1.1c.03-.64.17-1.24.43-1.8a.2.2 0 0 0-.01-.19l-1.55-2.51a.85.85 0 0 1-.03-.88 3.93 3.93 0 0 1 3.99-2.28c.16 0 .31.1.44.28l1.8 2.57c.03.03.06.04.1.03.3-.07.6-.1.9-.1.28 0 .56.1.84.34.03.02.06.02.08-.02a5.5 5.5 0 0 1 1.68-1.76.28.28 0 0 0 .1-.12.92.92 0 0 0 .06-.15c.54-2.66 2.35-4.76 5.4-4.6.98.04 1.82.36 2.53.97a.07.07 0 0 0 .1 0A4.1 4.1 0 0 1 35.3 11c1.5-.07 2.59.78 2.98 2.14l.1.3c0 .03.03.05.07.07.57.2 1.08.39 1.48.83.22.23.4.3.74.5a1 1 0 0 1 .36.41l.23.38c.12.19.2.32.2.4.09.49-.03.94-.34 1.35-.07.1-.1.22-.06.36 0 .03.02.06.05.09a3.5 3.5 0 0 1 1.38 2.7c.02.4.02.72-.02.95-.03.17-.15.24-.31.31l-1.04.5c-.03.01-.05.04-.04.08.05.47-.13.85-.54 1.14l-.27.2c-.03.02-.04.05-.02.1.23.5.05.88-.53 1.1-.16.07-.26.1-.35.23-.13.19-.24.34-.33.43-.1.1-.08.18.03.26.19.12.51.17.7.25.43.18.82.42 1.15.71.38.32.8.7 1.27 1.14.26.24.4.5.43.77.02.17.06.31.13.42.22.38.4.82.53 1.33.01.03.03.07.07.09.36.28.57.61.63 1 .05.32-.08.51-.4.59-.05 0-.06.03-.05.07.1.3.12.58.08.85-.08.56-.55.85-1.07.53l-.27-.22a.2.2 0 0 0-.15-.05l-.49.04a.1.1 0 0 0-.08.06l-.12.46c-.06.25-.38.35-.62.23-.43-.21-.54-.52-.67-.94a.14.14 0 0 0-.08-.1 53.56 53.56 0 0 1-3.67-1.9c-.03-.02-.05 0-.05.03-.12.76-.3 1.53-.56 2.31a.18.18 0 0 0 0 .12.2.2 0 0 0 .08.1c1.97 1.23 3.02 3.48 3.18 5.71a4 4 0 0 1-.13 1.2c-.05.2.02.34.2.45.49.29.75.71.8 1.28.04.34-.13.5-.5.47l-.58-.04c-.04 0-.06.02-.05.06.1.36-.04.59-.43.69-.08.02-.35.03-.79.02a2.24 2.24 0 0 1-1.3-.45l-.02.01v.02Z"/><path d="M30.05 20.4c1.01.02 1.87-.1 2.59-.37.55-.2.98-.56 1.3-1.07a.21.21 0 0 1 .07-.07c.08-.04.3-.15.66-.3.29-.14.6-.53.44-.84-.1-.17-.05-.2.12-.1a4.4 4.4 0 0 0 1.87.67c.85.1 1.72.05 2.6-.16a3.67 3.67 0 0 0 1.05-.46l.02.01V17.83a2.67 2.67 0 0 1-1.66 1.58 4.88 4.88 0 0 1-3.06.17h.03c.18.08.32.13.42.15.86.17 1.69.14 2.5-.1.21-.06.39 0 .51.2a4.46 4.46 0 0 1 .75 2.01c.01.04 0 .07-.05.08-.51.16-.94.55-1.43.71-.47.15-1.01.2-1.47.27-1.41.19-2.75.23-4 .11a6.89 6.89 0 0 1-2.05-.5c-.53-.22-1.08-.6-1.55-.87-.82-.47-2.08-.61-2.69.25-.66.95.13 1.86.98 2.3.62.3 1.34.55 2.15.72.61.12 1.22.22 1.83.28 1.62.17 3.35.21 5.18.12.56-.02 1.15-.1 1.77-.22.15-.02.17.02.08.13-.45.53-1 .94-1.67 1.23-.84.37-1.73.6-2.66.67-2 .17-4.03.2-6.12.08a15.3 15.3 0 0 1-3.2-.5 5.93 5.93 0 0 1-1.05-.42 3.93 3.93 0 0 1-2.14-2.9 8.53 8.53 0 0 1 .34-4.75 5.52 5.52 0 0 1 1.83-2.33c.06-.04.09-.02.07.05-.09.52-.15.98-.18 1.4a3.02 3.02 0 0 0 .03.71 23.6 23.6 0 0 1 .32-2.37c.09-.39.28-.96.58-1.7.33-.8.82-1.48 1.46-2.03.95-.8 2.3-1.12 3.56-1 .97.08 1.64.43 2.36 1.04.3.27.53.57.65.91h.02l.05-.02v-.03l-.54-.9a.12.12 0 0 1-.01-.08c0-.03.02-.06.04-.08a3.3 3.3 0 0 1 1.6-.8c.94-.19 1.98-.22 2.71.35.52.4.85.94 1.02 1.62.01.06-.02.09-.08.08a8.28 8.28 0 0 0-4.27.4l-.26.15c-.03.02-.06.02-.1 0a3.53 3.53 0 0 0-1.67-.81 5.6 5.6 0 0 0-4.11.75 5.62 5.62 0 0 1 3.7-.68 3.67 3.67 0 0 1 2.12 1.07v.03l-.02.02h-.99c-.9.01-1.77.22-2.57.62a26.82 26.82 0 0 0-1.97 1.11l1.52-.77c.66-.33 1.2-.54 1.6-.62.69-.15 1.34-.2 1.96-.17.7.03 1.27.24 1.7.62.1.09.15.19.12.28 0 .04-.03.05-.07.04a6.41 6.41 0 0 0-4.26-.08c-.24.08-.56.23-.96.45l-.94.52a6.78 6.78 0 0 1-1.69.65v.02l.02.01c.39.25.8.36 1.23.34.12 0 .26 0 .4.02.05 0 .08.02.11.05a4.18 4.18 0 0 0 2.67 1.14c.85.08 1.68 0 2.5-.25a2.96 2.96 0 0 0 1.1-.6h.04l.04.04v.04c0 .29-.13.5-.38.62a4 4 0 0 1-1.12.35c-1.14.2-2.2.21-3.17.05a10.21 10.21 0 0 1-.88-.2c.25.11.5.2.74.24l.78.12c.38.06.74.08 1.07.06a30.3 30.3 0 0 0 1.6-.13l.02.02a.06.06 0 0 1 0 .07c-.38.46-.85.79-1.43 1a8.1 8.1 0 0 1-2.13.36Z" fill="#0096FF"/><path d="M39.31 14.48c-1-.15-2.03-.1-3.07.13-.48.11-.9.3-1.26.54-.03.03-.06.02-.1 0-.3-.27-.5-.43-.62-.48a7.24 7.24 0 0 1-.64-.3.13.13 0 0 1 .05-.17c.28-.17.56-.28.82-.34.65-.15 1.29-.24 1.93-.28a6.3 6.3 0 0 1 2.28.27c.27.08.55.22.84.42.07.05.13.1.16.17a.05.05 0 0 1 0 .05l-.03.02h-.03l-.33-.03Z" fill="#0096FF"/><path d="M34.93 15.46c.5-.53 1.22-.68 2.04-.82.74-.13 1.4-.17 2.02-.12.08 0 .2.03.37.07.17.04.36.03.5.07.42.12.73.3.93.53.13.15.1.18-.08.1-.41-.2-.9-.3-1.47-.34-.45-.03-.95-.04-1.5 0a5.8 5.8 0 0 0-2.44.7c-.14.07-.26.05-.37-.05-.04-.05-.04-.09 0-.14Z" fill="#0096FF"/><path d="M18.87 15.27c-.2.5-.33.81-.4.94-.52 1.13-1.82 1.7-3.06 1.77-.04 0-.06.02-.05.06l.07.8-.69-1.1a.8.8 0 0 1-.12-.34.6.6 0 0 1 .06-.33c.69-1.48 1.9-2.22 3.62-2.22.29 0 .48.14.57.42Z" fill="#4F4775"/><path d="M40.24 15.5a8.88 8.88 0 0 0-2.48-.1 4.5 4.5 0 0 0-1.63.5c-.12.07-.38.22-.76.47a.13.13 0 0 1-.09.02.12.12 0 0 1-.08-.04l-.15-.2c-.06-.06-.05-.11.02-.16a5.72 5.72 0 0 1 2.51-.83c.97-.1 1.87-.05 2.69.17.2.05.42.16.66.34.02.01.02.02.02.04v.05h-.01a2.33 2.33 0 0 0-.7-.25Z" fill="#0096FF"/><path d="M17.27 17c.85-.53 1.34-1.25 1.1-1.59-.23-.34-1.1-.18-1.96.36-.85.54-1.34 1.26-1.1 1.6.23.34 1.1.18 1.96-.36Z"/><path d="M19.23 15.76c-.25.1-.27.3-.04.63.92 1.33 1.5 2.2 1.75 2.62.11.18.17.39.16.62a.1.1 0 0 1-.02.06c-.04.05-.09.05-.15-.01a396.46 396.46 0 0 0-2.03-3.06c-.04-.06-.09-.07-.14 0l-.4.5a.17.17 0 0 0-.02.2c.4.6 1.09 1.65 2.03 3.15.09.14.1.26.02.37a3.55 3.55 0 0 1-1.49 1.19.07.07 0 0 0-.01.05v.03l.03.04.03.02h.03c.71-.28 1.35-.69 1.9-1.21.14-.13.3-.25.45-.35 0 .05.06.07.22.06-.26.1-.45.22-.59.35a.13.13 0 0 0 0 .18l.77.9.1 1a.57.57 0 0 0-.3.25.12.12 0 0 1-.09.06.78.78 0 0 1-.35-.02 3.44 3.44 0 0 0-1.7-.19l-.57-.86a.32.32 0 0 0-.27-.15c-.42-.01-.85.03-1.19-.31l-.19-.27a.85.85 0 0 0-.24-.25 3.68 3.68 0 0 0-.56-.96l-.94-1.55-.07-.81c0-.04.01-.06.05-.06 1.24-.08 2.54-.64 3.07-1.77.06-.13.2-.44.39-.94l.36.5Z" fill="#3B2767"/><path d="M28.07 16.83c.18-.06.72-.36 1.6-.89a6.46 6.46 0 0 1 4.54-.41c.23.07.45.16.65.28.06.04.07.08.02.12l-.04.04-.03.01h-.04a4.77 4.77 0 0 0-1.35-.33 5.6 5.6 0 0 0-3.89.8l-.77.54c-.35.24-.8.23-1.18.17-.18-.03-.19-.08-.02-.15l.5-.18Z" fill="#0096FF"/><path d="M39.2 17c-.48-.25-.63-.62-.46-1.13a.1.1 0 0 0 0-.07.1.1 0 0 0-.05-.05l-.22-.11c-.12-.07-.12-.1.02-.1.68 0 1.29.05 1.82.17.29.07.68.24.88.5.08.11.1.25.05.43a1.6 1.6 0 0 1-.82 1.02c-.56.3-1.18.48-1.87.51-.11 0-.12-.02-.03-.07.38-.22.62-.56.72-1.02v-.05a.08.08 0 0 0-.04-.04ZM35.5 16.5c.5-.34.97-.59 1.39-.75.16-.05.18-.02.06.1-.57.61-.61 1.26-.12 1.93.04.05.12.12.23.2a.85.85 0 0 1 .17.17v.02h-.02a4.47 4.47 0 0 1-2-.76.06.06 0 0 1-.03-.08l.16-.61a.36.36 0 0 1 .15-.22Z" fill="#fff"/><path d="m19.23 15.76 1.33 1.9c.04.05.1.09.16.1-.05.03-.06.06-.04.1.17.33.4.6.68.84.17.3.28.55.3.75.07.42-.04.8-.33 1.16-.16.1-.3.22-.44.35a6.03 6.03 0 0 1-1.94 1.21.05.05 0 0 1-.03-.02l-.02-.04a.06.06 0 0 1 0-.08l.03-.02c.61-.28 1.1-.67 1.46-1.17.07-.1.07-.23-.02-.37-.95-1.5-1.62-2.55-2.03-3.16a.17.17 0 0 1 0-.2l.42-.5c.05-.06.1-.05.14 0l1.22 1.85.42.57a3.34 3.34 0 0 1 .39.65c.06.06.11.06.15 0a.1.1 0 0 0 .02-.05c0-.23-.05-.44-.16-.62-.25-.42-.83-1.29-1.75-2.62-.23-.32-.21-.54.04-.63Z" fill="#4F4775"/><path d="M33.09 17.25c-.48-.24-.64-.62-.46-1.13a.1.1 0 0 0 0-.06.1.1 0 0 0-.05-.06l-.22-.11c-.12-.06-.12-.1.02-.1.69 0 1.3.06 1.83.18.28.07.67.24.87.5.08.12.1.26.06.43a1.6 1.6 0 0 1-.83 1.02c-.56.31-1.19.48-1.88.5-.11.01-.12-.01-.02-.07.38-.21.62-.55.72-1.02v-.04a.08.08 0 0 0-.04-.04ZM37.57 16.3c.14 0 .25-.1.25-.24a.25.25 0 0 0-.25-.24c-.14 0-.25.1-.25.24 0 .13.11.24.25.24ZM30.6 17.86a1.78 1.78 0 0 0 .5.51v.02l-.02.01h-.01a3.82 3.82 0 0 1-2.27-1c-.07-.07-.07-.13 0-.18.6-.52 1.25-.91 1.96-1.2.15-.06.17-.03.06.1-.48.53-.56 1.11-.23 1.74ZM31.46 16.56c.14 0 .25-.1.25-.24a.25.25 0 0 0-.25-.25.25.25 0 0 0-.26.25c0 .13.12.24.26.24ZM38.18 16.87c.18 0 .33-.14.33-.32a.33.33 0 0 0-.33-.32.33.33 0 0 0-.34.32c0 .18.15.32.34.32Z" fill="#fff"/><path d="M32.07 17.14c.19 0 .34-.15.34-.33a.33.33 0 0 0-.34-.33.33.33 0 0 0-.34.33c0 .18.15.33.34.33ZM37.01 16.77c.02.14.15.24.28.23a.25.25 0 0 0 .2-.29.25.25 0 0 0-.27-.22.25.25 0 0 0-.2.28ZM31.14 17.24c.14 0 .26-.1.26-.24a.25.25 0 0 0-.26-.25.25.25 0 0 0-.25.25c0 .13.11.24.25.24Z" fill="#fff"/><path d="M21.36 18.7a2.54 2.54 0 0 1-.68-.84c-.02-.04 0-.07.04-.1l.59-.1c.42-.08.78 0 1.09.23.07.06.1.14.05.22l-.34.72c-.04.09-.1.1-.16.02-.07-.08-.27-.13-.59-.15Z" fill="#A94226"/><path d="m40.5 21.7 1.16-.48a.2.2 0 0 0 .09-.08.2.2 0 0 0 .03-.1c.01-.86-.28-2.07-1.04-2.62l.2-.35c.02-.05.05-.06.1-.02.97.76 1.33 2 1.24 3.18-.02.2-.04.28-.23.38-.32.16-.65.3-.97.44a.2.2 0 0 1-.15 0c-.22-.09-.37-.2-.43-.34Z" fill="#4F4775"/><path d="M40.74 18.42c.76.55 1.05 1.76 1.04 2.61a.2.2 0 0 1-.03.11.2.2 0 0 1-.1.08l-1.15.49a3.54 3.54 0 0 0-.93-2.24.07.07 0 0 1 .01-.06l.03-.02c.46-.22.84-.54 1.13-.97Z" fill="#3B2767"/><path d="M29.2 18.6c.04.03.09.03.1.02 0-.01-.04-.04-.1-.05-.04-.02-.09-.03-.1-.01l.1.05Z" fill="#026AFE"/><path d="M16.93 21.36c-.13.39-.11.76.07 1.12.16.32.45.83.88 1.52a.61.61 0 0 0-.1.26c-.15.28-.41.46-.77.52l-.49-.75c-.13-.3-.3-.6-.52-.91-.1-.14-.14-.37-.13-.67.02-.68.19-1.37.5-2.05.23.28.42.6.56.96Z" fill="#A94226"/><path d="M21.55 20.67c.16.43.22.9.18 1.43l-.78-.9a.13.13 0 0 1 .01-.18c.14-.13.33-.24.59-.35Z" fill="#4F4775"/><path d="M28.13 22.45c-.07-.04-.1-.03-.1.05v.05a.13.13 0 0 0 .06.11c.54.31 1.01.54 1.42.7a15 15 0 0 0 4.35.85 24.2 24.2 0 0 0 5.83-.37c.1 0 .16.01.2.04.21.12.32.38.12.56-.11.1-.2.17-.27.2-.72.3-1.5.37-2.42.45-.5.04-.96.07-1.4.07-1.79 0-3.44-.1-4.96-.33-.72-.1-1.4-.26-2.05-.49a5.21 5.21 0 0 1-1.1-.51c-.6-.38-1.05-1.02-.7-1.7.19-.35.5-.56.96-.63.27-.04.67.01 1.18.16.14.03.47.22 1 .55.9.56 1.76.87 2.83.99.83.09 1.62.11 2.36.07l1.62-.12a10.1 10.1 0 0 0 1.88-.35c.13-.03.31-.13.55-.28.26-.17 1.2-.73 1.31-.1.12.64-.5 1.04-1.06 1.2l-.87.13c-.93.14-1.88.24-2.86.29-1.3.06-2.58-.01-3.84-.21-1.65-.27-3-.73-4.04-1.38Z" fill="#A94226"/><path d="m21.84 23.1.5 1.68a.56.56 0 0 1-.3-.13 4.02 4.02 0 0 0-2.98-.96c-.24.02-.42.07-.54.14-.23.15-.48.3-.73.43a.61.61 0 0 1 .1-.26c.43-.44.93-.7 1.5-.8a3.44 3.44 0 0 1 1.7.19c.09.03.2.03.35.02.04 0 .07-.03.09-.06a.57.57 0 0 1 .3-.26Z" fill="#4F4775"/><path d="m22.33 24.78.16.28c.1.6.16 1.15.2 1.67.04.57-.15 1.08-.58 1.52l-1.27.3a.2.2 0 0 0-.1.06c-.2.2-.43.37-.67.51-.47.28-.98.56-1.53.86-.24.13-.63.1-.8.27-.11.1-.2.26-.33.35-.45.34-.97.56-1.55.66-.02-.24-.15-.42-.4-.52.8-.5 1-.88.98-1.8a.17.17 0 0 0-.04-.1 3.87 3.87 0 0 0-1.86-1.3.21.21 0 0 0-.22.05 2.8 2.8 0 0 0-.71 2.45l-.22.07a6.86 6.86 0 0 1-.06-.86c0-.06-.02-.08-.06-.07a.43.43 0 0 0 .09-.16c.1-.55.3-1.03.61-1.45.15-.2.27-.4.35-.55.14-.28.26-.49.46-.68.25-.23.45-.49.6-.77.16.01.33-.06.5-.22.04.02.13-.03.27-.13l.3-.21a.92.92 0 0 1 .27-.11c.1-.03.2-.06.29-.12.36-.06.62-.24.78-.52.25-.13.5-.28.73-.43.12-.07.3-.12.54-.14a4.02 4.02 0 0 1 2.98.96c.08.07.18.12.3.13Z" fill="#026AFE"/><path d="M18.73 25.34v.05c0 .05.02.09.05.12.44.43.7.87.8 1.34.17.8-.14 1.37-.92 1.67-.4.16-.77.26-1.14.3-.46.05-.95-.23-1.32-.52-.47-.38-1.16-.7-1.53-1.02a.16.16 0 0 1-.04-.2c.33-.59.84-1.29 1.43-1.63a3.3 3.3 0 0 1 2.07-.42c.12.02.14-.02.06-.1l-.29-.33c-.03-.03-.02-.06.01-.09.86-.75 1.75-.8 2.68-.12.64.47.86 1.08.63 1.84a.66.66 0 0 1-.56.5 1 1 0 0 1-.76-.13c-.1-.07-.23-.23-.36-.47a2.5 2.5 0 0 0-.76-.83.05.05 0 0 0-.04.02l-.01.02Z" fill="#0096FF"/><path d="m16.52 24.03.49.75c-.1.06-.2.1-.29.12a.92.92 0 0 0-.27.1 6.7 6.7 0 0 0-.3.22l.37-1.19Z" fill="#7F2210"/><path d="M15.89 25.35c-.18.16-.35.23-.51.22.18-.4.38-.76.62-1.08.1-.12.12-.11.09.04l-.2.82Z" fill="#A94226"/><path d="M23.58 26.17c.1.95-.13 1.81-.69 2.58-.14.05-.21.13-.23.24-.21.2-.44.36-.69.5a.58.58 0 0 0-.28.32c-.23.56-.5 1.08-.83 1.55l-.25.38a9.91 9.91 0 0 1-2.25 2.11c-.06.04-.08.1-.1.16a.2.2 0 0 0-.18 0 .1.1 0 0 0-.05.06l-.01.1h-.12c-.6.26-1.1.65-1.5 1.17a5.51 5.51 0 0 0-1.3 2.61l-.03.02c-.04 0-.06-.01-.07-.05a.86.86 0 0 0-.12-.32l.04-.89.05-.8.1-.35c.03-.14.06-.26.1-.35a4.65 4.65 0 0 1 1.8-2.08.32.32 0 0 0 .04-.1c.1.03.2-.01.31-.12a9.5 9.5 0 0 0 1.76-1.57 7.62 7.62 0 0 0 .8-1.32v-.05c-.05-.13-.18-.23-.38-.3.95-.39 1.83-.86 2.61-1.42.43-.44.62-.95.58-1.52-.04-.52-.1-1.07-.2-1.67.36.45.72.82 1.09 1.1Z" fill="#4F4775"/><path d="M43.68 31.79v-.08l-.36-.72c-.1-.17-.2-.23-.33-.17-.09-.2-.16-.4-.22-.62a3.2 3.2 0 0 0-.22-.6 1.52 1.52 0 0 0-.63-.58.13.13 0 0 1-.06-.07.12.12 0 0 1 0-.08c.1-.33-.28-.81-.5-1.04-.36-.36-.72-.66-1.07-.9-.37-.25-.67-.4-.93-.44a2.18 2.18 0 0 0-.77 0c-.15.03-.23-.03-.22-.17l.14-.23a.55.55 0 0 1 .23-.22c.04-.03.08-.02.1.02.1.12.18.19.34.23.59.13 1.11.4 1.58.81l1.21 1.1c.24.22.37.44.4.66.03.21.07.36.13.44.23.37.47.9.55 1.38.03.2.38.37.5.55.13.2.2.43.2.66 0 .03-.02.05-.04.06a.12.12 0 0 1-.03.01Z" fill="#1CD4F8"/><path d="m38.5 26.09-.13.23c0 .14.07.2.22.18.28-.05.54-.06.77-.01.25.04.56.19.92.44.36.24.72.54 1.07.9.23.23.6.7.5 1.04v.08l.07.07c.27.13.48.33.63.58.05.09.13.29.22.6.06.22.13.42.22.62v.74c-.34-.1-.6-.02-.74.24-.2.34-.24.74-.14 1.19.01.03 0 .06-.04.07a.8.8 0 0 1-.34.05c-.05 0-.07-.03-.06-.07.09-.32 0-.55-.29-.7a1.49 1.49 0 0 0-.51-.15 8.5 8.5 0 0 0-.56-.64.82.82 0 0 1-.23-.42c-.12-.68.14-1.22.77-1.62l.02-.03v-.03l-.02-.02H40.73l-.07.01-.66.5c-.25.2-.47.3-.68.3a3.3 3.3 0 0 1-1.87-.47 1.1 1.1 0 0 1-.46-.55c-.21-.54-.11-1.15.29-1.83l.44-.48c.06-.06.08-.1.07-.16a.48.48 0 0 0-.08-.17l.8-.5Z" fill="#0096FF"/><path d="M23.58 26.17c.51.34 1.04.6 1.57.76.65.2 1.33.34 2.05.43.78.09 1.57.15 2.36.17 1.63.04 3.12.02 4.47-.06a13.4 13.4 0 0 0 2.2-.34 26.55 26.55 0 0 0-.27 3.16l-.01.05c-.06.01-.09.03-.08.04v-.06a.16.16 0 0 0-.03-.1l-.42-.63c-.16-.24-.46-.43-.89-.55-.15-.05-.4-.06-.74-.03-.8.06-1.57.34-2.39.4-1.03.08-2.17.06-3.22-.15-.24-.05-.67-.12-1.29-.21a7.92 7.92 0 0 0-1.74-.1c-.42.03-.89.17-1.4.42l-.86-.62c.56-.77.8-1.63.69-2.58Z" fill="#78CBFD"/><path d="M37.71 26.58c.04.06.07.12.08.17.01.05-.01.1-.07.16a26 26 0 0 0-.44.48c-.44.33-.71.73-.83 1.19-.1.35-.16.84-.2 1.47 0 .13-.06.23-.14.35-.08.14-.1.25.02.35-.06.02-.1.04-.12.07a.2.2 0 0 1-.06-.03c.05-.18.05-.33 0-.45l.01-.05a26.5 26.5 0 0 1 .26-3.16 8.01 8.01 0 0 0 1.49-.55Z" fill="#4F4775"/><path d="M37.28 27.39c-.4.68-.5 1.29-.29 1.83.09.23.24.4.46.55.55.34 1.17.5 1.87.48.2-.01.43-.11.68-.3a20.7 20.7 0 0 1 .72-.53h.1l.04.01.01.02v.03c0 .01 0 .02-.02.03-.63.4-.89.94-.77 1.62.03.15.1.29.23.42.2.2.39.42.56.64a.96.96 0 0 0-.63.58.1.1 0 0 1-.1.06 59.12 59.12 0 0 1-4-2.09c-.12-.1-.11-.2-.03-.34.08-.12.14-.22.15-.35.03-.63.1-1.12.19-1.47.12-.46.4-.86.83-1.2Z" fill="#026AFE"/><path d="M15.47 30.74a.9.9 0 0 0-.87.21.23.23 0 0 0-.07.12.1.1 0 0 1-.1 0V31c0-.13 0-.26-.03-.39-.07-.44-.34-.63-.8-.58a2.8 2.8 0 0 1 .72-2.45.21.21 0 0 1 .22-.05c.74.24 1.37.67 1.86 1.3.03.02.04.06.04.1.02.92-.19 1.3-.97 1.8Z" fill="#0096FF"/><path d="M22.11 28.25c-.78.56-1.66 1.03-2.61 1.42-.54.37-.99.66-1.35.86-.35.19-.87.43-1.56.71-.13.02-.26.07-.39.14l-.32.1-.02-.22c.58-.1 1.1-.32 1.55-.66.14-.1.22-.24.32-.35.18-.16.57-.14.8-.27.56-.3 1.07-.58 1.54-.86.24-.14.47-.31.68-.51a.2.2 0 0 1 .1-.06l1.26-.3Z" fill="#1CD4F8"/><path d="M35.87 30.38a10.5 10.5 0 0 1-5.16 1.22 12.48 12.48 0 0 1-6.97-2.23c.52-.25.99-.4 1.41-.42.48-.04 1.06 0 1.74.1l1.29.2c1.05.22 2.2.24 3.22.16.82-.06 1.59-.34 2.4-.4.33-.03.58-.02.73.03.43.12.73.3.89.55l.42.63c.03.03.04.06.04.1v.06Z" fill="#B7E7FE"/><path d="m22.66 28.99.75.61c-.5.5-.85 1.01-1.04 1.54-.13.35-.26.88-.4 1.59l-1.1-1.37c.31-.47.59-.99.82-1.55a.58.58 0 0 1 .28-.32c.25-.14.48-.3.7-.5Z" fill="#78CBFD"/><path d="M13.27 29.18c.04-.01.07.01.06.07 0 .29.02.58.06.86-.2.25-.43.28-.66.1a.12.12 0 0 1-.05-.08c-.03-.4.28-.73.59-.95Z" fill="#C0CDD4"/><path d="M23.4 29.6c2.82 1.9 5.98 2.6 9.5 2.12a9.77 9.77 0 0 0 3.05-.93.2.2 0 0 0 .06.03c.04.36.05.64.01.84a11.7 11.7 0 0 1-.51 1.86c-.05 0-.09.05-.12.16-.18.53-.41 1.04-.7 1.52l-.2.45a1.8 1.8 0 0 1-.3.42c-.3.37-.63.73-.95 1.1-.37.4-.7.72-.97.96l-.75.57c-.7.13-1.26.2-1.66.23-.97.08-1.95.02-2.91-.18a6.07 6.07 0 0 1-3.46-1.96 3.57 3.57 0 0 1-.5-.77l-.4-.81a5.9 5.9 0 0 1-.53-1.76 12.26 12.26 0 0 0 8.3 3.43 8.08 8.08 0 0 0 3.3-.57c.27-.12.47-.31.61-.58.08-.15.05-.18-.1-.1a6.44 6.44 0 0 1-3.65.92 11.94 11.94 0 0 1-8.55-3.82c.14-.71.27-1.24.4-1.6.2-.52.54-1.03 1.04-1.53Z" fill="#B7E7FE"/><path d="M19.5 29.67c.2.07.33.17.37.3a.13.13 0 0 1 0 .1c-.32.6-.58 1.02-.79 1.27a9.5 9.5 0 0 1-1.76 1.57c-.4-.53-.65-1.1-.72-1.67.68-.28 1.2-.52 1.55-.71.36-.2.81-.49 1.35-.86Z" fill="#7F2210"/><path d="M14 30.27c-.4.43-.63.94-.7 1.51a.58.58 0 0 1-.19-.24.93.93 0 0 1-.07-.35 1.2 1.2 0 0 1 .23-.73.7.7 0 0 1 .36-.27c.14-.03.27 0 .37.07Z" fill="#C0CDD4"/><path d="M13.3 31.78c.07-.57.3-1.08.7-1.52.07.06.13.13.17.22.04.08.07.19.08.3a1.17 1.17 0 0 1-.32.91.65.65 0 0 1-.24.15.43.43 0 0 1-.39-.06ZM43.68 31.79c-.1.12-.2.13-.32.05a6.14 6.14 0 0 1-.37-.28v-.74c.13-.06.24 0 .33.17l.36.72v.08Z" fill="#fff"/><path d="M15.34 30.86c-.05.4-.1.65-.13.75-.12.3-.36.43-.73.38a1 1 0 0 1 .12-.34.22.22 0 0 0 .02-.1c0-.21.05-.37.15-.48a.66.66 0 0 1 .57-.21Z" fill="#C0CDD4"/><path d="M15.34 30.86c.5.32.51.7.04 1.14-.21.2-.5.26-.86.18a.09.09 0 0 1-.07-.07c-.02-.04 0-.08.03-.12.37.05.6-.08.73-.38.04-.1.08-.35.13-.75Z" fill="#fff"/><path d="M14.42 31.01c0 .03 0 .04.02.05a.1.1 0 0 0 .1.01c-.06.13-.08.27-.07.43 0 .03-.01.07-.03.1-.12.24-.34.65.02.75.2.05.4.04.64-.03.44-.13.7-.4.78-.83l.32-.1c.2.6.47 1.16.81 1.65l-.04.09a4.65 4.65 0 0 0-1.8 2.08c-.04.1-.07.21-.1.35l-.1.36a4.67 4.67 0 0 0-.2-.61c-.01-.03-.05-.04-.11-.03a.25.25 0 0 0 .03-.07v-.07a12.84 12.84 0 0 1-.63-3.36.18.18 0 0 1 .05-.06c.2-.18.3-.41.31-.7Z" fill="#A94226"/><path d="M42.88 33.5c.09-.4.1-.8.03-1.16a.1.1 0 0 0-.07-.08l-.5-.24c.05-.1.1-.19.18-.24a.35.35 0 0 1 .24-.07c.15.02.3.12.4.29a1.36 1.36 0 0 1 .13 1.2c-.05.1-.1.18-.18.23a.34.34 0 0 1-.23.07Z" fill="#B7E7FE"/><path d="M20.61 31.74c.46.64.95 1.21 1.45 1.7.1.63.27 1.22.53 1.77l.4.8c.15.3.31.56.5.78a6.07 6.07 0 0 0 3.46 1.96 10.53 10.53 0 0 0 4.57-.05c-.62.28-.37.28-.54.5 0-.03-.03 0-.07.07l-.8.38-.28-.04a11.28 11.28 0 0 1-6.22-1.03c-.04-.02-.07 0-.07.04v.23a.13.13 0 0 0 .08.12 9.93 9.93 0 0 0 5.43.98c.2-.02.36-.07.48-.15l.04.09c-.92.35-1.77.57-2.56.66-1.15.14-2.31.15-3.48.04-.04 0-.07 0-.1.03a.13.13 0 0 0-.06.08 17.88 17.88 0 0 1-.84 3.17c-.07.2-.2.3-.36.28.33-.73.57-1.43.71-2.09.27-1.25.4-2.58.39-4 0-.02-.01-.03-.03-.03h-.07c-.01 0-.02 0-.03.02-.1.71-.36 1.35-.77 1.93.3-.78.52-1.55.65-2.3.03-.22.02-.45-.03-.7a.58.58 0 0 1 0-.19.5.5 0 0 0-.01-.19 2.68 2.68 0 0 0-1.7-1.84 5.52 5.52 0 0 0-1.84-.41c-.38.05-.69.04-.95-.02a1.2 1.2 0 0 0-.23-.32c.02-.07.04-.12.1-.16.87-.6 1.62-1.3 2.25-2.11Z" fill="#78CBFD"/><path d="m42.34 32.02.5.24a.1.1 0 0 1 .07.08c.07.37.06.76-.03 1.16-.15-.01-.29-.11-.4-.28a1.35 1.35 0 0 1-.14-1.2ZM41.24 32.47c-.25.25-.37.5-.38.75l.07.27c.03.12-.01.23-.13.34-.45-.37-.54-.77-.27-1.22.15-.25.39-.3.71-.14Z" fill="#C0CDD4"/><path d="M41.24 32.47c.22.1.3.3.2.58a25 25 0 0 0-.27.83.16.16 0 0 1-.13.05c-.02 0-.05 0-.07-.02l-.17-.08c.12-.1.16-.22.13-.34a4.97 4.97 0 0 1-.07-.27c0-.25.13-.5.38-.75Z" fill="#fff"/><path d="m35.5 33.52.03.15c.01.04.03.07.06.1l.22.17-.06.13c-.01.03 0 .06.02.09.33.3.7.6.98.91a6.84 6.84 0 0 1 1.77 4.24c-.1-.06-.19-.07-.23-.01-.23.27-.56.4-1 .42-1.46.03-2.52-.76-2.82-2.1a11.39 11.39 0 0 1-.21-1.17.13.13 0 0 0-.16-.04c-.08.03-.13.1-.17.2a.23.23 0 0 1-.05.1l-1.13 1.23c-.36.26-.67.5-.95.72-.15.13-.42.3-.82.53.05-.41.2-.34.54-.5.37-.26.62-.45.75-.56.28-.24.6-.56.97-.97l.96-1.09c.12-.14.22-.28.28-.42l.21-.45c.29-.48.52-1 .7-1.52.03-.11.07-.17.12-.16Z" fill="#0096FF"/><path d="M39.65 42.58c-.17-.2-.3-.4-.4-.61a1.27 1.27 0 0 0-.42-.55.07.07 0 0 0-.07 0 .07.07 0 0 0-.04.05c-.03.43.01.79.13 1.09-.22.02-.36-.1-.41-.35l-.04-1.58c0-.04-.02-.06-.06-.06a4.85 4.85 0 0 1-2.7-.58l.01-.03c0-.03.02-.03.05-.02.66.28 1.38.4 2.16.37.51-.02.73-.35.66-1a6.84 6.84 0 0 0-1.77-4.24c-.28-.3-.65-.61-.98-.91-.03-.03-.03-.06-.02-.1l.06-.12c1.87 1.18 2.83 3.39 3 5.47.03.4 0 .78-.1 1.17-.03.08-.01.24.05.46 0 .04.03.07.06.1.14.1.31.18.44.31.32.33.45.7.39 1.13Z" fill="#1CD4F8"/><path d="M18.26 34.01c.09.08.16.19.23.32l-.03.05a.12.12 0 0 1-.1.05l-.14-.01-.2-.26v-.09a.1.1 0 0 1 .06-.06.2.2 0 0 1 .18 0Z"/><path d="M19.44 34.35c.02.11 0 .2-.03.27a1.46 1.46 0 0 0-.6.02c-.51.1-1.01.21-1.46.45a3.5 3.5 0 0 0-1.81 2.21c-.17.59-.23 1.2-.16 1.84-.04.87.14 1.6.53 2.17a2.51 2.51 0 0 0 1.83 1.12c.6.08 1.2 0 1.77-.22a7.62 7.62 0 0 0 1.76-.93l.03.01.03.04a5 5 0 0 1-1.68 1.1c-.18.1-.34.17-.47.2-.4.1-.86.15-1.35.12l-.66-.08a4.3 4.3 0 0 1-1.48-1.09c-.05-.06-.12-.05-.2 0-.12-.26-.26-.5-.32-.79a7.35 7.35 0 0 1-.16-2.35.09.09 0 0 0-.02-.04.1.1 0 0 0-.06-.03c-.21 0-.4-.02-.58-.04a2.27 2.27 0 0 1-1.3-.52c-.1-.09-.29-.29-.56-.61.3.2.68.35 1.13.45.43.1.85.08 1.26-.05.06.09.1.2.12.32 0 .04.03.05.07.05.01 0 .02 0 .03-.02l.02-.03a5.5 5.5 0 0 1 1.29-2.58 4.26 4.26 0 0 1 1.76-.88c.02 0 .04-.02.05-.04l.14.01c.04 0 .07-.02.1-.05l.03-.05c.26.06.57.07.95.02Z" fill="#0430EA"/><path d="M22.37 39.98c-.14.42-.28 1.08-.44 1.96-.15.8-.48 1.61-1 2.43-.2.03-.38.03-.52 0-.04 0-.05-.02-.03-.06.11-.2.15-.4.12-.6a.9.9 0 0 0-.38-.62c-.17-.12-.4-.17-.67-.16-.55.03-.8.37-1.02.84-.02.05-.04.05-.04 0a1.83 1.83 0 0 0-.56-1.02c.5.03.94-.01 1.35-.12.13-.03.29-.1.47-.2.15-.08.3-.16.46-.22a5 5 0 0 0 1.22-.88l-.03-.04h-.06c-.53.38-1.1.69-1.72.92a3.6 3.6 0 0 1-1.78.22 2.51 2.51 0 0 1-1.83-1.12c-.4-.57-.57-1.3-.53-2.17.28.28.56.62.84.84.67.5 1.4.66 2.19.45a3.1 3.1 0 0 0 2.05-1.95 3.33 3.33 0 0 0-1.05-3.86c.04-.07.05-.16.03-.27.62.03 1.24.16 1.84.4.9.37 1.47.99 1.7 1.85a.5.5 0 0 1 0 .2.58.58 0 0 0 0 .19c.06.24.07.47.04.68-.13.76-.35 1.53-.65 2.31Z" fill="#026AFE"/><path d="M19.41 34.62a3.33 3.33 0 0 1 1.04 3.86 3.1 3.1 0 0 1-2.04 1.95 2.4 2.4 0 0 1-2.19-.45c-.28-.22-.56-.56-.84-.84a4.86 4.86 0 0 1 .16-1.84 3.5 3.5 0 0 1 1.8-2.2c.46-.25.96-.35 1.48-.46.21-.05.41-.05.59-.02ZM14.66 35.28c.06-.01.1 0 .1.03.07.14.14.34.21.6l-.05.8c-.36.08-.7.23-1.05.27-.35.04-.7.06-1.05.08a.98.98 0 0 1-.27-.07c-.03-.01-.05-.04-.03-.08a.23.23 0 0 1 .09-.11 14.4 14.4 0 0 0 2.05-1.52Z" fill="#0096FF"/><path d="M38.52 39.31c.07.65-.15.98-.66 1-.78.03-1.5-.1-2.17-.37-.02-.01-.03 0-.04.02v.06c.86.44 1.75.62 2.69.55.04 0 .06.02.06.06l.04 1.58-.44-.38c-.38-.33-.78-.4-1.2-.22-.27.12-.45.31-.5.6-.03.18-.06.3-.08.34-.01.04-.03.04-.05 0-.23-.66-1-.97-1.63-.64-.35.2-.41.65-.4 1 0 .03-.03.05-.07.06-.18.03-.36.02-.55-.02a4.36 4.36 0 0 0-.28-.39 3 3 0 0 1-.3-3.7c.07-.13.18-.16.32-.08l.29.16c.13.08.15.06.05-.06l-.85-.94 1.13-1.24a.23.23 0 0 0 .05-.09c.04-.1.09-.17.17-.2a.13.13 0 0 1 .16.04l.02.05c.05.4.11.77.2 1.12.3 1.34 1.35 2.13 2.81 2.1.44-.01.77-.15 1-.42.04-.06.12-.05.23.01ZM14.92 36.71l-.04.89c-.4.13-.83.15-1.26.05-.45-.1-.83-.26-1.13-.45a.5.5 0 0 1-.14-.16c-.02-.04-.02-.07.01-.1a.63.63 0 0 1 .25-.14.23.23 0 0 0-.1.11c0 .04 0 .07.04.08.14.05.23.07.27.07.35-.02.7-.04 1.05-.08.35-.04.69-.2 1.05-.27Z" fill="#026AFE"/><path d="M33.52 42.95a3.67 3.67 0 0 1-1.6-.26c-.9-.37-.86-1.21-.82-2.05a7.11 7.11 0 0 0-.14-1.34.12.12 0 0 0-.05-.03c.04-.07.06-.1.07-.08.4-.23.67-.4.82-.53l.95-.72.85.94c.1.12.08.14-.05.06l-.29-.16c-.14-.08-.25-.05-.33.09a3 3 0 0 0 .31 3.7c.1.12.2.25.28.38ZM22.17 44.15l-1.24.22c.52-.82.85-1.63 1-2.43.16-.88.3-1.54.44-1.96.4-.58.67-1.22.77-1.93l.03-.02h.07c.02 0 .03 0 .03.03.01 1.42-.12 2.75-.39 4-.14.66-.38 1.36-.71 2.1Z" fill="#0430EA"/><path d="m39.65 42.58-.8-.02a2.5 2.5 0 0 1-.12-1.12l.03-.03h.04l.03.01a1.27 1.27 0 0 1 .43.54c.09.21.22.42.39.62Z" fill="#fff"/><path d="M17.18 42.67c-.48.2-.85.5-1.1.86l-.29-.82a.4.4 0 0 0-.14-.28l-.16-.84c.08-.06.15-.07.2 0 .4.46.9.82 1.49 1.08Z" fill="#026AFE"/><path d="M38.28 43.31c-.04-.87-.51-1.38-1.4-1.53.46-.19.87-.08 1.22.31.22.25.51.71.48 1.05 0 .04-.03.07-.06.1a.4.4 0 0 1-.24.07Z" fill="#1CD4F8"/><path d="M36.87 41.78c.9.15 1.37.66 1.4 1.53l-.41.03a3.39 3.39 0 0 0-1.3-1.28c.05-.1.15-.2.31-.28ZM35.53 43.61c-.13-.59-.25-.97-.36-1.13a6 6 0 0 1-.31-.51c.2-.04.43 0 .64.1.21.12.38.3.48.5a.9.9 0 0 1 .1.34.7.7 0 0 1-.06.32c-.04.1-.1.19-.19.25a.7.7 0 0 1-.3.13Z" fill="#fff"/><path d="m34.86 41.97.3.51c.12.16.24.54.37 1.13a.92.92 0 0 1-.41-.02 1.12 1.12 0 0 1-.75-.69.77.77 0 0 1 0-.53c.03-.1.1-.2.18-.26a.7.7 0 0 1 .3-.14ZM37.86 43.34c-.46.01-.87-.07-1.24-.26-.34-.16-.2-.68-.07-1.02.55.3.98.73 1.3 1.28ZM15.65 42.43a.4.4 0 0 1 .14.28.87.87 0 0 0-.36.37c-.08.14-.2.37-.34.7-.04.02-.09 0-.13-.03a.12.12 0 0 1-.05-.1c0-.52.24-.93.74-1.22Z" fill="#C0CDD4"/><path d="m15.79 42.71.3.82c-.01.13-.09.21-.23.24-.22.05-.48.05-.77 0l.34-.7c.08-.15.2-.28.36-.36Z" fill="#fff"/><path d="M17.54 42.85c.23.65.03 1.06-.6 1.22a2.4 2.4 0 0 1-.9.04c.24-.8.75-1.23 1.5-1.26Z" fill="#C0CDD4"/><path d="M16.04 44.11c.34.04.63.03.9-.04.63-.16.83-.57.6-1.22.42.19.63.49.64.9.02.77-1 .8-1.61.77a1.8 1.8 0 0 1-.46-.07.1.1 0 0 1-.07-.08.45.45 0 0 1 0-.26ZM18.6 44.6l.1-.07c.43-.04.71-.26.84-.66a.45.45 0 0 0-.08-.45 34.3 34.3 0 0 0-.23-.28c.63-.1 1 .1 1.07.6.05.35-.1.62-.45.81a1.7 1.7 0 0 1-1.06.19c-.06 0-.12-.06-.19-.14Z" fill="#fff"/><path d="m19.23 43.14.23.28c.11.14.14.29.08.45-.13.4-.41.62-.85.66-.02 0-.05.03-.09.07-.14-.69.07-1.18.63-1.46Z" fill="#C0CDD4"/></svg>