<svg width="224" height="224" viewBox="0 0 56 56" xmlns="http://www.w3.org/2000/svg"><path d="M44.87 25.44c.16 1.05.19 3.69 0 4.9-.72 4.65-3.5 7.21-6.7 10.38.08-.48.19-2.49.27-2.91.07-.36.53-.68.7-1.05.46-.98.87-1.99 1.24-3 .9-2.13.98-3.9 1.08-6.42a9.2 9.2 0 0 0-.17-1.79c-.71-6.86-4.85-11.34-11.02-12.46-1.71-.3-3.48-.27-5.29.11-7.13 1.5-11.38 8.45-10.37 15.65.2 1.4.58 2.77 1.15 4.1.24.54.4 1.2.7 1.78.35.7.75 1.31 1.2 1.83a14.2 14.2 0 0 0 2.5 3.62c.1.11.19.24.25.38.2.43.71 1.65.92 2.1-.92.48-6.05-3.6-6.7-4.27a20.62 20.62 0 0 1-2.53-4.38 16.99 16.99 0 0 1 9.67-21.81 17.06 17.06 0 0 1 23.1 13.24Z" fill="#34C427"/><path d="M30.25 15.57a11.23 11.23 0 0 1 2.93.87c.04 0 .08.03.1.07l.03.02 2.61 1.34.06.06.25.22.05.13c.03.06.01.08-.05.07a.45.45 0 0 1-.2-.11 13.74 13.74 0 0 0-2.2-.8c-1.45-.33-3-.47-4.69-.4-.14 0-.28.08-.43.06a.07.07 0 0 0-.07.01l-.26.22c-.01.02-.01.03.01.03.84.04 1.67.2 2.5.46.51.18.87.28 1.08.32.27.04.49.12.66.25.03.02.07.02.1.02.11 0 .2.03.27.1l.1.1c.32.16.6.3.9.51.12.1.24.18.37.26.2.14.36.32.54.49.07.07.14.2.26.25.05.02.08.04.1.08.17.2.26.43.47.59.3.23.59.48.87.74.08.13.1.22.07.28a.1.1 0 0 1-.12.04l-.4-.2a9.71 9.71 0 0 0-4.4-2.21 27.3 27.3 0 0 1-.66-.57c-1.9-1.68-3.92-1.7-5.88-.09l-.82.67c-3.53.75-7.11 2.85-9.03 5.82.02-.25 0-.31-.06-.17l.14-.88c.25-.98 1.15-2.32 1.8-3.16.63-.82 1.15-1.44 1.56-1.86l1.63-1.38c2.8-2.01 6.39-2.83 9.81-2.25Z" fill="#0F0C07"/><path d="m36.23 18.15.14.07.17.14c.75.67 1.41 1.34 1.97 2.03.12.14.22.28.32.43l.32.51.45.74.35.5c.12.18.16.4.25.6.05.09.03.17.03.28 0 .04.02.07.04.1.08.06.1.14.09.24a11.66 11.66 0 0 0-3.86-3.07 1.1 1.1 0 0 1-.18-.12c-.09-.07-.15-.1-.2-.1-.24-.02-.28.07-.12.27l.6.76c-.27-.26-.56-.5-.86-.74-.21-.16-.3-.38-.46-.6a.24.24 0 0 0-.1-.07c-.13-.05-.2-.18-.27-.25-.18-.17-.33-.35-.54-.49a6.06 6.06 0 0 1-.38-.26c-.29-.22-.57-.35-.88-.52a.42.42 0 0 1-.11-.09.31.31 0 0 0-.26-.1c-.04 0-.08 0-.1-.02-.18-.13-.4-.2-.67-.25-.2-.04-.57-.14-1.09-.32a9.18 9.18 0 0 0-2.5-.49l.26-.22a.07.07 0 0 1 .07-.01c.15.02.29-.06.43-.06 1.68-.07 3.24.07 4.68.4a13.71 13.71 0 0 1 2.2.8c.06.05.13.1.21.1.06.02.08 0 .05-.06l-.05-.13Z" fill="#161717"/><path d="m31.76 19.44.76 1.54c-.06.13-.19.19-.38.2a.16.16 0 0 1-.12-.05l-.64-.6-.47-.62c-.5-.63-1.87-1.64-2.72-1.53-2.3.28-3.32 2.67-4.05 4.56-.22.15-.16.28-.27.48a.23.23 0 0 0-.03.12c.01.24-.03.45-.01.7 0 .2 0 .44-.02.75-.03.43.06.96.28 1.59.06.18.08.6.06 1.23a5.22 5.22 0 0 1-.84-2.2c-.13-.71-.23-1.8-.3-3.25l.05-.42.1-.52c.05-.39.26-.66.4-1.02l.84-.95.82-.67c1.96-1.62 3.98-1.59 5.88.1l.66.56Z" fill="#C3332D"/><path d="M31.38 20.53c.33.5.52.97.57 1.42.06.6.17 1.12.33 1.58.13.37.2.67.22.88.03.45.02.91-.03 1.36-.06.5-.28 1.03-.44 1.53-.1.31-.01.58-.45.7a.94.94 0 0 0-.34.19c-.04.03-.08.03-.12 0-.4-.34-.76-.7-1.1-1.1a.52.52 0 0 0-.33-.18.08.08 0 0 0-.09.08c0 .02 0 .03.02.04l.7.9a.07.07 0 0 1 0 .06.07.07 0 0 1-.04.05h-.05a.11.11 0 0 1-.12-.03l-.35-.4a.16.16 0 0 0-.1-.06c-.24-.02-.3.06-.18.22.1.13.21.25.35.37.05.04.05.08 0 .12l-.05.03a.09.09 0 0 1-.06.01.09.09 0 0 1-.06-.03.7.7 0 0 0-.41-.3.14.14 0 0 1-.1-.07.64.64 0 0 0-.17-.23c-.06-.03-.1-.04-.14 0-.04.03-.04.06-.02.1.16.3.15.57-.02.8a.31.31 0 0 0-.06.08 149.5 149.5 0 0 1-.1 5.53c0 .22.06.45.05.7h-.61a.1.1 0 0 1-.1-.07 100.88 100.88 0 0 1 .03-4.6l.09-1.35a.22.22 0 0 0-.06-.16.23.23 0 0 0-.16-.08 4.35 4.35 0 0 1-.84-.13 4.05 4.05 0 0 1-2.08-1.84c-.39-.99-.66-2-.84-3.04a3.1 3.1 0 0 1 .02-.67c.73-1.89 1.75-4.28 4.05-4.56.85-.1 2.23.9 2.72 1.53l.47.62Z" fill="#0F0C07"/><path d="M31.77 19.44a9.71 9.71 0 0 1 4.39 2.21l.25.36a5.86 5.86 0 0 0-2.26-.6.06.06 0 0 0-.06.04l-.01.05c0 .03.02.06.06.08.11.06.2.15.27.25.03.04.06.07.1.09.48.25.9.6 1.26 1.07a6.99 6.99 0 0 1 1.41 4.1c.01.16-.06.29-.09.45 0 .02-.01.04-.03.05-.09.06-.18.2-.27.4l-.1-.74c-.73-.73-.44-1.68-1.56-2.93a8.63 8.63 0 0 0-2.4-1.84l-.21-1.5-.75-1.54Z" fill="#999A14"/><path d="m24.4 19.45-.85.95a3.54 3.54 0 0 0-1.25.5h-.04c-.03 0-.06 0-.08.02l-.84.43a.44.44 0 0 0-.1.08.46.46 0 0 1-.1.08.37.37 0 0 0-.25.14v.03c.01.02-.01.03-.06.04a1.8 1.8 0 0 0-.59.33l-.47.29a7 7 0 0 1 .57-.72c-.01.02-.02.03-.01.04h.01l.56-.3c.03-.02.03-.03 0-.03a.1.1 0 0 0-.08.03c-.02.02-.03.02-.05 0v-.02l1.12-.94c.6-.6 1.78-.8 2.5-.95Z" fill="#563208"/><path d="M23.55 20.4c-.13.36-.34.64-.4 1.02-.02.18-.06.35-.1.52.09-.3-.1-.3-.56.03l-.01.02v.02c-.06.23-1.09.84-1.3 1.09-1.02 1.2-1.84 2.03-.85.41.16-.28-.65-.94-.59-1 1.42-1.3 1.76-1.68 3.81-2.11Z" fill="#947E0C"/><path d="M28.41 20.37a1.96 1.96 0 0 0-1.54.52c-.38.38-.5.75-.4 1.11-.34.6-.42 1.18-.24 1.77.5 1.6 2.6 2.21 3.7.8.63-.8.48-1.98-.16-2.75.15.06.33.04.54-.06.1-.05.15-.14.14-.3.45.59.65 1.25.6 2.01-.2 2.61-3.31 3.53-4.96 1.52a3.11 3.11 0 0 1-.5-.85c-.08-.49-.23-.96-.1-1.48.21-.83.6-1.46 1.17-1.88a2.43 2.43 0 0 1 1.75-.41Z" fill="#838878"/><path d="M28.41 20.37c.83.08 1.51.45 2.04 1.1.01.15-.04.24-.14.3-.21.09-.4.1-.54.05-.94-1.04-2.43-.95-3.3.18-.1-.36.02-.73.4-1.11.38-.37.9-.55 1.54-.52Z" fill="#B8BBBE"/><path d="M40.36 23.8c.83 1.49.93 3.28.84 4.85a11.5 11.5 0 0 1-1.27 4.73c-.18-.19-.39-.3-.65-.36.09-.01.08-.1-.04-.26a.19.19 0 0 1-.03-.14c.13-.93.18-1.87.14-2.8a.6.6 0 0 0-.15-.4c-.02-.02-.03-.02-.05 0a.07.07 0 0 1-.04.02l.02-.18A7.8 7.8 0 0 0 36.4 22l-.25-.36.4.2a.1.1 0 0 0 .12-.04c.03-.06 0-.15-.07-.28l-.61-.76c-.16-.2-.12-.29.12-.28.05 0 .11.04.2.11.06.05.12.1.18.12 1.52.76 2.8 1.79 3.86 3.07Z" fill="#3B3D3E"/><path d="m31.38 20.53.64.6c.03.03.07.05.12.04.2 0 .32-.06.38-.19l.22 1.5c-.03.2-.04.4 0 .6.01.17.09.35.22.53.33.44.67.84.93 1.32.42.75.83 1.51 1.21 2.28.44.85.77 1.77 1.14 2.68a.1.1 0 0 0 .07.07.11.11 0 0 0 .1-.03c.05-.04.1-.05.19-.04-.45 1.55-1.84 2.91-3.24 3.67.14-.58.08-1.08-.16-1.5-.28-1-.74-1.84-1.2-2.75-.18-.34-.55-.62-.68-1-.04-.13.05-.23.26-.32.44-.11.35-.37.45-.7.16-.5.38-1.02.44-1.52.05-.45.06-.9.03-1.36-.02-.21-.1-.5-.22-.88a7.14 7.14 0 0 1-.33-1.58 3.17 3.17 0 0 0-.57-1.42Z" fill="#89460F"/><path d="M29.77 21.82c.64.77.79 1.94.17 2.74-1.1 1.42-3.21.8-3.7-.8-.19-.58-.1-1.16.24-1.76.86-1.13 2.35-1.22 3.3-.18Z" fill="#161717"/><path d="M23.78 19.52c-.02.04-5.16 3.95-5.17 4-.07-.04-.02.1 0 0a7.82 7.82 0 0 0-.61 7.97l.21.47v.2l-1.46.77a.16.16 0 0 0-.08.16c0 .02 0 .04.02.06l.45.81a.37.37 0 0 0 .33.2c.38-.01.58-.16.62-.46l.24.48c.03.05.02.09-.02.12-.02.03-.03.06-.02.1 0 .01 0 .03.02.04l.04.02.23.01-.91.23c-.05.01-.07.05-.07.1.05.3.27.31.53.3.06 0 .1.02.13.07l.3.37c.03.05.03.1-.01.14l-.07.1a.15.15 0 0 0-.03.1c.03.16.12.28.27.34a.1.1 0 0 0 .11-.02l.07-.06c.02.07.03.13 0 .18-.01.06-.05.07-.1.05a.66.66 0 0 1-.25-.15c-.13-.12-.47.55-.49.72 0 .01-.03.16.07.3a11.54 11.54 0 0 1-2.31-3.71c-1.64-3.78-1.83-6.06-.76-8.61.8-1.22 2.04-1.9 3.16-2.78l1.31-.88c.44-.3 4.34-1.89 4.25-1.74Z" fill="#3B3D3E"/><path d="M36.41 22a8.32 8.32 0 0 1 2.83 7.5 8.68 8.68 0 0 1-4.4 5.64c-.66.32-1.41.65-2.28.98a6.99 6.99 0 0 1-1.96.47c-.94.08-2.3.12-4.09.12a.25.25 0 0 1-.12-.03.34.34 0 0 0-.23-.03l-.05-.01a.2.2 0 0 1-.04-.04.17.17 0 0 0-.1-.06c-1.1-.25-2.22-.48-3.26-.91a2.84 2.84 0 0 1-.3-.18 3.52 3.52 0 0 0-.36-.23c-.31-.17-.58-.4-.86-.61a5.03 5.03 0 0 1-.49-.43 3.29 3.29 0 0 0-.77-.56c-.24-.13-.36-.34-.52-.54-.1-.12-.24-.19-.34-.33-.2-.3-.44-.52-.66-.8h-.06c-.03 0-.04-.02-.04-.05.03-.11-.01-.2-.11-.24a.15.15 0 0 1-.08-.08.14.14 0 0 0-.12-.09 7.81 7.81 0 0 1 .6-7.97l1.17-1.18.47-.3a.97.97 0 0 0 .6-.32c1.24-.1 1.34.07.67.46a9.72 9.72 0 0 1-.85.83c-.06.05-.17.22-.33.5a.5.5 0 0 0-.29.34.22.22 0 0 1-.06.11c-.28.26-.34.64-.48.97a6.42 6.42 0 0 0-.37 2.93c.1.61.12.86.53 1.25.3 2.06 2.23 3.87 4.03 4.74 1.55.74 3.18 1.09 4.89 1.03h.11a9.53 9.53 0 0 0 4.67-1.32c1.4-.76 2.8-2.12 3.24-3.67.16-.63.23-1.26.19-1.9.1-.2.18-.34.27-.4a.09.09 0 0 0 .03-.05c.03-.16.1-.3.1-.46A6.99 6.99 0 0 0 35.76 23a3.94 3.94 0 0 0-1.26-1.07.22.22 0 0 1-.1-.09.73.73 0 0 0-.27-.25.1.1 0 0 1-.06-.08v-.05a.06.06 0 0 1 .07-.03c.79 0 1.53.27 2.26.59Z" fill="#C1CE25"/><path d="m23.06 21.94-.04.42c-.02.3-.03.48-.3.67-2.06 1.53-3.17 3.49-3.06 6.08-.4-.4-.44-.64-.53-1.25-.38-2.7.28-3.47 1.52-4.94.37-.43 1.32-.6 1.81-.9l.02-.01v-.04c.46-.32.66-.33.58-.03Z" fill="#B4AC21"/><path d="M40.39 22.74a.5.5 0 0 0 .1.18l.25.7c0 .25.07.46.19.62l.36 1.31c.13.77.19 1.36.17 1.79-.1 2.52-.17 4.29-1.08 6.42l-.6 1.09c-.2.15-.34.33-.46.55-.03.04-.17-.06-.22-.07-.1-.02-.14-.08-.12-.19a.21.21 0 0 1 .05-.2.4.4 0 0 0 .07-.1l.22-.41.6-1.05a11.5 11.5 0 0 0 1.28-4.73c.1-1.57-.01-3.36-.84-4.86.02-.1 0-.18-.09-.25a.12.12 0 0 1-.04-.09c0-.1.02-.19-.03-.29-.1-.2-.13-.4-.25-.58l-.35-.5a.1.1 0 0 0 .04-.06l.02.04c.01.02.02.05.01.07 0 .03 0 .05.03.07.03.03.05.03.07-.01l.04-.1c.03-.08.05-.08.07 0 .01.07.05.11.11.12.04.01.07.03.09.06l.3.47Z" fill="#041303"/><path d="M23.02 22.36c.06 1.45.16 2.54.29 3.25.16.86.36 1.51.84 2.2l.47.48c.06.05.08.1.07.16 0 .03-.04.06-.1.1-.6.25-.8.6-1.1 1.03a5.04 5.04 0 0 0-.66 1.49c-.15 1 .2 1.72 1.08 2.15.05.02.07.06.08.1.01.16-.08.33-.3.53-1.8-.87-3.74-2.68-4.03-4.74-.11-2.6 1-4.55 3.07-6.08.26-.19.27-.37.29-.67Z" fill="#B7721E"/><path d="M32.74 22.48a8.63 8.63 0 0 1 2.4 1.84c.46.52.88 1.2 1.25 2.03l.3.9.1.74c.04.64-.03 1.27-.2 1.9-.07-.01-.13 0-.18.04a.11.11 0 0 1-.14 0 .1.1 0 0 1-.03-.04c-.37-.9-.7-1.83-1.14-2.68a68.3 68.3 0 0 0-1.2-2.28c-.27-.48-.61-.88-.94-1.32-.13-.18-.2-.36-.23-.53-.03-.2-.02-.4 0-.6Z" fill="#935513"/><path d="M24.14 22.94a3.1 3.1 0 0 0-.02.67c.18 1.04.45 2.05.84 3.04a4.05 4.05 0 0 0 2.08 1.84 4.36 4.36 0 0 0 .93.16.23.23 0 0 1 .13.21l-.08 1.34-.02-.23a.1.1 0 0 0-.08-.08c-.52-.07-.48.3-.8.36-.75.15-1.5-.94-1.71-1.52-.11-.3-.53-.36-.8-.44l-.46-.48c.02-.64 0-1.05-.06-1.23a4.06 4.06 0 0 1-.28-1.59c.02-.3.03-.56.02-.75-.02-.25.03-.46.01-.7 0-.05 0-.09.03-.12.1-.2.05-.33.27-.48Z" fill="#731009"/><path d="M31.58 28c-.21.08-.3.18-.26.3.13.39.5.67.67 1.01.47.9.93 1.75 1.21 2.75-.11-.05-.18-.1-.2-.16l-.49-1.02a3.15 3.15 0 0 0-.87-1.14.1.1 0 0 0-.1.04c-.3.39-.87.64-1.32.4-.44-.23-.44-.7-.76-1.04-.09-.09-.23-.1-.29-.24a.45.45 0 0 0-.07-.12c-.1-.11-.2-.18-.3-.2.17-.24.18-.5.02-.8-.02-.05-.02-.08.02-.11.04-.04.08-.04.14 0 .06.05.12.12.18.23a.14.14 0 0 0 .09.07.7.7 0 0 1 .41.3.09.09 0 0 0 .06.03.09.09 0 0 0 .06-.01l.05-.03c.05-.04.05-.08 0-.12a2.14 2.14 0 0 1-.35-.37c-.12-.16-.06-.24.17-.22a.16.16 0 0 1 .11.06l.35.4c.03.04.07.05.12.04l.05-.01a.07.07 0 0 0 .05-.05.07.07 0 0 0-.01-.07l-.7-.89a.08.08 0 0 1 .07-.12c.13.02.24.08.33.18.34.4.7.76 1.1 1.1.04.03.08.03.12 0 .1-.1.22-.16.34-.2Z" fill="#222312"/><path d="M24.62 28.29c.26.08.68.15.79.44.22.58.96 1.67 1.72 1.52.31-.06.27-.43.78-.37a.1.1 0 0 1 .08.08l.03.24c0 1.12 0 2.24.03 3.36A7.72 7.72 0 0 1 28 34.8a.1.1 0 0 0 .1.07h.49c-1.7.06-3.34-.29-4.89-1.03.22-.2.31-.37.3-.52a.13.13 0 0 0-.08-.11c-.87-.43-1.23-1.15-1.08-2.15.04-.26.35-1.05.66-1.49.3-.44.5-.78 1.1-1.04.06-.03.1-.06.1-.1.01-.04-.01-.1-.07-.15Z" fill="#A4221C"/><path d="M28.8 28.58c.1.02.2.09.3.2l.07.12c.06.14.2.15.29.24.32.33.32.82.76 1.04.45.24 1.02 0 1.31-.4a.1.1 0 0 1 .14-.02c.37.32.62.65.84 1.12L33 31.9c.02.05.09.1.2.16.24.42.3.92.16 1.5-1.44.84-3 1.27-4.67 1.31 0-.24-.05-.47-.05-.7a149.28 149.28 0 0 0 .1-5.52.31.31 0 0 1 .06-.07Z" fill="#92160B"/><path d="M39.35 29.83a.42.42 0 0 0-.07-.19.06.06 0 0 0-.08 0l-.01.01-.2.4.12-.6.04-.04h.04c.1.12.16.26.16.42Z" fill="#222312"/><path d="M39.35 29.83c.04.92-.01 1.86-.14 2.8 0 .04 0 .09.03.13.12.16.13.25.04.26-.45-.13-.65-.57-1.13-.6l.66-1.84.18-.53.2-.4a.06.06 0 0 1 .04-.03.06.06 0 0 1 .05.02c.04.04.06.1.07.19Z" fill="#0F0C07"/><path d="m38.8 30.58-.65 1.85-.58 1.16c-.12-.06-.22 0-.3.17-.06.03-.1.12-.1.27-.02.03-.05 0-.08-.1l-1.05 1.12c-.43.35-.9.7-1.41 1.06-3.55 2.5-6.76 2.45-10.3 1.2a9.07 9.07 0 0 1-2.75-1.38c-.32-.18-.57-.41-.86-.63l-.82-.73c-.03-.03-.07-.03-.11 0a.17.17 0 0 0-.04.05l-.2-.41a2.42 2.42 0 0 0-.65-.8c-.03-.04-.07-.04-.12-.01l-.06.04c.02-.5-.15-.93-.5-1.27l-.24-.75C21.8 35 25.2 37.04 30.6 36.6a7.85 7.85 0 0 0 1.96-.47 29.2 29.2 0 0 0 2.27-.98c1.9-.93 2.84-2.94 3.98-4.56Z" fill="#999A14"/><path d="M44.75 31.27a17.02 17.02 0 0 1-30.22 7.09c.1.08.19.13.28.15a.2.2 0 0 1 .1.07c.1.1.2.18.34.22.04 0 .07.03.1.06.24.29.61.5.83.68.85.68 1.63 1.33 2.58 1.87l.7.45c2.29 1.47 1.4-.67.21-1.91-1-1.05-1.34-2.02-2-3.39 1.98 1.75 4.19 3.44 6.74 4.28 3.57 1.21 7.15.38 10.43-1.25 2.3-1.15 3.52-2.8 4.86-4.86l.68-.97c-1.38 3.77-4.15 9.36.7 3.8 1.65-1.88 2.46-4.16 3.67-6.29Z" fill="#13790C"/><path d="M18.22 32.17c.35.34.52.77.5 1.27-.13.17-.34.26-.63.26-.04.3-.24.45-.63.45a.37.37 0 0 1-.32-.19l-.45-.81a.16.16 0 0 1 .06-.22l1.47-.76Z" fill="#B8BBBE"/><path d="M17.81 32.83a.02.02 0 0 1 0-.03h.01a.15.15 0 0 1 .07-.03.2.2 0 0 1 .09 0l.08.04.07.07.05.06.05.09.02.09a.2.2 0 0 1-.02.08.15.15 0 0 1-.04.06.02.02 0 0 1-.04 0l-.34-.43ZM17.64 33.61c-.16-.03-.34-.27-.42-.4a.1.1 0 0 1 0-.07.1.1 0 0 1 .05-.06l.05-.02a.13.13 0 0 1 .09 0c.03.01.05.03.07.06l.22.4a.06.06 0 0 1-.03.09h-.03Z" fill="#3B3D3E"/><path d="M19.55 34.21h-.19l-.07.02-.7.24-.24-.01-.04-.02a.07.07 0 0 1-.02-.04c-.01-.04 0-.07.02-.1.04-.03.05-.07.02-.12l-.24-.48c.29 0 .5-.09.63-.26l.06-.04c.05-.03.09-.03.12 0 .28.22.5.5.65.81Z" fill="#161717"/><path d="M38.29 32.28c.52.27 1.22.62 1.66 1 .06.04-.73 1.22-.63 1.15l-.22.42a.4.4 0 0 1-.07.1.21.21 0 0 0-.05.19c-.02.01-.03 0-.05-.01 0-.02-.02-.03-.03-.02-.01 0-.03.02-.04.07a.1.1 0 0 1 0-.04.07.07 0 0 0-.03-.06l-1.48-1.16c-.08 0-.1-.05-.09-.16.1-.17.91-1.54 1.03-1.48Z" fill="#0F0C07"/><path d="M37.26 33.76c-.01.1.01.16.08.16l-.12.12-.05-.01c0-.15.04-.24.1-.27ZM37.09 33.94c0 .1-.07.18-.19.25-.12.1-.2.22-.25.34l-.6.52 1.04-1.11Z" fill="#563208"/><path d="M37.09 33.94c.03.1.06.12.08.09l.05.01a.61.61 0 0 0-.13.41l-.02.02v-.2c0-.04-.02-.06-.07-.06-.03 0-.07 0-.1-.02.12-.07.18-.16.19-.25Z" fill="#3B3D3E"/><path d="m37.35 33.92 1.48 1.16a.07.07 0 0 1 .03.06.1.1 0 0 0 0 .04l-.05.1a.28.28 0 0 1-.24.16l-.55-.52a.06.06 0 0 0-.04-.01h-.06a.04.04 0 0 0-.02.04l.19.51a.1.1 0 0 1-.07.14.1.1 0 0 1-.05 0l-.4-.07c-.21-.04-.24 0-.08.14l.53.45c.04.16-.04.28-.25.37l-1.44-1.15c-.04-.03-.05-.07-.04-.11.16-.41.52-.33.86-.28a.08.08 0 0 0 .1-.12l-.16-.38c-.01-.14.03-.27.13-.4l.13-.13ZM19.55 34.21l.2.41-.8 1.39-.05.13-.07.06a.1.1 0 0 1-.11.02.43.43 0 0 1-.27-.34.14.14 0 0 1 .03-.1l.07-.1c.04-.05.04-.1 0-.14l-.29-.37a.15.15 0 0 0-.13-.07c-.26.01-.48 0-.53-.3 0-.05.02-.09.07-.1l.91-.23.7-.24.08-.01.19-.01Z" fill="#B8BBBE"/><path d="M36.9 34.2h.1c.05 0 .07.03.07.08v.2c-.11-.15-.25-.13-.42.05a.87.87 0 0 1 .25-.34Z" fill="#222312"/><path d="m37.07 34.47.02-.02.15.38v.05a.08.08 0 0 1-.05.06h-.04c-.34-.04-.7-.12-.86.29-.01.04 0 .08.04.11l1.44 1.15c0 .22-.15.37-.45.44l-1.67-.97a.16.16 0 0 0-.13-.02c-.22.06-.3.2-.26.43.11.6.32 1.16.62 1.7.02.14-.02.23-.15.25a.19.19 0 0 0-.13.09c-.07.1-.15.1-.23-.04a2.35 2.35 0 0 0-.62-1.02.27.27 0 0 1-.06-.1c-.25-.73-1.85.04-1.03 1.27.2.3.45.45.72.44.1.1.09.16-.04.22l-1.94.79a.15.15 0 0 1-.18-.06c0-.01 0-.04.03-.07.14-.36.13-.73-.03-1.1-.3-.72-1.07-.5-1.62-.31-.04.01-.05.04-.04.08l.5 1.75a.09.09 0 0 0 .04.05.1.1 0 0 0 .07 0l.7-.25c.26.04.3.16.15.38a.08.08 0 0 1-.04.03l-.82.28c-.14.05-.23 0-.3-.15-.01-.04-.07-.09-.19-.13a4.9 4.9 0 0 0-.33-.13l-.2-1.67c-.02-.12-.09-.16-.2-.15l-.13.02c-.11.02-.16.1-.14.2l.25 1.74c-.46.14-.76.14-.88-.02.13-.6.19-1.17.17-1.72 0-.05-.02-.08-.07-.08a.8.8 0 0 0-.33.02.1.1 0 0 0-.07.09v.92a.23.23 0 0 1-.18.22l-.24.05a.17.17 0 0 1-.19-.1.16.16 0 0 1-.01-.07l.02-1c0-.08-.04-.13-.13-.13h-.17c-.1 0-.16.05-.16.16.04.57-.12 1.27.3 1.73-.22.11-.52.11-.86 0a.12.12 0 0 1-.07-.06.3.3 0 0 0-.07-.09c.22-.64.43-1.86-.62-1.92-.96-.06-1.25 1.24-.66 1.79l-.4.8a.1.1 0 0 1-.12.04l-1.78-.55a12.3 12.3 0 0 1-3.48-2.08c-.2-.16-.84-.56-1.5-1.18-.1-.13-.38-.4-.38-.42.02-.16.38-.78.5-.66.08.07.16.12.26.15.05.02.09 0 .1-.05.03-.05.02-.1 0-.18l.05-.13c0 .2.08.48.32.51-.15.05-.2.13-.12.24 0 .02.01.03.02.03.37.32 1.28 1.3 1.55.2a.19.19 0 0 1 .08-.1c.74-.54.42-.86-.1-1.33a.6.6 0 0 0 .02-.26c.3.22.54.45.86.63a9.06 9.06 0 0 0 2.75 1.37c3.24 1.16 6.67 1.36 10.3-1.19.5-.35.98-.7 1.41-1.06l.6-.52c.18-.18.32-.2.43-.06Z" fill="#0F0C07"/><path d="M20.72 35.3a.6.6 0 0 1-.02.26.57.57 0 0 0-.28-.2.11.11 0 0 0-.12.04l-1.03 1.12c-.24-.03-.32-.32-.32-.51l.8-1.39a.17.17 0 0 1 .04-.05c.04-.03.08-.03.11 0l.82.73Z" fill="#161717"/><path d="m18.89 34.8.02-.01h.03c.06.04.08.1.06.18-.03.11-.1.16-.24.16a.14.14 0 0 1-.12-.12.13.13 0 0 1 .08-.14l.17-.08Z" fill="#3B3D3E"/><path d="M38.57 35.44c.04.12.02.2-.06.25a.25.25 0 0 0-.09.09c-.1.16-.14.39-.4.34l-.53-.45c-.16-.13-.13-.18.07-.14l.4.07a.1.1 0 0 0 .11-.03.1.1 0 0 0 .02-.1l-.2-.52v-.02a.04.04 0 0 1 .05-.02h.04l.04.01.55.52Z" fill="#0F0C07"/><path d="M38.93 35c0 .08.37.4.35.44-.41.68-1.58 2.14-2.37 2.8-1.02.99-3.27 2.1-5.56 2.74-.96.32-1.51.36-2.26.43-1.36.02-3.6.12-4.81-.67l.98-.06a.1.1 0 0 0 .12-.04l.32-.37c.35.15.73.05 1.12.2.03.02.07.02.1.02.04-.02.06-.05.06-.09l.07.1c.01.02.03.04.07.06.34.1.63.1.87-.01.34.1.69.07 1.05-.09.12.16.42.16.88.02.18.09.32.04.42-.14l.33.13c.11.04.18.09.2.13.05.15.15.2.3.15l.81-.28c.02 0 .03-.01.04-.03.16-.22.1-.34-.15-.38l.38-.22c-.03.03-.04.06-.03.07.02.03.05.05.08.06h.1c.66-.26 1.3-.52 1.94-.8.13-.05.14-.12.04-.21.5.02.67-.2.99-.59.08.13.16.14.23.04a.18.18 0 0 1 .13-.09c.13-.02.17-.11.14-.26.19.05.32-.04.4-.26.25 0 .83-.26.64-.64.19.05.33-.02.4-.23.31-.07.47-.22.46-.44.2-.09.3-.21.25-.37.26.05.3-.18.4-.34a.26.26 0 0 1 .09-.09c.08-.05.1-.13.06-.25.1-.01.3-.34.36-.43Z" fill="#563208"/><path d="M20.7 35.56c.52.47.84.79.1 1.32a.2.2 0 0 0-.08.11c-.27 1.1-1.18.12-1.55-.2a.1.1 0 0 1-.02-.03c-.08-.11-.03-.2.12-.24l1.03-1.12a.11.11 0 0 1 .12-.04c.1.03.2.1.28.2ZM37.32 36.93c-.08.2-.22.28-.4.23-.2-.03-.42.08-.66.34a.12.12 0 0 0-.03.11l.04.19c-.08.22-.21.31-.4.26-.3-.53-.5-1.1-.61-1.7-.05-.23.04-.36.26-.42.05-.01.1 0 .13.02l1.67.97Z" fill="#B8BBBE"/><path d="M20.7 36.33v.05l-.02.01a.2.2 0 0 1-.14.06.24.24 0 0 1-.16-.06l-.1-.08a.25.25 0 0 1-.05-.07.23.23 0 0 1-.02-.08.19.19 0 0 1 .05-.15l.01-.02.03-.01h.02l.38.35Z" fill="#3B3D3E"/><path d="m22.04 37.35.42-.22c.1-.06.2-.05.3.01l.2.14c.1.08.1.14-.03.2-.46.22-1.13.42-1.35.86-.1.19-.21.23-.39.1a.17.17 0 0 1-.05-.19l.03-.06c.4-.44.27-1.08.3-1.64a.14.14 0 0 1 .06-.11.15.15 0 0 1 .14-.01c.15.05.27.15.36.28.03.04.04.08.03.12l-.1.46c-.03.09 0 .1.08.06Z" fill="#B8BBBE"/><path d="M19.84 36.48a.06.06 0 0 1 .08-.01l.02.01a2.57 2.57 0 0 1 .3.3l.08.11c.01.03.01.05 0 .07l-.02.02c-.01.02-.03.02-.07.01a.54.54 0 0 1-.12-.05 1.63 1.63 0 0 1-.36-.23l-.01-.02a.06.06 0 0 1-.01-.08l.11-.13ZM35.94 36.78c-.02-.1.02-.12.12-.08l.2.1a.12.12 0 0 1 .08.11.12.12 0 0 1-.1.1c-.17.05-.28-.02-.3-.23Z" fill="#3B3D3E"/><path d="M35.37 38.37c-.32.39-.5.61-.99.59-.27.01-.51-.13-.72-.44-.82-1.23.78-2 1.03-1.27 0 .04.03.07.06.1.3.3.5.64.62 1.02Z" fill="#B8BBBE"/><path d="M36.91 37.16c.2.38-.4.64-.64.64l-.04-.19c0-.04 0-.08.03-.11.24-.26.46-.37.65-.34Z" fill="#0F0C07"/><path d="M34.32 38c0-.2-.06-.28-.19-.24.14-.1.26-.15.36-.16a.09.09 0 0 1 .09.05.09.09 0 0 1-.03.1.84.84 0 0 0-.23.25Z" fill="#3B3D3E"/><path d="M34.13 37.76c.13-.04.19.04.19.24.06.26.22.32.48.18a.04.04 0 0 1 .04 0 .04.04 0 0 1 .02.02l.02.06v.04l-.03.03a.78.78 0 0 1-.57.11c-.34-.07-.42-.46-.15-.68Z" fill="#161717"/><path d="m32.25 39.84-.38.22-.7.26a.1.1 0 0 1-.1-.03l-.02-.03-.5-1.75c0-.04.01-.07.05-.08.55-.18 1.32-.4 1.62.3.16.38.17.75.03 1.11ZM26.98 40.4c0 .04-.02.07-.07.09l-.1-.01c-.38-.16-.76-.06-1.11-.21-.59-.55-.3-1.85.66-1.8 1.05.07.84 1.3.62 1.93ZM30.34 40.34c-.1.18-.24.23-.42.14l-.25-1.73c-.02-.12.03-.19.14-.2l.13-.03c.11-.01.18.03.2.15l.2 1.67ZM29.04 40.46c-.36.16-.71.19-1.05.09-.43-.46-.27-1.16-.3-1.73-.01-.1.04-.16.15-.16h.17c.09 0 .13.05.13.14l-.02.99a.17.17 0 0 0 .12.17h.08l.24-.05a.23.23 0 0 0 .19-.22v-.92a.1.1 0 0 1 .06-.1.8.8 0 0 1 .33-.01c.05 0 .07.03.07.08.02.55-.04 1.13-.17 1.72Z" fill="#B8BBBE"/><path d="M31.18 39.08c0-.04 0-.08.02-.1a.15.15 0 0 1 .1-.07h.01a.69.69 0 0 1 .2-.02c.07 0 .13.02.18.05.06.02.1.05.14.1a.3.3 0 0 1 .07.13c.02.1-.01.21-.1.3a.62.62 0 0 1-.33.19h-.01a.15.15 0 0 1-.16-.06.14.14 0 0 1-.02-.05l-.1-.47Z" fill="#0F0C07"/><path fill-rule="evenodd" d="M23.74 39.7c.2.16.43.24.69.23.36-.14.5-.42.41-.85a.12.12 0 0 0-.07-.1l-.52-.25a.13.13 0 0 1-.06-.18l.02-.05a.1.1 0 0 1 .06-.05.1.1 0 0 1 .08.02l.37.3a.13.13 0 0 0 .13.03.48.48 0 0 0 .32-.3v-.05a.12.12 0 0 0-.02-.06c-.27-.35-.82-.64-1.2-.26a.62.62 0 0 0-.17.64c.02.08 0 .15-.07.2-.16.1-.27.2-.3.29-.05.08-.02.16.09.25a2 2 0 0 0 .24.19Zm.65-.38-.43-.32h-.02a.22.22 0 0 0-.04.19c0 .06.05.12.1.17l.03.01a.3.3 0 0 0 .2.06l.09-.02a.21.21 0 0 0 .07-.06v-.02Z" fill="#B8BBBE"/><path d="M25.9 39.77c-.34-.8.66-.93.85-.3a.1.1 0 0 1-.03.1.1.1 0 0 1-.1.03l-.23-.06a.1.1 0 0 0-.07 0 .1.1 0 0 0-.05.04.65.65 0 0 0-.08.23l-.03.06a.12.12 0 0 1-.07.03c-.1.02-.16-.03-.2-.13Z" fill="#0F0C07"/><path d="M16.97 17.86c-2.85 3.25-2.8 8.56-2.43 10.8 0-4.1 3.17-13.55 13.41-13.65 8.2-.08 12.34 7.11 13.36 10.62-.74-10.37-8.95-12.76-13.36-12.76-3.37 0-7.42.93-10.98 5Z" fill="#13790C"/><path d="M28.2 14.82c-8.8.1-12.39 6.96-13.08 10.37 2.59-7.6 9.8-9.66 13.08-9.75 8.1.18 12.12 6.97 13.12 10.34-.71-3.7-4.32-11.05-13.12-10.96Z" fill="#935513"/><path d="M38.15 32.43c.16 0 .3.06.41.13l-.45.85.26.14.43-.8c.13.1.27.2.44.26l-.4.76.25.13.43-.8c.16.06.3.15.4.28l-.6 1.05c-.1.07-.17.08-.23.03a5.52 5.52 0 0 0-1.13-.68l-.4-.2.6-1.15Z" fill="#B8BBBE"/></svg>