<svg xmlns="http://www.w3.org/2000/svg" width="112" height="112" viewBox="0 0 56 56"><rect fill="#6DD9ED" width="56" height="56" rx="28"/><path fill-rule="evenodd" d="M18.26 26.62l-2.5-9a1.71 1.71 0 012.02-2.13l9.1 2.02c.74.17 1.5.17 2.24 0l9.1-2.02a1.71 1.71 0 012.02 2.13l-2.5 9c-.25.9-.25 1.86 0 2.76l2.5 9a1.71 1.71 0 01-2.02 2.13l-9.1-2.02a5.14 5.14 0 00-2.23 0l-9.1 2.02a1.71 1.71 0 01-2.03-2.13l2.5-9c.25-.9.25-1.86 0-2.76zm-.1 15.56a3.43 3.43 0 01-4.05-4.26l2.5-9c.17-.6.17-1.24 0-1.84l-2.5-9a3.43 3.43 0 014.04-4.26l9.1 2.02c.5.11 1 .11 1.5 0l9.1-2.02a3.43 3.43 0 014.04 4.26l-2.5 9c-.17.6-.17 1.24 0 1.84l2.5 9a3.43 3.43 0 01-4.04 4.26l-9.1-2.02c-.5-.11-1-.11-1.5 0l-9.1 2.02z" fill="#fff"/><path fill-rule="evenodd" d="M22.09 20.14l4.6-8.13a1.71 1.71 0 012.93-.08l5 7.87c.4.63.95 1.17 1.58 1.57l7.87 5.01c1.09.7 1.05 2.3-.08 2.94l-8.13 4.6a5.14 5.14 0 00-1.95 1.94l-4.6 8.13a1.71 1.71 0 01-2.93.08l-5-7.87a5.14 5.14 0 00-1.58-1.57l-7.87-5.01c-1.1-.7-1.05-2.3.08-2.94l8.13-4.6a5.14 5.14 0 001.95-1.94zM11 31.06a3.43 3.43 0 01.15-5.87l8.14-4.6c.54-.3.99-.75 1.3-1.3l4.6-8.13a3.43 3.43 0 015.86-.15l5.01 7.87c.27.42.63.78 1.05 1.05l7.87 5a3.43 3.43 0 01-.15 5.88l-8.14 4.6c-.54.3-.99.75-1.3 1.3l-4.6 8.13a3.43 3.43 0 01-5.87.15l-5-7.87a3.43 3.43 0 00-1.05-1.05l-7.87-5z" fill="#fff"/><path d="M30 23.34l4 3.43V32h-3v-4h1v3h1v-3.77l-3-2.57-3 2.57V31h1v1h-2v-5.23l4-3.43z" fill="#fff"/><path d="M26 23.34l-4 3.43V32h3v-4h-1v3h-1v-3.77l3-2.57 3 2.57V31h-1v1h2v-5.23l-4-3.43z" fill="#fff"/></svg>