<svg width="112" height="112" viewBox="0 0 56 56" xmlns="http://www.w3.org/2000/svg"><path d="M14.06 21.49c-1.02-1.75-1.57-4.16-1.03-6.15.16-.59.81-1.1 1.43-1.17a8.4 8.4 0 0 1 3.13.1 12.94 12.94 0 0 1 4.21 1.96h.08c1.41-.52 2.91-.92 4.5-1.2 2.99-.52 5.67-.05 8.56.86a.23.23 0 0 0 .19-.02c.9-.55 1.8-.99 2.66-1.32a8.2 8.2 0 0 1 3.77-.51c1.73.16 2.13 1.27 2.1 2.91a9.38 9.38 0 0 1-1.25 4.51.26.26 0 0 0 .01.27 18.38 18.38 0 0 1 1.8 3.51c.78 2.05.96 4.5.6 6.6-.51 3.15-3.13 5.82-5.74 7.44-2.03 1.27-4.27 2.3-6.61 2.52-3.43.32-7 .25-10.73-.2-2.18-.27-4.17-.9-5.96-1.9a8.37 8.37 0 0 1-4.35-5.72c-.87-3.95-.5-7.9 1.85-11.21l.77-1.08a.18.18 0 0 0 .04-.1c0-.04-.01-.07-.03-.1Z" fill="#201614"/><path d="M43.58 16.48c-.5.26-.98.2-1.43-.17-.12-.23-.26-.36-.41-.37-.4-.13-.82-.13-1.24.02a.34.34 0 0 1-.18 0c-.8-.18-1.08-.77-1.23-1.57.98-.25 2-.26 3.08-.01.98.22 1.3 1.08 1.4 2.1ZM18.23 14.82c-.22.18-.48.26-.78.24-.03 0-.06 0-.08.02a.14.14 0 0 0-.06.08c-.01.06 0 .12.04.18a.18.18 0 0 1 0 .19.19.19 0 0 1-.17.1 8.94 8.94 0 0 0-2.1.17c-.8.17-1.28-.17-1.48-1.02a5.02 5.02 0 0 1 4.63.04Z" fill="#FECD37"/><path d="M39.1 14.39c.14.8.43 1.4 1.22 1.58.06.01.12 0 .18-.01.42-.15.84-.15 1.24-.02-.38-.03-.7-.02-.98.04-1.01.22-1.95.66-2.81 1.33l-1.88-1a.08.08 0 0 1-.03-.1l.02-.03c.96-.7 1.88-1.38 3.03-1.8ZM13.6 14.78c.2.85.69 1.19 1.48 1.02.68-.14 1.38-.2 2.1-.18a.19.19 0 0 0 .17-.09.19.19 0 0 0 0-.2.23.23 0 0 1-.04-.17c.01-.04.03-.06.06-.08a.13.13 0 0 1 .08-.02c.3.02.56-.06.78-.24l2.62 1.71a.04.04 0 0 1 .02.04l-.01.02-.02.02-1.94.92c-1.17-.74-2.19-1.35-3.54-1.53-.26-.04-.5-.02-.7.05-.5.16-.41.83-.4 1.27.01.28.07.52.18.7.1.84.47 1.45 1.11 1.84l.08.08-.88.94a.13.13 0 0 1-.1.04.13.13 0 0 1-.1-.05c-.62-.85-1.42-2.1-1.55-3.15a5.75 5.75 0 0 1 .08-2.02c.08-.34.25-.64.52-.92ZM30.89 15.35h-.14a.12.12 0 0 0-.1.05.14.14 0 0 0-.03.1c.01.16.04.29.09.37.14.43.2.82.17 1.19 0 .06-.03.12-.07.16-.22.24-.48.26-.77.07-.46-.32-.74-.85-.84-1.6v-.01h-.07l-.05.01a20.13 20.13 0 0 1-.08 1.2c-.03.26-.09.45-.18.58a.51.51 0 0 1-.38.22.5.5 0 0 1-.41-.16c-.47-.5-.43-1.2-.48-1.83a.1.1 0 0 0-.03-.06.1.1 0 0 0-.11-.02.1.1 0 0 0-.04.06l-.57 1.57-.03.06a.72.72 0 0 1-.79.22c-.62-.19-.44-1.13-.22-1.55a.08.08 0 0 0-.05-.12h-.04l-.88.25c.01-.16-.02-.33-.09-.52.7-.21 1.35-.34 1.93-.37 1.33-.07 2.75-.03 4.26.13Z" fill="#F5AF1C"/><path d="m30.89 15.35.9.12-.12.54v.08l.06.07c.42.24.69.39.81.43a13.47 13.47 0 0 1 4.17 2.17c1.16.61 2.33 1.23 2.87 2.1.7 1.16 1.31 2.11 1.85 2.87.72 1.02 1.02 2.23 2.2 2.85l-.99.25a17.7 17.7 0 0 1-6.54-.6c-.44-.15-1.07-.42-1.86-.83.96-.06 1.72-.07 2.29-.03a5.34 5.34 0 0 1 2.35.8h.03l.04-.05a.1.1 0 0 0 0-.14c-.4-.33-.78-.58-1.15-.74a8.9 8.9 0 0 0-4.51-.69l-.63-1.1c1.3.4 2.53.53 3.7.4 1.24-.13.95-1.2.36-1.84-.94-1-1.46-1.6-1.56-1.8-.86-1.56-1.7-3.5-3.8-2.97l.15-1.06-.01-.08a.14.14 0 0 0-.06-.07c-.28-.16-.52-.21-.73-.16a.96.96 0 0 1-.09-.38.14.14 0 0 1 .04-.1.13.13 0 0 1 .1-.03h.13Z" fill="#FCBE2A"/><path d="m38.85 18.04.24.1 1.22.9c.15.24.33.44.56.6.05.04.11.05.17.04l.08-.01c.57-.47.87-1.07.93-1.8.14-.47.17-.99.1-1.56.45.38.92.43 1.43.17.14 1.62-.71 3.1-1.67 4.33a.08.08 0 0 1-.06.03.08.08 0 0 1-.05-.02 8.02 8.02 0 0 1-.56-.6l.01.03v.03a26.73 26.73 0 0 1 2.88 6.02l-.5.28c-1.18-.62-1.48-1.83-2.2-2.85a49.61 49.61 0 0 1-1.85-2.86c-.54-.88-1.71-1.5-2.87-2.1l-.15-.1a13.47 13.47 0 0 0-4.02-2.08 5.5 5.5 0 0 1-.86-.5.14.14 0 0 1-.01-.08l.12-.54c1.83.22 3.53.8 5.1 1.75.62.38 1.08.87 1.73 1.18h.02l.02-.01v-.04a.06.06 0 0 0-.02-.03l-.63-.5a.05.05 0 0 1-.02-.06.05.05 0 0 1 .06-.03l.8.3Z" fill="#F5AF1C"/><path d="M24.7 15.59c.07.19.1.36.09.52.3 1.4.4 2.53.35 3.37a7.74 7.74 0 0 1-.75 3c-.17.33-.27.55-.31.69a.2.2 0 0 0-.05 0 .07.07 0 0 0-.05.04.08.08 0 0 0-.01.06c.02.13.02.16 0 .07l-1.05 1.28a9.76 9.76 0 0 0-3.51.1 7.7 7.7 0 0 0-2.7 1.23.1.1 0 0 0 0 .05v.08a.08.08 0 0 0 .03.07.08.08 0 0 0 .09 0c1.61-1.01 3.39-.87 5.3-.68-.13-.02-.24.04-.33.2-2.5 1.62-5.11 2.5-8.07 1.8l-.3-.14c.13-1.74 1.04-2.76 1.75-3.97.9-1.53 1.84-2.64 3.12-3.62.05-.03.1-.06.16-.07a3.95 3.95 0 0 0 2.56-1.6c.65-.82 1.1-1.41 2.17-2.05l1.51-.43Z" fill="#FCBE2A"/><path d="M30.7 15.87c.22-.05.46 0 .74.16l.06.07v.08l-.15 1.06c-.07.97-.05 1.8.06 2.48.1.7.34 1.59.69 2.68.09.3.28.64.56 1.05l.63 1.1c-.87.02-1.64.23-2.32.62-.23.13-.4.32-.5.57-.13.12-.1.33.06.64.07.15.19.24.34.3.88.27 1.96-.5 2.6-1.2l.77-.08c.8.4 1.42.68 1.87.82.75.24 1.72.43 2.93.58.92.15 1.84.23 2.77.23.48 0 .94.08 1.38.25a.13.13 0 0 1 .08.12 6.02 6.02 0 0 1-.73 2.86 2.1 2.1 0 0 0-.97-.28l-1.19-.04-.88-1.2a8.55 8.55 0 0 1 2.2-.23c.08 0 .17.03.24.09.04.03.09.08.14.15.08.12.17.15.27.1a.77.77 0 0 0 .3-.24.25.25 0 0 0-.12-.37c-.98-.32-2.4-.04-3.35.24-1.48-1.03-2.94-1.01-4.37.06a3.63 3.63 0 0 0-.23 5.72c.91.84 2.59.88 3.7.57a12.8 12.8 0 0 1-9.48 2.9c.31-.04.56-.17.72-.38.2.05.5-.08.91-.39l.02-.02v-.03a.05.05 0 0 0-.02-.03h-.03c-.76.12-1.6.2-2.51.25-.62.03-1.2-.17-1.83-.03-.06.02-.1.04-.1.08s.02.08.05.13c.3.22.66.37 1.07.45-2.67.23-5.33-.11-7.61-1.64-.5-.33-.97-.68-1.44-1.05.99.16 2.32.15 3.15-.47a3.59 3.59 0 0 0 1.44-3.8 3.3 3.3 0 0 0-1.36-2.2c-1.46-1.03-2.9-1-4.33.07a6.47 6.47 0 0 0-3.22-.27.25.25 0 0 0-.2.17.26.26 0 0 0 .05.26c.08.1.2.17.37.22a.13.13 0 0 0 .13-.03l.27-.27a.16.16 0 0 1 .06-.04l.07-.01 2.18.22-.76.92a.14.14 0 0 0-.04.1c0 .14-.08.21-.24.2-.22 0-.43 0-.65.05l-.68.03c-1.05-.43-1.65-2.01-.54-2.75 2.95.7 5.57-.18 8.07-1.8 1.09.07 1.5 1.19 2.78 1a.8.8 0 0 0 .59-.36c.14-.1.24-.08.3.06a.09.09 0 0 0 .09.06c.01 0 .03 0 .05-.02a.1.1 0 0 0 .03-.04c.1-.25.13-.53.09-.84l-.02-.03a.07.07 0 0 0-.07-.02l-.03.01a.54.54 0 0 0-.12.22.1.1 0 0 1-.06.06.1.1 0 0 1-.09 0 1 1 0 0 1-.3-.3 3.38 3.38 0 0 0-2.12-.85l1.04-1.28c.14.38.27.7.4.97a.22.22 0 0 0 .17.13.21.21 0 0 0 .2-.09c.08-.11.06-.25-.05-.4a9.65 9.65 0 0 0-.6-.78c.04-.14.14-.36.31-.68.4-.77.65-1.78.75-3.01.06-.84-.06-1.97-.35-3.37l.88-.25h.04c.02 0 .03.02.04.03a.08.08 0 0 1 0 .09c-.2.42-.4 1.36.23 1.55.3.09.57.02.79-.22a.18.18 0 0 0 .03-.06l.57-1.57a.1.1 0 0 1 .1-.06.1.1 0 0 1 .05.02.1.1 0 0 1 .03.06c.05.63.01 1.33.48 1.83a.52.52 0 0 0 .4.16.5.5 0 0 0 .39-.22c.09-.13.15-.32.18-.57a20.13 20.13 0 0 0 .08-1.2.07.07 0 0 1 .05-.03h.07v.02c.1.75.38 1.28.84 1.6.3.2.55.17.77-.07.04-.04.07-.1.07-.16.03-.37-.03-.76-.18-1.19Z" fill="#FEFDF8"/><path d="M41.74 15.94c.15.01.29.14.41.37.07.57.04 1.1-.1 1.55a5.24 5.24 0 0 1-.98 1.74c0 .03.02.05.05.07l-.08.01c-.06.01-.12 0-.17-.04-.23-.16-.41-.36-.56-.6l1.08-.56a.24.24 0 0 0 .11-.13 1.6 1.6 0 0 0-.1-1.58 46.02 46.02 0 0 0-.43-.58.14.14 0 0 0-.08 0c-.65.15-1.2.39-1.64.71a.32.32 0 0 0-.13.26l-.03.99-.24-.11-.9-.73a6.92 6.92 0 0 1 2.8-1.33c.28-.06.61-.07.99-.04ZM18.9 17.53l-1.07.63c-.3-.14-.51-.35-.65-.6v-.04a.06.06 0 0 1 .04-.06h.04l.08.04a.13.13 0 0 0 .15-.05.14.14 0 0 0 0-.17 2.27 2.27 0 0 0-1.66-.96c-.06 0-.13.01-.19.05-.6.42-1.13 1.16-.67 1.89.02.04.07.08.12.1l.66.24c.03.01.05.03.07.06l.52.63-.7.65-.09-.08.02-.01.01-.01v-.02a4.82 4.82 0 0 1-1.32-2.5c-.01-.44-.1-1.1.4-1.27.2-.07.44-.09.7-.05 1.36.18 2.37.79 3.54 1.53Z" fill="#DB5668"/><path d="M23.2 16.02c-1.08.64-1.53 1.23-2.18 2.04a3.95 3.95 0 0 1-2.56 1.6.42.42 0 0 0-.16.08 11.88 11.88 0 0 0-3.12 3.62c-.71 1.2-1.62 2.23-1.75 3.97l-.74-.3-.97-.6c.07-.26.16-.52.27-.79a18.4 18.4 0 0 1 2.03-3.6c.26-.36.36-.8.76-1.02l.14-.11A20.3 20.3 0 0 1 17 19c.49-.4.94-.71 1.35-.94.12.01.18.05.17.11-.67.43-1.2.93-1.71 1.53a20.28 20.28 0 0 1 6.38-3.68Z" fill="#F5AF1C"/><path d="m40.31 19.05-1.22-.9.03-1a.32.32 0 0 1 .13-.25c.45-.32 1-.56 1.64-.72a.14.14 0 0 1 .15.06l.36.53c.3.5.34 1.02.1 1.58a.24.24 0 0 1-.1.13l-1.09.57ZM17.83 18.16l-1.5 1.13-.5-.63a.17.17 0 0 0-.08-.06l-.66-.24a.26.26 0 0 1-.12-.1c-.46-.73.06-1.47.67-1.89a.27.27 0 0 1 .2-.05c.73.1 1.28.42 1.66.96a.14.14 0 0 1-.08.22h-.08l-.08-.03a.07.07 0 0 0-.07.02.06.06 0 0 0-.01.07c.14.25.35.45.65.6Z" fill="#EC7D95"/><path d="M23.81 17.48c.7.24.71 1.57.6 2.22-.28 1.59-1.05 3.66-2.64 4.1-1.42.4-1.77-.92-1.43-2 .38-1.2 1.83-4.89 3.47-4.32ZM32.66 23.45a4.28 4.28 0 0 1-.56-1.05c-.35-1.1-.58-1.99-.69-2.68-.1-.68-.13-1.5-.06-2.48 2.12-.52 2.95 1.41 3.8 2.97.11.2.63.8 1.57 1.8.59.63.88 1.71-.36 1.84a9.32 9.32 0 0 1-3.7-.4Z" fill="#FECD37"/><path d="M18.52 18.17c0-.06-.05-.1-.17-.1.12-.1.24-.16.36-.19a.05.05 0 0 1 .05.02l.01.03v.03a.64.64 0 0 1-.25.21ZM42.05 17.86a2.49 2.49 0 0 1-.93 1.8c-.03-.01-.04-.03-.05-.06v-.02l.01-.01c.4-.46.73-1.03.97-1.7Z" fill="#772036"/><path d="M19.78 20.16a.06.06 0 0 1 .02.04.06.06 0 0 1-.02.04l-1.15 1.26c-.26.28-.52.54-.73.72-.2.18-.34.27-.37.24l-.02-.02c-.03-.03.04-.18.2-.4.16-.22.4-.5.66-.78l1.16-1.27a.05.05 0 0 1 .08 0l.17.17Z" fill="#F5AF1C"/><path d="M24.64 22.8c.1.04.23.2.4.44.18.26.36.5.26.76a.2.2 0 0 1-.07.1.2.2 0 0 1-.3-.1l-.39-1.12a.07.07 0 0 1 .06-.1l.04.01ZM30.09 23.93a.06.06 0 0 1-.02-.08l.02-.03a9.14 9.14 0 0 1 .43-.73c.07-.09.12-.16.17-.2.04-.05.07-.07.09-.06l.05.03c.02.01.02.05 0 .1A5.58 5.58 0 0 1 30.4 24l-.01.04a.06.06 0 0 1-.08.02l-.21-.12ZM24.08 23.17c.22.25.42.51.6.77.11.16.13.3.05.41a.22.22 0 0 1-.2.09.21.21 0 0 1-.17-.13c-.13-.27-.26-.6-.4-.97.03.09.03.06.01-.07l.01-.06a.07.07 0 0 1 .05-.03.2.2 0 0 1 .05-.01ZM30.65 24.33a.04.04 0 0 1-.02-.06l.01-.01c.16-.31.34-.6.48-.8.14-.2.24-.3.28-.28l.04.02c.03.02 0 .17-.09.4s-.23.53-.4.83v.02l-.01.01-.02.01h-.03l-.24-.14Z" fill="#C5202A"/><path d="M22.92 24.62c.84.05 1.54.33 2.13.84.12.23.13.42.03.57-.29.38-.62.46-.98.23-.71-.43-1.37-.7-1.97-.79-1.91-.2-3.69-.33-5.3.68a.08.08 0 0 1-.09 0 .08.08 0 0 1-.04-.07V26a.1.1 0 0 1 .04-.08c.89-.6 1.78-1 2.67-1.2a9.76 9.76 0 0 1 3.51-.1ZM34.24 25.4l-.77.08c-.58.1-1.11.3-1.61.58-.38.21-.65.31-.82.3-.3-.03-.5-.24-.57-.62.1-.25.27-.44.5-.57.68-.4 1.45-.6 2.32-.62a8.9 8.9 0 0 1 4.51.69 4.65 4.65 0 0 1 1.17.77.1.1 0 0 1-.02.11l-.04.04-.03.02-.03-.01a5.34 5.34 0 0 0-2.32-.8c-.57-.04-1.33-.03-2.3.03Z" fill="#2B140B"/><path d="M25.17 26.31c.02-.12-.01-.22-.09-.28.1-.15.09-.34-.04-.57.1.14.2.24.3.3a.1.1 0 0 0 .15-.05c.04-.1.08-.17.12-.22l.03-.01h.04l.03.02.02.03c.04.31.01.6-.1.84a.09.09 0 0 1-.07.06c-.02 0-.04 0-.05-.02a.1.1 0 0 1-.04-.04c-.06-.14-.16-.16-.3-.06Z" fill="#FBF1DE"/><path d="M22.13 25.47c.6.1 1.26.36 1.97.8.36.22.7.14.98-.24.08.06.1.16.09.28a.8.8 0 0 1-.59.37c-1.28.18-1.7-.94-2.78-1.01.09-.16.2-.22.33-.2ZM33.47 25.48c-.64.7-1.72 1.47-2.6 1.2a.58.58 0 0 1-.34-.3c-.17-.3-.19-.52-.06-.64.08.38.27.59.57.61.17.02.44-.08.82-.3.5-.28 1.03-.47 1.61-.57Z" fill="#F7E6C1"/><path d="M44.13 26.3c1.12 3.45.7 6.33-1.28 8.64a16 16 0 0 1-4.11 3.19 20.94 20.94 0 0 1-4.81 2.04 234.76 234.76 0 0 1 3.48-.81.03.03 0 0 1-.01.03c-1.14.82-2.2 1.05-3.65 1.5-.71.22-1.6.35-2.66.4-3.25.12-6.32 0-9.2-.37a12.57 12.57 0 0 1-5.97-2.34c-2.53-1.86-4.07-3.86-4.41-7.08-.2-1.8-.12-3.5.21-5.08l.97.62a5.1 5.1 0 0 0 .73 4.2c.49.75 1.28 1.76 2.36 3.06 1.08 1.28 2.25 1.88 3.32 2.59.83.54 1.4.87 1.74 1 2.93 1.17 5.92 1.33 9.2 1.25 1.48-.04 2.8-.35 4.26-.72 2.2-.57 3.85-1.69 5.4-3.28.8-.8 1.87-1.56 2.56-2.42 1.27-1.56 1.9-3.78 1.06-5.68a.23.23 0 0 0-.06-.08.22.22 0 0 0-.1-.05l-.52-.08.98-.25.51-.28Z" fill="#F7E6C1"/><path d="m42.64 26.83.52.08a.22.22 0 0 1 .16.13c.85 1.9.21 4.12-1.06 5.68-.7.86-1.76 1.61-2.55 2.42a11.23 11.23 0 0 1-5.41 3.28c-1.45.37-2.78.68-4.26.72-3.28.08-6.27-.08-9.2-1.25-.33-.13-.91-.46-1.74-1-1.07-.7-2.24-1.3-3.32-2.6a37.4 37.4 0 0 1-2.36-3.04 5.1 5.1 0 0 1-.73-4.21l.74.3.3.13c-1.11.74-.5 2.32.54 2.75-.16.03-.32.09-.48.18a.31.31 0 0 0-.13.17.32.32 0 0 0 0 .21l.03.1a.26.26 0 0 0 .15.16.25.25 0 0 0 .21-.02c.47-.28.96-.43 1.48-.47-.14.61-.16 1.2-.07 1.8-.25.42-.18.63.22.64a3.69 3.69 0 0 0 2.35 2.08c.47.37.95.72 1.44 1.05 2.28 1.53 4.94 1.87 7.6 1.64.6.1 1.16.1 1.73-.02 3.54.3 6.7-.66 9.48-2.9l.73-.3a6.62 6.62 0 0 0 3.1-2.76c.14-.26.16-.57.05-.92.3-.04.43-.24.38-.6a6.02 6.02 0 0 0 .7-2.93.13.13 0 0 0-.05-.05c-.44-.17-.9-.25-1.38-.25-.93 0-1.85-.08-2.77-.23 1.21.16 2.41.17 3.6.03Z" fill="#FBF1DE"/><path d="M39.18 28.48c-.65.26-1.42.57-1.8 1.17a.09.09 0 0 0 0 .1l.05.03h.06l2-1.04.9 1.2c-.76.07-1.97.18-2.54.66a.04.04 0 0 0 0 .07h.03c.83-.3 1.7-.41 2.6-.33l.2 1.76a6.67 6.67 0 0 0-2.7-.66l-.02.06a.05.05 0 0 0 .02.06l.03.01c.9.17 1.7.56 2.4 1.19-.33.7-.8 1.3-1.4 1.78l-.73.3c-1.11.3-2.79.26-3.7-.58a3.63 3.63 0 0 1 .23-5.72c1.43-1.07 2.89-1.1 4.37-.06ZM18.03 35.07A3.69 3.69 0 0 1 15.68 33a7.2 7.2 0 0 1 2.5-1.3c-.95-.04-1.86.18-2.72.65a4.86 4.86 0 0 1 .07-1.79 5.76 5.76 0 0 1 2.76.3h.02l.02-.06a.06.06 0 0 0-.04-.08 6.75 6.75 0 0 0-2.7-.57c.17.01.25-.06.25-.2 0-.04.01-.07.04-.1l.76-.92a7.65 7.65 0 0 1 2.09 1.04.1.1 0 0 0 .05-.03.1.1 0 0 0 .01-.13c-.42-.57-1.08-.84-1.86-1.13 1.43-1.07 2.87-1.1 4.33-.06a3.3 3.3 0 0 1 1.36 2.2 3.59 3.59 0 0 1-1.44 3.79c-.83.62-2.16.63-3.15.47Z" fill="#F3A2A8"/><path d="M29.77 28.88c.95-.4 1.48 2.13-.14 2.2l-.42.03a.16.16 0 0 0-.14.16v.95l-.03.18c-.38.87-2.13.73-2.04-.46a15.33 15.33 0 0 0 0-.82.09.09 0 0 0-.1-.05c-.63.14-1.27.04-1.6-.55-.3-.55-.25-1.44.47-1.61A.23.23 0 0 1 26 29l.01.01a.12.12 0 0 1 .02.11.11.11 0 0 1-.08.07c-.22.05-.38.2-.46.46-.4 1.15 2.06 1.93 2.28-.05 0-.04 0-.07-.02-.1a.15.15 0 0 0-.08-.07c-.58-.19-1.08-.41-1.2-.92a.42.42 0 0 1 0-.18.46.46 0 0 1 .07-.17.54.54 0 0 1 .33-.2c.41-.08 1.78-.21 2.11.2.07.09.1.2.1.31 0 .12-.05.23-.13.31-.2.2-.45.4-.76.6a.2.2 0 0 0-.09.17v.71a.33.33 0 0 0 .13.26c.42.32.95.39 1.57.2.93-.26.72-1.42-.03-1.69a.08.08 0 0 1-.04-.03.09.09 0 0 1 0-.1l.03-.02Z" fill="#2B140B"/><path d="m39.5 28.74-2.01 1.04a.08.08 0 0 1-.1-.02.09.09 0 0 1-.01-.1c.38-.6 1.15-.92 1.8-1.18.96-.28 2.37-.56 3.35-.24a.24.24 0 0 1 .15.15.25.25 0 0 1-.03.22.77.77 0 0 1-.3.24c-.1.05-.2.02-.27-.1a.69.69 0 0 0-.14-.15.43.43 0 0 0-.25-.1 8.55 8.55 0 0 0-2.2.24Z" fill="#C5202A"/><path d="M27.1 28.42a.14.14 0 0 1 .04-.18.13.13 0 0 1 .07-.02h1.33a.18.18 0 0 1 .17.12.19.19 0 0 1-.04.2l-.56.57a.28.28 0 0 1-.38.03c-.26-.21-.47-.45-.63-.72Z" fill="#772036"/><path d="M16.93 28.67c.78.3 1.44.56 1.86 1.13a.1.1 0 0 1 0 .13.1.1 0 0 1-.13.01 7.65 7.65 0 0 0-2.02-1.02l-2.18-.22h-.07a.16.16 0 0 0-.06.05l-.27.27a.13.13 0 0 1-.13.03.8.8 0 0 1-.37-.22.26.26 0 0 1 .15-.43 6.47 6.47 0 0 1 3.22.27ZM40.38 29.94l1.2.04c.33.01.65.1.96.28.05.36-.08.56-.38.6a2.79 2.79 0 0 0-1.68-.52 5.82 5.82 0 0 0-2.62.33.04.04 0 0 1-.03-.04c0-.01 0-.02.02-.03.57-.48 1.78-.59 2.53-.66ZM14.95 30.19a6.74 6.74 0 0 1 3.38.56v.04l-.02.05s0 .02-.02.02h-.02c-.89-.32-1.8-.43-2.74-.3-.51.03-1 .18-1.48.46a.25.25 0 0 1-.36-.14l-.03-.1a.32.32 0 0 1 0-.21.31.31 0 0 1 .13-.17c.16-.09.32-.15.48-.18l.68-.03Z" fill="#C5202A"/><path d="M42.16 30.86c.11.35.1.66-.05.92a6.62 6.62 0 0 1-3.1 2.76 4.86 4.86 0 0 0 1.4-1.78c.59.09.68-.13.27-.66l-.2-1.76c.64 0 1.2.18 1.68.52Z" fill="#FEFDF8"/><path d="m28.19 30.77.43.35a.12.12 0 0 1 .04.13l-.05.06a.11.11 0 0 1-.06.02h-.86a.08.08 0 0 1-.07-.03.09.09 0 0 1-.02-.07c.04-.33.17-.5.41-.52.07 0 .13.02.18.06Z" fill="#772036"/><path d="M40.68 32.1c.41.53.32.75-.28.66a4.82 4.82 0 0 0-2.43-1.22.05.05 0 0 1 0-.04l.01-.06H38l.01-.01c.94.04 1.84.26 2.68.67ZM15.68 33c-.4-.02-.47-.23-.22-.66a5.27 5.27 0 0 1 2.73-.64 7.2 7.2 0 0 0-2.51 1.3Z" fill="#C5202A"/><path d="M27.76 31.76c.37-.18.67-.12.91.2.03.04.06.09.07.15l-.01.16a.4.4 0 0 1-.23.26.97.97 0 0 1-.93-.04.28.28 0 0 1-.13-.23.29.29 0 0 1 .1-.24.37.37 0 0 0 .1-.13c.02-.06.07-.1.12-.13Z" fill="#EC7D95"/><path d="M29.52 37.35a7.89 7.89 0 0 1-3.39-.17c-.09-.02-.13.02-.12.13-.03-.05-.05-.1-.05-.13 0-.04.04-.06.1-.08.63-.14 1.21.06 1.83.03a23.55 23.55 0 0 0 2.54-.25.05.05 0 0 1 .02.06l-.02.02c-.41.31-.71.44-.9.39Z" fill="#D2C8C0"/><path d="M29.52 37.35c-.16.2-.4.34-.72.39-.57.11-1.14.12-1.72.02a2.8 2.8 0 0 1-1.07-.45c0-.11.03-.15.12-.13 1.11.3 2.24.36 3.4.17Z" fill="#94817C"/></svg>