<svg xmlns="http://www.w3.org/2000/svg" width="112" height="112" viewBox="0 0 56 56"><rect fill="url(#amsyk5mi4)" width="56" height="56" rx="28"/><path d="M28 9l-11 6v12l1.83 1L17 29v12l10.87 6L39 41v-7h-5.29L28 37.04l-5-2.66v2.23l5 2.71 6.37-3.38H37V40l-9 5-9-5V30l1.73-.96L28 33l6.55-3.57-1.84-1.05L28 31l-5.4-3-1.86-1.04L19 26V16l9-5 9 5v2.5h2V15L28 9zm11 10.45h-2V26l-1.73.96L28 23l-6.42 3.5 1.88 1.02L28 25l3.88 2.15 3.75 2.07-.02.01L37 30v3h2v-4l-1.83-1L39 27v-7.55z" fill="url(#bmsyk5mi4)"/><path d="M36.46 15.39c-.12-.01-.14.17-.13.25 0 .19.35 0 .39-.04.03-.04-.1-.2-.26-.21zm1.64-.06c-.13-.03-.26.13-.31.22 0 .25.2.1.31 0 .06-.06.14-.2 0-.22zm-1.28-.8c-.12-.02-.1-.15-.08-.2.07-.15.3 0 .3.09 0 .1-.07.14-.22.11zm1.2 2.45a.25.25 0 01.16-.3c.24.1.1.42.07.55-.03.12-.17-.02-.23-.25zm.84 1.2c-.26.05-.53.36-.63.5l.63.07c.1-.21.26-.63 0-.57zm-1.92.09c-.14-.06-.26.25-.3.4h.61c-.04-.1-.17-.33-.3-.4zm.73-.09c-.1.06-.19-.13-.22-.23.06-.18.22-.12.31-.05.1.06.03.2-.09.28zm.32-.49c-.08.04-.33-.18-.45-.3 0-.14.2-.09.29-.06.07.03.26.3.16.36zm-.64.01c.05-.13-.13-.15-.22-.15l-.17.3c.1 0 .34-.03.4-.15zm-9.62 7.22c-.05-.01-.07-.14-.07-.2.14-.15.19 0 .22.05.02.04-.08.17-.15.15zm-1.01-.32c-.02-.12-.09-.16-.12-.17h.48c-.04.07-.12.22-.09.25.05.04-.02.22-.15.19-.13-.04-.1-.13-.12-.27zm12.05-3.21c-.07 0-.27-.28-.37-.42.14.16.83 0 .85.04.03.05-.39.38-.48.38zm.25-1.09c-.06-.1-.35-.08-.48-.06.04.06.16.18.23.21.1.04.32-.01.25-.15zm-1.63.28c-.1-.02-.19.07-.22.12.03.13.15.11.25.13.1.02.25-.06.24-.18-.01-.1-.15-.04-.27-.07zm.76-.11c-.03-.2-.2-.25-.29-.24 0 .08-.04.29-.05.5-.02.27.17.36.28.36.11 0 .09-.37.05-.62z" fill="#14161A"/><path d="M39.13 21.68c.07-.16-.58-.5-.3-.43.36.08.33.61.3.43zm-.82.29c-.1.05-.06-.21-.03-.35a.88.88 0 01.36 0c.1.05-.2.3-.33.35zm-.44.57c-.06-.11.03-.26.08-.32.2 0 .18.47.15.52-.03.04-.15-.06-.23-.2zm-.6-.38l-.05-.86c.07-.03.24-.1.35-.1.15.01.07.1.07.22 0 .1-.14.1-.21.09v.56c.03 0 .11-.01.21-.05.13-.06-.02-.18-.07-.32-.04-.14.06-.05.34 0 .29.05.12.38 0 .37-.11 0-.1.05-.13.17-.03.11-.37.24-.5.2-.14-.04 0-.12 0-.28zm-.31-1.97c-.1-.03-.15-.18-.16-.25l.63-.07c.12.05.35.18.31.28-.04.12-.67.07-.78.04zm-.11 1.89c-.12 0-.12-.16-.1-.25.12-.1.26.02.28.07.03.04-.03.18-.18.18zm.18.41c-.04.06-.17-.13-.23-.24a.59.59 0 01.23-.04c.07.02.06.2 0 .28zm1.47.81a.15.15 0 01-.05-.17c.3-.03.34.29.34.34 0 .05-.21-.1-.3-.17zm-.42.46c-.09.03-.17-.25-.2-.39a.27.27 0 01.2 0c.1.05.12.36 0 .4zm-.74.16c-.1-.07.04-.27.12-.36.03 0 .1.02.14.1.04.08-.14.34-.26.26zm-.46-.52c-.16 0-.15-.15-.12-.22.07-.03.22-.08.27-.04.07.04.05.26-.15.26zm2.49.87c-.05-.08-.67-.09-.55-.06 0 .05.03.16.02.2 0 .06.58-.05.53-.14zm-.34-.57c.03.18-.66.48-.24.42.52-.07.44-.55.24-.41z" fill="#14161A"/><path d="M38.3 24.4c-.07.09-.03.22 0 .28.11 0 .35-.02.44-.09.11-.08.07-.38 0-.45s-.34.16-.43.27zm-1.5.25c.05-.05.18-.47.24-.67 0 .2.33.41.49.5v.17c-.26.03-.76.06-.72 0zm1.33 2.28c-.1-.02-.24.04-.3.07 0 .07.24.15.3.13.06-.03.11-.17 0-.2zm.42-.31c-.08-.15.43.07.44.08l-.07.22c-.1-.05-.31-.19-.37-.3zm-.16-.33c-.06-.15.11-.24.21-.27v.45c0 .04-.13 0-.21-.18zm-.7-.53c-.13-.11.05-.36.16-.47.11-.01.35 0 .38.1.04.13-.38.5-.54.37zm-1.95 3.51c-.05-.02-.02-.15 0-.22.17.04.5.14.5.22 0 .1-.44.01-.5 0zm-.19-.37c-.12-.04.05-.3.14-.42.06.02.18.08.2.16.02.1-.2.3-.34.26zm.85-.9c-.16 0-.18-.5-.17-.74.31-.17.43.35.48.52.06.16-.13.23-.32.22zm-1.17-.59c-.03.22.11.4.2.47.22-.1.07-.3.04-.44-.01-.1.36-.45.54-.61.13 0 .43-.01.56-.03.13-.02.05-.15 0-.22-.26-.01-.78-.01-.81.08-.04.11-.48.47-.53.75zm-1.88 1.58c-.1 0-.01.17.04.26.1 0 .32-.02.3-.11-.02-.11-.23-.14-.34-.15zm-.53.1c-.1-.1-.23.16-.29.3.46 0 .25.34.32.32.06-.01.28.03.38.05 0 .17.02.5.1.54.07.04.48-.34.68-.54-.1-.07-.32-.24-.46-.3-.18-.07-.46 0-.63-.07-.16-.06.02-.18-.1-.3zm-.81-.02c.01-.16.1-.48.38-.43.28.05-.13.3-.38.43zm-.69.55c-.1-.08-.41.08-.55.16l.07.11c.17.02.56.04.65 0 .12-.05-.03-.17-.16-.27zm-.29-.46c-.12-.05-.21.16-.25.27.15 0 .45-.02.46-.1.02-.1-.07-.1-.21-.17zm2.13-2.76c-.08.05-.54.24-.77.33.41.25 1.27.73 1.39.68.15-.06 0-.47 0-.56 0-.08-.52-.51-.62-.45zM38 29.83c-.08-.04-.15.06-.18.11-.04.22-.1.68-.1.83.03.19.34 0 .42-.04.08-.04-.08-.37-.14-.43-.06-.07-.04-.14.06-.2.1-.04.04-.22-.06-.27zm-.8.88c-.1 0-.24-.33-.3-.5.3-.05.3.18.42.25.1.06.01.27-.11.25zm.07-1.2c-.05-.17.14-.37.24-.44.19.06.1.5.07.56-.03.08-.07.38-.17.32s-.09-.22-.14-.44zm.66-.56c.1-.08.27-.3.33-.39.09.04.23.15.12.29-.13.16.2.58.23.76.03.17-.08.18-.23.12-.14-.06-.03-.46-.15-.58-.12-.12-.18.12-.23.34-.06.23-.07-.1-.12-.22-.06-.11-.07-.22.05-.32zm-1.05 3c-.1.06 0 .2.07.27l.25.03.08.27h.65l-.65-.36c0-.06 0-.2-.05-.27-.07-.08-.24-.02-.35.06zm.84 4.63c0-.16.04-.15.06-.13.03 0 .1.01.14.05.03.05-.07.51-.2.47-.13-.04-.01-.2 0-.4zm-4.46 5.98c-.2.01 0 .27.14.39.06 0 .17-.03.17-.15 0-.15-.07-.26-.31-.24zm-1.92.87c-.14.06-.01.23.07.3.08-.01.23-.09.22-.2-.02-.16-.1-.18-.29-.1zm6.96-4.03c-.23-.2-.48.09-.58.26.09 0 .29.01.38.07.1.05-.09.19-.18.25-.04.07-.05.2.18.18.29-.02.5-.5.2-.76zm-.74-.35l.3-.41.33.41h-.63zm-6.24 5.31c-.23.08.02.35.18.47.06-.04.2-.14.23-.27.04-.16-.13-.3-.41-.2zm6.1-8.98c0 .17.04.5.3.48.33-.03-.13-.53-.3-.48zm-.34-.15c-.04-.04-.02-.13 0-.17.1-.17.24 0 .22.1-.02.11-.18.11-.22.07zm1.2-.77c-.14-.03-.06-.23 0-.33.06 0 .17.02.19.1.02.1 0 .26-.19.23zm-1.88.64c-.1 0-.1-.15-.07-.23.07-.17.23-.13.28 0 .05.12-.06.2-.2.22zm.42-.78c-.18 0-.12-.44-.07-.66h.17c.1 0 .12.66-.1.66zm-3.3.25c-.12-.07-.24.18-.3.3 0 .18.2.07.3 0 .1-.06.15-.22 0-.3zm1.12.19c-.13-.07-.26.2-.32.33 0 .2.22.07.32 0s.16-.25 0-.33zm-2.66.95c.01-.1-.07-.12-.12-.12a.77.77 0 01-.28.12c-.1 0 0 .12.15.16.15.04.23-.03.25-.16zm-5.84 1.46c.03-.13-.06-.17-.1-.17-.05 0-.15.02-.19.12-.03.1.08.16.13.18.04.01.12 0 .16-.13zm1.63.82c-.21-.13-.25.15-.24.3h.3c.15 0 .2-.14-.06-.3zm-.64.16c-.03-.14-.01-.4.26-.32.35.11-.16.58-.26.32zm-2.32-.57c0-.18.07-.5.28-.35.27.2-.1.54-.28.35zm.54-1.25c-.07 0-.07.13-.06.2 0 .07.04.24.13.24.1 0 .12-.15.12-.27 0-.12-.1-.18-.2-.17zm-.38.1c-.09 0-.1.12-.1.18.02.06.08.18.13.2.06 0 .16-.15.16-.2 0-.06-.07-.19-.19-.18zm-.49-.39c-.09-.02-.08-.12-.07-.17.01-.05.05-.14.12-.14.08 0 .12.08.11.16 0 .08-.04.16-.16.15zm.87.16c.01-.1-.1-.17-.16-.2-.15.08-.13.3-.06.33.07.04.2-.03.22-.14zm-1.81-.6c-.14.01-.2-.16-.21-.24.02-.09.09-.25.21-.23.13.02.17.16.18.23 0 .07-.03.21-.18.23zm.36-.07c-.09.02-.12-.1-.13-.15 0-.05.05-.16.14-.15.08.02.1.1.11.15 0 .05-.02.14-.11.15zm4.58 10.44c-.09 0-.13.1-.14.15 0 .05.03.17.14.17.13-.01.18-.09.2-.15 0-.06-.1-.17-.2-.17zm-.95.09c.02-.13.09-.39.23-.35.19.04.11.37-.23.35zm-.58.5c-.16.07-.22-.18-.23-.32h.3c.22 0 .12.24-.07.32zm-.74-1.46c-.06-.02-.07-.11-.07-.16 0-.02.02-.08.07-.11.07-.04.14.11.14.2 0 .1-.05.1-.14.07zm-1.67-1.27c-.1.09.01.2.08.25.06-.05.17-.18.17-.25 0-.08-.11-.1-.25 0zm-1.77-1.03c-.1 0-.3-.36-.39-.54.3-.08.46.14.5.25.04.1.02.31-.1.3zm-.82-.63v-.46c.1.04.31.15.4.26.09.11-.23.18-.4.2zm-1.83-.82c.02.15.09.43.18.36.12-.1.09-.36-.18-.36zm-1.85-1.11c-.07.25-.11.77.24.86.35.08-.02-.54-.24-.86zm-.53-1.49c-.07-.03.02-.18.07-.26.2-.09.27 0 .3.1.01.08-.3.19-.37.16zm.06-1.09c-.14-.01-.06.22 0 .34.07 0 .22-.03.3-.13.08-.12-.13-.18-.3-.2zm.55-2.24c-.12-.05-.12.17-.1.3.06.02.19.06.26 0 .08-.09-.02-.23-.16-.3zm.05-1.68c-.15-.09-.32.31-.4.52-.05.14.26.07.34 0 .09-.07.24-.41.06-.52zm6.3-3.34c-.04-.08-.22.02-.3.09.16 0 .25.38.36.39.11 0 .3-.14.3-.22 0-.09-.22-.05-.3-.07-.07-.02 0-.1-.06-.2zm.48-1c-.04-.04-.3.01-.43.05-.1.1.29.22.43.22s.05-.22 0-.27zm.62.63c-.12-.16-.32.06-.4.2.02.02.08.08.17.08.1 0 .36-.09.22-.28zm-.05 1.03c-.14-.08-.06-.31 0-.42.14 0 .38.27.35.37-.04.1-.18.16-.35.05zm-.71-.95c-.12-.05-.16.2-.16.32.06.02.22.05.33-.04.12-.12-.03-.2-.17-.28zm-.97-.51c-.1-.02-.19.14-.22.23.26.08.07.4 0 .45-.07.05-.08.23.03.27.1.05.38-.1.42-.18.05-.09-.17-.13-.13-.23.05-.1.12-.07.13-.31.02-.24-.1-.22-.23-.24zm-.78-3.08c-.02-.08.06-.16.11-.2.21.12.1.38 0 .41-.1.03-.08-.1-.11-.2zm1.86-.72c-.12-.05-.23-.2-.27-.28.09-.02.3-.07.43-.05.16.01.33.32.26.37-.07.06-.27 0-.42-.05zm-2.35 2.9c.15.06.45.2.4.34-.06.17-.47-.01-.4-.34zm-5.16 1.61c-.04-.1-.15-.04-.2 0 .04.08.12.26.12.3 0 .04.08.46.16.54.09.07.46.17.46.1s-.42-.5-.35-.55c.06-.06.16-.23.1-.23s-.24-.04-.29-.16zm.47-.61c-.1.04-.17-.07-.2-.13.09-.1.28-.1.34 0 .05.1-.02.1-.14.14zm.69-1.16c-.1-.03-.01-.15.04-.2.04 0 .15.05.2.09.08.04.1-.03.2.07.08.1.05.44 0 .5-.07.05-.2-.03-.2-.26.02-.23-.14-.16-.25-.2zm1.5-.97c-.08-.1.07-.2.15-.24.1.04.3.12.32.15.04.04.04.14-.08.2a.32.32 0 01-.39-.1zm1.54.88c-.04-.15-.6-.6-.87-.8-.16.1.38.8.5.9.1.09 0 .39 0 .5-.02.11.03.24.12.21.08-.02.3-.64.25-.81zm-3.48-1.91c0-.1.06-.15.1-.17.13 0 .2.19.21.26 0 .07-.1.1-.16.1s-.13-.08-.15-.2zm2.04 1.71c-.06-.04-.26.01-.35.05-.03.1-.08.3 0 .37.1.1.32 0 .4-.1.08-.1.04-.27-.04-.32zm-.9-.65c-.06-.22-.5-.43-.7-.5.13.31.42.95.5.97.1.02.25-.2.2-.48zm-1.32-2.32c-.09-.04-.04-.3 0-.41.23-.13.26 0 .34.12.09.13-.22.35-.34.3zm.57-2.81c-.07-.1.15-.28.27-.35.18.04.08.22 0 .32-.07.1-.18.16-.27.03zm-.85.32c.12.35.38 1 .46.74.11-.3 0-.87-.46-.74zm-.05-1.47c-.14-.04-.3.25-.36.4 0 .01.03.03.15 0 .15-.04.37-.35.2-.4zm.16-.27c.1-.04.98-.8.51.4.02-.18-.07-.5-.5-.4zm.55-1.23c-.09.03-.26-.2-.34-.31.04-.14.22-.03.34.04.12.06.12.25 0 .27zm-1.07.54c-.06.01-.1.13-.1.2.02.03.08.1.18.08.11-.01.5-.23.49-.33-.02-.1-.5.03-.57.05zm.19-1.03c-.06-.05-.05-.16-.03-.2.34.02.29.27.25.3-.05.04-.15-.03-.22-.1zm-.42.32c0-.12.1-.23.15-.27.2-.04.17.23.17.27 0 .05-.09.27-.17.26-.1 0-.15-.1-.15-.26zm.56-.85c0-.11-.2-.2-.3-.22.03.1.08.28.15.32.1.04.16.04.15-.1zm.86-1.76c-.07-.06-.06-.12-.05-.14.04-.03.14-.07.23 0 .1.08.03.11 0 .22-.04.12-.1 0-.18-.08zm-.38.35c-.14-.04-.06-.15 0-.2.18-.16.25 0 .38.2s-.2.05-.38 0zm-.54.05c.02-.3-.35-.53-.53-.62-.14.09-.37.24-.11.22.32-.04.62.76.64.4zm.36-1.07c-.02-.05.07-.18.12-.24.1-.12.2.05.2.12 0 .08-.14.23-.2.23-.06.01-.08-.05-.12-.11zm-.22-.06c-.07 0-.1-.1-.11-.15l.1-.1s.17.06.18.1c.01.04-.09.14-.17.15zm1.2-.51c-.13 0-.16-.14-.16-.2.02-.06.1-.16.16-.19.08-.03.15.18.17.25.02.07-.01.15-.17.15zm-1 1.82a.22.22 0 01-.1-.18l.24.06c.04-.05.25-.06.21.12-.03.17-.22.07-.34 0zm1.33-3.09c-.06.05-.15-.08-.18-.15 0-.15.11-.16.18-.1.07.06.08.19 0 .25zm1.38-.3c-.03-.02-.01-.17 0-.24.1 0 .26.18.24.24-.03.06-.2.02-.24 0zm-.33-.21c-.13-.02-.06-.15 0-.22.07-.12.2 0 .25.13.05.12-.09.12-.25.1zm1.98-.71c-.13.02-.1-.19-.07-.3a.26.26 0 01.25 0c.12.08-.01.27-.18.3zm-2.34 1.37c-.12.06.02.26.1.36.08-.07.25-.23.26-.3.01-.07-.2-.14-.36-.06zM31.7 12.2c-.07 0-.07.14-.06.21.24.09.1.24 0 .3.02.14.07.42.14.41.08 0 .3-.44.3-.51-.01-.08-.15-.08-.2-.2-.07-.11-.1-.19-.18-.2zm-.73.43c-.07 0-.16-.15-.2-.22.07-.09.3 0 .4.1.1.08-.11.13-.2.12zm-.71-.36c-.13.06-.18-.08-.19-.16.03-.05.1-.16.19-.14.1.02.15.23 0 .3zm3.44 1.64c0-.05-.28-.2-.42-.26-.1 0-.04.26 0 .3.04.04.4.03.42-.04zm1.5.79c-.1.1.03.57.1.79.09-.3.44-.52.61-.6-.09-.03-.26-.12-.27-.19-.01-.07.57-.07.56-.11 0-.04-.33-.31-.5-.44.03.05.09.19.05.26-.05.1-.45.17-.56.3z" fill="#14161A"/><path d="M34.06 13.18c-.1-.04-.16 0-.18.03h-.04c-.07.08.2.27.34.36-.06.05-.24.2-.46.43-.27.3.16.67.27.7.11.04.57-.57.5-.64-.06-.07-.16.21-.43.29-.27.07-.18-.24-.13-.35.05-.11.6-.25.56-.34a1.5 1.5 0 00-.43-.48z" fill="#14161A"/><path d="M34.87 13c-.14-.04-.37.1-.46.17l-.06.1c-.16.2.57 0 .68.2.11.2.32.39.47.18.15-.21-.46-.6-.63-.65zm-.75 0a3.07 3.07 0 010-.9c.29.19.83.56.7.54-.15-.02-.62.43-.7.36zm-.57-.43c-.09-.05.04-.4.11-.58l.28.1c.07.02-.28.53-.39.48zm-.48-.07c-.12-.09-.1-.65-.07-.91l.5.31c-.09.24-.3.68-.43.6zm-2.45-1.47c-.06-.14-.47 0-.45.05.03.04.1.15.17.29.1.17.21.22.28.26.08.04.07-.46 0-.6zm-1.54.09c.03-.05-.34-.04-.52-.04.05.1.18.28.22.28.06 0 .27-.17.3-.24zm1.62-.27c-.02-.1.13-.28.21-.37.08.06.23.2.23.24 0 .05-.43.24-.45.13zm-2.4.01c-.07-.05-.1-.5-.11-.72.1-.08.28.34.37.37.08.04.5-.03.45.1-.06.15-.6.32-.7.25zm-.33-1.66l-.25.16c.22 0 .04.36 0 .46-.05.1.12.12.19.11.07 0 .33-.34.39-.4.06-.07.33.23.38.3.05.05.34.03.39-.04.03-.06-.72-.41-1.1-.58zm6.9 5.03c-.09 0-.13.1-.14.17.06.22.25.1.26.04.01-.06-.01-.2-.12-.2zM25.22 12c-.14-.11-.2.29-.2.5.11-.16.38-.1.5-.05a1.4 1.4 0 00-.3-.45zm8.96 23.71c-.1-.1 0-.27.07-.35.25 0 .16.19.13.35-.03.17-.08.13-.2 0zm-5.72 9.75c-.1-.08-.04-.16 0-.19.25-.09.27.06.23.15-.04.08-.1.15-.23.04zm.42.14c-.11-.09-.05-.16 0-.2.24-.08.27.07.23.16-.04.08-.1.15-.23.04z" fill="#14161A"/><defs><linearGradient id="amsyk5mi4" x1="10.42" y1="9.71" x2="68.15" y2="76.02" gradientUnits="userSpaceOnUse"><stop stop-color="#1A1E21"/><stop offset="1" stop-color="#06060A"/></linearGradient><linearGradient id="bmsyk5mi4" x1="38.84" y1="28" x2="17.33" y2="28" gradientUnits="userSpaceOnUse"><stop stop-color="#818284"/><stop offset="1" stop-color="#FBFBFB"/></linearGradient></defs></svg>