<svg width="112" height="112" viewBox="0 0 56 56" xmlns="http://www.w3.org/2000/svg"><circle cx="28" cy="29" r="16" fill="url(#a)"/><circle cx="28" cy="27" r="16" fill="url(#b)"/><path fill-rule="evenodd" d="M28 41a14 14 0 1 0 0-28 14 14 0 0 0 0 28Zm0 2a16 16 0 1 0 0-32 16 16 0 0 0 0 32Z" fill="url(#c)"/><path fill-rule="evenodd" d="M28 37a10 10 0 1 0 0-20 10 10 0 0 0 0 20Zm0 3a13 13 0 1 0 0-26 13 13 0 0 0 0 26Z" fill="#D9D9D9" fill-opacity=".6"/><path d="M30.09 19.03c1.49.04 3.75.32 4.24 1.88-.02.07-.03.11-.02.13v.07l-.04.05a.14.14 0 0 1-.06.04h-.07c-.65-.14-1.27-.22-1.87-.25l-1.06-.05a.12.12 0 0 1-.07-.03.1.1 0 0 1-.03-.06l-.08-.65a.2.2 0 0 0-.04-.09.23.23 0 0 0-.08-.07.26.26 0 0 0-.2-.02c-.18.06-.35.08-.52.07-.08 0-.12-.04-.1-.12l.02-.03c.02-.08.07-.1.16-.1.26.04.52.03.78 0 .06-.01.12 0 .17.02.05.03.09.06.11.11l.23.41c.01.04.04.07.08.09l.12.04c.44.01.8-.08 1.07-.29.05-.03.1-.05.16-.05.14 0 .2.07.2.2v.31c0 .03.02.05.03.08l.07.04c.2.08.4.06.59-.05l.04-.03a.1.1 0 0 0 .01-.04c.02-.09-.02-.14-.12-.17a.47.47 0 0 0-.3 0 .15.15 0 0 1-.07.01.14.14 0 0 1-.07-.03.12.12 0 0 1-.04-.07l.01-.07c.1-.22-.14-.38-.35-.4-.22-.02-.26-.2-.42-.28-.17-.09-.37-.1-.6-.02-.1.03-.13.08-.1.16.02.1.09.18.2.2.04.03.08.01.1-.03l.08-.12c.01-.04.05-.05.09-.05.08 0 .14.05.16.14.02.12-.02.2-.14.26-.11.06-.24.1-.36.12-.05 0-.09 0-.12-.04a1.45 1.45 0 0 1-.33-.51.27.27 0 0 0-.11-.14.32.32 0 0 0-.19-.04l-1.33.08c-.06 0-.1.03-.11.08a.45.45 0 0 0 0 .25c0 .03 0 .06-.02.08a.14.14 0 0 1-.08.06l-.67.24a.17.17 0 0 0-.1.07.14.14 0 0 0-.01.11c.1.35.35.44.76.26l.03-.01v-.05l-.01-.03a.4.4 0 0 0-.22-.09c-.3-.04-.31-.11-.04-.23.2-.09.38-.1.54-.05.2.06.4-.02.54-.15a.13.13 0 0 1 .06-.03h.07c.03 0 .05.02.06.03l.03.06.07.55a.1.1 0 0 1-.03.09.12.12 0 0 1-.04.03h-.05c-.48-.03-.94.03-1.4.18-.56.04-.98.27-1.26.68a.26.26 0 0 1-.1.1.29.29 0 0 1-.15.02l-1.18-.1c-.17-.02-.23-.1-.18-.24l.11-.36c.04-.13.14-.17.28-.14.26.07.54.1.84.09.05 0 .1-.02.12-.07l.34-.56a.12.12 0 0 0 .02-.1.13.13 0 0 0-.06-.07c-.22-.14-.66-.33-.37-.65a.11.11 0 0 1 .1-.04l.63.1c.05 0 .08.03.09.08 0 .07.04.12.1.17l.05.01a.12.12 0 0 0 .09-.02.1.1 0 0 0 .02-.03c.05-.1.05-.2-.01-.32a.11.11 0 0 0-.03-.04 4.6 4.6 0 0 0-1.28-.06.15.15 0 0 0-.06.06c-.21.41-.14.67.23.79.08.02.1.07.08.14-.1.3-.3.43-.57.37-.19-.04-.36-.06-.55-.15a1.57 1.57 0 0 0-.74-.16h-.08a.17.17 0 0 1-.06-.05.15.15 0 0 1-.03-.06c-.01-.02-.01-.04 0-.07.03-.15.1-.3.23-.42.1-.1.22-.1.35 0 .05.1.11.15.18.16.04.01.08 0 .1-.04.07-.12.05-.2-.04-.24a1.35 1.35 0 0 0-.46-.07.5.5 0 0 0-.38.19c-.13.15-.38.55-.18.71.05.04.14.07.28.08l.38.03c.17.02.23.1.19.24l-.15.51a.16.16 0 0 1-.06.08.74.74 0 0 0-.32.72c0 .04.03.07.08.09l.43.11.05.02.03.04a.1.1 0 0 1 0 .08.17.17 0 0 1-.16.12 19.81 19.81 0 0 0-1.07.01.08.08 0 0 1-.03-.02l-.02-.02v-.04l.21-1.4v-.05a.12.12 0 0 0-.03-.04.14.14 0 0 0-.04-.04.15.15 0 0 0-.06 0h-.39c-.05 0-.1 0-.13.03a.23.23 0 0 0-.09.1l-.18.35a.14.14 0 0 1-.09.08.28.28 0 0 1-.13 0 .2.2 0 0 0-.14.02c-.43.2-.32 1.06-.25 1.38.02.07-.01.1-.1.1h-.15a.3.3 0 0 0-.12.04c-.08.03-.12.09-.12.16v.04l.03.02a.09.09 0 0 0 .07.02c.15-.03.26 0 .34.12l.25.4c.02.03.03.07.02.1 0 .04-.03.07-.06.09l-.38.26a.23.23 0 0 0-.06.07.2.2 0 0 0-.02.16c0 .03.02.06.04.08.08.09.07.14-.02.14-.06-.1-.14-.15-.23-.16h-.07a.15.15 0 0 0-.06.05.13.13 0 0 0-.03.06V25c.07.17.2.23.39.2.12-.13.23-.14.32-.03.17.2-.05.49-.28.54a.9.9 0 0 0-.2-.17c-.24-.12-.32-.06-.23.17.04.08.15.16.35.23.09.03.14 0 .16-.1l.5-.37a.22.22 0 0 0 .08-.13.2.2 0 0 0-.03-.15 1.78 1.78 0 0 0-.3-.4c-.06-.04-.06-.1-.01-.15l.19-.2a.11.11 0 0 1 .03-.02.13.13 0 0 1 .14.02l.1.1c.05.04.1.04.15.02l.6-.23c.32-.13.2-.48.1-.7-.04-.08-.1-.12-.2-.11-.05 0-.07.03-.07.08.02.1.06.2.12.3a.1.1 0 0 1 .02.06c0 .03-.01.05-.03.07a1 1 0 0 1-.52.27c-.07.01-.12-.01-.14-.08l-.08-.2a.26.26 0 0 0-.06-.1c-.2-.18-.24-.37-.14-.56a.2.2 0 0 0 .01-.13 4.74 4.74 0 0 1-.1-1.08c0-.11.06-.17.18-.17h.04c.11 0 .15.04.12.13-.06.18-.07.32-.02.45.04.1.1.1.17.02.17-.2.2-.7.25-.95.01-.08.06-.12.15-.14h.09l.03.01.02.03v.04l-.2 1.21c-.03.16.05.25.23.27.35.03.74.04 1.17.01a.46.46 0 0 0 .43-.6.15.15 0 0 0-.04-.06.17.17 0 0 0-.08-.04l-.33-.08c-.12-.04-.17-.1-.13-.22l.02-.04a.2.2 0 0 1 .1-.1c.04-.02.09-.03.14-.02l1.43.29c.06 0 .08.04.07.1a5.6 5.6 0 0 0-.16 1.98c0 .05.02.1.06.13l.1.11c.02.02.02.03 0 .05a.08.08 0 0 1-.02.03c-.02.01-.02.02 0 .02a.3.3 0 0 0 .18 0l-1.49.17a.4.4 0 0 1-.2-.03c-.05-.02-.07-.05-.07-.1.05-.33-.1-.6-.1-.93 0-.05.02-.09.05-.12.26-.22.72-.32.8.13.04.15-.1.15-.38 0a.06.06 0 0 0-.07 0l-.02.03v.03l.08.16c.04.07.1.11.18.13.22.05.33-.02.35-.22 0-.17-.01-.34-.07-.5a.3.3 0 0 0-.16-.17.35.35 0 0 0-.25-.02 3.6 3.6 0 0 0-.65.26c-.11.06-.17.17-.17.35 0 .41.1.76.28 1.04-.41.1-.8.21-1.17.34a.78.78 0 0 0-.51.5v.02l.01.02h.05c.25-.15.33-.36.68-.35 0 .07 0 .13-.04.17-.12.15-.18.3-.24.46-.13.07-.34.2-.63.4a2.1 2.1 0 0 1-1.2.39l-.53-.37c.17-.38.3-.9.36-1.54.09-.87.24-1.69.47-2.45.41-1.43 1.33-2.71 3.1-3.03l1.4-.28c.54-.1 1.28-.13 2.23-.07Z" fill="#232003"/><path d="M29.3 21.1c.1.3.24.57.3.86.11.48.19 1 .23 1.53-.17.1-.25.22-.23.37-.56.05-.9.3-1.01.75h-.6a.3.3 0 0 1-.17 0c-.02 0-.02 0 0-.02l.03-.03v-.05l-.11-.11a.2.2 0 0 1-.06-.13 5.6 5.6 0 0 1 .16-1.99c.01-.05-.01-.08-.07-.1l-1.43-.28a.23.23 0 0 0-.15.02.2.2 0 0 0-.1.1v.04c-.05.11 0 .18.12.22l.33.08.08.04.04.07c.09.27-.1.57-.43.6a8.2 8.2 0 0 1-1.17-.02c-.18-.02-.26-.1-.23-.27l.2-1.21v-.04a.07.07 0 0 0-.02-.03l-.03-.01h-.09c-.09.02-.14.06-.15.14-.04.25-.08.75-.25.95-.07.09-.13.08-.17-.02-.05-.13-.04-.27.02-.45.03-.1 0-.14-.12-.13h-.04c-.12 0-.18.06-.18.17-.01.34.02.7.1 1.08a.2.2 0 0 1-.01.13c-.1.2-.05.38.14.56.03.03.05.07.06.1l.08.2c.02.07.07.1.14.08a1 1 0 0 0 .52-.27.11.11 0 0 0 .03-.07.1.1 0 0 0-.02-.07.6.6 0 0 1-.12-.3c0-.04.02-.07.08-.07.09 0 .15.03.19.1.1.23.22.58-.1.7l-.6.24a.12.12 0 0 1-.14-.02l-.11-.1a.12.12 0 0 0-.09-.03l-.05.01a.11.11 0 0 0-.03.03l-.19.2c-.05.05-.05.1 0 .15.12.11.23.24.31.39.03.04.04.1.03.15a.22.22 0 0 1-.09.13l-.49.36a.2.2 0 0 0-.08-.12c.23-.05.45-.33.28-.54-.09-.11-.2-.1-.32.03.05-.06.06-.13 0-.22.1 0 .1-.05.02-.14a.2.2 0 0 1-.05-.16.2.2 0 0 1 .03-.08.22.22 0 0 1 .06-.07l.38-.26a.15.15 0 0 0 .06-.09c0-.03 0-.07-.02-.1l-.25-.4c-.08-.13-.19-.15-.34-.12a.09.09 0 0 1-.07-.02l-.02-.02v-.04c0-.07.03-.13.1-.16a.3.3 0 0 1 .13-.03h.16c.08-.01.1-.04.1-.11-.08-.32-.19-1.17.24-1.38a.2.2 0 0 1 .14-.02h.13a.13.13 0 0 0 .1-.08l.17-.36a.23.23 0 0 1 .09-.1.26.26 0 0 1 .13-.03h.39a.15.15 0 0 1 .1.05c.02 0 .02.02.03.04v.05l-.21 1.4a.07.07 0 0 0 .02.06l.03.02h.03a19.81 19.81 0 0 1 1.1-.02.17.17 0 0 0 .1-.11.1.1 0 0 0 0-.08.1.1 0 0 0-.03-.04.12.12 0 0 0-.05-.02l-.43-.11c-.05-.02-.08-.05-.08-.1a.74.74 0 0 1 .32-.7.16.16 0 0 0 .06-.09l.15-.5c.04-.15-.02-.23-.19-.25l-.38-.03c-.14-.01-.23-.04-.28-.08-.2-.16.05-.56.18-.71a.5.5 0 0 1 .38-.19c.14 0 .3.02.46.07a.41.41 0 0 0-.17 0c-.04 0-.07.02-.07.06V20c-.13-.1-.24-.1-.35 0a.82.82 0 0 0-.24.42v.07l.04.06.06.04c.03.01.05.02.08.01.27 0 .52.05.74.16.2.1.36.11.55.15.28.06.46-.06.57-.37.03-.07 0-.12-.08-.14-.37-.12-.44-.38-.23-.79a.15.15 0 0 1 .05-.06 4.6 4.6 0 0 1 1.28.06l.04.04c.06.12.06.22.01.32a.1.1 0 0 1-.02.03.11.11 0 0 1-.13 0 .25.25 0 0 1-.11-.16c-.01-.05-.04-.07-.1-.08l-.61-.1c-.05 0-.08 0-.11.04-.3.32.15.5.37.65.03.02.05.05.06.08 0 .03 0 .06-.02.09l-.34.56a.13.13 0 0 1-.12.07 2.8 2.8 0 0 1-.84-.09c-.14-.03-.24.01-.28.14l-.11.36c-.05.15 0 .22.18.24l1.18.1c.05 0 .1 0 .14-.03a.26.26 0 0 0 .11-.09c.28-.41.7-.64 1.25-.68Z" fill="#584003"/><path d="M32.27 20.95c.96.56 1.79 1.22 2.47 1.98.07.08.11.17.13.29 0 .03-.02.05-.06.05-.28 0-.59 0-.92.03-.23.01-.44.06-.62.14-.04.02-.07.05-.07.09 0 .03.01.05.03.07.03.02.07.04.11.04.04 0 .06 0 .08.03l-1.77.03a2.72 2.72 0 0 0-1.82-.21c-.04-.54-.12-1.05-.23-1.53-.06-.3-.2-.57-.3-.87a3.72 3.72 0 0 1 1.45-.18l.04-.03a.1.1 0 0 0 .03-.04.1.1 0 0 0 0-.05l-.07-.55a.1.1 0 0 0-.03-.06.13.13 0 0 0-.06-.03.14.14 0 0 0-.13.03c-.14.13-.33.21-.54.15a.77.77 0 0 0-.54.05c-.27.12-.26.2.04.23a.4.4 0 0 1 .22.1l.02.02a.05.05 0 0 1-.01.05l-.03.01c-.41.18-.67.1-.76-.26a.14.14 0 0 1 .01-.1.17.17 0 0 1 .1-.08l.67-.24a.14.14 0 0 0 .08-.06.12.12 0 0 0 .01-.08.45.45 0 0 1 0-.25c.03-.05.06-.07.12-.08l1.33-.08c.07 0 .13 0 .19.04.05.03.1.08.11.14.08.19.18.36.33.5.03.04.07.05.12.05.12-.02.25-.06.36-.12.12-.06.16-.14.14-.26-.02-.1-.08-.14-.16-.14a.1.1 0 0 0-.1.05l-.06.12c-.03.04-.07.06-.12.04a.28.28 0 0 1-.2-.21c-.02-.08.02-.13.1-.16.24-.07.44-.07.6.02.17.08.2.26.43.28.21.02.46.18.35.4a.11.11 0 0 0 0 .07c0 .03 0 .05.03.07.02.01.04.03.07.03h.07c.1-.04.2-.04.3-.01.1.03.14.08.12.17a.1.1 0 0 1-.01.04.12.12 0 0 1-.04.03c-.2.11-.4.13-.59.05a.15.15 0 0 1-.07-.04.13.13 0 0 1-.02-.08v-.3c0-.14-.07-.21-.22-.2-.05 0-.1 0-.15.04-.27.2-.63.3-1.07.29a.26.26 0 0 1-.12-.04.23.23 0 0 1-.09-.09l-.22-.41a.26.26 0 0 0-.11-.1.29.29 0 0 0-.17-.03 2.9 2.9 0 0 1-.78 0c-.09 0-.14.02-.16.1l-.01.03c-.03.08 0 .12.1.12.16.01.33-.01.5-.07a.27.27 0 0 1 .21.02l.08.07a.2.2 0 0 1 .04.1l.08.64.03.06.07.03 1.06.05ZM26.5 19.87c.1.04.11.12.05.24-.02.04-.06.05-.1.04-.07 0-.13-.06-.18-.16v-.05c0-.05.03-.07.07-.08l.17.01Z" fill="#664D03"/><path d="M34.33 20.9v.13c0 .04 0 .08.03.11.4.73.66 1.5.8 2.3.01.08.09.16.22.22l.11.03.02.01v.04l-.01.01a.37.37 0 0 1-.15.02.67.67 0 0 0-.4-.12c-.51 0-1.02 0-1.53.02-.02-.02-.04-.03-.08-.03a.16.16 0 0 1-.1-.04.08.08 0 0 1-.04-.07c0-.04.03-.07.07-.1.18-.07.39-.12.62-.13.33-.03.64-.04.92-.03.04 0 .06-.02.06-.05a.51.51 0 0 0-.13-.3 10.2 10.2 0 0 0-2.47-1.97 11.8 11.8 0 0 1 1.94.25l.06-.04a.12.12 0 0 0 .03-.05c.01-.02.01-.04 0-.07 0-.02 0-.06.03-.13Z" fill="#584003"/><path d="m21.05 26.58-.07-.02h-.03l-.02.01-.02.03v.02c.14.62.3 1.21.48 1.79.08.29.17.71.08.98a5.29 5.29 0 0 1-3.34 3.24l-.05-.02a.13.13 0 0 1-.05-.04.12.12 0 0 1-.02-.06l-.01-.15c.26-1.9 1.36-2.49 1.21-4.52-.18-2.71-.61-3.04-1.14-5.2-.03-.15 0-.4.19-.44.19-.03.44.1.62.18.05.02.09.05.12.09.65.96 1.56 1.36 1.82 2.87l.23 1.24Z" fill="#515502"/><path d="m26.51 24.78-.4.04a1.84 1.84 0 0 1-.28-1.04c0-.18.06-.3.17-.35.2-.1.42-.19.65-.26a.35.35 0 0 1 .25.02c.08.04.13.1.16.17.06.16.08.33.07.5-.02.2-.13.27-.35.22a.25.25 0 0 1-.18-.13l-.08-.16v-.03s0-.02.02-.03l.03-.01h.04c.29.16.42.16.39 0-.1-.44-.55-.34-.8-.12a.15.15 0 0 0-.06.12c0 .33.15.6.1.94 0 .04.02.07.06.1a.4.4 0 0 0 .21.02Z" fill="#664D03"/><path d="M29.83 23.49a2.72 2.72 0 0 1 1.82.2l-2.05.17c-.02-.15.06-.27.23-.37Z" fill="#232003"/><path d="m33.42 23.67 1.53-.02c.15 0 .28.04.4.12l.33.02.09.03c.02.02.04.05.04.08l.13.75c.03.16 0 .32-.04.48 0 .03-.03.06-.06.09a.18.18 0 0 1-.1.03H34.2c-.03 0-.04.01-.04.04l.01.09c0 .03.03.04.06.04l1.52-.04c.05 0 .06.02.05.05l-.04.11c0 .03-.03.04-.05.04a49.37 49.37 0 0 0-2.88.1.02.02 0 0 0 0 .03l.06.1c.01.02.03.03.06.03l2.62-.1.1.01a.2.2 0 0 1 .08.06c.02.02.04.05.04.08v.1c-.3.87-1.82.88-2.64.7-.27-.07-.38-.33-.48-.54a.17.17 0 0 0-.1-.09c-.32-.11-.48.02-.63.27-.19.33-.4.6-.63.85-.69.22-1.62.14-2.26-.1A1.27 1.27 0 0 1 28.5 26l.03-.84.06-.55c.12-.45.45-.7 1-.75l2.06-.16 1.77-.03Z" fill="#FFFA55"/><path d="M35.38 23.66c.22.02.35 0 .38-.06.28.3.4.71.39 1.23-.02.25-.09.49-.22.71a.45.45 0 0 0-.03.36c.16.4.22.85.2 1.33-.01.12.06.18.2.17.05 0 .08 0 .1.03.4.94 1.9.28 1.22-.3-.26-.21-.6-.21-.9-.03l-.26.16c.33-.52.75-.59 1.24-.21.3.22.38.51.22.86-.3.4-.67.51-1.07.34-.22-.09-.38-.3-.53-.47a.18.18 0 0 0-.08-.04.2.2 0 0 0-.1 0 .18.18 0 0 0-.08.04.15.15 0 0 0-.04.08l-.24 1.31c0-.05-.02-.1-.05-.14-.02-.04-.05-.04-.1-.02l-.1.06.05-.35a.1.1 0 0 0 0-.06.1.1 0 0 0-.04-.04.12.12 0 0 0-.12 0c-.22.1-.41.36-.23.58.07.07.16.08.27.02 0 .05-.02.08-.05.1a.1.1 0 0 0-.08.07.66.66 0 0 0-.03.24c0 .04 0 .07-.03.1a.53.53 0 0 0-.13.38c0 .05-.01.08-.04.11-.1.1-.14.22-.1.34.04.08.03.17-.02.24l-.12.16c-.06.1-.11.1-.14-.02a6.6 6.6 0 0 1-.12-.77 2.76 2.76 0 0 0-.2-.72.31.31 0 0 0-.1-.13 2.93 2.93 0 0 1-.56-.57 2 2 0 0 0-.81-.53.22.22 0 0 0-.15 0c-.3.09-.65.13-1.03.13-.36 0-.62.14-.76.41-.35.65-.52 1.41-.54 2.28 0 .3.05.6.18.91.13.33.27.63.43.9.07.12.03.18-.11.18-.96.01-1.95-.1-2.97-.32a1.58 1.58 0 0 1-.65-.29 7.6 7.6 0 0 1-1.26-1.25c-.09-.12-.21-.15-.36-.11l-.16.04c-.14.04-.15.1-.05.2.43.4.74.68.95.84.4.3.36.36-.11.15-.75-.31-1.5-.7-2.25-1.14-.15-.09-.23-.05-.22.11l.09.18-.07-.01c-.07-.02-.09 0-.05.05l.47.65c.15.22.4.42.73.6.6.3 1.15.6 1.66.88.17.09.31.21.42.36.29.35.56.72.82 1.08.2.28.45.5.75.7.56.35 1.2.71 1.93 1.07-.08.25 0 .45.22.61l.12.05c.08.02.1.07.1.15.17.04.35.07.52.08.15.01.22.08.2.2 0 .04-.02.08-.06.1l-.2.2c-.1.13-.08.21.07.27a.54.54 0 0 0 .04.4c.02.02 0 .04-.02.05l-.04.02h-.05a.08.08 0 0 1-.04-.03l-.18-.2-.15-.31a.11.11 0 0 1 0-.11l.15-.28a.07.07 0 0 0 0-.05.08.08 0 0 0-.04-.05l-.2-.1c-.04-.02-.06-.01-.06.03-.02.12 0 .24.05.34.01.04 0 .06-.03.09-.1.08-.11.16 0 .26.07.07.13.15.16.22l-.12.2c-.02.03-.06.04-.1.04-.13-.01-.2-.08-.21-.2l-.03-.39.05-.4c.04-.23-.07-.43-.32-.6 0-.02-.02-.06-.07-.1 0-.12-.04-.19-.12-.22-.2-.08-.37-.16-.5-.25-.43-.29-.87-.54-1.3-.83l-.72-.55a3.7 3.7 0 0 1-.62-.64l-.72-.93-1.3-.7c-.5-.22-.92-.58-1.24-1.08-.36-.56-.62-1.01-.78-1.35.04-.08-.03-.24-.2-.47l.04.02a.12.12 0 0 0 .11-.02.1.1 0 0 0 .03-.04 51.7 51.7 0 0 1-.5-3.14.1.1 0 0 0-.03-.03.1.1 0 0 0-.1 0c-.06.03-.1.1-.13.2-.07 0-.1-.02-.1-.04l.33-.84.52.37c.2.73.43 1.45.73 2.16.2.5.57.9.82 1.37.07.12.1.12.12-.02.03-.27.07-.54.13-.82.07-.32.06-.66-.04-1-.13-.4-.1-.8.07-1.2 0-.04.02-.06.03-.07h.03l.04.01a.1.1 0 0 1 .04.06l.13.4a.2.2 0 0 0 .1.1c.24.13.52.24.84.32.05 0 .1 0 .12-.04.23-.26.39-.55.48-.87v-.06a.13.13 0 0 0-.02-.06.15.15 0 0 0-.06-.04.17.17 0 0 0-.06-.01h-.21c-.02 0-.04 0-.06-.02a.12.12 0 0 1-.05-.03.1.1 0 0 1-.01-.1c.18-.48.22-.97.11-1.46 0-.05-.04-.07-.08-.07l-.47-.05 1.42-.06a.64.64 0 0 1-.37.06c-.04 0-.08.01-.1.05-.02.05-.01.1.03.15.34.4.96.63 1.45.84.03 0 .05.03.07.06.03.05.08.08.14.07.06 0 .08-.03.08-.08V26c0 .46.19.82.55 1.08a.4.4 0 0 0-.4.07l-.23.18a.88.88 0 0 0-.37.57c-.04.29.16.7.36.88a8.98 8.98 0 0 0 1.01.8.1.1 0 0 0 .07-.01l.03-.03c.11-.17.21-.32.39-.46.36-.27.65-.58.9-.93.15-.23.29-.34.4-.34.1.22.24.3.44.27.22-.05.45-.1.67-.12.05-.01.1 0 .14.02l.27.13c.05.03.1.03.14 0 .18-.09.3-.22.37-.4a.05.05 0 0 0-.02-.05l-.02-.01h-.03c-.24.08-.5.09-.78.03-.1-.03-.26-.05-.48-.08a1.35 1.35 0 0 1-.47-.16l-.13-.26c.23-.24.44-.52.63-.85.15-.25.31-.38.63-.27.05.02.08.05.1.1.1.2.21.46.48.52.82.2 2.33.18 2.64-.7a.17.17 0 0 0-.04-.17.2.2 0 0 0-.08-.06.23.23 0 0 0-.1-.02l-2.62.11c-.03 0-.05 0-.06-.03l-.06-.1a.02.02 0 0 1 0-.03h.01l.01-.01c1.02-.06 1.97-.09 2.86-.09.02 0 .04-.01.05-.04l.04-.1c.01-.04 0-.06-.05-.06l-1.52.04c-.03 0-.05-.01-.06-.04v-.1c-.01-.02 0-.03.03-.03h1.53c.04 0 .08-.01.11-.03a.15.15 0 0 0 .06-.1c.04-.15.07-.3.04-.47-.05-.25-.1-.5-.13-.75a.12.12 0 0 0-.04-.08.14.14 0 0 0-.09-.03l-.33-.02c.06 0 .1 0 .15-.02l.01-.01v-.04h-.02l-.1-.04Z" fill="#664D03"/><path d="m35.32 23.94-2.65.1c-.05 0-.08.03-.08.08v.15c0 .04.05.07.1.07l2.64-.1c.05 0 .09-.03.08-.08v-.15c0-.04-.04-.07-.09-.07Z"/><path d="M29.05 24.55h-.02v-.02l-.01-.04c0-.07.04-.14.13-.2.1-.05.21-.08.35-.1l1.94-.1c.13-.02.26 0 .36.05.1.04.15.1.15.18v.05h-.02l-2.88.18Z" fill="#2E2202"/><path d="m35.54 24.43.02.14a.04.04 0 0 1-.01.03h-.02l-.01.01-2.81.18a.05.05 0 0 1-.04-.01v-.02l-.01-.01v-.14l.03-.01 2.8-.2h.04l.01.03Z" fill="#3A2702"/><path d="m28 24.62.59-.01-.06.55-1.33.05-1.42.06-.61.08c-.35-.01-.43.2-.68.35a.04.04 0 0 1-.05 0l-.01-.02v-.02c.1-.25.26-.42.5-.5.38-.13.77-.24 1.18-.34l.4-.04 1.49-.16Z" fill="#CFCA53"/><path d="M29.1 24.93h-.14c-.02 0-.03-.03-.04-.06a.1.1 0 0 1 0-.05.1.1 0 0 1 .03-.03 22.49 22.49 0 0 0 2.84-.2.1.1 0 0 1 .08.02c.02.01.03.03.04.06v.04c.01.04 0 .06-.05.06l-2.76.16Z" fill="#664407"/><path d="m35.63 24.84-1.6.05c-.06 0-.1.04-.1.1 0 .05.05.1.1.1l1.6-.06c.06 0 .1-.05.1-.1s-.04-.1-.1-.1Z" fill="#3A2702"/><path d="M23.52 24.98c.06.09.06.16 0 .22-.2.03-.32-.03-.39-.2a.13.13 0 0 1 .03-.13.15.15 0 0 1 .06-.04l.07-.01c.1 0 .17.06.23.16Z" fill="#664D03"/><path d="M29.1 24.93c-.02.04-.03.07-.02.1.02.03.05.05.08.05.9.02 1.78-.02 2.63-.1.07-.02.1.01.1.08v.05a.06.06 0 0 1-.03.05.08.08 0 0 1-.06.02c-.08 0-.15 0-.22.04a.26.26 0 0 1-.13.02 6.62 6.62 0 0 0-1.6.04c-.06 0-.08.04-.05.11-.35.04-.65.03-.9-.03a.8.8 0 0 1 .06-.42h.14ZM32.73 25.07c.03.08.1.12.13.11.04-.01.04-.09 0-.16-.02-.07-.08-.12-.12-.1-.04 0-.04.08-.01.15Z" fill="#9A861B"/><path d="m28.53 25.16-.03.84v.36c0 .05-.02.08-.08.08a.14.14 0 0 1-.14-.07.15.15 0 0 0-.07-.06c-.5-.2-1.11-.45-1.45-.84-.04-.05-.05-.1-.03-.15.02-.04.06-.06.1-.05.14.02.26 0 .37-.06l1.33-.05Z" fill="#584003"/><path d="M33.05 25.4a.08.08 0 0 1 0-.08.1.1 0 0 1 .02-.03.1.1 0 0 1 .04-.02.42.42 0 0 1 .25.01.1.1 0 0 1 .04.03l.02.03v.04l-.02.04c-.13.14-.24.13-.35-.02Z" fill="#3A2702"/><path d="m25.78 25.27.47.05c.04 0 .07.02.08.07.11.5.07.98-.11 1.45a.1.1 0 0 0 .01.1c.01.02.03.04.05.04l.06.02h.2l.07.01.06.04.03.06v.06c-.1.32-.26.61-.49.87-.03.04-.07.05-.12.04-.32-.08-.6-.19-.84-.32a.2.2 0 0 1-.1-.1l-.13-.4a.1.1 0 0 0-.04-.06.09.09 0 0 0-.04 0h-.03l-.03.06v-1.28c.07-.16.13-.31.25-.46.03-.04.05-.1.04-.17l.61-.08Z" fill="#584003"/><path d="M28.9 25.36c.25.06.55.07.9.03l-.01.12a.1.1 0 0 1-.04.05.13.13 0 0 1-.07.02l-.78.04c-.05 0-.08-.01-.1-.05-.03-.08 0-.15.1-.21ZM31.5 25.53a.1.1 0 0 1-.04-.02.1.1 0 0 1-.02-.03.09.09 0 0 1 0-.08.13.13 0 0 1 .06-.06.1.1 0 0 1 .09 0c.06.02.12.06.17.11.05.05.04.08-.03.1a.43.43 0 0 1-.23-.02Z" fill="#664D03"/><path d="M30.91 25.4h.05l.02.02v.03l.03.16-.01.18c-.02.05-.04.07-.08.08l-.11.01c-.03 0-.06-.02-.1-.06a.42.42 0 0 1-.05-.17l-.02-.16v-.03l.01-.02.02-.01.03-.01.21-.02Z" fill="#9A861B"/><path d="M23.56 25.7a.2.2 0 0 1 .08.13c-.02.1-.07.14-.16.1-.2-.06-.31-.14-.35-.22-.09-.23-.01-.29.22-.17a.9.9 0 0 1 .2.17ZM31.64 25.93c.09-.03.14-.1.12-.17-.03-.06-.12-.1-.21-.06-.09.03-.14.1-.12.16.03.07.12.1.2.07ZM29.85 25.77l-1 .05c-.03 0-.06.03-.06.06v.1c0 .02.04.05.07.05l1-.05c.04 0 .07-.03.07-.06l-.01-.1c0-.02-.03-.05-.07-.05Z" fill="#664D03"/><path d="M33.42 26.23a.47.47 0 0 0-.18.04.13.13 0 0 1-.12 0c-.07-.05-.1-.11-.1-.21 0-.06.03-.07.09-.05a1051.93 1051.93 0 0 0 2.33-.04c.08 0 .1.03.06.1l-.01.03a.15.15 0 0 1-.07.06 51.33 51.33 0 0 0-2 .06Z" fill="#3A2702"/><path d="M24.89 25.99v1.27c-.18.4-.2.8-.08 1.2.1.34.11.68.04 1-.06.28-.1.55-.13.82-.01.14-.05.14-.12.02-.25-.48-.61-.87-.82-1.37a16.6 16.6 0 0 1-.73-2.16c.45 0 .86-.13 1.2-.38.3-.2.5-.34.64-.4ZM31.52 26.1l-2.58.08c-.05 0-.08.04-.08.08v.09c0 .04.04.07.09.07l2.57-.07c.05 0 .09-.04.09-.08v-.09c0-.04-.05-.07-.1-.07Z" fill="#513604"/><path d="M34.1 26.64c.42 0 .77-.07.77-.13 0-.07-.35-.12-.78-.12-.44 0-.79.06-.78.13 0 .07.35.12.78.12Z" fill="#946A04"/><path d="M21.05 26.58c.11.32.3.86.72.92a.2.2 0 0 0 .13-.02c.1-.06.2-.14.3-.24 0 .02.03.03.1.05a.59.59 0 0 0-.03.25l.39 2.4c.01.09.08.2.22.35.17.23.24.39.2.47a4.07 4.07 0 0 0-1.21-.78.15.15 0 0 0-.13 0 .78.78 0 0 0-.39.35c-.26.54-.62.97-1.08 1.3l-.64.44c-.03 0-.04-.03-.03-.1.09-.1.01-.2-.22-.28-.12-.1-.04-.14.23-.11.06 0 .1-.01.16-.04a3.54 3.54 0 0 0 1.7-2.15c.09-.27 0-.7-.08-.98a29.05 29.05 0 0 1-.48-1.81l.02-.03h.05l.07.01Z" fill="#3A2702"/><path d="M31.06 26.9c-.58.12-1.2.09-1.87-.1-.08-.03-.13-.07-.15-.15v-.01a.04.04 0 0 1 .03-.03h.01c.73.05 1.47.05 2.21-.02.1 0 .12.03.08.1a.44.44 0 0 1-.23.19.35.35 0 0 1-.08.02Z" fill="#513604"/><path d="M36.3 27.4c.05-.07.1-.11.16-.14l.27-.16c.28-.18.63-.18.89.03.68.58-.82 1.24-1.23.3 0-.03-.04-.04-.08-.03Z" fill="#FCD531"/><path d="M29.05 27.08c.64.24 1.57.32 2.26.1l.14.26-.13.03c-.04.01-.07.04-.07.08l-.04.26c-.11 0-.25.11-.4.34-.25.35-.54.66-.9.93-.18.14-.28.3-.4.46 0 .01 0 .02-.02.03a.1.1 0 0 1-.1 0c-.38-.27-.71-.54-.98-.79-.2-.19-.4-.6-.36-.88a.88.88 0 0 1 .37-.57l.23-.18a.4.4 0 0 1 .4-.07Z" fill="#513604"/><path d="M22.88 30.3c-.14-.15-.21-.27-.22-.36-.12-.8-.25-1.6-.4-2.4a.59.59 0 0 1 .04-.25c.03-.11.07-.18.14-.21a.1.1 0 0 1 .09 0 .1.1 0 0 1 .03.02l.02.04a51.68 51.68 0 0 0 .48 3.1.1.1 0 0 1-.03.05.12.12 0 0 1-.11.02l-.04-.02Z" fill="#CC9207"/><path d="M31.45 27.44c.14.08.3.14.46.16.22.03.38.05.48.08.29.06.54.05.78-.03a.06.06 0 0 1 .05.01l.02.03v.03a.73.73 0 0 1-.37.4.14.14 0 0 1-.14 0l-.27-.14a.22.22 0 0 0-.14-.02 9.3 9.3 0 0 0-.67.12c-.2.04-.34-.05-.44-.27l.04-.26c0-.04.03-.07.07-.08l.13-.03ZM35.46 29.22l.06-.15.12-.06c.04-.02.07-.02.1.02.02.05.04.1.04.14l-.25.8c-.01.05 0 .08.02.12.28.42.58.57.41 1.16-.18.63-.29 1.24-.5 1.73-.2.43-.47.87-.83 1.34-.14.18-.56.55-1.26 1.13l-1.8 1.53c-.09.02-.15-.02-.2-.1a.17.17 0 0 0-.05-.05.19.19 0 0 0-.14-.03.19.19 0 0 0-.07.02l-.27.17c-.04.03-.09.02-.12-.02a.22.22 0 0 1-.04-.1l.74-.52c.75-.57 1.97-1.34 2.84-2.19.4-.39.67-.77.81-1.13.26-.63.4-1.23.4-1.81.01-.4-.07-.42-.23-.05-.91 2.04-3.14 2.43-5.3 2.24l-.85-.1c-1.9-.22-3.6-.84-5.14-1.87l-.08-.18c0-.16.07-.2.22-.1.75.43 1.5.82 2.25 1.13.47.2.51.16.1-.15-.2-.16-.51-.44-.94-.84-.1-.1-.09-.16.05-.2l.16-.04c.15-.04.27 0 .36.11.36.46.79.87 1.26 1.25.17.13.38.23.65.29 1.02.22 2 .33 2.96.32.15 0 .19-.06.12-.18-.16-.27-.3-.57-.43-.9-.13-.3-.19-.6-.18-.91.01-.87.2-1.63.54-2.28.14-.27.4-.4.76-.4.38 0 .72-.05 1.03-.15.05-.01.1 0 .15.01a2 2 0 0 1 .8.53c.16.2.35.4.57.57.05.03.08.08.1.13.11.27.18.5.2.72.03.28.07.54.12.77.03.11.07.12.14.02l.12-.16a.25.25 0 0 0 .03-.24c-.05-.12-.02-.23.09-.34a.14.14 0 0 0 .04-.1c0-.14.03-.27.13-.38a.16.16 0 0 0 .03-.11c0-.08 0-.17.03-.24a.1.1 0 0 1 .08-.08c.03 0 .05-.04.05-.09Z" fill="#2E2202"/><path d="M33.94 29.37c-.06.08-.18.1-.36.07-.06-.01-.1.01-.12.06a.53.53 0 0 1-.15.16.48.48 0 0 1-.33-.1.1.1 0 0 0-.12 0l-.23.17a.22.22 0 0 1-.2.02.2.2 0 0 1-.08-.06.17.17 0 0 1-.04-.09c-.01-.1-.07-.14-.19-.13a.37.37 0 0 1-.38-.23c.02-.01.03-.05.03-.11.1-.08.24-.09.4-.02.04.02.08.02.12 0 .22-.1.4-.05.54.13.03.04.06.04.1 0a.1.1 0 0 0 .01-.03c.01-.03.03-.06.06-.08.15-.1.29-.1.42.01.03.03.07.04.11.05.06 0 .12 0 .18-.02.06 0 .11.01.16.05.03.03.06.08.07.15Z" fill="#FCD531"/><path d="M31.77 29.13c0 .06 0 .1-.03.11-.15.18-.3.22-.43.11-.02-.15.05-.23.2-.22h.26Z" fill="#F8E36D"/><path d="M31.74 29.24c.07.15.2.24.38.23.12-.01.18.03.19.13 0 .03.02.06.04.1a.2.2 0 0 0 .08.05.22.22 0 0 0 .2-.02l.23-.16a.1.1 0 0 1 .12 0c.11.07.23.1.33.09h.11c.06-.01.08 0 .08.06 0 .03-.02.05-.04.07-.2.1-.4.16-.62.16-.5 0-.86-.31-1.3-.35-.12-.01-.17.03-.15.12l-.13-.22.05-.15c.13.11.28.07.43-.1Z" fill="#664D03"/><path d="M33.94 29.37c.12.06.17.22.14.48a.94.94 0 0 1-.52.43c-.84.3-1.8.4-2.17-.56-.02-.1.03-.13.16-.12.43.04.8.34 1.29.35.22 0 .43-.05.61-.16a.08.08 0 0 0 .05-.07c0-.05-.02-.07-.08-.07h-.1a.53.53 0 0 0 .13-.15c.03-.05.07-.07.13-.06.18.03.3.01.36-.07Z" fill="#946A04"/><path d="m31.26 29.5.13.22c.37.96 1.33.87 2.17.56.23-.08.4-.23.52-.43.2.62.23 1.24.06 1.84-.02.08-.08.13-.17.16-.76.23-2.34.65-2.64-.4-.18-.65-.2-1.3-.07-1.95Z" fill="#513604"/><path d="M31.57 36.98a.62.62 0 0 0-.14.23.85.85 0 0 0-.38-.03.14.14 0 0 0-.05.02.12.12 0 0 0-.05.05.1.1 0 0 0 .01.11c.04.06.13.08.25.05-.11.08-.17.15-.16.22.02-.08-.01-.13-.09-.15a.33.33 0 0 1-.12-.05c-.23-.16-.3-.36-.22-.6l.05.04.05.1c.03.04.08.05.12.02l.27-.17a.19.19 0 0 1 .15-.02l.06.03.05.05c.05.08.11.12.2.1Z" fill="#CFCA53"/><path d="M31.43 37.2c.03.03.04.06.04.09 0 .02-.02.04-.05.06a.49.49 0 0 1-.21.06c-.12.02-.2 0-.25-.05a.11.11 0 0 1 0-.11c0-.02.02-.04.04-.05a.14.14 0 0 1 .06-.02.85.85 0 0 1 .37.03Z" fill="#664D03"/><defs><linearGradient id="a" x1="28" y1="13" x2="28" y2="45" gradientUnits="userSpaceOnUse"><stop offset=".46" stop-color="#A97204"/><stop offset="1" stop-color="#623E04"/></linearGradient><linearGradient id="b" x1="13" y1="30" x2="42" y2="30" gradientUnits="userSpaceOnUse"><stop stop-color="#C09801"/><stop offset=".4" stop-color="#FEF541"/><stop offset=".55" stop-color="#FCFEF1"/><stop offset=".67" stop-color="#FBF438"/><stop offset="1" stop-color="#D69901"/></linearGradient><linearGradient id="c" x1="13" y1="30" x2="42" y2="30" gradientUnits="userSpaceOnUse"><stop stop-color="#E5A103"/><stop offset=".19" stop-color="#FBF443"/><stop offset=".55" stop-color="#F8FFAE"/><stop offset=".82" stop-color="#F8E31F"/><stop offset="1" stop-color="#D69901"/></linearGradient></defs></svg>