<svg width="112" height="112" viewBox="0 0 56 56" xmlns="http://www.w3.org/2000/svg"><rect fill="#F0F3FA" width="56" height="56" rx="28"/><path fill="#00BDFF" d="M13 13h30v30H13z"/><path d="M42.98 39.12c0 .02.01.02.02.03v.35a9.51 9.51 0 0 0-1.95-.58c-.02 0-.04 0-.06.02-.32.4-.7.7-1.12.91-.1.05-.28.1-.56.17-.3.07-.57.06-.79-.03-.03 0-.04 0-.05.03-.06.22-.22.42-.47.6-.04.03-.04.04.02.03.16-.05.42-.1.78-.16.31-.05.84-.09 1.58-.12.5-.02 1.03.03 1.6.15.34.08.68.22 1.02.34v.35c-.28-.1-.6-.24-.84-.31a6.24 6.24 0 0 0-1.9-.21c-.74.03-1.45.1-2.12.2-.08.01-.16.06-.25.08a.05.05 0 0 0-.03.06c0 .1 0 .16.02.2.03.64-.1 1.31-.55 1.77h-.45c.3-.26.49-.52.57-.8a3 3 0 0 0 .1-1.32.16.16 0 0 0-.14-.13 1.1 1.1 0 0 1-.37-.1.05.05 0 0 0-.07.01c-.6.54-.77 1.58-.6 2.34h-.33a3.46 3.46 0 0 1-.01-1.14c0-.03 0-.04-.04-.03a1 1 0 0 1-.7-.06c-.03-.01-.05 0-.04.03l.06.4c.03.26.01.53-.04.8h-.33c.09-.38.07-.79-.04-1.24-.07-.3-.19-.5-.35-.63l-.03-.01h-.04c-.2.06-.39.06-.55.02-.07-.01-.11.01-.12.09a3.1 3.1 0 0 0 .37 1.77h-.38a3.31 3.31 0 0 1-.3-1.62c0-.03 0-.04-.03-.04-.57-.03-1.1.06-1.61.26-.35.14-.71.17-1.08.08-.02 0-.04 0-.05.03-.2.4-.33.84-.37 1.29h-.34c.06-.4.16-.79.3-1.17 0-.02 0-.04-.02-.06l-.24-.25a1.57 1.57 0 0 0-.71-.37 5.93 5.93 0 0 0-1-.18.04.04 0 0 0-.01.03c.13.66.22 1.33.27 2h-.33c-.07-.88-.2-1.7-.37-2.46a1.97 1.97 0 0 0-1.01-1.35l-.26-.12c-.03-.02-.05-.01-.06.01-.05.1-.1.2-.16.28-.24.27-.53.54-.88.8-.6.47-1.16.85-1.65 1.15-.2.12-.45.24-.72.34a2.2 2.2 0 0 1-.49.08c-.03 0-.03.01 0 .03.04.04.06.07.06.11v.71c0 .15.04.29.11.4-.01 0-.03 0-.03.02h-.33a.13.13 0 0 0-.04-.03l.02-.02a.07.07 0 0 0 0-.05c-.05-.34-.04-.67.02-.98.02-.09 0-.1-.08-.06-.35.25-.73.36-1.16.34-.06 0-.12.04-.2.13-.02.02-.01.03 0 .05.16.12.24.28.24.48 0 .02 0 .05.02.07l.03.04-.03.03H21l-.01-.02c.03-.12 0-.24-.1-.36a.6.6 0 0 0-.18-.18.09.09 0 0 0-.07-.01.9.9 0 0 1-.93-.36h-.04a.99.99 0 0 0-.25.4c-.05.2-.02.35.12.47v.04l-.02.02h-.34c-.02-.02-.03-.02-.01-.02-.15-.48-.03-.88.37-1.18a.07.07 0 0 0 .02-.06c-.02-.26.02-.49.14-.67.2-.34.48-.57.86-.7.1-.04.17-.01.27.02h.04l.02-.03a1 1 0 0 1 .58-.45c.09-.03.14-.06.17-.1.05-.07.04-.14-.03-.22-.3-.33-.66-.57-1.1-.7-.32-.1-.7-.07-1.02-.09a6.1 6.1 0 0 1-2.93-.89 4.5 4.5 0 0 1-.98-.72 5.73 5.73 0 0 1-1.73-2.75c-.15-.49-.27-.98-.35-1.48a4.54 4.54 0 0 1 .47-3.1c.16-.25.5-.49.79-.23.1.1.19.2.24.32l.83 1.57c.31.6.73 1.12 1.25 1.56.23.2.48.34.76.44a.11.11 0 0 0 .14-.05c.19-.37.36-.74.52-1.12.12-.28.21-.59.28-.9.23-1.2-.6-1.86-1.66-2.08a8.3 8.3 0 0 0-1.73-.17c-.27 0-1.04.04-2.29.1-.04 0-.06.02-.07.05 0-.03 0-.04-.02-.05v-.54l.04-.1h.05l.03-.04c.41-.67 1-.98 1.74-1.2a6.73 6.73 0 0 1 6.23 1.35c.67.56 1.27 1.23 1.82 2a6.2 6.2 0 0 1 1.22 4.28l-.1.9c-.02.13-.03.3-.01.53.01.31.4.62.65.78.02.02.04.02.06 0 .21-.13.4-.18.6-.15.86.15 1.3.7 1.3 1.63 0 .05.02.08.07.09.85.18 1.4.95 1.55 1.78l.03.06a.1.1 0 0 0 .06.02c.45 0 .89.07 1.33.22a1.84 1.84 0 0 1 .8.55h.03c.23-.45.52-.85.88-1.22a1.7 1.7 0 0 1 .3-.24v-.04h-.02a2.15 2.15 0 0 1-.95-1.13 3.63 3.63 0 0 1-.23-.97 2.44 2.44 0 0 1-.06-.34c-.05-.64-.12-1.2-.62-1.62-.36-.29-.63-.51-.8-.67-1.44-1.21-2.42-3.04-1.72-4.87.16-.4.53-1.13.95-1.23a.05.05 0 0 1 .05.01l.01.02v.03l-.15.72a3.75 3.75 0 0 0 1.66 3.81c.73.5 1.23.71 1.53 1.28.3.57.36 1.13.47 1.94.13.96.5 1.7 1.1 2.25.02.01.04.02.06 0 .2-.14.43-.27.68-.4.2-.1.38-.17.55-.2.02 0 .03-.02.02-.04a1.8 1.8 0 0 0-.46-.65c-.52-.48-1.22-.9-1.5-1.62-.26-.68-.25-1.68.62-1.86h.02v-.02a.05.05 0 0 0 .01-.03c-.09-.37-.23-.7-.43-1l-.68-1.02a4.9 4.9 0 0 1-.46-.95c-.37-.98-.05-2.11.55-2.98.17-.24.48-.63.95-1.16.32-.37.54-.8.66-1.28a.57.57 0 0 0 .01-.4.93.93 0 0 0-.18-.5 4.65 4.65 0 0 0-.7-.63h-.08l-1.92.39c-.3.06-.6.07-.94.05-.19-.02-.35-.1-.56-.18a.12.12 0 0 0-.07 0c-.3.05-.51.08-.62.07a1.61 1.61 0 0 1-1.48-1.03h-.02a.05.05 0 0 0-.04 0c-.8.59-1.86.55-2.6-.11-.14-.13-.2-.34-.37-.44-.62-.39-.99-.91-1.12-1.57a3.8 3.8 0 0 1 .65-3.05c.16-.22.37-.46.63-.73a4.46 4.46 0 0 1 2.2-1.25c.02 0 .04-.02.04-.05.06-.26.2-.43.45-.51.77-.27 1.53-.2 2.29.18.06.03.16.05.3.06.08 0 .17-.03.27-.1.11-.06.2-.1.29-.12.86-.2 1.68-.1 2.23.57l.21.29.22.28.46.58c.14.19.3.38.49.58.92.97 1.47 1.54 1.66 1.7.53.47.95.85 1.25 1.16.55.56.99 1.16 1.31 1.81.21.42.32.91.33 1.46a4.93 4.93 0 0 1-1.41 3.61c-.37.38-.64.74-.83 1.09-.33.62-.2 1.38.11 2 .12.21.34.54.67.98.18.24.32.56.43.96a33.73 33.73 0 0 0 .36 1.28l.06.04c.36.06.66.24.91.52.56.64-.06 1.68-.43 2.28a2.24 2.24 0 0 0-.35 1.26.06.06 0 0 0 .04.03h.02l1.22-.14c.19-.02.43 0 .63-.02.03 0 .05-.01.07-.03.33-.26.6-.57.8-.92.24-.4.34-.84.3-1.32-.04-.38-.13-.8-.26-1.18l-.34-1a4.89 4.89 0 0 1-.24-1.64c.01-.48.14-.94.37-1.38.13-.22.34-.52.65-.89.38-.45.4-1.18.54-1.75a7.32 7.32 0 0 1 .19-.64h.01a.03.03 0 0 1 .02.02c.04.34.04.68.01 1.04-.02.22-.09.56-.21 1-.08.28-.18.68-.3 1.21-.19.81-.15 1.6.11 2.39l.48 1.26a3.93 3.93 0 0 1 .24 1.88l-.04.4c-.02.2-.07.41-.14.62-.1.3-.17.5-.22.6a2.7 2.7 0 0 1-.35.59v.01a.03.03 0 0 0 .03.03c.37.06.8.17 1.31.3.12.04.23.08.34.14a.1.1 0 0 0 .06 0h.04Z" fill="#010101"/><path d="M27.61 16.65c-.14-.09-.33-.14-.58-.14-.13 0-.22 0-.3.02-.09.01-.1-.01-.03-.07.12-.1.25-.16.4-.2.44-.1.9-.09 1.37.04.02 0 .02.01 0 .02l-.73.38c-.03.02-.05.02-.06 0a1.3 1.3 0 0 0-.07-.05ZM32.7 19.69c.17-.04.26-.16.28-.38.03-.41.01-.78-.06-1.11l1.14 1.18c.4.42.74.76 1.02 1.02l1.08 1c.25.24.53.58.85 1.02a3.38 3.38 0 0 1 .73 2.16 4.58 4.58 0 0 1-1 2.9c-.61.78-1.46 1.46-1.43 2.56.03.89.44 1.53.98 2.25.37.48.43.92.63 1.71.1.39.19.6.38.92.13.23.12.45-.01.69-.28.5-.72.77-1.31.82-.11-.08-.22-.14-.33-.2a1.53 1.53 0 0 1-.32-.21.77.77 0 0 1-.18-.3c-.03-.09-.03-.2-.03-.36.03-.5-.02-.93-.14-1.28-.11-.35-.3-.65-.54-.89-.43-.4-.8-.83-1.13-1.25-.1-.14-.17-.29-.2-.45-.08-.38-.05-.75.07-1.12.16-.44.35-.85.58-1.24.24-.4.65-.89.9-1.24.24-.34.42-.72.56-1.16l.16-.55a2.08 2.08 0 0 0 .02-1.21c-.13-.53-.8-.97-1.27-1.15a2.92 2.92 0 0 0-1.3-.02 59.5 59.5 0 0 1-2.67.62.05.05 0 0 1-.03-.03v-.02l.02-.02a7.16 7.16 0 0 0 1.54-1.25c.13-.17.16-.33.1-.5-.05-.05-.11-.07-.2-.05a.59.59 0 0 0-.51.15 5.7 5.7 0 0 1-2.17 1.36c-.13.03-.28.06-.43.06-.24.01-.39 0-.44-.01a1.94 1.94 0 0 0-.57-.14l-.22-.23c-.02-.02-.02-.03 0-.02a3.97 3.97 0 0 0 4.1-2.24c.12-.24.19-.54.2-.88a6.65 6.65 0 0 0-.5-3A2.33 2.33 0 0 0 30 16.41c-.05-.03-.05-.05.01-.05.3-.05.57-.1.85-.06 1.17.12 1.6 1.25 1.61 2.3v1.04c0 .04 0 .07.03.09.07.09.14.07.2-.05Z" fill="#fff"/><path d="M31.17 19.3c.09.64.09 1.2 0 1.7a2.9 2.9 0 0 1-.9 1.43c-.74.64-1.6.96-2.59.98a1.5 1.5 0 0 1-1.28-.6 2.6 2.6 0 0 1-.52-1.88c.07-.82.29-1.6.66-2.36a4.03 4.03 0 0 1 1.94-1.9c.2-.1.42-.16.66-.18.13 0 .26.03.4.1l.45.23c.22.11.42.32.59.64.3.55.5 1.17.59 1.84Z" fill="#A9E7FA"/><path d="M25.56 22.34c.05-.03.07-.06.1-.1.03-.02.05-.01.06.02a2.5 2.5 0 0 0 .41.76v.01h-.01c-.67.17-1.25.18-1.72.01a1.97 1.97 0 0 1-1.3-1.56 3.62 3.62 0 0 1 .5-2.55 4.62 4.62 0 0 1 2.58-1.98 3.1 3.1 0 0 1 1.3-.08v.02l-.75.75a.04.04 0 0 1-.05 0 1.89 1.89 0 0 0-2.11.46 3.77 3.77 0 0 0-1 2.96c.03.44.16.83.39 1.15.1.15.27.27.48.35.36.13.81-.02 1.12-.22Z" fill="#A9E7FA"/><path d="M28.41 17.12c.14-.04.28-.15.44-.15.3 0 .6.1.86.3a3.3 3.3 0 0 1 1.25 3.26 3.24 3.24 0 0 1-.9 1.74c-.42.42-.89.66-1.46.73-.44.05-.83-.02-1.18-.22s-.62-.46-.81-.8a3.27 3.27 0 0 1-.45-2.03 3.9 3.9 0 0 1 1.2-2.18c.32-.32.67-.54 1.05-.65Z" fill="#010101"/><path d="M32.92 18.2c.07.33.1.7.06 1.11-.02.22-.1.34-.27.38a7.84 7.84 0 0 0 .07-1.67l.14.18Z" fill="#818080"/><path d="M28.74 18.86a.3.3 0 1 0 0-.58.3.3 0 0 0 0 .58ZM25.46 18.55c-.1.15-.06.34.07.42.14.09.32.04.42-.1.1-.15.06-.34-.08-.43-.13-.08-.32-.04-.41.11ZM24.2 19.54c-.17.22-.14.52.06.67.2.14.49.08.65-.14.16-.22.13-.52-.06-.66-.2-.15-.5-.09-.65.13ZM27.95 19.76c.32.49-.43.9-.76.55-.21-.23-.1-.62.12-.78.16-.11.56.1.64.23ZM25.03 20.7c.03.15.16.26.3.23.13-.02.22-.16.2-.3-.03-.15-.16-.25-.3-.23-.13.02-.22.16-.2.3ZM28.68 20.98c.13.09.29.07.37-.04.08-.1.04-.27-.09-.35-.12-.1-.28-.07-.36.04-.08.1-.04.26.08.35Z" fill="#fff"/><path d="m31.6 22.55-.68.63c-.5.46-1 .81-1.52 1.07-.19.1-.43.15-.73.19-.5.06-.9-.1-1.2-.47.2.02.4.06.57.14.05.02.2.02.44.01.15 0 .3-.03.43-.06a5.7 5.7 0 0 0 2.17-1.36.59.59 0 0 1 .51-.15ZM35.98 36.43c-.4 0-.73-.14-1.01-.4a.75.75 0 0 1-.25-.7c0-.03.02-.04.04-.05.14-.04.19-.16.17-.36a3.36 3.36 0 0 0-1.12-2.11l-.5-.5a2.02 2.02 0 0 1-.6-1.35 2.7 2.7 0 0 1 .76-1.97c.34-.39.66-.78.96-1.16.28-.37.5-.76.67-1.19.2-.54.22-1.07.04-1.6a1.52 1.52 0 0 0-.31-.55c-.38-.4-.85-.47-1.41-.46-.28.01-.64.06-1.06.14-.45.08-.98.2-1.6.33-.4.1-.79.12-1.17.09-.1-.01-.1-.04-.02-.08.8-.42 1.5-.97 2.1-1.65.06-.06.1-.15.12-.25.06.16.03.32-.1.5a7.15 7.15 0 0 1-1.55 1.27c0 .02 0 .04.02.04h.03a59.5 59.5 0 0 0 2.65-.62 2.92 2.92 0 0 1 1.29.02c.48.18 1.14.62 1.27 1.15a2.08 2.08 0 0 1-.02 1.21l-.17.55c-.13.44-.31.82-.55 1.16-.25.35-.66.85-.9 1.24-.23.39-.42.8-.58 1.24-.12.37-.15.74-.07 1.12.03.16.1.3.2.45.33.42.7.84 1.13 1.25.24.24.42.54.54.9.12.34.17.76.14 1.27 0 .16 0 .27.03.35.03.11.1.22.18.3.05.06.16.13.32.22.11.06.22.12.33.2ZM26.73 23.55c-.31.17-.6.26-.89.29-.44.04-.84-.06-1.2-.32-.07-.06-.06-.08.03-.06a3.25 3.25 0 0 0 1.72-.16h.02l.32.23v.01a.01.01 0 0 1 0 .01Z" fill="#818080"/><path d="M34.55 35c-.1.11-.14.23-.15.39l-.04.65c0 .02 0 .04-.03.04-.6.04-1.28-.29-1.19-1l.07-.48c.02-.25-.02-.5-.12-.76-.23-.55-.68-1.1-.95-1.55-.41-.7-.69-1.26-.63-2.02.08-1.15.88-1.99 1.59-2.82.15-.17.3-.4.44-.66.37-.7.47-1.46-.09-2.04-.07-.08-.2-.2-.39-.34-.03-.02-.02-.04.01-.04.7-.08 1.4-.06 1.72.65.36.83 0 1.76-.5 2.46-.26.34-.65.82-1.17 1.42a3.05 3.05 0 0 0-.74 1.63c-.06.67.1 1.26.48 1.77.24.33.7.7.94.95.44.45.7 1 .78 1.65 0 .04 0 .07-.03.1Z" fill="#818080"/><path d="M33.5 25.98a.99.99 0 0 1 0-.4c.05.13.04.26 0 .4Z" fill="#383838"/><path d="M22.3 39.5a3.27 3.27 0 0 0-1.02-.79l-.02-.03a.08.08 0 0 1 .02-.06l.06-.06c.02-.03.04-.06.03-.09a.07.07 0 0 0-.04-.05.42.42 0 0 0-.2-.04c-.31 0-.64.03-.96.08a2.83 2.83 0 0 1-1.26-.1 4.1 4.1 0 0 0-.85-.34 3.16 3.16 0 0 1-1.06-.47 7.11 7.11 0 0 1-2.82-4.05 9.6 9.6 0 0 1-.12-1.92 3.82 3.82 0 0 1 .49-1.67c.06.07.11.13.14.2l.78 1.5c.29.54.67 1.04 1.15 1.5.27.26.56.46.87.59a3.53 3.53 0 0 0-.17 2.81c.1.25.24.43.42.52l.2.22a.06.06 0 0 0 .07.02.06.06 0 0 0 .04-.05l-.02-.04c-.01-.55-.07-1.1 0-1.63.07-.5.16-1.05.33-1.55.04-.13.15-.37.31-.72.15-.32.28-.65.39-.98.09-.29.12-.57.1-.85.1-.8-.15-1.43-.73-1.88-.31-.24-.7-.41-1.13-.5a9.08 9.08 0 0 0-2.65-.17 82.74 82.74 0 0 1-1.56.1.03.03 0 0 1 0-.03c.09-.16.2-.3.35-.42.07-.06.22-.17.44-.31.4-.28.85-.46 1.33-.57 2.18-.48 4.1 0 5.77 1.44.7.6 1.32 1.31 1.84 2.1.61.94.99 2 1.01 3.1.02.6-.14 1.4-.15 1.96 0 .64.39.91.85 1.23.02.02.03.04.02.06a3.29 3.29 0 0 1-2.25 1.94Z" fill="#fff"/><path d="m14.55 29.91-.2.41c-.17.42-.27.84-.3 1.26a9.6 9.6 0 0 0 .13 1.92A7.11 7.11 0 0 0 17 37.54a3.16 3.16 0 0 0 1.06.48c.3.08.58.2.85.34a5.8 5.8 0 0 1-4.43-3.16 8.92 8.92 0 0 1-.69-2.6c-.04-.4-.04-.8 0-1.2.05-.4.16-.78.34-1.16a.79.79 0 0 1 .25-.33c.08-.06.13-.05.17 0Z" fill="#818080"/><path d="M32.84 40.1c-.28-.22-.56-.43-.84-.62a2.28 2.28 0 0 1-.4-.32 1.7 1.7 0 0 1-.3-.44 5.1 5.1 0 0 1-.3-1.08l-.17-.83c-.13-.56-.28-1-.68-1.32-.28-.22-.77-.52-1.1-.88a12 12 0 0 1-.85-1.03 4.05 4.05 0 0 1-.77-1.93c0-.42.06-.84.19-1.25.05-.17.12-.31.2-.44.07-.1.08-.08.05.02-.11.4-.13.8-.05 1.23.2 1.15.78 2.06 1.71 2.72l.7.46c.35.23.57.4.66.53.21.26.35.58.42.95l.18 1.17c.15 1.06.6 1.95 1.44 2.55.1.07.24.12.4.15.04 0 .04.02.02.05a.63.63 0 0 0-.16.41c0 .03-.01.04-.04.03l-.3-.13Z" fill="#fff"/><path d="M40.73 31.14a3.31 3.31 0 0 0-.33 1.57c.04.51.13.99.27 1.43.25.76.41 1.48.5 2.13.05.47-.05.89-.31 1.25-.24.32-.55.7-.92 1.12-.14.16-.3.3-.5.4-.18.1-.37.18-.59.27-.09.04-.23.03-.4-.02a3.9 3.9 0 0 0 2.28-1.83c.14-.26.23-.57.27-.94.02-.26 0-.58-.08-.95-.07-.39-.22-.87-.43-1.45a5.56 5.56 0 0 1-.31-1.43c-.07-.77.14-1.46.64-2.06.02-.02.03-.02.02.01 0 .2-.04.37-.1.5Z" fill="#818080"/><path d="M40.73 31.14a4.7 4.7 0 0 0 .24 2.36l.34.9a4.56 4.56 0 0 1 .2 2.9 3.69 3.69 0 0 1-1.66 2.19c-.35.19-.78.27-1.28.25-.03 0-.04-.01-.05-.04l-.07-.4c.17.04.31.05.4 0 .22-.08.41-.17.6-.27.18-.1.35-.23.49-.39.37-.42.68-.8.92-1.12.26-.36.36-.78.3-1.25a11.4 11.4 0 0 0-.49-2.13 5.92 5.92 0 0 1-.27-1.43c-.03-.48.08-1 .33-1.57Z" fill="#fff"/><path d="M19.16 31.45c.02.28-.01.56-.1.85-.1.33-.24.66-.39.98-.16.35-.27.6-.3.72-.18.5-.27 1.05-.34 1.55-.07.52-.01 1.08 0 1.63a.18.18 0 0 1-.08-.1 4.4 4.4 0 0 1-.23-1.3c-.02-.65.09-1.22.32-1.68l.73-1.48c.1-.23.24-.62.4-1.17ZM27.43 31.65c.09.71.35 1.35.77 1.93.27.37.56.72.85 1.03.33.36.82.66 1.1.88.4.32.55.76.68 1.32l.16.83c.08.38.18.78.3 1.08.07.14.17.29.31.44.09.1.22.2.4.32.28.2.56.4.84.62a3.63 3.63 0 0 1-1.09-.48c-.4-.24-.64-.55-.76-.94a6.4 6.4 0 0 1-.3-1.7 2.3 2.3 0 0 0-.14-.6c-.15-.3-.34-.55-.59-.76l-.9-.77a5.15 5.15 0 0 1-1.45-2.03 2.8 2.8 0 0 1-.18-1.17Z" fill="#818080"/><path d="M17.74 37.03a.96.96 0 0 1-.42-.52 3.53 3.53 0 0 1 .17-2.81c.1 0 .2.03.29.08.02 0 .03.02.02.05l-.28.75c-.19.63-.2 1.25 0 1.86.05.17.16.38.22.6ZM34.6 39.57a.65.65 0 0 0 .08-.33 2.22 2.22 0 0 0-.48-1.34c-.26-.33-.76-.69-1.07-.95a1.83 1.83 0 0 1-.68-1.65.72.72 0 0 1 .35-.58h.03a.04.04 0 0 1 .03.04c-.1.48-.06.95.31 1.28.24.22.55.34.92.36l.26.02c.03 0 .04.02.05.04.09.6.2 1.07.34 1.43.18.46.3.8.37 1.02.08.25.15.57.2.96.01.03 0 .04-.02.04a.94.94 0 0 1-.67-.24c-.03-.03-.04-.06-.02-.1Z" fill="#818080"/><path d="M35.84 39.89c0-.38-.05-.7-.14-.97l-.22-.68a2 2 0 0 1-.09-.45c-.01-.22-.01-.53.08-.74a.07.07 0 0 1 .06-.04c.51-.06.96-.21 1.33-.45.29-.22.51-.46.68-.72a1 1 0 0 0 .1-.98c-.03-.07-.01-.09.05-.05.15.1.27.19.37.28.18.17.25.39.2.64-.08.44-.27.83-.51 1.22-.15.22-.24.4-.3.55a3.44 3.44 0 0 0-.11 1.95c0 .02 0 .04-.03.05-.2.09-.36.2-.6.26-.29.07-.58.11-.87.13Z" fill="#fff"/><path d="M36.86 36.56c-.37.24-.82.39-1.33.45a.07.07 0 0 0-.06.04 2 2 0 0 0 .01 1.19l.22.68c.09.27.13.59.14.97a.39.39 0 0 1-.23 0c-.02 0-.03-.01-.03-.04.05-.4-.1-.83-.22-1.24-.03-.09-.1-.3-.24-.65a7.1 7.1 0 0 1-.44-1.64c-.01-.08.01-.1.07-.04.41.37.9.52 1.45.46.07-.01.18-.05.33-.1.11-.04.23-.07.33-.08Z" fill="#818080"/><path d="M26.21 38.17c-.2-.1-.32-.26-.55-.36-.33-.14-.62-.1-.85.2l-.6.85a2.23 2.23 0 0 1-.69.64 17.86 17.86 0 0 1-1.2.62.05.05 0 0 1-.04-.03v-.03c0-.03.02-.06.05-.08a.8.8 0 0 0 .22-.24 3.73 3.73 0 0 0 1.97-1.5c.06-.09.16-.28.3-.58.08-.18.22-.27.4-.26.12.01.26.05.42.12.26.12.46.33.57.65Z" fill="#CA753F"/><path d="M26.21 38.17c.07.22.1.48.05.76a.5.5 0 0 1-.14.3 13.89 13.89 0 0 1-2.86 2.04c-.13.05-.28.1-.45.12a.2.2 0 0 1-.22-.14 1.11 1.11 0 0 0-.06-.19 5.5 5.5 0 0 1-.26-.63c-.03-.07 0-.14-.04-.2 0-.03-.03-.04-.05-.03l-.2.07c-.1.03-.14 0-.15-.09-.01-.17.06-.24.22-.29.17-.04.33-.1.5-.15a.8.8 0 0 1-.22.24c-.03.02-.05.05-.05.08a.05.05 0 0 0 .02.05h.05c.39-.18.78-.39 1.17-.61a2.15 2.15 0 0 0 .7-.64c.3-.44.5-.73.6-.85.21-.3.5-.34.84-.2.23.1.34.26.55.36Z" fill="#383838"/><path d="m21.34 38.56-.06.06a.08.08 0 0 0-.02.06l.02.03.03.03c.38.2.72.45 1 .76a.46.46 0 0 1-.27.06.1.1 0 0 1-.07-.03l-.28-.31c-.24-.26-.46-.4-.79-.52-.05-.02-.05-.04 0-.06l.34-.14c.03-.01.05 0 .07.02l.03.04ZM38.19 39.08l.47-.3c.03-.03.02-.04-.01-.05l-.04-.01c.15-.03.3-.03.43 0 .03 0 .03 0 0 .02-.26.18-.55.29-.85.34Z" fill="#818080"/><path d="M38.61 38.72h.04c.03.02.04.03 0 .05l-.46.3a.41.41 0 0 0-.38.03l-.16.08c-.02.01-.04 0-.04-.03l-.02-.31c0-.03 0-.04.03-.04l1-.08Z" fill="#fff"/><path d="M34.04 39.47a.7.7 0 0 0-.5.14c-.03.01-.05.01-.07 0l-.26-.2c-.02-.02-.02-.04 0-.05l.78-.42c.05-.02.14-.05.27-.07.02 0 .04 0 .04.02l.06.27c0 .03 0 .05-.02.06a.37.37 0 0 0-.15.23c0 .02-.03.04-.05.04l-.1-.02Z" fill="#818080"/><path d="M43 39.5v1.36c-.34-.12-.68-.26-1.02-.34a6.37 6.37 0 0 0-1.6-.15c-.74.03-1.27.07-1.58.12a7.9 7.9 0 0 0-.79.16c-.05.01-.05 0 0-.03.24-.18.4-.38.46-.6 0-.03.02-.04.05-.03.22.1.49.1.79.03.28-.07.47-.12.56-.17.43-.21.8-.52 1.12-.9a.06.06 0 0 1 .06-.03c.67.12 1.32.32 1.95.58Z" fill="#fff"/><path d="M26.9 39.19c-.26.15-.43.27-.5.35a8 8 0 0 1-2.7 2.18.8.8 0 0 0-.42.48c-.1.26-.15.52-.15.8h-.21l-.07-.02a.79.79 0 0 1-.1-.4v-.7c0-.05-.03-.08-.08-.12-.02-.02-.02-.03.01-.03.24-.02.4-.05.49-.08.27-.1.51-.22.72-.34.5-.3 1.04-.68 1.65-1.15.35-.26.64-.53.88-.8.06-.07.11-.19.16-.28.01-.02.03-.03.06-.01l.26.12Z" fill="#818080"/><path d="M28.28 43h-5.15c0-.28.05-.54.15-.8a.8.8 0 0 1 .42-.48 8 8 0 0 0 2.7-2.18c.07-.08.24-.2.5-.35.53.3.87.74 1.01 1.35.18.76.3 1.58.37 2.46ZM37.64 39.61v-.07c0-.03.02-.05.04-.06.1-.07.2-.11.31-.13a.14.14 0 0 1 .16.08.4.4 0 0 1 .01.27v.07l.01.08v.08c-.12.25-.27.4-.46.46-.3.1-.55.01-.74-.25-.03-.04-.02-.08.03-.11l.6-.35a.07.07 0 0 0 .04-.07ZM34.09 40.84c-.2-.14-.32-.27-.34-.38a2.66 2.66 0 0 0-.16-.48c.14-.16.33-.22.56-.18.08.02.17.06.27.13l.22.16c.02.02.04.04.04.06a.78.78 0 0 1-.09.5c-.1.16-.27.22-.5.2Z" fill="#fff"/><path d="m33.6 39.98.15.48c.02.11.13.24.34.38a.66.66 0 0 1-.48-.23c-.15-.18-.16-.4-.02-.63ZM33.2 41.07l-.17-.33a.07.07 0 0 0-.03-.03 2.68 2.68 0 0 1-.6-.1.62.62 0 0 0-.42.08c-.25.16-.45.4-.6.72l-.45-.01c-.03 0-.04-.02-.02-.05.27-.43.56-.77.95-1.21.03-.05.07-.05.12-.03.41.23.8.36 1.18.37.03 0 .04.02.05.05.05.16.16.3.33.43l.06.08v.01a.03.03 0 0 1-.03.03l-.37-.01ZM35.8 41.57c.15-.46.41-.84.77-1.15.02-.01.03-.03.02-.06a.71.71 0 0 1-.04-.23l.16-.03c.03-.01.05 0 .04.04-.02.1 0 .2.05.3.01.02 0 .04-.02.06-.37.26-.49.57-.65 1-.01.02-.03.04-.05.04l-.28.03Z" fill="#818080"/><path d="M36.55 40.13c0 .08.01.16.04.23 0 .03 0 .05-.02.06-.36.3-.62.69-.77 1.15-.24 0-.46-.04-.65-.15a.11.11 0 0 1-.05-.05.84.84 0 0 0-.3-.39c-.03-.02-.04-.04-.02-.06.17-.19.24-.41.22-.67 0-.02 0-.04.03-.04.51.03 1.02 0 1.52-.08Z" fill="#fff"/><path d="m21.08 41.34.07.39a.04.04 0 0 1-.01.03.04.04 0 0 1-.03.01.07.07 0 0 1-.05-.02.7.7 0 0 1-.16-.51c.02-.42.2-.77.55-1.05a.05.05 0 0 1 .08.02V40.53c0 .04 0 .08-.04.1a.74.74 0 0 0-.27.58.38.38 0 0 0 .41.4c.15 0 .27-.04.37-.1.05-.04.1-.04.15-.01l.03.01c.05.03.05.07 0 .1-.25.2-.53.27-.85.24a.14.14 0 0 1-.12-.11l-.1-.41s0-.01 0 0h-.03v.01Z" fill="#383838"/><path d="M33.2 41.07c-.4-.03-.67-.01-.82.04-.32.12-.65.22-1 .3.15-.32.35-.56.6-.72.09-.06.29-.11.42-.08a2.68 2.68 0 0 0 .6.1l.03.03.17.33Z" fill="#fff"/><path d="M20.45 41.89c.11.06.26 0 .34.04.04.01.07.04.08.07 0 .03 0 .04-.03.05a.84.84 0 0 1-.6.04.54.54 0 0 1-.32-.28c-.24-.5.3-1 .73-1.19a.05.05 0 0 1 .06.01.05.05 0 0 1 0 .06l-.13.24a.34.34 0 0 1-.14.13c-.1.06-.22.14-.24.29-.03.24.06.42.25.54Z" fill="#383838"/><path d="M36.88 43h-.51c-.17-.76 0-1.8.6-2.34a.05.05 0 0 1 .07 0c.12.05.24.08.37.09a.16.16 0 0 1 .14.13 3 3 0 0 1-.1 1.32c-.08.28-.27.54-.57.8Z" fill="#fff"/><path d="M43 41.2v.39c-.54-.3-1.12-.51-1.73-.6a7.5 7.5 0 0 0-3.4.23.54.54 0 0 1-.01-.2c0-.02.01-.04.03-.05.09-.02.17-.07.25-.08.67-.1 1.38-.17 2.12-.2.67-.03 1.3.04 1.9.2.25.08.56.22.84.32Z" fill="#818080"/><path d="M21.9 41.24a.02.02 0 0 1-.01.02h-.02a.34.34 0 0 1-.1.04h-.1a.21.21 0 0 1-.07-.03.17.17 0 0 1-.06-.06.18.18 0 0 1 0-.17c.03-.06.08-.1.14-.14a.02.02 0 0 1 .03 0l.18.34Z" fill="#00BDFF"/><path d="M43 41.59V43h-5.66c.44-.46.57-1.13.54-1.78a7.5 7.5 0 0 1 3.39-.23c.61.09 1.19.3 1.73.6ZM30.06 41.52c-.34.41-.52.9-.51 1.48h-.94a16.86 16.86 0 0 0-.26-2.03l.02-.01h.02c.33.03.65.1.96.19.33.1.57.22.71.37ZM34.94 43h-.76a3.1 3.1 0 0 1-.36-1.77c0-.08.04-.1.1-.09.17.04.36.04.57-.02a.07.07 0 0 1 .06.01c.16.13.28.34.35.63.11.45.13.86.04 1.24Z" fill="#fff"/><path d="M33.8 43h-.14a2.28 2.28 0 0 1-.37-1.12.15.15 0 0 0-.09-.13 1.58 1.58 0 0 0-.41-.14c-.1-.02-.25 0-.43.04a13.56 13.56 0 0 1-1.28.24A5.1 5.1 0 0 0 30.7 43h-.34c.04-.45.17-.88.37-1.3.01-.02.03-.03.05-.02.37.09.73.06 1.08-.08.5-.2 1.04-.29 1.6-.26.03 0 .04.01.04.04-.04.57.06 1.1.3 1.62ZM20.5 41.52c.02.08.06.14.1.13.04 0 .06-.08.04-.15 0-.08-.05-.14-.09-.13-.04 0-.06.07-.04.15ZM30.06 41.52l.24.25c.02.02.02.04.01.06-.13.38-.23.77-.3 1.17h-.46c0-.57.16-1.07.51-1.48Z" fill="#818080"/><path d="M33.66 43h-2.95a5.1 5.1 0 0 1 .37-1.11 1.18 1.18 0 0 1 1.7-.28c.13.02.27.07.42.14a.15.15 0 0 1 .09.13c.03.4.15.78.37 1.12Z" fill="#fff"/><path d="M36.04 43h-.25a5.93 5.93 0 0 1-.04-.67.25.25 0 0 0-.04-.15c-.1-.14-.29-.12-.4.01l-.06-.39c0-.03 0-.04.04-.03a1 1 0 0 0 .7.06c.03 0 .04 0 .04.03-.06.38-.06.76.01 1.14Z" fill="#818080"/><path d="M20.88 42.62c-.16 0-.16.12 0 .37h-.27a2.1 2.1 0 0 0-.12-.26.38.38 0 0 0-.2-.19.4.4 0 0 0-.46.12c-.08.08-.08.21-.14.32a.08.08 0 0 0-.05.02h-.05l-.06-.02v-.04c-.14-.12-.17-.27-.12-.46a.99.99 0 0 1 .25-.4c.01-.02.03-.02.04 0 .24.3.55.42.93.35l.07.01a.6.6 0 0 1 .18.18Z" fill="#383838"/><path d="M35.79 43h-.52c.05-.27.07-.54.04-.8.11-.14.3-.16.4-.02.03.03.04.09.04.15 0 .23.01.45.04.67Z" fill="#fff"/><path d="M20.61 42.98V43h-.32l-.02-.02c0-.1-.04-.18-.12-.2-.05-.02-.1 0-.14.03-.04.04-.05.1-.03.17l-.02.02h-.2a.2.2 0 0 0-.07-.02c.06-.1.06-.24.14-.32a.4.4 0 0 1 .46-.12c.08.03.14.09.2.19.05.08.09.16.12.25Z" fill="#010101"/><path d="M20.88 42.62c.1.12.13.24.1.36h-.1c-.16-.24-.16-.36 0-.36Z" fill="#818080"/></svg>