<svg width="112" height="112" viewBox="0 0 56 56" xmlns="http://www.w3.org/2000/svg"><rect fill="#E4323E" width="56" height="56" rx="28"/><path d="M23.57 20h2.34c.2 0 .4-.1.5-.27l1.61-2.65c.22-.36.79-.35 1 .01l1.55 2.63c.1.17.3.28.5.28h2.36c.43 0 .71-.43.5-.79l-4.8-7.89a.72.72 0 0 0-1.2 0l-4.85 7.9c-.22.34.05.78.5.78ZM12.55 39h10.68c.49 0 .73-.59.4-.94L21.59 36h-3.52c-.53 0-.85-.71-.54-1.16l.87-1.28a.79.79 0 0 0-.1-1l-1.4-1.37a.55.55 0 0 0-.85.12l-3.97 6.85c-.22.37.05.84.47.84Zm30.9 0H32.77c-.49 0-.73-.59-.4-.94L34.41 36h3.52c.53 0 .85-.71.54-1.16l-.87-1.28a.79.79 0 0 1 .1-1l1.4-1.37c.25-.25.67-.2.85.12l3.97 6.85a.56.56 0 0 1-.47.84ZM27 21.58v4.6a.8.8 0 0 1-.77.82h-1.54c-.43 0-.69-.36-.69-.81v-1.35c0-.32-.33-.84-.63-.84h-5.5c-.49 0-.73.9-.38 1.26l5.52 5.7c.34.35.99.33.99-.17 0-.44.25-.8.67-.8h1.56a.8.8 0 0 1 .77.82v7.49c0 .62-.7.93-1.13.5L13.2 25.48a.73.73 0 0 1 0-1L16.52 21h9.93c.3 0 .55.26.55.58Zm2 16.72V21.93c0-.51.4-.93.89-.93h9.23c.24 0 .47.1.63.28l3.06 3.3c.15.16.2.37.19.57-.03.24-.19.44-.34.63l-.14.18-.47.66-.02.02c-.12.16-.25.35-.46.36h-3.09c-.22 0-.48-.18-.48-.42v-.16c0-.3.2-.58.42-.77l.03-.03c.12-.1.27-.68.27-.85 0-.31-.33-.77-.63-.77h-5.44c-.3 0-.65.52-.65.84v5.62c0 .63.82.94 1.24.49l1.03-.9c.04-.04.1-.05.16-.05h2.59c.59 0 .88.73.47 1.18l-7.35 7.61c-.42.45-1.14.13-1.14-.49Z" fill="#fff"/></svg>