<svg width="112" height="112" viewBox="0 0 56 56" xmlns="http://www.w3.org/2000/svg"><rect fill="#24263D" width="56" height="56" rx="28"/><path d="M30 28a4 4 0 1 0-4 4h4v-4Z" fill="#fff"/><path d="M42 44V28c0-2.68-.67-5.32-1.96-7.68-1.29-2.35-2.78-4.32-5.04-5.77V37h-7.42c-4.63 0-9.34-2-10.35-6.31a11.74 11.74 0 0 1 0-5.38c.85-3.87 4.8-6.25 8.77-6.31 1.3-.02 2.82.46 4 1v-7.49c-2.2-.5-4.84-.65-7.05-.22a16.18 16.18 0 0 0-12.84 13.87 16.18 16.18 0 0 0 9.33 16.43A16 16 0 0 0 26 44h16L42 44Z" fill="#fff"/></svg>