<svg width="112" height="112" viewBox="0 0 56 56" xmlns="http://www.w3.org/2000/svg"><path d="M36.27 29.96a5.65 5.65 0 0 0-4.11-1.74.22.22 0 0 1-.16-.06.22.22 0 0 1 0-.32c.04-.04.1-.06.16-.06a5.52 5.52 0 0 0 4.11-1.73A5.7 5.7 0 0 0 38 21.88a5.74 5.74 0 0 0-1.73-4.14A5.64 5.64 0 0 0 32.16 16H20c2.22 1.03 4.12 2.96 5.5 5h4.98c.62 0 1.02.38 1.02 1s-.4 1-1.02 1h-3.74c.63 1.57.95 3.3.94 5 .01 1.7-.3 3.43-.93 5h3.73c.6.04 1.02.4 1.02 1s-.42.96-1.02 1h-4.96c-1.36 2.03-3.25 3.97-5.48 5h12.12a5.5 5.5 0 0 0 4.11-1.72 5.83 5.83 0 0 0 1.28-6.42 5.83 5.83 0 0 0-1.28-1.9" fill="#F0F3FA"/><path d="M23.44 19.55A11.69 11.69 0 0 0 14.93 16H12v11h5.9c.5 0 1.1.5 1.1 1s-.6 1-1.1 1H12v11h2.93a11.74 11.74 0 0 0 8.5-3.5A11.68 11.68 0 0 0 27 28a11.5 11.5 0 0 0-3.56-8.45ZM44.53 19.55A11.3 11.3 0 0 0 36.25 16H36a7.26 7.26 0 0 1 2.7 3.21c.34.85.52 1.76.5 2.68a7.44 7.44 0 0 1-2.04 5.1h2.03c.6.05 1.31.17 1.31 1.01s-.7.96-1.3 1h-2.05.02a7.73 7.73 0 0 1 2.04 5.12A7.03 7.03 0 0 1 36.02 40h.23a11 11 0 0 0 8.28-3.5A11.68 11.68 0 0 0 48 28a11.78 11.78 0 0 0-3.47-8.46" fill="#F0F3FA"/><defs><linearGradient id="ajed1kheg" x1="0" y1="28" x2="56" y2="28" gradientUnits="userSpaceOnUse"><stop stop-color="#8D1D41"/><stop offset="1" stop-color="#E62B38"/></linearGradient></defs></svg>