<svg width="112" height="112" viewBox="0 0 56 56" xmlns="http://www.w3.org/2000/svg"><path d="M28 12.01v16.06l-6.29-6.4c-2.03 1.74-2.65 5.03-2.74 6.4 0 5.45 5.44 9.25 9.03 8.86V44c-12.62-.6-15.93-10.87-16-15.93 0-11.24 9.69-16.32 16-16.06Z" fill="url(#av3kodkle)"/><path d="M28 43.99V27.93l6.29 6.4c2.03-1.74 2.65-5.03 2.74-6.4 0-5.45-5.44-9.25-9.03-8.86V12c12.62.6 15.93 10.87 16 15.93 0 11.24-9.69 16.32-16 16.06Z" fill="url(#bv3kodkle)"/><defs><linearGradient id="av3kodkle" x1="20" y1="12" x2="20" y2="44" gradientUnits="userSpaceOnUse"><stop offset=".32" stop-color="#00E8F2"/><stop offset="1" stop-color="#3F28F7"/></linearGradient><linearGradient id="bv3kodkle" x1="36" y1="44" x2="36" y2="12" gradientUnits="userSpaceOnUse"><stop offset=".46" stop-color="#EA00D1"/><stop offset="1" stop-color="#6401F2"/></linearGradient></defs></svg>