<svg width="112" height="112" xmlns="http://www.w3.org/2000/svg" viewBox="0 0 56 56"><circle cx="28.002" cy="28.002" r="17.998" fill="#CF9735"/><path d="M46 27.05c0 9.414-8.058 17.046-17.998 17.046-9.94 0-17.998-7.632-17.998-17.046s8.058-17.046 17.998-17.046C37.942 10.004 46 17.636 46 27.05z" fill="#F6D78D"/><path fill-rule="evenodd" d="M28.002 43.795c9.79 0 17.698-7.512 17.698-16.745 0-9.234-7.908-16.746-17.698-16.746S10.304 17.816 10.304 27.05c0 9.233 7.908 16.745 17.698 16.745zm0 .3C37.942 44.096 46 36.465 46 27.05c0-9.414-8.058-17.046-17.998-17.046-9.94 0-17.998 7.632-17.998 17.046s8.058 17.046 17.998 17.046z" fill="#000"/><ellipse cx="27.983" cy="27.029" rx="16.779" ry="16.267" fill="url(#paint0_linear)"/><path d="M42 27c0 7.732-6.267 14-13.998 14-7.73 0-13.997-6.268-13.997-14s6.267-14 13.997-14C35.733 13 42 19.268 42 27z" fill="url(#paint1_linear)"/><path fill-rule="evenodd" d="M28.002 40.7c7.581 0 13.709-6.144 13.709-13.7 0-7.556-6.128-13.7-13.709-13.7-7.58 0-13.708 6.144-13.708 13.7 0 7.556 6.127 13.7 13.708 13.7zm0 .3C35.733 41 42 34.732 42 27s-6.267-14-13.998-14c-7.73 0-13.997 6.268-13.997 14s6.267 14 13.997 14z" fill="#E6D577"/><path d="M16.682 22.243c.114-.125-.268-.846-.36-1.418.187.083.616.435.834 1.18.093-.334-.269-1.297.123-2.63.153.315.46 1.17.46 2.077.126-.329.808-1.202 2.532-2.062-.21.525-.957 1.787-2.292 2.751.873-.593 2.81-1.49 4.53-.922-.794.469-2.883 1.39-4.897 1.327 1.214.04 3.91.51 4.98 2.07-.79-.026-2.676-.355-4.447-1.423.822.638 1.861 1.825 2.03 3.46-.544-.434-1.873-1.802-2.847-3.804.297.652.68 2.364-.155 3.998-.144-.593-.371-2.087-.125-3.318-.009.046-.346.823-1.568 1.596.173-.471.608-1.49.96-1.794-.186.045-.618.113-.861.023.242-.17.844-.56 1.315-.77l-1.73-.353c-.163-.113-.014-.201.056-.192.459.058 1.325.355 1.462.204z" fill="url(#paint2_linear)"/><path d="M24.323 16.44c.142.088.723-.467 1.232-.69-.034.21-.264.73-.904 1.122.33.02 1.14-.568 2.462-.468a4.722 4.722 0 01-1.819.94c.333.055 1.295.558 2.481 2.131-.533-.097-1.87-.578-3.064-1.729.746.761 2.013 2.544 1.876 4.435-.613-.707-1.938-2.64-2.334-4.72.237 1.254.41 4.123-.793 5.572-.154-.816-.274-2.823.314-4.879-.405.986-1.269 2.32-2.745 2.86.279-.654 1.245-2.325 2.88-3.775-.537.451-2.036 1.231-3.737.743.516-.282 1.848-.852 3.043-.877-.044.002-.84-.17-1.832-1.247.476.071 1.517.286 1.879.578-.084-.18-.245-.607-.216-.877.211.21.709.739 1.01 1.175l-.065-1.854c.069-.193.184-.059.191.015.05.483-.03 1.438.141 1.545z" fill="url(#paint3_linear)"/><path d="M28.301 14.547c.105.029.376-.432.659-.67.014.14-.041.51-.378.88.212-.05.622-.576 1.474-.766-.123.193-.49.652-.986.942.22-.03.914.104 1.934.87-.353.04-1.28-.007-2.233-.505.603.338 1.71 1.22 1.95 2.44-.508-.329-1.678-1.296-2.287-2.532.366.745.97 2.523.462 3.668-.238-.485-.661-1.73-.645-3.14-.085.7-.4 1.707-1.238 2.331.063-.466.384-1.706 1.165-2.934-.261.388-1.072 1.167-2.23 1.184.277-.277 1.02-.891 1.77-1.136-.029.01-.56.054-1.373-.436.313-.046 1.007-.11 1.286.005-.084-.097-.26-.336-.288-.512.17.092.575.33.84.548l-.36-1.157c.01-.135.105-.072.122-.028.115.296.23.914.356.948z" fill="url(#paint4_linear)"/><path d="M34.37 17.907c-.094.056.018.585-.026.964-.103-.089-.31-.395-.316-.908-.117.192-.06.87-.544 1.632a3.491 3.491 0 01.08-1.398c-.139.182-.723.598-1.962.8.226-.288.92-.936 1.932-1.281-.655.202-2.034.385-3.017-.31.583-.14 2.063-.309 3.32.127-.757-.264-2.372-1.09-2.769-2.283.493.172 1.622.75 2.548 1.77-.404-.562-.848-1.514-.663-2.577.265.38.86 1.503 1.116 2.955-.07-.469-.008-1.623.809-2.487-.015.402-.137 1.387-.511 2.114.014-.027.364-.45 1.271-.697-.193.263-.647.82-.923.942.125.008.409.05.546.154-.182.06-.63.187-.965.227l1.028.562c.082.104-.028.13-.07.11-.279-.127-.772-.485-.885-.416z" fill="url(#paint5_linear)"/><path d="M35.028 23.81c-.182.007-.407.889-.754 1.417-.088-.218-.17-.845.204-1.614-.319.19-.738 1.247-2.025 1.986.108-.373.492-1.3 1.157-2.02-.34.159-1.521.297-3.52-.42.552-.245 2.07-.64 3.835-.321-1.128-.238-3.32-1.1-4.268-2.946.973.272 3.305 1.237 4.856 2.923-.934-1.018-2.726-3.579-2.431-5.685.607.663 1.86 2.454 2.482 4.738-.184-1.172-.138-2.957.928-4.39.112.784.164 2.949-.532 5.326.242-.757 1.193-2.427 3.054-3.044-.32.588-1.236 1.957-2.334 2.733.041-.03.879-.372 2.414.007-.483.233-1.574.689-2.076.644.18.115.572.411.7.68-.317-.062-1.08-.24-1.609-.457l1.115 1.685c.046.222-.137.17-.186.107-.321-.419-.79-1.358-1.01-1.35z" fill="url(#paint6_linear)"/><path d="M37.904 28.41c-.126.006-.282.616-.522.981-.06-.15-.117-.584.14-1.116-.22.131-.51.863-1.4 1.374.075-.259.34-.9.8-1.398-.235.11-1.052.206-2.434-.29.381-.17 1.431-.443 2.652-.222-.78-.165-2.296-.76-2.952-2.038.673.188 2.286.856 3.359 2.022-.646-.704-1.886-2.476-1.682-3.932.42.458 1.288 1.697 1.718 3.277-.128-.811-.096-2.046.641-3.037.078.543.114 2.04-.368 3.684.168-.524.826-1.678 2.113-2.105-.222.406-.855 1.353-1.614 1.89.028-.02.608-.257 1.67.004-.334.162-1.09.477-1.437.447.125.079.396.284.484.47a7.07 7.07 0 01-1.112-.316l.77 1.165c.032.154-.094.118-.128.074-.222-.29-.547-.94-.698-.933z" fill="url(#paint7_linear)"/><path d="M33.175 34.299c-.031-.129-.63-.158-1.022-.326.127-.095.518-.246 1.067-.095-.17-.198-.91-.34-1.576-1.145.256.022.908.157 1.469.523-.153-.219-.417-1.038-.253-2.566.24.356.718 1.377.775 2.68-.014-.838.213-2.525 1.258-3.473-.03.732-.304 2.534-1.156 3.887.515-.815 1.893-2.47 3.29-2.574-.336.53-1.3 1.689-2.674 2.47.725-.305 1.878-.538 2.957.007-.487.197-1.87.555-3.5.413.523.06 1.736.489 2.409 1.72-.425-.14-1.44-.588-2.101-1.253.025.024.369.57.354 1.718-.222-.31-.676-1.018-.723-1.381-.046.145-.178.468-.332.598a8.163 8.163 0 01.054-1.211l-.916 1.042c-.136.066-.13-.072-.096-.116.221-.29.755-.764.716-.918z" fill="url(#paint8_linear)"/><path d="M25.547 35.963c-.022-.193-.888-.359-1.425-.684.202-.11.798-.25 1.568.082-.209-.323-1.26-.68-2.078-1.988.369.084 1.291.415 2.038 1.063-.18-.35-.412-1.595.11-3.781.281.566.787 2.148.628 4.053.135-1.22.78-3.624 2.473-4.787-.18 1.057-.912 3.62-2.401 5.41.9-1.078 3.21-3.2 5.258-3.062-.586.701-2.202 2.186-4.345 3.038 1.111-.294 2.83-.395 4.296.62-.744.185-2.82.42-5.162-.12.748.194 2.432 1.066 3.18 2.994-.59-.292-1.983-1.151-2.82-2.254.031.04.43.904.195 2.57-.264-.495-.793-1.618-.793-2.156-.095.201-.347.643-.595.8.034-.34.141-1.168.305-1.748l-1.525 1.326c-.21.068-.175-.131-.118-.188.375-.377 1.238-.955 1.211-1.188z" fill="url(#paint9_linear)"/><path d="M19.707 33.05c-.15-.113-.85.45-1.439.65.058-.231.36-.79 1.111-1.166-.368-.054-1.325.525-2.795.284.306-.23 1.159-.728 2.117-.875-.368-.094-1.4-.75-2.59-2.624.589.16 2.042.828 3.277 2.231-.768-.924-2.029-3.04-1.71-5.143.624.85 1.937 3.142 2.197 5.506-.155-1.425-.097-4.651 1.376-6.156.1.928.06 3.185-.78 5.428.54-1.064 1.624-2.472 3.322-2.934-.37.705-1.597 2.481-3.552 3.944.64-.452 2.385-1.179 4.245-.468-.602.265-2.142.773-3.481.685.05.003.925.272 1.94 1.574-.526-.126-1.672-.468-2.05-.83.078.21.22.703.164 1.002-.218-.255-.729-.895-1.027-1.412l-.09 2.08c-.093.209-.21.048-.213-.035-.013-.545.16-1.606-.022-1.742z" fill="url(#paint10_linear)"/><path d="M27.81 32.807v1.78c.053.186.455.168.435 0v-1.21c0-.367.626-.835.76-.63l1.116.872.115-.242.44.468v-.226l.505.479.115-.253.558.428.077-.316.568.316v-.175l.735.343v-.218l.49.078c.613.077.782.1.922.14-.419-.44-.91-.822-.921-.892-.01-.056-.22-.243-.324-.33l-.616-.422-.286-.339-.353-.12-.607-.424.716.188-.1-.289.931.126V31.6l.773.124-.112-.428.728.151-.086-.403.65.101-.062-.295.743.081.107-.44.503.07.071-.242.443-.105v-.174h.383l.183-.18c.375-.223 1.114-.583 1.436-.735H37.41l-.183-.088-.632.088v-.197l-.515.109.1-.109-.702.109.086-.109-.645.109.058-.109-.73.29-.072-.181-.602.393v-.212l-.644.4v-.188l-.487.332-.072-.145-.473.423v-.18l-.701.459v-.182l-.66.528-.128-.105-.716.653c-.588.653-1.318.98-1.232.779.069-.16.535-.699.759-.948l.874-.726v-.278l.573-.278v-.23l.644-.495v-.387l.659-.471v-.468l.401-.27-.115-.242.674-.302-.316-.286.473-.27-.157-.303.644-.326-.286-.338.572-.266v-.496l.316-.126-.086-.357.386-.158-.086-.423.444-.178-.2-.342.344-.2-.143-.257c.16-.443.773-1.32 1.06-1.703-.299.11-.831.615-1.06.855h-.201l-.458.447-.158-.081-.258.347-.186-.06-.644.75-.144-.098-.415.52-.215-.102-.186.525h-.315l-.344.816-.186-.175-.33.762-.128-.165-.2.648-.187-.145-.186.629-.2.27v.83l-.273-.157-.186.895h-.215l.115.616-.2.242v.496h-.13v.507l-.315.097c.035.484-.282 1.177-.444 1.463-.103-.61.1-1.108.215-1.281l.315-.702c-.067.024-.21.041-.243-.084-.035-.126.3-.593.472-.81h-.229l.358-.544h-.129l.43-.738c-.143.057-.43.136-.43 0 0-.135.287-.693.43-.955h-.43l.43-.943h-.3l.3-.834h-.215l.215-.738h-.3l.3-.943h-.3l.3-.758-.3.106.2-.774h-.33l.33-.734h-.33l.215-.738-.315.105.1-.814h-.172l.072-.512h-.172l.1-.483h-.2c-.355-.615-.148-1.994 0-2.607-.13.17-.407.66-.487 1.25-.08.592-.263.87-.344.935.023.41-.172.543-.272.558v.633l-.158.075v.86l-.267-.09v.918h-.316l.316.765h-.316l.096.773h-.292l.292.95h-.35l.254.803-.253.101.253.649-.196.109.38.75-.184.108.316.84-.449-.066.449 1.318h-.316l.583 1.475-.267.084.454.943-.086.211c.16.169.168.575.152.757l-.653-.678v-.918l-.183-.315v-.58l-.253-.17-.138-.81-.276-.072-.08-.701h-.276l-.103-.798h-.334l-.103-.774h-.23L24.881 25l-.184.109-.345-.98-.184.121-.115-.7-.275.132-.23-.761-.264.108-.242-.858-.275.206-.333-.774-.219.12-.195-.592-.195.085c-.552-.561-1.34-1.862-1.666-2.442.138 1.093.295 1.76.356 1.958h-.15l.288.484h-.218l.31.592h-.23l.333.629-.195.06.425.63-.23.084.586.653-.241.108.505.641-.264.097.586.665-.195.17.46.422v.375l.493.399-.16.242.7.46-.23.168.724.375-.16.29.792.52-.287.133 1.114.762-.092.072.632.375v.181l.31.242c.186.121.54.387.471.484-.068.097-.342.04-.47 0l-.185-.484-.436-.241-.127-.279h-.195l-.379-.423-.115.145-.333-.399-.069.17-.54-.665-.092.169-.563-.532-.183.145-.46-.471-.16.096-.46-.386-.196.096-.436-.375-.184.218-.494-.387-.15.17-.355-.327-.173.157-.356-.242-.138.085-1.998-.629c.275.165 1.133.955 1.527 1.33v.29l.31.121v.254l.368.073v.314l.46.181v.315l.436.084v.242l.747.181-.184.279.62.241v.29h.655v.363h.678l.253.387.367-.072.161.253.54-.06.07.145c.125 0 1.665-.043 1.584.126-.064.135-1.505.263-1.654.207l-.443.368-.907.532v.17A7.152 7.152 0 0021.76 34.4c.432-.275 1.62-.595 2.16-.72v.171l.54-.172v.172l.517-.234v.123l.523-.265v.265l.705-.523c.386-.348 1.623-.46 1.605-.41z" fill="url(#paint11_linear)"/><defs><linearGradient id="paint0_linear" x1="16.426" y1="15.319" x2="39.689" y2="38.131" gradientUnits="userSpaceOnUse"><stop stop-color="#F5E39A"/><stop offset=".869"/></linearGradient><linearGradient id="paint1_linear" x1="18.788" y1="16.445" x2="38.255" y2="36.427" gradientUnits="userSpaceOnUse"><stop offset=".515" stop-color="#FFFE75"/><stop offset=".639" stop-color="#7E0308"/><stop offset=".791"/></linearGradient><linearGradient id="paint2_linear" x1="22.655" y1="24.398" x2="15.075" y2="22.171" gradientUnits="userSpaceOnUse"><stop stop-color="#FBFAAE"/><stop offset="1" stop-color="#C19F2B"/></linearGradient><linearGradient id="paint3_linear" x1="23.677" y1="23.05" x2="24.304" y2="14.797" gradientUnits="userSpaceOnUse"><stop stop-color="#FBFAAE"/><stop offset="1" stop-color="#C19F2B"/></linearGradient><linearGradient id="paint4_linear" x1="29.035" y1="18.843" x2="27.857" y2="13.548" gradientUnits="userSpaceOnUse"><stop stop-color="#FBFAAE"/><stop offset="1" stop-color="#C19F2B"/></linearGradient><linearGradient id="paint5_linear" x1="30.989" y1="15.374" x2="35.422" y2="18.184" gradientUnits="userSpaceOnUse"><stop stop-color="#FBFAAE"/><stop offset="1" stop-color="#C19F2B"/></linearGradient><linearGradient id="paint6_linear" x1="31.871" y1="17.251" x2="36.376" y2="25.099" gradientUnits="userSpaceOnUse"><stop stop-color="#FBFAAE"/><stop offset="1" stop-color="#C19F2B"/></linearGradient><linearGradient id="paint7_linear" x1="35.72" y1="23.874" x2="38.836" y2="29.302" gradientUnits="userSpaceOnUse"><stop stop-color="#FBFAAE"/><stop offset="1" stop-color="#C19F2B"/></linearGradient><linearGradient id="paint8_linear" x1="36.917" y1="31.078" x2="32.175" y2="34.997" gradientUnits="userSpaceOnUse"><stop stop-color="#FBFAAE"/><stop offset="1" stop-color="#C19F2B"/></linearGradient><linearGradient id="paint9_linear" x1="31.584" y1="32.055" x2="23.985" y2="36.806" gradientUnits="userSpaceOnUse"><stop stop-color="#FBFAAE"/><stop offset="1" stop-color="#C19F2B"/></linearGradient><linearGradient id="paint10_linear" x1="21.01" y1="25.718" x2="19.509" y2="34.876" gradientUnits="userSpaceOnUse"><stop stop-color="#FBFAAE"/><stop offset="1" stop-color="#C19F2B"/></linearGradient><linearGradient id="paint11_linear" x1="20.994" y1="17.681" x2="40.717" y2="41.42" gradientUnits="userSpaceOnUse"><stop stop-color="#6CBC2E"/><stop offset="1" stop-color="#1A1102"/></linearGradient></defs></svg>