<svg width="112" height="112" viewBox="0 0 56 56" xmlns="http://www.w3.org/2000/svg"><rect fill="#F0F3FA" width="56" height="56" rx="28"/><path d="M42.3 18.82c-1.32-.97-2.62-1.9-3.9-2.75-.58-.4-1.19-.73-1.82-1l.01-1.17a.45.45 0 0 0-.37-.45c-3.1-.55-6.2-1.13-9.3-1.54-.74-.1-1.49-.28-2.23-.55 2.48-.52 4.92-.48 7.31.12 4.38 1.1 7.81 3.54 10.3 7.34Z" fill="#5B6AB0"/><path d="M24.7 11.36c.73.27 1.48.45 2.23.55 3.1.4 6.2.99 9.3 1.54a.45.45 0 0 1 .36.45l-.01 1.17-.02 2.24.1 6.27.07 5.11c-1.45.3-2.95.35-4.5.14-.05 0-.07-.03-.07-.09.4-.27.23-.66.56-.93l1.75.05 1.73.02a.2.2 0 0 0 .2-.2c0-.32-.02-.62-.08-.9a1.02 1.02 0 0 1-.02-.19l-.02-5.66-.17-6.02-.08-.59a.16.16 0 0 0-.13-.13l-.86-.17-7.4-1.39-4.58-.84a4.9 4.9 0 0 1 1.63-.43Z" fill="#29376F"/><path d="m23.06 11.8 4.58.83a4.4 4.4 0 0 1-1.81.52l-3.76-.34c-.15.25-.39.34-.72.27-.35-.08-.7-.15-1.08-.2 1.02-.55 1.95-.91 2.8-1.09Z" fill="#6E7FC3"/><path d="M35.04 14.02a.5.5 0 0 1-.34.2.11.11 0 0 0-.1.12c0 .05.04.1.11.14a.1.1 0 0 1 .01.16.1.1 0 0 1-.06.02l-1.46-.07-2.46-.44a2.2 2.2 0 0 0-1.12-.24c-.48.29-.99.37-1.52.24l.47-.25a.08.08 0 0 0-.03-.16l-2.13-.4a.1.1 0 0 0-.1.04.1.1 0 0 0 0 .1c.23.4.64.6 1.23.57-.2.16-.42.26-.64.32-.36-.1-.72-.12-1.07-.07a.18.18 0 0 0-.15.18v2.39a.22.22 0 0 0 .14.2c.29.11.6.16.92.14l.03.17c-1.6-.05-3.17-.2-4.74-.47l.11-.4.75.1a.15.15 0 0 0 .16-.1c.05-.15 0-.28-.18-.39l.06-.28c.06-.1.07-.22.03-.38l.05-1.03c.02-.22-.11-.37-.39-.45a15.5 15.5 0 0 0-1.67-.34l-.56.05-1.05-.13a.06.06 0 0 1-.06-.04.07.07 0 0 1 .02-.06c.22-.25.5-.4.85-.46.65.37 1.31.42 1.98.17a.37.37 0 0 1 .2-.02l.63.11H23a.07.07 0 0 0 .03-.05l.01-.08a.08.08 0 0 0-.05-.1l-.93-.22 3.76.34c.35.04.95-.14 1.8-.52l7.4 1.39Z" fill="#8A9FE9"/><path d="M20.27 12.88c.37.05.73.12 1.08.2.33.07.57-.02.72-.27l.93.23a.08.08 0 0 1 .05.09l-.01.08c0 .02-.02.03-.03.04a.07.07 0 0 1-.05.01l-.62-.11a.37.37 0 0 0-.21.02c-.67.25-1.33.2-1.98-.17l.12-.12Z" fill="#CCBFF1"/><path d="m24.74 13.69.76.14a.2.2 0 0 1 .13.08.2.2 0 0 1 .03.16l-.01.06a.14.14 0 0 1-.06.1.14.14 0 0 1-.1.02l-2.08-.4a.17.17 0 0 1-.14-.17v-.49a.11.11 0 0 1 .14-.1l.95.23c.09.02.17.08.21.15l.02.07c0 .03.02.07.05.1a.2.2 0 0 0 .1.05ZM28.1 14.15l-.56-.1c-.6.02-1-.17-1.23-.58a.1.1 0 0 1 0-.1.1.1 0 0 1 .1-.03l2.13.4a.08.08 0 0 1 .03.16l-.47.25Z" fill="#F4DFF7"/><path d="m20.39 13.69.57-.05c.03.26.2.41.51.46.53.08 1.04.2 1.54.33l-.05 1.03c-1.22-.15-1.86-1.03-3.14-.6a.17.17 0 0 1-.14-.01l-.54-.31a.15.15 0 0 0-.22.09.69.69 0 0 0-.02.23.19.19 0 0 0 .15.17c.5.08 1.14.24 1.93.48.62.18 1.3.24 1.95.33l-.06.28-2.46-.35a.03.03 0 0 0-.03.02l-.05.08a.06.06 0 0 0 0 .06l.02.03h.03l.94.1c.1.02.2.06.27.13.17.14.35.25.55.32l-.11.4-1.24-.15-1.78-.14a.1.1 0 0 0-.08.03.1.1 0 0 0-.03.08v2.39c-.11 0-.2-.02-.3-.06l-.06-3.04v-2.2c.41-.12.96-.1 1.66.09l.1-.01c.09-.05.12-.12.09-.21Z" fill="#ABB2E4"/><path d="M23.01 14.43a14.1 14.1 0 0 0-1.54-.33c-.3-.05-.48-.2-.51-.46.56.08 1.11.2 1.66.34.28.08.4.22.4.45Z" fill="#CCBFF1"/><path d="M18.54 13.82v2.2l-.78-.05a.15.15 0 0 0-.16.15l.01 1.99-.74-.1a.17.17 0 0 0-.2.18c0 .7.08 1.37.28 2.01.5 1.65.75 3.4.95 5.12l-2-.07-.04-9.12c.73-.77 1.62-1.53 2.68-2.3Z" fill="#E8BDF3"/><path d="M29.62 13.91c.34.4.72.48 1.12.24l2.46.44a6.9 6.9 0 0 0 2.14.99.16.16 0 0 0 .13-.14l.04-.35a.17.17 0 0 1 .15-.15l.45-.03.17 6.02-2.47-.13c-.2.02-.33-.02-.4-.13a.15.15 0 0 1-.03-.09 12.5 12.5 0 0 0-.56-3.65l-.02-.18c.13-.15.11-.31-.06-.48a.29.29 0 0 0-.18-.09.28.28 0 0 0-.2.06c-.18.15-.23.3-.13.45-.46.32-.53.83-.68 1.3l-4.78-.6-.03-.18c.15-.03.23-.02.26.03l2.15.24 2.15.1c.04 0 .07 0 .1-.02a.14.14 0 0 0 .05-.08c.06-.27.06-.54 0-.83.14-.4-.08-.52-.04-.83a.58.58 0 0 1 .03-.14.28.28 0 0 0-.16-.4 5.66 5.66 0 0 0-1.87-.25.13.13 0 0 0-.1.04.13.13 0 0 0-.03.1v.8a.06.06 0 0 1-.05.06h-.03a.06.06 0 0 1-.03-.04v-.02l-.08-.9a.38.38 0 0 0-.34-.35l-1.35-.15a.28.28 0 0 0-.3.28v2.01a.1.1 0 0 1-.03.06.1.1 0 0 1-.06.04h-.08l-.04-2.6c.23-.05.45-.15.65-.31l.56.1c.53.13 1.04.05 1.52-.24Z" fill="#CCBFF1"/><path d="m35.04 14.02.86.17a.16.16 0 0 1 .13.13l.08.6-.45.02a.17.17 0 0 0-.15.15l-.04.35a.16.16 0 0 1-.2.13 6.9 6.9 0 0 1-2.07-.98l1.46.07a.1.1 0 0 0 .05-.18c-.07-.04-.1-.09-.1-.14 0-.03 0-.06.02-.08a.11.11 0 0 1 .07-.04.5.5 0 0 0 .34-.2Z" fill="#F4DFF7"/><path d="m26.9 14.37.03 2.6c.07.05.1.14.07.27-.03-.05-.11-.06-.26-.03-.33.02-.63-.03-.91-.13a.23.23 0 0 1-.15-.21v-2.4a.17.17 0 0 1 .15-.17c.35-.05.7-.03 1.07.07Z" fill="#D7FBFC"/><path d="M24.77 14.87c.24.07.44.05.6-.04a.1.1 0 0 1 .13.03l.02.08c0 .02 0 .05-.02.07-.15.18-.92-.04-1.58-.18a.07.07 0 0 1-.03-.12.07.07 0 0 1 .04-.01l.49.01a.26.26 0 0 0 .23-.13l.02-.08c0-.03.02-.06.05-.08a.13.13 0 0 1 .09-.02l.58.06a.07.07 0 0 1 .05.05v.11a.08.08 0 0 1-.06.06h-.03c-.2-.02-.4 0-.59.08a.07.07 0 0 0-.03.06v.03l.04.02ZM22.96 15.46c.04.16.03.28-.03.38-.66-.1-1.33-.15-1.95-.33-.79-.24-1.43-.4-1.93-.48a.19.19 0 0 1-.15-.17c-.01-.07 0-.15.02-.23a.15.15 0 0 1 .22-.1l.54.32.07.02h.07c1.28-.44 1.92.44 3.14.6Z" fill="#CCBFF1"/><path d="m31.45 16.65-2-.3a.11.11 0 0 0-.13.1l-.17 1.03-2.15-.24c.02-.13 0-.22-.07-.28h.08a.1.1 0 0 0 .06-.04.1.1 0 0 0 .02-.06v-2a.28.28 0 0 1 .2-.27.28.28 0 0 1 .11-.02l1.35.15a.38.38 0 0 1 .34.34l.07.91a.06.06 0 0 0 .02.04.06.06 0 0 0 .05.02.06.06 0 0 0 .05-.07v-.8c0-.03.01-.07.04-.09a.13.13 0 0 1 .09-.04c.64-.02 1.27.06 1.87.24a.28.28 0 0 1 .16.41l-.03.14c-.04.3.18.44.04.83Z" fill="#B8D6F8"/><path d="M33.15 15.38c-.1.22-.32.2-.7-.03-.32-.2-.46-.35-.43-.44.04-.09.24-.09.62 0 .43.1.6.26.5.47Z" fill="#F4DFF7"/><path d="M42.3 18.82a16.2 16.2 0 0 1 2.6 7.3 290.6 290.6 0 0 1-2.7-4c-.75-1.15-1.06-2.14-1.6-3.25-.71-1.42-2.56-1.73-4.04-1.56l.02-2.24c.63.27 1.24.6 1.83 1 1.27.86 2.57 1.78 3.89 2.75Z" fill="#6E7FC3"/><path d="M22.87 16.12c.17.11.23.24.18.39a.15.15 0 0 1-.16.1l-.75-.1c-.2-.07-.38-.18-.55-.32a.5.5 0 0 0-.27-.12l-.94-.1a.07.07 0 0 1-.05-.04.06.06 0 0 1 0-.06l.05-.08a.03.03 0 0 1 .03-.02l2.46.35Z" fill="#F4DFF7"/><path d="m18.54 16.02.07 3.04-.06.39a.14.14 0 0 1-.15.12 1.66 1.66 0 0 1-.62-.16.28.28 0 0 1-.16-.24V18.1l-.02-2a.15.15 0 0 1 .16-.14l.78.05Z" fill="#fff"/><path d="m15.86 16.13.05 9.12.03 1.46c0 .04.01.07.04.1.02.01.05.03.08.03l.5.02c.23.28.54.52.9.72a.24.24 0 0 1-.06.45l-.09.02-3.56-.16a.56.56 0 0 1-.53-.46c-.12-.71-.18-1.45-.18-2.21 0-1.6-.04-3.27-.1-5.02.69-1.47 1.66-2.82 2.92-4.07Z" fill="#0C1856"/><path d="M31.45 16.65c.06.29.06.56 0 .83 0 .03-.03.06-.05.08a.15.15 0 0 1-.1.03l-2.15-.11.17-1.04a.11.11 0 0 1 .13-.09l2 .3Z" fill="#D7FBFC"/><path d="M17.03 17.13c.22 0 .4-.12.4-.29 0-.16-.17-.3-.4-.3-.21 0-.4.12-.4.29 0 .16.17.3.4.3ZM20.79 16.76c.57.53.76 1.52.57 2.97a.58.58 0 0 1-.4.48c-.8.23-1.49.12-2.1-.34.07-.34.07-.6.03-.75v-2.39a.1.1 0 0 1 .04-.08.1.1 0 0 1 .08-.03l1.78.14Z" fill="#fff"/><path d="m32.8 16.75.02.18-.74-.02a.06.06 0 0 0-.06.05v.07a.04.04 0 0 0 .03.05l.86.11c.31 1.1.47 2.23.47 3.4 0 .02 0 .05.03.08.08.1.21.15.4.13-.18.44-.45.63-.8.57-.37-.73-.88-1.3-1.54-1.74l.08-1.64c.15-.47.22-.98.68-1.3l.57.06Z" fill="#E8BDF3"/><path d="M22.03 16.9c-.08.3-.03.56.13.78.15.2.38.3.7.33.7.05 1.4.17 2.08.37.07.02.25.04.55.07.25.03.4.1.5.24-.34.05-.61.15-.83.3-.49.35-.97.7-1.45 1.07l-.42.4a3.2 3.2 0 0 0-1.3-.58.2.2 0 0 0-.25.18l-.19 1.88v.01l-.03.02h-.02l-.01-.01c-.68-.74-1.52-.91-2.53-.52l-.1-1.57c.61.46 1.3.57 2.1.34a.57.57 0 0 0 .4-.48c.19-1.45 0-2.44-.57-2.97l1.24.15Z" fill="#D7FBFC"/><path d="m26.77 17.38 4.78.61-.08 1.64a7.29 7.29 0 0 0-4.43-1.04c-.43-.03-.78 0-1.06.1-.08-.13-.24-.21-.49-.24-.3-.03-.48-.05-.55-.07-.68-.2-1.37-.32-2.08-.37-.32-.02-.55-.13-.7-.33a.87.87 0 0 1-.13-.77c1.57.26 3.15.42 4.74.47ZM34.6 17.24l-.95-.1a.11.11 0 0 1-.1-.1.11.11 0 0 1 .1-.11c.43-.04.85-.02 1.25.05a.19.19 0 0 1 .15.18c.04 1 .04 1.6.02 1.81-.03.29-.16.33-.38.14a.2.2 0 0 1-.05-.07l-.35-.8a.4.4 0 0 0-.12-.16.53.53 0 0 0-.36-.11.22.22 0 0 1-.22-.22v-.16c0-.05.02-.1.05-.13a.19.19 0 0 1 .13-.06h.79l.04-.01a.06.06 0 0 0 .02-.04v-.08a.03.03 0 0 0-.03-.03Z" fill="#F4DFF7"/><path d="M44.9 26.12c.38 3.53-.26 6.85-1.93 9.95-1.49.24-3.22.3-5.2.19-.94-.05-1.61-.27-2-.63a3.87 3.87 0 0 0-.89-2.02.4.4 0 0 0-.17-.12l-3.93-1.4c-.04.06-.14.1-.29.1a.96.96 0 0 0-.39-.49c0-.3-.08-.5-.24-.57.2-.11.48-.18.84-.19a3.68 3.68 0 0 0 1.32-2.16l.14-.04c0 .06.02.09.06.1 1.56.2 3.06.15 4.51-.15.06 1.03.19 2.03.39 3.02.2.95.63 1.75 1.3 2.4.52.51 1.3.49 1.73-.12.94-1.31.83-3.6.77-5.35-.06-1.56-.3-3.92-.71-7.08a4.4 4.4 0 0 0-.86-2.13.46.46 0 0 0-.65-.08c-.43.36-.74.83-.95 1.42-.31.93-.68 1.86-1.09 2.8l-.1-6.26c1.48-.17 3.33.14 4.03 1.56.55 1.1.86 2.1 1.61 3.25a291.2 291.2 0 0 0 2.7 4Z" fill="#8A9FE9"/><path d="m17.61 18.1.01 1.07a.27.27 0 0 0 .16.24c.18.1.39.14.62.16a.14.14 0 0 0 .15-.12l.06-.4c.09.05.18.07.28.07.04.16.04.41-.02.75l.1 1.57-.06 1.16c0 .05 0 .09.03.12s.07.05.11.06c1.2.18 2.41.25 3.61.2l.07.73c-.4.57-.43 1.22-.12 1.96l-4.71-.35c-.2-1.71-.44-3.47-.95-5.12a6.46 6.46 0 0 1-.26-2.08.17.17 0 0 1 .18-.1l.74.09Z" fill="#F4DFF7"/><path d="M27.04 18.6a4.5 4.5 0 0 0-1.96 1.3.11.11 0 0 0 .04.13l.35.25a4.26 4.26 0 0 0-1.73.04l-.03-.26c.48-.37.96-.72 1.45-1.06.22-.16.5-.26.82-.3.28-.1.63-.14 1.06-.1Z" fill="#415195"/><path d="M31.47 19.63c.66.44 1.17 1.01 1.55 1.74.43.8.6 1.6.51 2.4-.01.11-.1.18-.28.2l-.17-.12a.2.2 0 0 1-.08-.14.87.87 0 0 0-.24-.5l-.73-.95c0-.08.02-.17.04-.25l.7.04a.12.12 0 0 0 .13-.1.12.12 0 0 0-.09-.13l-3.48-.99a5.88 5.88 0 0 0-2.76-.09.33.33 0 0 1-.2-.03l-.9-.43-.35-.25a.11.11 0 0 1-.04-.08.11.11 0 0 1 .02-.08 4.5 4.5 0 0 1 1.94-1.28c1.47-.15 2.95.2 4.43 1.04Z" fill="#29376F"/><path d="m36.73 28.7-.07-5.12c.41-.95.78-1.88 1.1-2.8.2-.6.51-1.07.94-1.43a.45.45 0 0 1 .65.08c.46.6.75 1.32.86 2.13.41 3.16.65 5.52.7 7.08.07 1.75.18 4.04-.76 5.35-.43.61-1.2.63-1.74.12a4.51 4.51 0 0 1-1.29-2.4 20.5 20.5 0 0 1-.39-3.02Z" fill="#9CB5F3"/><path d="M23.29 20.47c-.39.69-.6 1.53-.63 2.5-1.2.06-2.4 0-3.61-.2a.17.17 0 0 1-.1-.05.17.17 0 0 1-.04-.12l.05-1.16c1-.4 1.85-.22 2.53.52h.05v-.02l.2-1.88a.2.2 0 0 1 .24-.18c.45.09.89.28 1.3.59Z" fill="#fff"/><path d="m23.7 20.06.04.26c-.6.52-.64 1.96-.59 2.68 0 .07 0 .13-.03.2-.08.2-.2.37-.39.5l-.07-.72c.03-.98.24-1.82.63-2.51l.42-.41Z" fill="#ABB2E4"/><path d="m25.47 20.28.9.43c.06.03.13.04.2.03a5.88 5.88 0 0 1 2.76.09l3.48 1a.12.12 0 0 1-.04.22l-.7-.04c-.17-.33-.45-.44-.84-.33a.17.17 0 0 0-.12.14c-.02.15 0 .31.05.48-.05.17-.04.3.03.38.08.08.17.08.27 0a.48.48 0 0 0 .16-.27c.22.06.36 0 .41-.15l.73.94c0 .1-.03.19-.08.28-.73-.11-1.45-.25-2.16-.4-.89-.18-1.5-.2-2.4-.18a.3.3 0 0 1-.3-.27 2.24 2.24 0 0 0-.44-1.05h-.03a.06.06 0 0 0-.04 0l-.01.01a.07.07 0 0 0-.03.04l.01.05c.3.48.45 1 .47 1.58-.66-.1-1.01.14-1.05.72-.06.91.02 1.86.24 2.85a.5.5 0 0 0 .4.38l2.91.52c-.06.14.02.33.25.55a1.4 1.4 0 0 0-.14.5 7.66 7.66 0 0 1-3.12-.87c-.67-.42-1.37-.76-2.11-1.04a2.24 2.24 0 0 0-1.7-.04l-.82-1.16c-.31-.74-.27-1.4.12-1.96.18-.14.31-.31.4-.52a.43.43 0 0 0 .02-.19c-.05-.72-.01-2.16.6-2.68a4.26 4.26 0 0 1 1.72-.04Z" fill="#182578"/><path d="M12.93 20.2c.07 1.75.1 3.42.1 5.02.01.76.07 1.5.2 2.2a.56.56 0 0 0 .52.47l3.56.16 4.8.26c.14.28.2.56.2.84a.07.07 0 0 1-.06.06.07.07 0 0 1-.07-.02 1.56 1.56 0 0 1-.3-.64.08.08 0 0 0-.06-.06.08.08 0 0 0-.08.04c-.15.23-.16.39-.04.47a.2.2 0 0 1 .09.22.88.88 0 0 0 0 .4l-.77 1.96a9.81 9.81 0 0 1-3.76-.53c-.18-.07-.37-.1-.57-.12-.79-.06-2.16-.07-2.54-.86-.22-.46-.6-.96-1.22-.9-.4.03-1 .14-1.82.32a.82.82 0 0 0-.04-.02c.97-.74 1.11-1.46 1.08-2.74-.03-1.15 0-2.3.07-3.44.02-.31-.04-.69-.17-1.13l.88-1.96Z" fill="#9CB5F3"/><path d="m36.28 20.93.02 5.66c0 .06 0 .13.02.2.06.27.09.57.08.9a.2.2 0 0 1-.2.19l-1.73-.02c-.06-.28-.06-.56.02-.82a.22.22 0 0 1 .21-.16l1.39.06h.03l.01-.02.03-.05a.09.09 0 0 0 0-.09.09.09 0 0 0-.06-.04l-2.54-.27c-.04 0-.08 0-.12.02a.2.2 0 0 0-.09.09l-.21.37a.12.12 0 0 1-.22-.08c.1-.7.22-1.42.37-2.16a.64.64 0 0 0-.06-.48.61.61 0 0 0 .02-.26c.17-.02.27-.09.28-.2.09-.8-.08-1.6-.51-2.4.34.06.6-.13.8-.57l2.46.13Z" fill="#F4DFF7"/><path d="M32.68 23.48c.07.09.15.16.25.21a.09.09 0 0 1-.04.16c-.55.03-1.09.02-1.63-.07-1.18-.2-2.35-.37-3.51-.52a3.06 3.06 0 0 0-.47-1.58.06.06 0 0 1 0-.05c0-.02 0-.03.02-.04a.06.06 0 0 1 .05-.02.06.06 0 0 1 .05.03c.23.32.37.66.42 1.03a.3.3 0 0 0 .3.27c.9-.02 1.51 0 2.4.18.7.15 1.43.29 2.16.4Z" fill="#415195"/><path d="M32.07 22a.85.85 0 0 0-.04.26c-.05.15-.19.2-.41.15-.07-.14-.1-.3-.12-.47a.09.09 0 0 0-.09-.07h-.06a.08.08 0 0 0-.08.05v.04c.02.18-.02.3-.11.34a1.19 1.19 0 0 1-.05-.48.17.17 0 0 1 .12-.14c.39-.1.67 0 .84.33Z" fill="#ABB2E4"/><path d="M31.62 22.41a.48.48 0 0 1-.16.27c-.1.08-.2.08-.27 0s-.08-.2-.03-.38c.1-.04.13-.16.1-.34a.08.08 0 0 1 .02-.07.08.08 0 0 1 .07-.02h.06a.09.09 0 0 1 .09.07c.01.18.05.33.12.47Z" fill="#5B6AB0"/><path d="M12.05 22.16c.13.44.2.82.17 1.13-.07 1.15-.1 2.3-.07 3.44.03 1.28-.1 2-1.08 2.74-.23-2.51.1-4.95.98-7.3Z" fill="#B8D6F8"/><path d="M33.25 23.97c0 .1 0 .19-.02.26l-.54 2.85c-.03.15-.13.4-.3.75l-2.14-.1-2.91-.52a.5.5 0 0 1-.4-.38c-.22-.99-.3-1.94-.24-2.85.04-.58.39-.82 1.05-.72 1.16.15 2.33.33 3.51.52a7.9 7.9 0 0 0 1.68.05.09.09 0 0 0-.01-.14.96.96 0 0 1-.25-.2c.05-.1.07-.2.08-.29.14.15.22.32.24.51a.2.2 0 0 0 .08.14l.17.12Z" fill="#D7FBFC"/><path d="M33.23 24.23c.08.14.1.3.06.48-.15.74-.27 1.46-.37 2.16a.12.12 0 0 0 .16.13.12.12 0 0 0 .06-.05l.21-.37a.21.21 0 0 1 .21-.1l2.54.26a.09.09 0 0 1 .07.04.09.09 0 0 1 0 .09l-.04.05-.01.02h-.03l-1.39-.06a.22.22 0 0 0-.21.16c-.08.26-.08.54-.02.82l-1.75-.05-.33.02c.17-.35.27-.6.3-.75l.54-2.85ZM17.9 25.32l4.71.35.82 1.16c.12.18.17.3.16.37l-7.03-.34-.5-.02a.12.12 0 0 1-.08-.04.13.13 0 0 1-.04-.09l-.03-1.46 1.99.07Z" fill="#B8D6F8"/><path d="M30.36 28.79c-.2.8-.09 1.53.34 2.15-.36.01-.64.08-.84.2a2.3 2.3 0 0 1-.03.05c-.12-.03-.22-.03-.3.02a.14.14 0 0 0-.06-.1h-.08a1.1 1.1 0 0 0-.4.48v.06c0 .01 0 .03.02.04.03.03.07.05.12.05l-.14.29c-.1-.14-.2-.22-.29-.24-.09-.02-.18.05-.27.2-.43.7-1.07.98-1.92.82-.1-.11-.2-.12-.3-.03a.18.18 0 0 0-.07.15c.02.3.13.6.3.92a.22.22 0 0 1-.27.3 3.06 3.06 0 0 0-1-.24.1.1 0 0 0-.04.03c-.05.05-.07.1-.05.14 0 .01 0 .02.02.03l.03.02c.65.12 1.05.39 1.2.81a3.16 3.16 0 0 1-1.53-1.12c-.32-.5-.66-1-1.02-1.49.04-.34.25-.62.64-.84.37-.2.45-.47.26-.81l.06-.34c0-.13 0-.24.04-.34.02-.07.06-.1.1-.1.05 0 .1 0 .16-.04a.15.15 0 0 0 .07-.1.14.14 0 0 0-.03-.11c-.13-.16-.16-.4-.1-.7.06-.27-.08-.52-.36-.55-.16-.52-.5-.92-1.03-1.2.01-.07-.04-.19-.16-.37.5-.2 1.07-.2 1.7.04.74.28 1.44.62 2.11 1.04.7.43 1.73.72 3.12.88Z" fill="#0C1856"/><path d="M23.6 27.2c.52.28.86.68 1.02 1.2l-1.8-.04c-.26-.07-.5-.08-.71-.05l-4.8-.26.1-.02a.24.24 0 0 0 .05-.45 2.9 2.9 0 0 1-.9-.72l7.03.34Z" fill="#182578"/><path d="m32.39 27.83.33-.02c-.33.27-.16.66-.56.93l-.14.04-1.52-.5c-.23-.22-.3-.4-.25-.55l2.14.1Z" fill="#415195"/><path d="M22.82 28.36c-.01.39-.17.75-.11 1.12.1.69.06 1.44-.47 1.96-.21.2-.4.28-.6.22.3-.45.49-.97.57-1.56a.23.23 0 0 0-.06-.2c-.11-.12-.23-.2-.37-.27a.88.88 0 0 1 .01-.41.2.2 0 0 0-.09-.22c-.12-.08-.1-.24.04-.47a.08.08 0 0 1 .14.02c.07.27.17.48.3.64a.07.07 0 0 0 .1 0l.02-.04c.02-.28-.05-.56-.19-.84.21-.03.45-.02.7.05Z" fill="#6E7FC3"/><path d="M32.02 28.78c-.2.92-.65 1.64-1.32 2.16a2.55 2.55 0 0 1-.34-2.15c.01-.18.06-.35.14-.5l1.52.5Z" fill="#29376F"/><path d="M24.63 28.4c.27.03.4.28.35.55-.06.3-.03.54.1.7a.14.14 0 0 1 .03.11.14.14 0 0 1-.07.1.27.27 0 0 1-.15.04c-.05 0-.09.03-.1.1-.04.1-.06.21-.05.34-.02-.1-.06-.17-.12-.2a.1.1 0 0 0-.13.05c-.28.7-.85 1.1-1.7 1.16a.08.08 0 0 0-.05.03.08.08 0 0 0-.01.06.1.1 0 0 0 .08.09.1.1 0 0 0 .04 0c.27-.08.55-.07.84.04-.07.17-.14.26-.2.28-1.16.32-2.33.6-3.5.84-.27.06-.6-.01-.83.05a9.3 9.3 0 0 0-2.1.85c-.05-.04-.07-.04-.07 0-.08-.14-.06-.24.07-.32.28-.18.59-.36.92-.54.31-.04.63-.16.95-.33.24-.13.42-.09.55.13l.02.02h.05a.02.02 0 0 0 .02 0v-.03l-.15-.2a.3.3 0 0 0-.17-.11l-.78-.17-1.13-.37a.19.19 0 0 0-.1 0 .87.87 0 0 1-.58-.1.16.16 0 0 1-.04-.03.87.87 0 0 0-.67-.26c-1.14-.12-2.12-.24-2.42-1.52a.38.38 0 0 0-.37-.3l-2.05.03c.81-.18 1.42-.29 1.82-.32.62-.06 1 .44 1.22.9.38.8 1.75.8 2.54.86.2.01.39.05.57.12 1.21.42 2.46.6 3.76.53-.07.2.14.23.63.08.18.06.38-.01.6-.22.52-.52.57-1.27.46-1.96-.06-.37.1-.73.1-1.12l1.82.04Z" fill="#8A9FE9"/><path d="m11.1 29.49 2.06-.02a.38.38 0 0 1 .37.3c.3 1.27 1.28 1.4 2.42 1.5-.65.1-1.24.09-1.75-.04a7.96 7.96 0 0 0-2.92-.2l-.21-1.56.04.02Z" fill="#6E7FC3"/><path d="M21.78 29.63c.14.06.26.15.37.27a.23.23 0 0 1 .06.2c-.08.6-.27 1.11-.56 1.56-.49.15-.7.13-.63-.08l.76-1.95Z" fill="#415195"/><path d="m24.74 30.34-.06.34-1 .9a1.27 1.27 0 0 0-.83-.06.1.1 0 0 1-.12-.07.08.08 0 0 1 .04-.09h.03c.84-.08 1.4-.46 1.7-1.17a.1.1 0 0 1 .05-.05.1.1 0 0 1 .07 0c.06.03.1.1.12.2Z" fill="#9CB5F3"/><path d="M24.68 30.68c.2.34.11.61-.26.81-.39.22-.6.5-.64.84-2.2.72-4.44 1.14-6.72 1.26a9.3 9.3 0 0 1 2.1-.85c.22-.06.56 0 .82-.05 1.18-.24 2.34-.52 3.5-.84.07-.02.14-.1.2-.28l1-.9Z" fill="#29376F"/><path d="M15.95 31.28c.27-.01.5.08.67.26l.04.03c.22.1.4.14.58.1h.1l1.13.37c-.45.1-.8.13-1.06.1a46.84 46.84 0 0 0-5.98-.42l-.15-.69c.9-.12 1.87-.05 2.92.2.51.13 1.1.14 1.75.05Z" fill="#5B6AB0"/><path d="M29.53 31.21a1 1 0 0 1-.4.53.19.19 0 0 1-.12-.05.1.1 0 0 1-.03-.04l.01-.06c.09-.19.22-.35.4-.47l.04-.01h.04c.03.03.05.06.06.1Z" fill="#415195"/><path d="M29.83 31.19c-.09.25-.21.5-.37.73-.11.16-.07.26.13.28-.21.1-.32.24-.33.42 0 .84.1 1.82.33 2.74a29.3 29.3 0 0 1 .76 4.11.07.07 0 0 0 .1.02l1.03-.54.35 1.38a.05.05 0 0 0 .05.04.05.05 0 0 0 .05-.04c.35-1.26.37-2.56.07-3.9l-.2-.85c-.4-1.04-.9-2.05-1.52-3.04-.14-.22-.2-.5-.18-.84.16.1.3.26.4.5l1.16 2c.5 1.16.84 2.38 1.02 3.66l.03.91c-.1.1-.13.29-.12.57-.43 1.83-.62 3.3-.06 5.05l-.65.17c-.88-1.31-1.99-2.63-2.72-3.82a26.97 26.97 0 0 0-1.76-2.56c-.35-.45-.83-.8-1.42-1.05a43.13 43.13 0 0 0-4-1.49c-.72-.22-1.8-.43-3.22-.64a5.47 5.47 0 0 1-2.22-1.1c.07-.12.22-.23.45-.32 0-.03.02-.03.07 0 2.28-.11 4.52-.53 6.72-1.25.36.49.7.98 1.02 1.49.3.46.81.83 1.54 1.12l-.9.6a.11.11 0 0 0-.05.07v.08a2 2 0 0 0 1.08.9c.8.27 1.43.77 1.93 1.49.29.42.75 1.21 1.38 2.36a.1.1 0 0 0 .13.04.1.1 0 0 0 .05-.12l-.29-.95c-.11-.8-.23-1.56-.35-2.26-.18-1-.48-1.9-.65-2.97a.66.66 0 0 0-.47-.56.19.19 0 0 1-.08-.05c-.11-.12-.09-.24.08-.35.18-.45.44-.84.79-1.2l.14-.28a1 1 0 0 0 .4-.53c.08-.05.18-.05.3-.02Z" fill="#141A38"/><path d="M29.86 31.13c.16.08.24.27.24.57-.02.34.04.62.18.84.61.99 1.12 2 1.53 3.04-.46-.1-.86-.64-1.2-1.6l-1.02-1.78c-.2-.02-.24-.12-.13-.28a3.2 3.2 0 0 0 .4-.79Z" fill="#B8D6F8"/><path d="m18.47 32.04.78.17a.3.3 0 0 1 .17.11l.15.2a.02.02 0 0 1 0 .03h-.07l-.02-.02c-.13-.22-.31-.26-.55-.13-.32.17-.64.29-.95.33a1.9 1.9 0 0 0-1.08-.36c-1.8-.07-3.61-.2-5.42-.4l-.05-.25c2 0 4 .15 5.98.42.26.03.61 0 1.06-.1ZM28.99 32.03c-.35.35-.6.74-.79 1.19-.32-.12-.6.03-.82.46a.15.15 0 0 1-.16.08l-.22-.04c0-.08-.08-.13-.24-.13a.1.1 0 0 1-.09-.04.1.1 0 0 1 0-.1c.05-.16 0-.37-.16-.64.85.16 1.5-.12 1.92-.81.09-.16.18-.23.27-.2.1.01.2.1.29.23Z" fill="#415195"/><path d="M17.98 32.73c-.33.18-.64.36-.92.54-.13.08-.15.18-.07.31-.23.1-.38.2-.45.32-.24.3-.38.66-.44 1.05-.2 1.43-.43 2.9-.7 4.45a16.51 16.51 0 0 1-3.92-7.43c1.8.2 3.61.33 5.42.4.4.01.77.13 1.08.36Z" fill="#29376F"/><path d="m30.78 32.1 1.27 1.67a.47.47 0 0 0 .42.19c.83-.08 1.66.02 2.5.29.06.02.12.07.16.13.06.1.08.23.06.36-.17.1-.33.21-.47.35-.42.42-.87.6-1.33.9a.14.14 0 0 1-.1.02.15.15 0 0 1-.09-.04c-.3-.31-.53-.67-.69-1.1.09.01.12 0 .1-.05a.9.9 0 0 0-.95-.62l-1.17-2c.15-.02.25-.05.3-.1Z" fill="#6E7FC3"/><path d="m30.78 32.1 3.93 1.4a.4.4 0 0 1 .17.11c.48.55.77 1.22.89 2.02.01-.1-.03-.05-.12.19l-.53-.59.07-.5a.55.55 0 0 0-.06-.35.29.29 0 0 0-.17-.13 6.18 6.18 0 0 0-2.49-.3.47.47 0 0 1-.42-.18l-1.27-1.68Z" fill="#415195"/><path d="M30.61 33.98c-.2.05-.36.01-.48-.13a.09.09 0 0 0-.12-.02.09.09 0 0 0-.02.12 17.19 17.19 0 0 1 1.49 5l-1.04.54a.07.07 0 0 1-.09-.02v-.03c-.16-1.36-.41-2.73-.76-4.08-.24-.92-.33-1.9-.33-2.74 0-.18.12-.32.33-.42l1.02 1.78ZM26.5 32.81c.17.27.22.48.16.65a.1.1 0 0 0 .05.12.1.1 0 0 0 .05.01c.16 0 .24.05.24.13-.17.04-.25.14-.26.31 0 .05.01.1.04.14a27.64 27.64 0 0 1 1.87 3.64c.1.26.45.8 1.02 1.6l.3.95a.1.1 0 0 1-.19.08 34.38 34.38 0 0 0-1.38-2.36 3.73 3.73 0 0 0-1.93-1.49 2 2 0 0 1-1.07-.9.11.11 0 0 1-.02-.08l.05-.07.9-.6c-.15-.42-.55-.7-1.2-.81a.08.08 0 0 1-.05-.05c-.02-.04 0-.09.05-.14a.1.1 0 0 1 .09-.03c.35.04.67.12.95.25a.22.22 0 0 0 .28-.3 2.2 2.2 0 0 1-.31-.93.19.19 0 0 1 .06-.15c.11-.1.21-.08.3.03Z" fill="#262D4A"/><path d="M28.2 33.22c-.17.1-.2.23-.08.35l.08.05c.27.1.42.28.47.56.17 1.08.47 1.98.65 2.97.12.7.24 1.46.35 2.26-.57-.8-.91-1.34-1.02-1.6a27.64 27.64 0 0 0-1.87-3.64.25.25 0 0 1-.04-.14c0-.17.1-.27.26-.3l.22.03a.15.15 0 0 0 .16-.08c.23-.43.5-.58.82-.46Z" fill="#6E7FC3"/><path d="M30.61 33.98c.34.96.74 1.5 1.2 1.6l.2.85a4.53 4.53 0 0 0-.15 1.53.87.87 0 0 1-.23.68c-.05.05-.12.03-.22-.08a17.19 17.19 0 0 0-1.43-4.67.09.09 0 0 1 .15-.04c.12.14.28.18.48.13Z" fill="#ABB2E4"/><path d="M31.88 44.56c-5.9 1.34-11.7-.4-15.95-4.57a4.31 4.31 0 0 1-.53-.6c.27-1.53.5-3.01.7-4.44.06-.4.2-.74.44-1.05.89.65 1.63 1.02 2.22 1.1 1.42.2 2.5.42 3.22.64 1.18.37 2.5.86 4 1.5.6.24 1.07.6 1.42 1.04.54.68 1.12 1.53 1.76 2.56.73 1.2 1.84 2.5 2.72 3.82Z" fill="#040823"/><path d="m32.51 34.88-.12-.04a.08.08 0 0 0-.09.02.09.09 0 0 0-.02.09c.18.48.35.96.5 1.44.2.63.17 1.12-.1 1.47-.18-1.28-.52-2.5-1.02-3.66a.9.9 0 0 1 .95.61c.02.05-.01.07-.1.07Z" fill="#8A9FE9"/><path d="m35.19 34.74-.07.49a5.66 5.66 0 0 0-1.3 2.33.13.13 0 0 1-.15.04c-.2-.07-.37-.07-.5 0-.1.04-.17.2-.21.48-.04.27-.13.5-.25.7l-.03-.92c.27-.35.3-.84.1-1.47a36.6 36.6 0 0 0-.5-1.49l.02-.04a.08.08 0 0 1 .09-.02l.12.04c.16.41.39.78.7 1.09.01.02.05.04.08.04s.07 0 .1-.02c.46-.3.9-.48 1.32-.9.15-.14.3-.26.48-.35Z" fill="#5B6AB0"/><path d="m35.12 35.23.53.59c.05.35.14.6.28.75l.1.64h-.47a.26.26 0 0 0-.22.1c-.5.75-1.58 2.9-2.75 2.03-.01-.28.03-.47.12-.57.12-.2.2-.42.25-.69.04-.27.11-.44.2-.48.14-.07.3-.07.51 0a.13.13 0 0 0 .15-.04 5.66 5.66 0 0 1 1.3-2.33Z" fill="#29376F"/><path d="m42.97 36.07-.49.82c-1.72.33-3.4.4-5.06.24-.2-.02-.4-.07-.59-.16l-.9-.4c-.14-.15-.23-.4-.28-.75.1-.24.13-.3.12-.2.39.37 1.06.59 2 .64 1.98.11 3.72.05 5.2-.2ZM32 36.43a7.87 7.87 0 0 1-.09 3.93.05.05 0 0 1-.06 0l-.02-.03-.35-1.38a.73.73 0 0 1-.07-.39c.1.1.17.13.22.08.18-.2.25-.42.23-.68-.04-.5 0-1 .14-1.53Z" fill="#6E7FC3"/><path d="m42.48 36.89-1.3 1.85a18.7 18.7 0 0 1-3.03-.22c-.74-.14-1.9-.37-2.1-1.07l-.03-.24-.09-.64.9.4c.19.09.39.14.6.16 1.65.17 3.33.09 5.05-.24Z" fill="#5B6AB0"/><path d="m36.02 37.21.04.24-.04.36v.1l.44 3.34c0 .07.04.13.1.17.05.05.11.07.18.06.43-.03.9.02 1.42.15l-1.88 1.23c-.24-1.48-.36-3.1-.92-4.45a.22.22 0 0 0-.4-.02c-.26.52-.45.96-.55 1.31a42.22 42.22 0 0 0-1.05 4.44l-.83.25c-.56-1.76-.37-3.22.06-5.05 1.17.87 2.25-1.28 2.75-2.02a.26.26 0 0 1 .22-.12l.46.01Z" fill="#262D4A"/><path d="M41.19 38.74a15.69 15.69 0 0 1-3.03 2.89 4.46 4.46 0 0 0-1.42-.15.27.27 0 0 1-.19-.06.26.26 0 0 1-.1-.17l-.42-3.34v-.1l.03-.36c.2.7 1.35.93 2.1 1.07.7.13 1.7.2 3.03.22Z" fill="#415195"/><path d="m36.28 42.86-2.92 1.28c.27-1.52.62-3 1.05-4.44.1-.35.29-.79.55-1.3a.22.22 0 0 1 .33-.09c.03.02.06.06.07.1.56 1.34.68 2.97.92 4.45Z" fill="#040823"/></svg>