<svg width="112" height="112" viewBox="0 0 56 56" xmlns="http://www.w3.org/2000/svg"><rect fill="#F0F3FA" width="56" height="56" rx="28"/><path fill-rule="evenodd" d="M28 13a15 15 0 1 0 0 30 15 15 0 0 0 0-30Zm0-2a17 17 0 1 0 0 34 17 17 0 0 0 0-34Zm-7.73 27a2.55 2.55 0 0 1-2.2-1.39c-.3-.6-.3-1.38-.02-1.97l3.18-6.5v-.01l2.6-5.32c.17-.34.17-.36.17-.67V17h-1c-.58 0-1-.5-1-1s.39-1 .97-1H26v3h2v1h-2v1h2v1h-2v1.72c0 .17-.03.2-.09.33l-.05.12-2.1 4.25L20.05 35a.54.54 0 0 0-.05.27.8.8 0 0 0 .77.73h14.49c.56 0 .72-.44.74-.78a.62.62 0 0 0-.05-.3l-5.87-11.89c-.09-.2-.09-.2-.08-.47V15h3c.51 0 1 .5 1 1 0 .48-.47 1-1 1h-1v5.27c0 .21.05.3.15.5l.1.2a5714.64 5714.64 0 0 1 5.6 11.37c.35.71.47 1.73-.16 2.57a2.4 2.4 0 0 1-1.97 1.05c-.48 0-9.66.04-13.68.04h-1.76Zm7.12-4.17a.57.57 0 1 1 1.15 0 .57.57 0 0 1-1.15 0Zm1.7-.12a.17.17 0 1 1 .25-.24.17.17 0 0 1-.24.24Zm-2.5 0a.17.17 0 1 1 .25-.24.17.17 0 0 1-.24.24Zm3.26-.45c-.24-.23-.2-.57.06-.75a.58.58 0 0 1 .64-.02c.37.22.29.73-.08.88a.58.58 0 0 1-.44 0 .55.55 0 0 1-.18-.11Zm-4.54-.02c-.22-.22-.15-.55.1-.71a.56.56 0 0 1 .62 0c.25.18.3.5.08.73a.55.55 0 0 1-.39.16.58.58 0 0 1-.41-.18Zm2.5-.68a.17.17 0 1 1 .34 0 .17.17 0 0 1-.34 0Zm1.7-.09a.17.17 0 1 1 .23-.24.17.17 0 0 1-.24.24Zm-3.3 0a.17.17 0 0 1 .08-.28.17.17 0 0 1 .22.2.17.17 0 0 1-.3.08Zm1.6-.39a.17.17 0 0 1 .2-.17.17.17 0 1 1-.2.17Zm1.35.05a.17.17 0 1 1 .24-.24.17.17 0 0 1-.24.24Zm-2.6 0a.17.17 0 1 1 .24-.24.17.17 0 0 1-.24.24Zm4.31-.06a.17.17 0 0 1-.02-.22.17.17 0 1 1 .02.22Zm-6.08 0a.17.17 0 1 1 .24-.25.17.17 0 0 1-.24.25Zm4.03-.28a.17.17 0 1 1 .24-.24.17.17 0 0 1-.24.24Zm-1.92 0a.17.17 0 0 1-.02-.22.17.17 0 1 1 .02.22Zm.06-1.08a1.02 1.02 0 1 1 2.05 0 1.02 1.02 0 0 1-2.05 0Zm3.7-.01a.57.57 0 1 1 1.15 0 .57.57 0 0 1-1.15 0Zm-6.5 0a.57.57 0 1 1 1.14 0 .57.57 0 0 1-1.15 0Zm5.97 0a.17.17 0 0 1 .2-.16.17.17 0 0 1 .13.23.17.17 0 0 1-.33-.06Zm-.48 0a.17.17 0 1 1 .34 0 .17.17 0 0 1-.34 0Zm-.48 0a.17.17 0 1 1 .34 0 .17.17 0 0 1-.34 0Zm-2.72 0a.17.17 0 0 1 .2-.16.17.17 0 0 1 .13.23.17.17 0 0 1-.33-.06Zm-.48 0a.17.17 0 1 1 .34 0 .17.17 0 0 1-.34 0Zm-.48 0a.17.17 0 1 1 .34 0 .17.17 0 0 1-.34 0Zm3.33-.83a.17.17 0 1 1 .24-.24.17.17 0 0 1-.24.24Zm-1.92 0a.17.17 0 1 1 .24-.24.17.17 0 0 1-.24.24Zm3.97-.3a.17.17 0 1 1 .06.04.17.17 0 0 1-.06-.04Zm-6.04 0a.17.17 0 1 1 .05.04.17.17 0 0 1-.05-.04Zm4.33-.04a.17.17 0 0 1 .07-.29.17.17 0 1 1-.07.29Zm-2.6 0a.17.17 0 0 1 .07-.29.17.17 0 1 1-.07.29Zm1.25-.2a.17.17 0 0 1 .3-.11.17.17 0 1 1-.3.12Zm1.7-.14a.17.17 0 0 1 .18-.28.17.17 0 0 1 .04.29.17.17 0 0 1-.23-.01Zm-3.3 0a.17.17 0 0 1 .08-.29.17.17 0 1 1-.07.29Zm1.6-.34a.17.17 0 1 1 .34 0 .17.17 0 0 1-.34 0Zm-2.51-.01a.57.57 0 1 1 .8-.03v.01a.58.58 0 0 1-.63.13.55.55 0 0 1-.17-.11Zm4.57-.02a.56.56 0 1 1 .62.13.58.58 0 0 1-.62-.13Zm-2.06-.45a.17.17 0 0 1 .2-.17.17.17 0 1 1-.2.17Zm-.42-.95a.58.58 0 1 1 1.15 0 .58.58 0 0 1-1.15 0Zm1.7.38a.17.17 0 0 1 .08-.28.17.17 0 0 1 .22.2.17.17 0 0 1-.3.08Zm-2.5-.01a.17.17 0 0 1 .08-.29.17.17 0 0 1 .15.3.17.17 0 0 1-.22-.01ZM28 33.2a.17.17 0 1 0 0-.35.17.17 0 0 0 0 .35Z" fill="url(#a2myvsbbi)"/><defs><linearGradient id="a2myvsbbi" x1="15.4" y1="14.59" x2="40.56" y2="41.45" gradientUnits="userSpaceOnUse"><stop stop-color="#4D2FE5"/><stop offset=".53" stop-color="#D51FD5"/><stop offset="1" stop-color="#FB767C"/></linearGradient></defs></svg>