<svg width="112" height="112" viewBox="0 0 56 56" xmlns="http://www.w3.org/2000/svg"><rect fill="url(#a1lqj1mi5)" width="56" height="56" rx="28"/><path d="M33.5 15c-1.35 8.1-6.75 12.15-13.5 13.5 6.75 2.7 12.15 6.75 13.5 13.5A17.34 17.34 0 0 1 47 28.5c-6.75-1.35-12.15-5.4-13.5-13.5ZM18.5 11c-.55 3.3-2.75 4.95-5.5 5.5 2.75 1.1 4.95 2.75 5.5 5.5a7.07 7.07 0 0 1 5.5-5.5c-2.75-.55-4.95-2.2-5.5-5.5ZM22.5 34c-.55 3.3-2.75 4.95-5.5 5.5 2.75 1.1 4.95 2.75 5.5 5.5a7.07 7.07 0 0 1 5.5-5.5c-2.75-.55-4.95-2.2-5.5-5.5Z" fill="#fff"/><defs><linearGradient id="a1lqj1mi5" x1="48" y1="14" x2="12.5" y2="52" gradientUnits="userSpaceOnUse"><stop stop-color="#EB5968"/><stop offset="1" stop-color="#AB3AEB"/></linearGradient></defs></svg>