<svg width="112" height="112" viewBox="0 0 56 56" xmlns="http://www.w3.org/2000/svg"><rect fill="url(#act32g3hb)" width="56" height="56" rx="28"/><path fill-rule="evenodd" d="M28 43a15 15 0 1 0-8.7-27.23A2.5 2.5 0 0 0 15 17.5c0 .71.3 1.35.77 1.8A15 15 0 0 0 28 43ZM15.77 19.3A2.5 2.5 0 0 0 20 17.5a2.5 2.5 0 0 0-.7-1.73 15.09 15.09 0 0 0-3.53 3.54Zm6.37 2.7H33.7l1.3 3H21l1.14-3Zm0 5H33.7l1.3 3H21l1.14-3Zm11.56 5H22.14L21 35h14l-1.3-3Zm6.8 11a2.5 2.5 0 1 0 0-5 2.5 2.5 0 0 0 0 5Z" fill="#00FFE0"/><defs><linearGradient id="act32g3hb" x1="10.42" y1="9.71" x2="68.15" y2="76.02" gradientUnits="userSpaceOnUse"><stop stop-color="#1A1E21"/><stop offset="1" stop-color="#06060A"/></linearGradient></defs></svg>