<svg width="112" height="112" viewBox="0 0 56 56" xmlns="http://www.w3.org/2000/svg"><rect fill="#F6861A" width="56" height="56" rx="28"/><path d="M21.98 37.7c-.18.38-.16.75-.12 1.16.08.99-.38 1.73-1.3 2.1a16.1 16.1 0 0 1-3.54.96c-.87.14-1.74.1-2.6-.12a6.08 6.08 0 0 1-.97-.36c-.43-.19-.86-.36-1.3-.51-.83-.28-1.47-1.05-.98-1.93.61-1.11 1.38-2.02 2.14-2.98a6.4 6.4 0 0 1 1.18-1.16c.65-.5 1.34-.95 1.85-1.63.49-.65.8-1 1.6-1.01.03 0 .04-.02.03-.05-.1-.32-.11-.7-.18-.97-.31-1.17-1.43-2.25-.27-3.4.39-.39.7-.64.74-1.24l.04-1.2c0-.04-.02-.05-.05-.05-.15 0-.27-.03-.38-.08-.68-.26-.63-1.12.2-1.15.05 0 .08-.03.08-.08a4.46 4.46 0 0 0-.5-2.3c-.28-.54-.78-1.12-.37-1.75a.1.1 0 0 0 0-.11c-.59-.87-1.12-1.63-1.14-2.73a110.95 110.95 0 0 1 .02-4.46.06.06 0 0 1 .03-.02c1.78-.18 3.43.47 5.07 1.08.83.32 1.67.6 2.52.88l.78.3c.77.34 1.6.48 2.43.51 1.5.06 3 .03 4.5-.1.3-.02.5-.14.76-.27a251.9 251.9 0 0 0 5.9-3.03l.04.02a12.49 12.49 0 0 1 3.34 7.95c.05 1.11-.41 1.91-.94 2.84-.26.45-.49 1-.5 1.5-.01.58.26.98.59 1.53a14.02 14.02 0 0 1 1.58 4.58c.2.96.38 1.92.56 2.88.15.8.29 1.57.05 2.36-.16.56-.5 1.27-.99 2.14-1.01 1.77-2.67 2.64-4.6 3.1-1.2.3-2.43.52-3.67.68-4.16.53-9.1-.03-11.59-3.88-.01-.03-.03-.03-.04 0Z" fill="#030101"/><path d="M40.7 22.13c-.3.55-.8 1.35-.82 1.93l-.02.2c0 .04-.02.05-.05.06a4.06 4.06 0 0 1-2.34-.4l-5.7-2.5a4.86 4.86 0 0 1-2.02-1.4c-.1-.14-.18-.27-.1-.46.08-.2.18-.4.31-.6.98-1.52 2.54-2.72 4.08-3.86 1.36-1 2.94-1.46 4.08-2.77l.02-.01a.05.05 0 0 1 .04 0l.02.01a12.48 12.48 0 0 1 3.12 7.4c.08.9-.14 1.54-.61 2.4Z" fill="#773D17"/><path d="M29.53 19.3a.35.35 0 0 1-.04.07c-.03.03-.05.03-.07-.02-.33-1.26.65-2.64 1.59-3.36.2-.16.6-.39 1.2-.68a379.57 379.57 0 0 0 5.3-2.72c.12-.06.13-.05.02.05-.83.74-1.87 1.24-2.87 1.78a31.53 31.53 0 0 0-3.47 2.74 7.92 7.92 0 0 0-1.66 2.14ZM24.83 19.12a17.36 17.36 0 0 1-3.73-1.99l-1.61-1.2a14.84 14.84 0 0 1-2.98-3.1.04.04 0 0 1 .04-.02 9.5 9.5 0 0 1 3.45.68 372.16 372.16 0 0 0 3.74 1.3c1.01.3 1.1.8 1.3 1.79.08.38.22.74.42 1.07.16.25.25.43.28.54.15.48.06 1.07 0 1.56h-.01a2.55 2.55 0 0 0-.9-.63Z" fill="#F6861A"/><path d="M17.47 19.73c-.68-1.04-1.13-1.68-1.14-2.83a232.06 232.06 0 0 1 .02-3.83l.02-.01a.03.03 0 0 1 .02.01c.72.93 1.48 1.86 2.41 2.58 1.08.84 1.9 1.47 2.5 1.9 1.03.73 2.29 1.27 3.44 1.8.36.15.8.35.87.72.09.45-.58 1.15-.9 1.36-.94.65-2 1.23-3.15 1.76-.83.38-2.01.71-2.73-.07-.26-.3-.43-.92-.52-1.32a6.47 6.47 0 0 0-.84-2.07Z" fill="#773D17"/><path d="M19.44 32.44a.66.66 0 0 0 0 .26 3.86 3.86 0 0 0-1.1-.45.12.12 0 0 1-.06-.05.79.79 0 0 1-.16-.35c-.07-.4-.1-.8-.27-1.18-.35-.73-.7-1.36-.6-2.04.07-.45.55-.8.86-1.1.31-.3.4-1 .4-1.42 0-.04 0-.05.03-.02l.98 1.18c.78.94 1.77 1.4 3 1.4a10.13 10.13 0 0 1 .66.02.03.03 0 0 1 0 .03c-.62.34-1.25.62-1.91.83-.48.15-1.02.24-1.54.35a.06.06 0 0 0-.04.03.06.06 0 0 0 0 .05V30a.14.14 0 0 0 .16.09 10.2 10.2 0 0 0 4-1.51c.14-.1.25-.17.33-.34.11-.2.24-.4.3-.62.23-.9-.2-1.76-.97-2.25-1.36-.85-3.64-.34-4.97.34-.02.01-.03 0-.03-.01l.03-.38c0-.01 0-.02.02-.03 1.35-.24 2.45-.42 3.3-.56.57-.09 1.54-.25 2.02.2a.08.08 0 0 0 .09.01l.02-.02.02-.02a.1.1 0 0 0-.01-.15c-.3-.29-.75-.34-1.16-.32-1.22.08-2.17.28-3.26.47-.54.1-1 .15-1.36.17-.67.02-.84-.87-.17-.78 1.05.14 1.9-.04 3.04-.27.48-.1 1-.11 1.55-.04.23.03.45.12.69.18a.08.08 0 0 0 .1-.05v-.04c.02-.05 0-.09-.05-.1a3.37 3.37 0 0 0-1.59-.24c-.57.05-1.37.18-2.38.38-.24.05-.58.06-1.02.01-.03 0-.04-.01-.04-.04a4.8 4.8 0 0 0-.34-2.17c-.23-.55-.83-1.16-.63-1.76l.01-.02a.04.04 0 0 1 .07.01c.42.82.66 1.73.91 2.63.06.21.2.4.4.58.76.68 1.84.48 2.7.1a21.2 21.2 0 0 0 3.06-1.64c.65-.42 1.18-.95 1.35-1.73.11-.48.17-.94.17-1.37 0-.78-.47-1.12-.7-1.82-.17-.53-.18-1.08-.45-1.58-.01-.03 0-.04.03-.03.62.17 1.27.28 1.93.3 1.44.08 2.88.07 4.3-.03.07 0 .07.01.02.05-1.11.7-2.25 2.22-2 3.6.21 1.13 1.21 1.82 2.18 2.26 2.04.91 4.09 1.82 6.14 2.71a4.3 4.3 0 0 0 2.35.36l.02.03c.08.37.18.65.3.84 1.12 1.7 1.63 3.6 2 5.6l.56 3.07c.12.62.07 1.2-.15 1.75-.55 1.44-1.29 2.84-2.6 3.74a.09.09 0 0 1-.1 0c-2.93-2.07-6-4.2-8.94-6-.32-.2-.68-.32-1.1-.36-2.15-.2-4.3-.52-6.45-.78-.03 0-.04-.02-.02-.05.22-.47.04-.98-.43-1.25-.78-.46-1.98-.33-2.9-.23-.4.04-1.18.1-1.27.46-.1.4.35.9.67 1.08Z" fill="#F6861A"/><path d="M27.68 25.32c.29-.09.64-.14 1.06-.14l3.43-.04c.58 0 1.13.09 1.64.28.28.1.56.24.81.2.03-.01.05 0 .07.02.04.08 0 .14-.07.17-.53.24-1.04.91-1.33 1.41-.58 1-.88 1.9-2.2 2.1a5.67 5.67 0 0 1-3.66-.61c-.51-.34-1.06-.58-1.5-1.03a.04.04 0 0 0-.05 0h-.02v.03c-.05.6.79 1.1 1.24 1.32a10.6 10.6 0 0 0 3.79 1.04l.02.06v.02c0 .07-.03.1-.1.1a11 11 0 0 1-3.49-.88c-.83-.35-1.87-.92-1.67-1.98.03-.19.17-.33.35-.44.63-.39.88-.8 1.29-1.29a.05.05 0 0 0 0-.04l-.01-.02-.02-.02c-.07-.01-.11-.05-.13-.11 0-.03 0-.05.03-.07a4.97 4.97 0 0 1 2.44-.96c.36-.05.72-.07 1.08-.05.8.04 1.5.15 2.1.33.63.18 1.5.48 2.14.36.1-.02.1-.04 0-.07-1.4-.47-2.79-.84-4.35-.74-.29.02-.66.08-1.1.16-.5.1-.99.17-1.46.3l-1.64.49a3.81 3.81 0 0 1-.68.13.09.09 0 0 1-.03-.04c-.03-.04-.03-.08 0-.11.01-.02.04-.04.08-.05.78-.18 1.7-.5 2.3-.65 1-.25 1.98-.4 2.96-.46.14-.01.14-.02 0-.05l-1.64-.3a5 5 0 0 0-3.96.86c-.05.03-.08.02-.1-.04l-.01-.03a.14.14 0 0 1 .06-.16 5.24 5.24 0 0 1 3.39-.93c.4.03 1.08.14 2.06.33 1.27.26 2.54.56 3.8.9a4.7 4.7 0 0 1 .91.36.1.1 0 0 1 .02.05c.02.07-.02.13-.1.16-.68.23-1.3.15-1.96-.06-1.76-.54-4.07-.91-5.8.19Z" fill="#030101"/><path d="M22.42 25.25c1.33.14 2.4 1.45 1.67 2.72-.1.18-.24.3-.44.36-.61.2-1.51.1-2.13 0-.07-.02-.07-.04 0-.06 1.25-.38 1.92-2.02.9-3-.03-.02-.02-.03 0-.02ZM32.1 25.5l-.62-.13h.96c.63 0 1.15.22 1.74.4.03 0 .03.02.01.04-.47.42-.87.9-1.18 1.45-.01.03-.03.03-.05 0a1.96 1.96 0 0 1-.35-.6c-.14-.4.02-1.04-.52-1.15ZM28.85 28.4c.28.32.6.54.97.66.16.05.15.08-.02.07a4.55 4.55 0 0 1-2.52-.77c-.48-.32-.95-.54-1.34-.98a.06.06 0 0 1 0-.08c.14-.16.3-.28.49-.37.33-.17.7-.73.96-1.06.5-.62 1.32-.5 2.04-.48.1 0 .1.02.02.05-.54.22-.88.63-1.02 1.23-.11.45.02.86.16 1.27.07.19.15.34.26.47ZM19.96 25.4h.01v.02c-.23.08-.75.36-.6.68.25.62.59 1.15 1 1.6.12.13.1.14-.05.04a2.7 2.7 0 0 1-.5-.47l-1.14-1.36v-.03c.42-.2.84-.36 1.28-.48ZM21.42 26.3c.25 0 .46-.13.46-.29 0-.16-.2-.29-.45-.3-.25 0-.46.14-.46.3 0 .16.2.29.45.3ZM30.59 26.3c.25 0 .45-.13.45-.29 0-.16-.2-.3-.45-.3s-.45.14-.45.3c0 .16.2.3.45.3ZM20.65 26.83c.23 0 .42-.13.43-.28 0-.16-.2-.3-.43-.3-.23 0-.42.13-.42.29 0 .16.19.29.42.29Z" fill="#fff"/><path d="M29.92 27.43c.33 0 .6-.18.6-.39 0-.21-.27-.39-.6-.39-.33 0-.6.18-.6.4 0 .2.27.38.6.38Z" fill="#fff"/><path d="M25.3 31.05c.05.14.15.4.11.58a.07.07 0 0 1-.04.05c-.04.02-.08.02-.1 0-.03-.02-.05-.04-.06-.08-.05-.17-.08-.36-.14-.5a2.24 2.24 0 0 0-1.1-1.18c-.07-.03-.08-.08-.03-.13l.02-.03c.04-.05.1-.05.15-.02.6.32 1 .76 1.19 1.3ZM23.8 30.96c-.1-.3-.28-.38-.54-.48a.07.07 0 0 1-.04-.05c-.02-.09 0-.13.1-.13.31 0 .54.2.69.56.03.07 0 .12-.07.14l-.04.01h-.06a.08.08 0 0 1-.03-.05Z" fill="#030101"/><path d="M19.44 32.44c.22.14.45.3.7.38 1 .34 2 .3 2.98-.16a.15.15 0 0 1 .08-.01c2.28.26 4.54.57 6.81.8.42.05.72.24 1.08.47a175.04 175.04 0 0 1 8.6 5.8v.01a8.91 8.91 0 0 1-2.05.85c-2.1.56-4.08.88-5.94.95-3.62.14-7.56-.8-9.57-4.08a.07.07 0 0 1 0-.08c.3-.46.84-.67 1.13-1.15.64-1.08-.44-2.22-1.5-1.57-.03.02-.05.02-.07 0l-2.24-1.95a.66.66 0 0 1-.01-.26Z" fill="#D8C0B4"/><path d="M16.67 35.18h-.08c-.03 0-.05.02-.05.05v.33a.04.04 0 0 1-.02.03h-.04l-.35-.26c-.04-.03-.08-.02-.11.01l-.03.03c-.05.05-.05.1 0 .13l.58.4.02.02c.16.33.24.52.56.76.05.04.1.04.14 0l.03-.02a.06.06 0 0 0 .02-.04v-.03l-.02-.02-.4-.4c-.08-.09-.06-.11.05-.07 1.22.43 2.17.65 2.1 2.21 0 .03 0 .05-.02.07-.38.48-1.08.66-1.65.6a.16.16 0 0 1-.1-.07l-1.11-1.42c-.2-.24-.46-.47-.77-.38a.08.08 0 0 0-.06.04c-.01.04 0 .07.02.1l.07.02c.22.02.4.13.54.3l1.29 1.67.15.24v.08c-.2.34-1.64.3-1.97.26a.23.23 0 0 1-.17-.1 7.98 7.98 0 0 0-1.57-1.78c-.02 0-.04 0-.05.02l-.04.03c-.04.04-.04.08 0 .13.57.5 1.07 1.07 1.48 1.72.04.05.1.11.2.18a.1.1 0 0 1 .05.05c.04.14 0 .22-.13.23-.6.08-.9-.41-1.2-.82-.29-.41-.76-.66-1.42-.75a.14.14 0 0 0-.15.07l-.02.04a.06.06 0 0 0 0 .05.06.06 0 0 0 .04.03c.44.1.71.1 1.1.43.5.42.93 1.44 1.76 1.14.17-.06.26-.2.26-.4a.05.05 0 0 1 .05-.05c.48.03 1.99.09 1.99-.53 0-.09-.05-.16-.08-.25 0-.03 0-.05.04-.05.84 0 1.28-.37 1.9-.84.42-.33.68-.78.77-1.35.03-.24.1-.47.19-.7a.1.1 0 0 1 .1-.06c.84.12 1.8-.24 1.35-1.32a.1.1 0 0 1 .05-.13c.74-.35 1.5.28 1.2 1.08-.08.22-.22.42-.41.58-.57.46-.99.82-1.1 1.59-.05.29 0 .72 0 1.09 0 .78-.5 1.37-1.23 1.64-2.11.8-4.76 1.5-6.91.45-.27-.13-.5-.23-.7-.3-.69-.25-1.64-.53-1.6-1.47 0-.08.08-.26.24-.53.2-.34.4-.67.64-.99a38.6 38.6 0 0 1 1.7-2.16c.68-.8 1.9-1.38 2.63-2.32.44-.55.7-1 1.5-1.02 1.4-.02 2.36 1.37 3.34 2.14.6.46.89 1.35-.19 1.46-1.35.14-1.94-.96-3.2-1.43a1.65 1.65 0 0 0-1.29.06.11.11 0 0 0-.07.11v.06a.06.06 0 0 0 .03.05h.05c1.45-.66 2.4.95 3.64 1.3h.01a.05.05 0 0 1 .02.04v.02c-.11.25-.19.5-.23.77a1.83 1.83 0 0 1-.68 1.18.04.04 0 0 1-.04-.04c0-.2-.03-.41-.07-.63-.24-1.2-1.5-1.29-2.38-1.74-.07-.04-.1-.1-.1-.22s-.02-.24-.04-.36c0 0 0-.02-.02-.03h-.03Z" fill="#F6861A"/></svg>