<svg width="112" height="112" viewBox="0 0 56 56" xmlns="http://www.w3.org/2000/svg"><rect fill="url(#argnimghs)" width="56" height="56" rx="28"/><path d="M39.48 21v13H38V21h1.48ZM22.5 34c-.9 0-1.68-.18-2.33-.55a3.83 3.83 0 0 1-1.5-1.57 5.03 5.03 0 0 1-.53-2.35c0-.89.18-1.67.53-2.35A3.94 3.94 0 0 1 22.35 25c.49 0 .97.08 1.45.23a3.51 3.51 0 0 1 2.23 2.07c.22.56.34 1.24.34 2.05V30h-7.2v-1.24h5.74c0-.49-.1-.93-.32-1.31-.2-.39-.5-.7-.89-.91a2.63 2.63 0 0 0-1.35-.34 2.67 2.67 0 0 0-2.44 1.42c-.22.42-.33.87-.33 1.35v.77c0 .66.12 1.21.37 1.67.24.45.59.8 1.02 1.04.44.23.95.35 1.53.35.38 0 .72-.05 1.02-.15a2.05 2.05 0 0 0 1.31-1.21l1.4.36c-.15.44-.4.82-.74 1.16-.35.33-.77.58-1.28.77-.5.18-1.08.27-1.71.27ZM32.36 34c-.9 0-1.68-.19-2.33-.56a3.83 3.83 0 0 1-1.5-1.56 5.03 5.03 0 0 1-.53-2.35c0-.89.17-1.67.52-2.35A3.94 3.94 0 0 1 32.21 25c.49 0 .97.08 1.44.23a3.51 3.51 0 0 1 2.23 2.07c.23.56.34 1.24.34 2.05V30h-7.2v-1.24h5.74c0-.49-.1-.93-.31-1.31-.2-.39-.5-.7-.89-.91a2.63 2.63 0 0 0-1.35-.34 2.68 2.68 0 0 0-2.44 1.42c-.22.42-.33.87-.33 1.35v.77c0 .66.12 1.21.36 1.67.25.45.6.8 1.03 1.04.44.23.95.35 1.53.35.37 0 .71-.05 1.02-.15.3-.1.57-.25.8-.45.22-.2.39-.46.51-.76l1.39.36c-.15.44-.4.82-.74 1.16-.34.33-.77.58-1.28.77-.5.18-1.07.27-1.7.27ZM13 34v-9h1.38v1.48h.1c.16-.44.47-.8.91-1.07a2.8 2.8 0 0 1 1.5-.41 16.3 16.3 0 0 1 .75.02v1.39a4.4 4.4 0 0 0-.87-.1c-.45 0-.85.1-1.2.28a2.1 2.1 0 0 0-.84.73c-.2.32-.3.67-.3 1.07V34H13ZM11 25.72V27H6v-1.28h5ZM7.5 34V23.24c0-.5.12-.91.37-1.24.25-.34.58-.58.97-.75a3.8 3.8 0 0 1 2.12-.17l.04 1.3a4.04 4.04 0 0 0-.75-.13c-.47 0-.81.1-1.02.33-.2.22-.23.55-.23.98V34H7.5Z" fill="#fff"/><path fill-rule="evenodd" d="M48.41 29.5a3.1 3.1 0 0 1-3 3.1c-1.6 0-2.95-1.41-2.95-3.1a3.05 3.05 0 0 1 2.96-3.05c1.57-.02 3 1.36 3 3.05Zm.12 3.18c-.8.82-1.9 1.32-3.11 1.32A4.46 4.46 0 0 1 41 29.5c0-2.49 1.98-4.5 4.42-4.5 1.21 0 2.32.5 3.11 1.32V25H50v9h-1.47v-1.32Z" fill="#fff"/><defs><linearGradient id="argnimghs" x1="45.03" y1="6.75" x2="8.46" y2="47.46" gradientUnits="userSpaceOnUse"><stop stop-color="#F3AA83"/><stop offset="1" stop-color="#DB7B63"/></linearGradient></defs></svg>