<svg width="112" height="112" viewBox="0 0 56 56" xmlns="http://www.w3.org/2000/svg"><rect fill="#FC0" width="56" height="56" rx="28"/><path d="m42.07 21.09-6.5-1.6-21.24 7.13-3.57 7.3 11.7 2.37 23.79-8.74-4.18-6.46Z" fill="#fff"/><path d="M35.38 19.06c.21-.07.44-.08.66-.03l5.84 1.35c.66.15 1.23.57 1.58 1.15l3.44 5.65c.23.38.06.88-.35 1.03l-23.2 8.66a2.1 2.1 0 0 1-1.15.09l-11.65-2.4a.7.7 0 0 1-.48-1l3.34-7a.65.65 0 0 1 .12-.21c.12-.15.26-.2.3-.2l21.55-7.09Zm-21.03 8.46-2.83 5.94 10.54 2.16-.44-6.87-7.27-1.23Zm8.52 1.12.44 6.88 22.15-8.27-3.22-5.3-19.37 6.7Zm17.33-7.33-4.44-1.03-19.27 6.33 5.66.93L40.2 21.3Z" fill="#A98700"/></svg>