<svg width="112" height="112" viewBox="0 0 56 56" xmlns="http://www.w3.org/2000/svg"><path fill-rule="evenodd" d="M26.5 27.97a.9.9 0 0 1-.04-.2c0-.04 0-.04.03 0l.1.2a35.03 35.03 0 0 0 2.94 5.05c1.06 1.5 2.2 2.55 3.69 3.92l.07.07a9.33 9.33 0 0 1 2.5 4.83c.04.16.09.17.14.01.67-1.83.18-3.48-.66-5.2a54.03 54.03 0 0 0-1.69-3.17c-.55-.97-1.35-3.32.05-4.07a.22.22 0 0 1 .22 0c.92.52 1.87 1 2.85 1.42a11 11 0 0 0 3.57.74c.17.02.19-.03.06-.14a75.55 75.55 0 0 0-2.3-1.8 3.93 3.93 0 0 1-1.3-1.67c-.04-.1 0-.13.1-.09 1.1.48 5.51 2.94 4.6 4.54a.03.03 0 0 0 0 .03l.02.01h.02a4.38 4.38 0 0 0 1.8-.78c2.22-1.65-1.23-4.86-2.47-5.88a.07.07 0 0 1-.01-.1c1-1.19.4-2.8-.42-3.92a14.04 14.04 0 0 0-4.56-4.04.19.19 0 0 1-.1-.15c-.37-3.4-4.15-5.94-7.3-6.57-.14-.03-.16 0-.05.1a8.93 8.93 0 0 1 1.58 1.87c.06.1.03.14-.08.14h-.45c-2.66-.35-5.3-.26-7.92.26-.12.03-.13.07-.01.12l2.59 1.23.02.02a.06.06 0 0 1-.02.1l-6.41 2.96c-.09.03-.08.07 0 .09a70.46 70.46 0 0 0 4.13.91c.06.02.06.03 0 .05l-1.3.44c-2.59.9-4.57 2.98-6.13 5.1-1.2 1.65-1.92 3.01-.8 5.01.04.06.07.06.1 0A288.94 288.94 0 0 0 15 27.04c.02.01.02.02.02.03l-.6 1.65c-.6 1.64-.07 2.95 1.34 3.93h.02a.05.05 0 0 0 .04-.01v-.03c.23-3.08 1.47-5.9 4.04-7.79.1-.07.1-.06.03.04-1.5 1.93-3.06 4.29-3.4 6.73-.45 3.37 1.85 6.55 3.9 9.04.03.03.06.03.08 0a14.33 14.33 0 0 0 1.69-6.57l.01-1.91c0-1.4.01-2.8.1-4.2a14.14 14.14 0 0 1 .47-2.85c0 .2-.03.4-.06.58 0 .09-.02.16-.03.23-.24 2.42-.06 4.48.14 6.72l.04.42c.05.58.08 1.1.08 1.55.03 1.35-.15 2.32-.46 3.49a.4.4 0 0 0 .07.35c1.45 2.09 2.5 4.45 3.52 6.8l.62 1.4c.04.07.07.06.1-.01a16.44 16.44 0 0 0 1.02-6.96 12.66 12.66 0 0 0-.61-3.3c-.26-.74-.58-1.55-.98-2.42-1.07-2.35-1.96-5.27-1.64-7.88l.02-.02c.02 0 .02 0 .02.02.1 2.15.6 4.22 1.47 6.2l.64 1.43c.78 1.7 1.42 3.1 1.77 4.84.04.24.12.87.22 1.9.07.7.2 1.4.36 2.1.11.5.28.74.64 1.07a102.94 102.94 0 0 0 3.9 3.39.04.04 0 0 0 .03-.02l.1-.21c.51-1.15.94-2.09.97-3.49a7.99 7.99 0 0 0-2.8-6.43c-2.6-2.31-4.37-5.65-5.4-8.88Zm10.96-3.79a4.08 4.08 0 0 0-.3-.56 9.27 9.27 0 0 0-1.85-2.02c-.04-.03-.05-.02-.06.03 0 .62-.04 1.24-.1 1.87-.13 1.16.77 1.75 1.81 1.9.44.07.9-.01 1.35-.1l.3-.06c.22-.03.22-.07 0-.1-.75-.13-.93-.5-1.15-.96Z" fill="url(#b3plr0icd)"/><path d="M29.43 11.26c2.9.9 5.94 3.24 6.3 6.37-.32-.07-1.01-.25-1.1-.6a6.63 6.63 0 0 0-1.75-3.02 11.76 11.76 0 0 0-2.03-1.74c-.64-.41-1.11-.75-1.42-1.01Z" fill="#FA9948"/><path d="M28.2 12.93c.05.04.16.07.34.08a2.2 2.2 0 0 1-.88.25c-1.48.12-2.92.4-4.06.58-.24.04-.52.12-.86.23l-1.3-.62c-.05-.02-.05-.04.01-.06 1.22-.27 2.33-.42 3.34-.46.76-.03 1.9-.03 3.41 0Z" fill="#F37F4F"/><path d="M19.96 24.74c-2.67 1.98-3.84 4.65-4.13 7.87v.02a.05.05 0 0 1-.05.01h-.02c-1.26-.94-1.92-2.12-1.44-3.69 0 .1.03.17.1.21.03.02.05.05.07.09.13.47.66.96 1.06 1.26a.1.1 0 0 0 .14 0 .1.1 0 0 0 .03-.05c.06-.21.06-.45.1-.64a7.98 7.98 0 0 1 1.5-3.18c.74-.95 1.58-1.76 2.51-2.45a21.96 21.96 0 0 0 1.39-1.08l.03.02v.05l-1.3 1.56Z" fill="#EE6757"/><path d="M29.6 31.93c1.36 1.85 2.75 3.13 4.2 4.65.38.4.67.74.85 1.02.56.84.9 1.77 1.2 2.72.06.16.05.3.05.47 0 .04-.02.07-.04.1a.27.27 0 0 1-.27.09c-.46-1.44-1.13-2.92-2.2-3.9-1.48-1.36-2.68-2.44-3.76-3.97a35.98 35.98 0 0 1-3.02-5.07c-.05-.1-.09-.21-.12-.33 0-.01-.01-.02-.03-.01-.25.09-.26.1-.02.02l-.6-2.49.01-.01.04-.01c.02 0 .04 0 .05.03.9 2.4 2.1 4.63 3.65 6.7Z" fill="#F78F50"/><path d="m13.07 26.7.62 1.46c.02.04.05.06.1.04.27-.09.36-.55.67-.71.12-.06.24-.12.38-.17l-1.18 2.1a.05.05 0 0 1-.04.03.05.05 0 0 1-.04-.02 4.83 4.83 0 0 1-.55-1.66c-.05-.3-.03-.66.04-1.07Z" fill="#EE6757"/><path d="M37.96 31.23a16.41 16.41 0 0 1-4.09-1.83.24.24 0 0 0-.22 0 1.5 1.5 0 0 0-.64.6c-.23-.4-.12-.84.31-1.35.73-.84 1.52-.68 2.2.08l1.3 1.46c.1.12.4.33.88.64.06.04.1.09.13.16 0 .02 0 .03-.02.03h-.04l-.02.02c0 .04 0 .06.02.07l.05.02c.09 0 .13.03.14.1Z" fill="#FA9948"/><path d="m16.47 32 .04.2c0 .04.02.07.04.1.1.15.12.32.17.45.4 1.01.72 1.8 1.42 2.88.63.97 1.37 1.95 2.1 2.92a.1.1 0 0 0 .08.04.11.11 0 0 0 .08-.04c.08-.08.14-.18.2-.3.54-1.25.92-2.37 1.15-3.36.1-.45.25-.78.44-1.01a14.31 14.31 0 0 1-1.76 6.77c-2-2.42-4.2-5.41-3.96-8.66Z" fill="#F26E53"/><path d="M22.71 37.11c.4.62 1.05 1.74 1.95 3.38a32.89 32.89 0 0 1 1.87 4.01c.08.2.14.2.2 0 .38-1.24.6-2.54.88-3.8.01-.04.03-.08.06-.1.17-.13.08-.34.12-.49a16.7 16.7 0 0 1-1 6.48c-.04.12-.08.12-.13 0-1.26-2.8-2.38-5.62-4.19-8.25-.05-.08-.06-.2-.03-.35.06-.24.15-.54.27-.88Z" fill="#F37F4F"/><path d="M28.72 40.59c.19.08.34.22.46.43.12.22.22.36.3.44a172.26 172.26 0 0 0 3.9 3.38.16.16 0 0 0 .17-.07c.41-.7.66-1.45.88-2.22.02-.05.05-.07.1-.05.08.02.13-.01.17-.1.1 1.24-.1 2.41-.6 3.53l-.47 1.03a.05.05 0 0 1-.03.02.05.05 0 0 1-.04 0 104.12 104.12 0 0 1-3.69-3.22c-.47-.43-.69-.66-.84-1.3-.14-.6-.24-1.23-.31-1.87Z" fill="#FA9149"/><path d="M25.54 18.28c-2.95-.74-7.8-.43-7.86-.4l4.17.93 3.69-.53Z" fill="#F37F4F"/><defs><linearGradient id="a3plr0icd" x1="46.42" y1="6.91" x2="6.01" y2="44.44" gradientUnits="userSpaceOnUse"><stop stop-color="#100B5B"/><stop offset="1" stop-color="#0E032B"/></linearGradient><linearGradient id="b3plr0icd" x1="41.63" y1="29" x2="17.15" y2="29" gradientUnits="userSpaceOnUse"><stop stop-color="#FECB40"/><stop offset=".62" stop-color="#F9A555"/><stop offset="1" stop-color="#F68E62"/></linearGradient></defs></svg>