<svg width="112" height="112" viewBox="0 0 56 56" xmlns="http://www.w3.org/2000/svg"><path d="m43 34.6-3-12.53c0-.04.01-.07.05-.07H42.96a.03.03 0 0 0 .02-.02v-.02l-4.73-5.36a.07.07 0 0 1-.02-.06l.47-2.32c0-.02 0-.04-.04-.04l-6.01-.78c-.2-.02-.39-.08-.56-.18l-4.07-2.21a.06.06 0 0 0-.06 0l-4.29 2.33a.28.28 0 0 1-.1.03l-6.2.8a.04.04 0 0 0-.02.02.04.04 0 0 0 0 .04l.45 2.29a.12.12 0 0 1-.03.1l-4.75 5.35v.01a.03.03 0 0 0 0 .03h.02V22H16l.01.01.01.01.01.02L13 34.6v.02l.01.01a.04.04 0 0 0 .04.01l3.8-.87c.02 0 .03 0 .04.02l3.9 8.78a.05.05 0 0 0 .04.03.05.05 0 0 0 .04 0l2.73-1.31h.04l4.33 4.7h.01V46H28a.03.03 0 0 0 .02-.01l4.3-4.69a.05.05 0 0 1 .06 0l2.81 1.3.02.01a.04.04 0 0 0 .02 0v-.01l.01-.01 3.85-8.76c.02-.05.05-.06.1-.05l3.77.86h.02a.04.04 0 0 0 .03-.05Zm-10.56-5.14v.03l.6 1.07a.06.06 0 0 1-.01.05l-1.92 3.29a.05.05 0 0 1-.07.02L28 32.95h-.03l-3.05.98a.06.06 0 0 1-.07-.03l-1.92-3.29a.06.06 0 0 1 0-.05l.58-1.07a.06.06 0 0 0 0-.06l-3.67-5.27a.06.06 0 0 1 0-.07l3.77-5.07a.06.06 0 0 1 .05-.02h8.65a.06.06 0 0 1 .05.02l3.76 5.07a.06.06 0 0 1 0 .07l-3.66 5.27v.03Zm-7.79-5.78-2.7-.38h-.01a.03.03 0 0 0-.02.03v.02l1.22 1.58h.02l2.45.55h.02l.01-.02.01-.01v-.02l-.97-1.73-.01-.01h-.02Zm8.14 1.26-2.45.54h-.02l-.02-.01a.03.03 0 0 1 0-.04l.97-1.73.01-.01h.01l2.7-.4a.03.03 0 0 1 .04.04v.02l-1.22 1.58h-.02Zm-5.11 4.86c-.6-.1-1.21-.2-1.84-.32-.1-.01-.11 0-.03.06l2.14 1.5H28l2.16-1.51c.07-.05.06-.07-.02-.05l-1.85.32c-.2.04-.4.04-.61 0Z"/></svg>