<svg width="112" height="112" viewBox="0 0 56 56" xmlns="http://www.w3.org/2000/svg"><path d="M32.84 19.01 24.66 19c-.64 0-1.16.52-1.16 1.16v1.17c0 .65.52 1.17 1.16 1.17l8.17.01c.64 0 1.16-.51 1.17-1.16v-1.17c0-.64-.52-1.16-1.16-1.17Zm-19.06 0h3.94c.5 0 .86.16 1.09.5.13.2.2.52.22.97v.2c.03.74.05 1.4-.65 1.77-.34.18-.78.17-1.21.15a2.66 2.66 0 0 0-1.06.1c-.5.21-.51.6-.51 1.19v11.44c0 1.39-.45 1.67-1.82 1.67s-1.82-.28-1.82-1.67V23.89c0-.58-.25-.98-.75-1.18a3.2 3.2 0 0 0-1.18-.1c-.5 0-1.03.02-1.37-.16-.7-.38-.68-1.03-.65-1.77v-.2c.02-.45.09-.78.23-.98.22-.33.59-.5 1.08-.5h4.46Zm27.4-.01h4.65c.65 0 1.17.53 1.17 1.18v1.16c0 .65-.53 1.17-1.18 1.17l-4.65-.01c-.65 0-1.18-.53-1.17-1.17v-1.16c0-.65.52-1.17 1.17-1.17Zm-18.85 3.5h-1.16A1.2 1.2 0 0 0 20 23.73v8.54c0 .68.52 1.23 1.17 1.23h1.16a1.2 1.2 0 0 0 1.17-1.23v-8.54a1.2 1.2 0 0 0-1.17-1.23Zm14.85 0h1.14c.65 0 1.18.56 1.18 1.24v8.52c0 .68-.53 1.24-1.18 1.24h-1.14c-.65 0-1.18-.56-1.18-1.24v-8.52c0-.68.53-1.24 1.18-1.24Zm-7.96 10.81c.68 0 1.1-.35 1.26-1.06l.03-.73c.04-1.1-.22-1.88-1.44-1.83h-.06c-.36.01-.9.03-1.26-.1-.73-.28-.75-1-.74-1.7l.02-.74c.1-.77.53-1.15 1.28-1.15h4.32c.61 0 1.02.23 1.22.67.1.2.15.63.15 1.27v7.12a3.8 3.8 0 0 1-.13 1.25c-.2.46-.6.69-1.2.69h-7.49c-.5 0-.85-.05-1.04-.15-.72-.38-.67-1.26-.61-2.12l.01-.21c.06-1.05.7-1.2 1.6-1.2h4.08Zm11.96.19 4.64-.01c.65 0 1.18.52 1.18 1.17v1.15c0 .65-.52 1.18-1.18 1.18H41.2c-.66 0-1.18-.52-1.19-1.17v-1.14c0-.65.53-1.18 1.18-1.18Z" fill="#fff"/><defs><linearGradient id="a" x1="10.42" y1="9.71" x2="68.15" y2="76.02" gradientUnits="userSpaceOnUse"><stop stop-color="#1A1E21"/><stop offset="1" stop-color="#06060A"/></linearGradient></defs></svg>