<svg width="112" height="112" viewBox="0 0 56 56" xmlns="http://www.w3.org/2000/svg"><path d="m29.85 12.19-.59 2.2a.42.42 0 0 0 0 .22c.12.42.38.76.79 1.03a7.2 7.2 0 0 1 2.15 2.18c.96 1.53.57 3.27-.18 4.8-.34.7-.83 1.15-1.47 1.35a13 13 0 0 1-3.78.6c-.1 0-.18.03-.25.1a1.1 1.1 0 0 1-.72.31.36.36 0 0 0-.18-.03c-.24-.24-.18-.55.16-.94.15-.18.16-.36.04-.55-.18-.3-.3-.62-.35-.97-.1-.58-.58-.9-.65-1.52l-.16-1.36c-.02-.22 0-.45.06-.68.18-.6.2-1.1.63-1.61.4-.49.8-.93 1.23-1.33.42-.4.62-.96.86-1.48.1-.19.06-.35-.1-.5l-2.2-1.9c1.64-.17 3.22-.14 4.7.08Z" fill="#D1A385"/><path d="m25.13 12.11 2.2 1.9c.17.15.2.31.11.5-.24.52-.44 1.08-.86 1.48-.43.4-.84.84-1.23 1.33-.42.52-.45 1.01-.63 1.6-.06.24-.08.47-.06.7l.16 1.35c.06.62.55.94.64 1.52.06.35.18.67.36.97.12.19.1.37-.04.55-.35.39-.4.7-.16.93a.71.71 0 0 1-.69-.12.27.27 0 0 1 .02-.44c.21-.14.39-.33.52-.55a.29.29 0 0 0-.01-.3c-.19-.3-.34-.63-.44-.98-.1-.38-.4-.68-.67-.96-1.11-1.14-.76-2.95-.44-4.35.16-.69.54-1.26.74-1.93.2-.63.7-1.12 1.23-1.5a.35.35 0 0 0-.11-.62 2.8 2.8 0 0 0-1.33-.03 7.57 7.57 0 0 0-2.66 1.03c-.5.33-1.17.18-1.62-.2.94-.84 1.99-1.38 3.14-1.63.62-.13 1.23-.21 1.83-.25ZM29.85 12.19c.78 0 1.58.13 2.41.38-.19.35-.2.65 0 .91.57.76 1.08 1.52 1.55 2.3.39.65.65 1.34.8 2.07.33 1.8-.14 3.33-.6 4.99-.14.5-.52.84-1.13 1a.43.43 0 0 0-.22.13c-.3.33-.28.47.03.41l.37.28c.38.3.33.44-.16.42-.68-.04-1.4.01-2.17.16a.48.48 0 0 1-.22-.01c-.54-.16-.87-.33-1.49-.23-.95.16-1.92.18-2.9.07a.98.98 0 0 1-.32-.09c.24 0 .48-.1.72-.32.07-.06.15-.1.25-.1a13 13 0 0 0 3.78-.59c.64-.2 1.13-.65 1.47-1.36.75-1.52 1.14-3.26.18-4.79a7.2 7.2 0 0 0-2.15-2.18c-.41-.27-.67-.6-.78-1.03a.42.42 0 0 1 0-.21l.58-2.21Z" fill="#C29374"/><path d="m32.27 12.57 1.46.59 1.73 2.44c.1.13.17.28.2.44.16.85.28 1.7.38 2.58.08.75.07 1.6-.03 2.54-.12 1.21-.25 2.41-.39 3.6l-1.19.15a2.08 2.08 0 0 0-.92-.46c-.27-.07-.49-.24-.82-.07-.31.06-.32-.08-.03-.41a.43.43 0 0 1 .22-.14c.61-.15.99-.49 1.13-1 .46-1.65.93-3.19.6-4.98a6.31 6.31 0 0 0-.8-2.07c-.47-.78-.98-1.54-1.55-2.3-.2-.26-.19-.56 0-.9Z" fill="#A97555"/><path d="M25.62 24.95c.05-.01.1 0 .18.03.1.05.2.08.32.09.98.1 1.95.09 2.9-.07.62-.1.95.07 1.49.23.07.02.15.03.22.01.77-.15 1.49-.2 2.17-.16.5.02.54-.11.16-.42l-.37-.28c.33-.17.55 0 .82.07.38.1.68.25.92.46l-.61.49-2.1.26c-1 .13-1.97.1-2.93.18-.5.04-.92.34-1.43.22-1.37-.3-2.64-.67-3.79-1.13a.44.44 0 0 1-.27-.45c.03-.23 0-.52-.21-.66a3.48 3.48 0 0 1-1.27-1.66 10.64 10.64 0 0 1-.82-2.82c-.12-1.1-.16-2.2-.12-3.29a.45.45 0 0 0-.29-.44.46.46 0 0 0-.18-.03l-.46.02a.24.24 0 0 1-.2-.08l-.82-.91a2 2 0 0 0 1.23-.61c.45.37 1.12.52 1.62.19.68-.46 1.57-.8 2.66-1.03.46-.1.9-.09 1.33.03a.35.35 0 0 1 .1.63c-.52.37-1.02.86-1.22 1.5-.2.66-.58 1.23-.74 1.92-.32 1.4-.67 3.2.44 4.35.27.28.57.58.67.96.1.35.25.68.44.98a.28.28 0 0 1 0 .3c-.12.22-.3.4-.51.55a.27.27 0 0 0-.1.34l.08.1c.2.16.44.2.7.13Z" fill="#B28164"/><path d="M33.73 13.16c1.13.4 2.03.93 2.7 1.59l1 1.15c-.45.1-.62.5-.48 1.23.26 1.37.26 2.4.1 3.96-.07.61-.14 1.41-.21 2.41-.07.83-.47 1.25-1.22 1.26l.4-3.6c.09-.94.1-1.8.02-2.54a31.6 31.6 0 0 0-.38-2.58c-.03-.16-.1-.31-.2-.44l-1.73-2.44ZM18.93 14.6l.83.92a.24.24 0 0 0 .19.08l.46-.02a.46.46 0 0 1 .44.29c.03.06.04.12.03.18-.04 1.09 0 2.19.12 3.3.1.79.37 1.73.82 2.81.32.77.74 1.32 1.27 1.66.2.14.24.43.2.66a.44.44 0 0 0 .28.45c1.15.46 2.42.83 3.79 1.13.51.12.92-.18 1.43-.22.96-.07 1.94-.05 2.94-.18l2.09-.26c-1.02.46-2.07.8-3.14 1-.72.15-1.5-.11-2.12.36-.09.07-.2.1-.3.1l-.97-.02c-.7-.15-1.39-.4-2.03-.74-.17-.09-.25-.25-.46-.25a.97.97 0 0 1-.36-.07c-.44-.18-.85-.4-1.3-.53-.7-.19-1.35-.42-1.97-.69-.39-.16-.81-.18-1.2-.31a.18.18 0 0 1-.14-.17 6.77 6.77 0 0 1 0-.7 3.5 3.5 0 0 0-.25-1.37c-.13-.36-.54-1.03-1.23-2.04l-.24-1.37a.25.25 0 0 0-.13-.18.2.2 0 0 1-.1-.17c-.08-.86 0-1.56.2-2.11.05-.1.04-.2 0-.3a.42.42 0 0 1-.05-.18c0-.09.04-.16.12-.2.4-.25.44-.45.15-.63l.63-.22Z" fill="#87573F"/><path d="m36.43 14.75 1.22.47c.43.17.76.4.98.66.62.72 1.01 1.4 1.18 2 .4 1.51.63 3.37.69 5.58.01.41.1.8.26 1.17a.18.18 0 0 0 .18.1l.64-.05c-.02.25-.1.5-.24.74-.05.08-.04.15.02.22.08.09.19.1.32.06.18-.06.34-.15.49-.28.15-.13.34-.23.57-.3.54-.17 1.07-.38 1.6-.65.62.18.8.64.55 1.4-.2-.6-.57-.48-1.08.32-.14.22-.43.17-.88-.15a.1.1 0 0 0-.15.03c-.23.36-.59.61-1.06.76l.56-.83c.06-.09.04-.15-.06-.19-.12-.04-.22-.02-.31.08a11.45 11.45 0 0 0-.96 1.15.17.17 0 0 0 .02.14l.06.05c.1.06.24.03.4-.1l.08 1.69a.16.16 0 0 1-.12.17h-.07c-.88-.14-1.25.56-1.77 1.1a.24.24 0 0 0-.06.25c.05.16.17.25.35.26.31.03.36.16.15.39-.35.39-.86.38-1.22.72-.15.15-.27.31-.37.5l-.08-.51c.45-.46.76-1.01.92-1.67.03-.1.08-.2.16-.27l1.12-1.1a.52.52 0 0 1 .28-.14l.33-.05a.13.13 0 0 0 .07-.23l-.42-.34a.2.2 0 0 0-.24-.02c-.46.26-.91.4-1.31-.06a.17.17 0 0 1 .03-.24.37.37 0 0 1 .25-.07c.12 0 .2-.05.22-.17a.82.82 0 0 0 0-.41.14.14 0 0 0-.24-.07l-.35.32a.1.1 0 0 1-.09.02.1.1 0 0 1-.07-.06c-.07-.18-.03-.36.11-.53.19-.21.17-.4-.04-.57-.1-.08-.1-.17-.01-.26l.06-.06c.06-.07.06-.12-.02-.17-.93-.63-.23-1.25-.1-2 .08-.46.15-.9.2-1.31.06-.47.09-.9.08-1.3 0-.42.03-.83.1-1.24v-.14a.14.14 0 0 0-.07-.09.28.28 0 0 1-.13-.2l-.2-1.53a.27.27 0 0 0-.1-.18l-1.2-1a2.02 2.02 0 0 1-.22-.66l-1.01-1.15ZM18.3 14.83c.3.18.24.38-.15.62a.23.23 0 0 0-.12.21c0 .06.02.12.05.18.04.1.05.2 0 .3a4.82 4.82 0 0 0-.2 2.11c0 .08.04.13.1.17.07.04.11.1.13.18l.24 1.37c.13.98.4 1.92.81 2.84-.1-.03-.15.02-.15.17 0 .14-.04.16-.14.07a.15.15 0 0 0-.03-.02.25.25 0 0 1-.12-.15l-.5-1.58c-.03-.1-.08-.12-.17-.06l-.07.05a.23.23 0 0 0-.1.19l-.01.53c0 .03-.01.04-.04.04h-.06a.07.07 0 0 1-.06-.07c0-.3-.1-.56-.29-.77l.07.01h.04l.03-.04a4.4 4.4 0 0 0 .26-2.19.24.24 0 0 0-.1-.18.12.12 0 0 0-.12-.01.12.12 0 0 0-.07.09l-.26 1.87a6.27 6.27 0 0 1 .22-3.8.19.19 0 0 0-.07-.22l-.06-.04a.08.08 0 0 0-.12.04l-.48 1.14c-.02-.05-.1-.08-.21-.1l-.02-.13c-.03-.22-.1-.24-.23-.06l-.49.71c-.54.34-.77.76-.67 1.25l-.32.78c-.08-.02-.15-.09-.21-.2a6.1 6.1 0 0 1 1.5-3.2c.14-.16.14-.43.36-.62.59-.53 1.2-1.02 1.83-1.48Z" fill="#4C3F3E"/><path d="M37.44 15.9c.06.3.13.51.22.65.21 1.63 1.04 3.09.8 4.78a16.13 16.13 0 0 0-.18 4.68c.06.38.1.74.1 1.09 0 1.07.62 2.1.23 3.13-.12.33-.36.7-.72 1.13a4.9 4.9 0 0 0-1.62 1.9 9.5 9.5 0 0 1-.54.95c-.28.44-.9 1.07-.65 1.62a.3.3 0 0 1 .01.23c-.1.3-.23.6-.39.87-.28.53-.2 1.1-.44 1.64-.12.28-.17.58-.17.89 0 .66-.6 1.17-1.17 1.34-.7.2-1.35.6-1.94 1.2a.4.4 0 0 0-.12.23l-.01.07c0 .03-.02.06-.04.08a.16.16 0 0 1-.08.05c-.83.23-1.63.22-2.4 0a.2.2 0 0 0-.24.22c.02.08.01.15-.01.21-.03.08-.08.1-.16.07-.45-.19-.9-.13-1.37-.24-.77-.18-1.26-.14-1.9-.69a.49.49 0 0 0-.22-.1 2.35 2.35 0 0 1-1-.44.33.33 0 0 0-.29-.07 2.85 2.85 0 0 0-.84.3.16.16 0 0 1-.12-.05.16.16 0 0 1-.04-.05l-.88-1.68c-.04-.08-.03-.15.04-.2.21-.2.3-.42.25-.72-.08-.4-.21-.8-.39-1.17l.24-.9a.57.57 0 0 0 0-.25c-.04-.2-.05-.36-.04-.47.04-.35.2-.43.5-.24l1.38.87a3.62 3.62 0 0 0 2.12 1.61c.39.12.78.02 1.16-.3.3-.25.36-.57.15-.96a1.9 1.9 0 0 1 1.56.29.23.23 0 0 1-.05.4.67.67 0 0 0-.4.48c-.07.27-.2.3-.39.1-.1-.12-.22-.14-.36-.06a.43.43 0 0 0-.2.25.72.72 0 0 1-.28.4.24.24 0 0 1-.25.03 1.03 1.03 0 0 1-.35-.26.17.17 0 0 0-.3.07l-.1.4a.3.3 0 0 1-.17.2l-.6.28a.36.36 0 0 0-.22.28l-.14.69a.3.3 0 0 0 .29.36l.75.02a.2.2 0 0 0 .18-.1.78.78 0 0 0 .1-.44c0-.13.06-.19.2-.17.13.02.26 0 .4-.07a.19.19 0 0 0 .1-.14c0-.03.02-.05.06-.06.08 0 .11.03.1.1-.13.49 0 .87.4 1.16.98.72 1.33-.18 2.26-.07.09.02.17-.01.23-.08l.3-.29a.43.43 0 0 1 .25-.12l1.09-.16c.2-.03.3-.14.32-.33.1-.75.8-.54 1.3-.6a.35.35 0 0 0 .28-.19c.18-.32.38-.63.6-.93a4.8 4.8 0 0 0 .83-2.26.14.14 0 0 0-.1-.1h-.08c-.08.04-.18.1-.3.2l.15-.76c.1-.59-.08-1.07-.2-1.65.44.22.97.36 1.28-.12.29-.46.75-.78.93-1.32.32-.96 1.9-2.25 1.34-3.34a.2.2 0 0 0-.33-.03c-.29.35-.5.72-.6 1.13-.22.72-.78 1.02-1.55 1.15-.95.16-1.85.05-2.69-.34a1.4 1.4 0 0 1-.84-.73c.87.33 1.65.49 2.34.48.56-.17 1.2.03 1.7-.32.61-.4.95-1.11 1.5-1.6.08-.06.08-.12 0-.18a1.32 1.32 0 0 0-.74-.24c.13-.23.2-.44.22-.62.15-.1.29-.14.41-.11.2.04.36-.02.47-.2.42-.68.46-1.27.1-1.8a.16.16 0 0 0-.27.02l-.43.9c-.04.09-.1.12-.2.1a9.18 9.18 0 0 0-4.12-.13c-.81.23-1.63.41-2.46.55-.29.05-.48.07-.58.05-.46-.06-.54.08-.25.45.09.11.18.29.28.53l-.4-.25c-.53-.52-1.06-.52-1.6-.02a.33.33 0 0 0-.09.39c.17.45.07.92-.3 1.41l-.08-1.49c0-.08.02-.16.07-.22l.43-.6a.18.18 0 0 0 .02-.2 1.7 1.7 0 0 1-.2-.51l.97.02c.1 0 .21-.03.3-.1.62-.47 1.4-.2 2.12-.35 1.08-.22 2.12-.55 3.14-1.01l.61-.48 1.2-.16c.74 0 1.14-.43 1.2-1.26.08-1 .15-1.8.22-2.4.16-1.56.16-2.6-.1-3.97-.14-.73.03-1.14.49-1.23Z" fill="#663F2B"/><path d="m37.66 16.55 1.2 1.01c.05.05.09.11.1.18l.2 1.52c0 .1.05.16.13.21.03.02.05.05.06.09.02.05.02.1.01.14-.07.4-.1.82-.1 1.24 0 .4-.02.83-.08 1.3-.05.42-.12.85-.2 1.31-.13.75-.83 1.37.1 2 .08.05.08.1.02.17l-.06.06c-.1.09-.09.18.01.26.21.16.23.36.04.57-.14.17-.18.35-.1.53a.1.1 0 0 0 .06.06.1.1 0 0 0 .1-.02l.35-.32a.14.14 0 0 1 .23.07c.03.14.03.27 0 .41-.03.12-.1.18-.22.17-.1 0-.18.02-.25.07a.17.17 0 0 0-.03.24c.4.45.85.32 1.31.06a.2.2 0 0 1 .24.02l.42.34a.13.13 0 0 1 .04.13.13.13 0 0 1-.1.1l-.34.05a.52.52 0 0 0-.28.14l-1.12 1.1a.55.55 0 0 0-.16.27 3.54 3.54 0 0 1-.92 1.67l-.09.07c-.07.07-.12.06-.16-.03l-.18-.38c.36-.42.6-.8.72-1.13.38-1.03-.23-2.06-.24-3.13 0-.35-.03-.71-.1-1.1-.23-1.54-.02-3.15.2-4.67.22-1.7-.6-3.15-.81-4.78ZM17.27 20.76l.15.45c.19.21.28.47.29.77a.06.06 0 0 0 .06.06h.06c.03.01.04 0 .04-.03v-.53a.23.23 0 0 1 .1-.2l.08-.04c.08-.06.14-.04.17.06l.5 1.58c.02.06.06.11.12.15l.03.02c.1.09.15.07.14-.07 0-.15.05-.2.15-.17.2.37.28.74.24 1.13-.02.18-.1.3-.22.35a.45.45 0 0 0-.24-.01.27.27 0 0 0-.18.14l-1.47 2.84c-.25.45-.29.98-.13 1.56.02.08.02.17 0 .25-.3 1.13-.16 1.91.01 2.98.07.38.1.76.1 1.16 0 .61.06 1.23.17 1.87.09.53.16.53.23 0 .03-.26.13-.52.3-.78.14-.21.23-.46.29-.74.07-.39.14-.82.19-1.29.15.06.24.18.26.36.01.1.05.18.13.25l.41.36c.09.07.09.14 0 .22-.18.15-.25.38-.2.7.02.07.06.1.12.12.4.06.56.31.48.75-.09.45-.19.45-.3 0a1.5 1.5 0 0 0-.23-.51c-.14-.21-.24-.2-.28.06-.03.2-.03.42.02.64a.4.4 0 0 1-.02.26l-.91 2.1a9.5 9.5 0 0 1-.9-3.35c0-.1-.05-.14-.15-.14-.92.03-1.47.01-1.95-.87-.32-.57-.61-1.07-.88-1.49.22-.43.19-.91-.1-1.43-.29-.5-.46-.85-.53-1.04a27.94 27.94 0 0 0-1.86-4.2.26.26 0 0 1 .23-.38c.7 0 1.32.26 1.86.79l.1.26c.02.08.07.13.14.17.2.09.35.23.45.41.05.3.16.56.32.78.08.25.31.38.72.4.04 0 .09-.02.12-.05a.2.2 0 0 0 .07-.12l.29-2.02a.27.27 0 0 1 .13-.2l.32-.19c.08-.04.1-.1.07-.2l-.13-.33a.5.5 0 0 1-.03-.25c.04-.28-.14-.43-.2-.7a3.9 3.9 0 0 1-.18-1.27 39.18 39.18 0 0 1 .53-2.9c0-.02-.02-.03-.06-.03-.04 0-.06.03-.05.08a.37.37 0 0 1-.11.35.28.28 0 0 0-.1.2c0 .42-.15.68-.45.79.08-.76.36-1.43.84-2.01.08-.1.19-.35.32-.76l.48-1.14a.08.08 0 0 1 .05-.05.08.08 0 0 1 .07.01l.06.04a.19.19 0 0 1 .07.23 6.27 6.27 0 0 0-.22 3.79Z" fill="#2C140F"/><path d="m16.55 17.79-.94 1.6c-.02.04-.05.05-.08.02l-.05-.04a.07.07 0 0 1-.02-.09l.35-.98.5-.7c.12-.2.2-.17.22.05l.02.14Z" fill="#1C0701"/><path d="M16.55 17.79c.11.01.19.04.2.09a2.9 2.9 0 0 1-.31.76 3.75 3.75 0 0 0-.84 2c-.13.33-.2.69-.21 1.08l-.05.94a194 194 0 0 1-.13 1.72c-.03.35-.12.8-.28 1.34-.13.46-.22.92-.27 1.37a1.78 1.78 0 0 1-.32-.78c.07-.03.11-.07.12-.13 0-.05-.01-.1-.05-.14a.97.97 0 0 1-.15-.27.16.16 0 0 1 .06-.19c.32-.21.45-.53.39-.95-.01-.06-.04-.08-.1-.06-.03 0-.04.03-.05.06l-.05-.38c.56-1.43-.29-2.55.1-4.12.06.11.13.18.2.2-.04.3-.06.58-.06.8 0 .27.05.28.17.05.25-.5.32-1.04.22-1.63-.1-.5.13-.9.67-1.25l-.35.98c-.01.04 0 .06.02.09l.05.04c.03.03.06.02.08-.01l.94-1.61Z" fill="#5E5E6C"/><path d="m17.42 21.2-.15-.44.26-1.87a.12.12 0 0 1 .07-.1.12.12 0 0 1 .11.02c.07.04.1.1.11.18a4.4 4.4 0 0 1-.29 2.22.07.07 0 0 1-.04.01l-.07-.01Z" fill="#8B878D"/><path d="M14.66 27.1c.05-.46.14-.92.27-1.38.16-.54.25-.99.28-1.34a194.25 194.25 0 0 0 .18-2.66c.01-.4.08-.75.2-1.07.31-.1.47-.37.47-.79 0-.08.03-.15.09-.2.1-.1.13-.22.1-.35 0-.05.02-.08.06-.08.04 0 .06 0 .06.03v.06c-.21.98-.4 1.92-.53 2.84-.03.24.03.66.18 1.28.06.26.24.41.2.69a.5.5 0 0 0 .03.25l.13.34c.03.08 0 .15-.07.2l-.32.19a.27.27 0 0 0-.13.19l-.3 2.02a.2.2 0 0 1-.06.12.19.19 0 0 1-.12.05c-.4-.02-.64-.15-.72-.4Z" fill="#4C3F3E"/><path d="M18.35 19.97c.69 1 1.1 1.68 1.23 2.04.18.47.26.94.24 1.38v.69c.02.08.06.14.14.17.4.13.82.15 1.2.31.63.27 1.29.5 1.98.7.45.12.86.34 1.3.52.11.04.24.07.36.07.2 0 .3.16.46.25.64.34 1.32.59 2.03.74.04.16.1.33.2.5.04.08.03.15-.02.22l-.43.59a.33.33 0 0 0-.07.22l.09 1.5-.02.11c-.57.63-.89 1.3-.95 2a.2.2 0 0 0-.17-.01.2.2 0 0 0-.1.1c-.25.55-.69.7-1.34.47-.09-.03-.13 0-.15.09a.66.66 0 0 0 .04.39c.12.25.3.53.56.82l.23 1.17c.02.09-.02.13-.11.13-.7 0-1.36-.08-1.96-.24a.35.35 0 0 0-.25.03l-.48.26a.2.2 0 0 0-.07.28.2.2 0 0 0 .08.07c.35.17.7.12 1.03.28.59.27 1.75.73 2.37.47a.22.22 0 0 1 .2 0c.07.04.13.1.18.17a.2.2 0 0 0 .26.06.19.19 0 0 0 .06-.08c.28-.53.64-.3 1.1-.34.2-.01.4-.04.58-.07.06.24.07.45.03.65-.01.08-.06.12-.14.12l-1.66-.03c-.1 0-.13.04-.1.13.05.13.18.22.4.28.2.4.14.71-.16.97-.38.31-.77.41-1.16.29a3.62 3.62 0 0 1-2.12-1.6c.26.12.5.28.74.48.63.55 1.16.73 1.94.65a.2.2 0 0 0 .17-.12.2.2 0 0 0-.03-.2c-.2-.23-.4-.47-.7-.55a8.08 8.08 0 0 1-2.17-.9c-.55-.34-.6-.27-.18.2l.23.43-1.37-.87c-.3-.19-.47-.1-.5.24-.02.1 0 .26.03.47.02.08.02.16 0 .24l-.24.9a8.64 8.64 0 0 1-.34-1.13 7.88 7.88 0 0 1-.08-1.17c0-.45-.1-.88-.28-1.3.26-.16.5-.1.73.2.05.08.12.1.2.07a.89.89 0 0 0 .6-.75l3.04-2.88c.1.34-.03.68-.36 1.02a.18.18 0 0 0-.04.21c.05.12.15.16.3.13.2-.04.44-.17.75-.38.07-.04.1-.1.11-.2.01-.6.16-1.06.43-1.36.36-.26.47-.79.32-1.59a.4.4 0 0 1 .02-.24c.12-.28.3-.53.51-.74a.28.28 0 0 0-.15-.48 5.21 5.21 0 0 1-1.68-.5 9.21 9.21 0 0 0-1.47-.57c-.1-.03-.17.01-.2.11a.28.28 0 0 1-.08.13.25.25 0 0 1-.25.07c-.68-.16-1.34-.32-1.98-.5-.56-.16-1.12.06-1.52-.48a.37.37 0 0 1-.08-.24l.01-.47c0-.09-.03-.14-.11-.17a.46.46 0 0 0-.25 0c0-.22-.04-.32-.13-.3.13-.06.2-.18.22-.36.04-.39-.04-.76-.24-1.13a9.96 9.96 0 0 1-.8-2.84Z" fill="#5B2D1C"/><path d="m14.51 24.25.05.38c-.09.09-.2.08-.36 0-.07-.05-.13-.04-.18.03-.16.22-.28.49-.37.8a2.62 2.62 0 0 0-1.86-.78.26.26 0 0 0-.23.38 27.94 27.94 0 0 1 1.86 4.2c.07.2.24.54.52 1.04.3.52.33 1 .1 1.43l-2.14-3.5a5.8 5.8 0 0 1-.9-3.05c-.01-1.74 2.5-1.33 3.51-.93Z" fill="#753F23"/><path d="M19.18 24.3c.1-.02.13.08.13.3a2.9 2.9 0 0 0-.44 1.04.48.48 0 0 1-.1.21l-.6.67c-.53.61-.5 1.73-.39 2.48-.04.56.02.94.18 1.13.01.88.17 1.6.49 2.14-.05.47-.12.9-.2 1.3-.05.27-.14.52-.28.73-.17.26-.27.52-.3.78-.07.53-.14.53-.23 0a11.5 11.5 0 0 1-.17-1.87c0-.4-.03-.78-.1-1.16-.17-1.07-.31-1.85 0-2.98a.48.48 0 0 0 0-.25c-.17-.58-.13-1.1.12-1.56.5-.96 1-1.9 1.47-2.84a.27.27 0 0 1 .18-.14.45.45 0 0 1 .24.01Z" fill="#5E5E6C"/><path d="M44.34 24.47c-.53.27-1.06.48-1.6.65a1.6 1.6 0 0 0-.57.3c-.15.13-.3.22-.49.28-.13.05-.24.03-.32-.06-.06-.07-.07-.14-.02-.22.14-.25.22-.49.24-.74.9-.44 1.81-.51 2.76-.2Z" fill="#A97555"/><path d="M14.56 24.63c0-.03.02-.05.05-.06.06-.02.09 0 .1.06.06.42-.07.74-.39.95a.15.15 0 0 0-.06.19c.04.1.09.19.15.27.04.04.05.09.05.14 0 .06-.05.1-.12.13a.91.91 0 0 0-.45-.41.27.27 0 0 1-.15-.17l-.09-.26c.09-.32.21-.6.37-.81.05-.07.11-.08.18-.04.15.1.27.1.36.01Z" fill="#8B878D"/><path d="M19.3 24.6c.1-.03.18-.03.26 0 .08.03.12.08.11.16l-.01.48c0 .09.02.17.08.24.4.54.96.32 1.52.48.64.18 1.3.34 1.98.5.1.02.18 0 .25-.07a.28.28 0 0 0 .07-.13c.04-.1.1-.14.2-.1.54.15 1.03.34 1.48.56.54.28 1.08.41 1.68.5a.28.28 0 0 1 .15.48c-.22.21-.39.46-.5.74a.4.4 0 0 0-.03.24c.15.8.04 1.33-.32 1.59l-.06-1c-.01-.1-.06-.15-.14-.17a.26.26 0 0 0-.2.02c-.1.06-.2.05-.27-.03a.24.24 0 0 1-.05-.06c-.05-.1-.13-.14-.24-.12l-.5.1c-.1.01-.15-.03-.15-.13.05-.7-1-1.45-1.63-1.43-.35.01-.63.08-.85.2a.72.72 0 0 0-.27 1l.43.72c-.4-.17-.67-.48-.83-.94-.03-.08-.06-.09-.09 0-.08.2-.1.45-.07.75a2.3 2.3 0 0 1-.63-.45.65.65 0 0 0-.32-.2c-.17-.03-.31.03-.42.2-.03.06-.02.1.04.14.23.12.37.31.42.57a.56.56 0 0 0 .44.43l3.2.61a4.1 4.1 0 0 1-3.88.3c-.4-.7-1.47-2.3-2.37-1.78-.11-.75-.13-1.87.4-2.48l.59-.67c.05-.06.09-.13.1-.21.08-.39.23-.73.44-1.05Z" fill="#32120B"/><path d="M44.9 25.87c-.55 1.33-.82 2.78-1.66 3.96a50.77 50.77 0 0 0-2.06 3.1c-.27.44-.58.8-.94 1.07-.29.22-.55.28-.78.2l-1.18-.6c-.08-.05-.11-.11-.1-.2l.22-1.2c.1-.18.22-.34.37-.49.36-.34.87-.33 1.22-.72.21-.23.16-.36-.15-.39-.18 0-.3-.1-.35-.26-.03-.1 0-.18.06-.25.52-.54.9-1.24 1.77-1.1a.17.17 0 0 0 .14-.04.16.16 0 0 0 .05-.13l-.09-1.7.3-.29a1.92 1.92 0 0 0 1.1-.8.1.1 0 0 1 .08 0 .1.1 0 0 1 .04.01c.44.32.73.37.87.15.51-.8.87-.91 1.08-.32Z" fill="#753F23"/><path d="M36.5 27.97a2.48 2.48 0 0 1-.94-.71 1.7 1.7 0 0 0-.85-.45c-.2-.06-.51-.05-.92 0-.46.08-.9.05-1.34-.06a9.18 9.18 0 0 1 4.12.13c.1.02.16-.01.2-.1l.43-.9a.16.16 0 0 1 .27-.02c.36.53.32 1.12-.1 1.8-.11.18-.27.24-.47.2-.12-.03-.26.01-.4.11Z" fill="#32120B"/><path d="M32.45 26.75c.44.11.88.14 1.34.07.4-.06.72-.07.92-.01.38.1.66.24.85.45.37.4.68.63.93.71-.02.18-.1.39-.22.62l-.82-.69c-.19-.15-.25-.11-.2.13.04.18-.02.3-.18.36a1.8 1.8 0 0 0-.9-.72c-.15-.04-.25-.03-.3.04h-.08a2.22 2.22 0 0 0-1.44.07c-.37.02-.72.2-1.07.57-.13.13-.3.2-.54.2a.4.4 0 0 0-.22.06c-.46.29-.82.2-1.08-.28-.1-.24-.2-.42-.28-.53-.3-.37-.2-.51.25-.45.1.02.3 0 .58-.05.83-.14 1.65-.32 2.46-.55Z" fill="#1C0701"/><path d="M26.22 30.27c-.28.3-.42.75-.43 1.37 0 .08-.04.15-.1.2-.32.2-.57.33-.75.37-.16.03-.26 0-.31-.13a.18.18 0 0 1 .04-.21c.33-.34.45-.68.36-1.02.34-.33.55-.66.64-1 .12-.44.02-.5-.32-.18-.45.43-.89.7-1.33.8l-3.19-.6a.55.55 0 0 1-.44-.43.82.82 0 0 0-.42-.57c-.06-.03-.07-.08-.04-.15.1-.16.25-.22.42-.18.12.02.22.09.32.19.18.18.39.33.63.45.05.27.32.44.8.52.74.12 1.4-.02 1.99-.41a.4.4 0 0 0 .17-.34c0-.3-.07-.48-.21-.53-.1-.03-.15 0-.18.1-.2.8-.73 1.08-1.58.85l-.43-.73a.72.72 0 0 1 .27-1c.22-.11.5-.18.85-.2.64-.01 1.67.75 1.63 1.44 0 .1.05.14.14.13l.51-.1c.11-.02.2.02.24.12l.05.06c.07.08.16.1.26.03a.26.26 0 0 1 .21-.02c.08.02.13.07.14.16l.06 1Z" fill="#663F2B"/><path d="M23.9 27.57a.73.73 0 0 0-.35-.2l-.17.67-1.25.36c.12.4.42.78.92.9l.33-1.26.67-.2a.66.66 0 0 0-.16-.27Z" fill="#69534C"/><path d="m29.04 28.08-.26 3.41a.44.44 0 0 1-.42.41c-.38.02-.69-.2-.94-.65-.05-.1-.04-.2.05-.27a.19.19 0 0 0 .06-.07c.06-.15.01-.21-.15-.18-.1.02-.2-.01-.26-.09-.16-.18-.1-.43-.08-.66l.02-.12c.36-.49.46-.96.3-1.41a.33.33 0 0 1 .09-.39c.53-.5 1.06-.5 1.59.02Z" fill="#B28164"/><path d="M34.17 27.67c0-.01-.04-.01-.07 0a.07.07 0 0 0-.05.05v.06c.35.59.26 1.06-.24 1.44-.9.66-1.53-.01-2.09-.64-.2-.22-.29-.18-.29.1 0 .07.04.13.13.18.28.18.44.43.49.74-.36 0-.68-.08-.99-.24-.32-.18-.41-.1-.25.24.05.1.19.22.43.34.82.42 1.68.75 2.57 1-.7 0-1.47-.16-2.34-.5-.17.18-.46.09-.87-.27-.4-.36-.53-.28-.37.24.02.06.17.2.44.41.4.31.8.62 1.16.94.46.42 1.07.56 1.65.7.15.04.2-.02.14-.16l-.06-.15a.35.35 0 0 0-.28-.22c-.46-.04-.78-.3-.97-.75.84.39 1.74.5 2.69.34.77-.13 1.33-.43 1.54-1.15.12-.4.32-.78.6-1.13a.2.2 0 0 1 .34.03c.56 1.1-1.02 2.38-1.34 3.34-.18.54-.64.86-.94 1.32-.3.48-.83.34-1.27.12-.49-.6-1.04-1.17-1.65-1.7a2.2 2.2 0 0 0-.64-.42 2.8 2.8 0 0 1-.65-.36.16.16 0 0 0-.25.14l.05.62a.28.28 0 0 1-.26.3c-.04 0-.1-.01-.14-.04-.58-.3-.99-.13-1.23.5h-2.44a.2.2 0 0 1-.2-.12l-.43-1c.06-.7.38-1.36.95-1.99-.01.23-.08.48.08.66.07.08.15.1.26.09.16-.03.21.03.15.18a.19.19 0 0 1-.06.07c-.09.08-.1.17-.05.27.25.46.56.67.94.65a.44.44 0 0 0 .42-.4l.26-3.42.4.25c.26.47.62.57 1.08.28a.4.4 0 0 1 .22-.07c.23 0 .41-.06.54-.19.35-.36.7-.55 1.08-.57-.68 1.5 1.3 2.04 1.59.74.06-.27-.08-.51-.08-.81.05-.07.15-.08.3-.04Z" fill="#87573F"/><path d="M32.68 27.67c.04.18.04.33.01.46-.1.11-.1.26 0 .45.03.05.08.09.14.1.05.03.12.02.17 0a1 1 0 0 0 .5-.56c.2-.08.29-.21.3-.4l.07-.01c0 .3.14.54.08.81-.28 1.3-2.27.76-1.6-.74.1-.05.2-.1.33-.1Z" fill="#A97555"/><path d="M34.17 27.67c.4.16.7.4.9.72.4.62.35 1.05-.15 1.28a3.2 3.2 0 0 1-2.87-.07c-.05-.3-.21-.56-.5-.74-.08-.05-.12-.11-.12-.17 0-.3.1-.33.29-.11.56.63 1.2 1.3 2.09.64.5-.38.59-.85.25-1.44a.07.07 0 0 1 0-.09l.04-.02c.03-.01.06-.01.07 0Z" fill="#B59F96"/><path d="M36.27 28.6c.3 0 .55.09.74.23.08.06.08.12 0 .18-.55.49-.89 1.2-1.5 1.6-.5.35-1.14.15-1.7.32-.9-.24-1.75-.57-2.57-.99-.24-.12-.39-.23-.43-.34-.16-.34-.07-.42.25-.24.3.16.63.25.99.24 1 .48 1.95.5 2.87.07.5-.23.55-.66.15-1.28.16-.06.22-.18.18-.36-.05-.24.01-.28.2-.13l.82.7Z" fill="#753F23"/><path d="M23.1 28.12c.03.12.1.2.2.22-.11.15-.22.26-.34.32a.22.22 0 0 1-.2 0c-.11-.04-.2-.1-.3-.2-.07-.07-.05-.12.04-.16.1-.04.2-.11.27-.2a.17.17 0 0 1 .21-.04l.11.06ZM32.7 28.13l.8-.01a1 1 0 0 1-.5.56.23.23 0 0 1-.17 0 .24.24 0 0 1-.14-.1c-.1-.19-.1-.34 0-.45Z" fill="#1C0701"/><path d="M22.3 29.37c.84.23 1.37-.05 1.57-.85.03-.1.09-.13.18-.1.14.05.21.23.21.53a.42.42 0 0 1-.17.34c-.59.4-1.25.53-1.98.41-.5-.08-.76-.25-.81-.52-.03-.3-.01-.55.07-.75.03-.09.06-.08.09 0 .16.46.43.77.83.94Z" fill="#8B878D"/><path d="M20.15 30.79c-.47-.16-.9-.4-1.3-.73a.13.13 0 0 0-.2.04.13.13 0 0 0-.01.08c.16 1.24 1.76.64 1.68 2.25 0 .1.04.2.12.28.28.28.64.93 1.03 1 .15.02.32.03.53.02a.89.89 0 0 1-.62.75c-.08.02-.14 0-.19-.06-.23-.3-.47-.37-.73-.2a29.6 29.6 0 0 0-.65-1.36c-.49-.96-1.1-1.87-1.85-2.73-.16-.19-.22-.57-.18-1.13.9-.52 1.97 1.08 2.37 1.79Z" fill="#663F2B"/><path d="M25.03 30.85 22 33.73c-.2.01-.38 0-.53-.02-.39-.07-.75-.72-1.03-1a.36.36 0 0 1-.12-.28c.08-1.6-1.52-1-1.68-2.25a.13.13 0 0 1 .21-.12c.4.33.83.57 1.3.73a4.1 4.1 0 0 0 3.87-.31c.44-.11.88-.38 1.33-.81.34-.33.44-.26.32.19-.09.33-.3.66-.64.99Z" fill="#87573F"/><path d="M31.47 30.45c.2.38.48.62.84.73.19.46.51.7.97.75a.34.34 0 0 1 .28.22l.06.15c.06.14.01.2-.14.16a3.65 3.65 0 0 1-1.65-.7c-.37-.32-.75-.63-1.16-.94-.27-.2-.42-.35-.44-.41-.16-.52-.03-.6.37-.24s.7.45.87.28Z" fill="#C29374"/><path d="M17.96 30.13c.75.86 1.36 1.77 1.85 2.73.22.43.44.89.65 1.36.18.4.27.84.28 1.3.01.6.04.99.08 1.16.09.39.2.77.34 1.14.18.37.3.76.39 1.17.06.3-.04.52-.25.71-.07.06-.08.13-.04.2l.88 1.7a.16.16 0 0 0 .1.07.16.16 0 0 0 .12 0c.26-.14.52-.23.78-.28.1-.02.2 0 .28.07.29.22.63.36 1 .43.1.02.17.06.23.11.64.55 1.13.5 1.9.7.47.1.92.04 1.37.23.08.03.13 0 .15-.07a.32.32 0 0 0 .02-.2.19.19 0 0 1 .24-.24c.77.23 1.57.24 2.4.01.03 0 .06-.02.08-.05a.17.17 0 0 0 .04-.08v-.07a.4.4 0 0 1 .13-.23c.59-.6 1.24-1 1.94-1.2.57-.17 1.18-.68 1.17-1.34 0-.31.05-.6.17-.89.24-.55.16-1.1.44-1.64.16-.28.29-.57.4-.87a.3.3 0 0 0-.02-.23c-.24-.55.36-1.18.65-1.62.18-.28.36-.6.54-.95.4-.8.94-1.43 1.62-1.9l.18.38c.04.09.1.1.16.04l.09-.08.08.5-.22 1.2c-.01.09.02.15.1.2l1.18.6-1.19-.1c-.09-.02-.13.03-.14.12a6.1 6.1 0 0 1-1.05 3.72c-.74.95-1.47 1.86-2.2 2.75-2.45 3-5.45 3.84-9.28 3a10.9 10.9 0 0 1-2.15-.77c-.93-.42-1.87-.88-2.82-1.37-.67-.35-1.68-.94-2.01-1.73a9.58 9.58 0 0 1-.69-2.24l.9-2.1a.4.4 0 0 0 .03-.26 1.69 1.69 0 0 1-.02-.64c.04-.25.14-.27.28-.06.12.16.2.33.24.52.1.44.2.44.29 0 .09-.45-.07-.7-.48-.76-.06-.01-.1-.05-.11-.12-.06-.32 0-.55.2-.7.08-.08.08-.15 0-.22l-.42-.36a.37.37 0 0 1-.13-.25c-.02-.18-.1-.3-.26-.36a4.35 4.35 0 0 1-.49-2.14Z" fill="#392822"/><path d="M33.93 34.05c.12.58.3 1.06.2 1.65-.04.25-.1.5-.16.76l-.73 1.16a.47.47 0 0 1-.49.2.48.48 0 0 1-.17-.06c-.19-.12-.35-.12-.48 0-.56.52-1.37.75-2.06.41-.2-.1-.4-.15-.62-.18a.34.34 0 0 0-.22.06c-.1.06-.2.08-.3.07-.08-.01-.12-.05-.13-.13-.03-.18.03-.32.17-.41a.23.23 0 0 1 .2-.04c.35.1.64 0 .86-.26a.68.68 0 0 1 .28-.2l1.58-.62c.19-.08.34-.2.47-.33.06-.07.13-.08.2-.05.15.06.2.16.16.3-.04.2-.07.38-.08.57 0 .28.07.3.25.1.34-.42.58-.89.73-1.4.02-.09-.01-.14-.1-.18l-.17-.07c0-.15-.11-.25-.36-.3-.15-.03-.3-.03-.45-.01a20.55 20.55 0 0 1-2.3.18l-.28.12c-.09.04-.16.02-.22-.05s-.16-.1-.29-.1c.67-.12 1.32-.3 1.94-.55.3-.12.6-.2.86-.25.26-.04.53-.03.81.05a.23.23 0 0 0 .3-.29c-.1-.3-.27-.53-.51-.72-.44-.34-.85-.71-1.24-1.12a.66.66 0 0 0-.4-.2c-.11-.02-.15.03-.11.15.2.54.07.95-.35 1.23-.33.22-.69.42-1.07.6-.27.12-.5.27-.7.44-.46.4-.48.66-.07.78-.14.05-.3.06-.48.05a.13.13 0 0 1-.1-.21l.84-1.2c.26-.3.65-.5 1.18-.64a.1.1 0 0 0 .05-.17c-.08-.12-.2-.22-.34-.31a.34.34 0 0 0-.32-.02l-.55.23c.24-.63.65-.8 1.23-.5a.27.27 0 0 0 .28-.01.27.27 0 0 0 .12-.25l-.05-.62a.15.15 0 0 1 .25-.14c.2.15.41.27.65.37.22.08.44.22.64.4.61.54 1.16 1.11 1.65 1.7Z" fill="#5B2D1C"/><path d="m26.09 31.97.44 1c.03.08.1.12.19.12h2.44l.55-.23a.34.34 0 0 1 .32.02c.14.09.26.19.34.3a.1.1 0 0 1-.05.18c-.53.13-.92.35-1.18.64l-1.02.92a.34.34 0 0 1-.24.1L26.34 35a.52.52 0 0 1-.48-.34 1.43 1.43 0 0 0-.93-.83c-.25-.3-.44-.57-.56-.82a.66.66 0 0 1-.04-.4c.02-.08.06-.1.15-.08.65.23 1.1.08 1.33-.46a.2.2 0 0 1 .11-.11.2.2 0 0 1 .17 0Z" fill="#1C0701"/><path d="M29.42 35.23c-.12.06-.3.1-.53.13-.42-.12-.4-.38.06-.78.2-.17.43-.32.7-.44.38-.18.74-.38 1.07-.6.42-.28.54-.7.35-1.23-.04-.12 0-.17.12-.15.15.02.28.09.39.2.39.41.8.78 1.24 1.12.24.19.41.43.5.72a.23.23 0 0 1-.29.3c-.28-.09-.55-.1-.81-.06-.27.05-.55.13-.86.25-.62.25-1.27.43-1.94.54Z" fill="#87573F"/><path d="M24.93 33.84c.47.17.78.45.93.83a.52.52 0 0 0 .48.34h1.54c.1 0 .18-.03.24-.09l1.02-.92-.83 1.2a.13.13 0 0 0 .1.2c.17.02.33 0 .48-.04.23-.02.4-.07.53-.13.13 0 .23.04.29.11.06.07.13.09.22.05l.27-.12a1.33 1.33 0 0 1 2.76-.17c.25.05.37.15.36.3l-2.12.9c-.08.04-.14.02-.16-.06-.06-.18-.19-.27-.38-.27-.13 0-.16.06-.1.17l.1.23c.07.13.03.2-.12.18-.38-.03-.5-.22-.34-.59.05-.13 0-.2-.14-.18l-.37.04a.18.18 0 0 0-.12.06.18.18 0 0 0-.04.12c0 .14.02.28.08.42a.14.14 0 0 1 0 .11.15.15 0 0 1-.1.08c-.09.03-.19.03-.3.02-.09-.02-.11-.07-.07-.16.06-.11.1-.23.1-.36a.2.2 0 0 0-.12-.2c-.3-.11-.63-.08-.97.12-.18.03-.38.06-.59.07-.45.03-.81-.19-1.09.34a.2.2 0 0 1-.32.02.48.48 0 0 0-.18-.17.23.23 0 0 0-.2 0c-.62.26-1.78-.2-2.37-.47-.34-.16-.68-.11-1.03-.28a.2.2 0 0 1-.09-.28.2.2 0 0 1 .08-.07l.48-.26a.35.35 0 0 1 .25-.03c.6.16 1.26.24 1.96.24.09 0 .13-.04.11-.13l-.23-1.17Z" fill="#32120B"/><path d="m33.32 35.4.18.07c.08.04.1.1.09.18-.15.51-.4.98-.73 1.4-.18.2-.26.18-.25-.1.01-.19.04-.37.08-.56.04-.15-.01-.25-.15-.3-.08-.04-.15-.03-.2.04-.14.14-.3.25-.48.33l-1.58.62a.68.68 0 0 0-.28.2c-.22.27-.5.35-.86.26a.23.23 0 0 0-.2.04c-.14.1-.2.23-.17.41 0 .08.05.12.12.13.11.01.22 0 .31-.07a.34.34 0 0 1 .22-.06c.22.03.43.09.62.18.7.34 1.5.11 2.06-.4.13-.13.3-.13.48-.01a.48.48 0 0 0 .66-.14l.73-1.16c.13-.1.23-.16.3-.2a.15.15 0 0 1 .15.04.14.14 0 0 1 .05.13 4.8 4.8 0 0 1-.84 2.2c-.22.29-.42.6-.6.92a.35.35 0 0 1-.28.19c-.5.06-1.2-.15-1.3.6-.02.2-.13.3-.32.33l-1.1.16a.43.43 0 0 0-.24.12l-.3.3a.26.26 0 0 1-.23.07c-.93-.1-1.28.79-2.25.07-.4-.29-.54-.67-.42-1.15.02-.08-.01-.12-.1-.1-.03 0-.05.02-.06.05a.19.19 0 0 1-.1.14.65.65 0 0 1-.4.07c-.13-.02-.2.04-.19.17.01.16-.03.31-.1.44a.2.2 0 0 1-.18.1l-.75-.02a.3.3 0 0 1-.29-.36l.13-.7c.03-.12.1-.22.22-.27l.61-.28a.3.3 0 0 0 .18-.2l.1-.4a.17.17 0 0 1 .12-.12.17.17 0 0 1 .17.05c.1.11.21.2.35.26.09.04.17.03.25-.03.14-.1.23-.23.28-.4.04-.1.1-.2.2-.25.13-.08.25-.06.36.06.2.2.32.17.39-.1a.67.67 0 0 1 .4-.49.23.23 0 0 0 .05-.39 1.9 1.9 0 0 0-1.56-.29c-.2-.06-.34-.15-.39-.28-.03-.09 0-.13.1-.13l1.65.03c.09 0 .14-.04.15-.12.03-.2.03-.41-.03-.65.34-.2.67-.23.97-.12a.2.2 0 0 1 .12.2c0 .13-.04.25-.1.36-.04.09-.02.14.08.16.1.01.2 0 .3-.02a.15.15 0 0 0 .08-.08.15.15 0 0 0 0-.11 1.17 1.17 0 0 1-.07-.42c0-.05.01-.09.04-.12a.18.18 0 0 1 .12-.06l.37-.04c.15-.01.2.05.14.18-.16.37-.04.56.34.6.15 0 .19-.06.12-.19l-.1-.23c-.06-.1-.03-.17.1-.17.2 0 .32.09.38.27.02.08.08.1.16.07l2.12-.9Z" fill="#87573F"/><path d="M23.24 36.83c-.13-.25-.2-.4-.23-.42-.43-.48-.37-.55.18-.21.59.37 1.31.67 2.16.9.3.08.52.32.7.55a.2.2 0 0 1 .04.2.2.2 0 0 1-.17.12c-.78.08-1.3-.1-1.94-.65-.23-.2-.48-.36-.74-.49Z" fill="#32120B"/></svg>