<svg width="112" height="112" viewBox="0 0 56 56" xmlns="http://www.w3.org/2000/svg"><path d="M28 11a17 17 0 1 1 0 34 17 17 0 0 1 0-34Zm0 1.53a15.47 15.47 0 1 0 0 30.94 15.47 15.47 0 0 0 0-30.94Z" fill="#fff"/><path d="m27.52 15.77 1.57.37c.06.02.11.05.14.1.03.05.05.11.04.17-.05.24-.16.68-.34 1.3-.2.67-.32 1.27-.37 1.8 0 .04 0 .07.02.1.02.02.05.04.09.05l1.4.2a.1.1 0 0 0 .07-.01.1.1 0 0 0 .04-.06l.71-2.96a.23.23 0 0 1 .18-.16h.09l1.6.38a.28.28 0 0 1 .21.34l-.7 2.8c-.05.26.03.42.25.5a6.71 6.71 0 0 1 3.11 1.92c.48.56.72 1.26.74 2.1.02.78-.16 1.5-.55 2.17-.4.69-1 1.12-1.79 1.3-.08.03-.13.06-.15.11v.05a6.76 6.76 0 0 1 1.38 1.24c.88 1.04.93 2.46.15 4.25-.91 2.1-2.8 2.96-5.67 2.55-.53-.07-1-.1-1.41-.1a.19.19 0 0 0-.18.16c-.15 1-.38 1.98-.7 2.95a.23.23 0 0 1-.1.13.23.23 0 0 1-.17.03l-1.7-.4a.13.13 0 0 1-.09-.11v-.05l.73-3.04a.24.24 0 0 0-.17-.29l-1.16-.35a.22.22 0 0 0-.24.08.22.22 0 0 0-.04.08l-.7 2.95a.27.27 0 0 1-.34.2l-1.6-.38a.24.24 0 0 1-.1-.04.24.24 0 0 1-.08-.25l.73-3.07a.19.19 0 0 0-.14-.23l-3.84-.92a.11.11 0 0 1-.08-.06.12.12 0 0 1 0-.1l.94-2.19a.12.12 0 0 1 .14-.07c.65.18 1.09.3 1.33.35.57.12.92-.08 1.05-.6a829.8 829.8 0 0 0 2.23-8.96c.17-.72-.08-1.19-.76-1.38-.86-.25-1.36-.41-1.52-.47a.2.2 0 0 1-.12-.24l.55-1.78a.16.16 0 0 1 .2-.1l3.73.89a.28.28 0 0 0 .34-.21l.68-2.82a.3.3 0 0 1 .14-.19.3.3 0 0 1 .23-.03Zm-1.1 12.52a.19.19 0 0 0-.09.12l-1.06 4.15a.19.19 0 0 0 .07.2c.02.02.05.03.07.03l2.09.53c.46.12.93.18 1.38.19.45 0 .88-.05 1.25-.16.38-.1.7-.27.93-.47.24-.2.4-.45.47-.72l.1-.42a1.4 1.4 0 0 0-.06-.85c-.12-.3-.32-.59-.6-.86a4.38 4.38 0 0 0-1.02-.73c-.4-.22-.85-.39-1.3-.5l-2.1-.53a.19.19 0 0 0-.14.02Zm1.69-6.23a.2.2 0 0 0-.25.14l-.93 3.71a.2.2 0 0 0 .07.22.2.2 0 0 0 .08.03l1.73.44c.38.1.77.14 1.14.13.38 0 .73-.06 1.05-.17.31-.1.58-.26.78-.45.2-.2.34-.42.4-.67l.09-.34c.12-.5-.06-1.05-.52-1.54a3.95 3.95 0 0 0-1.9-1.07l-1.74-.43Z" fill="#fff"/></svg>