<svg width="112" height="112" viewBox="0 0 56 56" xmlns="http://www.w3.org/2000/svg"><path d="M44 32.27c0 .53-7.16 3.63-16 3.63s-16-3.1-16-3.63c0-.53 7.16-.96 16-.96s16 .43 16 .96Z" fill="url(#a)"/><path d="M28 34V9c-.66 0-1.41.7-1.86 9.23A13.22 13.22 0 0 1 16.02 30.7c-2.33.45-3.36 1.1-3.58 1.3 4.07 1.89 12.11 2 15.56 2Z" fill="url(#b)"/><path d="M28 34V9c.66 0 1.37.7 1.81 9.23A13.16 13.16 0 0 0 39.85 30.7c2.33.45 3.43 1.1 3.65 1.3-4.07 1.89-12 2-15.5 2Z" fill="url(#c)"/><path d="M28 35.5V45c-.7 0-1.72-.3-2.52-2.27s-3-6.52-7.47-7.88C13.55 33.5 12 32.96 12 32.4c0-.38.47-.39.49-.39.88 2.24 11.97 3.5 15.51 3.5Z" fill="url(#d)"/><path d="M28 35.5V45c.7 0 1.68-.3 2.48-2.27s2.91-6.52 7.38-7.88C42.32 33.5 44 32.88 44 32.31c0-.31-.5-.31-.5-.31-.88 2.24-11.92 3.5-15.5 3.5Z" fill="url(#e)"/><defs><linearGradient id="a" x1="12" y1="33.61" x2="44" y2="33.61" gradientUnits="userSpaceOnUse"><stop stop-color="#E45957"/><stop offset=".49" stop-color="#FCFFFF"/><stop offset="1" stop-color="#D74B73"/></linearGradient><linearGradient id="b" x1="16.6" y1="17.7" x2="27.06" y2="31.68" gradientUnits="userSpaceOnUse"><stop stop-color="#FBA157"/><stop offset="1" stop-color="#FD5E41"/></linearGradient><linearGradient id="c" x1="41.26" y1="28.33" x2="27.95" y2="34.03" gradientUnits="userSpaceOnUse"><stop stop-color="#FBA157"/><stop offset=".63" stop-color="#F74754"/><stop offset="1" stop-color="#E53284"/></linearGradient><linearGradient id="d" x1="22.74" y1="34.68" x2="20.49" y2="42.13" gradientUnits="userSpaceOnUse"><stop stop-color="#D013C7"/><stop offset="1" stop-color="#FE7647"/></linearGradient><linearGradient id="e" x1="34.28" y1="35.11" x2="34.84" y2="44.26" gradientUnits="userSpaceOnUse"><stop stop-color="#C808E0"/><stop offset="1" stop-color="#F34260"/></linearGradient></defs></svg>