<svg xmlns="http://www.w3.org/2000/svg" width="112" height="112" viewBox="0 0 56 56"><rect fill="#FFF700" width="56" height="56" rx="28"/><path fill-rule="evenodd" d="M25.89 20c-.08 1.66-.16 4.7.02 6.31.12 1.1.4 2.45.84 3.7a6.9 6.9 0 001.82 2.98c.63.51 2.05 1.3 3.6 2.06.75.38 1.53.75 2.24 1.08l1.77.47c.5.15 1.64.35 2.1-.1.6-.54.1-1.83-.48-3.04-.45-.97-2.46-1.15-3.4-1.11-.28-.04-.85-.14-.85-.25.01-.1.16-.15.24-.16 3.41.33 5.97-.47 6.83-.91.04-.04.1-.1.14-.17l.03-.54c-.21-.15-.81-.04-1.32.05-.18.04-.35.07-.48.08-.34.04-2.4.2-3.94.3-.91.15-1.8.2-1.99.15-.3-.07-1.8-.87-2.5-1.27a6.18 6.18 0 01-1.7-.16c-.16-.11-.83-.73-.8-.93.02-.16.15-.17.21-.15.19.23.64.74 1 .9.35.16 1.3-.07 1.72-.2.47-.26 1.56-.85 2.23-1.18.65-.3 1.12-1.08 1.37-1.5l.17-.25c.13-.16.25-.07.3 0-.14.25-.41.85-.47 1.24s.48.5.75.51c.62-1.02 2.84-1.3 3.86-1.3.03-.04.07-.2 0-.45-.08-.32-1.52-1.92-2.19-2.62-.53-.56-.59-1.6-.55-2.06.09-.35.46-1.06 1.22-1.16.5-.06.94.07 1.24.2a50.47 50.47 0 00-.82-1.54 4.1 4.1 0 00-.32-.46l-1.04 1.6c-.77.12-2.2 0-2.83-.76-.67-.8-.69-1.6-.66-1.81-1.47-.14-4.9.19-7.36 2.46zm12.16-1.91l.14.15c.1.13.22.3.33.48.22.37.47.83.7 1.3l.45.9.22.45c.2.4.35.69.43.8.11.16.16.38.17.59.02.21.01.46-.01.7-.04.42-.12.85-.2 1.17.15.13.33.29.5.46.23.21.46.45.58.64.08.14.12.32.13.49.02.18.02.38.02.59-.02.4-.07.84-.11 1.12l-.16 3.17c-.09.87-.29 2.88-.38 4.05-.05.55-.25 1-.5 1.37.02 1.12-.74 1.5-1.14 1.54h-3.34l-1.08-1.2c-.76-.35-1.62-.76-2.47-1.18-.23.39-.46.97-.33 1.48.17.66 1.13 2 1.59 2.59-.3 1.3-1.24 4.15-2.54 5.25.38-.91.95-3.12.11-4.62-1-1.78-2.14-3.81-1.1-5.87-.77-.42-1.41-.82-1.8-1.14a7.37 7.37 0 01-1.97-3.2 17.52 17.52 0 01-.87-3.8 50.5 50.5 0 01-.03-6.2c-.65-1.35-1.3-3.96.61-5.3.13-.04.39.02.38.57-.02.54 1.32 1.68 2 2.18.1.1.46.26 1.08 0a8.54 8.54 0 00-1.63-1.2c.86-.77 3.32-1.82 6.32.19l.35-.32a6.14 6.14 0 00-1.54-.85c.1-.44.31-1.36.29-1.58-.03-.28.57.18.73.38l1.36 1.46 7.13-5.63a.33.33 0 01.48.44l-4.9 7.58zm-3.29-.71c-.16-.13-.07-.5 0-.6l6.92-5.7-.57.58c-2.15 2.2-5.59 5.72-5.69 5.8-.1.06-.45.07-.66-.08zm-15.84 2.59c.63-.87 2.52-2.63 4.97-2.75-.12.8-.16 2.58.67 3.32-1.97-.94-4.58-.77-5.64-.57zm20.12.79l.19.38.22.45c.19.38.36.72.47.87.03.05.07.15.08.34.02.17.01.39-.01.61-.04.46-.14.95-.22 1.25l-.04.15.12.1.6.54c.22.21.41.42.5.55.01.03.04.11.05.27a9.93 9.93 0 01-.1 1.6l-.02.62a.33.33 0 00-.16.16c-.08.19-.15.68-.17.9h-.68l-1.22-1.41.12-.23c.29-.23.87-.85.84-1.48-.02-.63-.97-1.59-1.44-1.99.5.04 1.52.08 1.56-.07.04-.19-.29-1.03-.96-1.12-.55-.06-1 .34-1.17.55-.18-.48-.49-1.5-.24-1.82l.1-.11c.3-.38.78-1 1.58-1.11zm1.61 11.28c-.07.02-.13.02-.18-.03-.2-.18-.88.1-1.18.34-.25.2-.21.65-.16.86l.5 1.6c-.04.35-.08 1.1.09 1.35.1.15.27-.02.42-.24.12-.23.2-.5.22-.8.07-.85.2-2.11.3-3.08zm-3.3-1.76c-.05-.01-.11-.1-.17-.18a.4.4 0 00.06-.07l.2-.34c.28-.48.48-.83.65-.8.01 0 .04 0 .06-.02.4.38.92.9.84 1.04-.12.22-1.54.4-1.64.37zm-5.63-.75c-.06-.07-.16-.22-.09-.32.09-.11 2.33-1.55 2.49-1.53.08 0 .23.16.38.32.16.16.32.33.42.34l.35.02c.46 0 1.17.02 1.24.1.07.1-.1.54-.2.75-.23.29-.93.87-1.89.93-1.19.07-2.12-.08-2.7-.61zm1.14-9.43a3.82 3.82 0 00-4.34 1.68c.99-.97 1.8-1.1 3-1.2 1.19-.1 2.93 1.2 3.04 1.99.1.63-.35 1.08-.58 1.23a2.6 2.6 0 00-3.33.21c-.32.21-.44.63 1.69.62 2.13-.02 2.85-1.54 2.94-2.3.17-.48-.07-1.6-2.42-2.23zM17.2 22.6c-.81-.06-2 .26-2.49.42 1.56-1.59 3.3-2.59 5.68-2.61 1.9-.02 4.07.81 4.91 1.23v.97c-.92.13-2.92.41-3.5.41-.47 0-1.86-.14-3.04-.26-.63-.07-1.2-.13-1.56-.15zm-4.43 12.7v-1.4c.13-1.27.96-4.05 3.17-4.98 2.75-1.15 4.93-2.28 6.09-3.28.93-.8 2.42-1.94 3.05-2.4-.91.2-3.03.59-4.21.41a25.9 25.9 0 01-.4-.06c-1.8-.3-5.96-.98-8 2.05-2.19 3.28-1.78 6.46.3 9.67zm.75-1.93c-.75 4.82 3.31 8.15 5.43 9.22-.93-1.47-1.3-6.07 1.07-8.73 3.08-3.46 3.28-6.83 3-8.09-.9.79-3.33 2.55-5.83 3.31-2.5.76-3.48 3.17-3.67 4.29z"/></svg>