<svg width="112" height="112" viewBox="0 0 56 56" xmlns="http://www.w3.org/2000/svg"><rect fill="#181B1E" width="56" height="56" rx="28"/><path fill-rule="evenodd" d="M28.04 44C36.86 44 44 36.84 44 28s-7.14-16-15.96-16a15.98 15.98 0 0 0-15.96 16c0 8.84 7.15 16 15.96 16ZM28 43a15 15 0 1 0 0-30 15 15 0 0 0 0 30Z" fill="#F8F6F8"/><path d="m28 22 7 12H21l7-12Z" fill="#A609C9"/><path d="M28.13 24.03 33.51 34H22.75l5.38-9.97Z"/><path d="M44 39H12l15.5-27 3.44 5.21-1.34 1.42-1.38-1.42L18.84 35H37.6l-1.83-3h3.83L44 39Z" fill="#A609C9"/><path d="m39.38 32.45 3.6 6.55H13.44L28.2 12.08l2.77 5.06-1.56 2.42-1.21-2.35L18.62 36H37.8l-1.72-3.55h3.3Z"/><ellipse cx="28" cy="22.5" rx="24" ry="2.5" fill="#B911EB"/><ellipse cx="28" cy="22.5" rx="24" ry=".5" fill="#D9D9D9"/><path d="M44.09 21H45v3h-.91v-1.26H40.9V24H40v-3h.91v1.08h3.18V21ZM34.04 24c-.45 0-.85-.04-1.2-.12a2.66 2.66 0 0 1-.84-.32l.05-.68c.22.17.5.3.8.4.32.09.74.14 1.27.14.65 0 .97-.13.98-.37 0-.07-.06-.13-.17-.16a1.69 1.69 0 0 0-.44-.06h-.6a5.84 5.84 0 0 1-1.24-.16.92.92 0 0 1-.44-.27.72.72 0 0 1-.17-.5c0-.6.6-.9 1.79-.9a5.75 5.75 0 0 1 2 .26v.72h-.24a1.5 1.5 0 0 0-.73-.3 4.94 4.94 0 0 0-1.75-.02c-.15.05-.22.12-.22.23 0 .08.06.15.17.19.12.03.26.06.45.06l.6.01a6.76 6.76 0 0 1 1.27.14c.18.06.33.14.45.27a.7.7 0 0 1 .17.49c0 .23-.08.42-.24.56-.15.14-.37.24-.65.3a5.3 5.3 0 0 1-1.07.09ZM24.87 24l-.37-.66h-2l-.37.66H21l1.97-3h1.06L26 24h-1.13Zm-2-1.33h1.25l-.57-1h-.1l-.57 1ZM16.09 21H17v3h-.91v-1.26H12.9V24H12v-3h.91v1.08h3.18V21Z"/></svg>