<svg width="112" height="112" viewBox="0 0 56 56" xmlns="http://www.w3.org/2000/svg"><rect fill="#F0F3FA" width="56" height="56" rx="28"/><path d="M34.93 26.1c.06.1.02.17-.1.19a.13.13 0 0 1-.13-.07l-.4-.73h.02c.03.1.03.22 0 .32-.13-.2-.23-.42-.27-.68a.2.2 0 0 0-.09-.13.35.35 0 0 1-.14-.19 53.12 53.12 0 0 0-.75-1.9c-.3-.46-.6-.93-.87-1.4-.23-.38-.48-.7-.77-.94-.47-.4-.8-.64-1-.7-.35-.13-.65-.35-.97-.45a10.82 10.82 0 0 0-.55-.18.33.33 0 0 1-.02-.05.11.11 0 0 0-.08-.07c-.4-.1-.76-.28-1.17-.3-.36-.02-.73-.03-1.11-.03-.22 0-.33.12-.35.34 0 .07-.06.16-.19.28-.27.26-.5.58-.85.7-.96.35-1.72.24-2.27-.71a.34.34 0 0 1-.04-.18c0-.2-.05-.37-.17-.51a.17.17 0 0 0-.17-.06c-.87.17-1.64.4-2.29.67-.17.07-.33.12-.47.14-.23.03-.39.07-.47.1a8.3 8.3 0 0 0-1 .54.7.7 0 0 1-.31.08.3.3 0 0 0-.17.08l-.71.62c.08-.19.25-.4.49-.64.14-.14.13-.23-.04-.26 1.52-.72 3.08-1.3 4.71-1.71 1.28-.33 2.69-.36 4.23-.1 1.31.23 2.26.47 2.84.73a7.43 7.43 0 0 1 4.06 3.73c.27.52.8 1.68 1.57 3.48Z" fill="#F56269"/><path d="m34.33 25.81.77 1.67c0 .02.02.03.03.02.02 0 .04-.02.04-.04v-.06a25.9 25.9 0 0 0-.7-1.51c-.04-.08-.09-.1-.14-.08a.78.78 0 0 0 0-.32h-.02l.39.73c.01.03.03.05.06.06.02.01.05.02.08.01.11-.02.15-.08.1-.18l1.29 2.8c-.15.1-.27.12-.39.03-.4-.28-.74-.4-1.04-.32a4.48 4.48 0 0 0-1.6-.22l-2.5-.06c-.27-.01-.53-.12-.8-.17a.3.3 0 0 0-.17.01c-.1.03-.2.02-.3-.05a.29.29 0 0 0-.17-.04l-1.97.14h-.03a.05.05 0 0 0 .01.08l.08.03c.13.05.13.07-.01.06a.89.89 0 0 0-.74.28.17.17 0 0 1-.15.05c-.18 0-.35.02-.5.08-.15.06-.26.04-.35-.07a.18.18 0 0 0-.18-.06c-.27.06-.55.08-.83.05-.04 0-.05.01-.06.04 0 .04-.02.06-.04.06h-.72c-.06 0-.08-.03-.08-.09.01-.13-.03-.23-.12-.3-.32-.24-.54-.43-.58-.87a8 8 0 0 1 0-1.19.23.23 0 0 0-.07-.17c-.04-.05-.05-.1-.03-.15a.2.2 0 0 0-.02-.17.7.7 0 0 1-.07-.53.25.25 0 0 0-.02-.18l-.04-.1a.2.2 0 0 1 0-.2c.11-.17.12-.33.04-.5a.47.47 0 0 1-.05-.21v-.29a.18.18 0 0 0-.06-.12.6.6 0 0 0-.54-.17c-.03 0-.05 0-.07-.04a.2.2 0 0 1-.01-.08c0-.16-.05-.23-.16-.23l-1.08-.02c-.07 0-.11-.03-.14-.1-.03-.11-.1-.13-.17-.05a.1.1 0 0 1-.1.02.1.1 0 0 1-.07-.07.22.22 0 0 0-.1-.15c-.09-.05-.14-.07-.17-.07-.34.02-.69-.01-1.02-.09a.66.66 0 0 0-.2 0l-.75.08c-.07 0-.1-.03-.07-.1.01-.05 0-.1-.06-.14-.17-.13-.3-.14-.41-.04a.21.21 0 0 1-.2.06.2.2 0 0 1-.15-.14.37.37 0 0 0-.27-.25.1.1 0 0 0-.08 0 .11.11 0 0 0-.05.07c-.04.13-.12.21-.23.25l.5-1.62.71-.62a.3.3 0 0 1 .17-.08.7.7 0 0 0 .3-.08c.33-.2.66-.38 1.01-.54.09-.03.24-.07.47-.1.14-.02.3-.07.47-.14.65-.28 1.42-.5 2.3-.67.06-.02.12 0 .17.06.11.14.17.31.16.51 0 .07.01.12.05.18.54.95 1.3 1.06 2.26.72.36-.13.58-.45.85-.71.13-.12.19-.21.2-.28 0-.22.12-.33.34-.34.38 0 .75 0 1.1.03.42.02.78.2 1.18.3.04 0 .07.03.08.07l.02.05a10.86 10.86 0 0 1 .55.18c.32.1.62.32.97.44.2.07.53.3 1 .7.29.25.54.57.77.95.28.47.57.93.87 1.4a53.11 53.11 0 0 1 .74 1.91c.04.07.08.13.15.18a.2.2 0 0 1 .09.13c.05.26.14.49.28.68Z" fill="#E0393C"/><path d="M17.52 19.98c.17.03.18.12.04.26-.24.24-.4.45-.5.64l-.49 1.62a32.94 32.94 0 0 0-.18 6.4l.3 3.42a31.1 31.1 0 0 0-5.77 2.95c-.28.18-.54.55-.9.62-.06-2.1.05-4.16.31-6.2.17-1.27.43-2.62.92-3.76.96-2.2 2.59-3.5 4.52-4.92a8.44 8.44 0 0 1 1.75-1.03Z" fill="#D4928A"/><path d="M33.2 28.4c-1.18-.02-2.3.15-3.5.26-.67.06-1.35.24-2 .34-.17.03-.37.08-.59.15a8.8 8.8 0 0 1-1.25.33.1.1 0 0 0-.08.05.14.14 0 0 1-.1.07c-.46.1-.93.2-1.38.35-.37.1-.83.22-1.39.33-.6.13-1.19.32-1.75.58-.21.1-.42.18-.62.23-.4.11-.76.33-1.1.3-.07 0-.13.01-.2.04a3.9 3.9 0 0 1-1.26.22.26.26 0 0 1-.17-.06c-.1-.07-.21-.13-.33-.17a.18.18 0 0 1-.12-.13 1.53 1.53 0 0 0-.22-.5.34.34 0 0 1-.05-.16L17 29.3a.18.18 0 0 0-.05-.12.22.22 0 0 1-.06-.13c-.04-.52-.06-1.04-.04-1.55 0-.06-.02-.1-.06-.14-.04-.03-.05-.06-.05-.11l.02-.16a34.76 34.76 0 0 1-.07-2.29.11.11 0 0 0-.06-.06.1.1 0 0 0-.04 0h-.05c-.05 0-.07.01-.07.06l-.09 4.1c-.14-2.17-.08-4.3.18-6.41.11-.04.19-.12.23-.25 0-.02.03-.05.05-.06a.1.1 0 0 1 .08-.01c.14.04.23.12.27.25a.21.21 0 0 0 .15.14.2.2 0 0 0 .2-.06c.1-.1.24-.1.4.04.06.04.08.09.07.15-.03.06 0 .1.07.09l.75-.09.2.01c.33.08.68.1 1.02.1.03 0 .08.01.16.06.06.04.1.08.1.15l.03.05a.1.1 0 0 0 .1.03.1.1 0 0 0 .05-.03c.08-.08.14-.06.17.05.03.07.07.1.14.1l1.08.02c.1 0 .16.07.16.23l.01.08c.02.03.04.04.07.04.2-.04.39.02.54.17a.17.17 0 0 1 .06.12v.29c0 .07.02.14.05.21.08.17.07.33-.03.5a.2.2 0 0 0-.01.21l.04.1c.03.05.04.11.02.17a.7.7 0 0 0 .07.53.2.2 0 0 1 .02.17c-.02.05-.01.1.03.15.05.05.07.1.06.17a8 8 0 0 0 .01 1.2c.04.43.26.62.58.86.1.07.13.17.12.3 0 .07.02.1.08.1l.72-.01c.02 0 .03-.02.04-.06 0-.03.02-.04.06-.04.28.03.56 0 .83-.05a.18.18 0 0 1 .18.06c.08.1.2.13.34.07.16-.06.33-.09.5-.08.07.01.12 0 .16-.05.19-.2.44-.3.74-.28.14 0 .14-.01.01-.06l-.08-.03a.05.05 0 0 1-.02-.05.05.05 0 0 1 .04-.03l1.97-.14c.06 0 .12 0 .18.04.1.07.2.08.3.05a.3.3 0 0 1 .16-.01c.27.05.53.16.8.17l2.5.06Z" fill="#D03032"/><path d="M33.2 28.4c.47-.03 1 .04 1.6.22a.97.97 0 0 1-.67.1 9.34 9.34 0 0 0-3.44.06c-1.12.24-2.32.23-3.37.73a.15.15 0 0 0-.08.14c0 .03 0 .06.02.08l.06.06c.47.22.96.37 1.48.44.33.04.62.1.87.19.29.1.58.18.87.25.86.2 1.72.43 2.56.69.69.2 1.43.35 2.14.54 1.02.27 1.86.4 2.83.53.77.1 1.83.29 2.77.33 1.08.06 2.34.2 3.53.07.03 0 .05 0 .08.02l.05.02c.05.02.1.02.15 0 .31-.17.65-.25 1-.25.06 0 .12-.02.17-.06.36-.27.8-.34 1.14-.53l.58-.31a.3.3 0 0 1 .2-.04c.56.07.85-.04.88-.35l.28.11c.07.13.08.21 0 .25a.57.57 0 0 1-.37.02.35.35 0 0 0-.2 0c-.73.22-1.42.53-2.08.94-.33.21-.8.36-1.2.6-.27.16-.55.3-.83.43-.34.14-.62.28-.83.42a29.49 29.49 0 0 1-5.05 2.55c-.29.11-.66.18-.98.33-.25.12-.5.2-.72.26-.34.09-.7.26-1.02.32-.95.18-1.9.24-2.87.18a.09.09 0 0 1-.08-.05c0-.03-.03-.04-.05-.05-.89-.13-1.76-.31-2.62-.55a.36.36 0 0 1-.17-.1.38.38 0 0 0-.34-.11.1.1 0 0 1-.1-.04.1.1 0 0 1-.02-.08.05.05 0 0 0-.01-.04.04.04 0 0 0-.05-.01c-.12.04-.22.03-.3-.04a.38.38 0 0 0-.16-.08c-1.1-.26-2.18-.6-3.24-1a.69.69 0 0 0-.2-.06.37.37 0 0 1-.18-.05 2.27 2.27 0 0 0-1.32-.37l-.16-.25a.23.23 0 0 0-.16-.1c-.64-.12-1.23-.24-1.87-.46-.85-.3-1.7-.58-2.55-.85-.46-.14-1.24-.5-1.93-.61a.3.3 0 0 1-.15-.07c-.1-.09-.15-.19-.14-.3 0-.08-.02-.12-.1-.13l-.16-.02-.3-3.41.1-4.1c0-.05.01-.07.06-.07h.05a.1.1 0 0 1 .1.07l.01.04c0 .75.02 1.5.06 2.25l-.02.16c0 .05.01.08.05.11.04.04.06.08.06.14-.02.51 0 1.03.04 1.55 0 .05.02.1.06.13.03.03.05.07.05.12l.08 1.32c0 .06.02.1.05.16.1.15.17.32.22.5.01.06.05.1.12.13.12.04.23.1.33.17.05.04.1.06.17.06.43 0 .85-.08 1.26-.22a.47.47 0 0 1 .2-.03c.34.02.7-.2 1.1-.3.2-.06.4-.14.62-.24a8.25 8.25 0 0 1 1.75-.58c.56-.11 1.02-.22 1.39-.33.45-.14.91-.26 1.38-.35.05 0 .08-.03.1-.07a.1.1 0 0 1 .08-.05 8.8 8.8 0 0 0 1.25-.33c.22-.07.42-.12.58-.15.66-.1 1.34-.28 2-.34 1.2-.1 2.33-.28 3.5-.26Z" fill="#E42021"/><path d="M34.33 25.81c.05-.02.1 0 .13.08a25.94 25.94 0 0 1 .71 1.57c0 .02-.02.03-.04.04-.01 0-.03 0-.04-.02l-.76-1.67Z" fill="#F56269"/><path d="M34.8 28.62c.3-.07.64.04 1.04.32.11.09.24.08.38-.03.02.07.1.12.24.15 4.04.75 8.09 1.5 12.16 2.27-.03.3-.32.42-.88.35a.3.3 0 0 0-.2.04l-.58.31c-.34.2-.78.26-1.14.53a.27.27 0 0 1-.17.06c-.35 0-.69.08-1 .25a.16.16 0 0 1-.15 0l-.05-.02a.13.13 0 0 0-.08-.02c-1.19.12-2.45-.01-3.53-.07-.94-.04-2-.23-2.77-.33a20.4 20.4 0 0 1-2.83-.53c-.71-.2-1.45-.33-2.14-.54-.84-.26-1.7-.49-2.56-.7-.29-.06-.58-.14-.87-.24a4.48 4.48 0 0 0-.87-.2 4.8 4.8 0 0 1-1.54-.49.16.16 0 0 1 0-.16.15.15 0 0 1 .06-.06c1.05-.5 2.25-.49 3.37-.73.9-.2 2.3-.27 3.44-.05.24.04.46 0 .67-.11Z" fill="#F7282B"/><path d="M48.9 31.44c.67.06 1.03.38 1.09.96.18 1.62-1.77 2.23-2.99 2.12-.61-.06-1.42-.19-2.41-.4-.55-.12-.9.1-1.34.36a30.35 30.35 0 0 1-7.74 3.36c-.72.18-2.03.22-2.95.05-2.81-.54-5.54-1.57-8.25-2.5-.25-.1-.38-.2-.4-.28.5 0 .94.11 1.32.37.05.03.11.05.17.05.08 0 .15.03.21.05 1.06.42 2.14.75 3.24 1.01.06.02.11.04.16.08.08.07.18.08.3.04h.03a.04.04 0 0 1 .03.03v.02c0 .03 0 .06.02.08a.1.1 0 0 0 .1.04c.13-.02.25.02.34.11.05.05.1.08.17.1.86.23 1.73.42 2.62.55.02 0 .04.02.05.05.02.03.05.05.08.05.97.06 1.92 0 2.87-.18.33-.06.68-.23 1.02-.32.23-.06.47-.15.72-.26.32-.15.7-.22.98-.33a29.49 29.49 0 0 0 5.05-2.55c.22-.14.5-.28.83-.42a7 7 0 0 0 .83-.43c.4-.24.87-.39 1.2-.6a8.33 8.33 0 0 1 2.09-.94.35.35 0 0 1 .19 0c.15.03.28.03.38-.02.07-.04.07-.12 0-.25Z" fill="#8D5A36"/><path d="m16.7 32.32.15.02c.08 0 .11.05.1.13 0 .11.04.21.14.3.05.04.1.06.15.07.69.11 1.47.47 1.93.61.85.27 1.7.55 2.55.85.64.22 1.23.34 1.87.46.07.01.12.05.16.1l.16.25c.02.08.15.17.4.27-.43-.12-.79-.23-1.25-.16-3.12.48-6.25.9-9.39 1.24-1.04.12-1.96.13-2.94.08-.42-.02-.66-.24-.72-.65.38-.07.63-.44.9-.62a31.1 31.1 0 0 1 5.78-2.95Z" fill="#8C100F"/></svg>