<svg width="112" height="112" viewBox="0 0 56 56" xmlns="http://www.w3.org/2000/svg"><rect fill="#F0F3FA" width="56" height="56" rx="28"/><path d="M24.45 44.14c-.07-.31-.1-.63-.06-.94a.08.08 0 0 0-.05-.09L12.2 36.64a.4.4 0 0 1-.15-.14.38.38 0 0 1-.06-.2V19.72c0-.07.02-.15.06-.21.04-.07.1-.12.17-.16l13.37-7.12c.3-.16.4-.4.65-.6a2.8 2.8 0 0 1 3.33-.15c.32.21.52.59.86.77l13.23 7.05c.22.11.33.27.33.47V36.3a.4.4 0 0 1-.06.21.43.43 0 0 1-.16.15l-4.35 2.32-.49.31c-.23.15-.52.22-.74.34l-3.8 2.03c-.2.11-.67.43-1.03.58-.55.24-1.08.55-1.6.83a.16.16 0 0 0-.1.13l-.08.98a.03.03 0 0 0 0 .02.03.03 0 0 0 .03 0l1.32.03a.3.3 0 0 1 .22.1.27.27 0 0 1 .07.21l-.02.1c-.04.25-.18.37-.43.37h-9.52c-.25 0-.39-.12-.4-.37l-.01-.1a.3.3 0 0 1 .08-.22.32.32 0 0 1 .23-.1l1.24-.01c.05 0 .06-.02.05-.06Zm1.97-31.07-.01 1.7a.34.34 0 0 0 .14.27l1.18.89a.5.5 0 0 0 .6 0l1.2-.9a.32.32 0 0 0 .08-.1.3.3 0 0 0 .04-.14v-1.8c-.32-1.68-3.24-1.54-3.23.08Zm-13.3 22.39 11.18-5.93a.15.15 0 0 0 .06-.06 220.81 220.81 0 0 1 .03-2.91c0-.27.14-.41.41-.43.3.02.45.18.45.48V43.8c0 .4.43.41.73.4.04 0 .06-.01.06-.05l.67-13.08c.02-.4.2-.7.54-.93.67-.46 1.65-.22 1.97.49.07.17.12.5.15 1l.58 12.3c.02.27.15.35.41.24l.05-.02c.26-.1.4-.3.4-.57-.01-5.7-.02-11.36-.01-16.96 0-.29.13-.45.41-.48.29.02.43.18.43.48a3939.86 3939.86 0 0 1 .02 2.88l.03.03 11.3 6 .08.07c.04 0 .06-.01.06-.05v-4.62a.08.08 0 0 0-.03-.03l-1.32-.7a.3.3 0 0 1-.14-.18.28.28 0 0 1 .02-.22l.06-.1a.4.4 0 0 1 .24-.18.42.42 0 0 1 .31.04l.8.43h.05l.01-.01v-.02l.01-4.53c0-.02 0-.05-.02-.07a.14.14 0 0 0-.05-.05l-1.22-.64c-.22-.12-.27-.29-.14-.5l.05-.1a.33.33 0 0 1 .2-.14.34.34 0 0 1 .25.03l.87.46h.02a.04.04 0 0 0 .03-.01l.01-.02V20c0-.03 0-.05-.02-.07a.14.14 0 0 0-.05-.05l-12.5-6.67c-.04-.02-.06-.01-.06.03 0 .58.11 1.48-.11 2-.21.34-.46.5-.77.76a.09.09 0 0 0-.03.08c.1.62.33 1.17 1.02 1.36.36.1.88.33 1.58.7.34.3.59.55.75.77.23.3.38.67.46 1.13-.03.46-.04.91-.03 1.34.04 1.18.04 2.05.04 3.07 0 .72-.34 1.2-1 1.43-.38.13-.85.12-1.27.12H24.1a1.48 1.48 0 0 1-1.46-1.55c.03-1.23.02-2.69-.04-4.37.06-.51.26-.96.58-1.33.09-.1.3-.3.65-.6l.6-.33c.53-.27 1.5-.43 1.75-.99.12-.24.2-.5.24-.74l-.01-.1a.16.16 0 0 0-.07-.06 2.89 2.89 0 0 1-.73-.65 10.9 10.9 0 0 1-.07-2.1.04.04 0 0 0-.04 0l-12.54 6.7a.12.12 0 0 0-.04.04.11.11 0 0 0-.02.06v4.39a.03.03 0 0 0 .02.02h.03l2.37-1.27a.34.34 0 0 1 .25-.03c.08.02.15.08.2.15l.05.09c.12.22.07.38-.15.5l-2.69 1.43a.16.16 0 0 0-.06.06.15.15 0 0 0-.02.08V29.94l.02.01h.04l2.29-1.22c.23-.12.41-.07.55.15l.04.07a.3.3 0 0 1-.02.35.32.32 0 0 1-.1.08l-2.8 1.49-.01.01v.02l-.01 4.62v.02l.03.02a.05.05 0 0 0 .05 0l.14-.1Zm16.43-10.33a5.46 5.46 0 0 1-2.53-.55c-.57-.27-.24-.96.4-.81.3.07.6.13.9.17.03 0 .06 0 .07-.04.2-.5.7-.7 1.15-.94.12-.06.23-.15.33-.27.6-.7 1.38-.89 2.34-.54.04.02.06 0 .08-.03.05-.1.1-.17.18-.25a.13.13 0 0 0 .05-.1V20.3c0-.3-.05-.53-.14-.7-.3-.57-.96-1-1.52-1.23-.34-.13-.88-.25-1.2-.49a1.95 1.95 0 0 1-.8-1.24.07.07 0 0 0-.07-.02h-.03c-.53.35-.98.27-1.5.01-.04-.02-.07 0-.08.03-.22.54-.43.95-.94 1.27a6.6 6.6 0 0 1-.82.32c-.55.19-1.05.5-1.51.9-.09.07-.07.13.03.16.3.1.73.22.56.65v.02a.05.05 0 0 0 .01.04l.02.01c.04.02.08 0 .11-.02.45-.46 1.3-1.29 1.92-1.32.84-.04 1.69.15 2.55.56.64.3.25.96-.39.8a8.02 8.02 0 0 0-.87-.15c-.04 0-.06 0-.08.04-.22.5-.83.8-1.3 1a.17.17 0 0 0-.07.06c-.57.87-1.47 1.01-2.46.69-.04-.01-.07 0-.08.04a.42.42 0 0 1-.28.26c-.04.01-.06.04-.06.08v2.36c0 .42.14.75.62.75h7.35c.52 0 .7.04 1-.32.1-.11.08-.2-.07-.26l-.64-.24a.23.23 0 0 1-.11-.09.22.22 0 0 1-.04-.13l.02-.24v-.05a.08.08 0 0 0-.05-.03.08.08 0 0 0-.09.02c-.43.46-1.28 1.28-1.96 1.3Zm-4.64-4.98c-.15.2-.3.23-.45.12a.06.06 0 0 0-.06-.01l-.02.01-.02.02-.37 1.05c-.02.04 0 .06.03.08.41.14.84.17 1.27.08.36-.1.63-.3.83-.61.03-.06.06-.1.1-.13a.4.4 0 0 1 .13-.1 2.8 2.8 0 0 0 1.11-.68.1.1 0 0 0-.02-.17.11.11 0 0 0-.05-.02c-.3-.01-.74.24-1.02.36a.17.17 0 0 1-.2-.03l-.02-.02a.08.08 0 0 1-.02-.07c0-.02 0-.03.02-.04l.02-.03c.4-.23.92-.51 1.39-.42a13542.29 13542.29 0 0 1 1.45.25c.03 0 .06-.02.09-.04.1-.08.09-.15-.03-.2a5.54 5.54 0 0 0-2.16-.58c-.3-.02-.5 0-.6.06-.54.3-1 .67-1.4 1.12Zm-1.15-.6c-.1-.03-.15 0-.17.1-.05.19-.06.47-.03.84a14.45 14.45 0 0 1-.03 1.15.1.1 0 0 0 .04 0c.02 0 .02 0 .03-.02l.63-1.77a.13.13 0 0 0 0-.1.14.14 0 0 0-.1-.08l-.37-.12Zm6.17 4.37-.89.38c-.1.04-.2.05-.3.02a16.3 16.3 0 0 0-1.48-.3c-.16-.01-.24.03-.24.13 0 .04 0 .07.02.1.02.02.04.05.07.06.71.3 1.43.48 2.15.53.89.05 1.61-.76 2.18-1.33a.09.09 0 0 1 .1-.02l.2.06c.04 0 .06 0 .07-.03l.36-1.03c.01-.03 0-.06-.04-.07-.78-.3-1.54-.2-2.03.47a.7.7 0 0 1-.2.22c-.44.18-.97.4-1.22.82l-.01.03v.02l.02.03.03.01c.24.07.85-.25 1.13-.36a.1.1 0 0 1 .12.03.1.1 0 0 1 .02.04l.01.03v.1a.13.13 0 0 1-.07.06Zm1.96.14v.03l.02.02.6.23h.02a.03.03 0 0 0 .03-.01v-.02l-.01-1.86a.03.03 0 0 0-.03-.03.03.03 0 0 0-.04.02l-.6 1.62Zm-7.5 6.38v-.02l-.02-.02a.04.04 0 0 0-.04 0l-.47.25-.02.02a.04.04 0 0 0 0 .03l.02.02.46.23a.04.04 0 0 0 .05-.02v-.01l.02-.48Zm8 .4v-.02a.04.04 0 0 0 0-.04v-.01l-.68-.37a.04.04 0 0 0-.06.01v.78l.02.02a.04.04 0 0 0 .04 0l.67-.37Zm-3.92.22a.31.31 0 0 0-.07-.18.33.33 0 0 0-.17-.11l-.25-.06a.34.34 0 0 0-.28.05.32.32 0 0 0-.14.24l-.08 1.44c0 .06.01.12.04.18.04.05.08.1.14.12l.4.22a.34.34 0 0 0 .35-.01c.05-.03.09-.07.11-.12.03-.05.04-.11.04-.17l-.09-1.6Zm-5.47.08a.03.03 0 0 0-.03 0l-4.3 2.29h-.02a.03.03 0 0 0 0 .04l.01.01 4.36 2.33a.03.03 0 0 0 .03 0l1.31-.7.01-.01V31.86L23 31.14Zm14.36 2.35v-.01a.03.03 0 0 0 0-.04v-.01l-4.07-2.16a.04.04 0 0 0-.03 0l-1.59.84-.01.01v2.75l.01.01 1.54.81a.04.04 0 0 0 .03 0l4.12-2.2Zm-23.82 2.66-.16.12c-.03.03-.03.05 0 .07l4.23 2.25a.24.24 0 0 0 .22 0l4.13-2.2a.32.32 0 0 0 .14-.09c.03-.03.02-.06-.02-.08l-4.2-2.24a.3.3 0 0 0-.27 0l-4.07 2.17Zm20.78.14 4.13 2.2a.15.15 0 0 0 .14 0l4.1-2.17v-.06a.33.33 0 0 0-.13-.05L38.42 34a.33.33 0 0 0-.3 0l-3.98 2.12c-.04.02-.04.04 0 .07.06.06.13.1.18.1Zm-7.02-.04L27.2 38c0 .02 0 .04.02.05 0 .02.02.03.03.04l.68.35a.16.16 0 0 0 .15 0l.66-.35a.1.1 0 0 0 .06-.1l-.1-1.74-.1-1.95c-.02-.65-.9-.1-1.12.04a.17.17 0 0 0-.06.05.16.16 0 0 0-.03.08l-.1 1.78Zm4.34.23a.05.05 0 0 0 .02.05h.06l.6-.34.02-.02a.05.05 0 0 0 0-.06l-.03-.02-.57-.28a.06.06 0 0 0-.06 0l-.02.02v.03l-.02.62Zm-7.71-.22-.02.01v.02a.04.04 0 0 0 .02.03l.41.2a.04.04 0 0 0 .04 0l.01-.01v-.02l-.04-.42a.04.04 0 0 0-.02-.02.04.04 0 0 0-.03 0l-.37.2ZM37.63 39a.04.04 0 0 0 .02-.03v-.02l-.02-.01-4.38-2.34a.04.04 0 0 0-.03 0l-1.55.82-.01.02v2.97l.02.01 1.63.87a.04.04 0 0 0 .03 0l4.3-2.3Zm-14.6-2.28a.04.04 0 0 0-.03 0l-4.39 2.34a.04.04 0 0 0-.02.03l.01.01.01.02 4.08 2.18a.04.04 0 0 0 .03 0l1.64-.88.01-.01v-2.98l-.01-.01-1.33-.7Zm5.87 3.22a.17.17 0 0 0-.03-.08.17.17 0 0 0-.06-.06l-.7-.38a.18.18 0 0 0-.17 0l-.74.39a.17.17 0 0 0-.06.06.17.17 0 0 0-.03.08l-.18 3.5c0 .03 0 .06.02.1l.07.06.91.48a.18.18 0 0 0 .17 0l.88-.47a.17.17 0 0 0 .06-.06.17.17 0 0 0 .03-.1l-.17-3.52Zm-4.57 2.23h.03l.02-.02v-.76a.03.03 0 0 0-.01-.03.04.04 0 0 0-.04 0l-.72.37h-.01v.03a.03.03 0 0 0 .01.03l.72.38Zm7.38-.82a.04.04 0 0 0-.05.01v.77a.03.03 0 0 0 .02.03.04.04 0 0 0 .03 0l.7-.38a.03.03 0 0 0 0-.06l-.7-.37Z" fill="#32373B"/><path d="M29.64 13v1.79a.32.32 0 0 1-.13.25l-1.19.89a.5.5 0 0 1-.59 0l-1.18-.89a.36.36 0 0 1-.14-.28l.01-1.69c.28-.32.4-.48.9-.61.62-.17 1.53-.16 2.02.31.1.1.2.17.3.23Z" fill="#D8E2EB"/><path d="m25.61 15.28-1.78 2.86c-.35.31-.56.52-.65.61a2.4 2.4 0 0 0-.58 1.33c-3.72 5.92-6.84 10.9-9.36 14.97a.79.79 0 0 0-.12.4l-.14.1a.05.05 0 0 1-.07 0l-.01-.03v-4.64l.02-.01 2.8-1.5a.32.32 0 0 0 .15-.18.3.3 0 0 0-.03-.24l-.04-.07c-.14-.22-.32-.27-.55-.15l-2.29 1.22a.04.04 0 0 1-.04 0 .04.04 0 0 1-.02-.03V25.4c0-.03 0-.06.02-.08a.16.16 0 0 1 .06-.06l2.69-1.43c.22-.12.27-.28.15-.5l-.06-.1a.32.32 0 0 0-.2-.14.34.34 0 0 0-.24.03l-2.37 1.27a.03.03 0 0 1-.04-.01v-4.46a.12.12 0 0 1 .05-.04l12.54-6.7h.02a.04.04 0 0 1 .04.02v.03c-.05.73-.03 1.41.05 2.05Z" fill="#58ED9B"/><path d="M30.4 15.24c.63.92 1.22 1.88 1.8 2.9a8.08 8.08 0 0 0-1.58-.7c-.69-.19-.91-.74-1.02-1.36 0-.03 0-.06.03-.08.3-.26.56-.42.77-.76Z" fill="#B6C8CC"/><path d="M25.61 15.28c.26.3.5.52.73.65.03.01.05.04.07.07v.09c-.03.25-.11.5-.23.74-.26.56-1.22.72-1.75 1l-.6.32 1.78-2.87Z" fill="#23D1AE"/><path d="M29.55 25.13c.68-.02 1.53-.84 1.96-1.3a.08.08 0 0 1 .1-.02l.03.03.01.05-.01.24c0 .04 0 .09.03.13.03.04.06.07.1.09l.65.24c.15.06.17.15.07.26-.3.36-.48.32-1 .32-1.14 0-2.26.05-3.42-.04l-.47.02-3.46.02c-.48 0-.61-.33-.61-.75v-2.36c0-.04.01-.07.05-.08a.42.42 0 0 0 .28-.26c.01-.04.04-.05.08-.04.99.32 1.89.18 2.46-.7a.17.17 0 0 1 .07-.06c.47-.2 1.08-.48 1.3-1 .02-.03.04-.04.08-.03.3.03.59.09.87.16.64.15 1.03-.5.39-.81-.86-.41-1.71-.6-2.55-.56-.61.03-1.46.86-1.92 1.32-.03.03-.07.04-.11.02a.06.06 0 0 1-.03-.03.05.05 0 0 1 0-.04c.17-.43-.25-.55-.56-.65-.1-.03-.12-.09-.03-.16.46-.4.96-.71 1.51-.9.47-.17.74-.27.82-.32.52-.32.72-.73.94-1.27.02-.04.04-.05.08-.03.52.26.97.34 1.5 0a.07.07 0 0 1 .1.04c.12.5.38.91.8 1.21.32.24.86.36 1.2.5.56.21 1.23.65 1.52 1.21.09.18.13.42.13.71v1.49c0 .04 0 .07-.04.1a.86.86 0 0 0-.18.24c-.02.04-.04.05-.08.03-.96-.35-1.74-.17-2.34.54-.1.12-.21.21-.33.27-.46.24-.94.45-1.15.94-.01.03-.04.05-.07.04-.3-.04-.6-.1-.9-.17-.64-.15-.97.54-.4.8.86.4 1.7.59 2.53.56Zm-3-3.57c-.26.49-.18.9.22 1.3.36.37.62.61 1.13.58.83-.06 1.5-.67 1.7-1.44a.9.9 0 0 0-.3-.99c-.27-.23-.65-.62-1.03-.58-.8.08-1.37.46-1.72 1.13Z" fill="#D8E2EB"/><path d="m23.76 19.55.38.12a.14.14 0 0 1 .08.07.14.14 0 0 1 .01.11l-.63 1.77c0 .01-.01.02-.03.02a.1.1 0 0 1-.04 0c.03-.6.04-.98.03-1.15-.03-.37-.02-.65.03-.84.02-.1.08-.13.17-.1Z" fill="#23D1AE"/><path d="m33.41 20.04 4.33 6.91c.02.04 0 .1-.04.16l-.5-.23c-.22-.1-.39-.05-.5.15l-.06.1c-.1.16-.06.3.11.39l2 1.07 3.95 6.28c.13.21.32.4.29.66l-11.3-6.01a.08.08 0 0 1-.03-.03 3939.86 3939.86 0 0 0-.02-2.88c0-.3-.14-.46-.43-.48.02-.05 0-.1-.06-.16.42 0 .9.04 1.27-.09.66-.23 1-.7 1-1.43 0-1.02 0-1.9-.04-3.07 0-.43 0-.88.03-1.34Z" fill="#B6C8CC"/><path d="M22.6 20.08c.06 1.68.07 3.14.04 4.37-.01.84.6 1.51 1.47 1.52l.7.02a.2.2 0 0 0-.01.14c-.27.02-.41.16-.41.43a220.81 220.81 0 0 0-.03 2.91.15.15 0 0 1-.06.06l-11.18 5.93c0-.16.04-.3.12-.41 2.52-4.06 5.64-9.05 9.36-14.97Z" fill="#23D1AE"/><path d="M24.9 20.15c.05.61.1.82.4 1.35-.44.09-.87.06-1.28-.08-.03-.02-.05-.04-.03-.08l.37-1.05.02-.02.02-.01a.06.06 0 0 1 .06 0c.15.12.3.08.45-.11Z" fill="#D8E2EB"/><path d="M26.55 21.56c.35-.67.93-1.05 1.72-1.13.38-.04.76.35 1.03.58.31.26.4.6.3 1-.2.76-.87 1.37-1.7 1.43-.51.03-.77-.21-1.13-.58-.4-.4-.48-.81-.22-1.3Zm1.35 1.1c-.05-.07-.04-.13.03-.19.4-.32.71-.53.83-1.06.17-.74-.67-.73-1.11-.5a1.7 1.7 0 0 0-.77.8c-.18.37-.19.82.3.94.13.03.27 0 .4 0 .09 0 .13.03.13.11v.06c0 .03 0 .06-.02.08a.13.13 0 0 1-.08.05.39.39 0 0 0-.11.04l-.02.02a.04.04 0 0 0 0 .05l.03.01c.3.1.6.05.9-.1.49-.28 1.1-.94.82-1.53-.05-.1-.08-.1-.1 0-.16.59-.51 1.02-1.06 1.32-.06.03-.11.02-.15-.04l-.02-.05Z" fill="#32373B"/><path d="m27.74 21.82-.23-.13a.06.06 0 0 0-.08 0l-.22.24-.04.02h-.04l-.14-.08a.06.06 0 0 1-.03-.04v-.03l.01-.02.7-.71a.06.06 0 0 1 .08 0l.14.08a.06.06 0 0 1 .02.04.06.06 0 0 1-.01.05l-.2.18a.06.06 0 0 0-.01.06.06.06 0 0 0 .03.04l.23.11a.06.06 0 0 0 .07 0l.27-.26a.06.06 0 0 1 .07 0l.16.1.01.02a.06.06 0 0 1 0 .07l-.74.74a.06.06 0 0 1-.08 0l-.15-.1a.06.06 0 0 1-.02-.05v-.02l.01-.02.2-.2a.06.06 0 0 0 .02-.05.06.06 0 0 0-.03-.04ZM39.8 22.66l-2.57-1.36a.4.4 0 0 0-.52.14l-.03.04c-.1.18-.03.4.15.5l2.57 1.37c.19.1.42.04.52-.14l.03-.04c.1-.18.03-.4-.16-.5Z" fill="#32373B"/><path d="m31.89 24.06.6-1.62v-.02a.03.03 0 0 1 .05.01v.02l.02 1.86a.03.03 0 0 1-.02.03.03.03 0 0 1-.03 0l-.6-.23-.02-.02v-.03Z" fill="#36C6FF"/><path d="M31.15 25.97c.06.06.08.11.06.16-.28.03-.41.2-.41.48v16.96c0 .27-.13.46-.39.57l-.05.02c-.26.11-.4.03-.4-.24l-.6-12.3c-.02-.5-.07-.83-.14-1-.32-.71-1.3-.95-1.97-.5-.34.23-.52.54-.54.94a2966 2966 0 0 0-.67 13.08c0 .04-.02.06-.06.06-.3 0-.73 0-.73-.41V26.6c0-.3-.15-.46-.45-.48a.2.2 0 0 1 0-.14l6.35-.02Z" fill="#D8E2EB"/><path d="m37.7 27.1 2.17 1.18a.3.3 0 0 1 .14.17.28.28 0 0 1-.03.22l-.05.08c-.13.22-.3.27-.53.16l-.64-.32-2-1.07c-.18-.1-.22-.23-.12-.4l.05-.09c.12-.2.3-.25.51-.15l.5.23Z" fill="#32373B"/><path d="m24.4 30.44-.03.48a.04.04 0 0 1-.02.03h-.03l-.46-.23-.02-.01v-.04l.02-.02.47-.25a.04.04 0 0 1 .06.02v.02ZM32.38 30.84l-.67.37a.04.04 0 0 1-.05-.02v-.02l-.01-.74v-.02l.02-.01a.04.04 0 0 1 .04 0l.67.37.02.01v.04l-.02.02ZM28.47 31.06l.09 1.6a.3.3 0 0 1-.04.17.32.32 0 0 1-.11.12.34.34 0 0 1-.34 0l-.41-.2a.33.33 0 0 1-.14-.13.31.31 0 0 1-.04-.18l.08-1.44a.31.31 0 0 1 .14-.24.34.34 0 0 1 .28-.05l.25.06c.06.02.12.05.17.1.04.06.07.12.07.19ZM23 31.14l1.36.72.01.02V35.1l-.01.01-1.31.7a.03.03 0 0 1-.03 0l-4.36-2.33a.03.03 0 0 1 0-.04v-.01l4.3-2.29a.03.03 0 0 1 .04 0ZM37.36 33.49l-4.12 2.2a.04.04 0 0 1-.03 0l-1.54-.8-.01-.02v-2.72a.03.03 0 0 1 .01-.04l1.59-.84a.04.04 0 0 1 .03 0l4.07 2.16v.01a.03.03 0 0 1 0 .04v.01ZM21.96 36.4c-.03-.08-.09-.11-.17-.11l-7.6-.01c-.28 0-.43.07-.65-.13l4.07-2.17a.3.3 0 0 1 .27 0l4.2 2.24c.04.02.05.05.02.08a.32.32 0 0 1-.14.1ZM42.56 36.2a2.4 2.4 0 0 1-.85.11l-.58-.03-6.8.01a.38.38 0 0 1-.2-.1c-.03-.03-.03-.05.01-.07L38.12 34a.32.32 0 0 1 .3 0l4.14 2.2ZM28.72 36.25c-.49.05-.96.05-1.42 0l.1-1.78c0-.03.01-.05.03-.08a.17.17 0 0 1 .06-.05c.23-.14 1.1-.7 1.13-.04l.1 1.95ZM31.64 36.48l.02-.62v-.03l.02-.02a.06.06 0 0 1 .06 0l.57.28.02.02a.05.05 0 0 1-.01.08l-.6.34a.06.06 0 0 1-.06 0l-.02-.02v-.03Z" fill="#0AF"/><path d="m23.93 36.26.37-.21h.05v.02l.05.42v.02l-.02.01h-.04l-.41-.2a.04.04 0 0 1 0-.06ZM13.53 36.15c.23.2.38.13.66.13h7.6c.08 0 .14.04.17.11l-4.13 2.2a.24.24 0 0 1-.23 0l-4.21-2.25c-.04-.02-.04-.04-.01-.07l.15-.12ZM42.56 36.2l.12.06a.03.03 0 0 1 .02.03.03.03 0 0 1-.02.03L38.6 38.5a.15.15 0 0 1-.14 0l-4.13-2.21 6.81-.01.58.03c.3.02.58-.02.85-.1ZM27.3 36.25c.46.05.93.05 1.42 0L28.8 38a.1.1 0 0 1-.06.1l-.66.35a.16.16 0 0 1-.15 0l-.68-.35a.1.1 0 0 1-.03-.04.09.09 0 0 1-.02-.05l.09-1.75ZM37.64 39l-4.3 2.3a.04.04 0 0 1-.03 0l-1.63-.87a.04.04 0 0 1-.02-.03v-2.95l.01-.02 1.55-.82a.04.04 0 0 1 .03 0l4.39 2.34v.01a.03.03 0 0 1 0 .04ZM23.03 36.73l1.33.7h.01V40.43l-.01.01-1.64.88a.04.04 0 0 1-.03 0l-4.08-2.18-.01-.02a.03.03 0 0 1 .01-.04L23 36.73a.04.04 0 0 1 .03 0ZM28.9 39.95l.17 3.52c0 .04-.01.07-.03.1a.17.17 0 0 1-.06.06l-.88.47a.18.18 0 0 1-.17 0l-.9-.48a.17.17 0 0 1-.08-.07.17.17 0 0 1-.02-.09l.18-3.5c0-.03.01-.06.03-.08a.17.17 0 0 1 .06-.06l.74-.39a.18.18 0 0 1 .17 0l.7.38.06.06.03.08ZM24.33 42.18l-.72-.38a.03.03 0 0 1-.02-.03v-.02l.02-.01.72-.38a.04.04 0 0 1 .04 0v.02l.01.02v.76l-.02.01h-.03ZM31.71 41.36l.7.37v.02a.03.03 0 0 1 0 .03v.01l-.7.38h-.03l-.02-.01v-.79a.03.03 0 0 1 .03-.02h.02Z" fill="#36C6FF"/></svg>