<svg xmlns="http://www.w3.org/2000/svg" width="112" height="112" viewBox="0 0 56 56"><path d="M39.75 28.48c.03.16 0 .32-.05.47l-1.14 2.85a.9.9 0 01-.68.59l-3.24.6a.9.9 0 01-1.04-.76.98.98 0 010-.34l.52-2.85c.07-.4.37-.7.75-.75l3.86-.6a.9.9 0 011.02.8zm-2.33 1l-1.65.25a.3.3 0 00-.25.25l-.16.87c-.03.17.08.33.24.36a.3.3 0 00.11 0l1.46-.27a.3.3 0 00.23-.18l.34-.85a.32.32 0 00-.17-.41.28.28 0 00-.15-.02zm4.65-6.94c.02.15 0 .3-.05.45l-1.1 2.87a.91.91 0 01-.71.6l-4.46.66a.9.9 0 01-1.02-.8.99.99 0 01.01-.3l.52-2.88c.07-.4.39-.7.77-.76l5.03-.65a.9.9 0 011 .81zm-2.82.93l-2.88.38a.3.3 0 00-.26.25l-.16.93a.3.3 0 00.24.36h.1l2.69-.4a.3.3 0 00.23-.2l.36-.9a.31.31 0 00-.16-.4.285.285 0 00-.16-.02zM45 15.15c0 .18-.02.37-.08.54l-1.54 4.02a1.2 1.2 0 01-.97.8l-8.08 1.07a1.2 1.2 0 01-1.34-1.08 1.28 1.28 0 010-.37l.89-4.4c.1-.56.54-.98 1.08-1.03l8.75-.7c.66-.05 1.24.46 1.29 1.15zm-3.46 1.21l-6.17.53-.46 2.47 6.08-.87a.6.6 0 00.47-.37l.48-1.18c.1-.2 0-.45-.2-.54a.38.38 0 00-.2-.04z" fill="#FFC55A"/><path d="M22.94 18H17.8c-.65 0-1.21.49-1.33 1.16l-3.45 20.2A1.4 1.4 0 0014.35 41h5.13c.66 0 1.22-.49 1.34-1.16l1.01-6.38a.55.55 0 01.53-.46h3.3a.55.55 0 01.54.66l-.9 5.7A1.4 1.4 0 0026.63 41h5.13c.66 0 1.22-.49 1.33-1.16l3.45-20.2A1.4 1.4 0 0035.22 18h-5.13c-.65 0-1.21.49-1.33 1.15l-1.01 6.39a.55.55 0 01-.53.46h-3.3a.55.55 0 01-.54-.56v-.1l.9-5.7A1.4 1.4 0 0022.94 18z" fill="#fff"/></svg>