<svg width="112" height="112" viewBox="0 0 56 56" xmlns="http://www.w3.org/2000/svg"><path d="M33.2 14c4.86 0 8.8 3.88 8.8 8.66v10.68A8.73 8.73 0 0 1 33.2 42H22.8a8.73 8.73 0 0 1-8.8-8.66V22.66A8.73 8.73 0 0 1 22.8 14h10.4ZM25 32v6h1.5v-6H25Zm2.5-2v8H29v-.7c.4.44.92.7 1.5.7 1.28 0 2.32-1.34 2.32-3s-1.04-3-2.33-3c-.57 0-1.09.26-1.49.7V30h-1.5Zm6 2v6H35v-3.72c.6-1.13 1.4-.96 1.76-.71V32.1c-.68-.3-1.34.15-1.76.6V32h-1.5Zm4-2v8H39v-8h-1.5Zm-7.47 3.54c.7 0 1.26.7 1.26 1.57 0 .86-.57 1.56-1.26 1.56-.43 0-.8-.26-1.03-.65v-1.83c.23-.39.6-.65 1.03-.65ZM25 30v1.48h1.5V30H25Z" fill="#fff"/><defs><linearGradient id="a" x1="10.42" y1="9.71" x2="68.15" y2="76.02" gradientUnits="userSpaceOnUse"><stop stop-color="#1A1E21"/><stop offset="1" stop-color="#06060A"/></linearGradient></defs></svg>