<svg width="112" height="112" viewBox="0 0 56 56" xmlns="http://www.w3.org/2000/svg"><rect fill="#E8DDA8" width="56" height="56" rx="28"/><circle cx="28" cy="28" r="17" fill="#0F1E27"/><path d="M28.68 11.05c-.07.23-.1.46-.08.69l-.06 1.84-.14 1.23a.25.25 0 0 1-.21.23l-2.15.29-.4-.61a.17.17 0 0 0-.1-.07.17.17 0 0 0-.14.02c-.2.14-.43.12-.68-.05l-.55-.22a.22.22 0 0 0-.25.07.22.22 0 0 0-.04.1l-.04.21-.14.25c-.08-.34-.48-.4-1.2-.2a.7.7 0 0 1-.84-.4c-.26-.69-.71-1.2-1.35-1.57l3.01-1.17c.08.35-.12.65-.6.92a.32.32 0 0 0-.16.33l.03.15a.26.26 0 0 0 .14.2.27.27 0 0 0 .25-.02c.9-.5 1.84-.26 2.74-.54.46-.45.85-.33 1.39-.6a.78.78 0 0 0 .33-.29.18.18 0 0 0-.1-.27c-.26-.1-.45-.23-.57-.42a4.9 4.9 0 0 1 1.9-.1Z" fill="#59846B"/><path d="m37.6 14.44-.18.15c-2.1.49-3.72-.15-4.84-1.91a.6.6 0 0 0-.23-.21l-1.64-.84a.5.5 0 0 0-.29-.06l-1.82.17c-.01-.23.01-.46.08-.7 3.8.15 7.15 1.43 10.06 3.84.02.02.04.05.04.08s0 .06-.03.08l-.06.08h-.01l-1.09-.68Z" fill="#5594B0"/><path d="M26.77 11.15c.12.19.31.33.58.42a.19.19 0 0 1 .1.11c.01.03.02.06.01.09 0 .02 0 .05-.02.07a.78.78 0 0 1-.33.29c-.54.27-.93.15-1.4.6l-1.18-1.31 2.24-.27Z" fill="#D5BE8E"/><path d="m24.53 11.42 1.19 1.31c-.9.28-1.85.04-2.74.54a.27.27 0 0 1-.25.01.26.26 0 0 1-.14-.19l-.03-.15a.32.32 0 0 1 .16-.33c.48-.27.68-.57.6-.92.36-.16.76-.25 1.2-.27Z" fill="#9F9084"/><path d="m37.42 14.6-.29.78c-.47 1.08-1.23 1.41-2.27 1.01-1.48-.56-3.88-1.9-6.28-2.35l-.04-.46.06-1.84 1.82-.17c.1 0 .2.01.29.06l1.64.84c.1.04.17.12.23.2 1.12 1.77 2.73 2.4 4.84 1.92Z" fill="#7EB1C7"/><path d="M20.3 12.86c.65.36 1.1.88 1.36 1.56a.69.69 0 0 0 .85.42c.7-.22 1.1-.15 1.2.19l-.2 1.46-.1.22c-.59.09-1.17.3-1.73.63a4.18 4.18 0 0 0-1.18-3.49c-.04-.04-.08-.06-.12-.06-.05 0-.1.03-.13.07l-.84-.5c.16-.2.46-.36.9-.5Z" fill="#A1B28A"/><path d="m28.54 13.58.04.46-.02 2.55-.09 2.22c-.91.05-1.82.17-2.72.34-1.75 1.35-3.25 1.35-6.04 1.07a.31.31 0 0 1-.25-.12.3.3 0 0 1-.06-.26c.25-.94.44-1.83.57-2.67.06-.38.3-.58.74-.6.05.06.12.1.2.12.1.5.78 1.79.8 1.29.05-.23.04-.44-.03-.64a4.7 4.7 0 0 1 1.74-.63c.99.9 1.8.84 2.41-.18l-.07-1a.52.52 0 0 0 .28-.2l2.15-.3a.25.25 0 0 0 .21-.22l.14-1.23Z" fill="#E8DDA8"/><path d="M18.87 13.66c.52.72.67 1.5.45 2.33a.2.2 0 0 1-.23.14.19.19 0 0 1-.09-.05l-1.54-1.46 1.41-.96Z" fill="#BF814E"/><path d="M21.68 17.34c.07.2.08.41.04.64-.13-.36-.2-.74-.21-1.14a.37.37 0 0 0-.33-.35c-.06 0-.11 0-.17.02-.14.05-.18.12-.1.18a.38.38 0 0 1-.2-.13.89.89 0 0 1-.56-.1c.27.05.46 0 .58-.15a.22.22 0 0 0 .05-.17l-.23-1.79a.43.43 0 0 0-.08-.2l-.22-.29a.22.22 0 0 1 .13-.07c.04 0 .08.02.12.06a4.18 4.18 0 0 1 1.18 3.49Z" fill="#7E583C"/><path d="M37.13 15.38c.18.64-.17 1.16-.22 1.64-.03.31-.04.63-.04.96 0 .05-.02.1-.06.14a.22.22 0 0 1-.13.08l-2.54.34c-.14-.02-.25 0-.32.1a13.17 13.17 0 0 1-3.73-1.75c-.46-.3-.97-.4-1.53-.3l.02-2.55c2.4.44 4.8 1.79 6.28 2.35 1.04.4 1.8.07 2.27-1Z" fill="#BDD2D6"/><path d="M24.72 14.62c-.1.08-.26.16-.5.23-.22.1-.35.09-.38-.07l.04-.22a.22.22 0 0 1 .29-.16l.55.22Z" fill="#161618"/><path d="M37.6 14.44c-.07.25.01.41.24.48a.38.38 0 0 0-.13-.02.15.15 0 0 0-.1.03.14.14 0 0 0-.04.09c-.16.83-.05 1.04.31.65.14.16.34.22.6.19-.1.1-.22.16-.4.17.01.56-.15.94-.47 1.14-.4.63-.59 1.6-.55 2.94-.14-.1-.25-.08-.33.03-.77-.05-1.28-.32-1.54-.82.02-.2-.01-.34-.1-.43-.07-.08-.16-.1-.25-.02a.6.6 0 0 0-.19.23l-.08.04a.2.2 0 0 1-.19 0 .2.2 0 0 1-.1-.15c-.02-.16-.06-.3-.14-.45l2.54-.34c.05-.01.1-.04.13-.08a.21.21 0 0 0 .06-.14c0-.33.01-.65.04-.96.05-.48.4-1 .22-1.64l.3-.79.16-.15Z" fill="#DAD5CA"/><path d="M26.04 15.33a.52.52 0 0 1-.28.2c-.26-.43-.77-.66-1.54-.68.24-.07.4-.15.5-.23.25.17.48.19.68.05a.16.16 0 0 1 .13-.02.17.17 0 0 1 .11.07l.4.6Z" fill="#37241E"/><path d="M23.84 14.78c.03.16.16.18.38.07.77.02 1.28.25 1.54.69l.07 1c-.92.43-1.7.41-2.32-.05l.2-1.46.13-.25Z" fill="#B08F64"/><path d="M37.84 14.92c.07.25.09.5.04.75-.36.4-.47.18-.3-.65 0-.03.01-.06.04-.09a.15.15 0 0 1 .09-.03c.04 0 .08 0 .13.02Z" fill="#A26D55"/><path d="M33.82 18.64c.2.62.15 1.15-.13 1.59a1.04 1.04 0 0 1-1.27.4 8.55 8.55 0 0 0-2.7-.63c-.77-.1-1.18-.5-1.25-1.2l.1-2.2c.55-.1 1.06 0 1.52.3 1.24.81 2.49 1.4 3.73 1.74Z" fill="#FBECD3"/><path d="M38.08 16.03c.13.39.18.98.16 1.78 0 .18.11.34.36.49a.47.47 0 0 1 .22.3c.26 1.1.3 2.25.12 3.47 0 .03-.02.06-.04.07a.12.12 0 0 1-.09.04h-.11a.08.08 0 0 1-.05-.03.08.08 0 0 1-.03-.06v-2.6a.04.04 0 0 0-.03-.04h-.1a.1.1 0 0 0-.12.1c-.1 1.28-.14 2.44-.14 3.5 0 .16-.04.31-.14.44-.09.12-.22.2-.37.24-.34.08-.62.3-.85.69-.28-.24-.6-.27-.93-.1a.14.14 0 0 1-.18-.04.14.14 0 0 1-.02-.06l-.02-.11c-.01-.05 0-.1.01-.15a.26.26 0 0 1 .1-.1c.37-.26.83-.31 1.36-.19a.23.23 0 0 0 .26-.14c.27-.8.36-1.45.27-1.95a11.54 11.54 0 0 1-.11-4.4c.32-.2.48-.59.47-1.15Z" fill="#6E6737"/><path d="M19.81 16.57c-.05.95-.3 1.83-.75 2.63-.14.24-.17.75-.1 1.52.02.16 0 .3-.06.44l-.29.7-.94-.46a.21.21 0 0 1-.12-.19v-4.76a.2.2 0 0 1 .27-.18.2.2 0 0 1 .1.08c.4.66 1.02.73 1.9.22Z" fill="#5B4527"/><path d="M20.15 16.47c.13.08.32.11.56.1-.43.02-.68.22-.74.6-.13.84-.32 1.73-.57 2.67a.3.3 0 0 0 .17.35c.04.02.09.03.14.03l2.74-.1c.03.32-.16.52-.55.62a.13.13 0 0 0-.08.2l.07.05c.14.04.33.03.56-.03a.4.4 0 0 1 .43.17l.74 1.12a12.58 12.58 0 0 0-4.12-1.04.16.16 0 0 0-.1.1v.06l.05.8-.5.1a.24.24 0 0 1-.22-.08.51.51 0 0 1-.12-.34l.29-.69a.96.96 0 0 0 .07-.44c-.08-.77-.05-1.28.09-1.52.44-.8.7-1.68.75-2.63.14-.1.25-.13.34-.1Z" fill="#BF814E"/><path d="M37.6 17.17c-.24 1.27-.2 2.74.12 4.41.1.5 0 1.15-.27 1.95a.22.22 0 0 1-.26.14 1.68 1.68 0 0 0-1.36.18.26.26 0 0 0-.11.26l.02.11a.14.14 0 0 0 .2.1c.34-.17.65-.14.93.1-.41.53-1 .75-1.8.67a.15.15 0 0 1-.12-.1.15.15 0 0 1 .03-.15.73.73 0 0 1 .33-.2.12.12 0 0 0 .08-.14.16.16 0 0 0-.09-.1h-.08c-.64.2-1.15.5-1.55.91a.61.61 0 0 0-.23.7.17.17 0 0 1-.3.13l-1.12-1.88c.29.26.56.3.83.11.12.23.21.05.27-.54 0-.08.04-.15.1-.21a.4.4 0 0 1 .21-.12.5.5 0 0 1 .27.03c.09.03.16.08.23.15a.4.4 0 0 0 .44.11.15.15 0 0 0 .09-.21.15.15 0 0 0-.06-.07c-.24-.12-.41-.3-.53-.5a.18.18 0 0 0-.3-.04.89.89 0 0 1-.61.36v-.46c.04-.39.2-.72.46-1l.43-.26.02.18a.15.15 0 0 0 .1.13.15.15 0 0 0 .17-.05c.17-.21.32-.27.44-.18l.03.82a.26.26 0 0 0 .25.25h.96a.1.1 0 0 0 .1-.07.1.1 0 0 0-.06-.11 2.28 2.28 0 0 1-.85-.73l2.07-.2a.2.2 0 0 0 .15-.08.2.2 0 0 0 .02-.17c-.11-.4-.15-.8-.11-1.2a.2.2 0 0 0-.15-.2c-.12-.04-.1 0 .07.1-.04-1.32.15-2.3.55-2.93Z" fill="#ECB494"/><path d="M28.47 18.8c.07.7.48 1.1 1.24 1.2l2.2 1.16a.16.16 0 0 1 .08.18l-.03.06-.36.47c.01.15 0 .27-.02.36a.1.1 0 0 1-.15.05.1.1 0 0 1-.03-.06c0 3.35-4.32 2.45-6.14 3.25-.1.04-.2.12-.25.22-.16.27-.28.57-.36.91-.14-.17.15 1.46-.04 1.74-.73 1.08-2.11 1.16-3.17-.54h-.08l-.06-1.33c-.05 0-.05-.09 0-.25 1.32.26 1-.93 2.32-.53.03 0 .58.5.6.49.27-.12.36-.5.27-1.14a.25.25 0 0 1 .05-.19.24.24 0 0 1 .17-.1c.24-.02.45-.09.62-.2a.43.43 0 0 1 .26-.06c.29.03.49-.03.6-.18a.41.41 0 0 0 .08-.22c.04-.56-.12-.98-.48-1.25a.55.55 0 0 1-.2-.26 3.26 3.26 0 0 1-.2-1.43h-.01l-.02-.01h-.01l-.98.71a.26.26 0 0 0-.11.21v1.2c0 .04 0 .07-.02.1-.08.22-.39.24-.49.03a.26.26 0 0 1-.02-.1l-.1-1.04-.75-1.12a.4.4 0 0 0-.43-.17c-.23.06-.42.07-.56.03a.13.13 0 0 1 0-.25c.4-.1.59-.3.56-.62.98 0 1.42-.5 1.32-1.46a.17.17 0 0 1 .1-.18.17.17 0 0 1 .08-.01h.1c.04 0 .07.01.09.03a.1.1 0 0 1 .03.08v1a.17.17 0 0 0 .13.16h.08c.44-.07.78-.47 1.37-.59.9-.17 1.8-.29 2.72-.34Z" fill="#7E583C"/><path d="M13.9 18.5c.1.75.03 1.47-.2 2.16-.03.11-.1.2-.19.27l-.56.4a.51.51 0 0 0 .28.93c.66.02 1.37.23 2.13.63-.76.06-1.4.06-1.94 0a.6.6 0 0 0-.35.06c-.13.07-.18.17-.15.28l-.1.59a.22.22 0 0 0 .12.23c.03.02.06.03.1.03.3 0 .54.12.74.36a.24.24 0 0 1-.25.38c-.24-.06-.39-.1-.44-.08a.45.45 0 0 0-.32.46.44.44 0 0 0 .37.4l.96.17a.65.65 0 0 0-.4.29.96.96 0 0 1-.31.35c-.2.1-.4.18-.62.25-.48.09-.94.03-1.37-.17a.15.15 0 0 1-.07-.07.14.14 0 0 1-.01-.1l.03-.1a.21.21 0 0 1 .28-.14c.2.07.39.1.57.09a.23.23 0 0 0 .2-.16l.01-.1-.3-4.01 1.78-3.4Z" fill="#A8622E"/><path d="M34.14 18.54c.08.14.12.3.14.45a.2.2 0 0 0 .29.15l.08-.04.03.19c-.1 0-.19.02-.24.07-.05.04-.06.12-.03.24.08.31.1.63.08.95l-.04.51a.14.14 0 0 1-.1.13h-.07a.56.56 0 0 0-.1-.02.32.32 0 0 0-.19.07.25.25 0 0 0-.1.15l-.04.22-.43.26a2.53 2.53 0 0 0-1.49-.06c-.05.07-.16.1-.33.06l.36-.47a.16.16 0 0 0 0-.2.16.16 0 0 0-.05-.04L29.7 20c.95.06 1.85.27 2.71.63a1.03 1.03 0 0 0 1.27-.4c.28-.44.33-.97.13-1.6.07-.08.18-.11.32-.09Z" fill="#B5AFA6"/><path d="M35.19 19.32c-.16.05-.26.16-.28.35-.1-.07-.18-.2-.23-.38l-.03-.19a.6.6 0 0 1 .19-.23c.1-.07.18-.06.25.02.09.1.12.24.1.43Z" fill="#646658"/><path d="M35.19 19.32c.26.5.77.77 1.54.82l-.05.17c-.02.1-.09.2-.18.28-.43.34-.92.56-1.46.66l-.13-1.58c.02-.19.12-.3.28-.35Z" fill="#8B989F"/><path d="m43.67 21.48-1.19.6c0-.78.12-1.54.37-2.28l.82 1.68Z" fill="#7E583C"/><path d="M37.06 20.1c-.16-.1-.19-.14-.07-.1a.2.2 0 0 1 .15.2c-.04.4 0 .8.11 1.2a.2.2 0 0 1-.02.17.2.2 0 0 1-.15.09l-2.07.2.03-.61c.54-.1 1.03-.32 1.46-.66.1-.07.16-.17.18-.28l.05-.17c.08-.11.19-.13.33-.03ZM34.58 21.7c-.12-.1-.27-.04-.44.17a.15.15 0 0 1-.24 0 .15.15 0 0 1-.03-.08l-.02-.18.05-.22a.25.25 0 0 1 .1-.15.32.32 0 0 1 .18-.06h.1a.13.13 0 0 0 .12-.02.14.14 0 0 0 .05-.1l.04-.5c.13.38.16.76.09 1.13Z" fill="#646658"/><path d="M29.78 22.09c-.69-.47-1.04-.33-1.07.42-.03-.17-.16-.3-.37-.4a.2.2 0 0 0-.25.29c.2.25.32.58.38.99a.3.3 0 0 1-.18.3l-1.2.53a.14.14 0 0 1-.1 0 .14.14 0 0 1-.08-.08l-.04-.08a.27.27 0 0 1-.01-.19c.16-.5.59-1.7-.56-1.7a.26.26 0 0 1-.26-.26v-.8a.22.22 0 0 1 .1-.18.22.22 0 0 1 .2-.02c1.43.65.73.42 1.92.18.25-.05.43 0 .53.15a.26.26 0 0 0 .21.11h.42a.27.27 0 0 1 .27.23l.09.5Z" fill="#BF814E"/><path d="m23.62 22.25.1 1.04a.27.27 0 0 0 .54-.03v-1.2c0-.04 0-.08.03-.11a.26.26 0 0 1 .08-.1l.98-.7a.03.03 0 0 1 .03 0h.01v.02c-.03.49.03.96.2 1.41.04.1.1.2.2.26.36.27.52.69.48 1.25 0 .08-.03.16-.08.22-.11.15-.31.21-.6.18-.09 0-.18.02-.26.07-.17.1-.38.17-.62.2a.24.24 0 0 0-.17.1.25.25 0 0 0-.05.18c.09.64 0 1.02-.26 1.14a.12.12 0 0 1-.1 0l-.97-.28a.32.32 0 0 0-.2 0 .3.3 0 0 0-.15.13.92.92 0 0 1-.29.3c-.1.06-.23.09-.36.06l-.86-.17a2 2 0 0 1-1.37-.22.34.34 0 0 0-.34 0c-.17.1-.33.28-.45.53-.27.2-.17.53.28.98l-.68.3c.04-.11 0-.17-.14-.18-.7-.02-2.42-.05-5.16-.08l1.66-.17.09-.03a.15.15 0 0 0 .05-.07c.05-.12.02-.23-.08-.34.11-.81-.24-1.2-1.06-1.17l-.96-.16a.44.44 0 0 1-.29-.7.45.45 0 0 1 .24-.17c.05-.01.2.02.44.08a.24.24 0 0 0 .3-.24c0-.05-.01-.1-.05-.14a.93.93 0 0 0-.75-.36.22.22 0 0 1-.21-.26l.1-.59 4.31 1.31c1.66.63 3.27.87 4.84.7l.59-.56a.31.31 0 0 0 .08-.3 2.1 2.1 0 0 0-.46-.9.94.94 0 0 0-.21-.44c-.1-.08-.24-.08-.45.01-.6.25-1.2.35-1.8.28a.28.28 0 0 1-.02-.55l.64-.14a.3.3 0 0 0 .16-.51c-.23-.2-.61-.18-1.15.04l-.06-.8a.17.17 0 0 1 .05-.13.16.16 0 0 1 .13-.04c1.4.12 2.76.47 4.05 1.05Z" fill="#FCA955"/><path d="m31.6 21.87.08.68c0 .11.06.22.13.31.31.37.38.78.2 1.24-.73-.13-2.1-.77-1.96-1.66.18-.3.26-.53.23-.7a.17.17 0 0 1 .1-.2l.56-.24a.23.23 0 0 1 .2 0 .23.23 0 0 1 .12.17l.14.75a.1.1 0 0 0 .09.08.1.1 0 0 0 .1-.07c.02-.09.02-.21 0-.36Z" fill="#ECB494"/><path d="M44.9 26.13a4.04 4.04 0 0 1-1.98-1.87 1.24 1.24 0 0 0-.47-.6.33.33 0 0 1-.13-.3l.16-1.28 1.2-.6a14.87 14.87 0 0 1 1.21 4.65Z" fill="#DA9D7B"/><path d="M33.42 21.87c-.27.28-.42.61-.45 1l-.62-.03a.25.25 0 0 1-.24-.2l-.18-.83c.45-.13.95-.1 1.49.06Z" fill="#677279"/><path d="M29.78 22.09c0 .29.1.4.27.35-.14.9 1.23 1.53 1.96 1.66v.16l1.12 1.88a.17.17 0 0 0 .3-.13.61.61 0 0 1 .24-.7l.06.94c0 .12.05.22.12.31a1 1 0 0 1 .25.73c-.08.1-.16.14-.23.14-.45-.1-.91-.17-1.4-.2-.4-.02-.56-.2-.46-.57.32.05.49-.03.5-.22a.27.27 0 0 0-.07-.2.26.26 0 0 0-.2-.09c-1.3.02-1.63-.08-1.03-.3.34-.01.62-.06.87-.16a.17.17 0 0 0 .06-.27l-.5-.51a.45.45 0 0 0-.21-.12c-.75-.19-1.26.02-1.54.62-.8.96-1.25 1.05-1.36.27.02-.34.18-.52.5-.52.2 0 .35-.08.44-.2a.11.11 0 0 0-.04-.17.11.11 0 0 0-.06 0c-.76.02-.92-.13-.47-.45.57.1.98-.03 1.24-.38a.2.2 0 0 0-.03-.28l-1.4-1.17c.03-.75.38-.9 1.07-.42Z" fill="#B68976"/><path d="m31.93 21.81.18.83a.25.25 0 0 0 .24.2l.62.03-.01.46-.2.08a.25.25 0 0 0-.14.32l.23.64c-.27.2-.54.15-.83-.11L32 24.1c.18-.46.11-.87-.2-1.24a.58.58 0 0 1-.13-.3l-.08-.7c.17.04.28.02.33-.05Z" fill="#FBECD3"/><path d="m32.85 24.37-.23-.64a.25.25 0 0 1 .15-.32l.19-.08a.89.89 0 0 0 .62-.36.18.18 0 0 1 .3.03c.1.22.28.39.52.51a.15.15 0 0 1-.03.28.4.4 0 0 1-.44-.11.56.56 0 0 0-.23-.15.5.5 0 0 0-.27-.03.4.4 0 0 0-.21.12.36.36 0 0 0-.1.21c-.06.6-.15.77-.27.54Z" fill="#5B4527"/><path d="M15.36 22.89c-.1.05-.17.1-.23.15a.21.21 0 0 0-.06.2.22.22 0 0 0 .15.17c.77.23 1.44.61 2.01 1.13l-4.3-1.3c-.04-.12 0-.22.14-.3a.6.6 0 0 1 .35-.04c.54.06 1.18.05 1.94-.01Z" fill="#4E291D"/><path d="M22.07 25.25a.54.54 0 0 0 .05-.32c-.03-.14-.1-.2-.23-.2a.88.88 0 0 1-.63-.14.15.15 0 0 1 .02-.26c.53-.24.86-.52 1-.85.2.2.35.5.46.9a.3.3 0 0 1-.08.3l-.6.57Z" fill="#A8622E"/><path d="M39.45 24.98a.26.26 0 0 1-.14.04c-.09-.5-.04-.83.13-.98.73-.61 1.51-.75 2.35-.44a.13.13 0 0 1-.05.26c-.93.03-1.7.4-2.29 1.12ZM42.05 24.64c.1.09.2.14.28.16a.11.11 0 0 1 .08.16l-.04.05a2.4 2.4 0 0 1-1.13.45.32.32 0 0 0-.3.28l-.04.34c-.13.66-.45.42-.99-.72l.7-.74a.4.4 0 0 1 .27-.12c.41-.02.8.03 1.17.14Z" fill="#E88249"/><path d="M29.89 25.41c.15.34.6.49 1.32.43-.6.23-.26.33 1.04.31a.26.26 0 0 1 .2.09.27.27 0 0 1 .06.2c-.01.2-.18.27-.5.22-.02-.1-.04-.17-.07-.2a.2.2 0 0 0-.33.07.2.2 0 0 0-.01.13c.1.47.03.84-.18 1.12l-.31-.14c.2-.17.14-.49-.21-.95a.59.59 0 0 0-.4-.2.21.21 0 0 0-.2.13 5.82 5.82 0 0 0 .06 1.26c.02.05 0 .1-.02.15a.26.26 0 0 1-.12.1.33.33 0 0 1-.33-.05c-.1-.08-.15-.22-.14-.4a.52.52 0 0 0-.2-.45c-.1-.08-.17-.18-.18-.28.05-.2.02-.31-.07-.36-.16-.09-.36-.08-.6 0-.2-.13-.27-.44-.17-.9.1.77.56.68 1.36-.28ZM39.91 25.36c.54 1.14.86 1.38.99.72l.38.96a.26.26 0 0 1-.03.24.26.26 0 0 1-.21.12h-.82a.4.4 0 0 1-.37-.25.39.39 0 0 1-.03-.15l.03-1.61.06-.03Z" fill="#7E583C"/><path d="M21.3 26.22c-.05.16-.05.25 0 .25-.17-.08-.3-.07-.4.03a.14.14 0 0 0-.04.1v1.72a.2.2 0 0 0 .25.2c.25-.07.33-.3.25-.73h.08c.11.22.16.41.14.58a.27.27 0 0 1-.21.24c-.31.05-.64-.04-.97-.29.2-.2.27-.39.23-.56-.04-.18-.18-.31-.43-.4-.3-.1-.51-.27-.65-.5a.15.15 0 0 1 .1-.22h.09c.27.1.43.1.49-.03.02-.04.02-.1 0-.14a.22.22 0 0 0-.08-.12c-.25-.18-.58-.12-1.01.18.12-.25.28-.43.45-.53a.34.34 0 0 1 .34 0 2 2 0 0 0 1.37.22Z" fill="#A26D55"/><path d="M20.4 28.32c-.07.16-.16.24-.26.24-.43-.07-.75-.2-.96-.4a.23.23 0 0 1-.02-.32l.02-.03a.22.22 0 0 1 .16-.08.23.23 0 0 1 .17.07c.18.17.35.25.51.24a.12.12 0 0 0 .12-.14.12.12 0 0 0-.04-.06c-.17-.18-.4-.3-.68-.33-.45-.45-.55-.77-.28-.98.43-.3.76-.36 1.01-.18.04.03.07.07.09.12.01.05 0 .1-.01.14-.06.13-.22.14-.5.03a.16.16 0 0 0-.2.13c0 .04 0 .07.02.1.14.22.35.39.65.49.25.09.39.22.43.4.04.17-.04.36-.23.56ZM24.65 26.6l.34.92c.44.6.5.92.17.97-.16.05-.24-.16-.24-.62l-.24-.12a.28.28 0 0 1-.14-.14.27.27 0 0 1 0-.18l.1-.35a.11.11 0 0 0-.01-.09.12.12 0 0 0-.07-.05l-.1-.04h-.06a.13.13 0 0 0-.09.05.13.13 0 0 0-.02.04l-.4 1.37a.18.18 0 0 1-.18.13c-.16.01-.28-.05-.35-.17-.07-.13-.15-.19-.24-.17-.15.04-.25.1-.3.2a.14.14 0 0 0 .06.18c.02.02.05.02.07.02h.35l-.91.1-.1-.57a.73.73 0 0 1 .02-.3c.08-.31.09-.63.03-.97a.27.27 0 0 1 .08-.25c.24-.21.4-.26.52-.13a.08.08 0 0 1 .02.07l-.1.68a.47.47 0 0 0 .66.5c.1-.04.18-.13.23-.23.05-.13.19-.36.41-.69.19-.27.35-.33.5-.16Z" fill="#BDD2D6"/><path d="M28.05 32.75c0 .05 0 .09-.04.12a.16.16 0 0 1-.1.06c-.68.08-1.1.33-1.24.75-.15.4-.68.78-1.6 1.13.19-.23.32-.45.4-.67-.1-1.39-.97-2.64-.48-6.62.05.04.1.1.14.17a.22.22 0 0 0 .41-.12V26.5a.14.14 0 0 1 .09-.13l.05-.01h.16c.05 0 .1.02.14.05a.2.2 0 0 1 .06.14v.97a.28.28 0 0 0 .23.28c.14.03.28.04.4.02a.33.33 0 0 1 .34.18c1.99.51.89 3.15 1.04 4.76Z" fill="#9F9084"/><path d="m21.3 26.47.06 1.32c.08.42 0 .66-.25.72a.2.2 0 0 1-.23-.1.2.2 0 0 1-.02-.09v-1.73c0-.03.02-.07.04-.1.1-.1.23-.1.4-.02Z" fill="#B5AFA6"/><path d="M28.7 26.95c.34.19.56.19.67 0 0 .07.49 1.11.52 1.14a.33.33 0 0 0 .33.05c.05-.03.1-.06.12-.11.06-.1-.36-2.28.56-1.34.03.08 0 .18-.08.3-.62-.09-.17.77-.11 1.13a.24.24 0 0 1-.24.28h-.66a.34.34 0 0 1-.34-.27.9.9 0 0 0-.22-.44.25.25 0 0 0-.17-.08.26.26 0 0 0-.18.05c-.2.16-.32.39-.38.69-.05.07-.12.08-.22.04-.12-.06-.2-.08-.22-.08-.16.03-.27.1-.33.2a.24.24 0 0 0 .01.27c.13.18.21.44.26.8L27.04 31a.14.14 0 0 1-.24-.03c-.28-.73.87-1.17.9-1.86l-.03-.1c-.14-.21-.98 0-.77-.16l.57-.4c.25-1.2.45-3.63.45-.46a.13.13 0 0 0 .25.02c.08-.4.26-.75.54-1.05Z" fill="#D9C5AD"/><path d="M32 26.66c-.09.36.07.55.48.57.48.03.94.1 1.39.2-.1.26-.04.5.18.73a.14.14 0 0 1 .02.17.14.14 0 0 1-.16.06c-.07-.02-.21-.22-.42-.6a.38.38 0 0 0-.35-.2.37.37 0 0 0-.33.24c0 .02.03.13.11.33a.17.17 0 0 1-.1.23l-.06.02a.2.2 0 0 1-.15-.02.18.18 0 0 1-.09-.13c-.03-.19.01-.34.11-.45a.17.17 0 0 0 .01-.23.17.17 0 0 0-.06-.05.98.98 0 0 0-.42 0 .26.26 0 0 0-.17.1.26.26 0 0 0-.05.19l.07.39a.2.2 0 0 1-.1.2c-.04.02-.08.03-.12.02a.2.2 0 0 1-.11-.05c-.25-.26-.33-.46-.26-.6.22-.28.28-.65.18-1.12a.2.2 0 0 1 .34-.2c.03.03.05.1.07.2ZM38.17 26.57c-.6-.14-.82.2-.65 1.05l.01.66a.13.13 0 0 1-.08.12.13.13 0 0 1-.05 0h-.16a.1.1 0 0 1-.07-.02.1.1 0 0 1-.03-.07l.04-.65.01-.73c.02-.2-.03-.3-.14-.3a.97.97 0 0 0-.37.11.1.1 0 0 1-.15-.1v-.16l.03-.01c.57-.15 1.1-.12 1.61.1Z" fill="#DAD5CA"/><path d="M29.37 26.95c-.11.19-.34.19-.66 0a.6.6 0 0 1-.01-.36c.24-.08.44-.09.6 0 .1.05.12.17.07.36Z" fill="#BDD2D6"/><path d="M31.1 27.64c-.18.1-.28-.13-.28-.65.08-.12.1-.22.08-.3.35.46.42.78.2.95Z" fill="#B5AFA6"/><path d="M24.92 27.87c.05.3.02.54-.08.72l-.3-.61a.16.16 0 0 0-.26-.03.83.83 0 0 0-.17.42c-.02.15-.12.24-.3.26-.16.01-.33-.01-.5-.08h-.36a.14.14 0 0 1-.13-.2c.05-.1.15-.16.3-.2.1-.02.17.04.24.17.07.12.19.18.35.17a.18.18 0 0 0 .17-.13L24.3 27a.13.13 0 0 1 .16-.09l.1.04a.12.12 0 0 1 .08.05.12.12 0 0 1 0 .09l-.1.35a.27.27 0 0 0 .01.18c.03.06.08.11.14.14l.24.12ZM20.14 28.56c-.1.26-.27.33-.5.21-.5-.25-.8-.57-.9-.95l.68-.3c.28.03.5.14.68.32a.12.12 0 0 1 .03.13.12.12 0 0 1-.11.07c-.16 0-.33-.07-.51-.24a.23.23 0 0 0-.17-.07.22.22 0 0 0-.16.08l-.02.03a.23.23 0 0 0 .02.31c.2.2.53.34.96.41Z" fill="#677279"/><path d="m11.92 27.58 2.83 4.46c.13 2.29.86 4.3 2.19 6.06a.35.35 0 0 1-.22.55l-.83.16a.25.25 0 0 0-.18.35c.02.05.06.08.1.11l.48.28c.04.02.07.06.09.1 0 .05 0 .1-.02.14-.06.1-.19.18-.38.22l-1.19-1.32.7-.39a.25.25 0 0 0 .13-.24c-.26-1.98-1.25-3.25-2.96-3.83a.2.2 0 0 1-.11-.3l.06-.1c.06-.1.08-.22.06-.32l-.61-3.41a.06.06 0 0 0-.07-.05l-.17.03a.17.17 0 0 0-.11.08.16.16 0 0 0-.02.13c.15.5.01.8-.42.88L11.02 28c.38-.35.68-.5.9-.42Z" fill="#9F9084"/><path d="M13.44 27.55c2.74.03 4.46.06 5.16.08.14 0 .18.07.14.19.1.38.4.7.9.95.23.12.4.05.5-.2.1-.01.19-.1.26-.25.33.25.66.34.97.29a.26.26 0 0 0 .21-.24c.02-.17-.03-.36-.14-.57a.7.7 0 0 1 .4-.26.24.24 0 0 1 .28.26c-.06.53.03.81.27.85l.91-.1c.18.07.35.1.51.08.18-.02.28-.1.3-.26a.83.83 0 0 1 .17-.42.16.16 0 0 1 .26.03l.3.61-.79 1.84-2.65-.63a.23.23 0 0 0-.13 0 .24.24 0 0 0-.1.07c-.2.2-.18.54.06 1.02a5.25 5.25 0 0 0-2.4-.94.12.12 0 0 0-.08.11l-.3 3.57a9.29 9.29 0 0 1-.86-3.95c.11-.23.16-.41.14-.55a.17.17 0 0 0-.27-.11c-.38.27-.89.36-1.51.27-.14-.02-.3-.01-.47.03-.47-.24-.8-.22-1 .06l-.16.56c0-.14-.05-.13-.13.04a.23.23 0 0 0 .02.24.24.24 0 0 0 .22.1c.42-.04.76.14 1.02.54.12.17.22.54.3 1.1.1.66.27 1.27.5 1.84-.08.3-.08.62 0 .95v.05l-.04.03a.4.4 0 0 1-.12.02.16.16 0 0 1-.15-.12 9.03 9.03 0 0 0-1.19-2.69l-2.83-4.46 1.52-.03Z" fill="#ADE4FA"/><path d="M25.16 28.5c0 .13.07.23.24.3.24.08.43-.06.7-.04a.16.16 0 0 1 .14.2c-.55 1.84.05 2.12 0 4.26a.45.45 0 0 1-.27.4.8.8 0 0 0-.5.52c-.08.22-.21.44-.4.67l-.2.06-.2-4a.37.37 0 0 0-.17-.3.94.94 0 0 0-.45-.14l.79-1.84c.1-.18.13-.42.08-.72 0 .46.08.67.24.62Z" fill="#D9C5AD"/><path d="M28.52 28.35v3.45l-.01 2.66a.15.15 0 0 0 .2.15l.3-.1c0 .24.3.3.86.2-.54-.03-.89.1-1.06.37l-1.3 1.44a.32.32 0 0 0-.05.38c.02.04.05.08.09.1l1.2.9-2.52-.02a.54.54 0 0 1-.41-.2 3.77 3.77 0 0 0-.98-.8.29.29 0 0 1-.14-.29l.18-1.72.2-.06c.91-.35 1.44-.72 1.59-1.13.15-.42.56-.67 1.24-.75.04 0 .08-.03.1-.06a.16.16 0 0 0 .04-.12l-.1-1.1c.04-.22.04-.43 0-.62l.07-1.45a1.82 1.82 0 0 0-.26-.8.24.24 0 0 1-.01-.26c.06-.11.17-.18.33-.2.03-.01.1.01.22.07.1.04.17.03.22-.04Z" fill="#6A7C46"/><path d="M15.48 29.32a.85.85 0 0 1-1 .06c.2-.28.53-.3 1-.06Z" fill="#A8622E"/><path d="M15.95 29.3c.18.63.18.96 0 1-.38-.37-.92-.49-1.63-.36l.16-.56c.35.2.68.17 1-.06.17-.04.33-.05.47-.03Z" fill="#BF814E"/><path d="M17.59 29.68c.03 1.52.31 2.84.86 3.95.4 0 .72-.1.96-.26a.28.28 0 0 1 .3 0c.36.2.51.58.46 1.12-.04.2-.05.39-.01.57a.3.3 0 0 0-.2.02.25.25 0 0 0-.15.14c-.5 1.3-1.85.53-2.35-.32-.78-1.31-.51-2.28-.6-3.57a.38.38 0 0 1 .1-.29l.1-.1c.08-.07.09-.15.02-.23-.04-.05-.12-.09-.23-.1-.33-.2-.4-.43-.24-.67.11-.15.44-.24.98-.26Z" fill="#A26D55"/><path d="M24.05 30.43c.16.01.3.06.44.15.05.03.1.08.12.13.03.05.05.1.05.16l.22 4-.18 1.72a.28.28 0 0 0 .14.28c.4.23.72.5.98.82a.55.55 0 0 0 .4.2l2.54.01 4.54.08.1.02.14.39a.37.37 0 0 0 .22.23c.2.08.37.2.49.37a1.35 1.35 0 0 0-.8 0 .59.59 0 0 1-.37-.02c-.63-.25-1.01-.33-1.13-.26a.26.26 0 0 0-.12.15.26.26 0 0 0 .01.19c.17.33.36.53.58.6a.26.26 0 0 1 .19.18.28.28 0 0 1-.07.26c-.1.13-.28.13-.52 0 .1-.33-.06-.57-.5-.71a.29.29 0 0 1-.14-.09.27.27 0 0 1-.06-.14c-.04-.3-.2-.37-.46-.23-.43.21-.68.64-.75 1.29l-1.87.15c.05-.25.01-.5-.12-.75a.17.17 0 0 1 .08-.23.17.17 0 0 0 .04-.02.44.44 0 0 0 .14-.35l-.02-.7a.24.24 0 0 0-.45-.12l-.4.7a.19.19 0 0 1-.35-.02c-.06-.16-.18-.3-.36-.45a.41.41 0 0 0-.32-.09c-.42.06-.92-.05-1.5-.31a.22.22 0 0 0-.31.2v.59c0 .06-.02.13-.07.19a.3.3 0 0 1-.16.1c-.35.09-.63.2-.86.34-.08-.29-.23-.4-.45-.35-.12.03-.15.14-.1.3l-2.11-.07a.4.4 0 0 1-.3-.15 7.5 7.5 0 0 1-1.35-2.38l.76.9a.56.56 0 0 0 .95-.17l.23-.61a.25.25 0 0 0 0-.17.26.26 0 0 0-.11-.14l-.35-.2a.36.36 0 0 1-.15-.17l-.44-1.17c-.04-.18-.03-.37 0-.57.1.08.2.13.28.14a.22.22 0 0 0 .27-.2c.02-.28-.09-.46-.3-.53a.13.13 0 0 1-.1-.15l.04-.06c.2-.2.32-.48.35-.85a5.1 5.1 0 0 1 .53-1.95c-.23-.48-.25-.82-.06-1.02a.24.24 0 0 1 .1-.06.23.23 0 0 1 .13 0l2.65.62Z" fill="#677279"/><path d="M21.23 30.89a5.1 5.1 0 0 0-.53 1.95c-.03.37-.14.66-.35.85a.13.13 0 0 0 .05.21c.22.07.33.25.31.53a.22.22 0 0 1-.27.2.8.8 0 0 1-.27-.14c.05-.54-.1-.91-.45-1.13a.28.28 0 0 0-.31.01c-.24.17-.56.25-.96.26l.3-3.57a.12.12 0 0 1 .13-.11c.74.07 1.53.39 2.35.94Z" fill="#E7F1F0"/><path d="M14.79 38.7a15.82 15.82 0 0 1-3.52-7.53c.43-.09.57-.38.42-.88a.16.16 0 0 1 .02-.13.16.16 0 0 1 .1-.08l.18-.03a.06.06 0 0 1 .07.05l.6 3.4c.03.11 0 .23-.05.32l-.06.12a.2.2 0 0 0 .1.29c1.72.58 2.7 1.85 2.97 3.83 0 .04 0 .1-.02.14a.25.25 0 0 1-.1.1l-.71.4Z" fill="#646658"/><path d="m33.73 31.77.29.32c.06.07.08.14.05.2a.1.1 0 0 1-.18.03 1.77 1.77 0 0 0-.58-.37.93.93 0 0 0-.35-.06c-.7.02-1.4-.08-2.07-.3a5.75 5.75 0 0 1-1.67-1.26c0-.01 0-.03.02-.04a.05.05 0 0 1 .07 0 6.77 6.77 0 0 0 4.42 1.48Z" fill="#9F9084"/><path d="m37.87 30.66-.97.3-.22.47a.18.18 0 0 1-.11.1.19.19 0 0 1-.15-.02.32.32 0 0 0-.33-.03c-.06-.2-.2-.3-.41-.26a.37.37 0 0 0-.29.24.8.8 0 0 1-.43.49.44.44 0 0 1-.39-.03c-.38-.24-.56-.18-.55.17l-.3-.32c1.55-1.05 2.93-1.42 4.15-1.1Z" fill="#3A4C53"/><path d="M37.87 30.66a3.8 3.8 0 0 1 1.96 1.23.06.06 0 0 1-.04.07.19.19 0 0 1-.12 0 1.63 1.63 0 0 0-1.05-.14.76.76 0 0 0-.5 1.05c.1.24.38.28.82.14-.14.23-.2.45-.21.66-.02-.14-.05-.25-.11-.31a.35.35 0 0 0-.46-.06.34.34 0 0 0-.1.12c-.07.11-.08.26-.02.43l-.06-.16a.07.07 0 0 0-.07-.05.07.07 0 0 0-.06.06c-.13.55-.51.79-1.14.71a.32.32 0 0 1-.28-.1.22.22 0 0 1-.03-.28.22.22 0 0 1 .08-.06l.03-.02a.51.51 0 0 0 .26-.42l.03-.44a.31.31 0 0 1 .39-.29l.05.02a.26.26 0 0 0 .33-.2c.05-.26 0-.52-.12-.79.2-.2.2-.38.02-.55-.2-.19-.4-.3-.57-.31l.97-.3Z" fill="#BEA68D"/><path d="M27.95 31.03c.04.2.04.4 0 .61-.42.12-.73.34-.93.67a.13.13 0 0 1-.24-.07c-.03-.44.16-.74.55-.9a.43.43 0 0 0 .25-.27l.04-.11a.14.14 0 0 1 .11-.1.14.14 0 0 1 .14.06l.08.1Z" fill="#E8DDA8"/><path d="M36.9 30.97c.18.02.37.12.57.31.18.17.17.35-.02.55-.25.05-.38.19-.4.41a.24.24 0 0 1-.25.2.23.23 0 0 1-.12-.03c-.3-.23-.5-.54-.59-.93.11-.05.22-.04.33.03a.19.19 0 0 0 .15.02.18.18 0 0 0 .11-.1l.22-.46Z" fill="#FBECD3"/><path d="m39.67 31.96.12.4c-.24.33-.53.54-.85.65-.44.14-.72.1-.82-.14a.77.77 0 0 1 .5-1.05c.28-.08.63-.04 1.05.14Z" fill="#161618"/><path d="M16.26 33.8c.3 1.78 1.31 2.75 3.02 2.92l-.01.07c.3.89.75 1.68 1.35 2.38a.4.4 0 0 0 .3.15l2.11.08.31.8a.21.21 0 0 1-.11.27c-.42.19-.8.66-1.16 1.41l-1.5.57c0-.65-.1-1.27-.32-1.87a.42.42 0 0 0-.27-.27l-.23-.07a.22.22 0 0 1-.16-.24c0-.03.02-.07.04-.1a.83.83 0 0 0 .16-.5.18.18 0 0 0-.28-.15.18.18 0 0 0-.07.1l-.23.78a.47.47 0 0 1-.22.27c-.22.13-.46.18-.71.15a.48.48 0 0 0-.36.1l-.6.51-1.34-1.15c.2-.04.32-.11.38-.22a.18.18 0 0 0 .02-.13.18.18 0 0 0-.09-.1l-.48-.29a.25.25 0 0 1 .08-.46l.83-.16a.35.35 0 0 0 .29-.38.35.35 0 0 0-.07-.17 10.75 10.75 0 0 1-2.19-6.06c.55.83.94 1.73 1.19 2.69a.15.15 0 0 0 .15.12.4.4 0 0 0 .12-.02l.04-.03v-.05a1.9 1.9 0 0 1 0-.95Z" fill="#DAD5CA"/><path d="M41.07 33.7c.04.28.09.45.15.5.05.42.02.78-.1 1.1a.11.11 0 0 0 .06.14h.06l1.76-.3c.16.01.29-.01.37-.09l-.5 1.13c-.63-.1-1.3-.1-1.98.03l-1.81-.09a.1.1 0 0 1-.05-.02.1.1 0 0 1-.04-.04c-.04-.09 0-.16.13-.2a.12.12 0 0 0 .07-.07.13.13 0 0 0 0-.1c-.04-.09-.1-.12-.18-.1a5 5 0 0 0-.28-1.92c0-.21.07-.43.21-.66.32-.11.6-.32.85-.64.17-.18.34-.19.5-.03.32.33.58.78.78 1.36Z" fill="#D9C5AD"/><path d="M29.87 34.71c-.57.1-.85.04-.86-.2 1.16-.4 2.1-.61 2.82-.64.63-.02.98-.18 1.04-.49a.09.09 0 0 1 .07-.08.09.09 0 0 1 .1.05l-.14.28c-.08.16-.06.33-.14.48-.04.1-.13.14-.26.14a8.2 8.2 0 0 0-2.63.46Z" fill="#9F9084"/><path d="m38.04 33.85.3 1.8-1.74.03c.73-.06.95-.19.66-.38.3 0 .42-.14.4-.4a.34.34 0 0 0-.5-.28.8.8 0 0 0-.15.15.64.64 0 0 1-.3-.36c.63.08 1-.16 1.14-.7a.07.07 0 0 1 .06-.07.07.07 0 0 1 .07.05l.06.16Z" fill="#7E583C"/><path d="m43.76 34.26-.39.8c-.08.07-.2.1-.37.08.13-.08.2-.14.23-.2a.38.38 0 0 0-.02-.33.38.38 0 0 0-.26-.19c-.54-.1-1.11-.17-1.73-.21-.06-.06-.11-.23-.15-.5l2.7.55Z" fill="#A1B28A"/><path d="m43 35.14-1.76.3a.11.11 0 0 1-.13-.14c.13-.32.16-.68.1-1.1.63.05 1.2.13 1.74.22a.37.37 0 0 1 .26.2.38.38 0 0 1 .02.32c-.03.06-.1.12-.23.2Z" fill="#3A4C53"/><path d="M37.27 35.3a1.5 1.5 0 0 1-.26-.53.8.8 0 0 1 .16-.15.34.34 0 0 1 .49.28c.02.26-.1.4-.4.4Z" fill="#D9C5AD"/><path d="m19.27 36.8.01-.08c.63-.2.92-.76.88-1.66l.44 1.17c.03.07.08.14.15.18l.35.2c.05.02.09.07.1.13.03.05.03.11 0 .17l-.22.6a.56.56 0 0 1-.95.17l-.76-.89ZM28.81 35.09a6.26 6.26 0 0 0 3.54 1.27.4.4 0 0 1 .35.24l.6 1.38-4.54-.08-1.21-.9a.33.33 0 0 1-.12-.36.32.32 0 0 1 .07-.12l1.31-1.44Z" fill="#3A4C53"/><path d="M39.01 35.59c.08-.02.14.01.18.1a.13.13 0 0 1 0 .1.13.13 0 0 1-.07.07c-.13.04-.17.11-.13.2l.04.04a.1.1 0 0 0 .05.02l1.8.1-2.2.07c-.3.07-.61.09-.95.05l-1.62-.06a.13.13 0 0 1-.1-.18.8.8 0 0 1 .6-.42l1.72-.02.68-.07Z" fill="#BEA68D"/><path d="m42.87 36.18-1.17 1.84-1.37.02a.23.23 0 0 0-.17.07.23.23 0 0 0-.06.17c0 .18-.05.3-.18.36-.44.2-.65.56-1.13.73.41-.78.97-1.49 1.68-2.12a.15.15 0 0 0-.11-.26c-.58.06-1.14-.18-1.69-.7l2.22-.08c.69-.12 1.35-.13 1.98-.03Z" fill="#646658"/><path d="M41.7 38.02a13.83 13.83 0 0 1-3.1 3.18c-.15-.3-.21-.6-.18-.93a.18.18 0 0 0-.05-.14.2.2 0 0 0-.14-.07.48.48 0 0 0-.25.08c-.08.05-.1.2-.09.44.04.45-.03.89-.21 1.32l-1.76 1.13c-.2-.26-.56-.24-1.11.06-.1.05-.18.06-.24.04-.1-.03-.18 0-.21.07-.1.28-.38.38-.64.4a.16.16 0 0 1-.13-.26l1.21-1.49c.22.3.43.55.63.76a.27.27 0 0 0 .27.08.3.3 0 0 0 .2-.2c.05-.13.02-.27-.1-.4a.42.42 0 0 1-.08-.38c.13-.51.01-.8-.36-.87 0-.17.06-.4.16-.65a.15.15 0 0 0-.02-.15.16.16 0 0 0-.14-.06c-.03 0-.12.07-.3.2-.1.07-.15.23-.14.47 0 .27-.05.51-.16.71a.55.55 0 0 1-.16.19l-1.8 1.3c-.1.07-.21.11-.33.12a9.35 9.35 0 0 1-3.88-.7c.04-.58-.1-1-.43-1.24l.63-.32a.52.52 0 0 1 .28-.06c.45.03.87-.05 1.26-.25l1.7-.31c.23.12.4.12.51 0a.28.28 0 0 0 .07-.26.27.27 0 0 0-.19-.19c-.22-.06-.4-.26-.58-.6a.26.26 0 0 1-.01-.18.26.26 0 0 1 .12-.15c.12-.07.5.01 1.13.26.11.04.24.05.36.01.26-.08.53-.07.8.01a4.49 4.49 0 0 0 4.55.38c.48-.17.7-.54 1.13-.73.13-.06.19-.18.18-.36a.22.22 0 0 1 .07-.17.23.23 0 0 1 .16-.07l1.37-.02Z" fill="#9F9084"/><path d="M28.24 40.36c-.18-.2-.36-.3-.5-.27a.15.15 0 0 0-.1.07c-.21.3-.46.35-.75.18a.19.19 0 0 1-.05-.27c.15-.2.33-.3.55-.33a.08.08 0 0 0 0-.16c-1-.2-1.5.1-1.49.9l-.28-.09a.23.23 0 0 0-.29.15c-.03.09-.03.2-.01.32-.12-.3-.5-.65-.87-.52-.1.04-.2.05-.28.05a.32.32 0 0 1-.29-.2l-.3-.75c.23-.14.51-.25.86-.34a.3.3 0 0 0 .16-.1.31.31 0 0 0 .07-.2v-.59a.22.22 0 0 1 .3-.2c.59.27 1.09.38 1.5.32a.42.42 0 0 1 .33.09c.18.14.3.3.36.45a.19.19 0 0 0 .16.12.19.19 0 0 0 .18-.1l.41-.7a.24.24 0 0 1 .45.11l.02.71a.47.47 0 0 1-.14.34l-.04.03a.17.17 0 0 0-.08.23c.13.26.17.5.12.75Z" fill="#BEA68D"/><path d="m23.58 39.44.3.75a.32.32 0 0 0 .29.2c.09 0 .18-.01.28-.05.36-.13.75.21.87.52l.25 1.24c-1.64 1.32-2.87 1.75-3.7 1.28l1.3-.26a.31.31 0 0 0 .24-.22.3.3 0 0 0-.08-.3 2.92 2.92 0 0 0-1.26-.72c.36-.75.74-1.22 1.16-1.4a.21.21 0 0 0 .11-.27l-.31-.81c-.05-.17-.02-.28.1-.31.22-.06.37.06.45.35Z" fill="#713E32"/><path d="m20.57 42.45-.58.55a10.26 10.26 0 0 1-2.68-1.84l.6-.5a.47.47 0 0 1 .37-.11c.25.03.49-.02.7-.15.11-.06.2-.16.23-.27l.23-.78a.18.18 0 0 1 .35.04c0 .18-.05.35-.16.51a.23.23 0 0 0-.03.2.22.22 0 0 0 .15.14l.23.07a.43.43 0 0 1 .27.27c.21.6.32 1.22.32 1.87Z" fill="#5B4527"/><path d="m28.24 40.36 1.87-.15c.01.06.09.12.22.2-.4.19-.81.27-1.26.24-.1 0-.2.02-.28.06l-.63.32-2.26-.55c0-.8.5-1.1 1.5-.9a.08.08 0 0 1 0 .16.81.81 0 0 0-.56.33.19.19 0 0 0 .05.27c.29.17.54.11.74-.18a.15.15 0 0 1 .1-.07c.15-.02.33.07.51.27Z" fill="#646658"/><path d="M38.6 41.2c-.24.33-.55.56-.92.7.18-.43.25-.87.21-1.32-.02-.24.01-.39.09-.44a.48.48 0 0 1 .25-.08.2.2 0 0 1 .14.07.19.19 0 0 1 .05.14c-.03.33.03.64.18.93Z" fill="#4A322C"/><path d="m25.9 40.48 2.26.55c.33.24.47.66.43 1.24l-.06.92a.23.23 0 0 1-.2.21c-1.98.24-2.9-.2-2.76-1.3l-.25-1.24a.71.71 0 0 1 .01-.32.23.23 0 0 1 .29-.15l.28.1Z" fill="#B5AFA6"/><path d="M34.8 41.85c.3-.2.49-.53.56-1 .37.06.5.35.36.86a.42.42 0 0 0 .08.38c.12.13.15.27.1.4a.3.3 0 0 1-.2.2.27.27 0 0 1-.27-.08c-.2-.21-.4-.47-.63-.76Z" fill="#D5BE8E"/><path d="M22.07 41.88c.42.1.84.34 1.26.72a.3.3 0 0 1 .08.3.3.3 0 0 1-.23.22l-1.3.26c-.54-.26-.99-.3-1.35-.15a.84.84 0 0 0-.54-.23l.58-.55 1.5-.57Z" fill="#BF814E"/><path d="M33.2 44.14a16.03 16.03 0 0 1-9.26.33l4.12-.06h.04c.75-.17 1.46-.4 2.14-.7a.33.33 0 0 1 .2-.02l2.76.45Z" fill="#646658"/><path d="M29.83 12.6c.18-.06.4-.03.66.1.11.04.23.05.34 0a2.97 2.97 0 0 1 1.4-.09.1.1 0 0 1 0 .16c-.85.74-1.66.78-2.45.12a.17.17 0 0 1 .05-.28Z" fill="#BDD2D6"/><path d="M16.46 19.62c.1.62.09 1.2-.02 1.74-.06.28-.28.36-.66.22a.36.36 0 0 1-.14-.59c.28-.27.46-.73.53-1.37a.15.15 0 0 1 .14-.13.15.15 0 0 1 .15.13Z" fill="#BF814E"/><path d="M41.58 26.15c.08-.16.05-.33-.07-.39-.11-.05-.27.03-.34.19-.08.15-.05.32.07.38.11.05.27-.03.34-.18Z" fill="#A1B28A"/><path d="M26.85 27.91a.1.1 0 0 1 .06.03.1.1 0 0 1 .04.06l.03.15a.1.1 0 0 1-.02.07.09.09 0 0 1-.06.03l-.99.18a.2.2 0 0 1-.2-.09.2.2 0 0 1-.03-.07l-.04-.2a.12.12 0 0 1 .03-.1.13.13 0 0 1 .1-.06h1.08Z" fill="#B5AFA6"/><path d="M34.18 27.43c.63-1.55 1.96-1.36 2.15.2-.7 1.2-1.42 1.13-2.15-.2Zm1.1-.86a.6.6 0 0 0-.26.06.7.7 0 0 0-.22.19.85.85 0 0 0-.14.27.9.9 0 0 0 .17.9c.13.14.3.23.49.22a.6.6 0 0 0 .26-.07.7.7 0 0 0 .22-.18.85.85 0 0 0 .15-.27.96.96 0 0 0-.17-.9.64.64 0 0 0-.5-.22Z" fill="#DAD5CA"/><path d="m39.88 34.17-.17.08a.24.24 0 0 1-.19 0 .23.23 0 0 1-.12-.12l-.29-.65a.34.34 0 0 1 .12-.41l.76-.55a.16.16 0 0 1 .24.07c.2.57.27 1.13.23 1.67l-.03.1a.2.2 0 0 1-.07.06.25.25 0 0 1-.2.01c-.09-.03-.13-.09-.14-.17a.1.1 0 0 0-.14-.09Z" fill="#E7F1F0"/><path d="M35.5 27.5a.35.35 0 0 1-.31.01.12.12 0 0 1-.07-.12.11.11 0 0 1 .09-.1c.1-.03.2-.02.3.02a.1.1 0 0 1 .04.15.1.1 0 0 1-.05.04Z" fill="#BF814E"/></svg>