<svg width="56" height="56" viewBox="0 0 56 56" xmlns="http://www.w3.org/2000/svg"><path d="M23.97 12.56a16.3 16.3 0 0 1 20.01 11.7c.04.15.01.16-.08.03a29.82 29.82 0 0 0-6.87-6.4 33.84 33.84 0 0 0-8.4-4.15 24.96 24.96 0 0 0-4.65-1.08c-.18-.03-.18-.06-.01-.1Z" fill="#C7F285"/><path d="M34.66 22.91a33.17 33.17 0 0 0-6.77-3.77 27 27 0 0 0-7.47-1.93 16.35 16.35 0 0 0-4.26.1c-.11.02-.13 0-.05-.09A4.63 4.63 0 0 1 18.1 16a8.9 8.9 0 0 1 2.36-.43c1.39-.08 2.78.01 4.17.28 2.03.4 4.07 1.07 6.13 2.04a30.9 30.9 0 0 1 5.57 3.4 25.2 25.2 0 0 1 3.18 2.87 19.53 19.53 0 0 1 2.56 3.41c.54.92.92 1.81 1.15 2.67.27 1.04.3 1.98.08 2.83-.04.18-.1.18-.16 0a9.84 9.84 0 0 0-.57-1.35c-.86-1.7-2-3.32-3.42-4.86a29.1 29.1 0 0 0-4.5-3.95Z" fill="#B3EC90"/><path d="M39.22 39.73a15.11 15.11 0 0 0-2.82-6.42c-1.32-1.81-3-3.47-5-4.97a27.58 27.58 0 0 0-6.64-3.65c-1.3-.5-2.6-.87-3.9-1.12a18.95 18.95 0 0 0-4.02-.36c-1.55.04-3 .31-4.37.82-.05.02-.07 0-.06-.05.04-.28.08-.5.13-.64.06-.21.17-.41.3-.59.86-1.08 2.2-1.74 4.04-2 .74-.1 1.54-.13 2.4-.1.73.04 1.47.13 2.23.26a25.1 25.1 0 0 1 6.23 2c1.97.92 3.85 2.06 5.64 3.44 1.26.96 2.38 1.99 3.36 3.07a18.3 18.3 0 0 1 2.6 3.7c.48.9.8 1.78.97 2.62.2 1 .16 1.92-.1 2.75-.09.25-.2.47-.35.67-.1.12-.27.3-.51.53l-.07.06a.03.03 0 0 1-.03 0 .03.03 0 0 1-.03-.02Z" fill="#87E0A7"/><path d="M34.38 42.82c-.05.02-.08 0-.1-.05a14.55 14.55 0 0 0-1.63-3.95A17.31 17.31 0 0 0 30 35.44a22.49 22.49 0 0 0-7.19-4.73 18.39 18.39 0 0 0-4.34-1.19A16.38 16.38 0 0 0 14 29.5a9.87 9.87 0 0 0-1.82.4 20.28 20.28 0 0 1-.18-2.11.2.2 0 0 1 .08-.17 6.3 6.3 0 0 1 1.9-.93 11.7 11.7 0 0 1 4.09-.44c1.3.07 2.66.32 4.1.75a23.55 23.55 0 0 1 11.21 7.33 15.14 15.14 0 0 1 2.22 3.57c.28.63.49 1.28.62 1.94.15.76.18 1.43.08 2.02 0 .04-.03.06-.06.08-.58.32-1.2.61-1.86.89Z" fill="#5FD6BC"/><path d="M12.8 32.29c1.05-.32 2.18-.48 3.4-.47 1.14 0 2.28.16 3.43.46a18.9 18.9 0 0 1 8.27 4.57 15 15 0 0 1 2.4 2.86 12.25 12.25 0 0 1 1.62 3.8c0 .05-.01.08-.07.1-1 .22-2 .35-3 .39a.09.09 0 0 1-.09-.05c-.71-1.3-1.61-2.5-2.7-3.58a17.22 17.22 0 0 0-7.7-4.5 16 16 0 0 0-4.43-.59.05.05 0 0 1-.05-.03c-.48-.94-.86-1.88-1.15-2.82-.02-.07 0-.12.08-.14Z" fill="#3ACCD0"/><path d="M26.52 43.9a16.47 16.47 0 0 1-11.41-6.68v-.03c0-.01.01-.02.02-.01 1.1.06 2.2.28 3.3.63a15.66 15.66 0 0 1 5.92 3.47 14.29 14.29 0 0 1 2.2 2.61c0 .02-.01.02-.03.02Z" fill="#1EC4E1"/></svg>