<svg xmlns="http://www.w3.org/2000/svg" width="112" height="112" viewBox="0 0 56 56"><rect fill="#F0F3FA" width="56" height="56" rx="28"/><path d="M28 9.5l17 9.25v18.5L28 46.5l-17-9.25v-18.5L28 9.5z" fill="url(#aatfowe43)"/><path d="M28 10.48l16 8.75v17.5l-16 8.75-16-8.75v-17.5l16-8.75z" fill="#1F0F69"/><circle cx="28" cy="28" fill="#102D94" r="12"/><path d="M44 36.61v.04L27.94 45.3l-15.83-8.52 15.9-8.48L44 36.6z" fill="url(#batfowe43)"/><circle cx="28" cy="23" r="2" fill="#F8CA7F"/><circle cx="28" cy="23" r="1" fill="#FEF3E5"/><path d="M28.09 45.57c-.75-18-9.17-21.73-15.9-26.38l14.98 8.28c.7.4 1.57.39 2.27 0l14.68-8.28c-7.04 4.38-16.03 9.6-16.03 26.38z" fill="url(#catfowe43)"/><defs><linearGradient id="aatfowe43" x1="28" y1="9.5" x2="28" y2="46.5" gradientUnits="userSpaceOnUse"><stop stop-color="#CB7C20"/><stop offset=".13" stop-color="#F9D283"/><stop offset=".32" stop-color="#CD7903"/><stop offset=".54" stop-color="#E3A04E"/><stop offset=".72" stop-color="#CE7811"/><stop offset=".86" stop-color="#EAC686"/><stop offset="1" stop-color="#D17D0F"/></linearGradient><linearGradient id="batfowe43" x1="28.06" y1="28.3" x2="28.06" y2="45.3" gradientUnits="userSpaceOnUse"><stop stop-color="#131D74"/><stop offset="1" stop-color="#131D74" stop-opacity="0"/></linearGradient><linearGradient id="catfowe43" x1="28.15" y1="19.19" x2="28.15" y2="45.57" gradientUnits="userSpaceOnUse"><stop offset=".17" stop-color="#D88B1F"/><stop offset=".45" stop-color="#FFF5E7"/><stop offset=".9" stop-color="#D47E19"/></linearGradient></defs></svg>