<svg width="112" height="112" viewBox="0 0 56 56" xmlns="http://www.w3.org/2000/svg"><path d="M28.02 10.02a74.26 74.26 0 0 0 4.32 6.8c.35.49 1.12 1.49 2.32 3A66.02 66.02 0 0 1 39.64 27c.76 1.28 1.1 2.88 1.27 4.45.18 1.66.09 3.25-.29 4.77-.3 1.19-.82 2.33-1.56 3.44-2.13 3.13-5.24 5.55-8.96 6.2-.74.13-1.79.13-2.5.14-1.82.03-3.78-.55-5.34-1.4A14.83 14.83 0 0 1 18 41.03a12.63 12.63 0 0 1-2.9-10c.18-1.44.6-2.79 1.3-4.04a36.87 36.87 0 0 1 3.42-5.34 208.3 208.3 0 0 0 3.13-3.93A54.9 54.9 0 0 0 27.98 10a.05.05 0 0 1 .04.02ZM28 42.86c.59 0 .98-.02 1.16-.05a9.71 9.71 0 0 0 5.5-2.74c.68-.68 1.27-1.4 1.75-2.15 1.38-2.15 1.63-4.97 1.04-7.44a9.53 9.53 0 0 0-1.18-2.67 44.8 44.8 0 0 0-3.74-5.19 40.32 40.32 0 0 1-4.45-6.76c-.03-.06-.06-.1-.08-.1a40.24 40.24 0 0 1-4.53 6.86 44.67 44.67 0 0 0-3.74 5.2c-.6.98-1 1.87-1.18 2.66-.6 2.47-.35 5.29 1.03 7.44a12.7 12.7 0 0 0 1.76 2.15 9.71 9.71 0 0 0 5.5 2.74c.18.03.57.04 1.16.04Z" fill="#FA6200"/><path d="M24.72 38.58a9.7 9.7 0 0 0 2.86 1.84c.24.1.65.24 1.22.45.27.1.27.14-.02.13a9.35 9.35 0 0 1-2.77-.46c-3-1.06-4.66-3.8-5-7.4-.02-.18 0-.19.07-.02a13.76 13.76 0 0 0 3.64 5.46Z" fill="#FA6200"/></svg>