<svg width="112" height="112" viewBox="0 0 56 56" xmlns="http://www.w3.org/2000/svg"><rect fill="#FD315A" width="56" height="56" rx="28"/><path d="M28 19.44c-.5-.03-1.78-.01-3.5.28-.66-2.8-2.66-8.4-5.41-8.4-3.45 0-4.76 9.15-4.76 11.85 0 3.3.84 6.53 1.26 7.74a84.15 84.15 0 0 0-.66 10.39c4 1.22 8.8 1.73 13.12 1.73 4.32 0 9.06-.68 13.02-1.9 0-4.54-.44-8.7-.66-10.22.42-1.21 1.26-4.45 1.26-7.74 0-2.7-1.31-11.85-4.76-11.85-2.75 0-4.75 5.6-5.41 8.4-1.72-.3-3-.31-3.5-.28Z" fill="#E38E1A"/><path d="M22 20.47c-2.08 1.24-4.07 4.2-4.8 5.53-.75-7.8.75-11 2.15-11s2.55 4.37 2.65 5.47Z" fill="#C66A1E"/><path d="M21 21.2c-1.13 1.13-2.15 2.14-2.98 3.45-.14-5.74.65-7.65 1.43-7.65.7 0 1.3 2.55 1.55 4.2Z" fill="#B66321"/><path d="M34 20.47c2.08 1.24 4.07 4.2 4.8 5.53.75-7.8-.75-11-2.15-11S34.1 19.37 34 20.47Z" fill="#C66A1E"/><path d="M35 21.17a21.1 21.1 0 0 1 2.98 3.54c.14-5.74-.65-7.71-1.43-7.71-.7 0-1.3 2.53-1.55 4.17Z" fill="#B66321"/><path d="m24.79 19.71 3.26-.38 3.27.38c-.3.58-.93 2.3-.93 4.56 0 5.88 5.96 6.93 7.35 7.17l.22.04c.76.16 1.36.98 1.36 1.46 0 .4-.29 1.07-.44 1.36v2.5c0 1.17-.97 2.58-1.46 3.14l-9.37.92-9.36-.92c-.49-.56-1.47-1.97-1.47-3.15V34.3a4.03 4.03 0 0 1-.43-1.36c0-.48.6-1.3 1.36-1.46l.22-.04c1.38-.24 7.34-1.29 7.34-7.17 0-2.26-.61-3.98-.92-4.56Z" fill="#fff"/><path d="m28.05 19.17 3.53.4-.11.22c-.3.55-.91 2.25-.91 4.48a6.17 6.17 0 0 0 3.07 5.56c1.64 1.01 3.45 1.33 4.14 1.45l.22.04c.43.1.8.36 1.06.66.26.3.43.67.43.96 0 .23-.08.52-.17.77a6.3 6.3 0 0 1-.26.63v2.45c0 .63-.26 1.3-.57 1.88a7.87 7.87 0 0 1-.94 1.38l-.04.05-9.45.93-9.44-.93-.04-.05c-.25-.3-.63-.8-.94-1.38a4.19 4.19 0 0 1-.57-1.88v-2.45a6.32 6.32 0 0 1-.26-.63c-.1-.25-.18-.54-.18-.77 0-.3.18-.66.44-.96a1.99 1.99 0 0 1 1.27-.7c.7-.12 2.51-.44 4.14-1.45a6.17 6.17 0 0 0 3.08-5.56c0-2.23-.61-3.93-.9-4.48l-.12-.21 3.52-.41Zm-3.01.68c.33.74.84 2.36.84 4.42a6.5 6.5 0 0 1-3.23 5.84 12.08 12.08 0 0 1-4.25 1.49l-.22.04c-.33.07-.64.29-.87.55a1.3 1.3 0 0 0-.36.75c0 .17.07.41.16.67l.26.62.02.03v2.53c0 .55.23 1.17.53 1.73.28.53.62.99.86 1.27l9.27.9 9.28-.9c.24-.28.58-.74.86-1.27.3-.56.53-1.18.53-1.73v-2.53l.02-.03c.07-.14.17-.38.26-.62.1-.26.16-.5.16-.67 0-.19-.13-.47-.36-.74a1.66 1.66 0 0 0-1.09-.6c-.7-.12-2.56-.45-4.25-1.5a6.5 6.5 0 0 1-3.23-5.83c0-2.06.5-3.68.84-4.42l-3.02-.36-3.01.36Z"/><path d="M26 34.91h4.06c.42-.1 1.28-.35 2.04-.63a4 4 0 0 1-2.73-.42c-1.02-.48-1.64-.47-2.67 0a4.21 4.21 0 0 1-2.8.42c.78.28 1.67.52 2.1.63Z" fill="#47342D"/><path d="M28 42.65c3.16.03 10.09-.25 12.96-1.63 0-1.03-.1-2.02-.16-2.38l-.15.05c-.79.24-4.71 1.46-12.65 1.47-7.94 0-11.86-1.23-12.65-1.47a1.31 1.31 0 0 0-.15-.05c-.05.36-.16 1.35-.16 2.38 2.87 1.38 9.8 1.66 12.96 1.63Z" fill="#38C9CE"/><path d="M23 28a1 1 0 1 1-2 0 1 1 0 0 1 2 0Z"/><path d="M23.35 25.76c-.51.36-1.1.3-1.29-.12-.19-.42.07-1.05.59-1.4.51-.36 1.1-.3 1.29.12.19.42-.07 1.05-.59 1.4ZM32.65 25.76c.51.36 1.1.3 1.29-.12.19-.42-.07-1.05-.59-1.4-.51-.36-1.1-.3-1.29.12-.19.42.07 1.05.59 1.4Z" fill="#fff"/><path d="M25 29.61c0-.94.87-1.61 3-1.61s3 .67 3 1.61c0 1.56-2 2.24-3 2.39-1-.15-3-.83-3-2.39ZM35 28a1 1 0 1 1-2 0 1 1 0 0 1 2 0ZM22.44 32.1c.06.02.1.08.08.14-.05.2-.08.51 0 .83.1.31.29.62.68.8.2.1.42.18.65.27.68.1 1.18.08 1.6-.01.36-.09.7-.24 1.03-.39.5-.22 1-.44 1.57-.44.58 0 1.08.22 1.58.44.33.15.67.3 1.04.39.4.09.9.12 1.6.01l.64-.27c.39-.18.58-.49.67-.8.09-.32.06-.64.01-.83a.11.11 0 0 1 .08-.14.1.1 0 0 1 .13.08c.06.23.09.59-.01.95-.1.36-.34.73-.8.94a23.55 23.55 0 0 1-2.74.94v.01H25.84a23.54 23.54 0 0 1-2.73-.95c-.46-.21-.7-.58-.8-.94-.1-.36-.07-.72-.01-.95a.1.1 0 0 1 .13-.08Zm2.22 2.33c.5.16.96.3 1.23.37h4.33c.27-.07.73-.2 1.22-.37-.3 0-.58-.03-.82-.09a6.13 6.13 0 0 1-1.05-.37c-.42-.18-.84-.36-1.31-.43h-.4c-.48.07-.9.25-1.32.43-.34.14-.68.29-1.05.37-.25.06-.51.09-.83.09Z"/><path d="M26.1 34.06c.31-.22 1.12-.66 1.9-.66.78 0 1.59.44 1.9.66v1.56c0 1.5-1.27 2.14-1.9 2.27-.63-.13-1.9-.77-1.9-2.27v-1.56Z" fill="#E76A28"/><path d="M26.84 33.55c.34-.15.75-.26 1.16-.26a4.05 4.05 0 0 1 1.95.69L30 34v1.6c0 .8-.33 1.36-.74 1.74-.42.38-.9.58-1.24.65h-.04a2.72 2.72 0 0 1-1.24-.65 2.28 2.28 0 0 1-.74-1.73V34l.05-.04c.16-.11.44-.28.79-.42Zm-.62.57v1.5c0 .71.3 1.22.67 1.57.37.34.81.52 1.11.59.3-.07.74-.25 1.11-.6.37-.34.67-.85.67-1.56v-1.5c-.15-.1-.4-.25-.7-.37A2.93 2.93 0 0 0 28 33.5c-.37 0-.75.1-1.08.24-.3.12-.55.27-.7.37ZM40.97 38.8C28.8 41.7 18.61 40.02 15 38.8l.18-.52c3.5 1.2 13.6 2.88 25.66 0l.13.52Z"/><path d="M25.85 38.78a.28.28 0 0 1 .38-.1c.23.14.96.45 1.82.45.87 0 1.52-.3 1.7-.44.13-.08.3-.05.39.07.08.12.05.3-.07.38-.28.19-1.04.53-2.02.53-.97 0-1.8-.34-2.1-.52a.27.27 0 0 1-.1-.37Z"/><path fill-rule="evenodd" d="M15.73 16.32a28.9 28.9 0 0 0-1.07 6.85c0 2.48.48 4.94.9 6.49l.09-.4a.33.33 0 0 1 .64.16l-.38 1.55a83.87 83.87 0 0 0-.65 10.08 46.8 46.8 0 0 0 12.8 1.65c4.2 0 8.8-.65 12.68-1.8a80.58 80.58 0 0 0-.65-9.92l-.48-1.72a.33.33 0 0 1 .63-.18l.18.66c.42-1.54.92-4.04.92-6.57 0-1.32-.32-4.25-1.07-6.85-.38-1.3-.85-2.49-1.43-3.34-.59-.87-1.23-1.33-1.93-1.33-.57 0-1.13.29-1.68.82a8.7 8.7 0 0 0-1.52 2.15c-.85 1.6-1.48 3.5-1.82 4.88l.75.22c.17.06.27.24.21.41a.33.33 0 0 1-.4.21l-1.03-.3c-1.68-.29-2.93-.3-3.4-.28h-.04c-.47-.03-1.72 0-3.4.27l-1.08.32a.32.32 0 1 1-.19-.62l.8-.24a23.02 23.02 0 0 0-1.82-4.87 8.7 8.7 0 0 0-1.52-2.15c-.55-.53-1.11-.82-1.68-.82-.7 0-1.34.46-1.93 1.33-.58.85-1.05 2.04-1.43 3.34Zm9.02 3.03c-.35-1.4-1-3.37-1.88-5.03a9.34 9.34 0 0 0-1.64-2.3A3.12 3.12 0 0 0 19.1 11c-1.03 0-1.84.68-2.47 1.62-.64.94-1.14 2.2-1.52 3.52a29.5 29.5 0 0 0-1.1 7.03c0 3.27.82 6.48 1.25 7.77a85 85 0 0 0-.65 10.36v.23l.23.08a47.06 47.06 0 0 0 13.22 1.74c4.36 0 9.12-.68 13.12-1.9l.23-.08v-.24c0-4.48-.43-8.6-.65-10.2.43-1.28 1.25-4.49 1.25-7.76 0-1.38-.33-4.37-1.1-7.03a12.87 12.87 0 0 0-1.52-3.53c-.63-.93-1.44-1.61-2.47-1.61-.8 0-1.52.41-2.14 1.01a9.35 9.35 0 0 0-1.64 2.31 23.66 23.66 0 0 0-1.88 5.03A17.34 17.34 0 0 0 28 19.1c-.5-.03-1.68 0-3.25.24Z"/><path d="M24.58 39.27c.85 0 1.73.86 2.06 1.29v1.93c-.4.42-1.41 1.24-2.21 1.24-1 0-1.17-1.4-1.17-2.26 0-.86.27-2.2 1.32-2.2Z" fill="#38C7D5"/><path d="M23.29 39.94c.22-.5.62-.94 1.3-.94.5 0 .98.25 1.37.53.39.29.7.63.89.86l.06.08v2.14l-.08.07c-.22.22-.58.55-1 .82-.42.26-.93.5-1.4.5-.32 0-.58-.11-.79-.3a1.7 1.7 0 0 1-.42-.68 4.78 4.78 0 0 1 .07-3.08Zm.48.22a4.25 4.25 0 0 0-.05 2.67c.07.2.16.37.28.47.1.1.24.16.43.16.32 0 .72-.17 1.11-.42.34-.22.64-.47.84-.66v-1.72c-.16-.2-.42-.46-.73-.69a1.93 1.93 0 0 0-1.07-.43c-.38 0-.64.23-.81.62Z"/><path d="M31.5 39.27c-.8 0-1.62.86-1.94 1.29v1.93c.38.42 1.34 1.24 2.1 1.24.94 0 1.1-1.4 1.1-2.26 0-.86-.26-2.2-1.25-2.2Z" fill="#38C7D5"/><path d="M32.73 39.94c-.21-.5-.6-.94-1.22-.94-.48 0-.94.25-1.3.53a4.6 4.6 0 0 0-.84.86l-.06.08v2.14l.08.07c.2.22.55.55.95.82.39.26.86.5 1.31.5.3 0 .55-.11.74-.3.19-.19.32-.43.4-.68a5.04 5.04 0 0 0-.06-3.08Zm-.46.22a4.49 4.49 0 0 1 .05 2.67c-.07.2-.15.37-.26.47-.1.1-.23.16-.4.16-.31 0-.69-.17-1.06-.42-.32-.22-.6-.47-.79-.66v-1.72c.15-.2.4-.46.69-.69.33-.26.68-.43 1-.43.37 0 .61.23.77.62Z"/><path d="M29.64 41.5c0 1.13-.73 2.05-1.64 2.05-.9 0-1.64-.92-1.64-2.05s.73-2.05 1.64-2.05c.9 0 1.64.92 1.64 2.05Z" fill="#38C7D5"/><path d="M28 39.9c-.7 0-1.28.71-1.28 1.6 0 .89.57 1.6 1.28 1.6.7 0 1.28-.71 1.28-1.6 0-.89-.57-1.6-1.28-1.6Zm-2 1.6c0-1.38.9-2.5 2-2.5s2 1.12 2 2.5-.9 2.5-2 2.5-2-1.12-2-2.5Z"/></svg>