<svg width="112" height="112" viewBox="0 0 56 56" xmlns="http://www.w3.org/2000/svg"><rect fill="#00A7FD" width="56" height="56" rx="28"/><path d="M38.42 31.76c-.05.02-.06.02-.03 0-.18.09-.29.1-.31.02.1-.07.22-.13.34-.19a4.3 4.3 0 0 0 2.2-2.91l-.02-.01h-.02c-.36.14-.74.25-1.11.34-.98.21-1.97.38-3.02.44-1.14.07-2.23.11-3.25.13-.73 0-1.24.02-1.53.03-2.05.08-4.38.48-6.2-.7-.7-.46-1.35-1.01-1.94-1.67-.59-.65-.37-1.5.55-1.64.5-.07 1.2.47 1.72.8.72.44 1.5.7 2.36.78 1.04.1 2.06.12 3.05.06a440.2 440.2 0 0 1 5.18-.25c.6 0 1.15-.03 1.67-.07.99-.07 1.9-.25 2.76-.55.26-.1.43-.18.5-.24.32-.34.49-.72.5-1.15a1.13 1.13 0 0 0-.37-.7c-.03-.02-.06-.02-.09.01-.33.4-.74.74-1.22 1-.58.3-1.26.47-2.04.53l-.32-.13a4.5 4.5 0 0 0 3.2-1.25 2.7 2.7 0 0 0 .47-.7l-.02-.02-.02-.02h-.04c-.1.15-.22.27-.36.38-1.29 1.02-2.9 1.17-4.5.89-.43-.08-.87-.2-1.31-.39-.48-.2-.97-.45-1.2-.95v-.02a.03.03 0 0 0-.04 0v.01c-1.58 2.44-5.8 2.38-8.1 1.26a3.78 3.78 0 0 1-1.75-1.37c-.24-.41-.29-.8-.13-1.17.2-.48.57-.9 1.12-1.23a7.76 7.76 0 0 1 4.88-.97c.77.1 1.49.27 2.15.52.57.22 1.02.58 1.34 1.06.04.06.06.05.06-.02 0-.28-.1-.55-.27-.8l-.1-.16a4.25 4.25 0 0 0-2.6-1.54 6.07 6.07 0 0 0-1.86-.09 6.89 6.89 0 0 0-2.09.3 5.48 5.48 0 0 0-2 1.05c-.05 0-.08-.03-.1-.1a6.42 6.42 0 0 1 1.96-1.03c.99-.3 2.12-.45 3.14-.4a5.87 5.87 0 0 1 2.2.5.02.02 0 0 0 0-.02 3 3 0 0 0-.68-.88.93.93 0 0 0-.32-.22c-.37-.28-.84-.5-1.4-.62a5.48 5.48 0 0 0-4.17.64 3.7 3.7 0 0 1 1.77-.83 5.3 5.3 0 0 1 3.62.47c.61.32 1.06.83 1.35 1.52.04.1.14.15.24.2.8.48 1.47 1.29 1.45 2.22 0 .02 0 .03.02 0 .3-.33.62-.61.98-.83a6.22 6.22 0 0 1 5.62-.25 2.83 2.83 0 0 1 1.17.95h.03c.01 0 .02-.02.01-.03a2.62 2.62 0 0 0-.63-1.02l-.3-.33c-.68-.57-1.44-.74-2.28-.94a5.26 5.26 0 0 0-1.94-.1 4.52 4.52 0 0 0-1.39.32c-.13 0-.16-.02-.07-.06.3-.1.64-.24.92-.3a5.8 5.8 0 0 1 2.6.04c.1.02.12-.01.05-.09-.07-.08-.14-.2-.19-.34-.03-.1-.16-.23-.38-.4l-.08-.07a3.2 3.2 0 0 0-1.47-.66 3.93 3.93 0 0 0-2.36.28.84.84 0 0 1-.3.05 3.82 3.82 0 0 1 2.85-.49v-.02a2.37 2.37 0 0 0-.44-.62 4.76 4.76 0 0 0-1.38-1 3.38 3.38 0 0 0-1.93-.35c-.91.07-1.7.39-2.37.94-.02.02-.02.04 0 .05.2.18.36.4.5.65 0 .01 0 .03-.04.03a.06.06 0 0 1-.06-.02c-.21-.3-.45-.53-.7-.68a4.55 4.55 0 0 0-3.02-1.17 5.35 5.35 0 0 0-3.9 1.64l-.61.6c-.05 0-.09-.02-.1-.05-.01-.02 0-.04.03-.07l.34-.35c.19-.19.17-.2-.04-.06-.6.42-1.17.86-1.7 1.38-.9.88-1.66 1.7-2.27 2.45a18.76 18.76 0 0 0-3.17 5.67 16.47 16.47 0 0 0-.58 7.36c.13.88.4 1.74.82 2.6.02.03.03.03.04 0 .2-1.04.54-2.03 1.04-2.98l.04.01a.1.1 0 0 1 .02.05c-.35.74-.61 1.41-.78 2.03a7.32 7.32 0 0 0-.24 1.7c-.04 1.11.35 2.24 1.38 2.79.26.13.6.24 1.02.32.74.15 1.47.19 2.17.12l1.63-.14c.48-.03 1.7-.2 3.66-.5.33-.05.57-.12.73-.2.42-.22.63-.52.62-.92-.1-.58-.95-.69-1.41-.69-.65 0-1.29.12-1.9.34-.08.03-.14.02-.17-.03.02-.06.07-.1.14-.13a5.5 5.5 0 0 1 2.04-.36c.03 0 .05 0 .06-.03.18-.2.2-.43.05-.69l-.18-.22c-.36-.33-.87-.31-1.3-.18a1.6 1.6 0 0 0-.57.2h-.06l-.01-.02v-.03A.29.29 0 0 1 24 37c.52-.3 1.23-.43 1.8-.16h.03l.03-.01c.2-.2.25-.42.15-.7-.1-.16-.17-.25-.24-.28a1.16 1.16 0 0 0-.95-.28c-.3.03-.58.1-.82.19a5.72 5.72 0 0 0-.85.47c-.1.03-.12.01-.07-.05l.52-.34a2.6 2.6 0 0 1 1.35-.44c.12 0 .22-.03.3-.08.39-.23.77-.5.96-.94a.7.7 0 0 0 .03-.3c-.02-.17-.07-.27-.17-.31-.47-.4-1.15-.38-1.73-.23-1.4.35-2.62 1.09-3.83 1.99-.78.58-1.6 1.13-2.43 1.68a1.99 1.99 0 0 1-.24.1c-.02 0-.03-.02-.03-.04l.43-.31a.04.04 0 0 0 0-.05v-.01c-.78-.44-.61-1.49-.47-2.2l.14-.02c-.11.47-.13.94-.06 1.4.06.32.22.55.5.7a.1.1 0 0 0 .1 0c1.1-.72 2.22-1.6 3.36-2.32.8-.5 1.66-.87 2.56-1.09.61-.15 1.34-.15 1.83.28.34.3.22.81-.04 1.12a2.98 2.98 0 0 1-.79.67.02.02 0 0 0 .01 0c.65.16 1.17.89.61 1.49a.05.05 0 0 0 0 .06c.14.17.24.38.29.63.04.17 0 .3-.11.4a.03.03 0 0 0 .01.04c.6.08 1.39.38 1.14 1.15-.14.45-.58.75-1.04.86-1.93.34-3.88.59-5.83.73a8.9 8.9 0 0 1-1.32 0c-.06 0-.07.02-.02.06a22.66 22.66 0 0 0 4.47 3.2 2.47 2.47 0 0 1-.88-.3 20.33 20.33 0 0 1-3.9-2.93.35.35 0 0 0-.17-.1 6.83 6.83 0 0 1-.87-.2c-1.4-.5-2-1.86-1.88-3.28a.64.64 0 0 0-.06-.37 10.91 10.91 0 0 1-1.09-3.64c-.29-2.95.18-5.89 1.5-8.54.01-.03 0-.04-.02-.04-1.57.08-3.05-.34-4.08-1.57-.02-.1.02-.24.11-.42.66-.2 1.22-.54 1.66-1.02.8-.86 1.44-1.7 1.94-2.5.47-.78.92-1.57 1.46-2.3 1.78-2.43 4.73-3.8 7.73-3.01.5.13.96.35 1.37.67.24.18.42.4.57.66a.17.17 0 0 0 .14.08 4.6 4.6 0 0 1 3.12 1.24c.02.02.04.02.06 0 .62-.61 1.67-.97 2.51-1.05a4.13 4.13 0 0 1 3.27 1.33 2.18 2.18 0 0 1 .6.92s.01.02.03.02c.25.07.5.17.76.3.57.32.97.78 1.2 1.38l.06.04c.53.14.87.24 1 .3.94.4 1.73 1.2 1.95 2.23.06.3.1.54.11.7.02.27-.1.53-.13.8-.02.23-.09.45-.2.67-.02.02-.01.04.01.05.48.3.64.72.48 1.28-.03.11-.13.29-.3.52-.01.03 0 .05 0 .07.17.18.23.38.2.62-.05.42-.34.7-.7.94-.02.01-.02.03 0 .05.1.13.11.27.05.43-.12.26-.27.35-.48.52a.08.08 0 0 0-.03.06c0 .17-.04.35-.1.53-.4 1.16-1.11 2.01-2.17 2.56Z" fill="#010101"/><path d="M26.66 14.98h-.03c-.04-.01-.04 0-.02.02.04.04.04.07.01.1a6.75 6.75 0 0 0-2.32.6l-.07-.01c-.19-.1-.4-.16-.65-.2a6.05 6.05 0 0 0-2.93.17c-.06.02-.1.06-.12.12a.25.25 0 0 0-.08.02c-.09.06-.08.08.03.07.46-.07 1-.1 1.4-.1.52 0 1.04.11 1.57.33a17.8 17.8 0 0 0-2.39 1.82c-.05.05-.14.1-.22.1-1.05.02-2.1.4-3.02.91a.48.48 0 0 0-.23.26l-.17.13v.03h.03a6 6 0 0 1 2.88-.8 18.8 18.8 0 0 0-2.07 2.37.2.2 0 0 1-.1.07 6.6 6.6 0 0 0-2.79 1.52.04.04 0 0 0 .02.02.04.04 0 0 0 .03 0c.51-.3 1.04-.55 1.6-.76.26-.1.52-.16.78-.2-.52.76-.98 1.51-1.37 2.28a1.6 1.6 0 0 0-.13.37c0 .01 0 .02.02.03.05.05.07.1.07.14a5.1 5.1 0 0 1-2.47-.27 3.93 3.93 0 0 1-1.62-1.16.07.07 0 0 1 .02-.06l.03-.01a5.27 5.27 0 0 0 2.53-1.98c.07.02.15-.02.25-.13.82-.89 1.49-1.88 2.03-2.95a7.36 7.36 0 0 1 2.97-2.95l1.28-.69c.03 0 .04-.03.04-.05l-.02-.04c1.67-.5 3.8-.4 5.16.8.04.03.06.06.07.08Z" fill="#FF8D00"/><path d="m21.43 14.1.02.04c0 .02-.01.04-.04.05l-1.28.68a7.36 7.36 0 0 0-2.97 2.96 12.98 12.98 0 0 1-2.03 2.95c-.1.11-.18.15-.25.13.65-.81 1.26-1.74 1.84-2.77.28-.5.65-1.03 1.11-1.6a7.51 7.51 0 0 1 3.6-2.44Z" fill="#F5CD44"/><path d="m26.66 14.98.2.23c.01.02.01.04-.02.04l-.4.05a6.02 6.02 0 0 0-2.43.88l-.03-.01a4.61 4.61 0 0 0-3.45-.39c.02-.06.06-.1.12-.12.94-.3 1.92-.35 2.93-.17.24.04.46.1.65.2a.17.17 0 0 0 .14 0 6.75 6.75 0 0 1 2.25-.59c.03-.03.03-.06 0-.1-.03-.02-.03-.03 0-.02h.04Z" fill="#D77200"/><path d="M27.1 15.45c.1.05.2.08.34.1a7.31 7.31 0 0 1 1.1.27c.34.12.57.23.7.33.26.2.56.36.87.47a2.28 2.28 0 0 1 .72.7h.04c.03 0 .05-.02.04-.03.03-.16.1-.32.2-.5.39-.61.94-1 1.67-1.14.64-.08 1.28.03 1.93.34.5.24.97.58 1.38 1.01-.64.02-1.22.19-1.73.5a5.25 5.25 0 0 0-.65.49l-.03.14a7.27 7.27 0 0 1 3.25.02c.18.04.4.13.67.28.07.04.14.03.21.03l.08.07v.08c0 .03 0 .04-.03.04a3.95 3.95 0 0 0-.62-.03c-.82.1-1.6.38-2.32.85-.04.03-.05.08-.03.15-.09.04-.06.06.07.06l.08-.02c.46-.18.9-.28 1.3-.3l1.77.23c.37.05.69.12.96.2a4.1 4.1 0 0 1 1.46.68c.02 0 .03 0 .05-.02v-.05l.3.33a17.4 17.4 0 0 0-.68-.25 6.37 6.37 0 0 0-5.33.4c-.12.06-.19.13-.2.2-.36.22-.69.5-.98.84-.01.02-.02.01-.02-.01.02-.93-.66-1.74-1.45-2.21-.1-.33-.2-.59-.29-.78-.46-1-1.59-1.54-2.64-1.7a5.47 5.47 0 0 0-3.94.83c-.1.07-.1.16-.11.28a5.74 5.74 0 0 1 1.64-.67c1.06 0 2 .08 2.83.26.27.06.64.2 1.1.39.1.04.2.11.32.22l.02.09a.02.02 0 0 1-.02.03h-.01a6.24 6.24 0 0 0-2.4-.23c-.53.05-1.23.23-2.1.53-.9.31-1.59.78-2.1 1.4.01.08.04.11.09.11a5.48 5.48 0 0 1 2-1.04 6.89 6.89 0 0 1 2.1-.3c1.01.05 1.91.21 2.68.48.64.21 1.2.6 1.67 1.17.02.02.04.02.06 0 .02 0 .03-.01.04-.03l.1.15c0 .05 0 .07-.02.09h-.06a4.2 4.2 0 0 0-.67-.44c-1.72-.84-3.9-.8-5.71-.28a4.7 4.7 0 0 0-1.7.85c-.55.34-.92.75-1.12 1.23-.16.37-.11.76.13 1.17a3.78 3.78 0 0 0 1.74 1.37c2.3 1.12 6.53 1.18 8.1-1.26h.01l.02-.01a.03.03 0 0 1 .02.02c.23.5.72.76 1.2.95.44.18.88.31 1.32.39 1.6.28 3.2.13 4.5-.89.13-.1.25-.23.35-.37.01-.02.03-.02.04 0h.02l.02.03v.03c-.16.3-.31.51-.47.67a4.5 4.5 0 0 1-3.2 1.23c-.03 0-.03 0 0 .02l.32.13a5.25 5.25 0 0 0 3.03-.7c.17-.08.28-.13.33-.13l.36-.01c-.01.43-.18.81-.5 1.15-.07.06-.24.14-.5.24-.85.3-1.77.48-2.76.55-.52.04-1.08.06-1.67.07a435.88 435.88 0 0 0-5.17.25c-1 .06-2.02.04-3.06-.06a5.33 5.33 0 0 1-2.36-.78c-.53-.33-1.23-.87-1.72-.8-.92.13-1.14.99-.55 1.64.59.66 1.23 1.21 1.93 1.66 1.83 1.19 4.16.8 6.2.7l1.54-.02c1.02-.02 2.1-.06 3.25-.13 1.05-.06 2.04-.23 3.02-.44a7.79 7.79 0 0 0 1.14-.33l.01.01v.02a4.3 4.3 0 0 1-2.2 2.88c-.12.06-.23.12-.34.2-.13.1-.29.16-.46.2a.15.15 0 0 0-.11.12c-.24 1.17-1.03 2.2-1.81 3.16-.22.26-.57.63-1.05 1.12l-1.75 1.77c-.73.74-1.31 1.47-1.74 2.2-.57.96-.93 2.23-.6 3.32.07.24.21.47.42.7a16.9 16.9 0 0 1-6.38-.07 59.13 59.13 0 0 0-1.06-.55l-1.13-.67a2.28 2.28 0 0 1-.5-.37 1.05 1.05 0 0 1-.27-.6c-.07-.7.66-.9 1.2-1.02a30 30 0 0 0 3.11-.86c.07-.02.18-.08.34-.17.46-.11.9-.41 1.04-.86.25-.77-.53-1.07-1.14-1.15h-.02v-.02a.03.03 0 0 1 0-.03c.12-.09.16-.22.12-.4A1.4 1.4 0 0 0 26 37a.05.05 0 0 1 0-.06c.56-.6.04-1.33-.6-1.48h-.01a.02.02 0 0 1 0-.03c.3-.17.56-.4.78-.65.26-.3.37-.83.04-1.12-.5-.43-1.22-.43-1.83-.28-.9.22-1.76.59-2.56 1.1-1.14.72-2.26 1.59-3.35 2.31a.1.1 0 0 1-.12 0 .94.94 0 0 1-.49-.7c-.07-.46-.05-.93.06-1.4l.26-.96c0-.03 0-.05-.04-.05h-.03a.1.1 0 0 0-.09.06l-.05.12c-.32.45-.41 1-.5 1.58-.1.63-.01 1.23.27 1.8l.04.02.04.02c0 .02 0 .04.03.04h.04l.2-.1c.84-.55 1.65-1.1 2.43-1.68.35-.16.83-.41 1.43-.76.43-.24 1-.5 1.68-.78.47-.18.89-.29 1.26-.32.31-.03.71 0 1.2.1.09.04.14.14.16.31 0 .13 0 .23-.03.3a3.1 3.1 0 0 0-1.9.57c-.48.33-.89.69-1.22 1.1-.03.02-.03.07 0 .13-.06.06-.04.08.06.05l.06-.03c.25-.17.51-.31.79-.44v.1c0 .02.01.03.04.02l.36-.08c.42-.1.87-.09 1.37.05.07.03.14.12.24.28 0 .04-.02.07-.04.08-.01.02-.04.02-.07.02a2.41 2.41 0 0 0-1.8.6.26.26 0 0 0-.1.17.29.29 0 0 0-.08.06v.04H24c.2-.1.38-.17.56-.2l1.31.2.18.21-.02.2c0 .02-.02.04-.04.04-.8.1-1.39.4-2.17.79a.27.27 0 0 0-.08.06c-.07.07-.06.12.02.12.03.05.1.06.17.03a5.72 5.72 0 0 1 1.9-.34.21.21 0 0 0-.12.04.04.04 0 0 0-.01.04v.02h.03l.47.07c.37.07.72.25 1.04.52 0 .4-.2.7-.62.92-.16.08-.4.15-.73.2a62.8 62.8 0 0 1-5.3.64c-.7.07-1.42.03-2.16-.12a3.72 3.72 0 0 1-1.02-.32c-1.03-.55-1.42-1.68-1.38-2.78.02-.65.1-1.22.24-1.71.17-.62.43-1.29.78-2.03l.24-.45a.03.03 0 0 0-.01-.04h-.02c-.05-.01-.1 0-.13.01-.16.09-.3.18-.43.29-.63.5-.85.03-.95-.54-.07-.42-.1-.9-.07-1.43.06-1.4.24-2.73.53-3.98a18.24 18.24 0 0 1 3.64-7.1c.84-.99 1.75-1.9 2.73-2.77l.62-.6a5.36 5.36 0 0 1 3.9-1.64Z" fill="#FF8D00"/><path d="M30.11 16.62c-.31-.1-.6-.27-.87-.47a2.9 2.9 0 0 0-.7-.33 7.31 7.31 0 0 0-.75-.22c-.08-.02-.2-.04-.35-.05a.94.94 0 0 1-.35-.1 4.55 4.55 0 0 1 3.02 1.17Z" fill="#F5CD44"/><path d="M32.78 15.65c-.73.15-1.28.53-1.67 1.15-.1.17-.17.33-.2.49a2.4 2.4 0 0 0-.5-.65c-.02-.01-.02-.03 0-.05a4.13 4.13 0 0 1 2.37-.94ZM17.59 19.19c.04-.11.12-.2.22-.26a6.57 6.57 0 0 1 3.03-.9c.08 0 .17-.06.22-.11.72-.66 1.52-1.26 2.39-1.82l.35.2c.03.01.03.03 0 .04-.13.08-.25.18-.38.3-.09.09-.22.18-.39.27-.7.4-1.38.91-2.03 1.52a.07.07 0 0 1-.06.02 2.9 2.9 0 0 0-1.07-.08c-.8.1-1.56.37-2.28.82ZM36.1 17a2.37 2.37 0 0 1 .43.64v.01h-.02a3.82 3.82 0 0 0-2.83.48l.03-.14c0-.02.02-.04.04-.06.16-.14.36-.28.6-.43.52-.31 1.1-.48 1.74-.5ZM22.58 17.7c-.98.85-1.89 1.77-2.73 2.76a18.24 18.24 0 0 0-3.64 7.1 22.5 22.5 0 0 0-.53 3.98c-.03.54 0 1.01.07 1.43.1.57.32 1.04.95.54.13-.1.27-.2.43-.29l-.14.42c-.5.95-.85 1.94-1.04 2.97-.01.04-.02.04-.04 0a8.89 8.89 0 0 1-.82-2.58 16.47 16.47 0 0 1 .58-7.37A18.76 18.76 0 0 1 18.84 21a28.9 28.9 0 0 1 2.27-2.45c.53-.52 1.1-.96 1.7-1.38.21-.15.23-.13.04.06l-.34.35c-.03.03-.04.05-.03.07.01.03.05.04.1.05ZM32.22 19.7c-.1-.06-.2-.1-.24-.21a2.94 2.94 0 0 0-1.35-1.52 5.3 5.3 0 0 0-3.62-.47c-.71.14-1.3.41-1.77.83 0-.12 0-.2.1-.28a5.47 5.47 0 0 1 3.95-.83c1.05.16 2.18.7 2.64 1.7.1.2.19.45.29.78Z" fill="#D77200"/><path d="M30.81 18.31c-.46-.2-.83-.33-1.1-.39-.83-.18-1.77-.27-2.83-.26a5.48 5.48 0 0 1 2.53.03c.56.13 1.03.34 1.4.62ZM37.81 18.46c-.07 0-.14 0-.2-.03-.28-.15-.5-.24-.68-.28a7.27 7.27 0 0 0-2.95-.07 3.93 3.93 0 0 1 2.36-.28c.56.1 1.05.32 1.47.66Z" fill="#F5CD44"/><path d="M31.13 18.53a3 3 0 0 1 .67.9.02.02 0 0 1-.02.01 5.87 5.87 0 0 0-2.17-.5 9.37 9.37 0 0 0-3.14.39c-.66.2-1.32.55-1.95 1.03a4.57 4.57 0 0 1 2.1-1.4c.87-.31 1.57-.49 2.1-.54a6.24 6.24 0 0 1 2.43.21v-.01l-.02-.09ZM34.89 19.62c-.02-.07 0-.12.03-.15.73-.47 1.5-.76 2.32-.85.1-.01.3 0 .62.03.02 0 .04-.01.03-.04v-.08c.22.17.35.3.38.4.05.14.12.26.19.34.07.08.05.1-.05.09a5.8 5.8 0 0 0-2.6-.05c-.28.07-.61.2-.92.3ZM15.77 22.16A6.6 6.6 0 0 1 18.15 21a.2.2 0 0 0 .11-.07c.6-.82 1.3-1.6 2.07-2.36l.44.05c.03 0 .03.02.01.04a25.3 25.3 0 0 0-2.37 2.6.08.08 0 0 1-.06.04c-.59.06-1.03.16-1.32.3-.4.2-.83.39-1.26.57Z" fill="#D77200"/><path d="M33.16 20.74a.17.17 0 0 1-.04.04c-.02.01-.04 0-.06-.01a3.74 3.74 0 0 0-1.67-1.17c-.77-.27-1.66-.43-2.69-.49a6.07 6.07 0 0 1 1.86.1c.94.18 2.05.71 2.6 1.53ZM40.57 20.4c.01.02.02.04 0 .05a.08.08 0 0 1-.1 0 4.1 4.1 0 0 0-1.4-.66c-.27-.08-.6-.15-.96-.2l-1.76-.23a5.26 5.26 0 0 1 1.94.1c.84.2 1.6.37 2.28.94Z" fill="#F5CD44"/><path d="M33.26 20.9c.17.25.26.52.27.8 0 .07-.02.08-.06.02a2.79 2.79 0 0 0-1.34-1.05 9.04 9.04 0 0 0-2.15-.53 7.76 7.76 0 0 0-4.88.97 4.7 4.7 0 0 1 1.7-.85c1.8-.52 4-.56 5.71.28.18.09.4.23.67.43.02.02.04.02.06 0 .01 0 .02-.03.02-.08ZM40.87 20.73c.27.25.48.59.63 1.02l-.01.03h-.03l-.01-.01a2.83 2.83 0 0 0-1.16-.94 6.22 6.22 0 0 0-5.62.25c.01-.07.08-.14.2-.2a6.37 6.37 0 0 1 5.66-.27l.34.12Z" fill="#D77200"/><path d="M33.53 22.16c-.7 0-2.12.03-4.25.08-.3.01-.54.06-.72.15l-4.46.11a.03.03 0 0 1-.03-.01v-.03c.29-.56.7-.98 1.24-1.27a8.13 8.13 0 0 1 6.24-.56c.76.2 1.42.57 1.86 1.25.06.11.1.2.12.28ZM41.05 22.13c.04-.06 0-.09-.11-.1-.49-.02-1.05.04-1.49.03-.5 0-1.07 0-1.67.02a1 1 0 0 0-.28.05l-.27.07-3.4.08a.1.1 0 0 1-.09-.06v-.1a.2.2 0 0 1 .04-.08c1.3-1.52 3.48-1.86 5.35-1.42.7.16 1.35.38 1.82.82.1.08.28.29.56.62.02.02.01.04-.02.04l-.44.03Z" fill="#FF8D00"/><path d="M16.39 24.4c0-.05-.02-.1-.07-.15a.06.06 0 0 1-.02-.06c.03-.11.07-.23.13-.34.4-.77.85-1.52 1.37-2.27l.35-.06h.02a.02.02 0 0 1 .01.03v.01c-.68.88-1.27 1.82-1.8 2.83Z" fill="#D77200"/><path d="m41.05 22.13-3.82.07.27-.07a1 1 0 0 1 .28-.05c.6-.02 1.16-.02 1.67-.02.44 0 1-.05 1.49-.02.11 0 .15.03.11.09ZM33.53 22.16v.09c0 .02-.01.03-.03.03l-4.94.11c.18-.1.42-.14.73-.15 2.12-.05 3.54-.08 4.24-.08Z" fill="#F5CD44"/><path d="M34.04 22.44h1.22c.02 0 .03.01.03.03-.2 1.76 1.4 2.7 2.93 2 .79-.34 1.2-1.3 1.22-2.1 0-.03.02-.04.05-.04h2.09a.07.07 0 0 1 .07.06c.15 1.28-1.18 2.07-2.27 2.37a6.6 6.6 0 0 1-2.74.05 5.4 5.4 0 0 1-2.1-.76c-.48-.33-.59-1-.53-1.58 0-.02.01-.03.03-.03Z" fill="#EFF2F3"/><path d="M36.77 22.65c.1.15.27.31.4.44.21.19.28.36.2.62-.17.53-.75.68-1.18.32-.45-.38-.67-1.16-.1-1.51.24-.15.52-.1.68.13ZM26.88 22.67c-.12.63-.04 1.18.26 1.65.58.92 1.85 1 2.73.6.57-.27.89-.72 1.14-1.31.14-.34.2-.7.16-1.06 0-.03 0-.05.04-.05l2.58-.05a.04.04 0 0 1 .03.02l.01.01v.02c-.04.28-.02.56.06.84l-.01.06c-.1.15-.29.47-.47.64a4.82 4.82 0 0 1-2.22 1.2A7.9 7.9 0 0 1 25 24.2a2.33 2.33 0 0 1-1-1.48c-.01-.08.02-.11.1-.11h2.83l-.02.02a.06.06 0 0 0-.02.04Z" fill="#EFF2F3"/><path d="M28.64 23.26c.22.2.52.37.55.78a.63.63 0 0 1-.2.48c-.24.26-.7.23-1 .07-.65-.36-1-1.06-.47-1.72.2-.23.43-.25.7-.06.14.1.3.34.42.45ZM38.28 23.46c.2-.14.25-.4.12-.59a.42.42 0 0 0-.6-.1c-.2.14-.25.4-.11.6.13.18.4.22.59.09ZM29.42 23.4c-.05.25.1.48.32.53.22.04.44-.12.49-.37.05-.24-.1-.47-.32-.52-.23-.04-.45.12-.5.37Z" fill="#EFF2F3"/><path d="M33.88 24.46a4.14 4.14 0 0 1-2.5 1.69c-.7.16-1.41.24-2.12.06l-.06-.05c-.02-.02-.02-.04 0-.05a.1.1 0 0 1 .07-.02c1.04.1 2.03-.04 2.96-.45.64-.27 1.2-.82 1.64-1.33.1-.13.14-.12.1.05l-.09.1Z" fill="#010101"/><path d="m41.82 24.98-.36.01a.95.95 0 0 0-.33.14c-.97.54-1.98.77-3.03.69a5.07 5.07 0 0 0 2.04-.54c.48-.25.89-.58 1.22-.99.03-.03.06-.03.1 0 .2.18.31.41.36.69ZM33.88 24.46c.05.2 0 .4-.12.57-.6.9-1.62 1.43-2.7 1.5-.38.02-.8.01-1.28-.03-.2-.01-.3-.13-.46-.2a.07.07 0 0 1-.05-.05v-.04c.7.18 1.4.1 2.1-.06a4.14 4.14 0 0 0 2.51-1.69Z" fill="#D77200"/><path d="m24.15 26.47-.02.01a.05.05 0 0 0-.04.03.05.05 0 0 0 .01.05c.83.76 1.6 1.3 2.66 1.54 1.48.33 3.08.35 4.56.33a72.56 72.56 0 0 0 8.08-.8c.3-.05 1.58-.19 1.69.2.06.21-.2.49-.37.58-.22.12-.44.21-.67.27a16.94 16.94 0 0 1-4.03.64c-.77.04-1.3.06-1.57.06-1.21.02-2.43.01-3.63.1-.73.05-1.37.07-1.9.08-.83 0-1.73-.08-2.54-.37-.3-.11-.66-.3-1.08-.58-.5-.35-1-.76-1.46-1.25-.33-.34-.68-.8-.41-1.24.17-.28.59-.44.9-.36.2.06.41.15.62.28.4.26.8.49 1.16.7.58.33 1.28.53 2.1.6 1.09.1 2.08.11 3.24.05l3.36-.16c1.29-.07 2.68-.05 3.86-.17.7-.08 1.43-.26 2.18-.54.22-.09.5-.28.67-.38.02-.02.04-.02.06 0 .37.44-.05 1.12-.5 1.35-.04.03-.12.03-.22 0a4.28 4.28 0 0 0-1.48 0c-2.6.34-4.21.53-4.83.57-1.73.13-2.81.2-3.26.2-.98.01-1.92-.01-2.83-.08a6.33 6.33 0 0 1-3.25-.93c-.23-.17-.55-.42-.94-.75a.14.14 0 0 0-.12-.03Z" fill="#E95100"/><path d="M21.42 29.36a1.6 1.6 0 0 1-1.29-.91.62.62 0 0 1-.03-.2c0-.03 0-.04.04-.04.02 0 .04.01.06.04.16.37.43.65.8.83.2.1.38.13.55.12.1 0 .11.02.03.1a.38.38 0 0 1-.16.06Z" fill="#010101"/><path d="M21.42 29.36c-.03.06-.08.09-.14.1-.46.03-.8-.14-1.02-.5a.66.66 0 0 1-.08-.25 6.95 6.95 0 0 0-.05-.26c.26.51.69.82 1.29.9Z" fill="#D77200"/><path d="M22.55 30.88c.06 0 .08.02.04.08a.28.28 0 0 1-.17.11c-.7.14-1.43-.06-1.76-.76a.07.07 0 0 1 .01-.09c.02-.02.05-.01.08.02.52.59.97.66 1.8.64Z" fill="#010101"/><path d="M38.08 31.78c.02.07.13.07.31-.02v.04c-.04.15-.1.3-.16.44-.22.45-.5 1-.86 1.67a11.52 11.52 0 0 1-2.04 2.73c-1.12 1.11-2.2 2.13-3.2 3.32-.33.4-.62.85-.86 1.33-.42.84-.65 2.12.28 2.71.12.08.31.11.46.14l-1.03.25a1.84 1.84 0 0 1-.43-.71c-.32-1.09.04-2.36.6-3.31.44-.74 1.02-1.47 1.75-2.21l1.75-1.77c.48-.49.83-.86 1.05-1.12.78-.95 1.57-1.99 1.81-3.16a.15.15 0 0 1 .1-.11c.18-.05.34-.12.47-.22Z" fill="#D77200"/><path d="M38.42 31.8c.02.06.03.1.02.13-.1.32-.26.72-.5 1.2 0 .02 0 .04.03.05.05.03.15.06.27.1a2.9 2.9 0 0 1 1.9 1.44c.21.44.34.91.37 1.44.06.9.05 1.79-.04 2.69a.4.4 0 0 1-.17.28c.1-.96.13-1.89.08-2.79a4.8 4.8 0 0 0-.15-.96 2.46 2.46 0 0 0-1.5-1.78 3.42 3.42 0 0 0-.86-.3 4.94 4.94 0 0 0-3.53 6.86c-.03.52.12.88.44 1.07.1.04.2.04.3.02.26-.08.48-.25.66-.53l.2-.3a.1.1 0 0 0 0-.07 2.23 2.23 0 0 1 .47-1.74.04.04 0 0 1 .04-.01c.03 0 .03.02.02.04-.1.16-.17.3-.2.42-.2.42-.26.85-.19 1.27.05.29.21.5.48.62.12.06.29.07.5.01a.62.62 0 0 0 .22-.2.08.08 0 0 0 .01-.07 2.44 2.44 0 0 1-.02-1.28c.03-.12.07-.23.14-.34a.07.07 0 0 1 .1-.02l.02.01v.03l-.1.24c-.09.27-.13.56-.1.88.01.3.13.54.34.71.15.15.34.16.57.05a.79.79 0 0 0 .33-.35.8.8 0 0 0 .1-.47l-.02-.85.04-.24c0-.05.03-.07.08-.07h.02a.05.05 0 0 1 .06.06l-.05.52c-.02.31.01.62.1.92-.24.26-.52.5-.82.71-.3 0-.52-.1-.66-.3a.07.07 0 0 0-.05-.02.07.07 0 0 0-.05.02c-.42.43-1.07.2-1.28-.3a.04.04 0 0 0-.08 0c-.26.45-.95 1.14-1.47.6-.48-.5-.27-1.71-.07-2.3.2-.6.4-1.05.56-1.33.12-.2.2-.36.22-.47.02-.05 0-.05-.03-.02-.84.82-1.96 1.9-2.89 3-.65.76-1.3 1.89-1.18 2.9.09.68.54 1.03 1.35 1.05l-.44.1c-.15-.02-.34-.05-.46-.13-.93-.6-.7-1.87-.28-2.71.24-.48.53-.93.86-1.33 1-1.2 2.08-2.2 3.2-3.32.78-.77 1.49-1.69 2.04-2.73.36-.66.64-1.22.86-1.67.07-.14.12-.29.16-.44h.03Z" fill="#010101"/><path d="M38.72 33.6c-.17.14-.35.26-.53.37-.2.13-.37.25-.47.37-.16.16-.3.33-.41.5l-.58.72c-.14.16-.3.3-.52.42a11.19 11.19 0 0 0 1.66-2.68h.03c.26.05.53.16.82.3Z" fill="#D77200"/><path d="M26.08 33.77c-.48-.1-.88-.13-1.2-.1a4.6 4.6 0 0 0-1.25.32c-.69.28-1.25.54-1.68.78-.6.35-1.08.6-1.43.76 1.21-.9 2.44-1.64 3.83-2 .58-.14 1.26-.16 1.73.24Z" fill="#F5CD44"/><path d="M40.3 39.13a14.6 14.6 0 0 1-1.33 1.33l-.07.03c-.09-.3-.12-.61-.1-.92a12.96 12.96 0 0 1 .03-.57l-.02-.01h-.04c-.05 0-.08.02-.08.07l-.04.24c-.13.18-.2.4-.22.68-.02.25.03.47.14.64a.79.79 0 0 1-.33.35c-.23.11-.42.1-.57-.05-.16-.46-.22-.9-.18-1.3.01-.1-.03-.19-.06-.29l.1-.24v-.02l-.03-.02a.07.07 0 0 0-.09.02c-.07.11-.11.22-.14.34l-.18.13a.12.12 0 0 0-.04.06c-.15.45-.14.9.01 1.36-.21.06-.38.05-.5-.01a2.72 2.72 0 0 1-.3-.81c-.02-.1-.02-.28 0-.52a3.1 3.1 0 0 0 .01-.56c.03-.13.1-.26.2-.42.01-.02 0-.04-.02-.04l-.04.01c-.1.1-.18.22-.25.36a.34.34 0 0 0-.1.12.06.06 0 0 1-.06.04c-.06 0-.1.02-.12.07-.18.34-.25.72-.22 1.12.01.13.07.26.08.4-.18.28-.4.45-.66.53-.1.02-.2.02-.3-.02a4.62 4.62 0 0 1-.26-.67 2.72 2.72 0 0 1-.03-.86c.02-.17-.02-.34 0-.53.3-.94.71-1.82 1.26-2.63.07-.1.22-.3.46-.56.21-.12.38-.26.52-.42.25-.32.39-.46.58-.73a2.39 2.39 0 0 1 .88-.86c.18-.1.36-.23.53-.37.78.31 1.28.9 1.51 1.78.08.3.13.62.15.96.04.9.02 1.83-.08 2.8Z" fill="#FF8D00"/><path d="m17.92 34.68-.14.03.2-.86.04-.12a.1.1 0 0 1 .1-.06h.02c.03 0 .05.02.04.05l-.26.96Z" fill="#696868"/><path d="m17.97 33.85-.2.86c-.13.7-.3 1.75.48 2.19a.04.04 0 0 1 .01.03.04.04 0 0 1-.01.03l-.43.31-.04-.02a.07.07 0 0 1-.04-.03 2.85 2.85 0 0 1-.28-1.79c.1-.58.2-1.13.51-1.58ZM26.22 34.38c-.2.44-.57.7-.96.94a.63.63 0 0 1-.3.08 2.6 2.6 0 0 0-1.35.43l-.52.35c-.02-.06-.02-.1 0-.14.34-.4.75-.76 1.23-1.09a3.1 3.1 0 0 1 1.9-.57Z" fill="#D77200"/><path d="M25.78 35.85c-.5-.14-.95-.16-1.37-.05l-.36.08c-.03 0-.04 0-.04-.03v-.09c.24-.1.52-.16.82-.2.38-.04.7.06.95.3Z" fill="#F5CD44"/><path d="M31.07 36.4a.9.9 0 0 0 .97-.06c.18-.12.35-.27.5-.46.02-.01.02-.04 0-.08.05-.02.09 0 .12.04.09.17-.08.42-.2.53-.39.35-1.06.6-1.46.2-.05-.06-.03-.11.07-.17ZM26.02 36.13c.1.28.05.5-.15.7l-.03.01h-.04c-.56-.27-1.27-.13-1.8.16a.25.25 0 0 1 .1-.17c.55-.41 1.12-.68 1.8-.6.04 0 .07 0 .08-.02a.15.15 0 0 0 .04-.08Z" fill="#D77200"/><path d="m25.87 37.1-1.3-.2c.43-.12.94-.14 1.3.2Z" fill="#F5CD44"/><path d="M23.76 38.52c-.08 0-.09-.05-.02-.12a.27.27 0 0 1 .09-.06c.77-.39 1.36-.7 2.16-.79.02 0 .04-.02.04-.04l.02-.2c.14.26.13.49-.05.7a.08.08 0 0 1-.06.02c-.7-.01-1.37.1-2.04.36a.22.22 0 0 0-.14.13Z" fill="#D77200"/><path d="M27.24 38.9a2.25 2.25 0 0 0-1.04-.52 4.1 4.1 0 0 0-.5-.07.04.04 0 0 1 0-.04v-.02a.21.21 0 0 1 .13-.04c.46 0 1.3.11 1.41.7Z" fill="#F5CD44"/><path d="M36.16 38.97c-.19.45-.31.89-.21 1.38a.1.1 0 0 1-.01.07l-.2.3c-.01-.14-.07-.27-.08-.4-.03-.4.04-.78.22-1.12.02-.05.07-.07.13-.07l.03-.01.02-.03a.34.34 0 0 1 .1-.12Z" fill="#D77200"/><path d="M36.27 39.06c.02.19.02.38 0 .56-.03.24-.03.41 0 .52.04.26.14.53.3.8a.78.78 0 0 1-.49-.6c-.07-.43 0-.86.19-1.28ZM34.48 39.17c-.01.19.03.36.01.53-.03.33-.02.61.03.86.03.11.11.34.26.67-.32-.19-.47-.55-.44-1.06.03-.42.07-.75.14-1Z" fill="#F5CD44"/><path d="M38.65 39.3c0 .45.02.73.03.85a.8.8 0 0 1-.1.47.99.99 0 0 1-.15-.64c.02-.28.1-.5.22-.68Z" fill="#D77200"/><path d="M37.67 40.92a.94.94 0 0 1-.35-.71c-.02-.32.02-.6.11-.88.03.1.07.2.06.3-.04.4.02.83.18 1.3Z" fill="#F5CD44"/><path d="M37.27 39.41c-.1.44-.1.86.02 1.28.01.02 0 .05 0 .07a.63.63 0 0 1-.23.2c-.15-.45-.16-.9 0-1.36 0-.02.01-.04.04-.06l.17-.13ZM26.3 40.07c-.17.1-.28.15-.35.17-.92.32-1.96.6-3.1.86-.55.12-1.28.33-1.21 1.02.02.22.1.43.27.6.09.1.25.23.5.37a796.8 796.8 0 0 1 1.65.95l.54.27c-.36-.05-.7-.13-1.01-.25a22.65 22.65 0 0 1-4.47-3.2c-.05-.04-.04-.06.02-.06.43.03.87.03 1.32 0 1.95-.14 3.9-.39 5.83-.73Z" fill="#D77200"/><path d="M28.4 42.27v.08c-.33.55-.77.86-1.32.94.4-.21.65-.4.76-.54l.38-.43c.06-.06.12-.08.18-.05Z" fill="#010101"/><path d="M27.08 43.29c.55-.08 1-.4 1.32-.94v-.08c.03-.02.06-.02.09.02.05.07.07.15.03.23-.2.5-.58.81-1.16.92-.12.03-.21-.03-.28-.15ZM28.32 43.45a.4.4 0 0 0 .06.06c.07.04.08.09.04.15-.17.25-.36.4-.58.46-.1.02-.2-.04-.28-.18.28.03.53-.13.76-.5Z" fill="#D77200"/><path fill-rule="evenodd" d="M28 45a17 17 0 1 0 0-34 17 17 0 0 0 0 34Zm0-.52a16.48 16.48 0 1 0 0-32.96 16.48 16.48 0 0 0 0 32.96Z" fill="#010101"/></svg>