<svg width="112" height="112" viewBox="0 0 56 56" xmlns="http://www.w3.org/2000/svg"><rect fill="#C36EFF" width="56" height="56" rx="28"/><path d="m32.63 15.92.83-1.72.57-.9.66-.83.54-.53.94-.58c1.46-.69 2.92-.02 3.84 1.17.85 1.1 1.48 2.34 1.9 3.75.97 3.26 1.3 6.5 1.29 9.82 0 .4.44 1.1.62 1.5 1.1 2.29 1.45 4.8.97 7.28l-.87 2.47-.3.57-.76 1.13c-2.9 3.68-7.92 5.42-12.5 5.85-5.62.52-12.82-.92-16.7-5.27-3.36-3.77-3.4-9.02-.9-13.22a.53.53 0 0 0 .08-.31 34.6 34.6 0 0 1 1.4-10c.23-.75.53-1.47.9-2.16l.78-1.25c.38-.5.85-.91 1.4-1.25 1.98-1.23 3.79.35 4.84 1.9.54.8.97 1.76 1.4 2.66.01.04.04.05.07.04a12.57 12.57 0 0 1 8.87.03c.04.02.07 0 .09-.03a.27.27 0 0 0 .04-.12Z" fill="#3E0176"/><path d="m36.17 11.36-.94.58c.26-.31.57-.5.94-.58Z" fill="#646484"/><path d="M21.47 14.18a4.97 4.97 0 0 0-1.72-1.42 2.12 2.12 0 0 0-2.02.04l-.26.13c-.36.18-.68.54-.93.85-.05.06-.07.05-.05-.02l.05-.19c.6-.88 1.7-1.9 2.8-1.46.7.3.93.64 1.4 1.06.21.18.45.52.73 1.01ZM39.74 13.92v.03c-.01.02-.03.02-.04 0-.55-.64-.97-1.07-1.84-1.28-.76-.18-1.23.03-1.88.38-.1.05-.2.11-.28.19-.33.28-.66.6-1 .94l.68-.92.82-.74c1.47-1.1 2.87.15 3.54 1.4Z" fill="#C1C1CF"/><path d="m34.7 12.47-.67.83c.15-.33.38-.6.66-.83ZM36.2 12.52l-.82.74c.17-.34.44-.59.82-.74Z" fill="#646484"/><path d="M21.47 14.18c.23.26.42.56.57.92.27.67.54 1.25.8 1.9.07.18.24.26.52.25.52.34 1.06.06 1.57-.09 2.26-.63 4.65-.54 6.87.21.35.12.68.11.96-.1.31.05.47-.1.59-.37l.72-1.7c.16-.39.37-.73.63-1.02.34-.34.67-.66 1-.94.08-.08.18-.14.28-.2.65-.34 1.12-.55 1.88-.37.87.21 1.29.64 1.84 1.29.01.01.02.01.03-.01v-.03c.05 0 .08.02.1.07.17.39.42.78.57 1.11a11.68 11.68 0 0 1 .55 1.56c.92 3.13 1.15 6.3 1.2 9.5 0 .59.17.76.44 1.25a10.82 10.82 0 0 1 1.29 6.3.1.1 0 0 1-.05.08l-.07.05-.1-.29-.28-.68c-.16-.4-.43-.7-.81-.9-1.15-.7-2.57-.46-3.74.06-.55.25-.9.42-1.04.53-1.24.9-2.72 1.42-4.25.93l-.82-.42-.33-.26a2.22 2.22 0 0 0-1.04-.69c-.03 0-.04.02-.05.04l.01.04c-.46-.67-1.7-.83-2.48-.85-.83-.02-1.67.01-2.5.09-.54.05-1.3.23-1.64.7-.02-.06-.1-.04-.24.06-.23.06-.43.18-.62.37a3.68 3.68 0 0 1-3.87.85c-.84-.26-1.55-.82-2.2-1.18-1.29-.7-3.15-1.24-4.47-.26-.3.15-.5.39-.64.71l-.33.72-.15.44c-.08-.48-.16-1-.13-1.47.1-2.06.7-3.96 1.8-5.72a.52.52 0 0 0 .06-.28c.02-2.73.23-5.48.83-8.15a45.49 45.49 0 0 1 .62-2.15l.02-.04c.06-.3.16-.6.3-.88.27-.55.56-1.08.87-1.59l-.05.19c-.02.07 0 .08.04.02a3.14 3.14 0 0 1 1.2-.98 2.12 2.12 0 0 1 2.02-.04c.61.29 1.19.76 1.72 1.42ZM15.92 12.69l-.78 1.25c.18-.47.44-.89.78-1.25Z" fill="#646484"/><path d="m33.46 14.2-.83 1.72c.19-.6.47-1.17.83-1.72Z" fill="#646484"/><path d="M19.21 19.65c-.36.36-.71.85-1.09 1.27-.43.48-.74 1.06-1.12 1.58-.14.2-.25.46-.37.62-.18.24-.59.2-.74-.03-.05-.08-.08-.22-.07-.42.06-1.86.35-3.69.88-5.48.04-.15.17-.28.17-.44 0-.22.13-.39.2-.54.24-.59.58-1.03 1.02-1.35.84-.6 1.75.17 2.04.98l.12.24c.08.15.08.32.15.48.17.4.23.93.33 1.36.06.22.01.38-.13.48-.48.34-.87.73-1.39 1.25ZM35.6 18.52c-.17-.14-.3-.31-.26-.55a11.15 11.15 0 0 1 .6-2.04c.36-.8 1.12-1.55 2.1-1 .61.33 1.07 1.39 1.27 2.03.6 1.92.92 3.88.95 5.89 0 .52-.57.73-.85.27a18.64 18.64 0 0 0-3.8-4.6Z" fill="#3E0176"/><path d="M19.66 17.25c-.38-.45-.8-1.07-1.43-.5-.39.36-.44.69-.74 1 .13-.57.6-1.9 1.16-2.17a.27.27 0 0 1 .34.09c.34.48.56 1 .67 1.58ZM38.64 17.87c-.32-.54-.94-1.67-1.63-1.16-.18.14-.37.35-.56.64.11-.55.37-1.33.81-1.7a.19.19 0 0 1 .24 0c.61.46.97 1.5 1.14 2.22Z" fill="#C33979"/><path d="M32.76 17.28c-.28.2-.6.2-.96.09-2.22-.75-4.6-.84-6.87-.2-.51.14-1.05.42-1.57.08a11.75 11.75 0 0 1 9.4.03Z" fill="#C1C1CF"/><path d="m19.66 17.25.13.55a.1.1 0 0 1-.03.1l-1 .97c-.2.19-.38.39-.56.6l-1.3 1.55c-.02.02-.03.01-.03-.01.09-1.1.3-2.19.62-3.26.3-.31.35-.64.74-1 .64-.57 1.05.05 1.43.5ZM38.64 17.87c.32 1.04.51 2.1.57 3.18.01.09-.01.1-.06.02a19.2 19.2 0 0 0-2.83-3.15.1.1 0 0 1 0-.06l.13-.5c.2-.3.38-.51.56-.65.69-.5 1.3.62 1.63 1.16Z" fill="#FC517B"/><path d="M20.23 25c-.75-.7-.43-1.71.53-2.03.97-.33 2.13.04 2.5 1.01.3.76-.08 1.86-1 2-.79.11-1.46-.44-2.03-.98ZM36.08 24.76c-.55.93-2.48 2.03-3.23.52-.7-1.43.82-2.62 2.2-2.34.9.17 1.54.96 1.03 1.82Z" fill="#fff"/><path d="M22.6 29.63c.31.49.4 1.03.36 1.6 0 .05-.04.07-.1.05l-.03-.02a11.33 11.33 0 0 0-.72-.75c-1.27-1.22-2.65-.9-3.94.1-.05.03-.1.05-.15.03a.07.07 0 0 1-.06-.08c.32-2.3 3.42-2.9 4.65-.93ZM37.94 29.85c.13.2.2.42.21.67l-.01.04-.03.03a.09.09 0 0 1-.1 0c-1.22-.8-2.74-1.16-3.84.1a17.07 17.07 0 0 0-.78.95h-.03a.08.08 0 0 1-.07 0 .08.08 0 0 1-.04-.05c-.15-1.06.16-1.89.94-2.47a2.58 2.58 0 0 1 3.75.73Z" fill="#3E0176"/><path d="M23.83 32.57c.24-.04.44-.17.62-.37.14-.1.22-.12.25-.06-.42.6.47 1.86.92 2.25.12.13.25.23.4.3.03 0 .05.03.06.05.01.02.02.05.01.07-.2 1.14-1.07 1.67-2.18 1.54-.4-.05-.75-.18-1.05-.38-.24-.16-.43-.22-.55-.18-.14-.2-.26-.41-.36-.64a.1.1 0 0 0-.09-.06.04.04 0 0 0-.05.03c-.08.6.02 1.15.3 1.66.43 1.75 1.56 2.79 3.4 3.1.1.56.43 1.05.99 1.48a21.63 21.63 0 0 1-8.74-2.33 12.35 12.35 0 0 1-4.56-3.9 7.42 7.42 0 0 1-.88-1.72l.33-.72.64-.71c1.32-.98 3.18-.44 4.47.26.65.36 1.36.92 2.2 1.18 1.43.45 2.79.21 3.87-.85ZM42.57 31.98l.81.89.28.68c-.93 2.43-3.03 4.33-5.37 5.52a22.1 22.1 0 0 1-8.61 2.31c-.1.02-.14-.01-.13-.1.43-.29.7-.7.83-1.21.18-.14.4-.25.66-.35 1.37-.48 2.23-1.25 2.64-2.67a2.4 2.4 0 0 0 .49-1.9.04.04 0 0 0-.03-.02h-.02a.16.16 0 0 0-.09.05c-1.08 1.3-3.55 2-4.24-.17a.25.25 0 0 1 .01-.18c.03-.05.07-.1.13-.12.51-.24.88-.6 1.1-1.1.18-.36.5-1.06.28-1.4v-.05c0-.02.01-.04.04-.04.04 0 .07.01.1.03.2.28.61.5.94.66l.33.26c.2.22.47.36.82.42 1.53.5 3.01-.03 4.25-.93.15-.1.5-.28 1.04-.53 1.17-.52 2.6-.75 3.74-.05ZM29.45 32.19l-.07.13a.14.14 0 0 1-.08.07l-.6.2c-.4.05-.79.06-1.18 0l-.85-.21a.14.14 0 0 1-.07-.04.13.13 0 0 1-.01-.15.13.13 0 0 1 .05-.06l.3-.15c.7-.16 1.86-.23 2.51.2Z" fill="#fff"/><path d="m13.29 31.98-.64.71c.13-.32.35-.56.64-.71Z" fill="#C1C1CF"/><path d="m26.93 31.98-.29.15a.13.13 0 0 0-.05.06.13.13 0 0 0 .01.15l.07.04.85.22c-.26.05-.87 0-1-.27-.11-.21.22-.38.41-.35Z" fill="#646484"/><path d="M42.57 31.98c.38.2.66.49.81.89l-.81-.9ZM31.44 32.15c.37.14.69.35.95.66a2.72 2.72 0 0 1-.95-.66Z" fill="#C1C1CF"/><path d="M29.45 32.19c.05.2-.08.33-.38.39h-.38l.61-.2a.14.14 0 0 0 .08-.06l.07-.13Z" fill="#646484"/><path d="M24.45 32.2c-.18.2-.38.33-.62.37.19-.19.4-.31.62-.37Z" fill="#C1C1CF"/><path d="M12.32 33.4c.24.67.54 1.25.88 1.74a12.34 12.34 0 0 0 4.56 3.89 21.63 21.63 0 0 0 8.74 2.33c.39.24.84.38 1.34.42.65.05 1.22-.12 1.71-.5-.01.09.03.12.13.1l.14-.02a22.1 22.1 0 0 0 8.47-2.29c2.35-1.2 4.44-3.09 5.37-5.52l.1.29c.07.25.08.5.02.76-.1.4-.2.79-.31 1.16l-.83 1.74-.34.54-.55.73c-.55.63-1.15 1.2-1.8 1.7-.41.21-.79.46-1.13.75-.59.38-1.14.68-1.66.9a23.12 23.12 0 0 1-15.28 1.03c-4.58-1.22-8.82-3.99-9.7-8.85-.03-.15.02-.3-.01-.45l.15-.44Z" fill="#C5B2D6"/><path d="M31.03 33.6c-.22.5-.59.87-1.1 1.1a.26.26 0 0 0-.13.13.25.25 0 0 0 0 .18c.68 2.16 3.15 1.46 4.23.17a2.97 2.97 0 0 1-1.68 1.75c-.42.04-.8.18-1.19.17-.4 0-.8-.06-1.22-.16-.73-.26-1.4-.98-1.4-1.8 0-.04.02-.06.06-.07a3.6 3.6 0 0 0 2.43-1.46ZM25.62 34.39c.17.07.33.15.49.25a3.15 3.15 0 0 0 1.3.44.12.12 0 0 1 .05.08v.06c-.19.82-.64 1.4-1.38 1.71-.13 0-.3.04-.52.1a3.33 3.33 0 0 1-1.06.06c-.15-.05-.3-.08-.45-.07a2.6 2.6 0 0 1-1.75-1.23c.13-.04.32.02.56.18.3.2.65.33 1.05.38 1.11.13 1.99-.4 2.18-1.54l-.01-.07a.12.12 0 0 0-.06-.05 1.15 1.15 0 0 1-.4-.3Z" fill="#C5B2D6"/><path d="M44.79 34.88c-.1.88-.39 1.7-.87 2.47l.87-2.47ZM43.47 35.76c-.13.63-.4 1.22-.83 1.74l.83-1.74Z" fill="#646484"/><path d="M22.12 36.78a3.22 3.22 0 0 0 2.32 1.44.1.1 0 0 1 .04.04 2.41 2.41 0 0 0 .94 1.13l.01.05.07.45c-1.83-.32-2.96-1.36-3.38-3.1Z" fill="#C5B2D6"/><path d="M26.08 36.93c-.53.25-1 .18-1.54.18.41.02.75-.01 1.02-.09.22-.05.39-.09.52-.09ZM32.35 36.93c-.21.12-.44.18-.68.19-.47 0-1.16.14-1.73-.18.42.1.83.15 1.22.16.39.01.77-.13 1.19-.17Z" fill="#646484"/><path d="M33.68 37.05c-.4 1.42-1.27 2.19-2.63 2.67-.27.1-.49.21-.67.35l.09-.53a.12.12 0 0 1 .06-.09c.48-.28.84-.68 1.07-1.18a.1.1 0 0 1 .08-.06 3.2 3.2 0 0 0 2-1.16Z" fill="#C5B2D6"/><path d="M28 39.12c.01 0 .03 0 .05-.02a56.5 56.5 0 0 0 .27-1.94l1.08.75c.02.01.02.03.02.04-.02.62.07 1.5-.1 2-.33.86-1.42 1-2.15.6-.89-.5-.67-1.73-.67-2.6a.1.1 0 0 1 .06-.09 4.19 4.19 0 0 0 1.12-.76.03.03 0 0 1 .02.03l.23 1.94c0 .04.02.06.07.05Z" fill="#F42F42"/><path d="M43.62 37.92c-.18.42-.43.8-.76 1.13l.76-1.13ZM42.3 38.04c-.12.29-.3.53-.55.73l.55-.73ZM39.94 40.48c-.32.32-.7.57-1.12.74.34-.29.71-.54 1.12-.74Z" fill="#646484"/></svg>