<svg width="112" height="112" viewBox="0 0 56 56" xmlns="http://www.w3.org/2000/svg"><path d="M28.07 18.38a.3.3 0 0 1-.03.2.17.17 0 0 1-.1.08.6.6 0 0 0-.27.16c-.04.04-.09.11-.15.22a2.3 2.3 0 0 1-.11.18.87.87 0 0 1-.24.2c-.11.08-.2.14-.24.2l-.55.54a6.08 6.08 0 0 1-1.86-1.34.23.23 0 0 0-.09-.06 1.45 1.45 0 0 1-.1-.05 4.86 4.86 0 0 0-.9-.67v.02l.45.32c.02.01.03.03.01.05l-.02.02h-.02a42.47 42.47 0 0 0-2.85-2 .2.2 0 0 1-.07-.09c-.03-.06-.08-.12-.17-.16-.11-.05-.37-.18-.77-.4.05-.24.27-.31.68-.2 2.46.68 4.93 1.6 7.4 2.78Z" fill="#F5F8FB"/><path d="m24.33 18.71-.33-.23-.04.01-.03.03.52.4c.05.04.06.03.04-.03-.02-.07-.07-.12-.16-.18l.1.05c.04 0 .07.03.1.06a6.08 6.08 0 0 0 1.85 1.34c.11.13.17.23.18.3a2 2 0 0 0-.23.7c0 .2-.02.4-.05.6a100.88 100.88 0 0 1-6.15-5.68.9.9 0 0 1-.14-.28c.4.22.66.35.77.4.09.04.14.1.17.16a.2.2 0 0 0 .07.1l.05.04a42.43 42.43 0 0 1 2.82 1.95l.02-.02c.02-.02.01-.04 0-.05a19.26 19.26 0 0 0-.47-.34c.01-.01.02-.02.04 0 .31.19.6.41.87.67ZM39.84 17.24c.22.13.38.3.47.54a.8.8 0 0 1-.47-.54Z" fill="#9CA6D8"/><path d="M40.59 18.13c.36.35.64.73.84 1.14.14.65.32 1.29.53 1.9.34.98.65 1.97.96 2.95.03.1.01.31-.06.6l-.23.21a.2.2 0 0 0-.07.15c0 .06.02.11.07.15l.33.33a.1.1 0 0 0 .06.02c.29 0 .54.1.78.29.13.31.15.6.06.87-.3-.35-.62-.65-.93-.9a.36.36 0 0 1-.08-.09.3.3 0 0 0-.1-.11l-.98-.59c-.17-.1-.16-.16.04-.19h.05l.32-.06c.12-.04.2-.11.25-.21a.72.72 0 0 0 .07-.42c-.01-.1-.05-.23-.11-.41l-.09-.26a.12.12 0 0 0-.07-.09.12.12 0 0 0-.12.01c-.46.27-.94.52-1.43.74a.46.46 0 0 0-.13.12 1.3 1.3 0 0 1-.04.04h-.14l-2 .98-.06-.06 1.86-1.02c.12 0 .23-.08.34-.25a.15.15 0 0 0 .02-.13.3.3 0 0 1 .1-.35.05.05 0 0 0 .02-.05.05.05 0 0 0-.04-.03 2.82 2.82 0 0 0-.8-.08c-.19 0-.31.1-.38.29a.88.88 0 0 1-.32.28c-.06.04-.08.02-.06-.05a.49.49 0 0 1 .28-.33.11.11 0 0 0 .07-.08.1.1 0 0 0-.02-.08.1.1 0 0 0-.08-.03c-.5.03-.97.01-1.42-.05-.3-.05-.95-.04-1.98.02a2.93 2.93 0 0 0-1.13.01l-.47-.1a.12.12 0 0 1-.07-.1l4.47-.02c.35.03.67.03.96 0 .1-.02.18-.07.22-.16a.42.42 0 0 1 .07-.11l1.18-1.27c.14-.14.18-.12.13.07L40.88 23c0 .03 0 .05.02.08.02.02.04.03.07.03h1.06c.1 0 .14-.05.11-.15l-1.55-4.83Z" fill="#F5F8FB"/><path d="m37.75 22.51-2.79-.1a.73.73 0 0 1-.32-.08l-.3-.17a2.75 2.75 0 0 0-.59-.3 2.97 2.97 0 0 0-1.45-.06 8.02 8.02 0 0 1-.75-.7c-.26-.29-.4-.54-.43-.75 0-.05-.02-.1-.05-.14a1.4 1.4 0 0 0-1.12-.56c-.06 0-.08.03-.08.08 0 .12.03.24.08.37a4.06 4.06 0 0 1-1.51-.47 2.8 2.8 0 0 0-.5-.15 1.6 1.6 0 0 0-1 .14c.04-.06.12-.12.23-.2.12-.07.2-.14.24-.2l.11-.18.15-.23a.6.6 0 0 1 .27-.15.17.17 0 0 0 .1-.08.3.3 0 0 0 .03-.2c.79.37 1.57.76 2.35 1.15a6.46 6.46 0 0 0 2.05.7l1.23.28c.45.12.85.26 1.2.41.98.42 1.93.95 2.85 1.59Z" fill="#FDCA6D"/><path d="M24.33 18.71c.09.06.14.11.16.18.02.06 0 .07-.04.03l-.52-.4.03-.03c.01-.02.03-.02.04 0l.33.22Z" fill="#F5F8FB"/><path d="M41.43 19.27a14.49 14.49 0 0 1 1.89 4.04c.2.7.32 1.29.33 1.78-.3-.24-.57-.36-.8-.37.08-.29.1-.5.07-.6-.3-.98-.62-1.97-.96-2.94-.2-.62-.39-1.26-.53-1.91ZM29.95 20.1c.47.5.95 1 1.44 1.47a8 8 0 0 0 1 .8c.1.06.2.18.32.34l.12.15c.07.1.17.14.3.13.36-.04.7.08.98.35l.62.31a.43.43 0 0 0-.18 0 .12.12 0 0 0-.1.09l-.18.6c-.02.08 0 .13.1.15l.2.05c.1.02.14-.02.13-.12-.03-.2 0-.45.1-.73l.64.28-.07.4c0 .04 0 .07.04.1.03.02.07.03.1.02a.18.18 0 0 0 .12-.1.24.24 0 0 1 .06-.06.08.08 0 0 1 .07-.02c.02 0 .04.01.05.03.1.11.2.16.33.14.05 0 .08-.03.1-.07a.47.47 0 0 0 .05-.25c0 .1.03.16.12.17.14.02.26.06.37.12a2.7 2.7 0 0 0 .46.22c.16.05.28.1.34.14.12.07.18.16.18.28 0 .01 0 .02-.02.03h-.03c-.15-.15-.42-.05-.8.27a.1.1 0 0 0-.03.07c0 .03.01.05.03.07.2.22.43.4.7.55l-.02.84c0 .05.02.09.06.11l1.05.75c.05.03.09.08.1.14.02.07.02.12 0 .18l-.12.23c-.1.17-.24.22-.43.14a23.4 23.4 0 0 1-2.1-.95 2.52 2.52 0 0 1-.39-.26 7.4 7.4 0 0 1-.34-.3 6.25 6.25 0 0 0-.42-.35 3.5 3.5 0 0 1-.47-.45 4.6 4.6 0 0 0-.28-.3c-.12-.1-.23-.18-.36-.25-.08-.04-.16-.1-.24-.18a3 3 0 0 1-.19-.2 2.07 2.07 0 0 0-.32-.33 3.56 3.56 0 0 1-.3-.25c.16-.18.25-.44.28-.8 0-.02 0-.05-.03-.07a.09.09 0 0 0-.07-.03.17.17 0 0 0-.1.05.15.15 0 0 1-.15.03.25.25 0 0 1-.11-.06.2.2 0 0 0-.23-.05.25.25 0 0 0-.17.18l-.15.6c-.1-.24-.31-.4-.64-.48.06-.12.04-.21-.06-.27a.62.62 0 0 0-.17-.03 4.2 4.2 0 0 1-.68-.46 169.5 169.5 0 0 0-1-.8c-.61-.46-1.08-.8-1.4-1.02-.53-.36-1.06-.69-1.6-.98a.83.83 0 0 0-.18-.3l.55-.54c.34-.16.68-.2 1.02-.14.14.03.3.08.49.15a11.3 11.3 0 0 1 .59.27c.14.06.45.13.92.2Z" fill="#F193B1"/><path d="m32.3 21.8 1.93 1.31c0 .05.03.09.07.1-.12.02-.18.06-.19.13-.29-.27-.62-.39-.98-.35a.32.32 0 0 1-.3-.13 4.27 4.27 0 0 1-.12-.15 1.5 1.5 0 0 0-.31-.35l-.12-.08c-.4-.3-.7-.53-.89-.7-.5-.49-.97-.98-1.44-1.48a1.15 1.15 0 0 1-.08-.37c0-.05.02-.08.08-.08.46.02.83.2 1.12.56.03.04.05.09.05.14.03.21.17.46.43.75a8.02 8.02 0 0 0 .75.7Z" fill="#3E5977"/><path d="M26.56 20.46c.54.29 1.07.62 1.6.98a43.34 43.34 0 0 1 2.4 1.82c.22.18.44.33.68.46-.12.23-.18.46-.19.7 0 .05.02.08.05.11.05.05.11.06.17.02a.25.25 0 0 0 .12-.14c.04-.14.07-.27.08-.4.33.09.54.25.64.5.35-.04.6 0 .73.14l.3.25c.09.06.2.17.32.32.08.1.15.17.2.21.07.08.15.14.24.18.12.07.23.15.35.26.07.06.16.16.28.3.2.2.35.35.47.44.1.07.24.2.42.36l.34.3c.14.1.27.18.4.25.65.34 1.35.66 2.1.95.18.08.32.03.42-.14l.12-.23a.26.26 0 0 0 0-.18.26.26 0 0 0-.1-.14l-1.05-.75a.13.13 0 0 1-.06-.11l.02-.84c.18.03.3-.06.37-.29.03-.09 0-.15-.1-.17-.02 0-.06 0-.11.02-.07.02-.1 0-.08-.06l.02-.08c.02-.06.05-.09.11-.1.14 0 .3-.06.5-.16l.05.06-.32.22a.05.05 0 0 0-.03.06c0 .02.01.03.03.04.16.08.3.2.42.33-.03 0-.05 0-.08.02a.07.07 0 0 0-.02.06c0 .03 0 .05.03.06.2.15.32.34.35.57a1.35 1.35 0 0 0 .44.84c.13.12.32.24.56.37-.15.36-.17.68-.07.96-.05.35-.05.67.02.96.03.1.13.17.31.22-.18-.05-.3-.03-.39.05l-.88-.63-.02-.03v-.04c0-.02.01-.03.04-.02l.73.23.03-.01c.02 0 .02-.02.02-.03v-.05c.01-.06-.02-.1-.08-.13l-1.42-.5a.25.25 0 0 0-.3.1.9.9 0 0 1-.63.4 1.07 1.07 0 0 0-.34-.34l-.47-.28-.37-.21a421.85 421.85 0 0 0-5.86-3.91.2.2 0 0 0-.12-.03c.12.03.18-.01.18-.12 0-.24.08-.42.26-.55.12-.09.11-.14-.03-.17-.2-.03-.38-.03-.54.02-.19.05-.2.12-.03.21.06.03.07.12.04.25l-.07.3-.02-.17a.14.14 0 0 0-.07-.1l-.67-.38c-.02-.09-.13-.14-.32-.14.1-.02.12-.07.07-.14a.19.19 0 0 0-.1-.08 1.7 1.7 0 0 1-.37-.17c-.48-.38-.93-.71-1.33-1.01a6.76 6.76 0 0 1-.67-.57c.03-.2.05-.4.05-.6 0-.13.07-.36.23-.7Z" fill="#926397"/><path d="M37.76 22.51c.33.1.64.3.94.58l-4.47.02-1.93-1.3c.5-.1.98-.09 1.45.05.15.05.34.14.6.3l.29.17c.1.05.2.08.32.09l2.8.09Z" fill="#F79A39"/><path d="M26.72 12.05c1.84-.14 3.64.01 5.4.48 3 .8 5.57 2.34 7.7 4.64.05.05.06.08.02.07a.8.8 0 0 0 .47.54l.28.35 1.55 4.83c.03.1 0 .16-.11.16h-1.06a.08.08 0 0 1-.07-.04.09.09 0 0 1-.02-.08l.38-1.38c.05-.19 0-.21-.13-.07l-1.18 1.27a.42.42 0 0 0-.07.11c-.04.1-.12.14-.22.16-.29.03-.61.03-.96 0-.3-.28-.61-.47-.95-.58a16.21 16.21 0 0 0-2.85-1.59 9.06 9.06 0 0 0-1.2-.4 27.16 27.16 0 0 0-1.89-.44 6.46 6.46 0 0 1-1.39-.55c-.78-.4-1.56-.78-2.35-1.15a45.43 45.43 0 0 0-7.4-2.78c-.4-.11-.63-.04-.68.2.06.15.1.24.14.28a100.49 100.49 0 0 0 6.82 6.25c.4.3.85.63 1.33 1.01.06.04.18.1.38.17.04.02.07.04.1.08.04.07.01.12-.08.14-.26-.06-.41-.01-.47.15-.06.17-.1.34-.13.52 0 .05 0 .09.02.12.03.04.07.06.12.05a.4.4 0 0 0 .21-.12c.05-.05.1-.05.15 0 .05.05.11.08.19.1.04 0 .08-.02.1-.07a.11.11 0 0 0 .02-.06c0-.19.03-.37.1-.55l.68.38c.04.02.06.06.07.1l.02.16c.06.04.13.06.19.07.05 0 .09 0 .12.02 2.03 1.34 3.98 2.64 5.86 3.92l.37.21.47.28c.16.11.28.22.34.34l-.05.01c-.38.1-.67.18-.86.26-.33.13-.58.29-.74.47l-1.42 1.58a.11.11 0 0 0-.02.1c0 .04.03.07.06.09l.4.18c.06.03.1.07.1.13.01.07.05.12.13.14L26 35.47l-.2.06a.15.15 0 0 1-.13-.02l-.68-.45-.1-.08c-.16-.15-.3-.25-.39-.29-.16-.07-.3-.05-.4.06-.25.26-.5.52-.79.77a.7.7 0 0 0-.16.22l-.09.25-.02.06a.18.18 0 0 1-.1.12.9.9 0 0 0-.42.35c-.07.11-.17.22-.3.33a5.09 5.09 0 0 1-.53.4.2.2 0 0 1-.15.03.46.46 0 0 1-.35-.23c-.04-.05-.03-.1 0-.15.1-.12.16-.24.19-.37 0-.05 0-.1-.03-.14l-.42-.7a.5.5 0 0 0-.27-.23l-.41-.14a.15.15 0 0 1-.1-.1c-.02-.06 0-.1.03-.15.17-.22.24-.47.22-.74a.64.64 0 0 0-.15-.39.42.42 0 0 0-.38-.15c-.5.06-1.08-.14-1.76-.58a.8.8 0 0 0-.64-.15c-.22.05-.37.2-.43.47-.01.05-.04.07-.1.04-.3-.13-.53-.3-.66-.5-.08-.12-.2-.26-.39-.45a3.61 3.61 0 0 1-.6-.82c-.28-.46-.5-.79-.67-.98-.3-.32-.61-.46-.92-.4l-.07-.01a.05.05 0 0 1-.03-.04c-.01-.03 0-.06.03-.07a.3.3 0 0 0 .15-.16.3.3 0 0 0 0-.21 2.86 2.86 0 0 1-.12-1.52c.04-.2.05-.4.03-.65a6.84 6.84 0 0 0-.1-.64l-.05-.24a.65.65 0 0 1-.01-.14c0-.12-.06-.2-.21-.24a4.93 4.93 0 0 0-.54-.1c-.05-.01-.07-.04-.08-.09v-.2a.2.2 0 0 0-.05-.12l-.44-.52a16.02 16.02 0 0 1 14.51-13.42Zm.6 11.76a.38.38 0 0 0-.47-.04.24.24 0 0 0-.1.09l-.3.54c-.12.17 0 .2.36.1a.21.21 0 0 1 .13 0l.25.07c.05.01.1 0 .14-.03a.13.13 0 0 0 .05-.12l-.07-.6Zm-1.47-.1c-.07-.04-.13-.04-.2.01-.15.13-.3.13-.46.03-.08-.06-.18-.05-.32.02-.1.21-.16.45-.17.7 0 .06.02.08.07.08l.91-.03c.05 0 .09-.02.11-.07a.56.56 0 0 0 .07-.2l.07-.36a.16.16 0 0 0-.08-.18Z" fill="url(#b)"/><path d="m40.86 22.36-.18.7c0 .04-.03.06-.06.06h-.56a.06.06 0 0 1-.06-.05A.07.07 0 0 1 40 23l.74-.7c.02-.02.05-.03.08-.01.03.02.04.04.03.07Z" fill="#1F9DF5"/><path d="m34.3 23.22.47.1.76.39-.09.26-.64-.28c0 .03-.03.02-.07-.04l-.62-.3c.01-.08.07-.12.19-.13Z" fill="#2D3F59"/><path d="M35.9 23.3c-.08.05-.12.16-.12.33l-.25.08-.76-.4c.38-.08.76-.08 1.13-.01Z" fill="#F79A39"/><path d="m39.44 23.62.73.6-1.86 1.02c-.18.1-.35.16-.49.17-.06 0-.1.03-.1.09l-.03.08c-.01.06.01.08.08.06.05-.02.1-.02.11-.02.1.02.13.08.1.17-.06.23-.19.32-.37.3-.27-.15-.5-.34-.7-.56a.1.1 0 0 1-.03-.07.1.1 0 0 1 .04-.07c.37-.32.64-.42.79-.28h.03c.02 0 .02 0 .02-.02 0-.12-.06-.2-.18-.28a1.62 1.62 0 0 0-.34-.14l-.13-.05a2.68 2.68 0 0 1-.33-.17.96.96 0 0 0-.37-.12c-.09-.01-.13-.07-.12-.17l.09-.38c.01-.07-.02-.11-.1-.12-.05 0-.09 0-.13.03-.05.03-.07.08-.06.15 0 .01 0 .03-.03.03-.04.02-.07 0-.09-.04-.04-.1-.1-.17-.19-.2 0-.17.04-.28.12-.33 1.03-.06 1.69-.07 1.98-.02.46.06.93.08 1.42.05a.1.1 0 0 1 .08.03.1.1 0 0 1 .02.08c0 .04-.03.07-.07.08a.49.49 0 0 0-.28.33c-.02.07 0 .09.06.05a.88.88 0 0 0 .33-.28Z" fill="#3E5977"/><path d="m40.17 24.22-.73-.6c.06-.19.18-.28.36-.3.27 0 .54.02.81.09.02 0 .03.01.04.03 0 .02 0 .04-.02.05a.3.3 0 0 0-.1.35c.01.05 0 .1-.02.13-.1.17-.22.26-.34.25ZM40.82 23.38h.78c.03 0 .05 0 .05.03.01.03 0 .05-.03.07l-.9.44a.05.05 0 0 1-.06 0 .05.05 0 0 1-.02-.06l.13-.44c0-.03.03-.05.05-.05Z" fill="#1F9DF5"/><path d="m43.86 26.74-.04.66c-.05.12-.12.16-.22.13l-.26-.1a4.63 4.63 0 0 0-.49-.15 1.74 1.74 0 0 0-.54-.04c-.1.01-.2.04-.3.08a2.6 2.6 0 0 0-.25.13c-.16.1-.29.15-.38.18a.82.82 0 0 1-.5-.06 3.43 3.43 0 0 1-.48-.24.1.1 0 0 0-.1-.01.1.1 0 0 0-.06.06l-.56 1.45c-.1-.28-.08-.6.07-.96l.2-.73c0-.05 0-.1-.05-.13l-1.43-1.06a1.55 1.55 0 0 0-.42-.33.06.06 0 0 1-.03-.04c0-.03 0-.04.03-.06l.32-.22 2-.97-.22 1.2.04.02c.02 0 .03 0 .03-.03.07-.3.17-.59.28-.87a.58.58 0 0 0 .01-.33l.04-.04c.05-.06.1-.1.13-.12.49-.22.97-.47 1.43-.74a.12.12 0 0 1 .12 0c.04 0 .06.04.07.08l.09.26c.06.18.1.32.1.4.03.16 0 .3-.06.43a.43.43 0 0 1-.25.2 1.57 1.57 0 0 1-.37.07c-.2.03-.21.09-.04.2l.98.58a.3.3 0 0 1 .1.11l.08.1c.31.24.63.54.93.89Z" fill="#3E5977"/><path d="M34.73 23.65c.04.06.06.07.07.04-.1.28-.13.52-.1.73 0 .1-.03.14-.13.12l-.2-.05c-.1-.02-.12-.07-.1-.16l.18-.6a.12.12 0 0 1 .1-.09l.18.01ZM35.78 23.63c.08.03.14.1.2.2.01.04.04.06.08.04.03 0 .04-.02.03-.03 0-.07.01-.12.06-.15a.22.22 0 0 1 .13-.03c.08 0 .11.05.1.12l-.09.38c0 .09-.01.17-.05.25a.12.12 0 0 1-.1.07.33.33 0 0 1-.33-.14.08.08 0 0 0-.05-.03c-.03 0-.05 0-.07.02a.24.24 0 0 0-.06.07.18.18 0 0 1-.11.09.12.12 0 0 1-.1-.02.1.1 0 0 1-.05-.1l.07-.4.09-.26.25-.08ZM14.64 23.8c.08.08.1.19.09.31a.55.55 0 0 1-.18.33c-.1.1-.21.15-.34.16a.36.36 0 0 1-.3-.11.36.36 0 0 1-.1-.31.55.55 0 0 1 .19-.33c.1-.1.21-.15.34-.16.12 0 .22.03.3.11ZM12.95 24.18c0 .03 0 .06.02.08a.1.1 0 0 0 .07.05c.07.02.13.05.17.1.02.03.02.05.02.07-.01.03-.03.04-.05.05-.19.05-.38.06-.58.03a.06.06 0 0 1-.04-.02.06.06 0 0 1 0-.05l.18-.7a.1.1 0 0 1 .06-.06.1.1 0 0 1 .08 0l.06.03c.07.03.1.1.08.17l-.07.25ZM15.58 24.21c0 .03.02.06.05.08a.1.1 0 0 0 .1 0 .56.56 0 0 1 .25-.02c.1.01.12.06.06.13-.15.18-.35.23-.6.16a.19.19 0 0 1-.12-.1.5.5 0 0 1-.03-.34c.03-.11.08-.2.17-.28a.5.5 0 0 1 .64-.05c.02.02.04.05.05.09v.08c0 .06-.04.09-.1.07l-.2-.04a.22.22 0 0 0-.2.03c-.05.05-.08.11-.07.19ZM20.53 23.9c-.15.16-.17.33-.08.5.02.02.02.05 0 .07a.08.08 0 0 1-.05.05c-.19.05-.38.06-.57.03a.08.08 0 0 1-.06-.05.08.08 0 0 1 0-.07c.06-.16.1-.33.12-.5.01-.12.08-.19.2-.2h.36c.16-.02.19.04.08.16ZM21.8 24.37c.05.14 0 .2-.14.2l-.34.02c-.14 0-.19-.07-.14-.2.05-.16.09-.3.1-.46a.2.2 0 0 1 .06-.12.2.2 0 0 1 .11-.06c.15-.03.3-.03.44-.01.12.01.14.06.05.14-.16.16-.2.33-.14.5ZM22.6 24.38l.12-.53a.17.17 0 0 1 .08-.1.17.17 0 0 1 .13-.04l.43.06c.06.01.1.04.13.08.03.05.04.1.03.15l-.09.33a.18.18 0 0 1-.13.14l-.47.13a.18.18 0 0 1-.19-.04.18.18 0 0 1-.05-.18ZM25.86 24.24c-.01.08-.03.15-.07.21a.12.12 0 0 1-.11.07l-.9.03c-.06 0-.08-.02-.08-.07.01-.26.07-.5.17-.7.14-.08.24-.09.32-.03.15.1.3.1.46-.03a.16.16 0 0 1 .2 0c.07.03.1.1.08.17l-.07.35ZM27.31 23.82l.07.6c0 .05-.02.09-.05.12a.14.14 0 0 1-.14.03l-.25-.08a.21.21 0 0 0-.13 0c-.36.11-.48.08-.36-.1l.3-.53a.23.23 0 0 1 .1-.1c.16-.09.32-.07.46.06ZM28.68 23.73c.19 0 .3.05.32.14-.08.18-.11.36-.1.55l-.02.06c-.03.05-.07.07-.11.06a.33.33 0 0 1-.19-.1c-.05-.04-.1-.04-.15 0a.4.4 0 0 1-.2.13c-.06 0-.1 0-.13-.05a.16.16 0 0 1-.02-.12c.03-.18.07-.35.13-.52.06-.16.21-.21.47-.15ZM29.95 24.58a.44.44 0 0 1-.19-.07l.07-.29c.03-.13.02-.22-.04-.25-.16-.09-.16-.16.03-.21.16-.05.34-.05.54-.02.14.03.15.08.03.17a.62.62 0 0 0-.26.55c0 .1-.06.14-.18.12ZM32.84 24.65c-.14-.13-.38-.18-.73-.15l.15-.6c.03-.1.08-.15.17-.18a.2.2 0 0 1 .23.05c.03.03.07.05.11.06.06.02.1 0 .15-.03a.17.17 0 0 1 .1-.05c.03 0 .05.01.07.03.02.02.03.05.03.08-.03.35-.12.61-.28.79ZM37.49 24.12l.04-.33c0-.05.03-.08.08-.08l.14-.02c.06 0 .09.03.08.09-.02.23-.08.42-.2.55-.13.18-.31.22-.53.11-.11-.05-.15-.14-.12-.26l.02-.13a.71.71 0 0 1 .1-.3.13.13 0 0 1 .13-.05h.05a.1.1 0 0 1 .08.05.1.1 0 0 1 0 .08l-.08.27c-.01.04 0 .07.06.08l.05.01c.06.01.1-.01.1-.07ZM17.47 24.2l.1.23c.01.05 0 .08-.05.11a.15.15 0 0 1-.15 0c-.15-.08-.32-.08-.5.02a.08.08 0 0 1-.1 0 .08.08 0 0 1-.04-.1l.12-.62c0-.04.03-.07.06-.09a.13.13 0 0 1 .12-.01c.19.06.38.06.57 0 .03 0 .05 0 .07.02.01.02.02.05 0 .07a.62.62 0 0 1-.16.22.12.12 0 0 0-.04.14ZM18.61 24.42l-.03.05a.22.22 0 0 1-.12.1.2.2 0 0 1-.16-.02c-.05-.02-.07-.06-.05-.11l.15-.55c.04-.14.14-.18.3-.13.03.01.05.03.05.07 0 .03 0 .05.03.06.04.02.07.01.1-.03.06-.11.15-.15.27-.1.06.01.08.05.07.11l-.15.58c-.01.06-.05.1-.11.1a.23.23 0 0 1-.22-.12c-.04-.07-.08-.07-.13 0ZM31.24 23.72c.1 0 .15.02.17.03.1.06.12.15.06.27-.01.12-.04.25-.09.39a.25.25 0 0 1-.1.14c-.07.04-.13.03-.18-.02a.13.13 0 0 1-.05-.1c0-.25.07-.48.2-.71Z" fill="#F5F8FB"/><path d="M14.17 24.1c-.04.08-.03.18.03.2.06.04.15 0 .2-.1.04-.09.02-.18-.04-.21s-.15.01-.2.1Z" fill="#1F9DF5"/><path d="M22.96 24.08c-.05.1-.03.19.03.22s.15-.01.2-.1c.04-.09.03-.18-.04-.22-.06-.03-.15.02-.19.1Z" fill="#80B6D7"/><path d="M40.51 24.32c.03.14.03.25 0 .33-.12.28-.22.57-.28.87 0 .02-.02.03-.04.03l-.04-.01v-.01l.22-1.2.14-.01Z" fill="#9CA6D8"/><path d="M43.65 25.09c.24.13.29.4.15.78-.24-.19-.5-.28-.78-.29a.1.1 0 0 1-.06-.02l-.33-.33a.2.2 0 0 1-.07-.15c0-.06.03-.11.07-.15l.23-.2c.22 0 .48.12.8.36Z" fill="#3E5977"/><path d="M24.99 35.06c-.1.1-.3.11-.57.06-.06-.01-.08 0-.08.06-.01.2.05.38.19.52.27.29.6.54.96.77.51.32 1 .68 1.44 1.08.14.12.3.24.5.34a7.69 7.69 0 0 0 .77.37c-.2.18-.43.3-.66.39l-.38.14c-.52.2-.9.32-1.18.38-.44.1-.84.09-1.19 0a8.9 8.9 0 0 0-1.95-.37l-1.88-.07c-.5-.01-.99-.13-1.47-.37a9.52 9.52 0 0 1-1.31-.86 9.17 9.17 0 0 1-1.44-1.31c-.09-.1-.2-.2-.33-.3-.08-.07-.2-.15-.37-.26a3.89 3.89 0 0 1-.72-.57c-.38-.43-.8-.84-1.25-1.23-.35-.3-.62-.7-.8-1.18-.14-.4-.24-.87-.28-1.43a.17.17 0 0 0-.06-.12c-.2-.17-.43-.3-.69-.39a15.37 15.37 0 0 1-.03-5.24l.44.52a.2.2 0 0 1 .05.13v.2c0 .04.03.07.08.08.17.02.35.05.54.1.15.04.22.12.21.24v.14a49.33 49.33 0 0 0 .16.88c.02.24.01.45-.03.65-.1.5-.06 1.01.12 1.52a.3.3 0 0 1 0 .21.3.3 0 0 1-.15.16c-.03.01-.04.04-.03.07 0 .02.01.03.03.04.02 0 .05.01.07 0 .3-.05.61.09.92.41.17.2.4.52.66.98l.23.38c.08.11.2.26.38.44.18.19.3.33.38.45.14.2.37.37.68.5.05.03.08.01.09-.04.06-.26.2-.42.43-.47a.8.8 0 0 1 .64.15c.68.44 1.26.64 1.76.58.15-.02.27.03.38.15.09.1.14.24.15.39.02.27-.05.52-.22.74a.15.15 0 0 0-.03.14c.01.06.05.1.1.11l.4.14c.12.04.21.11.28.22l.42.71c.03.04.03.09.03.14a.84.84 0 0 1-.18.37.12.12 0 0 0-.01.15c.09.14.2.22.35.23.06 0 .1 0 .15-.04l.17-.12.36-.27c.13-.1.23-.22.3-.33.1-.16.24-.27.41-.35.06-.02.1-.06.11-.12l.02-.06.1-.25a.7.7 0 0 1 .15-.22c.28-.25.54-.51.8-.77.1-.11.23-.13.4-.06.09.04.22.14.39.3l.09.07Z" fill="#F5F8FB"/><path d="m38.47 25.95 1.43 1.06c.04.03.06.08.04.13l-.2.73a2.83 2.83 0 0 1-.55-.37 1.35 1.35 0 0 1-.44-.84.81.81 0 0 0-.35-.57.07.07 0 0 1-.03-.06c0-.02 0-.04.02-.06a.09.09 0 0 1 .08-.02Z" fill="#F193B1"/><path d="m43.8 30.54-.14.65c-.01.03-.03.05-.06.06-.02 0-.05 0-.07-.02l-2.5-2.04c-.25-.2-.45-.17-.6.12l-.1.19c-.16.28-.1.52.15.72l2.77 2.19c.06.04.08.1.06.17a16.48 16.48 0 0 1-2.29 4.67.32.32 0 0 1-.3.15l-8.1-.37c-.18 0-.2.04-.05.13l.58.4c.35.23.32.34-.11.32a96.83 96.83 0 0 0-3.32-.11.55.55 0 0 0-.37.14c-.1.08-.16.2-.19.34a.24.24 0 0 0-.11.12l-.85-.11a2.57 2.57 0 0 1-1.27-.71c-.45-.4-.93-.76-1.44-1.08-.37-.23-.69-.48-.96-.77a.68.68 0 0 1-.2-.52c0-.05.03-.07.09-.06.27.05.46.03.57-.06l.68.45c.04.03.08.03.13.02l.2-.06c0 .06.03.1.08.13.03.02.08.02.13 0l13.15-4.68c.53-.19.75-.5.65-.91-.18-.05-.28-.12-.3-.22-.08-.29-.09-.61-.03-.96l.56-1.45a.1.1 0 0 1 .07-.06.1.1 0 0 1 .09.01c.15.1.31.17.48.24.18.07.35.1.5.06.1-.03.22-.08.38-.18l.25-.13c.1-.04.2-.07.3-.08.18-.01.36 0 .54.04a4.61 4.61 0 0 1 .75.25c.1.03.17-.01.22-.13 0-.05.03-.1.05-.14.03-.04.05-.04.07 0 .04.09.06.16.06.2a27.55 27.55 0 0 1-.2 3.08Z" fill="#F887A1"/><path d="M41.22 28.63c.01.23.13.4.26.4s.23-.2.22-.42c0-.22-.12-.4-.25-.4-.14.01-.24.2-.23.42ZM39.62 30.06c-.18.38-.34.6-.48.64-1.49.51-2.97 1.05-4.43 1.6-.08-.02-.12-.06-.13-.13 0-.06-.04-.1-.1-.13l-.4-.18a.11.11 0 0 1-.06-.09c-.01-.03 0-.07.02-.1l1.42-1.58c.16-.18.4-.34.74-.47a7.78 7.78 0 0 1 .91-.27.9.9 0 0 0 .63-.4.25.25 0 0 1 .3-.1l1.42.5c.06.02.1.07.09.13v.05l-.03.03a.04.04 0 0 1-.03 0l-.73-.22c-.03-.01-.04 0-.04.02v.04c0 .01 0 .02.02.03l.88.63Z" fill="#2D3F59"/><path d="M43.8 30.54c.02.54-.06 1.1-.25 1.7-.47 1.43-.95 2.6-1.44 3.5a20.62 20.62 0 0 1-1.87 2.7c-1.73 2-3.85 3.5-6.33 4.5-.04.01-.09 0-.14-.04a16.3 16.3 0 0 0 6.22-4.36.05.05 0 0 0 .01-.06.06.06 0 0 0-.05-.04l-.73-.01c-.72-.01-1.26-.03-1.62-.06a227.09 227.09 0 0 0-6.11-.33c-.24 0-.61-.02-1.1-.07l-.69-.05a.5.5 0 0 0-.32.07.65.65 0 0 0-.22.26.59.59 0 0 1 .2-.34c.1-.1.22-.14.36-.14h.43c.91.02 1.87.06 2.89.11.43.02.46-.09.1-.33l-.57-.39c-.14-.1-.13-.14.04-.13l8.12.37c.12 0 .22-.04.3-.15a16.48 16.48 0 0 0 2.28-4.67.15.15 0 0 0-.06-.17l-2.77-2.19c-.26-.2-.3-.44-.16-.72l.1-.19c.16-.29.36-.33.61-.12l2.5 2.04c.02.02.05.03.07.02.03-.01.05-.03.06-.06l.15-.65Z" fill="#434A63"/><path d="M40.01 30c.1.43-.12.73-.65.92L26.2 35.6c-.05.02-.1.02-.13 0-.05-.03-.07-.07-.08-.13l8.7-3.16c1.47-.56 2.95-1.1 4.44-1.6.14-.05.3-.27.48-.65.08-.08.21-.1.4-.05Z" fill="#F5F8FB"/><path d="m28.2 38.26.85.11-.14.48c-.02.06-.05.07-.1.05l-.6-.24a.11.11 0 0 0-.09 0 .11.11 0 0 0-.06.08c-.04.16-.06.3-.06.4 0 .16.06.28.15.39.2.23.39.48.56.75.04.06.1.1.17.13s.14.04.21.02c.5-.1.96 0 1.38.33.19.14.33.36.43.65.08.24.13.5.13.79 0 .03.02.05.04.07.02.02.05.02.08.02a.91.91 0 0 1 .41-.02.9.9 0 0 1 .28.17l.16.12c.04.03.08.04.13.04.51-.02 1.04.08 1.58.3-1.8.7-3.66 1.07-5.57 1.1a8.88 8.88 0 0 1-1.46-.74c-.67-.46-1.21-.78-1.64-.97-1.69-.73-3.39-1.48-5.1-2.24a4.69 4.69 0 0 0-1.07-.32c-.73-.13-1.46-.27-2.19-.43a15.76 15.76 0 0 1-4.44-8.59c.26.09.5.22.69.4.03.03.05.06.06.11.04.56.14 1.03.28 1.43.18.48.45.88.8 1.18.46.4.87.8 1.25 1.23.14.15.38.34.72.57.17.1.29.2.37.25.13.1.24.2.33.3.4.47.88.9 1.44 1.32.55.41.99.7 1.31.86.48.23.97.36 1.47.37l1.88.07c.55.03 1.2.15 1.95.36.35.1.75.1 1.2 0a9.39 9.39 0 0 0 1.55-.51c.23-.08.45-.21.66-.4Z" fill="#A9CFE7"/><path d="M34.34 35.04c.2.11.4.15.44.08.04-.07-.09-.22-.3-.34-.2-.11-.4-.15-.43-.08-.04.07.09.22.3.34Z" fill="#2D3F59"/><path d="M33.77 42.9h-.06a3.83 3.83 0 0 0-1.58-.3.21.21 0 0 1-.13-.04 6.5 6.5 0 0 1-.16-.12.9.9 0 0 0-.28-.17.9.9 0 0 0-.41.01c-.03.01-.06 0-.08-.01a.09.09 0 0 1-.04-.07c0-.29-.05-.55-.13-.79-.1-.29-.24-.5-.43-.65a1.6 1.6 0 0 0-1.38-.33.35.35 0 0 1-.21-.02.35.35 0 0 1-.17-.13 6.9 6.9 0 0 0-.56-.75.6.6 0 0 1-.15-.39c0-.1.02-.24.06-.4.01-.04.03-.06.06-.08a.11.11 0 0 1 .1 0l.59.24c.05.02.08 0 .1-.05l.14-.48c.03-.06.07-.1.11-.12.05-.11.13-.2.22-.26a.5.5 0 0 1 .32-.07c.15 0 .38.02.69.05.49.05.86.07 1.1.07a13.18 13.18 0 0 1 1.5.08c1.52.06 3.06.15 4.61.25a37.56 37.56 0 0 0 2.35.07c.03 0 .04.02.05.04v.06a16.3 16.3 0 0 1-6.23 4.36Z" fill="#1BA5EE"/><path d="M28.14 44a15.87 15.87 0 0 1-11.46-4.7c.73.16 1.46.3 2.19.43.39.07.75.18 1.07.32 1.71.76 3.41 1.51 5.1 2.24.43.19.97.51 1.64.97.28.2.77.45 1.46.74Z" fill="#80B6D7"/><defs><linearGradient id="a" x1="10.42" y1="9.71" x2="68.15" y2="76.02" gradientUnits="userSpaceOnUse"><stop stop-color="#1A1E21"/><stop offset="1" stop-color="#06060A"/></linearGradient><linearGradient id="b" x1="27.18" y1="12" x2="27.18" y2="37.28" gradientUnits="userSpaceOnUse"><stop stop-color="#1D82F3"/><stop offset="1" stop-color="#1F9DF5"/></linearGradient></defs></svg>