<svg width="56" height="56" viewBox="0 0 56 56" xmlns="http://www.w3.org/2000/svg"><path d="M29.47 12.05c.21.59.41 1.29.6 2.1.42 1.84.72 3.6.91 5.23a1.04 1.04 0 0 1-.38-.14.26.26 0 0 0-.23-.04.28.28 0 0 0-.18.18c-.09.21-.24.38-.54.39-.72.01-1.25 0-1.57-.02a.17.17 0 0 1-.15-.13.74.74 0 0 0-.56-.56.44.44 0 0 0-.17-.01c-.37.04-.66.17-1.06.08a1.5 1.5 0 0 1-.98-.68c-.36-.56-.7-1.09-1-1.6a6.21 6.21 0 0 0-1.12-1.31c-.72-.67-1.43-.93-2.13-.8-.32.26-.54.52-.65.78a3.3 3.3 0 0 0-.3 1.45l-.01.14a6.2 6.2 0 0 0 .13 3.47.3.3 0 0 1 0 .16l-.18.88a.07.07 0 0 1-.1.05.07.07 0 0 1-.03-.02l-.19-.22a.36.36 0 0 0-.13-.1L16.25 20c.14 0 .24-.03.3-.08a.12.12 0 0 0 .03-.16c-.41-.6-.9-1.07-1.47-1.39l.66-.74a.27.27 0 0 0 .05-.09l.02-.05a.29.29 0 0 1 .07-.11c.68-.67 1.26-1.3 2.05-1.92a16.22 16.22 0 0 1 11.5-3.42Z" fill="#88C0F0"/><path d="M33.85 13.09a6.9 6.9 0 0 1-.59 1.42c-.3.56-.88 1.75-1.74 3.56-.12.25-.1.55.06.89.09.18.06.32-.08.42-.21.06-.38.07-.52 0-.19-1.64-.5-3.38-.91-5.24-.19-.8-.39-1.5-.6-2.09 1.54.13 3 .47 4.38 1.04Z" fill="#A5D3F9"/><path d="M41.17 18.86h-.5a.12.12 0 0 0-.08.03.13.13 0 0 0-.04.09c0 .1.04.24.14.38a.1.1 0 0 1-.1.17h-.84a.15.15 0 0 0-.14.11.15.15 0 0 0 .07.17l1.06.61a.16.16 0 0 1 .07.2.15.15 0 0 1-.05.06l-1 .73c-.31-.48-.5-.88-.55-1.2a23.65 23.65 0 0 0-.81-3.16.11.11 0 0 0-.07-.02h-.06a.13.13 0 0 0-.1.05.13.13 0 0 0-.03.1l.98 4.78a.85.85 0 0 0-.24.4.13.13 0 0 0 .05.15.14.14 0 0 0 .15 0l.92-.54-.13.86a10 10 0 0 0 .47 2.86l-.35-.03c-.08-.15-.17-.24-.28-.27a.1.1 0 0 0-.13.07.1.1 0 0 0 0 .06l.41.94a.14.14 0 0 1-.06.18.14.14 0 0 1-.06.01h-.75a.35.35 0 0 1-.3-.17l-.23-.39a.16.16 0 0 0-.24-.04.16.16 0 0 0-.05.08L38 27.28a.13.13 0 0 0 .05.14c.13.09.3.13.5.12.03 0 .06.02.09.04.02.02.04.05.05.09.03.27.13.53.29.77a.07.07 0 0 1-.07.12c-.94-.03-1.6-.41-1.98-1.14a.86.86 0 0 1-.06-.66c.1-.38.12-.77.04-1.16-.01-.06.02-.16.1-.3.35-.01.55-.33.33-.62-.41-.5-.86-.6-1.34-.28-.61-.22-.85-.46-.71-.73.17-.08.24-.2.21-.35a.36.36 0 0 0-.4-.3c-.17.02-.32.07-.45.14a.71.71 0 0 1-.2-.26.24.24 0 0 1-.01-.15c.06-.2.07-.42.03-.64.1.1.23.14.38.09a.21.21 0 0 0 .14-.15.21.21 0 0 0-.05-.2l-.63-.63a.4.4 0 0 0-.3-.11.92.92 0 0 1-.62-.17c.12-.02.18-.06.16-.13a.46.46 0 0 0-.24-.28 34.05 34.05 0 0 0-1.31-.75.1.1 0 0 1 .03-.13.1.1 0 0 1 .07-.02c.55 0 .94.13 1.16-.22a.18.18 0 0 1 .33.15c-.03.1-.12.23-.27.4a.14.14 0 0 0 .06.22l.05.01a.3.3 0 0 0 .18 0 .3.3 0 0 0 .14-.1c.2-.3.47-.45.77-.5a.2.2 0 0 0 .17-.23.2.2 0 0 0-.05-.09l-.25-.27a.1.1 0 0 1-.01-.12.1.1 0 0 1 .02-.04l.2-.1a.8.8 0 0 0 .37-.34.91.91 0 0 0 .11-.52c-.02-.3.1-.61.38-.95l.17-.23c.03-.12.03-.22-.02-.29a.28.28 0 0 0-.39-.07.27.27 0 0 0-.09.12.34.34 0 0 1-.05.09.27.27 0 0 1-.16.08c-.28.04-.47.1-.56.18l-2.65 2.5a.27.27 0 0 1-.2.07c.14-.1.17-.24.08-.42-.16-.34-.18-.64-.06-.9.86-1.8 1.44-3 1.74-3.55.26-.49.46-.96.59-1.43 1.72.66 3.21 1.54 4.47 2.64.35.31.93.87 1.73 1.67.05.05.08.1.09.17.02.15.1.25.24.29.04.01.07.03.1.06l.7.95Z" fill="#898991"/><path d="M30.98 19.38c.14.07.31.06.52 0 .08 0 .15-.02.2-.07l2.65-2.5c.1-.08.28-.14.56-.18.06 0 .12-.04.16-.08a.34.34 0 0 0 .05-.1.27.27 0 0 1 .37-.13c.04.02.08.05.1.1.06.06.06.16.03.28a.98.98 0 0 1-.17.23c-.28.34-.4.65-.38.95a.91.91 0 0 1-.1.52.8.8 0 0 1-.38.34l-.2.1a.1.1 0 0 0-.04.12c0 .02.02.03.03.04l.25.27a.2.2 0 0 1-.12.33c-.3.04-.56.2-.77.49a.3.3 0 0 1-.33.1h-.04a.14.14 0 0 1-.09-.1.14.14 0 0 1 .03-.13c.15-.17.24-.3.27-.4a.18.18 0 0 0-.1-.21.18.18 0 0 0-.23.06c-.22.35-.61.23-1.16.22a.1.1 0 0 0-.1.08.1.1 0 0 0 .04.12c.37.19.8.42 1.27.7.13.07.2.17.24.28.02.07-.04.1-.16.13l-1.72-.97a.34.34 0 0 0-.16-.04l-.77-.03a.1.1 0 0 0-.1.06.1.1 0 0 0 .04.11c.57.4 1.06.86 1.5 1.4.02.42.3.56.47.8-.36.15-.59.06-.7-.25-.13-.44-.29-.73-.46-.88-.4-.33-.73-.62-.97-.87-.26-.26-.55-.33-.87-.21a.12.12 0 0 0-.07.18l.05.05c.26.12.57.3.93.52.72.46.74 1.01 1.02 1.67-.25.14-.42.1-.48-.1a2.2 2.2 0 0 1-.1-.45c-.12-.83-.71-1.15-1.4-1.35a.18.18 0 0 0-.22.15l.01.1.6 1.18c.06.32.21.61.45.87a.12.12 0 0 1-.07.2c-.54.05-.65-.65-.89-1l-.9-1.07a.1.1 0 0 1-.01-.1.1.1 0 0 1 .05-.07l.42-.24a.26.26 0 0 0-.06-.47c-.64-.2-1.68.31-2.26.66-.1.07-.23.1-.35.12-.4.05-1.05.17-1.35-.1a.08.08 0 0 1 .03-.13l2.4-1.02a.13.13 0 0 0 .06-.15.13.13 0 0 0-.13-.1l-1.23.07a.33.33 0 0 0-.25.14c-.19.27-.49.43-.9.49-.23.03-.39.34-.64.21h-.02l-.34-.35a.43.43 0 0 0-.4-.11l-.44.1a.07.07 0 0 1-.08-.04.07.07 0 0 1 .03-.08l.46-.26a.14.14 0 0 0 .07-.14.14.14 0 0 0-.1-.11c-.4-.14-.51-.47-.32-1 0-.02.02-.04.03-.05l.27-.34a.08.08 0 0 0 .01-.07.08.08 0 0 0-.03-.05.25.25 0 0 1-.06-.04.11.11 0 0 1 .02-.18l.22-.13a.1.1 0 0 0 .02-.14.1.1 0 0 0-.05-.03 2.87 2.87 0 0 0-.93-.1.12.12 0 0 1-.08-.1v-1.05a.18.18 0 0 0-.12-.18.19.19 0 0 0-.07 0 .89.89 0 0 0-.7.33.16.16 0 0 0-.03.15c.24.6.17 1.12-.22 1.59a.4.4 0 0 0 .02.54l.28.27c.05.05.07.12.07.18v.93l.03.1.08.14a.1.1 0 0 1 .01.08.1.1 0 0 1-.05.06l-.56.24a.07.07 0 0 0-.05.07.07.07 0 0 0 .06.06l1.16.17a.07.07 0 0 1 .06.07.07.07 0 0 1-.06.07l-.5.12a.05.05 0 0 0-.03.07c0 .01 0 .02.02.03l.53.4a.17.17 0 0 1 .04.22l-.36.62a.52.52 0 0 0-.06.39l.1.4a.16.16 0 0 0 .2.12l.07-.04.85-.85a.08.08 0 0 1 .12 0l.01.04c.05.23.03.38-.04.45a.08.08 0 0 0 .06.13l.47-.03a.13.13 0 0 0 .12-.12c0-.27.17-.42.52-.44a.07.07 0 0 0 .06-.04v-.03a.05.05 0 0 0-.02-.04.05.05 0 0 0-.03 0l-.52.1a.3.3 0 0 1-.3-.11 1.3 1.3 0 0 0-.44-.33.08.08 0 0 1-.04-.1 5.2 5.2 0 0 1 .94-.6c.08-.04.14-.05.19-.02.03.01.06.03.08.06a.2.2 0 0 1 .03.1c0 .04-.01.08-.03.11a.27.27 0 0 1-.08.1c-.18.14-.33.22-.45.26a.08.08 0 0 0 .02.14c.07 0 .17-.03.3-.1.6-.29 1.13-.43 1.63-.44.04.25-.2.39-.7.42a.1.1 0 0 0-.08.06.1.1 0 0 0 .02.1l1.04 1.03a.17.17 0 0 1 .04.16.17.17 0 0 1-.1.12 5.38 5.38 0 0 0-1.52.96.05.05 0 0 0 .02.05l.02.01c.61.06 1.22.02 1.84-.11l.01.18c.02.07.05.11.1.13.09.03.19 0 .3-.07.1.37.27.7.51.96a.06.06 0 0 1-.03.09h-.04c-.23-.13-.44-.3-.66-.5a.34.34 0 0 0-.4-.07c-.18.1-.32.22-.43.38l-.32.16.04-.68a.1.1 0 0 0-.02-.07.11.11 0 0 0-.07-.04l-.19-.03-.62.4-.83 1.19a.12.12 0 0 1-.14.05.12.12 0 0 1-.08-.12c0-.43-.56-.69-.9-.58-.13.04-.3.19-.5.45-.2.27-.44.56-.74.9-.16.19-.53.4-1.1.64a.14.14 0 0 0-.09.13 5.3 5.3 0 0 0 1.16 3.33.13.13 0 0 1-.13.14c-.45-.01-.92.1-1.42.35a.47.47 0 0 0-.27.4 8.02 8.02 0 0 1-.33 2.14c-.43 1.37.13 2.2.86 3.34.23.35.48.4.75.15.78-.74 1.37-1.86 2.04-2.6a59.58 59.58 0 0 1 2.8-2.89c.2-.18.37-.46.58-.68l.11-.08.64-.45a.34.34 0 0 0 .13-.35l-.2-.84c.28.56.53 1.35 1 1.65.5.31.9.65 1.24 1.03a.4.4 0 0 0 .6 0v-.01a.41.41 0 0 0-.09-.63l-.84-.5a.16.16 0 0 1 0-.28l1.26-.65a.59.59 0 0 0-.07.4.13.13 0 0 0 .13.1c.51 0 .77-.18 1.26-.47.17-.1.35-.16.55-.19a6.81 6.81 0 0 0 1.95-.55c.04.14.13.2.27.17.04-.01.07-.04.1-.07.06-.09.1-.19.12-.3l-.11.58a8.8 8.8 0 0 1-1.9.99.15.15 0 0 1-.13 0 .08.08 0 0 1-.04-.08l.01-.05a.1.1 0 0 1 .04-.03l.17-.1a.13.13 0 0 0-.12-.22c-.68.11-1.3.39-1.84.83a.24.24 0 0 0 .17.43l.22-.02c.03 0 .07.01.1.04.02.02.04.05.05.09.15 1.36.17 2.74.04 4.13-.14.06-.21.01-.22-.14-.05-.98-.14-1.97-.25-2.98a.22.22 0 0 0-.2-.19c-1.1-.05-1.3.62-1.71 1.58a14.25 14.25 0 0 0-.65 1.78l-.6 1.21a.24.24 0 0 0 .01.23c.3.5.31 1.02.06 1.6a.16.16 0 0 1-.26.03.16.16 0 0 1-.04-.1l-.03-.57a.12.12 0 0 0-.04-.08.12.12 0 0 0-.1-.03c-.09 0-.16.04-.22.12a7.95 7.95 0 0 0-1 1.86c-.13.35-.35.53-.65.55a4 4 0 0 0-.56.06c-2.16.47-3.3.61-4.98-.88a72.2 72.2 0 0 0-1.5-1.28.22.22 0 0 0-.35.11l-.31 1.3c-.75-.6-1.4-1.27-1.94-1.98.19-.47.27-.94.26-1.42.16-.24.25-.4.28-.46.41-.86.8-1.77 1.15-2.72.2.05.36-.01.47-.19.29-.46.27-.99-.06-1.57l-.18-.6.8.05.23 1.57a.15.15 0 0 0 .15.13.16.16 0 0 0 .17-.12c.28-1.27.67-2.44.7-3.51.03-.93.03-1.5 0-1.73-.12-.75-.13-1.6-.03-2.55.01-.18.09-.29.22-.33-.01.1 0 .17.03.22.05.05.12.06.21.03.28-.1.5-.12.64-.1a.04.04 0 0 1 .04.04.04.04 0 0 1-.02.04l-.76.76a.78.78 0 0 0-.23.5l-.07.77a.1.1 0 0 0 .07.1.1.1 0 0 0 .12-.03l2.13-2.81a.2.2 0 0 0 .03-.2.21.21 0 0 0-.14-.13l-1.28-.35a.22.22 0 0 0-.26.12.22.22 0 0 0-.02.1c0 .25-.07.5-.22.73a3.83 3.83 0 0 0-.32-1.72.45.45 0 0 1 0-.38c.18-.37.3-.81.37-1.34a5 5 0 0 0-.12-1.37 8.63 8.63 0 0 1 .19-3.7c.1-.39.32-.83.66-1.32.7-.14 1.41.12 2.13.79.5.46.88.9 1.13 1.32.3.5.63 1.03 1 1.6.23.36.56.59.97.67.4.09.69-.04 1.06-.08l.17.01c.3.09.5.27.56.56a.17.17 0 0 0 .15.13c.32.03.85.03 1.57.02.3-.01.45-.18.54-.4a.3.3 0 0 1 .18-.17.27.27 0 0 1 .23.04c.1.06.22.11.38.14Z" fill="#574D48"/><path d="M20.9 14.75c-.33.49-.55.93-.65 1.33a8.63 8.63 0 0 0-.19 3.7 5 5 0 0 1 .12 1.36c-.07.53-.2.97-.37 1.34a.46.46 0 0 0 0 .38c.23.49.33 1.06.32 1.72-.1.03-.19.1-.27.2-.13.05-.2.17-.23.34-.1.95-.08 1.8.03 2.55.04.22.04.8 0 1.73-.03 1.07-.41 2.24-.7 3.51a.16.16 0 0 1-.26.09.15.15 0 0 1-.05-.1l-.23-1.57.26-.17a.2.2 0 0 0 .07-.08c.08-.15.04-.27-.12-.34.1-.01.17-.04.23-.1a.17.17 0 0 0 .05-.1.17.17 0 0 0-.04-.13c-.4-.47-.91-.75-1.54-.84l.67-.3 1.42-.22a.27.27 0 0 0 .22-.35c-.12-.38-.2-.77-.23-1.16-.02-.38-.1-.67-.24-.89-.16-.27-.4-.48-.68-.63-.02-.01-.01-.07.01-.19l.64.12a.1.1 0 0 0 .12-.12.1.1 0 0 0-.03-.06.63.63 0 0 0-.33-.17c-.56-.11-.95-.2-1.17-.27-2.15-.61-3.55-1.02-4.72-1.2-.07 0-.11 0-.14.04-.02.03-.02.07 0 .13h-.43c-.08-.21-.05-.4.1-.53a.25.25 0 0 0 .06-.23c-.03-.19 0-.35.1-.48a2 2 0 0 0 .21-.37c.23-.55.46-1.18.69-1.9a21.23 21.23 0 0 1 3.94 3.06l1.14.73a.08.08 0 0 1-.05.14 58.15 58.15 0 0 1-5.65-1.49.1.1 0 0 0-.06.03l-.02.04-.02.08a.12.12 0 0 0 0 .1.13.13 0 0 0 .09.05l6.05 1.65a.15.15 0 0 0 .17-.08.15.15 0 0 0 .02-.07l-.05-1.45c.25.08.44.08.57 0a.23.23 0 0 0 0-.42l-.52-.21a46153 46153 0 0 1-3.95-2.96c-.3-.22-.55-.23-.76 0a.58.58 0 0 1-.25-.42c.13-.22.26-.36.39-.42l1.6.86 3.2 1.32c.06.02.1.06.14.1l.2.22a.07.07 0 0 0 .07.03.07.07 0 0 0 .05-.06l.18-.88a.3.3 0 0 0 0-.16 6.2 6.2 0 0 1-.12-3.6 3.3 3.3 0 0 1 .3-1.46c.1-.26.33-.52.65-.77Z" fill="#898991"/><path d="M29.47 22.09a.94.94 0 0 1-.4.3 4.15 4.15 0 0 1-1.4-1.38.3.3 0 0 0-.23-.14.3.3 0 0 0-.26.11c-.19.23-.42.4-.72.52a.16.16 0 0 0-.1.14.15.15 0 0 0 .08.14l.36.2-.17.71a.08.08 0 0 0 .1.1l.62-.15h.05a.08.08 0 0 1 .02.13l-.52.48-.03.01c-.16.07-.34-.04-.55-.32a.3.3 0 0 1-.06-.11L26 21.49c-.5 0-1.04.16-1.62.45a.71.71 0 0 1-.31.1.07.07 0 0 1-.07-.07l.01-.05.04-.03c.12-.04.27-.12.45-.26a.27.27 0 0 0 .08-.1.24.24 0 0 0 .02-.1.2.2 0 0 0-.02-.1.17.17 0 0 0-.08-.07c-.05-.03-.11-.02-.19.02a5.22 5.22 0 0 0-.94.6v.03a.09.09 0 0 0 .04.07c.2.1.34.2.45.33a.3.3 0 0 0 .29.1l.52-.1a.05.05 0 0 1 .05.05.06.06 0 0 1-.06.07c-.35.02-.52.17-.52.44 0 .03-.01.06-.03.08a.13.13 0 0 1-.09.04l-.47.03a.08.08 0 0 1-.08-.1s0-.02.02-.03c.07-.07.09-.22.04-.45a.08.08 0 0 0-.1-.06.08.08 0 0 0-.03.02l-.85.85a.16.16 0 0 1-.16.04.16.16 0 0 1-.1-.11l-.1-.41a.52.52 0 0 1 .05-.39l.36-.63a.17.17 0 0 0 .02-.11.17.17 0 0 0-.06-.1l-.53-.4a.05.05 0 0 1 .02-.1l.5-.12a.07.07 0 0 0-.01-.14l-1.16-.17c-.01 0-.03 0-.04-.02a.07.07 0 0 1 0-.08l.03-.03.56-.24a.1.1 0 0 0 .06-.1.1.1 0 0 0-.02-.04l-.08-.15a.18.18 0 0 1-.03-.1v-.92a.25.25 0 0 0-.07-.18l-.28-.27a.4.4 0 0 1-.02-.54c.39-.47.46-1 .22-1.59a.16.16 0 0 1 .02-.15c.17-.22.4-.33.7-.34a.18.18 0 0 1 .2.19v1.04a.12.12 0 0 0 .04.09.12.12 0 0 0 .09.03c.28-.02.57.01.88.09a.1.1 0 0 1 .03.17l-.22.13a.11.11 0 0 0-.02.18l.06.04a.08.08 0 0 1 .02.12l-.27.34a.18.18 0 0 0-.03.05c-.2.53-.09.86.32 1a.14.14 0 0 1 .08.19.14.14 0 0 1-.05.06l-.46.26a.07.07 0 0 0 .05.12l.44-.1a.43.43 0 0 1 .4.1l.34.35.02.01c.25.13.4-.18.65-.21.4-.06.7-.22.9-.5a.32.32 0 0 1 .24-.13l1.23-.07a.13.13 0 0 1 .13.1.13.13 0 0 1-.07.15l-2.4 1.02a.08.08 0 0 0-.02.14c.3.26.95.14 1.35.1a.88.88 0 0 0 .35-.13c.58-.35 1.62-.86 2.26-.66a.26.26 0 0 1 .19.22.26.26 0 0 1-.13.25l-.42.24a.11.11 0 0 0-.05.08.1.1 0 0 0 .02.09l.9 1.08ZM39.76 21.41l-.64.55-.98-4.77a.13.13 0 0 1 .07-.15l.06-.01h.06a.11.11 0 0 1 .11.08c.32.97.57 2 .77 3.1.05.32.24.72.55 1.2Z" fill="#847671"/><path d="M15.1 18.38c.58.32 1.07.78 1.48 1.39a.12.12 0 0 1-.02.16c-.07.05-.17.08-.32.08l-1.6-.86.47-.77Z" fill="#A5D3F9"/><path d="M41.17 18.86c.77 1.11 1.4 2.3 1.86 3.58v.13c-.06-.3-.25-.41-.56-.33a12.13 12.13 0 0 1-1.85.32.09.09 0 0 1-.03-.02c-.03-.04-.04-.07-.03-.1.18-.1.31-.17.41-.2a.36.36 0 0 0 .2-.5.36.36 0 0 0-.14-.15c-.37-.21-.71-.09-1.03.38l-.92.54a.14.14 0 0 1-.2-.07.13.13 0 0 1 0-.07c.02-.14.1-.28.24-.41l.64-.55 1-.73a.15.15 0 0 0 .06-.13.16.16 0 0 0-.08-.13l-1.06-.61a.15.15 0 0 1-.07-.17c0-.03.02-.06.05-.08a.15.15 0 0 1 .1-.03h.83a.11.11 0 0 0 .1-.06.11.11 0 0 0 0-.1.74.74 0 0 1-.14-.39.13.13 0 0 1 .04-.09.13.13 0 0 1 .09-.04h.5Z" fill="#6D7D1D"/><path d="M14.25 19.57c.02.17.1.3.25.41l4.66 3.6.05 1.45a.15.15 0 0 1-.06.12.15.15 0 0 1-.13.03l-6.05-1.65a.13.13 0 0 1-.1-.1v-.05l.03-.08a.09.09 0 0 1 .04-.05.1.1 0 0 1 .08-.01 58.14 58.14 0 0 0 5.66 1.47.08.08 0 0 0 .04-.1.08.08 0 0 0-.03-.03l-1.15-.73a21.23 21.23 0 0 0-3.94-3.05l.65-1.23Z" fill="#514D50"/><path d="m19.16 23.58-4.66-3.6c.21-.22.46-.21.76.01a34394.9 34394.9 0 0 0 3.95 2.96l.51.21a.23.23 0 0 1 .11.34.23.23 0 0 1-.1.08c-.13.08-.32.08-.57 0Z" fill="#B1B9C6"/><path d="M33.38 20.94c.16.12.37.18.63.17a.4.4 0 0 1 .3.11l.62.63a.21.21 0 0 1-.09.35c-.15.05-.28.02-.38-.1a1.1 1.1 0 0 0-.44-.59.12.12 0 0 0-.19.1c0 .03.01.06.03.08.12.14.2.32.26.56a.16.16 0 0 1-.03.14.17.17 0 0 1-.13.06c-.06 0-.1 0-.14-.02a.24.24 0 0 1-.1-.11c-.23-.47-.73-.9-1.52-1.66h-.08a.09.09 0 0 0-.06.06.08.08 0 0 0 .01.08c.3.32.6.62.9.91.08.06.08.13.02.2-.04.06-.1.07-.17.05-.27-.1-.49-.27-.66-.48a6.98 6.98 0 0 0-1.53-1.45.1.1 0 0 1 .1-.13l.77.03c.05 0 .1.01.16.04l1.72.97Z" fill="#ABA9A8"/><path d="m32.64 22.27.04-.07a.07.07 0 0 1 .12.02l.36.85a.14.14 0 0 1 0 .12c-.16.3-.35.41-.6.37a.31.31 0 0 1-.18-.1l-.8-.98c-.29-.66-.3-1.2-1.03-1.67a9.26 9.26 0 0 0-.98-.57.12.12 0 0 1 0-.14.12.12 0 0 1 .07-.04c.32-.12.61-.05.87.2.24.26.57.55.97.88.17.15.33.44.47.88.1.31.33.4.69.25Z" fill="#847671"/><path d="M30.98 21.93a.96.96 0 0 1-.58.5.13.13 0 0 1-.15-.05l-.27-.37-.6-1.17a.18.18 0 0 1 .03-.2.18.18 0 0 1 .19-.06c.68.2 1.27.52 1.38 1.35Z" fill="#898991"/><path d="M34.46 22.1c.04.23.03.44-.03.65-.01.05-.01.1.01.15.04.1.1.17.2.26-.78.19-1.05.56-.82 1.12l.05.08.4.47a.17.17 0 0 0 .24.01.17.17 0 0 0 .05-.07c.09-.23.12-.39.11-.48a.2.2 0 0 0-.14-.17l-.4-.13a.09.09 0 0 1-.07-.07.09.09 0 0 1 .05-.09c.28-.14.5-.14.68 0 .08.29.36.52.4.72.06.37-.08.7-.43.98a.06.06 0 0 0 .03.12c.44.07.71-.46.68-.86a.11.11 0 0 1 .1-.12h.05c.36.1.66.32.88.65a.1.1 0 0 1-.02.14.1.1 0 0 1-.05.02c-.5.03-.91.26-1.21.68a.14.14 0 0 0-.01.15c.1.2.25.38.46.51l.02.03a.08.08 0 0 1-.03.1c-.25.12-.52.15-.8.09l-3.12-1-1-.9a.2.2 0 0 1-.05-.06l-.59-1.29-.01-.02c-.33-.5-.8-.76-1.4-.8-.95-.07-1.65.37-2.11 1.32a6.17 6.17 0 0 1-1.86.1l-.02-.02a.05.05 0 0 1 .01-.06 5.38 5.38 0 0 1 1.58-.98.17.17 0 0 0 .03-.16.17.17 0 0 0-.04-.07l-1.04-1.02a.1.1 0 0 1-.02-.1.1.1 0 0 1 .08-.07c.5-.03.74-.17.7-.42l.27 1.34c0 .04.02.08.05.11.2.28.4.39.55.32.01 0 .02 0 .03-.02l.52-.47a.08.08 0 0 0-.02-.13h-.05l-.62.15a.08.08 0 0 1-.1-.1l.17-.7c.67.07 1.3.24 1.93.49.09.04.17.05.23.05.13 0 .17-.04.12-.13a.93.93 0 0 0 .4-.31c.23.34.34 1.04.88.98a.12.12 0 0 0 .1-.14.12.12 0 0 0-.03-.05 1.76 1.76 0 0 1-.45-.87l.27.37a.13.13 0 0 0 .15.04c.27-.1.47-.26.58-.49.02.15.05.3.1.46.07.2.24.23.5.1l.8.96c.05.06.11.1.18.11.25.04.44-.08.6-.37a.14.14 0 0 0 0-.12l-.36-.85a.07.07 0 0 0-.06-.04.07.07 0 0 0-.06.02.15.15 0 0 0-.04.07c-.17-.24-.45-.38-.48-.8.17.22.4.38.66.49.07.02.13 0 .17-.05.06-.07.06-.14-.01-.2a13.75 13.75 0 0 1-.93-.95v-.04a.09.09 0 0 1 .07-.06h.08c.8.76 1.3 1.19 1.52 1.66.03.05.06.09.1.1a.26.26 0 0 0 .21.01.17.17 0 0 0 .1-.1v-.08a1.26 1.26 0 0 0-.27-.56.12.12 0 0 1 .07-.2c.03 0 .06 0 .09.02.22.15.37.35.44.6Z" fill="#696868"/><path d="M29.08 22.4c.05.09.01.13-.12.13a.64.64 0 0 1-.23-.05 7.34 7.34 0 0 0-1.93-.5l-.36-.2a.15.15 0 0 1-.08-.14.16.16 0 0 1 .1-.14c.3-.12.54-.3.72-.52a.3.3 0 0 1 .5.03c.34.56.8 1.02 1.4 1.39Z" fill="#292621"/><path d="M40.56 22.43c-.06.02-.09.07-.1.14a.12.12 0 0 0 .04.09c.55.59 1 1.24 1.32 1.97a.17.17 0 0 1-.06.2c-.37.26-.75.54-1.15.85-.04.03-.13.03-.27 0a10 10 0 0 1-.47-2.85l.13-.86c.32-.47.66-.6 1.03-.38a.36.36 0 0 1-.06.65c-.1.03-.23.1-.4.2Z" fill="#ABA9A8"/><path d="M21.48 23.37v.02l-.03.01h-.02a.54.54 0 0 1-.4-.18.67.67 0 0 1-.16-.45v-.32c0-.17.06-.33.16-.45s.25-.18.4-.18h.04l.01.03v1.52ZM43.02 22.57l.44 1.49v.02c.05.43.16.83.33 1.2a.38.38 0 0 1-.09.45.38.38 0 0 1-.14.08l-.65.21-.47.09a2.8 2.8 0 0 0-1.47.25.4.4 0 0 1-.47-.08l-.4-.42a.48.48 0 0 1-.1-.2l.34.03c.14.02.23.02.27-.01.4-.31.78-.6 1.15-.84a.17.17 0 0 0 .06-.21 7.19 7.19 0 0 0-1.35-2.01v-.05c0-.07.03-.11.1-.14-.02.04-.01.07.02.11l.03.02h.04c.6-.06 1.21-.17 1.8-.32.32-.08.5.02.56.33Z" fill="#847671"/><path d="M43.98 28.98c-.5.03-.95.23-1.36.6l-.27.01c.02-.12-.04-.19-.17-.2-.04 0-.09.01-.13.03-.22.1-.36.1-.44-.04a.1.1 0 0 1 .04-.13l.34-.2a.1.1 0 0 0-.01-.17c-.41-.16-.69-.5-.84-1.02a.22.22 0 0 1 .18-.28c.05 0 .09 0 .13.02.7.3 1.49.59 2.15.28a.17.17 0 0 0-.05-.33l-1.95-.29a.22.22 0 0 1-.14-.08l-.09-.1 2-.71a.08.08 0 0 0 .03-.14.08.08 0 0 0-.05-.02.77.77 0 0 1-.44-.19l.65-.21a.39.39 0 0 0 .26-.37c0-.05 0-.1-.03-.15a3.74 3.74 0 0 1-.33-1.23l-.44-1.5.01-.12c.27.68.48 1.36.65 2.07.14.58.22 1.3.24 2.14l.06 2.33Z" fill="#6B6835"/><path d="m31.74 26.03-.33 1.02a.11.11 0 0 1-.11.07.11.11 0 0 1-.1-.08l-.29-1.18a.27.27 0 0 0-.33-.2l-1 .29-.89.03-.01-.01-.01-.05v-.03a.06.06 0 0 1 .02-.04h.02c.77-.14 1.26-.95.73-1.62-.49-.62-1.62-.49-2.2-.1-.18.11-.26.24-.25.4-.11.08-.21.1-.3.07-.05-.02-.08-.06-.1-.13a.45.45 0 0 1-.01-.18c.46-.95 1.16-1.39 2.1-1.32a1.75 1.75 0 0 1 1.42.82l.6 1.29a.2.2 0 0 0 .05.07l.99.88Z" fill="#151311"/><path d="M19.86 24.79a.48.48 0 0 1 .27-.2c.15-.25.22-.49.22-.74a.22.22 0 0 1 .08-.18.22.22 0 0 1 .2-.04l1.28.35a.21.21 0 0 1 .14.13.2.2 0 0 1-.03.2l-2.13 2.8a.1.1 0 0 1-.2-.06l.08-.78c.01-.18.1-.35.23-.49l.76-.76.02-.02a.04.04 0 0 0-.02-.04l-.02-.01a1.4 1.4 0 0 0-.64.09c-.1.03-.16.02-.2-.03-.04-.05-.05-.12-.04-.22ZM35.28 23.67c-.14.27.1.5.71.73.27.19.54.4.8.62.06.06.1.12.11.2l-.01.1a.37.37 0 0 0-.05.16l-.17 2.18a.09.09 0 0 1-.14.06.21.21 0 0 1-.08-.15.3.3 0 0 0-.19-.24.27.27 0 0 0-.29.05c-.7.66-1.01 1.7-1.02 2.63l-.03.1-.1-.31a.1.1 0 0 0-.11-.07.1.1 0 0 0-.05.02.68.68 0 0 0-.2.28l.12-.59c.06-.48-.1-.84-.5-1.08.32-.01.52-.13.6-.34a.14.14 0 0 0-.1-.2l-1.36-.27-1.14-.37a.28.28 0 0 1-.18-.35.28.28 0 0 1 .08-.12c.1-.08.21-.14.36-.18a.3.3 0 0 1 .17.01c.78.3 1.49.62 2.35.5.28.06.55.03.8-.08a.08.08 0 0 0 .03-.1.07.07 0 0 0-.02-.04c-.2-.13-.36-.3-.46-.51a.14.14 0 0 1 0-.15c.3-.42.71-.65 1.22-.68a.1.1 0 0 0 .08-.06.1.1 0 0 0 0-.1 1.56 1.56 0 0 0-.89-.65.11.11 0 0 0-.1.02.11.11 0 0 0-.05.1c.03.4-.24.93-.68.86a.06.06 0 0 1-.06-.05.06.06 0 0 1 .03-.07c.35-.28.5-.6.43-.98-.04-.2-.32-.43-.4-.71l.09.06a.07.07 0 0 0 .06.02.07.07 0 0 0 .04-.05c.05-.1.15-.18.3-.2Z" fill="#292621"/><path d="M29.59 25.95c.08 0 .12.02.13.02a.22.22 0 0 1 .02.35.21.21 0 0 1-.12.05c-.47.03-1.16-.17-2.29-.36-.5-.1-.96-.3-1.39-.62.11-.16.25-.28.43-.38a.35.35 0 0 1 .4.06 3.18 3.18 0 0 0 .7.51.06.06 0 0 0 .03-.09c-.24-.27-.4-.59-.5-.96-.02-.16.06-.29.24-.4.58-.39 1.71-.52 2.2.1.53.67.04 1.48-.72 1.61l-.03.01a.06.06 0 0 0-.02.07v.05h.02l.9-.02Z" fill="#6A7668"/><path d="M28.64 24.35c.07.18.02.39-.15.63a.21.21 0 0 1-.34 0c-.1-.12-.16-.24-.2-.35a1.6 1.6 0 0 1-.1-.4A.2.2 0 0 1 28 24h.1c.29.06.47.17.54.35Z" fill="#151311"/><path d="M32.02 25.47v.03c-.14.1-.32.1-.51.02a1.18 1.18 0 0 1-.51-.42l-.05-.07c-.06-.1-.12-.2-.16-.3l-.06-.33c0-.1.02-.19.05-.27a.43.43 0 0 1 .15-.19h.02a.02.02 0 0 1 .01 0l1.06 1.53Z" fill="#898991"/><path d="m18.5 25.83-1.12-.32-3.86-.94-.66-.27c-.01-.06 0-.1.01-.13.03-.03.07-.04.14-.03 1.17.17 2.57.58 4.72 1.2.22.06.61.15 1.17.26.15.04.26.1.33.17a.1.1 0 0 1-.1.18l-.62-.12Z" fill="#504B2B"/><path d="m37 25.3-.1-.08a.32.32 0 0 0-.11-.2 9.4 9.4 0 0 0-.8-.62c.48-.32.93-.23 1.34.28.22.29.02.6-.33.62Z" fill="#8B982E"/><path d="m12.86 24.3.66.27.1 2.45a.16.16 0 0 1-.1.15c-.02 0-.05.01-.07 0L12 27.04c.02-.93.17-1.84.44-2.73h.42Z" fill="#A5D3F9"/><path d="M17.38 25.51a6.4 6.4 0 0 0-.24 1.84.31.31 0 0 0 .26.3l.96.15a.19.19 0 0 0 .21-.14v-.1c-.15-.48-.18-1-.08-1.54.29.15.52.36.68.63.14.22.22.51.24.88.03.4.1.79.23 1.17a.27.27 0 0 1-.11.3.28.28 0 0 1-.11.05l-1.42.23a5.39 5.39 0 0 0-2.66-.22.13.13 0 0 0-.09.1.13.13 0 0 0 .04.13c.06.04.1.05.12 0-.03.12-.04.2 0 .24a.32.32 0 0 0-.2.08c-.05.04-.07.1-.06.18.05.36.05.72 0 1.07a.22.22 0 0 0 .06.18l.06.06c-.01.1.08.24.27.4 0 .18.02.35.06.52.11.52 0 1.1 0 1.63l-2.38.35-.05-.11a.18.18 0 0 1 .08-.03.15.15 0 0 0 .1-.08c.35-.66.2-1.87.17-2.6a.23.23 0 0 0-.08-.16c-.33-.26-.7-.4-1.1-.43a.12.12 0 0 0-.13.14l.01.08-.12-.2a.1.1 0 0 1-.01-.06L12 27.03l1.45.15a.15.15 0 0 0 .16-.1l.01-.06-.1-2.45 3.86.94Z" fill="#B37B66"/><path d="m25.62 25.55.04.72a.21.21 0 0 0 .09.16l.74.56a.06.06 0 0 1 .03.06l-.02.03-.03.02-.72.17a.28.28 0 0 1-.23-.04.66.66 0 0 0-.26-.12.12.12 0 0 0-.12.07.11.11 0 0 0 .04.14l.66.46-1.1.17a.41.41 0 0 0-.35.35l-.01.11a.19.19 0 0 0 .15.22.2.2 0 0 0 .1-.01c.62-.21 1.7-.46 2.34-.22a.06.06 0 0 1 .02.1l-.03.02-.71.2a4.56 4.56 0 0 1-3.85 1.65.2.2 0 0 1-.19-.1l-.45-.78a.12.12 0 0 1 .02-.15.11.11 0 0 1 .05-.02l1.04-.25c.05-.01.1-.05.14-.1l.64-.89a.27.27 0 0 1 .05-.05c.63-.46 1.42-1.33 1.53-2.08a3.69 3.69 0 0 1 .34-1.12.08.08 0 0 0-.06-.08l-.13-.02.2.03c.02 0 .04.02.06.04a.1.1 0 0 1 .02.07l-.04.68Z" fill="#403E2D"/><path d="m25.38 24.73.13.02a.08.08 0 0 1 .05.04l.01.04v.04c-.17.34-.28.7-.34 1.08-.1.75-.9 1.62-1.53 2.08a.27.27 0 0 0-.05.05l-.64.9a.24.24 0 0 1-.14.09l-1.04.25a.11.11 0 0 0-.08.06.12.12 0 0 0 0 .1l.46.78a.2.2 0 0 0 .19.1 4.56 4.56 0 0 0 2.58-.8 91.87 91.87 0 0 1 1.27-.84l.71-.2a.06.06 0 0 0 .05-.06.06.06 0 0 0-.04-.06c-.64-.24-1.72 0-2.35.22a.2.2 0 0 1-.23-.11.19.19 0 0 1-.01-.1l.01-.11a.41.41 0 0 1 .35-.35l1.1-.17c.38-.07.76-.06 1.16.01h.1l2.2-.29a.13.13 0 0 1 .1.22.96.96 0 0 0-.23.42c-.15.17-.23.25-.47.27-.26.03-.46.08-.62.14l-1.45.4a.28.28 0 0 0-.16.13c-.22.34-.5.6-.83.8a.36.36 0 0 0-.1.1l-.26.37a.16.16 0 0 0 .05.23c.02.02.05.02.08.02h1.22a.17.17 0 0 1 .17.13v.07c-.02.2-.11.4-.27.59l-.1.08c-.72.18-1.17.27-1.37.27-1.03.02-3.03-.54-3.63-1.58a2.56 2.56 0 0 1-.32-1.47.11.11 0 0 1 .07-.06h.04c1.14.08 1.28-.15 1.92-1.15l.03-.03.87-.77a5.08 5.08 0 0 0 .72-1.55l.62-.4Z" fill="#151311"/><path d="M24.76 25.13a5.08 5.08 0 0 1-.72 1.55l-.87.77a.21.21 0 0 0-.03.03c-.64 1-.78 1.23-1.92 1.15a.12.12 0 0 0-.08.02.11.11 0 0 0-.04.08c-.02.53.08 1 .33 1.43.6 1.04 2.6 1.6 3.63 1.58.2 0 .65-.1 1.36-.27-.2.22-.38.5-.58.68-.94.9-1.87 1.87-2.8 2.89-.67.74-1.26 1.86-2.04 2.6-.27.25-.52.2-.75-.15-.73-1.13-1.29-1.97-.86-3.34.2-.6.3-1.32.33-2.13a.47.47 0 0 1 .27-.41c.5-.24.97-.36 1.42-.35a.13.13 0 0 0 .11-.07.13.13 0 0 0 0-.14 5.3 5.3 0 0 1-1.12-3.34.14.14 0 0 1 .07-.05c.57-.24.94-.45 1.1-.64.3-.34.55-.63.74-.9.2-.26.37-.41.5-.45.34-.1.9.15.9.58a.12.12 0 0 0 .16.12l.06-.05.83-1.2Z" fill="#292621"/><path d="M37 25.3c-.08.14-.11.24-.1.3.08.4.07.78-.04 1.16a.86.86 0 0 0 .06.66c.38.73 1.05 1.11 1.98 1.14a.07.07 0 0 0 .07-.04.07.07 0 0 0 0-.08 1.9 1.9 0 0 1-.3-.77.13.13 0 0 0-.04-.1.19.19 0 0 0-.1-.03l.06-.03a.17.17 0 0 1 .12 0c.6.23 1.07.33 1.44.3.42-.01.83-.26 1.22-.73l.1.1c.03.05.08.07.13.08l1.95.3a.18.18 0 0 1 .15.14.17.17 0 0 1-.1.18c-.66.31-1.45.03-2.15-.28a.23.23 0 0 0-.3.14.22.22 0 0 0 0 .12c.14.52.42.86.83 1.02a.1.1 0 0 1 0 .17l-.33.2a.1.1 0 0 0-.04.13c.08.13.22.15.44.04a.27.27 0 0 1 .13-.03c.13.01.2.08.17.2-.12.43-.26.85-.4 1.27-.02.06-.01.1.03.12.03.02.08.03.14.02-.05.23-.13.42-.25.57a4.56 4.56 0 0 1-.2-1.59.16.16 0 0 0-.15-.1H39a.3.3 0 0 0-.28.21l-.17.6a.15.15 0 0 1-.14.1h-.48a.06.06 0 0 0-.05.03.06.06 0 0 0 0 .06l.6 1.02v.04l-.03.03-.93.54a.08.08 0 0 1-.05 0l-.04-.01-.98-.97a.33.33 0 0 1-.09-.33l.19-.66a.15.15 0 0 1 .17-.11l.71.1a.05.05 0 0 0 .05-.02l.01-.02v-.03l-.66-1.11a2.36 2.36 0 0 0-1.23-.18.11.11 0 0 0-.08.18c.05.07.1.07.15.03-.07.49-.3.7-.72.63 0-.92.32-1.97 1.02-2.63a.27.27 0 0 1 .3-.05c.04.02.08.05.12.1.03.04.05.09.06.14 0 .07.04.12.08.15a.09.09 0 0 0 .14-.06l.17-2.18c0-.06.02-.11.05-.16a.16.16 0 0 0 .01-.1l.1.08Z" fill="#7E8056"/><path d="M25.94 25.39c.43.32.89.53 1.4.62 1.12.2 1.8.4 2.28.36a.21.21 0 0 0 .1-.4l-.13-.02.99-.28a.27.27 0 0 1 .33.19l.29 1.18a.11.11 0 0 0 .21 0l.33-1 3.12 1c-.86.12-1.57-.2-2.34-.5a.3.3 0 0 0-.18 0 .83.83 0 0 0-.36.17.28.28 0 0 0 .1.47l1.14.37c-.15.04-.26.08-.32.12a.1.1 0 0 0-.04.07.1.1 0 0 0 .03.08c.11.11.25.21.4.28-.21.52-.6.7-1.16.56l-.09-.23c.2.04.35 0 .45-.1a.11.11 0 0 0 0-.15l-.76-.76a.15.15 0 0 0-.16-.03c-.13.04-.18.17-.33.2-.09.03-.2-.1-.34-.4a.22.22 0 0 0-.29-.1l-.76.32a.38.38 0 0 0-.17.15c-.14.22-.3.42-.5.58.04-.16.11-.3.23-.42a.13.13 0 0 0 .02-.15.13.13 0 0 0-.13-.07l-2.2.3H27c-.4-.08-.78-.09-1.16-.02l-.66-.46a.12.12 0 0 1-.04-.14.12.12 0 0 1 .12-.07c.07.01.16.05.26.12a.28.28 0 0 0 .23.04l.72-.17a.07.07 0 0 0 .04-.05.06.06 0 0 0-.02-.06l-.74-.56a.22.22 0 0 1-.09-.16l-.04-.72.32-.16Z" fill="#514D50"/><path d="M40 25.66c.01.08.05.15.1.2-.1 0-.12.05-.08.13.12.22.18.43.2.64a.13.13 0 0 0 .13.12c.78.03 1.48-.18 2.1-.64l.46-.09c.12.11.26.17.44.2a.08.08 0 0 1 .07.06l-.01.05a.08.08 0 0 1-.05.04l-1.99.7c-.4.48-.8.73-1.22.75-.37.02-.85-.08-1.44-.3a.17.17 0 0 0-.12 0l-.06.02a.8.8 0 0 1-.49-.12.13.13 0 0 1-.05-.14l.31-1.15a.16.16 0 0 1 .14-.11.16.16 0 0 1 .15.07l.23.39a.35.35 0 0 0 .3.17h.75a.14.14 0 0 0 .14-.12c0-.03 0-.05-.02-.07l-.4-.94a.1.1 0 0 1 .07-.14.1.1 0 0 1 .05 0c.11.04.2.13.28.28Z" fill="#8B982E"/><path d="m17.38 25.51 1.12.32c-.02.12-.03.18-.01.19-.1.54-.07 1.06.08 1.55a.18.18 0 0 1-.21.23l-.96-.14a.31.31 0 0 1-.26-.3c0-.7.08-1.3.24-1.85Z" fill="#A5D3F9"/><path d="m40.1 25.86.4.42a.4.4 0 0 0 .47.08c.46-.21.95-.3 1.47-.25-.61.46-1.3.67-2.09.64a.13.13 0 0 1-.12-.12 1.72 1.72 0 0 0-.2-.64c-.05-.08-.02-.12.06-.13Z" fill="#504B2B"/><path d="M32.04 28.43a2.9 2.9 0 0 0-1.03-.16c-.37.1-.75.15-1.11.18a.56.56 0 0 0-.22.07c-.33.17-.61.44-.84.8a.12.12 0 0 1-.05.04l-.4.2a.15.15 0 0 0-.07.06.15.15 0 0 0-.02.1c.02.2.08.36.19.46a.16.16 0 0 0 .26-.05 2.4 2.4 0 0 1 1.85-1.5l1.53.03c.56.15.95-.04 1.15-.56l.8.26c.4.24.57.6.5 1.08a.75.75 0 0 1-.12.3.16.16 0 0 1-.1.08c-.14.03-.23-.03-.27-.17l.2-.25a.05.05 0 0 0 0-.06.05.05 0 0 0-.07-.01l-.64.23c-.1.04-.2.07-.32.08-1.06.12-1.98.15-3 .72l-1.25.65a.16.16 0 0 0-.09.14.16.16 0 0 0 .09.14l.84.5a.41.41 0 0 1 .1.63h-.01a.4.4 0 0 1-.6 0 6.1 6.1 0 0 0-1.23-1.02c-.48-.3-.73-1.1-1-1.65 0-.35.33-.75.97-1.2.16-.06.36-.1.61-.14.25-.02.33-.1.48-.27.2-.16.37-.36.5-.58.05-.06.1-.11.18-.15l.76-.32a.22.22 0 0 1 .3.1c.13.3.24.43.33.4.15-.03.2-.16.33-.2a.15.15 0 0 1 .16.03l.76.76a.11.11 0 0 1 0 .15c-.1.1-.25.14-.45.1Z" fill="#847671"/><path d="m32.04 28.43.1.23-1.54-.03h-.12a2.4 2.4 0 0 0-1.73 1.5.16.16 0 0 1-.26.05.75.75 0 0 1-.19-.47c0-.03 0-.06.02-.09a.15.15 0 0 1 .06-.06l.41-.2a.12.12 0 0 0 .05-.04c.23-.36.5-.63.84-.8a.56.56 0 0 1 .22-.07c.36-.03.74-.09 1.11-.18.15-.03.5.02 1.03.16ZM28.08 28.55c-.64.45-.97.85-.98 1.2l.2.84a.34.34 0 0 1-.13.35l-.64.45c.16-.2.25-.39.27-.6a.17.17 0 0 0-.17-.19h-1.22a.16.16 0 0 1-.13-.25l.26-.37a.36.36 0 0 1 .1-.1c.33-.2.6-.46.83-.8.04-.06.1-.1.16-.12l1.45-.41Z" fill="#403E2D"/><path d="M36.24 28.8c.22-.03.4-.1.39-.17 0-.07-.2-.1-.42-.08-.22.03-.4.1-.4.17.02.07.2.1.43.08Z" fill="#151311"/><path d="m18 29.28-.67.29-1.92-.28c-.03.05-.06.04-.12 0a.13.13 0 0 1 .05-.23c.78-.23 1.9 0 2.66.22Z" fill="#ABA9A8"/><path d="M33.2 29.02a.07.07 0 0 1 .07.04.07.07 0 0 1-.02.08.91.91 0 0 1-.52.2c-.34.03-.75.1-1.24.23-.1.02-.2.03-.29.02l-.3-.02-.07.01-1.3.52a.1.1 0 0 1-.11-.03.1.1 0 0 1-.02-.03c-.06-.14-.03-.24.08-.32 1.11-.84 2.48-.7 3.73-.7Z" fill="#151311"/><path d="M43.98 28.98c.03.22.03.4-.02.55-.46.17-.9.18-1.34.05.4-.37.86-.57 1.36-.6Z" fill="#ABA9A8"/><path d="M17.33 29.57c.63.1 1.14.37 1.54.84.03.03.05.08.05.12 0 .05-.03.09-.06.12a.37.37 0 0 1-.23.09l-2.25-.39a.44.44 0 0 1-.22-.11l-.76-.7c-.02-.05-.02-.13 0-.25l1.93.28Z" fill="#696868"/><path d="m41.87 31.57-.75 1.1a.06.06 0 0 0 .01.08l.03.01.14.04h.02l.02-.01 1.26-1.66a.16.16 0 0 0 .02-.06l.1-.42a.12.12 0 0 0-.08-.15.13.13 0 0 0-.16.06c-.1.17-.21.32-.36.44-.06 0-.1 0-.14-.02-.04-.02-.05-.06-.03-.12.14-.42.28-.84.4-1.27l.27-.01c.43.13.88.12 1.34-.05l-.1 1.02-.84-.28a.07.07 0 0 0-.1.07l.03.04c.15.16.29.37.4.63v.09l-.15.83a.06.06 0 0 1-.06.05.06.06 0 0 1-.05-.05.44.44 0 0 0-.22-.35.14.14 0 0 0-.19.04 7.5 7.5 0 0 1-.85 2.26.12.12 0 0 0 .05.16l.76.44a16.24 16.24 0 0 1-5.57 6.7c-.66.45-1.35.84-2.08 1.18-.22-.83-.38-1.93-1-2.55-.1-.3-.27-.55-.51-.75l.21-1.3a.2.2 0 0 0 0-.07l-.23-1.36.95.97a.1.1 0 0 0 .16-.06v-1.07a.22.22 0 0 1 .18-.22h.1l.55.15h.03a.05.05 0 0 0 .02-.07 1.5 1.5 0 0 0-.86-.7l.14-.41c.27-.27.28-.6.03-1a.14.14 0 0 1 0-.14.13.13 0 0 1 .11-.07c.72-.02 1.32.14 1.81.47a.1.1 0 0 0 .12 0 .1.1 0 0 0 .02-.12 5.25 5.25 0 0 1-.41-.82l-.14-.89c-.1-.57-.33-1-.71-1.3l.78-.88a.09.09 0 0 0 0-.11c-.07-.09-.2-.09-.38 0a.74.74 0 0 0-.2.2c-.24.3-.66.11-.84-.14l.03-.11c.41.07.65-.14.72-.63.5.15.89.14 1.16-.03l.66 1.1a.05.05 0 0 1 0 .06.05.05 0 0 1-.06.02l-.71-.1c-.04 0-.08 0-.1.02a.15.15 0 0 0-.07.09l-.19.66a.33.33 0 0 0 .1.33l.97.97.04.02h.05l.93-.55.03-.03v-.04l-.6-1.02a.06.06 0 0 1 .02-.08h.51a.15.15 0 0 0 .14-.12l.17-.59a.3.3 0 0 1 .28-.21h2.52a.16.16 0 0 1 .12.05.16.16 0 0 1 .04.11c-.03.5.04 1.02.19 1.53Z" fill="#504B2B"/><path d="m15.4 29.53.76.7c.06.07.14.1.22.12l2.25.39c.16.07.2.19.12.34a.2.2 0 0 1-.07.08l-.26.17-.8-.06a6.74 6.74 0 0 0-2.35-.17l-.06-.06a.21.21 0 0 1-.06-.18c.05-.35.05-.7 0-1.07-.01-.08 0-.14.06-.18a.32.32 0 0 1 .2-.08Z" fill="#B1B9C6"/><path d="M34.92 30.12c.18.25.6.45.84.14.09-.12.16-.19.2-.2.18-.09.3-.09.38 0a.09.09 0 0 1 0 .11l-.78.87c-.28.41-.5.79-.65 1.14-.18.41-.35.59-.67.8a.43.43 0 0 0-.2.32 1.7 1.7 0 0 1-.58 1.08c-.07.14-.15.25-.24.33a.07.07 0 0 1-.08.01c-.08-.03-.13-.14-.14-.32a.98.98 0 0 0-.38-.57l-.1-.45c.25-.34.57-.52.99-.55.1-.01.19-.05.26-.1.26-.22.51-.5.75-.87.12-.18.19-.4.22-.68a.21.21 0 0 0-.12-.22.22.22 0 0 0-.09-.02c-.37-.03-.71.03-1.04.26-.53.37-.88.73-1.07 1.07a.2.2 0 0 1-.3.06.19.19 0 0 1-.05-.1l-.1-.4a.16.16 0 0 0-.17-.12.16.16 0 0 0-.15.16l-.02 1-.02.14v.13c.47 1.4.93 2.84 1.36 4.33.3 1.01.33 1.44-.2 2.35a3.33 3.33 0 0 1-1.93 1.57.1.1 0 0 1-.07-.12c.2-.62.44-1.12.98-1.64a7 7 0 0 0 1.05-1.27.2.2 0 0 0-.22-.31l-1.28.3a.1.1 0 0 1-.09-.03.1.1 0 0 1-.03-.09c.18-.71.2-1.45.06-2.2.13-1.38.11-2.76-.04-4.12a.14.14 0 0 0-.15-.13l-.22.02a.25.25 0 0 1-.24-.16.24.24 0 0 1 .07-.27 3.86 3.86 0 0 1 1.84-.83.13.13 0 0 1 .12.22l-.17.1a.1.1 0 0 0-.05.08l.01.04.03.03c.04.02.09.03.13 0a8.8 8.8 0 0 0 1.9-.98.68.68 0 0 1 .2-.28.1.1 0 0 1 .08-.01.1.1 0 0 1 .06.06l.1.32Z" fill="#151311"/><path d="M43.86 30.55a19.87 19.87 0 0 1-1.22 3.93l-.76-.44a.12.12 0 0 1-.05-.16 7.5 7.5 0 0 0 .85-2.26.14.14 0 0 1 .12-.06c.02 0 .05 0 .07.02.12.07.2.19.22.35 0 .01 0 .03.02.04a.06.06 0 0 0 .1-.04l.14-.83V31c-.11-.26-.25-.47-.4-.63a.07.07 0 0 1 .03-.11h.04l.84.28Z" fill="#292621"/><path d="M41.87 31.57c.12-.15.2-.34.25-.57.15-.12.27-.27.36-.44a.13.13 0 0 1 .23 0v.09l-.09.42c0 .02 0 .04-.02.06l-1.26 1.66-.02.01h-.02l-.14-.04a.06.06 0 0 1-.04-.03v-.06l.75-1.1Z" fill="#898991"/><path d="m13.17 33.89-.08-.06a.25.25 0 0 1-.1-.14l-.77-2.88-.01-.08a.12.12 0 0 1 .08-.13l.05-.01c.4.03.77.17 1.1.43a.22.22 0 0 1 .08.17c.03.72.18 1.93-.17 2.6a.15.15 0 0 1-.1.08.18.18 0 0 0-.08.02Z" fill="#B1B9C6"/><path d="M32.52 33.38c-.53.02-.83-.15-.89-.52l.02-1a.16.16 0 0 1 .15-.15.16.16 0 0 1 .17.12l.1.4a.19.19 0 0 0 .16.15.2.2 0 0 0 .2-.1c.18-.35.53-.71 1.06-1.08.33-.23.67-.29 1.04-.26a.22.22 0 0 1 .2.15v.09c-.02.27-.1.5-.21.68-.24.36-.49.65-.75.86a.48.48 0 0 1-.26.1c-.42.04-.74.22-.99.56Z" fill="#696868"/><path d="m17.62 31.27.18.62c-.18-.04-.32.06-.41.3a.15.15 0 0 1-.15.08c-.13-.01-.24-.09-.34-.22a.09.09 0 0 0-.13 0l-.22.2a.2.2 0 0 1-.3 0 .2.2 0 0 1-.04-.11l-.06-.4a.24.24 0 0 0-.12-.18.72.72 0 0 0-.49-.05c-.2-.17-.28-.3-.27-.4.82-.09 1.6-.03 2.35.16Z" fill="#847671"/><path d="m34.73 34.92-.38-.6a.17.17 0 0 0-.3.01 2.77 2.77 0 0 0-.23 1.72.17.17 0 0 0 .14.13.18.18 0 0 0 .18-.08l.45-.78c.37.12.66.36.86.71a.05.05 0 0 1 0 .05.05.05 0 0 1-.05.02l-.54-.14a.23.23 0 0 0-.2.03.22.22 0 0 0-.1.18v1.07a.1.1 0 0 1-.05.08.1.1 0 0 1-.1-.02l-.95-.97-.27-1.02a.31.31 0 0 1 .01-.2l.26-.73c.34-.3.53-.66.58-1.08a.43.43 0 0 1 .2-.31c.32-.22.5-.4.67-.81.15-.35.37-.73.65-1.14.38.3.62.74.7 1.31l.15.9a5.24 5.24 0 0 0 .42.87.1.1 0 0 1-.15.06 2.96 2.96 0 0 0-1.88-.45.13.13 0 0 0-.06.12c0 .02 0 .05.02.07.25.4.24.73-.03 1Z" fill="#6B6835"/><path d="M28.44 34.58c-1.58.41-3.05.32-4.4-.26l2.47-2.52c.22-.23.46-.36.72-.4a.14.14 0 0 1 .14.07.14.14 0 0 1 0 .15c-.24.33-.55.6-.94.82a.14.14 0 0 0-.03.22c.46.39.6-.47 1.12-.06.36.28.79.33 1.28.15a.13.13 0 0 1 .17.09v.07l-.53 1.67Z" fill="#151311"/><path d="M17.8 31.89c.33.57.35 1.1.06 1.56-.11.18-.27.24-.47.2H15.6c0-.54.11-1.11 0-1.63a2.16 2.16 0 0 1-.06-.51.72.72 0 0 1 .49.05.24.24 0 0 1 .12.18l.06.4a.2.2 0 0 0 .25.17.2.2 0 0 0 .1-.05l.21-.22a.09.09 0 0 1 .13.01c.1.13.2.2.34.22a.15.15 0 0 0 .15-.09c.1-.23.23-.32.41-.3Z" fill="#B1B9C6"/><path d="M31.24 36.04a5.15 5.15 0 0 1-.05 2.24c0 .02 0 .03.02.04a.1.1 0 0 0 .1.03l1.27-.3a.2.2 0 0 1 .25.2.2.2 0 0 1-.03.1c-.3.47-.65.9-1.05 1.28a3.55 3.55 0 0 0-.98 1.69.1.1 0 0 0 .07.07 3.33 3.33 0 0 0 1.94-1.56c.52-.92.5-1.35.2-2.36a127.4 127.4 0 0 0-1.37-4.33.25.25 0 0 1 0-.13l.03-.15c.05.37.35.54.88.52l.1.45h-.07a.08.08 0 0 0-.06.1 2.04 2.04 0 0 0 .38.78.08.08 0 0 0 .07 0h.03c.06-.06.07-.16.03-.3.01.17.06.28.14.31h.04l.04-.01c.1-.08.17-.19.24-.33l-.26.74a.31.31 0 0 0 0 .19l.26 1.02.23 1.36a.2.2 0 0 1 0 .07l-.21 1.3c-.34.8-.7 1.41-1.1 1.84-1.13 1.25-3.2 1.36-4.82 1.15a.38.38 0 0 0-.22.04l-2.89 1.5a15.73 15.73 0 0 1-6.81-3.37l.31-1.3a.22.22 0 0 1 .15-.15.22.22 0 0 1 .2.04c.63.52 1.12.95 1.5 1.28 1.68 1.5 2.82 1.35 4.98.88a4 4 0 0 1 .56-.06c.3-.02.52-.2.65-.55.26-.67.6-1.3 1-1.86a.28.28 0 0 1 .23-.12l.09.03c.02.02.04.05.04.08l.03.58a.16.16 0 0 0 .13.14.16.16 0 0 0 .17-.09c.25-.57.23-1.1-.06-1.6a.24.24 0 0 1 0-.22l.59-1.21a14.25 14.25 0 0 1 .65-1.78c.42-.96.62-1.63 1.7-1.58a.22.22 0 0 1 .21.2c.11 1 .2 1.99.25 2.97 0 .15.08.2.22.14Z" fill="#292621"/><path d="M23.83 33.74a.18.18 0 0 1-.08.25.18.18 0 0 1-.09.01l-.61-.04a.42.42 0 0 1-.36-.26l-.31-.72a.09.09 0 0 1 0-.09.1.1 0 0 1 .1-.04c.62.07 1.08.37 1.35.9Z" fill="#151311"/><path d="M15.6 33.65h1.79c-.36.94-.74 1.85-1.15 2.71-.03.07-.12.22-.28.46-.36.05-.69.16-.98.33a.8.8 0 0 1-.25-.16 10.78 10.78 0 0 1-1.54-2.9c0-.04.02-.07.03-.1l2.38-.34Z" fill="#403E2D"/><path d="M32.63 33.83c.18.13.3.32.37.57.04.15.03.25-.03.3a.08.08 0 0 1-.1.01 2.04 2.04 0 0 1-.38-.78.08.08 0 0 1 .06-.1h.08Z" fill="#514D50"/><path d="M38.29 33.86a.1.1 0 0 1 .09.1v.18c-.01.22-.05.43-.1.59-.05.15-.12.24-.19.23h-.04c-.03 0-.06-.02-.1-.06a.6.6 0 0 1-.07-.19 2.54 2.54 0 0 1-.05-.59v-.18a.1.1 0 0 1 .1-.09l.36.01Z" fill="#7E8056"/><path d="m34.73 34.92-.14.4-.45.78a.18.18 0 0 1-.27.04.17.17 0 0 1-.05-.1 2.77 2.77 0 0 1 .23-1.71.17.17 0 0 1 .3-.02l.38.6ZM24.04 34.32c1.35.58 2.82.67 4.4.26l-.43.8a.73.73 0 0 0-.08.2c-.14.6-.4 1.17-.75 1.69-.62.9-1.03 1.6-1.27 2.57a.27.27 0 0 1-.25.2l-2.01.11c-.06 0-.12 0-.18-.02a1.54 1.54 0 0 1-.51-.35.23.23 0 0 0-.3 0 .84.84 0 0 1-.97.12.3.3 0 0 1-.14-.15L21 38.47a.46.46 0 0 1 .07-.46l2.97-3.69Z" fill="#292621"/><path d="M15.96 36.82c.01.48-.07.95-.26 1.42l-.8-1-.01-.02v-.01c0-.05.03-.06.09-.06.3-.17.62-.28.98-.33Z" fill="#ABA9A8"/><path d="M22.81 37.45a.13.13 0 0 1 .06-.22h.09l1.24.5a.13.13 0 0 1 .07.16c0 .02-.02.04-.03.05-.2.17-.2.34-.02.53l.26.18a.1.1 0 0 1 .05.12.1.1 0 0 1-.1.08c-.9.05-1.76-.13-2.61-.54a.2.2 0 0 1-.11-.18c0-.28.06-.53.16-.73a.14.14 0 0 1 .18-.06c.02 0 .04.02.06.04l.5.68a.42.42 0 0 0 .44.16l.21-.05a.13.13 0 0 0 .1-.16.13.13 0 0 0-.04-.05l-.5-.51ZM33.99 39.81l-.24-.24a.1.1 0 0 0-.1-.03.1.1 0 0 0-.08.07l-.9 2.24a.42.42 0 0 1-.06.1l-1.38 1.7c-2.22.49-4.47.47-6.78-.06l2.9-1.5a.38.38 0 0 1 .21-.04c1.61.2 3.7.1 4.82-1.15.4-.43.76-1.04 1.1-1.84.24.2.42.45.5.75Z" fill="#574D48"/><path d="M33.99 39.81c.62.62.78 1.72 1 2.55-1.16.61-2.41 1.04-3.76 1.28l1.38-1.7a.42.42 0 0 0 .06-.09l.9-2.24a.1.1 0 0 1 .08-.07.1.1 0 0 1 .1.03l.24.24Z" fill="#292621"/><defs><linearGradient id="a" x1="10.42" y1="9.71" x2="68.15" y2="76.02" gradientUnits="userSpaceOnUse"><stop stop-color="#1A1E21"/><stop offset="1" stop-color="#06060A"/></linearGradient></defs></svg>