<svg width="112" height="112" viewBox="0 0 56 56" xmlns="http://www.w3.org/2000/svg"><rect fill="#F0F3FA" width="56" height="56" rx="28"/><path d="M32.96 9.35a.63.63 0 0 1 .86-.27L42.9 14c.31.17.43.56.27.88a.63.63 0 0 1-.86.28l-.51-.28-1.92 2.92A14.52 14.52 0 0 1 45 28.73C45 37.16 37.39 44 28 44s-17-6.84-17-15.27c0-8.44 7.61-15.28 17-15.28 1.24 0 2.44.12 3.6.35l2-3.36-.37-.2a.66.66 0 0 1-.27-.9Zm-.73 6c-1.34-.33-2.76-.5-4.23-.5-8.69 0-15.73 6.21-15.73 13.88 0 7.66 7.04 13.87 15.73 13.87 8.69 0 15.73-6.21 15.73-13.87 0-4.3-2.22-8.14-5.7-10.69a74.44 74.44 0 0 1 2.64-3.77l-5.93-3.22s-1.6 2.9-2.5 4.3Z" fill="#37FBC5"/><circle cx="36.5" cy="15.5" r="1.5" fill="#28CBDA"/><path d="M32.53 18A3.43 3.43 0 0 1 36 21.39v4.49c.68-.11 2.95-.84 3.61-2.84.8.41 2.39 2.14 2.39 5.8C42 33.42 38.1 41 27.76 41 19.43 41 14 35.24 14 28.55c0-2.84 4.87-5.76 6-6.06v-1.1A3.43 3.43 0 0 1 23.47 18h9.06ZM17 27a1 1 0 1 0 0 2 1 1 0 0 0 0-2Z" fill="url(#a)"/><path d="M32.84 19c1.2 0 2.16 1.08 2.16 2.41v4.08c0 1.34-.86 2.45-2 2.67 1.11.04 2 1.06 2 2.31v4.42L30 39v-8.48c0-.84-.6-1.52-1.36-1.52H26v10l-5-4.1V21.4c0-1.33.97-2.41 2.16-2.41h9.68ZM26 27h2.96c.57 0 1.04-.52 1.04-1.16V21h-4v6Z" fill="#FEFFFF"/><defs><linearGradient id="a" x1="40" y1="24.15" x2="14.99" y2="33.06" gradientUnits="userSpaceOnUse"><stop stop-color="#2BA4E4"/><stop offset=".49" stop-color="#1047DF"/></linearGradient></defs></svg>