<svg width="112" height="112" viewBox="0 0 56 56" xmlns="http://www.w3.org/2000/svg"><path d="M25.97 13.96c-.96-.93-1.52-1.66-1.68-2.18a10.3 10.3 0 0 1-.07-2.62c0-.2.05-.21.14-.04.19.36.4.85.65 1.1.89.96 1.95 1.75 3.2 2.38 1.53.79 3.48 1.68 5.84 2.68.89.38 1.71.91 2.29 1.83.73 1.17 1.9 1.78 3.26 1.23a.24.24 0 0 1 .3.12c.02.04.03.08.02.12-.13 1.4-.5 2.73-1.13 4-.1.23-.2.23-.28-.02l-.18-.6a.2.2 0 0 0-.15-.14.21.21 0 0 0-.2.05l-.87.88a.32.32 0 0 1-.19.09c-.06 0-.13 0-.2-.04a11.89 11.89 0 0 0-3.53-1.33c-.84-.17-1.95-.19-3.34-.05l-3.36.37c-.25.03-.29-.04-.11-.22l.92-.92c.2-.2.16-.29-.12-.27a3.8 3.8 0 0 0-1.2.31c-7.75 3.23-7.31 13.72.22 17.03 5.65 2.48 11.38.54 14.25-4.77.3-.55.5-1.11.63-1.67a.2.2 0 0 0-.29-.2c-.31.17-.54.27-.7.29-.13.02-.18-.03-.14-.16a37.96 37.96 0 0 0 1.77-8.38c.01-.14.06-.15.14-.04.32.46.54.99.64 1.57.73 4.2.87 8.08-1 11.71a9.1 9.1 0 0 1-5.55 4.71c-.95.3-1.3.88-1.07 1.74.03.1 0 .18-.1.22-2.2.9-4.46 1.08-6.8.53-.51-.12-2.29-.81-3.05-.47a.37.37 0 0 0-.2.24c-.09.3-.12.57-.1.82 0 .12-.05.16-.17.13-2.6-.73-3.59-2.32-5.45-4.67-.85-1.07-2.78-1.27-2.63.75.01.13-.03.15-.12.05-1.96-2.07-2.33-4.28-2.57-7.13-.14-1.64-.18-4.54-2.5-3.52a.14.14 0 0 1-.13-.01.14.14 0 0 1-.06-.13c.38-2.97 2.1-4.77 4-6.88.93-1.03 1.6-2.95-.4-3.27a.18.18 0 0 1-.13-.11.18.18 0 0 1 .03-.18c2.32-2.65 5.41-3.9 8.97-4.1.13 0 .16-.06.1-.17a10.5 10.5 0 0 1-.86-1.6c-.13-.34-.03-.44.31-.28l2.9 1.3c.17.08.2.06.05-.08Z" fill="#fff"/></svg>