<svg width="112" height="112" viewBox="0 0 56 56" xmlns="http://www.w3.org/2000/svg"><rect fill="url(#al3gcnly4)" width="56" height="56" rx="28"/><path fill-rule="evenodd" d="M28 45a17 17 0 1 0 0-34 17 17 0 0 0 0 34Zm0-2a15 15 0 1 0 0-30 15 15 0 0 0 0 30Z" fill="#fff"/><path fill-rule="evenodd" d="M15.7 34h1.87L19 32h2.93l1.44 2h1.82l1.51-2.66-4.54-8.12c-.21-.4-.84-1.2-1.67-1.22-.9-.02-1.4.77-1.61 1.1l-.08.12-4.54 8.12L15.7 34Zm.65-5.11L17.7 31h5.5l1.34-2.11L21.6 24h-2.22l-3.03 4.89ZM30.73 34h1.87l1.44-2h2.93l1.43 2h1.82l1.52-2.66-4.55-8.12c-.2-.4-.83-1.2-1.66-1.22-.9-.02-1.4.77-1.62 1.1l-.07.12-4.55 8.12L30.73 34Zm.66-5.11L32.73 31h5.5l1.34-2.11L36.64 24h-2.22l-3.03 4.89ZM23.22 18h1.87l1.43 2h2.93l1.44-2h1.82l1.51 2.66-4.54 8.12c-.21.4-.84 1.2-1.67 1.22-.9.02-1.4-.77-1.62-1.1l-.07-.12-4.54-8.12L23.22 18Zm.65 5.11L25.21 21h5.5l1.34 2.11L29.12 28H26.9l-3.03-4.89Z" fill="#fff"/><defs><linearGradient id="al3gcnly4" x1="10.42" y1="9.71" x2="68.15" y2="76.02" gradientUnits="userSpaceOnUse"><stop stop-color="#1A1E21"/><stop offset="1" stop-color="#06060A"/></linearGradient></defs></svg>