<svg width="112" height="112" viewBox="0 0 56 56" xmlns="http://www.w3.org/2000/svg"><path d="M39.12 39.52a18.05 18.05 0 0 1-4.5 3.02l-.22-3.45c0-.07 1.5-.73 2.25-1.05 1.39-.08 3.83.11 2.47 1.48Z" fill="#AB6240"/><path d="m38.6 16.03-1.37 1.8-1.81 2.37a.17.17 0 0 0 .04.24l1.7 1.2.93.7a.17.17 0 0 1 .06.2l-.04.06-.9.93a.27.27 0 0 0-.07.24l.27 1.31-2.9.01c-.09.02-.15 0-.2-.02-.04-.03-.07-.09-.08-.18a3.75 3.75 0 0 0-.26-.93l-.26-.92a.75.75 0 0 0-.12-.24l-.91-1.2-1.39-2.6a.1.1 0 0 1 0-.1.1.1 0 0 1 .1-.05c.15 0 .31.04.5.13l.45.1.75.13a.05.05 0 0 0 .06-.04c.18-.88.2-1.74.04-2.58a5.14 5.14 0 0 0-1.2-1.21 5.04 5.04 0 0 0-1.4-.25.14.14 0 0 0-.04.04c-.07.06-.1.16-.1.28l-.81 1.71-1.03-.32-.54-.18a.18.18 0 0 0-.11 0l-2.09.77-.91-1.51a.95.95 0 0 0-.18-.36.1.1 0 0 0-.1-.03c-.31.1-.63.18-.94.27-.24.07-.43.16-.55.28-.14.14-.25.31-.35.52-.17.16-.28.36-.33.6v.95c-.24.45-.35.97-.3 1.56a.1.1 0 0 0 .06.1c.56.16 1-.02 1.36-.54-.01.03 0 .03.03 0 .3.08.57.07.85-.03a.08.08 0 0 1 .1.1l-.48 1.77-.72 2.6c-.3.42-.58.83-.83 1.22a.7.7 0 0 1-.23.18l-10.1.03a16.1 16.1 0 0 1 2.07-5.46 16.4 16.4 0 0 1 14.57-7.66 15.8 15.8 0 0 1 9.72 4Z" fill="#343434"/><path d="M33.2 16.6c-.42-.08-.77-.32-1.06-.72a.3.3 0 0 0-.27-.12l-.82.1.53-.17h.01a.02.02 0 0 0 0-.03h-.01l-1.13-.21c0-.12.03-.22.1-.28a.14.14 0 0 1 .1-.05 5.04 5.04 0 0 1 1.47.33c.4.31.76.7 1.07 1.14Z" fill="#655D4B"/><path d="M31.05 15.86c-.1.05-.16.13-.17.24a.83.83 0 0 0-.07.63c-.2.03-.33.16-.4.38-.13.47-.29.94-.47 1.4-.06.14-.06.36-.02.65-.16.2-.07.34.27.4.04.02.07 0 .09-.02.01-.03 0-.07-.01-.1l.29.14c-.08-.01-.15.03-.2.13a.11.11 0 0 1-.11.04c-.05 0-.08.02-.11.07a.08.08 0 0 0 0 .08c.22.36.52.6.9.7a7.52 7.52 0 0 0 .12-1.83.07.07 0 0 1 .04-.02c.06-.02.1-.02.16-.02.05 0 .08 0 .1-.03a.23.23 0 0 0 .01-.11l.06.03c-.05.1-.14.16-.27.18a.08.08 0 0 0-.07.07c0 .1.03.2.1.3l-.04 2.62c0 .49-.06.9-.17 1.21-.2.6-.67.77-1.25.86l-.2-.58c.1-.5.18-.99.24-1.45a.9.9 0 0 0-.06-.47c-.27-.66-.42-1.14-.71-1.5a3.33 3.33 0 0 0-.94-.77.18.18 0 0 0-.18.1c-.32.66-.38 1.43-.55 2.15a.22.22 0 0 0-.06.05c-.2-.77-.19-1.86.5-2.3.35-.23 1-.4 1.29-.83.18-.28.34-.65.48-1.1l.81-1.71 1.13.2h.01a.02.02 0 0 1 0 .04l-.54.17Z" fill="#8B8068"/><path d="m24.96 15.92-.55.4a.07.07 0 0 0-.03.08.07.07 0 0 0 .06.05l.37.04a.06.06 0 0 1 .05.06v.03l-.47.79c.07-.27.2-.5.36-.7a.1.1 0 0 0 .01-.1.1.1 0 0 0-.08-.06 5.73 5.73 0 0 0-.74-.08c-.34 0-.74.1-1.1.17.1-.2.21-.38.35-.52.12-.12.3-.21.55-.28a65.28 65.28 0 0 0 1-.27.1.1 0 0 1 .04.03c.09.11.14.23.18.36Z" fill="#6E6655"/><path d="M33.2 16.6a6.68 6.68 0 0 1-.08 2.6.05.05 0 0 1-.03.01l-.75-.13.41-.02a.03.03 0 0 0 .03-.05l-.02-.01-.32-.15a.1.1 0 0 1-.02-.16c.87-.68.5-1.87-.32-2.47-.43-.33-.82-.3-1.16.07a.03.03 0 0 1-.03 0h-.02v-.02l-.01-.17c0-.1.07-.19.17-.24l.82-.1a.3.3 0 0 1 .27.12c.3.4.64.64 1.05.71Z" fill="#5C3919"/><path d="m24.96 15.92.91 1.51c.02.35-.04.66-.18.92a13.07 13.07 0 0 1-.55.86.08.08 0 0 1-.12-.04c-.1-.22-.23-.44-.36-.67a1.05 1.05 0 0 0-.3-.26c-.14-.1-.23-.2-.25-.31l.28-.56.46-.8a.06.06 0 0 0 0-.05.06.06 0 0 0-.04-.03l-.37-.04a.07.07 0 0 1-.06-.05.07.07 0 0 1 .03-.08l.55-.4Z" fill="#8B8068"/><path d="m32.1 16.22-.32 1.57c0 .01 0 .02-.02.03l-.17.21.12-.3a.1.1 0 0 0-.04-.12.1.1 0 0 0-.04-.02h-.06a.22.22 0 0 1-.15-.08l-.6-.78a.83.83 0 0 1 .06-.63v.17a.03.03 0 0 0 .03.03.03.03 0 0 0 .03-.01c.34-.38.73-.4 1.16-.07Z" fill="#8B552A"/><path d="M38.6 16.03c4.02 3.56 6 8.92 5.24 14.23-.02.13-.09.18-.2.14-.33-.03-.67-.07-1-.14-.56-.1-1.11-.22-1.65-.34l-1.54-.33a.33.33 0 0 1-.25-.26l-.19-.88c-.16-.62-.27-1.28-.5-1.84-.25-.62-.51-1.19-1.1-1.53l-.27-1.3a.27.27 0 0 1 .07-.25l.9-.93a.18.18 0 0 0 .03-.2.17.17 0 0 0-.05-.06l-.93-.7c.06-.73.02-1.5.07-2.18.05-.56.15-1.06 0-1.64l1.38-1.8Z" fill="#3C260D"/><path d="m32.34 19.08-.44-.1.34.05a.04.04 0 0 0 .05-.02l.01-.04a.06.06 0 0 0 0-.05.06.06 0 0 0-.04-.04l-.73-.26-.06-.03-.11-.2a.1.1 0 0 1 0-.1c.06-.1.14-.19.23-.26l.17-.2.02-.04.32-1.57c.82.6 1.2 1.79.32 2.47a.1.1 0 0 0 .02.16l.32.15a.03.03 0 0 1 .02.03l-.01.02-.02.01-.41.02ZM24.39 17.37l-.28.56-.04.28-.09.85a1.4 1.4 0 0 0-.25-1.05c-.2-.26-.24-.42-.18-.71a.05.05 0 0 0-.05-.07l-.02.01-.48.28a.05.05 0 0 1-.07-.03v-.03c.13-.29.28-.55.46-.79a.08.08 0 0 0 .02-.05.1.1 0 0 0-.02-.06.05.05 0 0 0-.06-.02h-.01l-.8.65c.04-.23.15-.43.32-.6.36-.06.76-.17 1.1-.16a5.71 5.71 0 0 1 .79.1.1.1 0 0 1 .01.14c-.16.2-.28.43-.35.7Z" fill="#834B31"/><path d="m23.98 19.06-.32.21c-.03.03-.04.03-.03 0a3.5 3.5 0 0 0-.66-.59 2 2 0 0 1-.45-.53v-.96l.8-.64.01-.01a.05.05 0 0 1 .05 0l.01.02a.1.1 0 0 1 .02.06l-.02.05a3.87 3.87 0 0 0-.46.82l.02.02.02.01H23l.48-.28h.02a.05.05 0 0 1 .05.06c-.06.3-.01.45.18.7.22.32.3.67.25 1.06Z" fill="#5C3919"/><path d="m30.81 16.73.61.78a.22.22 0 0 0 .15.08h.06a.1.1 0 0 1 .08.14l-.12.3a.83.83 0 0 0-.23.25.1.1 0 0 0 0 .11l.11.2c0 .04 0 .08-.02.1 0 .03-.04.04-.1.04-.04 0-.1 0-.15.02a.07.07 0 0 0-.04.02 7.53 7.53 0 0 1-.11 1.84c-.03-.57-.2-.9-.5-1.03l-.28-.15-.35-.27c-.04-.29-.04-.5.02-.65.18-.46.34-.93.47-1.4.07-.22.2-.35.4-.38Z" fill="#A49B7B"/><path d="M28.61 16.84a2.47 2.47 0 0 1-.62 1.42l-.41.46a3.6 3.6 0 0 0-.7 2.47l.06.86-.24 1.55c-.55-.91-.64-1.7-.83-2.9h-.02l-1.03.46a.09.09 0 0 1-.08 0 .1.1 0 0 1-.04-.07 3.54 3.54 0 0 1 .06-1.77.19.19 0 0 0-.12-.23c-.36-.13-.46-.49-.57-.88l.04-.28c.02.1.1.21.25.3.16.12.26.2.3.27a11.4 11.4 0 0 1 .4.7.08.08 0 0 0 .11-.02c.18-.26.35-.54.52-.83.14-.26.2-.57.18-.92l2.09-.77a.18.18 0 0 1 .11 0l.54.18Z" fill="#6E6655"/><path d="m28.61 16.84 1.03.32c-.14.45-.3.82-.48 1.1-.3.44-.94.6-1.28.82-.7.45-.72 1.54-.51 2.31l-.43.66-.07-.86A3.6 3.6 0 0 1 28 18.26c.35-.4.56-.87.62-1.42Z" fill="#7F7661"/><path d="M37.23 17.82c.15.58.05 1.08 0 1.64-.05.68-.01 1.45-.07 2.18l-1.7-1.2a.17.17 0 0 1-.04-.24l1.81-2.38Z" fill="#1F1508"/><path d="M22.52 18.15a2 2 0 0 0 .45.54c.26.18.48.37.66.58-.35.52-.8.7-1.36.53a.1.1 0 0 1-.07-.09c-.04-.59.07-1.11.32-1.56Z" fill="#3C260D"/><path d="M26.7 23.6c.01 0 .02 0 .03.02l-.01.06-.25.22a.08.08 0 0 0 0 .1 4.37 4.37 0 0 1 .75 1.39l-.03.02-.03.02h-.04a.06.06 0 0 1-.03-.02 2.1 2.1 0 0 1-.2-.33c-.05-.09-.14-.16-.27-.21-1.63-.7-2.12-2.13-2.5-3.76l.49-1.77a.08.08 0 0 0-.02-.08.08.08 0 0 0-.08-.02c-.28.1-.56.1-.85.03l.32-.2.1-.86c.1.4.2.75.56.88a.19.19 0 0 1 .12.23 3.54 3.54 0 0 0-.05 1.81.1.1 0 0 0 .11.03l1.03-.46h.01c.2 1.2.3 1.99.84 2.9Z" fill="#655D4B"/><path d="M31.9 18.98c-.2-.09-.36-.13-.51-.13a.1.1 0 0 0-.1.16l1.39 2.6.3 2.2c-.26-.05-.47.17-.64.66l-.23.37-.25.42-.28.4c-.43-.04-.86.03-1.3.19-.19.06-.33.1-.43.1-.46.05-.87-.21-1.25-.53-.11-.08-.18-.16-.2-.24a.07.07 0 0 1 .03-.08.08.08 0 0 1 .08 0c.48.28.72.3.74.08.17-.2.35-.38.54-.52.5-.38 1.15-.05 1.6-.46a1 1 0 0 0 .35-.63c.1-1.04.1-2.11-.03-3.21a4.95 4.95 0 0 0-.42-1.19.48.48 0 0 1-.1-.3.08.08 0 0 1 .07-.07c.13-.02.22-.08.27-.18l.73.26a.07.07 0 0 1 .04.04.07.07 0 0 1 0 .05l-.01.04-.02.02h-.03l-.34-.05Z" fill="#6E6655"/><path d="M29.63 23.28c-.02-.47-.14-.77-.35-.92l-.9-1a.47.47 0 0 0-.3-.22.1.1 0 0 0-.1.03l-.5.52a.06.06 0 0 1-.06.02.05.05 0 0 1-.03-.06l.04-.3c.17-.73.23-1.5.55-2.16a.18.18 0 0 1 .25-.07c.36.21.65.46.87.73.3.37.44.85.71 1.51.06.15.08.3.06.47-.06.46-.14.95-.24 1.45Z" fill="#A49B7B"/><path d="M29.25 25.18c-.04-.2 0-.37.12-.49.2-.2.36-.4.46-.59.03-.1.03-.18 0-.24.58-.1 1.05-.26 1.25-.86.1-.32.16-.72.17-1.21l.04-2.62c.25.57.4.96.42 1.19.13 1.1.14 2.17.03 3.2a1 1 0 0 1-.35.64c-.45.4-1.1.08-1.6.46-.19.14-.37.32-.54.52Z" fill="#7F7661"/><path d="M25 20.18c.1-.23.7-.73 1.04-.7a.07.07 0 0 1 .06.04.08.08 0 0 1 0 .07l-.03.04a.13.13 0 0 1-.1.07.55.55 0 0 0-.4.17.1.1 0 0 0-.02.1c.01.02.02.04.04.04l.05.02c.04-.01.06-.02.08-.05a.05.05 0 0 1 .06-.01.05.05 0 0 1 .03.05c-.07.42-.43.5-.68.77a.1.1 0 0 1-.1.02.1.1 0 0 1-.06-.09v-.35c0-.06 0-.13.03-.19ZM30.56 19.58c.3.12.46.46.49 1.03a1.56 1.56 0 0 1-.9-.7.08.08 0 0 1 0-.08c.02-.06.05-.08.1-.08a.1.1 0 0 0 .1-.04c.06-.1.13-.14.2-.13Z" fill="#1F1508"/><path d="M24.13 21.11c.37 1.63.86 3.06 2.5 3.76.13.05.21.12.26.2.05.12.12.23.2.34l.03.02h.04l.03-.02.03-.02v-.04a4.37 4.37 0 0 0-.77-1.4c0-.02 0-.04.02-.05l.25-.22c.14.45.35.88.63 1.28a1.21 1.21 0 0 1 .2.58l.01.02a.08.08 0 0 0 .06.02l.98-.16c.39.32.79.58 1.25.54.1-.01.24-.05.43-.11.44-.16.88-.23 1.3-.2l-.07.18-.48.76a.67.67 0 0 1-.28.25c-.8.39-1.62.72-2.48 1l-2.39-.74-.32-.28-.18-.26-1.27-1.63-.44-.64c-.07-.1-.16-.29-.26-.58l.72-2.6Z" fill="#574835"/><path d="M28.38 21.36c-.6.43-.95.56-1.1 1.36a.09.09 0 0 0 .17.07c.15-.24.3-.38.45-.44a.76.76 0 0 1 .54.01l.38.15a.13.13 0 0 1 0 .23l-.67.3a.11.11 0 0 0-.05.15l.45 1a.1.1 0 0 0 .08.06c.38.02.65-.14.8-.5a.18.18 0 0 0 .01-.08l-.16-1.31c.2.15.33.45.35.92l.2.58c.03.06.03.14 0 .24.01-.1.01-.16-.01-.2a.05.05 0 0 0-.04-.04.05.05 0 0 0-.05.02l-.58.76a.17.17 0 0 1-.1.06c-.14.02-.3.01-.46-.04a.1.1 0 0 1-.06-.03l-.24-.32a.11.11 0 0 0-.15-.03.11.11 0 0 0-.04.04l-.12.22a.16.16 0 0 1-.1.07c-.18.05-.36 0-.54-.17a1.1 1.1 0 0 1-.35-.93.05.05 0 0 0-.02-.04.05.05 0 0 0-.05-.01.36.36 0 0 0-.19.16.53.53 0 0 0-.03-.02l.24-1.55.43-.66a.23.23 0 0 1 .06-.05l-.04.31a.05.05 0 0 0 .03.06h.03c.01 0 .02 0 .03-.02l.5-.52a.1.1 0 0 1 .1-.03c.12.03.22.1.3.22Z" fill="#BC6E3F"/><path d="m29.28 22.36.16 1.3-.01.1a.75.75 0 0 1-.8.5.1.1 0 0 1-.08-.07l-.45-1a.11.11 0 0 1 0-.08.11.11 0 0 1 .05-.07l.67-.3a.13.13 0 0 0 0-.23l-.38-.15a.76.76 0 0 0-.54 0c-.15.05-.3.2-.45.43a.1.1 0 0 1-.1.03.09.09 0 0 1-.06-.1c.14-.8.48-.93 1.09-1.36l.9 1Z" fill="#C48250"/><path d="m33.97 23.96-.99-.15-.3-2.2.9 1.19c.06.07.1.15.13.24l.26.92Z" fill="#655D4B"/><path d="M29.83 24.1c-.1.2-.26.39-.46.6-.12.1-.16.27-.12.48-.02.23-.26.2-.74-.09a.08.08 0 0 0-.08 0 .07.07 0 0 0-.03.09c.02.08.09.16.2.24l-.98.16a.07.07 0 0 1-.09-.07c-.01-.18-.09-.4-.18-.55a4.6 4.6 0 0 1-.63-1.28l.01-.06a.36.36 0 0 1 .2-.16.05.05 0 0 1 .04 0 .05.05 0 0 1 .02.05c-.03.37.09.68.35.93.18.17.36.22.54.17a.16.16 0 0 0 .1-.07l.12-.22a.11.11 0 0 1 .18-.01l.25.32a.1.1 0 0 0 .06.03c.17.05.32.06.45.04.04 0 .08-.03.1-.06l.6-.76.01-.01a.05.05 0 0 1 .05 0l.02.02c.02.05.02.12 0 .21Z" fill="#834B31"/><path d="M23.4 23.71c.11.3.2.49.27.58l.44.64c-.66.53-.65 1.4-1.01 1.89-.65.9-1.37 1.91-2.16 3.05a6.3 6.3 0 0 0-.57 1 3.51 3.51 0 0 1-.6.8v.06c0 .03.02.07.04.1l.02.1c-.05.9 0 1.78.48 2.55 0 .13.1.28.27.45.13-.04.27-.12.41-.22a.8.8 0 0 1 .3-.14c.61-.15 1.12-.46 1.69-.73l.97-.68.37-.22c-.07.28-.2.57-.4.87-.6.87-.93 1.38-1.91 1.38-.59 0-.9.08-1.18.56-.42.73-.54 1.3-.7 2.21-.08.4-.33.99-.33 1.4 0 .26.04.53.12.82l.53 1.97-1.08-.65a5.74 5.74 0 0 1-.05-2.67c.2-.83.38-1.66.55-2.5.15-.72 0-1.2-.49-1.76a9 9 0 0 0-.1-1.77 4.9 4.9 0 0 1-.06-1.76c.06-.29.1-.57.14-.85.16-.4.38-.83.67-1.28l2.08-3.24c.14-.23.22-.41.24-.56a.7.7 0 0 0 .23-.18c.25-.4.53-.8.83-1.22Z" fill="#6E6655"/><path d="m32.98 23.8 1 .16c.12.3.2.61.25.93.01.1.04.15.08.18.05.03.11.04.2.02-.07.51.07.9.2 1.38.05.2.1.4.13.6l.87 4.97c-.17.76-.31 1.75-.42 2.96a26.8 26.8 0 0 0-.04 4.73c.05.59.2 1.16.33 1.73v.03l-.03.01h-.01a.03.03 0 0 1-.04-.02l-.25-1.1v-.02c.06.4.14.8.23 1.2l-.16-.2a16.06 16.06 0 0 1-.1-.39l.02 1.24a.02.02 0 0 1-.02.01h-.04s-.02 0-.02-.02l-.01-.02c.02-.3.02-1.22-.25-1.42a.11.11 0 0 0-.15.02.12.12 0 0 0-.03.05l-.07.4-.46-1.9c-.2-.3-.31-.57-.33-.78-.05-.48-.08-.9-.24-1.38-.09-.27-.17-.55-.24-.84.24-.59.01-1.12-.68-1.6a.38.38 0 0 0-.18-.07l-.46-.05a.46.46 0 0 1-.28-.13l-.63-.64h-.02a.02.02 0 0 0-.02.02c.02 1.37.41 2.22.94 3.85.62 1.93.22 3.97-.68 5.91l-1.34.26c.23-1 .49-2 .75-2.98.2-.76.29-1.51.24-2.26-.05-.82-.26-1.56-.53-2.74-.1-.43-.1-.98-.03-1.64.44-.2.15-.73-.04-1a.07.07 0 0 1 0-.1.07.07 0 0 1 .1 0l.43.36c.28.33.63.52 1.05.6.03 0 .05 0 .07.02l1.14.83c.4.5.55.9.39 1.44a.07.07 0 0 0 .02.07.07.07 0 0 0 .07 0c.66-.32.94-.86 1.35-1.64a.2.2 0 0 0 .02-.13l-.63-3c-.05-.22-.16-1.03-.35-2.44a11.7 11.7 0 0 0-1.74-4.8c.17-.49.38-.7.64-.66Z" fill="#8B8068"/><path d="m33.2 34.97.87.27a.21.21 0 0 0 .27-.2c0-.18 0-.38-.03-.61-.04-.35-.23-1.08-.26-1.71a6.23 6.23 0 0 1-.58-2.65c.1-.97.17-1.7-.1-2.55a7.73 7.73 0 0 0-.47-1.02 29.9 29.9 0 0 1-.79-1.66l.23-.37a11.7 11.7 0 0 1 1.74 4.8 59 59 0 0 0 .34 2.44l.64 3a.2.2 0 0 1-.02.13c-.41.78-.7 1.32-1.35 1.65a.07.07 0 0 1-.1-.04v-.04c.16-.55.01-.94-.38-1.44Z" fill="#9D9073"/><path d="M34.05 32.72c-.42-.67-.73-1.56-.94-2.07-.52-1.25-.16-2.54-.46-3.83-.12-.5-.38-1.03-.61-1.52l-.18-.04.25-.42c.25.57.52 1.12.8 1.66.25.5.4.83.46 1.02.27.85.2 1.58.1 2.55-.1.8.24 1.74.58 2.65Z" fill="#A9A585"/><path d="m24.1 24.93 1.28 1.63c-.74.74-1.22 1.07-1.92 1.53-.79.53-1.13 1.34-1.59 2.25-.6 1.2-1.83 1.4-1.84 2.91 0 .46.09.87.28 1.23a4.33 4.33 0 0 1-.48-2.55c0-.03 0-.07-.02-.1a.35.35 0 0 1-.04-.1.13.13 0 0 1 .03-.12c.3-.33.5-.58.57-.75.15-.34.34-.67.57-.99.8-1.14 1.51-2.16 2.16-3.05.36-.5.35-1.36 1-1.89Z" fill="#7F7661"/><path d="M37.4 25.08c.6.34.86.91 1.11 1.53.23.56.34 1.22.5 1.84l-3.3 3.59a519.78 519.78 0 0 0-1-5.57c-.13-.48-.27-.87-.2-1.38h2.9ZM22.35 25.11c-.01.15-.1.33-.24.56l-2.08 3.24c-.29.45-.51.88-.67 1.28-1.33.35-2.72.53-4.18.53-1.3 0-2.3 0-2.96-.02-.1-.5-.17-1.21-.2-2.13a16.5 16.5 0 0 1 .24-3.43l10.09-.03Z" fill="#967A5E"/><path d="m31.86 25.26.18.04c.07 1.02.04 2.04.12 3.05.08 1.13.41 1.97.85 3.23.24.7.73 2.35-.66 2.26a4.95 4.95 0 0 1-1.4-.32l-.43-.36a.07.07 0 0 0-.1 0 .07.07 0 0 0 0 .1c.19.27.48.8.04 1 .22-.16.27-.34.14-.54a.04.04 0 0 0-.07 0c-.11.25-.24.41-.37.5-.18.13-.3.22-.33.3-.16.22-.18.45-.07.69.25.5.48 1.03.68 1.55-.44-.63-.74-1.07-.87-1.32-.05-.1-.1-.3-.16-.6-.13.15-.21.34-.25.58a9.6 9.6 0 0 1 .32-1.88c.44-1.59 2.15-.5 2.5-1.58.1-.27.12-.6.07-1-.14-1.06-.32-1.96-.39-3.14l-.15-1.99.07-.18.28-.39Z" fill="#C7C49C"/><path d="M34.05 32.72c.03.63.22 1.36.26 1.7a4.6 4.6 0 0 1 .01.72.21.21 0 0 1-.25.1l-.86-.27-1.14-.83a.16.16 0 0 0-.07-.02 1.78 1.78 0 0 1-1.05-.6c.46.18.93.28 1.4.32 1.4.09.9-1.56.66-2.26-.44-1.26-.77-2.1-.85-3.23-.08-1.01-.05-2.03-.12-3.05.23.5.49 1.02.6 1.52.3 1.29-.05 2.58.47 3.83.2.51.52 1.4.94 2.07Z" fill="#C3B88C"/><path d="m29.16 35.42.11.39c-.46 1.26-1.45 3.05-2.63.89.18-1.32.38-2.85.57-4.59.17-1.46.52-2.88 1.06-4.26a21.2 21.2 0 0 0 2.48-1.01c.11-.06.21-.14.28-.25l.48-.76c.06.67.11 1.33.15 2 .07 1.17.25 2.07.39 3.12.05.4.03.74-.06 1.01-.36 1.08-2.07-.01-2.5 1.58a9.6 9.6 0 0 0-.33 1.88Z" fill="#C5C5B0"/><path d="m25.38 26.56.18.26-.97.81c-.24.2-.46.44-.65.7-.22.28-.48.46-.71.66a.46.46 0 0 0-.08.1c-.46.67-.44 1.5-.41 2.32a1.72 1.72 0 0 0 .15.43.04.04 0 0 0 .04.01l.02-.01a2.65 2.65 0 0 1 .99-.64s.02 0 .02.02a.05.05 0 0 1 0 .06l-1.28 1.95a.04.04 0 0 0 .04.07c.39-.1.8-.15 1.23-.14l-.97.68-.51.12a.06.06 0 0 1-.07-.07c0-.01 0-.02.02-.03l.56-.43v-.01l-.01-.01-1.9.67c-.13.04-.27.12-.42.22a.11.11 0 0 0-.05.1l-.02.53c-.18-.17-.27-.32-.27-.45a2.57 2.57 0 0 1-.28-1.23c.01-1.51 1.23-1.71 1.84-2.9.46-.92.8-1.73 1.6-2.26.69-.46 1.17-.79 1.9-1.53Z" fill="#9D9073"/><path d="m25.56 26.82.32.28a2.13 2.13 0 0 0-.92.64.08.08 0 0 0 .02.07l.03.02c.46.16.9.4 1.34.7.03.02.06.05.07.09.08.16.07.3-.01.41a9.99 9.99 0 0 1-1.45 1.48c-.33.27-.73.7-.33 1.06a1 1 0 0 1-.43-.06.18.18 0 0 1-.11-.18l.02-.08.57-.98a.18.18 0 0 0-.03-.22l-.73-.7a.1.1 0 0 1-.03-.1c.09-.6.32-1.14.7-1.62l.97-.81Z" fill="#C3B88C"/><path d="m25.88 27.1 2.4.75c-.55 1.38-.9 2.8-1.07 4.26-.2 1.74-.38 3.27-.57 4.59-.07-.03-.1.05-.09.24a.03.03 0 0 1-.01.02.03.03 0 0 1-.03 0c-.23-.2-.11-1.35-.09-1.75.01-.2-.01-.5-.07-.9l-.26-1.71c-.02-.15 0-.37.07-.66a.52.52 0 0 0 .15-.14v-.04h-.03l-.5.28-.88.49-1.25-.18a.08.08 0 0 1-.07-.06.08.08 0 0 1 .04-.09l1.01-.63c-.4-.37 0-.79.33-1.06a10 10 0 0 0 1.44-1.48c.1-.1.1-.25.02-.41a.22.22 0 0 0-.07-.09 5.43 5.43 0 0 0-1.38-.72.08.08 0 0 1-.01-.07l.01-.04c.26-.28.56-.48.91-.6Z" fill="#C7C49C"/><path d="M24.59 27.63a3.34 3.34 0 0 0-.7 1.68l.03.04.73.7a.19.19 0 0 1 .03.22l-.57.98a.18.18 0 0 0 .03.22l.06.04a1 1 0 0 0 .43.06l-1 .63a.08.08 0 0 0-.02.13l.04.02 1.25.18-.03.07-.55.34-.37.22a4.45 4.45 0 0 0-1.25.14.04.04 0 0 1-.03-.04v-.03l1.3-1.95a.05.05 0 0 0 0-.06.06.06 0 0 0-.07-.02 2.65 2.65 0 0 0-.97.65h-.02a.04.04 0 0 1-.03-.02c-.1-.22-.14-.36-.14-.42-.03-.83-.05-1.65.4-2.33a.46.46 0 0 1 .1-.09c.23-.2.48-.38.7-.67.2-.25.41-.48.65-.69Z" fill="#BAA982"/><path d="m39.01 28.45.19.88a.33.33 0 0 0 .25.26l1.54.33c-.99.74-1.96 1.48-2.91 2.23a6.4 6.4 0 0 0-1.7 1.86c-.35.63-.65 1.38-.92 2.28l-.14 2.09v1c.04.43.17 1.07.39 1.92.06.25.01.52-.15.8a.17.17 0 0 1-.09.07l-.09.04.09-.08c.05-.19.05-.38 0-.57-.08-.4-.16-.8-.22-1.2v.01a511.74 511.74 0 0 0 .26 1.13h.03a.04.04 0 0 0 .04-.04c-.13-.57-.28-1.14-.33-1.73a26.8 26.8 0 0 1 .04-4.73c.1-1.2.25-2.2.42-2.96l3.3-3.6Z" fill="#8C6F56"/><path d="M43.64 30.4c.2.24.07.69 0 .96-.12.48-.25.97-.39 1.45a10.14 10.14 0 0 1-1.42 3.12l-6.37.36c.27-.9.57-1.65.93-2.28a6.4 6.4 0 0 1 1.69-1.86c.95-.75 1.92-1.5 2.9-2.23.55.12 1.1.24 1.67.34.33.07.66.11 1 .14Z" fill="#826C53"/><path d="M19.36 30.19c-.04.28-.08.56-.14.85-.09.51-.07 1.1.05 1.76.1.46.13 1.05.11 1.77l-.18 2.28a.2.2 0 0 1-.18.19l-.62.06-3.41.14c-.38-.32-.56-.77-.8-1.18-1-1.66-1.65-3.45-1.97-5.36a150 150 0 0 0 2.96.02c1.46 0 2.85-.18 4.18-.53Z" fill="#8C6F56"/><path d="M27.5 34.13c-.04 1.09.19 1.98.53 2 .33 0 .64-.86.7-1.94.04-1.09-.19-1.98-.53-2-.33-.01-.64.86-.7 1.94Z" fill="#C5C5BC"/><path d="m26.16 31.94-.27.22a.1.1 0 0 0-.03.1l.13.63-.21 1.25c-.07.43-.16.85-.27 1.25a17 17 0 0 0-.73 4.45c0 1.37.7 2.94 2.07 3.33.98.27 1.9-.24 2.45-1.04a7.53 7.53 0 0 0 1.33-4.78l-.19-.59c-.2-.52-.43-1.04-.68-1.55-.11-.24-.09-.47.07-.7.23-.04.44-.12.62-.25-.07.66-.05 1.2.04 1.64.27 1.18.48 1.92.53 2.74.05.75-.03 1.5-.24 2.26-.26.99-.52 1.98-.75 2.98-1.68.2-3.33.15-4.98-.14a8.42 8.42 0 0 1-.85-4.6c.1-.8.2-1.42.3-1.84.4-1.6.74-3.23.99-4.86l.3-.4.49-.28a.02.02 0 0 1 .03 0 .02.02 0 0 1 0 .04.52.52 0 0 1-.15.14Z" fill="#A49B7B"/><path d="M26.16 31.94c-.07.3-.09.51-.07.66l.26 1.7c.06.41.08.71.07.9-.02.4-.14 1.55.09 1.76h.03l.01-.02c-.01-.19.02-.27.09-.24 1.18 2.16 2.17.37 2.63-.9a3.85 3.85 0 0 1 1.39 1.6c-.13 1.28-.46 2.5-1.52 3.3-.7.53-1.46.73-2.26.6-1.25-.22-1.6-1.28-1.57-2.4a21.64 21.64 0 0 1 .87-5.04c0-.32-.07-.64-.19-.97l-.13-.63a.1.1 0 0 1 0-.06.1.1 0 0 1 .03-.04l.27-.22Z" fill="#B7B092"/><path d="m25.79 32.04-.3.4c-.34.59-.57 1.05-.68 1.4-.44 1.29-.96 3.02-1.54 5.18a7.1 7.1 0 0 0-.24 1.37c-.07 1.1.43 2.1.9 3.09l-1.34-.42c-.26-.71-.5-1.41-.72-2.1-.5-1.56-.16-2.88.6-4.26a280.1 280.1 0 0 1 2.11-3.64l.44-.42v-.06H25c-.04-.01-.09 0-.13.02l.03-.07.89-.49Z" fill="#8B8068"/><path d="M26 32.89a3.02 3.02 0 0 1 .16 1.08c-.43 1.6-.8 3.28-.85 4.93-.04 1.12.32 2.18 1.57 2.4.8.13 1.56-.07 2.26-.6 1.06-.8 1.4-2.02 1.52-3.3a7.52 7.52 0 0 1-1.36 4.73c-.55.8-1.47 1.31-2.45 1.04-1.38-.39-2.08-1.96-2.07-3.33a17 17 0 0 1 .73-4.45c.11-.4.2-.82.27-1.25l.21-1.25Z" fill="#A9A585"/><path d="M25.49 32.44a53.64 53.64 0 0 1-.99 4.86c-.1.42-.2 1.03-.3 1.83-.2 1.69.18 3.07.85 4.61l-1.12-.26c-.47-.98-.97-2-.9-3.1.02-.39.1-.85.24-1.36.59-2.16 1.1-3.89 1.54-5.19.12-.34.34-.8.68-1.4Z" fill="#9D9073"/><path d="m22.59 43.06-2.14-.9-.53-1.98a3.3 3.3 0 0 1-.12-.82c0-.41.25-1 .33-1.4.16-.91.28-1.48.7-2.21.28-.48.6-.57 1.18-.56.98 0 1.31-.51 1.9-1.38.2-.3.34-.6.4-.87l.56-.34c.04-.02.09-.03.13-.02h.02v.02a.03.03 0 0 1 0 .03l-.44.43a279.33 279.33 0 0 0-2.11 3.64c-.76 1.38-1.1 2.7-.6 4.25.22.7.46 1.4.72 2.1ZM22.98 33.84c-.57.27-1.08.58-1.7.73a.8.8 0 0 0-.29.14c-.14.1-.28.18-.41.22l.02-.54.01-.05.04-.04c.15-.1.29-.18.41-.22a6102.96 6102.96 0 0 0 1.92-.65l-.56.43a.06.06 0 0 0 .05.1l.5-.12ZM33.38 36.33c-.14-.93-.7-1.25-1.52-1.49a.11.11 0 0 0-.14.11c0 .03 0 .05.02.07.43.48.68.87.87 1.53.1.33.24.75.43 1.27.2.54.27 1.1.3 1.56.06.53.26 1.2.38 1.79.13.65.07 1.28-.17 1.88-.7.24-1.44.43-2.19.57.91-1.94 1.31-3.98.69-5.91-.53-1.63-.92-2.48-.94-3.85v-.02h.03l.64.64c.08.07.18.12.28.13l.46.05c.06 0 .13.03.18.07.7.48.92 1.01.68 1.6Z" fill="#7F7661"/><path d="M30.45 34.26c-.18.13-.39.22-.62.25.04-.07.14-.16.33-.29a1.27 1.27 0 0 0 .38-.5.04.04 0 0 1 .06 0c.13.2.08.38-.15.54Z" fill="#C3B88C"/><path d="M19.37 41.5a7.37 7.37 0 0 1-1.47-1.13c.12-.45.22-.75.3-.9a11.12 11.12 0 0 0 .9-2.3.06.06 0 0 0-.03-.02l-.66-.05.6-.06a.2.2 0 0 0 .2-.19l.18-2.28c.48.57.63 1.04.48 1.76-.17.84-.35 1.67-.55 2.5-.2.84-.18 1.73.05 2.67Z" fill="#655D4B"/><path d="m30.44 36.76.2.6a3.85 3.85 0 0 0-1.37-1.55l-.1-.39c.03-.24.11-.43.24-.58.06.3.1.5.16.6.13.25.43.7.87 1.32Z" fill="#BAA982"/><path d="M33.38 36.33c.07.29.15.57.24.84.16.48.2.9.24 1.38.01.2.13.47.33.79-.14.25-.19.47-.15.65.18.89.42 1.95 0 2.87l-.5.19c.25-.6.3-1.23.18-1.88-.12-.6-.32-1.26-.37-1.8a6.21 6.21 0 0 0-.31-1.55c-.19-.52-.33-.94-.43-1.27a3.64 3.64 0 0 0-.87-1.53.1.1 0 0 1 .12-.18c.83.24 1.38.56 1.52 1.49Z" fill="#6E6655"/><path d="M41.83 35.93c.03.03 0 .11-.08.25-.59.96-1.25 1.86-2 2.69-.34.23-.7.3-1.07.23a.08.08 0 0 0-.08.03.08.08 0 0 0-.01.08l.2.44a.09.09 0 0 1-.14.11c-.53-.36-.9-.66-1.37-.73a9.63 9.63 0 0 0-1.41-.07.07.07 0 0 0-.04.06c0 .01 0 .03.02.04l.44.57a.05.05 0 0 1-.04.08l-.03-.01a1.75 1.75 0 0 1-.9-1.32l.14-2.1 6.37-.35ZM18.4 37.1l.67.05a.05.05 0 0 1 .04.04v.03c-.22.79-.53 1.54-.92 2.26-.07.14-.17.44-.3.89l-.6-.47a3.87 3.87 0 0 0-.7-.67 1.48 1.48 0 0 1-.2-.2 89.9 89.9 0 0 0-1.33-1.54.37.37 0 0 1-.07-.25l3.42-.14Z" fill="#5C3919"/><path d="M35.32 38.38c.07.56.37 1 .9 1.32a.05.05 0 0 0 .07-.07l-.44-.57a.07.07 0 0 1 .02-.1l.03-.01c.62 0 1.08.03 1.38.08.46.08.84.37 1.37.73a.09.09 0 0 0 .14-.05v-.06l-.2-.44a.08.08 0 0 1 0-.08.08.08 0 0 1 .09-.03c.38.07.73 0 1.06-.23-.28.3-.57.6-.87.89-.09.09-.12.07-.22.08a.08.08 0 0 0-.07.07c-.03.15-.11.21-.24.2a.2.2 0 0 1-.11-.04c-.34-.25-.57-.4-.67-.4-.45-.08-.97-.22-1.15.1a.08.08 0 0 1-.1.03c-.12-.03-.3-.15-.54-.34-.12-.1-.27-.12-.44-.08v-1Z" fill="#834B31"/><path d="m34.19 39.34.46 1.89c.06.12.1.26.11.43l-.01.81a.1.1 0 0 1-.06.1l-.64.29c.4-.92.17-1.98-.01-2.87-.04-.18.01-.4.15-.65Z" fill="#655D4B"/><path d="M35.32 41.37c0 .27.06.53.15.76l-.09.08-.47.23a.06.06 0 0 1-.08-.03l-.01-.03-.06-.72a1.14 1.14 0 0 0-.11-.43l.07-.4a.12.12 0 0 1 .13-.1l.05.03c.27.2.27 1.12.25 1.42v.03h.03l.04.01h.01v-.01l-.01-1.23v-.01c.02 0 .02 0 .03.02l.07.38Z" fill="#A9A585"/><path d="M35.47 41.56c.05.2.05.38 0 .57-.1-.23-.14-.49-.15-.76l.15.19Z" fill="#9D9073"/><defs><linearGradient id="a" x1="10.42" y1="9.71" x2="68.15" y2="76.02" gradientUnits="userSpaceOnUse"><stop stop-color="#1A1E21"/><stop offset="1" stop-color="#06060A"/></linearGradient></defs></svg>