<svg width="112" height="112" viewBox="0 0 56 56" xmlns="http://www.w3.org/2000/svg"><rect fill="url(#at4rzkxhm)" width="56" height="56" rx="28"/><path d="M34.29 12.61a.8.8 0 1 0 0-1.61.8.8 0 0 0 0 1.61ZM23.27 17.75a5.32 5.32 0 0 0-6.69-.46c-.26.19-.49.43-.67.73-.01.02-.03.02-.05 0-.02 0-.03-.03-.01-.05.3-.49.65-.91 1.08-1.28a12.96 12.96 0 0 1 7.85-3.28c.14 0 .22.05.22.19.04 2.46 0 4.8 0 7.02 0 .23.03.47-.01.74-.05.28-.08.27-.1 0a5.18 5.18 0 0 0-1.62-3.6ZM40.77 25.92c.23-.49.4-.87.96-1.1.4-.17.89.21 1.1.52.38.53.08 1.3-.5 1.53-.4.15-.8.06-1.17-.25a.3.3 0 0 0-.29-.05c-1.3.4-2.59.82-3.88 1.25-.26.1-.5.2-.73.35a.29.29 0 0 0-.12.14c-.22.56-.5 1-1.19.9-1.04-.18-.96-1.27-.54-2a.27.27 0 0 0 .03-.22l-1.15-3.98a.35.35 0 0 0-.24-.25c-.88-.24-1.47-1.06-.71-1.86.25-.28.21-.66.15-1l-.66-3.9a.84.84 0 0 0-.56-.69.32.32 0 0 1-.15-.12c-.85-1.25.73-2.52 1.74-1.16.05.06.1.1.17.1.56.14 2.45.57 2.91.06.97-1.05 2.5.35 1.53 1.4-.66.7-1.4.28-1.82-.43a.29.29 0 0 0-.23-.14c-.75-.07-1.75-.38-2.42-.12-.52.2-.7.68-.57 1.44.21 1.2.4 2.37.57 3.51.1.67.38.7.8 1.1.82.72-.2 1.22.02 1.99l1.04 3.67c.07.23.2.4.4.5.46.22.75.47 1.28.3 1.31-.42 2.67-.87 4.07-1.34a.26.26 0 0 0 .16-.15ZM40.55 17.2a.86.86 0 1 0 0-1.7.86.86 0 0 0 0 1.7Z" fill="#039607"/><path d="m35.87 19.07.12.32c.61 1.2 1.2 2.35 1.78 3.45.35.66 1 .16 1.4.96.13.27.13.54 0 .8-.3.63-1.06.88-1.64.46-.54-.4-.31-1.11-.18-1.67a.36.36 0 0 0-.02-.23 59.36 59.36 0 0 0-2.1-3.98.22.22 0 0 0-.2-.11c-1.19-.02-1.54-1.59-.3-2.02.75-.26 1.41.4 1.3 1.12a.2.2 0 0 0 .1.23l1.83 1.12c.07.04.14.05.21.03.14-.02.27-.06.4-.1.56-.22 1.12.01 1.32.56.5 1.44-1.84 2.17-2 .26a.22.22 0 0 0-.08-.16c-.6-.46-1.21-.83-1.84-1.12-.1-.05-.12-.02-.1.08ZM41.98 22.55a.6.6 0 1 0 0-1.22.6.6 0 0 0 0 1.22ZM23.15 41.22l.15-.07a14.7 14.7 0 0 0 3.39-2.49l1.2-1.18c.1-.1.16-.08.2.06.2 1.09.46 2.2.4 3.3-.06 1.6-.46 3.11-1.2 4.54-.08.17-.19.33-.3.48-.17.21-.23.18-.18-.08a8.72 8.72 0 0 0-.4-4.8c-.1-.23-.25-.28-.46-.14a22.7 22.7 0 0 1-4.77 2.58c-1.03.37-2.36.46-2.83-.79a3.89 3.89 0 0 1-.26-1.38.72.72 0 0 0-.29-.58l-.65-.48a.55.55 0 0 1-.1-.78l.19-.23c.06-.08.04-.11-.06-.1-.4.04-.77-.05-1.11-.26a.2.2 0 0 1-.1-.12c-.09-.3-.04-.6.14-.91.09-.15.07-.32-.05-.5a.38.38 0 0 0-.3-.16c-.95-.02-1.83.15-2.28-.91-.1-.22-.26-.4-.14-.66l1.13-2.35c.2-.42.4-.91.14-1.34-.8-1.39-1.3-2.8-1.49-4.24a19.93 19.93 0 0 1 0-4.32h.05l.02.04c.12 1.25.22 2.57.76 3.64a.12.12 0 0 0 .07.06.12.12 0 0 0 .1-.02 5.8 5.8 0 0 1 2.3-.85c.87-.13 2.85-.03 3.23.94a.15.15 0 0 1-.15.2c-1.5-.14-4.16.19-4.83 1.78-.12.27-.04.34.22.2a5.03 5.03 0 0 1 4.83-.27c.07.04.08.08.03.15a6.23 6.23 0 0 0-.71 6.93c.33.64.78 1.1 1.35 1.39.07.03.14.04.21 0 .3-.1.58-.27.81-.5a8.01 8.01 0 0 0 2.4-4.64.1.1 0 0 1 .15-.02c.68.52 1.38.91 2.1 1.17.06.03.1.07.11.13.05.26 0 .48.11.74.14.32.4.59.74.78a.24.24 0 0 1 .11.31 15.93 15.93 0 0 1-4.04 5.61c-.14.12-.11.17.06.14Zm-7.32-5.4a.24.24 0 0 1-.05-.13l-.05-3c0-.19-.03-.2-.1-.03-.19.46-.34.93-.46 1.4-.14.55-.15 1.13-.33 1.67a.15.15 0 0 0 .1.2l.86.18a.1.1 0 0 0 .09-.02.1.1 0 0 0 .03-.1.44.44 0 0 0-.1-.16Z" fill="#039607"/><path d="M28.05 34.73c1.06.22 1.75-.22 1.74-1.32 0-.08.03-.14.1-.18.13-.08.27-.12.42-.16.11-.03.22-.05.33-.1a5.28 5.28 0 0 0 3.35-4.6c.06-.8-.13-1.68-.58-2.66-.2-.47-.58-.9-.94-1.33-.2-.23-.41-.47-.59-.71a4.45 4.45 0 0 1-.9-2.59c.02-2.65.02-8.52.02-8.52 0-.49-.9-.6-1.3-.62-.97-.06-2.5-.14-3.45.22a.34.34 0 0 0-.16.12l-.01.03c-.04.05-.08.1-.08.16V20.24c0 .97-.04 1.92-.5 2.85-.21.45-.55.82-.87 1.2-.26.28-.5.56-.7.88a5.06 5.06 0 0 0 .27 6.2 5.57 5.57 0 0 0 2.85 1.84c.08.02.13.08.15.16.03.1.04.2.04.3 0 .51.24.94.8 1.06Zm2.07-14.24c.06 0 .12.02.17.06.13.13.12.25-.03.37a.2.2 0 0 1-.12.04H27.4a.17.17 0 0 0-.15.08c-.1.2-.19.4-.23.6a3.23 3.23 0 0 1-.74 1.45c-.12.14-.16.13-.1-.05.28-.74.43-1.53.47-2.39 0-.05.03-.09.06-.12a.19.19 0 0 1 .13-.05h3.29Zm1.02 4.95a3.55 3.55 0 0 1 0 5.1 3.8 3.8 0 0 1-6.1-1.16 3.5 3.5 0 0 1 .82-3.94 3.75 3.75 0 0 1 2.64-1.05c1 0 1.94.38 2.64 1.05Zm-2.86 8.6c-.03.1-.08.16-.14.17-.03.01-.07 0-.1-.01a.33.33 0 0 1-.1-.09.64.64 0 0 1-.1-.14.89.89 0 0 1-.05-.17.75.75 0 0 1-.01-.35c.02-.1.08-.16.14-.17l.1.01c.04.02.07.05.1.09.04.04.07.08.1.14l.05.17c.03.13.03.25 0 .35ZM31.65 28c0 1.67-1.41 3.03-3.15 3.03A3.09 3.09 0 0 1 25.36 28c0-1.68 1.4-3.04 3.14-3.04A3.09 3.09 0 0 1 31.65 28Z" fill="#F6003E"/><path d="M38.59 31.23c-.22.57-.42 1.21-.6 1.93-.08.3.1.52.24.77.2.33.15.78-.04 1.12-.27.48-1 .46-1.42.23-.25-.13-.52-.08-.76.04l-4.32 2.24c-.23.12-.26.46-.28.7-.06.55-.8.93-1.31.74-.78-.3-1.09-1.26-.43-1.85.4-.35 1.04-.25 1.48-.09a.54.54 0 0 0 .44-.03l4.27-2.24c.32-.17.46-.59.58-.92a.48.48 0 0 1 .12-.19c.33-.31.73-.15.93-.7.24-.7.42-1.35.51-1.93a.32.32 0 0 0-.43-.35c-.87.34-1.76.71-2.66 1.1-.28.13-.56.27-.71.57-.43.83-1.14.85-1.59.02a.39.39 0 0 1 0-.34c.13-.31.36-.52.68-.63a.26.26 0 0 1 .18 0c.34.13.67.13 1 0 .8-.32 1.65-.69 2.58-1.1.32-.14.41-.5.5-.8.13-.44.5-.71.96-.7.62.02 1.02.33 1.19.95.16.6-.45 1.07-.94 1.28a.3.3 0 0 0-.17.18ZM40.53 32.75a.53.53 0 1 0 0-1.06.53.53 0 0 0 0 1.06ZM34.92 39.55a.95.95 0 1 0 0-1.9.95.95 0 0 0 0 1.9Z" fill="#039607"/><defs><linearGradient id="at4rzkxhm" x1="10.42" y1="9.71" x2="68.15" y2="76.02" gradientUnits="userSpaceOnUse"><stop stop-color="#1A1E21"/><stop offset="1" stop-color="#06060A"/></linearGradient></defs></svg>