<svg width="112" height="112" xmlns="http://www.w3.org/2000/svg" viewBox="0 0 56 56"><rect fill="url(#paint0_linear)" width="56" height="56" rx="28"/><path d="M16.131 20c-6.173.127-7.922 5.025-8.059 7.454l1.007.308c3.066-4.182 7.564-2.34 9.557-1.214 2.555 1.443 8.606 4.847 12.367 6.917 3.761 2.07 7.666 2.552 9.148 2.534 5.968-.253 7.426-5.51 7.767-7.973l-.817-.58c-2.004 4.646-7.649 3.027-10.221 1.636-2.623-1.496-8.729-4.942-12.163-6.759-3.434-1.816-7.155-2.305-8.585-2.323z" fill="url(#paint1_linear)"/><path d="M47.38 30.134c-.73-3.922-4.89-4.903-6.877-4.903-1.739-.1-4.912.138-8.048 1.312l-2.487-1.376c4.093-3.802 8.637-4.62 10.535-4.524 8.358.54 8.068 6.552 6.878 9.49z" fill="url(#paint2_linear)"/><path d="M15.554 35.441c-8.01-.216-8.097-6.447-7.14-9.535 1.15 3.958 5.24 5.008 7.14 5.038a25.18 25.18 0 007.878-1.671l2.737 1.523c-3.954 3.761-8.664 4.674-10.615 4.645z" fill="url(#paint3_linear)"/><defs><linearGradient id="paint0_linear" x1="9.15" y1="8.289" x2="44.117" y2="50.024" gradientUnits="userSpaceOnUse"><stop stop-color="#5CA3DC"/><stop offset="1" stop-color="#5683DD"/></linearGradient><linearGradient id="paint1_linear" x1="8.006" y1="26.246" x2="47.939" y2="29.747" gradientUnits="userSpaceOnUse"><stop stop-color="#D1E8F7"/><stop offset=".516" stop-color="#EEF3FC"/><stop offset="1" stop-color="#D9DCF8"/></linearGradient><linearGradient id="paint2_linear" x1="30.9" y1="25.836" x2="48.012" y2="27.562" gradientUnits="userSpaceOnUse"><stop stop-color="#99B8ED"/><stop offset="1" stop-color="#F0F2FC"/></linearGradient><linearGradient id="paint3_linear" x1="8" y1="27.092" x2="24.541" y2="30.456" gradientUnits="userSpaceOnUse"><stop stop-color="#FCFEFF"/><stop offset="1" stop-color="#95B7EC"/></linearGradient></defs></svg>