<svg width="112" height="112" viewBox="0 0 56 56" xmlns="http://www.w3.org/2000/svg"><path d="M34.9 42.45a16 16 0 0 1-13.76.02l1.26-2.18a13.45 13.45 0 0 0 11.23-.02l1.26 2.18Zm2.2-1.27c3.92-2.7 6.59-7.13 6.9-12.18h-2.54a13.49 13.49 0 0 1-5.63 10l1.26 2.18ZM38.93 29A10.98 10.98 0 0 1 29 38.92v-2.5A8.49 8.49 0 0 0 36.43 29h2.51Zm0-2A10.98 10.98 0 0 0 29 17.08v2.5A8.49 8.49 0 0 1 36.43 27h2.51Zm2.52 0H44a15.98 15.98 0 0 0-6.9-12.18l-1.26 2.19a13.49 13.49 0 0 1 5.62 10Zm-7.82-11.27a13.45 13.45 0 0 0-11.25-.01l-1.26-2.18a16 16 0 0 1 13.77.01l-1.26 2.18Zm-14.7-.93A15.98 15.98 0 0 0 12 27h2.54c.3-4.13 2.46-7.75 5.65-10.02l-1.26-2.18ZM14.53 29H12c.31 5.07 2.99 9.5 6.94 12.2l1.26-2.18A13.49 13.49 0 0 1 14.54 29Zm2.52 0h2.5A8.49 8.49 0 0 0 27 36.42v2.5A10.98 10.98 0 0 1 17.06 29Zm2.5-2h-2.5A10.98 10.98 0 0 1 27 17.08v2.5A8.49 8.49 0 0 0 19.57 27Zm2.53 0a6 6 0 0 1 11.82 0h-2.56a3.5 3.5 0 0 0-6.7 0h-2.56Zm0 2a6 6 0 0 0 11.82 0h-2.56a3.5 3.5 0 0 1-6.7 0h-2.56Z" fill="#fff"/></svg>