<svg width="112" height="112" viewBox="0 0 56 56" xmlns="http://www.w3.org/2000/svg"><rect fill="url(#aeej25bm3)" width="56" height="56" rx="28"/><path d="M35.1 18.23h-8.44a4.3 4.3 0 0 0-3.26 1.43c-3.3 3.48-10.12 10.65-11 11.5A4.58 4.58 0 0 0 11 34.5c0 3.03 2.8 4.51 4.6 4.51a4.2 4.2 0 0 0 2.73-.89c1.83-1.88 5.52-5.43 5.7-5.43.2 0 .16.24.12.36-.42.6-1.13 1.8-1.46 2.52A4.16 4.16 0 0 0 26.31 39h8.44c3.08 0 4.13-3.86 4.13-4.8 0-.96-.23-1.73-.4-2.08a3.94 3.94 0 0 1-3.28 1.46c-.43 0-.72-.06-.76-.1a.22.22 0 0 1-.06-.18c.01-.1.08-.18.18-.18 3.84-.3 4.32-3.44 4.32-4.56 0-1.13-.4-1.96-.52-2.2-.58.71-1.86 1.8-3.03 1.8-.8 0-.94-.16-.95-.3l.02-.17c1.4-.12 4.48-1.03 4.48-5 0-3.19-2.56-4.3-3.78-4.46Z" fill="#5F5A60" fill-opacity=".66"/><path d="M39.22 18.23h-8.44a4.3 4.3 0 0 0-3.26 1.43 1175.8 1175.8 0 0 1-11 11.5 4.58 4.58 0 0 0-1.4 3.33c0 3.03 2.8 4.51 4.6 4.51a4.2 4.2 0 0 0 2.73-.89c1.83-1.88 5.52-5.43 5.7-5.43.2 0 .16.24.12.36-.42.6-1.13 1.8-1.46 2.52A4.16 4.16 0 0 0 30.43 39h8.44c3.08 0 4.13-3.86 4.13-4.8 0-.96-.23-1.73-.4-2.08a3.94 3.94 0 0 1-3.28 1.46c-.43 0-.72-.06-.76-.1a.22.22 0 0 1-.06-.18c.01-.1.08-.18.18-.18 3.84-.3 4.32-3.43 4.32-4.56 0-1.13-.4-1.96-.52-2.2-.59.71-1.86 1.8-3.03 1.8-.8 0-.94-.16-.95-.3l.02-.17c1.4-.12 4.48-1.03 4.48-5 0-3.19-2.56-4.3-3.78-4.46Z" fill="#5F5A60" fill-opacity=".66"/><path d="M35.5 16h.05a5.03 5.03 0 0 1 4.26 5.13c0 1.2-.25 2.18-.67 2.96.4.85.67 1.73.67 2.69 0 .58-.1 1.64-.64 2.66l.17.37c.23.47.47 1.34.47 2.38 0 .63-.3 1.94-.97 3.1-.68 1.17-1.87 2.38-3.72 2.38H27.19a4.74 4.74 0 0 1-4.1-3.85c-.95.95-1.97 1.98-2.67 2.73l-.02.01v.01a4.65 4.65 0 0 1-3.14 1.1 5.27 5.27 0 0 1-3.56-9.01c.8-.8 7.1-7.63 10.2-11A4.8 4.8 0 0 1 27.58 16h7.92Z" fill="#F6EDD7" fill-opacity=".62"/><path d="M37.18 16h-8.44a4.3 4.3 0 0 0-3.26 1.42c-3.3 3.48-10.12 10.66-11 11.51a4.58 4.58 0 0 0-1.4 3.33c0 3.02 2.8 4.5 4.6 4.5a4.2 4.2 0 0 0 2.74-.88c1.82-1.88 5.51-5.43 5.7-5.43.19 0 .16.23.12.35-.43.61-1.14 1.81-1.47 2.52a4.16 4.16 0 0 0 3.62 3.45h8.44c3.09 0 4.13-3.86 4.13-4.81 0-.95-.23-1.72-.4-2.08a3.94 3.94 0 0 1-3.28 1.47c-.43 0-.72-.07-.75-.1a.22.22 0 0 1-.06-.19c0-.09.07-.17.17-.17 3.84-.3 4.32-3.44 4.32-4.57 0-1.12-.4-1.96-.52-2.2-.58.72-1.86 1.81-3.02 1.81-.8 0-.95-.17-.95-.31l.02-.16c1.4-.12 4.47-1.03 4.47-5.01 0-3.18-2.56-4.3-3.78-4.45Z" fill="url(#beej25bm3)"/><defs><linearGradient id="aeej25bm3" x1="28" y1="0" x2="29" y2="55.5" gradientUnits="userSpaceOnUse"><stop stop-color="#FACBD6"/><stop offset=".26" stop-color="#EED6C1"/><stop offset=".78" stop-color="#59545D"/><stop offset=".97" stop-color="#576097"/></linearGradient><linearGradient id="beej25bm3" x1="27.02" y1="16" x2="27.02" y2="36.77" gradientUnits="userSpaceOnUse"><stop stop-color="#E0B5A0"/><stop offset="1" stop-color="#7A7062"/></linearGradient></defs></svg>