<svg width="112" height="112" viewBox="0 0 56 56" xmlns="http://www.w3.org/2000/svg"><circle cx="22.33" cy="21.39" r="8.5" fill="#84BCBB" fill-opacity=".6"/><circle cx="27.06" cy="19.5" r="8.5" fill="#84BCBB" fill-opacity=".6"/><circle cx="32.72" cy="21.39" r="8.5" fill="#84BCBB" fill-opacity=".6"/><circle cx="36.5" cy="27.06" r="8.5" fill="#84BCBB" fill-opacity=".6"/><circle cx="19.5" cy="27.06" r="8.5" fill="#84BCBB" fill-opacity=".6"/><circle cx="22.33" cy="34.61" r="8.5" fill="#84BCBB" fill-opacity=".6"/><circle cx="28" cy="36.5" r="8.5" fill="#84BCBB" fill-opacity=".6"/><circle cx="32.72" cy="34.61" r="8.5" fill="#84BCBB" fill-opacity=".6"/><path d="M12.03 21.27a9 9 0 0 1 14.94 7.47 9 9 0 0 1-14.94-7.47Z" fill="url(#a)"/><path d="M12 34a9.04 9.04 0 0 1 15.89-5.28A9.04 9.04 0 0 1 12 34Z" fill="url(#b)"/><path d="M21.21 42.97a9.01 9.01 0 0 1 7.49-14.94 9.01 9.01 0 0 1-7.49 14.94Z" fill="url(#c)"/><path d="M21.21 13.03a9.01 9.01 0 0 0 7.49 14.94 9.01 9.01 0 0 0-7.49-14.94Z" fill="url(#d)"/><path d="M41.97 21.27a9.01 9.01 0 0 0-14.98 7.47 9.01 9.01 0 0 0 14.98-7.47Z" fill="url(#e)"/><path d="M41.92 34a9.04 9.04 0 0 0-15.89-5.28A9.04 9.04 0 0 0 41.93 34Z" fill="url(#f)"/><path d="M32.71 42.97a9.01 9.01 0 0 0-7.49-14.94 9.01 9.01 0 0 0 7.49 14.94Z" fill="url(#g)"/><path d="M32.71 13.03a9.01 9.01 0 0 1-7.49 14.94 9.01 9.01 0 0 1 7.49-14.94Z" fill="url(#h)"/><path d="M36 19a9.01 9.01 0 0 1-9.73 8.94c-.1-.1-.18-.2-.27-.32A9.01 9.01 0 0 1 36 19Z" fill="url(#i)"/><path d="M17 19a9.01 9.01 0 0 0 9.73 8.94c.1-.1.18-.2.27-.32A9.01 9.01 0 0 0 17 19Z" fill="url(#j)"/><path d="M40 27.97c-3.68-3.86-9.66-4.17-13 0 3.79 3.74 9.79 4.26 13 0Z" fill="url(#k)"/><path d="M14 27.97c3.68-3.86 9.66-4.17 13 0-3.79 3.74-9.79 4.26-13 0Z" fill="url(#l)"/><path d="M27.14 15c3.86 3.6 3.86 9.77-.3 13.03-.14 0 .15 0 0 0-3.73-3.7-3.94-9.9.3-13.03Z" fill="url(#m)"/><path d="M37 37a9.01 9.01 0 0 0-9.73-8.94c-.1.1-.18.2-.27.32A9.01 9.01 0 0 0 37 37Z" fill="url(#n)"/><path d="M18 37a9.01 9.01 0 0 1 9.73-8.94c.1.1.18.2.27.32A9.01 9.01 0 0 1 18 37Z" fill="url(#o)"/><path d="M28.14 41c3.86-3.6 3.86-9.77-.3-13.03-.14 0 .15 0 0 0-3.73 3.7-3.94 9.9.3 13.03Z" fill="url(#p)"/><path d="M27 28c0-1.17-.5-4-2.5-6 .17 1.5.9 4.8 2.5 6Z" fill="url(#q)"/><path d="M27 28c0 1.17-.5 4-2.5 6 .17-1.5.9-4.8 2.5-6Z" fill="url(#r)"/><path d="M27 28c-1.17 0-4-.5-6-2.5 1.5.17 4.8.9 6 2.5Z" fill="url(#s)"/><path d="M27 28c1.17 0 4-.5 6-2.5-1.5.17-4.8.9-6 2.5Z" fill="url(#t)"/><path d="M27 28c0-1.17.5-4 2.5-6-.17 1.5-.9 4.8-2.5 6Z" fill="url(#u)"/><path d="M27 28c0 1.17.5 4 2.5 6-.17-1.5-.9-4.8-2.5-6Z" fill="url(#v)"/><path d="M27 28c-1.17 0-4 .5-6 2.5 1.5-.17 4.8-.9 6-2.5Z" fill="url(#w)"/><path d="M27 28c1.17 0 4 .5 6 2.5-1.5-.17-4.8-.9-6-2.5Z" fill="url(#x)"/><defs><linearGradient id="a" x1="13" y1="21.5" x2="26" y2="28" gradientUnits="userSpaceOnUse"><stop stop-color="#7FCCC9"/><stop offset="1" stop-color="#59B4F5"/></linearGradient><linearGradient id="b" x1="12.35" y1="27.12" x2="26.17" y2="22.5" gradientUnits="userSpaceOnUse"><stop stop-color="#7FCCC9"/><stop offset="1" stop-color="#59B4F5"/></linearGradient><linearGradient id="c" x1="16.58" y1="37.85" x2="23.07" y2="24.84" gradientUnits="userSpaceOnUse"><stop stop-color="#7FCCC9"/><stop offset="1" stop-color="#59B4F5"/></linearGradient><linearGradient id="d" x1="16.58" y1="18.15" x2="23.07" y2="31.16" gradientUnits="userSpaceOnUse"><stop stop-color="#7FCCC9"/><stop offset="1" stop-color="#59B4F5"/></linearGradient><linearGradient id="e" x1="41" y1="21.5" x2="27.98" y2="28.03" gradientUnits="userSpaceOnUse"><stop stop-color="#7FCCC9"/><stop offset="1" stop-color="#59B4F5"/></linearGradient><linearGradient id="f" x1="41.57" y1="27.12" x2="27.75" y2="22.5" gradientUnits="userSpaceOnUse"><stop stop-color="#7FCCC9"/><stop offset="1" stop-color="#59B4F5"/></linearGradient><linearGradient id="g" x1="37.34" y1="37.85" x2="30.85" y2="24.84" gradientUnits="userSpaceOnUse"><stop stop-color="#7FCCC9"/><stop offset="1" stop-color="#59B4F5"/></linearGradient><linearGradient id="h" x1="37.34" y1="18.15" x2="30.85" y2="31.16" gradientUnits="userSpaceOnUse"><stop stop-color="#7FCCC9"/><stop offset="1" stop-color="#59B4F5"/></linearGradient><linearGradient id="i" x1="35" y1="20.45" x2="27.98" y2="27.95" gradientUnits="userSpaceOnUse"><stop stop-color="#C7F3EF"/><stop offset="1" stop-color="#3E9CF8"/></linearGradient><linearGradient id="j" x1="18" y1="20.45" x2="25.02" y2="27.95" gradientUnits="userSpaceOnUse"><stop stop-color="#C7F3EF"/><stop offset="1" stop-color="#3E9CF8"/></linearGradient><linearGradient id="k" x1="38.46" y1="26.15" x2="28.2" y2="25.82" gradientUnits="userSpaceOnUse"><stop stop-color="#C7F3EF"/><stop offset="1" stop-color="#3E9CF8"/></linearGradient><linearGradient id="l" x1="15.54" y1="26.15" x2="25.8" y2="25.82" gradientUnits="userSpaceOnUse"><stop stop-color="#C7F3EF"/><stop offset="1" stop-color="#3E9CF8"/></linearGradient><linearGradient id="m" x1="27.07" y1="17.03" x2="27.39" y2="27.06" gradientUnits="userSpaceOnUse"><stop stop-color="#C7F3EF"/><stop offset="1" stop-color="#3E9CF8"/></linearGradient><linearGradient id="n" x1="36" y1="35.55" x2="28.98" y2="28.05" gradientUnits="userSpaceOnUse"><stop stop-color="#C7F3EF"/><stop offset="1" stop-color="#3E9CF8"/></linearGradient><linearGradient id="o" x1="19" y1="35.55" x2="26.02" y2="28.05" gradientUnits="userSpaceOnUse"><stop stop-color="#C7F3EF"/><stop offset="1" stop-color="#3E9CF8"/></linearGradient><linearGradient id="p" x1="28.07" y1="38.97" x2="28.39" y2="28.94" gradientUnits="userSpaceOnUse"><stop stop-color="#C7F3EF"/><stop offset="1" stop-color="#3E9CF8"/></linearGradient><linearGradient id="q" x1="24" y1="22" x2="27" y2="28" gradientUnits="userSpaceOnUse"><stop stop-color="#C8F1F0"/><stop offset="1" stop-color="#3E9BF9"/></linearGradient><linearGradient id="r" x1="23.5" y1="34" x2="26.5" y2="28" gradientUnits="userSpaceOnUse"><stop stop-color="#C8F1F0"/><stop offset="1" stop-color="#3E9BF9"/></linearGradient><linearGradient id="s" x1="21" y1="24" x2="27" y2="27" gradientUnits="userSpaceOnUse"><stop stop-color="#C8F1F0"/><stop offset="1" stop-color="#3E9BF9"/></linearGradient><linearGradient id="t" x1="34" y1="24.5" x2="28" y2="27.5" gradientUnits="userSpaceOnUse"><stop stop-color="#C8F1F0"/><stop offset="1" stop-color="#3E9BF9"/></linearGradient><linearGradient id="u" x1="28" y1="22" x2="25" y2="28" gradientUnits="userSpaceOnUse"><stop stop-color="#C8F1F0"/><stop offset="1" stop-color="#3E9BF9"/></linearGradient><linearGradient id="v" x1="27.5" y1="34" x2="24.5" y2="28" gradientUnits="userSpaceOnUse"><stop stop-color="#C8F1F0"/><stop offset="1" stop-color="#3E9BF9"/></linearGradient><linearGradient id="w" x1="21" y1="28" x2="27" y2="25" gradientUnits="userSpaceOnUse"><stop stop-color="#C8F1F0"/><stop offset="1" stop-color="#3E9BF9"/></linearGradient><linearGradient id="x" x1="34" y1="28.5" x2="28" y2="25.5" gradientUnits="userSpaceOnUse"><stop stop-color="#C8F1F0"/><stop offset="1" stop-color="#3E9BF9"/></linearGradient></defs></svg>