<svg width="112" height="112" viewBox="0 0 56 56" xmlns="http://www.w3.org/2000/svg"><path fill-rule="evenodd" d="M27.54 19.76c-.02-.26-.1-.51-.23-.73-.27-.43-.76-.7-1.35-.76a3.22 3.22 0 0 0-2.55 1.12c-.2.25-.36.52-.47.8a2 2 0 0 0-.13.82c.02.26.1.51.23.73.27.43.76.7 1.35.75.6.06 1.24-.11 1.8-.47.29-.18.54-.4.75-.64.2-.25.36-.52.47-.8a2 2 0 0 0 .13-.82Zm-1.53.49a.28.28 0 0 0-.18 0c-.27.1-.48.32-.64.64a.26.26 0 0 0 .12.35c.04.02.09.03.14.02.54-.05.82-.22.85-.52 0-.07 0-.15-.03-.22a.48.48 0 0 0-.1-.18.35.35 0 0 0-.16-.1Z" fill="#010101"/><path d="M26.94 23.73c.34.3.72.47 1.14.49a.33.33 0 0 0 .3-.17.35.35 0 0 0 0-.34l-.3-.53a.39.39 0 0 1 .19-.55.38.38 0 0 1 .22-.02c.9.18 1.37.44 1.4.8.03.17-.08.32-.32.44a.97.97 0 0 0-.48.53.36.36 0 0 0 .02.3.34.34 0 0 0 .25.16c.3.05.53.06.67.04a.33.33 0 0 1 .36.2.35.35 0 0 1-.09.4c-.2.18-.4.23-.62.14-.92-.39-1.7-.66-2.38-.81a1.1 1.1 0 0 1-.63-.43c-.1-.14-.13-.31-.1-.53a.22.22 0 0 1 .15-.17.22.22 0 0 1 .22.05Z" fill="#010101"/><path fill-rule="evenodd" d="M33.1 25.73a1.66 1.66 0 0 0 1.5-.18c.22-.15.42-.35.57-.6.16-.25.27-.53.34-.84a2.96 2.96 0 0 0-.74-2.6 2 2 0 0 0-.7-.46 1.66 1.66 0 0 0-1.5.18c-.23.15-.42.36-.58.6a2.97 2.97 0 0 0 .4 3.44c.21.21.45.37.7.46Zm.02-1.82c.07-.03.11-.1.14-.18.04-.17.05-.44.01-.79-.04-.31-.23-.4-.58-.28-.13.04-.17.33-.13.85a.5.5 0 0 0 .33.42.3.3 0 0 0 .23-.02Z" fill="#010101"/><path d="M30.92 45c.44-.03.9-.7.9-.7l1.96-5.8a.39.39 0 0 1 .44-.27c.06.01.12.04.17.08.47.36 1.05.51 1.73.44.29-.03.56-.18.76-.42.2-.24.3-.56.31-.89.02-2.62-.63-5.18-1.96-7.69a.57.57 0 0 1 .19-.73A7.62 7.62 0 0 0 39 22.33a1.23 1.23 0 0 1 .48-.96c3.01-2.41 1.24-6.84-2.64-5.24a.63.63 0 0 1-.68-.13 11.11 11.11 0 0 0-8.54-3.17c-.32.03-.65-.08-.9-.3l-.55-.5c-.97-.9-1.73-1.61-3.27-.34-1.43 1.17-1.24 2.13-1.07 3.01.12.63.23 1.22-.24 1.82a7.34 7.34 0 0 0-1.71 4.89.27.27 0 0 1-.17.26.27.27 0 0 1-.3-.07A5.94 5.94 0 0 0 17 19.92a1.62 1.62 0 0 0-1.36.17c-.2.12-.35.3-.46.49-.11.2-.17.42-.18.64-.07 3.18 1.64 4.97 3.67 7.1l.52.53a.71.71 0 0 1 .16.67c-.86 3.24-.97 6.79-.31 10.64l.09.54c.33 2.08.58 3.61 2.95 3.41.23-.02.45-.1.64-.25a4.93 4.93 0 0 0 1.71-2.51.54.54 0 0 1 .59-.4l3.03.37a.7.7 0 0 1 .59.5c.27.95.69 1.78 1.24 2.48 0 0 .56.73 1.04.7Zm1.17-30.82c4.7 1.6 7.77 6.04 5.92 11.17-1.71 4.77-6.73 3.96-10.56 2.66-3.83-1.3-8.3-3.72-6.8-8.56 1.63-5.2 6.76-6.87 11.44-5.27ZM20.33 29.3c3.57.43 7.12 1.43 10.65 3 .22.1.4.27.52.49l1.78 3.08a.71.71 0 0 1 .04.64c-1.84 4.43-5.18 4.31-9.57 3.43a2.6 2.6 0 0 1-.8-.3c-3.77-2.16-4.83-5.5-3.18-9.99a.54.54 0 0 1 .56-.35Z" fill="#010101"/></svg>