<svg width="112" height="112" viewBox="0 0 56 56" xmlns="http://www.w3.org/2000/svg"><circle cx="28" cy="28" r="16" fill="url(#amexsoenp)"/><path d="m12.11 26.1-.05.56C14.44 24.63 20.4 21 26.85 21c5.23 0 8.23 3 9.07 4.54l-.84 6.62-9.39 5.18-.69.53V25.9a1.88 1.88 0 1 0-3.77 0v16.6c1.19.55 2.45.96 3.77 1.2V40.4c4.86-.64 13-3.55 13-11.57 0-3.05-2.26-6.35-3.46-7.61l-6.3-1.83-7.09 1.07-5.46 2.81-3.58 2.83Z" fill="url(#bmexsoenp)"/><path d="m12.14 25.71-.06.5c3.45-3.28 9.86-5.72 14.57-5.72 4.85 0 8.35 2.9 8.35 6.46 0 5.22-7.71 7.7-11 8.17V26a2 2 0 0 0-4 0v19a2 2 0 1 0 4 0v-6.02C36.6 36 38 29.4 38 27.39c0-2-1.49-8.39-10.72-8.39-6.68 0-12.45 4.08-15.14 6.71Z" fill="url(#cmexsoenp)"/><defs><linearGradient id="amexsoenp" x1="40.31" y1="18.38" x2="13.54" y2="34.77" gradientUnits="userSpaceOnUse"><stop stop-color="#FD2307"/><stop offset="1" stop-color="#FDB106"/></linearGradient><linearGradient id="bmexsoenp" x1="33.72" y1="20.6" x2="24.09" y2="43.15" gradientUnits="userSpaceOnUse"><stop stop-color="#E67F5E"/><stop offset="1" stop-color="#FCC252"/></linearGradient><linearGradient id="cmexsoenp" x1="23.69" y1="41.07" x2="21.43" y2="46.49" gradientUnits="userSpaceOnUse"><stop stop-color="#FEFEFC"/><stop offset="1" stop-color="#FFC125"/></linearGradient></defs></svg>