<svg width="112" height="112" viewBox="0 0 56 56" xmlns="http://www.w3.org/2000/svg"><rect fill="#F0F3FA" width="56" height="56" rx="28"/><path d="M32.8 12.2c-.07-.02-.12-.01-.16 0a.13.13 0 0 0-.08.09.25.25 0 0 0 0 .13 4.43 4.43 0 0 1-.1-.06.24.24 0 0 0-.1-.03c-.62-.07-1.26-.1-1.9-.07-.62.01-1.25 0-1.9-.03a21.94 21.94 0 0 0-3.98.17c.16.02.14.14-.05.37l-.44-.26a.23.23 0 0 0-.25 0 .82.82 0 0 0-.4.63c-.02.13.02.23.12.3.26.17.54.28.85.31.1.01.17-.03.21-.13.04-.1.02-.18-.06-.25-.12-.1-.1-.14.05-.13.22.02.47.12.76.32-.21.64-.48 1.29-.81 1.93-.03.06.05.1.25.12l-1.27 2.77a.18.18 0 0 0 .07.22l.08.02 1.62.05c.17 0 .25-.08.25-.25l-.04-.66c0-.16-.1-.24-.25-.22l-.84.07c-.16.02-.18-.03-.07-.14a.48.48 0 0 1 .29-.12c.09-.01.14-.06.14-.16.01-.28.05-.54.12-.8a.4.4 0 0 1 .24-.27c.12-.05.16-.01.12.12a.45.45 0 0 1-.15.21.32.32 0 0 0-.13.29c0 .12 0 .23-.05.34-.08.22 0 .33.22.33l2.69.06-1.91.07a.23.23 0 0 0-.16.07.24.24 0 0 0-.07.16c-.02.34.04.65.18.93.03.07.01.1-.06.12l-.4.08c-.1.02-.14.07-.14.17v.88c0 .04.01.08.04.1.03.03.06.05.1.05a.8.8 0 0 0 .41-.12c.13-.07.15-.05.07.08-.08.13-.2.18-.35.13a.68.68 0 0 0-.27-.02l-.52.07c-.12.02-.15.08-.1.19.13.3.18.64.15 1 0 .14.06.23.2.27.02 0 .04.02.05.05.07.1.04.16-.08.17l-1.22.01c-.13 0-.18.07-.15.2.06.36.05.7-.02 1.04a.12.12 0 0 1-.1.1h-.02a.12.12 0 0 1-.07-.12c0-.31 0-.63-.03-.95a.29.29 0 0 0-.09-.19.27.27 0 0 0-.19-.07l-.87.01c-.16 0-.27.09-.34.25l-.4 1.03c-.07.18-.01.27.18.25 1.3-.09 2.61-.1 3.92 0 .03 0 .05.01.05.04v.08a.03.03 0 0 1-.01.01.02.02 0 0 1-.02.01c-1.31-.06-2.7-.03-4.15.07a.32.32 0 0 0-.18.08.33.33 0 0 0-.1.17c-.11.4-.27.78-.5 1.13-.06.12-.03.18.1.2l1.08.07c-.59.05-.8.11-.63.2-.44-.03-.69.02-.75.14a68.7 68.7 0 0 0-1.57 3.51l.02-.16c-.32.2-.53.36-.63.44-.3.27-.38.21-.22-.17.01-.04.06-.11.15-.21.06-.08.07-.15.01-.23-.2-.26-.38-.3-.56-.1l-2.41-1.27c.31-.44.39-.76.21-.94l7.9-14.1a.72.72 0 0 1 .5-.36c1.03-.16 2.07-.06 3.08-.06h4.67c.3 0 .69.05 1.16.16Z" fill="#5E7E42"/><path d="M32.8 12.2c.4.14.78.34 1.12.6.32.25.52.5.62.78l1.11 3.28c.45 1.34 1.07 2.6 1.5 3.95.08.25.28.46.39.7.91 2.09 1.79 4.18 2.62 6.28.7 1.76 1.5 3.74 2.41 5.92.38.92.9 1.6 1.11 2.65.05.24.18.4.4.47.26.1.3.03.13-.2a1.47 1.47 0 0 1-.15-1.66.18.18 0 0 1 .12-.1.17.17 0 0 1 .14.04c.12.1.2.24.24.4.01.09.06.11.13.09.04-.02.07-.06.08-.12.08-.45.23-.83.44-1.12a.24.24 0 0 1 .16-.1.23.23 0 0 1 .17.05l.07.06a.14.14 0 0 1 .03.17c-.37.67.03 1.32-.74 1.78-.01 0-.02.01-.01.02l.05.1c.04.07.1.1.18.05l.57-.3c.28-.16.37-.08.26.22-.13.37-.45.58-.97.6-.06 0-.1.04-.11.1l-.02.13a.1.1 0 0 0 .03.08.1.1 0 0 0 .07.04l.9-.03c.09 0 .14.05.15.14v.09c0 .06-.02.1-.08.1-.31.05-.65.1-1 .17-.06.01-.09.05-.09.11 0 .09.04.14.13.15.32.04.55.16.7.36.09.13.06.21-.08.26l-.1.03a.24.24 0 0 1-.17-.02.26.26 0 0 1-.13-.13.48.48 0 0 0-.15-.2c-.1-.09-.15-.06-.11.08.1.41.29.7.56.84.34.18.32.32-.05.41l-.64.16c-.14.03-.19.12-.16.27l.1.49c.03.13-.02.2-.15.2-1.26.1-2.51.2-3.75.28-.24.01-.34-.1-.56-.15a.38.38 0 0 0-.27.04c-.22.12-.44.18-.64.18-1.67.05-3.43-.13-5.28-.53.63-.14 1.28-.2 1.92-.2 1.07.02 1.71.02 1.93 0 .86-.03 1.73-.01 2.6.06.84.36 1.61.35 2.33-.04.17-.1.16-.14-.03-.13l-2.3.06a4.66 4.66 0 0 0-1.04-.11c-1.46.04-2.84-.08-4.13-.35a8.84 8.84 0 0 0-1.98-.2c-1.56.03-3.1-.1-4.65-.4-.91-.16-2.12-.21-3.62-.13-.41.02-.77-.1-1.08-.35a.5.5 0 0 0-.33-.11c-.5.02-1.02.06-1.57.13-.04 0-.06.03-.05.07 0 .05.02.07.06.07.42-.01.79.05 1.1.2.38.17.36.27-.05.3-1.96.17-3.95.07-5.82.05-.11 0-.24-.02-.38-.05a.89.89 0 0 0-.27-.03c-.61.03-1.23.03-1.84 0-.24-.13-.46-.3-.66-.52a.28.28 0 0 0-.27-.1.94.94 0 0 0-.2.07.8.8 0 0 1-.53.03 1.04 1.04 0 0 1-.5-.3 8.94 8.94 0 0 0-2.28-1.77c-.52-.29-.58-.64-.18-1.06.95-1.02 1.54-2.43 2.28-3.65.16.22.07.57-.28 1.04-.08.2-.1.31-.08.36l-1.26 2.13a.24.24 0 0 0-.02.17c.01.06.05.11.1.14l3.63 2.28a.4.4 0 0 0 .23.07c.07 0 .13 0 .2.02 0 .02.02.04.04.06.03.03.06.04.1.04l21.54-.15c.54.1 1.1.11 1.68.03a.75.75 0 0 1 .6 0c.33.16.76.14 1.3-.04.29-.12.51-.3.67-.55.17-.27.26-.25.27.08 0 .15-.02.3-.08.45-.04.12 0 .16.11.1.18-.09.32-.21.44-.38.1-.14.17-.13.24.02l.08.18c.06.14-.02.18.12.14 2.58-.67 1.58.17 1.06-1.89-.02-.09-.09-.16-.2-.2l-.06-.06a.99.99 0 0 0-.02-.6c-.03-.1-.1-.14-.19-.14-.2 0-.4.04-.59.1a3 3 0 0 0-1.16-.1c-.04-.13-.04-.22 0-.3h.26c.05-.01.08-.04.1-.07.01-.04 0-.08-.03-.14.12.01.2.06.24.15.33.11.63.12.91.02.09-.04.11-.1.08-.19l-1.43-3.67c-.1-.25-.2-.33-.3-.25-.04 0-.1-.04-.19-.13.08-1.1-.52-1.95-.86-2.92-.03-.06-.06-.1-.1-.12a.29.29 0 0 0-.17-.02c-.12.04-.15-.08-.09-.36a1.5 1.5 0 0 0-.76-.1c-.16 0-.28-.08-.35-.25-.06-.13-.02-.16.1-.09.25.16.53.16.83.02.1-.05.1-.1.02-.17a1.1 1.1 0 0 0-.45-.21c-.16-.05-.19-.13-.07-.25a.24.24 0 0 1 .1-.07c.12-.05.18-.14.17-.28 0-.1-.06-.14-.15-.14-.9 0-1.82-.05-2.73-.14-.23-.02-.44 0-.62.07-.04.02-.07.02-.12-.01a.93.93 0 0 0-.49-.11c-.14 0-.15-.04-.03-.11l.07-.04a.38.38 0 0 1 .23-.06 5 5 0 0 0 1.03-.04c.81-.11 1.57.25 2.43.14.15-.02.16-.06.02-.13-.47-.26-.86-.36-1.15-.3-.35.06-.62-.01-.82-.21-.05-.04-.05-.1-.01-.16.2-.06.4 0 .56.18.14.17.23.14.25-.08.04-.3.23-.45.57-.43.11 0 .16-.05.14-.17-.01-.08-.07-.14-.18-.17a5.45 5.45 0 0 0-.81-2.14c-.3-.14-.62-.2-.99-.14-.04 0-.07-.02-.06-.07l.02-.14c0-.03.03-.05.06-.06l.47-.08c.1-.02.14-.07.12-.17l-.08-.5-1.8-5.03-.63-1.46c-.01.07-.05.05-.11-.05a1 1 0 0 0-.25-.83.28.28 0 0 0-.21-.1l-7.8-.1c-.08 0-.14.05-.17.13l-.27.79a.4.4 0 0 1-.09.25c-.16.23-.26.48-.3.73a.71.71 0 0 1-.1.25l-.21.34c-.2-.02-.28-.06-.25-.12.33-.64.6-1.29.81-1.93.25-.36-.03-.62-.84-.8.2-.22.2-.34.05-.36l7.89.3a.13.13 0 0 0 .1-.05.13.13 0 0 0 .03-.1.32.32 0 0 0-.04-.13.25.25 0 0 1 0-.13.13.13 0 0 1 .08-.1.35.35 0 0 1 .15 0Z" fill="#2C4616"/><path d="M24.53 12.77c.81.17 1.09.43.84.79-.29-.2-.54-.3-.76-.32-.16-.01-.17.03-.05.13.08.07.1.15.06.25-.04.1-.1.14-.21.13-.31-.03-.6-.14-.85-.3a.29.29 0 0 1-.13-.3c.04-.3.18-.5.41-.64a.23.23 0 0 1 .25 0l.44.26ZM33 12.8a.1.1 0 0 1-.02-.13.1.1 0 0 1 .02-.03c.14-.1.28-.07.41.11a.1.1 0 0 1 .01.1.1.1 0 0 1-.08.06.41.41 0 0 1-.35-.12ZM34.2 14.15c-.4-.38-.8-.36-1.2.06-.13.14-.1.16.06.07.14-.06.27-.1.4-.08.09.01.16.05.23.1.15.15.36.12.63-.1l.62 1.46v.19c0 .1-.05.15-.15.13l-.2-.02c-.08-.02-.12.02-.12.1v.18l.03.09c.02.02.05.04.08.04l.34.06c.35.05.38.17.08.37l-.3.15c-.17.06-.18.14-.04.24.18.12.25.29.2.5a.1.1 0 0 0 .02.08.1.1 0 0 0 .06.04c.15.02.22.1.22.25a.3.3 0 0 1-.07.22.55.55 0 0 0-.11.18c-.04.12-.02.15.08.07a.17.17 0 0 1 .1-.02c.1 0 .17.03.22.12.28.48.45.99.5 1.52.01.08 0 .15-.03.2-.09.17-.04.24.14.22.16-.03.42.02.76.12l.08.5c.02.1-.02.15-.12.17l-.47.08c-.03 0-.05.03-.06.06l-.02.14c0 .05.02.07.06.07.37-.05.7 0 .99.14-.34.24-.8.28-1.39.12a.2.2 0 0 1-.15-.17 26.95 26.95 0 0 0-.17-1.22c0-.03.02-.05.05-.06a.07.07 0 0 0 .05-.07c0-.09-.04-.15-.1-.18a.1.1 0 0 0-.09-.01c-.37.1-.76.11-1.15.02-.2-.35-.27-.72-.21-1.1.17-.08.37-.13.6-.18a.1.1 0 0 0 .05-.03l.02-.07c0-.06-.03-.08-.09-.07-.52.12-.88.17-1.09.14a7.47 7.47 0 0 0-1.38-.13c.1-.12.09-.23-.02-.36.18-.17.19-.45.04-.83-.04-.4.17-.92-.14-1.23v-.1a.11.11 0 0 0-.05-.09.1.1 0 0 0-.09-.01l-.47.14c-.16.02-.27.1-.34.26-.03.2.03.47.16.8l-.48.01c-.25-.02-.47 0-.66.1-.08.04-.11.1-.1.2l.1.75c.02.13-.03.19-.16.2l-1.86.03c.02-.47-.06-.88-.24-1.24l-2.69-.06c-.23 0-.3-.11-.22-.33a.83.83 0 0 0 .05-.34c0-.12.04-.21.13-.29a.45.45 0 0 0 .14-.21c.04-.13 0-.17-.11-.12a.4.4 0 0 0-.24.28c-.07.25-.1.51-.12.8 0 .09-.05.14-.14.15-.11.01-.2.05-.29.12-.1.11-.09.16.06.14l.85-.07c.16-.02.24.06.25.22l.03.66c.01.17-.07.26-.24.25l-1.62-.05a.17.17 0 0 1-.14-.08.18.18 0 0 1 0-.16l1.26-2.77.2-.34a.71.71 0 0 0 .1-.25c.05-.25.15-.5.31-.73.26.2.5.22.73.08.1-.06.1-.1-.02-.11-.1-.02-.21-.03-.36-.03-.2 0-.28-.07-.26-.2l.27-.78c.03-.08.09-.12.18-.12l7.79.09a.27.27 0 0 1 .2.1 1 1 0 0 1 .26.83Z" fill="#E7FBC5"/><path d="m30.18 13.92.05-.16c.05-.15.09-.15.1.01l.03.27c0 .09-.03.14-.12.17-.3.09-.57.1-.84.05-.12-.03-.18.02-.18.15l.02.55c0 .06.01.11.05.16.03.04.08.08.13.1.15.04.3.02.46-.07.13-.07.23-.04.3.1.09.23.14.45.14.67 0 .05-.02.07-.07.07h-.07c.1-.6-.13-.83-.71-.67-.24.06-.36-.03-.38-.28l-.04-.49a.36.36 0 0 0-.11-.23.35.35 0 0 0-.24-.1h-.4c-.12 0-.2-.07-.22-.2-.05-.25 0-.43.13-.54.1-.1.14-.07.1.06-.1.35.02.54.37.58.44.04.86.04 1.25 0a.29.29 0 0 0 .25-.2Z" fill="#5E7E42"/><path d="M32.56 14.16c.06.16.02.2-.13.14a.2.2 0 0 1-.13-.16.96.96 0 0 1 .05-.55c.09-.2.13-.18.12.02 0 .2.03.4.1.55ZM34.2 14.15c.07.1.1.12.12.05-.27.22-.48.25-.63.1a.38.38 0 0 0-.23-.1.69.69 0 0 0-.4.08c-.17.1-.19.07-.05-.07.39-.42.79-.44 1.2-.06Z" fill="#4C6D2E"/><path d="M31.71 14.08c-.14.19-.24.4-.31.6-.05.15-.09.15-.12 0-.06-.38.05-.63.33-.74.19-.07.22-.02.1.14Z" fill="#2C4616"/><path d="M25.5 14.04c-.01.13.08.19.27.2.15 0 .27 0 .36.02.11.02.12.05.02.11-.23.14-.47.11-.73-.08a.4.4 0 0 0 .09-.25ZM32.6 15.4a.1.1 0 0 0 .11-.03.12.12 0 0 0 .02-.12.78.78 0 0 1-.03-.46c.03-.15.06-.15.1 0l.06.36c.02.11.09.18.2.2l.19.06a.13.13 0 0 0 .16-.1v-.06l-.07-.44c-.02-.1 0-.18.06-.25.04-.07.1-.12.17-.15.1-.06.14-.03.1.08a.4.4 0 0 0 0 .35c.04.05.08.07.13.03.25-.15.47-.13.68.05.1.1.09.15-.04.19-.17.04-.34.04-.52 0-.09-.02-.14.02-.17.1l-.01.08c0 .06.04.1.08.14.21.16.37.16.47.03.05-.08.12-.09.2-.03l.08.07c.07.06.06.11 0 .17l-.23.16a.19.19 0 0 1-.22.01 2.52 2.52 0 0 0-1.55-.25c-.05 0-.08-.01-.1-.06-.04-.07-.02-.11.06-.12h.08Z" fill="#5E7E42"/><path d="M32.31 15.17c.05.04.07.08.08.13.01.09-.02.12-.1.08a.6.6 0 0 0-.27-.06.13.13 0 0 1-.1-.05.14.14 0 0 1-.02-.04v-.06c0-.09.04-.16.1-.22a.1.1 0 0 1 .13-.02c.06.04.1.1.13.16a.2.2 0 0 0 .05.08Z" fill="#2C4616"/><path d="M28.06 15.53c-.07-.22-.22-.31-.44-.27-.08.02-.13-.02-.13-.1l-.01-.07c0-.03 0-.04.03-.04.22-.02.46.02.7.11.11.05.13.12.03.22a.21.21 0 0 0-.07.14c-.02.17-.05.18-.1 0ZM26.5 16.36l-.43-.05a.17.17 0 0 1-.1-.05.17.17 0 0 1-.05-.1c0-.27.05-.5.18-.68.05-.08.09-.07.1.03.02.1 0 .18-.06.25a.22.22 0 0 0-.03.24c.05.13.15.19.29.19.49-.02.95-.03 1.39-.06.04 0 .08-.01.11-.03A.24.24 0 0 0 28 16l.05-.1c.06-.11.1-.1.13.02.05.2-.03.33-.23.36a3.95 3.95 0 0 1-1.03.05.15.15 0 0 0-.08.12v.07c.08.21.08.43.02.65-.03.13-.07.13-.1 0a1.48 1.48 0 0 1-.04-.54.25.25 0 0 0-.05-.18.24.24 0 0 0-.17-.1ZM34.94 15.66l1.8 5.03c-.33-.1-.59-.15-.75-.12-.18.02-.22-.05-.14-.21a.37.37 0 0 0 .04-.2 3.63 3.63 0 0 0-.51-1.53.24.24 0 0 0-.22-.12c-.03 0-.07 0-.1.02-.1.08-.12.05-.08-.07a.55.55 0 0 1 .1-.18.3.3 0 0 0 .08-.22c0-.14-.07-.23-.22-.25a.09.09 0 0 1-.06-.04.1.1 0 0 1-.02-.08c.05-.21-.02-.38-.2-.5-.14-.1-.13-.18.03-.24.1-.04.21-.09.3-.15.3-.2.28-.32-.07-.37l-.34-.06a.13.13 0 0 1-.08-.04.14.14 0 0 1-.03-.1v-.17c0-.08.04-.12.12-.1l.2.02c.1.02.15-.03.15-.13v-.19ZM33.93 16.29a.37.37 0 0 1 .27-.03c.09.02.1.05 0 .09a.8.8 0 0 1-.4.05c-.13-.02-.13-.05 0-.1h.03l.1-.01Z" fill="#5E7E42"/><path d="M22.67 16.86c.25.17.23.22-.06.15a4.35 4.35 0 0 1-.87-.33.15.15 0 0 1-.07-.08.14.14 0 0 1 0-.1c.01-.07.06-.1.13-.07.32.1.6.25.87.43Z" fill="#E7FBC5"/><path d="M31.43 16.36c.25.07.46.08.61.06.31.31.1.83.14 1.23-.1.25-.1.53-.04.83.1.13.11.24.02.36-.31.25-.4.62-.29 1.1.05.17.07.17.08 0 .02-.24.02-.47.02-.69a.3.3 0 0 1 .09-.22.28.28 0 0 1 .22-.07l1.77.21c-.06.4.01.76.2 1.11l-4.34-.1c-.1 0-.16-.05-.16-.15a14.98 14.98 0 0 1 .02-.85h-.07c-.03 0-.05.02-.04.05.02.34 0 .65-.06.96-.02.1.02.15.13.15h1.04a.3.3 0 0 1 .2.06c.08.06.17.06.27 0a.46.46 0 0 1 .27-.07l3.46.17c.27.01.39.16.36.43-.03.27 0 .52.1.78.05.14 0 .21-.14.22l-.72.03a31.75 31.75 0 0 0-3.39-.17c-.04 0-.07.02-.07.06 0 .05.02.08.07.08 1.1.07 2.21.16 3.32.25-.12.18-.16.29-.1.31-.07.34-.06.66.02.96-.07.14-.07.22 0 .23.5.07 1.01.1 1.52.09.23-.01.32.14.25.45-.07.28-.06.55.03.8.04.09.1.1.17.03.04-.04.05-.08.04-.13-.04-.12 0-.16.12-.14l.14.04c.2.2.47.27.81.2.3-.05.69.05 1.16.3.14.08.13.12-.02.14-.86.1-1.62-.25-2.43-.14a5 5 0 0 1-1.03.04.38.38 0 0 0-.23.06l-.07.04c-.12.07-.11.1.03.1.2 0 .35.04.5.12l-.04 1.55c0 .1-.05.14-.14.16l-.73.13-1.61-.15c-.1 0-.15-.06-.14-.17.03-.54.05-1.09.05-1.63 0-.05-.02-.07-.06-.07-.04 0-.06.02-.06.06l-.02 1.63c0 .12-.06.18-.17.18-.9.04-1.78.05-2.66.01-.04 0-.06.02-.06.06 0 .05.01.07.06.07 1.43 0 2.87.03 4.3.1.1-.11.23-.1.4.03l.03 1.31c0 .13-.05.19-.18.18l-2.54-.1c-.13-.01-.2-.08-.2-.22 0-.31-.04-.61-.11-.9-.04-.14-.06-.13-.08.01-.05.35-.04.69.04 1.01 0 .04 0 .06-.04.08a.53.53 0 0 0-.07.03c-.17.1-.15.17.05.18 1.64.13 3.18.19 4.62.16.1 0 .15.05.15.15l.01 1.34c0 .1-.05.15-.14.14l-2.87-.07c-.02 0-.03-.02-.03-.04a.1.1 0 0 0-.01-.07c-.06-.09-.13-.1-.2-.03-.43.37-1.24.19-1.74.1a.21.21 0 0 1-.17-.18l-.18-1.12c-.05-.32-.24-.45-.55-.4-.1.03-.1.04 0 .07l.26.05a.2.2 0 0 1 .11.07c.03.03.05.07.05.12l.08 1.07a.28.28 0 0 1-.08.22.27.27 0 0 1-.2.08l-1.34-.11c-.15-.01-.18.04-.09.15.05.07.11.1.19.1.13 0 .2.06.19.2l-.01 1.09c0 .23-.12.35-.35.35h-2c-.26 0-.38-.12-.37-.39.03-.49.12-.92.26-1.3.05-.12.01-.16-.1-.13a.86.86 0 0 1-.62-.02c-.11-.05-.13-.12-.05-.21a.24.24 0 0 0 .07-.2c-.01-.11-.06-.13-.14-.06-.11.1-.13.2-.06.3a.13.13 0 0 1 .02.13.12.12 0 0 1-.05.05.11.11 0 0 1-.06.02l-1.6-.03a.19.19 0 0 1-.14-.06.2.2 0 0 1-.05-.13 46.42 46.42 0 0 0-.09-1.18h-.07c-.04 0-.05.02-.05.06l.04 1.15a.18.18 0 0 1-.15.18c-.35.04-.62-.11-.97-.08a14.27 14.27 0 0 1-1.45.03.09.09 0 0 1-.02-.06v-1.27c0-.07.04-.1.1-.1.69-.06 1.4-.05 2.13 0 .32.02.62 0 .92-.06.32-.06.64-.05.96.05.08.02.16.02.24-.01a2.42 2.42 0 0 1 1.99.07c.04.02.07 0 .09-.04l.02-.07c.02-.04 0-.06-.03-.07a3.92 3.92 0 0 0-1.92-.09.2.2 0 0 1-.17-.04l-.06-.05.01-1.63c0-.04-.01-.06-.05-.06l-.08-.01a10.3 10.3 0 0 0-.01 1.71c-.1.08-.22.1-.36.06a.82.82 0 0 0-.26-.05l-1.97.02c-.11 0-.17-.06-.18-.17l-.04-1.34c0-.12.05-.18.17-.17.7.05 1.4.05 2.08.03.06 0 .11-.03.16-.07.03-.03.02-.05-.02-.05l-3.54-.14a.08.08 0 0 1-.06-.03.09.09 0 0 1-.02-.06l.02-1.43c0-.08.05-.12.13-.12h1.68c.06 0 .1.02.15.06a.2.2 0 0 1 .06.14l.01 1.34.01.01h.08c.03 0 .05-.02.05-.05v-1.26c0-.09.03-.17.09-.24a.4.4 0 0 1 .18-.13c.18-.06.17-.09-.02-.1-.74 0-1.46 0-2.16.03l-1.08-.07c-.13-.02-.16-.08-.1-.2.23-.35.39-.73.5-1.13a.33.33 0 0 1 .28-.25 35 35 0 0 1 4.17-.08v-.09c0-.03 0-.04-.04-.05a28.59 28.59 0 0 0-3.92.01c-.2.02-.25-.07-.18-.25l.4-1.03a.35.35 0 0 1 .34-.25l.87-.01c.07 0 .14.02.2.07.05.05.08.12.08.2.02.31.03.63.03.94 0 .05.02.09.07.11h.03a.12.12 0 0 0 .1-.1c.06-.33.07-.67 0-1.03-.02-.13.03-.2.16-.2l1.22-.01c.12 0 .15-.06.08-.17a.11.11 0 0 0-.06-.05c-.13-.04-.2-.13-.19-.27.03-.36-.02-.7-.15-1-.05-.11-.02-.17.1-.19l.52-.07c.1 0 .18 0 .27.02.15.05.27 0 .35-.13.08-.13.06-.15-.07-.08a.8.8 0 0 1-.4.12.14.14 0 0 1-.1-.04.15.15 0 0 1-.05-.11v-.88c0-.1.05-.15.14-.17l.4-.08c.07-.01.09-.05.06-.12-.14-.28-.2-.6-.18-.93 0-.06.03-.12.07-.16.04-.05.1-.07.16-.07l1.9-.07c.2.36.27.77.25 1.24-.02.04-.05.07-.11.07s-.06.02-.01.05a128.03 128.03 0 0 1 3.16.08c.05 0 .07-.02.07-.06V18.76a7.3 7.3 0 0 0-.72-.03c-.12 0-.19-.06-.2-.18l-.13-.74c-.02-.1.02-.18.13-.21l.49-.17.48-.01c-.1-.05-.1-.01-.01.1.03.03.05.05.08.05.08 0 .1-.03.08-.1l-.31-.85c.07-.15.18-.24.34-.26Z" fill="#EEFED8"/><path d="m31.09 16.62.3.85c.03.07 0 .1-.07.1-.02 0-.05-.02-.08-.05-.1-.11-.1-.15.01-.1a1.7 1.7 0 0 1-.16-.8ZM30.77 17.43l-.49.17c-.1.03-.15.1-.13.21l.12.74c.02.12.1.18.21.18a7.3 7.3 0 0 1 .73.05v.07c0 .04-.03.06-.08.06a128.04 128.04 0 0 0-3.16-.08c-.05-.03-.05-.04 0-.05.07 0 .1-.03.12-.07l1.86-.04c.13 0 .18-.06.17-.2l-.11-.74c-.01-.1.02-.16.1-.2.2-.1.41-.12.66-.1Z" fill="#2C4616"/><path d="M33.43 17.68v-.08c0-.04.02-.07.06-.06.27 0 .52.03.78.05.03 0 .05.02.04.06v.07c0 .02-.01.02-.03.02a1.7 1.7 0 0 0-.85-.06Z" fill="#5E7E42"/><path d="M32.18 17.65c.15.38.14.66-.04.83-.07-.3-.06-.58.04-.83Z" fill="#2C4616"/><path d="M22.86 18.95c-.63-.35-1.17-.66-1.9-.72-.08 0-.13-.04-.14-.12l.03-.15c.04-.08.1-.1.18-.07l1.87.85c.02.01.03.03.03.05v.11c0 .06-.02.08-.07.05ZM23.5 18.86h1.39c.04 0 .07.01.1.04.03.02.04.06.05.1l.03.86a.15.15 0 0 1-.04.12.15.15 0 0 1-.11.04l-1.82-.08a.14.14 0 0 1-.12-.08.15.15 0 0 1 0-.14l.38-.78a.15.15 0 0 1 .13-.08Z" fill="#E7FBC5"/><path d="m34.05 19.17-1.77-.21a.28.28 0 0 0-.22.07.29.29 0 0 0-.1.22v.69c-.02.17-.04.17-.09 0-.12-.48-.02-.85.29-1.1.2-.02.66.02 1.38.13.2.03.57-.02 1.1-.14.05-.01.08 0 .08.07 0 .03 0 .05-.02.07a.1.1 0 0 1-.05.03c-.23.05-.43.1-.6.17Z" fill="#2C4616"/><path d="M26.19 19.22c.18.4.07.56.5.84.03.02.03.04.01.06l-.04.06h-.03a.97.97 0 0 1-.54-.94c0-.14.04-.14.1-.02ZM34.26 20.28c.4.09.78.08 1.15-.02a.1.1 0 0 1 .09 0c.06.04.1.1.1.19v.04l-.05.03a.09.09 0 0 0-.05.06 26.8 26.8 0 0 1 .17 1.22c.01.1.06.15.15.17.59.16 1.05.12 1.39-.12.4.6.67 1.31.81 2.14-.52-.15-1-.2-1.43-.13a.2.2 0 0 0-.12.05.22.22 0 0 0-.06.11l-.04.19h-.18c.07-.3-.02-.45-.25-.44-.5.01-1.02-.02-1.52-.1-.07 0-.07-.08 0-.22.1.03.15 0 .17-.07.08.16.21.22.4.18.48-.1.91-.12 1.3-.05.06 0 .09-.02.1-.07v-.07c.02-.04 0-.07-.04-.07-.28-.05-.46-.1-.53-.15a.3.3 0 0 1-.13-.19c-.03-.1.01-.15.12-.14.23.02.46-.01.67-.1.1-.04.2-.03.28.03l.12.09a.14.14 0 0 0 .2-.05.14.14 0 0 0 .03-.08.87.87 0 0 0-.15-.42c-.04-.07-.09-.08-.14-.03l-.08.07a.19.19 0 0 1-.2.04c-.23-.09-.48-.11-.73-.07a.5.5 0 0 1-.27-.01 2.31 2.31 0 0 0-.82-.13c.06-.05.01-.11-.15-.2l.72-.03c.14 0 .19-.08.14-.22-.1-.26-.13-.51-.1-.78s-.1-.42-.36-.43l-3.46-.17c-.1 0-.19.02-.27.07-.1.06-.2.06-.27 0a.3.3 0 0 0-.2-.07l-1.04.01c-.1 0-.15-.05-.13-.15.06-.3.08-.63.06-.96 0-.03 0-.05.04-.05h.07l-.02.85c0 .1.06.15.16.16l4.35.1Z" fill="#4C6D2E"/><path d="M21.67 20.18a6.5 6.5 0 0 1-1.79-.61c-.06-.03-.07-.08-.03-.15l.04-.08a.16.16 0 0 1 .2-.06l2.3 1c.03 0 .04.03.03.07l-.05.12c-.04.08-.09.1-.15.03a1.3 1.3 0 0 0-.55-.32Z" fill="#EEFED8"/><path d="M23.94 20.77c-.08.23-.1.46-.05.7a.3.3 0 0 1-.09.27.28.28 0 0 1-.27.06 1.89 1.89 0 0 0-1.24 0c-.15.06-.2.02-.13-.13l.54-1.26a.33.33 0 0 1 .33-.22l1.26.04c.13 0 .2.07.2.2l.05 1.07c.01.12-.05.2-.16.22-.11.02-.2 0-.28-.1a.24.24 0 0 1-.04-.28c.09-.19.1-.38.05-.56-.05-.17-.1-.17-.17 0Z" fill="#E7FBC5"/><path d="M28.37 22.78a5.4 5.4 0 0 1-.34-2.02c.01-.27.04-.28.09 0a24.23 24.23 0 0 1 .26 2.13v-.05l-.01-.06ZM31.11 21.13c.03.28.08.5.12.5.03-.01.03-.24 0-.51-.03-.28-.08-.5-.11-.5-.04.01-.04.24-.01.51ZM33.44 20.94c.03.2.06.4.06.58.02.45-.04.46-.2.04-.06-.19-.06-.4 0-.62.05-.22.1-.22.14 0Z" fill="#2C4616"/><path d="M18.89 21.12c0-.02.01-.03.03-.03h.04l.04.01c.63.28 1.23.56 1.67.79.44.22.68.37.67.4l-.03.08c0 .01-.07 0-.2-.03a27.78 27.78 0 0 1-2.25-.9l-.04-.03-.02-.01a.06.06 0 0 1-.01-.04v-.03l.1-.21Z" fill="#EEFED8"/><path d="m34.1 21.08.29.23c.1.1.1.15-.05.16-.06 0-.12-.01-.17-.04a.33.33 0 0 1-.17-.3c0-.09.03-.1.1-.05Z" fill="#4C6D2E"/><path d="M29.25 22.06a.6.6 0 0 1-.27-.14c-.1-.08-.08-.1.04-.08l.55.1c.1.01.11.06.04.13-.06.06-.12.07-.19.04a.84.84 0 0 0-.17-.05ZM34.58 21.96c.15.09.2.15.14.2l-.22.02c-1.1-.1-2.22-.17-3.32-.25-.05 0-.07-.03-.07-.07 0-.05.03-.07.07-.07 1.13 0 2.26.05 3.4.17ZM29.37 22.7c0 .3.02.53.06.53.04 0 .07-.23.08-.53 0-.29-.02-.52-.06-.52-.04 0-.07.23-.08.52Z" fill="#2C4616"/><path d="m34.5 22.18.22-.02c.28 0 .55.04.82.13a.5.5 0 0 0 .27.01c.26-.04.5-.02.73.07.07.03.14.01.2-.04l.08-.07c.05-.05.1-.04.14.03.1.14.14.28.15.42a.14.14 0 0 1-.08.14.14.14 0 0 1-.15-.01l-.12-.1a.26.26 0 0 0-.28-.02c-.21.09-.44.12-.67.1-.1-.01-.15.03-.12.14a.3.3 0 0 0 .13.2c.07.04.25.09.53.14.04 0 .06.03.05.07l-.01.07c-.01.05-.04.07-.1.07-.39-.07-.82-.05-1.3.05-.19.04-.32-.02-.4-.18.01-.35-.05-.64-.2-.89-.05-.02-.01-.13.11-.31Z" fill="#E7FBC5"/><path d="M32.11 22.81c0 .31.02.57.06.57.03 0 .06-.26.07-.57 0-.3-.02-.56-.06-.56-.03 0-.06.25-.07.56ZM34.4 22.5c.14.24.2.53.2.88-.03.08-.09.1-.18.07-.08-.3-.09-.62-.03-.96Z" fill="#2C4616"/><path d="m20.2 23.77-2.08-1.02a.11.11 0 0 0-.15.05v.02c-.04.06-.01.13.04.16L20.1 24c.06.02.12 0 .15-.06l.01-.02a.12.12 0 0 0-.05-.15Z" fill="#E7FBC5"/><path d="M30.64 23.53c.21.04.35.07.56.07.16 0 .18.04.03.12-.13.09-.25.08-.35-.02a.3.3 0 0 0-.18-.08c-.92-.07-1.87-.05-2.82.06-.04.01-.07 0-.07-.05l-.01-.07c0-.04 0-.06.04-.07.5-.07.98 0 1.48-.04.44-.05.88-.02 1.32.08ZM33.97 25.18l.07-.97c.02-.36-.14-.53-.49-.5-.39.01-.76 0-1.1-.05-.22-.04-.22-.05 0-.05l1.58-.02c.09 0 .13.05.13.14 0 .45-.01.92-.04 1.42-.01.08.02.14.07.2l.1.07c.06.07.05.1-.04.09l-.47-.05c-.19-.01-.19-.04 0-.08a.3.3 0 0 0 .08-.03.2.2 0 0 0 .11-.17Z" fill="#2C4616"/><path d="M38.02 23.99c.11.03.17.09.18.17.02.12-.03.17-.14.17-.34-.02-.53.12-.57.43-.02.22-.1.25-.25.08-.17-.18-.35-.24-.56-.18l-.12.02c-.08.02-.14-.02-.16-.1a1.02 1.02 0 0 1-.03-.37l.04-.19a.22.22 0 0 1 .06-.1.2.2 0 0 1 .12-.06c.44-.07.92-.02 1.43.13Z" fill="#E7FBC5"/><path d="M22.53 24.52c0 .36.03.66.07.66.04 0 .08-.3.08-.66 0-.36-.02-.66-.06-.66-.04 0-.08.3-.09.66Z" fill="#5E7E42"/><path d="M31.05 24.25c.1.27.13.53.07.8-.04.2-.07.2-.1-.01l-.07-.97c-.01-.19.01-.2.07-.05a.2.2 0 0 1 .02.09c0 .05 0 .1.02.14ZM24.83 25.37c0-.38.05-.76.17-1.14.07-.24.1-.23.06 0-.04.36-.06.73-.07 1.1 0 .05-.02.07-.07.07h-.07c-.01 0-.02-.01-.02-.03Z" fill="#2C4616"/><path d="M35.49 24.44c.13.12.24.25.32.41.04.07.02.12-.06.15l-.1.02c-.06.02-.1 0-.12-.05l-.3-.7c-.04-.08-.02-.1.06-.07a.2.2 0 0 1 .1.1c.02.06.05.1.1.14Z" fill="#4C6D2E"/><path d="M30.11 24.28c0-.04.03-.05.07-.05.04 0 .06.03.05.07a1.6 1.6 0 0 0 .04.76l-.07.02c-.04.01-.07 0-.08-.05a2.13 2.13 0 0 1-.01-.75Z" fill="#2C4616"/><path d="m36.2 24.22.17-.01c-.01.12 0 .25.03.36.02.09.08.13.16.11l.12-.02c-.04.06-.04.12.01.16l-.14-.04c-.11-.02-.16.02-.12.14.01.05 0 .1-.04.13-.08.07-.13.06-.17-.04-.1-.24-.1-.5-.03-.8Z" fill="#5E7E42"/><path d="M19.71 26.03a.19.19 0 0 0-.06-.21 4.96 4.96 0 0 1-1.98-.89.86.86 0 0 0-.55-.17c-.1 0-.13-.04-.11-.14.01-.1.06-.18.13-.25.08-.07.17-.07.26-.02.74.48 1.54.87 2.4 1.19.06.02.11.07.14.13a.3.3 0 0 1 .04.19.5.5 0 0 1-.2.32c-.11.1-.15.07-.1-.07l.03-.08Z" fill="#E7FBC5"/><path d="M25.62 29.06c0 .03.05.02.13 0l.06.04c.05.04.11.06.17.04.64-.13 1.28-.1 1.92.09.04 0 .05.03.04.07l-.03.07c-.02.04-.05.06-.09.04a2.42 2.42 0 0 0-2-.07.35.35 0 0 1-.23 0c-.32-.09-.64-.1-.96-.04-.3.06-.6.08-.92.06-.73-.05-1.44-.06-2.13 0-.06 0-.09.03-.09.1v1.27l.01.06.06.03c.47 0 .93-.02 1.4-.06.34-.03.6.12.96.08a.18.18 0 0 0 .16-.18l-.05-1.15c0-.04.01-.06.05-.06h.07l.09 1.18c0 .05.02.1.06.13.03.04.08.06.13.06l1.6.03c.02 0 .04 0 .06-.02a.12.12 0 0 0 .05-.05.13.13 0 0 0-.02-.13c-.07-.1-.05-.2.06-.3.08-.07.13-.05.14.05 0 .08-.01.15-.06.2-.09.1-.07.17.04.22.17.08.38.1.62.02.11-.03.15.01.1.13-.14.38-.23.81-.26 1.3-.01.27.1.4.37.4l2-.01c.23 0 .34-.12.35-.35v-1.1c.01-.13-.05-.2-.18-.19a.21.21 0 0 1-.19-.1c-.08-.11-.06-.16.09-.15l1.33.1a.26.26 0 0 0 .21-.07.28.28 0 0 0 .08-.22l-.08-1.07a.21.21 0 0 0-.05-.12.2.2 0 0 0-.1-.07l-.27-.05c-.1-.03-.1-.04 0-.06.31-.06.5.07.55.4l.18 1.11a.21.21 0 0 0 .17.18c.5.09 1.3.27 1.74-.1.07-.07.14-.06.2.03a.1.1 0 0 1 .01.07c0 .02 0 .04.03.04l2.87.07c.1 0 .14-.04.14-.14v-1.34c0-.1-.06-.15-.16-.15a46.8 46.8 0 0 1-4.62-.16c-.2-.01-.21-.07-.04-.18a.55.55 0 0 1 .06-.03c.03-.02.05-.04.04-.08a2.86 2.86 0 0 1-.04-1.01c.02-.14.04-.15.08 0 .07.28.11.58.11.9 0 .13.07.2.2.2l2.54.11c.13 0 .19-.05.18-.18l-.03-1.31-.03-.12.73-.13c.09-.02.13-.07.14-.16l.03-1.55c.05.03.08.03.12 0l.1 1.57c.01.1.06.18.15.21.2.08.4.06.6-.07.05-.03.1-.04.16-.04l1.11.08a.11.11 0 0 0 .1-.04.12.12 0 0 0 .02-.1l-.18-1.16c0-.02 0-.04.02-.06a.08.08 0 0 1 .04-.03l.07-.03c.03 0 .06 0 .07.04.13.4.18.79.16 1.17 0 .1.04.17.15.19.43.07.88.04 1.34-.11-.06.28-.03.4.09.36l.27 1.41c.01.07.04.12.09.17l.17.1c.12.04.13.1.02.16a.32.32 0 0 1-.18.05 5.86 5.86 0 0 1-1.15-.1.17.17 0 0 0-.11.12v.08c.1.39.13.79.1 1.2 0 .11.05.19.16.21.14.04.25.02.34-.06.08-.07.1-.16.06-.26-.09-.2-.14-.4-.16-.59-.06-.54.03-.57.28-.08.12.23.18.5.19.81 0 .12.06.18.18.19.17 0 .33.03.49.09h.11c.04 0 .08-.02.11-.04a.32.32 0 0 0 .09-.1 24.67 24.67 0 0 1 .07-.3c.08.09.15.13.2.13.01.14 0 .26-.04.36-.03.1-.1.13-.2.12l-.43-.05a.17.17 0 0 0-.16.06.19.19 0 0 0-.03.17c.04.16.12.29.23.4a.22.22 0 0 1 .07.21l-.09.34c-.06.19-.07.44-.04.75-.24-.1-.44-.14-.6-.09-.11.03-.15.1-.12.21.05.15.13.27.25.36.08.06.1.13.04.22-.1.16-.14.31-.09.46-.05.1-.08.2-.09.28 0 .1.04.16.14.17l.64.05.68.13c-.04.08-.04.17 0 .3l-5.18-.27c-.15 0-.22.07-.2.22 0 .05-.01.09-.06.12-.1.08-.17.05-.17-.09l-.01-.13c0-.12-.07-.18-.19-.17-1.04.08-2.06-.16-3.1-.11-.96.04-1.96.03-3-.02-.28-.01-.53.11-.84.09-.58-.05-1.17-.1-1.76-.13-.48-.03-.89.16-1.37.1a6.05 6.05 0 0 0-.8-.03c-2.65.06-5.29.09-7.91.1a.3.3 0 0 0-.18.05c-.05.04-.09.1-.11.16l-1.08 3.02a.55.55 0 0 0-.2-.02.4.4 0 0 1-.22-.07L11 35.84a.23.23 0 0 1-.1-.14.24.24 0 0 1 .02-.17l1.26-2.13c.6.26 1.16.57 1.6 1.07.31.36.75.55 1.32.6.18 0 .3.1.34.28 0 .03.02.05.04.07l.07.04a.15.15 0 0 0 .15-.06l.07-.09c.06-.08.05-.14-.05-.18a14.86 14.86 0 0 1-3.46-2.09c.35-.47.44-.82.28-1.04l2.94-5.45c.18.18.1.5-.21.94a5.61 5.61 0 0 0 2.47 1.69.2.2 0 0 0 .16-.12.2.2 0 0 0 0-.1c0-.05-.07-.11-.22-.2.18-.2.37-.16.56.1.06.08.05.15 0 .23-.1.1-.15.17-.16.2-.16.39-.08.45.22.18.1-.08.3-.23.63-.44l-1.53 3.4a.1.1 0 0 0 .03.12h.05l.76.05c.12 0 .17-.05.14-.17a2.81 2.81 0 0 1 0-1.47c.03-.11.1-.17.22-.16a.7.7 0 0 0 .2-.02c.1-.02.15-.1.15-.2l.01-1.28c.26-.17.58-.24.95-.22.12.01.18-.05.18-.17l-.04-1.53c0-.1.04-.15.14-.15l1.05-.01c.1 0 .17-.06.18-.17.08-.66.02-1.17-.19-1.51-.17-.09.04-.15.63-.2.7-.02 1.42-.03 2.16-.02.2 0 .2.03.02.1a.4.4 0 0 0-.18.12.39.39 0 0 0-.09.24v1.26c0 .04-.02.05-.05.05h-.08l-.02-1.35a.2.2 0 0 0-.06-.14.2.2 0 0 0-.15-.06h-1.68c-.08 0-.12.04-.13.12l-.02 1.43c0 .02 0 .04.02.06l.06.03 3.55.14c.04 0 .04.02.01.05a.24.24 0 0 1-.16.07c-.68.02-1.38.02-2.08-.03-.12 0-.18.05-.17.17l.05 1.34c0 .11.06.17.17.17l1.98-.02c.08 0 .17.02.26.05.13.04.25.02.35-.06Z" fill="#4C6D2E"/><path d="m26.61 25.8.03 1.68c0 .02 0 .04-.03.05l-.08.03a.1.1 0 0 1-.1-.02.1.1 0 0 1-.03-.08 4.1 4.1 0 0 0-.05-1.98c-.03-.1 0-.14.09-.16.46-.07.93-.07 1.4-.02a25.01 25.01 0 0 0 2.34.14c.02 0 .03.01.03.03v.07c0 .02-.02.04-.04.04-.95-.01-1.98-.08-3.09-.21-.32-.04-.47.1-.47.43ZM32.4 25.45c-.59.11-1.14 0-1.73.06-.18.02-.18 0-.02-.08.2-.09.37-.12.54-.09.45.08.79.05 1.21.1.04 0 .04 0 0 .01ZM34.5 27.52l.03.12c-.17-.14-.3-.14-.4-.03a78.97 78.97 0 0 0-4.3-.1c-.05 0-.07-.02-.06-.07 0-.04.02-.06.06-.06.88.04 1.77.03 2.66 0 .12-.01.17-.07.18-.2v-1.62c.01-.04.03-.06.06-.06.05 0 .07.02.07.07 0 .54-.02 1.09-.05 1.63 0 .1.04.16.14.17l1.6.15Z" fill="#2C4616"/><path d="M21.23 25.54c.21.34.27.85.2 1.51-.02.11-.08.17-.2.17l-1.04.01c-.1 0-.15.05-.15.15l.05 1.53c0 .12-.06.18-.18.17a1.5 1.5 0 0 0-.95.22c-.02-.01-.03-.05-.05-.1.5-1.2 1.02-2.38 1.57-3.52.06-.12.31-.17.75-.14ZM39.43 27.3c-.46.15-.9.18-1.35.1-.1-.01-.15-.07-.14-.18.02-.38-.04-.77-.16-1.17-.02-.04-.04-.05-.07-.04l-.07.03a.08.08 0 0 0-.04.03.09.09 0 0 0-.02.06l.18 1.16a.12.12 0 0 1-.03.1.11.11 0 0 1-.09.04l-1.1-.08c-.06 0-.12.01-.16.04-.2.13-.4.15-.6.07a.23.23 0 0 1-.16-.2l-.1-1.57c.18-.07.39-.09.62-.07.91.1 1.82.14 2.73.14.1 0 .14.05.15.14.01.14-.05.23-.18.28a.24.24 0 0 0-.1.07c-.1.12-.08.2.08.25.18.04.33.11.45.21.08.07.08.12-.02.17a.84.84 0 0 1-.84-.02c-.11-.07-.15-.04-.1.09.08.17.2.25.36.24.33-.02.58.02.76.1Z" fill="#EEFED8"/><path d="m18.41 27.38-.08.08c-.07.08-.15.09-.24.03a6.38 6.38 0 0 0-2.09-.86c-.12-.02-.15-.1-.09-.2l.36-.62c.06-.12.15-.13.26-.05.71.53 1.51.99 2.4 1.37.2.1.3.24.3.46 0 .13-.06.16-.17.1a1.28 1.28 0 0 1-.32-.3.23.23 0 0 0-.16-.07.22.22 0 0 0-.17.06Z" fill="#E7FBC5"/><path d="M29.75 26.57c0 .33.04.6.08.6s.07-.27.07-.6c0-.34-.04-.6-.09-.6-.04 0-.07.26-.06.6ZM28.59 27.44a2.7 2.7 0 0 0-1.48-.01l-.03-.01-.01-.07c-.02-.08 0-.11.08-.12.16 0 .3-.05.44-.13a.24.24 0 0 1 .25 0c.31.18.66.25 1.03.22.17-.02.19.02.05.12a.71.71 0 0 0-.06.05.07.07 0 0 0-.02.06c.01.39.05.77.1 1.15.01.04 0 .06-.04.06s-.06-.01-.06-.05c0-.34-.04-.71-.1-1.11a.2.2 0 0 0-.15-.16ZM25.75 29.05c-.08.03-.12.04-.13.01a10.19 10.19 0 0 1 .01-1.71h.08c.04.01.06.03.06.07l-.02 1.63Z" fill="#2C4616"/><path d="m22.48 27.43-2.1.03c-.09 0-.16.08-.16.17l.02 1.28c0 .1.08.17.17.16l2.1-.03c.09 0 .16-.08.16-.17l-.02-1.28c0-.09-.08-.17-.17-.16Z" fill="#EEFED8"/><path d="m15.27 27.5 2.4 1.26c.16.09.23.15.24.2a.2.2 0 0 1-.07.18.2.2 0 0 1-.2.03 5.62 5.62 0 0 1-2.37-1.68Z" fill="#E7FBC5"/><path d="m34.84 27.67 2.01-.09a.16.16 0 0 1 .12.05.16.16 0 0 1 .05.11l.02 1.31a.17.17 0 0 1-.05.12.16.16 0 0 1-.12.05l-1.92-.14a.16.16 0 0 1-.1-.04.16.16 0 0 1-.05-.1l-.11-1.09a.17.17 0 0 1 .04-.12.16.16 0 0 1 .11-.06ZM38.34 28.64c.03 0 .05 0 .08.02.01.01.02.03.01.05a.6.6 0 0 0 .01.3.14.14 0 0 1-.01.1.13.13 0 0 1-.1.06l-.8.08c-.18.01-.27-.07-.28-.26l-.03-1.12c0-.16.07-.24.23-.22.5.06 1.03.06 1.58 0 .05-.01.1 0 .15.03.04.03.07.08.08.14l.22 1.3a.11.11 0 0 1-.03.1.1.1 0 0 1-.1.02l-.1-.03a.23.23 0 0 1-.16-.18.89.89 0 0 0-.68-.71c-.14-.04-.19.01-.15.15v.06c-.07.13-.04.16.08.11Z" fill="#EEFED8"/><path d="M39.52 27.66a.3.3 0 0 1 .17.02c.04.01.08.06.1.12.34.97.94 1.81.86 2.92a15.8 15.8 0 0 0-.07.3.32.32 0 0 1-.09.1.26.26 0 0 1-.1.05l-.12-.01a1.57 1.57 0 0 0-.5-.1c-.1 0-.17-.06-.17-.18 0-.3-.07-.58-.19-.81-.24-.5-.34-.46-.28.08.02.2.07.39.16.6.03.1.02.18-.06.25-.09.08-.2.1-.34.07-.11-.03-.17-.1-.16-.23.03-.4 0-.8-.1-1.19a.17.17 0 0 1 .11-.2c.03-.01.06-.02.08-.01.36.07.71.1 1.07.11.07 0 .13-.01.18-.05.11-.07.1-.12-.02-.16a.43.43 0 0 1-.17-.1.3.3 0 0 1-.09-.17l-.27-1.41ZM14.52 29.62a.88.88 0 0 1-.17.37c-.09.11-.13.1-.12-.04.01-.3.12-.55.33-.76.07-.08.16-.1.25-.03.76.5 1.5.95 2.24 1.36.16.09.34.16.55.21.07.02.09.07.05.14l-.04.07c-.02.05-.06.07-.12.04-.32-.17-.67-.19-.95-.43a6.68 6.68 0 0 0-1.86-1.07.17.17 0 0 0-.13.07.18.18 0 0 0-.03.07ZM18.93 29.03l-.02.16.05.11v1.28c0 .1-.06.18-.16.2a.7.7 0 0 1-.2.02c-.12 0-.19.05-.22.16-.13.44-.13.93 0 1.47.03.12-.02.17-.14.17l-.76-.04a.09.09 0 0 1-.08-.04.1.1 0 0 1 0-.1l1.53-3.4Z" fill="#E7FBC5"/><path d="M29.1 29.34c.48 0 .88-.02.88-.06 0-.04-.4-.08-.88-.08-.49-.01-.89.01-.89.05s.4.08.89.09Z" fill="#5E7E42"/><path d="m20.96 29.27-1.6.03a.23.23 0 0 0-.23.24l.02 1.07c0 .13.1.23.23.23L21 30.8c.12 0 .22-.1.22-.24l-.02-1.06c0-.13-.1-.23-.24-.23Z" fill="#E7FBC5"/><path d="M27.6 30.95c.14-.46.18-.93.13-1.4 0-.05.01-.07.06-.08.03 0 .04.01.04.04.08.48.06.99-.04 1.5-.01.03-.02.03-.04.03l-.09-.01c-.05 0-.07-.04-.05-.08Z" fill="#2C4616"/><path d="M36.54 29.46h1.8c.03 0 .06.02.09.05.02.02.04.06.04.1v1.26c0 .03-.01.07-.04.1a.14.14 0 0 1-.1.04h-1.85a.13.13 0 0 1-.1-.04.14.14 0 0 1-.04-.1l.07-1.27a.13.13 0 0 1 .13-.13Z" fill="#EEFED8"/><path d="M41.58 34.94c.15-.95.04-1.74-.32-2.37-.18-.32-.29-.56-.32-.72-.01-.06-.04-.07-.09-.05l-.08.02c-.06.03-.07.06-.05.12l.19.45c.03.08 0 .13-.09.14-.25.03-.46 0-.62-.07l.09-.34a.22.22 0 0 0-.07-.22.82.82 0 0 1-.23-.39.2.2 0 0 1 .03-.17.17.17 0 0 1 .16-.06l.43.05c.1.01.17-.02.2-.12.04-.1.05-.22.03-.36.1-.08.2 0 .3.25l1.43 3.67c.03.1 0 .15-.08.19-.28.1-.58.1-.91-.02Z" fill="#E7FBC5"/><path d="M23.28 30.99H20.9a.12.12 0 0 0-.12.12v1.3c0 .06.05.12.12.12h2.38c.07 0 .12-.05.12-.12v-1.3a.12.12 0 0 0-.12-.12ZM25.72 32.62c-.72-.06-1.42-.08-2.1-.05-.05 0-.08-.03-.08-.09l.1-1.33a.12.12 0 0 1 .11-.1l2.78-.06a.15.15 0 0 1 .12.05.16.16 0 0 1 .04.12l-.08 1.38c0 .12.04.18.16.19l1.26.09c.16 0 .24.1.24.25l-.01 1.32c0 .22-.12.32-.33.29a8.12 8.12 0 0 0-2.43.03c-.1.02-.16-.03-.16-.14v-1.45a.24.24 0 0 1 .12-.22l.29-.15c.14-.07.13-.12-.03-.13Z" fill="#EEFED8"/><path d="M13.55 31.39a.17.17 0 0 1-.1-.04.19.19 0 0 1-.06-.08c-.04-.12-.01-.22.1-.28a.19.19 0 0 1 .2 0c.95.6 1.92 1.18 2.9 1.7.03.03.04.06.02.1l-.02.01-1.24-.5c-.94-.41-1.54-.9-1.8-.91ZM20.38 31.03 18.7 31a.13.13 0 0 0-.13.13l-.03 1.28c0 .08.06.14.13.14l1.69.04c.07 0 .13-.06.13-.13l.03-1.28a.13.13 0 0 0-.13-.14Z" fill="#E7FBC5"/><path d="M35.95 34.3c-.29-.03-.4-.2-.32-.54 0-.03 0-.04-.02-.05l-.1-.02a.07.07 0 0 0-.06.01.07.07 0 0 0-.02.07l.04.45c.01.15-.04.18-.16.1a.48.48 0 0 0-.36-.08.35.35 0 0 0-.21.12.46.46 0 0 1-.32.15c-.06-.48-.1-.92-.13-1.32a.15.15 0 0 0-.05-.1.04.04 0 0 0-.04-.01.08.08 0 0 0-.07.07c-.06.4-.1.8-.11 1.2-.01.15-.08.2-.22.18l-.38-.09a.73.73 0 0 0-.2 0l-2 .17a.08.08 0 0 1-.07-.06v-.03l.1-2.23c0-.1-.05-.16-.16-.16h-.1l-.01.02c.08.73.05 1.48-.08 2.25-.03.16-.12.23-.28.23a1.33 1.33 0 0 1-.82-.35c-.07-.07-.14-.05-.18.04-.02.05-.02.09.02.13.13.14.1.2-.06.2h-.26c-.13 0-.18-.06-.17-.19.03-.34.02-.67-.05-1 0-.02-.02-.03-.04-.03-.04 0-.06.03-.05.08.1.45.03.8-.21 1.05-.21.24-.33.2-.34-.13L28.41 33c0-.12.05-.19.18-.19h.85c.12 0 .19-.07.2-.2l.05-1.34a.26.26 0 0 1 .09-.18.24.24 0 0 1 .19-.05l.29.03c.12.02.17.09.12.21-.15.43-.18.86-.11 1.3.02.12.08.19.2.19.1 0 .13-.04.09-.13-.17-.4-.14-.88.07-1.42a.2.2 0 0 1 .08-.1.18.18 0 0 1 .11-.02l1.36.1c.14.02.2.1.15.23-.1.33-.11.67-.04 1.03.03.1-.01.18-.1.22a.81.81 0 0 1-.7-.04h-.01v.01l-.02.07c0 .08.02.12.1.13.72.1 1.44.11 2.18.04.1 0 .19 0 .27.06.1.05.2.06.3.02a.8.8 0 0 1 .27-.03c.73 0 1.44.03 2.14.08.1 0 .16.06.16.17-.02.43-.08.83-.2 1.2-.1.32-.19.32-.28 0-.07-.21-.22-.24-.45-.08Z" fill="#EEFED8"/><path d="m33.25 31.24 1.62-.02c.1 0 .17.05.18.16l.08 1.12c.01.13-.04.2-.17.2l-1.64-.02a.43.43 0 0 0-.22.06.57.57 0 0 1-.44.06c-.1-.03-.16-.1-.16-.21l.05-1.21a.22.22 0 0 1 .19-.2c.1-.02.2-.01.29.02.07.03.15.04.22.04ZM37.87 31.47l-.05 1.08a.25.25 0 0 1-.24.24c-.8.04-1.52 0-2.15-.1-.04 0-.06-.03-.06-.07l-.13-1.33a.07.07 0 0 1 .02-.05.07.07 0 0 1 .05-.02l1.45.07a.21.21 0 0 1 .18.12.22.22 0 0 1 0 .2c-.1.17-.22.32-.35.45-.1.1-.1.17.02.25.2.12.41.19.65.2.1.01.16-.03.2-.12a.83.83 0 0 0-.17-.89c-.13-.14-.1-.21.09-.21h.31c.12 0 .18.06.18.18ZM38.16 31.24l1.36.1c.05 0 .09.01.12.04s.04.07.05.12l.1 1.1a.19.19 0 0 1-.05.13.18.18 0 0 1-.13.06l-1.41.04a.17.17 0 0 1-.12-.05.18.18 0 0 1-.06-.12l-.04-1.23a.18.18 0 0 1 .05-.13.17.17 0 0 1 .13-.06Z" fill="#EEFED8"/><path d="M41.58 34.94c-.04-.09-.12-.14-.24-.15l-.65-.13c-.05-.01-.07-.04-.07-.08v-.08c0-.03.02-.05.05-.05h.48c.1 0 .17-.05.2-.16.03-.2-.05-.31-.25-.34a1.62 1.62 0 0 0-.7.04c-.15.04-.2.14-.18.28l.1.6-.63-.05c-.1-.01-.15-.07-.14-.17.01-.09.04-.18.1-.28.63-.34.8-.73.51-1.16-.03-.31-.02-.56.04-.75.16.07.37.1.62.07.1 0 .12-.06.09-.14l-.2-.45c-.01-.06 0-.1.06-.12l.08-.02c.05-.02.08 0 .09.05.03.16.14.4.32.72.36.63.47 1.42.32 2.37Z" fill="#5E7E42"/><path d="M40.91 32.89a.11.11 0 0 1-.02-.1c.01-.1.07-.12.16-.07l.16.08.04.04a.13.13 0 0 1 .02.1l-.02.06-.07.07c-.02.03-.02.06 0 .09.1.13.15.27.16.43.02.11-.03.17-.15.17-.17 0-.33-.04-.47-.1a.23.23 0 0 1-.15-.2c-.02-.2.06-.31.24-.33.17-.02.2-.1.1-.24ZM18.01 34.13a.41.41 0 0 0-.02.37c.05.13 0 .19-.12.2l-1.28.04c-.15 0-.19-.06-.13-.2l.77-1.66c.05-.1.13-.14.23-.11.54.12 1.06.16 1.54.12.14-.01.2.05.19.19l-.1 1.32c-.01.1-.07.19-.17.23a.85.85 0 0 1-.53.05.23.23 0 0 1-.17-.14.85.85 0 0 1-.08-.37c0-.19-.04-.2-.13-.04Z" fill="#E7FBC5"/><path d="M25.14 34.54a.11.11 0 0 1-.04.08.11.11 0 0 1-.07.04l-5.48-.01a.1.1 0 0 1-.08-.04.11.11 0 0 1-.03-.08v-1.57a.12.12 0 0 1 .03-.08.1.1 0 0 1 .08-.03l5.48.01a.1.1 0 0 1 .1.07v1.61ZM37.6 34.4a.22.22 0 0 0-.03.06c0 .04-.03.05-.06.06l-.21.01c-.07 0-.11-.03-.12-.1a4.34 4.34 0 0 1-.1-1.4l.03-.01 1.87.1c.1 0 .14.05.13.15l-.1 1.37a.13.13 0 0 1-.06.1.12.12 0 0 1-.1.01.33.33 0 0 1-.23-.2.35.35 0 0 0-.18-.2 1 1 0 0 0-.69-.06.23.23 0 0 0-.15.1Z" fill="#EEFED8"/><path d="M40.16 33.2c.3.44.12.83-.52 1.17-.05-.15-.02-.3.09-.46.06-.09.04-.16-.04-.22a.65.65 0 0 1-.25-.36c-.03-.1 0-.18.11-.2.17-.06.37-.03.61.08ZM41.34 34.8c.03.05.04.1.03.13-.02.03-.05.06-.1.07a.8.8 0 0 1-.26 0l-.68-.13-.1-.6c-.03-.14.02-.24.16-.28.22-.06.46-.08.71-.04.2.03.29.14.24.34-.02.1-.08.16-.2.16h-.47c-.03 0-.05.02-.05.05v.08c0 .04.02.07.07.08l.65.13ZM38.32 34.62l-.55-.04c-.15-.01-.16-.05-.01-.1a.66.66 0 0 1 .6.02c.16.1.15.14-.04.12ZM41.02 35.3c2.55-.24-.67.02 1.74 0l1.6 3.37-29.16-.36-.09-.04a.36.36 0 0 1-.05-.06l1.08-3.02a.3.3 0 0 1 .1-.16.33.33 0 0 1 .19-.05c2.62 0 5.25-.04 7.9-.1.26 0 .53 0 .8.04.48.05.9-.14 1.37-.11.6.03 1.18.08 1.76.13.3.02.57-.1.86-.09 1.03.05 2.03.06 2.99.02 1.04-.05 2.06.19 3.1.1.11 0 .18.06.18.18v.13c0 .14.08.17.19.1a.13.13 0 0 0 .05-.13c-.02-.15.04-.22.19-.21l5.2.25Z" fill="#E7FBC5"/><path d="M40.52 40.21c.04.03.04.07.02.1-.88-.06-1.75-.08-2.61-.04H36c-.64-.01-1-.03-1.64.1H14.88l-1.9-1.7c1.3-.3 3.13.66 3.74.63a.9.9 0 0 1 .27.03c.14.03.27.05.39.05 1.86.02 3.85.12 5.8-.04.42-.04.44-.14.06-.31-.3-.15-.67-.21-1.1-.2-.04 0-.06-.02-.06-.06 0-.05.01-.07.05-.08.55-.07 1.07-.11 1.57-.13a.5.5 0 0 1 .33.11c.31.25.67.37 1.08.35 1.5-.08 2.7-.03 3.62.14 1.54.29 3.1.42 4.65.4.66-.02 1.32.05 1.98.19 1.3.27 2.67.39 4.13.35.27-.01.62.03 1.03.11Z" fill="#5E7E42"/><path d="M40.54 40.32c.02-.04.02-.08-.02-.1l2.31-.07c.2 0 .2.04.03.13-.72.39-1.5.4-2.32.04Z" fill="#E7FBC5"/></svg>