<svg width="112" height="112" viewBox="0 0 56 56" xmlns="http://www.w3.org/2000/svg"><path fill-rule="evenodd" d="M15.69 43h24.1c.7 0 3.38-.31 3.2-3.43a3.2 3.2 0 0 0-3.07-3.2h-11.9c-.67-.22-.48-.26-.2-.32l.2-.05H39.1c.36-.28 1-1.57.68-3.36-.33-1.8-2.09-2.57-2.93-2.64h-6.93c-.72-.2-.36-.38-.05-.53l.05-.03h5.95c.33-.27.93-1.23.7-2.85-.22-1.62-1.8-2.4-2.56-2.59h-2.17c-.5-.3-.21-.58 0-.69h1.3c.55-.79.69-1.91.69-2.37-.02-2.13-1.79-2.79-2.67-2.94H26v2.75l-2.23 1.57-1.72-.77A3.54 3.54 0 0 0 23.56 24h-1.5l-.03.01c-.45.13-2.63.73-2.75 2.93-.1 1.79.97 2.72 1.51 3.06h-2.5c-.85.08-2.64 1.44-2.69 3.44a3.39 3.39 0 0 0 1.48 2.92c-1.29-.06-4.13.22-4.08 3.23.04 2.41 1.8 3.28 2.69 3.41Zm3.53-10.14.9.46v.93l-.9.46-.91-.46v-.93l.9-.46Zm7.67-.47-.9-.46-.92.46v.93l.91.47.91-.47v-.93Zm1.02-5.98.91.46v.93l-.9.47-.92-.47v-.93l.91-.46Zm-3.55 1.02-1.67-.9-1.66.9v1.8l1.66.89 1.67-.9v-1.79Zm8.23-2.25 1.26.68v1.35l-1.26.68-1.26-.68v-1.35l1.26-.68Zm-5.43-1.64-1.09-.59-1.09.59v1.17l1.1.59 1.08-.59v-1.17Zm2.8-4.75 1.1.6v1.16l-1.1.59-1.08-.59v-1.17l1.09-.59Zm.34 4.62-.54-.3-.54.3v.58l.54.3.54-.3v-.58Z" fill="url(#acng5fuct)"/><path d="m23 16.12-2 1.29 2 1.23 2-1.23-2-1.3Z" fill="url(#bcng5fuct)"/><path d="M21 20.11v-2.7l2 1.18v2.75l-2-1.23Z" fill="url(#ccng5fuct)"/><path d="M25 20.11v-2.7l-2 1.18v2.75l2-1.23Z" fill="url(#dcng5fuct)"/><path d="m17.5 14.96-1.5.91 1.5.86 1.5-.86-1.5-.91Z" fill="url(#ecng5fuct)"/><path d="M16 17.77v-1.9l1.5.83v1.94l-1.5-.87Z" fill="url(#fcng5fuct)"/><path d="M19 17.77v-1.9l-1.5.83v1.94l1.5-.87Z" fill="url(#gcng5fuct)"/><path d="m26.5 12.9-1.5.91 1.5.87 1.5-.87-1.5-.91Z" fill="url(#hcng5fuct)"/><path d="M25 15.71v-1.9l1.5.83v1.94L25 15.7Z" fill="url(#icng5fuct)"/><path d="M28 15.71v-1.9l-1.5.83v1.94l1.5-.87Z" fill="url(#jcng5fuct)"/><path d="m18.5 20.05-1.5.87 1.5.83 1.5-.83-1.5-.87Z" fill="url(#kcng5fuct)"/><path d="M17 22.74v-1.82l1.5.8v1.85l-1.5-.83Z" fill="url(#lcng5fuct)"/><path d="M20 22.74v-1.82l-1.5.8v1.85l1.5-.83Z" fill="url(#mcng5fuct)"/><path d="m13.86 19.16-.74.47.74.45.75-.45-.75-.47Z" fill="url(#ncng5fuct)"/><path d="M13.12 20.62v-.99l.74.43v1l-.74-.44Z" fill="url(#ocng5fuct)"/><path d="M14.6 20.62v-.99l-.74.43v1l.75-.44Z" fill="url(#pcng5fuct)"/><path d="m18.52 11.64-.75.47.75.45.74-.45-.74-.47Z" fill="url(#qcng5fuct)"/><path d="M17.77 13.1v-.99l.75.43v1l-.75-.44Z" fill="url(#rcng5fuct)"/><path d="M19.26 13.1v-.99l-.74.43v1l.74-.44Z" fill="url(#scng5fuct)"/><path d="m26.14 9-.75.47.75.45.74-.45-.74-.47Z" fill="url(#tcng5fuct)"/><path d="M25.4 10.46v-.99l.74.43v1l-.75-.44Z" fill="url(#ucng5fuct)"/><path d="M26.88 10.46v-.99l-.74.43v1l.74-.44Z" fill="url(#vcng5fuct)"/><path d="m22.93 11.64-1.03.66 1.03.62 1.03-.62-1.03-.66Z" fill="url(#wcng5fuct)"/><path d="M21.9 13.67V12.3l1.03.6v1.39l-1.03-.62Z" fill="url(#xcng5fuct)"/><path d="M23.96 13.67V12.3l-1.03.6v1.39l1.03-.62Z" fill="url(#ycng5fuct)"/><path d="m14 12.1-1 .66 1 .62 1-.62-1-.66Z" fill="url(#zcng5fuct)"/><path d="M13 14.13v-1.37l1 .6v1.39l-1-.62Z" fill="url(#aacng5fuct)"/><path d="M15 14.13v-1.37l-1 .6v1.39l1-.62Z" fill="url(#abcng5fuct)"/><path d="m21.53 9.46-.51.33.51.31.52-.31-.52-.33Z" fill="url(#accng5fuct)"/><path d="M21.02 10.47V9.8l.51.3v.7l-.51-.32Z" fill="url(#adcng5fuct)"/><path d="M22.05 10.47V9.8l-.52.3v.7l.52-.32Z" fill="url(#aecng5fuct)"/><defs><linearGradient id="acng5fuct" x1="28" y1="18" x2="28" y2="43" gradientUnits="userSpaceOnUse"><stop stop-color="#E15C65"/><stop offset="1" stop-color="#771ADF"/></linearGradient><linearGradient id="bcng5fuct" x1="21.14" y1="17.38" x2="24.82" y2="17.38" gradientUnits="userSpaceOnUse"><stop stop-color="#7F20D5"/><stop offset="1" stop-color="#D9586E"/></linearGradient><linearGradient id="ccng5fuct" x1="20.94" y1="18.79" x2="22.96" y2="19.78" gradientUnits="userSpaceOnUse"><stop stop-color="#7C1CD9"/><stop offset="1" stop-color="#D75770"/></linearGradient><linearGradient id="dcng5fuct" x1="23" y1="19.71" x2="24.97" y2="19" gradientUnits="userSpaceOnUse"><stop stop-color="#8120D4"/><stop offset="1" stop-color="#D95870"/></linearGradient><linearGradient id="ecng5fuct" x1="16.11" y1="15.85" x2="18.87" y2="15.85" gradientUnits="userSpaceOnUse"><stop stop-color="#7F20D5"/><stop offset="1" stop-color="#D9586E"/></linearGradient><linearGradient id="fcng5fuct" x1="15.96" y1="16.84" x2="17.43" y2="17.61" gradientUnits="userSpaceOnUse"><stop stop-color="#7C1CD9"/><stop offset="1" stop-color="#D75770"/></linearGradient><linearGradient id="gcng5fuct" x1="17.5" y1="17.49" x2="18.96" y2="16.93" gradientUnits="userSpaceOnUse"><stop stop-color="#8120D4"/><stop offset="1" stop-color="#D95870"/></linearGradient><linearGradient id="hcng5fuct" x1="25.11" y1="13.79" x2="27.87" y2="13.79" gradientUnits="userSpaceOnUse"><stop stop-color="#7F20D5"/><stop offset="1" stop-color="#D9586E"/></linearGradient><linearGradient id="icng5fuct" x1="24.95" y1="14.78" x2="26.43" y2="15.55" gradientUnits="userSpaceOnUse"><stop stop-color="#7C1CD9"/><stop offset="1" stop-color="#D75770"/></linearGradient><linearGradient id="jcng5fuct" x1="26.5" y1="15.43" x2="27.96" y2="14.87" gradientUnits="userSpaceOnUse"><stop stop-color="#8120D4"/><stop offset="1" stop-color="#D95870"/></linearGradient><linearGradient id="kcng5fuct" x1="17.11" y1="20.9" x2="19.87" y2="20.9" gradientUnits="userSpaceOnUse"><stop stop-color="#7F20D5"/><stop offset="1" stop-color="#D9586E"/></linearGradient><linearGradient id="lcng5fuct" x1="16.95" y1="21.85" x2="18.4" y2="22.64" gradientUnits="userSpaceOnUse"><stop stop-color="#7C1CD9"/><stop offset="1" stop-color="#D75770"/></linearGradient><linearGradient id="mcng5fuct" x1="18.5" y1="22.47" x2="19.94" y2="21.89" gradientUnits="userSpaceOnUse"><stop stop-color="#8120D4"/><stop offset="1" stop-color="#D95870"/></linearGradient><linearGradient id="ncng5fuct" x1="13.17" y1="19.62" x2="14.54" y2="19.62" gradientUnits="userSpaceOnUse"><stop stop-color="#7F20D5"/><stop offset="1" stop-color="#D9586E"/></linearGradient><linearGradient id="ocng5fuct" x1="13.1" y1="20.14" x2="13.84" y2="20.51" gradientUnits="userSpaceOnUse"><stop stop-color="#7C1CD9"/><stop offset="1" stop-color="#D75770"/></linearGradient><linearGradient id="pcng5fuct" x1="13.86" y1="20.47" x2="14.59" y2="20.2" gradientUnits="userSpaceOnUse"><stop stop-color="#8120D4"/><stop offset="1" stop-color="#D95870"/></linearGradient><linearGradient id="qcng5fuct" x1="17.83" y1="12.1" x2="19.19" y2="12.1" gradientUnits="userSpaceOnUse"><stop stop-color="#7F20D5"/><stop offset="1" stop-color="#D9586E"/></linearGradient><linearGradient id="rcng5fuct" x1="17.75" y1="12.62" x2="18.49" y2="12.99" gradientUnits="userSpaceOnUse"><stop stop-color="#7C1CD9"/><stop offset="1" stop-color="#D75770"/></linearGradient><linearGradient id="scng5fuct" x1="18.52" y1="12.95" x2="19.25" y2="12.68" gradientUnits="userSpaceOnUse"><stop stop-color="#8120D4"/><stop offset="1" stop-color="#D95870"/></linearGradient><linearGradient id="tcng5fuct" x1="25.45" y1="9.46" x2="26.82" y2="9.46" gradientUnits="userSpaceOnUse"><stop stop-color="#7F20D5"/><stop offset="1" stop-color="#D9586E"/></linearGradient><linearGradient id="ucng5fuct" x1="25.37" y1="9.98" x2="26.12" y2="10.35" gradientUnits="userSpaceOnUse"><stop stop-color="#7C1CD9"/><stop offset="1" stop-color="#D75770"/></linearGradient><linearGradient id="vcng5fuct" x1="26.14" y1="10.31" x2="26.87" y2="10.04" gradientUnits="userSpaceOnUse"><stop stop-color="#8120D4"/><stop offset="1" stop-color="#D95870"/></linearGradient><linearGradient id="wcng5fuct" x1="21.97" y1="12.28" x2="23.87" y2="12.28" gradientUnits="userSpaceOnUse"><stop stop-color="#7F20D5"/><stop offset="1" stop-color="#D9586E"/></linearGradient><linearGradient id="xcng5fuct" x1="21.86" y1="13" x2="22.9" y2="13.51" gradientUnits="userSpaceOnUse"><stop stop-color="#7C1CD9"/><stop offset="1" stop-color="#D75770"/></linearGradient><linearGradient id="ycng5fuct" x1="22.93" y1="13.46" x2="23.94" y2="13.09" gradientUnits="userSpaceOnUse"><stop stop-color="#8120D4"/><stop offset="1" stop-color="#D95870"/></linearGradient><linearGradient id="zcng5fuct" x1="13.07" y1="12.74" x2="14.91" y2="12.74" gradientUnits="userSpaceOnUse"><stop stop-color="#7F20D5"/><stop offset="1" stop-color="#D9586E"/></linearGradient><linearGradient id="aacng5fuct" x1="12.97" y1="13.46" x2="13.98" y2="13.95" gradientUnits="userSpaceOnUse"><stop stop-color="#7C1CD9"/><stop offset="1" stop-color="#D75770"/></linearGradient><linearGradient id="abcng5fuct" x1="14" y1="13.92" x2="14.99" y2="13.57" gradientUnits="userSpaceOnUse"><stop stop-color="#8120D4"/><stop offset="1" stop-color="#D95870"/></linearGradient><linearGradient id="accng5fuct" x1="21.05" y1="9.78" x2="22" y2="9.78" gradientUnits="userSpaceOnUse"><stop stop-color="#7F20D5"/><stop offset="1" stop-color="#D9586E"/></linearGradient><linearGradient id="adcng5fuct" x1="21" y1="10.14" x2="21.52" y2="10.4" gradientUnits="userSpaceOnUse"><stop stop-color="#7C1CD9"/><stop offset="1" stop-color="#D75770"/></linearGradient><linearGradient id="aecng5fuct" x1="21.53" y1="10.37" x2="22.04" y2="10.18" gradientUnits="userSpaceOnUse"><stop stop-color="#8120D4"/><stop offset="1" stop-color="#D95870"/></linearGradient></defs></svg>