<svg width="112" height="112" viewBox="0 0 56 56" xmlns="http://www.w3.org/2000/svg"><rect fill="url(#aehqkftty)" width="56" height="56" rx="28"/><path d="M31 12h-6v17.5l3 1.5 3-1.5V12ZM16 21h-6l1.9 8.54a1 1 0 0 0 .53.67l4.46 2.24A2 2 0 0 1 18 34.24V41l7 3v-8.5l-5.6-2.58a2 2 0 0 1-1.11-1.4L16 21ZM31 44v-8.5l5.6-2.58a2 2 0 0 0 1.11-1.4L40 21h6l-1.9 8.54a1 1 0 0 1-.53.67l-4.46 2.24A2 2 0 0 0 38 34.24V41l-7 3Z" fill="#ED1651"/><defs><linearGradient id="aehqkftty" x1="10.42" y1="9.71" x2="68.15" y2="76.02" gradientUnits="userSpaceOnUse"><stop stop-color="#1A1E21"/><stop offset="1" stop-color="#06060A"/></linearGradient></defs></svg>