<svg width="112" height="112" viewBox="0 0 56 56" xmlns="http://www.w3.org/2000/svg"><path d="M26.86 12h2.36A15.94 15.94 0 0 1 44 27.46c.07 5.01-1.72 9.16-5.37 12.46a15.56 15.56 0 0 1-8.06 3.84c-.42.07-1.2.15-2.34.24h-.52c-.9-.08-1.87-.16-2.7-.32a15.77 15.77 0 0 1-7.74-3.82A15.9 15.9 0 0 1 12 29.14v-2.51a15.86 15.86 0 0 1 5.39-10.66A15.6 15.6 0 0 1 26.86 12Z" fill="#1B144A"/><path d="m42.54 22.46-.77-.89c-.31-.4-.58-.67-.8-.84-.98-.74-2.1-.9-3.35-.68-.37.07-.74.11-1.1.14-.68.05-1.27-.04-1.6-.71-.13-.24-.47-.4-.7-.44-.6-.12-.72.33-1.09.62-.25-.37-.5-.74-.84-1.03-.5-.43-1-.88-1.51-1.35-.22-.2-.45-.32-.7-.38-.06-.01-.07-.04-.02-.09l.2-.2c.06-.06.05-.1-.02-.11a62.91 62.91 0 0 0-3.32-.93 1.17 1.17 0 0 0-.5 0c-1.25.23-2.7.99-3.3 2.17-.34.68-.64 1.36-.92 2.04a.15.15 0 0 1-.07.07l-.04.03A.16.16 0 0 0 22 20c-.09.9-.2 1.86-.33 2.88-.05.36-.13.68-.24.96-.22.5-.56 1.04-.6 1.6 0 .21-.03.43-.07.65-.1.64-.18 1.26-.23 1.87-.06.68.32 1.21-.04 1.9a1.5 1.5 0 0 0-.13.9c.07.5.16.95.29 1.37.01.05 0 .1-.03.14-.1.15-.2.22-.34.22-1.2-.37-1.85-1.2-1.93-2.49-.03-.39-.22-.73-.58-1.01a1.02 1.02 0 0 0-.8-.2c-.35.05-.57.26-.64.63a.4.4 0 0 1-.3.32c-.52.12-1.04-.03-1.55-.45a.2.2 0 0 1-.03-.27c.07-.09.15-.14.2-.25.15-.33.08-.6-.2-.82-.23-.19-.57-.1-.83-.03a.12.12 0 0 1-.15-.06c-.17-.45-.3-.9-.36-1.38-.05-.44-.1-1.24-.1-2.4a14.23 14.23 0 0 1 3.2-6.26 15.5 15.5 0 0 1 10.23-5.31 18.2 18.2 0 0 1 2.05-.04c2.65.05 5.24.81 7.48 2.18a15.6 15.6 0 0 1 6.56 7.8Z" fill="red"/><path d="M30.97 19.27a8.6 8.6 0 0 0-2.08-.88 5.6 5.6 0 0 0-2.17-.14 3.58 3.58 0 0 0-1.32.63.09.09 0 0 1-.09-.1l.01-.05c.03-.1.07-.18.14-.24a16 16 0 0 1 .55-.44c.06-.05.05-.07-.02-.08-.05-.01-.1 0-.13.01-.26.13-.52.23-.76.42a5.03 5.03 0 0 0-1.86 3.2c-.02.13-.02.35 0 .65.02.47.42.63.68.95.17.22.5.4.78.33.14-.03.27-.04.4-.04.07 0 .12-.01.17-.05a.74.74 0 0 1 .37-.12c.26-.02.48-.14.7-.28a.32.32 0 0 1 .2-.06c.19 0 .32 0 .52-.06.64-.23 1.08-.15 1.33.24-.15.03-.31.04-.46.05-.19 0-.36.03-.52.08-.6.18-1.23.38-1.87.6-.84.3-1.64.34-2.41.15-.46-.11-.89 0-1.28.24-.09.06-.11.04-.06-.05.1-.18.16-.36.2-.55.18-.73.28-1.48.32-2.25.02-.3.09-.55.21-.76.1-.15.15-.3.17-.44.03-.24.04-.5.13-.72.32-.7.61-1.58 1.14-2.14.56-.6 1.3-1.02 2.23-1.28.28-.08.54-.1.78-.03a79.32 79.32 0 0 1 2.31.68.05.05 0 0 1 0 .04l-.26.3a.1.1 0 0 0 .08.16c.44-.02.85.08 1.2.3.25.14.79.63 1.63 1.45.02.02.02.03.01.05v.05c0 .02 0 .03.02.04.26.16.46.35.63.58.16.22.12.26-.11.12a4.76 4.76 0 0 0-.73-.37c-.34-.14-.6-.2-.78-.2Z" fill="red"/><path d="M30.97 19.27c.36.1.65.26.85.47l.15.41c.05.13.13.26.22.38l.39.5.37.52c.68 1.07 1.35 2.22 2.12 3.26l1 1.31a9.6 9.6 0 0 0 1.69 1.71c.45.36.85.77 1.2 1.22a8.03 8.03 0 0 1 1.37 2.97c.09.33 0 .6.12.91.01.03 0 .05-.03.06l-.04.01h-.01a8.9 8.9 0 0 0-1.66-3.55c-.01-.02-.03-.02-.05-.01l-.04.03a.06.06 0 0 0-.02.08 9.58 9.58 0 0 1 1.16 3.37c.1.8.24 1.43.04 2.3-.08.33-.03.66-.12 1-.17.62-.35 1.23-.57 1.84-.03.08-.1.2-.2.33a.83.83 0 0 0-.15.35c-.01.06-.03.1-.07.14-.08.07-.07.19 0 .33l-.84.72c.19-1.05.22-1.8.1-2.25-.09-.38-.12-.76-.2-1.12-.27-1.09-.47-2.2-.62-3.33 0-.02-.02-.04-.05-.04h-.04v.02c-.02.63-.01 1.26 0 1.88 0 .07-.02.08-.07.03a.12.12 0 0 1-.05-.08 3.81 3.81 0 0 0-.13-.82c-.16-.6-.1-1.25-.12-1.86-.02-.48.06-.97 0-1.44-.03-.18-.05-.18-.09 0l-.66 3.74c-.28.31-.47.62-.54.94-.14.58-.22 1.2-.26 1.87-.01.28.02.74.1 1.37.05.5.07 1.01.04 1.53-.32-.03-.49-.23-.5-.62-.02-.53-.03-1.05 0-1.55 0-.12-.02-.24-.05-.36-.02-.09-.04-.09-.06 0-.02.13-.03.26 0 .4 0 .1 0 .2-.04.28-.11.29-.16.57-.16.85 0 .04-.02.06-.06.06h-.05c-.01 0-.02 0-.02-.02l.23-2.41c.84-3.02 2.01-6.86.01-9.67a.31.31 0 0 1-.05-.27c.21-.84.13-1.7-.24-2.56-.1-.23-.14-.22-.1.03.05.4.22.68.05 1.1-.03.1-.06.1-.07 0a6.51 6.51 0 0 0-.24-1.34c-.15-.52-1.03-1.87-1.68-.9a.07.07 0 0 1-.07.04.08.08 0 0 1-.06-.03 2.9 2.9 0 0 0-.68-.71c-.09-.07-.11-.05-.07.05.07.19.16.38.25.58.45 1.04.9 2.3 1.32 3.78.03.1.05.1.06 0 0-.03.02-.06.05-.08.04-.04.09-.05.14-.02l.68.38c.26.14.33.38.43.64.36 1 .46 2.12.3 3.36-.02.14-.06.27-.12.4a.12.12 0 0 1-.11.06h-.72c-.04 0-.06.02-.06.06l-.01.06.01.01c.29.02.52.1.7.27a.14.14 0 0 1 .04.15.34.34 0 0 1-.17.18.17.17 0 0 1-.16 0l-.4-.21c-.18-.1-.23-.05-.17.14.13.32.24.65.35.97.06.18-.03.26-.08.41a3 3 0 0 1-.8 1.23l.26-1.43c.05-.26.03-.49-.05-.7a.2.2 0 0 0-.12-.12c-.07-.03-.1 0-.1.07a2.39 2.39 0 0 1-.79 1.8c-.12.12-.14.1-.04-.03.23-.34.46-.78.5-1.22.02-.17.07-.34.15-.51a.18.18 0 0 0-.03-.2c-.05-.06-.08-.05-.09.03a2.4 2.4 0 0 1-.75 1.62c-.2.2-.57.27-.67-.1-.15-.55-.26-1.1-.35-1.63-.06-.34-.03-.7.08-1.09 0-.03.02-.05.04-.07.05-.05.09-.08.12-.14.4-.77.74-1.57 1-2.4.01-.06 0-.07-.05-.02a.92.92 0 0 0-.03.03.32.32 0 0 0-.1.12c-.17.49-.47.89-.88 1.21.13-.21.17-.36.13-.43-.06-.1-.04-.17.05-.22.1-.07.17-.16.21-.27.04-.12.01-.14-.08-.05-.21.22-.43.41-.66.6a2.23 2.23 0 0 1-1.1.4.2.2 0 0 0 .02-.05l.01-.02c.68-.31 1.23-.72 1.64-1.22.54-.66.48-1.41.2-2.22-.23-.7-.45-1.37-.65-2.03a.6.6 0 0 0-.2-.3c-.67-.52-1.39-.98-2.16-1.36-.25-.4-.7-.47-1.33-.24-.2.07-.33.07-.52.06a.32.32 0 0 0-.2.06c-.22.14-.44.26-.7.28a.74.74 0 0 0-.37.12.27.27 0 0 1-.16.05c-.14 0-.27.01-.4.04-.29.07-.62-.11-.79-.33-.26-.32-.66-.48-.69-.95-.01-.3-.01-.52.01-.65a5.02 5.02 0 0 1 1.86-3.2c.23-.19.5-.3.76-.42a.22.22 0 0 1 .13-.01c.07 0 .08.03.02.08l-.55.44a.44.44 0 0 0-.14.24v.05a.09.09 0 0 0 .13.09c.52-.35.95-.56 1.27-.61a5.59 5.59 0 0 1 2.17.13c.75.21 1.44.5 2.08.88Z" fill="#E70D00"/><path d="M36.45 19.18a.35.35 0 1 0 0-.7.35.35 0 0 0 0 .7ZM42.54 22.46c.1.17.16.39.18.64 0 .08-.02.09-.07.03a2.2 2.2 0 0 0-1.1-.73.3.3 0 0 0-.4.3c.02.51.05 1.31-.78 1.07a1.85 1.85 0 0 0-1.66.28.19.19 0 0 1-.17.03.86.86 0 0 1-.22-.11c-.57-.38-1 .1-.98.68a.26.26 0 0 1-.25.27c-.05 0-.1 0-.14-.03a3.3 3.3 0 0 1-1.24-1.07c.52-.32.57-1.17-.1-1.35-.26-.06-.49.06-.75.14l-1.73-2.95c.37-.29.5-.74 1.09-.62.23.05.57.2.7.44.33.67.92.76 1.6.71.36-.03.73-.07 1.1-.14a4.07 4.07 0 0 1 3.35.68c.22.17.49.45.8.84.24.3.5.6.77.89Z" fill="#A20400"/><path d="M34.38 20.1a.43.43 0 1 0 0-.86.43.43 0 0 0 0 .87ZM31.82 19.74a7.5 7.5 0 0 1 2.61 3.09 7.02 7.02 0 0 0 4.67 3.53c.44.1.93.2 1.49.27.83.11 1.63.37 2.4.77.14.07.14.08 0 .03a10.5 10.5 0 0 0-3.04-.58 5.56 5.56 0 0 1-1.94-.44c-.1-.03-.11-.01-.04.06.1.12.2.21.35.28 1.58.83 2.84 1.5 3.3 3.4a21.34 21.34 0 0 1 .2 1.1h-.04c-.02 0-.03 0-.04-.02a4.52 4.52 0 0 0-1.89-3.02h-.03c-.02.03-.02.04 0 .06.76.69 1.21 1.59 1.35 2.7.3 2.58-.2 4.96-1.52 7.13-.23.38-.55.75-.95 1.1-.08-.14-.09-.25 0-.32a.24.24 0 0 0 .06-.14.82.82 0 0 1 .15-.35c.1-.14.17-.25.2-.33.22-.61.4-1.22.57-1.83.1-.35.04-.68.12-1.02.2-.86.06-1.49-.04-2.3a9.58 9.58 0 0 0-1.17-3.4c0-.02.01-.03.03-.04l.04-.03h.05A8.9 8.9 0 0 1 40.38 33h.04c.03-.02.04-.04.03-.07-.12-.31-.03-.58-.12-.9a8.03 8.03 0 0 0-1.37-2.98 6.72 6.72 0 0 0-1.2-1.22 9.61 9.61 0 0 1-1.7-1.71l-.99-1.31c-.77-1.04-1.44-2.2-2.12-3.26l-.37-.52-.39-.5c-.1-.12-.16-.25-.22-.38l-.15-.41Z" fill="red"/><path d="M38.72 22.89a.26.26 0 1 0 0-.53.26.26 0 0 0 0 .53Z" fill="#1B144A"/><path d="m35.7 23.82-.84-1.21c.26-.08.49-.2.75-.14.67.18.62 1.03.1 1.35Z" fill="red"/><path d="M41.39 22.73c0 .1.05.18.13.18.07 0 .14-.07.14-.17s-.05-.18-.13-.18-.14.07-.14.17Z" fill="#A20400"/><path d="M33.37 25.2c-.12-.04-.22-.14-.28-.29-.02-.04 0-.07.02-.1l.13-.11a.15.15 0 0 0 .06-.15c-.04-.22-.13-.37-.29-.44a.17.17 0 0 0-.18.01l-.3.2c-.06.05-.1.03-.13-.05-.07-.28.03-.5.3-.68.06-.04.1-.03.15 0 .23.19.4.41.52.68.32.75.36 1.5.1 2.25-.01.02-.03.03-.05.03l-.05-.01c-.01 0-.02-.02-.01-.03a1.81 1.81 0 0 0 .08-1.25.1.1 0 0 0-.07-.07ZM28.77 23.9c-.14.11-.37.1-.7-.04a.22.22 0 0 0-.15 0c-.28.08-.53.22-.76.42-.61.12-1.39.33-1.79.84a4.44 4.44 0 0 1-.68.68.11.11 0 0 1-.09 0 .11.11 0 0 1-.04-.03l-.08-.1c-.04-.05-.03-.1.03-.12.35-.2.68-.48.98-.88.05-.06.04-.08-.03-.05-.2.07-.37.18-.52.32-.25.24-.6.28-.85 0-.08-.07-.2-.12-.3-.06a.24.24 0 0 1-.17.04c-.44-.05-.66-.2-1.18-.03l-1.1.54c.56-1.05 1.41-1.07 2.49-.84.44.09.98.03 1.62-.17.72-.23 1.42-.46 2.1-.7.41-.14.82-.08 1.22.17Z" fill="#fff"/><path d="M28.77 23.9c.35.17.61.36.8.59.4.86.59 1.7.56 2.5a2 2 0 0 1-.13.55 3.73 3.73 0 0 0-.13.6c.02.01.05 0 .08-.02a.09.09 0 0 0 .02-.04l.23-.55h.02l.04.04c.02.02.03.04.02.06a2.67 2.67 0 0 1-.56 1.1.15.15 0 0 1-.06.02c-.04 0-.09 0-.14-.02-.2-.27-.5-.47-.86-.62.4-.22.63-.45.72-.68l.28-.18a.26.26 0 0 0 .1-.29 1.79 1.79 0 0 0-1.24-1.26l.7-.66c.1-.1.09-.15-.06-.13a.42.42 0 0 0-.17.04c-.81.43-1.65.83-2.5 1.2-.28.12-.6-.05-.64-.33-.01-.06 0-.12.04-.17l.52-.78a5.74 5.74 0 0 1 1.8-.54l-1.05-.05c.23-.2.48-.34.76-.42.05-.02.1-.02.15 0 .33.14.56.15.7.03Z" fill="#CCC"/><path d="M13.01 24.08c.02 1.16.06 1.96.11 2.4.07.47.19.93.36 1.38a.12.12 0 0 0 .15.06c.26-.08.6-.16.83.03.28.21.35.49.2.82-.04.1-.13.16-.2.25a.2.2 0 0 0 .03.27c.51.42 1.03.57 1.56.45a.4.4 0 0 0 .3-.32c.06-.37.28-.58.63-.63.32-.04.58.03.8.2.36.28.55.62.58 1.01.08 1.29.72 2.12 1.93 2.5a4.42 4.42 0 0 0-1.59 2.65.15.15 0 0 1-.2.03.86.86 0 0 1-.4-.55.83.83 0 0 0-.23-.4c-.28-.28-.92-.24-1.1.2a.06.06 0 0 1-.08.04 3.16 3.16 0 0 1-.38-.62 1.7 1.7 0 0 0-1.16-.96c-.45-.12-.9-.25-1.37-.4a1.26 1.26 0 0 1-.95-1.05l-.22-1.33a9.46 9.46 0 0 1-.13-1.33c-.02-.93-.06-1.9.1-2.78a10.26 10.26 0 0 1 .43-1.92ZM20.25 25.1a.81.81 0 0 1-.82.82.82.82 0 0 1-.81-.81.81.81 0 0 1 .81-.82.82.82 0 0 1 .82.82Z" fill="#A20400"/><path d="M19.59 25.28a.42.42 0 1 0 0-.84.42.42 0 0 0 0 .84Z" fill="red"/><path d="M29.57 24.49c.42.17.65.35.72.52.48 1.35.76 2.24.84 2.67.1.48-.08.93-.54 1.34a4.7 4.7 0 0 1-1.9 1.06c-.14.04-.26 0-.37-.11a18.2 18.2 0 0 1-.76-.8c.48-.12 1-.15 1.35.2.04.05.08.05.12 0a.16.16 0 0 0 .04-.09c.07.15.17.3.3.4.02.03.03.02.05 0l.03-.03a.02.02 0 0 0 0-.01v-.01a.46.46 0 0 1-.26-.38c.3-.16.41-.3.32-.43l.01-.1c.05.03.1.03.14.03a.15.15 0 0 0 .11-.05c.26-.33.43-.69.51-1.07 0-.02 0-.04-.02-.06l-.04-.04h-.02l-.23.55-.02.04c-.03.03-.06.03-.08.01a3.73 3.73 0 0 1 .13-.59 2 2 0 0 0 .13-.54 5.45 5.45 0 0 0-.56-2.51Z" fill="#999"/><path d="M22.44 24.9a2 2 0 0 1 1.36.7.28.28 0 0 0-.06.08c-.02.05-.01.1.02.14.05.06.09.14.1.22a.13.13 0 0 1-.08.15c-.02 0-.05.01-.07 0-.3-.06-.6-.14-.95-.23a.92.92 0 0 0-.42-.03c-.22.04-.36.16-.41.36-.44.23-.95.9-.33 1.28.14.09.13.15-.02.2a1.2 1.2 0 0 0-.25.12c-.07.04-.07.07.01.1.08.02.16 0 .23-.05.18-.14.35-.13.5.04a.1.1 0 0 1 0 .14.1.1 0 0 1-.04.02c-.32.1-.58.26-.79.46a.12.12 0 0 1-.2-.06c-.17-.6.05-1.06.1-1.65.05-.5.12-1 .2-1.46l1.1-.54Z" fill="#CCC"/><path d="m28.52 25.7-2.45 1.01a.18.18 0 0 1-.16 0l-.79-.46c-.05-.03-.06-.07-.03-.12.37-.5.8-.92 1.32-1.26l-.52.78a.25.25 0 0 0-.04.17c.03.28.36.45.63.34.86-.38 1.7-.78 2.51-1.2.05-.03.11-.05.17-.05.15-.02.17.03.06.13l-.7.66ZM23.8 25.6l.37.38c.18.2.12.4-.17.65a.27.27 0 0 1-.3.04c-.58-.25-1.07-.55-1.77-.38.05-.2.19-.32.4-.36a.92.92 0 0 1 .43.03 15.46 15.46 0 0 0 1.02.23.13.13 0 0 0 .09-.09v-.06a.56.56 0 0 0-.1-.22.13.13 0 0 1-.03-.14.28.28 0 0 1 .06-.09Z" fill="#fff"/><path d="M42.07 26.21a.25.25 0 1 0 0-.5.25.25 0 0 0 0 .5ZM14.14 26.13a.06.06 0 0 1 .09 0l.02.01.08.1.04.1v.1c0 .02-.01.05-.03.07l-.02.03a.15.15 0 0 1-.08.04h-.1a.36.36 0 0 1-.1-.03.46.46 0 0 1-.1-.07l-.02-.02a.06.06 0 0 1 0-.09l.22-.24Z" fill="#A20400"/><path d="M27.75 26.89c.11-.07.16-.18.15-.32a.17.17 0 0 1 .13-.17c.02 0 .05-.01.07 0 .1.01.18.07.22.15.24.44-.87 1.08-1.11.32-.02-.06 0-.1.07-.1.13-.02.25.02.35.11.04.03.08.04.12 0ZM22.79 26.97h.32a.12.12 0 0 1 .1.04l.02.06-.01.05c-.27.59-1.13 0-.76-.36a.16.16 0 0 1 .18-.02c.06.03.08.07.07.12a.08.08 0 0 0 0 .08.08.08 0 0 0 .08.03Z" fill="#E70D00"/><path d="M25 26.88c0 .08-.04.12-.08.13l-.26.16c-.43-.07-.45-.18-.04-.34.05-.02.18 0 .38.05Z" fill="#CCC"/><path d="M25 26.88c.16.04.3.1.43.2.1.06.09.08-.02.06a.5.5 0 0 0-.12 0 .36.36 0 0 0-.17.06l-.5.33c-.05.04-.11.03-.17-.01a2.2 2.2 0 0 1-.2-.2c-.07-.07-.06-.08.02-.04.23.1.47.05.72-.17a.05.05 0 0 0 .02-.04.05.05 0 0 0-.03-.04.16.16 0 0 0-.06-.02c.04 0 .07-.05.08-.13Z" fill="#999"/><path d="M29.38 27.43c-.09.23-.33.46-.72.68a4.62 4.62 0 0 1-1.09-.3c-.19-.09-.18-.13.03-.13.64 0 1.08.05 1.78-.25Z" fill="#fff"/><path d="M34.36 30.36v.02h-.02c-.05-.36.03-.73-.1-1.07-.08-.27-.11-.53-.2-.8-.11-.3-.24-.56-.39-.8-.13-.22-.09-.27.14-.14.16.1.26.24.3.42.1.42.18.85.23 1.3.04.38.15.69.04 1.07Z" fill="#1B144A"/><path d="m26.23 29.3 1.04.89c.05.04.07.1.08.15 0 .16-.04.3-.14.4a.23.23 0 0 1-.25.08c-.46-.15-.8-.14-1.04.05l-1.12-.06c-.63-.04-1.18 0-1.78.06-.2-.15-.47-.2-.8-.14-.2.03-.34-.11-.4-.45-.09 0-.01-.17.22-.53.08-.13.05-.16-.08-.08a.87.87 0 0 0-.23.21c-.18.23-.23.2-.14-.07.07-.22.25-.42.53-.6.05-.03.1-.04.15-.02.34.14.69.22 1.04.24.1 0 .12-.02.02-.08-.26-.15-.6-.17-.78-.43-.35-.5.18-1.06.68-1.08.4-.02.97-.08 1.27.21.06.06.12.06.19 0 .28-.27.75-.42 1.4-.45.42-.01.8.62.95.92.03.06.02.1-.03.14-.38.34-.91.55-1.4.66-.03 0-.03.02-.03.04s.02.03.04.02c.2-.05.4-.08.61-.08Z" fill="#CCC"/><path d="M25.92 28.63a.2.2 0 0 1 .1 0c.09.04.09.07 0 .1-.55.21-1.15.36-1.78.46-.39.06-.72-.14-1.02-.34a.34.34 0 0 0-.17-.05.62.62 0 0 1-.35-.12.26.26 0 0 1-.1-.3.26.26 0 0 1 .06-.09c.16-.17.32-.16.47.04.26.34.6.9 1.12.77.43-.11 1.16-.28 1.21-.83.03-.3.23-.45.62-.47.33-.01.58.3.64.58.01.06-.01.1-.07.11-.22.05-.45.06-.67.03-.04 0-.07.01-.09.04v.04c0 .02.01.03.03.03Z" fill="#1B144A"/><path d="M29.51 28.82c.09.12-.02.27-.32.43a2.39 2.39 0 0 0-1.66-.98l-.01-.01-.01-.02v-.02l.01-.04.01-.02a.06.06 0 0 1 .04-.03h.02c.38.1.76.18 1.14.22.14.01.4.17.78.47Z" fill="#CCC"/><path d="M21.22 29.42h-.03v-.01c-.06-.06-.08-.15-.04-.26a.8.8 0 0 1 .2-.33l.05-.05c.1-.1.22-.17.33-.2.11-.04.2-.02.26.03v.01a.02.02 0 0 1 0 .03l-.77.78Z" fill="#fff"/><path d="M29.07 29.28c0 .04-.02.07-.04.1-.04.04-.08.04-.12 0-.34-.36-.87-.33-1.35-.2-.13-.08-.17-.18-.11-.31l.12-.26c.03-.05.07-.07.12-.06.53.1 1 .35 1.38.73Z" fill="#CCC"/><path d="M16.74 29.62c.17.17.44.18.6.02a.42.42 0 0 0-.01-.6.43.43 0 0 0-.6-.02.42.42 0 0 0 0 .6Z" fill="red"/><path d="M32.88 35.11c-.15.12-.28.27-.39.46a.24.24 0 0 0-.02.16c.06.41.08.84.06 1.3-.02.5-.82 1.2-1.22 1.53a.09.09 0 0 1-.12 0l-.03-.04a.19.19 0 0 1 0-.25c.27-.28.56-.55.88-.81.24-.2.16-.58.09-.83-.03-.08-.05-.08-.08 0 0 .02-.02.02-.05.01a.04.04 0 0 1-.02-.03 1.1 1.1 0 0 0-.06-.17c-.1-.26-.16-.25-.18.03a.62.62 0 0 1-.16.41.27.27 0 0 1-.47-.17c-.02-.3-.06-.57-.11-.85-.03-.1-.06-.1-.1 0-.01.01-.03.02-.05.01-.05 0-.07-.04-.06-.09a1.7 1.7 0 0 0-.05-.66 3.85 3.85 0 0 1-.02-.43c0-.01-.01-.02-.03-.02a8.08 8.08 0 0 1-.14.7l-.16.7c-.06-.44-.1-.86-.1-1.29 0-.35-.05-.64-.13-.87-.1-.32-.23-.64-.38-.97a1 1 0 0 1-.08-.62c.05-.26.14-.48.25-.65.28-.41.62-.86 1.03-1.34.4-.32.7-.72.89-1.2.02-.06.05-.1.1-.13a.92.92 0 0 1 .02-.03c.05-.05.06-.04.05.02a14.2 14.2 0 0 1-1 2.4c-.03.06-.07.09-.12.14a.18.18 0 0 0-.04.07c-.11.4-.14.75-.08 1.09.09.54.2 1.08.35 1.63.1.37.46.3.67.1.46-.45.71-1 .75-1.62 0-.08.04-.1.1-.04a.17.17 0 0 1 .02.2c-.08.18-.13.35-.15.52-.04.44-.27.88-.5 1.22-.1.14-.08.15.04.04.51-.47.77-1.07.78-1.81 0-.08.04-.1.1-.07.07.02.1.06.13.12.08.21.1.44.05.7l-.26 1.43Z" fill="#A20400"/><path d="M28.88 32.7c-.41-.16-.76-.45-1.05-.86-.06-.1-.14-.12-.24-.16a2.29 2.29 0 0 0-.25-.4.7.7 0 0 0-.38-.26 4.92 4.92 0 0 0-1.04-.15c.24-.19.58-.2 1.04-.05a.24.24 0 0 0 .25-.07c.1-.12.14-.25.14-.4a.2.2 0 0 0-.08-.16l-1.04-.89.56-.14c.05-.01.1 0 .13.04.59.6 1.07 1.13 1.44 1.6.27.33.5.85.68 1.56.03.08 0 .1-.05.03a9.85 9.85 0 0 0-.84-.83c-.02-.02-.04-.02-.05 0-.02.02-.02.04 0 .06a5 5 0 0 1 .78 1.08ZM21.06 30.07c.17.46.25.95.23 1.46 0 .2-.06.21-.16.04a1.86 1.86 0 0 1-.1-1.76c.02-.06.03-.06.05 0l-.01.1a.19.19 0 0 0-.01.16ZM21.82 30.28c.06.34.2.48.4.45.33-.06.6-.01.8.14-.4 0-.82-.05-1.1.29a.07.07 0 0 1-.08.02.07.07 0 0 1-.05-.07l.03-.83Z" fill="#fff"/><path d="M16.44 30.98a.25.25 0 1 0 0-.5.25.25 0 0 0 0 .5ZM14.19 30.88l-.12-.11a.19.19 0 0 0-.15-.06c-.12 0-.21.07-.28.2a.11.11 0 0 0 0 .11c.14.2.3.23.48.09.1-.09.14-.06.1.07l-.03.15a.22.22 0 0 1-.17.16c-.26.08-.46.02-.6-.17-.31-.4.25-.96.68-.66a.3.3 0 0 1 .13.2c0 .05 0 .06-.04.02ZM31.08 30.8c-.15.59-.4 1.05-.76 1.4a.26.26 0 0 1-.16.07l-.11.01c-.1.01-.12-.02-.06-.1l.9-1.17a.26.26 0 0 0 .06-.13c0-.05.03-.09.07-.11.06-.04.07-.02.06.04Z" fill="#1B144A"/><path d="m37.85 39.93-1.24.92a.12.12 0 0 1-.1.02.13.13 0 0 1-.09-.07 7.21 7.21 0 0 1-.83-3.42c.07-.75.18-1.47.33-2.16.02-.1.03-.19.02-.28 0-.1 0-.18-.02-.28l.66-3.74c.04-.18.06-.18.09 0 .06.47-.02.96 0 1.44.03.6-.04 1.26.12 1.86.08.27.12.54.13.82 0 .03.02.06.05.08.05.05.08.04.07-.03a45.9 45.9 0 0 1 0-1.9h.04c.03 0 .05.02.05.04.15 1.13.35 2.24.62 3.33.08.36.11.74.2 1.12.12.45.09 1.2-.1 2.25Z" fill="#A20400"/><path d="M23.44 31.32c.4-.07.75-.09 1.08-.07l2 .15c.23.02.4.12.54.31.04.07.03.1-.06.08-.49-.09-.9.08-1.23.5a.15.15 0 0 1-.26-.05c-.1-.33-.34-.5-.74-.5-.29 0-.55-.1-.82-.17a.27.27 0 0 0-.16 0 .57.57 0 0 0-.22.13c-.05.05-.11.06-.17.03l-.27-.13a.24.24 0 0 0-.19-.02l-.88.28a.2.2 0 0 0-.13.13.2.2 0 0 1-.17.15c-.09.02-.1 0-.04-.08.14-.15.3-.31.47-.46.37-.33.8-.2 1.25-.28ZM27.6 31.68c.1.04.17.06.23.16.3.41.64.7 1.05.86.47.6.78 1.19.93 1.78.13.5.15 1.11.08 1.85a12.49 12.49 0 0 0-.2 3c.01.54-.2.88-.63 1 .18-.4.27-.65.27-.77-.02-1.72.08-3.1.3-4.14.04-.22.06-.63-.05-.84a7.82 7.82 0 0 0-1.89-2.22c-.12-.1-.15-.24-.08-.38a.2.2 0 0 0 .02-.14l-.04-.16Z" fill="#CCC"/><path d="m22.62 32.54.22-.38c.05-.1.12-.13.22-.08l.2.11a.24.24 0 0 1 .13.2c.01.09.05.17.1.25l.02.01a.04.04 0 0 0 .05-.02v-.02c0-.25.23-.57.51-.52.2.04.3.15.33.33a.11.11 0 0 0 .08.1.11.11 0 0 0 .11-.04l.18-.17c.04-.04.09-.05.14-.02.06.03.11.09.14.16.07.2 0 .31-.22.34l-1.4.16c-.36.05-.7-.02-1-.2-.04-.02-.06-.05-.05-.1l.08-.34a.06.06 0 0 1 .13 0c0 .07 0 .14-.02.21-.02.09 0 .1.05.02Z" fill="#CCC"/><path d="M26.87 33.15a.8.8 0 0 0-.15-.37l-.2-.35a.13.13 0 0 1 .08-.19c.14-.04.22 0 .27.13l.04.12c.5 1.12.48 1.34-.04.66Z" fill="#fff"/><path d="M26.72 32.78c.07.07.12.2.15.37l-.53-.55-.02-.03v-.03c.02-.04.04-.06.07-.05.01 0 .02 0 .03.02a.5.5 0 0 0 .3.27Z" fill="#999"/><path d="M21.78 33.12c-.1.08-.12.2-.06.35a.4.4 0 0 1-.1.24c-.06.05-.1.04-.1-.03-.07-.37-.02-.69.13-.96.1-.15.14-.14.14.04l-.01.36Z" fill="#fff"/><path d="M18.3 33.2c.08.12.23.16.34.1.1-.08.12-.23.03-.36-.08-.12-.23-.16-.34-.1-.1.08-.11.23-.03.36ZM20.96 33.79c-.3.1-.5.24-.6.4a9.9 9.9 0 0 0-.9 2.06l-.08.4c-.03.18-.12.3-.25.34a5.2 5.2 0 0 1 .2-2.3c.24-.82.71-1.44 1.43-1.87a.15.15 0 0 1 .2.05c.02.03.02.05.02.08l-.02.84Z" fill="red"/><path d="M21.78 33.12c.09.01.12.07.1.17a.16.16 0 0 1-.09.11.15.15 0 0 0-.07.07c-.06-.16-.04-.27.06-.35Z" fill="#999"/><path d="m20.96 33.79.3 1.16c-.24.47-.4.99-.43 1.54-.03.27-.17.48-.17.76a42.77 42.77 0 0 1-.03 1.34h-.04a.07.07 0 0 1-.08-.07l-.03-2.36c0-.03-.02-.04-.04-.04-.03.01-.05.03-.05.06a15 15 0 0 1-.13.7c-.13.64-.07 1.38-.07 2.05 0 .12.03.33.1.62.05.24.04.45-.02.65a8.05 8.05 0 0 1-1.14-3.2c.13-.05.21-.17.25-.36l.08-.4c.3-.9.6-1.59.9-2.06.1-.15.3-.29.6-.4Z" fill="#E70D00"/><path d="M23.67 34.92c.22.25.4.54.54.87.31.73.58 1.44.82 2.12.12.36.16.78.12 1.27 0 .08-.04.1-.1.03a.59.59 0 0 1-.14-.3c-.13-.74-.3-1.49-.53-2.23a4.06 4.06 0 0 0-1.08-1.85c-.3-.29-.58-.54-.87-.77-.18-.14-.17-.16.04-.06.44.2.84.51 1.2.92Z" fill="#fff"/><path d="M17.53 34.9c.2.03.39-.1.42-.28.02-.2-.12-.37-.32-.4-.2-.03-.4.1-.42.29-.03.19.12.37.32.4ZM20.27 40.2c.06-.2.07-.41.02-.65-.07-.3-.1-.5-.1-.62 0-.67-.06-1.41.07-2.05.05-.24.1-.47.13-.7 0-.03.02-.05.05-.06.02 0 .04.01.04.04l.03 2.36a.07.07 0 0 0 .02.05.07.07 0 0 0 .06.02h.04l.01-.01c.02-.45.02-.9.02-1.33 0-.28.14-.49.17-.76.04-.55.19-1.07.43-1.54l.52-.6c.03-.03.07-.04.12-.01a3.99 3.99 0 0 1 1.96 2.34l-.04.02c-.03.01-.05 0-.06-.02a3.58 3.58 0 0 0-1.41-1.5c-.26-.15-.28-.13-.07.08.51.48.9.94.95 1.68 0 .02-.01.03-.03.03h-.04a.08.08 0 0 1-.06-.02.08.08 0 0 1-.02-.06 1.39 1.39 0 0 0-.4-.9c-.08-.08-.1-.07-.05.04.22.6.17 1.18-.17 1.73-.35.57-.67 1.14-.96 1.72-.28.55-.27 1.1.02 1.64.22.4.44.77.68 1.12.04.06.02.08-.05.07a.7.7 0 0 1-.38-.17 9.2 9.2 0 0 1-1.5-1.94Z" fill="#A20400"/><path d="M25.77 36.26c.1.27.37.5.8.67.15.15.3.27.44.36.09.05.1.03.07-.06l-.42-.96c0-.1.03-.18.1-.22a.16.16 0 0 0 .08-.1c.03-.12.11-.2.23-.24a.24.24 0 0 1 .18 0c.05.03.1.08.12.13.14.37.35.71.62 1.02.02.26-.02.57-.12.92-.04.13-.12.17-.24.13-1.17-.38-2.2-1.2-2.4-2.47-.04-.36.03-.61.18-.92.04-.08.06-.08.04.01l-.07.51c-.04.44.09.85.4 1.22Z" fill="#CCC"/><path d="M30.74 35.12c-.06.13-.1.26-.1.4l-.09-.16a8.08 8.08 0 0 0 .14-.7l.03.03c0 .14 0 .29.02.43ZM28 36.86c-.28-.3-.49-.65-.63-1.02a.23.23 0 0 0-.12-.12.24.24 0 0 0-.18-.01.33.33 0 0 0-.23.23.16.16 0 0 1-.08.1c-.07.05-.1.12-.1.23-.06-.33 0-.67.17-1 .14-.28.38-.44.73-.46.15-.01.21.05.2.2-.04.2-.04.43-.02.67 0 .07.04.1.11.08.02 0 .03-.02.03-.03.03-.05.07-.06.12-.02.17.14.24.26.2.37l-.2.78Z" fill="#999"/><path d="m30.55 35.36.08.16-.05 1.44c-.1.4-.18.8-.26 1.19-.03.16-.08.35-.15.56-.07.23-.09.47-.05.72v.01l-.05.01c-.03 0-.05-.01-.05-.05-.01-.3-.09-.52.03-.82a.55.55 0 0 0 .03-.33l.3-2.19.17-.7Z" fill="#CCC"/><path d="M26.56 36.93c-.42-.17-.68-.4-.79-.67a1.1 1.1 0 0 0-.04-.74l.01-.02c.03 0 .03-.01.02-.01.14.56.4 1.04.8 1.44Z" fill="#999"/><path d="M28.39 38.42a.04.04 0 0 1-.04-.04v-.02c.04-.57.1-1.1.16-1.5.06-.4.13-.62.19-.62h.01c.03 0 .05.06.07.17a12.43 12.43 0 0 1 0 1.97v.02a.04.04 0 0 1-.01.03.04.04 0 0 1-.03.01l-.35-.02Z" fill="#CCC"/><path d="M29.9 36.33c.06.4.07.8.02 1.17-.05.36 0 .6.16.75.03.09.02.2-.03.33-.12.3-.04.53-.03.82 0 .04.02.05.05.05h.04l.01-.02a1.5 1.5 0 0 1 .05-.72c.07-.21.12-.4.15-.56.08-.4.16-.8.26-1.2.09 1.05.1 1.82.06 2.3a.44.44 0 0 1-.12.25l-1.05 1.12a.67.67 0 0 1-.32.18c-.52.14-1.04.25-1.56.33-.2.03-.37 0-.5-.1-.08-.05-.07-.08.03-.07.27 0 .53-.05.79-.17a.33.33 0 0 1 .17-.03c.4.04.73-.1.98-.43.44-.12.64-.46.63-1a12.54 12.54 0 0 1 .2-3Z" fill="#999"/><path d="m34.55 37-.23 2.4c0 .02 0 .03.02.03h.05c.04 0 .06-.02.06-.06 0-.28.05-.56.16-.85.03-.09.05-.19.03-.29-.02-.13-.01-.26.01-.39.02-.09.04-.09.06 0 .03.12.05.24.04.36-.02.5-.01 1.02 0 1.55.02.39.19.6.5.62.1.74-.13 1.28-.69 1.63-.22.13-.45.18-.69.15-.36-.05-.69-.1-1-.13a.38.38 0 0 1-.33-.36c-.05-1.44.53-2.94 1.18-4.25 0-.01.01-.02.02 0l.05.04v.03c-.45 1.2-.7 2.31-.75 3.36-.02.48.03.49.15.02A24.8 24.8 0 0 1 34.55 37ZM17.7 38.4a.48.48 0 1 0 0-.97.48.48 0 0 0 0 .97Z" fill="#A20400"/><path d="M25.64 37.98c.01.3.05.55.08.55.04 0 .07-.25.06-.56 0-.3-.04-.55-.08-.55s-.06.25-.06.56Z" fill="#fff"/><path d="M21.15 39.83c-.06.2.02.43 0 .65-.02.07-.04.07-.08.02-.32-.44-.1-1.16.14-1.58.23-.42.44-.86.64-1.3 0-.03.02-.04.05-.03l.04.01v.02l-.21.66c-.19.52-.45 1-.58 1.55Z" fill="#1B144A"/><path d="M27.83 39.33a4.38 4.38 0 0 1-1.63-.48c.5 0 .92-.03 1.28-.1.25-.05.48 0 .7.17a.12.12 0 0 1-.01.19l-.34.22Z" fill="#999"/><path d="M26.2 38.85c.45.25 1 .4 1.63.48l-.2.22a.16.16 0 0 1-.14.05l-.99-.1a.38.38 0 0 1-.32-.2c-.05-.07-.04-.22.02-.45Z" fill="#CCC"/><path d="m27.87 40.1.34-.43a.12.12 0 0 1 .1-.04l.34.02a.12.12 0 0 1 .1.17l-.17.37a.12.12 0 0 1-.1.06l-.5.04a.12.12 0 0 1-.13-.12c0-.02 0-.05.02-.06ZM25.78 39.93c.15.05.3.07.46.07a7.83 7.83 0 0 1 1.4.11l.04.07c.02.08 0 .14-.05.17-.15.08-.3.1-.46.08-.47-.08-1.15-.11-1.56-.38a.14.14 0 0 0-.14-.02.57.57 0 0 1-.55-.07c-.06-.04-.06-.08 0-.11.23-.12.48-.18.75-.18.05 0 .09.03.1.09l-.02.06c-.05.05-.04.09.03.1Z" fill="#fff"/><path d="m29.2 42.09.01.03c-.5.15-1.15.29-1.93.4-.5.07-.97-.03-1.4-.31a.58.58 0 0 1-.23-.3.38.38 0 0 1 0-.23c.02-.09.07-.1.13-.05.57.42 1.02.63 1.34.65.61.02 1.3-.04 2.08-.2Z" fill="#CCC"/><path d="M29.21 42.12a.4.4 0 0 1-.01-.03c.19-.08.38-.13.58-.16.03 0 .04.01.04.03 0 .02 0 .04-.02.04-.2.05-.39.09-.59.12ZM29.55 43.38c-.04-.15-.16-.25-.34-.3a8.62 8.62 0 0 1-.66-.25c.56-.18 1.1-.33 1.66-.46.42-.1.8-.13 1.16-.09.57.07 1.1.15 1.6.24.18.03.19.08.01.14-1.1.4-2.24.63-3.43.72Z" fill="#999"/><path d="M28.55 42.83c.23.1.45.18.66.24.18.06.3.16.34.3-1.3.23-2.56.06-3.75-.51-.02-.01-.03-.03-.02-.05l.02-.04c.01-.02.02-.03.05-.02.43.18.75.26.95.27.33 0 .92-.06 1.75-.19Z" fill="#CCC"/><defs><linearGradient id="atw2df2vw" x1="10.42" y1="9.71" x2="68.15" y2="76.02" gradientUnits="userSpaceOnUse"><stop stop-color="#1A1E21"/><stop offset="1" stop-color="#06060A"/></linearGradient></defs></svg>