<svg width="112" height="112" viewBox="0 0 56 56" xmlns="http://www.w3.org/2000/svg"><rect fill="#FFBF37" width="56" height="56" rx="28"/><circle cx="28" cy="28" r="17" fill="#800307"/><circle cx="28" cy="28" r="15" fill="#FFD742"/><path fill-rule="evenodd" d="m22.47 15.92-.17-.34-.3-.8a.23.23 0 0 0-.24-.15.23.23 0 0 0-.2.19l-.18.84v.2l.38 2.37a.22.22 0 0 1-.06.2l-.62.6-.18.23c-.81.92-1.43 1.94-1.88 3.05l-.14.37-.34 2.33c-.01.04-.03.07-.06.1a.18.18 0 0 1-.12.04h-.3a.32.32 0 0 1-.26-.13c-.3-.42-.67-.68-1.08-.78a.6.6 0 0 0-.73.56c0 .75.23 1.42.72 2 .3.36.45.8.6 1.23.08.22.15.43.24.64a.5.5 0 0 0 .24-.09l-.46-1.4.1-.44a.24.24 0 0 0-.04-.18l-.55-.83a.03.03 0 0 0-.06 0v.01l-.07.26a.12.12 0 0 1-.09.09.13.13 0 0 1-.13-.03c-.18-.17-.22-.36-.1-.55l-.01-.75a.22.22 0 0 1 .1-.2.23.23 0 0 1 .22-.02c.47.2.86.5 1.14.92a8.43 8.43 0 0 0 3.03.51.09.09 0 0 1 .05.08c0 .02 0 .03-.02.05a.82.82 0 0 1-.2.2.1.1 0 0 0-.04.07.1.1 0 0 0 .02.07l.03.05.02.01h.02l.47-.27c.74-.5 2.46-1.36 2.88-.1.12.37.03.68-.27.95l-.57.94.07.04a.09.09 0 0 0 .1-.02l.83-.95a.3.3 0 0 0 .08-.19V25.8a.07.07 0 0 1 .06-.08h.04c.47.19.94.47 1.4.87.35.32.64.5.86.54 1.64.33 4.18-2.05 4.84-2.94a3.95 3.95 0 0 0 .82-2.35.14.14 0 0 1 .1-.07h.05l.85.2 2.3 2.57c.71.93.83 1.94.36 3.04-.22.77-.6 1.3-1.16 1.6-.72.39-1.62.67-2.7.86-.89.12-1.72.4-2.5.84a124.34 124.34 0 0 0-1.3.76.07.07 0 0 0 .04.1h.05l.33-.06.05.01.03.03a.07.07 0 0 1 0 .08 25.72 25.72 0 0 0-2.95 4.25.17.17 0 0 1-.23-.03l-1.53-1.94a.12.12 0 0 1 .02-.17.12.12 0 0 1 .06-.02c1.49-.19 2.46-1 3.5-2 1.26-1.2 2.6-2.15 4.17-3.13a.72.72 0 0 0 .3-.84c-.05-.15-.08-.3-.07-.42a.15.15 0 0 0-.04-.1.16.16 0 0 0-.1-.06 1 1 0 0 0-.7.1.1.1 0 0 0-.03.12.1.1 0 0 0 .1.06l.37-.07a.28.28 0 0 1 .22.22.27.27 0 0 1-.12.28 70.71 70.71 0 0 0-4.16 2.87c-2.13 1.56-3.5 2.56-5.83 1.1a.1.1 0 0 1-.05-.1.1.1 0 0 1 .1-.1l2.57-.41a.03.03 0 0 0 .03-.03l-.01-.02-.02-.01c-1.63-.03-3.25-.2-4.89-.53-1-.42-1.11-.52-.32-.31.47-.14.94-.16 1.42-.09 1.3.21 2.5.42 3.6.62.72.14 1.58-.7 2.06-1.25l.16-.14c1.15-.8 2.48-1.54 3.98-2.21.1-.05.18-.13.2-.22a.07.07 0 0 0-.05-.1h-.04c-.88.34-1.67.7-2.37 1.1-.81.46-1.53.98-2.15 1.54-.68.81-1.3 1.09-2.4.87-.6-.12-1.21-.22-1.82-.33-1.1-.18-2.22-.37-3.3-.65a.3.3 0 0 1-.18-.13l-.06-.08a.21.21 0 0 0-.14-.02c-.04.01-.07.05-.09.1a.6.6 0 0 0 0 .28c.06.09.15.16.25.23a.31.31 0 0 1 .15.23c.06.57.46.88 1.22.92a.31.31 0 0 1 .24.14l.52.77a.14.14 0 0 1 0 .16.14.14 0 0 1-.05.04l-.52.32c-.12.16-.22.25-.3.3l-1.16 1.25c0 .06-.02.11-.1.18l-1.28 1.77-.27.35-.74.85c.05.1.12.19.22.24a.2.2 0 0 0 .12-.06l1.53-1.84h.02c-.2.53-.47.99-.82 1.39.03.2 0 .42-.08.63a.1.1 0 0 0 .04.12.1.1 0 0 0 .05.01c.13 0 .3-.08.51-.23l1.28-3.45c.31-.52.73-.93 1.25-1.25.27-.32.46-.42.57-.3.06.27.21.43.44.48l.64.14c.6.31 1.18.54 1.75.68.09.02.17.07.22.14l1.87 2.36c.03.04.05.09.05.14 0 .05 0 .1-.03.14l-.56.95a.08.08 0 0 1-.13 0l-1.37-2.05a.06.06 0 0 0-.04-.03h-.05l-.05.05c-.01 0-.02 0-.03.02a.08.08 0 0 0-.01.06l.01.03 1.52 2.27a.1.1 0 0 1 .01.08.1.1 0 0 1-.04.06l-.06.05a.1.1 0 0 1-.11 0 .1.1 0 0 1-.03-.02l-2.6-3.91a.1.1 0 0 0-.15-.03l-.05.04a.04.04 0 0 0-.02.06l2.68 4a.48.48 0 0 1 .05.44l-1.36 3.54c.2.07.3.09.35.08.49-1.4 1.22-3.11 2.2-5.13a24.91 24.91 0 0 1 3.66-5.64c.39-.52.94-.82 1.65-.9a.08.08 0 0 1 .08.05.08.08 0 0 1-.02.09l-.27.2a.7.7 0 0 0-.13.14c-2.12 3-3.89 6.16-5.3 9.45a1.3 1.3 0 0 1-.23.38h-.01c-.22.25-.79.89-.48 1.2.12.13.19.3.2.52l2.21.26a.34.34 0 0 0 .26-.08 1 1 0 0 1 .32-.2.13.13 0 0 1 .17.08l.01.06v.08c0 .03.03.06.05.08.03.03.06.04.1.03l1.47-.12-2.88-2.08a.17.17 0 0 1-.06-.2c1.66-3.7 3.52-7.25 6.28-10.27a.53.53 0 0 1 .22-.14l2.06-.72c0-.05.02-.08.08-.1a.1.1 0 0 1 .05 0l.04.02c1.64 1.45 3.48 3.13 5.52 5.04.15.15.27.29.37.42a.11.11 0 0 1-.02.14.1.1 0 0 1-.14.01c-.27-.2-.45-.4-.56-.6-.37.12-.8.02-1.32-.3a.7.7 0 0 0-.37-.1c-1.91 0-2.9 1.92-3.18 3.51a185.44 185.44 0 0 1-.32 1.76.1.1 0 0 1-.14 0 6.8 6.8 0 0 1-1.45-2.9.08.08 0 0 0-.05 0h-.07a.03.03 0 0 0-.03.04 4.65 4.65 0 0 0 .93 2.55s0 .02-.02.03a.06.06 0 0 1-.07 0l-1.85-1.58a.42.42 0 0 0-.16-.08l-.28-.06a.07.07 0 0 0-.07.02.07.07 0 0 0 0 .08c.17.32.36.55.55.68a32.86 32.86 0 0 1 2.03 1.57.25.25 0 0 1 0 .22.26.26 0 0 1-.08.09l-.5.39a.04.04 0 0 0-.02.03.03.03 0 0 0 .02.03l.1.06h.08l.49-.38a.37.37 0 0 1 .55.11c.03.06.05.13.04.2-.02.23.04.45.16.66.1-.03.19-.07.24-.13-.07-1.1.12-2.2.57-3.3.03-.06.01-.14-.05-.24a.05.05 0 0 0-.06-.01.04.04 0 0 0-.02.06c.01.03-.02.11-.11.24 0 .02-.02.03-.04.04a.08.08 0 0 1-.1-.04v-.06a5.44 5.44 0 0 1 1.3-2.6c.43-.48 1.44-.92 2.02-.47.38.29.71.61 1 .98l.53.64.87-1.47a256.26 256.26 0 0 0-4.53-4.21 15.57 15.57 0 0 0-1.55-1.28.13.13 0 0 1 .02-.15 3.66 3.66 0 0 0 1.02-2.2.13.13 0 0 1 .15-.04 8.3 8.3 0 0 0 4.32.54c.11-.09.27-.13.47-.11l.5-.27a.11.11 0 0 0 .07-.1.1.1 0 0 0-.05-.09.2.2 0 0 0-.09-.02.19.19 0 0 1-.13-.07.19.19 0 0 1-.04-.14c.02-.16-.08-.28-.3-.36a.08.08 0 0 1-.04-.07.08.08 0 0 1 .03-.07l.95-.62a.16.16 0 0 0 .05-.2.16.16 0 0 0-.19-.08l-.23.07c-.53.17-.98.32-1.55.34a6.82 6.82 0 0 1-4.6-1.47 25.97 25.97 0 0 1-1.56-1.27c-.45-.44-.47-.63-.53-1.19a.12.12 0 0 1 .04-.1.13.13 0 0 1 .12-.03l1.59.4c.08.01.16.03.25.03a6.4 6.4 0 0 0 5.03-2.14l-1.12-1.57a18.92 18.92 0 0 1-4.9-.08.09.09 0 0 1-.02-.1l.04-.04a8.15 8.15 0 0 1 3.58-1.12l-.4-.35-.42.1c-1.2.29-2.26.54-3.25 1.37a.51.51 0 0 1-.31.12 4.63 4.63 0 0 0-2.3.7.09.09 0 0 1-.05-.02.08.08 0 0 1 0-.1 7.56 7.56 0 0 1 5.37-2.95.94.94 0 0 0-.54-.34l-1.44.36c-.2.17-.38.27-.56.3-1.43.62-2.1 1.35-3.04 2.4l-.07.08a.17.17 0 0 1-.18.05c-2.21-.8-3.78-.49-5.77.36a.18.18 0 0 1-.22-.05c-.53-.71-1.23-1.38-2.09-2.01-.29-.22-.5-.6-.68-.93l-.02-.03Zm.32 4.13-.8-1.21-.02-.02a.04.04 0 0 0-.06.03c-.6 1.27-.23 2.97.49 4.1a.06.06 0 0 0 .05.02h.03l.01-.03.13-.5a.23.23 0 0 0-.03-.17c-.41-.7-.35-1.39.2-2.05a.14.14 0 0 0 0-.17Z" fill="#080506"/><path d="m37.08 15.73.96.78c-1.37.34-2.56.54-3.67 1.47a.51.51 0 0 1-.31.12 4.63 4.63 0 0 0-2.3.7.09.09 0 0 1-.05-.02.08.08 0 0 1 0-.1 7.56 7.56 0 0 1 5.37-2.95Z" fill="#FC1125"/><path d="M33.36 21.96c.18.52.51 1 1 1.4.26.22.48.41.65.59.2.2.42.4.65.58.71.93.83 1.94.36 3.04a4.7 4.7 0 0 1-2.33 1.83c-.7.2-1.2.4-1.53.63-.89.12-1.72.4-2.5.84a124.34 124.34 0 0 0-1.3.76.07.07 0 0 0 .04.1h.05l.33-.06a.07.07 0 0 1 .08.04.07.07 0 0 1 0 .08 25.72 25.72 0 0 0-2.95 4.25.17.17 0 0 1-.23-.03l-1.53-1.94a.12.12 0 0 1 .02-.17.12.12 0 0 1 .06-.02c1.49-.19 2.46-1 3.5-2 1.26-1.2 2.6-2.15 4.17-3.13a.72.72 0 0 0 .3-.84c-.05-.15-.08-.3-.07-.42a.15.15 0 0 0-.04-.1.16.16 0 0 0-.1-.06 1 1 0 0 0-.7.1.1.1 0 0 0-.03.12.1.1 0 0 0 .1.06l.37-.07c.05 0 .1.04.14.07a.28.28 0 0 1-.04.43 70.75 70.75 0 0 0-3.93 2.7c-2.26 1.65-3.65 2.78-6.06 1.27a.1.1 0 0 1-.05-.1.1.1 0 0 1 .1-.1l2.57-.41.02-.01a.03.03 0 0 0-.02-.05c-1.63-.03-3.25-.2-4.89-.54.07-.09-.04-.2-.32-.3.47-.14.94-.16 1.42-.09 1.3.21 2.5.42 3.6.62.72.14 1.58-.7 2.06-1.25l.16-.14c1.15-.8 2.48-1.54 3.98-2.21.1-.05.18-.13.2-.22a.07.07 0 0 0-.1-.1c-.87.34-1.66.7-2.36 1.1-.81.46-1.53.98-2.15 1.54l-1.77.73a.35.35 0 0 1-.2.02c-1.95-.37-3.3-.7-4.57-.85a3.48 3.48 0 0 1-1.12-.32.1.1 0 0 0-.04 0 .1.1 0 0 0-.06.1.21.21 0 0 0-.14-.02c-.04.01-.07.05-.09.1a.6.6 0 0 0 0 .28l-.08-.13c.02-.17-.02-.31-.12-.42l-.32-.57a.5.5 0 0 0 .24-.09l.13.14a.06.06 0 0 0 .03.02.06.06 0 0 0 .07-.05.06.06 0 0 0 0-.04c-.2-.4-.34-.87-.42-1.38a.26.26 0 0 0-.08-.15.18.18 0 0 0-.14-.05c-.02 0-.04.04-.05.12l.1-.45a.24.24 0 0 0-.04-.18l-.55-.83h-.02a.03.03 0 0 0-.04 0v.01l-.07.26a.12.12 0 0 1-.09.09.13.13 0 0 1-.13-.03c-.18-.17-.22-.36-.1-.55.12-.24.24-.4.36-.48a.25.25 0 0 1 .25-.01l.84.44a8.43 8.43 0 0 0 3.03.51.09.09 0 0 1 .05.08c0 .02 0 .03-.02.05a.82.82 0 0 1-.2.2.1.1 0 0 0-.02.14l.03.05.02.01h.02l.47-.27c0 .06.03.09.1.08h.03a3.7 3.7 0 0 1 2.06-.52c.08 0 .14.02.2.05.07.04.12.08.16.14.04.05.06.12.07.18 0 .07-.01.13-.04.19-.12.23-.1.48.03.73l-.57.94.07.04a.08.08 0 0 0 .1-.02l.83-.95a.3.3 0 0 0 .08-.19V25.8a.07.07 0 0 1 .03-.06.08.08 0 0 1 .07-.01c.47.18.94.46 1.4.86.35.32.64.5.86.54 1.64.33 4.18-2.05 4.84-2.94a3.95 3.95 0 0 0 .82-2.35.14.14 0 0 1 .1-.07h.05l.85.2Z" fill="#202128"/><path d="M35.66 24.53a7.26 7.26 0 0 1-.65-.58 8.73 8.73 0 0 0-.64-.59c-.5-.4-.83-.88-1-1.4l2.3 2.57ZM17.84 25.46l-.84-.44a.24.24 0 0 0-.25.01c-.12.08-.24.24-.35.48l-.02-.75a.22.22 0 0 1 .1-.2.23.23 0 0 1 .22-.02c.47.2.86.5 1.14.92ZM23.83 27.08a.77.77 0 0 1-.03-.73.36.36 0 0 0 .04-.19.38.38 0 0 0-.07-.18.42.42 0 0 0-.15-.14.45.45 0 0 0-.2-.05 3.7 3.7 0 0 0-2.1.52c-.07 0-.1-.02-.1-.08.74-.5 2.46-1.36 2.88-.1.12.37.03.68-.27.95Z" fill="#7A5858"/><path d="m17.79 28.58-.46-1.4c.01-.07.03-.1.05-.1.05-.01.1 0 .14.04.05.04.07.1.08.15a4.73 4.73 0 0 0 .42 1.42.06.06 0 0 1-.02.04.06.06 0 0 1-.07 0l-.02-.01-.12-.14Z" fill="#AF7C6B"/><path d="M36.02 27.57c-.22.77-.6 1.3-1.16 1.6a9.1 9.1 0 0 1-2.7.86c.33-.22.84-.43 1.53-.63a4.7 4.7 0 0 0 2.33-1.83Z" fill="#65413D"/><path d="M26.06 29.75c-.68.81-1.3 1.09-2.4.87-1.7-.33-3.43-.55-5.13-.98a.3.3 0 0 1-.17-.13l-.06-.08a.1.1 0 0 1 .06-.1.1.1 0 0 1 .04 0 3.49 3.49 0 0 0 1.12.32c1.28.15 2.62.48 4.57.85.06.01.13 0 .2-.02l1.77-.73ZM40.52 34.4l-5.34-4.93c0-.05.02-.08.08-.1a.1.1 0 0 1 .05 0l.04.02a227.6 227.6 0 0 1 5.52 5.04c.15.15.27.29.37.42a.11.11 0 0 1-.02.14.1.1 0 0 1-.14.01c-.27-.2-.45-.4-.56-.6Z" fill="#7A5858"/><path d="m35.18 29.47 5.34 4.92c-.37.13-.8.03-1.32-.29a.7.7 0 0 0-.37-.1c-1.91 0-2.9 1.92-3.18 3.51a187.29 187.29 0 0 1-.32 1.76.1.1 0 0 1-.14 0 6.8 6.8 0 0 1-1.45-2.9.08.08 0 0 0-.05 0h-.07a.03.03 0 0 0-.03.04 4.65 4.65 0 0 0 .93 2.55s0 .02-.02.03a.06.06 0 0 1-.07 0l-1.85-1.58a.42.42 0 0 0-.16-.08l-.28-.06a.07.07 0 0 0-.07.02.07.07 0 0 0 0 .08c.17.32.36.55.55.68a32.77 32.77 0 0 1 2.03 1.57.25.25 0 0 1 0 .22.26.26 0 0 1-.08.09l-.5.39a.04.04 0 0 0-.02.03.03.03 0 0 0 .02.03l.1.06h.08l.49-.38a.37.37 0 0 1 .55.11c.03.06.05.13.04.2-.02.23.04.45.16.66a14.31 14.31 0 0 1-5.93 1.85l-2.88-2.08a.17.17 0 0 1-.06-.2c1.66-3.7 3.52-7.25 6.28-10.27a.53.53 0 0 1 .22-.14l2.06-.72Z" fill="#202128"/><path d="M19.25 30.5c.28.1.39.21.32.3-1-.41-1.11-.52-.32-.3Z" fill="#AF7C6B"/><path d="m24.98 42.7-1.05-.26c.06-.35.13-.62.21-.79 1.33-2.9 2.4-5.1 3.22-6.64.38-.71 1.1-1.86 2.12-3.45.39-.52.94-.82 1.65-.9a.08.08 0 0 1 .08.05.07.07 0 0 1-.02.09l-.27.2a.69.69 0 0 0-.13.14c-2.12 3-3.89 6.16-5.3 9.45a1.3 1.3 0 0 1-.23.38c-.21.23-.8.88-.49 1.2.12.13.19.3.2.52Z" fill="#202128"/><path d="m23.93 42.44-.31-.11a49.8 49.8 0 0 1 2.2-5.13 24.92 24.92 0 0 1 3.66-5.64 53.73 53.73 0 0 0-2.12 3.45c-.81 1.53-1.89 3.74-3.22 6.64-.08.17-.15.44-.21.8Z" fill="#7A5858"/><path d="M20.71 32.56c-.26.3-.45.4-.56.3.27-.32.46-.42.56-.3Z" fill="#65413D"/><path d="M23.27 42.25a15.1 15.1 0 0 1-4.64-2.41 3.12 3.12 0 0 1 .58-1.2.11.11 0 0 1 .14.04 4.78 4.78 0 0 0 2.2 1.73 4.68 4.68 0 0 0 .92.16l.03-.02a.06.06 0 0 0 0-.08c-.1-.11-.18-.18-.26-.2a3.93 3.93 0 0 1-2.76-2.07l-.22-.77a.2.2 0 0 1 0-.12l.45-1.43a.09.09 0 0 0-.05-.1.09.09 0 0 0-.1.03c-.54.74-.7 1.53-.47 2.36a.29.29 0 0 1-.05.24l-.8 1.12-2-1.99a.2.2 0 0 0 .13-.06c.04.08.1.1.17.06.2-.13.4-.3.56-.51.03.2 0 .42-.08.63a.1.1 0 0 0 .04.12.1.1 0 0 0 .05.01c.13 0 .3-.08.51-.23.31-.38.51-.74.6-1.07l.68-2.38c.31-.52.73-.93 1.25-1.25.11.1.3 0 .57-.3.06.27.21.43.44.48l.64.14c.6.31 1.18.54 1.75.68.09.02.17.07.22.14l1.87 2.36c.03.04.05.09.05.14 0 .05 0 .1-.03.14l-.56.95a.08.08 0 0 1-.06.04.08.08 0 0 1-.07-.03l-1.37-2.06a.06.06 0 0 0-.04-.03.06.06 0 0 0-.05 0l-.05.05a.08.08 0 0 0-.04.08l.01.03 1.52 2.27a.1.1 0 0 1 .01.08.1.1 0 0 1-.04.06l-.06.05a.1.1 0 0 1-.14-.02l-2.6-3.91a.1.1 0 0 0-.15-.03l-.05.04a.04.04 0 0 0-.02.06l2.68 4a.48.48 0 0 1 .05.44l-1.36 3.54Z" fill="#202128"/><path d="m18.9 34.1-.68 2.39c-.09.33-.29.69-.6 1.07l1.28-3.45Z" fill="#AF7C6B"/><path d="M40.23 35.5c-2.79-.57-3.51 2.72-3.5 4.76l-1 .64c-.07-1.1.12-2.2.57-3.3.03-.06.01-.14-.05-.24a.05.05 0 0 0-.06-.01.04.04 0 0 0-.02.06c.01.03-.02.11-.11.24 0 .02-.02.03-.04.04a.08.08 0 0 1-.1-.04v-.06a5.44 5.44 0 0 1 1.3-2.6c.43-.48 1.44-.92 2.02-.47.38.29.71.61 1 .98Z" fill="#65413D"/><path d="m40.23 35.5.54.64a14.26 14.26 0 0 1-4.04 4.12c-.01-2.04.71-5.33 3.5-4.76Z" fill="#7A5858"/><path d="M17.1 37.03c-.17.21-.35.38-.56.51-.07.04-.13.02-.17-.06l1.53-1.84h.02c-.2.53-.47.99-.82 1.39Z" fill="#AF7C6B"/><path d="m18.63 39.84-.38-.31.8-1.12a.29.29 0 0 0 .04-.24 2.66 2.66 0 0 1 .47-2.36.09.09 0 0 1 .15.02v.05l-.45 1.43a.2.2 0 0 0 0 .12l.22.77a3.93 3.93 0 0 0 2.77 2.08c.07.01.16.08.24.2a.06.06 0 0 1 0 .07.07.07 0 0 1-.06.03 4.67 4.67 0 0 1-.88-.17 4.78 4.78 0 0 1-2.24-1.76.11.11 0 0 0-.14.03c-.26.35-.44.74-.54 1.16Z" fill="#080506"/><path d="M23.06 17.24c.28.4.63.77 1.05 1.1.15.11.3.27.44.47.18.24.35.37.52.38-.25.1-.4.2-.47.27a.33.33 0 0 1-.48.03 9.7 9.7 0 0 1-1.8-2.25.13.13 0 0 1 .04-.1.13.13 0 0 1 .05-.03h.07a.03.03 0 0 0 .04-.02.03.03 0 0 0 0-.03c-.1-.13-.19-.2-.27-.23l-.02-.01-.02-.03-.5-1.44v-.02l.02-.03a.47.47 0 0 1 .07-.04h.04l.03.02 1.19 1.96Z" fill="#202128"/><path d="M23.12 19.82v.05l-.02.03a.06.06 0 0 1-.08 0 6.09 6.09 0 0 1-.95-1.73 12.1 12.1 0 0 1-.18-.86c0-.02.02-.03.04-.03l1.19 2.54Z" fill="#65413D"/><path d="M23.06 17.24c.82.52 1.5 1.17 2.01 1.95-.17-.01-.34-.14-.52-.38-.15-.2-.3-.36-.44-.47a5.1 5.1 0 0 1-1.05-1.1Z" fill="#7A5858"/><path d="M26.42 18.9c.15-.13.48-.24 1-.34a6.23 6.23 0 0 1 4.54.76v.07a.09.09 0 0 1-.12.04l-.84-.36a.4.4 0 0 0-.22-.02c-.29.05-.5 0-.62-.14a.52.52 0 0 0-.4-.17H27.9l-1.43.23h-.03c-.01 0-.02 0-.02-.02v-.02l.01-.03ZM36.73 19.08c-1.55-.4-3-.37-4.34.11a.46.46 0 0 1-.24-.1.1.1 0 0 1-.03-.1.1.1 0 0 1 .06-.07c.98-.52 1.92-.54 3.18-.4 1.55.16 2.71.23 3.47.22.1 0 .16.04.18.14a.13.13 0 0 1-.07.15 34.41 34.41 0 0 0-2.21.05Z" fill="#65413D"/><path d="M36.73 19.08a11.54 11.54 0 0 0-3.13 1.6.13.13 0 0 1-.15-.07c-.27-.54-.62-1-1.06-1.42a7.24 7.24 0 0 1 4.34-.11Z" fill="#202128"/><path d="m33.3 21.57-.85-.08a.27.27 0 0 1-.2-.13c-1.06-1.8-3.52-1.21-5.09-.53a.43.43 0 0 1-.22.03l-2.03-.34a.4.4 0 0 1-.32-.3.38.38 0 0 1 .17-.4l1.09-.7a.3.3 0 0 1 .2-.06l6.17.62a.56.56 0 0 1 .4.22 5.2 5.2 0 0 1 .79 1.6.1.1 0 0 1-.1.07Z" fill="#FC1125"/><path d="M33.99 21.06a.09.09 0 0 1-.04-.15 4.66 4.66 0 0 1 3.6-1.35c.84.02 1.53-.09 2.34-.37a.13.13 0 0 1 .15.06.13.13 0 0 1-.02.15 6.26 6.26 0 0 0-.47.53.06.06 0 0 0 .06.06l.04-.02.58-.45a.11.11 0 0 1 .15.02l.04.06a.1.1 0 0 1 0 .14 5.8 5.8 0 0 1-6.43 1.32Z" fill="#202128"/><path d="M22.6 23.98a3.1 3.1 0 0 1-2.64 1.22.23.23 0 0 1-.14-.22l.13-2.44 1.26-2.8a.04.04 0 0 1 .04-.03l.03.01v.03c.04 1.6.4 2.9 1.32 4.23Z" fill="#D4B4A1"/><path d="M19.7 22.4c-.36.9-.56 1.89-.62 2.97a1.67 1.67 0 0 1-.11-.05.22.22 0 0 1-.13-.17 3.01 3.01 0 0 1 0-.65 8.83 8.83 0 0 1 1.7-4.26.04.04 0 0 1 .04.03v.02l-.89 2.12Z" fill="#FBF9F1"/><path d="M29.1 23.62c-.14.3-.08.58.16.83a.1.1 0 0 0 .17-.02.1.1 0 0 0 0-.07 2.1 2.1 0 0 1 .06-.81l1.24-.54a.17.17 0 0 0 .09-.1.17.17 0 0 0-.02-.14c-.11-.2-.2-.42-.25-.7l.01-.07a.1.1 0 0 1 .06-.04l.9-.25c0 .42-.1.84-.32 1.27-.84 1.72-2.2 3.43-4.33 3.18-.9-.1-2.16-1.09-3.04-1.62.5-.22.86-.56 1.1-1.05a.25.25 0 0 0-.03-.27.95.95 0 0 1-.1-.13.23.23 0 0 1 .3-.07.23.23 0 0 1 .11.28l-.31.8a.06.06 0 0 0 .03.07l.07.04a.08.08 0 0 0 .06 0 .09.09 0 0 0 .05-.04l.2-.33a.17.17 0 0 1 .1-.08.18.18 0 0 1 .14.02l.22.12a.09.09 0 0 0 .12-.01.08.08 0 0 0 0-.12c-.14-.15-.27-.18-.34-.37-.2-.55-.74-1.56-1.33-1.92-.17-.1-.24-.3-.2-.56a.14.14 0 0 0-.09-.15.15.15 0 0 0-.17.04c-.23.29-.48.47-.77.57l-.08-.47c.1-.13.14-.3.12-.47.25-.17.53-.23.83-.17.1.01.18.06.25.12.34.31.63.5.85.57.03.01.06.04.08.07.02.03.03.06.03.1-.01.14.03.24.13.32.34.26.56.55.68.88.15.38.31.63.5.76.33.22.7.29 1.07.18a.38.38 0 0 1 .31.06c.4.28.84.38 1.33.3Z" fill="#7A5858"/><path d="M23.83 24.54c.88.53 2.15 1.52 3.04 1.62 2.13.25 3.5-1.46 4.33-3.18.21-.43.32-.85.32-1.27a.33.33 0 0 0 .16-.08.07.07 0 0 0-.02-.1 1.78 1.78 0 0 0-3.15.57.04.04 0 0 1-.03-.02v-.01l-.03-.07v-.01l2.2-.74a.1.1 0 0 0-.02-.18l-1.84-.16c.27-.4.8-.55 1.61-.47 1.17.12 2 .97 1.63 2.2a4.4 4.4 0 0 1-1.1 1.9c-.98.98-2.06 1.74-3.23 2.29-.49.22-1.07.05-1.55-.36a6 6 0 0 0-3.22-1.4.08.08 0 0 1 0-.12c.2-.23.51-.37.9-.41Z" fill="#65413D"/><path d="M23.03 20.44a.65.65 0 0 1-.12.47c-.01-.07-.05-.1-.12-.11a.73.73 0 0 1 .24-.36Z" fill="#AF7C6B"/><path d="m22.9 20.91.1.47-.09.47a.11.11 0 0 1-.1.09.11.11 0 0 1-.12-.08c-.1-.35-.07-.7.1-1.06.06 0 .1.04.12.11Z" fill="#D4B4A1"/><path d="m29.7 21.92-1.55.69-1.68.17c-.23-.06-.35-.3-.35-.68 0-.1.03-.19.09-.26.24-.3.56-.52.95-.64a.06.06 0 0 1 .08.03.06.06 0 0 1-.02.08l-.75.48a.06.06 0 0 0-.02.04v.04l.05.08a.07.07 0 0 0 .05.02.06.06 0 0 0 .04 0 8.1 8.1 0 0 1 2.2-1.06l1.84.15a.1.1 0 0 1 .08.08.1.1 0 0 1-.06.1l-2.2.75.02.08.01.01h.01l.02.01h.02c.37-.2.76-.25 1.17-.17Z" fill="#7A5858"/><path d="m24.6 23.27-.92.52a.21.21 0 0 1-.29-.1.2.2 0 0 1-.02-.1l.1-1.3.25-.6a.05.05 0 0 1 .1.02c.13.55.4 1.07.77 1.56ZM23.31 22.24c-.1.6-.27 1.11-.52 1.52-.16-.62.02-1.3.55-2.03a.07.07 0 0 1 .08-.02.07.07 0 0 1 .05.07c-.03.16-.08.32-.16.46Z" fill="#D4B4A1"/><path d="M24.24 21.83c.08-.04.26.17.52.66.07.12.06.2-.02.25-.09.05-.16 0-.23-.12-.27-.48-.36-.74-.27-.79ZM29.94 22.95c.07-.1.12-.33.15-.68a.13.13 0 0 1 .1-.1h.08c.03.02.05.04.06.07.07.16.11.29.13.37.04.18 0 .3-.11.34-.16.06-.27.1-.34.1a.07.07 0 0 1-.07-.02.07.07 0 0 1 0-.08Z" fill="#FBF9F1"/><path d="M23.32 22.24c.07.04.13.05.15.05l-.1 1.3a.2.2 0 0 0 .1.19.21.21 0 0 0 .21 0l.91-.51c-.1.58-.5.92-1.18 1.02a.26.26 0 0 1-.23-.09l-.39-.44c.25-.4.42-.91.53-1.52ZM19.7 22.4c.07.1.15.14.25.14l-.13 2.44a.23.23 0 0 0 .14.22c.03.02.06.02.1.02a3.1 3.1 0 0 0 2.54-1.24c.13.13.22.25.28.39a.18.18 0 0 1-.04.2 3.89 3.89 0 0 1-3.12 1.04c-.32-.03-.54-.11-.64-.24.06-1.08.26-2.07.61-2.96Z" fill="#AF7C6B"/><path d="M28.15 22.6c-.4.32-1.27.66-1.68.18l1.68-.17Z" fill="#D4B4A1"/><path d="M29.33 22.88c-.02.04-.14.06-.34.08a.32.32 0 0 0-.23.13c-.17.22-.4.27-.68.14a.1.1 0 0 1-.06-.09.1.1 0 0 1 .05-.08 3.04 3.04 0 0 1 1.23-.31.1.1 0 0 1 .05.08.1.1 0 0 1-.02.05Z" fill="#FBF9F1"/><path d="M29.49 23.55c-.08.3-.1.57-.06.81a.1.1 0 0 1-.12.12.1.1 0 0 1-.05-.03c-.24-.25-.3-.52-.17-.83l.4-.07Z" fill="#AF7C6B"/><path d="M41.05 26.59c0 .04.11.11.32.21a.07.07 0 0 1 .04.07.07.07 0 0 1-.04.06c-.27.1-.62.16-1.04.17a7.89 7.89 0 0 1-3.58-.67.3.3 0 0 1-.17-.28 3.28 3.28 0 0 0-.31-1.4l.01-.03.03-.01h.03a7.28 7.28 0 0 0 4.69 1.13l.03.04v.05l-.04.03c-.1.05-.14.12-.11.22 0 .04.03.07.07.09l.17.1a.07.07 0 0 1 .03.08l-.01.03a.2.2 0 0 1-.08.05.07.07 0 0 0-.03.02v.04Z" fill="#FC1125"/><path d="M32.26 30.48a24.38 24.38 0 0 0-3.12 4.32 60.04 60.04 0 0 0-2.9 5.7.2.2 0 0 1-.09.1.21.21 0 0 1-.13.02l-.11-.01a.12.12 0 0 1-.1-.11v-.05c.98-2.29 2.22-4.6 3.71-6.96A19.24 19.24 0 0 1 32 30.35a.1.1 0 0 1 .04 0l.19.01a.07.07 0 0 1 .06.05v.04l-.02.03Z" fill="#202128"/><path d="M21.85 32.58a6.48 6.48 0 0 0 1.74.83l.02.02v.02l-.02.06a5.5 5.5 0 0 1-1.86-.76 5.38 5.38 0 0 1-1.4-1.42.12.12 0 0 0 .05-.05h.04a6.27 6.27 0 0 0 1.43 1.3Z" fill="#65413D"/><path d="M26.4 42.12c.14-.13.18-.3.1-.39-.09-.08-.26-.04-.4.1-.13.13-.17.3-.09.39.09.08.27.04.4-.1Z" fill="#D4B4A1"/><path d="M26.79 42.37c-.11.14-.13.31-.03.39.1.07.26.02.37-.13.12-.14.13-.31.04-.39-.1-.07-.27-.02-.38.13Z" fill="#FBF9F1"/><path d="M22.6 27.21a.11.11 0 0 0-.05-.12.12.12 0 0 0-.12-.01l-1.46.66a.06.06 0 0 1-.05 0 .06.06 0 0 1-.03-.03l-.04-.07a.1.1 0 0 1 0-.08.11.11 0 0 1 .06-.06l1.71-.78a.3.3 0 0 1 .39.13c.02.04.03.09.03.14 0 .25-.12.42-.35.5a.1.1 0 0 1-.14-.06.1.1 0 0 1 0-.06l.04-.16ZM27.6 41.03a.09.09 0 0 1-.03-.03.08.08 0 0 1-.01-.05v-.1a.03.03 0 0 1 .02-.02h.02c1.94.54 3.67.73 5.65.07h.05l.04.03.05.08a.03.03 0 0 1 0 .02v.01l-.01.01c-1.51.93-4.13.59-5.77-.02Z" fill="#080506"/><path fill-rule="evenodd" d="M28 44a16 16 0 1 0 0-32 16 16 0 0 0 0 32Zm0-1a15 15 0 1 0 0-30 15 15 0 0 0 0 30Z" fill="#DF1C30"/></svg>