<svg width="112" height="112" viewBox="0 0 56 56" xmlns="http://www.w3.org/2000/svg"><path d="M43.52 21.19c.64 1.5 1.01 2.65 1.13 3.46l.3 2.39c.15 1.27-.07 2.35-.17 3.57-.09.97-.46 1.92-.73 2.87-.35 1.24-1 2.25-1.57 3.37-.54 1.04-1.36 1.87-2.1 2.76a8.15 8.15 0 0 1-1.55 1.45c-.82.58-1.49 1.25-2.42 1.7-1.02.48-2.07 1.12-3.16 1.39-.55.13-1.1.28-1.63.43a8.6 8.6 0 0 1-1.95.32c-.93.04-1.79.15-2.73.07a19.25 19.25 0 0 1-4.98-1.1 11 11 0 0 1-1.69-.77c-.72-.42-1.48-.77-2.14-1.28a17.98 17.98 0 0 1-3.99-4.02c-.6-.79-1.03-1.68-1.48-2.55-.32-.61-.6-1.3-.82-2.06a16.98 16.98 0 0 1-.71-7.34c.07-.66.2-1.3.38-1.9.26-.83.41-1.73.8-2.52l1.03-2.04c.44-.86 1.1-1.56 1.66-2.32.41-.56.88-1.06 1.41-1.5.73-.6 1.37-1.27 2.19-1.74 1-.58 2.02-1.27 3.14-1.64l1.55-.53a7.98 7.98 0 0 1 1.87-.42c.92-.1 1.86-.3 2.77-.22 1.28.1 2.5.01 3.74.42.94.3 1.92.39 2.8.85.5.27 1.02.52 1.54.75 1.09.49 2.01 1.3 2.95 2.01.85.64 1.47 1.46 2.17 2.24.47.52.9 1.12 1.3 1.8.49.83.85 1.53 1.1 2.1Z" fill="#010100"/><path d="M33.53 12.42c-.05.1-.09.16-.13.18h-.04a.14.14 0 0 1-.06-.06h-.02a.02.02 0 0 0-.01 0 .29.29 0 0 1-.07.14.18.18 0 0 1-.14.06 520.88 520.88 0 0 0-1.74 0 .16.16 0 0 0-.08.07.11.11 0 0 1-.04.05 11.73 11.73 0 0 0-1.2-.07.08.08 0 0 1-.04-.05c-.02-.06-.06-.09-.12-.08-.25.03-.5.02-.72-.03a2.58 2.58 0 0 0-.72-.05c-.48.04-.93.1-1.36.18a.3.3 0 0 0-.18.09.2.2 0 0 1-.06.05 5.33 5.33 0 0 0-1.5.2c-.37.1-.71.08-1.09.06-.09 0-.16.03-.22.1l-.27.36a.2.2 0 0 1-.2.08c-.2-.04-.35.07-.48.33a14.76 14.76 0 0 0-8.86 8.38c-.01-.3.04-.57.15-.83a.45.45 0 0 1 .14-.17c.09-.06.12-.14.1-.24-.01-.06 0-.1.06-.12l.09-.04c.09-.04.14-.12.16-.22.05-.23.14-.45.3-.64a.4.4 0 0 0 .08-.22c0-.14.07-.25.18-.32a.21.21 0 0 0 .1-.2l-.12-1.61c0-.1-.05-.12-.13-.06a.78.78 0 0 1-.37.15c.85-1.21 1.52-1.78 2.81-2.89.76-.65 1.6-1.08 2.44-1.58a8.8 8.8 0 0 1 1.67-.75c.59-.2 1.18-.41 1.76-.63.3-.1.58-.19.87-.24l1.32-.15a7.5 7.5 0 0 1 2.04-.21c1.16.08 2.25.1 3.43.38.76.19 1.51.39 2.27.6Z" fill="#CAB400"/><path d="m25.8 11.65-1.33.15c.4-.14.84-.19 1.32-.15Z" fill="#4C8200"/><path d="M33.53 12.42c1.73.74 2.84 1.28 3.3 1.63 1.04.77 2.16 1.53 2.98 2.47.82.94 1.66 1.82 2.25 2.93.44.84 1 1.64 1.27 2.55.34 1.13.78 2.17.93 3.39.22 1.78.22 3.55-.01 5.33a7.92 7.92 0 0 1-.45 1.84c-.3.8-.42 1.67-.86 2.4-.64 1.11-1.17 2.32-2.04 3.29-.59.64-1.1 1.32-1.77 1.9-.6.52-1.22 1.02-1.84 1.49-.21-.35-.57-.42-1.06-.2-.08.04-.15.03-.2-.03l-.02.01v.07a.13.13 0 0 1-.13.1c-.24.02-.46.1-.64.25-.2.16-.45.28-.76.35-.47.11-.92.2-1.37.25-.24.03-.47.08-.68.17-.26.1-.52.2-.8.28-.32.1-.7.14-1.1.14-.56 0-1.12.02-1.68.06-.43.04-.82.02-1.16-.07-.39-.1-.76-.2-1.14-.33 1.85.06 3.07.02 3.68-.12 1.2-.28 2.2-.57 2.97-.87.5-.2 1.06-.46 1.67-.77a9.12 9.12 0 0 0 1.43-.91l1.35-1.04c.69-.53 1.16-1.2 1.71-1.85.73-.85 1.2-1.8 1.75-2.78.55-.98 1-2.48 1.2-3.45.34-1.68.37-3.48.07-5.4-.07-.5-.19-.97-.34-1.4-.3-.86-.5-1.77-.97-2.56-.53-.9-.94-1.75-1.6-2.59a15.33 15.33 0 0 0-6.04-4.6c-.4-.17-.78-.3-1.13-.38-.95-.23-1.9-.54-2.85-.6-.5-.02-1-.06-1.5-.1a7.48 7.48 0 0 0-1.41.04c-1.19.15-2.35.39-3.5.72.13-.26.29-.37.47-.33a.2.2 0 0 0 .2-.08l.28-.36c.06-.07.13-.1.22-.1.38.02.72.04 1.09-.05a5.32 5.32 0 0 1 1.5-.21.2.2 0 0 0 .06-.05.3.3 0 0 1 .18-.1c.43-.08.88-.13 1.36-.17.26-.01.5 0 .72.05.23.05.47.06.72.03.06 0 .1.02.12.08 0 .02.02.03.04.05l.07.01a11.73 11.73 0 0 1 1.13.06.12.12 0 0 0 .05-.05.15.15 0 0 1 .07-.06 552.82 552.82 0 0 1 1.74-.01c.05 0 .1-.02.14-.06a.29.29 0 0 0 .07-.14.02.02 0 0 1 .01 0h.01c.02.03.04.05.07.06h.04c.04-.02.08-.08.13-.18Z" fill="#C3A100"/><path d="M35.87 37.35c.13.2.28.22.45.08 1.03-.85 1.9-1.83 2.6-2.94.19-.28.43-.72.72-1.32.39-.79.63-1.57.73-2.34.12-.88.2-1.81.25-2.78a8.61 8.61 0 0 0-.75-4.1c-.1-.2-.18-.4-.26-.62a2 2 0 0 0-.31-.57c-.2-.26-.37-.54-.49-.85-.07-.2-.17-.37-.3-.5-.13-.15-.25-.3-.36-.48a7.16 7.16 0 0 0-.54-.7c-.35-.41-.71-.8-1.1-1.18a4.75 4.75 0 0 0-.78-.63c-.26-.16-.5-.34-.75-.53a.39.39 0 0 0-.26-.08c-.18.01-.25.07-.21.17-1.65-3.34-5.08-4.35-8.52-3.22-.55.18-1.33.57-2.36 1.16-.07-.28-.24-.32-.52-.1-.9.7-1.75 1.3-2.56 1.78-.71.44-1.24.81-1.58 1.12-.46.43-.89.93-1.28 1.49-.17.25-.34.47-.5.67-.16.2-.3.43-.44.67l-.91 1.57a.36.36 0 0 0-.06.23.73.73 0 0 1-.1.46.53.53 0 0 0-.09.24c-.02.34-.1.68-.21 1.02-.2.56-.32 1.15-.37 1.79-.02.19-.06.38-.11.57-.05.17-.08.36-.09.57a7 7 0 0 0 .07 1.28c.1.61.2 1.25.33 1.92.03.2.1.39.19.57.1.18.17.38.22.6.07.3.18.58.33.86l.38.8c.12.28.28.55.48.81.18.24.34.5.49.77.24.44.8.91 1.66 1.42l.06 1.82c0 .13-.05.15-.15.07a14.11 14.11 0 0 1-2-19.79 14.26 14.26 0 0 1 12.51-5.18c.57.05 1.08.15 1.54.3.67.2 1.38.31 2.01.57a14.04 14.04 0 0 1 8.84 15.5 14.05 14.05 0 0 1-5.9 9.32c-.08.06-.11.04-.11-.05l.11-2.24Z" fill="#7FC900"/><path d="m31.76 41.7-.03-1.08c.88-.03 1.23-.4 1.06-1.12a.78.78 0 0 0-.69-.64c.55-.6.77-1.4.66-2.43.1-.26.54-.37 1.3-.3a.51.51 0 0 0 .53-.41c.08-.42-.1-.69-.55-.8-.2-.07-.3-.2-.26-.4.09-.5-.07-.87-.49-1.14.27-1.27.32-2.57.13-3.92.28-1.25 0-2.33-.81-3.24-.1-.1-.07-.14.06-.14.95-.02 1.9-.8 1.38-1.8-.24-.46-.73-.7-1.47-.74a6.74 6.74 0 0 0-2.3-2.64 5.6 5.6 0 0 0-3.2-.96c-1.76 0-3.33.69-4.72 2.04a3.84 3.84 0 0 0-1.16 1.9 1.7 1.7 0 0 0-.62 1.6 8.87 8.87 0 0 0-.31 3.95 48.51 48.51 0 0 0 .55 3.16c-.43.3-.67.75-.74 1.35-.03.24.02.43.14.58a.16.16 0 0 0 .28-.07l.21-1c-.03.2.04.36.22.47l.2.11c.07.03.16 0 .25-.07-.27.8.18 1.35.53 1.99-.2.03-.26.13-.2.3.58 1.75.96 3.4 1.16 4.96a9.54 9.54 0 0 1-3.05-1.53.26.26 0 0 1-.1-.21c-.17-4.6-.43-9.23-.16-13.69.09-1.4.27-2.6.54-3.62.9-3.29 2.85-5.52 5.85-6.7 3.41-1.35 6.67-.16 8.15 3.16.63 1.42 1.02 2.91 1.14 4.46.14 1.76.23 3.65.2 5.42-.03 3.77-.14 7.61-.32 11.51 0 .1-.05.16-.12.21a14.93 14.93 0 0 1-3.24 1.49Z" fill="#4C8200"/><path d="M23.63 15.92c-1.77 1.32-3.07 3-3.92 5.07a9.86 9.86 0 0 0-3.18 8.8l.13.94c.05.27.15.57.3.88.2.43.4.86.58 1.3.1.23.24.44.43.61.07.07.12.15.15.24l.41 1.22c.03.1.1.14.2.12l.17-.03.06 1.96a4.43 4.43 0 0 1-1.66-1.42 6.57 6.57 0 0 0-.49-.77c-.2-.26-.36-.53-.48-.8-.12-.28-.25-.54-.38-.8a4.04 4.04 0 0 1-.33-.88 2.77 2.77 0 0 0-.22-.6c-.1-.17-.16-.36-.2-.56l-.32-1.92a7 7 0 0 1-.07-1.28c0-.2.04-.4.09-.57.05-.2.09-.38.1-.57.06-.64.19-1.23.38-1.8.11-.33.19-.67.21-1.01 0-.09.04-.17.08-.24.09-.15.13-.3.11-.46 0-.08.01-.16.06-.23.31-.52.61-1.04.9-1.57.14-.24.3-.47.45-.67.16-.2.33-.42.5-.67.39-.56.82-1.06 1.28-1.49.34-.3.87-.68 1.58-1.12.8-.49 1.66-1.08 2.56-1.78.28-.22.45-.18.52.1Z" fill="#A5E702"/><path d="M30.25 18.7c1.14.98 2.42 1.37 2.85.86.44-.5-.14-1.7-1.28-2.67-1.15-.97-2.43-1.36-2.86-.86-.43.5.15 1.7 1.29 2.68Z" fill="#7FC900"/><path d="M14.18 22.41a15.19 15.19 0 0 0-.15 10.64c.31.92.83 1.82 1.29 2.73-.02.3-.12.56-.3.8a.33.33 0 0 0-.06.27c.03.15-.03.26-.19.32s-.28.03-.36-.09a.33.33 0 0 0-.14-.1l-.25-.12a18.03 18.03 0 0 1-2.27-5.49c-.09-.37-.18-1.17-.29-2.4-.1-1.2.03-2.19.13-3.33.09-1.03.45-2.03.74-3.02.34-1.18.99-2.25 1.55-3.35.14-.27.48-.73 1.04-1.38a.78.78 0 0 0 .37-.15c.08-.06.12-.04.13.06l.13 1.6c0 .09-.03.16-.1.2a.39.39 0 0 0-.2.33.4.4 0 0 1-.08.22c-.15.2-.24.4-.29.64a.28.28 0 0 1-.16.22l-.1.04c-.04.02-.06.06-.05.12.02.1-.01.18-.1.24a.45.45 0 0 0-.14.17c-.11.26-.16.54-.15.83Z" fill="#DBCC00"/><path d="m35.87 37.35.07-1.38a4.7 4.7 0 0 0 1.34-1.1 10.88 10.88 0 0 0 1.63-10.25 2.17 2.17 0 0 0-.23-.48 1.67 1.67 0 0 1-.22-.55l-.06.02-.01.01v.01l.15.58c.02.1.01.1-.03 0a8.7 8.7 0 0 0-2.09-3.01 3.1 3.1 0 0 1-.37-.46c-.2-.29-.4-.36-.61-.2-.2-.91-.5-1.76-.93-2.56-.04-.1.03-.16.21-.17.1 0 .18.03.26.08.24.2.5.37.75.53.27.18.54.39.78.63.39.38.75.77 1.1 1.17.2.25.39.49.54.71.11.17.23.33.37.48.12.13.22.3.3.5.11.3.27.59.47.85a2 2 0 0 1 .32.57c.08.21.16.42.26.63.57 1.25.83 2.6.75 4.09-.04.97-.13 1.9-.25 2.78-.1.77-.34 1.55-.73 2.34-.3.6-.53 1.04-.71 1.32a13.06 13.06 0 0 1-2.6 2.94c-.18.14-.33.12-.46-.08Z" fill="#A5E702"/><path d="M22.26 19.33c.25-.11.48-.16.68-.13.2.02.2.08.04.18-.38.2-.7.47-.97.79-.08.1-.12.08-.12-.04 0-.42.12-.68.37-.8Z" fill="#194100"/><path d="M33.9 19.76c1.16.74.4 2.91-.68 1.82-.22-.23-.4-.47-.5-.72a.43.43 0 0 1 .3-.6c.28-.07.5-.22.64-.45.06-.1.14-.11.24-.05Z" fill="#7FC900"/><path d="M32.58 23.54c-2.02.1-3.05 1.13-4.4 2.41-.53.51-1.1.52-1.7.03a74.11 74.11 0 0 0-2.07-1.6c-.98-.74-2.03-1.1-3.21-.5.13-.64.52-1.27 1.16-1.9a6.63 6.63 0 0 1 4.71-2.04 5.6 5.6 0 0 1 3.22.96 6.74 6.74 0 0 1 2.3 2.64Z" fill="#619D00"/><path d="M35.95 35.97c.08-2.58.13-5.73.14-9.44 0-2.1-.21-4.1-.65-6 .2-.15.41-.08.61.2.15.22.28.37.37.47a8.7 8.7 0 0 1 2.12 3.01l-.15-.58v-.01l.07-.03c.05.2.12.38.22.55.1.15.17.31.23.48 1.19 3.7.65 7.11-1.63 10.24-.25.34-.7.71-1.33 1.1ZM19.71 20.99a21.8 21.8 0 0 0-.8 4.72 133.4 133.4 0 0 0 0 9.36l-.17.03c-.1.02-.18-.02-.21-.12l-.41-1.22a.56.56 0 0 0-.15-.24 1.76 1.76 0 0 1-.43-.6c-.18-.45-.37-.88-.58-1.3a3.37 3.37 0 0 1-.3-.9c-.05-.28-.09-.59-.13-.92a9.86 9.86 0 0 1 3.18-8.81ZM37.87 22.7c-.23-.2-.4-.45-.52-.76-.04-.09-.02-.1.06-.04.25.22.4.49.46.8Z" fill="#BEFA3C"/><path d="M37.87 22.7c.23.18.38.4.43.68.02.1 0 .1-.06.03-.17-.22-.3-.46-.37-.71Z" fill="#BEFA3C"/><path d="M26.07 26.25c1.51 1.3 2.46.04 3.49-.95a4.32 4.32 0 0 1 3.05-1.28c.55 0 1.36.45 1 1.1-.12.25-.36.45-.65.43-2-.1-3.16.71-4.42 2.14-.64.74-1.75 1.06-2.53.3a8.27 8.27 0 0 0-4.53-2.4c-.37-.07-.55-.28-.56-.63 0-.8 1.13-1.1 1.74-.94 1.27.36 2.41 1.38 3.4 2.23Z" fill="#9DC8DD"/><path d="M20.58 25.48c.45.37.92.6 1.38.7.11.01.12.06.04.13-2.58 2.16-.43 6.07 2.85 5.35 1.12-.25 1.75-1.43 1.77-2.5 0-.14.07-.2.22-.18.24.05.48.04.72-.03.17-.05.26.01.27.18.1 1.49 1.18 2.46 2.65 2.38 1.26-.06 2.24-.75 2.94-2.05.19 1.35.14 2.65-.13 3.92a2.13 2.13 0 0 0-1.53.1c-1.87.88-3.72 1.62-5.76 1.1-1.27-.33-2.08-1.27-3.43-1.3-.57 0-.97.22-1.2.68-.08.08-.17.1-.24.07l-.2-.1c-.18-.12-.25-.28-.22-.48l.24-.6c.04-.08.02-.14-.04-.2a1.11 1.11 0 0 0-.09-.06 8.87 8.87 0 0 1-.24-7.12Z" fill="#619D00"/><path d="M32.07 26.33c.11.04.21.1.29.2.8.89.93 2.2.27 3.21-.53.82-1.38 1.22-2.57 1.2-.73 0-1.28-.39-1.63-1.14-.26-.57-.16-1.04.24-1.48.56-.61 1.16-1.19 1.78-1.72.48-.4 1.02-.5 1.62-.27ZM22.73 30.88c-1.33-.65-1.72-2.3-1.09-3.58.36-.73 1.14-1.04 1.86-.62a10.8 10.8 0 0 1 2.43 2.01c.23.26.3.57.22.94-.42 1.67-2.09 1.9-3.42 1.25Z" fill="#DDE7C4"/><path d="M30.69 27.93c.08-.2.22-.35.4-.46.1-.05.2-.06.3-.02.23.1.33.25.3.48-.03.22-.18.35-.2.55 0 .08.03.14.1.17.4.17.54.44.38.8a.56.56 0 0 1-.86.21c-.19-.15-.37-.14-.55.01-.42.36-.62.26-.6-.31v-.24c0-.1-.04-.18-.13-.22a.5.5 0 0 1 .41-.93 1 1 0 0 0 .28.06c.08 0 .14-.03.17-.1ZM24.6 29.55c.04.11.05.23.03.34a.23.23 0 0 1-.15.17.23.23 0 0 1-.22-.03c-.13-.1-.26-.17-.4-.21a.24.24 0 0 0-.23.04c-.84.68-1.51-.4-.83-.78.28-.15.3-.34.05-.6a.37.37 0 0 1-.03-.46c.34-.49.78-.1 1.01.22.06.08.14.1.22.05l.25-.11c.1-.05.2-.07.32-.04.25.06.39.21.41.46a.33.33 0 0 1-.13.3c-.11.1-.2.2-.28.32a.35.35 0 0 0-.03.33ZM28.72 31.14c.25 1.23.08 2.25-.5 3.06a.43.43 0 0 1-.21.16c-1.03.33-1.69 0-1.97-1.01a5.35 5.35 0 0 1-.23-1.77c0-.12.07-.17.2-.15l.06.01a.34.34 0 0 1 .27.3c.05.69.15 1.49.61 2.02a.3.3 0 0 0 .24.1c1.14 0 1.1-1.67 1.06-2.48 0-.1.02-.18.08-.25.07-.1.16-.13.28-.1.06 0 .1.05.11.1ZM29.93 32.5c-.15 0-.22-.1-.22-.24v-.08c0-.03.02-.05.03-.07a.1.1 0 0 1 .07-.02c.84 0 1.23-.21 1.92-.4.34-.1.4-.02.17.24-.43.49-1.08.68-1.97.58ZM22.4 32a2.91 2.91 0 0 0 2.23.28.11.11 0 0 1 .1.09v.08a.2.2 0 0 1-.12.21c-.76.27-1.5.21-2.2-.17a.35.35 0 0 1-.2-.27v-.08a.13.13 0 0 1 .05-.13.13.13 0 0 1 .14 0ZM33.67 32.67a.23.23 0 0 1-.06-.04c-.07-.07-.08-.12-.04-.17.05-.08.11-.1.2-.09.82.15 1.17.7 1.04 1.62a.13.13 0 0 1-.14.11h-.1a.07.07 0 0 1-.07-.08c0-.67-.29-1.12-.83-1.35Z" fill="#010100"/><path d="M22.8 33.9a.7.7 0 0 1 .11.28c.02.08.06.15.12.2.2.16.34.09.4-.23.02.22.17.3.46.25 0 .13.03.23.12.32.06.08.14.1.22.09a.59.59 0 0 0 .24-.13c.2.21.4.3.6.27.2.35.4.4.62.16a1 1 0 0 0 .67.13c.04.16.19.24.44.23.31 0 .63-.05.96-.17.03.1.08.2.15.26.06.06.13.07.21.02l.32-.19c.26-.03.49-.12.69-.25-.03.06-.02.1.03.1.26.08.43-.01.5-.27.19.13.39.13.6 0 .2.06.37-.03.48-.26a.76.76 0 0 0 .46-.25c.28.1.47-.02.57-.35l.09.02c.05.02.1 0 .13-.05.18-.26.45-.38.8-.35.49.05.68.59.5.96a.21.21 0 0 1-.18.13c-.37 0-.6.11-.7.35l-1.03.52c-.02-.2-.14-.2-.36 0-.32.29-.58.62-.8 1a.22.22 0 0 1-.2.1c-.12 0-.22-.02-.28-.09-.19-.2-.34-.17-.46.08-.12.26-.36.36-.71.32-.22.03-.43.13-.62.32a.7.7 0 0 0-.4-.03c-.02-.16-.12-.23-.29-.2-.18.05-.26.2-.35.35-.2-.11-.35-.12-.47-.03-.13-.55-.43-.6-.91-.16l-.42-.04c.06-.11.1-.2.1-.25 0-.22-.1-.3-.3-.2-.24.1-.35.22-.33.37a1.54 1.54 0 0 0-.52-.55.5.5 0 0 0-.06-.18c-.04-.08-.1-.1-.19-.05-.1.06-.2.15-.27.27.03-.1 0-.18-.05-.22a.28.28 0 0 0-.28-.05c.09-.2.1-.37.03-.5-.05-.08-.12-.1-.2-.09-.19.05-.26.16-.23.35-.32-.37-.6-.77-.86-1.2-.23-.38-.27-.88.12-1.18.24-.18.48-.16.73.08Z" fill="#194100"/><path d="M22.8 33.9c.24-.06.45.02.64.25-.07.32-.2.4-.4.23a.34.34 0 0 1-.13-.2.7.7 0 0 0-.1-.27ZM31.77 34.11c-.1.33-.29.44-.57.35 0-.21.19-.33.57-.35ZM23.89 34.4c.27 0 .46.1.58.28a.59.59 0 0 1-.24.13c-.08.01-.16-.01-.22-.09a.44.44 0 0 1-.12-.32ZM30.74 34.7c-.11.24-.27.33-.48.26-.07-.09-.08-.18-.03-.26a.38.38 0 0 1 .5-.11l.01.12ZM25.69 35.1c-.22.25-.42.2-.61-.15.1-.08.31-.03.6.16ZM29.66 34.97c-.07.26-.24.35-.5.28-.05-.02-.06-.05-.03-.11.15-.1.33-.16.53-.17Z" fill="#DDE7C4"/><path d="m31.38 35.7 1.04-.53c.58-.11 1.42-.3 1.9.14a.35.35 0 0 1-.17.6c-.58.1-1.12 0-1.62-.28a.37.37 0 0 0-.4.02.35.35 0 0 0-.1.1l-.14.26c-.05.09-.13.12-.23.1-.26-.06-.44.05-.56.31a.2.2 0 0 1-.1.1.2.2 0 0 1-.14.02l-.08-.02a.1.1 0 0 1-.07-.06.11.11 0 0 1 0-.1c.1-.24.33-.46.67-.67Z" fill="#C77152"/><path d="M26.36 35.24c.5-.07.64.01.44.23-.25.01-.4-.07-.44-.23ZM28.44 35.4l-.32.18c-.08.05-.15.04-.21-.02a.61.61 0 0 1-.15-.26c.2-.08.44-.1.69-.09.08.01.1.05.05.11l-.06.07Z" fill="#DDE7C4"/><path d="M15.32 35.78a26.84 26.84 0 0 0 1.87 2.4 14.95 14.95 0 0 0 9.37 4.51c.37.13.74.24 1.13.33.34.09.73.11 1.16.07.56-.05 1.12-.07 1.68-.06.4 0 .78-.05 1.1-.14.28-.08.54-.18.8-.28.21-.09.44-.14.68-.17.45-.05.9-.14 1.37-.25.31-.07.56-.19.76-.35.18-.15.4-.23.64-.25.06 0 .1-.04.12-.1 0-.02.01-.04 0-.07 0-.01.01-.02.02 0 .06.05.13.06.21.02.5-.22.85-.15 1.06.2a16.25 16.25 0 0 1-9.97 2.84c-.6-.03-1.3-.1-2.12-.21a9.5 9.5 0 0 1-2.04-.49c-.88-.32-1.7-.54-2.57-1a23.83 23.83 0 0 1-2.23-1.32 17.9 17.9 0 0 1-4.34-4.6l.25.12c.06.02.1.06.14.1.08.12.2.15.36.09.16-.06.22-.17.2-.32-.02-.1 0-.18.05-.26.18-.25.28-.51.3-.8Z" fill="#CAB400"/><path d="M23.2 36.45c-.1 0-.24-.07-.4-.24-.02-.19.05-.3.23-.35.1-.02.16.01.2.1.08.12.07.28-.03.5Z" fill="#DDE7C4"/><path d="M32.6 36.13c-.14.06-.18.17-.3.23-.1.06-.16.03-.18-.08-.02-.15.02-.26.12-.34a.18.18 0 0 1 .12-.04c.05 0 .09.02.12.05.11.1.15.16.11.18Z" fill="#C77152"/><path d="M21.9 35.95A5.01 5.01 0 0 0 25.08 38a.4.4 0 0 1 .18.1.3.3 0 0 1 .08.12c.04.14.12.26.22.37.1.1.23.19.37.25.44.17.86.38 1.02.85.16.47.37 1.15.85 1.4 1.16.6 1.33-.93 1.54-1.57a.34.34 0 0 1 .43-.22c1.2.4 2.06-.83 2.09-1.86 0-.1.04-.17.12-.22.27-.18.53-.44.79-.79.1 1.03-.11 1.84-.66 2.43-1.06-.29-1.54 1.35-.37 1.76l.03 1.09c-1.49.49-2.87.69-4.13.59-1.61-.13-3.2-.5-4.76-1.09-.2-1.56-.58-3.21-1.16-4.96-.06-.17 0-.27.2-.3Z" fill="#619D00"/><path d="m24.06 36.68-.09.17a.16.16 0 0 1-.07.07.16.16 0 0 1-.1.01c-.11-.02-.2-.1-.26-.21.08-.12.17-.2.27-.27.08-.05.15-.03.2.05.02.05.04.1.05.18ZM31.27 36.85a.17.17 0 0 1 0-.13c.14-.26.28-.35.42-.28.18.1.2.2.04.33-.26.22-.41.24-.46.08ZM30.37 36.87a.15.15 0 0 1 .03-.04.14.14 0 0 1 .05-.03c.14-.04.23 0 .28.12a.2.2 0 0 1 0 .16.2.2 0 0 1-.12.11l-.27.1c-.18.06-.23.01-.13-.15l.16-.27ZM25.11 37.31l-.53-.08c-.02-.15.1-.28.33-.37.2-.1.3-.02.3.2 0 .05-.04.14-.1.25ZM29.72 37l.06.22c.04.12 0 .19-.12.21l-.38.08c-.14.03-.18-.02-.14-.15.05-.17.13-.32.25-.44a.19.19 0 0 1 .18-.06.2.2 0 0 1 .15.13ZM26.44 37.51c-.28.11-.58.06-.91-.16.48-.45.78-.4.91.16ZM28.57 37.1l.13.32c.05.11.02.17-.1.17l-.59.03c-.06.01-.09-.02-.09-.08l.03-.12c.2-.19.4-.3.62-.32ZM27.55 37.39l.03.06c.02.05 0 .09-.05.11a.54.54 0 0 1-.62-.02c.1-.15.17-.3.35-.34.17-.04.27.03.3.19Z" fill="#DDE7C4"/><path d="m28.9 39.15-.23.86c-.24.89-.57.92-.97.1l-.35-.77c-.23-.56-.76-.76-1.24-1.05-.13-.08-.12-.12.04-.12 1.73 0 3.3.03 5.02-.55.1-.04.14 0 .1.11-.17.5-.43.85-.79 1.04a.5.5 0 0 1-.37.04 1.43 1.43 0 0 0-1.02.1.37.37 0 0 0-.18.24Z" fill="#7FC900"/><path d="M24.84 40.4a.51.51 0 0 1-.36-.34c-.13-.43-.1-.8.1-1.15.18-.29.4-.34.7-.16.71.46.82.94.3 1.46-.2.2-.45.27-.74.2Z" fill="#010100"/><path d="M24.93 39.6c.04.22.18.36.3.34.13-.03.2-.22.15-.43-.05-.2-.18-.35-.3-.33-.13.03-.2.22-.15.43Z" fill="#619D00"/><path d="M31.67 39.75c.06.23.23.38.4.34.16-.04.25-.26.2-.48-.06-.22-.24-.37-.4-.33-.17.04-.25.25-.2.47Z" fill="#7FC900"/></svg>