<svg width="112" height="112" viewBox="0 0 56 56" xmlns="http://www.w3.org/2000/svg"><path d="m34.7 20.29-.35-6.38 1.56-.09.4 7.55 4.17 3.77-1.04 1.15-3.56-3.21-7.4 19.81-1.46-.54 7.33-19.65-18.09 2.83-.24-1.54 17.32-2.7-11.84-7.27.82-1.33 12.37 7.6Z" fill="url(#a)"/><path fill-rule="evenodd" d="m20.68 12 14.75.5L41 25.94 27.22 46 15 24.67 20.68 12Zm.3 3.16 1.58 6.27-5.23 1.85 3.64-8.12Zm-3.96 9.89 8.77 15.32-2.91-17.4-5.86 2.08Zm7.44-2.1 14.37 3.4-11.1 16.15-3.27-19.54Zm14.35 1.8-13.53-3.2 9.29-7.05 4.24 10.24ZM32.7 13.96l-10.5-.36 1.77 6.99 8.73-6.63Z" fill="url(#b)"/><defs><linearGradient id="a" x1="32.07" y1="13.98" x2="28.24" y2="43.65" gradientUnits="userSpaceOnUse"><stop stop-color="#403481"/><stop offset=".31" stop-color="#594AA4"/><stop offset="1" stop-color="#413582"/></linearGradient><linearGradient id="b" x1="17.21" y1="13.42" x2="34.2" y2="37.19" gradientUnits="userSpaceOnUse"><stop stop-color="#BCC7FD"/><stop offset=".3" stop-color="#D3DCFF"/><stop offset=".58" stop-color="#A8A7FC"/><stop offset=".83" stop-color="#917CE3"/></linearGradient></defs></svg>