<svg width="112" height="112" viewBox="0 0 56 56" xmlns="http://www.w3.org/2000/svg"><rect fill="url(#ahabsqpds)" width="56" height="56" rx="28"/><path d="m29.79 14.42 3.64 3.73 3.93 4.03a.2.2 0 0 0 .2.05l4.92-1.84c.46-.17.93-.34 1.4-.49a.74.74 0 0 1 .7.11c.43.3.47.64.38 1.16l-1.65 9.57a874.46 874.46 0 0 0-1.1 6.33c-.07.42-.17.74-.3.97a5.13 5.13 0 0 1-2.17 1.8 18.64 18.64 0 0 1-5.87 1.71c-3.9.6-7.81.6-11.7 0-2.02-.3-3.98-.8-5.8-1.67A5 5 0 0 1 14 37.83c-.07-.2-.14-.44-.19-.74a4015.57 4015.57 0 0 0-2.78-16.08c-.08-.34.02-.64.32-.91a.88.88 0 0 1 .99-.18l1.56.6 4.6 1.72a.14.14 0 0 0 .15-.03l8.62-8.83c.5-.51 1-.5 1.51 0l1 1.04Z" fill="#fff"/><path d="M21 29.51h6.88a.1.1 0 0 0 .08-.03c.02-.02.04-.05.04-.09v-7.36c.07-.05.14-.04.29.02.13.05.26.15.39.28l5.97 6.39c.49.52.47 1.07-.06 1.63l-5.92 6.32c-.26.29-.55.39-.86.3-.18-.05-.4-.21-.65-.49l-5.93-6.34a.75.75 0 0 1-.22-.63Z" fill="#6027FF"/><path d="M28 22.03v7.36c0 .04-.02.07-.04.09a.1.1 0 0 1-.08.03H21c0-.29.1-.53.3-.74l6.06-6.48a.86.86 0 0 1 .63-.26Z" fill="#5D87FF"/><defs><linearGradient id="ahabsqpds" x1="7.31" y1="6.67" x2="43.42" y2="49.72" gradientUnits="userSpaceOnUse"><stop stop-color="#5D90FE"/><stop offset="1" stop-color="#6118FE"/></linearGradient></defs></svg>