<svg width="224" height="224" viewBox="0 0 56 56" xmlns="http://www.w3.org/2000/svg"><path d="M25.25 24.23c-.36-1.1.04-2.55.28-3.14l-1.82.65c-.66 1.84-2 5.58-2.03 5.76-.03.18 2.56 5.73 3.85 8.48.85-.47 2.94-1.16 4.51-.17 1.57 1 1.06 3.06.61 3.96l1.56-.85c.13-.08 1.61-1.38 2.33-2.03l-4.18-11.97c-2.6 1.46-4.67.7-5.11-.69Z" fill="url(#aq3v3bf11)"/><path d="M23.36 17.1c2.7-2.06 4.55-6.67 4.55-8.1.49.72 1.47 2.96 1.47 6.2a7 7 0 0 1-3.44 5.93c-.86.7-2.58 2.39-2.58 3.6 0 1.51.95 2.68 2.8 2.68 1.83 0 5.6-4.27 6.02-4.73l.01-.01c.36-.4 2.12-2.5 3.8-2.5 1.35 0 2.54 1.1 2.97 1.65C39.97 23.12 42 26.6 42 30c0 6.72-3.72 10.43-7.18 12.38-2.76 1.55-6.95 1.7-8.7 1.58l4.1-4.26c.87-.69 2.59-2.36 2.59-3.53 0-1.47-.76-2.64-2.93-2.64-2.16 0-4.33 3.12-5.88 4.84-1.56 1.73-2.97 2.28-3.54 2.28-.56 0-2.46.3-4.67-4-1.76-3.44-1.9-5.48-1.74-6.06 0-8.78 5.93-10.93 9.31-13.5Z" fill="url(#bq3v3bf11)"/><path d="M18.6 23.5c1.5-3.55 6.65-6.7 9.04-7.83 0 1.77-5.14 6.78-5.14 9.8 0 3 .74 3.72 3.78 3.72s5.1-3.24 6.11-4.37c1.02-1.13 2.61-2.37 3.98-2.37 1.36 0 3.97 1.28 3.97 8.17 0 6.9-5.34 10.74-6.97 11.3-1.64.57-3.04-.03-1.6-.75 1.44-.71 3.23-2.82 3.23-5.87 0-3.06-1.13-4.68-3.62-4.68-2.5 0-4.71 2.38-6.23 3.88-1.52 1.51-3.2 3.85-4.75 3.85-1.56 0-2.8-2.15-3.35-4.49-.55-2.33-.31-5.9 1.56-10.35Z" fill="url(#cq3v3bf11)"/><defs><linearGradient id="aq3v3bf11" x1="23.75" y1="24.16" x2="29.74" y2="36.56" gradientUnits="userSpaceOnUse"><stop stop-color="#8976FF"/><stop offset="1" stop-color="#662D91"/></linearGradient><linearGradient id="bq3v3bf11" x1="15.29" y1="23.24" x2="41.16" y2="37.17" gradientUnits="userSpaceOnUse"><stop stop-color="#0FF"/><stop offset=".55" stop-color="#25DBFF"/><stop offset="1" stop-color="#78F"/></linearGradient><linearGradient id="cq3v3bf11" x1="23.01" y1="17.89" x2="36.56" y2="33.07" gradientUnits="userSpaceOnUse"><stop stop-color="#62FFFF"/><stop offset=".55" stop-color="#85E7FF"/><stop offset="1" stop-color="#D0F0FF"/></linearGradient></defs></svg>