<svg width="56" height="56" viewBox="0 0 56 56" xmlns="http://www.w3.org/2000/svg"><circle cx="28" cy="28" r="17" fill="url(#a)"/><circle cx="28" cy="28" r="13.61" fill="#F8B62B"/><path d="M33.54 20.65V24H29v-2.48c.09-1.14-2.03-1.09-2.2 0v.84c0 1.26.8 2.35 3.99 4.16A6.25 6.25 0 0 1 34 31.58v2.79c.19 1.52-.72 4.57-5.73 4.63-5.02.06-6.27-3.06-6.27-4.63V31h5v2.9c-.04.58.31 1.52.85 1.52.63 0 1.05-.11 1.12-2.1a3.08 3.08 0 0 0-1.37-2.79l-2.8-1.99a5.43 5.43 0 0 1-2.8-4.41v-3.48c.13-1.2 1.48-3.62 5.85-3.65 4.37-.03 5.61 2.42 5.69 3.65Z" fill="#fff"/><defs><linearGradient id="a" x1="45" y1="26.9" x2="11" y2="27.46" gradientUnits="userSpaceOnUse"><stop stop-color="#F39802"/><stop offset="1" stop-color="#F2D494"/></linearGradient></defs></svg>