<svg width="224" height="224" xmlns="http://www.w3.org/2000/svg" viewBox="0 0 56 56"><path d="M43.488 28c.333-1.126.512-2.318.512-3.553C44 17.573 38.454 12 31.612 12c-1.257 0-2.47.188-3.613.538A12.333 12.333 0 0024.388 12C17.546 12 12 17.573 12 24.447c0 1.234.179 2.427.512 3.552A12.506 12.506 0 0012 31.553C12 38.427 17.546 44 24.388 44c1.256 0 2.47-.188 3.612-.538 1.143.35 2.356.538 3.612.538C38.454 44 44 38.427 44 31.553c0-1.235-.179-2.427-.512-3.553zm-28.573 3.676l9.34 9.422c-1.23.164-4.338-.174-6.93-2.838-2.59-2.664-2.686-5.5-2.41-6.584zm16.952 9.422l9.34-9.422c.276 1.085.18 3.92-2.41 6.584-2.592 2.664-5.7 3.002-6.93 2.838zm9.34-16.81l-9.34-9.422c1.23-.164 4.338.174 6.93 2.838 2.59 2.664 2.686 5.5 2.41 6.584zm-16.952-9.422l-9.34 9.422c-.276-1.085-.18-3.92 2.41-6.584 2.591-2.664 5.7-3.002 6.93-2.838zm3.856.678c.575.178 2.45 1.342 5.35 4.576l3.05 2.977c1.032.977 3.255 3.278 3.891 4.664-.103.593-1.025 2.408-3.89 4.931l-3.803 3.91c-1.002 1.022-3.324 3.19-4.598 3.687-.634-.178-2.476-1.164-4.775-3.687l-3.846-3.91c-1.135-1.021-3.52-3.438-3.98-4.93.693-1.037 2.459-3.421 3.98-4.665l3.846-3.776c1.017-1.111 3.396-3.421 4.775-3.777z" fill="url(#paint1_linear)"/><path d="M27 18v4.228c.008.257.212.772.965.772s1.004-.515 1.035-.772V18h-2zm0 20v-4.228c.008-.257.212-.772.965-.772s1.004.515 1.035.772V38h-2zm6.772-9.01L38 29l.005-2-4.228-.01c-.258.031-.773.28-.775 1.034-.002.753.513.958.77.966zM18 29l4.228-.01c.257-.008.771-.213.77-.966-.002-.753-.517-1.003-.775-1.034l-4.228.01.005 2zm6.058-7.943c.023-1.377 1.422-1.837 2.119-1.896v1.517c-.302.07-.436.495-.465.7-.017.686-.037 1.807-.038 2.71.563.241 1.348.847 1.33 1.912h-.828v1.267c-1.323.024-1.963-1.059-2.118-1.603l-.001-.147c-.919 0-2.139.024-2.866.042-.202.028-.622.154-.69.438L19.005 26c.056-.654.507-1.967 1.865-1.992.886-.017 2.145-.019 3.177-.017-.004-.986-.003-2.117.011-2.934zM26 37c-.654-.057-1.966-.512-1.988-1.87a173.63 173.63 0 01-.01-3.144c-1.023.006-2.26.01-3.132-.002-1.358-.019-1.816-1.33-1.875-1.984l1.497-.003c.07.283.49.407.691.434.728.015 1.949.033 2.867.029.197-.562.797-1.481 1.95-1.46v1h.995c.024 1.16-.907 1.747-1.467 1.939-.002.92.02 2.144.036 2.874.027.201.153.622.436.69V37zm9.13-5.02c1.358-.02 1.816-1.332 1.875-1.986l-1.497-.003c-.07.283-.49.408-.691.434-.729.016-1.95.034-2.87.03C31.75 29.893 31.15 28.979 30 29v1h-.995c-.024 1.162.907 1.744 1.467 1.935.002.92-.02 2.147-.036 2.878-.027.201-.153.622-.436.69V37c.654-.057 1.966-.512 1.988-1.87.014-.877.014-2.121.01-3.148 1.023.006 2.26.01 3.132-.002zm-3.188-10.976c-.023-1.376-1.422-1.837-2.118-1.895v1.516c.302.07.435.496.464.7.017.7.039 1.851.039 2.762-.563.242-1.349.847-1.331 1.913h.828v1.215c1.323.023 1.964-1.06 2.118-1.604l.001-.094c.919 0 2.139.024 2.866.042.202.028.622.154.69.438l1.496.003c-.056-.654-.507-1.967-1.865-1.992a175.23 175.23 0 00-3.177-.017c.004-.998.003-2.155-.01-2.987z" fill="url(#paint2_linear)"/><rect x="27" y="24" width="2" height="8" rx="1" fill="#FDB52E"/><rect x="24" y="29" width="2" height="8" rx="1" transform="rotate(-90 24 29)" fill="#FDB52E"/><path fill="#15181C" d="M26 26h1v1h-1zM29 26h1v1h-1z"/><defs><linearGradient id="paint0_linear" x1="10.418" y1="9.712" x2="68.147" y2="76.017" gradientUnits="userSpaceOnUse"><stop stop-color="#1A1E21"/><stop offset="1" stop-color="#06060A"/></linearGradient><linearGradient id="paint1_linear" x1="28" y1="12" x2="28" y2="44" gradientUnits="userSpaceOnUse"><stop stop-color="#FDB72D"/><stop offset="1" stop-color="#FF9F3B"/></linearGradient><linearGradient id="paint2_linear" x1="28.02" y1="17.866" x2="28.02" y2="38.032" gradientUnits="userSpaceOnUse"><stop stop-color="#FDB22F"/><stop offset="1" stop-color="#FEA438"/></linearGradient></defs></svg>