<svg width="112" height="112" viewBox="0 0 56 56" xmlns="http://www.w3.org/2000/svg"><path d="m28.89 11.02-.13 2.86.07.97c0 .06.03.09.08.1.5.18 1.03.26 1.57.25.06 0 .1-.02.13-.07a.2.2 0 0 0 .02-.17l.93.46c.1.06.2.13.27.23l.22.3c.48.65 1.16.84 1.75.17l.14-.2c.46.1.84.3 1.14.64a.1.1 0 0 1 .01.12l-.23.5c-.03.05-.02.1.02.13.61.65 1.34.87 2.18.66.2-.04.48.04.85.25a.08.08 0 0 1 .03.1c-.55 1.05-.35 1.3.33 2.14.02.02.05.04.09.03.42-.09.82-.25 1.2-.5l.32-.14c.75.14 1.03.56.82 1.24l-.14.07-.64.39a.18.18 0 0 0-.07.2l.24.83a4.1 4.1 0 0 0-1.72-.76.36.36 0 0 1-.28-.27c-.18-.76-.3-1.5-.87-1.86-.79-.5-1.74-.8-2.84-.9a27.9 27.9 0 0 0-2.23-.02c-.81.01-1.45.08-1.92.19-.62.14-1.22.37-1.82.67-.22.11-.39.11-.5 0-.4-.4-.67-.66-.82-.77a4.07 4.07 0 0 0-2.2-.74 6.9 6.9 0 0 0-3.54.55c-.8.4-1.48 1.01-2.02 1.86-.37.59-.55 1.62-.72 2.27-.1.37-.27.64-.51.82a5.64 5.64 0 0 0-1.96 2.5c-.38.94-.78 2.15-1.2 3.63-.09.35-.09.58-.14.93-.02.17-.03.4-.02.7.05 1.06.07 1.65.09 1.76.07.61.45 1.06.67 1.47.07.14.1.33.06.56-.01.05-.04.09-.08.11-.54.3-.97.7-1.3 1.21a1.5 1.5 0 0 1-.29-1.11c.05-.38.36-.8.46-1.12.17-.51.11-1.03-.17-1.55-.12-.21-.35-.37-.68-.47l-.4.08a2.16 2.16 0 0 1-.3-1.55l.34-.1c.41-.36.58-.86.5-1.48-.04-.37-.2-.67-.47-.9h-.15c-.22-.49-.19-.98.1-1.47a.16.16 0 0 1 .15-.09h1c.07 0 .12-.03.13-.1.18-.65.26-1.1.24-1.32-.01-.17-.11-.4-.3-.7-.16-.25-.23-.46-.2-.6.05-.31.22-.52.5-.63a2.22 2.22 0 0 0 1.5-1.62c.1-.41-.12-.78.47-1.03.4-.18 1.38-.3 1.8-.92.06-.08.18-.34.35-.78.16-.4.37-.8.64-1.2.47-.1.97-.3 1.5-.6a.15.15 0 0 0 .08-.18l-.27-.77c.22-.32.51-.55.89-.69a.16.16 0 0 1 .14.03c.3.23.56.52.79.87.03.05.08.07.15.05l1.28-.42c.07-.02.1-.07.1-.15v-1.1a.11.11 0 0 1 .1-.11c.57-.1 1 .06 1.27.51.12.18.2.32.26.44.02.04.05.05.09.05l1.3-.17a.12.12 0 0 0 .12-.11l.11-1.62c.03-.2.03-.4-.01-.59l-.08-2.25a16.7 16.7 0 0 1 1.63 0Z" fill="#F8D448"/><path d="m27.26 11.02.08 2.25c0 .28-.05.54-.14.79a.1.1 0 0 1-.1.07h-1.66a.15.15 0 0 1-.15-.1l-.13-.3-.58-2.38c.88-.18 1.78-.3 2.68-.33ZM28.89 11.02c.9.05 1.8.17 2.68.36l-.75 3.01a4.6 4.6 0 0 1-2.06-.5l.13-2.87Z" fill="#6C8CC3"/><path d="m24.58 11.35.58 2.38c.1.43.31.77.65 1.04.04.03.1.05.15.04l1.14-.14c.04-.01.07-.03.08-.08l.17-.73-.11 1.62a.12.12 0 0 1-.11.1l-1.31.18c-.04 0-.07-.01-.09-.05a6.2 6.2 0 0 0-.26-.44c-.28-.45-.7-.62-1.27-.51a.11.11 0 0 0-.1.11v1.1c0 .08-.03.13-.1.15l-1.28.42c-.07.02-.12 0-.15-.05a3.39 3.39 0 0 0-.79-.87.16.16 0 0 0-.14-.03c-.38.14-.67.37-.9.7l-.2-.2-1.47-2.55c.46-.29.94-.55 1.43-.8l1.39 2.52a.3.3 0 0 0 .22.15c.64.09 1.22.03 1.72-.46a.14.14 0 0 0 .04-.14l-.84-3.07c.51-.15 1.03-.28 1.55-.4ZM33.13 11.8l-.74 2.37c-.19.5-.25 1-.2 1.5 0 .05.03.08.08.1l1.53.35c-.6.67-1.27.48-1.75-.17l-.22-.3a.71.71 0 0 0-.27-.23c-.33-.15-.64-.3-.93-.46l.2-.57.74-3c.53.1 1.05.24 1.56.4Z" fill="#BFB687"/><path d="m23.03 11.74.84 3.07c.01.05 0 .1-.04.14-.5.5-1.08.55-1.72.46a.3.3 0 0 1-.22-.15l-1.4-2.51c.83-.4 1.67-.74 2.54-1ZM33.13 11.8c.85.26 1.68.6 2.47 1l-1.26 2.37c-.78-.06-1.62-.22-1.95-1l.74-2.38Z" fill="#6C8CC3"/><path d="m37.02 13.59-.65 1.05-1 1.69a.23.23 0 0 0 .02.26l.08.06 1.53.72c.04.02.07.01.1-.01l.62-.54 1.5-1.59c.4.35.78.72 1.14 1.1L38.66 18l-.53.53c-.04.04-.05.09-.03.14.29.64.77 1.08 1.46 1.34-.38.24-.78.4-1.2.49-.04 0-.07 0-.1-.03-.67-.83-.87-1.09-.32-2.14a.08.08 0 0 0-.03-.1c-.37-.21-.65-.3-.85-.25-.84.2-1.57-.01-2.18-.66a.11.11 0 0 1-.02-.13l.23-.5a.1.1 0 0 0-.01-.12c-.3-.33-.68-.54-1.14-.63l.4-.76 1.26-2.37c.49.24.96.5 1.42.79Z" fill="#BFB687"/><path d="m27.35 13.86-.17.73a.09.09 0 0 1-.08.08l-1.14.14a.2.2 0 0 1-.15-.04 1.8 1.8 0 0 1-.65-1.04l.13.3c.03.07.08.1.15.1h1.66a.1.1 0 0 0 .1-.07c.1-.25.14-.51.14-.79.04.2.04.4.01.59Z" fill="#879BA1"/><path d="m19.07 13.54 1.47 2.54a1.5 1.5 0 0 1-.55.6c-.4.24-.85.38-1.36.41l-1.76-1.94a17.1 17.1 0 0 1 2.2-1.61ZM37.02 13.59a17 17 0 0 1 2.2 1.64l-1.5 1.6c-.34-.11-.7-.29-1.05-.54-.56-.4-.66-.94-.3-1.65l.65-1.05Z" fill="#6C8CC3"/><path d="m30.82 14.4-.2.56a.2.2 0 0 1-.01.17.13.13 0 0 1-.13.07 4.53 4.53 0 0 1-1.57-.24c-.05-.02-.08-.05-.08-.1l-.07-.98c.64.33 1.33.5 2.06.51ZM32.39 14.17c.33.78 1.18.94 1.95 1l-.4.76-.14.19-1.53-.35a.1.1 0 0 1-.08-.1c-.05-.5.01-1 .2-1.5ZM36.37 14.64c-.36.7-.26 1.26.3 1.65.36.25.7.43 1.05.53l-.62.54a.08.08 0 0 1-.1.01l-1.53-.72a.22.22 0 0 1-.13-.23l.03-.1 1-1.68Z" fill="#879BA1"/><path d="m16.87 15.15 1.76 1.94c.18.25.45.5.81.74-.27.4-.48.8-.64 1.2-.17.44-.3.7-.35.78-.42.62-1.4.74-1.8.92-.6.25-.37.62-.47 1.03-.17.77-.67 1.31-1.5 1.62a.76.76 0 0 0-.5.62c-.03.15.04.36.2.6.19.3.29.54.3.7.02.24-.06.68-.24 1.33-.01.07-.06.1-.13.1h-1a.16.16 0 0 0-.14.09c-.3.49-.33.98-.11 1.48l-.94.05-1.12-.01c0-.56 0-1.11.05-1.67l1.33.03h1.06c.05 0 .09-.03.1-.09l.32-2c.01-.06-.01-.1-.08-.12l-.57-.15-1.72-.4c.13-.53.29-1.06.47-1.57l1.28.39 1.2.24c.05.01.09 0 .12-.04.45-.48.8-1.03 1.03-1.66.02-.05 0-.09-.04-.11l-.87-.5-1.58-.87c.26-.48.55-.95.86-1.4l1.78 1.12c.23.2.48.32.76.37.05 0 .1 0 .15-.02.57-.28 1.21-.67 1.18-1.4 0-.05-.02-.1-.06-.13l-.67-.73-1.4-1.37c.37-.39.76-.76 1.17-1.1Z" fill="#BFB687"/><path d="m20.75 16.28.27.77v.1a.15.15 0 0 1-.07.08c-.54.3-1.04.5-1.5.6a3.24 3.24 0 0 1-.82-.74c.5-.03.96-.17 1.36-.41.22-.13.4-.33.55-.6l.2.2Z" fill="#879BA1"/><path d="M17.1 17.63c-.12.87-.57 1.5-1.36 1.9l-1.78-1.11c.52-.77 1.1-1.49 1.74-2.16l1.4 1.37ZM40.36 16.33a16.97 16.97 0 0 1 1.74 2.18l-1.85 1.08a3.18 3.18 0 0 1-1.58-1.6l1.7-1.66Z" fill="#6C8CC3"/><path d="M15.74 19.54a2.38 2.38 0 0 0 1.36-1.91l.67.73c.04.04.05.08.06.14.03.72-.61 1.11-1.18 1.39a.23.23 0 0 1-.15.02 1.58 1.58 0 0 1-.76-.37ZM38.67 18c.3.68.82 1.22 1.57 1.6l-.36.25-.32.15a2.46 2.46 0 0 1-1.46-1.34c-.02-.05-.01-.1.03-.14l.54-.53Z" fill="#879BA1"/><path d="M40.09 22.58c.42.15.86.28 1.33.38.25.05.52.24.8.55.04.04.06.08.07.13a8.39 8.39 0 0 1-.09 3.08c-.3.15-.47.36-.53.61-.02.08.01.2.08.35.02.05.03.1.02.15-.06.4-.52.69-.93 1.02-.32.27-.33.47-.39.85 0 .05.02.1.06.14.24.2.3.47.18.81-.23.64-.95.62-1.55.68a.2.2 0 0 0-.14.07c-.15.16-.26.4-.45.5-.4.2-.84.14-1.29.16-.05 0-.1.03-.13.08a9.36 9.36 0 0 1-2.42 2.47c-.2.14-.22.32-.03.52.15.18.26.29.31.32.58.33 1.07.65 1.47.96.04.03.1.05.15.05.35-.03.56-.4.84-.77a.16.16 0 0 1 .13-.07h.47c.06 0 .1-.02.14-.07.47-.71.64-1.51.51-2.4a.2.2 0 0 1 .35-.16l.24.3.08.06c.17.08.37.12.6.1.43-.04.8-.03 1.1 0a.19.19 0 0 1 .16.16.19.19 0 0 1-.09.2l-.37.21a.14.14 0 0 0-.07.11c-.02.27-.14.81-.43.9l-.34.13a.21.21 0 0 0-.11.1l-.63 1.32a.2.2 0 0 0 .03.2l.4.49a.22.22 0 0 1 0 .26c-.6.82-1 1.39-1.25 1.71-.14.2-.16.33-.05.42l-.67 1.77.02.55-.23.16a2.86 2.86 0 0 1 .48-1.95l-.01-.04-.05-.06a.07.07 0 0 0-.06-.02.07.07 0 0 0-.06.03l-2.38 3.1a.05.05 0 0 1-.05.02h-.16l-.02-.01a.04.04 0 0 1-.02-.04l.01-.02c.64-.76 1.25-1.55 1.82-2.36.16-.23.46-.56.88-1.01.06-.07.1-.14.13-.22.08-.25.12-.4.27-.59.45-.53.8-1 1.05-1.39a.23.23 0 0 0-.02-.28c-.17-.18-.3-.38-.4-.6-.15-.31-.73-.83-1.07-.82-.26.01-.31.2-.46.4-.17.23-.44.39-.8.46-.05 0-.09.03-.12.07-.2.29-.86 1.17-1.98 2.66-.4.53-.71.92-.96 1.18l-1.02 1.12a5.78 5.78 0 0 1-.87.8l-.04-.04a.07.07 0 0 1 0-.1c.84-.8 1.4-1.38 1.66-1.72 1.53-2.02 2.55-3.37 3.08-4.05.03-.04.02-.08-.02-.11a7.23 7.23 0 0 0-1.21-.8 2.88 2.88 0 0 1-.61-.52c-.04-.04-.08-.04-.12 0a60.7 60.7 0 0 0-1.53 1.28.82.82 0 0 0-.28.74c.02.2.03.32.01.36-.08.32-.53.4-.87.46-.33.07-.46.27-.53.55-.02.06 0 .1.06.13l.48.23a.25.25 0 0 1 .11.33.25.25 0 0 1-.08.1c-.21.14-.4.3-.55.45-.1.1-.22.29-.39.56a3.5 3.5 0 0 1-.54.71l-1.51 1.47c-.3.28-.6.5-.9.66-.91.48-1.73 1-2.45 1.53a17 17 0 0 1-.23-.04c.46-.34.92-.65 1.38-.93l1.35-.8c.4-.23.8-.56 1.02-.8l1.16-1.15c.38-.35.6-.9.87-1.21a2.9 2.9 0 0 1 .68-.6.1.1 0 0 0 0-.1 21.08 21.08 0 0 1-2.94-1.7.1.1 0 0 0-.08 0 .1.1 0 0 0-.07.04l-.62.89c-.21.3-.45.58-.72.8l-1.65 1.41c-.4.35-.8.6-1.17.76a11 11 0 0 1-2.7.82 7.1 7.1 0 0 1-1.96.09c-.58-.09-.95-.13-1.1-.13-.3-.2-.61-.43-.9-.65a5.25 5.25 0 0 0-1.93-3.27v-.03l.01-.02.02-.01h.08l.04-.01h.01a5.3 5.3 0 0 1 1.86 2.77c.13.47.42.78.85.93a8.4 8.4 0 0 0 2.13.19c.06 0 .07-.01.02-.05a2.04 2.04 0 0 1-.17-3.37c.3-.24.67-.39 1.13-.42.94-.08 1.63.25 2.09.98a2.06 2.06 0 0 1 .04 2.11l.01.03a.05.05 0 0 0 .05 0c.55-.23.9-.38 1.3-.73.3-.27.78-.65 1.42-1.15a5.29 5.29 0 0 0 1.18-1.27.08.08 0 0 0-.05-.08 8.7 8.7 0 0 1-11.65-2.15c-.16-.1-.23-.27-.36-.4-.04-.05-.09-.06-.14-.03-.96.5-1.28 1.16-1.57 2.18l-.16-.24.27-.83.08-.13c.32-.5.76-.9 1.3-1.2a.16.16 0 0 0 .08-.12.9.9 0 0 0-.06-.56c-.22-.41-.6-.86-.67-1.47-.02-.1-.05-.7-.1-1.77 0-.28 0-.52.03-.7.05-.34.05-.57.15-.92.41-1.48.81-2.7 1.2-3.63a5.64 5.64 0 0 1 1.95-2.5c.24-.18.41-.45.5-.82.18-.65.36-1.68.73-2.27a4.91 4.91 0 0 1 2.02-1.86 6.9 6.9 0 0 1 3.54-.55c.9.07 1.63.31 2.2.74.15.11.42.37.82.77.11.11.28.11.5 0 .6-.3 1.2-.53 1.82-.67.47-.11 1.1-.18 1.92-.19a27.9 27.9 0 0 1 2.23.01c1.1.1 2.05.4 2.84.9.58.37.69 1.11.87 1.87a.35.35 0 0 0 .28.27c.62.11 1.2.37 1.72.76Z" fill="#030403"/><path d="m29.06 20.87.66 1.15a.24.24 0 0 1-.11.34.24.24 0 0 1-.13.02l-1.55-.28c-.33-.07-.84-.12-1.53-.15-1.1-.06-1.84-.08-2.24-.08-.63 0-1.27.09-1.93.26-.38.1-.7.15-.96.13a101.7 101.7 0 0 0-2.12-.14.16.16 0 0 1-.08-.18c.15-.64.4-1.4.9-1.9.55-.59 1.1-.98 1.61-1.2a7.05 7.05 0 0 1 3.59-.44c1.05.12 1.77.54 2.48 1.3.12.12.34.2.65.24a.17.17 0 0 0 .13-.04 6.54 6.54 0 0 1 2.5-.83c.83-.07 1.83-.1 3.01-.07 1.04.02 2.03.28 2.98.78.32.17.54.42.64.74.11.32.21.7.3 1.14.02.07.06.14.1.2.06.05.13.1.2.12l1 .33c.23.08.22.13-.02.15-2.71.2-5.39.28-8.02.2a1.95 1.95 0 0 1-1.29-.45.3.3 0 0 1-.08-.13c-.15-.49-.38-.9-.67-1.23-.06-.06-.07-.06-.02.02Z" fill="#5B8949"/><path d="M42.1 18.51c.3.44.58.9.83 1.36l-1.79 1-.44.22c.2-.68-.07-1.1-.82-1.24l.37-.26 1.85-1.08Z" fill="#BFB687"/><path d="M14.68 20.69c.04 1.07-.44 1.76-1.44 2.07l-1.28-.4c.3-.87.69-1.72 1.13-2.54l1.59.87ZM42.93 19.87c.43.8.8 1.63 1.1 2.49l-1.5.44c-.86-.31-1.11-1.15-1.39-1.93l1.79-1Z" fill="#6C8CC3"/><path d="M13.24 22.76c1-.31 1.48-1 1.44-2.07l.87.5c.04.02.06.06.04.11a4.94 4.94 0 0 1-1.03 1.66.13.13 0 0 1-.13.04l-1.19-.24ZM41.14 20.87c.28.78.53 1.62 1.39 1.93-1.34.27-1.75-.52-1.97-1.64l.14-.07.44-.22Z" fill="#879BA1"/><path d="M40.56 21.16c.22 1.12.63 1.9 1.97 1.64l1.5-.44c.2.52.35 1.06.48 1.6l-1.52.37a.6.6 0 0 0-.24.06.1.1 0 0 0-.06.1v1.96c0 .03 0 .05.02.07a.1.1 0 0 0 .07.03l1.19.14h.98c.04.54.06 1.09.05 1.64l-1.32-.03c-.77.69-.8 1.52-.1 2.5l1.14.28c-.1.54-.23 1.08-.38 1.62a3.2 3.2 0 0 1-1.04-.27c.28-.47.34-.98.18-1.5a.15.15 0 0 0-.1-.1l-.79-.25a.15.15 0 0 1-.1-.1c-.31-.81-.23-1.53.24-2.16.24-.33.38-.55.4-.67.1-.45-.22-.76-.93-.93.22-1 .25-2.02.09-3.08 0-.05-.03-.1-.07-.13-.28-.31-.55-.5-.8-.55a9.7 9.7 0 0 1-1.33-.38l-.24-.83a.18.18 0 0 1 .07-.2l.64-.39Z" fill="#BFB687"/><path d="M29.59 29.48c-.05.16-.24.31-.57.44l-.65-.73-3.45-3.63a25.01 25.01 0 0 1-2.05-2.45.72.72 0 0 1-.12-.26.26.26 0 0 1 .15-.3c.18-.08.38-.02.6.2.97.96 1.71 1.8 2.64 2.73.64.65 1.54 1.57 2.7 2.78.4.42.65.83.75 1.22ZM40.13 28.48c-.09.1-.26.2-.51.27a547.9 547.9 0 0 1-3.65-3.78 7.11 7.11 0 0 1-1.33-2.01.09.09 0 0 1 .1-.08h.63c.06 0 .1.02.14.06.23.28.43.58.7.84.78.78 1.72 1.76 2.84 2.96.44.47.96 1.04 1.08 1.74Z" fill="#D9D9D9"/><path d="M29.02 29.92c.33-.13.52-.28.57-.44.35 0 .69-.16 1-.47.2-.2.42-.41.64-.66.14-.16.28-.19.43-.1.04.03.12.12.23.28.31.46.76.7 1.35.7l1.78.04a18.72 18.72 0 0 0 3.85-.2c.36-.05.61-.15.75-.32.25-.08.42-.17.5-.27a3.53 3.53 0 0 0 1.25-.89.1.1 0 0 1 .08 0l.03.03c.04.05.05.11.03.17a.46.46 0 0 1-.13.26l-.97.81a.21.21 0 0 0-.07.14c-.06.35.02.63-.38.76-.64.21-1.34.29-2.09.23l-1.33-.1-.9-.03c-.3-.02-.6 0-.89.05l-1.28.15c-.39.04-.81.13-1.27.26-1.3.36-2.65.52-4.02.46a167.1 167.1 0 0 0-2.07-.08 2.98 2.98 0 0 0-1.39.2c-.51.28-.71.81-.6 1.6.07.39.24.64.53.76.09.03.36.07.81.11 1.58.16 3.25-.16 4.74-.6.62-.2 1.42-.42 2.4-.7.41-.1.78-.17 1.1-.18.43 0 .96-.12 1.47-.1a101.05 101.05 0 0 1 1.71.14.13.13 0 0 1 .03.18 9.5 9.5 0 0 1-1.78 1.93l-1.18.9c-.01.01-.02.02 0 .04l.01.05c0 .01.02.02.03.01a.5.5 0 0 0 .2-.12c.02-.02.03-.02.05 0l.05.06v.06l-1.5 1.22c-.03.04-.07.03-.09-.02l-.11-.27c-.03-.06-.01-.1.05-.11.12-.04.29-.1.5-.2.16-.07.25-.14.27-.2a.33.33 0 0 0-.05-.3.35.35 0 0 0-.26-.15c-.48-.04-.96 0-1.45.1-.55.13-.86.1-1.29-.24-.2-.15-.38-.21-.61-.18a.17.17 0 0 0-.13.23c.12.31.14.65.04 1.02l.01.02.1.06c.03.02.04 0 .05-.02.07-.33.06-.62-.02-.85-.12-.35-.01-.45.32-.3.25.12.48.34.81.37.28.04.44.05.47.04a7.8 7.8 0 0 1 1.64-.18.29.29 0 0 1 .23.1.27.27 0 0 1 .05.23c-.02.07-.1.13-.25.18-.3.1-.5.17-.6.18-.17.03-.18.1-.02.2.05.03.11.1.17.2a.18.18 0 0 1 .03.13c-.06.23-.17.42-.32.55a.16.16 0 0 1-.13.04c-.09-.02-.15 0-.2.02-.07.05-.07.08.01.1l.2.06c.05.02.08.05.1.1.25.7-.42.67-.85.77-.32.08-.42.3-.52.56a.14.14 0 0 1-.15.09l-.05-.02-1.18-.68a.15.15 0 0 1-.07-.09c-.03-.08-.08-.12-.16-.12a.26.26 0 0 1-.12-.04l-.63-.36a.17.17 0 0 0-.24.06l-.31.55a.15.15 0 0 1-.14.08c-2 .11-3.62.1-4.87-.04-.76-.08-1.93-.3-3.5-.66-.4-.09-.78-.2-1.14-.35-.78-.32-1.63-.64-2.25-1.15a.68.68 0 0 1-.2-.24.15.15 0 0 1 .03-.16.15.15 0 0 1 .16-.04c.29.1.5.18.65.22.2.07.43.13.65.17.7.13 1.41.28 2.14.45.46.1 1 .17 1.62.27.2.03.4.05.64.06 2.2.05 3.47.08 3.82.07.25 0 1.41-.08 3.48-.23.23-.02.37-.09.43-.2.04-.08.03-.09-.03-.04a.62.62 0 0 1-.36.15c-2.57.17-4.18.24-4.85.2a53.38 53.38 0 0 0-2.16-.09c-.6 0-1.18-.06-1.75-.2l-2.85-.57a7.21 7.21 0 0 1-1.55-.53.16.16 0 0 1-.09-.1c-.12-.43-.33-.81-.6-1.16-.15-.17-.23-.5-.25-.98-.04-1.08-.1-1.78.03-2.66.03-.23.1-.52.21-.86.4-1.23.74-2.24 1.05-3.06.35-.9.89-1.65 1.61-2.22.2-.16.26-.11.2.13l-.12.47a.04.04 0 0 0 .01.03l.01.02h.07c.04 0 .06-.02.07-.06l.29-.93c.04-.15.15-.2.3-.16l1.58.48a.5.5 0 0 1 .35.35l.58 2.23c.12.49.3.95.55 1.38.23.42.54.78.94 1.1a6.4 6.4 0 0 0 3.4 1.38c1.02.1 1.96-.07 2.83-.52Z" fill="#5B8949"/><path d="M13.21 24.34c.02.88-.08 1.78-.83 2.36l-1.33-.03c.07-.92.22-1.83.44-2.73l1.72.4ZM44.51 23.96c.22.9.37 1.8.44 2.72h-.98c-.58-.22-.9-.65-1-1.29-.05-.35-.04-.7.02-1.06l1.52-.37Z" fill="#6C8CC3"/><path d="M29.79 27.68a14.12 14.12 0 0 1-2.65-3.2c-.06-.1-.08-.2-.06-.29a.25.25 0 0 1 .35-.16c.24.1.45.26.64.46 1.25 1.36 1.96 2.12 2.1 2.26.26.25.43.56.5.93a.23.23 0 0 1-.26.27 1.22 1.22 0 0 1-.62-.27Z" fill="#D9D9D9"/><path d="M12.38 26.7c.75-.58.85-1.48.83-2.36l.57.15c.07.01.1.06.08.13l-.32 2c-.01.05-.05.08-.1.08h-1.06ZM43 24.33c-.07.35-.08.7-.03 1.06.1.64.42 1.07 1 1.3l-1.2-.14a.1.1 0 0 1-.08-.1V24.5a.1.1 0 0 1 .06-.1.6.6 0 0 1 .24-.06Z" fill="#879BA1"/><path d="M31.94 26.96a10.95 10.95 0 0 1 .22-.78.1.1 0 0 1 .13 0c.07.05.11.11.14.19.2.61.5 1.19.86 1.72.13.18.08.25-.13.2-.36-.07-.7-.2-1.05-.37-.18-.09-.27-.21-.27-.37 0-.1.03-.29.1-.59Z" fill="#D9D9D9"/><path d="M43.3 32.43h-.06c-.24-.11-.47-.18-.71-.2-.1-.1-.22-.1-.36.02-.25.21-.4.4-.45.55a5.6 5.6 0 0 0-.26 1.37c0 .02.02.04.04.06l.86.58.35.18.64.33a17 17 0 0 1-.78 1.44.8.8 0 0 1-.47-.16l-.87-.52c-.05-.03-.09-.02-.13.01-.44.38-.75.84-.92 1.39-.22.67.19 1.31.46 1.88-.26.3-.53.58-.8.85l-1.1-.58c-.05-.03-.08-.02-.1.05l-.03.26c-.05.35-.17.37-.36.08-.05-.08-.03-.2.07-.36-.11-.09-.1-.22.05-.42l1.25-1.7a.22.22 0 0 0 0-.27l-.4-.48a.2.2 0 0 1-.03-.2l.63-1.32a.21.21 0 0 1 .11-.11c.11-.05.22-.09.34-.12.29-.1.4-.64.43-.9a.15.15 0 0 1 .07-.12l.37-.21a.19.19 0 0 0-.07-.35c-.3-.04-.67-.05-1.1-.01-.23.02-.43-.02-.6-.1a.25.25 0 0 1-.08-.06l-.24-.3a.2.2 0 0 0-.35.16c.13.89-.04 1.69-.51 2.4a.15.15 0 0 1-.13.07h-.48c-.05 0-.1.02-.13.07-.28.36-.49.74-.84.77a.23.23 0 0 1-.15-.05c-.4-.3-.9-.63-1.47-.96a1.86 1.86 0 0 1-.31-.32c-.19-.2-.17-.38.03-.52a9.36 9.36 0 0 0 2.42-2.47.16.16 0 0 1 .13-.08c.46-.02.89.04 1.29-.16.2-.1.3-.34.45-.5a.2.2 0 0 1 .14-.07c.6-.06 1.32-.04 1.55-.68.12-.34.06-.61-.18-.81a.15.15 0 0 1-.05-.14c.05-.38.06-.58.38-.85.41-.33.87-.63.93-1.02.01-.05 0-.1-.02-.15-.07-.16-.1-.27-.08-.35.06-.25.24-.46.53-.6.71.16 1.02.47.93.92-.02.12-.16.34-.4.67-.47.63-.55 1.35-.24 2.17.02.05.05.08.1.1l.79.23c.05.02.08.05.1.1.16.53.1 1.04-.18 1.51Z" fill="#F8D448"/><path d="M13.06 28.3h.15c.08.79.06 1.58-.03 2.38l-.33.1-.57.1c.11-.86.06-1.71-.16-2.53l.94-.05Z" fill="#879BA1"/><path d="M13.18 30.68c.1-.8.1-1.6.03-2.39.27.23.43.53.48.9a1.6 1.6 0 0 1-.51 1.49Z" fill="#BFB687"/><path d="M43.68 28.3c-.11.83-.15 1.66-.1 2.5-.7-.98-.67-1.81.1-2.5Z" fill="#879BA1"/><path d="M12.12 28.35c.22.82.27 1.67.16 2.53l-1 .24c-.16-.92-.26-1.85-.28-2.78h1.12ZM45 28.33c-.02.92-.11 1.84-.28 2.75l-1.14-.28c-.05-.84-.01-1.67.1-2.5l1.32.03Z" fill="#6C8CC3"/><path d="m38.75 31.25-.2.37a.16.16 0 0 1-.05.05 2.57 2.57 0 0 1-.96.13c-1.24-.21-2.46-.26-3.68-.15-.66.05-1.4.21-2.23.47l-2.2.65c-1.55.42-3.05.54-4.51.35-.66-.09-.69-.9-.6-1.4.1-.6.8-.88 1.28-.85 2 .1 3.5.13 4.52.06a10.5 10.5 0 0 0 1.86-.35c.79-.2 1.37-.33 1.74-.38.75-.1 1.67-.14 2.75-.13l1.31.12c.8.08 1.57 0 2.3-.21a.32.32 0 0 1 .41.32c-.03.95-1.13.64-1.63.87a.22.22 0 0 0-.1.08Z" fill="#D24432"/><path d="M38.48 31.23H37.2c-.43 0-.85-.04-1.25-.13-.74-.15-1.34-.25-1.8-.28a5.3 5.3 0 0 0-2.38.39l-.72.28c-.56.21-1.12.41-1.69.6a5.75 5.75 0 0 1-2.26.18l-.02-.04v-.02a.04.04 0 0 1 .04-.04c.94.05 1.74-.04 2.37-.28l2.14-.78a6.4 6.4 0 0 1 3.54-.3 10.6 10.6 0 0 0 3.21.27l.15.04c.08.02.1.05.04.08a.15.15 0 0 1-.09.03Z" fill="#030403"/><path d="M12.85 30.77c-.1.57 0 1.08.29 1.55l-.3.1-1.17.32a17.2 17.2 0 0 1-.38-1.62l1-.24.56-.1ZM42.53 32.23c-.41.8-.7 1.76-.17 2.58l-.86-.58a.13.13 0 0 1-.05-.13c.03-.44.13-.88.27-1.3.05-.16.2-.34.45-.55.14-.12.26-.13.36-.02ZM14.22 36.5l-.08.12c-.2.04-.41.14-.61.3-.3-.5-.58-1-.83-1.52l.6-.35c1.11-.62.75-1.95.23-2.81.34.1.57.26.69.47.28.52.34 1.04.17 1.55-.1.32-.4.74-.46 1.12-.06.39.04.76.3 1.11Z" fill="#BFB687"/><path d="M13.54 32.24c.51.86.87 2.2-.24 2.8a4.9 4.9 0 0 0-.46-2.62l.3-.1.4-.08ZM42.53 32.23c.24.02.47.09.7.2a9.6 9.6 0 0 0-.52 2.56l-.35-.18c-.52-.82-.24-1.79.17-2.58Z" fill="#879BA1"/><path d="M12.84 32.42c.4.86.55 1.74.46 2.63l-.6.35c-.42-.86-.76-1.75-1.03-2.66l1.17-.32ZM43.24 32.43h.06c.34.15.69.24 1.04.27-.26.9-.6 1.77-1 2.62l-.63-.33a9.6 9.6 0 0 1 .53-2.56Z" fill="#6C8CC3"/><path d="M39.33 34.34c-.11.22-.25.77.15.83a.08.08 0 0 1 .06.04v.06l-.53.92c-.04.08-.1.1-.18.03l-.4-.3c-.1-.07-.1-.15-.04-.24a3.59 3.59 0 0 0 .63-2.21.07.07 0 0 1 .07-.04l.04.02c.32.33.95.22 1.55.21a.05.05 0 0 1 .05.03.05.05 0 0 1-.01.05c-.15.16-.28.26-.39.33-.24.14-.6.13-.88.18-.06 0-.1.04-.12.09Z" fill="#5B8949"/><path d="M40.41 34.23h.01v.01h.01c.01.08-.02.16-.09.23a.54.54 0 0 1-.28.13l-.1.02a.54.54 0 0 1-.3-.03c-.1-.04-.15-.1-.17-.18a.02.02 0 0 1 0-.01h.02l.9-.17ZM40.11 34.75c.01.03-.12.12-.38.26a.42.42 0 0 1-.22.06c-.11 0-.18-.06-.2-.16-.01-.1.03-.18.13-.22a.4.4 0 0 1 .22-.03c.3.04.45.07.45.1Z" fill="#5B8949"/><path d="M37.44 42.14a17 17 0 0 1-12.1 2.65c.72-.54 1.54-1.05 2.44-1.53.3-.16.6-.38.9-.66.36-.33.86-.82 1.52-1.47.2-.2.38-.43.54-.7.17-.28.3-.47.4-.57.15-.16.33-.3.54-.45a.25.25 0 0 0-.03-.43l-.48-.23c-.05-.02-.08-.07-.06-.13.07-.28.2-.48.53-.55.34-.07.79-.14.87-.46.02-.04.01-.16-.01-.36a.82.82 0 0 1 .28-.74c.16-.15.67-.58 1.53-1.29.04-.03.08-.03.12.01.25.26.45.43.6.51.5.27.9.54 1.22.8.04.04.05.08.02.12-.53.68-1.55 2.03-3.08 4.05a17.35 17.35 0 0 1-1.68 1.74.07.07 0 0 0 .02.08l.04.03h.02c.3-.23.6-.49.86-.79l1.01-1.12c.25-.26.57-.65.96-1.18 1.12-1.49 1.78-2.37 1.98-2.66a.18.18 0 0 1 .12-.07c.36-.07.63-.23.8-.46.15-.2.2-.39.46-.4.34-.01.92.5 1.07.82.1.22.23.42.4.6a.23.23 0 0 1 .02.28c-.25.4-.6.86-1.05 1.4-.15.18-.19.33-.27.58a.55.55 0 0 1-.13.22c-.42.45-.72.78-.88 1a36.66 36.66 0 0 1-1.82 2.41.04.04 0 0 0 .04.03h.16l.04-.03 2.38-3.1a.08.08 0 0 1 .06-.02.07.07 0 0 1 .06.02l.05.06.01.04v.04c-.39.57-.54 1.2-.48 1.9ZM17.65 41.49a17.03 17.03 0 0 1-3.62-3.8c.29-1.02.61-1.67 1.57-2.18.05-.03.1-.02.14.02.13.14.2.3.36.42a8.7 8.7 0 0 0 2.53 1.2c1.44.42 2.87.72 4.29.88a22.82 22.82 0 0 0 4.83.06.08.08 0 0 1 .04.12c-.3.44-.68.84-1.17 1.23-.64.5-1.11.88-1.41 1.15a4.35 4.35 0 0 1-1.33.74.04.04 0 0 1-.04-.04v-.02c.35-.68.37-1.43-.04-2.09-.46-.73-1.15-1.06-2.09-.98-.46.03-.83.18-1.13.42a2.04 2.04 0 0 0 .17 3.37c.05.04.04.05-.02.05a8.4 8.4 0 0 1-2.12-.2 1.3 1.3 0 0 1-.86-.92 5.3 5.3 0 0 0-1.87-2.77h-.12l-.02.02v.05l.01.02a5.25 5.25 0 0 1 1.9 3.25Z" fill="#2039E8"/><path d="M42.1 36.6c-.76.35-1.22 1.26-1.52 2.02-.02.05-.01.1.02.14l.27.35-.23.25c-.27-.57-.68-1.2-.46-1.88.17-.55.48-1 .92-1.39.04-.03.08-.04.13 0l.87.51Z" fill="#879BA1"/><path d="m29.88 36.14.01.02v.01l-.25 1.02a4.03 4.03 0 0 1-.16.46l-.02-.01v-.15a4 4 0 0 1 .07-.33l.25-1.01a.02.02 0 0 1 .01-.02h.02l.07.01Z" fill="#030403"/><path d="M42.1 36.6c.14.1.3.15.47.16a16.9 16.9 0 0 1-1.7 2.35l-.27-.35a.14.14 0 0 1-.02-.14c.3-.76.76-1.67 1.52-2.02ZM14.14 36.62l-.27.83-.34-.53c.2-.16.4-.26.6-.3Z" fill="#6C8CC3"/><path d="M25.11 44.75c-2.34-.4-4.57-1.3-6.55-2.61.15 0 .52.04 1.1.13a7.1 7.1 0 0 0 1.96-.1 11 11 0 0 0 2.7-.8c.37-.17.76-.42 1.17-.77l1.65-1.4c.27-.23.5-.5.72-.81l.62-.9a.1.1 0 0 1 .07-.04.1.1 0 0 1 .07.02 21.08 21.08 0 0 0 2.95 1.7.09.09 0 0 1 0 .1 2.89 2.89 0 0 0-.68.6c-.27.3-.5.85-.87 1.2-.26.24-.64.63-1.16 1.15a4.9 4.9 0 0 1-1.02.8l-1.35.8c-.46.28-.92.59-1.38.93Z" fill="#2039E8"/><path d="M22.3 38.36c.75.14 1.26.55 1.54 1.24.2.5.17 1.01-.1 1.52-.1.21-.27.36-.51.46-.52.21-1.1.35-1.75.43a.84.84 0 0 1-.6-.12c-.97-.68-1.36-1.93-.5-2.85.56-.58 1.2-.81 1.93-.68Z" fill="#D24432"/><path d="m23.02 40-1.08 1.42a.13.13 0 0 1-.22-.03l-.84-1.97a.13.13 0 0 1 .14-.17l1.51.24.06.03.41.31a.13.13 0 0 1 .02.18Z" fill="#D9D9D9"/><path d="M21.4 39.57c-.03-.02-.04-.01-.05.02l-.01.06c0 .02 0 .04.02.05l.5.39a.1.1 0 0 1 .05.11l-.09.52c-.03.23-.1.24-.2.03l-.42-1a.22.22 0 0 1 .24-.3l.82.14c.14.02.15.07.05.16l-.27.22c-.04.03-.08.03-.12 0l-.52-.4Z" fill="#D24432"/><path d="m39.83 40.2-.09.1-.53-.16a.13.13 0 0 0-.13.03l-1.43 1.26.67-1.77c-.1.16-.13.28-.07.36.19.3.3.27.36-.08l.04-.26c0-.06.04-.08.1-.05l1.08.58Z" fill="#BFB687"/><path d="M22.6 39.97a.48.48 0 0 1-.22.03c-.06-.01-.07-.04-.03-.09a.6.6 0 0 1 .2-.17c.04-.02.1-.02.13 0 .06.03.09.08.09.14 0 .05-.03.07-.07.08h-.05l-.04.01ZM22.64 40.1l.07-.05c.02-.02.04-.01.05.01.01.04.01.08-.01.11a8.7 8.7 0 0 1-.68.77c-.03.03-.07.04-.1.02a.11.11 0 0 1-.05-.03.08.08 0 0 1 0-.1c.08-.15.12-.32.11-.5 0-.05.02-.1.06-.14a.2.2 0 0 1 .14-.06l.38-.01c.01 0 .02 0 .03-.02Z" fill="#D24432"/><path d="M39.74 40.3c-.64.6-1.33 1.17-2.07 1.68l-.02-.55 1.43-1.26a.13.13 0 0 1 .13-.03l.53.15Z" fill="#6C8CC3"/></svg>