<svg width="112" height="112" viewBox="0 0 56 56" xmlns="http://www.w3.org/2000/svg"><path d="M28 12c.18 1.66.13 3.23-.16 4.72-.14.08-.19.2-.15.34l-.68-.04a.22.22 0 0 1-.16-.09.56.56 0 0 1-.1-.22.18.18 0 0 0-.1-.12l-.46-.27c.2.08.41.12.6.1.06 0 .09-.03.1-.09l.31-4.3.8-.03Z" fill="#40BBFB"/><path d="M28.49 12c.4 1.69.44 3.17.08 4.46a.13.13 0 0 1-.1.1l-.63.16c.29-1.49.34-3.06.16-4.72h.49ZM27.2 12.03l-.32 4.3c0 .06-.03.09-.09.1a1.44 1.44 0 0 1-.68-.15l.6-4.22.5-.03Z" fill="#047DD1"/><path d="M37.05 14.8c-.1.3-.26.55-.49.74a4.64 4.64 0 0 1-.95.57c-.16.1-.32.1-.46 0-.11-.06-.2-.04-.26.07l-.02.04a5.37 5.37 0 0 1-1.25 1.6 9.18 9.18 0 0 0-1.31 1.45c-.56.05-1.13.05-1.7-.02-.13-.02-.43.06-.9.22a.4.4 0 0 1-.15.02c-.48-.04-.9-.05-1.27-.06-.24 0-.4.1-.45.32l.07-1.3c-.09-.25-.04-.46.14-.63.09-.2.1-.37.02-.54-.04-.09-.14-.16-.31-.2l-.07-.02c-.04-.14.01-.26.15-.34l.63-.17a.13.13 0 0 0 .1-.1 8.83 8.83 0 0 0-.08-4.44c3.14.11 6 1.05 8.56 2.8ZM26.71 12.06l-.6 4.22a.29.29 0 0 1-.23-.09c-.43-.4-.78-.7-1.05-.9a5.38 5.38 0 0 0-1.2-.65c-.32-.12-.9-.19-1.73-.19h-.23c.38-.13.7-.33.95-.58.1-.08.2-.14.31-.18l1.23-.35a.25.25 0 0 0 .16-.14.25.25 0 0 0 0-.22c-.15-.3-.38-.42-.7-.37 1-.3 2.04-.48 3.1-.55Z" fill="#035492"/><path d="M23.62 12.61c.32-.05.55.08.7.37.04.07.04.14 0 .22a.25.25 0 0 1-.16.14l-1.22.35a.74.74 0 0 0-.32.18c-.25.25-.57.45-.95.58-.56.1-1.05.31-1.47.63-.36.17-.66.41-.9.71-.1.13-.2.14-.33.05-.38-.27-.73-.15-1.04.36a.17.17 0 0 0-.02.16c.03.06.07.09.12.1l.66.16.05.02c.04.01.05.04.04.08 0 .03-.03.05-.07.05l-.71.02-.11.02c-.45.16-.9.17-1.34.03a15.67 15.67 0 0 1 7.07-4.23Z" fill="#07314B"/><path d="M21.67 14.45h.23c.83 0 1.41.07 1.73.2.44.17.84.38 1.2.64.27.2.62.5 1.05.9.06.07.14.1.23.09.03.02.05.04.08.04l.46.27c.05.02.09.07.1.12.02.09.05.16.1.22.04.05.1.08.16.09l.68.04.07.02c.17.04.27.11.31.2.07.17.07.34-.02.54l-.92-.01c-.05 0-.1.02-.13.07a.16.16 0 0 0-.02.15l.06.18c.05.13.15.19.29.17.15-.01.35.01.58.07l-.07 1.3c.03 1.58.03 2.68 0 3.3-.05.69-.2 1.55-.44 2.6l-.52 1.7c-.02.05-.01.09.02.12.03.04.06.06.1.05l.4-.01.58.02-.31.02c-.49.05-.84.04-1.07 0a.68.68 0 0 0-.52.11.14.14 0 0 1-.14 0 .13.13 0 0 1-.08-.1c0-.14-.07-.2-.2-.23l-.4-.01c-.1 0-.13-.05-.12-.13v-.07c.01-.06.05-.1.12-.09l.9.08a.1.1 0 0 0 .1-.05.1.1 0 0 0 0-.1.28.28 0 0 0-.25-.16 6.72 6.72 0 0 0-1.46.03c-1.26.24-2.45.36-3.58.38a.19.19 0 0 1-.15-.06 5.89 5.89 0 0 1-1.12-1.79 20.97 20.97 0 0 1-.87-2.62c-.1-.3-.28-.6-.55-.9a8.29 8.29 0 0 1 .18-3.9c.09-.29.22-.57.4-.86l.54-1.07.03-.04.77-.89a3.4 3.4 0 0 1 1.47-.63Z" fill="#DBBCC2"/><path d="M25.42 16.49c-.15.07-.23.16-.22.27 0 .04.02.07.05.1l.2.1-.45.01a4.83 4.83 0 0 0-2.87-1.56c-.06-.01-.1-.05-.1-.11 0-.26.16-.4.5-.46.96-.14 2.02.38 3.18 1.56.02.01.02.02.01.04l-.03.01c-.12 0-.21 0-.27.04Z" fill="#A18596"/><path d="M37.27 14.97c.04.26-.13.5-.5.72a.24.24 0 0 0-.1.11.96.96 0 0 1-.52.53c-.05.02-.06.05-.01.08.04.04.04.1 0 .19a.1.1 0 0 1-.08.06c-.27.02-.57.13-.9.33a.3.3 0 0 0-.13.15l-.35.86-.02.04c-.2.2-.33.4-.4.6a1.2 1.2 0 0 1-.27.42c-.1.1-.17.18-.21.25a.16.16 0 0 1-.14.07c-.24 0-.34.06-.33.18l-1-.3c.25-.37.69-.85 1.3-1.43l.4-.37a5.37 5.37 0 0 0 .88-1.28c.06-.11.15-.13.26-.06.14.08.3.08.46 0a4.65 4.65 0 0 0 .95-.58c.23-.2.4-.44.5-.73l.21.16Z" fill="#4D6981"/><path d="M39.19 16.61a2.39 2.39 0 0 0-.81-.04c-.06 0-.1.04-.12.1-.04.15-.12.26-.24.3a.06.06 0 0 0-.04.06c0 .02 0 .04.03.06.04.03.1.03.19 0 .06 0 .1.02.13.07.05.1.11.19.19.26.08.08.1.18.05.29a.23.23 0 0 1-.24.15c-.18-.01-.33 0-.46.06a.17.17 0 0 0-.1.1l-.31.84c-.24.33-.5.52-.75.56a.43.43 0 0 0-.34.28c-.02.05-.01.1.04.13.23.15.37.32.45.53a.86.86 0 0 1-.44-.14.1.1 0 0 0-.12 0 .1.1 0 0 0-.04.12c.06.2.03.39-.12.56a.32.32 0 0 1-.12.1c-.26.1-.46.3-.6.6l-.13.24c-.27 0-.4.1-.38.32a1 1 0 0 0-.53.7.17.17 0 0 1-.08.1c-.19.12-.36.27-.51.45-.24.3-.54.5-.9.64a.27.27 0 0 0-.13.08l-.3.4.32-.66c.03-.06.01-.1-.06-.1h-.96c-.03 0-.05.02-.06.06-.01.03 0 .06.02.08l.38.27c.07.05.08.1.03.16l-.04.06c-.05.07-.11.08-.19.03l-.28-.2c-.05-.04-.09-.03-.1.02l-.74 1.6c-.01.02 0 .04.01.05.02.02.04.02.06.01.27-.12.62-.38 1.05-.8l.35-.32-.43.48a.17.17 0 0 0-.05.1l-.13 1.06c0 .1-.06.15-.16.15-.39 0-.7.23-.96.68-.04.07-.02.12.04.17a.4.4 0 0 0 .23.05l-.38.03-.13-.05c-.04-.02-.06-.05-.05-.1 0-.04.02-.06.07-.07.17-.04.27-.13.3-.28 0-.07-.02-.1-.1-.09a.95.95 0 0 0-.42.22.27.27 0 0 1-.17.06c-.17 0-.3-.11-.36-.32-.02-.04-.04-.05-.07-.02a.7.7 0 0 0-.24.46c0 .1-.06.15-.15.15l-1.67.03.83-.2c.05 0 .1-.03.13-.07.14-.18.38-.4.72-.64.5-.37.82-.72.95-1.06.17-.44.5-.95.98-1.5.04-.05.04-.1.02-.15l-.1-.25c0-.04 0-.07.03-.1l.35-.36a.11.11 0 0 1 .1-.03l.16.02c.05 0 .07-.02.07-.07v-.45c0-.05.02-.08.06-.1a.12.12 0 0 1 .12-.02l.55.26c.04.02.08.01.11 0a.11.11 0 0 0 .05-.1c.02-.75.36-1.35 1.02-1.82.05-.03.06-.07.01-.1l-.03-.04c-.02-.03-.05-.03-.08-.02l-.37.14c-.04.01-.07 0-.09-.03-.02-.03-.02-.06 0-.09l.45-.5a.08.08 0 0 1 .06-.03c.07 0 .12-.07.13-.18 0-.04 0-.07-.03-.1l-.32-.34.01-.01c-.01-.12.1-.18.33-.18.06 0 .1-.02.14-.07.04-.07.11-.15.2-.25.15-.15.24-.3.29-.42.06-.2.2-.4.39-.6a.13.13 0 0 0 .02-.04l.35-.86a.3.3 0 0 1 .13-.15c.33-.2.63-.3.9-.33a.1.1 0 0 0 .08-.06c.04-.09.04-.15 0-.19-.05-.03-.04-.06 0-.08.24-.1.41-.27.53-.53a.25.25 0 0 1 .1-.11c.37-.22.54-.46.5-.72l.99.78a.3.3 0 0 1 .08.1l.03.06c.02.03.04.06.07.07.29.14.54.35.75.63Z" fill="#9F8167"/><path d="m20.2 15.08-.77.89a.18.18 0 0 0-.03.04l-.53 1.07a.66.66 0 0 1 .05-.4c.03-.05 0-.08-.05-.08-.06-.01-.11 0-.18.02l-.66-.16a.16.16 0 0 1-.12-.1.17.17 0 0 1 .02-.16c.31-.5.66-.63 1.04-.36.13.1.24.08.34-.05.23-.3.53-.54.89-.71Z" fill="#A18596"/><path d="M25.42 16.49c.14.03.27.08.39.16.05.03.08.08.1.13.04.16.03.3-.06.39a1.42 1.42 0 0 1-.4-.2l-.2-.12a.1.1 0 0 1-.05-.09c0-.11.07-.2.22-.27Z" fill="#D9D9D9"/><path d="M39.19 16.61c.23.16.42.34.57.55-.1.1-.16.26-.2.46 0 .07-.04.1-.1.12l-.13-.01a.09.09 0 0 0-.1 0 .09.09 0 0 0-.03.08l.02.31c0 .04-.02.07-.06.07-.63.05-1.2.28-1.7.67l.31-.84a.17.17 0 0 1 .1-.1c.13-.05.28-.07.46-.06.11 0 .2-.05.24-.15.05-.11.03-.2-.05-.29a.88.88 0 0 1-.19-.26c-.03-.05-.07-.07-.13-.06-.1.02-.15.02-.2-.01a.06.06 0 0 1-.02-.06c0-.03.02-.04.04-.05.12-.05.2-.16.24-.3.02-.07.06-.1.12-.11.25-.03.52-.02.8.04Z" fill="#756054"/><path d="M18.87 17.08c-.19.29-.32.57-.4.86a8.29 8.29 0 0 0-.19 3.9c.3 2.24 1.09 4.29 2.34 6.15.15.22.35.34.6.36.33.03.81-.08 1.44-.33a.86.86 0 0 1 .2-.04l2.77-.36c.03 0 .05.01.06.05v.05c.01.05-.01.08-.07.08-1.48.14-2.95.4-4.4.78.12-.05.1-.02-.05.09a4.5 4.5 0 0 0-1.42-.18 6.82 6.82 0 0 1-3.25-.07.53.53 0 0 1-.37-.35 4.54 4.54 0 0 1-.25-1.23l-.07-1.05a83.66 83.66 0 0 1-.45-5.14c-.04-.57-.13-1.26-.27-2.1l1.46-1.71c.44.14.89.13 1.34-.03a.35.35 0 0 1 .11-.02l.71-.02c.04 0 .07-.02.07-.05.01-.04 0-.07-.04-.08l-.05-.02a.43.43 0 0 1 .18-.03c.06.01.08.04.05.1a.66.66 0 0 0-.05.39Z" fill="#5F5575"/><path d="M19.86 16.6a.2.2 0 0 1 .1.14c.02.13.13.22.34.3.04 0 .07.04.08.1.01.04 0 .08-.05.11a.7.7 0 0 1-.25.12c-.07.02-.1.06-.07.13l.06.15c.04.11 0 .2-.1.23l-.37.14c-.07.03-.12 0-.15-.06-.26-.61-.17-1.07.26-1.37.05-.03.1-.03.15 0Z" fill="#9F8167"/><path d="M25.44 16.97c.12.08.26.15.41.2.02.03.04.03.09 0a.14.14 0 0 0 .07-.08c.02-.05.05-.09.09-.1.06-.03.1-.01.14.05.53.98.9 1.99 1.12 3.04l-.1 1.15c0 .04-.03.06-.08.07-.05 0-.07-.02-.08-.07a8.74 8.74 0 0 0-1.05-2.74 1.77 1.77 0 0 0-.2-.54.2.2 0 0 0-.2-.1.26.26 0 0 0-.2.12.89.89 0 0 1-.28.25c-.07.04-.12.02-.16-.05-.22-.35-.23-.75-.01-1.2h.44Z" fill="#8B7286"/><path d="m39.76 17.16.19.21-.17.22c-.23.31-.42.52-.56.65-.22.19-.5.33-.84.42a.14.14 0 0 0-.07.04l-1.45 1.66a1.04 1.04 0 0 0-.45-.52c-.05-.04-.06-.08-.04-.14a.43.43 0 0 1 .34-.28c.26-.04.5-.23.75-.56.5-.4 1.07-.62 1.7-.67.04 0 .06-.03.06-.07l-.02-.31c0-.04 0-.07.04-.08a.09.09 0 0 1 .1 0c.03.01.07.02.12 0 .06 0 .1-.04.1-.1.04-.21.1-.37.2-.47Z" fill="#4F4B4E"/><path d="m39.95 17.37.13.13c-.21.85-.5 1.68-.87 2.46a.39.39 0 0 0-.23-.24.13.13 0 0 0-.15.03.13.13 0 0 0-.04.15c.03.1.12.15.25.16-.45.28-.93.49-1.43.61a.08.08 0 0 0-.06.06c-.01.03 0 .06.01.09.1.11.24.25.44.41.38.31.6.63.67.96.01.07-.01.12-.07.16-.47.33-.99.55-1.55.66a.3.3 0 0 0-.14.07 4.6 4.6 0 0 1-2.02 1.04l.12-.33a.27.27 0 0 0-.03-.21 2.09 2.09 0 0 1-.08-1.12l.39-.62.12-.24c.15-.3.35-.5.6-.6.06-.03.1-.06.13-.1a.57.57 0 0 0 .12-.56.1.1 0 0 1 .04-.12.1.1 0 0 1 .12 0c.16.1.3.14.44.14l1.45-1.66a.14.14 0 0 1 .07-.04c.34-.09.62-.23.84-.43a4.45 4.45 0 0 0 .73-.86Z" fill="#07314B"/><path d="M33.9 20.9a.5.5 0 0 1 .17-.1.1.1 0 0 0 .06-.1.1.1 0 0 0-.06-.09l-.32-.14c-.05-.03-.08-.07-.06-.13 0-.05.04-.08.1-.09.22 0 .4.09.53.28.08.13.16.21.24.27.1.06.1.17.04.32v.05c0 .07.04.11.1.14.05.02.1.02.14-.01a.15.15 0 0 0 .08-.13 34.32 34.32 0 0 0 .09-1.15l.98-1.36a.12.12 0 0 0 0-.14.11.11 0 0 0-.11-.06c-.34.03-.5-.03-.5-.16-.01-.22.03-.38.14-.48a.2.2 0 0 1 .15-.06c.29 0 .53-.1.74-.28a.1.1 0 0 1 .11-.02c.05.01.07.04.08.08.07.33.04.61-.1.85-.07.13-.12.3-.14.5-.05.48-.18.88-.41 1.19-.09.12-.23.29-.44.51-.06.06-.17.25-.35.57-.28.5-.75.72-1.4.65a.07.07 0 0 1-.07-.05.07.07 0 0 1 .02-.08c.14-.1.25-.27.34-.49.03-.06.03-.1.01-.12-.05-.05-.09-.07-.11-.07a.06.06 0 0 1-.05-.04c-.01-.03 0-.05 0-.07Z" fill="#C7A175"/><path d="m40.07 17.5.85 1.07c-.32.2-.54.4-.65.62-.11.2-.16.48-.16.83 0 .5-.19 1-.56 1.5-.22.3-.61.7-1.16 1.22l-.13.12c-.22.2-.4.6-.52 1.2a.36.36 0 0 1-.06.14 2.6 2.6 0 0 1-.6.64 6.76 6.76 0 0 0-1.96 1.71c-.03.04-.03.07 0 .11.02.04.05.05.1.03a9 9 0 0 1 2.1-.42c.41-.06 1.06-.23 1.93-.52l.82-.27-.48.3c-.04.03-.05.07-.03.11l.02.06c.03.09.09.11.17.07.54-.25 1.12-.4 1.75-.42.06 0 .1-.02.16-.05l.25-.22.21-.2c.35-.22.7-.4 1.05-.54.08-.03.1-.08.1-.16-.01-.08-.05-.12-.13-.13l-.22-.02V24c-.01-.06.01-.1.06-.13l.4-.25c.42 1.5.63 3.02.62 4.56-.16.29-.24.51-.26.67-.11.93-.25 1.8-.42 2.62 0 .06-.04.07-.1.04-.32-.2-.7-.34-1.1-.4a.16.16 0 0 0-.16.04l-.56.56c-.02.02-.02.04 0 .07.01.02.03.03.06.02l.87-.34a.16.16 0 0 1 .19.04l.1.1c.04.04.03.07-.02.1-.1.04-.21.19-.32.44-.11.24-.21.39-.3.45-.62.41-1.16.27-1.64-.43-.06-.07-.12-.1-.2-.05-.09.05-.1.11-.07.2l.16.4v.03l-.04.34c0 .07-.04.09-.1.06a3.71 3.71 0 0 0-1-.3 9.07 9.07 0 0 0-1.48-.08c-.4-.01-.9-.2-1.49-.55l.65-1.64c.21-.12.34-.31.4-.57a3 3 0 0 0 .02-.71v-.2c-.01-.13-.04-.19-.08-.15a.86.86 0 0 0-.3-.28c-.04-.04-.06-.1-.05-.22-.03-.2-.26-.37-.67-.51a4.7 4.7 0 0 0-.96-.21 54 54 0 0 0-2.34-.23 2.01 2.01 0 0 1 .25-1.53 4.87 4.87 0 0 1 1.85-1.84 4.6 4.6 0 0 0 2.02-1.04.3.3 0 0 1 .14-.07 3.99 3.99 0 0 0 1.55-.66c.06-.04.08-.1.07-.16-.07-.33-.29-.65-.67-.96-.2-.16-.35-.3-.44-.41a.09.09 0 0 1-.01-.09.08.08 0 0 1 .06-.06c.5-.12.98-.33 1.43-.61.06 0 .12-.02.17-.1.37-.78.66-1.6.86-2.46Z" fill="#072536"/><path d="M28.05 17.82c-.18.17-.23.38-.14.63a1.7 1.7 0 0 0-.58-.07c-.14.02-.24-.04-.29-.17l-.06-.18a.16.16 0 0 1 .02-.15.16.16 0 0 1 .13-.07h.92ZM27.36 20.08c.3 1.32.31 2.63.05 3.93-.02.06-.05.09-.1.08l-.17-.02c-.06-.01-.1-.05-.1-.12.04-1.28 0-2.21-.1-2.8-.13-.65-.43-1.54-.89-2.66.51.87.86 1.78 1.05 2.74 0 .05.04.07.08.07.05 0 .07-.03.08-.07l.1-1.15Z" fill="#A18596"/><path d="M40.92 18.57a15.9 15.9 0 0 1 2.47 5.05l-.41.25a.13.13 0 0 0-.07.13l.01.28c-.34.27-.7.36-1.06.27a.35.35 0 0 0-.28.05.42.42 0 0 0-.17.24c-.03.09-.07.18-.13.28a.19.19 0 0 1-.12.1l-1.09.26-.82.27a11.89 11.89 0 0 1-2.25.56 9 9 0 0 0-1.78.38c-.05.02-.08 0-.1-.03-.03-.04-.03-.07 0-.1a6.76 6.76 0 0 1 1.96-1.72c.14-.09.34-.3.6-.64a.36.36 0 0 0 .06-.14c.13-.6.3-1 .52-1.2l.13-.12c.55-.51.94-.92 1.16-1.22.37-.5.56-1 .56-1.5 0-.35.05-.63.16-.83.11-.22.33-.43.65-.62Z" fill="#031928"/><path d="M15.09 18.56c.14.83.23 1.52.27 2.09.12 2.06.28 3.78.45 5.14l.07 1.05c.03.46.11.86.25 1.23.06.18.19.3.37.35 1.04.28 2.13.3 3.25.07.24-.1.32.15.23.75-.01.07.01.12.08.16l.55.29-.11 1.33c-1 .07-1.98.12-2.95.17a5.83 5.83 0 0 0-2.81.67 144 144 0 0 1-1.91 1.21 15.94 15.94 0 0 1 2.26-14.51Z" fill="#0A2D38"/><path d="m32.3 19.27 1.01.29-.01.01a3 3 0 0 1-1.7.32c-.12-.01-.17.04-.15.15l.12.95c0 .04-.02.06-.06.05h-.04a.26.26 0 0 0-.14.1l-.9 1.12v.04l.01.04c.02.05.01.1-.02.15a3.8 3.8 0 0 0-.41.78c-.2.48-.42.82-.65 1.02-.14.11-.3.32-.5.6-.23.33-.4.54-.56.64-.24.17-.54.2-.9.11.24-1.04.39-1.9.43-2.59.04-.62.04-1.72 0-3.3.06-.21.22-.32.46-.32.37 0 .8.02 1.27.06.05 0 .1 0 .16-.02.46-.16.76-.24.88-.22.58.07 1.15.07 1.7.02Z" fill="#07314B"/><path d="m33.3 19.57.32.34c.03.03.04.06.03.1-.01.11-.06.17-.13.18a.08.08 0 0 0-.06.03l-.44.5c-.03.03-.03.06 0 .1.01.03.04.03.08.02l.37-.14c.03-.01.06 0 .08.02l.03.03c.05.04.04.08 0 .11-.67.47-1.01 1.07-1.02 1.81 0 .05-.02.08-.06.1a.11.11 0 0 1-.1 0l-.56-.25a.12.12 0 0 0-.12.01.12.12 0 0 0-.06.1v.46c0 .05-.02.08-.07.07l-.16-.02c-.04 0-.07 0-.1.03l-.35.36c-.03.03-.04.06-.02.1l.1.25c.01.06 0 .1-.03.15-.48.55-.8 1.06-.98 1.5-.13.34-.44.7-.95 1.06-.34.25-.58.46-.72.64a.21.21 0 0 1-.13.07l-.83.2-.02.01-.4.01a.12.12 0 0 1-.1-.05.13.13 0 0 1-.02-.12l.52-1.7c.36.08.66.05.9-.12.15-.1.33-.31.55-.63.2-.3.37-.5.5-.61.24-.2.45-.54.66-1.02.15-.36.28-.62.4-.78.04-.05.05-.1.03-.15a.21.21 0 0 1-.01-.04v-.04l.9-1.13a.26.26 0 0 1 .14-.09h.04c.04 0 .06-.01.06-.05l-.12-.95c-.02-.11.03-.16.14-.15a3 3 0 0 0 1.7-.32ZM39.21 19.96c-.05.08-.1.1-.17.1-.13-.01-.22-.06-.25-.16-.01-.06 0-.1.04-.15a.13.13 0 0 1 .15-.03c.1.04.19.12.23.24Z" fill="#4F4B4E"/><path d="M38.48 20.19c-.05.04-.15-.02-.3-.17a.09.09 0 0 1-.03-.06c0-.05.01-.1.06-.13.04-.03.09-.04.14-.02a.1.1 0 0 1 .05.04c.1.19.13.3.08.34Z" fill="#625067"/><path d="M19.75 21.42c-.03.01-.03.02 0 .04l.74.54c.07.05.11.13.1.23 0 .1-.05.16-.14.2l-.38.18a.3.3 0 0 1-.17.03c-.2-.02-.37-.07-.53-.17-.08-.05-.1-.12-.06-.2l.02-.06c.03-.05.06-.06.11-.03.17.1.35.1.51.03a.07.07 0 0 0 .05-.06c0-.03 0-.06-.03-.07-.57-.42-.73-.75-.47-.99a.38.38 0 0 1 .16-.08l.07-.02a.12.12 0 0 0 .08-.12c0-.15.04-.27.12-.37.03-.03.05-.04.08-.02.04.01.05.04.04.07l-.03.3c-.01.06.02.1.08.13l.24.11c.03.02.05.05.05.1 0 .03-.03.06-.06.07l-.58.16ZM26.48 21.32c-.07 0-.1.04-.11.1-.04.35.08.53.36.55.08.01.12.05.12.12 0 .07-.02.12-.1.14a.7.7 0 0 1-.7-.16.2.2 0 0 1-.08-.14l-.06-.48a.14.14 0 0 0-.08-.1.13.13 0 0 0-.13 0l-.93.53c-.02.01-.03.03-.03.06.01.02.03.04.05.04a.8.8 0 0 0 .67-.23c.06-.07.11-.06.15.02l.01.02c.04.07.03.15-.03.21-.27.3-.56.4-.89.26a.54.54 0 0 0-.45.01.69.69 0 0 1-.25.07h-.37c-.05-.01-.08-.04-.08-.1.02-.59 0-1.03-.02-1.33-.04-.32.1-.46.41-.41.05 0 .08.03.1.06v.11l-.18.3a.12.12 0 0 0-.02.07v.9c0 .09.04.13.12.13h.34c.09 0 .13-.04.12-.13l-.01-.13a1.6 1.6 0 0 1 0-.48.89.89 0 0 1 .29-.42c.23-.21.51-.16.84.15.07.07.15.08.23.02.12-.09.25-.22.37-.4a.1.1 0 0 1 .1-.04.1.1 0 0 1 .08.05.6.6 0 0 0 .41.34c.06.02.09.06.1.11 0 .06-.02.1-.08.12a.76.76 0 0 1-.27.06ZM23.35 22.33l-.23.07c-.03 0-.06 0-.09-.02a.08.08 0 0 1-.03-.08 1.32 1.32 0 0 1 .1-.4l-.07-.08c-.03-.03-.06-.02-.07.01l-.21.46a.14.14 0 0 1-.12.09c-.22.02-.4 0-.56-.05-.13-.04-.21-.05-.25-.01a2.1 2.1 0 0 0-.13.14.21.21 0 0 1-.14.07c-.24.03-.4-.05-.5-.23a.87.87 0 0 1-.05-.6.13.13 0 0 0-.05-.14.66.66 0 0 0-.2-.09.06.06 0 0 1-.05-.06c0-.02.01-.05.04-.06a.9.9 0 0 0 .4-.47.3.3 0 0 1 .16-.17.1.1 0 0 1 .11.01.1.1 0 0 1 .04.1l-.02.2c-.01.06.02.1.08.12.38.1.68.06.88-.1.1-.07.2-.06.29.04.13.15.26.23.38.23.07 0 .11.04.12.11l.02.22c.02.25.05.4.1.46l.1.1c.04.07.02.11-.05.13ZM23.1 20.8c-.11 0-.2.05-.2.12 0 .06.08.11.2.11.11 0 .2-.05.2-.11 0-.07-.08-.12-.2-.12Z" fill="#FBFAF1"/><path d="M25 21.44a.38.38 0 0 1-.17.05.11.11 0 0 1-.1-.06.13.13 0 0 1 0-.12c.03-.1.07-.16.13-.18.05-.03.13-.03.23 0 .04.02.07.04.09.08.01.04 0 .08-.02.11a.4.4 0 0 1-.15.12Z" fill="#D9D9D9"/><path d="M36.58 21.16c-.07-.01-.14.01-.14.06 0 .04.04.09.12.1.07 0 .13-.02.14-.07 0-.04-.05-.09-.12-.1Z" fill="#625067"/><path d="m21.52 21.4.29-.04c.04-.01.07 0 .1.03.03.04.04.07.03.11l-.17.57c-.03.13-.12.19-.26.17-.13-.02-.2-.1-.2-.24v-.39c.01-.13.08-.2.2-.22ZM22.54 21.41l-.06-.01a.18.18 0 0 0-.22.13l-.1.38c-.02.1.04.2.13.22l.06.01c.1.03.2-.03.23-.13l.1-.37a.18.18 0 0 0-.14-.23Z" fill="#DBBCC2"/><path d="m27.98 27.53 2.43-.02.38-.03h2c.77.07 1.55.14 2.34.24.35.04.67.11.96.2.41.15.64.32.67.52-.56.27-1.1.44-1.63.5-.72.1-1.66.2-2.81.3-1.05.1-2 .14-2.83.12h-1.4a43.17 43.17 0 0 1-4.9-.24 5.45 5.45 0 0 1-1.96-.54c1.44-.38 2.9-.64 4.4-.78.05 0 .07-.03.06-.08v-.05c0-.04-.03-.05-.06-.05l-2.78.36a.86.86 0 0 0-.19.04c-.63.25-1.1.36-1.44.33a.77.77 0 0 1-.6-.36 14.28 14.28 0 0 1-2.34-6.16c.27.3.45.6.54.91l.17.56c.28.94.52 1.62.7 2.06a5.9 5.9 0 0 0 1.13 1.79c.04.04.09.06.15.06 1.13-.02 2.32-.14 3.58-.38.3-.05.79-.06 1.46-.03.1.01.19.06.24.15a.1.1 0 0 1 0 .11.1.1 0 0 1-.09.05l-.9-.08c-.07 0-.1.03-.11.1l-.01.06c-.01.08.03.13.11.13h.4c.14.03.2.1.21.23 0 .06.03.1.08.12.05.02.1.02.14 0a.68.68 0 0 1 .52-.13c.23.05.58.06 1.07.01l.3-.02Z" fill="#F9E7E8"/><path d="m35.29 21.84-.39.62c-.03-.04-.03-.14 0-.3 0-.22.12-.33.39-.32ZM31.9 23.48c-.02 0-.03 0-.03-.02s0-.04.02-.04l.84-.33a.17.17 0 0 0 .1-.1c.17-.47.46-.79.87-.97a.1.1 0 0 1 .1.01.1.1 0 0 1 .04.1l-.27 1.25c-.01.07-.06.1-.13.1H31.9Z" fill="#C7A175"/><path d="M34.9 22.16c-.03.16-.03.26 0 .3-.07.38-.04.75.08 1.12-.12.02-.18.08-.18.17 0 .07.03.1.1.1.04 0 .08-.02.11-.06l-.12.33a4.87 4.87 0 0 0-1.85 1.84c-.29.5-.37 1-.25 1.53l-1.6-.02c-.04-.34.1-.6.42-.8a.29.29 0 0 0 .1-.11 8.29 8.29 0 0 1 1.56-1.87c.18-.18.35-.6.52-1.28.15-.18.32-.33.5-.44a.17.17 0 0 0 .1-.12 1 1 0 0 1 .52-.69Z" fill="#4F4B4E"/><path d="M33.79 23.41c-.17.67-.34 1.1-.52 1.28l-.1.1a8.3 8.3 0 0 0-1.46 1.77.29.29 0 0 1-.1.1c-.33.2-.46.47-.42.81l-.4.01a.4.4 0 0 1-.23-.05c-.06-.05-.08-.1-.04-.17.25-.45.57-.67.96-.68.1 0 .15-.05.16-.15l.13-1.06c0-.04.02-.07.05-.1l.43-.48.21-.27.3-.39a.27.27 0 0 1 .13-.08c.36-.13.66-.34.9-.64Z" fill="#756054"/><path d="M34.98 23.58c.04.06.05.13.03.21a.19.19 0 0 1-.1.06c-.08 0-.12-.03-.11-.1 0-.09.06-.15.18-.17Z" fill="#625067"/><path d="m32.46 24.52-.2.27-.36.33c-.43.4-.78.67-1.05.8-.02 0-.04 0-.06-.02-.02-.01-.02-.03-.01-.06l.73-1.59c.02-.05.06-.06.1-.02l.3.2c.07.05.13.04.18-.03l.04-.06c.05-.06.04-.11-.03-.16l-.38-.27c-.03-.02-.03-.05-.02-.08 0-.04.03-.05.07-.05h.95c.07 0 .09.03.06.09l-.32.65Z" fill="#C7A175"/><path d="m42.92 24.28.22.02c.08 0 .12.05.13.13.01.08-.02.13-.1.16-.35.13-.7.32-1.05.55-.04.03-.12.1-.21.2-.1.1-.2.17-.25.2a.32.32 0 0 1-.16.06c-.63.02-1.2.17-1.75.42-.08.04-.14.02-.17-.07l-.02-.06c-.02-.04-.01-.08.03-.1l.48-.3 1.09-.28c.05 0 .1-.04.12-.09.06-.1.1-.2.13-.28.03-.1.09-.19.17-.24a.35.35 0 0 1 .28-.05c.37.09.72 0 1.06-.27Z" fill="#07314B"/><path d="m30.41 27.5-2.43.03-.58-.02.02-.01 1.67-.03c.1 0 .14-.05.15-.15a.7.7 0 0 1 .24-.46c.03-.03.05-.02.07.02.07.21.19.32.36.32.06 0 .12-.02.17-.06a.95.95 0 0 1 .43-.22c.07-.01.1.02.08.09-.02.15-.12.24-.3.28-.04 0-.06.03-.06.08 0 .04.01.07.05.09l.13.05Z" fill="#C7A175"/><path d="M21.34 27.5c0-.02.01-.03.03-.03h.02c.56.03.83.06.83.1v.06c0 .04-.28.05-.83.03h-.03c-.02 0-.02-.01-.02-.03v-.13Z" fill="#D2A7A0"/><path d="M33.74 28.7a7.25 7.25 0 0 1-.65-.07 21.8 21.8 0 0 0-6.56.17 6 6 0 0 1-.67.1l-.88-.12c-.03 0-.04-.01-.04-.04 0-.02.01-.04.03-.05a21.27 21.27 0 0 1 2.51-.43c.53-.09.93-.12 1.18-.1.07.01.19 0 .37-.04l.4-.05c1.66.02 2.72.07 3.17.13.58.08 1.12.2 1.64.33.03.01.05.03.05.06 0 .04-.01.06-.04.07a.83.83 0 0 1-.5.04Z" fill="#DBBCC2"/><path d="M44 28.18a16 16 0 0 1-3.9 10.27l-1.32-.52c-.04-.02-.06-.04-.05-.08.01-.04.03-.06.07-.06.32 0 .62.07.9.2.06.01.11.02.16 0a.72.72 0 0 0 .29-.13c.07-.05.08-.1.03-.18a2.46 2.46 0 0 0-1.2-.95 8.1 8.1 0 0 0-1.51-.34 9.45 9.45 0 0 1-1.48-.32 2.38 2.38 0 0 1-.6-.3 3.68 3.68 0 0 0-1.68-.66c.8-.7 1.49-1.48 2.04-2.36l.37-.54a3.23 3.23 0 0 0 1.94.56c.47.01.81.03 1.02.06.34.05.67.16 1.01.31.06.03.1.01.1-.06l.05-.34-.01-.03-.16-.4c-.04-.09-.02-.15.07-.2.08-.04.15-.02.2.05.48.7 1.02.84 1.63.43.1-.06.2-.21.3-.45.12-.25.23-.4.33-.44.05-.03.06-.06.02-.1l-.1-.1a.16.16 0 0 0-.19-.04l-.87.34c-.03 0-.05 0-.06-.02-.02-.03-.02-.05 0-.07l.56-.56c.05-.04.1-.06.15-.05.41.07.79.2 1.12.41.05.03.08.02.1-.04.16-.82.3-1.7.4-2.62.03-.16.11-.38.27-.67Z" fill="#282D27"/><path d="M36.76 28.44c-.01.11 0 .18.06.22-.1-.02-.18-.01-.23.03-.03.03-.04.06-.03.1a.5.5 0 0 1 .04.1c0 .05-.02.09-.07.13a.78.78 0 0 1-.2.12v-.08c0-.06-.02-.09-.08-.07l-.3.09c-.47.13-.8.21-1.02.24l-1.62.21c-.2.03-.48.04-.85.05a4.22 4.22 0 0 0-1.44.2l-5.6.04h-.05a8.78 8.78 0 0 0-1.87-.2l-1.32-.28a9.46 9.46 0 0 0-.24-.1c-.44-.17-.7-.37-.77-.57.15-.11.17-.14.06-.09.63.31 1.28.49 1.97.54l1.9.15c.69.05 1.68.08 2.98.08l1.41.01c.84.02 1.78-.02 2.83-.12 1.15-.1 2.1-.2 2.81-.3a5.37 5.37 0 0 0 1.63-.5Z" fill="#755B6D"/><path d="M21.17 28.67c.07.2.33.4.77.58a9.1 9.1 0 0 1 .24.1l1.32.27.06.01a8.78 8.78 0 0 1 1.86.2l5.6-.06a7.67 7.67 0 0 0 5.23-.78c.06-.02.09 0 .09.07 0 .02 0 .05-.02.08-.59.2-1.2.37-1.83.47l-1.65.27c-1.25.12-2.4.2-3.44.2-1.05 0-2.4-.03-4.02-.08a14.71 14.71 0 0 1-3.25-.4 4.39 4.39 0 0 1-.43-.15h-.04v.05c.33.43 1.18.68 2.56.73l3.16.1a29 29 0 0 0 2.47-.01l2.46-.16c.33-.06.69-.1 1.07-.13l.43-.13h.08c.81.06 1.58-.07 2.33-.39a.48.48 0 0 1 .17-.04c.42-.01.66-.19.72-.53.04-.04.07.02.07.15l.01.2a3 3 0 0 1-.02.71.83.83 0 0 1-.4.57l-.18.06c-1.4.4-2.45.64-3.17.71-2.8.26-5.56.3-8.25.14-1.95-.11-3.12-.36-3.5-.74l-1.06-1.05-.55-.3a.14.14 0 0 1-.08-.15c.09-.6.01-.85-.23-.75.47-.02.94.04 1.42.18Z" fill="#4F4A6C"/><path d="M33.74 28.7c-.18.08-.36.12-.56.1-2.26-.26-4.51-.2-6.76.17-.19.03-.37 0-.56-.07.24-.02.46-.06.67-.1a21.8 21.8 0 0 1 7.21-.1Z" fill="#87564C"/><path d="M36.82 28.66c.1.05.2.14.29.28-.06.34-.3.52-.72.53a.48.48 0 0 0-.17.04 4.77 4.77 0 0 1-2.4.4l-.44.12c-.42-.01-.6-.06-.54-.15l1.65-.27c.63-.1 1.24-.26 1.83-.47a.79.79 0 0 0 .2-.12c.06-.04.08-.08.08-.13a.5.5 0 0 0-.04-.1c-.01-.04 0-.07.03-.1.05-.04.13-.05.23-.03Z" fill="#DBBCC2"/><path d="M32.84 29.88c-.06.09.12.14.54.15a9.2 9.2 0 0 0-1.07.13 120 120 0 0 1-2.46.16c-.65.04-1.48.04-2.47.01l-3.16-.1c-1.38-.05-2.23-.3-2.56-.73v-.04c.01-.02.02-.02.04-.01l.43.15c.82.22 1.9.35 3.25.4 1.63.05 2.97.08 4.02.07 1.04 0 2.19-.07 3.44-.2Z" fill="#55629E"/><path d="m36.77 30.57-.65 1.64-.37.54c-.59-.47-1.18-.66-1.78-.56-2.05.31-3.76.4-5.13.28l-2.96-.23c-.5-.04-.88 0-1.15.13-.39.17-.45.5-.2.96.36.62.67 1.09.95 1.4.3.34.68.64 1.15.9a15.95 15.95 0 0 0 1.98.89c.04.01.06.04.07.08.01.05 0 .08-.02.12-.03.02-.08.05-.15.07-.63 0-1.37-.05-2.22-.18a3.87 3.87 0 0 1-2.66-1.59c-.3-.42-.62-.68-.93-.78-.35-.11-.75-.05-1.2.2-.02-.16-.03-.3-.02-.44 0-.06-.06-.24-.2-.52l-.66-1.45a.77.77 0 0 1-.07-.26l-.05-.75.1-1.33 1.07 1.05c.38.38 1.55.63 3.5.74 2.69.16 5.44.12 8.25-.14a18.24 18.24 0 0 0 3.35-.77Z" fill="#624851"/><path d="m20.5 31.02.05.75c0 .09.03.17.07.26l.66 1.45c.14.28.2.46.2.52 0 .13 0 .28.02.43l-.07.36c-.04.11-.1.18-.15.2-.94.15-1.87.33-2.77.52-.78.17-1.36.35-1.74.54-.55.27-1.07.59-1.56.94-.08.06-.1.13-.07.22.03.1.1.14.19.14l.42-.02-.63.13c-.99-1.33-1.75-2.8-2.3-4.39a144 144 0 0 0 1.92-1.21c.6-.39 1.53-.61 2.81-.67.97-.05 1.96-.1 2.95-.17Z" fill="#222C38"/><path d="M35.75 32.75a10.46 10.46 0 0 1-2.1 2.41c-.2-.27-.39-.42-.58-.44a1.1 1.1 0 0 0-.52.16c-.32.16-.58.21-.78.16a5.36 5.36 0 0 0-1.6-.26.48.48 0 0 0-.34.18.13.13 0 0 0 0 .16c.02.05.07.07.13.06l.3-.03c.05-.01.08.01.1.07v.07c0 .07-.02.1-.1.12l-.66.08c-.05 0-.07.04-.08.08 0 .05.02.08.07.1.12.02.34 0 .64-.08l.25-.06c.06-.01.13 0 .18.05.17.13.3.2.4.18 0 0 .02 0 .02.02l-.01.02c-.1.06-.4.15-.89.27a.77.77 0 0 1-.36-.02.57.57 0 0 0-.17-.03c-.08 0-.1.05-.08.12.06.23.2.34.39.33l.12-.03c.15-.07.32-.12.5-.14.07 0 .11.02.13.08.07.19.16.23.3.14.5-.37.98-.59 1.44-.65.09.68.07 1.36-.04 2.04-.48-.66-1.14-1-1.98-1.04l-1.92-.08c.07-.02.12-.05.15-.07a.12.12 0 0 0 .02-.12.13.13 0 0 0-.07-.08l-.54-.23c-.67-.28-1.16-.5-1.44-.66a4.24 4.24 0 0 1-1.15-.9c-.28-.31-.6-.78-.94-1.4-.26-.47-.2-.79.2-.96.26-.12.64-.17 1.14-.13l2.96.23c1.37.13 3.08.03 5.13-.28.6-.1 1.19.1 1.78.56Z" fill="#87564C"/><path d="m28.5 36.79 1.93.08c.84.03 1.5.38 1.98 1.04l-.02.16c-.2.49-.5.88-.92 1.16-1.26.26-2.4.29-3.41.07-.81-.17-1.87-.55-3.19-1.15-.38-.18-.66-.4-.83-.69a3.6 3.6 0 0 1-.33-.9c-.06-.24-.1-.42-.15-.54-.11-.36-.4-.65-.87-.88a4.22 4.22 0 0 0-1.26-.35l.07-.36c.45-.24.85-.3 1.2-.19.31.1.63.36.93.78a3.87 3.87 0 0 0 2.66 1.59c.85.13 1.59.19 2.22.18Z" fill="#625067"/><path d="m33.65 35.16-.66.5c-.1.1-.27.17-.54.21-.46.06-.94.28-1.44.65-.14.1-.23.05-.3-.14-.02-.06-.06-.08-.12-.08-.19.02-.36.07-.5.14a.37.37 0 0 1-.13.03c-.2.01-.33-.1-.4-.33-.01-.07.01-.11.09-.12.03 0 .09 0 .18.03.14.03.26.04.35.02a4.42 4.42 0 0 0 .9-.3h-.02c-.1 0-.23-.06-.4-.2a.22.22 0 0 0-.18-.04l-.25.06c-.3.08-.52.1-.64.07-.05-.01-.07-.04-.07-.09 0-.04.03-.07.08-.08l.67-.08c.07-.01.1-.05.1-.12l-.02-.07c0-.06-.04-.08-.09-.07l-.3.03a.13.13 0 0 1-.14-.06.13.13 0 0 1 .01-.16c.09-.1.2-.17.35-.18.3-.03.84.06 1.59.26.2.05.46 0 .78-.16.23-.12.4-.17.52-.16.2.02.38.16.58.44Z" fill="#B8784C"/><path d="M31.47 39.23c.22-.06.4-.17.56-.33h.06c.02.01.03.03.02.06l-.52 1.36a.96.96 0 0 0-.85.1 18.42 18.42 0 0 1-2.74-.18 22.86 22.86 0 0 1-6.3-2.12 4.04 4.04 0 0 1-.95-.68.17.17 0 0 1-.05-.14c.01-.28.08-.56.2-.86l.05-.08.33-1.38c.06-.01.1-.08.15-.19.49.07.9.18 1.26.35.47.23.76.52.87.88.04.12.1.3.15.53.11.43.22.74.33.91.17.28.45.51.83.69 1.32.6 2.38.98 3.19 1.15 1.02.22 2.15.2 3.41-.07Z" fill="#55629E"/><path d="m21.28 34.98-.33 1.38c0-.1-.03-.16-.1-.17a1.1 1.1 0 0 0-.9.28.28.28 0 0 1-.19.07l-.42.02a3.93 3.93 0 0 1-2.31.5c-.07 0-.14.01-.21.04-.35.16-.7.23-1.07.23l-.42.02c-.1 0-.16-.04-.2-.14-.03-.09 0-.16.07-.22.5-.35 1.02-.67 1.57-.94.38-.2.96-.37 1.74-.54a61 61 0 0 1 2.77-.53Z" fill="#9A813B"/><path d="M33.7 35.1a3.7 3.7 0 0 1 1.69.67l.15.09c.14.08.3.15.45.2.32.12.81.22 1.48.33.7.1 1.2.22 1.51.34.52.2.92.52 1.2.95.05.07.04.13-.03.19a.72.72 0 0 1-.29.13c-.05 0-.1 0-.15-.02a2.39 2.39 0 0 0-.9-.19c-.05 0-.07.02-.08.06 0 .04.01.06.05.08l1.33.52-.64.66c-.12-.18-.29-.31-.5-.4a5.9 5.9 0 0 1-.6-.29 3.45 3.45 0 0 0-1.33-.54.16.16 0 0 1-.14-.12c-.01-.07 0-.12.06-.17.06-.04.08-.13.07-.25-.01-.09-.05-.1-.13-.06a.84.84 0 0 0-.26.2c-.09.13-.21.16-.36.1-.96-.44-1.77-.9-2.42-1.35-.28-.2-.57-.4-.87-.57l.65-.5c0-.03.03-.05.07-.06Z" fill="#64483E"/><path d="M32.99 35.66c.3.18.59.37.87.57.65.46 1.46.9 2.42 1.34.15.07.27.04.36-.1a.84.84 0 0 1 .26-.2c.08-.04.12-.02.13.07.01.12 0 .2-.07.25-.06.05-.07.1-.06.17.03.07.07.11.14.12.5.1.95.28 1.34.54.06.04.25.14.59.28.21.1.38.23.5.41-.3.35-.64.68-1.03 1-1.06.88-2.2 1.64-3.42 2.29-.1-.19-.24-.28-.43-.29-.02 0-.03 0-.04-.03 0-.02 0-.03.02-.04.07-.03.1-.09.12-.17.02-.08.07-.12.15-.12l1.07-.02.07-.01c.22-.08.44-.27.66-.55.04-.05.09-.08.15-.09.2-.02.4-.13.59-.33.03-.04.04-.08.01-.12-.02-.05-.06-.06-.11-.05l-.31.1a.28.28 0 0 1-.1 0l-1.18-.03c-.06 0-.08-.03-.05-.08l.03-.07a.11.11 0 0 1 .1-.07l.97-.04c.36.06.7.04 1.03-.06a.17.17 0 0 0 .11-.1l.04-.07a.1.1 0 0 0-.01-.1.1.1 0 0 0-.1-.04c-.37.06-.71.03-1.02-.1-.05-.03-.06-.05 0-.08l.2-.11a.05.05 0 0 0 .02-.07c0-.02-.02-.04-.05-.04l-.98-.12c-.06 0-.08-.04-.05-.1l.04-.1c.04-.09.02-.15-.07-.2l-.6-.24-.03-.01c-.3-.06-.54-.17-.75-.32a.15.15 0 0 0-.05-.03l-.6-.18a.34.34 0 0 0-.1-.01c-.35 0-.7-.06-1.02-.22l-.36-.02.02-.16c.11-.68.13-1.36.04-2.04.26-.04.44-.1.54-.21Z" fill="#9A813B"/><path d="m20.95 36.36-.05.08c-.22.37-.34.64-.37.83-.05.32.06.55.33.71 1.04.6 2.1 1.13 3.19 1.59.47.2.86.36 1.16.51a14.2 14.2 0 0 0 2.63.82c.75.2 1.53.3 2.33.3.02 0 .04.02.05.04 0 .03 0 .05-.03.07l-.16.08a.52.52 0 0 1-.21.07c-.74.06-1.42-.01-2.04-.2a1.9 1.9 0 0 0-1.2-.01c-.37.12-.72.1-1.07-.05-.04-.02-.06-.05-.05-.1 0-.05.04-.08.1-.08h.85c.03 0 .05-.02.06-.05 0-.03-.01-.06-.04-.07-.52-.16-.97-.2-1.36-.08a.98.98 0 0 1-.48.03.31.31 0 0 1-.15-.09c-.28-.29-.57-.5-.85-.64a11.66 11.66 0 0 1-2.08-.58 7.56 7.56 0 0 1-.8-.56.26.26 0 0 1-.1-.16c-.04-.2-.13-.34-.27-.42a1.6 1.6 0 0 1-.82-1.01.13.13 0 0 0-.11-.1c-.22-.04-.48.02-.77.17a5.87 5.87 0 0 0-.86.58l-.45.13a.12.12 0 0 0-.09.1c0 .06.02.1.06.13.26.13.52.19.8.16.18-.02.44-.1.79-.22a.43.43 0 0 1 .35 0l.34.17c.05.02.08.06.07.12 0 .05-.03.09-.08.1l-.47.19a.2.2 0 0 0-.14.18c0 .09.03.16.1.2.33.2.6.48.82.87.03.05.07.09.12.11.47.24.97.35 1.5.35.05 0 .1-.03.12-.07a.14.14 0 0 0 0-.14c-.05-.12-.1-.24-.1-.36-.01-.03 0-.05.02-.06a.05.05 0 0 1 .06 0c.2.17.35.37.47.6.05.1.02.16-.09.2l-.34.1a.09.09 0 0 0-.07.06c0 .03 0 .06.02.08l.08.05c.68.2 1.25.55 1.71 1.05.04.05.09.07.15.08.68.07 1.28.26 1.8.55.08.05.18.08.28.1l.13.04c.87.2 1.52.3 1.96.28.12 0 .3-.02.53-.05.3-.04.55-.06.71-.05l-1.06.48a.14.14 0 0 1-.04.01l-1.7.3a15.9 15.9 0 0 1-11.02-6.42l.63-.13c.37 0 .72-.08 1.07-.23a.43.43 0 0 1 .21-.03 3.93 3.93 0 0 0 2.31-.51l.42-.02c.07 0 .13-.02.18-.07.27-.23.57-.33.9-.28.08 0 .12.06.1.17Z" fill="#152123"/><path d="M20.9 36.44c-.12.3-.19.58-.2.86 0 .05.01.1.05.14.31.29.63.52.95.68a22.87 22.87 0 0 0 6.3 2.12c.55.1 1.47.17 2.74.18.06.17.18.29.35.36.05.02.08.06.08.12s0 .1-.03.15c-.02.04-.04.04-.05 0v-.03c-.03-.05-.07-.08-.14-.08l-3.1-.04h-.03a14.2 14.2 0 0 1-2.6-.82c-.31-.14-.7-.32-1.17-.51a27.13 27.13 0 0 1-3.19-1.59c-.27-.16-.38-.4-.33-.7.03-.2.15-.47.37-.84Z" fill="#4F4A6C"/><path d="m27.84 40.9 3.11.04c.07 0 .1.03.13.08v.02c.02.05.04.05.06 0a.3.3 0 0 0 .03-.14c0-.06-.03-.1-.08-.12a.61.61 0 0 1-.35-.36c.24-.16.52-.2.85-.1-.04.07-.04.16 0 .27.02.06.06.08.12.08.34-.02.67-.14.98-.35.06-.05.13-.04.19.01l.02.03c.06.08.04.13-.05.17l-1.44.55a.12.12 0 0 0-.08.1l-.01.06a2.91 2.91 0 0 0-.45.62c-.15.23-.45.52-.91.88l-.39.3a.21.21 0 0 1-.13.05h-.5c-.16 0-.4 0-.71.05-.23.03-.41.05-.53.05a8.2 8.2 0 0 1-1.96-.28l-.13-.03c-.1-.03-.2-.06-.29-.11-.5-.3-1.1-.48-1.8-.55a.23.23 0 0 1-.14-.08 3.76 3.76 0 0 0-1.71-1.05.17.17 0 0 1-.08-.05.09.09 0 0 1-.02-.08c.01-.04.03-.06.07-.07l.34-.1c.1-.03.14-.1.09-.19a1.81 1.81 0 0 0-.47-.6.05.05 0 0 0-.06 0c-.02.01-.03.03-.03.06.02.12.06.24.12.36.02.05.02.1 0 .14a.14.14 0 0 1-.13.07c-.53 0-1.03-.11-1.5-.35a.26.26 0 0 1-.12-.11c-.22-.39-.5-.68-.81-.87a.2.2 0 0 1-.1-.2.2.2 0 0 1 .13-.18l.47-.18a.12.12 0 0 0 .08-.11c0-.06-.02-.1-.07-.12l-.34-.16a.43.43 0 0 0-.35-.01c-.35.13-.61.2-.8.22-.27.03-.53-.03-.79-.16a.11.11 0 0 1-.06-.13c0-.05.04-.09.1-.1l.44-.13.05-.02.09-.07c.3-.24.55-.4.72-.49.29-.15.55-.21.77-.17.06 0 .1.04.11.1.13.44.4.78.82 1 .14.09.23.23.27.43.01.07.05.12.1.16.45.34.72.52.8.56a11.66 11.66 0 0 0 2.08.58c.28.14.57.35.85.64.05.05.1.07.15.09.13.03.3.02.48-.03.4-.11.84-.08 1.36.08.03.01.04.04.04.07 0 .03-.03.05-.06.05h-.86c-.05 0-.08.02-.1.08 0 .05.02.08.06.1.35.15.7.17 1.06.05a1.9 1.9 0 0 1 1.2 0c.63.2 1.31.27 2.05.2.07 0 .15-.02.21-.06l.16-.08c.03-.02.04-.04.03-.07 0-.02-.02-.04-.05-.04-.8 0-1.58-.1-2.33-.3Z" fill="#333B66"/><path d="m32.75 38.1-.4 1.91c0 .02-.02.04-.04.04a.08.08 0 0 0-.06.05l.01.05c.02.02.03.02.05.01l1.4-.51a.86.86 0 0 0-.3.28c-.02.04 0 .08.04.1l.87.4c.07.03.12.02.16-.04l.03-.05c.01-.04 0-.07-.05-.09-.15-.06-.22-.16-.2-.3.25.24.5.37.73.37.58 0 1.16.03 1.75.07l-.97.04a.11.11 0 0 0-.1.07l-.03.07c-.03.05-.01.08.05.08l1.19.03h.09l.3-.1c.06-.01.1 0 .12.05.03.04.02.08-.01.12-.2.2-.39.31-.59.33a.22.22 0 0 0-.15.09c-.22.28-.44.47-.66.55a.22.22 0 0 1-.07.01l-1.07.02c-.08 0-.13.04-.15.12a.22.22 0 0 1-.12.17l-.02.04c0 .02.02.03.04.03.19 0 .33.1.43.29l-1.13.48a7.51 7.51 0 0 0-1.73.05c-.22.03-.44.03-.65 0l-1.55-.19c.46-.36.76-.65.9-.88a2.91 2.91 0 0 1 .46-.62v-.07a.12.12 0 0 1 .09-.09l1.44-.55c.1-.04.1-.1.05-.17l-.02-.03c-.06-.05-.13-.06-.2-.01-.3.21-.63.33-.97.35-.06 0-.1-.02-.12-.08-.04-.1-.04-.2 0-.27l.52-1.36c.01-.03 0-.05-.02-.06-.02-.02-.04-.01-.06 0-.16.16-.34.27-.56.33.42-.28.73-.67.92-1.16l.36.02Z" fill="#D2A7A0"/><path d="M32.75 38.1c.33.15.67.22 1.02.2l.1.02.6.18c.02 0 .03.02.05.03a1.75 1.75 0 0 0 .77.33l.6.25c.1.04.12.1.08.2l-.04.09c-.03.06-.01.1.05.1l.98.12c.03 0 .04.02.05.04 0 .03 0 .05-.03.07l-.2.11c-.05.03-.04.05 0 .07.32.14.66.17 1.03.1a.1.1 0 0 1 .1.05.1.1 0 0 1 0 .1l-.03.07a.17.17 0 0 1-.1.1c-.34.1-.68.12-1.04.06a30.3 30.3 0 0 0-1.75-.07c-.24 0-.48-.13-.74-.37l-.06-.1a.16.16 0 0 0-.13-.07.54.54 0 0 1-.35-.13l-1.4.51c-.02.01-.03 0-.05-.01-.01-.01-.02-.03 0-.05a.08.08 0 0 1 .05-.05c.02 0 .03-.02.04-.04l.4-1.92Z" fill="#DBBCC2"/><path d="M33.7 39.65c.1.08.21.12.36.13.05 0 .1.03.13.07l.06.1c-.01.14.06.24.21.3.04.02.06.05.05.1l-.03.04c-.04.06-.1.07-.16.04l-.87-.4c-.05-.02-.06-.06-.03-.1.05-.1.14-.19.29-.28Z" fill="#C7A175"/><path d="M33.89 42.88c-2.52.98-5.1 1.32-7.76 1l1.7-.3.05-.01 1.07-.48h.49c.05 0 .1-.02.13-.05l.38-.3 1.56.2c.21.02.43.02.65-.01.57-.08 1.15-.1 1.73-.05Z" fill="#816024"/><defs><linearGradient id="a" x1="10.42" y1="9.71" x2="68.15" y2="76.02" gradientUnits="userSpaceOnUse"><stop stop-color="#1A1E21"/><stop offset="1" stop-color="#06060A"/></linearGradient></defs></svg>