<svg width="224" height="224" viewBox="0 0 56 56" xmlns="http://www.w3.org/2000/svg"><path d="M43 27.86c0 .04.03.07.05.1.03.03.06.04.1.04h4.77a.08.08 0 0 1 .08.08v2.83a.1.1 0 0 1-.03.07c-.02.02-.04.02-.07.02h-4.76c-.05 0-.1.03-.14.07a.2.2 0 0 0-.06.14 12.17 12.17 0 0 1-.75 4.5c-.63 1.67-1.51 2.75-3.14 3.25a.19.19 0 0 0-.13.2c.19 2.28-3.03 2.49-3.11.22a.13.13 0 0 0-.1-.12 4.28 4.28 0 0 1-3.65-3.03.12.12 0 0 0-.17.01 4.19 4.19 0 0 1-1.93 1.29.1.1 0 0 0-.02.05c.02 2.52-3.28 2.36-3.14.06 0-.04 0-.07-.02-.1a.14.14 0 0 0-.07-.05 4.21 4.21 0 0 1-2.41-2.09.1.1 0 0 0-.15.07 4.72 4.72 0 0 1-3.37 3.69.17.17 0 0 0-.12.13c-.14.63-.13 1.05-.75 1.45-1.15.73-2.43-.17-2.42-1.5a.16.16 0 0 0-.12-.15c-3.84-.93-4.32-4.49-4.47-7.9a.2.2 0 0 0-.06-.14.19.19 0 0 0-.13-.05h-4.6a.1.1 0 0 1-.08-.04.11.11 0 0 1-.03-.07v-2.77c0-.03.01-.07.04-.09.02-.02.06-.03.09-.03h4.75l.04-.02a.12.12 0 0 0 .07-.06v-1.75c0-.04-.01-.09-.05-.12a.18.18 0 0 0-.12-.05H8.16a.15.15 0 0 1-.11-.05.16.16 0 0 1-.05-.11v-2.71c0-.04.01-.07.04-.1a.13.13 0 0 1 .09-.03h4.7c.04 0 .08-.02.11-.05a.3.3 0 0 0 .06-.16v-5.72a.12.12 0 0 1 .08-.07h.05l2.76.51c.03 0 .06.03.08.05l.03.09v2.24c.04.99.7 1.1 1.6 1.11h21.05c.66-.01 1.35-.16 1.35-.72v-2.57c0-.06 0-.1.02-.14a.2.2 0 0 1 .13-.08L42.9 17a.1.1 0 0 1 .08.02.1.1 0 0 1 .02.04v5.74c0 .05.03.1.07.14.04.04.08.06.14.06h4.71a.08.08 0 0 1 .08.07v2.84a.1.1 0 0 1-.03.07c-.02.02-.04.02-.07.02h-4.76c-.03 0-.07.03-.09.05-.02.02-.05.06-.05.09v1.72ZM21.92 26H16.1a.08.08 0 0 0-.08.05l-.03.04v2.71c0 1.63.65 4.85 2.82 4.85h.49c2.04.01 2.69-3.35 2.69-4.83v-2.71c0-.02 0-.05-.02-.06-.02-.02-.04-.05-.06-.05Zm18 0h-5.84c-.03 0-.05.03-.06.04-.02.02-.02.04-.02.06v2.7c0 1.5.76 4.87 2.83 4.86h.45c1.87 0 2.73-3.46 2.72-4.88v-2.7l-.03-.06a.08.08 0 0 0-.06-.02Zm-9.03 0H25.1c-.02 0-.05.03-.06.04-.02.02-.04.05-.04.08v2.17c0 1.45.78 4.1 2.66 4.1h.43c2.11 0 2.91-2.34 2.91-4.1v-2.17c0-.03-.02-.06-.04-.08l-.07-.04Z" fill="#fff"/></svg>