<svg width="224" height="224" viewBox="0 0 56 56" xmlns="http://www.w3.org/2000/svg"><rect fill="#F0F3FA" width="56" height="56" rx="28"/><path d="M27.98 10.18c-.13.13-.16.28-.08.43a7.28 7.28 0 0 0-3.62.52c-.45-.19-1.05-.08-1.8.33a18.32 18.32 0 0 0-3.34 1.82c-.19.13-.33.38-.42.72a.25.25 0 0 1-.16.17c-.18.07-.38.1-.58.1-.17 0-.2.07-.13.21l.06.09c.05.1.05.2 0 .3-.34.64-.12 1.27-.4 1.86-.27.53-.5 1.14-.73 1.83-.12.41-.1 1.03-.22 1.53-.35 1.54-.75 3.23-1.19 5.08-.15.62-.13 1.39.05 2.29.2 1 .52 1.8.96 2.4l.82 2.55.28.43a5.38 5.38 0 0 0 2.04 3.5c.29.4.48.89.56 1.46-.15.55-.34.97-.58 1.25a6.15 6.15 0 0 1-3.78 2.14 17.98 17.98 0 0 1-3.13-22.45c3.22-5.41 9-8.56 15.3-8.74.08 0 .11.06.1.18Z" fill="#F73737"/><path d="m33.7 11 .1.4c.03.1 0 .14-.12.13a.55.55 0 0 0-.4.1c-.13.1-.25.08-.36-.04a.6.6 0 0 0-.72-.17.49.49 0 0 1-.33 0 2.46 2.46 0 0 0-.17-.05c-.22-.05-.23 0-.06.12l.77.58c.17.12.15.17-.06.17-.22-.01-.43-.06-.63-.14a.11.11 0 0 0-.15.07l-.02.08v.01c.67.2 1.25.5 1.75.92.08.07.17.11.27.13.63.14 1.2.38 1.69.73.1.08.14.06.08-.07a.13.13 0 0 1 0-.08c.03-.1.09-.13.19-.08.28.14.55.3.81.47.14.09.26.06.34-.08a.16.16 0 0 0 0-.2.21.21 0 0 1-.05-.16c.01-.12.06-.13.13-.04.4.46.7.71 1.3.94.33.12.65.3.96.51a.91.91 0 0 1-.98-.19.33.33 0 0 0-.28-.09.98.98 0 0 1-.76-.2c-.1-.06-.18-.05-.26.05a.87.87 0 0 0-.13.3.82.82 0 0 0-.13.24c-.03.1-.03.19.02.26.07.13.19.21.35.25l.85.52a.25.25 0 0 0 .34-.09c.14-.21.3-.23.5-.05a.39.39 0 0 0 .6-.1c.2-.37.19-.66-.03-.86.13.03.18-.02.16-.17.34.42.45.9.34 1.46l-.6.35c-.04.05-.13.09-.26.1l-1.26.21a.17.17 0 0 0-.07.3c.18.12.25.28.22.48a.22.22 0 0 0 .11.23c.3.16.47.34.49.55.05.56.14 1.12.27 1.68.04.19 0 .2-.12.06a5.29 5.29 0 0 0-.38-.41.2.2 0 0 0-.13-.07c-.04 0-.07.01-.1.05-.07.07-.07.15-.01.22l.21.26c.06.07.06.14 0 .2-.02.04-.06.05-.11.05l-.08.01a.13.13 0 0 0-.05.05c-.19.3-.3.59-.35.89-.02.1 0 .2.06.28a6.25 6.25 0 0 1 1.29 3.53.07.07 0 0 1-.08.03.07.07 0 0 1-.04-.02.6.6 0 0 0-.62-.28.16.16 0 0 0-.11.07.45.45 0 0 0-.06.17c-.15-.53-.25-1.33-.3-2.4-.02-.33-.21-.64-.58-.94a.4.4 0 0 1-.13-.26l-.1-.72a.18.18 0 0 0-.1-.15.6.6 0 0 0-.3-.06c-.12 0-.17-.06-.13-.17a.2.2 0 0 1 .05-.1.27.27 0 0 0 .06-.22l-.22-1.47a.65.65 0 0 0-.1-.25.78.78 0 0 1-.1-.57.42.42 0 0 0-.07-.35c-.11-.14-.1-.26.05-.36.11-.08.1-.13-.03-.16-.34-.08-.65-.1-.93-.07-.38.03-.4.15-.08.36.4.25.59.59.55 1.02-.04.36-.03.72.02 1.09.08.57.1 1.15.04 1.73a4.04 4.04 0 0 0-1.88-1.16c-.18-.06-.25 0-.21.2.02.1.09.17.2.2.21.08.22.18.02.3a2.8 2.8 0 0 1-.82.3c-.16.04-.2-.01-.13-.15.06-.12.16-.2.3-.23a.12.12 0 0 0 .07-.06.12.12 0 0 0 0-.09l-.02-.08a.02.02 0 0 0-.01 0h-.01c-.35.1-.7.15-1.01.1a.24.24 0 0 1-.16-.08.24.24 0 0 1-.06-.15.2.2 0 0 0-.24-.2c-.19.03-.33.15-.44.36a.02.02 0 0 1-.03 0l-.06-.05c-.07-.06-.07-.11 0-.17.56-.5 1.13-.63 1.71-.43.09.03.15 0 .2-.07l.11-.22c.06-.11.05-.21-.05-.3-1.33-1.21-2.94-.69-4.36-1.54a3.65 3.65 0 0 0-1.67-.48c-.1 0-.13-.05-.13-.14v-.08l.02-.02.8-.02c.12 0 .18-.06.17-.19a.95.95 0 0 0-.2-.53.22.22 0 0 0-.26-.06c-.3.12-.49.02-.59-.3-.03-.12.01-.16.13-.14 1.14.28 2.3.54 3.5.8.04 0 .06-.01.07-.05.01-.04 0-.07-.05-.08-.5-.15-1.07-.29-1.53-.55-.19-.1-.4-.17-.61-.18a.48.48 0 0 1-.4-.25c-.09-.14-.06-.16.07-.07.33.23.63.23.9 0a.24.24 0 0 1 .25-.05l1.54.48c.1.03.22.02.32-.03l.67-.3c.24-.12.24-.23-.01-.34a3.21 3.21 0 0 1-1.18-.81c-.15-.17-.12-.21.09-.13 1.05.44 2.13.81 3.23 1.13.08.03.1 0 .07-.08a.16.16 0 0 0-.08-.09 379.46 379.46 0 0 1-2.6-1.44l.05-.07c.02-.05.06-.06.1-.03.41.23.8.42 1.18.57.3.13.35.07.12-.17-.2-.22-.5-.4-.89-.56v-.02l.02-.08c.03-.07.07-.1.14-.06l1.5.72.12.03c.56.01 1.1.17 1.63.47.04.02.07.02.1 0l.02-.03c.02-.04.01-.07-.02-.1-.38-.3-.66-.65-1.1-.9-.5-.3-1-.63-1.46-1a.34.34 0 0 0-.24-.07c-1.34.1-1.79-1.71-2.91-1.65-.14 0-.17.07-.1.18l.59.87c.1.14.14.31.12.5-.02.12-.09.16-.2.1l-.66-.27c-.19-.08-.21-.04-.09.12a2 2 0 0 0 .7.51.07.07 0 0 1 .04.1c0 .02-.02.03-.03.04a.08.08 0 0 1-.06.01c-.25-.05-.5-.2-.74-.42-.4-.38-.83-.75-1.26-1.12-.18-.14-.21-.12-.12.09.07.13.16.23.27.3.07.05.1.12.09.2-.1.48.1.84.6 1.08.01 0 .01 0 0 0l-.03.07c-.03.04-.06.05-.1.02a9.07 9.07 0 0 1-2.26-1.93c-.05-.06-.1-.06-.17-.01l-.06.05v.01a.01.01 0 0 0 0 .02c.25.26.47.56.65.9.04.09.03.16-.03.22a.19.19 0 0 1-.16.05c-.06 0-.1-.04-.11-.1 0-.05-.03-.09-.08-.12a.07.07 0 0 0-.07 0 .17.17 0 0 0-.06.05c-.02.03-.02.06 0 .09.39.4.79.76 1.2 1.1.42.33.39.38-.1.16-.42-.2-.84-.47-1.26-.8-.04-.04-.07-.04-.1 0l-.06.05v.02c.25.27.51.53.78.78.04.04.04.09.01.13-.04.09-.1.1-.19.06a9.81 9.81 0 0 0-2.43-.95.15.15 0 0 0-.1.2c.3.73.8 1.2 1.5 1.45.12.04.12.07-.01.08-.43.05-.9-.17-1.26-.4a.2.2 0 0 0-.23.02.2.2 0 0 0-.05.06l-.2.4c-.05.12-.02.22.09.28.1.06.12.15.07.25a.11.11 0 0 1-.1.06h-.12c-.13 0-.13-.05-.02-.15a.15.15 0 0 0 .04-.09.11.11 0 0 0-.07-.12h-.06c-.8.11-1.42.14-2.18.54a.25.25 0 0 0-.13.25.24.24 0 0 0 .18.2c.33.1.67.08 1.04-.08.5-.2.87-.1 1.1.29a.2.2 0 0 0 .23.1c.63-.1 1.19-.1 1.68.02.42.1.43.23.04.4-.46.19-.92.18-1.35.47-1.23.84-2.92.5-3.64 2-.04.08-.1.12-.2.1a.31.31 0 0 0-.28.1c-.39.37-.85.44-1.37.2a.36.36 0 0 1-.2-.22 1.2 1.2 0 0 0-.47-.65c.17-.4.18-.87.02-1.44-.04-.13 0-.17.13-.12l.85.33a.12.12 0 0 1 .07.14l-.02.05a.3.3 0 0 1-.13.08c-.1.04-.13.11-.09.21.06.14.16.25.31.32.11.06.13.14.03.23a.41.41 0 0 1-.24.12c-.12.02-.18.08-.18.2 0 .12.08.2.2.27a.27.27 0 0 0 .26 0c.63-.35 1.2-.82 1.7-1.43.07-.1.1-.2.07-.31-.02-.1.01-.18.1-.23l1.42-.83c.09-.05.1-.1.01-.17l-.07-.05a.06.06 0 0 0-.03-.01l-.04.01c-.28.24-.6.4-.96.5-.45.11-.42.44-.72.62-.15.09-.26.08-.36-.04.22-.3.5-.53.84-.71.04-.02.05-.05.03-.08l-.03-.1c-.01-.03-.04-.04-.08-.03l-.76.26a.84.84 0 0 1-.49-.1c-.12-.07-.11-.14.02-.2.4-.19.75-.44 1.06-.76a.22.22 0 0 0-.11-.36 1.38 1.38 0 0 1-.83-.51c-.09-.12-.17-.11-.23.02a.2.2 0 0 0 0 .2c.11.21.3.37.53.47.1.04.14.1.12.2-.02.2-.13.31-.3.35-.42.1-.82.08-1.22-.03a.37.37 0 0 1-.25-.21 1.1 1.1 0 0 1 .04-1.05c.06-.09.13-.16.23-.2l.98-.37c.14-.06.16-.14.04-.24a.33.33 0 0 0-.24-.08c-.17.01-.2-.04-.09-.16l.7-.79c.12-.12.22-.1.3.04.06.13.15.24.25.33.11.1.15.22.12.37-.04.2.02.37.18.49.14.1.2.07.17-.1-.03-.23-.1-.44-.2-.62a.28.28 0 0 1-.02-.27c.26-.54.57-1.22 1.2-1.35.11-.02.19.03.22.14.02.1.07.18.13.26.1.13.17.1.19-.06.02-.19-.06-.42-.23-.7.75-.42 1.35-.53 1.8-.34 1.52-.27 2.88-.3 4.06-.06.1.02.2-.02.26-.1l.06-.1c.09-.12.06-.2-.1-.23a2.1 2.1 0 0 0-.66-.04c-.08-.14-.05-.29.08-.42.32-.12.75-.16 1.28-.1 1.69.14 3.16.45 4.44.91Z" fill="#16A4B9"/><path d="M27.9 10.6c.2-.02.43 0 .67.04.15.03.18.11.09.23l-.06.1a.24.24 0 0 1-.26.1c-1.18-.23-2.54-.21-4.06.06a7.29 7.29 0 0 1 3.62-.53Z" fill="#0E1C4D"/><path d="m37.86 13.05 1.41 2.07c.02.15-.03.2-.16.17a1.16 1.16 0 0 0-.1-.04c-.3-.22-.62-.39-.95-.51-.6-.23-.9-.48-1.3-.94-.07-.1-.12-.08-.13.04-.01.06 0 .12.04.17.05.06.05.12.01.2-.08.13-.2.16-.34.07a7.88 7.88 0 0 0-.81-.47c-.1-.05-.16-.02-.2.08l.01.08c.06.13.03.15-.08.07-.5-.35-1.06-.6-1.69-.73a.62.62 0 0 1-.27-.13 4.72 4.72 0 0 0-1.75-.93l.02-.08a.12.12 0 0 1 .06-.07.11.11 0 0 1 .09 0c.2.08.41.13.63.14.2 0 .23-.05.06-.17l-.77-.58c-.17-.13-.16-.17.06-.12l.17.05c.11.04.22.04.33 0a.6.6 0 0 1 .72.17c.11.12.23.14.36.04a.55.55 0 0 1 .4-.1c.11.01.15-.03.13-.14l-.11-.4c1.56.46 2.94 1.15 4.16 2.06Z" fill="#F7EDD2"/><path d="M35.43 21.52c0 .36.03.73.11 1.14a.4.4 0 0 1-.03.27c-.05.1-.12.14-.22.12-.12-.02-.19.03-.21.14-.04.16.04.29.23.36l-.07.17a.14.14 0 0 1-.18.08.14.14 0 0 1-.06-.04c-.4-.5-.84-.63-1.35-.42a.36.36 0 0 0-.14-.07c-.07-.03-.1-.08-.1-.16 0-.07.02-.13.06-.18a.2.2 0 0 1 .21-.07c.08.02.15 0 .22-.04.16-.1.15-.15-.05-.15a.59.59 0 0 1-.48-.17c-.02-.22-.11-.32-.27-.29h-.12a.28.28 0 0 1-.2-.08c-.55-.52-1.12-.6-1.68-.2-.1.06-.2.08-.3.06a.17.17 0 0 1-.12-.09c-.1-.15-.18-.14-.25.04a.96.96 0 0 1-.4.45l-.4-.03a.27.27 0 0 0-.24.09.19.19 0 0 1-.1.05.15.15 0 0 1-.18-.17c.02-.15.02-.3-.02-.44-.03-.15-.1-.17-.2-.05a.72.72 0 0 0-.15.44.86.86 0 0 0-.53.25.27.27 0 0 1-.24.09l-.55-.08c.2-.53.27-1.08.2-1.65 0-.06-.04-.09-.1-.08l-.08.02a.1.1 0 0 0-.09.08v.04c.1.66-.04 1.18-.41 1.57-.07.07-.16.09-.26.05-.1-.04-.14-.11-.1-.22.07-.17.09-.34.06-.52-.02-.16-.09-.18-.2-.09-.12.1-.15.26-.12.52a2.94 2.94 0 0 0-1.9-.05c-.24-.27-.45-.3-.62-.07a.2.2 0 0 1-.16.07.13.13 0 0 1-.12-.07.18.18 0 0 0-.19-.08c-.63.15-1.03.3-1.22.48-.7.65-.64.9.17.74.56-.3 1.03-.35 1.4-.14.43.24.4.35-.1.34a3.44 3.44 0 0 0-1.93.58 2.2 2.2 0 0 0-.74.8c-.05.1-.04.18.02.25.09.1.1.17.04.22-.03.02-.08 0-.14-.07-.2-.2-.37-.32-.53-.33-.13 0-.17.05-.12.17.07.18.3.27.67.28.03.27-.1.4-.4.37-.03 0-.05.01-.05.04v.08c0 .05.02.08.07.08.33.03.6-.06.81-.26l.65-.85a.36.36 0 0 1 .24-.15l2.05-.19c.1 0 .2-.05.26-.12l.08-.08c.09-.08.15-.07.2.04.07.17.27.28.59.3 1.06.12 1.66-.03 1.78-.42.22-.75.67-1.1 1.34-1.05.1 0 .19.05.25.13.45.52.61 1.04.48 1.56-.18.69-.16 1.2.05 1.5.25.63.4 1.31.43 2.03 0 .11-.04.25-.12.4l-1.84.5c-.22.05-.44-.08-.69-.39a.19.19 0 0 0-.3.03c-.17.28-.35.54-.55.76-.14.16-.21.13-.2-.08.02-.58.29-1.1.78-1.57.18-.24.17-.45-.04-.62a.18.18 0 0 0-.24 0 .44.44 0 0 1-.27.13.17.17 0 0 1-.16-.08.16.16 0 0 1-.02-.07l-.06-.7a.1.1 0 0 0-.06-.08.16.16 0 0 0-.07-.03c-.07 0-.11.03-.13.1-.14.64-.1 1.28.11 1.9-.14.34-.14.5 0 .47-.57.2-.97.55-1.19 1.07-.29.7-.57 1.36-.86 2-.15.34-.35.47-.6.38-.1-.03-.12 0-.07.09a.8.8 0 0 1 .02.72c-.06.14-.01.21.13.22.12 0 .22-.04.3-.13.43-.5.74-1.03.93-1.57l1.34-1.87a.09.09 0 0 1 .08-.03.09.09 0 0 1 .07.05c.11.25.27.5.49.71.08.09.18.1.29.05l.47-.25a.3.3 0 0 1 .3.01l2.23 1.26c.1.19.38.27.82.24.33-.03.5-.18.52-.47.2-.24.28-.62.26-1.14l1.93 2.87.02.01.08-.04c.06-.02.07-.06.03-.1l-.83-1.3a.64.64 0 0 1-.1-.32c-.02-.32.03-.48-.15-.78a8.32 8.32 0 0 0-1.22-1.55c-.16-.24-.23-.51-.23-.8.36-.49.51-1.04.47-1.67a.54.54 0 0 0-.13-.3l-.42-.5c-.05-.05-.1-.05-.16-.02-.32.18-.56.02-.72-.46-.12-.37 0-.6.37-.71l.2-.06c.73-.3 1.51-.43 2.33-.39.08 0 .14.04.2.1l.06.05c.1.03.19.02.28-.03.23-.14.45-.1.67.1.12.24.12.47 0 .67-.06.1-.13.12-.22.03-.2-.17-.44-.2-.73-.06-.17.08-.16.13.03.14l.48.02c.08 0 .12.04.14.12 0 .03 0 .07-.03.1a.24.24 0 0 1-.13.08 6 6 0 0 1-1.76.17c-.64-.03-.68.12-.13.44.38.22 1 .29 1.44.1a.47.47 0 0 1 .34 0c.1.03.2.04.3.02.63-.1 1.1-.4 1.43-.93.11-.05.22-.06.31 0 .08.03.14.1.16.22.03.12 0 .24-.1.33-.17.16-.16.3.02.43 1.37 1.05-.82 2.6-1.46 3.31-.31.35-.37.7-.16 1.04.08.13.12.28.13.44.03.63.17 1.23.43 1.81.34.76.2 1.57.18 2.36 0 .11-.06.2-.16.24a.6.6 0 0 1-.57-.05c-.13-.08-.18-.04-.17.1 0 .05.03.08.1.1a.12.12 0 0 1 .08.12l-.01.05a.61.61 0 0 1-.17.2c-.09.07-.1.15-.06.25.11.24.26.44.43.62.33.32.27.46-.2.42a7.35 7.35 0 0 0-1.39 0 .33.33 0 0 0-.24.13c-.37.52-.9.92-1.57 1.2-.41.23-.4.05.02-.53.14-.2.1-.26-.13-.19l-.18.06c-.26.09-.29.03-.1-.16l.53-.54a.15.15 0 0 0 .04-.11l-.02-.16c0-.12-.06-.15-.16-.09-.24.15-.4.34-.49.6a.5.5 0 0 1-.2.25l-.4.28c-.08.05-.15.04-.21-.03a.82.82 0 0 0-.22-.18c-.11-.06-.2-.04-.25.08a.42.42 0 0 0-.02.23c-.12.12-.26.16-.41.11a.24.24 0 0 1-.17-.2c-.01-.1 0-.2.06-.28.09-.12.06-.19-.09-.2-.46-.08-.84-.31-1.12-.7a.26.26 0 0 0-.23-.11.3.3 0 0 0-.27.15c-.06.1-.04.18.06.24l.13.07c.14.08.16.18.03.29l-.1.09c-.12.1-.1.15.06.13a.64.64 0 0 0 .36-.17.28.28 0 0 1 .3-.05.28.28 0 0 1 .17.25c.04.97-1.16.77-1.71.77a.38.38 0 0 1-.28-.12 2.74 2.74 0 0 0-1.89-.89c-.43-.02-.56-.23-.4-.63a1.38 1.38 0 0 1 1.43-.74c1.15.16 1.96-.07 2.41-.66.48-.42 1.21-.51 2.18-.29.34.34.63.49.88.45.43.24.95.31 1.58.21l1.12.05c.2 0 .22-.06.06-.18-.38-.3-.38-.44-.96-.52-.54-.07-.78-.35-.75-.84.04-.15-.13-.24-.5-.3a2.05 2.05 0 0 0-.57.02c-1.38.22-2.9.34-4.54.35.13.32.2.56.2.73 0 .1-.05.17-.16.2l-1.94.56c-.15.04-.19 0-.12-.15l.23-.46c.02-.04.01-.07-.03-.1l-.08-.05c-.1-.06-.19-.03-.23.08-.19.47-.58.8-1.18 1-.1.03-.16 0-.2-.09a.3.3 0 0 1-.01-.09c-.02-.2-.08-.2-.18-.04-.08.16-.2.28-.34.38a.2.2 0 0 0-.08.22c.02.08 0 .15-.06.2-.1.09-.17.07-.22-.06a.34.34 0 0 1 .08-.36c.06-.07.07-.14.02-.22a2.55 2.55 0 0 1-.38-1.83c.02-.13.08-.16.2-.1.08.06.14.12.2.2.08.14.11.13.1-.03a.52.52 0 0 0-.12-.27.46.46 0 0 1-.1-.28 3.48 3.48 0 0 0-.52-1.74c-.3-.47-.35-1.1-.32-1.64.02-.5.17-.53.43-.1l.95 1.55a.19.19 0 0 0 .14.08.18.18 0 0 0 .14-.05c.93-.9-.52-2.72-1.27-3.2-.71-.46-1.13-1.5-1.54-2.22a.55.55 0 0 1-.07-.35c.07-.46.05-.9-.05-1.33-.08-.3-.15-.3-.24 0a7.01 7.01 0 0 0-.26 2.72c0 .07.04.13.1.19.02.02.05.04.08.04.03.14.03.27 0 .4-.02.1-.08.15-.2.15h-.12c-.1-.21-.15-.45-.16-.71l-.35-.8c.14-.19.16-.36.08-.51.21-.43.31-.84.3-1.22l.22-1.1c.11-.27.17-.57.17-.9 0-.12.03-.2.08-.26a.59.59 0 0 1 .26-.18c.16-.06.19-.16.07-.3l-.07-.06a.33.33 0 0 0-.4-.07c-.51.3-.9.71-1.19 1.24-.24.47-.4.44-.46-.08L17 21.45a.68.68 0 0 0-.03-.4c.4-.32.5-.64.32-.96.1-.48.3-.85.6-1.12.2.13.36.35.47.65.03.1.1.18.2.22.52.24.98.17 1.37-.2.08-.09.18-.12.29-.1.09.02.15-.02.19-.1.72-1.5 2.4-1.16 3.64-2 .43-.3.89-.28 1.35-.48.39-.16.38-.3-.04-.4a4.48 4.48 0 0 0-1.68-.01.2.2 0 0 1-.22-.1c-.24-.4-.61-.5-1.1-.29-.38.16-.72.19-1.05.09a.24.24 0 0 1-.18-.21.25.25 0 0 1 .13-.25c.76-.4 1.38-.43 2.18-.54a.11.11 0 0 1 .13.12c0 .04-.02.07-.04.09-.11.1-.1.15.02.15h.11c.05 0 .08-.02.1-.06.06-.1.04-.19-.06-.25-.11-.06-.14-.16-.09-.28l.2-.4a.2.2 0 0 1 .2-.1.2.2 0 0 1 .08.02c.36.23.83.45 1.26.4.13-.01.13-.04 0-.08a2.4 2.4 0 0 1-1.49-1.45.15.15 0 0 1 .18-.2c.83.22 1.62.53 2.35.95.09.05.15.03.2-.06.02-.04.02-.09-.02-.13a47.02 47.02 0 0 1-.78-.8l.05-.05c.04-.04.07-.04.11 0 .42.33.84.6 1.27.8.48.22.5.17.1-.16-.42-.34-.82-.7-1.2-1.1-.03-.03-.03-.06 0-.09a.17.17 0 0 1 .05-.05.07.07 0 0 1 .07 0c.05.03.07.07.08.12.01.06.05.1.11.1s.11 0 .16-.05c.06-.06.07-.13.03-.21a3.94 3.94 0 0 0-.65-.94l.06-.05c.07-.05.12-.05.17.01.6.73 1.35 1.37 2.26 1.93.04.03.07.02.1-.02l.04-.06v-.01c-.5-.24-.7-.6-.61-1.08a.19.19 0 0 0-.1-.2.73.73 0 0 1-.26-.3c-.1-.2-.06-.23.12-.09.43.37.85.74 1.26 1.12.24.23.49.37.74.42a.08.08 0 0 0 .1-.05l-.01-.06a.07.07 0 0 0-.04-.04 2 2 0 0 1-.7-.51c-.12-.16-.1-.2.09-.12l.66.28c.11.05.18 0 .2-.11a.65.65 0 0 0-.12-.5c-.2-.28-.4-.57-.59-.87-.07-.11-.04-.17.1-.18 1.12-.06 1.57 1.74 2.91 1.65.09 0 .17.02.24.07.46.37.95.7 1.46 1 .44.25.72.6 1.1.9.03.03.04.06.02.1l-.02.02c-.03.03-.06.03-.1.01a3.4 3.4 0 0 0-1.63-.47.28.28 0 0 1-.12-.03l-1.5-.72c-.07-.03-.11-.01-.14.06l-.03.08.01.02c.39.15.68.34.9.56.22.24.18.3-.13.17a9.24 9.24 0 0 1-1.17-.57c-.05-.03-.09-.02-.11.03l-.04.07v.02l2.6 1.42c.03.03.06.05.07.1.03.07 0 .1-.07.07-1.1-.32-2.18-.7-3.23-1.13-.21-.08-.24-.04-.09.13.33.36.72.63 1.18.81.25.1.25.22 0 .33l-.66.31a.45.45 0 0 1-.32.03l-1.54-.48a.24.24 0 0 0-.24.05c-.28.23-.58.23-.91 0-.13-.09-.16-.07-.08.07.1.15.23.23.4.25.23.01.43.07.62.18.46.26 1.03.4 1.53.55.05 0 .06.04.05.08-.01.04-.03.05-.07.04-1.2-.25-2.36-.51-3.5-.79-.12-.02-.16.02-.13.14.1.32.3.42.59.3.04-.02.1-.03.14-.01.05 0 .09.04.12.07.12.16.19.34.2.53 0 .13-.05.2-.18.2a17.78 17.78 0 0 0-.8.03v.08c-.01.09.03.13.12.14.65.04 1.2.2 1.67.48 1.42.85 3.03.33 4.36 1.54.1.09.11.19.05.3l-.12.22c-.04.08-.1.1-.19.07-.58-.2-1.15-.06-1.71.43-.07.06-.07.11 0 .17l.06.05h.02c.12-.2.26-.33.45-.36a.21.21 0 0 1 .17.04.21.21 0 0 1 .07.16c0 .06.02.11.06.15.04.05.1.08.16.09a2.32 2.32 0 0 0 1.02-.12.02.02 0 0 1 .01.01l.03.08a.12.12 0 0 1-.01.1.12.12 0 0 1-.08.05.42.42 0 0 0-.29.23c-.07.14-.03.2.13.16.3-.07.58-.17.82-.31.2-.12.2-.22-.02-.3a.28.28 0 0 1-.2-.2c-.04-.2.03-.26.2-.2.77.22 1.4.61 1.89 1.16Z" fill="#F7EDD2"/><path d="M22.48 11.46c.17.29.25.52.23.71-.02.17-.08.19-.19.06a.62.62 0 0 1-.13-.26c-.03-.11-.1-.16-.23-.14-.62.13-.93.8-1.19 1.35a.28.28 0 0 0 .01.27c.11.18.18.39.21.62.03.17-.03.2-.17.1-.16-.12-.22-.29-.18-.5a.37.37 0 0 0-.12-.36c-.1-.1-.19-.2-.25-.33-.08-.15-.18-.16-.3-.03l-.7.78c-.1.12-.08.17.09.16.1 0 .17.02.24.08.12.1.1.18-.04.24l-.98.38c-.1.03-.17.1-.23.2-.18.32-.2.67-.04 1.04.05.1.14.18.25.21.4.11.8.12 1.21.03.18-.04.29-.15.31-.34.02-.1-.02-.17-.12-.21-.24-.1-.42-.26-.54-.47a.2.2 0 0 1 0-.2c.07-.13.15-.14.24-.02.2.26.48.43.83.5a.22.22 0 0 1 .1.37c-.3.32-.66.57-1.05.76-.13.06-.14.13-.02.2.11.07.27.1.49.1L19.08 18c-.18.2-.14.27.12.2.31-.07.65-.33 1.01-.77.1.12.21.13.36.04.3-.18.27-.51.72-.62.36-.1.68-.26.96-.5l.04-.01.03.01.07.05c.08.07.08.12 0 .17l-1.43.83c-.09.05-.12.13-.1.23.03.11 0 .22-.07.31-.5.61-1.07 1.08-1.7 1.42a.28.28 0 0 1-.25 0c-.13-.06-.2-.14-.2-.26-.01-.12.05-.18.17-.2.1 0 .18-.05.24-.12.1-.09.08-.17-.03-.23a.66.66 0 0 1-.3-.32c-.05-.1-.02-.17.08-.21a.3.3 0 0 0 .13-.08.12.12 0 0 0-.05-.2l-.85-.32c-.12-.05-.17-.01-.13.12.16.57.15 1.05-.02 1.44-.3.27-.5.64-.6 1.12-.34.17-.45.49-.32.95.05.11.06.25.03.41-.82.94-.2 1.7-.17 2.7 0 .1.04.19.1.27l.12.15a.28.28 0 0 1 .03.28c-.1.2-.16.42-.17.63-.01.26.05.28.18.06.31-.56.66-1.16 1.04-1.8a.25.25 0 0 1 .2-.14c.12 0 .17.05.18.15.02.18.1.3.26.38l-.22 1.1c-.2.11-.35.25-.45.41-.06.1-.08.2-.05.31.07.26.01.48-.17.66-.06.06-.06.12 0 .18l.05.06h.04c.12-.12.21-.25.28-.4.08.15.06.32-.08.51l-.25.49c-.05.09-.04.17.04.24.12.11.31.13.56.07.01.26.06.5.16.71l-.21.55-.55.66c-.07.09-.14.09-.2-.01a.7.7 0 0 1-.09-.42l.09-.93c0-.1-.04-.17-.13-.2-.4-.12-.77.1-1.14.68-.08-.44-.2-.7-.33-.8-.09-.06-.12-.04-.1.06l.37 1.8c-.44-.6-.77-1.4-.96-2.4-.18-.9-.2-1.67-.05-2.3l1.2-5.07c.1-.5.09-1.12.21-1.52.22-.7.46-1.3.72-1.84.29-.6.07-1.22.41-1.87a.3.3 0 0 0 0-.29l-.06-.09c-.08-.14-.04-.2.13-.2.2 0 .4-.04.58-.1a.24.24 0 0 0 .16-.18c.1-.34.23-.59.42-.72.79-.58 1.9-1.18 3.34-1.82Z" fill="#091536"/><path d="M25.06 13.03c.04.04.06.09.07.14.02.24-.07.3-.28.16-.54-.37-1.19-.38-1.77-.75a.44.44 0 0 1-.02-.73l.12-.08c.24-.17.48-.16.7.04.23.22.51.37.83.47.12.03.2.1.23.23.03.1.04.2.03.3 0 .09.02.16.09.22Z" fill="#F7EDD2"/><path d="M37.85 13.77v.02l-.06.06a.12.12 0 0 1-.03.02h-.02a5.4 5.4 0 0 0-1.01-.99l.05-.06c.02-.02.04-.02.07 0 .38.3.71.61 1 .95Z" fill="#16A4B9"/><path d="M37.86 13.05c.92.54 1.62 1.02 2.07 1.44 8 7.38 8.12 19.37.2 26.84-.73-.16-1.48-.24-2-.8-.94-1.03-2.16-2.2-1.34-3.7.43-.8.86-1.62 1.28-2.49.19-.36.2-.86.58-1.08a3.36 3.36 0 0 0 1.43-1.76.18.18 0 0 0-.06-.13.16.16 0 0 0-.07-.03c-.02 0-.05 0-.07.03.02-.1 0-.15-.09-.17.37-.7.6-1.43.71-2.2a.52.52 0 0 1 .15-.3c.27-.29.4-.61.4-.98.01-1.16-.2-2.29-.62-3.4-.54-1.4-.5-3.09-.53-4.56-.01-.34-.12-.38-.34-.11-.08.1-.2.14-.37.12-.12-.27 0-.6.37-1.02a.28.28 0 0 0 .06-.27c-.17-.51-.46-1-.87-1.44.13-.02.22-.06.26-.1.45.12.65 0 .6-.36a1.7 1.7 0 0 0-.34-1.46l-1.41-2.07Z" fill="#4295CD"/><path d="M21.22 14.89h.13c.16.02.19.1.09.22a.28.28 0 0 1-.34.07c-.18-.1-.35-.22-.49-.36-.13-.13-.1-.17.07-.12.1.02.18.06.27.1.08.05.17.08.27.09ZM39.02 15.25l.09.04c.22.2.23.5.03.86a.39.39 0 0 1-.6.1c-.2-.18-.36-.16-.5.05a.25.25 0 0 1-.34.09l-.85-.52.2-.08c.14-.05.15-.1.03-.19-.2-.14-.37-.3-.47-.49a.86.86 0 0 1 .13-.3c.08-.1.16-.1.26-.03.24.17.5.24.76.2.1-.02.2 0 .28.08.28.26.6.32.98.2Z" fill="#0E1C4D"/><path d="M30.6 15.59c.05.02.06.04.03.08l-.06.1c-.02.02-.05.03-.08.02-.58-.2-1.14-.44-1.67-.7-.05-.03-.06-.06-.04-.1.02-.04.05-.05.08-.03.58.23 1.16.44 1.74.63Z" fill="#16A4B9"/><path d="M36.6 15.11c.11.2.27.35.48.5.12.07.11.13-.02.18l-.21.08a.53.53 0 0 1-.35-.25.31.31 0 0 1-.02-.26c.03-.1.07-.18.13-.25Z" fill="#578B9E"/><path d="m19.66 15.83-.74-.04c-.14 0-.22-.07-.24-.2l-.04-.19c-.03-.18.04-.25.22-.22.36.06.66.2.9.44.15.15.12.22-.1.21Z" fill="#0E1C4D"/><path d="M25.4 15.77c.26.1.59.1.86.14.1.02.12.07.05.15l-.22.25c-.1.1-.19.1-.27-.02-.17-.24-.4-.4-.7-.48-.16-.04-.15-.07 0-.08.1 0 .2 0 .28.04Z" fill="#16A4B9"/><path d="M18.5 16.5c-.04-.13 0-.17.12-.13.24.08.42.21.53.4.21.36.12.47-.28.34-.1-.03-.22-.24-.36-.61Z" fill="#578B9E"/><path d="M38.75 17.04c.41.45.7.93.87 1.44a.28.28 0 0 1-.06.27c-.36.41-.5.75-.37 1.02.25 2.58.07 5.15-.56 7.7-.04.16-.01.38.09.68.04.14 0 .18-.14.13l-.17-.06a.31.31 0 0 1-.21-.25l-.18-.83c.3-.47.24-.95-.16-1.43 0-.05-.01-.1-.03-.14a.44.44 0 0 1 .06-.17.16.16 0 0 1 .1-.07.6.6 0 0 1 .63.28.07.07 0 0 0 .13-.05 6.25 6.25 0 0 0-1.3-3.5.35.35 0 0 1-.06-.27c.05-.3.16-.6.35-.89a.14.14 0 0 1 .13-.06c.05 0 .09-.01.11-.04.06-.07.06-.14 0-.21l-.21-.26c-.06-.07-.06-.15 0-.22.04-.04.07-.05.11-.05.05.01.1.03.13.07l.38.41c.12.15.16.13.12-.06-.13-.56-.22-1.12-.27-1.68-.02-.2-.19-.4-.49-.55a.22.22 0 0 1-.11-.23c.03-.2-.04-.36-.22-.48a.17.17 0 0 1-.02-.26.17.17 0 0 1 .09-.04l1.26-.2Z" fill="#F7EDD2"/><path d="M37.83 25.57c.02.04.03.1.03.14-.1.5-.06.98.16 1.43l.18.83c.02.13.1.2.21.25l.17.06c.14.05.18 0 .14-.13a1.3 1.3 0 0 1-.1-.68c.64-2.55.82-5.12.57-7.7.16.02.29-.02.37-.12.22-.27.33-.23.34.11.02 1.47-.01 3.15.53 4.57.42 1.1.63 2.23.63 3.4 0 .36-.14.68-.41.96a.52.52 0 0 0-.15.3c-.1.78-.34 1.52-.7 2.2-.1.1-.2.12-.28.1.22-.53.32-1.03.29-1.51.12-.45-.07-.9-.55-.94-.15-.02-.2.05-.18.19.07.3.02.57-.15.82a.17.17 0 0 1-.16.07.17.17 0 0 1-.14-.11c-.08-.22-.1-.45-.1-.68.01-.04-.01-.07-.05-.07-.05 0-.07.02-.07.06-.06.44 0 .85.19 1.23.1.19.05.3-.14.32a1.67 1.67 0 0 0-.32 1.8.74.74 0 0 0-.04.32c.01.12.08.17.2.16a.69.69 0 0 0 .4-.22c.42-.21.62-.58.59-1.12 0-.1 0-.16.03-.2.05-.1.11-.14.2-.12l.08.48c.03.14.08.15.18.05.07-.1.1-.24.1-.45.02-.02.05-.03.07-.03a.16.16 0 0 1 .11.09.18.18 0 0 1 .01.15c-.33.77-.8 1.33-1.42 1.68-.37.22-.4.72-.58 1.08-.42.87-.85 1.7-1.28 2.48-.82 1.5.4 2.68 1.35 3.71.51.56 1.26.64 2 .8a19.2 19.2 0 0 1-3.4 2.43c.05-1.53 0-2.95-.15-4.25-.08-.7-.18-.7-.3-.01-.34 1.91-2.4 3.44-4.03 4.56l-1.22.76-1.38-.1c-.39-.03-.8-.1-1.23-.22-.4-.12-.8-.21-1.22-.3l-1.8-1.5c.4.08.59.05.57-.1.08.18.17.3.26.35.08.04.1.02.08-.07a1.53 1.53 0 0 0-.88-1c-.16-.14-.25-.41-.27-.82-.01-.17-.05-.29-.11-.36-.1-.1-.24-.14-.42-.11l.41-.33c.1-.07.1-.15.02-.23l-.64-.69.27-.23c.05.17.2.33.44.46.1.05.16.02.16-.1 0-.2-.13-.37-.4-.51a.5.5 0 0 0 .41-.26c.84.41 1.88.47 3.11.18.34-.09.5-.3.83-.39a.1.1 0 0 0 .07-.08.1.1 0 0 0-.04-.1c-.13-.08-.23-.11-.3-.08A.42.42 0 0 1 29 38c.05-.12.14-.14.25-.08.08.05.16.1.22.18.06.07.13.08.2.03l.42-.28a.5.5 0 0 0 .2-.25c.08-.26.24-.45.48-.6.1-.06.16-.03.16.09l.02.16c0 .04-.01.08-.04.1l-.53.55c-.19.2-.16.25.1.16l.18-.06c.23-.07.27-.01.13.19-.43.58-.43.76-.02.53.96.31 1.24-.4 1.76-.97a.28.28 0 0 1 .27-.1l1.26.21c.12.02.2-.01.28-.1.38-.5.77-1.02 1.15-1.55.5-.72.74-1.59.19-2.31a.5.5 0 0 1-.1-.3l-.01-.58c-.01-.85 1.13-2.04.65-2.84-.08-.13-.18-.14-.29-.04-.12.11-.22.24-.3.4-.05.14-.1.13-.14 0l-.06-.17a.35.35 0 0 1 .04-.3c.3-.47.28-.96.57-1.45.28-.47.43-1 .45-1.55a.33.33 0 0 0-.08-.23c-.27-.3-.73-.83-.7-1.27.01-.08.03-.16.07-.24.08-.15.09-.3.03-.46l-.5-1.32c-.2-.07-.27-.2-.23-.36.02-.11.1-.16.2-.14.1.02.18-.02.23-.12a.4.4 0 0 0 .03-.27c-.08-.4-.11-.78-.11-1.14.05-.58.04-1.16-.04-1.73a4.6 4.6 0 0 1-.02-1.09c.04-.43-.15-.77-.55-1.02-.33-.2-.3-.32.08-.36.28-.03.6 0 .93.07.13.03.14.08.03.16-.14.1-.16.22-.05.36.07.1.1.22.07.35-.03.2 0 .39.1.57.06.07.09.16.1.25l.22 1.47c.01.09-.01.16-.06.23a.2.2 0 0 0-.05.09c-.04.11 0 .17.13.17.1 0 .2.01.3.06.06.03.1.08.1.15l.1.72c0 .1.06.2.13.26.37.3.56.61.57.94.06 1.07.16 1.87.3 2.4Z" fill="#0E1C4D"/><path d="M17.28 20.09c.18.32.07.64-.32.95-.13-.46-.02-.78.32-.95Z" fill="#16A4B9"/><path d="M20.2 20.84a.8.8 0 0 0-.34-.37c-.15-.1-.14-.15.04-.16l.28-.02a.2.2 0 0 1 .2.1c.11.18.24.32.4.43.1.08.12.16.05.27-.14.2-.35.28-.63.24-.2-.03-.22-.1-.06-.23.05-.03.07-.1.07-.19 0-.02 0-.05-.02-.07ZM24.14 20.97c0 .04 0 .07-.02.1-.04.12-.1.15-.21.1a.8.8 0 0 1-.37-.33c-.25-.4-.16-.5.25-.28.14.07.28.06.4-.04.1-.08.2-.1.3-.05.23.1.38.27.44.5.02.09 0 .15-.08.18-.03.02-.06.03-.1.02a.26.26 0 0 1-.14-.07l-.25-.25c-.16-.17-.23-.13-.22.12ZM28.85 20.92c0 .23.05.4.12.4.07.01.14-.17.14-.39.01-.22-.04-.4-.12-.4-.07 0-.13.17-.14.4Z" fill="#578B9E"/><path d="M27.42 22.54c-.3.44-.39 1-.3 1.68-.11.4-.7.54-1.77.43-.32-.03-.52-.14-.59-.3-.05-.12-.11-.13-.2-.05l-.08.08a.44.44 0 0 1-.26.12l-2.05.2a.35.35 0 0 0-.24.14l-.65.85c-.1 0-.2-.12-.3-.36.05-.05.04-.12-.05-.22-.06-.07-.07-.15-.02-.24.2-.36.45-.63.74-.81.64-.4 1.29-.6 1.93-.58.5.01.53-.1.1-.34-.37-.2-.84-.16-1.4.14l.05-.35c.01-.1.07-.16.17-.17a.9.9 0 0 0 .35-.08c.33-.23.88-.33 1.63-.3.06.07.16.08.31.03.1-.04.2-.04.29-.01.67.2 1.08.16 1.24-.14-.03-.26 0-.43.11-.52.12-.1.2-.07.21.09.03.18 0 .35-.06.52-.04.1 0 .18.1.22.1.04.19.02.26-.05.37-.4.5-.91.4-1.57a.11.11 0 0 1 .03-.08.1.1 0 0 1 .07-.04l.08-.02c.06 0 .1.02.1.08.07.57 0 1.12-.2 1.65Z" fill="#091536"/><path d="m34.78 21.8-.51-.15c-.5-.17-.5-.28.03-.32.15-.01.34.04.56.16.05.03.07.08.06.14l-.02.1c-.01.06-.05.09-.12.07Z" fill="#16A4B9"/><path d="m36 22.87-.1-1.3c-.02-.17.05-.21.2-.14l.1.06a.27.27 0 0 1 .14.22l.1 1.28c.01.11-.03.2-.13.27-.2.13-.4.21-.6.26-.22.04-.24 0-.08-.15l.26-.24a.3.3 0 0 0 .1-.26ZM16.99 21.45l.23 2.07c.06.52.22.55.46.08.28-.53.68-.94 1.19-1.24a.32.32 0 0 1 .4.07l.07.07c.12.13.1.23-.07.3-.11.03-.2.09-.26.17-.05.05-.07.14-.08.27 0 .32-.06.62-.17.9a.45.45 0 0 1-.26-.39c0-.1-.06-.15-.17-.15a.25.25 0 0 0-.2.14c-.39.64-.74 1.24-1.05 1.8-.13.22-.2.2-.18-.06.01-.21.07-.42.17-.63a.28.28 0 0 0-.03-.28l-.12-.16a.46.46 0 0 1-.1-.26c-.03-1-.65-1.76.17-2.7Z" fill="#578B9E"/><path d="m33.1 22.21-.29.17a.3.3 0 0 1-.28.02.63.63 0 0 1-.34-.32c-.05-.1-.12-.13-.23-.1-.64.2-1.2.59-1.92.41.17-.1.3-.25.39-.45.07-.18.16-.19.25-.04.03.05.07.08.12.09.1.02.2 0 .3-.06.56-.4 1.13-.32 1.69.2.05.05.12.08.19.08h.12Z" fill="#16A4B9"/><path d="M30.04 22.4c.73.17 1.28-.21 1.92-.42.1-.03.18 0 .23.1.07.15.18.25.34.32.1.04.19.03.28-.02l.29-.17c.16-.03.25.07.27.29l-1.01.44c-.17.08-.16.13.02.16l1.27.24c.62.26 1.1.74 1.44 1.44.1.2.04.35-.17.45a1.62 1.62 0 0 1-.43-.34c-.07-.2-.22-.34-.46-.4-.22-.2-.44-.23-.67-.09a.31.31 0 0 1-.28.03.17.17 0 0 1-.07-.05.25.25 0 0 0-.19-.1c-.82-.04-1.6.1-2.33.39-.13-.07-.1-.15.07-.23l1.34-.7c.09-.04.19-.07.29-.06.19.01.34.02.44.01.44-.03.44-.06 0-.1a3.16 3.16 0 0 0-2.23.75c-.3.11-.53.25-.7.42a.2.2 0 0 1-.34-.14v-1.16a.3.3 0 0 0-.15-.26l-.49-.36c-.1-.06-.1-.15-.04-.24.08-.13.1-.23.06-.32 0-.2.06-.34.14-.44.1-.12.18-.1.21.05.04.14.04.3.02.44a.15.15 0 0 0 .18.17c.04 0 .07-.02.1-.05.07-.07.14-.1.23-.09l.42.03Z" fill="#091536"/><path d="m24.42 22.2.06.18c-.75-.03-1.3.07-1.63.3a.9.9 0 0 1-.35.08c-.1.01-.16.07-.17.17l-.05.35c-.81.15-.87-.1-.17-.74.19-.17.6-.33 1.22-.48h.1c.04.02.07.05.09.08.02.05.07.07.12.07a.2.2 0 0 0 .16-.07c.17-.22.38-.2.62.07Z" fill="#578B9E"/><path d="M38.62 22.27a.43.43 0 0 1-.1-.17c-.04-.14-.02-.15.08-.05.15.17.22.38.21.64 0 .18-.03.19-.07.01l-.1-.39a.11.11 0 0 0-.02-.04ZM26.32 22.26c-.16.3-.57.35-1.24.14a.45.45 0 0 0-.29 0c-.15.06-.25.05-.31-.02a7.87 7.87 0 0 1-.06-.17c.77-.19 1.4-.17 1.9.05Z" fill="#16A4B9"/><path d="M28.74 22.28c.04.09.02.2-.06.32-.07.1-.05.18.04.24l.5.36c.08.06.13.15.13.26l.01 1.16a.2.2 0 0 0 .23.2.2.2 0 0 0 .1-.06c.18-.17.42-.3.71-.42 0 .08.06.1.16.1-.17.08-.2.16-.07.23l-.2.06c-.37.1-.49.34-.37.71.16.48.4.64.72.46.06-.03.11-.03.16.03l.42.49c.07.09.12.19.13.3.04.63-.11 1.18-.47 1.67-.1-.48-.33-.85-.68-1.12a.51.51 0 0 1-.19-.25l-.25-.77c-.1-.28-.23-.3-.4-.05l-.11.16c-.21-.3-.23-.81-.05-1.5.13-.52-.03-1.04-.48-1.56a.36.36 0 0 0-.25-.13c-.67-.05-1.12.3-1.34 1.05-.1-.68 0-1.24.29-1.68l.55.08c.1.01.17-.02.24-.09.13-.13.3-.22.53-.25Z" fill="#578B9E"/><path d="M33.37 22.5c.12.12.28.18.48.17.2 0 .21.05.05.15a.26.26 0 0 1-.22.04.2.2 0 0 0-.2.07.27.27 0 0 0-.08.18c0 .08.04.13.11.16.06.01.1.04.14.07l-1.27-.24c-.19-.03-.2-.08-.02-.16l1.01-.44Z" fill="#16A4B9"/><path d="m35.3 23.55.5 1.32c.07.16.06.31-.02.46a.64.64 0 0 0-.06.24c-.04.44.42.97.69 1.27.05.07.08.15.08.23a3.17 3.17 0 0 1-.45 1.55c-.29.5-.27.98-.57 1.46a.35.35 0 0 0-.04.29l.06.17c.04.13.09.14.15 0 .07-.15.17-.29.3-.4.1-.1.2-.09.28.04.48.8-.66 2-.65 2.84v.58c0 .11.04.21.1.3.56.72.33 1.6-.18 2.31-.38.53-.77 1.05-1.15 1.55a.27.27 0 0 1-.28.1l-1.26-.2a.28.28 0 0 0-.27.1c-.52.56-.8 1.27-1.76.96.67-.28 1.2-.68 1.57-1.2a.33.33 0 0 1 .24-.13c.45-.05.92-.05 1.4 0 .46.04.52-.1.2-.42a2.2 2.2 0 0 1-.44-.62c-.05-.1-.03-.18.06-.24a.61.61 0 0 0 .17-.21.12.12 0 0 0-.08-.17c-.06-.02-.1-.05-.1-.1 0-.14.05-.18.18-.1a.6.6 0 0 0 .57.05c.1-.05.16-.13.16-.24.02-.79.16-1.6-.18-2.36a5 5 0 0 1-.43-1.81c-.01-.16-.05-.3-.13-.44-.2-.35-.15-.69.16-1.04.64-.71 2.83-2.26 1.46-3.3-.18-.14-.19-.28-.03-.44.1-.1.14-.2.11-.33-.02-.11-.08-.19-.16-.23-.1-.05-.2-.04-.3.01l-.25-.1a2.17 2.17 0 0 1-.03-.07c.2-.1.27-.25.17-.45a2.77 2.77 0 0 0-1.44-1.44c.5-.21.96-.07 1.35.42a.14.14 0 0 0 .24-.04l.07-.17ZM36.56 23.3l.01-.01a.06.06 0 0 1 .04-.03h.05c.06.02.11.05.16.09.04.03.08.08.1.14.03.06.05.12.06.19 0 .06 0 .13-.02.2l-.02.09a.59.59 0 0 1-.2.33.4.4 0 0 1-.34.08h-.03a.06.06 0 0 1-.04-.08l.23-1ZM24.33 23.42c-.03 0-.04-.02-.04-.05 0-.03.02-.04.05-.04a4 4 0 0 1 1.7.3c.05.02.08.05.1.09.03.04.04.08.04.13v.08a.12.12 0 0 1-.18.1 5.06 5.06 0 0 0-1.67-.61Z" fill="#16A4B9"/><path d="M20.76 24.34c0 .06-.03.11-.08.15-.08.08-.12.06-.13-.05 0-.31.11-.6.36-.88a.1.1 0 0 1 .17.08c-.03.28-.14.51-.32.7Z" fill="#578B9E"/><path d="M30.56 24.44c-.1 0-.16-.02-.16-.1.72-.56 1.47-.8 2.23-.74.44.03.44.06 0 .09h-.44c-.1-.02-.2 0-.3.05l-1.33.7Z" fill="#F7EDD2"/><path d="M34.03 24.5c.24.05.39.18.46.39a.93.93 0 0 0-.24.47.33.33 0 0 1-.16.23c-.19.1-.36.25-.5.42-.11.13-.1.15.04.06.43-.26 1.08-.32 1.32-.76l.24.1c-.32.52-.8.82-1.43.92a.6.6 0 0 1-.3-.03.47.47 0 0 0-.34.02c-.44.18-1.06.11-1.44-.1-.55-.33-.5-.48.13-.45a6 6 0 0 0 1.76-.17c.05-.02.1-.04.13-.08a.13.13 0 0 0 .03-.1c-.02-.08-.06-.12-.14-.12l-.48-.02c-.2-.01-.2-.06-.03-.14.29-.13.53-.11.73.06.09.09.16.07.22-.03.12-.2.12-.43 0-.68ZM25.82 34.53c.79.37 1.3.72 1.5 1.05-.45.6-1.26.82-2.41.66-.45-.06-.84.07-1.17.38-.11.1-.2.22-.26.36-.16.4-.03.6.4.63.73.04 1.36.34 1.89.89.07.08.17.12.28.12.55 0 1.75.2 1.71-.77a.29.29 0 0 0-.17-.25.28.28 0 0 0-.3.05c-.1.1-.23.15-.36.17-.16.02-.18-.02-.06-.13l.1-.1c.13-.1.12-.2-.03-.28l-.13-.07c-.1-.06-.12-.14-.06-.24a.3.3 0 0 1 .27-.15c.1 0 .17.04.23.11.28.39.66.62 1.12.7.15.01.18.08.1.2a.4.4 0 0 0-.07.28.25.25 0 0 0 .17.2c.15.05.29 0 .41-.11.07-.03.17 0 .3.09a.1.1 0 0 1 .01.14.1.1 0 0 1-.04.03c-.33.09-.49.3-.83.39a4.6 4.6 0 0 1-3.1-.18c-.41-.46-.92-.72-1.53-.76-.45-.04-.74-.12-.88-.26a1 1 0 0 1-.28-.78.15.15 0 0 0-.17-.16.15.15 0 0 0-.08.04l-.15.15c-.1.1-.1.18-.01.28l1.06 1.16.01.02v.02l-.01.01-.02.01-1.2.09a.1.1 0 0 1-.1-.06 86.93 86.93 0 0 1-1.5-2.97 2.87 2.87 0 0 0-.6-.85c-.39-.37-.6-.88-.63-1.55 0-.1-.05-.16-.13-.2-.1-.05-.19-.02-.27.08a16.8 16.8 0 0 1-.26-3.89c0-.04-.04-.07-.11-.06l.2-.55h.14c.1 0 .17-.05.2-.16a.93.93 0 0 0-.01-.39c.12.43.15.81.4 1.2.25.4.45.83.59 1.29.02.06.06.08.12.08a.1.1 0 0 0 .07-.04c.03-.03.05-.08.04-.14a5.68 5.68 0 0 0-.62-2.3c-.07-.13-.15-.2-.24-.21-.11-.02-.23.02-.36.12a.18.18 0 0 1-.09-.04.28.28 0 0 1-.1-.2c-.09-.9 0-1.8.27-2.72.09-.3.16-.29.24 0 .1.44.12.88.05 1.34-.02.12 0 .24.07.35.41.71.83 1.76 1.54 2.22.75.48 2.2 2.3 1.27 3.2a.18.18 0 0 1-.22.03.19.19 0 0 1-.06-.06l-.95-1.55c-.26-.43-.4-.4-.43.1-.03.54.02 1.17.32 1.64.32.52.5 1.1.52 1.74 0 .1.04.2.1.28.07.08.1.17.12.27.01.16-.02.17-.1.04a.63.63 0 0 0-.2-.2c-.12-.07-.18-.04-.2.09-.1.69.03 1.3.38 1.83.05.08.04.15-.02.22-.1.1-.12.23-.08.36.05.13.12.15.22.06.06-.05.08-.12.06-.2a.2.2 0 0 1 .08-.22c.15-.1.26-.22.34-.38.1-.17.16-.16.18.04 0 .03 0 .06.02.1.04.08.1.11.2.08.6-.2.98-.53 1.17-1 .04-.11.12-.14.23-.08l.08.05c.04.03.05.06.03.1l-.23.46c-.07.14-.03.19.12.15l1.94-.56c.1-.03.16-.1.16-.2 0-.17-.07-.41-.2-.73Z" fill="#578B9E"/><path d="M20.83 25.26c-.02.1-.01.14.02.12-.38 0-.6-.1-.67-.28-.05-.12 0-.18.12-.17.16.01.34.12.53.33Z" fill="#0E1C4D"/><path d="M34.49 24.89c.15.16.3.28.43.34 0 .03.02.05.03.08-.24.44-.9.5-1.32.76-.14.09-.15.07-.05-.05.15-.18.32-.33.5-.43a.33.33 0 0 0 .17-.23c.04-.2.12-.36.24-.47Z" fill="#F7EDD2"/><path d="M18.53 25.23a2.48 2.48 0 0 1-.57 1.62h-.04l-.05-.06c-.06-.06-.06-.12 0-.18.18-.18.24-.4.17-.66a.38.38 0 0 1 .05-.31c.1-.16.25-.3.44-.41Z" fill="#578B9E"/><path d="M20.83 25.26c.06.06.1.09.14.07.1.24.2.36.31.36-.21.2-.48.29-.81.26-.05 0-.08-.03-.07-.08v-.08c0-.03.02-.04.04-.04.3.02.44-.1.41-.37-.03.02-.04-.02-.02-.12Z" fill="#16A4B9"/><path d="m22.88 26.54-.37-.42c.18-.14.41-.18.7-.11.11.02.22.01.32-.03.4-.15.8-.23 1.2-.24.12 0 .22-.04.3-.11.15-.14.32-.2.51-.22.31-.02.35.07.12.28-.76.69-1.68.97-2.78.85Z" fill="#0E1C4D"/><path d="M16.19 25.62c.25.18.22.26-.09.24l-.56-.03a.09.09 0 0 1-.08-.05.09.09 0 0 1 .01-.1c.2-.24.43-.26.72-.06Z" fill="#578B9E"/><path d="M37.86 25.71c.4.48.45.96.16 1.43a2.16 2.16 0 0 1-.16-1.43Z" fill="#16A4B9"/><path d="M30.88 28.4c0 .28.07.55.23.79-.07.4 0 .8.24 1.21.02.52-.07.9-.26 1.14-.27.05-.51.15-.74.3a.29.29 0 0 1-.27.04l-.33-.11-2.22-1.26a.3.3 0 0 0-.3 0l-.48.24c-.11.06-.2.04-.3-.05a2.47 2.47 0 0 1-.51-.75.09.09 0 0 0-.12.02l-1.34 1.87c.15-.84.6-1.77 1.34-2.78-.14.03-.14-.13 0-.48l.3-.73a.15.15 0 0 1 .12-.1c.06-.01.09 0 .08.02-.04.16.02.24.2.23.09 0 .17 0 .24.04-.5.47-.76.99-.78 1.57-.01.21.06.24.2.08.2-.22.38-.48.54-.76a.19.19 0 0 1 .31-.03c.25.31.47.44.69.4.84.34 1.45.18 1.84-.5.08-.16.12-.3.12-.4a6.32 6.32 0 0 0-.43-2.04l.11-.16c.17-.25.3-.23.4.05l.25.77c.04.1.1.19.19.25.35.27.58.64.68 1.12Z" fill="#091536"/><path d="M36.5 26.57a.86.86 0 0 0-.22-.3c-.15-.14-.13-.24.08-.29a.63.63 0 0 1 .27.01.22.22 0 0 1 .16.26l-.07.3c-.06.21-.13.22-.22.02Z" fill="#16A4B9"/><path d="m22.5 26.12.38.42c-.42 0-.83-.07-1.24-.24-.1-.04-.1-.1 0-.15.2-.12.5-.13.87-.03ZM26.76 28.04a.57.57 0 0 0-.25-.04c-.17 0-.23-.07-.19-.23 0-.03-.02-.03-.08-.02a.15.15 0 0 0-.12.1l-.3.73a3.42 3.42 0 0 1-.1-1.9c0-.06.05-.1.12-.09.02 0 .05.01.07.03a.1.1 0 0 1 .06.09l.06.7a.16.16 0 0 0 .06.1.17.17 0 0 0 .12.04c.1 0 .19-.05.27-.13a.18.18 0 0 1 .24 0c.2.17.22.38.04.62ZM18.16 26.96l.35.8c-.25.06-.44.04-.56-.07-.08-.07-.1-.15-.04-.24l.25-.49Z" fill="#578B9E"/><path d="M18.99 27.92c.13-.1.25-.14.36-.12.1 0 .17.08.24.21.37.72.58 1.49.62 2.3 0 .06 0 .1-.04.14a.1.1 0 0 1-.07.04c-.06 0-.1-.02-.12-.08a5.24 5.24 0 0 0-.6-1.28c-.24-.4-.27-.78-.4-1.2Z" fill="#091536"/><path d="M16.44 28.8c.2.05.36.26.46.63.03.09.08.1.14.04a.74.74 0 0 1 .58-.22.7.7 0 0 0 .09.42c.06.1.13.1.2.01l.55-.66c.07 0 .11.02.11.06a16.8 16.8 0 0 0 .26 3.9c-.39.38-.73.32-1.03-.2 0-.32-.2-.44-.6-.37l-.82-2.56-.37-1.79c-.02-.1.01-.12.1-.06.14.1.25.36.33.8Z" fill="#F7EDD2"/><path d="M17.62 29.25a.74.74 0 0 0-.58.22c-.06.06-.11.05-.14-.04-.1-.37-.26-.58-.46-.63.37-.57.75-.8 1.14-.68.1.03.14.1.13.2l-.09.93Z" fill="#578B9E"/><path d="m30.47 29.11-.14-.5c-.05-.15-.01-.17.1-.06.16.15.22.33.17.55-.04.17-.08.17-.13.01Z" fill="#16A4B9"/><path d="M29.56 28.8c-.4.68-1 .84-1.84.5l1.84-.5Z" fill="#578B9E"/><path d="M39.8 29.78c-.38.21-.66.48-.81.79a.21.21 0 0 1-.22.13l-.3-.03c.18-.02.22-.13.13-.32a2.05 2.05 0 0 1-.2-1.23c.01-.04.03-.06.07-.06.05 0 .07.03.07.07-.02.23.01.46.09.68a.17.17 0 0 0 .23.1.17.17 0 0 0 .07-.06c.16-.25.22-.52.15-.82-.02-.14.03-.2.18-.2.48.04.67.5.55.95Z" fill="#16A4B9"/><path d="M25.82 29.06a7.06 7.06 0 0 0-1.34 2.78c-.19.54-.5 1.06-.94 1.57a.34.34 0 0 1-.29.13c-.14 0-.2-.08-.13-.22a.8.8 0 0 0-.02-.72c-.05-.09-.03-.12.07-.09.25.09.45-.04.6-.38.29-.64.57-1.3.86-2 .22-.52.62-.87 1.2-1.07Z" fill="#578B9E"/><path d="M31.1 29.19c.49.48.9 1 1.23 1.55.18.3.13.46.15.78 0 .12.04.22.1.32l.83 1.3c.04.04.03.08-.03.1l-.08.04h-.02l-1.93-2.88a1.8 1.8 0 0 1-.24-1.21Z" fill="#16A4B9"/><path d="M39.81 29.78c.03.48-.07.98-.29 1.51-.09-.02-.15.01-.2.11a.43.43 0 0 0-.03.2c.03.55-.17.92-.6 1.13l-.55-.26a1.67 1.67 0 0 1 .32-1.8l.3.03c.11 0 .18-.04.23-.13.15-.31.43-.58.82-.79Z" fill="#F7EDD2"/><path d="M16.83 30.45c0-.03 0-.05.04-.06l.09-.03c.07-.02.1 0 .12.07a2.65 2.65 0 0 0 .34 1 .08.08 0 0 1-.04.09l-.07.04-.04-.01a2.82 2.82 0 0 1-.44-1.1Z" fill="#8B8B8B"/><path d="M19.8 32.77c-.15-.56-.56-.98-.57-1.56 0-.25-.04-.5-.1-.75-.05-.13 0-.17.12-.1.12.08.18.18.19.32.04.8.3 1.47.75 2 .36.43.38 1.03.47 1.56.12.67.02.7-.3.1-.24-.47-.43-1-.57-1.57ZM39.8 31.2c.07.02.1.07.08.17 0 .2-.03.35-.1.45-.1.1-.15.09-.18-.05l-.08-.48c.08.02.17 0 .27-.1Z" fill="#F7EDD2"/><path d="M31.1 31.54c-.02.29-.2.44-.53.47-.44.03-.71-.05-.82-.24l.33.11c.1.03.19.02.27-.04.23-.15.47-.25.74-.3Z" fill="#16A4B9"/><path d="M17.2 32.4c.4-.06.6.06.6.39a.93.93 0 0 0-.32.05l-.28-.43Z" fill="#578B9E"/><path d="m38.14 32.47.55.26a.69.69 0 0 1-.39.22c-.12.01-.19-.04-.2-.16a.75.75 0 0 1 .04-.32Z" fill="#16A4B9"/><path d="m36.52 33.1.06-.43c.02-.17.05-.17.1 0 .02.03.02.06.03.1.01.05 0 .1-.01.15-.2.45-.22.83-.06 1.13.09.16.05.28-.11.35l-.07.03c-.16.08-.3.04-.38-.11-.16-.26-.2-.58-.1-.96.03-.1.1-.15.2-.13l.12.03c.12.03.2-.02.22-.15Z" fill="#578B9E"/><path d="M33.16 34.2c-.5-.07-.92-.31-1.24-.74a.32.32 0 0 0-.25-.13l-.64-.04c.09-.11.1-.28.06-.49-.02-.1.03-.17.13-.19.1-.02.2 0 .29.08.53.48 1.07.83 1.63 1.05.07.03.12.09.15.17.02.1-.02.2-.13.28Z" fill="#16A4B9"/><path d="M17.8 32.79c.3.51.64.57 1.03.18.08-.1.17-.13.27-.08.08.04.13.1.13.2.03.67.24 1.18.63 1.55.23.22.43.5.6.85.49 1.02 1 2 1.5 2.97a.1.1 0 0 0 .1.06l1.2-.09a.04.04 0 0 0 .03-.02v-.04l-1.07-1.16c-.09-.1-.08-.19 0-.28l.16-.15a.15.15 0 0 1 .25.12 1 1 0 0 0 .28.78c.14.14.43.22.88.26.6.04 1.12.3 1.52.76a.5.5 0 0 1-.4.26l-.2.15-.28.23-.4.58c-.05.1-.05.18.01.26.17.22.37.36.6.4.18-.02.32.02.42.12.06.07.1.2.1.36.03.4.12.68.28.83l.54.71c.02.15-.17.18-.58.1-.25-.26-.51-.5-.8-.72-.02-.02-.05-.02-.08.01l-.05.06v.04c.83.7 1.65 1.44 2.49 2.21a.2.2 0 0 0 .11.06.2.2 0 0 0 .12-.03c.04-.02.04-.06.02-.13.41.09.82.18 1.22.3.43.12.84.19 1.23.22l1.38.1-.79.56c-.84.33-1.59.3-2.24-.11-.59-.34-1.13-.71-1.62-1.11a13.2 13.2 0 0 0-1.6-1.11 11.07 11.07 0 0 1-3.81-3.62 9.33 9.33 0 0 0-1.15-3.17c-.04-.08-.1-.09-.17-.03l-.14.1a5.38 5.38 0 0 1-2.04-3.49.94.94 0 0 1 .32-.05ZM31.03 33.29l.64.04c.1 0 .19.05.25.13.32.43.74.67 1.24.73 0 .1-.01.19-.05.26a.2.2 0 0 1-.27.08c-.7-.4-1.42-.7-2.17-.87a7.25 7.25 0 0 0-2.28-.1c-.91.1-1.8.26-2.64.5-.53.16-1.06.43-1.57.81a.2.2 0 0 1-.27-.03.2.2 0 0 1-.04-.09l-.03-.16 1.2-.87c.01-.1.05-.18.1-.24.1-.1.17-.08.22.04l.05.1c.04.1.12.14.22.1l1.5-.48c.37.15.62.07.75-.24.12-.09.32-.04.6.16.12.08.23.07.33-.03.15-.14.32-.25.51-.33.1-.05.2-.05.32-.01l1.39.5Z" fill="#091536"/><path d="M27.88 33c-.13.3-.38.38-.75.24.16-.23.41-.3.75-.24ZM25.04 33.72l-1.2.87c-.1-.66.69-.9 1.2-.87Z" fill="#16A4B9"/><path d="m31.43 34.46-1.93.83c-.97-.22-1.7-.13-2.18.3a3.74 3.74 0 0 0-1.5-1.06c1.64-.01 3.16-.13 4.54-.35.22-.03.4-.04.57-.01.37.05.54.14.5.29Z" fill="#091536"/><path d="M31.43 34.46c-.03.49.21.77.75.84.58.08.58.21.96.52.16.12.14.18-.06.18l-1.12-.05c-.46-.63-.99-.7-1.58-.21-.25.04-.54-.11-.88-.45l1.93-.83Z" fill="#578B9E"/><path d="M31.96 35.95c-.63.1-1.15.03-1.58-.21.6-.5 1.12-.42 1.58.21Z" fill="#0E1C4D"/><path d="M34.36 38.07c.67-.6.8-1.45 1.5-1.95.2-.14.26-.1.2.13-.25.85-.56 1.9-1.59 2.05-.3.05-.33-.03-.1-.23Z" fill="#16A4B9"/><path d="m20.98 39.43-.65-1c.16-.5.08-.72-.25-.63a3.32 3.32 0 0 0-.56-1.47l.14-.1c.07-.06.13-.05.17.03.55.91.93 1.97 1.15 3.17Z" fill="#578B9E"/><path d="M29.84 36.47a2.42 2.42 0 0 1 .43-.27.16.16 0 0 1 .12.04l.04.05c.03.06.04.11.03.17-.03.14-.12.2-.26.2h-.3c-.2 0-.22-.06-.06-.19Z" fill="#0E1C4D"/><path d="M28.62 36.88c-.07-.08-.06-.13.04-.15.1-.02.2-.03.3 0 .13.02.17.1.13.22a.33.33 0 0 1-.06.1c-.08.1-.17.1-.25 0l-.16-.17Z" fill="#8B8B8B"/><path d="M30.24 37.2c-.17.35-.41.48-.75.39a.1.1 0 0 1-.07-.13.1.1 0 0 1 .03-.05c.2-.18.42-.3.67-.35.14-.03.18.02.12.14ZM20.33 38.43c-.4 1.9-.4 3.85-.03 5.84a17.22 17.22 0 0 1-4.58-3.08 6.15 6.15 0 0 0 3.78-2.14c.24-.28.43-.7.58-1.25.33-.09.41.12.25.63Z" fill="#091536"/><path d="m20.33 38.43.65 1c.93 1.46 2.2 2.67 3.81 3.62.54.32 1.07.69 1.6 1.1.5.4 1.03.78 1.62 1.12-.2.2-.47.37-.84.53-.08.12-.2.18-.36.17-2.4-.15-4.57-.72-6.5-1.7-.39-1.99-.38-3.93.02-5.84Z" fill="#C3BBA5"/><path d="M24.9 38.96c.27.14.4.31.4.51 0 .12-.05.15-.16.1-.25-.13-.4-.29-.44-.46l.2-.15ZM24.43 39.34l.64.7c.08.07.07.15-.02.22l-.4.33a.98.98 0 0 1-.6-.4c-.07-.1-.07-.18-.01-.27l.4-.58Z" fill="#16A4B9"/><path d="m22.82 39.98.43.21c.13.06.13.1-.02.11-.24.02-.4-.06-.5-.25-.04-.1-.01-.12.09-.07Z" fill="#578B9E"/><path d="M25.44 41.89c.46.21.76.54.88.99.03.1 0 .11-.08.07-.1-.06-.18-.17-.26-.35l-.54-.71Z" fill="#16A4B9"/><path d="m25.4 42.7 1.8 1.5c.03.07.03.11 0 .13a.2.2 0 0 1-.13.03.2.2 0 0 1-.11-.06c-.84-.77-1.66-1.5-2.49-2.2v-.05l.05-.06c.03-.03.06-.03.09 0 .28.21.54.45.8.7Z" fill="#578B9E"/><path d="M36.75 43.76a16.86 16.86 0 0 1-6.25 2.05c-.24-.18-.32-.33-.25-.43l.79-.56 1.22-.76c.48 0 .96-.21 1.42-.66a.7.7 0 0 1 .53-.2c.85.04 1.7.23 2.54.56Z" fill="#C3BBA5"/><path d="M28 45.27c.66.4 1.4.44 2.25.11-.07.1.01.25.25.43l-3.16.19c-.07 0-.12-.03-.14-.1l-.03-.1c.37-.16.65-.33.84-.53Z" fill="#F73737"/></svg>