<svg width="224" height="224" viewBox="0 0 56 56" xmlns="http://www.w3.org/2000/svg"><path d="m31.36 12.47-.07.55-2.43-.31a.27.27 0 0 0-.18.04.13.13 0 0 1-.11.02 1.44 1.44 0 0 0-.83.01 2.32 2.32 0 0 0-.7-.1l-2.03.24c-.06 0-.15.03-.27.07-.11.04-.2.07-.26.07a4.1 4.1 0 0 0-1.12.3c-.04 0-.05 0-.02-.03l.5-.66c.83-.23 1.48-.37 1.96-.4.67-.07 1.4-.15 2.2-.27.11-.01.3.01.55.07l.54.09c.75.07 1.5.17 2.27.31Z" fill="#857A82"/><path d="m35.68 14.07-.42.39c-1.27-.62-2.6-1.1-3.97-1.44l.07-.55 1.85.54a12.19 12.19 0 0 1 2.47 1.06Z" fill="#C3C8CE"/><path d="m23.85 12.67-.51.66a23.22 23.22 0 0 1 .75-.2l.39-.07c.06 0 .15-.03.26-.07l.27-.07 2.03-.24c.14-.01.37.02.7.1.42.15.69.22.81.2l.41-.08c.05 0 .1 0 .14.03.12.06.21.1.3.1l-.04.94c0 .08.04.12.12.14l1.07.17c.13.03.22-.03.26-.16l.15-.54c.07-.24.16-.25.28-.04v.18c-.05.36-.07.57-.07.64 0 .05.02.08.08.1l1.06.17c.05 0 .08 0 .12-.03.14-.13.25-.29.33-.47.05.31-.06.62-.3.9a7.14 7.14 0 0 0-1.35-.37c-.2-.03-.44-.09-.74-.17-.28-.07-.54-.1-.78-.09-.3.02-.59 0-.87-.02a5.09 5.09 0 0 0-.85-.04c-.92.05-1.5.09-1.75.12-.98.15-2.04.43-3.19.84-.44 0-.85.1-1.22.28-.09.05-.15.03-.18-.06l-.37-.87c-.06-.13-.15-.17-.28-.11l-.6.25c-.14.12-.3.2-.47.25-.05.02-.06 0-.02-.03.16-.17.4-.39.74-.68.17-.14.3-.33.41-.58.92-.46 1.9-.82 2.9-1.08Z" fill="#4F4954"/><path d="M31.29 13.02c1.37.34 2.7.82 3.97 1.44a31.7 31.7 0 0 1 2.67 1.9c.14.12.28.27.42.47.03.05.15.14.34.25.17.1.31.23.43.4.01.02.01.04 0 .07l-.03.03c-.04.05-.09.05-.13 0-.24-.23-.43-.39-.58-.47-.17-.1-.3-.24-.42-.41a2.38 2.38 0 0 0-.63-.6c-.26-.18-.49-.19-.7-.03a.74.74 0 0 0-.13.17c-.16.24-.24.26-.22.06.13-.24.3-.37.5-.42.03 0 .04-.02.05-.04 0-.03 0-.05-.03-.06l-2.04-1.2-1.45-.6c-.07-.08-.12-.1-.18-.1-.68-.18-1.35-.38-2-.61a.6.6 0 0 0-.23-.02c-.1 0-.19 0-.26-.02a5.33 5.33 0 0 0-1.25-.2.71.71 0 0 1-.3-.1c-.04-.03-.08-.03-.13-.03l-.4.08a2.1 2.1 0 0 1-.82-.2c.3-.08.57-.09.83-.01.03 0 .07 0 .1-.02a.27.27 0 0 1 .19-.05l2.43.32Z" fill="#0D161C"/><path d="M33.13 13.88a.66.66 0 0 0-.37.25c-.08.18-.2.34-.33.47a.13.13 0 0 1-.11.03l-1.07-.18c-.05 0-.08-.04-.08-.1a7.51 7.51 0 0 1 .07-.8c-.12-.22-.21-.2-.28.03l-.15.54c-.04.13-.13.19-.26.16l-1.07-.17c-.08-.02-.12-.06-.12-.14l.03-.94c.47.02.88.09 1.25.2a.7.7 0 0 0 .26.02c.1 0 .17 0 .23.02.65.23 1.32.43 2 .62Z" fill="#7E868B"/><path d="M23.05 13.73a.07.07 0 0 0-.05.1l.28.76c.02.04.06.06.1.05a.07.07 0 0 0 .05-.1l-.29-.77a.07.07 0 0 0-.1-.04Z" fill="#857A82"/><path d="M20.94 13.75a1.6 1.6 0 0 1-.4.58c-.34.29-.59.51-.75.68-.04.04-.03.05.02.03.17-.05.33-.13.48-.25-.2.19-.38.3-.57.35-.11.02-.18.09-.22.2-.04.1-.02.2.05.29l.63.78c.03.04.02.08-.02.1l-.08.05c-.06.04-.1.03-.13-.03l-.53-.9c-.08-.15-.18-.17-.31-.07l-1.25 1a.15.15 0 0 0-.06.13c0 .06.05.1.14.11a.1.1 0 0 1 .06.04l.54.54c.05.05.05.1 0 .14l-.05.03c-.06.05-.11.05-.16-.01l-.43-.55a.32.32 0 0 0-.24-.12c-.1 0-.18.02-.25.09a.27.27 0 0 1-.14.07.13.13 0 0 0-.1.08c-.1.21-.25.39-.44.52-.18.14-.27.28-.26.43.01.05.03.1.07.13l.75.64a.1.1 0 0 1 .04.1l-.01.07c0 .04-.03.07-.06.08a.09.09 0 0 1-.1-.02l-.82-.7c-.08-.07-.15-.06-.21.03l-.88 1.18c-.06.1-.05.17.04.24l.94.68c.02.02.02.04 0 .07l-.02.03c-.04.05-.09.06-.14.02l-.95-.7c-.05-.03-.1-.02-.14.03-.07.1-.12.2-.16.33-.05.22-.21.48-.46.78-.02-.04-.04-.06-.07-.04a.21.21 0 0 0-.13.13c-.05.18-.15.42-.31.74l-.26.57a15.7 15.7 0 0 0-.95 7.55c.07.5.2 1.08.38 1.73l.57 1.51c.04.12.12.16.24.14l.57-.1c.05 0 .08-.03.08-.08.03-.26-.02-.56-.14-.9-.03-.1 0-.17.1-.23.05-.04.1-.03.11.04.01.05.04.08.1.1.04 0 .06-.02.06-.07l-.04-.9.12.42c.07.3.02.56-.16.76-.02.03-.03.07-.02.13l.14.69.02.04c.1.12.15.25.15.37s.04.28.12.49l.07.21.07.12c.1.11.18.24.22.37.01.05 0 .1-.04.13-.26.23-.56.38-.9.46a.05.05 0 0 0-.05.04c0 .02 0 .04.02.05l.05.03c.01.02.03.02.05.02.2-.05.38-.12.55-.23.2-.12.38-.17.55-.17.23 0 .47.06.7.16.61.98 1.34 1.87 2.2 2.68a1.5 1.5 0 0 1-.6-.19c0-.02-.02-.03-.05-.02a31.3 31.3 0 0 0-.67.65c-.1.05-.16.11-.15.2 0 .05.03.08.09.1.04 0 .1 0 .14-.03.04-.01.07 0 .1.04.14.3.35.6.64.85.32.3.67.58 1.05.84l1.7 1.04 1.01.48.84.32 1.05.33c.03 0 .06.02.08.04.06.05.12.08.2.09l.19.02c.86.22 1.8.35 2.8.4.44.03.87.07 1.28.12.16.03.22.08.18.15h-1.7c-.4 0-1.21-.12-2.42-.34a1.7 1.7 0 0 1-.43-.14c-.14-.07-.3-.12-.45-.15-.21-.04-.43-.1-.66-.2-.56-.23-.99-.41-1.27-.54-.44-.19-.85-.4-1.24-.64a27.64 27.64 0 0 1-2.74-1.94.37.37 0 0 0-.14-.12c-.07-.04-.1-.02-.08.06l.02.12c0 .04-.01.07-.05.08-.06.03-.14.03-.24-.01a15.97 15.97 0 0 1-2.23-20.55 15.77 15.77 0 0 1 6.16-5.32Z" fill="#263646"/><path d="M33.3 13.97c-.06-.02-.1 0-.13.04-.02.03-.03.07-.02.12 0 .13-.03.25-.1.36-.03.03-.06.16-.09.39 0 .05.01.08.06.1.15.07.43.21.84.44.08.04.16.03.25-.04a.23.23 0 0 1 .08-.06l.37-.1c.01 0 .03-.02.05-.06.05-.13.12-.24.22-.33.05-.03.1-.03.14-.02.06.01.07.05.05.1l-.31.68c-.06.12-.03.2.08.28l1.06.65c.2.1.33.04.43-.22-.02.2.06.18.22-.06.05-.08.1-.14.14-.17.2-.16.43-.15.7.04.3.22.51.41.62.59.11.17.25.3.42.4.15.1.34.25.58.48.04.05.09.05.13 0l.02-.03c.02-.03.02-.05 0-.07-.1-.17-.25-.3-.42-.4-.2-.11-.3-.2-.34-.25-.14-.2-.28-.35-.42-.46a31.7 31.7 0 0 0-2.67-1.91l.42-.39a15.75 15.75 0 0 1 7.9 10.37c.58 2.38.56 4.83-.05 7.37-.11.07-.21.1-.3.1-.06 0-.08-.04-.07-.09.04-.6.1-1.11.18-1.54.02-.15.04-.4.05-.77.01-.27.05-.53.12-.77l-.02-.1c-.01-.07-.06-.1-.13-.08-.04.01-.06.04-.06.08a13.78 13.78 0 0 1-.46 3.18c0 .07 0 .13-.02.2-.02.05-.1.1-.2.14-.75.27-1.22.2-1.41-.24a15.5 15.5 0 0 0 .33-6.37 6.56 6.56 0 0 1-.13-.58l-.13-.6c-.57-1.99-1.5-3.74-2.8-5.24a14.07 14.07 0 0 0-6.03-4.1c.25-.28.36-.59.31-.9.08-.11.2-.2.37-.25.06 0 .12.02.18.1Z" fill="#1F394C"/><path d="m33.3 13.97 1.46.61.07.25c-.1.09-.17.2-.22.33-.02.04-.04.06-.05.06l-.37.1a.23.23 0 0 0-.08.06c-.09.07-.17.08-.25.04-.4-.23-.69-.37-.84-.44-.05-.02-.07-.05-.06-.1.03-.23.06-.36.08-.4.08-.1.11-.22.1-.35 0-.05.01-.1.03-.12.03-.04.07-.05.14-.04Z" fill="#7E868B"/><path d="m32.45 15.03.58.23.44.17c1.96.87 3.63 2.1 5 3.7A13.67 13.67 0 0 1 41.64 26c.24 2 .1 3.97-.42 5.91-.05.03-.06.04-.02.04l-.16.18a.2.2 0 0 0-.06.13c0 .08-.03.14-.1.18a.25.25 0 0 0-.08.12c-.13.41-.28.7-.45.86-.18.18-.3.36-.37.52a4.74 4.74 0 0 1-.57.95l-.04-.03c-.05-.05-.06-.1-.02-.16.41-.73.78-1.48 1.08-2.27a.74.74 0 0 1 .24-.27c.06-.05.1-.13.13-.24.32-1.14.49-2.14.5-3l.02-1.02c.03-.4.02-.74-.01-1.02l-.2-1.6a6.58 6.58 0 0 0-.31-1.2l-.39-1.12a.38.38 0 0 0-.25-.24c-.2-.07-.31-.02-.33.15 0 .06.02.1.07.1.05.02.1.04.13.07l.1.1c.3.6.52 1.23.63 1.9.01.06 0 .09-.06.09h-.07c-.07 0-.11-.03-.13-.1a9.1 9.1 0 0 0-.87-2.21c-.05-.08-.11-.11-.2-.08-.02 0-.04.02-.06.05a.13.13 0 0 0 0 .14 6.56 6.56 0 0 1 .72 2.05c0 .06-.03.08-.09.06a.6.6 0 0 1-.16-.1c-.15-.52-.32-1.04-.51-1.57a6.36 6.36 0 0 0-.6-1.14l-1.1-1.6c-.28-.41-.6-.78-.94-1.12l-1.06-1c.69.23 1.3.64 1.86 1.22.16.17.29.35.39.54.12.25.23.43.34.55.09.1.24.34.46.73l.17.51c.1.32.35.48.76.49a.2.2 0 0 0 .18-.1c.14-.24.14-.47 0-.67a3.7 3.7 0 0 0-.58-.6c-.18-.17-.3-.39-.36-.65a1.44 1.44 0 0 0-.25-.58 5.12 5.12 0 0 0-.73-.8c-.1-.08-.17-.15-.21-.21a.84.84 0 0 0-.19-.2.88.88 0 0 1-.27-.3c-.1-.17-.22-.31-.36-.42-.15-.12-.35-.3-.62-.57a.3.3 0 0 0-.12-.07 6.77 6.77 0 0 1-1.52-.63 9.75 9.75 0 0 0-1.77-.96 4.4 4.4 0 0 1-.74-.38 3.28 3.28 0 0 0-.79-.36c-.36-.1-.65.05-.89.46l-.13-.53a.1.1 0 0 0-.09-.09c-.85-.18-1.71-.25-2.6-.23a.09.09 0 0 0-.08.05.1.1 0 0 0 0 .1l.33.52a.26.26 0 0 1-.24-.04.17.17 0 0 1-.07-.11c-.07-.35-.45-.46-1.13-.31-.37.08-.64.13-.8.14a4.3 4.3 0 0 0-1.34.26l-1.2.63a.2.2 0 0 1 .05-.12c.03-.04.02-.06-.03-.07a.4.4 0 0 0-.18.03c-1.07.4-2.02.92-2.86 1.56a.32.32 0 0 0-.13.27v.07c0 .03 0 .05.03.07H20l.46-.3.44-.33c.27-.2.57-.37.9-.5-.02.07 0 .12.06.15-.29.2-.58.39-.88.57-.49.29-.58.44-.26.45-.01.06-.09.1-.22.11a.52.52 0 0 0-.23.07c-.24.15-.43.27-.55.38-.5.42-1 .9-1.51 1.43-.39.4-.63.87-.72 1.43l-.81-.25c.13-.23.15-.44.05-.63.23-.4.5-.76.8-1.11 1.49-1.71 3.3-3 5.41-3.89 1.15-.41 2.21-.7 3.2-.84.24-.03.82-.07 1.74-.12.24-.02.52 0 .85.04.28.03.57.04.87.02.24 0 .5.02.78.1.3.07.54.13.74.16.47.08.91.2 1.34.37Z" fill="#93AAB1"/><path d="M22.93 15.3a14.37 14.37 0 0 0-5.4 3.89c-.31.35-.58.72-.81 1.1a15.55 15.55 0 0 0-2.1 4.76 3.58 3.58 0 0 0-.31 1.87c.02.44.02.75.02.94a12.6 12.6 0 0 0 .34 3.38l.04.9c0 .05-.02.07-.07.06a.11.11 0 0 1-.1-.09c0-.07-.05-.08-.1-.04-.1.06-.13.13-.1.22.12.35.17.65.14.9 0 .06-.03.09-.08.1l-.57.1c-.12.01-.2-.03-.24-.15l-.57-1.5 1.42-.33v-.04c-.1-.06-.17-.08-.23-.06l-.9.2c-.19.05-.3-.01-.35-.2a11.5 11.5 0 0 1-.28-2.83 3.23 3.23 0 0 1-.02-.63c.05-.99.2-2 .44-3.05.34-1.46.6-2.37.77-2.74.21-.42.33-.7.36-.84.01-.04.05-.1.13-.17.25-.3.4-.56.46-.78.04-.12.09-.23.16-.33.04-.05.09-.06.14-.02l.95.7c.05.03.1.02.14-.03l.02-.03c.02-.03.02-.05 0-.07l-.94-.68c-.1-.07-.1-.15-.04-.24l.87-1.18c.07-.1.14-.1.22-.03l.83.7c.02.02.05.03.09.02a.09.09 0 0 0 .06-.08l.01-.06a.1.1 0 0 0-.04-.1l-.75-.65a.2.2 0 0 1-.07-.13c-.01-.15.08-.3.26-.43.2-.13.34-.3.44-.52a.13.13 0 0 1 .1-.08c.05 0 .1-.03.14-.07.07-.07.15-.1.25-.09.1 0 .18.05.24.12l.43.55c.05.06.1.06.16.01l.04-.03c.06-.04.06-.09.01-.14l-.54-.54a.11.11 0 0 0-.06-.04c-.1-.01-.14-.05-.14-.11s.01-.1.06-.14l1.25-.99c.12-.1.23-.08.3.06l.54.91c.03.06.07.07.13.03l.08-.04c.04-.03.05-.07.02-.1l-.63-.8a.29.29 0 0 1-.05-.29c.04-.1.11-.17.22-.2.19-.04.37-.15.57-.34l.59-.25c.13-.06.22-.02.28.11l.37.87c.03.09.1.1.18.06.37-.19.78-.28 1.22-.28Z" fill="#192B3A"/><path d="M36.27 16.3c-.09.26-.23.33-.42.22l-1.06-.65c-.11-.07-.14-.16-.08-.28l.3-.68c.03-.05.02-.09-.04-.1-.04-.01-.09 0-.14.02l-.07-.25 2.04 1.2c.02.01.03.03.02.06 0 .02-.01.04-.04.04-.2.05-.37.18-.5.42ZM30.39 15.52l-.86-.11c-.36-.11-.76-.11-1.2 0l-.52-.07-.33-.53a.1.1 0 0 1 0-.1.09.09 0 0 1 .08-.04c.89-.02 1.76.05 2.6.23a.1.1 0 0 1 .1.09l.13.53Z" fill="#5B696C"/><path d="m27.81 15.34.51.07c-.2.1-.43.14-.7.13-.04 0-.09.02-.12.06l-.22.26a.23.23 0 0 1-.13.07c-.13.03-.52.07-1.17.12-.29.02-.63.12-1.02.3a6.51 6.51 0 0 1-1.65.58l-.27.1c-.1.06-.19.1-.25.11-.07.02-.2.08-.39.19-.65.38-1.29.79-1.93 1.23-.31.05-.53.19-.64.42a.26.26 0 0 1-.1.1.85.85 0 0 0-.16.12c-.46.45-.89.98-1.3 1.58-.36.53-.72 1.05-1.09 1.56-.1.12-.2.2-.3.2-.1-.02-.14-.08-.1-.16.13-.37.37-.77.7-1.2.1-.56.33-1.03.72-1.43.51-.53 1.02-1 1.5-1.43.14-.1.32-.23.56-.38a.52.52 0 0 1 .23-.07c.13-.01.2-.05.22-.1a20.39 20.39 0 0 1 2.42-1.39c.06-.12.02-.16-.11-.13l-.11.02a.66.66 0 0 0-.27.09c-.24.16-.51.29-.8.38-.05-.03-.07-.08-.06-.15l1.25-.68 1.2-.63c.23-.11.67-.2 1.33-.26.17-.01.44-.06.81-.14.68-.15 1.06-.04 1.13.3 0 .06.03.1.07.12.07.05.15.07.24.04ZM35.62 18.51l-.81-.55c-.36-.31-.67-.6-.93-.89a.3.3 0 0 0-.11-.08 1.07 1.07 0 0 0-.34-.1c-.4 0-.75-.11-1.04-.32a.26.26 0 0 0-.14-.04 4.75 4.75 0 0 1-1.72-.42.16.16 0 0 1-.1-.1c-.07-.28-.28-.4-.62-.36-.19.02-.38.06-.56.1-.1.03-.18 0-.25-.05l-.14-.12c-.08-.07-.07-.11.03-.14.13-.05.35-.06.64-.03l.86.11c.23-.41.53-.57.88-.46.28.08.54.2.8.36.29.18.54.31.73.38.46.17 1.05.5 1.77.96.29.2.8.4 1.52.63a.3.3 0 0 1 .12.07c.27.26.47.45.62.57.14.1.26.25.36.43.06.1.16.2.27.28.05.03.11.1.19.2.04.07.11.14.21.22.21.18.46.44.73.8.11.14.2.34.25.58.05.26.18.48.36.64.27.23.46.44.58.6.14.21.14.44 0 .68a.2.2 0 0 1-.18.1c-.41 0-.66-.17-.76-.49l-.17-.51a5.27 5.27 0 0 0-.46-.73c-.1-.12-.22-.3-.34-.55-.1-.2-.23-.37-.38-.54-.56-.58-1.18-.99-1.87-1.23Z" fill="#E8FEFE"/><path d="M29.53 15.4a1.8 1.8 0 0 0-.64.04c-.1.03-.1.07-.03.14l.14.12c.07.06.16.08.25.06.18-.05.37-.09.56-.1.34-.05.55.07.63.34.01.05.04.09.09.11.55.25 1.13.39 1.72.42.05 0 .1.01.14.04.3.21.64.32 1.04.33.08 0 .2.03.33.1a.3.3 0 0 1 .12.07c.26.28.57.58.93.89-.47-.18-.92-.4-1.33-.64a1.1 1.1 0 0 0-.43-.17l-.45-.08a.21.21 0 0 1-.12-.07.28.28 0 0 0-.19-.1 2.02 2.02 0 0 1-.24-.04l-.12-.04a1.93 1.93 0 0 0-.28-.1 7.22 7.22 0 0 1-1.16-.3c-.32-.2-.73-.33-1.24-.38a9.06 9.06 0 0 0-2.2.03c-.56.05-1.1.16-1.63.33a.77.77 0 0 0-.26.17c-.1.09-.2.15-.28.18-.69.22-1.32.37-1.91.45a.17.17 0 0 0-.12.08c-.11.16-.25.29-.4.39a7.2 7.2 0 0 0-.59.4.2.2 0 0 1-.12.04c-.19 0-.37.1-.55.3l-.17.16a.16.16 0 0 1-.13.04l-.42-.05c.64-.44 1.28-.85 1.93-1.23.19-.1.32-.17.39-.19.06-.01.15-.05.25-.1.11-.06.2-.1.27-.11l.84-.24c.18-.06.45-.17.81-.33.4-.19.73-.3 1.02-.31.65-.05 1.04-.1 1.17-.12.05-.01.1-.04.13-.07l.22-.26a.16.16 0 0 1 .13-.05c.26 0 .49-.04.7-.14.44-.11.84-.11 1.2 0Z" fill="#70979D"/><path d="m23.03 15.91-1.25.68c-.32.13-.62.3-.89.5a6.15 6.15 0 0 1-.98.63.06.06 0 0 1-.04-.07v-.07c0-.11.05-.2.14-.27.84-.64 1.8-1.16 2.86-1.56a.39.39 0 0 1 .18-.03c.05 0 .06.03.03.07a.2.2 0 0 0-.05.12Z" fill="#5B696C"/><path d="m34.8 17.96.82.55 1.06 1.01c.34.34.66.7.94 1.12a85.63 85.63 0 0 1 1.16 1.7c.26.44.44.78.54 1.04.19.53.36 1.05.5 1.56l.38 2.35-.05 1.54-.3 1.94-.32 1.6a11.03 11.03 0 0 1-2.35 3.91c-.45.46-1.09 1-1.93 1.63l-1.49.95c-.33.2-.7.26-1.1.18a.07.07 0 0 1-.05-.05c0-.04 0-.06.03-.08l.44-.26 1.12-.61c.45-.28.75-.45.87-.54.15-.1.32-.27.5-.5a11.61 11.61 0 0 0 3.98-6.46c.15-.67.23-1.38.22-2.13 0-.72-.05-1.43-.13-2.15a6.85 6.85 0 0 0-.5-2.18c-.27-.57-.7-1.25-1.28-2.05l-.71-1.08a5.47 5.47 0 0 0-.95-1.1c-.13-.2-.27-.35-.42-.47a6.87 6.87 0 0 0-1.26-.76 9.6 9.6 0 0 0-4.9-2c-.92-.1-2-.04-3.24.16a.66.66 0 0 1-.33-.09c-.05-.03-.05-.06-.01-.1.1-.08.19-.18.26-.3a.16.16 0 0 1 .1-.07l.65-.15c.6-.1 1.34-.1 2.2-.03.5.05.92.17 1.24.38.08.05.47.15 1.16.3a1.93 1.93 0 0 1 .4.14l.24.04c.08 0 .14.04.2.1.03.04.07.06.11.07l.45.08c.11 0 .26.06.43.17.41.24.86.46 1.33.64Z" fill="#0D161C"/><path d="m27.05 16.07-.65.15a.16.16 0 0 0-.1.08c-.07.11-.16.21-.26.3-.04.03-.04.06 0 .1.1.05.22.08.34.08-.68.15-1.34.36-1.98.63l-.4.14a.84.84 0 0 0-.42.27c-.07.09-.05.11.06.08l.41-.18c.25-.11.44-.19.57-.22.68-.2 1.41-.33 2.18-.4.3.28.48.77.53 1.48a9.86 9.86 0 0 0-8.96 9.45 9.7 9.7 0 0 0 3.79 8.19l1.18.4.52.4c.1.2.3.32.6.37.7.02 1.34-.2 1.88-.63l.3-.2c.6-.5 1.16-.9 1.67-1.17a5.46 5.46 0 0 1 3.86-.54c.14.03.2.09.18.16a5.26 5.26 0 0 0-2.34-.1c-1.22.2-2.26.78-3.13 1.72l-1.14.63c-.4.23-.91.38-1.55.46-.43-.25-.7-.22-.8.09l.18.2c-.94-.46-1.73-.92-2.35-1.4-.25-.18-.68-.55-1.3-1.1a5.06 5.06 0 0 1-.32-.4.57.57 0 0 0-.5-.25 15.07 15.07 0 0 1-2.04-4.3 5.48 5.48 0 0 1-.15-1.16v-.07l-.09-.93a6.7 6.7 0 0 1 .01-1.34c.07-.63.2-1.37.38-2.23.01-.06-.01-.1-.07-.12l-.04-.01c-.04-.01-.07 0-.08.04-.2.56-.35 1.2-.45 1.89a25 25 0 0 0-.16 1.97c0 .03-.02.04-.04.05h-.05l-.02-.01a9.62 9.62 0 0 1 .08-2.36c.1-.62.26-1.4.5-2.32.06-.17.02-.4-.08-.66-.03 0-.05.02-.07.03.26-.34.4-.67.45-1 .37-.5.73-1.02 1.1-1.55.4-.6.83-1.13 1.29-1.58.05-.04.1-.09.16-.12a.26.26 0 0 0 .1-.1c.11-.23.33-.37.64-.42l.42.05c.05 0 .09 0 .13-.04l.17-.17c.18-.2.36-.29.55-.29a.2.2 0 0 0 .12-.04c.1-.09.3-.22.58-.4.16-.1.3-.23.41-.4a.17.17 0 0 1 .12-.07c.59-.08 1.22-.23 1.91-.45a.84.84 0 0 0 .28-.18c.1-.1.19-.15.26-.17a7.74 7.74 0 0 1 1.63-.33Z" fill="#263646"/><path d="M20.71 17.76c-.32-.01-.23-.16.26-.45.3-.18.6-.37.88-.57.28-.1.54-.22.8-.38a.66.66 0 0 1 .26-.09l.1-.02c.14-.03.18.01.11.13l-.07.05c-.8.38-1.58.83-2.34 1.33Z" fill="#5E7379"/><path d="M34.52 18.62c.49.23.9.49 1.26.76.15.12.29.27.42.47l-1.23 1.27a9.94 9.94 0 0 0-7.64-2.54c-.05-.7-.23-1.2-.53-1.48 1.64-.22 3.26-.05 4.88.49.78.26 1.53.57 2.27.92.07.04.16.09.25.16.29.23.4.2.32-.05Z" fill="#414958"/><path d="M34.97 21.12c.14.08.23.15.27.22.09.15.07.17-.07.07a9.84 9.84 0 0 0-7.9-1.62 9.96 9.96 0 0 0-6.48 4.75 9.7 9.7 0 0 0-.85 7.82 10.4 10.4 0 0 0 1.46 2.9l.76.96a9.85 9.85 0 0 1 1.67-16.62 9.94 9.94 0 0 1 11.13 1.53Z" fill="#fff"/><path d="m34.96 21.12 1.24-1.27c.37.32.68.69.95 1.1.4.63.64.99.71 1.08.59.8 1.01 1.48 1.28 2.05.24.53.4 1.25.5 2.18l-.04-.08-.03-.02s-.02 0-.03.02a33.87 33.87 0 0 1-.38 2.97c-.23 1.34-.64 2.6-1.25 3.78-.68.3-1.34.37-1.96.2-.7-.17-1.29-.48-1.76-.92-.28-.26-.87-.84-.86-1.16.16-2.04.68-3.84.63-5.97 0-.17-.02-.34-.05-.52-.02-.12-.09-.17-.2-.17h-1.17c-.14 0-.2.07-.2.2v5.83c-.01.4-.76.68-1.02.85-.2.14-.53.2-.97.21-1.23.02-2.54.03-3.93.01-.51 0-1.42-.12-1.61-.36-.17-.2-.26-.57-.26-1.09v-5.48c0-.1-.06-.16-.17-.16h-.85c-.15 0-.23.08-.23.23-.01 1.98 0 3.93.04 5.86 0 .47.17.94.47 1.41-1.12.3-2.68.46-3.87.46a9.7 9.7 0 0 1 .85-7.82 9.96 9.96 0 0 1 14.38-3.13c.14.1.16.08.07-.07a.72.72 0 0 0-.28-.22Z" fill="#263E54"/><path d="m16.67 20.93.82.25c-.34.43-.58.83-.72 1.2-.03.08.01.14.12.17l-.16.78.07-.03c-.26.77-.5 1.54-.73 2.3-.06.2-.1.4-.13.58a19.56 19.56 0 0 0-.22 2.5 1.2 1.2 0 0 1-.09-.65c.01-.08-.02-.12-.1-.13l-.03-.01c-.07-.01-.1.02-.1.08V29a.11.11 0 0 0-.04.06c0 .04-.03.05-.07.04-.04 0-.06-.03-.08-.08-.07-.3-.1-.7-.1-1.2a.43.43 0 0 0-.22-.4.14.14 0 0 1-.07-.11l-.02-.18c.46-.3.69-.74.7-1.32a.6.6 0 0 0-.08-.33.42.42 0 0 0-.32-.2c-.08 0-.1-.04-.09-.12.22-.84.47-1.65.75-2.44.23-.64.53-1.24.9-1.8Z" fill="#5B696C"/><path d="M14.81 22.11c.25.1.47.1.5.02.04-.08-.13-.23-.38-.32-.24-.1-.46-.1-.5-.02-.03.08.14.23.38.32Z" fill="#414958"/><path d="m41.66 21.75-.86.4a.06.06 0 0 0-.03.07v.02c.02.03.06.04.08.03l.87-.4a.06.06 0 0 0 .03-.08v-.01a.06.06 0 0 0-.09-.03Z" fill="#70979D"/><path d="M17.18 22.34c-.04.32-.2.65-.45 1l.16-.8c.09 0 .19-.08.3-.2Z" fill="#93AAB1"/><path d="m20.87 22.56-.18.14a.05.05 0 0 1-.06 0 .05.05 0 0 1-.03-.04c0-.12.04-.2.14-.24a.12.12 0 0 1 .13.01c.05.04.05.08 0 .13Z" fill="#C3C8CE"/><path d="M41.19 31.96a6.23 6.23 0 0 1-.6 1.68c.01-.05 0-.07-.01-.08-.08-.02-.13 0-.17.08-.26.57-.47.96-.62 1.18l-.15.18a1.5 1.5 0 0 0-.23.3c-.16.32-.28.53-.35.63-.2.28-.77.94-1.74 1.97-.16.17-.3.28-.45.34-.24.1-.29.04-.13-.17.13-.18.22-.37.26-.57a.17.17 0 0 0-.07-.18.17.17 0 0 0-.2 0c-.4.23-.8.57-1.16.98-.04.04-.04.08 0 .12.15.2.14.38-.04.56-.49.52-1.04.93-1.66 1.24l-.31.13-.8.3c.28-.18.58-.3.92-.38.16-.03.42-.19.78-.45l.3-.17c.27-.16.52-.6.76-1.35.04-.14 0-.16-.1-.07-.47.36-1.02.58-1.66.63l1.49-.95c-.11.2-.28.36-.5.44-.02.01-.02.03-.02.05v.04h.03c.32-.1.6-.28.86-.5.23-.2.41-.34.54-.43.33-.22.52-.36.56-.4l1.11-1.16a8.76 8.76 0 0 0 1.67-2.67c.17-.4.18-.7.03-.9l.32-1.61c0 .1.02.17.06.21.02.03.05.04.08.03.03 0 .05-.02.06-.05.32-.7.44-1.41.37-2.16a8.96 8.96 0 0 1 0-1.04c.04-.5-.04-.67-.22-.47l-.37-2.35c.07.06.12.1.16.1.06.03.1 0 .1-.05a6.56 6.56 0 0 0-.72-2.04.13.13 0 0 1 0-.15c.01-.03.03-.05.05-.05.09-.03.15 0 .2.08.37.65.66 1.4.87 2.2.02.08.06.1.13.1h.07c.05 0 .07-.02.06-.07a6.66 6.66 0 0 0-.63-1.9.27.27 0 0 0-.1-.1.42.42 0 0 0-.13-.07c-.05-.02-.08-.05-.07-.11.02-.17.13-.22.33-.15.13.04.21.12.25.24l.39 1.13c.16.46.26.85.3 1.18l.21 1.6c.03.29.04.63.02 1.03l-.03 1.03c-.01.85-.18 1.85-.5 2.99a.47.47 0 0 1-.13.24c-.12.1-.2.2-.24.27-.3.79-.67 1.54-1.08 2.27-.04.06-.03.11.02.16l.04.03h.02c.24-.35.43-.66.55-.95.07-.16.19-.34.37-.52.17-.16.32-.45.45-.86a.25.25 0 0 1 .09-.12c.06-.04.09-.1.1-.18 0-.05.02-.09.05-.13l.16-.18Z" fill="#5B696C"/><path d="M19.1 34.86c.93 1.15 1.95 2.1 3.05 2.87l1.2.94c.05.04.04.07 0 .09a.2.2 0 0 1-.12 0c.18.33.77.58 1.76.75.02 0 .03 0 .02-.02v-.05a.05.05 0 0 0-.04-.04l-1.54-.66c.64.29 1.15.47 1.53.56.36.08.96.16 1.81.23.93.17 1.84.2 2.75.1.34-.04.68-.03 1.01.05.07.01.09.05.05.12l-.04.06a.14.14 0 0 1-.09.07c-.63.15-1 .22-1.12.21a7.97 7.97 0 0 0-1.45 0c-.21.03-.43.03-.65 0-.43-.06-.85-.14-1.28-.22l-.9-.15c-.44-.07-.85-.2-1.24-.37-.22-.24-.43-.37-.64-.4a2.16 2.16 0 0 1-.99-.32l.9.05c.08 0 .1-.03.08-.11a.15.15 0 0 0-.1-.1c-.13-.05-.5-.21-1.12-.5a1.4 1.4 0 0 0-.95-.06l-1.7-1.38-1.05-1.27-.18-.2c-.1-.24-.22-.46-.34-.66a8.9 8.9 0 0 1-.38-.64c-.12-.25-.27-.52-.42-.78a6.42 6.42 0 0 1-.86-2.33l-.18-.8c-.07-.27-.11-.55-.13-.82a.9.9 0 0 1-.03-.4 17.21 17.21 0 0 1 .22-2.5c.03-.19.07-.38.13-.57.22-.77.47-1.54.73-2.31.1.27.14.49.09.66-.25.93-.41 1.7-.5 2.32a9.62 9.62 0 0 0-.07 2.37h.05c.02 0 .04-.02.04-.05.04-.83.1-1.5.17-1.97.1-.7.24-1.33.44-1.9.01-.03.04-.04.08-.03h.04c.06.03.09.07.07.13-.18.86-.3 1.6-.37 2.23-.05.45-.06.9-.02 1.34a31.47 31.47 0 0 1 .09 1c.02.52.08.9.15 1.16.48 1.6 1.15 3.03 2.04 4.3Z" fill="#0D161C"/><path d="m42.43 23.55-.96.32a.09.09 0 0 0 .06.18l.96-.33a.09.09 0 0 0 .05-.1v-.02a.09.09 0 0 0-.11-.05Z" fill="#70979D"/><path d="M40.78 27.29a.69.69 0 0 0-.08-.26.88.88 0 0 1-.08-.24c-.1-.72-.14-1.14-.15-1.26 0-.03 0-.06.03-.08a.08.08 0 0 1 .08 0c.03 0 .05.02.07.04.08.08.13.16.14.23.17 1.3.22 2.56.15 3.78a.93.93 0 0 1-.11.43c-.2.31-.27.29-.23-.08.13-.92.19-1.77.18-2.56Z" fill="#E8FEFE"/><path d="M43.26 27.5c.07-.35.04-.72-.07-1.14a.62.62 0 0 1 .04-.4.2.2 0 0 0-.03-.22.2.2 0 0 0-.2-.07l-1.1.18c-.02 0-.04 0-.05-.02-.01-.02-.02-.04 0-.06l.05-.1a.08.08 0 0 1 .09-.04c.25.03.48 0 .69-.1a.3.3 0 0 1 .13-.03h.4c.06 0 .1.03.1.08l.19 1.74-.02.22c0 .08-.03.14-.07.16a.13.13 0 0 1-.11.01h-1.24c-.03 0-.04-.02-.02-.05l.02-.05a.09.09 0 0 1 .08-.04h1.03c.05 0 .08-.03.09-.07Z" fill="#5E7379"/><path d="M39.64 26.26c.08.72.13 1.43.13 2.15 0 .75-.07 1.46-.22 2.13A11.61 11.61 0 0 1 35.58 37l-1.7 1.1c-.02 0-.02.01-.02.03 0 .02.02.02.04 0 .08-.07.18-.1.3-.1l-1.12.62c-.3.1-.6.2-.9.32-.15.05-.31.1-.5.12-.2.04-.37.1-.48.19a.17.17 0 0 1-.14.04c-.05-.01-.18 0-.37.05-.38.1-.78.18-1.17.27-.9.1-1.82.06-2.75-.1l-2.35-.73c.54.04 1.08.1 1.62.2.2.03.4.05.61.05l.62.02.4.02.55.02a9.13 9.13 0 0 0 4.62-1.1l.2-.1.05-.01c.73-.27 1.3-.7 1.75-1.3.03-.03.02-.07-.02-.1-.27-.16-.6-.41-1-.75a2.42 2.42 0 0 0-.98-.48c-.4-.14-.79-.22-1.16-.22a6.38 6.38 0 0 0-1.66-.15c.77-.14 1.55-.1 2.33.1l.87.02c.07 0 .08-.02.01-.05a1.1 1.1 0 0 0-.43-.1.22.22 0 0 0-.11-.1l1.74-.12a3.4 3.4 0 0 0 1.2-.17l1.8-.78a.2.2 0 0 0 .1-.09l.39-.7c.6-1.17 1.01-2.43 1.24-3.77a33.87 33.87 0 0 0 .38-2.97.06.06 0 0 1 .04-.02l.02.02.04.08Z" fill="#2B97BD"/><path d="m14.8 27.14.02.18c0 .04.03.08.07.1.16.1.23.23.23.42-.02.5.02.9.1 1.2 0 .04.03.06.07.07.04.01.06 0 .07-.04l.05-.06.05.63c0 .05.04.13.11.21.02.03.05.05.08.06.06.01.09-.01.09-.07l.01-.76c.02.27.06.55.13.81l.18.8a6.42 6.42 0 0 0 .86 2.33c.15.27.3.54.42.8l.38.63c.12.2.24.42.34.65l-1.12-1.18a.35.35 0 0 1-.08-.12.88.88 0 0 0-.14-.22l-.53-.66a2.97 2.97 0 0 1-.41-.73 8.75 8.75 0 0 1-.54-2.03.2.2 0 0 0-.1-.15c-.04-.02-.06-.01-.06.05.06.55.11.93.17 1.12a40.58 40.58 0 0 1 .43 1.54c.1.25.14.43.14.54 0 .01 0 .02-.02.03-.01.04-.04.05-.07.04a.07.07 0 0 1-.05-.04 10.47 10.47 0 0 1-1.08-4.5c-.02-.62.05-1.17.2-1.65Z" fill="#7E868B"/><path d="m40.42 28.8-.27.03.05-1.54c.18-.2.26-.04.23.47-.03.35-.03.7-.01 1.04Z" fill="#93AAB1"/><path d="M43.53 31.8c-.1.49-.22.88-.32 1.2a16.21 16.21 0 0 1-5.98 8.09l-.65-.2 1.53-1.11c.25-.19.43-.35.54-.48.14-.17.3-.35.51-.52.22-.19.46-.46.73-.8.64-.85 1.3-1.86 1.97-3.04.02-.04.01-.06-.03-.06-.07-.01-.13 0-.17.04a.71.71 0 0 0-.15.14l-.29.52c-.32.58-.6 1-.82 1.26-.15.17-.3.37-.44.58-.17.27-.48.64-.94 1.1-.23.24-.4.4-.5.53-.18.2-.45.44-.82.73l-.46.38a7.2 7.2 0 0 1-1.04.73l-1.28.74v-1.67c.34-.2.67-.42.98-.63.17-.11.33-.24.48-.37.2-.19.36-.31.47-.38.24-.15.47-.35.69-.59a47.1 47.1 0 0 0 1.53-1.7c.6-.74 1.1-1.63 1.52-2.65.28-.54.48-1.1.6-1.68-.04 0-.03-.01.02-.04.2.43.66.51 1.4.24.12-.04.18-.09.2-.15a.42.42 0 0 0 .03-.19c0-.05 0-.1.03-.18a13.75 13.75 0 0 0 .43-3c0-.04.02-.07.06-.08.07-.02.11 0 .13.08l.02.1c-.07.24-.1.5-.12.77-.01.36-.03.62-.06.77-.07.43-.13.94-.18 1.54 0 .05.02.08.07.09.1 0 .2-.03.31-.1Z" fill="#2C78A3"/><path d="M40.42 28.8c.07.75-.05 1.47-.37 2.16a.08.08 0 0 1-.06.05c-.03 0-.06 0-.08-.03-.04-.04-.06-.11-.06-.21l.3-1.94.27-.03Z" fill="#E0D8F8"/><path d="m13.95 29.42-.9.05a.06.06 0 0 0-.05.07v.06c0 .03.03.05.07.05l.9-.05c.02 0 .05-.03.05-.07v-.05a.06.06 0 0 0-.07-.06Z" fill="#5B696C"/><path d="M33.53 30.38c-.02.32.38 1.57.66 1.83.47.44 1.06.75 1.76.93.62.16 1.28.1 1.97-.21l-.4.7a.2.2 0 0 1-.1.08l-1.8.78c-.23.1-.63.16-1.2.17l-3.5-.6a6.7 6.7 0 0 0-2.43.5l-1.55.64c-.69.28-1.22.45-1.59.5a6.3 6.3 0 0 1-2.34-.08 37.6 37.6 0 0 1-1.61-.36 10.4 10.4 0 0 1-1.46-2.9c1.19 0 2.9-.57 4.02-.87.65.8 1.67 1.22 3.08 1.23 1.3 0 1.92-.42 3.2-.43.73 0 1.4-.14 2.02-.41.57-.25.9-.83 1.27-1.5Z" fill="#404E67"/><path d="M16.34 35.33c-.24-.1-.48-.16-.71-.16-.17 0-.36.05-.55.17-.17.1-.36.18-.55.22h-.05l-.05-.04a.05.05 0 0 1-.02-.05c0-.02.02-.04.04-.04.34-.08.65-.23.9-.46a.12.12 0 0 0 .05-.13.99.99 0 0 0-.22-.37.32.32 0 0 1-.07-.12 7.63 7.63 0 0 0-.07-.21c-.08-.2-.12-.37-.12-.49a.58.58 0 0 0-.15-.37.1.1 0 0 1-.02-.04l-.14-.69c0-.06 0-.1.02-.13.17-.2.23-.45.16-.76.09.2.15.4.19.6.04.28.09.48.14.62l.38 1.06c.12.36.4.83.84 1.4Z" fill="#5E7379"/><path d="M40.6 33.64a10.43 10.43 0 0 1-1.53 2.65c-.2.25-.7.81-1.53 1.7-.22.24-.45.44-.69.59-.1.07-.27.2-.47.38-.15.13-.3.26-.48.37-.3.21-.63.42-.98.63l-.55.31c-.04.03-.07.02-.1-.01-.07-.07-.2-.09-.4-.04.62-.3 1.17-.72 1.66-1.23.18-.19.19-.38.04-.57-.04-.04-.04-.08 0-.12a4.9 4.9 0 0 1 1.17-.99.17.17 0 0 1 .2.01c.06.05.08.1.06.18-.04.2-.13.39-.26.57-.16.2-.11.27.13.17.14-.06.3-.17.45-.34a25.6 25.6 0 0 0 1.74-1.97c.07-.1.19-.3.35-.63.04-.08.12-.18.23-.3l.15-.18a8 8 0 0 0 .62-1.18c.04-.07.1-.1.17-.08.02 0 .02.03.01.08Z" fill="#93AAB1"/><path d="M30.91 34.06c-.94.16-1.84.42-2.7.8-.33.14-.85.43-1.57.86-.54.33-.93.55-1.16.66a3.6 3.6 0 0 1-2.14.24l-1.18-.4-.76-.96c.25.07.8.19 1.61.36.82.18 1.6.2 2.34.09.37-.06.9-.23 1.59-.51l1.55-.64a6.7 6.7 0 0 1 2.42-.5Z" fill="#5B696C"/><path d="m34.42 34.66-1.73.11a5.81 5.81 0 0 0-6.05 1.79l-.3.2-1.3.54-1.18-.28-.52-.4a3.6 3.6 0 0 0 2.14-.24c.23-.1.62-.33 1.16-.66.72-.43 1.24-.72 1.57-.86.86-.38 1.76-.64 2.7-.8l3.51.6Z" fill="#5E7379"/><path d="M32.69 34.77c.04.02.08.06.11.11l-.63-.03a5.46 5.46 0 0 0-3.86.54c-.5.28-1.06.67-1.67 1.17a5.81 5.81 0 0 1 6.05-1.79Z" fill="#857A82"/><path d="M32.8 34.88c.16 0 .3.04.43.1.07.03.06.05 0 .05l-.88-.02c.02-.07-.04-.13-.18-.16l.63.03Z" fill="#5680A7"/><path d="M31.68 35.06c-.4.09-.79.16-1.18.2-.56.06-.95.14-1.18.21a4.9 4.9 0 0 0-1.88 1.2l-.63.4c-.2 0-.46.13-.77.4-.01.03-.02.02-.03 0a601.96 601.96 0 0 1 .87-.84A5.38 5.38 0 0 1 30 34.91c.56-.02 1.12.02 1.67.15Z" fill="#7E868B"/><path d="M36.58 40.89c-.4.28-.68.46-.84.54a14.34 14.34 0 0 1-7.33 2c.04-.06-.02-.1-.18-.14.27-.08.56-.1.88-.04.1.03.25 0 .45-.07.59-.06 1.07-.12 1.45-.21.58-.13 1.3-.34 2.2-.62l1.71-.72c.44-.24.86-.49 1.28-.74.42-.25.77-.5 1.04-.73.1-.1.26-.22.46-.38.37-.3.64-.54.82-.73l.5-.53c.46-.46.77-.83.94-1.1.14-.21.29-.4.44-.58.23-.25.5-.68.82-1.26.12-.23.22-.4.3-.52a.71.71 0 0 1 .14-.14c.04-.04.1-.05.17-.04.04 0 .05.02.03.06a27.15 27.15 0 0 1-1.97 3.03c-.27.35-.51.62-.73.8-.2.18-.37.36-.51.53-.11.13-.3.3-.54.48-.5.37-1 .74-1.53 1.1Z" fill="#404E67"/><path d="M31.68 35.06c.37 0 .76.08 1.16.22l-1-.05-.02.02.02.01 1.14.32-.03.04a4.28 4.28 0 0 0-5.27 1 .42.42 0 0 1-.1.07c-.12.05-.17.05-.14-.02a4.9 4.9 0 0 1 1.88-1.2 6.2 6.2 0 0 1 1.18-.2c.4-.05.79-.12 1.18-.21Z" fill="#93AAB1"/><path d="M32.84 35.28c.4.1.73.27.98.48.4.34.73.59 1 .76.04.02.05.06.02.1a3.75 3.75 0 0 1-1.75 1.29c.1-.07.22-.13.34-.18.16-.06.28-.2.36-.44 0-.44-.2-.78-.6-1.02a3.11 3.11 0 0 0-.86-.35c-.88-.2-1.73-.2-2.56 0-.75.17-1.34.54-1.77 1.1-.31.4-.63 1.03-.96 1.91-.04.1-.11.16-.22.14-.39-.03-.76-.09-1.12-.16l-1.02-.16c-.4-.06-.78-.17-1.15-.34-.02-.01-.02-.03-.01-.05l.02-.03c.42.18.83.3 1.21.36.26.04.27 0 .03-.1l-.5-.24.44.03c.6.1 1.08-.06 1.44-.5.3-.35.52-.62.65-.8l.63-.4c-.03.06.02.06.13.01a.42.42 0 0 0 .11-.06c.6-.53 1.22-.87 1.88-1.02a7.34 7.34 0 0 1 3.4.01l.02-.03v-.01l-1.14-.32-.02-.01c0-.02.02-.02.02-.02l1 .05Z" fill="#82A3CC"/><path d="M19.28 36.58a.66.66 0 0 0-.18.55c0 .06.03.1.07.14l1.15.98a.3.3 0 0 1 .08.1c.12.25.28.43.5.56.15.07.22.12.23.16.07.21 0 .26-.18.12l-.97-.68a1.83 1.83 0 0 1-.57-.63.59.59 0 0 0-.37-.28c-.05-.01-.09 0-.1.05a.55.55 0 0 0 0 .38 1.8 1.8 0 0 1-.6-.6 4.56 4.56 0 0 0-.2-.29.3.3 0 0 1-.05-.32.3.3 0 0 1 .25-.2l.24-.04c.09-.02.15-.07.19-.16a.23.23 0 0 0-.04-.24l-.17-.2c-.21-.26-.32-.48-.32-.67l1.04 1.27Z" fill="#93AAB1"/><path d="M33.8 37.29a7.9 7.9 0 0 1-.35-.3c-.3-.26-.52-.44-.68-.52a3.86 3.86 0 0 0-3.22-.19c-1.06.38-1.82 1.32-2.28 2.8l-.62-.02c-.2 0-.41-.02-.61-.05-.54-.1-1.08-.16-1.62-.2a3.42 3.42 0 0 1-1.33-.67c.42.15.7.24.82.26.09.02.13-.01.14-.1 0-.04.02-.05.06-.04l.16.09.52.24c.23.1.22.14-.04.1a4.96 4.96 0 0 1-1.21-.36l-.02.03c-.01.02 0 .04.01.05.37.17.75.28 1.15.34a114.32 114.32 0 0 1 2.14.32c.1.02.19-.03.22-.14.33-.88.65-1.52.96-1.9a3.08 3.08 0 0 1 1.77-1.11c.83-.2 1.68-.2 2.56 0 .31.08.6.2.87.35.4.24.6.58.6 1.02Z" fill="#C3C8CE"/><path d="M33.8 37.29c-.09.23-.2.38-.37.44-.13.05-.24.1-.34.18h-.04c-.22-.5-.59-.85-1.1-1.02a2.99 2.99 0 0 0-3.22.68c-.2.18-.55.7-1.06 1.53l-.4-.02c.46-1.48 1.22-2.42 2.28-2.8 1.12-.4 2.2-.34 3.22.2.15.07.38.25.67.5l.35.3Z" fill="#E0D8F8"/><path d="M16.8 36.46c.02.02.02.03 0 .05l-.63.45c-.25.2-.4.27-.42.23l-.03-.05c-.03-.03.09-.14.34-.33l.63-.45c.02-.02.03-.01.04 0l.08.1Z" fill="#7E868B"/><path d="m20.99 37.96 1.2.72c.22.16.55.27.98.32.2.03.42.16.64.4l-1.07-.3c-.07-.01-.09 0-.04.07.04.05.1.1.18.12.35.13.63.24.83.34.06.04.15.06.28.09l.22.06c.52.23 1.08.4 1.67.53l-1.7-.14-3.3-1.9a.12.12 0 0 0-.15 0 .12.12 0 0 0-.05.13c.04.16.11.33.22.5a1.24 1.24 0 0 1-.5-.55.3.3 0 0 0-.08-.1l-1.15-.98a.21.21 0 0 1-.07-.14.66.66 0 0 1 .19-.55l1.7 1.38Z" fill="#857A82"/><path d="M26.88 36.63a551.68 551.68 0 0 0-.87.84c0 .02.02.03.04 0 .3-.27.55-.4.76-.4-.13.19-.35.46-.65.82-.36.43-.85.6-1.44.5l-1.15-.37-.18-.21.8-.1a4.05 4.05 0 0 0 1.55-.45l1.14-.63Z" fill="#70979D"/><path d="m33.05 37.91-.21.12c-.95-.53-1.8-.7-2.56-.53-.75.18-1.44.72-2.06 1.62l-.55-.02c.5-.84.86-1.35 1.06-1.53.93-.87 2-1.1 3.22-.68.51.17.88.51 1.1 1.02Z" fill="#F2FBFC"/><path d="M35.58 37c-.19.23-.36.4-.5.5l-.88.54a.41.41 0 0 0-.3.1h-.04l.01-.04 1.7-1.1Z" fill="#2C78A3"/><path d="m23.86 37.02 1.18.28-.58.1c-.29-.06-.5-.19-.6-.38Z" fill="#77847F"/><path d="m27.8 37.02-.03-.02c-.02-.01-.05 0-.05.02l-.85 1.8c-.01.02 0 .04.01.05l.04.02c.02 0 .05 0 .05-.02l.85-1.8c.01-.02 0-.04-.01-.05Z" fill="#C3C8CE"/><path d="M32.84 38.03a9.13 9.13 0 0 1-4.62 1.09c.62-.9 1.3-1.44 2.06-1.62.76-.18 1.6 0 2.56.53Z" fill="#fff"/><path d="M20.9 38.9a1.7 1.7 0 0 1-.22-.5c-.01-.05 0-.1.05-.13.04-.03.1-.04.14 0l3.32 1.9-.66-.25h-.06a.07.07 0 0 0-.03.04c0 .04 0 .06.04.08l.55.36c.02 0 .02.01 0 .02H24a.53.53 0 0 0-.23-.05c-.07 0-.08.02-.02.06.08.07.15.1.2.1.41 0 .76.04 1.03.12a.71.71 0 0 0-.32-.02c-.08.01-.08.04-.01.07a3.96 3.96 0 0 0 1.45.32c.22.03.48.05.78.06l1.68.05c.2 0 .23-.06.09-.2-.04-.04-.16-.05-.35-.03l.87-.09c.1-.01.11-.06.07-.13a2.56 2.56 0 0 0-1-.18c.18 0 .3-.01.37-.03.1-.04.13-.1.11-.18 0-.05-.04-.08-.09-.09l-.75-.06c.48-.04.96-.04 1.45 0 .12.01.49-.06 1.12-.2a.14.14 0 0 0 .1-.08l.03-.06c.04-.07.02-.1-.05-.12a2.82 2.82 0 0 0-1.01-.04l1.17-.27c.2-.04.32-.06.37-.05.05 0 .1 0 .14-.04.1-.1.27-.15.49-.19.18-.02.34-.07.5-.12.29-.12.59-.22.9-.32l-.45.26a.06.06 0 0 0-.03.08c0 .03.03.05.06.05.4.08.76.02 1.1-.18a3.03 3.03 0 0 0 1.64-.63c.11-.1.15-.07.1.07-.23.74-.48 1.2-.76 1.35l-.29.17a2.6 2.6 0 0 1-.78.45c-.34.08-.64.2-.92.38-.3.15-.6.25-.9.29-.84.1-1.54.23-2.1.37-.5.12-.95.18-1.33.18-1.3 0-2.2-.04-2.66-.11a12.4 12.4 0 0 1-4.43-1.63 3.3 3.3 0 0 1-1.2-.76l-1.2-.96a.55.55 0 0 1 0-.38c.01-.05.05-.06.1-.05.17.05.29.14.37.28.16.27.35.48.57.63l.98.68c.18.14.24.1.18-.12-.01-.04-.1-.09-.24-.16Z" fill="#5E7379"/><path d="M23.1 38.14c.39.32.83.54 1.32.67l2.35.72a15.4 15.4 0 0 1-1.81-.23 8.87 8.87 0 0 1-1.53-.56c-.01.06-.08.07-.2.03a.2.2 0 0 0 .11-.01c.05-.02.05-.05.01-.09l-1.2-.94.94.41Z" fill="#2C78A3"/><path d="m22.18 38.68-1.2-.72c.37-.09.69-.07.95.06.62.29 1 .45 1.13.5.05.01.08.05.1.1.03.08 0 .12-.08.11l-.9-.05Z" fill="#192B3A"/><path d="m18.53 38 1.33 1.21c-.38.29-.65.7-.78 1.24-.38-.26-.73-.54-1.05-.84-.29-.26-.5-.54-.65-.85-.02-.04-.05-.05-.09-.04a.21.21 0 0 1-.14.02c-.06-.01-.09-.04-.09-.1 0-.08.04-.14.16-.19a.33.33 0 0 1-.09.16c-.03.04-.03.07.02.1h.09l.06-.07c.18-.26.4-.48.64-.67.04-.03.05-.07.02-.1l-.02-.05c.18.1.38.17.59.19Z" fill="#77847F"/><path d="M23.23 38.77c.12.04.19.03.2-.03l1.54.66c.02.01.03.02.03.04l.01.05c0 .02 0 .02-.02.02-.99-.17-1.58-.42-1.76-.74Z" fill="#263E54"/><path d="M20.14 39c.4.36.8.61 1.2.75.23.25.49.44.77.56.07.03.1.09.07.17l-.17.63a.2.2 0 0 1-.07.1c-.3.27-.69.36-1.15.28l-1.71-1.04c.13-.54.4-.95.78-1.24.07.13-.04.28-.32.45-.02 0-.03.02-.03.03v.04h.02l.43-.27a.18.18 0 0 0 .08-.11l.1-.36Z" fill="#fff"/><path d="M23.8 39.4c.4.18.81.3 1.24.37a225 225 0 0 1 2.19.37c.22.03.44.03.65 0l.75.06c.05 0 .08.04.1.09 0 .08-.03.14-.12.18-.07.02-.2.03-.38.04-.81.01-1.6-.06-2.35-.2a8.65 8.65 0 0 1-1.67-.53 1.27 1.27 0 0 0-.22-.06 1.14 1.14 0 0 1-.28-.09c-.2-.1-.48-.21-.83-.34a.37.37 0 0 1-.18-.12c-.05-.06-.04-.08.04-.06l1.07.3Z" fill="#C3C8CE"/><path d="M32.07 39.86c.48-.16.84-.37.8-.47-.03-.1-.44-.07-.93.09-.48.15-.84.36-.8.47.03.1.44.06.93-.1Z" fill="#E0D8F8"/><path d="M28.41 43.44c1.73-.03 3.3-.3 4.7-.81.64-.23 1.52-.63 2.64-1.2.15-.08.43-.26.83-.54l.65.2a15.75 15.75 0 0 1-8.38 2.89c-3.3.16-6.4-.62-9.32-2.35a8.72 8.72 0 0 1-.96-.69l-.42-.32a9 9 0 0 1-1.14-1c.1.04.19.04.24.01.04-.01.06-.04.05-.08l-.02-.12c-.01-.08.01-.1.08-.06.06.03.1.07.14.12l.12.12c.86.67 1.73 1.28 2.62 1.82.4.24.8.45 1.24.64.28.13.7.3 1.27.54.23.1.45.16.66.2.16.03.3.08.45.15.13.06.27.1.43.14 1.21.22 2.02.34 2.42.34h1.7Z" fill="#82A3CC"/><path d="m32.76 40.65.8-.3c.15-.04.3-.06.43-.06.05 0 .06.02.02.05l-.63.5a.1.1 0 0 0-.04.1c.09.46.04.93-.14 1.41-.88.28-1.61.49-2.2.62-.37.09-.85.15-1.44.2-.56-.22-.9-.64-1-1.23-.01-.05-.04-.07-.1-.08-1.6-.1-2.65-.21-3.13-.34-.64-.16-1.29-.33-1.94-.52l-.7-.17c-.08-.02-.11.01-.1.09l.06.36a.1.1 0 0 1-.05.11l-.8.58-1.01-.48c.46.08.85 0 1.15-.28a.2.2 0 0 0 .07-.1l.17-.63c.03-.08 0-.14-.07-.17a2.2 2.2 0 0 1-.77-.56 12.4 12.4 0 0 0 4.43 1.63c.47.07 1.35.1 2.65.1.4.01.84-.05 1.35-.17.55-.14 1.25-.26 2.09-.37.3-.04.6-.14.9-.3Z" fill="#E0D8F8"/><path d="m24.19 40.17 1.7.14c.74.14 1.53.21 2.34.2a2.56 2.56 0 0 1 1 .17c.05.07.03.12-.06.13l-.87.1c-1.12.01-2.23-.07-3.32-.26-.28-.08-.62-.11-1.02-.12-.06 0-.13-.03-.21-.1-.06-.04-.05-.06.02-.06.09 0 .16.02.23.06h.04v-.03l-.56-.36c-.03-.02-.04-.04-.04-.08l.03-.03a.06.06 0 0 1 .06-.01l.66.25Z" fill="#404E67"/><path d="M34.92 39.96v1.67l-1.72.72c.18-.48.23-.95.14-1.41 0-.04 0-.08.04-.1l.63-.5c.03-.03.03-.05-.02-.05-.13 0-.28.02-.43.06l.31-.13c.2-.05.33-.03.4.04.03.03.06.04.1.01l.55-.3Z" fill="#82A3CC"/><path d="M23.39 41c.05.59-.2 1.02-.76 1.29l-.84-.32.81-.58a.1.1 0 0 0 .05-.11l-.06-.36c-.01-.08.02-.11.1-.1l.7.18Z" fill="#70979D"/><path d="M23.39 41c.65.19 1.3.36 1.94.52.48.13 1.53.24 3.14.34.05 0 .08.03.09.08.1.6.44 1 1 1.24-.2.07-.35.1-.45.07-.31-.05-.6-.04-.88.04-.41-.05-.84-.09-1.29-.11-1-.06-1.93-.2-2.8-.41l-.19-.02a.34.34 0 0 1-.19-.09.21.21 0 0 0-.08-.04l-1.05-.33c.56-.27.8-.7.76-1.29Z" fill="#5680A7"/><path d="M33.81 31.15c-.37.7-.83 1.17-1.4 1.42a4.9 4.9 0 0 1-2 .42h-3.84c-1.4 0-2.41-.43-3.05-1.26a2.8 2.8 0 0 1-.48-1.45c-.03-1.99-.05-4-.04-6.03 0-.16.08-.24.24-.24h1.61c.11 0 .15.06.15.17v5.64c0 .53.29.9.46 1.12.19.24.53.37 1.04.37 1.38.02 2.68.01 3.9 0 .44-.01 1.03-.09 1.24-.23.26-.17.36-.46.36-.88 0-1.49.04-3.49.03-6 0-.13.07-.2.2-.2h1.5c.12 0 .19.06.2.17.04.19.05.37.05.54.05 2.2 0 4.34-.17 6.44Z" fill="#fff"/></svg>