<svg width="56" height="56" viewBox="0 0 56 56" xmlns="http://www.w3.org/2000/svg"><path d="M16 21.24v9.54c.63.1 2.28.31 3.8.31 1.89 0 2.51-1.2 3.79-4.6 1.27-3.4-.19-3.56-.47-3.82-.23-.2-4.84-1.04-7.12-1.43Zm25.5 9.81c.99.22 1.5 1.5 1.57 1.56.63.8-2.23 3.11-3.62 3.78-1.4.66-2.61 1.38-4.08 1.41-1.46.04-1.91-1.63-2.24-2.2-.34-.56-.17-1.69.25-2.57.41-.88 1.74-.98 2.5-1.36.77-.39 4.61-.83 5.61-.62Z" fill="#9B9A9E"/><path d="M33.48 16.5c.07-.53 0-.88-.23-1.05a1.5 1.5 0 0 0-.5-.8c-.25-.22-.82-.31-1.7-.27a67 67 0 0 1-7.28-.05c.23-.2.63-.3 1.2-.3 1.79-.03 3.61-.03 5.48-.03.31 0 .55.05.72.15.07.04.14.05.21.01h.02c.21-.1.38-.14.5-.11 1.34.3 1.96 1.12 1.87 2.47-.02.23-.09.25-.22.07l-.07-.1Z" fill="#828181"/><path d="M23.77 14.33a67 67 0 0 0 7.28.05c.88-.04 1.45.04 1.7.27.27.23.43.5.5.8-.07 2.18-.1 4.33-.06 6.46 0 .21.07.33.2.36a.6.6 0 0 0 .12.18l.04.1-2.84-.02a3.42 3.42 0 0 1-1.07-2.14c-.1-.77.01-1.55.33-2.36.08-.19.22-.26.43-.22.8.15 1.55.43 2.25.81.06.03.11.03.16 0a.14.14 0 0 0 .08-.13l-.09-1.65c.08-.39.08-.75 0-1.1.05-.7-.55-1.03-1.77-.98a.16.16 0 0 0-.16.1.92.92 0 0 0-.07.29.5.5 0 0 1-.2.36.56.56 0 0 1-.42.13c-.36-.03-.6 0-.73.05l-2.73-.02-.9-.03c-.45 0-.7-.12-.78-.36.04-.58-.5-.7-1.61-.37-.39.11-.59.35-.6.72a56.76 56.76 0 0 0 0 5.3l.02.13-.01 1.47h-.5c.05-3.1.05-5.44 0-7.01 0-.19.06-.3.18-.36a.28.28 0 0 0 .12-.1 1 1 0 0 0 .2-.43.2.2 0 0 1 .15-.15l.78-.15Z" fill="#020304"/><path d="M25.04 15.28c-.08 1.14-.1 2.13-.04 2.97.04.68.26 1.29.66 1.83.31.4.8.86 1.48 1.36.07.06.1.12.11.2l.07 1c-.06.52-.25.95-.56 1.27l-.62-1.15a.36.36 0 0 0-.34-.2h-.99c-.23 0-.38.1-.45.3-.05.12-.13.25-.26.4l.04-.2c.05-.22.06-.4.04-.54a4.55 4.55 0 0 0-.82-2.1c-.08-.1-.12-.1-.14.04a.5.5 0 0 0 .13.38c.06.08.05.13-.05.15a.69.69 0 0 1-.47-.07 56.76 56.76 0 0 1 0-5.3c.01-.36.21-.6.6-.71 1.11-.34 1.65-.21 1.6.37Z" fill="#4BB1CC"/><path d="M32.8 15.74c-.76.21-1.55.33-2.36.34-.1 0-.17.03-.23.1l-.46.5a3.9 3.9 0 0 0-.85 1.13c-.17.43-.26.92-.25 1.45 0 .07-.02.13-.07.19l-.34.35-.55-2.18a.18.18 0 0 1 .05-.18l1.7-1.75c.14-.06.38-.08.74-.05.16 0 .3-.03.42-.13a.5.5 0 0 0 .2-.36c0-.1.03-.2.07-.3.03-.06.08-.1.16-.1 1.22-.04 1.82.3 1.78.99Z" fill="#122E58"/><path d="M25.82 15.64c0 1.25.4 2.56 1.18 3.93.53.93.64 1.96.32 3.06l-.07-.98a.27.27 0 0 0-.11-.2 7.24 7.24 0 0 1-1.48-1.37 3.32 3.32 0 0 1-.66-1.83c-.06-.84-.04-1.83.04-2.97.07.24.33.36.78.36Z" fill="#3CA3C3"/><path d="m33.48 16.5.02.84-.02 4.87-.02.04a.12.12 0 0 1-.07.02c-.13-.03-.2-.15-.2-.36-.03-2.13-.01-4.28.06-6.46.23.17.3.52.23 1.05Z" fill="#323234"/><path d="M26.72 15.67c.06.25.12.62.18 1.11.07.66.16 1.14.27 1.46.2.6.4 1.18.58 1.76a6.28 6.28 0 0 1 .23 1.43c.04.36.04.73 0 1.1-.1 1.05-.18 2.16-.24 3.31l-.98-1.93c.31-.32.5-.75.56-1.28a3.8 3.8 0 0 0-.32-3.06 7.94 7.94 0 0 1-1.18-3.93l.9.03Z" fill="#0A78AA"/><path d="m29.45 15.7-1.7 1.74a.18.18 0 0 0-.06.18l.55 2.18c-.03.6.03 1.19.16 1.8.1.46.18.83.22 1.11.05.36.11.73.19 1.11-.08 1.04-.03 2.02.15 2.93.07.18-.1.38-.5.6l-.72-1.5c.06-1.16.15-2.27.25-3.32a5.43 5.43 0 0 0-.03-1.33 6.27 6.27 0 0 0-.21-1.2l-.58-1.76c-.1-.32-.2-.8-.27-1.46a9.98 9.98 0 0 0-.18-1.1l2.73.01Z" fill="#114C7A"/><path d="M37.63 16.42a3 3 0 0 0-1.16-.02c-.13-.17-.15-.38-.07-.63a.17.17 0 0 1 .16-.12c.35-.05.7-.03 1.07.04.09.02.13.07.14.15.01.26-.03.45-.14.58Z" fill="#C3BFBD"/><path d="M32.8 15.74c.08.35.08.71 0 1.1L31 16.7c-.47-.03-.83.15-1.1.55-.7 1-.9 1.92-.61 2.77.13.41.23 1.06.3 1.94.02.4.05.7.08.9-.32.24-.6.56-.85.96-.08-.38-.14-.75-.2-1.11-.03-.28-.1-.65-.2-1.12-.14-.6-.2-1.2-.17-1.79l.34-.35a.27.27 0 0 0 .07-.2c0-.52.08-1 .25-1.44.11-.29.4-.66.85-1.12l.46-.5a.26.26 0 0 1 .23-.11c.81-.01 1.6-.12 2.37-.34Z" fill="#06324B"/><path d="M36.47 16.4a3 3 0 0 1 1.16.02l-1.19.24a1.76 1.76 0 0 0-.86-.28c-.13-.01-.2.05-.18.18l.16 1.53c.02.16.1.2.25.14.1-.04.22-.07.4-.1-.11.17-.23.3-.37.41-.07.05-.08.11-.03.19l.04.06c.04.05.1.06.15.02.52-.36 1.11-.4 1.77-.1l.23.23.41.58c.05.05.05.11.02.18a.81.81 0 0 1-.47.36 2 2 0 0 0-.95.91l-.34.28c-.06.05-.13.05-.2 0a9.24 9.24 0 0 1-1.52-1.44c-.05-.06-.1-.07-.17-.04l-.95.47c-.1-.48-.1-.92.03-1.33.48.08.82-.05 1.02-.39.09-.15.12-.45.1-.88-.02-.4.04-.71.19-.95.23-.56.52-.85.88-.87.23 0 .29.08.18.28a.52.52 0 0 1-.06.08c-.05.07-.05.12 0 .18.08.07.17.08.3.04Z" fill="#434243"/><path d="M21.98 19.5c-.43.13-1-.11-1.7-.74a.51.51 0 0 0-.09-.24c-.26-.75-.73-.9-1.39-.44-.3-.25-.53-.54-.7-.87-.18-.35-.44-.53-.79-.55-.08-.04-.24-.05-.48 0-.3-.02-.52.18-.64.61l-.3-.11c.04-.55.29-.93.75-1.12.3-.13.78-.2 1.44-.2 1.25 0 2.49 0 3.7.03.14 0 .2.07.2.2v3.42Z" fill="#D8D4D2"/><path d="M35.17 16.7c-.15.23-.21.54-.19.94.02.43-.01.73-.1.88-.2.34-.54.47-1.02.39 0-.07.02-.15.06-.23a.5.5 0 0 1 .36-.18c.17 0 .25-.09.27-.25.02-.36.02-.7 0-1.04 0-.32-.08-.34-.22-.04-.06.12-.2.27-.4.45l-.2-.67c.4-.24.81-.46 1.23-.67.1-.05.17.09.2.41Z" fill="#828181"/><path d="M36.44 16.66c0 .06.02.1.04.13l-.15 1.26a.49.49 0 0 1-.12.09c-.18.02-.3.05-.4.09-.15.07-.23.02-.25-.14l-.16-1.53c-.01-.13.05-.2.18-.18.3.02.6.11.86.28Z" fill="#1B171D"/><path d="m39 16.99-.42 1.68-.57-.37a.33.33 0 0 1-.14-.15c.08-.3.06-.62-.05-.94-.02-.17-.02-.33.02-.48.03-.1.1-.16.2-.17l.72-.12c.08-.01.13.02.15.1l.08.45Z" fill="#1D1E23"/><path d="M41.55 21.48c0-.15-.1-.24-.26-.27-.09-.01-.13.02-.14.1l-.06.88c0 .07.02.13.08.18.1.08.2.1.3.04l.04.14h-1.23l.13-1.2c.28-.24.59-.33.91-.3.08.01.13-.02.16-.08.16-.34.16-.66-.01-.94a3.18 3.18 0 0 0-1.34-2.64l-.29-.25a.22.22 0 0 0-.05-.09c-.05-.05-.09-.04-.1.03-.05.2-.17.27-.36.23l-.03-.3c-.01-.08 0-.15.05-.2a.2.2 0 0 0 .02-.22c-.05-.1-.02-.13.08-.07a3.95 3.95 0 0 1 1.89 2.27c.27.81.42 1.55.46 2.2 0 .21-.07.37-.25.5Z" fill="#B263AD"/><path d="M17.31 16.66c.1.4.36.76.77 1.08-.28.28-.56.42-.83.42-.3 0-.53-.17-.7-.51-.14-.27-.05-.6.28-1 .24-.04.4-.03.48.01Z" fill="#111217"/><path d="M16.83 16.66c-.33.39-.42.72-.28.99.17.34.4.51.7.5.27 0 .55-.13.83-.41a.43.43 0 0 1-.03.02c0 .6.05 1.05.18 1.36l.6 1.46c.02.06.01.11-.02.16a.18.18 0 0 1-.16.07l-1.32-.06c.52-.04.76-.24.73-.6.05-.57-.22-.96-.82-1.16-.22-.12-.51-.04-.87.23l-.18-1.95c.12-.43.33-.63.64-.61Z" fill="#828181"/><path d="m32.8 16.84.1 1.65c0 .06-.03.1-.09.13a.15.15 0 0 1-.16 0 7.77 7.77 0 0 0-2.25-.81c-.21-.04-.35.03-.43.22-.32.8-.43 1.6-.33 2.36.1.86.46 1.57 1.07 2.14-.4.04-.75.15-1.05.33-.03-.2-.06-.5-.08-.9a8.6 8.6 0 0 0-.3-1.94c-.3-.85-.09-1.78.6-2.77.28-.4.64-.58 1.1-.55l1.82.14Z" fill="#111217"/><path d="M37.82 17.2c.1.33.13.64.05.95a2.9 2.9 0 0 0-1.54-.1l.15-1.26c-.03.16 0 .28.1.35.09.07.2.1.33.06l.34-.08c.1-.02.18.01.23.1l.1.23c.08.15.14.14.19-.02l.05-.22Z" fill="#434243"/><path d="m33.74 16.95.18.67v1.06a.42.42 0 0 0-.06.23c-.13.4-.14.85-.03 1.33l.06 1.22a3 3 0 0 0-.07.68c0 .1-.02.18-.06.22-.06.07-.14.1-.25.09a.6.6 0 0 1-.12-.18l.07-.02.02-.04.02-4.87c.02-.34.1-.48.24-.4Z" fill="#9B9A9E"/><path d="M33.92 18.68v-1.06c.21-.18.35-.33.4-.45.15-.3.23-.28.24.04.02.33.01.68-.01 1.04-.01.16-.1.25-.27.25a.47.47 0 0 0-.36.18Z" fill="#535356"/><path d="m39.19 17.7-.15.73c-.02.07 0 .14.04.2.12.18.3.32.56.41-.2.2-.3.4-.33.6 0 .08.02.15.08.2l.73.52.14.55c-.22.08-.41.19-.58.31a.09.09 0 0 1-.1.02c-.03-.02-.05-.05-.05-.08v-.55c0-.1-.03-.11-.1-.02a.32.32 0 0 0-.06.2c.04.61 0 1.2-.1 1.76l-2.74.03-.71-.04-1.64-.01c.13-.6.03-.95-.29-1.07l-.06-1.22.95-.47c.06-.03.12-.02.17.04.45.53.96 1.01 1.53 1.44.06.05.13.05.2 0l.33-.28c.42-.21.74-.52.95-.91.22-.09.38-.2.47-.36a.16.16 0 0 0-.02-.18l-.41-.58c.24.19.47.25.66.18.09-.03.12-.08.11-.16 0-.1-.07-.2-.19-.29L39 17l.2.7Z" fill="#323234"/><path d="M39.84 17.14c-.04-.01-.08 0-.1.02a.11.11 0 0 0-.05.1l.1 1.09c0 .17.1.27.3.28h.08c.1 0 .13-.04.12-.12l-.16-1.12a3.18 3.18 0 0 1 1.34 2.64l-.27.05-1.56-1.04a1.1 1.1 0 0 1-.56-.4.25.25 0 0 1-.04-.2l.15-.74c-.04-.15.01-.28.14-.39.19.04.3-.03.36-.23.01-.07.05-.08.1-.03a.2.2 0 0 1 .05.09Z" fill="#BB3663"/><path d="m15.9 17.16.3.11.17 1.95c-.26.31-.25.7.02 1.17a6.9 6.9 0 0 0-.17 1.66c0 .23-.1.37-.28.43-.06-1.3-.1-2.6-.14-3.9 0-.48.02-.96.1-1.42Z" fill="#C3BFBD"/><path d="m39.84 17.14.29.25.16 1.12c.02.08-.02.13-.12.12h-.09c-.18-.01-.28-.1-.3-.28l-.09-1.1c0-.03.01-.06.04-.09a.13.13 0 0 1 .11-.02Z" fill="#5E2454"/><path d="m18.8 18.08-.2.32a.36.36 0 0 0-.12.27c0 .08.03.16.1.24.48.54.98.58 1.53.13l.08-.52c.06.1.1.17.1.24-.04.21-.1.4-.2.56a.3.3 0 0 1-.14.11c-.18.09-.25.24-.2.45.08.4-.05.73-.39 1.02-.1.08-.12.18-.06.29.3.55.74 1.1 1.31 1.66.06.06.11.05.16-.01l.26-.36c.02-.03.05-.04.08-.03.05.02.07.06.06.12l-1.2 2.4-2.34-1.55-.36-.71a.19.19 0 0 0-.17-.1h-1.16c-.02-.1-.03-.13 0-.13.19-.06.28-.2.28-.43 0-.61.05-1.17.17-1.66.36.27.67.4.94.36l1.32.06c.07 0 .12-.02.16-.07.03-.05.04-.1.02-.16l-.6-1.46a3.6 3.6 0 0 1-.18-1.36l.05-.55c.17.33.4.62.7.87Z" fill="#9B9A9E"/><path d="m20.2 18.52-.1.52c-.01-.12-.05-.2-.11-.2-.04-.02-.1 0-.18.06a.5.5 0 0 1-.57.03 2.5 2.5 0 0 1-.5-.4 4.7 4.7 0 0 0-.14-.13l.2-.32c.66-.45 1.13-.3 1.4.44Z" fill="#424655"/><path d="M37.87 18.15a.4.4 0 0 0 .14.15c.03.24-.04.38-.24.41-.66-.3-1.25-.26-1.77.1-.06.04-.1.03-.15-.02l-.04-.06c-.05-.08-.04-.14.03-.19.14-.1.26-.24.37-.4.05-.03.1-.06.12-.1a3.13 3.13 0 0 1 1.54.1Z" fill="#D8D4D2"/><path d="M38.58 18.67c.12.1.19.2.2.29 0 .08-.03.13-.12.16-.2.07-.42 0-.66-.18l-.23-.23c.2-.03.27-.17.24-.41l.57.37Z" fill="#828181"/><path d="m18.6 18.4.14.14c.21.2.38.33.5.4.2.1.4.09.57-.04.08-.05.14-.08.18-.07.06.02.1.09.12.21-.55.45-1.05.41-1.52-.13a.36.36 0 0 1-.1-.24c0-.11.03-.2.1-.27Z" fill="#2A2B31"/><path d="m21.98 19.5.05 3.04-.86.03c.01-.06 0-.1-.06-.12-.03-.01-.06 0-.08.03l-.26.36c-.05.06-.1.07-.16.01a7.2 7.2 0 0 1-1.3-1.66c-.07-.11-.05-.21.05-.3.34-.28.47-.62.4-1-.06-.22.01-.37.2-.46a.3.3 0 0 0 .12-.11c.1-.16.17-.35.2-.56.7.63 1.27.87 1.7.73Z" fill="#C3BFBD"/><path d="M17.25 18.98c.59.2.86.6.8 1.17-.24.28-.5.41-.8.4a.76.76 0 0 1-.6-.32.66.66 0 0 1-.1-.65c.09-.26.32-.46.7-.6Z" fill="#0D070E"/><path d="m39.64 19.04 1.56 1.04c0 .21-.1.4-.32.54a.17.17 0 0 1-.2.01l-.56-.27-.73-.53a.19.19 0 0 1-.08-.18.96.96 0 0 1 .33-.6Z" fill="#1B171D"/><path d="M41.47 20.03c.17.28.17.6.01.94-.03.07-.08.1-.16.08-.32-.03-.63.06-.9.3l-.16-.44-.14-.55.57.27c.07.04.13.03.19-.01.21-.15.32-.33.32-.54l.27-.05Z" fill="#842E6C"/><path d="M19.42 20.37c.1 0 .16-.07.16-.16a.16.16 0 0 0-.16-.15.16.16 0 0 0-.16.15c0 .09.08.16.16.16Z" fill="#828181"/><path d="M37.96 20.06c-.21.4-.53.7-.95.91a2 2 0 0 1 .95-.91Z" fill="#696868"/><path d="M24.1 23.25c0-.3-.07-.53-.24-.66a.57.57 0 0 1-.15-.18 5.56 5.56 0 0 0-.76-1.06.36.36 0 0 1-.09-.19l-.01-.1-.02-.14c.18.08.33.1.47.07.1-.02.11-.07.05-.15a.48.48 0 0 1-.13-.38c.02-.13.06-.14.14-.03.45.62.72 1.32.82 2.1.02.13 0 .31-.04.54l-.04.18Z" fill="#0A78AA"/><path d="m40.26 20.91.15.44-.13 1.2h-1.01c.1-.56.14-1.15.1-1.76 0-.06.01-.13.06-.2.07-.1.1-.08.1.03v.54c0 .03.02.06.06.08.03.01.06 0 .1-.02.16-.12.35-.23.57-.3Z" fill="#583B4E"/><path d="m24.1 23.25-1.27 2.6c-.01.02-.03.02-.05 0a.1.1 0 0 0-.06-.04c.1-.62.07-1.23-.08-1.84l.57-1.26c.04-.08.01-.13-.07-.16a.75.75 0 0 0-.3-.02v-1.47l.02.1c.01.07.04.13.1.19.29.33.54.68.75 1.06.03.07.09.13.15.18.17.13.25.35.24.66Z" fill="#114C7A"/><path d="m41.55 21.48-.08.93c-.1.06-.2.04-.3-.04a.22.22 0 0 1-.08-.18l.06-.87c0-.09.05-.12.14-.1.16.02.25.11.26.26Z" fill="#D8D4D2"/><path d="m34.18 22.53-.63.02a.32.32 0 0 1-.04-.1c.1 0 .19-.02.25-.09.04-.04.06-.12.06-.22a3 3 0 0 1 .08-.68c.31.12.4.48.28 1.07Zm4.14-.51c.2-.17.32-.32.3-.36-.04-.03-.21.08-.4.25-.2.16-.32.32-.3.35.03.03.21-.08.4-.24Z" fill="#696868"/><path d="m36.52 21.86.06 1.63c0 .08.04.11.12.11l3.23.05.32 1.65a.3.3 0 0 0 .24.21c.12.03.22 0 .3-.09l.1-.08c.34-.18.49-.2.45-.06a4.91 4.91 0 0 0-.22 1.7l-1.58-1.33-.3-.36c-.05-.05-.08-.04-.1.02-.23.85-.11 1.08.35.7.45.25.8.66 1.07 1.25a.86.86 0 0 0-.42.12c-.08.06-.1.13-.02.2.06.08.06.15 0 .21a.23.23 0 0 0-.07.2l.06.5-1.34.02c-.09 0-.13-.04-.13-.12l.04-3.55c0-.1-.05-.15-.15-.15h-1.81c-.1 0-.14.04-.14.13l-.02 1.5-.7-.13c-.2-.64-.64-.96-1.32-.95-1.27 0-2.49 0-3.67-.03-.12 0-.17-.06-.17-.17l.02-.41c.01-.15.1-1.08.25-1.08l2.53-.01c-.06.22-.06 1.3-.02 1.51.01.08.05.1.13.07l.63-.3c.24-.13.33-1.13.25-1.33l1.25.02c.07 0 .1-.03.1-.1l-.02-.87.7-.68Z" fill="#1B171D"/><path d="m19.97 24.98-.76 1.64c-.11.25-.22.25-.32 0l-1.26-3.2 2.34 1.56Z" fill="#828181"/><path d="m22.72 25.81-.14.44c-.26-.3-.33-.86-.2-1.7l.26-.58c.15.6.17 1.22.08 1.84Z" fill="#0D070E"/><path d="M34.5 23.72a.86.86 0 0 1-.26.85c-.28.26-.49.44-.63.54-.08.05-.12.01-.13-.12-.04-.4-.04-.8.02-1.2l1-.07Z" fill="#C3BFBD"/><path d="M40.9 23.4c-.06.73-.07 1.4-.02 2.02l-.09.17c-.08.17-.18.23-.3.17-.12-.05-.2-.19-.24-.41l-.32-1.9.98-.05Z" fill="#A45095"/><path d="M41.47 23.42a8.1 8.1 0 0 1-.13 1.88c.04-.28-.11-.24-.46.12-.05-.62-.04-1.3.03-2.02l.56.02Z" fill="#A53B73"/><path d="M22.38 24.55c-.13.84-.06 1.4.2 1.7l-1.45 3.08-.82-.27 2.07-4.5Z" fill="#696868"/><path d="m39.54 25.65-.05.36c-.46.38-.58.15-.35-.7.02-.06.05-.07.1-.02l.3.36Z" fill="#9B9A9E"/><path d="M23.95 28.6a3.38 3.38 0 0 1-1.3 2.88l-.02-1.4 2.64-5.3c.05-.11.1-.11.15 0l.86 1.77c.05.1.01.16-.1.15H24.8c-.1 0-.18.05-.23.13a5.1 5.1 0 0 0-.63 1.76Z" fill="#114C7A"/><path d="M41.12 26.98c.05.38-.03.87-.22 1.47h-.15c.09-.46.03-.86-.19-1.2a2.5 2.5 0 0 0-1.07-1.24l.05-.36 1.58 1.33Z" fill="#A53B73"/><path d="m36.56 26.32.05 3.17c0 .07.05.1.12.1H39c-.1.48-.04 1.48.18 1.79a18.1 18.1 0 0 0-1.53 0c-.3.03-.43.2-.42.5l-1.4.26c.07-.46-.15-.7-.64-.74a5.06 5.06 0 0 0-1.42.08l-.03-1.98-.01-.13c1-.12 1.63-.54 1.92-1.26.18-.44.26-.36.23-1.5v-.42l.7.13Z" fill="#0D070E"/><path d="M29.12 25.78a3.3 3.3 0 0 0 1.73.3l-1 2.37c-.1.1-.13.25-.12.48.02.34-.06.53-.22.58l-1.62-2.63c.4-.22 1.3-.92 1.23-1.1Z" fill="#231F47"/><path d="m35.64 28.1-1.41-.12a.26.26 0 0 1-.15-.06.32.32 0 0 0-.13-.06c.05-.32.04-.63-.04-.92a.65.65 0 0 1 .01-.3c.03-.09.09-.13.17-.13h1.36c.12 0 .18.08.18.22v1.37Z" fill="#9B9A9E"/><path d="m32.43 26.01-.93 2.42-1.65.02.85-2.44h1.73Z" fill="#3F2753"/><path d="M32.87 27.08v1.37l-1.37-.02.93-1.38a.97.97 0 0 1 .44.03Z" fill="#573E6F"/><path d="M33.68 26.82c.05.47.06.77.03.91-.13.63-.4.86-.84.7v-1.92c.45-.14.72-.03.81.3Z" fill="#1D1E23"/><path d="M33.9 26.83a2 2 0 0 1 .05.87c-.08.51-.35.77-.8.77-.88 0-1.83 0-2.84.03-.15 0-.24.07-.25.22l-.05.67c-.01.14-.06.15-.13.04-.14-.2-.19-.46-.15-.77-.01-.23.03-.38.12-.48l1.65-.02 1.37.02c.43.1.71-.06.84-.5.03-.1.02-.46-.03-.8a.1.1 0 0 1 .03-.06h.06l.14.01Z" fill="#C3BFBD"/><path d="M40.75 28.45c-.24.05-.45.06-.64.04l-.06-.5a.3.3 0 0 1 .07-.2c.06-.06.06-.13 0-.2-.07-.08-.06-.15.02-.21a.8.8 0 0 1 .42-.12c.22.33.28.73.19 1.2Z" fill="#5E2454"/><path d="M39.27 22h2.7a4.9 4.9 0 0 1 2.13.27c.57.32.85.82.83 1.5a52 52 0 0 0 .02 3.08c.05 1.45-.42 2.41-1.41 2.89-.3.14-1.05.22-2.23.21-.78 0-1.55.01-2.32.04l-2.26.01c-.07 0-.11-.04-.12-.12l-.05-3.93.02-1.57c0-.1.04-.14.14-.14h1.81c.1 0 .16.06.15.16l-.04 3.7c0 .1.04.14.13.14l1.34-.02a2 2 0 0 0 .63-.05h.16l1.43.04c.15 0 .28-.04.4-.15.1-.1.16-.24.16-.4v-3.6c0-.08-.03-.13-.12-.13l-1.3-.05-.56-.01-.98.03-3.23-.04c-.08 0-.12-.04-.12-.12l-.06-1.7 2.75-.03Z" fill="#FDFDFD"/><path d="M44.66 28.13a.58.58 0 0 1-.44-.18.34.34 0 0 0-.19-.1l-.95-.18-.04-.84c0-.21.1-.32.32-.3l1.12.03c.22.01.32.12.3.34l-.12 1.23Zm-6.29-.14c-.16 0-.3-.04-.44-.1a.35.35 0 0 0-.22-.03 2.7 2.7 0 0 1-.9.02l.02-.93c0-.19.1-.29.3-.3l1.02-.03c.22 0 .32.1.3.31L38.37 28Z" fill="#9B9A9E"/><path d="M44.66 28.13c-.37 1.14-1.18 1.7-2.46 1.69-1.94-.02-3.69-.01-5.24.03-.12 0-.18-.06-.18-.18l.03-1.8c.31.05.61.05.9 0a.33.33 0 0 1 .22.02c.13.06.28.1.44.1 0 .14.04.25.12.34.05.07.1.1.19.1h3.47c.52 0 .83-.26.93-.76l.95.17c.08.02.14.05.19.1.11.12.26.18.44.19Z" fill="#535356"/><path d="M15.94 22h1.16c.08 0 .14.12.17.19l.36.74 1.26 3.3c.1.27.2.27.32.02l.76-1.7 1.2-2.55h1.97c.08.03.1.1.07.18l-.57 1.32-.26.6-2.07 4.67-.1.23c-.22.6-.46.93-.72.97-.58.08-1.03.02-1.34-.18l-1.5-3.9c-.07-.17-.13-.17-.2-.01l-1.7 3.94c-.03.1-.1.18-.2.18h-1.34c-.12 0-.2-.12-.25-.23L10 22.05c0-.03 0-.05.04-.05h2.08c.04 0 .07.03.08.06l1.63 4.25c.08.2.16.2.25 0L15.94 22Z" fill="#FDFDFD"/><path d="M15.6 27.47a9.06 9.06 0 0 0-3.36-.11l-.4-1.08c-.05-.11-.01-.17.11-.17.4 0 .84 0 1.31-.02.32 0 .48.17.47.51 0 .1.04.16.13.2.05.01.1.01.14-.01a.31.31 0 0 0 .16-.22c.07-.3.24-.47.51-.49.5-.03.95-.03 1.38.02.09 0 .12.05.08.14l-.53 1.23Zm5.06-.02-3.3-.23-.38-.98c-.03-.08 0-.13.1-.15a6 6 0 0 1 1.27 0c.35 0 .52.19.5.53 0 .08.03.14.1.17.06.04.12.03.18-.01.06-.05.1-.1.1-.18a.6.6 0 0 1 .2-.39c.11-.1.25-.15.4-.15H21c.06 0 .1.03.14.08.03.05.04.1.01.15l-.5 1.16Z" fill="#9B9A9E"/><path d="m20.66 27.45-.25.51-2.8-.04-.25-.7 3.3.23Z" fill="#828181"/><path d="m15.36 28-.7 1.61a.23.23 0 0 1-.23.15H13.3a.22.22 0 0 1-.23-.16l-.63-1.74 2.92.14Zm5.04-.04-.7 1.66c-.04.12-.13.18-.26.18l-.94-.02a.25.25 0 0 1-.25-.17l-.63-1.69 2.79.04Z" fill="#535356"/><path d="m25.01 27.75-.55 3.59c-.37 0-.5.43-.36 1.3l-1.27.59-.02-1.75c.84-.71 1.29-2.78 1.23-3.83l.97.1Z" fill="#122E58"/><path d="m27.4 28.26-1.2 3.14c-.14-.05-.26-.05-.35 0a.14.14 0 0 0-.08.13l-.01 1.63c0 .07-.04.1-.11.1l-1.03-.04c-.06 0-.1-.03-.1-.09l-.07-1.8.64-3.26a4.45 4.45 0 0 1 2.3.19Z" fill="#141C39"/><path d="m21.02 28.46-.23.64c-.04.11 0 .17.12.18l1.86.09-.2 3.55c-.26.15-.35.45-.27.9.01.07-.02.1-.1.1a4.49 4.49 0 0 1-1.54-.19c-.94-.57-4.18 1.88-4.63-.66L16 30.73c0-.31.16-.49.48-.53l1.33-.16c.3.2.75.25 1.33.17.26-.04.5-.35.73-.93.04-.1.07-.18.1-.22l1.05-.6Z" fill="#535356"/><path d="M28.9 28.82 28 31.4c-.21-.08-.3.2-.25.81-.61.56-.83 1.32-.64 2.26l-.14 1.85a.3.3 0 0 1-.08.2 3 3 0 0 1-1.82.96c-.98.14-1.72.28-2.24.44l-.02-2.14 2.19.2c.2.01.32-.07.37-.25L26 33.6c.32-.52.39-1.25.21-2.2l1.4-3.7.4.9a.2.2 0 0 0 .16.12l.73.1Z" fill="#231F47"/><path d="M31.92 29.55a41.4 41.4 0 0 1-1.59 4.1 6.7 6.7 0 0 1-2.45 2.33c-.02.17-.14.35-.38.56l-.4-2.07c-.18-.94.04-1.7.65-2.26l.01 1.17c0 .18.1.26.28.26l1.48-.03c.25 0 .4-.12.44-.36.18-1.21 0-1.83-.55-1.84l.36-1.83 2.15-.03Z" fill="#5E2454"/><path d="M32.78 29.43c-.04.6-.51 1.84-.81 2.15-.07-.15-.16-.21-.27-.18-.08.02-.12.07-.13.15l-.02 2.08c-.08.33-.23.62-.44.9a6.2 6.2 0 0 0-2.7 1.98l-.53-.53a6.7 6.7 0 0 0 2.45-2.34c.28-.52 1.03-2.44 1.64-4.22h.81Z" fill="#842E6C"/><path d="m22.78 29.32.03 2.16.02 1.75-.02 2.55.02 2.14c-.04.37-.01.71.08 1.05.02.07.06.13.13.17.23.14.5.21.78.2h5.42c1.31.06 2.3.06 2.93 0 .26-.03.48-.19.66-.48.27-.01.37.04.3.16.01.34-.16.57-.5.7-.22.1-.45.13-.7.12-2.84-.08-5.52-.08-8.03 0-.51.03-.93-.1-1.25-.39a.22.22 0 0 1-.08-.24c.03-.11 0-.19-.1-.24a.18.18 0 0 1-.12-.18v-5.87l-.04-3.55.47-.05Z" fill="#020304"/><path d="m29.69 29.52-.28 1.89-1.4-.01.7-1.87.98-.01Z" fill="#3F2753"/><path d="M33.03 29.6a52.48 52.48 0 0 0-.02 3.83c.01.26-.02.5-.1.71-.15.36-.22.58-.23.66a5.8 5.8 0 0 0-.04.72c-.22-.08-.42-.2-.6-.37-.1-.1-.38-.2-.84-.32l-.09-.3c.21-.28.36-.57.44-.9.12.07.22.07.3.01.05-.04.07-.1.07-.22l.05-1.84c.3-.31.47-1.42.51-2.03.27-.04.45-.03.55.04Z" fill="#A53B73"/><path d="M33.72 29.37v1c-.19-.07-.29.03-.28.32 0 .89.05 1.77.13 2.64l.28.24c-.02.1-.09.22-.2.37-.08.1-.14.2-.16.26-.1.27-.1.57-.03.88.01.08.07.11.15.1.27-.03.42.06.44.28.06.5.16.87.29 1.09a6.63 6.63 0 0 0 2.65 4.1A1.8 1.8 0 0 1 35.44 42a.29.29 0 0 1-.21-.05 4.67 4.67 0 0 1-1.97-2.88c-.01-.05-.06-.07-.12-.05.06-.12-.04-.17-.3-.16.12-.4.1-.83-.04-1.28l-.16-2.06c0-.24.01-.48.04-.72.01-.08.08-.3.22-.66.09-.21.12-.45.11-.71-.04-.87-.03-2.81.02-4.07a2 2 0 0 1 .69 0Z" fill="#111217"/><path d="m33.73 30.37.03 1.1a4.98 4.98 0 0 0-.19 1.86 28.8 28.8 0 0 1-.13-2.64c0-.29.1-.4.29-.32Z" fill="#9B9A9E"/><path d="M40.6 31.03c-.02 0-.03-.02-.03-.04v-.02c.02-.2.18-.29.48-.26l.1.01c.3.03.43.14.41.34v.02c0 .02-.02.03-.04.03l-.92-.08Z" fill="#141C39"/><path d="m24.46 31.34.07 1.79c0 .06.04.09.1.1l1.03.03c.07 0 .11-.03.11-.1v-1.63c0-.07.04-.1.1-.14.08-.04.2-.04.34 0 .18.96.1 1.7-.21 2.2l-1.52.02c-.21 0-.33-.1-.38-.28-.04-.2-.04-.44 0-.7-.13-.86-.01-1.3.36-1.3Zm11.36.8v1.06c0 .11-.03.2-.12.28a.4.4 0 0 1-.29.11l-1.56-.02-.28-.24a4.8 4.8 0 0 1 .2-1.85c.43-.1.9-.12 1.4-.08.5.03.72.28.65.74Zm3.35-.76c.14.08.21.18.2.31 0 .08-.04.12-.13.12l-.6-.03-.78.01c-.11 0-.17.06-.17.17v.09c-.01.12.05.18.18.18h.65c.44-.01.7.1.8.31.18.42.1.75-.22 1a.3.3 0 0 1-.18.07h-1.66c-.11 0-.18-.04-.2-.15l-.02-.06c-.03-.1.02-.15.13-.15l1.63.03c.1 0 .15-.05.15-.14l.02-.37c0-.08-.04-.11-.12-.12l-1.01-.02c-.42 0-.63-.25-.62-.74-.01-.31.13-.48.42-.5.24-.03.75-.03 1.53-.01Zm-20.4 2.09a4 4 0 0 1-1.7.13c-.1 0-.18-.08-.24-.22-.05-.1-.02-.15.1-.14l1.34.04c.1 0 .14-.04.14-.12l.02-.43c0-.05-.02-.08-.08-.08l-1-.02c-.33 0-.5-.16-.5-.48l.01-.28c0-.31.17-.46.49-.46l1.27-.01c.1 0 .17.05.19.15l.03.19c.02.1-.03.13-.13.11a4.7 4.7 0 0 0-1.22-.08c-.14 0-.21.08-.22.21v.08c0 .12.05.18.17.18l.95.03c.23.01.37.12.43.32.07.22.05.51-.05.88Zm2.65-1.6v1.75c0 .06-.04.09-.1.06l-.23-.07c-.03-.01-.05-.03-.05-.07v-1.68c0-.05-.02-.07-.07-.07h-.83c-.06 0-.08-.03-.07-.09l.04-.22c0-.04.03-.06.07-.06l1.81.01c.05 0 .08.02.08.07l.01.21c0 .05-.02.08-.07.08h-.51c-.05 0-.08.03-.08.08ZM28 31.4h1.41c.55.02.73.64.55 1.85-.04.24-.19.36-.44.36l-1.48.03c-.18 0-.28-.08-.28-.26l-.01-1.17c-.04-.61.04-.89.25-.81Zm3.97.18-.05 1.84c0 .11-.02.18-.07.22-.08.06-.18.06-.3-.01l.02-2.08c0-.08.05-.13.13-.15.11-.03.2.03.27.18Z" fill="#FDFDFD"/><path d="m43.98 33.73.14 2.46-.53.97c-.05.1-.13.11-.22.05l-2.04-1.32a2.77 2.77 0 0 0-.35-.3c-.4-.3-.59-.61-.57-.95.53.17 1.08.46 1.65.9h.06c.45-.14.79-.38 1.02-.7.26-.38.3-.76.14-1.17a.17.17 0 0 0-.16-.11c-.3-.03-.5-.13-.58-.33-.06-.14-.08-.24-.06-.31.03-.09.08-.1.15-.04l.3.25c.08.07.12.05.12-.06 0-.09-.05-.15-.14-.2a.15.15 0 0 1-.09-.12 2.07 2.07 0 0 0-.43-1.08c-.01-.02 0-.04.01-.06a.14.14 0 0 1 .06-.02h.05a4.75 4.75 0 0 1 1.47 2.14Z" fill="#323234"/><path d="m29.35 31.8-.94-.01c-.1 0-.19.07-.19.17v1.12c0 .1.08.18.18.18h.94c.1 0 .19-.07.19-.17v-1.12c0-.1-.07-.18-.18-.18Z" fill="#5E2454"/><path d="M35.17 31.79h-.94a.2.2 0 0 0-.2.2v1.08c0 .11.09.2.2.2h.94a.2.2 0 0 0 .2-.2v-1.09a.2.2 0 0 0-.2-.19Z" fill="#111217"/><path d="M41.68 32.06c.04.2.2.34.46.45.13.05.13.1-.01.14-.18.06-.34.02-.45-.1a.56.56 0 0 1-.14-.46c0-.03.02-.05.05-.05h.06c.02 0 .03 0 .03.02Z" fill="#2A2B31"/><path d="M24.1 32.63c-.04.26-.04.5 0 .7.05.19.17.28.38.28L26 33.6l-.63 2.13c-.05.18-.18.26-.37.25l-2.19-.2.02-2.55 1.27-.6Z" fill="#141C39"/><path d="M40.98 33.65c.18.24.5.31.72.16.22-.14.25-.46.07-.7-.17-.24-.5-.31-.72-.16-.22.14-.25.46-.07.7Z" fill="#535356"/><path d="m22.34 32.92.01 4.62a.43.43 0 0 1-.14.07c-.09-.02-.14-.06-.15-.12-.07-.44-.06-.92.04-1.44l-.06-1.4c0-.08-.04-.13-.12-.16-.5-.2-1.01-.28-1.54-.25a5.8 5.8 0 0 0-2.34.13l-.85-.06c-.61-.3-.89-.71-.82-1.24.12.43.3.72.56.85.33.22.59.3.77.24 1-.32 2.1-.46 3.3-.43.2.14.53.2.98.2.07 0 .1-.04.1-.11-.09-.45 0-.75.26-.9Z" fill="#828181"/><path d="M40.4 34.64a1.6 1.6 0 0 0-.07-.03l-.88-.28c.1-.11.22-.2.36-.26.03.05.09.07.15.05.04 0 .07-.02.1-.06l1.7.19c.09 0 .14-.03.16-.1l.05-.18c.03.37.23.56.61.56.03 0 .05-.01.07-.04a.1.1 0 0 0 0-.07.08.08 0 0 0-.05-.07.54.54 0 0 1-.42-.41c-.02-.06-.05-.09-.12-.09l-.09.01.57-.63c.09.2.28.3.58.33.08 0 .13.04.16.1.17.42.12.8-.14 1.17-.23.33-.57.57-1.02.71h-.06a5.55 5.55 0 0 0-1.65-.9Z" fill="#535356"/><path d="M21 33.73c-1.2-.03-2.3.11-3.3.43-.18.05-.44-.02-.77-.24l.14-.32c.66.08 1.23.03 1.7-.13.89-.2 1.63-.1 2.23.26Z" fill="#2A2B31"/><path d="M40.05 34.06a.13.13 0 0 1-.09.06c-.06.02-.12 0-.15-.05-.03-.1-.03-.17 0-.23.06-.09.12-.1.18-.01.04.05.06.13.06.23Z" fill="#9B9A9E"/><path d="M43.98 33.73c.23.38.48.94.74 1.7.3.85.36 1.6.19 2.26-.1.35-.38.83-.85 1.42a4.96 4.96 0 0 0-1.89-2.3l1.4.74c.05.03.11.03.17 0 .06-.02.1-.06.11-.12l.27-1.24-.14-2.46Z" fill="#1B171D"/><path d="M41.97 33.97c.05-.08.05-.12 0-.1l.1-.02c.06 0 .1.03.11.09.05.21.2.35.42.41.03.01.05.03.06.07a.1.1 0 0 1-.01.07.08.08 0 0 1-.07.04c-.38 0-.58-.19-.61-.56Z" fill="#2A2B31"/><path d="m20.38 34.24-.5.2c-.56.2-.95.37-1.2.5a3 3 0 0 0-.9.7c-.45.05-.52.14-.22.28l-.39.17-.3-.23a.21.21 0 0 0-.19-.04.25.25 0 0 0-.16.13.3.3 0 0 1-.18.15c-.64.22-1.09.53-1.35.95-.06.1-.06.2.02.28l.1.13c.05.06.05.13-.01.19l-1.96 1.97-1.1-1.1a7.72 7.72 0 0 1 2.23-2.19c.84 0 1.61-.32 2.32-.94a10.96 10.96 0 0 1 1.45-1.02 5.8 5.8 0 0 1 2.34-.13Z" fill="#516170"/><path d="m39.45 34.33.88.28-.54.68-.46.73c.06-.1.08-.21.06-.3a.22.22 0 0 0-.12-.17 3.7 3.7 0 0 0-1.04-.39c-.09-.01-.14.02-.17.1l-.33.79c-.22-.03-.44.01-.64.12-.03-.05-.08-.07-.14-.04a.22.22 0 0 0-.15.15c-.02-.22 0-.42.05-.6.18-.04.19-.18.03-.42-.06-.1-.23-.28-.52-.55a.14.14 0 0 1-.02-.18c.09-.15.24-.22.46-.21-.05.12 0 .2.13.26.1.04.18.02.24-.06.04-.06.03-.13-.04-.21a.1.1 0 0 1 .03-.07.14.14 0 0 1 .15-.05c.73.16 1.44.2 2.14.14Z" fill="#434243"/><path d="m18.04 34.37-.03.02c-.61.38-1.09.71-1.42 1a3.5 3.5 0 0 1-2.32.94c.9-.79 1.88-1.46 2.92-2.02l.85.06Z" fill="#64788D"/><path d="M20.38 34.24a3.7 3.7 0 0 1 1.54.25c.08.03.12.08.12.16l.06 1.4-1.45-.5a.23.23 0 0 0-.21.03c-1.35.85-2.45 1.12-3.33.81l.1-.02c.1-.02.11-.07.06-.15l-.1-.13.4-.17c.25-.05.32-.14.2-.27.23-.27.53-.51.92-.71a11.5 11.5 0 0 1 1.69-.7Z" fill="#535356"/><path d="M37.13 34.3c.07.09.08.16.04.22-.06.08-.14.1-.24.06-.14-.05-.18-.14-.13-.26.09-.08.2-.08.33-.01Z" fill="#D8D4D2"/><path d="m27.1 34.47.4 2.07a2.1 2.1 0 0 1-.74.9c-.63.41-1.1.75-1.42 1a.46.46 0 0 1-.2.1 2.1 2.1 0 0 0-1.09.55.3.3 0 0 0-.23.25 1.4 1.4 0 0 1-.78-.2.28.28 0 0 1-.13-.17c-.1-.34-.12-.68-.08-1.05.52-.16 1.26-.3 2.24-.44a3 3 0 0 0 1.82-.97.3.3 0 0 0 .08-.19l.14-1.85Z" fill="#303254"/><path d="m31.11 34.52.09.3-1.63 1.57c-.17.14-.4.36-.72.65-.57.53-1 .9-1.32 1.1-.6.4-1.24.8-1.92 1.2h-1.79a.3.3 0 0 1 .23-.25c.42.06.71.05.89-.05a8.3 8.3 0 0 1 1.35-.63c.26-.1.52-.22.79-.36.23-.12.45-.3.64-.55.25-.33.48-.66.69-1a6.2 6.2 0 0 1 2.7-1.98Z" fill="#843F8F"/><path d="m40.33 34.61.08.03c-.02.34.17.66.57.96a2 2 0 0 1 .35.3l-.93.87c-.1.08-.18.08-.26-.02-.15-.17-.23-.45-.24-.82 0-.28-.04-.5-.11-.64l.54-.68Zm-3.51.96c0 .05-.01.08-.03.1-.05.04-.08.04-.1-.02-.16-.46-.56-.67-1.2-.61-.26.02-.52.16-.8.4-.09.09-.09.17 0 .26.1.09.15.2.15.33 0 .11.06.16.18.13l1.42-.27c.05 0 .1 0 .13.05a.1.1 0 0 1 .02.13.8.8 0 0 1-.29.32c-.1.06-.14.03-.13-.08 0-.03 0-.07-.03-.1-.04-.07-.1-.1-.2-.07l-.66.2a.13.13 0 0 0-.1.1c-.02.05 0 .1.04.13.22.19.31.36.27.51-.8-.21-1.16-.64-1.08-1.27.04-.31.17-.56.4-.75.2-.18.45-.28.74-.3.28-.02.54.03.77.17.25.14.42.36.5.64Z" fill="#111217"/><path d="M31.2 34.83c.46.12.74.22.84.32.18.16.38.29.6.37l.16 2.05-.58-.19c-.98-.87-1.86-1.2-2.65-.99l1.63-1.56Z" fill="#A45095"/><path d="m36.82 35.57.03.12c-.05.17-.07.37-.05.6-.15.55-.58.81-1.31.79.04-.15-.05-.32-.27-.51a.13.13 0 0 1-.04-.14.13.13 0 0 1 .1-.1l.67-.2c.08-.02.15 0 .2.08l.02.1c0 .11.04.14.13.08a.8.8 0 0 0 .29-.32.1.1 0 0 0-.02-.13.13.13 0 0 0-.13-.05l-1.42.27c-.12.03-.18-.02-.18-.13a.44.44 0 0 0-.15-.33c-.09-.09-.09-.17 0-.25.28-.25.54-.39.8-.41.64-.06 1.04.15 1.2.61.02.06.05.06.1.03.02-.02.03-.06.03-.11Z" fill="#323234"/><path d="M39.33 36.02a3.6 3.6 0 0 0-.98-.17.28.28 0 0 0-.2.08c-.15.13-.29.17-.42.12l.33-.8c.03-.07.08-.1.17-.09.34.07.68.2 1.04.4.06.03.1.08.12.15.02.1 0 .2-.06.31Z" fill="#828181"/><path d="M39.79 35.3c.07.13.11.35.11.63 0 .37.09.65.24.82.08.1.16.1.26.02l.93-.88 2.04 1.32c.1.06.17.05.22-.05l.53-.97-.27 1.24a.18.18 0 0 1-.11.13.2.2 0 0 1-.18 0l-1.39-.75c-.3-.05-.6.01-.88.18a.16.16 0 0 0-.08.13c0 .06.03.1.08.14.17.1.31.26.44.45-.2.08-.4-.05-.56-.4-.06-.1-.14-.12-.25-.09l-2.91.9c-.48.15-.77.58-.87 1.28a2.52 2.52 0 0 1-2.02-2.25c.97.25 1.62-.08 1.97-.98.2-.11.42-.15.64-.12.13.05.27 0 .42-.12a.28.28 0 0 1 .2-.07c.34 0 .66.05.98.16l.46-.73Z" fill="#2A2B31"/><path d="M22.1 36.05c-.1.52-.12 1-.04 1.44.01.06.06.1.15.12.05.03.1.07.11.1.04.08.02.12-.06.15-.19.06-.27.2-.25.43-.25-.17-.42-.4-.5-.68a.2.2 0 0 1 .04-.21l.06-.07c.1-.1.07-.15-.07-.15-.1 0-.2.03-.3.08-.96.56-2.02 1.27-3.17 2.12a.07.07 0 0 1-.09 0l-.04-.04v-.02a26.1 26.1 0 0 1 2.65-1.95c.08-.05.2-.11.37-.17.25-.08.44-.21.57-.38.07-.1.05-.12-.06-.09-.7.21-1.64.77-2.82 1.7l-.57.43a6.76 6.76 0 0 0-3.64.46c-.2.08-.51.15-.94.2l1.8-1.92c.03-.04.08-.05.13-.02.34.16.7-.02 1.1-.54.15-.18.16-.34.02-.49.06-.1.1-.2.1-.33l.46.17c.88.31 1.98.04 3.33-.81a.23.23 0 0 1 .2-.03l1.46.5Z" fill="#424655"/><path d="M17.77 35.65c.12.13.05.22-.2.27-.3-.14-.24-.23.2-.27Z" fill="#9B9A9E"/><path d="m17.17 36.09.1.13c.05.08.03.13-.06.15l-.1.02-.45-.17c-.11-.07-.22-.08-.34 0-.3.16-.52.41-.65.74-.07.2-.05.2.07.04.16-.23.43-.38.82-.45.13.15.12.31-.02.5-.4.5-.77.69-1.1.53-.06-.03-.1-.02-.14.02l-1.8 1.91-.7.67c-.12-.17 0-.36.34-.56l1.96-1.97c.06-.06.06-.13 0-.2l-.1-.12c-.07-.09-.07-.18 0-.28.25-.41.7-.73 1.34-.95a.3.3 0 0 0 .18-.15c.03-.06.09-.1.16-.13a.2.2 0 0 1 .2.04l.3.23Z" fill="#111217"/><path d="m27.88 35.98.53.53c-.21.33-.44.66-.69.99-.2.25-.4.43-.64.55-.27.14-.53.25-.8.36-.46.17-.9.38-1.34.63-.18.1-.47.11-.89.05.3-.3.66-.48 1.09-.56a.45.45 0 0 0 .2-.09c.32-.25.8-.59 1.42-1 .32-.21.56-.51.74-.9.24-.2.36-.4.38-.56Z" fill="#573E6F"/><path d="M16.66 36.22a.84.84 0 0 1-.1.33c-.39.07-.66.22-.82.45-.12.17-.14.16-.07-.04.13-.33.34-.58.65-.75a.3.3 0 0 1 .34.01Z" fill="#516170"/><path d="M32.22 37.38a7.28 7.28 0 0 0-2.98 1.96H25.6c.68-.4 1.32-.8 1.92-1.2.31-.2.75-.57 1.32-1.1l.72-.65c.79-.2 1.67.12 2.65.99Z" fill="#B263AD"/><path d="M37.95 36.62c-.04 0-.05-.02-.06-.05v-.04c-.01-.13.07-.2.24-.22l.73-.06c.17-.02.26.04.27.17v.04c.01.03 0 .05-.03.05l-1.15.1Z" fill="#9B9A9E"/><path d="M35.12 37.15a2.52 2.52 0 0 0 2.02 2.25L37 40.64a6.63 6.63 0 0 1-2.65-4.09c.19.26.45.45.78.6Z" fill="#1B171D"/><path d="M22 38.3c.08.19.08.38 0 .56l-1.2.65c-.08.05-.08.08 0 .1l.5.16-.7.2c-.18-.08-.33-.1-.46-.06l-.9.32c-.9.32-1.58.53-2.05.64-.77.17-1.49.2-2.15.11a10.8 10.8 0 0 0 3.04-2.12l.57-.44a9.57 9.57 0 0 1 2.82-1.69c.1-.03.13 0 .06.09-.13.17-.32.3-.57.38a1.7 1.7 0 0 0-.37.17 26.34 26.34 0 0 0-2.65 1.97l.04.04c.03.02.06.02.09 0a33.27 33.27 0 0 1 3.18-2.12.62.62 0 0 1 .3-.07c.13 0 .15.04.07.14l-.07.07a.2.2 0 0 0-.05.2c.09.29.26.52.5.7Z" fill="#1D1E23"/><path d="M42.17 36.8a4.96 4.96 0 0 1 1.89 2.31c-.44.34-.95.2-1.53-.45l-.8-.95c-.13-.2-.27-.34-.44-.45a.15.15 0 0 1-.08-.14c0-.05.03-.1.08-.13.29-.17.58-.23.88-.18Z" fill="#111217"/><path d="m32.22 37.38.58.2c.15.45.16.88.03 1.28-.18.3-.4.45-.66.48-.64.06-1.62.06-2.93 0a7.28 7.28 0 0 1 2.98-1.96Z" fill="#D6508D"/><path d="m33.6 37.65.12.4c.25.8.46 1.4.64 1.78.3.63.68 1.13 1.12 1.5.03.02.03.04 0 .06l-.06.06c-.02.02-.05.02-.08 0a4.88 4.88 0 0 1-1.96-3.93c0-.07.02-.09.08-.04.07.06.12.11.13.17Z" fill="#323234"/><path d="M13.14 39.62c-.34.2-.46.39-.33.56a.33.33 0 0 0-.03.14c-.12-.12-.3-.2-.51-.25a.4.4 0 0 1-.2-.1c-.43-.44-.44-.92-.02-1.46l1.1 1.1Z" fill="#535356"/><path d="M18.08 38.86c-.9.89-1.91 1.6-3.04 2.12l-1.68-.11a2.13 2.13 0 0 1-.58-.55c0-.06 0-.11.03-.14l.69-.67c.43-.04.74-.1.94-.2a6.76 6.76 0 0 1 3.64-.45Z" fill="#434243"/><path d="M22 38.86c.25.17.4.39.45.64.02.07-.01.11-.09.12l-1.07.15-.48-.15c-.09-.03-.1-.06-.01-.1l1.2-.66Z" fill="#2A2B31"/><path d="M20.6 39.96c-1.1.41-2.2.82-3.29 1.21a9.36 9.36 0 0 1-3.33.6c-.48 0-.83-.2-1.05-.57-.05-.09-.03-.16.06-.21.1-.06.22-.1.37-.12l1.68.11c.66.1 1.38.06 2.15-.11.47-.1 1.15-.32 2.05-.64l.9-.32a.67.67 0 0 1 .45.05Z" fill="#0D070E"/><path d="m26.76 23.43.98 2 .72 1.57 1.05 2.23c.1.15.12.26.08.34-.03.06-.06.06-.09 0l-.7-1.4c-.09-.33-.2-.54-.33-.63l-.62-1.3a.23.23 0 0 0-.22-.15l-1.38.01c-.1 0-.14.05-.1.15l.24.52c.04.1 0 .15-.1.16a6.7 6.7 0 0 1-1.1 0c-.45-.04-.68.19-.68.67l-.35.67c-.04.1-.01.14.09.14l3 .06.56 1.14c.04.1.11.14.21.14h1.45c.02 0 .03-.01.02-.04-.01-.02-.01-.04.01-.06.03-.03.06-.03.08.01.06.12.16.15.27.11a.56.56 0 0 1 .2-.03c1.01 0 2.07.01 3.16.04.6.01 1.1-.1 1.51-.34.57-.34.88-.88.92-1.61v-1.1c0-.12-.07-.18-.19-.18H34.1c-.08 0-.14.03-.17.1a.43.43 0 0 0-.01.25 7.2 7.2 0 0 1-.2-.01.1.1 0 0 0-.03.06c-.1-.25-.31-.26-.81-.23H30.7a3.26 3.26 0 0 1-1.74-.34 11.6 11.6 0 0 1-.15-3.03c.25-.42.53-.75.85-1 .3-.19.65-.3 1.05-.35l5.29.02v1.77c0 .07-.19.21-.26.21h-4.77c-.16 0-.24.02-.25.18l-.02.42c0 .12.05.18.17.18 1.18.03 2.4.04 3.67.03.68 0 1.13.32 1.33.99v.43a7.3 7.3 0 0 1-.23 2.46c-.29.75-.93 1.19-1.92 1.3h-5.18l-.73-.1a.2.2 0 0 1-.17-.14l-.39-.92a4.3 4.3 0 0 0-2.29-.2l-.97-.1c.07-.5.26-1.06.58-1.66a.22.22 0 0 1 .21-.12h1.25c.1 0 .14-.05.1-.15l-.79-1.69c-.04-.1-.09-.1-.14 0l-2.42 5.03-.47.06-1.29-.1c-.12 0-.16-.06-.12-.18l.23-.66 1.45-3.2.15-.45a.1.1 0 0 1 .05.03c.02.03.04.03.05 0l1.27-2.69c.13-.15.21-.28.26-.4.07-.22.22-.32.45-.32l1 .01c.14 0 .25.07.33.2l.62 1.2Z" fill="#FDFDFD"/><path d="M23.89 27.22a4.23 4.23 0 0 1-1.44-.38c.02-.27.1-.48.22-.64.05-.08.13-.11.22-.11l1.36.01c.05 0 .09.02.11.06.03.04.03.08 0 .13l-.47.93Zm4.58.32-3.96.06c0-.48.23-.7.69-.67.41.03.78.03 1.09 0 .1-.01.14-.07.1-.16l-.24-.52c-.04-.1 0-.15.1-.15h1.38a.2.2 0 0 1 .22.13l.62 1.31Z" fill="#9B9A9E"/><path d="M22.45 26.84c.45.21.92.34 1.44.38l-.34.65c-.62.16-1.16.14-1.63-.07.14-.42.31-.75.53-.96Z" fill="#828181"/><path d="M28.47 27.54c.13.09.24.3.33.63l-1.55.3-3-.06c-.1 0-.13-.05-.09-.14l.35-.67 3.96-.06Z" fill="#696868"/><path d="M33.95 27.64c.05 0 .1.02.13.04.05.03.1.05.15.05l1.4.1a1.87 1.87 0 0 1-.9 1.6 2.8 2.8 0 0 1-1.52.35 126.9 126.9 0 0 0-3.17-.04.56.56 0 0 0-.19.03c-.11.04-.2 0-.27-.11-.02-.04-.05-.04-.08-.01-.02.02-.02.04-.01.06.01.03 0 .04-.02.04h-1.45a.22.22 0 0 1-.21-.14l-.57-1.14 1.56-.3.7 1.4c.03.06.06.06.1 0 .03-.08 0-.19-.1-.34.17-.05.25-.25.23-.6-.04.33.01.6.15.8.07.12.12.1.13-.03l.05-.7c.01-.15.1-.23.25-.23a159 159 0 0 1 2.85-.03c.44 0 .7-.27.8-.8Zm-12.03.16c.47.2 1.01.23 1.63.07l-.77 1.68a.3.3 0 0 1-.3.2l-1.26.02a.14.14 0 0 1-.13-.07.13.13 0 0 1 0-.14l.83-1.76Z" fill="#535356"/><defs><linearGradient id="a" x1="0" y1="22.78" x2="52.41" y2="22.78" gradientUnits="userSpaceOnUse"><stop stop-color="#222E46"/><stop offset="1" stop-color="#47194A"/></linearGradient></defs></svg>