<svg width="224" height="224" viewBox="0 0 56 56" xmlns="http://www.w3.org/2000/svg"><path d="M28.8 11A17.04 17.04 0 0 1 45 27.08v1.8A17.02 17.02 0 0 1 28.78 45h-1.56A16.99 16.99 0 0 1 11 28.66v-1.32c.34-5.46 2.62-9.79 6.86-12.98A16.75 16.75 0 0 1 27.23 11h1.57Z"/><path d="M30.3 26.61c-.9-.52-1.4-.84-1.5-.94a11.8 11.8 0 0 0-1.45-1.16 2.83 2.83 0 0 1-.53-.5 1.72 1.72 0 0 0-1.44-.57c-.36 0-.61.02-.77.05-.25.04-.48.13-.69.27-.34.22-.6.43-.79.63-.12.13-.32.3-.58.5-.24.18-.42.32-.53.43a.09.09 0 0 1-.09.02l-.33-.1c-.04-.01-.06-.04-.06-.07v-1.61c0-.04.02-.06.06-.06.64.02 1.2-.12 1.7-.4.22-.13.46-.39.7-.78l.1-.18c.11-.16.17-.3.16-.4 0-.3-.17-.54-.48-.7a3.69 3.69 0 0 0-.91-.28c-.31-.07-.61-.05-.9.05h-.04a5.37 5.37 0 0 1 1.17-2.27c.13-.16.52-.47 1.15-.93.2-.15.48-.3.83-.43.25-.1.53-.23.87-.39.18-.08.46-.15.85-.2a11.53 11.53 0 0 1 1.64-.03c.09 0 .22-.02.39-.05l.33-.05c.96-.02 1.89.12 2.8.43.22.07.38.15.46.21.3.23.53.39.7.49.25.15.46.34.63.56.32.42.6.86.83 1.32.13.25.24.6.34 1.05l.1.47c.13.55.2.98.22 1.3 0 .15.03.3.06.45.04.18.05.33.05.45-.03.38-.02.71.04 1 .06.3.1.62.1.97 0 .37.07.78.18 1.24l.32 1.26c.08.3.11.71.11 1.27v3.88c-.02.34.01.7.09 1.08.05.28.07.67.05 1.2 0 .13.02.32.06.57.04.24.06.42.06.55 0 .12.01.27.04.46l.14.96c.06.33.08.58.08.76a4.68 4.68 0 0 0 .1 1.27c.1.43.14.76.15.98.01.29.05.57.11.85.01.04 0 .07-.04.09-1.14.76-2.39 1.37-3.75 1.83-.05.02-.07 0-.08-.05l-.14-1.13a67.6 67.6 0 0 1-.1-.92 6.92 6.92 0 0 0-.09-.62 2.3 2.3 0 0 1-.05-.62V38.4c0-.17.02-.36.06-.55.05-.26.08-.45.08-.55v-3.03c0-.34-.06-.75-.2-1.24-.25-.92-.57-1.8-.96-2.66a3.9 3.9 0 0 0-1.26-1.56.78.78 0 0 1-.27-.3c-.06-.13-.1-.21-.11-.26a.49.49 0 0 1-.03-.31c.02-.07.06-.18.14-.32l.07-.16c.08-.17.11-.42.1-.75a.1.1 0 0 0-.05-.09Z" fill="#2DB990"/><path d="M32.1 23.54a3.15 3.15 0 0 1-2-.19 1.6 1.6 0 0 1-.48-.23c-.28-.23-.38-.5-.3-.82.08-.32.3-.52.63-.62l.78-.23c.3-.1.57-.15.79-.13.4.02.8.1 1.2.25.5.18.82.4.99.67.1.18.14.36.1.55a.67.67 0 0 1-.32.44c-.26.16-.5.24-.74.25-.29.01-.5.03-.66.06Z"/><path d="M21.76 21.6c.1.03.25.03.45.01h.47c.15.03.3.08.45.14.05.02.08.05.1.1.01.05.01.1-.01.14a.6.6 0 0 1-.32.3c-.43.18-.86.12-1.3-.18a.13.13 0 0 1-.06-.09.75.75 0 0 1 .02-.28c.02-.1.1-.15.2-.13ZM31.26 22.84c-.33 0-.65-.11-.96-.33a.11.11 0 0 1-.05-.09c0-.03.01-.07.04-.1a.8.8 0 0 1 .44-.2c.1-.02.52-.02 1.27-.01.12 0 .25.02.37.07.1.03.13.1.08.2l-.22.54c-.02.03-.04.04-.09.04-.1 0-.22-.03-.39-.06a3.1 3.1 0 0 0-.5-.06ZM18.82 30.37a.5.5 0 0 0 .28-.17c.33-.42.62-.76.87-1.01.28-.28.5-.57.67-.86.4-.71.67-1.2.8-1.48.12-.26.43-.58.91-.95.23-.18.39-.31.48-.4.23-.23.44-.4.63-.5.37-.2.6-.32.72-.37h.05c.02.02.03.03.03.06v.61c0 .05.03.08.08.08.33 0 .67-.12 1.03-.38.23-.16.6-.32 1.13-.48a.1.1 0 0 1 .1.03l.13.13.38.35 1.11.8c.16.12.28.23.34.34l.64.77c.09.1.16.26.22.47a.1.1 0 0 1-.02.1c-.23.26-.38.42-.47.48-.38.28-.69.59-.93.93-.14.21-.24.45-.32.74-.12.46-.26.79-.4.99-.24.33-.57.79-.97 1.38a.98.98 0 0 1-.37.28c-.11.05-.26.08-.45.08h-1.07a2.4 2.4 0 0 1-.78-.13 5.57 5.57 0 0 0-1.17-.24c-.1 0-.24-.03-.43-.07-.1-.03-.24-.04-.43-.05-.44-.02-1.08-.03-1.93-.02-.53 0-.96.07-1.29.2-.3.11-.58.18-.83.2-.05 0-.08-.02-.08-.07.02-.25.1-.5.26-.76.19-.32.5-.72.93-1.22.08-.1.13-.09.12.04l-.01.06c-.01.04 0 .05.04.04Z" fill="#fff"/><path d="M22.97 34.26c.14-.05.27-.18.4-.39a.11.11 0 0 1 .09-.06h.18c.13 0 .23 0 .28-.02.78-.17 1.51-.36 2.2-.56.05-.01.14-.1.27-.23l1.17-1.22a5.2 5.2 0 0 0 .64-1.12c.17-.42.38-.81.62-1.17.07-.1.14-.26.23-.48.13-.32.27-.55.42-.68.05-.04.1-.04.14.01.41.54.82 1.05 1.23 1.52.34.4.66.96.94 1.68.14.38.33 1 .56 1.89.08.32.12.67.11 1.06v3.24c0 .12-.02.3-.06.51-.04.2-.06.36-.06.47v1.59c0 .21.02.42.06.6.05.24.07.44.06.6-.01.17.01.44.07.8a6 6 0 0 1 .07.66c0 .19.03.38.06.56.01.04 0 .06-.04.07l-.62.19c-3.55.86-7 .59-10.35-.81-.04-.02-.05-.05-.05-.08.06-1 .08-2.23.06-3.69a5.32 5.32 0 0 1 .3-1.92c.11-.27.18-.53.22-.8.04-.36.19-.89.44-1.6l.17-.49a.13.13 0 0 1 .07-.08l.12-.05Z" fill="#E02155"/><path d="M41.73 19.27a16.17 16.17 0 0 1 1.15 15.29 16.32 16.32 0 0 1-5.38 6.63l-.02-.03a5.5 5.5 0 0 1-.07-1.23c.01-.13-.02-.35-.08-.67a7.25 7.25 0 0 1-.06-1.53c0-.24-.02-.53-.08-.86-.15-.86-.26-1.43-.33-1.71a4.21 4.21 0 0 1-.1-1.07v-4.43c0-.3-.03-.63-.08-1l-.1-1c-.1-.65-.23-1.3-.37-1.95a5.23 5.23 0 0 1-.08-.63c0-.08-.02-.2-.05-.37a3.31 3.31 0 0 1-.06-.8 6.38 6.38 0 0 0-.14-1.75 4.24 4.24 0 0 0-.1-.56c-.2-.8-.43-1.6-.7-2.41a6.16 6.16 0 0 0-1.34-2.03 2.78 2.78 0 0 0-.93-.55c-.75-.27-1.49-.5-2.22-.65a4.06 4.06 0 0 0-.76-.06 6.7 6.7 0 0 1-.94-.05c-.14.02-.26.02-.36 0a8.83 8.83 0 0 0-1.58-.06c-.32.01-.64.07-.94.18-.68.25-1.26.49-1.73.71-.2.1-.43.27-.68.52l-.93.93c-.3.29-.49.53-.59.72a18.64 18.64 0 0 0-.85 1.87c-.06.15-.3.38-.7.7-.3.25-.4.57-.3.98.03.13.12.25.26.37.34.29.52.61.52.98v.23c0 .5-.03.87-.1 1.12-.04.09-.11.23-.23.41-.3.45-.44.93-.44 1.45 0 .25-.03.46-.1.6-.22.5-.52.88-.9 1.12-.36.23-.62.45-.77.65-.74.88-1.24 1.6-1.5 2.12-.13.29-.17.57-.1.84.06.27.23.5.5.69.35.25.72.43 1.12.52a10.59 10.59 0 0 0 1.37.2c.34.02.69.07 1.04.14.06.02.1.05.1.1.02.49.01.92-.05 1.3l-.3 2.13c-.01.07-.02.18-.01.32 0 .17 0 .3-.03.38a75.98 75.98 0 0 0-.77 3.91c0 .05-.03.06-.08.03a16.24 16.24 0 0 1-5.45-22.78 15.87 15.87 0 0 1 6.11-5.61 16.11 16.11 0 0 1 8.1-1.87 16 16 0 0 1 7.54 2.13 15.97 15.97 0 0 1 5.67 5.4Z" fill="url(#b)"/><path d="M22.2 32.9h-1.85c-.25 0-.46-.01-.62-.05a1.9 1.9 0 0 0-.64-.06c-.05 0-.07-.01-.07-.06v-.1c0-.05.02-.07.06-.07h2.46c.13 0 .26.02.4.07.2.06.29.14.28.25 0 .01 0 .02-.02.02Z" fill="#fff"/><path d="M25.02 37.4c.22.05.55.08.99.07.22 0 .5-.07.81-.18l.79-.3c.5-.23.97-.78 1.42-1.67.12-.24.18-.49.18-.75a5.64 5.64 0 0 0-.12-.95c-.01-.04 0-.07.04-.08.22-.1.38-.06.49.12.1.17.18.37.25.6.2.61.32 1.15.4 1.6.11.62 0 1.14-.33 1.56-.47.58-.96 1.14-1.46 1.66-.09.09-.2.16-.34.23-.1.05-.27.08-.5.1-.2.02-.35.03-.46.01a8.18 8.18 0 0 0-.77-.05c-.3 0-.53-.05-.7-.12-.83-.37-1.27-.73-1.3-1.08-.03-.26 0-.58.06-.95a.1.1 0 0 1 .07-.08.1.1 0 0 1 .1.03c.14.13.27.2.38.23Z"/><path d="M21.18 42.64c0 .08-.04.1-.12.07l-.75-.4c-.07-.03-.1-.09-.08-.17l.12-.54c.03-.4.09-.74.17-1.03.12-.47.2-.81.23-1.02.04-.23.1-.49.2-.77.08-.23.14-.49.18-.77a1774.54 1774.54 0 0 1 .35-2.47c0-.14.03-.34.1-.6.05-.2.08-.37.08-.48.01-.1.06-.14.15-.14h.47c.1 0 .12.04.1.13a3.1 3.1 0 0 1-.22.54c-.1.16-.15.34-.17.54-.04.4-.18.93-.41 1.6-.08.25-.13.5-.15.77-.08 1.37-.14 2.39-.16 3.06-.02.59-.05 1.15-.09 1.68Z" fill="#2DB990"/><path d="M29.43 36.68a3.76 3.76 0 0 1-.76 1.4c-.13.16-.35.3-.65.42-.5.2-1.03.29-1.62.27a1.41 1.41 0 0 1-.74-.19c-.4-.19-.61-.37-.66-.53-.01-.06 0-.08.06-.07.6.1 1.19.1 1.78.03.3-.03.58-.12.84-.26l.14-.06.75-.41c.23-.15.45-.33.65-.53.05-.05.11-.09.17-.1.04-.01.05 0 .04.03Z" fill="#fff"/><defs><linearGradient id="a" x1="28" y1="0" x2="28" y2="56" gradientUnits="userSpaceOnUse"><stop stop-color="#E8C7F0"/><stop offset="1" stop-color="#964FBF"/></linearGradient><linearGradient id="b" x1="28.01" y1="11.74" x2="28.01" y2="42.03" gradientUnits="userSpaceOnUse"><stop stop-color="#E8C7F0"/><stop offset="1" stop-color="#964FBF"/></linearGradient></defs></svg>