<svg width="224" height="224" fill="none" xmlns="http://www.w3.org/2000/svg" viewBox="0 0 56 56"><ellipse cx="26.271" cy="27.289" rx="13.893" ry="13.443" fill="#F61F7D"/><path d="M12.668 40.07c0-1.618 3.335-2.93 4.956-2.93h11.373V43H17.624c-1.621 0-4.956-1.312-4.956-2.93z" fill="#060505"/><path fill-rule="evenodd" clip-rule="evenodd" d="M42 27.002c0 7.733-6.716 14.002-15 14.002-8.284 0-15-6.27-15-14.002C12 19.269 18.716 13 27 13c8.284 0 15 6.269 15 14.002zm-1.65.053c0 7.004-6.02 12.682-13.447 12.682-6.052 0-11.17-3.771-12.858-8.957l2.45 1.793.647-.786-3.489-2.553a12.05 12.05 0 01-.165-3.075l2.272 2.186.753-.696-2.863-2.756c1.088-5.974 6.608-10.52 13.253-10.52 7.427 0 13.448 5.678 13.448 12.682z" fill="#000"/><ellipse cx="29.729" cy="28.757" rx="13.425" ry="13.399" fill="#F0F3FA"/><path fill-rule="evenodd" clip-rule="evenodd" d="M29.729 43C37.61 43 44 36.623 44 28.757c0-7.867-6.39-14.244-14.271-14.244-7.882 0-14.272 6.377-14.272 14.244C15.457 36.623 21.847 43 29.73 43zm0-1.391c7.112 0 12.877-5.754 12.877-12.852 0-7.099-5.765-12.853-12.877-12.853-7.113 0-12.878 5.754-12.878 12.853 0 7.098 5.765 12.852 12.878 12.852z" fill="#060505"/><path d="M20.474 32.004L19 25h1.71l.668 3.728L22.421 25h1.632l.553 3.728.89-3.728H27l-1.4 7.004H24l-1-3.276-1 3.276h-1.526zM27 25v7h4v-1.237h-2.391V29H31v-1.28h-2.391v-1.46H31V25h-4z" fill="#000"/><path fill-rule="evenodd" clip-rule="evenodd" d="M32.5 25.005h-.727v1.308h.727v5.692H34v-5.692h.773v-1.308H32.5zM38.5 25H40v7h-1.5v-3h-2v3.005H35v-7h1.5v2.624h2V25z" fill="#000"/></svg>