<svg width="224" height="224" viewBox="0 0 56 56" xmlns="http://www.w3.org/2000/svg"><path d="m33.3 12.67 1 .52c-.42.22-.83.5-1.23.82l-1.01.82-1.63 1.24a67.25 67.25 0 0 0-2.2-1.2.75.75 0 0 1-.03-.04c.03-.04.04-.08.08-.11a210.33 210.33 0 0 1 3.48-2.69.22.22 0 0 1 .2 0l1.35.64Z" fill="#D1CA6E"/><path d="M43 17.69v2.9l-.02.03a.08.08 0 0 1-.1.03l-8.54-4.1a.27.27 0 0 0-.27.02c-.33.22-.64.45-.94.7a.38.38 0 0 0-.1.13.37.37 0 0 0-.03.16v7.96c-.04.07-.12.08-.21.04a3109.07 3109.07 0 0 0-10.26-5.2l-3.35-1.7a.2.2 0 0 0-.2.01l-1.2.78a.17.17 0 0 0-.08.14l.01 11.32c-.02.14.04.24.19.32l1.5.74c.32.15.65.24.98.26.02 0 .03 0 .04-.02l.02-.03.02-.57v-9.05c0-.03 0-.04.04-.04s.08 0 .13.02l12.48 6.33 2.36 1.2a.05.05 0 0 0 .07-.02v-.03l.01-9.57c0-.03.02-.05.05-.06h.05l4.49 2.23a93 93 0 0 1 2.75 1.43c.07.04.11.1.11.17v7.28l-.02-.01-.02-.54c0-.04-.01-.04-.03 0a6.18 6.18 0 0 1-2.27 2.5v-7.11a.27.27 0 0 0-.18-.26l-2.35-.95-.13-.07c-.05 3.38.02 6.42 0 9.59a.08.08 0 0 1-.04.07.08.08 0 0 1-.08 0 5.56 5.56 0 0 1-.52-.23L23.5 27.47a8.2 8.2 0 0 0-.68-.29l-.02.02-.03.03v9.47a.08.08 0 0 1-.04.07.08.08 0 0 1-.07 0 912.96 912.96 0 0 0-6.98-3.45 1.07 1.07 0 0 1-.32-.22V18.2l3.4-2.64c.07-.06.17-.16.3-.31l8.75 4.46L30.34 21h.03a.06.06 0 0 0 .07-.06v-4.87l1.62-1.24 1.01-.82c.4-.33.81-.6 1.24-.82l6.73 3.43c.36.18 1 .54 1.96 1.07Z" fill="#FADC6C"/><path d="M19.05 15.25c-.12.15-.22.25-.3.3-1.13.9-2.26 1.78-3.38 2.65l-2.15-1.15c-.05-.03-.08-.06-.08-.1 0-.03 0-.08.04-.13l3.4-2.63a.29.29 0 0 1 .32-.03l2.15 1.09Z" fill="#D1CA6E"/><path d="M28.2 14.83a.8.8 0 0 0 .03.05l.04.03c.71.37 1.44.76 2.16 1.16v4.87a.06.06 0 0 1-.06.06h-.03l-2.53-1.29c.12-.07.2-.18.19-.52v-4.21c0-.1.13-.15.2-.15Zm-15.1 1.98a.2.2 0 0 0 .08.01c-.03.05-.05.1-.04.14 0 .03.03.06.08.09l2.15 1.15v14.9c-.01.04-.05.07-.1.09L13.06 32a.12.12 0 0 1-.04-.04l-.03-.06V17.08a.5.5 0 0 1 .1-.27Z" fill="#787242"/><path d="M35.65 20.39h-.05c-.03 0-.05.03-.05.06v9.57a.05.05 0 0 1-.03.05.05.05 0 0 1-.05 0l-2.27-1.15V19.3a7.16 7.16 0 0 0 .01-.1.1.1 0 0 1 .1-.06.1.1 0 0 1 .05 0l2.3 1.25Z" fill="#725B11"/><path d="M20.62 22.45a.2.2 0 0 1 .01.1.38.38 0 0 0-.13-.03c-.03 0-.05.01-.05.04a14062.68 14062.68 0 0 1-.01 9.62l-.02.03a.05.05 0 0 1-.04.02 2.6 2.6 0 0 1-.98-.26l-1.5-.74c-.15-.08-.21-.18-.19-.32.13.1.19.1.29-.03v-9.51c0-.02.1-.03.11-.05a.1.1 0 0 1 .08-.04.1.1 0 0 1 .05 0l2.38 1.17Z" fill="#735F2B"/><path d="m38.13 25.13 2.35.95a.28.28 0 0 1 .18.26v7.11c0 1.92 0 3.33-.02 4.21 0 .06-.04.08-.13.09l-.13-.02a.08.08 0 0 1-.08-.05.43.43 0 0 0-.2-.22c-.46-.22-.91-.47-1.38-.74-.13-.07-.24-.22-.38-.25-.03 0-.05-.03-.06-.06 0-.03 0-.06.02-.08.03-1.47.04-2.94.03-4.41 0-1.83 0-3.66.03-5.5 0-.28 0-.56-.02-.85a.94.94 0 0 0-.2-.44Z" fill="#725B11"/><path d="m25.36 31.56-.02 8.22c0 .1-.07.17-.2.19l-1.96.25-1.56-.77.3-.1c.33-.1.68-.43.91-.65a.33.33 0 0 0 .1-.14c.03-.06.07-.12.07-.18v-7.86a.16.16 0 0 1 .09-.12.16.16 0 0 1 .15 0l2.12 1.16Z" fill="#735F2B"/><path d="M43 31.49v7.28a.5.5 0 0 1-.2.43c-1.1.94-2.21 1.84-3.36 2.71L28.1 36.26a.07.07 0 0 0-.07 0 .07.07 0 0 0-.04.07v4.63c0 .15-.16.25-.24.32-1.1.88-2.22 1.77-3.35 2.64-.18.12-.41.1-.68-.05l-.24-.14-8.05-4.08a.37.37 0 0 1-.07-.16v-3.1c0-.03.01-.05.05-.05.03 0 .06 0 .1.03l6.1 3.08 1.56.77c.26.17.53.32.81.45.21.1.31.04.47-.1.33-.27.56-.47.68-.6.13-.02.2-.08.2-.2 0-2.7 0-5.43.02-8.21l11.37 5.77c.5.3 1 .53 1.49.67.28.26.6.45.97.58.08.03.14.03.19 0 .39-.2.73-.47 1.01-.8l.12-.03c.09 0 .13-.03.13-.09.02-.88.02-2.29.02-4.21a6.18 6.18 0 0 0 2.27-2.5c.02-.04.07-.04.07 0v.54Z" fill="#F1E77F"/><path d="M15.41 36.25a.3.3 0 0 1 .1.12.17.17 0 0 0-.1-.03c-.03 0-.05.02-.05.06l.01 3.09c0 .03.03.09.07.16.03.04 0 .06-.07.06h-.02l-2.05-1.15-.2-.07a.16.16 0 0 1-.06-.06c-.02-.03-.04-.06-.04-.1v-3.2a.07.07 0 0 1 .07-.08l.04.01 2.3 1.2Z" fill="#735F2B"/><path d="M38.3 36.33a.11.11 0 0 0-.02.08c0 .03.03.05.06.06.14.03.25.18.38.25.47.27.92.52 1.37.74.1.05.17.12.21.22.02.03.04.05.08.05l.13.02-.12.03-2.17.22a6.33 6.33 0 0 1-1.49-.67c.14-.13.3-.17.5-.14.04 0 .07 0 .1-.02l.45-.3c.2-.13.33-.36.52-.54Z" fill="#787242"/><path d="M40.4 37.78a3.6 3.6 0 0 1-1.02.8c-.05.03-.11.03-.19 0-.37-.13-.7-.32-.97-.58l2.17-.22Zm-15.26 2.19c-.12.13-.35.33-.68.6-.16.14-.26.2-.47.1a5.48 5.48 0 0 1-.8-.45l1.95-.25Z" fill="#D1CA6E"/><defs><linearGradient id="a" x1="9.98" y1="7.99" x2="44.48" y2="50.28" gradientUnits="userSpaceOnUse"><stop stop-color="#05F5AA"/><stop offset="1" stop-color="#1C5BAA"/></linearGradient></defs></svg>