<svg width="224" height="224" viewBox="0 0 56 56" xmlns="http://www.w3.org/2000/svg"><path d="M16.98 15H12l9.32 9.26a9.5 9.5 0 0 0 13.36 0L44 15h-4.98l-7.35 7.3a5.22 5.22 0 0 1-7.34 0L16.98 15Z" fill="url(#bkxrnzoiw)"/><path d="M16.98 41H12l9.32-9.26a9.5 9.5 0 0 1 13.36 0L44 41h-4.98l-7.35-7.3a5.22 5.22 0 0 0-7.34 0L16.98 41Z" fill="url(#ckxrnzoiw)"/><defs><linearGradient id="akxrnzoiw" x1="10.42" y1="9.71" x2="68.15" y2="76.02" gradientUnits="userSpaceOnUse"><stop stop-color="#1A1E21"/><stop offset="1" stop-color="#06060A"/></linearGradient><linearGradient id="bkxrnzoiw" x1="24.34" y1="22.33" x2="33.61" y2="13.6" gradientUnits="userSpaceOnUse"><stop stop-color="#5E8AD8"/><stop offset="1" stop-color="#23F59A"/></linearGradient><linearGradient id="ckxrnzoiw" x1="15.31" y1="40.38" x2="25.99" y2="28.15" gradientUnits="userSpaceOnUse"><stop stop-color="#E505FE"/><stop offset="1" stop-color="#519AD2"/></linearGradient></defs></svg>