<svg width="224" height="224" viewBox="0 0 56 56" xmlns="http://www.w3.org/2000/svg"><path d="M19.66 17.95 28 10a.03.03 0 0 1 .05 0l8.33 7.94v.01a.03.03 0 0 1 0 .03l-.02.01H19.69a.03.03 0 0 1-.03-.02v-.03Z" fill="#CFB06D"/><path d="M18.24 28h-8.19l5.73-5.95c.02-.03.06-.05.1-.05h8.1c.05 0 .06.03.02.07L18.24 28Z" fill="#4F4F4F"/><path d="m37.83 28-5.78-5.93c-.04-.04-.03-.07.02-.07h8.09l.07.03c.02 0 .05.02.06.04L46 28h-8.16ZM10.05 28h8.2L28 37.76V46L10.02 28.05c-.04-.04-.03-.03.03-.05Z" fill="#606060"/><path d="M37.83 28H46L28 46v-8.23L37.83 28Z" fill="#4F4F4F"/></svg>