<svg width="112" height="112" viewBox="0 0 56 56" xmlns="http://www.w3.org/2000/svg"><g fill="none" stroke="#000000" stroke-width="2"><ellipse cx="28" cy="28" rx="14" ry="1" /><ellipse cx="28" cy="28" rx="18" ry="1" transform="rotate(-90 28 28)" /><path d="M24.1 22.02c.47-.25 2.6 2.23 4.77 5.54 2.15 3.3 3.51 6.18 3.03 6.42-.47.25-2.6-2.23-4.77-5.54-2.15-3.3-3.51-6.18-3.03-6.42Z" /><path d="M31.9 22.02c-.47-.25-2.6 2.23-4.77 5.54-2.15 3.3-3.51 6.18-3.03 6.42.47.25 2.6-2.23 4.77-5.54 2.15-3.3 3.51-6.18 3.03-6.42Z" /><circle cx="41.5" cy="24.5" r=".5" /><circle cx="35.5" cy="21.5" r=".5" /><circle cx="35.5" cy="24.5" r=".5" /><circle cx="32.5" cy="42.5" r=".5" /><circle cx="19.5" cy="20.5" r=".5" /><circle cx="32.5" cy="17.5" r=".5" /><circle cx="21.5" cy="23.5" r=".5" /><circle cx="22.5" cy="32.5" r=".5" /><circle cx="15.5" cy="12.5" r=".5" /><defs><linearGradient id="amy1b3hd4" x1="14" y1="28" x2="42" y2="28" gradientUnits="userSpaceOnUse"><stop stop-color="#404E73"/><stop offset=".47" stop-color="#D2FFFA"/><stop offset="1" stop-color="#526085"/></linearGradient><linearGradient id="bmy1b3hd4" x1="10" y1="28" x2="46" y2="28" gradientUnits="userSpaceOnUse"><stop stop-color="#404E73"/><stop offset=".47" stop-color="#D2FFFA"/><stop offset="1" stop-color="#526085"/></linearGradient><linearGradient id="cmy1b3hd4" x1="32" y1="34.5" x2="24" y2="22" gradientUnits="userSpaceOnUse"><stop stop-color="#404E73"/><stop offset=".47" stop-color="#D2FFFA"/><stop offset="1" stop-color="#526085"/></linearGradient><linearGradient id="dmy1b3hd4" x1="24" y1="34" x2="32" y2="22.5" gradientUnits="userSpaceOnUse"><stop stop-color="#404E73"/><stop offset=".47" stop-color="#D2FFFA"/><stop offset="1" stop-color="#526085"/></linearGradient></defs></g></svg>