<svg width="112" height="112" viewBox="0 0 56 56" xmlns="http://www.w3.org/2000/svg"><rect fill="#181B1E" width="56" height="56" rx="28"/><path d="M40.09 28.7 39 24l-7 8.97 2.47 3.65c.22.13.87.38 1.68.38 1.22 0 1.85-.78 2-1.17v-1.69l.64-.44-.13-.73-.32-.36.54-.8V29.6l1.21-.9Z" fill="#90CCEC"/><path d="m36.52 29.06 3.55-.33-1.37 1v1.46l-2.18-2.13ZM38.34 32.54h-3.5l3.3-.73.4.22.32-.22-.52.73ZM37.36 34.9l-1.23-1.16 2 .42v.73h-.77ZM39.04 23.5H26.81l5.68-2.24 6.55 2.24ZM35.5 28.5 27 24h12l-3.5 4.5Z" fill="#006A8E"/><path d="m32 33 3.5-4.5L27 24l-1.72 2.23L32 33Z" fill="#0087B6"/><path d="M41 21.66c.02-5.27-3.9-8.79-5.85-9.86l-2.68 9.46L39 23.5c.4-.38 1.38-1.22 2-1.84Z" fill="#AFD4EE"/><circle cx="23" cy="25" r="2" fill="#0087B6"/><ellipse cx="20.78" cy="28.64" rx=".71" ry=".69" fill="#0087B6"/><path d="m35.15 11.82-2.64 9.46-7.14 3.06c-.27-1-1.2-1.75-2.32-1.75-1.07 0-1.98.7-2.28 1.65l-2.32-.57a1.9 1.9 0 0 0-.04-.2l4.17-1.8c.19.16.43.26.7.26.57 0 1.02-.45 1.02-1s-.45-1-1.02-1a1.01 1.01 0 0 0-1 1.19l-4.13 1.78a1.94 1.94 0 0 0-.15-.2c.3-.46.64-.94 1-1.43.6.28 1.4.13 1.95-.41.38-.37.57-.85.56-1.3l2-.9c.07.2.17.39.3.54.26.33.82.5 1.19.5v-3.45c-.25 0-.7.08-.9.24l-.67-.56c.47-.52.9-1 1.27-1.39a1 1 0 0 0 .76.38c.64 0 1.16-.7 1.16-1.55 0-.86-.52-1.55-1.16-1.55h-.1l-.65-1.21c.38-.1.75-.2 1.12-.28 2.9-.64 3.1.03 3.3.67.13.42.25.82 1.13.82h4.9ZM24.1 10.79l.7 1.31c-.2.2-.35.47-.43.79l-2.36.45a.64.64 0 0 0-.05-.1c-.34-.52-1.36-.47-2.3.1-.87.55-1.35 1.38-1.1 1.9l-1.75 1.88c-.27.02-.57.1-.86.26.9-2.1 2.38-3.63 4.09-4.74.32.23.9.24 1.47-.01.65-.3 1.05-.83.96-1.26.54-.22 1.09-.41 1.63-.58Zm-8.78 8.56c-.06.26-.11.53-.15.8h.02c.32 0 .6.19.73.45l.2-.05-.1-1.24c-.26.07-.5.08-.7.04Zm-.3 2.34-.01.6c0 .67.05 1.3.15 1.92a6.71 6.71 0 0 0 1.24 1.37c.1.1.18.22.25.33.47.46.92.85 1.22 1.08a.84.84 0 0 1 .24-.17l-.73-1.86c-.48-.04-1-.31-1.3-.72-.47-.63-.47-1.57.09-1.96a.92.92 0 0 1 .11-.07l-.1-1.03-.26.06a.8.8 0 0 1-.9.45Zm.88 5.02c.3.7.68 1.35 1.1 1.94a3.46 3.46 0 0 0 1.05-.31 1.8 1.8 0 0 1-.33-.7 8.34 8.34 0 0 1-.93-.74h-.02c-.18.16-.52.07-.87-.19Zm1.52 2.5c.18.22.37.44.56.64.43.15.96.24 1.3.29.21-.15.66-.09 1.09.16.5.3.77.74.61 1-.15.24-.68.2-1.18-.09a1.7 1.7 0 0 1-.51-.44l-.42-.07c.8.7 1.64 1.26 2.48 1.72a5.77 5.77 0 0 0 1.19-.5c0-.2.08-.37.2-.5l-1.53-1.68a1.2 1.2 0 0 1-1.63-1.1c0-.65.54-1.17 1.2-1.17.24 0 .45.06.64.17l.5-.46a2.73 2.73 0 0 1-1.25-2.32l-2.23-.56a.88.88 0 0 1-.42.54l.72 1.86c.4.03.85.22 1.18.64-.28.16-.8.81-.59 2.03a3.5 3.5 0 0 1-.84-.56 4.69 4.69 0 0 1-1.07.4Zm6.32 3.3a.76.76 0 0 1-.93-.03c-.2.1-.44.22-.7.32 1.03.5 2 .81 2.8.99l-1.17-1.28Zm-6.23-10.2c.31-.47.65-.95 1.02-1.45a1.3 1.3 0 0 1-.13-.22l-1.59.38.1 1.1c.2.01.41.08.6.19Zm2.7-4.07c.12.01.23.03.34.06.67-.8 1.34-1.58 1.97-2.29a7.22 7.22 0 0 0-1.51-.88 3.52 3.52 0 0 1-.56.31l-.23 2.8Zm.91.38c.1.1.18.21.24.33l2.04-.93v-.04a2 2 0 0 1 .28-1.03l-.66-.56c-.6.69-1.26 1.44-1.9 2.22v.01Zm-2.29.17c.22-.21.47-.36.74-.45l.23-2.7a1.7 1.7 0 0 1-.75-.01l-1.54 1.66.05.06.43-.06c.07-.12.18-.24.32-.34.36-.25.78-.28.95-.05.16.22 0 .6-.36.85-.3.21-.63.26-.84.15l-.41.06c-.03.1-.08.19-.13.28l1.22.65.1-.1Zm-.56 1.24c0-.2.05-.41.13-.6l-1.3-.7a2.76 2.76 0 0 1-.47.33l.12 1.34 1.52-.37ZM22 13.98l2.32-.45c.01.15.04.3.08.43-.41.43-.91.97-1.46 1.58a8.85 8.85 0 0 0-1.4-.86c.22-.23.37-.47.46-.7Z" fill="#0087B6"/><path d="M25.87 10.4 25 19c2.91-1.87 8.68-6.23 10.15-7.2-1.68-1.27-4.8-1.8-6.52-1.8-1.39 0-2.42.27-2.76.4Z" fill="#B5D7F0"/><path d="M36 23.5a1 1 0 0 0-2 0h2ZM36 24a1 1 0 0 1-2 0h2Z" fill="#289FBF"/><path d="m12 44 2.12-4h.76L17 44h-.83l-.36-.67h-2.62l-.36.67H12Zm1.6-1.44h1.8l-.9-1.7-.9 1.7ZM23 44l2.12-4h.76L28 44h-.83l-.36-.67h-2.62l-.36.67H23Zm1.6-1.44h1.8l-.9-1.7-.9 1.7ZM40.05 40H39l1.97 2L39 44h1.05l1.45-1.47L42.95 44H44l-1.97-2L44 40h-1.05l-1.45 1.47L40.05 40ZM34 40v4h4v-.67h-3.33v-1.06h2.93v-.67h-2.93v-.93H38V40h-4Z" fill="#fff"/><path fill-rule="evenodd" d="M20.99 40H18v4h2.99c.56 0 1.01-.48 1.01-1.08v-1.84c0-.6-.45-1.08-1.01-1.08Zm-.13.72h-2.19v2.56h2.2c.27 0 .5-.24.5-.54v-1.48c0-.3-.23-.54-.5-.54ZM31.98 40h-3v4h3c.56 0 1.02-.48 1.02-1.08v-1.84c0-.6-.46-1.08-1.02-1.08Zm-.13.72h-2.2v2.56h2.2c.29 0 .51-.24.51-.54v-1.48c0-.3-.22-.54-.5-.54Z" fill="#fff"/></svg>