<svg width="112" height="112" viewBox="0 0 56 56" xmlns="http://www.w3.org/2000/svg"><rect fill="#F0F3FA" width="56" height="56" rx="28"/><path d="m9.58 31.79 3.98 3.86c-1.48-2.98-.44-5.37.27-6.2a207 207 0 0 1 6.43-6.25c1.04-.89 2.37-.21 2.9.24l-2.35-2.29a5.72 5.72 0 0 0-7.92 0l-3.31 3.22a5.14 5.14 0 0 0 0 7.42Z" fill="url(#a03ls00bm)"/><path d="m17.34 39.33-3.85-3.74a5.2 5.2 0 0 1 .26-6.1l2.9-2.83c-.83.84-.54 2.01-.3 2.5.92.93 3.4 3.4 5.98 5.8 2.57 2.4 6.15 1.12 7.62.19l-4.3 4.18a6 6 0 0 1-8.3 0Z" fill="url(#b03ls00bm)"/><path d="M23.1 32.67c-1.02.95-2.33.59-2.85.3l2.03 1.97c2.84 2.45 6.23 1.22 7.58.3l1.97-1.91-4.7-4.57c-.93.9-3.02 2.96-4.03 3.9Z" fill="url(#c03ls00bm)"/><path d="M34.16 34.13 20.5 20.86a5.94 5.94 0 0 0-7.28 0l4.35-4.23a5.86 5.86 0 0 1 8.12 0L38.93 29.5l-4.77 4.63Z" fill="url(#d03ls00bm)"/><path d="M35.82 20.37 40.58 25c1.04-1.07 3.78-2.57 6.42 0l-4.88-4.74a4.46 4.46 0 0 0-6.18 0l-.12.11Zm-3.08 3.1 1.58-1.53 4.61 4.48-1.58 1.53-4.6-4.48Z" fill="url(#e03ls00bm)"/><path d="m40.6 30.99-4.82 4.68.1.1a4.46 4.46 0 0 0 6.19 0l4.91-4.78c-2.99 2.5-5.5 1.04-6.38 0Z" fill="url(#f03ls00bm)"/><defs><linearGradient id="a03ls00bm" x1="19.05" y1="20.73" x2="9.37" y2="30.7" gradientUnits="userSpaceOnUse"><stop stop-color="#FE7458"/><stop offset="1" stop-color="#F9C45A"/></linearGradient><linearGradient id="b03ls00bm" x1="13.65" y1="31.23" x2="23.52" y2="40.61" gradientUnits="userSpaceOnUse"><stop stop-color="#FF7257"/><stop offset="1" stop-color="#FFC05C"/></linearGradient><linearGradient id="c03ls00bm" x1="30.48" y1="32.07" x2="25.47" y2="37.22" gradientUnits="userSpaceOnUse"><stop stop-color="#FB865B"/><stop offset="1" stop-color="#FF7257"/></linearGradient><linearGradient id="d03ls00bm" x1="14.24" y1="22.3" x2="37.15" y2="22.3" gradientUnits="userSpaceOnUse"><stop stop-color="#FAC75D"/><stop offset="1" stop-color="#FF8957"/></linearGradient><linearGradient id="e03ls00bm" x1="35.01" y1="25.55" x2="41.3" y2="19.07" gradientUnits="userSpaceOnUse"><stop stop-color="#EAA25A"/><stop offset="1" stop-color="#F6C95F"/></linearGradient><linearGradient id="f03ls00bm" x1="43.74" y1="34.87" x2="40.26" y2="31.29" gradientUnits="userSpaceOnUse"><stop stop-color="#FB7A56"/><stop offset="1" stop-color="#FC855A"/></linearGradient></defs></svg>