<svg width="112" height="112" viewBox="0 0 56 56" xmlns="http://www.w3.org/2000/svg"><rect fill="#F0F3FA" width="56" height="56" rx="28"/><path fill-rule="evenodd" d="M29.16 10.48a1.63 1.63 0 0 0-2.32 0L10.48 26.84a1.63 1.63 0 0 0 0 2.32l16.36 16.36c.64.64 1.68.64 2.32 0l16.36-16.36c.64-.64.64-1.68 0-2.32L29.16 10.48ZM28 11c-.43 0-.86.15-1.19.48l-5.33 5.36a1.63 1.63 0 0 0 0 2.31l3.07 2.99c.73.73.73 1.9 0 2.63l-2.07 2.12a1.63 1.63 0 0 0 0 2.31l2.04 2.09c.73.73.73 1.9 0 2.63l-3.04 2.96a1.63 1.63 0 0 0 0 2.31l5.33 5.33a1.63 1.63 0 0 0 2.31 0l5.4-5.33a1.63 1.63 0 0 0 0-2.3l-3.09-2.95a1.86 1.86 0 0 1 0-2.63l2.1-2.1a1.63 1.63 0 0 0 0-2.32l-2.13-2.14a1.86 1.86 0 0 1 0-2.63l3.12-2.97a1.63 1.63 0 0 0 0-2.31l-5.4-5.36A1.63 1.63 0 0 0 28 11Zm.63 22.45a.91.91 0 0 0-1.3 0l-4.1 4.03a.91.91 0 0 0 0 1.3l4.1 4.1c.36.36.94.36 1.3 0l4.17-4.1a.91.91 0 0 0 0-1.3l-4.17-4.03Zm-1.3-20.15a.91.91 0 0 1 1.3 0l4.17 4.14c.36.35.36.93 0 1.29l-4.17 4.03a.91.91 0 0 1-1.3 0l-4.1-4.03a.91.91 0 0 1 0-1.3l4.1-4.13Z" fill="url(#a)"/><defs><linearGradient id="a" x1="28" y1="10" x2="28" y2="46" gradientUnits="userSpaceOnUse"><stop offset=".26" stop-color="#01FDBE"/><stop offset=".9" stop-color="#003829"/></linearGradient></defs></svg>