<svg width="112" height="112" viewBox="0 0 56 56" xmlns="http://www.w3.org/2000/svg"><rect fill="url(#a)" width="56" height="56" rx="28"/><path d="M19.2 21.16c2.52-.4 5.1-.57 7.64-.25l.5.07.46.07c1.04.19 2.02.54 2.93 1.05 1.82 1.02 2.82 2.99 3.2 4.98.29 1.57.4 3.1.32 4.59a52.7 52.7 0 0 1-2.41 12.77c-.3.53-1.18.82-1.6.24a1.77 1.77 0 0 1-.2-.75 39.74 39.74 0 0 0-1.37-7.12c-.86-2.97-2.21-5.88-4.7-7.78a20.82 20.82 0 0 0-7.5-3.15 42.36 42.36 0 0 0-5.57-.93c-.86-.08-1.15-.86-.68-1.5.25-.33.52-.36.9-.47a61.3 61.3 0 0 1 8.08-1.82Zm18.1-7.15c.93-.05 2.21.14 2.88.8.67.68.86 1.96.81 2.9a21.76 21.76 0 0 1-.96 5.24 67.38 67.38 0 0 1-3.15 8.4c-.13.3-.59.37-.76.09-.04-.07-.05-.22-.02-.46.22-1.84.44-3.66.42-5.64-.02-1.76-.41-3.88-1.7-5.16-1.28-1.29-3.4-1.68-5.16-1.7-1.98-.02-3.8.2-5.64.41-.24.03-.4.03-.45-.01-.28-.18-.21-.64.08-.77a67.42 67.42 0 0 1 8.4-3.15c1.73-.51 3.49-.87 5.25-.95Z" fill="url(#b)"/><defs><linearGradient id="a" x1="10.42" y1="9.71" x2="68.15" y2="76.02" gradientUnits="userSpaceOnUse"><stop stop-color="#1A1E21"/><stop offset="1" stop-color="#06060A"/></linearGradient><linearGradient id="b" x1="16.22" y1="18.62" x2="34.54" y2="27.45" gradientUnits="userSpaceOnUse"><stop stop-color="#F1DD5E"/><stop offset="1" stop-color="#FCBE1E"/></linearGradient></defs></svg>