<svg width="112" height="112" viewBox="0 0 56 56" xmlns="http://www.w3.org/2000/svg"><rect fill="#F0F3FA" width="56" height="56" rx="28"/><path d="M29 25a1 1 0 1 1-2 0 1 1 0 0 1 2 0Z" fill="url(#a2gfa0hr5)"/><path d="M37.11 41.15A16 16 0 1 0 18.67 41l6.4-11.79c-.51-.43-1.07-1.08-1.07-1.8v-3.97c0-1.3 1.1-2.44 2.4-2.44h.6v-.88c0-.66.35-1.12 1-1.12s1 .46 1 1.12V21h.6c1.3 0 2.4 1.13 2.4 2.44v3.97c0 .82-.65 1.54-1.28 1.97l2.7 5a8.23 8.23 0 0 0 2.76-4.73c.12-.64.46-1.23 1-1.57L38.96 27a11 11 0 0 1-4.2 9.8l2.36 4.35Zm-4.9-2.9 2.32 4.36a15.94 15.94 0 0 1-13.3-.1l5.62-10.58c.18.05.37.07.56.07h1.18c.1 0 .2 0 .29-.02l2.04 3.84a7.86 7.86 0 0 1-3.03.44c-.9-.05-1.8.31-2.25 1.09L25 38.47a10.48 10.48 0 0 0 7.2-.22Z" fill="url(#b2gfa0hr5)"/><defs><linearGradient id="a2gfa0hr5" x1="28.67" y1="24.67" x2="26.67" y2="25" gradientUnits="userSpaceOnUse"><stop stop-color="#48BC83"/><stop offset="1" stop-color="#24E568"/></linearGradient><linearGradient id="b2gfa0hr5" x1="42.81" y1="25.63" x2="12" y2="33.93" gradientUnits="userSpaceOnUse"><stop stop-color="#04BC63"/><stop offset="1" stop-color="#27E968"/></linearGradient></defs></svg>