<svg width="112" height="112" viewBox="0 0 56 56" xmlns="http://www.w3.org/2000/svg"><rect fill="url(#a)" width="56" height="56" rx="28"/><path d="m28.22 12 .54.03a15.94 15.94 0 0 1 12.07 6.42 15.88 15.88 0 0 1 2.65 5.5c-.4-.05-.82-.04-1.28.04a7.3 7.3 0 0 0-1.42.4c-.04.01-.07 0-.08-.04a.59.59 0 0 0-.1-.16 15.33 15.33 0 0 0-.3-.36 5.31 5.31 0 0 1-.15-.12c-.12-.11-.21-.18-.28-.22a3.47 3.47 0 0 0-.78-.38l.56-3.53c0-.02 0-.03-.03-.03h-3.19c-.02 0-.03 0-.03.03l-.19 1c0 .02 0 .03-.02.03h-.04a6.48 6.48 0 0 0-1.46-.91c-.12-.07-.22-.11-.3-.14a4.53 4.53 0 0 1-.31-.12 3.36 3.36 0 0 0-.44-.17 9.96 9.96 0 0 1-.42-.13 7.16 7.16 0 0 0-5.63.41l-.26.04h-1.37c-.01 0-.03 0-.03.03l-.16 1.12c-.01.04-.03.08-.06.1l-.38.39a.08.08 0 0 1-.05.02c-.03 0-.04 0-.06-.02a3.17 3.17 0 0 0-.9-.6l-.5-.22a.12.12 0 0 1-.08-.1l-.13-.69c0-.01 0-.02-.02-.02h-.34c-.02 0-.04-.02-.04-.04l-.15-1.15a7.89 7.89 0 0 0-.4-1.12 5.59 5.59 0 0 0-1.38-1.77 4.8 4.8 0 0 0-.43-.33 10.58 10.58 0 0 0-1.36-.74A15.72 15.72 0 0 1 27.78 12h.44Z" fill="#67B7C4"/><path d="M19.5 14.45a10.58 10.58 0 0 1 1.35.74 6.86 6.86 0 0 0 .43.33 5.6 5.6 0 0 1 1.78 2.88.34.34 0 0 0-.1.1l-.18-.56a5.39 5.39 0 0 0-2.73-3.1 5.2 5.2 0 0 0-.68-.31l.12-.08Z" fill="#2A463F"/><path d="M19.37 14.53a5.22 5.22 0 0 1 1.18.59 5.39 5.39 0 0 1 2.54 4.48h-1.36a1.17 1.17 0 0 0-.11-.3l-.22-.36c-.2-.36-.5-.83-.92-1.4a8.4 8.4 0 0 0-2.33-2.14c.4-.33.82-.62 1.22-.87Z" fill="#fff"/><path d="M18.15 15.4c.22.13.39.23.5.31a8.4 8.4 0 0 1 1.83 1.83 13.95 13.95 0 0 1 1.14 1.76c.03.05.07.15.1.3h-2.28c-.04 0-.07.03-.08.07l-2.3 12.91-.02.01a969.29 969.29 0 0 1-4.46-.3 16.6 16.6 0 0 1-.58-4.07v-.44a15.97 15.97 0 0 1 6.15-12.38Z" fill="#FFE399"/><path d="m23.06 18.4.15 1.16c0 .02.02.04.04.04h.34c.01 0 .02 0 .02.02l.13.7c.01.04.04.07.08.1.27.1.44.18.5.21.36.16.66.36.9.6l.06.02c.02 0 .04 0 .05-.02l.38-.38a.19.19 0 0 0 .06-.11l.16-1.12c0-.02.02-.03.03-.03h1.37l.26-.04.07-.02c.15-.1.3-.16.42-.2.4-.16.75-.28 1.08-.37a7.32 7.32 0 0 1 4.48.31l.44.17.31.12a17.37 17.37 0 0 1 .85.43 6.49 6.49 0 0 1 .95.62c.01 0 .02-.01.02-.03l.19-1c0-.02.01-.03.03-.03h3.2c.01 0 .02 0 .02.03l-.56 3.53v.02c.24.07.5.19.78.36.07.04.16.11.28.22a5.1 5.1 0 0 0 .2.17l.25.3c.05.06.08.12.1.17.01.04.04.05.08.04a7.28 7.28 0 0 1 1.42-.4c.46-.08.88-.1 1.28-.04l.05.18a4.46 4.46 0 0 0-1.72.11c-.41.11-.79.23-1.13.35-.02 0-.04 0-.05-.02l-.21-.34a2.58 2.58 0 0 0-1.36-.93l-.02.01-1.6 8.96.01.02 5.97-.03-.03.11h-.53a306.2 306.2 0 0 0-5.41.03.05.05 0 0 0-.04.05l-.71 3.98c0 .03-.02.04-.05.04h-3.36l-.01-.01-.72-3.83a.75.75 0 0 0-.07-.22.3.3 0 0 0 0-.17l-.01-.01-.01.01-.03.17-.65 4.04c0 .03-.02.04-.05.04h-3.37l-.8-3.99-.02-.01h-1.3c-.03 0-.04.01-.04.04l.22 1.12v.3A885.72 885.72 0 0 1 26 36.5h-3.2s-.02 0-.02-.02l-.35-1.91c-.01-.04-.03-.06-.07-.06h-2.33c-.04 0-.06.02-.07.06l-.3 1.92c0 .02-.02.03-.05.03h-3.17c-.02 0-.03 0-.03-.03l.6-3.78v-.01a23.99 23.99 0 0 0-4.38-.24l-.06-.18.18.03 1.72.1a928.61 928.61 0 0 0 2.58.16l2.3-12.91c.01-.04.04-.06.08-.06h2.29l1.36-.02c.02 0 .02 0 .02-.02a5.16 5.16 0 0 0-.15-1.07.34.34 0 0 1 .1-.1Z" fill="#111317"/><path d="m36 21.52-.12-.18a16.67 16.67 0 0 0-1.77-1.14.78.78 0 0 0-.22-.05.33.33 0 0 1-.11-.06l-.09-.49c0-.03-.02-.04-.05-.04l-1.67.01c-.08 0-.1.03-.1.09-.02.02-.08.01-.17-.02a8.37 8.37 0 0 0-2.45.3l-.07-.33c0-.02-.02-.03-.04-.03h-1.39v-.01l.42-.18a6.79 6.79 0 0 1 3.74-.47 6.68 6.68 0 0 1 1.37.34 7.04 7.04 0 0 1 .69.24 32.19 32.19 0 0 1 .62.25 7.4 7.4 0 0 1 1.54.94.1.1 0 0 1 .03.1l-.15.73Z" fill="#fff"/><path d="m31.88 19.66-1.05 7.16c0 .01 0 .02-.02.02 0 0-.02 0-.02-.02l-1.54-6.88.14-.04.13-.04a8.37 8.37 0 0 1 2.18-.22c.1.03.15.04.18.02Z" fill="#FFE399"/><path d="M32.87 28.66v.04l-.8 4.87c0 .02-.02.04-.05.04h-3.09s-.02 0-.02-.02l-2.78-13.81c0-.03 0-.05.04-.05H29c.02 0 .04.02.05.05l1.77 7.93.01.01.02-.01 1.17-7.96c0-.02.02-.03.05-.03h1.43c.02 0 .04 0 .04.03l1.36 7.94.01.02c.01 0 .02 0 .02-.02l1.6-7.96c0-.03.02-.04.04-.04h2.84c.03 0 .04.02.04.05l-2.47 13.8c0 .03-.02.04-.06.04h-3.08c-.01 0-.02 0-.03-.02l-.9-4.89-.02-.01h-.03ZM19.53 19.76h3.93c.01 0 .02 0 .02.02l2.78 13.82c0 .02 0 .02-.02.02h-2.88l-.02-.01-.36-1.95c0-.02-.01-.02-.02-.02h-2.67c-.01 0-.02 0-.02.02l-.32 1.97c0 .01 0 .02-.02.02h-2.88c-.01 0-.02-.01-.02-.03l2.47-13.84c0-.02.01-.02.03-.02Z" fill="#fff"/><path d="m36 21.52-1.05 5.34c0 .01 0 .02-.02.02v-.02l-1.15-6.77.1.06c.12.01.2.03.23.05l.17.08.6.32c.18.1.34.22.48.33a10.94 10.94 0 0 0 .52.4l.13.19Z" fill="#FED691"/><path d="M25.61 21.66c-.23.1-.44.24-.63.4-.02.01-.04.01-.05-.01a2.66 2.66 0 0 0-.37-.44 1.62 1.62 0 0 0-.5-.32l-.14-.1-.13-.65c0-.01 0-.02.02-.02l.14.04c.3.13.54.25.72.36.23.14.43.3.6.47h.02l.41-.4.02-.01V21l-.1.66Z" fill="#fff"/><path d="m25.61 21.66-.09.62v.11l2 9.95c.01.02 0 .03-.01.03h-1.32c-.01 0-.02 0-.02-.02l-2.25-11.17.14.1.02.02c.18.07.34.18.48.31.12.11.24.26.37.44.01.02.03.02.05 0 .19-.15.4-.29.63-.39Z" fill="#FFE399"/><path d="M43.53 24.13c.29 1.2.45 2.4.47 3.65v.44c-.02.81-.1 1.62-.22 2.42a30.29 30.29 0 0 1-1.4.05l-.97.06c-.78.06-1.71.16-2.8.3a14.07 14.07 0 0 0-.75.13h.01c.8-.1 1.37-.18 1.7-.2l2.02-.16c.62-.05 1.35-.07 2.17-.06-.09.5-.2 1-.34 1.5l-5.97.03-.01-.02 1.6-8.96c0-.01.01-.02.02-.01a2.58 2.58 0 0 1 1.57 1.27c.01.02.03.02.05.02.34-.12.72-.24 1.13-.35a4.46 4.46 0 0 1 1.72-.1Z" fill="#FED691"/><path d="m20.75 28.76.77-4.75h.03l.88 4.74-.02.01-1.65.02-.01-.02Z" fill="#111317"/><path d="m20.96 28.6.15-.95.01-.02c.01 0 .02 0 .02.02l.18.95c0 .01 0 .02-.02.02h-.33l-.01-.02Z" fill="#FFE399"/><path d="M43.4 32.37a15.97 15.97 0 0 1-4.96 7.75 22.84 22.84 0 0 0-1.93 0 .16.16 0 0 1-.12-.05c-.18-.19-.41-.25-.7-.2a.12.12 0 0 0-.1.08V40a.44.44 0 0 1-.06.12.15.15 0 0 1-.12.06l-.27.01c-.05 0-.1.02-.14.05a.52.52 0 0 0-.09.1.64.64 0 0 1-.08.09 5.67 5.67 0 0 1-.8.26l-.66.16-1.2.35c-.08.03-.14.03-.18.01a.38.38 0 0 0-.24-.02.53.53 0 0 0-.2.12c-.1.09-.18.1-.25.04-.04-.04-.07-.05-.1-.05-.18 0-.37.09-.59.25-.03.03-.06.02-.1 0a.6.6 0 0 0-.33-.16c-.08 0-.14 0-.18.05a.53.53 0 0 0-.07.18v.01c-.01.02-.02.03-.04.02a.34.34 0 0 1-.1-.03.35.35 0 0 0-.14-.04c-.2 0-.36.08-.5.23a.1.1 0 0 0-.02.05c0 .05 0 .1.02.13.01.05.05.08.1.1l.1.05v.03c0 .02 0 .02-.02.03l-.16.02H29a15.88 15.88 0 0 1-1.3.23l-.19.05a4.05 4.05 0 0 0-.65.18c-.14.03-.24.07-.3.1a182.14 182.14 0 0 0-.92.4c-.08.06-.15.1-.2.11l-.29.18-.32.21-.8-.18a15.72 15.72 0 0 1-7.78-4.67 4.5 4.5 0 0 1-.45-.5 15.96 15.96 0 0 1-3.15-5.87 24 24 0 0 1 1.42.09l.38.01c.3.03.58.04.8.04a30.22 30.22 0 0 1 1.78.12l-.6 3.78c0 .02 0 .03.03.03h3.17c.03 0 .04 0 .04-.03l.3-1.92c.02-.04.04-.06.08-.06h2.33c.04 0 .06.02.07.06l.35 1.91c0 .01.01.02.03.02H26c.01 0 .02 0 .02-.02l.4-2.55a.86.86 0 0 0 0-.29l-.22-1.12c0-.03 0-.04.04-.04h1.3l.01.01.8 3.98.01.01h3.37c.03 0 .04-.01.05-.04l.65-4.04h.05c.03.07.06.14.07.22a2495.11 2495.11 0 0 0 .73 3.84h3.36c.03 0 .04-.01.05-.04l.7-3.98c.01-.03.02-.04.05-.05a306.18 306.18 0 0 1 5.94-.03Z" fill="#42A9C2"/><path d="M38.31 40.24a27.73 27.73 0 0 1-1.3.98.4.4 0 0 0-.18-.02l-.18.02c-.98 0-1.97.05-3 .16a4.96 4.96 0 0 0-1.24.28 6.69 6.69 0 0 0-1.06.37 6.95 6.95 0 0 0-.83.34l-.24.1-.46.19-.45.18-.56.25a24.4 24.4 0 0 0-1.39.6 6.5 6.5 0 0 0-.59.26c-.6-.04-1.2-.11-1.81-.23.2-.15.36-.26.47-.31.4-.22.82-.4 1.27-.57.22-.08.45-.15.69-.2l.7-.14a9.7 9.7 0 0 1 1.06-.18l.93-.2h.04l.12-.07c.29-.16.5-.26.67-.31l.42-.16c.28-.1.5-.18.63-.21a15.97 15.97 0 0 0 .94-.28 36.19 36.19 0 0 1 1.76-.48 7.3 7.3 0 0 1 1-.25l.23-.05a6.74 6.74 0 0 1 2.36-.07Z" fill="#FFE399"/><path d="M37 41.22a15.94 15.94 0 0 1-6.7 2.61 17.42 17.42 0 0 0 .61-.51c.29-.21.58-.38.87-.5a2.06 2.06 0 0 1 1.02-.14l.2.1h.02v-.03c-.06-.1-.18-.16-.35-.17-.29 0-.58.04-.89.13-.1.03-.27.11-.49.24a3.42 3.42 0 0 1-.31.18l-.21.16a325.33 325.33 0 0 0-.69.57c-.6.08-1.22.12-1.85.14h-.45l-.95-.05c.04-.04.1-.07.18-.08a26.36 26.36 0 0 1 10-2.64Z" fill="#BB906D"/><path d="M29.17 42.22c0 .03 0 .07.04.1l-.4.06a9.7 9.7 0 0 0-1.36.27c-.24.04-.47.1-.69.19-.45.16-.87.35-1.27.57-.1.05-.26.16-.47.3l-.2-.03.32-.21c.12-.09.22-.14.3-.18l.2-.1a182.14 182.14 0 0 1 .91-.41c.06-.03.16-.07.3-.1l.22-.06a4.03 4.03 0 0 1 .62-.17l.38-.07c.31-.04.62-.1.92-.16h.18Z" fill="#2A463F"/><path d="m30.3 43.83-.22.03a325.7 325.7 0 0 1 .69-.57 3.09 3.09 0 0 0 .3-.22l.22-.12c.22-.13.39-.2.5-.24.3-.1.6-.14.88-.13.17 0 .29.06.35.17v.02h-.03l-.19-.09h-.02c-.38-.04-.71.01-1 .13a4.42 4.42 0 0 0-1.48 1.02Z" fill="#714C34"/><defs><linearGradient id="a" x1="10.42" y1="9.71" x2="68.15" y2="76.02" gradientUnits="userSpaceOnUse"><stop stop-color="#1A1E21"/><stop offset="1" stop-color="#06060A"/></linearGradient></defs></svg>