<svg width="112" height="112" viewBox="0 0 56 56" xmlns="http://www.w3.org/2000/svg"><rect fill="#EF901C" width="56" height="56" rx="28"/><path d="M28.19 9.88c.33.73.64 1.34.95 1.82.5.82 1 1.65 1.47 2.5.04.07.11.12.22.15s.22.04.33.04a4.3 4.3 0 0 1 1.75.34c2.12.82 3.88 2.11 5.27 3.87.47.6.98 1.4 1.52 2.41a53.1 53.1 0 0 1 1.78 3.61c.1.19.2.34.3.48.3.36.51.67.66.92.21.36.34.72.38 1.05.14 1.02.2 1.92.18 2.7a7.76 7.76 0 0 1-.48 2.63c-.4 1-.82 2.04-1.3 3.12-.07.19-.2.35-.35.48-.4.33-.75.72-1.07 1.17-.14.2-.34.37-.59.53a7.33 7.33 0 0 1-.96.5c-.14.07-.26.18-.37.33-.07.09-.16.24-.27.45-.12.21-.2.37-.28.45-.73.96-1.47 1.95-2.22 2.98a6.4 6.4 0 0 1-1.51 1.5c-.6.41-1.25.7-1.94.85-1.56.34-3.14.32-4.74-.07-1.57-.39-3-1.09-4.3-2.1-.4-.32-.8-.65-1.2-1a1 1 0 0 0-.6-.26c-.9-.06-1.66-.16-2.3-.29-.8-.15-1.53-.38-2.21-.68a6.62 6.62 0 0 1-1.6-.94c-.49-.41-.87-.9-1.14-1.5a4.84 4.84 0 0 1-.31-1.5 31.3 31.3 0 0 0-.1-.93c-.11-.86-.16-1.52-.16-2 0-.4.05-.85.15-1.35a86.87 86.87 0 0 1 1.65-7.2c.14-.47.29-.89.46-1.25.15-.3.24-.65.28-1.04a3.9 3.9 0 0 0-.07-1.1c-.05-.27-.1-.53-.12-.78-.17-1.78-.29-3.56-.34-5.33-.03-.78.15-1.46.54-2.05.1-.18.28-.32.52-.44.22-.11.47-.19.75-.22.28-.04.54-.04.78.01.26.05.47.14.63.28.34.29.7.59 1.08.89.3.23.7.6 1.2 1.1l.13.12c.16.17.32.35.45.55.3.46.65.87 1.03 1.23a.7.7 0 0 0 .48.2c.18 0 .35-.03.51-.12.33-.18.66-.34 1.01-.48.06-.03.1-.07.14-.13.11-.2.16-.47.16-.77a6.04 6.04 0 0 0-.14-1 5.56 5.56 0 0 1-.08-.88c-.01-1.22 0-2.42.02-3.6 0-.57.06-.98.16-1.22.16-.36.4-.62.72-.77a1.55 1.55 0 0 1 1.57.17c.45.37.87.76 1.26 1.18.1.12.2.25.26.4Z" fill="#fff"/><path d="M39.93 25.08c.1-.08.19-.13.27-.12.1 0 .18-.03.24-.1a.28.28 0 0 0 .05-.26 1.78 1.78 0 0 1-.05-.49.19.19 0 0 0-.04-.12.65.65 0 0 1-.12-.3c0-.05-.02-.1-.06-.15a1.45 1.45 0 0 1-.31-.58.3.3 0 0 0-.08-.14.15.15 0 0 1-.05-.15.19.19 0 0 0-.04-.15c-.08-.1-.15-.22-.2-.34-.02-.02-.02-.02-.03 0h-.01a.06.06 0 0 1-.05-.03 1 1 0 0 1-.1-.31.21.21 0 0 0-.07-.12c-.04-.04-.1-.1-.2-.15l-.23-.18a2.82 2.82 0 0 0-.44-.41c-.2-.14-.34-.27-.43-.37a26.7 26.7 0 0 0-.4-.41.25.25 0 0 0-.13-.07.11.11 0 0 0-.12.05c-.03.04-.05.03-.07 0v-.05c0-.02 0-.03-.02 0h-.04l-.01-.04a.55.55 0 0 0-.03-.25c-.03-.1-.05-.1-.05 0v.77A.77.77 0 0 1 37 21a.85.85 0 0 1-.56.34c-.13.02-.44.01-.92-.03.2 0 .37-.03.53-.1a.08.08 0 0 0 .05-.06.08.08 0 0 0-.05-.08.25.25 0 0 0-.15-.03c.12.02.25-.02.38-.13l.5-.18a.18.18 0 0 0 .1-.1c.2-.44.16-.85-.12-1.21-.24-.3-.6-.54-1.1-.7-.1-.04-.19-.08-.28-.14a.92.92 0 0 1-.24-.19 1.95 1.95 0 0 0-1.28-.49c-.26.01-.5 0-.76-.05a8.64 8.64 0 0 0-.98-.1l-.02-.01a117.5 117.5 0 0 0 1.88.23c.13.01.22.05.28.1.09.11.1.23.04.35-.2.44-.48.54-.85.32a.26.26 0 0 0-.12-.04l-3.7-.13a.16.16 0 0 1-.16-.16l-.07-1.69c0-.05-.03-.08-.08-.1l-.19-.04c-.07-.02-.09-.06-.05-.12.06-.1.09-.17.08-.24a.53.53 0 0 1 .09-.2c-.02.18.03.32.14.4a.2.2 0 0 1 .07.13 6.1 6.1 0 0 1 .1.66l.02-.01v-.02a.95.95 0 0 1-.04-.3c0-.11.02-.11.05 0a15.29 15.29 0 0 0 .09.28v-.06c.03-.04.05-.04.06 0l.08.26c0 .01.01.02.03.02.03 0 .05 0 .04-.02 0-.03 0-.04.03-.03a1 1 0 0 1 .3.2c.02.03.05.05.08.05.07 0 .12-.01.16-.06a.16.16 0 0 0 .03-.13l-.1-.5a.28.28 0 0 0-.06-.13 3.68 3.68 0 0 1-.76-1.52 1.05 1.05 0 0 0-.31-.32.26.26 0 0 1-.1-.1l-.26-.7c-.2-.59-.54-1.4-1.03-2.45-.15-.32-.3-.6-.45-.83a13.6 13.6 0 0 0-.53-.76.31.31 0 0 0-.21-.12.3.3 0 0 0-.23.06c-.07.05-.2.07-.4.05.02-.16-.07-.42-.26-.8a1.4 1.4 0 0 0-.35-.47.31.31 0 0 1-.09-.12c-.06-.13-.2-.16-.43-.1.34-.3.66-.38.95-.26.32.13.65.37.97.72.48.5.89 1.03 1.24 1.6.89 1.42 1.67 2.8 2.34 4.1.03.06.08.08.15.07.03 0 .09 0 .16-.02.38-.05.66-.09.86-.1.32 0 .6.02.86.1.5.14.96.34 1.39.6a16.58 16.58 0 0 1 4.55 4.21 18.81 18.81 0 0 1 2.88 5.6.04.04 0 0 1-.04.02l-1.3-.14Z" fill="#F4A544"/><path d="M26.05 10.07c-.15.84-.16 1.8-.01 2.86.14 1 .24 1.67.3 2l.15.72c0 .05.03.1.07.12.05.05.07.12.07.22-.01.14.05.27.2.38 0 .07 0 .1.03.08v.12c0 .04.03.08.06.12.19.17.4.25.64.21.27-.04.54-.17.82-.38.1-.1.23-.19.36-.27.17-.09.3-.25.42-.49.04-.08.06-.08.07.02l.01.14a.1.1 0 0 0 0 .1.53.53 0 0 0-.1.2l-.92.76a.1.1 0 0 1-.07.03h-.04a20.92 20.92 0 0 1-.4.3.27.27 0 0 0-.08.1.33.33 0 0 1-.33.23 5.9 5.9 0 0 1-1.47-.2l.6.01c.07 0 .08-.02.02-.06-.16-.12-.33-.2-.52-.25a.17.17 0 0 1-.12-.09l-.24-.46h-.05c-.06.02-.11 0-.14-.07a.38.38 0 0 0-.07-.1.35.35 0 0 1-.07-.13l-.21-.57c-.03-.06-.06-.07-.1-.01-.06.1-.1.22-.1.4a8.06 8.06 0 0 1-.06-.68c-.02-.28-.04-.5-.07-.63a31.8 31.8 0 0 1-.3-3c-.08-1.28.1-2.36.5-3.22.23-.06.38-.03.44.1.02.05.05.08.1.12.12.1.24.26.34.47.19.38.28.64.27.8Z" fill="#B2612A"/><path d="M29.56 15.24c-.1 0-.15.08-.15.23.01.12-.05.28-.17.45l-.01-.14c0-.1-.03-.1-.07-.02-.11.24-.25.4-.42.5-.13.07-.25.16-.36.26-.18.01-.36.05-.52.12-.13.05-.3.03-.55-.05a.24.24 0 0 0-.14 0c-.1.03-.21-.02-.32-.14-.02.01-.03-.01-.02-.08l-.48-1.44c-.07-.33-.17-1-.31-2a9.12 9.12 0 0 1 0-2.86c.2.02.33 0 .4-.05a.3.3 0 0 1 .23-.06c.08.01.15.05.2.12a6.64 6.64 0 0 1 .98 1.59c.5 1.05.84 1.86 1.04 2.45l.27.7c.02.04.05.07.09.1.14.1.24.2.31.32Z" fill="#F2BFA1"/><path d="M23.53 17.28c.84-.05 1.6 0 2.3.17.56.14 1.05.2 1.47.2.16 0 .28-.08.34-.24a.27.27 0 0 1 .08-.1 21.4 21.4 0 0 0 .39-.3h.04a.1.1 0 0 0 .07-.03l.93-.76c0 .07-.02.15-.08.24-.04.06-.02.1.05.12l.2.04c.04.02.07.05.07.1l.07 1.69c0 .04.01.08.04.1.03.04.07.05.11.06l3.7.13c.05 0 .1.02.13.04.37.22.65.12.86-.32a.3.3 0 0 0-.05-.34c-.06-.06-.15-.1-.28-.11a119.86 119.86 0 0 1-.88-.12c.25.04.5.06.75.05a1.95 1.95 0 0 1 1.29.5c.07.07.15.13.24.18.09.06.19.1.29.15l-.46-.04c-.7-.17-1.23.01-1.58.55-.04.06-.04.1.02.12-.04.07-.06.13-.06.17-.27.51-.24.93.07 1.25.25.26.65.42 1.2.48l.66.05c.48.04.8.05.92.03a.85.85 0 0 0 .56-.34c.06-.1.1-.22.12-.4v-.76c0-.1.02-.1.05 0 .03.08.04.17.03.25l.01.03h.04c.02-.02.02-.01.02 0v.05c.02.04.04.05.07 0a.11.11 0 0 1 .12-.04c.06.01.1.04.13.07l.4.41c.1.1.24.23.43.37.16.12.3.25.44.4.05.06.12.12.23.19.1.06.16.1.2.15.04.03.06.07.07.12a1 1 0 0 0 .1.31c.01.02.03.03.05.03h.01c0-.02.01-.02.02 0 .06.12.13.23.21.34.04.04.05.1.04.15 0 .06 0 .11.05.15a.3.3 0 0 1 .08.14c.06.23.17.43.3.58.05.05.07.1.07.15.02.11.06.21.12.3.03.04.04.08.04.12 0 .15.01.31.05.5.03.09 0 .17-.05.24a.27.27 0 0 1-.24.1c-.08 0-.17.05-.27.13l-.58.03c-.69.1-1.4.27-2.1.52a35.53 35.53 0 0 1-1.97.67.42.42 0 0 0-.18.13.21.21 0 0 1-.12.08 1 1 0 0 0-.4.21c-.04 0-.07.03-.07.08s-.03.08-.07.1a8.37 8.37 0 0 1-.58.26.09.09 0 0 1-.07.06c-.14.03-.28.06-.42.11-.1.04-.18.08-.27.14a46.21 46.21 0 0 0-1.4.67c-.1.05-.18.1-.25.16s-.15.1-.23.15a9.4 9.4 0 0 1-.8.35.16.16 0 0 0-.09.1c-.02.07-.06.1-.13.09a.2.2 0 0 0-.13.04c-.62.4-1.37.67-2.28.8-.74-.3-1.5-.67-2.27-1.1a9.14 9.14 0 0 0-2.83-1.22 2.95 2.95 0 0 0-1.72.07c-.3.1-.54.23-.7.41a2.5 2.5 0 0 0-1.01 1.57 3.8 3.8 0 0 0 0 1.24 50.22 50.22 0 0 1 .32 1.54l.6 1.08a8.37 8.37 0 0 0 1.89 2.52c.44.37.87.66 1.28.86 1.28.63 2.6 1.04 3.97 1.24a28.27 28.27 0 0 0 7.87.06c.78-.13 1.6-.25 2.48-.34.11-.01.13.02.05.1-.03.04-.04.1-.03.21l-2.65 3.99c-.1-.04-.22.06-.36.3.03-.11.08-.2.15-.3.02-.01.02-.03 0-.04l-.03-.03h-.03c-.08.11-.17.2-.28.27a.83.83 0 0 0-.21.2c-.17.23-.4.4-.7.52a.34.34 0 0 0-.15.13c-.02.03-.02.04 0 0h.05c.03.01.03.03 0 .04l-.95.55c-.07.02-.13.04-.16.03-.08-.02-.07-.05.02-.1a7.06 7.06 0 0 1 .31-.16h-.04a.05.05 0 0 1-.03-.04l.01-.05c.04-.04.03-.06-.03-.06-.46.02-.91 0-1.35-.02-.03 0-.04-.02-.03-.05l.03-.02c.09-.02.08-.03-.02-.04a.88.88 0 0 1-.2-.04c-.12-.04-.11-.07.01-.07.46 0 .91 0 1.37.02a1.85 1.85 0 0 0 1.4-.57c.08-.07.07-.08-.01-.03a.25.25 0 0 0-.07.07.15.15 0 0 1-.08.06l-.23.08c-.13.05-.4.07-.83.05h-.24a.2.2 0 0 0-.12.04c-.06.05-.12.05-.19 0h-.03a.13.13 0 0 0-.05.01c-.03.03-.03.04.01.05l.33.05.02.02v.04a.1.1 0 0 1-.08.03c-.2 0-.38-.02-.55-.06-.21-.06-.39-.09-.52-.09l-.58-.02a.22.22 0 0 1-.13-.06.24.24 0 0 0-.19-.06c-.05 0-.1 0-.15-.02a42.5 42.5 0 0 0-.98-.33c-.3-.1-.6-.23-.93-.4a62.35 62.35 0 0 1-1.56-.85h-.03c-.04 0-.07 0-.1-.02-.16-.1-.33-.2-.52-.26a2.4 2.4 0 0 1-.53-.26 25.8 25.8 0 0 1-.36-.23 1.96 1.96 0 0 0-.38-.2 62.28 62.28 0 0 0-2-.71 3.69 3.69 0 0 1-.78-.32 5.64 5.64 0 0 0-.8-.37.17.17 0 0 1-.08-.06.23.23 0 0 0-.1-.09 1.64 1.64 0 0 1-.47-.27l-.66-.57a2.5 2.5 0 0 1-.44-.54l-.26-.4c-.08-.14-.15-.28-.2-.42a3.67 3.67 0 0 0-.21-.48 2.8 2.8 0 0 1-.28-1.1h-.03a.07.07 0 0 1-.05-.06c-.07-.44-.1-.88-.1-1.35l.05-1.1c0-.08 0-.21-.03-.38l-.03-.38.06-.95c0-.18.03-.38.1-.6l.11-.6c.02-.14.07-.28.13-.42.07-.14.12-.29.14-.43.03-.2.08-.41.13-.61.02-.06.03-.15.03-.26 0-.14.02-.24.05-.32a14.8 14.8 0 0 0 .6-1.96l.05-.07a.26.26 0 0 0 .05-.1c.1-.46.18-.93.27-1.42 0-.03 0-.05-.04-.05h-.03c-.05.06-.1.06-.15.01l-.13-.15a8.2 8.2 0 0 0 1.97-1.34c.1.31.34.2.7-.31.27.04.55.1.86.16.09.02.2 0 .32-.05a.64.64 0 0 1 .17-.05c.34-.04.6.06.75.29l-.36.48c0 .08-.03.17-.09.29a3.23 3.23 0 0 0-.58 1.66c-.01.32.05.6.17.81.14.25.37.42.68.5.27.08.5.05.7-.1.36-.1.57-.29.64-.57.06 0 .1-.02.14-.08.04-.07.02-.1-.06-.07l-.2.07a.33.33 0 0 1-.34-.06 1.36 1.36 0 0 1-.48-.78 5.6 5.6 0 0 1 0-1.08c-.04.38 0 .75.1 1.11.08.27.22.49.43.65.13.1.28.14.44.1a.6.6 0 0 0 .34-.2c.13-.16.24-.33.33-.5.13-.2.24-.42.32-.66.08-.25.12-.49.11-.7 0-.26-.07-.47-.19-.65a1.1 1.1 0 0 0-.6-.43l-.05-.22c0-.02 0-.03.03-.03h.04c.08-.02.08-.04 0-.08a.41.41 0 0 1-.1-.08.13.13 0 0 0-.13-.04l-.45.09a.24.24 0 0 0-.13.07.21.21 0 0 1-.19.06c-.06 0-.14 0-.24.02a.68.68 0 0 1-.28.02 2.1 2.1 0 0 0-.9 0 .6.6 0 0 0-.36-.09c-.05 0-.1 0-.15-.02l-.36-.14a.22.22 0 0 0-.14-.01.25.25 0 0 0-.14.09c-.07.1-.09.1-.04-.03.1-.22.23-.29.4-.2.4.2.75.29 1.05.26.26-.02.51-.03.77-.02.06 0 .1 0 .16-.03.1-.05.2-.06.3-.05.05 0 .1 0 .15-.02.27-.1.55-.18.84-.25.2-.06.39-.14.56-.24a.26.26 0 0 1 .13-.05h.08c.04 0 .09 0 .13-.02.23-.1.43-.22.6-.35l.44-.3c.3-.17.59-.43.87-.76a.08.08 0 0 0 .02-.07c0-.04.01-.06.05-.06.1 0 .16-.06.19-.17.01-.05 0-.08-.06-.1a.63.63 0 0 0-.57.08.32.32 0 0 1-.17.04c-.07 0-.07 0-.01-.04.15-.08.31-.14.47-.18a.7.7 0 0 0 .37-.25c.16-.2.23-.45.22-.72 0-.05.01-.09.05-.12a.08.08 0 0 0 .02-.09c-.08-.32-.1-.69-.07-1.1.02-.16-.05-.24-.21-.25-.03 0-.04 0-.03.04l.05.03c.05.01.07.04.07.1.01.51 0 1.03-.02 1.56a.6.6 0 0 1-.11.27.87.87 0 0 0-.1.18.2.2 0 0 1-.1.12c-.38.21-.76.38-1.13.5-.07.02-.13.07-.2.16a.13.13 0 0 1-.15.05.15.15 0 0 0-.15.05.27.27 0 0 1-.12.07c-.22.07-.44.13-.66.17-.22.04-.43.12-.61.23-.22.12-.45.19-.69.18-.32 0-.65-.01-.98-.04-.3-.03-.54-.15-.71-.35a.67.67 0 0 0-.39-.21.23.23 0 0 1-.13-.08.48.48 0 0 0-.33-.18.42.42 0 0 1-.33-.21 2.97 2.97 0 0 0-.7-.79l-.03.01v.04c.04.08.03.1-.03.02a21.8 21.8 0 0 1-.5-.64l-.03.02c-.02.02-.02.03-.01.04a44.9 44.9 0 0 0 .21.32c-.08-.12-.16-.19-.23-.2l-.6-.8a.35.35 0 0 1-.05-.12.6.6 0 0 0-.17-.27c-.11-.1-.2-.22-.28-.35-.23-.4-.55-.7-.94-.93-.06-.03-.1-.02-.15.03-.03.03-.03.07-.01.1.04.08.04.14 0 .21a.17.17 0 0 1-.11.09 1.7 1.7 0 0 1-.28.05c-.1 0-.22.06-.37.17-.1.07-.18.12-.25.14a.15.15 0 0 0-.1.12l-.07.39-.03-.6c0-.05-.04-.1-.1-.12-.04-.01-.06-.04-.07-.09a.63.63 0 0 0-.06-.2 94.04 94.04 0 0 1-.72-1.4 1.22 1.22 0 0 0-.22-.36c-.02-.02-.03-.02-.04 0v.02c.02.06 0 .07-.03.01a6.9 6.9 0 0 0-.42-.49c.01-.08.07-.16.16-.23.46-.34.96-.44 1.5-.3.43.11.89.38 1.39.8.53.46 1 .93 1.4 1.4a34.6 34.6 0 0 1 1.8 2.35c.03.04.07.06.1.08l.13-.01 1.16-.52Z" fill="#EF901C"/><path d="M15.89 13.71c.14.16.29.32.42.5.04.05.05.04.03-.02v-.02c.01-.02.02-.02.04 0 .1.11.17.23.22.37l.15.31.57 1.08c.03.06.05.13.06.2.01.05.03.08.07.09.06.02.1.07.1.13l.03.59.1 2.31c0 .03 0 .04.03.05.02 0 .03 0 .04.02l.01.06a108.39 108.39 0 0 0 .15 1.15c.01-.02.03-.03.05-.02.02 0 .03.01.04.04l.15.63a3.81 3.81 0 0 0 .24.7c.1.27.17.45.23.57.12.2.25.31.4.35.3.07.58.08.85 0a5.5 5.5 0 0 0 1.73-.8c.08-.05.17-.17.27-.33.07-.12.13-.2.18-.25a.61.61 0 0 1 .26-.17.95.95 0 0 1-.19.48 3.98 3.98 0 0 1-.5.54 8.2 8.2 0 0 1-1.98 1.34l-.35.2c-.04.03-.05.06-.03.1v.15c-.13.42-.35.78-.65 1.09a.23.23 0 0 0-.06.12c-.05.29-.12.56-.21.82l-.4 1.13a.77.77 0 0 0 0 .43c0 .06 0 .12-.02.18l-.2.5c-.06.16-.1.32-.12.48a51.92 51.92 0 0 0-.32 2.97 13.62 13.62 0 0 0 .18 4.12c.02.15.07.3.15.47.08.17.15.35.2.52.08.22.2.44.34.66.3.43.62.8.98 1.14.03.02.06.03.1.03.05 0 .1.03.14.08.1.12.23.22.39.28.14.07.28.14.41.23.24.15.52.26.83.34.13.04.26.08.38.15.11.05.23.09.35.1.36.02.69.1 1 .25.04.02.1.03.14.03a4.45 4.45 0 0 1 2.1.85c.1.08.2.14.33.18a5.83 5.83 0 0 0 .98.66c.13.06.24.15.36.25.15.14.35.26.58.36.2.08.41.18.63.3.2.1.4.2.61.27l.43.18c.17.08.37.13.59.16.02 0 .03.01.04.03.01.03.04.05.07.05.14 0 .29.03.43.07a6.32 6.32 0 0 0 1.22.2.35.35 0 0 0-.05.02.07.07 0 0 1-.06 0c-.1-.03-.18-.01-.24.06-.03.05-.03.09.03.12.12.07.27.08.45.02l.08.06c.02.01.01.04-.02.06a.4.4 0 0 0-.1.1c-.03.06-.02.09.04.1h.04c.1-.02.1 0 .04.07-.06.06-.09.12-.08.19-.55.19-1.12.26-1.71.22l-.63-.05a2.24 2.24 0 0 0-.5-.17c.02 0 .03-.01.03-.03l-.01-.02-1.49-.24v.03a3.89 3.89 0 0 0-1.37-.42c-.05-.15-.21-.22-.47-.19-.28-.1-.55-.23-.81-.38a30.47 30.47 0 0 1-3.23-2.09.67.67 0 0 0-.31-.13l-.93-.09a20.4 20.4 0 0 1-.8-.07 9.51 9.51 0 0 1-3.26-1.1 4.83 4.83 0 0 1-2.06-2.54 8.35 8.35 0 0 1-.5-3.35c.1-2.22.46-4.33 1.11-6.33l.45-1.47c.26-.9.64-2 1.13-3.29a.32.32 0 0 0 .02-.16l-.45-2.51a19.25 19.25 0 0 1-.2-5.4 3 3 0 0 1 .5-1.05ZM26.35 14.93l.48 1.44c-.15-.11-.21-.24-.2-.38 0-.1-.02-.17-.07-.22a.2.2 0 0 1-.07-.12l-.14-.72Z" fill="#946031"/><path d="M29.56 15.24c.13.56.39 1.07.76 1.52.03.04.05.08.06.13l.1.5a.16.16 0 0 1-.19.2.14.14 0 0 1-.09-.05 1 1 0 0 0-.29-.2c-.03-.02-.04-.01-.03.02 0 .01 0 .02-.04.02-.02 0-.03 0-.03-.02l-.08-.25c-.01-.05-.03-.05-.05-.01a.1.1 0 0 0-.01.06c0 .01 0 .01 0 0l-.09-.29c-.03-.1-.04-.1-.05.01 0 .1.01.2.04.3v.02a6.16 6.16 0 0 1-.01 0 6.08 6.08 0 0 0-.11-.65.2.2 0 0 0-.07-.12c-.11-.09-.16-.23-.14-.41a.1.1 0 0 1 0-.1c.12-.17.18-.33.17-.45 0-.15.05-.23.15-.23Z" fill="#FED75E"/><path d="M20.96 18.1a4.5 4.5 0 0 1-.32-.4.09.09 0 0 0-.08-.03c-.05 0-.06.02-.03.06.16.19.29.4.37.64.09.25.22.5.39.72.12.17.23.34.33.52l.3.53c.01.03.02.03.03 0l.01-.04c.03-.02.05-.02.06 0 .05.07.1.12.13.14l.3.53a.24.24 0 0 0-.06.2c0 .04-.01.07-.05.07a.1.1 0 0 1-.05 0c-.04-.01-.05 0-.03.03a.1.1 0 0 1 0 .07l-.02.04c-.07.05-.06.06 0 .03.08-.02.1-.01.07.04a.6.6 0 0 0-.26.17c-.05.05-.1.13-.18.25-.1.16-.2.28-.27.34a5.5 5.5 0 0 1-1.73.8c-.27.07-.55.06-.85-.01-.15-.04-.28-.16-.4-.35a3.65 3.65 0 0 1-.3-.78 3.8 3.8 0 0 1-.17-.5l-.15-.62c0-.03-.02-.04-.04-.04s-.04 0-.05.02a104.16 104.16 0 0 1-.16-1.21.03.03 0 0 0-.04-.02c-.02 0-.04-.02-.04-.05l-.09-2.31.08-.4c0-.05.04-.09.1-.11.06-.02.14-.07.24-.14.15-.1.27-.17.37-.17l.28-.05a.17.17 0 0 0 .11-.09.19.19 0 0 0 0-.2c-.02-.04-.02-.08.01-.11.04-.05.1-.06.15-.03.4.23.7.54.94.93.07.13.17.25.28.35a.6.6 0 0 1 .17.27c.01.05.03.09.06.12l.6.8Z" fill="#F2BFA1"/><path d="M25.83 17.45a7.53 7.53 0 0 0-2.3-.17l1.26-.53a.2.2 0 0 0 .1-.1c.03-.04.04-.09.03-.14l-.08-.4c0-.18.03-.3.1-.4.03-.06.06-.05.09.01l.2.57c.02.05.05.09.08.12l.07.1c.03.07.08.1.14.07h.04l.01.01.24.46c.03.05.07.08.12.1.19.04.36.12.52.24.06.04.05.06-.02.06h-.6ZM26.86 16.45c.1.12.2.17.31.14.05-.01.1-.01.14 0 .24.08.42.1.55.05.16-.07.34-.1.52-.12-.28.21-.55.34-.82.38a.74.74 0 0 1-.64-.21.18.18 0 0 1-.05-.12l-.01-.12ZM27 17.05h.04c.01.01.02.02 0 .04-.01.03-.04.05-.08.04-.24-.07-.43-.21-.57-.42v-.06l.05-.02c.03-.03.05-.02.07.02.02.06.06.12.1.16.04.04.08.06.12.08.09.02.15.06.2.13.02.02.04.03.07.03Z" fill="#946031"/><path d="M23.5 21.9a.55.55 0 0 1-.32.06c-.07 0-.16-.04-.29-.09l-.22-.07a.43.43 0 0 0-.22.01c-.11.04-.16.09-.13.15-.37.51-.6.62-.7.31l.11-.1c.2-.2.32-.34.4-.44a.95.95 0 0 0 .18-.48c.03-.05 0-.06-.06-.04-.07.03-.08.02-.01-.03a.08.08 0 0 0 .03-.04.1.1 0 0 0 0-.07c-.03-.03-.02-.04.02-.03h.05c.04 0 .05-.03.05-.07a.24.24 0 0 1 .05-.2l.69.26.12.08c.2.18.5.29.88.3.4.02.75-.02 1.05-.13.19-.06.35-.18.47-.33.06-.08.05-.12-.05-.11-.5 0-1 0-1.45-.04a3.32 3.32 0 0 1-1.72-.64c-.18-.15-.27-.13-.28.08a.52.52 0 0 1-.13-.14c-.01-.02-.03-.02-.06 0a.06.06 0 0 0-.01.03c0 .04-.02.04-.04.01a161 161 0 0 1-.29-.53 4.4 4.4 0 0 0-.33-.52 2.6 2.6 0 0 1-.39-.72c-.08-.24-.2-.45-.37-.64-.03-.04-.02-.06.03-.06.03 0 .06.01.08.04l.32.4c.07.01.15.08.23.2h.02v-.02l-.23-.3v-.04l.04-.02h.01c.16.21.32.43.5.64.05.07.06.06.03-.02l-.01-.04c0-.02 0-.02.02 0 .33.26.56.52.71.78.07.13.18.2.33.21.13.02.24.07.33.18.03.04.08.07.13.08.16.03.29.1.39.21.17.2.4.32.7.35.34.03.67.04 1 .04.23 0 .46-.06.68-.18.18-.11.39-.19.6-.23.23-.04.45-.1.67-.17a.27.27 0 0 0 .12-.07c.04-.05.1-.07.15-.05.06.02.11 0 .15-.05.07-.09.13-.14.2-.16.37-.12.75-.29 1.14-.5a.2.2 0 0 0 .09-.12l.1-.18c.06-.11.1-.2.1-.27.04-.53.05-1.05.03-1.57 0-.05-.02-.08-.07-.1a.07.07 0 0 1-.05-.02c-.01-.03 0-.05.03-.04.16 0 .23.09.21.24-.04.42-.01.8.07 1.11.01.04 0 .07-.02.1a.14.14 0 0 0-.05.1c.01.28-.06.52-.22.73a.7.7 0 0 1-.37.25c-.16.04-.32.1-.47.18-.06.03-.06.04 0 .04.07 0 .13-.01.18-.04a.63.63 0 0 1 .57-.08c.05.02.07.05.06.1-.03.11-.09.17-.2.17-.03 0-.04.02-.04.06 0 .02 0 .05-.02.07-.28.33-.57.59-.87.76l-.44.3c-.17.13-.37.25-.6.35a.3.3 0 0 1-.13.02h-.07c-.05 0-.1.02-.14.05-.17.1-.36.18-.56.24-.29.07-.57.16-.84.26a.33.33 0 0 1-.15.01c-.1-.01-.2 0-.3.05a.32.32 0 0 1-.16.03c-.26 0-.51 0-.77.02-.3.03-.65-.06-1.04-.26-.18-.09-.31-.02-.4.2-.06.12-.04.13.03.03a.25.25 0 0 1 .14-.1c.05 0 .1 0 .14.02l.36.14c.05.02.1.02.15.02a.6.6 0 0 1 .36.08Z" fill="#F4A544"/><path d="M19.44 18.16c.21.3.45.5.54.43.09-.06-.01-.36-.22-.66-.22-.3-.46-.5-.55-.44-.08.06.02.36.23.67Z" fill="#fff"/><path d="M20.23 19.05c.03.05.08.07.13.06l.08-.02.04-.03v-.05l-.67-1.06c-.07-.1-.05-.12.05-.05.1.08.17.17.2.26 0 .05.02.1.06.12.26.24.47.54.63.9a.2.2 0 0 0 .07.08l.05.02a.1.1 0 0 1 .07.08l.03.2c.05.28-.04.33-.26.16a.69.69 0 0 0-.11-.07.28.28 0 0 1-.12-.1c-.14-.2-.3-.4-.46-.58a.08.08 0 0 1-.02-.07c0-.05.03-.06.07-.03.06.05.12.11.16.18Z" fill="#FED75E"/><path d="m35.2 18.69-1 .36c-.1 0-.18.06-.25.2a.82.82 0 0 1-.3.1c-.07 0-.07-.05-.03-.11.35-.54.88-.72 1.58-.55Z" fill="#F4A544"/><path d="M34.2 19.05c.03.09.02.12-.02.09l-.08.35c-.01.05 0 .1.01.14.34.82.97 1.2 1.89 1.14.05.04.08.08.07.11l-1.16-.15a.4.4 0 0 1-.14-.05 7.53 7.53 0 0 1-.42-.26.74.74 0 0 1-.2-.2 1.8 1.8 0 0 1-.13-.23 4.05 4.05 0 0 0-.08-.16.25.25 0 0 1-.03-.14l.04-.45c.07-.13.16-.19.25-.19Z" fill="#C5C5C4"/><path d="M36 20.77c-.92.06-1.55-.32-1.89-1.14a.23.23 0 0 1 0-.14l.07-.35c.05.02.1.03.14.01.05-.01.08 0 .1.04.07.13.1.27.09.42 0 .05.02.1.05.13.05.05.09.1.1.17.03.05.06.08.12.1.06.01.1.05.13.1.02.05.05.09.1.1a8 8 0 0 0 1.5.4v.04l-.01.01c-.17.02-.33 0-.48-.04l-.04.01a.03.03 0 0 0 0 .05l.07.04c.08 0 .09.02.04.06l-.09-.01Z" fill="#E5E5E4"/><path d="m33.95 19.24-.04.45c0 .05.01.1.03.14l.08.16.13.23c.05.08.12.15.2.2.14.1.28.18.42.26l.14.05 1.16.15c.1-.05.17-.04.2.03a.52.52 0 0 1-.38.13l-1-.11a3.09 3.09 0 0 1-1-.57c-.16-.15-.24-.4-.22-.75 0-.04-.02-.06-.05-.07l-.04-.01c0-.04.02-.1.06-.17a.82.82 0 0 0 .31-.12Z" fill="#979898"/><path d="M33.58 19.53h.04c.03.02.05.04.05.08-.02.35.06.6.22.75.21.2.55.4 1 .57.12.1.25.17.38.21.05.02.05.04 0 .06a.96.96 0 0 1-.42.06c-.55-.06-.95-.22-1.2-.48-.31-.32-.34-.74-.07-1.25Z" fill="#6D6C69"/><path d="m22.44 20.77-.29-.53c.01-.2.1-.23.28-.08l.2.15c.5.3 1.01.46 1.52.5.46.02.94.03 1.45.03.1 0 .11.03.05.1-.12.16-.28.28-.47.34-.3.11-.65.15-1.05.13a1.39 1.39 0 0 1-.88-.3.42.42 0 0 0-.12-.08l-.69-.26Z" fill="#FED75E"/><path d="m34.89 20.93 1 .11c.05 0 .1 0 .15.03.03.01.05.04.05.08 0 .03-.02.06-.05.07-.16.06-.34.1-.53.09l-.66-.05c.15 0 .29-.01.42-.07.05-.01.05-.03 0-.05a1.31 1.31 0 0 1-.38-.21Z" fill="#946031"/><path d="M25.92 22.1h-.12c-.1-.03-.14-.08-.16-.16 0-.05-.04-.07-.09-.06l-.68.13a.26.26 0 0 0-.12.06 1 1 0 0 1-.34.24c-.16-.23-.4-.33-.75-.3l-.17.06a.54.54 0 0 1-.32.05l-.86-.16c-.02-.06.03-.11.14-.15a.43.43 0 0 1 .22 0c.05 0 .12.03.22.06l.3.1c.1 0 .21-.01.32-.07.3-.06.6-.06.9 0 .07.02.17.02.28 0 .1-.03.18-.03.24-.03.08 0 .14-.01.19-.06a.24.24 0 0 1 .13-.07l.45-.1c.05 0 .1.01.13.05l.1.08c.08.04.08.06 0 .08h-.04c-.03 0-.03.01-.03.03l.06.22Z" fill="#F4A544"/><path d="m25.8 22.1-.26-.02c-.54-.1-.84 0-.9.31l-.19.35a1.24 1.24 0 0 0-.2.59l-.01-.02v-.04a.43.43 0 0 0 .02-.23c-.02-.07-.04-.07-.05 0-.16.58-.15 1.16.01 1.74a.4.4 0 0 0-.03.23s0 .01 0 0h-.01c-.16-.6-.2-1.2-.14-1.81.28-.41.29-.55.02-.4l.35-.49a1 1 0 0 0 .34-.24.26.26 0 0 1 .12-.06l.68-.13c.05-.01.08 0 .1.06 0 .08.06.13.15.15Z" fill="#F2BFA1"/><path d="M25.54 22.08a.94.94 0 0 1-.35.08 1.3 1.3 0 0 0-.55.23c.06-.3.36-.41.9-.31Z" fill="#F4A544"/><path d="m25.19 22.16-.04.46c0 .04-.02.08-.04.1a.2.2 0 0 0-.06.17c0 .08 0 .15-.02.23-.11.44-.05.9.19 1.37a.2.2 0 0 0 .09.1c.38.19.7.17.96-.06-.09.18-.2.35-.33.5a.6.6 0 0 1-.34.22.5.5 0 0 1-.44-.1c-.2-.17-.35-.39-.43-.66-.1-.36-.14-.73-.1-1.1-.06-.26.02-.6.22-1.05l-.4.4.19-.35c.22-.14.4-.22.55-.23Z" fill="#E5E5E4"/><path d="M24.62 23.38c-.03.56-.03.92 0 1.08.07.3.23.56.49.78.1.08.21.1.34.06l.2-.07c.08-.03.1 0 .06.07a.15.15 0 0 1-.14.08c-.19.17-.32.24-.42.22-.37-.2-.59-.42-.65-.64a4.77 4.77 0 0 1-.05-2l.4-.62c-.2.44-.28.79-.23 1.04Z" fill="#C5C5C4"/><path d="m24.85 22.34-.4.62a4.77 4.77 0 0 0 .05 2c.06.22.28.43.65.64-.07.21-.29.21-.65 0-.19-.24-.28-.51-.28-.82a3.23 3.23 0 0 1-.01-1.74c.01-.07.03-.07.05 0 .01.07 0 .15-.02.23v.06c.02-.21.1-.41.21-.59l.4-.4Z" fill="#979898"/><path d="M24.04 23.2c0-.15-.04-.2-.08-.12a.86.86 0 0 0 .1-.29c.27-.14.26 0-.02.4Z" fill="#946031"/><path d="M24.04 23.2A5.24 5.24 0 0 0 24.2 25a.4.4 0 0 1 .03-.23c0 .3.1.58.28.82.1.1.23.16.4.16.04 0 .06.03.05.08l-.02.12a.8.8 0 0 1-.7.1 1.09 1.09 0 0 1-.68-.5 1.48 1.48 0 0 1-.17-.82c.02-.28.08-.58.2-.9.1-.29.23-.54.38-.76.04-.07.07-.03.08.12Z" fill="#6D6C69"/><path d="m19.64 23.61.13.15c.05.05.1.05.15 0l.03-.01c.03 0 .05.02.04.05l-.27 1.42-.05.1-.05.07a14.8 14.8 0 0 1-.6 1.97c-.03.07-.05.17-.05.31 0 .11-.01.2-.03.26-.05.2-.1.4-.13.6-.02.15-.07.3-.14.44-.06.14-.1.28-.13.42a4.8 4.8 0 0 1-.12.6c-.06.22-.09.42-.1.6 0 .31-.02.63-.05.95 0 .1 0 .22.03.38l.03.39c-.02.31-.04.68-.04 1.1 0 .46.02.9.09 1.34 0 .03.02.05.05.06h.03c0-.01 0-.01 0 0 .04.45.13.81.28 1.1.08.15.15.31.2.48l.21.43a7.65 7.65 0 0 0 .32.49c.12.16.24.3.38.44l.66.57c.13.11.29.2.46.27.05.02.08.05.11.09.02.03.05.05.08.06.26.1.53.22.8.37.24.13.5.24.78.32a61.66 61.66 0 0 1 2 .7c.13.06.26.12.38.2l.36.24c.17.11.35.2.53.26.19.07.36.15.53.26l.09.02h.03l.05.01c.5.29 1 .57 1.51.84.32.17.63.3.93.4.34.1.66.22.98.33.05.02.1.03.15.02.08 0 .14.01.2.06.03.03.07.05.12.06l.58.02c.13 0 .3.03.52.09.17.04.35.06.55.06a.1.1 0 0 0 .07-.03v-.04l-.01-.02-.33-.05c-.04 0-.04-.02 0-.05l.04-.02.03.01c.07.05.13.05.19 0a.2.2 0 0 1 .12-.05l.24.01c.43.02.7 0 .83-.05l.23-.08a.15.15 0 0 0 .08-.06.25.25 0 0 1 .07-.07c.08-.05.09-.04.02.03a1.85 1.85 0 0 1-1.41.57l-1.37-.02c-.12 0-.13.03-.01.07l.2.04c.1 0 .1.02.02.04a.04.04 0 0 0-.03.02c0 .03 0 .05.03.05.44.03.89.04 1.35.02.06 0 .07.02.03.06a.05.05 0 0 0 0 .05c0 .02 0 .03.02.03h.09c.01 0 .01 0 0 0l-.36.18c-.09.04-.1.07-.02.09.03 0 .09 0 .16-.03-.3.2-.7.29-1.16.26-.18.06-.33.05-.45-.02-.06-.03-.06-.07-.03-.12.06-.07.13-.09.24-.05h.06c.01-.02.03-.02.05-.03a6.32 6.32 0 0 1-1.21-.2 2.23 2.23 0 0 0-.44-.07.08.08 0 0 1-.07-.05.05.05 0 0 0-.04-.03 2.05 2.05 0 0 1-.6-.16 6.2 6.2 0 0 0-.42-.18 4.9 4.9 0 0 1-.61-.27 7.94 7.94 0 0 0-.63-.3c-.23-.1-.43-.22-.58-.36-.12-.1-.23-.19-.36-.26a5.84 5.84 0 0 1-.98-.65.88.88 0 0 1-.32-.18 4.45 4.45 0 0 0-2.25-.88 2.83 2.83 0 0 0-1-.26.93.93 0 0 1-.35-.1 1.87 1.87 0 0 0-.38-.14 2.8 2.8 0 0 1-.83-.34 2.85 2.85 0 0 0-.41-.23 1.03 1.03 0 0 1-.4-.28.19.19 0 0 0-.13-.08.13.13 0 0 1-.1-.03c-.36-.33-.68-.71-.98-1.14a2.63 2.63 0 0 1-.33-.66 5.23 5.23 0 0 0-.21-.52 1.86 1.86 0 0 1-.15-.47 13.62 13.62 0 0 1-.18-4.12 51.92 51.92 0 0 1 .32-2.97c.02-.16.06-.32.12-.48l.2-.5a.28.28 0 0 0 .01-.18.77.77 0 0 1 0-.43c.14-.38.28-.75.4-1.13.1-.26.17-.53.22-.82 0-.05.03-.09.06-.12.3-.31.52-.67.65-1.09a.23.23 0 0 0 0-.14c-.02-.05 0-.08.03-.1l.35-.21Z" fill="#B2612A"/><path d="M34.7 24.87a.25.25 0 0 0 .15-.2.32.32 0 0 0-.07-.24.06.06 0 0 1-.01-.07.06.06 0 0 1 .05-.04c.69-.07 1.24 0 1.66.24.18.1.28.24.3.4.01.16-.07.3-.24.43-.63.42-1.4.54-2.32.36a1.06 1.06 0 0 1-.6-.35.45.45 0 0 1-.1-.18c-.05-.17.01-.24.19-.2.32.07.66.02 1-.15Z"/><path d="M39.35 25.1c-.34.55-.77.78-1.29.7-.08-.01-.15.02-.18.1-.04.08-.1.12-.18.1-.03 0-.06 0-.1.03l-.52.34a.37.37 0 0 1-.13.06c-.22.04-.41.14-.57.27a.2.2 0 0 1-.13.05.5.5 0 0 0-.1.02.21.21 0 0 0-.09.05c-.14.13-.3.2-.5.22a.09.09 0 0 0-.07.05l-.03.05a.1.1 0 0 1-.1.06.83.83 0 0 0-.48.14.24.24 0 0 1-.14.05h-.08c-.23.13-.47.24-.72.32-.1.04-.18.09-.27.15a1.8 1.8 0 0 1-.26.15c-.46.22-.88.45-1.27.7-.16.1-.34.2-.51.26-.2.08-.37.17-.53.28-.13.1-.27.16-.42.22a3 3 0 0 0-.66.31.8.8 0 0 1-.32.12c-.04 0-.1.02-.18.05a.87.87 0 0 1-.28.05 4 4 0 0 0-.77.03c-.06 0-.11 0-.16-.04a.99.99 0 0 0-.52-.15c.9-.14 1.66-.41 2.28-.81a.2.2 0 0 1 .13-.04c.07 0 .11-.02.13-.09a.16.16 0 0 1 .1-.1c.27-.1.53-.22.8-.35.07-.04.15-.09.22-.15s.15-.11.24-.16a46.03 46.03 0 0 1 1.4-.67l.28-.14c.14-.05.28-.08.42-.1.03-.02.06-.04.07-.07a8.25 8.25 0 0 0 .58-.26.11.11 0 0 0 .07-.1c0-.05.03-.07.07-.08a1 1 0 0 1 .4-.2.21.21 0 0 0 .12-.09.41.41 0 0 1 .18-.13l.99-.33.98-.34c.7-.25 1.41-.42 2.1-.52Z" fill="#E5E5E4"/><path d="M25.57 25.38c-.07.28-.28.47-.64.58l.02-.12c.01-.05 0-.07-.06-.08a.52.52 0 0 1-.39-.16c.36.21.58.21.65 0 .1.02.23-.05.42-.22Z" fill="#946031"/><path d="M28.34 26.37c0-.08-.01-.17-.04-.26-.03-.07 0-.1.06-.11.36-.03.71-.01 1.06.05.47.1.75.26.82.5.08.23 0 .42-.23.56a2.9 2.9 0 0 1-2.48.27.83.83 0 0 1-.47-.37.34.34 0 0 1-.04-.12c-.03-.16.04-.23.2-.2.38.09.72.03 1.03-.17a.18.18 0 0 0 .09-.15Z"/><path d="M34.03 26.9c.17-.08.3-.17.29-.2-.02-.04-.17 0-.34.07-.18.08-.3.17-.3.2.02.04.18 0 .35-.07Z" fill="#F4A544"/><path d="M20.97 27.58c-.07.51-.09 1-.05 1.46.02.2.07.36.15.48a3 3 0 0 1 .27.48c.05.12.11.23.2.34l.22.33c.06.1.15.21.3.36l.24.28c.06.1.14.18.24.25A12.8 12.8 0 0 0 25 33.1c.17.08.37.14.57.18l.5.12c.16.06.32.09.47.1.71.08 1.26.1 1.64.05a192.42 192.42 0 0 1 4.06-.39.3.3 0 0 1 .15.1c.03.03.05.04.09.02l.03-.02a.04.04 0 0 0 0-.05 1.2 1.2 0 0 1-.22-.66c.58.93 1.14 1.86 1.68 2.8.09.17.34.36.75.58.12.08.27.23.46.46l.3.32c.11.1.23.18.34.23.53.23.99.36 1.37.37.44.02.83-.05 1.17-.2 1.14-.53 1.8-1.54 1.98-3.01.06.16.12.26.18.3.04.03.04.06.02.1-.18.32-.26.66-.26 1-.23.48-.53.88-.9 1.22-.36.33-.77.57-1.2.71-.46.15-.92.19-1.38.12a3.24 3.24 0 0 1-1.39-.59l-1.01-.93c-.47-.23-.82-.6-1.04-1.12a.23.23 0 0 0-.25-.13c-.12.02-.28.03-.5.02l-.45.01c-.14.03-.28.04-.42.04-.96.02-1.93.01-2.89-.02a20.74 20.74 0 0 1-2.19-.25.3.3 0 0 1-.03-.03.15.15 0 0 0-.09-.05 7.98 7.98 0 0 1-4.1-1.93c-.45-.4-.94-.97-1.48-1.7a.24.24 0 0 1-.05-.13c0-.05-.02-.09-.05-.13a2.9 2.9 0 0 1-.53-1.12 6.3 6.3 0 0 1-.13-1.27l.06-.22c.16-.18.4-.32.7-.41Z" fill="#E5E5E4"/><path d="m40.15 33.68-.01-.66a.17.17 0 0 0-.05-.13l-.72-.7c.05-.24.03-.5-.07-.77a.49.49 0 0 0-.23-.28.38.38 0 0 0-.3-.02.5.5 0 0 0-.25.17.47.47 0 0 0-.11.3 1.1 1.1 0 0 1-.7-.16.04.04 0 0 0-.04 0 .05.05 0 0 0-.02.04c.01.26.07.5.16.73.07.15.07.34 0 .55-.07.21-.17.36-.32.43-.43.2-.84.38-1.24.52-.1.04-.25.06-.46.07l-.11.01c-.07 0-.09.04-.06.1l.03.06c.04.06.09.09.15.09h.14c.2 0 .33 0 .42-.04.43-.15.83-.3 1.2-.48.17-.08.3-.2.41-.35a.61.61 0 0 0 .1-.51c-.09-.35.02-.43.34-.26.2.11.4.18.6.21.07.01.12.05.16.1.08.12.12.25.1.4 0 .05 0 .1.03.15l.02.04c.1.2.16.36.2.47.05.2.06.35.02.48-.02.05 0 .08.05.1.1.02.16.08.19.18.03.09.01.18-.04.26a.97.97 0 0 0-.16.46c0 .06-.02.11-.05.16-.16.23-.29.46-.4.69-.05.12-.21.26-.5.41.19-.12.32-.27.4-.45.13-.28.22-.45.26-.51.11-.2.19-.4.22-.6a.35.35 0 0 1 .1-.2.26.26 0 0 0 .1-.06c.05-.05.05-.1.01-.15l-.02-.04c-.04-.05-.09-.06-.14-.03-1 .48-1.97.88-2.92 1.2-.42.14-.72.25-.92.33a.13.13 0 0 0-.08.1c-.02.08 0 .13.06.15 0 .06 0 .08.02.05-.05.03-.1 0-.14-.08-.26-.43-.44-.9-.55-1.4a.32.32 0 0 0-.06-.11l-.14-.2c-.04-.05-.04-.1 0-.13.17-.16.26-.37.3-.63 0-.05.02-.1.06-.14.1-.09.09-.22-.01-.4a1.53 1.53 0 0 0-.27-.37.1.1 0 0 0-.1-.04.1.1 0 0 0-.08.07.79.79 0 0 0-.08.4c0 .05 0 .1-.03.14-.23.44-.35.78-.36 1.02-.03.46.13.96.47 1.5-.4-.22-.66-.4-.75-.57a72.06 72.06 0 0 0-1.75-2.95 3.88 3.88 0 0 1-.32-.72c-.07-.28-.06-.54.04-.8a2.18 2.18 0 0 1 1.22-1.28 12.44 12.44 0 0 1 .83-.33l2.43-1 .56-.2c.72-.24 1.33-.15 1.83.26.43.36.74.92.91 1.67.17.75.37 1.5.58 2.25.05.19.06.4 0 .62l-.16.81Z" fill="#FED75E"/><path d="m20.27 28-.06.21-.09.01a.12.12 0 0 0-.08.1 3 3 0 0 0 .31 1.73l-.01.04h-.04a2.64 2.64 0 0 1-.3-1.58c.01-.03 0-.05-.04-.06h-.04v.01c-.05.36-.05.65.01.87.03.11.04.23.03.36h-.02c-.07-.35-.08-.7-.04-1.07 0-.02 0-.03-.02-.03s-.04 0-.04.03c-.1.47-.05.91.15 1.33V30c-.01.01-.03.02-.05.01-.01 0-.03 0-.04-.02a.89.89 0 0 1-.16-.45c.04.4.1.7.19.9.1.23.14.46.14.68 0 .05.01.1.04.14l.88 1.36a.2.2 0 0 0 .09.08l.05.05a3.38 3.38 0 0 0 .7.8.05.05 0 0 0-.02-.03.84.84 0 0 1-.27-.34.26.26 0 0 0-.08-.1c-.21-.19-.38-.41-.49-.67-.03-.08-.02-.1.05-.03.27.26.5.52.7.78.11.17.26.29.45.37.04.03.09.06.12.1.08.1.17.16.27.2.05.02.09.05.12.09.11.14.26.23.43.28.07.02.12.04.16.07a.72.72 0 0 1 .14.14c.04.03.08.06.13.07.17.05.34.14.5.26a.55.55 0 0 0 .22.1c.2.06.33.12.42.17.1.07.22.12.35.15.08.02.09 0 .01-.04-.1-.06-.22-.1-.35-.14a.1.1 0 0 1-.07-.07c-.04-.1-.12-.14-.24-.14a.23.23 0 0 1-.14-.03 3.5 3.5 0 0 0-.77-.39.3.3 0 0 1-.2-.18.23.23 0 0 0-.08-.1l-.36-.25a2 2 0 0 1 .4.23c.13.1.26.18.39.23.32.14.61.3.89.48.22.15.48.25.77.31l.21.09a.6.6 0 0 0 .2.09l.94.17c.17.03.35.08.52.14.16.06.35.1.55.1.23 0 .46.03.67.07.27.05.5.09.66.1.78.06 1.38.08 1.8.08 1.22-.03 2.4 0 3.58.1l1.01.93a9.84 9.84 0 0 1-2.36.15 33.49 33.49 0 0 1-3.62-.14v-.02a.05.05 0 0 0-.04-.03c-.9-.1-1.79-.22-2.66-.37a.55.55 0 0 1-.2-.1 1.92 1.92 0 0 0-.05-.03.2.2 0 0 0-.14-.03c-.05 0-.07-.01-.08-.05-.01-.04-.04-.06-.08-.07-.28-.03-.56-.1-.84-.19a2.3 2.3 0 0 1-.64-.33.28.28 0 0 0-.11-.05c-.3-.06-.5-.13-.59-.23a.18.18 0 0 0-.16-.06c-.05 0-.1 0-.14-.04a3.34 3.34 0 0 0-.74-.46c-.1-.04-.22-.12-.37-.24l-.25-.18c-.15-.09-.28-.21-.4-.36l-.31-.44c-.07-.1-.15-.18-.24-.25a1.42 1.42 0 0 1-.47-.55.97.97 0 0 0-.16-.27c-.04-.04-.07-.04-.08.02-.01.05 0 .08.03.1.04.03.07.06.08.1.06.24.18.42.34.56.12.11.22.23.31.36.09.14.23.3.44.5a8.32 8.32 0 0 1 .21.26h-.03c-.3-.3-.59-.63-.88-.98a3.44 3.44 0 0 1-.38-.54c-.11-.2-.25-.39-.41-.57-.05-.05-.1-.15-.16-.3l-.12-.25a3.89 3.89 0 0 1-.55-1.22c-.1-.48-.12-1-.03-1.55.01-.07 0-.08-.05-.02-.1.12-.18.28-.23.48.1-.6.43-1.12 1-1.57Z" fill="#979898"/><path d="M20.21 28.21c.01.53.05.95.13 1.27.1.42.27.8.53 1.12.03.04.05.08.05.13s.02.1.05.13c.54.73 1.03 1.3 1.48 1.7a7.98 7.98 0 0 0 4.1 1.93c.04 0 .06.02.09.05a.3.3 0 0 0 .03.03l.03.01c.99.15 1.7.23 2.16.24.96.03 1.93.04 2.9.02.13 0 .27-.01.4-.04.1-.01.26-.02.46 0 .22 0 .38 0 .5-.03.05 0 .1 0 .15.03.04.02.08.06.1.1.22.52.57.89 1.04 1.12a37.22 37.22 0 0 0-3.57-.1c-.43 0-1.03-.02-1.8-.08a6.2 6.2 0 0 1-.67-.1 4.12 4.12 0 0 0-.67-.07c-.2 0-.39-.04-.55-.1-.17-.06-.35-.1-.52-.14l-.94-.17a.6.6 0 0 1-.2-.1.67.67 0 0 0-.21-.08c-.3-.06-.55-.16-.77-.3a5.86 5.86 0 0 0-.89-.49 1.95 1.95 0 0 1-.39-.23 2 2 0 0 0-.4-.23.7.7 0 0 0-.43-.36 5.79 5.79 0 0 1-.35-.42c-.04-.06-.08-.06-.1-.03-.02.02-.02.04 0 .05.2.26.36.4.45.4a1 1 0 0 0 .43.36l.36.25c.04.02.07.06.09.1.03.09.1.15.19.18.27.1.53.23.77.39.04.02.09.04.14.03.12 0 .2.05.24.14a.1.1 0 0 0 .07.07c.13.03.25.08.35.14.08.05.07.06-.01.04a1.1 1.1 0 0 1-.35-.15 1.66 1.66 0 0 0-.47-.18.56.56 0 0 1-.17-.1c-.16-.11-.33-.2-.5-.25a.28.28 0 0 1-.13-.07 1.67 1.67 0 0 0-.14-.14.48.48 0 0 0-.16-.07.83.83 0 0 1-.43-.28.28.28 0 0 0-.12-.09.68.68 0 0 1-.27-.2.35.35 0 0 0-.12-.1c-.19-.08-.34-.2-.46-.37a5.55 5.55 0 0 0-.7-.78c-.06-.06-.07-.05-.04.03.11.26.28.48.49.67.03.03.06.06.07.1.07.14.16.25.28.34l.02.02v.02h-.02c-.27-.23-.5-.5-.68-.81a.13.13 0 0 0-.05-.05.2.2 0 0 1-.09-.08l-.88-1.36a.25.25 0 0 1-.04-.14c0-.22-.05-.45-.14-.68a3.7 3.7 0 0 1-.19-.9c.01.16.07.31.16.45l.04.02.05-.01a.06.06 0 0 0 0-.06c-.2-.42-.25-.86-.15-1.33 0-.03.02-.03.04-.03s.02.01.02.03a3.33 3.33 0 0 0 .05 1.08v-.01a1 1 0 0 0-.02-.36 2.32 2.32 0 0 1 0-.88h.03c.04 0 .05.03.05.06-.07.55.03 1.07.3 1.57 0 .02.01.02.02.01.02 0 .03-.02.02-.04a3 3 0 0 1-.3-1.72c0-.05.03-.09.07-.1a.14.14 0 0 1 .1-.02Z" fill="#C5C5C4"/><path d="m38.27 30.6-.46-1.43a.25.25 0 0 1 .03-.22c.04-.07.1-.1.18-.12l.28-.03c.06 0 .11.01.16.04.05.04.09.08.1.14l.36 1.2c.03.09.02.16-.03.23l-.18.26a.23.23 0 0 1-.24.1.23.23 0 0 1-.2-.17Z" fill="#fff"/><path d="M35.42 36.95c.44.31.9.51 1.4.59.45.07.91.03 1.36-.12.44-.14.85-.38 1.21-.71.37-.34.67-.74.9-1.22a5.64 5.64 0 0 0 1.15-1.77h.05l.05.03c.06.04.08.1.05.17-.39.98-.93 1.83-1.63 2.56-.45.47-1.02.81-1.7 1.03a.93.93 0 0 0-.57.56c-.01-.1 0-.17.03-.2.08-.09.06-.12-.05-.11-.88.1-1.7.2-2.48.34a28.3 28.3 0 0 1-7.87-.06c-1.37-.2-2.7-.61-3.97-1.24a6.6 6.6 0 0 1-1.28-.86 8.37 8.37 0 0 1-1.89-2.52l-.6-1.08a.25.25 0 0 1-.03-.12c0-.06 0-.12-.02-.19l-.27-1.23a3.8 3.8 0 0 1 0-1.24c.05-.2.13-.36.23-.48.05-.06.06-.05.05.02-.09.56-.08 1.07.03 1.55.1.39.27.8.55 1.22l.12.25c.06.15.11.25.16.3.16.18.3.37.41.57.11.2.24.38.38.54a19.4 19.4 0 0 0 .91.98 8.48 8.48 0 0 0-.22-.26c-.2-.2-.35-.36-.43-.5-.09-.13-.2-.25-.31-.36a1.11 1.11 0 0 1-.34-.55.18.18 0 0 0-.08-.1c-.03-.03-.04-.06-.03-.1.01-.07.04-.07.08-.03.07.08.12.17.16.27.08.19.24.37.47.55.1.07.17.15.24.25l.31.44c.12.15.25.27.4.36l.25.18c.15.12.28.2.37.24.26.12.5.27.74.46.04.04.09.05.14.04.06 0 .12.01.16.06.1.1.29.17.59.23l.11.05c.2.14.4.25.64.33.28.1.56.16.84.2.04 0 .07.02.08.06 0 .04.03.06.07.05.06 0 .1 0 .15.03l.05.03c.08.06.15.1.2.1.87.15 1.76.27 2.66.37.02 0 .04.01.05.03v.02a33.46 33.46 0 0 0 3.62.14 9.84 9.84 0 0 0 2.36-.15Z" fill="#6D6C69"/><path d="m32.95 30.91-.04.02a.39.39 0 0 0-.16.52l.56 1.11c.1.2.33.26.51.17l.04-.02c.19-.1.26-.33.16-.52l-.56-1.11a.37.37 0 0 0-.5-.17Z" fill="#fff"/><path d="m38.41 31.58.96.61.72.7c.03.04.05.08.05.13l.01.66.2.4c-.18 1.48-.84 2.49-1.98 3.01-.34.16-.73.23-1.17.21a3.91 3.91 0 0 1-1.37-.37 1.25 1.25 0 0 1-.34-.23 4.43 4.43 0 0 1-.3-.32c-.19-.23-.34-.38-.46-.46a2.58 2.58 0 0 1-.47-1.5c.01-.24.13-.58.36-1.02.03-.04.04-.1.03-.15a.78.78 0 0 1 .08-.4.1.1 0 0 1 .08-.06.1.1 0 0 1 .1.04c.12.11.2.24.27.36.1.19.1.32.01.41a.23.23 0 0 0-.07.14c-.03.26-.12.46-.29.63-.04.04-.04.08 0 .13l.14.2c.03.03.05.07.06.12.11.5.3.96.55 1.4.05.08.1.1.14.07.1.05.2.14.27.27.03.05.06.08.11.1l.4.16a1 1 0 0 0 .33.1 8.68 8.68 0 0 0 1.03-.01l.01-.04a.15.15 0 0 1 .07-.01c.1 0 .19-.03.25-.1a.21.21 0 0 1 .06-.05l.39-.2c.28-.16.44-.3.5-.42.1-.23.23-.46.39-.69.03-.05.05-.1.05-.16a.98.98 0 0 1 .16-.46.31.31 0 0 0 .04-.26.26.26 0 0 0-.2-.18c-.04-.02-.06-.05-.04-.1a.8.8 0 0 0-.03-.48 3.58 3.58 0 0 0-.2-.5.3.3 0 0 1-.04-.17.55.55 0 0 0-.1-.4.22.22 0 0 0-.15-.09c-.21-.03-.41-.1-.61-.2-.32-.18-.43-.1-.33.25.04.17 0 .34-.11.51a.96.96 0 0 1-.4.35c-.38.17-.78.33-1.2.48-.1.03-.24.04-.43.04h-.14a.16.16 0 0 1-.15-.09l-.03-.05c-.03-.07-.01-.1.06-.1l.11-.02c.2 0 .36-.03.46-.07.4-.14.8-.32 1.24-.52.15-.07.25-.22.32-.43a.79.79 0 0 0 0-.55c-.1-.23-.15-.47-.16-.73 0-.02 0-.03.02-.04a.04.04 0 0 1 .05 0c.2.12.43.18.69.15Z" fill="#F4A544"/><path d="M22.4 33.47c-.1 0-.24-.14-.46-.4v-.05c.03-.03.07-.03.11.03.1.14.22.28.35.42ZM39.62 34.75a.35.35 0 0 0-.1.2c-.04.2-.12.4-.23.59a9.5 9.5 0 0 0-.26.51 1.1 1.1 0 0 1-.4.45l-.38.2a.21.21 0 0 0-.06.05.29.29 0 0 1-.25.1l-.07.02c-.01 0-.02.02-.01.04 0 .01 0 .02-.02.02-.31.01-.65 0-1-.02a1 1 0 0 1-.35-.09 7.98 7.98 0 0 0-.39-.16.21.21 0 0 1-.1-.1.65.65 0 0 0-.28-.27c-.02.03-.02.01-.02-.05.03 0 .07 0 .13-.02l.3-.06a3368.2 3368.2 0 0 1 2.76-1.09l.11-.01c.2-.13.4-.23.62-.31Z" fill="#979898"/><path d="M34.68 42.35a.74.74 0 0 0-.25.42 5.26 5.26 0 0 1-3.06 1.77c0-.07.02-.13.08-.2.07-.06.06-.08-.04-.07h-.04c-.06 0-.07-.03-.04-.08a.4.4 0 0 1 .1-.11c.03-.02.04-.05.02-.06a.54.54 0 0 0-.08-.06c.46.03.85-.06 1.16-.26l.95-.55c.03-.01.03-.03 0-.04h-.04c-.03.04-.03.03-.01 0 .04-.06.1-.1.16-.13.3-.12.52-.3.69-.51a.82.82 0 0 1 .2-.2c.12-.08.21-.17.29-.27.01-.02.02-.02.03 0l.03.02c.02.01.02.03 0 .05a.61.61 0 0 0-.15.28Z" fill="#946031"/><path d="m35.04 42.06-.61.71c.03-.15.11-.3.25-.42.14-.23.26-.33.36-.3ZM25.22 43.67c.26-.03.42.04.47.19a1.13 1.13 0 0 1-.47-.19ZM25.8 43.88c.41.05.83.18 1.26.4l-1.26-.4ZM27.06 44.25l1.49.24c.01 0 .02 0 .01.02 0 .02-.01.03-.02.03-.05 0-.05 0 0 0 .16.04.33.1.5.17a6.7 6.7 0 0 1-1.97-.45Z" fill="#F2BFA1"/><path d="M28.8 44.7c.09.02.16.02.23.01l.63.05h.09c.08.04.08.06-.01.07a1.5 1.5 0 0 1-.93-.12Z" fill="#FED75E"/></svg>