<svg width="112" height="112" viewBox="0 0 56 56" xmlns="http://www.w3.org/2000/svg"><rect fill="#F0B90B" width="56" height="56" rx="28"/><path d="M34.38 24H18.6c-.31 0-.47-.38-.26-.62l2.9-3.26a.35.35 0 0 1 .26-.12h16.06c.32 0 .48.4.25.63l-3.18 3.26a.35.35 0 0 1-.25.11Zm-.08 12H18.52c-.3 0-.47-.38-.26-.62l2.9-3.26a.35.35 0 0 1 .26-.12h16.06c.32 0 .48.4.25.63l-3.18 3.26a.35.35 0 0 1-.25.11Zm-12.6-6h15.78c.3 0 .47-.38.26-.62l-2.9-3.26a.35.35 0 0 0-.26-.12H18.52c-.32 0-.48.4-.25.63l3.18 3.26c.06.07.16.11.25.11Z" fill="#0B0E11"/><path d="M38.44 39.55a15.57 15.57 0 0 1-20.76.11l-1.37.69a17 17 0 0 0 23.5-.12l-1.37-.68Zm2.7-.77a17 17 0 0 0-.57-22.22l-1.33.66a15.57 15.57 0 0 1 .59 20.9l1.31.66ZM28 12.43c3.56 0 7 1.22 9.74 3.42l1.4-.7A17 17 0 0 0 17 15.04l1.4.7c2.73-2.13 6.1-3.3 9.59-3.3ZM16.28 38.25a15.57 15.57 0 0 1 .62-21.16l-1.34-.67a17 17 0 0 0-.6 22.49l1.32-.66Z" fill="#fff"/></svg>