<svg width="56" height="56" viewBox="0 0 56 56" xmlns="http://www.w3.org/2000/svg"><rect fill="#F0F3FA" width="56" height="56" rx="28"/><path d="M28 12c.08 0 .14.02.2.05.5.34.88.81 1.15 1.41.43.94.77 1.9 1.05 2.85a.17.17 0 0 0 .13.13c.41.06.9.19 1.46.36.65.2 1.36.47 2.14.8.08.04.22.08.41.11l1.53.28c.3.06 1.91.4 1.63.93a.78.78 0 0 1-.34.3c-.08.05-.07.08.01.09.12.02.32.01.48.05.99.24 1.87.7 2.63 1.4.26.24.5.43.7.59.42.3.8.64 1.12 1.03a1 1 0 0 0 .4.31 14.63 14.63 0 0 0 2.2.61c.28.07.64.2 1.06.39.62.28 1.14.9 1.02 1.62-.06.41-.17.8-.38 1.14-.26.43-.59.82-.98 1.16-.7.63-1.45 1.14-2.22 1.53-.03.02-.04.04-.04.08.1.45.1.93.03 1.42l-.21 1.17a6.53 6.53 0 0 1-.77 2.2l-.44 1c-.33.74-.78 1.4-1.37 1.97l-.93.88c-.16.15-.46.34-.92.58a8.5 8.5 0 0 0-.9.58 15.95 15.95 0 0 1-7.8 2.93C29.4 42 28.78 42 28 42c-.79 0-1.4.01-2.05-.05a15.95 15.95 0 0 1-7.8-2.93 8.48 8.48 0 0 0-.9-.58 4.87 4.87 0 0 1-.92-.58l-.94-.88A6.16 6.16 0 0 1 14.03 35c-.26-.6-.4-.94-.44-1a6.52 6.52 0 0 1-.76-2.2l-.22-1.17a3.8 3.8 0 0 1 .03-1.42c0-.04 0-.06-.04-.08a10.4 10.4 0 0 1-2.22-1.53 4.98 4.98 0 0 1-.97-1.16A3.14 3.14 0 0 1 9 25.3c-.11-.7.41-1.33 1.03-1.61.42-.2.78-.33 1.06-.39a21.99 21.99 0 0 0 2.2-.61 1 1 0 0 0 .4-.3c.33-.4.7-.74 1.11-1.04.22-.16.45-.35.71-.6a5.85 5.85 0 0 1 2.64-1.4c.15-.03.35-.02.47-.04.08-.02.09-.04.01-.08a.77.77 0 0 1-.34-.31c-.28-.53 1.34-.88 1.63-.93l1.53-.28c.19-.03.33-.07.4-.1.8-.34 1.5-.6 2.15-.8.56-.18 1.05-.3 1.46-.37a.17.17 0 0 0 .14-.13c.27-.96.61-1.91 1.04-2.85.27-.6.66-1.07 1.16-1.41a.33.33 0 0 1 .2-.05Z" fill="#030202"/><path d="M28.05 12.48c-.14.4-.2.69-.17.85.2 1.06.28 2 .26 2.82-.03 1.38-.04 2.6-.05 3.7 0 .53-.07 1.03-.07 1.53 0 .03-.02.04-.05.04a9.57 9.57 0 0 1-1.65-.4c-.72-.32-.96-.67-.8-1.48 0-.05 0-.06-.03-.01l-.03.05c-.04.08-.07.07-.09-.01l-.02-.07c.1-.6.22-1.2.34-1.8.04-.21.1-.43.18-.65l.2-.66c.23-.84.57-1.77 1.02-2.77.23-.51.55-.9.96-1.14Z" fill="#FCE200"/><path d="m25.35 19.5.02.07c.02.08.05.09.1.01l.02-.05c.03-.05.04-.05.03.01-.16.8.08 1.16.8 1.47.26.12.81.25 1.65.4.03.01.05 0 .05-.03 0-.5.07-1 .07-1.54 0-1.08.02-2.31.05-3.69.02-.82-.07-1.76-.26-2.82-.03-.16.03-.44.17-.85.38.36.66.72.83 1.09a18.75 18.75 0 0 1 1.22 3.4c.12.35.19.6.2.73l.13.6c.12.53.18 1.16.34 1.65a.6.6 0 0 1 0 .43c-.22.52-.73.77-1.23.93-.38.11-.77.21-1.17.3-.27.04-.53.04-.79-.01-.52-.1-1-.25-1.46-.42a1.63 1.63 0 0 1-.86-.7c-.18-.32.02-.67.1-.98Z" fill="#F7C701"/><path d="M25.28 17.41c-.45.19-.86.3-1.25.36-1.4.2-2.58.4-3.56.6-.5.09-1.12.27-1.85.53l-.05-.03a.1.1 0 0 1-.02-.13 12.34 12.34 0 0 1 1.84-.59c.73-.11 1.36-.22 1.9-.34.25-.05.52.02.76-.08.73-.29 1.48-.52 2.24-.7.03 0 .05.02.06.05a.53.53 0 0 1-.07.33Z" fill="#FDE9AD"/><path d="M45.6 26.95c-.42.23-.83.48-1.24.74-.37.24-.67.4-.87.47l-1.05.36c-.27.08-.4.26-.38.52 0 .03.02.06.05.08.26.22.42.46.45.74 0 .07.04.15.14.23.02.03.04.05.05.09.22.7.26 1.34.13 1.92-.08.37-.27.93-.54 1.67-.01.02-.03.03-.05.03h-.03l-.01-.02c.1-.36.08-.72-.07-1.08a.4.4 0 0 0-.08-.11c-.04-.05-.08-.07-.12-.07a.07.07 0 0 0-.06.04.07.07 0 0 0 0 .07c.1.13.14.28.14.45a4.31 4.31 0 0 1-.8 2.67l-.02-.02c.1-.37.14-.76.1-1.17a.74.74 0 0 0-.1-.37c-.09-.12-.13-.1-.13.04 0 .4.02.87-.07 1.25a3.9 3.9 0 0 1-1.19 1.88c-.2.2-.43.38-.7.55-.55.36-1.05.63-1.51.83-.25.1-.52.25-.8.43-.45.28-.9.52-1.36.73-.18 0-.5.04-.95.12-.81.14-2.2.31-4.18.53-.23.03-.77.07-1.6.12-.56.03-1.1.03-1.62 0-2.1-.15-4.15-.4-6.15-.73a1.42 1.42 0 0 0-.41-.01 9.82 9.82 0 0 1-1.44-.8 6.18 6.18 0 0 0-.9-.45 8.95 8.95 0 0 1-1.58-.9 5.3 5.3 0 0 1-.9-.84c-.29-.31-.51-.67-.67-1.06a4.17 4.17 0 0 1-.2-1.74l-.02-.02a.05.05 0 0 0-.06 0 .19.19 0 0 0-.07.1c-.15.51-.13 1 .05 1.5v.04l-.03.02-.02-.01a4.15 4.15 0 0 1-.79-2.77c0-.1.06-.2.08-.27.1-.26.05-.3-.16-.11-.05.04-.08.13-.11.27a2.04 2.04 0 0 0 0 .96l-.02.01c-.02.01-.03 0-.04-.01a15.6 15.6 0 0 1-.56-1.7 3.83 3.83 0 0 1 .18-2.11.1.1 0 0 1 .04-.03c.1-.03.12-.08.09-.14 0-.23.1-.44.33-.62.1-.08.15-.14.16-.19.07-.2-.1-.45-.3-.52l-.86-.3a6.41 6.41 0 0 1-1.78-1c-.07-.06-.19-.06-.25-.1-.1-.09-.22-.17-.36-.23a5.72 5.72 0 0 1-.43-.5 2.3 2.3 0 0 1-.47-1.26c.94-.4 1.88-.78 2.83-1.11.17-.07.49-.23.94-.48.3-.18.48-.36.52-.56l.59-.78.9-.8v-.03a.03.03 0 0 0-.01-.03h-.05a4.39 4.39 0 0 1 2.29-.84.08.08 0 0 0 .02-.05c0-.05-.04-.08-.12-.1a4.96 4.96 0 0 0-.4-.02 11.97 11.97 0 0 1 1.82-.76v-.03l-.06-.04c.17 0 .33-.04.5-.08a.86.86 0 0 1 .42 0l.02-.04-.01-.02-1.06-.48a12.4 12.4 0 0 1 1.85-.54c.98-.18 2.16-.38 3.56-.59.39-.05.8-.17 1.25-.36-.13.6-.24 1.17-.33 1.73-.08.46-.34.69-.23 1.16.16.69.63 1.08 1.28 1.33.6.23 1.12.37 1.57.43.44.05.9.01 1.4-.1.71-.18 1.62-.44 2.06-1.08.25-.37.36-.82.2-1.24-.07-.16-.15-.33-.18-.49a21.42 21.42 0 0 0-.4-2.06.06.06 0 0 1 .03-.04h.03c.74.16 1.45.38 2.13.65.21.08.36.1.59.1.08 0 .17 0 .25.02.48.1 1.1.2 1.87.32.45.07.9.18 1.36.32a2.35 2.35 0 0 1 .56.29.08.08 0 0 1-.03.1 4.91 4.91 0 0 1-1.12.56l.01.02.03.01.24-.05c.03 0 .06 0 .1.02.09.04.29.08.6.12.9.11 1.7.43 2.44.94.09.07.08.09-.03.06-.44-.12-.74-.23-1.13-.16a.11.11 0 0 0-.07.05c-.05.07-.03.1.04.12.9.1 1.69.4 2.36.9.58.44.99.75 1.23.95.04.03.03.04 0 .04a.57.57 0 0 1-.26-.1.8.8 0 0 0-.2-.1c-.1-.03-.12 0-.04.07.16.17.34.34.47.54.06.1.16.2.28.24.7.27 1.5.47 2.63.75.48.11.86.3 1.16.57.3.26.4.6.3 1.02a3.06 3.06 0 0 1-.89 1.53Z" fill="#C07555"/><path d="m18.75 19.52.05.04a.03.03 0 0 1 .01.03v.02h-.02c-.62.2-1.22.44-1.8.74l-.64.16c-.13.04-.14.02-.03-.07.7-.52 1.52-.83 2.43-.92ZM15.2 21.37a.1.1 0 0 1 .05 0h.01v.05l-.9.8-.58.26c-.11.05-.12.04-.02-.03l1.44-1.08ZM13.77 23c-.04.2-.22.38-.52.56-.45.25-.77.41-.94.48-.95.33-1.9.7-2.83 1.11a.75.75 0 0 1 .13-.52c.33-.5 1.05-.73 1.6-.87 1.05-.25 1.68-.4 2.56-.76Z" fill="#FDE9AD"/><path d="M27.9 26.02a.28.28 0 0 0 .24 0 10.41 10.41 0 0 0 2.05-1.26 9.41 9.41 0 0 1 1.86-1.07 4.09 4.09 0 0 1 4.12.52A5.69 5.69 0 0 1 38 26.48c.18.35.42.79.73 1.33.36.65.7 1.33 1.04 2.05.18.4.33.83.43 1.3a4.04 4.04 0 0 1-.38 2.53 7.57 7.57 0 0 1-1.92 2.4 12.92 12.92 0 0 1-6.41 2.84c-.58.1-1.17.14-1.76.15-.34 0-.74.02-1.19.05-.44.03-.84.04-1.18.02-.71-.03-1.41-.07-2.1-.13-.79-.07-1.63-.23-2.54-.5a12.22 12.22 0 0 1-5.26-3.04 7.13 7.13 0 0 1-1.18-1.61 3.96 3.96 0 0 1-.48-2.66c.08-.46.25-.96.5-1.5.4-.85.81-1.64 1.23-2.36l.45-.84a5.46 5.46 0 0 1 2.2-2.54 4.12 4.12 0 0 1 4.05-.15 11.63 11.63 0 0 1 2.02 1.26c.54.39 1.09.7 1.66.94Z" fill="#030202"/><path d="M28 26.56c.06 0 .12-.01.18-.04a12.98 12.98 0 0 0 2.32-1.4c.46-.32.92-.6 1.39-.83a3.66 3.66 0 0 1 3.86.18 5.13 5.13 0 0 1 1.89 2.31c.26.5.55 1.04.87 1.6.49.87.87 1.7 1.14 2.51.11.32.15.75.12 1.28a4.63 4.63 0 0 1-1.02 2.35 11.1 11.1 0 0 1-5.52 3.53c-1.36.4-2.56.52-4.27.75-.18.02-.5.03-.96.03-.46 0-.78 0-.96-.03-1.7-.23-2.91-.34-4.27-.75a11.1 11.1 0 0 1-5.52-3.53 4.63 4.63 0 0 1-1.02-2.35c-.03-.53 0-.96.11-1.28.28-.8.66-1.64 1.15-2.5.32-.57.61-1.1.87-1.6a5.11 5.11 0 0 1 1.89-2.31 3.66 3.66 0 0 1 3.86-.2c.46.24.93.52 1.39.83l1.1.76c.37.22.77.44 1.22.65.06.03.12.04.18.04Z" fill="#F7905A"/><path d="m23.28 25.5-.81.05a.22.22 0 0 1-.22-.14c-.02-.04-.01-.1.01-.16.01-.02.05-.05.12-.07.49-.15.85-.2 1.1-.17.23.03.42.11.6.24a.1.1 0 0 1-.01.15.95.95 0 0 1-.48.12l-.3-.01Z" fill="#C07555"/><path d="M32.26 25.43a.08.08 0 0 1-.07-.09v-.07c0-.04.02-.08.05-.12a.35.35 0 0 1 .1-.1.5.5 0 0 1 .16-.05.62.62 0 0 1 .18-.01l.36.03c.06 0 .12.02.17.04.06.02.1.05.15.08l.09.12c.02.04.03.08.02.13v.06a.08.08 0 0 1-.09.08l-1.12-.1Z" fill="#8F381D"/><path d="M23.27 25.65h-.02a.28.28 0 0 0-.27.28l.06 3.38c0 .15.13.27.29.27h.01c.15 0 .28-.13.27-.29l-.06-3.37a.28.28 0 0 0-.28-.27ZM32.74 25.64a.28.28 0 0 0-.3.28l-.05 3.38c0 .15.12.28.27.28h.02c.15 0 .28-.12.28-.27l.06-3.38a.28.28 0 0 0-.28-.29Z" fill="#030202"/><path d="M13.44 29.87c-.21-.07-.36.03-.43.27l-.1.31c-.01.05-.02.05-.03 0-.06-.33-.09-.6-.07-.8l.1-.72a.17.17 0 0 0-.08-.18c-.8-.4-1.52-.9-2.17-1.5a2.38 2.38 0 0 1-.28-.34c.14.06.26.14.36.23.06.04.18.04.25.1a6.4 6.4 0 0 0 1.78 1l.87.3c.18.07.36.32.3.52-.02.05-.08.11-.17.19-.22.18-.33.39-.33.62ZM45.6 26.95a8.67 8.67 0 0 1-2.44 1.81.15.15 0 0 0-.09.17c.07.38.11.67.12.85.01.15 0 .3-.04.46-.02.09-.06.1-.1.01l-.18-.3a.13.13 0 0 0-.07-.06.47.47 0 0 0-.24-.03c-.04-.28-.19-.52-.45-.74a.11.11 0 0 1-.05-.08c-.01-.26.11-.44.38-.52l1.05-.36c.2-.07.5-.23.87-.47.4-.26.82-.5 1.23-.74Z" fill="#8F381D"/><path d="M28 31.39c.39 0 .79-.1 1.14-.18.24-.06.5-.14.75-.24 1.09-.42 2.82-.85 3.53.4.36.64.28 1.24-.26 1.8-.43.47-1 .84-1.72 1.13a10.6 10.6 0 0 1-3.44.73c-.17 0-.37-.02-.61-.04-1-.1-1.94-.34-2.83-.69a4.73 4.73 0 0 1-1.72-1.12c-.53-.57-.62-1.17-.26-1.8.71-1.26 2.44-.83 3.53-.41a6.2 6.2 0 0 0 1.9.42Z" fill="#030202"/><path d="M28 31.83c.15 0 .3-.01.44-.03.7-.13 1.43-.33 2.17-.62.26-.1.61-.17 1.08-.2.52-.05.93.1 1.22.42a1 1 0 0 1 0 1.42c-.45.48-1 .85-1.7 1.1a11.62 11.62 0 0 1-3.29.7c-1.1-.09-2.15-.32-3.14-.7a4.36 4.36 0 0 1-1.69-1.1 1 1 0 0 1 0-1.41c.3-.33.7-.47 1.22-.43.46.03.82.1 1.07.2.75.29 1.48.5 2.18.62.14.02.28.03.44.03Z" fill="#84584F"/><path d="M24.85 32.87c.34.22.72.26.84.07.12-.18-.07-.51-.42-.74-.34-.22-.72-.25-.84-.07-.12.19.07.52.42.74ZM31.15 32.87c.35-.22.53-.55.42-.74-.12-.18-.5-.15-.84.07-.35.23-.53.56-.42.74.12.19.5.15.84-.07ZM28 35.5l.3-.01c.8-.08 1.56-.3 2.33-.64 1.38-.63 2.32-1.12 3.52-1.4.74-.16 1.74-.16 2.3.4.26.25.33.56.22.9-.27.88-1.42 1.6-2.26 1.95a15.88 15.88 0 0 1-6.8 1.22h-.4a15.88 15.88 0 0 1-5.62-1.22c-.84-.36-1.99-1.06-2.26-1.94a.84.84 0 0 1 .22-.91c.56-.56 1.56-.56 2.3-.4 1.2.28 2.14.77 3.52 1.4a7.18 7.18 0 0 0 2.63.64Z" fill="#030202"/><path d="M23.84 34.68c0-.03.03-.04.06-.03l1.6.73a.08.08 0 0 1 .04.04.08.08 0 0 1 0 .07l-.25.55a.27.27 0 0 1-.24.17 2.2 2.2 0 0 1-1.29-.28c-.14-.09-.2-.23-.18-.43.02-.2.1-.48.26-.82ZM32.16 34.68c.15.34.24.61.26.81.03.2-.04.35-.18.43a2.2 2.2 0 0 1-1.29.3.27.27 0 0 1-.24-.18l-.25-.55a.08.08 0 0 1 0-.06.08.08 0 0 1 .04-.05l1.6-.73c.03-.01.05 0 .06.03Z" fill="#fff"/><path d="M28 37h.01l.02-.01c.24-.24.52-.36.84-.36.33-.01.5 0 .79.19.1.06.16.13.18.21a.22.22 0 0 1-.1.24c-.2.13-.4.2-.56.21a7.92 7.92 0 0 0-1.23.17 7.83 7.83 0 0 0-1.13-.17 1.24 1.24 0 0 1-.56-.21.22.22 0 0 1-.1-.24c.02-.08.08-.15.18-.22.3-.18.46-.2.8-.19.31.01.6.13.83.37H28Z" fill="#F8B0C1"/><path d="M35.48 39.9c-.2.14-.42.24-.65.3l-.62.18c-1.03.4-2.1.69-3.22.87-.73.12-1.56.2-2.5.26-.33.02-.71.01-1.14-.02a16.85 16.85 0 0 1-5.5-1.08l-.64-.19a2.28 2.28 0 0 1-.64-.3c.14 0 .28 0 .41.02 2 .34 4.05.58 6.15.73.53.03 1.06.03 1.61 0a49.25 49.25 0 0 0 5.79-.65c.45-.08.77-.12.95-.12Z" fill="#8F381D"/></svg>