<svg width="56" height="56" viewBox="0 0 56 56" xmlns="http://www.w3.org/2000/svg"><rect fill="url(#a)" width="56" height="56" rx="28"/><path d="M26.06 13.73a4.5 4.5 0 0 1 4.85-.03l8.74 5.08a4.49 4.49 0 0 1 2.35 4.2c-.02 1.94-.02 5.28 0 10.02 0 1.77-.96 3.1-2.4 4.02a24.82 24.82 0 0 1-1.59.93l-.01.09v5.64a.3.3 0 0 1-.03.13.37.37 0 0 1-.37.19.38.38 0 0 1-.14-.05c-1.37-.77-2.73-1.7-4.58-2.76a.23.23 0 0 0-.23 0l-1.4.83c-1.28.75-2.36 1.1-3.76.77a9.24 9.24 0 0 1-2.09-1.01c-2.01-1.19-4.2-2.46-6.55-3.82-1.95-1.12-3.09-1.67-3.66-3.5a6.55 6.55 0 0 1-.19-1.9V27.2a.04.04 0 0 0-.04-.02l-.03.01c-2.71 2.26-6.47 3.34-9.88 2.15A.07.07 0 0 1 5 29.3v-.03l.01-.03c1.61-2.53 4.6-4.04 7.52-4.41.01 0 .02 0 .03-.02l.02-.02v-.04A7.46 7.46 0 0 1 8.6 20.2l.01-.02h.03c2.42-.16 4.86 1.4 6.26 3.26l.03.02h.03a.05.05 0 0 0 .04-.05c-.04-1.46.16-2.6 1.14-3.7.34-.38.94-.81 1.82-1.3.74-.42 3.49-1.98 8.1-4.68Zm13.48 11.3c-3.57 1-7.26 1.22-11.01 1.22s-7.44-.23-11-1.22a.22.22 0 0 0-.19.03.22.22 0 0 0-.06.07.22.22 0 0 0-.03.09c-.25 3.44 1.55 6.12 4.63 7.45 2.04.87 4.38 1.14 6.65 1.14 2.27 0 4.6-.27 6.65-1.15 3.08-1.32 4.88-4 4.63-7.44a.22.22 0 0 0-.18-.2h-.1Zm-18.92 2.42a12.84 12.84 0 0 0 6.57 1.5.1.1 0 0 1 .03.03.1.1 0 0 1 0 .1c-.55.8-1.3 1.24-2.25 1.34-1.76.19-4.47-.67-4.42-2.92v-.03l.02-.02h.05Zm15.28 0 .02.01v.03c.05 2.25-2.65 3.1-4.41 2.92a2.97 2.97 0 0 1-2.26-1.38.1.1 0 0 1 .04-.09 12.82 12.82 0 0 0 6.6-1.5Z" fill="#FF8D00"/><defs><linearGradient id="a" x1="10.42" y1="9.71" x2="68.15" y2="76.02" gradientUnits="userSpaceOnUse"><stop stop-color="#1A1E21"/><stop offset="1" stop-color="#06060A"/></linearGradient></defs></svg>