<svg width="56" height="56" viewBox="0 0 56 56" xmlns="http://www.w3.org/2000/svg"><rect fill="url(#a)" width="56" height="56" rx="28"/><path d="m32.35 11.62-.32.16-1.2-.24a.27.27 0 0 0-.16.02 1.5 1.5 0 0 1-1.67-.18.36.36 0 0 0-.15-.06c-1.07-.16-1.78-.02-3.25.13-.52.05-.93.23-1.49.28-.27.03-.56.1-.86.2-2.55.85-4.8 2.17-6.77 3.94-.5.46-1.27 1.37-2.31 2.72l-.66 1.1a12.8 12.8 0 0 0-1.07 2.35l-.25-.2c.21-.61.47-1.23.77-1.83.4-.8.89-1.56 1.48-2.26.74-.86 1.53-1.8 2.35-2.52A18.3 18.3 0 0 1 22.26 12c.86-.33 1.72-.56 2.56-.68 1.47-.2 2.8-.44 4.15-.25.06 0 .11.03.15.07.47.37.97.43 1.48.16.05-.02.1-.03.16-.02l1.6.34Z" fill="#FCBB65"/><path d="M32.03 11.78c1.01.19 1.93.56 2.77 1.12l-.2-.09a.2.2 0 0 0-.17 0c-.1.06-.16.15-.17.29a.14.14 0 0 0 .08.13l.06.02h.64a.11.11 0 0 1 .08.04.1.1 0 0 1 .03.08 5.8 5.8 0 0 1-.56 1.7c-.73-.38-1.49-.7-2.26-.97-.2-.07-.4-.16-.6-.28-.3-.18-.5-.26-.62-.26-.84 0-1.67-.01-2.51-.04-.45-.01-.85 0-1.2.04-.72.08-1.12.13-1.19.15-.07.02-.08.05-.01.1.13.07.3.1.49.06 1.27-.25 2.86-.09 3.87-.09.79 0 1.21.48 1.8.63l-.27.29c-.63-.16-1.31-.51-1.9-.5-.4 0-.85-.02-1.36-.05-.38-.02-.39.03-.04.16.74.28 1.54.03 2.22.3.6.26 1.15.3 1.69.55l.04.64c-.15.1-.27.2-.36.29-.29.3-.4.24-.33-.17v-.3c0-.13-.06-.2-.18-.2l-.17-.02c-.15-.02-.2.02-.12.12.05.08.08.31.07.7 0 .06.02.11.05.17.11.18.09.38-.06.6a.12.12 0 0 0-.02.09c.02.08.07.12.17.13l-.02.44c-.57.06-1.08.27-1.54.63a.16.16 0 0 1-.16.03 24.8 24.8 0 0 0-1.21-.34 9.19 9.19 0 0 0-6.5.81l-.06-.01c-.26-.15-.45-.42-.7-.56-1.14-.63-2.18-.47-3.12.46-.5.33-.77.86-.83 1.57-.37.03-.49.26-.35.7a.2.2 0 0 0 .28.12.2.2 0 0 0 .08-.08c.04-.07.07-.2.09-.4.07.15.1.34.11.56 0 .05.02.09.06.11.04.03.06.08.05.17a.17.17 0 0 1-.09.13.43.43 0 0 0-.15.13c-.04.07-.02.1.05.12l.6.1c.18.28.44.47.77.58a.16.16 0 0 1 .11.14v.06l-.22.62c-.4.5-.63.99-.69 1.43l-.09.57a.15.15 0 0 1-.21.1c-1.01-.5-1.84-.32-2.89-.43a.26.26 0 0 1-.23-.32l.35-1.33c.15-.6.42-1.06.54-1.6a.1.1 0 0 0-.02-.09.1.1 0 0 0-.07-.03.2.2 0 0 0-.08.02 8.17 8.17 0 0 0-1.17 3.22.12.12 0 0 1-.17.02l-1.27-.89a.17.17 0 0 1-.08-.15v-.74a.15.15 0 0 0-.04-.1l-.48-.47a.16.16 0 0 1-.05-.12v-.13c.08-.07.1-.14.05-.22.29-.84.65-1.63 1.07-2.36.55.18 1.02.28 1.21-.42a.16.16 0 0 0-.04-.16l-.51-.5a22.64 22.64 0 0 1 2.3-2.73 18.96 18.96 0 0 1 6.78-3.94c.3-.1.59-.17.86-.2.56-.05.97-.23 1.49-.28 1.47-.15 2.18-.3 3.24-.13.06 0 .11.03.16.06.52.4 1.08.46 1.67.18a.27.27 0 0 1 .17-.02l1.19.24Z" fill="#FFF9BD"/><path d="m42.38 19-.66-.67-1.54-1.88c-.1-.12-.2-.13-.33-.03a1.3 1.3 0 0 0-.27.44.14.14 0 0 0 .08.2h.08l.41-.1c.18-.04.2 0 .07.13-.24.24-.55.25-.92.02a.12.12 0 0 1-.06-.14c.06-.34.2-.56.42-.65a.2.2 0 0 0 .11-.23 13.59 13.59 0 0 0-2.14-1.87c-.4-.29-.93-.13-1.24-.33a1.35 1.35 0 0 1-.52-.56.52.52 0 0 0-.49-.31c-.2 0-.38-.04-.58-.12a7.34 7.34 0 0 0-2.77-1.12l.32-.16 2.02.65c.05.02.1.05.14.1.46.57.94.23 1.46.62.05.04.09.08.11.14.1.23.24.4.44.52.27.17.79.03 1.03.2a16.13 16.13 0 0 1 4.83 5.14ZM29.19 12.18c.25.25.6.22.94.12a.3.3 0 0 1 .1-.01c.08.01.09.04.04.08l-.17.14c-.35.26-.96.02-1.21-.24-.2-.2-.15-.26.13-.2.05 0 .1.05.17.11ZM21.32 13.43c.14-.08.23-.23.25-.45 0-.02 0-.04.02-.05.03-.06.07-.1.13-.1a.15.15 0 0 1 .15.1c.1.28-.08.68-.36.78-.24.08-.51 0-.8-.25-.05-.05-.05-.1-.02-.15l.04-.05a.1.1 0 0 1 .1-.04.1.1 0 0 1 .04.01l.27.2c.06.03.12.04.18 0Z" fill="#FFDD9F"/><path d="M34.8 12.9c.2.08.39.12.58.12a.52.52 0 0 1 .5.31c.08.2.25.39.51.56.3.2.85.04 1.24.32a13.59 13.59 0 0 1 2.14 1.88.2.2 0 0 1-.04.17.2.2 0 0 1-.07.06c-.22.1-.36.3-.42.65-.01.06.01.1.06.14.37.23.68.22.92-.02.13-.13.1-.17-.07-.13l-.41.1a.14.14 0 0 1-.16-.2c.1-.22.19-.36.27-.44.12-.1.23-.09.33.03l1.54 1.88c.07.17-.08.23-.46.18-.06-.01-.1-.05-.1-.12v-.25a.07.07 0 0 0-.07-.08h-.06c-.07 0-.12.04-.13.11-.11.48.32.79.73.5a.21.21 0 0 1 .28.05 5.7 5.7 0 0 1 1.4 2.64c0 .06-.02.09-.08.08a2.92 2.92 0 0 1-1.03-.24 6.25 6.25 0 0 0-1.73-.65l-1.44-1.99.02-.68a.16.16 0 0 0-.05-.12.16.16 0 0 0-.12-.04c-.62.03-1.18.2-1.69.55-.57.38-.87 1-1.2 1.56a6.14 6.14 0 0 1-.96 1.15.17.17 0 0 1-.17-.04.18.18 0 0 1-.05-.08l-.03-.1c.5-.96-.09-2.1-.93-2.6a3.5 3.5 0 0 0-2.08-.5l.02-.45c.24.02.4-.09.45-.35.02-.05.05-.1.1-.14l.8-.63c.04-.04.05-.1 0-.14-.09-.1-.22-.15-.4-.15l-.04-.64c.1.03.19.02.26-.01a.06.06 0 0 0 0-.11l-.87-.34.27-.3c1.4.44 2.69 1.09 3.86 1.95.03.03.11.05.23.06.05 0 .1 0 .13-.02a.06.06 0 0 0 .03-.05.06.06 0 0 0-.02-.05l-2-1.23a5.8 5.8 0 0 0 .56-1.73.1.1 0 0 0-.06-.07.11.11 0 0 0-.05-.01h-.64a.15.15 0 0 1-.1-.05.14.14 0 0 1-.04-.1c0-.14.06-.23.17-.28a.2.2 0 0 1 .16 0l.21.08Z" fill="#FFFFD4"/><path d="M31.7 13.55c-.2-.33-.58-.4-.98-.38-.04 0-.07 0-.11-.02-.07-.03-.08-.06 0-.1l.2-.1c.45-.18 1.03.24 1.23.59.15.25.08.31-.2.17-.05-.02-.1-.07-.14-.16ZM34.59 15.06l2 1.23a.06.06 0 0 1 .02.05v.03l-.03.02a.26.26 0 0 1-.13.02.54.54 0 0 1-.23-.06 12.79 12.79 0 0 0-3.86-1.94c-.59-.15-1.01-.63-1.8-.63-1.01 0-2.6-.16-3.87.09a.68.68 0 0 1-.5-.07c-.06-.04-.05-.07.02-.09.07-.02.47-.07 1.2-.15.34-.04.74-.05 1.19-.04.84.03 1.67.04 2.51.04.12 0 .32.08.62.26.2.12.4.21.6.28.77.27 1.53.6 2.26.96Z" fill="#FCBB65"/><path d="M25.12 14.55c-.15.03-.34.17-.53.22a14 14 0 0 0-2.22.75l-.06-.04a.03.03 0 0 1 0-.05 4.74 4.74 0 0 1 1.78-.73c.47-.1.9-.35 1.33-.4.56-.04 1.14-.13 1.73-.26.04-.01.07 0 .1.02l.08.05a.03.03 0 0 1 0 .05l-.01.02c-.52.14-.88.22-1.07.23a6.3 6.3 0 0 0-1.13.14ZM32.09 14.7l.86.34a.06.06 0 0 1 0 .1.4.4 0 0 1-.25.02c-.54-.25-1.09-.3-1.69-.54-.68-.28-1.48-.03-2.22-.3-.35-.14-.34-.2.04-.17.5.03.96.05 1.35.04.6 0 1.28.35 1.9.5ZM19.65 16.54c-.19.13-.37.28-.55.43-.66.56-1.27 1.14-1.83 1.73-.08.08-.15.1-.21.02a.12.12 0 0 1 0-.16 13.98 13.98 0 0 1 5.3-3.9.12.12 0 0 1 .14.05c.05.08.03.15-.08.2a23.07 23.07 0 0 0-2.77 1.63ZM29.72 16.2a.11.11 0 0 0 .17.06.1.1 0 0 0 .05-.06l.33-1c.01-.04.04-.06.08-.06h.35a.08.08 0 0 1 .07.03.08.08 0 0 1 .01.08l-.55 1.67a.2.2 0 0 1-.1.12.56.56 0 0 1-.52-.04.18.18 0 0 1-.1-.13 1.38 1.38 0 0 0-.17-.5c-.03-.05-.08-.07-.14-.03a.4.4 0 0 0-.21.31c-.01.06-.03.11-.08.15-.16.16-.31.21-.46.15a.15.15 0 0 1-.1-.12l-.26-1.77a.13.13 0 0 1 .12-.14h.29c.1 0 .15.05.15.15V16a.1.1 0 0 0 .13.1c.2-.07.29-.2.36-.41a.35.35 0 0 1 .11-.15.2.2 0 0 1 .18-.04.2.2 0 0 1 .13.14l.16.55ZM27.04 16.67l.43.14c.16.06.16.1-.01.14-.35.08-.68.13-1 .13-.07 0-.11-.04-.12-.1l-.26-1.72a.19.19 0 0 1 .14-.21c.38-.11.74-.13 1.05-.07.24.05.25.11 0 .18-.19.06-.36.13-.5.22a.16.16 0 0 0-.08.15.16.16 0 0 0 .1.13l.55.18a.08.08 0 0 1 .04.1c0 .02-.02.03-.03.04l-.36.21a.26.26 0 0 0-.07.4c.03.03.07.06.12.08ZM25.04 15.88c-.08-.1-.1-.28-.1-.53.01-.07.04-.1.1-.12.2-.03.32.03.37.23.1.36.24.86.44 1.5.05.14 0 .23-.16.25h-.06c-.16.03-.25-.04-.28-.2l-.09-.44c-.01-.1-.07-.13-.16-.1l-.28.07c-.1.03-.14.1-.12.2l.08.56a.15.15 0 0 1-.07.15.15.15 0 0 1-.06.02l-.07.01c-.12.02-.2-.03-.24-.15l-.46-1.6c-.03-.12 0-.19.12-.22a.85.85 0 0 1 .18-.02c.1 0 .17.05.19.15l.05.4c.01.06.06.1.13.1.17-.01.32-.06.46-.14.05-.03.06-.07.03-.12ZM32.74 15.8c.18 0 .31.05.4.15.05.05.04.1 0 .14l-.8.63a.25.25 0 0 0-.1.14c-.06.26-.2.38-.45.35-.1 0-.15-.05-.17-.13a.12.12 0 0 1 .02-.1c.15-.21.17-.41.06-.6a.32.32 0 0 1-.05-.17c.01-.38-.01-.6-.07-.7-.07-.09-.03-.13.12-.11l.17.01c.12.01.18.08.18.2v.31c-.07.42.04.47.33.17.09-.1.2-.19.36-.3Z" fill="#FCBB65"/><path d="M34.6 16.05c.17.05.33.05.35-.01.02-.06-.1-.16-.28-.21-.18-.06-.34-.05-.36 0-.02.07.11.16.29.22Z" fill="#FFDD9F"/><path d="M16.63 19.95c.38-.44.48-.96.98-1.35.65-.5 1.18-1 1.58-1.46.15-.17.35-.32.6-.45.43-.23.77-.86 1.37-.69.17.05.17.1 0 .12-.36.06-.64.24-.83.54a.34.34 0 0 1-.13.12c-.36.18-.57.26-.8.52-.44.52-1 1.05-1.65 1.56-.39.3-.43.78-.79 1.11a.24.24 0 0 1-.17.07h-.12c-.08 0-.1-.03-.04-.1ZM23.8 17.75c-1.18.98-2.5-.84-1.24-1.65a.77.77 0 0 1 .22-.1c.17-.03.3-.02.4.06a.06.06 0 0 1 .02.05.06.06 0 0 1-.03.05c-.56.24-.79.56-.66.96.18.58.7.5 1.21.45.23-.03.26.04.08.18Z" fill="#FCBB65"/><path d="M37.06 16.92c.1 0 .2-.03.2-.08 0-.04-.09-.08-.2-.09-.1 0-.2.03-.2.07 0 .05.09.1.2.1Z" fill="#FFDD9F"/><path d="M27.97 17.36c.1-.07.21-.05.33.04a.1.1 0 0 1 .03.1.1.1 0 0 1-.08.07.52.52 0 0 1-.25-.02.1.1 0 0 1-.08-.09.11.11 0 0 1 .05-.1Z" fill="#696868"/><path d="m21.13 17.6-1.3-.04c-.06 0-.07-.02 0-.04.4-.17.84-.2 1.3-.07.02 0 .04.03.04.06v.06c0 .02-.02.04-.04.04ZM30.03 17.74a.68.68 0 0 0 .2-.11c.18-.13.37-.21.56-.18.14.02.15.06.02.13l-.7.37a.17.17 0 0 1-.14.01 7.79 7.79 0 0 1-1.12-.38c-.25-.12-.23-.17.04-.15.32.02.64.12.97.3.05.03.1.03.17.01Z"/><path d="m34.78 20.76-.43.79c-.21-.03-.3-.1-.28-.2.94-1.04.67-2.44-.56-3.06a2.84 2.84 0 0 0-3.14.21.43.43 0 0 1-.37.06l-1.2-.35a8.91 8.91 0 0 0-6.33.82.31.31 0 0 1-.36-.05c-.52-.5-.9-.8-1.69-.87a2 2 0 0 0-1.2.32c-.76.45-1.1 1.16-1.02 2.15.07.76.4 1.29.98 1.6l.43.23c.03.01.04.03.02.06a.94.94 0 0 0-.16.34.9.9 0 0 1-.22.45c-.09.08-.16.1-.21.04l.21-.62a.16.16 0 0 0-.04-.17.16.16 0 0 0-.06-.03 1.4 1.4 0 0 1-.77-.58 8.24 8.24 0 0 1-.42-.87c-.28-.8-.1-1.59.52-2.36.94-.93 1.98-1.09 3.12-.46.25.14.44.4.7.56a.14.14 0 0 0 .13 0 9.19 9.19 0 0 1 6.43-.8c.2.04.6.16 1.21.34.06.01.11 0 .16-.03.46-.36.97-.57 1.54-.63a3.5 3.5 0 0 1 2.08.51c.84.5 1.44 1.64.93 2.6Z"/><path d="M36.17 18.09c-.02.39-.47.47-.74.32-.18-.1-.17-.15.04-.16.27 0 .4-.07.41-.18 0-.1-.13-.18-.4-.22-.2-.02-.2-.08-.02-.15.29-.12.73 0 .7.39Z" fill="#FFE8AB"/><path d="M39.03 18.56c-.14-.04-.24-.03-.31.02-.06.04-.07.08 0 .13.08.07.18.16.27.28 1.21 1.5 2.1 3.18 2.65 5.03.1.32.29 1.04.58 2.14 0 .02.02.04.05.08.04.04.07.09.08.15.06.4.13.97-.13 1.32a.25.25 0 0 0-.05.16c.01 1.17-.02 1.97-.09 2.41a10.61 10.61 0 0 1-.66 2.39.09.09 0 0 0 .04.06.1.1 0 0 0 .03.02l.07.02.08-.01a.12.12 0 0 0 .06-.07c.59-1.42.85-3 .79-4.73-.01-.17.07-.3.25-.4a.25.25 0 0 0 .12-.28l-.18-.81c-.02-.07 0-.09.07-.06.2.11.3.29.28.53 0 .06.02.11.07.14.06.04.13.04.2 0a.2.2 0 0 0 .09-.2c-.1-.48-.35-.77-.75-.88a.2.2 0 0 1-.13-.1c-.05-.11-.1-.25-.13-.4-.37-1.75-1-3.4-1.9-4.95.49.09 1.07.3 1.72.65.22.12.57.2 1.03.24.06 0 .09-.02.08-.08a5.7 5.7 0 0 0-1.4-2.64.21.21 0 0 0-.28-.04c-.41.28-.84-.03-.73-.51.01-.07.06-.1.13-.1h.06a.07.07 0 0 1 .07.07v.25c0 .07.04.1.1.12.38.05.53-.01.46-.18l.66.66c.8 1.32 1.3 2.18 1.46 2.59A14.83 14.83 0 0 1 45 26.82c.01 1.32-.02 2.36-.1 3.12-.05.41-.2 1.03-.42 1.85l-.77 2.26a.16.16 0 0 1-.16.11h-.57a.08.08 0 0 0-.06.03.1.1 0 0 0-.02.07v.06c0 .01 0 .03.02.05l.05.03.21.05a.08.08 0 0 1 .06.05.08.08 0 0 1-.01.08c-.34.34-.56.74-.67 1.2-.02.07-.05.08-.1.05-.12-.06-.19-.2-.22-.43a.07.07 0 0 0-.05-.05l-.11-.03c-.07-.01-.1.01-.08.08.05.3.19.53.4.7.15.13.17.27.06.44l-.04.05c-.1.15-.23.18-.38.07-.34-.22-.71-.2-1.11.06l-1.13-.77c-.02-.44.13-.87.44-1.28a.16.16 0 0 0 .03-.14l-.02-.1a.07.07 0 0 0-.11-.05.07.07 0 0 0-.03.03l-.62 1.24-1.53-.62.84-1.22a.22.22 0 0 1 .14-.09c1.63-.3 1-1.24.82-2.27-.17-.99-.83-1.66-1.88-1.2a.1.1 0 0 1-.15-.06c-.09-.25-.3-.53-.6-.55-.54-.03-.7.45-.74.9-.04.42-.1.91-.34 1.25-.6.85-1.48 1.14-2.61.88a.2.2 0 0 1-.09-.35c.38-.33.81-.66 1.3-1.01.6-.43 1.07-1 1.4-1.68.86-1.43 1.07-3.11.1-4.54-.4-.54-.91-.86-1.57-.96-.07-.01-.1-.05-.11-.11l-.05-.31c.3-.5.4-.93.3-1.32a6.04 6.04 0 0 0-.37-.84l.43-.8.04.11a.18.18 0 0 0 .12.12.17.17 0 0 0 .17-.05c.4-.4.68-.77.87-1.1.34-.57.64-1.18 1.21-1.56a3.23 3.23 0 0 1 1.76-.54.16.16 0 0 1 .1.15l-.02.68Z" fill="#FFF9BD"/><path d="M21.59 17.73c.13-.04.24-.01.33.08a.08.08 0 0 1-.02.12.09.09 0 0 1-.04.02c-.15.01-.26-.02-.31-.1-.05-.05-.04-.1.04-.12Z" fill="#696868"/><path d="M34.08 21.35a1.26 1.26 0 0 1-.69-.5c.41-.49.49-.95.23-1.38-.5-.85-1.63-.81-2.39-.34a.07.07 0 0 0-.02.1l.03.02c.66.23 1.18.62 1.57 1.17l-1.3-.56c-.99-.42-2.01-.66-3.08-.71l.37-.94 1.2.35a.42.42 0 0 0 .37-.06c.98-.7 2.03-.77 3.14-.21 1.23.62 1.5 2.02.57 3.06Z" fill="#88D7CA"/><path d="m28.8 18.2-.37.95a9.77 9.77 0 0 0-4.22.67c-1.6.65-3.12 1.63-4.56 2.94a.19.19 0 0 1-.1.04l-.09.01a.94.94 0 0 1 .17-.34c.02-.03.01-.05-.02-.06l-.44-.23c-.58-.31-.9-.84-.97-1.6-.08-.99.26-1.7 1.02-2.15a2 2 0 0 1 1.2-.32c.78.08 1.16.38 1.7.87a.31.31 0 0 0 .35.05 8.91 8.91 0 0 1 6.33-.82Z" fill="#87C9BC"/><path d="m39.03 18.56 1.44 1.99c.9 1.55 1.54 3.2 1.91 4.94.03.16.08.3.13.4a.2.2 0 0 0 .13.11c.4.1.65.4.74.87a.2.2 0 0 1-.09.21.17.17 0 0 1-.19 0 .14.14 0 0 1-.07-.14c.02-.24-.08-.42-.29-.53-.05-.02-.08 0-.06.06l.18.81a.25.25 0 0 1-.12.28c-.18.1-.26.23-.25.4.06 1.73-.2 3.3-.8 4.73a.12.12 0 0 1-.14.07h-.06a.1.1 0 0 1-.06-.05.09.09 0 0 1 0-.08c.32-.8.54-1.57.65-2.35.07-.44.1-1.24.1-2.4 0-.07 0-.12.04-.17.26-.35.19-.93.13-1.32-.01-.06-.04-.11-.08-.15a.21.21 0 0 1-.05-.08c-.29-1.1-.48-1.82-.58-2.14A14.65 14.65 0 0 0 39 19c-.1-.12-.19-.21-.28-.28-.06-.05-.06-.09 0-.13.07-.05.18-.05.32-.02Z" fill="#FCBB65"/><path d="m14.17 18.6.5.5c.05.04.07.1.05.16-.19.7-.66.6-1.2.42l.65-1.09Z" fill="#FFE8AB"/><path d="M18.48 18.67c-.63.77-.8 1.56-.52 2.36.05.15.19.44.42.87l-.6-.1c-.07-.01-.1-.05-.05-.12.03-.05.08-.1.15-.13a.18.18 0 0 0 .09-.13c0-.09 0-.14-.05-.17a.12.12 0 0 1-.06-.1c0-.23-.04-.42-.11-.58a.8.8 0 0 0-.1-.33c.06-.71.33-1.24.83-1.57Z" fill="#FFDD9F"/><path d="M19.8 21.53a.06.06 0 0 1-.08 0l-.07-.07c-.3-.28-.48-.65-.52-1.02a1.2 1.2 0 0 1 .31-.97l.04-.04c.12-.12.26-.21.43-.27.16-.06.34-.09.53-.07.18 0 .37.06.55.14.18.08.34.2.49.33l.06.07a.07.07 0 0 1 0 .09l-1.73 1.8Z" fill="#FFF9BD"/><path d="M36.64 20.57c.03.07 0 .11-.08.11h-.22a.15.15 0 0 1-.15-.11c-.17-.66.05-1.12.64-1.38.48-.2.94-.03 1.38.55a.1.1 0 0 1-.08.14h-.1a.28.28 0 0 1-.21-.08c-.7-.7-1.44-.07-1.18.77Z" fill="#FCBB65"/><path d="M28.43 19.15c1.07.05 2.1.29 3.07.71l1.31.56.58.43c.17.24.4.4.68.5-.02.1.07.17.28.2.2.43.33.71.36.84.1.4 0 .83-.3 1.32l-.26-.66a6.6 6.6 0 0 0-4.74-2.03 12.07 12.07 0 0 0-8.3 3.12c-.73.68-1.57 1.44-2.04 2.32-.22 0-.32.12-.3.35-.45-.23-.6-.92-.42-2.08.06-.44.3-.92.69-1.43.05.06.12.04.21-.04a.9.9 0 0 0 .21-.45h.08l.11-.05a15.83 15.83 0 0 1 4.56-2.94 9.77 9.77 0 0 1 4.22-.67Z" fill="#F45B7E"/><path d="m26.42 21.08 1.21-1.66c1.92-.14 3.7.35 5.36 1.46.2.14.4.31.6.52.41.45.76.7.75 1.18a.06.06 0 0 1-.03.05.06.06 0 0 1-.06 0 8.03 8.03 0 0 0-4.88-1.83c-.8-.01-1.78.08-2.95.28Z" fill="#FFA3A8"/><path d="m27.63 19.42-1.2 1.66a11.85 11.85 0 0 0-4.66 2.12c-.7.52-1.28 1.15-1.91 1.73-.34.3-.57.66-.92 1.13-.16.22-.26.19-.3-.08-.08-.74-.07-1.74.58-2.29.17-.14.33-.31.5-.52a13.02 13.02 0 0 1 5.77-3.48 8.15 8.15 0 0 1 2.14-.27Z" fill="#FF8692"/><path d="M41.47 29.98c.08-.34.12-.56.13-.68a14.2 14.2 0 0 0-1.39-7.46 7.34 7.34 0 0 0-1-1.57.09.09 0 0 1 .04-.08l.05-.01c.15.02.28.1.38.25a13.94 13.94 0 0 1 2.28 6.96c.02.4-.04 1.26-.2 2.57a.14.14 0 0 1-.14.13h-.07a.08.08 0 0 1-.07-.03.08.08 0 0 1-.01-.08Z" fill="#FFDD9F"/><path d="M17.65 20.24a.8.8 0 0 1 .1.33c-.02.2-.05.34-.09.4a.2.2 0 0 1-.36-.03c-.14-.44-.02-.67.35-.7Z" fill="#696868"/><path d="M15.6 20.67h-.01a.17.17 0 0 0-.23.08l-1 2.14c-.05.09 0 .19.08.23.09.04.19 0 .23-.08l1-2.14a.17.17 0 0 0-.08-.23ZM38.04 21.9a.1.1 0 0 0-.04-.03.06.06 0 0 0-.05 0c-.26.03-.59.23-.82.1a.48.48 0 0 1-.27-.36.18.18 0 0 1 .06-.16c.48-.37.88-.6 1.2-.7.24-.07.26-.03.07.14a6 6 0 0 1-1.05.67c-.07.04-.07.08-.01.13.11.09.24.1.37.02.38-.22.67-.16.9.18.03.06.02.1-.03.15-.18.16-.37.29-.56.38-.24.12-.24.22 0 .3.07.02.17-.01.3-.1.35-.24.78-.53 1.3-.86a.1.1 0 0 0 .05-.12.1.1 0 0 0-.05-.07.15.15 0 0 0-.12-.01l-.49.14a.23.23 0 0 1-.16-.01.64.64 0 0 1-.34-.33.11.11 0 0 1 .03-.13l.62-.5c.08-.06.15-.06.23 0l.05.03c.07.05.07.1 0 .15l-.47.32c-.05.03-.08.06-.09.09a.1.1 0 0 0 0 .08c.01.01.03.03.05.03.02 0 .04.01.07 0 .17-.04.43-.22.68-.12.2.08.3.22.35.43.01.07-.01.12-.07.15l-1.84 1.07a.12.12 0 0 1-.08 0 .53.53 0 0 1-.41-.38.15.15 0 0 1 .03-.16c.16-.17.35-.32.57-.44.03-.02.04-.04.02-.07Z" fill="#FFDD9F"/><path d="M16.25 20.81c.05 0 .08.01.1.06.03.07.02.12-.04.15-.14.08-.25.09-.33.03-.07-.04-.07-.09 0-.13a.76.76 0 0 1 .27-.1Z" fill="#FFE8AB"/><path d="M34.15 23.05c-.05.27-.05.45-.02.53.13.27.15.52.06.73-.95.09-1.93.25-2.95.5-.26.05-.52.09-.78.09l-1.78.02c-1.73-.02-3.5-.66-4.94.67-.45.42-.77.93-.95 1.53-.27.93-.1 1.83.5 2.72a5.73 5.73 0 0 1-2.84-1.6.24.24 0 0 1-.02-.31c.62-.86 1.28-1.68 1.99-2.48.98-1.1 1.83-2.08 2.56-2.93.13-.15.31-.46.56-.94 1.3-.4 2.59-.6 3.87-.56a6.6 6.6 0 0 1 4.74 2.03Z" fill="#88D7CA"/><path d="M29.76 23.32H28.9c-.06 0-.1.03-.09.1 0 .12-.07.23-.2.33-.22.18-.49.2-.8.08a.14.14 0 0 1-.1-.13c-.04-.33-.25-.45-.64-.36a.05.05 0 0 0-.04.02.05.05 0 0 0 0 .05c.25.5.45.88 1.02 1.02.44.11.8 0 1.1-.35.27-.22.42-.26.45-.12-.66.94-1.7.92-2.46.16a1.43 1.43 0 0 1-.31-.61 1.15 1.15 0 0 0-.44-.6.26.26 0 0 1-.1-.16c-.16-.76.12-1.17.83-1.23.98-.08 2.25-.17 2.96.26.17.1.28.28.33.53.12.57-.1.9-.65 1.01Z"/><path d="M18.35 24.73c-.17 1.16-.03 1.85.43 2.08.3 1.48.98 2.76 2.05 3.86.04.04.04.08 0 .13a9.17 9.17 0 0 0-1.93 7.18c-.1-.2-.21-.33-.3-.38v-.56c0-.05-.03-.09-.09-.1h-.12c-.07-.01-.1.02-.1.08v.54c-.56-.47-.93-.8-1.09-1-.37-.48-.79-1.2-1.26-2.19l.33-.25c.54.43 1.04.5 1.52.25.77-.4.92-1.3.3-1.94-.1-.11-.23-.11-.37-.09l-.05-.17c.37-.18.15-.84-.3-.72-.2.06-.42.07-.64.03-.06-.01-.08.01-.05.06l.07.12.03.02.64-.04c.18-.01.3.06.34.2.02.05 0 .09-.06.1l-1.72.6a.34.34 0 0 1-.3-.04l-.07-.04c-.12-.1-.12-.16.02-.22l.63-.26a.1.1 0 0 0 .07-.1c.01-.57-.42-.38-.76-.41-.33-.04-.35-.14-.05-.31a4.37 4.37 0 0 1 1.94-.58.05.05 0 0 0 .02-.06.05.05 0 0 0-.02-.03l-.11-.08a.14.14 0 0 0-.12-.02l-1.48.4-.06-.27 1.4-.3a.27.27 0 0 0 .22-.26v-.93a.35.35 0 0 0-.27-.34.46.46 0 0 0-.43.1.16.16 0 0 0-.06.13v.38c0 .02 0 .04-.03.06a.08.08 0 0 1-.05.02c-.05.01-.08-.01-.1-.06l-.03-.16a.17.17 0 0 0-.1-.12.75.75 0 0 0-.5-.02c-.06.02-.09.06-.07.13.02.13-.05.21-.2.27-.17.06-.19.14-.05.25.08.07.2.06.33 0 .07-.04.09-.1.06-.17l-.06-.15c-.03-.07 0-.1.06-.13a.56.56 0 0 1 .26-.01.15.15 0 0 1 .11.1v.1c0 .08.02.12.09.14.17.04.32.03.45-.06a.17.17 0 0 0 .08-.13l.04-.34c0-.07.04-.1.11-.1l.08.01a.11.11 0 0 1 .1.13l-.08.87c0 .05-.03.07-.07.08l-1.68.39a.13.13 0 0 1-.14-.06.13.13 0 0 1-.02-.05l-.13-.9c0-.05.01-.1.07-.11l.3-.13c.12-.04.12-.1.02-.16-.31-.2-.54-.16-.67.11 0 .25-.11.38-.32.38-.07 0-.1-.03-.12-.1l-.25-1.69a.1.1 0 0 0-.06-.08.1.1 0 0 0-.1 0 4.86 4.86 0 0 0-1.43 1.4.1.1 0 0 1-.1-.03.1.1 0 0 1-.03-.04 1.86 1.86 0 0 0-.99-1.23c-.01-1.08.1-2.14.35-3.18a.49.49 0 0 0-.04-.26l.01-.35c.35-.38.5-.74.45-1.07-.15-.1-.12-.24.1-.44a.56.56 0 0 1 .2-.15l-.01.13c0 .05.01.09.05.12l.48.46a.15.15 0 0 1 .04.11v.74c0 .07.03.12.08.15l1.27.9a.12.12 0 0 0 .2-.09 8.17 8.17 0 0 1 1.14-3.16.2.2 0 0 1 .08-.02.1.1 0 0 1 .09.07.1.1 0 0 1 0 .04c-.12.55-.39 1-.54 1.61a521.6 521.6 0 0 1-.35 1.44.26.26 0 0 0 .23.21c1.05.11 1.88-.07 2.89.44a.15.15 0 0 0 .21-.11l.1-.57Z" fill="#FFE8AB"/><path d="m16.9 22-.19-.24c-.08-.1-.05-.15.07-.16.83-.08.56 1.09-.31.82a.24.24 0 0 1-.14-.11.25.25 0 0 1-.02-.18c0-.02.02-.03.05-.05.06-.03.11-.01.15.04l.08.1a.13.13 0 0 0 .12.04c.06 0 .13-.04.19-.1a.11.11 0 0 0 0-.15Z" fill="#FFDD9F"/><path d="M25.54 21.58c-.25.48-.43.8-.56.94l-2.56 2.93c-.7.8-1.37 1.62-2 2.48a.24.24 0 0 0 .03.3c.77.8 1.72 1.34 2.84 1.6 1.4 2.35 4.22 3.17 6.83 3.09-.52.92-.89 1.9-.74 2.97-1.93 1.15-2.56 2.97-2.46 5.13a.1.1 0 0 1-.08.1 5.07 5.07 0 0 1-4.4-1.25c-.17-.1-.15-.16.04-.2 1.03-.17.85-1.08.55-1.8a.32.32 0 0 1-.02-.18c.13-.85.38-1.67.74-2.43.04-.1 0-.13-.09-.13l-.06.01c-.1 0-.17.05-.2.14-.32.74-.53 1.52-.64 2.35-.07.54.58 1.2.08 1.57a.26.26 0 0 1-.16.05h-.41c-.06 0-.1.03-.11.1-.1.5-.36.8-.8.9-1.12.24-1.77-.62-2-1.63a8.88 8.88 0 0 1 .88-6.43c.16-.3.47-.8.92-1.48.03-.05.03-.1-.01-.14a7 7 0 0 1-2.08-4.11c.47-.88 1.31-1.64 2.03-2.32a10.97 10.97 0 0 1 4.43-2.56Z" fill="#87C9BC"/><path d="m12.19 21.85.25.19c.04.08.03.15-.05.22a.56.56 0 0 0-.2.15c-.14-.13-.15-.32 0-.56Z" fill="#292520"/><path d="M17.85 22.7c.17-.04.29-.17.26-.29-.03-.12-.19-.19-.35-.15-.17.03-.29.16-.26.29.02.12.18.19.35.15ZM37.9 23.53c-.09-.19-.03-.33.15-.42l1.6-.78a.4.4 0 0 1 .55.21l.4.98a.25.25 0 0 1-.13.33.61.61 0 0 1-.6-.03c-.04-.02-.05-.06-.02-.1l.03-.05c.04-.06.03-.1-.03-.14-.1-.05-.2-.04-.3.03a.12.12 0 0 1-.13.02.1.1 0 0 1-.05-.04c-.03-.04-.03-.08 0-.12.13-.2.3-.26.53-.17.04.02.07.05.09.08l.09.19c.02.05.06.07.11.07h.13a.05.05 0 0 0 .05-.06l-.01-.03a1.24 1.24 0 0 1-.35-.76.17.17 0 0 0-.15-.16l-.08.01-1.56.64a.14.14 0 0 0-.07.07.14.14 0 0 0-.01.1l.22.78c.02.06.06.09.12.1h.14c.05-.02.05-.06-.02-.13a.4.4 0 0 1-.12-.31c0-.07.03-.11.09-.14.2-.12.43-.1.69.07l.06.01.07-.01.24-.14a.1.1 0 0 1 .12 0l.05.04c.04.03.05.07.01.11-.15.2-.31.29-.5.27a.28.28 0 0 1-.16-.06.71.71 0 0 0-.17-.12c-.22-.06-.27 0-.14.22l.1.15a.1.1 0 0 1 .01.06.1.1 0 0 1-.03.06c-.17.16-.34.23-.51.21a.16.16 0 0 1-.14-.1l-.38-.94Z" fill="#FCBB65"/><path d="M18.6 22.7c.17.06.33.06.35 0 .02-.06-.1-.16-.26-.23-.16-.06-.32-.06-.34 0-.02.06.1.16.26.22ZM32.52 22.98c.08.06.14.03.18-.1a.27.27 0 0 1 .06-.1.24.24 0 0 1 .1-.06.2.2 0 0 1 .1 0c.04 0 .07.02.1.05.04.04-.03.17-.22.37-.07.07-.08.15-.01.24l.48.6a.1.1 0 0 1 0 .1.1.1 0 0 1-.09.06c-.13 0-.26-.1-.38-.3a.15.15 0 0 0-.14-.07c-.09 0-.15.1-.18.26a.1.1 0 0 1-.03.06.24.24 0 0 1-.07.05.32.32 0 0 1-.16 0c-.07 0-.1-.04-.12-.1 0-.07.03-.12.1-.16a.2.2 0 0 0 .1-.12c.1-.36.04-.62-.18-.8a.1.1 0 0 1 0-.14l.06-.05c.05-.04.1-.04.14.02l.15.18.01.01Z"/><path d="M12.1 22.85c.05.33-.1.69-.45 1.07-.1-.47.05-.83.45-1.07Z" fill="#292520"/><path d="M26.14 23.16c.03.02.06.1.07.23.04.35-.18 1.16-.7.85-.54-.31.07-.9.39-1.03.12-.05.2-.07.24-.05Z" fill="#FFF9BD"/><path d="m34.42 23.7.05.32c0 .06.04.1.1.1.67.11 1.19.43 1.57.97l-.04.15c-.01.05-.05.07-.1.05l-.1-.02c-.31-.53-.88-.84-1.71-.96.09-.21.07-.46-.06-.73-.03-.08-.03-.26.02-.53l.27.66Z"/><path d="m16.17 24.29-.5-.5c-.1-.1-.11-.21-.05-.34a.17.17 0 0 1 .03-.05c.1-.09.2-.08.28.03.42.56.92.9 1.5 1.03a.13.13 0 0 1 .1.15l-.01.07a.17.17 0 0 1-.21.12 4.14 4.14 0 0 0-1.96.02.1.1 0 0 1-.11-.06c-.02-.06 0-.11.03-.15a.78.78 0 0 1 .12-.1.29.29 0 0 1 .1-.04l.65-.1c.06 0 .07-.04.03-.08Z" fill="#FCBB65"/><path d="m29.45 23.32-.3.76c-.3.34-.66.46-1.1.35-.57-.14-.77-.53-1.02-1.02a.05.05 0 0 1 .02-.06l.02-.01c.39-.1.6.03.64.36 0 .07.04.11.1.13.31.12.58.1.8-.08.13-.1.2-.21.2-.34 0-.06.03-.1.1-.1l.54.01Z" fill="#FEFEFE"/><path d="M29.76 23.32c.14.24.08.45-.16.64-.03-.14-.18-.1-.45.12l.3-.76h.31Z" fill="#696868"/><path d="M25.8 23.9c.12-.1.18-.21.13-.28-.05-.06-.18-.05-.3.04-.11.08-.17.2-.12.27.05.06.18.05.3-.04Z" fill="#88D7CA"/><path d="M40.36 26.16c-.13.12-.1.17.07.14.23-.04.46-.03.67.03.06.02.1.05.14.1.1.2.15.34.17.45a.32.32 0 0 1-.34.36l-1.7-.1c-.24-.02-.47-.05-.54-.32-.1-.38.01-.64.32-.78.1-.05.1-.1 0-.14-.52-.22-.74-.47-.66-.76a.27.27 0 0 1 .16-.18l1.76-.71c.22-.09.36-.03.45.18l.1.24c.08.2.01.34-.2.4l-.65.19c-.19.05-.19.1 0 .15l.5.13a.17.17 0 0 1 .12.21l-.05.08-.32.33Z" fill="#FCBB65"/><path d="M11.64 24.27c.04.11.05.2.04.26a12.7 12.7 0 0 0-.35 3.18c-.09.5-.08 1 .02 1.52.22 1.15.37 2.49.7 3.52.74 2.41 1.95 4.6 3.61 6.53.36.41.85.8 1.27 1.22a.2.2 0 0 0-.16.05c-.02.02-.03.05-.02.1a3.3 3.3 0 0 1-.38-.28 18.01 18.01 0 0 1-4.73-7.83c-.06-.19-.19-.9-.39-2.15l-.15-.93c-.08-.46-.11-.92-.1-1.38l.09-1.64c.02-.41.1-.96.21-1.64.05-.28.17-.46.34-.53Z" fill="#292520"/><path d="M34.19 24.31c.83.12 1.4.43 1.71.96l.3.59c.1.2.16.42.18.63a5.2 5.2 0 0 1-1.43 4.2c-.7.5-1.32 1.03-1.89 1.6l-1.07.4-1.87.23c-2.6.08-5.44-.74-6.83-3.08a3.07 3.07 0 0 1-.5-2.72c.18-.6.5-1.1.95-1.53 1.44-1.33 3.21-.69 4.94-.67l1.78-.02c.26 0 .52-.04.78-.1 1.02-.24 2-.4 2.95-.49ZM39.64 25.92a.1.1 0 0 0-.04-.16 2.15 2.15 0 0 1-.88-.35.14.14 0 0 1-.03-.2.14.14 0 0 1 .05-.04l1.56-.63a.32.32 0 0 1 .37.1l.03.04c.05.06.04.1-.03.13l-1.05.43a.13.13 0 0 0-.08.12.13.13 0 0 0 .1.12l.74.24c.06.02.07.05.02.1l-.7.55a.07.07 0 0 0 .04.13l1.18.11.02.01.14.13a.12.12 0 0 1-.08.2h-1.82c-.08 0-.12-.03-.11-.11l.04-.4c0-.06.03-.12.08-.16l.45-.36Z" fill="#FFF9BD"/><path d="M36.05 29.63c0-.05 0-.08-.02-.1-.02-.03-.05-.04-.09-.03a.57.57 0 0 0-.13.04c.5-.96.7-1.98.57-3.05-.02-.21-.09-.42-.19-.63l-.28-.6.09.03c.05.02.09 0 .1-.05l.04-.15c.98 1.43.77 3.1-.09 4.54Z" fill="#292520"/><path d="M32.76 29.3c-.1.06-.17.06-.25 0-.28.02-.56.09-.83.2-.06.03-.07.06-.04.11l.34.6c.03.05.08.07.14.05.04 0 .08-.04.11-.1.12-.02.18.06.17.23l-.07.19a.2.2 0 0 1-.36.04c-.25-.36-.4-.62-.48-.79-.18-.46-.33-.45-.45.01-.07.27 0 .57.2.9.4.64.98.15 1.46.21.05 0 .08.03.08.07 0 .03-.01.05-.03.06-1.44.58-2.94.81-4.51.68a4.01 4.01 0 0 1-2.85-1.4c-.55-.66-.63-1.38-.11-2.04.78-1 1.79.12 2.58.46 1.9.81 4.23.7 5.95-.46.21-.15.3-.38.26-.7-.01-.06-.05-.1-.11-.09-.78.06-2.04-.3-1.76-1.27.35-1.18 2.46-1.45 3.09-.48.24.37.21.77-.07 1.19-.17.26-.55.37-.78.47-.07.03-.1.06-.08.11.06.2.07.41.03.63-.01.06 0 .12.06.16.3.24.6.35.97.26.14-.04.25-.06.33-.06.14 0 .15.05.04.13-.6.47-1 .2-1.56-.12a.2.2 0 0 0-.18-.02c-.22.09-.45.2-.7.36-.15.1-.47.2-.6.42Z"/><path d="M33.14 25.84c.3-.26.64-.33 1.03-.22.06.02.1.07.1.13.01.2-.1.33-.34.4-.3.07-.56-.02-.8-.28l.01-.03Z" fill="#FEFEFE"/><path d="M31.23 25.76h-.15a.16.16 0 0 0-.16.17V26c0 .09.08.16.17.16h.15c.1-.01.17-.09.16-.18v-.06a.16.16 0 0 0-.17-.16Z" fill="#88D7CA"/><path d="M19.07 26.46a7 7 0 0 0 2.08 4.11c.04.04.04.1.01.14a22.9 22.9 0 0 0-.92 1.48 8.88 8.88 0 0 0-.89 6.43c.24 1.01.89 1.87 2.01 1.63.44-.1.7-.4.8-.9.01-.07.05-.1.1-.1h.42c.06 0 .11-.02.16-.05.5-.37-.15-1.03-.08-1.57.11-.83.32-1.6.63-2.35.04-.09.11-.14.2-.14h.07c.1-.01.13.03.09.12a9 9 0 0 0-.74 2.43c0 .06 0 .12.02.18.3.72.48 1.63-.55 1.8-.2.04-.2.1-.04.2.43.27.84.45 1.23.56a26.85 26.85 0 0 0 3.17.7.1.1 0 0 0 .07-.06.1.1 0 0 0 0-.05c-.1-2.16.54-3.98 2.47-5.13l1.87-.65c1.1-.1 2.08.15 2.93.74.23.16.35.1.38-.18l.03-.29a.74.74 0 0 0-.28-.65l-.65-.52c-.67-.53-.87-1.22-.6-2.05.57-.57 1.2-1.1 1.9-1.6.25-.18.53-.56.85-1.15l.13-.04c.04 0 .07 0 .09.03.02.02.03.05.02.1-.33.69-.8 1.25-1.4 1.68-.49.35-.92.68-1.3 1.01a.2.2 0 0 0 .09.35c1.13.26 2-.03 2.61-.88.24-.34.3-.83.34-1.24.04-.46.2-.94.74-.91.3.02.51.3.6.55a.1.1 0 0 0 .15.06c1.05-.46 1.7.21 1.88 1.2.18 1.03.8 1.97-.82 2.27a.21.21 0 0 0-.14.1l-.84 1.2a7.63 7.63 0 0 1-2.59 2.03c-.05.02-.07.06-.05.12l.6 1.46a.2.2 0 0 1-.08.25l-1.2.69a.1.1 0 0 0-.05.09.1.1 0 0 0 .05.09c.07.04.12.1.15.17.01.03 0 .1-.03.2-.14.37-.3.92-.86.7a1.26 1.26 0 0 1-.57-.43c-.56.14-1.11.28-1.66.44-.76.22-1.31.35-1.67.41-2.29.39-4.44.03-6.68-.64l-.96-.42a.26.26 0 0 0-.17-.02c-.22.05-.44.16-.66.34-1.73.4-2.18-.85-2.52-2.18a.74.74 0 0 0-.1-.34c-.37-2.7.27-5.1 1.92-7.18.04-.05.04-.1 0-.13a7.52 7.52 0 0 1-2.05-3.86c-.03-.23.07-.35.29-.35Z"/><path d="M30.18 26.75c.1-.04.17-.06.2-.05.23.1.22.18 0 .25-.06.01-.12 0-.21-.07-.08-.05-.07-.09.01-.13Z" fill="#88D7CA"/><path d="M35.9 27.13c.12 0 .23-.06.24-.14 0-.08-.1-.15-.23-.16-.13 0-.24.06-.24.14 0 .08.1.15.22.16ZM31.51 27.49c.12-.04.2-.14.17-.22-.03-.08-.15-.11-.27-.07-.12.04-.2.14-.17.22.03.08.15.1.27.07Z" fill="#87C9BC"/><path d="m14.73 29.1.06.88c0 .06.03.11.07.15.06.06.07.13.05.23-.01.06.01.1.07.14.2.1.45.1.71.02l.06.27-.62.3c-.05.02-.07.06-.06.12.03.17.09.3.17.4a.22.22 0 0 0 .16.07c.23 0 .46-.01.69-.04.05 0 .08.02.09.06a.07.07 0 0 1-.04.08l-.54.25a.3.3 0 0 0-.13.1.35.35 0 0 0-.05.17.48.48 0 0 0 .13.35c.05.05.13.08.24.08a.7.7 0 0 0 .25-.04c.53-.2 1.08-.37 1.63-.52l.05.17c-.33.29-.32.52.03.7.06.04.1.02.08-.05a.55.55 0 0 0-.14-.26c-.07-.07-.05-.12.04-.14l.1-.02c.08-.02.15 0 .2.07.92 1.19-1.07 2.53-1.85.92-.02-.06-.03-.1-.01-.13a.2.2 0 0 1 .07-.08c.06-.03.1-.02.15.02.16.14.27.4.42.49.22.12.42.12.62 0 .23-.14.21-.2-.06-.16-.34.05-.56-.06-.66-.32-.08-.2-.23-.29-.44-.24l-.08.02c-.22.05-.3.18-.25.4.06.26.17.44.33.56l-.33.25c-.3-.36-.49-.79-.57-1.28a.16.16 0 0 0-.14-.13h-.07c-.1-.02-.12.02-.09.1l.89 2.18c.02.04 0 .07-.05.06l-.3-.03c-.2-.02-.22.03-.07.15.13.12.31.18.54.2.06 0 .11.02.16.06.23.21.4.5.49.84.04.17.25.36.42.47.66.4 1.04.83 1.61 1.43.04.04.09.05.13 0l.12-.1c.34 1.33.79 2.58 2.52 2.18.05.32.28.5.69.51a.1.1 0 0 0 .07-.01.08.08 0 0 0 .03-.05c.02-.06 0-.1-.06-.12l-.17-.06c-.08-.03-.08-.06 0-.1.1-.06.2-.06.3-.01.63.3 1.2.54 1.76.7l.06-.04.03-.04c.01-.04 0-.07-.05-.1l-.78-.29c-.14-.05-.17-.15-.09-.3a14.4 14.4 0 0 0 6.68.65c.36-.06.91-.2 1.67-.41.55-.16 1.1-.3 1.66-.44a8.67 8.67 0 0 1-3.72 1.15 59.96 59.96 0 0 1-2.32.19.07.07 0 0 0-.04.05v.04l.03.07a.04.04 0 0 0 .04.02 4.69 4.69 0 0 1 2.1.46.15.15 0 0 1 .03.11c0 .02 0 .04-.02.06-.4.7-.68 1.44-.87 2.24a17.6 17.6 0 0 1-7.16-1.4c-.09-.03-.2-.18-.35-.43a.35.35 0 0 0-.12-.12c-.17-.1-.37-.12-.62-.04a.13.13 0 0 1-.14-.05c-.34-.47-.65-.74-.93-.8-.55-.15-.9-.28-1.07-.42l-1.24-1.02c-.42-.41-.91-.8-1.27-1.22a18.12 18.12 0 0 1-3.62-6.53c-.32-1.03-.47-2.37-.7-3.52-.1-.51-.1-1.02 0-1.52.51.27.84.68.98 1.23a.1.1 0 0 0 .08.07.1.1 0 0 0 .1-.04 4.85 4.85 0 0 1 1.43-1.37.1.1 0 0 1 .1.1l.26 1.68c.01.07.05.1.12.1.2 0 .31-.13.32-.38Z" fill="#FFDD9F"/><path d="M40.94 28.73c.18.1.3.18.35.24a.42.42 0 0 1 .07.42.45.45 0 0 1-.31.28c-.07.02-.18-.02-.32-.11-.27-.18-.5-.3-.67-.4-.32-.16-.69-.14-1.03-.17-.17-.02-.24-.11-.22-.27l.02-.28c.02-.16.1-.24.27-.23.65 0 1.32-.18 2-.56a.17.17 0 0 1 .25.16l-.05.53a.14.14 0 0 1-.09.12l-.27.1c-.12.06-.12.11 0 .17Z" fill="#FCBB65"/><path d="M40.38 28.55c-.06.02-.06.05 0 .09l.57.34c.13.07.17.17.14.31 0 .03-.01.05-.02.05-.07.11-.17.13-.27.04a2.41 2.41 0 0 0-1.7-.61.12.12 0 0 1-.07-.07.13.13 0 0 1 0-.04v-.06a.16.16 0 0 1 .16-.17 4 4 0 0 0 1.83-.5.1.1 0 0 1 .07 0c.02 0 .04.02.05.04.03.05.03.1 0 .15a.75.75 0 0 1-.1.12.28.28 0 0 1-.08.07l-.58.24Z" fill="#FFF9BD"/><path d="M26.41 28.55a.13.13 0 0 1-.05-.08v-.06a.1.1 0 0 1 .06-.03.2.2 0 0 1 .08 0c.03 0 .06 0 .08.02l.76.42a.13.13 0 0 1 .02.2c-.16.15-.27.29-.34.43a.13.13 0 0 1-.12.08c-.38.02-.42-.57-.41-.84 0-.06-.03-.11-.08-.14Z" fill="#FEFEFE"/><path d="M15.7 30.52a.92.92 0 0 1-.72-.02c-.06-.03-.08-.08-.07-.14.03-.1 0-.17-.05-.23a.24.24 0 0 1-.07-.15l-.06-.88c.13-.27.36-.3.67-.11.1.06.1.12-.02.16l-.3.13c-.06.02-.08.06-.07.12l.13.89a.13.13 0 0 0 .1.1h.06l1.68-.38a.09.09 0 0 0 .07-.08l.09-.87a.11.11 0 0 0-.1-.13h-.09c-.07-.01-.1.02-.11.09l-.04.34c0 .06-.03.1-.08.13a.54.54 0 0 1-.45.06c-.07-.02-.1-.06-.09-.13v-.1a.15.15 0 0 0-.11-.11.56.56 0 0 0-.26.01c-.07.02-.09.06-.06.13l.06.15c.03.07.01.13-.06.16-.14.07-.25.08-.33.01-.14-.11-.12-.2.05-.25.15-.06.22-.14.2-.27-.02-.07.01-.1.08-.13a.75.75 0 0 1 .49.02.17.17 0 0 1 .1.12l.04.16c.01.05.04.07.1.06.01 0 .03 0 .04-.02a.07.07 0 0 0 .03-.06v-.38a.17.17 0 0 1 .06-.13c.13-.1.27-.14.43-.1a.36.36 0 0 1 .27.34v.93a.26.26 0 0 1-.21.26l-1.4.3Z" fill="#FCBB65"/><path d="M13.33 29.94a.11.11 0 0 0 .07-.06.11.11 0 0 0 0-.1 1.46 1.46 0 0 1-.18-.92.17.17 0 0 1 .11-.13l.06-.02c.12-.03.18.01.19.13.02.43.07.7.15.85.16.33.35.92.54 1.75.12.5.5 1.54 1.16 3.11.02.06 0 .09-.06.09a.2.2 0 0 1-.14-.07c-.14-.15-.3-.45-.5-.9a17.57 17.57 0 0 1-1.07-3.22.11.11 0 0 0-.04-.07l-.46-.32c-.05-.04-.05-.06 0-.07l.17-.05Z" fill="#FFF9BD"/><path d="m32.76 29.3-.36 1.09c0-.17-.05-.25-.17-.23l.28-.86c.08.06.16.06.25 0Z" fill="#696868"/><path d="M19.34 29.7c.12.03.24 0 .26-.08.02-.07-.07-.16-.2-.19-.12-.03-.23 0-.25.08-.02.07.07.16.19.19Z" fill="#292520"/><path d="M37.71 29.47a.04.04 0 0 1 .03-.03h.02l1 .15c.03 0 .06.02.09.05.02.02.03.04.02.07v.03c0 .01 0 .02-.02.03a.1.1 0 0 1-.03.03.14.14 0 0 1-.05.02h-.05l-1-.16-.02-.01v-.03l.01-.15Z" fill="#FCBB65"/><path d="m30.12 29.7-.51.63a.14.14 0 0 1-.23-.01l-.5-.73c-.06-.1-.03-.14.08-.13l1.1.1a.1.1 0 0 1 .08.05.1.1 0 0 1-.02.1Z" fill="#FEFEFE"/><path d="m38.26 30.91.01-.03a.06.06 0 0 0-.08-.05l-.15.06a.27.27 0 0 0-.13.1c-.5.83-.3 2.1.57 2.59.05.03.07.07.04.13a6.86 6.86 0 0 1-3.28 3.11.13.13 0 0 1-.16-.02l-.46-.43c-.06-.05-.06-.11 0-.17.75-.85-.03-1.5-.68-2.06-.38-.32-.62-.7-.74-1.1a.11.11 0 0 1 .14-.15c1.14.36 2.4-.03 3.03-1.08.24-.42.31-1.07.36-1.58a.35.35 0 0 1 .14-.26c.15-.1.29-.09.4.05.22.25.3.43.27.55-.09.26-.03.3.18.12.54-.49 1.08-.44 1.6.16l.01.02.39 1.7c.1.46-.08.73-.55.8h-.03c-.5.06-.85-.14-1.04-.61a1.81 1.81 0 0 1 .16-1.85Z" fill="#87C9BC"/><path d="M40.2 30.44c.1.08.24.1.29.03.05-.06 0-.19-.1-.27-.11-.08-.24-.1-.29-.03-.05.07 0 .19.1.27Z" fill="#FCBB65"/><path d="M20.1 30.72a.43.43 0 0 0-.2-.19c-.09-.04-.1-.1-.05-.17l.04-.05c.02-.03.05-.04.1-.03.36.16.48.4.36.7-.05.14-.24.42-.57.82a.14.14 0 0 1-.1.05c-.03 0-.07 0-.1-.02l-.04-.04a.07.07 0 0 1-.03-.07v-.03l.58-.82c.04-.05.04-.1.02-.15Z"/><path d="M22.93 31.24v.05c.02.06 0 .09-.07.08-.22-.04-.35-.15-.4-.35-.01-.06.02-.1.08-.1.34-.04.5-.21.49-.53 0-.07.03-.1.1-.06.17.1.31.23.42.4.03.05.01.08-.05.09-.29.02-.47.11-.55.28a.24.24 0 0 0-.02.14Z" fill="#FFFFD4"/><path d="M17.67 32.17c-.55.15-1.1.33-1.63.52a.7.7 0 0 1-.25.04c-.1 0-.19-.03-.24-.08a.48.48 0 0 1-.1-.16.43.43 0 0 1-.03-.19c0-.06.02-.12.05-.16a.3.3 0 0 1 .13-.11l.54-.25a.07.07 0 0 0 .04-.08c-.01-.04-.04-.06-.09-.06a5.6 5.6 0 0 1-.78.02.22.22 0 0 1-.07-.05.78.78 0 0 1-.17-.4c0-.06.01-.1.06-.12l.62-.3 1.48-.4c.04 0 .08 0 .12.02l.11.08a.05.05 0 0 1 .02.06.05.05 0 0 1-.05.04c-.69.04-1.33.23-1.91.57-.3.17-.28.27.05.3.34.04.77-.15.76.42a.1.1 0 0 1-.07.1l-.63.26c-.14.06-.14.13-.02.22l.06.04a.34.34 0 0 0 .31.05l1.72-.6c.06-.02.08-.06.06-.11-.05-.14-.16-.21-.34-.2a16.49 16.49 0 0 1-.67.02l-.07-.12c-.03-.05-.01-.07.05-.06.22.04.44.03.64-.03.45-.12.67.54.3.72Z" fill="#FCBB65"/><path d="m28.04 30.57.33.82a.1.1 0 0 1-.02.1.1.1 0 0 1-.1.04l-1.18-.26c-.12-.03-.13-.08-.03-.16l.76-.6a.15.15 0 0 1 .24.06Z" fill="#FEFEFE"/><path d="m17.45 30.85-.84.35a.1.1 0 0 0-.05.13.1.1 0 0 0 .12.05l.84-.35a.1.1 0 0 0 .05-.12.1.1 0 0 0-.12-.06Z" fill="#FCBB65"/><path d="M23.5 31.58c.16-.01.28-.1.27-.18 0-.08-.14-.14-.3-.12-.15.01-.26.1-.25.18 0 .08.13.14.29.12ZM24.17 32.3l.1.18c.03.04.02.06-.03.06-.22 0-.43-.08-.62-.22-.06-.05-.06-.09.02-.12.2-.07.34-.16.42-.26a.2.2 0 0 0 .03-.17l-.04-.19c-.02-.09.01-.12.1-.1.16.05.3.12.43.23.05.05.05.1-.02.12a.45.45 0 0 1-.15.04.29.29 0 0 0-.24.42Z" fill="#FFFFD4"/><path d="M44.48 31.79c-.06.75-.22 1.5-.5 2.21-.06.2-.2.38-.37.55a2.64 2.64 0 0 0-.84 1.94c0 .19-.14.37-.4.54-.47.3-.26.43-.48.79a10.72 10.72 0 0 1-2.82 3.09l-.81.63c-.05.05-.1.07-.15.07a.34.34 0 0 1-.15-.05 16.96 16.96 0 0 0 3.5-3.44c.17-.21.17-.72.42-1.08.15-.2.1-.31-.16-.32-.58-.01-.83.2-.77.63 0 .05-.02.07-.06.08h-.05c-.03-.02-.04-.04-.06-.08a.67.67 0 0 1 .15-.63c.4-.26.77-.28 1.1-.06.16.1.28.08.39-.07l.04-.05c.11-.17.1-.31-.06-.44-.21-.17-.35-.4-.4-.7-.02-.07.01-.1.08-.08l.11.03a.07.07 0 0 1 .05.05c.03.23.1.37.21.43.06.03.1.02.1-.04a2.53 2.53 0 0 1 .7-1.25v-.04a.08.08 0 0 0-.07-.05l-.22-.05a.09.09 0 0 1-.04-.03.08.08 0 0 1-.02-.05v-.06c0-.03 0-.05.02-.07a.08.08 0 0 1 .06-.03h.57a.16.16 0 0 0 .15-.1l.78-2.27Z" fill="#FCBB65"/><path d="M25.1 32.49c.14.05.27.06.3 0 .01-.04-.08-.13-.22-.19-.13-.05-.26-.06-.28 0-.02.04.07.13.2.19Z" fill="#FFFFD4"/><path d="M33.06 32.3c-.27.82-.07 1.5.6 2.04l.65.52a.74.74 0 0 1 .28.65l-.03.3c-.03.27-.15.33-.38.17a4.32 4.32 0 0 0-2.93-.74l.74-2.55 1.07-.4Z" fill="#87C9BC"/><path d="M16.27 34.12a.95.95 0 0 1-.33-.56c-.05-.22.03-.35.25-.4l.08-.02c.21-.05.36.03.44.24.1.26.32.37.66.32.27-.04.3.02.06.16-.2.12-.4.12-.62 0-.15-.1-.26-.35-.42-.5-.04-.03-.1-.04-.15 0a.2.2 0 0 0-.07.07c-.02.03-.01.07.01.13.78 1.61 2.77.27 1.85-.92a.18.18 0 0 0-.2-.07l-.1.02c-.09.02-.1.07-.04.14.08.1.13.18.14.26.01.07-.02.1-.08.06-.35-.19-.36-.42-.03-.7.14-.03.27-.03.38.08.6.64.46 1.53-.3 1.94-.49.26-1 .18-1.53-.25Z" fill="#FCBB65"/><path d="M19.2 32.37c.07-.03.13-.04.17-.03a.1.1 0 0 1 .07.09.1.1 0 0 1-.06.1c-.06.03-.13.01-.19-.05a.07.07 0 0 1-.02-.06.07.07 0 0 1 .03-.05Z" fill="#696868"/><path d="M26.44 33.48c0-.08.02-.18.08-.3a.11.11 0 0 0-.04-.14.4.4 0 0 0-.25-.05.2.2 0 0 1-.14-.04l-.38-.27c-.07-.05-.07-.08.01-.1.1-.02.17-.03.21-.01.62.24 1.22.42 1.8.56.1.03.1.06 0 .11l-.22.11a.21.21 0 0 0-.11.12c-.08.2 0 .34.23.4.06.02.08.06.05.13-.02.04-.04.06-.08.06a6 6 0 0 1-2.08-.52c-.08-.04-.08-.07 0-.1a.6.6 0 0 0 .37-.4.08.08 0 0 1 .05-.06.09.09 0 0 1 .08.01l.04.03c.03.02.04.05.02.1a.77.77 0 0 0-.1.26c0 .08.03.12.1.14l.25.05c.08.02.12-.01.11-.1Z" fill="#FFF9BD"/><path d="M25 32.92c.14.06.28.07.3.02.03-.06-.07-.15-.22-.21-.15-.07-.3-.08-.31-.02-.03.05.08.15.22.2Z" fill="#FFFFD4"/><path d="m32 32.69-.75 2.55-1.87.65a4.73 4.73 0 0 1 .74-2.97l1.87-.23Z" fill="#88D7CA"/><path d="M15.94 34.37c.47.99.9 1.71 1.26 2.18.16.2.53.54 1.1 1.01.06.1.16.11.3.04.09.05.2.18.3.38.06.08.1.2.1.34l-.1.1c-.05.05-.1.04-.14 0-.57-.6-.95-1.02-1.61-1.43-.17-.1-.38-.3-.42-.47a1.7 1.7 0 0 0-.5-.84.25.25 0 0 0-.15-.07.92.92 0 0 1-.54-.19c-.15-.12-.12-.17.06-.15l.31.03c.05 0 .07-.02.05-.06l-.89-2.17c-.03-.09 0-.13.09-.12l.07.01a.16.16 0 0 1 .14.13c.08.49.27.92.57 1.28Z" fill="#FFF9BD"/><path d="M19.08 33.1h-.02a.13.13 0 0 0-.17.08l-.19.47c-.03.07 0 .14.08.17s.15 0 .18-.07l.19-.47a.13.13 0 0 0-.07-.17Z" fill="#696868"/><path d="m27.09 33.24-.21-.05a.15.15 0 0 0-.19.12l-.04.21c-.02.09.04.17.12.18l.21.05c.09.01.17-.04.18-.12l.05-.21a.15.15 0 0 0-.12-.18Z" fill="#87C9BC"/><path d="M40.08 33.31c.04-.06.12-.08.25-.05.02 0 .04.02.06.05a.15.15 0 0 1 .01.18c-.19.29-.43.44-.73.46-.07 0-.1-.03-.1-.1 0-.08.04-.14.13-.18a.86.86 0 0 0 .38-.36ZM40.66 34.48c-.09.13-.1.28-.03.32.06.05.19-.03.28-.16.09-.14.1-.29.03-.33-.06-.05-.19.03-.28.17ZM39.8 35.95c-.35.37-.71.7-1.08.96-.23.18-.3.13-.19-.15l.1-.1a.45.45 0 0 1 .1-.1c.45-.26.7-.56.76-.9l.62-1.25a.07.07 0 0 1 .07-.04.07.07 0 0 1 .07.05l.02.11a.16.16 0 0 1-.03.14c-.31.4-.46.84-.44 1.28Z" fill="#FCBB65"/><path d="m37.96 35.03 1.53.62c-.06.35-.31.65-.76.91a.45.45 0 0 0-.1.1.82.82 0 0 0-.1.1c-.1.28-.04.33.2.15.36-.27.72-.59 1.07-.96l1.13.77c-.16.18-.2.39-.15.63.02.04.03.06.06.08h.05c.04 0 .07-.03.06-.08-.06-.44.2-.64.77-.63.25 0 .3.11.16.32-.25.36-.25.87-.42 1.08-1 1.3-2.16 2.45-3.5 3.44l-.98.6-.38.2c-.33.3-.67.32-1 .09a.12.12 0 0 0-.14 0l-.05.02a.1.1 0 0 0-.05.1c0 .02 0 .03.02.04l.08.2-.43.19a.4.4 0 0 1-.21-.18.17.17 0 0 0-.15-.08.27.27 0 0 0-.2.1.18.18 0 0 0-.05.15l.06.35c0 .03 0 .06-.02.08a.14.14 0 0 1-.05.06l-.38.2c-1.77.68-3.6 1.04-5.47 1.1a8.39 8.39 0 0 1 .9-2.3.14.14 0 0 0-.05-.11 4.69 4.69 0 0 0-2.12-.46v-.02l-.04-.07a.08.08 0 0 1 .01-.07.07.07 0 0 1 .06-.03c.31-.01 1.07-.07 2.29-.18a8.67 8.67 0 0 0 3.72-1.15c.16.2.35.36.57.44.56.2.72-.34.86-.72.03-.1.04-.16.03-.19a.4.4 0 0 0-.15-.17.1.1 0 0 1 0-.18l1.2-.69a.2.2 0 0 0 .08-.25l-.6-1.46c-.02-.06 0-.1.05-.12a7.63 7.63 0 0 0 2.59-2.02Z" fill="#FFE8AB"/><path d="M34.17 35.65c.1.08.24.08.29 0 .05-.07 0-.2-.1-.27-.11-.07-.24-.07-.3 0-.05.07 0 .2.1.27Z"/><path d="M34.64 39.37c-.46-.5-1.16-1.14-1.6-.11-.03.08 0 .12.08.14l.06.02a.12.12 0 0 0 .13-.06l.02-.05c.04-.37.33-.39.57-.2.2.17.3.34.3.5 0 .34-.09.37-.24.09a.9.9 0 0 1-.03-.17.22.22 0 0 0-.06-.14c-.04-.04-.1-.05-.16-.03a.13.13 0 0 0-.1.12c-.04.44.2.76.76.98-.31.2-.6.12-.87-.23a.33.33 0 0 0-.39-.1 14.48 14.48 0 0 1-5.75 1.04.18.18 0 0 1-.17-.17c-.04-2.7 1.35-5.39 4.36-5.55 2.02-.1 3.48 1.2 4.02 3.12.01.05 0 .1-.05.13l-.88.67Z" fill="#FFF9BD"/><path d="M28.25 35.6a.12.12 0 0 1 .08-.05.12.12 0 0 1 .1.02l.04.03a.05.05 0 0 1 .02.06c-.53 1.1-1.74 1.84-2.8.89a.07.07 0 0 1 .01-.12c.07-.04.14-.04.2-.01.95.56 1.74.3 2.35-.81Z"/><path d="M27.02 36.15c.14-.08.2-.23.15-.32-.06-.1-.22-.1-.36-.03-.14.09-.2.23-.15.33.06.1.22.1.36.02Z"/><path d="M35.85 37.1c.32-.28.65-.47 1-.58a.38.38 0 0 1 .22-.01c.07.02.12.06.14.11a.4.4 0 0 1 .02.16c0 .07-.03.1-.1.1-.34 0-.64.09-.9.29a.33.33 0 0 1-.23.06h-.1a.07.07 0 0 1-.07-.06.07.07 0 0 1 .02-.07Z" fill="#FCBB65"/><path d="M18.6 37.6c-.14.07-.24.06-.3-.04v-.54c-.01-.06.02-.09.09-.08h.12c.06.01.09.05.09.1v.56Z"/><path d="M34.64 39.37a.7.7 0 0 0-.2.18.2.2 0 0 0-.04.16c.04.28.03.53-.03.75-.55-.22-.8-.54-.76-.98.01-.07.04-.1.1-.12.06-.02.12-.01.16.03.03.03.06.08.06.14l.03.17c.15.28.24.25.24-.09 0-.16-.1-.33-.3-.5-.24-.19-.53-.17-.57.2a.12.12 0 0 1-.15.1h-.06c-.08-.03-.1-.07-.08-.15.44-1.03 1.14-.4 1.6.11Z" fill="#87C9BC"/><path d="M17.8 40.36c-.13 0-.27.03-.42.1-.05.01-.09.02-.12.01-.08-.02-.1-.07-.05-.14v-.02c.3-.25.61-.27.95-.05.05.03.08.08.08.14.01.2-.01.38-.08.54-.09.2-.16.2-.22-.02a.9.9 0 0 1 .01-.38.15.15 0 0 0-.14-.18Z" fill="#FFF9BD"/><path d="m16.93 40.5 1.24 1.02c.16.14.52.27 1.07.41.28.07.59.34.93.8a.13.13 0 0 0 .14.06c.25-.08.45-.06.62.04.05.03.09.07.12.12.14.25.26.4.35.44a17.6 17.6 0 0 0 7.16 1.4c1.87-.07 3.7-.43 5.47-1.1l.16.1c.04.02.04.06.01.1a17.51 17.51 0 0 1-12.86-.26c-.25-.1-.39-.25-.43-.45-.01-.07-.06-.1-.13-.1h-.42a.46.46 0 0 1-.4-.24 1.53 1.53 0 0 0-1.18-.79.76.76 0 0 1-.28-.08l-.24-.15c-.53-.36-1.03-.75-1.5-1.17-.02-.05-.01-.08.01-.1a.2.2 0 0 1 .16-.05Z"/><path d="M19.33 41.5c.32-.06.57-.18.56-.25-.02-.07-.29-.08-.61-.02-.32.07-.57.18-.56.25.02.08.3.08.61.02Z" fill="#FCBB65"/><path d="M25.34 42.44c.17-.12.15-.17-.06-.15a2.71 2.71 0 0 1-1.21-.14.1.1 0 0 0-.08.09c0 .24.08.46.24.66.04.05.03.08-.03.09a.2.2 0 0 1-.11 0c-.1-.03-.16-.07-.2-.12-.23-.35-.24-.68-.03-.97.04-.05.02-.09-.03-.11l-.32-.13c-.18-.08-.17-.13.02-.16.24-.05.48.06.7.3.47.52 1.16.06 1.74.15.64.1 1.22.2 1.73.31.05.02.08.05.06.1 0 .04-.03.06-.07.06a6.3 6.3 0 0 1-1.81-.21.2.2 0 0 0-.16.15c-.05.28-.21.42-.49.43-.07 0-.1-.03-.06-.1a.68.68 0 0 1 .17-.25Z" fill="#FFFFD4"/><path d="M20.34 42.25c.1 0 .17-.08.17-.15 0-.08-.09-.14-.19-.13-.1 0-.18.07-.17.15 0 .07.09.13.19.13Z" fill="#FCBB65"/><path d="M36.98 42.16c.24.15.14.29-.3.42-.08-.04-.1-.12-.08-.23l.38-.19Z" fill="#292520"/><path d="M36.6 42.35c-.03.11 0 .19.07.23-.05.2-.26.3-.63.33a.69.69 0 0 0-.58-.1.7.7 0 0 0-.08-.2.1.1 0 0 1-.02-.07.1.1 0 0 1 .05-.07l.05-.03c.05-.02.1-.02.14 0 .33.24.67.21 1-.09ZM35.03 43c-.28.14-.33.29-.17.43-.06.22-.28.34-.67.35l-.16-.09.38-.2a.14.14 0 0 0 .07-.14l-.06-.36c0-.06.01-.11.05-.15.05-.07.12-.1.2-.1a.17.17 0 0 1 .15.08c.06.09.13.15.2.18Z" fill="#FCBB65"/><path d="M36.04 42.91c-.5.12-.9.3-1.18.52-.16-.14-.1-.29.17-.43l.43-.18c.2-.06.4-.03.58.09Z"/><defs><linearGradient id="a" x1="28" y1="0" x2="28" y2="56" gradientUnits="userSpaceOnUse"><stop stop-color="#FFF9BD"/><stop offset="1" stop-color="#FFDD9F"/></linearGradient></defs></svg>