<svg width="56" height="56" viewBox="0 0 56 56" xmlns="http://www.w3.org/2000/svg"><rect fill="url(#a)" width="56" height="56" rx="28"/><path d="M34.72 21.6c-1.06-.93-1.66-2.52-.9-3.23.34-.32.68-1.75.73-2.2.04-.32 1.33-.34 1.45 0 .01.04-.44 1.8-.45 1.83l-.83 3.6Z" fill="#D4A47B"/><path d="m34.78 10.67.55 1.22c.04.43-.03.74-.23.95l-2.3-.68c-1.36-.41-2.66.04-3.13 1.39-.13.37-.3.67-.53.92a1 1 0 0 0-.24.58c-.1 1.19-.4 1.8-.92 1.82a1.1 1.1 0 0 1-.36.42c-.15.09-.3.03-.44-.19-.13-.17-.3-.24-.52-.2a.25.25 0 0 1-.3-.27c.07-.42.35-.6.86-.57a.2.2 0 0 0 .18-.1.18.18 0 0 0-.01-.2l-.67-.92c-.17-1.87.72-3.19 2.7-3.94 1.1-.43 1.89.26 2.98-.33.25-.13.4-.25.45-.36a.34.34 0 0 1 .34-.21c.1 0 .18.04.25.1.48.38.92.57 1.34.57Z" fill="#171817"/><path d="M32.8 12.16c-.9-.04-2.67.4-2.58 1.57.02.24 0 .4-.04.47l-.28.42c-.08.14.1.3.55.5.74.29 1.47.4 2.21.33a1.18 1.18 0 0 1 .98.39c.12.13.2.3.23.47.03.17.02.34-.04.5-.17.47-.14 1.1.08 1.89.36-.02.47.13.35.45-.75.7-.6 1.52.46 2.45.09.08.11.24.06.47-.4-.17-.63-.1-.7.23-.85-.85-1.81-1.02-2.88-.51a11.4 11.4 0 0 1-3.7-2.95c.33-.56.48-1.21.48-1.97.52-.03.82-.63.92-1.82a1 1 0 0 1 .24-.58c.23-.25.4-.55.53-.92.47-1.35 1.77-1.8 3.13-1.4Z" fill="#654333"/><path d="m32.8 12.16 2.3.68c.33.32.53.75.6 1.27.01.05.03.09.06.12s.06.05.1.06c.38.1.32 1.03.32 1.03a.9.9 0 0 0-.08-.74.31.31 0 0 0-.55.04c-.3.7-.22 1.36.25 1.97.14.1.08.19-.18.28a.54.54 0 0 1-.43-.03l-.36-.19a.23.23 0 0 0-.32.12.24.24 0 0 0-.02.12c.12 1.08-.07 1.68-.58 1.8a3.17 3.17 0 0 1-.08-1.88.95.95 0 0 0 .04-.5 1.01 1.01 0 0 0-.23-.47 1.18 1.18 0 0 0-.98-.39 4.68 4.68 0 0 1-2.21-.34c-.45-.18-.63-.35-.55-.5l.28-.41c.05-.07.06-.23.04-.47-.09-1.17 1.68-1.61 2.57-1.57Z" fill="#A1775A"/><path d="M36.18 15.32c-.02.42-.14.85-.38 1.27a1.87 1.87 0 0 1-.25-1.97.31.31 0 0 1 .43-.16c.05.03.1.07.12.12a.9.9 0 0 1 .08.74Z" fill="#D4A47B"/><path d="M27.5 18.84a11.4 11.4 0 0 0 3.7 2.95c1.2.75 2.16.92 2.87.5.08-.31.31-.4.71-.22.26.56.63 1.06 1.11 1.5a.64.64 0 0 1 .21.52c-.02.33.1.55.34.67 6.43 3.22 3.88 8.08 6.54 17.08.05.17.06.35.05.52-.13 1.23.97.9.97 1.64H29.48a6.55 6.55 0 0 0-3.24 0h-2.97c-.33-.07-.7-.32-1.1-.75-.45-.48-.65-.53-.6-.14-.45.22-.74.47-.88.77a5.65 5.65 0 0 0-2.68.12H12v-2.45l2.56-3.47.03-.03c1.3-1.37 2.5-2.53 3.58-3.48.62-.55.88-1.21 1.63-1.68.4-.26.81-.67 1.2-1.24.85-1.24 1.8-2.32 2.86-3.23a.3.3 0 0 0 .1-.28.29.29 0 0 0-.19-.23l-.08-.01a.85.85 0 0 0-.73.17l-5.18 4.37c-.25.21-.55.38-.86.49a7.72 7.72 0 0 0-3.82 2.71.2.2 0 0 0 .26.31l3.56-1.97a.2.2 0 0 1 .1-.03c.04 0 .08.02.11.04a.28.28 0 0 1-.01.4 34.34 34.34 0 0 0-4.6 5.45c-.1.15-.2.2-.31.15-.1-.05-.16-.16-.21-.33v-2.61c.23-.4.23-.72 0-.97v-3.6l1.27-2.17a5.17 5.17 0 0 1 6.55-7.2 9.65 9.65 0 0 1 5.58 2.6.5.5 0 0 0 .44.12c.16-.02.33-.16.51-.4a.48.48 0 0 1 .39-.2h1.84a.25.25 0 0 0 .25-.25c0-.04-.01-.09-.03-.12-.16-.31-.49-.48-.99-.51a.87.87 0 0 1-.48-.19c-1.25-.98-2.47-2.23-4-2.05a.52.52 0 0 1-.43-.16c-.65-.68-1.32-.66-2.01.06a.3.3 0 0 1-.4.03.31.31 0 0 1-.07-.4c0-.01.15-.12.46-.32.44-.3.44-1.16.9-1.53.17-.12.37-.19.57-.18.92.05 1.82.38 2.7.98a.14.14 0 0 0 .17 0 .15.15 0 0 0 .05-.17c-.13-.34-.46-.61-.97-.82a5.62 5.62 0 0 1 1.35-1.77c.93-.58 1.55-.24 1.86 1.01Z" fill="#171817"/><path d="m21.45 20.57-5.09 3.65c4.08-1.75 8 .73 9.46 2.2l3.63-1.47c-1.74-1.75-6.06-3.65-8-4.38Z" fill="#4D4D43"/><path d="M34.07 22.3c-.7.4-1.67.24-2.87-.51 1.07-.51 2.02-.34 2.87.5Z" fill="#9A613C"/><path d="m22 26.91-5.3 4.9a.17.17 0 0 1-.24 0l-.15-.15a.05.05 0 0 1 0-.07l4.84-4.78a.3.3 0 0 0-.23-.5 10 10 0 0 0-6.5 3.08.2.2 0 0 1-.25.01.2.2 0 0 1-.06-.26c1.05-1.84 1.58-3.1 2.79-4.02 1.37-1.04 3.06-.8 5.05.72a.7.7 0 0 1 .23.82.7.7 0 0 1-.17.25ZM12 41.55v-1.89c.05.18.12.28.2.33.11.05.21 0 .31-.15a34.34 34.34 0 0 1 4.6-5.46.28.28 0 0 0 .03-.38v-.01a.21.21 0 0 0-.11-.04.2.2 0 0 0-.1.03l-3.57 1.97a.2.2 0 0 1-.25-.04.2.2 0 0 1-.01-.27 7.72 7.72 0 0 1 3.82-2.71c.31-.11.6-.28.86-.5l5.18-4.36a.85.85 0 0 1 .73-.17l.08.01a.28.28 0 0 1 .2.23.3.3 0 0 1-.1.28c-1.07.91-2.02 1.99-2.87 3.23-.39.57-.8.98-1.2 1.24-.75.47-1.01 1.13-1.63 1.68a57.37 57.37 0 0 0-3.61 3.51L12 41.55ZM12 37.05v-.97c.23.25.23.57 0 .97ZM23.27 44H18c.84-.25 1.74-.3 2.68-.12.97 0 1.26-.26.88-.77-.05-.39.15-.34.6.14.4.43.77.68 1.1.75Z" fill="#373029"/><path d="M21.56 43.11c.4.51.1.77-.87.77.14-.3.43-.55.87-.77Z" fill="#9B9782"/><path d="M29.48 44h-3.24a6.55 6.55 0 0 1 3.24 0Z" fill="#373029"/><path d="m29.96 24.95-2.19 1.47 5.1 5.12-4.37 4.38 2.18 2.2 4.37-4.4 6.54 6.6c.58-1.76-.24-4.64-.73-5.86l-3.63-4.39.73-3.65-2.91-2.93v5.12l-5.1-3.66Z" fill="#20251E"/><ellipse cx="1.46" cy="2.19" rx="1.46" ry="2.19" transform="rotate(-14.61 126.55 -89) skewX(-.15)" fill="#B19A73"/><path d="M36.3 31.4c.3 1.2-.08 2.34-.83 2.54-.75.2-1.59-.6-1.88-1.79-.3-1.19.08-2.32.83-2.53.75-.2 1.59.6 1.88 1.79Z" fill="#9DA99F"/><defs><linearGradient id="a" x1="28" y1="0" x2="28" y2="56" gradientUnits="userSpaceOnUse"><stop stop-color="#414139"/><stop offset=".54" stop-color="#6C503A"/><stop offset="1" stop-color="#A55B2A"/></linearGradient></defs></svg>