<svg width="56" height="56" viewBox="0 0 56 56" xmlns="http://www.w3.org/2000/svg"><rect fill="#F0F3FA" width="56" height="56" rx="28"/><path d="M41.66 32.24h.1c.32 0 .58.27.75.67a5 5 0 0 1 .27 1.85c0 .7-.27 1.42-.6 2.02-.33.61-.72 1.12-.99 1.41l-.15.17-.13-.19a4.36 4.36 0 0 1-.66-2.3c0-.56.24-1.27.52-1.92.28-.65.61-1.26.84-1.62l.05-.09Z"/><path fill-rule="evenodd" d="M40.54 11v.87l-4.67 3.78h6.24l.37.98h-.18l-2.12 1.19-.98.54c-.08.05-.16.18-.22.22.29.08.71.15 1.25.43 1.17.61 2.85 1.84 4.73 4.55l.04.1v.11c0 .54-.43.7-.62.76h-.05l-1.61-.32c.32.94.7 2.28.92 3.79.26 1.72.33 3.62-.14 5.2l-.02.1-.1.1c-.22.1-.43-.01-.58-.1-.16-.08-.28-.12-.34-.22l-.02-.1-.7-1.63a19.6 19.6 0 0 0-1.05 1.95 6.08 6.08 0 0 0-.75 2.38c0 1.39.47 2.56.7 2.92l.07.11-.08.11c-1.05 1.67-4.27 5.14-8.76 5.74h-.18l-.04-.22c-.3-1.1-.3-1.58-.3-2.16 0-2.34.92-4.5 2.02-6.39.56-.94 1.16-1.77 1.73-2.6l.05-.1c.55-.8 1.06-1.6 1.45-2.28.15-.26.28-.48.4-.76a42.4 42.4 0 0 1-4.42 6.39 16.35 16.35 0 0 0-2.81 4.65c-.3.78-.5 1.57-.56 2.17-.07.6 0 1.04.17 1.3l.16.21-.26.11a6.3 6.3 0 0 1-1.84.11 15.34 15.34 0 0 1-9.9-3.68c-3.35-2.96-4.47-6.75-4.61-8.33l-.03-.33h.68c-.02-.02-.05.02-.07 0l-.35-.32c-.34-.28-.66-.56-.98-.76a2.37 2.37 0 0 0-1.29-.44c-.1 0-.22.04-.35.11-.18.1-.35.3-.51.44-.18.14-.39.32-.63.32-.26 0-.35-.33-.38-.54-.04-.26-.03-.64.07-.97.1-.34.28-.6.6-.87.33-.26.78-.43 1.38-.43 1.19 0 2.26.59 3.26 1.19h.01c1.03.61 2 1.19 3.02 1.19.5 0 1.05-.23 1.65-.65.24-.17.48-.32.72-.54h-.88l-.06-.11A14.8 14.8 0 0 1 16.63 28a10.69 10.69 0 0 1-1.84-3.58l-.04-.21h.12c1.3-.96 4.48-3.08 6.98-3.9.15-.75.32-1.54.5-2.27l5.3-1.74 4.45-4.33.87.55-.8 1.4a30.3 30.3 0 0 1 3.18-1.62c1.6-.69 3.4-1.2 4.97-1.3h.22ZM19.92 30.16c.33-.3.66-.59 1-.97a33.08 33.08 0 0 0 2.76-3.8l-2.25-.32v2.06l-2.76-.76 1.25 3.8Zm-5.58 3.14c.77 2.29 3.19 6.52 7.82 8.34.36-1.15 1.27-2.4 2.4-3.69a23.3 23.3 0 0 1 4.12-3.68 20.21 20.21 0 0 0 5.45-5.95c.35-.64.54-1.16.54-1.52 0-.75-.36-1.25-.83-1.62a2.68 2.68 0 0 0-1.42-.65c-.18 0-.51.15-.94.33-.43.17-.92.4-1.42.75a5.79 5.79 0 0 0-2.25 3.14c.14.11.23.3.29.44.08.18.11.3.12.43v.1l-.3.33 1.67.87-.88 1.08h-.1c-.23 0-1.08.16-2.35.87a8.8 8.8 0 0 1-2.34.86c-.33.07-.62.12-.84.11-.1 0-.2.04-.3 0-.08-.03-.2-.17-.22-.32-.03-.19.01-.33.04-.44 0-.02 0 .02.01 0a.48.48 0 0 0-.03-.32l-.46-.87a8.7 8.7 0 0 1-1.2 1.09 6.13 6.13 0 0 1-3.56 1.19 5.32 5.32 0 0 1-3.02-.87Zm8.18-1.84.49-.22-.2-.1c-.08.11-.18.19-.3.32Zm1.65-6.82v-.54c.1-.04.22-.17.35-.22h.1l-.45.76Z"/><path d="m30.93 39.1.09.02c.53.1.5.77.45 1.2-.06.5-.2 1.02-.2 1.53a4.52 4.52 0 0 0 .15 1.14c.06.25.11.5.11.76 0 .7-.3 1.24-1.04 1.24-.36 0-.72 0-.96-.3-.31-.38-.3-1.01-.3-1.48a5.73 5.73 0 0 1 1.64-4.05l.06-.06Z"/><path d="M22.03 20.42c-2.48.78-5.73 2.92-7.04 3.9.62 2.44 2.89 4.9 3.94 5.81h.75l-1.33-4.06 2.87.73v-2.05l2.75.46v-1.3c.21-.1.73-.33 1.07-.33-2.54 4.28-5.49 8.2-7.68 8.2-2.19 0-4.04-2.43-6.29-2.43-2.24 0-1.95 2.43-1.67 2.43.29 0 .89-.83 1.49-.83 2.04 0 3.13 3 6.47 3 2.67 0 4.72-2.13 5.4-3.2l.66.52-1.13.51.47.87c.19.33-.05.51 0 .84.06.32 1.78.05 3.4-.84a5.86 5.86 0 0 1 2.45-.87l.65-.83-1.7-.82.45-.48c0-.2-.1-.64-.44-.79.73-3.11 3.99-4.52 4.85-4.52.86 0 2.45.79 2.45 2.46 0 1.68-3.31 5.77-6.08 7.64-2.76 1.86-5.92 5.22-6.5 7.5-5.13-1.91-7.65-6.83-8.27-9.05h-.89a13.88 13.88 0 0 0 4.55 8.29c4.12 3.65 10.25 3.92 11.53 3.46-.86-1.3.76-5.5 3.21-8.3a41.06 41.06 0 0 0 5.48-8.56c-.06.43-.41 1.93-1.12 3.17-1.64 2.86-5.22 6.65-5.22 11.2 0 .57 0 1.08.29 2.16 4.4-.58 7.57-4.01 8.6-5.65a6.24 6.24 0 0 1-.72-2.98c0-1.43 1.37-3.75 2.06-4.73l.84 1.94c.1.15.38.4.67.27.9-3.05-.23-7.46-.91-9.28l1.93.46a.66.66 0 0 0 .47-.62c-3.73-5.36-6.6-4.93-6.24-5.2a89.1 89.1 0 0 1 3.66-2.05l-.24-.57h-6.7l5.06-4.12v-.62c-3.05.2-7.1 2.32-8.74 3.36l1.1-1.92-.56-.33-4.38 4.2-5.22 1.73c-.09.33-.3 1.24-.5 2.22Z" fill="#FFFA7D"/><path d="M29.12 31.13a86.8 86.8 0 0 0-6.12-.56l-.55.3.18.08c.05-.07.1-.13.13-.2l.66.52-.08.03 1.15.57-1.67 1.18-.02.09c-.03.1-.06.21-.04.35.06.32 1.78.05 3.4-.84a6.29 6.29 0 0 1 2.38-.86l.15-.11.43-.55Z"/><path d="m42.48 24.14-1.48.88c.12 1.19.41 3.8.62 4.76.16.72 1.01 2.15 1.72 3.24.79-2.9-.18-6.95-.86-8.88Z" fill="#826730"/><path d="m13.95 32.9.08.02v-.03h-.08Zm8.9-2.07 2.29-3.08 2.2-4.22h-.6l-3.58 5.28c-.98 1.33-3.44 4-5.48 4-1.47 0-2.92-.86-4.16-1.6-.92-.55-1.72-1.02-2.32-1.02-.69 0-1.41.57-1.98 1.2.03.23.1.4.18.4.12 0 .29-.15.49-.31.29-.24.65-.53 1-.53.9 0 1.6.57 2.4 1.22 1.03.83 2.2 1.78 4.07 1.78 2.67 0 4.72-2.13 5.4-3.2l.1.08Z"/><path d="M43.05 33.2c-.29-3.99-1.46-4.78-2.27-5.34-.09-1.29-.3-2.42-.44-3.24-.1-.53-.17-.92-.17-1.14V22.1c-.88-.8-2.73-2.46-3.1-2.63-.34-.15-.5-.5-.67-.87l-.22-.46c-.65-.36-2.62-.15-3.52 0 .44.24 1.65.94 2.94 1.84 1.62 1.14 2.64 4.17 2.7 6.47 0 .65-.25 1.47-.63 2.33-.18.63-.48 1.44-.9 2.17-.39.69-.9 1.43-1.44 2.23-1.71 2.5-3.77 5.52-3.77 8.97 0 .57 0 1.08.29 2.16 4.4-.58 7.57-4.01 8.6-5.65a6.25 6.25 0 0 1-.72-2.98c0-1.43 1.37-3.75 2.06-4.73l.84 1.94c.07.1.23.26.42.3Z" fill="url(#ak2k5v4d2)"/><path d="M22.4 41.57c.37.4.78.76 1.23.99.31-1.98 2.8-4.29 5.23-6.52.6-.55 1.18-1.1 1.73-1.63l.02-.01c2.79-2.7 5.9-5.73 5.9-8.33 0-2.07-1.78-3.8-2.68-4.4l-2.97-1.39c-.32.16-1.17.65-2.07 1.38-2.59-.69-5.6.38-6.78 1l1.62 1.25.42-.04c.25-.12.69-.29.99-.29l-.12.2 2.28-.22-2.11 4.25 2.5.97c.76-3.05 3.98-4.44 4.83-4.44.86 0 2.45.79 2.45 2.46 0 1.68-3.31 5.77-6.08 7.64-2.62 1.77-5.59 4.87-6.38 7.13Z" fill="url(#bk2k5v4d2)"/><path d="M44.7 24.05c-1.93-1.83-3.9-2.01-4.66-1.87.7.49 2.02 1.43 2.35 1.71l1.93.45a.7.7 0 0 0 .38-.3Z"/><path d="M42.15 16.33h-.1c-2.17.11-5.38 1.54-5.4 1.65l1.4.79.5-.17c-.04-.02-.04-.04 0-.08.3-.21 2.56-1.46 3.66-2.05l-.06-.14Z" fill="#141414"/><path d="M40.33 11.57c-2.39.98-6.33 2.84-7.44 4.22.31.2.86.5 1.1.62l1.38-.51h-.1l5.06-4.12v-.21Z" fill="#0C0C0C"/><path d="m32.46 12.46-1.7 2.57.85-.55 1.07-1.88-.22-.14Z"/><path d="M23.97 25.2a39.22 39.22 0 0 0-1.88-2.62c-.97.14-2.64.81-2.72.95.26.5.93.93 1.86 1.23v-.01l2.74.46v-.02Z" fill="url(#ck2k5v4d2)"/><path d="m21.12 26.78-2.2-2.98c-.58.33-1.8 1-1.9 1.08.19.45.7.88 1.35 1.26l-.02-.07 2.77.7Z" fill="url(#dk2k5v4d2)"/><path d="M19.28 30.13c-1.98-3.13-2.18-4.9-2.02-5.4l-1.95-.65-.32.24c.62 2.44 2.89 4.9 3.94 5.81h.35Z" fill="#101010"/><path d="m22.04 20.36.8.5.32-1.8-.68-.68c-.1.41-.28 1.17-.44 1.98Z" fill="#212121"/><path d="M19.5 14.14c2.35-1.58 4.53-2.08 5.33-2.08.63 0 1.03.18 1.25.44.21.24.24.53.2.72 0 .17-.15.27-.26.33-.12.07-.3.13-.5.2l-.4.12a16.65 16.65 0 0 0-6.88 3.77 13.74 13.74 0 0 0-3.79 5.45l-.12.28c-.1.22-.23.65-.51.7a.73.73 0 0 1-.36 0c-.44-.16-.33-.86-.33-1.21v-.04l.01-.03c1.48-4.37 4-7.06 6.36-8.65Z"/><path d="M24.83 12.24c1.2 0 1.34.7 1.28.95 0 .57-3.68.46-8 4.3-3.5 3.15-3.85 6.31-4.32 6.4-.47.07-.47-.14-.47-1.04 2.92-8.66 10-10.6 11.5-10.6Z" fill="#FFFF72"/><path d="M26.02 12.74c.1.17.11.35.09.45 0 .18-.38.3-1.04.5-1.39.4-4.02 1.2-6.95 3.8a14.24 14.24 0 0 0-3.84 5.53c-.22.52-.35.84-.5.86a.6.6 0 0 1-.25 0c1.1-3.47 3.16-6.18 6.26-8.6a13.43 13.43 0 0 1 6.23-2.54Z" fill="#393939"/><path d="M40.43 35.87c0-1.04.89-2.72 1.33-3.44.42 0 .84.7.84 2.33 0 1.3-1.03 2.74-1.54 3.3-.21-.3-.63-1.15-.63-2.19Z" fill="url(#ek2k5v4d2)"/><path d="M29.42 43.2c0-1.99 1.04-3.42 1.57-3.9.67.14.1 1.66.1 2.55 0 .9.26 1.35.26 1.9 0 .54-.1 1.05-.86 1.05s-1.07-.08-1.07-1.6Z" fill="#FFFD81"/><path d="M40.24 39c-.96-.34-2.32-.78-2.65-.75-.18.02-.5.52-.9 1.15-.74 1.13-1.75 2.7-2.7 2.7-1.5 0-.16-3.8.57-5.15a34.78 34.78 0 0 0 1.7-4.25h-.6l-.33.48c-1.71 2.5-3.77 5.52-3.77 8.97 0 .57 0 1.08.29 2.16 4.12-.54 7.17-3.59 8.39-5.32Z" fill="#373737"/><path d="M30.72 39.59c-.55 1.32-1.05 3.6.4 4.75l.1.1c-.1.21-.33.36-.73.36-.76 0-1.07-.08-1.07-1.6a5.7 5.7 0 0 1 1.3-3.61Z" fill="#212121"/><path d="M28.38 17.6c-1.54 0-5.1 1.55-5.17 1.65.22 0 .68.12.68.6s-.73.3-1.1.16c-.03.2.1.6.8.6.72 0 3.09-1.54 4.18-2.3l3.27 1.7.15-1.32a4.86 4.86 0 0 0-2.81-1.09Z" fill="url(#fk2k5v4d2)"/><path d="M29.04 44.69a40.05 40.05 0 0 1-1.74-1.84c-.41-.46-.8-.88-1.07-1.16l-3.45 1.46h-.02c-.11-.04-.6-.19-3.48-1.73-2.87-1.54-5.14-6.16-5.85-8.53h-.3a13.88 13.88 0 0 0 4.55 8.29c3.96 3.5 9.77 3.9 11.36 3.51Z"/><path d="m37.69 28.72.9-2.02h-1.72c0 1.51-2.48 5.46-6.87 10.04-3.5 3.66-3.95 4.91-3.73 5.08l2.55 2.91c.16-.02.29-.05.39-.1-.86-1.29.76-5.5 3.21-8.3a41.06 41.06 0 0 0 5.48-8.55c-.02.17-.1.51-.21.94Z" fill="url(#gk2k5v4d2)"/><defs><linearGradient id="ak2k5v4d2" x1="37.31" y1="17.94" x2="37.31" y2="44.31" gradientUnits="userSpaceOnUse"><stop stop-color="#616161"/><stop offset=".3" stop-color="#1A1A1A"/><stop offset=".59" stop-color="#0E0E0E"/><stop offset=".71" stop-color="#815C27"/><stop offset=".78" stop-color="#8D6C31"/><stop offset=".9" stop-color="#FFE353"/></linearGradient><linearGradient id="bk2k5v4d2" x1="30.92" y1="21.5" x2="21.45" y2="41.59" gradientUnits="userSpaceOnUse"><stop stop-color="#602A14"/><stop offset=".18" stop-color="#141414"/><stop offset=".49" stop-color="#9D7739"/><stop offset=".89" stop-color="#333"/></linearGradient><linearGradient id="ck2k5v4d2" x1="20.37" y1="22.94" x2="23.39" y2="25.83" gradientUnits="userSpaceOnUse"><stop stop-color="#C18E59"/><stop offset="1" stop-color="#212121"/></linearGradient><linearGradient id="dk2k5v4d2" x1="17.91" y1="24.21" x2="21.21" y2="26.69" gradientUnits="userSpaceOnUse"><stop stop-color="#D1995E"/><stop offset="1" stop-color="#212121"/></linearGradient><linearGradient id="ek2k5v4d2" x1="43.11" y1="34.6" x2="40.67" y2="37.19" gradientUnits="userSpaceOnUse"><stop stop-color="#FFBC4A"/><stop offset="1" stop-color="#1F1F1F"/></linearGradient><linearGradient id="fk2k5v4d2" x1="30.91" y1="18.79" x2="23.56" y2="19.8" gradientUnits="userSpaceOnUse"><stop stop-color="#CA9B43"/><stop offset="1" stop-color="#373239"/></linearGradient><linearGradient id="gk2k5v4d2" x1="38.6" y1="26.7" x2="29.14" y2="45.18" gradientUnits="userSpaceOnUse"><stop stop-color="#FFDF7D"/><stop offset=".25" stop-color="#0E0E0E"/><stop offset=".57" stop-color="#232323"/><stop offset="1" stop-color="#5C4614"/></linearGradient></defs></svg>