<svg width="56" height="56" viewBox="0 0 56 56" xmlns="http://www.w3.org/2000/svg"><rect fill="#EF3124" width="56" height="56" rx="28"/><path d="M13.68 28.4c.49-2.55 2.2-4.2 3.1-4.3l.95 3.5.81 5.38-4.86-4.58Z" fill="#D60A23"/><path d="m17.17 23.55 1.07 3.95 1.03 6.87-6.15-5.8.05-.27a7.5 7.5 0 0 1 1.5-3.28c.32-.4.67-.73 1.01-.97.33-.24.7-.41 1.05-.45l.44-.05Zm-2.92 4.68 3.56 3.36-.59-3.9-.79-2.93-.14.1c-.25.17-.53.43-.8.77a6.47 6.47 0 0 0-1.24 2.6Z"/><path d="M41.31 20.23c-.59 3.28-1.84 3.96-2.32 4.38l-2.2 5.31 1.19 3.12c4.22-2.67 5.04-8.6 4.22-12.83-.05-.25-.34-.4-.6-.31a.44.44 0 0 0-.29.33Z" fill="#D60A23"/><path d="M41.75 20.67a8.1 8.1 0 0 1-1.21 3.1 5 5 0 0 1-1.12 1.14l-2.07 5.02.88 2.32a9.41 9.41 0 0 0 3.25-5.17c.57-2.13.6-4.44.27-6.41Zm.95-.55c.43 2.18.43 4.79-.22 7.21-.65 2.43-1.97 4.7-4.22 6.13l-.54.35-1.48-3.9 2.32-5.6.09-.08.19-.15c.25-.2.53-.42.84-.87.4-.56.84-1.48 1.12-3.06.06-.33.3-.6.63-.72.54-.19 1.16.12 1.27.7Z"/><path d="M18.1 20.67c1.69-3.02 5.04-6.17 9.9-6.17 4.85 0 8.13 3.15 9.82 6.17 2.33 4.15 1.15 8.7-.35 10.11l-5.7 4.65-8.03.96-5.93-5.6c-1.5-1.43-2.04-5.97.28-10.12Z" fill="#D60A23"/><path d="M17.64 20.43C19.38 17.31 22.89 14 28 14c5.11 0 8.53 3.32 10.28 6.43a10.75 10.75 0 0 1 1.31 6.37c-.2 1.9-.89 3.52-1.76 4.34v.01l-5.84 4.76-8.44 1-6.1-5.77c-.9-.85-1.41-2.5-1.45-4.38-.03-1.91.43-4.17 1.64-6.33ZM28 15c-4.6 0-7.81 2.98-9.45 5.91-1.12 2-1.55 4.08-1.51 5.83.03 1.78.53 3.11 1.13 3.69l5.75 5.43 7.63-.9 5.57-4.55c.63-.6 1.26-1.95 1.44-3.7a9.78 9.78 0 0 0-1.2-5.8C35.73 17.98 32.6 15 28 15Z"/><path d="M27.92 26.49c-6.58 0-8.67 4.13-8.87 6.36H36.9c-.2-2.23-2.26-6.36-8.98-6.36Z" fill="#B60005"/><ellipse cx="27.82" cy="43.61" rx="9.82" ry="2.39" fill="#C31D1C"/><path d="M27.89 43.42c-13.8 0-15.02-11.24-14.17-15.38l4.18 3.76 1.25-2.93 4.9 4.24 3.84-3.76 3.85 3.76 4.89-4.24 1.25 2.93 4.18-3.75c.84 4.13-.37 15.37-14.17 15.37Z" fill="#FFF100"/><path d="M32.92 42.82c9.07-2.37 9.87-11.2 9.14-14.77l-1.18 1.06a21.5 21.5 0 0 1-7.96 13.71ZM24.77 32.4l-.73.7-4.9-4.23-1.24 2.93-4.18-3.75c-.77 3.74.15 13.28 10.53 15.08-2.27-4.19-.96-8.34.52-10.74Z" fill="#FDD000"/><path d="m17.73 31.65-4.01-3.6c-.56 2.72-.22 8.52 4.01 12.17v-8.57Z" fill="#FABE00"/><path d="M24.78 13.3a6.47 6.47 0 0 0 1.86 1.31c1 0 3.02.08 2.97 0-.07-.1-.24-.41.24-.6.47-.2 1.89-1.5.9-2.14-.97-.63-1.82.8-2.02 1.05-.16.2-.2-.02-.2-.16.1-.94-.03-1.56-.23-1.97-.25-.5-.88-1.01-1.5-.69a.94.94 0 0 0-.5.88c.04.7.71 1.72.5 1.78-.13.05-.56-.26-.95-.47-.4-.22-.78-.27-1.07.16a.74.74 0 0 0 0 .86Z" fill="#030000"/><path d="M27.96 28.1c-1.49-.45-2.35-1.99-2.6-2.7h5.2c-.25.71-1.12 2.25-2.6 2.7Z" fill="#F3A000"/><path d="M25.14 25.25h5.63l-.07.2c-.13.37-.41.95-.86 1.5a3.91 3.91 0 0 1-1.84 1.3l-.04.02-.05-.02a3.91 3.91 0 0 1-1.84-1.3 5.24 5.24 0 0 1-.86-1.5l-.07-.2Zm.44.3c.14.34.39.78.73 1.2.42.51.97.98 1.65 1.2a3.63 3.63 0 0 0 1.64-1.2c.34-.42.59-.86.73-1.2h-4.75Z"/><path d="M25.12 24.22c-2.88-.08-2.52-3.34-1.58-3.75l4.45 1.07v1.27l-2.05 1.41h-.82Z" fill="#fff"/><path d="m23.51 20.2 4.74 1.14v1.6l-2.22 1.53h-.92a2.65 2.65 0 0 1-1.76-.63c-.4-.37-.62-.85-.7-1.33-.09-.48-.04-.97.09-1.37.13-.39.36-.75.69-.9l.08-.04Zm.07.54c-.12.08-.25.27-.35.55-.1.33-.15.74-.08 1.14.07.4.25.77.55 1.05.3.27.76.48 1.42.5h.74l1.87-1.3v-.95l-4.15-1Z"/><ellipse cx="26.24" cy="21.93" rx=".81" ry=".76" fill="#030000"/><path d="M30.83 24.22c2.83-.08 2.48-3.34 1.55-3.75L28 21.54v1.27l2.02 1.41h.82Z" fill="#fff"/><path d="m32.41 20.2-4.68 1.14v1.6l2.2 1.53h.9a2.6 2.6 0 0 0 1.74-.63c.4-.37.62-.85.7-1.33.08-.48.04-.96-.1-1.37-.12-.38-.35-.75-.68-.9l-.08-.04Zm-.07.54c.12.08.25.27.34.55.1.33.15.74.08 1.14-.07.4-.24.77-.54 1.05-.3.28-.75.48-1.4.5h-.73l-1.84-1.3v-.95l4.1-1Z"/><ellipse rx=".81" ry=".76" transform="matrix(-1 0 0 1 29.74 21.93)" fill="#030000"/><path d="m21.48 20.02.64-1.94 5.9 2.26 5.94-2.26.44 1.94-6.38 1.69-6.54-1.69Z" fill="#030000"/><path d="M27.99 22.7a8.89 8.89 0 0 0-2.97 2.58s2.35.85 2.97.85c.62 0 2.97-.85 2.97-.85a8.88 8.88 0 0 0-2.97-2.58Z" fill="#F8BF00"/><path d="m27.99 22.52.08.05a9.03 9.03 0 0 1 3.02 2.63l.1.15-.18.07-.05-.14.05.14h-.02l-.08.03a38.25 38.25 0 0 1-2.15.7c-.3.08-.6.13-.77.13-.18 0-.46-.05-.77-.13a19.3 19.3 0 0 1-2.15-.7l-.08-.02-.02-.01.05-.14-.05.14-.18-.07.1-.15a9.03 9.03 0 0 1 3.02-2.63l.08-.05Zm-2.73 2.68a41.94 41.94 0 0 0 2.04.66c.31.08.56.12.69.12.13 0 .38-.04.69-.12a19 19 0 0 0 2.04-.66A9.05 9.05 0 0 0 28 22.87a9.05 9.05 0 0 0-2.73 2.33Z"/><path d="M34.54 38.78c-.68 1.43-2.02 2.24-3 1.83-.97-.42-1.2-1.9-.53-3.33.68-1.42 2.02-2.24 3-1.82.97.41 1.21 1.9.53 3.32Z" fill="#fff"/><path d="M13.56 27.57a.53.53 0 0 1 .5.1l3.65 3.27.96-2.26c.06-.15.2-.26.36-.3.17-.03.34.01.46.12l4.53 3.92 3.5-3.42a.53.53 0 0 1 .74 0l3.5 3.42 4.52-3.92c.13-.1.3-.15.46-.11.17.03.3.14.37.3l.96 2.25 3.64-3.26a.53.53 0 0 1 .51-.11c.18.06.31.2.35.38.44 2.16.37 6.14-1.6 9.61C38.98 41.08 35.07 44 28 44c-7.08 0-11.04-2.92-13.09-6.43a14.66 14.66 0 0 1-1.7-9.62.5.5 0 0 1 .35-.38Zm.53 1.5c-.2 2.08.1 5.23 1.73 8C17.67 40.27 21.27 43 28 43c6.72 0 10.27-2.74 12.07-5.92a14.01 14.01 0 0 0 1.62-8.02l-3.46 3.1a.53.53 0 0 1-.46.13.51.51 0 0 1-.37-.3l-.97-2.27-4.35 3.76a.53.53 0 0 1-.71-.02l-3.48-3.4-3.48 3.4c-.2.19-.5.2-.71.02l-4.35-3.76-.97 2.27a.51.51 0 0 1-.37.3.53.53 0 0 1-.46-.12l-3.46-3.1Z"/></svg>