<svg width="56" height="56" viewBox="0 0 56 56" xmlns="http://www.w3.org/2000/svg"><rect fill="#F1A23F" width="56" height="56" rx="28"/><path d="M24.74 11h3.88v4.9h1.05v-1.08h1.41v-3.1h3.52v6.73h2.47V21h1.23v2.55h1.23v6.36H38.3V35h-1.23v4.9H34.6v1.28h-2.46v1.27h-3.52v-1.27H27.2v2.55h-1.06V45h-3.52v-2.55h1.06v-2.54H21.22v2.54h-.88v1.28h-4.05v-2.55h1.4v-2.54H14v-2.55h1.23V35h3.52v-1.45h1.41v-4.91h1.06v-5.1h1.4v-3.63h1.07v-1.46h-3.53v-3.63h4.58V11Zm7.4 10h-3.52v-1.1H27.2V21h-1.06v5.1h-1.4V31h-1.06v4h-1.06v1.1h2.11v1.26h6.34V36.1h2.3v-3.64h1.22v-3.81h1.24v-3.82H34.6v-2.55h-2.46V21Z" fill="#fff"/><path d="M31.08 12.27h-2.46V15.91h1.05v-1.1h1.41v-2.54Zm-3.87 7.64h1.4V21h-1.4v-1.1Zm8.63-6.36H34.6v4.9h2.47V21h2.46v-2.55h-2.46v-3.63h-1.23v-1.27ZM38.3 21h2.47v2.55H42v6.36h-2.47v-6.36H38.3V21Zm0 8.9h2.47V35H38.3v-5.1Zm1.23 5.1h-2.46v4.9h2.46V35Zm-2.46 4.9v1.28H34.6v1.27h-2.46v-1.27h2.46v-1.27h2.47Zm-9.86 1.28h1.4v2.55h-1.4v-2.55Zm2.46 1.27h-1.05v1.28h-2.47V45h2.47v-1.27h1.05v-1.28Zm-5.98-2.54h-2.47v2.54h-1.06v1.28h2.47v-1.28h1.06v-2.54Zm2.46-13.82h-1.4V31h-1.06v4h-1.06v1.1H24.74v1.26h1.41V31h1.06v-4.9h1.4V21h-2.46V26.1Z" fill="#111"/></svg>