<svg width="56" height="56" viewBox="0 0 56 56" xmlns="http://www.w3.org/2000/svg"><rect fill="#F0F3FA" width="56" height="56" rx="28"/><circle cx="28" cy="27.99" r="17" fill="url(#aus3tex40)"/><path d="m37.2 13.62 2.64 2.15c.21.17.4.39.58.66-.02.16.07.37.28.63L38.88 19c-.1.12-.23.13-.37.05-.08-.1-.16-.1-.22-.02a14.91 14.91 0 0 0-4.21-3.28l1.99-2.25c.08-.1.18-.1.28-.02.2.15.48.2.84.15Z" fill="#D2AA31"/><path d="M34.08 15.74a13.68 13.68 0 0 1 5.45 19.53l-.1.05c-.1-.03-.13-.1-.08-.18a13.5 13.5 0 0 0 1.86-5.07c.03-.21.04-.43.03-.66 0-.06.01-.1.04-.15a.3.3 0 0 0 .05-.15c.23-3.57-.73-6.75-2.88-9.56a14.24 14.24 0 0 0-4.68-3.7 13.55 13.55 0 0 0-9-.86c.02-.06.02-.1-.01-.14a.23.23 0 0 0-.16-.1c2.94-.75 5.82-.55 8.62.62l.86.37Z" fill="#89290B"/><path d="m33.77 15.85-.11.21a15.6 15.6 0 0 0-9.06-.27c-4.47 1.19-7.75 5.09-8.65 9.58-.61 3.02-.2 5.95 1.25 8.79-.25.33-.48.53-.71.58a13.47 13.47 0 0 1-1.17-10.68 13.28 13.28 0 0 1 18.45-8.2Z" fill="#EDBB33"/><path d="M24.6 14.75c.07.01.12.05.16.1.03.04.03.08 0 .14a13.28 13.28 0 0 0-9.44 9.07 13.47 13.47 0 0 0 1.17 10.68c1 1.7 2.32 3.13 3.94 4.3a13.44 13.44 0 0 0 13.58.96l.57-.35c.3-.18.6-.28.92-.3a13.4 13.4 0 0 1-15.1-.07l-.1-.08a13.68 13.68 0 0 1 4.3-24.44Z" fill="#6D1507"/><path d="m33.66 16.06-4.57 5.11c-.22.04-.5.04-.85.02-.21-.01-.35.04-.42.16-.1.45-.1.86 0 1.2-.41.42-.76.85-1.02 1.29-.04.06-.1.04-.19-.07V21.7c.06-.06.15-.1.27-.13a.14.14 0 0 0 .1-.15.17.17 0 0 0-.06-.12.53.53 0 0 0-.33-.11h-7.65a.2.2 0 0 0-.15.08l-2.04 2.36a.13.13 0 0 0-.01.16c.02.03.05.06.08.07.04.02.07.02.11 0 .2-.09.32-.23.38-.42a.34.34 0 0 1 .11-.17c.26-.21.48-.46.67-.73.24-.36.55-.62.83-.94a.13.13 0 0 1 .07-.04h.08c.08.04.1.08.08.14l-1.96 2.35a.1.1 0 0 0-.03.07l.03.06c.01.02.04.04.09.06a1 1 0 0 1-.34.22c-.2.08-.23.19-.1.33.05.04.1.06.17.06l6.05.01c.14 0 .27-.05.38-.15.1-.1.22-.25.32-.44l.02 3.04c-.19-.12-.37-.05-.55.19l-.32.43C21 30 19.1 32.08 17.2 34.16a13.17 13.17 0 0 1-1.25-8.8c.9-4.48 4.18-8.38 8.65-9.57a15.6 15.6 0 0 1 9.06.27Z" fill="#F0C63C"/><path d="M33.77 15.85c1.86.94 3.42 2.17 4.67 3.7l-1.99 2.1a2.5 2.5 0 0 0-.3-.34.56.56 0 0 0-.4-.14H29.1l4.57-5.1.1-.22Z" fill="#D2AA31"/><path d="M38.44 19.55c2.16 2.8 3.12 6 2.89 9.56a.3.3 0 0 1-.05.15.23.23 0 0 0-.04.15c.01.23 0 .45-.03.66a13.5 13.5 0 0 1-1.86 5.07c-.05.08-.03.15.08.18l-.12.02a.16.16 0 0 1-.15-.05c-.28-.3-.6-.76-1.06-.75a.3.3 0 0 0-.15.05c-.1.07-.2.12-.33.15.05-.04.09-.07.1-.11a.1.1 0 0 0-.03-.1 37.2 37.2 0 0 1-1.62-1.66.8.8 0 0 0-.58-.25l-3.96.01c-.06 0-.1.03-.11.1l-.05.42-.22-.04c-.06 0-.1-.04-.1-.1v-2.93l.5.24c.05.03.1.04.17.04l4.45.06c.12 0 .2-.05.26-.14l.03-.05a.12.12 0 0 0-.1-.18c-.2-.02-.36-.09-.44-.21.13-.07.13-.17.01-.3a74.03 74.03 0 0 1-1.73-1.97.85.85 0 0 0-.23-.15l.03-.2a.08.08 0 0 1 .05-.05.07.07 0 0 1 .07.01c.36.32.67.66.93 1.04.36.5.86.89 1.28 1.35.06.06.12.03.17-.08a.18.18 0 0 0-.04-.19l-2.23-2.44a.16.16 0 0 0-.12-.05l-2.44.02 1.88-2.1h4.33c.14 0 .27-.03.38-.08a.12.12 0 0 0 .07-.1.13.13 0 0 0-.06-.12l-.44-.25c.05 0 .08-.01.1-.03.02-.01.01-.04-.01-.08-.58-.7-1.21-1.39-1.9-2.05.17-.19.37-.12.6.22.14.19.24.32.33.4.37.33.72.73 1.07 1.08.03.03.07.05.1.05.23.01.26-.06.12-.23-.58-.67-1.18-1.3-1.79-1.88l2-2.11Z" fill="#EDBB33"/><path d="M29.09 21.17h6.66c.17 0 .3.05.4.14.1.1.2.2.3.35.61.58 1.2 1.21 1.79 1.88.14.17.1.24-.11.23a.15.15 0 0 1-.1-.05c-.36-.35-.7-.75-1.08-1.08a2.4 2.4 0 0 1-.32-.4c-.24-.34-.44-.41-.6-.22-.15-.22-.3-.34-.58-.33l-7.27.01c-.18-.13-.3-.25-.36-.35.07-.12.21-.17.42-.16.35.02.63.02.85-.02Z" fill="#A17603"/><path d="M26.6 21.7h-7.45c.03-.06 0-.1-.09-.13a.13.13 0 0 0-.14.03c-.28.32-.6.58-.83.94-.19.27-.41.52-.67.73a.34.34 0 0 0-.1.17.66.66 0 0 1-.39.42.13.13 0 0 1-.11 0 .18.18 0 0 1-.08-.07.13.13 0 0 1 0-.16l2.05-2.36a.2.2 0 0 1 .15-.07c2.65-.02 5.2-.02 7.65-.01.12 0 .23.03.32.1.05.04.07.08.07.13a.14.14 0 0 1-.1.15.69.69 0 0 0-.27.13Z" fill="#BF9007"/><path d="M27.82 21.35c.06.1.18.22.36.35l-.04.37.01 13.12c0 .15.04.26.13.36-.1.07-.2.13-.3.17-.3.13-.3.25 0 .38.09.03.23.04.45.04 2.33-.02 4.66-.03 7-.03.01.5-.06.8-.22.94-.56.5-.64 1.03-.21 1.59.05.07.16.16.34.27.22.13.26.3.1.5l.06-.05a1.9 1.9 0 0 0-.92.29l-.57.35a12.57 12.57 0 0 1-4.45 1.31c-3.35.34-6.39-.42-9.13-2.27l3.97-4.4c.35.24.71.42 1 .74.4.43 1.05.73 1.62.45a.13.13 0 0 0 .07-.12.13.13 0 0 0-.08-.11l-.42-.17.02-1.52.04-1.67c0-.06.04-.11.1-.14.2-.1.34-.24.44-.44.17-.33.52-.4.67-.7.1-.22-.03-.4-.03-.64 0-1.81 0-3.65-.02-5.52-.01-.73 0-1.47.01-2.24-.1-.35-.1-.76 0-1.21Z" fill="#EDBB33"/><path d="M27 21.7V35.66l-1.72-1.18-.77-.56a4.34 4.34 0 0 1 1.7.97.1.1 0 0 0 .1-.04 1119.13 1119.13 0 0 1 0-8.41c0-1.38-.07-2.84-.1-4.29 0-.06-.03-.1-.1-.1-2.27-.01-4.5-.02-6.7 0-.22 0-.32.13-.46.28-.6.66-1.1 1.3-1.49 1.9a.45.45 0 0 0-.18.01.25.25 0 0 1-.1-.06.1.1 0 0 1-.02-.06c0-.03.01-.05.03-.07l1.96-2.35H27Z" fill="#171A25"/><path d="M36.02 22.02c.69.66 1.32 1.35 1.9 2.05.02.04.03.07.01.08-.02.02-.05.03-.1.03h-6.68c-.06 0-.1.03-.1.09l-.05.25v2.76c0 .08.11.11.2.1l2.77.04c.13.07.2.12.23.15l1.73 1.97c.12.13.12.23-.01.3l-4.74-.02c-.06 0-.1.03-.12.08-.02.06-.07.12-.06.18V33c0 .07.09.1.15.11l.22.04 4.26.05 1.69 1.78c.02.1-.08.18-.3.26a2.6 2.6 0 0 0-1.13.15c-.1.13-.27.19-.48.17l-7.13-.01c-.1-.1-.29-.21-.28-.36.99.1 2.12.1 3.09 0 .05 0 .07-.03.06-.08L29 22.12c0-.04-.03-.07-.08-.06l-.92.01v-.37l7.45-.01c.28 0 .43.1.57.33Z" fill="#040405"/><path d="m24.5 33.92-.5-.5v-9.18h-6.54c.39-.62.88-1.25 1.49-1.91.14-.15.24-.28.46-.29l6.7.01c.07 0 .39.21.39.28V35.27c0 .04-1.94-1.33-2-1.35Z" fill="#2E2F30"/><path d="M28 35.19V22.07l.92-.01c.05 0 .07.02.08.06l2.15 12.99c.01.05 0 .08-.06.09-.97.1-2.1.1-3.09-.01Z" fill="#1A1B1C"/><path d="M27.86 22.56a86.3 86.3 0 0 0-.01 2.24c.02 1.87.02 3.7.01 5.52 0 .24.1.42.02.64-.1.3-.35.37-.47.7a.85.85 0 0 1-.32.44c-.04.03-.06.08-.06.14L27 33.91V23.77c.06.1.1.13.13.07.19-.44.43-.87.73-1.28Z" fill="#D2AA31"/><path d="m37.83 24.18.44.25a.12.12 0 0 1 .06.11.13.13 0 0 1-.07.11.96.96 0 0 1-.38.08 530.25 530.25 0 0 0-6.12 0 .44.44 0 0 1-.38-.19.17.17 0 0 0-.14-.06.53.53 0 0 0-.19.04v-.25c0-.06.04-.09.1-.09h6.68ZM17.28 24.24h.18l6.3.03c-.1.19-.21.34-.32.44a.53.53 0 0 1-.38.15H17a.23.23 0 0 1-.16-.07c-.14-.14-.1-.25.09-.33a1 1 0 0 0 .34-.22Z" fill="#FDF584"/><path d="m33.58 24.73-1.93 2.1a.25.25 0 0 0-.17-.05c-.06 0-.09.03-.09.1.01.31-.06.48-.21.5-.1.01-.18-.02-.18-.1v-2.76a.66.66 0 0 1 .21-.04.18.18 0 0 1 .15.06c.1.13.22.19.38.18h1.84Z" fill="#D2AA31"/><path d="m31.67 26.83 2.44-.02a.16.16 0 0 1 .12.05l2.23 2.44a.17.17 0 0 1 .04.2c-.05.1-.1.13-.17.07-.42-.46-.92-.85-1.28-1.35a6.2 6.2 0 0 0-.96-1.05h-.04a.08.08 0 0 0-.05.06l-.03.2-2.76-.05c.15-.02.22-.19.2-.5 0-.07.03-.1.1-.1.06 0 .11.02.16.05Z" fill="#BF9007"/><path d="M24 27.21v6.23s.3 1.1.4 1.2l-3.97 4.4a14.1 14.1 0 0 1-3.94-4.3c.23-.05.46-.25.7-.58l5.72-6.23.32-.43c.18-.24.58-.4.77-.29Z" fill="#D2AA31"/><path d="M35.92 29.84c.08.12.23.2.45.2a.12.12 0 0 1 .1.14l-.01.05-.03.05a.29.29 0 0 1-.25.14l-4.46-.06a.35.35 0 0 1-.17-.04l-.5-.24a.3.3 0 0 1 .01-.18c.02-.05.06-.08.12-.08l4.74.02Z" fill="#FDF584"/><path d="m37.62 34.74-.1.04-1.44-1.5a.81.81 0 0 0-.36-.2c-.05-.02-.08 0-.08.05l-.01.07-4.26-.05.05-.42c0-.07.05-.1.11-.1l3.96-.01a.79.79 0 0 1 .58.25c.5.54 1.04 1.1 1.62 1.66.03.03.04.06.03.1-.01.04-.04.07-.1.1Z" fill="#BF9007"/><path d="m26.6 35.43.41.17a.13.13 0 0 1 0 .23c-.56.28-1.21-.02-1.6-.45l-1.74-1.29c-.1-.21.14-.76.14-.76l2.78 2.1Z" fill="#FDF584"/><path d="m14.29 37.34 1.88-2.07c.06-.06.15-.1.28-.14 1 1.61 2.29 2.97 3.85 4.07l-2.31 2.52a8.17 8.17 0 0 1-1.16-.95 14.68 14.68 0 0 1-2.4-2.55c-.56-.67-.14-.88-.14-.88Z" fill="#D2AA31"/><path d="m39.43 35.32.1-.05c.07.1.18.13.32.11.06 0 .06-.01 0-.01-.01 0-.02-.01-.02-.03v-.04a.17.17 0 0 1 .08-.08c-.03.05-.02.07.02.07.24.03.45.13.62.31a.7.7 0 0 1 .2.44c.02.3.04.6.08.87 0 .06.03.1.08.14.24.18.43.43.56.74l-.1.15c-.2-.35-.47-.66-.82-.92a.2.2 0 0 1-.08-.15.2.2 0 0 1 .05-.16l.05-.05a.2.2 0 0 0 .07-.16c-.03-.52-.32-1.09-.93-.98-.17.03-.33.04-.49.02a.27.27 0 0 1-.15-.08l-.49-.47c-.33-.33-.79-.25-1.05.12-.1.14-.22.27-.36.37a.25.25 0 0 1-.13.05 5 5 0 0 1-.73.03c-.17-.01-.32.08-.48.14-.03-.13-.17-.18-.42-.14.21.02.37-.04.48-.17.41.03.79-.02 1.12-.15.23-.08.33-.17.3-.26.1-.07.17-.13.21-.2l.1-.04a1 1 0 0 0 .33-.15.3.3 0 0 1 .15-.05c.47-.01.78.45 1.06.75.04.04.09.06.15.05l.12-.02Z" fill="#B2D0C7"/><path d="M41.37 37.94c0 .08-.01.14-.04.2a2.8 2.8 0 0 1-.54.85.38.38 0 0 0-.1.29c.05.83-.34 1.37-1.23 1.24-.06-.01-.12 0-.17.03-.16.1-.34.25-.54.45-.26.25-.6.31-1.02.19-.28-.36-.6-.48-.95-.36.8-.2.57-.3-.68-.31.08.13.04.1-.13-.12a1.7 1.7 0 0 1-.28-1.27c0-.07-.01-.12-.06-.17l-.48-.5c-.58-.65.07-1 .43-1.42a.24.24 0 0 0 .05-.15l.08-1.05.12-.14c.16-.06.3-.15.48-.14a5 5 0 0 0 .73-.03c.05 0 .1-.02.13-.05.14-.1.26-.23.36-.37.26-.37.72-.45 1.05-.12l.49.47c.04.04.1.07.15.08.16.02.32.01.5-.02.6-.1.9.47.92.98a.2.2 0 0 1-.07.16l-.05.05a.2.2 0 0 0 .03.31c.35.26.63.57.82.92Z" fill="#2196F3"/><path d="M37.01 35.24c-.33.13-.7.18-1.12.15a2.6 2.6 0 0 1 1.12-.15Z" fill="#2E2F30"/><path d="m28.28 35.55 7.13.01c.25-.04.39 0 .42.14l-.12.14a.56.56 0 0 0-.28.27c-2.34 0-4.67.01-7 .03a1.3 1.3 0 0 1-.45-.04c-.3-.13-.3-.25 0-.38.1-.04.2-.1.3-.17Z" fill="#FDF584"/><path d="m35.7 35.84-.07 1.05c0 .06-.02.1-.05.15-.36.41-1.01.77-.43 1.41.17.18.32.35.48.5.05.06.07.11.06.18-.07.5.02.92.28 1.27-.22.16-.39-.03-.5-.54.01-.15 0-.3-.03-.44.16-.2.12-.38-.1-.51-.18-.11-.3-.2-.34-.27-.43-.56-.35-1.09.21-1.59.16-.13.23-.45.22-.94.05-.11.14-.2.28-.27Z" fill="#B2D0C7"/><path d="M37.78 37.93a.08.08 0 0 0 .1.02s.02 0 .02-.02l.72-.73c.14-.15.28-.15.43 0l.08.07c.14.14.14.28 0 .42l-1.1 1.1a.21.21 0 0 1-.3 0l-.68-.67c-.11-.11-.11-.23 0-.34l.13-.11c.15-.14.28-.13.41.03l.19.23Z" fill="#fff"/><path d="M41.33 38.14c.02.09.08.14.2.15l-.7 1.03a.24.24 0 0 0-.04.18c.07.43 0 .93-.41 1.16-.31.17-.67.07-1.02.11a.21.21 0 0 0-.14.08c-.28.34-.6.58-1 .71-.1 0-.18-.04-.23-.12l-.26-.25c.42.12.76.06 1.02-.2.2-.2.38-.34.54-.44a.27.27 0 0 1 .17-.03c.89.13 1.28-.41 1.23-1.24a.4.4 0 0 1 .1-.3c.22-.22.4-.5.54-.84Z" fill="#2E2F30"/><path d="M20.4 39.28a13.4 13.4 0 0 0 15.04.14c.04.15.04.3.02.44-.04-.05-.1-.05-.16-.01a13.4 13.4 0 0 1-10.3 1.7 15.13 15.13 0 0 1-4.72-2.14.07.07 0 0 1 .04-.1l.07-.03Z" fill="#F6E15A"/><path d="M36.78 40.83c-.31.02-.54-.08-.68-.31 1.25 0 1.48.11.68.3Z" fill="#2E2F30"/><defs><linearGradient id="aus3tex40" x1="19.32" y1="13.75" x2="37.24" y2="42.31" gradientUnits="userSpaceOnUse"><stop stop-color="#F0C63C"/><stop offset="1" stop-color="#EDBB33"/></linearGradient></defs></svg>