<svg width="56" height="56" xmlns="http://www.w3.org/2000/svg"><rect fill="#18D19F" width="56" height="56" rx="28"/><path d="M19.788 19.838a2.721 2.721 0 00-.32 3.441 2.722 2.722 0 002.289 1.216 3.505 3.505 0 010 6.995 9.747 9.747 0 01-6.851-16.662 9.732 9.732 0 0113.093-.544 9.732 9.732 0 00-3.49 7.474 3.505 3.505 0 003.474 3.506 3.507 3.507 0 01-3.505-3.522 2.705 2.705 0 00-.464-1.52 2.77 2.77 0 00-1.2-.993 2.753 2.753 0 00-3.026.609zM43.22 30.45a9.765 9.765 0 01-1.985 10.58 9.732 9.732 0 01-16.726-6.787 3.504 3.504 0 016.058-2.63 3.505 3.505 0 01.936 2.63 2.72 2.72 0 001.681 2.53 2.77 2.77 0 002.145 0 2.753 2.753 0 001.44-1.473 2.753 2.753 0 00-2.529-3.794 3.505 3.505 0 110-7.01 9.731 9.731 0 018.98 5.954z" fill="#fff"/><path opacity=".7" d="M28 30.738c1.92 0 3.488 1.569 3.488 3.521a9.732 9.732 0 01-16.758 6.755 9.747 9.747 0 017.027-16.535 3.506 3.506 0 010 7.011c-.545 0-1.089.16-1.537.48a2.77 2.77 0 00-.992 1.2 2.737 2.737 0 00.56 2.962 2.721 2.721 0 003.49.368 2.72 2.72 0 001.2-2.273 3.518 3.518 0 013.521-3.505v.016zm14.917-13.445a9.748 9.748 0 01-8.675 14.213 3.505 3.505 0 010-7.01 2.738 2.738 0 002.742-2.842 2.754 2.754 0 00-1.016-2.04 2.72 2.72 0 00-3.247-.129 2.722 2.722 0 00-1.216 2.273 3.507 3.507 0 01-3.498 3.742 3.504 3.504 0 01-3.497-3.742 9.73 9.73 0 0115.542-7.827 9.765 9.765 0 012.865 3.362z" fill="#fff"/></svg>