<svg width="112" height="112" xmlns="http://www.w3.org/2000/svg" viewBox="0 0 56 56"><path d="M19.488 18.383a6.144 6.144 0 00-8.871 8.498l1.522-1.412a4.103 4.103 0 016.098-5.472l2.326 2.354 1.487-1.379-2.562-2.589zM31.58 33.34l-8.874-8.874 1.486-1.379 8.862 8.862-1.474 1.391zm.331 3.184l-4.375 4.375-4.132-4.132-1.496 1.413 5.27 5.269a.631.631 0 00.892 0l5.383-5.383-1.542-1.542zm-15.668-6.918l5.799 5.799-1.496 1.413-5.812-5.812 1.509-1.4z" fill="#fff"/><path d="M31.91 36.524l-4.374 4.375-4.132-4.132-1.496 1.413 5.269 5.269a.631.631 0 00.893 0l5.383-5.383-1.542-1.542z" fill="#CD9BFA"/><path d="M27.17 13.264a.632.632 0 01.893.016l5.267 5.455c-.434.419-1.049 1.002-1.521 1.448l-4.312-4.465-4.163 4.02-1.444-1.375 5.28-5.099zM18.147 36.24a4.144 4.144 0 01-5.453-6.227l6.674-6.445-1.45-1.37-6.744 6.513a6.144 6.144 0 008.41 8.958c-.341-.334-.955-.94-1.437-1.428zm4.373-4.195l1.45 1.39 9.005-8.695-1.42-1.42-9.036 8.725z" fill="#fff"/><path d="M27.321 13.118a.421.421 0 01.596.01l5.413 5.607c-.434.419-1.049 1.002-1.52 1.448l-4.313-4.465-4.163 4.02-1.444-1.375 5.431-5.245z" fill="#CD9BFA"/><path d="M37.38 20.322a4.144 4.144 0 015.453 6.227l-6.673 6.445 1.45 1.37 6.744-6.513a6.144 6.144 0 00-8.41-8.958c.34.334.955.94 1.437 1.429z" fill="#fff"/><path d="M40.72 25.549l-5.704-5.703-1.63 1.63 5.618 5.617 1.715-1.544zm-4.638 12.733l-2.972-2.973 1.747-1.595 2.902 2.902a3.807 3.807 0 005.567-5.187l1.535-1.735a6.141 6.141 0 01-8.779 8.588z" fill="#fff"/><defs><linearGradient id="paint0_linear" x1="-2" y1="-1.5" x2="58.5" y2="60" gradientUnits="userSpaceOnUse"><stop stop-color="#E579FE"/><stop offset="1" stop-color="#6A4DFF"/></linearGradient></defs></svg>