<svg width="112" height="112" viewBox="0 0 56 56" xmlns="http://www.w3.org/2000/svg"><rect fill="#F0F3FA" width="56" height="56" rx="28"/><circle cx="28.28" cy="28" r="16.7" fill="url(#am1xz5twf)"/><path fill-rule="evenodd" d="M28 46a18 18 0 1 0 0-36 18 18 0 0 0 0 36Zm0-3.05a15 15 0 1 0 0-30 15 15 0 0 0 0 30Z" fill="#00F8CB"/><path d="m16 23.7 2.35 2.47 1.68 4.2v5.3L23.99 38l2.63-1.32L28 33l1.38 3.67L32 38l3.96-2.34v-5.29l1.68-4.2L40 23.69 39.2 20l-5.95 1.6L28 27.4l-5.25-5.8L16.8 20 16 23.7Z"/><defs><linearGradient id="am1xz5twf" x1="12.7" y1="28" x2="43.13" y2="28" gradientUnits="userSpaceOnUse"><stop stop-color="#00F8CB"/><stop offset="1" stop-color="#EC10FB"/></linearGradient></defs></svg>