<svg width="56" height="56" viewBox="0 0 56 56" xmlns="http://www.w3.org/2000/svg"><rect fill="#F0F3FA" width="56" height="56" rx="28"/><path d="M35.24 14.8c.03-.06.1-.14.2-.23.03-.02.05-.02.07.02.05.07.09.16.12.24.03.1.07.18.12.26.16.23.26.45.3.64.04.17.1.33.2.48.07.13.15.36.23.68.03.11.13.31.3.6.1.16.17.33.22.5.05.2.11.35.18.46.08.13.14.3.2.45.04.13.08.26.14.36.08.17.27.5.55.98.1.17.2.37.3.6.1.27.2.49.3.64.1.16.25.38.46.3.2-.07.25-.24.22-.44a2.57 2.57 0 0 0-.43-1.06 1.29 1.29 0 0 1-.1-.25.9.9 0 0 0-.13-.23c-.17-.24-.31-.5-.41-.8-.07-.17-.13-.3-.18-.37-.1-.14-.16-.27-.2-.38a1.7 1.7 0 0 0-.2-.5 2.65 2.65 0 0 1-.34-.85c-.04-.16-.11-.3-.2-.45a1.7 1.7 0 0 1-.18-.46 1.3 1.3 0 0 0-.17-.45c-.18-.28-.32-.6-.42-.97-.03-.14-.1-.3-.2-.49a1.55 1.55 0 0 1-.15-.52c-.02-.22-.08-.27-.24-.4-.02 0-.04-.02-.05-.03-.36-.28-.49-.07-.65.24l-.16.3c-.12.22-.25.45-.34.68-.05.15-.12.28-.2.4a25.97 25.97 0 0 0-.92 1.48c-.09.11-.17.22-.22.36-.06.17-.16.3-.26.45-.09.11-.17.23-.23.36-.12.25-.24.4-.4.62a4.19 4.19 0 0 0-.51.76 43.94 43.94 0 0 0-.56 1 1.3 1.3 0 0 0-7.37.93c-.12.11-.18.22-.07.38.07.1.16.2.26.28a.08.08 0 0 0 .08.01c.37-.14.6-.24.7-.29a4.53 4.53 0 0 1 1.75-.38l3.03-.08c.25-.01.55 0 .88.03l.36.02c.35.04.57.05.8.02.02 0 .04-.02.05-.05.04-.25.15-.49.31-.72.16-.21.26-.37.32-.48.3-.53.47-.82.52-.88l.16-.18c.07-.08.12-.17.17-.26.05-.1.1-.2.18-.27.09-.09.15-.2.2-.32.08-.23.19-.42.32-.56.1-.1.18-.24.25-.39.05-.1.13-.23.26-.4l.18-.3c.05-.1.1-.21.17-.31.18-.25.32-.51.43-.77ZM17.68 15.5l.02.02a102.21 102.21 0 0 1 3.39 3.84l.7.77.7.79.12.27a.1.1 0 0 0 .06.06c.17.05.33.04.49-.05a.1.1 0 0 0 .05-.07c.1-.4-.17-.71-.41-1l-.02-.01c-.75-.88-1.43-1.67-2.03-2.34-.69-.78-1.42-1.61-2.2-2.52a4.86 4.86 0 0 0-.72-.7.08.08 0 0 0-.09 0c-.35.11-.55.21-.6.28l-.49.63c-.25.34-.43.67-.55.97-.07.17-.15.3-.23.44-.06.1-.12.21-.17.33l-.22.37c-.12.17-.24.35-.28.52-.07.25-.15.48-.25.67-.07.15-.11.3-.16.43-.05.17-.1.33-.2.49-.14.26-.24.53-.35.81l-.22.56c-.07.16-.12.33-.17.5-.05.17-.1.35-.18.51-.15.32-.6 1.34-.22 1.6.2.13.46 0 .6-.16.14-.14.17-.42.2-.7l.03-.2c.03-.2.14-.5.34-.92.07-.13.11-.24.13-.32l.09-.34.18-.36c.06-.11.12-.25.16-.43.03-.15.15-.42.36-.8.06-.12.12-.27.17-.44.06-.18.11-.33.17-.46l.25-.52c.1-.2.2-.37.29-.52.14-.2.34-.58.59-1.1.12-.26.27-.44.44-.65a9.44 9.44 0 0 0 .21-.25h.02ZM40.15 34.52c.12-.12.28-.2.44-.28l.29-.16.45-.3a7.74 7.74 0 0 0 1.18-1.14c.2-.25.38-.55.5-.89.19-.54.3-.87.31-.99.02-.1.02-.3 0-.61-.04-.35-.15-.76-.24-1.1-.05-.19-.1-.35-.12-.48a2.07 2.07 0 0 0-.2-.6 40.5 40.5 0 0 0-.7-1.26c-.3-.55-.76-1.23-1-1.55-.29-.39-.5-.69-.63-.9a.14.14 0 0 1 .02-.16l.31-.31a.11.11 0 0 1 .16 0c.23.22.48.52.74.88l.86 1.28c.12.19.24.38.34.59l.26.48c.13.24.26.45.35.72l.18.41c.07.16.11.3.14.43.07.43.14.86.18 1.29.06.6.03 1.21-.1 1.82-.06.32-.19.61-.36.89-.29.45-.54.8-.74 1.03-.23.26-.57.56-1.03.9l-.4.2c-.16.08-.3.18-.44.27-.17.11-.32.22-.5.3a.99.99 0 0 0-.22.12l-.16.1a.2.2 0 0 1-.26-.08.7.7 0 0 1-.01-.68.1.1 0 0 1 .06-.06l.06-.01c.1-.03.2-.05.28-.15ZM15.98 36.4a5.59 5.59 0 0 1-1.85-1.87c-.4-.62-.73-1.23-1-1.85-.12-.26-.2-.5-.21-.71l-.17-1.76c-.02-.2 0-.45.06-.73.07-.38.11-.81.12-1.3 0-.14.05-.3.1-.42l.44-1.1.16-.31c.2-.31.3-.56.22-.92a.07.07 0 0 0-.05-.06c-.37-.07-.62.05-.75.37-.14.34-.28.65-.43.94-.09.17-.15.34-.2.52l-.1.4c-.13.52-.3 1.15-.3 1.73-.03.73-.02 1.47 0 2.24 0 .15.06.36.18.64.08.19.14.37.18.54.07.28.12.46.16.54.36.7.74 1.35 1.13 1.94.44.66.99 1.22 1.65 1.69.23.16.47.22.71.18.15-.03.22-.1.23-.23 0-.2-.09-.35-.28-.47Z" fill="#010101"/><path fill-rule="evenodd" d="M27.36 33.6a8.6 8.6 0 0 1-.02-.76c0-.03.02-.05.07-.05l.17-.01c.18-.01.4-.03.59-.06a21.76 21.76 0 0 1 4.3-.27l.02.04.24 1.25c.03.14.11.22.26.21h.08c.16 0 .24-.08.24-.25l-.07-1.74c0-.02 0-.04-.02-.05a.08.08 0 0 0-.05-.02.66.66 0 0 1-.31-.12c-.12-.09-.2-.1-.3-.12h-.07a.07.07 0 0 1-.06-.06c-.04-.13-.05-.21-.05-.26-.02-.46-.03-1.59-.03-3.37 0-.25-.04-.67-.12-1a18.2 18.2 0 0 1-.3-1.47.16.16 0 0 0-.16-.13c-.65-.01-1.25.01-1.79.07l-.66.05c-.38.02-.78.04-1.1.1a.13.13 0 0 0-.11.12 7.4 7.4 0 0 0-.03.91c.02 1.24.02 2.45.01 3.63 0 .26-.06.48-.18.69-.17.3-.18.58-.19.87v.02a.08.08 0 0 1-.07.07h-.72a.6.6 0 0 0-.16.05.18.18 0 0 0-.1.13 1.3 1.3 0 0 0-.07.32c.01.32.07.8.17 1.44a.7.7 0 0 0 .1.3.18.18 0 0 0 .12.07.17.17 0 0 0 .14-.04.64.64 0 0 0 .23-.57Zm1.25-2.19c-.02.1-.05.18-.1.23a.65.65 0 0 0-.1.09c-.07.08-.04.12.07.13.49 0 .95-.02 1.38-.06l.92-.09a14.77 14.77 0 0 1 .97-.03v-.02a445 445 0 0 0-.1-2.56c-.02-.47-.07-.95-.13-1.43a12.84 12.84 0 0 1-.13-1.49.11.11 0 0 0-.07-.06h-.05c-.42.07-.82.12-1.2.14a105.72 105.72 0 0 1-1.35.08.05.05 0 0 0-.02.04 130.16 130.16 0 0 1 .13 3.63l-.22 1.4ZM38.6 28.75c-.06.04-.1.1-.15.16-.05.08-.11.16-.22.19-.51.15-.88.07-1.4-.03h-.03a.33.33 0 0 1-.23-.18l-.4-.8c-.25-.54-.03-1.02.18-1.48l.08-.17a.26.26 0 0 1 .15-.14c.15-.06.28-.13.41-.2.3-.16.6-.2.88-.13.26.06.63.39.8.6.27.31.31.94.25 1.31l-.12.62c-.03.15-.09.18-.2.25Zm-.37-.79c-.03.13-.16.23-.3.32l-.1.08c-.17.13-.49.02-.65-.1a.6.6 0 0 1-.25-.36c-.09-.3-.05-.63.11-.97a.11.11 0 0 1 .07-.06c.14-.04.33-.06.56-.05.19 0 .3.13.4.26l.1.12c.16.16.11.55.06.76ZM20.84 29.02a1.64 1.64 0 0 0 .43.88l.09.08a1.56 1.56 0 0 0 1.83.05c.15-.09.21-.12.27-.3.12-.37.2-.64.2-.8a2 2 0 0 0-.43-1.5.69.69 0 0 0-.38-.23c-.29-.08-.6-.08-.96-.03h-.05c-.15.03-.42.07-.52.17a1.74 1.74 0 0 0-.48 1.68Zm1.9-.88c-.06-.06-.12-.11-.16-.17a.34.34 0 0 0-.34-.14c-.36.05-.57.24-.62.57-.07.4.01.82.33 1.07.12.1.42.21.54.09.08-.08.23-.27.46-.58.11-.16.13-.34.04-.55a.96.96 0 0 0-.25-.29Z" fill="#010101"/><path d="M18.45 38.02c-.14-.07-.27-.14-.4-.23-.15-.11-.31-.2-.48-.3-.17-.1-.34-.2-.5-.32a.42.42 0 0 0-.31-.08.15.15 0 0 0-.13.16c0 .1.06.2.16.3l.3.25c.36.24.73.47 1.1.66l.31.21c.25.18.46.34.84.2a.1.1 0 0 0 .06-.06c.03-.1.03-.2 0-.3a.1.1 0 0 0-.07-.06l-.14-.05a1.32 1.32 0 0 1-.34-.15 3.94 3.94 0 0 0-.4-.23ZM36.5 37.77c.15-.12.36-.23.62-.36.15-.07.23-.14.34-.23l.03-.02c.17-.14.47-.1.62.04a.1.1 0 0 1 .04.07.1.1 0 0 1-.02.08 2.6 2.6 0 0 1-.68.53 6 6 0 0 0-.44.29c-.15.1-.3.18-.45.26l-.49.29-.44.25-.26.13-.29.13a10 10 0 0 0-.9.39c-.25.12-.5.22-.74.28l-.44.14a4.5 4.5 0 0 1-.6.19h-.03c-.58.13-1.03.23-1.54.44-.14.06-.37.1-.5.1-.28 0-.67.04-1.14.14-.95.21-1.82.24-2.6.1a12 12 0 0 0-1.93-.25c-.12 0-.3-.04-.53-.13a4.05 4.05 0 0 0-.85-.26c-.25-.06-.45-.12-.73-.15a2.92 2.92 0 0 1-.78-.19c-.36-.14-.64-.17-.97-.2l-.1-.01c-.17-.02-.27-.1-.31-.25v-.01c-.04-.16.02-.25.17-.25.33-.01.55 0 .67.02l.9.18c.15.03.31.08.5.16.24.1.4.16.5.17a3.92 3.92 0 0 1 1.38.3c.24.07.49.08.8.1a17.77 17.77 0 0 1 1.1.08c.48.06.92.09 1.35.08.21 0 .6-.03 1.17-.1.5-.06.89-.1 1.17-.1.14 0 .38-.07.71-.2.18-.08.37-.1.56-.13.2-.03.38-.05.56-.12.53-.22 1-.37 1.37-.45.19-.04.38-.11.6-.22l.31-.12c.17-.05.34-.11.48-.2.18-.12.38-.22.59-.32l.55-.28.24-.14c.15-.08.28-.15.42-.25ZM42.5 38.06c.22.06.41-.07.56-.4-.19-.03-.36-.06-.5-.1-.2-.06-.37-.09-.5-.1-.35 0-.8-.08-1.33-.2a4.56 4.56 0 0 0-1.7-.05c-.15.02-.24.1-.25.26v.02c-.01.15.06.22.21.2.78-.1 1.54-.03 2.27.18.2.06.41.1.62.12l.62.07ZM18.61 43c-.2.02-.38-.06-.52-.27 0-.51.07-.97.22-1.36a2.45 2.45 0 0 0 .16-.59c.02-.18.04-.38.14-.54.15-.26.25-.54.3-.83 0-.03.01-.06.04-.08.1-.07.22-.1.37-.09.03 0 .05.02.06.05.07.37-.05.61-.19.88a2.56 2.56 0 0 0-.33 1.03v.17c-.03.23-.05.51-.1.79-.06.27-.11.55-.15.84Z" fill="#010101"/></svg>