<svg width="56" height="56" xmlns="http://www.w3.org/2000/svg"><rect fill="#32C9C6" width="56" height="56" rx="28"/><path d="M27.98 22.359l-4.766-4.761A55.403 55.403 0 0127.997 11a55.204 55.204 0 014.783 6.564l-4.8 4.795zm9.806 4.761c1.337 3.758 3.326 7.5 1.44 11.104a12.805 12.805 0 01-5.331 5.323 12.728 12.728 0 01-9.69.88 12.682 12.682 0 01-4.352-2.362 12.57 12.57 0 01-3.102-3.84c-1.92-3.606.291-7.653 1.645-11.394a82.193 82.193 0 013.91-7.737l5.657 5.663 5.726-5.697a90.358 90.358 0 014.097 8.077v-.017z" fill="#fff"/></svg>