<svg width="56" height="56" viewBox="0 0 56 56" xmlns="http://www.w3.org/2000/svg"><rect fill="url(#a0v1ec5qp)" width="56" height="56" rx="28"/><path fill-rule="evenodd" d="M12.22 37.16c-.4-4.25-.53-14.57 2.2-21.78 1.15-.56 4.96-1.6 10.96-1.26L19.53 17a33.93 33.93 0 0 1 8.1-1.07A32 32 0 0 1 35.6 17l-5.94-2.88c2.56-.23 8.35-.3 11.04 1.26 1.05 2 3 9.16 2.32 21.78-.9 1.16-4.46 3.74-11.48 4.84l-2.1-5.6c1.8-.16 5.9-1.16 8.07-3.85-1.14.65-4.77 1.97-10.16 1.97-5.39 0-8.74-1.32-9.75-1.97.5.98 2.83 3.13 8.1 3.86L23.71 42c-2.4-.25-8.06-1.58-11.5-4.84Zm12.67-11.35c0 2.1-1.69 3.82-3.76 3.82a3.79 3.79 0 0 1-3.76-3.82c0-2.1 1.68-3.82 3.76-3.82 2.07 0 3.76 1.71 3.76 3.82Zm12.75 0c0 2.1-1.69 3.82-3.77 3.82a3.79 3.79 0 0 1-3.76-3.82c0-2.1 1.69-3.82 3.76-3.82 2.08 0 3.77 1.71 3.77 3.82Z" fill="url(#b0v1ec5qp)"/><path fill-rule="evenodd" d="M13.07 37.16c-.4-4.25-.53-14.57 2.2-21.78 1.15-.56 4.96-1.6 10.96-1.26L20.39 17a33.93 33.93 0 0 1 8.1-1.07A32 32 0 0 1 36.44 17l-5.93-2.88c2.55-.23 8.34-.3 11.03 1.26 1.06 2 3 9.16 2.32 21.78-.9 1.16-4.46 3.74-11.48 4.84l-2.1-5.6c1.8-.16 5.9-1.16 8.07-3.85-1.14.65-4.77 1.97-10.16 1.97-5.39 0-8.74-1.32-9.74-1.97.5.98 2.82 3.13 8.09 3.86L24.57 42c-2.4-.25-8.06-1.58-11.5-4.84Zm12.67-11.35c0 2.1-1.68 3.82-3.76 3.82a3.79 3.79 0 0 1-3.76-3.82c0-2.1 1.68-3.82 3.76-3.82s3.76 1.71 3.76 3.82Zm12.75 0c0 2.1-1.69 3.82-3.76 3.82a3.79 3.79 0 0 1-3.76-3.82c0-2.1 1.68-3.82 3.76-3.82 2.07 0 3.76 1.71 3.76 3.82Z" fill="url(#c0v1ec5qp)"/><defs><linearGradient id="a0v1ec5qp" x1="10.42" y1="9.71" x2="68.15" y2="76.02" gradientUnits="userSpaceOnUse"><stop stop-color="#1A1E21"/><stop offset="1" stop-color="#06060A"/></linearGradient><linearGradient id="b0v1ec5qp" x1="11.72" y1="26.64" x2="38.14" y2="26.64" gradientUnits="userSpaceOnUse"><stop stop-color="#6D9209"/><stop offset="1" stop-color="#00757D"/></linearGradient><linearGradient id="c0v1ec5qp" x1="13.78" y1="27.4" x2="42.63" y2="27.4" gradientUnits="userSpaceOnUse"><stop stop-color="#B5F80A"/><stop offset="1" stop-color="#0CABE4"/></linearGradient></defs></svg>