<svg width="56" height="56" viewBox="0 0 56 56" xmlns="http://www.w3.org/2000/svg"><rect fill="#181B1E" width="56" height="56" rx="28"/><path d="m32.96 18.91 8.72-1.28-3.13 7.97a11.03 11.03 0 0 0-5.59-6.69ZM32.23 18.57 27.9 11l-4.37 7.67c1.36-.6 2.87-.67 4.46-.67 1.5 0 2.93.03 4.23.57ZM23.03 18.92l-8.76-1.3 3.16 8.05c.85-2.95 2.9-5.39 5.6-6.75ZM17.16 26.86 11 32.65l8.09 2.53a10.95 10.95 0 0 1-1.93-8.32ZM19.75 36.01l.7 8.67 7.08-4.96a10.97 10.97 0 0 1-7.78-3.7ZM28.5 39.72l7.08 4.96.7-8.7a10.97 10.97 0 0 1-7.78 3.74ZM36.91 35.18 45 32.65l-6.16-5.8a11.08 11.08 0 0 1-1.93 8.33ZM31.07 45c0-.83-.33-1.63-.9-2.22a3.08 3.08 0 0 0-4.4 0c-.57.59-.9 1.39-.9 2.22h6.2ZM13.78 27.55c-.68.47-1.52.63-2.33.47l1.22-6.16c.8.16 1.52.64 1.97 1.34a3.18 3.18 0 0 1-.86 4.35Zm28.47 0c.68.47 1.52.63 2.32.47l-1.21-6.16a3.1 3.1 0 0 0-1.98 1.34 3.18 3.18 0 0 0 .87 4.35ZM19.77 16.95a3.11 3.11 0 0 1-1.78-1.6l5.57-2.75a3.18 3.18 0 0 1-1.42 4.2c-.74.37-1.6.42-2.37.15Zm16.46 0a3.11 3.11 0 0 0 1.77-1.6l-5.57-2.75a3.18 3.18 0 0 0 1.43 4.2c.74.37 1.59.42 2.37.15ZM15.55 35.92c-.81-.12-1.64.1-2.3.6L17 41.54a3.15 3.15 0 0 0-1.45-5.61Zm24.8 0c.82-.12 1.64.1 2.3.6l-3.75 5.01a3.15 3.15 0 0 1 1.45-5.61Z" fill="#E74C2B"/></svg>