<svg width="56" height="56" viewBox="0 0 56 56" xmlns="http://www.w3.org/2000/svg"><rect fill="#F0F3FA" width="56" height="56" rx="28"/><path fill-rule="evenodd" d="M44 28a16 16 0 1 1-32 0 16 16 0 0 1 32 0Zm1 0a17 17 0 1 1-34 0 17 17 0 0 1 34 0ZM28.49 13.2a1 1 0 0 0-.98 0l-12 6.72a1 1 0 0 0-.51.87v13.44a1 1 0 0 0 .46.84l12 7.68a1 1 0 0 0 1.08 0l12-7.68a1 1 0 0 0 .46-.84V20.79a1 1 0 0 0-.51-.87l-12-6.72ZM23.34 23l4.64-8.45L32.65 23h-9.3ZM40 32.78l-5.76-9.05L40 21.26v11.52Zm-6.28-9.92 5.65-2.42-10.12-5.67 4.47 8.1Zm-.17 1.65L39.6 34H28.8l4.74-9.49ZM28.5 35h10.3l-10.3 6.59V35Zm-1 0v6.59L17.2 35h10.3Zm-.3-1H16.4l6.04-9.49L27.19 34Zm-.5-19.2-4.42 8.06-5.65-2.42L26.7 14.8Zm-4.94 8.93L16 21.26v11.52l5.76-9.05ZM28 33.38 32.7 24h-9.4l4.7 9.38Z" fill="url(#aqtubqt43)"/><defs><linearGradient id="aqtubqt43" x1="38.5" y1="15" x2="17.5" y2="40.5" gradientUnits="userSpaceOnUse"><stop stop-color="#8A51FA"/><stop offset="1" stop-color="#56BDF6"/></linearGradient></defs></svg>