<svg width="56" height="56" xmlns="http://www.w3.org/2000/svg"><rect fill="#FD180F" width="56" height="56" rx="28"/><circle cx="28" cy="28" r="16" fill="#fff"/><path d="M40 29h2c-.47 7.308-6.558 13-14 13-7.451 0-13.546-5.677-14-13h2v-2h-2c.454-7.323 6.549-13 14-13 7.442 0 13.53 5.692 14 13h-2v2z" fill="#FD180F"/><path d="M20 21v-2h6v2h-1.83l4.087 5.477c1.458-2.198 4.345-6.36 4.604-6.737.324-.473 1.026-.882 1.662-.623.376.153.465.58.477.79v15.926C35 36.4 34.8 37 34.251 37c-.44 0-.801-.046-1.041-.382L24 24.295V35h2v2h-6v-2h2V21h-2z" fill="#fff"/><path d="M33 23l-3.32 5L33 32.996V23z" fill="#FD180F"/></svg>