<svg width="56" height="56" viewBox="0 0 56 56" xmlns="http://www.w3.org/2000/svg"><rect fill="#F0F3FA" width="56" height="56" rx="28"/><path d="M27.95 22.08a.03.03 0 0 0 .03.02H28v-.02l5.85-9.68c.15-.25.42-.37.72-.37a175.8 175.8 0 0 1 2.39.02.04.04 0 0 1 0 .04l-5.5 8.72a.13.13 0 0 1-.1.06c-.28.02-.54.03-.78.18-.96.62-.67 2.07.47 2.3 1.02.21 1.8-1.02 1.18-1.94a.1.1 0 0 1 0-.12l5.8-9.2a.15.15 0 0 1 .12-.06c.57 0 1.77-.13 2.2.17.49.33.33.9.04 1.35-2.93 4.64-5.87 9.3-8.82 13.94a.16.16 0 0 0 0 .18l9.08 14.68c.29.46.57 1 .1 1.4-.41.33-1.2.25-1.74.22a.13.13 0 0 1-.1-.06L22.62 18.16a.1.1 0 0 1 0-.12 1.24 1.24 0 0 0-1.13-1.91c-1.53.08-1.48 2.53.14 2.47a.1.1 0 0 1 .05.01.1.1 0 0 1 .04.03L37.7 43.9a.05.05 0 0 1 0 .05l-.02.02h-.02l-2.52.01c-.3 0-.58-.26-.75-.53l-6.33-10.3c-.05-.09-.1-.09-.16 0l-6.3 10.4c-.19.3-.55.43-.92.43h-4.81c-.14 0-.21-.04-.33-.1-.58-.3-.7-.74-.33-1.32 3.09-4.97 6.17-9.94 9.24-14.92a.1.1 0 0 0 0-.11l-8.69-13.81a2.38 2.38 0 0 1-.39-.84c-.07-.64.5-.85 1.05-.85h4.94c.59 0 .74.2 1.02.68l5.57 9.37Z"/></svg>