<svg width="56" height="56" viewBox="0 0 56 56" xmlns="http://www.w3.org/2000/svg"><rect fill="#F0F3FA" width="56" height="56" rx="28"/><path d="M25 43h6v-4h-6v4ZM37 30h-5.24L28 33.7 24.24 30H19l9 9 9-9Z" fill="#181B1E"/><path d="M13 32h4v4l3-3 3 3-3 3h4v4H13V32ZM43 32h-4v4l-3-3-3 3 3 3h-4v4h11V32Z" fill="#1DA42C"/><path d="M31 13h-6v4h6v-4ZM19 26h5.24L28 22.3l3.76 3.7H37l-9-9-9 9Z" fill="#181B1E"/><path d="M43 24h-4v-4l-3 3-3-3 3-3h-4v-4h11v11ZM13 24h4v-4l3 3 3-3-3-3h4v-4H13v11Z" fill="#1DA42C"/></svg>