<svg width="56" height="56" viewBox="0 0 56 56" xmlns="http://www.w3.org/2000/svg"><rect fill="url(#a)" width="56" height="56" rx="28"/><circle cx="28" cy="28" r="17" fill="#313030"/><path d="M31.46 22.57c-.09.1-.17.09-.26-.05 0-.04 0-.07-.03-.09a3.61 3.61 0 0 0-3.32-1.54v.03a.02.02 0 0 0 0 .02h.02c.55.02 1 .1 1.34.23a4.56 4.56 0 0 1 1.88 1.33l.06.02c.09.08.05.1-.13.08l-.23-.07c-.03-.01-.06 0-.08.02-.1.13-.13.26-.09.39-.11.28-.23.63-.43.85-.2.2-.44.35-.75.45-.25.07-.3.32-.17.74-.3-.25-.6-.38-.92-.38a.1.1 0 0 1-.1-.06.1.1 0 0 1 0-.07c.02-.07.07-.1.14-.1l.29.04c.05 0 .06-.01.05-.06l-.04-.03a.76.76 0 0 0-.4-.03c-.03 0-.06 0-.07-.03a.66.66 0 0 0-.25-.32.15.15 0 0 1-.04-.21c.09-.15.14-.3.17-.46-.02-.08 0-.12.08-.13.06-.01.23-.02.49-.02.02 0 .03 0 .03-.03v-.04c.01-.02 0-.03-.02-.04a2.87 2.87 0 0 0-1.38.1 4 4 0 0 0-.75.25c-.56.31-.98.51-1.27.6-.46.12-.86.09-1.2-.11-.23-.14-.27-.1-.12.12.01.02.08.05.21.1.48.15.95.13 1.43-.08.4-.17.88-.48 1.36-.64l.5-.17c.14.05.29.05.46.03.05-.01.09 0 .1.04-.11.31-.26.56-.46.76-.03.02-.07.03-.12 0-.29-.23-.83-.1-1.12.05-.56.18-1.1.43-1.6.73a.19.19 0 0 1-.2 0 .82.82 0 0 1-.27-.24.15.15 0 0 0-.08-.06.41.41 0 0 1-.22-.17.1.1 0 0 0-.04-.03l-.3-.08c-.04-.01-.06-.03-.04-.07a.33.33 0 0 1 .16-.18.03.03 0 0 0 .01-.03v-.01l-.01-.01c-.06-.04-.09-.08-.1-.14 0-.06.02-.1.07-.13.2-.14.49-.03.7.03v-.06c-.16-.08-.25-.18-.27-.3-.04-.25.06-.37.32-.36.03 0 .06-.01.07-.05.12-.36.4-.71.81-1.04a5.14 5.14 0 0 1 2.73-1.11 4.63 4.63 0 0 1 3.4 1.83Z" fill="#E4E4E4"/><path d="M32.28 23.77c.08.04.12.09.12.14a.06.06 0 0 1-.05.07c-.05 0-.08-.03-.1-.1a.13.13 0 0 0-.05-.09.33.33 0 0 1-.14-.23c-.02-.13.05-.2.22-.23a.11.11 0 0 0 .1-.15.65.65 0 0 1-.05-.35.1.1 0 0 1 .05-.08c.08-.04.17-.04.3-.01h.04l.03-.04c.02-.05.02-.14-.01-.27-.01-.05 0-.08.05-.1.04-.02.1-.03.2 0a.1.1 0 0 1 .07.04c.04.08.11.13.22.14.04 0 .06.02.07.06.01.04-.01.1-.08.15a.26.26 0 0 1-.23.05.2.2 0 0 0-.17.04.2.2 0 0 0-.08.15l-.01.41c0 .02-.01.02-.03.02h-.02a.03.03 0 0 1-.02-.02 1.5 1.5 0 0 0-.06-.22c-.19-.23-.23-.21-.12.07.03.09.02.24-.04.45a.06.06 0 0 1-.03.04.06.06 0 0 1-.05 0c-.06-.03-.1-.04-.13-.02a.05.05 0 0 0-.03.04.04.04 0 0 0 .03.04Z" fill="#FABA41"/><path d="M31.2 22.52c.09.14.17.16.25.05.17.28.25.55.24.82 0 .02 0 .03-.02.05l-.02.02v.05c.06.05.12.1.2.11a.05.05 0 0 1 .02.06v.04a.06.06 0 0 1-.03.05.07.07 0 0 1-.05 0c-.15-.02-.24.03-.27.15-.01.04-.04.06-.09.06l-.11-.02c-.04 0-.05-.02-.05-.05l.01-.1c0-.04.04-.07.09-.06l.09.01c.03 0 .05-.01.05-.04 0-.1.02-.16.07-.2.03-.03.04-.05.02-.05l-.04-.02c-.04-.02-.06-.05-.06-.1a.58.58 0 0 0-.23-.43h-.03v.04c.13.15.2.3.23.44a.1.1 0 0 1-.02.09c-.04.04-.08.04-.13 0-.03-.02-.06-.01-.08.03l-.13.27a.07.07 0 0 1-.08.04h-.04a.17.17 0 0 0-.2.15l.03.1.25.42c.02.03 0 .05-.02.07-.03.01-.07 0-.14-.02a.15.15 0 0 0-.1 0 .88.88 0 0 0-.41.27l.02.03c.02.02.04.02.05 0 .02-.07.07-.1.13-.09.03 0 .05.01.06.03.02.02.02.05 0 .07a.14.14 0 0 0-.05.06c-.01.03 0 .04.03.04.07 0 .1.05.1.16-.01.04-.03.06-.07.06l-.08-.01c-.03-.01-.05-.03-.05-.07a.1.1 0 0 1 .01-.06c.02-.03 0-.05-.03-.07l-.06-.03c-.04-.02-.07 0-.09.04a.73.73 0 0 1-.34.39.58.58 0 0 0-.34.33c-.04.1-.02.12.06.04l.55-.55c.04-.04.08-.04.1 0l.09.1a.12.12 0 0 1-.06.2 2.23 2.23 0 0 0-.83.45.1.1 0 0 1-.04 0c-.05 0-.1 0-.12.03-.05.07-.07.06-.06-.03.04-.17.05-.33.05-.48a.56.56 0 0 0-.07-.24 1.1 1.1 0 0 1-.1-.24c-.13-.42-.07-.67.18-.74.3-.1.56-.25.75-.45.2-.22.31-.57.43-.85l.4-.34c.18.02.22 0 .13-.08h.05Z" fill="#9E968A"/><path d="M23.39 22.83c.05-.1.14-.13.26-.08.03 0 .04.03.04.06l-.02.16a.05.05 0 0 0 .01.04c.04.04.09.06.15.05.17-.03.21.02.12.16l.02.13c0 .03 0 .05-.03.05l-.23.03h-.02a.06.06 0 0 1-.04-.04v-.03a.39.39 0 0 0 0-.16.1.1 0 0 0-.06-.07.57.57 0 0 0-.23-.05l-.07-.02a.13.13 0 0 1-.04-.05.1.1 0 0 1-.01-.06.1.1 0 0 1 .02-.06l.05-.01c.04 0 .06-.02.08-.05Z" fill="#838024"/><path d="m28.1 23.27-.08-.02c-.01-.04-.05-.05-.1-.04a.88.88 0 0 1-.45-.03c.04-.07-.02-.1-.17-.07.44-.14.9-.18 1.38-.1.02 0 .03.02.03.04v.04c-.01.02-.02.03-.04.03-.26 0-.43 0-.5.02-.06 0-.09.05-.07.13Z" fill="#DDA19A"/><path d="M33.65 23.86a.47.47 0 0 0-.09.18.15.15 0 0 1-.12.1c-.13.04-.27.05-.4.03-.07 0-.08-.04-.06-.1.07-.14.11-.28.12-.41 0-.04.02-.06.06-.06.16 0 .34-.07.55-.2.04-.02.06 0 .07.03.03.18-.02.32-.13.43Z" fill="#FABA41"/><path d="M23.1 24.11a.7.7 0 0 1-.22-.41.08.08 0 0 1 .02-.08.08.08 0 0 1 .08-.02l.25.1c.1.04.17.08.2.13.03.07.02.16-.04.3a.14.14 0 0 1-.2.04 2.31 2.31 0 0 1-.08-.06Z" fill="#838024"/><path d="M27.44 24.02a.15.15 0 0 0-.04.06.52.52 0 0 0-.28-.04l-.66.07c.01-.03-.04-.05-.14-.05.29-.15.83-.28 1.12-.04Z" fill="#9E968A"/><path d="m28.03 24.36-.4.13c-.1.02-.11 0-.06-.09.03-.05.03-.12.01-.2 0-.03 0-.06.02-.09l.12-.11c.04-.05.08-.05.13-.02.1.07.18.16.22.27.02.05 0 .09-.04.1Z" fill="#7B8FAA"/><path d="m27.4 24.08.05.06a.1.1 0 0 1 .02.1l-.08.22a.08.08 0 0 1-.07.05c-.73.12-1.18.2-1.36.26-.59.18-1.07.41-1.38.92l-.35.16a.1.1 0 0 1-.1 0l-.26-.13c-.05-.12-.09-.2-.11-.2-.24-.12-.27-.07-.1.13.28.34.4.76.35 1.25a1.87 1.87 0 0 0-.25-.18c-.1-.07-.18-.13-.24-.2l-.3-.3c-.02-.15 0-.32.06-.5a.6.6 0 0 0 .18-.35c0-.04 0-.07-.02-.1a.5.5 0 0 1 .01-.47.1.1 0 0 1 .17-.04l.38.31c.03.03.06.04.1.03.34-.01.62-.08.85-.21.66-.37 1.17-.63 1.51-.78l.66-.07c.1-.01.2 0 .28.04Z" fill="#E4E4E4"/><path d="m31.3 24.45.06.03c.02.03.02.05-.03.06h-.03l-.03-.01-.18-.23a.07.07 0 0 1 .02-.09.5.5 0 0 1 .26-.17.04.04 0 0 1 .04.01l.01.02v.02c0 .13-.04.2-.13.2-.04 0-.06.03-.06.07l.03.06.05.03ZM31.87 24.25l.22-.05c.04-.01.06 0 .04.05-.05.23-.18.34-.38.35-.04 0-.06-.01-.05-.05v-.12a.2.2 0 0 1 .17-.18Z" fill="#EFEE6D"/><path d="M23.22 24.6a.06.06 0 0 1-.06.06h-.02a.42.42 0 0 1-.23-.03c-.06-.03-.1-.08-.1-.13l-.01-.02c0-.05.02-.11.07-.16a.42.42 0 0 1 .22-.09h.02a.06.06 0 0 1 .07.06l.04.3Z" fill="#838024"/><path d="M33.56 24.75a.43.43 0 0 1-.27.23c-.04.01-.06 0-.07-.03l-.03-.12a.1.1 0 0 0-.06-.07l-.26-.1a.11.11 0 0 1-.07-.07.34.34 0 0 1 .03-.28c.02-.04.05-.05.08-.04.14.03.31.03.52 0 .12-.02.21-.01.27.02.09.05.15.12.18.22.04.12.02.2-.07.23a.11.11 0 0 1-.1 0l-.07-.02h-.05a.06.06 0 0 0-.03.03Z" fill="#FABA41"/><path d="M28.47 24.96c-.35-.02-.6-.02-.76 0-.2.02-.43.09-.7.21l.06-.47c0-.04.02-.05.06-.05.3.02.6-.03.86-.14.05-.02.08 0 .1.04l.02.04c.01.03 0 .05-.03.05l-.57.15c-.04.01-.05.03-.04.07l.02.03c0 .01.02.02.03.01.17-.08.35-.14.53-.19.1-.02.2-.02.25.02.07.05.13.12.17.23Z" fill="#53627B"/><path d="m29.32 25.31-.5.39-.13-.7a.1.1 0 0 0-.02-.05l-.2-.2c-.04-.04-.04-.06.02-.05.4.04.67.24.83.61Z" fill="#E4E4E4"/><path d="M24.53 27a1 1 0 0 0 .89.32c.19-.02.36-.12.51-.3.15-.16.29-.37.42-.62.04-.08.05-.15.03-.21-.07-.22-.12-.3-.4-.31h-.4c.03-.05-.02-.06-.13-.02-.37.14-.66.37-.87.71-.1.18-.16.36-.17.57 0 .02-.01.02-.03.02l-.03-.01v-.02l-.03-.13c.1-.25.1-.49.02-.72a.06.06 0 0 0-.04-.04l-.02-.01c-.04-.03-.06-.01-.07.03v.08l-.03.07c-.01.03-.02.03-.04 0l-.02-.03-.25-.66.26.13a.1.1 0 0 0 .1 0l.35-.16-.14.47v.05l.04.03.04.02h.01a.03.03 0 0 0 .02-.02c0-.53.49-.97.93-1.17.4-.17.85-.3 1.36-.38.1-.01.14.03.12.13-.1.44-.33.64-.7.62-.14-.01-.15.02-.02.1.07.03.13.06.17.14.16.41 0 .84-.17 1.26-.08.21-.21.37-.38.48-.26.17-.5.26-.7.27-.47.02-.68-.2-.63-.69Z" fill="#DED9D1"/><path d="M31.02 24.92c.03.1.1.16.15.14.05-.02.07-.1.04-.2-.03-.1-.1-.16-.15-.15-.06.02-.08.11-.04.2Z" fill="#EFEE6D"/><path d="M31.29 24.98c-.06.12-.06.23 0 .26s.15-.04.21-.16.05-.24 0-.27c-.06-.02-.16.05-.21.17Z" fill="#FABA41"/><path d="M28.47 24.96c.05.04.1.13.13.27-.64.07-1.24.23-1.8.5a.1.1 0 0 1-.1 0c-.06-.04-.11-.12-.16-.23.21-.07.36-.18.46-.33.28-.12.52-.2.71-.21.15-.02.4-.02.76 0Z" fill="#7B8FAA"/><path d="M33.76 25.95c.02.01.04.03.06.07l-.02.06c-.02.03-.05.03-.08 0a1 1 0 0 1-.28-.59c0-.04 0-.08.02-.12a.25.25 0 0 1 .06-.1.2.2 0 0 1 .1-.05l.12.01c.02.02.04.06.05.13.02.18.06.32-.07.47a.08.08 0 0 0-.02.07.08.08 0 0 0 .06.05Z" fill="#838024"/><path d="M28.69 25.78c-.73-.01-1.4.17-2 .54-.04.02-.06.01-.08-.02-.02-.04-.02-.1 0-.2-.08-.25-.1-.44-.07-.6.05.11.1.19.17.22a.1.1 0 0 0 .1 0 5.65 5.65 0 0 1 1.8-.5c.09.16.11.34.08.56Z" fill="#53627B"/><path d="m22.71 25.33-.3.43c-.03-.07 0-.19.09-.34.05-.07.12-.1.21-.1Z" fill="#7B8FAA"/><path d="M23.28 25.72c-.06.18-.08.35-.07.5a.6.6 0 0 1-.03.2 12.74 12.74 0 0 1-.43-.52.41.41 0 0 1-.1-.07.07.07 0 0 0-.07-.02c-.04.01-.1 0-.16-.05l.3-.43c.36-.03.55.1.56.4Z" fill="#53627B"/><path d="m28.82 25.7.5-.39c.02.46-.15.8-.5 1.05-.07.05-.1.03-.09-.06l.1-.6Z" fill="#9E968A"/><path d="M31.74 26c-.14.13-.27.17-.4.14a1.58 1.58 0 0 0-.79 0l-.25.07c-.24.06-.45.16-.61.3a.06.06 0 0 1-.07 0 .42.42 0 0 0-.33-.1.02.02 0 0 1-.03-.03l.01-.01c.42-.37.7-.59.82-.65.29-.14.5-.2.63-.16.15.03.31.06.47.07.2.02.38.14.55.37ZM24.53 27c.14-.52.49-.9 1.06-1.12h.4c.27.01.32.09.4.3.01.07 0 .14-.04.22a3.1 3.1 0 0 1-.42.63.84.84 0 0 1-.51.3 1 1 0 0 1-.89-.33Z" fill="#E4E4E4"/><path d="M32.85 26.1c.07.1.21.17.33.2a.15.15 0 0 1 .1.16l-.01.14c-.01.09-.06.12-.15.1a1.65 1.65 0 0 0-.62.02.1.1 0 0 1-.12-.08c-.04-.3.07-.5.34-.65.03-.02.06-.01.08.02l.05.08Z" fill="#838024"/><path d="M31.25 26.53c-.1-.15-.33-.28-.7-.39.28-.07.54-.07.79 0 .13.03.26-.01.4-.14.04.1.04.2-.01.32-.13.25-.29.32-.48.21Z" fill="#9E968A"/><path d="M30.55 26.14c.37.11.6.24.7.39l-.07.08a.5.5 0 0 0-.41-.2h-.52c.05-.01.08-.03.1-.07 0-.06 0-.1-.05-.13l.25-.07Z" fill="#685C60"/><path d="M24 26.9c-.04.25-.16.39-.35.4-.03 0-.05 0-.05-.04a1.23 1.23 0 0 0-.42-.84.6.6 0 0 0 .04-.2l.3.3c.06.07.14.13.24.2l.25.18Z" fill="#9E968A"/><path d="m24.32 27-.08-.04-.03-.62v-.08c0-.04.03-.06.07-.03l.02.01c.02.01.03.02.03.04.1.23.09.47-.01.72Z" fill="#2D2C31"/><path d="m32.22 26.35.06.18c.02.05 0 .07-.05.05-.06-.03-.1-.07-.09-.13v-.12c.04-.04.07-.03.08.02Z" fill="#838024"/><path d="m24.21 26.34.03.62c-.03.07-.07.11-.12.13-.03 0-.05 0-.05-.04l.05-.67.02.04c.02.02.03.02.04 0l.03-.08Z" fill="#9E968A"/><path d="M30.25 26.41h.52a.5.5 0 0 1 .41.2c.01.02.04.04.08.05.35.08.53.3.55.66l-.08-.02a.12.12 0 0 1-.08-.06.55.55 0 0 0-.4-.28 2.48 2.48 0 0 0-1.77.2c-.07.04-.13.04-.16.01-.03-.02-.03-.05-.02-.08.2-.39.52-.61.95-.68Z" fill="#E4E4E4"/><path d="M28.47 26.73c-.1 0-.16-.04-.2-.13-.02-.03 0-.05.03-.06.3-.09.53-.03.68.16.03.05.02.07-.04.06a61 61 0 0 1-.29-.03h-.18ZM29.24 26.58l.14.14c.03.02.03.04 0 .06l-.04.02-.04-.02a.46.46 0 0 1-.1-.18c-.01-.06 0-.06.04-.02Z" fill="#9E968A"/><path d="M33.64 26.62a.04.04 0 0 1 .06.02l.08.15a.7.7 0 0 1 .07.2.2.2 0 0 1 0 .09l-.03.04-.06.03c-.03.01-.07 0-.12-.04a.6.6 0 0 1-.13-.17l-.08-.16a.04.04 0 0 1 .01-.05l.2-.1Z" fill="#838024"/><path d="M22.78 26.87c.1.05.2.06.22.02.02-.04-.04-.11-.14-.17-.1-.05-.2-.06-.22-.02-.02.04.04.12.14.17Z" fill="#DED9D1"/><path d="m32.2 27.69-.33-.26c.14-.5.56-.7 1.28-.6.1 0 .17.07.23.18.05.07.04.14 0 .2l-.21.32c-.05.07-.08.06-.1-.02-.01-.11-.08-.16-.2-.15-.2.02-.43.13-.66.33Z" fill="#E4E4E4"/><path d="m26.2 27.5.05-.26c.22-.2.49-.3.78-.3l.1-.01a.9.9 0 0 1 .4-.07l.26.01.74-.02a.16.16 0 0 1 .16.09l.14.3v.06l-.03.05v.03a1 1 0 0 1-.04.3.4.4 0 0 1-.16.22c-.1.08-.28.22-.46.27-.4.12-.8.11-1.2-.03a1 1 0 0 1-.4-.28l-.34-.36Z" fill="#710808"/><path d="M29.03 27.18c.02.1.02.22 0 .34-.01.03-.03.05-.06.06h-.03l-.01-.02v-.01a.9.9 0 0 0-.13-.7v-.02h.02l.02-.01c.03 0 .05.01.07.04.06.1.1.2.12.32ZM31.8 27.32c-.1.46-.35.6-.76.43H31l-.01.03.01.01.25.18c.1.08.11.16.03.26l-.03.03c-.08.09-.17.1-.27.02l-.15-.12c-.03-.02-.04-.02-.04.02 0 .03.01.05.03.07.15.18.3.37.41.58v.06h-.05l-.11-.06c-.14-.05-.16-.01-.08.11l.1.06c0 .14 0 .29-.03.44 0 .03-.02.06-.05.08a.4.4 0 0 1-.14.08.05.05 0 0 0-.03.07.2.2 0 0 1 .02.12c0 .04-.02.06-.07.05l-.03-.01c-.05-.02-.06 0-.05.04l.01.03-.01.03c-.1.05-.22.04-.31.07-.31.1-.57.26-.8.46-.02.02-.04.02-.04-.02l-.03-.26c.27-.09.45-.17.55-.24.1-.07.3-.26.56-.56.1-.11.13-.2.1-.35a.52.52 0 0 1 .1-.45.14.14 0 0 0-.08-.22c-.2-.04-.36-.06-.5-.06-.11 0-.23.08-.33.23a.18.18 0 0 0-.11-.02.41.41 0 0 1 0-.19c.01-.03 0-.05-.03-.05l-.03-.01c-.04-.03-.04-.05 0-.08.18-.14.41-.2.68-.2.08 0 .13-.03.15-.1.03.04.06.05.09.04.04 0 .05-.03.02-.06a.31.31 0 0 0-.14-.1.93.93 0 0 1 .12-.4.1.1 0 0 1 .08-.05l.13-.01h.02l.02-.03c0-.02 0-.03-.02-.04a1.66 1.66 0 0 0-1.02-.08c-.16.04-.3.04-.41.02a2.48 2.48 0 0 1 1.78-.21c.18.03.3.13.4.29a.12.12 0 0 0 .07.05l.08.02Z" fill="#9E968A"/><path d="M23.14 27.52c-.22.1-.4.09-.54-.06a.12.12 0 0 1-.03-.1l.03-.24c0-.05.03-.08.08-.08l.31-.04a.08.08 0 0 1 .08.03c.02.04.07.07.14.08h.02a.04.04 0 0 1 .02.05v.02a.37.37 0 0 0-.07.27.07.07 0 0 1-.04.07Z" fill="#710808"/><path d="M27.38 27.38c.09-.05.1-.14.04-.28.08-.12.2-.1.35.07a.26.26 0 0 1 .03.33.27.27 0 0 1-.08.08c-.1.06-.21.06-.35.02-.1-.04-.11-.08-.01-.13l.02-.1Z" fill="#140E0A"/><path d="M27.42 27.1c.06.14.05.23-.04.28-.1 0-.17 0-.19-.04a.18.18 0 0 1 .05-.27c.05-.02.11-.02.18.03Z" fill="#E4E4E4"/><path d="M30.56 27.76c-.27-.14-.47-.15-.59-.05-.07.04-.17.02-.31-.05.18-.2.26-.37.23-.5.33-.09.67-.06 1.02.07.02 0 .02.02.02.04 0 0 0 .02-.02.02h-.02a1 1 0 0 0-.13.02.1.1 0 0 0-.08.05.93.93 0 0 0-.12.4Z" fill="#685C60"/><path d="M33.47 27.89c.1.12.12.1.07-.04a.76.76 0 0 1 .04-.57c.02-.05.09-.06.2-.02h.03l.01-.02.08-.1a.05.05 0 0 1 .04-.02.05.05 0 0 1 .04.02c.09.1.11.18.09.24a.46.46 0 0 1-.33.28.09.09 0 0 0-.07.07v.04c.05.14.12.38-.03.47-.08.05-.16.05-.24 0a.07.07 0 0 0-.1.02c-.02.01-.02.03-.02.04l.03.21c0 .04 0 .06-.02.09a.13.13 0 0 1-.14.07.29.29 0 0 1-.12-.06.65.65 0 0 0-.33-.16.06.06 0 0 1-.02-.06c.04-.2.23-.2.42-.22a.17.17 0 0 0 .15-.14c.01-.1.02-.21.01-.37 0-.02.01-.03.03-.04.03-.02.05-.02.07.02.05.13.08.21.11.25Z" fill="#838024"/><path d="m26.25 27.24-.05.26a.18.18 0 0 1-.13.04c-.05 0-.05.02-.03.05.02.04.04.07.04.1a.08.08 0 0 1-.03.08.25.25 0 0 1-.17.05.13.13 0 0 1-.07-.23l.44-.35Z" fill="#DED9D1"/><path d="M25.06 28.32c.12.86-.21 1.58-1.15 1.68-.55.07-1.02-.15-1.41-.64-.05-.26-.04-.53.02-.8a1.1 1.1 0 0 1 .42-.65c.13-.08.2-.14.24-.18a.45.45 0 0 1 .26-.13l.29-.11c.1-.04.23 0 .4.08l.57.27c.1.06.23.21.36.48Z" fill="#BE2A2B"/><path d="m31.87 27.43.34.26c-.22.18-.4.36-.5.52-.07.09-.12.22-.16.4v.09l.09.19c.01.03.02.07 0 .1 0 .04-.02.07-.05.1l-.04.02c-.05.05-.1.04-.13-.03l-.2-.44c-.02-.06-.01-.1.04-.13.22-.14.28-.31.2-.52-.02-.04-.01-.06.02-.08.2-.12.33-.28.4-.48Z" fill="#9E968A"/><path d="M29.66 27.66c.14.07.24.1.31.05l.62.17c-.02.07-.07.1-.14.1-.28 0-.5.06-.7.2-.03.03-.03.05.01.08h.03c.03.01.04.03.03.06a.41.41 0 0 0 0 .19c-.2.3-.5.5-.88.6.1-.17.15-.36.15-.54.05-.18.13-.35.23-.52a.5.5 0 0 0 .1-.4c-.01-.04 0-.06.04-.05.09 0 .15.03.2.06Z" fill="#E4E4E4"/><path d="M29.1 28.57c0 .18-.06.37-.16.55-.43.1-.86.1-1.3-.04a1.22 1.22 0 0 1-.48-.31l-.45-.45a3.35 3.35 0 0 0-.45-.34l.04-.2c.17.26.4.41.65.48.27.07.6.09.97.06.34-.03.65-.15.92-.36.09-.08.17-.18.22-.32.01-.03.03-.03.06 0l.02.01v.02c-.13.33-.36.54-.7.64a5.75 5.75 0 0 1-.74.17v.03l.01.02c.45.02.86-.1 1.21-.39.05-.03.08-.02.1.05v.03a.17.17 0 0 1-.07.15c-.42.31-.82.42-1.19.33-.05-.02-.06 0-.03.05l.03.05a.1.1 0 0 0 .07.05c.4.06.76-.04 1.06-.27.03-.03.05-.02.07.01l.01.05c.01.03.04.04.07.01a.2.2 0 0 0 .05-.08Z" fill="#53627B"/><path d="m26.3 27.79-.04.19-.16.08c-.03.02-.06.01-.08-.01l-.01-.04c0-.03 0-.05.03-.07a.42.42 0 0 0 .18-.22c0-.04.03-.04.05-.01a.2.2 0 0 1 .03.08Z" fill="#9E968A"/><path d="M23.24 28.5a.31.31 0 1 0 0-.62.31.31 0 0 0 0 .62Z" fill="#E4E4E4"/><path d="M25.71 27.9c.1.01.16.04.18.08.07.13.17.17.29.13a.1.1 0 0 1 .09.01l.41.3c.16.15.35.36.57.63.01.06.05.13.1.22.03.07.08.13.14.19.38.3.67.49.9.54l.57.16c0 .2-.05.37-.18.51h-.02l-.02-.01v-.03l.05-.1c.01-.03 0-.06-.04-.08-.08-.05-.2-.13-.33-.13a.6.6 0 0 1-.25-.04.08.08 0 0 0-.09 0c-.04.05-.1.04-.15-.03-.33-.4-.75-.75-1.25-1.04a.94.94 0 0 0-.23-.09c-.13-.04-.25-.1-.36-.18-.14-.1-.36-.12-.64-.06-.03.01-.05 0-.05-.04a.68.68 0 0 0-.1-.35l-.14-.22c.02-.07.1-.05.24.06a4.9 4.9 0 0 1 .33.29l.02-.01v-.02l.02-.05v-.04l-.47-.37c-.03-.02-.03-.05 0-.07.05-.03.1-.03.17-.02l.22.26.05.04.05.01.05-.01a.1.1 0 0 0 .04-.04v-.06a.13.13 0 0 0-.08-.07c-.27-.1-.3-.2-.09-.27Z" fill="#DDA19A"/><path d="m22.36 29.38.02.12c0 .04-.02.05-.05.03-.21-.13-.33-.29-.35-.47-.05-.5.1-.86.46-1.08a.15.15 0 0 1 .11-.01c.04 0 .06.02.07.06 0 .01 0 .03-.03.07-.18.31-.27.7-.26 1.13l.03.15Z" fill="#DED9D1"/><path d="M32.2 28.37h.03a.8.8 0 0 0 .07 0c.13-.05.19-.03.2.05l-.02.04-.03.03-.65.3c-.09.03-.13 0-.14-.09 0-.07.01-.13.03-.18.04-.12.09-.19.15-.21.07-.03.17-.1.3-.18a.14.14 0 0 1 .13-.02.04.04 0 0 1 .02.03v.03l-.1.13c-.03.03-.02.05 0 .07Z" fill="#685C60"/><path d="m25.16 28.27.14.22a.27.27 0 0 0-.01.28c.01.03.02.07.01.1a1.1 1.1 0 0 1-.06.25l-.15.36c-.06.16-.13.27-.2.32-.09.06-.17.13-.24.2a.57.57 0 0 1-.27.13l-.3.09c-.24.08-.48.09-.7.02a1.86 1.86 0 0 1-.72-.43c-.14-.13-.2-.28-.16-.45.39.49.86.7 1.41.64.94-.1 1.27-.82 1.15-1.68.08-.01.11-.03.1-.05Z" fill="#710808"/><path d="M29.53 30.18c-.02-.26 0-.5.06-.7.02-.03.04-.05.08-.04.3.03.57-.05.8-.23.02 0 .02-.01.03-.02v-.03l.01-.07c0-.03 0-.03-.03-.02a1.4 1.4 0 0 1-.81.27.1.1 0 0 1-.08-.04c-.08-.1-.17-.13-.3-.1-.04.01-.06 0-.06-.04s.04-.07.1-.1c.25-.1.45-.28.6-.52.1-.16.22-.24.34-.24.13 0 .3.02.49.06a.14.14 0 0 1 .1.16c0 .02 0 .04-.02.06a.52.52 0 0 0-.1.45c.03.15 0 .24-.1.35-.27.3-.46.49-.57.56-.09.07-.27.15-.54.24Z" fill="#E4E4E4"/><path d="M22.97 28.9a.17.17 0 1 0 0-.33.17.17 0 0 0 0 .33Z" fill="#DED9D1"/><path d="M27.25 29.05a3.06 3.06 0 0 0 1.86.24.1.1 0 0 1 .06.11l-.21.76-.57-.16a2.65 2.65 0 0 1-.9-.54.57.57 0 0 1-.15-.19l-.09-.22Z" fill="#E4E4E4"/><path d="M26.48 29.4c.02-.02.04-.02.06 0 .43.32.84.69 1.2 1.11.03.03.03.06.02.1-.04.09-.03.18.02.27.02.03.02.06 0 .1l-.07.07c-.03.04-.05.04-.06-.02-.04-.22-.06-.4-.07-.55-.01-.13-.07-.2-.18-.2-.07-.02-.14.01-.2.08-.04.04-.1.09-.2.15a.1.1 0 0 0-.04.08v.13c0 .03-.02.06-.04.09a.86.86 0 0 0-.2.77.04.04 0 0 1-.03.04h-.02l-1.35-.6a.68.68 0 0 0-.38-.05.68.68 0 0 0-.31.18c-.1.09-.21.15-.34.2-.1-.01-.17-.01-.22.01a.8.8 0 0 1-.42-.35.1.1 0 0 0-.08-.05c-.2-.02-.77-.16-.93-.36a.16.16 0 0 1-.04-.1c0-.02 0-.06.03-.09a.24.24 0 0 1 .07-.08.27.27 0 0 1 .1-.04c.2-.05.44 0 .69.11.13.06.18.18.13.34-.02.04 0 .08.06.1l.03.02h.04l.02-.03v-.02c.03-.24.14-.4.34-.48.1-.06.2-.08.28-.05.04 0 .05.03.04.06l-.16.42c0 .02-.02.04-.04.05-.08.03-.13.08-.15.14a.06.06 0 0 1-.06.04H24l-.06-.03a.08.08 0 0 0-.08.01.08.08 0 0 0-.03.07c0 .19.2.27.36.23.12-.02.24-.1.36-.2.09-.1.13-.22.13-.39-.01-.18-.03-.32-.05-.42-.01-.04 0-.07.02-.1l.27-.25c.08-.07.2-.11.34-.1.17 0 .34.06.52.17a.1.1 0 0 0 .12-.02c.02-.03.02-.05.02-.07-.04-.09-.07-.14-.12-.17a.8.8 0 0 0-.65-.03v-.01l.18-.4.03-.03a1 1 0 0 1 .84 0c.15.06.16.15.17.3.01.33-.11.52-.37.57-.2.04-.38-.09-.53-.12a.12.12 0 0 1-.08-.06c-.03-.04-.06-.06-.08-.07-.04 0-.07 0-.08.04a.32.32 0 0 0-.03.17c0 .04.02.06.06.08.05.02.13.02.21-.02a.1.1 0 0 1 .1 0l.14.1c.23.14.61-.13.74-.31a.37.37 0 0 0 .06-.26l-.03-.27Z" fill="#DED9D1"/><path d="m26.57 29.32-.07-.1.06-.03h.02l.02.01.88.7v.03l-.03.03a.05.05 0 0 1-.07.01l-.81-.65Z" fill="#9E968A"/><path d="M28.76 32.22c.03-.22.07-.37.12-.46.05-.1.08-.25.1-.46 0-.3.02-.53.1-.78a10.36 10.36 0 0 0 .27-1.08l.04-.03h.01a5.06 5.06 0 0 0-.03 1.38c0 .18-.02.4-.08.66-.06.28-.1.63-.13 1.04a.91.91 0 0 1-.28.64.14.14 0 0 1-.09.04.34.34 0 0 0-.19.06c-.05.03-.06.02-.05-.04a.7.7 0 0 0 0-.26.15.15 0 0 0-.03-.08 1.46 1.46 0 0 1-.32-.57c-.04-.12-.08-.12-.13-.02l-.11.24c-.02.04-.02.07-.02.1.07.35-.23.54-.32.84-.05.16-.07.16-.04 0 .04-.32 0-.6.03-.93.06-.43.13-.87.24-1.32a.2.2 0 0 1 .05-.1.97.97 0 0 0 .26-.48h.02c.04.14.1.2.17.16.03-.02.05 0 .04.04-.06.2-.09.4.04.6.1.14.15.32.18.54.01.1.05.17.1.27.02.06.04.05.05 0Z" fill="#E4E4E4"/><path fill-rule="evenodd" d="M35.11 29.05h.05c.05 0 .06 0 .02.04-.13.1-.27.18-.43.22a.82.82 0 0 0-.22.1l-.11.07c-.05.02-.07.01-.07-.04l.02-1.03-.01-.02a2149.5 2149.5 0 0 0-.31 1.13c-.07.22-.1.44-.1.64s-.02.35-.06.45c-.08.2-.12.35-.13.44-.04.21-.07.2-.12 0-.06-.31-.14-.56-.25-.76a.49.49 0 0 1-.07-.28c.01-.13.03-.23.05-.3l-.01-.02-.2-.08c-.02 0-.03 0-.04.02-.03.13-.12.28-.26.43a.17.17 0 0 0-.05.1c-.04.29-.11.68-.21 1.17a1.6 1.6 0 0 0-.03.51c.03.21.02.42-.03.62v.01h.02l.01-.05c.03-.1.06-.2.14-.3.06-.06.11-.15.17-.25a.55.55 0 0 0 .05-.3c0-.13.05-.27.16-.41a.05.05 0 0 1 .08-.01v.02c.07.23.15.4.27.54.06.07.1.14.1.2l-.02.17-.01.12c0 .06.01.06.04 0l.02-.04c.02-.04.05-.06.09-.05.13.02.23-.04.32-.18a.17.17 0 0 1 .13-.09c.04 0 .1 0 .17.02.06.02.07.05.05.1l-.08.24v.01h.04c.01 0 .02 0 .03-.02l.04-.18a.14.14 0 0 1 .07-.09c.24-.14.5-.28.8-.4a76.1 76.1 0 0 0 1.52-.66.82.82 0 0 1 .19-.06l.12-.02-.56-.06c-.2-.02-.3.04-.44.13a6.6 6.6 0 0 1-.15.06c-.25.02-.47.09-.66.2-.08.05-.16.08-.25.1-.08.03-.15.05-.22.09-.1.05-.13.03-.08-.07.11-.2.2-.38.24-.51.07-.19.2-.23.37-.29h.03c.1-.04.26-.14.44-.29.03-.03.03-.04-.01-.06a.5.5 0 0 0-.47.07c-.06.04-.1.04-.14-.02a.08.08 0 0 1 0-.07l.16-.42c.03-.09.09-.15.18-.2l.8-.36c.05-.02.05-.04 0-.07-.16-.1-.32-.11-.47-.02a.2.2 0 0 1-.1.03l-.37.03-.05-.01a.35.35 0 0 0-.2-.04h-.01v.04s0 .02.01.01Zm-.65 1.23a.13.13 0 0 1 .05-.03l.16-.04a.08.08 0 0 0 .06-.07c0-.1.04-.2.1-.3v-.03a.06.06 0 0 0-.06-.06c-.17 0-.27-.04-.33-.12-.07-.1-.1-.1-.1.03.03.3 0 .6-.1.91-.06.24-.1.5-.1.79 0 .2.06.22.17.05.12-.17.2-.38.24-.64.02-.13-.03-.22-.1-.32a.13.13 0 0 1-.03-.12c0-.02.02-.03.04-.05Z" fill="#E4E4E4"/><path d="M32.91 29.64h.07c.04 0 .04 0 .02.03-.03.03-.06.04-.1.03-.04-.02-.04-.04.01-.06Z" fill="#9E968A"/><path d="M27.34 30.7c0-.03 0-.04.02-.05.03-.02.05 0 .05.03l.06.5c.01.15 0 .3-.06.48-.16.53-.22 1.12-.31 1.6-.03.13-.07.26-.14.38a58.69 58.69 0 0 0-.27.46c.09-.43.03-.78.09-1.2.03-.19.04-.5.02-.93 0-.06.03-.16.1-.3a.15.15 0 0 0 .01-.1c-.07-.38.07-.66.4-.83l.03-.02v-.03Z" fill="#E4E4E4"/><path d="M24.07 31.36c.05-.02.13-.02.22 0-.02.09.02.11.15.07a.57.57 0 0 0 .12-.07c.06-.05.1-.07.14-.07.2.08.37.02.49-.15.5.14.97.34 1.41.59.05.03.07.07.05.13l-.02.05a.1.1 0 0 1-.13.06l-.8-.36a.63.63 0 0 0-.42-.02c-.4.13-.72.2-1.11.18a1.23 1.23 0 0 1-.6-.18c-.3-.19-.53-.4-.7-.64-.02-.03-.01-.04.02-.04.3.05.56.17.77.35l.17.14c.14.07.22.06.24-.04Z" fill="#BE2A2B"/><path fill-rule="evenodd" d="m32 32.75.1-.01c.13-.25.17-.5.11-.76 0-.03 0-.06.04-.07l.22-.1a.08.08 0 0 0 .02-.13l-.13-.1a.13.13 0 0 1-.05-.11v-.96l.04-.52c.01-.22 0-.48-.06-.78-.01-.05-.03-.05-.05 0a.6.6 0 0 1-.16.2.97.97 0 0 0-.14.28 1.3 1.3 0 0 1-.14.26l-.13.25c-.24.78-.39 1.26-.43 1.43 0 .04-.02.06-.05.08-.1.07-.24.12-.41.15a.08.08 0 0 1-.08-.03l-.28-.28a.9.9 0 0 1-.26-.32c-.08-.23.01-.43.26-.6.1-.07.17-.05.24.03.04.06.08.15.11.28.02.05.04.06.07.03.14-.12.2-.25.2-.41a.35.35 0 0 0-.16-.3.48.48 0 0 0-.4-.1c-.1.03-.3.13-.57.3a.47.47 0 0 0-.23.32l-.02.13c-.06.3-.08.4.1.7.08.14.16.31.25.52.01.04.03.04.05 0l.03-.1c.01-.04.04-.06.07-.06a.1.1 0 0 1 .1.04c.02.02.03.05.03.08 0 .05.02.08.05.1.03.02.04.05.05.08.03.1.02.2 0 .3a.13.13 0 0 1-.07.07.8.8 0 0 1-.35.1c-.2.01-.35-.06-.45-.21-.08-.13-.05-.28-.03-.45a4.56 4.56 0 0 0 .01-.1l-.02-.02-.03.01-.05.44a.2.2 0 0 1-.04.1c-.04.05-.05.1-.02.16v.1a.42.42 0 0 0-.02.19c0 .04.02.07.06.08l.39.14c.03.02.06.02.1.01.27-.05.44-.1.52-.14.32-.19.48-.48.49-.86 0-.04.02-.06.05-.07l.15-.02c.04 0 .06.01.06.06l-.04.35v.07c.18-.15.32-.32.4-.53a.08.08 0 0 1 .07-.06l.25-.03c.03 0 .04 0 .04.03l.1.69c0 .03.01.05.04.07Zm-.12-1.66c0-.02 0-.02-.02 0-.07.09-.14.23-.19.43-.01.04 0 .06.05.04l.09-.04a.08.08 0 0 0 .04-.07l.03-.36Z" fill="#E4E4E4"/><path d="M25.19 31.14c-.12.17-.28.23-.5.15.2-.17.35-.22.5-.15Z" fill="#DDA19A"/><path d="m23.55 31.76-.08.06c-.03.03-.06.02-.08-.01l-.09-.15c-.1-.19-.08-.21.08-.08l.16.1c.05.02.05.05.01.08Z" fill="#9E968A"/><path d="m26.35 32.53.02.03c0 .01 0 .02-.02.02a.34.34 0 0 1-.35-.04.12.12 0 0 1-.05-.09c-.07-.61-.85-.84-1.02-.12 0 .03-.02.05-.05.05-.23.01-.52-.03-.64-.25a3.7 3.7 0 0 0-.17-.22c-.02-.03-.01-.04.03-.05.37 0 .74.01 1.08-.17.14-.08.33-.07.58.03l.81.37c.04.02.05.06.04.12 0 .04-.03.05-.06.05-.14-.02-.22.05-.23.2 0 .04 0 .06.03.07Z" fill="#DDA19A"/><path d="M23.77 31.88c.15.04.26.13.35.27.05.08.05.21 0 .39-.04.2-.07.4-.08.6 0 .08-.03.09-.07.02-.17-.22-.42-.53-.48-.76a1.16 1.16 0 0 1-.02-.4c0-.03.01-.05.03-.07a.18.18 0 0 1 .07-.04.29.29 0 0 1 .1-.02h.1Z" fill="#E4E4E4"/><path d="M25.63 32.95c.09-.32 0-.5-.28-.53-.04 0-.07.01-.1.03a.4.4 0 0 0-.11.36l-.07-.32c-.04-.15-.04-.25 0-.3.1-.15.22-.21.36-.18.27.05.4.2.4.42 0 .16-.06.33-.2.52Z" fill="#9E968A"/><path d="M33.33 34.94v.02l.02.01h.01c.22-.06.4-.12.55-.18a.6.6 0 0 1 .23-.05c.18 0 .38-.14.53-.1.1.02.18.05.27.1.04.02.04.04 0 .06-1.04.43-1.65.67-1.8.71-.2.05-.36-.01-.5-.19-.02-.03-.01-.06.02-.08l.28-.17a.16.16 0 0 0 .04-.05c.08-.12.06-.28.15-.42l.27-.45c.08-.14.18-.29.3-.45.13-.2.28-.44.44-.75.06-.11.03-.14-.08-.1l-.35.14a.3.3 0 0 1-.31-.07l-.2-.2c-.03-.03-.03-.05.02-.07a.98.98 0 0 0 .2-.08.72.72 0 0 1 .2-.07l1.1-.21c.2-.04.29.02.46.04.05 0 .05.02 0 .04-.37.18-.4.62-.69.93-.28.3-.55.77-.85 1.13-.12.14-.23.31-.31.5Z" fill="#BE2A2B"/><path d="M26.54 32.4h-.01a.05.05 0 0 0-.05.05l.02.52c0 .03.02.05.05.05h.01c.03 0 .06-.02.06-.05l-.03-.53a.05.05 0 0 0-.05-.05Z" fill="#DED9D1"/><path d="M25.63 32.95c-.1.27-.21.5-.36.7-.06.08-.08.07-.09-.02l-.04-.82a.4.4 0 0 1 .12-.36.11.11 0 0 1 .09-.03c.27.03.37.2.28.53Z" fill="#E4E4E4"/><path fill-rule="evenodd" d="M31.1 32.58v-.07c-.3.3-.5.61-.64.95a15.3 15.3 0 0 0-.45 1.49 2.34 2.34 0 0 1-.28.15c-.25.1-.5.2-.62.5l-.02.01c-.02.02-.05.02-.07.01a.07.07 0 0 1-.05-.06c-.02-.41 0-.74.08-.98l.28-.92c.03-.11.01-.24-.07-.4h-.02v.03a.26.26 0 0 1-.07.08c-.21.15-.34.28-.38.4-.11.31-.22.91-.33 1.8 0 .03-.01.06-.04.1a.44.44 0 0 0-.05.48.22.22 0 0 0 .28.11l.27-.12c.35-.16.62-.28.99-.33.03 0 .06-.01.09-.04a.81.81 0 0 0 .27-.43c0-.04.03-.06.07-.06l.27-.04c.05 0 .07.01.05.06a.43.43 0 0 0 .04.34v.05a.1.1 0 0 1 0 .05l-.04.04a.12.12 0 0 1-.05.02c-.02 0-.04 0-.06.02-.04.02-.03.04.01.04.12 0 .17.07.17.19a19.37 19.37 0 0 0 .01.34l.21-.57c.02-.03.04-.04.09-.05l.4-.07c.03 0 .05-.02.07-.03.22-.19.37-.3.44-.32.43-.13.77-.39 1.04-.77a.19.19 0 0 0-.03-.24.89.89 0 0 0-.43-.21.04.04 0 0 1-.02-.08c.32-.3.61-.6.65-1.06 0-.03 0-.06-.02-.1-.07-.1-.22-.15-.45-.16a4.07 4.07 0 0 0-1.3.33.15.15 0 0 0-.08.08.03.03 0 0 0 0 .03.03.03 0 0 0 .04 0l.07-.06a.1.1 0 0 1 .09-.02c.08.03.17.04.28.04.18 0 .2.06.07.18a.8.8 0 0 0-.22.68.1.1 0 0 1-.04.1.83.83 0 0 1-.2.11c-.03.02-.03.04 0 .06l.1.08a.1.1 0 0 1 .03.08c-.02.25-.05.5-.1.73-.04.22-.16.3-.33.37-.04.01-.06 0-.07-.03-.06-.24-.03-.37.08-.37.18-.02.2-.09.07-.22l-.07-.07c-.03-.02-.04-.05-.04-.08l.03-2.17Zm1.07.57a1.42 1.42 0 0 1-.03.53c-.06.15-.02.17.1.07l.45-.4a.18.18 0 0 0 .06-.16.17.17 0 0 0-.1-.13c-.1-.05-.24-.04-.43.02-.04.01-.06.04-.05.07Zm-1.52 1.57.01-.4c0-.02 0-.02-.01 0-.09.1-.15.26-.2.47-.01.06 0 .07.05.05l.1-.04a.09.09 0 0 0 .05-.08Zm1.1.25c.01-.06.05-.1.08-.14.04-.05.08-.1.08-.23a.08.08 0 0 1 .09-.09c.01 0 .03 0 .04.02.11.08.24.1.38.05h.04l.02.03h-.01l-.61.45a.08.08 0 0 1-.1 0 .08.08 0 0 1-.02-.1Z" fill="#BE2A2B"/><path d="m34.3 43.21-1.94-4.68a11.35 11.35 0 0 0 6.17-6.17l4.68 1.94a16.41 16.41 0 0 1-8.91 8.91Zm8.91-21.51-4.68 1.94a11.35 11.35 0 0 0-6.17-6.17l1.94-4.68a16.41 16.41 0 0 1 8.91 8.91ZM21.7 12.79a16.4 16.4 0 0 0-8.91 8.91l4.68 1.94a11.34 11.34 0 0 1 6.17-6.17l-1.94-4.68ZM12.79 34.3l4.68-1.94a11.35 11.35 0 0 0 6.17 6.17l-1.94 4.68a16.41 16.41 0 0 1-8.91-8.91Z" fill="#D26208"/><path d="M27.4 17.24a10.91 10.91 0 0 1 1.2 0 .16.16 0 1 1-.01.31 10.68 10.68 0 0 0-1.18 0 .16.16 0 0 1-.02-.3Zm-1.03.26a.16.16 0 0 1-.12.18c-.4.07-.78.16-1.15.26a.16.16 0 0 1-.09-.3c.39-.1.78-.2 1.18-.26.09-.02.17.04.18.12Zm3.25 0c.02-.08.1-.14.18-.12.4.06.8.15 1.18.26a.16.16 0 1 1-.08.3c-.38-.1-.76-.19-1.15-.26a.16.16 0 0 1-.13-.18Zm-5.54.63c.03.08 0 .17-.09.2-.36.15-.71.32-1.05.51a.16.16 0 1 1-.15-.27c.35-.2.71-.37 1.08-.53.08-.03.18 0 .2.09Zm7.84 0a.16.16 0 0 1 .2-.09c.38.16.74.33 1.1.53a.16.16 0 0 1-.16.27c-.34-.19-.7-.36-1.06-.5a.16.16 0 0 1-.08-.21Zm2.1 1.12a.16.16 0 0 1 .21-.04c.33.24.65.49.95.76a.16.16 0 1 1-.21.23c-.3-.26-.6-.5-.92-.73a.16.16 0 0 1-.03-.22Zm-12.04 0c.05.07.03.17-.04.22-.31.22-.62.47-.91.73a.16.16 0 1 1-.21-.23c.3-.27.61-.52.94-.76a.16.16 0 0 1 .22.04Zm13.83 1.56a.16.16 0 0 1 .22.01c.27.3.52.62.76.94a.16.16 0 0 1-.26.19 10.5 10.5 0 0 0-.73-.92.16.16 0 0 1 .01-.22Zm-15.62 0c.06.06.07.15 0 .22-.25.29-.5.6-.72.92a.16.16 0 0 1-.26-.19c.23-.32.49-.64.75-.94a.16.16 0 0 1 .23-.01Zm-1.41 1.92c.07.04.1.13.06.2-.19.35-.36.7-.5 1.07a.16.16 0 1 1-.3-.12c.16-.38.33-.74.53-1.1.04-.07.13-.1.2-.05Zm18.44 0a.16.16 0 0 1 .21.06c.2.35.37.71.53 1.09a.16.16 0 1 1-.3.12c-.14-.37-.31-.72-.5-1.06a.16.16 0 0 1 .06-.21ZM17.84 24.9c.08.02.13.11.1.2-.1.37-.2.75-.26 1.14a.16.16 0 0 1-.3-.06c.06-.4.15-.79.26-1.17a.16.16 0 0 1 .2-.11Zm20.32 0c.08-.02.17.02.2.1.1.4.2.78.26 1.18a.16.16 0 1 1-.3.06c-.07-.4-.16-.77-.27-1.15a.16.16 0 0 1 .11-.2Zm-20.75 2.34c.08 0 .15.08.14.16a10.58 10.58 0 0 0 0 1.18.16.16 0 1 1-.3.01 10.91 10.91 0 0 1 0-1.2c0-.09.07-.16.16-.15Zm21.18 0c.09 0 .16.06.17.15a10.9 10.9 0 0 1 0 1.2.16.16 0 1 1-.32-.01 10.67 10.67 0 0 0 0-1.18c0-.08.07-.16.15-.16ZM17.5 29.63c.09-.02.17.04.18.12.07.4.16.77.26 1.15a.16.16 0 1 1-.3.08c-.1-.38-.2-.77-.26-1.17a.16.16 0 0 1 .12-.18Zm21 0c.08.01.14.09.12.18-.07.4-.16.79-.27 1.17a.16.16 0 1 1-.3-.08c.11-.38.2-.76.26-1.15.02-.08.1-.14.18-.12Zm-20.37 2.29c.08-.03.17 0 .2.08.15.37.32.72.51 1.06a.16.16 0 1 1-.27.15c-.2-.35-.37-.71-.53-1.09a.16.16 0 0 1 .09-.2Zm19.74 0c.08.03.12.12.09.2-.16.38-.34.74-.53 1.1a.16.16 0 0 1-.27-.16c.19-.34.36-.7.5-1.06a.16.16 0 0 1 .21-.08Zm-18.62 2.1a.16.16 0 0 1 .22.03c.22.32.47.63.73.92a.16.16 0 1 1-.23.2c-.27-.3-.53-.6-.76-.93a.16.16 0 0 1 .04-.22Zm17.5 0c.07.05.09.14.04.22-.24.32-.49.64-.76.94a.16.16 0 1 1-.23-.2c.26-.3.5-.6.73-.93a.16.16 0 0 1 .22-.03Zm-15.94 1.8a.16.16 0 0 1 .22-.02c.29.26.6.5.91.73a.16.16 0 0 1-.18.26c-.33-.24-.64-.49-.94-.76a.16.16 0 0 1-.01-.22Zm14.38 0c.06.06.05.16-.01.21-.3.27-.62.52-.95.76a.16.16 0 0 1-.18-.26c.32-.22.63-.47.92-.73a.16.16 0 0 1 .22.01Zm-12.46 1.4c.04-.08.13-.1.2-.06.35.19.7.36 1.06.5a.16.16 0 1 1-.12.3c-.37-.16-.73-.33-1.08-.53a.16.16 0 0 1-.06-.21Zm10.54 0c.04.07.02.17-.06.21-.35.2-.71.37-1.09.53a.16.16 0 0 1-.12-.3c.37-.14.72-.31 1.06-.5a.16.16 0 0 1 .21.06Zm-8.36.94a.16.16 0 0 1 .2-.1c.36.1.75.19 1.14.26a.16.16 0 0 1-.06.3c-.4-.06-.8-.15-1.18-.26a.16.16 0 0 1-.1-.2Zm6.18 0a.16.16 0 0 1-.1.2c-.4.1-.79.2-1.19.26a.16.16 0 1 1-.05-.3c.4-.07.77-.16 1.15-.26.08-.03.17.02.19.1Zm-3.84.43c0-.08.08-.15.16-.14a10.67 10.67 0 0 0 1.18 0 .16.16 0 1 1 .01.3 10.9 10.9 0 0 1-1.2 0 .16.16 0 0 1-.15-.16Z" fill="#EFEE6D"/><defs><linearGradient id="a" x1="10.42" y1="9.71" x2="68.15" y2="76.02" gradientUnits="userSpaceOnUse"><stop stop-color="#1A1E21"/><stop offset="1" stop-color="#06060A"/></linearGradient></defs></svg>