<svg width="56" height="56" viewBox="0 0 56 56" xmlns="http://www.w3.org/2000/svg"><rect fill="#181B1E" width="56" height="56" rx="28"/><path d="M37.8 38c3.87 0 4.38-3.33 4.15-5-1.2 2-1.91 2.63-5.78 2.82-3.87.2-4 .95-4.17 1.2 2.01 0 4.23.98 5.8.98Z" fill="#E3CB44"/><path d="M24.32 30.22c0 2.06 1.55 3.6 2.32 4.11l-1.08.53-6.19-1.05c-.62-2.1-1.87-6.33-1.87-6.52 0-.2 1.25-3.12 1.87-4.55l4.22-5.81a795.8 795.8 0 0 1 10.47 1.48c.13.05 1.39 3.1 2 4.61-.69-.14-2.34-.28-3.46.3-1.11.6-.89 3.16-.63 4.37-.92-.33-3.06-1-4.25-1-1.5 0-3.4.97-3.4 3.53Z" fill="url(#af21clchf)"/><path d="M21.66 28.98c0-1.94.43-2.91.64-3.16l-2.56-.13-1.61 3.13.72 6.71c1.76 2.9 6.2 8.7 9.9 8.7s5.32-.52 5.67-.78c-.45-.05-1.42-.28-1.42-.87 0-.72 1.7-.25 2.47-.25A5.2 5.2 0 0 0 40 39.47c-.44.19-1.7.53-2.43.53a6.4 6.4 0 0 1-3.69-1.26 8.54 8.54 0 0 0-3.45-1.27h-2.94c-.13 0-1.49-.2-1.49-1.19 0-.97 1.23-.75 1.6-.75-.02-.75-.94-1.42-2.46-2.2-1.52-.8-3.48-1.91-3.48-4.34Z" fill="url(#bf21clchf)"/><path d="M20.4 30.97c0-2.1.88-3.64 1.32-4.14l-1.78-1.37c-.97-.03-2.95-.07-3.16 0-.2.07-.41 2.62-.49 3.89.1 3.16.74 10.03 2.44 12.23 2.13 2.74 6.58 3.72 8.56 3.72 1.98 0 4.08-.3 4.8-.59a8.64 8.64 0 0 1-6.78-3.41c-1.55-1.99-.14-1.7-1.72-4.98-1.06-2.33-3.19-1.3-3.19-5.35Z" fill="url(#cf21clchf)"/><path d="M16.7 41.75a14.72 14.72 0 0 1-3.65-9.3l.18-3.02 2.6-4.75 5.05.68.61 1.41c-.9.63-2.49 2.38-2.49 4.36 0 2.48 1 2.95 1 4.8 0 1.85-.66 1.34-.66 3.49 0 3.71 3.73 5.62 4.66 6.58-5.59-1.86-6.9-4.95-7.14-5-.23-.05-.16.4-.16.75Z" fill="url(#df21clchf)"/><path d="M15.83 21.29a4.86 4.86 0 0 1 3.6-2.56l7.76.8-.42 1.76c-.33-.09-1.3.36-2.52 2.82-1.2 2.47-3.03 2.85-3.79 2.89.03-.31.01-1-.33-1-.42 0-.7.1-.9.78-.2.69-1.76 2.74-3.08 3.08-2.62.75-3.3 3.8-3.3 5.24-.29-.57-.85-2.24-.85-4.4 0-2.14 1.35-5.35 2-6.7h-.75c.4-.04 1.47-.77 2.58-2.71Z" fill="url(#ef21clchf)"/><path d="M31.81 24.3a5.29 5.29 0 0 0-3.87-4.38c-.85-.6-2.54-1.34-2.52.52.02 2.31-2.72 2.67-3.42 2.8.68.9 2.33 1.76 4.46 2.45 3.07 1.2 3.88 2.96 3.88 4.13a2.1 2.1 0 0 1-.93 1.83c.46.5 1.69 1.35 3.45 1.35 1.76 0 2.85-.48 3.14-.72-3.16-.52-3.66-4.36-4.19-7.98Z" fill="url(#ff21clchf)"/><path d="M35.94 32.32h-.02c-3.3-.54-4.36-2.77-5.47-5.14l-.36-.76c-1.2-2.46-3.15-2.45-5.04-2.44h-.39a4.3 4.3 0 0 1-2.48-.76h-.05l-.13.03c.68.9 2.33 1.75 4.46 2.44 3.07 1.2 3.88 2.96 3.88 4.13a2.1 2.1 0 0 1-.93 1.83c.46.5 1.69 1.35 3.45 1.35a5.8 5.8 0 0 0 3.08-.68Z" fill="url(#gf21clchf)"/><path d="M19.13 14.53c-1.84.28-3.59-.02-4.13-.2.34 1.41 3 1.87 3 2.87 0 .44-.52.79-1 .91.36.32.96.96 1.54.96.71 0 1.46.25 1.46.54 0 .29-.3.4-.6.55.42.53 2.33 1.28 3.72 1.28 1.4 0 3.59-.73 4.68-1.02a8.87 8.87 0 0 1 2.71-.11l-2.23-3.65c-2.28-.83-7.3-2.42-9.15-2.13Z" fill="url(#hf21clchf)"/><path d="M37.8 19.1c0 2.34 3.9 3.18 5.86 3.3 1.2 2.78-1.18 5.48-1.46 5.6.28-2.18-2.88-3.45-4.61-3.45a6.21 6.21 0 0 1-4.3-2.14c-.74-.94-2.16-1.97-3.01-2.13-1.82-.3-2.74-.93-2.97-1.2.13-.06.4-.23.4-.42 0-.8-1.95-1.22-2.72-1.22-1.95-.06-3.6-.45-4.6-.9-.98-.47-2.06-1.78-3.37-3.72A6.6 6.6 0 0 0 14 10.26c.68-.09 2.18-.01 3.77 1.03 1.98 1.3 3.61 2.28 3.92 2.28.31 0 .8-.05.8-.33 0-.29-.78-1.5-1.1-2.85-.12-.54 0-1.02 0-1.39 2.82 4.52 8.56 5.48 8.89 5.48.32 0 .72-.14.72-.5 0-.35-.2-.37-.2-.6A15.53 15.53 0 0 1 38 18.2c-.07.17-.2.59-.2.9Z" fill="url(#if21clchf)"/><path d="M30.25 19.88c-1.16-.15-2.99-.27-4.19 0-1.8.42-2.47.08-3.38-.41a8.02 8.02 0 0 0-4.02-1 2.61 2.61 0 0 1-1.66-.35c.36.32.97.95 1.54.95.71 0 1.46.25 1.46.54 0 .26-.25.39-.52.52-.03 0-.06.02-.08.03.42.53 2.33 1.28 3.72 1.28 1.11 0 2.72-.46 3.89-.8l.79-.22a8.87 8.87 0 0 1 2.71-.11l-.26-.43Z" fill="url(#jf21clchf)"/><path d="M42.54 27.49c-.16.17-.28.49-.34.51.28-2.18-2.88-3.45-4.61-3.45a6.21 6.21 0 0 1-4.3-2.14c-.74-.94-2.16-1.97-3.01-2.13-1.82-.3-2.74-.93-2.97-1.2.13-.06.4-.23.4-.42 0-.8-1.95-1.22-2.72-1.22-1.95-.06-3.6-.45-4.6-.9-.98-.47-2.06-1.78-3.37-3.72A6.6 6.6 0 0 0 14 10.26c.19-.02.2-.04.53-.02 1.43.53 3.4 1.5 4.31 2.98 1.38 2.25 2.91 2.28 3.8 2.29h.62c1.2.01 3.56.03 3.74.57 0 .25-.39.31-.58.31.69.26 2.43.78 3.86.84 1.43.06 2.32.53 2.58.75 1.24 1.15 4.1 3.62 5.57 4.24 1.83.77 5.21 2.3 4.12 5.25v.02Z" fill="url(#kf21clchf)"/><path d="M32.5 17.75a7.2 7.2 0 0 1 3.83 3.14c-.55-.15-3.46-1.34-3.84-3.14Z"/><defs><linearGradient id="af21clchf" x1="23.15" y1="22.54" x2="31.62" y2="30.18" gradientUnits="userSpaceOnUse"><stop offset=".26" stop-color="#100708"/><stop offset=".42" stop-color="#411E03"/></linearGradient><linearGradient id="bf21clchf" x1="20.75" y1="33.88" x2="36.45" y2="31.94" gradientUnits="userSpaceOnUse"><stop stop-color="#211309"/><stop offset=".54" stop-color="#8F570C"/><stop offset="1" stop-color="#DDCB57"/></linearGradient><linearGradient id="cf21clchf" x1="17.16" y1="40.19" x2="33.72" y2="41.85" gradientUnits="userSpaceOnUse"><stop offset=".08" stop-color="#3D1D06"/><stop offset="1" stop-color="#E1B22B"/></linearGradient><linearGradient id="df21clchf" x1="16.32" y1="29.4" x2="23.41" y2="46.44" gradientUnits="userSpaceOnUse"><stop stop-color="#2C1812"/><stop offset=".41" stop-color="#975E0F"/><stop offset=".88" stop-color="#E4CA4D"/></linearGradient><linearGradient id="ef21clchf" x1="22.34" y1="19.94" x2="13.37" y2="35.3" gradientUnits="userSpaceOnUse"><stop stop-color="#311E05"/><stop offset=".52" stop-color="#99600D"/><stop offset="1" stop-color="#E0C835"/></linearGradient><linearGradient id="ff21clchf" x1="25.14" y1="21" x2="35.44" y2="33.33" gradientUnits="userSpaceOnUse"><stop offset=".07" stop-color="#44260E"/><stop offset=".26" stop-color="#854A0B"/><stop offset="1" stop-color="#E4D158"/></linearGradient><linearGradient id="gf21clchf" x1="22.81" y1="23.22" x2="34.38" y2="33.91" gradientUnits="userSpaceOnUse"><stop stop-color="#874A0B"/><stop offset="1" stop-color="#E8CB3F"/></linearGradient><linearGradient id="hf21clchf" x1="19.31" y1="21.44" x2="25.51" y2="17.16" gradientUnits="userSpaceOnUse"><stop stop-color="#D9B519"/><stop offset="1" stop-color="#5D3006"/></linearGradient><linearGradient id="if21clchf" x1="13.74" y1="10.12" x2="43.67" y2="25.89" gradientUnits="userSpaceOnUse"><stop stop-color="#F0D878"/><stop offset="1" stop-color="#9C660E"/></linearGradient><linearGradient id="jf21clchf" x1="15.67" y1="21.03" x2="29.99" y2="19.71" gradientUnits="userSpaceOnUse"><stop stop-color="#CBA119"/><stop offset="1" stop-color="#592C0F"/></linearGradient><linearGradient id="kf21clchf" x1="13.74" y1="10.23" x2="42.34" y2="28.45" gradientUnits="userSpaceOnUse"><stop stop-color="#DEB712"/><stop offset="1" stop-color="#884D07"/></linearGradient></defs></svg>