<svg width="56" height="56" viewBox="0 0 56 56" xmlns="http://www.w3.org/2000/svg"><rect fill="url(#a)" width="56" height="56" rx="28"/><path d="M29.69 21.08c.36.09.7.23.99.43l4.08-3.27-3.27 4.08c.2.3.34.63.43.99L41 24l-9.08.69c-.09.36-.23.7-.43.99l3.27 4.08-4.08-3.27c-.3.2-.63.34-.99.43L29 36l-.7-9.08c-.35-.09-.68-.23-.98-.43l-4.08 3.27 3.27-4.08c-.2-.3-.34-.63-.43-.99L17 24l9.08-.7c.09-.35.23-.68.43-.98l-3.27-4.08 4.08 3.27c.3-.2.63-.34.99-.43L29 12l.69 9.08Z" fill="#fff"/><path d="M9.46 20.6c1.32-2.52 5.29-3.17 10.33-2.12-3.82-.57-6.74.07-7.78 2.04-1.94 3.68 3.47 10.61 12.1 15.48 8.61 4.87 17.17 5.82 19.11 2.14 1.04-1.96-.02-4.86-2.54-7.86 3.57 3.82 5.18 7.62 3.86 10.12-2.22 4.22-11.87 3.2-21.56-2.28C13.3 32.65 7.24 24.81 9.46 20.6Z" fill="url(#b)"/><defs><linearGradient id="a" x1="28" y1="0" x2="28" y2="56" gradientUnits="userSpaceOnUse"><stop stop-color="#181F32"/><stop offset="1" stop-color="#385382"/></linearGradient><linearGradient id="b" x1="9.87" y1="20.02" x2="39.35" y2="41" gradientUnits="userSpaceOnUse"><stop stop-color="#BA903F"/><stop offset=".24" stop-color="#FEE7B2"/><stop offset="1" stop-color="#BB913D"/></linearGradient></defs></svg>