<svg width="56" height="56" viewBox="0 0 56 56" xmlns="http://www.w3.org/2000/svg"><rect fill="#F0F3FA" width="56" height="56" rx="28"/><path d="M45 28a17 17 0 1 1-34 0 17 17 0 0 1 34 0Z" fill="url(#a)"/><circle cx="28" cy="28" r="15" fill="#02102B"/><path d="M23.18 26 19 30.01l7.82.32 3.18-4-6.82-.33Z" fill="#1647D1"/><path d="m27.05 30.31-8.05-.3L23.64 33l3.41-2.69ZM23.53 27l-2.13-5-4.4 4.47 6.53.53Z" fill="#00EFFF"/><path d="M28 22.58 21.4 22l2.13 5L28 22.58Z" fill="#2B79F7"/><path d="M34.53 27.98 32.4 23 28 27.44l6.53.54Z" fill="#00EFFF"/><path d="M39 23.58 32.4 23l2.13 4.98 4.47-4.4Z" fill="#2B79F7"/><path d="m28.53 34-2.13-5-4.4 4.47 6.53.53Z" fill="#00EFFF"/><path d="M33 29.58 26.4 29l2.13 5L33 29.58Z" fill="#2B79F7"/><defs><linearGradient id="a" x1="45" y1="28" x2="11" y2="28" gradientUnits="userSpaceOnUse"><stop stop-color="#4484FF"/><stop offset=".5" stop-color="#0ADFFF"/><stop offset="1" stop-color="#4484FF"/></linearGradient></defs></svg>