<svg width="56" height="56" viewBox="0 0 56 56" xmlns="http://www.w3.org/2000/svg"><rect fill="url(#abuchg2cz)" width="56" height="56" rx="28"/><path d="M15.4 18.5c-.38 1.32-.52 3.2-.3 5.41.23 2.3.84 4.9 1.88 7.43 2.03 4.98 5.65 9.6 11.1 11.55 5.43-1.94 8.93-6.56 10.91-11.54 1.97-4.96 2.36-10.07 1.75-12.87-1.88-1.93-6.8-5.48-12.65-5.48-5.89 0-10.82 3.58-12.68 5.5Zm-1.6-1.19C15.73 15.2 21.27 11 28.08 11c6.8 0 12.34 4.2 14.3 6.31l.17.19.06.25c.82 3.25.36 8.96-1.78 14.34-2.14 5.4-6.08 10.68-12.44 12.8l-.31.11-.32-.1c-6.37-2.12-10.43-7.4-12.64-12.8a29.08 29.08 0 0 1-2.01-7.99c-.25-2.48-.1-4.76.46-6.44l.07-.2.14-.16Z" fill="#fff"/><path d="m28 17 .59 2h1.91l-1.55 1.09.6 1.91L28 20.82 26.45 22l.6-1.91L25.5 19h1.91l.59-2ZM19 27v6.5l2-1v-4L19 27ZM37 27v6.5l-2-1v-4l2-1.5Z" fill="#fff"/><path d="M19 19v3l9 5 9-5v-3l-9 5.33L19 19Z" fill="#fff"/><path d="M19 23v3l9 5 9-5v-3l-9 5.33L19 23Z" fill="#fff"/><defs><linearGradient id="abuchg2cz" x1="10.42" y1="9.71" x2="68.15" y2="76.02" gradientUnits="userSpaceOnUse"><stop stop-color="#1A1E21"/><stop offset="1" stop-color="#06060A"/></linearGradient></defs></svg>