<svg width="56" height="56" viewBox="0 0 56 56" xmlns="http://www.w3.org/2000/svg"><rect fill="#F0F3FA" width="56" height="56" rx="28"/><path d="m22.11 21.73 3.39 7.13 3.95 8.24c.33.68.58 1.1.77 1.28.8.72 2.03.84 2.94.2a2.3 2.3 0 0 0 .7-2.96 793.38 793.38 0 0 1-5.46-11.45c-1.4-2.88-2.82-5.85-4.28-8.9A2.22 2.22 0 0 0 23 14.2a2.26 2.26 0 0 0-2.62.53c-.18.19-.38.53-.62 1.03a8616.03 8616.03 0 0 0-9.14 19.12 6.55 6.55 0 0 0-.61 1.53c-.1.74.12 1.37.65 1.9.88.9 2.46.9 3.32-.03.16-.17.37-.54.64-1.09l3.76-7.84 3.63-7.63a.05.05 0 0 1 .07-.02l.02.02Zm-3.72 7.48Z" fill="url(#asbtue2mb)"/><path d="M42.68 29.16c-.12-.29-.2-.5-.26-.6l-6.3-13.18c-.85-1.77-3.35-1.86-4.21-.06l-3.17 6.6a.6.6 0 0 0 .01.56c.24.43.48.9.72 1.42a160.15 160.15 0 0 0 1.69 3.54.06.06 0 0 0 .09-.02l2.69-5.67a.05.05 0 0 1 .04-.02.05.05 0 0 1 .04.02l3.77 7.83.87 1.81c.34.73.62 1.18.84 1.37 1.16 1.04 3.11.66 3.7-.84.4-1.04 0-1.8-.52-2.76Z" fill="url(#bsbtue2mb)"/><path d="m26.58 37.15.1-.22c.24-.47.47-.97.7-1.5a.14.14 0 0 0 0-.11l-2.46-5.1a.06.06 0 0 0-.1-.04 3.06 3.06 0 0 0-2.89 6.27c-.22 1.85 1.71 3.09 3.34 2.31.69-.33.93-.82 1.31-1.61Z" fill="url(#csbtue2mb)"/><path fill-rule="evenodd" d="M45.98 37.24c-.35 1.08-1.06 1.66-2.14 1.73-.77.05-1.48-.3-1.94-.91a.22.22 0 0 0-.18-.1c-.36 0-1.1-.03-1.2-.48a.16.16 0 0 1 .03-.13c.2-.27.46-.47.8-.61a.18.18 0 0 0 .1-.1c.03-.07.03-.15.03-.23 0-.07 0-.14.03-.2.26-.91.84-1.47 1.7-1.68a2.3 2.3 0 0 1 2.6 1.2c.02.05.06.09.12.1l.25.05c.26.05.5.1.73.27.05.03.07.08.09.13 0 .05 0 .1-.03.16-.19.34-.54.53-.88.68a.19.19 0 0 0-.1.12Zm.1-1.1.28.21a.06.06 0 0 1 .02.08l-.23.4a.06.06 0 0 1-.07.02.06.06 0 0 1-.04-.05l-.06-.61a.06.06 0 0 1 .03-.06.06.06 0 0 1 .07 0Zm-4.95 1.22v.02a1.04 1.04 0 0 0 .47.34.04.04 0 0 0 .04-.03v-.02l-.18-.67-.01-.02a.04.04 0 0 0-.05 0h-.02l-.25.35v.03Z" fill="#0F4E77"/><defs><linearGradient id="asbtue2mb" x1="26.68" y1="14" x2="26.68" y2="39" gradientUnits="userSpaceOnUse"><stop stop-color="#62EDD0"/><stop offset=".4" stop-color="#63ECCE"/><stop offset=".75" stop-color="#0F7AB3"/><stop offset="1" stop-color="#0F4669"/></linearGradient><linearGradient id="bsbtue2mb" x1="26.68" y1="14" x2="26.68" y2="39" gradientUnits="userSpaceOnUse"><stop stop-color="#62EDD0"/><stop offset=".4" stop-color="#63ECCE"/><stop offset=".75" stop-color="#0F7AB3"/><stop offset="1" stop-color="#0F4669"/></linearGradient><linearGradient id="csbtue2mb" x1="26.68" y1="14" x2="26.68" y2="39" gradientUnits="userSpaceOnUse"><stop offset=".4" stop-color="#63ECCE"/><stop offset=".75" stop-color="#0F7AB3"/><stop offset="1" stop-color="#0F4669"/></linearGradient></defs></svg>