<svg width="56" height="56" xmlns="http://www.w3.org/2000/svg"><rect fill="url(#paint0_linear)" width="56" height="56" rx="28"/><path d="M39.683 22.637c-1.895-.754-4.17-1.548-6.683-1.841V19.41c0-2.305 1.037-3.646 3.428-4.567L35.768 13C32.636 14.173 31 16.268 31 19.41v1.218a35.905 35.905 0 00-6 0V19.41c0-2.305.96-3.646 3.35-4.567L27.69 13C24.518 14.173 23 16.268 23 19.41v1.386c-2.473.293-4.747 1.087-6.684 1.84C12.896 23.979 11 25.906 11 28c0 2.095 1.896 4.022 5.316 5.363 1.896.754 4.17 1.545 6.684 1.839v1.387c0 2.305-1.038 3.646-3.428 4.567l.66 1.844C23.362 41.827 25 39.732 25 36.59v-1.22a35.916 35.916 0 006 0v1.22c0 2.304-.92 3.645-3.31 4.566L28.35 43c3.132-1.173 4.65-3.268 4.65-6.41V35.2c2.473-.293 4.746-1.084 6.683-1.838C43.103 32.023 45 30.137 45 28c0-2.137-1.895-4.022-5.316-5.363zM23 33.232c-2.225-.293-4.252-1.042-5.983-1.712C14.462 30.514 13 29.215 13 28c0-1.215 1.462-2.514 4.017-3.52 1.69-.67 3.758-1.422 5.983-1.715v10.467zm8 .168a35.666 35.666 0 01-6 0V22.597c.99-.084 1.949-.126 3.02-.126 1.03 0 1.99.042 2.98.126V33.4zm7.983-1.88c-1.69.67-3.758 1.419-5.983 1.712V22.765c2.225.293 4.252 1.045 5.983 1.715C41.538 25.486 43 26.785 43 28c0 1.215-1.462 2.514-4.017 3.52z" fill="#fff"/><defs><linearGradient id="paint0_linear" x1="10.418" y1="9.712" x2="68.147" y2="76.017" gradientUnits="userSpaceOnUse"><stop stop-color="#1A1E21"/><stop offset="1" stop-color="#06060A"/></linearGradient></defs></svg>