<svg width="56" height="56" viewBox="0 0 56 56" xmlns="http://www.w3.org/2000/svg"><rect fill="url(#a)" width="56" height="56" rx="28"/><path d="M31.76 12.8a5.75 5.75 0 0 1-4.33.82c-1.05-.3-1.46-.08-1.22.66-.7.03-1.25.21-1.64.54a.62.62 0 0 0-.12-.17.1.1 0 0 0-.1-.02l-6.43 1.67a.1.1 0 0 1-.08-.17l1.76-1.39c1.67.05 3.31-.23 4.92-.85a.26.26 0 0 0 .05-.47 3.46 3.46 0 0 0-1.32-.3c2.71-.97 5.78-1.78 8.5-.32Z" fill="#D768EB"/><path d="M26.96 15.87c.33-.7.31-1.04-.06-1.03.33 0 .6-.05.81-.15a.37.37 0 0 0 .19-.5c-.09-.19-.24-.38-.47-.57 1.63.28 3.07 0 4.33-.82 2.1.99 6.25 2.5 7.36 4.66a.32.32 0 0 1-.07.4.33.33 0 0 1-.42 0c-1.2-.9-2.29-.92-3.24-.02-.09.08-.18.14-.28.2-1.23.6-2.35.5-3.37-.3a1.2 1.2 0 0 0-.56-.24 4.45 4.45 0 0 0-2.21.06c-1.3.55-2.68.83-4.12.83a.21.21 0 0 1-.2-.19.2.2 0 0 1 .15-.21l6.05-1.52c.16-.04.32-.09.47-.15a4.5 4.5 0 0 0 1.35-1.16.26.26 0 0 0-.17-.43 4.12 4.12 0 0 0-2.5.47.62.62 0 0 1-.1.04l-2.94.63Z" fill="#985FAF"/><path d="M23.25 13.11c.63.06 1.07.16 1.32.3a.26.26 0 0 1 .12.26.26.26 0 0 1-.17.22c-1.61.62-3.25.9-4.92.85a7.61 7.61 0 0 1 3.65-1.63Z" fill="#5D2B7F"/><path d="M26.2 14.28c.2.23.44.42.7.56.37-.01.4.33.06 1.03l-7.43 2.77c-.22.08-.45.1-.68.07l-1.94-.3a.85.85 0 0 1-.55-.33 1.1 1.1 0 0 1-.15-.4.55.55 0 0 1 .22-.6c.09-.05.2-.08.3-.07.11 0 .21.05.29.13.06.05.15.12.28.18.18.1.38.14.58.1l5.82-1.2a.8.8 0 0 0 .61-.56l.26-.84c.39-.33.93-.51 1.64-.54Z" fill="#F9BBFA"/><path d="m27.62 21.62-.88-1.3a.58.58 0 0 0-.26-.22.6.6 0 0 0-.34-.03c-.24.04-.55.01-.93-.09a.31.31 0 0 0-.38.29c-.03.77.45 1.16 1.46 1.18-1.1.28-1.8.09-2.09-.57a.34.34 0 0 0-.17-.18.35.35 0 0 0-.26-.02l-2.72.83-5.77.59a.57.57 0 0 1-.47-.17l-.96-.96a.42.42 0 0 1 .03-.63l1.42-1.15a.09.09 0 0 1 .04-.02.1.1 0 0 1 .05 0l.05.04.03.04.03.04.01.03V19.38c-.57.4-.91.81-1.04 1.23a.5.5 0 0 0 .55.66l8.48-1.06a.56.56 0 0 0 .5-.55c0-.1-.03-.18-.08-.26-.1-.2-.47-.26-1.11-.2a.24.24 0 0 1-.25-.15.24.24 0 0 1 .07-.27c.14-.13.57-.24 1.3-.33a.5.5 0 0 1 .48.23c.61.92 1.64 1.15 3.1.67a.2.2 0 0 1 .23.31c-.05.06-.19.08-.42.06-.12-.01-.2.07-.22.24-.02.17.04.3.18.43.1.07.25.1.44.07.5-.08.9-.23 1.18-.45.17-.12.38-.19.6-.18 1.31.02 2.57-.67 3.58-.61.66.03 2.1-.06 4.3-.29 1.19-.12 3.94.6 4.1 2.04a.2.2 0 0 1-.12.2.2.2 0 0 1-.23-.05c-.8-.87-2-1.34-3.63-1.42a.25.25 0 0 0-.25.22l-.02.13a.3.3 0 0 1-.14.08.33.33 0 0 1-.17 0 6.18 6.18 0 0 0-2.48-.28c-2.26.35-4.47.76-6.63 1.22-.23.05-.3.24-.19.55Z" fill="#985FAF"/><path d="M27.62 21.62c.59.68.17.7-1.26.05-.14-.1-.17-.17-.07-.22-1-.02-1.5-.41-1.46-1.18a.3.3 0 0 1 .38-.29c.38.1.7.13.93.09a.6.6 0 0 1 .34.03c.1.05.2.12.26.22l.88 1.3Z" fill="#F9BBFA"/><path d="M42.13 31.26c-.04-.4-.15-.59-.33-.57 1.16-1.01 1.33-1.97.5-2.87a.72.72 0 0 0-.57-.23c-.88.05-1.25.46-1.08 1.2l-.01.1a.16.16 0 0 1-.22.09l-.7-.33a.6.6 0 0 0-.58.04c-.15.1-.33.16-.54.19a.24.24 0 0 1-.27-.18v-.12c.1-.35.3-.53.62-.56.05 0 .1-.02.15-.05.7-.56-1.48-1.26-1.78-1.26-1.82.03-3.63.3-5.4.83.07-.37.02-.65-.15-.84 1.41-.47 2.85-.65 4.33-.54.64.04 1.45-.34 1.88-.13.24.13.5.2.75.2 1.48.02 2.48-.66 3-2.07a.43.43 0 0 0-.34-.56l-5.25-.6a.62.62 0 0 0-.31.04 5.5 5.5 0 0 1-2.54.38c-.18-.02-.36 0-.53.03L24 25.25c-2.3.04-4.38.67-6.23 1.9a2 2 0 0 1-.9.33c-.62.07-1.11.22-1.5.45a.7.7 0 0 1-.62.14c-.23-.06-.37-.21-.42-.45-.2-.9-.55-1.54-1.07-1.92-.65-.46-.94-.85-.88-1.16.1-.57.4-1 .9-1.29a.13.13 0 0 1 .17.02c.02.02.04.05.04.08s0 .07-.02.1l-.5.8c-.4.64.32.93.81.98a.74.74 0 0 0 .74-.38c.62-1.12 1.92-1.5 3.92-1.14.15.03.3.07.44.13a6.6 6.6 0 0 0 1.56.56c3.2-.08 5.33-.3 6.41-.64 1.53-.49 3.09-.73 4.68-.7.38 0 .7-.22.95-.65.12-.2.33-.32.55-.33.35 0 .68.12 1 .4.17.14.4.2.62.17 2.6-.38 4.37-.43 5.32-.15 1.07.31 4.69 1.84 3.94 3.52-.22.5-.79.56-1.15.9a.38.38 0 0 0 0 .54c.2.22.36.47.45.76.08.22.07.46-.03.67l-1.04 2.37Z" fill="#D768EB"/><path d="m24 25.26-6.88 3.14a.87.87 0 0 1-.5.06 3.27 3.27 0 0 1-1.25-.53c.38-.23.87-.38 1.48-.45a2 2 0 0 0 .91-.33 11.25 11.25 0 0 1 6.23-1.9Z" fill="#5D2B7F"/><path d="M31.77 26.7c.17.19.22.47.15.84-.4.52-1 .84-1.76.97a.8.8 0 0 0-.5.3c-.48.6-1.1.93-1.85.96-5.14.25-9.42.56-12.86.94l.13-.6c.06-.18.04-.3-.05-.37-.08-.07-.22-.1-.4-.08 2.84.26 5.26.17 7.27-.28.7-.16 2.23-.8 4.58-1.9.73-.36 1.19-.77 1.37-1.26a.4.4 0 0 1 .45-.24l3.47.72Z" fill="#F9BBFA"/><path d="M14.63 29.66c.18-.02.32 0 .4.08.09.07.1.19.05.37-.05.2-.1.4-.13.6l-.16.72a.46.46 0 0 1-.42.36c-.47.02-.8.18-1.02.47-.2.27-.1.58.3.94.53.46 1.15.7 1.89.7.4.12.78.13 1.16.03 1.12.1 2.24.12 3.37.05 1-.06 1.58-.32 1.74-.78 1.02-.52 2.38-.78 3.38-.1.22.14.5.16.86.04 1.28-.42 2.1-.74 2.43-.96.11-.08.25-.1.4-.09.13.02.26.1.35.2.04.05.13.09.25.12a.43.43 0 0 1 .3.58l-.22.52c-2.03.22-4.12.6-6.26 1.12-1.13.27-3.9.29-8.3.05-.28-.04-.34-.09-.18-.13a4.4 4.4 0 0 1-1.59-.98c-.79-.78-.8-2.82-.65-3.58a.7.7 0 0 0-.16-.59c-.65-.7-.54-1.48.32-2.32a.19.19 0 0 1 .31.15c-.02.14-.17.44-.45.88a.75.75 0 0 0-.05.72c.34.68 1.03.96 2.08.84Z" fill="#EC9BF1"/><path d="M42.13 31.26c-.04-.4-.15-.59-.33-.57l-4.07-1.08a1 1 0 0 0-.6.02c-.83.3-1.74.38-2.72.24-2.18.16-4.31.65-6.4 1.5-1.22.48-2.73.61-4.54.39-1.12-.14-1.68.34-1.66 1.44 1.02-.52 2.38-.78 3.38-.1.22.14.5.16.86.04 1.28-.42 2.1-.74 2.43-.96.11-.08.25-.1.4-.09.13.02.26.1.35.2.04.05.13.09.25.12a.43.43 0 0 1 .3.58l-.22.52 4.9-2.64c.33-.06.7-.22 1.08-.47.3-.2.66-.26 1.03-.18l2.48.59c.06.02.13.01.2-.01.96-.4 1.21.57 2.02.7A1.11 1.11 0 0 1 42 33.3c-.32.4-.56.78-.71 1.16a.12.12 0 0 0 .04.15.12.12 0 0 0 .16-.01c1.06-1.1 1.27-2.2.64-3.35ZM16.7 33.93c-.38.1-.77.1-1.16-.03l.31-.65c.1-.22.3-.39.53-.47.43-.15.7-.4.8-.72a.44.44 0 0 1 .3-.28l1.66-.49a.17.17 0 0 1 .16.3 22.8 22.8 0 0 1-2.25 1.6c-.4.24-.51.5-.35.74Z" fill="#8641A3"/><path d="M36.02 31.76c.2.1.3.21.32.34a.24.24 0 0 1-.11.24.24.24 0 0 1-.27-.02c-.2-.16-.3-.25-.31-.27a.26.26 0 0 1 .37-.29ZM40.24 32.32c-.3.42-.72.69-1.27.79a.18.18 0 0 1-.2-.2c0-.04.02-.08.04-.1l.92-.92a.34.34 0 0 1 .56.2c0 .08 0 .16-.05.23Z" fill="#5D2B7F"/><path d="M25.52 36.83a3.72 3.72 0 0 0-2.85.5l.1-.7c.01-.05.04-.1.07-.14a.3.3 0 0 1 .15-.09l9.59-2.8.08-.01 4.36-.32a.34.34 0 0 1 .3.15c.21.32.45.38.7.16a.5.5 0 0 1 .52-.09c1.03.44 1.7.9 2.05 1.36.13.19.2.4.22.62a2.79 2.79 0 0 1-1.51 2.8.1.1 0 0 1-.08 0 .12.12 0 0 1-.07-.04l-.01-.02.01-.02a5.22 5.22 0 0 0 1.44-2.11.54.54 0 0 0-.13-.57c-1.02-1.03-2.13-1.48-3.34-1.34-1.04.12-2.16-.32-2.98.02-.54.23-1 .24-1.36.03-.33-.19-1.29.38-1.88.5-1.9.4-3.7 1.1-5.38 2.11Z" fill="#985FAF"/><path d="M15 34.68c-.41 2.07.46 2.92 2.61 2.57.15-.52.5-.05 1.05 1.4-.41-.27-.76-.36-1.05-.26a.36.36 0 0 0-.23.47c.44 1.13 1.32 1.63 2.67 1.49l1.78.05c0 .23-.05.4-.13.5a.61.61 0 0 0 .55 1c1.77-.26 3.4-.52 4.91-.78.55.05 1.06 0 1.53-.14a.5.5 0 0 0 .28-.22.5.5 0 0 0 .07-.34c-.03-.13-.15-.27-.37-.42a.56.56 0 0 1-.21-.3.54.54 0 0 1 0-.35c.16-.4.55-.66 1.17-.77-.22.67-.02 1.01.6 1.04.59.03 1.32-.18 2.2-.61l1.35.14c.43.38.91.66 1.45.83.06.02.12.07.15.12.03.06.04.12.03.19-.02.11-.11.23-.27.34a.2.2 0 0 1-.13.04.2.2 0 0 1-.12-.05c-.14-.14-.46-.3-.97-.5-.25-.1-.52-.11-.79-.05-.53.13-1.05.16-1.55.1a.85.85 0 0 0-.48.08l-2.55 1.2a.49.49 0 0 0-.22.2c-.85 1.51 4.87-.34 5.14-.4a.23.23 0 0 1 .2.06l.16.14.01.01v.01a.02.02 0 0 1-.02.02l-3.5 1.02a.23.23 0 0 0-.15.24.23.23 0 0 0 .2.2c1.12.03 3.76-.37 4.15-1.65a.42.42 0 0 1 .28-.28c.15-.05.3-.01.45.1.17.13.44.1.59-.05.38-.38.64-.74.78-1.07.04-.1.12-.18.22-.24l.92-.53a.48.48 0 0 0 .21-.56c-.28-.79-.74-1.12-1.4-.99-.19.04-.37.04-.55.01a.87.87 0 0 0-.84-.45c-.98.06-1.75.04-2.64.52a.57.57 0 0 1-.55 0c-.55-.32-.91-.28-1.07.14.07-.25 0-.56-.23-.92a.2.2 0 0 1 .04-.28.2.2 0 0 1 .1-.04l.67-.11c-.1.15-.09.3.06.45a.3.3 0 0 0 .27.09c2.55-.49 5.02-.98 6.57.93.15.2.2.45.16.72-.05.28-.2.55-.43.76A15.18 15.18 0 0 1 27.2 44c-1.67 0-2.95-.86-4.45-.9a2.8 2.8 0 0 1-1.44-.4c-.9-.57-1.19-1.44-2.06-1.65-1.55-.37-2.34-1.11-2.36-2.24a.74.74 0 0 0-.31-.59c-.31-.22-.62-.4-.93-.56-1.43-.7-1.7-1.73-.82-3.11-.16.04-.1.09.17.13Z" fill="#985FAF"/><path d="m31.5 36.55-.67.12a.2.2 0 0 0-.18.21c0 .04.02.07.04.1.22.36.3.67.23.92a.8.8 0 0 1-.55.24.46.46 0 0 0-.05-.18.2.2 0 0 0-.07-.07.22.22 0 0 0-.1-.03 7.61 7.61 0 0 1-3.25-1.02 8.06 8.06 0 0 1 2.74-.4l5.56-1.6a.22.22 0 0 1 .27.18l.03.2a.18.18 0 0 1-.04.13.2.2 0 0 1-.13.07c-1.35.17-2.62.55-3.83 1.13Z" fill="#8641A3"/><path d="M22.67 37.32c.76-.52 1.7-.69 2.85-.49.67.31 1.13.31 1.38 0 1.1.62 2.18.96 3.25 1.03.04 0 .07 0 .1.03a.2.2 0 0 1 .07.07c.03.06.04.12.05.18l-.74.44c-.62.11-1.01.36-1.16.77a.54.54 0 0 0 .2.65c.22.15.34.29.37.42a.5.5 0 0 1-.07.34.5.5 0 0 1-.28.22c-.47.14-.98.19-1.53.14l.3-.17a.26.26 0 0 0-.12-.48l-5.5-.07.75-.71a.45.45 0 0 0 .14-.43.75.75 0 0 0-.38-.52.37.37 0 0 0-.5.14.37.37 0 0 0-.05.18v.17c0 .05 0 .11-.03.16a.38.38 0 0 1-.11.13.44.44 0 0 1-.35.07l-1.6-.32-1.05-.62c-.55-1.45-.9-1.92-1.05-1.4l-.16-.49a.31.31 0 0 1 .36-.41c.36.07.65.25.88.53a.67.67 0 0 0 .54.25c.93-.02 2.23.95 3.44.2Z" fill="#EC9BF1"/><path d="M36.57 37.68a4.15 4.15 0 0 1-2.8 1.47l-1.34-.14c.76-.18 1.5-.38 2.2-.61.04-.02.26-.06.66-.12.32-.05.57-.25.73-.59.18.03.36.03.55 0Z" fill="#5D2B7F"/><path d="m26.5 38.96-.62.52a.36.36 0 0 1-.4-.02.35.35 0 0 1-.13-.36c.09-.37.26-.67.52-.88.26-.22.58-.34.96-.36a.34.34 0 0 1 .34.19.36.36 0 0 1-.06.4l-.61.51Z" fill="#8641A3"/><path d="M27.16 41.12c-1.5.26-3.14.52-4.91.79a.61.61 0 0 1-.7-.68.61.61 0 0 1 .15-.33c.08-.1.13-.27.13-.5l5.5.07a.26.26 0 0 1 .25.2.26.26 0 0 1-.11.28l-.3.17Z" fill="#F9BBFA"/><defs><linearGradient id="a" x1="10.42" y1="9.71" x2="68.15" y2="76.02" gradientUnits="userSpaceOnUse"><stop stop-color="#1A1E21"/><stop offset="1" stop-color="#06060A"/></linearGradient></defs></svg>