<svg width="56" height="56" viewBox="0 0 56 56" xmlns="http://www.w3.org/2000/svg"><rect fill="url(#avushxd0a)" width="56" height="56" rx="28"/><path d="m41 32.49-11.87-2.18-.22-.05 11.49-1.99-2.6-.45 2-.35-12.83-2.23 8.26-1.43v-.03l3.05-.53-3.17-.55L33.7 10l-14.36 7.05-.4 5.29 5.28.9-10.23 2 10.37 1.98-2.12.37 3.94.68-11.27 1.99 12.8 2.23-9.64 1.67-.59 7.84h19.75l-1.02-8.63 4.78-.88Z" fill="url(#bvushxd0a)"/><defs><linearGradient id="avushxd0a" x1="10.42" y1="9.71" x2="68.15" y2="76.02" gradientUnits="userSpaceOnUse"><stop stop-color="#1A1E21"/><stop offset="1" stop-color="#06060A"/></linearGradient><linearGradient id="bvushxd0a" x1="20.5" y1="44.05" x2="40.5" y2="14.62" gradientUnits="userSpaceOnUse"><stop offset=".05" stop-color="#7E0AE5"/><stop offset=".38" stop-color="#AC11EE"/><stop offset=".73" stop-color="#D818F7"/><stop offset=".91" stop-color="#E91BFA"/></linearGradient></defs></svg>