<svg width="56" height="56" viewBox="0 0 56 56" xmlns="http://www.w3.org/2000/svg"><rect fill="#5F934C" width="56" height="56" rx="28"/><path d="M44.7 43.95c-.48-.73-.97-1.43-1.47-2.1a16.16 16.16 0 0 1-1.9-3.23l.01-.07a.1.1 0 0 1 .05-.05l.04-.01h.04l.43.83c.02.05.06.06.1 0a.05.05 0 0 0 0-.05 65.8 65.8 0 0 1-1.95-4.77l-.21-.56c-.7-2.06-1.2-4.17-1.48-6.31 0-.02-.01-.03-.03-.03h-.06c-.05 0-.07.02-.07.07v.89h-.05a.06.06 0 0 1-.07-.04 10.2 10.2 0 0 1-.3-1.3c-.3-1.94-.63-3.77-.95-5.5a26.74 26.74 0 0 0-1.92-6.35 10.07 10.07 0 0 0-2.64-3.43c-.14-.11-.17-.1-.08.06a26.7 26.7 0 0 0 .65 1.2c0 .06-.02.07-.06.01-.84-1.14-1.4-2.13-3.09-2.11-.76 0-1.3.32-1.62.95a3.5 3.5 0 0 0-.37 1.18H27.63a.1.1 0 0 1-.07-.04.1.1 0 0 1-.03-.07c.04-.74.38-1.97 1.12-2.16.09-.02.1-.05.02-.1l-1.21-.77-.32-.18a7.48 7.48 0 0 0-6.6.47c-1.35.72-2.4 1.5-3.14 2.33a12.43 12.43 0 0 0-2.74 4.96l-.1.49-.33 1.61c0 .02 0 .04.03.05l.06.04v-.02l.3-1.2c.02-.1.06-.1.1-.01.03.08.04.16.01.24-.25.82-.4 1.63-.45 2.44-.1 1.5-.08 2.98.03 4.45a15.08 15.08 0 0 0 .99 4.26.1.1 0 0 0 .1.01.1.1 0 0 0 .05-.03 1 1 0 0 1 .42-.32c.07-.03.1-.07.08-.14-.09-.56-.13-1.13-.13-1.7 0-.7-.14-1.4-.2-2.07-.1-.96.09-1.84.54-2.64a.31.31 0 0 0 .04-.17c-.02-.29-.1-.47 0-.78.3-.98.5-1.62.58-1.93.12-.45.34-.81.66-1.07a.51.51 0 0 1-.2.48.01.01 0 0 0 0 .02l.03.02c.02.02.04.02.06 0 .43-.55.96-.86 1.67-.73.43.14 2.81.62 2.13 1.43-.04.04-.03.08.02.11.33.19.6.46.79.81l-.01.03-.05-.01c-.21-.3-.63-.77-1.02-.83a5.28 5.28 0 0 1-1.1-.3c-.92-.33-2.25-.13-2.9.74-.04.05-.04.1.02.14.23.16.41.14.55-.08.03-.04.05-.04.08 0 .06.07.13.1.22.08.06-.01.08-.05.05-.1a.07.07 0 0 1 0-.07.18.18 0 0 1 .11-.1 4.5 4.5 0 0 1 3.07.2c.02 0 .03.02.02.04-.01.02-.03.03-.05.02a4.77 4.77 0 0 0-3.08-.12l-.01.03v.05c.02.04.04.06.09.05a6 6 0 0 1 2.05.13c.07.02.13.01.2 0a.27.27 0 0 1 .3.07c.04.04.09.05.14.05.21-.02.39.04.52.2l.1.05c.03 0 .07 0 .1-.02.06-.02.1-.01.15.03.17.17.37.3.58.42a.2.2 0 0 1 .09.08.2.2 0 0 1-.01.22.21.21 0 0 1-.1.07c-.18.07-.38.11-.58.12-1.01.03-2.01-.04-3-.23l-1.88-.45c-.05-.01-.09 0-.1.06-.32.88-.06 1.64.77 2.28.1.04.17.08.21.14.05.07.03.08-.04.05l-.3-.15a2.87 2.87 0 0 1-.85-.98h-.07l-.02.04a6.07 6.07 0 0 0 .43 5.1c.06.13.04.14-.06.04a1.9 1.9 0 0 1-.45-.67c-.04-.1-.07-.1-.07.01-.05.58 0 1.16.15 1.72.01.07.05.1.12.09.06 0 .1-.02.15-.06.82-.15 1.55-.22 2.18-.22 1.7 0 3.78.04 6.26.13 1.3.05 2.52.18 3.82.34.88.1 1.75.35 2.6.72.06.03.1.01.1-.05l.2-1 1-3.53a.27.27 0 0 0-.01-.16 3.5 3.5 0 0 1-.22-.76c-.03-.53-.1-1.04-.18-1.54-.05-.26-.04-.56.02-.88.09.99.35 1.86.8 2.62.22.37.3.34.22-.07a37.4 37.4 0 0 1-.46-4.07 9.37 9.37 0 0 0-1.37-4.37l.05-.04c.02-.03.05-.02.07 0 .7.97 1.14 1.96 1.31 2.96.15.83.3 2.16.46 4l.16.68c.01.33.03.55.05.67a28.8 28.8 0 0 0 2.02 6.7l-.04.03h-.03a17.86 17.86 0 0 1-1.42-3.21l-.04.01c-.04.01-.05.04-.03.07a1 1 0 0 1 .1.47c-.03.4-.1.4-.2.02-.04-.18-.09-.33-.14-.48-.02-.06-.06-.07-.11-.03-.42.32-.9.38-1.45.17-.07-.03-.11-.01-.13.06l-.38 1.84v.11l.07.1c.8.76.23 1.55-.64 1.89-.07.02-.1.07-.1.14l-.03 1.83v1.86a.6.6 0 0 1-.04.15c-.1.14-.14.12-.15-.03l-.03-.54-.03-3.12c0-.05-.01-.06-.05-.02l-1.22 1.38c-.3.24-.62.47-.93.7h-.04v-.04c.7-.6 1.29-1.27 1.8-1.98.05-.08.03-.11-.07-.1-.48.03-.96 0-1.43-.1-1.73-.33-3.54-1.08-5.2-1.32a11.7 11.7 0 0 0-4.8.28l-1.78.29h-.02a.04.04 0 0 0-.01.04v.02c.56.95 1.2 1.88 1.9 2.78.33.64.81 1.16 1.45 1.56.57.36 1.23.6 1.97.7a7.16 7.16 0 0 0 4.57-1.01c-.13.2-.3.36-.52.5a6.27 6.27 0 0 1-5.38.42c-.05-.02-.06 0-.03.04.47.66.84 1.41 1.1 2.25a1 1 0 0 1 0 .43c-.25-.54-.47-1.08-.67-1.6a5.38 5.38 0 0 0-1.47-1.82 5 5 0 0 1-.98-1.1.94.94 0 0 0-.28-.25 2.6 2.6 0 0 1-.32-.23 1.72 1.72 0 0 0-.27-.61 8 8 0 0 1-.38-.55c-.26-.48-.55-.95-.87-1.41a.58.58 0 0 0-.53-.26.07.07 0 0 0-.05.03.06.06 0 0 0 0 .07l.9 1.64A5.92 5.92 0 0 1 16 31.95c-.04-.1-.12-.17-.25-.22-.61-.25-.84-.53-.63-1.28.12-.38.03-.58-.26-.6l-.1-.85c-.01-.07-.03-.07-.05 0-.12.43-.09.89.1 1.39l.06.94c.09 1.04.4 2.02.95 2.92.58.98 1.38 1.48 2.39 1.52.17 0 .32-.05.49-.05.1 0 .1.02 0 .05-.39.15-.77.17-1.15.05a.22.22 0 0 0-.17.02l-.04.02a.17.17 0 0 1-.18-.01 5.31 5.31 0 0 1-2.22-2.78c-.4-1.2-.57-2.51-.5-3.95.02-.34.14-.53.06-.9-.4-1.8-.55-3.62-.47-5.46.05-.94.09-1.83.08-2.8-.03-1.99.75-4.13 1.83-5.8a11.45 11.45 0 0 1 6.78-4.9 6.47 6.47 0 0 1 6.25 1.49c.05.04.1.06.17.05a3.55 3.55 0 0 1 2.6.46c1.41.9 2.62 2.31 3.43 3.86.99 1.9 1.7 3.97 2.11 6.2.2 1.04.38 2.07.54 3.06.04.2.16.43.2.65.47 2.32.86 4.08 1.16 5.28.85 3.31 2.26 6.87 3.54 10.25.03.09.08.17.13.25L45 43.87a.07.07 0 0 1 0 .08c-.01.02-.02.03-.04.03h-.04l-.21-.03Z" fill="#010101"/><path d="M27.14 9.9c-.37.27-.83.34-1.4.22-.14-.03-.37.07-.69.29a.21.21 0 0 0-.09.13c-.08.36-.08.69.02.98v.09a.12.12 0 0 1-.1.07c-.06.01-.1.04-.1.1-.03.19-.02.35.01.5.01.04.03.07.06.1a.27.27 0 0 0 .2.1c.04 0 .08 0 .11-.02.2-.07.4-.1.61-.07.13.02.15-.02.07-.11l-.17-.21-.01-.02v-.03l.03-.02h.02c.63.12.84-.27 1.04-.73a.24.24 0 0 1 .1-.12.3.3 0 0 1 .1-.04.21.21 0 0 0 .17-.11c.2-.38.36-.43.34-.9l1.2.76c.08.05.08.08-.01.1-.74.2-1.08 1.42-1.12 2.16a.1.1 0 0 0 .03.07.1.1 0 0 0 .07.04H27.7v-.01c.05-.39.17-.77.37-1.17.32-.63.86-.94 1.62-.95 1.69-.01 2.25.97 3.1 2.11.03.06.05.05.04-.01a26.7 26.7 0 0 1-.65-1.2c-.08-.15-.05-.17.09-.06 1.14.98 2.02 2.12 2.64 3.43.8 1.71 1.44 3.83 1.92 6.35.32 1.73.64 3.56.95 5.5a10.18 10.18 0 0 0 .32 1.34h.09l.01-.03v-.86c0-.05.02-.07.07-.07h.06c.02 0 .03 0 .03.03.28 2.14.78 4.25 1.48 6.3l-.86-.34a.32.32 0 0 0-.36.1.3.3 0 0 0-.06.11c-.02.1 0 .21.05.34 0 .02 0 .03-.02.04h-.05c-.02 0-.03-.02-.04-.05-.13-.3-.26-.4-.4-.3a23.86 23.86 0 0 1-2.37-5.55 52.29 52.29 0 0 1-.64-2.98l-.03-.01h-.04c.13 2.12.66 4.12 1.59 6.03l.83 1.72-.28.02c-.07 0-.1.04-.12.1a.61.61 0 0 0 0 .25c-.07.07-.07.18 0 .32l-.21.45a.24.24 0 0 1-.12.11l-.5.25c-.45-.76-.83-1.56-1.14-2.42-.18-.5-.35-1.02-.52-1.55 0-.02-.02-.02-.04-.01l-.05.02-.01.04c.15.92.38 1.76.7 2.52.9 2.2 2.2 4.12 3.88 5.78.37.36.76.67 1.18.93.14.08.15.07.03-.04-.26-.24-.52-.43-.76-.7a22.91 22.91 0 0 1-2.9-3.94c.3.04.55.13.77.27.3.2.39.51.56.78.03.05.07.08.14.08.1 0 .2-.05.29-.14a33.5 33.5 0 0 0 3.75 5.21 7404.52 7404.52 0 0 1-3.26-5.03c.09-.13.2-.18.35-.16.08 0 .13-.03.14-.1l.07-.6c0-.06.03-.1.07-.14.22-.2.42-.48.6-.84.6 1.66 1.25 3.25 1.94 4.77v.06c-.04.05-.08.04-.1-.01l-.43-.82c0-.02-.02-.02-.04-.01l-.04.01a.1.1 0 0 0-.05.05c-.01.02-.01.05 0 .07.5 1.14 1.13 2.21 1.89 3.22.5.68 1 1.38 1.47 2.1l-2.11.03c-.03 0-.06 0-.08-.02a.16.16 0 0 1-.06-.06l-.82-1.42a.98.98 0 0 1-.26-.39 6.74 6.74 0 0 0-3-2.25 35 35 0 0 1-4.83-2.45c-.44-.26-.89-.62-1.36-1.06a2.77 2.77 0 0 1-.47-.63 3.83 3.83 0 0 0-.46-.64 1.46 1.46 0 0 0-.28-.4l.03-1.83c0-.07.03-.12.1-.14.87-.34 1.44-1.13.64-1.9a.23.23 0 0 1-.06-.09.22.22 0 0 1 0-.11l.37-1.84c.02-.07.06-.1.13-.06.55.2 1.03.15 1.45-.17.05-.04.09-.03.1.03l.16.48c.1.39.16.38.19-.02a1 1 0 0 0-.1-.47c-.02-.03 0-.06.03-.07l.04-.01a.01.01 0 0 1 .02 0 17.85 17.85 0 0 0 1.4 3.21h.03l.04-.02a28.81 28.81 0 0 1-2.02-6.7 6.46 6.46 0 0 1-.05-.68.7.7 0 0 0 .5-.06c.15-.09.31-.09.47.01.06.03.12.04.18.02l.5-.16a.67.67 0 0 1 .22-.03c.25 0 .35-.08.5-.28.12-.16.25-.3.4-.41.23 1.74.3 3.58.77 5.22a4.63 4.63 0 0 0 1.1 1.88 8.7 8.7 0 0 1-1.18-3.5l-.45-3.57a4.12 4.12 0 0 0-.67-1.86c-.06-.07-.1-.06-.09.04 0 .06.03.13.07.2l-1.25.16c-.05 0-.09.04-.1.09l-.41 1.03a.84.84 0 0 1-.72.54 52.14 52.14 0 0 0-.46-4c-.18-1-.61-1.99-1.3-2.95-.03-.03-.06-.04-.09 0l-.04.03v.03a9.37 9.37 0 0 1 1.37 4.34c.08 1.36.23 2.72.46 4.07.07.41 0 .44-.22.07a6.12 6.12 0 0 1-.8-2.62c.02-.3.1-.6.28-.89.16-.15.22-.39.18-.71-.09-.73-.24-1.42-.44-2.06a6.69 6.69 0 0 0-.97-1.87c-.6-.82-1.28-1.59-2.07-2.28-.21-.14-.4-.32-.55-.54 1.24.2 2.21.66 2.93 1.42a6.35 6.35 0 0 1 1.74 4.08c0 .03.01.04.04.04h.04c.04 0 .06-.03.06-.07a7.12 7.12 0 0 0-.36-2.06c.36 0 .66-.06.9-.16a7.26 7.26 0 0 1 .87 3.33h.05a.05.05 0 0 0 .04 0l.01-.02v-.01a6 6 0 0 0-.6-3.12c.12-.05.2-.14.26-.27a.58.58 0 0 0 .01-.33c-.07-.36-.03-.64.12-.85a16.23 16.23 0 0 1 1.39 4.4h.04c.03 0 .04-.02.04-.05-.2-2.32-.99-4.42-2.38-6.3-.01-.02-.03-.02-.05 0l-.04.02-.02.02v.02l.37.65c-.53.24-.99.23-1.36-.03-.13-.09-.22-.09-.28 0-.48-1.27-1.75-2.38-2.94-3.05-.02-.01-.04 0-.06.02l-.03.03.01.05c.43.32.83.64 1.18.94.12.1.11.12-.04.06l-.94-.41h-.03a.04.04 0 0 0-.02.01l-.02.05v.04c.37.23.77.44 1.19.62.3.13.55.3.73.52.27.3.5.62.7.93.06.1.15.15.27.19-.22.2-.38.44-.48.73a5.9 5.9 0 0 0-2.46-1.43c-.8-.25-1.36-.4-1.66-.46l-1.49-.4c.57-.38.91-.82 1.02-1.32 0-.06-.01-.08-.07-.05a.13.13 0 0 0-.06.05c-.43.84-1.04 1.22-1.96 1.2a9.2 9.2 0 0 0-3.12.42l-.01.04.01.05c.02.01 0 .03-.08.05a.65.65 0 0 1-.29-.04c.52-.5 1.11-.83 1.77-.99.29-.07.65-.12 1.07-.16.02 0 .04-.02.04-.03v-.05a.13.13 0 0 0-.1-.05c-1.3-.14-2.64.7-3.58 1.68-.89.93-1.64 1.84-2.28 2.74-.42.59-.8 1.21-1.13 1.88-.2.14-.26.27-.18.4-.32.27-.54.63-.66 1.08l-.59 1.93c-.09.3-.01.5 0 .78 0 .06 0 .12-.03.17-.45.8-.64 1.68-.54 2.64.06.68.2 1.37.2 2.06 0 .58.04 1.15.13 1.71.01.07-.01.11-.08.14a1 1 0 0 0-.42.32.11.11 0 0 1-.15.02 15.1 15.1 0 0 1-.99-4.26 32.94 32.94 0 0 1-.03-4.45c.05-.8.2-1.62.45-2.44a.34.34 0 0 0-.01-.24c-.04-.1-.08-.09-.1 0a666.33 666.33 0 0 1-.3 1.23l-.06-.04c-.02-.01-.03-.03-.03-.05l.33-1.61c.2.05.34.2.43.43.1.25-.12.53.13.75.11.1.24.13.38.07.06-.02.1-.06.13-.11.1-.21.28-.26.52-.16-.58 1.33-.9 2.73-.99 4.2 0 .18 0 .36.02.53 0 .02 0 .03.03.03.01 0 .02 0 .02-.02a13.08 13.08 0 0 1 3.18-7.96v-.02l-.03-.02-.05-.02a.16.16 0 0 0-.18.04c-.58.68-1.06 1.38-1.44 2.1a.75.75 0 0 1-.25-.6 17.1 17.1 0 0 1 3.23-4.39c1.1-1.08 2.54-1.98 4.18-1.96.1 0 .1-.03.03-.08a.85.85 0 0 0-.69-.13 7.64 7.64 0 0 0-4.42 2.73 17.1 17.1 0 0 0-2.44 3.66l-.56-.12c-.07-.01-.11.01-.13.07l-.2.58c-.03.08-.07.09-.12.03a.07.07 0 0 1-.02-.07c.02-.08 0-.11-.09-.1l-.57.05a12.43 12.43 0 0 1 2.74-4.96c.75-.83 1.8-1.6 3.15-2.33a7.48 7.48 0 0 1 6.59-.47Z" fill="#442F21"/><path d="m27.14 9.9.32.2c.02.47-.14.52-.34.9a.21.21 0 0 1-.16.11.3.3 0 0 0-.1.04.24.24 0 0 0-.11.12c-.2.46-.41.85-1.04.73h-.02l-.02.02-.01.03v.02l.18.2c.08.1.06.14-.07.12a1.2 1.2 0 0 0-.6.07.28.28 0 0 1-.32-.08.26.26 0 0 1-.06-.1 1.25 1.25 0 0 1-.01-.5c0-.06.04-.09.1-.1.04 0 .07-.03.1-.07a.13.13 0 0 0 0-.1c-.1-.28-.1-.6-.02-.97.02-.06.05-.1.1-.13.31-.22.54-.32.69-.29.56.12 1.02.05 1.39-.21Z" fill="#5E422E"/><path d="M16.46 17.4c-.08.03-.12-.03-.1-.17a17.1 17.1 0 0 1 2.43-3.66 7.64 7.64 0 0 1 4.42-2.73c.27-.05.5 0 .69.13.07.05.06.08-.03.08-1.64-.02-3.08.88-4.18 1.96a17.1 17.1 0 0 0-3.23 4.4ZM32.48 14.9a.45.45 0 0 1-.26-.18 7.9 7.9 0 0 0-.7-.93 2.02 2.02 0 0 0-.74-.52c-.42-.18-.82-.39-1.18-.62-.02-.01-.02-.03-.01-.04l.02-.05.02-.02h.03l.94.42c.15.06.16.04.04-.06-.35-.3-.75-.62-1.18-.94-.01-.01-.02-.03 0-.05l.02-.03c.02-.03.04-.03.06-.02 1.2.67 2.46 1.78 2.94 3.05ZM26.39 13.35c-.37.09-.88.12-1.53.1-.79-.01-1.67.08-2.66.29a.07.07 0 0 1-.01-.05l.01-.04.04-.02a9.2 9.2 0 0 1 3.08-.4c.92.02 1.53-.36 1.96-1.2a.12.12 0 0 1 .06-.05c.06-.03.08 0 .07.05-.1.5-.45.94-1.02 1.32Z" fill="#010101"/><path d="M21.84 13.75a15.35 15.35 0 0 0-2.4 2.59c-.8 1.13-1.4 1.94-1.82 2.43.33-.67.7-1.3 1.13-1.89.64-.9 1.4-1.8 2.28-2.73.94-.99 2.29-1.82 3.59-1.68.03 0 .06.02.09.05v.04c0 .02-.01.03-.04.04-.42.04-.78.1-1.07.16-.66.16-1.25.5-1.76.99Z" fill="#010101"/><path d="m26.39 13.35 1.5.4.77.45c.15.22.34.4.55.54l.92 1.2c-.02.53 0 1.04.03 1.51.02.31-.15 1-.52 2.08-.45-.08-4.04-.42-3.57.72a.11.11 0 0 1-.03.13 2.2 2.2 0 0 0-1.35 1.33c0 .02 0 .03.02.03h.09l.02-.02c.32-.58.81-.97 1.46-1.17a.8.8 0 0 0 .03.5c-.32.06-.56.2-.74.4-.07.09-.05.1.05.06.28-.12.54-.28.85-.35.8-.18 1.61-.2 2.43-.03 0 .1-.04.19-.14.24-.1-.07-.2-.06-.27.03-.04.05-.09.07-.14.07-.04 0-.06-.02-.05-.06v-.05c-.04-.04-.08-.04-.12 0-.11.14-.23.16-.35.05a.12.12 0 0 0-.14-.02.12.12 0 0 0-.07.07c-.03.09-.08.1-.15.04-.06-.06-.12-.06-.18 0a.24.24 0 0 1-.2.07.87.87 0 0 0-.36.05.28.28 0 0 1-.18 0 .85.85 0 0 0-.61.08c-.11.05-.23.1-.34.12-.27.06-.51.18-.76.27a.18.18 0 0 0-.1.1c-.03.05-.03.08 0 .07l.03.12-.07.04c0 .03.03.05.06.07 1.38.73 2.81.81 4.3.25l.22.7c-1.38.55-2.76.13-4.08-.32l-.03.01-.04.04c-.02.02-.01.04.01.05 1.13.55 2.28.75 3.46.62a2.7 2.7 0 0 0 1.72-.96c.16.26.21.53.16.82a.2.2 0 0 0 .03.15l.11.17-.2.36c-.06.02-.07.05-.05.08.52.71.88 1.73.5 2.56a4.3 4.3 0 0 1-1.68 1.93c-.2.12-.18.17.05.14.83-.1 1.46-.48 1.89-1.13.16-.25.25-.22.25.07v1.26c0 .06.03.1.1.1l.13.02-.19 1c0 .07-.04.09-.1.06a9.1 9.1 0 0 0-2.6-.72c-1.3-.16-2.52-.3-3.82-.34-2.48-.09-4.56-.13-6.26-.13-.63 0-1.36.07-2.18.22v-.76l.01-.05a.12.12 0 0 1 .08-.07h.05c.3.03.6.01.87-.03.15-.03.15-.06 0-.11a.86.86 0 0 1-.45-.33 3 3 0 0 1-.48-2.57c.1-.43.4-.9.58-1.37l.3.15c.08.03.1.02.05-.05a.42.42 0 0 0-.2-.14c.08-.48.33-.87.72-1.17.74.32 2 .61 2.76.22.07-.03.07-.05-.01-.05l-.53.05a4.22 4.22 0 0 1-2.05-.33c.29-.21.4-.41.32-.61.98.19 1.98.26 2.99.23.2 0 .4-.05.58-.12a.21.21 0 0 0 .1-.07.2.2 0 0 0-.08-.3 2.47 2.47 0 0 1-.58-.42c-.05-.04-.1-.05-.14-.03a.19.19 0 0 1-.12.02.16.16 0 0 1-.09-.05.58.58 0 0 0-.52-.2.16.16 0 0 1-.14-.05.27.27 0 0 0-.3-.08.34.34 0 0 1-.2.01 6 6 0 0 0-2.05-.13c-.05 0-.07-.01-.08-.05l-.01-.05v-.03l.03-.02a4.77 4.77 0 0 1 3.06.14c.02.01.04 0 .05-.02 0-.02 0-.04-.02-.05a4.5 4.5 0 0 0-3.07-.19.18.18 0 0 0-.11.1.07.07 0 0 0 0 .07c.03.05.01.09-.05.1-.09.02-.16 0-.22-.08-.03-.04-.05-.04-.08 0-.14.22-.32.24-.55.08-.06-.04-.06-.09-.02-.14.65-.87 1.98-1.07 2.9-.73.37.14.7.23 1.1.29.39.06.8.53 1.02.83.01.02.03.02.05 0v-.02c-.19-.35-.45-.62-.78-.8-.05-.04-.06-.08-.02-.12.68-.8-1.7-1.3-2.13-1.43l.04-1.16c0-.24.08-.46.2-.66a16.4 16.4 0 0 1 2.88-3.36c.07-.02.1-.04.08-.05.99-.21 1.87-.3 2.66-.29.65.02 1.16-.01 1.53-.1Z" fill="#749159"/><path d="M32 15.64c.48.6.85 1.26 1.12 1.97.22.67.34 1.35.35 2.06 0 .04-.02.06-.06.06h-.04c-.03 0-.04 0-.04-.03a6.35 6.35 0 0 0-1.74-4.08 4.94 4.94 0 0 0-2.93-1.42l-.78-.45c.3.06.86.21 1.66.46.99.3 1.8.78 2.46 1.43Z" fill="#010101"/><path d="M21.83 13.75c.12.03.22.05.29.04a16.4 16.4 0 0 0-2.88 3.36c-.12.2-.2.42-.2.66L19 18.97c-.7-.13-1.24.18-1.67.72-.02.03-.04.03-.06.01l-.04-.02a.01.01 0 0 1 0-.02c.17-.13.23-.3.2-.48-.07-.14-.02-.27.19-.41.42-.5 1.03-1.3 1.82-2.43.57-.82 1.37-1.68 2.4-2.6Z" fill="#607849"/><path d="m34.77 16.18-.65-1.24-.36-.65v-.04l.05-.03c.02-.01.04 0 .05.01a12.14 12.14 0 0 1 2.38 6.3c0 .03 0 .05-.04.05h-.05a16.23 16.23 0 0 0-1.38-4.4ZM32.51 21.66a9.25 9.25 0 0 0-.64-3.05 8.13 8.13 0 0 0-1.74-2.68l-.92-1.2c.79.7 1.48 1.47 2.07 2.3.44.6.76 1.22.97 1.86.2.64.35 1.33.44 2.06.04.32-.02.56-.18.71Z" fill="#010101"/><path d="m34.12 14.94.65 1.24c-.15.21-.19.5-.12.85.03.14.03.25 0 .33a.53.53 0 0 1-.26.27l-.91-1.82-.02-.01-.02-.01a.05.05 0 0 0-.04.01l-.04.03v.04l.66 1.58c-.25.1-.55.15-.9.16A6.93 6.93 0 0 0 32 15.64c.1-.29.26-.53.48-.73.06-.09.15-.09.28 0 .37.26.83.27 1.36.03Z" fill="#5E422E"/><path d="M34.39 17.63a6 6 0 0 1 .58 3.15.05.05 0 0 1-.04 0h-.05v-.01a7.26 7.26 0 0 0-.86-3.32l-.67-1.58.01-.04.04-.03.02-.01h.02a.05.05 0 0 1 .04.02l.9 1.82ZM16.15 19.14 16.7 18c.38-.72.86-1.42 1.44-2.1a.16.16 0 0 1 .18-.04l.05.02.02.02.01.02a.05.05 0 0 1 0 .05 13.08 13.08 0 0 0-3.2 7.93c-.02 0-.03 0-.03-.03a3.19 3.19 0 0 1-.02-.52c.08-1.48.41-2.88.99-4.2Z" fill="#010101"/><path d="M30.13 15.93a8.12 8.12 0 0 1 1.74 2.68c.4 1 .6 2.02.64 3.05-.17.3-.26.6-.28.9-.06.31-.07.6-.02.87.09.5.15 1.01.18 1.54.01.13.09.39.22.76.02.05.02.1 0 .16l-1 3.52-.13-.01c-.07-.01-.1-.05-.1-.11v-1.26c0-.3-.09-.32-.25-.07a2.53 2.53 0 0 1-1.9 1.13c-.22.03-.24-.02-.04-.14a4.3 4.3 0 0 0 1.69-1.93c.37-.83.01-1.85-.5-2.56-.03-.03-.02-.06.04-.08h.05l.06-.03c.56-.6.62-1.28.18-2.05h-.01l-.04.01c-.03.01-.04.03-.03.06.22.55.22 1.1 0 1.65l-.12-.17a.2.2 0 0 1-.03-.15c.05-.29 0-.56-.16-.82l-1.04.57-.22-.7c.27-.09.54-.2.81-.35.17-.09.27-.19.3-.3.03-.18-.06-.32-.3-.43a3.05 3.05 0 0 0-1.1-.3c.09-.05.14-.13.13-.24.14.07.25.1.33.08.08-.02.08-.05.01-.08a4.56 4.56 0 0 0-2.93-.08.8.8 0 0 1-.03-.5c1.29-.47 3.33-.61 3.93.86.04.1.06.1.04-.01-.16-.85-.93-1.24-1.73-1.38h-.02a.02.02 0 0 1 0-.04h.02c1.23-.17 2.12.2 2.67 1.1.17.28.2.26.1-.05-.22-.71-.77-1.21-1.64-1.5.36-1.07.54-1.77.51-2.08-.04-.47-.05-.98-.03-1.52Z" fill="#607849"/><path d="M16.36 17.23c-.01.14.02.2.1.18 0 .25.08.45.25.6l-.56 1.14c-.24-.11-.41-.06-.52.15a.23.23 0 0 1-.13.11.35.35 0 0 1-.38-.07c-.25-.22-.03-.5-.12-.75-.1-.23-.24-.38-.44-.43l.1-.49.57-.05c.08-.01.11.02.1.1-.01.02 0 .05.01.07.05.06.1.05.12-.03l.2-.58c.02-.06.07-.08.13-.07l.57.12Z" fill="#5E422E"/><path d="M25.4 18.7c-1.05.85-1.34 1.93-.9 3.23.01.02 0 .03-.02.03h-.06a.04.04 0 0 1-.04-.03c-.48-1.29-.2-2.36.83-3.2a.4.4 0 0 1 .16-.08c.1-.02.1 0 .03.06ZM22.43 21.78c.76-.7.74-1.8.28-2.67-.02-.02-.01-.04.01-.06l.04-.02c.17.25.3.51.37.8.17.73.05 1.34-.36 1.85a.5.5 0 0 1-.3.18c-.1.02-.11 0-.04-.08Z" fill="#010101"/><path d="M19.98 20.1a8.08 8.08 0 0 0-1.9-.64c-.1-.02-.1-.05-.02-.1.35-.2.72-.24 1.11-.13l1.43.45a1 1 0 0 1 .45.29c.02.03.04.06.04.09v.1a.18.18 0 0 1-.07.08.2.2 0 0 1-.1.03c-.31.04-.63-.02-.94-.17Z" fill="#442F21"/><path d="M29.64 19.53c.88.29 1.43.79 1.66 1.5.1.31.06.33-.11.04-.55-.9-1.44-1.26-2.67-1.1l-.02.01v.04h.02c.8.14 1.57.53 1.72 1.38.03.11.01.12-.03 0-.6-1.46-2.64-1.32-3.93-.85a2.42 2.42 0 0 0-1.48 1.19h-.09c-.02 0-.03-.01-.02-.03a2.2 2.2 0 0 1 1.35-1.33.12.12 0 0 0 .04-.08l-.01-.05c-.47-1.14 3.12-.8 3.57-.72Z" fill="#010101"/><path d="M26.75 20.28a.65.65 0 0 1-.41 0 .25.25 0 0 1-.11-.08.24.24 0 0 1 .08-.36c.56-.28 1.6-.2 2.23-.18.09 0 .1.02 0 .05-.6.2-1.2.4-1.79.57Z" fill="#442F21"/><path d="M18.85 19.9c-.63.05-1.2.1-1.74.47-.08.05-.1.04-.1-.05.03-.17.1-.3.24-.39.45-.3.99-.33 1.61-.1.11.04.1.07-.01.07Z" fill="#607849"/><path d="M28.9 21.13a5.68 5.68 0 0 0-2.43.03c-.31.07-.57.23-.85.35-.1.05-.12.03-.05-.06.17-.2.42-.34.74-.4.9-.27 2.04-.3 2.93.08.07.03.07.06 0 .08-.09.02-.2 0-.34-.08Z" fill="#010101"/><path d="M16.92 21.25c.08.03.08.07 0 .1l-.23.1c-.07.03-.1.01-.07-.06.05-.14.15-.2.3-.14Z" fill="#749159"/><path d="M18.29 21.36a.58.58 0 0 0-.04.64c.04.08.02.11-.08.1a9.55 9.55 0 0 1-1.4-.33c-.2-.06-.2-.13 0-.22a3.33 3.33 0 0 1 1.5-.25.04.04 0 0 1 .02.04v.02Z" fill="#FEFEFE"/><path d="M28.76 21.37c.4.03.77.13 1.11.3.24.1.34.25.3.42-.03.12-.13.22-.3.31-.27.15-.54.26-.81.34a5.02 5.02 0 0 1-4.3-.25.1.1 0 0 1-.06-.07l.07-.04c.46.22.95.36 1.48.41.09.01.11-.02.06-.1a.65.65 0 0 1-.07-.65c.04-.08.01-.12-.08-.1l-1.41.32c-.04 0-.04-.02-.01-.07a.18.18 0 0 1 .1-.1c.25-.1.49-.21.76-.27.11-.03.23-.07.34-.12.2-.1.4-.13.61-.07.06.01.12 0 .18-.01a.87.87 0 0 1 .37-.05c.07 0 .14-.02.19-.07.06-.06.12-.06.18 0 .07.06.12.05.15-.04a.12.12 0 0 1 .07-.07c.05-.02.1-.02.14.02.12.1.24.1.35-.05.04-.04.08-.04.12 0v.05c0 .04.01.06.05.06.05 0 .1-.02.14-.07.08-.09.17-.1.27-.03Z" fill="#010101"/><path d="M19.1 21.94v.03l-.02.01h-.02l-.03.01a.33.33 0 0 1-.23-.06.3.3 0 0 1-.11-.2v-.05a.28.28 0 0 1 .06-.22.32.32 0 0 1 .22-.1h.05a.04.04 0 0 1 .03.03l.05.55Z" fill="#FEFEFE"/><path d="m36.24 23.35-.45-1.58a.57.57 0 0 1-.07-.21c0-.1.03-.11.1-.04.37.41.6 1.38.67 1.86l.44 3.57a8.7 8.7 0 0 0 1.19 3.46l-.01.04h-.03A4.63 4.63 0 0 1 37 28.57c-.47-1.64-.54-3.48-.77-5.22Z" fill="#010101"/><path d="m21.25 21.71.78.38a.1.1 0 0 1 .05.04.1.1 0 0 1-.01.11.1.1 0 0 1-.05.04c-.23.08-.5.12-.8.1-.08 0-.1-.04-.07-.12l.05-.15a.24.24 0 0 0 0-.17l-.05-.14c-.04-.11 0-.14.1-.09Z" fill="#FEFEFE"/><path d="m35.79 21.77.45 1.58c-.15.12-.28.25-.4.4-.15.21-.25.3-.5.29-.08 0-.15 0-.21.03l-.5.16a.21.21 0 0 1-.19-.02c-.16-.1-.32-.1-.47 0a.7.7 0 0 1-.5.05l-.16-.68a.84.84 0 0 0 .72-.54c.14-.33.28-.68.4-1.03.02-.05.06-.08.11-.09l1.25-.15Z" fill="#5E422E"/><path d="M18.48 22.28c.08.2-.03.4-.32.61l-.43-.1c-.08-.03-.1 0-.04.06.05.06.15.11.3.15-.4.3-.64.7-.73 1.17-.83-.64-1.1-1.4-.78-2.28.02-.06.06-.07.11-.06l1.89.45Z" fill="#607849"/><path d="M30.08 22.16a.46.46 0 0 1-.28.15c-.07.01-.1-.01-.12-.08l-.05-.25c-.02-.09.02-.12.1-.1.16.04.27.12.35.22l.01.03-.01.03ZM24.77 22.38l-.02-.12 1.4-.31c.1-.03.13 0 .1.1-.1.22-.08.44.06.65.05.07.03.1-.06.1a4.46 4.46 0 0 1-1.48-.42ZM19.55 22.23c.12.02.22-.01.23-.07.01-.05-.07-.12-.19-.14-.11-.02-.21.01-.22.07-.01.05.07.12.18.14ZM27.35 22.55a.03.03 0 0 1 0 .04l-.01.01a.34.34 0 0 1-.26.09c-.1-.01-.2-.06-.28-.13l-.05-.04a.43.43 0 0 1-.13-.27c-.01-.1.02-.2.09-.26h.01a.03.03 0 0 1 .05 0l.58.56Z" fill="#FEFEFE"/><path d="m30.41 24.38.21-.36c.23-.55.23-1.1.01-1.65-.01-.03 0-.05.03-.06l.04-.01h.01c.44.77.38 1.45-.18 2.05a.12.12 0 0 1-.06.03h-.05Z" fill="#010101"/><path d="M27.74 22.43c.1-.08.22-.1.33-.06a.1.1 0 0 1 .05.04.1.1 0 0 1-.04.15c-.1.05-.2.05-.31.02-.12-.03-.13-.08-.03-.15Z" fill="#FEFEFE"/><path d="M22 23.42c.13-.25.18-.54.16-.87 0-.03.01-.05.04-.07a.09.09 0 0 1 .04-.02c.02 0 .04 0 .04.02.09.27.08.53-.01.79-.42 1.1-1.24 1.68-2.47 1.75-.03 0-.05-.01-.05-.05v-.04c1.08-.11 1.83-.61 2.26-1.5ZM26.9 26.27c-1.94-.2-2.85-1.89-2.45-3.64l.02-.05a.08.08 0 0 1 .05-.01h.06v.02c-.24 1.94.59 3.16 2.49 3.67a.1.1 0 0 1 .06.05c.02.03.02.04-.02.03-.08-.02-.14-.06-.22-.07ZM18.16 22.9c.7.28 1.4.39 2.05.32l.53-.05c.08 0 .08.02 0 .05-.75.39-2.01.1-2.75-.22-.15-.04-.25-.1-.3-.15-.05-.07-.04-.09.04-.07l.43.11ZM30.33 22.88c-.52.57-1.1.9-1.73.96a6.21 6.21 0 0 1-3.46-.62c-.02-.01-.03-.03 0-.05l.03-.04h.03c1.32.44 2.7.86 4.08.32l1.05-.57Z" fill="#010101"/><path d="M17.13 24.2c-.19.47-.48.95-.59 1.38a3 3 0 0 0 .48 2.57c.11.16.26.27.46.33.14.05.14.08-.01.1a3.32 3.32 0 0 1-.92.04.13.13 0 0 0-.08.07v.05l-.01.76a.26.26 0 0 1-.15.06c-.07 0-.1-.02-.12-.09a5.32 5.32 0 0 1-.15-1.72c0-.1.03-.1.07 0 .1.25.26.48.46.66.1.1.11.09.05-.03a6.07 6.07 0 0 1-.4-5.14.06.06 0 0 1 .06 0s.02 0 .02.02c.2.37.48.7.82.95Z" fill="#607849"/><path d="M18.67 23.48c.38.12.76.17 1.15.18.18 0 .18.02 0 .05-.38.08-.79.04-1.2-.11-.02-.01-.03-.03-.02-.05l.01-.04c.01-.03.03-.03.06-.03ZM29.42 23.87a2.96 2.96 0 0 1-1.98.3v-.04c.01-.04.03-.05.07-.05a3.68 3.68 0 0 0 1.88-.27l.01.02.02.03v.01Z" fill="#010101"/><path d="m33.96 28.31-1.1-2.46a3.44 3.44 0 0 1-.31-1c-.04-.3 0-.3.12-.04.11.24.32.68.57.8.06.02.1.06.1.12a18.2 18.2 0 0 0 .71 2.59l-.05.01c-.02.01-.03 0-.04-.02Z" fill="#442F21"/><path d="M38.1 33.83c.04.07.06.13.06.18.02.1 0 .1-.05.02l-.67-.99-.83-1.72A15.99 15.99 0 0 1 35 25.3h.08l.02.03c.3 1.54.5 2.52.62 2.96.5 1.8 1.28 3.65 2.37 5.55Z" fill="#010101"/><path d="m32.8 26.24.87 1.94v.04c0 .02-.02.03-.03.03l-.76.37h-.04l-.7-.1a.06.06 0 0 1-.04-.02.06.06 0 0 1 0-.05l.6-2.2.01-.04a.06.06 0 0 1 .07 0l.02.03Z" fill="#607849"/><path d="M15.42 28.6c.08.27.15.54.2.81.07.27.05.28-.06.02a7.18 7.18 0 0 1-.5-2.5c.1.61.22 1.17.36 1.66Z" fill="#010101"/><path d="M14.85 29.85c.02.19 0 .37-.06.54-.18-.5-.2-.96-.09-1.39.02-.07.04-.07.05 0l.1.85Z" fill="#442F21"/><path d="M29.31 32.58c-1.96-.26-3.97-1.05-5.84-1.4-1.7-.3-3.47 0-5.22.36-.78.17-2.28.28-2.85-.33-.3-.32 0-.9.31-1.12a3.4 3.4 0 0 1 1.8-.58c.84-.05 1.61-.06 2.32-.04 1.7.04 3.34.09 4.94.15.69.03 1.4.08 2.14.15 1.12.11 4.34.37 4.87 1.52.15.32.04.6-.32.85-.6.4-1.32.56-2.15.44Z" fill="#7E5137"/><path d="M27.72 31.15a21.41 21.41 0 0 0-8.37-.62c-.62.08-1.27.05-1.92.14-.04 0-.07-.01-.08-.05v-.07a5.9 5.9 0 0 1 1.21-.25c2.7-.23 5.58-.38 8.22.3.96.24 1.99.57 3.1 1 .01 0 .02.02.02.05l-.02.04h-.02c-.72-.17-1.43-.35-2.14-.54ZM33.1 34.1c-.25-.95-.39-2.01-.42-3.19-.01-.14.05-.26.17-.36h.04l.02.01v.02c.04 1.45.18 3.07.78 4.4a7.02 7.02 0 0 0 3.1 3.29c.73.4 1.45.82 2.18 1.25.02.01.02.03 0 .04 0 .02-.02.03-.04.02-.9-.51-1.9-.88-2.76-1.45-.43-.29-.87-.55-1.23-.92-.6-.59-1.46-1.57-1.67-2.42l-.17-.68Z" fill="#010101"/><path d="m36.22 34.54.36.63a22.9 22.9 0 0 0 2.9 3.95c.24.26.5.45.76.69.12.11.11.12-.03.04a6.69 6.69 0 0 1-1.18-.93 17.15 17.15 0 0 1-3.88-5.78 11.42 11.42 0 0 1-.69-2.56l.05-.02c.02-.01.03 0 .04.01l.52 1.55c.31.86.7 1.66 1.15 2.42Z" fill="#010101"/><path d="M29.45 34.33c.48.48.84 1.03 1.07 1.66.02.06.05.09.08.1a.4.4 0 0 0 .15 0l.03.54c.01.15.06.17.15.03a.6.6 0 0 0 .04-.15c.49.11.78.21.89.3.43.37.9.6 1.41.7 1.03.62 2.12 1.2 3.28 1.73l3 1.42c.57.27 1.17.74 1.82 1.42.07.17.16.3.26.39-.14.33-.31.57-.51.7-.36.06-.7.32-1.04.78a.33.33 0 0 0-.19-.08.36.36 0 0 0 .04-.23c-.02-.07-.06-.1-.13-.1h-.2c-.14 0-.16-.05-.09-.15.37-.49.79-.74 1.25-.77a.03.03 0 0 0 .03-.01.03.03 0 0 0 0-.03l-.02-.06-.04-.02c-.62 0-1.1.3-1.45.92a.15.15 0 0 0 .06.21l.09.03h.24c.17.02.2.07.07.18l-.1.04c-.47.02-.95.1-1.4.1-4.9-.02-10.02-.03-15.34-.02-.53 0-1.5-.02-1.81-.53-.3-.46-.14-.76.23-1.13.7-.7.95-1.54.72-2.5a1 1 0 0 0-.01-.44c.53-.6 1-.95 1.4-1.09.55-.18 1-.4 1.64-.65.27-.11.61-.28 1.03-.5.22-.12.3-.28.24-.48.22-.13.4-.3.52-.5a7.16 7.16 0 0 1-4.57 1c-.74-.09-1.4-.32-1.97-.68a3.92 3.92 0 0 1-1.44-1.56c-.1-.58-.21-1.11-.36-1.6-.1-.33 0-.84.25-1.53a11.7 11.7 0 0 1 4.82-.28c1.65.24 3.46 1 5.19 1.33.47.09.95.12 1.43.08.1 0 .12.03.06.1-.5.72-1.1 1.38-1.79 1.99v.03a55.72 55.72 0 0 0 .97-.7Z" fill="#749159"/><path d="M18.77 31.77c-.26.69-.34 1.2-.25 1.53.15.49.27 1.02.36 1.6a23.07 23.07 0 0 1-1.91-2.82l.01-.02H17l1.77-.3Z" fill="#607849"/><path d="M18.31 34.79c-.56-.3-.95-.66-1.2-1.1l-.9-1.63a.06.06 0 0 1 0-.07l.02-.02.03-.01c.22 0 .4.08.53.26.32.46.6.93.87 1.4.03.07.16.25.38.56.13.18.22.38.27.6Z" fill="#442F21"/><path d="M31.68 33.65c-.08-.22-.1-.43-.05-.64.02-.12.05-.13.09 0a7.2 7.2 0 0 0 2.52 3.78l-.03.04c-.01.02-.04.02-.06 0a6.7 6.7 0 0 1-2.47-3.18Z" fill="#010101"/><path d="m37.44 33.04.67.99c.05.08.07.07.05-.02 0-.05-.02-.1-.06-.18.14-.1.27 0 .4.3 0 .03.02.05.04.06h.05c.02-.02.03-.03.02-.05a.52.52 0 0 1-.05-.34.3.3 0 0 1 .29-.23c.04 0 .09 0 .13.02l.86.35.21.56c-.17.36-.37.64-.59.84a.22.22 0 0 0-.07.13l-.07.6c0 .08-.06.12-.14.1-.14-.01-.26.04-.35.17l-1.8-2.94a.61.61 0 0 1 0-.24c.02-.06.06-.1.13-.1l.28-.02Z" fill="#5E422E"/><path d="m37.03 33.4 1.8 2.94a7404.4 7404.4 0 0 0 3.27 5.03h-.04a33.5 33.5 0 0 1-3.72-5.21l-1.3-2.43c-.07-.14-.07-.25 0-.33Z" fill="#010101"/><path d="m37.04 33.73 1.3 2.43a.38.38 0 0 1-.3.14.15.15 0 0 1-.13-.08c-.17-.27-.27-.59-.56-.78a1.8 1.8 0 0 0-.77-.27l-.36-.63.5-.25a.24.24 0 0 0 .1-.11l.22-.45Z" fill="#5E422E"/><path d="M30.97 34.65c.12.12.21.25.28.4.38 1.15 1 1.62 2.02 2.47a3.1 3.1 0 0 1-1.41-.7c-.1-.1-.4-.2-.89-.31v-1.86Z" fill="#607849"/><path d="M41.37 42.08a6.66 6.66 0 0 0-1.82-1.42l-3-1.42a36.84 36.84 0 0 1-3.28-1.72c-1.03-.85-1.65-1.32-2.02-2.47.17.2.33.41.46.64.15.26.3.47.47.63.47.44.92.8 1.36 1.06a35 35 0 0 0 4.84 2.45c1.3.53 2.3 1.28 3 2.25Z" fill="#010101"/><path d="M26.34 36.64c.06.2-.02.36-.24.48-.42.22-.76.39-1.03.5-.63.26-1.09.47-1.65.66-.4.13-.86.49-1.4 1.08a7.74 7.74 0 0 0-1.09-2.25c-.03-.05-.02-.06.03-.04 1.85.67 3.65.52 5.38-.43Z" fill="#607849"/><path d="M39.9 43.87c-.04.06-.1.1-.18.1-.04 0-.07-.03-.09-.1.07-.01.1-.02.1-.03.13-.1.11-.16-.06-.17a4.52 4.52 0 0 0-.33-.04.16.16 0 0 1-.08-.13c0-.03 0-.05.02-.08.35-.62.83-.92 1.45-.92.02 0 .03 0 .04.02l.02.06v.03h-.01l-.02.01c-.46.03-.88.28-1.25.77-.07.1-.05.16.09.15h.2c.07 0 .12.03.13.1.02.07 0 .15-.04.23ZM41.12 43.17c.15.14.33.21.53.21.05 0 .1.02.16.05.14.1.2.26.2.46l-.02.05-.04.03c-.06.04-.1.04-.15 0-.03-.03-.03-.06-.02-.1.08-.18.03-.31-.16-.41a.24.24 0 0 0-.27.03.23.23 0 0 0-.06.08c-.04.08-.1.1-.17.06-.04-.03-.05-.06-.02-.1l.07-.09c.01 0 .02-.01.02-.03a.08.08 0 0 0-.01-.06l-.02-.02c-.1-.06-.18-.06-.27 0a3.7 3.7 0 0 0-.64.57.14.14 0 0 1-.11.05h-.06c.33-.46.68-.72 1.04-.78Z" fill="#010101"/></svg>