<svg width="56" height="56" viewBox="0 0 56 56" xmlns="http://www.w3.org/2000/svg"><rect fill="#F0F3FA" width="56" height="56" rx="28"/><path d="m42.42 30.04-3.95-5.8-9.25-6.58L13 19.06c-.76.87-2.06 3.6-1.14 7.5 1.14 4.88 8.92 4.74 11.2 5.22 1.84.39 4.2 2.16 5.15 3l-.47 2.85 12.78-.43 1.9-7.16Z" fill="#D38054"/><path d="M28.02 22.88c-.5-.58-2.4-.95-3.29-1.06-1-.17-3.34.34-3.43 1.88-.1 1.55 3.58 2.47 4.96 2.71 1.38.24 2.57-.43 2.57-.96 0-.54-.19-1.84-.8-2.57ZM11.29 25.01c-.3-1.82.63-3.98 1.14-4.84.24.12.77.53 1 1.26.23.74-.19 2.15-.43 2.76-.44 1.03-1.4 2.64-1.71.82Z" fill="#fff"/><ellipse cx="24.02" cy="24.28" rx="1.57" ry="1.6"/><path d="M11.81 19.55v.58c.46.73 1.43.17 1.86-.2-.2.24-.54.73-.24.73.38 0 1.29-1.07 1.67-1.45-.62.92-1.05 1.93-.76 1.93.23 0 .82-.74 1.1-1.11-.26.47-.62 1.4 0 1.4.76 0 1.95-1.5 2.24-1.84-.39.87-.62 2.33.04 2.33.54 0 1.08-1.33 1.3-1.99-.04.8-.02 2.37.32 2.37.35 0 .72-.67.86-1.01.05.25.23.77.58.77.34 0 .8-1.68 1-2.51.01.74.19 2.22.76 2.22.57 0 1.06-1.93 1.24-2.9.05.76.24 2.27.62 2.27s.67-1.87.76-2.8c.03.93.18 2.8.53 2.8.34 0 .78-.97.95-1.45.2.7.67 2.08 1.05 2.08.48 0 .9-1.5 1.05-1.84.05 2.86.43 3.34.86 3.34.34 0 .8-1.32 1-1.98-.07 1.06-.05 3.19.52 3.19.57 0 1-1.03 1.15-1.55.04.76.25 2.27.71 2.27.46 0 .57-1.29.57-1.93.15.64.53 1.93.91 1.93s.6-.6.67-.91c.13.38.54 1.16 1.19 1.16.65 0 .43-1.16.24-1.75.4.42 1.26 1.26 1.52 1.26.34 0 .39-.34.39-.68 0-1.93-5.92-9.28-14.55-9.28s-12.11 4.06-12.11 4.55Z" fill="#3B1900"/><path d="M15.66 26.48c.17-.06.36.03.42.21.08.22.26.58.55.92.28.34.66.63 1.12.75.7.17 1.28.26 1.8.12.51-.14 1.03-.52 1.55-1.46.1-.16.3-.22.46-.13.16.1.22.3.13.46-.58 1.05-1.23 1.58-1.96 1.78-.71.2-1.44.05-2.13-.12a2.85 2.85 0 0 1-1.48-.95c-.35-.41-.57-.85-.67-1.15a.34.34 0 0 1 .21-.43Z"/><path d="M28.02 35.46c-.66.85-2.1 2.66-2.52 3.04.25 1.05 1.15 3.4 2.71 4.45 10.8.27 16.23-8.62 17.6-13.1l-3.72-1.55c-.1.14-.33.89-.52 2.7-1.3 4.65-6.44 5.62-9.64 5.62-2.55 0-3.67-.78-3.9-1.16Z" fill="#7E661C"/><path d="M28.21 43a8.96 8.96 0 0 0-2.43-4.6c-.75.96-2.3 3.05-2.57 3.83 2.43.67 4.67.77 5 .77Z" fill="#D38054"/><path d="m46 28.78-.24 1.07c-.8-.25-2.66-.73-3.57-.73 0 .44-.1 7.84-9.78 7.84-1.86 0-3.05-.1-4.2-1.02-.71.73-3.62 3.92-4.76 6.33l-.96-.29c1.58-2.12 4.79-6.52 5.06-7.1-.2-.34-1.67-1.84-4.68-2.42-.42-.08-.95-.15-1.57-.23-3.74-.47-10.3-1.29-10.3-7.9 0-2.56.48-3.82.81-4.16.33-.33 1.96-1.01 2.1 2.37 0 1.32-1.18 2.84-1.77 3.44.18 1.3 1.6 4.07 5.92 4.69.5.05.98.1 1.45.13 1.64.13 3.12.26 4.6.93 1.91.87 4.49 2.66 4.49 3.15 0 .38-.13.54-.2.58.3.3 1.37.91 3.39.91 2.53 0 9.25-1.06 9.63-6.52 0-.58-2.38-4.3-3.57-6.1h.57l3.62 4.26c.8.08 2.7.35 3.96.77Zm-33.43-8.22a9.26 9.26 0 0 0-.8 4.84c.41-.5.96-1.21 1.19-1.5-.16-.08-.48-.43-.48-1.16 0-.74.5-1.08.76-1.16-.1-.21-.36-.7-.67-1.02Z"/><path d="M21.54 23.67c.26.88 1.18 1.52 2.28 1.95 1.1.42 2.3.6 2.96.6.66 0 1.16-.14 1.47-.33.32-.2.44-.43.44-.64 0-.7-.21-1.5-.8-2.13-.6-.63-1.6-1.1-3.25-1.1-1.32 0-2.1.3-2.54.66-.43.35-.56.74-.56.99Zm.26-1.36c.55-.45 1.45-.78 2.84-.78 1.74 0 2.88.5 3.58 1.25.7.74.95 1.68.95 2.47 0 .43-.26.8-.67 1.05-.41.25-1 .4-1.72.4s-1.97-.18-3.13-.63c-1.14-.44-2.26-1.17-2.58-2.3v-.06c-.02-.4.18-.96.73-1.4Z"/></svg>