<svg width="56" height="56" viewBox="0 0 56 56" xmlns="http://www.w3.org/2000/svg"><rect fill="#AAECE2" width="56" height="56" rx="28"/><path d="M25 23.5c14.42 11.8-8.92 13-10.83 19.5H14c.12-.5.16-1.24.14-1.77-.01-.44.03-.79.12-1.05.2-.57.28-1.22.22-1.95-.03-.4.05-.79.25-1.17.38-.7.71-1.35 1-1.95.04-.08.06-.17.08-.26.11-.65.44-1.07.55-1.72.11-.7.47-1.4 1.07-2.09a.2.2 0 0 0 .05-.12c0-.05 0-.1-.04-.13a1.05 1.05 0 0 1-.19-.5.36.36 0 0 1 .1-.3c.49-.46.85-1.09 1.1-1.87a.82.82 0 0 1 .24-.37c.32-.3.72-.74 1.18-1.33.47-.6.35-1.42 1.2-1.67.43-.13.62-.5 1.07-.51a.27.27 0 0 0 .23-.13c.35-.55.49-1.17.41-1.87.27-.4 2.3 1.02 2.22 1.26Z" fill="#4B3E39"/><path d="M30.98 12.29c-.15.21-.18.41-.09.59a.24.24 0 0 0 .19.12.25.25 0 0 0 .21-.07c.19-.2.21-.36.08-.49a.68.68 0 0 0-.24-.14l-.02-.07a.02.02 0 0 1 0-.01h.02c.22.01.38.12.48.3.05.09.03.2-.07.34-.07.1-.15.2-.25.3-.23-.01-.36.06-.4.2-.13.45-.31.83-.55 1.12a.13.13 0 0 0 .08.22c.37.04.64-.02.84-.2a.22.22 0 0 0 .05-.25 1.23 1.23 0 0 1-.03-.95l.18.85.03.06a.12.12 0 0 0 .2-.03l1.13-1.94a.16.16 0 0 0 .02-.1l-.03-.5a.47.47 0 0 1 .32-.38.42.42 0 0 1 .25 0 .4.4 0 0 1 .2.13c.18.24.17.44-.04.59a.23.23 0 0 0-.07.1l-.63 1.46a.41.41 0 0 0-.04.2c.02.15-.03.55-.14 1.2-.22 1.26 1.91 1.56 3.03 1.67 1.6.16 1.2 1.78 1.19 2.9 0 .13.02.27.07.4.19.48.28.8.28.98a.5.5 0 0 1-.24.42.52.52 0 0 1-.5.03c-.6-.3-1.1-.76-1.47-1.39a.07.07 0 0 0-.04-.03h-.05l-.05.02a.02.02 0 0 0-.02.02l.35 1.38c.03.1.07.2.13.3l.94 1.45c.02.04.06.07.1.09.04.02.09.02.13 0 .96-.21.75.95 1.5 1.23.7.26.95.65 1.4 1.13.03.04.06.07.1.09l1.33.84c.07.04.12.1.15.18l.53 1.28c.02.03.03.08.03.12.05.47.19.9.41 1.3a.28.28 0 0 1 0 .28c-.47.83-1.6 1.2-2.55 1.49C38.5 36 34.5 47 22.63 21.6c-.23.37-.44.7-.65.99-.26.38-.6.52-1.02.41a.3.3 0 0 1-.19-.14c-.34-.62.13-1.18-.03-1.7l-.35-.74c-.42-.9-.21-1.63.63-2.17.43-.27 1.16-.4 1.64-.71.4-.27.87-.65 1.39-1.14a.62.62 0 0 0 .17-.58 8.98 8.98 0 0 0-1.35-3.18.42.42 0 0 1-.08-.28l.01-.12c.01-.1.06-.2.13-.26a.42.42 0 0 1 .7.2l.02.34c0 .08.02.16.06.23a5.86 5.86 0 0 0 1.46 2.03.14.14 0 0 0 .14-.07.14.14 0 0 0 .02-.07c-.02-.56-.1-.97-.23-1.24-.14-.28-.1-.58.22-.66a.44.44 0 0 1 .44.14c.05.07.08.14.08.22 0 .07-.02.15-.06.21-.05.07-.03.17.06.3a12.3 12.3 0 0 0 .85 1.1.18.18 0 0 0 .22-.06c.73-.94 1.04-2 .92-3.16a.45.45 0 0 1 .18-.41.4.4 0 0 1 .21-.08c.08 0 .15.01.22.05.13.08.23.18.3.3.04.08.01.2-.1.37-.08.14-.1.3-.05.47.26.95.56 1.8 1.39 2.34a.17.17 0 0 0 .25-.08l.63-1.37a.1.1 0 0 0 0-.07.1.1 0 0 0-.05-.06c-.14-.07-.14-.28.03-.61.04-.08.09-.1.14-.05Z" fill="#241B1C"/><path d="M30.98 12.29h.15c.1.04.17.09.24.15.13.13.1.3-.08.49a.25.25 0 0 1-.32.03.24.24 0 0 1-.08-.08c-.1-.18-.06-.38.1-.6Z" fill="#E19C6C"/><path d="M31.29 13.16v.14c-.13.32-.12.63.02.95a.22.22 0 0 1-.05.24c-.2.19-.47.25-.84.21a.14.14 0 0 1-.1-.08.13.13 0 0 1 .02-.14c.24-.3.42-.67.55-1.12.04-.14.17-.21.4-.2Z" fill="#FDC046"/><path d="M34.3 18.97c-.1.29-.4.19-.93-.3a1.6 1.6 0 0 0-.88-.73.04.04 0 0 0-.05.02l-.03.06a.08.08 0 0 0 .04.1c.31.17.53.4.66.71l-.05.25c-.34-.2.95 1.2 1 1.35a.1.1 0 0 1-.04.12.1.1 0 0 1-.13-.02c-1.7-1.86-1.39 2.47-9.62.26a.14.14 0 0 1-.12.03.15.15 0 0 1-.1-.09.5.5 0 0 1-.04-.2c.16-.09.29-.2.4-.33a.05.05 0 0 0 0-.06l-.02-.02h-.03l-.09.01-.1-.31c-.02-.3.1-.6.37-.92a.07.07 0 0 0-.04-.12c-.02 0-.04 0-.05.02-.21.13-.4.5-.52.72-.23.13-.5.2-.83.22.33-.54.7-1.01 1.12-1.4.45-.43 2.48-.8 3.25-1.01a.05.05 0 0 1 .06.02v.03l-.01.03c-.22.25-.53.46-.92.62a.5.5 0 0 0-.28.33.05.05 0 0 0 .05.07l.03-.01c.33-.26.56-.4.68-.4.14-.02.26-.1.37-.27.18-.27.39-.38.63-.35a2.87 2.87 0 0 0 .25.02c.51-.07.93-.27 1.24.2l.1.08c.04.02.08.03.13.02.24-.02.51.08.81.3l.04.01.03-.01a.06.06 0 0 0 .01-.07c-.15-.29-.4-.4-.75-.32-.03 0-.07 0-.1-.02a1.25 1.25 0 0 1-.36-.3v-.01h.01c.59-.1 1.07-.06 1.46.1.07.03.15.03.23 0 .79-.28 1.52-.1 2.2.53.44.42.75.77.93 1.04Z" fill="#F4CA9B"/><path d="M33.37 18.68c0 .1-.08.15-.26.15a1.4 1.4 0 0 0-.66-.7.08.08 0 0 1-.04-.1l.03-.07.02-.02h.03c.4.14.69.39.88.73Z" fill="#4B3E39"/><path d="M34.3 18.97c.3.58.5 1.23.58 1.96a1.2 1.2 0 0 1-.6 0 1.95 1.95 0 0 0-1.22-1.85l.05-.25c.18 0 .26-.06.26-.15.52.48.83.58.94.3Z" fill="#E19C6C"/><path d="M33.06 19.08c.79.36 1.2.98 1.21 1.85.12.74-.01 1.24-.4 1.52a.08.08 0 0 1-.05.01c-.02 0-.03 0-.05-.02l-.03-.1c-.01-.05.36-.26.3-.68a.1.1 0 0 0-.2 0c-.06.45-.3.7-.73.73-.1.2-.18.3-.26.32-.43-.23-.97-.59-1.62-1.06a5.62 5.62 0 0 0-1.97-.83.7.7 0 0 0-.3-.01c-.93.2-1.55.49-1.86.89-.47.59-.95 1.15-1.45 1.68l-.86-.13a.3.3 0 0 1-.12-.05 1.9 1.9 0 0 1-.7-.8.36.36 0 0 0-.13-.16c-.08-.05-.14-.05-.17 0a.66.66 0 0 1-.14-.66l.02-.03a.09.09 0 0 1 .08-.02.1.1 0 0 1 .04.02l.08.05a.14.14 0 0 0 .16-.07c.26-.57.8-.9 1.63-.96l.8.32a.1.1 0 0 0 .05 0c.17-.01.08-.32-.03-.37l-.54-.24a.13.13 0 0 1-.07-.13c0-.03.02-.05.04-.07a.13.13 0 0 1 .07-.04c.37-.04.7-.14.98-.3a.26.26 0 0 1 .3.01.26.26 0 0 1 .09.28 2.88 2.88 0 0 0-.09 1.1.07.07 0 0 0 .06.04h.04l1.27-.45a.19.19 0 0 0 .12-.16c.02-.28.01-.5-.02-.65-.02-.08-.05-.13-.11-.17-.04-.01-.06-.05-.07-.1v-.04a.09.09 0 0 1 .12-.04l.22.1a.2.2 0 0 1 .12.18v.62c0 .03.01.06.03.08.02.03.05.04.08.05l1.52.3a.1.1 0 0 0 .08-.04.08.08 0 0 0 .02-.09l-.4-1.12a.22.22 0 0 1 .14-.3.23.23 0 0 1 .12 0l1.07.21.04.02a.08.08 0 0 1 .01.09l-.03.03c-1.67.95 1.56-.27 2.02.22.01.02.34.65.36.65.07.01.13-.06.1-.13-.31-.55-.7-.75-1.12-1.22a.08.08 0 0 1 0-.12c.04-.04.08-.04.13-.01Z" fill="#241B1C"/><path d="M23.93 19.52c-.02.24.06.34.24.3l.1.31c-.37.13-.61.41-.72.83a.06.06 0 0 0 .03.08.06.06 0 0 0 .08-.02l.35-.5c0 .1.01.16.03.21a.15.15 0 0 0 .23.06c.48-.4.9-.48 1.27-.22-.82.07-1.37.39-1.63.96a.13.13 0 0 1-.16.07.28.28 0 0 1-.08-.05.1.1 0 0 0-.08-.02.09.09 0 0 0-.04.02.08.08 0 0 0-.02.03.66.66 0 0 0 .14.66l-.02.12c-.25-.16-.44-.1-.56.15-.06.11-.1.25-.11.43.05-.74-.02-.97-.2-.7.02-.39-.03-.6-.15-.64l.47-1.86c.32-.02.6-.09.83-.22Z" fill="#E19C6C"/><path d="M32.85 22.7c.08.04.12.1.13.2-.07.08-.07.11-.02.08-1-.06-2.03-1.22-3.18-1.36-1.85-.24-2.92.8-4.15 2.02a.63.63 0 0 1-.1-.18c.08-.09.12-.11.12-.08.5-.53.98-1.09 1.45-1.68.31-.4.93-.7 1.85-.9a.7.7 0 0 1 .3.02c.85.2 1.5.48 1.98.83.65.47 1.2.83 1.62 1.06Z" fill="#F4CA9B"/><path d="M34.88 20.93c.2.64.53 1.24.97 1.78.06.07.1.15.12.23.15.48.16.98.02 1.53a.6.6 0 0 1-.12.23l-.46.6-1.59 1.32a.24.24 0 0 0-.08.19v.07a.2.2 0 0 1-.04.12.21.21 0 0 1-.1.08c-.18.06-.34.22-.48.5-.25.48-.45.89-.6 1.22-.07.14-.3.35-.69.65a1.7 1.7 0 0 0-.71 1.22l-1.81.07a5.84 5.84 0 0 0-1.75-1.3 1.14 1.14 0 0 1-.32-.24c-.62-.64-1.11-1.3-1.65-1.55a.73.73 0 0 1-.21-.15 1.52 1.52 0 0 0-1.5-.4c-.75-.64-1.65-1.9-1.3-2.9.22-.65.35-1.07.4-1.26.02-.18.05-.32.1-.43.13-.25.32-.3.57-.15.02.78.43 1.13 1.23 1.04a.1.1 0 0 1 .1.05.1.1 0 0 1-.02.1l-.18.18-.02.02c-.65.08-1.14.32-1.45.71a.08.08 0 0 1-.1.02.08.08 0 0 1-.03-.09c.14-.34.31-.58.52-.7a.05.05 0 0 0 .03-.06.06.06 0 0 0-.02-.03.06.06 0 0 0-.04-.01c-.19 0-.35.08-.49.26a.3.3 0 0 0-.06.18c0 .17 0 .45-.02.86-.03.65.47 1.28 1.14 1.6.98.46 1.93 1.06 2.85 1.78.24.18.53.28.83.29l2.39.03.07-.01a6.78 6.78 0 0 0 1.67-.66 7.6 7.6 0 0 0 1.42-1.43l.22-.24 1.29-1.12c.1-.08.17-.19.21-.3.17-.45.22-.87.14-1.28a.79.79 0 0 0-.8-.64c-.46 0-.9-.05-1.29-.18a.2.2 0 0 1-.13-.13.39.39 0 0 1 0-.2c.43-.04.67-.29.73-.74a.1.1 0 0 1 .03-.06.1.1 0 0 1 .14 0 .1.1 0 0 1 .03.06c.06.42-.3.63-.3.69 0 .05.02.08.03.1l.05.01.05-.01c.39-.28.52-.78.4-1.52.24.05.45.05.61 0Z" fill="#F4CA9B"/><path d="M32.96 22.98c0 .01.17-.03.02-.08-.01-.1-.05-.16-.13-.2.08 0 .17-.11.26-.3a.39.39 0 0 0 0 .2.2.2 0 0 0 .13.13c.4.13.83.19 1.29.18.38 0 .73.27.8.64.08.4.03.83-.14 1.27a.81.81 0 0 1-.21.31l-1.29 1.12-.22.24a7.6 7.6 0 0 1-1.42 1.43 6.78 6.78 0 0 1-1.74.67l-2.39-.03c-.3 0-.6-.1-.83-.3a15.46 15.46 0 0 0-2.85-1.77c-.67-.32-1.17-.95-1.14-1.6.02-.4.02-.7.02-.86a.3.3 0 0 1 .06-.18c.14-.18.3-.27.5-.26l.03.01.02.03v.03l-.03.03c-.2.12-.38.36-.52.7a.08.08 0 0 0 .04.09.08.08 0 0 0 .1-.02c.3-.39.79-.63 1.44-.71l.02-.02.18-.17a.1.1 0 0 0 .02-.1.1.1 0 0 0-.1-.06c-.8.09-1.21-.26-1.23-1.04l.02-.12c.03-.05.1-.05.17 0 .07.04.11.1.14.15.15.33.38.6.69.8a.3.3 0 0 0 .12.06l.86.13c0-.03-.04 0-.12.08-.47.46-1.01.76-1.62.93a.12.12 0 0 0 0 .24c.8.2 1.29-.06 1.48-.76a.17.17 0 0 1 .1-.11.25.25 0 0 0 .14-.12c1.23-1.21 2.3-2.26 4.15-2.02 1.15.14 2.18 1.3 3.18 1.36Z" fill="#4B3E39"/><path d="m34.58 23.62-.8.06c-.47.08-.75-.16-.82-.7-.05.03-.05 0 .02-.08l1.57.54c.02 0 .04.02.05.04a.1.1 0 0 1 0 .06l-.02.08Z" fill="#907563"/><path d="M37 30.88c.2.01.37-.04.5-.16.04-.04.1-.06.15-.08 1.17-.23 2.87-.35 2.65-1.97a4.16 4.16 0 0 0-.27-1.07.84.84 0 0 0-.33-.38l-1.38-.86a.6.6 0 0 1-.22-.23c-.48-.9-.84-1.66-1.73-2.02l-.06-.54a.17.17 0 0 1 .04-.12.17.17 0 0 1 .12-.06c.16-.01.34.01.53.07a.29.29 0 0 1 .2.2c.28 1.08.94.67 1.42 1.28a4.75 4.75 0 0 0 1.9 1.46.7.7 0 0 1 .38.4l.86 2.44a.63.63 0 0 1-.23.73c-.85.64-1.75.95-2.7.92-.2 0-.5.03-.91.1-.33.05-.64.01-.91-.11Z" fill="#BFC0C0"/><path d="M25.53 23.46c.02.06.05.12.1.18a.25.25 0 0 1-.14.12.17.17 0 0 0-.1.1c-.2.71-.69.97-1.48.77a.13.13 0 0 1-.1-.12c0-.03.02-.05.03-.07a.13.13 0 0 1 .07-.05c.6-.17 1.15-.47 1.62-.93Z" fill="#907563"/><path d="M26.18 26.78c.07-.15.21-.25.42-.3.24.05.47.04.69-.02.23-.06.45-.1.66-.1.33-.02.5-.16.5-.44.42.36.9.4 1.42.14a.1.1 0 0 0 .05-.05.1.1 0 0 0 0-.06l-.03-.1a.13.13 0 0 0-.08-.07.14.14 0 0 0-.1 0c-.42.2-.82.15-1.18-.14l.14-.35c.27-.04.44-.18.5-.41 0-.03.02-.07.05-.1a.17.17 0 0 1 .1-.07c.07-.01.13 0 .19.06 1.04.95 2.74 1.28 3.92.36.49-.38.68-.79.58-1.21l-.7-.08-.02-.01v-.04h.02c.17 0 .33-.04.47-.11l.8-.06c.34.08.4.26.2.53a.12.12 0 0 1-.05.04c-.52.26.04-.46-.64.43-.72.98-1.08 1.42-2.3 1.68-2.28.5-1.04 1.2-5.61.48Z" fill="#241B1C"/><path d="M34.01 23.92c.1.42-.1.83-.58 1.2-1.18.93-2.88.6-3.92-.35-.02-.1-.02-.17 0-.2l.03-.04a.09.09 0 0 1 .09 0l.03.02c.42.47.95.72 1.6.77.91.06 2.3.01 2.28-1.18a.19.19 0 0 1 .17-.19l.3-.03Z" fill="#907563"/><path d="M37.01 30.88a.46.46 0 0 0-.15-.11 4.82 4.82 0 0 1-2.34-1.53c1.33-1.11 1.93-3.15 1.87-4.78a.67.67 0 0 1-.02-.35c.89.36 1.25 1.12 1.73 2.02.05.1.13.17.22.23l1.38.86c.15.1.26.23.33.38.12.28.21.64.27 1.07.22 1.62-1.48 1.74-2.65 1.97a.34.34 0 0 0-.15.08.63.63 0 0 1-.49.16Z" fill="#fff"/><path d="M22.36 26.25c-.95.09-1.72.5-2.3 1.24-.56.69-.75 1.39-.58 2.1a3.2 3.2 0 0 0 1.3 1.82 3.53 3.53 0 0 1-3.16-.68.49.49 0 0 1-.16-.55.48.48 0 0 1 .11-.17c.43-.43.78-1.04 1.07-1.85a.6.6 0 0 1 .14-.23c.62-.61 1.1-1.18 1.46-1.7.05-.08.15-.34.29-.77.22-.67.75-.38 1.07-.77.05-.06.17-.16.37-.29a.22.22 0 0 1 .24 0 .22.22 0 0 1 .1.21c-.07.6-.06 1.14.05 1.64Z" fill="#BFC0C0"/><path d="M34.52 29.24c0 .09-.04.14-.1.16l-.98.8a.42.42 0 0 1-.27.09c-.34 0-.6.1-.79.32a.42.42 0 0 1-.23.13l-.85.2a6.38 6.38 0 0 0-2.43.09l-1.88.06c-.08-.03-.13-.1-.14-.2.18-.02.33-.07.46-.16l2 .01 1.8-.07 2.2-.62a.1.1 0 0 0 .06-.03.1.1 0 0 0 .02-.05.1.1 0 0 0-.05-.1c-.74-.45-.2-1.57.36-1.85a.62.62 0 0 1-.21.38c-.22.28-.33.56-.36.86a.41.41 0 0 0 .21.39.43.43 0 0 0 .45-.02 5.4 5.4 0 0 0 2.05-2.75c.2-.55.3-1.28.34-2.19.11.03.19-.04.21-.23.06 1.63-.54 3.67-1.87 4.78Z" fill="#4B3E39"/><path d="m33.49 28.4.28.5a.15.15 0 0 0 .11.07.15.15 0 0 0 .13-.04l.85-.84a.62.62 0 0 0 .18-.54l-.02-.11a.23.23 0 0 0-.15-.18.24.24 0 0 0-.23.03l-.94.73c-.57.28-1.1 1.4-.36 1.86a.1.1 0 0 1 .05.1.1.1 0 0 1-.07.08l-2.2.6c.04-.48.28-.88.71-1.2.4-.3.62-.52.68-.66l.61-1.22c.14-.28.3-.44.48-.5a.21.21 0 0 0 .1-.08.2.2 0 0 0 .04-.12v-.07a.24.24 0 0 1 .08-.19l1.59-1.32-.36 1.06a.27.27 0 0 1-.17.17 3.7 3.7 0 0 0-1.14.65l.08.2.03.02a.08.08 0 0 0 .07.01c.02 0 .03 0 .04-.02.3-.33.64-.57.99-.72a.45.45 0 0 0 .26-.28c.19-.6.51-1.17.97-1.7-.03.91-.15 1.64-.34 2.19a5.4 5.4 0 0 1-2.05 2.75.43.43 0 0 1-.61-.15.41.41 0 0 1-.05-.22c.03-.3.14-.58.36-.86Z" fill="#E19C6C"/><path d="M28.53 25.64c.36.29.76.33 1.17.14a.14.14 0 0 1 .16.03l.03.05.03.09a.1.1 0 0 1 0 .06.1.1 0 0 1-.05.05c-.53.26-1 .22-1.43-.14a2.6 2.6 0 0 0-1.33.02l-.35-.01a.07.07 0 0 0-.07.07l.01.03c.04.05.06.1.08.17-.01.09-.07.18-.18.28-.2.05-.35.15-.42.3-.24-.1-.41-.22-.52-.37-.12-.19-.09-.37.1-.55.7-.68 2.02-.63 2.77-.22Z" fill="#E58D9F"/><path d="M23.87 27.1c.58-.15 1.09-.01 1.5.4.07.06.14.11.22.15.54.25 1.03.91 1.65 1.55.1.1.2.18.32.24.67.32 1.25.76 1.75 1.3h-2c.08-.05.06-.11-.06-.2l.02-.01a.02.02 0 0 0 .01-.02v-.01c-.16-.18-.42-.2-.8-.05-.47.14-.68.1-.6-.13.4-.06.71-.21.95-.44a.3.3 0 0 0 .03-.4c-.38-.47-.68-.68-.93-.63a3.2 3.2 0 0 0-2.3-.45c-.27-.2-.45-.46-.57-.8-.2-.58-.42-1.16-.66-1.73a.12.12 0 0 1 0-.1.13.13 0 0 1 .07-.06.1.1 0 0 1 .14.05 3.94 3.94 0 0 0 2.65 2.3c.04.01.09.04.12.07l.27.26a.04.04 0 0 0 .07-.03c-.03-.32-.16-.5-.4-.56a2.72 2.72 0 0 1-1.45-.7Z" fill="#E19C6C"/><path d="M28.44 25.92c0 .28-.16.42-.49.43-.21.01-.43.05-.66.11a1.4 1.4 0 0 1-.69.02c.11-.1.17-.2.18-.28.66-.01.77-.1.33-.26.55-.12 1-.13 1.33-.02Z" fill="#AA409A"/><path d="M22.36 26.25c.53 1.58 1.17 2.85 2.6 3.78-.02.08-.15.13-.38.15a.46.46 0 0 0-.38.23.28.28 0 0 1-.1.09l-.27.15c-.36-.02-.63.05-.81.2a6.5 6.5 0 0 0-2.25.56 3.2 3.2 0 0 1-1.3-1.82c-.16-.71.03-1.41.58-2.1a3.19 3.19 0 0 1 2.3-1.24Z" fill="#fff"/><path d="M33.49 28.4c.13-.12.2-.25.21-.38l.94-.73a.24.24 0 0 1 .33.04c.03.03.05.07.05.11l.02.11a.61.61 0 0 1-.18.54l-.85.84a.16.16 0 0 1-.19.02.14.14 0 0 1-.05-.05l-.28-.5ZM25.93 28.85c.18.27.38.47.62.62a.17.17 0 0 1 .03.27.18.18 0 0 1-.1.05c-1.18.22-2.13-.24-2.86-1.4a3.2 3.2 0 0 1 2.31.46Z" fill="#F4CA9B"/><path d="M34.52 29.24a4.82 4.82 0 0 0 2.34 1.53c-.07-.03-.1-.01-.13.07-.02.08.01.14.08.17.1.5.7.9 1.1 1.16.43.43.9.77 1.38 1a.6.6 0 0 1 .32.35.58.58 0 0 1-.04.46l-.1.25c-.03.1-.02.2.01.3.16.44.12.81-.13 1.12a.5.5 0 0 0-.11.31v1.16c0 .09-.04.18-.1.25-.27.28-.1.66-.22 1.05-.47 1.5-.67 3.1-.6 4.58H15.75c.2-.75.27-1.87.6-2.68.24-.58.74-.66.45-1.47-.2-.53 0-1.07.62-1.63 7.6-6.9 1.44-1.93 5.18-5.2.56-.24.97-.7 1.24-1.37l.28-.15a.28.28 0 0 0 .1-.1.46.46 0 0 1 .37-.22h.12a.17.17 0 0 1 .16.08l.01.06c.01.18.08.3.2.36.52.29 1.18.48 1.98.58 1.56.32 3.09.34 4.6.07a14.29 14.29 0 0 0 3.67-.95.17.17 0 0 0 0-.23l-.02-.03a.34.34 0 0 0-.39-.08c-.43.2-.98.41-1.66.66a1.62 1.62 0 0 1-.74.1l-.01-.02a.03.03 0 0 1 .01-.03l2.2-.75a.14.14 0 0 0 .09-.1.14.14 0 0 0-.03-.13l-.35-.37c.06-.02.1-.07.1-.16Z" fill="#030303"/><path d="m34.42 29.4.35.37a.14.14 0 0 1-.06.23l-2.2.75v.01a.03.03 0 0 0 0 .03v.01c.25.03.5 0 .74-.1.68-.25 1.23-.47 1.66-.66a.34.34 0 0 1 .39.08l.02.03a.17.17 0 0 1 0 .23 14.3 14.3 0 0 1-3.68.96c.01-.21-.1-.35-.34-.4l.85-.2a.42.42 0 0 0 .23-.13.97.97 0 0 1 .79-.32c.1 0 .19-.03.27-.1l.98-.79Z" fill="#BFC0C0"/><path d="M25.88 30.32c-.08.22.13.27.61.13 0 .05 0 .09.05.12.05.04.1.05.18.04-.1.08-.13.18-.1.3a.1.1 0 0 0 .07.06.1.1 0 0 0 .09-.02l.07-.07c.01.1.06.18.14.21 0 .03 0 .05-.02.07v.03c0 .02 0 .03.02.03l.06.04c-.8-.1-1.46-.3-1.98-.58-.12-.06-.18-.18-.2-.36a.16.16 0 0 0-.05-.11.16.16 0 0 0-.12-.04h-.12c.23-.01.36-.06.37-.14.37.03.67.12.93.29Z" fill="#9E9E9E"/><path d="M27.25 30.54c.12.09.14.15.06.2-.13.08-.29.13-.46.14l-.07.07a.1.1 0 0 1-.16-.04c-.03-.12 0-.22.1-.3l.53-.07Z" fill="#fff"/><path d="M23.83 30.65a2.34 2.34 0 0 1-1.24 1.37c-.56-.34-1.33-.3-2.32.14a.71.71 0 0 1-.22.05 3.97 3.97 0 0 1-2.77-.7c.08-.16.18-.3.3-.4a.23.23 0 0 1 .28 0c.77.51 1.48.74 2.13.69a12.9 12.9 0 0 0 3.03-.95c.18-.15.45-.22.8-.2Z" fill="#BFC0C0"/><path d="M31.3 30.93c.24.06.35.2.34.4-1.5.27-3.03.25-4.6-.07l-.05-.04a.06.06 0 0 1-.02-.03v-.03a.22.22 0 0 0 .02-.07l1.88-.06.06-.01c.77-.18 1.56-.2 2.37-.09Z" fill="#fff"/><path d="M39.4 31.12c.02.03.02.06.02.07.12.24.28.46.49.65.07.08.14.16.19.26l.84 1.57c-.46-.2-.85-.5-1.17-.93-.26-.33-.5-.54-.7-.6a1.62 1.62 0 0 0-1.15.03c-.4-.25-1-.65-1.1-1.16l.57.2c.12.03.25.03.37 0 .55-.2 1.1-.23 1.65-.1Z" fill="#BFC0C0"/><path d="m40.08 40.84.01.62-.2 1.54h-.17l.27-2.3c.01-.12.04-.24.1-.35l.3-.73a.2.2 0 0 0 .01-.06l.13-1.92.02-.12.68-2.02a.54.54 0 0 0 .01-.28l-.3-1.55-.84-1.57c-.05-.1-.12-.18-.2-.26-.2-.2-.36-.41-.48-.65.5.33.78.6.84.79.2.62.49 1.12.85 1.5.05.06.08.13.09.2l.19 1.64c0 .08 0 .17-.04.25-.24.6-.26 1.03-.55 1.7-.25.56-.2 1.5-.22 2.01 0 .19-.05.4-.14.64l-.36.92Z" fill="#241B1C"/><path d="m22.6 32.02-1.08.94a.06.06 0 0 0 .02.1h.04a.37.37 0 0 1 .36.04c.6.43 1.4 1.16 2.43 2.2.04.04.08.1.09.16l.07.29v.05l-.04.04a.09.09 0 0 1-.1-.01l-2.95-2.61a.07.07 0 0 0-.1 0l-.44.43a.1.1 0 0 0 0 .16.1.1 0 0 0 .06.02c.27.04.64.25 1.1.65a22.91 22.91 0 0 1 2.79 2.85c0 .03 0 .06-.02.08l-.05.09a.07.07 0 0 1-.05.03.08.08 0 0 1-.07-.02l-2.92-2.76-.02-.01a3 3 0 0 1-.9-.72.14.14 0 0 0-.12 0 .14.14 0 0 0-.05.04c-.95 1.27-2.01 2.04-3.24 3.16-.61.56-.82 1.1-.62 1.63.3.8-.21.9-.45 1.47-.33.8-.4 1.93-.6 2.68h-1.57c.17-.58.2-1.42.1-2.06-.02-.1 0-.22.03-.32.3-.78.42-1.62.35-2.5-.02-.35.05-.68.23-1 .74-1.27 1.3-2.63 1.66-4.05.17-.65.42-1.17.74-1.55.8.56 1.72.8 2.77.7.07-.01.15-.03.22-.06.99-.43 1.76-.48 2.32-.14ZM40.94 33.67l.3 1.55c.02.1.02.19-.01.28l-.68 2.02a.53.53 0 0 0-.02.12l-.13 1.92a.2.2 0 0 1-.01.06l-.3.73c-.06.11-.09.23-.1.35l-.27 2.3h-1.4c-.07-1.49.13-3.08.6-4.58.12-.39-.05-.77.22-1.05.06-.07.1-.16.1-.25v-1.16a.5.5 0 0 1 .11-.31c.25-.3.3-.68.13-1.12a.46.46 0 0 1 0-.3l.09-.25a.58.58 0 0 0-.28-.81c-.49-.23-.95-.57-1.37-1 .38-.15.76-.16 1.14-.04.22.07.45.28.71.61.32.42.71.73 1.17.93Z" fill="#fff"/><path d="M38.12 43h-.55c-.07-.5-.18-1.17-.34-1.66-.18-.56.3-1.35.16-1.83a7.85 7.85 0 0 0-.34-1.04c0-.04 0-.08.02-.11l.6-1.26.01-.02v-.01a.13.13 0 0 0-.08-.03c-.05-.12-.04-.19.03-.2.15-.15.25-.39.28-.71a72.12 72.12 0 0 0 .14-2.8.1.1 0 0 0-.04-.04.16.16 0 0 0-.08-.03c-.04-.08-.08-.12-.13-.12a.61.61 0 0 1 .17-.37.2.2 0 0 1 .12-.06c.04 0 .1 0 .13.03l1.05.6a.16.16 0 0 1 .08.13l.07 1.74c0 .04-.02.08-.04.11-.3.36-.4.87-.31 1.53.01.13-.01.25-.07.37-.13.27-.18.53-.13.79 0 .07 0 .14-.02.21-.06.17-.27 1.02-.64 2.54-.15.59-.15 1.19 0 1.8a.8.8 0 0 1-.1.44Z" fill="#AA409A"/><path d="M37.93 33.26c-.26.9-1.15 1.57-1.96 2.06a.22.22 0 0 0-.04.03l-1.52 1.5a.09.09 0 0 1-.04.02h-.06l-.06-.05a.08.08 0 0 1-.04-.05.08.08 0 0 1 .02-.07l3.57-3.56c.05 0 .1.04.13.12Z" fill="#fff"/><path d="M20.8 39.97h-.08c.33.95.51 1.57.56 1.85.04.22.03.73-.04 1.18h-.77a11.6 11.6 0 0 1-.64-2.96c-.05-.6-.15-1-.38-1.5a.33.33 0 0 0-.27-.2.34.34 0 0 0-.3.13 4.39 4.39 0 0 1-1.91 1.45c.1-.53.07-1.03-.05-1.5a.36.36 0 0 1 .01-.24c.15-.35.32-.6.49-.76 1-.87 1.82-1.49 2.41-2.23a.14.14 0 0 1 .25.08c.04 1.49-.18 3.17.73 4.7Z" fill="#AA409A"/><path d="M37.63 36.85c-.07 0-.08.07-.03.2-.13.13-.29.17-.49.11a.21.21 0 0 0-.23.1.95.95 0 0 1-.28.32.12.12 0 0 1-.18-.05.11.11 0 0 1 0-.07.9.9 0 0 1 .19-.4.3.3 0 0 1 .25-.1c.22.03.48-.01.77-.11Z" fill="#fff"/><path d="M20.47 43h-4.53c.08-.3.18-1.1.32-1.91.1-.55.33-.94.7-1.17a4.39 4.39 0 0 0 1.92-1.45.34.34 0 0 1 .46-.07c.05.04.08.08.1.13.24.52.34.9.4 1.5.07.96.28 2.02.63 2.97Z" fill="#DF52CC"/><path d="M37.33 43h-1.56a7 7 0 0 1 .51-2.3 15.02 15.02 0 0 0 .58-1.68.08.08 0 0 0-.04-.04h-.06a.08.08 0 0 0-.04.04.72.72 0 0 1-.75.35.12.12 0 0 1-.1-.06.11.11 0 0 1 .02-.12c.17-.23.47-.36.89-.39a.25.25 0 0 1 .22.11c.22.35.31.62.26.81-.24.88-.2 1.75.1 2.6.03.12.02.41-.03.68Z" fill="#F4CA9B"/><path d="M20.72 39.97h.09c.73.28.92 1.02 1.97.63.65-.24 1.06-.34 1.22-.29a.07.07 0 0 1 .05.08.07.07 0 0 1-.06.06.95.95 0 0 0-.5.32.26.26 0 0 1-.2.07 2.7 2.7 0 0 0-.92.15.7.7 0 0 1-.56-.06 4.4 4.4 0 0 1-1.09-.96Z" fill="#fff"/><path d="M32.8 42.73c.09.2-.07.24-.5.12a.94.94 0 0 1-.38-.49v-.02l.01-.02h.05c.25.23.52.37.81.4Z" fill="#BFC0C0"/><path d="M33.2 12.44c-.43.66-.61 1.24-.54 1.72v.01l-.26 1.27c0 .03-.02.05-.04.07-.2.26-.17.56.07.9a.12.12 0 0 1-.04.19 15.28 15.28 0 0 0-7.5.44.18.18 0 0 1-.18-.07.18.18 0 0 1 0-.2c.15-.22.15-.4-.01-.55a.54.54 0 0 1-.16-.26c-.27-1-.66-1.97-1.17-2.9a.11.11 0 0 1 0-.1c0-.02.02-.05.05-.06l.02-.01a.12.12 0 0 1 .1-.02.13.13 0 0 1 .07.06c.5.93 1.1 2.01 2.12 2.25.54.12.99-.06 1.36-.55.47-.6.71-1.02.75-1.29.02-.2.1-.64.23-1.32a.4.4 0 0 0-.02-.2c-.09-.25-.08-.46.04-.61a.19.19 0 0 1 .1-.07.2.2 0 0 1 .13 0c.14.08.23.17.26.29v.09c0 .03-.02.06-.04.08l-.12.12a.27.27 0 0 0-.07.26c.26.94.62 2.13 1.63 2.73.08.04.16.07.25.09.65.12 1.2-.1 1.62-.64a11.47 11.47 0 0 0 1.12-1.9h.05l.11.02a.1.1 0 0 1 .08.11.1.1 0 0 1-.02.05Z" fill="#FDC046"/><path d="M33.26 12.02a.3.3 0 0 0 .3-.3.3.3 0 0 0-.3-.31.3.3 0 0 0-.31.3c0 .17.14.3.3.3Z" fill="#E19C6C"/><path d="M22.95 12.36c0 .19.13.33.28.32.14 0 .25-.16.24-.34 0-.19-.13-.33-.27-.32-.15 0-.26.16-.25.34ZM26.54 14.78a.13.13 0 0 1 .02.1.12.12 0 0 1-.06.08.89.89 0 0 1-.88.04.23.23 0 0 1-.08-.07.22.22 0 0 1-.04-.11l-.14-1.44a.19.19 0 0 0-.06-.11c-.11-.1-.13-.23-.06-.36a.13.13 0 0 1 .06-.06.16.16 0 0 1 .08-.01.22.22 0 0 1 .16.1c.05.1.05.22 0 .36a.24.24 0 0 0 .03.23l.97 1.25ZM32.87 17.18H31.2c-.04 0-.07-.01-.1-.03l-.15-.06a.7.7 0 0 0-.3-.05c-.4 0-1.32.04-2.74.09-.63.02-1.15.24-1.69.28a7 7 0 0 0-1.87.44.12.12 0 0 1-.09-.08v-.06l.02-.12a.34.34 0 0 1 .27-.26c.52-.12 1.27-.3 2.25-.55.38-.1.8-.13 1.23-.11.95.04 1.81 0 3.7-.01h.04l.93.19a.26.26 0 0 1 .17.12l.07.11a.06.06 0 0 1 0 .06.06.06 0 0 1-.06.04Z" fill="#FDC046"/><path d="M28.35 19.45a.97.97 0 0 1-.16-.23c-.04-.07-.05-.13-.03-.18a2.19 2.19 0 0 0-.03-1.46l.01-.03a.09.09 0 0 1 .06-.05h.07a.03.03 0 0 1 .04.02l.16.59v.12l-.08 1.2v.02h-.03ZM28.94 19.33a.04.04 0 0 1-.04-.03l-.01-.04c-.08-.45-.15-.88-.18-1.2-.04-.32-.04-.5-.02-.5h.02c.01-.01.04.03.06.1.03.09.07.21.1.37a15.4 15.4 0 0 1 .25 1.19v.07l-.03.02-.15.02Z" fill="#241B1C"/><path d="M30.08 18.76a.07.07 0 0 1-.09-.05.07.07 0 0 1 .03-.09 1.42 1.42 0 0 1 1.48.03c.32.2.47.23.83.26a.15.15 0 0 1 .12.12.14.14 0 0 1-.08.16 1 1 0 0 1-.29.02.47.47 0 0 1-.31-.12c-.43-.38-.99-.5-1.7-.33Z" fill="#4B3E39"/><path d="M29.1 19.75c.07-.13.17-.27.3-.4a.3.3 0 0 0 .09-.15.29.29 0 0 0-.01-.16l-.1-.29a.06.06 0 0 1 .02-.07.06.06 0 0 1 .08.01l.29.29c.03.03.05.08.05.13 0 .04-.02.09-.05.12l-.59.58a.05.05 0 0 1-.09-.02l.01-.04ZM27.9 19.47c.07.15.2.28.38.4a.07.07 0 0 1 .02.1.07.07 0 0 1-.09.03.8.8 0 0 1-.52-1.1l.04-.04a.07.07 0 0 1 .09.02l.01.05c-.02.21 0 .4.08.54Z" fill="#241B1C"/><path d="m24.97 19.85 1.17-.86a.17.17 0 0 1 .13-.03 2.54 2.54 0 0 0 .83-.03.1.1 0 0 1 .08.1c0 .04 0 .09-.03.13a.1.1 0 0 1-.12.05c-.55-.14-.95-.04-1.21.29-.2.24-.51.39-.78.48a.07.07 0 0 1-.1-.08c0-.02.02-.04.03-.05Z" fill="#4B3E39"/><path d="M32.96 21.15a.1.1 0 0 1 .15 0l.06.07v.02a.92.92 0 0 1-.95.36c-.55-.1-.4-.77-.2-1.07l.03-.01a.07.07 0 0 1 .08 0l.06.06v.03l-.25.24a.28.28 0 0 0 .12.46c.35.11.65.06.9-.16Z" fill="#907563"/><path d="M25.93 21.86a.12.12 0 0 1 .16-.03c.03.02.05.04.05.07V22c-.22.52-.66.62-1.32.32a.08.08 0 0 1-.04-.09.08.08 0 0 1 .09-.06c.48.09.84-.01 1.06-.3Z" fill="#4B3E39"/><path d="M31.09 28.72c-.74.62-1.56.7-2.46.25a.1.1 0 0 1-.05-.11.1.1 0 0 1 .1-.07 6.03 6.03 0 0 0 2.38-.22.09.09 0 0 1 .06.1c0 .02-.02.04-.03.05Z" fill="#241B1C"/><path d="M35.88 31.27c-.17.32-.24.62-.14.67.09.04.3-.17.48-.49.17-.31.23-.6.14-.66-.1-.05-.3.17-.48.48Z" fill="#fff"/><path d="M33.08 32.32c0-.21-.3-.36-.9-.44l3.32-.8a.14.14 0 0 1 .17.12v.14a.3.3 0 0 1-.17.27 7 7 0 0 1-2.42.71Z" fill="#BFC0C0"/><path d="M32.18 31.88c.6.08.9.23.9.44-1.92.36-4.14.3-5.71.22-.8-.03-2.1-.3-2.74-.97a.1.1 0 0 1 .05-.18h.07c.55.2 1.36.39 2.43.57 1.7.3 3.36.27 5-.08ZM37.04 31.65l-.03-.02a.16.16 0 0 0-.22.02l-1.26 1.43a.15.15 0 0 0 .01.22l.03.02c.06.06.16.05.22-.01l1.26-1.44a.15.15 0 0 0-.01-.22Z" fill="#fff"/><path d="m33.7 32.94.13.5c-2.51.36-5.03.38-7.55.04a4.86 4.86 0 0 1-3.06-1.65l.02-.06.1-.1a.21.21 0 0 1 .3 0l.74.79.12.07c.95.37 1.9.6 2.87.7 2.13.21 4.24.11 6.32-.3Z" fill="#fff"/><path d="M24.96 35.85a.26.26 0 0 1-.19-.1.25.25 0 0 1-.05-.2l.01-.06a.36.36 0 0 1 .3-.29h.15a16.27 16.27 0 0 0 8.75-.11l.85-.03a.2.2 0 0 0 .18-.13c.07-.17.06-.3.2-.42.83-.72 1.58-1.28 2.28-2.3a.11.11 0 0 1 .07-.05h.08l.06.04a.06.06 0 0 1 .02.07 5.06 5.06 0 0 1-1.45 1.82c-.61.48-1.02.83-1.22 1.05a.23.23 0 0 1-.23.06c-.09-.03-.15.02-.19.13a.33.33 0 0 1-.26.23 51 51 0 0 0-2.3.44c-1.86.41-3.25.45-4.85.14-.92-.18-1.65-.28-2.2-.3Z" fill="#fff"/><path d="M35.28 33.56c-.16.56-.34.68-.93.85-2.88.83-5.85.88-8.88.15-.4-.1-.66-.07-.77.09a.1.1 0 0 1-.16-.02c-.04-.1-.06-.23-.06-.4a.19.19 0 0 0-.06-.13.2.2 0 0 0-.14-.05h-.08A.26.26 0 0 1 24 34l-1.6-1.33a.17.17 0 0 1-.05-.2l.03-.06a.1.1 0 0 1 .07-.06.1.1 0 0 1 .1.02l1.74 1.48c.05.04.12.06.18.06H25c.07 0 .14 0 .2.03 3.08.85 5.82.59 9.07.06.36-.06.65-.23.89-.5a.08.08 0 0 1 .13.01v.05Z" fill="#fff"/><path d="m33.83 33.43-.14-.5 1.72-.59a.1.1 0 0 1 .1.01.1.1 0 0 1 .03.08v.12c0 .06-.01.12-.04.17a.34.34 0 0 1-.12.12c-.44.27-.96.47-1.55.6Z" fill="#BFC0C0"/><path d="M26.07 38.52c.12.12-.08.2-.62.26a.14.14 0 0 0-.1.04.14.14 0 0 0-.03.1c.02.2-.02.32-.1.35a.1.1 0 0 1-.1-.03.1.1 0 0 1-.02-.1c.09-.24.02-.4-.2-.46-.19-.05-.27-.12-.24-.2l.06-.19a.17.17 0 0 0-.09-.2 1.11 1.11 0 0 0-.52-.07.24.24 0 0 1-.19-.08.38.38 0 0 1-.05-.15.31.31 0 0 0-.15-.2l-.6-.36a.3.3 0 0 1-.07-.07l-.77-1.08a.49.49 0 0 0-.28-.18 3.32 3.32 0 0 1-1.69-1.05.15.15 0 0 1 .09-.26c.04 0 .07 0 .1.02a8.2 8.2 0 0 1 2.39 1.99.9.9 0 0 0 .18.17c.44.32.73.6.88.83a.29.29 0 0 0 .23.13c.41.04.67.3.77.75a.2.2 0 0 0 .22.16l.83-.14h.04a.1.1 0 0 1 .03.02ZM37.5 35.14l-.2.18-.1.19c-.19.35-.5.55-.92.6-.3.04-.65.23-1.05.56a.07.07 0 0 1-.04.02l-.05-.02a.07.07 0 0 1-.02-.06.07.07 0 0 1 .03-.05c.58-.5.94-.77 1.06-.83a7.25 7.25 0 0 0 1.19-.7.1.1 0 0 1 .1.06.1.1 0 0 1 0 .05Z" fill="#fff"/><path d="m22.52 37.16-.18-.18a.33.33 0 0 0-.24-.1c-.74.03-1.35-.36-1.83-1.16a.12.12 0 0 1 .04-.16.13.13 0 0 1 .16 0c.5.52 1.03.8 1.61.88a.34.34 0 0 1 .22.13c.15.19.24.37.3.54v.03l-.03.02a.04.04 0 0 1-.05 0ZM33.91 36.78a.15.15 0 0 1-.11.07c-1.5.13-2.88.58-4.28.56-1.6-.02-3.11-.16-4.52-.42a.21.21 0 0 1 0-.42c.25-.03.52-.02.8.03 1.25.24 2.34.4 3.28.45l.21-.01 4.9-.78.05.01.03.04a.07.07 0 0 1-.03.08c-.1.06-.2.2-.33.39ZM35.92 36.86c.1.03.27-.06.48-.29a.17.17 0 0 1 .24-.01l.01.01a.17.17 0 0 1 .03.23c-.34.43-.59.52-.77.28a.2.2 0 0 0-.22-.08.2.2 0 0 0-.07.04c-.48.41-.86.65-1.15.72a.35.35 0 0 0-.2.15c-.13.18-.22.28-.29.3a.17.17 0 0 1-.18-.1.16.16 0 0 1 .05-.19c.74-.53 1.35-.9 1.83-1.1a.2.2 0 0 1 .09 0l.15.04ZM20.44 36.66c.53.44.86 1.11 1.76.86a.1.1 0 0 1 .05 0 .1.1 0 0 1 .05.03l.13.13a.08.08 0 0 1 .02.08.08.08 0 0 1-.05.06c-.68.18-1.16.06-1.44-.36-.2-.3-.6-.36-.74-.64a.14.14 0 0 1 .05-.16.14.14 0 0 1 .17 0ZM33.8 37.44l-.06.32-.02.03a12.82 12.82 0 0 1-5.01.38c-.85-.11-1.44-.16-1.79-.15a443.89 443.89 0 0 0-1.85.03.14.14 0 0 1-.08-.07.13.13 0 0 1 0-.05l-.01-.05a.13.13 0 0 1 .04-.1.14.14 0 0 1 .1-.04c1.08 0 1.93.01 3.06.1 1.3.1 2.2.1 2.69.03a108.27 108.27 0 0 0 2.9-.5.06.06 0 0 1 .03.04v.03ZM22.85 37.61c.2.22.86.18.98.6a.08.08 0 0 1-.03.08.08.08 0 0 1-.1 0c-.2-.15-.24-.2-.54-.21-.2 0-.36-.1-.48-.3a.13.13 0 0 1 0-.14.1.1 0 0 1 .08-.06.1.1 0 0 1 .09.03Z" fill="#fff"/><path d="m24.26 38.43.02-.01a.08.08 0 0 1 .06 0l.02.03a.08.08 0 0 1 .02.05.07.07 0 0 1-.03.05c-.21.16-.5.3-.89.41-.46.14-.8-.42-1.22 0a.36.36 0 0 1-.24.1c-.95.02-.93-.84-1.66-1.18a.08.08 0 0 1-.04-.1l.04-.08.01-.01h.03c.2.06.46.32.8.76a.3.3 0 0 0 .24.11h1.22c.02 0 .05 0 .07.02.54.27 1.05.22 1.55-.15ZM35.8 38.79c.31-.12.53-.32.47-.45-.05-.13-.34-.14-.66-.02-.31.12-.53.32-.47.45.05.13.34.14.66.02ZM26.3 38.56a.08.08 0 0 1-.06-.1.08.08 0 0 1 .1-.06c.71.08 1.63.25 2.75.53.16.05.34.06.5.03l3.78-.46h.04a.08.08 0 0 1 .05.08c0 .02 0 .03-.02.05l-.05.07a.4.4 0 0 1-.22.16l-2.26.28c-1.67.2-2.9-.07-4.6-.58Z" fill="#fff"/><path d="M24.02 39.25a.06.06 0 0 1 .07 0l.08.09.03.03a.08.08 0 0 1-.02.08 6.43 6.43 0 0 1-.98.37c-.13 0-.38.06-.76.2-.99.36-1.56-.72-1.95-1.36a.06.06 0 0 1 .01-.08.07.07 0 0 1 .09 0c.31.29.46.84.8.97.46.17.89.13 1.3-.1a.3.3 0 0 1 .25-.02c.35.13.7.07 1.08-.18ZM33.7 39.07l-.26.26a.1.1 0 0 1-.13-.03.1.1 0 0 1 0-.05c0-.07.08-.18.23-.33.16-.16.28-.24.34-.25a.1.1 0 0 1 .09.05.09.09 0 0 1 0 .1l-.26.25ZM25.53 39.13a.09.09 0 0 1-.05-.04.08.08 0 0 1-.01-.06.08.08 0 0 1 .1-.06c.74.12 1.67.35 2.8.7.18.06.35.08.53.07l3.91-.27h.05a.09.09 0 0 1 .04.09c0 .02 0 .03-.02.04l-.05.08a.41.41 0 0 1-.24.15l-2.35.16c-1.73.11-2.98-.23-4.71-.86ZM35.38 39.56c-.2.28-.48.38-.85.32-.2-.03-.43-.03-.67 0-.3.02-.53 0-.67-.1a.08.08 0 0 1-.01-.11.08.08 0 0 1 .04-.02c.38-.1.68-.08.91.06a.14.14 0 0 0 .1.01.14.14 0 0 0 .1-.07c.11-.2.44-.29.99-.23a.09.09 0 0 1 .07.05.08.08 0 0 1-.01.09Z" fill="#fff"/><path d="M32.06 40.34a.1.1 0 0 1 .1.06.1.1 0 0 1 0 .04V40.5h-.02c-1.87.19-3.44.2-4.7.03a5.6 5.6 0 0 1-2.44-.96.06.06 0 0 1 .02-.08l.03-.01c.13-.02.27 0 .4.08.64.35 1.4.62 2.26.8.51.11 1.24.14 2.17.08.58-.04 1.3-.07 2.18-.11ZM24.07 39.86c.01-.05.05-.08.1-.09l.03.01.27.28a.08.08 0 0 1 .02.08l-.02.03-.06.06a.1.1 0 0 1-.16-.03.93.93 0 0 0-.18-.33v-.01Z" fill="#fff"/><path d="M24.81 39.97a.07.07 0 0 1-.02-.04.06.06 0 0 1 .02-.05l.05-.05h.04c.6.48 1.12.78 1.56.9 1.28.36 2.69.49 4.22.38.12 0 .24-.04.35-.1l.36-.18a.07.07 0 0 1 .1.04l.02.08v.02c-1.18.63-2.43.35-3.8.23-1.1-.1-2.07-.5-2.9-1.23ZM36.37 40.1c-.1.17-.2.28-.29.32a4.26 4.26 0 0 1-3.4-.1.11.11 0 0 1-.04-.08l.01-.04.03-.07a.09.09 0 0 1 .06-.05h.03l.03.01c.65.38 1.53.5 2.34.22.73-.24 1.12-.36 1.15-.36a.1.1 0 0 1 .1.1.1.1 0 0 1-.02.05Z" fill="#fff"/><path d="M24.77 40.41a.05.05 0 0 1 0-.06.04.04 0 0 1 .06 0l1.03.83.07.04a9.6 9.6 0 0 0 4.6.48c.23-.03.5-.14.84-.34a.1.1 0 0 1 .12.03v.01c.02.02.02.04.02.06 0 .02-.02.04-.04.05-1.18.82-2.6.54-4.16.34-.99-.13-1.84-.6-2.54-1.44ZM35.96 41.15a.71.71 0 0 1-.35.33c-1.09.47-2.12.34-3.1-.39a.23.23 0 0 1-.08-.24l.01-.08a.07.07 0 0 1 .05-.06.08.08 0 0 1 .07 0l1.14.66c.07.04.15.05.23.04l1.99-.31a.04.04 0 0 1 .04.05ZM24.19 41.22a.03.03 0 0 1 .03.02c.01.04 0 .09-.04.14a.6.6 0 0 1-.16.14c-.08.04-.17.09-.27.12l-.33.1-.41.08a2.3 2.3 0 0 1-.64.03.61.61 0 0 1-.21-.06c-.05-.03-.08-.07-.1-.1v-.01a.03.03 0 0 1 .03-.04l2.1-.42Z" fill="#fff"/><path d="M25.51 41.54c.83.42 1.3.65 1.4.66.52.09 1.43.15 2.72.2.74.02 1.4-.17 1.94-.58.08-.06.12-.14.12-.22l.01-.05a.08.08 0 0 1 .05-.03c.09 0 .14 0 .16.04.04.1.02.17-.06.24-1.22.96-2.43.76-4.39.7a3.19 3.19 0 0 1-2.04-.9l.01-.04c0-.02.02-.02.04-.03h.04ZM35.2 42.23c-.06 0-.08.04-.08.1.01.09.06.12.14.09a4.02 4.02 0 0 1-2.98-.56l-.04-.24a.06.06 0 0 1 .05-.07h.04l1.52.68c.1.05.23.08.35.07l1-.07ZM24.64 42.01c.03.04.03.09 0 .15l-.04.04a4.4 4.4 0 0 1-2.48.33c-.48-.05-.72-.26-.72-.63l.01-.04a.08.08 0 0 1 .07-.04l.04.01.89.51a1.51 1.51 0 0 0 1.26-.19.5.5 0 0 1 .32-.06c.21.03.39 0 .53-.1a.09.09 0 0 1 .06-.01l.06.03Z" fill="#fff"/><path d="M35.26 42.42c-.08.03-.13 0-.14-.1 0-.05.02-.08.08-.09.15-.09.26-.12.35-.1.18.05.2.13.05.26-.07.05-.18.06-.34.03Z" fill="#BFC0C0"/><path d="M28.6 15.31h-.1a.32.32 0 0 0-.34.3l-.02.29c-.01.18.12.33.3.34h.1c.18.02.33-.12.34-.3l.02-.28a.32.32 0 0 0-.3-.35ZM30.24 15.62c.07.19.03.3-.14.31-.22.03-.32-.03-.32-.18a.28.28 0 0 1 .2-.25c.05-.02.1-.01.15 0a.2.2 0 0 1 .1.12ZM31.41 15.97c-.04.04-.08.06-.12.06a.25.25 0 0 1-.23-.22c-.01-.06 0-.12.02-.17a.3.3 0 0 1 .12-.13c.03-.02.08 0 .17.05a.25.25 0 0 1 .12.2.27.27 0 0 1-.08.21Z" fill="#241B1C"/><path d="M26.94 16.19a.27.27 0 1 0 0-.53.27.27 0 0 0-.27.26c0 .15.12.27.27.27ZM25.52 16.3c-.05-.06-.07-.13-.04-.2a.3.3 0 0 1 .24-.2c.05 0 .1 0 .15.03.05.02.08.06.1.11.04.1.03.2-.03.31a.16.16 0 0 1-.08.07.21.21 0 0 1-.11.02.31.31 0 0 1-.12-.04.37.37 0 0 1-.1-.1Z" fill="#4B3E39"/></svg>