<svg width="56" height="56" viewBox="0 0 56 56" xmlns="http://www.w3.org/2000/svg"><rect fill="#F0F3FA" width="56" height="56" rx="28"/><path d="M12.56 31.85a6.45 6.45 0 0 1-.77-4.76.31.31 0 0 0-.04-.22c-.1-.16-.2-.25-.26-.44-.55-2 .46-3.78 2.08-4.85a.15.15 0 0 0 .07-.14c0-.15-.08-.3-.1-.45a5.29 5.29 0 0 1 1.57-4.38 7.13 7.13 0 0 1 8.7-1.08c.02 0 .03-.02.04-.04 1.56-2.44 3.85-3.6 6.85-3.48a8.32 8.32 0 0 1 6.68 3.5c.49.66.94 1.32 1.34 1.96.1.16.28.32.44.41 3.34 1.87 6.68 5.15 6.83 9.34.14 3.64-1.82 6.9-4.24 9.5l-.95 1c-.34.37-.76.62-1.13.95a20.7 20.7 0 0 1-9.95 4.87c-2.55.5-4.84.61-7.33.24a25 25 0 0 1-4.92-1.12 14.5 14.5 0 0 1-3.1-1.55c-1.85-1.22-3.52-3.57-3.36-5.94.08-1.2.53-2.44 1.51-3.13.07-.05.08-.11.04-.19Z" fill="#030503"/><path d="m12.1 37.39.1-.04h.03l.02.02v.06c0 .03 0 .04.04.04l.04.02c.56.53 1.09 1.06 1.57 1.6.18.2.37.37.56.5l.64.48c.28.22.61.41.98.59a20.38 20.38 0 0 0 4.1 1.5c.3.08.61.13.92.16.26.01.51.05.76.09 1.51.27 3.03.38 4.55.31 1.6-.07 3.37-.32 5.28-.76.22-.05.41-.12.6-.22a.26.26 0 0 1 .17-.03c.18.04.33-.01.45-.14.05-.05.11-.09.18-.1.26-.1.51-.22.75-.37.26-.17.56-.28.84-.41.2-.09.4-.2.58-.31l1.06-.67c.93-.59 1.8-1.3 2.62-2.13.34-.35.62-.73.95-1.09.23-.25.44-.53.62-.83.46-.79 1.02-1.5 1.42-2.34a14.3 14.3 0 0 0 1.42-4.68 9.04 9.04 0 0 0-.23-3.48 10.4 10.4 0 0 0-1.32-2.56c-.29-.43-.66-.77-.98-1.17-.47-.6-1.09-1-1.64-1.51-.68-.63-1.5-.71-2-1.63a11.39 11.39 0 0 0-3.88-4.2 14.7 14.7 0 0 0-1.64-.74c-.7-.21-1.8-.36-3.3-.44a8.58 8.58 0 0 1 5.35.42c1.87.78 3.45 2.75 4.47 4.6.1.2.32.37.5.47 2.5 1.36 4.88 3.4 6 6.04 2.1 4.97-1.12 9.63-4.42 12.88a20.1 20.1 0 0 1-7.56 4.78 22.49 22.49 0 0 1-12.36.7 17.75 17.75 0 0 1-4.7-1.7c-1.6-.85-2.83-2-3.54-3.71Z" fill="#709E4B"/><path d="M28.37 12.9c1.49.09 2.59.24 3.29.45.26.09.81.33 1.64.74a11.39 11.39 0 0 1 3.89 4.2c.48.92 1.31 1 2 1.63.54.5 1.16.92 1.63 1.51.32.4.7.74.98 1.17.66 1 1.1 1.85 1.32 2.56.29.95.37 2.12.23 3.48a14.3 14.3 0 0 1-1.42 4.68c-.4.84-.96 1.55-1.42 2.34-.18.3-.38.58-.62.83-.33.36-.61.74-.95 1.09-.82.83-1.69 1.54-2.62 2.13l-1.06.67c-.19.12-.38.22-.58.31-.28.13-.58.24-.84.41-.24.15-.49.27-.75.36a.44.44 0 0 0-.18.11.47.47 0 0 1-.45.14.26.26 0 0 0-.18.03c-.18.1-.37.17-.59.22-1.91.44-3.67.7-5.28.76-1.52.07-3.04-.04-4.55-.31-.25-.04-.5-.08-.76-.1a4.7 4.7 0 0 1-.91-.15 20.35 20.35 0 0 1-4.1-1.5c-.38-.18-.7-.37-.99-.59l-.64-.47c-.2-.14-.38-.31-.56-.52a26.4 26.4 0 0 0-1.61-1.6c-.04 0-.05-.02-.03-.05l-.01-.06-.02-.02h-.03l-.1.04c-.72-1.74-.6-4.15 1.2-5.09.58-.3 1.16-.47 1.74-.53 1.76-.16 3.38.08 5.25.46.44.09.92.1 1.45.06 2.08-.2 2.76-3.18 2.5-4.85a10.35 10.35 0 0 0-.3-1.36v-.04l.04-.02H24c.07 0 .14.03.2.07.04.03.08.07.1.12.03.05.05.1.05.16-.03 1.91.42 3.64 2.1 4.53.46.25.94.3 1.44.4.81.2 1.8-.18 2.45-.67 1.04-.77 2.05-1.7 3.18-2.28.86-.44 1.7-.73 2.5-.87l2.61-.44c.73-.12 1.29-.4 1.66-.86.26-.32.2-.4-.16-.22l-.37.18c-.11.05-.16.02-.14-.11.27-1.7-.67-3.63-1.75-4.84-.9-1.03-2-1.7-3.27-2.01-.41-.4-.82-.6-1.22-.59l-1.16.02c-.23 0-.4-.02-.53-.06a.27.27 0 0 0-.16-.01c-.28.07-.55.1-.82.1a3.62 3.62 0 0 0-1.42.32c-.38.16-.72.17-1.1.39-.8.45-1.41.88-1.84 1.26a8.76 8.76 0 0 0-2.1 3.08 4.3 4.3 0 0 1-.2.4c-.12.2-.19.5-.23.9a3.27 3.27 0 0 1-.56-2.2c.05.1.1.17.16.19.05.02.09 0 .12-.04.42-.52.65-1.12 1.07-1.63.42-.51.73-1.09 1.25-1.52a7.25 7.25 0 0 1 2.92-1.5c.61-.15 1.2-.28 1.78-.38.6-.12 1.17.02 1.77-.02.05 0 .1-.01.14-.04a.32.32 0 0 0 .1-.4l-.11-.23a4.18 4.18 0 0 0-1.93-.82 7.12 7.12 0 0 0-5.9 1.86.36.36 0 0 1-.22-.07.18.18 0 0 1-.08-.15c0-.43.01-.85.05-1.28.02-.12.07-.32.18-.6.07-.2.1-.42.1-.64a5.95 5.95 0 0 1 3.7-2.61ZM20.43 15.26c.05.2.15.35.3.49.32.29.4.4.49.79.13.66.16 1.3.07 1.9l-.18.63a.4.4 0 0 1-.12.2 6.82 6.82 0 0 1-2.4 1.22.12.12 0 0 0-.02.07c0 .18-.1.26-.27.25a5.66 5.66 0 0 0-3.98.35c-.04.02-.07 0-.08-.04-.15-1.01-.01-1.94.44-2.8.08.15.21.24.41.27 1.37.2 2.7-.16 3.97-1.07.33-.23.56-.57.7-1.02a.25.25 0 0 0 0-.18c-.18-.43-.4-.76-.68-1l1.35-.06Z" fill="#82BB56"/><path d="M20.42 15.26c.36-.02.7.02 1.04.12.16.47.5.8.62 1.22.23.82.1 1.78-.72 2.2-.07-.05-.1-.18-.07-.36.09-.6.06-1.24-.07-1.9-.08-.4-.17-.5-.5-.8-.14-.13-.24-.29-.3-.48Z" fill="#A16A3F"/><path d="M19.08 15.31c.27.25.5.58.68 1 .02.06.02.12 0 .19-.14.45-.37.8-.7 1.02a5.39 5.39 0 0 1-3.97 1.07c-.2-.03-.33-.12-.42-.28a6.01 6.01 0 0 1 4.41-3Z" fill="#92D25F"/><path d="M21.46 15.38c.7.13 1.34.36 1.93.68.03.02.06.06.08.1.01.04 0 .09-.01.13a8.71 8.71 0 0 0-.9 4.42c.03.2.1.4.21.56.04.06.06.12.05.2l-.2 1.36v-.23c0-.06-.04-.1-.1-.11-.76-.18-1.2-.72-1.32-1.6-.1-.85-.05-1.54.16-2.08.81-.43.95-1.4.72-2.21-.12-.41-.46-.75-.62-1.22ZM24.67 15.52c0 .22-.03.43-.1.64-.1.28-.16.48-.17.6-.05.43-.07.85-.06 1.28 0 .06.03.11.08.15.05.04.13.07.22.07l-1.32 1.8c-.11.16-.17.14-.15-.07.1-1.57.6-3.07 1.5-4.47Z" fill="#7E5132"/><path d="m32.47 17.22.12.22a.32.32 0 0 1-.1.4.29.29 0 0 1-.15.05c-.6.04-1.17-.1-1.77.02-.58.1-1.17.23-1.78.39a7.25 7.25 0 0 0-2.92 1.5c-.52.42-.83 1-1.25 1.5-.42.52-.65 1.12-1.07 1.64-.03.04-.07.06-.12.04-.06-.02-.11-.09-.16-.19a5.8 5.8 0 0 1 2.65-4.65 7 7 0 0 1 3.7-1.14c.9-.02 1.85.05 2.85.22Z" fill="#92D25F"/><path d="M21.3 18.44c-.03.18-.01.3.06.37a4.22 4.22 0 0 0-.16 2.07c.12.9.56 1.43 1.32 1.6.06.02.1.06.1.12v.23l.1 1.07c0 .09-.03.1-.1.05a5.42 5.42 0 0 0-2.91-1.4 8.84 8.84 0 0 0-5.1.84 5.72 5.72 0 0 0-2.4 2.43c-.12.21-.2.2-.22-.05-.08-.76 0-1.31.39-1.98a5.17 5.17 0 0 1 3.81-2.52 15.22 15.22 0 0 1 2.32-.16.1.1 0 0 0 .03-.13c-.04-.08-.12-.14-.24-.17.17.01.26-.07.27-.25l.02-.07a6.82 6.82 0 0 0 2.4-1.23.4.4 0 0 0 .12-.19l.18-.63ZM34.6 19.18a7.93 7.93 0 0 0-3.51-.09 8.03 8.03 0 0 0-6.64 6.39.1.1 0 0 1-.04.02.09.09 0 0 1-.09-.02l-.49-.5c.04-.39.11-.68.23-.88l.2-.41a8.76 8.76 0 0 1 2.1-3.08c.43-.38 1.04-.8 1.84-1.26.38-.22.72-.23 1.1-.4l.47-.15c.4-.11.72-.16.95-.16.27 0 .54-.03.82-.1h.16c.12.05.3.07.53.07l1.16-.02c.4 0 .81.2 1.22.59Z" fill="#709E4B"/><path d="M34.6 19.18c1.28.31 2.37.98 3.28 2a.22.22 0 0 1-.2-.06.09.09 0 0 0-.1-.02.09.09 0 0 0-.05.05l.01.08c.05.05.07.14.05.25-.4-.5-.87-.9-1.38-1.2-.11-.06-.12-.05-.02.05.72.7 1.21 1.53 1.46 2.46-.17.6-.18 1.18-.04 1.74.15.56.06 1-.25 1.28-.05.05-.06.1-.03.15.07.16.08.3.04.44a.18.18 0 0 1-.13.12c-.52.17-.98.18-1.38.03.54-.78 1.1-1.94.9-2.9-.19-1-1.5-1.38-2.1-.48-.14.21-.23.47-.29.75-.28 1.5-1.84 2.37-3.2 2.3a5.82 5.82 0 0 1-.54-.06c-.8-.11-1.5.45-1.4 1.33.07.74.59 1.15 1.54 1.23-.1.24-.04.38.21.45.05 0 .08.04.1.08.03.06.04.12.02.18l-.05.07a.15.15 0 0 1-.06.03c-.25.05-.47.16-.67.32a.18.18 0 0 1-.21 0c-.25-.16-.43-.15-.56.04a5.9 5.9 0 0 1-2.94-5.26l.04.2c.02.13.05.13.09 0a.42.42 0 0 1 .12-.19.25.25 0 0 0 .07-.13l.25-1.27c.08-.42.26-1.16.63-1.4.26-.19.42-.47.54-.77.02-.05.06-.1.1-.14.29-.2.46-.5.77-.63.25-.11.5-.24.73-.37.2-.12.4-.19.6-.2.41-.04.8-.1 1.18-.18a.2.2 0 0 0 .13-.09.18.18 0 0 0-.04-.24.17.17 0 0 0-.08-.04l-.65-.09a7.93 7.93 0 0 1 3.52.09Z" fill="#0B1221"/><path d="M32.99 22.34c.57 0 1.03-.47 1.03-1.07 0-.59-.46-1.07-1.03-1.07-.57 0-1.03.48-1.03 1.07 0 .6.46 1.07 1.03 1.07ZM37.59 21.48c.98 1.1 2.05 3.14 1.63 4.66a.17.17 0 0 1-.14.13l-1.29.23h-.03a.06.06 0 0 1-.02-.02.06.06 0 0 1-.02-.06c.4-1.17.38-2.38-.07-3.63a5.28 5.28 0 0 0-1.46-2.46c-.1-.1-.09-.11.02-.04.51.3.97.7 1.38 1.2Z" fill="#fff"/><path d="M26.83 23.1a.52.52 0 0 0-.09-.2c-.04-.05-.08-.05-.11 0-.56.9-1.04 1.58-1.3 2.68-.08.37-.1.75-.17 1.14-.05.25-.08.53-.08.83 0 .29-.04.58-.1.87-.97-2.73.75-6.1 2.87-7.62.27-.18.3-.15.07.1a5.1 5.1 0 0 0-1.1 2.2Z" fill="#C4C8C9"/><path d="M35.86 26.55a4.1 4.1 0 0 1-.28.25.87.87 0 0 1-.35.17c-1.18.29-2.26.8-3.24 1.55-.18.13-.36.21-.55.25-.24.04-.47.02-.67-.05-.95-.08-1.47-.49-1.55-1.23-.1-.88.62-1.44 1.4-1.33.19.03.37.05.56.06 1.35.07 2.91-.8 3.19-2.3.05-.28.15-.54.3-.75.58-.9 1.9-.53 2.1.49.18.95-.37 2.11-.91 2.9Z" fill="#A15C4A"/><path d="m26.83 23.1-.22 1.53a5.9 5.9 0 0 0 2.94 5.26c.14.04.24.1.3.2.03.05.01.1-.04.13-.71.39-1.17.6-1.4.61-1.75.13-2.9-.67-3.44-2.41.07-.29.1-.58.1-.87.01-.3.04-.58.08-.83.08-.4.1-.77.18-1.14.26-1.1.74-1.79 1.3-2.68.03-.05.07-.05.11 0 .04.05.07.12.09.2Z" fill="#fff"/><path d="M23.36 26.34c.2.68.23 1.35.1 2-.08 0-.16.06-.25.18a.55.55 0 0 0-.1.28c-.01.23-.12.4-.33.47a.12.12 0 0 0-.09.11c0 .09-.05.14-.12.15a.13.13 0 0 1-.14-.06c-.17-.26-.3-.22-.38.13-.04-.55-.25-.9-.64-1.06-1.03-.41-1.27.6-2.06.88-.8.28-1.65.22-2.55-.16-.16-.06-.3-.16-.41-.3-.36-.42-.8-.75-1.36-.63-.77.18-.98 1.05-.6 1.74-.3-.11-.54-.11-.7 0a5.53 5.53 0 0 1 .3-5.43 24 24 0 0 0 .45-.74c0-.1.07-.1.2 0 .04.03.08.04.12.04.24-.02.45-.1.64-.26.16-.14.35-.22.56-.26.96-.15 1.9-.33 2.82-.54.26-.05.6-.06 1.04-.02.12.01.23.06.32.15.14.12.3.22.46.3.27.11.5.3.7.58.2.28.48.5.83.63.07.03.13.08.17.15l.48.88c.21.42.35.88.4 1.39 0 .03.02.04.05.04l.05-.02c.03 0 .04-.02.03-.05-.03-.2-.03-.38.01-.57Z" fill="#0B1221"/><path d="M19.5 25.97c.57 0 1.03-.48 1.03-1.07 0-.6-.46-1.07-1.03-1.07-.57 0-1.03.48-1.03 1.07 0 .6.46 1.07 1.03 1.07ZM13.73 30.07c.16.36.36.67.61.94a.14.14 0 0 1 0 .2 4.1 4.1 0 0 0-1.24.47c-.13.06-.23.04-.3-.08a6.28 6.28 0 0 1-.7-4.39 5.01 5.01 0 0 1 2.38-3.3 24 24 0 0 1-.44.73 5.53 5.53 0 0 0-.31 5.43ZM23.46 28.34c.13-.65.1-1.32-.1-2a3.7 3.7 0 0 0-.64-1.6v-.04c.03-.02.04-.01.05 0 .1.16.23.29.32.44.75 1.35.98 2.81.68 4.39-.16.9-.83 1.79-1.7 2.04-.09.03-.1 0-.04-.08l.45-.6c.54-.68.86-1.53.98-2.55Z" fill="#fff"/><path d="M41.26 31.58c-.41.97-.77 1.68-1.09 2.14-2 2.9-4.77 5.11-7.96 6.43a15.8 15.8 0 0 1-4.98 1.16c-2.79.2-5.56 0-8.32-.59-2.16-.58-4.21-1.49-5.7-3.23-1.17-1.37-1.29-3.52.51-4.36a3.92 3.92 0 0 1 4.08.33c2.1 1.52 4.56 1.86 7.12 1.75 1.16 0 2.3-.13 3.42-.36a9.82 9.82 0 0 0 6.82-4.21c1.3-1.85 2.38-4.1 5.09-2.67.92.48 1.32 1.44 1.22 2.48-.04.41-.11.79-.2 1.13Z" fill="#030503"/><path d="M17.55 34.1a9.67 9.67 0 0 0 5.29 1.77c4.06.25 8.7-.32 11.63-3.34 1-1.03 1.69-2.21 2.53-3.34.78-1.04 1.74-1.26 2.88-.65 2.3 1.21-.3 5.01-1.36 6.22-2.69 3.07-6.39 5.33-10.36 5.74-3.64.38-7.36.2-10.76-1.02-1.74-.62-3.48-1.72-4.22-3.32-.5-1.1-.03-2.15 1.1-2.53 1.2-.42 2.24-.3 3.27.46Z" fill="#F3979C"/><path d="M22.05 29.6c-.26.88-1.28 2.05-2.32 1.82a15.5 15.5 0 0 0-3.9-.36c-.61.02-1.09-.48-1.4-.99-.38-.69-.17-1.56.6-1.74.55-.12 1 .2 1.36.63.1.14.25.24.4.3.9.38 1.76.43 2.56.16.79-.28 1.03-1.3 2.06-.88.39.15.6.5.64 1.06Z" fill="#A15C4A"/><path d="M28.34 34.85c-1.12.23-2.26.35-3.42.36-.3-.1-.6-.16-.89-.2a6.77 6.77 0 0 1-1.94-.44.4.4 0 0 1-.15-.09.32.32 0 0 0-.2-.1.28.28 0 0 1-.14-.05 1.39 1.39 0 0 0-.6-.29 6.38 6.38 0 0 1-2.37-1.22.1.1 0 0 1 .02-.1.1.1 0 0 1 .06-.03c.1-.01.21 0 .33.02 1.08.28 2.11.37 3.08.27.66-.07 1.32-.16 2-.27.6-.1 1.26-.25 1.99-.46a7.54 7.54 0 0 1 2.17-.23c.35 0 .7-.05 1.05-.15.43-.13.85-.12 1.3-.26a16.35 16.35 0 0 0 3.19-1.4.13.13 0 0 1 .1.03c.01.02.03.03.03.05.04.08.02.15-.03.2-.6.62-1.23 1.24-1.93 1.85-.54.48-1.2.8-1.82 1.2-.15.1-.45.27-.89.49-.41.2-.72.47-.94.82Z" fill="#92D25F"/><path d="M19.48 37.64c-1.36-.3-2.72-.66-3.99-1.26-.17-.08-.25-.22-.21-.43 0-.04.02-.08.04-.11a.27.27 0 0 1 .2-.12c.03 0 .07 0 .11.02a25.49 25.49 0 0 0 8.99 1.83c5.08.13 9.8-1.53 12.8-5.86a.41.41 0 0 1 .08-.09c.39-.31.6-.28.63.09 0 .05-.01.1-.04.15a5.1 5.1 0 0 1-.42.68c-4.38 5.83-11.65 6.53-18.19 5.1Z" fill="#030503"/><path d="M41.26 31.58c.02.73-.04 1.25-.18 1.56a8.32 8.32 0 0 1-1.18 2.03c-.27.32-.49.66-.78.94a28.1 28.1 0 0 1-3.28 2.74.18.18 0 0 1-.12.04h-.05c-.01 0-.02 0-.03.02a.44.44 0 0 1-.27.19.43.43 0 0 0-.17.08c-.32.26-.52.52-.94.64-.31.1-.62.26-.92.48-.18.13-.37.08-.56.15-.83.34-1.66.65-2.5.91-.3.1-.61.16-.92.17-.35.01-.66.06-.93.14l-.58.16c-.2.05-.39.08-.58.1-1.62.11-3.23.05-4.83-.2-.56-.1-1.1-.04-1.67-.11a.37.37 0 0 1-.26-.14.33.33 0 0 0-.12-.1l-1.48-.66c2.76.59 5.53.78 8.32.6 1.73-.13 3.4-.52 4.98-1.17a17.95 17.95 0 0 0 7.96-6.43c.32-.46.68-1.17 1.1-2.14Z" fill="#709E4B"/></svg>