<svg width="56" height="56" viewBox="0 0 56 56" xmlns="http://www.w3.org/2000/svg"><rect fill="#14162B" width="56" height="56" rx="28"/><path fill-rule="evenodd" d="M22.1 41.57c5.11 1.84 15.02 3.6 22.22-6.32.58-.8 1.14-1.67 1.68-2.62l-10.63-6.27c-.22.9-.56 1.93-1.02 3.02-1.91 4.55-5.88 9.98-12.15 8.89l-.58-.12-2.86 1.93a19.29 19.29 0 0 0 3.34 1.5Zm7.69-1.7c2.09 0 4.27-.38 6.39-1.45 1.82-.92 3.7-2.4 5.46-4.74l-4.62-2.73a22.83 22.83 0 0 1-3.63 5.88 15.1 15.1 0 0 1-3.6 3.04Z" fill="url(#a0chbwssp)"/><path fill-rule="evenodd" d="M20.46 16.47c-4.12 3.6-10.56 11.47-5.75 22.8.39.9.85 1.84 1.39 2.8l10.63-6.27a21.23 21.23 0 0 1-2.05-2.4c-2.9-3.98-5.53-10.2-1.47-15.2l.4-.45-.21-3.5s-.82.49-1.99 1.42a26.69 26.69 0 0 0-.95.8Zm-2.4 7.65a14.63 14.63 0 0 0-1.96 6.36c-.13 2.07.18 4.47 1.29 7.2l4.62-2.71a22.92 22.92 0 0 1-3.17-6.15 15.62 15.62 0 0 1-.78-4.7Z" fill="url(#b0chbwssp)"/><path fill-rule="evenodd" d="M25.95 11.17c12.01 1.4 15.47 11.04 16.47 16.48a27.17 27.17 0 0 1 .38 3.1l-3.43-2.03c-2.38-5.63-8.74-6.37-13.42-5.8-1.15.14-2.2.36-3.07.6V11c1.08 0 2.1.06 3.07.17Zm6.76 5.62a14.32 14.32 0 0 1 4.42 4.92c-1.4-.81-2.9-1.34-4.38-1.66-2.32-.5-4.7-.5-6.8-.28v-5.44c2.87.38 5.07 1.3 6.76 2.46Z" fill="url(#c0chbwssp)"/><defs><linearGradient id="a0chbwssp" x1="41.43" y1="30.63" x2="20.17" y2="41.04" gradientUnits="userSpaceOnUse"><stop stop-color="#5F2EEA"/><stop offset="1" stop-color="#972EEA"/></linearGradient><linearGradient id="b0chbwssp" x1="18.48" y1="38.23" x2="19.77" y2="17.33" gradientUnits="userSpaceOnUse"><stop stop-color="#5F2EEA"/><stop offset="1" stop-color="#972EEA"/></linearGradient><linearGradient id="c0chbwssp" x1="24.06" y1="16.07" x2="42.95" y2="30.26" gradientUnits="userSpaceOnUse"><stop stop-color="#5F2EEA"/><stop offset="1" stop-color="#972EEA"/></linearGradient></defs></svg>