<svg width="56" height="56" viewBox="0 0 56 56" xmlns="http://www.w3.org/2000/svg"><rect fill="#F0F3FA" width="56" height="56" rx="28"/><path d="M43.36 26c-.2 0-.41.04-.6.11A13.82 13.82 0 0 0 37 25c-3.21 0-6.28 1.07-9 3.3a14 14 0 0 0-9-3.3c-1.88 0-3.81.25-5.74 1.11a1.7 1.7 0 0 0-.61-.11c-.87 0-1.65.56-1.65 1.42 0 .86.74 1.56 1.6 1.58.8.02 1.53-.54 1.68-1.32 4.3-2.17 8.57-1.05 12.35 2.12A12.37 12.37 0 0 0 24 37.38c.03 3.22 1.55 6.07 4 8.62 2.4-2.68 3.97-5.54 4-8.62.02-2.18-.81-4.48-2.32-6.9a9.93 9.93 0 0 0-1.25 1.65c1 1.81 1.6 3.56 1.57 5.25-.04 1.97-.9 3.84-2.01 5.62A8.2 8.2 0 0 1 26 37.38a10.9 10.9 0 0 1 3.37-7.57c3.77-3.17 8.05-4.31 12.35-2.14.13.75.8 1.3 1.57 1.33.9.04 1.74-.51 1.7-1.44A1.67 1.67 0 0 0 43.37 26Z" fill="#04BFBF"/><path d="M42 21.57c0-.33-.1-.64-.3-.9-.2-.27-.5-.47-.82-.58-.32-.1-.68-.12-1-.03-.34.1-.64.28-.85.53A17.9 17.9 0 0 0 28 22.81c-3.3-1.9-7.2-2.68-11.04-2.22-.3-.35-.74-.57-1.22-.59-.98-.05-1.82.76-1.75 1.68.07.83.82 1.46 1.69 1.46.56-.01 1.11-.3 1.4-.76 1.92-.26 3.87-.17 5.74.28 1.87.45 3.63 1.25 5.17 2.34a15.51 15.51 0 0 1 10.9-2.61 1.73 1.73 0 0 0 1.77.72c.23-.05.45-.14.63-.26l.07.02-.03-.05a1.49 1.49 0 0 0 .66-1.25Z" fill="#04BFBF"/><path d="M34.4 16c-.57 0-1.12.32-1.4.82a16.74 16.74 0 0 0-5 1.98v.02-.02a16.75 16.75 0 0 0-5-1.98c-.28-.5-.82-.81-1.38-.82-.86-.01-1.62.7-1.62 1.57 0 .84.7 1.56 1.55 1.58.47.01.95-.2 1.26-.56 1.88.45 3.64 1.27 5.19 2.41a14.22 14.22 0 0 1 5.19-2.4c.3.35.75.55 1.21.56.85 0 1.59-.72 1.6-1.56.01-.86-.73-1.6-1.6-1.6Z" fill="#04BFBF"/><path d="M28 16a2 2 0 1 0 0-4 2 2 0 0 0 0 4Z" fill="#04BFBF"/></svg>