<svg width="112" height="112" viewBox="0 0 56 56" xmlns="http://www.w3.org/2000/svg"><rect fill="url(#at4530mfh)" width="56" height="56" rx="28"/><path d="M40.13 15.13c.03.02.03.04.03.07 0 .05-.03.08-.08.1-.1.04-.2.02-.29-.06a.45.45 0 0 0-.22-.12c-.68-.16-1.24.15-1.89.33-.23.06-.24.03-.04-.11.47-.32 1-.6 1.56-.84.83-.37 1.7-.53 2.6-.5.05 0 .1.03.15.06.04.03.08.07.1.13.36.78.5 1.6.44 2.48 0 .05 0 .09.05.12.08.06.13.03.14-.07l.02-.11c.01-.09.06-.13.15-.1.1.02.18.09.2.2.26 1.2.57 2.38.66 3.63.12 1.84.13 3.51-.4 5.14-.12.35-.25.36-.39.02a8.91 8.91 0 0 0-2.64-3.46c-.65-.53-.72-.46-.2.22.54.72 1.1 1.37 1.58 2.18.6 1.01 1.04 1.9 1.3 2.68.1.24.4.45.61.56.68.34 1.27.74 1.79 1.17a3.79 3.79 0 0 0 .63.46v.05c0 .02-.01.02-.03.02a.33.33 0 0 1-.11-.08.26.26 0 0 0-.2-.07 4.22 4.22 0 0 1-1.6-.2.24.24 0 0 0-.29.1.22.22 0 0 0 .04.26c.66.62 1.11 1.4 1.36 2.31.06.2.06.5 0 .94-.01.15-.07.16-.16.04l-.16-.2a.5.5 0 0 1-.1-.37c.13-1.02-.9-2.43-1.51-3.15-.13-.15-.1-.22.1-.2l.92.02c.44.02.47-.09.1-.32a10.75 10.75 0 0 0-1.74-.88.25.25 0 0 1-.07-.19c0-.03.01-.07.03-.1a.53.53 0 0 0 0-.53 28.39 28.39 0 0 0-4.18-5.92c-.1-.12-.09-.14.05-.08 1.91.84 3.68 1.94 4.47 3.86.1.26.17.25.18-.03.03-.48-.01-.9.07-1.39.33-1.89.1-3.67-.15-5.54a1.2 1.2 0 0 0-.18-.48c-.06-.1-.12-.1-.18 0-.08.13-.18.25-.3.36-.29.3-.38.23-.27-.18.26-.9.22-1.85-.1-2.85a.39.39 0 0 0-.13-.2.36.36 0 0 0-.22-.07l-1.2-.01a.38.38 0 0 0-.22.06c-.18.13-.38.19-.6.19-.07 0-.1.04-.09.11 0 .04.02.07.05.1a.1.1 0 0 0 .06.01l1.23-.02a.1.1 0 0 1 .06.02c.02 0 .03.03.04.05a.12.12 0 0 1-.02.12c-.2.24-.45.3-.73.16a.08.08 0 0 0-.08.01c-.05.03-.05.06 0 .1Z" fill="#CA7C6C"/><path d="M13 18.27c-.02-.02-.04-.02-.06 0a.07.07 0 0 0-.02.04c-.22 1.46.08 2.98.24 4.43a9.6 9.6 0 0 0 .5 1.97c.01.02.04.03.06.03h.08a6.31 6.31 0 0 1 2.56-2.34c.7-.34.74-.27.1.2-1.42 1.1-2.1 2.3-2.85 3.86a.1.1 0 0 1-.07.06.1.1 0 0 1-.08-.02.14.14 0 0 1-.05-.07 23.64 23.64 0 0 1-.96-7.73 9.3 9.3 0 0 1 1.24-4.4c.14-.23.31-.27.52-.1a5.06 5.06 0 0 0 2.9 1.31c.09.02.12.07.09.15a.2.2 0 0 1-.04.07.15.15 0 0 1-.1.04c-.47.03-.96.09-1.4-.15a9.04 9.04 0 0 1-1.5-1.01c-.16-.14-.3-.11-.41.07a3.3 3.3 0 0 0-.46 1.45 13.1 13.1 0 0 0 .22 3.83v.1a.18.18 0 0 1-.07.08l-.06.04c-.03.02-.05.01-.06-.02-.2-.6-.3-1.2-.28-1.83a.07.07 0 0 0-.04-.06Z" fill="#F9CE7E"/><path d="M16.5 14.8c.05.13.14.26.26.38.08.07.07.1-.03.07a1.25 1.25 0 0 1-.72-.47c-.12-.17-.09-.27.11-.32a.86.86 0 0 1 .55.07c.08.03.08.07 0 .1a.24.24 0 0 1-.1.03c-.1 0-.12.04-.08.14ZM29.62 17.17c-.1-.14-.18-.28-.26-.42-.16-.28-.12-.32.13-.12.28.23.48.57.58 1 .03.1 0 .12-.1.08a8.56 8.56 0 0 0-2.58-.78c-.45-.05-.9-.12-1.37-.2-.96-.17-1.9 0-2.87.15-.13.02-.14.07-.03.14l.3.25c.22.2.38.44.48.73a.9.9 0 0 1 .04.44c-.04.23-.15.28-.33.14a34.24 34.24 0 0 0-6.54-3.83c-.1-.04-.1-.07 0-.1.1-.02.2-.01.3.03a24 24 0 0 1 3.42 1.65l1.48.88c.24.13.52.38.7.47.42.19.48.1.17-.25a490.88 490.88 0 0 0-.45-.53.16.16 0 0 1 .04-.14 8.38 8.38 0 0 1 3.75-.21c.26.05.52.1.8.13.7.1 1.46.3 2.27.6.13.05.16.01.07-.1Z" fill="#F6B581"/><path d="M35.25 17.94c-.05-.02-.06-.05-.03-.1.05-.07.1-.14.16-.19 1.28-1.04 2.6-1.8 4-2.29.05-.02.08 0 .1.05v.05c.02.02.01.04-.01.05a11.14 11.14 0 0 0-3.5 1.93c-.14.11-.25.25-.33.42a.18.18 0 0 1-.12.1.44.44 0 0 1-.27-.02Z" fill="#CA7C6C"/><path d="M29.2 16.33c-.1.06-.21.04-.32-.05a4.4 4.4 0 0 0-.79-.58c-.13-.07-.13-.1-.02-.1.04 0 .07.02.1.05.05.05.1.09.16.1a21.5 21.5 0 0 1 4.15 1.74c.55.3 1.05.52 1.5.67 1.08.34 1.96.33 3.02.28.3 0 .3.04.03.15a4.08 4.08 0 0 1-3.6-.29c-1.13-.6-2.26-1.2-3.37-1.77-.23-.12-.46-.2-.7-.23-.06 0-.11 0-.16.03Z" fill="#F3958C"/><path d="M40.96 18.67a2 2 0 0 0 1.12-.42c.06-.05.11-.03.14.04.13.32.2.65.22.99.05.98.05 1.94.01 2.89 0 .11-.04.12-.1.04a9.68 9.68 0 0 0-2.7-2.3.17.17 0 0 0-.17 0 .16.16 0 0 1-.13 0 17.1 17.1 0 0 0-2.02-.63c-.16-.04-.17-.09-.02-.15.27-.12.52-.31.7-.55l1.51-2a3 3 0 0 1 1.1-.92.12.12 0 0 1 .13.03c.02.01.03.04.04.06v.08c-.3.9-.67 1.96.04 2.78.03.04.08.06.13.06Z" fill="#CA7C6C"/><path d="M17.9 20.22c.1.01.24.07.41.18.27.17.25.2-.05.12-1.14-.33-2.05-.11-2.7.65-.1.1-.17.1-.25-.01a4.67 4.67 0 0 1-.98-2.23 8.08 8.08 0 0 1 .17-2.71.11.11 0 0 1 .12-.02c.02 0 .04.02.05.04 1.25 1.75 2.81 2.57 4.69 2.45.8-.05.81-.16.03-.35a5.46 5.46 0 0 1-2.91-1.76c-.07-.09-.05-.12.05-.1 1.65.42 3.2.96 4.68 1.64 1.1.5 1.98 1.15 2.8 2.02.18.18.14.26-.1.25-1.24-.06-2.4-.22-3.45-.48a4.87 4.87 0 0 0-2.58-.02c-.54.16-.53.27.03.33Z" fill="#F09F52"/><path d="M42.49 32.53c-.12-.4-.27-.78-.45-1.14-.21-.43-.36-.8-.44-1.12-.34-1.27-.59-2.68-1.78-3.36-.33-1.5-.98-1.47-2.25-1.47-2.7.02-5.36.02-8 .01-.09 0-.13-.04-.13-.12-.03-.78.14-1.51.5-2.2.22-.41.28-.39.2.08a2.3 2.3 0 0 0-.04.37c-.07 2.34 3.39.68 4.24.23.15-.08.17-.05.08.09-.11.15-.23.29-.38.4-.04.04-.03.05.02.05.67.05 1.65-.47 2.24-.82.77-.47 1.9-.65 2.6-.15a10.3 10.3 0 0 1 3.57 4.5c.19.45.33.92.42 1.42 0 .04 0 .06-.04.07l-.05.01-.02-.01a4.06 4.06 0 0 0-.89-1.66c-.42-.45-.51-.39-.26.2.56 1.29.72 2.53.95 3.91.1.57.31 1.06.65 1.45.02.03.02.05 0 .07-.02.02-.04.02-.06 0-.26-.24-.49-.5-.68-.8ZM17.15 26.92c-.62.25-1.04.73-1.27 1.42-.22.64-.42 1.3-.6 1.95-.04.14-.16.46-.36.97-.13.33-.2.66-.24 1.01l-.52.71-.03-.3.14-.7.2-.99c.08-1.13.33-2.18.74-3.12.23-.53.16-.58-.21-.16-.29.32-.53.72-.73 1.19a.17.17 0 0 1-.08.08.06.06 0 0 1-.06 0c-.02 0-.03-.01-.03-.04.28-1.99 1.95-4.1 3.46-5.31.74-.59 1.55-.75 2.38-.29.77.43 1.53.77 2.29 1.02.05.02.1.03.16.02.15-.01.17-.07.05-.17a1 1 0 0 1-.22-.26c-.16-.26-.11-.32.15-.17.88.49 1.8.95 2.8 1.02 1.04.08 1.64-.87 1.2-1.85-.02-.06 0-.08.05-.05.03 0 .05.03.07.05.43.67.65 1.45.66 2.34 0 .1-.05.15-.14.15l-8.7.03c-.24 0-.45.06-.63.2-.34.25-.43.83-.53 1.25Z" fill="#FEFEFE"/><path d="M12.79 31.85a.57.57 0 0 1-.14-.48l.22-1.98c.08-.8.44-2 .93-2.81.64-1.05 1.32-1.91 2.04-2.58.03-.03.07-.03.1-.02l.02.02c.02.03.02.06 0 .08a20.74 20.74 0 0 0-2.66 5.67c-.05.18-.13.54-.23 1.05-.08.36-.17.71-.28 1.05Z" fill="#CA7C6C"/><path d="M28.96 24.55c.03-.07.05-.06.06.01.03.28.02.56-.02.84 0 .02-.02.03-.03.05a.08.08 0 0 1-.1 0 .08.08 0 0 1-.03-.05c-.05-.29-.01-.57.12-.85ZM27.76 25.02c.02.27.08.48.13.47.06 0 .09-.22.07-.48-.02-.27-.08-.48-.14-.47-.05 0-.08.22-.06.48Z" fill="#FEFEFE"/><path d="M26.25 26.14c.3 0 .57.12.78.34.21.22.33.51.33.82v.75c0 .68-.12 1.36-.36 1.99-.23.63-.57 1.2-1 1.68-.43.49-.95.87-1.5 1.13-.57.26-1.17.4-1.78.4h-.23a4.4 4.4 0 0 1-3.28-1.53 5.53 5.53 0 0 1-1.36-3.67v-.75c0-.3.12-.6.33-.82.2-.22.49-.34.78-.34h7.29Z" fill="url(#bt4530mfh)"/><path d="m36.2 26.15-1.44 2.08a.31.31 0 0 0-.06.2c.07.88.11 1.78.13 2.7 0 .25-.07.47-.09.72 0 .08 0 .15.04.2.2.37.24.75.12 1.16a4.46 4.46 0 0 1-4.74-2.65 5.94 5.94 0 0 1-.67-3.21c.06-.76.47-1.14 1.22-1.16 1.8-.05 3.63-.07 5.48-.04Z" fill="#F9CE7E"/><path d="M36.2 26.15c.87-.1 2.74-.25 2.9.99.33 2.7-1.4 5.86-4.2 6.07.12-.4.08-.8-.12-1.15a.34.34 0 0 1-.04-.2c.02-.26.1-.48.09-.74-.02-.91-.06-1.8-.13-2.69 0-.07.02-.14.06-.2l1.43-2.08Z" fill="#F3958C"/><path d="M17.15 26.92c0 .3-.03.62-.1.92-.05.27-.18.54-.4.8a4.92 4.92 0 0 0-.97 1.46 7.5 7.5 0 0 1-1 2.17c.03-.35.11-.68.24-1.01.2-.51.32-.83.35-.97l.6-1.95c.24-.7.66-1.17 1.28-1.42ZM39.82 26.91c1.2.68 1.44 2.1 1.78 3.36.08.32.23.7.44 1.12.18.36.33.74.45 1.14a1.7 1.7 0 0 1-.7-.83c-.25-.54-.45-1-.59-1.36a5.25 5.25 0 0 0-1.05-1.63c-.4-.45-.52-1.05-.33-1.8ZM29.5 30.88c-.13-.04-.2.05-.2.27-.01.1-.05.12-.13.06a1.79 1.79 0 0 1-.5-.72.24.24 0 0 0-.08-.1.22.22 0 0 0-.24-.02.23.23 0 0 0-.08.09l-.43.77a.2.2 0 0 1-.1.1c-.08.03-.1 0-.07-.09.14-.43.12-.72-.06-.88l.43-1.56c.06-.27.21-.47.4-.64a.13.13 0 0 1 .12-.03l.06.03.04.06.84 2.66Z" fill="#AEAFB3"/><path d="M29.5 30.88a6.8 6.8 0 0 0 3.02 2.85l1.06 1.39a2.3 2.3 0 0 1-.35 1.04c-.14.22-.2.2-.2-.06 0-.32-.01-.68-.04-1.07 0-.03-.01-.04-.03-.04h-.05l-.04.02a.1.1 0 0 0-.05.09 3.7 3.7 0 0 1-.95 2.67c-.15.17-.3.26-.43.25-.03-.07-.02-.1.01-.1l.35-1.42a.16.16 0 0 0-.07-.18l-.06-.03c-.03-.02-.04 0-.05.02l-.33.74c-.04.1-.11.13-.2.07a7.78 7.78 0 0 0-2.42-.91 41.1 41.1 0 0 0-2.17-.92c-.87-.33-1.31-1-1.34-2.01a5.63 5.63 0 0 0 2.45-2.92c.18.16.2.45.06.88-.03.1 0 .12.08.08a.2.2 0 0 0 .1-.09c.13-.26.27-.52.42-.77a.23.23 0 0 1 .09-.09.22.22 0 0 1 .23.02c.04.02.07.06.08.1.12.3.29.54.5.72.08.06.12.04.12-.06 0-.22.08-.31.2-.27Z" fill="#FEFEFE"/><path d="m14.47 30.99-.2 1-.15-.63a.6.6 0 0 0-.11-.15.18.18 0 0 0-.12-.02.2.2 0 0 0-.1.04c-.35.3-.6.63-.78 1-.04.08-.09.08-.13 0a.93.93 0 0 1-.1-.38c.07.04.12.02.17-.06.54-.94 1.05-1.2 1.52-.8Z" fill="#B15971"/><path d="m14.12 31.36.15.63-.14.7-.04-.2c-.02-.12-.07-.13-.14-.03-.07.12-.13.23-.18.35-.05.12-.03.14.08.07l.28-.2.03.3c-.52.19-.86.4-1.02.64-.31.47-.21.61.31.43.46-.16.92-.3 1.38-.4.12-.03.14 0 .06.11-.29.38-.63.72-1.02 1-.15.1-.19.25-.13.42a7.23 7.23 0 0 0 2.31 3.43c.15.12.2.08.16-.1a3.3 3.3 0 0 1 .44-2.5c.05-.1.1-.1.16 0 1.1 1.84 3.15 3.8 4.97 4.45a65 65 0 0 1 3.67 1.44c.03.05.02.09-.04.11-1.37-.43-2.74-.88-4.1-1.35a10.17 10.17 0 0 1-4.6-3.13c-.19-.23-.29-.2-.29.11v1.33c0 .1-.04.12-.13.07-1.27-.8-3.55-2.52-3.5-4 0-.08.04-.14.1-.18l.28-.2c.1-.07.1-.12-.03-.15a.41.41 0 0 0-.28.04c-.21.11-.42.17-.63.18-.27.01-.3-.07-.1-.26a7.74 7.74 0 0 0 1.94-2.67c.05-.1.06-.25.05-.44Z" fill="#CA7C6C"/><path d="M36.93 34.98a.57.57 0 0 0-.07-.57c-.08-.11-.05-.2.07-.27a5.96 5.96 0 0 0 2.04-1.86l.38-.5c.16-.19.2-.16.15.08a4.66 4.66 0 0 1-2.48 3.2c-.1.05-.13.03-.09-.08Z" fill="#FEFEFE"/><path d="M28.57 31.88c.88.19 1.15.8 1.39 1.6.23.79-.62 1.62-1.26 2-.17.1-.33.1-.5 0-.57-.33-1-.7-1.27-1.14-.45-.7.06-1.68.57-2.18.28-.28.64-.37 1.07-.28Z" fill="#030708"/><path d="M44.25 32.18a4.92 4.92 0 0 1-.72 3.94h-.04l-.05-.03v-.02c.25-.57.4-.98.43-1.25.07-.52.15-1.03.25-1.54.08-.43.01-.79-.11-1.2-.05-.14 0-.22.17-.23a.1.1 0 0 1 .06 0l.04.05c.04.06.04.11 0 .14a.13.13 0 0 0-.03.14Z" fill="#CA7C6C"/><path d="M27.36 33.65a.25.25 0 0 1-.18-.08.27.27 0 0 1-.08-.19v-.03a1.35 1.35 0 0 1 .35-.93 1.25 1.25 0 0 1 .89-.39 1.2 1.2 0 0 1 .9.38 1.3 1.3 0 0 1 .37.91v.03c0 .08-.02.15-.07.2a.25.25 0 0 1-.18.08l-2 .02Z" fill="#7E7E81"/><path d="m14.13 32.69-.28.19c-.1.07-.13.05-.08-.07.05-.12.11-.23.18-.35.07-.1.12-.1.14.03l.04.2Z" fill="#030708"/><path d="M25.16 33.28c.03 1 .47 1.68 1.34 2.01.73.29 1.46.59 2.17.92-1.02.14-1.84-.2-2.68.66a.18.18 0 0 1-.25.01.2.2 0 0 1-.06-.07l-.24-.58c-.05-.12-.09-.11-.13 0-.18.52.06.92.15 1.4v.07a.1.1 0 0 1-.03.04.1.1 0 0 1-.1.01 3.15 3.15 0 0 1-1.35-1.24c-.25-.42-.2-1-.27-1.49 0-.02 0-.02-.03-.02h-.06c-.04 0-.06.02-.06.07v1.25c0 .1-.04.12-.1.04-.43-.57-.52-1.14-.7-1.78-.1-.37.03-.57.39-.62a5.6 5.6 0 0 0 2.01-.68Z" fill="#AEAFB3"/><path d="M39.13 34.21a3.72 3.72 0 0 1-2.03 2.1c-.1.03-.14 0-.14-.1 0-.33.05-.59.33-.78.81-.55 1.36-.88 1.88-1.8 0-.01.02-.02.04 0l.07.03.03.03v.04l-.18.48Z" fill="#FEFEFE"/><path d="M32.52 33.73c.35.02.99.08 1.23.31.05.05.07.11.05.19l-.22.89-1.06-1.39Z" fill="#AEAFB3"/><path d="M42.25 36.14a12.26 12.26 0 0 1-6.97 4.35c-1.9.38-3.52.88-5.17 1.55-.55.22-.58.16-.1-.18a31 31 0 0 1 5.13-2.25c.92-.26 1.78-.54 2.57-.83 1.7-.6 3.2-1.51 4.46-2.7.03-.03.05-.03.08 0v.06Z" fill="#B15971"/><path d="M31.45 37.92c-.03 0-.04.03-.01.1-.2.03-.29.1-.24.2a6.43 6.43 0 0 0-2.27-1.02c-1.15-.21-2.2.1-3.18.95a.54.54 0 0 1-.15-.18.15.15 0 0 1 .02-.17c.33-.43.76-.8 1.3-1.12.25-.16.53-.23.82-.2.5.04.84-.08 1.34.1.84.3 1.6.75 2.28 1.37h.04c.02 0 .03-.02.05-.03Z" fill="#AEAFB3"/><path d="M31.2 38.22c-.08.5-.26.91-.55 1.26l-.83.68a.07.07 0 0 1-.06.01.07.07 0 0 1-.05-.03c-.02-.04-.05-.06-.1-.05a.13.13 0 0 0-.08.03l-.65.54a.27.27 0 0 1-.23.06.27.27 0 0 1-.19-.14l-.27-.5c-.07-.14-.13-.13-.17.02-.04.13-.05.26-.03.4.01.12-.04.16-.15.12a2.15 2.15 0 0 0-.72-.14 3.79 3.79 0 0 1-1.37-2.33 3.69 3.69 0 0 1 3.18-.95c.64.11 1.4.45 2.27 1.02Z" fill="#FEFEFE"/><path d="M30.65 39.48c-.13.46-.43 1.07-.87 1.27-.48.22-.38 1.11-.33 1.58l-.01.03-.07.03c-.08.04-.12.01-.12-.08l-.02-.68c0-.34-.08-.35-.22-.05-.1.24-.19.48-.24.71-.03.13-.08.14-.14.03-.06-.1-.07-.22-.03-.37.04-.14 0-.16-.1-.06a.5.5 0 0 1-.05.04.12.12 0 0 0-.05.1v.63c-.02.43-.12.45-.3.06a3.37 3.37 0 0 0-1.43-1.5.1.1 0 0 0-.1 0c-.03 0-.04.02-.04.04l.02.05.5.55c.02.03.02.05 0 .08H27c-.21-.24-.4-.48-.67-.63-.25-.13-.47-.3-.64-.51a.09.09 0 0 1 .02-.13l.04-.01c1.04.1 1.82.59 2.35 1.46.06.1.1.1.11-.03.04-.28 0-.54-.1-.77a.34.34 0 0 0-.15-.16c-.31-.18-.6-.4-.84-.68.25 0 .5.05.72.14.11.04.16 0 .15-.13-.02-.13 0-.26.03-.39.04-.15.1-.16.17-.02l.27.5a.28.28 0 0 0 .2.14.27.27 0 0 0 .22-.06l.65-.54a.13.13 0 0 1 .08-.03c.05 0 .08.01.1.05l.02.02a.07.07 0 0 0 .06 0h.03l.83-.68Z" fill="#B15971"/><path d="M28.6 41.39c-.02.15.02.27.07.28.05 0 .1-.12.12-.27 0-.15-.02-.28-.08-.28-.05 0-.1.11-.12.27Z" fill="#030708"/><path d="m25.45 41.9 1.58.61c.1.04.1.08 0 .11a.27.27 0 0 1-.21 0c-.47-.22-.94-.42-1.41-.6.06-.03.07-.07.04-.12ZM27.34 42.5a.33.33 0 0 1-.09-.11c-.02-.05-.01-.07.04-.04.13.07.22.18.26.32.02.08 0 .13-.08.15a.11.11 0 0 1-.1-.01.13.13 0 0 1-.05-.1c0-.04.01-.07.03-.1a.09.09 0 0 0 .02-.06.09.09 0 0 0-.03-.06Z" fill="#B15971"/><defs><linearGradient id="at4530mfh" x1="10.42" y1="9.71" x2="68.15" y2="76.02" gradientUnits="userSpaceOnUse"><stop stop-color="#1A1E21"/><stop offset="1" stop-color="#06060A"/></linearGradient><linearGradient id="bt4530mfh" x1="17.85" y1="29.22" x2="26.07" y2="28.88" gradientUnits="userSpaceOnUse"><stop stop-color="#F9CE7E"/><stop offset="1" stop-color="#F3958C"/></linearGradient></defs></svg>