<svg width="112" height="112" viewBox="0 0 56 56" xmlns="http://www.w3.org/2000/svg"><rect fill="#BE1F3D" width="56" height="56" rx="28"/><path d="M13.34 14.53c2.31.88 2.66 2.41 2.66 13.06s-.22 11.35-2.79 12.7c-.15.1-.21.24-.21.24.14.33 2.68.41 8.47.41 8.05 0 8.96-.06 7.68-.76a4.87 4.87 0 0 1-1.95-1.89c-.73-1.7-.6-19.93.06-21.76.61-1.47.52-1.53 3.02-1.3 5.43.65 7.87 3.65 7.87 9.89 0 4.35-1.1 6.82-3.84 8.94-1.34 1-1.9 2.06-2.2 4.18L31.7 41H44v-3.35c0-3.24-.06-3.3-.98-2.06-.79 1.12-1.46 1.3-4.87 1.3-3.9 0-5.18-.77-2.44-1.42 2.2-.53 5.3-3.23 6.22-5.47 1.28-2.88 1.1-7.76-.43-10.12-3.17-5-5.95-5.94-19.05-5.88-6.47 0-9.97.18-9.11.53Zm9.29 1.53c.18.53.37 5.77.37 11.7 0 8.6-.19 10.89-.86 11.42-1.7 1.35-2.52-1.24-2.52-11.7 0-9.42.75-12.36 2.1-12.36.3 0 .73.41.9.94Z" fill="#fff"/></svg>