<svg width="56" height="56" viewBox="0 0 56 56" xmlns="http://www.w3.org/2000/svg"><rect fill="url(#a)" width="56" height="56" rx="28"/><path d="M23.1 16.52c.15-.55 0-.85-.48-.9-.48-.07-.93.07-1.35.4-.07.05-.07.1-.02.16.13.14.23.3.3.5-.6.23-1.14.54-1.6.94l-1.03.9c-.55.41-1.25.87-1.8 1.42a88 88 0 0 1-2.8 2.65c-.53.48-.64 1.98-.78 2.74-.13-.78-.18-1.8-.13-3.08.02-.65.11-1.21.28-1.67.13-.38.43-.79.9-1.24.44-.4.83-.74 1.2-1 .73-.51 1.1-1 1.9-1.86.7-.8 1.45-1.08 2.54-1.6.37-.18.81-.37 1.32-.56 1.07-.4 2.14-.84 3.19-1.3l1.02-.02c.03 0 .06 0 .08.02l.07.07a.17.17 0 0 1-.02.18c-.61.86-1.55 1.33-2.58 1.81a.36.36 0 0 0-.19.2.38.38 0 0 0 0 .27c.1.26.1.59-.03.97Z" fill="#FD872E"/><path d="m34.04 14.9 1.07.9v.04h-.04l-1.25-.94.63.9c.08.13.06.15-.06.07a2 2 0 0 0-1.55-.32.08.08 0 0 0-.04.02.08.08 0 0 0 .01.12c.92.63 1.28 1.6 1.07 2.9a.16.16 0 0 1-.1.13c-.64.3-1.14.5-1.51.58-1.58.35-3.23.4-4.94.13a4.5 4.5 0 0 0-1.81.2c-.9.26-1.9.54-3 .83-.77.2-1.94.66-3.48 1.34-.44.2-1.02.55-1.23.9-.49.76-.73 1.2-1.28 1.65-.66.52-1.4.86-1.48 2.02-.01.07.03.1.1.1l.7-.12c-.59.33-1.1.35-1.52.06a4.1 4.1 0 0 1 .99-2.85c.73-.9 1.37-1.55 1.92-1.97.55-.4 1.35-.81 2.4-1.2 1.46-.56 2.9-1.06 4.32-1.5.57-.17.93-.55 1.07-1.13.44-.04.73-.3.9-.8 0-.04.02-.05.05 0l.27.49c.04.06.1.1.17.13.38.08 1.02.09 1.33-.2.2-.18.14-.52.02-.74-.17-.31-.75-.54-.93-.72-.12-.12-.1-.25.03-.38l.12-.04a.42.42 0 0 1 .5.1l.34.36.03.03a.07.07 0 0 0 .08-.03l.01-.04c.1-.56-.12-.86-.65-.9-.57-.03-1.3.26-1.03.99.05.15.2.28.43.38l.57.28.09.09c.02.03.03.07.03.12 0 .27-.17.37-.49.29-.07-.02-.16-.1-.27-.24a1.4 1.4 0 0 0-.5-.42.2.2 0 0 1-.12-.15c-.06-.4-.2-.76-.4-1.07l1.88-1.67a.24.24 0 0 1 .2-.06c1.32.17 2.65.3 4 .4.4.03.8.14 1.21.34.39.19.77.39 1.14.6Z" fill="#A22614"/><path d="M33.82 14.9c.43.43.88.83 1.36 1.2.48.4.8.71.94.94.23.39.4.8.53 1.25.02.08.06.12.14.13.98.1 1.63-.29 1.95-1.18.36.3.75.56 1.16.8.7.4 1.29.9 1.78 1.5a5.08 5.08 0 0 1-2.2-1 .26.26 0 0 0-.2-.05.25.25 0 0 0-.17.13c-.71 1.27-1.66 2.4-2.84 3.36a8.5 8.5 0 0 0-2.2-.59c-.32-.04-.62-.14-.92-.3a5.46 5.46 0 0 0-2.82-.62.17.17 0 0 0-.16.11c-.1.22-.04.45.17.7a.83.83 0 0 1-.45.37c-.08.02-.13 0-.14-.1a.22.22 0 0 1 .08-.2c.25-.22.23-.42-.05-.6l-1.02-.63c-.22-.14-.4-.19-.57-.14-.2.07-.37.18-.53.36a.3.3 0 0 0-.05.3c.02.05.05.1.1.13.04.03.09.05.14.05.34.02.62.1.83.22.17.11.18.22 0 .35l-.12.09a.46.46 0 0 1-.56.03l-.71-.43c-.1-.06-.18-.04-.25.06l-.32.48c-.08.13-.13.11-.15-.04l-.18-1.18a.17.17 0 0 0-.07-.11.16.16 0 0 0-.13-.03l-.66.16c-.1.02-.14.09-.12.2l.04.17a.37.37 0 0 1-.1.34.35.35 0 0 1-.32.1c-.3-.07-.37-.29-.66-.4-.35-.16-.67-.16-.95 0-.28.16-.47.25-.56.28-.43.13-.6.14-.84.47-.07.1-.05.14.07.12l.63-.1c.05-.01.08.01.08.08v.12c0 .07-.03.11-.09.14-.23.1-.51.13-.86.08-.4-.06-.82.04-1.24.3-.3.19-.53.18-.8-.06a.2.2 0 0 0-.3.02.23.23 0 0 0-.04.1l-.13.64c-.02.1-.08.14-.18.12a1.81 1.81 0 0 0-.71-.03c-.09.33-.23.64-.42.92a8.45 8.45 0 0 0-.85 1.5c-.13.29-.28.48-.45.58-.25.15-.54.23-.88.24l-.7.12c-.07 0-.11-.02-.1-.1.08-1.16.82-1.5 1.48-2.02.55-.45.8-.9 1.28-1.66.21-.34.8-.7 1.23-.89a26.2 26.2 0 0 1 3.49-1.34c1.09-.29 2.09-.57 2.99-.84a4.5 4.5 0 0 1 1.81-.19c1.71.27 3.36.22 4.94-.13.37-.09.87-.28 1.51-.58a.17.17 0 0 0 .1-.13c.21-1.3-.15-2.27-1.07-2.9a.08.08 0 0 1-.01-.12.08.08 0 0 1 .04-.02 2 2 0 0 1 1.55.32c.12.08.14.06.06-.06l-.63-.9Z" fill="#78160E"/><path d="M34.04 14.9c1.04.17 2.08.6 3.12 1.28.81.52 1.34.88 1.58 1.06-.32.9-.97 1.29-1.95 1.18a.15.15 0 0 1-.14-.13 4.9 4.9 0 0 0-.53-1.25 4.38 4.38 0 0 0-.94-.93c-.48-.38-.93-.78-1.36-1.2l1.25.93h.04v-.04l-1.07-.9Z" fill="#CB3F18"/><path d="M25.6 15.3c.21.3.35.65.4 1.06a.2.2 0 0 0 .12.15c.2.1.38.24.51.42.11.14.2.22.27.24.32.08.49-.02.49-.3a.23.23 0 0 0-.03-.11.22.22 0 0 0-.1-.09 9.96 9.96 0 0 0-.56-.28c-.23-.1-.38-.23-.43-.38-.28-.73.46-1.02 1.03-.99.53.04.75.34.65.9a.08.08 0 0 1-.05.06.07.07 0 0 1-.07-.02l-.35-.35a.42.42 0 0 0-.49-.11l-.12.04c-.14.13-.15.26-.03.38.18.18.76.4.93.71.12.23.18.57-.02.75-.3.29-.96.28-1.33.2a.25.25 0 0 1-.17-.13l-.27-.5c-.03-.04-.04-.03-.06.01-.16.5-.45.76-.9.8-.8-.01-1.33-.37-1.32-1.25 0-.27 0-.54-.02-.8 0-.09.02-.15.07-.21.56-.63 1.18-.7 1.86-.2ZM23.1 16.52a.44.44 0 0 0-.11.26c0 .02 0 .06.03.1a.6.6 0 0 0 .07.11l.64.76c.11.13.09.21-.09.24l-.14.02a.36.36 0 0 1-.33-.1l-.55-.58a.1.1 0 0 0-.09-.03c-.11.02-.17.08-.18.17 0 .04.01.08.03.11.06.1.1.2.13.28v.12a.18.18 0 0 1-.08.1c-.2.12-.38.2-.54.22a.1.1 0 0 1-.09-.02.1.1 0 0 1-.03-.09 3.61 3.61 0 0 0-.22-1.5c-.07-.2-.17-.37-.3-.5-.05-.07-.05-.12.02-.18.42-.32.87-.46 1.35-.4.48.06.63.36.47.91Z" fill="#ECF1EE"/><path d="M41.68 19.54a4.6 4.6 0 0 1 .98 3.44A4.6 4.6 0 0 1 41.02 25c-.38-.5-.77-.85-1.15-1.05-1.2-.64-2.4-1.3-3.6-1.98a11.56 11.56 0 0 0 2.9-3.44.25.25 0 0 1 .31 0c.67.52 1.4.85 2.2 1Z" fill="#551107"/><path d="M30.34 21.28c.41-.22.86-.24 1.36-.05.18.19.39.32.62.4.03 0 .06.03.07.06l.02.06v.03l-.04.03-1.92.3a.07.07 0 0 0-.06.07v.1c0 .03.01.06.04.08a.1.1 0 0 0 .07.04h.48a.53.53 0 0 1 .44.23.57.57 0 0 1 .07.5c-.12.35-.4.45-.83.3l.36-.05a.2.2 0 0 0 .16-.12c.07-.14.05-.3-.04-.45a.28.28 0 0 0-.19-.14l-.73-.16-.07.01a.12.12 0 0 0-.06.05.13.13 0 0 0 .01.14l.42.56-1.75-1.19a.15.15 0 0 0-.18 0 .17.17 0 0 0-.07.17c.12.69.36 1.35.71 1.97a2.07 2.07 0 0 0-1.54.04c-.07.03-.1.08-.06.15l.48 1.21c-.85.75-1.25 1.4-1.11 2.41a.2.2 0 0 1-.07.17.18.18 0 0 1-.18.03 50.6 50.6 0 0 1-2.02-.78 2.63 2.63 0 0 0-1.75-.11c-.24.07-.62.26-1.14.58-.37.23-.76.42-1.17.57.2-.26.27-.53.21-.82-.05-.24-.3-.38-.32-.6 0-.02 0-.04-.02-.05a.06.06 0 0 0-.04-.02h-.07c-.04 0-.07.03-.08.07a1.9 1.9 0 0 1-.2.58c-.27.32-.54.33-.78.03a.18.18 0 0 0-.09-.06.17.17 0 0 0-.1 0c-.09.03-.13.1-.13.2 0 .54.26.75.77.63.07-.02.13 0 .18.06.2.24.38.25.56.03l-.4.54a.3.3 0 0 0-.07.18v1.03c0 .06-.02.12-.05.16a.25.25 0 0 1-.14.1c-.92.21-1.78.17-2.57-.11l1.93.1c.1 0 .16-.05.15-.16a.25.25 0 0 0-.03-.11.4.4 0 0 0-.34-.22l-.9-.09c.75.15 1.13-.1 1.15-.78a.24.24 0 0 0-.1-.2.22.22 0 0 0-.22-.02c-.37.16-.72.25-1.06.27.4-.31.59-.74.57-1.29l-.05-1.47c0-.08-.1-.24-.31-.48a.18.18 0 0 1-.02-.23l.3-.53a.15.15 0 0 1 .13-.08c.5 0 .93-.04 1.3.33l.64.65c.27.28.4.23.4-.17 0-.75.3-1.44.92-2.07a.33.33 0 0 1 .42-.04l1.06.75a.1.1 0 0 1 .05.07l.01.08c.02.08.07.11.14.12h.62c.53-.03.56-.16.08-.4-.18-.1-.38-.18-.6-.27-.46-.18-.48-.38-.06-.61l.59-.32c.06-.03.1-.09.1-.17a.38.38 0 0 0-.01-.2c-.03-.07-.09-.12-.16-.12l-.75-.05a.23.23 0 0 1-.15-.07l-.27-.27c-.06-.07-.12-.07-.17 0-1.1 1.36-2.5 1.6-4.24.72.2-.04.44-.03.71.03.1.02.16-.02.18-.12l.13-.64a.22.22 0 0 1 .14-.16.2.2 0 0 1 .2.04c.27.24.5.25.8.06.42-.26.84-.36 1.24-.3.35.05.63.02.86-.08a.14.14 0 0 0 .1-.14v-.12c0-.07-.04-.1-.1-.08l-.62.1c-.12.02-.14-.02-.07-.12.23-.33.41-.34.84-.47.09-.03.28-.12.56-.28.28-.16.6-.16.95 0 .29.11.36.33.66.4a.34.34 0 0 0 .33-.1.37.37 0 0 0 .09-.34l-.04-.17c-.02-.11.02-.18.12-.2l.66-.16a.16.16 0 0 1 .13.03.17.17 0 0 1 .07.11l.18 1.18c.02.15.07.17.15.04l.32-.48c.07-.1.15-.12.25-.06l.71.43c.2.11.38.1.56-.03l.13-.1c.17-.12.16-.23 0-.34-.22-.13-.5-.2-.84-.22a.27.27 0 0 1-.15-.05.29.29 0 0 1-.1-.29.3.3 0 0 1 .06-.14c.16-.18.33-.3.53-.36.16-.05.35 0 .57.14l1.02.63c.28.18.3.38.05.6a.22.22 0 0 0-.08.2c.02.1.06.12.14.1a.83.83 0 0 0 .45-.37Z" fill="#A9491C"/><path d="M36.27 21.98c1.2.68 2.4 1.34 3.6 1.98.38.2.77.55 1.15 1.05-.14.15-.3.3-.46.44-.1.1-.15.2-.13.28.02.1.1.2.24.29l1.77 4.74c.03.08 0 .13-.07.16-.15.05-.34.08-.57.08-.2 0-.38-.1-.56-.3a2.06 2.06 0 0 1-.38-.56 5.12 5.12 0 0 0-1.56-2.5.1.1 0 0 0-.09.02 3.36 3.36 0 0 1-2 3.1.35.35 0 0 0-.12.14.37.37 0 0 0-.04.2l.11 1.23c.03.44 0 .73-.12.87-.37.47-.66.96-.88 1.45a15.1 15.1 0 0 1-.46 1.6c-.1.3-.13.57-.06.82.05.18-.01.28-.2.31l-1.9.3a.17.17 0 0 0-.15.14c-.36 1.23-1.75.97-2.73.82-.08-.01-.13.02-.16.09-.1.27-.25.5-.45.67.18-.43.26-.94.25-1.55 0-.14-.06-.2-.2-.18l-.34.06a.2.2 0 0 0-.15.1l-.34.5a.3.3 0 0 1-.17.13c-.24.07-.4.14-.51.22a.55.55 0 0 1-.76-.1c-.05-.05-.2-.11-.41-.16-.04 0-.06-.02-.08-.03l-.36-.45a.4.4 0 0 0-.17-.12.36.36 0 0 0-.2-.01.32.32 0 0 0-.24.27l-.04.3-.84-.57a.14.14 0 0 1-.05-.06.14.14 0 0 1 .1-.19c1.03-.24 1.85-.16 2.82-.24.19-.02.63-.1 1.34-.26a7.2 7.2 0 0 1 2.8-.08c.3.05.85.01 1.64-.12a.25.25 0 0 0 .17-.11l.45-.68.54-.57c.2-.45.54-1.13 1.02-2.03.13-.24.15-.55.08-.93-.01-.08-.06-.12-.14-.13-.17-.02-.28-.08-.33-.17a.2.2 0 0 1 .03-.23c.09-.1.14-.15.16-.15.29-.05.3-.13.03-.24-.24-.1-.53-.18-.87-.24a.22.22 0 0 0-.2.07c-.12.12-.2.27-.25.45a.47.47 0 0 1-.26.29c-.45.2-.93.25-1.43.17a1.12 1.12 0 0 1-.81-.6c-.13-.25-.23-.4-.3-.45a.9.9 0 0 0-.55-.16l-.41-.13-.6-.37c-.45-1.26-.2-2.52.74-3.77.9-.15 1.69 0 2.39.44.62.4.92 1.01.91 1.85 0 .08.02.15.07.21a2.65 2.65 0 0 0 2.1 1.2c.08.01.14 0 .19-.06.2-.18.46-.48.77-.89.08-.1.1-.16.1-.2a.45.45 0 0 0-.16-.23.17.17 0 0 0-.2-.02c-.2.13-.38.3-.53.53a.25.25 0 0 1-.16.11.24.24 0 0 1-.18-.04c-.47-.32-.8-.77-.99-1.35a.22.22 0 0 1 .01-.16.2.2 0 0 1 .12-.1c.68-.25 1.59-.56 2.12-.24a.15.15 0 0 0 .12.01.15.15 0 0 0 .1-.08c.42-.9.46-1.9.11-3-.04-.13-.23-.23-.55-.27-.08-.01-.13.02-.16.1l-.08.17c-.22.39-.33.35-.34-.1a3 3 0 0 0-.15-.7l-.36-.49a3.8 3.8 0 0 0-1.5-1.2c-.35 0-.69.07-1.03-.04-.39-.13-.68-.2-.88-.23a.26.26 0 0 1-.12-.05c-.24-.19-.29-.44-.58-.6-.2-.11-.42-.19-.65-.22-.5-.19-.95-.17-1.36.05-.21-.25-.27-.48-.17-.7.03-.07.08-.1.16-.1 1-.05 1.95.16 2.82.62.3.15.6.25.91.29.77.1 1.5.3 2.21.59Z" fill="#301004"/><path d="M34.96 22.38c.13.14.22.3.26.48.17.78-.94.91-1.33 1.15-.44.27-.64.79-.82 1.19-.07.14-.22.3-.45.48-.49.38-.96.78-1.41 1.2-.94 1.25-1.19 2.5-.74 3.77l-.7-.04c-.09 0-.13-.05-.15-.13l-.14-.63a.34.34 0 0 0-.13-.2.33.33 0 0 0-.24-.06 6.73 6.73 0 0 1-2.8-.22.2.2 0 0 0-.1.04c-.17.14-.28.32-.34.55-.2.2-.37.42-.53.67a2 2 0 0 0-.14.31.52.52 0 0 1-.22.28c-.41.24-.8.5-1.19.8-.12.1-.27.19-.46.27l-.48.25a.27.27 0 0 0-.14.17c-.15.47-.5.7-1.03.73a.4.4 0 0 0-.2.06c-.33.21-.7.3-1.1.28.37-.94 1.1-1.56 1.73-2.26a.92.92 0 0 1 .44-.28l1.56-.45c1.1-.5.57-1.3.14-2-.43-.7-1.28-.63-1.86-.18-.25.2-.5.41-.72.66a6.34 6.34 0 0 1-2.14 1.8.23.23 0 0 0-.11.1.24.24 0 0 0-.01.16c.23.85.43 1.8.98 2.45-.37.33-.46.75-.27 1.25a1.5 1.5 0 0 1-.28-.48.42.42 0 0 0-.12-.18.4.4 0 0 0-.39-.1.4.4 0 0 0-.18.12c-.52.54-.62 1.26-.88 2.29-.02.1-.12.26-.29.44-.09.1-.24.17-.44.2-.4.05-.78.24-1.18.57-.4.34-.7.34-1.1.02-.02-.02-.03-.02-.05 0l-.05.08a.15.15 0 0 0 0 .18l1.74 2.58c-.54-.06-1.18-.2-1.69-.11-.54.1-.97-.23-1.35-.63-.33-.35-1.07-.41-1.58-.46a.17.17 0 0 1-.15-.11c-.1-.27-.05-.56.14-.87l1.07-.45a.28.28 0 0 0 .17-.16l.26-.68c.03-.07.09-.1.16-.1h1.42c.09 0 .16-.04.21-.12l1.02-1.36a.28.28 0 0 0 .05-.2c-.1-.92-.13-1.46-.12-1.62.04-.43.33-.87.85-1.32a.19.19 0 0 0 .05-.07.2.2 0 0 0 .01-.08v-1.27a.15.15 0 0 0-.04-.1.14.14 0 0 0-.1-.05h-.12c-.09 0-.13.05-.14.13-.05.6-.22 1.14-.52 1.6-.14.23-.23.2-.25-.06l-.14-1.43.09-.24c.12-.22.22-.46.29-.7.09-.34.2-.56.3-.68.3-.3.67-.43 1.12-.38.34-.02.69-.1 1.06-.27a.22.22 0 0 1 .22.02.23.23 0 0 1 .1.2c-.02.67-.4.93-1.16.78-.2 0-.4.01-.6.05-.18.03-.24.17-.2.43.8.28 1.65.32 2.57.1.05 0 .1-.04.14-.09.03-.04.05-.1.05-.16v-1.03a.3.3 0 0 1 .06-.18l.4-.54.12-.05c.41-.15.8-.34 1.17-.57.52-.32.9-.51 1.14-.58a2.63 2.63 0 0 1 1.75.11 50.75 50.75 0 0 0 2.12.8l.08-.05a.19.19 0 0 0 .05-.07c.02-.03.02-.07.02-.1-.14-1.02.26-1.66 1.1-2.4l1.13-1.41a6.06 6.06 0 0 1-.7-2.07.16.16 0 0 1 .06-.07.15.15 0 0 1 .18 0l1.75 1.2.14.15c.44.15.71.05.83-.3a.57.57 0 0 0-.07-.5.54.54 0 0 0-.44-.23h-.48a.1.1 0 0 1-.07-.04.12.12 0 0 1-.04-.08v-.1a.07.07 0 0 1 .06-.07l1.92-.3.03-.02.01-.04c0-.02 0-.04-.02-.06a.12.12 0 0 0-.07-.07c-.23-.07-.44-.2-.62-.39.23.03.45.1.65.22.29.16.34.41.58.6.04.03.08.05.12.05.2.03.5.1.88.23.34.11.68.03 1.03.05Z" fill="#7A2D13"/><path d="M17.91 29.23c-.45-.05-.82.08-1.11.38a1.6 1.6 0 0 0-.31.67c-.07.25-.17.49-.3.71.15-.62.2-1.24.15-1.85-.03-.33.05-.48.14-.76a.1.1 0 0 0-.03-.1.09.09 0 0 0-.1-.01c-.69.32-1.08 1.5-1.15 2.19-.06.6-.68.73-1.17.77a.4.4 0 0 0-.21.08.42.42 0 0 0-.14.18c-.16.41-.2.76-.46 1.19-.3.48-.62.96-.94 1.43-.4-.34-.63-.78-.67-1.32 0-.07-.03-.08-.09-.03-.75.7-1.5 1.17-1.98 2.22L9 32.87a4.91 4.91 0 0 1 .71-2.83c.4-.6.8-1.34 1.2-2.2.56-1.13 2.06-.57 2.76-1.47.24-.04.46-.02.66.04.43.29.93.27 1.52-.06.34 0 .63-.09.88-.24.17-.1.32-.3.45-.57l.32-.68c.07-.14.24-.42.53-.83.2-.28.33-.59.42-.92 1.73.88 3.14.64 4.24-.71.05-.08.1-.08.17-.01l.27.27c.04.04.09.07.15.07l.75.05c.07 0 .13.05.16.12.02.07.02.13.01.2 0 .08-.04.14-.1.17l-.6.32c-.41.23-.4.43.06.6l.61.28c.48.24.45.37-.08.4h-.62c-.07 0-.12-.04-.14-.12l-.01-.08a.1.1 0 0 0-.05-.07l-1.06-.74a.33.33 0 0 0-.42.03 2.84 2.84 0 0 0-.92 2.07c0 .4-.13.45-.4.17a40 40 0 0 0-.65-.65c-.36-.37-.78-.32-1.3-.33a.15.15 0 0 0-.12.08l-.3.53a.18.18 0 0 0 .02.23c.2.24.31.4.31.48l.05 1.47c.02.55-.17.98-.57 1.3Z" fill="#CC642B"/><path d="M36.46 23.57c-.17-.15-.3-.24-.37-.27-.11-.05-.2-.03-.28.06a.2.2 0 0 0-.02.2 2.77 2.77 0 0 1-.02 2.42.1.1 0 0 0 .1.1c.51.03.89-.08 1.12-.31a.25.25 0 0 0 .07-.21l-.24-1.5c.1.3.14.54.15.7 0 .45.12.49.34.1l.08-.18c.03-.07.08-.1.16-.1.32.05.5.15.55.29a3.95 3.95 0 0 1-.15 3.04.15.15 0 0 1-.18.02c-.53-.32-1.44-.01-2.12.23a.2.2 0 0 0-.12.1.22.22 0 0 0 0 .17c.18.58.5 1.03.98 1.35a.24.24 0 0 0 .34-.07c.15-.23.32-.4.52-.52a.17.17 0 0 1 .2.01c.1.08.15.15.17.22 0 .05-.02.12-.1.21-.31.4-.57.7-.77.9a.23.23 0 0 1-.18.06 2.65 2.65 0 0 1-2.11-1.2.38.38 0 0 1-.07-.22c.01-.84-.29-1.45-.91-1.85-.7-.45-1.5-.6-2.4-.44.46-.42.93-.82 1.42-1.2.23-.17.38-.34.45-.48.18-.4.38-.92.82-1.19.39-.24 1.5-.37 1.33-1.15a1.09 1.09 0 0 0-.26-.48c.6.27 1.1.66 1.5 1.2Z" fill="#60230D"/><path d="m30.66 23.43-.14-.16-.42-.56a.13.13 0 0 1 .05-.19.12.12 0 0 1 .07 0l.73.15c.08.02.15.07.19.14.1.16.1.3.04.45a.2.2 0 0 1-.16.12l-.36.05Z" fill="#CC642B"/><path d="m36.46 23.57.36.48.24 1.5a.25.25 0 0 1-.07.21c-.23.24-.6.35-1.12.32a.1.1 0 0 1-.09-.05.1.1 0 0 1 0-.1c.36-.73.36-1.52 0-2.37a.2.2 0 0 1 .03-.2c.07-.09.17-.11.28-.06.08.03.2.12.37.27Z" fill="#7A2D13"/><path d="m29.23 24.22-1.12 1.4-.48-1.2c-.03-.08-.01-.13.06-.16a2.07 2.07 0 0 1 1.54-.04Z" fill="#CC642B"/><path d="M44.85 29.19c.06.21.24.45.54.7.12.1.27.31.44.63.1.18.14.41.12.69-.06.63-.05 1.07.03 1.32.19.57.34 1.15.45 1.74.01.07 0 .14-.04.2-.17.29-.22.62-.16 1-.18.24-.4.42-.67.55-.22.1-.33.2-.32.28 0 .15.08.3.2.45.07.08.08.16.03.26l-.74 1.46a.97.97 0 0 1-.16.17l-1 .92c-.07.07-.12.11-.15.12-.61.13-1.27.42-1.97.84-.4.26-.8.41-1.16.47-.64.11-1.36.08-2.18-.07-.12-.03-.4.02-.83.14-.72.2-1.26.01-1.63-.56a.47.47 0 0 0-.14-.15c-.41-.26-.58-.57-.51-.92.06-.32 0-.36-.22-.12a8.23 8.23 0 0 1-5.46 2.65c-1.27.1-2.53.02-3.77-.21-2-.4-3.94-1.31-4.92-3.27a.84.84 0 0 0-.2-.62.31.31 0 0 0-.25-.11.3.3 0 0 0-.24.14l-.7 1.05c-.04.07-.1.11-.17.13-.74.14-1.13.6-1.2 1.37a1.7 1.7 0 0 1-.97.3l-1.74-2.57a.15.15 0 0 1 0-.18l.05-.07c.02-.03.03-.03.05-.01.4.32.7.32 1.1-.02.4-.33.79-.52 1.18-.58.2-.03.35-.09.44-.2.17-.17.27-.32.3-.43.25-1.03.35-1.75.87-2.3a.4.4 0 0 1 .39-.11.4.4 0 0 1 .18.1c.05.05.1.11.12.18.04.15.14.3.28.48l1.07 1.1a7.1 7.1 0 0 0 1.8 1.3c.24.14.44.2.62.21.06 0 .1-.03.1-.08l.12-1.16a.2.2 0 0 1 .03-.09.2.2 0 0 1 .07-.06.18.18 0 0 1 .18 0c.81.52 1.9.83 2.73.19.05-.05.06-.1.03-.16a1.77 1.77 0 0 1-.26-.57c-.03-.16-.11-.4-.26-.72-.2-.48-.11-.94.28-1.39.23-.25.5-.41.81-.5.67.05 1.33.12 1.98.23.75.13 1.32.52 1.96.7.35.1.91.1 1.67 0 .08 0 .13.02.17.1.3.57.42 1.2.36 1.9 0 .08.03.12.12.11l1.06-.07-.45.68c-.04.06-.1.1-.17.11-.79.13-1.33.17-1.64.12a7.2 7.2 0 0 0-2.8.08 14 14 0 0 1-1.34.26c-.97.08-1.79 0-2.82.24a.14.14 0 0 0-.05.25l.84.57c.07.6.29 1.11.65 1.54.21.25.49.41.83.47.35.06.68.07 1 .02.6-.09 1.02-.42 1.24-1.01.2-.17.35-.4.45-.67.03-.07.08-.1.16-.09.98.15 2.37.41 2.73-.82a.17.17 0 0 1 .15-.13l1.9-.31c.19-.03.25-.13.2-.31-.07-.25-.05-.52.06-.82.18-.52.34-1.05.46-1.6.76.5 1.21 1.2 1.36 2.1 0 .07.04.12.1.14h.07c.08 0 .13-.04.16-.11.1-.3.3-.4.6-.32.05.02.11.01.16-.03.55-.51.81-1.28.77-2.31a9.37 9.37 0 0 0-.55-3.15.22.22 0 0 0-.17-.14l-.1-.02c-.08-.01-.11.03-.1.11l.19.83c.02.1-.02.14-.11.11l-1.11-.24c-.1-.02-.15.02-.16.11l-.1.6-.12-1.24c0-.07 0-.13.04-.2a.35.35 0 0 1 .12-.14c.38-.25.7-.58.97-.99a10.23 10.23 0 0 0 1.03-2.1.1.1 0 0 1 .09-.02 5.12 5.12 0 0 1 1.56 2.5c.02.1.15.28.38.56.18.2.37.3.56.3.23 0 .42-.03.57-.08.08-.03.1-.08.07-.16l-1.77-4.74c.25.12.5.22.78.31.28.1.53.23.72.4.94.8 1.83 1.62 2.68 2.46Z" fill="#60230D"/><path d="m20.67 28.49-.11.05c-.18.22-.37.2-.56-.03a.17.17 0 0 0-.18-.06c-.5.12-.77-.1-.77-.63 0-.1.04-.17.13-.2h.1c.04.01.06.03.09.06.24.3.5.3.79-.03.05-.05.1-.25.19-.58 0-.04.04-.07.08-.07h.07c.02 0 .03 0 .04.02l.02.04c.02.23.27.37.32.61.06.29 0 .56-.2.82ZM16.2 30.99l-.1.24c-.27.54-.53 1.09-.78 1.64-.18.44-.42.77-.68 1.17a.35.35 0 0 0-.06.21c.04.7.27 1.27.7 1.7a.24.24 0 0 1 .08.17.25.25 0 0 1-.07.18l-.52.53a.2.2 0 0 1-.2.05.2.2 0 0 1-.09-.06.2.2 0 0 1-.04-.1l-.06-.37c-.01-.1-.06-.12-.15-.08l-.4.2c-.43.23-.51.13-.27-.29.14-.23.29-.44.44-.63.14-.18.2-.38.16-.62l-.04-.26c-.03-.2-.12-.23-.26-.09l-1.1 1.14a.26.26 0 0 1-.4-.04.27.27 0 0 1-.04-.14l-.04-1.43.94-1.43c.26-.43.3-.78.46-1.19a.42.42 0 0 1 .14-.18.4.4 0 0 1 .21-.08c.5-.04 1.11-.17 1.17-.77.07-.7.46-1.87 1.16-2.2a.09.09 0 0 1 .1.02.1.1 0 0 1 .03.1c-.1.28-.18.43-.15.76.05.6 0 1.23-.14 1.85Z" fill="#D87231"/><path d="m24.1 30.79-1.23.29a.57.57 0 0 1-.35-.03.6.6 0 0 1-.28-.24c-.25-.4-.44-.92-.57-1.54.23-.25.47-.47.72-.66.58-.45 1.43-.53 1.86.18.43.7.96 1.5-.14 2Z" fill="#130D09"/><path d="M46.23 35.47c-.06-.38 0-.71.16-1a.29.29 0 0 0 .04-.2c-.11-.59-.26-1.17-.45-1.74-.08-.25-.09-.69-.03-1.32a1.2 1.2 0 0 0-.12-.7 2.45 2.45 0 0 0-.44-.62 1.7 1.7 0 0 1-.54-.7c.2.2.4.38.62.55.28.22.47.4.59.57.4.58.71 1.2.92 1.87.03.07.03.14 0 .22-.18.64-.2 1.19-.04 1.65a.17.17 0 0 1-.07.2l-.41.28a.23.23 0 0 0-.1.16l-.13.78Z" fill="#A9491C"/><path d="M21.67 29.27c.13.62.32 1.14.57 1.54.07.11.17.2.28.24.11.05.23.06.35.03l1.24-.29-1.56.45a.92.92 0 0 0-.44.28c-.62.7-1.36 1.32-1.72 2.26-.55-.66-.75-1.6-.98-2.45a.24.24 0 0 1 0-.15.23.23 0 0 1 .12-.12 6.34 6.34 0 0 0 2.14-1.79Z" fill="#301004"/><path d="m30.47 30.65.6.37-1.5-.26a.35.35 0 0 1-.19-.09c-.21-.2-.46-.33-.75-.4-1.18-.25-1.7-.3-2.3-.58a.17.17 0 0 0-.2.04l-.26.23c.06-.23.17-.4.34-.55a.2.2 0 0 1 .2-.04c.89.26 1.79.33 2.7.22.09-.01.17 0 .24.06.06.05.11.12.13.2l.14.63c.02.08.06.12.14.13l.71.04Z" fill="#A9491C"/><path d="m31.07 31.02.41.13.31 1.48c.02.09-.02.14-.1.15l-.43.07a.2.2 0 0 1-.11-.02.2.2 0 0 1-.1-.08l-.2-.38-.95-.2a.28.28 0 0 0-.2.04l-1.03.61a.22.22 0 0 1-.28-.06l-.4-.52a.26.26 0 0 0-.17-.1 6.1 6.1 0 0 0-4.45.88.3.3 0 0 0-.13.34c.33 1.14-.46 2.05-1.07 2.93a.2.2 0 0 1-.17.08c-.25-.01-.52-.1-.81-.24l-1.07-1.1c-.19-.5-.1-.92.27-1.25.4.03.76-.07 1.1-.28a.4.4 0 0 1 .2-.06c.53-.02.87-.26 1.02-.73a.27.27 0 0 1 .14-.17l.48-.25c.19-.08.34-.17.46-.27.38-.3.78-.56 1.19-.8.1-.05.17-.15.22-.28a2 2 0 0 1 .14-.31c.16-.25.33-.47.53-.67l.26-.23a.17.17 0 0 1 .2-.04c.6.28 1.12.33 2.3.59.29.06.54.2.75.4.05.04.11.07.18.08l1.51.26Z" fill="#F9B274"/><path d="m18.13 29.96.91.1a.4.4 0 0 1 .34.21c.02.03.03.07.03.1 0 .12-.04.17-.15.17l-1.93-.1c-.04-.26.02-.4.2-.43.2-.04.4-.05.6-.05Z" fill="#D87231"/><path d="M36.16 34.65c.22-.5.52-.98.88-1.45.11-.14.15-.43.12-.87l.1-.6c.02-.1.08-.13.17-.1l1.11.23c.1.03.13-.01.1-.11l-.17-.83c-.02-.08.01-.12.1-.1h.1c.07.02.13.07.16.15.31.73.5 1.78.55 3.15.04 1.03-.22 1.8-.77 2.3a.16.16 0 0 1-.17.04c-.29-.09-.48.02-.59.32-.03.07-.08.11-.16.12l-.06-.01a.15.15 0 0 1-.11-.13c-.15-.9-.6-1.6-1.36-2.11ZM12.27 38.57c-.78-.29-1.23-.69-1.33-1.2l-.22-1.01a.42.42 0 0 0-.06-.13.15.15 0 0 0-.07-.06l-.3-.08a.27.27 0 0 1-.16-.12l-.59-.99c.47-1.05 1.23-1.51 1.98-2.22.06-.05.08-.04.09.03.04.54.27.98.67 1.32l.04 1.43c0 .05.02.1.04.14.03.05.07.08.12.1a.25.25 0 0 0 .28-.06l1.1-1.14c.14-.14.23-.11.26.1l.04.25a.76.76 0 0 1-.16.62c-.15.19-.3.4-.44.63-.24.42-.16.52.26.3l.41-.21c.09-.04.14-.02.15.08l.06.37c0 .04.02.07.04.1a.19.19 0 0 0 .29.01l.52-.53a.24.24 0 0 0 0-.35c-.44-.43-.67-1-.7-1.7-.01-.07 0-.14.05-.2.26-.41.5-.74.68-1.18a26 26 0 0 1 .79-1.64l.14 1.43c.02.26.1.29.25.07.3-.47.47-1 .52-1.61 0-.09.05-.13.14-.13h.12c.04 0 .07.02.1.05.03.02.04.06.04.1v1.27a.2.2 0 0 1-.01.08.19.19 0 0 1-.05.07c-.52.45-.8.9-.85 1.32-.01.16.03.7.12 1.62.01.08 0 .14-.05.2l-1.02 1.36a.25.25 0 0 1-.2.11h-1.43c-.07 0-.13.04-.16.11l-.26.68a.28.28 0 0 1-.17.16l-1.07.45ZM33.14 32.36l.86.27c.07.02.12.06.14.13l1.16 2.74-.54.57-1.06.07c-.09 0-.12-.03-.12-.11a3.48 3.48 0 0 0-.36-1.9c-.04-.08-.1-.1-.17-.1-.76.1-1.32.1-1.67 0-.64-.18-1.21-.57-1.96-.7-.65-.1-1.3-.18-1.98-.22.37-.04.74-.06 1.12-.04.3 0 .54-.04.7-.14.23-.14.44-.29.63-.45a.3.3 0 0 1 .19-.08l.77-.03.2.38a.2.2 0 0 0 .1.08.2.2 0 0 0 .11.02l.43-.07c.08 0 .12-.06.1-.15l-.31-1.48c.2 0 .39.05.55.16.07.05.17.2.3.45.15.31.43.51.8.6Z" fill="#A9491C"/><path d="m35.3 35.5-1.16-2.74a.23.23 0 0 0-.14-.13l-.86-.27c.5.08.98.03 1.43-.17a.45.45 0 0 0 .26-.3c.05-.17.13-.32.25-.44a.22.22 0 0 1 .2-.07c.34.06.63.13.87.24.27.11.26.2-.03.24-.02 0-.07.05-.16.15a.2.2 0 0 0-.03.23c.05.09.16.15.33.17.08 0 .13.05.14.13.07.38.05.7-.08.93a33 33 0 0 0-1.02 2.03Z" fill="#7A2D13"/><path d="m30.85 32.37-.77.03a.3.3 0 0 0-.2.08c-.18.16-.4.31-.62.45-.16.1-.4.15-.7.14-.38-.02-.75 0-1.12.04-.31.08-.58.24-.8.5-.4.44-.5.9-.29 1.38.15.32.23.56.26.72.03.15.11.35.26.57.03.06.02.11-.03.16-.82.64-1.92.33-2.73-.18a.17.17 0 0 0-.18-.01.19.19 0 0 0-.07.06.2.2 0 0 0-.03.1l-.12 1.15c0 .05-.04.08-.1.08-.18 0-.38-.07-.63-.2a7.11 7.11 0 0 1-1.8-1.31c.3.15.57.23.82.24a.2.2 0 0 0 .18-.08c.6-.88 1.4-1.8 1.07-2.93a.3.3 0 0 1 .12-.34 6.1 6.1 0 0 1 4.45-.89c.06.02.12.05.16.1l.4.53c.04.05.09.08.14.09.05 0 .1 0 .15-.03l1.03-.6a.28.28 0 0 1 .2-.04l.95.2Z" fill="#CC642B"/><path d="M30.05 39.4c-.22.59-.64.92-1.24 1.01-.32.05-.65.04-1-.02a1.35 1.35 0 0 1-.83-.47 2.85 2.85 0 0 1-.65-1.54l.04-.3a.32.32 0 0 1 .24-.27.36.36 0 0 1 .2.01.4.4 0 0 1 .17.12l.36.45.08.03c.22.05.36.1.4.17.1.1.23.18.37.2.14.01.28-.03.4-.11.1-.08.27-.15.5-.22a.3.3 0 0 0 .18-.12l.34-.51a.2.2 0 0 1 .15-.1l.34-.06c.14-.02.2.04.2.18.01.6-.07 1.12-.25 1.55Z" fill="#7E2B26"/><path d="M20.63 38.48c-.41.28-.78.62-1.1 1.03-.22.27-.45.46-.68.57-.32.14-.64.26-.97.36.06-.77.45-1.23 1.19-1.37a.27.27 0 0 0 .18-.13l.7-1.05a.31.31 0 0 1 .23-.14.3.3 0 0 1 .25.1c.15.19.22.4.2.63Z" fill="#A22614"/><path d="M29.35 16.5c-.1.23-.24.41-.42.57a.33.33 0 0 0-.1.19l-.1.5c-.03.1-.08.13-.16.08l-.47-.28c-.07-.04-.08-.1-.04-.17l1.22-1.85a.25.25 0 0 1 .12-.1.24.24 0 0 1 .27.06c.03.04.06.08.07.13l.51 2.35c.03.13-.01.18-.14.15l-.25-.06c-.15-.03-.23-.12-.25-.27l-.2-1.28c0-.09-.03-.09-.06-.01Z" fill="#ECF1EE"/><path d="M25.12 17.08a4.68 4.68 0 0 1-.23.21.25.25 0 0 1-.23-.02.26.26 0 0 1-.08-.1c-.43-.75-.43-1.27 0-1.57.18-.12.34-.16.5-.1.11.05.22.22.3.51.13.38.04.74-.26 1.07Z" fill="#A22614"/><path d="M22.08 16.39c-.05.2.03.4.18.44.15.04.31-.09.36-.3.05-.2-.03-.39-.18-.43-.15-.04-.31.09-.36.29Z" fill="#A9491C"/><path d="m24.3 26.18-.88.14a.1.1 0 0 1-.07 0 .11.11 0 0 1-.04-.05.12.12 0 0 1 0-.13c.24-.29.5-.42.8-.39.14.02.22.1.24.24l.01.09c.01.06-.01.1-.07.1Z" fill="#D87231"/><path d="M25.5 27c.16.1.34.1.4-.01.05-.1-.03-.27-.2-.37-.16-.1-.34-.1-.4 0s.03.27.2.37Z" fill="#FD872E"/><path d="m18.05 28-.57.33a.18.18 0 0 1-.25-.06.2.2 0 0 1-.02-.1v-.94a.2.2 0 0 1 .03-.11.2.2 0 0 1 .1-.08.2.2 0 0 1 .21.05l.54.56a.23.23 0 0 1 .06.18.23.23 0 0 1-.1.17Z" fill="#F9B274"/><path d="M41.16 33.38c-.28.69.19 1.3.31 1.92.05.24-.02.29-.2.13-.55-.46-.6-1.2-.84-2.1l.01-.1a.14.14 0 0 1 .08-.07.99.99 0 0 1 .56.05c.1.03.12.08.08.17Z" fill="#A9491C"/><path d="M27.26 34.17c.29-.09.5-.26.46-.39-.04-.12-.3-.16-.59-.07-.28.08-.48.26-.45.38.04.13.3.17.58.08Z" fill="#9A9A9A"/><path d="M29.78 35.03a.3.3 0 0 1 0 .42l-.63.66a.24.24 0 0 1-.23.06.24.24 0 0 1-.1-.05.25.25 0 0 1-.07-.1l-.2-.66a1.07 1.07 0 0 1-.03-.61c.06-.16.2-.31.42-.45.05-.04.1-.03.14.01l.7.72ZM27.05 34.5c.23-.06.43.05.62.35a.23.23 0 0 1-.01.26.72.72 0 0 1-.37.28.7.7 0 0 1-.46-.05.22.22 0 0 1-.1-.08.23.23 0 0 1-.04-.14c.02-.34.14-.55.36-.61Z" fill="#130D09"/><defs><linearGradient id="a" x1="28" y1="0" x2="28" y2="56" gradientUnits="userSpaceOnUse"><stop offset=".41" stop-color="#EF4F24"/><stop offset=".72" stop-color="#F6921D"/></linearGradient></defs></svg>