<svg width="56" height="56" viewBox="0 0 56 56" xmlns="http://www.w3.org/2000/svg"><rect fill="#7808FE" width="56" height="56" rx="28"/><circle cx="28" cy="28" r="15.75" fill="url(#axkrkfg51)"/><path fill-rule="evenodd" d="M26.93 41.82c7.06 0 12.81-5.79 12.81-12.96 0-7.18-5.75-12.97-12.81-12.97a12.89 12.89 0 0 0-12.81 12.97c0 7.17 5.75 12.96 12.8 12.96Zm0 1.87c8.1 0 14.68-6.64 14.68-14.83 0-8.2-6.57-14.84-14.68-14.84s-14.68 6.64-14.68 14.84c0 8.19 6.57 14.83 14.68 14.83Z" fill="url(#bxkrkfg51)"/><path fill-rule="evenodd" d="M28 45a17 17 0 1 0 0-34 17 17 0 0 0 0 34Zm0-4a13 13 0 1 0 0-26 13 13 0 0 0 0 26Z" fill="url(#cxkrkfg51)"/><path d="m21.44 43.69 3.17-3.14a13 13 0 0 1-6.08-3.64l-2.83 2.82a17.03 17.03 0 0 0 5.74 3.96Zm-6.67-5.01 2.86-2.84a12.96 12.96 0 0 1-2.03-3.93l-3.1 3.1a17 17 0 0 0 2.27 3.67Zm20.18-26.2-3.09 3.1c1.48.46 2.84 1.17 4.03 2.09l2.86-2.84a17 17 0 0 0-3.8-2.35Zm8.8 9.12a17.03 17.03 0 0 0-4-5.88l-2.83 2.83a12.99 12.99 0 0 1 3.67 6.18l3.16-3.13Z" fill="url(#dxkrkfg51)"/><path d="M21.61 26.23v9.99c0 .48.49.8.94.63l10.7-4.28c.26-.1.42-.35.42-.63v-9.99a.68.68 0 0 0-.92-.63L22.04 25.6a.68.68 0 0 0-.43.63Z" fill="#FC5C09"/><path d="M22 25.08V35.3c0 .5.48.83.93.65l10.64-4.38a.7.7 0 0 0 .43-.65V20.7c0-.5-.48-.83-.92-.65l-10.66 4.38a.7.7 0 0 0-.42.65Z" fill="url(#exkrkfg51)"/><defs><linearGradient id="axkrkfg51" x1="35.83" y1="16.23" x2="28" y2="43.75" gradientUnits="userSpaceOnUse"><stop stop-color="#FC5407"/><stop offset=".29" stop-color="#FF9319"/><stop offset=".9" stop-color="#FF6400"/></linearGradient><linearGradient id="bxkrkfg51" x1="32.65" y1="16.74" x2="26.93" y2="43.69" gradientUnits="userSpaceOnUse"><stop stop-color="#FC5006"/><stop offset="1" stop-color="#FC5006" stop-opacity="0"/></linearGradient><linearGradient id="cxkrkfg51" x1="37.99" y1="15.64" x2="17.19" y2="43.21" gradientUnits="userSpaceOnUse"><stop stop-color="#FFE64C"/><stop offset="1" stop-color="#FFB403"/></linearGradient><linearGradient id="dxkrkfg51" x1="33.06" y1="19.21" x2="5.36" y2="45.95" gradientUnits="userSpaceOnUse"><stop stop-color="#FFEA86"/><stop offset="1" stop-color="#FFEA86" stop-opacity="0"/></linearGradient><linearGradient id="exkrkfg51" x1="32.19" y1="21.67" x2="22.63" y2="33.91" gradientUnits="userSpaceOnUse"><stop stop-color="#FFE049"/><stop offset="1" stop-color="#FFB504"/></linearGradient></defs></svg>