<svg width="56" height="56" viewBox="0 0 56 56" xmlns="http://www.w3.org/2000/svg"><rect fill="#F0F3FA" width="56" height="56" rx="28"/><path fill-rule="evenodd" d="M33.84 15.34a14.04 14.04 0 0 1 5.97 5.1c-.6.57-.94 1.24-1 2.01a2.88 2.88 0 0 0 2.94 3.15c.07 0 .11.03.12.1l.2 1.75c.05 1.69-.2 3.32-.75 4.9-1.54 4.17-4.9 7.1-9.05 8.57a19.4 19.4 0 0 1-12.99.05c-.66-.24-1.25-.51-1.76-.81-.33-.2-.36-.15-.1.12 2.1 2.2 4.97 3.3 7.98 3.59l1.3.13h2.27a16.41 16.41 0 0 0 8.36-3A15.99 15.99 0 1 0 12 27.47c-.08 2.06.27 4.03 1.05 5.9.77 1.85 1.9 3.33 3.4 4.45a8.68 8.68 0 0 0 5.91 1.64c2.45-.15 4.69-.99 6.98-2.09 1.2-.57 2.28-1.33 3.24-2.27 2.08-2 3.33-4.47 3.75-7.44.13-.85.17-1.76.13-2.72 0-.05-.03-.1-.08-.13l-8.17-5.58c-.05-.03-.1-.03-.14 0l-8.19 5.6a.15.15 0 0 0-.07.13v1.35a12.8 12.8 0 0 0 4.55 9.4.2.2 0 0 0 .19.04l2.11-.82c.04-.01.05-.03.06-.04v-.02l-.02-.02-.02-.02a10.68 10.68 0 0 1-4.76-8.85l6.11-4.17a.17.17 0 0 1 .21 0l6.05 4.13c.05.04.07.08.06.14l-.2 1.88a10.3 10.3 0 0 1-2.9 5.54c-.56.55-1.32 1.09-2.28 1.6-2.37 1.43-5.16 2.42-7.95 2.25-1.03-.06-2-.38-2.94-.97a7.69 7.69 0 0 1-2.83-3.27l-.66-1.67a.15.15 0 0 1 .05-.17c1.01-.88.78-2.4-.47-2.93a.12.12 0 0 1-.08-.1v-.12c0-1.95.4-3.82 1.16-5.6a.19.19 0 0 1 .1-.1.19.19 0 0 1 .21.03.3.3 0 0 0 .1.07h.03c1.74.41 3.2-.05 4.37-1.4.98-1.34 1.09-2.88.31-4.64a.07.07 0 0 1 0-.06h.01v-.01l.02-.01a13.78 13.78 0 0 1 10.36-2.02c1.08.21 2.1.53 3.07.97Zm-14.5 5.59c1.07-1.26 1.23-2.6.48-4.03a.1.1 0 0 0-.03-.03l-.01-.01h-.04l-.03.02a14.32 14.32 0 0 0-3.7 4.13l-.35.6a.15.15 0 0 0 .08.22c1.4.38 2.6.08 3.6-.9Zm20.72.2c-1.33 1.53-.38 3.63 1.59 3.83.05 0 .07-.02.06-.07a15 15 0 0 0-1.5-3.77.11.11 0 0 0-.15.02Zm-25.91 8.04.19 1.32a.02.02 0 0 0 .01.02h.02c.08-.02.16-.1.2-.23.04-.13.05-.3.03-.48l-.01-.04a1.26 1.26 0 0 0-.12-.38.77.77 0 0 0-.04-.07.44.44 0 0 0-.13-.13.2.2 0 0 0-.13-.03h-.02v.02Z" fill="url(#apq0n4olg)"/><path fill-rule="evenodd" d="M39.22 30.72a1.52 1.52 0 0 1 1.04 1.62 1.5 1.5 0 0 1-1.14 1.28 1.53 1.53 0 0 1-1.89-1.4 1.5 1.5 0 0 1 .84-1.42c.36-.18.77-.2 1.15-.08Zm-.7 2.25c-.57-.22-.75-.6-.57-1.17.38-.61 1.18-.7 1.56-.06.19.4.1.76-.24 1.05-.24.22-.5.28-.76.18Z" fill="url(#bpq0n4olg)"/><path d="m28.1 33.24.33-1.7a.05.05 0 0 1 .05-.05.06.06 0 0 1 .05.03l.24.33a.05.05 0 0 0 .06.02h.01a.05.05 0 0 0 .03-.04l.18-.94v-.04a.05.05 0 0 0-.05-.03h-1.85v.01h-.02l-.01.02a.06.06 0 0 0-.01.04l.18.92a.06.06 0 0 0 .04.04.05.05 0 0 0 .06-.02l.23-.28.02-.02a.06.06 0 0 1 .06.02l.02.03.26 1.66.02.03a.05.05 0 0 0 .06.01h.01l.02-.04Z" fill="url(#cpq0n4olg)"/><path d="M27.4 28.73V26.1c0-.7.62-1.58 1-2.13a.07.07 0 0 1 .11 0c.45.64 1 1.42 1 2.2-.02.9-.03 1.76-.02 2.58 0 .06.04.1.1.12a3.33 3.33 0 0 1 1.56 1.16.07.07 0 0 1-.07.07h-5.26a.07.07 0 0 1-.05-.1c.42-.53.94-.9 1.54-1.12.07-.03.1-.07.1-.14Z" fill="#25223D"/><defs><linearGradient id="apq0n4olg" x1="28" y1="12" x2="28" y2="44" gradientUnits="userSpaceOnUse"><stop stop-color="#00A89E"/><stop offset="1" stop-color="#ABDDD7"/></linearGradient><linearGradient id="bpq0n4olg" x1="28" y1="12" x2="28" y2="44" gradientUnits="userSpaceOnUse"><stop stop-color="#00A89E"/><stop offset="1" stop-color="#ABDDD7"/></linearGradient><linearGradient id="cpq0n4olg" x1="28" y1="12" x2="28" y2="44" gradientUnits="userSpaceOnUse"><stop stop-color="#00A89E"/><stop offset="1" stop-color="#ABDDD7"/></linearGradient></defs></svg>