<svg width="56" height="56" viewBox="0 0 56 56" xmlns="http://www.w3.org/2000/svg"><rect fill="#F8A499" width="56" height="56" rx="28"/><path d="M19.58 12.06h18.68l5.43 5.97v20.96l-5.43 6.24H19.57l-6.74-6.2V18l6.75-5.94Zm.39 1.03-6.11 5.37v20.11l6.11 5.63H37.8l4.87-5.6V18.44l-4.86-5.34H19.97Z" fill="#FFEFD9"/><path d="m10 28 18-18 18 18-18 18-18-18Z" fill="#0D7457"/><path d="m10 28 18-18 18 18-18 18-18-18Zm18 17.27L45.27 28 28 10.73 10.73 28 28 45.27Z" fill="#FFEFD9"/><path d="M37.51 14.68c1.44.4 1.29 7.37 1.03 10.8L31.6 19.3c.51-1.28 4.11-5.14 5.91-4.62Z" fill="url(#a)"/><path d="M37.26 15.96c.51.77.43 5.66.25 8.49l-5.14-4.63c2.06-3.6 4.46-4.5 4.89-3.86Z" fill="#FFFFE3"/><path d="M35.71 18.28c.62 0 .09 2.91-.25 4.37l-1.8-1.8c.43-.86 1.44-2.57 2.05-2.57Z" fill="#0C0006"/><path d="M18.23 13.86c-1.44.4-1.29 7.37-1.03 10.8l6.94-6.17c-.51-1.29-4.11-5.15-5.91-4.63Z" fill="url(#b)"/><path d="M18.49 15.14c-.52.77-.43 5.66-.26 8.49L23.37 19c-2.06-3.6-4.46-4.5-4.88-3.86Z" fill="#FFFFE3"/><path d="M20.03 17.46c-.62 0-.09 2.91.26 4.37l1.8-1.8c-.43-.86-1.44-2.57-2.06-2.57Z" fill="#0C0006"/><path d="M14.88 31.09c0-2.68 1.2-5.4 1.8-6.43 1.55-2.32 5.92-6.95 11.06-6.95 6.43 0 12.6 8.23 12.6 12.35 0 4.11-4.37 9.51-12.86 9.77-8.48.26-12.6-5.4-12.6-8.74Z" fill="url(#c)"/><path d="M15.03 29.39c-.1.56-.15 1.13-.15 1.7 0 3.34 4.12 9 12.6 8.74 8.5-.26 12.86-5.66 12.86-9.77 0-.48-.08-1-.24-1.57a5.34 5.34 0 0 0-3.87-1c-.35-1.2-1.6-3.55-3.86-3.35-2.26.2-2.83 3-2.83 4.37h-3.6c0-1.45-.51-4.37-2.57-4.37-2.06 0-3.43 2.06-3.86 3.09-2.34.27-3.74 1.26-4.48 2.16Z" fill="url(#d)"/><path d="M23.37 25.94c-.82 0-2.4.69-3.08 1.03.42.94 1.54 2.83 2.57 2.83 1.28 0 2.05-.77 2.05-1.8s-.51-2.06-1.54-2.06Z"/><circle cx="23.11" cy="27.23" fill="#FAFCF0" r=".77"/><path d="M32.63 25.94c.82 0 2.4.69 3.08 1.03-.42.94-1.54 2.83-2.57 2.83-1.28 0-2.05-.77-2.05-1.8s.51-2.06 1.54-2.06Z"/><circle cx=".77" cy=".77" transform="matrix(-1 0 0 1 33.66 26.46)" fill="#FAFCF0" r=".77"/><ellipse cx="20.29" cy="31.09" rx="1.54" ry="1.03" fill="#FC5D87"/><ellipse cx="35.71" cy="31.09" rx="1.54" ry="1.03" fill="#FC5D87"/><path d="M25.68 30.31c0 .62 1.2 1.8 1.8 2.32.09.67-.03 1.98-1.18 1.8-1.16-.18-2.1-1.79-2.42-2.57.26 1.8 1.3 3.34 2.58 3.34 1.02 0 1.45-.69 1.54-1.03.08.34.46 1.03 1.28 1.03.83 0 2.23-2.23 2.83-3.34-.68.85-2.2 2.57-2.83 2.57-.61 0-.94-1.2-1.02-1.8.51-.43 1.54-1.5 1.54-2.32 0-1.02-1.29-.25-2.32-.25-1.02 0-1.8-.52-1.8.25Z"/><path d="m16.25 24.38.38-.54c-.1-1.78-.17-4.15-.04-6.14.06-1.03.18-2 .37-2.73.1-.37.22-.7.38-.98.16-.26.4-.53.75-.63.64-.18 1.34.04 1.97.36.64.33 1.3.82 1.91 1.36.62.54 1.19 1.14 1.64 1.7.3.35.56.71.76 1.03 1.06-.38 2.2-.61 3.37-.61 1.37 0 2.7.35 3.97.93.58-.8 1.49-1.78 2.45-2.56a8.33 8.33 0 0 1 1.73-1.14 2.6 2.6 0 0 1 1.77-.25c.35.1.6.38.75.66.17.28.3.63.39 1.01.2.78.3 1.78.37 2.85.11 2.09.04 4.53-.08 6.3 1.09 1.78 1.77 3.61 1.77 5.06 0 4.46-4.67 10.02-13.36 10.28-8.71.27-13.13-5.56-13.13-9.25 0-2.8 1.25-5.62 1.87-6.7Zm22.32.75c.24-3.53.34-10.06-1.06-10.45-1.6-.46-4.6 2.52-5.62 4.1a9.28 9.28 0 0 0-4.15-1.07c-1.26 0-2.47.28-3.61.74-.57-1.32-4.12-5.1-5.9-4.6-1.35.4-1.3 6.56-1.08 10.15-.17.23-.33.45-.46.66-.6 1.03-1.8 3.75-1.8 6.43 0 3.34 4.11 9 12.6 8.74 8.48-.26 12.85-5.66 12.85-9.77 0-1.35-.66-3.14-1.77-4.93Z"/><circle cx="21.83" cy="42.91" r="1.03" fill="#F1477E"/><circle cx="18.23" cy="39.83" fill="#4B644F" r="1.54"/><circle cx="38.8" cy="39.83" fill="#4B644F" r="1.54"/><circle cx="41.37" cy="36.74" r="1.03" fill="#4B644F"/><circle cx="15.14" cy="36.74" r="1.03" fill="#4B644F"/><circle cx="35.71" cy="42.91" r="1.03" fill="#F1477E"/><circle cx="15.14" cy="20.29" r="1.03" fill="#F1477E"/><circle cx="41.37" cy="20.29" r="1.03" fill="#F1477E"/><defs><linearGradient id="a" x1="38.54" y1="20.85" x2="32.11" y2="18.53" gradientUnits="userSpaceOnUse"><stop stop-color="#C94363"/><stop offset=".25" stop-color="#F44B7D"/><stop offset=".43" stop-color="#FC9994"/><stop offset="1" stop-color="#EE7B88"/></linearGradient><linearGradient id="b" x1="17.2" y1="20.03" x2="23.63" y2="17.71" gradientUnits="userSpaceOnUse"><stop stop-color="#C94363"/><stop offset=".25" stop-color="#F44B7D"/><stop offset=".43" stop-color="#FC9994"/><stop offset="1" stop-color="#EE7B88"/></linearGradient><linearGradient id="c" x1="27.61" y1="17.71" x2="27.61" y2="39.84" gradientUnits="userSpaceOnUse"><stop stop-color="#F56B84"/><stop offset=".25" stop-color="#F44B7D"/><stop offset=".43" stop-color="#FC9994"/></linearGradient><linearGradient id="d" x1="27.61" y1="24.13" x2="27.61" y2="39.84" gradientUnits="userSpaceOnUse"><stop stop-color="#F5F9DE"/><stop offset="1" stop-color="#EEA692"/></linearGradient></defs></svg>