<svg width="56" height="56" viewBox="0 0 56 56" xmlns="http://www.w3.org/2000/svg"><rect fill="#F0F3FA" width="56" height="56" rx="28"/><path d="M12 35.16v-.56l2.22-.82c.22-.08.28-.23.19-.44a15.1 15.1 0 0 1 3.3-17 14.47 14.47 0 0 1 7.7-3.97c3.15-.55 6.26-.07 9.32 1.45a14.71 14.71 0 0 1 7.02 7.6c.12.27.19.26.19-.05v-6.76c0-.2-.09-.37-.26-.48-1.03-.66-1.21-1.44-.54-2.36.68-.91 1.43-1.01 2.26-.3.58.49.74 1.13.48 1.9a.86.86 0 0 1-.28.4l-.5.41a.6.6 0 0 0-.24.5l.02 12.4c0 2.21-.47 4.33-1.41 6.36-.08.17-.03.29.13.36l1.82.72c.5.2.6.53.35 1a18.4 18.4 0 0 1-7 7.15A17.4 17.4 0 0 1 27.82 45c-3.2-.03-6.17-.86-8.91-2.5A18.63 18.63 0 0 1 12 35.16Zm31.1-22.49c0-.43-.22-.64-.64-.64-.43 0-.64.21-.64.64 0 .43.21.64.64.64.42 0 .63-.21.63-.64ZM26.46 41.94c-4.8-.43-8.6-2.83-11.36-7.19-.11-.18-.27-.23-.47-.16l-1.22.47c-.21.08-.26.22-.14.41 3.33 5.67 8.19 8.53 14.56 8.58 6.36.04 11.27-2.73 14.71-8.32.15-.24.1-.43-.16-.55l-.94-.45c-.26-.12-.48-.07-.64.17-3.6 5.24-8.39 7.59-14.34 7.04Z" fill="#00A59D"/><path d="m31.12 14.17-5.16-.31c-.63-.04-.64-.12-.02-.25a10.8 10.8 0 0 1 5.65.47c.16.06.17.13.02.22-.07.04-.14.04-.2-.01a.5.5 0 0 0-.3-.12Z" fill="#F0F3FA"/><path d="M38.42 32.14a7.6 7.6 0 0 0-5.77 1.7c-.16.12-.27.09-.34-.11a4.7 4.7 0 0 0-2.61-3.1 4.1 4.1 0 0 0-4.01.29 6.26 6.26 0 0 0-2.5 2.8c-.1.2-.21.22-.36.08a6.53 6.53 0 0 0-5.8-1.62c.2-2.23.78-4.38 1.73-6.44a.62.62 0 0 0 .03-.48c-1.15-3.41-1.5-6.12-1.06-8.12.14-.64.51-.84 1.12-.6 1.83.7 3.47 2.02 4.92 3.95.11.15.25.2.43.14 2.47-.83 4.96-.8 7.47.13.16.06.29.02.39-.12 1.68-2.3 3.45-3.69 5.3-4.14.45-.11.73.06.83.53.42 1.97.05 4.83-1.12 8.57a.71.71 0 0 0 .03.5 21.45 21.45 0 0 1 1.37 5.35c.05.32.03.55-.05.7Z" fill="#252228"/><path d="M19.35 18.5c1.26.59 2.38 1.43 3.37 2.54.12.13.1.24-.05.34a9.43 9.43 0 0 0-2.71 2.5c-.11.15-.2.14-.28-.03a9.38 9.38 0 0 1-.66-5.17c.04-.2.15-.26.33-.17ZM36.09 23.99c-.07.17-.16.18-.27.03a9.04 9.04 0 0 0-2.77-2.56c-.16-.1-.18-.22-.05-.36a11.7 11.7 0 0 1 3.4-2.6c.26-.14.4-.06.45.24a9.7 9.7 0 0 1-.76 5.25ZM21.98 26.95c-.27 0-.4-.13-.41-.4v-.22c-.01-.89.41-1.34 1.27-1.34h.12c.86 0 1.29.43 1.3 1.32v.22c0 .27-.13.4-.4.4l-1.88.02ZM31.47 26.93c-.27 0-.4-.14-.4-.41v-.26c.02-.86.45-1.28 1.29-1.27h.12c.84.02 1.26.46 1.24 1.32v.26c0 .27-.15.4-.42.4l-1.83-.04ZM21.55 27.69c1.78.6 2.95 1.36 3.5 2.25.14.23.08.36-.19.39a6.04 6.04 0 0 1-3.6-.88c-.43-.24-.57-.7-.4-1.39.1-.37.33-.5.7-.37ZM33.97 29.5c-1.22.7-2.41.97-3.58.8-.21-.02-.26-.12-.14-.3a5.37 5.37 0 0 1 3.76-2.31c.2-.04.33.05.4.24.24.75.09 1.27-.44 1.57ZM38.42 32.14c.11.07.14.2.09.4-1.13 3.8-4.13 6.32-9.01 7.54a6.2 6.2 0 0 1-3.22-.03c-2.8-.78-5.1-1.97-6.9-3.55a7.68 7.68 0 0 1-2.35-4.32 6.53 6.53 0 0 1 5.8 1.62c.15.14.27.12.35-.07a6.26 6.26 0 0 1 2.5-2.81 4.1 4.1 0 0 1 4.02-.29 4.7 4.7 0 0 1 2.61 3.1c.07.2.18.23.34.1a7.6 7.6 0 0 1 5.77-1.69Z" fill="#F0F3FA"/><path d="M28.32 34.53c-.4.24-.44.53-.13.87.34.4.74.5 1.2.34a.56.56 0 0 0 .3-.26c.1-.18.18-.38.23-.58.05-.2.17-.3.37-.3a.1.1 0 0 1 .05.02c.1.06.16.15.16.29-.04.67-.34 1.14-.9 1.4-.58.27-1.12.18-1.63-.28-.12-.1-.24-.11-.36-.02-1.16.8-2.04.53-2.65-.82-.08-.19-.05-.35.11-.49l.11-.08c.13-.1.22-.09.28.06l.3.76c.07.16.18.26.34.3.43.15.8.06 1.13-.26.37-.36.34-.69-.1-.98a1.71 1.71 0 0 1-.77-1.38c-.02-.23.1-.35.33-.35h2.08c.28 0 .4.13.36.4a1.72 1.72 0 0 1-.8 1.36Z" fill="#252228"/></svg>