<svg width="112" height="112" viewBox="0 0 56 56" xmlns="http://www.w3.org/2000/svg"><path d="M32.64 26.02c-.2-.16-.38-.34-.57-.53a270.73 270.73 0 0 0-2.42-2.51c-.46-.46-.81-.9-1.06-1.32a5.36 5.36 0 0 1 .13-5.6c.44-.55.91-.95 1.3-1.2a4.89 4.89 0 0 1 3.17-.84c1.16.09 2.15.56 2.97 1.4l10.76 11.11c.05.06.08.13.08.2 0 .09-.03.15-.09.2-.04.05-.11.07-.21.07H35.57c-.86 0-1.64-.21-2.34-.63l-.59-.35Z" fill="url(#b)"/><path d="M28.76 16a5.12 5.12 0 0 0-.17 5.46c.25.4.6.84 1.06 1.29l2.42 2.44c.19.2.38.37.57.52l.49.5c.48.48.8.83.96 1.06a4.94 4.94 0 0 1 .33 5.25c-.2.38-.75 1.01-1.64 1.9-1.78 1.8-3.59 3.62-5.42 5.44.21-.46.39-.92.53-1.36.16-.51.24-1 .23-1.44a4.93 4.93 0 0 0-1.44-3.45c-.5-.53-1.6-1.63-3.3-3.31l-1.06-1.11a4.75 4.75 0 0 1-1.2-4.46c.2-.9.64-1.68 1.3-2.35 1.18-1.22 3.3-3.35 6.34-6.38Z" fill="url(#c)"/><path d="M23.38 30c1.7 1.72 2.8 2.85 3.3 3.4.94 1 1.42 2.18 1.44 3.53.08 1.1-.3 2.03-.68 2.89-.41.47-.8.78-1 .95a4.83 4.83 0 0 1-5.58.61c-.38-.22-1.01-.77-1.88-1.68-5.78-5.98-9.08-9.38-9.89-10.2a.3.3 0 0 1-.09-.27c.03-.15.11-.23.26-.23h11.3c.94 0 1.88.34 2.82 1Z" fill="url(#d)"/><defs><linearGradient id="a" x1="10.42" y1="9.71" x2="68.15" y2="76.02" gradientUnits="userSpaceOnUse"><stop stop-color="#1A1E21"/><stop offset="1" stop-color="#06060A"/></linearGradient><linearGradient id="b" x1="28.92" y1="22.62" x2="43.19" y2="24.77" gradientUnits="userSpaceOnUse"><stop stop-color="#A27BEC"/><stop offset="1" stop-color="#97CAF9"/></linearGradient><linearGradient id="c" x1="24.1" y1="21.43" x2="34.57" y2="31.83" gradientUnits="userSpaceOnUse"><stop stop-color="#90CCF9"/><stop offset="1" stop-color="#C399ED"/></linearGradient><linearGradient id="d" x1="28.63" y1="34.62" x2="9.85" y2="34.15" gradientUnits="userSpaceOnUse"><stop stop-color="#7692F5"/><stop offset=".44" stop-color="#A7B4F8"/><stop offset="1" stop-color="#C19BF0"/></linearGradient></defs></svg>