<svg width="112" height="112" viewBox="0 0 56 56" xmlns="http://www.w3.org/2000/svg"><path d="M18.5 36.5V35c3.09 1.7 10.1 5.68 10.96 6.1.84.44 1.85.05 2.24-.13L37 38v1.73c-1.45.9-4.37 2.45-5 2.77-.34.17-.9.5-1.5.5-.5 0-1.04-.27-1.5-.5l-10.5-6Z" fill="#667193"/><path d="m24.5 32-6 3c2.93 1.66 9.46 5.54 10.63 6.08.49.22.96.42 1.37.42.59 0 1.06-.29 1.3-.42L37 38l-12.5-6Z" fill="#B7B6C7"/><path d="M16.9 31.92A5.72 5.72 0 0 1 14 28l9.9-5.14 18.12 9.87L41 34.5c-1.5 1-6.04 3.72-7.84 4.58a3.9 3.9 0 0 1-3.57 0c-3.3-1.9-10.48-5.97-12.7-7.16Z" fill="#6F7295"/><path d="M12 27v-2l12.17-5.38C30.6 22.82 44 28.75 44 30c0 .76-.04 1.65-.93 2.19a149.17 149.17 0 0 1-9.61 5.4c-.67.29-1.33.42-1.96.41a3.7 3.7 0 0 1-1.61-.4L12 27Z" fill="#B3B9BF"/><path d="m24.92 18.14.28.14c4.86 2.5 15.11 7.78 17.16 8.87 1.15.62 1.7 1.44 1.64 2.36-.06.81-.6 1.45-1 1.78l-.03.02-.04.03a193.1 193.1 0 0 1-8.32 4.88 6.1 6.1 0 0 1-3.11.78 4.37 4.37 0 0 1-1.95-.52l-16.26-9.51-.02-.02c-.58-.4-1-.84-1.18-1.34-.2-.55-.05-1.06.22-1.43.25-.35.62-.6.93-.8.3-.17.62-.33.87-.44l.06-.03 10.75-4.77Zm-10.2 6-.03.03c-.26.12-.52.25-.77.4-.27.15-.44.3-.53.42-.06.09-.05.12-.04.16.04.1.18.33.65.66l16.32 9.54c.48.33 1.95.7 3.78-.29 2-1.07 6.2-3.66 8.09-4.86.25-.21.45-.52.47-.79.01-.17-.04-.58-.93-1.05-1.99-1.07-11.88-6.16-16.85-8.72l-10.15 4.5Z" fill="#EFF0F3"/><path d="M24.43 31.91a8.03 8.03 0 0 0 7.67-8.1c0-4.48-3.55-8.1-7.94-8.1a8.02 8.02 0 0 0-6.87 12.02l7.14 4.18Z" fill="#F3B9AD"/><path d="M31.99 25.17c-.35.64-.71 1.05-1.06 1.07-1.03.08-2.06-.65-2.94-1.29a4.3 4.3 0 0 0-1.56-.87c-.45-.06-.8.44-1.23 1.05-.6.84-1.36 1.9-2.74 2.06-1.78.2-2.83-1.5-3.46-2.53-.2-.34-.37-.61-.5-.71-.38-.3-.7.04-1.03.4-.14.14-.28.29-.43.4-.26.2-.53.21-.74.16a8.02 8.02 0 0 1 7.86-9.2A8.02 8.02 0 0 1 32 25.16Z" fill="#523A0E"/><circle cx="23.5" cy="15.5" r="2.5" fill="#ED493F"/><circle cx="23" cy="15" r="1" fill="#E4F2F4"/><path d="M39.64 31.78c.54-1.1.92-2.6.92-3.92 0-4.47-3.55-8.1-7.93-8.1a8.02 8.02 0 0 0-7.94 8.1c0 2.1.79 4.02 2.07 5.46l3.62 2.11c1.72.68 3.04 0 3.57-.27l5.69-3.38Z" fill="#F9E89B"/><path d="M40.45 29.23c-.35.63-.7 1.04-1.06 1.07-1.03.08-2.05-.66-2.94-1.3a4.3 4.3 0 0 0-1.56-.86c-.44-.06-.8.43-1.23 1.04-.6.84-1.36 1.9-2.73 2.06-1.8.2-2.83-1.5-3.46-2.53-.21-.34-.38-.6-.51-.71-.38-.29-.69.04-1.03.4-.13.14-.27.3-.43.41-.25.2-.52.2-.73.15a8.02 8.02 0 0 1 7.86-9.2 8.02 8.02 0 0 1 7.82 9.47Z" fill="#7D5517"/><circle cx="31.5" cy="19.5" r="2.5" fill="#ED493F"/><circle cx="31" cy="19" r="1" fill="#E4F2F4"/></svg>