<svg width="112" height="112" viewBox="0 0 56 56" xmlns="http://www.w3.org/2000/svg"><path d="M12.15 18.05c.81 0 1.47 1.45 1.56 2.13.35 2.44.52 4.7.5 6.79 0 2.08-.2 4.34-.56 6.78-.1.68-.77 2.11-1.58 2.1-.82 0-1.46-1.43-1.56-2.12a46.9 46.9 0 0 1-.51-6.78c.01-2.09.2-4.35.57-6.79.1-.68.77-2.11 1.58-2.11ZM44 18c.07 0 .1.01.13.03a4.34 4.34 0 0 1 1.77 3.2c.04.38.07 2.56.1 6.52.01 1.44-.21 7.88-2.25 7.85-2.04-.03-2.07-6.48-2.02-7.92.15-3.96.25-6.13.3-6.5.17-1.36.79-2.4 1.86-3.16A.23.23 0 0 1 44 18Z" fill="#5E2A13"/><path d="M42.92 22.08c-.07 1.22.23 2.22.67 2.25.44.03.86-.93.93-2.14.07-1.22-.23-2.22-.67-2.25-.44-.03-.86.93-.93 2.14ZM11.4 24.26a.3.3 0 0 1-.23-.09.32.32 0 0 1-.1-.22L11 21.82c-.01-.42.04-.83.15-1.13.11-.3.27-.48.45-.48h.09c.08-.01.17.02.25.1.09.08.16.2.23.34a3.7 3.7 0 0 1 .23 1.12l.07 2.13c0 .09-.03.17-.09.23a.3.3 0 0 1-.2.1l-.79.03ZM12.5 25.16c-.05.25.03.47.17.5.15.04.31-.13.37-.38.05-.25-.03-.48-.18-.5-.14-.04-.3.13-.36.38ZM43.8 25.9c-.06.6.12 1.11.4 1.14.27.03.54-.44.6-1.04.05-.6-.13-1.1-.4-1.13-.27-.03-.54.43-.6 1.03Z" fill="#FEFCFB"/><path d="m27.72 26.07.08.07a1.37 1.37 0 0 1 .54 1.16c-.08 1.94.3 9.4 2.73 9.87 1.86.35 2.87-2.77 3.1-4.24.36-2.3.49-4.46.38-6.49-.02-.31.08-.62.3-.92a.56.56 0 0 1 .25-.2.54.54 0 0 1 .59.14c.07.08.13.18.15.29.9 4.15.46 9.17-2.23 12.54-2.4 3-4.46.58-5.62-1.83a.35.35 0 0 0-.14-.15.33.33 0 0 0-.37.02c-.05.04-.1.1-.12.16-.57 1.59-2.28 4.82-4.33 2.94a8.16 8.16 0 0 1-2.5-4.03 21.78 21.78 0 0 1-.24-9.32c.03-.14.1-.26.2-.35a.6.6 0 0 1 .37-.16h.02a.45.45 0 0 1 .35.15.49.49 0 0 1 .13.36c-.25 4.06-.03 8.88 2.38 11.2.13.12.3.18.47.18.17 0 .33-.07.45-.2A6.18 6.18 0 0 0 26.58 33c.14-1.5.3-3.7.48-6.6 0-.08.03-.15.08-.22a.4.4 0 0 1 .59-.1Z" fill="#5E2A13"/></svg>