<svg width="112" height="112" viewBox="0 0 56 56" xmlns="http://www.w3.org/2000/svg"><path d="m27.6 11 1.96.1 4.21 3.19a.24.24 0 0 0 .27 0 .23.23 0 0 0 .07-.06l1.08-1.62 2.3 1.3 5.34 12.54-3.78-4.09a.87.87 0 0 0-.29-.2 41.92 41.92 0 0 0-4.54-1.71 20.53 20.53 0 0 0-11.65-.16c-1.3.35-2.77.89-4.38 1.6l-3.21-4.85a17.38 17.38 0 0 1 7.78-5.21l1.16-.33c1.22-.3 2.45-.47 3.68-.5Z" fill="#B75E59"/><path d="m34.02 12.13 1.17.48-1.08 1.62a.23.23 0 0 1-.25.1.24.24 0 0 1-.09-.04l-4.21-3.2c1.6.14 3.09.48 4.46 1.04ZM39.35 15.34c.97.88 1.82 1.83 2.55 2.85l.72 1.1a16.75 16.75 0 0 1 2.11 11.65l-1.9-4.49-5.34-12.54 1.86 1.43ZM14.98 17.04l3.21 4.86.5.86c.14.42-.03.4-.53-.07-.36-.35-.5-.28-.42.22a4.77 4.77 0 0 0 2.17 3.18l-.5.36-2.07-3.21c.05-.42-.05-.78-.3-1.08l-2.77-3.35c-.04-.05-.09-.05-.14 0l-1.26 1.49c.59-1.2 1.29-2.3 2.1-3.26Z" fill="#79352F"/><path d="M17.04 22.16c-2.31 2-4.32 4.27-6.01 6.8-.17-3.1.44-5.99 1.84-8.66l1.26-1.49c.05-.05.1-.05.14 0l2.77 3.35Z" fill="#B75E59"/><path d="m42.83 26.45 1.9 4.5a15.85 15.85 0 0 1-1.44 4.51 20.26 20.26 0 0 0-1.41-3.6 16.17 16.17 0 0 0-3.62-4.76 3.3 3.3 0 0 0 .91-2.16c.22-.65.06-1.05-.49-1.21-.06-.02-.09-.06-.09-.12v-.85c0-.28-.1-.33-.31-.14-.25.22-.62.59-1.12 1.1a2.7 2.7 0 0 1-.95.5c-.51.18-1 .42-1.43.71a14.83 14.83 0 0 0-8.32-1.41 15.9 15.9 0 0 0-3.28.66c-.45.15-.93.4-1.47.74a64.72 64.72 0 0 0-2.25-1.2.08.08 0 0 0-.04.01.04.04 0 0 0-.02.04l.03.03c.08.05.15.1.21.17.1.1.08.14-.06.1-.27-.1-.5-.23-.67-.41a.17.17 0 0 1-.03-.2c.08-.2.02-.44-.18-.7l-.5-.86c1.6-.72 3.06-1.26 4.37-1.61a20.53 20.53 0 0 1 11.65.16c1.48.46 3 1.02 4.54 1.7.11.05.21.12.29.21l3.78 4.09ZM17.04 22.16c.25.3.35.66.3 1.08-.26 1.56.1 2.82 1.1 3.79l-.3.3-1.54 1.57a11.5 11.5 0 0 0-1.85 2.8 47.06 47.06 0 0 0-1.74 4.32 16.4 16.4 0 0 1-1.98-7.07c1.7-2.52 3.7-4.79 6.01-6.79Z" fill="#C6837F"/><path d="M18.7 22.76c.2.26.26.5.18.7a.17.17 0 0 0 .03.2c.18.18.4.32.67.4.14.05.16.02.06-.09a.8.8 0 0 0-.21-.17.04.04 0 0 1-.03-.03c0-.01 0-.03.02-.04a.08.08 0 0 1 .04-.02h.05c.73.39 1.46.79 2.2 1.21l-.98.67-.82.5a4.77 4.77 0 0 1-2.17-3.18c-.08-.5.06-.57.42-.22.5.46.67.49.54.07ZM39.17 24.94c-.89.18-1.54.7-1.95 1.55l-2.44-1.56c.44-.3.92-.53 1.43-.72.47-.17.79-.33.95-.5.5-.5.87-.87 1.12-1.1.2-.18.31-.13.31.15v.85c0 .06.03.1.1.12.54.16.7.56.48 1.21Z" fill="#B75E59"/><path d="m19.4 26.45-.95.58c-1-.97-1.38-2.23-1.11-3.8l2.06 3.22Z" fill="#AE5048"/><path d="m34.78 24.93 2.44 1.56 1.04.61c1.46 1.3 2.66 2.9 3.62 4.76a20.26 20.26 0 0 1 1.41 3.6c-.59 1.2-1.3 2.3-2.14 3.31a3.84 3.84 0 0 1-3.69-1.68 4.7 4.7 0 0 0-.17-2.33c-.21-.62-.56-.99-1.17-1.16-.47-.14-.97-.2-1.5-.18-.99.03-1.97.1-2.95.2a81.7 81.7 0 0 1-8.8-.1c-1.1-.08-2.42.02-2.92 1.17a20.05 20.05 0 0 1-3.35-5.8l1.53-1.56c1-.37 1.87-.95 2.6-1.74l.98-.67a6.53 6.53 0 0 1 1.47-.74 15.9 15.9 0 0 1 3.28-.66c3-.32 5.77.15 8.32 1.41Z" fill="#E5EBEE"/><path d="M39.17 24.94a3.3 3.3 0 0 1-.91 2.16l-1.04-.61a2.67 2.67 0 0 1 1.95-1.55Z" fill="#AE5048"/><path d="M20.73 25.6a6.56 6.56 0 0 1-2.6 1.73l.32-.3.95-.58.51-.36.82-.5ZM16.6 28.9c.81 2.14 1.93 4.08 3.35 5.8a4.4 4.4 0 0 0-.27 2c.11 1.26.75 2.07 1.93 2.41.9.27 2.33.45 4.28.55.18.97.65 1.63 1.41 2 1.2.57 2.26.38 3.2-.58.24-.2.46-.58.68-1.16.05-.16.16-.23.28-.34 1.2-.06 2.4-.2 3.6-.42a6.46 6.46 0 0 0 1.45-.56c.5-.32.81-.82.95-1.5a3.84 3.84 0 0 0 3.7 1.67l-1.54 1.65c-1.26.13-1.94.67-2.04 1.62a16.74 16.74 0 0 1-12.52 2.7A16.36 16.36 0 0 1 19 42.43c.13-.95-.27-1.58-1.2-1.89-.2-.07-.66-.08-1.37-.05a16.6 16.6 0 0 1-3.42-4.46 47.06 47.06 0 0 1 1.74-4.32c.47-1 1.09-1.94 1.85-2.8Z" fill="#CED3D2"/><path d="M37.46 37.1c-.14.68-.45 1.18-.95 1.5a6.44 6.44 0 0 1-1.45.56c-1.2.22-2.4.36-3.6.42a.2.2 0 0 0-.06-.07l-.66-1.88a.18.18 0 0 1 .13-.23l.5-.1c2.41.82 3.8.1 4.14-2.16a.18.18 0 0 0-.08-.19.73.73 0 0 0-.7-.08c-.74.27-1.46.54-2.16.82-.92-.57-.77-1.19-.9-2.06.98-.11 1.96-.18 2.95-.21.53-.02 1.03.04 1.5.18.61.17.96.54 1.17 1.16.25.76.3 1.54.17 2.33Z" fill="#B75E59"/><path d="M31.67 33.63c.13.87-.02 1.49.9 2.06l-1.63.56a.33.33 0 0 0-.12.55l.54.5-.5.1a.18.18 0 0 0-.13.16v.07l.67 1.88h-.1c-.08 0-.12-.04-.13-.11-.08-.55-.24-1-.49-1.34-.21-.31-.4-.4-.56-.29l.38 1.93.03.02-3.22-.02-.8-.04c-.07 0-.1-.04-.09-.11.29-1.57.2-1.9-.25-1.03a1 1 0 0 0-.28 1.14c-1.95-.1-3.37-.28-4.28-.55-1.18-.34-1.82-1.15-1.93-2.4a4.4 4.4 0 0 1 .27-2.02c.5-1.15 1.81-1.25 2.93-1.17 2.93.2 5.86.23 8.8.1Zm-8.42 1.67a8.27 8.27 0 0 0-1.7-.54.38.38 0 0 0-.43.23c-.02.06-.02.12-.02.18.2 1.65 1.36 2.63 3 2.43.64-.08 1.2-.34 1.71-.78a.33.33 0 0 0-.05-.53c-.35-.2-.76-.37-1.25-.5-.33-.1-.75-.27-1.26-.5Z" fill="#AE5048"/><path d="M24.51 35.78c.49.14.9.31 1.25.5a.33.33 0 0 1 .05.54c-.5.44-1.07.7-1.7.78-1.65.2-2.81-.78-3-2.43a.37.37 0 0 1 .44-.41c.59.12 1.15.3 1.7.54.51.22.93.38 1.26.48Zm.95.6-3.96-1.4V35l-.02.02c-.07.2-.08.41-.05.63.04.22.12.43.25.64a2.66 2.66 0 0 0 1.24.93l.04.01c.26.1.53.14.8.15.26.01.52-.02.75-.1.23-.07.44-.19.6-.34.16-.14.28-.32.35-.52v-.03ZM31.36 37.3l-.54-.5a.33.33 0 0 1 .12-.55l1.63-.56c.7-.28 1.42-.55 2.16-.82.26-.09.5-.06.7.08.06.05.09.11.08.19-.34 2.25-1.73 2.98-4.15 2.16Zm.23-1.04c-.56.2-.57.42-.01.65l.65.27c.49.2 1 .23 1.51.07.92-.29 1.44-.96 1.56-2.02a.2.2 0 0 0-.28-.22l-3.43 1.25Z" fill="#131313"/><path d="M25.46 36.38v.03c-.07.2-.19.38-.35.52-.16.15-.37.27-.6.34-.23.08-.49.11-.75.1-.27 0-.54-.06-.8-.15l-.04-.01c-.26-.1-.5-.22-.71-.38a2.21 2.21 0 0 1-.53-.55c-.13-.2-.21-.42-.25-.64-.03-.22-.02-.43.05-.63l.01-.02a.01.01 0 0 1 .01 0l3.96 1.39Z" fill="#CED3D2"/><path d="M31.4 39.51a.2.2 0 0 1 .06.07c-.12.1-.23.18-.28.34-.22.58-.44.96-.68 1.16-.71.27-1.37.41-1.97.41-.72 0-1.32-.23-1.79-.7-.58-.57-.77-1.32-.57-2.27.45-.88.54-.54.25 1.03-.01.07.02.11.1.11l.8.04c-.2.1-.42.12-.64.08a.1.1 0 0 0-.11.15c.24.52.58.9 1.03 1.12.42.22.89.27 1.4.16.8-.16 1.3-.66 1.53-1.49a1.5 1.5 0 0 1-.03-.02c.06.11.08.25.06.4 0 .02 0 .03.02.03.03 0 .05 0 .05-.02.28-.9.11-1.67-.5-2.34.15-.11.34-.02.55.29.25.34.41.79.5 1.34 0 .07.04.1.12.11h.1Z" fill="#838383"/><path d="M30.12 37.77c.62.67.8 1.45.51 2.34 0 .01-.02.02-.05.02-.01 0-.02-.01-.02-.03.02-.15 0-.29-.06-.4l-.38-1.93ZM26.17 38.52c-.2.95 0 1.7.57 2.28.48.46 1.07.69 1.79.7.6 0 1.26-.15 1.97-.42-.94.96-2 1.15-3.2.57-.76-.36-1.23-1.02-1.4-1.98a1 1 0 0 1 .27-1.15Z" fill="#79352F"/><path d="M30.53 39.72c-.23.83-.73 1.33-1.52 1.5-.52.1-.99.05-1.4-.17-.46-.22-.8-.6-1.04-1.12a.1.1 0 0 1 .06-.14.1.1 0 0 1 .05 0c.22.03.43 0 .63-.09l3.22.02Z" fill="#CED3D2"/><path d="m39.62 40.42-2.04 1.62c.1-.95.78-1.5 2.04-1.62Z" fill="#B75E59"/><path d="m19 42.42-2.57-1.94c.71-.03 1.17-.02 1.37.05.93.31 1.33.94 1.2 1.9Z" fill="#AE5048"/></svg>