<svg width="112" height="112" viewBox="0 0 56 56" xmlns="http://www.w3.org/2000/svg"><path d="M20.6 28.11c0-.2.11-.33.34-.42-.14 1.55-.05 3.23.26 5.03.34 2 1.25 3.6 2.73 4.8a8.46 8.46 0 0 0 2.63 1.43 13.64 13.64 0 0 0 2.4.5l.03-.04.32-1.2c.05-.09.13-.13.25-.14a.12.12 0 0 1 .11.08v.05l-.2 1.84c-.02.12.04.19.16.2l1.9.08c.08 0 .1-.03.1-.1l-.1-.9c-.04-.4.03-.6.18-.9a.07.07 0 0 1 .06-.05.07.07 0 0 1 .06.05l.3.84.03.03.05.01c1.85-.26 3.53-.95 5.03-2.07 2.31-1.72 3.6-4.95 2.53-7.77l-.6-1.57a2.3 2.3 0 0 1-.15-.61l-.12-2.49c-.02-.37-.16-1.37-.4-2.98a6.63 6.63 0 0 0-2.14-4.15.09.09 0 0 0-.08 0 .09.09 0 0 0-.02.04c-.2.3-.47.41-.85.31l-.42-.1c-.2-.08-.47-.23-.81-.47-.45-.31-.55-.7-.3-1.18a.1.1 0 0 0 .01-.08.1.1 0 0 0-.06-.06l-1.14-.4a.17.17 0 0 0-.17.05c-.3.3-.6.26-1.02.23a2.5 2.5 0 0 1-1.49-.6.16.16 0 0 0-.1-.04 3.85 3.85 0 0 0-2.69 1.08 7.34 7.34 0 0 0-1.02 1.1.21.21 0 0 1-.08.04c-.64.07-1.07.12-1.52.45-.35.25-.81.63-1.1 1.06-.35.54-.6.98-.75 1.3a21.48 21.48 0 0 0-1.6 5.39c-.18-.1-.3-.17-.35-.24-.04-.5-.02-.95.08-1.35.36-1.56.77-3.02 1.52-4.43a6.1 6.1 0 0 1 1.96-2.21c.27-.18.56-.28.9-.34.37-.06.75-.09.91-.3.6-.84 1.3-1.42 2.13-1.77.44-.2 1.13-.3 1.57-.39.06-.01.16-.09.3-.22a1.7 1.7 0 0 1 1.13-.51c.72-.07 1.4.04 1.43.94a.24.24 0 0 0 .16.22l1.33.45c.04.02.07.02.1 0 .5-.2.92-.08 1.29.36a.13.13 0 0 0 .14.04l.05-.02c.43-.42.93-.75 1.52-.64.66.11 1.7.57 1.48 1.44-.15.59-.56.84-1.1 1.04-.15.06-.17.15-.08.28l.17.23c.1.13.2.15.33.05.5-.38 1.49-.57 2.07-.22 1.1.66 1.17 2.25-.34 2.46-.15.02-.4.03-.76.05a.1.1 0 0 0-.08.05.58.58 0 0 0-.04.4c.38 1.87.59 3.78.63 5.74 0 .35.06.73.2 1.05l.53 1.38c.45 1.17.54 2.36.28 3.56a8.4 8.4 0 0 1-2.63 4.53c-.3.26-.22.54-.15.97.06.4.14.87.25 1.44.1.53.04 1.16-.47 1.47a1.2 1.2 0 0 1-.6.12c-.62 0-1.21.16-1.76-.3-.42-.36-.46-1.05-.53-1.54-.01-.14-.09-.19-.22-.16l-2.16.52a.19.19 0 0 0-.15.2c.04.58.11 1.58-.59 1.83-.1.04-.3.05-.59.03-.39-.02-.87.03-1.2-.07-.8-.24-.79-1.07-.87-1.77a.23.23 0 0 0-.19-.2l-2-.33a.23.23 0 0 0-.23.12.23.23 0 0 0-.03.09c-.04.43-.13 1.15-.64 1.27-.05.01-.24 0-.57-.01-.3-.02-.6-.02-.87.02-.72.09-1.02-.43-1.15-1.09a5.16 5.16 0 0 1-.04-1.84c.04-.23 0-.41-.12-.54a8.08 8.08 0 0 1-2.24-3.8c-.3-1.23-.47-2.54-.53-3.92-.02-.57.07-1.08.29-1.55.03-.06.02-.15-.03-.26Z" fill="#271D1D"/><path d="M35 17.9c0 .07-.01.1-.06.1a2.53 2.53 0 0 0-1.85.31c-.98.6-1.38 1.53-1.2 2.76.02.19.2.54.52 1.07.02.02.02.04-.01.06l-.16.09c-.03.02-.05 0-.06-.03-.11-.47-.26-.9-.43-1.26a2.82 2.82 0 0 0-.82-.95c-.03-.02-.03-.05 0-.07l.36-.35c.81-.76.9-2.06.16-2.9a2.3 2.3 0 0 0-1.92-.82c-1.43.09-2.37 1.13-2.22 2.58v.02l-.02.01c-1.35-.21-2.4.45-3.19 1.58-.48.7-.72 1.62-.79 2.5-.1 1.4.1 2.67 1.14 3.62l.78.69c.38.93 1.14 1.23 2.27.88.56.07 1.16.05 1.81-.05a2.7 2.7 0 0 0 2.1-1.49c.22-.4.37-.81.46-1.21.04-.17.07-.17.1.01.02.09.04.14.07.16.17.13.22.09.14-.12-.28-.76-.56-2.3.46-2.65.26-.1.52-.06.78.1l.3.3c.12.11.3.18.53.2.65.04 1.23-.1 1.73-.45a2.43 2.43 0 0 0 1.1-2.35 2.33 2.33 0 0 0-.84-1.64c-.24-.2-.52-.37-.82-.5v-.09c.37.1.65 0 .84-.31a.09.09 0 0 1 .06-.04.09.09 0 0 1 .07.02 6.63 6.63 0 0 1 2.1 4.13c.25 1.61.39 2.6.4 2.98.05.66.09 1.48.13 2.49 0 .16.08.43.15.61l.6 1.57c1.07 2.82-.22 6.05-2.53 7.77a10.84 10.84 0 0 1-5.08 2.06.06.06 0 0 1-.02-.03l-.31-.84a.07.07 0 0 0-.12 0c-.15.3-.22.5-.18.9l.1.9c0 .07-.02.1-.1.1l-1.9-.08c-.12-.01-.18-.08-.16-.2l.2-1.84a.12.12 0 0 0-.06-.12h-.05c-.12 0-.2.04-.25.13a9.12 9.12 0 0 0-3.25-2.16c-.67-.26-1.85-.37-2.1.48-.04.1-.05.27-.03.5v.5a7.62 7.62 0 0 1-2.73-4.8c-.3-1.81-.4-3.5-.26-5.04.15-.12.33-.22.53-.3l.75-.29c.31-.12.34-.5.2-.75-.05-.09-.17-.17-.37-.23a7.5 7.5 0 0 1-.9-.34c.33-1.88.8-3.66 1.6-5.4.15-.31.4-.75.76-1.3.28-.42.74-.8 1.09-1.05.45-.33.88-.38 1.52-.45a.21.21 0 0 0 .15-.1c.21-.29.53-.64.95-1.04a3.85 3.85 0 0 1 2.7-1.08c.03 0 .06.01.1.04.42.36.91.56 1.48.6.42.03.73.06 1.02-.23a.17.17 0 0 1 .17-.04l1.14.39a.1.1 0 0 1 .06.14c-.26.47-.16.87.29 1.18.34.24.61.4.81.47Z" fill="#C6736C"/><path d="M18.5 15.6c.54 0 .52.72.82 1.01.3.3 1.01.28 1.01.81 0 .54-.72.52-1.02.81-.3.3-.27 1.01-.81 1.01s-.52-.71-.81-1.01c-.3-.3-1.02-.27-1.02-.8 0-.55.72-.52 1.02-.82.3-.3.27-1 .81-1Z" fill="#0395D7"/><path d="m34.94 18 .48.1c.3.13.58.3.82.5.51.44.8.98.85 1.64.08 1-.29 1.78-1.11 2.35-.5.34-1.08.5-1.73.45a.81.81 0 0 1-.54-.2l-.3-.3a.85.85 0 0 0-.77-.1c-1.02.35-.74 1.89-.46 2.65.08.2.03.25-.14.12-.03-.02-.05-.07-.07-.16-.03-.18-.06-.18-.1-.01-.09.4-.24.8-.45 1.21a2.7 2.7 0 0 1-2.1 1.49c-.66.1-1.26.12-1.82.05a7.59 7.59 0 0 1-2.27-.88l-.78-.7c-1.04-.94-1.24-2.2-1.14-3.6.07-.9.3-1.81.8-2.51.78-1.13 1.83-1.8 3.17-1.58h.01a.03.03 0 0 0 .02-.02v-.01c-.15-1.45.8-2.5 2.22-2.58a2.3 2.3 0 0 1 1.92.83 2.1 2.1 0 0 1-.16 2.9l-.36.34c-.03.02-.03.05 0 .07.4.32.67.63.82.95.17.37.32.79.43 1.26 0 .04.03.05.06.03l.16-.1c.03 0 .03-.03.01-.05-.32-.53-.5-.88-.53-1.07-.17-1.23.23-2.15 1.21-2.76a2.53 2.53 0 0 1 1.85-.32Z" fill="#271D1D"/><path d="M36.97 17.36c.13-.28.05-.57-.22-.84-.1-.1-.2-.13-.31-.08-.1.04-.18.03-.23-.02.5-.58 1.14-.57 1.75-.16.36.23.36.59-.02.82-.35.2-.68.3-.97.28Z" fill="#C6736C"/><path d="M28.27 17.34a1.64 1.64 0 0 0-.05 1.3l-.58-.09a.05.05 0 0 1-.04-.04c-.25-1.24.7-2.28 1.92-2.34 1.17-.07 2.17.8 2.17 1.97 0 .64-.31 1.17-.95 1.61a.13.13 0 0 1-.15 0l-.3-.2c-.05-.04-.04-.07.02-.1.95-.38 1.25-1.4.77-2.24-.6-1.05-2.25-1-2.8.13Z" fill="#fff"/><path d="M16.3 23.56a5.67 5.67 0 0 0-1.37 2.58c-.11.46-.23.77-.77.67-.26-.05-.38-.33-.44-.54-.14-.54-.31-1-.5-1.4-.73-1.55-2.08-2.32-3.72-2.74-.3-.08-.65-.44-.44-.76.12-.19.25-.3.41-.34a6.13 6.13 0 0 0 2.85-1.43 6.07 6.07 0 0 0 1.45-2.83c.04-.16.15-.3.33-.4.33-.21.69.14.77.43.42 1.63 1.2 2.97 2.76 3.7.39.19.85.35 1.4.5.21.06.5.18.54.44.1.53-.21.65-.67.76-.93.23-1.92.69-2.6 1.36Z" fill="#86E0FE"/><path d="M36.21 16.42c.05.05.13.06.23.02.11-.05.21-.02.31.08.27.27.35.56.22.84-.33-.2-.61-.43-.84-.69a.1.1 0 0 1-.02-.1.33.33 0 0 1 .1-.15Z" fill="#AE564C"/><path d="M30.54 17.77c.07.28.23.47.36.44.13-.03.18-.28.11-.56-.07-.27-.23-.47-.36-.43-.13.03-.18.28-.11.55ZM33.85 22.62a1.4 1.4 0 0 0-1.03-.52.14.14 0 0 1-.1-.04 2.27 2.27 0 0 1 .84-3.68c2.2-.9 4.36 1.67 2.75 3.57-.54.63-1.28.9-2.23.82-.07 0-.15-.06-.23-.15Z" fill="#fff"/><path d="M39 20.07a.8.8 0 0 0-.03-.6c-.1-.24-.28-.45-.53-.61.7-.43 1.59-.47 1.92.35.4.94-.79 1.07-1.37.86Z" fill="#C6736C"/><path d="M36.44 20.41a1.67 1.67 0 0 1-1.68 1.67 1.69 1.69 0 0 1-1.68-1.67 1.67 1.67 0 0 1 1.68-1.67 1.69 1.69 0 0 1 1.68 1.67Z" fill="#271D1D"/><path d="M25.38 25.75c.03 0 .05.02.08.04l.08.06a7.1 7.1 0 0 0 2.04 1.59c.06.03.06.05 0 .07h-.08a5.83 5.83 0 0 1-3-1.57c-.04-.04-.03-.06.03-.06l.63-.03.03-.01.1-.07a.04.04 0 0 0 .02-.04l-.02-.02h-.73c-.4-.02-.68-.64-.78-1.01-.52-1.8-.16-4.15 1.43-5.38 1.18-.91 2.79-.5 4.04.01 1.33.55 2.48 1.58 2.63 3.07.01.14-.01.3-.08.5-.12.34-.15.67-.11 1 .04.32.04.58 0 .77-.2.82-.46 1.54-.98 2.15-.41.48-1.36.75-1.89.7-1.38-.09-2.68-1.18-3.5-2.24a.07.07 0 0 0-.08-.02l-.04.03a.04.04 0 0 0-.02.02.03.03 0 0 0 0 .03c.1.1.16.22.15.33 0 .04.02.06.05.08Z" fill="#805962"/><path d="M38.44 18.86c.25.16.43.37.53.61.08.2.1.4.02.6-.2-.06-.34-.12-.42-.32-.08-.21-.18-.41-.28-.61a.12.12 0 0 1 0-.1c.03-.1.08-.16.15-.18Z" fill="#AE564C"/><path d="m28 20.18 1.33.77c.16.1.28.32.28.52 0 .24-.15.43-.42.59a335.6 335.6 0 0 1-3.03 1.71c-.12.07-.22.09-.3.05-.07-.05-.1-.14-.1-.29v-3.46c.01-.31.11-.53.31-.65.18-.1.43-.1.6 0l1.33.76Z" fill="#271D1D"/><path d="M35.74 20.04c.1.24.24.41.34.38.1-.04.1-.26.02-.5-.1-.25-.24-.42-.34-.39-.1.04-.1.26-.02.5Z" fill="#fff"/><path d="M27.5 20.4c.05.03.06.07.03.13l-1.17 1.99c-.1.16-.15.15-.15-.04l.02-2.57a.14.14 0 0 1 .07-.12.14.14 0 0 1 .14 0l1.05.61ZM28.02 20.72l1.06.6a.14.14 0 0 1 .07.13.14.14 0 0 1-.07.12l-2.24 1.29c-.17.1-.2.06-.1-.1l1.16-2c.03-.06.07-.07.12-.04Z" fill="#805962"/><path d="M20.8 25.54c.06.07.17.15.35.24.28.13.58.24.9.34.2.06.32.14.37.23.14.24.11.63-.2.75l-.75.3c-.2.07-.38.17-.53.29-.23.09-.34.23-.35.42-.24.2-.42.5-.54.92-.1.38-.35.8-.85.65a.37.37 0 0 1-.26-.24c-.14-.4-.3-.77-.46-1.1-.37-.73-1.09-.97-1.89-1.22-.1-.03-.18-.12-.23-.26-.16-.48.08-.65.51-.78.13-.04.34-.12.62-.24.81-.34 1.06-.96 1.34-1.73.08-.21.16-.36.24-.43.26-.23.6-.17.79.13.1.15.14.25.15.3.12.54.38 1.02.8 1.43Z" fill="#86E0FE"/><path d="M27.5 27.8c-1.13.34-1.89.04-2.27-.9.72.43 1.48.73 2.27.9Z" fill="#AE564C"/><path d="M34.45 28.54c.08.16.18.27.22.25.05-.02 0-.17-.08-.33-.08-.15-.18-.26-.22-.24-.04.02 0 .17.08.32ZM22.96 29.04c-.04.14-.03.26.02.28.05 0 .12-.1.15-.24.04-.14.03-.27-.01-.28-.05-.01-.12.1-.16.24ZM24.18 29.48h-.01a.08.08 0 0 0-.09.06l-.05.38c-.01.04.02.08.06.09h.01c.04 0 .08-.02.09-.06l.05-.39a.08.08 0 0 0-.06-.08ZM30.72 30.69a.07.07 0 0 0-.05.08l.13.43c0 .04.05.06.08.05a.07.07 0 0 0 .05-.1l-.12-.42a.07.07 0 0 0-.09-.04ZM35.38 32.67c.03.06.08.09.11.07.04-.01.06-.07.03-.12-.02-.06-.07-.1-.11-.07-.04.01-.05.07-.03.12ZM26.91 32.76a.06.06 0 0 0-.06.06v.5c0 .02.03.05.06.05s.06-.03.06-.06v-.5a.06.06 0 0 0-.06-.05ZM32.7 35.34c.01.03.05.05.08.04.03-.01.04-.05.02-.09-.01-.03-.05-.06-.08-.04-.03 0-.04.05-.02.09Z" fill="#271D1D"/><path d="M29.3 38.2 29 39.42c0 .02-.01.03-.03.04a8.46 8.46 0 0 1-5.03-1.92v-.5c-.02-.23 0-.4.02-.5.26-.85 1.44-.74 2.1-.49a9.1 9.1 0 0 1 3.26 2.17Z" fill="#AE564C"/><path d="M30.18 36.34c0 .12.06.21.11.21s.09-.1.08-.23c-.01-.12-.06-.21-.11-.2-.05 0-.09.1-.08.22Z" fill="#271D1D"/><path d="M37.31 38.58c-.1.02-.2.08-.28.17a.23.23 0 0 1-.09.07c-.44.2-.8.2-.8.82l-.87-.02c-.03 0-.05-.01-.06-.05l-.07-.27a.2.2 0 0 1 .12-.22 10.75 10.75 0 0 0 1.92-1.06.08.08 0 0 1 .09.06l.04.5ZM24.36 38.56c.34.22.86.48 1.58.8.06.03.08.08.04.15-.01.04-.04.05-.08.05a14.76 14.76 0 0 1-2.22-.47.08.08 0 0 1-.01-.06l.03-.84.01-.02a.04.04 0 0 1 .06-.02c.3.22.5.35.6.41Z" fill="#AE564C"/><path d="m37.31 38.58.1.75v.06a.09.09 0 0 1-.05.03c-.39.15-.8.22-1.22.22 0-.62.36-.62.8-.82a.23.23 0 0 0 .1-.07c.07-.1.16-.15.27-.17Z" fill="#C6736C"/><path d="M24.82 40.21a.16.16 0 0 0-.24.13l-.01.21c0 .05-.03.07-.07.07-.24-.01-.41-.07-.5-.17-.22-.22-.28-.72-.29-1.04a.09.09 0 0 1 .04-.06.09.09 0 0 1 .07-.02c.66.22 1.3.35 1.94.4.14 0 .2.07.17.2l-.08.5c-.03.15-.12.22-.28.2-.37-.04-.49-.27-.75-.42ZM36.23 40.45c-.14.01-.19.1-.16.26l.03.13c.01.04 0 .06-.05.05-.57-.07-.72-.47-.76-.92a.07.07 0 0 1 .04-.07h.04c.67.04 1.33-.01 1.99-.19a.11.11 0 0 1 .13.06c.15.33.14.85-.17 1.1-.3.23-.79-.22-.98-.38a.14.14 0 0 0-.1-.04ZM30.22 41.2l.01.13a.07.07 0 0 1-.02.06.07.07 0 0 1-.07.02c-.42-.1-.63-.4-.62-.87a.06.06 0 0 1 .03-.05h.02l1.92.09c.16 0 .23.08.2.24l-.07.4c-.04.23-.18.33-.42.29a1 1 0 0 1-.7-.42.16.16 0 0 0-.26.01.16.16 0 0 0-.02.1Z" fill="#805962"/></svg>