<svg width="112" height="112" viewBox="0 0 56 56" xmlns="http://www.w3.org/2000/svg"><path d="M43 34.46A8.53 8.53 0 0 1 34.44 43H21.56A8.57 8.57 0 0 1 13 34.46V21.54A8.53 8.53 0 0 1 21.56 13h12.88A8.57 8.57 0 0 1 43 21.54v12.92Z" fill="#EE1E25"/><path d="M22.07 23c.13 0 .33.03.58.08a5.04 5.04 0 0 0 1.18.11l.3 1.56v.01h-.01v.01h-.01l-.5.12h-.01l-1.12-1.06c-.2-.18-.42-.26-.65-.21-.15.02-.3.1-.43.23a.87.87 0 0 0-.26.45c-.02.12.05.25.2.38.19.15.45.3.8.48l.63.3c.16.08.35.18.58.32.47.29.8.6 1 .96.1.17.14.36.16.56 0 .2-.02.4-.08.6-.16.5-.6.84-1.33.99a5.56 5.56 0 0 1-2.7-.12.74.74 0 0 0-.4.05h-.01v-.01l-.26-1.64v-.01l.47-.01h.01l.01.01c.16.2.32.38.5.54.28.28.56.46.82.54a1.96 1.96 0 0 0 1.18-.17c.17-.1.27-.22.28-.38.01-.16-.05-.31-.19-.46-.15-.15-.38-.3-.69-.45l-.3-.15c-.38-.17-.67-.31-.85-.42a3.88 3.88 0 0 1-.79-.58 1.2 1.2 0 0 1-.4-.97c.03-.37.17-.69.42-.95.23-.25.52-.43.87-.55.32-.12.65-.17 1-.16Zm4.74 0v.01c.02.15.02.26.01.34a4.56 4.56 0 0 0 0 .52l.24.01h.03l.97-.45c.1-.05.24-.1.4-.14.46-.14.91-.13 1.36.04.22.08.4.2.56.37.19.22.33.3.43.24a20.19 20.19 0 0 0 1.06-.52 2.3 2.3 0 0 1 1.23-.22c.46.06.8.28 1.05.66.13.2.22.45.27.73.03.14.04.39.04.74v2.25c0 .4.04.68.12.88.12.3.34.44.65.43h.01V28.98a123.32 123.32 0 0 1-3.14 0v-.1c.5-.06.75-.49.75-1.3v-2.31c0-.21-.06-.41-.17-.59a1 1 0 0 0-.9-.48c-.25 0-.48.05-.68.14-.25.12-.4.3-.48.54-.02.07-.03.23-.03.45v2.41c0 .28.07.52.2.73a.8.8 0 0 0 .56.4l.01.01v.1H28.3v-.13c.46-.05.7-.42.72-1.13a324.2 324.2 0 0 0-.02-2.67.98.98 0 0 0-.35-.58 1.36 1.36 0 0 0-.59-.28.95.95 0 0 0-.34 0c-.2.02-.4.1-.56.24a.92.92 0 0 0-.34.53l-.02.28v2.34c0 .32.07.61.22.86.16.3.39.45.67.46a.01.01 0 0 1 0 .02V28.97h-.02l-3.32.03v-.01l-.03-.13v-.01h.01l.14-.02a.75.75 0 0 0 .6-.5c.08-.2.13-.49.13-.86l.02-3.22-.02-.02-.66-.14h-.01v-.5l.13-.03a87 87 0 0 0 .6-.06c.17-.02.3-.05.43-.1.1-.03.25-.12.44-.26a15.4 15.4 0 0 1 .2-.13l.04-.01h.44Zm11.28.01c.3-.02.63 0 .97.06.34.07.65.16.95.27a2.08 2.08 0 0 1 .86.79c.13.25.13.47-.01.66-.1.13-.27.22-.5.27-.2.04-.39.05-.58.03a.37.37 0 0 1-.22-.12c-.11-.1-.2-.23-.28-.36l-.1-.2c-.17-.28-.3-.48-.4-.6a.56.56 0 0 0-.44-.18c-.41 0-.8.17-1.16.5a2.08 2.08 0 0 0-.7 1.64c.04.64.23 1.11.58 1.42.24.21.56.37.95.47.34.08.7.13 1.08.14a2.6 2.6 0 0 0 .94-.36 1.97 1.97 0 0 0 .6-.6c.2.01.32.1.36.24.01.04.01.08-.01.12a3.72 3.72 0 0 1-1.56 1.48c-.42.22-.84.32-1.26.32-.48 0-.92-.08-1.32-.24A2.9 2.9 0 0 1 35.7 28c-.33-.36-.54-.79-.64-1.28-.1-.48-.08-.97.06-1.48.17-.65.53-1.18 1.08-1.58.5-.37 1.13-.58 1.88-.64Zm-20.34-1h.01l-.01 1.09c0 .15.03.22.12.22l1.5-.01v.74h-1.5c-.08 0-.12.03-.13.1l-.02.09v2.45c0 .33.04.6.12.78.1.26.28.43.55.5a.9.9 0 0 0 .6-.03c.07-.03.15-.08.23-.15h.01l.1.37v.02l-.26.24c-.5.44-1.12.62-1.83.54-.7-.08-1.13-.4-1.32-.96-.06-.18-.09-.4-.1-.64l.01-3c0-.18-.05-.28-.16-.28a75.09 75.09 0 0 1-.67-.04v-.43l1.35-.64.14-.1a2.82 2.82 0 0 0 .54-.87h.72ZM39 34H18v1h21v-1Z" fill="#fff"/></svg>