<svg width="112" height="112" viewBox="0 0 56 56" xmlns="http://www.w3.org/2000/svg"><circle cx="28" cy="28" r="17" fill="url(#b)"/><path d="M42.65 28c0-8.4-6.69-15.2-14.94-15.2S12.77 19.6 12.77 28c0 8.4 6.7 15.2 14.94 15.2v.6h-.4a15.67 15.67 0 0 1-15.13-15.4V28c0-8.73 6.95-15.8 15.53-15.8h.4c8.4.22 15.14 7.2 15.14 15.8v.4c-.22 8.55-7.1 15.4-15.54 15.4v-.6c8.25 0 14.94-6.8 14.94-15.2Z" fill="url(#c)"/><path d="M26.56 39.84c.38.04.76.06 1.15.06v.8h-.32c-.3 0-.6-.02-.9-.05l.07-.8Zm2.3 0 .08.8c-.4.05-.81.07-1.23.07v-.8c.39 0 .77-.03 1.15-.07Zm-5.27-.7c.7.27 1.45.48 2.22.6l-.13.8c-.82-.14-1.61-.35-2.37-.64l.06-.16.22-.6Zm8.52.76c-.75.29-1.54.5-2.36.64l-.13-.8c.77-.12 1.5-.33 2.21-.6l.28.76ZM20.9 37.68c.62.45 1.28.84 1.98 1.16l-.32.74c-.75-.35-1.46-.77-2.12-1.25l.46-.65Zm14.09.65c-.66.48-1.37.9-2.12 1.25l-.33-.74c.7-.32 1.37-.71 1.99-1.16l.46.65Zm-16.32-2.78c.48.6 1.03 1.16 1.62 1.65l-.5.62a12.68 12.68 0 0 1-1.73-1.76l.6-.51Zm18.7.51c-.52.64-1.1 1.23-1.73 1.76l-.5-.62c.59-.5 1.13-1.05 1.62-1.65l.61.51Zm-20.32-3.15c.32.72.7 1.4 1.15 2.02l-.64.47c-.48-.67-.89-1.4-1.23-2.15l.72-.34Zm22.04.34c-.34.76-.75 1.48-1.22 2.15l-.65-.47c.45-.63.83-1.3 1.15-2.02l.72.34Zm-22.92-3.31c.12.78.32 1.53.59 2.25l-.74.29a12.8 12.8 0 0 1-.63-2.41l.78-.13Zm23.87.13a12.8 12.8 0 0 1-.63 2.4l-.37-.13-.37-.15c.26-.72.46-1.47.59-2.25l.78.13ZM15.22 28c0-.42.02-.84.06-1.25l.79.08a12.24 12.24 0 0 0 0 2.34l-.8.08-.05-.92V28Zm24.98.33c0 .3-.03.61-.05.92l-.8-.08a12.28 12.28 0 0 0 0-2.34l.8-.08c.03.41.06.83.06 1.25v.33ZM16.76 23.8c-.27.72-.47 1.47-.6 2.25l-.77-.13c.13-.83.34-1.64.63-2.4l.74.28Zm22.65-.29c.28.77.5 1.58.63 2.4l-.78.14c-.13-.78-.33-1.53-.6-2.25l.75-.29Zm-21.2-2.45c-.45.63-.84 1.3-1.16 2.02l-.36-.17-.36-.17c.34-.76.75-1.48 1.23-2.15l.64.47Zm19.66-.47c.47.67.88 1.4 1.22 2.15l-.72.34c-.32-.72-.7-1.4-1.15-2.02l.65-.47Zm-17.58-1.8c-.6.5-1.14 1.05-1.62 1.65l-.61-.51c.51-.65 1.1-1.24 1.73-1.76l.5.62Zm15.35-.62c.63.52 1.21 1.11 1.73 1.76l-.61.51c-.49-.6-1.03-1.16-1.63-1.65l.5-.62Zm-13.08-1.76.32.74c-.7.32-1.36.71-1.98 1.16l-.46-.65c.58-.43 1.2-.8 1.86-1.12l.26-.13Zm10.31 0c.75.35 1.46.77 2.12 1.25l-.46.65c-.62-.45-1.29-.84-1.99-1.16l.33-.74Zm-7.06-.16c-.77.12-1.51.33-2.22.6l-.28-.76c.76-.29 1.55-.5 2.37-.64l.13.8Zm3.94-.8c.82.14 1.6.35 2.36.64l-.27.76c-.71-.27-1.45-.48-2.22-.6l.13-.8Zm-1.71-.16c.3 0 .6.02.9.05l-.08.8a11.65 11.65 0 0 0-2.3 0l-.07-.8c.4-.04.8-.06 1.22-.06h.32Z" fill="#9B7014"/><path d="M33.84 23.07h-5.13v12.66h-1.6V23.07h-5.14v-1.64h11.87v1.64Z" fill="url(#d)"/><path fill="#A07A21" d="M24.54 27.11h2.08V28h-2.08zM24.54 29.23h2.08v.89h-2.08zM28.96 27.11h2.08V28h-2.08zM28.96 29.23h2.08v.89h-2.08z"/><path d="M24.81 37.14v.52h-1.73v-.52h1.73Zm7.33 0v.52H30.7v-.52h1.43Zm-7.33-.77v.52h-2.93v-.52h2.93Zm9.15 0v.52H30.7v-.52h3.25Zm-7.77-1v.53h-5.5v-.52h5.5Zm8.92 0v.53h-5.37v-.52h5.37Zm-10.57-.94v.52h-4.97v-.52h4.97Zm-.14-1.36 1.15 1.36h.64v.52h-.88l-1.15-1.35h-5.3v-.53h5.54Zm11.55 1.36v.52h-6.39v-.52h6.4Zm-4.35-1.36v.53h-2.22v-.53h2.22Zm5.24 0v.53h-3.6v-.53h3.6ZM25.54 32l.83.84-.37.37-.67-.69h-7.09V32h7.3Zm10.63.22v.53h-6.79v-.53h6.8ZM19.88 30.6v.52h-2.22v-.52h2.22Zm.93-1.18.07.1.86 1.08h4.45v.52h-4.7l-.93-1.17h-3.2v-.53h3.45Zm9.9 1.18v.52h-1.33v-.52h1.33Zm1.79-.95.07.07 1 .88h4.2v.52h-4.4l-.07-.06-1-.89h-.7v-.52h.9Zm5.8 0v.52h-4.34v-.52h4.35Zm-14.38-.23v.53h-1.6v-.53h1.6Zm0-1.44v.52h-6.79v-.52h6.8Zm10.04 0v.52H31.6v-.52h2.36Zm4.61 0v.52h-3.46v-.52h3.46ZM20.68 26.8v.52h-3.55v-.52h3.55Zm3.24 0v.52h-2.04v-.52h2.04Zm14.16-1.18v.53h-2.03l-1.16 1.1-.08.07h-3.2v-.52h3l1.17-1.1.07-.08h2.23Zm.23 1.18v.52h-2.14v-.52h2.14Zm-12.12-1.18v.53H23.7v-.53h2.49Zm4.75 0v.53h-1.38v-.53h1.38Zm6.83-1.49v.53h-2.54l-1.07 1.39-.08.1h-2.21v-.53h1.96l1.08-1.39.07-.1h2.8Zm-11.58 0v.53h-3.76l-1.02 1.03h-4.06v-.52h3.85l1.02-1.04h3.97Zm-5.5 0v.53h-3.03v-.53h3.02Zm12.78 0v.53h-3.9v-.53h3.9ZM21.3 22.96v.52h-3.06v-.52h3.06Zm16.07 0v.52H34.4v-.52h2.97ZM21.3 21.65v.52h-2.44v-.52h2.44Zm15.32 0v.52H34.4v-.52h2.22Zm-13.94-1.4v.52h-2.49v-.52h2.49Zm13.05 0v.52h-2.7v-.52h2.7Zm-13.05-1.09v.53H21.3v-.53h1.38Zm11.72 0v.53h-1.38v-.53h1.38Z" fill="#AA8424"/><path d="M28.7 19.74v-1.85h-.75v2.75h-.2v-2.75h-.72v1.87c0 .54-.43.98-.96.98a.97.97 0 0 1-.96-.98V17.9h-.79v2.75h-.2v-2.75h-.88v-.2h2.07v2.07c0 .43.34.78.76.78s.77-.35.77-.78V17.7h2.06v2.05c0 .44.35.8.79.8a.8.8 0 0 0 .78-.8v-2.05h1.93v.2h-.82v2.75h-.2v-2.75h-.7v1.85a1 1 0 0 1-1 1 1 1 0 0 1-.98-1Z" fill="#9B7014"/><defs><linearGradient id="a" x1="10.42" y1="9.71" x2="68.15" y2="76.02" gradientUnits="userSpaceOnUse"><stop stop-color="#1A1E21"/><stop offset="1" stop-color="#06060A"/></linearGradient><linearGradient id="b" x1="38.8" y1="14.18" x2="15.88" y2="38.86" gradientUnits="userSpaceOnUse"><stop stop-color="#ECD666"/><stop offset="1" stop-color="#B0892C"/></linearGradient><linearGradient id="c" x1="36.75" y1="14.91" x2="18.96" y2="40.01" gradientUnits="userSpaceOnUse"><stop stop-color="#D9B353"/><stop offset="1" stop-color="#643800"/></linearGradient><linearGradient id="d" x1="27.91" y1="21.43" x2="25.32" y2="34.76" gradientUnits="userSpaceOnUse"><stop stop-color="#B89527"/><stop offset="1" stop-color="#9A731F"/></linearGradient></defs></svg>