<svg width="112" height="112" viewBox="0 0 56 56" xmlns="http://www.w3.org/2000/svg"><path fill-rule="evenodd" d="M28 44a16 16 0 1 0 0-32 16 16 0 0 0 0 32Zm0 1a17 17 0 1 0 0-34 17 17 0 0 0 0 34Z" fill="url(#al3k3zjpo)"/><path d="M19 29v-9l9 8.5V37l-9-8Z" fill="url(#bl3k3zjpo)"/><path d="M19 28.94V29l9 8 4.5-4.5-3.58-3.32c-.11-.04-.81-.64-.92-.68-1.36-.52-2.18-.5-4-.5-2.04 0-3.85.44-5 .94Z" fill="url(#cl3k3zjpo)"/><path d="M37 29v-9l-9 8.5-4.5 4.5 4.5 4 9-8Z" fill="url(#dl3k3zjpo)"/><path d="M37 28.64V29l-9 8-4.5-4 4.5-4.5c1.38.48 3.56 1.5 5 1.5s2.8-.6 4-1.36Z" fill="url(#el3k3zjpo)"/><defs><linearGradient id="al3k3zjpo" x1="28" y1="11" x2="28" y2="45" gradientUnits="userSpaceOnUse"><stop stop-color="#EA7131"/><stop offset="1" stop-color="#F6B21E"/></linearGradient><linearGradient id="bl3k3zjpo" x1="19" y1="20" x2="28" y2="36.5" gradientUnits="userSpaceOnUse"><stop stop-color="#F2AB20"/><stop offset=".48" stop-color="#CA7824"/></linearGradient><linearGradient id="cl3k3zjpo" x1="17.73" y1="27" x2="20.52" y2="38.86" gradientUnits="userSpaceOnUse"><stop offset=".17" stop-color="#F1A124"/><stop offset=".54" stop-color="#EA7330"/></linearGradient><linearGradient id="dl3k3zjpo" x1="36.5" y1="20" x2="28" y2="36.5" gradientUnits="userSpaceOnUse"><stop stop-color="#F16833"/><stop offset="1" stop-color="#F6AE20"/></linearGradient><linearGradient id="el3k3zjpo" x1="35" y1="29.2" x2="26.67" y2="31.33" gradientUnits="userSpaceOnUse"><stop stop-color="#EB7130"/><stop offset=".48" stop-color="#E3782D"/><stop offset="1" stop-color="#D77F27"/></linearGradient></defs></svg>