<svg width="112" height="112" viewBox="0 0 56 56" xmlns="http://www.w3.org/2000/svg"><path d="m27.47 14.73-.25.5a.4.4 0 0 1-.35.23c-.14.01-.28 0-.4-.04-.16-.04-.2-.13-.13-.28.09-.17.2-.42.32-.77.13-.37.25-.65.35-.83.24-.46.46-.97.65-1.54.12-.37.32-.67.59-.9.1-.1.22-.12.35-.08.14.03.23.12.27.25l.16.5c.2.63.38 1.1.53 1.4.18.35.3.73.37 1.13.04.2.14.45.3.78l.1.2c.08.16.03.24-.15.24h-.5c-.17-.01-.27-.1-.3-.25a1.35 1.35 0 0 0-.23-.53.2.2 0 0 0-.17-.09l-1.3-.04a.2.2 0 0 0-.2.12Zm1.5-.96c-.03-.11-.1-.27-.19-.48a4.1 4.1 0 0 1-.23-.63c-.1-.36-.19-.36-.29 0a3 3 0 0 1-.48.98c-.13.18-.08.28.14.28l.94.01c.11 0 .15-.05.12-.16ZM24.63 12.44c.29.96.5 1.96.66 3 .02.17-.05.26-.2.3l-.32.09c-.19.05-.3-.02-.32-.22a18.59 18.59 0 0 0-.69-3.05c-.01-.06-.06-.08-.12-.07l-.74.13c-.17.03-.28-.05-.3-.22l-.05-.26c-.04-.22.06-.34.28-.37.82-.09 1.64-.26 2.45-.52.1-.03.16 0 .2.08l.24.49c.05.07.02.13-.06.16l-.97.34c-.06.02-.08.06-.06.12ZM32.06 14.98c-.07.24.01.4.25.45l1.3.34c.2.05.26.17.2.36l-.06.17c-.07.2-.2.28-.41.24-.77-.18-1.56-.47-2.36-.88-.08-.04-.1-.1-.06-.18.22-.4.39-.82.5-1.26.07-.28.2-.68.42-1.2.22-.55.36-.96.42-1.25.02-.08.07-.12.15-.1l.34.05c.32.05.42.23.3.53a24.62 24.62 0 0 0-1 2.73ZM22.1 15.83c-.3.31-.69.54-1.15.67-.13.04-.2.13-.2.26 0 .22.05.42.12.62.03.05.01.1-.04.13l-.64.43c-.07.04-.1.03-.12-.05a55 55 0 0 1-.56-4.22l.01-.21a.41.41 0 0 1 .3-.3.6.6 0 0 1 .47.04c.33.16.61.4.84.69.06.07.13.12.2.14.28.1.49.28.62.54.04.08.1.14.19.18l.35.16c.07.03.13.08.17.15.17.28.4.47.71.59.25.09.3.24.13.45a.74.74 0 0 1-.62.28.18.18 0 0 1-.17-.09 1.51 1.51 0 0 0-.46-.48c-.05-.03-.1-.03-.15.02Zm-1.59-.07c.01.06.04.08.1.05l.98-.4c.07-.02.08-.06.02-.11l-1.14-1.04c-.1-.08-.13-.06-.12.06l.16 1.44ZM37.05 14.07l-2.01 3.25c-.07.1-.16.13-.27.07l-.4-.2c-.13-.07-.15-.17-.07-.3l2.1-3.36c.1-.15.2-.16.33-.03l.3.32c.07.07.08.16.02.25ZM38.48 16.58c-.03 0-.05.01-.07.03a38.9 38.9 0 0 1-1.96 1.88c-.07.06-.13.05-.2-.02l-.33-.41c-.06-.08-.05-.15.02-.22l2.88-2.75c.06-.05.12-.06.19 0 .24.17.37.38.4.6.05.5-.09 1.34-.44 2.53l-.1.34c-.15.54-.03.6.36.22l1.46-1.46c.13-.13.26-.13.4 0l.24.25c.12.1.12.22 0 .33-.71.7-1.45 1.4-2.2 2.12-.22.2-.46.4-.71.58a.15.15 0 0 1-.18 0c-.33-.2-.45-.48-.39-.84.17-.95.41-1.96.74-3.02.03-.1 0-.15-.1-.16ZM16.4 16.69c-.54.69-.62 1.3-.24 1.85.3.45.74.67 1.3.65.16-.01.38-.1.67-.29l.32-.19a.23.23 0 0 0 .13-.16l.15-.6c.02-.1.08-.13.17-.12l.48.07c.1.01.14.06.14.16 0 .82-.48 1.43-1.43 1.82-.54.22-1.1.2-1.67-.04a2.14 2.14 0 0 1-1.25-1.41c-.16-.53-.14-1 .05-1.42.45-.97 1.02-1.44 1.73-1.4.07 0 .1.04.13.1.05.2.08.4.06.6 0 .06-.04.1-.1.11l-.07.01c-.29.04-.48.13-.58.26ZM16.98 26.37c.1.27.14.27.14-.03.02-.92.44-1.39 1.24-1.38h3.47c.06 0 .11-.03.15-.08.16-.21.36-.55.59-1a6.83 6.83 0 0 1 2.11-2.56 8.69 8.69 0 0 1 6.63-1.4c.8.14 1.58.34 2.37.6a11.1 11.1 0 0 1 3.76 2.1 8.3 8.3 0 0 1 2.48 3.46c.14.38.22.76.24 1.15.01.2-.05.38-.19.5a.55.55 0 0 1-.52.15 7.44 7.44 0 0 0-3.49.01l-1.92.5c-.27.07-.66.23-1.15.46-.39.18-.7.3-.9.38-.15.04-.35.14-.6.3-.23.14-.42.23-.55.28a7.5 7.5 0 0 1-3.13.4 5.86 5.86 0 0 1-2.96-.98 2.28 2.28 0 0 1-.65-.68.33.33 0 0 0-.38-.16c-.07.02-.1.1-.1.26 0 .05.01.1.04.13.6.73 1.52 1.31 2.77 1.74.1.04.11.08.01.13-.69.34-1.16.86-1.42 1.56-.28.75-.5 1.58-.68 2.49-.1.53-.36 1.1-.78 1.73a3.3 3.3 0 0 1-1.16 1.04c-.7.38-1.45.48-2.28.28-.11-.03-.13-.08-.05-.16a7.55 7.55 0 0 0 1.51-2.2c.17-.36.25-.79.27-1.3.01-.73.04-1.43.08-2.1.03-.56-.07-.59-.31-.08a5 5 0 0 0-.46 1.9c-.03.67-.3 1.16-.8 1.48-.06.03-.11.03-.16-.01a13.1 13.1 0 0 1-1.99-1.96 2.62 2.62 0 0 1-.37-.6c-.05-.1-.14-.23-.28-.39a1.61 1.61 0 0 1-.3-.46 13.3 13.3 0 0 0-.34-.84 7.7 7.7 0 0 1-.52-1.49c-.28-1.5-.4-2.96-.37-4.39 0-.24-.12-.37-.36-.4-1.42-.12-2.29-.37-2.62-.73a2.6 2.6 0 0 0-.24-.23c-.23-.2-.36-.36-.41-.5-.2-.62-.3-1.25-.3-1.89 0-.07.03-.1.1-.06.79.32 1.66.48 2.62.5.42 0 .83.08 1.22.22.07.03.12.08.14.15l.21.82c.04.14.12.19.26.14.22-.1.4-.35.51-.77l.05-.18a.23.23 0 0 1 .13-.14c.33-.16.67-.3 1.03-.4.72-.2 1.43-.4 2.12-.64.08-.03.13 0 .14.08.2 1.43-.07 2.36-.79 2.8-.47.29-.98.41-1.5.36-1.29-.1-1.94.22-1.96.98 0 .2.06.23.2.08.1-.1.22-.18.35-.2.1-.02.13.02.08.11-.16.33-.17.7-.03 1.12Zm10.7-5.28.5.1c.08.02.11 0 .1-.09-.02-.15-.11-.22-.27-.21-.12 0-.23.03-.34.07-.14.06-.14.1.01.13Zm-.8 1.03a4.13 4.13 0 0 1 2.23-.44c.08 0 .1-.02.05-.09l-.05-.08a.15.15 0 0 0-.09-.07c-.85-.21-1.58 0-2.18.62-.1.1-.09.13.05.06Zm.96 1c-.88.99-1.2 1.93-.97 2.82l.02.02c.03.03.06.03.1 0a.07.07 0 0 0 .03-.05c.05-1.04.39-1.8 1-2.26.2-.15.37-.31.53-.5.14-.17.3-.24.49-.2.2.04.22.13.07.27-.17.17-.38.3-.6.36a.26.26 0 0 0-.17.14c-.12.24-.26.46-.43.65-.36.45-.46.94-.3 1.49.32 1.04 1.24 1.76 2.77 2.15.34.1.33.15-.02.18-.7.06-1.35-.08-1.96-.43-.23-.13-.25-.1-.07.1.26.29.8.47 1.63.56l.2.02c.16.02.17.07.04.16-.08.05-.16.12-.23.19-.13.14-.1.18.08.11.54-.2 1.09-.4 1.66-.59.29-.09.52-.26.7-.5.12-.18.28-.22.46-.14.05.03.1.03.15.01.64-.18 1-.68 1.09-1.5 0-.09.06-.14.15-.15.7-.08 1.22-.39 1.52-.93.1-.18.06-.23-.13-.13l-.22.16c-.62.56-1.27.69-1.96.38a3.06 3.06 0 0 1-1.22-.9 1 1 0 0 0-.3-.25 1.9 1.9 0 0 1-.4-.38 1.8 1.8 0 0 0-.45-.4c-.1-.06-.24-.16-.41-.3-.22-.2-.4-.31-.55-.37a5.43 5.43 0 0 0-1.91-.39c-.14 0-.35.04-.63.11a3.76 3.76 0 0 1-.53.13c.14.02.22.07.24.15.03.07 0 .14-.07.2-.12.1-.18.16-.2.19-.17.4-.1.43.2.13a6.12 6.12 0 0 1 .52-.43h.05c.06.03.07.07.03.12Zm6.2.49.58.65h.02c.17-.15.16-.33-.03-.54l-.02-.03c-.2-.22-.37-.25-.54-.1v.02ZM39.9 21.98l-.63-.05a.5.5 0 0 1-.44-.3l-.1-.23c-.07-.16-.02-.25.15-.25l3.69-.06c1.07-.02 1.23.35.47 1.1l-2.61 2.62c-.06.06-.11.05-.16-.02-.32-.53-.24-.94.23-1.25.05-.03.07-.08.03-.14a4.9 4.9 0 0 1-.45-1.25c-.02-.1-.08-.16-.18-.17Zm1.1.7c.02.15.1.2.24.17a.6.6 0 0 0 .4-.28c.16-.24.36-.45.6-.63.17-.13.15-.18-.06-.15-.4.07-.83.1-1.3.1-.11 0-.14.05-.09.16.1.2.18.4.21.64Z" fill="#fff"/><path d="M31.48 26.4c0 .46.13.69.37.7.11 0 .13.03.04.1-.3.28-.74.41-1.3.4a2.18 2.18 0 0 1-1.33-.4 4.3 4.3 0 0 0-.32-.22 1.83 1.83 0 0 1-.64-.6 1.85 1.85 0 0 1 .07-1.97c.27-.42.61-.7 1.05-.87.5-.19.91-.1 1.24.26.23.24.47.45.74.63.07.05.1.12.1.2-.02.5-.03 1.1-.02 1.77ZM32.22 26.8v-1.48c0-.09.03-.1.1-.05l.75.58c.03.03.03.05.01.08l-.3.53-.02.02-.44.37c-.06.06-.1.04-.1-.05ZM13.88 26.97c.5-.16.92-.36 1.26-.62.12-.08.18-.05.18.09l.03.66c0 .13-.05.21-.17.26l-1.06.43a.2.2 0 0 0-.12.13c-.05.18-.07.37-.04.56.02.1.07.15.17.14l1.06-.04c.13-.01.2.05.2.19l.03.5c0 .11-.05.17-.17.17h-4.1c-.1 0-.15-.05-.14-.16v-.58c-.03-.74.05-1.26.23-1.56.31-.54.78-.79 1.38-.74a2 2 0 0 1 1.1.54c.05.04.1.05.16.03Zm-1.99 1.61 1.16.05c.07 0 .1-.03.11-.1l.02-.54c.02-.47-.19-.71-.63-.73h-.05c-.44-.02-.67.2-.69.67l-.02.54c0 .07.03.1.1.11ZM33.1 27.19c-.13.16-.22.3-.2.33.03.02.15-.1.28-.26.13-.17.22-.31.2-.33-.03-.02-.15.1-.28.26ZM41.66 30.01c.15-.04.16-.1.03-.19l-1.11-.7a.36.36 0 0 1-.18-.4.36.36 0 0 1 .3-.32c.67-.16 1.33-.35 1.98-.55.26-.08.66-.17 1.2-.27.44-.08.76-.15.98-.21.08-.02.12.01.13.09.02.21 0 .43-.04.67a.16.16 0 0 1-.15.13c-1 .13-1.91.32-2.74.55-.32.1-.32.2-.01.3l.16.06c.16.05.29.1.37.17.42.32.94.6 1.56.85.3.12.43.34.41.66l-.02.28c-.01.25-.12.3-.32.14-.7-.55-1.25-.77-1.68-.66l-.43.1-.44.1c-.1.03-.11.08-.03.15.31.26.65.45 1.02.6.17.06.4.2.7.39.31.2.56.34.75.4.14.05.2.15.19.3l-.05.47c0 .11-.07.16-.18.13-.17-.03-.32-.1-.45-.18-.23-.15-.58-.36-1.06-.62-.48-.27-.83-.47-1.05-.62-.31-.2-.65-.37-1.02-.5-.17-.06-.24-.18-.2-.36.07-.31.23-.55.46-.71.13-.1.34-.16.62-.2.13-.01.23-.03.3-.05ZM37.43 28.63c.18-.01.32-.1.31-.17 0-.08-.15-.13-.33-.1-.18 0-.32.08-.31.16 0 .08.16.13.33.11ZM36.5 28.67c.13-.01.23-.09.22-.17 0-.08-.11-.14-.24-.13-.12.02-.22.09-.21.17 0 .08.11.14.24.13ZM38.34 28.7c.13 0 .25-.05.26-.14.02-.09-.08-.17-.22-.2-.13-.01-.25.05-.26.14-.01.09.09.17.22.2ZM39.22 28.85a.21.21 0 1 0 0-.43.21.21 0 0 0 0 .43ZM35.74 28.5l-1.46.4a.05.05 0 0 0-.04.06l.02.08c.01.03.04.04.07.04l1.46-.4c.03 0 .05-.03.04-.06l-.02-.08a.05.05 0 0 0-.07-.04ZM35.25 31.89l-.8 1.15a11.04 11.04 0 0 1-4 3.84 3.8 3.8 0 0 1-2.02.36c-.1-.01-.1-.04-.02-.1a11.7 11.7 0 0 0 3.7-3.63c.14-.22.26-.45.37-.7.13-.29.1-.3-.1-.05a13.55 13.55 0 0 1-4.75 4.15 3.9 3.9 0 0 1-2.43.29c-.08-.01-.12-.06-.13-.13-.13-.96-.03-2.25.32-3.89.14-.7.43-1.27.85-1.71.48-.5 1.05-.74 1.7-.7a6.71 6.71 0 0 0 2.8-.36c.46-.17 1.16-.36 2.09-.57l1.24-.3c1.32-.37 2.78-.46 4.4-.27.44.05.94.2 1.48.42.07.03.09.08.06.15a9.41 9.41 0 0 1-4 5.01c-.11.07-.13.05-.05-.05.71-.99 1.26-2.03 1.64-3.12.14-.4.1-.43-.11-.05l-.65 1.13c-.42.74-1.06 1.52-1.91 2.32a6.25 6.25 0 0 1-2.96 1.57c-.08.01-.09 0-.03-.05a10.54 10.54 0 0 0 2.83-3.62c.22-.44.4-.77.53-.99a.06.06 0 0 0 0-.06l-.03-.05h-.02ZM13.46 33.15c.19-.05.24-.15.15-.32a4.4 4.4 0 0 1-.4-1.16c-.03-.13.01-.22.14-.27l.34-.12c.14-.05.23 0 .25.14.1.47.26.94.5 1.42 0 .02.03.03.06.02l.85-.33c.03-.01.04-.03.03-.05l-.62-1.72c-.07-.21 0-.36.2-.44l.23-.09c.16-.06.26 0 .3.16.2.72.48 1.51.82 2.38.09.22.02.37-.22.44l-3.65 1.15c-.07.02-.11 0-.14-.06-.4-.85-.68-1.7-.83-2.55-.03-.16.04-.26.2-.29l.28-.05c.16-.02.26.04.3.2l.32 1.44c.04.2.17.28.37.23l.52-.13ZM40.43 34.7l-1.15-.81c-.07-.05-.09-.12-.05-.19l.2-.39c.07-.15.18-.18.32-.09l3.39 2.15c.06.04.07.08.02.14l-.35.5c-.03.05-.07.06-.11.03l-1.33-.78c-.1-.06-.16-.04-.2.07-.18.48-.46.9-.83 1.26-.22.2-.19.36.1.47.42.16.81.39 1.19.7.06.05.07.12.02.19l-.33.49c-.04.06-.1.07-.15.02a3.4 3.4 0 0 0-.9-.57 4.1 4.1 0 0 1-.62-.39 4.85 4.85 0 0 0-.49-.31c-.4-.22-.8-.49-1.24-.8-.21-.17-.24-.36-.08-.58l.04-.06c.17-.24.36-.25.57-.06.29.27.58.48.87.63.18.1.33.05.43-.13l.73-1.28c.05-.08.03-.15-.05-.2ZM15.03 37.04H13.8a.4.4 0 0 1-.37-.2l-.25-.38c-.09-.14-.05-.21.11-.21l2.1-.06a.1.1 0 0 0 .1-.06c.28-.6.57-1.3.86-2.1.1-.25.24-.28.43-.1l.14.15c.19.19.23.4.11.64l-.57 1.18c-.09.2-.03.28.18.26.43-.03.83-.04 1.2-.04.28 0 .52.1.72.31.04.04.08.1.1.15.1.24.03.37-.24.38l-1.96.05c-.24 0-.4.11-.5.33a10.4 10.4 0 0 0-.58 1.65c-.07.28-.2.3-.36.07l-.17-.22a.73.73 0 0 1-.1-.74l.36-.93c.04-.09 0-.13-.09-.13ZM35.54 39c.07-.07.19-.14.34-.2.2-.1.35-.2.43-.3.14-.18.3-.32.5-.42.06-.04.08-.1.05-.17l-.23-.52c-.05-.1-.02-.17.07-.23.17-.1.32-.23.43-.4.08-.12.15-.11.2.02.25.6.43 1.24.55 1.9.06.32.2.79.44 1.4l.21.59c.12.35 0 .61-.39.77a.19.19 0 0 1-.16 0c-.64-.28-1.2-.6-1.72-.96-.06-.05-.18-.1-.34-.18-.2-.08-.34-.16-.44-.23-.4-.3-.84-.56-1.32-.74-.13-.05-.15-.13-.05-.23.43-.45.86-.48 1.28-.1.05.04.1.04.15 0Zm1.56-.05c-.04-.1-.1-.12-.18-.06l-.62.48c-.08.07-.08.13 0 .2l1.11.78c.05.04.1.04.15 0 .04-.04.05-.08.03-.14l-.5-1.26ZM19.43 38.39l-2.24 2.5c-.06.07-.12.07-.18.01l-.4-.37c-.07-.05-.07-.11-.02-.18l2.08-2.4c.04-.05.1-.06.15-.03l.57.27c.1.05.12.11.04.2ZM22.84 42.27c.35-.47.69-1.05 1-1.75.1-.22.27-.3.51-.26l.31.07c.2.04.25.15.14.33l-2.09 3.44c-.04.06-.1.08-.17.06-.47-.15-.7-.37-.69-.65l.18-2.51c.01-.1-.03-.12-.1-.07-.32.2-.57.42-.74.67-.08.12-.22.27-.42.44-.23.2-.39.38-.47.53-.13.24-.33.31-.59.23l-.4-.14c-.26-.09-.32-.25-.19-.48.14-.24.28-.63.41-1.16.11-.42.2-.73.3-.93.2-.45.36-.91.49-1.38.02-.1.08-.13.17-.12l.44.06c.19.03.25.13.2.3a10.4 10.4 0 0 1-.73 1.87c-.04.08-.05.15-.04.23.01.06.05.1.11.12.06.01.11 0 .15-.05.36-.43.69-.79 1-1.07.12-.12.24-.26.35-.43.04-.06.1-.1.17-.12.25-.05.48 0 .67.14.06.05.09.1.08.18l-.17 2.4c-.01.15.03.17.12.05ZM33.1 40.59c-.04-.2-.15-.26-.34-.18l-1.45.67c-.09.04-.15.01-.19-.07l-.22-.48c-.04-.08-.02-.13.06-.17.75-.37 1.52-.68 2.31-.92.27-.09.42 0 .46.28.1.62.3 1.22.6 1.8.1.17.2.44.3.81.1.36.19.63.28.8.1.2.04.32-.17.38l-.29.08c-.24.06-.39-.03-.44-.28a7.9 7.9 0 0 0-.79-2.19c-.04-.08-.07-.2-.1-.36l-.02-.17ZM29.2 41.27l-1.86.12c-.12 0-.18-.05-.19-.17l-.01-.42c0-.11.05-.17.16-.18l2.67-.2c.12 0 .18.05.19.16l.31 4.03c.01.12-.04.18-.16.2l-2.68.19c-.11 0-.18-.05-.18-.16l-.03-.43c0-.12.05-.18.16-.19l1.83-.13c.11 0 .17-.07.16-.19l-.05-.65c-.01-.12-.08-.17-.2-.17l-1.44.1c-.12.01-.18-.04-.19-.16l-.01-.4c0-.12.05-.18.16-.19l1.41-.1c.12-.01.17-.07.17-.19l-.04-.7c0-.13-.07-.18-.18-.17Z" fill="#fff"/><defs><linearGradient id="acucmzqcy" x1="10.42" y1="9.71" x2="68.15" y2="76.02" gradientUnits="userSpaceOnUse"><stop stop-color="#1A1E21"/><stop offset="1" stop-color="#06060A"/></linearGradient></defs></svg>