<svg width="112" height="112" viewBox="0 0 56 56" xmlns="http://www.w3.org/2000/svg"><path d="M33.93 11.01c.32.1.48.34.5.72a6.95 6.95 0 0 0-1.55-.25H22.81c-.53 0-.92.1-1.17.28-.6.42-1.13.9-1.61 1.45a.48.48 0 0 1-.16.11.38.38 0 0 0-.17.16c-.06.1-.14.19-.22.28a617.45 617.45 0 0 0-7.01 7c-.18.17-.3.31-.37.45a.42.42 0 0 1-.27.22c-.15.05-.23.15-.23.31v11.1c0 .4.02.79.06 1.14.03.22.14.34.33.38l-.03.14c-.32-.09-.43-.06-.33.07-.42-.1-.63-.45-.63-1.02V21.8c0-.22.14-.38.4-.47a.39.39 0 0 0 .18-.13c.18-.23.48-.55.93-.95l.53-.51c.57-.61 1.17-1.18 1.78-1.71.26-.22.5-.48.72-.77.28-.35.6-.65.98-.88.16-.1.35-.3.57-.6.12-.17.22-.3.3-.38.31-.33.66-.67 1.04-1.02.3-.28.6-.59.9-.92.27-.32.57-.6.92-.84.05-.04.1-.1.12-.16a.5.5 0 0 1 .36-.35.19.19 0 0 0 .14-.14c.04-.13.17-.29.38-.49.15-.13.25-.24.3-.32a.35.35 0 0 1 .3-.16l12.08.01Z" fill="#AA7429"/><path d="M33.93 11.01c.35.02.59.17.7.46a.3.3 0 0 0 .13.16c.18.1.34.23.49.38a332.7 332.7 0 0 0 8.54 8.5c.3.28.52.54.64.76-.05 4.15-.06 8.25-.01 12.28 0 .3-.11.6-.34.9-.16-.04-.23-.18-.21-.42.01-.18-.07-.25-.25-.21a1.9 1.9 0 0 1-.73 0 1 1 0 0 0 .27-.24.49.49 0 0 0 .08-.32 85.7 85.7 0 0 1-.07-5.07l.09-5.27c0-.16.08-.24.25-.24.14 0 .24-.07.3-.24.03-.2.15-.36.36-.48.2-.11.22-.25.05-.41l-9.8-9.82c0-.38-.17-.62-.5-.72Z" fill="#96641F"/><path d="m34.43 11.73 9.8 9.82c.16.16.14.3-.06.41a.67.67 0 0 0-.36.48c-.71-.35-1.15-.61-1.33-.8l-7.4-7.47c-.38-.37-.73-.76-1.08-1.17l-.23-.78c-.02-.08-.07-.1-.15-.09l-.2.05a.2.2 0 0 0-.16.15c-.05.2-.18.31-.38.32-3.22.12-6.41.14-9.57.05-.32-.01-.6-.13-.81-.35-.18-.18-.26-.14-.26.1 0 .3-.12.57-.36.82-.6.64-1.54 1.58-2.82 2.8a91.1 91.1 0 0 0-2.72 2.71c-.92.98-1.83 1.9-2.72 2.78-.3.28-.7.47-1.2.58a.24.24 0 0 0-.18.14.22.22 0 0 0 0 .18c.03.1.1.16.2.18.09.02.16.05.23.1s.1.12.1.2a20.5 20.5 0 0 1 .06 1.29c.06 3.42.05 6.02-.03 7.79-.02.62.05 1.2.21 1.75a.9.9 0 0 0-.6.04.23.23 0 0 0-.14.15c-.06.2-.15.33-.28.4-.2-.04-.3-.16-.33-.38a8.9 8.9 0 0 1-.06-1.15V21.74c0-.16.08-.26.23-.31.12-.04.21-.11.27-.22.06-.14.19-.28.37-.44l.18-.17c2.21-2.25 4.49-4.54 6.83-6.84.08-.09.16-.18.22-.28.04-.07.1-.12.17-.16a.48.48 0 0 0 .16-.11 9.39 9.39 0 0 1 1.61-1.45c.25-.18.64-.27 1.17-.27h10.08c.36 0 .87.08 1.54.24Z" fill="#FED670"/><path d="M34 13c0 .15-.02.26-.08.34a.22.22 0 0 1-.2.1c-.85-.06-2.13-.08-3.83-.06l-2.52-.01a72.75 72.75 0 0 0-4.71.05c-.1 0-.17.03-.24.1a17.2 17.2 0 0 0-2.28 2.44c-.12.16-.34.36-.66.6-.32.22-.54.41-.67.57a8.36 8.36 0 0 1-1.46 1.42c-.22.17-.5.47-.82.9-.22.3-.4.52-.54.66-.7.7-1.44 1.38-2.23 2.04-.22.18-.32.4-.31.63l.03 1.6V33c0 .09.02.17.06.25.25.45.32.84.22 1.18-.26-.33-.5-.55-.75-.66a5.3 5.3 0 0 1-.2-1.75 137.76 137.76 0 0 0-.03-9.08.25.25 0 0 0-.11-.2.61.61 0 0 0-.23-.1.28.28 0 0 1-.2-.18.22.22 0 0 1 0-.18c.04-.08.1-.12.18-.14.5-.1.9-.3 1.2-.58.9-.88 1.8-1.8 2.72-2.78.58-.61 1.5-1.51 2.72-2.7a89.28 89.28 0 0 0 2.82-2.81c.24-.25.36-.53.36-.82 0-.24.08-.28.26-.1.22.22.49.34.8.35 3.17.09 6.36.07 9.58-.05.2-.01.33-.12.38-.32a.2.2 0 0 1 .16-.15l.2-.05c.08-.02.13.01.15.1L34 13Z" fill="#FFFDC5"/><path d="M34 13c.35.4.7.8 1.07 1.17l7.4 7.47c.19.19.63.45 1.34.8-.06.17-.16.25-.3.24-.17 0-.25.08-.25.24l-.09 5.27c-.09.1-.23.12-.43.04a.23.23 0 0 1-.15-.22v-.03c-.05-.57-.2-.93-.45-1.1a.24.24 0 0 1-.11-.2c-.05-.76-.28-1.11-.72-1.06l-.05-2.97c0-.2-.07-.37-.2-.51a24.53 24.53 0 0 0-2.21-2.21c-.19-.16-.48-.25-.88-.27-1-.06-1.54-.57-1.63-1.52-.06-.66-.65-1.51-1.76-2.54l-.44-.42c-.37-.35-.96-.53-1.78-.54a332.46 332.46 0 0 0-8.82.02c-.8 0-1.36.17-1.68.49l-1.74 1.73c-.22.23-.35.59-.4 1.08a2 2 0 0 1-.21.85c-.35.56-.82.83-1.41.82-.5 0-.87.12-1.13.39-.63.65-1.26 1.27-1.87 1.88-.26.25-.39.55-.4.9 0 3.44.01 6.8.05 10.1 0 .46.24.91.7 1.36.64.63 1.22 1.23 1.72 1.8.4.8.59 1.51.58 2.15 0 .03-.02.05-.05.06a.16.16 0 0 0-.04.05l-3.9-3.89c.1-.34.03-.73-.22-1.18a.53.53 0 0 1-.06-.25v-8.63l-.03-1.59c-.01-.24.1-.45.31-.63.8-.66 1.53-1.34 2.23-2.04.14-.14.32-.36.54-.66.33-.43.6-.73.82-.9.51-.38 1-.85 1.46-1.42.13-.16.35-.35.67-.58.32-.23.54-.43.67-.59a17.2 17.2 0 0 1 2.27-2.45c.07-.06.15-.1.24-.1 1.58-.06 3.15-.08 4.71-.04h2.52c1.7 0 2.98.01 3.83.06.08.01.15-.02.2-.09.06-.08.09-.19.08-.34Z" fill="#FFFBA4"/><path d="M41.3 25.62c-.02 2.39-.03 4.76-.02 7.14 0 .54-.16.96-.47 1.26-.56.55-1.13 1.1-1.68 1.66-.33.33-.77.5-1.34.52-.93.03-1.44.63-1.54 1.8-.03.36-.22.72-.57 1.1-.58.6-1.18 1.18-1.8 1.77-.23.2-.48.3-.76.3-3.17.04-6.42.06-9.73.07-.64 0-1.16-.2-1.57-.6a61.26 61.26 0 0 1-1.7-1.7c-.22-.23-.37-.6-.46-1.13-.1-.6-.32-1.03-.64-1.28a1.83 1.83 0 0 0-.87-.27c-.3-.04-.63-.1-.98-.2-.5-.57-1.08-1.17-1.73-1.8-.45-.45-.68-.9-.69-1.37-.04-3.28-.05-6.65-.04-10.08 0-.36.13-.66.39-.91.61-.6 1.24-1.23 1.87-1.88.26-.27.64-.4 1.12-.39.6.01 1.07-.26 1.42-.82a2 2 0 0 0 .22-.85c.04-.5.17-.85.4-1.08.6-.63 1.18-1.2 1.73-1.73.32-.32.88-.48 1.68-.5h.16c2.65-.04 5.54-.04 8.66-.01.82 0 1.41.19 1.78.54l.44.42c1.11 1.03 1.7 1.88 1.76 2.54.1.95.64 1.46 1.63 1.52.4.02.7.1.87.27.76.65 1.5 1.39 2.22 2.2.13.15.2.32.2.52l.05 2.97Z" fill="#D49941"/><path d="M40.64 24.12a.54.54 0 0 1-.19.34c-.19.15-.3.1-.33-.13l-.04-.26-.12-1.13a.31.31 0 0 0-.1-.2l-1.47-1.48c-.4-.4-.96-.54-1.69-.4a1.75 1.75 0 0 1-.72-.24.33.33 0 0 1-.14-.17c-.18-.5-.43-.95-.76-1.36.13-.57.01-1.06-.34-1.47a8.66 8.66 0 0 0-2-1.77l-9.43.03a.8.8 0 0 0-.55.22c-.45.42-.92.88-1.4 1.39-.56.59-.53 1.45.1 2.6a10.82 10.82 0 0 1 .35.7c.31.63.3 1.05-.03 1.26a.5.5 0 0 0-.22.33 38.3 38.3 0 0 0 .06 2.38c.03.43.18.48.45.15.29-.35.61-.68.97-.99.24-.2.59-.54 1.02-1 .35-.37.62-.64.81-.82.32-.29.42-.7.3-1.22.2-.21.42-.12.66.3.04.06.1.1.16.14.16.08.32.12.5.12 1.12.02 2.2.01 3.23-.01a.5.5 0 0 0 .42-.22c.36-.5.62-1.06.77-1.69.05-.2.15-.46.3-.79.09-.2.19-.47.3-.8.11-.38.3-.48.59-.3a9.94 9.94 0 0 1-1.21 3c-.15.24-.17.54-.06.9.07.28.33.6.75.98l.13.1c.6.64 1.21 1.26 1.85 1.87.04.03.1.1.17.2.22.3.42.44.6.44.8-.02 1.02.12.66.42a.73.73 0 0 1-.29.2c-.3.17-.7-.04-1.22-.6-.74-.79-1.5-1.57-2.28-2.36a2.17 2.17 0 0 0-1.16-.67 21.3 21.3 0 0 0-4.04-.08c-.27 0-.47.07-.59.18a84.5 84.5 0 0 0-3.22 3.17.28.28 0 0 0-.08.21l.04 4.67c0 .06.02.12.05.17.25.36.31.64.19.84-.43-.5-.98-.67-1.64-.53.01-.18.12-.36.33-.53.23-.2.36-.43.37-.66.07-1.16.08-2.21.01-3.16-.04-.54-.28-.9-.74-1.05-1.93-.7-3.32-1.22-4.18-1.57-.07-.25-.06-.54.02-.88a.32.32 0 0 1 .09-.16l1.06-1.1c.49-.5 1.24-.46 2.27.15.12.07.3.13.56.18l.27.05c.08.02.12-.01.12-.09v-.08c0-.07-.03-.11-.1-.14-.5-.17-.94-.38-1.34-.62-.68-.4-1.26-.37-1.75.1-.57.56-1.12 1.12-1.66 1.68a.31.31 0 0 0-.09.2c-.03.55-.04 1.1-.04 1.64l.03 7.73c0 .4.2.78.6 1.15.03.43-.1.66-.39.69l-.72-.7a.36.36 0 0 1-.1-.18c-.1-.48-.15-1-.13-1.57.1-3.02.14-6.04.1-9.07 0-.26.08-.49.27-.68l1.57-1.65c.18-.18.49-.28.93-.3.4-.01.7-.09.88-.22.83-.63 1.25-1.36 1.25-2.19 0-.22.08-.4.23-.57l1.63-1.6c.2-.2.55-.3 1.02-.3h.04c3.43.01 6.82.02 10.17 0 .2 0 .38.08.53.23l1.7 1.73c.13.13.2.3.21.5.04.95.48 1.7 1.32 2.24.17.1.43.18.8.23.38.05.65.13.82.26.34.26.8.7 1.37 1.33l.47.52a.3.3 0 0 1 .08.2l.01 1.64Z" fill="#FFFBA4"/><path d="M32.73 15.85c-.19.16-.19.36 0 .62-.05.22-.13.38-.24.47.08-.17.1-.3.05-.4a.17.17 0 0 0-.18-.1c-2.9.03-5.78.03-8.64.02-.24 0-.32.11-.23.34l1.68 4.08c.12.52.02.93-.3 1.22-.19.18-.46.45-.8.82-.44.46-.79.8-1.03 1-.36.3-.68.64-.97.99-.27.33-.42.28-.45-.15a38.4 38.4 0 0 1-.06-2.38.5.5 0 0 1 .22-.33c.33-.21.34-.63.03-1.25a10.61 10.61 0 0 0-.36-.7c-.62-1.16-.65-2.03-.09-2.61.48-.5.95-.97 1.4-1.39a.8.8 0 0 1 .55-.22l9.42-.03Z" fill="#97DE5C"/><path d="M32.73 15.85c.7.43 1.37 1.02 2.01 1.77.35.4.46.9.34 1.47l-1.2 2.4c-.13.27-.05.44.24.5l.23.05c.1.52.12 1 .03 1.43-.11.58-.24.59-.38 0a5.15 5.15 0 0 1-.07-.86c0-.33-.16-.5-.47-.53.19-.52.34-1.02.46-1.51.07-.27.22-.64.45-1.1l.29-.61a.44.44 0 0 0 .02-.27 1.45 1.45 0 0 0-.38-.75l-.19-.2a2.95 2.95 0 0 0-.63-.55.74.74 0 0 1-.26-.3.7.7 0 0 0-.21-.27c-.11-.07-.2-.09-.28-.05-.19-.26-.19-.46 0-.62Z" fill="#45982F"/><path d="M32.5 16.94a2.1 2.1 0 0 0-.4.7c-.28-.19-.48-.1-.6.28-.1.34-.2.6-.3.81-.14.33-.24.6-.3.8-.14.62-.4 1.18-.76 1.68a.5.5 0 0 1-.42.22c-1.03.02-2.11.03-3.24.01-.17 0-.33-.04-.49-.12a.4.4 0 0 1-.16-.15c-.24-.4-.46-.5-.66-.29L23.5 16.8c-.09-.23-.01-.34.23-.34 2.86.01 5.74 0 8.64-.02.09 0 .15.04.18.1.04.1.03.23-.05.4Z" fill="#E5FF9E"/><path d="M32.73 16.47c.08-.04.17-.02.28.05a.7.7 0 0 1 .2.26c.09.15.18.26.28.31.15.09.36.27.62.55l.2.2c.18.2.31.44.37.75.02.1.01.18-.02.27l-.3.62c-.22.45-.37.82-.44 1.09-.12.49-.27.99-.46 1.51a2.1 2.1 0 0 0-1.75.54l-.13-.11c-.42-.38-.68-.7-.75-.98-.1-.36-.09-.66.06-.9.57-.93.97-1.93 1.21-3 .08-.24.2-.47.4-.7.1-.08.18-.24.23-.46Z" fill="#65BF39"/><path d="M35.08 19.1c.33.4.58.85.76 1.35.02.07.07.13.14.17.2.13.44.2.72.24l-1.63.87-.72.31-.23-.05c-.3-.06-.37-.23-.24-.5l1.2-2.4Z" fill="#FFC95D"/><path d="M16.54 23.77v8.25c0 .32.1.47.32.46.1-.01.2-.06.26-.15.14-.2.37-.33.68-.37.9-.12 1.76-.45 2.59-1 .07-.08.2-.15.36-.22.66-.14 1.2.03 1.64.53a47.94 47.94 0 0 1 2.48 2.48c.25.29.43.72.53 1.3-.16 0-.23.19-.2.55-.33-.03-.54.1-.63.37-.26.32-.43 0-.52-.97 0-.11-.08-.23-.22-.37-.18-.18-.63-.29-1.34-.32a.22.22 0 0 1-.18-.1l-.3-.46c-.79.17-1.56.5-2.31.95a2 2 0 0 1-1.39.3c-.26-.04-.68-.35-1.24-.94-.23-.23-.39-.4-.49-.48-.4-.37-.6-.75-.6-1.15 0-2.56 0-5.13-.03-7.73 0-.55.01-1.1.04-1.64 0-.08.04-.15.1-.2.53-.56 1.08-1.12 1.65-1.67.5-.48 1.07-.51 1.75-.11.4.24.84.45 1.34.62.07.03.1.07.1.14v.08c0 .08-.04.1-.12.1a4.5 4.5 0 0 0-.27-.06c-.25-.05-.44-.1-.56-.18-1.03-.6-1.78-.66-2.27-.15l-1.07 1.1a.32.32 0 0 0-.08.16c-.08.34-.09.63-.02.88Z" fill="#45982F"/><path d="M40.08 24.07 40 32.76c0 .09-.03.17-.09.23-.76.87-1.4 1.48-1.88 1.82-.43.31-.95.3-1.54 0-.59-.3-1.16-.61-1.71-.92-.29-.16-.54-.18-.77-.05-.21.13-.26.3-.15.53l1.12 2.19c.36.68.21 1.3-.44 1.88-.1.1-.26.24-.46.45-.65.67-1.22 1.02-1.7 1.03-2.26.06-5.09.08-8.5.07-.6 0-1.28-.4-2.02-1.18l-.45-.44a1.53 1.53 0 0 1-.46-1c-.04-.4.03-.74.2-1.04.26-.44.52-.93.8-1.48.1.52 0 1.06-.36 1.63-.08.13-.14.27-.16.42-.02.16-.02.34 0 .52.04.2.14.41.3.61.32.37.65.73 1 1.06.26.25.6.32 1 .22.06.04.12.06.18.04.09.04.18.06.27.06 2.61-.01 5.22 0 7.84.01a2.9 2.9 0 0 0 .72-.13c.08-.07.17-.1.24-.08.08.02.14 0 .2-.05l1.24-1.32a.4.4 0 0 0 .1-.22c.07-.45 0-.86-.24-1.24-.18-.3-.29-.5-.32-.6l-.1-.45c-.07-.45-.2-.75-.38-.9a.33.33 0 0 0-.25-.08l-.63.06c-.5.04-.72.49-.66 1.34v.14c0 .08-.01.14-.06.2-.13.13-.31.14-.55.01l-.48-.72-.14-.38c0-.47.18-.91.56-1.33a54.6 54.6 0 0 1 2.45-2.5c.3-.29.63-.45 1-.5.4-.06.73.04 1 .3.18.16.4.3.65.4.84.34 1.61.6 2.3.74.1.02.17.07.22.15.11.15.26.2.45.17.08-.01.13-.06.13-.14.01-.41 0-1.03-.02-1.86l-.03-1.46a8962.82 8962.82 0 0 1 .07-5.34c.05-.57-.09-.98-.4-1.22l-.35-.3c-.81-.7-1.48-.95-2-.71-.21.1-.43.22-.64.38a.96.96 0 0 1-.57.2c-.29 0-.43-.09-.45-.25l1.63-.87c.73-.14 1.3 0 1.7.4.48.5.97 1 1.47 1.48.05.05.08.12.1.2l.11 1.13Z" fill="#486E1E"/><path d="M30.7 35c.01.02 0 .04-.02.06-.04.03-.07.02-.1-.01-.34-.41-.69-.62-1.05-.64-1.25-.06-2.5 0-3.7.18l.03-.8c.01-.2.08-.36.22-.5l2.53-2.58a9.6 9.6 0 0 0 1.2-1.64c.37-.58.88-1.16 1.53-1.76.87-.8 1.59-1.53 2.14-2.17.52.56.93.77 1.22.6-.1.17-.16.29-.17.34-.08.8-.08 1.9-.03 3.31.04.88.53 1.32 1.47 1.33.33 0 .63.1.89.29.53.38 1.08.54 1.63.48.25-.03.37-.17.38-.4l.03-.34c.03-.17.04-.3.04-.4-.07-1.91-.1-3.84-.07-5.78 0-.1-.05-.14-.15-.14-.09.01-.2 0-.31-.02a.99.99 0 0 0-.48.04c-1 .34-1.98.7-2.94 1.09.35-.3.13-.44-.66-.42-.18 0-.38-.14-.6-.44-.08-.1-.13-.17-.17-.2-.64-.6-1.26-1.23-1.85-1.86a2.1 2.1 0 0 1 1.75-.54c.3.02.46.2.47.53.02.42.04.71.07.86.14.59.27.58.38 0 .1-.44.08-.91-.03-1.43l.72-.3c.02.15.16.23.45.23.2 0 .4-.06.57-.2.21-.15.43-.28.64-.37.52-.24 1.19 0 2 .72l.35.29c.31.24.45.65.4 1.22l-.03.4-.04 4.94.03 1.46c.03.83.03 1.45.02 1.86 0 .08-.05.13-.13.14a.42.42 0 0 1-.45-.17.35.35 0 0 0-.21-.15c-.7-.15-1.47-.4-2.3-.74-.27-.1-.48-.24-.66-.4-.27-.26-.6-.36-1-.3-.37.05-.7.21-1 .5-.8.77-1.62 1.6-2.45 2.5-.38.42-.57.86-.56 1.33Z" fill="#97DE5C"/><path d="M44.43 21.27c.37.08.55.33.55.73a622 622 0 0 1-.01 11.61c0 .4-.17.75-.47 1.05-3.16 3.15-6.35 6.35-9.59 9.61-.4.42-.9.64-1.5.67-1.2.06-2.38.08-3.55.04l-3.3-.02a92.9 92.9 0 0 1-4.4-.07 1.07 1.07 0 0 1-.73-.32c-3.12-3.15-6.3-6.33-9.54-9.54a1.3 1.3 0 0 1-.26-.46c-.1-.13 0-.16.33-.07.05-.04.07-.02.06.05 0 .03 0 .06.03.09l9.6 9.53c.17.03.34.05.5.09.17.03.35.04.52.04 3.74.02 7.43.03 11.08.02.22 0 .4-.08.56-.23l9.77-9.64c.23-.3.34-.6.34-.9-.05-4.03-.04-8.13.01-12.28Z" fill="#4D2509"/><path d="M33.49 25.14c-.56.64-1.28 1.37-2.15 2.17a9.3 9.3 0 0 0-1.66 1.96 9.6 9.6 0 0 1-1.07 1.44l-2.53 2.59c-.14.13-.2.3-.22.49l-.04.8c.03.2-.11.36-.42.45-.1-.57-.28-1-.53-1.29-.47-.53-1.3-1.36-2.48-2.48.12-.2.06-.48-.19-.84a.3.3 0 0 1-.05-.17l-.04-4.67c0-.08.02-.15.08-.2 1.1-1.14 2.17-2.2 3.23-3.18.11-.11.3-.17.58-.18h.1c1.8-.08 3.11-.06 3.94.08.4.06.78.29 1.16.67.78.79 1.54 1.57 2.29 2.36Z" fill="#E5FF9E"/><path d="M16.54 23.77c.86.35 2.25.87 4.18 1.57.46.16.7.51.74 1.05.07.95.06 2 0 3.16-.02.23-.15.45-.38.66-.2.17-.32.35-.33.53-.17.07-.29.14-.36.22-.18-.14-.43-.19-.75-.14-.2.03-.53.16-.97.38-.3.15-.52.25-.66.3l-.73.29c-.23.1-.48.17-.75.23l.01-8.25ZM32.07 24.3c0 .31-.1.58-.3.8-.6.64-1.25 1.3-1.94 1.97-.23.23-.51.6-.85 1.13-.3.47-.56.82-.76 1.03a62.55 62.55 0 0 1-2.67 2.62c-.25.19-.4.38-.45.57-.07.25-.19.27-.35.07-.27-.34-.17-.76.3-1.26l2.04-2.07c.5-.49.89-.99 1.19-1.5.37-.64 1.1-1.48 2.17-2.5.51-.5.88-.87 1.12-1.13.15-.17.29-.16.42.02.05.08.08.16.08.25Z" fill="#97DE5C"/><path d="m40.08 24.07.04.26c.03.24.14.28.33.13.1-.07.16-.19.19-.34a240.46 240.46 0 0 1 .05 8.24c.01.74-.12 1.26-.4 1.56-.52.56-1.05 1.06-1.58 1.5-.2.17-.51.28-.93.34a1.75 1.75 0 0 0-1.13.53c-.5.53-.76 1-.78 1.38-.01.42-.15.77-.42 1.06-.43.46-.88.92-1.36 1.4-.4.4-.86.6-1.38.6-2.36-.02-4.56-.06-6.6-.1h-1.15c-1.07.02-1.87-.01-2.4-.09a.39.39 0 0 1-.22-.1 85.34 85.34 0 0 1-1.72-1.69 1.73 1.73 0 0 1-.4-.88 3.96 3.96 0 0 0-.11-.44c-.35-1.03-.97-1.6-1.87-1.72a2.08 2.08 0 0 1-.92-.33 4.19 4.19 0 0 1-1.13-1.11c.29-.03.42-.26.4-.69l.48.48c.56.59.98.9 1.25.94a2 2 0 0 0 1.38-.3 7.61 7.61 0 0 1 2.32-.95c.08.43.05.8-.09 1.1-.27.55-.53 1.04-.79 1.48-.17.3-.24.64-.2 1.04.04.41.2.75.46 1l.45.44c.74.78 1.42 1.17 2.02 1.18 3.41.01 6.24-.01 8.5-.07.48-.01 1.05-.36 1.7-1.03l.46-.45c.65-.58.8-1.2.44-1.88l-1.12-2.2c-.11-.21-.06-.39.15-.52.23-.13.48-.11.77.05l1.7.92c.6.3 1.12.31 1.55 0 .49-.34 1.12-.95 1.88-1.82.06-.06.1-.14.1-.23l.08-8.7Z" fill="#FFC95D"/><path d="M34.7 25.74a.73.73 0 0 0 .3-.2c.95-.38 1.93-.75 2.93-1.1.14-.04.3-.06.48-.03.12.02.22.03.3.02.1 0 .16.04.16.14-.03 1.94 0 3.87.07 5.78 0 .1-.01.23-.04.4l-.03.33c0 .24-.13.38-.38.4-.55.07-1.1-.1-1.63-.47a1.53 1.53 0 0 0-.9-.29c-.93 0-1.42-.45-1.46-1.33-.05-1.4-.05-2.5.03-3.3 0-.06.06-.18.17-.35Z" fill="#25AF28"/><path d="M41.3 25.62c.44-.05.68.3.72 1.06 0 .08.05.15.12.2.25.17.4.53.44 1.1a.4.4 0 0 1 0 .03c.01.1.07.18.16.22.2.08.34.06.43-.04-.03 1.68 0 3.37.07 5.07 0 .13-.02.24-.08.32a1 1 0 0 1-.27.24 420.45 420.45 0 0 0-8.98 8.97c-.24.25-.55.38-.91.37-3.2-.07-6.44-.07-9.75 0-.2.05-.45.05-.73 0a.38.38 0 0 1-.2-.1l-4.67-4.74a.16.16 0 0 1 .05-.05c.03 0 .05-.03.05-.06a4.64 4.64 0 0 0-.58-2.14c.35.09.68.15.98.19.4.05.7.14.87.27.32.25.53.68.64 1.28.09.52.24.9.46 1.12.56.6 1.13 1.17 1.7 1.72.41.4.93.6 1.57.59 3.31 0 6.56-.03 9.73-.06.28 0 .53-.11.75-.31a46.8 46.8 0 0 0 1.8-1.78c.36-.37.55-.73.58-1.1.1-1.16.6-1.76 1.54-1.8.57-.01 1.01-.18 1.33-.5.56-.57 1.13-1.12 1.7-1.67.3-.3.46-.72.46-1.26-.01-2.38 0-4.75.03-7.14Z" fill="#FFC95D"/><path d="M20.39 30.96c-.83.55-1.69.88-2.59 1-.31.04-.54.17-.68.37a.33.33 0 0 1-.26.15c-.22 0-.33-.14-.33-.46.27-.06.52-.14.75-.23l.73-.29c.14-.05.36-.15.66-.3.44-.22.76-.35.97-.38.32-.05.57 0 .75.14Z" fill="#E5FF9E"/><path d="M18.86 34.38c-.55.1-1.1-.21-1.66-.95-.04-.05-.04-.1 0-.15.04-.04.09-.06.15-.05.04 0 .06.01.09.03.43.36.9.66 1.44.9.23.1.22.17-.02.22Z" fill="#65BF39"/><path d="M13.01 33.77c.24.11.5.33.75.66l3.9 3.89 4.66 4.73c.06.06.13.1.2.1.28.06.53.06.73 0l-1.6 1.02-9.6-9.53a.1.1 0 0 1-.03-.1c.01-.06 0-.08-.06-.04l.03-.14c.13-.07.22-.2.28-.4a.23.23 0 0 1 .14-.15.9.9 0 0 1 .6-.04Z" fill="#C08533"/><path d="m44.08 34.45-9.77 9.64a.77.77 0 0 1-.56.23c-3.65 0-7.34 0-11.08-.02-.17 0-.35-.01-.52-.04l-.5-.1 1.6-1c3.3-.07 6.56-.07 9.75 0 .37 0 .67-.12.91-.37 2.95-3.04 5.95-6.03 8.98-8.97.27.05.51.05.73 0 .18-.04.26.03.25.21-.02.24.05.38.21.42Z" fill="#7C4F21"/><path d="m22.02 33.75.3.46c.03.07.1.1.17.1.71.03 1.16.14 1.34.32.14.14.21.26.22.37.09.96.26 1.29.52.97.01.3-.07.6-.25.9-.11.2-.18.36-.2.51-.14.86 0 1.02.41.48l.08.59c.02.19.13.28.33.29 1.97.05 3.96.05 5.98 0 .17 0 .41.02.72.08.33.07.58.1.76.09.1 0 .18.02.26.07.13.08.15.18.07.3a632.13 632.13 0 0 0-8.56.12.64.64 0 0 1-.27-.05c.08-.01.1-.05.1-.1a.46.46 0 0 0-.42-.36c-.17-.03-.23.04-.19.2.05.17.16.24.33.22-.4.1-.74.03-1-.22-.35-.33-.68-.69-1-1.06-.16-.2-.26-.4-.3-.6a1.84 1.84 0 0 1 0-.53c.02-.15.08-.29.16-.42.35-.57.47-1.11.35-1.63.14-.3.17-.67.09-1.1Z" fill="#65BF39"/><path d="M32.73 39.29c.08-.13.06-.23-.07-.31a.43.43 0 0 0-.26-.07c-.18 0-.43-.02-.76-.09-.3-.06-.55-.09-.72-.08-2.02.05-4.01.05-5.98 0-.2 0-.3-.1-.33-.3l-.08-.58c.07-.4.25-.88.54-1.41.12-.23.17-.51.14-.86-.04-.35.03-.53.19-.55.3-.1.45-.25.42-.45a19.5 19.5 0 0 1 3.71-.18c.36.02.7.23 1.05.64.03.03.06.04.1.01.03-.02.03-.04.02-.06l.14.38c-.04.44-.01.78.09 1.01l.7 1.74c.02.04.05.06.1.05.13 0 .21-.07.24-.2a.89.89 0 0 0 0-.45c-.2-.51-.41-.99-.65-1.43.24.13.42.12.55-.02a.26.26 0 0 0 .07-.19l-.01-.14c-.06-.85.17-1.3.66-1.34l.63-.06c.1-.01.18.01.25.07.18.16.3.46.39.91.03.2.06.36.1.45.02.1.13.3.31.6.23.38.31.8.25 1.24a.4.4 0 0 1-.1.22l-1.26 1.32a.18.18 0 0 1-.19.05c-.07-.02-.16 0-.24.08Z" fill="#25AF28"/><path d="m30.84 35.38.48.72c.24.44.45.92.64 1.43.04.11.04.26 0 .45-.02.13-.1.2-.23.2-.05 0-.08-.01-.1-.05l-.7-1.74c-.1-.23-.13-.57-.1-1.01ZM25.2 35.6c.04.34 0 .62-.13.85-.29.53-.47 1-.54 1.41-.41.54-.55.38-.41-.48.02-.15.09-.32.2-.5.18-.31.27-.61.25-.91.09-.27.3-.4.64-.38ZM23.9 39.35a.22.22 0 0 1-.18-.04c-.17.02-.28-.05-.33-.21-.04-.17.02-.24.19-.21.22.03.36.15.41.37.02.04-.01.08-.09.1Z" fill="#97DE5C"/></svg>