<svg width="56" height="56" fill="none" xmlns="http://www.w3.org/2000/svg"><rect fill="#092049" width="56" height="56" rx="28"/><path d="M34.243 15.393l-18.725 18.8 5.621 6.991 19.512-19.507-6.408-6.284z" fill="url(#paint0_linear_1530)"/><path fill-rule="evenodd" clip-rule="evenodd" d="M37.5 22.978a4.5 4.5 0 100-9 4.5 4.5 0 000 9zM18.5 23a4.5 4.5 0 100-9 4.5 4.5 0 000 9zm0 19a4.5 4.5 0 100-9 4.5 4.5 0 000 9zM42 37.5a4.5 4.5 0 11-9 0 4.5 4.5 0 019 0z" fill="#fff"/><defs><linearGradient id="paint0_linear_1530" x1="36.522" y1="18.352" x2="17.933" y2="36.479" gradientUnits="userSpaceOnUse"><stop stop-color="#A3AABA"/><stop offset=".461" stop-color="#A3AABA" stop-opacity=".576"/><stop offset="1" stop-color="#A3AABA"/></linearGradient></defs></svg>