<svg width="112" height="112" viewBox="0 0 56 56" xmlns="http://www.w3.org/2000/svg"><path d="M35.98 38c.02 0 .03-.02.04-.03l.03-.03a.08.08 0 0 0 0-.07l-2.86-5.38a.28.28 0 0 1 .02-.29 40.84 40.84 0 0 1 1.88-2.47.11.11 0 0 1 .1 0l.04.05 5.99 11.12v.03a.07.07 0 0 1-.03.06l-.03.01H30.68a.13.13 0 0 1-.12-.08l-3.9-7.26a.25.25 0 0 1 .02-.27l11.54-15.2a.1.1 0 0 0-.02-.14l-.04-.05H33.2a.23.23 0 0 0-.18.1l-2.14 2.63-.03.02a.08.08 0 0 1-.08 0 .08.08 0 0 1-.03-.04l-1.25-2.7a.18.18 0 0 1 .02-.2l2.07-2.74a.16.16 0 0 1 .13-.07h12.2c.09 0 .1.04.05.1L30.19 33.38a.28.28 0 0 0-.02.3l2.44 4.24c.03.06.08.1.15.1l3.22-.01Z" fill="#fff"/><path d="M17.91 37.9c-.05.07-.03.1.06.1h4.93l.12-.01a.26.26 0 0 0 .1-.08l2.08-2.72a.05.05 0 0 1 .05-.02.05.05 0 0 1 .04.03l1.28 2.76a.14.14 0 0 1-.01.14 301 301 0 0 1-1.93 2.58c-.27.36-.47.32-.95.32H12v-.02a.03.03 0 0 1 0-.03l13.88-18.37a.22.22 0 0 0 .02-.24l-2.47-4.24a.18.18 0 0 0-.17-.1h-3.19l-.04.05a.08.08 0 0 0-.03.03.09.09 0 0 0 0 .08c1 1.94 1.9 3.48 2.8 5.18.1.2.1.4-.04.6-.6.83-1.18 1.58-1.73 2.24-.08.1-.15.08-.2-.02a1004.17 1004.17 0 0 1-6-11.14l.02-.01.02-.01h10.39c.13 0 .23.07.3.19l3.79 7.04a.4.4 0 0 1-.03.43L18.4 37.2c-.17.22-.33.46-.49.7Z" fill="#D99917"/><defs><linearGradient id="a" x1="10.42" y1="9.71" x2="68.15" y2="76.02" gradientUnits="userSpaceOnUse"><stop stop-color="#1A1E21"/><stop offset="1" stop-color="#06060A"/></linearGradient></defs></svg>