<svg width="56" height="56" viewBox="0 0 56 56" xmlns="http://www.w3.org/2000/svg"><rect fill="#F0F3FA" width="56" height="56" rx="28"/><path d="M39.37 17.11h-1.62v1.56h1.62V17.1ZM41 18.67h-1.63v1.55H41v-1.55ZM34.5 20.22h1.63v-3.1h1.62v-1.56h-1.62V14H34.5v6.22Z" fill="#9E9E9E"/><path d="M24.8 34v-1.5h-1.6V31h-1.6v-1.5H20v6h6V34h-1.2Z" fill="#0919D8"/><path d="M21.6 29.5V28H20v1.5h1.6ZM26.1 32.5h-1.6V34h1.6v-1.5ZM26 34v1.5h1.5V34H26ZM24.6 32.5V31H23v1.5h1.6ZM23.2 29.5h-1.6V31h1.6v-1.5Z" fill="#16B5F4"/><path d="M26 35.5h-6V37h6v-1.5ZM41 20.22h-6.5v1.56h4.87v4.66H41v-6.22ZM39.43 40.5H30V42h11v-9h-1.57v7.5Z"/><path d="M16.63 15.56H34.5V14H15v28h4.87v-1.56h-3.24V15.56Z"/><path d="M34.5 20.22V17H18v22h5v-2h3v-1.5h4v-1.28h4.5v-1.56h1.63v-1.55H34.5V34.22H30V26.44h8v4.66-9.32h-3.5v-1.56Zm0 10.89h1.63v1.55H34.5v-1.55Zm-7 4.39H26V37h-6v-9h1.5v1.5H23V31h1.5v1.5H26V34h1.5v1.5Z" fill="#D7D7D7"/><path d="M34.8 27.6h-3.2v3.2h3.2v-3.2Z" fill="#7C0404"/><path d="M30 32.4h4.8v-1.6h-3.2v-3.2h3.2v3.2h1.6V26H30v6.4Z" fill="#E80000"/><path d="M36.4 26v4.8H38V26h-1.6ZM30 32.4V34h4.8v-1.6H30ZM36.4 30.8h-1.6v1.6h1.6v-1.6ZM35.5 34v3.33H31V39h6v-5h-1.5Z"/><path d="M26.8 20.6h-3.2v3.2h3.2v-3.2Z" fill="#29F91E"/><path d="M28.4 20.6V19h-4.8v1.6h3.2v3.2h-3.2v-3.2H22v4.8h6.4v-4.8Z" fill="#087903"/><path d="M23.6 27h4.8v-1.6h-4.8V27Z"/><path d="M30 20.6h-1.6v4.8H30v-4.8Z"/></svg>