<svg width="112" height="112" viewBox="0 0 56 56" xmlns="http://www.w3.org/2000/svg"><rect fill="url(#a)" width="56" height="56" rx="28"/><path d="m40.15 39.33-.62-.56c-.2-.25-.3-.52-.3-.8v-2.78a6.46 6.46 0 0 0-1.06-3.32 5.75 5.75 0 0 0-5.54-2.65c-1.16.2-2.13.6-2.9 1.22a6.71 6.71 0 0 0-2.48 4.17c-.08.41-.12.96-.12 1.63v1.65c.05.83-.22 1.4-.8 1.7a2.71 2.71 0 0 1-1.25.15h-.15c-.45 0-.77-.02-.96-.06a1.6 1.6 0 0 1-.8-.39c-.02-.01-.03-.04-.03-.07a.19.19 0 0 0-.03-.1 1.9 1.9 0 0 1-.3-1.12v-7.74c0-.4-.15-.67-.45-.83a1.72 1.72 0 0 0-.96-.16c-.04 0-.1.03-.14.07l-.08-.02-.06-.01-1.65.02c-.41 0-.71.15-.9.45-.1.2-.16.54-.16 1.04l.01 7.45c.01.72-.25 1.23-.78 1.52a2.7 2.7 0 0 1-1.18.2h-.2c-.54.02-1 .01-1.4-.02h.06l.02-.04c0-.01 0-.03-.02-.03-.3-.12-.54-.31-.7-.58-.12-.2-.2-.44-.24-.73a6.62 6.62 0 0 1-.04-.84v-9.83c.01-1.07.2-2.3.57-3.69l.52-1.5c.2-.54.39-1 .59-1.37.34-.65.59-1.08.72-1.3.31-.5.74-1.09 1.29-1.79a14 14 0 0 1 2.65-2.47l1.32-1.16c1.28-.53 2.36-.92 3.24-1.15 3.35-.88 6.58-.58 9.67.92a14.36 14.36 0 0 1 5.73 5 15.9 15.9 0 0 1 2.66 7.3c.07.61.1 1.47.1 2.55v7.99c0 .63-.05 1.06-.16 1.3-.18.38-.5.64-.99.76-.23.05-.8.06-1.7.02Z" fill="#fff"/><path d="m21.6 14.64-1.32 1.16a6.89 6.89 0 0 0-1.19.94c-.65.6-1.14 1.12-1.46 1.53-.55.7-.98 1.3-1.29 1.8-.13.2-.38.64-.72 1.3-.2.37-.4.82-.59 1.36l-.52 1.5c-.37 1.4-.56 2.62-.56 3.7a1472 1472 0 0 0-.01 9.82c0 .38.01.66.04.84.04.3.12.53.24.73.16.27.4.46.7.58.02 0 .03.02.02.03 0 .02 0 .03-.02.03l-.05.01a4.4 4.4 0 0 1-.65-.33 3.5 3.5 0 0 1-.92-.72 1.9 1.9 0 0 1-.3-1.16v-8.34c0-1.39.06-2.49.2-3.3a15.72 15.72 0 0 1 2.8-6.83 14.44 14.44 0 0 1 5.6-4.65Z" fill="#C5C8DF"/><path d="m22.85 23.33-1.21.13c-.2-1.18-.86-1.86-2-2.02.85-.4 1.64-.3 2.38.3.49.4.76.93.83 1.6Z" fill="#ABABBF"/><path d="M21.64 23.46c0 .93-.37 1.63-1.13 2.1-.25.15-.48.2-.7.15a1.5 1.5 0 0 1-.62-.4 2.3 2.3 0 0 1-.63-2.6c.16-.48.52-.9 1.08-1.27 1.14.16 1.8.84 2 2.02Z" fill="#0A0A08"/><path d="M22.85 23.33c.04.9-.3 1.6-1.03 2.06l-.72.4a.2.2 0 0 1-.1.03.63.63 0 0 1-.5-.27 2.26 2.26 0 0 0 1.14-2.09l1.2-.13Z" fill="#C5C8DF"/><path d="m38.17 31.87-1.48.2a5.34 5.34 0 0 0-4.06-2.85 5.75 5.75 0 0 1 5.53 2.65Z" fill="#ABABBF"/><path d="m25.08 39.74-.89.06c-.3.01-.71-.1-1.22-.36l-.25-.12c-.44-.19-.74-.41-.9-.66a1.95 1.95 0 0 1-.25-1.08v-7.62c0-.2-.1-.4-.31-.62.05-.04.1-.06.14-.07.4-.02.73.03.96.16.3.16.45.44.45.83V38c0 .47.1.85.3 1.13.02.02.03.05.03.09 0 .03.01.06.03.07.22.2.48.33.8.4.19.03.5.05.96.05h.15ZM40.15 39.33a20.89 20.89 0 0 1-1.21-.33c-.4-.11-.67-.21-.82-.3-.22-.13-.4-.33-.52-.6-.07-.14-.1-.42-.1-.81V35c-.03-1.01-.3-2-.8-2.93l1.47-.2a6.46 6.46 0 0 1 1.05 3.32l.01 2.78a1.27 1.27 0 0 0 .3.8l.62.56Z" fill="#C5C8DF"/><defs><linearGradient id="a" x1="10.42" y1="9.71" x2="68.15" y2="76.02" gradientUnits="userSpaceOnUse"><stop stop-color="#1A1E21"/><stop offset="1" stop-color="#06060A"/></linearGradient></defs></svg>