<svg width="112" height="112" viewBox="0 0 56 56" xmlns="http://www.w3.org/2000/svg"><rect fill="url(#a5j2pu0t0)" width="56" height="56" rx="28"/><path d="M41.59 38.33a1.86 1.86 0 0 0-.6-1.12 5.98 5.98 0 0 1-1.07-3.3l-.7-1.1.12-.18.8.53c.55.54.9 1.2 1.05 2 .04.2.14.3.34.31l.6.48a.17.17 0 0 0 .23-.02 12.27 12.27 0 0 0 .43-2.23c.08-.95-.58-1.58-1.33-2l-.68-.39c-.06-.03-.08-.08-.06-.15.44-1.23-.14-2.85-.9-3.8l-.25-.12a.36.36 0 0 1-.1-.16c-.03-.07 0-.11.07-.14a.39.39 0 0 1 .19 0l.18.04 1.31.7c.34.45.58 1.06.72 1.81.01.1.07.2.15.26a4.08 4.08 0 0 1 1 1.05l.06.03a.16.16 0 0 0 .12-.03c.02-.02.04-.05.05-.1a.2.2 0 0 0 0-.1 2.49 2.49 0 0 1 .19-1.67c.13-.27.06-.35-.21-.22l-.2.1c-.29.15-.36.08-.22-.21.16-.34.38-.63.64-.9a.25.25 0 0 0 .04-.31 5.03 5.03 0 0 1-.44-.83c-.19-.47-.32-.46-.38.05l-.04.42c-.01.07-.03.12-.06.16a.18.18 0 0 1-.16.06c-.07 0-.11-.04-.12-.11-.12-.8-.03-1.56.27-2.3a.22.22 0 0 0 0-.16.21.21 0 0 0-.1-.12l-.65-.32a6.91 6.91 0 0 0-1.84-.7c-.13-.02-.29.03-.47.16-.4.28-.79.56-1.16.86l-1.5.59c-.23.03-.32.14-.28.32.04.16.12.29.26.38.08.34.36.39.85.16.06-.03.1-.08.08-.15-.01-.14 0-.28.03-.43a.18.18 0 0 1 .14-.14.64.64 0 0 1 .23-.02.08.08 0 0 1 .06.09l-.01.04c-.07.09-.06.17.03.25.05.04.22-.12.51-.47a.11.11 0 0 1 .15-.02l.06.04c.03.03.05.06.05.1.01.03 0 .07-.02.1a2.47 2.47 0 0 1-2.47 1.16 1.2 1.2 0 0 0-.16-.38c-.36-.42-.81-.5-1.37-.23-.15.05-.31.16-.5.33-.31.29-.34.64-.08 1.04-.03.24.15.43.53.57l-.05.2c-.57.63-.09 1.72.43 2.2a.18.18 0 0 0 .3-.07c.18-.58 1.01-1.14 1.48-1.4.28-.16.34-.1.17.18-.39.66-.5 1.37-.33 2.14a.16.16 0 0 0 .22.11.16.16 0 0 0 .08-.06l.52-.83c.04-.07.1-.11.18-.12.13-.02.22.05.26.2-.05.05-.06.09-.05.11-.45.5-.74 1.07-.89 1.68-.06.25-.2.44-.24.71a.1.1 0 0 0 .12.12.1.1 0 0 0 .06-.02l.78-.65a.09.09 0 0 1 .14.04l.01.05c.02.08 0 .15-.04.21-.8.88-1.84 1.23-2.85 1.8l-1.37.64a.15.15 0 0 1-.15-.01l-.07-.06c-.04-.03-.04-.06 0-.1l.38-.26c.21-.15.19-.2-.06-.18-1.46.14-2.84.9-3.96 1.85-.13-.16-.1-.28.12-.37.2-.09.2-.16-.02-.21-.9-.23-1.89-.23-2.95 0 .37-.32.8-.53 1.28-.63a.9.9 0 0 0 .6-.08c.07-.04.08-.08.03-.15l-.6-.74c-.07-.12 0-.18.2-.18a.19.19 0 0 1 .15.1c.19.31.4.57.66.74a.8.8 0 0 0 .57.13.14.14 0 0 0 .1-.06.14.14 0 0 0 .01-.1l-.04-.17c-.02-.1.01-.14.1-.14.06 0 .13.02.22.07.1.18.14.35.12.53-.02.16.05.2.2.13l.71-.37c.13-.06.17-.16.12-.29l-.29-.87A6.2 6.2 0 0 0 27 31.34a.75.75 0 0 1-.34.04c-.3-.19-1.08-.2-.96.32.01.07.05.12.1.16l1.28.72c0 .07 0 .12-.04.16l-.15.05c-.32-.25-.8-.6-1.23-.55-.26.25-.4.59-.44 1l-.42.48-.28.27a.17.17 0 0 1-.17.04l-.07-.02c-.08-.03-.09-.08-.03-.14l.24-.27c.48-.74.8-1.53.95-2.37l.27-1c.07.02.13.02.17 0 .03-.02.04-.06.02-.13a1.2 1.2 0 0 0-.17-.38c-.1-.9-1.14-1.67-1.9-1.94a5.08 5.08 0 0 0-2.41-.23l-.01-.06.01-.05a4.92 4.92 0 0 1 3.15.22c.9.37 1.1.9 1.56 1.58.23.34.27.66.23 1.04a.37.37 0 0 0 .3.4c.06.02.12.02.18 0l.43-.12c.1 0 .18-.07.24-.18l.27-.6c.02-.05.05-.06.1-.05l.06.01c.06.02.1.06.09.13-.01.4-.17.72-.46.97-.06.06-.06.1.02.15.08.04.19.04.33 0 .33.44 1.02-.4 1.23-.7a.7.7 0 0 0 .28-.58.18.18 0 0 1 .16-.2h.08a.1.1 0 0 1 .07.02.1.1 0 0 1 .04.06l.08.45c.03.33-.01.65-.12.95a.21.21 0 0 0 .01.18c.1.17.06.28-.1.34a.13.13 0 0 0-.02.24c.56.31 1.05.71 1.46 1.2a.26.26 0 0 0 .46-.1c.08-.31.23-.57.44-.77.17-.06.23.15.17.63 0 .48-.07.9-.23 1.26-.11.25-.04.34.23.26.2-.06.34-.32.41-.79.1-.28.25-.41.43-.41a.13.13 0 0 1 .1.06.13.13 0 0 1 .01.12l-.48 1.01c-.03.05 0 .08.05.09.62.04.96-.22 1.03-.78.06-.53.05-1.36-.03-2.5a6.97 6.97 0 0 0-3.13-3.28c-.09-.05-.08-.09.01-.11.11-.03.22-.01.34.05a19.7 19.7 0 0 0 .9.47.1.1 0 0 0 .07-.05c.02-.04.02-.08-.02-.11l-.98-.89a.38.38 0 0 0-.5 0c-.5.41-1.07.7-1.7.87a.3.3 0 0 1-.2-.02.97.97 0 0 0-.78 0l-1.07.22a.1.1 0 0 1-.08-.02.09.09 0 0 1-.03-.08c.02-.1.07-.16.16-.18a.08.08 0 0 0 .06-.08c0-.02 0-.03-.02-.05a.07.07 0 0 0-.05-.02l-.84-.03c-.11.22-.23.2-.36-.09a.24.24 0 0 0-.14-.12 7.78 7.78 0 0 1-3.08-1.95 17.25 17.25 0 0 1-4.14-2.17c-.6-.42-1.2-.37-1.5-1.24a.23.23 0 0 0-.07-.1.2.2 0 0 0-.12-.05c-.07 0-.1.03-.12.1-.06.4-.21.77-.45 1.1a.12.12 0 0 0 .05.19l.06.01a.6.6 0 0 0 .23-.07.28.28 0 0 1 .19-.04 5.35 5.35 0 0 1 2.63 1.05.06.06 0 0 1-.01.07l-.04.02c-.77.17-1.75-.15-2.66-.27a1 1 0 0 0-.82.27l-.47.44c-.23.22-.19.3.13.27.87-.11 1.8.02 2.8.39.39.14.68.06 1.05-.03a3.8 3.8 0 0 1 2.64.38l.2.08c.23.11.21.15-.04.12-.91-.1-1.78.05-2.59.46a.26.26 0 0 1-.2.02l-.66-.21c-1.45-.13-3.48.26-4.47 1.4-.06.08-.1.24-.1.48-.04.8-.05 1.61-.06 2.42 0 .05.01.09.04.12a.12.12 0 0 0 .12.03.12.12 0 0 0 .08-.08c.28-1.2.99-2.04 2.13-2.5.3-.13.33-.08.1.13a8.55 8.55 0 0 0-1.5 1.87.11.11 0 0 0 .14.1l1.55-.45 3.4.57.9-.04 1.03-.18c.27-.04.3.03.1.21l-.93.86-1.67.71c-.92.02-1.89-.1-2.9-.33a2.33 2.33 0 0 0-1.76.71.37.37 0 0 0-.1.17c-.08.36-.2.69-.14 1.05.2 1.44.86 2.44 1.74 3.66a.06.06 0 0 1 0 .06.05.05 0 0 1-.05.03c-.06-.01-.13-.05-.2-.12a.25.25 0 0 0-.3-.07c-.06.02-.07.06-.04.12.3.49.54 1.04.96 1.4.48.43 1.63 1.16 2.32 1.1a.04.04 0 0 0 .03-.02.05.05 0 0 0 0-.04l-1.02-1.33a.12.12 0 0 1 .18-.17c.65.54 1.2 1.17 1.67 1.87.01.03.04.05.06.05h.09l.05-.02a.05.05 0 0 0 .03-.03v-.04c-.23-.5-.6-.9-.12-1.42a7.3 7.3 0 0 1 1.08-1l1.67-.66 1.42-.15c.1-.01.11.02.04.09l-1.42 1.33-.45.53c-.57.6-1.62 2.27-.67 2.94a7.45 7.45 0 0 0 2.39 1.1.1.1 0 0 0 .05-.05l1.06-2.3c.83-1.08 1.46-2.04 2.4-2.56.26-.15.32-.09.18.18l-.28.57c-.34.44-.54.89-.58 1.32a16.9 16.9 0 0 0 0 3.38.2.2 0 0 0 .18.17l2.26.17c.36.03.38-.04.06-.22a4.65 4.65 0 0 0-.9-.38c-.03-.01-.04-.04-.01-.07l.07-.1.04-.03h.04l.7.25 1.14.74c-.32.01-.63.03-.9.06-1.09.13-2.25.01-3.35 0-.6-.01-1.55-.22-2.87-.62a15.65 15.65 0 0 1-3.37-2.4c-.28-.28-.34-.41-.77-.47a4.14 4.14 0 0 1-1.89-.7l-.09.01a.06.06 0 0 0-.04.03.06.06 0 0 0 0 .06l.73.86c-.39.08-.7-.02-.93-.28-1.11-1.29-1.2-3.15-2.28-4.46a3.22 3.22 0 0 1-.79-1.77c-.04-.55-.22-1.85-.52-3.91a7.65 7.65 0 0 1 1.02-5.06c.27-.47 1.12-1.43 1.26-2.18.14-.74.36-1.3.67-1.67a.37.37 0 0 0 .08-.18c.15-.9-.23-1.54-.33-2.35-.08-.58.25-.96.63-1.33.09-.09.17-.32.23-.7l5.13.33c.16.01.18-.03.05-.12l-.26-.2c-.08-.07-.07-.1.03-.12.37-.05.74-.04 1.11.05.03.11.03.18-.01.21-.12.08-.07.2.14.35.2.15.43.28.66.38.07.04.08.08.02.13a4.77 4.77 0 0 0-1.15 1.44c0 .02 0 .03.02.05l.05.07h.02a.05.05 0 0 0 .06 0c.26-.4.6-.77 1-1.08.35-.28.65-.42.9-.43l1.63.56a.2.2 0 0 0 .18-.02 3.14 3.14 0 0 1 2.67-.47c.6.26 1.5.7 2.14.45.21-.09.2-.17-.02-.23a1.78 1.78 0 0 1-.6-.33 3.65 3.65 0 0 0-1.86-.77.67.67 0 0 1 0-.25.24.24 0 0 1 .11-.16.5.5 0 0 0 .23-.34l.01-.03.03-.01.12-.03a.05.05 0 0 1 .05.01.05.05 0 0 1 0 .05l-.14.36c-.01.03 0 .06.02.08a.1.1 0 0 0 .08.02c.03 0 .06-.03.1-.06.47-.47 1.15-.3 1.23-1.14.12-.15.25-.2.38-.15.27-.42.58-.53.93-.33.13.07.12.12-.03.15l-.45.09c-.34.06-.35.16-.04.3.2.1.35.25.41.46.02.04.01.08-.01.11-.03.04-.07.05-.1.04-.08-.02-.13-.05-.15-.08a.76.76 0 0 0-.37-.27h-.05a.09.09 0 0 0-.06.06V16l.22.74c.18.53.41.69.69.48.8-.58 1.03-1.37.7-2.37-.22-.37-.53-.7-.93-.97-.5-.33-1.25.15-1.54.58-.04.06-.03.12.02.16l.52.49c.09.19.05.28-.1.28a.14.14 0 0 1-.09-.04 3.81 3.81 0 0 0-2.88-1.2c-.18 0-.2.05-.03.14l.5.28c.06.03.07.08.02.13-.05.06-.11.08-.18.04a7.75 7.75 0 0 0-3.55-.96l-1.35.28-.55.1c-.09.02-.12-.02-.11-.1l.01-.1a.3.3 0 0 0-.05-.22 2.78 2.78 0 0 0-2.1-1.3c-.12-.01-.23.05-.32.2a.35.35 0 0 1-.15.12c-.36.17-.73.45-1.1.84-.06-.6.12-1.05.52-1.34.88-.63 2.94-.05 3.3 1.01.02.06.06.12.1.15.33.26.68.33 1.05.23a4.92 4.92 0 0 1 2.25-.2l3.78.48c.07 0 .14 0 .2-.04.26-.14.5-.35.74-.46.38-.16 2-.57 2.1.22.01.08.04.16.08.23.87 1.39.72 2.63-.47 3.74-.06.05-.06.1 0 .16.29.32.55.65.77 1 .63 1 1.8 2.22.71 3.4-.27.3-.24.42-.22.81.12 2.1-2.52 1.39-2.19 3.77.01.07.04.13.09.17.32.3.53.51.7.95.08.2.16.35.27.46 1.06 1.16 1.72 2 2.08 3.42.13.54-.06.98-.17 1.5-.3 1.54 2.05.08 2.48-.13a.17.17 0 0 0 .09-.16l-.05-.94c0-.06-.03-.1-.08-.13-.71-.41-2.42-1.74-2.44-2.59-.02-.53 0-.94-.15-1.49-.24-.81-.3-1.8.55-2.25l.78-.24c.4-.13.87-.37 1.38-.7.43-.3 1.17-.42 1.7-.8.68-.47 1.28-1.15 2.25-.82.7.23 2.43.89 2.57 1.58.02.07.01.13-.02.19-.11.25-.18.5-.2.78 0 .07.02.14.06.19.5.62 1.13 1.4.78 2.28a.3.3 0 0 0-.02.19c.16.6.17 1.26.04 1.98-.32 1.77-.6 3.55-.86 5.33-.09.67-.71 2.78-1.46 2.8Z" fill="#071440"/><path d="M22.87 14.06c.13.2.43.33.9.36-.03.24-.29.36-.77.36-.52 0-1.04.28-1.55.85-.7.1-1.4.14-2.1.12-.69-.02-1-.32-1.08-.98-.05-.5.02-.88.22-1.17.38-.4.75-.67 1.1-.84a.35.35 0 0 0 .16-.13c.09-.14.2-.2.33-.19.86.08 1.56.52 2.1 1.3a.3.3 0 0 1 .04.22l-.01.1c-.01.08.02.12.11.1l.55-.1Z" fill="#18B9D9"/><path d="M20.63 13.72c-.45-.35-.82-.4-1.12-.17-.31.24-.28.33.11.25.14-.03.28 0 .41.07.27.15.25.25-.05.3a.61.61 0 0 0-.2.08c-.24.13-.22.22.04.26l.37.05c.06 0 .1.04.14.1.11.2.07.4-.15.57-.2.28-.49.3-.84.08a.2.2 0 0 1-.1-.14c-.03-.24-.17-.38-.4-.43a.15.15 0 0 1-.1-.05.16.16 0 0 1-.03-.1c0-1.11 1.08-2.24 2.07-1.15a.15.15 0 0 1 .02.17.2.2 0 0 1-.17.1Z" fill="#FDFFFF"/><path d="m21.12 13.56-.15-.2c-.19-.25-.14-.32.14-.22.17.07.37.29.61.66.1.16.08.3-.1.4a.52.52 0 0 1-.29.06c-.06 0-.1-.04-.1-.1l-.04-.42a.33.33 0 0 0-.07-.18ZM20.63 13.72c.08.13.14.28.18.45-.02.25 0 .49.05.7-.19.4-.41.53-.68.37.21-.18.26-.37.15-.59a.17.17 0 0 0-.14-.1l-.37-.04c-.26-.04-.28-.13-.05-.26a.62.62 0 0 1 .21-.08c.3-.05.32-.15.05-.3a.58.58 0 0 0-.41-.07c-.39.08-.42 0-.11-.25.3-.24.67-.18 1.12.17Z" fill="#071440"/><path d="M30.53 15.1c.05.22.13.32.24.32-.13-.05-.26 0-.38.15l-.54.3c-.17.1-.5.16-.97.16-.07 0-.1.03-.1.1v.1a.2.2 0 0 1-.06.15.18.18 0 0 1-.18.06.22.22 0 0 1-.15-.1 1.36 1.36 0 0 0-.46-.43c-.08-.05-.12-.03-.13.07a.38.38 0 0 1-.1.21c-.04.06-.14.1-.27.12-.36.07-.57.2-.62.4-.7-.39-1.2-.87-1.68-1.47-.32-.38-.6-.42-1.05-.3-.03-.15.01-.24.13-.3.12-.04.2-.1.22-.18l.68-.05c.32-.02.34-.1.04-.23l-.93-.4c1.12 0 2.3.32 3.55.96.07.04.13.02.18-.04.05-.05.04-.1-.02-.13l-.5-.28c-.16-.09-.15-.13.03-.14 1.15 0 2.1.4 2.88 1.2.03.03.06.04.1.04.14 0 .18-.1.1-.28Z" fill="#18B9D9"/><path d="M32.47 14.85c-.09.27-.19.38-.3.36-.04-.01-.06 0-.06.04 0 .14-.02.28-.07.42.2-1.27-.93-1.14-1.5-.56l-.53-.49c-.05-.04-.06-.1-.02-.16.29-.43 1.05-.9 1.54-.58.4.27.71.6.94.97Z" fill="#18B9D9"/><path d="m24.22 13.78.93.4c.3.14.28.21-.04.23l-.68.05-.66-.04c-.47-.03-.77-.15-.9-.36l1.35-.28Z" fill="#B4F1FA"/><path d="m23.77 14.42.66.04c-.03.07-.1.14-.22.19-.12.05-.16.14-.13.29-.84.38-1.72.61-2.63.7.51-.58 1.03-.86 1.55-.86.48 0 .74-.12.77-.36Z" fill="#0A7FBE"/><path d="m27 15.85-1.16-1.02c.01-.08.05-.13.11-.16.04-.02.1-.01.17.02.47.23.85.56 1.13 1.01.05.07.03.1-.05.12l-.2.03Z" fill="#071440"/><path d="M32.04 15.67c.07.62-.26.98-.97 1.07l-.22-.74a.09.09 0 0 1 .1-.1c.16.04.28.13.38.26.02.03.07.06.14.08.04.01.08 0 .1-.04a.12.12 0 0 0 .02-.11.72.72 0 0 0-.41-.45c-.31-.15-.3-.25.04-.31l.45-.09c.15-.03.16-.08.03-.15-.35-.2-.66-.1-.93.33-.1 0-.19-.1-.24-.31.58-.58 1.7-.71 1.51.56ZM25.84 14.83l1.15 1.02c.04.05.05.09.05.12-.01.07-.04.1-.1.1-.66.02-1.18-.6-1.59-1.05a.14.14 0 0 1-.03-.13l.03-.06a.13.13 0 0 1 .05-.03.57.57 0 0 1 .44.03Z" fill="#B4F1FA"/><path d="M28.26 15.75c-.26-.3-.56-.55-.92-.72-.23-.1-.22-.14.03-.1.44.08.8.31 1.09.7.02.04.02.07-.02.1l-.05.04c-.05.03-.1.03-.13-.02Z" fill="#071440"/><path d="M32.47 14.85c.32 1 .09 1.79-.71 2.37-.28.2-.5.05-.7-.48.72-.1 1.05-.45.98-1.07.05-.14.07-.28.07-.42 0-.04.02-.05.06-.04.11.02.2-.1.3-.36Z" fill="#0A7FBE"/><path d="M29.15 15.44c-.1-.1-.08-.2.05-.34.14-.15.3-.2.49-.13.1.04.1.1.02.15-.11.08-.2.18-.28.3a.18.18 0 0 1-.21.06.18.18 0 0 1-.07-.04Z" fill="#071440"/><path d="M24.73 15.57h-1.38c-.1 0-.17.08-.17.17v.02c0 .09.08.16.17.16h1.38c.1 0 .17-.07.17-.16v-.02c0-.09-.07-.17-.17-.17Z" fill="#FDFFFF"/><path d="M30.4 15.57c-.09.84-.77.67-1.25 1.14a.18.18 0 0 1-.09.06.1.1 0 0 1-.08-.02c-.03-.02-.03-.05-.02-.08l.15-.36a.05.05 0 0 0-.06-.06l-.12.03a.05.05 0 0 0-.04.04.5.5 0 0 1-.23.34.24.24 0 0 0-.1.16.67.67 0 0 0-.01.25l-1.33.16c-.31-.14-.7-.09-1.18.15a.1.1 0 0 0-.06.07v.07l-.3-.09 1.13-.72c.05-.2.26-.33.62-.4.13-.02.23-.06.28-.12a.38.38 0 0 0 .09-.21c0-.1.05-.12.14-.07.18.1.33.25.45.43.04.05.09.09.15.1.07.01.13 0 .18-.06a.2.2 0 0 0 .06-.15v-.1c0-.07.03-.1.1-.1.47 0 .8-.05.97-.16l.54-.3Z" fill="#0A7FBE"/><path d="M22.7 16.76c-.37-.09-.74-.1-1.11-.05-.1.01-.11.05-.03.11l.26.2c.13.1.11.14-.05.13l-5.13-.32-.46-.02c-.6-.23-.59-.33.05-.29 1.3.1 2.6.1 3.9.05.57-.03.59-.13.05-.3a2.55 2.55 0 0 1-.3-.15c-.05-.03-.06-.07-.03-.12.04-.08.1-.12.17-.12 1.32.1 2.6.18 3.86.26.13 0 .23.07.3.17l.23.33c.05.08.03.12-.07.12H22.7ZM25.2 16.46l-.11.05a.23.23 0 0 1-.1.01.49.49 0 0 1-.42-.23c-.04-.06-.02-.1.04-.12.58-.21 1.32.15 1.8.48a.07.07 0 0 1 .02.1l-.03.02c-.4.15-.73.06-1.01-.27-.05-.06-.11-.07-.19-.04Z" fill="#F0488A"/><path d="M30.32 17.2c.16-.15.14-.38.05-.57a.08.08 0 0 1 0-.08.08.08 0 0 1 .07-.03h.1c.07 0 .11.03.13.1.15.43.28.7.38.8.46.5.38.63-.27.4-.12-.04-.29-.17-.5-.37-.05-.05-.06-.1-.02-.17a.38.38 0 0 1 .06-.08Z" fill="#FDFFFF"/><path d="m29.35 16.83.62-.21c.09-.03.14 0 .14.1l.03.32a.14.14 0 0 1-.18.16l-.6-.14c-.27-.06-.27-.13 0-.23Z" fill="#F0488A"/><path d="M25.2 17.21c.33.04.6 0 .61-.09.01-.08-.25-.18-.58-.21-.33-.04-.6 0-.61.09 0 .08.25.18.58.21ZM25.63 17.5l.02.32c-.4-.1-.81-.08-1.24.06-.25 0-.55.15-.9.43a4.37 4.37 0 0 0-1.04 1.1l-.02-.01-.02-.01-.05-.07a.1.1 0 0 1-.01-.1c.3-.54.67-1 1.14-1.39.06-.05.05-.1-.02-.13-.23-.1-.45-.23-.66-.38-.21-.16-.26-.27-.14-.35.59-.02 1.62-.12 1.94.23.15.16.48.26 1 .3ZM18.58 17.15c-.19.32-.43.6-.72.83-.05.05-.05.09.02.12.13.05.26.05.39 0 .1-.02.13.01.1.1-.07.25-.2.46-.24.67-.06.42-.03.83.11 1.24.06 1.07.49 2 1.29 2.78-.07.14-.16.2-.27.18-.54-.12-1.44-1.67-1.67-2.17a.25.25 0 0 0-.15-.13c-.18-.07-.38 0-.52-.1-.09-.06-.12-.16-.1-.3v-1.39a.55.55 0 0 0 .17-.17c.06-.1.03-.15-.08-.14l-.38.01c-.06 0-.1-.06-.09-.12a.7.7 0 0 1 .26-.35l.3-.39c.42-.6.95-.82 1.58-.67Z" fill="#FDFFFF"/><path d="m27.22 17.23-1.04.32a.13.13 0 0 1-.11-.01.11.11 0 0 0-.08-.02c-.01-.02-.01-.04 0-.07a.1.1 0 0 1 .05-.07c.47-.24.87-.29 1.18-.15Z" fill="#071440"/><path d="M28.55 17.07c.7.09 1.32.35 1.86.77.2.16.39.27.6.33.23.06.23.14.02.23-.64.26-1.55-.19-2.14-.45-.49-.49-1.04-.63-1.66-.43-.73.23-1.26.33-1.58.3l-.02-.32c.13-.04.14-.07.04-.07l.32.09c.03 0 .05 0 .08.02s.07.02.11.01l1.04-.32 1.33-.16ZM18.58 17.15l1.38.13c.04 0 .07.01.1.03l.08.07c.18.31.43.57.74.76.06.04.08.1.06.18a.27.27 0 0 1-.1.12c-.08-.06-.14-.03-.2.09a.55.55 0 0 0-.03.34 3.4 3.4 0 0 0-.19 1.72.12.12 0 0 0 .08.05h.04c.11-.03.17-.12.18-.26.04-.94.4-1.75 1.06-2.43.03.26-.14.68-.5 1.24-.22.36-.3.87-.24 1.53a6.17 6.17 0 0 0-.15 2.98.1.1 0 0 1-.07.06.1.1 0 0 1-.05 0c-.2-.1-.39-.27-.56-.54-1.05-1.6-1.35-3.43-.3-5.06.04-.06.03-.11-.02-.16l-.4-.34c-.34-.3-.46-.22-.36.22l.06.17a.16.16 0 0 1-.03.18 3.05 3.05 0 0 0-.92 1.88c-.14-.4-.17-.82-.11-1.24.03-.21.17-.42.24-.66.03-.1 0-.13-.1-.1a.57.57 0 0 1-.39-.01c-.07-.03-.07-.07-.02-.12.3-.23.53-.5.72-.83Z" fill="#18B9D9"/><path d="M21.04 20.72c-.06-.66.02-1.17.25-1.53.35-.56.52-.98.5-1.24 0-.1-.1-.21-.32-.32a.11.11 0 0 1 .04-.21c.44-.02.85.07 1.23.29a.2.2 0 0 1 .06.3c-.46.56-.8 1.17-1.03 1.83a.22.22 0 0 0 .03.22c.03.04.03.08.02.13-.1.3-.17.59-.2.9-.01.15-.1.24-.29.27a.12.12 0 0 1-.13-.16l.1-.24c.02-.07 0-.13-.07-.17a.53.53 0 0 0-.19-.07ZM28.89 17.95c-1-.24-1.9-.09-2.67.47a.2.2 0 0 1-.18.02l-1.63-.56c.43-.14.84-.16 1.24-.06.32.03.85-.07 1.58-.3.62-.2 1.17-.06 1.66.43Z" fill="#0A7FBE"/><path d="M27.03 18.27c.21.17.44.18.68.02a.09.09 0 0 0 .04-.06.08.08 0 0 0-.03-.07c-.02-.02-.05-.03-.1-.02a.52.52 0 0 1 .3-.02c.97.32 2.31.95 3.29.54a.17.17 0 0 1 .2.03l.71.63a.18.18 0 0 1 0 .27c-.52.44-1.1.79-1.73 1.04a.23.23 0 0 1-.28-.09c-.52-.8-1.27-1.09-2.25-.83a.2.2 0 0 1-.18-.04l-1.2-.92c-.08-.05-.08-.11-.02-.18a.88.88 0 0 1 .57-.3Z" fill="#F0488A"/><path d="M27.63 18.14c.04 0 .07 0 .1.02a.08.08 0 0 1-.02.13c-.24.16-.47.15-.68-.02.2-.08.4-.13.6-.13Z" fill="#FDFFFF"/><path d="m31.89 23.18.36-.5c.49-.9.54-1.87.15-2.89a.18.18 0 0 1 .03-.18l.1-.13a.16.16 0 0 0 .04-.11.15.15 0 0 0-.05-.1l-.88-.83a.08.08 0 0 1-.02-.08l.02-.04a.08.08 0 0 1 .04-.01l.08-.02a.3.3 0 0 1 .3.1c.59.59 1.03 1.29 1.3 2.08.04.07.01.11-.07.1h-.32c-.1 0-.14.04-.1.14.39 1.5.12 3.1-1.37 3.87a.05.05 0 0 1-.07-.03l-.02-.05a.12.12 0 0 1 .04-.14l.61-.46a.17.17 0 0 0 .05-.2l-.22-.52Z" fill="#B4F1FA"/><path d="m27.2 19.77.22 1.46c-.78-.38-1.5-.81-2.14-1.28-.28-.2-.54-.23-.86-.28-.11-.01-.13-.06-.05-.14a.66.66 0 0 1 .23-.14c.1-.04.09-.07 0-.1-.06-.02-.12-.01-.2.03-1.6.9-2.02 2.82-1.5 4.49.04.15.42.23.35.05l-.18-.5a.06.06 0 0 1 .03-.08c.06-.03.1-.01.14.04 1.46 2.19 3.52.64 5.57.46a9.33 9.33 0 0 1 2.33.09.21.21 0 0 0 .2-.09.2.2 0 0 0 .02-.21.46.46 0 0 0-.12-.15c-.06-.05-.11-.05-.17 0-.33.33-.71.15-1.08.04a.4.4 0 0 0-.22 0 1.5 1.5 0 0 1-.8-.02c-.04-.01-.07-.02-.1-.01a.26.26 0 0 0-.1.03c-.33.17-.68.24-1.04.2-.07-.01-.13 0-.19.02-.44.23-.74.45-1.28.37a.24.24 0 0 1-.17-.11.35.35 0 0 0-.22-.16.23.23 0 0 0-.19.04.99.99 0 0 1-.7.16.2.2 0 0 1-.17-.14c-.1-.34-.33-.42-.68-.24a.37.37 0 0 1-.52-.25c-.04-.24-.2-.38-.44-.42a.23.23 0 0 1-.16-.33l.53-.99a.14.14 0 0 1 .09-.07c.02 0 .03-.02.04-.04.02-.02.01-.04 0-.05a.62.62 0 0 1-.26-.73c.05-.18.19-.24.4-.19.07.02.1 0 .11-.07.01-.08-.02-.14-.08-.16a.1.1 0 0 1-.06-.1.1.1 0 0 1 .05-.09c.38-.2.7-.13.95.18.05.06.11.07.18.04l.1-.04a.21.21 0 0 1 .2.02l1 .64a.2.2 0 0 1 .1.15v.13c0 .08.03.12.1.1.15-.04.3-.06.44 0 1.3.6 2.72.52 4.08.53a.24.24 0 0 1 .2.12.24.24 0 0 1 0 .24c-.05.1-.13.19-.22.27-.07.06-.06.11.02.16.4.23.66.57.77 1.02a.27.27 0 0 1-.18.32.73.73 0 0 0-.42.3c-.07.2-.1.46-.08.8-.06.37-.2.7-.43 1-.25.05-.5.04-.76-.05-.09-.02-.11-.08-.08-.17.01-.05.05-.1.1-.12a.17.17 0 0 0 .07-.15v-.86a.28.28 0 0 0-.2-.28.29.29 0 0 0-.13 0l-1.25.17c-.34.04-.47.25-.4.62.05.3-.06.57-.33.82a.15.15 0 0 1-.17.03l-.18-.07a.19.19 0 0 0-.19.02c-1.16.84-3.06-.31-4.28-.63l-.7-.57a.2.2 0 0 0-.16-.05l-.41.08c-.1.03-.16-.02-.18-.12a7.78 7.78 0 0 1 1.65-5.63c1.23-1.59 3.13-.44 4.16.64Z" fill="#FDFFFF"/><path d="M20.85 18.44c-.03.15-.1.3-.24.43a.55.55 0 0 1 .03-.34c.06-.12.12-.15.2-.09Z" fill="#0A7FBE"/><path d="m16.83 18.98-.01 1.4-.09.9c-.12-.36-.54-2.06.1-2.3Z" fill="#18B9D9"/><path d="M27.2 19.77c.4.34.82.55 1.27.64a.08.08 0 0 0 .07-.15l-.26-.2a.07.07 0 0 1-.03-.06.08.08 0 0 1 .04-.06c.13-.08.29-.1.47-.04A1.7 1.7 0 0 1 30 21.19a.08.08 0 0 0 .07.06.08.08 0 0 0 .08-.05l.07-.14c.03-.07.07-.1.13-.13a4.71 4.71 0 0 0 1.64-.9.18.18 0 0 1 .2.14c.33 1.21-.8 1.61-1.77 1.43-.31-.05-.6-.07-.88-.05a4.21 4.21 0 0 1-2.12-.32l-.22-1.46ZM16.82 20.38c-.02.13.01.23.1.3.14.1.34.02.52.09.07.02.12.07.15.13.23.5 1.13 2.05 1.67 2.17.1.02.2-.04.27-.18l.68.74c.24.27.54.38.8.6.16.14.14.19-.08.15-.98-.19-3.14-1.16-3.28-2.34.03-.14-.05-.21-.24-.22a.99.99 0 0 1-.5-.15l-.18-.39.09-.9Z" fill="#B4F1FA"/><path d="m32.25 22.68-.36.5a1.73 1.73 0 0 1-.43-1.2.2.2 0 0 1 .11-.17l.64-.34a.1.1 0 0 1 .1.01.1.1 0 0 1 .03.1c-.15.4-.18.77-.09 1.1Z" fill="#0A7FBE"/><path d="m24.11 21.48.52.28c.07.04.07.07 0 .1-.35.09-.57.01-.68-.24-.08-.2-.03-.25.16-.14ZM25.51 21.96c-.2.1-.48.2-.65-.04-.1-.13-.08-.25.07-.37.1-.07.23-.08.33 0 .2.12.54.5.8.43.2-.05.35-.04.45.01.32.18.3.31-.06.4-.08.02-.2-.03-.35-.14-.14-.1-.4-.38-.59-.29Z" fill="#071440"/><path d="M16.9 21.67c.14.1.3.14.5.15.2.01.28.08.25.22-.44.25-.7.12-.75-.37Z" fill="#18B9D9"/><path d="M22.48 24.3a3.85 3.85 0 0 1-.48-2.47c.01-.05.04-.07.09-.07l.07.01c.04 0 .07.03.07.08a7.04 7.04 0 0 0 .45 2.44.06.06 0 0 1-.04.03l-.06.02a.08.08 0 0 1-.1-.03Z" fill="#071440"/><path d="M22.23 25.56c-.47-.01-.68.1-.62.32a3.8 3.8 0 0 0-2.64-.38c-.37.09-.66.17-1.05.03-1-.37-1.93-.5-2.8-.4-.32.05-.36-.04-.13-.26l.47-.44a1 1 0 0 1 .82-.27c.9.12 1.89.44 2.66.27a.06.06 0 0 0 .05-.05.06.06 0 0 0-.02-.07 5.35 5.35 0 0 0-2.61-1.02c-.07 0-.13 0-.19.04a.6.6 0 0 1-.23.07.12.12 0 0 1-.11-.06.12.12 0 0 1 0-.14c.24-.33.39-.7.45-1.1.01-.07.05-.1.12-.1a.2.2 0 0 1 .12.04c.03.03.06.06.08.11.3.87.9.82 1.49 1.24 1.26.9 2.64 1.62 4.14 2.17Z" fill="#0A7FBE"/><path d="M29.87 22.47c-.67 0-1.23.05-1.89.16a.2.2 0 0 1-.14-.02c-.07-.04-.07-.07 0-.1.54-.26 1.45-.15 2.03-.12.03 0 .04.01.04.04s-.01.04-.04.04ZM30.09 22.87c.13-.09.27-.1.42-.07a.11.11 0 0 1 .08.12.11.11 0 0 1-.09.1.73.73 0 0 1-.4-.02c-.1-.04-.1-.08-.01-.13Z" fill="#071440"/><path d="M41.88 24.24c-.01.16.05.32.19.49.08.1.08.24 0 .33a3.61 3.61 0 0 0-.85 2.61l-1.3-.7c.27-.26.43-.59.46-.98.01-.13-.03-.15-.12-.06a3 3 0 0 0-.58.81c-.02.05-.03.08-.02.1 0 .04.03.07.07.1a.39.39 0 0 0-.2 0c-.07.03-.09.07-.06.14.02.07.05.12.1.16l-.8 1.11c-.06.08-.04.12.06.12l.78.02c.29.01.48-.3.35-.55-.09-.19-.14-.38-.14-.58.76.95 1.34 2.57.9 3.8-.02.07 0 .12.06.15l.68.38-.32.99c-.03.08 0 .13.1.13.1.01.2.04.3.1.06.04.1.1.1.17.1.8.06 1.6-.1 2.4-.21-.03-.31-.12-.35-.33a3.7 3.7 0 0 0-1.05-2 5.98 5.98 0 0 1-.04-2.22c0-.04 0-.06-.05-.07l-.06-.01c-.04-.01-.08 0-.1.05l-.55 1.73-.12.18c-1.66 2.9-3.94 2.8-6.76 3.56-.17.05-.2.01-.06-.11l.42-.4c.27-.25.23-.33-.13-.23a5.42 5.42 0 0 0-3.18 2.3c-.29.44-.2.53.25.28l.4-.21c-.1.3-.25.53-.46.69-.44.46-.51 1.09-.73 1.6-.17.4-.25.85-.22 1.31 0 .1-.04.13-.13.07-.24-.17-.43-.7-.78-.53-.08.04-.1.1-.07.17l.33.78c.03.06 0 .1-.07.1h-.06a.26.26 0 0 1-.22-.1c-.3-.42-1.07-1.07-1.02-1.58.05-.55.19-1.17.42-1.86l.28-.57c.14-.27.08-.33-.19-.18-.93.52-1.56 1.48-2.4 2.56-.37.23-.68.55-.92.95a.18.18 0 0 1-.3 0 3.7 3.7 0 0 1-.64-2.02c0-.12-.14-.2-.24-.12-.23.16-.36.37-.42.61-.03.12-.25.17-.28.02a3.35 3.35 0 0 1-.02-1.13l.45-.53c0 .11 0 .17.03.2.06.04.13.08.2.09.08 0 .15-.01.21-.05l.58-.36c.06-.05.15.01.14.1-.1.56-.02 1.1.21 1.62a.2.2 0 0 0 .32.04 2.7 2.7 0 0 1 1.88-1.03.1.1 0 0 0 .07-.16l-.08-.1a.35.35 0 0 0-.35-.1l-1 .22a.13.13 0 0 1-.15-.15c.14-.63.42-1.48.82-2.03.13-.17.08-.26-.13-.27a8.56 8.56 0 0 0-2.61.26c-.23.05-.3.2-.18.45l-1.67.66c-.06-.63.14-1.2.6-1.74a.1.1 0 0 0-.04-.17 6.74 6.74 0 0 1-2.29.24 6.44 6.44 0 0 0 2.37-2.17c.32-.58.24-.64-.24-.2-.6.56-1.43.9-2.5 1.01a.3.3 0 0 1-.13-.12.11.11 0 0 1 .04-.15l.68-.4c.27-.15.25-.24-.06-.26-1.37-.1-3.15-.09-2.92-2 1.02.24 2 .35 2.91.33l-.25.39c-.05.07-.03.1.06.11.72.03 1.02.22 1.58.34.07.02.1-.01.1-.09-.08-.44-.02-.93.18-1.46l.93-.86c.2-.18.17-.25-.1-.2l-1.02.17c-.27-.48-1.14-1.6-1.75-1.44-.07.02-.08.05-.04.1.3.36.5.76.61 1.22.02.07.06.11.12.13l.15.03-3.4-.57c.14-.46.37-.88.66-1.26.32-.41.8-.68 1.24-1.02 1 .06 1.84.55 2.49 1.46.06.1.28.03.26-.09 0 0 0-.02-.02-.03a3.71 3.71 0 0 0-3.7-1.67c.2-.31.55-.62 1.04-.91l.66.2c.07.03.14.02.2-.01.81-.41 1.68-.56 2.59-.46.25.03.27-.01.05-.12l-.21-.08c-.06-.22.15-.33.62-.32.87.9 1.9 1.54 3.08 1.95.07.02.11.06.14.12.13.29.25.31.36.1l.55 1.1a.17.17 0 0 0 .12.08.17.17 0 0 0 .14-.03.53.53 0 0 1 .19-.1.2.2 0 0 1 .2.04c.28.24.37.56.28.94a.59.59 0 0 0-.27.02c-.07.02-.1.06-.1.14l.04.53c0 .13.05.14.13.05l.1-.12c0 .05.01.11.07.18l-.43.12a.38.38 0 0 1-.48-.4c.04-.38 0-.7-.23-1.04-.46-.69-.66-1.2-1.56-1.58a4.92 4.92 0 0 0-3.15-.22c-.01.02-.02.13.02.12a5.08 5.08 0 0 1 2.39.22c.76.27 1.8 1.05 1.9 1.94l-.02.5-.27 1.01c-.5.73-.8 1.51-.95 2.37l-.24.27c-.06.06-.05.1.03.14l.07.02a.17.17 0 0 0 .17-.04l.28-.27c.05.08.1.12.16.12l1.78-.06c.35 0 .38.08.07.26-.23.13-.44.3-.61.5-.28.33-.22.44.2.34.69-.18 1.39-.08 2.11.28-.48.1-.91.31-1.28.63-.1.02-.2.12-.3.32a.28.28 0 0 1-.14.13c-.1.05-.2.12-.27.2-.07.08-.05.11.05.1.84-.17 1.44-.39 2.34-.23a.11.11 0 0 1 .08.06.11.11 0 0 1-.01.11 3.34 3.34 0 0 0-.56 1.83c0 .07.03.13.09.16.06.04.12.05.18.02.04-.03.08-.1.11-.2.23-.78.66-1.42 1.28-1.92a7.43 7.43 0 0 1 3.96-1.85c.25-.03.27.03.06.18l-.38.27c-.04.03-.04.06 0 .09l.07.05c.02.02.05.03.07.03l.08-.01 1.37-.63c.8.1 1.6-.1 2.39-.6 1.27-.83 1.2-2.08 1.53-3.34a.08.08 0 0 0-.06-.1l-.08-.02c-.1-.01-.18.03-.22.13-.1.27-.26.49-.47.67-.14.11-.35 0-.33-.17 0-.15.06-.32.15-.52-.01-.02 0-.06.05-.12l.1-.04a.18.18 0 0 0 .09-.1c.1-.26.25-.5.43-.73.33-.4.25-.5-.23-.31l-.9.36c-.13.05-.25-.08-.19-.2l.59-1.08c.04-.08-.02-.18-.1-.17-.97.07-1.79.44-2.48 1.09a.26.26 0 0 1-.42-.14l-.2-1.02.05-.2c0-.07.02-.18.09-.33.05-.13.05-.22-.01-.29a.16.16 0 0 0-.18-.03c-.16.07-.3.1-.43.08-.26-.4-.23-.75.08-1.04.19-.17.35-.28.5-.33l1.26.96c.05.04.04.12-.01.14l-.54.23c-.05.03-.06.1 0 .13a.5.5 0 0 0 .21.07 3.26 3.26 0 0 0 3.24-1.46l.43-.7c.2-.3.16-.59.22-.91.05-.3-.05-.36-.3-.19-.3.22-.69.33-1.15.34.37-.3.76-.58 1.16-.86.18-.13.34-.18.47-.16.65.15 1.26.38 1.84.7Z" fill="#18B9D9"/><path d="m25.88 24.96-.01-.01-.01-.06a13.33 13.33 0 0 1 4.07-.88c.02 0 .03.02.03.04s0 .03-.04.03l-4.04.88Z" fill="#071440"/><path d="M35.05 25.95c.56-.27 1.01-.2 1.37.23l-.03.25c-.01.07.02.12.09.13h.1c1.09.1 1.91-.29 2.47-1.16a.15.15 0 0 0 .02-.1.15.15 0 0 0-.05-.1l-.06-.04a.11.11 0 0 0-.15.02c-.3.35-.46.5-.5.47-.1-.08-.11-.16-.04-.25a.08.08 0 0 0-.05-.13c-.08 0-.16 0-.23.02a.18.18 0 0 0-.14.14c-.04.15-.04.29-.03.43.01.07-.02.12-.08.15-.49.23-.77.18-.85-.16l.02-.7 1.5-.6c.46 0 .85-.11 1.16-.33.24-.17.34-.1.29.19-.06.32-.03.6-.22.92-.15.23-.3.46-.43.69a3.26 3.26 0 0 1-3.24 1.46.5.5 0 0 1-.22-.07.07.07 0 0 1-.02-.03.07.07 0 0 1 0-.07l.03-.03.54-.23a.08.08 0 0 0 .04-.1.08.08 0 0 0-.03-.04l-1.26-.96Z" fill="#FDFFFF"/><path d="m41.88 24.24.65.32c.05.03.09.07.1.12.02.05.02.1 0 .16-.3.74-.4 1.5-.27 2.3.01.07.05.1.12.11.06 0 .11-.01.16-.06a.27.27 0 0 0 .06-.16l.04-.42c.06-.5.2-.52.38-.05.12.29.27.56.44.83a.25.25 0 0 1-.04.31c-.26.27-.48.56-.64.9-.14.3-.07.36.22.2l.2-.1c.27-.12.34-.04.2.23-.24.49-.3 1.04-.17 1.66a.2.2 0 0 1 0 .1c-.02.06-.04.1-.06.1a.17.17 0 0 1-.12.04.14.14 0 0 1-.1-.07c-.26-.39-.58-.73-.96-1.01a.4.4 0 0 1-.15-.26 4.4 4.4 0 0 0-.72-1.82 3.61 3.61 0 0 1 .85-2.6.25.25 0 0 0 0-.34c-.14-.17-.2-.33-.19-.49ZM31.15 24.28c.2.11.17.38-.08.8-.02-.33 0-.6.08-.8Z" fill="#0A7FBE"/><path d="M30.64 26.08c-.28.49-.66.85-1.15 1.08-.1.05-.19.06-.25.03-.06-.02-.09-.08-.08-.17 0-.1-.03-.12-.12-.08-.35.15-.7.29-1.05.41-.36.14-.47-.06-.8-.04-1.62.1-3.19-.72-4.35-1.9 1.22.33 3.12 1.48 4.28.64a.19.19 0 0 1 .2-.02l.17.07c.06.02.12.01.17-.03.27-.25.38-.53.32-.82-.06-.37.07-.58.41-.62.41-.05.83-.1 1.25-.17a.29.29 0 0 1 .3.16l.03.12v.86a.17.17 0 0 1-.07.15.25.25 0 0 0-.1.12c-.03.09 0 .14.08.17.25.09.5.1.76.04Z" fill="#B4F1FA"/><path d="M41.05 24.8c.26.01.48-.04.48-.13 0-.08-.2-.17-.46-.19-.26-.01-.47.04-.48.12 0 .09.2.17.46.2Z" fill="#071440"/><path d="m36.9 25.15-.01.7a.62.62 0 0 1-.26-.38c-.04-.18.05-.29.28-.32Z" fill="#0A7FBE"/><path d="m39.91 26.98-.18-.04a.15.15 0 0 1-.07-.1l.02-.1a3 3 0 0 1 .58-.8c.1-.1.13-.08.12.05-.03.4-.19.72-.47.99Z" fill="#B4F1FA"/><path d="M36.42 26.18c.07.11.12.24.16.38a.18.18 0 0 1-.1 0c-.07-.01-.1-.06-.09-.13l.03-.25ZM18.32 26.35c-.5.3-.84.6-1.03.91l-.74.18c-.02 0-.03.01-.03.03 0 .02.01.03.03.03l1.7.09c-.44.34-.92.6-1.24 1.02-.3.38-.52.8-.66 1.26l-1.55.45a.11.11 0 0 1-.12-.04.11.11 0 0 1 0-.13c.4-.67.9-1.27 1.48-1.8.23-.21.2-.26-.1-.14a3.38 3.38 0 0 0-2.13 2.5.12.12 0 0 1-.08.1.12.12 0 0 1-.12-.04.16.16 0 0 1-.04-.12c0-.8.02-1.61.05-2.42.01-.24.05-.4.11-.48.99-1.14 3.02-1.53 4.47-1.4Z" fill="#0A7FBE"/><path d="m33.67 31.04-.76.05c-.01 0-.02 0-.03.02 0 .02 0 .04.02.05l.03.03c.06.22.01.35-.15.4a.2.2 0 0 1-.25-.1.2.2 0 0 1-.02-.1 3.38 3.38 0 0 0-1.76-2.93c-.17-.1-.22-.05-.16.13a.9.9 0 0 1 .05.37c0 .06-.04.1-.1.1-.15.02-.24-.04-.28-.18a1.7 1.7 0 0 1-.07-.5.25.25 0 0 0-.33-.26c-.64.17-1.27.29-1.88.34-.08.01-.15 0-.19-.04-.06-.05-.05-.1.01-.14l.1-.07c.08-.06.08-.12 0-.19a.3.3 0 0 0-.22-.07c.25-.1.51-.1.78.01a.3.3 0 0 0 .2.02c.63-.17 1.2-.46 1.7-.88a.38.38 0 0 1 .5.01l.98.89c.04.03.04.07.02.1a.1.1 0 0 1-.06.06l-.05-.01c-.3-.14-.58-.3-.86-.46a.43.43 0 0 0-.34-.05c-.1.02-.1.06-.01.11a6.97 6.97 0 0 1 3.13 3.29Z" fill="#B4F1FA"/><path d="M35 27.89c-.38-.14-.56-.33-.53-.57.13.02.27-.01.43-.08a.15.15 0 0 1 .18.03c.06.07.06.16 0 .29-.06.15-.09.26-.08.33Z" fill="#0A7FBE"/><path d="m39.57 27.24.25.12c0 .2.05.4.14.58a.39.39 0 0 1-.16.5.38.38 0 0 1-.19.05l-.78-.02c-.1 0-.12-.04-.06-.12l.8-1.11Z" fill="#B4F1FA"/><path d="m25.8 27.72.85.03c.09 0 .1.13.01.15-.09.02-.14.08-.16.18-.01.06.05.11.11.1l1.07-.23a.3.3 0 0 1 .22.08c.08.06.08.12 0 .18-.08.05-.21.12-.1.21.03.04.1.05.18.04.61-.05 1.24-.17 1.89-.34.16-.04.32.09.32.26-.01.14.01.3.07.5.04.14.13.2.28.19.06-.01.1-.05.1-.11a.9.9 0 0 0-.05-.37c-.06-.18 0-.23.16-.13 1.02.58 1.8 1.7 1.76 2.94a.2.2 0 0 0 .27.2c.16-.06.2-.2.15-.4a.07.07 0 0 0-.03-.04c-.02-.01-.02-.03-.02-.05 0-.02.02-.02.03-.02l.76-.05c.08 1.13.1 1.96.03 2.49-.07.56-.4.82-1.03.78-.06 0-.08-.04-.05-.09l.48-1a.13.13 0 0 0-.05-.17.13.13 0 0 0-.06-.02c-.18 0-.32.13-.43.41-.28-.03-.41-.28-.41-.73.06-.48 0-.7-.17-.63-.1.05-.2.05-.25 0-.04-.04-.06-.1-.06-.2 0-.22-.04-.44-.1-.65a.21.21 0 0 0-.1-.13.25.25 0 0 0-.24-.01c-.04.02-.05.04-.03.08.07.22.1.43.07.64 0 .08-.05.12-.13.12H31c-.08 0-.12-.03-.12-.11l-.07-1.44a.14.14 0 0 0-.13-.13c-.05 0-.1 0-.15.04a.18.18 0 0 0-.08.13.76.76 0 0 1-.18.48c-.18.19-.29.15-.32-.1l-.1-.76-.08-.45a.1.1 0 0 0-.04-.06c-.11-.09-.32.04-.31.18a.7.7 0 0 1-.28.57c-.15-.05-.21-.17-.2-.38.02-.24-.3-.16-.39-.02L27.91 31c-.14.03-.25.03-.33-.01-.08-.04-.08-.1-.02-.15.3-.25.45-.57.46-.97 0-.1-.2-.22-.25-.1l-.27.6c-.06.12-.14.19-.24.19-.06-.07-.08-.13-.07-.18a.76.76 0 0 0 .1-.62c.1-.38 0-.7-.29-.94a.2.2 0 0 0-.2-.04.53.53 0 0 0-.18.1.17.17 0 0 1-.26-.06l-.55-1.1Z" fill="#FDFFFF"/><path d="m34.95 28.09.2 1.02a.26.26 0 0 0 .42.14 3.91 3.91 0 0 1 2.53-1.08c.02 0 .03.02.04.04a.12.12 0 0 1 .01.12l-.59 1.08a.14.14 0 0 0 .02.17.15.15 0 0 0 .17.03l.9-.36c.48-.2.56-.09.23.31-.18.22-.32.47-.43.73a.18.18 0 0 1-.1.1l-.09.04c-.04-.14-.13-.2-.26-.2a.24.24 0 0 0-.18.13l-.52.83a.16.16 0 0 1-.3-.05 2.85 2.85 0 0 1 .33-2.14c.17-.28.1-.34-.17-.18-.47.26-1.3.82-1.48 1.4a.18.18 0 0 1-.22.12.19.19 0 0 1-.08-.04c-.52-.49-1-1.58-.43-2.21Z" fill="#0A7FBE"/><path d="M23.16 28.22c1.48.43 2.1 1.07 1.97 2.49a.14.14 0 0 1-.16.12l-.07-.01c-.12-.02-.17-.1-.15-.21.16-1.21-.78-1.8-1.73-2.25a.04.04 0 0 1 0-.07l.04-.05a.1.1 0 0 1 .1-.02Z" fill="#B4F1FA"/><path d="M23.54 30.16c-.27-.65-.62-.92-1.05-1.35-.14-.14-.11-.19.08-.14 1.44.36 2.09 1.31 1.92 2.85a2.02 2.02 0 0 1-.43 1 .14.14 0 0 1-.1.01.14.14 0 0 1-.06-.02c-.07-.07-.1-.16-.08-.3.1-.68 0-1.36-.28-2.05Z" fill="#0A7FBE"/><path d="m20.66 30.4-.9.04-.16-.03a.15.15 0 0 1-.12-.13c-.1-.46-.3-.86-.6-1.21-.05-.06-.04-.09.03-.1.61-.17 1.48.95 1.75 1.43Z" fill="#B4F1FA"/><path d="M25.72 29.72c.08.12.14.25.17.38.02.07.01.1-.02.13-.04.02-.1.02-.17 0l.02-.51Z" fill="#0A7FBE"/><path d="M29.14 30.28c-.2.31-.9 1.15-1.23.72l.64-1.12c.04-.06.08-.1.15-.12a.2.2 0 0 1 .15 0c.07.02.1.07.1.14-.02.2.04.33.2.38ZM29.85 30.04l.1.76c.03.25.14.29.32.1.1-.1.16-.26.18-.48a.18.18 0 0 1 .08-.13c.04-.03.1-.05.15-.04a.14.14 0 0 1 .13.13l.07 1.44c0 .08.04.12.12.12h.14c.08 0 .12-.05.13-.13.03-.2 0-.42-.07-.64-.02-.04 0-.06.03-.08a.25.25 0 0 1 .23.01c.05.03.09.08.1.13.07.21.1.43.11.64 0 .1.02.17.06.2.06.06.14.06.25.01-.22.2-.36.46-.44.76a.26.26 0 0 1-.46.1 5.17 5.17 0 0 0-1.5-1.24.13.13 0 0 1 .06-.2c.16-.05.2-.16.1-.33a.21.21 0 0 1-.01-.18c.1-.3.15-.62.12-.95Z" fill="#18B9D9"/><path d="M35.3 34.5c1.01-.58 2.06-.93 2.85-1.8a.21.21 0 0 0 .04-.22l-.01-.05a.09.09 0 0 0-.14-.04l-.78.65a.1.1 0 0 1-.17-.03.1.1 0 0 1 0-.07c.03-.27.17-.46.23-.71.15-.61.45-1.17.89-1.68-.1.2-.14.37-.15.52a.2.2 0 0 0 .33.17c.2-.18.36-.4.47-.67.04-.1.11-.14.22-.13l.08.01a.08.08 0 0 1 .05.04.08.08 0 0 1 .01.07c-.33 1.26-.26 2.5-1.53 3.33-.8.51-1.59.72-2.39.6Z" fill="#0A7FBE"/><path d="m40.14 33.16-.8-.53.56-1.73c.01-.05.05-.06.1-.05l.05.01c.04.01.06.03.05.07-.12.75-.11 1.5.04 2.23Z" fill="#B4F1FA"/><path d="M26.65 31.38c.11.24.32.38.61.42.02 0 .03 0 .04-.02l.01-.06a.08.08 0 0 0-.04-.1.5.5 0 0 1-.28-.28c1.83.2 3.29 1 4.37 2.37-.07.62-.36.9-.86.87a.53.53 0 0 0-.21-.07c-.1 0-.13.05-.11.14l.04.16a.14.14 0 0 1-.11.17.81.81 0 0 1-.57-.13c.13-.24.1-.47-.09-.7-.45-.53-1.64-1.6-2.38-1.57l-1.27-.72a.22.22 0 0 1-.11-.16c-.12-.53.65-.5.96-.32Z" fill="#FDFFFF"/><path d="M25.43 31.23a6.25 6.25 0 0 1-.95 2.37c.14-.86.46-1.64.95-2.37Z" fill="#0A7FBE"/><path d="M20.85 31.29a2.9 2.9 0 0 0-.19 1.46c.01.08-.02.1-.09.09-.56-.12-.86-.31-1.58-.34-.09 0-.1-.04-.06-.11l.25-.39 1.67-.71Z" fill="#B4F1FA"/><path d="M26.65 31.38c.15 0 .27 0 .34-.04a.5.5 0 0 0 .28.28.08.08 0 0 1 .04.1l-.01.06c0 .02-.02.03-.04.02a.77.77 0 0 1-.61-.42Z" fill="#18B9D9"/><path d="M16.27 31.67c-.23 1.91 1.55 1.9 2.92 2 .3.02.33.1.06.26l-.68.4a.11.11 0 0 0-.04.15c.03.05.07.1.13.12a49.43 49.43 0 0 1-3.13-.69.23.23 0 0 0-.06.02c-.08.04-.1.1-.04.16.23.32.48.62.76.91a2.91 2.91 0 0 0 2.84.96 6.74 6.74 0 0 0 2.29-.24.1.1 0 0 1 .07.1.1.1 0 0 1-.03.07 2.28 2.28 0 0 0-.6 1.74c-.35.25-.7.59-1.08 1-.48.53-.11.92.12 1.42v.02a.05.05 0 0 1-.01.04l-.02.01-.05.02a.12.12 0 0 1-.09 0 .13.13 0 0 1-.06-.05 8.75 8.75 0 0 0-1.67-1.87.12.12 0 0 0-.17 0 .12.12 0 0 0 0 .17l1 1.33a.05.05 0 0 1 .01.04.04.04 0 0 1-.03.03c-.69.05-1.84-.68-2.32-1.1-.42-.37-.66-.92-.96-1.41-.03-.06-.02-.1.04-.12.11-.04.21-.02.3.07.07.07.14.11.2.12a.05.05 0 0 0 .05-.03l.01-.03-.01-.03c-.88-1.22-1.54-2.22-1.74-3.66-.05-.36.06-.7.15-1.05a.37.37 0 0 1 .1-.17 2.33 2.33 0 0 1 1.74-.71ZM41.46 31.7c.75.42 1.41 1.05 1.33 2a12.26 12.26 0 0 1-.43 2.23.17.17 0 0 1-.15.05.17.17 0 0 1-.08-.03l-.6-.48c.17-.8.2-1.59.12-2.4a.21.21 0 0 0-.11-.16.68.68 0 0 0-.3-.1c-.1 0-.13-.05-.1-.13l.32-.99ZM25.65 32.24c-.03.4-.18.74-.44 1 .03-.41.18-.75.44-1Z" fill="#0A7FBE"/><path d="M25.65 32.24c.43-.06.91.3 1.23.55l1.24.96c.06.04.1.1.1.17.04.17.14.26.3.27l.6.74c.06.07.05.11-.02.15a.9.9 0 0 1-.6.08 2.98 2.98 0 0 0-2.11-.28c-.41.1-.48-.01-.2-.33.17-.2.38-.38.61-.51.3-.18.28-.27-.07-.26l-1.78.06c-.05 0-.1-.04-.16-.12l.42-.47c.26-.27.41-.6.44-1.01Z" fill="#FDFFFF"/><path d="M27.07 32.58c.74-.02 1.93 1.04 2.38 1.58.2.22.22.45.1.7a2.34 2.34 0 0 1-.67-.76.18.18 0 0 0-.16-.09c-.2 0-.26.06-.2.18-.16 0-.26-.1-.3-.27a.28.28 0 0 0-.1-.17l-1.24-.96.15-.05c.03-.04.04-.09.04-.16Z" fill="#B4F1FA"/><path d="M32.15 32.71c0 .45.13.7.41.73-.07.47-.21.73-.41.79-.27.08-.34-.01-.23-.26.16-.36.23-.78.23-1.26Z" fill="#18B9D9"/><path d="m39.22 32.81.7 1.1-1.03 2.4c-.33-.34-.6-.63-.8-.87-.07-.08-.14-.09-.2-.02a.12.12 0 0 0-.04.14c.1.23.15.46.13.67l-.14.9a.3.3 0 0 1-.08.17l-1.36 1.32c-.1.1-.27.05-.3-.08a3.79 3.79 0 0 0-1.04-1.7.23.23 0 0 0-.38.1c-.06.2-.22.36-.47.5-.1-.19-.22-.29-.36-.3-.08 0-.1.04-.08.12l.22.57c-.13.43-.14.77-.48 1.1l-1.2 1.18c-.05.04-.1.05-.16.03-.05-.02-.06-.05-.04-.1a3 3 0 0 0 .31-1.93c-.02-.13 0-.31-.06-.46-.25-.55-1.54.05-1.9.18a.7.7 0 0 0-.3.17l-.4.21c-.45.25-.54.16-.25-.28a5.42 5.42 0 0 1 3.18-2.3c.36-.1.4-.02.13.23l-.42.4c-.13.12-.11.16.06.11 2.82-.75 5.1-.65 6.76-3.56Z" fill="#B4F1FA"/><path d="M29.07 33.34c.22.14.43.2.47.14.04-.07-.1-.23-.32-.37-.22-.15-.43-.2-.47-.14-.04.06.1.23.32.37Z" fill="#18B9D9"/><path d="M19.03 35.96A2.91 2.91 0 0 1 16.2 35a8.87 8.87 0 0 1-.76-.9c-.05-.08-.04-.13.04-.17l.06-.02h.06c1.03.27 2.06.5 3.07.7a4.26 4.26 0 0 0 2.5-1.01c.48-.45.56-.39.24.19a6.44 6.44 0 0 1-2.37 2.17Z" fill="#071440"/><path d="m31.36 33.71.3.87c.04.13 0 .23-.13.3l-.71.36c-.15.08-.21.03-.2-.13a.9.9 0 0 0-.12-.53c.5.03.79-.25.86-.87Z" fill="#B4F1FA"/><path d="M39.92 33.9c.1 1.43.46 2.53 1.08 3.31-.34.81-.66 1.54-1.4 1.95l-.5-.52a.2.2 0 0 1-.04-.18c.18-.75.13-1.47-.17-2.14l1.03-2.41Z" fill="#18B9D9"/><path d="M19.17 37.53c-1.81.3-3.25-.45-4.03-2.14-.03-.07 0-.1.07-.1l.05-.01a.17.17 0 0 1 .17.09 3.69 3.69 0 0 0 2.9 2c.25.03.6-.03.84.02.25.05.25.1 0 .14ZM38.89 36.32c.3.67.35 1.39.17 2.14a.19.19 0 0 0 .04.18l.5.52.42.63a5.7 5.7 0 0 1-1.92 1.42l-.07-.8c-.18-.61-.69-1.51-.34-2.09.4-.65.49-1.34.3-2.09 0-.21-.04-.44-.14-.67a.12.12 0 0 1 .03-.14c.07-.07.14-.06.2.02l.8.88Z" fill="#071440"/><path d="M30.07 36.37a3.78 3.78 0 0 0-1.28 1.93c-.03.1-.07.16-.11.19-.06.03-.12.02-.18-.02a.18.18 0 0 1-.1-.16 3.34 3.34 0 0 1 .59-1.88.11.11 0 0 0-.1-.12c-.89-.16-1.49.06-2.33.22-.1.02-.12 0-.05-.08a.76.76 0 0 1 .27-.21c.06-.03.1-.07.14-.13.1-.2.2-.3.3-.32a6.25 6.25 0 0 1 2.95 0c.21.05.22.12.02.2-.21.1-.25.22-.12.38Z" fill="#0A7FBE"/><path d="m20.68 36.14.03.05c.02.02.01.04-.01.06-1.62 1.14-3.08 1.07-4.4-.2-.33-.33-.3-.38.12-.15 1.49.8 2.7 1.08 4.26.24Z" fill="#071440"/><path d="m22.47 38.24 1.42-1.33c.07-.07.06-.1-.04-.1l-1.42.16c-.11-.24-.05-.4.18-.45a8.56 8.56 0 0 1 2.6-.26c.22 0 .27.1.14.27a6.01 6.01 0 0 0-.82 2.1.13.13 0 0 0 .15.08l1-.22a.36.36 0 0 1 .35.1l.08.1a.1.1 0 0 1 .01.1.1.1 0 0 1-.08.06 2.7 2.7 0 0 0-1.88 1.03.19.19 0 0 1-.32-.04 2.76 2.76 0 0 1-.21-1.63.1.1 0 0 0-.04-.1.1.1 0 0 0-.1 0l-.57.37a.32.32 0 0 1-.22.05.37.37 0 0 1-.2-.1c-.02-.02-.03-.08-.03-.19Z" fill="#B4F1FA"/><path d="M37.98 36.23c.2.75.1 1.44-.29 2.09-.35.58.16 1.48.34 2.1-.5.34-1.08.52-1.77.52-.09 0-.12-.04-.1-.12.22-.78.09-1.49-.4-2.13-.1-.13-.33-.02-.3.15.08.26-.27.39-.31.16-.04-.2-.13-.4-.28-.6l-.66-.97c.25-.13.41-.3.47-.5a.23.23 0 0 1 .38-.1c.5.48.84 1.05 1.03 1.71.04.13.21.18.3.08l1.37-1.32a.3.3 0 0 0 .08-.17l.14-.9Z" fill="#18B9D9"/><path d="M41 37.21c.31.29.51.66.59 1.12.02.06 0 .12-.06.18-.47.43-.96.97-1.51 1.28l-.42-.63c.74-.41 1.06-1.14 1.4-1.95Z" fill="#0A7FBE"/><path d="M33.99 37.83c.12.39.15.83.09 1.34l-.54.26a.21.21 0 0 0-.12.16 5.54 5.54 0 0 1-1.12 2.32.18.18 0 0 1-.23-.04 86.7 86.7 0 0 1-1.37-1.73c-.15-.2-.16-.43-.28-.65a.36.36 0 0 1-.05-.18l.02-.84c.03-.12.08-.23.13-.35a.31.31 0 0 0 .03-.15c0-.08-.04-.13-.1-.14.37-.13 1.66-.73 1.91-.18.07.15.04.33.06.46a3 3 0 0 1-.3 1.93c-.03.05-.02.08.03.1.06.02.11 0 .15-.03l1.2-1.18c.35-.33.36-.67.49-1.1Z" fill="#18B9D9"/><path d="M30.45 37.83c.06.01.1.06.1.14 0 .04 0 .09-.03.15-.05.12-.1.23-.13.35-.64.77.24 3.62.62 4.41.06.11.14.16.25.15.1.08.18.18.25.29.08.13.05.17-.1.1l-.77-.34c0-.06-.05-.1-.14-.15a.92.92 0 0 1-.54-.76.3.3 0 0 0-.07-.18c-.92-1.01-.4-2.16-.2-3.3.22-.16.38-.4.48-.7a.7.7 0 0 1 .28-.16Z" fill="#071440"/><path d="M34.87 38.4c.15.2.24.4.28.6.04.23.39.1.32-.16-.04-.17.18-.28.3-.15.48.64.61 1.35.4 2.13-.03.08 0 .13.1.12.68 0 1.27-.18 1.76-.53l.07.8c-.61.3-1.22.63-1.82.98-.25.14-.44.22-.55.24-.1.02-.17 0-.21-.1-.03-.05-.01-.1.03-.15a.55.55 0 0 0 .17-.58.1.1 0 0 0-.16-.04.1.1 0 0 0-.03.05c-.02.13-.08.22-.17.26-.17.08-.35-.11-.27-.28.3-.56.34-1.17.14-1.82-.04-.15-.17-.26-.15-.48.01-.06 0-.12-.03-.17a1.54 1.54 0 0 1-.18-.71ZM30.39 38.47l-.02.84c0 .06.02.12.05.18.12.22.13.45.28.65l1.37 1.73c.08.08.22.08.29 0 .53-.68.88-1.44 1.06-2.28a.21.21 0 0 1 .12-.16l.54-.26c.05.95-.14 1.86-.6 2.75-.14.29-.24.68-.5.98-.07.08-.06.12.05.12h.6v.13l-1.36.41c-.41-.25-.69-.8-.83-1.64a.19.19 0 0 0-.03-.07c-.08-.14-.4-.11-.36.09l.21 1.1c-.1 0-.2-.05-.25-.16-.38-.8-1.26-3.64-.62-4.41ZM27.15 38.65a8.44 8.44 0 0 0-.42 1.86c-.05.51.73 1.16 1.02 1.58.07.08.43.18.35 0l-.33-.78c-.03-.08 0-.13.07-.17.35-.18.54.36.78.53.1.06.13.04.13-.07-.03-.46.05-.9.22-1.3.22-.52.3-1.15.73-1.61-.22 1.14-.73 2.29.19 3.3.04.05.06.11.07.18.03.34.21.59.54.76.09.04.14.1.14.15-.12.17-.35.16-.53.07-.44-.21-.8-.22-1.1-.01-.23-.08-.98-.1-.83-.05.32.1.62.22.9.38.31.18.29.25-.07.22l-2.26-.17a.2.2 0 0 1-.18-.17c-.11-1.1-.11-2.22 0-3.38.04-.43.24-.88.58-1.32ZM22.02 38.77c-.06.38-.05.76.02 1.13.02.07.06.1.12.1.09 0 .14-.05.16-.12.06-.24.2-.45.42-.61a.15.15 0 0 1 .24.12c.02.74.23 1.41.64 2.03a.18.18 0 0 0 .3-.01c.24-.4.55-.72.93-.95l-1.06 2.3a.1.1 0 0 1-.05.05 7.45 7.45 0 0 1-2.39-1.1c-.95-.67.1-2.33.67-2.94ZM23.03 43.32a17.97 17.97 0 0 1-3.41-1.11.4.4 0 0 1-.23-.23.1.1 0 0 1 0-.08.1.1 0 0 1 .07-.05.44.44 0 0 0 .23-.14.09.09 0 0 0 0-.09.08.08 0 0 0-.07-.05 2.73 2.73 0 0 1-2.02-.86l-.72-.86a.06.06 0 0 1 0-.08h.03l.1-.02.04.01c.55.38 1.17.61 1.84.7.43.05.49.18.77.46.86.84 1.98 1.64 3.37 2.4Z" fill="#0A7FBE"/><path d="m32.27 43.56-2.12.32-1.14-.74c.3-.2.66-.2 1.1.01.18.09.4.1.53-.07l.78.34c.14.07.17.03.09-.1a1.1 1.1 0 0 0-.25-.29l-.2-1.1c-.01-.03 0-.06.01-.1a.14.14 0 0 1 .1-.05l.04-.02a.2.2 0 0 1 .2.09c.02.02.03.05.03.07.14.84.42 1.39.83 1.64ZM33.63 43.15v-.13l.46-.47a.15.15 0 0 0 .04-.09c.02-.12.05-.2.1-.2.41-.1.48 0 .23.31a.64.64 0 0 0-.15.32.19.19 0 0 1-.11.15c-.18.08-.36.12-.57.11Z" fill="#FDFFFF"/><defs><linearGradient id="a5j2pu0t0" x1="10.42" y1="9.71" x2="68.15" y2="76.02" gradientUnits="userSpaceOnUse"><stop stop-color="#1A1E21"/><stop offset="1" stop-color="#06060A"/></linearGradient></defs></svg>