<svg width="56" height="56" viewBox="0 0 56 56" xmlns="http://www.w3.org/2000/svg"><rect fill="url(#anul0cqyp)" width="56" height="56" rx="28"/><path d="M12 15.71v4.39l13 3.88V15.7A1.7 1.7 0 0 0 23.32 14h-9.64A1.7 1.7 0 0 0 12 15.7Z" fill="url(#bnul0cqyp)"/><path d="M44 40.28V35.9l-13-3.88v8.26c0 .95.75 1.72 1.68 1.72h9.64A1.7 1.7 0 0 0 44 40.28Z" fill="url(#cnul0cqyp)"/><path d="M20.36 28.32 12.05 42h7.92l8.6-14h6.35c.27 0 .53-.22.68-.46L44 14h-8.15l-8.5 14h-6.31c-.28 0-.53.08-.68.32Z" fill="url(#dnul0cqyp)"/><defs><linearGradient id="anul0cqyp" x1="10.42" y1="9.71" x2="68.15" y2="76.02" gradientUnits="userSpaceOnUse"><stop stop-color="#1A1E21"/><stop offset="1" stop-color="#06060A"/></linearGradient><linearGradient id="bnul0cqyp" x1="25" y1="14.9" x2="18.39" y2="21.04" gradientUnits="userSpaceOnUse"><stop stop-color="#0FCBF3"/><stop offset="1" stop-color="#369EF0"/></linearGradient><linearGradient id="cnul0cqyp" x1="37.5" y1="42" x2="44.13" y2="35.09" gradientUnits="userSpaceOnUse"><stop stop-color="#2EA7F3"/><stop offset="1" stop-color="#10D1E1"/></linearGradient><linearGradient id="dnul0cqyp" x1="42.4" y1="14" x2="11.92" y2="39.13" gradientUnits="userSpaceOnUse"><stop stop-color="#12F93F"/><stop offset=".28" stop-color="#11D3DD"/><stop offset=".59" stop-color="#26AFF6"/><stop offset="1" stop-color="#6469DD"/></linearGradient></defs></svg>