<svg width="56" height="56" viewBox="0 0 56 56" xmlns="http://www.w3.org/2000/svg"><rect fill="#F48221" width="56" height="56" rx="28"/><path d="M38.98 34.92C42.66 32.54 45 28.98 45 25c0-7.18-7.61-13-17-13s-17 5.82-17 13c0 3.98 2.34 7.54 6.02 9.92l-.02.58C17 41.3 21.92 46 28 46s11-4.7 11-10.5c0-.2 0-.39-.02-.58Z" fill="#fff"/><circle cx="28" cy="35" r="10" fill="#20221F"/><circle cx="28" cy="35" r="9" fill="#fff"/><path d="M25.34 36.82 22.48 36l-.12 4.48 2.98 1.51v-5.17Z" fill="#FDB801"/><path fill-rule="evenodd" d="M28 43a10 10 0 1 0 0-20 10 10 0 0 0 0 20Zm0-1a9 9 0 1 0 0-18 9 9 0 0 0 0 18Z" fill="#20221F"/><ellipse cx="28" cy="25" rx="16" ry="12" fill="#20221F"/><ellipse cx="28" cy="25" rx="15" ry="11" fill="#fff"/><path fill="#20221F" d="M20 35.11h.63v3.42H20zM22 36.12h.63v4.36H22zM25 36h.63v6.13H25V36ZM36 35.34h-.63v3.11H36v-3.1ZM33.63 36H33v4.59h.63zM31 36.5h-.63V42H31v-5.5ZM27.5 36.97h1v5.45h-1v-5.45Z"/><ellipse cx="28" cy="32.5" rx="3" ry="1.5" fill="#20221F"/><circle cx="21.5" cy="24.5" r="5.5" fill="#20221F"/><circle cx="22.5" cy="26.5" r=".82" fill="#fff"/><path d="m23.53 22 2.46 1.42c.13 1.8-.68 5.43-4.99 5.58.34-.19.86-.5 1.37-1h.13a1.5 1.5 0 0 0 1.19-2.41 7.6 7.6 0 0 0-.16-3.59Z" fill="#EB4E49"/><circle cx="34.5" cy="24.5" r="5.5" fill="#20221F"/><circle cx="36.5" cy="26.5" r=".82" fill="#fff"/><path d="M13.16 14.8a1.4 1.4 0 0 1 1.91-.63l11.17 6.05c.7.38.96 1.27.6 1.99a1.4 1.4 0 0 1-1.91.62l-11.17-6.05a1.5 1.5 0 0 1-.6-1.99Z" fill="#20221F"/><path d="M13.68 15.08a.88.88 0 0 1 1.22-.4l11.04 5.98c.44.24.6.8.38 1.26a.88.88 0 0 1-1.22.4l-11.04-5.98a.95.95 0 0 1-.38-1.26Z" fill="#fff"/><path d="M42.84 14.8a1.4 1.4 0 0 0-1.91-.63l-11.17 6.05a1.5 1.5 0 0 0-.6 1.99c.37.72 1.22 1 1.91.62l11.17-6.05c.7-.38.96-1.27.6-1.99Z" fill="#20221F"/><path d="M42.32 15.08a.88.88 0 0 0-1.22-.4l-11.04 5.98c-.44.24-.6.8-.38 1.26.23.46.78.64 1.22.4l11.04-5.98c.44-.24.6-.8.38-1.26Z" fill="#fff"/><path d="M35 29c1.33-.07 4-1.04 4-4.32 0-1.9-1.33-3.24-2-3.68l-.78.48c.35.37 1.07 1.5 1.07 3 0 .26 0 .5-.02.73a1.5 1.5 0 0 1-1.06 2.76c-.31.36-.71.7-1.21 1.03Z" fill="#45AD88"/></svg>