<svg xmlns="http://www.w3.org/2000/svg" width="56" height="56"><rect fill="#F0F3FA" width="56" height="56" rx="28"/><path d="M46 28.12a18 18 0 11-36-.48 10.8 10.8 0 008.54 4.06c5.16 0 7.75-2.16 9.27-3.5 1.51-1.34 4.75-4.2 9.06-4.2 4.18 0 7.75 2.72 9.13 4.12z" fill="url(#a4lm3hml3)"/><path d="M45.62 24.3a12.77 12.77 0 00-4.92-2.84c-5.35-1.69-9.99.29-12.62 2.95a12.8 12.8 0 01-10.21 3.8c-2.74-.26-5.93-2.18-7.59-3.4a18 18 0 0135.34-.52z" fill="url(#b4lm3hml3)"/><path d="M10 27.64a10.8 10.8 0 008.54 4.06c5.16 0 7.75-2.16 9.27-3.5 1.51-1.34 4.75-4.2 9.06-4.2 4.18 0 7.75 2.72 9.13 4.12V28c0-1.27-.13-2.51-.38-3.7a12.77 12.77 0 00-4.92-2.84c-5.35-1.69-9.99.29-12.61 2.95a12.8 12.8 0 01-10.22 3.8c-2.74-.26-5.93-2.18-7.59-3.4-.16.92-.26 1.86-.28 2.83z" fill="url(#c4lm3hml3)"/><path fill-rule="evenodd" d="M22.6 36.95A2.54 2.54 0 0118 35.5a2.54 2.54 0 114.77-1.18l-.82.78A1.5 1.5 0 0020.5 34c-.83 0-1.5.66-1.5 1.48s.67 1.48 1.5 1.48c.48 0 .91-.22 1.18-.57l.8-.84 1.34-1.45a2.54 2.54 0 014.58.91l.55-.67A2.54 2.54 0 0131 33v1.03c-.74.08-1.32.7-1.32 1.47a1.5 1.5 0 102.75.82l1.24-1.35.53-.6a2.54 2.54 0 013.8-.86V33h1v5h-1v-.51a2.55 2.55 0 01-4-1.4l-.77.9a2.54 2.54 0 01-4.5-.93l-.58.63A2.54 2.54 0 0125.92 38a2.53 2.53 0 01-2.48-1.98l-.85.93zM38 35.5a1.5 1.5 0 10-3 0 1.5 1.5 0 003 0zm-10.6 0c0 .83-.68 1.5-1.52 1.5s-1.52-.67-1.52-1.5.68-1.5 1.52-1.5 1.52.67 1.52 1.5z" fill="#fff"/><defs><linearGradient id="a4lm3hml3" x1="37.99" y1="23.72" x2="17.83" y2="43.28" gradientUnits="userSpaceOnUse"><stop stop-color="#5F90F1"/><stop offset="1" stop-color="#0E2D6B"/></linearGradient><linearGradient id="b4lm3hml3" x1="38.85" y1="10.84" x2="16.49" y2="28.8" gradientUnits="userSpaceOnUse"><stop stop-color="#9A0D19"/><stop offset="1" stop-color="#F51629"/></linearGradient><linearGradient id="c4lm3hml3" x1="55.78" y1="21.61" x2="4.25" y2="29.98" gradientUnits="userSpaceOnUse"><stop stop-color="#CAC3C4"/><stop offset=".57" stop-color="#fff"/><stop offset="1" stop-color="#EEE"/></linearGradient></defs></svg>