<svg width="56" height="56" viewBox="0 0 56 56" xmlns="http://www.w3.org/2000/svg"><rect fill="#F0F3FA" width="56" height="56" rx="28"/><path d="M33.66 42.95c-.13-1.1-.54-2-1.23-2.72a.85.85 0 0 0-.53-.26.77.77 0 0 0-.44.12c-.3.17-.6.26-.9.3-3.45.35-6.78-.16-10.22-1.07a2.93 2.93 0 0 1-1.34-.69c-.04-.03-.07-.03-.1 0-.34.25-.32.71-.76.9-.53.21-1.38.45-1.65 1-.35.75-.6 1.55-.73 2.43-.04.03-.08.04-.12.02-.04 0-.05-.03-.05-.07.13-.75.33-1.48.61-2.18.4-1 1.27-1 2.02-1.44.24-.15.3-.58.57-.8.03-.02.03-.05.01-.08-.2-.27-.33-.57-.4-.89a.15.15 0 0 0-.05-.09 12.67 12.67 0 0 1-3.9-6.6c-.75-3.6-.51-7.45.31-10.93.11-.46.35-1.08.6-1.53a12.22 12.22 0 0 1 7.78-5.73c.62-.15 1.26-.26 1.93-.35a19.5 19.5 0 0 1 6.42-.03c1.29.25 2.46.66 3.74 1.17 3.27 1.3 5.67 4.06 7.2 7.2l.07.1c.32.2.49.5.52.9 0 .03.02.06.06.07.52.26 1.07.6.84 1.29a.16.16 0 0 0 0 .1c.23.62-.07.86-.44 1.26a.15.15 0 0 0-.04.11c.08 1.7-.1 3.36-.62 4.98-.23.72-.4 1.41-.75 2.1a.14.14 0 0 0 0 .12c.33 1.1.13 1.79-.88 2.34a.02.02 0 0 0-.01.02v.01c.1.1.18.21.2.32.26.9-.61 1.4-1.31 1.58-.24.06-.42.08-.61.26-.8.78-1.87 1.46-2.7 2-1.3.87-3.16 1.32-4.7 1.5a.19.19 0 0 0-.1.04v.03a.05.05 0 0 0 0 .05l.03.01c.26.05.47.17.65.37a4.93 4.93 0 0 1 1.18 2.78.05.05 0 0 1-.04.02.17.17 0 0 1-.12-.04Zm-9.1-30.4h-.01a.03.03 0 0 0 0 .04v.01l.08.02c.36.03.7.1 1.05.21 1.18.38 2.3.9 3.35 1.56.5.32 1 .62 1.51.92a.9.9 0 0 0 .37.13c.06 0 .13-.01.18-.05.05-.04.09-.1.1-.15.23-.74.86-2.02 1.6-2.33.16-.06.16-.12 0-.17-2.67-.79-5.48-.67-8.22-.2ZM38 15.32l.07.01a.03.03 0 0 0 .02-.02.03.03 0 0 0 0-.03c-1.35-1.15-2.88-1.73-4.53-2.3-.22-.08-.43-.12-.65.01-.77.42-1.29 1.37-1.56 2.24-.17.55-.7.33-1.05.1a18.3 18.3 0 0 0-4.69-2.36 5 5 0 0 0-2.66-.12 12.51 12.51 0 0 0-6.87 4.66 6.58 6.58 0 0 0-1.02 1.95 25.7 25.7 0 0 0-.87 6.37c-.05 1.46.06 2.86.28 4.27.28 1.76.95 3.39 2 4.9.04.06.07.05.1-.02.28-1.15.9-2.2 1.4-3.28.8-1.75 1.3-5.02-.56-6.33-.84-.6-1.68-1.37-1.08-2.52.11-.22.4-.68.85-1.39.57-.89.35-1.45.02-2.42a2.28 2.28 0 0 1-.15-.73c.05-1.24 2.24-2.29 3.2-2.61a8.93 8.93 0 0 1 5.8 0c1.43.48 2.67.93 3.9 1.71.46.3 2.36 1.98 2.78 1.14.87-1.72 1.4-3.44 3.7-3.44a10.3 10.3 0 0 1 1.57.21Zm.44 12.8c0-.05.02-.08.07-.1a5.63 5.63 0 0 0 2.77-1.37l1.53-1.43c.16-.14.23-.31.24-.51a.05.05 0 0 0-.07-.05c-.6.24-1.22.4-1.87.45-1.63.15-3.25.17-4.88.04-.92-.07-2.2-.36-2.11-1.61.05-.6 1.03-.87 1.5-.97a18.8 18.8 0 0 1 7.06-.26c.46.07.82.23 1.07.5.04.02.06.02.07-.03.2-.84-1.88-1.32-2.38-1.36a22.66 22.66 0 0 0-7.16.43.06.06 0 0 1-.02-.05c0-.05.03-.09.1-.1a18.9 18.9 0 0 1 3.3-.5c1.43-.08 3.55-.18 5.05.35.16.05.2 0 .12-.15l-.12-.25a.62.62 0 0 0-.42-.34c-1.64-.41-3.26-.4-4.93-.39-.04 0-.06-.02-.06-.06v-.07l.04-.02a16.74 16.74 0 0 1 4.88.35v-.02c-.89-1.81-2.05-3.4-3.49-4.79-.1-.1-.28-.22-.4-.25-1.4-.36-2.96-.58-4.06.57-.54.56-1 1.62-1.4 2.42-.41.85-1.58.02-2.1-.37-1.03-.8-2.13-1.4-3.35-1.84-1.9-.7-3.63-1.22-5.68-.82-1.57.3-3.08.83-4.14 1.93-.82.86-.08 1.74.07 2.6.17 1.02-.55 1.81-1.04 2.58-.84 1.32.07 2.06 1.03 2.77 1.64 1.2 1.26 4.44.58 6.04-.48 1.14-1.14 2.21-1.49 3.4-.08.26-.01.53.19.8a7.83 7.83 0 0 0 4.8 3.12c.95.23 1.98.5 2.89.64 2.47.41 4.95.45 7.45.12 1.28-.18 2.64-.47 3.82-1.03a18.7 18.7 0 0 0 3.36-2.3c.1-.09.08-.14-.04-.16a37.22 37.22 0 0 0-5.3-.64 4 4 0 0 0-1.37.13c-1.3.4-2.23.64-3.46.52-.65-.06-1.17-.28-1.28-.97-.15-.96.11-1.65.79-2.1.23-.14.64-.3 1.23-.45a7.94 7.94 0 0 1 2.88-.3c2.01.25 4.14.54 6.08.47.95-.03 2.88-.46 3.29-1.5a15.75 15.75 0 0 0 1.18-6.66h-.03c-.02 0-.03.02-.03.04.04.33-.05.6-.28.8-.58.52-1.1.98-1.52 1.38a5.89 5.89 0 0 1-2.94 1.44.04.04 0 0 1-.02-.03v-.04Zm2.88-4.92c.46.38.78.95 1.05 1.4.02.04.05.05.09.04.53-.11 1.65-.71 1.33-1.44-.18-.41-.5-.65-.97-.72-1.6-.23-3.32-.34-4.93-.1-1.03.14-2.09.24-3.07.63-.95.38-.52 1.46.22 1.71a5.3 5.3 0 0 0 1.48.26.1.1 0 0 0 .04-.05c.3-.9.88-1.83 1.8-2.15.94-.32 2.16-.24 2.96.42Zm.2.43c-.86-1.13-3.24-1.16-4.13.03a4.75 4.75 0 0 0-.67 1.32.1.1 0 0 0 .04.07 22.9 22.9 0 0 0 5.47-.31.04.04 0 0 0 0-.04 8.72 8.72 0 0 0-.7-1.07ZM29.8 34.5a.1.1 0 0 1 .06-.1c1.1-.4 2.38-.77 3.57-.71 2.47.13 4.9.6 7.34.25.44-.06.91-.41 1.15-.79.24-.37.14-.92.02-1.32l-.01-.02a.05.05 0 0 0-.07 0 5.43 5.43 0 0 1-3.28 1.08c-1.67.05-3.86-.24-5.73-.46a8.48 8.48 0 0 0-3.74.48c-.51.16-.86.5-1.05 1-.18.49-.24 1.45.28 1.78.75.48 2.4.2 3.21-.04 1.05-.3 1.71-.51 2.69-.44 1.51.12 3.02.31 4.52.58.47.08.84.1 1.1.04.61-.12 1.47-.5 1.4-1.28-.04-.34-.23-.48-.57-.44-1.13.16-2.26.18-3.39.08l-3.58-.31a8.87 8.87 0 0 0-3.9.7v-.02l-.01-.02v-.04Zm-11.17 3.22c.34 1.06 1.23 1.36 2.24 1.6 1.91.44 3.6.8 5.47.97 1.62.14 2.8.07 4.2-.06.4-.03.77-.18 1.1-.43.05-.04.04-.06-.02-.05-3.36.37-6.5.05-9.77-.8a9.97 9.97 0 0 1-3.18-1.32c-.04-.03-.06-.02-.05.03l.01.06Z" fill="#0B0906"/><path d="M24.57 12.55c2.74-.48 5.55-.6 8.21.2.17.04.17.1.01.16-.74.3-1.37 1.6-1.6 2.33a.28.28 0 0 1-.1.15.27.27 0 0 1-.18.05.9.9 0 0 1-.37-.13c-.5-.3-1.01-.6-1.51-.92a14.68 14.68 0 0 0-3.35-1.56 4.97 4.97 0 0 0-1.14-.24.03.03 0 0 1 0-.03l.03-.01Z" fill="#D3332C"/><path d="M37.92 15.3a10.3 10.3 0 0 0-1.5-.2c-2.3.01-2.83 1.73-3.7 3.45-.42.84-2.32-.84-2.78-1.14a16.88 16.88 0 0 0-3.9-1.7 8.93 8.93 0 0 0-5.8-.01c-.96.32-3.15 1.37-3.2 2.6-.01.17.04.41.15.74.33.97.55 1.53-.02 2.42-.46.7-.74 1.17-.85 1.39-.6 1.15.24 1.93 1.08 2.52 1.85 1.3 1.35 4.58.56 6.33-.5 1.08-1.12 2.13-1.4 3.28-.03.08-.06.08-.1.02a11.74 11.74 0 0 1-2-4.9c-.22-1.41-.33-2.8-.28-4.27.06-2.12.29-4.43.87-6.37.2-.64.54-1.3 1.02-1.95a12.51 12.51 0 0 1 6.87-4.66 5 5 0 0 1 2.66.12 18.3 18.3 0 0 1 4.69 2.37c.34.22.88.44 1.05-.11.27-.87.8-1.82 1.56-2.24.22-.13.43-.1.65-.01 1.65.57 3.18 1.15 4.53 2.3a.03.03 0 0 1 0 .03v.02H37.99a.79.79 0 0 0-.07-.03Z" fill="#982F2B"/><path d="M38.43 28.12v.04a.04.04 0 0 0 .02.03h.03a5.89 5.89 0 0 0 2.91-1.44l1.52-1.39c.23-.2.32-.46.28-.8 0-.01 0-.02.03-.02h.04v.01c.12 2.33-.33 4.46-1.2 6.64-.4 1.04-2.33 1.47-3.28 1.5-1.94.07-4.07-.22-6.08-.46-.84-.1-1.84.01-2.88.29-.59.15-1 .3-1.23.46-.68.44-.94 1.13-.79 2.1.11.68.63.9 1.28.96a8.23 8.23 0 0 0 3.46-.52 4 4 0 0 1 1.37-.13c1.81.09 3.58.3 5.3.64.12.02.14.07.04.15a18.69 18.69 0 0 1-3.36 2.3c-1.18.57-2.54.86-3.82 1.04-2.5.33-4.98.29-7.45-.12-.91-.14-1.94-.41-2.9-.64a7.83 7.83 0 0 1-4.79-3.11c-.2-.28-.27-.55-.19-.82.35-1.18 1.01-2.25 1.5-3.39.67-1.6 1.05-4.85-.59-6.04-.96-.7-1.87-1.45-1.03-2.77.49-.77 1.2-1.56 1.04-2.57-.15-.87-.9-1.75-.07-2.61 1.06-1.1 2.57-1.62 4.14-1.93 2.05-.4 3.78.12 5.68.82 1.22.44 2.32 1.05 3.35 1.84.52.4 1.69 1.22 2.1.37.4-.8.86-1.86 1.4-2.42 1.1-1.15 2.66-.93 4.05-.57.13.03.3.15.41.25a17.07 17.07 0 0 1 3.5 4.81h-.02v.01a16.74 16.74 0 0 0-4.9-.34l-.01.03v.04c0 .04.02.06.06.06 1.67-.02 3.3-.02 4.93.39.19.04.33.16.42.34l.12.25c.08.15.04.2-.12.15-1.5-.53-3.62-.43-5.05-.34a18.9 18.9 0 0 0-3.3.49c-.07.01-.1.05-.1.1a.06.06 0 0 0 .02.05l.03.01h.03c2.33-.52 4.7-.67 7.1-.44.5.04 2.59.52 2.38 1.36-.01.05-.03.05-.07.02a1.85 1.85 0 0 0-1.07-.5 18.8 18.8 0 0 0-7.07.27c-.46.1-1.44.36-1.49.97-.1 1.25 1.18 1.54 2.11 1.6 1.63.14 3.25.12 4.88-.03a6.5 6.5 0 0 0 1.92-.45.05.05 0 0 1 .02.05c0 .2-.08.37-.24.5l-1.53 1.44a5.63 5.63 0 0 1-2.77 1.38c-.05 0-.07.04-.07.1Zm-12.69-7.64a14.95 14.95 0 0 1 2.23-.07.04.04 0 0 0 0-.03v-.04a.13.13 0 0 0-.05-.06 37.96 37.96 0 0 0-7.6.86l-1.08.15c-.05 0-.08.03-.08.09v.03a.06.06 0 0 0 .02.04l.02.01h.02c.38-.03.67-.07.87-.11 1.94-.4 3.83-.69 5.65-.87Zm5.32-.02c.7.15.31.66.06.97-.02.03-.02.05.01.08a.06.06 0 0 0 .07 0c.5-.31.62-1.07-.1-1.21h-.03a.05.05 0 0 0-.02.04l-.02.06a.05.05 0 0 0 0 .03l.01.02h.02Zm-.1 4.69c.38-.34.54-.78.48-1.3-.06-.61-.77-1.05-1.28-1.22a7.32 7.32 0 0 0-2.7-.17 74 74 0 0 0-5.18.5c-.67.09-1.34.17-2.01.23-.51.05-1.63.13-1.73-.44-.08-.5.47-.47.86-.47a28.2 28.2 0 0 0 3.64-.3c2.06-.3 4.2-.53 6.28-.52.05 0 .07-.02.07-.07v-.05l-.02-.03h-.03c-1.15-.05-2.35.1-3.5.18-1.44.1-3.04.38-4.57.53-.7.07-1.48.06-2.22.1-.43.02-.84.29-.66.73.28.66 1.1.52 1.67.53.04 0 .07.02.1.04.69.54 1.52.9 2.29 1.33 1.2.66 2.58.91 3.94.97 1.4.06 2.95.04 4.28-.4.17-.05.24 0 .23.18v.08c-.02.17-.1.28-.27.31a15.67 15.67 0 0 1-8.5-.32.04.04 0 0 0-.01.03l-.01.04v.06l.05.04c2.5.89 5.38.91 7.95.43.52-.1 1.28-.24.85-.93-.03-.03-.02-.06 0-.09Zm-3.08 3.55c.86-.25 1.78-.7 2.34-1.45a.12.12 0 0 0 .01-.13l-.02-.03a.04.04 0 0 0-.05-.01h-.01a4.32 4.32 0 0 1-2.31 1.48l-.02.02a.06.06 0 0 0 0 .05l.01.04a.04.04 0 0 0 .05.03Zm.94 8.79a3.62 3.62 0 0 1-2.22-1.57h-.03l-.03.02c-.04.02-.05.06-.02.1a3.8 3.8 0 0 0 2.27 1.62c.04 0 .07 0 .08-.05v-.03c.02-.05 0-.08-.05-.09Z" fill="#F7AF72"/><path d="M25.75 20.48a60.3 60.3 0 0 0-5.66.87 10.07 10.07 0 0 1-.91.1.06.06 0 0 1-.02-.04v-.03c0-.06.03-.09.08-.1.55-.06.91-.1 1.08-.14a37.95 37.95 0 0 1 7.6-.86c.02.01.04.03.04.06l.02.04v.03a.03.03 0 0 1-.03.02c-.8-.04-1.54-.02-2.2.05ZM31.06 20.46l-.02-.01v-.02a.04.04 0 0 1-.01-.03l.02-.06a.05.05 0 0 1 .06-.04c.7.14.58.9.09 1.22a.06.06 0 0 1-.07 0c-.03-.04-.03-.06-.01-.09.25-.31.64-.82-.06-.97ZM30.96 25.24c.43.7-.33.83-.85.93a15.56 15.56 0 0 1-8-.47.08.08 0 0 1 0-.06v-.04l.02-.01v-.02a.04.04 0 0 1 .04 0c2.7.94 5.65.94 8.46.32.16-.03.25-.14.26-.3v-.1c.02-.16-.05-.22-.21-.17-1.34.44-2.9.46-4.29.4a8.93 8.93 0 0 1-3.94-.97c-.77-.42-1.6-.79-2.29-1.33a.17.17 0 0 0-.1-.04c-.56-.01-1.39.13-1.67-.53-.18-.44.23-.71.66-.73.74-.04 1.53-.03 2.23-.1 1.53-.15 3.12-.42 4.56-.53 1.15-.08 2.36-.23 3.5-.19l.03.01.01.03v.05c.01.05-.01.08-.06.07-2.08-.01-4.22.22-6.28.51-1.36.2-2.42.29-3.64.3-.39.01-.94-.03-.86.48.1.57 1.22.5 1.73.44a69.3 69.3 0 0 0 2-.23 74 74 0 0 1 5.19-.5c.94-.06 1.83-.1 2.7.17.51.17 1.22.6 1.28 1.21.06.53-.1.97-.47 1.31-.03.03-.03.06-.01.09Zm-10.18-1.58c1.08.6 2.16 1.3 3.37 1.57.04 0 .07 0 .09-.05.08-.21.18-.42.3-.62a3.12 3.12 0 0 1 3.06-1.71c1.27.05 2.28 1.22 2.75 2.31.02.04.05.06.1.05.4-.1.67-.39.79-.87.3-1.24-1.26-1.7-2.17-1.73-2.9-.07-5.77.42-8.64.72-.05 0-.05.02-.02.05.12.11.24.2.37.28Zm3.73 1.68c1.43.23 2.8.3 4.13.21a7.82 7.82 0 0 0 1.52-.25.1.1 0 0 0 .04-.08.1.1 0 0 0 0-.05c-.54-1.1-1.55-2.27-2.88-2.14-.46.04-.75.08-.87.1-.91.23-1.72 1.16-2.03 2.06-.03.08 0 .13.09.15Z" fill="#0B0906"/><path d="M41.3 23.2c-.8-.66-2.01-.74-2.95-.42-.92.32-1.5 1.25-1.8 2.15a.1.1 0 0 1-.1.06 5.3 5.3 0 0 1-1.42-.27c-.74-.25-1.17-1.33-.22-1.71.98-.4 2.04-.49 3.07-.64 1.61-.23 3.33-.12 4.93.11.47.07.8.3.97.72.33.73-.8 1.33-1.33 1.44-.04.01-.07 0-.09-.03-.27-.46-.6-1.03-1.05-1.4ZM24.15 25.23c-1.2-.28-2.3-.98-3.37-1.57a1.96 1.96 0 0 1-.37-.28c-.03-.03-.03-.05.02-.05 2.87-.3 5.75-.8 8.64-.72.9.02 2.47.49 2.17 1.73-.12.48-.38.77-.8.87-.04 0-.07 0-.09-.05-.47-1.1-1.48-2.26-2.75-2.31a3.12 3.12 0 0 0-3.07 1.7c-.11.2-.21.42-.3.63-.01.04-.04.06-.08.05Z" fill="#fff"/><path d="M37.38 23.66c.9-1.2 3.27-1.16 4.14-.03a8.72 8.72 0 0 1 .7 1.1.04.04 0 0 1-.02.03 22.9 22.9 0 0 1-5.45.29.1.1 0 0 1-.04-.07 4.75 4.75 0 0 1 .68-1.32Zm2.3-.15a.61.61 0 0 0-.18-.43.6.6 0 0 0-.97.2.62.62 0 0 0 .13.66.6.6 0 0 0 .42.18.59.59 0 0 0 .42-.18.6.6 0 0 0 .18-.43Zm1.77.58a.82.82 0 0 0-.23-.57.78.78 0 0 0-.55-.23.77.77 0 0 0-.56.23.8.8 0 0 0-.22.57.78.78 0 0 0 1.34.57.81.81 0 0 0 .22-.57Zm-2.81.32a.4.4 0 0 0-.11-.28.38.38 0 0 0-.54 0 .4.4 0 0 0 0 .55.38.38 0 0 0 .54 0 .4.4 0 0 0 .1-.27Z" fill="#46909D"/><path d="M39.68 23.51a.62.62 0 0 1-.18.43.6.6 0 0 1-.42.18.59.59 0 0 1-.42-.18.61.61 0 0 1-.13-.66.61.61 0 0 1 .32-.33.58.58 0 0 1 .65.13c.11.12.18.27.18.43Zm-.17 0a.45.45 0 0 0-.12-.3.43.43 0 0 0-.62 0 .45.45 0 0 0 0 .62.43.43 0 0 0 .62 0c.08-.08.12-.2.12-.31Z" fill="#0B0906"/><path d="M24.5 25.34c-.08-.02-.11-.07-.08-.15.3-.9 1.12-1.83 2.03-2.05.12-.03.41-.07.86-.11 1.34-.13 2.35 1.03 2.88 2.14a.1.1 0 0 1-.03.13 18.61 18.61 0 0 1-5.66.04Zm3.2-1.29a.62.62 0 0 0-.17-.43.6.6 0 0 0-.84 0 .62.62 0 0 0 0 .86.59.59 0 0 0 .84 0 .62.62 0 0 0 .18-.43Zm1.8.57a.81.81 0 0 0-.24-.56.78.78 0 0 0-1.1 0 .81.81 0 0 0 0 1.13.78.78 0 0 0 1.1 0 .81.81 0 0 0 .23-.57Zm-2.82.32a.4.4 0 0 0-.12-.28.38.38 0 0 0-.53 0 .4.4 0 0 0 0 .55.38.38 0 0 0 .53 0 .4.4 0 0 0 .12-.27Z" fill="#46909D"/><path d="M41.45 24.09a.8.8 0 0 1-.23.56.78.78 0 0 1-1.1 0 .8.8 0 0 1 .25-1.3.77.77 0 0 1 .85.17.8.8 0 0 1 .23.57Zm-.16 0a.64.64 0 0 0-.18-.45.62.62 0 0 0-1.01.21.65.65 0 0 0 .33.83.61.61 0 0 0 .68-.14.64.64 0 0 0 .18-.45ZM27.7 24.05a.6.6 0 0 1-1.02.43.62.62 0 0 1 0-.86.6.6 0 0 1 .85 0c.11.12.18.27.18.43Zm-.15 0a.45.45 0 0 0-.27-.41.43.43 0 0 0-.48.1.45.45 0 0 0 0 .62.43.43 0 0 0 .71-.14.45.45 0 0 0 .04-.17ZM29.5 24.62c0 .22-.09.42-.24.57a.78.78 0 0 1-1.1 0 .81.81 0 0 1 0-1.13.78.78 0 0 1 1.1 0c.15.15.23.35.23.56Zm-.17 0a.64.64 0 0 0-.18-.45.62.62 0 0 0-.88 0 .64.64 0 0 0 0 .9.62.62 0 0 0 .88 0 .64.64 0 0 0 .18-.45ZM38.64 24.4c0 .11-.04.2-.11.28a.38.38 0 0 1-.54 0 .4.4 0 0 1 0-.55.38.38 0 0 1 .54 0 .4.4 0 0 1 .1.28Zm-.17 0a.22.22 0 0 0-.06-.15.21.21 0 0 0-.3 0 .22.22 0 0 0 0 .3.21.21 0 0 0 .3 0c.04-.03.06-.09.06-.15Z" fill="#0B0906"/><path d="M38.26 24.62c.12 0 .21-.1.21-.22s-.1-.21-.21-.21c-.12 0-.22.1-.22.21 0 .13.1.22.22.22Z" fill="#fff"/><path d="M26.68 24.94c0 .1-.04.2-.12.27a.37.37 0 0 1-.53 0 .4.4 0 0 1 0-.55.37.37 0 0 1 .53 0 .4.4 0 0 1 .12.28Zm-.18 0a.22.22 0 0 0-.06-.15.21.21 0 0 0-.35.07.22.22 0 0 0 .12.29.21.21 0 0 0 .23-.05c.04-.04.06-.1.06-.15ZM30.22 27.25a4.44 4.44 0 0 1-2.37 1.44c-.01 0-.02 0-.02-.02l-.01-.04a.06.06 0 0 1 .04-.08 4.32 4.32 0 0 0 2.32-1.48.04.04 0 0 1 .03.02l.02.03a.12.12 0 0 1 0 .13Z" fill="#0B0906"/><path d="M29.8 34.5v.03a.04.04 0 0 0 .02.03.03.03 0 0 0 .03 0 8.88 8.88 0 0 1 3.86-.7l3.58.32c1.13.1 2.26.08 3.39-.08.34-.04.53.1.57.44.07.78-.79 1.16-1.4 1.28-.26.05-.63.04-1.1-.04-1.5-.27-3-.46-4.52-.58-.98-.07-1.64.13-2.69.44-.8.24-2.46.52-3.2.04-.53-.33-.47-1.29-.29-1.78.2-.5.54-.84 1.05-1a8.48 8.48 0 0 1 3.74-.48c1.88.22 4.06.51 5.74.46a5.43 5.43 0 0 0 3.32-1.1l.02.02.01.02c.12.4.22.95-.02 1.32-.24.38-.71.73-1.14.79-2.45.35-4.88-.12-7.35-.25a9.35 9.35 0 0 0-3.61.76.1.1 0 0 0-.02.05Z" fill="#F7AF72"/><path d="M26.63 35.94c.5.76 1.3 1.35 2.19 1.55.05.01.06.04.05.1v.02c-.01.04-.04.06-.08.05a3.8 3.8 0 0 1-2.27-1.62c-.03-.04-.02-.08.02-.1l.03-.02h.03c.01 0 .02 0 .03.02Z" fill="#0B0906"/><path d="M18.62 37.7a.26.26 0 0 1-.01-.05c0-.05.01-.06.05-.03a9.98 9.98 0 0 0 3.18 1.32c3.26.85 6.41 1.17 9.77.8.06-.01.07 0 .02.05-.33.25-.7.4-1.1.43-1.4.13-2.58.2-4.2.06a38.12 38.12 0 0 1-5.46-.97c-1.02-.24-1.91-.54-2.25-1.6Z" fill="#D3332C"/><path d="M33.66 42.95c-.48.03-1.2.05-2.17.05H16.6c-.27 0-.55-.01-.84-.04.13-.88.38-1.68.73-2.42.27-.56 1.12-.8 1.65-1.01.44-.19.42-.65.75-.9.04-.03.07-.03.1 0 .4.36.8.55 1.34.7 3.45.9 6.78 1.4 10.24 1.06.3-.04.6-.13.89-.3.17-.1.32-.13.44-.12.2.02.38.11.53.26.69.72 1.1 1.62 1.23 2.72Z" fill="#ECDF5F"/></svg>