<svg width="56" height="56" viewBox="0 0 56 56" xmlns="http://www.w3.org/2000/svg"><rect fill="#181B1E" width="56" height="56" rx="28"/><path d="M42 14h-7.2l-.98 3.17c-.66-1.05-3.1-3.17-7.56-3.17C20.7 14 14 16.2 14 27.26 14 38.33 18.05 42 24.17 42h4.2c1.21-.05 3.96-.73 5.2-3.06.58 1.32 3.18 3.06 5.4 3.06H42v-5.6h-2.03c-.68-.05-2.09-1.95-2.64-7.93.64-2.4 3.42-10.83 4.67-14.47ZM30.8 27.3l-1.87 6.69c-.3.8-1.27 2.41-2.74 2.41-1.84 0-3.79-2.26-3.79-8.2 0-5.96 2.3-8.6 4.22-8.6 1.9 0 3.28 1.71 3.6 4.12.26 1.93.5 3.2.58 3.58Z" fill="#fff"/></svg>