<svg width="56" height="56" viewBox="0 0 56 56" xmlns="http://www.w3.org/2000/svg"><rect fill="#B9FB01" width="56" height="56" rx="28"/><path d="M13 16.35 16.32 13 22 18.74l.02-.01 3.31 3.35v.02l-3.31 3.35-.02-.01-5.68 5.74L13 27.83l5.69-5.74L13 16.35Zm30 11.82-3.32-3.35L34 30.56l-.02-.01-3.31 3.35v.02l3.31 3.35.02-.01L39.68 43 43 39.65l-5.69-5.74L43 28.17ZM31 39.65 27.7 43 22 37.26 16.32 43 13 39.65l5.69-5.74-.02-.01L22 30.55l.01.01.02-.01 3.31 3.35v.01L31 39.65ZM39.33 13l3.32 3.35-5.68 5.74.01.01-3.32 3.35-.01-.01-.02.01-3.31-3.35.01-.01-5.69-5.74L27.95 13l5.69 5.74L39.32 13Z" fill="#0A0A0A"/></svg>