<svg width="56" height="56" viewBox="0 0 56 56" xmlns="http://www.w3.org/2000/svg"><rect fill="url(#alvzotjl0)" width="56" height="56" rx="28"/><path d="M24.24 25.71A7.26 7.26 0 0 0 18.27 23c-4.4 0-8.27 3.4-8.27 7.9 0 1.58.54 3.54 1.75 5.14A7.28 7.28 0 0 0 17.72 39a5.9 5.9 0 0 0 4.35-1.77h.09c.35 0 .44.3.44.43V38c0 .72.6 1 1.18 1 .85 0 1.22-.7 1.22-1.1v-4.83c0-.75-.7-1.07-1.05-1.07h-1.32c-1.16 0-1.9 1.13-1.14 1.96-.11.27-.29.57-.54.84-.49.51-1.3 1.2-3.13 1.2-2.84 0-4.82-2.53-4.82-5.1 0-2.77 2.5-4.9 5.27-4.9 1.37 0 2.61.46 3.5 1.6.3.39.77.4 1.23.4 1.2 0 2.14-1.14 1.24-2.29ZM31.76 25.71c1.58-2 3.78-2.7 5.97-2.71 4.4 0 8.27 3.4 8.27 7.9 0 1.58-.54 3.54-1.75 5.14A7.28 7.28 0 0 1 38.28 39a5.9 5.9 0 0 1-4.35-1.77h-.09c-.35 0-.44.3-.44.43V38c0 .72-.6 1-1.18 1-.85 0-1.22-.7-1.22-1.1v-4.83c0-.75.7-1.07 1.05-1.07h1.32c1.16 0 1.9 1.13 1.14 1.96.11.27.29.57.54.84.49.51 1.3 1.2 3.13 1.2 2.84 0 4.82-2.53 4.82-5.1 0-2.77-2.5-4.9-5.27-4.9-1.37 0-2.61.46-3.5 1.6-.3.39-.77.4-1.23.4-1.2 0-2.14-1.14-1.24-2.29Z" fill="#fff"/><path d="M18.5 28a.5.5 0 0 0-.5.5V30h-1.5a.5.5 0 0 0 0 1H18v1.5a.5.5 0 0 0 1 0V31h1.5a.5.5 0 0 0 0-1H19v-1.5a.5.5 0 0 0-.5-.5Z" fill="#FF0281"/><circle cx="38" cy="29" r="1" fill="#FCE102"/><circle cx="38" cy="33" r="1" fill="#71FA00"/><circle cx="40" cy="31" r="1" fill="#FF0080"/><circle cx="36" cy="31" r="1" fill="#33DAF0"/><path d="M37.5 13c.83 0 1.5.67 1.5 1.5v3a4.5 4.5 0 0 1-4.5 4.5h-4c-.83 0-1.5.67-1.5 1.5v2a1.5 1.5 0 0 1-3 0v-2a4.5 4.5 0 0 1 4.5-4.5h4c.83 0 1.5-.67 1.5-1.5v-3c0-.83.67-1.5 1.5-1.5Z" fill="#fff"/><defs><linearGradient id="alvzotjl0" x1="10.42" y1="9.71" x2="68.15" y2="76.02" gradientUnits="userSpaceOnUse"><stop stop-color="#1A1E21"/><stop offset="1" stop-color="#06060A"/></linearGradient></defs></svg>