<svg width="56" height="56" viewBox="0 0 56 56" xmlns="http://www.w3.org/2000/svg"><rect fill="#F0F3FA" width="56" height="56" rx="28"/><path d="M13 16v24h17v-4H19V16h-6Zm25.2 0c2.1.04 6.31 1.33 6.31 6.17 0 3.3-2.54 4.78-3.8 5.11v.66c1.42.25 4.29 1.78 4.29 5.81C45 38.8 39.41 40 37.2 40H34v-4h2.34a3.22 3.22 0 0 0 3.16-3.23c0-1.75-1.41-2.77-3.16-2.77H23v-4h13.07a2.87 2.87 0 0 0 2.87-2.88c0-1.6-1.28-3.12-2.87-3.12H23v-4h15.2Z" fill="url(#aiqkjpyjh)"/><defs><linearGradient id="aiqkjpyjh" x1="14.02" y1="35.57" x2="44.03" y2="35.57" gradientUnits="userSpaceOnUse"><stop stop-color="#2C52CB"/><stop offset="1" stop-color="#A52C6D"/></linearGradient></defs></svg>