<svg width="56" height="56" viewBox="0 0 56 56" xmlns="http://www.w3.org/2000/svg"><rect fill="#181B1E" width="56" height="56" rx="28"/><path d="M27 24.73 15.1 15.42c-1.23-.97-3.11-.15-3.11 1.36V39c0 .56.48 1.01 1.07 1.01h6.86c.59 0 1.07-.45 1.07-1v-8.1l4.57 3.79c.5.39 1.07.64 1.67.75 1.1.21 1.76-.8 1.76-1.86v-1.55c.18.32.9.97 1.93.97 1.26 0 1.76-1.3 2-1.84l.02-.03c.2-.43.67-1.4 1.05-2.13-.38.27-.9.46-1.3 1.51-.5 1.32-1.28 1.83-1.77 1.83-.5 0-1.53-.81-1.53-2.48A4.15 4.15 0 0 1 33.48 26a5.3 5.3 0 0 1 2.35.55c.55.25 1.08.45 1.82.45l.9-.02c1.33-.06 2.45-.08 2.45.9 0 1.2-.42 1.86-1.78 2.48A6.3 6.3 0 0 0 36 33.64V39c0 .56.48 1.01 1.07 1.01h5.86c.59 0 1.07-.45 1.07-1V16.77c0-1.5-1.88-2.33-3.11-1.36L29 24.73c-.58.46-1.42.46-2 0Z" fill="url(#akkw4ihzf)"/><defs><linearGradient id="akkw4ihzf" x1="28" y1="15" x2="28" y2="40" gradientUnits="userSpaceOnUse"><stop stop-color="#11DDE4"/><stop offset="1" stop-color="#0150FC"/></linearGradient></defs></svg>