<svg width="56" height="56" viewBox="0 0 56 56" xmlns="http://www.w3.org/2000/svg"><rect fill="url(#a)" width="56" height="56" rx="28"/><path d="M17.97 34.9c-.07-.09-.1-.1-.11-.21a30.2 30.2 0 0 1-.05-1.52c0-.06-.03-.09-.09-.1l-.05-.01c-.06-.01-.1.01-.1.07v1.5a.1.1 0 0 1-.02.06.09.09 0 0 1-.06.02.48.48 0 0 1-.4-.2 24.98 24.98 0 0 1-.57-.8v-.05l.22-1.16a.08.08 0 0 1 .05-.05c.41-.16.7-.32.85-.47.63-.6 1.56-1.4 1.79-2.23l.17-.66c.07-.3.05-.62.13-.9.17-.56.03-.83-.12-1.33-.03-.08 0-.1.06-.05l1.07.82a.14.14 0 0 0 .13.02c.04-.01.06-.04.07-.07.01-.03 0-.06-.02-.1-.1-.14-.21-.24-.3-.3-.27-.19-.5-.38-.7-.58-.1-.1-.05-.25-.12-.35-.1-.13-.26-.2-.51-.34a.78.78 0 0 1-.3-.3c-.2-.35-.3-.6-.32-.75a4.9 4.9 0 0 1 .24-2.44.11.11 0 0 1 .06-.06c.3-.12.48-.18.54-.18.63.03 1.29-.01 1.98-.13.68-.1 1.2-.44 1.55-1 .39-.61.2-1.19.13-1.84-.03-.22-.06-.4-.1-.53a7.1 7.1 0 0 0-1.72-2.9 17.8 17.8 0 0 0-1.8-1.56c-.07-.05-.06-.09.03-.1.16-.01.3-.02.43 0 .66.05 1.27.14 1.85.27.5.1.95.39 1.46.58.63.23 1.23.63 1.81 1.2.24.23.64.48 1.17.75l1.74.8c.2.08.42.2.66.37.43.29.48.7.51 1.24.03.4.02.83-.18 1.18-.3.5-.75 1.03-1.03 1.47-.37.59-.7 1.08-.97 1.48-.19.26-.3.48-.34.64-.11.46.1.84.28 1.26.07.15.02.23-.08.34a3.42 3.42 0 0 0-.82 2.36.08.08 0 0 0 .08.04h.03a.16.16 0 0 0 .12-.14c.16-1.14.43-1.9 1.32-2.51l.78-.54c.47-.32 1-.59 1.5-.88l.8-.36c.31-.13.59-.22.84-.27.83-.16 1.47-.24 1.93-.24.82.01 1.62-.05 2.4-.19.34-.05.84-.2 1.14-.4.61-.4.95-.98 1.02-1.75a2.8 2.8 0 0 0-.18-1.5c-.33-.6-.6-1.07-.8-1.39-.18-.3-.38-.65-.6-1.07-.73-1.44-1.88-2.52-3.12-3.65a.1.1 0 0 1 .02-.16l.16-.04h1.3c.35 0 .61.03.8.1.39.13.82.33 1.28.59 1.12.62 2.15 1.26 3.1 1.92.69.48 1.33 1.06 1.91 1.74.27.3.47.64.62.99a7.8 7.8 0 0 1 .62 2.99c.06.95-.4 1.7-1.06 2.33a9.5 9.5 0 0 1-1.17 1c-.1.06-.3.16-.63.31-.44.2-1.02.3-1.44.44-.27.1-.47.13-.62.12-.3-.01-.6.08-.95.07h-2.9c-.48 0-.9.3-1.39.67-.43.34-.78.85-.75 1.42v.85c0 .13.03.24.1.35.12.2.26.47.41.8.13.26.25.26.36-.02a.55.55 0 0 1 .36-.34c.49-.13.8-.2.93-.2h1.45c.17 0 .34.03.48.1.76.33 1.41.81 1.95 1.42.39.43.61.68.68.74.47.43 1 .8 1.59 1.1.23.11.5.16.78.16H43l.62-.04c.68-.02 1.46-.02 2.34 0 .04 0 .05.02.03.05-.06.15-.12.24-.17.3-.35.33-.65.67-.9 1.02-.57.84-1.18 1.55-2.26 1.59-.52.02-.93.02-1.22.01a1.1 1.1 0 0 1-.47-.12c-.63-.33-1.18-.67-1.66-1.04a4 4 0 0 0-1.2-.51l-.66-.2a2 2 0 0 0-.69-.12 8.76 8.76 0 0 1-1.88-.32c-.46-.12-.9-.18-1.33-.2a2 2 0 0 0-1.59.68c-.05.04-.08.03-.1-.03-.15-.54-.2-1.09-.53-1.58a3.37 3.37 0 0 0-.6-.61l-1.18-1.02c-.35-.3-.8-.18-1.24-.02a.19.19 0 0 0-.12.13l-.02.04c-.02.08 0 .1.08.09.33-.08.67-.26 1-.08l.42.33 1.13.97c.44.39.57.82.68 1.38.02.14.14.45.16.69l.05.3.32 1.21c.11.44.26.7.66.92.36.2.74.33 1.13.39l.58.08c.33.06.62.09.86.09a201.39 201.39 0 0 0 4.19-.03c.1-.02.1 0 .02.06-.25.17-.56.34-.89.44-.34.1-.87.28-1.25.43a10.69 10.69 0 0 1-1.35.43 1.6 1.6 0 0 0-.45 0c-.52.06-1.17.05-1.94-.04a1.24 1.24 0 0 1-.34-.09c-.12-.05-.32-.09-.46-.18-.34-.22-.5-.57-.83-.9a14.22 14.22 0 0 0-2.46-1.77c-.52-.32-1.12-.54-1.6-.8a3.34 3.34 0 0 1-.53-.33c-.35-.3-.7-.38-1.09-.22-.3.13-.71.33-1.22.61a.05.05 0 0 1-.06 0l-.78-.6c-.15-.13-.24-.32-.28-.6-.01-.1-.08-.2-.19-.17-.03.01-.05.03-.05.06-.04.45.1.78.43 1 .33.23.54.43.63.59.02.03.04.05.07.06.03 0 .08.04.16.1.24.18.97.78 2.19 1.8.32.26.62.28 1.06.34.54.07.97.34 1.28.78l.87 1.21c.3.42.52.78.65 1.09a27.9 27.9 0 0 1 .66 1.65c0 .01 0 .02-.02.03a.05.05 0 0 1-.06 0 9 9 0 0 1-1.43-1.07c-.2-.2-.44-.47-.7-.81l-.64-.86c-.23-.3-.64-.77-1.02-.78-.72-.01-1.1 0-1.4-.04a.82.82 0 0 1-.24-.09 8.84 8.84 0 0 1-2.02-1.42c-.26-.4-.5-.72-.7-.99a3.4 3.4 0 0 1-.58-1.4 3.45 3.45 0 0 0-.4-.76c-.03-.05-.08-.05-.14 0a6.77 6.77 0 0 0-.02.24c.19.4.41.75.38 1.07l.01.08c.18.44.42.84.72 1.2.04.05.1.17.19.35v.08c-.14.24-.42.63-.86 1.19a2.1 2.1 0 0 0-.4 1.1c-.05.5-.08.82-.21 1.18-.03.1-.07.1-.1 0l-.5-1.12a.91.91 0 0 1-.03-.65 22.21 22.21 0 0 0 .71-2.86c.04-.36.22-.26.43-.42l.02-.04v-.04a.13.13 0 0 0-.06-.1c-.03-.01-.06-.02-.11-.01-.2.03-.42.05-.66.05H20.4c-.13 0-.23.02-.32.04-.08.03-.13 0-.15-.1a14.1 14.1 0 0 0-.63-2.4c-.03-.08-.08-.1-.15-.07a.08.08 0 0 0-.04.03l-.01.05c.03.4.14.68.3 1.23.08.24.13.48.17.71.05.34.1.68.2.95l.26.8c.06.21.16.47.3.77.34.76.63 1.32.9 2 .2.53.47 1.12.78 1.79a1.75 1.75 0 0 1 .14.5l-.01.03a.06.06 0 0 1-.05.02c-.2 0-.4-.07-.58-.2-.4-.3-.77-.67-1.12-1.14-.11-.14-.2-.28-.26-.42-.26-.6-.45-1.16-.74-1.68-.29-.53-.64-1.1-1.04-1.7-.16-.25-.64-1.09-.38-1.31.02-.03.02-.05 0-.07Z" fill="#DC6062"/><path d="M23.13 16.13c.09.09.11.2.08.36-.01.03-.03.05-.06.06-.22.03-.42.04-.6 0-.27-.04-.46-.4-.24-.63.2-.22.44-.16.66.05l.16.16Z"/><path d="M22.63 16.3c.06 0 .11-.06.11-.12a.11.11 0 0 0-.1-.11.11.11 0 0 0-.12.11c0 .06.05.11.11.11Z" fill="#fff"/><path d="M37.68 17.28c-.28.06-.79.11-.83-.27-.04-.38-.08-.73.28-.85.12-.04.23 0 .34.1.22.24.46.53.4.85-.03.1-.09.15-.2.17Z"/><path d="M37.6 16.93v.03h-.01a.31.31 0 0 1-.22.1.3.3 0 0 1-.21-.1.32.32 0 0 1 .01-.44v-.02a.02.02 0 0 1 .03 0l.4.43Z" fill="#fff"/><path d="M25.12 17.37c-.05.14-.06.21-.2.22-.26.02-.77-.01-.56-.44.16-.3.41-.39.77-.26a.08.08 0 0 1 .05.07c.01.1 0 .25-.06.41ZM40.55 17.25c.02.2.11.3.28.45.02.01.04.05.07.1.1.2-.05.37-.27.39-.4.04-.8-.03-.84-.52-.03-.3.09-.5.35-.6.18-.06.38-.06.4.18Z"/><path d="M24.84 17.29c.07-.06.09-.14.06-.18-.04-.04-.12-.02-.18.04s-.09.14-.05.18c.03.03.11.02.17-.04Z" fill="#DC6062"/><path d="M40.53 17.81c.06.07.05.1-.04.1l-.17-.01a.28.28 0 0 1-.21-.11c-.06-.08-.05-.2 0-.38.02-.05.06-.07.11-.08.04 0 .05.01.06.05 0 .12.09.27.25.43Z" fill="#fff"/><path d="M24.55 19.27a.16.16 0 0 1-.04.11.16.16 0 0 1-.1.06l-.28.02-.27-.01a.85.85 0 0 1-.24-.07.49.49 0 0 1-.16-.12.27.27 0 0 1-.07-.16v-.02c-.01-.1.06-.22.18-.3.13-.1.3-.15.5-.17l.27-.02a.15.15 0 0 1 .15.08l.01.06.05.54ZM26.17 19.52a.16.16 0 0 1-.15-.1.16.16 0 0 1-.01-.06v-.1c0-.11.04-.22.13-.3.08-.09.2-.14.32-.14h.13c.13 0 .25.04.34.12.09.07.14.18.14.3v.1a.17.17 0 0 1-.04.11.16.16 0 0 1-.11.05l-.75.02Z"/><path d="m24.27 19.1-.01.03-.03.01a2.1 2.1 0 0 1-.37.03c-.1 0-.16-.02-.16-.05 0-.02 0-.03.03-.05a1.6 1.6 0 0 1 .47-.13h.03l.02.03.02.13ZM26.58 19.26c.12 0 .21-.05.21-.1s-.1-.09-.22-.09-.21.05-.21.1.1.09.22.09Z" fill="#fff"/><path d="M26.28 21.38c.18.15.28.22.28.46a5.73 5.73 0 0 1-.02.39l-.04.01c-.3.03-.98.12-.95-.38.03-.4.3-.83.73-.48Z"/><path d="M25.9 21.98a.05.05 0 0 1-.04-.01.06.06 0 0 1-.01-.04v-.02c0-.09.01-.18.05-.24.03-.07.08-.1.14-.11.06 0 .11.03.15.1.04.05.07.14.07.23v.04a.06.06 0 0 1-.03.03h-.02l-.3.02Z" fill="#fff"/><path d="M23.42 22.47a.13.13 0 0 1-.12-.08V22.33a.57.57 0 0 1 .57-.56h.03a.56.56 0 0 1 .56.58.13.13 0 0 1-.04.1.13.13 0 0 1-.09.04l-.91-.02ZM20.7 22.58c.2.14.31.24.33.31.07.22 0 .46-.27.49-.2.02-.56.06-.7-.08a.17.17 0 0 1-.06-.08.83.83 0 0 1 .1-.6c.15-.29.38-.2.6-.04Z"/><path d="m20.3 22.8.03-.03h.05a1.02 1.02 0 0 1 .28.11l.07.07c.02.03.03.05.02.07 0 .04-.06.07-.14.08a.84.84 0 0 1-.3-.03.06.06 0 0 1-.04-.03.06.06 0 0 1 0-.04l.04-.2Z" fill="#fff"/><path d="M39.1 23.4c.24-.1.56-.24.78-.12.6.33.32.98-.2 1.13-.24.07-.5.09-.8.06-.34-.03-.32-.3-.33-.57-.01-.32.26-.39.55-.5Z"/><path d="M39.74 23.55a.11.11 0 0 1 .1 0 .12.12 0 0 1 .05.08l.01.05c.02.05.02.1.01.14 0 .04-.03.09-.05.13a.44.44 0 0 1-.24.17l-.31.1c-.1.02-.2.02-.3-.03a.32.32 0 0 1-.17-.2l-.02-.05a.12.12 0 0 1 .08-.15l.84-.24Z" fill="#fff"/><path d="M22.56 23.9c.5.22 2.16 1.07 1.3 1.83a.66.66 0 0 1-.42.14c-.46.01-.79 0-1-.01-.12-.01-.34-.1-.63-.24-.44-.22-.54-.7-.45-1.15.02-.07.09-.14.21-.22.27-.17.52-.3.75-.37.07-.03.15-.02.24.02Z"/><path d="M22.49 25.34c.18.06.36.05.54 0a.11.11 0 0 0 .07-.06.64.64 0 0 0 .03-.47.12.12 0 0 0-.05-.08l-.23-.13a.07.07 0 0 1-.03-.08c0-.03.02-.05.03-.06.06-.02.11-.02.15.01.3.21.63.39.78.7.1.19-.16.42-.33.43-.68.02-1 .06-1.5-.25a.66.66 0 0 1-.32-.66c.02-.23.31-.32.53-.4.19-.06.37.06.51.12.08.05.08.08-.01.1-.32.1-.24.44-.22.77 0 .03.02.05.05.06Z" fill="#fff"/><path d="M16.69 32.07c0-.79-.34-2.32-1.37-2.33h-.6c-.04 0-.06-.02-.06-.05a10 10 0 0 0-.46-1.24c-.07-.19-.12-.4-.13-.67-.02-.52-.06-1.38.28-1.72.14-.14.34-.28.59-.4.44-.25.77-.22 1.4-.23.42 0 .93-.03 1.34.08.19.06.43.06.62.15.28.12.8.43.88.76.06.3.17.62.31.99.16.4-.07.65-.1.99 0 .24-.07.6-.19 1.08a1.9 1.9 0 0 1-.24.61c-.33.48-.81 1.02-1.45 1.64a1.72 1.72 0 0 1-.76.41.07.07 0 0 1-.05-.03l-.01-.04Z" fill="#DC6062"/><path d="M29.27 26.82c.51-.25.9-.46 1.5-.37.15.02.2.1.2.24.03.26.07.8-.18.95-.24.15-.46.25-.65.3-.55.14-1.02.28-1.5.2a.07.07 0 0 1-.05-.06c-.19-.64.17-1 .68-1.26Z"/><path d="M29.63 27.73c-.23.1-.47.16-.73.14a.1.1 0 0 1-.07-.03.1.1 0 0 1-.02-.06c-.01-.3.27-.55.5-.65.03-.01.05 0 .05.04.02.26.12.43.3.51.07.04.16.02.27-.05a.1.1 0 0 0 .05-.08c.04-.22-.02-.41-.17-.55a.07.07 0 0 1 .01-.12c.26-.14.53-.2.82-.17.03 0 .05.02.05.05.03.22.05.54-.11.68-.16.12-.63.33-.87.28l-.08.01Z" fill="#fff"/><path d="M24.6 29.66c.43-.01.73-.03 1.24-.06.7-.04 1.54.47 1.37 1.3-.04.2-.18.3-.41.34-.44.06-.8.09-1.07.1-.86.02-1.36.04-1.49.03-.43-.01-.75-.07-.78-.6-.02-.28-.07-.67.2-.83.29-.18.6-.27.94-.28ZM36.25 29.7c.24.13.42.81.09.94a.64.64 0 0 1-.55 0 .66.66 0 0 1-.33-.44c-.1-.35.54-.62.79-.5Z"/><path d="M25.39 31c.51-.08.24-.6.13-.94a.11.11 0 0 1 0-.08.11.11 0 0 1 .07-.06c.49-.14 1.17.06 1.32.6.08.28-.01.43-.27.47a6.13 6.13 0 0 1-1.26.05V31ZM24.77 30.28c-.05.27-.04.51.04.72.02.04 0 .07-.04.07-.31.02-.59.01-.83-.01-.22-.03-.22-.5-.2-.7.01-.1.06-.18.14-.22.36-.19.75-.24 1.17-.18.03 0 .05.03.05.06 0 .04 0 .08-.03.12a.08.08 0 0 1-.05.03l-.19.05a.08.08 0 0 0-.06.06Z" fill="#fff"/><path d="M15.8 30.24c.45.47.58 1.11.62 1.8.03.4-.03.84-.15 1.36-.07.27-.17.5-.3.65-.11.17-.32.24-.46.34-.25.18-.6.2-.83.14-.5-.1-.97-.24-1.4-.4-.5-.2-.87-.61-.88-1.2-.01-.62.06-1.57.57-1.9l1.3-.83c.18-.12.34-.19.47-.2.36-.02.8-.04 1.06.24Z" fill="#6FD4FE"/><path d="M36.17 30.43a.02.02 0 0 1-.01.01l-.09-.03a1.18 1.18 0 0 1-.24-.14.28.28 0 0 1-.07-.07v-.07c.01-.03.06-.04.14-.04.08 0 .17.03.27.07l.08.03a.02.02 0 0 1 0 .02l-.08.22Z" fill="#fff"/><path d="M13.78 30.68h-.01a.17.17 0 0 0-.04.24l.3.38c.05.07.15.08.22.03l.01-.01a.17.17 0 0 0 .03-.23L14 30.7a.16.16 0 0 0-.22-.03ZM15.55 30.7l-.46.37a.17.17 0 0 0-.03.23v.01c.06.07.17.08.24.03l.46-.37a.17.17 0 0 0 .03-.23l-.01-.02a.16.16 0 0 0-.23-.02Z"/><path d="M11.74 33.61a3.42 3.42 0 0 0 .01 1.36.06.06 0 0 1-.05.03h-.03a.6.6 0 0 1-.22-.23l-.3-.54a1.2 1.2 0 0 1-.15-.51c0-.49-.04-.93.19-1.38a2.6 2.6 0 0 1 1.18-1.17.06.06 0 0 1 .04.05v.03c-.08.22-.15.4-.19.57-.1.33-.1.84-.15 1.18a.2.2 0 0 1-.03.08c-.13.19-.27.33-.3.53Z" fill="#DC6062"/><path d="M13.53 31.81c.1.08.22.08.28 0 .07-.09.05-.21-.05-.29-.09-.07-.21-.07-.28.01-.06.08-.04.2.05.28ZM15.17 32.03c.07.1.2.14.27.08.08-.05.08-.18.01-.28-.07-.1-.19-.13-.26-.08-.08.06-.09.18-.02.28ZM14.12 33.1c-.26-.08-.41.06-.41.32a.14.14 0 0 1-.17.13c-.3-.07-.27-.37-.1-.54.11-.12.24-.21.4-.28.25-.11.6.13.9.3.28.15.48.36.58.63.05.11 0 .2-.11.23a.14.14 0 0 1-.16-.07 1.7 1.7 0 0 0-.93-.71ZM39.24 33.07c.2.18.56.5.43.77-.1.2-.29.17-.45.18-.46.04-.68-.2-.66-.69 0-.1.06-.2.16-.27.18-.14.35-.13.52.01ZM42.49 33.34a.19.19 0 0 1 .11-.17l.07-.02H43c.14 0 .28.04.38.12.1.07.15.17.15.27v.03a.3.3 0 0 1-.04.14.4.4 0 0 1-.12.13.58.58 0 0 1-.17.08.71.71 0 0 1-.2.03h-.33a.18.18 0 0 1-.17-.12.19.19 0 0 1-.01-.07v-.42ZM30.56 33.47c.1.13.2.3.18.46a.1.1 0 0 1-.04.08c-.21.16-.8.1-1.07.08a.1.1 0 0 1-.07-.06c-.2-.46-.05-.74.41-.85.33-.07.4 0 .6.29Z"/><path d="M39.4 33.64v.01a.31.31 0 0 1-.22.1.3.3 0 0 1-.22-.07.3.3 0 0 1-.1-.22.32.32 0 0 1 .07-.23.01.01 0 0 1 .02 0l.44.4Z" fill="#fff"/><path d="M28.62 33.94a.13.13 0 0 1-.07.17l-.06.02c-.22.1-.44.14-.63.12-.18 0-.31-.07-.35-.18a.25.25 0 0 1 0-.18.6.6 0 0 1 .13-.2c.06-.07.14-.14.24-.2l.3-.15.06-.03a.13.13 0 0 1 .1 0 .13.13 0 0 1 .07.08l.21.55Z"/><path d="M42.97 33.68c.13 0 .23-.05.24-.12 0-.07-.1-.13-.23-.14-.13 0-.23.05-.23.12 0 .07.1.14.22.14ZM29.76 33.8a.01.01 0 0 1-.01-.01v-.01a.3.3 0 0 1 .3-.3h.02a.3.3 0 0 1 .3.31.01.01 0 0 1-.02.02l-.59-.01Z" fill="#fff"/><path d="M33.46 35.18c-.25-.38-.9-.3-1.25-.17a.06.06 0 0 1-.07-.03v-.02l-.13-.74c-.01-.03 0-.07.01-.1.13-.19.27-.33.45-.44a.08.08 0 0 1 .08 0c.32.15.56.24.73.27.85.16 1.37.24 1.99.53a.18.18 0 0 1 .1.16v1.24c0 .33.18.48.43.74a.07.07 0 0 1 0 .1.07.07 0 0 1-.04.02c-.38.06-.71.02-1-.12-.54-.27-.95-.9-1.3-1.44ZM15.48 35.3c.2-.15.2-.34.18-.56a.2.2 0 0 1 .11-.19.9.9 0 0 0 .39-.28c.08-.12.16-.12.22.02l.05.11c.06.14.06.27-.01.4-.1.21-.22.46-.33.75a.5.5 0 0 1-.12.18c-.17.17-.8.07-.93.02-.19-.07-.19-.13 0-.2.1-.02.25-.1.44-.25ZM16.27 41.54c-.02-.04-.07-.1-.08-.17A345.08 345.08 0 0 1 16 40.1c-.04-.24-.06-.5-.06-.77a58 58 0 0 0 0-1.62c0-.14.03-.27.09-.38.13-.24.26-.52.43-.8.16-.25.34-.6.53-1.03.1-.21.27-.34.52-.38a.09.09 0 0 1 .07.02.09.09 0 0 1 .04.06c0 .31.11.63.31.96a56.73 56.73 0 0 1 .7 1.22c0 .02 0 .03-.02.04-.36.24-.83.52-1.08.88l-.25.37c-.13.15-.35.5-.66 1.06a2.49 2.49 0 0 0-.31 1.8c0 .03 0 .04-.03.03 0 0-.02 0-.02-.02ZM31.83 37.57c-.24.13-.4.52-.46.77a4.17 4.17 0 0 1-.44 1.07.08.08 0 0 1-.07 0 36.56 36.56 0 0 0-.9-1.22.65.65 0 0 1-.13-.4V36.1c0-.1.03-.12.12-.07.64.4 1.27.87 1.89 1.44.04.04.03.07-.01.1Z" fill="#DC6062"/><path d="M34.32 38.16a.18.18 0 0 1-.18-.1.19.19 0 0 1-.02-.07v-.06a.59.59 0 0 1 .12-.4.52.52 0 0 1 .35-.18h.04a.49.49 0 0 1 .38.13.55.55 0 0 1 .18.37v.06a.19.19 0 0 1-.16.2l-.71.05Z"/><path d="M34.68 37.89c.13 0 .24-.05.24-.1 0-.04-.11-.07-.24-.07-.14 0-.24.05-.24.1 0 .04.11.07.24.07Z" fill="#fff"/><path d="M37.5 39.8c-.26-.26-.5-.6-.8-.8a30.82 30.82 0 0 1-.47-.33.05.05 0 0 1 0-.06l.03-.01c.34-.1.65-.25.93-.04.34.24.68.46 1.04.65.54.29.89.5 1.35.78.38.23.69.5 1.05.75a.1.1 0 0 1 .04.04c.06.1.03.14-.09.11-.22-.06-.4-.16-.62-.21l-1.6-.4c-.33-.09-.61-.25-.85-.48ZM30.04 41.17l-.39.72-.01.02h-.03v-.02l.01-1.03a.03.03 0 0 1 .03-.03l.01.01.37.28a.03.03 0 0 1 .01.05Z" fill="#DC6062"/><defs><linearGradient id="a" x1="10.42" y1="9.71" x2="68.15" y2="76.02" gradientUnits="userSpaceOnUse"><stop stop-color="#1A1E21"/><stop offset="1" stop-color="#06060A"/></linearGradient></defs></svg>