<svg width="56" height="56" viewBox="0 0 56 56" xmlns="http://www.w3.org/2000/svg"><rect fill="#F0F3FA" width="56" height="56" rx="28"/><path d="M18.02 16c.33.03.55.21.67.55.13.38-.03.7-.5.97a.35.35 0 0 0-.15.14c-.15.3-.28.63-.37 1a14.2 14.2 0 0 0-.32 2.39c-.08 2.4-.04 4.79.14 7.16.12 1.66.26 3.18.4 4.55.05.44-.03.85-.23 1.25a1.8 1.8 0 0 1-.92.88c-.37.15-.75.15-1.15-.01a2.2 2.2 0 0 1-.93-.75c-.15-.2-.31-.5-.5-.93a7902.21 7902.21 0 0 0-4.47-10c-.02 0-.02.01-.02.03-.2 1.68-.19 3.75.01 6.21.12 1.38.3 2.66.55 3.84.07.32.08.56.03.7a.73.73 0 0 1-.32.36.79.79 0 0 1-.45.12.73.73 0 0 1-.42-.15.7.7 0 0 1-.26-.42c-.2-.87-.36-1.77-.47-2.7A42.47 42.47 0 0 1 8 24.91c.02-.94.13-1.85.31-2.75.07-.36.2-.65.4-.9.23-.28.51-.42.84-.42.25 0 .5.09.7.27.2.17.36.38.48.65l4.94 11.1c.1.22.23.4.39.55.02.02.06.03.1.03.03 0 .06-.02.08-.05a.77.77 0 0 0 .13-.43c0-.1-.01-.26-.04-.46l-.04-.25a97.94 97.94 0 0 1-.51-9.5c0-.9.04-1.8.13-2.7.13-1.42.4-2.48.83-3.18.14-.24.32-.45.54-.61.25-.2.5-.28.73-.26Zm9.69 5.98a.8.8 0 0 1 .74-.09c.26.09.44.26.55.52.04.1.06.3.06.61-.04 2.77.1 6.28.44 10.53.01.2-.04.35-.16.49-.1.12-.25.19-.42.21a.67.67 0 0 1-.76-.53 36.48 36.48 0 0 1-.88-10.87c0-.38.14-.67.43-.87Zm19.4-2.26c.3-.02.51.05.66.2a.77.77 0 0 1-.17 1.23c-.1.05-.29.1-.57.12-1.1.08-2.16.28-3.15.6-1.09.34-2.04.8-2.86 1.38-.26.18-.45.35-.58.5-.16.2-.27.43-.32.68-.11.54-.2 1.15-.28 1.84 0 .02 0 .04.02.06h.06a16.36 16.36 0 0 1 3.94-.99c.62-.08 1.03-.03 1.2.13.26.24.35.51.25.82-.1.31-.33.49-.68.54l-.5.04c-.37.03-.65.07-.84.1-1.2.23-2.38.59-3.53 1.07a.05.05 0 0 0-.04.05c-.06.97-.02 1.96.12 2.96.04.3.11.55.2.76a.1.1 0 0 0 .08.06c.23.07.47.1.71.12 1.95.1 3.82.07 5.63-.08.33-.03.6.02.84.14.27.15.4.38.4.7 0 .37-.16.65-.5.82a3 3 0 0 1-.98.24c-.56.06-1.25.07-2.04.03a52.77 52.77 0 0 1-2.48-.18c-.86-.1-1.53-.2-2-.3-.36-.08-.65-.3-.88-.64a2.79 2.79 0 0 1-.4-1.03 21.11 21.11 0 0 1 .37-8.12c.17-.5.58-1 1.24-1.5a9.2 9.2 0 0 1 1.72-1.01 15.1 15.1 0 0 1 5.37-1.34Zm-23.94 6.04c.28-.21.57-.23.9-.05.54.3 1.02.7 1.41 1.16a4.57 4.57 0 0 1 1 4.04 3.4 3.4 0 0 1-1.3 2.07c-.88.65-1.85.94-2.92.87a3.56 3.56 0 0 1-2.82-1.64 3.98 3.98 0 0 1-.7-1.82 3.8 3.8 0 0 1 1.26-3.3 4.03 4.03 0 0 1 1.71-.92 6.5 6.5 0 0 1 1.18-.15c.03 0 .06-.02.09-.04a.54.54 0 0 0 .1-.1.58.58 0 0 1 .1-.12Zm10.69.05c.85-.12 1.67.02 2.45.42.27.13.44.3.52.52.09.24.05.47-.13.71a.7.7 0 0 1-.43.29.63.63 0 0 1-.51-.08c-.3-.2-.66-.32-1.08-.35-.39-.03-.77.01-1.14.13-.56.2-.99.51-1.27.95-.27.43-.4.96-.37 1.57.02.53.17.97.44 1.33.29.36.68.6 1.2.73.38.1.77.11 1.18.05a1.7 1.7 0 0 0 1.06-.52c.18-.2.3-.32.38-.35.18-.08.36-.1.54-.05a.77.77 0 0 1 .55.73c0 .19-.06.36-.18.51-.4.54-.98.91-1.71 1.11a4.19 4.19 0 0 1-3.97-.98 3.43 3.43 0 0 1-.96-1.94 4.6 4.6 0 0 1 .11-2.04c.2-.67.56-1.24 1.08-1.71a4.04 4.04 0 0 1 2.24-1.03Zm-11.2 1.76c-.57.04-1.05.2-1.45.5a2.25 2.25 0 0 0-.96 1.81c-.02.58.15 1.1.53 1.59.38.5.85.77 1.41.83.54.06 1.04-.01 1.52-.22.52-.23.9-.57 1.1-1.03.24-.5.31-1.05.22-1.64a3.07 3.07 0 0 0-.7-1.53.33.33 0 0 0-.15-.1 3.88 3.88 0 0 0-1.53-.21Z"/></svg>