<svg width="56" height="56" xmlns="http://www.w3.org/2000/svg"><rect fill="url(#paint0_linear)" width="56" height="56" rx="28"/><path fill-rule="evenodd" d="M33.216 9l6.231 6.37c1.152 1.053 3.38 4.257 3.989 6.997.546 2.46.724 4.796.409 6.477 0 0-1.159 5.194-1.909 7.478s-2.437 5.331-5.535 7.644c-3.097 2.313-6.881 2.98-8.561 3.03-2.45.072-7.482-.8-10.603-3.961-3.07-3.11-3.944-5.479-4.266-6.351l-.015-.042c-.309-.837-.929-2.72-.956-5.787-.027-3.066 2.042-9.122 2.042-9.122.661-1.923 2.805-6.28 6.09-8.328 2.718-1.694 7.79-3.016 11.202-3.905.712-.186 1.351-.353 1.882-.5zM19.197 39.463c-1.5-.09-4.483-1.694-4.417-7.383.065-5.69 2.598-11.334 3.855-13.445.529-.886 1.437-2.146 1.961-2.605.525-.46 1.072-.43 1.28-.358l6.508 1.188c-.37-.027-1.483.64-2.975 3.522l-.31.596c-1.863 3.572-4.51 8.646-5.052 17.758l-.002.049c-.018.326-.039.727-.848.678zm22.087-13.735c.065-5.69-2.918-7.293-4.417-7.384-.81-.049-.831.352-.848.678l-.003.05c-.542 9.11-3.188 14.185-5.051 17.757l-.31.596c-1.492 2.883-2.605 3.55-2.975 3.523l6.507 1.187c.208.072.756.102 1.28-.357.525-.46 1.433-1.72 1.961-2.606 1.258-2.111 3.79-7.755 3.856-13.444zM29.41 17.41c.598.66 1.9 4.555 2.319 14.856.045.555 0 2.048-.328 2.966-.465 1.302-2.235 4.461-3.304 5.266-.854.643-1.372.176-1.527-.155-.318-.51-1.037-2.244-1.365-5.11-.327-2.867-.789-7.758-.978-9.846-.058-.696.094-2.22.572-3.248.51-1.101 1.811-3.588 2.923-4.729.298-.276 1.053-.661 1.688 0z" fill="#FF5838"/><defs><linearGradient id="paint0_linear" x1="10.418" y1="9.712" x2="68.147" y2="76.017" gradientUnits="userSpaceOnUse"><stop stop-color="#1A1E21"/><stop offset="1" stop-color="#06060A"/></linearGradient></defs></svg>