<svg width="56" height="56" viewBox="0 0 56 56" xmlns="http://www.w3.org/2000/svg"><rect fill="url(#a)" width="56" height="56" rx="28"/><path d="M37.12 14.85c-.46.62-.96 1.2-1.49 1.74-.17.18-.22.46-.15.85a12.96 12.96 0 0 0-17.09 1.9 12.7 12.7 0 0 0-2.88 5.35c-.2.35-.43.71-.67 1.09-.37.57-.7 1.36-1 2.37-.37.44-.76.56-1.24.75-.22.08-.4.3-.53.63a16 16 0 0 1 25.05-14.68Z" fill="#A3A3A3"/><path d="M28.61 20.75c-.09.04-.04.1.15.17.04.01.05.04.04.07a4.1 4.1 0 0 1-2.34 2.33 8.21 8.21 0 0 0-9.97 8.98 8.37 8.37 0 0 0 4.54 6.47c.9.69 1.93 1.21 3.07 1.57 1.54.49 3.11.67 4.72.55a9.2 9.2 0 0 0 2.5-.4 12.96 12.96 0 0 0 9.5-10.62c.23-.22.48-.42.76-.59.3-.2.55-.5.7-.72.3-.43.84-.67 1.13-1.1.13-.2.24-.4.31-.59.07-.17.12-.16.14.02l.14 1.1a16.04 16.04 0 0 1-5.72 12.27 16.01 16.01 0 0 1-23.79-3.68.39.39 0 0 0 .01-.25.1.1 0 0 0-.03-.06.14.14 0 0 1-.05-.1c0-.04 0-.08-.02-.1a16.4 16.4 0 0 1-.77-2.42c-.3-1.33-.32-2.7-.08-4.12.08-.46.18-.92.29-1.38.3-1 .63-1.8 1-2.37.24-.38.47-.74.67-1.09l.48-.56a11.18 11.18 0 0 1 12.62-3.38Z" fill="#fff"/><path d="M39.78 17.17c-.8-.87-1.7-1.64-2.66-2.32-.46.62-.96 1.2-1.49 1.74-.17.18-.22.46-.15.85a13.13 13.13 0 0 1 3.94 4.48c.54 1.04.96 2.18 1.24 3.41.1.4.14.72.15.98 0 .25.03.48.05.7.03.26.06.52.06.81 0 .68-.03 1.37-.1 2.04.23-.21.48-.4.76-.58.3-.2.55-.5.7-.72.14-.21.35-.38.56-.54.21-.17.43-.34.57-.57.13-.2.24-.4.31-.58.07-.17.12-.16.14.02l.14 1.1a15.92 15.92 0 0 0-1.73-7.22 15.93 15.93 0 0 0-2.5-3.6Z" fill="url(#b)"/><path d="M33.92 24.88a11.33 11.33 0 0 0-5.3-4.13c-.1.04-.05.1.14.17.04.01.05.04.04.07a4.1 4.1 0 0 1-2.34 2.33c.16.06.36.12.59.18.25.06.45.12.59.17a8.34 8.34 0 0 1 2.76 1.8l.32.35c.49.5.89 1.06 1.2 1.66.8-.75 1.47-1.62 2-2.6Zm-3.5 14.04a295.8 295.8 0 0 1 5.4-5.96c.48-2.79-.3-5.77-1.9-8.08-.53.98-1.2 1.85-2 2.6a8.21 8.21 0 0 1-8.77 11.93c-.56-.1-1.26-.3-2.12-.64.9.69 1.93 1.21 3.07 1.57 1.54.49 3.11.67 4.72.55a34.1 34.1 0 0 1 1.6-1.97Z" fill="url(#c)"/><path d="M13.84 28.15c-.11.46-.2.92-.29 1.38-.24 1.42-.22 2.8.08 4.12a16.43 16.43 0 0 0 .79 2.51c0 .05.02.09.05.11a.1.1 0 0 1 .03.06c.03.08.03.17 0 .25a15.99 15.99 0 0 1-2.43-7.05c.14-.34.31-.55.53-.63.48-.2.87-.3 1.24-.75Z" fill="#A3A3A3"/><path d="M35.83 32.96a11.12 11.12 0 0 1-2.04 5c-.67.92-1.49 1.76-2.47 2.53a9.2 9.2 0 0 1-2.5.4c.58-.76 1.1-1.42 1.6-1.97a295.8 295.8 0 0 1 5.4-5.96Z" fill="#6D6C6D"/><defs><linearGradient id="a" x1="10.42" y1="9.71" x2="68.15" y2="76.02" gradientUnits="userSpaceOnUse"><stop stop-color="#1A1E21"/><stop offset="1" stop-color="#06060A"/></linearGradient><linearGradient id="b" x1="35.45" y1="15.85" x2="42.04" y2="29.84" gradientUnits="userSpaceOnUse"><stop stop-color="#A3A3A3"/><stop offset=".84" stop-color="#fff"/></linearGradient><linearGradient id="c" x1="23.67" y1="28.95" x2="31.54" y2="37.07" gradientUnits="userSpaceOnUse"><stop stop-color="#fff"/><stop offset="1" stop-color="#6D6C6D"/></linearGradient></defs></svg>