<svg width="56" height="56" viewBox="0 0 56 56" xmlns="http://www.w3.org/2000/svg"><rect fill="#F0F3FA" width="56" height="56" rx="28"/><path d="M11 41.34c0-3.03 2.28-7.12 3.43-8.79l1.95 3.16c-5.05 7.77.28 5.41 1.97 4.47A106.5 106.5 0 0 0 22 38.04l2.49 2.67c-.17.15-1.35.86-4.76 2.48C15.47 45.2 11 45.13 11 41.34Z" fill="url(#a)"/><path d="M42.5 28a14.5 14.5 0 0 1-19.66 13.55l.74-3.75a10.75 10.75 0 0 0 14.9-12.18l3.12-2.65c.58 1.57.9 3.26.9 5.03Zm-2.69-8.41c-.54.8-1.45 2.03-2.43 3.16a10.74 10.74 0 1 0-16.41 13.37c.14.27-.02.62-.12.77a7.2 7.2 0 0 1-1.95 1.42c-.42.18-.8.14-1.08.01a14.5 14.5 0 1 1 22-18.73Z" fill="url(#b)"/><path fill-rule="evenodd" d="M28.5 34.5a6.5 6.5 0 1 0 0-13 6.5 6.5 0 0 0 0 13Zm0-3a3.5 3.5 0 1 0 0-7 3.5 3.5 0 0 0 0 7Z" fill="url(#c)"/><path d="M22 27.82v11.25c0 .58.17 1.9.78 2.5.62.43 2.83 1.2 6.68.83A5.05 5.05 0 0 1 25 38.63V27.82h-3Z" fill="url(#d)"/><path d="M38.77 28.37a8.9 8.9 0 0 0-1.08-4.58c1.54-1.5 5.5-7.03 4.25-7.87-1-.68-3.42.39-4.57 1.1A12.84 12.84 0 0 0 34 14.9c2.24-1.73 8.45-3.3 10.48-1.8 1.6 1.18 1.24 4-.52 7.7a38.2 38.2 0 0 1-5.2 7.57Z" fill="url(#e)"/><defs><linearGradient id="a" x1="12.14" y1="42.85" x2="18.34" y2="37.48" gradientUnits="userSpaceOnUse"><stop stop-color="#0647F7"/><stop offset="1" stop-color="#0499E9"/></linearGradient><linearGradient id="b" x1="40.01" y1="18.71" x2="20.21" y2="39.81" gradientUnits="userSpaceOnUse"><stop stop-color="#0045F9"/><stop offset=".43" stop-color="#02D2E4"/><stop offset="1" stop-color="#04EDAA"/></linearGradient><linearGradient id="c" x1="28.5" y1="21.5" x2="28.5" y2="34.5" gradientUnits="userSpaceOnUse"><stop stop-color="#0246E5"/><stop offset=".47" stop-color="#01D1E3"/><stop offset="1" stop-color="#08E3BB"/></linearGradient><linearGradient id="d" x1="25.73" y1="27.82" x2="25.73" y2="42.5" gradientUnits="userSpaceOnUse"><stop stop-color="#00D0E4"/><stop offset="1" stop-color="#04FA8B"/></linearGradient><linearGradient id="e" x1="39.71" y1="12.55" x2="39.71" y2="28.37" gradientUnits="userSpaceOnUse"><stop stop-color="#00F99B"/><stop offset="1" stop-color="#08E1C4"/></linearGradient></defs></svg>