<svg width="56" height="56" viewBox="0 0 56 56" xmlns="http://www.w3.org/2000/svg"><rect fill="#35CAD1" width="56" height="56" rx="28"/><path d="M34.12 45h-.15c-.08-1.4-.1-2.3-.04-2.67.09-.59.2-1.01.34-1.28.43-.84.84-1.83 1.23-2.95.12-.35 1-.9 1.8-1.53 1.1-.87 1.28-3.15 1.2-4.5-.01-.14 0-.2.06-.2.3 1.14.15 2.07-.06 3.12-.02.1.02.13.11.13.12-.01.21-.05.3-.11a.14.14 0 0 0 .05-.13c-.03-.28.04-.5.22-.65.2-.18.29-.32.43-.5.15-.1.34-.12.56-.06.05.01.09 0 .12-.04.2-.22.24-.47.12-.73-.06-.13-.05-.24.02-.33.25-.32.39-.57.85-.51a.24.24 0 0 0 .26-.18.25.25 0 0 0 0-.11.81.81 0 0 0-.15-.35c.11-.43.28-.8.5-1.13l.4-.11c.12 0 .2-.05.24-.13.02-.06.02-.13-.02-.22a4.71 4.71 0 0 0-.2-.43l.33-.95a.48.48 0 0 1 .17-.04c.12.06.22.06.3 0a.15.15 0 0 0 .07-.13c-.02-.29-.1-.56-.25-.82a.2.2 0 0 1-.02-.15l.21-.8c.08-.08.23-.12.46-.13.38-.18.3-.45-.25-.8-.07-.04-.11-.12-.12-.23l.03-.79c0-.05.02-.1.06-.13l.25-.18a.31.31 0 0 0 .09-.39.31.31 0 0 0-.1-.1c-.31-.26-.39-.56-.21-.93.16-.32.43-.42.3-.92a1.58 1.58 0 0 0-.58-.37c-.13-.34-.08-.62.15-.84.1-.07.17-.15.2-.24a.2.2 0 0 0 0-.15c-.16-.39-.45-.42-.87-.54a.13.13 0 0 1-.1-.12l-.05-.37a.44.44 0 0 1 .13-.23c.87-.44-.03-1.04-.57-.82-.17-.11-.16-.27.04-.46.21-.54-.06-.9-.81-1.06-.1-.01-.14-.06-.15-.14.13-.1.21-.2.25-.33-.09-.54-.42-.76-.99-.66a.3.3 0 0 1-.15 0c-.04-.01-.06-.04-.06-.07a.2.2 0 0 0 0-.05c-.02-.03 0-.07.08-.1.08-.05.11-.12.09-.22a.64.64 0 0 0-.35-.42 2.62 2.62 0 0 0-.5-.1 1.24 1.24 0 0 1-.63-.26.13.13 0 0 1-.05-.14c.11-.45-.18-.73-.6-.52l-.34.16a.13.13 0 0 1-.15-.02l-.6-.47a.3.3 0 0 1-.08-.12.6.6 0 0 0-.2-.27.16.16 0 0 0-.15-.01l-.38.16a.23.23 0 0 1-.2 0l-.77-.39a.15.15 0 0 1-.09-.12c0-.15-.08-.24-.2-.26a.26.26 0 0 0-.16.03c-.32.15-.55.2-.7.17-.89-.24-1.53-.5-2.47-.52-.3-.01-.72-.1-.93-.15a.17.17 0 0 1-.12-.1c-.1-.21-.22-.38-.37-.49a.32.32 0 0 0-.49.12l-.16.32a.13.13 0 0 1-.13.09h-.7c-.07 0-.11-.04-.11-.11 0-.35-.2-.56-.53-.39-.33.18-.34.58-.74.6-.2.01-.37 0-.53-.05.3-.7-.95-.78-1 .22a1.3 1.3 0 0 1-.57-.02.16.16 0 0 1-.12-.1c-.22-.54-.85-.05-1 .28a.18.18 0 0 1-.1.1c-.28.1-.64.27-.87.06a.27.27 0 0 0-.45.13l-.1.35a.14.14 0 0 1-.06.08l-.84.54a.08.08 0 0 1-.1-.02.08.08 0 0 1-.02-.03c-.03-.14-.1-.23-.21-.27a.25.25 0 0 0-.3.11c-.15.26-.18.52-.41.7a7.3 7.3 0 0 1-.69.43.11.11 0 0 1-.06-.03.71.71 0 0 0-.07-.07c-.04-.03-.1-.03-.19-.01-.5.13-.48.49-.48.93a.16.16 0 0 1-.06.13l-.41.31a.17.17 0 0 1-.16.03l-.22-.06a.47.47 0 0 0-.51.16.49.49 0 0 0-.1.17c-.03.13-.04.31-.02.55 0 .03 0 .06-.02.09l-.37.53a.14.14 0 0 1-.13.07l-.2-.03c-.42-.08-.68.23-.57.64.02.07.08.22.19.43.02.05.02.1 0 .15a1.3 1.3 0 0 1-.45.6c-.13-.12-.26-.18-.37-.18a.17.17 0 0 0-.17.15c-.02.23 0 .47.06.7l-.4 1.05a.1.1 0 0 1-.12.05l-.13-.04a.27.27 0 0 0-.28.09.28.28 0 0 0-.05.3c.28.59.17 1.1-.33 1.54-.23.21-.2.47.09.76.12.24.17.49.15.74l-.1.52c-.02.06 0 .1.03.14.23.25.34.55.33.91-.06.27-.05.5.05.71-.04.17-.1.33-.2.49a.33.33 0 0 0-.04.27c0 .13.05.23.15.3.33.23.6.22.63.71.02.16.04.28-.04.42-.17.3-.35.67-.02.88.19.12.4.2.63.23.05 0 .1.03.13.08.13.16.22.35.28.57.02.05.01.1 0 .16-.22.56-.01 1.13.57 1.3.26.07.64-.02.93 0 .08 0 .09.02.04.08-.15.16-.37.23-.65.2-.32-.07-.52.05-.6.36-.42 1.6-.7 2.78-.85 3.55a7.68 7.68 0 0 0-.21 2.23c.2 1.36.33 2.33.35 2.9.06 1.26-.15 2.48-.26 3.71.02-.01.02.02 0 .09h-.26l.25-2.99c.04-.56.03-1.05-.02-1.45a14.9 14.9 0 0 1-.11-4.48c.17-1.13.52-2.47 1.03-4.01.02-.05 0-.1-.03-.13-.32-.29-.65-.86-.5-1.26a.56.56 0 0 0 0-.4.5.5 0 0 0-.26-.3c-.39-.15-.79-.32-.88-.7-.06-.25.13-.55.23-.8a.42.42 0 0 0-.17-.5c-.48-.3-.87-.7-.48-1.27a.3.3 0 0 0 .06-.17v-1.2a.1.1 0 0 0-.03-.08l-.32-.32a.16.16 0 0 1-.05-.14c0-.09.04-.32.12-.7.07-.36-.23-.64-.31-1.01-.06-.3.21-.62.39-.8.04-.05.1-.2.16-.45a.85.85 0 0 0-.03-.42c-.11-.42-.1-.91.47-.9.05 0 .09-.03.12-.08.32-.6.2-.94.29-1.52a.38.38 0 0 1 .29-.3h.15l.18.03a.28.28 0 0 0 .27-.1.28.28 0 0 0 .03-.3c-.33-.69-.18-1.36.69-1.33.1 0 .2-.03.27-.1a.4.4 0 0 0 .14-.25c.06-.58.05-1.08.75-1.18.05 0 .1 0 .15.02.24.1.43.04.57-.18.03-.04.05-.1.04-.15-.03-.48.37-1 .85-1 .06 0 .1.02.15.05.06.04.12.04.2.01.18-.08.53-.33.6-.58.15-.42.5-.84.95-.43.04.03.08.04.13.03.31-.1.53-.27.65-.5.14-.26.23-.4.27-.44.15-.12.33-.11.56.03a.44.44 0 0 0 .44 0 .98.98 0 0 0 .35-.3c.33-.46.88-.6 1.28-.13a.15.15 0 0 0 .13.04.15.15 0 0 0 .11-.07c.14-.25.25-.45.52-.58.4-.2.71-.1.93.32a.28.28 0 0 0 .2.15.28.28 0 0 0 .23-.06c.18-.16.35-.42.6-.5.33-.1.57-.02.73.26a.4.4 0 0 0 .34.2.4.4 0 0 0 .35-.2.91.91 0 0 1 .4-.36.2.2 0 0 1 .16-.01c.29.08.5.26.66.53.03.05.07.09.12.12.12.07.28.11.46.12.84.02 1.71.2 2.61.5.27.1.54.08.8-.07a.46.46 0 0 1 .6.14c.19.27.47.45.84.53.05.01.1 0 .14-.02.38-.22.67-.12.87.28.07.15.27.3.6.45.05.03.1.02.14 0 .42-.28.75-.23 1 .15l.14.38c.06.18.22.28.49.3.52 0 .85.28.98.8.02.06.05.1.1.11.52.14 1.04.6.86 1.13-.02.06 0 .11.06.13.62.24.86.64.73 1.21-.03.1.01.17.12.19.4.07.64.29.7.64.04.26-.17.45-.38.6a.2.2 0 0 0-.08.2.2.2 0 0 0 .13.16c.5.2 1.26.6.67 1.24a.67.67 0 0 0-.18.29c-.03.16.03.27.17.34.37.19.53.47.47.85 0 .03-.09.2-.24.52-.38.74.41.86.25 1.4-.05.18-.24.25-.35.33-.06.04-.09.08-.09.13v.6a.17.17 0 0 0 .07.14c.26.21.62.69.4 1-.03.06-.15.12-.35.2-.25.1-.38.29-.41.58-.01.14.01.29.08.45.16.38.39 1.03-.3 1.03a.28.28 0 0 0-.15.03.26.26 0 0 0-.1.12c-.16.33-.16.66.02 1 .03.05.04.1.03.15-.05.33-.24.49-.58.49a.18.18 0 0 0-.14.06c-.26.3-.37.64-.33 1 .03.29.02.47-.02.55-.1.2-.3.28-.62.25-.06 0-.1.01-.15.04a.75.75 0 0 0-.24.29.23.23 0 0 0-.01.15c.1.46-.05 1.26-.69 1.08a.17.17 0 0 0-.15.03c-.36.28-.57.58-.63.93-.06.41-.29.6-.7.48-.1-.03-.16 0-.2.1a3.59 3.59 0 0 1-1.24 1.6l-1.25 1a.77.77 0 0 0-.2.33c-.28.88-.64 1.8-1.1 2.77a4.39 4.39 0 0 0-.35 1.85L34.12 45Z" fill="#010202"/><path d="M41.26 27.25c.02.13.1.22.22.25l-.08.01a.1.1 0 0 0-.02.05v.05a.13.13 0 0 0 .07.08c.36.2.7.36 1.04.49.1.04.15.15.15.27l-.34.95-.45-.33-.7-.4h-.02a.21.21 0 0 0-.18 0c-.06.03-.1.01-.1-.06v-.1c.1-.15.14-.35.14-.58.1-.71.23-1.34.49-2.06.08-.23.14-.57.19-1.01.01-.14-.04-.33-.16-.57-.12-.27-.18-.6-.23-.89a3.76 3.76 0 0 0-1.06-2.12c-.14-.14-.2-.1-.18.08.03.44.05.73.08.88 0 .05 0 .08-.03.11-.05.05-.08.05-.1-.02a1.3 1.3 0 0 1-.1-.37c-.03-.28-.09-.3-.2-.04l-.05.29-.88 1.82a.11.11 0 0 1-.13.05.12.12 0 0 1-.05-.02l-.12-.13c-.08-.07-.1-.06-.1.04.01.09.04.17.1.27.48.4.2.78-.11 1.17-.04.04-.07.04-.11.01l-.3-.25a.23.23 0 0 0-.17-.05c-.3.01-.47-.2-.64-.42a2.06 2.06 0 0 0-.18-.21c-.05-.05-.07-.04-.06.03l.04.34c0 .02 0 .03-.02.04l-.04.02c-.04.01-.08 0-.1-.05a6.02 6.02 0 0 0-1.45-1.83c-.21-.21-.42-.35-.62-.43a3.15 3.15 0 0 0-.37-1.22 4.3 4.3 0 0 0-.46-.7.18.18 0 0 1-.03-.2c.02-.05.06-.07.11-.04.1.05.19.16.28.28.08.11.17.23.28.3l.22.18c.33.25.55.41.93.52.25.07.4.15.5.24.32.34.66.57 1 .68.17.05.2 0 .12-.15l-.19-.29c-.26-.34-.2-.4.17-.17.1.06.23.18.4.34a.1.1 0 0 0 .05.03h.05c.06-.02.07-.05.05-.1-.15-.3-.2-.68-.19-1.12 0-.06.04-.1.1-.1l.24-.03a.1.1 0 0 0 .06-.04.1.1 0 0 0 .02-.07c-.01-.08-.05-.1-.11-.09a.36.36 0 0 1-.02-.15c0-.05.03-.09.08-.12a.7.7 0 0 1 .37-.13c.01 0 .03 0 .04-.02a.08.08 0 0 0 .03-.08.08.08 0 0 0-.02-.04.2.2 0 0 1-.06-.16c0-.04.02-.08.06-.14.1-.13.19-.28.24-.45.02-.05.05-.1.1-.12a.2.2 0 0 1 .14-.02c.09.02.2-.01.36-.09a3 3 0 0 1 1.3.96c.09.1.14.1.16-.05l.02-.1a.55.55 0 0 0-.08-.4c-.04-.07-.1-.17-.14-.27-.1-.2-.22-.44-.35-.54a.57.57 0 0 0-.35-.12h-.34c-.7-.1-1.2-.4-1.47-.86.12-.25 0-.35-.13-.47l-.15-.16c-.04-.06-.03-.08.05-.07l.46.04c.1.01.1 0 .02-.06L37.8 17c-.1-.05-.23-.14-.38-.27a1.33 1.33 0 0 0-.7-.32c-2.7.35-3.72.55-4.05.65-.01-.02-.05-.05-.14-.08a6.11 6.11 0 0 1 .01.15v.16c.04.51.06 1.03.49 1.43 0-.03.02-.02.05.03l.1.38a.69.69 0 0 1-.54-.1.12.12 0 0 0-.14 0c-.08.05-.13.14-.16.26a.1.1 0 0 1-.12.08 3.44 3.44 0 0 1-.61-.67c-.1-.15-.15-.14-.15.05v.49a.31.31 0 0 1-.28.3c-.43.05-.77.11-1 .2-.35.13-.67.11-1.02.1-.17-.01-.34-.02-.51-.01-.22 0-.48 0-.79-.02a4.02 4.02 0 0 0-1.21.06c-.68.18-1.15.27-1.4.27-.13 0-.37-.07-.72-.22-.06-.02-.07-.06-.05-.11.08-.18.11-.39.1-.62 0-.06.02-.1.06-.15l.34-.35c.05-.04.04-.08-.02-.1l-.07-.04a.07.07 0 0 0-.09.02c-.16.22-.36.4-.58.52a.22.22 0 0 1-.3-.1.23.23 0 0 1-.02-.13l.2-1.33a.1.1 0 0 0-.08-.12.1.1 0 0 0-.06 0c-.06.03-.1.02-.12-.02-.02-.02-.02-.06-.01-.11-.34.11-2.34-1.29-3-1.92a.15.15 0 0 0-.15.05.6.6 0 0 1-.33.19c-.05 0-.08.03-.08.09v.06c0 .03.02.05.04.05l.06.01c.06.02.07.05.03.08l-.07.01-.4.05c-.05.01-.06.04-.03.08l.43.7c.03.05.07.08.12.1.26.09.35.19.28.3-.26.03-.49.05-.73-.06-.15-.07-.31-.1-.49-.1-.1 0-.11.03-.02.08l.34.22c.06.03.06.07 0 .1a.68.68 0 0 1-.2.05.14.14 0 0 0-.11.08c-.13.25-.47.44-.76.6l-.24.14c-.15.1-.14.14.03.14.04 0 .1-.01.18-.04a.07.07 0 0 1 .07 0 .07.07 0 0 1 .03.06v.06a.07.07 0 0 1-.03.07l-.44.26c-.06.13-.1.27-.15.42-.05.18-.1.31-.16.4-.1.14-.19.29-.27.43-.13.22-.25.43-.43.62a6.33 6.33 0 0 1-2.31 1.62.2.2 0 0 0-.11.1l-.5 1.06c-.3-.3-.32-.55-.09-.76.5-.43.6-.95.33-1.55a.28.28 0 0 1 .18-.38H15l.13.04a.1.1 0 0 0 .12-.06l.4-1.04.44-.17a.16.16 0 0 0 .1-.11.46.46 0 0 0-.06-.39c.21-.16.36-.36.45-.6a.18.18 0 0 0 0-.15l-.19-.43c-.1-.41.15-.72.57-.64l.2.03c.06 0 .1-.02.13-.07l.37-.54a.13.13 0 0 0 .02-.08c-.02-.24 0-.42.03-.55a.48.48 0 0 1 .4-.35c.07 0 .14 0 .2.02l.22.06c.05.02.1.01.16-.03l.4-.31a.17.17 0 0 0 .07-.13v-.06c0-.41 0-.74.48-.87.09-.02.15-.02.19.01a.7.7 0 0 1 .07.07.11.11 0 0 0 .14.01c.13-.07.33-.2.61-.41.16-.12.22-.27.3-.44.03-.09.06-.17.11-.26a.25.25 0 0 1 .3-.11c.11.04.18.13.21.27a.08.08 0 0 0 .12.05l.84-.54a.14.14 0 0 0 .06-.08l.1-.35a.28.28 0 0 1 .2-.19.27.27 0 0 1 .25.06c.2.19.52.07.78-.03l.08-.03a.18.18 0 0 0 .1-.1c.16-.33.79-.82 1.01-.28.02.05.06.08.12.1.2.05.4.06.57.02a2.4 2.4 0 0 0 1-.22c.16.05.34.06.53.05.23 0 .33-.15.44-.3.08-.1.17-.22.3-.3.32-.17.53.04.53.39 0 .07.04.1.11.1h.7c.06 0 .1-.02.13-.08l.16-.32a.33.33 0 0 1 .22-.17.32.32 0 0 1 .27.05c.15.11.27.28.37.5.02.04.06.07.12.09.21.06.63.14.93.15.72.02 1.27.18 1.89.35l.58.17c.15.03.38-.02.7-.17.05-.03.1-.04.16-.03.12.02.2.1.2.26a.15.15 0 0 0 .09.12l.77.39c.06.03.13.03.2 0l.38-.16a.16.16 0 0 1 .15.01.6.6 0 0 1 .2.27.3.3 0 0 0 .09.12l.59.47c.05.04.1.05.15.02l.33-.16c.43-.21.72.07.61.52-.01.05 0 .1.05.14.19.15.4.24.63.27.29.03.46.06.5.09.18.08.3.23.35.42.02.1 0 .17-.1.21-.06.04-.1.08-.08.11a.2.2 0 0 1 .01.05c0 .03.02.06.06.07a.3.3 0 0 0 .11 0 2.06 2.06 0 0 0-.77.33.08.08 0 0 0 0 .06V16l.4.51a.1.1 0 0 0 .12.04c.27-.09.52-.22.74-.4a.08.08 0 0 1 .1 0c.19.13.34.16.44.1a.78.78 0 0 1-.25.32c-.49.2-.6.32-.33.34-.34.15-.43.44-.29.88a.24.24 0 0 0 .18.17.24.24 0 0 0 .22-.07c.23-.25.52-.42.9-.5a.12.12 0 0 1 .11.04c.02.01.03.03.03.06v.06c-.06.2-.01.27.14.22-.2.2-.21.35-.04.46-.21.2-.44.36-.68.44-.17.07-.25.19-.23.38v.03c.01.21.12.27.3.2l.81-.36a.14.14 0 0 1 .13 0l.24.13a.44.44 0 0 0-.13.23c-.14 0-.23.02-.27.07-.2.23-.44.4-.74.52-.05.02-.08.06-.07.12l.06.58c.01.07.05.1.12.1.36-.02.7-.1 1.06-.22.35-.13.57-.05.66.25-.23.22-.28.5-.15.84-.57-.05-1.1.04-1.62.26-.24.1-.25.24-.04.4l.09.06a.52.52 0 0 0 .46.07c.43-.14 1.12-.35 1.5-.22.05.01.1 0 .13-.04.04-.03.06-.09.06-.16.1.35-.02.5-.15.68l-.15.24c-.18.37-.1.67.22.92a.31.31 0 0 1 .09.39.31.31 0 0 1-.1.1l-.24.2a.17.17 0 0 0-.06.12l-.03.8-1.25-.08c-.1 0-.16.04-.17.14l-.07.43c-.02.12.03.17.15.16.53-.02 1.1.1 1.71.37-.23 0-.38.05-.45.13l-1.22-.1c-.27-.03-.3.04-.09.22.04.02.05.1.04.22 0 .07-.04.1-.11.1l-.16-.03a.28.28 0 0 0-.32.2.29.29 0 0 0 0 .13Z" fill="#E0AF62"/><path d="M21.9 15.2c-.02.16-.13.13-.3-.1l-.35-.45c-.04-.06-.03-.07.03-.03.24.15.45.35.62.59Z" fill="#4E4638"/><path d="M21.47 15.22c.4.31.74.65 1 1.02.02.03.03.06.02.1 0 .06-.03.07-.08.03-.22-.2-.42-.42-.58-.65a.62.62 0 0 0-.4-.23l-.78-.58v-.01a.03.03 0 0 1 0-.04.13.13 0 0 1 .03-.03h.04c.27.09.52.22.75.4Z" fill="#010202"/><path d="m21.9 15.2.55.45c.05.03.08.07.1.12.12.24.26.4.43.47a.9.9 0 0 1 .2.42c.02.11.07.12.12.02.02-.03.02-.09.02-.18l.18-.12.1.1c.05.05.07.04.07-.03v-.07c.18.3.23.6.17.9v.12c.03.04.07.05.13.03a.1.1 0 0 1 .14.06.1.1 0 0 1 0 .05l-.2 1.33a.23.23 0 0 0 .09.22.22.22 0 0 0 .23.01c.22-.12.42-.3.58-.52a.08.08 0 0 1 .1-.02l.06.03c.06.03.07.07.02.11l-.34.35a.19.19 0 0 0-.06.15c.01.23-.02.44-.1.62-.02.05 0 .09.05.11.35.15.6.23.72.22.25 0 .72-.09 1.4-.27.27-.07.68-.1 1.21-.06.3.02.57.03.79.02.54-.03 1.02.1 1.53-.1.23-.08.57-.14 1-.18a.3.3 0 0 0 .28-.31v-.5c0-.18.05-.2.15-.03a3.45 3.45 0 0 0 .61.66.1.1 0 0 0 .1-.03.1.1 0 0 0 .02-.05c.03-.12.08-.2.16-.26.05-.03.1-.03.14 0 .18.1.35.14.54.1.04.15.15.41.32.77.04.1.09.14.15.15.05.01.08-.01.09-.07l.03-.26c0-.07.03-.08.08-.02.18.2.41.1.52.52.02.08.07.14.14.18l1.95.98c.02.01.02-.01.02-.07l-.01-.06c-.02-.05 0-.08.06-.08h.44c.04 0 .09-.01.13-.04.23-.13.48-.2.75-.17.04 0 .06-.01.07-.05v-.06c.06-.01.1.01.11.09a.1.1 0 0 1-.05.1.1.1 0 0 1-.03.01l-.24.03c-.07 0-.1.04-.1.1-.02.44.04.81.19 1.12.02.05.01.08-.05.1h-.05a.1.1 0 0 1-.05-.03c-.17-.16-.3-.28-.4-.34-.37-.23-.43-.17-.17.17l.19.3c.09.14.05.19-.11.14-.35-.1-.7-.34-1.02-.68a1.09 1.09 0 0 0-.49-.24c-.46-.13-.69-.35-1.15-.7-.23-.16-.36-.49-.56-.58-.05-.03-.09-.01-.1.04a.18.18 0 0 0 .02.2c.17.2.33.44.46.7.2.38.33.79.37 1.22l-.62-.73a.17.17 0 0 0-.13-.07l-.37-.02a1.84 1.84 0 0 0-.81-1 .14.14 0 0 0-.15-.01c-.27.14-.51.09-.71-.16a.16.16 0 0 0-.08-.06.28.28 0 0 0-.08-.01c-.05 0-.08.02-.1.08-.02.13-.05.21-.08.23-.05.04-.09.04-.13-.01-.1-.14-.2-.16-.32-.09a.34.34 0 0 1-.15.06l-.56.07a.14.14 0 0 1-.1-.04l-.16-.12c-.06-.05-.1-.04-.13.05a.44.44 0 0 1-.08.18c-.04.04-.08.04-.12 0l-.4-.32c-.08-.06-.12-.04-.12.06v.23c0 .07-.03.1-.1.1-.27.01-.3-.2-.62-.06-.18.08-.24.03-.18-.14.04-.08-.02-.18-.15-.3-.07-.05-.1-.03-.09.05l.04.32-.01.04a.1.1 0 0 1-.08.05.1.1 0 0 1-.1-.04l-.19-.24c0-.02-.03-.03-.05-.02a.12.12 0 0 0-.04.02.08.08 0 0 0-.02.09c.1.25.07.43-.08.53-.07.04-.1.02-.1-.06.01-.14-.01-.24-.08-.3-.04-.03-.09-.03-.14 0-.09.07-.28.5-.53.43-.07-.02-.09-.06-.07-.12.03-.1.07-.18.13-.24.14-.16.11-.2-.08-.11-.16.07-.32.16-.48.26-.24.16-.31.1-.21-.17l.06-.1c.04-.09.03-.1-.05-.06-.15.1-.3.23-.44.38-.1.11-.2.17-.32.17a.08.08 0 0 1-.05-.02.08.08 0 0 1-.03-.06v-.12c0-.07-.03-.08-.08-.05l-.65.42c-.16.1-.2.07-.11-.1l.12-.25v-.05c-.02-.02-.04-.03-.07-.03a.15.15 0 0 0-.1.03c-.26.2-.47.35-.64.42-.03.02-.07 0-.1-.03a.1.1 0 0 1-.01-.06c0-.03.02-.05.06-.08.09-.07.14-.12.14-.15.07-.26 0-.3-.2-.12-.17.15-.34.27-.5.36l-1.47 1.62a.2.2 0 0 1-.13.06c-.27.02-.52.12-.74.3a.12.12 0 0 1-.13 0 .33.33 0 0 1-.12-.09.27.27 0 0 0-.13-.09 2.88 2.88 0 0 1-1.06-.43c-.38-.31-1.16-1.27-1.02-1.89a.09.09 0 0 0-.01-.07.09.09 0 0 0-.08-.03c-.5.05-.83.34-1.34.75-.42.34-.6.83-.92 1.22-.15.19-.33.23-.47.38a.34.34 0 0 0-.08.13c-.14.43-.4.7-.8.81 0-.25-.04-.5-.16-.74l.5-1.06a.2.2 0 0 1 .1-.1 6.33 6.33 0 0 0 2.32-1.62c.3-.31.44-.68.7-1.06.06-.08.11-.21.16-.4l.15-.4c0 .06.05.1.15.1.06.02.07.05.04.1-.08.14-.04.23.1.28.12.05.23.11.33.2.04.03.05.08.04.13-.08.35-.06.71.04 1.08l-.07.08-.16-.11a.07.07 0 0 0-.1.02v.04l.08.76c0 .04 0 .08-.03.12a.15.15 0 0 0-.02.13c.01.06.05.09.1.1.26.06.48.15.64.25.14.09.28.13.43.14.13 0 .28.03.44.08.05.01.1 0 .15-.01.2-.1.41-.11.63-.06a.32.32 0 0 0 .35-.15.82.82 0 0 1 .43-.37c.47-.2.79-.46.95-.75.2-.34.4-.66.61-.96.19-.27.14-.67-.12-.9l-.43-.46a.2.2 0 0 0-.13-.06c-.5-.04-.86-.2-1.08-.48a4.46 4.46 0 0 0-1-.97c.07-.11-.02-.21-.28-.3a.22.22 0 0 1-.12-.1l-.43-.7c-.03-.04-.02-.07.03-.08a3.08 3.08 0 0 1 .47-.06c.04-.03.03-.06-.03-.08h-.06c-.02-.01-.04-.03-.04-.06v-.06c0-.06.03-.08.08-.1a.6.6 0 0 0 .33-.18.15.15 0 0 1 .14-.05l.6.12c.18.04.3.11.4.23.16.23.36.45.58.65.05.04.08.03.08-.04 0-.03 0-.06-.02-.09-.26-.37-.6-.7-1-1.02.07 0 .11-.04.12-.11.18.22.29.25.31.1Z" fill="#C38830"/><path d="M41.27 16.24c-.1.07-.25.04-.45-.1a.08.08 0 0 0-.04 0l-.05.01c-.22.18-.47.31-.74.4a.1.1 0 0 1-.13-.04l-.38-.51a.08.08 0 0 1 .02-.12c.24-.15.5-.25.78-.3.57-.1.9.12 1 .66Z" fill="#FCEA7E"/><path d="M20.9 16.08a.11.11 0 0 0-.03-.06c-.03-.03-.03-.07 0-.1a.08.08 0 0 1 .07-.02c.2.05.35.07.46.08.36.02.56.29.73.54l.02.08c.06.26-.03.36-.24.28-.02 0-.06-.05-.1-.12a.27.27 0 0 0-.1-.07.18.18 0 0 0-.1-.02c-.28.04-.5-.04-.66-.22a.27.27 0 0 0-.13-.1 4 4 0 0 0-.27-.08c-.28-.06-.28-.14 0-.22.05-.01.14.02.28.09.06.03.08 0 .07-.06Z" fill="#010202"/><path d="M34.71 14.53c.05-.06.08-.04.08.03v.07c.01.06.04.09.09.1l.39.12c.05.02.1.02.14 0 .12-.05.21-.03.27.05l.24.37c.03.05.07.08.12.11l.63.35h.05c.02-.02.01-.04-.01-.05a4.2 4.2 0 0 0-.53-.33c-.03-.02-.03-.03.01-.03h.07l.43.26c.06.03.1.07.13.13l.3.53c.03.05.02.07-.03.07a.5.5 0 0 1-.36-.17.22.22 0 0 0-.14-.07.57.57 0 0 0-.2.01c.18 0 .3.12.34.34l-.4.03a.13.13 0 0 1-.12-.06c-.1-.17-.25-.2-.43-.12-.34.11-.66.27-.95.47-.22.15-.47.4-.73.75-.2.28-.45.6-.72.93-.03.04-.08.05-.13.02a.29.29 0 0 0-.04-.02c-.05-.03-.08-.01-.1.04-.02.1-.03.2-.02.3-.03-.05-.05-.06-.05-.03-.98-.91-.52-1.92-.9-3.05-.2-.62-.1-1.34-.2-2 0-.02.01-.03.03-.04.03 0 .04 0 .05.03.64 3.38.97 2.6 2.7.86Z" fill="#A46B25"/><path d="M36.73 16.42c.28.04.52.15.7.32.15.13.28.23.38.27l.44.23c.08.05.07.07-.02.06l-.46-.04c-.08-.01-.1.01-.05.07.16.22.44.28.28.63a.23.23 0 0 1-.15.04.15.15 0 0 1-.1-.06c-.42-.51-1.14-1.02-1.81-.8-.12.04-.12.07 0 .1.83.13 1.43.58 1.78 1.34.15.32.15.61.2 1.08.02.25-.02.45-.13.6-.32.45-1.01.4-1.66.4a.27.27 0 0 1-.15-.03 1 1 0 0 0-.46-.14c-.08 0-.1.02-.03.08.55.53 1.28.44 1.95.2.18-.07.3-.24.46-.39.4-.36.61-.74.58-1.32 0-.05.02-.08.07-.07.33.06.56.17.7.35-.15.08-.27.1-.36.09a.2.2 0 0 0-.14.02.22.22 0 0 0-.1.12 1.5 1.5 0 0 1-.24.45c-.04.06-.06.1-.06.14 0 .06.01.11.06.16a.08.08 0 0 1 .02.09.08.08 0 0 1-.07.05.7.7 0 0 0-.37.13c-.05.03-.08.07-.08.12 0 .05 0 .1.02.15v.06c0 .04-.03.06-.07.05a1.2 1.2 0 0 0-.75.17.26.26 0 0 1-.13.04h-.44c-.06 0-.08.03-.06.08l.01.06c0 .06 0 .08-.02.07l-1.95-.98a.26.26 0 0 1-.14-.18c-.1-.42-.34-.32-.52-.52-.05-.06-.07-.05-.08.02l-.03.26c-.01.06-.04.08-.1.07-.05 0-.1-.06-.14-.14a6.73 6.73 0 0 1-.32-.78l-.1-.38c-.01-.1 0-.2.03-.3.01-.05.04-.07.09-.04a.3.3 0 0 1 .04.02c.05.03.1.02.13-.02l.72-.93c.26-.35.5-.6.73-.75.3-.2.61-.36.95-.47.18-.08.32-.05.43.12.03.04.07.06.13.06l.39-.03Z" fill="#010202"/><path d="M41.02 16.57c0 .08.06.13.15.14l-.48.2c-.27-.02-.16-.14.33-.34Z" fill="#C38830"/><path d="M41.17 16.71c.75.17 1.02.52.8 1.06-.14.05-.19-.02-.13-.22a.13.13 0 0 0-.03-.12.13.13 0 0 0-.12-.04c-.37.08-.66.25-.89.5a.24.24 0 0 1-.33 0 .24.24 0 0 1-.07-.1c-.14-.44-.05-.73.29-.88l.48-.2Z" fill="#FCEA7E"/><path d="M20.74 17.14c.29.18.62.5 1 .97.22.28.58.44 1.08.48.05 0 .1.02.13.06l.43.46c.26.23.3.63.12.9-.21.3-.42.62-.6.96-.17.3-.49.54-.96.75a.82.82 0 0 0-.43.37.33.33 0 0 1-.35.15.96.96 0 0 0-.63.06.22.22 0 0 1-.15 0c-.16-.04-.3-.06-.44-.07a.85.85 0 0 1-.43-.14 2.1 2.1 0 0 0-.64-.25.14.14 0 0 1-.1-.1c-.02-.05-.01-.1.02-.13a.16.16 0 0 0 .03-.12l-.09-.76a.07.07 0 0 1 .04-.07.07.07 0 0 1 .07 0l.16.12c.13.43.41.69.84.76.34.06.71.11 1.05-.06.01 0 .02-.02.01-.05 0-.03-.03-.05-.06-.04-.79.17-1.38-.05-1.77-.69-.1-.37-.12-.73-.04-1.08.01-.05 0-.1-.04-.13-.1-.09-.2-.15-.33-.2-.14-.05-.18-.14-.1-.28.03-.05.02-.08-.04-.1-.1 0-.15-.04-.15-.1l.44-.27a.07.07 0 0 0 .04-.07l-.01-.06a.07.07 0 0 0-.03-.05.07.07 0 0 0-.07-.01.66.66 0 0 1-.18.04c-.17 0-.18-.04-.03-.14.3-.19.83-.41 1-.74a.14.14 0 0 1 .1-.08.68.68 0 0 0 .21-.05c.06-.03.06-.07 0-.1l-.34-.22c-.1-.05-.09-.08.02-.08.18 0 .34.03.49.1.24.11.47.09.73.06Z" fill="#010202"/><path d="M38 17.96c.27.46.76.75 1.47.86h.34c.12 0 .24.04.35.12.2.15.35.59.5.81.07.12.1.25.07.4l-.01.1c-.03.14-.08.16-.17.05a3 3 0 0 0-1.3-.96c-.14-.18-.37-.3-.7-.35-.05 0-.07.02-.07.07.03.58-.17.96-.58 1.32-.17.15-.28.32-.46.39-.67.24-1.4.33-1.95-.2-.06-.06-.05-.08.03-.08a1 1 0 0 1 .46.14c.05.02.1.04.15.04.65-.01 1.34.04 1.66-.42.1-.14.15-.34.12-.6-.04-.46-.04-.75-.19-1.07a2.27 2.27 0 0 0-1.77-1.35c-.13-.02-.13-.05-.01-.09.67-.22 1.4.29 1.8.8a.15.15 0 0 0 .1.06c.07 0 .12 0 .16-.04Z" fill="#A46B25"/><path d="M36.32 17.96c.13.06.27.04.3-.05.04-.08-.04-.2-.17-.25-.14-.06-.27-.03-.3.05-.04.09.04.2.17.25Z" fill="#CAC2AD"/><path d="M20.34 18.28c-.16.09-.33.2-.5.32-.21.14-.25.1-.12-.11.28-.45.68-.62 1.22-.52.05.01.08.05.08.1 0 .06-.02.08-.08.09-.23.02-.44.02-.6.12Z" fill="#4E4638"/><path d="m42.5 19.05-.23-.12a.14.14 0 0 0-.13 0l-.8.34c-.2.08-.3.02-.31-.19v-.03c-.02-.19.06-.31.23-.38.24-.08.47-.23.68-.44.54-.22 1.44.38.57.82Z" fill="#FCEA7E"/><path d="M21.14 18.57a.03.03 0 0 1 .05 0l.07.08a1.56 1.56 0 0 1 .2.27l.04.1-.01.06-.03.02c0 .01-.03.02-.06.01a.35.35 0 0 1-.1-.04 1.57 1.57 0 0 1-.25-.21l-.07-.08a.04.04 0 0 1 0-.05l.16-.16Z" fill="#ECE7D5"/><path d="M16.14 19.03c.08.12.1.25.05.39a.16.16 0 0 1-.1.1l-.43.19a2.17 2.17 0 0 1-.06-.7.17.17 0 0 1 .17-.16c.11 0 .24.06.37.18Z" fill="#DCC194"/><path d="m36.48 20.32-1.44-.45.23-.07c.06-.02.07-.06.04-.1a.17.17 0 0 0-.05-.06.09.09 0 0 1-.02-.12c.1-.14.22-.2.35-.16.58.19 1.14.1 1.66-.24a.24.24 0 0 1 .36.14c.06.23.06.47-.12.7-.2.23-.33.37-.4.4-.27.1-.47.09-.6-.04Z" fill="#16292D"/><path d="m42.38 19.28.05.37c.01.07.04.1.1.12.42.12.71.15.87.54a.2.2 0 0 1 0 .15.54.54 0 0 1-.2.24c-.1-.3-.31-.38-.66-.25-.35.13-.7.2-1.06.22-.07 0-.1-.03-.12-.1L41.3 20c0-.06.02-.1.07-.12.3-.11.55-.29.74-.52.04-.05.13-.08.27-.07Z" fill="#FCEA7E"/><path d="m35.04 19.87 1.44.45c-.36.11-.75.07-1.18-.15a2.13 2.13 0 0 1-.54-.4v-.05h.04l.24.15Z" fill="#C5A77D"/><path d="M21.71 20.42c-.47.28-.8.41-.96.4-.3-.03-.47.04-.52.22-.58.1-.88-.16-.92-.78a.32.32 0 0 1 .16-.3.32.32 0 0 1 .33.01c.23.15.35.24.7.22.45-.03.85.05 1.21.23Z" fill="#16292D"/><path d="M21.71 20.42c-.16.63-.88.64-1.48.62.05-.18.22-.25.52-.23.17.02.49-.11.96-.4Z" fill="#C5A77D"/><path d="M33.58 21.79a1.74 1.74 0 0 0 .86.76.06.06 0 0 1 0 .06l-.01.02-1.2.93a.18.18 0 0 0-.07.17l.16 1.01a7.28 7.28 0 0 0-3.03-.95c-1.7-.14-3.41 0-5.14.4-1.12.26-2.1.85-2.96 1.77-.11-.4-.31-.72-.6-.95-.28-.24-.45-.44-.32-.79.17-.44.46-.9.9-1.37l.92-1.33c.17-.1.34-.21.5-.36.2-.18.28-.14.21.12 0 .03-.05.08-.14.15-.04.03-.06.05-.06.08 0 .02 0 .04.02.06.02.04.06.05.1.03.16-.07.37-.21.64-.42a.15.15 0 0 1 .09-.03c.03 0 .05.01.07.03v.05l-.12.25c-.09.17-.05.2.1.1l.66-.42c.05-.03.08-.02.08.05v.12a.08.08 0 0 0 .08.08c.11 0 .22-.06.32-.17.15-.15.3-.28.44-.38.08-.05.1-.03.05.05l-.06.11c-.1.27-.03.33.21.17.16-.1.32-.19.48-.26.2-.08.22-.05.08.1a.58.58 0 0 0-.13.25c-.02.06 0 .1.07.12.25.06.44-.36.53-.42.05-.04.1-.04.14 0 .07.05.1.15.08.3 0 .07.03.1.1.05.15-.1.18-.28.08-.53a.08.08 0 0 1 .02-.09.11.11 0 0 1 .04-.02c.02 0 .04 0 .05.02l.19.24a.1.1 0 0 0 .1.04.1.1 0 0 0 .08-.05v-.04l-.03-.32c0-.08.02-.1.09-.05.13.12.19.22.15.3-.06.17 0 .22.18.14.32-.13.35.07.62.07.07 0 .1-.04.1-.11v-.23c0-.1.04-.12.12-.06l.4.33c.04.03.08.03.12 0 .03-.03.06-.1.08-.2.02-.07.07-.09.13-.04l.15.12a.14.14 0 0 0 .1.04l.57-.07c.05 0 .1-.02.15-.06.11-.07.22-.05.32.09.04.05.08.05.13.01.03-.02.06-.1.09-.23 0-.06.04-.08.1-.08l.07.01c.03.01.06.03.08.06.2.25.44.3.71.16.05-.03.1-.03.15 0 .38.22.65.56.81 1Z" fill="#FEFBE7"/><path d="m19 20.78.07-.08c.4.64.98.86 1.77.7.03-.02.05 0 .06.03l-.01.05c-.34.17-.7.12-1.05.06-.42-.07-.7-.33-.84-.76Z" fill="#4E4638"/><path d="M40.99 27.93c0 .23-.05.43-.14.58-.14.32-.3.61-.48.9-.08.11-.13.24-.17.37l-.1.41-.14.4a.66.66 0 0 0-.06.31l-.14.33-.4 1.17-.35 1.22a.1.1 0 0 0 .07.12l.06.02c.07.02.12 0 .13-.08.01-.07.07-.1.17-.09h.1c.04.02.06.06.07.13-.14.19-.23.33-.43.5-.18.16-.25.38-.22.66a.15.15 0 0 1-.06.13.51.51 0 0 1-.29.1c-.09.01-.13-.03-.1-.12.2-1.05.35-1.98.05-3.11.07-.38-.08-.72-.06-1.03.02-.4.02-1.08-.22-1.4a1.8 1.8 0 0 1-.16-.23.27.27 0 0 1-.03-.15l.05-.49c0-.08-.01-.14-.05-.18-.06-.07-.13-.08-.22-.02a.08.08 0 0 1-.08 0 .08.08 0 0 1-.04-.08c.04-.29.05-.4-.1-.66a2.6 2.6 0 0 1-.28-1.06c-.03-.3-.16-.5-.4-.6a2 2 0 0 1-.59-.65 8.41 8.41 0 0 0-1.23-2.06c.02-.1.08-.17.17-.23.6.52 1.09 1.13 1.45 1.83.02.05.06.06.1.05a.1.1 0 0 0 .04-.02.04.04 0 0 0 .02-.04l-.04-.34c0-.07.01-.08.06-.03.24.23.4.65.82.63.06 0 .12.02.16.05l.3.25c.05.03.08.03.12-.01.31-.39.58-.77.11-1.18a.59.59 0 0 1-.1-.26c0-.1.02-.11.1-.04l.12.13a.12.12 0 0 0 .1.03.11.11 0 0 0 .08-.07l.88-1.81.06-.29c.1-.25.16-.24.18.04 0 .1.04.22.1.37.03.07.06.07.1.02.03-.03.04-.06.03-.11a14.3 14.3 0 0 1-.07-.88c-.02-.19.04-.21.18-.08.39.38.7.9.93 1.57.13.37.15.99.36 1.44.12.24.17.43.16.57-.05.44-.1.78-.2 1.01a10.4 10.4 0 0 0-.48 2.06Z" fill="#FEFBE7"/><path d="M43.05 21.54c.27.1.46.23.58.37 0 .07-.02.13-.06.16a.12.12 0 0 1-.13.04c-.38-.13-1.07.08-1.5.22a.52.52 0 0 1-.46-.07l-.09-.07c-.21-.15-.2-.28.04-.39a3.39 3.39 0 0 1 1.62-.26Z" fill="#FCEA7E"/><path d="M34.7 22.61c.2.08.4.22.62.43a.44.44 0 0 0-.17.23l-.12-.06c-.07-.04-.08-.03-.04.04.53.83 1 1.7 1.43 2.6.02.06.15.18.37.37.04.03.07.08.08.14.02.16.08.3.18.39.05.05.08.04.1-.03a.9.9 0 0 0-.18-.74c.24.1.37.3.4.6.04.46.14.81.28 1.06.15.25.14.37.1.66a.08.08 0 0 0 .04.07.08.08 0 0 0 .08 0c.09-.05.16-.04.22.03.04.04.05.1.05.18l-.05.49c0 .05 0 .1.03.15.04.08.1.16.16.24.24.3.24.98.22 1.39-.02.31.13.65.06 1.03-.05-.02-.07.05-.06.2-.18.06-.28.03-.3-.08a5.47 5.47 0 0 0-.06-.27c-.12-.32-.2-.31-.26.03l-.07.42c-.06.31-.34.58-.48.8-.22.33-.2.65-.17 1.04 0 .05.03.1.07.12.12.06.15.17.09.32-.27.72-.57 1.4-.9 2.04-.08.17-.29.17-.42.25-.35.22-.79.67-1.21.67-.88.01-1.71.15-2.5.41-.34.12-.63.13-1.08.19-.23.03-.4.11-.51.25l-1.08.2c-.22-.64-.04-1.07.52-1.3.26-.12.44-.21.54-.3l.47-.41c.2-.21.55-.43 1.04-.64.22-.1.43-.23.62-.4.34-.3.79-.6.7-.92 0-.05 0-.1.03-.15.1-.14.15-.3.14-.48.74-.8 1.3-1.71 1.67-2.75.5-1.4.08-2.67-.37-4.14a4.12 4.12 0 0 0-1.66-2.24l-.16-1a.19.19 0 0 1 .07-.18l1.2-.93.02-.02a.06.06 0 0 0-.03-.08c-.36-.15-.64-.4-.84-.74l.37.02c.06 0 .1.03.13.07l.62.73Z" fill="#ECE7D5"/><path d="M19.01 26.25c.24.15.4.36.48.62.01.05 0 .1-.02.15a5.42 5.42 0 0 0-.84 3.16l-.16 1.43c0 .03-.02.05-.05.05h-.04c-.04 0-.07-.01-.07-.06 0-.4-.13-.8-.36-1.15-.1-.14-.27-.27-.52-.38-.45-.2-.77-.57-.96-1.1a.21.21 0 0 0-.05-.08.3.3 0 0 1-.07-.1c-.06-.1-.08-.1-.07.04.02.16.03.31.03.47 0 .07-.03.1-.1.07a.15.15 0 0 0-.07-.01c-.03 0-.08-.04-.13-.13a3.51 3.51 0 0 1-.34-.81.21.21 0 0 0-.1-.13.23.23 0 0 0-.13-.05c-.03-.49-.3-.48-.63-.7a.34.34 0 0 1-.15-.31c.08-.02.14 0 .2.07.08.1.15.13.25.16a.11.11 0 0 0 .11-.04.11.11 0 0 0 .03-.11c-.1-.25-.12-.68-.35-.84-.1-.2-.11-.44-.05-.7.25-.6.57-1.12.97-1.56a6.57 6.57 0 0 0 1.15-1.6c.04-.05.07-.05.11 0 .02.02.02.06 0 .1-.08.31-.12.57-.12.79.01.12.07.3.18.54.12.24.17.5.13.76v.03l.06.13a.05.05 0 0 0 .05.03l.03-.01.02-.03.27-.9c0-.03.03-.03.07-.01l.04.03.02.04c-.02.48 0 .86.31 1.2l.33.33c.18.2.4.3.54.61Z" fill="#FEFBE7"/><path d="M22.16 22.85a4.4 4.4 0 0 0-.89 1.37c-.13.35.04.55.32.79.29.23.49.55.6.95-1.07 1.2-1.2 2.47-1.4 4.32-.07.71.11 1.52.55 2.41.09.26.1.53.06.81a.22.22 0 0 0 .05.18c.31.36.35.72.74 1.03.48.39.89.83 1.22 1.32.04.05.08.08.13.1.12.04.35.15.7.32.51.25 1.12.43 1.8.53.14.02.3.14.5.36.04.04.08.06.14.05a.7.7 0 0 1 .3.03.2.2 0 0 1 .1.1c.07.19.07.37 0 .56-.03.08-.15.22-.36.41-.29.01-.55-.05-.79-.17-.64-.25-1.3-.49-2-.71-.2-.07-.34-.01-.56-.12l-.99-.41a4.34 4.34 0 0 1-1.94-1.5c-.4-.55-.64-1.2-1.01-2-.27-.58-.7-.82-.7-1.57.01-.68.04-1.3.08-1.88 0-.16-.03-.18-.12-.04l-.06.1a5.42 5.42 0 0 1 .84-3.17c.03-.05.03-.1.02-.15a1.05 1.05 0 0 0-.48-.62.61.61 0 0 1 .23-.16.09.09 0 0 1 .12.08c0 .1.04.19.1.25.03.04.06.04.09 0l.54-.91.62-1c.12-.11.32-.36.59-.75.13-.18.41-.48.86-.9Z" fill="#ECE7D5"/><path d="m22.16 22.85.93-1.33-1.46 1.62c-.8.1-1.84.14-2.31-.25-.38-.31-1.16-1.27-1.02-1.89a.09.09 0 0 0-.09-.1c-.47.04-.78.3-1.22.66l-.12.1c-.26.2-.43.48-.6.75-.1.16-.2.32-.32.46-.08.1-.17.17-.27.22l-.2.16a.34.34 0 0 0-.08.13c-.14.43-.4.7-.8.81l-.12.52c-.01.06 0 .1.04.14.23.25.34.55.33.91.25-.6.57-1.11.97-1.55a6.55 6.55 0 0 0 1.15-1.6c.04-.05.07-.05.11 0 .02.02.02.06 0 .1-.08.31-.12.57-.12.79.01.12.07.3.19.54.11.24.16.5.12.76v.03l.06.13a.05.05 0 0 0 .05.03.05.05 0 0 0 .05-.04l.27-.9c0-.03.03-.03.07-.01l.04.03.02.04c-.02.48 0 .86.31 1.2a134.27 134.27 0 0 0 .5.49c.13.12.27.23.37.45a.61.61 0 0 1 .23-.16.09.09 0 0 1 .08.01.09.09 0 0 1 .04.07c0 .1.04.19.1.25.03.04.06.04.09 0l.54-.91.62-1c.12-.11.32-.36.59-.75.13-.18.41-.48.86-.9Z" fill="#E0AF62"/><path d="M35.15 23.27c.5.62.91 1.3 1.23 2.06a2 2 0 0 0 .6.65.9.9 0 0 1 .16.74c-.01.07-.04.08-.1.03a.66.66 0 0 1-.17-.4c0-.05-.04-.1-.08-.13-.22-.19-.35-.3-.37-.36-.42-.9-.9-1.78-1.43-2.61-.04-.07-.03-.08.04-.04l.12.06Z" fill="#DCC194"/><path d="M33.32 24.74c.82.56 1.37 1.3 1.66 2.24.45 1.47.86 2.74.37 4.14a7.76 7.76 0 0 1-1.67 2.75 8.27 8.27 0 0 1-5.24 2.79.18.18 0 0 0-.11.06.18.18 0 0 0-.04.12v1.67a.11.11 0 0 0 .07.1.1.1 0 0 0 .05 0l1.2-.14 1.09-.2c-.22.19-.48.31-.77.38a8.37 8.37 0 0 1-3.83-.03c-.22-.1-.28-.2-.17-.3.24.13.5.18.8.17l1.22.14a.09.09 0 0 0 .07-.03.09.09 0 0 0 .03-.06v-1.78l-.02-.04a8.34 8.34 0 0 1-6.69-4.03c-.44-.9-.62-1.7-.54-2.4.2-1.86.32-3.12 1.4-4.33a5.77 5.77 0 0 1 2.95-1.78c1.73-.4 3.45-.53 5.14-.39 1.07.1 2.08.41 3.03.95Z" fill="#010202"/><path d="M31.76 24.4a72 72 0 0 1-1.33 1.28c-.3.28-.62.45-.96.52-1.04.2-2.13.19-3.27-.02-.99-.18-1.98-.43-2.98-.75 1.36-.7 2.74-1.15 4.12-1.35.36-.05 1.07-.06 2.11-.03a8.5 8.5 0 0 1 2.3.36Z" fill="#4E4638"/><path d="M26.61 31.04c.23-.79-.03-1.45-.65-1.98-.9-.75-2.13-.68-2.88-1.09-.05-.02-.06-.05-.02-.09l.93-.93a.1.1 0 0 0 .02-.1.1.1 0 0 0-.08-.07l-1.44-.23a.06.06 0 0 1-.05-.03v-.06c.24-.45.5-.8.78-1.03 1 .32 2 .57 2.98.75 1.14.2 2.23.21 3.27.02.34-.07.66-.24.96-.52l1.33-1.27c.52.1 1.23.41 1.46.93.02.05.01.1-.02.15-.32.51-.28.85-.34 1.37-.02.23-.33.52-.58.64-1.29.62-2.52 1.2-2.88 2.66-.49 2.02 1.18 2.69 2.87 2.59.05 0 .09.02.1.07.1.24.08.41-.03.53-.23.23-.48.54-.76.68-1.76.89-3.42.85-5.44.81-.75-.01-1.7-.14-2.27-.58-1-.77-1.13-1.7-1.5-3.03-.08-.3.01-.36.27-.18.25.2.57.37.96.54 1.08.46 2.94-.3 3.01-.55Z" fill="#16292D"/><path d="M43.21 25.35c0 .11.05.19.12.23.55.35.63.62.25.8a3.77 3.77 0 0 0-1.71-.37c-.12.01-.17-.04-.15-.16l.07-.43c.01-.1.07-.15.17-.14l1.25.07Z" fill="#FCEA7E"/><path d="M14.66 27.23a.33.33 0 0 1 .04-.27c.1-.16.16-.32.2-.49.23.16.26.6.35.84a.11.11 0 0 1-.14.15.45.45 0 0 1-.25-.16c-.06-.07-.12-.1-.2-.07Z" fill="#C5A77D"/><path d="m42.9 27.3.22-.79-1.21-.1c-.27-.03-.3.04-.09.22.04.02.05.1.04.22 0 .07-.04.1-.11.1l-.16-.03a.28.28 0 0 0-.32.2.3.3 0 0 0 0 .13c.01.13.09.22.2.25l-.07.01a.11.11 0 0 0-.02.05v.05l.03.04c0 .02.02.03.04.04.36.2.7.36 1.03.49.12.04.16.15.16.27a.48.48 0 0 1 .17-.04c.12.06.22.06.3 0a.14.14 0 0 0 .07-.13c-.02-.29-.1-.56-.25-.82a.2.2 0 0 1-.02-.15Z" fill="#FCEA7E"/><path d="m18.63 30.18.06-.09c.09-.14.13-.12.12.04-.04.58-.07 1.2-.08 1.88 0 .75.43 1 .7 1.58.37.8.62 1.44 1.01 1.98a4.34 4.34 0 0 0 1.94 1.5l.99.42c.22.1.36.05.56.12.7.22 1.36.46 2 .7-.1.11-.05.21.17.3.08.04.18.07.3.1 1.18.23 2.36.2 3.53-.06.3-.07.55-.2.77-.38.1-.14.28-.22.51-.25.45-.06.74-.07 1.08-.19.79-.26 1.62-.4 2.5-.4.42-.01.86-.46 1.2-.68.14-.08.35-.08.44-.25.32-.64.62-1.32.89-2.04.06-.15.03-.26-.09-.32a.15.15 0 0 1-.07-.12c-.04-.39-.05-.71.17-1.05.14-.21.42-.48.48-.79l.07-.42c.05-.34.14-.35.26-.03l.06.27c.02.11.12.14.3.08.07 1.34-.1 3.62-1.2 4.49-.8.63-1.68 1.18-1.8 1.53-.4 1.12-.8 2.1-1.23 2.95-.14.27-.25.7-.34 1.28-.06.38-.04 1.27.04 2.67h-4.58l.03-.7c.24-.3.4-.6.7-.83.67-.52.93-.86.88-1.74 0-.05-.03-.06-.08-.04l-1.74 1.05a.82.82 0 0 0-.24-.21c-.5-.17-1-.35-1.48-.55-.33-.13-.66-.19-1-.26a.6.6 0 0 1-.2-.14.16.16 0 0 1 .04-.24.15.15 0 0 1 .09-.01c.42.04.77.13 1.06.26.46.22.87.21 1.3.06.5-.18 1.11-.54 1.86-1.06a.5.5 0 0 1 .14-.05c-.84 0-1.57.05-2.2.15-.99.16-1.7.02-3-.06a1.47 1.47 0 0 1-.7-.18c-1.12-.73-1.96-1.4-3.3-1.85-.15-.05-.2 0-.13.15l.14.33a.6.6 0 0 0 .3.32l.53.27c.04.02.07.05.08.1.07.2.06.38-.02.5-.31.44-.53.8-.66 1.07-.03.06-.04.17 0 .3 0 .05-.02.07-.07.06-.21-.03-.32.07-.33.3l-.3.07a.1.1 0 0 1-.12-.1v-.05l.37-.73c.01-.02 0-.04-.02-.05l-.06-.04h-.02l-.02.02-1.09 1.82c-.37.62-.58 1.29-.63 2.01-.06 0-.1 0-.12.05H17.9a.44.44 0 0 0-.2-.04 8.64 8.64 0 0 1-.64-1.88c-.2-.84-.43-1.66-.42-2.52 0-.73-.12-1.27-.23-2.2-.07-.52-.07-1-.03-1.42.07-.67.11-1.16.12-1.47 0-.64.37-1.26.72-1.73.08-.12.13-.36.22-.47a.11.11 0 0 0 0-.14l-.17-.2a.12.12 0 0 1 .05-.2c.1-.03.18-.09.25-.16.05-.05.04-.09-.01-.13a.44.44 0 0 0-.29-.06c-.06 0-.08-.03-.07-.09 0-.04.04-.08.1-.13.29.03.5-.04.66-.2.05-.06.04-.08-.04-.09-.3-.01-.67.08-.93 0-.58-.16-.8-.73-.58-1.3a.24.24 0 0 0 0-.15 1.7 1.7 0 0 0-.27-.57.19.19 0 0 0-.13-.08 1.5 1.5 0 0 1-.63-.23c-.33-.21-.15-.58.02-.88.08-.14.06-.26.04-.42.04 0 .08.02.13.05.05.03.08.07.1.13.08.28.2.55.34.8.05.1.1.14.13.14h.08c.06.03.1.01.1-.06l-.04-.47c0-.14.01-.15.07-.04a.3.3 0 0 0 .07.1c.02.02.04.05.05.09.19.52.5.88.96 1.09.25.11.42.24.52.38.23.36.35.74.36 1.15 0 .05.03.07.07.06h.04c.03 0 .04-.02.05-.05l.16-1.43Z" fill="#DCC194"/><path d="M40.85 28.51v.1c0 .07.04.1.1.06a.21.21 0 0 1 .2 0l.7.4.45.33c.08.15.15.29.2.43.05.09.05.16.02.22-.03.09-.11.13-.23.13-.33-.4-.81-.63-1.45-.7-.05-.01-.1 0-.15.03-.25.14-.45.37-.6.68l.11-.4c.04-.14.1-.27.17-.39.18-.27.34-.57.48-.89Z" fill="#FCEA7E"/><path d="m41.9 30.3.4-.12c-.34-.4-.82-.63-1.46-.7-.05-.01-.1 0-.15.03-.25.14-.45.37-.6.68l-.13.4a.66.66 0 0 0-.06.31l1.5.52c.1-.43.27-.8.5-1.13Z" fill="#E0AF62"/><path d="M41.4 31.42c.07.09.12.2.15.35a.25.25 0 0 1-.16.27c-.03.02-.07.02-.11.02-.46-.06-.6.19-.85.5-.07.1-.08.2-.02.34.12.26.08.5-.12.73a.12.12 0 0 1-.12.04c-.22-.06-.4-.04-.56.05 0-.07-.03-.1-.06-.12l-.11-.01c-.1 0-.16.02-.17.09-.01.07-.06.1-.13.08l-.06-.02a.1.1 0 0 1-.07-.12l.35-1.22c.33.03.47-.45.5-.7a.15.15 0 0 1 .09-.11.15.15 0 0 1 .14 0 6.19 6.19 0 0 0 .68.3c.03 0 .06-.02.07-.04.04-.04.03-.07-.01-.1l-1.07-.52.14-.33 1.5.52Z" fill="#FCEA7E"/><path d="m39.36 32.4.4-1.17 1.07.52c.04.03.05.06.01.1a.14.14 0 0 1-.07.04l-.08-.01a6.22 6.22 0 0 1-.67-.31.15.15 0 0 0-.13.06.15.15 0 0 0-.02.07c-.04.25-.18.73-.51.7ZM17.3 32.16c-.06.05-.1.1-.1.13-.01.06.01.1.07.09.12 0 .22.01.29.06.05.04.06.08.01.13a.68.68 0 0 1-.25.17.12.12 0 0 0-.08.08.12.12 0 0 0 .03.1l.17.2a.11.11 0 0 1 0 .15c-.09.11-.14.35-.22.47-.35.47-.71 1.09-.72 1.73 0 .31-.05.8-.12 1.47-.04.43-.04.9.03 1.42.11.93.23 1.47.23 2.2 0 .86.23 1.68.42 2.52.16.7.37 1.32.65 1.88a.37.37 0 0 0-.17.04h-.28c-.1-.04-.16-.04-.19 0h-.8c-.07-.04-.1-.04-.11 0h-.24c-.03-.05-.1-.08-.18-.09.11-1.23.32-2.45.26-3.7-.02-.58-.14-1.55-.36-2.91-.06-.41.01-1.16.22-2.23.14-.77.43-1.95.84-3.55.09-.31.29-.43.6-.36Z" fill="#C38830"/><path d="M19.07 35.96v.02l-.05.02c-.03.02-.05 0-.07-.03a4.54 4.54 0 0 1-.5-1.7 1.62 1.62 0 0 0-.36-.84.2.2 0 0 1-.04-.15l.13-.86c.02-.08.05-.1.12-.04.13.12.2.26.18.43-.04.43-.02.83.08 1.2l.51 1.95Z" fill="#ECE7D5"/><path d="M26.72 38.49c.2-.19.33-.33.36-.41a.77.77 0 0 0 .01-.55.2.2 0 0 0-.1-.11.7.7 0 0 0-.31-.03.15.15 0 0 1-.13-.05c-.2-.22-.37-.34-.5-.36-.7-.1-1.3-.28-1.8-.53l-.7-.32a.26.26 0 0 1-.14-.1c-.33-.5-.74-.93-1.22-1.32-.4-.31-.43-.67-.74-1.03a.21.21 0 0 1-.05-.18c.05-.28.03-.55-.06-.8a8.34 8.34 0 0 0 6.7 4.02v1.82a.09.09 0 0 1-.1.09l-1.22-.14ZM33.68 33.87a.75.75 0 0 1-.14.48.18.18 0 0 0-.02.15c.08.32-.37.61-.7.92-.2.17-.4.3-.63.4-.5.21-.84.43-1.04.64a6.4 6.4 0 0 1-.47.41c-.1.09-.28.18-.54.3-.56.23-.74.66-.52 1.3l-1.21.15a.1.1 0 0 1-.11-.06.11.11 0 0 1-.01-.05v-1.67c0-.04.01-.09.04-.12a.18.18 0 0 1 .11-.06 8.27 8.27 0 0 0 5.24-2.79Z" fill="#CAC2AD"/><path d="M30.72 34.92a86.13 86.13 0 0 0 .91-.4l.03.05a.04.04 0 0 1 0 .05h-.01c-.47.27-.8.66-1.3.93a5.35 5.35 0 0 1-5.09.15c-.02 0-.03-.03-.03-.06l.02-.03h.02c1.68.07 2.65.09 2.91.04 1-.19 1.85-.43 2.54-.73Z" fill="#16292D"/><path d="M26.46 41.72c-.25.14-.16.2.27.2h.04l.03.05c0 .01 0 .02-.02.02l-.27.12a.19.19 0 0 0-.1.1c-.22.56-.1 1.05.34 1.5a.13.13 0 0 1 .04.12.13.13 0 0 1-.1.09c-.49.14-1 .18-1.52.11a.12.12 0 0 1-.11-.09 1.8 1.8 0 0 1-.07-.72c0-.55.3-.88.9-1l.12-.04a.41.41 0 0 0 .1-.06.22.22 0 0 0 .06-.08.12.12 0 0 0 0-.07c0-.06-.05-.07-.1-.03a.65.65 0 0 1-.78-.03.9.9 0 0 0-.84-.26h-.15c-.87-.23-2.04.06-2.9.35 0-.23.1-.33.32-.3.05.01.07-.01.06-.06-.03-.13-.02-.24.01-.3.13-.27.35-.63.66-1.07.08-.12.09-.3.02-.5a.16.16 0 0 0-.08-.1l-.53-.27a.6.6 0 0 1-.3-.32l-.14-.33c-.06-.15-.02-.2.14-.15 1.33.46 2.17 1.12 3.28 1.85.15.1.39.16.71.18 1.3.08 2.01.22 3 .06a14.78 14.78 0 0 1 2.2-.15.5.5 0 0 0-.14.05c-.75.52-1.37.88-1.87 1.06-.42.15-.83.16-1.29-.06a3.14 3.14 0 0 0-1.06-.26.15.15 0 0 0-.15.08.16.16 0 0 0 .02.17c.03.05.1.1.2.14Z" fill="#C5A77D"/><path d="M21.4 42c.86-.3 2.03-.58 2.9-.35h.15a.9.9 0 0 1 .84.26h-.49c-.05 0-.07.03-.05.08.19.39.27.8.24 1.23-.02.27 0 .5.07.72.02.06.05.09.1.1a3.78 3.78 0 0 0 1.6-.15.13.13 0 0 0 0-.19c-.46-.44-.57-.93-.35-1.48a.19.19 0 0 1 .1-.1l.27-.13c.01 0 .02 0 .02-.02a.06.06 0 0 0-.03-.04l-.04-.01c-.43 0-.52-.06-.27-.2.34.07.67.13 1 .26.49.2.98.38 1.48.55.05.02.13.09.24.2.36.48.24 1.02.24 1.56l-.03.71h-.24v-1.61c.01-.52-.27-.57-.72-.76a4.04 4.04 0 0 0-1.6-.33c-.17 0-.26.1-.29.27a.9.9 0 0 0 .33.85c.04.04.07.09.08.14.12.42-.04.63-.47.71-.5.1-1.02.09-1.54-.02a.14.14 0 0 1-.12-.13c-.03-.6-.02-1.45-.3-1.94-.49-.84-2.86.07-3.58.22-.4.09-.8 1.13-1.06 1.7-.08.16-.11.47-.09.9h-.23l-.06-.05c.05-.72.26-1.4.63-2.01a834.43 834.43 0 0 1 1.11-1.84h.02l.06.04c.03 0 .03.03.02.05l-.36.73a.1.1 0 0 0 0 .11.1.1 0 0 0 .11.04l.3-.07Z" fill="#010202"/><path d="M29.42 44.3c0-.55.12-1.1-.24-1.56l1.74-1.05c.05-.02.07-.01.08.04.05.88-.2 1.22-.88 1.74-.3.23-.46.53-.7.82Z" fill="#C5A77D"/><path d="M25.3 41.91c.25.18.5.19.76.03.06-.04.1-.03.12.03l-.01.07a.22.22 0 0 1-.06.08.41.41 0 0 1-.1.06.55.55 0 0 1-.12.04c-.6.12-.9.45-.9 1 .03-.43-.05-.84-.24-1.23-.02-.05 0-.07.05-.07h.5Z" fill="#C38830"/></svg>