<svg width="112" height="112" viewBox="0 0 56 56" xmlns="http://www.w3.org/2000/svg"><path d="M38.03 14.39c-.03.12-.22.06-.6-.16a2.25 2.25 0 0 1-.52-.28 3.47 3.47 0 0 0-.5-.3 21.94 21.94 0 0 0-2.58-1.27 1.93 1.93 0 0 0-.52-.14c-.2-.03-.4-.08-.56-.15-.2-.08-.4-.14-.62-.17l-.32-.07-.5-.12c-.64-.16-1.12-.26-1.43-.3-2.3-.27-4.56-.07-6.78.62l-.6.11c-.2.05-.38.1-.56.2l-.32.14c-.36.16-.62.29-.77.4a.64.64 0 0 1-.28.1c-.16.03-.39.14-.69.35l-.3.19c-.12.06-.22.13-.31.22a1 1 0 0 1-.4.2.12.12 0 0 0-.07.08l-.01.05-.13.14c-.05.01-.08-.09-.08-.3l.61-.4a16.27 16.27 0 0 1 6.47-2.36 16.4 16.4 0 0 1 12.37 3.22Z" fill="#A0A09F"/><path d="m37.43 14.23.07.1.1.1c.3.24.6.48.9.7a18.9 18.9 0 0 1 1.67 1.49c.02.02.04.02.04-.02l.02-.04v-.03l-.46-.6a16 16 0 0 1 3.21 4.34c0 .26.1.53.3.8.03.05.03.1-.01.14l-.04.03c-.03.03-.07.03-.1-.02l-1.03-1.85-.78-1.18a3.59 3.59 0 0 0-.52-.63l-.72-.75c-.4-.42-.84-.85-1.34-1.26a.76.76 0 0 0-.43-.18c-.04 0-.06-.02-.07-.06-.03-.14-.12-.2-.25-.16-.04.01-.08 0-.1-.05-.03-.1-.12-.2-.28-.3-.1-.06-.17-.12-.2-.16a3.76 3.76 0 0 0-.3-.26c-.03 0-.06 0-.07.04-.04.07-.08.08-.13 0a.48.48 0 0 1-.06-.13c-.02-.05-.05-.07-.1-.06a.12.12 0 0 0-.08.05.26.26 0 0 0-.04.13c-.01.07-.05.08-.1.04a.25.25 0 0 1-.11-.14c-.04-.13-.11-.15-.21-.06-.07.06-.1.12-.09.18a15.29 15.29 0 0 0-10.45-2.15c-2.89.42-5.5 1.62-7.8 3.58-.08-.14-.06-.26.04-.35.02-.02.02-.04.01-.06l-.02-.03h-.02l-.38.26a.17.17 0 0 0-.06.08c-.04.1-.1.18-.19.25-.04.04-.07.03-.08-.02-.01-.04 0-.08.02-.12.01-.04 0-.07-.02-.1a.11.11 0 0 0-.08-.02.12.12 0 0 0-.1.04c-.12.13-.25.25-.4.37a.78.78 0 0 0-.18.3l-.03.06a.22.22 0 0 1-.08.1c-.26.16-.55.42-.86.77-.09.1-.18.13-.28.07.43-.52.89-1.04 1.38-1.54.1-.1.34-.26.73-.5a.25.25 0 0 0 .1-.11.3.3 0 0 1 .09-.11l1.2-.97.13-.14c.06.02.12.01.15-.02l.07-.06c.3-.18.62-.35.94-.5l.37-.21c.26-.17.47-.27.62-.3a.23.23 0 0 0 .12-.07.35.35 0 0 1 .14-.09c.63-.25 1.27-.51 1.9-.79 2.22-.69 4.48-.9 6.77-.62a12.5 12.5 0 0 1 1.94.42l.32.07c.21.03.42.09.62.17.16.07.35.12.56.15.18.02.35.07.52.15a21.93 21.93 0 0 1 2.57 1.26c.18.09.35.19.5.3.18.12.35.21.53.28Z" fill="#5A5A5A"/><path d="M23.1 12.05c-.63.28-1.27.54-1.9.8a.35.35 0 0 0-.14.08.23.23 0 0 1-.12.07c-.15.03-.36.13-.62.3-.16.1-.28.17-.37.2a10.29 10.29 0 0 0-1 .57c-.04.03-.1.04-.16.02v-.05a.12.12 0 0 1 .09-.07 1 1 0 0 0 .39-.21c.09-.09.2-.16.3-.22l.31-.2c.3-.2.53-.3.7-.33.1-.02.2-.06.27-.12.15-.1.4-.23.77-.4l.32-.14c.18-.08.36-.14.56-.19.2-.04.4-.08.6-.1Z" fill="#7D7D7D"/><path d="M36.12 14.43a16.54 16.54 0 0 1 5.46 5.6c.02.4-.15.33-.52-.2l-.81-1.2c-.07-.1-.17-.19-.3-.27a.66.66 0 0 1-.17-.2.81.81 0 0 0-.14-.18 20.56 20.56 0 0 0-1.4-1.43c-.17-.15-.32-.22-.47-.2a14.67 14.67 0 0 0-10.52-3.58 14.8 14.8 0 0 0-8.34 2.98 16.13 16.13 0 0 0-3.86 4.23 2 2 0 0 0-.52.54.74.74 0 0 0-.06.13c-.05.1-.1.17-.15.2a.1.1 0 0 0-.05.08 1.9 1.9 0 0 1-.4.8l-.13.19c-.08.1-.12.1-.13-.04a.64.64 0 0 1 .09-.38l.11-.17c.08-.11.1-.25.05-.4 1.01-1.97 2.34-3.66 4-5.07a15.33 15.33 0 0 1 7.81-3.58c3.72-.54 7.2.17 10.45 2.15Z" fill="#DEDEDD"/><path d="M18.58 13.93c0 .21.03.31.08.3l-1.2.97a.3.3 0 0 0-.09.1.24.24 0 0 1-.1.12c-.4.24-.64.4-.73.5-.5.5-.95 1.02-1.38 1.54l-.94 1.29c-.07.03-.12.03-.16 0-.03-.02-.04-.05-.01-.09l.44-.63c0-.12.02-.2.06-.27a15.86 15.86 0 0 1 4.03-3.83ZM37.45 18.1c.2.21.28.4.26.56a3.1 3.1 0 0 0-.38-.37 3.6 3.6 0 0 1-.25-.24 5.26 5.26 0 0 0-1.06-.91 5 5 0 0 1-.36-.26c-.27-.2-.47-.34-.63-.4-.3-.12-.58-.26-.84-.42-.3-.18-.58-.32-.86-.42-.91-.34-1.65-.58-2.22-.73a12.8 12.8 0 0 0-5.92-.11c-.2 0-.39.04-.58.09l-.72.18c-.23.07-.46.15-.7.25-.47.2-.97.4-1.5.6-.15.05-.29.13-.4.23a1.5 1.5 0 0 1-.6.36c-.03 0-.05 0-.06-.03v-.1a.8.8 0 0 0 .37-.2c.15-.14.25-.23.3-.26a13.56 13.56 0 0 1 16.06 2.06c.03.05.06.1.09.12Z" fill="#7D7D7D"/><path d="M42.1 19.37c-.3-.02-.47-.2-.51-.51a.27.27 0 0 0-.13-.2.73.73 0 0 0-.5-.1.1.1 0 0 1-.1-.05c-.24-.33-.48-.6-.72-.8-.04-.04-.1-.03-.16.04a16.54 16.54 0 0 0-3.86-3.32c-.01-.06.02-.12.09-.18.1-.09.17-.07.2.06.02.06.06.1.12.14.05.04.09.03.1-.04v-.02c.01-.05.02-.09.04-.1a.12.12 0 0 1 .08-.06c.05-.01.08 0 .1.06.01.05.04.1.06.14.05.07.1.06.13-.01.01-.03.04-.04.07-.04a3.81 3.81 0 0 1 .3.26c.03.04.1.1.2.16.16.1.25.2.29.3.02.04.05.06.1.05.12-.03.2.02.24.16.01.04.03.06.07.06.16.01.3.07.43.18.5.41.95.84 1.34 1.26l.72.75c.19.18.36.4.52.63.25.4.51.79.78 1.18Z" fill="#45434A"/><path d="M37.43 14.23c.38.22.58.28.6.16l1.74 1.54.45.6v.07c-.01.04-.03.04-.05.02l-.3-.28a18.9 18.9 0 0 0-1.37-1.2 27.02 27.02 0 0 1-1-.82l-.07-.1Z" fill="#7D7D7D"/><path d="M37.7 18.66c.32.4.65.8 1.01 1.2.1.11.2.3.32.55.01.04.04.07.08.1.1.08.17.18.21.29a17.22 17.22 0 0 1 1.49 3.11l.03.09.04.04c.01 0 .03 0 .05-.02a.07.07 0 0 0 .01-.07l-.45-1.7c.24.42.46.96.66 1.6.5 1.54.76 3.1.8 4.67.01.85-.07 1.66-.27 2.46-.04.18-.07.37-.08.56 0 .23-.04.43-.1.62-.29.87-.6 1.73-.95 2.6-.2.47-.63 1.22-1.3 2.24a13.36 13.36 0 0 1-8.67 5.7c-3.86.66-7.25-.02-10.17-2.04-1.31-.9-2.47-2-3.48-3.33a3.85 3.85 0 0 1-.37-.6c.57.53 1.07 1.1 1.5 1.73.1.15.3.31.58.48.12.08.22.17.3.3.13.15.28.27.46.35.05.02.08.05.1.1.1.16.23.23.4.23a4.24 4.24 0 0 0 .96.67c.2.15.34.24.4.27l.8.4.47.2c.15.05.3.12.47.21.03.02.1.04.17.05a.6.6 0 0 1 .16.04c.42.2.86.34 1.34.44a13.37 13.37 0 0 0 2.58.33 7.23 7.23 0 0 0 1.75 0 7.75 7.75 0 0 0 1.4-.17 20 20 0 0 1 1.07-.24 2.44 2.44 0 0 0 .5-.15c.35-.14.62-.23.82-.27.26-.06.53-.17.8-.34.12-.06.25-.1.38-.1.05-.01.09-.02.13-.05.33-.24.66-.45 1-.64.44-.23.87-.54 1.28-.93a11.94 11.94 0 0 1 .98-.84.67.67 0 0 1 .2-.16.2.2 0 0 0 .07-.08c.17-.26.38-.47.62-.62.06-.04.11-.09.15-.14a10.47 10.47 0 0 0 1-1.58l.57-.97c.3-.46.49-.78.54-.96.14-.5.32-.97.52-1.42.05-.12.1-.31.16-.56l.06-.27c.05-.2.1-.5.16-.9a10.77 10.77 0 0 0 .17-3.55c-.02-.18-.12-.3-.31-.36-.24-.08-.45-.2-.61-.4-.03-.03-.06-.04-.1-.02a.72.72 0 0 0-.27.24 12.7 12.7 0 0 0-3.27-7.13 12.3 12.3 0 0 0-5.93-3.65A11.82 11.82 0 0 0 26.2 16c-1.64.24-3.16.8-4.53 1.65a12.93 12.93 0 0 0-5.51 7c-.21.62-.38 1.41-.5 2.38l-.54-.33a.17.17 0 0 0-.11-.03c-.08.01-.15 0-.22-.04-.04-.02-.05-.05-.03-.09.1-.2.15-.43.13-.7 0-.05 0-.13-.02-.24-.04-.3-.04-.53 0-.67l.07-.31c.03-.18.07-.32.1-.42a15.86 15.86 0 0 1 1.67-3.49c.07-.13.17-.26.31-.39.12-.1.23-.23.33-.37a8.33 8.33 0 0 1 1.94-2.05c.23-.17.42-.37.58-.6.9-.66 1.52-1.06 1.85-1.2l.87-.4c.3-.15.6-.26.9-.36l1.7-.53a12.8 12.8 0 0 1 5.91.11 25 25 0 0 1 2.22.73c.28.1.57.24.86.42.26.16.54.3.84.42.16.06.36.2.63.4l.36.26c.37.24.73.54 1.06.9l.25.25c.18.15.3.27.38.37Z" fill="#212121"/><path d="m25.2 14.8-1.7.53c-.3.1-.6.21-.9.36l-.87.4c-.33.14-.94.54-1.85 1.2a4.1 4.1 0 0 0-.85.61 25.9 25.9 0 0 0-1.87 1.94.99.99 0 0 0-.17.27c-.03.07-.07.08-.12.03-.03-.03-.03-.06 0-.1.28-.3.5-.64.66-1a15.12 15.12 0 0 1 3.06-2.68c.02 0 .04 0 .04.02v.1c.01.03.03.04.06.03.23-.07.43-.19.6-.36.11-.1.25-.18.4-.24.53-.2 1.03-.39 1.5-.59.24-.1.47-.18.7-.25l.72-.18c.19-.05.38-.08.58-.1Z" fill="#5A5A5A"/><path d="M17.86 15.86a16.36 16.36 0 0 0-5.14 7.94c-.3-.08-.51-.03-.63.16l-.36.56c-.07.1-.17.13-.3.1a16.86 16.86 0 0 1 1.77-4.76c-.06.4-.2.77-.4 1.13a.1.1 0 0 0 0 .12l.02.03c.03.04.06.04.08 0 .24-.59.55-1.13.92-1.62.06-.1.14-.24.24-.45l.16-.32.94-1.29c.1.06.2.03.28-.07.31-.35.6-.6.86-.78a.22.22 0 0 0 .08-.1l.03-.06a.78.78 0 0 1 .19-.3c.14-.11.27-.23.4-.36a.12.12 0 0 1 .1-.04c.02 0 .04 0 .07.02.03.03.03.06.02.1a.17.17 0 0 0-.02.12c.01.05.04.06.08.02a.76.76 0 0 0 .19-.25.17.17 0 0 1 .06-.08l.38-.26h.02l.02.03v.06c-.11.1-.13.21-.06.35Z" fill="#383838"/><path d="M37.77 16.35c.15-.02.3.05.47.2a20.56 20.56 0 0 1 1.71 1.8c.13.1.23.18.3.28l.81 1.2c.36.53.54.6.52.2a14.57 14.57 0 0 1 1.84 4.64l-.07 1.57c0 .04-.03.06-.07.06h-.05a.4.4 0 0 0-.03-.05 16.15 16.15 0 0 0-5.43-9.9Z" fill="#A0A09F"/><path d="M19.88 17.3c-.16.22-.35.42-.58.59a6.95 6.95 0 0 1-.65.55c-.31.24-.74.74-1.29 1.5-.1.14-.21.27-.33.37-.14.13-.24.26-.31.4l-.67 1.17c-.25.41-.58 1.18-1 2.31-.03.1-.07.24-.1.42l-.06.3c-.05.15-.05.38-.01.68l.02.24c.02.27-.02.5-.13.7-.02.04-.01.07.03.09.07.04.14.05.22.04.04 0 .07 0 .1.03l.54.33c-.01.42-.05.84-.11 1.28-.07.42-.02 1.14.14 2.15-.05.07-.1.08-.16.05-.06-.02-.1-.09-.12-.2l-.02-.08a.2.2 0 0 0-.15-.14.2.2 0 0 0-.2.06c-.08.08-.16.09-.24 0-.02-.01-.03 0-.04.02-.11.35-.1.68.02.98.1.24.14.46.12.66-.02.18 0 .37.06.55.07.26.13.52.17.78.01.07.05.17.1.29.07.13.1.23.11.3.01.15.05.29.12.43.29.59.59 1.16.9 1.73.17.3.37.6.61.88.23.28.44.56.64.85.04.06.1.14.2.23.12.11.2.2.24.27.07.1.19.24.37.4.15.14.26.25.32.33.1.14.24.27.41.4.27.2.52.43.75.68a.42.42 0 0 1-.4-.23.21.21 0 0 0-.1-.1c-.18-.08-.33-.2-.45-.36a1.07 1.07 0 0 0-.31-.29 1.92 1.92 0 0 1-.58-.48 10.7 10.7 0 0 0-1.5-1.74 12.84 12.84 0 0 1-1.86-3.9l-.2-.55a2.86 2.86 0 0 1-.15-.55l-.18-1.25c-.26-1.98-.15-3.84.34-5.58.23-.83.54-1.7.92-2.6.48-1.12 1.18-2.2 2.1-3.24-.16.35-.38.68-.65.99-.04.04-.04.07-.01.1.05.05.1.04.12-.03a1 1 0 0 1 .17-.27c.52-.6 1.14-1.25 1.87-1.94.24-.23.53-.43.85-.6ZM42.1 19.37l1.04 1.85c.02.05.06.05.1.02l.03-.03c.04-.04.04-.09 0-.13-.2-.28-.3-.55-.29-.8.76 1.48 1.3 3.04 1.63 4.66-.35.15-.7.2-1.05.13l-.14-.4a14.57 14.57 0 0 0-1.84-4.64l-.26-.47a20.8 20.8 0 0 0-1.34-1.81c.06-.07.12-.08.16-.04.24.2.48.47.72.8a.1.1 0 0 0 .1.04c.17-.02.34.02.5.11.07.05.11.11.13.2.04.32.22.49.51.51Z" fill="#383838"/><path d="m14.5 18.03-.45.63c-.03.04-.02.07.01.1.04.02.09.02.16-.01l-.16.32-.24.45c-.37.5-.68 1.03-.92 1.62-.02.04-.05.04-.08 0l-.02-.03a.1.1 0 0 1 0-.12c.2-.36.34-.74.4-1.13.33-.62.7-1.23 1.12-1.83.02-.04.05-.06.08-.06.04-.01.07 0 .1.06Z" fill="#5A5A5A"/><path d="m40.5 22.25.44 1.7c.01.03 0 .05-.01.07-.02.02-.04.02-.05.02a.07.07 0 0 1-.04-.04l-.03-.09c-.5-1.26-.93-2.17-1.3-2.74a2.08 2.08 0 0 1-.19-.37.68.68 0 0 0-.21-.29.25.25 0 0 1-.08-.1c-.11-.26-.22-.44-.32-.55-.36-.4-.7-.8-1-1.2.02-.16-.06-.35-.26-.56a.15.15 0 0 1 .06-.01c.02 0 .04 0 .06.02a12.94 12.94 0 0 1 1.8 2.17c.47.64.85 1.3 1.12 1.97Z" fill="#45434A"/><path d="m15.05 19.98-.26.46a16.33 16.33 0 0 0-2.14 6.72c-.04.23-.06.4-.05.51-.04.14-.1.15-.15.04a32.77 32.77 0 0 1-.12-1.96l.4-1.95c.28-1 .66-1.96 1.13-2.87.05.15.03.29-.05.4l-.11.17a.64.64 0 0 0-.1.38c.02.14.06.15.14.04l.13-.19c.25-.35.38-.62.4-.8a.1.1 0 0 1 .05-.08c.06-.03.1-.1.15-.2l.06-.13a2 2 0 0 1 .52-.54Z" fill="#A0A09F"/><path d="M28.69 22.02c-.06.03-.04.11.06.25.04.05.03.1-.03.12a.17.17 0 0 0-.09.13c-.03.24 0 .47.11.7a.2.2 0 0 1 .02.1.56.56 0 0 1-.12.27c-.08.09-.06.14.06.15.03 0 .07.02.12.05.03.01.03.02 0 .03-.13.05-.18.12-.15.2a1.39 1.39 0 0 0-1.32-.33 1.4 1.4 0 0 0-1.01.9 1.5 1.5 0 0 0 0 1.11c.13.37.37.65.72.84.5.26 1.04.19 1.63-.23l.08 2.44a3.1 3.1 0 0 1-1.7.01.17.17 0 0 0-.1 0 .32.32 0 0 1-.13.03c-.11-.11-.2-.14-.26-.1-.03.02-.05.07-.07.15-.02.07-.05.11-.1.13a4.84 4.84 0 0 0-1.62-.84c.1-.13.02-.22-.22-.27a.17.17 0 0 1-.1-.06c-.1-.11-.2-.14-.3-.09a.35.35 0 0 1-.25-.24.3.3 0 0 0 .06-.15c0-.06-.02-.1-.07-.12a.39.39 0 0 1-.14-.09c-.1-.1-.07-.14.06-.13h.08c.08 0 .1-.03.05-.1a.16.16 0 0 0-.18-.06c-.05.01-.08 0-.08-.06l-.04-.38c.17.11.32.19.47.23.06.02.1 0 .14-.04.04-.05.03-.09-.04-.1a.25.25 0 0 1-.17-.12c-.03-.06-.02-.08.05-.06l.14.04c.08.02.1 0 .07-.08l-.03-.07c-.03-.05-.01-.09.04-.1.4-.15.65-.4.76-.75.37-1.15.74-2.38 1.1-3.67a13.86 13.86 0 0 1 .43-1.23c.02-.05 0-.07-.05-.07a.1.1 0 0 0-.09.05c-.2.3-.34.61-.44.95-.4 1.3-.78 2.5-1.17 3.65-.12.37-.33.62-.62.74a2 2 0 0 1-1.33.07c.16-.04.4-.08.75-.12.22-.02.43-.12.64-.3.13-.12.26-.31.36-.58.3-.77.56-1.5.77-2.17l.5-1.62c.16-.55.43-.87.8-.98.28-.07.51.03.68.32l.82 1.28c.08.12.17.23.27.33.03.02.07.04.1.04h.08Z" fill="#5A5A5A"/><path d="M23.66 26.38a4.05 4.05 0 0 1-1.18-.66l.44.1c.48.13.92.1 1.33-.07.3-.12.5-.37.62-.74.39-1.14.78-2.36 1.17-3.65.1-.34.25-.65.44-.95a.1.1 0 0 1 .1-.05c.04 0 .06.02.04.07l-.14.4c-.14.37-.23.64-.28.83-.37 1.3-.74 2.52-1.11 3.67-.11.35-.37.6-.76.74-.05.02-.07.06-.04.11l.03.07c.04.08.01.1-.07.08l-.14-.04c-.07-.02-.08 0-.05.06.04.07.1.1.17.12.07.01.08.05.04.1-.04.04-.08.06-.14.04-.15-.04-.3-.12-.47-.23Z" fill="#A0A09F"/><path d="M30.65 24.06c.04.35.12.7.23 1.02.1.28.24.48.43.61.31.23.82.35 1.5.37.06 0 .08.03.1.07 0 .04 0 .07-.02.1a.14.14 0 0 1-.08.06 3 3 0 0 0-.24.1c-.32.17-.56.22-.72.16-.4-.16-.7-.38-.92-.66-.13-.18-.28-.5-.45-.95l-.16-.44c-.11-.26-.18-.25-.2.04l-.05.34a1.8 1.8 0 0 0-.03.38c.04 1.01.06 2.05.08 3.1l-1.35.39-.08-2.44c.33-.32.49-.73.47-1.23a1.38 1.38 0 0 0-.5-1.06c-.02-.08.03-.15.16-.2.03-.01.03-.02 0-.03a.35.35 0 0 0-.12-.05c-.12-.01-.14-.06-.06-.15.06-.08.1-.17.12-.27a.2.2 0 0 0-.02-.1c-.1-.23-.14-.46-.1-.7a.17.17 0 0 1 .08-.13c.06-.03.07-.07.03-.12-.1-.14-.12-.22-.06-.25.27-.04.5-.14.7-.3.12-.1.2-.07.26.06l1 2.28Z" fill="#45434A"/><path d="M28.67 24.02c.32.28.48.63.5 1.06 0 .5-.15.9-.48 1.23-.59.42-1.13.5-1.63.23-.35-.19-.59-.47-.73-.84a1.51 1.51 0 0 1 .01-1.11 1.4 1.4 0 0 1 1-.9c.5-.12.94 0 1.33.33Z" fill="#FEFEFE"/><path d="m12.72 23.8-.39 1.96a6.56 6.56 0 0 0-.2 2.04c-.08.27-.1.58-.1.93.04.76.1 1.43.18 2.02-.02.03-.04.04-.04.03l-.06-.02a.12.12 0 0 1-.07-.1 5.14 5.14 0 0 1-.08-1.5c0-.05 0-.1-.03-.14-.04-.06-.06-.06-.06.01 0 .08-.04.12-.1.14a.13.13 0 0 1-.13-.03.77.77 0 0 1-.28-.46.24.24 0 0 0-.05-.12.71.71 0 0 1-.16-.62c0-.05 0-.09-.03-.13a.51.51 0 0 1-.12-.34c.04-.92.18-1.87.42-2.86.14.04.24 0 .3-.1l.37-.55c.12-.19.33-.24.63-.16Z" fill="#212121"/><path d="M30.65 24.06c.24.5.45 1 .62 1.46.03.07.11.12.25.15a5.1 5.1 0 0 0 2.16 0l.12.2c.02.05.02.09-.01.13a.28.28 0 0 0-.08.23c.01.04 0 .08-.03.11-.14.13-.17.23-.12.29a20.5 20.5 0 0 1-3.44 1.73c-.02-1.05-.04-2.09-.08-3.1 0-.13 0-.25.03-.38l.04-.34c.03-.3.1-.3.2-.04.05.1.1.25.17.44.17.45.32.77.45.95.21.28.52.5.92.66.16.06.4 0 .72-.15.11-.06.19-.1.24-.11a.14.14 0 0 0 .08-.07c.01-.02.02-.05.01-.09 0-.04-.03-.07-.08-.07a2.8 2.8 0 0 1-1.51-.37 1.2 1.2 0 0 1-.43-.6c-.11-.34-.2-.68-.23-1.03ZM27.5 24.72c0 .1.04.16.14.18.42.1.67.28.75.51.1.37-.03.6-.4.72-.54.17-.87 0-1-.48 0-.04.01-.07.05-.09.23-.1.4-.04.55.16.1.14.2.13.31-.03.1-.13.07-.22-.09-.26-.63-.18-.9-.48-.78-.9.09-.29.31-.42.69-.4.37.04.59.2.66.51 0 .05 0 .08-.06.09-.24.06-.43 0-.57-.16-.05-.07-.12-.07-.18-.01a.21.21 0 0 0-.07.16Z" fill="#383838"/><path d="m43.42 24.67.14.4.3 2.3c.03.24.02.62 0 1.15a14.08 14.08 0 0 0-.42 2.28l-.11.66c-.1.64-.21 1.12-.32 1.43l-.34 1.08c-.1.32-.22.67-.39 1.03a.71.71 0 0 1-.1.16.7.7 0 0 0-.13.18c-.06.14-.13.26-.21.37-.1 0-.12-.05-.06-.17a16.5 16.5 0 0 0 1.44-9.17v-.06h.06c.04 0 .06-.03.07-.07l.07-1.57ZM22.48 25.72c.37.3.77.51 1.18.66l.04.38c0 .05.03.07.08.06.07-.02.13 0 .18.06.05.07.03.1-.05.1h-.08c-.13 0-.15.04-.06.13l.14.1c.05.01.07.05.07.1a.3.3 0 0 1-.06.16c-.06.02-.1.02-.13.01a12.46 12.46 0 0 1-3.73-2.52c-.07-.07-.06-.09.03-.06.13.04.32.11.57.22.26.11.46.18.6.22l1.22.38Z" fill="#7D7D7D"/><path d="M44.61 24.94c.23.97.35 2 .39 3.08 0 .3-.02.53-.08.68-.11.3-.17.6-.15.93 0 .05-.02.1-.05.15-.13.19-.21.4-.24.62a.2.2 0 0 1-.09.15.24.24 0 0 1-.12.04c-.05 0-.1.04-.1.1a.84.84 0 0 0-.04.37c0 .05-.01.07-.07.06a.04.04 0 0 1-.02-.03c-.02-.07-.05-.07-.07 0-.1.25-.23.49-.4.72.25-1.09.35-2.19.28-3.3.03-.52.04-.9 0-1.13l-.29-2.31c.35.07.7.02 1.05-.13ZM33.56 26.63c-.05-.06-.02-.16.12-.29a.12.12 0 0 0 .03-.1.28.28 0 0 1 .08-.24c.03-.04.03-.08 0-.12l-.1-.2a9.06 9.06 0 0 0 2.14-.68c.05-.03.08-.01.08.05v.03l-.01.03-.8.54c-.67.46-1.18.79-1.54.98Z" fill="#212121"/><path d="M12.33 25.76a32.68 32.68 0 0 0 .12 1.95c.06.1.1.1.15-.04.02.24.03.6.03 1.08a16.94 16.94 0 0 0 .49 3.82c-.1.08-.16.09-.18.04-.18-.67-.33-1.33-.46-2a2.96 2.96 0 0 1-.03-.32l-.02-.24-.3-2.25c-.05-.68.02-1.37.2-2.04Z" fill="#7D7D7D"/><path d="m39.97 35.25.92-2.65c.18-.53.08-.82-.3-.89a.16.16 0 0 1-.1-.05.17.17 0 0 1-.04-.1c-.01-.07-.04-.08-.1-.03-.08.08-.17.07-.26-.05.16-.85.25-1.72.28-2.6.02-.63 0-1.24-.08-1.83.1-.13.2-.21.27-.24.04-.02.07 0 .1.02.16.2.37.32.61.4.19.06.29.18.3.37.1 1.14.08 2.12-.07 2.92l-.1.62a8.21 8.21 0 0 1-.37 1.73c-.2.45-.38.92-.52 1.42-.05.18-.23.5-.54.96Z" fill="#383838"/><path d="M24.79 28.13c.07.58.29 1.13.67 1.64-.1 0-.2-.06-.31-.16a.1.1 0 0 0-.1-.02.42.42 0 0 0-.2.11 5.88 5.88 0 0 1-.68-1.99c.1-.05.2-.02.3.1l.1.05c.24.05.31.14.22.27Z" fill="#7D7D7D"/><path d="M12.12 27.8a107.46 107.46 0 0 1 .36 2.82c.13.66.28 1.32.46 1.99.02.05.08.04.18-.03a16.2 16.2 0 0 0 3.15 6.22.26.26 0 0 1-.22.04c-.03-.01-.04-.03-.04-.06l-.01-.04a7.79 7.79 0 0 1-.52-.54.23.23 0 0 1-.06-.11c-.03-.18-.12-.3-.28-.35a.2.2 0 0 1-.1-.1c-.2-.36-.43-.73-.67-1.11a14.27 14.27 0 0 1-1.28-2.85c-.11-.18-.23-.47-.34-.87a6.92 6.92 0 0 0-.15-.47c-.08-.2-.14-.45-.19-.74a5.7 5.7 0 0 0-.2-.85c-.08-.59-.14-1.26-.17-2.02a3.2 3.2 0 0 1 .08-.93Z" fill="#5A5A5A"/><path d="M24.79 28.13c.6.18 1.15.47 1.63.84.1.15.22.26.35.34l.55.6c.07.09.07.17 0 .24-.36.38-.8.4-1.35.07l-.51-.45a3.42 3.42 0 0 1-.67-1.64Z" fill="#FEFEFE"/><path d="M30.41 30.34c-.08-.04-.08-.13-.02-.28.03-.08.01-.12-.06-.14a.54.54 0 0 1-.18-.09c.2-.2.35-.45.46-.73.03-.07 0-.1-.07-.08l-.54.1c-.05-.15 0-.28.15-.4.33-.15.66-.23 1.01-.22.08 0 .11.04.1.12-.2.7-.47 1.27-.85 1.72Z" fill="#212121"/><path d="M43.85 28.52c.06 1.1-.03 2.2-.29 3.29a15.94 15.94 0 0 1-.86 3.03c-.06.16-.2.45-.43.88-.08.16-.15.33-.21.49l-.21.42c-.1.2-.18.34-.22.45-.05.15-.14.3-.28.47-.27.31-.5.66-.72 1.03-.09.15-.2.29-.32.41l-.28.33a4.17 4.17 0 0 1-.48.55 14.39 14.39 0 0 1-1.22 1.18l-.52.48c-.14.11-.31.24-.53.38-.25.17-.49.34-.72.52a.92.92 0 0 0-.98.23.23.23 0 0 1-.1.05c-.24.06-.44.16-.62.28-.25.06-.43.06-.54 0a16.18 16.18 0 0 0 5.66-4.51c.54-.63 1.09-1.5 1.64-2.64.02-.06.1-.1.22-.13.08-.11.15-.23.21-.37a.7.7 0 0 1 .12-.18c.06-.06.1-.12.11-.16.17-.36.3-.7.4-1.03.1-.37.21-.73.33-1.08.1-.31.21-.8.32-1.43l.11-.66a14.1 14.1 0 0 1 .41-2.28Z" fill="#45434A"/><path d="m26.84 28.79.11.15-.18.37c-.13-.08-.25-.2-.35-.34.04-.02.07-.06.1-.13.01-.08.03-.13.06-.14.06-.05.15-.02.26.09Z" fill="#A0A09F"/><path d="M30.15 28.73c-.15.1-.2.24-.15.4-.58.13-1.12.38-1.63.74-.24.17-.23.32.05.44l.3.12c.28.13.56.1.82-.06.3-.19.5-.37.6-.54.07.05.13.08.19.1.07 0 .1.05.06.13-.06.15-.06.24.02.28-.4.34-.83.5-1.3.48a2.5 2.5 0 0 1-.67-.19c-.52-.2-.92-.2-1.2-.04-.42.26-.88.3-1.36.15-.03-.01-.06-.05-.1-.11l.2-.4c.53.33.98.3 1.34-.08.07-.07.07-.15 0-.24l-.55-.6.18-.37c.28.27.51.45.68.54.28.13.57.09.87-.13.75-.54 1.3-.74 1.65-.62ZM21.6 31.4c0-.33.04-.55.1-.66.13-.2.25-.42.37-.63.02-.02.01-.04 0-.05l-.03-.03c.06 0 .08-.05.07-.13 0-.08.03-.14.06-.16.44-.3.9-.55 1.4-.74.05-.03.08 0 .1.06l.14.6c.02.06 0 .1-.06.13a5.9 5.9 0 0 0-2.16 1.6Z" fill="#45434A"/><path d="M33.25 29.8c-.28.02-.4.11-.36.28.05.22.08.39.08.5l-1.45-.84c-.02-.02-.03-.04-.02-.06l.2-.67c0-.02.02-.03.05-.02l.29.13c.53.24.93.46 1.21.69Z" fill="#383838"/><path d="M30.15 29.83c-.11.17-.31.35-.6.54a.85.85 0 0 1-.83.06l-.3-.12c-.28-.12-.3-.27-.05-.44.5-.36 1.05-.6 1.63-.74l.54-.11c.08-.02.1 0 .07.08a2.3 2.3 0 0 1-.46.73Z" fill="#FEFEFE"/><path d="m25.46 29.77.51.45-.2.4c.02.03 0 .03-.03 0a2.36 2.36 0 0 1-.88-.92c.05-.05.11-.1.19-.11a.1.1 0 0 1 .1.02c.1.1.2.15.3.16Z" fill="#A0A09F"/><path d="M33.25 29.8c.71.53 1.3 1.17 1.79 1.95.02.02.01.05-.02.07l-2.66 2.05c-.05.04-.05.08.01.11.5.29.92.68 1.27 1.16.03.05.02.1-.03.12-.48.27-.93.51-1.36.71A32.54 32.54 0 0 0 30.26 37l-.01-.03v-.04l2.43-1.79c.07-.05.07-.11.01-.17a5.31 5.31 0 0 0-1.54-1.11c-.05-.03-.05-.06 0-.1l2.7-2.1c.03-.02.03-.05 0-.08l-.88-1c0-.1-.03-.27-.08-.5-.04-.16.08-.25.36-.26Z" fill="#5A5A5A"/><path d="M26.09 31.18v.03c0 .03 0 .04-.03.04-.14 0-.29-.05-.45-.13-.1-.05-.12-.02-.07.08a.7.7 0 0 0 .13.17c.05.04.07.09.08.14 0 .07-.02.09-.08.05l-.09-.06c-.1-.07-.12-.05-.07.06l.63 1.38c-.02.04.01.12.09.24.03.05.04.1.01.14-.05 0-.08-.02-.1-.05a19.4 19.4 0 0 1-1.57-3.25c-.07-.2-.04-.23.1-.06.38.44.85.85 1.42 1.22ZM22.1 29.9c.02.08 0 .12-.06.13l-1.12 1.3c-.18.21-.17.4.04.57l1.97 1.61.48.37c.05.04.05.07-.01.1-.73.31-1.16.7-1.28 1.18-.02.04 0 .08.04.1l.3.19c.03.01.04.04.03.07 0 .02-.02.03-.03.04l-.65-.33c-.05-.03-.06-.07-.03-.12.33-.47.74-.84 1.25-1.13.05-.04.05-.07 0-.1l-2.64-2.03c-.06-.05-.07-.11-.03-.18a8.2 8.2 0 0 1 1.62-1.76.09.09 0 0 1 .08-.02l.05.01Z" fill="#A0A09F"/><path d="m22.04 30.03.03.03c.01.01.02.03 0 .05l-.36.63c-.07.11-.1.33-.12.66a.47.47 0 0 0-.06.15c0 .04 0 .07.03.1l.97.8.2.34c.03.03.04.07.05.1l.15.62-1.97-1.6c-.2-.18-.22-.37-.04-.58l1.12-1.3Z" fill="#5A5A5A"/><path d="M15.69 30.45a12.91 12.91 0 0 0 2.74 6.4 12.2 12.2 0 0 0 18.8.35c1.4-1.6 2.35-3.5 2.86-5.72.09.12.18.13.26.05.06-.05.09-.04.1.04l.03.09c.03.03.06.05.1.05.39.07.49.36.3.89l-.91 2.65-.57.97a.28.28 0 0 0-.03.1c0 .03-.03.07-.08.13a.57.57 0 0 1-1.04 1.48c-.24.16-.45.37-.62.63a.2.2 0 0 1-.08.08.67.67 0 0 0-.2.16c-.04.06-.09.1-.12.13-.3.22-.58.46-.85.71-.41.39-.84.7-1.28.93-.34.19-.67.4-1 .64a.23.23 0 0 1-.13.04.81.81 0 0 0-.37.11c-.28.17-.55.28-.81.34a7.1 7.1 0 0 0-.93.3c-.13.06-.26.1-.39.12l-1.08.24c-.3.08-.76.13-1.39.16l-.53.03c-.35.03-.76.02-1.22-.02l-1.24-.1c-.2-.02-.65-.1-1.34-.23-.48-.1-.92-.24-1.34-.44a.6.6 0 0 0-.16-.04.52.52 0 0 1-.17-.05c-.16-.09-.32-.16-.47-.22a4.32 4.32 0 0 1-.47-.2l-.8-.4c-.06-.02-.2-.11-.4-.26a4.23 4.23 0 0 1-.96-.67 5.7 5.7 0 0 0-.75-.68 2.05 2.05 0 0 1-.41-.4 2.5 2.5 0 0 0-.32-.32c-.18-.17-.3-.3-.37-.41a1.42 1.42 0 0 0-.23-.27c-.1-.1-.17-.17-.21-.23-.2-.29-.41-.57-.64-.85a6.2 6.2 0 0 1-.6-.88 34.2 34.2 0 0 1-.91-1.73c-.07-.14-.1-.28-.12-.42a.92.92 0 0 0-.1-.31c-.06-.12-.1-.22-.1-.29-.05-.26-.1-.52-.18-.78a1.41 1.41 0 0 1-.06-.54c.02-.21-.02-.43-.12-.67-.13-.3-.13-.63-.02-.98 0-.03.02-.03.04-.01.08.08.16.07.24-.01a.2.2 0 0 1 .2-.06.2.2 0 0 1 .15.14 1 1 0 0 1 .02.08c.03.11.06.18.12.2.06.03.11.02.16-.05Z" fill="#45434A"/><path d="M28.44 34.5c-.08-.02-.1-.08-.06-.16a.25.25 0 0 0 .03-.12l.07-3.2.09.06c.53.34.9.45 1.08.33.48-.3.85-.7 1.13-1.18.02-.03.04-.03.07-.01l.03.02c.05.03.06.07.04.13a11.98 11.98 0 0 1-2.48 4.13ZM12.21 30.75c.1.28.16.56.2.85.05.3.11.54.19.74l.15.47c.11.4.23.7.34.87.07.11.14.3.21.56a3.56 3.56 0 0 0 .22.58c.35.78.63 1.35.85 1.7.24.39.46.76.66 1.12a.2.2 0 0 0 .11.1c.16.05.25.17.28.35 0 .04.03.08.06.11a7.73 7.73 0 0 0 .52.54v.04c0 .03.02.05.05.06.09.01.16 0 .22-.04a14.97 14.97 0 0 0 10.69 5.55c2.54.17 5-.28 7.36-1.36.11.06.3.06.54 0l-.54.3c-.21.14-.4.24-.55.3-.25.1-.5.18-.76.25l-.32.12-.26.1a11.35 11.35 0 0 1-3.13.53 13.89 13.89 0 0 1-3.87-.11c-.15 0-.26-.02-.32-.04-.49-.16-.98-.3-1.48-.4a1.4 1.4 0 0 1-.28-.1c-.14-.07-.26-.1-.34-.12a2 2 0 0 1-.75-.23c-.19-.1-.39-.2-.6-.28l-.85-.36c-.11-.05-.26-.14-.45-.27-.17-.1-.3-.19-.4-.23-.22-.11-.44-.26-.65-.44a3.9 3.9 0 0 0-.66-.44 4.89 4.89 0 0 1-1.2-.96l.01-.01c.03-.04.03-.07 0-.11-.14-.16-.3-.28-.48-.35-.27-.1-.46-.3-.58-.57-.06-.13-.17-.3-.33-.51-.05-.06-.1-.11-.11-.14a.18.18 0 0 0-.13-.08c-.1 0-.17-.06-.2-.15a.27.27 0 0 0-.08-.14 3.31 3.31 0 0 1-.68-.92c-.12-.23-.24-.3-.35-.23a17.84 17.84 0 0 1-2.35-6.62c0 .01.02 0 .04-.03Z" fill="#383838"/><path d="M27.57 30.82a36.3 36.3 0 0 0-.04 3.17c0 .1-.02.22-.07.36a.14.14 0 0 0 0 .12c.02.04.04.07.08.1.05.04.04.07-.02.1-.07.02-.12.05-.15.1a6.65 6.65 0 0 1-1.15-1.4c0-.02 0-.04.02-.05.03-.04.02-.09-.01-.14-.08-.12-.1-.2-.1-.24a3.36 3.36 0 0 1 .13-1.63l.25-.04c.1 0 .17-.03.25-.07l.81-.38Z" fill="#5A5A5A"/><path d="M27.57 30.82c.32-.03.62.03.9.2l-.06 3.2c0 .04 0 .08-.03.12-.04.08-.02.14.06.16a9.5 9.5 0 0 1-.42.36c-.11.09-.22.12-.32.1a.78.78 0 0 1-.33-.19c.03-.05.08-.08.15-.1.06-.03.07-.06.02-.1a.28.28 0 0 1-.08-.1.14.14 0 0 1 0-.12.98.98 0 0 0 .07-.36c-.03-1.05-.02-2.1.04-3.17Z" fill="#45434A"/><path d="m26.09 31.18.17.13c-.17.45-.21 1-.12 1.63l-.63-1.38c-.05-.1-.03-.13.07-.06l.1.06c.05.04.07.02.07-.05-.01-.05-.03-.1-.08-.14a.7.7 0 0 1-.13-.17c-.05-.1-.03-.13.07-.08.16.08.31.12.45.13.02 0 .03-.01.04-.04l-.01-.03Z" fill="#7D7D7D"/><path d="m22.53 32.45 1.63 1.28c.05.04.05.08-.01.1-.54.28-1.03.64-1.49 1.1-.05.06-.05.11 0 .17.24.2.6.5 1.11.87.4.3.7.53.9.7.19.15.17.18-.06.07a29.77 29.77 0 0 1-2.15-1.14v-.04c.01-.01.03-.02.03-.04.01-.03 0-.06-.02-.07l-.31-.19c-.04-.02-.06-.06-.04-.1.12-.47.55-.87 1.28-1.19.06-.02.06-.05.01-.1l-.48-.36-.15-.61a.38.38 0 0 0-.04-.1l-.21-.35Z" fill="#45434A"/><path d="M34.86 43c.18-.13.38-.23.62-.29a.23.23 0 0 0 .1-.05c.3-.28.62-.35.98-.23a15.47 15.47 0 0 1-6.76 2.47c-2.06.23-4.1.07-6.1-.5a15.53 15.53 0 0 1-9.18-7c.1-.08.23 0 .35.23.21.4.44.71.68.92.04.04.07.08.08.14.03.1.1.14.2.15.05 0 .1.03.13.08l.1.14c.17.2.28.38.34.5.12.28.31.47.58.58.18.07.34.19.48.35.03.04.03.07 0 .1v.02a4.9 4.9 0 0 0 1.2.96c.28.15.5.3.65.44.21.18.43.33.65.44.1.04.23.12.4.23.19.13.34.22.45.27l.85.36c.21.09.41.18.6.28a2 2 0 0 0 .75.23c.08.01.2.05.34.12.12.05.21.09.28.1.5.1 1 .24 1.48.4.06.02.17.03.32.04l.23.01a13.9 13.9 0 0 0 3.88.08 11.35 11.35 0 0 0 3.47-.73c.25-.07.51-.16.76-.26.15-.05.34-.15.55-.28l.54-.3Z" fill="#212121"/><defs><linearGradient id="afzq0tk4w" x1="10.42" y1="9.71" x2="68.15" y2="76.02" gradientUnits="userSpaceOnUse"><stop stop-color="#1A1E21"/><stop offset="1" stop-color="#06060A"/></linearGradient></defs></svg>