<svg width="112" height="112" xmlns="http://www.w3.org/2000/svg" viewBox="0 0 56 56"><path d="M18.111 17.322c-.287-.311-.56-.326-.651-.321a.735.735 0 00-.574.247l-5.654 5.637c-.483.439-.12 1.115.262 1.115H17v8.086l12.56 12.642c.841.66 1.44-.14 1.44-.54V33.655l15.39-12.962c.233-.205.632-.5.62-.973-.012-.518-.346-.701-.512-.72H30.073l-5.465 4.978c-2.046-2.089-6.21-6.345-6.497-6.656z" fill="#fff"/><path d="M30 43.515V34.64l-4.852 4.067L30 43.515zM24.408 37.876l-6.315-6.223L30.569 20h15.065L24.408 37.876zM18 30.359V18.722l5.977 6L18 30.358zM17 23.02v-4.298l-4.481 4.297H17z" fill="#EE8E2D"/></svg>