<svg width="112" height="112" viewBox="0 0 56 56" xmlns="http://www.w3.org/2000/svg"><path d="M29.36 13.05c.84.4 1.68.43 2.51.1 1.04-.11 2.13-.09 3.28.06.5.07.98.1 1.41.1.79.01 1.32 0 1.67.1.13.03.11.06-.04.1-.13.04-.2.1-.22.2l-.92.06c-1.1-.03-2.2-.2-3.21-.21-2.42-.01-4.12-.05-5.1-.11-.88-.05-1.93-.04-3.15.04-1.45.1-3.64-.03-5.59.2-.3.1-.6.11-.92.06a.7.7 0 0 0 .25-.05c.08-.03.08-.07 0-.1l-.1-.04c.53.05.8-.03.83-.24a7.3 7.3 0 0 1 3.08-.14 5.77 5.77 0 0 0 2.34.07.12.12 0 0 0 .03-.04c.06-.11.02-.18-.13-.2l3.98.04Z" fill="#BCB8AC"/><path d="M31.87 13.15c-.83.33-1.67.3-2.51-.1a8.87 8.87 0 0 1 2.51.1ZM25.38 13.01c.15.02.2.09.13.2l-.03.04a5.76 5.76 0 0 1-2.33-.07l2.23-.17Z" fill="#DFE4DA"/><path d="m17.97 13.42-1.05.43a.67.67 0 0 0-.56.26.33.33 0 0 1-.2.11.75.75 0 0 0-.14.05c-.12.05-.11.09.02.1l2.42.15c.04.16-.06.23-.3.22a5.33 5.33 0 0 0-.87 0l-.29.2-.56.07-.62-.14c-.1-.02-.14.01-.13.1l.62 5.66c0 .02 0 .04.02.05.15.17.33.17.54.01l1.63-.23c.53-.01.99.05 1.37.2.05.08 0 .14-.13.16-.98-.12-1.91.01-2.8.4-.31.14-.56.1-.9.17h-.07c-.05 0-.08-.03-.08-.08.02-.78-.1-1.61-.33-2.48a.2.2 0 0 0-.15-.14.3.3 0 0 1-.17-.12.25.25 0 0 1-.04-.16c.03-1.71-.04-3.1-.2-4.16 0-.03 0-.07.02-.1a.18.18 0 0 1 .08-.08 7.36 7.36 0 0 1 2.89-.78c.04 0 .03.04-.02.13Z" fill="#111317"/><path d="M20.06 13.32c-.02.2-.3.29-.83.24-.35.02-.65-.02-.9-.14l1.73-.1Z" fill="#DFE4DA"/><path d="M18.33 13.42c.25.12.55.16.9.14l.1.04c.08.03.08.07 0 .1a.7.7 0 0 1-.25.05l-2.16.1 1.05-.43c.18-.03.3-.03.36 0Z" fill="#89745E"/><path d="M37.05 13.77c-.18.46-.18.73 0 .8l-5.8.25c-3.8.1-7.59.03-11.38-.2l.13-.93c1.95-.23 4.14-.1 5.59-.2a26 26 0 0 1 3.15-.04c.98.06 2.68.1 5.1.11 1 0 2.11.18 3.21.21Z" fill="#E9FEFD"/><path d="m20 13.69-.13.93-1.41-.1-2.42-.15c-.13-.01-.14-.05-.02-.1l.15-.05a.33.33 0 0 0 .19-.11.67.67 0 0 1 .56-.26l2.16-.1c.31.05.62.03.92-.06ZM37.97 13.71c.5.19 1.09.28 1.77.28.19 0 .25.08.19.24l-2.89.33c-.17-.06-.17-.33.01-.79l.92-.06Z" fill="#D4CDBD"/><path d="m40.78 13.96-.3.08c-.11 0-.2-.02-.24-.08a.16.16 0 0 1-.03-.16.16.16 0 0 1 .06-.07.17.17 0 0 1 .08-.02c.22-.02.37.06.43.25Z" fill="#111317"/><path d="M40.78 13.96a.2.2 0 0 1 .12 0c.09.02.12.07.1.15-.08.24-.1.47-.08.71.04.4.05.63.05.68a145.2 145.2 0 0 1-.21 5.32c-.03.48-.28.75-.74.81l-.1.1c-.34-.25-.57-.4-.7-.46-.43-.2-.86-.3-1.3-.31-.32 0-.54-.1-.65-.31l2.55.54c.08.07.14.15.17.24.02.05.06.07.11.06a.1.1 0 0 0 .06-.03l.04-.12c.02-.3.13-.6.14-.88.04-2.03.15-4.04.31-6.03.03-.11-.03-.18-.17-.2v-.2l.3-.07Z" fill="#97A7A2"/><path d="M40.65 14.43c-.16 1.99-.27 4-.31 6.03-.01.29-.12.58-.14.88 0 .06-.02.1-.04.12a.1.1 0 0 1-.06.03c-.05 0-.09-.01-.1-.06a.57.57 0 0 0-.18-.24c.05 0 .11 0 .18-.02.08-.02.12-.07.12-.15 0-.12-.08-.2-.22-.24-.1-.02-.28-.06-.57-.1.3-.15.28-.5.44-.74a.4.4 0 0 0 .06-.2l.2-4.53c0-.1-.04-.18-.14-.22a.81.81 0 0 0-.58-.05c-.15.04-.23 0-.26-.14-.02-.06-.06-.1-.12-.1h-.09l1.81-.27Z" fill="#426470"/><path d="M19.87 14.62c3.79.23 7.58.3 11.37.2V15c-1.38.07-2.7.13-4.14.08-2.7-.09-5.43-.12-8.16-.08l-1.44-.07c-.12 0-.18-.07-.2-.2.14-.01.43-.01.87.01.23.02.33-.06.29-.22l1.41.1Z" fill="#723D2B"/><path d="M38.84 14.7a.16.16 0 0 1 .09 0c.06 0 .1.04.12.1.03.14.11.18.26.14-1.14.36-1.99.34-2.56-.06a6.04 6.04 0 0 1 2.09-.18Z" fill="#89745E"/><path d="M17.3 14.74c.02.12.08.19.2.2.5.01.99.03 1.44.06.45.12.9.19 1.35.2.7.03 1.16.05 1.34.07.88.1 1.7.16 2.43.17 2.58.01 5.8.07 8.76-.1l3.16-.17c.27-.03.44.01.49.11-4.21.31-8.43.4-12.65.29-.91-.03-1.83-.1-2.74-.2a4.6 4.6 0 0 0-1.03.04l-1.36-.22a5.1 5.1 0 0 1-1.69-.24l.3-.21Z" fill="#5D2C2A"/><path d="m16.44 15.01.22 1.7c.05.43.08 1 .1 1.7 0 .75.05 1.51.11 2.28-.2.16-.39.16-.54 0a.1.1 0 0 1-.02-.06l-.62-5.66c0-.09.04-.12.13-.1l.62.14Z" fill="#635D4F"/><path d="M36.75 14.88c.57.4 1.43.42 2.56.06.21-.05.4-.04.58.05.1.04.14.12.14.22l-.2 4.54a.4.4 0 0 1-.06.2c-.16.23-.15.58-.44.74-.39 0-.76-.07-1.12-.2a.5.5 0 0 0 0-.43c-.21-1.6-.6-3.16-1.16-4.65a1.1 1.1 0 0 1-.58-.13c-.05-.1-.22-.14-.5-.11.07-.08.09-.15.06-.21-.02-.05-.06-.08-.13-.1.43-.06.72-.06.85.02Z" fill="#BCB8AC"/><path d="M35.9 14.86c.07.02.11.05.13.1.03.06.01.13-.05.2l-3.16.19c-2.96.16-6.18.1-8.76.09-.74 0-1.55-.06-2.43-.17-.18-.02-.63-.04-1.34-.07-.46-.01-.9-.08-1.35-.2 2.73-.04 5.45-.01 8.16.08 1.44.04 2.76 0 4.14-.08l4.66-.14Z" fill="#E9FEFD"/><path d="M17 14.95c.55.17 1.11.25 1.69.24l-.45 4.57c-.04.31.11.46.45.43l1.13-.09.5.06-1.82.3-1.63.23c-.06-.77-.1-1.53-.12-2.27a20 20 0 0 0-.31-3.4l.56-.07Z" fill="#D4CDBD"/><path d="M20.05 15.41a11.24 11.24 0 0 0-.23 4.7l-1.13.08c-.34.03-.49-.12-.45-.43l.45-4.57 1.36.22Z" fill="#DFE4DA"/><path d="M36.47 15.28c.11.08.3.12.58.13-.19.22-.26.5-.22.84l-.92 3.05c-.09.05-.2.06-.37.04l-3.99.6c.08.05.02.05-.19-.01L30 19l-3.1-2.12c-.17-.2-.58-.29-1.2-.24L22 20.1l-1.7.07-.5-.06c-.25-1.56-.17-3.12.24-4.69.44-.05.78-.06 1.03-.04.91.1 1.82.17 2.74.2 4.22.12 8.44.02 12.65-.29Z" fill="#E9FEFD"/><path d="m38.22 20.06-1.02-.24a.3.3 0 0 1-.17-.1.28.28 0 0 1-.06-.16l-.14-3.31c-.04-.34.03-.62.22-.84.56 1.5.95 3.04 1.17 4.65Z" fill="#D4CDBD"/><path d="m36.83 16.25.14 3.3c0 .07.02.13.06.18.05.05.1.08.17.1l1.02.23a.5.5 0 0 1-.01.43l-1.03-.13a.36.36 0 0 1-.2-.09l-1.07-.97.92-3.05Z" fill="#DFE4DA"/><path d="m26.9 16.88-1.8 1.34c-.1.18-.26.35-.47.51-.09.06-.08.1.02.13l.18.05c.1.03.13.08.09.17-.13.26-.1.55.09.86.05.1.01.17-.11.2-.2-.15-.45-.6-.61-.67a.4.4 0 0 0-.21-.03c-.08.02-.1.05-.06.12l.23.35c.09.2.09.39.01.55-.03.07-.1.1-.18.1-.46 0-.75-.27-.87-.8.05-.16.11-.33.25-.46a44.7 44.7 0 0 0 2.08-1.95c.32-.33.37-.56.15-.7.63-.06 1.03.02 1.2.23Z" fill="#331311"/><path d="M25.69 16.64c.22.15.17.38-.15.71-.67.67-1.36 1.32-2.08 1.95-.14.13-.2.3-.25.46a.62.62 0 0 1-.25.14c-.28-.06-.52.1-.7.5l-.12-.08-.13-.23 3.68-3.45Z" fill="#97A7A2"/><path d="M29.99 19c-.18.08-.27.18-.25.3 0 .05.02.08.05.11.02.03.05.06.1.07l.3.12c-.37.02-.7-.12-1-.42a.4.4 0 0 1-.1-.2 1 1 0 0 0-.84-.86l-.91-.48c-.08-.03-.13-.02-.16.06-.19.49-.56.68-1.12.57a3 3 0 0 0-.96-.05l1.8-1.34L29.98 19Z" fill="#723D2B"/><path d="M28.25 18.12c-.2-.03-.34.02-.38.17-.02.04-.02.1 0 .14l.23.44c.03.07.01.1-.07.12-.39.06-.65-.06-.78-.36a.26.26 0 0 0-.12-.13.27.27 0 0 0-.17-.03c-.9.16-1.46.54-1.68 1.13.03.3.3.55.81.77a.16.16 0 0 0-.06.16l-.74-.19c-.2-.05-.32-.11-.4-.2.13-.03.17-.1.12-.2-.19-.31-.22-.6-.1-.86.05-.09.02-.14-.08-.17l-.18-.05c-.1-.02-.1-.07-.02-.13.21-.16.37-.33.47-.51a3 3 0 0 1 .96.05c.56.1.93-.08 1.12-.57.03-.08.08-.1.16-.06l.91.48Z" fill="#AA8154"/><path d="M28.25 18.12c.47.1.75.4.84.86a.4.4 0 0 0 .1.2c.3.3.63.44 1 .42.6.12.83.41.7.88-.2-.35-.38-.43-.82-.43-.32 0-.6-.12-.85-.36a.37.37 0 0 0-.2-.1c-.27-.03-.46.07-.6.32-.04.1-.03.18.02.27.1.13.07.22-.07.25a10.11 10.11 0 0 1-1.1.16.11.11 0 0 0-.02.17c.08.08.11.15.11.21a.12.12 0 0 1-.04.09.13.13 0 0 1-.1.03c-.36-.02-.69.07-.99.24a.18.18 0 0 0-.05.05.16.16 0 0 0-.03.07l-.01.08h-.17c-.1.01-.12.05-.05.12l.27.26c.06.06.08.13.08.2-.02.19.17.28.57.27.11 0 .14-.04.07-.13l-.42-.53a.25.25 0 0 0 .16-.1.2.2 0 0 1 .18-.1c.12 0 .2.08.24.21.1.29.25.5.44.63.07.05.15.06.23.04l.86-.3c-.16.12-.23.28-.22.5l-2.13-.03a9.45 9.45 0 0 1-2-2.66l-.23-.35c-.04-.07-.02-.1.06-.12a.4.4 0 0 1 .2.03c.17.07.42.52.62.67.07.09.2.15.39.2-.14.1-.19.18-.14.26.31.5.68.58 1.1.27.07-.06.08-.12.03-.19a.61.61 0 0 0-.25-.15.16.16 0 0 1 .06-.16l1.46-.45c.08-.03.08-.06.01-.1-.33-.2-.54-.44-.65-.73-.1-.26-.27-.31-.52-.16l-1.1.67c.2-.6.77-.97 1.67-1.13.06 0 .12 0 .17.03.06.03.1.07.12.12.13.3.4.43.78.37.08-.01.1-.05.07-.12l-.22-.44a.18.18 0 0 1-.01-.14c.04-.15.17-.2.38-.17Z" fill="#D4CDBD"/><path d="M26.1 20.37c-.52-.22-.79-.48-.82-.77l1.11-.67c.25-.15.42-.1.52.16.1.29.32.53.65.72.07.05.07.08-.01.1l-1.46.46Z" fill="#E9FEFD"/><path d="m29.99 19 1.37.93c.32.39.5.76.56 1.1-.3.04-.57.14-.8.33l-.8.1c.18-.19.4-.36.67-.5.05-.02.05-.06.01-.1a.12.12 0 0 0-.07-.03c-.03 0-.07 0-.13.03-.35.18-.65.2-.9.1l1-.48c.12-.47-.12-.76-.71-.88l-.3-.12a.23.23 0 0 1-.1-.07.21.21 0 0 1-.05-.1c-.02-.13.07-.23.25-.31Z" fill="#331311"/><path d="M35.54 19.34c-.22.23-.37.35-.43.36l-1.68.08a.18.18 0 0 0-.11.05.16.16 0 0 0-.05.11c0 .09.02.14.08.15-.53.2-1.38.38-1.8-.15l4-.6Z" fill="#97A7A2"/><path d="m35.9 19.3 1.08.97c.06.05.13.08.2.1l1.03.12c.36.13.73.2 1.12.2a5 5 0 0 1 .57.1c.14.03.22.11.22.23 0 .08-.04.13-.12.15a.55.55 0 0 1-.18.02l-2.55-.54c.06.18.06.3 0 .34-.08.06-.14.06-.2-.02l-.16-.25c-.06-.08-.15-.11-.25-.08-.17.05-.31.05-.42 0a.3.3 0 0 1-.15-.16.8.8 0 0 0-.23-.33.2.2 0 0 0-.22-.02c-.2.08-.38.13-.58.16-.25.03-.38-.07-.37-.3a.88.88 0 0 0 .42-.29c.06 0 .2-.13.43-.36.16.02.28.01.37-.04Z" fill="#331311"/><path d="m30.9 20.48-1 .48c-.45.26-.88.64-1.3 1.15l-.86.29a.24.24 0 0 1-.23-.04c-.2-.13-.34-.34-.44-.63-.04-.13-.12-.2-.24-.2a.2.2 0 0 0-.18.08.25.25 0 0 1-.16.1l-.35-.18.01-.08c0-.02.01-.05.03-.07a.18.18 0 0 1 .05-.05c.3-.17.63-.26 1-.24a.14.14 0 0 0 .09-.03.12.12 0 0 0 .04-.09c0-.06-.03-.13-.1-.2a.11.11 0 0 1-.02-.12c0-.03.02-.05.04-.06a10.15 10.15 0 0 0 1.1-.16c.13-.03.16-.12.07-.25a.24.24 0 0 1-.02-.27c.13-.25.32-.35.58-.32.09.01.15.05.21.1.24.24.53.36.85.36.44 0 .63.08.82.43Z" fill="#E9FEFD"/><path d="M35.1 19.7a.88.88 0 0 1-.41.3c-.47.44-1.02.73-1.64.86-.19.04-.3.16-.44.29-.08.07-.14.06-.2-.03a.6.6 0 0 1-.04-.49c.01-.03.03-.05.06-.07a.22.22 0 0 1 .1-.04c.32-.05.94.04 1.35-.3.08-.06.07-.1-.03-.1l-.5-.03c-.06-.01-.08-.06-.08-.15 0-.04.02-.08.05-.1a.18.18 0 0 1 .11-.06l1.68-.08Z" fill="#DFE4DA"/><path d="M23.21 19.76c.12.53.4.8.87.8.09 0 .15-.03.18-.1.08-.16.08-.34 0-.55.44.92 1.1 1.8 1.99 2.67a8.12 8.12 0 0 1-3.53-.06l.67-.07 1.76-.03c.19 0 .21-.06.07-.19L23.79 21c-.42-.31-.7-.68-.83-1.1a.62.62 0 0 0 .25-.14Z" fill="#723D2B"/><path d="M22.96 19.9c.14.42.41.79.83 1.1a.9.9 0 0 0-.5.02c-.11.04-.12.1-.02.16.27.16.56.26.87.3.03 0 .06.02.07.04l.04.08c.01.03 0 .04-.03.04-.31 0-.6.08-.84.22a.24.24 0 0 0-.12.19c-.01.13.03.27.13.4l-.67.07c-.6 0-1.07-.12-1.44-.34l.98-1.78c.18-.4.42-.56.7-.5Z" fill="#331311"/><path d="M31.55 19.94c.42.53 1.27.35 1.8.15l.5.03c.1 0 .11.04.03.1-.41.34-1.03.25-1.35.3a.22.22 0 0 0-.1.04.15.15 0 0 0-.06.07.6.6 0 0 0 .05.49c.05.09.11.1.19.03.14-.13.25-.25.44-.3A3.28 3.28 0 0 0 34.7 20c0 .23.12.33.38.3.19-.03.38-.08.57-.16a.2.2 0 0 1 .22.02.8.8 0 0 1 .23.33.3.3 0 0 0 .15.16c.1.05.25.05.42 0 .1-.03.19 0 .25.08l.16.25c.06.08.12.08.2.02.06-.05.06-.16 0-.34.11.21.33.31.65.3a.9.9 0 0 0-.22.02.26.26 0 0 0-.06.1.25.25 0 0 0 .03.22c.03.04.06.06.1.08.21.11.38.26.5.46a.6.6 0 0 0-.3.21c-.23-.33-.44-.52-.65-.56-.48-.11-.54 0-.17.31l.27.24a.83.83 0 0 1-.64.25.49.49 0 0 0-.22-.16l.11-.02c.07-.01.1-.05.1-.12.01-.68-.27-1.06-.85-1.13-.08 0-.15 0-.19.03-.05.04-.08.08-.09.13 0 .08.03.14.1.18.2.1.36.26.5.45a.89.89 0 0 0-.48-.08.23.23 0 0 0-.18.12.53.53 0 0 1-.36.28.1.1 0 0 1-.06 0 .13.13 0 0 1-.06-.05c-.02-.04-.01-.07.03-.09a.65.65 0 0 0 .3-.26c.04-.08.03-.15-.04-.2-.16-.16-.15-.3.05-.43a.1.1 0 0 0 .04-.04.1.1 0 0 0 0-.06.1.1 0 0 0-.03-.05 4.26 4.26 0 0 0-2.07.36.11.11 0 0 0 0 .12c0 .02.02.03.04.04l1.09.5a.1.1 0 0 1 .06.09c0 .02 0 .05-.02.07a.14.14 0 0 1-.08.04h-.12c-.1-.02-.28-.13-.53-.33a.07.07 0 0 0-.08 0 2.78 2.78 0 0 1-.09.04.07.07 0 0 0-.02.05l.01.03.44.7c-.35.22-.67.31-.96.27-.8-.2-1.61-.2-2.42 0-.06.09-.2.03-.41-.17l1.63-1.55a2.48 2.48 0 0 0-.56-1.11c.21.06.27.06.19.01Z" fill="#5D2C2A"/><path d="m22.01 20.09.13.23c-.15.2-.33.36-.54.45-.15.06-.37.06-.66 0-.35-.09-.7-.12-1.07-.12-.38-.14-.84-.2-1.37-.2l1.81-.29 1.7-.07Z" fill="#D4965D"/><path d="m22.26 20.4-.98 1.78a1 1 0 0 1-.23-.29c-.04-.07-.09-.1-.17-.09a.6.6 0 0 0-.41.21.17.17 0 0 0-.03.17l.05.07a.2.2 0 0 0 .09.05l.95.2c-.05.2.03.3.22.33a.71.71 0 0 1-.28.15l-1.29-.1a.34.34 0 0 0-.35 0c-.21-.02-.36-.07-.44-.15.06-.22.23-.33.5-.35.03 0 .05 0 .07-.02a.1.1 0 0 0 .04-.06c.02-.05 0-.08-.06-.1l-.6-.09c-.08-.13-.27-.2-.58-.22-.03-.1-.02-.14.02-.16.17-.07.33-.15.49-.24l1.01-.28a.43.43 0 0 1 .24 0l.72.18h.03l.04-.06c.03-.03.02-.05-.02-.06a2.07 2.07 0 0 1-.78-.3.34.34 0 0 0-.24-.05c-.22.03-.4 0-.53-.1.14-.02.18-.08.13-.17.36 0 .72.03 1.07.12.29.06.51.06.66 0 .21-.1.4-.24.54-.45l.12.08Z" fill="#AA5933"/><path d="m25.29 20.34.74.2c.12.04.2.1.25.14.05.07.04.13-.03.19-.42.31-.79.22-1.1-.27-.05-.08 0-.16.14-.26ZM19.74 20.82c.13.1.31.13.53.1.09-.02.17 0 .24.05.24.15.5.25.78.3.04.01.05.03.03.06l-.05.06h-.03l-.72-.18a.43.43 0 0 0-.24 0l-1.01.28-.1-.01c-.06-.05-.06-.08 0-.1.18-.08.31-.15.4-.23.12-.08.1-.12-.04-.11-.21.01-.42.08-.62.2-.16.1-.3.1-.44.02a.3.3 0 0 0-.22-.06c-.3.03-.54.1-.74.2a.22.22 0 0 0-.13.19c0 .07 0 .14.02.21.02.07.02.11.01.14-.02.06-.08.08-.16.07l-.31-.07c-.4-.11-.71-.25-.96-.42a.36.36 0 0 0 .07-.13c.33-.07.58-.03.9-.17.88-.39 1.8-.52 2.79-.4Z" fill="#E9FEFD"/><path d="M28.7 20.78c.12-.02.14.01.06.1a.42.42 0 0 1-.36.15c-.19-.01-.2-.07-.05-.17.05-.03.16-.06.35-.08Z" fill="#DFE4DA"/><path d="M36.24 21.64c.02.3.13.46.32.48.1.04.18.1.22.16l-2.7.22-.44-.7a.07.07 0 0 1 .01-.1h.03l.06-.04a.07.07 0 0 1 .08.01c.25.2.42.31.53.33h.12c.03 0 .06-.02.08-.04a.12.12 0 0 0 .02-.07.1.1 0 0 0-.06-.1l-1.09-.49a.12.12 0 0 1-.05-.04.12.12 0 0 1 .05-.17 4.26 4.26 0 0 1 2.03-.31.1.1 0 0 1 .03.11.1.1 0 0 1-.04.04c-.2.14-.21.27-.05.42.07.06.08.13.03.2a.65.65 0 0 1-.29.27c-.04.02-.05.05-.03.1l.06.04a.1.1 0 0 0 .06 0 .53.53 0 0 0 .36-.28c.04-.07.1-.1.18-.12.14-.02.3 0 .48.08Z" fill="#E0BB7B"/><path d="M30.33 21.47c-.26.4-.71.76-1.35 1.07-.15.07-.35.09-.6.05 0-.21.07-.37.22-.48.42-.5.85-.89 1.3-1.15.25.1.55.08.9-.1l.13-.03c.03 0 .05.02.07.03.04.04.04.08-.01.1-.27.14-.5.31-.66.5Z" fill="#FDD352"/><path d="M36.56 22.12c-.2-.02-.3-.18-.32-.48-.14-.2-.3-.34-.5-.45a.17.17 0 0 1-.1-.18c.01-.05.04-.1.1-.13.03-.03.1-.04.18-.03.58.07.86.45.86 1.13 0 .07-.04.1-.1.12l-.12.02Z" fill="#331311"/><path d="m23.79 21 1.43 1.23c.14.13.12.2-.07.2l-1.76.02a.61.61 0 0 1-.13-.4.23.23 0 0 1 .12-.19c.25-.14.53-.22.84-.22.03 0 .04-.01.03-.04l-.04-.08a.08.08 0 0 0-.07-.04c-.3-.04-.6-.14-.87-.3-.1-.06-.1-.12.01-.16a.9.9 0 0 1 .51-.02Z" fill="#8B140B"/><path d="m31.92 21.04-1.63 1.55c-.1.1-.25.1-.46.03l1.29-1.26c.23-.19.5-.3.8-.32Z" fill="#D4CDBD"/><path d="M37.92 20.96a3.23 3.23 0 0 1 2 .77l-1.15.33c-.16.04-.32-.04-.5-.23a1.2 1.2 0 0 0-.5-.46.25.25 0 0 1-.07-.4l.22-.01Z" fill="#8B140B"/><path d="M19.27 21.49c-.16.09-.32.17-.49.24-.04.02-.05.07-.02.16a.38.38 0 0 0-.1-.13c-.05-.04-.1-.05-.15-.03a.26.26 0 0 0-.05.04.1.1 0 0 0-.03.07c0 .03 0 .05.02.07a.7.7 0 0 0 .56.28c-.57.17-1.15.1-1.76-.18.08.01.14-.01.16-.07.01-.03 0-.07-.01-.14a.54.54 0 0 1-.02-.21.22.22 0 0 1 .13-.18c.2-.11.45-.18.74-.21a.3.3 0 0 1 .22.06c.13.09.28.08.44-.01.2-.13.4-.2.62-.21.15-.01.16.03.05.11-.1.08-.23.15-.4.22-.07.03-.07.06-.02.1.03.03.06.03.1.02Z" fill="#E0BB7B"/><path d="M22.3 21.44c.1-.1.14-.22.07-.28-.06-.07-.2-.04-.3.05-.1.1-.13.23-.07.29.07.06.2.04.3-.06Z" fill="#696868"/><path d="m31.12 21.36-1.29 1.26-.85-.08a3.32 3.32 0 0 0 1.35-1.07l.79-.11Z" fill="#E48620"/><path d="M37.97 22.04h-.55l-.27-.25c-.37-.32-.3-.42.17-.31.2.04.42.23.65.56Z" fill="#D4965D"/><path d="M15.98 21.52c.25.17.57.3.96.42l-.07.71c-.01.08 0 .15.03.23l.34.86a.2.2 0 0 0 .08.1c.16.11.3.25.4.41l.54 1.7.23 1.05c0 .1 0 .17-.04.18a.19.19 0 0 1-.24-.06l-1.35-1.97a.32.32 0 0 0-.16-.11.33.33 0 0 0-.36.1.3.3 0 0 0-.07.17c0 .2.05.31.18.35.07.03.13.07.18.13.6.72 1.06 1.52 1.4 2.38.18.43 0 .94.42 1.52l.85.95a.55.55 0 0 1-.48.22l-.1.03h-.13c-.19-.16-.31-.36-.37-.58.12-.12.1-.24-.04-.37a.45.45 0 0 0-.32-.1 1 1 0 0 0-.46-.53.2.2 0 0 1-.12-.17l-.08-.56a1.9 1.9 0 0 1-.05-1 .56.56 0 0 0-.09-.48l-.2-.3c-.12-.17-.18-.15-.2.04l-.09 1.12c-.19.1-.38.17-.57.2a1.4 1.4 0 0 0-.35-.6.3.3 0 0 1-.08-.2l-.1-5.64v-.02c.07-.27.24-.33.5-.18Z" fill="#111317"/><path d="m26.14 21.53.35.19.42.53c.07.09.04.13-.07.13-.4 0-.59-.08-.57-.26a.25.25 0 0 0-.08-.21l-.27-.26c-.07-.07-.05-.1.05-.11l.17-.01Z" fill="#89745E"/><path d="M18.77 21.89c.3.01.5.09.56.22l-.32.08a.7.7 0 0 1-.56-.28.1.1 0 0 1-.02-.07.1.1 0 0 1 .03-.07.26.26 0 0 1 .05-.04c.05-.02.1-.01.15.03.04.03.07.07.1.13Z" fill="#D4CDBD"/><path d="M40.02 21.63c.23.04.34.1.32.17a5.27 5.27 0 0 0 .07 2.41.07.07 0 0 1-.05.05h-.04c-.06-.03-.13-.1-.2-.2.01-.29-.25-.5-.77-.64-1.25.48-1.95 1.5-2.11 3.02l-.35 1.25c-.21-.16-.28-.5-.21-1l-.07-.06c.06-.47.1-.84 0-1.35a1.9 1.9 0 0 1 .15-1.18c.12-.23.06-.3-.19-.18l-1.93.9c-.1.05-.13.12-.08.22l.1.21c.04.05.05.11.05.17l-.07 1.49c-.1.27-.22.4-.36.37a5.94 5.94 0 0 0-2.96.17.2.2 0 0 1-.14-.01.18.18 0 0 0-.1 0c-.41-1.13-.23-2.1.54-2.9a2.01 2.01 0 0 1 1.81-.56l.86.25c.45.13.85.05 1.04-.36.86-.2 1.6-.6 2.22-1.18.06-.05.05-.07-.03-.06l-.67.1-2.6.14c-1.22.25-2.43.35-3.64.3l-1.07-.2a2.61 2.61 0 0 0-1.1.05l-1.55-.12c-.33-.03-.37.07-.13.28.28.25.65.5 1.12.74.43.16.82.1 1.18-.2.05-.03.1-.06.14-.06.06 0 .12.02.15.08.02.02.03.06.02.1l-.01.12-1.84 1.33-3.74-2.17a1.15 1.15 0 0 0-.48-.15l-1.55-.14c-.2-.03-.27-.13-.22-.32.4.11.8.12 1.19.01 1.2.28 2.37.3 3.53.06l2.13.01c.25.04.45.02.6-.05l.85.08c.21.07.36.06.46-.03.21.2.35.26.41.18.81.16 1.62.16 2.42 0 .3.03.61-.06.96-.27l2.7-.22c.27 0 .49-.08.64-.25l.55.01c.1-.1.2-.18.3-.2.18.18.34.26.5.22l1.16-.33.09-.1Z" fill="#331311"/><path d="M21.28 22.18a2.77 2.77 0 0 0 1.44.34c-.4.1-.8.1-1.2-.01l-.94-.21a.2.2 0 0 1-.09-.05.18.18 0 0 1-.05-.07.17.17 0 0 1 .03-.17.6.6 0 0 1 .41-.2c.08-.02.14.01.17.08.04.1.12.2.23.3Z" fill="#E9FEFD"/><path d="M17.25 22c.6.3 1.2.36 1.76.2l.32-.09.6.1c.06 0 .09.04.07.09a.1.1 0 0 1-.04.06.12.12 0 0 1-.07.02c-.27.02-.44.13-.5.35l-1.67-.2a.18.18 0 0 0-.13.04.16.16 0 0 0-.05.13l.19 1.55c-.11-.16-.25-.3-.41-.41a.2.2 0 0 1-.08-.1l-.34-.86a.47.47 0 0 1-.03-.23l.07-.7.31.06Z" fill="#331311"/><path d="M19.4 22.73c.07.08.22.13.43.16 0 .38-.06.96-.22 1.73-.05.28.03.47.24.57-.08.18-.19.34-.32.47a.38.38 0 0 1-.2.1l-1.07.19-.53-1.7-.2-1.55a.15.15 0 0 1 .06-.13.17.17 0 0 1 .13-.05l1.67.21Z" fill="#F3A215"/><path d="M35.33 23.87c-.5 0-.8-.14-.9-.42 1 .14 1.8-.1 2.42-.73l.67-.09c.08-.01.09.01.03.06-.62.58-1.36.98-2.22 1.18Z" fill="#D4965D"/><path d="M36.85 22.72a2.7 2.7 0 0 1-2.41.73c-.24-.2-.3-.4-.18-.58l2.6-.15Z" fill="#FED688"/><path d="m20.18 22.88.12 1.45a.68.68 0 0 0-.4.03c-.08.04-.11.1-.1.18l.05.65c-.21-.1-.3-.29-.24-.57a8.6 8.6 0 0 0 .22-1.73.34.34 0 0 1 .35-.01Z" fill="#AA8154"/><path d="M21.47 22.98c.59.26.99.6 1.2 1.03-1.48.4-1.71 1.78-1.36 3 .07.13.12.25.13.37-.58-.33-.44-1.16-.5-1.72 0-.08-.04-.14-.13-.16a.42.42 0 0 0-.29.03l-.22-.16v-1.04l-.12-1.45 1.29.1Z" fill="#FABB27"/><path d="m21.75 22.83 1.55.14c.17.01.34.07.48.15l3.74 2.17c.76.16 1.68.4 2.76.7.22.05.32.19.29.4-.65-.1-1.3-.17-1.95-.24a8.73 8.73 0 0 1-3.78-1.34c-.1-.06-.17 0-.22.16a2.3 2.3 0 0 0-1.96-.96c-.2-.43-.6-.77-1.2-1.03.14-.04.23-.1.29-.15Z" fill="#F3A215"/><path d="m28.44 23.02.18.04c.03 0 .05.02.07.04a.12.12 0 0 1 .01.14.13.13 0 0 1-.06.05c-.33.13-.58.34-.76.63a5.25 5.25 0 0 1-1.12-.74c-.24-.21-.2-.3.13-.28l1.55.12Z" fill="#C84413"/><path d="M34.26 22.87c-.12.19-.06.38.18.58.1.28.4.42.9.42-.2.4-.6.49-1.05.36l-.86-.25c.06-.34-.08-.53-.42-.56-.15-.02-.35.02-.61.1-.5.18-1.02.31-1.55.41a.6.6 0 0 1-.42-.28.2.2 0 0 0-.18-.1c-.33 0-.62.14-.9.41l.02-.11c0-.05 0-.09-.02-.11a.16.16 0 0 0-.15-.08.28.28 0 0 0-.14.07c-.36.29-.75.35-1.18.19.18-.29.43-.5.76-.63a.13.13 0 0 0 .06-.05.12.12 0 0 0-.01-.14.13.13 0 0 0-.07-.04l-.18-.04c.37-.1.74-.11 1.1-.05l1.07.2c1.2.05 2.42-.05 3.65-.3Z" fill="#8B140B"/><path d="M26.5 24.36c.42-.2.36-.37-.19-.55-.16-.06-.3-.01-.42.13a4.56 4.56 0 0 1-1.37-.67c-.18-.13-.16-.2.06-.2.56-.02 1.36-.2 1.73.08.3.22.51.41.64.57l.21.47a.8.8 0 0 0 .3.33c.06.05.06.07-.02.08-.34.03-.65-.05-.94-.24ZM33.43 23.98c-.72-.1-1.32.08-1.8.56.02-.24-.24-.45-.78-.6.53-.1 1.05-.24 1.55-.41.26-.09.46-.13.6-.11.35.03.49.22.43.56Z" fill="#C84413"/><path d="m39.35 23.42.12 1.78c-.68.03-.98.56-1.3 1.05-.09-.22-.19-.3-.31-.24-.17.07-.38.21-.62.43.16-1.53.86-2.54 2.1-3.02Z" fill="#D4965D"/><path d="m40.12 24.06-.32 1.76a.91.91 0 0 0-.33-.62l-.12-1.78c.52.14.78.35.77.64Z" fill="#89745E"/><path d="M30.85 23.93c.54.16.8.37.77.6-.77.81-.95 1.78-.54 2.9.02-.05.03-.02.03.1-.04.02-.08.01-.12-.03a.12.12 0 0 1-.03-.09.4.4 0 0 0-.15-.36.35.35 0 0 1-.11-.18l-.13-.49c.03-.2-.07-.33-.3-.4-1.07-.3-2-.53-2.75-.7l1.84-1.32c.27-.27.56-.41.89-.41a.2.2 0 0 1 .18.1.6.6 0 0 0 .42.28Z" fill="#E26D0D"/><path d="m26.5 24.36-.61-.42c.12-.14.26-.19.42-.13.55.18.61.36.2.55Z" fill="#F3A215"/><path d="M36.61 26.63c-.08-.19-.12-.4-.1-.62 0-.19-.09-.27-.29-.26l-1.05.11c-.23.02-.33.14-.32.36.02.32-.05.64-.22.96a.58.58 0 0 1 0-.27l.08-1.49a.33.33 0 0 0-.04-.17l-.1-.21c-.06-.1-.03-.17.07-.22l1.93-.9c.25-.11.3-.05.2.18a1.9 1.9 0 0 0-.15 1.18c.09.5.05.88 0 1.35Z" fill="#E48620"/><path d="M22.66 24c.8-.01 1.45.3 1.96.98.1.07.18.18.23.33l.07 1.43c0 .08-.02.16-.07.22a.35.35 0 0 1-.2.12c-1.09.21-2.2.19-3.34-.07-.35-1.22-.12-2.6 1.35-3Z" fill="#331311"/><path d="M32.91 26.09c.53 0 .96-.42.96-.92s-.43-.92-.96-.92a.94.94 0 0 0-.96.92c0 .5.43.92.96.92Z" fill="#E0BB7B"/><path d="M20.3 24.33v1.04a.37.37 0 0 0-.14.1l-.3-.28-.07-.65c0-.08.03-.14.11-.18.1-.05.23-.06.4-.03Z" fill="#BCB8AC"/><path d="M22.54 26.07c.52.2 1.1 0 1.3-.44.18-.45-.09-.98-.61-1.18-.53-.2-1.1-.01-1.3.44-.19.44.08.97.6 1.18Z" fill="#E9FEFD"/><path d="m30.57 26.38.13.5c.02.06.06.13.11.17.11.1.16.21.15.36 0 .03 0 .06.03.09.04.04.08.05.12.02.07.07.12.16.17.29l-.27-.14a.55.55 0 0 0-.3-.03c-.83.13-1.63.05-2.39-.24-.16-.29-.34-.35-.55-.21l-2.62-.22a3.13 3.13 0 0 0-.3-1.66.7.7 0 0 0-.23-.33c.05-.18.12-.23.21-.17a8.73 8.73 0 0 0 3.79 1.34l1.95.23Z" fill="#FABB27"/><path d="M18.49 27c.13.8.3 1.4.52 1.8.17.3.33.63.47.97l-1.03-.08c-.41-.58-.24-1.09-.41-1.52a9.04 9.04 0 0 0-1.4-2.39.37.37 0 0 0-.19-.12c-.13-.04-.19-.16-.18-.35a.3.3 0 0 1 .07-.18c.04-.05.1-.08.16-.1a.33.33 0 0 1 .2 0c.07.03.12.07.16.12l1.36 1.97a.19.19 0 0 0 .23.06c.03-.01.04-.08.04-.18Z" fill="#E48620"/><path d="M20.16 25.47c-.1.44-.1.89-.02 1.33.09.45.01.81.06 1.18 0 .04.02.08.04.11.03.04.06.06.1.08.08.03.14.08.17.13a.09.09 0 0 1-.02.1.1.1 0 0 1-.04.03c-.29.09-.54.25-.74.49-.06.06-.06.12.02.17.2.16.4.22.61.2.09.8.3 1.5.67 2.13l-.52.01a4.19 4.19 0 0 1-1.01-1.66 9.5 9.5 0 0 0-.47-.97c-.22-.4-.4-1-.52-1.8l-.23-1.05 1.06-.18a.38.38 0 0 0 .2-.1c.14-.14.25-.3.33-.48l.31.28Z" fill="#FABB27"/><path d="M39.47 25.2c.18.14.29.35.33.62l-.03.58c0 .05-.02.09-.05.12a.19.19 0 0 1-.12.05c-.1.01-.18-.04-.24-.16v-.86a.1.1 0 0 0-.03-.06.1.1 0 0 0-.04-.03.1.1 0 0 0-.1.01c-.55.44-.8.98-.74 1.64-.03.2-.13.5-.33.62a.51.51 0 0 0-.2.23.23.23 0 0 1-.18.14l-.17.04a.43.43 0 0 0-.17.08l-.7.55c-.12.07-.33.07-.66-.02a.19.19 0 0 1-.06-.07.15.15 0 0 1 0-.11.19.19 0 0 1 .1-.1l1.53-.72c.06-.04.1-.1.1-.17-.04-.5.11-.95.46-1.33.32-.49.62-1.02 1.3-1.05Z" fill="#331311"/><path d="M25.15 26.97c-.43 1.27-1.35 1.7-2.76 1.27-.34-.1-.66-.39-.95-.86a1.07 1.07 0 0 0-.13-.37c1.14.26 2.25.28 3.33.07a.35.35 0 0 0 .2-.12.32.32 0 0 0 .08-.22l-.07-1.43c.26.53.35 1.09.3 1.66Z" fill="#5D2C2A"/><path d="m20.3 25.37.22.16c-.07.59-.05 1.18.07 1.77.03.14.01.33-.04.58-.04.17.02.28.2.33.07.02.15.02.22 0 .43-.16.78-.08 1.06.24.05.06.12.09.2.08.08 0 .14.01.2.04a.13.13 0 0 1 .05.1.12.12 0 0 1-.03.1l-.52.57c-.39.1-.91.1-1.59-.04a.92.92 0 0 1-.61-.2c-.08-.06-.08-.12-.02-.18.2-.24.45-.4.74-.5a.1.1 0 0 0 .06-.05.09.09 0 0 0 0-.07.33.33 0 0 0-.17-.13.24.24 0 0 1-.1-.08.22.22 0 0 1-.04-.1c-.05-.38.03-.74-.06-1.19-.09-.44-.08-.89.02-1.33a.36.36 0 0 1 .14-.1Z" fill="#AA8154"/><path d="M21.44 27.38c.29.47.6.76.95.86 1.4.42 2.33 0 2.76-1.27l2.62.22c-.12.27-.32.51-.6.73a.17.17 0 0 0-.06.15l.02.07.06.06 1.07.72c-.11.12-.25.15-.4.09a3.12 3.12 0 0 1-.56-.41.16.16 0 0 0-.11-.04.17.17 0 0 0-.12.06l-.17.19c-.07.07-.06.13 0 .2.13.1.18.22.38.29.61.2 1.1.04 1.46-.46a.2.2 0 0 0 .04-.11c0-.1-.03-.14-.08-.15-.04 0-.07 0-.09.05a.24.24 0 0 1-.08.12c-.02-.12.01-.2.09-.24.1-.06.12-.13.05-.22-.27-.4-.38-.7-.35-.9.76.3 1.56.38 2.4.25.1-.01.2 0 .29.03l.27.14c1.08.97 2.51.47 3.34-.54l1.64-.3a.26.26 0 0 1 .2.06l.06.04c.08.06.13.04.14-.06l.02-.31c-.07.5 0 .83.21 1a1.7 1.7 0 0 1-.96.64c-.43.12-.56-.04-.4-.46-.7-.14-1.33.03-1.87.52-.43 0-.32.24.32.73l-.36.22c-.2-.09-.35-.11-.47-.06-1.3.51-2.64.78-4.03.82-1.5.05-2.97-.01-4.44-.2a20.4 20.4 0 0 1-1.82-.48c-.2-.06-.36-.03-.49.09-.15-.1-.3-.16-.44-.18l.52-.58a.13.13 0 0 0 .03-.1.13.13 0 0 0-.06-.09.33.33 0 0 0-.2-.04.23.23 0 0 1-.19-.08c-.28-.32-.63-.4-1.06-.25a.36.36 0 0 1-.23.01c-.17-.05-.23-.16-.2-.33.06-.25.08-.44.05-.57a5.46 5.46 0 0 1-.07-1.78c.1-.05.2-.06.3-.03.08.02.12.08.13.16.05.56-.09 1.39.5 1.72Z" fill="#FDD352"/><path d="M39.36 26.41a.83.83 0 0 0 0 .77l-.6.21c-.11.03-.2.03-.24 0-.07-.06-.09-.15-.07-.28-.05-.66.2-1.2.73-1.64a.1.1 0 0 1 .11-.01.1.1 0 0 1 .04.03.1.1 0 0 1 .02.06l.01.86Z" fill="#D4965D"/><path d="m36.61 26.63.07.07-.02.3c0 .11-.06.13-.14.07l-.05-.04a.26.26 0 0 0-.21-.06l-1.64.3.01-.1c.17-.3.24-.63.22-.95-.01-.22.1-.34.32-.36l1.05-.1c.2-.02.3.06.28.25 0 .22.03.43.11.62Z" fill="#FABB27"/><path d="M38.17 26.25c-.35.38-.5.82-.47 1.33 0 .08-.02.13-.1.17l-1.53.73a.19.19 0 0 0-.09.09.15.15 0 0 0 0 .11c0 .02.02.04.06.07-.67.47-1.35.6-2.06.38-.64-.5-.75-.74-.32-.73l1.86-.52c-.15.42-.02.58.41.46.4-.11.73-.33.96-.65l.35-1.25c.24-.21.45-.36.62-.43.12-.06.22.02.3.24Z" fill="#E0BB7B"/><path d="M32.1 26.32c.15-.1.27-.09.35.03a.1.1 0 0 1-.02.15.12.12 0 0 1-.05.02.38.38 0 0 1-.28-.06c-.08-.05-.08-.1 0-.14Z" fill="#89745E"/><path d="M22.27 26.44c.1-.07.24-.07.4 0 .02 0 .04.03.05.05a.12.12 0 0 1 0 .13.13.13 0 0 1-.06.05c-.11.05-.24.03-.38-.05a.11.11 0 0 1-.04-.04.1.1 0 0 1 .03-.14Z" fill="#696868"/><path d="M17.2 28.58c-.34.05-.55-.15-.63-.62l.1-1.12c0-.2.07-.2.18-.05l.21.3a.57.57 0 0 1 .09.48c-.08.27-.06.6.05 1ZM34.64 26.9a.58.58 0 0 0 0 .28l-.02.1c-.83 1-2.26 1.5-3.34.53a.78.78 0 0 0-.17-.29c0-.11 0-.14-.03-.09l.1.01c.04.02.1.02.14 0 .92-.3 1.9-.35 2.96-.16.14.02.26-.1.36-.37Z" fill="#5D2C2A"/><path d="M39.44 28.15c-.26.21-.45.32-.55.32-.53.03-.96.14-1.3.35l-.9-.05.7-.55c.06-.04.11-.07.18-.08l.17-.04a.23.23 0 0 0 .18-.14c.03-.09.1-.16.2-.23.2-.12.3-.41.33-.62-.02.13 0 .22.07.27.05.04.13.04.24.01l.6-.2.92-.13c.08 0 .13.02.16.1.08.24.1.47.04.68-.02.09-.07.1-.15.07-.28-.13-.58-.05-.89.24Z" fill="#8B140B"/><path d="M28.32 27.4c-.03.19.08.48.35.89.07.09.05.16-.05.22-.08.04-.1.12-.1.24a.51.51 0 0 1-.26.17l-1.07-.72a.18.18 0 0 1-.08-.13.17.17 0 0 1 .07-.15c.27-.22.47-.46.6-.73.2-.14.38-.08.54.2Z" fill="#FED688"/><path d="m35.52 27.88-1.86.52a2.07 2.07 0 0 1 1.86-.52Z" fill="#AA8154"/><path d="M16.57 27.96c.08.47.3.67.63.62l.08.56a.2.2 0 0 0 .12.17c.2.1.36.28.46.53-.23.22-.1.38.36.47.06.22.18.42.37.59-.28-.01-.43.1-.44.34-.03.38.06.71.3 1 .24.32.58.27.9.16a.23.23 0 0 0 .15-.15.68.68 0 0 0-.05-.49c-.07-.27-.2-.54-.38-.8a.23.23 0 0 0-.16-.1h-.09c.2 0 .36-.07.48-.22a6.85 6.85 0 0 0 4.3 4.39c.9.42 1.84.63 2.84.63 1.27.08 2.4.07 3.4-.05a7.14 7.14 0 0 0 5.91-4c.1.09.2.14.25.15-.05.24.08.38.4.42 1.28.15 1.51-.6 2.04-1.39.04-.07.03-.13-.04-.18-.16-.13-.2-.28-.1-.46.15-.27.42-.67.8-1.18.12-.04.19-.15.22-.33l.05-.1a.27.27 0 0 1 .08-.07l.14-.08c.1-.03.2-.03.27-.01.08.02.12.07.12.15l-.02.9c-.07-.12-.19-.18-.36-.17 0-.3-.1-.3-.3 0-.05.06-.08.13-.12.22a14.9 14.9 0 0 0-.68 2.12c-.03.14-.02.36.05.67.02.08 0 .15-.05.21-.11.14-.28.2-.51.17-.02 0-.03.01-.04.03 0 .03 0 .05.02.07.02.03.05.03.08.03l1.65-.31c.04.52-.03.73-.2.64L35 34.18c-.09.02-.09.04 0 .07.22.06.45.08.7.03 0 .12.04.18.1.2a5.6 5.6 0 0 0 3.1-.04c.08-.02.12-.08.1-.17a.51.51 0 0 1 .12-.44c.02-.03.02-.05 0-.08-.03-.02-.06-.03-.07-.02-.04.04-.06.02-.07-.04l-.02-.11.55-.24c.04 0 .08.02.1.04.03.02.04.05.04.1l.03.55c-.27.67-.74.97-1.4.9-1.33.34-2.57.52-3.72.53a5.1 5.1 0 0 0-2.9.14c-.36-.07-.65.08-.84.45l-5.93-.1c-.85-.3-1.68-.61-2.47-.92-.42-.16-.98-.13-1.66.1a1.3 1.3 0 0 0-.78.1c-.21-.15-.62-.18-1.2-.1l-1.68-.45a1.99 1.99 0 0 1-.5-.42l.23.01c1 .46 1.9.6 2.65.4.37-.09.36-.15-.01-.18l-1.25-.11.9-.5 1.55.07c.02 0 .03 0 .05-.02.02-.02.02-.04.02-.07a.04.04 0 0 0-.03-.03l-4-1.03c-.04-.01-.05-.04-.04-.08v-.07l.04-.04a.07.07 0 0 1 .05-.01l3.05.56c.36.07.47-.04.33-.32-.03-.06-.13-.11-.3-.15a.64.64 0 0 0-.3.01c-.85.2-1.47 0-1.86-.6l-1.38-2.04-.28-1.33-.02-.57c.2-.03.38-.1.57-.2Z" fill="#331311"/><path d="m39.44 28.15.15.24-.14.08a.27.27 0 0 0-.08.07.25.25 0 0 0-.05.1c-.03.18-.1.3-.22.33-.03-.26-.16-.34-.38-.23a.7.7 0 0 0-.26.24c-.43.59-.68.91-.74.98-.17.17-.33.18-.5.03a.19.19 0 0 1-.07-.18c.05-.3.2-.63.44-.99.34-.2.77-.32 1.3-.35.1 0 .29-.1.55-.32Z" fill="#AA5933"/><path d="M21.37 28.54a.6.6 0 0 1 .54-.06c.11.03.11.08 0 .12a.98.98 0 0 1-.51.05.06.06 0 0 1-.05-.05.06.06 0 0 1 .02-.06Z" fill="#FDD352"/><path d="M28.26 28.92c.12-.03.2-.1.27-.17a.24.24 0 0 0 .08-.12c.01-.04.05-.06.1-.05.04.01.07.06.07.15a.2.2 0 0 1-.04.1c-.36.51-.85.67-1.46.47-.2-.07-.25-.18-.37-.3-.07-.06-.08-.12-.01-.2l.17-.18a.16.16 0 0 1 .12-.06.17.17 0 0 1 .11.04c.28.24.47.37.55.4.16.07.3.04.41-.08Z" fill="#AA5933"/><path d="M39.1 28.97c-.38.51-.65.9-.8 1.18-.1.18-.06.33.1.46.07.05.08.11.04.18-.53.8-.76 1.54-2.05 1.39-.31-.04-.44-.18-.39-.42l1.01-2.57c.05-.12 0-.16-.12-.13l-.08.01a.34.34 0 0 0-.15.07.32.32 0 0 0-.09.13l-.42 1.03a8.72 8.72 0 0 1-6.44 4.89c-.68.13-1.86.15-3.54.04a9.89 9.89 0 0 1-4.36-2.48 5.9 5.9 0 0 1-.8-1.33 5.18 5.18 0 0 1-.67-2.12c.68.13 1.2.15 1.59.04.14.02.3.08.44.18-.08.42-.06.81.08 1.16a4.67 4.67 0 0 0 3.35 2.97c1.74.48 3.45.38 5.12-.28a4.36 4.36 0 0 0 2.72-2.9c.05-.2.05-.57-.02-1.12l.36-.22c.7.22 1.4.1 2.06-.38.33.09.55.1.65.02l.9.05c-.24.36-.39.69-.44 1-.01.06.01.12.07.17.17.15.33.14.5-.03l.74-.98a.7.7 0 0 1 .26-.24c.22-.11.35-.03.38.23Z" fill="#FED688"/><path d="m16.02 28.73.28 1.33c-.03.68.05 1.38.26 2.1.01.05.02.1.01.15 0 .04-.02.08-.05.1a.28.28 0 0 0-.06.22l.08.73c.05.31-.04.49-.28.53-.2-.25-.3-.61-.32-1.08-.04-1.7-.05-3-.04-3.9 0-.11.04-.17.12-.18Z" fill="#E0BB7B"/><path d="M36 31.76c-.06-.01-.14-.06-.25-.15l.4-1.3.42-1.04c.02-.05.05-.1.1-.13a.34.34 0 0 1 .14-.07l.08-.01c.13-.03.17.01.12.13l-1 2.57Z" fill="#AA5933"/><path d="M39.6 29.26c-.1.92-.37 1.88-.78 2.87-.08.19-.02.25.18.19l.4-.13a.48.48 0 0 0 .21-.13c.06-.07.1-.14.1-.22l.2-1c.05.15.14.3.24.4-.05.13-.08.26-.1.41 0 .08-.02.15-.07.22-.17.23-.26.43-.28.6l-1.65.3c-.03.01-.06 0-.08-.02a.08.08 0 0 1-.02-.07c0-.02.02-.03.04-.03.23.03.4-.03.5-.17a.25.25 0 0 0 .06-.21c-.07-.3-.08-.53-.05-.67a14.91 14.91 0 0 1 .8-2.34c.2-.3.3-.3.3 0Z" fill="#723D2B"/><path d="M33.62 29.35c.07.55.07.93.02 1.12a4.36 4.36 0 0 1-2.72 2.9 7.93 7.93 0 0 1-5.12.28 4.67 4.67 0 0 1-3.35-2.97 2.1 2.1 0 0 1-.08-1.16c.13-.12.3-.15.49-.09.6.19 1.2.35 1.82.48a.33.33 0 0 1-.14.24l-.94-.1a.21.21 0 0 0-.15.04.2.2 0 0 0-.08.13c-.04.58.16 1.05.62 1.42a.09.09 0 0 1 .03.08c0 .01 0 .03-.02.04a.1.1 0 0 1-.03.03l-.08.04c-.08.03-.11.1-.1.18.15.55 1.28 1.2 1.75 1.36 1.75.62 3.48.58 5.18-.13.5-.24.96-.6 1.37-1.04a.38.38 0 0 0 .1-.2.36.36 0 0 0-.04-.22l-.27-.08c.23-.22.4-.43.52-.66.17-.32.23-.64.2-.96a.2.2 0 0 0-.09-.14.23.23 0 0 0-.17-.04l-1.24.22-.83.2-.9.1a.47.47 0 0 1-.25-.31c1.39-.04 2.73-.31 4.03-.82.12-.05.28-.03.47.06Z" fill="#331311"/><path d="M19.48 29.77c.24.7.58 1.25 1.01 1.66.3.38.56.79.77 1.2.2.37.37.65.52.83.29.35.52.58.7.69.43.23.8.52 1.11.88a6.85 6.85 0 0 1-4.3-4.4l-.84-.94 1.03.08Z" fill="#AA5933"/><path d="M18.22 30.3c-.47-.08-.59-.24-.36-.46.13 0 .23.03.32.1.14.13.16.25.04.37Z" fill="#AA8154"/><path d="M29.12 30.1c.03.14.11.25.24.32-1.11.31-2.67.16-3.8.07l-.58-.19-.44-.15a.33.33 0 0 0 .14-.24c1.47.19 2.95.25 4.44.2Z" fill="#723D2B"/><path d="M31.88 31.7c-.22.2-.55.34-1 .43-.48.08-1.33.31-1.76.19-.08-.03-.08-.05 0-.06l2.18-.43c.3-.17.47-.46.51-.88.05-.46-.25-.78-.7-.83l1.23-.22a.23.23 0 0 1 .17.04c.03.01.05.04.06.06a.2.2 0 0 1 .03.08c.03.32-.03.64-.2.96-.12.23-.29.44-.52.66Z" fill="#89745E"/><path d="m16.3 30.06 1.38 2.05c.4.6 1.01.8 1.85.6a.64.64 0 0 1 .31-.02c.17.04.27.09.3.15.14.28.03.39-.33.32l-3.05-.56a.07.07 0 0 0-.08.05l-.01.07c-.01.04 0 .07.05.08l3.99 1.03.03.03c0 .03 0 .05-.02.07a.06.06 0 0 1-.05.02l-1.56-.07-2.57-.52-.08-.73c0-.08.01-.15.06-.21a.22.22 0 0 0 .05-.11l-.01-.15a6.68 6.68 0 0 1-.26-2.1Z" fill="#C84413"/><path d="m24.54 30.15.44.15c-.23.07-.43.18-.62.33a.19.19 0 0 0-.07.2c.09.31.11.55.07.7-.03.09 0 .15.08.2l.49.27c.05.03.07.07.05.13-.06.16.02.32.24.47.22.3.33.55.32.77-.47-.17-1.6-.81-1.74-1.36-.02-.08 0-.15.09-.18l.08-.04a.1.1 0 0 0 .03-.03.09.09 0 0 0-.01-.12 1.58 1.58 0 0 1-.62-1.42.18.18 0 0 1 .08-.13.2.2 0 0 1 .15-.05l.94.11Z" fill="#AA8154"/><path d="M31.1 30.12c.46.05.76.37.71.83-.04.42-.21.71-.5.88a2.22 2.22 0 0 1 0-1.25c.02-.08-.01-.12-.1-.13l-.94-.12.83-.2ZM24.98 30.3l.58.19a.96.96 0 0 0-.6.1c-.08.04-.11.1-.1.19l.24.98a.3.3 0 0 0 .13.2c.34.2.97.22 1.45.26.16 0 .17.04.02.1-.27.1-.5.12-.7.05-.69-.23-.95-.15-.78.23-.22-.15-.3-.3-.24-.47.02-.06 0-.1-.05-.13l-.5-.27c-.07-.05-.1-.11-.07-.2.04-.15.02-.38-.07-.7a.19.19 0 0 1 0-.1.2.2 0 0 1 .07-.1c.19-.15.4-.26.62-.33Z" fill="#D4CDBD"/><path d="m30.27 30.33.95.12c.08 0 .1.05.09.13-.13.41-.13.83 0 1.25l-2.18.43c-.09.01-.09.03 0 .06.42.12 1.27-.11 1.76-.2.22.07.2.26-.1.58a.3.3 0 0 0-.07.2v.34c-1.7.7-3.43.75-5.18.13 0-.22-.1-.47-.32-.77-.17-.38.09-.46.78-.23.2.07.43.05.7-.05.15-.06.14-.1-.01-.1-.5-.04-1.12-.06-1.46-.27a.3.3 0 0 1-.13-.2l-.23-.97c-.02-.09 0-.15.08-.2.16-.09.36-.12.6-.1 1.14.1 2.7.25 3.81-.06l.9-.1Z" fill="#E9FEFD"/><path d="m36.15 30.3-.4 1.31a7.14 7.14 0 0 1-5.9 4c-1 .12-2.14.13-3.41.05l-.28-.43c1.7.1 2.87.1 3.55-.04 3-.61 5.14-2.24 6.44-4.89Z" fill="#E0BB7B"/><path d="m18.72 30.89-.12.11a.17.17 0 0 0-.03.2l.45.88c.04.08.1.1.19.07.14-.06.22-.2.24-.39.08.18.1.34.05.49a.23.23 0 0 1-.16.15c-.31.1-.65.16-.9-.16a1.38 1.38 0 0 1-.3-1c.02-.24.17-.35.45-.34l.13-.01Z" fill="#723D2B"/><path d="M18.82 30.86h.1c.06.02.11.05.15.1.18.26.3.53.38.8-.02.2-.1.33-.24.39-.08.03-.15.01-.19-.07l-.45-.89a.17.17 0 0 1 .03-.19l.12-.11.1-.03Z" fill="#AA5933"/><path d="m39.68 34.03-.03-.56c0-.04-.01-.07-.04-.09a.22.22 0 0 0-.1-.04.28.28 0 0 1 0-.23c.16.1.23-.12.19-.64.02-.17.11-.37.28-.6a.38.38 0 0 0 .08-.22c0-.15.04-.28.09-.4a8.32 8.32 0 0 1-.14 2.89.23.23 0 0 1-.16.1l-.1-.02c-.04-.02-.07-.08-.07-.19Z" fill="#AA8154"/><path d="M21.01 31.42c.36.72.63 1.16.8 1.33a9.89 9.89 0 0 0 4.35 2.48l.28.43c-1 0-1.95-.21-2.85-.63a4.16 4.16 0 0 0-1.1-.88c-.19-.1-.42-.34-.71-.7a5.36 5.36 0 0 1-.52-.82 8.3 8.3 0 0 0-.77-1.2l.52-.01Z" fill="#D4965D"/><path d="m31.88 31.7.27.08c.04.07.05.14.04.22a.38.38 0 0 1-.1.2c-.41.45-.87.8-1.37 1.04v-.34a.3.3 0 0 1 .08-.2c.28-.32.31-.51.09-.57.44-.1.77-.23 1-.43Z" fill="#D4CDBD"/><path d="M36.63 32.45c-.35.43-.78.55-1.31.36l.32-.43c.04-.06.1-.08.18-.07l.8.14Z" fill="#E48620"/><path d="M35.32 32.8c.53.2.96.08 1.3-.35l1.05-.1.08.01c.02.01.04.03.05.06a.13.13 0 0 1-.01.14c-.1.12-.25.2-.43.24-.48.1-.9.28-1.25.57a.28.28 0 0 1-.24.06l-.7-.13c-.07-.01-.1-.05-.1-.12.01-.15.1-.28.25-.37Z" fill="#C84413"/><path d="M39.5 33.1a.28.28 0 0 0 0 .24l-.54.24-3.27.7c-.24.05-.47.03-.7-.03-.08-.03-.08-.05 0-.07l4.51-1.07Z" fill="#E26D0D"/><path d="m19.11 33.88-.9.5-1.26-.27-.12.01a.14.14 0 0 0-.08.07c0 .01.02.04.07.08a.77.77 0 0 0-.23 0l-.33-.38c.24-.04.33-.22.28-.53l2.57.52ZM38.96 33.58l.02.1c.01.07.03.09.07.05l.06.02c.03.03.03.05.01.08a.51.51 0 0 0-.12.44c.02.1-.02.15-.1.17a5.6 5.6 0 0 1-3.1.04c-.06-.02-.1-.08-.1-.2l3.26-.7Z" fill="#8B140B"/><path d="m18.22 34.38 1.25.1c.37.04.38.1.01.2-.76.19-1.64.05-2.66-.4l-.07-.09a.14.14 0 0 1 .08-.07.21.21 0 0 1 .12 0l1.27.26Z" fill="#C84413"/><path d="M17 34.84c.75.45 1.7.71 2.86.8l-1.08.53c-.55-.11-2.4-.63-2.46-1.37-.01-.08.03-.12.12-.12.17 0 .36.06.56.16Z" fill="#111317"/><path d="m18.77 35.12 1.1.51a6.38 6.38 0 0 1-2.87-.79l.1-.16 1.67.44Z" fill="#AA8154"/><path d="m24.89 35.94-1.65.05c.05-.28-.17-.42-.66-.4a5.88 5.88 0 0 0-1.82-.46c.68-.23 1.23-.26 1.66-.1.8.31 1.62.61 2.47.91Z" fill="#AA5933"/><path d="M38.28 34.93c0 .2-.14.3-.4.3-.06 0-.1.02-.12.09v.07c.01.05.04.06.1.05l.41-.12c0 .1.06.17.17.2.07.02.09.05.05.11a.88.88 0 0 0-.1.39l-1.74.48c-.2.06-.4.07-.6.05-.05 0-.07-.03-.06-.08l.01-.08c0-.02.02-.04.04-.05a.1.1 0 0 1 .06-.01c.27.03.4.15.66-.08a5.2 5.2 0 0 0 .6-.66v-.05a.09.09 0 0 0-.04-.04.1.1 0 0 0-.05 0c-.17 0-.4.08-.67.23-.06.04-.07.08-.04.14l.05.1c.06.12.02.16-.11.14l-.83-.12h-.05a.14.14 0 0 0-.05.02.1.1 0 0 0-.03.03l-.01.05-.03.06a.11.11 0 0 1-.05.05.23.23 0 0 1-.13.01l-4.5-.16c.2-.37.48-.52.84-.45.93.08 1.9.03 2.9-.14 1.15-.01 2.4-.19 3.72-.53ZM19.98 35.22c.8.33 1.66.45 2.6.37.5-.02.71.12.66.4a10.87 10.87 0 0 0-3.09.18c-.5.02-.72.13-.67.34l-.26.02-.45-.2a.4.4 0 0 0 .01-.16l1.08-.54-1.09-.5c.6-.08 1-.05 1.21.1Z" fill="#8B140B"/><path d="M20.76 35.13c.65.06 1.26.21 1.82.46-.94.09-1.8-.04-2.6-.37.26-.1.52-.14.78-.1ZM38.8 41.24l-1.16.38-.7.13c-.08.02-.1.06-.08.14.01.02.02.04.05.05.06.05.24.01.46-.01.09 0 .1.02.06.1-.03.03-.08.05-.15.06-.74.01-1.34.13-1.81.35.05-.2-.04-.32-.28-.34.14 0 .24-.04.31-.12l2.24-.65 1.4-.51c.2-.06.3-.23.3-.49.07-1.68.07-3.16.02-4.44l-1.63.48-1.18.3v-.17l1.74-.48.86-.4.74-.39a.08.08 0 0 1 .08 0l.03.03v.04l-.23 5.22c0 .14-.08.23-.23.26a1.4 1.4 0 0 0-.85.46Z" fill="#D4CDBD"/><path d="M34.56 35.46c-1 .17-1.97.22-2.9.14a5.1 5.1 0 0 1 2.9-.14Z" fill="#E48620"/><path d="M36.65 36.5v.17c-.24.1-.5.15-.79.13a.25.25 0 0 0-.18.07.23.23 0 0 0-.07.17v4.41c0 .1-.04.17-.12.22l-.22.13c-.1.07-.1.12.02.16.05.02.12.02.21.02-.07.08-.17.11-.31.12l-.86.12a3.3 3.3 0 0 0 .66-1.93c-.03-1.69-.07-2.48.08-3.3.01-.08-.02-.14-.09-.18a1.44 1.44 0 0 0-.45-.14.58.58 0 0 0-.25-.08.87.87 0 0 1 .39.02c.09.02.15.02.18 0 .06-.03.08-.1.08-.19.24-.02.48.04.7.17a.08.08 0 0 0 .08 0l.07-.05c.06-.03.05-.06 0-.1l-.46-.23h.13c.02-.02.04-.03.05-.06a.2.2 0 0 0 .03-.06v-.05a.1.1 0 0 1 .04-.03l.05-.02h.05l.83.12c.13.02.17-.02.1-.14l-.04-.1c-.03-.06-.02-.1.04-.14.28-.15.5-.23.67-.24a.1.1 0 0 1 .05.01c.01.01.03.02.03.04a.08.08 0 0 1 0 .09c-.17.21-.37.42-.59.62-.25.23-.39.11-.66.08a.1.1 0 0 0-.06.01.08.08 0 0 0-.04.05l-.01.08c-.01.05 0 .07.06.08.2.02.4 0 .6-.05Z" fill="#635D4F"/><path d="m18.77 36.33.45.2c.2.41.08.74.08 1.1 0 1.33.02 2.34.05 3.04.02.64.2 1.04.55 1.21.08.04.12.1.1.19-.01.08-.06.13-.13.14a.54.54 0 0 0-.3.11c-.7-.13-1.38-.29-2.07-.48a2.2 2.2 0 0 1-1.21-.87c-.1-.13-.12-.23-.1-.3a.15.15 0 0 1 .08-.08.17.17 0 0 1 .12-.01l.1.01c.1 0 .13-.05.12-.14a22.25 22.25 0 0 1-.22-4.85.17.17 0 0 1 .06-.06.18.18 0 0 1 .15-.01l2.17.8Z" fill="#111317"/><path d="m23.24 36 1.65-.06 5.93.11 4.5.16.46.24c.05.03.06.06 0 .1l-.07.04a.08.08 0 0 1-.08 0 1.2 1.2 0 0 0-.7-.17c-2.8-.1-5.58-.1-8.37.02-.98-.12-1.94-.12-2.9 0-.06 0-.08.04-.04.1l.07.08-.07.04c-.05-.07-.1-.11-.17-.12l-3.3-.37c.97-.2 2-.26 3.09-.18Z" fill="#F3A215"/><path d="M39.46 35.9a16.2 16.2 0 0 0-.32 4.92l-1.4.5.1-4.95 1.62-.48Z" fill="#426470"/><path d="M39.14 40.82a16.2 16.2 0 0 1 .32-4.93c.05 1.28.05 2.76-.01 4.44-.01.26-.11.43-.3.49Z" fill="#89745E"/><path d="m20.15 36.17 3.3.37c.07 0 .12.05.17.12v.07c-.01.05-.05.07-.1.07l-1.54-.17-1.24.01c-.4-.22-.8-.26-1.26-.13-.05-.2.17-.32.67-.34Z" fill="#D4CDBD"/><path d="M26.56 36.44a1.3 1.3 0 0 0-.8.5c-.33.16-.66.21-.98.16l-.72-.2a.47.47 0 0 1-.2-.12l-.17-.16-.07-.09c-.04-.05-.02-.09.05-.1.95-.11 1.91-.11 2.89 0Z" fill="#E26D0D"/><path d="M34.93 36.42c0 .1-.02.16-.08.2-.03.01-.1.01-.18-.01a.88.88 0 0 0-.39-.02l-1.66.05a5.2 5.2 0 0 0-1.77.07.9.9 0 0 0-.53-.08c-.05 0-.08.02-.08.07 0 .06.03.1.09.1l.22.04c.06.01.1.05.1.1.01.04 0 .08-.02.1-.03.03-.08.05-.14.05-.32 0-.58.01-.86-.05a7.37 7.37 0 0 0-3.4.06c-.2.05-.35 0-.46-.16.21-.27.48-.44.79-.5 2.79-.12 5.58-.13 8.37-.02Z" fill="#8B140B"/><path d="m20.74 36.64-1.04.14a.14.14 0 0 0-.09.05.14.14 0 0 0-.03.09v4.29c0 .08.03.14.1.19a4.6 4.6 0 0 0 2.8.7c.2.06.4.08.6.06l.44.1c.03.15-.06.23-.26.24l-.35-.05-1.48-.08a.35.35 0 0 0-.22.06c-.34.23-1.1.04-1.64-.1.06-.07.16-.1.3-.12.07-.01.12-.06.13-.14.02-.09-.02-.15-.1-.19-.35-.17-.53-.57-.55-1.21-.03-.7-.04-1.71-.05-3.03 0-.37.13-.7-.08-1.11l.26-.02c.45-.13.87-.09 1.26.13Z" fill="#331311"/><path d="M21.98 36.63c.29.14.16.31-.38.5-.08.03-.12.08-.12.16-.14 1.6-.14 2.8.02 3.6.08.43.4.83.98 1.2a4.6 4.6 0 0 1-2.8-.7.21.21 0 0 1-.1-.18v-4.3c0-.02 0-.06.03-.08a.14.14 0 0 1 .09-.05l1.04-.14h1.24Z" fill="#635D4F"/><path d="m23.62 36.66.07-.04.17.16c.06.06.13.1.2.12l.72.2.02.21h-.68l-1-.15c-.2.02-.36.07-.5.15a.22.22 0 0 0-.12.18c-.14 1.45-.23 3.32.58 4.67-.2.02-.4 0-.6-.06-.58-.38-.9-.78-.98-1.2-.16-.8-.16-2.01-.02-3.61 0-.08.04-.13.12-.16.54-.2.67-.36.38-.5l1.54.17c.05 0 .09-.02.1-.07a.6.6 0 0 0 0-.07Z" fill="#89745E"/><path d="M32.62 36.64a.34.34 0 0 0-.01.13c0 .05.03.09.09.1h.08c-.78.23-1.42.18-1.93-.16a5.2 5.2 0 0 1 1.77-.07Z" fill="#D4965D"/><path d="M34.28 36.6c.1 0 .18.03.25.07a.65.65 0 0 1-.33.13l-1.42.08-.08-.01c-.06-.01-.09-.05-.09-.1v-.13l1.67-.05Z" fill="#DFE4DA"/><path d="M30.85 36.7c.5.35 1.15.4 1.93.18l1.42-.08.13.01c.14.01.16.06.05.15a.63.63 0 0 1-.28.12 2.7 2.7 0 0 0-.55 0 44.25 44.25 0 0 1-8.75.23l-.02-.2c.32.04.65-.01.99-.17.11.16.27.21.46.16a7.37 7.37 0 0 1 3.4-.06c.28.06.54.04.86.05.06 0 .1-.02.14-.05a.11.11 0 0 0 .03-.1c-.01-.05-.05-.09-.1-.1l-.23-.04c-.06 0-.1-.04-.09-.1 0-.05.03-.07.08-.07a.9.9 0 0 1 .53.08Z" fill="#723D2B"/><path d="m34.33 42.22-1.74.24c-1.34.18-3.1.12-4 .18-.55.04-1.29.04-2.2-.02-.9-.05-2.08.1-3.13-.12.2-.01.3-.1.26-.25l.04-.04.98.14.53.07c2.39.11 4.5.12 6.33.04.66-.03 1.49-.15 2.48-.36l.14-.1c.07-.04.1-.1.1-.19l.02-4.3a1 1 0 0 0-.04-.43.63.63 0 0 0 .28-.12c.1-.09.09-.14-.05-.15h-.13a.65.65 0 0 0 .33-.14c.16.03.31.07.45.14.07.04.1.1.09.17-.15.83-.11 1.62-.08 3.31a3.3 3.3 0 0 1-.66 1.93Z" fill="#89745E"/><path d="M34.1 37.08c.04.08.05.22.04.43a.94.94 0 0 0-.12.3c-.1 1.4-.15 2.83-.14 4.3-1 .2-1.82.32-2.48.35-1.83.08-3.94.07-6.33-.04-.07-.51-.2-1.67-.38-3.46a4.3 4.3 0 0 1 .1-1.63c2.94.2 5.86.13 8.76-.24.17-.03.36-.03.55-.01Z" fill="#E9FEFD"/><path d="M23.12 37.16c-.2 1.74-.06 3.43.44 5.05l-.04.04-.44-.09c-.8-1.35-.72-3.22-.58-4.67.01-.08.05-.14.13-.18.13-.08.3-.13.49-.15Z" fill="#97A7A2"/><path d="m23.12 37.16 1 .14c-.14 1.71 0 3.4.42 5.05l-.98-.14c-.5-1.62-.65-3.3-.44-5.05Z" fill="#D4CDBD"/><path d="M24.8 37.31v.02c-.14.46-.18 1-.11 1.63.18 1.8.3 2.95.38 3.46l-.53-.07a15.36 15.36 0 0 1-.42-5.05l.68.01Z" fill="#DFE4DA"/><path d="M33.88 42.1c0-1.46.04-2.9.14-4.3 0-.05.04-.15.12-.3l-.02 4.31c0 .08-.03.15-.1.2l-.14.1Z" fill="#BCB8AC"/><path d="M38.8 41.24c-.3.37-.68.5-1.16.38l1.15-.38Z" fill="#331311"/><path d="M35.19 42.1c.24.02.33.13.28.34-3.46.53-7.1.69-10.95.46a7.8 7.8 0 0 1-1.44-.2.3.3 0 0 1-.15-.07c-.06-.07-.07-.13-.02-.18l.35.05c1.05.22 2.24.07 3.14.12.9.06 1.64.06 2.2.02.89-.06 2.65 0 3.99-.18l1.74-.24.86-.12Z" fill="#E9FEFD"/><defs><linearGradient id="a" x1="10.42" y1="9.71" x2="68.15" y2="76.02" gradientUnits="userSpaceOnUse"><stop stop-color="#1A1E21"/><stop offset="1" stop-color="#06060A"/></linearGradient></defs></svg>