<svg width="56" height="56" viewBox="0 0 56 56" xmlns="http://www.w3.org/2000/svg"><rect fill="url(#a2gh22r1n)" width="56" height="56" rx="28"/><path d="M33.13 13H17v30h4V14.5c2.93 0 5 2.25 5 4.5v24h4V14.5c3.52 0 5 2.25 5 4.5v24h4V19c0-4.8-3.91-6-5.87-6Z" fill="url(#b2gh22r1n)"/><path fill-rule="evenodd" d="M30.5 14.52c3.16.2 4.5 2.34 4.5 4.48v24h4V19c0-4.8-3.91-6-5.87-6H17v30h4V14.5c.17 0 .34 0 .5.02 2.66.24 4.5 2.36 4.5 4.48v24h4V14.5c.17 0 .34 0 .5.02Zm-1 27.98V14h.5c1.87 0 3.26.6 4.18 1.56.91.95 1.32 2.2 1.32 3.44v23.5h3V19c0-2.24-.9-3.6-2-4.4a5.95 5.95 0 0 0-3.37-1.1H17.5v29h3V14h.5c3.19 0 5.5 2.45 5.5 5v23.5h3Z" fill="#fff"/><path d="m38.93 14.08-26.96 26.3L9 36.97c6.85-2.25 11.65-6.24 14.16-8.25a16.23 16.23 0 0 0 3.66-4.03c-.18-.36-.08-.6 0-.67-.15-.15-.46-.5-.46-.68 0-.18.15-.52.23-.67l-2.06-2.46c1.83-1.35 3.2-1.12 4.57-1.35 1.37-.22 1.6-.44 4.57-2.9 2.38-1.98 4.5-2.11 5.26-1.89Z" fill="#fff"/><path d="m38.92 14.08-26.95 26.3 3.2 3.62c2.97-6.57 6.65-12.1 8.73-14.56a16.3 16.3 0 0 1 4.12-3.55c.36.19.6.08.68 0 .15.16.5.47.68.47.18 0 .53-.14.68-.22l2.46 2.07c1.39-1.79 1.18-3.15 1.42-4.5.25-1.35.48-1.57 3-4.47 2.03-2.32 2.2-4.4 1.98-5.16Z" fill="#FBCDBF"/><defs><linearGradient id="a2gh22r1n" x1="0" y1="30.5" x2="56" y2="30.5" gradientUnits="userSpaceOnUse"><stop stop-color="#F5A018"/><stop offset="1" stop-color="#F13212"/></linearGradient><linearGradient id="b2gh22r1n" x1="17.73" y1="13.75" x2="40.36" y2="42.51" gradientUnits="userSpaceOnUse"><stop stop-color="#F03F12"/><stop offset="1" stop-color="#F18016"/></linearGradient></defs></svg>