<svg width="112" height="112" viewBox="0 0 56 56" xmlns="http://www.w3.org/2000/svg"><path d="M24.07 15h-8.5a.56.56 0 0 0-.48.85L24 30.15v13.3c0 .3.28.55.6.55h6.95c.32 0 .45-.25.45-.56V28.57l-7.44-13.3a.57.57 0 0 0-.5-.27Zm7.66.26-2.26 3.47a.55.55 0 0 0-.02.59l3.91 6.83c.22.37.75.37.97.02l6.58-10.32a.56.56 0 0 0-.48-.85h-8.22c-.2 0-.37.1-.48.26Z" fill="#3DB9AE"/><defs><linearGradient id="a" x1="10.42" y1="9.71" x2="68.15" y2="76.02" gradientUnits="userSpaceOnUse"><stop stop-color="#1A1E21"/><stop offset="1" stop-color="#06060A"/></linearGradient></defs></svg>