<svg width="224" height="224" viewBox="0 0 56 56" xmlns="http://www.w3.org/2000/svg"><g fill="#000000"><path d="m32 42-1 2.5-1-6.47L32 42Z" /><path d="m30.5 37 1.5 5-2-4-7-9 1.5 1h.5l5.5 7Z" /><path d="M14.5 27.5 14 35l6-16-5.5 8.5Z" /><path d="m23 19.5-3-.5-6 16 9-15.5Z" /><path d="M21.5 33 23 19.5 14 35l7.5-2Z" /><path d="m21.5 32.5 1.5-13L44 13l-18 9-3 7 7 9-8.5-5.5Z" /><path d="m25 15 1-2 .5 3-.5 1.5-1 .5v-3Z" /><path d="M28.5 15 26 13l.5 3h2v-1Z" /><path d="m26.5 16-.5 1.5 2.5-.5-1.5-1h-.5Z" /><path d="M28.5 16H27l1.5 1H30l-1.5-2v1Z" /><path d="m23 43-9-8 2 3 7 5Z" /><path d="M19 33.5 14 35l9 8h1.5L19 33.5Z" /><path d="m21.5 32.5-2.5 1 5.5 9.5 3.5-1.5 2-3.5-8.5-5.5Z" /><path d="M31 44.5 30 38l-2 3.5-5 1.5 2.5 2 5.5-.5Z" /><path d="m23 19.5-3-.5 24-6-21 6.5Z" /><path d="M24.5 30 23 29l1.5-3.5.5 4.5h-.5Z" /><path d="M24.5 27.5v-2l2 .5v2l-.5.5-1.5-1Z" /><path d="m30.5 21.5-3.5 2 8 5.5-4.5-7.5Z" /><path d="m33 29-6.5-3v2l6.5 1Z" /><path d="m33 29-8.5-3.5 2.5-2 8 5.5h-2Z" /><path d="m26.5 28-.5.5 4.5 2L33 29l-6.5-1Z" /><path d="M30.5 30.5 33 29v3.5l-2.5-2Z" /><path d="M35 29h-2v2h2v-2Z" /><path d="M33 32.5V31h2l1.5 1.5H33Z" /><path d="M36.5 32.5 35 31v-2h2l.5 1.5-1 2Z" /><path d="M37 29h-2l-4.5-7.5L32 21l4.5 6 .5 2Z" /><path d="M44 13 24.5 25.5 44 14v-1Z" /><path d="M26 21.5 44 13 24.5 25.5l1.5-4Z" /><defs><linearGradient id="apwtlfr0f" x1="10.42" y1="9.71" x2="68.15" y2="76.02" gradientUnits="userSpaceOnUse"><stop stop-color="#1A1E21"/><stop offset="1" stop-color="#06060A"/></linearGradient></defs></g></svg>